0, 0, Header, 1, 3, 384
1, 0, Start_track
1, 0, Time_signature, 4, 2, 24, 8
1, 0, Tempo, 500000
1, 608920, End_track
2, 0, Start_track
2, 0, Text_t, "random instrument: random person i dunno whatev"
2, 0, Title_t, "Track 1"
2, 320, Note_on_c, 1, 74, 127
2, 600, Note_off_c, 1, 74, 0
2, 640, Note_on_c, 1, 74, 127
2, 920, Note_off_c, 1, 74, 0
2, 960, Note_on_c, 1, 70, 127
2, 1240, Note_off_c, 1, 70, 0
2, 1280, Note_on_c, 1, 67, 127
2, 1280, Note_on_c, 1, 70, 127
2, 1560, Note_off_c, 1, 67, 0
2, 1560, Note_off_c, 1, 70, 0
2, 1600, Note_on_c, 1, 67, 127
2, 1600, Note_on_c, 1, 70, 127
2, 1880, Note_off_c, 1, 67, 0
2, 1880, Note_off_c, 1, 70, 0
2, 1920, Note_on_c, 1, 66, 127
2, 1920, Note_on_c, 1, 69, 127
2, 2040, Note_off_c, 1, 69, 0
2, 2080, Note_on_c, 1, 67, 127
2, 2200, Note_off_c, 1, 66, 0
2, 2200, Note_off_c, 1, 67, 0
2, 2240, Note_on_c, 1, 62, 127
2, 2240, Note_on_c, 1, 66, 127
2, 2240, Note_on_c, 1, 69, 127
2, 2360, Note_off_c, 1, 69, 0
2, 2400, Note_on_c, 1, 70, 127
2, 2520, Note_off_c, 1, 62, 0
2, 2520, Note_off_c, 1, 66, 0
2, 2520, Note_off_c, 1, 70, 0
2, 2560, Note_on_c, 1, 62, 127
2, 2560, Note_on_c, 1, 66, 127
2, 2560, Note_on_c, 1, 69, 127
2, 2680, Note_off_c, 1, 69, 0
2, 2720, Note_on_c, 1, 70, 127
2, 2840, Note_off_c, 1, 62, 0
2, 2840, Note_off_c, 1, 66, 0
2, 2840, Note_off_c, 1, 70, 0
2, 2880, Note_on_c, 1, 58, 127
2, 2880, Note_on_c, 1, 62, 127
2, 2880, Note_on_c, 1, 67, 127
2, 3000, Note_off_c, 1, 67, 0
2, 3040, Note_on_c, 1, 66, 127
2, 3160, Note_off_c, 1, 58, 0
2, 3160, Note_off_c, 1, 62, 0
2, 3160, Note_off_c, 1, 66, 0
2, 3200, Note_on_c, 1, 55, 127
2, 3200, Note_on_c, 1, 58, 127
2, 3200, Note_on_c, 1, 62, 127
2, 3200, Note_on_c, 1, 67, 127
2, 3320, Note_off_c, 1, 67, 0
2, 3400, Note_on_c, 1, 69, 127
2, 3480, Note_off_c, 1, 55, 0
2, 3480, Note_off_c, 1, 58, 0
2, 3480, Note_off_c, 1, 62, 0
2, 3480, Note_off_c, 1, 69, 0
2, 3560, Note_on_c, 1, 55, 127
2, 3560, Note_on_c, 1, 58, 127
2, 3560, Note_on_c, 1, 62, 127
2, 3560, Note_on_c, 1, 70, 127
2, 3680, Note_off_c, 1, 70, 0
2, 3720, Note_on_c, 1, 72, 127
2, 3840, Note_off_c, 1, 55, 0
2, 3840, Note_off_c, 1, 58, 0
2, 3840, Note_off_c, 1, 62, 0
2, 3840, Note_off_c, 1, 72, 0
2, 3880, Note_on_c, 1, 54, 127
2, 3880, Note_on_c, 1, 57, 127
2, 3880, Note_on_c, 1, 62, 127
2, 3880, Note_on_c, 1, 74, 127
2, 4000, Note_off_c, 1, 74, 0
2, 4040, Note_on_c, 1, 72, 127
2, 4160, Note_off_c, 1, 54, 0
2, 4160, Note_off_c, 1, 57, 0
2, 4160, Note_off_c, 1, 62, 0
2, 4160, Note_off_c, 1, 72, 0
2, 4200, Note_on_c, 1, 50, 127
2, 4200, Note_on_c, 1, 54, 127
2, 4200, Note_on_c, 1, 57, 127
2, 4200, Note_on_c, 1, 74, 127
2, 4320, Note_off_c, 1, 74, 0
2, 4360, Note_on_c, 1, 76, 127
2, 4480, Note_off_c, 1, 50, 0
2, 4480, Note_off_c, 1, 54, 0
2, 4480, Note_off_c, 1, 57, 0
2, 4480, Note_off_c, 1, 76, 0
2, 4520, Note_on_c, 1, 50, 127
2, 4520, Note_on_c, 1, 54, 127
2, 4520, Note_on_c, 1, 57, 127
2, 4520, Note_on_c, 1, 78, 127
2, 4640, Note_off_c, 1, 78, 0
2, 4680, Note_on_c, 1, 74, 127
2, 4800, Note_off_c, 1, 50, 0
2, 4800, Note_off_c, 1, 54, 0
2, 4800, Note_off_c, 1, 57, 0
2, 4800, Note_off_c, 1, 74, 0
2, 4840, Note_on_c, 1, 46, 127
2, 4840, Note_on_c, 1, 50, 127
2, 4840, Note_on_c, 1, 55, 127
2, 4840, Note_on_c, 1, 79, 127
2, 4960, Note_off_c, 1, 79, 0
2, 5000, Note_on_c, 1, 78, 127
2, 5120, Note_off_c, 1, 46, 0
2, 5120, Note_off_c, 1, 50, 0
2, 5120, Note_off_c, 1, 55, 0
2, 5120, Note_off_c, 1, 78, 0
2, 5160, Note_on_c, 1, 43, 127
2, 5160, Note_on_c, 1, 46, 127
2, 5160, Note_on_c, 1, 50, 127
2, 5160, Note_on_c, 1, 55, 127
2, 5160, Note_on_c, 1, 79, 127
2, 5280, Note_off_c, 1, 79, 0
2, 5320, Note_on_c, 1, 81, 127
2, 5440, Note_off_c, 1, 43, 0
2, 5440, Note_off_c, 1, 46, 0
2, 5440, Note_off_c, 1, 50, 0
2, 5440, Note_off_c, 1, 55, 0
2, 5440, Note_off_c, 1, 81, 0
2, 5480, Note_on_c, 1, 43, 127
2, 5480, Note_on_c, 1, 46, 127
2, 5480, Note_on_c, 1, 50, 127
2, 5480, Note_on_c, 1, 82, 127
2, 5600, Note_off_c, 1, 82, 0
2, 5640, Note_on_c, 1, 79, 127
2, 5760, Note_off_c, 1, 43, 0
2, 5760, Note_off_c, 1, 46, 0
2, 5760, Note_off_c, 1, 50, 0
2, 5760, Note_off_c, 1, 79, 0
2, 5800, Note_on_c, 1, 38, 127
2, 5800, Note_on_c, 1, 42, 127
2, 5800, Note_on_c, 1, 45, 127
2, 5800, Note_on_c, 1, 50, 127
2, 5800, Note_on_c, 1, 81, 127
2, 5920, Note_off_c, 1, 81, 0
2, 5960, Note_on_c, 1, 79, 127
2, 6080, Note_off_c, 1, 79, 0
2, 6120, Note_on_c, 1, 78, 127
2, 6240, Note_off_c, 1, 78, 0
2, 6280, Note_on_c, 1, 76, 127
2, 6400, Note_off_c, 1, 76, 0
2, 6440, Note_on_c, 1, 74, 127
2, 6520, Note_off_c, 1, 38, 0
2, 6520, Note_off_c, 1, 42, 0
2, 6520, Note_off_c, 1, 45, 0
2, 6520, Note_off_c, 1, 50, 0
2, 6560, Note_off_c, 1, 74, 0
2, 6640, Note_on_c, 1, 72, 127
2, 6760, Note_off_c, 1, 72, 0
2, 6800, Note_on_c, 1, 70, 127
2, 6960, Note_on_c, 1, 69, 127
2, 7080, Note_off_c, 1, 69, 0
2, 7080, Note_off_c, 1, 70, 0
2, 7120, Note_on_c, 1, 67, 127
2, 7120, Note_on_c, 1, 70, 127
2, 7120, Note_on_c, 1, 74, 127
2, 7120, Note_on_c, 1, 79, 127
2, 7240, Note_off_c, 1, 67, 0
2, 7280, Note_on_c, 1, 65, 127
2, 7400, Note_off_c, 1, 65, 0
2, 7400, Note_off_c, 1, 70, 0
2, 7400, Note_off_c, 1, 74, 0
2, 7400, Note_off_c, 1, 79, 0
2, 7440, Note_on_c, 1, 63, 127
2, 7440, Note_on_c, 1, 70, 127
2, 7440, Note_on_c, 1, 74, 127
2, 7440, Note_on_c, 1, 79, 127
2, 7560, Note_off_c, 1, 63, 0
2, 7600, Note_on_c, 1, 62, 127
2, 7720, Note_off_c, 1, 62, 0
2, 7720, Note_off_c, 1, 70, 0
2, 7720, Note_off_c, 1, 74, 0
2, 7720, Note_off_c, 1, 79, 0
2, 7760, Note_on_c, 1, 60, 127
2, 7760, Note_on_c, 1, 72, 127
2, 7760, Note_on_c, 1, 75, 127
2, 7880, Note_off_c, 1, 60, 0
2, 7880, Note_off_c, 1, 75, 0
2, 7920, Note_on_c, 1, 62, 127
2, 7920, Note_on_c, 1, 77, 127
2, 8040, Note_off_c, 1, 62, 0
2, 8040, Note_off_c, 1, 77, 0
2, 8080, Note_on_c, 1, 60, 127
2, 8080, Note_on_c, 1, 75, 127
2, 8200, Note_off_c, 1, 60, 0
2, 8200, Note_off_c, 1, 72, 0
2, 8200, Note_off_c, 1, 75, 0
2, 8240, Note_on_c, 1, 58, 127
2, 8240, Note_on_c, 1, 74, 127
2, 8360, Note_off_c, 1, 58, 0
2, 8360, Note_off_c, 1, 74, 0
2, 8400, Note_on_c, 1, 57, 127
2, 8400, Note_on_c, 1, 72, 127
2, 8520, Note_off_c, 1, 57, 0
2, 8520, Note_off_c, 1, 72, 0
2, 8560, Note_on_c, 1, 55, 127
2, 8560, Note_on_c, 1, 70, 127
2, 8680, Note_off_c, 1, 55, 0
2, 8680, Note_off_c, 1, 70, 0
2, 8720, Note_on_c, 1, 53, 127
2, 8720, Note_on_c, 1, 69, 127
2, 8840, Note_off_c, 1, 53, 0
2, 8880, Note_on_c, 1, 67, 127
2, 9000, Note_off_c, 1, 67, 0
2, 9000, Note_off_c, 1, 69, 0
2, 9040, Note_on_c, 1, 65, 127
2, 9040, Note_on_c, 1, 69, 127
2, 9040, Note_on_c, 1, 72, 127
2, 9040, Note_on_c, 1, 77, 127
2, 9160, Note_off_c, 1, 65, 0
2, 9200, Note_on_c, 1, 63, 127
2, 9320, Note_off_c, 1, 63, 0
2, 9320, Note_off_c, 1, 69, 0
2, 9320, Note_off_c, 1, 72, 0
2, 9320, Note_off_c, 1, 77, 0
2, 9360, Note_on_c, 1, 62, 127
2, 9360, Note_on_c, 1, 69, 127
2, 9360, Note_on_c, 1, 72, 127
2, 9360, Note_on_c, 1, 77, 127
2, 9480, Note_off_c, 1, 62, 0
2, 9520, Note_on_c, 1, 60, 127
2, 9640, Note_off_c, 1, 60, 0
2, 9640, Note_off_c, 1, 69, 0
2, 9640, Note_off_c, 1, 72, 0
2, 9640, Note_off_c, 1, 77, 0
2, 9680, Note_on_c, 1, 58, 127
2, 9680, Note_on_c, 1, 70, 127
2, 9680, Note_on_c, 1, 74, 127
2, 9800, Note_off_c, 1, 58, 0
2, 9800, Note_off_c, 1, 74, 0
2, 9880, Note_on_c, 1, 60, 127
2, 9880, Note_on_c, 1, 75, 127
2, 9960, Note_off_c, 1, 60, 0
2, 9960, Note_off_c, 1, 75, 0
2, 10040, Note_on_c, 1, 58, 127
2, 10040, Note_on_c, 1, 74, 127
2, 10120, Note_off_c, 1, 70, 0
2, 10160, Note_off_c, 1, 58, 0
2, 10160, Note_off_c, 1, 74, 0
2, 10200, Note_on_c, 1, 57, 127
2, 10200, Note_on_c, 1, 72, 127
2, 10320, Note_off_c, 1, 57, 0
2, 10320, Note_off_c, 1, 72, 0
2, 10360, Note_on_c, 1, 55, 127
2, 10360, Note_on_c, 1, 70, 127
2, 10480, Note_off_c, 1, 55, 0
2, 10480, Note_off_c, 1, 70, 0
2, 10520, Note_on_c, 1, 53, 127
2, 10520, Note_on_c, 1, 69, 127
2, 10640, Note_off_c, 1, 53, 0
2, 10640, Note_off_c, 1, 69, 0
2, 10680, Note_on_c, 1, 51, 127
2, 10680, Note_on_c, 1, 67, 127
2, 10800, Note_off_c, 1, 51, 0
2, 10840, Note_on_c, 1, 65, 127
2, 10960, Note_off_c, 1, 65, 0
2, 10960, Note_off_c, 1, 67, 0
2, 11000, Note_on_c, 1, 63, 127
2, 11000, Note_on_c, 1, 67, 127
2, 11000, Note_on_c, 1, 70, 127
2, 11000, Note_on_c, 1, 75, 127
2, 11120, Note_off_c, 1, 63, 0
2, 11160, Note_on_c, 1, 62, 127
2, 11280, Note_off_c, 1, 62, 0
2, 11280, Note_off_c, 1, 67, 0
2, 11280, Note_off_c, 1, 70, 0
2, 11280, Note_off_c, 1, 75, 0
2, 11320, Note_on_c, 1, 60, 127
2, 11320, Note_on_c, 1, 67, 127
2, 11320, Note_on_c, 1, 70, 127
2, 11320, Note_on_c, 1, 75, 127
2, 11440, Note_off_c, 1, 60, 0
2, 11480, Note_on_c, 1, 58, 127
2, 11600, Note_off_c, 1, 58, 0
2, 11600, Note_off_c, 1, 67, 0
2, 11600, Note_off_c, 1, 70, 0
2, 11600, Note_off_c, 1, 75, 0
2, 11640, Note_on_c, 1, 57, 127
2, 11640, Note_on_c, 1, 67, 127
2, 11640, Note_on_c, 1, 72, 127
2, 11760, Note_off_c, 1, 57, 0
2, 11760, Note_off_c, 1, 72, 0
2, 11800, Note_on_c, 1, 58, 127
2, 11800, Note_on_c, 1, 74, 127
2, 11920, Note_off_c, 1, 58, 0
2, 11920, Note_off_c, 1, 74, 0
2, 11960, Note_on_c, 1, 57, 127
2, 11960, Note_on_c, 1, 72, 127
2, 12080, Note_off_c, 1, 57, 0
2, 12080, Note_off_c, 1, 72, 0
2, 12120, Note_on_c, 1, 55, 127
2, 12120, Note_on_c, 1, 70, 127
2, 12240, Note_off_c, 1, 55, 0
2, 12240, Note_off_c, 1, 67, 0
2, 12240, Note_off_c, 1, 70, 0
2, 12280, Note_on_c, 1, 54, 127
2, 12280, Note_on_c, 1, 69, 127
2, 12400, Note_off_c, 1, 54, 0
2, 12400, Note_off_c, 1, 69, 0
2, 12440, Note_on_c, 1, 52, 127
2, 12440, Note_on_c, 1, 67, 127
2, 12560, Note_off_c, 1, 52, 0
2, 12560, Note_off_c, 1, 67, 0
2, 12600, Note_on_c, 1, 50, 127
2, 12600, Note_on_c, 1, 66, 127
2, 12720, Note_off_c, 1, 50, 0
2, 12760, Note_on_c, 1, 51, 127
2, 12880, Note_off_c, 1, 51, 0
2, 12880, Note_off_c, 1, 66, 0
2, 12920, Note_on_c, 1, 50, 127
2, 12920, Note_on_c, 1, 66, 127
2, 12920, Note_on_c, 1, 69, 127
2, 12920, Note_on_c, 1, 74, 127
2, 13040, Note_off_c, 1, 50, 0
2, 13120, Note_on_c, 1, 48, 127
2, 13200, Note_off_c, 1, 66, 0
2, 13200, Note_off_c, 1, 69, 0
2, 13200, Note_off_c, 1, 74, 0
2, 13240, Note_off_c, 1, 48, 0
2, 13280, Note_on_c, 1, 46, 127
2, 13280, Note_on_c, 1, 66, 127
2, 13280, Note_on_c, 1, 69, 127
2, 13280, Note_on_c, 1, 74, 127
2, 13400, Note_off_c, 1, 46, 0
2, 13440, Note_on_c, 1, 45, 127
2, 13560, Note_off_c, 1, 45, 0
2, 13560, Note_off_c, 1, 66, 0
2, 13560, Note_off_c, 1, 69, 0
2, 13560, Note_off_c, 1, 74, 0
2, 13600, Note_on_c, 1, 43, 127
2, 13600, Note_on_c, 1, 62, 127
2, 13600, Note_on_c, 1, 67, 127
2, 13600, Note_on_c, 1, 70, 127
2, 13720, Note_off_c, 1, 43, 0
2, 13760, Note_on_c, 1, 45, 127
2, 13880, Note_off_c, 1, 45, 0
2, 13880, Note_off_c, 1, 67, 0
2, 13880, Note_off_c, 1, 70, 0
2, 13920, Note_on_c, 1, 43, 127
2, 13920, Note_on_c, 1, 67, 127
2, 13920, Note_on_c, 1, 70, 127
2, 14040, Note_off_c, 1, 43, 0
2, 14080, Note_on_c, 1, 41, 127
2, 14200, Note_off_c, 1, 41, 0
2, 14200, Note_off_c, 1, 67, 0
2, 14200, Note_off_c, 1, 70, 0
2, 14240, Note_on_c, 1, 39, 127
2, 14240, Note_on_c, 1, 67, 127
2, 14240, Note_on_c, 1, 70, 127
2, 14360, Note_off_c, 1, 39, 0
2, 14400, Note_on_c, 1, 38, 127
2, 14520, Note_off_c, 1, 38, 0
2, 14520, Note_off_c, 1, 62, 0
2, 14520, Note_off_c, 1, 67, 0
2, 14520, Note_off_c, 1, 70, 0
2, 14560, Note_on_c, 1, 36, 127
2, 14560, Note_on_c, 1, 63, 127
2, 14560, Note_on_c, 1, 70, 127
2, 14680, Note_off_c, 1, 63, 0
2, 14720, Note_on_c, 1, 62, 127
2, 14840, Note_off_c, 1, 36, 0
2, 14840, Note_off_c, 1, 62, 0
2, 14880, Note_on_c, 1, 48, 127
2, 14880, Note_on_c, 1, 63, 127
2, 15000, Note_off_c, 1, 63, 0
2, 15040, Note_on_c, 1, 65, 127
2, 15160, Note_off_c, 1, 48, 0
2, 15160, Note_off_c, 1, 65, 0
2, 15200, Note_on_c, 1, 48, 127
2, 15200, Note_on_c, 1, 67, 127
2, 15320, Note_off_c, 1, 67, 0
2, 15360, Note_on_c, 1, 63, 127
2, 15480, Note_off_c, 1, 48, 0
2, 15480, Note_off_c, 1, 63, 0
2, 15480, Note_off_c, 1, 70, 0
2, 15520, Note_on_c, 1, 41, 127
2, 15520, Note_on_c, 1, 60, 127
2, 15520, Note_on_c, 1, 69, 127
2, 15640, Note_off_c, 1, 60, 0
2, 15680, Note_on_c, 1, 67, 127
2, 15800, Note_off_c, 1, 41, 0
2, 15800, Note_off_c, 1, 67, 0
2, 15840, Note_on_c, 1, 53, 127
2, 15840, Note_on_c, 1, 65, 127
2, 15960, Note_off_c, 1, 65, 0
2, 16000, Note_on_c, 1, 63, 127
2, 16120, Note_off_c, 1, 53, 0
2, 16120, Note_off_c, 1, 63, 0
2, 16160, Note_on_c, 1, 53, 127
2, 16160, Note_on_c, 1, 62, 127
2, 16280, Note_off_c, 1, 62, 0
2, 16360, Note_on_c, 1, 60, 127
2, 16440, Note_off_c, 1, 53, 0
2, 16440, Note_off_c, 1, 60, 0
2, 16520, Note_on_c, 1, 58, 127
2, 16520, Note_on_c, 1, 62, 127
2, 16640, Note_off_c, 1, 62, 0
2, 16680, Note_on_c, 1, 60, 127
2, 16800, Note_off_c, 1, 58, 0
2, 16800, Note_off_c, 1, 60, 0
2, 16840, Note_on_c, 1, 46, 127
2, 16840, Note_on_c, 1, 62, 127
2, 16960, Note_off_c, 1, 62, 0
2, 17000, Note_on_c, 1, 63, 127
2, 17120, Note_off_c, 1, 46, 0
2, 17120, Note_off_c, 1, 63, 0
2, 17160, Note_on_c, 1, 46, 127
2, 17160, Note_on_c, 1, 65, 127
2, 17280, Note_off_c, 1, 65, 0
2, 17320, Note_on_c, 1, 62, 127
2, 17440, Note_off_c, 1, 46, 0
2, 17440, Note_off_c, 1, 62, 0
2, 17440, Note_off_c, 1, 69, 0
2, 17480, Note_on_c, 1, 39, 127
2, 17480, Note_on_c, 1, 58, 127
2, 17480, Note_on_c, 1, 67, 127
2, 17600, Note_off_c, 1, 58, 0
2, 17640, Note_on_c, 1, 65, 127
2, 17760, Note_off_c, 1, 39, 0
2, 17760, Note_off_c, 1, 65, 0
2, 17800, Note_on_c, 1, 51, 127
2, 17800, Note_on_c, 1, 63, 127
2, 17920, Note_off_c, 1, 63, 0
2, 17960, Note_on_c, 1, 62, 127
2, 18080, Note_off_c, 1, 51, 0
2, 18080, Note_off_c, 1, 62, 0
2, 18120, Note_on_c, 1, 51, 127
2, 18120, Note_on_c, 1, 60, 127
2, 18240, Note_off_c, 1, 60, 0
2, 18280, Note_on_c, 1, 58, 127
2, 18400, Note_off_c, 1, 51, 0
2, 18400, Note_off_c, 1, 58, 0
2, 18440, Note_on_c, 1, 57, 127
2, 18440, Note_on_c, 1, 60, 127
2, 18560, Note_off_c, 1, 60, 0
2, 18600, Note_on_c, 1, 58, 127
2, 18720, Note_off_c, 1, 57, 0
2, 18720, Note_off_c, 1, 58, 0
2, 18760, Note_on_c, 1, 45, 127
2, 18760, Note_on_c, 1, 60, 127
2, 18880, Note_off_c, 1, 60, 0
2, 18920, Note_on_c, 1, 62, 127
2, 19040, Note_off_c, 1, 45, 0
2, 19040, Note_off_c, 1, 62, 0
2, 19080, Note_on_c, 1, 45, 127
2, 19080, Note_on_c, 1, 63, 127
2, 19200, Note_off_c, 1, 63, 0
2, 19240, Note_on_c, 1, 60, 127
2, 19360, Note_off_c, 1, 45, 0
2, 19360, Note_off_c, 1, 60, 0
2, 19360, Note_off_c, 1, 67, 0
2, 19400, Note_on_c, 1, 38, 127
2, 19400, Note_on_c, 1, 57, 127
2, 19400, Note_on_c, 1, 66, 127
2, 19520, Note_off_c, 1, 57, 0
2, 19600, Note_on_c, 1, 63, 127
2, 19680, Note_off_c, 1, 63, 0
2, 19760, Note_on_c, 1, 62, 127
2, 19840, Note_off_c, 1, 38, 0
2, 19880, Note_off_c, 1, 62, 0
2, 19920, Note_on_c, 1, 60, 127
2, 20040, Note_off_c, 1, 60, 0
2, 20080, Note_on_c, 1, 58, 127
2, 20200, Note_off_c, 1, 58, 0
2, 20240, Note_on_c, 1, 57, 127
2, 20360, Note_off_c, 1, 57, 0
2, 20360, Note_off_c, 1, 66, 0
2, 20400, Note_on_c, 1, 58, 127
2, 20400, Note_on_c, 1, 69, 127
2, 20440, Note_off_c, 1, 69, 0
2, 20480, Note_on_c, 1, 67, 127
2, 20520, Note_off_c, 1, 58, 0
2, 20520, Note_off_c, 1, 67, 0
2, 20560, Note_on_c, 1, 62, 127
2, 20560, Note_on_c, 1, 66, 127
2, 20600, Note_off_c, 1, 66, 0
2, 20640, Note_on_c, 1, 67, 127
2, 20680, Note_off_c, 1, 62, 0
2, 20680, Note_off_c, 1, 67, 0
2, 20720, Note_on_c, 1, 60, 127
2, 20720, Note_on_c, 1, 69, 127
2, 20760, Note_off_c, 1, 69, 0
2, 20800, Note_on_c, 1, 67, 127
2, 20840, Note_off_c, 1, 60, 0
2, 20840, Note_off_c, 1, 67, 0
2, 20880, Note_on_c, 1, 58, 127
2, 20880, Note_on_c, 1, 69, 127
2, 20920, Note_off_c, 1, 69, 0
2, 20960, Note_on_c, 1, 67, 127
2, 21000, Note_off_c, 1, 58, 0
2, 21000, Note_off_c, 1, 67, 0
2, 21040, Note_on_c, 1, 57, 127
2, 21040, Note_on_c, 1, 69, 127
2, 21080, Note_off_c, 1, 69, 0
2, 21120, Note_on_c, 1, 67, 127
2, 21160, Note_off_c, 1, 57, 0
2, 21160, Note_off_c, 1, 67, 0
2, 21200, Note_on_c, 1, 55, 127
2, 21200, Note_on_c, 1, 66, 127
2, 21240, Note_off_c, 1, 66, 0
2, 21280, Note_on_c, 1, 67, 127
2, 21320, Note_off_c, 1, 55, 0
2, 21320, Note_off_c, 1, 67, 0
2, 21360, Note_on_c, 1, 54, 127
2, 21360, Note_on_c, 1, 69, 127
2, 21480, Note_off_c, 1, 54, 0
2, 21520, Note_on_c, 1, 55, 127
2, 21640, Note_off_c, 1, 55, 0
2, 21640, Note_off_c, 1, 69, 0
2, 21680, Note_on_c, 1, 54, 127
2, 21680, Note_on_c, 1, 66, 127
2, 21680, Note_on_c, 1, 69, 127
2, 21680, Note_on_c, 1, 74, 127
2, 21800, Note_off_c, 1, 54, 0
2, 21840, Note_on_c, 1, 52, 127
2, 21960, Note_off_c, 1, 52, 0
2, 21960, Note_off_c, 1, 66, 0
2, 21960, Note_off_c, 1, 69, 0
2, 21960, Note_off_c, 1, 74, 0
2, 22000, Note_on_c, 1, 50, 127
2, 22000, Note_on_c, 1, 66, 127
2, 22000, Note_on_c, 1, 69, 127
2, 22000, Note_on_c, 1, 74, 127
2, 22120, Note_off_c, 1, 50, 0
2, 22160, Note_on_c, 1, 48, 127
2, 22280, Note_off_c, 1, 48, 0
2, 22280, Note_off_c, 1, 66, 0
2, 22280, Note_off_c, 1, 69, 0
2, 22280, Note_off_c, 1, 74, 0
2, 22320, Note_on_c, 1, 47, 127
2, 22320, Note_on_c, 1, 67, 127
2, 22320, Note_on_c, 1, 71, 127
2, 22320, Note_on_c, 1, 74, 127
2, 22320, Note_on_c, 1, 77, 127
2, 22440, Note_off_c, 1, 47, 0
2, 22480, Note_on_c, 1, 45, 127
2, 22600, Note_off_c, 1, 45, 0
2, 22600, Note_off_c, 1, 67, 0
2, 22600, Note_off_c, 1, 71, 0
2, 22600, Note_off_c, 1, 74, 0
2, 22600, Note_off_c, 1, 77, 0
2, 22640, Note_on_c, 1, 43, 127
2, 22640, Note_on_c, 1, 67, 127
2, 22640, Note_on_c, 1, 71, 127
2, 22640, Note_on_c, 1, 74, 127
2, 22640, Note_on_c, 1, 77, 127
2, 22760, Note_off_c, 1, 43, 0
2, 22840, Note_on_c, 1, 41, 127
2, 22920, Note_off_c, 1, 67, 0
2, 22920, Note_off_c, 1, 71, 0
2, 22920, Note_off_c, 1, 74, 0
2, 22920, Note_off_c, 1, 77, 0
2, 22960, Note_off_c, 1, 41, 0
2, 23000, Note_on_c, 1, 40, 127
2, 23000, Note_on_c, 1, 67, 127
2, 23000, Note_on_c, 1, 71, 127
2, 23000, Note_on_c, 1, 74, 127
2, 23000, Note_on_c, 1, 77, 127
2, 23120, Note_off_c, 1, 40, 0
2, 23160, Note_on_c, 1, 38, 127
2, 23280, Note_off_c, 1, 38, 0
2, 23280, Note_off_c, 1, 67, 0
2, 23280, Note_off_c, 1, 71, 0
2, 23280, Note_off_c, 1, 74, 0
2, 23280, Note_off_c, 1, 77, 0
2, 23320, Note_on_c, 1, 36, 127
2, 23320, Note_on_c, 1, 67, 127
2, 23320, Note_on_c, 1, 71, 127
2, 23320, Note_on_c, 1, 74, 127
2, 23320, Note_on_c, 1, 77, 127
2, 23600, Note_off_c, 1, 36, 0
2, 23600, Note_off_c, 1, 71, 0
2, 23600, Note_off_c, 1, 74, 0
2, 23600, Note_off_c, 1, 77, 0
2, 23640, Note_on_c, 1, 55, 127
2, 23640, Note_on_c, 1, 72, 127
2, 23640, Note_on_c, 1, 76, 127
2, 23760, Note_off_c, 1, 55, 0
2, 23800, Note_on_c, 1, 53, 127
2, 23880, Note_off_c, 1, 67, 0
2, 23880, Note_off_c, 1, 72, 0
2, 23880, Note_off_c, 1, 76, 0
2, 23920, Note_off_c, 1, 53, 0
2, 23960, Note_on_c, 1, 52, 127
2, 23960, Note_on_c, 1, 67, 127
2, 23960, Note_on_c, 1, 72, 127
2, 23960, Note_on_c, 1, 76, 127
2, 24080, Note_off_c, 1, 52, 0
2, 24120, Note_on_c, 1, 50, 127
2, 24240, Note_off_c, 1, 50, 0
2, 24240, Note_off_c, 1, 67, 0
2, 24240, Note_off_c, 1, 72, 0
2, 24240, Note_off_c, 1, 76, 0
2, 24280, Note_on_c, 1, 49, 127
2, 24280, Note_on_c, 1, 69, 127
2, 24280, Note_on_c, 1, 73, 127
2, 24280, Note_on_c, 1, 76, 127
2, 24280, Note_on_c, 1, 79, 127
2, 24400, Note_off_c, 1, 49, 0
2, 24440, Note_on_c, 1, 47, 127
2, 24560, Note_off_c, 1, 47, 0
2, 24560, Note_off_c, 1, 69, 0
2, 24560, Note_off_c, 1, 73, 0
2, 24560, Note_off_c, 1, 76, 0
2, 24560, Note_off_c, 1, 79, 0
2, 24600, Note_on_c, 1, 45, 127
2, 24600, Note_on_c, 1, 69, 127
2, 24600, Note_on_c, 1, 73, 127
2, 24600, Note_on_c, 1, 76, 127
2, 24600, Note_on_c, 1, 79, 127
2, 24720, Note_off_c, 1, 45, 0
2, 24760, Note_on_c, 1, 43, 127
2, 24880, Note_off_c, 1, 43, 0
2, 24880, Note_off_c, 1, 69, 0
2, 24880, Note_off_c, 1, 73, 0
2, 24880, Note_off_c, 1, 76, 0
2, 24880, Note_off_c, 1, 79, 0
2, 24920, Note_on_c, 1, 42, 127
2, 24920, Note_on_c, 1, 69, 127
2, 24920, Note_on_c, 1, 73, 127
2, 24920, Note_on_c, 1, 76, 127
2, 24920, Note_on_c, 1, 79, 127
2, 25040, Note_off_c, 1, 42, 0
2, 25080, Note_on_c, 1, 40, 127
2, 25200, Note_off_c, 1, 40, 0
2, 25200, Note_off_c, 1, 69, 0
2, 25200, Note_off_c, 1, 73, 0
2, 25200, Note_off_c, 1, 76, 0
2, 25200, Note_off_c, 1, 79, 0
2, 25240, Note_on_c, 1, 38, 127
2, 25240, Note_on_c, 1, 69, 127
2, 25240, Note_on_c, 1, 73, 127
2, 25240, Note_on_c, 1, 76, 127
2, 25240, Note_on_c, 1, 79, 127
2, 25520, Note_off_c, 1, 38, 0
2, 25520, Note_off_c, 1, 73, 0
2, 25520, Note_off_c, 1, 76, 0
2, 25520, Note_off_c, 1, 79, 0
2, 25560, Note_on_c, 1, 60, 127
2, 25560, Note_on_c, 1, 74, 127
2, 25560, Note_on_c, 1, 78, 127
2, 25680, Note_off_c, 1, 60, 0
2, 25720, Note_on_c, 1, 58, 127
2, 25840, Note_off_c, 1, 58, 0
2, 25840, Note_off_c, 1, 69, 0
2, 25840, Note_off_c, 1, 74, 0
2, 25840, Note_off_c, 1, 78, 0
2, 25880, Note_on_c, 1, 57, 127
2, 25880, Note_on_c, 1, 69, 127
2, 25880, Note_on_c, 1, 74, 127
2, 25880, Note_on_c, 1, 78, 127
2, 26000, Note_off_c, 1, 57, 0
2, 26080, Note_on_c, 1, 55, 127
2, 26160, Note_off_c, 1, 55, 0
2, 26160, Note_off_c, 1, 69, 0
2, 26160, Note_off_c, 1, 74, 0
2, 26160, Note_off_c, 1, 78, 0
2, 26240, Note_on_c, 1, 54, 127
2, 26240, Note_on_c, 1, 72, 127
2, 26240, Note_on_c, 1, 74, 127
2, 26240, Note_on_c, 1, 81, 127
2, 26360, Note_off_c, 1, 54, 0
2, 26400, Note_on_c, 1, 52, 127
2, 26520, Note_off_c, 1, 52, 0
2, 26520, Note_off_c, 1, 72, 0
2, 26520, Note_off_c, 1, 74, 0
2, 26520, Note_off_c, 1, 81, 0
2, 26560, Note_on_c, 1, 50, 127
2, 26560, Note_on_c, 1, 72, 127
2, 26560, Note_on_c, 1, 74, 127
2, 26560, Note_on_c, 1, 81, 127
2, 26680, Note_off_c, 1, 50, 0
2, 26720, Note_on_c, 1, 48, 127
2, 26840, Note_off_c, 1, 48, 0
2, 26840, Note_off_c, 1, 72, 0
2, 26840, Note_off_c, 1, 74, 0
2, 26840, Note_off_c, 1, 81, 0
2, 26880, Note_on_c, 1, 46, 127
2, 26880, Note_on_c, 1, 72, 127
2, 26880, Note_on_c, 1, 74, 127
2, 26880, Note_on_c, 1, 81, 127
2, 27000, Note_off_c, 1, 46, 0
2, 27040, Note_on_c, 1, 45, 127
2, 27160, Note_off_c, 1, 45, 0
2, 27160, Note_off_c, 1, 72, 0
2, 27160, Note_off_c, 1, 74, 0
2, 27160, Note_off_c, 1, 81, 0
2, 27200, Note_on_c, 1, 43, 127
2, 27200, Note_on_c, 1, 72, 127
2, 27200, Note_on_c, 1, 74, 127
2, 27200, Note_on_c, 1, 81, 127
2, 27320, Note_off_c, 1, 43, 0
2, 27360, Note_on_c, 1, 42, 127
2, 27480, Note_off_c, 1, 42, 0
2, 27480, Note_off_c, 1, 72, 0
2, 27480, Note_off_c, 1, 81, 0
2, 27520, Note_on_c, 1, 43, 127
2, 27520, Note_on_c, 1, 70, 127
2, 27520, Note_on_c, 1, 79, 127
2, 27640, Note_off_c, 1, 43, 0
2, 27680, Note_on_c, 1, 45, 127
2, 27800, Note_off_c, 1, 45, 0
2, 27800, Note_off_c, 1, 70, 0
2, 27800, Note_off_c, 1, 74, 0
2, 27800, Note_off_c, 1, 79, 0
2, 27840, Note_on_c, 1, 46, 127
2, 27840, Note_on_c, 1, 67, 127
2, 27840, Note_on_c, 1, 74, 127
2, 27840, Note_on_c, 1, 77, 127
2, 27960, Note_off_c, 1, 46, 0
2, 28000, Note_on_c, 1, 43, 127
2, 28120, Note_off_c, 1, 43, 0
2, 28120, Note_off_c, 1, 67, 0
2, 28120, Note_off_c, 1, 74, 0
2, 28120, Note_off_c, 1, 77, 0
2, 28160, Note_on_c, 1, 48, 127
2, 28160, Note_on_c, 1, 67, 127
2, 28160, Note_on_c, 1, 72, 127
2, 28160, Note_on_c, 1, 75, 127
2, 28280, Note_off_c, 1, 48, 0
2, 28320, Note_on_c, 1, 46, 127
2, 28440, Note_off_c, 1, 46, 0
2, 28440, Note_off_c, 1, 72, 0
2, 28440, Note_off_c, 1, 75, 0
2, 28480, Note_on_c, 1, 48, 127
2, 28480, Note_on_c, 1, 70, 127
2, 28480, Note_on_c, 1, 74, 127
2, 28600, Note_off_c, 1, 48, 0
2, 28640, Note_on_c, 1, 50, 127
2, 28760, Note_off_c, 1, 50, 0
2, 28760, Note_off_c, 1, 70, 0
2, 28760, Note_off_c, 1, 74, 0
2, 28800, Note_on_c, 1, 51, 127
2, 28800, Note_on_c, 1, 69, 127
2, 28800, Note_on_c, 1, 72, 127
2, 28920, Note_off_c, 1, 51, 0
2, 28960, Note_on_c, 1, 48, 127
2, 29080, Note_off_c, 1, 48, 0
2, 29080, Note_off_c, 1, 67, 0
2, 29120, Note_on_c, 1, 50, 127
2, 29120, Note_on_c, 1, 66, 127
2, 29160, Note_off_c, 1, 69, 0
2, 29240, Note_off_c, 1, 50, 0
2, 29240, Note_on_c, 1, 69, 127
2, 29240, Note_off_c, 1, 72, 0
2, 29320, Note_on_c, 1, 52, 127
2, 29320, Note_on_c, 1, 72, 127
2, 29440, Note_off_c, 1, 52, 0
2, 29480, Note_on_c, 1, 54, 127
2, 29600, Note_off_c, 1, 54, 0
2, 29600, Note_off_c, 1, 72, 0
2, 29640, Note_on_c, 1, 50, 127
2, 29640, Note_on_c, 1, 74, 127
2, 29720, Note_off_c, 1, 69, 0
2, 29760, Note_off_c, 1, 50, 0
2, 29760, Note_off_c, 1, 66, 0
2, 29760, Note_off_c, 1, 74, 0
2, 29800, Note_on_c, 1, 55, 127
2, 29800, Note_on_c, 1, 62, 127
2, 29800, Note_on_c, 1, 67, 127
2, 29800, Note_on_c, 1, 72, 127
2, 29920, Note_off_c, 1, 72, 0
2, 29960, Note_on_c, 1, 70, 127
2, 30080, Note_off_c, 1, 55, 0
2, 30080, Note_off_c, 1, 62, 0
2, 30120, Note_on_c, 1, 48, 127
2, 30240, Note_off_c, 1, 70, 0
2, 30280, Note_on_c, 1, 69, 127
2, 30400, Note_off_c, 1, 48, 0
2, 30400, Note_off_c, 1, 67, 0
2, 30400, Note_off_c, 1, 69, 0
2, 30440, Note_on_c, 1, 50, 127
2, 30440, Note_on_c, 1, 66, 127
2, 30440, Note_on_c, 1, 70, 127
2, 30480, Note_off_c, 1, 70, 0
2, 30520, Note_on_c, 1, 69, 127
2, 30560, Note_off_c, 1, 69, 0
2, 30600, Note_on_c, 1, 70, 127
2, 30640, Note_off_c, 1, 70, 0
2, 30680, Note_on_c, 1, 69, 127
2, 30720, Note_off_c, 1, 50, 0
2, 30720, Note_off_c, 1, 69, 0
2, 30760, Note_on_c, 1, 38, 127
2, 30760, Note_on_c, 1, 70, 127
2, 30800, Note_off_c, 1, 70, 0
2, 30840, Note_on_c, 1, 69, 127
2, 30880, Note_off_c, 1, 69, 0
2, 30920, Note_on_c, 1, 67, 127
2, 31040, Note_off_c, 1, 38, 0
2, 31040, Note_off_c, 1, 66, 0
2, 31040, Note_off_c, 1, 67, 0
2, 31080, Note_on_c, 1, 43, 127
2, 31080, Note_on_c, 1, 67, 127
2, 31200, Note_off_c, 1, 67, 0
2, 31280, Note_on_c, 1, 69, 127
2, 31400, Note_off_c, 1, 69, 0
2, 31440, Note_on_c, 1, 70, 127
2, 31560, Note_off_c, 1, 70, 0
2, 31600, Note_on_c, 1, 67, 127
2, 31640, Note_off_c, 1, 43, 0
2, 31720, Note_off_c, 1, 67, 0
2, 31760, Note_on_c, 1, 66, 127
2, 31880, Note_off_c, 1, 66, 0
2, 31920, Note_on_c, 1, 67, 127
2, 32040, Note_off_c, 1, 67, 0
2, 32080, Note_on_c, 1, 62, 127
2, 32240, Note_on_c, 1, 67, 127
2, 32360, Note_off_c, 1, 62, 0
2, 32360, Note_off_c, 1, 67, 0
2, 32400, Note_on_c, 1, 70, 127
2, 32520, Note_off_c, 1, 70, 0
2, 32560, Note_on_c, 1, 67, 127
2, 32680, Note_off_c, 1, 67, 0
2, 32720, Note_on_c, 1, 73, 127
2, 32840, Note_off_c, 1, 73, 0
2, 32880, Note_on_c, 1, 67, 127
2, 33000, Note_off_c, 1, 67, 0
2, 33040, Note_on_c, 1, 74, 127
2, 33200, Note_on_c, 1, 62, 127
2, 33240, Note_off_c, 1, 62, 0
2, 33280, Note_on_c, 1, 64, 127
2, 33320, Note_off_c, 1, 64, 0
2, 33320, Note_off_c, 1, 74, 0
2, 33360, Note_on_c, 1, 65, 127
2, 33360, Note_on_c, 1, 81, 127
2, 33480, Note_off_c, 1, 65, 0
2, 33520, Note_on_c, 1, 62, 127
2, 33640, Note_off_c, 1, 62, 0
2, 33640, Note_off_c, 1, 81, 0
2, 33680, Note_on_c, 1, 61, 127
2, 33680, Note_on_c, 1, 81, 127
2, 33800, Note_off_c, 1, 61, 0
2, 33840, Note_on_c, 1, 62, 127
2, 33960, Note_off_c, 1, 62, 0
2, 33960, Note_off_c, 1, 81, 0
2, 34000, Note_on_c, 1, 57, 127
2, 34000, Note_on_c, 1, 77, 127
2, 34120, Note_off_c, 1, 57, 0
2, 34160, Note_on_c, 1, 62, 127
2, 34280, Note_off_c, 1, 62, 0
2, 34280, Note_off_c, 1, 77, 0
2, 34360, Note_on_c, 1, 65, 127
2, 34360, Note_on_c, 1, 74, 127
2, 34440, Note_off_c, 1, 65, 0
2, 34520, Note_on_c, 1, 62, 127
2, 34640, Note_off_c, 1, 62, 0
2, 34640, Note_off_c, 1, 74, 0
2, 34680, Note_on_c, 1, 68, 127
2, 34680, Note_on_c, 1, 74, 127
2, 34800, Note_off_c, 1, 68, 0
2, 34840, Note_on_c, 1, 62, 127
2, 34960, Note_off_c, 1, 62, 0
2, 34960, Note_off_c, 1, 74, 0
2, 35000, Note_on_c, 1, 69, 127
2, 35000, Note_on_c, 1, 74, 127
2, 35120, Note_off_c, 1, 74, 0
2, 35160, Note_on_c, 1, 71, 127
2, 35280, Note_off_c, 1, 69, 0
2, 35280, Note_off_c, 1, 71, 0
2, 35320, Note_on_c, 1, 69, 127
2, 35320, Note_on_c, 1, 72, 127
2, 35440, Note_off_c, 1, 72, 0
2, 35480, Note_on_c, 1, 76, 127
2, 35600, Note_off_c, 1, 69, 0
2, 35600, Note_off_c, 1, 76, 0
2, 35640, Note_on_c, 1, 69, 127
2, 35640, Note_on_c, 1, 77, 127
2, 35760, Note_off_c, 1, 77, 0
2, 35800, Note_on_c, 1, 72, 127
2, 35920, Note_off_c, 1, 69, 0
2, 35920, Note_off_c, 1, 72, 0
2, 35960, Note_on_c, 1, 69, 127
2, 35960, Note_on_c, 1, 70, 127
2, 36080, Note_off_c, 1, 70, 0
2, 36120, Note_on_c, 1, 72, 127
2, 36240, Note_off_c, 1, 69, 0
2, 36240, Note_off_c, 1, 72, 0
2, 36280, Note_on_c, 1, 67, 127
2, 36280, Note_on_c, 1, 74, 127
2, 36400, Note_off_c, 1, 74, 0
2, 36440, Note_on_c, 1, 70, 127
2, 36560, Note_off_c, 1, 67, 0
2, 36560, Note_off_c, 1, 70, 0
2, 36600, Note_on_c, 1, 67, 127
2, 36600, Note_on_c, 1, 75, 127
2, 36720, Note_off_c, 1, 75, 0
2, 36760, Note_on_c, 1, 70, 127
2, 36880, Note_off_c, 1, 67, 0
2, 36880, Note_off_c, 1, 70, 0
2, 36920, Note_on_c, 1, 67, 127
2, 36920, Note_on_c, 1, 69, 127
2, 37040, Note_off_c, 1, 69, 0
2, 37080, Note_on_c, 1, 72, 127
2, 37200, Note_off_c, 1, 67, 0
2, 37200, Note_off_c, 1, 72, 0
2, 37240, Note_on_c, 1, 65, 127
2, 37240, Note_on_c, 1, 74, 127
2, 37360, Note_off_c, 1, 74, 0
2, 37400, Note_on_c, 1, 75, 127
2, 37520, Note_off_c, 1, 65, 0
2, 37520, Note_off_c, 1, 75, 0
2, 37560, Note_on_c, 1, 65, 127
2, 37560, Note_on_c, 1, 77, 127
2, 37680, Note_off_c, 1, 77, 0
2, 37760, Note_on_c, 1, 74, 127
2, 37880, Note_off_c, 1, 74, 0
2, 37920, Note_on_c, 1, 72, 127
2, 37960, Note_off_c, 1, 65, 0
2, 38040, Note_off_c, 1, 72, 0
2, 38080, Note_on_c, 1, 65, 127
2, 38080, Note_on_c, 1, 71, 127
2, 38200, Note_off_c, 1, 65, 0
2, 38200, Note_off_c, 1, 71, 0
2, 38240, Note_on_c, 1, 63, 127
2, 38240, Note_on_c, 1, 72, 127
2, 38360, Note_off_c, 1, 63, 0
2, 38400, Note_on_c, 1, 62, 127
2, 38520, Note_off_c, 1, 62, 0
2, 38520, Note_off_c, 1, 72, 0
2, 38560, Note_on_c, 1, 60, 127
2, 38560, Note_on_c, 1, 72, 127
2, 38680, Note_off_c, 1, 60, 0
2, 38720, Note_on_c, 1, 63, 127
2, 38840, Note_off_c, 1, 63, 0
2, 38840, Note_off_c, 1, 72, 0
2, 38880, Note_on_c, 1, 56, 127
2, 38880, Note_on_c, 1, 72, 127
2, 39000, Note_off_c, 1, 72, 0
2, 39040, Note_on_c, 1, 74, 127
2, 39160, Note_off_c, 1, 56, 0
2, 39160, Note_off_c, 1, 74, 0
2, 39200, Note_on_c, 1, 60, 127
2, 39200, Note_on_c, 1, 75, 127
2, 39320, Note_off_c, 1, 75, 0
2, 39360, Note_on_c, 1, 72, 127
2, 39480, Note_off_c, 1, 60, 0
2, 39480, Note_off_c, 1, 72, 0
2, 39520, Note_on_c, 1, 63, 127
2, 39520, Note_on_c, 1, 78, 127
2, 39640, Note_off_c, 1, 78, 0
2, 39680, Note_on_c, 1, 72, 127
2, 39800, Note_off_c, 1, 63, 0
2, 39800, Note_off_c, 1, 72, 0
2, 39840, Note_on_c, 1, 54, 127
2, 39840, Note_on_c, 1, 81, 127
2, 39960, Note_off_c, 1, 81, 0
2, 40000, Note_on_c, 1, 75, 127
2, 40120, Note_off_c, 1, 54, 0
2, 40120, Note_off_c, 1, 75, 0
2, 40160, Note_on_c, 1, 57, 127
2, 40160, Note_on_c, 1, 74, 127
2, 40280, Note_off_c, 1, 74, 0
2, 40320, Note_on_c, 1, 72, 127
2, 40440, Note_off_c, 1, 57, 0
2, 40440, Note_off_c, 1, 72, 0
2, 40480, Note_on_c, 1, 62, 127
2, 40480, Note_on_c, 1, 70, 127
2, 40600, Note_off_c, 1, 70, 0
2, 40640, Note_on_c, 1, 69, 127
2, 40760, Note_off_c, 1, 62, 0
2, 40760, Note_off_c, 1, 69, 0
2, 40840, Note_on_c, 1, 67, 127
2, 40840, Note_on_c, 1, 70, 127
2, 41000, Note_on_c, 1, 55, 127
2, 41040, Note_off_c, 1, 55, 0
2, 41080, Note_on_c, 1, 57, 127
2, 41120, Note_off_c, 1, 57, 0
2, 41120, Note_off_c, 1, 67, 0
2, 41120, Note_off_c, 1, 70, 0
2, 41160, Note_on_c, 1, 58, 127
2, 41160, Note_on_c, 1, 67, 127
2, 41160, Note_on_c, 1, 74, 127
2, 41280, Note_off_c, 1, 58, 0
2, 41320, Note_on_c, 1, 55, 127
2, 41440, Note_off_c, 1, 55, 0
2, 41440, Note_off_c, 1, 67, 0
2, 41440, Note_off_c, 1, 74, 0
2, 41480, Note_on_c, 1, 54, 127
2, 41480, Note_on_c, 1, 69, 127
2, 41480, Note_on_c, 1, 73, 127
2, 41480, Note_on_c, 1, 74, 127
2, 41600, Note_off_c, 1, 54, 0
2, 41640, Note_on_c, 1, 55, 127
2, 41760, Note_off_c, 1, 55, 0
2, 41760, Note_off_c, 1, 69, 0
2, 41760, Note_off_c, 1, 73, 0
2, 41760, Note_off_c, 1, 74, 0
2, 41800, Note_on_c, 1, 50, 127
2, 41800, Note_on_c, 1, 69, 127
2, 41800, Note_on_c, 1, 70, 127
2, 41920, Note_off_c, 1, 50, 0
2, 41960, Note_on_c, 1, 55, 127
2, 42080, Note_off_c, 1, 55, 0
2, 42080, Note_off_c, 1, 69, 0
2, 42080, Note_off_c, 1, 70, 0
2, 42120, Note_on_c, 1, 58, 127
2, 42120, Note_on_c, 1, 67, 127
2, 42120, Note_on_c, 1, 70, 127
2, 42240, Note_off_c, 1, 58, 0
2, 42280, Note_on_c, 1, 55, 127
2, 42400, Note_off_c, 1, 55, 0
2, 42400, Note_off_c, 1, 67, 0
2, 42400, Note_off_c, 1, 70, 0
2, 42440, Note_on_c, 1, 61, 127
2, 42440, Note_on_c, 1, 67, 127
2, 42440, Note_on_c, 1, 70, 127
2, 42560, Note_off_c, 1, 61, 0
2, 42600, Note_on_c, 1, 55, 127
2, 42720, Note_off_c, 1, 55, 0
2, 42720, Note_off_c, 1, 67, 0
2, 42720, Note_off_c, 1, 70, 0
2, 42760, Note_on_c, 1, 62, 127
2, 42760, Note_on_c, 1, 67, 127
2, 42760, Note_on_c, 1, 69, 127
2, 42880, Note_off_c, 1, 69, 0
2, 42920, Note_on_c, 1, 81, 127
2, 43040, Note_off_c, 1, 67, 0
2, 43040, Note_off_c, 1, 81, 0
2, 43080, Note_on_c, 1, 65, 127
2, 43080, Note_on_c, 1, 74, 127
2, 43200, Note_off_c, 1, 74, 0
2, 43240, Note_on_c, 1, 81, 127
2, 43360, Note_off_c, 1, 62, 0
2, 43360, Note_off_c, 1, 65, 0
2, 43360, Note_off_c, 1, 81, 0
2, 43400, Note_on_c, 1, 64, 127
2, 43400, Note_on_c, 1, 73, 127
2, 43520, Note_off_c, 1, 73, 0
2, 43560, Note_on_c, 1, 79, 127
2, 43680, Note_off_c, 1, 64, 0
2, 43680, Note_off_c, 1, 79, 0
2, 43720, Note_on_c, 1, 50, 127
2, 43720, Note_on_c, 1, 62, 127
2, 43720, Note_on_c, 1, 77, 127
2, 43840, Note_off_c, 1, 77, 0
2, 43880, Note_on_c, 1, 81, 127
2, 44000, Note_off_c, 1, 50, 0
2, 44000, Note_off_c, 1, 62, 0
2, 44000, Note_off_c, 1, 81, 0
2, 44080, Note_on_c, 1, 65, 127
2, 44080, Note_on_c, 1, 74, 127
2, 44160, Note_off_c, 1, 74, 0
2, 44240, Note_on_c, 1, 81, 127
2, 44360, Note_off_c, 1, 65, 0
2, 44360, Note_off_c, 1, 81, 0
2, 44400, Note_on_c, 1, 64, 127
2, 44400, Note_on_c, 1, 73, 127
2, 44520, Note_off_c, 1, 73, 0
2, 44560, Note_on_c, 1, 79, 127
2, 44680, Note_off_c, 1, 64, 0
2, 44680, Note_off_c, 1, 79, 0
2, 44720, Note_on_c, 1, 62, 127
2, 44720, Note_on_c, 1, 77, 127
2, 44840, Note_off_c, 1, 77, 0
2, 44880, Note_on_c, 1, 74, 127
2, 45000, Note_off_c, 1, 74, 0
2, 45040, Note_on_c, 1, 55, 127
2, 45040, Note_on_c, 1, 71, 127
2, 45160, Note_off_c, 1, 71, 0
2, 45200, Note_on_c, 1, 77, 127
2, 45320, Note_off_c, 1, 55, 0
2, 45320, Note_off_c, 1, 77, 0
2, 45360, Note_on_c, 1, 57, 127
2, 45360, Note_on_c, 1, 69, 127
2, 45480, Note_off_c, 1, 69, 0
2, 45520, Note_on_c, 1, 77, 127
2, 45640, Note_off_c, 1, 57, 0
2, 45640, Note_off_c, 1, 77, 0
2, 45680, Note_on_c, 1, 59, 127
2, 45680, Note_on_c, 1, 67, 127
2, 45800, Note_off_c, 1, 67, 0
2, 45840, Note_on_c, 1, 77, 127
2, 45960, Note_off_c, 1, 59, 0
2, 45960, Note_off_c, 1, 77, 0
2, 46000, Note_on_c, 1, 57, 127
2, 46000, Note_on_c, 1, 69, 127
2, 46120, Note_off_c, 1, 69, 0
2, 46160, Note_on_c, 1, 77, 127
2, 46280, Note_off_c, 1, 57, 0
2, 46280, Note_off_c, 1, 77, 0
2, 46320, Note_on_c, 1, 55, 127
2, 46320, Note_on_c, 1, 71, 127
2, 46440, Note_off_c, 1, 71, 0
2, 46480, Note_on_c, 1, 77, 127
2, 46600, Note_off_c, 1, 55, 0
2, 46600, Note_off_c, 1, 62, 0
2, 46600, Note_off_c, 1, 77, 0
2, 46640, Note_on_c, 1, 60, 127
2, 46640, Note_on_c, 1, 75, 127
2, 46760, Note_off_c, 1, 75, 0
2, 46800, Note_on_c, 1, 79, 127
2, 46920, Note_off_c, 1, 79, 0
2, 46960, Note_on_c, 1, 63, 127
2, 46960, Note_on_c, 1, 72, 127
2, 47080, Note_off_c, 1, 72, 0
2, 47120, Note_on_c, 1, 79, 127
2, 47240, Note_off_c, 1, 60, 0
2, 47240, Note_off_c, 1, 63, 0
2, 47240, Note_off_c, 1, 79, 0
2, 47280, Note_on_c, 1, 62, 127
2, 47280, Note_on_c, 1, 71, 127
2, 47400, Note_off_c, 1, 71, 0
2, 47480, Note_on_c, 1, 77, 127
2, 47560, Note_off_c, 1, 62, 0
2, 47600, Note_off_c, 1, 77, 0
2, 47640, Note_on_c, 1, 48, 127
2, 47640, Note_on_c, 1, 60, 127
2, 47640, Note_on_c, 1, 75, 127
2, 47760, Note_off_c, 1, 75, 0
2, 47800, Note_on_c, 1, 79, 127
2, 47920, Note_off_c, 1, 48, 0
2, 47920, Note_off_c, 1, 60, 0
2, 47920, Note_off_c, 1, 79, 0
2, 47960, Note_on_c, 1, 63, 127
2, 47960, Note_on_c, 1, 72, 127
2, 48080, Note_off_c, 1, 72, 0
2, 48120, Note_on_c, 1, 79, 127
2, 48240, Note_off_c, 1, 63, 0
2, 48240, Note_off_c, 1, 79, 0
2, 48280, Note_on_c, 1, 62, 127
2, 48280, Note_on_c, 1, 71, 127
2, 48400, Note_off_c, 1, 71, 0
2, 48440, Note_on_c, 1, 77, 127
2, 48560, Note_off_c, 1, 62, 0
2, 48560, Note_off_c, 1, 77, 0
2, 48600, Note_on_c, 1, 60, 127
2, 48600, Note_on_c, 1, 75, 127
2, 48720, Note_off_c, 1, 75, 0
2, 48760, Note_on_c, 1, 72, 127
2, 48880, Note_off_c, 1, 72, 0
2, 48920, Note_on_c, 1, 53, 127
2, 48920, Note_on_c, 1, 69, 127
2, 49040, Note_off_c, 1, 69, 0
2, 49080, Note_on_c, 1, 75, 127
2, 49200, Note_off_c, 1, 53, 0
2, 49200, Note_off_c, 1, 75, 0
2, 49240, Note_on_c, 1, 55, 127
2, 49240, Note_on_c, 1, 67, 127
2, 49360, Note_off_c, 1, 67, 0
2, 49400, Note_on_c, 1, 75, 127
2, 49520, Note_off_c, 1, 55, 0
2, 49520, Note_off_c, 1, 75, 0
2, 49560, Note_on_c, 1, 57, 127
2, 49560, Note_on_c, 1, 65, 127
2, 49680, Note_off_c, 1, 65, 0
2, 49720, Note_on_c, 1, 75, 127
2, 49840, Note_off_c, 1, 57, 0
2, 49840, Note_off_c, 1, 75, 0
2, 49880, Note_on_c, 1, 55, 127
2, 49880, Note_on_c, 1, 67, 127
2, 50000, Note_off_c, 1, 67, 0
2, 50040, Note_on_c, 1, 75, 127
2, 50160, Note_off_c, 1, 55, 0
2, 50160, Note_off_c, 1, 75, 0
2, 50200, Note_on_c, 1, 53, 127
2, 50200, Note_on_c, 1, 69, 127
2, 50320, Note_off_c, 1, 69, 0
2, 50360, Note_on_c, 1, 75, 127
2, 50480, Note_off_c, 1, 53, 0
2, 50480, Note_off_c, 1, 60, 0
2, 50480, Note_off_c, 1, 75, 0
2, 50560, Note_on_c, 1, 58, 127
2, 50560, Note_on_c, 1, 74, 127
2, 50640, Note_off_c, 1, 58, 0
2, 50720, Note_on_c, 1, 60, 127
2, 50840, Note_off_c, 1, 60, 0
2, 50840, Note_off_c, 1, 74, 0
2, 50880, Note_on_c, 1, 62, 127
2, 50880, Note_on_c, 1, 77, 127
2, 51000, Note_off_c, 1, 62, 0
2, 51040, Note_on_c, 1, 58, 127
2, 51160, Note_off_c, 1, 58, 0
2, 51160, Note_off_c, 1, 77, 0
2, 51200, Note_on_c, 1, 57, 127
2, 51200, Note_on_c, 1, 77, 127
2, 51320, Note_off_c, 1, 57, 0
2, 51360, Note_on_c, 1, 58, 127
2, 51480, Note_off_c, 1, 58, 0
2, 51480, Note_off_c, 1, 77, 0
2, 51520, Note_on_c, 1, 53, 127
2, 51520, Note_on_c, 1, 74, 127
2, 51640, Note_off_c, 1, 53, 0
2, 51680, Note_on_c, 1, 58, 127
2, 51800, Note_off_c, 1, 58, 0
2, 51800, Note_off_c, 1, 74, 0
2, 51840, Note_on_c, 1, 62, 127
2, 51840, Note_on_c, 1, 70, 127
2, 51840, Note_on_c, 1, 74, 127
2, 51960, Note_off_c, 1, 62, 0
2, 52000, Note_on_c, 1, 58, 127
2, 52120, Note_off_c, 1, 58, 0
2, 52120, Note_off_c, 1, 70, 0
2, 52120, Note_off_c, 1, 74, 0
2, 52160, Note_on_c, 1, 64, 127
2, 52160, Note_on_c, 1, 70, 127
2, 52160, Note_on_c, 1, 74, 127
2, 52280, Note_off_c, 1, 64, 0
2, 52320, Note_on_c, 1, 58, 127
2, 52440, Note_off_c, 1, 58, 0
2, 52440, Note_off_c, 1, 70, 0
2, 52440, Note_off_c, 1, 74, 0
2, 52480, Note_on_c, 1, 65, 127
2, 52480, Note_on_c, 1, 70, 127
2, 52480, Note_on_c, 1, 72, 127
2, 52600, Note_off_c, 1, 72, 0
2, 52640, Note_on_c, 1, 84, 127
2, 52760, Note_off_c, 1, 70, 0
2, 52760, Note_off_c, 1, 84, 0
2, 52800, Note_on_c, 1, 69, 127
2, 52800, Note_on_c, 1, 77, 127
2, 52920, Note_off_c, 1, 77, 0
2, 52960, Note_on_c, 1, 84, 127
2, 53080, Note_off_c, 1, 65, 0
2, 53080, Note_off_c, 1, 69, 0
2, 53080, Note_off_c, 1, 84, 0
2, 53120, Note_on_c, 1, 67, 127
2, 53120, Note_on_c, 1, 76, 127
2, 53240, Note_off_c, 1, 76, 0
2, 53280, Note_on_c, 1, 82, 127
2, 53400, Note_off_c, 1, 67, 0
2, 53400, Note_off_c, 1, 82, 0
2, 53440, Note_on_c, 1, 53, 127
2, 53440, Note_on_c, 1, 65, 127
2, 53440, Note_on_c, 1, 81, 127
2, 53560, Note_off_c, 1, 81, 0
2, 53600, Note_on_c, 1, 84, 127
2, 53720, Note_off_c, 1, 53, 0
2, 53720, Note_off_c, 1, 65, 0
2, 53720, Note_off_c, 1, 84, 0
2, 53800, Note_on_c, 1, 69, 127
2, 53800, Note_on_c, 1, 77, 127
2, 53880, Note_off_c, 1, 77, 0
2, 53960, Note_on_c, 1, 84, 127
2, 54040, Note_off_c, 1, 69, 0
2, 54080, Note_off_c, 1, 84, 0
2, 54120, Note_on_c, 1, 67, 127
2, 54120, Note_on_c, 1, 76, 127
2, 54240, Note_off_c, 1, 76, 0
2, 54280, Note_on_c, 1, 82, 127
2, 54400, Note_off_c, 1, 67, 0
2, 54400, Note_off_c, 1, 82, 0
2, 54440, Note_on_c, 1, 65, 127
2, 54440, Note_on_c, 1, 81, 127
2, 54560, Note_off_c, 1, 81, 0
2, 54600, Note_on_c, 1, 77, 127
2, 54720, Note_off_c, 1, 77, 0
2, 54760, Note_on_c, 1, 58, 127
2, 54760, Note_on_c, 1, 74, 127
2, 54880, Note_off_c, 1, 74, 0
2, 54920, Note_on_c, 1, 80, 127
2, 55040, Note_off_c, 1, 58, 0
2, 55040, Note_off_c, 1, 80, 0
2, 55080, Note_on_c, 1, 60, 127
2, 55080, Note_on_c, 1, 72, 127
2, 55200, Note_off_c, 1, 72, 0
2, 55240, Note_on_c, 1, 80, 127
2, 55360, Note_off_c, 1, 60, 0
2, 55360, Note_off_c, 1, 80, 0
2, 55400, Note_on_c, 1, 62, 127
2, 55400, Note_on_c, 1, 70, 127
2, 55520, Note_off_c, 1, 70, 0
2, 55560, Note_on_c, 1, 80, 127
2, 55680, Note_off_c, 1, 62, 0
2, 55680, Note_off_c, 1, 80, 0
2, 55720, Note_on_c, 1, 60, 127
2, 55720, Note_on_c, 1, 72, 127
2, 55840, Note_off_c, 1, 72, 0
2, 55880, Note_on_c, 1, 80, 127
2, 56000, Note_off_c, 1, 60, 0
2, 56000, Note_off_c, 1, 80, 0
2, 56040, Note_on_c, 1, 58, 127
2, 56040, Note_on_c, 1, 74, 127
2, 56160, Note_off_c, 1, 74, 0
2, 56200, Note_on_c, 1, 80, 127
2, 56320, Note_off_c, 1, 58, 0
2, 56320, Note_off_c, 1, 65, 0
2, 56320, Note_off_c, 1, 80, 0
2, 56360, Note_on_c, 1, 63, 127
2, 56360, Note_on_c, 1, 79, 127
2, 56480, Note_off_c, 1, 79, 0
2, 56520, Note_on_c, 1, 82, 127
2, 56640, Note_off_c, 1, 82, 0
2, 56680, Note_on_c, 1, 67, 127
2, 56680, Note_on_c, 1, 75, 127
2, 56800, Note_off_c, 1, 75, 0
2, 56840, Note_on_c, 1, 82, 127
2, 56960, Note_off_c, 1, 63, 0
2, 56960, Note_off_c, 1, 67, 0
2, 56960, Note_off_c, 1, 82, 0
2, 57040, Note_on_c, 1, 65, 127
2, 57040, Note_on_c, 1, 74, 127
2, 57120, Note_off_c, 1, 74, 0
2, 57200, Note_on_c, 1, 80, 127
2, 57320, Note_off_c, 1, 65, 0
2, 57320, Note_off_c, 1, 80, 0
2, 57360, Note_on_c, 1, 51, 127
2, 57360, Note_on_c, 1, 63, 127
2, 57360, Note_on_c, 1, 79, 127
2, 57480, Note_off_c, 1, 79, 0
2, 57520, Note_on_c, 1, 82, 127
2, 57640, Note_off_c, 1, 51, 0
2, 57640, Note_off_c, 1, 63, 0
2, 57640, Note_off_c, 1, 82, 0
2, 57680, Note_on_c, 1, 67, 127
2, 57680, Note_on_c, 1, 75, 127
2, 57800, Note_off_c, 1, 75, 0
2, 57840, Note_on_c, 1, 82, 127
2, 57960, Note_off_c, 1, 67, 0
2, 57960, Note_off_c, 1, 82, 0
2, 58000, Note_on_c, 1, 65, 127
2, 58000, Note_on_c, 1, 74, 127
2, 58120, Note_off_c, 1, 74, 0
2, 58160, Note_on_c, 1, 80, 127
2, 58280, Note_off_c, 1, 65, 0
2, 58280, Note_off_c, 1, 80, 0
2, 58320, Note_on_c, 1, 63, 127
2, 58320, Note_on_c, 1, 79, 127
2, 58440, Note_off_c, 1, 79, 0
2, 58480, Note_on_c, 1, 75, 127
2, 58600, Note_off_c, 1, 75, 0
2, 58640, Note_on_c, 1, 57, 127
2, 58640, Note_on_c, 1, 72, 127
2, 58760, Note_off_c, 1, 72, 0
2, 58800, Note_on_c, 1, 79, 127
2, 58920, Note_off_c, 1, 57, 0
2, 58920, Note_off_c, 1, 79, 0
2, 58960, Note_on_c, 1, 58, 127
2, 58960, Note_on_c, 1, 70, 127
2, 59080, Note_off_c, 1, 70, 0
2, 59120, Note_on_c, 1, 79, 127
2, 59240, Note_off_c, 1, 58, 0
2, 59240, Note_off_c, 1, 79, 0
2, 59280, Note_on_c, 1, 60, 127
2, 59280, Note_on_c, 1, 69, 127
2, 59400, Note_off_c, 1, 69, 0
2, 59440, Note_on_c, 1, 79, 127
2, 59560, Note_off_c, 1, 60, 0
2, 59560, Note_off_c, 1, 79, 0
2, 59600, Note_on_c, 1, 58, 127
2, 59600, Note_on_c, 1, 70, 127
2, 59720, Note_off_c, 1, 70, 0
2, 59760, Note_on_c, 1, 79, 127
2, 59880, Note_off_c, 1, 58, 0
2, 59880, Note_off_c, 1, 79, 0
2, 59920, Note_on_c, 1, 57, 127
2, 59920, Note_on_c, 1, 72, 127
2, 60040, Note_off_c, 1, 72, 0
2, 60080, Note_on_c, 1, 79, 127
2, 60200, Note_off_c, 1, 57, 0
2, 60200, Note_off_c, 1, 63, 0
2, 60200, Note_off_c, 1, 79, 0
2, 60280, Note_on_c, 1, 62, 127
2, 60280, Note_on_c, 1, 78, 127
2, 60360, Note_off_c, 1, 62, 0
2, 60440, Note_on_c, 1, 60, 127
2, 60560, Note_off_c, 1, 60, 0
2, 60560, Note_off_c, 1, 78, 0
2, 60600, Note_on_c, 1, 58, 127
2, 60600, Note_on_c, 1, 74, 127
2, 60600, Note_on_c, 1, 79, 127
2, 60720, Note_off_c, 1, 58, 0
2, 60760, Note_on_c, 1, 60, 127
2, 60880, Note_off_c, 1, 60, 0
2, 60880, Note_off_c, 1, 74, 0
2, 60880, Note_off_c, 1, 79, 0
2, 60920, Note_on_c, 1, 57, 127
2, 60920, Note_on_c, 1, 72, 127
2, 60920, Note_on_c, 1, 77, 127
2, 61040, Note_off_c, 1, 57, 0
2, 61080, Note_on_c, 1, 58, 127
2, 61200, Note_off_c, 1, 58, 0
2, 61200, Note_off_c, 1, 72, 0
2, 61200, Note_off_c, 1, 77, 0
2, 61240, Note_on_c, 1, 55, 127
2, 61240, Note_on_c, 1, 70, 127
2, 61240, Note_on_c, 1, 75, 127
2, 61360, Note_off_c, 1, 55, 0
2, 61400, Note_on_c, 1, 58, 127
2, 61520, Note_off_c, 1, 58, 0
2, 61520, Note_off_c, 1, 70, 0
2, 61520, Note_off_c, 1, 75, 0
2, 61560, Note_on_c, 1, 53, 127
2, 61560, Note_on_c, 1, 69, 127
2, 61560, Note_on_c, 1, 74, 127
2, 61680, Note_off_c, 1, 53, 0
2, 61720, Note_on_c, 1, 58, 127
2, 61840, Note_off_c, 1, 58, 0
2, 61840, Note_off_c, 1, 69, 0
2, 61840, Note_off_c, 1, 74, 0
2, 61880, Note_on_c, 1, 51, 127
2, 61880, Note_on_c, 1, 67, 127
2, 61880, Note_on_c, 1, 72, 127
2, 62000, Note_off_c, 1, 51, 0
2, 62040, Note_on_c, 1, 58, 127
2, 62160, Note_off_c, 1, 58, 0
2, 62160, Note_off_c, 1, 67, 0
2, 62160, Note_off_c, 1, 72, 0
2, 62200, Note_on_c, 1, 50, 127
2, 62200, Note_on_c, 1, 65, 127
2, 62200, Note_on_c, 1, 70, 127
2, 62200, Note_on_c, 1, 77, 127
2, 62320, Note_off_c, 1, 50, 0
2, 62360, Note_on_c, 1, 58, 127
2, 62480, Note_off_c, 1, 58, 0
2, 62480, Note_off_c, 1, 70, 0
2, 62480, Note_off_c, 1, 77, 0
2, 62520, Note_on_c, 1, 48, 127
2, 62520, Note_on_c, 1, 69, 127
2, 62520, Note_on_c, 1, 75, 127
2, 62640, Note_off_c, 1, 48, 0
2, 62680, Note_on_c, 1, 58, 127
2, 62800, Note_off_c, 1, 58, 0
2, 62800, Note_off_c, 1, 65, 0
2, 62840, Note_on_c, 1, 46, 127
2, 62840, Note_on_c, 1, 65, 127
2, 62840, Note_off_c, 1, 69, 0
2, 62880, Note_off_c, 1, 75, 0
2, 62920, Note_on_c, 1, 70, 127
2, 62960, Note_off_c, 1, 46, 0
2, 63000, Note_on_c, 1, 58, 127
2, 63000, Note_on_c, 1, 74, 127
2, 63120, Note_off_c, 1, 58, 0
2, 63160, Note_on_c, 1, 51, 127
2, 63280, Note_off_c, 1, 65, 0
2, 63280, Note_off_c, 1, 74, 0
2, 63320, Note_on_c, 1, 79, 127
2, 63440, Note_off_c, 1, 51, 0
2, 63440, Note_off_c, 1, 70, 0
2, 63440, Note_off_c, 1, 79, 0
2, 63480, Note_on_c, 1, 53, 127
2, 63480, Note_on_c, 1, 69, 127
2, 63480, Note_on_c, 1, 74, 127
2, 63520, Note_off_c, 1, 74, 0
2, 63600, Note_on_c, 1, 72, 127
2, 63640, Note_off_c, 1, 72, 0
2, 63680, Note_on_c, 1, 74, 127
2, 63720, Note_off_c, 1, 74, 0
2, 63760, Note_off_c, 1, 53, 0
2, 63760, Note_on_c, 1, 72, 127
2, 63800, Note_off_c, 1, 72, 0
2, 63840, Note_on_c, 1, 41, 127
2, 63840, Note_on_c, 1, 74, 127
2, 63880, Note_off_c, 1, 74, 0
2, 63920, Note_off_c, 1, 69, 0
2, 63920, Note_on_c, 1, 72, 127
2, 63960, Note_off_c, 1, 72, 0
2, 64000, Note_on_c, 1, 70, 127
2, 64120, Note_off_c, 1, 41, 0
2, 64120, Note_off_c, 1, 70, 0
2, 64160, Note_on_c, 1, 46, 127
2, 64160, Note_on_c, 1, 70, 127
2, 64440, Note_off_c, 1, 70, 0
2, 64480, Note_on_c, 1, 77, 127
2, 64760, Note_off_c, 1, 77, 0
2, 64800, Note_on_c, 1, 77, 127
2, 65080, Note_off_c, 1, 46, 0
2, 65080, Note_off_c, 1, 77, 0
2, 65120, Note_on_c, 1, 74, 127
2, 65400, Note_off_c, 1, 74, 0
2, 65440, Note_on_c, 1, 70, 127
2, 65440, Note_on_c, 1, 74, 127
2, 65720, Note_off_c, 1, 70, 0
2, 65720, Note_off_c, 1, 74, 0
2, 65760, Note_on_c, 1, 70, 127
2, 65760, Note_on_c, 1, 74, 127
2, 66040, Note_off_c, 1, 70, 0
2, 66040, Note_off_c, 1, 74, 0
2, 66080, Note_on_c, 1, 69, 127
2, 66080, Note_on_c, 1, 72, 127
2, 66200, Note_off_c, 1, 72, 0
2, 66240, Note_on_c, 1, 70, 127
2, 66360, Note_off_c, 1, 69, 0
2, 66360, Note_off_c, 1, 70, 0
2, 66400, Note_on_c, 1, 65, 127
2, 66400, Note_on_c, 1, 69, 127
2, 66400, Note_on_c, 1, 72, 127
2, 66520, Note_off_c, 1, 72, 0
2, 66560, Note_on_c, 1, 74, 127
2, 66680, Note_off_c, 1, 65, 0
2, 66680, Note_off_c, 1, 69, 0
2, 66680, Note_off_c, 1, 74, 0
2, 66760, Note_on_c, 1, 65, 127
2, 66760, Note_on_c, 1, 69, 127
2, 66760, Note_on_c, 1, 72, 127
2, 66840, Note_off_c, 1, 72, 0
2, 66920, Note_on_c, 1, 74, 127
2, 67040, Note_off_c, 1, 65, 0
2, 67040, Note_off_c, 1, 69, 0
2, 67040, Note_off_c, 1, 74, 0
2, 67080, Note_on_c, 1, 62, 127
2, 67080, Note_on_c, 1, 65, 127
2, 67080, Note_on_c, 1, 70, 127
2, 67200, Note_off_c, 1, 70, 0
2, 67240, Note_on_c, 1, 69, 127
2, 67360, Note_off_c, 1, 62, 0
2, 67360, Note_off_c, 1, 65, 0
2, 67360, Note_off_c, 1, 69, 0
2, 67400, Note_on_c, 1, 58, 127
2, 67400, Note_on_c, 1, 62, 127
2, 67400, Note_on_c, 1, 65, 127
2, 67400, Note_on_c, 1, 70, 127
2, 67520, Note_off_c, 1, 70, 0
2, 67560, Note_on_c, 1, 72, 127
2, 67680, Note_off_c, 1, 58, 0
2, 67680, Note_off_c, 1, 62, 0
2, 67680, Note_off_c, 1, 65, 0
2, 67680, Note_off_c, 1, 72, 0
2, 67720, Note_on_c, 1, 58, 127
2, 67720, Note_on_c, 1, 62, 127
2, 67720, Note_on_c, 1, 65, 127
2, 67720, Note_on_c, 1, 74, 127
2, 67840, Note_off_c, 1, 74, 0
2, 67880, Note_on_c, 1, 75, 127
2, 68000, Note_off_c, 1, 58, 0
2, 68000, Note_off_c, 1, 62, 0
2, 68000, Note_off_c, 1, 65, 0
2, 68000, Note_off_c, 1, 75, 0
2, 68040, Note_on_c, 1, 57, 127
2, 68040, Note_on_c, 1, 60, 127
2, 68040, Note_on_c, 1, 65, 127
2, 68040, Note_on_c, 1, 77, 127
2, 68160, Note_off_c, 1, 77, 0
2, 68200, Note_on_c, 1, 76, 127
2, 68320, Note_off_c, 1, 57, 0
2, 68320, Note_off_c, 1, 60, 0
2, 68320, Note_off_c, 1, 65, 0
2, 68320, Note_off_c, 1, 76, 0
2, 68360, Note_on_c, 1, 53, 127
2, 68360, Note_on_c, 1, 57, 127
2, 68360, Note_on_c, 1, 60, 127
2, 68360, Note_on_c, 1, 77, 127
2, 68480, Note_off_c, 1, 77, 0
2, 68520, Note_on_c, 1, 79, 127
2, 68640, Note_off_c, 1, 53, 0
2, 68640, Note_off_c, 1, 57, 0
2, 68640, Note_off_c, 1, 60, 0
2, 68640, Note_off_c, 1, 79, 0
2, 68680, Note_on_c, 1, 53, 127
2, 68680, Note_on_c, 1, 57, 127
2, 68680, Note_on_c, 1, 60, 127
2, 68680, Note_on_c, 1, 81, 127
2, 68800, Note_off_c, 1, 81, 0
2, 68840, Note_on_c, 1, 77, 127
2, 68960, Note_off_c, 1, 53, 0
2, 68960, Note_off_c, 1, 57, 0
2, 68960, Note_off_c, 1, 60, 0
2, 68960, Note_off_c, 1, 77, 0
2, 69000, Note_on_c, 1, 50, 127
2, 69000, Note_on_c, 1, 53, 127
2, 69000, Note_on_c, 1, 58, 127
2, 69000, Note_on_c, 1, 82, 127
2, 69120, Note_off_c, 1, 82, 0
2, 69160, Note_on_c, 1, 81, 127
2, 69280, Note_off_c, 1, 50, 0
2, 69280, Note_off_c, 1, 53, 0
2, 69280, Note_off_c, 1, 58, 0
2, 69280, Note_off_c, 1, 81, 0
2, 69320, Note_on_c, 1, 46, 127
2, 69320, Note_on_c, 1, 50, 127
2, 69320, Note_on_c, 1, 53, 127
2, 69320, Note_on_c, 1, 82, 127
2, 69440, Note_off_c, 1, 82, 0
2, 69480, Note_on_c, 1, 84, 127
2, 69600, Note_off_c, 1, 46, 0
2, 69600, Note_off_c, 1, 50, 0
2, 69600, Note_off_c, 1, 53, 0
2, 69600, Note_off_c, 1, 84, 0
2, 69640, Note_on_c, 1, 46, 127
2, 69640, Note_on_c, 1, 50, 127
2, 69640, Note_on_c, 1, 53, 127
2, 69640, Note_on_c, 1, 81, 127
2, 69760, Note_off_c, 1, 81, 0
2, 69800, Note_on_c, 1, 82, 127
2, 69920, Note_off_c, 1, 46, 0
2, 69920, Note_off_c, 1, 50, 0
2, 69920, Note_off_c, 1, 53, 0
2, 69920, Note_off_c, 1, 82, 0
2, 69960, Note_on_c, 1, 41, 127
2, 69960, Note_on_c, 1, 45, 127
2, 69960, Note_on_c, 1, 48, 127
2, 69960, Note_on_c, 1, 53, 127
2, 69960, Note_on_c, 1, 84, 127
2, 70080, Note_off_c, 1, 84, 0
2, 70160, Note_on_c, 1, 82, 127
2, 70280, Note_off_c, 1, 82, 0
2, 70320, Note_on_c, 1, 81, 127
2, 70440, Note_off_c, 1, 81, 0
2, 70480, Note_on_c, 1, 79, 127
2, 70600, Note_off_c, 1, 79, 0
2, 70640, Note_on_c, 1, 77, 127
2, 70680, Note_off_c, 1, 41, 0
2, 70680, Note_off_c, 1, 45, 0
2, 70680, Note_off_c, 1, 48, 0
2, 70680, Note_off_c, 1, 53, 0
2, 70760, Note_off_c, 1, 77, 0
2, 70800, Note_on_c, 1, 75, 127
2, 70920, Note_off_c, 1, 75, 0
2, 70960, Note_on_c, 1, 74, 127
2, 71120, Note_on_c, 1, 72, 127
2, 71240, Note_off_c, 1, 72, 0
2, 71240, Note_off_c, 1, 74, 0
2, 71280, Note_on_c, 1, 70, 127
2, 71280, Note_on_c, 1, 74, 127
2, 71280, Note_on_c, 1, 77, 127
2, 71280, Note_on_c, 1, 82, 127
2, 71400, Note_off_c, 1, 70, 0
2, 71440, Note_on_c, 1, 69, 127
2, 71560, Note_off_c, 1, 69, 0
2, 71560, Note_off_c, 1, 74, 0
2, 71560, Note_off_c, 1, 77, 0
2, 71560, Note_off_c, 1, 82, 0
2, 71600, Note_on_c, 1, 67, 127
2, 71600, Note_on_c, 1, 74, 127
2, 71600, Note_on_c, 1, 77, 127
2, 71600, Note_on_c, 1, 82, 127
2, 71720, Note_off_c, 1, 67, 0
2, 71760, Note_on_c, 1, 65, 127
2, 71880, Note_off_c, 1, 65, 0
2, 71880, Note_off_c, 1, 74, 0
2, 71880, Note_off_c, 1, 77, 0
2, 71880, Note_off_c, 1, 82, 0
2, 71920, Note_on_c, 1, 63, 127
2, 71920, Note_on_c, 1, 74, 127
2, 71920, Note_on_c, 1, 79, 127
2, 72040, Note_off_c, 1, 63, 0
2, 72040, Note_off_c, 1, 79, 0
2, 72080, Note_on_c, 1, 65, 127
2, 72080, Note_on_c, 1, 81, 127
2, 72200, Note_off_c, 1, 65, 0
2, 72200, Note_off_c, 1, 81, 0
2, 72240, Note_on_c, 1, 63, 127
2, 72240, Note_on_c, 1, 79, 127
2, 72360, Note_off_c, 1, 63, 0
2, 72360, Note_off_c, 1, 74, 0
2, 72360, Note_off_c, 1, 79, 0
2, 72400, Note_on_c, 1, 62, 127
2, 72400, Note_on_c, 1, 77, 127
2, 72520, Note_off_c, 1, 62, 0
2, 72520, Note_off_c, 1, 77, 0
2, 72560, Note_on_c, 1, 60, 127
2, 72560, Note_on_c, 1, 75, 127
2, 72680, Note_off_c, 1, 60, 0
2, 72680, Note_off_c, 1, 75, 0
2, 72720, Note_on_c, 1, 58, 127
2, 72720, Note_on_c, 1, 74, 127
2, 72840, Note_off_c, 1, 58, 0
2, 72840, Note_off_c, 1, 74, 0
2, 72880, Note_on_c, 1, 57, 127
2, 72880, Note_on_c, 1, 72, 127
2, 73000, Note_off_c, 1, 57, 0
2, 73040, Note_on_c, 1, 70, 127
2, 73160, Note_off_c, 1, 70, 0
2, 73160, Note_off_c, 1, 72, 0
2, 73240, Note_on_c, 1, 69, 127
2, 73240, Note_on_c, 1, 72, 127
2, 73240, Note_on_c, 1, 75, 127
2, 73240, Note_on_c, 1, 81, 127
2, 73320, Note_off_c, 1, 69, 0
2, 73400, Note_on_c, 1, 67, 127
2, 73520, Note_off_c, 1, 67, 0
2, 73520, Note_off_c, 1, 72, 0
2, 73520, Note_off_c, 1, 75, 0
2, 73520, Note_off_c, 1, 81, 0
2, 73560, Note_on_c, 1, 65, 127
2, 73560, Note_on_c, 1, 72, 127
2, 73560, Note_on_c, 1, 75, 127
2, 73560, Note_on_c, 1, 81, 127
2, 73680, Note_off_c, 1, 65, 0
2, 73720, Note_on_c, 1, 63, 127
2, 73840, Note_off_c, 1, 63, 0
2, 73840, Note_off_c, 1, 72, 0
2, 73840, Note_off_c, 1, 75, 0
2, 73840, Note_off_c, 1, 81, 0
2, 73880, Note_on_c, 1, 62, 127
2, 73880, Note_on_c, 1, 72, 127
2, 73880, Note_on_c, 1, 77, 127
2, 74000, Note_off_c, 1, 62, 0
2, 74000, Note_off_c, 1, 77, 0
2, 74040, Note_on_c, 1, 63, 127
2, 74040, Note_on_c, 1, 79, 127
2, 74160, Note_off_c, 1, 63, 0
2, 74160, Note_off_c, 1, 79, 0
2, 74200, Note_on_c, 1, 62, 127
2, 74200, Note_on_c, 1, 77, 127
2, 74320, Note_off_c, 1, 62, 0
2, 74320, Note_off_c, 1, 72, 0
2, 74320, Note_off_c, 1, 77, 0
2, 74360, Note_on_c, 1, 60, 127
2, 74360, Note_on_c, 1, 75, 127
2, 74480, Note_off_c, 1, 60, 0
2, 74480, Note_off_c, 1, 75, 0
2, 74520, Note_on_c, 1, 58, 127
2, 74520, Note_on_c, 1, 74, 127
2, 74640, Note_off_c, 1, 58, 0
2, 74640, Note_off_c, 1, 74, 0
2, 74680, Note_on_c, 1, 57, 127
2, 74680, Note_on_c, 1, 72, 127
2, 74800, Note_off_c, 1, 57, 0
2, 74800, Note_off_c, 1, 72, 0
2, 74840, Note_on_c, 1, 55, 127
2, 74840, Note_on_c, 1, 70, 127
2, 74960, Note_off_c, 1, 55, 0
2, 75000, Note_on_c, 1, 69, 127
2, 75120, Note_off_c, 1, 69, 0
2, 75120, Note_off_c, 1, 70, 0
2, 75160, Note_on_c, 1, 67, 127
2, 75160, Note_on_c, 1, 70, 127
2, 75160, Note_on_c, 1, 74, 127
2, 75160, Note_on_c, 1, 79, 127
2, 75280, Note_off_c, 1, 67, 0
2, 75320, Note_on_c, 1, 65, 127
2, 75440, Note_off_c, 1, 65, 0
2, 75440, Note_off_c, 1, 70, 0
2, 75440, Note_off_c, 1, 74, 0
2, 75440, Note_off_c, 1, 79, 0
2, 75480, Note_on_c, 1, 63, 127
2, 75480, Note_on_c, 1, 70, 127
2, 75480, Note_on_c, 1, 74, 127
2, 75480, Note_on_c, 1, 79, 127
2, 75600, Note_off_c, 1, 63, 0
2, 75640, Note_on_c, 1, 62, 127
2, 75760, Note_off_c, 1, 62, 0
2, 75760, Note_off_c, 1, 70, 0
2, 75760, Note_off_c, 1, 74, 0
2, 75760, Note_off_c, 1, 79, 0
2, 75800, Note_on_c, 1, 60, 127
2, 75800, Note_on_c, 1, 70, 127
2, 75800, Note_on_c, 1, 75, 127
2, 75920, Note_off_c, 1, 60, 0
2, 75920, Note_off_c, 1, 75, 0
2, 75960, Note_on_c, 1, 62, 127
2, 75960, Note_on_c, 1, 77, 127
2, 76080, Note_off_c, 1, 62, 0
2, 76080, Note_off_c, 1, 77, 0
2, 76120, Note_on_c, 1, 60, 127
2, 76120, Note_on_c, 1, 75, 127
2, 76240, Note_off_c, 1, 60, 0
2, 76240, Note_off_c, 1, 70, 0
2, 76240, Note_off_c, 1, 75, 0
2, 76280, Note_on_c, 1, 58, 127
2, 76280, Note_on_c, 1, 74, 127
2, 76400, Note_off_c, 1, 58, 0
2, 76400, Note_off_c, 1, 74, 0
2, 76480, Note_on_c, 1, 57, 127
2, 76480, Note_on_c, 1, 72, 127
2, 76560, Note_off_c, 1, 57, 0
2, 76560, Note_off_c, 1, 72, 0
2, 76640, Note_on_c, 1, 55, 127
2, 76640, Note_on_c, 1, 70, 127
2, 76720, Note_off_c, 1, 55, 0
2, 76720, Note_off_c, 1, 70, 0
2, 76800, Note_on_c, 1, 53, 127
2, 76800, Note_on_c, 1, 69, 127
2, 76920, Note_off_c, 1, 53, 0
2, 76960, Note_on_c, 1, 55, 127
2, 77080, Note_off_c, 1, 55, 0
2, 77080, Note_off_c, 1, 69, 0
2, 77120, Note_on_c, 1, 53, 127
2, 77120, Note_on_c, 1, 69, 127
2, 77120, Note_on_c, 1, 72, 127
2, 77120, Note_on_c, 1, 77, 127
2, 77240, Note_off_c, 1, 53, 0
2, 77280, Note_on_c, 1, 51, 127
2, 77400, Note_off_c, 1, 51, 0
2, 77400, Note_off_c, 1, 69, 0
2, 77400, Note_off_c, 1, 72, 0
2, 77400, Note_off_c, 1, 77, 0
2, 77440, Note_on_c, 1, 50, 127
2, 77440, Note_on_c, 1, 69, 127
2, 77440, Note_on_c, 1, 72, 127
2, 77440, Note_on_c, 1, 77, 127
2, 77560, Note_off_c, 1, 50, 0
2, 77600, Note_on_c, 1, 48, 127
2, 77720, Note_off_c, 1, 48, 0
2, 77720, Note_off_c, 1, 69, 0
2, 77720, Note_off_c, 1, 72, 0
2, 77720, Note_off_c, 1, 77, 0
2, 77760, Note_on_c, 1, 46, 127
2, 77760, Note_on_c, 1, 65, 127
2, 77760, Note_on_c, 1, 70, 127
2, 77760, Note_on_c, 1, 74, 127
2, 77880, Note_off_c, 1, 46, 0
2, 77920, Note_on_c, 1, 48, 127
2, 78040, Note_off_c, 1, 48, 0
2, 78040, Note_off_c, 1, 70, 0
2, 78040, Note_off_c, 1, 74, 0
2, 78080, Note_on_c, 1, 46, 127
2, 78080, Note_on_c, 1, 70, 127
2, 78080, Note_on_c, 1, 74, 127
2, 78200, Note_off_c, 1, 46, 0
2, 78240, Note_on_c, 1, 45, 127
2, 78360, Note_off_c, 1, 45, 0
2, 78360, Note_off_c, 1, 70, 0
2, 78360, Note_off_c, 1, 74, 0
2, 78400, Note_on_c, 1, 43, 127
2, 78400, Note_on_c, 1, 70, 127
2, 78400, Note_on_c, 1, 74, 127
2, 78520, Note_off_c, 1, 43, 0
2, 78560, Note_on_c, 1, 41, 127
2, 78680, Note_off_c, 1, 41, 0
2, 78680, Note_off_c, 1, 65, 0
2, 78680, Note_off_c, 1, 70, 0
2, 78680, Note_off_c, 1, 74, 0
2, 78720, Note_on_c, 1, 39, 127
2, 78720, Note_on_c, 1, 67, 127
2, 78720, Note_on_c, 1, 74, 127
2, 78840, Note_off_c, 1, 67, 0
2, 78880, Note_on_c, 1, 65, 127
2, 79000, Note_off_c, 1, 39, 0
2, 79000, Note_off_c, 1, 65, 0
2, 79040, Note_on_c, 1, 51, 127
2, 79040, Note_on_c, 1, 67, 127
2, 79160, Note_off_c, 1, 67, 0
2, 79200, Note_on_c, 1, 69, 127
2, 79320, Note_off_c, 1, 51, 0
2, 79320, Note_off_c, 1, 69, 0
2, 79360, Note_on_c, 1, 51, 127
2, 79360, Note_on_c, 1, 70, 127
2, 79480, Note_off_c, 1, 70, 0
2, 79520, Note_on_c, 1, 67, 127
2, 79640, Note_off_c, 1, 51, 0
2, 79640, Note_off_c, 1, 67, 0
2, 79640, Note_off_c, 1, 74, 0
2, 79680, Note_on_c, 1, 57, 127
2, 79680, Note_on_c, 1, 72, 127
2, 79880, Note_on_c, 1, 70, 127
2, 79960, Note_off_c, 1, 57, 0
2, 80000, Note_off_c, 1, 70, 0
2, 80040, Note_on_c, 1, 45, 127
2, 80040, Note_on_c, 1, 69, 127
2, 80160, Note_off_c, 1, 69, 0
2, 80200, Note_on_c, 1, 67, 127
2, 80320, Note_off_c, 1, 45, 0
2, 80320, Note_off_c, 1, 67, 0
2, 80360, Note_on_c, 1, 45, 127
2, 80360, Note_on_c, 1, 65, 127
2, 80480, Note_off_c, 1, 65, 0
2, 80520, Note_on_c, 1, 63, 127
2, 80640, Note_off_c, 1, 45, 0
2, 80640, Note_off_c, 1, 63, 0
2, 80680, Note_on_c, 1, 38, 127
2, 80680, Note_on_c, 1, 65, 127
2, 80800, Note_off_c, 1, 65, 0
2, 80840, Note_on_c, 1, 63, 127
2, 80960, Note_off_c, 1, 38, 0
2, 80960, Note_off_c, 1, 63, 0
2, 81000, Note_on_c, 1, 50, 127
2, 81000, Note_on_c, 1, 65, 127
2, 81120, Note_off_c, 1, 65, 0
2, 81160, Note_on_c, 1, 67, 127
2, 81280, Note_off_c, 1, 50, 0
2, 81280, Note_off_c, 1, 67, 0
2, 81320, Note_on_c, 1, 50, 127
2, 81320, Note_on_c, 1, 69, 127
2, 81440, Note_off_c, 1, 69, 0
2, 81480, Note_on_c, 1, 65, 127
2, 81600, Note_off_c, 1, 50, 0
2, 81600, Note_off_c, 1, 65, 0
2, 81600, Note_off_c, 1, 72, 0
2, 81640, Note_on_c, 1, 55, 127
2, 81640, Note_on_c, 1, 62, 127
2, 81640, Note_on_c, 1, 70, 127
2, 81760, Note_off_c, 1, 62, 0
2, 81800, Note_on_c, 1, 69, 127
2, 81920, Note_off_c, 1, 55, 0
2, 81920, Note_off_c, 1, 69, 0
2, 81960, Note_on_c, 1, 43, 127
2, 81960, Note_on_c, 1, 67, 127
2, 82080, Note_off_c, 1, 67, 0
2, 82120, Note_on_c, 1, 65, 127
2, 82240, Note_off_c, 1, 43, 0
2, 82240, Note_off_c, 1, 65, 0
2, 82280, Note_on_c, 1, 43, 127
2, 82280, Note_on_c, 1, 63, 127
2, 82400, Note_off_c, 1, 63, 0
2, 82440, Note_on_c, 1, 62, 127
2, 82560, Note_off_c, 1, 43, 0
2, 82560, Note_off_c, 1, 62, 0
2, 82600, Note_on_c, 1, 36, 127
2, 82600, Note_on_c, 1, 63, 127
2, 82720, Note_off_c, 1, 63, 0
2, 82760, Note_on_c, 1, 62, 127
2, 82880, Note_off_c, 1, 36, 0
2, 82880, Note_off_c, 1, 62, 0
2, 82960, Note_on_c, 1, 48, 127
2, 82960, Note_on_c, 1, 63, 127
2, 83040, Note_off_c, 1, 63, 0
2, 83120, Note_on_c, 1, 65, 127
2, 83240, Note_off_c, 1, 48, 0
2, 83240, Note_off_c, 1, 65, 0
2, 83280, Note_on_c, 1, 48, 127
2, 83280, Note_on_c, 1, 67, 127
2, 83400, Note_off_c, 1, 67, 0
2, 83440, Note_on_c, 1, 63, 127
2, 83560, Note_off_c, 1, 48, 0
2, 83560, Note_off_c, 1, 63, 0
2, 83560, Note_off_c, 1, 70, 0
2, 83600, Note_on_c, 1, 53, 127
2, 83600, Note_on_c, 1, 60, 127
2, 83600, Note_on_c, 1, 69, 127
2, 83720, Note_off_c, 1, 60, 0
2, 83760, Note_on_c, 1, 67, 127
2, 83880, Note_off_c, 1, 67, 0
2, 83920, Note_on_c, 1, 65, 127
2, 84040, Note_off_c, 1, 65, 0
2, 84080, Note_on_c, 1, 63, 127
2, 84200, Note_off_c, 1, 63, 0
2, 84240, Note_on_c, 1, 62, 127
2, 84360, Note_off_c, 1, 62, 0
2, 84400, Note_on_c, 1, 60, 127
2, 84520, Note_off_c, 1, 53, 0
2, 84520, Note_off_c, 1, 60, 0
2, 84520, Note_off_c, 1, 69, 0
2, 84560, Note_on_c, 1, 62, 127
2, 84560, Note_on_c, 1, 69, 127
2, 84600, Note_off_c, 1, 69, 0
2, 84640, Note_on_c, 1, 70, 127
2, 84680, Note_off_c, 1, 62, 0
2, 84680, Note_off_c, 1, 70, 0
2, 84720, Note_on_c, 1, 65, 127
2, 84720, Note_on_c, 1, 72, 127
2, 84760, Note_off_c, 1, 72, 0
2, 84800, Note_on_c, 1, 70, 127
2, 84840, Note_off_c, 1, 65, 0
2, 84840, Note_off_c, 1, 70, 0
2, 84880, Note_on_c, 1, 63, 127
2, 84880, Note_on_c, 1, 72, 127
2, 84920, Note_off_c, 1, 72, 0
2, 84960, Note_on_c, 1, 70, 127
2, 85000, Note_off_c, 1, 63, 0
2, 85000, Note_off_c, 1, 70, 0
2, 85040, Note_on_c, 1, 62, 127
2, 85040, Note_on_c, 1, 72, 127
2, 85080, Note_off_c, 1, 72, 0
2, 85120, Note_on_c, 1, 70, 127
2, 85160, Note_off_c, 1, 62, 0
2, 85160, Note_off_c, 1, 70, 0
2, 85200, Note_on_c, 1, 60, 127
2, 85200, Note_on_c, 1, 72, 127
2, 85240, Note_off_c, 1, 72, 0
2, 85280, Note_on_c, 1, 70, 127
2, 85320, Note_off_c, 1, 60, 0
2, 85320, Note_off_c, 1, 70, 0
2, 85360, Note_on_c, 1, 58, 127
2, 85360, Note_on_c, 1, 69, 127
2, 85400, Note_off_c, 1, 69, 0
2, 85440, Note_on_c, 1, 70, 127
2, 85480, Note_off_c, 1, 58, 0
2, 85480, Note_off_c, 1, 70, 0
2, 85520, Note_on_c, 1, 57, 127
2, 85520, Note_on_c, 1, 72, 127
2, 85640, Note_off_c, 1, 57, 0
2, 85680, Note_on_c, 1, 58, 127
2, 85800, Note_off_c, 1, 58, 0
2, 85800, Note_off_c, 1, 72, 0
2, 85840, Note_on_c, 1, 57, 127
2, 85840, Note_on_c, 1, 65, 127
2, 85840, Note_on_c, 1, 69, 127
2, 85840, Note_on_c, 1, 72, 127
2, 85960, Note_off_c, 1, 57, 0
2, 86000, Note_on_c, 1, 55, 127
2, 86120, Note_off_c, 1, 55, 0
2, 86120, Note_off_c, 1, 65, 0
2, 86120, Note_off_c, 1, 69, 0
2, 86120, Note_off_c, 1, 72, 0
2, 86200, Note_on_c, 1, 53, 127
2, 86200, Note_on_c, 1, 65, 127
2, 86200, Note_on_c, 1, 69, 127
2, 86200, Note_on_c, 1, 72, 127
2, 86280, Note_off_c, 1, 53, 0
2, 86360, Note_on_c, 1, 51, 127
2, 86440, Note_off_c, 1, 65, 0
2, 86440, Note_off_c, 1, 69, 0
2, 86440, Note_off_c, 1, 72, 0
2, 86480, Note_off_c, 1, 51, 0
2, 86520, Note_on_c, 1, 50, 127
2, 86520, Note_on_c, 1, 68, 127
2, 86520, Note_on_c, 1, 70, 127
2, 86520, Note_on_c, 1, 77, 127
2, 86640, Note_off_c, 1, 50, 0
2, 86680, Note_on_c, 1, 48, 127
2, 86800, Note_off_c, 1, 48, 0
2, 86800, Note_off_c, 1, 68, 0
2, 86800, Note_off_c, 1, 77, 0
2, 86840, Note_on_c, 1, 46, 127
2, 86840, Note_on_c, 1, 68, 127
2, 86840, Note_on_c, 1, 77, 127
2, 86960, Note_off_c, 1, 46, 0
2, 87000, Note_on_c, 1, 44, 127
2, 87120, Note_off_c, 1, 44, 0
2, 87120, Note_off_c, 1, 68, 0
2, 87120, Note_off_c, 1, 77, 0
2, 87160, Note_on_c, 1, 43, 127
2, 87160, Note_on_c, 1, 68, 127
2, 87160, Note_on_c, 1, 77, 127
2, 87280, Note_off_c, 1, 43, 0
2, 87320, Note_on_c, 1, 41, 127
2, 87440, Note_off_c, 1, 41, 0
2, 87440, Note_off_c, 1, 68, 0
2, 87440, Note_off_c, 1, 77, 0
2, 87480, Note_on_c, 1, 39, 127
2, 87480, Note_on_c, 1, 68, 127
2, 87480, Note_on_c, 1, 77, 127
2, 87760, Note_off_c, 1, 39, 0
2, 87760, Note_off_c, 1, 68, 0
2, 87760, Note_off_c, 1, 77, 0
2, 87800, Note_on_c, 1, 58, 127
2, 87800, Note_on_c, 1, 67, 127
2, 87800, Note_on_c, 1, 75, 127
2, 87920, Note_off_c, 1, 58, 0
2, 87960, Note_on_c, 1, 56, 127
2, 88080, Note_off_c, 1, 56, 0
2, 88080, Note_off_c, 1, 67, 0
2, 88080, Note_off_c, 1, 70, 0
2, 88080, Note_off_c, 1, 75, 0
2, 88120, Note_on_c, 1, 55, 127
2, 88120, Note_on_c, 1, 67, 127
2, 88120, Note_on_c, 1, 70, 127
2, 88120, Note_on_c, 1, 75, 127
2, 88240, Note_off_c, 1, 55, 0
2, 88280, Note_on_c, 1, 53, 127
2, 88400, Note_off_c, 1, 53, 0
2, 88400, Note_off_c, 1, 67, 0
2, 88400, Note_off_c, 1, 70, 0
2, 88400, Note_off_c, 1, 75, 0
2, 88440, Note_on_c, 1, 52, 127
2, 88440, Note_on_c, 1, 70, 127
2, 88440, Note_on_c, 1, 72, 127
2, 88440, Note_on_c, 1, 79, 127
2, 88560, Note_off_c, 1, 52, 0
2, 88600, Note_on_c, 1, 50, 127
2, 88720, Note_off_c, 1, 50, 0
2, 88720, Note_off_c, 1, 70, 0
2, 88720, Note_off_c, 1, 79, 0
2, 88760, Note_on_c, 1, 48, 127
2, 88760, Note_on_c, 1, 70, 127
2, 88760, Note_on_c, 1, 79, 127
2, 88880, Note_off_c, 1, 48, 0
2, 88920, Note_on_c, 1, 46, 127
2, 89040, Note_off_c, 1, 46, 0
2, 89040, Note_off_c, 1, 70, 0
2, 89040, Note_off_c, 1, 79, 0
2, 89080, Note_on_c, 1, 45, 127
2, 89080, Note_on_c, 1, 70, 127
2, 89080, Note_on_c, 1, 79, 127
2, 89200, Note_off_c, 1, 45, 0
2, 89240, Note_on_c, 1, 43, 127
2, 89360, Note_off_c, 1, 43, 0
2, 89360, Note_off_c, 1, 70, 0
2, 89360, Note_off_c, 1, 79, 0
2, 89440, Note_on_c, 1, 41, 127
2, 89440, Note_on_c, 1, 70, 127
2, 89440, Note_on_c, 1, 79, 127
2, 89720, Note_off_c, 1, 41, 0
2, 89720, Note_off_c, 1, 70, 0
2, 89720, Note_off_c, 1, 79, 0
2, 89760, Note_on_c, 1, 63, 127
2, 89760, Note_on_c, 1, 69, 127
2, 89760, Note_on_c, 1, 77, 127
2, 89880, Note_off_c, 1, 63, 0
2, 89920, Note_on_c, 1, 62, 127
2, 89960, Note_off_c, 1, 72, 0
2, 90000, Note_off_c, 1, 69, 0
2, 90000, Note_off_c, 1, 77, 0
2, 90040, Note_off_c, 1, 62, 0
2, 90080, Note_on_c, 1, 60, 127
2, 90080, Note_on_c, 1, 69, 127
2, 90080, Note_on_c, 1, 72, 127
2, 90080, Note_on_c, 1, 77, 127
2, 90200, Note_off_c, 1, 60, 0
2, 90240, Note_on_c, 1, 58, 127
2, 90360, Note_off_c, 1, 58, 0
2, 90360, Note_off_c, 1, 69, 0
2, 90360, Note_off_c, 1, 72, 0
2, 90360, Note_off_c, 1, 77, 0
2, 90400, Note_on_c, 1, 57, 127
2, 90400, Note_on_c, 1, 72, 127
2, 90400, Note_on_c, 1, 75, 127
2, 90400, Note_on_c, 1, 77, 127
2, 90520, Note_off_c, 1, 57, 0
2, 90560, Note_on_c, 1, 55, 127
2, 90680, Note_off_c, 1, 55, 0
2, 90680, Note_off_c, 1, 72, 0
2, 90680, Note_off_c, 1, 75, 0
2, 90720, Note_on_c, 1, 53, 127
2, 90720, Note_on_c, 1, 72, 127
2, 90720, Note_on_c, 1, 75, 127
2, 90840, Note_off_c, 1, 53, 0
2, 90880, Note_on_c, 1, 51, 127
2, 91000, Note_off_c, 1, 51, 0
2, 91000, Note_off_c, 1, 72, 0
2, 91000, Note_off_c, 1, 75, 0
2, 91040, Note_on_c, 1, 50, 127
2, 91040, Note_on_c, 1, 72, 127
2, 91040, Note_on_c, 1, 75, 127
2, 91160, Note_off_c, 1, 50, 0
2, 91200, Note_on_c, 1, 48, 127
2, 91320, Note_off_c, 1, 48, 0
2, 91320, Note_off_c, 1, 72, 0
2, 91320, Note_off_c, 1, 75, 0
2, 91360, Note_on_c, 1, 46, 127
2, 91360, Note_on_c, 1, 72, 127
2, 91360, Note_on_c, 1, 75, 127
2, 91480, Note_off_c, 1, 46, 0
2, 91520, Note_on_c, 1, 45, 127
2, 91640, Note_off_c, 1, 45, 0
2, 91640, Note_off_c, 1, 72, 0
2, 91640, Note_off_c, 1, 75, 0
2, 91680, Note_on_c, 1, 46, 127
2, 91680, Note_on_c, 1, 70, 127
2, 91680, Note_on_c, 1, 74, 127
2, 91800, Note_off_c, 1, 46, 0
2, 91840, Note_on_c, 1, 48, 127
2, 91960, Note_off_c, 1, 48, 0
2, 91960, Note_off_c, 1, 70, 0
2, 91960, Note_off_c, 1, 74, 0
2, 92000, Note_on_c, 1, 50, 127
2, 92000, Note_on_c, 1, 68, 127
2, 92000, Note_on_c, 1, 70, 127
2, 92120, Note_off_c, 1, 50, 0
2, 92160, Note_on_c, 1, 46, 127
2, 92280, Note_off_c, 1, 46, 0
2, 92280, Note_off_c, 1, 68, 0
2, 92280, Note_off_c, 1, 70, 0
2, 92280, Note_off_c, 1, 77, 0
2, 92320, Note_on_c, 1, 51, 127
2, 92320, Note_on_c, 1, 67, 127
2, 92320, Note_on_c, 1, 70, 127
2, 92320, Note_on_c, 1, 75, 127
2, 92440, Note_off_c, 1, 51, 0
2, 92480, Note_on_c, 1, 50, 127
2, 92600, Note_off_c, 1, 50, 0
2, 92600, Note_off_c, 1, 67, 0
2, 92600, Note_off_c, 1, 75, 0
2, 92680, Note_on_c, 1, 51, 127
2, 92680, Note_on_c, 1, 65, 127
2, 92680, Note_on_c, 1, 74, 127
2, 92760, Note_off_c, 1, 51, 0
2, 92840, Note_on_c, 1, 53, 127
2, 92960, Note_off_c, 1, 53, 0
2, 92960, Note_off_c, 1, 65, 0
2, 92960, Note_off_c, 1, 74, 0
2, 93000, Note_on_c, 1, 55, 127
2, 93000, Note_on_c, 1, 63, 127
2, 93000, Note_on_c, 1, 72, 127
2, 93120, Note_off_c, 1, 55, 0
2, 93160, Note_on_c, 1, 51, 127
2, 93280, Note_off_c, 1, 51, 0
2, 93280, Note_off_c, 1, 63, 0
2, 93280, Note_off_c, 1, 70, 0
2, 93280, Note_off_c, 1, 72, 0
2, 93320, Note_on_c, 1, 53, 127
2, 93320, Note_on_c, 1, 63, 127
2, 93320, Note_on_c, 1, 69, 127
2, 93320, Note_on_c, 1, 72, 127
2, 93440, Note_off_c, 1, 53, 0
2, 93480, Note_on_c, 1, 55, 127
2, 93600, Note_off_c, 1, 55, 0
2, 93640, Note_on_c, 1, 57, 127
2, 93760, Note_off_c, 1, 57, 0
2, 93760, Note_off_c, 1, 63, 0
2, 93760, Note_off_c, 1, 72, 0
2, 93800, Note_on_c, 1, 53, 127
2, 93800, Note_on_c, 1, 65, 127
2, 93800, Note_on_c, 1, 74, 127
2, 93920, Note_off_c, 1, 53, 0
2, 93920, Note_off_c, 1, 65, 0
2, 93920, Note_off_c, 1, 69, 0
2, 93920, Note_off_c, 1, 74, 0
2, 93960, Note_on_c, 1, 58, 127
2, 93960, Note_on_c, 1, 62, 127
2, 94040, Note_on_c, 1, 65, 127
2, 94120, Note_on_c, 1, 70, 127
2, 94240, Note_off_c, 1, 58, 0
2, 94240, Note_off_c, 1, 65, 0
2, 94280, Note_on_c, 1, 51, 127
2, 94280, Note_on_c, 1, 67, 127
2, 94400, Note_off_c, 1, 62, 0
2, 94400, Note_off_c, 1, 70, 0
2, 94440, Note_on_c, 1, 63, 127
2, 94440, Note_on_c, 1, 72, 127
2, 94560, Note_off_c, 1, 51, 0
2, 94560, Note_off_c, 1, 63, 0
2, 94560, Note_off_c, 1, 67, 0
2, 94560, Note_off_c, 1, 72, 0
2, 94600, Note_on_c, 1, 53, 127
2, 94600, Note_on_c, 1, 60, 127
2, 94600, Note_on_c, 1, 70, 127
2, 94640, Note_off_c, 1, 70, 0
2, 94680, Note_on_c, 1, 69, 127
2, 94720, Note_off_c, 1, 69, 0
2, 94760, Note_on_c, 1, 70, 127
2, 94800, Note_off_c, 1, 70, 0
2, 94840, Note_on_c, 1, 69, 127
2, 94880, Note_off_c, 1, 53, 0
2, 94880, Note_off_c, 1, 69, 0
2, 94920, Note_on_c, 1, 41, 127
2, 94920, Note_on_c, 1, 70, 127
2, 94960, Note_off_c, 1, 70, 0
2, 95000, Note_on_c, 1, 69, 127
2, 95040, Note_off_c, 1, 69, 0
2, 95080, Note_on_c, 1, 70, 127
2, 95200, Note_off_c, 1, 41, 0
2, 95200, Note_off_c, 1, 60, 0
2, 95200, Note_off_c, 1, 70, 0
2, 95240, Note_on_c, 1, 46, 127
2, 95240, Note_on_c, 1, 62, 127
2, 95240, Note_on_c, 1, 65, 127
2, 95240, Note_on_c, 1, 70, 127
2, 95360, Note_off_c, 1, 70, 0
2, 95440, Note_on_c, 1, 72, 127
2, 95520, Note_off_c, 1, 46, 0
2, 95520, Note_off_c, 1, 62, 0
2, 95520, Note_off_c, 1, 65, 0
2, 95560, Note_off_c, 1, 72, 0
2, 95600, Note_on_c, 1, 65, 127
2, 95600, Note_on_c, 1, 74, 127
2, 95720, Note_off_c, 1, 74, 0
2, 95760, Note_on_c, 1, 70, 127
2, 95880, Note_off_c, 1, 65, 0
2, 95880, Note_off_c, 1, 70, 0
2, 95920, Note_on_c, 1, 65, 127
2, 95920, Note_on_c, 1, 69, 127
2, 96040, Note_off_c, 1, 69, 0
2, 96080, Note_on_c, 1, 70, 127
2, 96200, Note_off_c, 1, 65, 0
2, 96200, Note_off_c, 1, 70, 0
2, 96240, Note_on_c, 1, 62, 127
2, 96240, Note_on_c, 1, 65, 127
2, 96360, Note_off_c, 1, 65, 0
2, 96400, Note_on_c, 1, 70, 127
2, 96520, Note_off_c, 1, 62, 0
2, 96520, Note_off_c, 1, 70, 0
2, 96560, Note_on_c, 1, 58, 127
2, 96560, Note_on_c, 1, 74, 127
2, 96680, Note_off_c, 1, 74, 0
2, 96720, Note_on_c, 1, 70, 127
2, 96840, Note_off_c, 1, 58, 0
2, 96840, Note_off_c, 1, 70, 0
2, 96880, Note_on_c, 1, 58, 127
2, 96880, Note_on_c, 1, 76, 127
2, 97000, Note_off_c, 1, 76, 0
2, 97040, Note_on_c, 1, 70, 127
2, 97160, Note_off_c, 1, 58, 0
2, 97160, Note_off_c, 1, 70, 0
2, 97200, Note_on_c, 1, 57, 127
2, 97200, Note_on_c, 1, 77, 127
2, 97320, Note_off_c, 1, 57, 0
2, 97360, Note_on_c, 1, 55, 127
2, 97480, Note_off_c, 1, 55, 0
2, 97480, Note_off_c, 1, 77, 0
2, 97520, Note_on_c, 1, 57, 127
2, 97520, Note_on_c, 1, 84, 127
2, 97640, Note_off_c, 1, 57, 0
2, 97680, Note_on_c, 1, 53, 127
2, 97800, Note_off_c, 1, 53, 0
2, 97800, Note_off_c, 1, 84, 0
2, 97880, Note_on_c, 1, 52, 127
2, 97880, Note_on_c, 1, 84, 127
2, 97960, Note_off_c, 1, 52, 0
2, 98040, Note_on_c, 1, 53, 127
2, 98160, Note_off_c, 1, 53, 0
2, 98160, Note_off_c, 1, 84, 0
2, 98200, Note_on_c, 1, 48, 127
2, 98200, Note_on_c, 1, 81, 127
2, 98320, Note_off_c, 1, 48, 0
2, 98360, Note_on_c, 1, 53, 127
2, 98480, Note_off_c, 1, 53, 0
2, 98480, Note_off_c, 1, 81, 0
2, 98520, Note_on_c, 1, 57, 127
2, 98520, Note_on_c, 1, 77, 127
2, 98640, Note_off_c, 1, 57, 0
2, 98680, Note_on_c, 1, 53, 127
2, 98800, Note_off_c, 1, 53, 0
2, 98800, Note_off_c, 1, 77, 0
2, 98840, Note_on_c, 1, 59, 127
2, 98840, Note_on_c, 1, 77, 127
2, 98960, Note_off_c, 1, 59, 0
2, 99000, Note_on_c, 1, 53, 127
2, 99120, Note_off_c, 1, 53, 0
2, 99120, Note_off_c, 1, 77, 0
2, 99160, Note_on_c, 1, 60, 127
2, 99160, Note_on_c, 1, 75, 127
2, 99280, Note_off_c, 1, 75, 0
2, 99320, Note_on_c, 1, 74, 127
2, 99440, Note_off_c, 1, 60, 0
2, 99440, Note_off_c, 1, 74, 0
2, 99480, Note_on_c, 1, 55, 127
2, 99480, Note_on_c, 1, 75, 127
2, 99600, Note_off_c, 1, 75, 0
2, 99640, Note_on_c, 1, 72, 127
2, 99760, Note_off_c, 1, 55, 0
2, 99760, Note_off_c, 1, 72, 0
2, 99800, Note_on_c, 1, 55, 127
2, 99800, Note_on_c, 1, 71, 127
2, 99920, Note_off_c, 1, 71, 0
2, 99960, Note_on_c, 1, 72, 127
2, 100080, Note_off_c, 1, 55, 0
2, 100080, Note_off_c, 1, 72, 0
2, 100120, Note_on_c, 1, 51, 127
2, 100120, Note_on_c, 1, 67, 127
2, 100240, Note_off_c, 1, 67, 0
2, 100280, Note_on_c, 1, 72, 127
2, 100400, Note_off_c, 1, 51, 0
2, 100400, Note_off_c, 1, 72, 0
2, 100440, Note_on_c, 1, 48, 127
2, 100440, Note_on_c, 1, 75, 127
2, 100560, Note_off_c, 1, 75, 0
2, 100600, Note_on_c, 1, 72, 127
2, 100720, Note_off_c, 1, 48, 0
2, 100720, Note_off_c, 1, 72, 0
2, 100760, Note_on_c, 1, 48, 127
2, 100760, Note_on_c, 1, 78, 127
2, 100880, Note_off_c, 1, 78, 0
2, 100920, Note_on_c, 1, 72, 127
2, 101040, Note_off_c, 1, 48, 0
2, 101040, Note_off_c, 1, 72, 0
2, 101120, Note_on_c, 1, 46, 127
2, 101120, Note_on_c, 1, 79, 127
2, 101200, Note_off_c, 1, 46, 0
2, 101280, Note_on_c, 1, 45, 127
2, 101400, Note_off_c, 1, 45, 0
2, 101400, Note_off_c, 1, 79, 0
2, 101440, Note_on_c, 1, 46, 127
2, 101440, Note_on_c, 1, 74, 127
2, 101560, Note_off_c, 1, 46, 0
2, 101600, Note_on_c, 1, 43, 127
2, 101720, Note_off_c, 1, 43, 0
2, 101720, Note_off_c, 1, 74, 0
2, 101760, Note_on_c, 1, 42, 127
2, 101760, Note_on_c, 1, 74, 127
2, 101880, Note_off_c, 1, 42, 0
2, 101920, Note_on_c, 1, 43, 127
2, 102040, Note_off_c, 1, 43, 0
2, 102040, Note_off_c, 1, 74, 0
2, 102080, Note_on_c, 1, 38, 127
2, 102080, Note_on_c, 1, 70, 127
2, 102200, Note_off_c, 1, 38, 0
2, 102240, Note_on_c, 1, 43, 127
2, 102360, Note_off_c, 1, 43, 0
2, 102360, Note_off_c, 1, 70, 0
2, 102400, Note_on_c, 1, 46, 127
2, 102400, Note_on_c, 1, 67, 127
2, 102520, Note_off_c, 1, 46, 0
2, 102560, Note_on_c, 1, 43, 127
2, 102680, Note_off_c, 1, 43, 0
2, 102680, Note_off_c, 1, 67, 0
2, 102720, Note_on_c, 1, 49, 127
2, 102720, Note_on_c, 1, 67, 127
2, 102840, Note_off_c, 1, 49, 0
2, 102880, Note_on_c, 1, 43, 127
2, 103000, Note_off_c, 1, 43, 0
2, 103000, Note_off_c, 1, 67, 0
2, 103040, Note_on_c, 1, 50, 127
2, 103040, Note_on_c, 1, 65, 127
2, 103160, Note_off_c, 1, 50, 0
2, 103200, Note_on_c, 1, 52, 127
2, 103320, Note_off_c, 1, 52, 0
2, 103320, Note_off_c, 1, 65, 0
2, 103360, Note_on_c, 1, 53, 127
2, 103360, Note_on_c, 1, 81, 127
2, 103480, Note_off_c, 1, 53, 0
2, 103520, Note_on_c, 1, 50, 127
2, 103640, Note_off_c, 1, 50, 0
2, 103640, Note_off_c, 1, 81, 0
2, 103680, Note_on_c, 1, 49, 127
2, 103680, Note_on_c, 1, 81, 127
2, 103800, Note_off_c, 1, 49, 0
2, 103840, Note_on_c, 1, 50, 127
2, 103960, Note_off_c, 1, 50, 0
2, 103960, Note_off_c, 1, 81, 0
2, 104000, Note_on_c, 1, 45, 127
2, 104000, Note_on_c, 1, 77, 127
2, 104120, Note_off_c, 1, 45, 0
2, 104160, Note_on_c, 1, 50, 127
2, 104280, Note_off_c, 1, 50, 0
2, 104280, Note_off_c, 1, 77, 0
2, 104360, Note_on_c, 1, 53, 127
2, 104360, Note_on_c, 1, 74, 127
2, 104440, Note_off_c, 1, 53, 0
2, 104520, Note_on_c, 1, 50, 127
2, 104640, Note_off_c, 1, 50, 0
2, 104640, Note_off_c, 1, 74, 0
2, 104680, Note_on_c, 1, 56, 127
2, 104680, Note_on_c, 1, 74, 127
2, 104800, Note_off_c, 1, 56, 0
2, 104840, Note_on_c, 1, 50, 127
2, 104960, Note_off_c, 1, 50, 0
2, 104960, Note_off_c, 1, 74, 0
2, 105000, Note_on_c, 1, 57, 127
2, 105000, Note_on_c, 1, 73, 127
2, 105120, Note_off_c, 1, 73, 0
2, 105160, Note_on_c, 1, 71, 127
2, 105280, Note_off_c, 1, 57, 0
2, 105280, Note_off_c, 1, 71, 0
2, 105320, Note_on_c, 1, 69, 127
2, 105320, Note_on_c, 1, 73, 127
2, 105440, Note_off_c, 1, 73, 0
2, 105480, Note_on_c, 1, 74, 127
2, 105600, Note_off_c, 1, 69, 0
2, 105600, Note_off_c, 1, 74, 0
2, 105640, Note_on_c, 1, 69, 127
2, 105640, Note_on_c, 1, 71, 127
2, 105760, Note_off_c, 1, 71, 0
2, 105800, Note_on_c, 1, 73, 127
2, 105920, Note_off_c, 1, 69, 0
2, 105920, Note_off_c, 1, 73, 0
2, 105960, Note_on_c, 1, 65, 127
2, 105960, Note_on_c, 1, 74, 127
2, 106080, Note_off_c, 1, 74, 0
2, 106120, Note_on_c, 1, 73, 127
2, 106240, Note_off_c, 1, 65, 0
2, 106240, Note_off_c, 1, 73, 0
2, 106280, Note_on_c, 1, 62, 127
2, 106280, Note_on_c, 1, 65, 127
2, 106280, Note_on_c, 1, 74, 127
2, 106400, Note_off_c, 1, 74, 0
2, 106440, Note_on_c, 1, 76, 127
2, 106560, Note_off_c, 1, 62, 0
2, 106560, Note_off_c, 1, 65, 0
2, 106560, Note_off_c, 1, 76, 0
2, 106600, Note_on_c, 1, 62, 127
2, 106600, Note_on_c, 1, 65, 127
2, 106600, Note_on_c, 1, 73, 127
2, 106720, Note_off_c, 1, 73, 0
2, 106760, Note_on_c, 1, 74, 127
2, 106880, Note_off_c, 1, 62, 0
2, 106880, Note_off_c, 1, 65, 0
2, 106880, Note_off_c, 1, 74, 0
2, 106920, Note_on_c, 1, 61, 127
2, 106920, Note_on_c, 1, 64, 127
2, 106920, Note_on_c, 1, 76, 127
2, 107040, Note_off_c, 1, 61, 0
2, 107080, Note_on_c, 1, 59, 127
2, 107200, Note_off_c, 1, 59, 0
2, 107200, Note_off_c, 1, 64, 0
2, 107200, Note_off_c, 1, 76, 0
2, 107240, Note_on_c, 1, 57, 127
2, 107240, Note_on_c, 1, 61, 127
2, 107240, Note_on_c, 1, 69, 127
2, 107360, Note_off_c, 1, 61, 0
2, 107400, Note_on_c, 1, 62, 127
2, 107520, Note_off_c, 1, 57, 0
2, 107520, Note_off_c, 1, 62, 0
2, 107520, Note_off_c, 1, 69, 0
2, 107600, Note_on_c, 1, 57, 127
2, 107600, Note_on_c, 1, 59, 127
2, 107680, Note_off_c, 1, 59, 0
2, 107760, Note_on_c, 1, 61, 127
2, 107880, Note_off_c, 1, 57, 0
2, 107880, Note_off_c, 1, 61, 0
2, 107920, Note_on_c, 1, 53, 127
2, 107920, Note_on_c, 1, 57, 127
2, 107920, Note_on_c, 1, 62, 127
2, 108040, Note_off_c, 1, 62, 0
2, 108080, Note_on_c, 1, 61, 127
2, 108200, Note_off_c, 1, 53, 0
2, 108200, Note_off_c, 1, 57, 0
2, 108200, Note_off_c, 1, 61, 0
2, 108240, Note_on_c, 1, 50, 127
2, 108240, Note_on_c, 1, 53, 127
2, 108240, Note_on_c, 1, 57, 127
2, 108240, Note_on_c, 1, 62, 127
2, 108360, Note_off_c, 1, 62, 0
2, 108400, Note_on_c, 1, 64, 127
2, 108520, Note_off_c, 1, 50, 0
2, 108520, Note_off_c, 1, 53, 0
2, 108520, Note_off_c, 1, 57, 0
2, 108520, Note_off_c, 1, 64, 0
2, 108560, Note_on_c, 1, 50, 127
2, 108560, Note_on_c, 1, 53, 127
2, 108560, Note_on_c, 1, 57, 127
2, 108560, Note_on_c, 1, 65, 127
2, 108680, Note_off_c, 1, 65, 0
2, 108720, Note_on_c, 1, 67, 127
2, 108840, Note_off_c, 1, 50, 0
2, 108840, Note_off_c, 1, 53, 0
2, 108840, Note_off_c, 1, 57, 0
2, 108840, Note_off_c, 1, 67, 0
2, 108880, Note_on_c, 1, 49, 127
2, 108880, Note_on_c, 1, 52, 127
2, 108880, Note_on_c, 1, 57, 127
2, 108880, Note_on_c, 1, 69, 127
2, 109000, Note_off_c, 1, 69, 0
2, 109040, Note_on_c, 1, 67, 127
2, 109160, Note_off_c, 1, 49, 0
2, 109160, Note_off_c, 1, 52, 0
2, 109160, Note_off_c, 1, 57, 0
2, 109160, Note_off_c, 1, 67, 0
2, 109200, Note_on_c, 1, 45, 127
2, 109200, Note_on_c, 1, 49, 127
2, 109200, Note_on_c, 1, 52, 127
2, 109200, Note_on_c, 1, 69, 127
2, 109320, Note_off_c, 1, 69, 0
2, 109360, Note_on_c, 1, 71, 127
2, 109480, Note_off_c, 1, 45, 0
2, 109480, Note_off_c, 1, 49, 0
2, 109480, Note_off_c, 1, 52, 0
2, 109480, Note_off_c, 1, 71, 0
2, 109520, Note_on_c, 1, 45, 127
2, 109520, Note_on_c, 1, 49, 127
2, 109520, Note_on_c, 1, 52, 127
2, 109520, Note_on_c, 1, 73, 127
2, 109640, Note_off_c, 1, 73, 0
2, 109680, Note_on_c, 1, 69, 127
2, 109800, Note_off_c, 1, 45, 0
2, 109800, Note_off_c, 1, 49, 0
2, 109800, Note_off_c, 1, 52, 0
2, 109800, Note_off_c, 1, 69, 0
2, 109840, Note_on_c, 1, 41, 127
2, 109840, Note_on_c, 1, 45, 127
2, 109840, Note_on_c, 1, 50, 127
2, 109840, Note_on_c, 1, 74, 127
2, 109960, Note_off_c, 1, 74, 0
2, 110000, Note_on_c, 1, 73, 127
2, 110120, Note_off_c, 1, 41, 0
2, 110120, Note_off_c, 1, 45, 0
2, 110120, Note_off_c, 1, 50, 0
2, 110120, Note_off_c, 1, 73, 0
2, 110160, Note_on_c, 1, 38, 127
2, 110160, Note_on_c, 1, 41, 127
2, 110160, Note_on_c, 1, 45, 127
2, 110160, Note_on_c, 1, 50, 127
2, 110160, Note_on_c, 1, 74, 127
2, 110280, Note_off_c, 1, 74, 0
2, 110320, Note_on_c, 1, 76, 127
2, 110440, Note_off_c, 1, 38, 0
2, 110440, Note_off_c, 1, 41, 0
2, 110440, Note_off_c, 1, 45, 0
2, 110440, Note_off_c, 1, 50, 0
2, 110440, Note_off_c, 1, 76, 0
2, 110480, Note_on_c, 1, 38, 127
2, 110480, Note_on_c, 1, 41, 127
2, 110480, Note_on_c, 1, 45, 127
2, 110480, Note_on_c, 1, 77, 127
2, 110600, Note_off_c, 1, 77, 0
2, 110640, Note_on_c, 1, 79, 127
2, 110760, Note_off_c, 1, 38, 0
2, 110760, Note_off_c, 1, 41, 0
2, 110760, Note_off_c, 1, 45, 0
2, 110760, Note_off_c, 1, 79, 0
2, 110840, Note_on_c, 1, 37, 127
2, 110840, Note_on_c, 1, 40, 127
2, 110840, Note_on_c, 1, 45, 127
2, 110840, Note_on_c, 1, 81, 127
2, 110920, Note_off_c, 1, 81, 0
2, 111000, Note_on_c, 1, 82, 127
2, 111120, Note_off_c, 1, 82, 0
2, 111160, Note_on_c, 1, 69, 127
2, 111160, Note_on_c, 1, 81, 127
2, 111280, Note_off_c, 1, 81, 0
2, 111320, Note_on_c, 1, 79, 127
2, 111440, Note_off_c, 1, 37, 0
2, 111440, Note_off_c, 1, 40, 0
2, 111440, Note_off_c, 1, 45, 0
2, 111440, Note_off_c, 1, 69, 0
2, 111440, Note_off_c, 1, 79, 0
2, 111480, Note_on_c, 1, 69, 127
2, 111480, Note_on_c, 1, 77, 127
2, 111600, Note_off_c, 1, 77, 0
2, 111640, Note_on_c, 1, 76, 127
2, 111760, Note_off_c, 1, 69, 0
2, 111760, Note_off_c, 1, 76, 0
2, 111800, Note_on_c, 1, 74, 127
2, 111800, Note_on_c, 1, 77, 127
2, 111920, Note_off_c, 1, 74, 0
2, 111960, Note_on_c, 1, 76, 127
2, 112080, Note_off_c, 1, 76, 0
2, 112080, Note_off_c, 1, 77, 0
2, 112120, Note_on_c, 1, 74, 127
2, 112120, Note_on_c, 1, 77, 127
2, 112120, Note_on_c, 1, 81, 127
2, 112240, Note_off_c, 1, 74, 0
2, 112280, Note_on_c, 1, 72, 127
2, 112400, Note_off_c, 1, 72, 0
2, 112400, Note_off_c, 1, 77, 0
2, 112400, Note_off_c, 1, 81, 0
2, 112440, Note_on_c, 1, 70, 127
2, 112440, Note_on_c, 1, 77, 127
2, 112440, Note_on_c, 1, 81, 127
2, 112560, Note_off_c, 1, 70, 0
2, 112600, Note_on_c, 1, 69, 127
2, 112720, Note_off_c, 1, 69, 0
2, 112720, Note_off_c, 1, 77, 0
2, 112720, Note_off_c, 1, 81, 0
2, 112760, Note_on_c, 1, 67, 127
2, 112760, Note_on_c, 1, 77, 127
2, 112760, Note_on_c, 1, 82, 127
2, 112880, Note_off_c, 1, 67, 0
2, 112880, Note_off_c, 1, 82, 0
2, 112920, Note_on_c, 1, 69, 127
2, 112920, Note_on_c, 1, 84, 127
2, 113040, Note_off_c, 1, 69, 0
2, 113040, Note_off_c, 1, 84, 0
2, 113080, Note_on_c, 1, 67, 127
2, 113080, Note_on_c, 1, 82, 127
2, 113200, Note_off_c, 1, 67, 0
2, 113200, Note_off_c, 1, 77, 0
2, 113200, Note_off_c, 1, 82, 0
2, 113240, Note_on_c, 1, 65, 127
2, 113240, Note_on_c, 1, 81, 127
2, 113360, Note_off_c, 1, 65, 0
2, 113360, Note_off_c, 1, 81, 0
2, 113400, Note_on_c, 1, 64, 127
2, 113400, Note_on_c, 1, 79, 127
2, 113520, Note_off_c, 1, 64, 0
2, 113520, Note_off_c, 1, 79, 0
2, 113560, Note_on_c, 1, 62, 127
2, 113560, Note_on_c, 1, 77, 127
2, 113680, Note_off_c, 1, 62, 0
2, 113680, Note_off_c, 1, 77, 0
2, 113720, Note_on_c, 1, 60, 127
2, 113720, Note_on_c, 1, 76, 127
2, 113840, Note_off_c, 1, 60, 0
2, 113880, Note_on_c, 1, 62, 127
2, 114000, Note_off_c, 1, 62, 0
2, 114000, Note_off_c, 1, 76, 0
2, 114080, Note_on_c, 1, 60, 127
2, 114080, Note_on_c, 1, 76, 127
2, 114080, Note_on_c, 1, 79, 127
2, 114160, Note_off_c, 1, 60, 0
2, 114240, Note_on_c, 1, 58, 127
2, 114360, Note_off_c, 1, 58, 0
2, 114360, Note_off_c, 1, 76, 0
2, 114360, Note_off_c, 1, 79, 0
2, 114400, Note_on_c, 1, 57, 127
2, 114400, Note_on_c, 1, 76, 127
2, 114400, Note_on_c, 1, 79, 127
2, 114520, Note_off_c, 1, 57, 0
2, 114560, Note_on_c, 1, 55, 127
2, 114680, Note_off_c, 1, 55, 0
2, 114680, Note_off_c, 1, 76, 0
2, 114680, Note_off_c, 1, 79, 0
2, 114720, Note_on_c, 1, 53, 127
2, 114720, Note_on_c, 1, 76, 127
2, 114720, Note_on_c, 1, 81, 127
2, 114840, Note_off_c, 1, 53, 0
2, 114840, Note_off_c, 1, 81, 0
2, 114880, Note_on_c, 1, 55, 127
2, 114880, Note_on_c, 1, 82, 127
2, 115000, Note_off_c, 1, 55, 0
2, 115000, Note_off_c, 1, 82, 0
2, 115040, Note_on_c, 1, 53, 127
2, 115040, Note_on_c, 1, 81, 127
2, 115160, Note_off_c, 1, 53, 0
2, 115160, Note_off_c, 1, 76, 0
2, 115160, Note_off_c, 1, 81, 0
2, 115200, Note_on_c, 1, 52, 127
2, 115200, Note_on_c, 1, 79, 127
2, 115320, Note_off_c, 1, 52, 0
2, 115320, Note_off_c, 1, 79, 0
2, 115360, Note_on_c, 1, 50, 127
2, 115360, Note_on_c, 1, 77, 127
2, 115480, Note_off_c, 1, 50, 0
2, 115480, Note_off_c, 1, 77, 0
2, 115520, Note_on_c, 1, 48, 127
2, 115520, Note_on_c, 1, 76, 127
2, 115640, Note_off_c, 1, 48, 0
2, 115640, Note_off_c, 1, 76, 0
2, 115680, Note_on_c, 1, 46, 127
2, 115680, Note_on_c, 1, 74, 127
2, 115800, Note_off_c, 1, 46, 0
2, 115800, Note_off_c, 1, 74, 0
2, 115840, Note_on_c, 1, 48, 127
2, 115840, Note_on_c, 1, 73, 127
2, 115960, Note_off_c, 1, 48, 0
2, 115960, Note_off_c, 1, 73, 0
2, 116000, Note_on_c, 1, 46, 127
2, 116000, Note_on_c, 1, 74, 127
2, 116120, Note_off_c, 1, 46, 0
2, 116120, Note_off_c, 1, 74, 0
2, 116160, Note_on_c, 1, 45, 127
2, 116160, Note_on_c, 1, 76, 127
2, 116280, Note_off_c, 1, 45, 0
2, 116280, Note_off_c, 1, 76, 0
2, 116320, Note_on_c, 1, 43, 127
2, 116320, Note_on_c, 1, 77, 127
2, 116440, Note_off_c, 1, 43, 0
2, 116440, Note_off_c, 1, 77, 0
2, 116480, Note_on_c, 1, 41, 127
2, 116480, Note_on_c, 1, 74, 127
2, 116600, Note_off_c, 1, 41, 0
2, 116600, Note_off_c, 1, 74, 0
2, 116640, Note_on_c, 1, 40, 127
2, 116640, Note_on_c, 1, 79, 127
2, 116760, Note_off_c, 1, 40, 0
2, 116800, Note_on_c, 1, 38, 127
2, 116920, Note_off_c, 1, 38, 0
2, 116920, Note_off_c, 1, 79, 0
2, 116960, Note_on_c, 1, 40, 127
2, 116960, Note_on_c, 1, 70, 127
2, 116960, Note_on_c, 1, 74, 127
2, 116960, Note_on_c, 1, 79, 127
2, 117080, Note_off_c, 1, 40, 0
2, 117120, Note_on_c, 1, 41, 127
2, 117240, Note_off_c, 1, 41, 0
2, 117240, Note_off_c, 1, 70, 0
2, 117240, Note_off_c, 1, 74, 0
2, 117240, Note_off_c, 1, 79, 0
2, 117320, Note_on_c, 1, 43, 127
2, 117320, Note_on_c, 1, 70, 127
2, 117320, Note_on_c, 1, 74, 127
2, 117320, Note_on_c, 1, 79, 127
2, 117400, Note_off_c, 1, 43, 0
2, 117480, Note_on_c, 1, 40, 127
2, 117600, Note_off_c, 1, 40, 0
2, 117600, Note_off_c, 1, 70, 0
2, 117600, Note_off_c, 1, 74, 0
2, 117640, Note_on_c, 1, 45, 127
2, 117640, Note_on_c, 1, 70, 127
2, 117640, Note_on_c, 1, 73, 127
2, 117760, Note_off_c, 1, 45, 0
2, 117800, Note_on_c, 1, 43, 127
2, 117920, Note_off_c, 1, 43, 0
2, 117920, Note_off_c, 1, 70, 0
2, 117920, Note_off_c, 1, 73, 0
2, 117920, Note_off_c, 1, 79, 0
2, 117960, Note_on_c, 1, 45, 127
2, 117960, Note_on_c, 1, 69, 127
2, 117960, Note_on_c, 1, 73, 127
2, 117960, Note_on_c, 1, 76, 127
2, 118080, Note_off_c, 1, 45, 0
2, 118120, Note_on_c, 1, 47, 127
2, 118240, Note_off_c, 1, 47, 0
2, 118240, Note_off_c, 1, 69, 0
2, 118240, Note_off_c, 1, 73, 0
2, 118240, Note_off_c, 1, 76, 0
2, 118280, Note_on_c, 1, 49, 127
2, 118280, Note_on_c, 1, 69, 127
2, 118280, Note_on_c, 1, 73, 127
2, 118280, Note_on_c, 1, 76, 127
2, 118400, Note_off_c, 1, 49, 0
2, 118440, Note_on_c, 1, 45, 127
2, 118560, Note_off_c, 1, 45, 0
2, 118560, Note_off_c, 1, 69, 0
2, 118560, Note_off_c, 1, 73, 0
2, 118560, Note_off_c, 1, 76, 0
2, 118600, Note_on_c, 1, 58, 127
2, 118600, Note_on_c, 1, 64, 127
2, 118600, Note_on_c, 1, 67, 127
2, 118640, Note_off_c, 1, 64, 0
2, 118680, Note_on_c, 1, 62, 127
2, 118720, Note_off_c, 1, 62, 0
2, 118760, Note_on_c, 1, 64, 127
2, 118880, Note_off_c, 1, 58, 0
2, 118920, Note_on_c, 1, 49, 127
2, 119040, Note_off_c, 1, 67, 0
2, 119080, Note_on_c, 1, 69, 127
2, 119200, Note_off_c, 1, 49, 0
2, 119200, Note_off_c, 1, 64, 0
2, 119200, Note_off_c, 1, 69, 0
2, 119240, Note_on_c, 1, 50, 127
2, 119240, Note_on_c, 1, 62, 127
2, 119240, Note_on_c, 1, 65, 127
2, 119520, Note_off_c, 1, 50, 0
2, 119560, Note_on_c, 1, 55, 127
2, 119680, Note_off_c, 1, 65, 0
2, 119720, Note_on_c, 1, 64, 127
2, 119840, Note_off_c, 1, 55, 0
2, 119840, Note_off_c, 1, 62, 0
2, 119840, Note_off_c, 1, 64, 0
2, 119880, Note_on_c, 1, 57, 127
2, 119880, Note_on_c, 1, 61, 127
2, 119880, Note_on_c, 1, 65, 127
2, 119920, Note_off_c, 1, 65, 0
2, 119960, Note_on_c, 1, 64, 127
2, 120000, Note_off_c, 1, 64, 0
2, 120040, Note_on_c, 1, 65, 127
2, 120080, Note_off_c, 1, 65, 0
2, 120120, Note_on_c, 1, 64, 127
2, 120160, Note_off_c, 1, 57, 0
2, 120160, Note_off_c, 1, 64, 0
2, 120200, Note_on_c, 1, 45, 127
2, 120200, Note_on_c, 1, 65, 127
2, 120240, Note_off_c, 1, 65, 0
2, 120280, Note_on_c, 1, 64, 127
2, 120320, Note_off_c, 1, 64, 0
2, 120360, Note_on_c, 1, 62, 127
2, 120480, Note_off_c, 1, 45, 0
2, 120480, Note_off_c, 1, 61, 0
2, 120480, Note_off_c, 1, 62, 0
2, 120560, Note_on_c, 1, 38, 127
2, 120560, Note_on_c, 1, 62, 127
2, 120640, Note_off_c, 1, 62, 0
2, 120720, Note_on_c, 1, 64, 127
2, 120840, Note_off_c, 1, 64, 0
2, 120880, Note_on_c, 1, 65, 127
2, 121000, Note_off_c, 1, 65, 0
2, 121040, Note_on_c, 1, 62, 127
2, 121160, Note_off_c, 1, 62, 0
2, 121200, Note_on_c, 1, 61, 127
2, 121320, Note_off_c, 1, 38, 0
2, 121320, Note_off_c, 1, 61, 0
2, 121360, Note_on_c, 1, 62, 127
2, 121480, Note_off_c, 1, 62, 0
2, 121520, Note_on_c, 1, 57, 127
2, 121640, Note_off_c, 1, 57, 0
2, 121680, Note_on_c, 1, 62, 127
2, 121800, Note_off_c, 1, 62, 0
2, 121840, Note_on_c, 1, 65, 127
2, 121960, Note_off_c, 1, 65, 0
2, 122000, Note_on_c, 1, 62, 127
2, 122120, Note_off_c, 1, 62, 0
2, 122160, Note_on_c, 1, 68, 127
2, 122280, Note_off_c, 1, 68, 0
2, 122320, Note_on_c, 1, 62, 127
2, 122440, Note_off_c, 1, 62, 0
2, 122480, Note_on_c, 1, 69, 127
2, 122640, Note_on_c, 1, 57, 127
2, 122680, Note_off_c, 1, 57, 0
2, 122720, Note_on_c, 1, 59, 127
2, 122760, Note_off_c, 1, 59, 0
2, 122760, Note_off_c, 1, 69, 0
2, 122800, Note_on_c, 1, 60, 127
2, 122800, Note_on_c, 1, 76, 127
2, 122920, Note_off_c, 1, 60, 0
2, 122960, Note_on_c, 1, 57, 127
2, 123080, Note_off_c, 1, 57, 0
2, 123080, Note_off_c, 1, 76, 0
2, 123120, Note_on_c, 1, 56, 127
2, 123120, Note_on_c, 1, 76, 127
2, 123240, Note_off_c, 1, 56, 0
2, 123280, Note_on_c, 1, 57, 127
2, 123400, Note_off_c, 1, 57, 0
2, 123400, Note_off_c, 1, 76, 0
2, 123440, Note_on_c, 1, 52, 127
2, 123440, Note_on_c, 1, 72, 127
2, 123560, Note_off_c, 1, 52, 0
2, 123600, Note_on_c, 1, 57, 127
2, 123720, Note_off_c, 1, 57, 0
2, 123720, Note_off_c, 1, 72, 0
2, 123800, Note_on_c, 1, 60, 127
2, 123800, Note_on_c, 1, 69, 127
2, 123880, Note_off_c, 1, 60, 0
2, 123960, Note_on_c, 1, 57, 127
2, 124080, Note_off_c, 1, 57, 0
2, 124080, Note_off_c, 1, 69, 0
2, 124120, Note_on_c, 1, 63, 127
2, 124120, Note_on_c, 1, 69, 127
2, 124240, Note_off_c, 1, 63, 0
2, 124280, Note_on_c, 1, 57, 127
2, 124400, Note_off_c, 1, 57, 0
2, 124400, Note_off_c, 1, 69, 0
2, 124440, Note_on_c, 1, 64, 127
2, 124440, Note_on_c, 1, 69, 127
2, 124560, Note_off_c, 1, 69, 0
2, 124600, Note_on_c, 1, 66, 127
2, 124720, Note_off_c, 1, 64, 0
2, 124720, Note_off_c, 1, 66, 0
2, 124760, Note_on_c, 1, 64, 127
2, 124760, Note_on_c, 1, 67, 127
2, 124880, Note_off_c, 1, 67, 0
2, 124920, Note_on_c, 1, 71, 127
2, 125040, Note_off_c, 1, 64, 0
2, 125040, Note_off_c, 1, 71, 0
2, 125080, Note_on_c, 1, 64, 127
2, 125080, Note_on_c, 1, 72, 127
2, 125200, Note_off_c, 1, 72, 0
2, 125240, Note_on_c, 1, 67, 127
2, 125360, Note_off_c, 1, 64, 0
2, 125360, Note_off_c, 1, 67, 0
2, 125400, Note_on_c, 1, 64, 127
2, 125400, Note_on_c, 1, 65, 127
2, 125520, Note_off_c, 1, 65, 0
2, 125560, Note_on_c, 1, 67, 127
2, 125680, Note_off_c, 1, 64, 0
2, 125680, Note_off_c, 1, 67, 0
2, 125720, Note_on_c, 1, 62, 127
2, 125720, Note_on_c, 1, 69, 127
2, 125840, Note_off_c, 1, 69, 0
2, 125880, Note_on_c, 1, 65, 127
2, 126000, Note_off_c, 1, 62, 0
2, 126000, Note_off_c, 1, 65, 0
2, 126040, Note_on_c, 1, 62, 127
2, 126040, Note_on_c, 1, 70, 127
2, 126160, Note_off_c, 1, 70, 0
2, 126200, Note_on_c, 1, 65, 127
2, 126320, Note_off_c, 1, 62, 0
2, 126320, Note_off_c, 1, 65, 0
2, 126360, Note_on_c, 1, 62, 127
2, 126360, Note_on_c, 1, 64, 127
2, 126480, Note_off_c, 1, 64, 0
2, 126520, Note_on_c, 1, 67, 127
2, 126640, Note_off_c, 1, 62, 0
2, 126640, Note_off_c, 1, 67, 0
2, 126680, Note_on_c, 1, 60, 127
2, 126680, Note_on_c, 1, 69, 127
2, 126800, Note_off_c, 1, 69, 0
2, 126840, Note_on_c, 1, 70, 127
2, 126960, Note_off_c, 1, 60, 0
2, 126960, Note_off_c, 1, 70, 0
2, 127040, Note_on_c, 1, 60, 127
2, 127040, Note_on_c, 1, 72, 127
2, 127120, Note_off_c, 1, 72, 0
2, 127200, Note_on_c, 1, 69, 127
2, 127320, Note_off_c, 1, 69, 0
2, 127360, Note_on_c, 1, 67, 127
2, 127400, Note_off_c, 1, 60, 0
2, 127480, Note_off_c, 1, 67, 0
2, 127520, Note_on_c, 1, 60, 127
2, 127520, Note_on_c, 1, 66, 127
2, 127640, Note_off_c, 1, 60, 0
2, 127640, Note_off_c, 1, 66, 0
2, 127680, Note_on_c, 1, 58, 127
2, 127680, Note_on_c, 1, 67, 127
2, 127800, Note_off_c, 1, 58, 0
2, 127840, Note_on_c, 1, 57, 127
2, 127960, Note_off_c, 1, 57, 0
2, 127960, Note_off_c, 1, 67, 0
2, 128000, Note_on_c, 1, 55, 127
2, 128000, Note_on_c, 1, 67, 127
2, 128120, Note_off_c, 1, 55, 0
2, 128160, Note_on_c, 1, 58, 127
2, 128280, Note_off_c, 1, 58, 0
2, 128280, Note_off_c, 1, 67, 0
2, 128320, Note_on_c, 1, 49, 127
2, 128320, Note_on_c, 1, 67, 127
2, 128440, Note_off_c, 1, 67, 0
2, 128480, Note_on_c, 1, 69, 127
2, 128600, Note_off_c, 1, 49, 0
2, 128600, Note_off_c, 1, 69, 0
2, 128640, Note_on_c, 1, 55, 127
2, 128640, Note_on_c, 1, 70, 127
2, 128760, Note_off_c, 1, 70, 0
2, 128800, Note_on_c, 1, 67, 127
2, 128920, Note_off_c, 1, 55, 0
2, 128920, Note_off_c, 1, 67, 0
2, 128960, Note_on_c, 1, 58, 127
2, 128960, Note_on_c, 1, 73, 127
2, 129080, Note_off_c, 1, 73, 0
2, 129120, Note_on_c, 1, 67, 127
2, 129240, Note_off_c, 1, 58, 0
2, 129240, Note_off_c, 1, 67, 0
2, 129280, Note_on_c, 1, 49, 127
2, 129280, Note_on_c, 1, 76, 127
2, 129400, Note_off_c, 1, 76, 0
2, 129440, Note_on_c, 1, 70, 127
2, 129560, Note_off_c, 1, 49, 0
2, 129560, Note_off_c, 1, 70, 0
2, 129600, Note_on_c, 1, 52, 127
2, 129600, Note_on_c, 1, 69, 127
2, 129720, Note_off_c, 1, 69, 0
2, 129760, Note_on_c, 1, 67, 127
2, 129880, Note_off_c, 1, 52, 0
2, 129880, Note_off_c, 1, 67, 0
2, 129920, Note_on_c, 1, 57, 127
2, 129920, Note_on_c, 1, 65, 127
2, 130040, Note_off_c, 1, 65, 0
2, 130080, Note_on_c, 1, 64, 127
2, 130200, Note_off_c, 1, 57, 0
2, 130200, Note_off_c, 1, 64, 0
2, 130280, Note_on_c, 1, 50, 127
2, 130280, Note_on_c, 1, 65, 127
2, 130360, Note_off_c, 1, 65, 0
2, 130440, Note_on_c, 1, 67, 127
2, 130560, Note_off_c, 1, 50, 0
2, 130560, Note_off_c, 1, 67, 0
2, 130600, Note_on_c, 1, 53, 127
2, 130600, Note_on_c, 1, 68, 127
2, 130720, Note_off_c, 1, 68, 0
2, 130760, Note_on_c, 1, 65, 127
2, 130880, Note_off_c, 1, 53, 0
2, 130880, Note_off_c, 1, 65, 0
2, 130920, Note_on_c, 1, 56, 127
2, 130920, Note_on_c, 1, 71, 127
2, 131040, Note_off_c, 1, 71, 0
2, 131080, Note_on_c, 1, 65, 127
2, 131200, Note_off_c, 1, 56, 0
2, 131200, Note_off_c, 1, 65, 0
2, 131240, Note_on_c, 1, 59, 127
2, 131240, Note_on_c, 1, 74, 127
2, 131360, Note_off_c, 1, 74, 0
2, 131400, Note_on_c, 1, 68, 127
2, 131520, Note_off_c, 1, 59, 0
2, 131520, Note_off_c, 1, 68, 0
2, 131560, Note_on_c, 1, 62, 127
2, 131560, Note_on_c, 1, 67, 127
2, 131680, Note_off_c, 1, 67, 0
2, 131720, Note_on_c, 1, 65, 127
2, 131840, Note_off_c, 1, 62, 0
2, 131840, Note_off_c, 1, 65, 0
2, 131880, Note_on_c, 1, 55, 127
2, 131880, Note_on_c, 1, 63, 127
2, 132000, Note_off_c, 1, 63, 0
2, 132040, Note_on_c, 1, 62, 127
2, 132160, Note_off_c, 1, 55, 0
2, 132160, Note_off_c, 1, 62, 0
2, 132200, Note_on_c, 1, 60, 127
2, 132200, Note_on_c, 1, 63, 127
2, 132360, Note_on_c, 1, 48, 127
2, 132400, Note_off_c, 1, 48, 0
2, 132440, Note_on_c, 1, 50, 127
2, 132480, Note_off_c, 1, 50, 0
2, 132480, Note_off_c, 1, 60, 0
2, 132480, Note_off_c, 1, 63, 0
2, 132560, Note_on_c, 1, 51, 127
2, 132560, Note_on_c, 1, 67, 127
2, 132560, Note_on_c, 1, 72, 127
2, 132560, Note_on_c, 1, 79, 127
2, 132680, Note_off_c, 1, 51, 0
2, 132720, Note_on_c, 1, 48, 127
2, 132840, Note_off_c, 1, 48, 0
2, 132840, Note_off_c, 1, 67, 0
2, 132840, Note_off_c, 1, 72, 0
2, 132840, Note_off_c, 1, 79, 0
2, 132880, Note_on_c, 1, 47, 127
2, 132880, Note_on_c, 1, 67, 127
2, 132880, Note_on_c, 1, 72, 127
2, 132880, Note_on_c, 1, 79, 127
2, 133000, Note_off_c, 1, 47, 0
2, 133040, Note_on_c, 1, 48, 127
2, 133160, Note_off_c, 1, 48, 0
2, 133160, Note_off_c, 1, 67, 0
2, 133160, Note_off_c, 1, 72, 0
2, 133160, Note_off_c, 1, 79, 0
2, 133200, Note_on_c, 1, 43, 127
2, 133200, Note_on_c, 1, 67, 127
2, 133200, Note_on_c, 1, 74, 127
2, 133200, Note_on_c, 1, 75, 127
2, 133320, Note_off_c, 1, 43, 0
2, 133360, Note_on_c, 1, 48, 127
2, 133480, Note_off_c, 1, 48, 0
2, 133480, Note_off_c, 1, 67, 0
2, 133480, Note_off_c, 1, 74, 0
2, 133480, Note_off_c, 1, 75, 0
2, 133520, Note_on_c, 1, 51, 127
2, 133520, Note_on_c, 1, 67, 127
2, 133520, Note_on_c, 1, 72, 127
2, 133520, Note_on_c, 1, 75, 127
2, 133640, Note_off_c, 1, 51, 0
2, 133680, Note_on_c, 1, 48, 127
2, 133800, Note_off_c, 1, 48, 0
2, 133800, Note_off_c, 1, 67, 0
2, 133800, Note_off_c, 1, 72, 0
2, 133800, Note_off_c, 1, 75, 0
2, 133840, Note_on_c, 1, 54, 127
2, 133840, Note_on_c, 1, 69, 127
2, 133840, Note_on_c, 1, 72, 127
2, 133840, Note_on_c, 1, 75, 127
2, 133960, Note_off_c, 1, 54, 0
2, 134000, Note_on_c, 1, 48, 127
2, 134120, Note_off_c, 1, 48, 0
2, 134120, Note_off_c, 1, 69, 0
2, 134120, Note_off_c, 1, 72, 0
2, 134120, Note_off_c, 1, 75, 0
2, 134160, Note_on_c, 1, 55, 127
2, 134160, Note_on_c, 1, 70, 127
2, 134160, Note_on_c, 1, 74, 127
2, 134280, Note_off_c, 1, 74, 0
2, 134320, Note_on_c, 1, 74, 127
2, 134440, Note_off_c, 1, 70, 0
2, 134440, Note_off_c, 1, 74, 0
2, 134480, Note_on_c, 1, 58, 127
2, 134480, Note_on_c, 1, 67, 127
2, 134600, Note_off_c, 1, 67, 0
2, 134640, Note_on_c, 1, 74, 127
2, 134760, Note_off_c, 1, 55, 0
2, 134760, Note_off_c, 1, 58, 0
2, 134760, Note_off_c, 1, 74, 0
2, 134800, Note_on_c, 1, 57, 127
2, 134800, Note_on_c, 1, 66, 127
2, 134920, Note_off_c, 1, 66, 0
2, 134960, Note_on_c, 1, 72, 127
2, 135080, Note_off_c, 1, 57, 0
2, 135080, Note_off_c, 1, 72, 0
2, 135120, Note_on_c, 1, 43, 127
2, 135120, Note_on_c, 1, 55, 127
2, 135120, Note_on_c, 1, 70, 127
2, 135240, Note_off_c, 1, 70, 0
2, 135280, Note_on_c, 1, 74, 127
2, 135400, Note_off_c, 1, 43, 0
2, 135400, Note_off_c, 1, 55, 0
2, 135400, Note_off_c, 1, 74, 0
2, 135480, Note_on_c, 1, 58, 127
2, 135480, Note_on_c, 1, 67, 127
2, 135560, Note_off_c, 1, 67, 0
2, 135640, Note_on_c, 1, 74, 127
2, 135760, Note_off_c, 1, 58, 0
2, 135760, Note_off_c, 1, 74, 0
2, 135800, Note_on_c, 1, 57, 127
2, 135800, Note_on_c, 1, 66, 127
2, 135920, Note_off_c, 1, 66, 0
2, 135960, Note_on_c, 1, 72, 127
2, 136080, Note_off_c, 1, 57, 0
2, 136080, Note_off_c, 1, 72, 0
2, 136120, Note_on_c, 1, 55, 127
2, 136120, Note_on_c, 1, 70, 127
2, 136240, Note_off_c, 1, 70, 0
2, 136280, Note_on_c, 1, 67, 127
2, 136400, Note_off_c, 1, 67, 0
2, 136440, Note_on_c, 1, 48, 127
2, 136440, Note_on_c, 1, 64, 127
2, 136560, Note_off_c, 1, 64, 0
2, 136600, Note_on_c, 1, 70, 127
2, 136720, Note_off_c, 1, 48, 0
2, 136720, Note_off_c, 1, 70, 0
2, 136760, Note_on_c, 1, 50, 127
2, 136760, Note_on_c, 1, 62, 127
2, 136880, Note_off_c, 1, 62, 0
2, 136920, Note_on_c, 1, 70, 127
2, 137040, Note_off_c, 1, 50, 0
2, 137040, Note_off_c, 1, 70, 0
2, 137080, Note_on_c, 1, 52, 127
2, 137080, Note_on_c, 1, 60, 127
2, 137200, Note_off_c, 1, 60, 0
2, 137240, Note_on_c, 1, 70, 127
2, 137360, Note_off_c, 1, 52, 0
2, 137360, Note_off_c, 1, 70, 0
2, 137400, Note_on_c, 1, 50, 127
2, 137400, Note_on_c, 1, 62, 127
2, 137520, Note_off_c, 1, 62, 0
2, 137560, Note_on_c, 1, 70, 127
2, 137680, Note_off_c, 1, 50, 0
2, 137680, Note_off_c, 1, 70, 0
2, 137720, Note_on_c, 1, 48, 127
2, 137720, Note_on_c, 1, 64, 127
2, 137840, Note_off_c, 1, 64, 0
2, 137880, Note_on_c, 1, 70, 127
2, 138000, Note_off_c, 1, 48, 0
2, 138000, Note_off_c, 1, 55, 0
2, 138000, Note_off_c, 1, 70, 0
2, 138040, Note_on_c, 1, 53, 127
2, 138040, Note_on_c, 1, 68, 127
2, 138160, Note_off_c, 1, 68, 0
2, 138200, Note_on_c, 1, 72, 127
2, 138320, Note_off_c, 1, 72, 0
2, 138360, Note_on_c, 1, 56, 127
2, 138360, Note_on_c, 1, 65, 127
2, 138480, Note_off_c, 1, 65, 0
2, 138520, Note_on_c, 1, 72, 127
2, 138640, Note_off_c, 1, 53, 0
2, 138640, Note_off_c, 1, 56, 0
2, 138640, Note_off_c, 1, 72, 0
2, 138720, Note_on_c, 1, 55, 127
2, 138720, Note_on_c, 1, 64, 127
2, 138840, Note_off_c, 1, 64, 0
2, 138880, Note_on_c, 1, 70, 127
2, 139000, Note_off_c, 1, 55, 0
2, 139000, Note_off_c, 1, 70, 0
2, 139040, Note_on_c, 1, 41, 127
2, 139040, Note_on_c, 1, 53, 127
2, 139040, Note_on_c, 1, 68, 127
2, 139160, Note_off_c, 1, 68, 0
2, 139200, Note_on_c, 1, 72, 127
2, 139320, Note_off_c, 1, 41, 0
2, 139320, Note_off_c, 1, 53, 0
2, 139320, Note_off_c, 1, 72, 0
2, 139360, Note_on_c, 1, 56, 127
2, 139360, Note_on_c, 1, 65, 127
2, 139480, Note_off_c, 1, 65, 0
2, 139520, Note_on_c, 1, 72, 127
2, 139640, Note_off_c, 1, 56, 0
2, 139640, Note_off_c, 1, 72, 0
2, 139680, Note_on_c, 1, 55, 127
2, 139680, Note_on_c, 1, 64, 127
2, 139800, Note_off_c, 1, 64, 0
2, 139840, Note_on_c, 1, 70, 127
2, 139960, Note_off_c, 1, 55, 0
2, 139960, Note_off_c, 1, 70, 0
2, 140000, Note_on_c, 1, 53, 127
2, 140000, Note_on_c, 1, 68, 127
2, 140120, Note_off_c, 1, 68, 0
2, 140160, Note_on_c, 1, 65, 127
2, 140280, Note_off_c, 1, 65, 0
2, 140320, Note_on_c, 1, 46, 127
2, 140320, Note_on_c, 1, 62, 127
2, 140440, Note_off_c, 1, 62, 0
2, 140480, Note_on_c, 1, 68, 127
2, 140600, Note_off_c, 1, 46, 0
2, 140600, Note_off_c, 1, 68, 0
2, 140640, Note_on_c, 1, 48, 127
2, 140640, Note_on_c, 1, 60, 127
2, 140760, Note_off_c, 1, 60, 0
2, 140800, Note_on_c, 1, 68, 127
2, 140920, Note_off_c, 1, 48, 0
2, 140920, Note_off_c, 1, 68, 0
2, 140960, Note_on_c, 1, 50, 127
2, 140960, Note_on_c, 1, 58, 127
2, 141080, Note_off_c, 1, 58, 0
2, 141120, Note_on_c, 1, 68, 127
2, 141240, Note_off_c, 1, 50, 0
2, 141240, Note_off_c, 1, 68, 0
2, 141280, Note_on_c, 1, 48, 127
2, 141280, Note_on_c, 1, 60, 127
2, 141400, Note_off_c, 1, 60, 0
2, 141440, Note_on_c, 1, 68, 127
2, 141560, Note_off_c, 1, 48, 0
2, 141560, Note_off_c, 1, 68, 0
2, 141600, Note_on_c, 1, 46, 127
2, 141600, Note_on_c, 1, 62, 127
2, 141720, Note_off_c, 1, 62, 0
2, 141760, Note_on_c, 1, 68, 127
2, 141880, Note_off_c, 1, 46, 0
2, 141880, Note_off_c, 1, 53, 0
2, 141880, Note_off_c, 1, 68, 0
2, 141960, Note_on_c, 1, 51, 127
2, 141960, Note_on_c, 1, 67, 127
2, 142040, Note_off_c, 1, 51, 0
2, 142120, Note_on_c, 1, 53, 127
2, 142240, Note_off_c, 1, 53, 0
2, 142240, Note_off_c, 1, 67, 0
2, 142280, Note_on_c, 1, 55, 127
2, 142280, Note_on_c, 1, 82, 127
2, 142400, Note_off_c, 1, 55, 0
2, 142440, Note_on_c, 1, 51, 127
2, 142560, Note_off_c, 1, 51, 0
2, 142560, Note_off_c, 1, 82, 0
2, 142600, Note_on_c, 1, 50, 127
2, 142600, Note_on_c, 1, 82, 127
2, 142720, Note_off_c, 1, 50, 0
2, 142760, Note_on_c, 1, 51, 127
2, 142880, Note_off_c, 1, 51, 0
2, 142880, Note_off_c, 1, 82, 0
2, 142920, Note_on_c, 1, 46, 127
2, 142920, Note_on_c, 1, 79, 127
2, 143040, Note_off_c, 1, 46, 0
2, 143080, Note_on_c, 1, 51, 127
2, 143200, Note_off_c, 1, 51, 0
2, 143200, Note_off_c, 1, 79, 0
2, 143240, Note_on_c, 1, 55, 127
2, 143240, Note_on_c, 1, 75, 127
2, 143240, Note_on_c, 1, 79, 127
2, 143360, Note_off_c, 1, 55, 0
2, 143400, Note_on_c, 1, 51, 127
2, 143520, Note_off_c, 1, 51, 0
2, 143520, Note_off_c, 1, 75, 0
2, 143520, Note_off_c, 1, 79, 0
2, 143560, Note_on_c, 1, 57, 127
2, 143560, Note_on_c, 1, 75, 127
2, 143560, Note_on_c, 1, 79, 127
2, 143680, Note_off_c, 1, 57, 0
2, 143720, Note_on_c, 1, 51, 127
2, 143840, Note_off_c, 1, 51, 0
2, 143840, Note_off_c, 1, 75, 0
2, 143840, Note_off_c, 1, 79, 0
2, 143880, Note_on_c, 1, 58, 127
2, 143880, Note_on_c, 1, 74, 127
2, 143880, Note_on_c, 1, 77, 127
2, 144000, Note_off_c, 1, 77, 0
2, 144040, Note_on_c, 1, 77, 127
2, 144160, Note_off_c, 1, 74, 0
2, 144160, Note_off_c, 1, 77, 0
2, 144200, Note_on_c, 1, 62, 127
2, 144200, Note_on_c, 1, 70, 127
2, 144320, Note_off_c, 1, 70, 0
2, 144360, Note_on_c, 1, 77, 127
2, 144480, Note_off_c, 1, 58, 0
2, 144480, Note_off_c, 1, 62, 0
2, 144480, Note_off_c, 1, 77, 0
2, 144520, Note_on_c, 1, 60, 127
2, 144520, Note_on_c, 1, 69, 127
2, 144640, Note_off_c, 1, 69, 0
2, 144680, Note_on_c, 1, 75, 127
2, 144800, Note_off_c, 1, 60, 0
2, 144800, Note_off_c, 1, 75, 0
2, 144840, Note_on_c, 1, 46, 127
2, 144840, Note_on_c, 1, 58, 127
2, 144840, Note_on_c, 1, 74, 127
2, 144960, Note_off_c, 1, 74, 0
2, 145000, Note_on_c, 1, 77, 127
2, 145120, Note_off_c, 1, 46, 0
2, 145120, Note_off_c, 1, 58, 0
2, 145120, Note_off_c, 1, 77, 0
2, 145200, Note_on_c, 1, 62, 127
2, 145200, Note_on_c, 1, 70, 127
2, 145280, Note_off_c, 1, 70, 0
2, 145360, Note_on_c, 1, 77, 127
2, 145480, Note_off_c, 1, 62, 0
2, 145480, Note_off_c, 1, 77, 0
2, 145520, Note_on_c, 1, 60, 127
2, 145520, Note_on_c, 1, 69, 127
2, 145640, Note_off_c, 1, 69, 0
2, 145680, Note_on_c, 1, 75, 127
2, 145800, Note_off_c, 1, 60, 0
2, 145800, Note_off_c, 1, 75, 0
2, 145840, Note_on_c, 1, 58, 127
2, 145840, Note_on_c, 1, 74, 127
2, 145960, Note_off_c, 1, 74, 0
2, 146000, Note_on_c, 1, 70, 127
2, 146120, Note_off_c, 1, 70, 0
2, 146160, Note_on_c, 1, 51, 127
2, 146160, Note_on_c, 1, 67, 127
2, 146280, Note_off_c, 1, 67, 0
2, 146320, Note_on_c, 1, 73, 127
2, 146440, Note_off_c, 1, 51, 0
2, 146440, Note_off_c, 1, 73, 0
2, 146480, Note_on_c, 1, 53, 127
2, 146480, Note_on_c, 1, 65, 127
2, 146600, Note_off_c, 1, 65, 0
2, 146640, Note_on_c, 1, 73, 127
2, 146760, Note_off_c, 1, 53, 0
2, 146760, Note_off_c, 1, 73, 0
2, 146800, Note_on_c, 1, 55, 127
2, 146800, Note_on_c, 1, 63, 127
2, 146920, Note_off_c, 1, 63, 0
2, 146960, Note_on_c, 1, 73, 127
2, 147080, Note_off_c, 1, 55, 0
2, 147080, Note_off_c, 1, 73, 0
2, 147120, Note_on_c, 1, 53, 127
2, 147120, Note_on_c, 1, 65, 127
2, 147240, Note_off_c, 1, 65, 0
2, 147280, Note_on_c, 1, 73, 127
2, 147400, Note_off_c, 1, 53, 0
2, 147400, Note_off_c, 1, 73, 0
2, 147440, Note_on_c, 1, 51, 127
2, 147440, Note_on_c, 1, 67, 127
2, 147560, Note_off_c, 1, 67, 0
2, 147600, Note_on_c, 1, 73, 127
2, 147720, Note_off_c, 1, 51, 0
2, 147720, Note_off_c, 1, 58, 0
2, 147720, Note_off_c, 1, 73, 0
2, 147760, Note_on_c, 1, 56, 127
2, 147760, Note_on_c, 1, 72, 127
2, 147880, Note_off_c, 1, 72, 0
2, 147920, Note_on_c, 1, 75, 127
2, 148040, Note_off_c, 1, 75, 0
2, 148080, Note_on_c, 1, 60, 127
2, 148080, Note_on_c, 1, 68, 127
2, 148200, Note_off_c, 1, 68, 0
2, 148240, Note_on_c, 1, 75, 127
2, 148360, Note_off_c, 1, 56, 0
2, 148360, Note_off_c, 1, 60, 0
2, 148360, Note_off_c, 1, 75, 0
2, 148440, Note_on_c, 1, 58, 127
2, 148440, Note_on_c, 1, 67, 127
2, 148520, Note_off_c, 1, 67, 0
2, 148600, Note_on_c, 1, 73, 127
2, 148720, Note_off_c, 1, 58, 0
2, 148720, Note_off_c, 1, 73, 0
2, 148760, Note_on_c, 1, 44, 127
2, 148760, Note_on_c, 1, 56, 127
2, 148760, Note_on_c, 1, 72, 127
2, 148880, Note_off_c, 1, 72, 0
2, 148920, Note_on_c, 1, 75, 127
2, 149040, Note_off_c, 1, 44, 0
2, 149040, Note_off_c, 1, 56, 0
2, 149040, Note_off_c, 1, 75, 0
2, 149080, Note_on_c, 1, 60, 127
2, 149080, Note_on_c, 1, 68, 127
2, 149200, Note_off_c, 1, 68, 0
2, 149240, Note_on_c, 1, 75, 127
2, 149360, Note_off_c, 1, 60, 0
2, 149360, Note_off_c, 1, 75, 0
2, 149400, Note_on_c, 1, 58, 127
2, 149400, Note_on_c, 1, 67, 127
2, 149520, Note_off_c, 1, 67, 0
2, 149560, Note_on_c, 1, 73, 127
2, 149680, Note_off_c, 1, 58, 0
2, 149680, Note_off_c, 1, 73, 0
2, 149720, Note_on_c, 1, 56, 127
2, 149720, Note_on_c, 1, 72, 127
2, 149840, Note_off_c, 1, 72, 0
2, 149880, Note_on_c, 1, 68, 127
2, 150000, Note_off_c, 1, 68, 0
2, 150040, Note_on_c, 1, 50, 127
2, 150040, Note_on_c, 1, 65, 127
2, 150160, Note_off_c, 1, 65, 0
2, 150200, Note_on_c, 1, 72, 127
2, 150320, Note_off_c, 1, 50, 0
2, 150320, Note_off_c, 1, 72, 0
2, 150360, Note_on_c, 1, 51, 127
2, 150360, Note_on_c, 1, 63, 127
2, 150480, Note_off_c, 1, 63, 0
2, 150520, Note_on_c, 1, 72, 127
2, 150640, Note_off_c, 1, 51, 0
2, 150640, Note_off_c, 1, 72, 0
2, 150680, Note_on_c, 1, 53, 127
2, 150680, Note_on_c, 1, 62, 127
2, 150800, Note_off_c, 1, 62, 0
2, 150840, Note_on_c, 1, 72, 127
2, 150960, Note_off_c, 1, 53, 0
2, 150960, Note_off_c, 1, 72, 0
2, 151000, Note_on_c, 1, 51, 127
2, 151000, Note_on_c, 1, 63, 127
2, 151120, Note_off_c, 1, 63, 0
2, 151160, Note_on_c, 1, 72, 127
2, 151280, Note_off_c, 1, 51, 0
2, 151280, Note_off_c, 1, 72, 0
2, 151320, Note_on_c, 1, 50, 127
2, 151320, Note_on_c, 1, 65, 127
2, 151440, Note_off_c, 1, 65, 0
2, 151480, Note_on_c, 1, 72, 127
2, 151600, Note_off_c, 1, 50, 0
2, 151600, Note_off_c, 1, 56, 0
2, 151600, Note_off_c, 1, 72, 0
2, 151680, Note_on_c, 1, 55, 127
2, 151680, Note_on_c, 1, 71, 127
2, 151840, Note_on_c, 1, 53, 127
2, 151960, Note_off_c, 1, 53, 0
2, 151960, Note_off_c, 1, 55, 0
2, 151960, Note_off_c, 1, 71, 0
2, 152000, Note_on_c, 1, 51, 127
2, 152000, Note_on_c, 1, 67, 127
2, 152000, Note_on_c, 1, 72, 127
2, 152120, Note_off_c, 1, 51, 0
2, 152160, Note_on_c, 1, 53, 127
2, 152280, Note_off_c, 1, 53, 0
2, 152280, Note_off_c, 1, 67, 0
2, 152280, Note_off_c, 1, 72, 0
2, 152320, Note_on_c, 1, 50, 127
2, 152320, Note_on_c, 1, 65, 127
2, 152320, Note_on_c, 1, 70, 127
2, 152440, Note_off_c, 1, 50, 0
2, 152480, Note_on_c, 1, 51, 127
2, 152600, Note_off_c, 1, 51, 0
2, 152600, Note_off_c, 1, 65, 0
2, 152600, Note_off_c, 1, 70, 0
2, 152640, Note_on_c, 1, 48, 127
2, 152640, Note_on_c, 1, 63, 127
2, 152640, Note_on_c, 1, 68, 127
2, 152760, Note_off_c, 1, 48, 0
2, 152800, Note_on_c, 1, 51, 127
2, 152920, Note_off_c, 1, 51, 0
2, 152920, Note_off_c, 1, 63, 0
2, 152920, Note_off_c, 1, 68, 0
2, 152960, Note_on_c, 1, 46, 127
2, 152960, Note_on_c, 1, 62, 127
2, 152960, Note_on_c, 1, 67, 127
2, 153080, Note_off_c, 1, 46, 0
2, 153120, Note_on_c, 1, 51, 127
2, 153240, Note_off_c, 1, 51, 0
2, 153240, Note_off_c, 1, 62, 0
2, 153240, Note_off_c, 1, 67, 0
2, 153280, Note_on_c, 1, 44, 127
2, 153280, Note_on_c, 1, 60, 127
2, 153280, Note_on_c, 1, 65, 127
2, 153400, Note_off_c, 1, 44, 0
2, 153440, Note_on_c, 1, 51, 127
2, 153560, Note_off_c, 1, 51, 0
2, 153560, Note_off_c, 1, 60, 0
2, 153560, Note_off_c, 1, 65, 0
2, 153600, Note_on_c, 1, 43, 127
2, 153600, Note_on_c, 1, 58, 127
2, 153600, Note_on_c, 1, 63, 127
2, 153600, Note_on_c, 1, 70, 127
2, 153720, Note_off_c, 1, 43, 0
2, 153760, Note_on_c, 1, 51, 127
2, 153880, Note_off_c, 1, 51, 0
2, 153880, Note_off_c, 1, 58, 0
2, 153880, Note_off_c, 1, 63, 0
2, 153880, Note_off_c, 1, 70, 0
2, 153920, Note_on_c, 1, 41, 127
2, 153920, Note_on_c, 1, 62, 127
2, 153920, Note_on_c, 1, 68, 127
2, 154040, Note_off_c, 1, 41, 0
2, 154080, Note_on_c, 1, 51, 127
2, 154200, Note_off_c, 1, 51, 0
2, 154200, Note_off_c, 1, 62, 0
2, 154200, Note_off_c, 1, 68, 0
2, 154240, Note_on_c, 1, 39, 127
2, 154240, Note_on_c, 1, 63, 127
2, 154240, Note_on_c, 1, 67, 127
2, 154360, Note_off_c, 1, 39, 0
2, 154400, Note_on_c, 1, 51, 127
2, 154520, Note_off_c, 1, 51, 0
2, 154560, Note_on_c, 1, 44, 127
2, 154680, Note_off_c, 1, 67, 0
2, 154720, Note_on_c, 1, 72, 127
2, 154840, Note_off_c, 1, 44, 0
2, 154840, Note_off_c, 1, 63, 0
2, 154840, Note_off_c, 1, 72, 0
2, 154920, Note_on_c, 1, 46, 127
2, 154920, Note_on_c, 1, 62, 127
2, 154920, Note_on_c, 1, 67, 127
2, 154960, Note_off_c, 1, 67, 0
2, 155000, Note_on_c, 1, 65, 127
2, 155040, Note_off_c, 1, 65, 0
2, 155080, Note_on_c, 1, 67, 127
2, 155120, Note_off_c, 1, 67, 0
2, 155160, Note_on_c, 1, 65, 127
2, 155200, Note_off_c, 1, 46, 0
2, 155200, Note_off_c, 1, 65, 0
2, 155240, Note_on_c, 1, 46, 127
2, 155240, Note_on_c, 1, 67, 127
2, 155280, Note_off_c, 1, 67, 0
2, 155320, Note_on_c, 1, 65, 127
2, 155360, Note_off_c, 1, 65, 0
2, 155400, Note_on_c, 1, 63, 127
2, 155520, Note_off_c, 1, 46, 0
2, 155520, Note_off_c, 1, 62, 0
2, 155520, Note_off_c, 1, 63, 0
2, 155560, Note_on_c, 1, 39, 127
2, 155560, Note_on_c, 1, 63, 127
2, 155840, Note_off_c, 1, 63, 0
2, 155880, Note_on_c, 1, 70, 127
2, 156000, Note_off_c, 1, 39, 0
2, 156040, Note_on_c, 1, 68, 127
2, 156160, Note_off_c, 1, 68, 0
2, 156160, Note_off_c, 1, 70, 0
2, 156200, Note_on_c, 1, 67, 127
2, 156200, Note_on_c, 1, 70, 127
2, 156320, Note_off_c, 1, 67, 0
2, 156360, Note_on_c, 1, 65, 127
2, 156480, Note_off_c, 1, 65, 0
2, 156480, Note_off_c, 1, 70, 0
2, 156520, Note_on_c, 1, 64, 127
2, 156520, Note_on_c, 1, 72, 127
2, 156640, Note_off_c, 1, 64, 0
2, 156640, Note_off_c, 1, 72, 0
2, 156680, Note_on_c, 1, 65, 127
2, 156680, Note_on_c, 1, 70, 127
2, 156720, Note_on_c, 1, 69, 127
2, 156720, Note_off_c, 1, 70, 0
2, 156760, Note_off_c, 1, 69, 0
2, 156800, Note_off_c, 1, 65, 0
2, 156800, Note_on_c, 1, 70, 127
2, 156840, Note_on_c, 1, 67, 127
2, 156840, Note_off_c, 1, 70, 0
2, 156880, Note_on_c, 1, 72, 127
2, 156920, Note_on_c, 1, 70, 127
2, 156920, Note_off_c, 1, 72, 0
2, 156960, Note_off_c, 1, 67, 0
2, 156960, Note_off_c, 1, 70, 0
2, 157000, Note_on_c, 1, 64, 127
2, 157000, Note_on_c, 1, 72, 127
2, 157040, Note_off_c, 1, 72, 0
2, 157080, Note_on_c, 1, 70, 127
2, 157120, Note_off_c, 1, 64, 0
2, 157120, Note_off_c, 1, 70, 0
2, 157160, Note_on_c, 1, 61, 127
2, 157160, Note_on_c, 1, 72, 127
2, 157200, Note_on_c, 1, 70, 127
2, 157200, Note_off_c, 1, 72, 0
2, 157240, Note_off_c, 1, 70, 0
2, 157280, Note_off_c, 1, 61, 0
2, 157280, Note_on_c, 1, 72, 127
2, 157320, Note_on_c, 1, 64, 127
2, 157320, Note_off_c, 1, 72, 0
2, 157360, Note_on_c, 1, 70, 127
2, 157400, Note_off_c, 1, 70, 0
2, 157400, Note_on_c, 1, 72, 127
2, 157440, Note_off_c, 1, 64, 0
2, 157440, Note_off_c, 1, 72, 0
2, 157480, Note_on_c, 1, 58, 127
2, 157480, Note_on_c, 1, 70, 127
2, 157520, Note_off_c, 1, 70, 0
2, 157560, Note_on_c, 1, 72, 127
2, 157600, Note_off_c, 1, 58, 0
2, 157600, Note_off_c, 1, 72, 0
2, 157640, Note_on_c, 1, 60, 127
2, 157640, Note_on_c, 1, 70, 127
2, 157680, Note_off_c, 1, 70, 0
2, 157680, Note_on_c, 1, 72, 127
2, 157720, Note_off_c, 1, 72, 0
2, 157760, Note_off_c, 1, 60, 0
2, 157760, Note_on_c, 1, 70, 127
2, 157800, Note_on_c, 1, 61, 127
2, 157800, Note_off_c, 1, 70, 0
2, 157840, Note_on_c, 1, 72, 127
2, 157880, Note_on_c, 1, 70, 127
2, 157880, Note_off_c, 1, 72, 0
2, 157920, Note_off_c, 1, 61, 0
2, 157920, Note_off_c, 1, 70, 0
2, 157960, Note_on_c, 1, 58, 127
2, 157960, Note_on_c, 1, 72, 127
2, 158000, Note_off_c, 1, 72, 0
2, 158040, Note_on_c, 1, 70, 127
2, 158080, Note_off_c, 1, 58, 0
2, 158080, Note_off_c, 1, 70, 0
2, 158120, Note_on_c, 1, 72, 127
2, 158160, Note_on_c, 1, 55, 127
2, 158160, Note_on_c, 1, 70, 127
2, 158160, Note_off_c, 1, 72, 0
2, 158200, Note_off_c, 1, 70, 0
2, 158240, Note_off_c, 1, 55, 0
2, 158240, Note_on_c, 1, 72, 127
2, 158280, Note_off_c, 1, 72, 0
2, 158320, Note_on_c, 1, 58, 127
2, 158320, Note_on_c, 1, 70, 127
2, 158440, Note_off_c, 1, 58, 0
2, 158480, Note_on_c, 1, 52, 127
2, 158600, Note_off_c, 1, 52, 0
2, 158600, Note_off_c, 1, 70, 0
2, 158640, Note_on_c, 1, 53, 127
2, 158640, Note_on_c, 1, 68, 127
2, 158760, Note_off_c, 1, 53, 0
2, 158760, Note_off_c, 1, 68, 0
2, 158800, Note_on_c, 1, 55, 127
2, 158800, Note_on_c, 1, 70, 127
2, 158920, Note_off_c, 1, 55, 0
2, 158920, Note_off_c, 1, 70, 0
2, 158960, Note_on_c, 1, 52, 127
2, 158960, Note_on_c, 1, 73, 127
2, 159080, Note_off_c, 1, 52, 0
2, 159080, Note_off_c, 1, 73, 0
2, 159120, Note_on_c, 1, 48, 127
2, 159120, Note_on_c, 1, 72, 127
2, 159240, Note_off_c, 1, 48, 0
2, 159240, Note_off_c, 1, 72, 0
2, 159280, Note_on_c, 1, 52, 127
2, 159280, Note_on_c, 1, 70, 127
2, 159400, Note_off_c, 1, 52, 0
2, 159400, Note_off_c, 1, 70, 0
2, 159440, Note_on_c, 1, 41, 127
2, 159440, Note_on_c, 1, 68, 127
2, 159560, Note_off_c, 1, 68, 0
2, 159600, Note_on_c, 1, 70, 127
2, 159720, Note_off_c, 1, 70, 0
2, 159760, Note_on_c, 1, 68, 127
2, 159880, Note_off_c, 1, 41, 0
2, 159920, Note_on_c, 1, 67, 127
2, 160040, Note_off_c, 1, 67, 0
2, 160040, Note_off_c, 1, 68, 0
2, 160080, Note_on_c, 1, 65, 127
2, 160080, Note_on_c, 1, 68, 127
2, 160200, Note_off_c, 1, 65, 0
2, 160240, Note_on_c, 1, 63, 127
2, 160360, Note_off_c, 1, 63, 0
2, 160360, Note_off_c, 1, 68, 0
2, 160400, Note_on_c, 1, 62, 127
2, 160400, Note_on_c, 1, 70, 127
2, 160520, Note_off_c, 1, 62, 0
2, 160560, Note_on_c, 1, 63, 127
2, 160560, Note_off_c, 1, 70, 0
2, 160640, Note_on_c, 1, 68, 127
2, 160680, Note_off_c, 1, 63, 0
2, 160680, Note_on_c, 1, 67, 127
2, 160680, Note_off_c, 1, 68, 0
2, 160720, Note_on_c, 1, 65, 127
2, 160720, Note_off_c, 1, 67, 0
2, 160760, Note_on_c, 1, 68, 127
2, 160800, Note_off_c, 1, 68, 0
2, 160840, Note_off_c, 1, 65, 0
2, 160840, Note_on_c, 1, 70, 127
2, 160880, Note_on_c, 1, 62, 127
2, 160880, Note_on_c, 1, 68, 127
2, 160880, Note_off_c, 1, 70, 0
2, 160920, Note_off_c, 1, 68, 0
2, 160960, Note_on_c, 1, 70, 127
2, 161000, Note_off_c, 1, 62, 0
2, 161000, Note_off_c, 1, 70, 0
2, 161040, Note_on_c, 1, 58, 127
2, 161040, Note_on_c, 1, 68, 127
2, 161080, Note_off_c, 1, 68, 0
2, 161080, Note_on_c, 1, 70, 127
2, 161120, Note_off_c, 1, 70, 0
2, 161160, Note_off_c, 1, 58, 0
2, 161160, Note_on_c, 1, 68, 127
2, 161200, Note_on_c, 1, 62, 127
2, 161200, Note_off_c, 1, 68, 0
2, 161240, Note_on_c, 1, 70, 127
2, 161280, Note_off_c, 1, 70, 0
2, 161320, Note_off_c, 1, 62, 0
2, 161320, Note_on_c, 1, 68, 127
2, 161360, Note_off_c, 1, 68, 0
2, 161360, Note_on_c, 1, 70, 127
2, 161400, Note_on_c, 1, 56, 127
2, 161400, Note_off_c, 1, 70, 0
2, 161440, Note_on_c, 1, 68, 127
2, 161480, Note_off_c, 1, 56, 0
2, 161480, Note_off_c, 1, 68, 0
2, 161520, Note_on_c, 1, 70, 127
2, 161560, Note_on_c, 1, 58, 127
2, 161560, Note_on_c, 1, 68, 127
2, 161560, Note_off_c, 1, 70, 0
2, 161600, Note_off_c, 1, 68, 0
2, 161640, Note_on_c, 1, 70, 127
2, 161680, Note_off_c, 1, 58, 0
2, 161680, Note_off_c, 1, 70, 0
2, 161720, Note_on_c, 1, 60, 127
2, 161720, Note_on_c, 1, 68, 127
2, 161760, Note_off_c, 1, 68, 0
2, 161760, Note_on_c, 1, 70, 127
2, 161800, Note_off_c, 1, 70, 0
2, 161840, Note_off_c, 1, 60, 0
2, 161840, Note_on_c, 1, 68, 127
2, 161880, Note_on_c, 1, 56, 127
2, 161880, Note_off_c, 1, 68, 0
2, 161920, Note_on_c, 1, 70, 127
2, 161960, Note_on_c, 1, 68, 127
2, 161960, Note_off_c, 1, 70, 0
2, 162000, Note_off_c, 1, 56, 0
2, 162000, Note_off_c, 1, 68, 0
2, 162040, Note_on_c, 1, 53, 127
2, 162040, Note_on_c, 1, 70, 127
2, 162080, Note_off_c, 1, 70, 0
2, 162120, Note_on_c, 1, 68, 127
2, 162160, Note_off_c, 1, 53, 0
2, 162200, Note_on_c, 1, 56, 127
2, 162320, Note_off_c, 1, 56, 0
2, 162360, Note_on_c, 1, 50, 127
2, 162480, Note_off_c, 1, 50, 0
2, 162480, Note_off_c, 1, 68, 0
2, 162520, Note_on_c, 1, 51, 127
2, 162520, Note_on_c, 1, 67, 127
2, 162640, Note_off_c, 1, 51, 0
2, 162640, Note_off_c, 1, 67, 0
2, 162680, Note_on_c, 1, 53, 127
2, 162680, Note_on_c, 1, 68, 127
2, 162800, Note_off_c, 1, 53, 0
2, 162800, Note_off_c, 1, 68, 0
2, 162840, Note_on_c, 1, 50, 127
2, 162840, Note_on_c, 1, 72, 127
2, 162960, Note_off_c, 1, 50, 0
2, 162960, Note_off_c, 1, 72, 0
2, 163000, Note_on_c, 1, 46, 127
2, 163000, Note_on_c, 1, 70, 127
2, 163120, Note_off_c, 1, 46, 0
2, 163120, Note_off_c, 1, 70, 0
2, 163160, Note_on_c, 1, 50, 127
2, 163160, Note_on_c, 1, 68, 127
2, 163280, Note_off_c, 1, 50, 0
2, 163280, Note_off_c, 1, 68, 0
2, 163320, Note_on_c, 1, 39, 127
2, 163320, Note_on_c, 1, 67, 127
2, 163440, Note_off_c, 1, 67, 0
2, 163520, Note_on_c, 1, 69, 127
2, 163560, Note_off_c, 1, 69, 0
2, 163600, Note_on_c, 1, 71, 127
2, 163640, Note_off_c, 1, 71, 0
2, 163680, Note_on_c, 1, 72, 127
2, 163760, Note_off_c, 1, 39, 0
2, 163840, Note_on_c, 1, 70, 127
2, 163960, Note_off_c, 1, 70, 0
2, 163960, Note_off_c, 1, 72, 0
2, 164000, Note_on_c, 1, 69, 127
2, 164000, Note_on_c, 1, 72, 127
2, 164120, Note_off_c, 1, 69, 0
2, 164160, Note_on_c, 1, 67, 127
2, 164280, Note_off_c, 1, 67, 0
2, 164280, Note_off_c, 1, 72, 0
2, 164320, Note_on_c, 1, 66, 127
2, 164320, Note_on_c, 1, 74, 127
2, 164440, Note_off_c, 1, 66, 0
2, 164440, Note_on_c, 1, 72, 127
2, 164440, Note_off_c, 1, 74, 0
2, 164480, Note_on_c, 1, 67, 127
2, 164480, Note_off_c, 1, 72, 0
2, 164520, Note_on_c, 1, 71, 127
2, 164560, Note_off_c, 1, 71, 0
2, 164600, Note_off_c, 1, 67, 0
2, 164600, Note_on_c, 1, 72, 127
2, 164640, Note_on_c, 1, 69, 127
2, 164640, Note_off_c, 1, 72, 0
2, 164640, Note_on_c, 1, 74, 127
2, 164680, Note_off_c, 1, 74, 0
2, 164720, Note_on_c, 1, 72, 127
2, 164760, Note_off_c, 1, 69, 0
2, 164760, Note_off_c, 1, 72, 0
2, 164800, Note_on_c, 1, 66, 127
2, 164800, Note_on_c, 1, 74, 127
2, 164840, Note_on_c, 1, 72, 127
2, 164840, Note_off_c, 1, 74, 0
2, 164880, Note_off_c, 1, 72, 0
2, 164920, Note_off_c, 1, 66, 0
2, 164920, Note_on_c, 1, 74, 127
2, 164960, Note_on_c, 1, 63, 127
2, 164960, Note_off_c, 1, 74, 0
2, 165000, Note_on_c, 1, 72, 127
2, 165040, Note_off_c, 1, 72, 0
2, 165040, Note_on_c, 1, 74, 127
2, 165080, Note_off_c, 1, 63, 0
2, 165080, Note_off_c, 1, 74, 0
2, 165120, Note_on_c, 1, 66, 127
2, 165120, Note_on_c, 1, 72, 127
2, 165160, Note_off_c, 1, 72, 0
2, 165200, Note_on_c, 1, 74, 127
2, 165240, Note_off_c, 1, 66, 0
2, 165240, Note_on_c, 1, 72, 127
2, 165240, Note_off_c, 1, 74, 0
2, 165280, Note_on_c, 1, 60, 127
2, 165280, Note_off_c, 1, 72, 0
2, 165320, Note_on_c, 1, 74, 127
2, 165360, Note_off_c, 1, 74, 0
2, 165400, Note_off_c, 1, 60, 0
2, 165400, Note_on_c, 1, 72, 127
2, 165440, Note_on_c, 1, 62, 127
2, 165440, Note_off_c, 1, 72, 0
2, 165440, Note_on_c, 1, 74, 127
2, 165480, Note_off_c, 1, 74, 0
2, 165520, Note_on_c, 1, 72, 127
2, 165560, Note_off_c, 1, 62, 0
2, 165560, Note_off_c, 1, 72, 0
2, 165600, Note_on_c, 1, 63, 127
2, 165600, Note_on_c, 1, 74, 127
2, 165640, Note_off_c, 1, 74, 0
2, 165680, Note_on_c, 1, 72, 127
2, 165720, Note_off_c, 1, 63, 0
2, 165720, Note_off_c, 1, 72, 0
2, 165720, Note_on_c, 1, 74, 127
2, 165760, Note_on_c, 1, 60, 127
2, 165760, Note_off_c, 1, 74, 0
2, 165800, Note_on_c, 1, 72, 127
2, 165840, Note_off_c, 1, 72, 0
2, 165880, Note_off_c, 1, 60, 0
2, 165880, Note_on_c, 1, 74, 127
2, 165920, Note_on_c, 1, 57, 127
2, 165920, Note_on_c, 1, 72, 127
2, 165920, Note_off_c, 1, 74, 0
2, 165960, Note_off_c, 1, 72, 0
2, 166000, Note_on_c, 1, 74, 127
2, 166040, Note_off_c, 1, 57, 0
2, 166040, Note_off_c, 1, 74, 0
2, 166080, Note_on_c, 1, 60, 127
2, 166080, Note_on_c, 1, 72, 127
2, 166200, Note_off_c, 1, 60, 0
2, 166240, Note_on_c, 1, 54, 127
2, 166360, Note_off_c, 1, 54, 0
2, 166360, Note_off_c, 1, 72, 0
2, 166440, Note_on_c, 1, 55, 127
2, 166440, Note_on_c, 1, 70, 127
2, 166520, Note_off_c, 1, 55, 0
2, 166520, Note_off_c, 1, 70, 0
2, 166600, Note_on_c, 1, 57, 127
2, 166600, Note_on_c, 1, 72, 127
2, 166720, Note_off_c, 1, 57, 0
2, 166720, Note_off_c, 1, 72, 0
2, 166760, Note_on_c, 1, 54, 127
2, 166760, Note_on_c, 1, 75, 127
2, 166880, Note_off_c, 1, 54, 0
2, 166880, Note_off_c, 1, 75, 0
2, 166920, Note_on_c, 1, 50, 127
2, 166920, Note_on_c, 1, 74, 127
2, 167040, Note_off_c, 1, 50, 0
2, 167040, Note_off_c, 1, 74, 0
2, 167080, Note_on_c, 1, 54, 127
2, 167080, Note_on_c, 1, 72, 127
2, 167200, Note_off_c, 1, 54, 0
2, 167200, Note_off_c, 1, 72, 0
2, 167240, Note_on_c, 1, 43, 127
2, 167240, Note_on_c, 1, 70, 127
2, 167360, Note_off_c, 1, 70, 0
2, 167400, Note_on_c, 1, 69, 127
2, 167520, Note_off_c, 1, 43, 0
2, 167520, Note_off_c, 1, 69, 0
2, 167560, Note_on_c, 1, 46, 127
2, 167560, Note_on_c, 1, 67, 127
2, 167680, Note_off_c, 1, 67, 0
2, 167720, Note_on_c, 1, 75, 127
2, 167840, Note_off_c, 1, 46, 0
2, 167840, Note_off_c, 1, 75, 0
2, 167880, Note_on_c, 1, 51, 127
2, 167880, Note_on_c, 1, 66, 127
2, 168000, Note_off_c, 1, 66, 0
2, 168040, Note_on_c, 1, 67, 127
2, 168120, Note_off_c, 1, 51, 0
2, 168160, Note_off_c, 1, 67, 0
2, 168200, Note_on_c, 1, 41, 127
2, 168200, Note_on_c, 1, 69, 127
2, 168320, Note_off_c, 1, 69, 0
2, 168360, Note_on_c, 1, 67, 127
2, 168480, Note_off_c, 1, 41, 0
2, 168480, Note_off_c, 1, 67, 0
2, 168520, Note_on_c, 1, 45, 127
2, 168520, Note_on_c, 1, 65, 127
2, 168640, Note_off_c, 1, 65, 0
2, 168680, Note_on_c, 1, 74, 127
2, 168800, Note_off_c, 1, 45, 0
2, 168800, Note_off_c, 1, 74, 0
2, 168840, Note_on_c, 1, 50, 127
2, 168840, Note_on_c, 1, 64, 127
2, 168960, Note_off_c, 1, 64, 0
2, 169000, Note_on_c, 1, 65, 127
2, 169120, Note_off_c, 1, 50, 0
2, 169120, Note_off_c, 1, 65, 0
2, 169160, Note_on_c, 1, 39, 127
2, 169160, Note_on_c, 1, 67, 127
2, 169280, Note_off_c, 1, 67, 0
2, 169320, Note_on_c, 1, 65, 127
2, 169440, Note_off_c, 1, 39, 0
2, 169440, Note_off_c, 1, 65, 0
2, 169480, Note_on_c, 1, 43, 127
2, 169480, Note_on_c, 1, 63, 127
2, 169600, Note_off_c, 1, 63, 0
2, 169680, Note_on_c, 1, 72, 127
2, 169760, Note_off_c, 1, 43, 0
2, 169760, Note_off_c, 1, 72, 0
2, 169840, Note_on_c, 1, 48, 127
2, 169840, Note_on_c, 1, 62, 127
2, 169960, Note_off_c, 1, 62, 0
2, 170000, Note_on_c, 1, 64, 127
2, 170080, Note_off_c, 1, 48, 0
2, 170120, Note_off_c, 1, 64, 0
2, 170160, Note_on_c, 1, 38, 127
2, 170160, Note_on_c, 1, 66, 127
2, 170280, Note_off_c, 1, 66, 0
2, 170320, Note_on_c, 1, 64, 127
2, 170440, Note_off_c, 1, 64, 0
2, 170480, Note_on_c, 1, 50, 127
2, 170480, Note_on_c, 1, 62, 127
2, 170600, Note_off_c, 1, 62, 0
2, 170640, Note_on_c, 1, 72, 127
2, 170760, Note_off_c, 1, 72, 0
2, 170800, Note_on_c, 1, 64, 127
2, 170920, Note_off_c, 1, 64, 0
2, 170960, Note_on_c, 1, 66, 127
2, 171080, Note_off_c, 1, 38, 0
2, 171080, Note_off_c, 1, 66, 0
2, 171120, Note_on_c, 1, 38, 127
2, 171120, Note_on_c, 1, 67, 127
2, 171240, Note_off_c, 1, 67, 0
2, 171280, Note_on_c, 1, 66, 127
2, 171400, Note_off_c, 1, 50, 0
2, 171400, Note_off_c, 1, 66, 0
2, 171440, Note_on_c, 1, 50, 127
2, 171440, Note_on_c, 1, 64, 127
2, 171560, Note_off_c, 1, 64, 0
2, 171600, Note_on_c, 1, 70, 127
2, 171720, Note_off_c, 1, 70, 0
2, 171760, Note_on_c, 1, 61, 127
2, 171880, Note_off_c, 1, 61, 0
2, 171920, Note_on_c, 1, 62, 127
2, 172040, Note_off_c, 1, 38, 0
2, 172040, Note_off_c, 1, 62, 0
2, 172080, Note_on_c, 1, 38, 127
2, 172080, Note_on_c, 1, 64, 127
2, 172200, Note_off_c, 1, 64, 0
2, 172240, Note_on_c, 1, 62, 127
2, 172360, Note_off_c, 1, 50, 0
2, 172360, Note_off_c, 1, 62, 0
2, 172400, Note_on_c, 1, 50, 127
2, 172400, Note_on_c, 1, 61, 127
2, 172520, Note_off_c, 1, 61, 0
2, 172560, Note_on_c, 1, 69, 127
2, 172680, Note_off_c, 1, 69, 0
2, 172720, Note_on_c, 1, 64, 127
2, 172840, Note_off_c, 1, 64, 0
2, 172880, Note_on_c, 1, 66, 127
2, 173000, Note_off_c, 1, 66, 0
2, 173040, Note_off_c, 1, 38, 0
2, 173080, Note_on_c, 1, 38, 127
2, 173080, Note_on_c, 1, 67, 127
2, 173200, Note_off_c, 1, 67, 0
2, 173240, Note_on_c, 1, 66, 127
2, 173360, Note_off_c, 1, 38, 0
2, 173360, Note_off_c, 1, 50, 0
2, 173360, Note_off_c, 1, 66, 0
2, 173400, Note_on_c, 1, 50, 127
2, 173400, Note_on_c, 1, 64, 127
2, 173520, Note_off_c, 1, 64, 0
2, 173560, Note_on_c, 1, 62, 127
2, 173680, Note_off_c, 1, 50, 0
2, 173680, Note_off_c, 1, 62, 0
2, 173720, Note_on_c, 1, 50, 127
2, 173720, Note_on_c, 1, 64, 127
2, 173840, Note_off_c, 1, 64, 0
2, 173880, Note_on_c, 1, 66, 127
2, 174000, Note_off_c, 1, 50, 0
2, 174000, Note_off_c, 1, 66, 0
2, 174040, Note_on_c, 1, 46, 127
2, 174040, Note_on_c, 1, 67, 127
2, 174160, Note_off_c, 1, 46, 0
2, 174200, Note_on_c, 1, 45, 127
2, 174320, Note_off_c, 1, 45, 0
2, 174320, Note_off_c, 1, 67, 0
2, 174360, Note_on_c, 1, 43, 127
2, 174360, Note_on_c, 1, 55, 127
2, 174480, Note_off_c, 1, 43, 0
2, 174520, Note_on_c, 1, 45, 127
2, 174640, Note_off_c, 1, 45, 0
2, 174640, Note_off_c, 1, 55, 0
2, 174680, Note_on_c, 1, 46, 127
2, 174680, Note_on_c, 1, 55, 127
2, 174800, Note_off_c, 1, 46, 0
2, 174840, Note_on_c, 1, 48, 127
2, 174960, Note_off_c, 1, 48, 0
2, 174960, Note_off_c, 1, 55, 0
2, 175000, Note_on_c, 1, 50, 127
2, 175000, Note_on_c, 1, 54, 127
2, 175120, Note_off_c, 1, 50, 0
2, 175160, Note_on_c, 1, 48, 127
2, 175280, Note_off_c, 1, 48, 0
2, 175280, Note_off_c, 1, 54, 0
2, 175320, Note_on_c, 1, 50, 127
2, 175320, Note_on_c, 1, 62, 127
2, 175440, Note_off_c, 1, 50, 0
2, 175480, Note_on_c, 1, 52, 127
2, 175600, Note_off_c, 1, 52, 0
2, 175600, Note_off_c, 1, 62, 0
2, 175640, Note_on_c, 1, 54, 127
2, 175640, Note_on_c, 1, 62, 127
2, 175760, Note_off_c, 1, 54, 0
2, 175800, Note_on_c, 1, 50, 127
2, 175920, Note_off_c, 1, 50, 0
2, 175920, Note_off_c, 1, 62, 0
2, 175960, Note_on_c, 1, 55, 127
2, 175960, Note_on_c, 1, 58, 127
2, 176080, Note_off_c, 1, 55, 0
2, 176160, Note_on_c, 1, 54, 127
2, 176240, Note_off_c, 1, 54, 0
2, 176240, Note_off_c, 1, 58, 0
2, 176320, Note_on_c, 1, 55, 127
2, 176320, Note_on_c, 1, 67, 127
2, 176440, Note_off_c, 1, 55, 0
2, 176480, Note_on_c, 1, 57, 127
2, 176600, Note_off_c, 1, 57, 0
2, 176600, Note_off_c, 1, 67, 0
2, 176640, Note_on_c, 1, 58, 127
2, 176640, Note_on_c, 1, 67, 127
2, 176760, Note_off_c, 1, 58, 0
2, 176800, Note_on_c, 1, 60, 127
2, 176920, Note_off_c, 1, 60, 0
2, 176920, Note_off_c, 1, 67, 0
2, 176960, Note_on_c, 1, 62, 127
2, 176960, Note_on_c, 1, 66, 127
2, 177080, Note_off_c, 1, 62, 0
2, 177120, Note_on_c, 1, 60, 127
2, 177240, Note_off_c, 1, 60, 0
2, 177240, Note_off_c, 1, 66, 0
2, 177280, Note_on_c, 1, 62, 127
2, 177280, Note_on_c, 1, 74, 127
2, 177400, Note_off_c, 1, 62, 0
2, 177440, Note_on_c, 1, 64, 127
2, 177560, Note_off_c, 1, 64, 0
2, 177560, Note_off_c, 1, 74, 0
2, 177600, Note_on_c, 1, 66, 127
2, 177600, Note_on_c, 1, 74, 127
2, 177720, Note_off_c, 1, 66, 0
2, 177760, Note_on_c, 1, 62, 127
2, 177880, Note_off_c, 1, 62, 0
2, 177880, Note_off_c, 1, 74, 0
2, 177920, Note_on_c, 1, 67, 127
2, 177920, Note_on_c, 1, 70, 127
2, 178040, Note_off_c, 1, 70, 0
2, 178080, Note_on_c, 1, 69, 127
2, 178200, Note_off_c, 1, 67, 0
2, 178200, Note_off_c, 1, 69, 0
2, 178240, Note_on_c, 1, 55, 127
2, 178240, Note_on_c, 1, 58, 127
2, 178240, Note_on_c, 1, 62, 127
2, 178240, Note_on_c, 1, 67, 127
2, 178360, Note_off_c, 1, 67, 0
2, 178400, Note_on_c, 1, 69, 127
2, 178520, Note_off_c, 1, 55, 0
2, 178520, Note_off_c, 1, 58, 0
2, 178520, Note_off_c, 1, 62, 0
2, 178520, Note_off_c, 1, 69, 0
2, 178560, Note_on_c, 1, 55, 127
2, 178560, Note_on_c, 1, 58, 127
2, 178560, Note_on_c, 1, 62, 127
2, 178560, Note_on_c, 1, 70, 127
2, 178680, Note_off_c, 1, 70, 0
2, 178720, Note_on_c, 1, 72, 127
2, 178840, Note_off_c, 1, 55, 0
2, 178840, Note_off_c, 1, 58, 0
2, 178840, Note_off_c, 1, 62, 0
2, 178840, Note_off_c, 1, 72, 0
2, 178880, Note_on_c, 1, 54, 127
2, 178880, Note_on_c, 1, 57, 127
2, 178880, Note_on_c, 1, 62, 127
2, 178880, Note_on_c, 1, 74, 127
2, 179000, Note_off_c, 1, 74, 0
2, 179040, Note_on_c, 1, 72, 127
2, 179160, Note_off_c, 1, 54, 0
2, 179160, Note_off_c, 1, 57, 0
2, 179160, Note_off_c, 1, 62, 0
2, 179160, Note_off_c, 1, 72, 0
2, 179200, Note_on_c, 1, 50, 127
2, 179200, Note_on_c, 1, 54, 127
2, 179200, Note_on_c, 1, 57, 127
2, 179200, Note_on_c, 1, 74, 127
2, 179320, Note_off_c, 1, 74, 0
2, 179400, Note_on_c, 1, 76, 127
2, 179480, Note_off_c, 1, 50, 0
2, 179480, Note_off_c, 1, 54, 0
2, 179480, Note_off_c, 1, 57, 0
2, 179480, Note_off_c, 1, 76, 0
2, 179560, Note_on_c, 1, 50, 127
2, 179560, Note_on_c, 1, 54, 127
2, 179560, Note_on_c, 1, 57, 127
2, 179560, Note_on_c, 1, 78, 127
2, 179680, Note_off_c, 1, 78, 0
2, 179720, Note_on_c, 1, 74, 127
2, 179840, Note_off_c, 1, 50, 0
2, 179840, Note_off_c, 1, 54, 0
2, 179840, Note_off_c, 1, 57, 0
2, 179840, Note_off_c, 1, 74, 0
2, 179880, Note_on_c, 1, 46, 127
2, 179880, Note_on_c, 1, 50, 127
2, 179880, Note_on_c, 1, 55, 127
2, 179880, Note_on_c, 1, 79, 127
2, 180000, Note_off_c, 1, 79, 0
2, 180040, Note_on_c, 1, 78, 127
2, 180160, Note_off_c, 1, 46, 0
2, 180160, Note_off_c, 1, 50, 0
2, 180160, Note_off_c, 1, 55, 0
2, 180160, Note_off_c, 1, 78, 0
2, 180200, Note_on_c, 1, 43, 127
2, 180200, Note_on_c, 1, 46, 127
2, 180200, Note_on_c, 1, 50, 127
2, 180200, Note_on_c, 1, 79, 127
2, 180320, Note_off_c, 1, 79, 0
2, 180360, Note_on_c, 1, 81, 127
2, 180480, Note_off_c, 1, 43, 0
2, 180480, Note_off_c, 1, 46, 0
2, 180480, Note_off_c, 1, 50, 0
2, 180480, Note_off_c, 1, 81, 0
2, 180520, Note_on_c, 1, 43, 127
2, 180520, Note_on_c, 1, 46, 127
2, 180520, Note_on_c, 1, 50, 127
2, 180520, Note_on_c, 1, 82, 127
2, 180640, Note_off_c, 1, 82, 0
2, 180680, Note_on_c, 1, 79, 127
2, 180800, Note_off_c, 1, 43, 0
2, 180800, Note_off_c, 1, 46, 0
2, 180800, Note_off_c, 1, 50, 0
2, 180800, Note_off_c, 1, 79, 0
2, 180840, Note_on_c, 1, 38, 127
2, 180840, Note_on_c, 1, 42, 127
2, 180840, Note_on_c, 1, 45, 127
2, 180840, Note_on_c, 1, 50, 127
2, 180840, Note_on_c, 1, 81, 127
2, 180960, Note_off_c, 1, 81, 0
2, 181000, Note_on_c, 1, 79, 127
2, 181120, Note_off_c, 1, 79, 0
2, 181160, Note_on_c, 1, 78, 127
2, 181280, Note_off_c, 1, 78, 0
2, 181320, Note_on_c, 1, 76, 127
2, 181440, Note_off_c, 1, 76, 0
2, 181480, Note_on_c, 1, 74, 127
2, 181560, Note_off_c, 1, 38, 0
2, 181560, Note_off_c, 1, 42, 0
2, 181560, Note_off_c, 1, 45, 0
2, 181560, Note_off_c, 1, 50, 0
2, 181600, Note_off_c, 1, 74, 0
2, 181640, Note_on_c, 1, 72, 127
2, 181760, Note_off_c, 1, 72, 0
2, 181800, Note_on_c, 1, 70, 127
2, 181960, Note_on_c, 1, 69, 127
2, 182080, Note_off_c, 1, 69, 0
2, 182080, Note_off_c, 1, 70, 0
2, 182120, Note_on_c, 1, 67, 127
2, 182120, Note_on_c, 1, 70, 127
2, 182120, Note_on_c, 1, 74, 127
2, 182120, Note_on_c, 1, 79, 127
2, 182240, Note_off_c, 1, 67, 0
2, 182280, Note_on_c, 1, 65, 127
2, 182400, Note_off_c, 1, 65, 0
2, 182400, Note_off_c, 1, 70, 0
2, 182400, Note_off_c, 1, 74, 0
2, 182400, Note_off_c, 1, 79, 0
2, 182440, Note_on_c, 1, 63, 127
2, 182440, Note_on_c, 1, 70, 127
2, 182440, Note_on_c, 1, 74, 127
2, 182440, Note_on_c, 1, 79, 127
2, 182560, Note_off_c, 1, 63, 0
2, 182640, Note_on_c, 1, 62, 127
2, 182720, Note_off_c, 1, 62, 0
2, 182720, Note_off_c, 1, 70, 0
2, 182720, Note_off_c, 1, 74, 0
2, 182720, Note_off_c, 1, 79, 0
2, 182800, Note_on_c, 1, 60, 127
2, 182800, Note_on_c, 1, 72, 127
2, 182800, Note_on_c, 1, 75, 127
2, 182920, Note_off_c, 1, 60, 0
2, 182920, Note_off_c, 1, 75, 0
2, 182960, Note_on_c, 1, 62, 127
2, 182960, Note_on_c, 1, 77, 127
2, 183080, Note_off_c, 1, 62, 0
2, 183080, Note_off_c, 1, 77, 0
2, 183120, Note_on_c, 1, 60, 127
2, 183120, Note_on_c, 1, 75, 127
2, 183200, Note_off_c, 1, 72, 0
2, 183240, Note_off_c, 1, 60, 0
2, 183240, Note_off_c, 1, 75, 0
2, 183280, Note_on_c, 1, 58, 127
2, 183280, Note_on_c, 1, 74, 127
2, 183400, Note_off_c, 1, 58, 0
2, 183400, Note_off_c, 1, 74, 0
2, 183440, Note_on_c, 1, 57, 127
2, 183440, Note_on_c, 1, 72, 127
2, 183560, Note_off_c, 1, 57, 0
2, 183560, Note_off_c, 1, 72, 0
2, 183600, Note_on_c, 1, 55, 127
2, 183600, Note_on_c, 1, 70, 127
2, 183720, Note_off_c, 1, 55, 0
2, 183720, Note_off_c, 1, 70, 0
2, 183760, Note_on_c, 1, 53, 127
2, 183760, Note_on_c, 1, 69, 127
2, 183880, Note_off_c, 1, 53, 0
2, 183920, Note_on_c, 1, 67, 127
2, 184040, Note_off_c, 1, 67, 0
2, 184040, Note_off_c, 1, 69, 0
2, 184080, Note_on_c, 1, 65, 127
2, 184080, Note_on_c, 1, 69, 127
2, 184080, Note_on_c, 1, 72, 127
2, 184080, Note_on_c, 1, 77, 127
2, 184200, Note_off_c, 1, 65, 0
2, 184240, Note_on_c, 1, 63, 127
2, 184360, Note_off_c, 1, 63, 0
2, 184360, Note_off_c, 1, 69, 0
2, 184360, Note_off_c, 1, 72, 0
2, 184360, Note_off_c, 1, 77, 0
2, 184400, Note_on_c, 1, 62, 127
2, 184400, Note_on_c, 1, 69, 127
2, 184400, Note_on_c, 1, 72, 127
2, 184400, Note_on_c, 1, 77, 127
2, 184520, Note_off_c, 1, 62, 0
2, 184560, Note_on_c, 1, 60, 127
2, 184680, Note_off_c, 1, 60, 0
2, 184680, Note_off_c, 1, 69, 0
2, 184680, Note_off_c, 1, 72, 0
2, 184680, Note_off_c, 1, 77, 0
2, 184720, Note_on_c, 1, 58, 127
2, 184720, Note_on_c, 1, 70, 127
2, 184720, Note_on_c, 1, 74, 127
2, 184840, Note_off_c, 1, 58, 0
2, 184840, Note_off_c, 1, 74, 0
2, 184880, Note_on_c, 1, 60, 127
2, 184880, Note_on_c, 1, 75, 127
2, 185000, Note_off_c, 1, 60, 0
2, 185000, Note_off_c, 1, 75, 0
2, 185040, Note_on_c, 1, 58, 127
2, 185040, Note_on_c, 1, 74, 127
2, 185160, Note_off_c, 1, 58, 0
2, 185160, Note_off_c, 1, 70, 0
2, 185160, Note_off_c, 1, 74, 0
2, 185200, Note_on_c, 1, 57, 127
2, 185200, Note_on_c, 1, 72, 127
2, 185320, Note_off_c, 1, 57, 0
2, 185320, Note_off_c, 1, 72, 0
2, 185360, Note_on_c, 1, 55, 127
2, 185360, Note_on_c, 1, 70, 127
2, 185480, Note_off_c, 1, 55, 0
2, 185480, Note_off_c, 1, 70, 0
2, 185520, Note_on_c, 1, 53, 127
2, 185520, Note_on_c, 1, 69, 127
2, 185640, Note_off_c, 1, 53, 0
2, 185640, Note_off_c, 1, 69, 0
2, 185680, Note_on_c, 1, 51, 127
2, 185680, Note_on_c, 1, 67, 127
2, 185800, Note_off_c, 1, 51, 0
2, 185880, Note_on_c, 1, 65, 127
2, 185960, Note_off_c, 1, 65, 0
2, 185960, Note_off_c, 1, 67, 0
2, 186040, Note_on_c, 1, 63, 127
2, 186040, Note_on_c, 1, 67, 127
2, 186040, Note_on_c, 1, 70, 127
2, 186040, Note_on_c, 1, 75, 127
2, 186160, Note_off_c, 1, 63, 0
2, 186200, Note_on_c, 1, 62, 127
2, 186320, Note_off_c, 1, 62, 0
2, 186320, Note_off_c, 1, 67, 0
2, 186320, Note_off_c, 1, 70, 0
2, 186320, Note_off_c, 1, 75, 0
2, 186360, Note_on_c, 1, 60, 127
2, 186360, Note_on_c, 1, 67, 127
2, 186360, Note_on_c, 1, 70, 127
2, 186360, Note_on_c, 1, 75, 127
2, 186480, Note_off_c, 1, 60, 0
2, 186520, Note_on_c, 1, 58, 127
2, 186640, Note_off_c, 1, 58, 0
2, 186640, Note_off_c, 1, 67, 0
2, 186640, Note_off_c, 1, 70, 0
2, 186640, Note_off_c, 1, 75, 0
2, 186680, Note_on_c, 1, 57, 127
2, 186680, Note_on_c, 1, 67, 127
2, 186680, Note_on_c, 1, 72, 127
2, 186800, Note_off_c, 1, 57, 0
2, 186800, Note_off_c, 1, 72, 0
2, 186840, Note_on_c, 1, 58, 127
2, 186840, Note_on_c, 1, 74, 127
2, 186960, Note_off_c, 1, 58, 0
2, 186960, Note_off_c, 1, 74, 0
2, 187000, Note_on_c, 1, 57, 127
2, 187000, Note_on_c, 1, 72, 127
2, 187120, Note_off_c, 1, 57, 0
2, 187120, Note_off_c, 1, 67, 0
2, 187120, Note_off_c, 1, 72, 0
2, 187160, Note_on_c, 1, 55, 127
2, 187160, Note_on_c, 1, 70, 127
2, 187280, Note_off_c, 1, 55, 0
2, 187280, Note_off_c, 1, 70, 0
2, 187320, Note_on_c, 1, 54, 127
2, 187320, Note_on_c, 1, 69, 127
2, 187440, Note_off_c, 1, 54, 0
2, 187440, Note_off_c, 1, 69, 0
2, 187480, Note_on_c, 1, 52, 127
2, 187480, Note_on_c, 1, 67, 127
2, 187600, Note_off_c, 1, 52, 0
2, 187600, Note_off_c, 1, 67, 0
2, 187640, Note_on_c, 1, 50, 127
2, 187640, Note_on_c, 1, 66, 127
2, 187760, Note_off_c, 1, 50, 0
2, 187800, Note_on_c, 1, 51, 127
2, 187920, Note_off_c, 1, 51, 0
2, 187920, Note_off_c, 1, 66, 0
2, 187960, Note_on_c, 1, 50, 127
2, 187960, Note_on_c, 1, 66, 127
2, 187960, Note_on_c, 1, 69, 127
2, 187960, Note_on_c, 1, 74, 127
2, 188080, Note_off_c, 1, 50, 0
2, 188120, Note_on_c, 1, 48, 127
2, 188240, Note_off_c, 1, 48, 0
2, 188240, Note_off_c, 1, 66, 0
2, 188240, Note_off_c, 1, 69, 0
2, 188240, Note_off_c, 1, 74, 0
2, 188280, Note_on_c, 1, 46, 127
2, 188280, Note_on_c, 1, 66, 127
2, 188280, Note_on_c, 1, 69, 127
2, 188280, Note_on_c, 1, 74, 127
2, 188400, Note_off_c, 1, 46, 0
2, 188440, Note_on_c, 1, 45, 127
2, 188560, Note_off_c, 1, 45, 0
2, 188560, Note_off_c, 1, 66, 0
2, 188560, Note_off_c, 1, 69, 0
2, 188560, Note_off_c, 1, 74, 0
2, 188600, Note_on_c, 1, 43, 127
2, 188600, Note_on_c, 1, 62, 127
2, 188600, Note_on_c, 1, 67, 127
2, 188600, Note_on_c, 1, 70, 127
2, 188720, Note_off_c, 1, 43, 0
2, 188760, Note_on_c, 1, 45, 127
2, 188880, Note_off_c, 1, 45, 0
2, 188880, Note_off_c, 1, 62, 0
2, 188880, Note_off_c, 1, 67, 0
2, 188880, Note_off_c, 1, 70, 0
2, 188920, Note_on_c, 1, 43, 127
2, 188920, Note_on_c, 1, 62, 127
2, 188920, Note_on_c, 1, 67, 127
2, 188920, Note_on_c, 1, 70, 127
2, 189040, Note_off_c, 1, 43, 0
2, 189080, Note_on_c, 1, 41, 127
2, 189200, Note_off_c, 1, 41, 0
2, 189200, Note_off_c, 1, 62, 0
2, 189200, Note_off_c, 1, 67, 0
2, 189200, Note_off_c, 1, 70, 0
2, 189280, Note_on_c, 1, 39, 127
2, 189280, Note_on_c, 1, 62, 127
2, 189280, Note_on_c, 1, 67, 127
2, 189280, Note_on_c, 1, 70, 127
2, 189400, Note_off_c, 1, 39, 0
2, 189440, Note_on_c, 1, 38, 127
2, 189560, Note_off_c, 1, 38, 0
2, 189560, Note_off_c, 1, 62, 0
2, 189560, Note_off_c, 1, 67, 0
2, 189560, Note_off_c, 1, 70, 0
2, 189600, Note_on_c, 1, 36, 127
2, 189600, Note_on_c, 1, 63, 127
2, 189600, Note_on_c, 1, 70, 127
2, 189720, Note_off_c, 1, 63, 0
2, 189760, Note_on_c, 1, 62, 127
2, 189880, Note_off_c, 1, 36, 0
2, 189880, Note_off_c, 1, 62, 0
2, 189920, Note_on_c, 1, 48, 127
2, 189920, Note_on_c, 1, 63, 127
2, 190040, Note_off_c, 1, 63, 0
2, 190080, Note_on_c, 1, 65, 127
2, 190200, Note_off_c, 1, 48, 0
2, 190200, Note_off_c, 1, 65, 0
2, 190240, Note_on_c, 1, 48, 127
2, 190240, Note_on_c, 1, 67, 127
2, 190360, Note_off_c, 1, 67, 0
2, 190400, Note_on_c, 1, 63, 127
2, 190520, Note_off_c, 1, 48, 0
2, 190520, Note_off_c, 1, 63, 0
2, 190520, Note_off_c, 1, 70, 0
2, 190560, Note_on_c, 1, 41, 127
2, 190560, Note_on_c, 1, 60, 127
2, 190560, Note_on_c, 1, 69, 127
2, 190680, Note_off_c, 1, 60, 0
2, 190720, Note_on_c, 1, 67, 127
2, 190840, Note_off_c, 1, 41, 0
2, 190840, Note_off_c, 1, 67, 0
2, 190880, Note_on_c, 1, 53, 127
2, 190880, Note_on_c, 1, 65, 127
2, 191000, Note_off_c, 1, 65, 0
2, 191040, Note_on_c, 1, 63, 127
2, 191160, Note_off_c, 1, 53, 0
2, 191160, Note_off_c, 1, 63, 0
2, 191200, Note_on_c, 1, 53, 127
2, 191200, Note_on_c, 1, 62, 127
2, 191320, Note_off_c, 1, 62, 0
2, 191360, Note_on_c, 1, 60, 127
2, 191480, Note_off_c, 1, 53, 0
2, 191480, Note_off_c, 1, 60, 0
2, 191520, Note_on_c, 1, 58, 127
2, 191520, Note_on_c, 1, 62, 127
2, 191640, Note_off_c, 1, 62, 0
2, 191680, Note_on_c, 1, 60, 127
2, 191800, Note_off_c, 1, 58, 0
2, 191800, Note_off_c, 1, 60, 0
2, 191840, Note_on_c, 1, 46, 127
2, 191840, Note_on_c, 1, 62, 127
2, 191960, Note_off_c, 1, 62, 0
2, 192000, Note_on_c, 1, 63, 127
2, 192120, Note_off_c, 1, 46, 0
2, 192120, Note_off_c, 1, 63, 0
2, 192160, Note_on_c, 1, 46, 127
2, 192160, Note_on_c, 1, 65, 127
2, 192280, Note_off_c, 1, 65, 0
2, 192360, Note_on_c, 1, 62, 127
2, 192440, Note_off_c, 1, 46, 0
2, 192440, Note_off_c, 1, 62, 0
2, 192440, Note_off_c, 1, 69, 0
2, 192520, Note_on_c, 1, 39, 127
2, 192520, Note_on_c, 1, 58, 127
2, 192520, Note_on_c, 1, 67, 127
2, 192640, Note_off_c, 1, 58, 0
2, 192680, Note_on_c, 1, 65, 127
2, 192800, Note_off_c, 1, 39, 0
2, 192800, Note_off_c, 1, 65, 0
2, 192840, Note_on_c, 1, 51, 127
2, 192840, Note_on_c, 1, 63, 127
2, 192960, Note_off_c, 1, 63, 0
2, 193000, Note_on_c, 1, 62, 127
2, 193120, Note_off_c, 1, 51, 0
2, 193120, Note_off_c, 1, 62, 0
2, 193160, Note_on_c, 1, 51, 127
2, 193160, Note_on_c, 1, 60, 127
2, 193280, Note_off_c, 1, 60, 0
2, 193320, Note_on_c, 1, 58, 127
2, 193440, Note_off_c, 1, 51, 0
2, 193440, Note_off_c, 1, 58, 0
2, 193480, Note_on_c, 1, 57, 127
2, 193480, Note_on_c, 1, 60, 127
2, 193600, Note_off_c, 1, 60, 0
2, 193640, Note_on_c, 1, 58, 127
2, 193760, Note_off_c, 1, 57, 0
2, 193760, Note_off_c, 1, 58, 0
2, 193800, Note_on_c, 1, 45, 127
2, 193800, Note_on_c, 1, 60, 127
2, 193920, Note_off_c, 1, 60, 0
2, 193960, Note_on_c, 1, 62, 127
2, 194080, Note_off_c, 1, 45, 0
2, 194080, Note_off_c, 1, 62, 0
2, 194120, Note_on_c, 1, 45, 127
2, 194120, Note_on_c, 1, 63, 127
2, 194240, Note_off_c, 1, 63, 0
2, 194280, Note_on_c, 1, 60, 127
2, 194400, Note_off_c, 1, 45, 0
2, 194400, Note_off_c, 1, 60, 0
2, 194400, Note_off_c, 1, 67, 0
2, 194440, Note_on_c, 1, 38, 127
2, 194440, Note_on_c, 1, 57, 127
2, 194440, Note_on_c, 1, 66, 127
2, 194560, Note_off_c, 1, 57, 0
2, 194600, Note_on_c, 1, 63, 127
2, 194720, Note_off_c, 1, 63, 0
2, 194760, Note_on_c, 1, 62, 127
2, 194880, Note_off_c, 1, 62, 0
2, 194920, Note_on_c, 1, 60, 127
2, 195040, Note_off_c, 1, 60, 0
2, 195080, Note_on_c, 1, 58, 127
2, 195200, Note_off_c, 1, 38, 0
2, 195200, Note_off_c, 1, 58, 0
2, 195240, Note_on_c, 1, 57, 127
2, 195360, Note_off_c, 1, 57, 0
2, 195360, Note_off_c, 1, 66, 0
2, 195400, Note_on_c, 1, 58, 127
2, 195400, Note_on_c, 1, 69, 127
2, 195520, Note_off_c, 1, 58, 0
2, 195560, Note_on_c, 1, 67, 127
2, 195560, Note_off_c, 1, 69, 0
2, 195600, Note_on_c, 1, 62, 127
2, 195640, Note_off_c, 1, 67, 0
2, 195680, Note_off_c, 1, 62, 0
2, 195680, Note_on_c, 1, 69, 127
2, 195720, Note_off_c, 1, 69, 0
2, 195760, Note_on_c, 1, 60, 127
2, 195760, Note_on_c, 1, 67, 127
2, 195800, Note_off_c, 1, 67, 0
2, 195800, Note_on_c, 1, 69, 127
2, 195840, Note_off_c, 1, 69, 0
2, 195880, Note_off_c, 1, 60, 0
2, 195880, Note_on_c, 1, 67, 127
2, 195920, Note_on_c, 1, 58, 127
2, 195920, Note_off_c, 1, 67, 0
2, 195960, Note_on_c, 1, 69, 127
2, 196000, Note_off_c, 1, 69, 0
2, 196040, Note_off_c, 1, 58, 0
2, 196040, Note_on_c, 1, 67, 127
2, 196080, Note_on_c, 1, 57, 127
2, 196080, Note_off_c, 1, 67, 0
2, 196120, Note_on_c, 1, 69, 127
2, 196160, Note_on_c, 1, 67, 127
2, 196160, Note_off_c, 1, 69, 0
2, 196200, Note_off_c, 1, 57, 0
2, 196200, Note_off_c, 1, 67, 0
2, 196240, Note_on_c, 1, 55, 127
2, 196240, Note_on_c, 1, 66, 127
2, 196280, Note_off_c, 1, 66, 0
2, 196320, Note_on_c, 1, 67, 127
2, 196360, Note_off_c, 1, 55, 0
2, 196360, Note_off_c, 1, 67, 0
2, 196400, Note_on_c, 1, 54, 127
2, 196400, Note_on_c, 1, 69, 127
2, 196520, Note_off_c, 1, 54, 0
2, 196560, Note_on_c, 1, 55, 127
2, 196680, Note_off_c, 1, 55, 0
2, 196680, Note_off_c, 1, 69, 0
2, 196720, Note_on_c, 1, 54, 127
2, 196720, Note_on_c, 1, 66, 127
2, 196720, Note_on_c, 1, 69, 127
2, 196720, Note_on_c, 1, 74, 127
2, 196840, Note_off_c, 1, 54, 0
2, 196880, Note_on_c, 1, 52, 127
2, 197000, Note_off_c, 1, 52, 0
2, 197000, Note_off_c, 1, 66, 0
2, 197000, Note_off_c, 1, 69, 0
2, 197000, Note_off_c, 1, 74, 0
2, 197040, Note_on_c, 1, 50, 127
2, 197040, Note_on_c, 1, 66, 127
2, 197040, Note_on_c, 1, 69, 127
2, 197040, Note_on_c, 1, 74, 127
2, 197160, Note_off_c, 1, 50, 0
2, 197200, Note_on_c, 1, 48, 127
2, 197320, Note_off_c, 1, 48, 0
2, 197320, Note_off_c, 1, 66, 0
2, 197320, Note_off_c, 1, 69, 0
2, 197320, Note_off_c, 1, 74, 0
2, 197360, Note_on_c, 1, 47, 127
2, 197360, Note_on_c, 1, 67, 127
2, 197360, Note_on_c, 1, 71, 127
2, 197360, Note_on_c, 1, 74, 127
2, 197360, Note_on_c, 1, 77, 127
2, 197480, Note_off_c, 1, 47, 0
2, 197520, Note_on_c, 1, 45, 127
2, 197640, Note_off_c, 1, 45, 0
2, 197640, Note_off_c, 1, 67, 0
2, 197640, Note_off_c, 1, 71, 0
2, 197640, Note_off_c, 1, 74, 0
2, 197640, Note_off_c, 1, 77, 0
2, 197680, Note_on_c, 1, 43, 127
2, 197680, Note_on_c, 1, 67, 127
2, 197680, Note_on_c, 1, 71, 127
2, 197680, Note_on_c, 1, 74, 127
2, 197680, Note_on_c, 1, 77, 127
2, 197800, Note_off_c, 1, 43, 0
2, 197840, Note_on_c, 1, 41, 127
2, 197960, Note_off_c, 1, 41, 0
2, 197960, Note_off_c, 1, 67, 0
2, 197960, Note_off_c, 1, 71, 0
2, 197960, Note_off_c, 1, 74, 0
2, 197960, Note_off_c, 1, 77, 0
2, 198000, Note_on_c, 1, 40, 127
2, 198000, Note_on_c, 1, 67, 127
2, 198000, Note_on_c, 1, 71, 127
2, 198000, Note_on_c, 1, 74, 127
2, 198000, Note_on_c, 1, 77, 127
2, 198120, Note_off_c, 1, 40, 0
2, 198160, Note_on_c, 1, 38, 127
2, 198280, Note_off_c, 1, 38, 0
2, 198280, Note_off_c, 1, 67, 0
2, 198280, Note_off_c, 1, 71, 0
2, 198280, Note_off_c, 1, 74, 0
2, 198280, Note_off_c, 1, 77, 0
2, 198320, Note_on_c, 1, 36, 127
2, 198320, Note_on_c, 1, 67, 127
2, 198320, Note_on_c, 1, 71, 127
2, 198320, Note_on_c, 1, 74, 127
2, 198320, Note_on_c, 1, 77, 127
2, 198600, Note_off_c, 1, 36, 0
2, 198600, Note_off_c, 1, 67, 0
2, 198600, Note_off_c, 1, 71, 0
2, 198600, Note_off_c, 1, 74, 0
2, 198600, Note_off_c, 1, 77, 0
2, 198640, Note_on_c, 1, 55, 127
2, 198640, Note_on_c, 1, 67, 127
2, 198640, Note_on_c, 1, 72, 127
2, 198640, Note_on_c, 1, 76, 127
2, 198760, Note_off_c, 1, 55, 0
2, 198840, Note_on_c, 1, 53, 127
2, 198920, Note_off_c, 1, 53, 0
2, 198920, Note_off_c, 1, 67, 0
2, 198920, Note_off_c, 1, 72, 0
2, 198920, Note_off_c, 1, 76, 0
2, 199000, Note_on_c, 1, 52, 127
2, 199000, Note_on_c, 1, 67, 127
2, 199000, Note_on_c, 1, 72, 127
2, 199000, Note_on_c, 1, 76, 127
2, 199120, Note_off_c, 1, 52, 0
2, 199160, Note_on_c, 1, 50, 127
2, 199280, Note_off_c, 1, 50, 0
2, 199280, Note_off_c, 1, 67, 0
2, 199280, Note_off_c, 1, 72, 0
2, 199280, Note_off_c, 1, 76, 0
2, 199320, Note_on_c, 1, 49, 127
2, 199320, Note_on_c, 1, 69, 127
2, 199320, Note_on_c, 1, 73, 127
2, 199320, Note_on_c, 1, 76, 127
2, 199320, Note_on_c, 1, 79, 127
2, 199440, Note_off_c, 1, 49, 0
2, 199480, Note_on_c, 1, 47, 127
2, 199600, Note_off_c, 1, 47, 0
2, 199600, Note_off_c, 1, 69, 0
2, 199600, Note_off_c, 1, 73, 0
2, 199600, Note_off_c, 1, 76, 0
2, 199600, Note_off_c, 1, 79, 0
2, 199640, Note_on_c, 1, 45, 127
2, 199640, Note_on_c, 1, 69, 127
2, 199640, Note_on_c, 1, 73, 127
2, 199640, Note_on_c, 1, 76, 127
2, 199640, Note_on_c, 1, 79, 127
2, 199760, Note_off_c, 1, 45, 0
2, 199800, Note_on_c, 1, 43, 127
2, 199920, Note_off_c, 1, 43, 0
2, 199920, Note_off_c, 1, 69, 0
2, 199920, Note_off_c, 1, 73, 0
2, 199920, Note_off_c, 1, 76, 0
2, 199920, Note_off_c, 1, 79, 0
2, 199960, Note_on_c, 1, 42, 127
2, 199960, Note_on_c, 1, 69, 127
2, 199960, Note_on_c, 1, 73, 127
2, 199960, Note_on_c, 1, 76, 127
2, 199960, Note_on_c, 1, 79, 127
2, 200080, Note_off_c, 1, 42, 0
2, 200120, Note_on_c, 1, 40, 127
2, 200240, Note_off_c, 1, 40, 0
2, 200240, Note_off_c, 1, 69, 0
2, 200240, Note_off_c, 1, 73, 0
2, 200240, Note_off_c, 1, 76, 0
2, 200240, Note_off_c, 1, 79, 0
2, 200280, Note_on_c, 1, 38, 127
2, 200280, Note_on_c, 1, 69, 127
2, 200280, Note_on_c, 1, 73, 127
2, 200280, Note_on_c, 1, 76, 127
2, 200280, Note_on_c, 1, 79, 127
2, 200560, Note_off_c, 1, 38, 0
2, 200560, Note_off_c, 1, 69, 0
2, 200560, Note_off_c, 1, 73, 0
2, 200560, Note_off_c, 1, 76, 0
2, 200560, Note_off_c, 1, 79, 0
2, 200600, Note_on_c, 1, 60, 127
2, 200600, Note_on_c, 1, 69, 127
2, 200600, Note_on_c, 1, 74, 127
2, 200600, Note_on_c, 1, 78, 127
2, 200720, Note_off_c, 1, 60, 0
2, 200760, Note_on_c, 1, 58, 127
2, 200880, Note_off_c, 1, 58, 0
2, 200880, Note_off_c, 1, 69, 0
2, 200880, Note_off_c, 1, 74, 0
2, 200880, Note_off_c, 1, 78, 0
2, 200920, Note_on_c, 1, 57, 127
2, 200920, Note_on_c, 1, 69, 127
2, 200920, Note_on_c, 1, 74, 127
2, 200920, Note_on_c, 1, 78, 127
2, 201040, Note_off_c, 1, 57, 0
2, 201080, Note_on_c, 1, 55, 127
2, 201200, Note_off_c, 1, 55, 0
2, 201200, Note_off_c, 1, 69, 0
2, 201200, Note_off_c, 1, 74, 0
2, 201200, Note_off_c, 1, 78, 0
2, 201240, Note_on_c, 1, 54, 127
2, 201240, Note_on_c, 1, 72, 127
2, 201240, Note_on_c, 1, 74, 127
2, 201240, Note_on_c, 1, 81, 127
2, 201360, Note_off_c, 1, 54, 0
2, 201400, Note_on_c, 1, 52, 127
2, 201520, Note_off_c, 1, 52, 0
2, 201520, Note_off_c, 1, 72, 0
2, 201520, Note_off_c, 1, 74, 0
2, 201520, Note_off_c, 1, 81, 0
2, 201560, Note_on_c, 1, 50, 127
2, 201560, Note_on_c, 1, 72, 127
2, 201560, Note_on_c, 1, 74, 127
2, 201560, Note_on_c, 1, 81, 127
2, 201680, Note_off_c, 1, 50, 0
2, 201720, Note_on_c, 1, 48, 127
2, 201840, Note_off_c, 1, 48, 0
2, 201840, Note_off_c, 1, 72, 0
2, 201840, Note_off_c, 1, 74, 0
2, 201840, Note_off_c, 1, 81, 0
2, 201880, Note_on_c, 1, 46, 127
2, 201880, Note_on_c, 1, 72, 127
2, 201880, Note_on_c, 1, 74, 127
2, 201880, Note_on_c, 1, 81, 127
2, 202000, Note_off_c, 1, 46, 0
2, 202080, Note_on_c, 1, 45, 127
2, 202160, Note_off_c, 1, 45, 0
2, 202160, Note_off_c, 1, 72, 0
2, 202160, Note_off_c, 1, 74, 0
2, 202160, Note_off_c, 1, 81, 0
2, 202240, Note_on_c, 1, 43, 127
2, 202240, Note_on_c, 1, 72, 127
2, 202240, Note_on_c, 1, 74, 127
2, 202240, Note_on_c, 1, 81, 127
2, 202360, Note_off_c, 1, 43, 0
2, 202400, Note_on_c, 1, 42, 127
2, 202520, Note_off_c, 1, 42, 0
2, 202520, Note_off_c, 1, 72, 0
2, 202520, Note_off_c, 1, 81, 0
2, 202560, Note_on_c, 1, 43, 127
2, 202560, Note_on_c, 1, 70, 127
2, 202560, Note_on_c, 1, 79, 127
2, 202680, Note_off_c, 1, 43, 0
2, 202720, Note_on_c, 1, 45, 127
2, 202840, Note_off_c, 1, 45, 0
2, 202840, Note_off_c, 1, 70, 0
2, 202840, Note_off_c, 1, 74, 0
2, 202840, Note_off_c, 1, 79, 0
2, 202880, Note_on_c, 1, 46, 127
2, 202880, Note_on_c, 1, 69, 127
2, 202880, Note_on_c, 1, 74, 127
2, 202880, Note_on_c, 1, 77, 127
2, 203000, Note_off_c, 1, 46, 0
2, 203040, Note_on_c, 1, 43, 127
2, 203200, Note_off_c, 1, 43, 0
2, 203200, Note_off_c, 1, 69, 0
2, 203200, Note_off_c, 1, 74, 0
2, 203200, Note_off_c, 1, 77, 0
2, 203240, Note_on_c, 1, 48, 127
2, 203240, Note_on_c, 1, 67, 127
2, 203240, Note_on_c, 1, 72, 127
2, 203240, Note_on_c, 1, 75, 127
2, 203360, Note_off_c, 1, 48, 0
2, 203400, Note_on_c, 1, 46, 127
2, 203520, Note_off_c, 1, 46, 0
2, 203520, Note_off_c, 1, 72, 0
2, 203520, Note_off_c, 1, 75, 0
2, 203560, Note_on_c, 1, 48, 127
2, 203560, Note_on_c, 1, 70, 127
2, 203560, Note_on_c, 1, 74, 127
2, 203680, Note_off_c, 1, 48, 0
2, 203720, Note_on_c, 1, 50, 127
2, 203840, Note_off_c, 1, 50, 0
2, 203840, Note_off_c, 1, 70, 0
2, 203840, Note_off_c, 1, 74, 0
2, 203880, Note_on_c, 1, 51, 127
2, 203880, Note_on_c, 1, 69, 127
2, 203880, Note_on_c, 1, 72, 127
2, 204040, Note_off_c, 1, 51, 0
2, 204080, Note_on_c, 1, 48, 127
2, 204200, Note_off_c, 1, 48, 0
2, 204200, Note_off_c, 1, 67, 0
2, 204200, Note_off_c, 1, 69, 0
2, 204200, Note_off_c, 1, 72, 0
2, 204240, Note_on_c, 1, 50, 127
2, 204240, Note_on_c, 1, 66, 127
2, 204320, Note_on_c, 1, 69, 127
2, 204360, Note_off_c, 1, 50, 0
2, 204400, Note_on_c, 1, 52, 127
2, 204400, Note_on_c, 1, 72, 127
2, 204560, Note_off_c, 1, 52, 0
2, 204600, Note_on_c, 1, 54, 127
2, 204720, Note_off_c, 1, 54, 0
2, 204720, Note_off_c, 1, 66, 0
2, 204720, Note_off_c, 1, 72, 0
2, 204760, Note_on_c, 1, 50, 127
2, 204760, Note_on_c, 1, 74, 127
2, 204880, Note_off_c, 1, 50, 0
2, 204880, Note_off_c, 1, 69, 0
2, 204880, Note_off_c, 1, 74, 0
2, 204920, Note_on_c, 1, 55, 127
2, 204920, Note_on_c, 1, 62, 127
2, 204920, Note_on_c, 1, 67, 127
2, 204920, Note_on_c, 1, 70, 127
2, 205280, Note_off_c, 1, 55, 0
2, 205320, Note_on_c, 1, 48, 127
2, 205480, Note_off_c, 1, 62, 0
2, 205480, Note_off_c, 1, 67, 0
2, 205480, Note_off_c, 1, 70, 0
2, 205520, Note_on_c, 1, 69, 127
2, 205640, Note_off_c, 1, 48, 0
2, 205640, Note_off_c, 1, 69, 0
2, 205680, Note_on_c, 1, 50, 127
2, 205680, Note_on_c, 1, 66, 127
2, 205680, Note_on_c, 1, 70, 127
2, 205760, Note_off_c, 1, 70, 0
2, 205800, Note_on_c, 1, 69, 127
2, 205880, Note_off_c, 1, 69, 0
2, 205920, Note_on_c, 1, 70, 127
2, 206000, Note_off_c, 1, 70, 0
2, 206040, Note_on_c, 1, 69, 127
2, 206120, Note_off_c, 1, 50, 0
2, 206120, Note_off_c, 1, 69, 0
2, 206160, Note_on_c, 1, 38, 127
2, 206160, Note_on_c, 1, 70, 127
2, 206240, Note_off_c, 1, 70, 0
2, 206280, Note_on_c, 1, 69, 127
2, 206320, Note_off_c, 1, 66, 0
2, 206360, Note_off_c, 1, 69, 0
2, 206400, Note_on_c, 1, 67, 127
2, 206560, Note_off_c, 1, 38, 0
2, 206560, Note_off_c, 1, 67, 0
2, 206640, Note_on_c, 1, 43, 127
2, 206640, Note_on_c, 1, 67, 127
2, 209200, Note_off_c, 1, 43, 0
2, 209200, Note_off_c, 1, 67, 0
2, 211240, Note_on_c, 1, 70, 127
2, 211520, Note_off_c, 1, 70, 0
2, 211600, Note_on_c, 1, 67, 127
2, 211600, Note_on_c, 1, 70, 127
2, 211800, Note_on_c, 1, 43, 127
2, 211960, Note_off_c, 1, 43, 0
2, 212000, Note_on_c, 1, 46, 127
2, 212160, Note_off_c, 1, 46, 0
2, 212200, Note_on_c, 1, 50, 127
2, 212360, Note_off_c, 1, 50, 0
2, 212360, Note_off_c, 1, 67, 0
2, 212400, Note_on_c, 1, 55, 127
2, 212560, Note_off_c, 1, 55, 0
2, 212560, Note_off_c, 1, 70, 0
2, 212600, Note_on_c, 1, 58, 127
2, 212600, Note_on_c, 1, 79, 127
2, 212720, Note_off_c, 1, 58, 0
2, 212720, Note_off_c, 1, 79, 0
2, 212760, Note_on_c, 1, 57, 127
2, 212760, Note_on_c, 1, 78, 127
2, 212920, Note_off_c, 1, 57, 0
2, 212920, Note_off_c, 1, 78, 0
2, 212960, Note_on_c, 1, 55, 127
2, 212960, Note_on_c, 1, 79, 127
2, 213120, Note_off_c, 1, 55, 0
2, 213120, Note_off_c, 1, 79, 0
2, 213160, Note_on_c, 1, 54, 127
2, 213160, Note_on_c, 1, 69, 127
2, 213160, Note_on_c, 1, 72, 127
2, 213320, Note_off_c, 1, 54, 0
2, 213360, Note_on_c, 1, 55, 127
2, 213520, Note_off_c, 1, 55, 0
2, 213560, Note_on_c, 1, 57, 127
2, 213680, Note_off_c, 1, 57, 0
2, 213720, Note_on_c, 1, 51, 127
2, 213880, Note_off_c, 1, 51, 0
2, 213880, Note_off_c, 1, 69, 0
2, 213920, Note_on_c, 1, 50, 127
2, 214080, Note_off_c, 1, 50, 0
2, 214080, Note_off_c, 1, 72, 0
2, 214120, Note_on_c, 1, 48, 127
2, 214120, Note_on_c, 1, 81, 127
2, 214280, Note_off_c, 1, 48, 0
2, 214280, Note_off_c, 1, 81, 0
2, 214320, Note_on_c, 1, 46, 127
2, 214320, Note_on_c, 1, 79, 127
2, 214480, Note_off_c, 1, 46, 0
2, 214480, Note_off_c, 1, 79, 0
2, 214520, Note_on_c, 1, 45, 127
2, 214520, Note_on_c, 1, 81, 127
2, 214640, Note_off_c, 1, 45, 0
2, 214640, Note_off_c, 1, 81, 0
2, 214720, Note_on_c, 1, 46, 127
2, 214720, Note_on_c, 1, 74, 127
2, 214840, Note_off_c, 1, 74, 0
2, 214880, Note_on_c, 1, 67, 127
2, 215040, Note_off_c, 1, 67, 0
2, 215080, Note_on_c, 1, 70, 127
2, 215240, Note_off_c, 1, 70, 0
2, 215280, Note_on_c, 1, 74, 127
2, 215440, Note_off_c, 1, 74, 0
2, 215480, Note_on_c, 1, 79, 127
2, 215600, Note_off_c, 1, 46, 0
2, 215600, Note_off_c, 1, 79, 0
2, 215680, Note_on_c, 1, 50, 127
2, 215680, Note_on_c, 1, 82, 127
2, 215800, Note_off_c, 1, 50, 0
2, 215800, Note_off_c, 1, 82, 0
2, 215840, Note_on_c, 1, 48, 127
2, 215840, Note_on_c, 1, 81, 127
2, 216000, Note_off_c, 1, 48, 0
2, 216000, Note_off_c, 1, 81, 0
2, 216040, Note_on_c, 1, 51, 127
2, 216040, Note_on_c, 1, 79, 127
2, 216200, Note_off_c, 1, 51, 0
2, 216200, Note_off_c, 1, 79, 0
2, 216240, Note_on_c, 1, 50, 127
2, 216240, Note_on_c, 1, 78, 127
2, 216400, Note_off_c, 1, 78, 0
2, 216440, Note_on_c, 1, 79, 127
2, 216600, Note_off_c, 1, 79, 0
2, 216640, Note_on_c, 1, 81, 127
2, 216760, Note_off_c, 1, 81, 0
2, 216800, Note_on_c, 1, 75, 127
2, 216960, Note_off_c, 1, 75, 0
2, 217000, Note_on_c, 1, 74, 127
2, 217160, Note_off_c, 1, 50, 0
2, 217160, Note_off_c, 1, 74, 0
2, 217200, Note_on_c, 1, 52, 127
2, 217200, Note_on_c, 1, 72, 127
2, 217360, Note_off_c, 1, 52, 0
2, 217360, Note_off_c, 1, 72, 0
2, 217400, Note_on_c, 1, 54, 127
2, 217400, Note_on_c, 1, 70, 127
2, 217560, Note_off_c, 1, 54, 0
2, 217560, Note_off_c, 1, 70, 0
2, 217600, Note_on_c, 1, 50, 127
2, 217600, Note_on_c, 1, 69, 127
2, 217720, Note_off_c, 1, 50, 0
2, 217720, Note_off_c, 1, 69, 0
2, 217760, Note_on_c, 1, 55, 127
2, 217760, Note_on_c, 1, 70, 127
2, 217960, Note_on_c, 1, 67, 127
2, 218120, Note_off_c, 1, 67, 0
2, 218160, Note_on_c, 1, 65, 127
2, 218320, Note_off_c, 1, 65, 0
2, 218360, Note_on_c, 1, 62, 127
2, 218520, Note_off_c, 1, 62, 0
2, 218560, Note_on_c, 1, 63, 127
2, 218720, Note_off_c, 1, 70, 0
2, 218760, Note_on_c, 1, 70, 127
2, 218880, Note_off_c, 1, 55, 0
2, 218880, Note_off_c, 1, 70, 0
2, 218920, Note_on_c, 1, 51, 127
2, 218920, Note_on_c, 1, 72, 127
2, 219080, Note_off_c, 1, 72, 0
2, 219120, Note_on_c, 1, 75, 127
2, 219280, Note_off_c, 1, 51, 0
2, 219280, Note_off_c, 1, 75, 0
2, 219320, Note_on_c, 1, 53, 127
2, 219320, Note_on_c, 1, 69, 127
2, 219480, Note_off_c, 1, 63, 0
2, 219520, Note_on_c, 1, 65, 127
2, 219680, Note_off_c, 1, 65, 0
2, 219720, Note_on_c, 1, 63, 127
2, 219840, Note_off_c, 1, 63, 0
2, 219880, Note_on_c, 1, 60, 127
2, 220040, Note_off_c, 1, 60, 0
2, 220080, Note_on_c, 1, 62, 127
2, 220240, Note_off_c, 1, 69, 0
2, 220280, Note_on_c, 1, 69, 127
2, 220440, Note_off_c, 1, 53, 0
2, 220440, Note_off_c, 1, 69, 0
2, 220480, Note_on_c, 1, 50, 127
2, 220480, Note_on_c, 1, 70, 127
2, 220640, Note_off_c, 1, 70, 0
2, 220680, Note_on_c, 1, 74, 127
2, 220800, Note_off_c, 1, 74, 0
2, 220840, Note_off_c, 1, 50, 0
2, 220880, Note_on_c, 1, 51, 127
2, 220880, Note_on_c, 1, 67, 127
2, 221000, Note_off_c, 1, 62, 0
2, 221040, Note_on_c, 1, 63, 127
2, 221200, Note_off_c, 1, 63, 0
2, 221240, Note_on_c, 1, 62, 127
2, 221400, Note_off_c, 1, 62, 0
2, 221440, Note_on_c, 1, 58, 127
2, 221600, Note_off_c, 1, 58, 0
2, 221640, Note_on_c, 1, 60, 127
2, 221800, Note_off_c, 1, 67, 0
2, 221840, Note_on_c, 1, 67, 127
2, 221960, Note_off_c, 1, 51, 0
2, 221960, Note_off_c, 1, 67, 0
2, 222040, Note_on_c, 1, 48, 127
2, 222040, Note_on_c, 1, 69, 127
2, 222160, Note_off_c, 1, 69, 0
2, 222200, Note_on_c, 1, 72, 127
2, 222360, Note_off_c, 1, 48, 0
2, 222360, Note_off_c, 1, 72, 0
2, 222400, Note_on_c, 1, 50, 127
2, 222400, Note_on_c, 1, 66, 127
2, 222560, Note_off_c, 1, 66, 0
2, 222600, Note_on_c, 1, 69, 127
2, 222760, Note_off_c, 1, 60, 0
2, 222760, Note_off_c, 1, 69, 0
2, 222800, Note_on_c, 1, 57, 127
2, 222800, Note_on_c, 1, 72, 127
2, 222920, Note_off_c, 1, 72, 0
2, 223000, Note_on_c, 1, 74, 127
2, 223120, Note_off_c, 1, 57, 0
2, 223120, Note_off_c, 1, 74, 0
2, 223160, Note_on_c, 1, 58, 127
2, 223160, Note_on_c, 1, 67, 127
2, 223320, Note_off_c, 1, 67, 0
2, 223360, Note_on_c, 1, 70, 127
2, 223520, Note_off_c, 1, 58, 0
2, 223520, Note_off_c, 1, 70, 0
2, 223560, Note_on_c, 1, 55, 127
2, 223560, Note_on_c, 1, 74, 127
2, 223720, Note_off_c, 1, 74, 0
2, 223760, Note_on_c, 1, 75, 127
2, 223920, Note_off_c, 1, 55, 0
2, 223920, Note_off_c, 1, 75, 0
2, 223960, Note_on_c, 1, 54, 127
2, 223960, Note_on_c, 1, 69, 127
2, 224080, Note_off_c, 1, 69, 0
2, 224120, Note_on_c, 1, 72, 127
2, 224280, Note_off_c, 1, 50, 0
2, 224280, Note_off_c, 1, 54, 0
2, 224280, Note_off_c, 1, 72, 0
2, 224320, Note_on_c, 1, 48, 127
2, 224320, Note_on_c, 1, 57, 127
2, 224320, Note_on_c, 1, 74, 127
2, 224480, Note_off_c, 1, 74, 0
2, 224520, Note_on_c, 1, 78, 127
2, 224680, Note_off_c, 1, 48, 0
2, 224680, Note_off_c, 1, 57, 0
2, 224680, Note_off_c, 1, 78, 0
2, 224720, Note_on_c, 1, 46, 127
2, 224720, Note_on_c, 1, 50, 127
2, 224720, Note_on_c, 1, 70, 127
2, 224880, Note_off_c, 1, 70, 0
2, 224920, Note_on_c, 1, 74, 127
2, 225040, Note_off_c, 1, 46, 0
2, 225040, Note_off_c, 1, 74, 0
2, 225080, Note_on_c, 1, 43, 127
2, 225080, Note_on_c, 1, 78, 127
2, 225240, Note_off_c, 1, 78, 0
2, 225280, Note_on_c, 1, 79, 127
2, 225440, Note_off_c, 1, 43, 0
2, 225440, Note_off_c, 1, 79, 0
2, 225480, Note_on_c, 1, 38, 127
2, 225480, Note_on_c, 1, 81, 127
2, 225640, Note_off_c, 1, 81, 0
2, 225680, Note_on_c, 1, 79, 127
2, 225840, Note_off_c, 1, 38, 0
2, 225840, Note_off_c, 1, 50, 0
2, 225840, Note_off_c, 1, 79, 0
2, 225880, Note_on_c, 1, 62, 127
2, 225880, Note_on_c, 1, 78, 127
2, 226000, Note_off_c, 1, 78, 0
2, 226080, Note_on_c, 1, 76, 127
2, 226200, Note_off_c, 1, 76, 0
2, 226240, Note_on_c, 1, 74, 127
2, 226400, Note_off_c, 1, 62, 0
2, 226400, Note_off_c, 1, 74, 0
2, 226440, Note_on_c, 1, 60, 127
2, 226440, Note_on_c, 1, 75, 127
2, 226600, Note_off_c, 1, 60, 0
2, 226600, Note_off_c, 1, 75, 0
2, 226640, Note_on_c, 1, 59, 127
2, 226640, Note_on_c, 1, 77, 127
2, 226680, Note_off_c, 1, 77, 0
2, 226720, Note_on_c, 1, 75, 127
2, 226800, Note_off_c, 1, 59, 0
2, 226800, Note_off_c, 1, 75, 0
2, 226840, Note_on_c, 1, 57, 127
2, 226840, Note_on_c, 1, 74, 127
2, 226880, Note_off_c, 1, 74, 0
2, 226920, Note_on_c, 1, 75, 127
2, 226960, Note_off_c, 1, 57, 0
2, 226960, Note_off_c, 1, 75, 0
2, 227040, Note_on_c, 1, 55, 127
2, 227040, Note_on_c, 1, 71, 127
2, 227120, Note_on_c, 1, 74, 127
2, 227160, Note_off_c, 1, 55, 0
2, 227200, Note_on_c, 1, 50, 127
2, 227200, Note_on_c, 1, 77, 127
2, 227360, Note_off_c, 1, 50, 0
2, 227400, Note_on_c, 1, 55, 127
2, 227560, Note_off_c, 1, 55, 0
2, 227600, Note_on_c, 1, 59, 127
2, 227760, Note_off_c, 1, 59, 0
2, 227800, Note_on_c, 1, 62, 127
2, 227920, Note_off_c, 1, 74, 0
2, 227960, Note_off_c, 1, 62, 0
2, 227960, Note_off_c, 1, 71, 0
2, 228000, Note_on_c, 1, 63, 127
2, 228000, Note_on_c, 1, 72, 127
2, 228120, Note_off_c, 1, 63, 0
2, 228120, Note_off_c, 1, 72, 0
2, 228160, Note_on_c, 1, 62, 127
2, 228160, Note_on_c, 1, 74, 127
2, 228240, Note_off_c, 1, 74, 0
2, 228280, Note_on_c, 1, 72, 127
2, 228320, Note_off_c, 1, 62, 0
2, 228320, Note_off_c, 1, 72, 0
2, 228320, Note_off_c, 1, 77, 0
2, 228360, Note_on_c, 1, 60, 127
2, 228360, Note_on_c, 1, 71, 127
2, 228440, Note_off_c, 1, 71, 0
2, 228480, Note_on_c, 1, 72, 127
2, 228520, Note_off_c, 1, 60, 0
2, 228520, Note_off_c, 1, 72, 0
2, 228560, Note_on_c, 1, 59, 127
2, 228560, Note_on_c, 1, 74, 127
2, 228720, Note_off_c, 1, 59, 0
2, 228720, Note_off_c, 1, 74, 0
2, 228760, Note_on_c, 1, 60, 127
2, 228760, Note_on_c, 1, 75, 127
2, 228920, Note_off_c, 1, 60, 0
2, 228920, Note_off_c, 1, 75, 0
2, 228960, Note_on_c, 1, 62, 127
2, 228960, Note_on_c, 1, 77, 127
2, 229000, Note_off_c, 1, 77, 0
2, 229040, Note_on_c, 1, 75, 127
2, 229080, Note_off_c, 1, 62, 0
2, 229080, Note_off_c, 1, 75, 0
2, 229120, Note_on_c, 1, 56, 127
2, 229120, Note_on_c, 1, 74, 127
2, 229200, Note_off_c, 1, 74, 0
2, 229240, Note_on_c, 1, 75, 127
2, 229280, Note_off_c, 1, 56, 0
2, 229280, Note_off_c, 1, 75, 0
2, 229320, Note_on_c, 1, 55, 127
2, 229320, Note_on_c, 1, 77, 127
2, 229480, Note_off_c, 1, 55, 0
2, 229480, Note_off_c, 1, 77, 0
2, 229520, Note_on_c, 1, 53, 127
2, 229520, Note_on_c, 1, 80, 127
2, 229680, Note_off_c, 1, 53, 0
2, 229680, Note_off_c, 1, 80, 0
2, 229720, Note_on_c, 1, 51, 127
2, 229720, Note_on_c, 1, 79, 127
2, 229880, Note_off_c, 1, 51, 0
2, 229880, Note_off_c, 1, 79, 0
2, 229920, Note_on_c, 1, 50, 127
2, 229920, Note_on_c, 1, 77, 127
2, 230040, Note_off_c, 1, 50, 0
2, 230040, Note_off_c, 1, 77, 0
2, 230120, Note_on_c, 1, 48, 127
2, 230120, Note_on_c, 1, 75, 127
2, 230240, Note_off_c, 1, 75, 0
2, 230280, Note_on_c, 1, 72, 127
2, 230440, Note_off_c, 1, 72, 0
2, 230480, Note_on_c, 1, 75, 127
2, 230640, Note_off_c, 1, 75, 0
2, 230680, Note_on_c, 1, 79, 127
2, 230840, Note_off_c, 1, 79, 0
2, 230880, Note_on_c, 1, 84, 127
2, 231000, Note_off_c, 1, 48, 0
2, 231000, Note_off_c, 1, 84, 0
2, 231080, Note_on_c, 1, 48, 127
2, 231080, Note_on_c, 1, 82, 127
2, 231200, Note_off_c, 1, 48, 0
2, 231200, Note_off_c, 1, 82, 0
2, 231240, Note_on_c, 1, 51, 127
2, 231240, Note_on_c, 1, 81, 127
2, 231400, Note_off_c, 1, 51, 0
2, 231400, Note_off_c, 1, 81, 0
2, 231440, Note_on_c, 1, 55, 127
2, 231440, Note_on_c, 1, 79, 127
2, 231600, Note_off_c, 1, 55, 0
2, 231600, Note_off_c, 1, 79, 0
2, 231640, Note_on_c, 1, 60, 127
2, 231640, Note_on_c, 1, 78, 127
2, 231800, Note_off_c, 1, 78, 0
2, 231840, Note_on_c, 1, 79, 127
2, 232000, Note_off_c, 1, 60, 0
2, 232000, Note_off_c, 1, 79, 0
2, 232040, Note_on_c, 1, 48, 127
2, 232040, Note_on_c, 1, 50, 127
2, 232040, Note_on_c, 1, 81, 127
2, 232160, Note_off_c, 1, 81, 0
2, 232200, Note_on_c, 1, 75, 127
2, 232360, Note_off_c, 1, 48, 0
2, 232360, Note_off_c, 1, 50, 0
2, 232360, Note_off_c, 1, 75, 0
2, 232400, Note_on_c, 1, 46, 127
2, 232400, Note_on_c, 1, 52, 127
2, 232400, Note_on_c, 1, 74, 127
2, 232560, Note_off_c, 1, 74, 0
2, 232600, Note_on_c, 1, 72, 127
2, 232760, Note_off_c, 1, 46, 0
2, 232760, Note_off_c, 1, 52, 0
2, 232760, Note_off_c, 1, 72, 0
2, 232800, Note_on_c, 1, 45, 127
2, 232800, Note_on_c, 1, 54, 127
2, 232800, Note_on_c, 1, 70, 127
2, 232960, Note_off_c, 1, 70, 0
2, 233000, Note_on_c, 1, 69, 127
2, 233120, Note_off_c, 1, 45, 0
2, 233120, Note_off_c, 1, 54, 0
2, 233120, Note_off_c, 1, 69, 0
2, 233160, Note_on_c, 1, 43, 127
2, 233160, Note_on_c, 1, 70, 127
2, 233360, Note_on_c, 1, 55, 127
2, 233520, Note_off_c, 1, 55, 0
2, 233560, Note_on_c, 1, 58, 127
2, 233720, Note_off_c, 1, 58, 0
2, 233760, Note_on_c, 1, 62, 127
2, 233920, Note_off_c, 1, 62, 0
2, 233960, Note_on_c, 1, 67, 127
2, 234080, Note_off_c, 1, 67, 0
2, 234160, Note_on_c, 1, 65, 127
2, 234280, Note_off_c, 1, 65, 0
2, 234320, Note_on_c, 1, 63, 127
2, 234480, Note_off_c, 1, 63, 0
2, 234520, Note_on_c, 1, 62, 127
2, 234680, Note_off_c, 1, 62, 0
2, 234680, Note_off_c, 1, 70, 0
2, 234720, Note_off_c, 1, 43, 0
2, 234720, Note_on_c, 1, 61, 127
2, 234720, Note_on_c, 1, 69, 127
2, 234880, Note_off_c, 1, 61, 0
2, 234920, Note_on_c, 1, 62, 127
2, 235080, Note_off_c, 1, 62, 0
2, 235120, Note_on_c, 1, 64, 127
2, 235240, Note_off_c, 1, 64, 0
2, 235280, Note_on_c, 1, 58, 127
2, 235440, Note_off_c, 1, 58, 0
2, 235480, Note_on_c, 1, 57, 127
2, 235640, Note_off_c, 1, 57, 0
2, 235680, Note_on_c, 1, 55, 127
2, 235840, Note_off_c, 1, 55, 0
2, 235880, Note_on_c, 1, 53, 127
2, 236040, Note_off_c, 1, 53, 0
2, 236080, Note_on_c, 1, 52, 127
2, 236200, Note_off_c, 1, 52, 0
2, 236240, Note_on_c, 1, 41, 127
2, 236240, Note_on_c, 1, 50, 127
2, 236400, Note_off_c, 1, 69, 0
2, 236440, Note_on_c, 1, 62, 127
2, 236600, Note_off_c, 1, 62, 0
2, 236640, Note_on_c, 1, 65, 127
2, 236800, Note_off_c, 1, 65, 0
2, 236840, Note_on_c, 1, 69, 127
2, 237000, Note_off_c, 1, 69, 0
2, 237040, Note_on_c, 1, 74, 127
2, 237160, Note_off_c, 1, 41, 0
2, 237160, Note_off_c, 1, 50, 0
2, 237160, Note_off_c, 1, 74, 0
2, 237240, Note_on_c, 1, 77, 127
2, 237360, Note_off_c, 1, 77, 0
2, 237400, Note_on_c, 1, 53, 127
2, 237400, Note_on_c, 1, 57, 127
2, 237400, Note_on_c, 1, 76, 127
2, 237560, Note_off_c, 1, 76, 0
2, 237600, Note_on_c, 1, 74, 127
2, 237760, Note_off_c, 1, 53, 0
2, 237760, Note_off_c, 1, 57, 0
2, 237760, Note_off_c, 1, 74, 0
2, 237800, Note_on_c, 1, 52, 127
2, 237800, Note_on_c, 1, 55, 127
2, 237800, Note_on_c, 1, 73, 127
2, 237960, Note_off_c, 1, 73, 0
2, 238000, Note_on_c, 1, 74, 127
2, 238120, Note_off_c, 1, 52, 0
2, 238120, Note_off_c, 1, 74, 0
2, 238200, Note_on_c, 1, 50, 127
2, 238200, Note_on_c, 1, 76, 127
2, 238320, Note_off_c, 1, 76, 0
2, 238360, Note_on_c, 1, 70, 127
2, 238520, Note_off_c, 1, 50, 0
2, 238520, Note_off_c, 1, 55, 0
2, 238520, Note_off_c, 1, 70, 0
2, 238560, Note_on_c, 1, 49, 127
2, 238560, Note_on_c, 1, 52, 127
2, 238560, Note_on_c, 1, 69, 127
2, 238720, Note_off_c, 1, 69, 0
2, 238760, Note_on_c, 1, 67, 127
2, 238920, Note_off_c, 1, 49, 0
2, 238920, Note_off_c, 1, 67, 0
2, 238960, Note_on_c, 1, 45, 127
2, 238960, Note_on_c, 1, 65, 127
2, 239120, Note_off_c, 1, 65, 0
2, 239160, Note_on_c, 1, 64, 127
2, 239280, Note_off_c, 1, 45, 0
2, 239280, Note_off_c, 1, 52, 0
2, 239280, Note_off_c, 1, 64, 0
2, 239320, Note_on_c, 1, 50, 127
2, 239320, Note_on_c, 1, 66, 127
2, 239480, Note_off_c, 1, 66, 0
2, 239520, Note_on_c, 1, 67, 127
2, 239680, Note_off_c, 1, 50, 0
2, 239680, Note_off_c, 1, 67, 0
2, 239720, Note_on_c, 1, 48, 127
2, 239720, Note_on_c, 1, 69, 127
2, 239880, Note_off_c, 1, 69, 0
2, 239920, Note_on_c, 1, 63, 127
2, 240080, Note_off_c, 1, 48, 0
2, 240080, Note_off_c, 1, 63, 0
2, 240120, Note_on_c, 1, 46, 127
2, 240120, Note_on_c, 1, 62, 127
2, 240240, Note_off_c, 1, 62, 0
2, 240280, Note_on_c, 1, 60, 127
2, 240440, Note_off_c, 1, 46, 0
2, 240440, Note_off_c, 1, 60, 0
2, 240480, Note_on_c, 1, 45, 127
2, 240480, Note_on_c, 1, 58, 127
2, 240640, Note_off_c, 1, 58, 0
2, 240680, Note_on_c, 1, 57, 127
2, 240840, Note_off_c, 1, 45, 0
2, 240840, Note_off_c, 1, 57, 0
2, 240880, Note_on_c, 1, 43, 127
2, 240880, Note_on_c, 1, 58, 127
2, 241040, Note_off_c, 1, 58, 0
2, 241080, Note_on_c, 1, 60, 127
2, 241200, Note_off_c, 1, 43, 0
2, 241200, Note_off_c, 1, 60, 0
2, 241280, Note_on_c, 1, 41, 127
2, 241280, Note_on_c, 1, 62, 127
2, 241400, Note_off_c, 1, 62, 0
2, 241440, Note_on_c, 1, 56, 127
2, 241600, Note_off_c, 1, 41, 0
2, 241600, Note_off_c, 1, 56, 0
2, 241640, Note_on_c, 1, 39, 127
2, 241640, Note_on_c, 1, 55, 127
2, 241800, Note_off_c, 1, 55, 0
2, 241840, Note_on_c, 1, 53, 127
2, 242000, Note_off_c, 1, 39, 0
2, 242000, Note_off_c, 1, 53, 0
2, 242040, Note_on_c, 1, 38, 127
2, 242040, Note_on_c, 1, 51, 127
2, 242160, Note_off_c, 1, 51, 0
2, 242240, Note_on_c, 1, 50, 127
2, 242360, Note_off_c, 1, 38, 0
2, 242360, Note_off_c, 1, 50, 0
2, 242400, Note_on_c, 1, 40, 127
2, 242400, Note_on_c, 1, 49, 127
2, 242560, Note_off_c, 1, 49, 0
2, 242600, Note_on_c, 1, 50, 127
2, 242760, Note_off_c, 1, 50, 0
2, 242800, Note_on_c, 1, 52, 127
2, 242920, Note_off_c, 1, 40, 0
2, 242960, Note_off_c, 1, 52, 0
2, 243000, Note_on_c, 1, 46, 127
2, 243160, Note_off_c, 1, 46, 0
2, 243200, Note_on_c, 1, 45, 127
2, 243320, Note_off_c, 1, 45, 0
2, 243360, Note_on_c, 1, 43, 127
2, 243520, Note_off_c, 1, 43, 0
2, 243560, Note_on_c, 1, 41, 127
2, 243560, Note_on_c, 1, 74, 127
2, 243640, Note_off_c, 1, 74, 0
2, 243680, Note_on_c, 1, 73, 127
2, 243720, Note_off_c, 1, 41, 0
2, 243720, Note_off_c, 1, 73, 0
2, 243760, Note_on_c, 1, 40, 127
2, 243760, Note_on_c, 1, 71, 127
2, 243800, Note_off_c, 1, 71, 0
2, 243840, Note_on_c, 1, 73, 127
2, 243920, Note_off_c, 1, 40, 0
2, 243920, Note_off_c, 1, 73, 0
2, 243960, Note_on_c, 1, 41, 127
2, 243960, Note_on_c, 1, 74, 127
2, 244160, Note_on_c, 1, 76, 127
2, 244280, Note_off_c, 1, 41, 0
2, 244280, Note_off_c, 1, 76, 0
2, 244360, Note_on_c, 1, 43, 127
2, 244360, Note_on_c, 1, 77, 127
2, 244480, Note_off_c, 1, 77, 0
2, 244520, Note_on_c, 1, 82, 127
2, 244680, Note_off_c, 1, 43, 0
2, 244680, Note_off_c, 1, 74, 0
2, 244680, Note_off_c, 1, 82, 0
2, 244720, Note_on_c, 1, 45, 127
2, 244720, Note_on_c, 1, 73, 127
2, 244720, Note_on_c, 1, 77, 127
2, 244840, Note_off_c, 1, 77, 0
2, 244920, Note_on_c, 1, 76, 127
2, 244960, Note_off_c, 1, 76, 0
2, 245000, Note_on_c, 1, 77, 127
2, 245040, Note_on_c, 1, 76, 127
2, 245040, Note_off_c, 1, 77, 0
2, 245080, Note_off_c, 1, 45, 0
2, 245120, Note_on_c, 1, 45, 127
2, 245120, Note_off_c, 1, 76, 0
2, 245120, Note_on_c, 1, 77, 127
2, 245200, Note_on_c, 1, 76, 127
2, 245200, Note_off_c, 1, 77, 0
2, 245240, Note_off_c, 1, 76, 0
2, 245320, Note_on_c, 1, 74, 127
2, 245440, Note_off_c, 1, 45, 0
2, 245440, Note_off_c, 1, 73, 0
2, 245440, Note_off_c, 1, 74, 0
2, 245480, Note_on_c, 1, 38, 127
2, 245480, Note_on_c, 1, 74, 127
2, 245640, Note_off_c, 1, 74, 0
2, 245680, Note_on_c, 1, 72, 127
2, 245840, Note_off_c, 1, 72, 0
2, 245880, Note_on_c, 1, 70, 127
2, 246040, Note_off_c, 1, 70, 0
2, 246080, Note_on_c, 1, 69, 127
2, 246200, Note_off_c, 1, 38, 0
2, 246240, Note_off_c, 1, 69, 0
2, 246280, Note_on_c, 1, 67, 127
2, 246440, Note_on_c, 1, 69, 127
2, 246600, Note_off_c, 1, 69, 0
2, 246640, Note_on_c, 1, 70, 127
2, 246840, Note_on_c, 1, 61, 127
2, 247000, Note_off_c, 1, 61, 0
2, 247000, Note_off_c, 1, 67, 0
2, 247000, Note_off_c, 1, 70, 0
2, 247040, Note_on_c, 1, 62, 127
2, 247040, Note_on_c, 1, 66, 127
2, 247120, Note_on_c, 1, 69, 127
2, 247240, Note_on_c, 1, 54, 127
2, 247240, Note_on_c, 1, 74, 127
2, 247360, Note_off_c, 1, 54, 0
2, 247440, Note_on_c, 1, 55, 127
2, 247560, Note_off_c, 1, 55, 0
2, 247600, Note_on_c, 1, 57, 127
2, 247760, Note_off_c, 1, 57, 0
2, 247800, Note_on_c, 1, 50, 127
2, 248160, Note_off_c, 1, 62, 0
2, 248160, Note_off_c, 1, 66, 0
2, 248240, Note_off_c, 1, 69, 0
2, 248360, Note_off_c, 1, 74, 0
2, 248400, Note_on_c, 1, 69, 127
2, 248520, Note_off_c, 1, 50, 0
2, 248520, Note_off_c, 1, 69, 0
2, 248560, Note_on_c, 1, 50, 127
2, 248560, Note_on_c, 1, 69, 127
2, 248720, Note_off_c, 1, 69, 0
2, 248760, Note_on_c, 1, 81, 127
2, 248920, Note_off_c, 1, 81, 0
2, 248960, Note_on_c, 1, 78, 127
2, 249120, Note_off_c, 1, 78, 0
2, 249160, Note_on_c, 1, 74, 127
2, 249320, Note_off_c, 1, 74, 0
2, 249360, Note_on_c, 1, 69, 127
2, 249480, Note_off_c, 1, 50, 0
2, 249480, Note_off_c, 1, 69, 0
2, 249520, Note_on_c, 1, 57, 127
2, 249520, Note_on_c, 1, 66, 127
2, 249680, Note_off_c, 1, 57, 0
2, 249680, Note_off_c, 1, 66, 0
2, 249720, Note_on_c, 1, 58, 127
2, 249720, Note_on_c, 1, 67, 127
2, 249880, Note_off_c, 1, 58, 0
2, 249880, Note_off_c, 1, 67, 0
2, 249920, Note_on_c, 1, 60, 127
2, 249920, Note_on_c, 1, 69, 127
2, 250080, Note_off_c, 1, 60, 0
2, 250080, Note_off_c, 1, 69, 0
2, 250120, Note_on_c, 1, 53, 127
2, 250120, Note_on_c, 1, 71, 127
2, 250280, Note_off_c, 1, 71, 0
2, 250320, Note_on_c, 1, 69, 127
2, 250440, Note_off_c, 1, 53, 0
2, 250440, Note_off_c, 1, 69, 0
2, 250520, Note_on_c, 1, 51, 127
2, 250520, Note_on_c, 1, 60, 127
2, 250520, Note_on_c, 1, 67, 127
2, 250640, Note_off_c, 1, 67, 0
2, 250680, Note_on_c, 1, 72, 127
2, 250840, Note_off_c, 1, 51, 0
2, 250840, Note_off_c, 1, 72, 0
2, 250880, Note_on_c, 1, 53, 127
2, 250880, Note_on_c, 1, 74, 127
2, 251040, Note_off_c, 1, 74, 0
2, 251080, Note_on_c, 1, 75, 127
2, 251240, Note_off_c, 1, 53, 0
2, 251240, Note_off_c, 1, 60, 0
2, 251240, Note_off_c, 1, 75, 0
2, 251280, Note_on_c, 1, 55, 127
2, 251280, Note_on_c, 1, 59, 127
2, 251280, Note_on_c, 1, 77, 127
2, 251400, Note_off_c, 1, 77, 0
2, 251480, Note_on_c, 1, 79, 127
2, 251600, Note_off_c, 1, 55, 0
2, 251600, Note_off_c, 1, 59, 0
2, 251600, Note_off_c, 1, 79, 0
2, 251640, Note_on_c, 1, 48, 127
2, 251640, Note_on_c, 1, 77, 127
2, 251680, Note_off_c, 1, 77, 0
2, 251720, Note_on_c, 1, 75, 127
2, 251760, Note_off_c, 1, 75, 0
2, 251800, Note_on_c, 1, 77, 127
2, 251840, Note_on_c, 1, 60, 127
2, 251840, Note_off_c, 1, 77, 0
2, 251880, Note_on_c, 1, 75, 127
2, 252000, Note_off_c, 1, 48, 0
2, 252000, Note_off_c, 1, 60, 0
2, 252000, Note_off_c, 1, 75, 0
2, 252040, Note_on_c, 1, 55, 127
2, 252040, Note_on_c, 1, 74, 127
2, 252200, Note_off_c, 1, 55, 0
2, 252200, Note_off_c, 1, 74, 0
2, 252240, Note_on_c, 1, 51, 127
2, 252240, Note_on_c, 1, 72, 127
2, 252400, Note_off_c, 1, 51, 0
2, 252400, Note_off_c, 1, 72, 0
2, 252440, Note_on_c, 1, 48, 127
2, 252440, Note_on_c, 1, 79, 127
2, 252480, Note_off_c, 1, 79, 0
2, 252520, Note_on_c, 1, 77, 127
2, 252560, Note_off_c, 1, 48, 0
2, 252560, Note_off_c, 1, 77, 0
2, 252600, Note_on_c, 1, 47, 127
2, 252600, Note_on_c, 1, 79, 127
2, 252760, Note_off_c, 1, 47, 0
2, 252800, Note_on_c, 1, 48, 127
2, 252960, Note_off_c, 1, 48, 0
2, 252960, Note_off_c, 1, 79, 0
2, 253000, Note_on_c, 1, 50, 127
2, 253000, Note_on_c, 1, 79, 127
2, 253160, Note_off_c, 1, 50, 0
2, 253160, Note_off_c, 1, 79, 0
2, 253200, Note_on_c, 1, 52, 127
2, 253200, Note_on_c, 1, 79, 127
2, 253360, Note_off_c, 1, 52, 0
2, 253360, Note_off_c, 1, 79, 0
2, 253400, Note_on_c, 1, 50, 127
2, 253400, Note_on_c, 1, 70, 127
2, 253520, Note_off_c, 1, 50, 0
2, 253520, Note_off_c, 1, 70, 0
2, 253560, Note_on_c, 1, 48, 127
2, 253560, Note_on_c, 1, 69, 127
2, 253720, Note_off_c, 1, 48, 0
2, 253720, Note_off_c, 1, 69, 0
2, 253760, Note_on_c, 1, 53, 127
2, 253760, Note_on_c, 1, 72, 127
2, 253920, Note_off_c, 1, 53, 0
2, 253920, Note_off_c, 1, 72, 0
2, 253960, Note_on_c, 1, 55, 127
2, 253960, Note_on_c, 1, 70, 127
2, 254120, Note_off_c, 1, 55, 0
2, 254120, Note_off_c, 1, 70, 0
2, 254160, Note_on_c, 1, 57, 127
2, 254160, Note_on_c, 1, 69, 127
2, 254320, Note_off_c, 1, 57, 0
2, 254320, Note_off_c, 1, 69, 0
2, 254360, Note_on_c, 1, 58, 127
2, 254360, Note_on_c, 1, 67, 127
2, 254480, Note_off_c, 1, 58, 0
2, 254480, Note_off_c, 1, 67, 0
2, 254560, Note_on_c, 1, 60, 127
2, 254560, Note_on_c, 1, 76, 127
2, 254680, Note_off_c, 1, 60, 0
2, 254680, Note_off_c, 1, 76, 0
2, 254720, Note_on_c, 1, 57, 127
2, 254720, Note_on_c, 1, 76, 127
2, 254880, Note_off_c, 1, 57, 0
2, 254880, Note_off_c, 1, 76, 0
2, 254920, Note_on_c, 1, 55, 127
2, 254920, Note_on_c, 1, 77, 127
2, 254960, Note_off_c, 1, 77, 0
2, 255000, Note_on_c, 1, 76, 127
2, 255040, Note_off_c, 1, 76, 0
2, 255040, Note_on_c, 1, 77, 127
2, 255080, Note_off_c, 1, 55, 0
2, 255120, Note_on_c, 1, 53, 127
2, 255280, Note_off_c, 1, 77, 0
2, 255320, Note_on_c, 1, 75, 127
2, 255440, Note_off_c, 1, 53, 0
2, 255440, Note_off_c, 1, 75, 0
2, 255520, Note_on_c, 1, 58, 127
2, 255520, Note_on_c, 1, 74, 127
2, 255640, Note_off_c, 1, 74, 0
2, 255680, Note_on_c, 1, 72, 127
2, 255840, Note_off_c, 1, 58, 0
2, 255840, Note_off_c, 1, 72, 0
2, 255880, Note_on_c, 1, 50, 127
2, 255880, Note_on_c, 1, 70, 127
2, 256040, Note_off_c, 1, 70, 0
2, 256080, Note_on_c, 1, 69, 127
2, 256240, Note_off_c, 1, 50, 0
2, 256240, Note_off_c, 1, 69, 0
2, 256280, Note_on_c, 1, 51, 127
2, 256280, Note_on_c, 1, 67, 127
2, 256440, Note_off_c, 1, 67, 0
2, 256480, Note_on_c, 1, 65, 127
2, 256600, Note_off_c, 1, 51, 0
2, 256600, Note_off_c, 1, 65, 0
2, 256640, Note_on_c, 1, 39, 127
2, 256640, Note_on_c, 1, 67, 127
2, 256800, Note_off_c, 1, 67, 0
2, 256840, Note_on_c, 1, 70, 127
2, 257000, Note_off_c, 1, 39, 0
2, 257000, Note_off_c, 1, 70, 0
2, 257040, Note_on_c, 1, 51, 127
2, 257040, Note_on_c, 1, 72, 127
2, 257200, Note_off_c, 1, 72, 0
2, 257240, Note_on_c, 1, 74, 127
2, 257400, Note_off_c, 1, 51, 0
2, 257400, Note_off_c, 1, 74, 0
2, 257440, Note_on_c, 1, 48, 127
2, 257440, Note_on_c, 1, 75, 127
2, 257560, Note_off_c, 1, 75, 0
2, 257600, Note_on_c, 1, 72, 127
2, 257760, Note_off_c, 1, 48, 0
2, 257760, Note_off_c, 1, 72, 0
2, 257800, Note_on_c, 1, 53, 127
2, 257800, Note_on_c, 1, 70, 127
2, 257960, Note_off_c, 1, 53, 0
2, 257960, Note_off_c, 1, 70, 0
2, 258000, Note_on_c, 1, 41, 127
2, 258000, Note_on_c, 1, 69, 127
2, 258160, Note_off_c, 1, 41, 0
2, 258160, Note_off_c, 1, 69, 0
2, 258200, Note_on_c, 1, 45, 127
2, 258200, Note_on_c, 1, 67, 127
2, 258360, Note_off_c, 1, 45, 0
2, 258360, Note_off_c, 1, 67, 0
2, 258400, Note_on_c, 1, 48, 127
2, 258400, Note_on_c, 1, 65, 127
2, 258520, Note_off_c, 1, 48, 0
2, 258520, Note_off_c, 1, 65, 0
2, 258600, Note_on_c, 1, 51, 127
2, 258600, Note_on_c, 1, 77, 127
2, 258720, Note_off_c, 1, 51, 0
2, 258760, Note_on_c, 1, 55, 127
2, 258920, Note_off_c, 1, 55, 0
2, 258960, Note_on_c, 1, 53, 127
2, 259120, Note_off_c, 1, 53, 0
2, 259120, Note_off_c, 1, 77, 0
2, 259160, Note_on_c, 1, 51, 127
2, 259160, Note_on_c, 1, 69, 127
2, 259320, Note_off_c, 1, 51, 0
2, 259320, Note_off_c, 1, 69, 0
2, 259360, Note_on_c, 1, 50, 127
2, 259360, Note_on_c, 1, 70, 127
2, 259480, Note_off_c, 1, 50, 0
2, 259480, Note_off_c, 1, 70, 0
2, 259560, Note_on_c, 1, 48, 127
2, 259560, Note_on_c, 1, 75, 127
2, 259680, Note_off_c, 1, 48, 0
2, 259680, Note_off_c, 1, 75, 0
2, 259720, Note_on_c, 1, 46, 127
2, 259720, Note_on_c, 1, 74, 127
2, 259880, Note_off_c, 1, 46, 0
2, 259880, Note_off_c, 1, 74, 0
2, 259920, Note_on_c, 1, 51, 127
2, 259920, Note_on_c, 1, 72, 127
2, 260080, Note_off_c, 1, 51, 0
2, 260080, Note_off_c, 1, 72, 0
2, 260120, Note_on_c, 1, 53, 127
2, 260120, Note_on_c, 1, 69, 127
2, 260120, Note_on_c, 1, 74, 127
2, 260240, Note_off_c, 1, 74, 0
2, 260280, Note_on_c, 1, 72, 127
2, 260320, Note_off_c, 1, 72, 0
2, 260360, Note_on_c, 1, 74, 127
2, 260400, Note_off_c, 1, 74, 0
2, 260440, Note_on_c, 1, 72, 127
2, 260480, Note_off_c, 1, 53, 0
2, 260480, Note_off_c, 1, 72, 0
2, 260520, Note_on_c, 1, 41, 127
2, 260520, Note_on_c, 1, 74, 127
2, 260560, Note_off_c, 1, 74, 0
2, 260600, Note_on_c, 1, 72, 127
2, 260640, Note_off_c, 1, 72, 0
2, 260680, Note_on_c, 1, 70, 127
2, 260840, Note_off_c, 1, 41, 0
2, 260840, Note_off_c, 1, 69, 0
2, 260840, Note_off_c, 1, 70, 0
2, 260880, Note_on_c, 1, 46, 127
2, 260880, Note_on_c, 1, 70, 127
2, 261040, Note_off_c, 1, 46, 0
2, 261080, Note_on_c, 1, 58, 127
2, 261240, Note_off_c, 1, 58, 0
2, 261280, Note_on_c, 1, 53, 127
2, 261440, Note_off_c, 1, 53, 0
2, 261480, Note_on_c, 1, 50, 127
2, 261600, Note_off_c, 1, 50, 0
2, 261640, Note_on_c, 1, 46, 127
2, 261800, Note_off_c, 1, 46, 0
2, 261800, Note_off_c, 1, 70, 0
2, 261840, Note_on_c, 1, 43, 127
2, 261840, Note_on_c, 1, 74, 127
2, 262000, Note_off_c, 1, 43, 0
2, 262000, Note_off_c, 1, 74, 0
2, 262040, Note_on_c, 1, 45, 127
2, 262040, Note_on_c, 1, 72, 127
2, 262200, Note_off_c, 1, 45, 0
2, 262200, Note_off_c, 1, 72, 0
2, 262240, Note_on_c, 1, 46, 127
2, 262240, Note_on_c, 1, 74, 127
2, 262400, Note_off_c, 1, 46, 0
2, 262400, Note_off_c, 1, 74, 0
2, 262440, Note_on_c, 1, 48, 127
2, 262440, Note_on_c, 1, 63, 127
2, 262560, Note_off_c, 1, 48, 0
2, 262560, Note_off_c, 1, 63, 0
2, 262640, Note_on_c, 1, 46, 127
2, 262640, Note_on_c, 1, 62, 127
2, 262760, Note_off_c, 1, 46, 0
2, 262760, Note_off_c, 1, 62, 0
2, 262800, Note_on_c, 1, 45, 127
2, 262800, Note_on_c, 1, 60, 127
2, 262960, Note_off_c, 1, 45, 0
2, 263000, Note_on_c, 1, 50, 127
2, 263160, Note_off_c, 1, 50, 0
2, 263200, Note_on_c, 1, 52, 127
2, 263280, Note_off_c, 1, 60, 0
2, 263360, Note_off_c, 1, 52, 0
2, 263400, Note_on_c, 1, 54, 127
2, 263400, Note_on_c, 1, 69, 127
2, 263520, Note_off_c, 1, 54, 0
2, 263520, Note_off_c, 1, 69, 0
2, 263600, Note_on_c, 1, 55, 127
2, 263600, Note_on_c, 1, 70, 127
2, 263720, Note_off_c, 1, 55, 0
2, 263720, Note_off_c, 1, 70, 0
2, 263760, Note_on_c, 1, 57, 127
2, 263760, Note_on_c, 1, 72, 127
2, 263920, Note_off_c, 1, 57, 0
2, 263920, Note_off_c, 1, 72, 0
2, 263960, Note_on_c, 1, 50, 127
2, 263960, Note_on_c, 1, 66, 127
2, 264120, Note_off_c, 1, 66, 0
2, 264160, Note_on_c, 1, 74, 127
2, 264320, Note_off_c, 1, 74, 0
2, 264360, Note_on_c, 1, 69, 127
2, 264520, Note_off_c, 1, 69, 0
2, 264560, Note_on_c, 1, 66, 127
2, 264680, Note_off_c, 1, 66, 0
2, 264720, Note_on_c, 1, 62, 127
2, 264880, Note_off_c, 1, 50, 0
2, 264880, Note_off_c, 1, 62, 0
2, 264920, Note_on_c, 1, 55, 127
2, 264920, Note_on_c, 1, 61, 127
2, 265080, Note_off_c, 1, 55, 0
2, 265080, Note_off_c, 1, 61, 0
2, 265120, Note_on_c, 1, 54, 127
2, 265120, Note_on_c, 1, 62, 127
2, 265280, Note_off_c, 1, 54, 0
2, 265280, Note_off_c, 1, 62, 0
2, 265320, Note_on_c, 1, 55, 127
2, 265320, Note_on_c, 1, 64, 127
2, 265480, Note_off_c, 1, 55, 0
2, 265480, Note_off_c, 1, 64, 0
2, 265520, Note_on_c, 1, 48, 127
2, 265520, Note_on_c, 1, 66, 127
2, 265640, Note_off_c, 1, 66, 0
2, 265680, Note_on_c, 1, 64, 127
2, 265840, Note_off_c, 1, 48, 0
2, 265840, Note_off_c, 1, 64, 0
2, 265880, Note_on_c, 1, 46, 127
2, 265880, Note_on_c, 1, 55, 127
2, 265880, Note_on_c, 1, 62, 127
2, 266040, Note_off_c, 1, 62, 0
2, 266080, Note_on_c, 1, 67, 127
2, 266240, Note_off_c, 1, 46, 0
2, 266240, Note_off_c, 1, 67, 0
2, 266280, Note_on_c, 1, 48, 127
2, 266280, Note_on_c, 1, 69, 127
2, 266440, Note_off_c, 1, 69, 0
2, 266480, Note_on_c, 1, 70, 127
2, 266600, Note_off_c, 1, 48, 0
2, 266600, Note_off_c, 1, 55, 0
2, 266600, Note_off_c, 1, 70, 0
2, 266680, Note_on_c, 1, 50, 127
2, 266680, Note_on_c, 1, 54, 127
2, 266680, Note_on_c, 1, 72, 127
2, 266800, Note_off_c, 1, 72, 0
2, 266840, Note_on_c, 1, 74, 127
2, 267000, Note_off_c, 1, 50, 0
2, 267000, Note_off_c, 1, 54, 0
2, 267000, Note_off_c, 1, 74, 0
2, 267040, Note_on_c, 1, 55, 127
2, 267040, Note_on_c, 1, 70, 127
2, 267200, Note_off_c, 1, 70, 0
2, 267240, Note_on_c, 1, 43, 127
2, 267240, Note_on_c, 1, 69, 127
2, 267400, Note_off_c, 1, 43, 0
2, 267400, Note_off_c, 1, 55, 0
2, 267400, Note_off_c, 1, 69, 0
2, 267440, Note_on_c, 1, 46, 127
2, 267440, Note_on_c, 1, 67, 127
2, 267560, Note_off_c, 1, 46, 0
2, 267560, Note_off_c, 1, 67, 0
2, 267640, Note_on_c, 1, 50, 127
2, 267640, Note_on_c, 1, 69, 127
2, 267760, Note_off_c, 1, 50, 0
2, 267760, Note_off_c, 1, 69, 0
2, 267800, Note_on_c, 1, 55, 127
2, 267800, Note_on_c, 1, 70, 127
2, 267960, Note_off_c, 1, 55, 0
2, 267960, Note_off_c, 1, 70, 0
2, 268000, Note_on_c, 1, 55, 127
2, 268000, Note_on_c, 1, 72, 127
2, 268160, Note_off_c, 1, 55, 0
2, 268160, Note_off_c, 1, 72, 0
2, 268200, Note_on_c, 1, 53, 127
2, 268200, Note_on_c, 1, 74, 127
2, 268360, Note_off_c, 1, 53, 0
2, 268360, Note_off_c, 1, 74, 0
2, 268400, Note_on_c, 1, 51, 127
2, 268400, Note_on_c, 1, 75, 127
2, 268520, Note_off_c, 1, 51, 0
2, 268520, Note_off_c, 1, 75, 0
2, 268600, Note_on_c, 1, 50, 127
2, 268600, Note_on_c, 1, 77, 127
2, 268720, Note_off_c, 1, 50, 0
2, 268760, Note_on_c, 1, 51, 127
2, 268920, Note_off_c, 1, 51, 0
2, 268920, Note_off_c, 1, 77, 0
2, 268960, Note_on_c, 1, 53, 127
2, 268960, Note_on_c, 1, 70, 127
2, 269120, Note_off_c, 1, 53, 0
2, 269160, Note_on_c, 1, 48, 127
2, 269320, Note_off_c, 1, 48, 0
2, 269320, Note_off_c, 1, 70, 0
2, 269360, Note_on_c, 1, 46, 127
2, 269360, Note_on_c, 1, 80, 127
2, 269400, Note_off_c, 1, 80, 0
2, 269440, Note_on_c, 1, 79, 127
2, 269520, Note_off_c, 1, 46, 0
2, 269520, Note_off_c, 1, 79, 0
2, 269560, Note_on_c, 1, 44, 127
2, 269560, Note_on_c, 1, 80, 127
2, 269680, Note_off_c, 1, 44, 0
2, 269720, Note_on_c, 1, 43, 127
2, 269880, Note_off_c, 1, 43, 0
2, 269880, Note_off_c, 1, 80, 0
2, 269920, Note_on_c, 1, 41, 127
2, 269920, Note_on_c, 1, 82, 127
2, 270080, Note_off_c, 1, 41, 0
2, 270080, Note_off_c, 1, 82, 0
2, 270120, Note_on_c, 1, 39, 127
2, 270120, Note_on_c, 1, 79, 127
2, 270320, Note_on_c, 1, 77, 127
2, 270480, Note_off_c, 1, 77, 0
2, 270520, Note_on_c, 1, 75, 127
2, 270640, Note_off_c, 1, 75, 0
2, 270720, Note_on_c, 1, 74, 127
2, 270840, Note_off_c, 1, 39, 0
2, 270840, Note_off_c, 1, 74, 0
2, 270880, Note_on_c, 1, 51, 127
2, 270880, Note_on_c, 1, 72, 127
2, 271040, Note_off_c, 1, 72, 0
2, 271080, Note_on_c, 1, 74, 127
2, 271240, Note_off_c, 1, 74, 0
2, 271280, Note_on_c, 1, 75, 127
2, 271440, Note_off_c, 1, 75, 0
2, 271480, Note_on_c, 1, 70, 127
2, 271640, Note_off_c, 1, 70, 0
2, 271640, Note_off_c, 1, 79, 0
2, 271680, Note_on_c, 1, 69, 127
2, 271680, Note_on_c, 1, 77, 127
2, 271800, Note_off_c, 1, 51, 0
2, 271840, Note_on_c, 1, 67, 127
2, 272000, Note_off_c, 1, 67, 0
2, 272040, Note_on_c, 1, 65, 127
2, 272200, Note_off_c, 1, 65, 0
2, 272240, Note_on_c, 1, 63, 127
2, 272400, Note_off_c, 1, 63, 0
2, 272400, Note_off_c, 1, 69, 0
2, 272440, Note_on_c, 1, 62, 127
2, 272440, Note_on_c, 1, 68, 127
2, 272600, Note_off_c, 1, 62, 0
2, 272600, Note_off_c, 1, 77, 0
2, 272640, Note_on_c, 1, 63, 127
2, 272640, Note_on_c, 1, 75, 127
2, 272760, Note_off_c, 1, 63, 0
2, 272760, Note_off_c, 1, 75, 0
2, 272800, Note_on_c, 1, 65, 127
2, 272800, Note_on_c, 1, 74, 127
2, 272960, Note_off_c, 1, 65, 0
2, 272960, Note_off_c, 1, 74, 0
2, 273000, Note_on_c, 1, 56, 127
2, 273000, Note_on_c, 1, 72, 127
2, 273160, Note_off_c, 1, 56, 0
2, 273160, Note_off_c, 1, 72, 0
2, 273200, Note_on_c, 1, 55, 127
2, 273200, Note_on_c, 1, 71, 127
2, 273360, Note_off_c, 1, 55, 0
2, 273360, Note_off_c, 1, 68, 0
2, 273360, Note_off_c, 1, 71, 0
2, 273400, Note_on_c, 1, 53, 127
2, 273400, Note_on_c, 1, 69, 127
2, 273560, Note_off_c, 1, 53, 0
2, 273560, Note_off_c, 1, 69, 0
2, 273600, Note_on_c, 1, 51, 127
2, 273600, Note_on_c, 1, 67, 127
2, 273720, Note_off_c, 1, 51, 0
2, 273760, Note_on_c, 1, 50, 127
2, 273920, Note_off_c, 1, 50, 0
2, 273960, Note_on_c, 1, 48, 127
2, 273960, Note_on_c, 1, 75, 127
2, 274040, Note_off_c, 1, 75, 0
2, 274080, Note_on_c, 1, 74, 127
2, 274120, Note_off_c, 1, 48, 0
2, 274120, Note_off_c, 1, 74, 0
2, 274160, Note_on_c, 1, 50, 127
2, 274160, Note_on_c, 1, 75, 127
2, 274320, Note_off_c, 1, 50, 0
2, 274360, Note_on_c, 1, 51, 127
2, 274520, Note_off_c, 1, 51, 0
2, 274520, Note_off_c, 1, 75, 0
2, 274560, Note_on_c, 1, 43, 127
2, 274560, Note_on_c, 1, 75, 127
2, 274680, Note_off_c, 1, 43, 0
2, 274680, Note_off_c, 1, 67, 0
2, 274680, Note_off_c, 1, 75, 0
2, 274760, Note_on_c, 1, 42, 127
2, 274760, Note_on_c, 1, 69, 127
2, 274760, Note_on_c, 1, 75, 127
2, 274880, Note_off_c, 1, 75, 0
2, 274920, Note_on_c, 1, 74, 127
2, 275080, Note_off_c, 1, 42, 0
2, 275080, Note_off_c, 1, 69, 0
2, 275080, Note_off_c, 1, 74, 0
2, 275120, Note_on_c, 1, 43, 127
2, 275120, Note_on_c, 1, 72, 127
2, 275280, Note_off_c, 1, 72, 0
2, 275320, Note_on_c, 1, 70, 127
2, 275480, Note_off_c, 1, 43, 0
2, 275480, Note_off_c, 1, 70, 0
2, 275520, Note_on_c, 1, 48, 127
2, 275520, Note_on_c, 1, 69, 127
2, 275640, Note_off_c, 1, 69, 0
2, 275720, Note_on_c, 1, 70, 127
2, 275840, Note_off_c, 1, 48, 0
2, 275840, Note_off_c, 1, 70, 0
2, 275880, Note_on_c, 1, 45, 127
2, 275880, Note_on_c, 1, 72, 127
2, 276040, Note_off_c, 1, 72, 0
2, 276080, Note_on_c, 1, 67, 127
2, 276240, Note_off_c, 1, 45, 0
2, 276240, Note_off_c, 1, 67, 0
2, 276280, Note_on_c, 1, 50, 127
2, 276280, Note_on_c, 1, 66, 127
2, 276440, Note_off_c, 1, 66, 0
2, 276480, Note_on_c, 1, 67, 127
2, 276640, Note_off_c, 1, 67, 0
2, 276680, Note_on_c, 1, 69, 127
2, 276800, Note_off_c, 1, 50, 0
2, 276840, Note_on_c, 1, 63, 127
2, 277000, Note_off_c, 1, 63, 0
2, 277000, Note_off_c, 1, 69, 0
2, 277040, Note_on_c, 1, 62, 127
2, 277040, Note_on_c, 1, 69, 127
2, 277120, Note_off_c, 1, 69, 0
2, 277160, Note_on_c, 1, 67, 127
2, 277200, Note_off_c, 1, 62, 0
2, 277200, Note_off_c, 1, 67, 0
2, 277240, Note_on_c, 1, 60, 127
2, 277240, Note_on_c, 1, 69, 127
2, 277400, Note_off_c, 1, 60, 0
2, 277440, Note_on_c, 1, 58, 127
2, 277600, Note_off_c, 1, 58, 0
2, 277600, Note_off_c, 1, 69, 0
2, 277640, Note_on_c, 1, 57, 127
2, 277640, Note_on_c, 1, 69, 127
2, 277760, Note_off_c, 1, 57, 0
2, 277760, Note_off_c, 1, 69, 0
2, 277800, Note_on_c, 1, 58, 127
2, 277800, Note_on_c, 1, 69, 127
2, 277960, Note_off_c, 1, 58, 0
2, 277960, Note_off_c, 1, 69, 0
2, 278000, Note_on_c, 1, 60, 127
2, 278000, Note_on_c, 1, 67, 127
2, 278160, Note_off_c, 1, 60, 0
2, 278160, Note_off_c, 1, 67, 0
2, 278200, Note_on_c, 1, 62, 127
2, 278200, Note_on_c, 1, 66, 127
2, 278360, Note_off_c, 1, 62, 0
2, 278360, Note_off_c, 1, 66, 0
2, 278400, Note_on_c, 1, 58, 127
2, 278400, Note_on_c, 1, 67, 127
2, 278560, Note_off_c, 1, 58, 0
2, 278560, Note_off_c, 1, 67, 0
2, 278600, Note_on_c, 1, 57, 127
2, 278600, Note_on_c, 1, 72, 127
2, 278720, Note_off_c, 1, 57, 0
2, 278800, Note_on_c, 1, 55, 127
2, 278800, Note_on_c, 1, 70, 127
2, 278920, Note_off_c, 1, 55, 0
2, 278920, Note_off_c, 1, 70, 0
2, 278960, Note_on_c, 1, 54, 127
2, 278960, Note_on_c, 1, 69, 127
2, 279120, Note_off_c, 1, 54, 0
2, 279120, Note_off_c, 1, 69, 0
2, 279120, Note_off_c, 1, 72, 0
2, 279160, Note_on_c, 1, 52, 127
2, 279160, Note_on_c, 1, 67, 127
2, 279160, Note_on_c, 1, 72, 127
2, 279320, Note_off_c, 1, 52, 0
2, 279320, Note_off_c, 1, 67, 0
2, 279320, Note_off_c, 1, 72, 0
2, 279360, Note_on_c, 1, 54, 127
2, 279360, Note_on_c, 1, 69, 127
2, 279360, Note_on_c, 1, 72, 127
2, 279520, Note_off_c, 1, 54, 0
2, 279560, Note_on_c, 1, 55, 127
2, 279680, Note_off_c, 1, 55, 0
2, 279760, Note_on_c, 1, 57, 127
2, 279880, Note_off_c, 1, 57, 0
2, 279920, Note_on_c, 1, 51, 127
2, 280080, Note_off_c, 1, 51, 0
2, 280120, Note_on_c, 1, 50, 127
2, 280280, Note_off_c, 1, 50, 0
2, 280320, Note_on_c, 1, 48, 127
2, 280480, Note_off_c, 1, 48, 0
2, 280480, Note_off_c, 1, 69, 0
2, 280480, Note_off_c, 1, 72, 0
2, 280520, Note_on_c, 1, 46, 127
2, 280520, Note_on_c, 1, 67, 127
2, 280560, Note_off_c, 1, 67, 0
2, 280600, Note_on_c, 1, 66, 127
2, 280680, Note_off_c, 1, 46, 0
2, 280680, Note_off_c, 1, 66, 0
2, 280720, Note_on_c, 1, 45, 127
2, 280720, Note_on_c, 1, 64, 127
2, 280760, Note_off_c, 1, 64, 0
2, 280800, Note_on_c, 1, 66, 127
2, 280840, Note_off_c, 1, 45, 0
2, 280840, Note_off_c, 1, 66, 0
2, 280880, Note_on_c, 1, 46, 127
2, 280880, Note_on_c, 1, 67, 127
2, 281080, Note_on_c, 1, 69, 127
2, 281240, Note_off_c, 1, 46, 0
2, 281240, Note_off_c, 1, 69, 0
2, 281280, Note_on_c, 1, 48, 127
2, 281280, Note_on_c, 1, 70, 127
2, 281440, Note_off_c, 1, 70, 0
2, 281480, Note_on_c, 1, 75, 127
2, 281640, Note_off_c, 1, 48, 0
2, 281640, Note_off_c, 1, 67, 0
2, 281640, Note_off_c, 1, 75, 0
2, 281680, Note_on_c, 1, 50, 127
2, 281680, Note_on_c, 1, 66, 127
2, 281680, Note_on_c, 1, 70, 127
2, 281720, Note_off_c, 1, 70, 0
2, 281760, Note_on_c, 1, 69, 127
2, 281840, Note_off_c, 1, 69, 0
2, 281880, Note_on_c, 1, 70, 127
2, 281920, Note_off_c, 1, 70, 0
2, 281960, Note_on_c, 1, 69, 127
2, 282040, Note_off_c, 1, 50, 0
2, 282040, Note_off_c, 1, 69, 0
2, 282080, Note_on_c, 1, 38, 127
2, 282080, Note_on_c, 1, 70, 127
2, 282120, Note_off_c, 1, 70, 0
2, 282160, Note_on_c, 1, 69, 127
2, 282200, Note_off_c, 1, 66, 0
2, 282240, Note_off_c, 1, 69, 0
2, 282280, Note_on_c, 1, 67, 127
2, 282440, Note_off_c, 1, 38, 0
2, 282440, Note_off_c, 1, 67, 0
2, 282480, Note_on_c, 1, 43, 127
2, 282480, Note_on_c, 1, 67, 127
2, 282680, Note_on_c, 1, 65, 127
2, 282840, Note_off_c, 1, 65, 0
2, 282880, Note_on_c, 1, 63, 127
2, 283040, Note_off_c, 1, 63, 0
2, 283080, Note_on_c, 1, 62, 127
2, 283280, Note_off_c, 1, 62, 0
2, 283320, Note_on_c, 1, 60, 127
2, 283480, Note_off_c, 1, 43, 0
2, 283480, Note_off_c, 1, 60, 0
2, 283520, Note_on_c, 1, 62, 127
2, 283680, Note_off_c, 1, 62, 0
2, 283720, Note_on_c, 1, 63, 127
2, 283960, Note_on_c, 1, 54, 127
2, 284120, Note_off_c, 1, 54, 0
2, 284120, Note_off_c, 1, 63, 0
2, 284160, Note_on_c, 1, 55, 127
2, 284160, Note_on_c, 1, 58, 127
2, 284280, Note_on_c, 1, 62, 127
2, 284320, Note_off_c, 1, 67, 0
2, 284400, Note_on_c, 1, 46, 127
2, 284400, Note_on_c, 1, 67, 127
2, 284600, Note_off_c, 1, 46, 0
2, 284640, Note_on_c, 1, 48, 127
2, 284840, Note_off_c, 1, 48, 0
2, 284880, Note_on_c, 1, 50, 127
2, 285120, Note_off_c, 1, 50, 0
2, 285160, Note_on_c, 1, 43, 127
2, 287920, Note_off_c, 1, 55, 0
2, 287920, Note_off_c, 1, 58, 0
2, 287960, Note_off_c, 1, 62, 0
2, 287960, Note_off_c, 1, 67, 0
2, 288000, Note_off_c, 1, 43, 0
2, 289680, Note_on_c, 1, 62, 127
2, 289800, Note_off_c, 1, 62, 0
2, 289880, Note_on_c, 1, 55, 127
2, 289880, Note_on_c, 1, 62, 127
2, 290040, Note_on_c, 1, 60, 127
2, 290200, Note_off_c, 1, 60, 0
2, 290240, Note_on_c, 1, 58, 127
2, 290400, Note_off_c, 1, 58, 0
2, 290440, Note_on_c, 1, 57, 127
2, 290600, Note_off_c, 1, 57, 0
2, 290640, Note_on_c, 1, 58, 127
2, 290800, Note_off_c, 1, 55, 0
2, 290840, Note_on_c, 1, 54, 127
2, 291000, Note_off_c, 1, 54, 0
2, 291040, Note_on_c, 1, 55, 127
2, 291200, Note_off_c, 1, 55, 0
2, 291200, Note_off_c, 1, 62, 0
2, 291240, Note_on_c, 1, 50, 127
2, 291240, Note_on_c, 1, 62, 127
2, 291400, Note_off_c, 1, 50, 0
2, 291400, Note_off_c, 1, 58, 0
2, 291400, Note_off_c, 1, 62, 0
2, 291440, Note_on_c, 1, 51, 127
2, 291440, Note_on_c, 1, 67, 127
2, 291600, Note_off_c, 1, 51, 0
2, 291600, Note_off_c, 1, 67, 0
2, 291640, Note_on_c, 1, 48, 127
2, 291640, Note_on_c, 1, 69, 127
2, 291760, Note_off_c, 1, 48, 0
2, 291760, Note_off_c, 1, 69, 0
2, 291840, Note_on_c, 1, 50, 127
2, 291840, Note_on_c, 1, 66, 127
2, 291960, Note_off_c, 1, 50, 0
2, 291960, Note_off_c, 1, 66, 0
2, 292000, Note_on_c, 1, 51, 127
2, 292000, Note_on_c, 1, 67, 127
2, 292160, Note_off_c, 1, 51, 0
2, 292160, Note_off_c, 1, 67, 0
2, 292200, Note_on_c, 1, 42, 127
2, 292200, Note_on_c, 1, 69, 127
2, 292400, Note_on_c, 1, 63, 127
2, 292560, Note_off_c, 1, 63, 0
2, 292600, Note_on_c, 1, 62, 127
2, 292760, Note_off_c, 1, 62, 0
2, 292800, Note_on_c, 1, 60, 127
2, 292960, Note_off_c, 1, 42, 0
2, 292960, Note_off_c, 1, 60, 0
2, 293000, Note_on_c, 1, 62, 127
2, 293040, Note_off_c, 1, 62, 0
2, 293080, Note_on_c, 1, 60, 127
2, 293160, Note_off_c, 1, 60, 0
2, 293200, Note_on_c, 1, 57, 127
2, 293200, Note_on_c, 1, 62, 127
2, 293360, Note_off_c, 1, 57, 0
2, 293400, Note_on_c, 1, 58, 127
2, 293520, Note_off_c, 1, 69, 0
2, 293560, Note_off_c, 1, 58, 0
2, 293560, Note_off_c, 1, 62, 0
2, 293600, Note_on_c, 1, 60, 127
2, 293600, Note_on_c, 1, 62, 127
2, 293720, Note_off_c, 1, 60, 0
2, 293720, Note_off_c, 1, 62, 0
2, 293760, Note_on_c, 1, 54, 127
2, 293760, Note_on_c, 1, 69, 127
2, 293920, Note_off_c, 1, 54, 0
2, 293920, Note_off_c, 1, 69, 0
2, 293960, Note_on_c, 1, 55, 127
2, 293960, Note_on_c, 1, 70, 127
2, 294120, Note_off_c, 1, 55, 0
2, 294120, Note_off_c, 1, 70, 0
2, 294160, Note_on_c, 1, 57, 127
2, 294160, Note_on_c, 1, 67, 127
2, 294320, Note_off_c, 1, 57, 0
2, 294320, Note_off_c, 1, 67, 0
2, 294360, Note_on_c, 1, 50, 127
2, 294360, Note_on_c, 1, 69, 127
2, 294520, Note_off_c, 1, 50, 0
2, 294520, Note_off_c, 1, 69, 0
2, 294560, Note_on_c, 1, 55, 127
2, 294560, Note_on_c, 1, 70, 127
2, 294760, Note_on_c, 1, 69, 127
2, 294920, Note_off_c, 1, 55, 0
2, 294920, Note_off_c, 1, 69, 0
2, 294960, Note_on_c, 1, 50, 127
2, 294960, Note_on_c, 1, 67, 127
2, 295120, Note_off_c, 1, 67, 0
2, 295160, Note_on_c, 1, 66, 127
2, 295320, Note_off_c, 1, 50, 0
2, 295320, Note_off_c, 1, 66, 0
2, 295360, Note_on_c, 1, 51, 127
2, 295360, Note_on_c, 1, 67, 127
2, 295480, Note_off_c, 1, 67, 0
2, 295560, Note_on_c, 1, 62, 127
2, 295680, Note_off_c, 1, 51, 0
2, 295680, Note_off_c, 1, 62, 0
2, 295720, Note_on_c, 1, 55, 127
2, 295720, Note_on_c, 1, 63, 127
2, 295880, Note_off_c, 1, 63, 0
2, 295880, Note_off_c, 1, 70, 0
2, 295920, Note_on_c, 1, 70, 127
2, 296080, Note_off_c, 1, 55, 0
2, 296080, Note_off_c, 1, 70, 0
2, 296120, Note_on_c, 1, 48, 127
2, 296120, Note_on_c, 1, 69, 127
2, 296280, Note_off_c, 1, 69, 0
2, 296320, Note_on_c, 1, 72, 127
2, 296480, Note_off_c, 1, 48, 0
2, 296480, Note_off_c, 1, 72, 0
2, 296520, Note_on_c, 1, 51, 127
2, 296520, Note_on_c, 1, 66, 127
2, 296680, Note_off_c, 1, 66, 0
2, 296720, Note_on_c, 1, 67, 127
2, 296880, Note_off_c, 1, 51, 0
2, 296880, Note_off_c, 1, 67, 0
2, 296920, Note_on_c, 1, 50, 127
2, 296920, Note_on_c, 1, 67, 127
2, 296960, Note_off_c, 1, 67, 0
2, 297000, Note_on_c, 1, 66, 127
2, 297040, Note_off_c, 1, 66, 0
2, 297080, Note_on_c, 1, 67, 127
2, 297120, Note_off_c, 1, 67, 0
2, 297160, Note_on_c, 1, 66, 127
2, 297240, Note_off_c, 1, 66, 0
2, 297320, Note_on_c, 1, 64, 127
2, 297440, Note_off_c, 1, 50, 0
2, 297440, Note_off_c, 1, 64, 0
2, 297480, Note_on_c, 1, 48, 127
2, 297480, Note_on_c, 1, 62, 127
2, 297640, Note_off_c, 1, 48, 0
2, 297640, Note_off_c, 1, 62, 0
2, 297680, Note_on_c, 1, 46, 127
2, 297680, Note_on_c, 1, 74, 127
2, 297840, Note_off_c, 1, 46, 0
2, 297880, Note_on_c, 1, 45, 127
2, 298040, Note_off_c, 1, 45, 0
2, 298080, Note_on_c, 1, 46, 127
2, 298240, Note_off_c, 1, 46, 0
2, 298240, Note_off_c, 1, 74, 0
2, 298280, Note_on_c, 1, 43, 127
2, 298280, Note_on_c, 1, 75, 127
2, 298440, Note_off_c, 1, 43, 0
2, 298440, Note_off_c, 1, 75, 0
2, 298480, Note_on_c, 1, 50, 127
2, 298480, Note_on_c, 1, 74, 127
2, 298640, Note_off_c, 1, 74, 0
2, 298680, Note_on_c, 1, 72, 127
2, 298840, Note_off_c, 1, 50, 0
2, 298840, Note_off_c, 1, 72, 0
2, 298880, Note_on_c, 1, 38, 127
2, 298880, Note_on_c, 1, 70, 127
2, 299040, Note_off_c, 1, 70, 0
2, 299080, Note_on_c, 1, 69, 127
2, 299200, Note_off_c, 1, 38, 0
2, 299200, Note_off_c, 1, 69, 0
2, 299280, Note_on_c, 1, 43, 127
2, 299280, Note_on_c, 1, 70, 127
2, 299400, Note_off_c, 1, 70, 0
2, 299440, Note_on_c, 1, 69, 127
2, 299600, Note_off_c, 1, 69, 0
2, 299640, Note_on_c, 1, 46, 127
2, 299640, Note_on_c, 1, 67, 127
2, 299800, Note_off_c, 1, 67, 0
2, 299840, Note_on_c, 1, 69, 127
2, 300000, Note_off_c, 1, 46, 0
2, 300000, Note_off_c, 1, 69, 0
2, 300040, Note_on_c, 1, 50, 127
2, 300040, Note_on_c, 1, 70, 127
2, 300200, Note_off_c, 1, 70, 0
2, 300240, Note_on_c, 1, 72, 127
2, 300400, Note_off_c, 1, 43, 0
2, 300400, Note_off_c, 1, 50, 0
2, 300400, Note_off_c, 1, 72, 0
2, 300440, Note_on_c, 1, 55, 127
2, 300440, Note_on_c, 1, 74, 127
2, 300600, Note_off_c, 1, 74, 0
2, 300640, Note_on_c, 1, 75, 127
2, 300800, Note_off_c, 1, 55, 0
2, 300800, Note_off_c, 1, 75, 0
2, 300840, Note_on_c, 1, 53, 127
2, 300840, Note_on_c, 1, 77, 127
2, 300960, Note_off_c, 1, 77, 0
2, 301000, Note_on_c, 1, 75, 127
2, 301040, Note_off_c, 1, 75, 0
2, 301080, Note_on_c, 1, 77, 127
2, 301120, Note_off_c, 1, 77, 0
2, 301160, Note_off_c, 1, 53, 0
2, 301160, Note_on_c, 1, 75, 127
2, 301200, Note_on_c, 1, 51, 127
2, 301240, Note_off_c, 1, 75, 0
2, 301280, Note_on_c, 1, 77, 127
2, 301320, Note_off_c, 1, 77, 0
2, 301360, Note_on_c, 1, 75, 127
2, 301400, Note_off_c, 1, 75, 0
2, 301440, Note_on_c, 1, 74, 127
2, 301480, Note_off_c, 1, 74, 0
2, 301520, Note_on_c, 1, 75, 127
2, 301560, Note_off_c, 1, 51, 0
2, 301560, Note_off_c, 1, 75, 0
2, 301600, Note_on_c, 1, 50, 127
2, 301600, Note_on_c, 1, 77, 127
2, 301760, Note_off_c, 1, 50, 0
2, 301800, Note_on_c, 1, 53, 127
2, 301960, Note_off_c, 1, 53, 0
2, 302000, Note_on_c, 1, 55, 127
2, 302160, Note_off_c, 1, 55, 0
2, 302160, Note_off_c, 1, 77, 0
2, 302200, Note_on_c, 1, 57, 127
2, 302200, Note_on_c, 1, 75, 127
2, 302360, Note_off_c, 1, 57, 0
2, 302360, Note_off_c, 1, 75, 0
2, 302400, Note_on_c, 1, 58, 127
2, 302400, Note_on_c, 1, 74, 127
2, 302560, Note_off_c, 1, 58, 0
2, 302560, Note_off_c, 1, 74, 0
2, 302600, Note_on_c, 1, 57, 127
2, 302600, Note_on_c, 1, 72, 127
2, 302760, Note_off_c, 1, 57, 0
2, 302760, Note_off_c, 1, 72, 0
2, 302800, Note_on_c, 1, 58, 127
2, 302800, Note_on_c, 1, 70, 127
2, 302920, Note_off_c, 1, 58, 0
2, 302920, Note_off_c, 1, 70, 0
2, 302960, Note_on_c, 1, 60, 127
2, 302960, Note_on_c, 1, 69, 127
2, 303120, Note_off_c, 1, 60, 0
2, 303120, Note_off_c, 1, 69, 0
2, 303160, Note_on_c, 1, 62, 127
2, 303160, Note_on_c, 1, 70, 127
2, 303320, Note_off_c, 1, 70, 0
2, 303360, Note_on_c, 1, 72, 127
2, 303520, Note_off_c, 1, 62, 0
2, 303520, Note_off_c, 1, 72, 0
2, 303560, Note_on_c, 1, 58, 127
2, 303560, Note_on_c, 1, 65, 127
2, 303720, Note_off_c, 1, 65, 0
2, 303760, Note_on_c, 1, 68, 127
2, 303920, Note_off_c, 1, 58, 0
2, 303920, Note_off_c, 1, 68, 0
2, 303960, Note_on_c, 1, 63, 127
2, 303960, Note_on_c, 1, 67, 127
2, 304120, Note_off_c, 1, 63, 0
2, 304160, Note_on_c, 1, 65, 127
2, 304320, Note_off_c, 1, 65, 0
2, 304320, Note_off_c, 1, 67, 0
2, 304360, Note_on_c, 1, 63, 127
2, 304360, Note_on_c, 1, 79, 127
2, 304520, Note_off_c, 1, 63, 0
2, 304560, Note_on_c, 1, 62, 127
2, 304680, Note_off_c, 1, 62, 0
2, 304760, Note_on_c, 1, 60, 127
2, 304880, Note_off_c, 1, 79, 0
2, 304920, Note_on_c, 1, 77, 127
2, 305080, Note_off_c, 1, 60, 0
2, 305080, Note_off_c, 1, 77, 0
2, 305120, Note_on_c, 1, 62, 127
2, 305120, Note_on_c, 1, 75, 127
2, 305280, Note_off_c, 1, 75, 0
2, 305320, Note_on_c, 1, 74, 127
2, 305480, Note_off_c, 1, 62, 0
2, 305480, Note_off_c, 1, 74, 0
2, 305520, Note_on_c, 1, 63, 127
2, 305520, Note_on_c, 1, 72, 127
2, 305680, Note_off_c, 1, 72, 0
2, 305720, Note_on_c, 1, 74, 127
2, 305880, Note_off_c, 1, 63, 0
2, 305880, Note_off_c, 1, 74, 0
2, 305920, Note_on_c, 1, 60, 127
2, 305920, Note_on_c, 1, 75, 127
2, 306080, Note_off_c, 1, 75, 0
2, 306120, Note_on_c, 1, 70, 127
2, 306280, Note_off_c, 1, 60, 0
2, 306280, Note_off_c, 1, 70, 0
2, 306320, Note_on_c, 1, 65, 127
2, 306320, Note_on_c, 1, 69, 127
2, 306480, Note_off_c, 1, 69, 0
2, 306520, Note_on_c, 1, 72, 127
2, 306640, Note_off_c, 1, 65, 0
2, 306640, Note_off_c, 1, 72, 0
2, 306680, Note_on_c, 1, 63, 127
2, 306680, Note_on_c, 1, 74, 127
2, 306840, Note_off_c, 1, 74, 0
2, 306880, Note_on_c, 1, 75, 127
2, 307040, Note_off_c, 1, 63, 0
2, 307040, Note_off_c, 1, 75, 0
2, 307080, Note_on_c, 1, 62, 127
2, 307080, Note_on_c, 1, 77, 127
2, 307240, Note_off_c, 1, 77, 0
2, 307280, Note_on_c, 1, 75, 127
2, 307440, Note_off_c, 1, 62, 0
2, 307440, Note_off_c, 1, 75, 0
2, 307480, Note_on_c, 1, 60, 127
2, 307480, Note_on_c, 1, 77, 127
2, 307640, Note_off_c, 1, 60, 0
2, 307640, Note_off_c, 1, 77, 0
2, 307680, Note_on_c, 1, 58, 127
2, 307680, Note_on_c, 1, 79, 127
2, 307840, Note_off_c, 1, 58, 0
2, 307840, Note_off_c, 1, 79, 0
2, 307880, Note_on_c, 1, 65, 127
2, 307880, Note_on_c, 1, 77, 127
2, 308040, Note_off_c, 1, 77, 0
2, 308080, Note_on_c, 1, 75, 127
2, 308240, Note_off_c, 1, 65, 0
2, 308240, Note_off_c, 1, 75, 0
2, 308280, Note_on_c, 1, 53, 127
2, 308280, Note_on_c, 1, 74, 127
2, 308400, Note_off_c, 1, 74, 0
2, 308480, Note_on_c, 1, 72, 127
2, 308600, Note_off_c, 1, 53, 0
2, 308600, Note_off_c, 1, 72, 0
2, 308640, Note_on_c, 1, 58, 127
2, 308640, Note_on_c, 1, 72, 127
2, 308800, Note_off_c, 1, 72, 0
2, 308840, Note_on_c, 1, 74, 127
2, 309000, Note_off_c, 1, 58, 0
2, 309000, Note_off_c, 1, 74, 0
2, 309040, Note_on_c, 1, 46, 127
2, 309040, Note_on_c, 1, 72, 127
2, 309200, Note_off_c, 1, 46, 0
2, 309200, Note_off_c, 1, 72, 0
2, 309240, Note_on_c, 1, 45, 127
2, 309240, Note_on_c, 1, 70, 127
2, 309400, Note_off_c, 1, 45, 0
2, 309400, Note_off_c, 1, 70, 0
2, 309440, Note_on_c, 1, 43, 127
2, 309440, Note_on_c, 1, 74, 127
2, 309520, Note_on_c, 1, 79, 127
2, 309600, Note_off_c, 1, 43, 0
2, 309640, Note_on_c, 1, 42, 127
2, 309640, Note_on_c, 1, 82, 127
2, 309800, Note_off_c, 1, 42, 0
2, 309840, Note_on_c, 1, 43, 127
2, 310000, Note_off_c, 1, 43, 0
2, 310000, Note_off_c, 1, 74, 0
2, 310000, Note_off_c, 1, 79, 0
2, 310000, Note_off_c, 1, 82, 0
2, 310040, Note_on_c, 1, 45, 127
2, 310040, Note_on_c, 1, 81, 127
2, 310200, Note_off_c, 1, 45, 0
2, 310200, Note_off_c, 1, 81, 0
2, 310240, Note_on_c, 1, 46, 127
2, 310240, Note_on_c, 1, 79, 127
2, 310360, Note_off_c, 1, 79, 0
2, 310400, Note_on_c, 1, 81, 127
2, 310560, Note_off_c, 1, 46, 0
2, 310560, Note_off_c, 1, 81, 0
2, 310600, Note_on_c, 1, 43, 127
2, 310600, Note_on_c, 1, 82, 127
2, 310760, Note_off_c, 1, 82, 0
2, 310800, Note_on_c, 1, 77, 127
2, 310960, Note_off_c, 1, 43, 0
2, 310960, Note_off_c, 1, 77, 0
2, 311000, Note_on_c, 1, 48, 127
2, 311000, Note_on_c, 1, 77, 127
2, 311160, Note_off_c, 1, 48, 0
2, 311160, Note_off_c, 1, 77, 0
2, 311200, Note_on_c, 1, 47, 127
2, 311200, Note_on_c, 1, 75, 127
2, 311240, Note_off_c, 1, 75, 0
2, 311280, Note_on_c, 1, 77, 127
2, 311320, Note_on_c, 1, 75, 127
2, 311320, Note_off_c, 1, 77, 0
2, 311360, Note_off_c, 1, 47, 0
2, 311400, Note_on_c, 1, 48, 127
2, 311400, Note_off_c, 1, 75, 0
2, 311400, Note_on_c, 1, 77, 127
2, 311480, Note_on_c, 1, 75, 127
2, 311480, Note_off_c, 1, 77, 0
2, 311560, Note_off_c, 1, 48, 0
2, 311560, Note_off_c, 1, 75, 0
2, 311600, Note_on_c, 1, 50, 127
2, 311600, Note_on_c, 1, 74, 127
2, 311760, Note_off_c, 1, 50, 0
2, 311760, Note_off_c, 1, 74, 0
2, 311800, Note_on_c, 1, 51, 127
2, 311800, Note_on_c, 1, 72, 127
2, 311960, Note_off_c, 1, 72, 0
2, 312000, Note_on_c, 1, 74, 127
2, 312120, Note_off_c, 1, 51, 0
2, 312120, Note_off_c, 1, 74, 0
2, 312200, Note_on_c, 1, 50, 127
2, 312200, Note_on_c, 1, 75, 127
2, 312320, Note_off_c, 1, 75, 0
2, 312360, Note_on_c, 1, 70, 127
2, 312520, Note_off_c, 1, 50, 0
2, 312520, Note_off_c, 1, 70, 0
2, 312560, Note_on_c, 1, 48, 127
2, 312560, Note_on_c, 1, 69, 127
2, 312720, Note_off_c, 1, 69, 0
2, 312760, Note_on_c, 1, 70, 127
2, 312920, Note_off_c, 1, 48, 0
2, 312920, Note_off_c, 1, 70, 0
2, 312960, Note_on_c, 1, 45, 127
2, 312960, Note_on_c, 1, 72, 127
2, 313120, Note_off_c, 1, 72, 0
2, 313160, Note_on_c, 1, 67, 127
2, 313320, Note_off_c, 1, 45, 0
2, 313320, Note_off_c, 1, 67, 0
2, 313360, Note_on_c, 1, 50, 127
2, 313360, Note_on_c, 1, 66, 127
2, 313520, Note_off_c, 1, 66, 0
2, 313560, Note_on_c, 1, 67, 127
2, 313720, Note_off_c, 1, 67, 0
2, 313760, Note_on_c, 1, 69, 127
2, 313920, Note_off_c, 1, 69, 0
2, 313960, Note_on_c, 1, 63, 127
2, 314080, Note_off_c, 1, 50, 0
2, 314080, Note_off_c, 1, 63, 0
2, 314160, Note_on_c, 1, 62, 127
2, 314280, Note_off_c, 1, 62, 0
2, 314320, Note_on_c, 1, 64, 127
2, 314480, Note_off_c, 1, 64, 0
2, 314520, Note_on_c, 1, 66, 127
2, 314720, Note_on_c, 1, 60, 127
2, 314880, Note_off_c, 1, 60, 0
2, 314880, Note_off_c, 1, 66, 0
2, 314920, Note_on_c, 1, 58, 127
2, 314920, Note_on_c, 1, 67, 127
2, 315080, Note_off_c, 1, 58, 0
2, 315120, Note_on_c, 1, 60, 127
2, 315280, Note_off_c, 1, 60, 0
2, 315280, Note_off_c, 1, 67, 0
2, 315320, Note_on_c, 1, 62, 127
2, 315320, Note_on_c, 1, 70, 127
2, 315480, Note_off_c, 1, 62, 0
2, 315480, Note_off_c, 1, 70, 0
2, 315520, Note_on_c, 1, 54, 127
2, 315520, Note_on_c, 1, 69, 127
2, 315680, Note_off_c, 1, 54, 0
2, 315680, Note_off_c, 1, 69, 0
2, 315720, Note_on_c, 1, 55, 127
2, 315720, Note_on_c, 1, 70, 127
2, 315880, Note_off_c, 1, 55, 0
2, 315920, Note_on_c, 1, 57, 127
2, 316040, Note_off_c, 1, 57, 0
2, 316040, Note_off_c, 1, 70, 0
2, 316080, Note_on_c, 1, 58, 127
2, 316080, Note_on_c, 1, 67, 127
2, 316240, Note_off_c, 1, 58, 0
2, 316280, Note_on_c, 1, 50, 127
2, 316440, Note_off_c, 1, 50, 0
2, 316440, Note_off_c, 1, 67, 0
2, 316480, Note_on_c, 1, 51, 127
2, 316480, Note_on_c, 1, 79, 127
2, 316560, Note_off_c, 1, 79, 0
2, 316600, Note_on_c, 1, 77, 127
2, 316640, Note_off_c, 1, 51, 0
2, 316640, Note_off_c, 1, 77, 0
2, 316680, Note_on_c, 1, 53, 127
2, 316680, Note_on_c, 1, 79, 127
2, 316840, Note_off_c, 1, 53, 0
2, 316880, Note_on_c, 1, 55, 127
2, 317040, Note_off_c, 1, 55, 0
2, 317040, Note_off_c, 1, 79, 0
2, 317080, Note_on_c, 1, 48, 127
2, 317080, Note_on_c, 1, 80, 127
2, 317240, Note_off_c, 1, 48, 0
2, 317240, Note_off_c, 1, 80, 0
2, 317280, Note_on_c, 1, 47, 127
2, 317280, Note_on_c, 1, 79, 127
2, 317440, Note_off_c, 1, 47, 0
2, 317440, Note_off_c, 1, 79, 0
2, 317480, Note_on_c, 1, 48, 127
2, 317480, Note_on_c, 1, 77, 127
2, 317640, Note_off_c, 1, 48, 0
2, 317640, Note_off_c, 1, 77, 0
2, 317680, Note_on_c, 1, 50, 127
2, 317680, Note_on_c, 1, 75, 127
2, 317800, Note_off_c, 1, 50, 0
2, 317800, Note_off_c, 1, 75, 0
2, 317880, Note_on_c, 1, 43, 127
2, 317880, Note_on_c, 1, 74, 127
2, 318000, Note_off_c, 1, 43, 0
2, 318000, Note_off_c, 1, 74, 0
2, 318040, Note_on_c, 1, 48, 127
2, 318040, Note_on_c, 1, 75, 127
2, 318240, Note_on_c, 1, 74, 127
2, 318400, Note_off_c, 1, 74, 0
2, 318440, Note_on_c, 1, 72, 127
2, 318600, Note_off_c, 1, 72, 0
2, 318640, Note_on_c, 1, 70, 127
2, 318800, Note_off_c, 1, 48, 0
2, 318800, Note_off_c, 1, 70, 0
2, 318840, Note_on_c, 1, 72, 127
2, 319040, Note_on_c, 1, 69, 127
2, 319200, Note_off_c, 1, 69, 0
2, 319200, Note_off_c, 1, 72, 0
2, 319200, Note_off_c, 1, 75, 0
2, 319240, Note_on_c, 1, 70, 127
2, 319320, Note_on_c, 1, 75, 127
2, 319360, Note_on_c, 1, 79, 127
2, 319400, Note_off_c, 1, 70, 0
2, 319440, Note_on_c, 1, 72, 127
2, 319600, Note_off_c, 1, 72, 0
2, 319600, Note_off_c, 1, 75, 0
2, 319600, Note_off_c, 1, 79, 0
2, 319640, Note_on_c, 1, 66, 127
2, 319640, Note_on_c, 1, 74, 127
2, 319640, Note_on_c, 1, 81, 127
2, 319760, Note_off_c, 1, 66, 0
2, 319760, Note_off_c, 1, 74, 0
2, 319800, Note_on_c, 1, 67, 127
2, 319800, Note_on_c, 1, 72, 127
2, 319960, Note_off_c, 1, 67, 0
2, 319960, Note_off_c, 1, 72, 0
2, 320000, Note_on_c, 1, 69, 127
2, 320000, Note_on_c, 1, 70, 127
2, 320160, Note_off_c, 1, 69, 0
2, 320160, Note_off_c, 1, 70, 0
2, 320200, Note_on_c, 1, 62, 127
2, 320200, Note_on_c, 1, 69, 127
2, 320360, Note_off_c, 1, 62, 0
2, 320360, Note_off_c, 1, 69, 0
2, 320400, Note_on_c, 1, 67, 127
2, 320400, Note_on_c, 1, 70, 127
2, 320560, Note_off_c, 1, 67, 0
2, 320600, Note_on_c, 1, 65, 127
2, 320760, Note_off_c, 1, 65, 0
2, 320760, Note_off_c, 1, 81, 0
2, 320800, Note_on_c, 1, 64, 127
2, 320800, Note_on_c, 1, 79, 127
2, 320960, Note_off_c, 1, 64, 0
2, 320960, Note_off_c, 1, 79, 0
2, 321000, Note_on_c, 1, 62, 127
2, 321000, Note_on_c, 1, 77, 127
2, 321160, Note_off_c, 1, 62, 0
2, 321160, Note_off_c, 1, 77, 0
2, 321200, Note_on_c, 1, 64, 127
2, 321200, Note_on_c, 1, 79, 127
2, 321360, Note_off_c, 1, 64, 0
2, 321400, Note_on_c, 1, 61, 127
2, 321520, Note_off_c, 1, 61, 0
2, 321520, Note_off_c, 1, 70, 0
2, 321600, Note_on_c, 1, 62, 127
2, 321600, Note_on_c, 1, 69, 127
2, 321720, Note_off_c, 1, 62, 0
2, 321720, Note_off_c, 1, 69, 0
2, 321760, Note_on_c, 1, 64, 127
2, 321760, Note_on_c, 1, 67, 127
2, 321920, Note_off_c, 1, 64, 0
2, 321920, Note_off_c, 1, 67, 0
2, 321960, Note_on_c, 1, 57, 127
2, 321960, Note_on_c, 1, 73, 127
2, 322120, Note_off_c, 1, 57, 0
2, 322120, Note_off_c, 1, 73, 0
2, 322160, Note_on_c, 1, 59, 127
2, 322160, Note_on_c, 1, 74, 127
2, 322320, Note_off_c, 1, 59, 0
2, 322320, Note_off_c, 1, 74, 0
2, 322360, Note_on_c, 1, 61, 127
2, 322360, Note_on_c, 1, 76, 127
2, 322520, Note_off_c, 1, 61, 0
2, 322520, Note_off_c, 1, 76, 0
2, 322560, Note_on_c, 1, 55, 127
2, 322560, Note_on_c, 1, 70, 127
2, 322720, Note_off_c, 1, 55, 0
2, 322720, Note_off_c, 1, 70, 0
2, 322760, Note_on_c, 1, 53, 127
2, 322760, Note_on_c, 1, 69, 127
2, 322960, Note_on_c, 1, 57, 127
2, 323120, Note_off_c, 1, 57, 0
2, 323160, Note_on_c, 1, 59, 127
2, 323200, Note_off_c, 1, 79, 0
2, 323320, Note_off_c, 1, 59, 0
2, 323360, Note_on_c, 1, 61, 127
2, 323360, Note_on_c, 1, 81, 127
2, 323480, Note_off_c, 1, 61, 0
2, 323480, Note_off_c, 1, 81, 0
2, 323520, Note_on_c, 1, 62, 127
2, 323520, Note_on_c, 1, 79, 127
2, 323680, Note_off_c, 1, 79, 0
2, 323720, Note_on_c, 1, 77, 127
2, 323760, Note_off_c, 1, 77, 0
2, 323800, Note_on_c, 1, 79, 127
2, 323840, Note_off_c, 1, 79, 0
2, 323880, Note_off_c, 1, 53, 0
2, 323880, Note_off_c, 1, 69, 0
2, 323880, Note_on_c, 1, 77, 127
2, 323920, Note_on_c, 1, 55, 127
2, 323920, Note_off_c, 1, 77, 0
2, 323960, Note_on_c, 1, 79, 127
2, 324000, Note_off_c, 1, 79, 0
2, 324040, Note_on_c, 1, 77, 127
2, 324080, Note_off_c, 1, 77, 0
2, 324120, Note_on_c, 1, 76, 127
2, 324280, Note_off_c, 1, 55, 0
2, 324280, Note_off_c, 1, 62, 0
2, 324280, Note_off_c, 1, 76, 0
2, 324320, Note_on_c, 1, 57, 127
2, 324320, Note_on_c, 1, 73, 127
2, 324320, Note_on_c, 1, 77, 127
2, 324440, Note_off_c, 1, 77, 0
2, 324480, Note_on_c, 1, 76, 127
2, 324520, Note_off_c, 1, 76, 0
2, 324560, Note_on_c, 1, 77, 127
2, 324640, Note_on_c, 1, 76, 127
2, 324640, Note_off_c, 1, 77, 0
2, 324720, Note_on_c, 1, 45, 127
2, 324720, Note_off_c, 1, 76, 0
2, 324720, Note_on_c, 1, 77, 127
2, 324800, Note_on_c, 1, 76, 127
2, 324800, Note_off_c, 1, 77, 0
2, 324880, Note_off_c, 1, 73, 0
2, 324880, Note_off_c, 1, 76, 0
2, 324920, Note_on_c, 1, 74, 127
2, 325080, Note_off_c, 1, 45, 0
2, 325080, Note_off_c, 1, 57, 0
2, 325080, Note_off_c, 1, 74, 0
2, 325120, Note_on_c, 1, 50, 127
2, 325120, Note_on_c, 1, 74, 127
2, 325520, Note_on_c, 1, 38, 127
2, 325880, Note_on_c, 1, 45, 127
2, 326240, Note_off_c, 1, 45, 0
2, 326240, Note_off_c, 1, 50, 0
2, 326240, Note_off_c, 1, 74, 0
2, 326280, Note_on_c, 1, 50, 127
2, 326280, Note_on_c, 1, 66, 127
2, 326280, Note_on_c, 1, 69, 127
2, 327240, Note_off_c, 1, 66, 0
2, 327240, Note_off_c, 1, 69, 0
2, 327280, Note_on_c, 1, 81, 127
2, 327440, Note_off_c, 1, 38, 0
2, 327440, Note_off_c, 1, 50, 0
2, 327440, Note_off_c, 1, 81, 0
2, 327480, Note_on_c, 1, 50, 127
2, 327480, Note_on_c, 1, 81, 127
2, 327680, Note_on_c, 1, 79, 127
2, 327800, Note_off_c, 1, 79, 0
2, 327840, Note_on_c, 1, 78, 127
2, 328000, Note_off_c, 1, 78, 0
2, 328040, Note_on_c, 1, 76, 127
2, 328200, Note_off_c, 1, 50, 0
2, 328200, Note_off_c, 1, 76, 0
2, 328200, Note_off_c, 1, 81, 0
2, 328240, Note_on_c, 1, 78, 127
2, 328440, Note_on_c, 1, 75, 127
2, 328600, Note_off_c, 1, 75, 0
2, 328600, Note_off_c, 1, 78, 0
2, 328640, Note_on_c, 1, 74, 127
2, 328640, Note_on_c, 1, 78, 127
2, 328800, Note_off_c, 1, 74, 0
2, 328840, Note_on_c, 1, 72, 127
2, 329000, Note_off_c, 1, 72, 0
2, 329000, Note_off_c, 1, 78, 0
2, 329040, Note_on_c, 1, 70, 127
2, 329120, Note_on_c, 1, 74, 127
2, 329200, Note_off_c, 1, 70, 0
2, 329200, Note_on_c, 1, 79, 127
2, 329240, Note_on_c, 1, 69, 127
2, 329400, Note_off_c, 1, 69, 0
2, 329440, Note_on_c, 1, 67, 127
2, 329560, Note_off_c, 1, 67, 0
2, 329600, Note_off_c, 1, 79, 0
2, 329640, Note_on_c, 1, 66, 127
2, 329640, Note_on_c, 1, 81, 127
2, 329760, Note_off_c, 1, 66, 0
2, 329760, Note_off_c, 1, 81, 0
2, 329800, Note_on_c, 1, 67, 127
2, 329800, Note_on_c, 1, 81, 127
2, 329960, Note_off_c, 1, 81, 0
2, 330000, Note_on_c, 1, 82, 127
2, 330160, Note_off_c, 1, 67, 0
2, 330200, Note_on_c, 1, 55, 127
2, 330360, Note_off_c, 1, 55, 0
2, 330360, Note_off_c, 1, 82, 0
2, 330400, Note_on_c, 1, 57, 127
2, 330400, Note_on_c, 1, 81, 127
2, 330560, Note_off_c, 1, 57, 0
2, 330560, Note_off_c, 1, 74, 0
2, 330560, Note_off_c, 1, 81, 0
2, 330600, Note_on_c, 1, 58, 127
2, 330600, Note_on_c, 1, 79, 127
2, 330760, Note_off_c, 1, 79, 0
2, 330800, Note_on_c, 1, 81, 127
2, 330960, Note_off_c, 1, 58, 0
2, 330960, Note_off_c, 1, 81, 0
2, 331000, Note_on_c, 1, 55, 127
2, 331000, Note_on_c, 1, 82, 127
2, 331160, Note_off_c, 1, 82, 0
2, 331200, Note_on_c, 1, 77, 127
2, 331360, Note_off_c, 1, 55, 0
2, 331360, Note_off_c, 1, 77, 0
2, 331400, Note_on_c, 1, 60, 127
2, 331400, Note_on_c, 1, 77, 127
2, 331520, Note_off_c, 1, 77, 0
2, 331600, Note_on_c, 1, 76, 127
2, 331720, Note_off_c, 1, 60, 0
2, 331720, Note_off_c, 1, 76, 0
2, 331760, Note_on_c, 1, 58, 127
2, 331760, Note_on_c, 1, 74, 127
2, 331920, Note_off_c, 1, 74, 0
2, 331960, Note_on_c, 1, 72, 127
2, 332120, Note_off_c, 1, 58, 0
2, 332120, Note_off_c, 1, 72, 0
2, 332160, Note_on_c, 1, 57, 127
2, 332160, Note_on_c, 1, 84, 127
2, 332320, Note_off_c, 1, 57, 0
2, 332360, Note_on_c, 1, 60, 127
2, 332520, Note_off_c, 1, 60, 0
2, 332560, Note_on_c, 1, 62, 127
2, 332720, Note_off_c, 1, 62, 0
2, 332720, Note_off_c, 1, 84, 0
2, 332760, Note_on_c, 1, 64, 127
2, 332760, Note_on_c, 1, 79, 127
2, 332920, Note_off_c, 1, 64, 0
2, 332920, Note_off_c, 1, 79, 0
2, 332960, Note_on_c, 1, 65, 127
2, 332960, Note_on_c, 1, 81, 127
2, 333120, Note_off_c, 1, 81, 0
2, 333160, Note_on_c, 1, 76, 127
2, 333280, Note_off_c, 1, 65, 0
2, 333280, Note_off_c, 1, 76, 0
2, 333360, Note_on_c, 1, 58, 127
2, 333360, Note_on_c, 1, 77, 127
2, 333480, Note_off_c, 1, 77, 0
2, 333520, Note_on_c, 1, 82, 127
2, 333680, Note_off_c, 1, 58, 0
2, 333680, Note_off_c, 1, 82, 0
2, 333720, Note_on_c, 1, 60, 127
2, 333720, Note_on_c, 1, 76, 127
2, 333720, Note_on_c, 1, 81, 127
2, 333880, Note_off_c, 1, 81, 0
2, 333920, Note_on_c, 1, 79, 127
2, 333960, Note_off_c, 1, 79, 0
2, 334000, Note_on_c, 1, 81, 127
2, 334040, Note_off_c, 1, 81, 0
2, 334080, Note_on_c, 1, 79, 127
2, 334120, Note_on_c, 1, 48, 127
2, 334120, Note_off_c, 1, 79, 0
2, 334160, Note_on_c, 1, 81, 127
2, 334200, Note_off_c, 1, 81, 0
2, 334240, Note_on_c, 1, 79, 127
2, 334280, Note_off_c, 1, 79, 0
2, 334320, Note_on_c, 1, 77, 127
2, 334360, Note_off_c, 1, 77, 0
2, 334400, Note_on_c, 1, 79, 127
2, 334480, Note_off_c, 1, 48, 0
2, 334480, Note_off_c, 1, 60, 0
2, 334480, Note_off_c, 1, 76, 0
2, 334480, Note_off_c, 1, 79, 0
2, 334520, Note_on_c, 1, 53, 127
2, 334520, Note_on_c, 1, 77, 127
2, 334680, Note_off_c, 1, 53, 0
2, 334720, Note_on_c, 1, 55, 127
2, 334880, Note_off_c, 1, 55, 0
2, 334920, Note_on_c, 1, 56, 127
2, 335080, Note_off_c, 1, 56, 0
2, 335120, Note_on_c, 1, 55, 127
2, 335240, Note_off_c, 1, 55, 0
2, 335320, Note_on_c, 1, 53, 127
2, 335440, Note_off_c, 1, 53, 0
2, 335440, Note_off_c, 1, 77, 0
2, 335480, Note_on_c, 1, 51, 127
2, 335480, Note_on_c, 1, 79, 127
2, 335640, Note_off_c, 1, 51, 0
2, 335640, Note_off_c, 1, 79, 0
2, 335680, Note_on_c, 1, 50, 127
2, 335680, Note_on_c, 1, 80, 127
2, 335840, Note_off_c, 1, 50, 0
2, 335840, Note_off_c, 1, 80, 0
2, 335880, Note_on_c, 1, 51, 127
2, 335880, Note_on_c, 1, 79, 127
2, 336040, Note_off_c, 1, 51, 0
2, 336040, Note_off_c, 1, 79, 0
2, 336080, Note_on_c, 1, 47, 127
2, 336080, Note_on_c, 1, 77, 127
2, 336240, Note_off_c, 1, 77, 0
2, 336280, Note_on_c, 1, 75, 127
2, 336440, Note_off_c, 1, 47, 0
2, 336440, Note_off_c, 1, 75, 0
2, 336480, Note_on_c, 1, 48, 127
2, 336480, Note_on_c, 1, 74, 127
2, 336640, Note_off_c, 1, 74, 0
2, 336680, Note_on_c, 1, 75, 127
2, 336840, Note_off_c, 1, 48, 0
2, 336840, Note_off_c, 1, 75, 0
2, 336880, Note_on_c, 1, 43, 127
2, 336880, Note_on_c, 1, 72, 127
2, 337040, Note_off_c, 1, 72, 0
2, 337080, Note_on_c, 1, 71, 127
2, 337200, Note_off_c, 1, 43, 0
2, 337200, Note_off_c, 1, 71, 0
2, 337240, Note_on_c, 1, 55, 127
2, 337240, Note_on_c, 1, 69, 127
2, 337400, Note_off_c, 1, 55, 0
2, 337400, Note_off_c, 1, 69, 0
2, 337440, Note_on_c, 1, 53, 127
2, 337440, Note_on_c, 1, 67, 127
2, 337600, Note_off_c, 1, 53, 0
2, 337600, Note_off_c, 1, 67, 0
2, 337640, Note_on_c, 1, 51, 127
2, 337640, Note_on_c, 1, 72, 127
2, 337800, Note_off_c, 1, 72, 0
2, 337840, Note_on_c, 1, 71, 127
2, 338000, Note_off_c, 1, 51, 0
2, 338000, Note_off_c, 1, 71, 0
2, 338040, Note_on_c, 1, 56, 127
2, 338040, Note_on_c, 1, 72, 127
2, 338200, Note_off_c, 1, 72, 0
2, 338240, Note_on_c, 1, 75, 127
2, 338400, Note_off_c, 1, 56, 0
2, 338400, Note_off_c, 1, 75, 0
2, 338440, Note_on_c, 1, 53, 127
2, 338440, Note_on_c, 1, 74, 127
2, 338600, Note_off_c, 1, 74, 0
2, 338640, Note_on_c, 1, 75, 127
2, 338800, Note_off_c, 1, 53, 0
2, 338800, Note_off_c, 1, 75, 0
2, 338840, Note_on_c, 1, 55, 127
2, 338840, Note_on_c, 1, 77, 127
2, 338960, Note_off_c, 1, 77, 0
2, 339000, Note_on_c, 1, 74, 127
2, 339160, Note_off_c, 1, 55, 0
2, 339160, Note_off_c, 1, 74, 0
2, 339200, Note_on_c, 1, 48, 127
2, 339200, Note_on_c, 1, 77, 127
2, 339360, Note_off_c, 1, 77, 0
2, 339400, Note_on_c, 1, 75, 127
2, 339560, Note_off_c, 1, 48, 0
2, 339560, Note_off_c, 1, 75, 0
2, 339600, Note_on_c, 1, 60, 127
2, 339600, Note_on_c, 1, 74, 127
2, 339760, Note_off_c, 1, 60, 0
2, 339760, Note_off_c, 1, 74, 0
2, 339800, Note_on_c, 1, 58, 127
2, 339800, Note_on_c, 1, 72, 127
2, 339960, Note_off_c, 1, 58, 0
2, 339960, Note_off_c, 1, 72, 0
2, 340000, Note_on_c, 1, 56, 127
2, 340000, Note_on_c, 1, 74, 127
2, 340160, Note_off_c, 1, 74, 0
2, 340200, Note_on_c, 1, 76, 127
2, 340360, Note_off_c, 1, 56, 0
2, 340360, Note_off_c, 1, 76, 0
2, 340400, Note_on_c, 1, 61, 127
2, 340400, Note_on_c, 1, 77, 127
2, 340560, Note_off_c, 1, 77, 0
2, 340600, Note_on_c, 1, 79, 127
2, 340760, Note_off_c, 1, 61, 0
2, 340760, Note_off_c, 1, 79, 0
2, 340800, Note_on_c, 1, 58, 127
2, 340800, Note_on_c, 1, 80, 127
2, 340920, Note_off_c, 1, 80, 0
2, 340960, Note_on_c, 1, 79, 127
2, 341000, Note_off_c, 1, 79, 0
2, 341040, Note_on_c, 1, 80, 127
2, 341080, Note_off_c, 1, 80, 0
2, 341120, Note_off_c, 1, 58, 0
2, 341120, Note_on_c, 1, 79, 127
2, 341160, Note_on_c, 1, 60, 127
2, 341200, Note_off_c, 1, 79, 0
2, 341200, Note_on_c, 1, 80, 127
2, 341280, Note_off_c, 1, 80, 0
2, 341320, Note_on_c, 1, 79, 127
2, 341360, Note_off_c, 1, 79, 0
2, 341400, Note_on_c, 1, 77, 127
2, 341440, Note_off_c, 1, 77, 0
2, 341480, Note_on_c, 1, 79, 127
2, 341520, Note_off_c, 1, 60, 0
2, 341520, Note_off_c, 1, 79, 0
2, 341560, Note_on_c, 1, 53, 127
2, 341560, Note_on_c, 1, 80, 127
2, 341720, Note_off_c, 1, 53, 0
2, 341760, Note_on_c, 1, 51, 127
2, 341920, Note_off_c, 1, 51, 0
2, 341960, Note_on_c, 1, 53, 127
2, 342120, Note_off_c, 1, 53, 0
2, 342120, Note_off_c, 1, 80, 0
2, 342160, Note_on_c, 1, 50, 127
2, 342160, Note_on_c, 1, 71, 127
2, 342320, Note_off_c, 1, 50, 0
2, 342320, Note_off_c, 1, 71, 0
2, 342360, Note_on_c, 1, 51, 127
2, 342360, Note_on_c, 1, 72, 127
2, 342400, Note_off_c, 1, 72, 0
2, 342440, Note_on_c, 1, 71, 127
2, 342520, Note_off_c, 1, 51, 0
2, 342520, Note_off_c, 1, 71, 0
2, 342560, Note_on_c, 1, 56, 127
2, 342560, Note_on_c, 1, 72, 127
2, 342680, Note_off_c, 1, 56, 0
2, 342720, Note_on_c, 1, 55, 127
2, 342880, Note_off_c, 1, 55, 0
2, 342880, Note_off_c, 1, 72, 0
2, 342920, Note_on_c, 1, 53, 127
2, 342920, Note_on_c, 1, 74, 127
2, 343080, Note_off_c, 1, 53, 0
2, 343080, Note_off_c, 1, 74, 0
2, 343120, Note_on_c, 1, 55, 127
2, 343120, Note_on_c, 1, 71, 127
2, 343120, Note_on_c, 1, 75, 127
2, 343240, Note_off_c, 1, 75, 0
2, 343280, Note_on_c, 1, 74, 127
2, 343320, Note_off_c, 1, 74, 0
2, 343360, Note_on_c, 1, 75, 127
2, 343440, Note_on_c, 1, 74, 127
2, 343440, Note_off_c, 1, 75, 0
2, 343480, Note_off_c, 1, 55, 0
2, 343520, Note_on_c, 1, 43, 127
2, 343520, Note_off_c, 1, 74, 0
2, 343560, Note_on_c, 1, 75, 127
2, 343600, Note_off_c, 1, 75, 0
2, 343640, Note_on_c, 1, 74, 127
2, 343680, Note_off_c, 1, 71, 0
2, 343680, Note_off_c, 1, 74, 0
2, 343720, Note_on_c, 1, 72, 127
2, 343880, Note_off_c, 1, 43, 0
2, 343880, Note_off_c, 1, 72, 0
2, 343920, Note_on_c, 1, 36, 127
2, 343920, Note_on_c, 1, 72, 127
2, 344280, Note_off_c, 1, 36, 0
2, 344320, Note_on_c, 1, 60, 127
2, 344480, Note_off_c, 1, 60, 0
2, 344520, Note_on_c, 1, 58, 127
2, 344640, Note_off_c, 1, 58, 0
2, 344680, Note_on_c, 1, 60, 127
2, 344840, Note_off_c, 1, 60, 0
2, 344840, Note_off_c, 1, 72, 0
2, 344880, Note_on_c, 1, 58, 127
2, 344880, Note_on_c, 1, 74, 127
2, 345040, Note_off_c, 1, 58, 0
2, 345040, Note_off_c, 1, 74, 0
2, 345080, Note_on_c, 1, 57, 127
2, 345080, Note_on_c, 1, 75, 127
2, 345240, Note_off_c, 1, 57, 0
2, 345240, Note_off_c, 1, 75, 0
2, 345280, Note_on_c, 1, 58, 127
2, 345280, Note_on_c, 1, 74, 127
2, 345440, Note_off_c, 1, 58, 0
2, 345440, Note_off_c, 1, 74, 0
2, 345480, Note_on_c, 1, 51, 127
2, 345480, Note_on_c, 1, 72, 127
2, 345640, Note_off_c, 1, 72, 0
2, 345680, Note_on_c, 1, 70, 127
2, 345840, Note_off_c, 1, 51, 0
2, 345840, Note_off_c, 1, 70, 0
2, 345880, Note_on_c, 1, 55, 127
2, 345880, Note_on_c, 1, 69, 127
2, 346040, Note_off_c, 1, 69, 0
2, 346080, Note_on_c, 1, 70, 127
2, 346240, Note_off_c, 1, 55, 0
2, 346240, Note_off_c, 1, 70, 0
2, 346280, Note_on_c, 1, 53, 127
2, 346280, Note_on_c, 1, 70, 127
2, 346400, Note_off_c, 1, 70, 0
2, 346480, Note_on_c, 1, 69, 127
2, 346600, Note_off_c, 1, 53, 0
2, 346600, Note_off_c, 1, 69, 0
2, 346640, Note_on_c, 1, 51, 127
2, 346640, Note_on_c, 1, 67, 127
2, 346800, Note_off_c, 1, 67, 0
2, 346840, Note_on_c, 1, 65, 127
2, 347000, Note_off_c, 1, 51, 0
2, 347000, Note_off_c, 1, 65, 0
2, 347040, Note_on_c, 1, 50, 127
2, 347040, Note_on_c, 1, 67, 127
2, 347200, Note_off_c, 1, 67, 0
2, 347240, Note_on_c, 1, 69, 127
2, 347400, Note_off_c, 1, 50, 0
2, 347400, Note_off_c, 1, 69, 0
2, 347440, Note_on_c, 1, 55, 127
2, 347440, Note_on_c, 1, 70, 127
2, 347600, Note_off_c, 1, 70, 0
2, 347640, Note_on_c, 1, 72, 127
2, 347800, Note_off_c, 1, 55, 0
2, 347800, Note_off_c, 1, 72, 0
2, 347840, Note_on_c, 1, 51, 127
2, 347840, Note_on_c, 1, 74, 127
2, 347960, Note_off_c, 1, 74, 0
2, 348000, Note_on_c, 1, 72, 127
2, 348040, Note_off_c, 1, 72, 0
2, 348080, Note_on_c, 1, 74, 127
2, 348160, Note_on_c, 1, 72, 127
2, 348160, Note_off_c, 1, 74, 0
2, 348200, Note_off_c, 1, 51, 0
2, 348240, Note_on_c, 1, 53, 127
2, 348240, Note_off_c, 1, 72, 0
2, 348280, Note_on_c, 1, 74, 127
2, 348320, Note_off_c, 1, 74, 0
2, 348360, Note_on_c, 1, 72, 127
2, 348400, Note_off_c, 1, 72, 0
2, 348440, Note_on_c, 1, 70, 127
2, 348480, Note_off_c, 1, 70, 0
2, 348520, Note_on_c, 1, 72, 127
2, 348560, Note_off_c, 1, 53, 0
2, 348600, Note_on_c, 1, 46, 127
2, 348600, Note_off_c, 1, 72, 0
2, 348600, Note_on_c, 1, 74, 127
2, 348800, Note_on_c, 1, 72, 127
2, 348960, Note_off_c, 1, 46, 0
2, 348960, Note_off_c, 1, 72, 0
2, 349000, Note_on_c, 1, 53, 127
2, 349000, Note_on_c, 1, 70, 127
2, 349160, Note_off_c, 1, 70, 0
2, 349200, Note_on_c, 1, 69, 127
2, 349360, Note_off_c, 1, 53, 0
2, 349360, Note_off_c, 1, 69, 0
2, 349400, Note_on_c, 1, 58, 127
2, 349400, Note_on_c, 1, 70, 127
2, 349560, Note_off_c, 1, 70, 0
2, 349600, Note_on_c, 1, 67, 127
2, 349760, Note_off_c, 1, 67, 0
2, 349800, Note_on_c, 1, 69, 127
2, 349960, Note_off_c, 1, 69, 0
2, 350000, Note_on_c, 1, 70, 127
2, 350120, Note_off_c, 1, 70, 0
2, 350120, Note_off_c, 1, 74, 0
2, 350200, Note_on_c, 1, 64, 127
2, 350320, Note_off_c, 1, 58, 0
2, 350360, Note_on_c, 1, 62, 127
2, 350360, Note_on_c, 1, 67, 127
2, 350520, Note_off_c, 1, 62, 0
2, 350520, Note_off_c, 1, 67, 0
2, 350560, Note_on_c, 1, 60, 127
2, 350560, Note_on_c, 1, 69, 127
2, 350720, Note_off_c, 1, 60, 0
2, 350720, Note_off_c, 1, 69, 0
2, 350760, Note_on_c, 1, 58, 127
2, 350760, Note_on_c, 1, 70, 127
2, 350920, Note_off_c, 1, 58, 0
2, 350920, Note_off_c, 1, 64, 0
2, 350920, Note_off_c, 1, 70, 0
2, 350960, Note_on_c, 1, 57, 127
2, 350960, Note_on_c, 1, 72, 127
2, 351160, Note_on_c, 1, 70, 127
2, 351320, Note_off_c, 1, 57, 0
2, 351320, Note_off_c, 1, 70, 0
2, 351360, Note_on_c, 1, 55, 127
2, 351360, Note_on_c, 1, 69, 127
2, 351520, Note_off_c, 1, 69, 0
2, 351560, Note_on_c, 1, 67, 127
2, 351720, Note_off_c, 1, 55, 0
2, 351720, Note_off_c, 1, 67, 0
2, 351760, Note_on_c, 1, 54, 127
2, 351760, Note_on_c, 1, 69, 127
2, 351920, Note_off_c, 1, 69, 0
2, 351960, Note_on_c, 1, 66, 127
2, 352080, Note_off_c, 1, 66, 0
2, 352160, Note_on_c, 1, 67, 127
2, 352280, Note_off_c, 1, 67, 0
2, 352320, Note_on_c, 1, 69, 127
2, 352480, Note_off_c, 1, 69, 0
2, 352520, Note_on_c, 1, 62, 127
2, 352680, Note_off_c, 1, 54, 0
2, 352680, Note_off_c, 1, 72, 0
2, 352720, Note_on_c, 1, 50, 127
2, 352720, Note_on_c, 1, 72, 127
2, 352880, Note_off_c, 1, 50, 0
2, 352880, Note_off_c, 1, 72, 0
2, 352920, Note_on_c, 1, 52, 127
2, 352920, Note_on_c, 1, 70, 127
2, 353080, Note_off_c, 1, 52, 0
2, 353080, Note_off_c, 1, 70, 0
2, 353120, Note_on_c, 1, 54, 127
2, 353120, Note_on_c, 1, 69, 127
2, 353280, Note_off_c, 1, 54, 0
2, 353280, Note_off_c, 1, 62, 0
2, 353280, Note_off_c, 1, 69, 0
2, 353320, Note_on_c, 1, 55, 127
2, 353320, Note_on_c, 1, 70, 127
2, 353520, Note_on_c, 1, 69, 127
2, 353680, Note_off_c, 1, 55, 0
2, 353680, Note_off_c, 1, 69, 0
2, 353720, Note_on_c, 1, 50, 127
2, 353720, Note_on_c, 1, 67, 127
2, 353880, Note_off_c, 1, 67, 0
2, 353920, Note_on_c, 1, 66, 127
2, 354040, Note_off_c, 1, 50, 0
2, 354040, Note_off_c, 1, 66, 0
2, 354120, Note_on_c, 1, 43, 127
2, 354120, Note_on_c, 1, 67, 127
2, 354240, Note_off_c, 1, 67, 0
2, 354280, Note_on_c, 1, 63, 127
2, 354440, Note_off_c, 1, 63, 0
2, 354480, Note_on_c, 1, 65, 127
2, 354640, Note_off_c, 1, 65, 0
2, 354640, Note_off_c, 1, 70, 0
2, 354680, Note_on_c, 1, 67, 127
2, 354680, Note_on_c, 1, 70, 127
2, 354840, Note_off_c, 1, 43, 0
2, 354840, Note_off_c, 1, 67, 0
2, 354840, Note_off_c, 1, 70, 0
2, 354880, Note_on_c, 1, 62, 127
2, 354880, Note_on_c, 1, 70, 127
2, 355040, Note_on_c, 1, 61, 127
2, 355040, Note_off_c, 1, 62, 0
2, 355040, Note_off_c, 1, 70, 0
2, 355080, Note_on_c, 1, 69, 127
2, 355120, Note_off_c, 1, 61, 0
2, 355160, Note_on_c, 1, 62, 127
2, 355200, Note_off_c, 1, 62, 0
2, 355240, Note_on_c, 1, 61, 127
2, 355240, Note_off_c, 1, 69, 0
2, 355280, Note_off_c, 1, 61, 0
2, 355280, Note_on_c, 1, 70, 127
2, 355320, Note_on_c, 1, 62, 127
2, 355360, Note_off_c, 1, 62, 0
2, 355400, Note_on_c, 1, 61, 127
2, 355440, Note_off_c, 1, 70, 0
2, 355480, Note_on_c, 1, 59, 127
2, 355480, Note_off_c, 1, 61, 0
2, 355480, Note_on_c, 1, 67, 127
2, 355560, Note_off_c, 1, 59, 0
2, 355600, Note_on_c, 1, 61, 127
2, 355640, Note_off_c, 1, 61, 0
2, 355640, Note_off_c, 1, 67, 0
2, 355680, Note_on_c, 1, 62, 127
2, 355680, Note_on_c, 1, 67, 127
2, 355880, Note_on_c, 1, 58, 127
2, 355880, Note_off_c, 1, 67, 0
2, 355920, Note_on_c, 1, 66, 127
2, 355960, Note_off_c, 1, 66, 0
2, 356000, Note_off_c, 1, 58, 0
2, 356000, Note_on_c, 1, 67, 127
2, 356040, Note_off_c, 1, 67, 0
2, 356080, Note_on_c, 1, 57, 127
2, 356080, Note_on_c, 1, 66, 127
2, 356160, Note_off_c, 1, 66, 0
2, 356160, Note_on_c, 1, 67, 127
2, 356200, Note_off_c, 1, 57, 0
2, 356240, Note_on_c, 1, 55, 127
2, 356240, Note_on_c, 1, 66, 127
2, 356240, Note_off_c, 1, 67, 0
2, 356280, Note_off_c, 1, 66, 0
2, 356320, Note_on_c, 1, 67, 127
2, 356360, Note_off_c, 1, 67, 0
2, 356400, Note_off_c, 1, 55, 0
2, 356400, Note_on_c, 1, 66, 127
2, 356440, Note_on_c, 1, 57, 127
2, 356440, Note_off_c, 1, 66, 0
2, 356480, Note_on_c, 1, 67, 127
2, 356520, Note_off_c, 1, 67, 0
2, 356560, Note_on_c, 1, 66, 127
2, 356600, Note_off_c, 1, 57, 0
2, 356600, Note_off_c, 1, 66, 0
2, 356640, Note_on_c, 1, 50, 127
2, 356640, Note_on_c, 1, 67, 127
2, 356680, Note_off_c, 1, 67, 0
2, 356720, Note_on_c, 1, 66, 127
2, 356800, Note_off_c, 1, 50, 0
2, 356800, Note_off_c, 1, 66, 0
2, 356840, Note_on_c, 1, 51, 127
2, 356840, Note_on_c, 1, 67, 127
2, 357000, Note_off_c, 1, 51, 0
2, 357000, Note_off_c, 1, 67, 0
2, 357040, Note_on_c, 1, 48, 127
2, 357040, Note_on_c, 1, 69, 127
2, 357200, Note_off_c, 1, 48, 0
2, 357200, Note_off_c, 1, 69, 0
2, 357240, Note_on_c, 1, 47, 127
2, 357240, Note_on_c, 1, 67, 127
2, 357400, Note_off_c, 1, 47, 0
2, 357400, Note_off_c, 1, 62, 0
2, 357400, Note_off_c, 1, 67, 0
2, 357440, Note_on_c, 1, 48, 127
2, 357440, Note_on_c, 1, 65, 127
2, 357600, Note_off_c, 1, 48, 0
2, 357600, Note_off_c, 1, 65, 0
2, 357640, Note_on_c, 1, 50, 127
2, 357640, Note_on_c, 1, 63, 127
2, 357800, Note_off_c, 1, 50, 0
2, 357800, Note_off_c, 1, 63, 0
2, 357840, Note_on_c, 1, 43, 127
2, 357840, Note_on_c, 1, 62, 127
2, 357960, Note_off_c, 1, 43, 0
2, 357960, Note_off_c, 1, 62, 0
2, 358000, Note_on_c, 1, 48, 127
2, 358000, Note_on_c, 1, 63, 127
2, 358160, Note_off_c, 1, 48, 0
2, 358200, Note_on_c, 1, 50, 127
2, 358200, Note_on_c, 1, 58, 127
2, 358360, Note_off_c, 1, 50, 0
2, 358360, Note_off_c, 1, 58, 0
2, 358400, Note_on_c, 1, 48, 127
2, 358400, Note_on_c, 1, 57, 127
2, 358560, Note_off_c, 1, 48, 0
2, 358560, Note_off_c, 1, 57, 0
2, 358600, Note_on_c, 1, 46, 127
2, 358600, Note_on_c, 1, 55, 127
2, 358760, Note_off_c, 1, 46, 0
2, 358760, Note_off_c, 1, 55, 0
2, 358760, Note_off_c, 1, 63, 0
2, 358800, Note_on_c, 1, 45, 127
2, 358800, Note_on_c, 1, 60, 127
2, 358960, Note_off_c, 1, 60, 0
2, 359000, Note_on_c, 1, 63, 127
2, 359160, Note_off_c, 1, 45, 0
2, 359160, Note_off_c, 1, 63, 0
2, 359200, Note_on_c, 1, 46, 127
2, 359200, Note_on_c, 1, 67, 127
2, 359360, Note_off_c, 1, 67, 0
2, 359400, Note_on_c, 1, 70, 127
2, 359560, Note_off_c, 1, 46, 0
2, 359560, Note_off_c, 1, 70, 0
2, 359600, Note_on_c, 1, 48, 127
2, 359600, Note_on_c, 1, 69, 127
2, 359760, Note_off_c, 1, 48, 0
2, 359760, Note_off_c, 1, 69, 0
2, 359800, Note_on_c, 1, 51, 127
2, 359800, Note_on_c, 1, 66, 127
2, 359920, Note_off_c, 1, 51, 0
2, 359920, Note_off_c, 1, 66, 0
2, 359960, Note_on_c, 1, 50, 127
2, 359960, Note_on_c, 1, 67, 127
2, 360120, Note_off_c, 1, 50, 0
2, 360120, Note_off_c, 1, 67, 0
2, 360160, Note_on_c, 1, 48, 127
2, 360160, Note_on_c, 1, 69, 127
2, 360320, Note_off_c, 1, 48, 0
2, 360320, Note_off_c, 1, 69, 0
2, 360360, Note_on_c, 1, 54, 127
2, 360360, Note_on_c, 1, 62, 127
2, 360560, Note_on_c, 1, 66, 127
2, 360720, Note_off_c, 1, 54, 0
2, 360720, Note_off_c, 1, 66, 0
2, 360760, Note_on_c, 1, 50, 127
2, 360760, Note_on_c, 1, 69, 127
2, 360920, Note_off_c, 1, 69, 0
2, 360960, Note_on_c, 1, 72, 127
2, 361120, Note_off_c, 1, 50, 0
2, 361120, Note_off_c, 1, 62, 0
2, 361120, Note_off_c, 1, 72, 0
2, 361160, Note_on_c, 1, 55, 127
2, 361160, Note_on_c, 1, 67, 127
2, 361160, Note_on_c, 1, 72, 127
2, 361280, Note_off_c, 1, 72, 0
2, 361320, Note_on_c, 1, 70, 127
2, 361400, Note_off_c, 1, 70, 0
2, 361400, Note_on_c, 1, 72, 127
2, 361480, Note_on_c, 1, 70, 127
2, 361480, Note_off_c, 1, 72, 0
2, 361520, Note_off_c, 1, 55, 0
2, 361560, Note_on_c, 1, 48, 127
2, 361560, Note_off_c, 1, 70, 0
2, 361560, Note_on_c, 1, 72, 127
2, 361640, Note_on_c, 1, 70, 127
2, 361640, Note_off_c, 1, 72, 0
2, 361720, Note_off_c, 1, 67, 0
2, 361720, Note_off_c, 1, 70, 0
2, 361760, Note_on_c, 1, 69, 127
2, 361880, Note_off_c, 1, 48, 0
2, 361880, Note_off_c, 1, 69, 0
2, 361960, Note_on_c, 1, 50, 127
2, 361960, Note_on_c, 1, 66, 127
2, 361960, Note_on_c, 1, 70, 127
2, 362000, Note_off_c, 1, 70, 0
2, 362040, Note_on_c, 1, 69, 127
2, 362120, Note_off_c, 1, 69, 0
2, 362160, Note_on_c, 1, 70, 127
2, 362200, Note_off_c, 1, 70, 0
2, 362240, Note_on_c, 1, 69, 127
2, 362320, Note_off_c, 1, 69, 0
2, 362360, Note_on_c, 1, 38, 127
2, 362360, Note_on_c, 1, 70, 127
2, 362400, Note_off_c, 1, 70, 0
2, 362440, Note_on_c, 1, 69, 127
2, 362520, Note_off_c, 1, 66, 0
2, 362520, Note_off_c, 1, 69, 0
2, 362560, Note_on_c, 1, 67, 127
2, 362720, Note_off_c, 1, 38, 0
2, 362720, Note_off_c, 1, 50, 0
2, 362720, Note_off_c, 1, 67, 0
2, 362760, Note_on_c, 1, 43, 127
2, 362760, Note_on_c, 1, 67, 127
2, 363200, Note_on_c, 1, 46, 127
2, 363560, Note_off_c, 1, 46, 0
2, 363600, Note_on_c, 1, 50, 127
2, 364000, Note_off_c, 1, 50, 0
2, 364040, Note_on_c, 1, 55, 127
2, 364040, Note_on_c, 1, 58, 127
2, 364040, Note_on_c, 1, 62, 127
2, 366280, Note_off_c, 1, 55, 0
2, 366280, Note_off_c, 1, 58, 0
2, 366280, Note_off_c, 1, 62, 0
2, 366320, Note_off_c, 1, 43, 0
2, 366320, Note_off_c, 1, 67, 0
2, 368280, Note_on_c, 1, 43, 127
2, 368280, Note_on_c, 1, 50, 127
2, 368280, Note_on_c, 1, 55, 127
2, 368280, Note_on_c, 1, 62, 127
2, 368280, Note_on_c, 1, 67, 127
2, 368280, Note_on_c, 1, 70, 127
2, 368680, Note_off_c, 1, 62, 0
2, 368680, Note_off_c, 1, 67, 0
2, 368680, Note_off_c, 1, 70, 0
2, 368720, Note_on_c, 1, 60, 127
2, 368720, Note_on_c, 1, 69, 127
2, 369120, Note_off_c, 1, 50, 0
2, 369120, Note_off_c, 1, 55, 0
2, 369120, Note_off_c, 1, 60, 0
2, 369120, Note_off_c, 1, 69, 0
2, 369160, Note_on_c, 1, 51, 127
2, 369160, Note_on_c, 1, 60, 127
2, 369160, Note_on_c, 1, 69, 127
2, 370400, Note_off_c, 1, 69, 0
2, 370440, Note_on_c, 1, 72, 127
2, 370600, Note_off_c, 1, 72, 0
2, 370640, Note_on_c, 1, 70, 127
2, 370800, Note_off_c, 1, 70, 0
2, 370840, Note_on_c, 1, 72, 127
2, 371240, Note_off_c, 1, 72, 0
2, 371280, Note_on_c, 1, 69, 127
2, 371680, Note_off_c, 1, 60, 0
2, 371680, Note_off_c, 1, 69, 0
2, 371720, Note_on_c, 1, 57, 127
2, 371720, Note_on_c, 1, 60, 127
2, 371720, Note_on_c, 1, 66, 127
2, 372960, Note_off_c, 1, 66, 0
2, 373000, Note_on_c, 1, 69, 127
2, 373160, Note_off_c, 1, 69, 0
2, 373200, Note_on_c, 1, 67, 127
2, 373400, Note_off_c, 1, 67, 0
2, 373440, Note_on_c, 1, 69, 127
2, 373800, Note_off_c, 1, 69, 0
2, 373840, Note_on_c, 1, 63, 127
2, 374240, Note_off_c, 1, 51, 0
2, 374240, Note_off_c, 1, 57, 0
2, 374240, Note_off_c, 1, 60, 0
2, 374240, Note_off_c, 1, 63, 0
2, 374280, Note_on_c, 1, 48, 127
2, 374280, Note_on_c, 1, 54, 127
2, 374280, Note_on_c, 1, 57, 127
2, 374280, Note_on_c, 1, 63, 127
2, 375080, Note_off_c, 1, 63, 0
2, 375160, Note_on_c, 1, 63, 127
2, 375240, Note_off_c, 1, 63, 0
2, 375280, Note_on_c, 1, 62, 127
2, 375400, Note_off_c, 1, 62, 0
2, 375440, Note_on_c, 1, 63, 127
2, 375520, Note_off_c, 1, 63, 0
2, 375560, Note_on_c, 1, 62, 127
2, 375760, Note_off_c, 1, 62, 0
2, 375800, Note_on_c, 1, 60, 127
2, 375960, Note_off_c, 1, 48, 0
2, 375960, Note_off_c, 1, 54, 0
2, 375960, Note_off_c, 1, 57, 0
2, 375960, Note_off_c, 1, 60, 0
2, 376000, Note_on_c, 1, 50, 127
2, 376000, Note_on_c, 1, 55, 127
2, 376000, Note_on_c, 1, 58, 127
2, 376760, Note_off_c, 1, 43, 0
2, 376840, Note_on_c, 1, 43, 127
2, 377240, Note_off_c, 1, 58, 0
2, 377280, Note_on_c, 1, 57, 127
2, 377680, Note_off_c, 1, 55, 0
2, 377680, Note_off_c, 1, 57, 0
2, 377720, Note_on_c, 1, 55, 127
2, 378520, Note_off_c, 1, 55, 0
2, 378560, Note_on_c, 1, 58, 127
2, 378560, Note_on_c, 1, 62, 127
2, 378960, Note_off_c, 1, 62, 0
2, 379000, Note_on_c, 1, 65, 127
2, 379160, Note_off_c, 1, 65, 0
2, 379200, Note_on_c, 1, 64, 127
2, 379360, Note_off_c, 1, 58, 0
2, 379400, Note_off_c, 1, 50, 0
2, 379400, Note_off_c, 1, 64, 0
2, 379440, Note_on_c, 1, 50, 127
2, 379440, Note_on_c, 1, 55, 127
2, 379440, Note_on_c, 1, 59, 127
2, 379440, Note_on_c, 1, 65, 127
2, 380680, Note_off_c, 1, 65, 0
2, 380720, Note_on_c, 1, 62, 127
2, 381080, Note_off_c, 1, 50, 0
2, 381080, Note_off_c, 1, 59, 0
2, 381080, Note_off_c, 1, 62, 0
2, 381120, Note_on_c, 1, 48, 127
2, 381120, Note_on_c, 1, 60, 127
2, 381120, Note_on_c, 1, 64, 127
2, 381520, Note_off_c, 1, 48, 0
2, 381520, Note_off_c, 1, 64, 0
2, 381560, Note_on_c, 1, 50, 127
2, 381560, Note_on_c, 1, 67, 127
2, 381720, Note_off_c, 1, 67, 0
2, 381800, Note_on_c, 1, 66, 127
2, 381960, Note_off_c, 1, 50, 0
2, 381960, Note_off_c, 1, 55, 0
2, 381960, Note_off_c, 1, 60, 0
2, 381960, Note_off_c, 1, 66, 0
2, 382000, Note_on_c, 1, 51, 127
2, 382000, Note_on_c, 1, 57, 127
2, 382000, Note_on_c, 1, 60, 127
2, 382000, Note_on_c, 1, 67, 127
2, 383240, Note_off_c, 1, 67, 0
2, 383280, Note_on_c, 1, 69, 127
2, 383680, Note_off_c, 1, 69, 0
2, 383720, Note_on_c, 1, 66, 127
2, 383880, Note_off_c, 1, 66, 0
2, 383920, Note_on_c, 1, 67, 127
2, 384080, Note_off_c, 1, 67, 0
2, 384160, Note_on_c, 1, 66, 127
2, 384320, Note_off_c, 1, 66, 0
2, 384360, Note_on_c, 1, 67, 127
2, 384520, Note_off_c, 1, 51, 0
2, 384520, Note_off_c, 1, 57, 0
2, 384520, Note_off_c, 1, 60, 0
2, 384520, Note_off_c, 1, 67, 0
2, 384560, Note_on_c, 1, 52, 127
2, 384560, Note_on_c, 1, 58, 127
2, 384560, Note_on_c, 1, 61, 127
2, 384560, Note_on_c, 1, 69, 127
2, 384720, Note_off_c, 1, 69, 0
2, 384800, Note_on_c, 1, 67, 127
2, 384960, Note_off_c, 1, 67, 0
2, 385000, Note_on_c, 1, 69, 127
2, 385160, Note_off_c, 1, 69, 0
2, 385200, Note_on_c, 1, 67, 127
2, 385360, Note_off_c, 1, 67, 0
2, 385440, Note_on_c, 1, 69, 127
2, 385600, Note_off_c, 1, 69, 0
2, 385640, Note_on_c, 1, 67, 127
2, 385800, Note_off_c, 1, 67, 0
2, 385840, Note_on_c, 1, 66, 127
2, 386040, Note_off_c, 1, 66, 0
2, 386080, Note_on_c, 1, 67, 127
2, 386240, Note_off_c, 1, 43, 0
2, 386240, Note_off_c, 1, 52, 0
2, 386240, Note_off_c, 1, 58, 0
2, 386240, Note_off_c, 1, 61, 0
2, 386240, Note_off_c, 1, 67, 0
2, 386280, Note_on_c, 1, 50, 127
2, 386280, Note_on_c, 1, 69, 127
2, 386720, Note_on_c, 1, 52, 127
2, 386720, Note_on_c, 1, 61, 127
2, 387080, Note_off_c, 1, 50, 0
2, 387080, Note_off_c, 1, 52, 0
2, 387080, Note_off_c, 1, 61, 0
2, 387080, Note_off_c, 1, 69, 0
2, 387120, Note_on_c, 1, 50, 127
2, 387120, Note_on_c, 1, 54, 127
2, 387120, Note_on_c, 1, 57, 127
2, 387120, Note_on_c, 1, 62, 127
2, 387120, Note_on_c, 1, 69, 127
2, 388800, Note_off_c, 1, 50, 0
2, 388800, Note_off_c, 1, 54, 0
2, 388800, Note_off_c, 1, 57, 0
2, 388800, Note_off_c, 1, 62, 0
2, 388800, Note_off_c, 1, 69, 0
2, 388880, Note_on_c, 1, 50, 127
2, 388880, Note_on_c, 1, 53, 127
2, 388880, Note_on_c, 1, 58, 127
2, 388880, Note_on_c, 1, 65, 127
2, 388880, Note_on_c, 1, 70, 127
2, 389240, Note_off_c, 1, 70, 0
2, 389280, Note_on_c, 1, 74, 127
2, 389680, Note_off_c, 1, 65, 0
2, 389680, Note_off_c, 1, 74, 0
2, 389720, Note_on_c, 1, 65, 127
2, 389720, Note_on_c, 1, 70, 127
2, 389720, Note_on_c, 1, 74, 127
2, 389720, Note_on_c, 1, 77, 127
2, 390960, Note_off_c, 1, 70, 0
2, 390960, Note_off_c, 1, 74, 0
2, 390960, Note_off_c, 1, 77, 0
2, 391000, Note_on_c, 1, 70, 127
2, 391400, Note_off_c, 1, 70, 0
2, 391440, Note_on_c, 1, 68, 127
2, 391600, Note_off_c, 1, 65, 0
2, 391600, Note_off_c, 1, 68, 0
2, 391640, Note_on_c, 1, 65, 127
2, 391880, Note_on_c, 1, 67, 127
2, 392040, Note_off_c, 1, 65, 0
2, 392240, Note_off_c, 1, 50, 0
2, 392240, Note_off_c, 1, 53, 0
2, 392240, Note_off_c, 1, 58, 0
2, 392240, Note_off_c, 1, 67, 0
2, 392280, Note_on_c, 1, 47, 127
2, 392280, Note_on_c, 1, 55, 127
2, 392280, Note_on_c, 1, 62, 127
2, 392280, Note_on_c, 1, 65, 127
2, 392280, Note_on_c, 1, 67, 127
2, 393960, Note_off_c, 1, 62, 0
2, 393960, Note_off_c, 1, 65, 0
2, 393960, Note_off_c, 1, 67, 0
2, 394000, Note_on_c, 1, 74, 127
2, 394440, Note_on_c, 1, 77, 127
2, 394840, Note_off_c, 1, 55, 0
2, 394840, Note_off_c, 1, 77, 0
2, 394880, Note_on_c, 1, 53, 127
2, 394880, Note_on_c, 1, 80, 127
2, 395680, Note_off_c, 1, 53, 0
2, 395680, Note_off_c, 1, 80, 0
2, 395720, Note_on_c, 1, 51, 127
2, 395720, Note_on_c, 1, 80, 127
2, 395880, Note_off_c, 1, 80, 0
2, 395920, Note_on_c, 1, 79, 127
2, 396120, Note_off_c, 1, 51, 0
2, 396120, Note_off_c, 1, 79, 0
2, 396160, Note_on_c, 1, 50, 127
2, 396160, Note_on_c, 1, 77, 127
2, 396320, Note_off_c, 1, 77, 0
2, 396360, Note_on_c, 1, 80, 127
2, 396440, Note_off_c, 1, 80, 0
2, 396480, Note_on_c, 1, 79, 127
2, 396520, Note_off_c, 1, 50, 0
2, 396520, Note_off_c, 1, 74, 0
2, 396520, Note_off_c, 1, 79, 0
2, 396560, Note_off_c, 1, 47, 0
2, 396600, Note_on_c, 1, 48, 127
2, 396600, Note_on_c, 1, 67, 127
2, 396600, Note_on_c, 1, 75, 127
2, 397440, Note_on_c, 1, 55, 127
2, 397840, Note_off_c, 1, 67, 0
2, 397840, Note_off_c, 1, 75, 0
2, 397880, Note_on_c, 1, 65, 127
2, 397880, Note_on_c, 1, 74, 127
2, 398240, Note_off_c, 1, 55, 0
2, 398240, Note_off_c, 1, 65, 0
2, 398240, Note_off_c, 1, 74, 0
2, 398280, Note_on_c, 1, 60, 127
2, 398280, Note_on_c, 1, 63, 127
2, 398280, Note_on_c, 1, 72, 127
2, 399120, Note_off_c, 1, 48, 0
2, 399120, Note_off_c, 1, 60, 0
2, 399120, Note_off_c, 1, 63, 0
2, 399120, Note_off_c, 1, 72, 0
2, 399160, Note_on_c, 1, 42, 127
2, 399160, Note_on_c, 1, 69, 127
2, 399160, Note_on_c, 1, 72, 127
2, 399160, Note_on_c, 1, 75, 127
2, 399520, Note_off_c, 1, 42, 0
2, 399600, Note_on_c, 1, 45, 127
2, 399960, Note_off_c, 1, 45, 0
2, 399960, Note_off_c, 1, 69, 0
2, 399960, Note_off_c, 1, 72, 0
2, 400000, Note_on_c, 1, 48, 127
2, 400000, Note_on_c, 1, 66, 127
2, 400000, Note_on_c, 1, 69, 127
2, 400400, Note_off_c, 1, 48, 0
2, 400440, Note_on_c, 1, 45, 127
2, 400840, Note_off_c, 1, 45, 0
2, 400880, Note_on_c, 1, 45, 127
2, 401040, Note_off_c, 1, 45, 0
2, 401080, Note_on_c, 1, 43, 127
2, 401240, Note_off_c, 1, 43, 0
2, 401280, Note_on_c, 1, 42, 127
2, 401680, Note_off_c, 1, 42, 0
2, 401680, Note_off_c, 1, 66, 0
2, 401680, Note_off_c, 1, 69, 0
2, 401720, Note_on_c, 1, 43, 127
2, 401720, Note_on_c, 1, 70, 127
2, 401720, Note_on_c, 1, 74, 127
2, 402120, Note_off_c, 1, 43, 0
2, 402160, Note_on_c, 1, 46, 127
2, 402520, Note_off_c, 1, 46, 0
2, 402520, Note_off_c, 1, 70, 0
2, 402520, Note_off_c, 1, 74, 0
2, 402600, Note_on_c, 1, 49, 127
2, 402600, Note_on_c, 1, 67, 127
2, 402600, Note_on_c, 1, 70, 127
2, 402960, Note_off_c, 1, 49, 0
2, 403000, Note_on_c, 1, 46, 127
2, 403400, Note_off_c, 1, 46, 0
2, 403440, Note_on_c, 1, 46, 127
2, 403600, Note_off_c, 1, 46, 0
2, 403640, Note_on_c, 1, 44, 127
2, 403840, Note_off_c, 1, 44, 0
2, 403880, Note_on_c, 1, 43, 127
2, 404240, Note_off_c, 1, 43, 0
2, 404240, Note_off_c, 1, 67, 0
2, 404240, Note_off_c, 1, 70, 0
2, 404280, Note_on_c, 1, 44, 127
2, 404280, Note_on_c, 1, 65, 127
2, 404280, Note_on_c, 1, 71, 127
2, 404680, Note_off_c, 1, 44, 0
2, 404720, Note_on_c, 1, 47, 127
2, 405120, Note_off_c, 1, 47, 0
2, 405120, Note_off_c, 1, 65, 0
2, 405120, Note_off_c, 1, 71, 0
2, 405160, Note_on_c, 1, 50, 127
2, 405160, Note_on_c, 1, 65, 127
2, 405160, Note_on_c, 1, 68, 127
2, 405520, Note_off_c, 1, 50, 0
2, 405600, Note_on_c, 1, 47, 127
2, 405960, Note_off_c, 1, 47, 0
2, 405960, Note_off_c, 1, 68, 0
2, 406000, Note_on_c, 1, 47, 127
2, 406000, Note_on_c, 1, 71, 127
2, 406160, Note_off_c, 1, 47, 0
2, 406240, Note_on_c, 1, 46, 127
2, 406400, Note_off_c, 1, 46, 0
2, 406440, Note_on_c, 1, 44, 127
2, 406840, Note_off_c, 1, 44, 0
2, 406840, Note_off_c, 1, 71, 0
2, 406880, Note_on_c, 1, 51, 127
2, 406880, Note_on_c, 1, 71, 127
2, 407240, Note_off_c, 1, 71, 0
2, 407280, Note_on_c, 1, 68, 127
2, 407680, Note_off_c, 1, 51, 0
2, 407680, Note_off_c, 1, 65, 0
2, 407680, Note_off_c, 1, 68, 0
2, 407680, Note_off_c, 1, 75, 0
2, 407720, Note_on_c, 1, 39, 127
2, 407720, Note_on_c, 1, 67, 127
2, 407720, Note_on_c, 1, 70, 127
2, 407720, Note_on_c, 1, 75, 127
2, 409440, Note_off_c, 1, 39, 0
2, 409440, Note_off_c, 1, 67, 0
2, 409440, Note_off_c, 1, 70, 0
2, 409440, Note_off_c, 1, 75, 0
2, 409480, Note_on_c, 1, 40, 127
2, 409480, Note_on_c, 1, 73, 127
2, 409840, Note_off_c, 1, 73, 0
2, 409920, Note_on_c, 1, 70, 127
2, 410280, Note_off_c, 1, 70, 0
2, 410320, Note_on_c, 1, 52, 127
2, 410320, Note_on_c, 1, 61, 127
2, 410320, Note_on_c, 1, 67, 127
2, 410320, Note_on_c, 1, 70, 127
2, 411560, Note_off_c, 1, 67, 0
2, 411560, Note_off_c, 1, 70, 0
2, 411600, Note_on_c, 1, 70, 127
2, 411800, Note_off_c, 1, 70, 0
2, 411840, Note_on_c, 1, 68, 127
2, 412000, Note_off_c, 1, 52, 0
2, 412000, Note_off_c, 1, 61, 0
2, 412000, Note_off_c, 1, 68, 0
2, 412040, Note_on_c, 1, 70, 127
2, 412440, Note_off_c, 1, 70, 0
2, 412480, Note_on_c, 1, 67, 127
2, 412840, Note_off_c, 1, 67, 0
2, 412880, Note_on_c, 1, 52, 127
2, 412880, Note_on_c, 1, 61, 127
2, 412880, Note_on_c, 1, 64, 127
2, 412880, Note_on_c, 1, 67, 127
2, 414120, Note_off_c, 1, 64, 0
2, 414120, Note_off_c, 1, 67, 0
2, 414200, Note_on_c, 1, 67, 127
2, 414360, Note_off_c, 1, 67, 0
2, 414400, Note_on_c, 1, 65, 127
2, 414560, Note_off_c, 1, 52, 0
2, 414560, Note_off_c, 1, 61, 0
2, 414560, Note_off_c, 1, 65, 0
2, 414600, Note_on_c, 1, 67, 127
2, 415000, Note_off_c, 1, 67, 0
2, 415040, Note_on_c, 1, 64, 127
2, 415440, Note_off_c, 1, 64, 0
2, 415480, Note_on_c, 1, 52, 127
2, 415480, Note_on_c, 1, 55, 127
2, 415480, Note_on_c, 1, 61, 127
2, 415480, Note_on_c, 1, 64, 127
2, 416720, Note_off_c, 1, 61, 0
2, 416720, Note_off_c, 1, 64, 0
2, 416760, Note_on_c, 1, 70, 127
2, 416920, Note_off_c, 1, 70, 0
2, 416960, Note_on_c, 1, 69, 127
2, 417120, Note_off_c, 1, 40, 0
2, 417120, Note_off_c, 1, 52, 0
2, 417120, Note_off_c, 1, 55, 0
2, 417120, Note_off_c, 1, 69, 0
2, 417160, Note_on_c, 1, 42, 127
2, 417160, Note_on_c, 1, 69, 127
2, 417360, Note_off_c, 1, 69, 0
2, 417400, Note_on_c, 1, 72, 127
2, 417440, Note_off_c, 1, 72, 0
2, 417480, Note_on_c, 1, 70, 127
2, 417560, Note_off_c, 1, 70, 0
2, 417600, Note_on_c, 1, 69, 127
2, 417680, Note_off_c, 1, 69, 0
2, 417720, Note_on_c, 1, 70, 127
2, 417760, Note_off_c, 1, 70, 0
2, 417840, Note_on_c, 1, 72, 127
2, 418000, Note_off_c, 1, 42, 0
2, 418040, Note_on_c, 1, 57, 127
2, 418040, Note_on_c, 1, 62, 127
2, 418640, Note_off_c, 1, 72, 0
2, 418680, Note_on_c, 1, 64, 127
2, 418760, Note_off_c, 1, 64, 0
2, 418800, Note_on_c, 1, 66, 127
2, 418840, Note_off_c, 1, 66, 0
2, 418880, Note_on_c, 1, 67, 127
2, 418960, Note_off_c, 1, 67, 0
2, 419000, Note_on_c, 1, 66, 127
2, 419080, Note_off_c, 1, 66, 0
2, 419120, Note_on_c, 1, 67, 127
2, 419160, Note_off_c, 1, 67, 0
2, 419240, Note_on_c, 1, 66, 127
2, 419280, Note_off_c, 1, 66, 0
2, 419320, Note_on_c, 1, 67, 127
2, 419400, Note_off_c, 1, 67, 0
2, 419440, Note_on_c, 1, 66, 127
2, 419480, Note_off_c, 1, 66, 0
2, 419560, Note_off_c, 1, 62, 0
2, 419560, Note_on_c, 1, 64, 127
2, 419640, Note_off_c, 1, 64, 0
2, 419640, Note_on_c, 1, 66, 127
2, 419720, Note_off_c, 1, 57, 0
2, 419720, Note_off_c, 1, 66, 0
2, 419760, Note_on_c, 1, 41, 127
2, 419760, Note_on_c, 1, 59, 127
2, 419760, Note_on_c, 1, 62, 127
2, 419760, Note_on_c, 1, 67, 127
2, 420160, Note_off_c, 1, 41, 0
2, 420200, Note_on_c, 1, 47, 127
2, 420560, Note_off_c, 1, 47, 0
2, 420560, Note_off_c, 1, 59, 0
2, 420560, Note_off_c, 1, 62, 0
2, 420600, Note_on_c, 1, 50, 127
2, 420600, Note_on_c, 1, 59, 127
2, 420600, Note_on_c, 1, 65, 127
2, 421000, Note_off_c, 1, 50, 0
2, 421040, Note_on_c, 1, 53, 127
2, 421440, Note_off_c, 1, 53, 0
2, 421480, Note_on_c, 1, 56, 127
2, 421840, Note_off_c, 1, 56, 0
2, 421920, Note_on_c, 1, 50, 127
2, 422280, Note_off_c, 1, 50, 0
2, 422280, Note_off_c, 1, 59, 0
2, 422280, Note_off_c, 1, 65, 0
2, 422320, Note_on_c, 1, 51, 127
2, 422320, Note_on_c, 1, 60, 127
2, 422320, Note_on_c, 1, 63, 127
2, 422720, Note_off_c, 1, 51, 0
2, 422760, Note_on_c, 1, 47, 127
2, 423160, Note_off_c, 1, 47, 0
2, 423160, Note_off_c, 1, 60, 0
2, 423160, Note_off_c, 1, 63, 0
2, 423200, Note_on_c, 1, 48, 127
2, 423200, Note_on_c, 1, 60, 127
2, 423200, Note_on_c, 1, 63, 127
2, 423560, Note_off_c, 1, 48, 0
2, 423600, Note_on_c, 1, 44, 127
2, 424000, Note_off_c, 1, 44, 0
2, 424040, Note_on_c, 1, 42, 127
2, 424440, Note_off_c, 1, 42, 0
2, 424480, Note_on_c, 1, 43, 127
2, 424840, Note_off_c, 1, 43, 0
2, 424840, Note_off_c, 1, 60, 0
2, 424840, Note_off_c, 1, 63, 0
2, 424920, Note_on_c, 1, 37, 127
2, 424920, Note_on_c, 1, 58, 127
2, 424920, Note_on_c, 1, 64, 127
2, 425120, Note_off_c, 1, 67, 0
2, 425160, Note_off_c, 1, 64, 0
2, 425160, Note_on_c, 1, 69, 127
2, 425320, Note_off_c, 1, 58, 0
2, 425360, Note_off_c, 1, 69, 0
2, 425400, Note_on_c, 1, 70, 127
2, 425560, Note_off_c, 1, 70, 0
2, 425640, Note_on_c, 1, 67, 127
2, 425760, Note_off_c, 1, 37, 0
2, 425800, Note_off_c, 1, 67, 0
2, 425840, Note_on_c, 1, 38, 127
2, 425840, Note_on_c, 1, 66, 127
2, 426000, Note_off_c, 1, 66, 0
2, 426080, Note_on_c, 1, 67, 127
2, 426280, Note_on_c, 1, 61, 127
2, 426280, Note_off_c, 1, 67, 0
2, 426520, Note_on_c, 1, 70, 127
2, 426680, Note_off_c, 1, 61, 0
2, 426680, Note_off_c, 1, 70, 0
2, 426720, Note_on_c, 1, 60, 127
2, 426720, Note_on_c, 1, 62, 127
2, 426720, Note_on_c, 1, 69, 127
2, 426920, Note_off_c, 1, 69, 0
2, 426960, Note_on_c, 1, 67, 127
2, 427120, Note_off_c, 1, 67, 0
2, 427160, Note_on_c, 1, 69, 127
2, 427360, Note_off_c, 1, 69, 0
2, 427400, Note_on_c, 1, 66, 127
2, 427560, Note_off_c, 1, 38, 0
2, 427560, Note_off_c, 1, 60, 0
2, 427560, Note_off_c, 1, 62, 0
2, 427560, Note_off_c, 1, 66, 0
2, 427640, Note_on_c, 1, 43, 127
2, 427640, Note_on_c, 1, 60, 127
2, 427640, Note_on_c, 1, 62, 127
2, 427640, Note_on_c, 1, 67, 127
2, 428080, Note_off_c, 1, 60, 0
2, 428120, Note_on_c, 1, 57, 127
2, 428560, Note_off_c, 1, 57, 0
2, 428560, Note_off_c, 1, 62, 0
2, 428560, Note_off_c, 1, 67, 0
2, 428640, Note_on_c, 1, 55, 127
2, 428640, Note_on_c, 1, 58, 127
2, 428640, Note_on_c, 1, 62, 127
2, 428640, Note_on_c, 1, 67, 127
2, 431560, Note_off_c, 1, 43, 0
2, 431560, Note_off_c, 1, 55, 0
2, 431560, Note_off_c, 1, 58, 0
2, 431560, Note_off_c, 1, 62, 0
2, 431560, Note_off_c, 1, 67, 0
2, 433520, Note_on_c, 1, 43, 127
2, 433520, Note_on_c, 1, 79, 127
2, 433840, Note_off_c, 1, 43, 0
2, 433840, Note_off_c, 1, 79, 0
2, 433880, Note_on_c, 1, 50, 127
2, 433880, Note_on_c, 1, 82, 127
2, 434040, Note_off_c, 1, 82, 0
2, 434080, Note_on_c, 1, 81, 127
2, 434240, Note_off_c, 1, 50, 0
2, 434240, Note_off_c, 1, 81, 0
2, 434280, Note_on_c, 1, 55, 127
2, 434280, Note_on_c, 1, 82, 127
2, 434600, Note_off_c, 1, 55, 0
2, 434600, Note_off_c, 1, 82, 0
2, 434640, Note_on_c, 1, 58, 127
2, 434640, Note_on_c, 1, 79, 127
2, 434800, Note_off_c, 1, 79, 0
2, 434840, Note_on_c, 1, 74, 127
2, 434960, Note_off_c, 1, 58, 0
2, 434960, Note_off_c, 1, 74, 0
2, 435000, Note_on_c, 1, 60, 127
2, 435000, Note_on_c, 1, 81, 127
2, 435360, Note_off_c, 1, 60, 0
2, 435360, Note_off_c, 1, 81, 0
2, 435400, Note_on_c, 1, 62, 127
2, 435400, Note_on_c, 1, 78, 127
2, 435520, Note_off_c, 1, 78, 0
2, 435560, Note_on_c, 1, 74, 127
2, 435720, Note_off_c, 1, 62, 0
2, 435720, Note_off_c, 1, 74, 0
2, 435760, Note_on_c, 1, 63, 127
2, 435760, Note_on_c, 1, 79, 127
2, 435920, Note_off_c, 1, 63, 0
2, 435960, Note_on_c, 1, 65, 127
2, 436080, Note_off_c, 1, 65, 0
2, 436120, Note_on_c, 1, 63, 127
2, 436280, Note_off_c, 1, 63, 0
2, 436320, Note_on_c, 1, 62, 127
2, 436480, Note_off_c, 1, 62, 0
2, 436480, Note_off_c, 1, 79, 0
2, 436520, Note_on_c, 1, 60, 127
2, 436520, Note_on_c, 1, 75, 127
2, 436640, Note_off_c, 1, 60, 0
2, 436680, Note_on_c, 1, 58, 127
2, 436840, Note_off_c, 1, 58, 0
2, 436840, Note_off_c, 1, 75, 0
2, 436880, Note_on_c, 1, 57, 127
2, 436880, Note_on_c, 1, 72, 127
2, 437040, Note_off_c, 1, 57, 0
2, 437040, Note_off_c, 1, 72, 0
2, 437080, Note_on_c, 1, 60, 127
2, 437080, Note_on_c, 1, 69, 127
2, 437200, Note_off_c, 1, 60, 0
2, 437200, Note_off_c, 1, 69, 0
2, 437280, Note_on_c, 1, 58, 127
2, 437280, Note_on_c, 1, 74, 127
2, 437400, Note_off_c, 1, 58, 0
2, 437440, Note_on_c, 1, 57, 127
2, 437600, Note_off_c, 1, 57, 0
2, 437600, Note_off_c, 1, 74, 0
2, 437640, Note_on_c, 1, 55, 127
2, 437640, Note_on_c, 1, 70, 127
2, 437800, Note_off_c, 1, 55, 0
2, 437800, Note_off_c, 1, 70, 0
2, 437840, Note_on_c, 1, 58, 127
2, 437840, Note_on_c, 1, 67, 127
2, 437960, Note_off_c, 1, 58, 0
2, 437960, Note_off_c, 1, 67, 0
2, 438000, Note_on_c, 1, 57, 127
2, 438000, Note_on_c, 1, 72, 127
2, 438160, Note_off_c, 1, 57, 0
2, 438160, Note_off_c, 1, 72, 0
2, 438200, Note_on_c, 1, 55, 127
2, 438200, Note_on_c, 1, 69, 127
2, 438360, Note_off_c, 1, 55, 0
2, 438360, Note_off_c, 1, 69, 0
2, 438400, Note_on_c, 1, 54, 127
2, 438400, Note_on_c, 1, 74, 127
2, 438520, Note_off_c, 1, 54, 0
2, 438560, Note_on_c, 1, 50, 127
2, 438720, Note_off_c, 1, 50, 0
2, 438720, Note_off_c, 1, 74, 0
2, 438760, Note_on_c, 1, 55, 127
2, 438760, Note_on_c, 1, 70, 127
2, 439080, Note_off_c, 1, 55, 0
2, 439080, Note_off_c, 1, 70, 0
2, 439120, Note_on_c, 1, 50, 127
2, 439120, Note_on_c, 1, 69, 127
2, 439280, Note_off_c, 1, 69, 0
2, 439320, Note_on_c, 1, 67, 127
2, 439480, Note_off_c, 1, 50, 0
2, 439480, Note_off_c, 1, 67, 0
2, 439520, Note_on_c, 1, 46, 127
2, 439520, Note_on_c, 1, 79, 127
2, 439840, Note_off_c, 1, 46, 0
2, 439840, Note_off_c, 1, 79, 0
2, 439880, Note_on_c, 1, 50, 127
2, 439880, Note_on_c, 1, 82, 127
2, 440040, Note_off_c, 1, 82, 0
2, 440080, Note_on_c, 1, 81, 127
2, 440200, Note_off_c, 1, 50, 0
2, 440200, Note_off_c, 1, 81, 0
2, 440240, Note_on_c, 1, 55, 127
2, 440240, Note_on_c, 1, 82, 127
2, 440600, Note_off_c, 1, 55, 0
2, 440600, Note_off_c, 1, 82, 0
2, 440640, Note_on_c, 1, 58, 127
2, 440640, Note_on_c, 1, 79, 127
2, 440760, Note_off_c, 1, 79, 0
2, 440840, Note_on_c, 1, 74, 127
2, 440960, Note_off_c, 1, 58, 0
2, 440960, Note_off_c, 1, 74, 0
2, 441000, Note_on_c, 1, 60, 127
2, 441000, Note_on_c, 1, 81, 127
2, 441360, Note_off_c, 1, 60, 0
2, 441360, Note_off_c, 1, 81, 0
2, 441400, Note_on_c, 1, 62, 127
2, 441400, Note_on_c, 1, 78, 127
2, 441520, Note_off_c, 1, 78, 0
2, 441560, Note_on_c, 1, 74, 127
2, 441720, Note_off_c, 1, 62, 0
2, 441720, Note_off_c, 1, 74, 0
2, 441760, Note_on_c, 1, 63, 127
2, 441760, Note_on_c, 1, 79, 127
2, 441920, Note_off_c, 1, 63, 0
2, 441960, Note_on_c, 1, 65, 127
2, 442080, Note_off_c, 1, 65, 0
2, 442120, Note_on_c, 1, 63, 127
2, 442280, Note_off_c, 1, 63, 0
2, 442280, Note_off_c, 1, 79, 0
2, 442320, Note_on_c, 1, 62, 127
2, 442320, Note_on_c, 1, 77, 127
2, 442480, Note_off_c, 1, 62, 0
2, 442480, Note_off_c, 1, 77, 0
2, 442520, Note_on_c, 1, 60, 127
2, 442520, Note_on_c, 1, 75, 127
2, 442640, Note_off_c, 1, 60, 0
2, 442640, Note_off_c, 1, 75, 0
2, 442680, Note_on_c, 1, 58, 127
2, 442680, Note_on_c, 1, 74, 127
2, 442840, Note_off_c, 1, 58, 0
2, 442840, Note_off_c, 1, 74, 0
2, 442880, Note_on_c, 1, 57, 127
2, 442880, Note_on_c, 1, 72, 127
2, 443040, Note_off_c, 1, 57, 0
2, 443040, Note_off_c, 1, 72, 0
2, 443080, Note_on_c, 1, 55, 127
2, 443080, Note_on_c, 1, 70, 127
2, 443200, Note_off_c, 1, 55, 0
2, 443200, Note_off_c, 1, 70, 0
2, 443240, Note_on_c, 1, 53, 127
2, 443240, Note_on_c, 1, 81, 127
2, 443400, Note_off_c, 1, 81, 0
2, 443440, Note_on_c, 1, 82, 127
2, 443600, Note_off_c, 1, 53, 0
2, 443600, Note_off_c, 1, 82, 0
2, 443640, Note_on_c, 1, 55, 127
2, 443640, Note_on_c, 1, 74, 127
2, 443760, Note_off_c, 1, 74, 0
2, 443800, Note_on_c, 1, 75, 127
2, 443960, Note_off_c, 1, 55, 0
2, 443960, Note_off_c, 1, 75, 0
2, 444000, Note_on_c, 1, 51, 127
2, 444000, Note_on_c, 1, 77, 127
2, 444160, Note_off_c, 1, 77, 0
2, 444200, Note_on_c, 1, 72, 127
2, 444320, Note_off_c, 1, 51, 0
2, 444320, Note_off_c, 1, 72, 0
2, 444360, Note_on_c, 1, 53, 127
2, 444360, Note_on_c, 1, 74, 127
2, 444720, Note_off_c, 1, 53, 0
2, 444720, Note_off_c, 1, 74, 0
2, 444760, Note_on_c, 1, 46, 127
2, 444760, Note_on_c, 1, 72, 127
2, 444880, Note_off_c, 1, 46, 0
2, 444960, Note_on_c, 1, 53, 127
2, 445080, Note_off_c, 1, 53, 0
2, 445080, Note_off_c, 1, 72, 0
2, 445120, Note_on_c, 1, 55, 127
2, 445120, Note_on_c, 1, 70, 127
2, 445280, Note_off_c, 1, 55, 0
2, 445320, Note_on_c, 1, 57, 127
2, 445480, Note_off_c, 1, 57, 0
2, 445480, Note_off_c, 1, 70, 0
2, 445520, Note_on_c, 1, 58, 127
2, 445520, Note_on_c, 1, 74, 127
2, 445840, Note_off_c, 1, 58, 0
2, 445840, Note_off_c, 1, 74, 0
2, 445880, Note_on_c, 1, 60, 127
2, 445880, Note_on_c, 1, 77, 127
2, 446040, Note_off_c, 1, 77, 0
2, 446080, Note_on_c, 1, 75, 127
2, 446200, Note_off_c, 1, 60, 0
2, 446200, Note_off_c, 1, 75, 0
2, 446240, Note_on_c, 1, 62, 127
2, 446240, Note_on_c, 1, 77, 127
2, 446600, Note_off_c, 1, 62, 0
2, 446600, Note_off_c, 1, 77, 0
2, 446640, Note_on_c, 1, 58, 127
2, 446640, Note_on_c, 1, 74, 127
2, 446760, Note_off_c, 1, 74, 0
2, 446800, Note_on_c, 1, 70, 127
2, 446960, Note_off_c, 1, 58, 0
2, 446960, Note_off_c, 1, 70, 0
2, 447000, Note_on_c, 1, 63, 127
2, 447000, Note_on_c, 1, 79, 127
2, 447320, Note_off_c, 1, 63, 0
2, 447320, Note_off_c, 1, 79, 0
2, 447360, Note_on_c, 1, 60, 127
2, 447360, Note_on_c, 1, 75, 127
2, 447520, Note_off_c, 1, 75, 0
2, 447560, Note_on_c, 1, 70, 127
2, 447720, Note_off_c, 1, 60, 0
2, 447720, Note_off_c, 1, 70, 0
2, 447760, Note_on_c, 1, 62, 127
2, 447760, Note_on_c, 1, 77, 127
2, 447880, Note_off_c, 1, 62, 0
2, 447920, Note_on_c, 1, 60, 127
2, 448080, Note_off_c, 1, 60, 0
2, 448120, Note_on_c, 1, 58, 127
2, 448280, Note_off_c, 1, 58, 0
2, 448320, Note_on_c, 1, 57, 127
2, 448440, Note_off_c, 1, 57, 0
2, 448440, Note_off_c, 1, 77, 0
2, 448480, Note_on_c, 1, 55, 127
2, 448480, Note_on_c, 1, 82, 127
2, 448640, Note_off_c, 1, 82, 0
2, 448680, Note_on_c, 1, 81, 127
2, 448840, Note_off_c, 1, 55, 0
2, 448840, Note_off_c, 1, 81, 0
2, 448880, Note_on_c, 1, 53, 127
2, 448880, Note_on_c, 1, 79, 127
2, 449040, Note_off_c, 1, 79, 0
2, 449080, Note_on_c, 1, 81, 127
2, 449200, Note_off_c, 1, 53, 0
2, 449200, Note_off_c, 1, 81, 0
2, 449240, Note_on_c, 1, 52, 127
2, 449240, Note_on_c, 1, 82, 127
2, 449400, Note_off_c, 1, 82, 0
2, 449440, Note_on_c, 1, 79, 127
2, 449600, Note_off_c, 1, 52, 0
2, 449600, Note_off_c, 1, 79, 0
2, 449640, Note_on_c, 1, 48, 127
2, 449640, Note_on_c, 1, 76, 127
2, 449760, Note_off_c, 1, 76, 0
2, 449800, Note_on_c, 1, 72, 127
2, 449960, Note_off_c, 1, 48, 0
2, 449960, Note_off_c, 1, 72, 0
2, 450000, Note_on_c, 1, 50, 127
2, 450000, Note_on_c, 1, 82, 127
2, 450160, Note_off_c, 1, 82, 0
2, 450200, Note_on_c, 1, 81, 127
2, 450320, Note_off_c, 1, 50, 0
2, 450320, Note_off_c, 1, 81, 0
2, 450360, Note_on_c, 1, 52, 127
2, 450360, Note_on_c, 1, 79, 127
2, 450520, Note_off_c, 1, 79, 0
2, 450560, Note_on_c, 1, 81, 127
2, 450720, Note_off_c, 1, 52, 0
2, 450720, Note_off_c, 1, 81, 0
2, 450760, Note_on_c, 1, 53, 127
2, 450760, Note_on_c, 1, 82, 127
2, 450880, Note_off_c, 1, 82, 0
2, 450920, Note_on_c, 1, 81, 127
2, 451080, Note_off_c, 1, 53, 0
2, 451080, Note_off_c, 1, 81, 0
2, 451120, Note_on_c, 1, 55, 127
2, 451120, Note_on_c, 1, 79, 127
2, 451280, Note_off_c, 1, 55, 0
2, 451280, Note_off_c, 1, 79, 0
2, 451320, Note_on_c, 1, 57, 127
2, 451320, Note_on_c, 1, 77, 127
2, 451440, Note_off_c, 1, 57, 0
2, 451440, Note_off_c, 1, 77, 0
2, 451480, Note_on_c, 1, 58, 127
2, 451480, Note_on_c, 1, 79, 127
2, 451640, Note_off_c, 1, 79, 0
2, 451680, Note_on_c, 1, 77, 127
2, 451840, Note_off_c, 1, 58, 0
2, 451840, Note_off_c, 1, 77, 0
2, 451880, Note_on_c, 1, 55, 127
2, 451880, Note_on_c, 1, 76, 127
2, 452000, Note_off_c, 1, 76, 0
2, 452040, Note_on_c, 1, 77, 127
2, 452200, Note_off_c, 1, 55, 0
2, 452200, Note_off_c, 1, 77, 0
2, 452240, Note_on_c, 1, 52, 127
2, 452240, Note_on_c, 1, 79, 127
2, 452400, Note_off_c, 1, 79, 0
2, 452440, Note_on_c, 1, 76, 127
2, 452560, Note_off_c, 1, 52, 0
2, 452560, Note_off_c, 1, 76, 0
2, 452640, Note_on_c, 1, 45, 127
2, 452640, Note_on_c, 1, 73, 127
2, 452760, Note_off_c, 1, 73, 0
2, 452800, Note_on_c, 1, 69, 127
2, 452960, Note_off_c, 1, 45, 0
2, 452960, Note_off_c, 1, 69, 0
2, 453000, Note_on_c, 1, 47, 127
2, 453000, Note_on_c, 1, 79, 127
2, 453160, Note_off_c, 1, 79, 0
2, 453200, Note_on_c, 1, 77, 127
2, 453320, Note_off_c, 1, 47, 0
2, 453320, Note_off_c, 1, 77, 0
2, 453360, Note_on_c, 1, 49, 127
2, 453360, Note_on_c, 1, 76, 127
2, 453520, Note_off_c, 1, 76, 0
2, 453560, Note_on_c, 1, 77, 127
2, 453720, Note_off_c, 1, 49, 0
2, 453720, Note_off_c, 1, 77, 0
2, 453760, Note_on_c, 1, 50, 127
2, 453760, Note_on_c, 1, 79, 127
2, 453880, Note_off_c, 1, 79, 0
2, 453920, Note_on_c, 1, 77, 127
2, 454080, Note_off_c, 1, 50, 0
2, 454080, Note_off_c, 1, 77, 0
2, 454120, Note_on_c, 1, 38, 127
2, 454120, Note_on_c, 1, 76, 127
2, 454280, Note_off_c, 1, 76, 0
2, 454320, Note_on_c, 1, 74, 127
2, 454440, Note_off_c, 1, 38, 0
2, 454440, Note_off_c, 1, 74, 0
2, 454480, Note_on_c, 1, 62, 127
2, 454480, Note_on_c, 1, 81, 127
2, 454840, Note_off_c, 1, 62, 0
2, 454840, Note_off_c, 1, 81, 0
2, 454880, Note_on_c, 1, 65, 127
2, 454880, Note_on_c, 1, 81, 127
2, 455000, Note_off_c, 1, 65, 0
2, 455040, Note_on_c, 1, 64, 127
2, 455200, Note_off_c, 1, 64, 0
2, 455200, Note_off_c, 1, 81, 0
2, 455240, Note_on_c, 1, 65, 127
2, 455240, Note_on_c, 1, 82, 127
2, 455280, Note_off_c, 1, 82, 0
2, 455320, Note_on_c, 1, 81, 127
2, 455400, Note_off_c, 1, 81, 0
2, 455400, Note_on_c, 1, 82, 127
2, 455440, Note_off_c, 1, 82, 0
2, 455480, Note_on_c, 1, 81, 127
2, 455520, Note_off_c, 1, 81, 0
2, 455560, Note_off_c, 1, 65, 0
2, 455560, Note_on_c, 1, 82, 127
2, 455600, Note_on_c, 1, 62, 127
2, 455600, Note_off_c, 1, 82, 0
2, 455640, Note_on_c, 1, 81, 127
2, 455680, Note_off_c, 1, 81, 0
2, 455720, Note_on_c, 1, 82, 127
2, 455760, Note_off_c, 1, 62, 0
2, 455760, Note_off_c, 1, 82, 0
2, 455800, Note_on_c, 1, 57, 127
2, 455800, Note_on_c, 1, 81, 127
2, 455840, Note_off_c, 1, 81, 0
2, 455880, Note_on_c, 1, 82, 127
2, 455920, Note_off_c, 1, 82, 0
2, 455960, Note_off_c, 1, 57, 0
2, 455960, Note_on_c, 1, 81, 127
2, 456000, Note_on_c, 1, 64, 127
2, 456000, Note_off_c, 1, 81, 0
2, 456000, Note_on_c, 1, 82, 127
2, 456080, Note_on_c, 1, 81, 127
2, 456080, Note_off_c, 1, 82, 0
2, 456160, Note_off_c, 1, 81, 0
2, 456160, Note_on_c, 1, 82, 127
2, 456240, Note_on_c, 1, 81, 127
2, 456240, Note_off_c, 1, 82, 0
2, 456280, Note_off_c, 1, 81, 0
2, 456320, Note_off_c, 1, 64, 0
2, 456320, Note_on_c, 1, 82, 127
2, 456360, Note_on_c, 1, 61, 127
2, 456360, Note_off_c, 1, 82, 0
2, 456400, Note_on_c, 1, 81, 127
2, 456440, Note_off_c, 1, 81, 0
2, 456480, Note_on_c, 1, 82, 127
2, 456520, Note_off_c, 1, 61, 0
2, 456520, Note_off_c, 1, 82, 0
2, 456560, Note_on_c, 1, 57, 127
2, 456560, Note_on_c, 1, 81, 127
2, 456680, Note_off_c, 1, 57, 0
2, 456720, Note_on_c, 1, 62, 127
2, 456800, Note_off_c, 1, 81, 0
2, 456920, Note_on_c, 1, 77, 127
2, 457080, Note_off_c, 1, 77, 0
2, 457120, Note_on_c, 1, 79, 127
2, 457240, Note_off_c, 1, 79, 0
2, 457280, Note_on_c, 1, 81, 127
2, 457440, Note_off_c, 1, 62, 0
2, 457440, Note_off_c, 1, 81, 0
2, 457480, Note_on_c, 1, 55, 127
2, 457480, Note_on_c, 1, 82, 127
2, 457640, Note_off_c, 1, 82, 0
2, 457680, Note_on_c, 1, 81, 127
2, 457800, Note_off_c, 1, 55, 0
2, 457800, Note_off_c, 1, 81, 0
2, 457840, Note_on_c, 1, 57, 127
2, 457840, Note_on_c, 1, 79, 127
2, 458000, Note_off_c, 1, 79, 0
2, 458040, Note_on_c, 1, 77, 127
2, 458200, Note_off_c, 1, 57, 0
2, 458200, Note_off_c, 1, 77, 0
2, 458240, Note_on_c, 1, 58, 127
2, 458240, Note_on_c, 1, 76, 127
2, 458360, Note_off_c, 1, 76, 0
2, 458400, Note_on_c, 1, 74, 127
2, 458560, Note_off_c, 1, 58, 0
2, 458560, Note_off_c, 1, 74, 0
2, 458600, Note_on_c, 1, 55, 127
2, 458600, Note_on_c, 1, 73, 127
2, 458760, Note_off_c, 1, 73, 0
2, 458800, Note_on_c, 1, 74, 127
2, 458920, Note_off_c, 1, 55, 0
2, 458920, Note_off_c, 1, 74, 0
2, 458960, Note_on_c, 1, 57, 127
2, 458960, Note_on_c, 1, 79, 127
2, 459120, Note_off_c, 1, 79, 0
2, 459160, Note_on_c, 1, 77, 127
2, 459320, Note_off_c, 1, 57, 0
2, 459320, Note_off_c, 1, 77, 0
2, 459360, Note_on_c, 1, 45, 127
2, 459360, Note_on_c, 1, 76, 127
2, 459480, Note_off_c, 1, 76, 0
2, 459520, Note_on_c, 1, 77, 127
2, 459680, Note_off_c, 1, 45, 0
2, 459680, Note_off_c, 1, 77, 0
2, 459720, Note_on_c, 1, 38, 127
2, 459720, Note_on_c, 1, 74, 127
2, 459880, Note_off_c, 1, 38, 0
2, 459920, Note_on_c, 1, 50, 127
2, 460040, Note_off_c, 1, 50, 0
2, 460080, Note_on_c, 1, 51, 127
2, 460240, Note_off_c, 1, 51, 0
2, 460280, Note_on_c, 1, 53, 127
2, 460440, Note_off_c, 1, 53, 0
2, 460440, Note_off_c, 1, 74, 0
2, 460480, Note_on_c, 1, 55, 127
2, 460480, Note_on_c, 1, 74, 127
2, 460520, Note_off_c, 1, 55, 0
2, 460560, Note_on_c, 1, 54, 127
2, 460600, Note_off_c, 1, 54, 0
2, 460680, Note_on_c, 1, 55, 127
2, 460800, Note_off_c, 1, 55, 0
2, 460800, Note_off_c, 1, 74, 0
2, 460840, Note_on_c, 1, 55, 127
2, 460840, Note_on_c, 1, 77, 127
2, 460880, Note_off_c, 1, 55, 0
2, 460960, Note_on_c, 1, 54, 127
2, 461000, Note_off_c, 1, 54, 0
2, 461000, Note_off_c, 1, 77, 0
2, 461040, Note_on_c, 1, 55, 127
2, 461040, Note_on_c, 1, 75, 127
2, 461160, Note_off_c, 1, 55, 0
2, 461160, Note_off_c, 1, 75, 0
2, 461240, Note_on_c, 1, 55, 127
2, 461240, Note_on_c, 1, 77, 127
2, 461280, Note_off_c, 1, 55, 0
2, 461320, Note_on_c, 1, 54, 127
2, 461360, Note_off_c, 1, 54, 0
2, 461400, Note_on_c, 1, 55, 127
2, 461560, Note_off_c, 1, 77, 0
2, 461600, Note_on_c, 1, 74, 127
2, 461720, Note_off_c, 1, 74, 0
2, 461800, Note_on_c, 1, 71, 127
2, 461920, Note_off_c, 1, 71, 0
2, 461960, Note_on_c, 1, 80, 127
2, 462320, Note_off_c, 1, 80, 0
2, 462360, Note_on_c, 1, 77, 127
2, 462480, Note_off_c, 1, 77, 0
2, 462520, Note_on_c, 1, 74, 127
2, 462680, Note_off_c, 1, 74, 0
2, 462720, Note_on_c, 1, 75, 127
2, 463040, Note_off_c, 1, 75, 0
2, 463080, Note_on_c, 1, 72, 127
2, 463240, Note_off_c, 1, 72, 0
2, 463280, Note_on_c, 1, 67, 127
2, 463440, Note_off_c, 1, 55, 0
2, 463440, Note_off_c, 1, 67, 0
2, 463480, Note_on_c, 1, 55, 127
2, 463480, Note_on_c, 1, 79, 127
2, 463520, Note_off_c, 1, 55, 0
2, 463560, Note_on_c, 1, 54, 127
2, 463600, Note_off_c, 1, 54, 0
2, 463640, Note_on_c, 1, 55, 127
2, 463800, Note_off_c, 1, 55, 0
2, 463800, Note_off_c, 1, 79, 0
2, 463840, Note_on_c, 1, 55, 127
2, 463840, Note_on_c, 1, 75, 127
2, 463880, Note_off_c, 1, 55, 0
2, 463920, Note_on_c, 1, 54, 127
2, 464000, Note_off_c, 1, 54, 0
2, 464000, Note_off_c, 1, 75, 0
2, 464040, Note_on_c, 1, 55, 127
2, 464040, Note_on_c, 1, 72, 127
2, 464160, Note_off_c, 1, 55, 0
2, 464160, Note_off_c, 1, 72, 0
2, 464200, Note_on_c, 1, 55, 127
2, 464200, Note_on_c, 1, 74, 127
2, 464560, Note_off_c, 1, 74, 0
2, 464600, Note_on_c, 1, 70, 127
2, 464720, Note_off_c, 1, 70, 0
2, 464760, Note_on_c, 1, 67, 127
2, 464920, Note_off_c, 1, 55, 0
2, 464920, Note_off_c, 1, 67, 0
2, 464960, Note_on_c, 1, 55, 127
2, 464960, Note_on_c, 1, 79, 127
2, 465000, Note_off_c, 1, 55, 0
2, 465040, Note_on_c, 1, 54, 127
2, 465120, Note_off_c, 1, 54, 0
2, 465160, Note_on_c, 1, 55, 127
2, 465280, Note_off_c, 1, 55, 0
2, 465280, Note_off_c, 1, 79, 0
2, 465320, Note_on_c, 1, 55, 127
2, 465320, Note_on_c, 1, 74, 127
2, 465480, Note_off_c, 1, 74, 0
2, 465520, Note_on_c, 1, 70, 127
2, 465680, Note_off_c, 1, 55, 0
2, 465680, Note_off_c, 1, 70, 0
2, 465720, Note_on_c, 1, 55, 127
2, 465720, Note_on_c, 1, 72, 127
2, 466040, Note_off_c, 1, 72, 0
2, 466080, Note_on_c, 1, 69, 127
2, 466240, Note_off_c, 1, 69, 0
2, 466280, Note_on_c, 1, 66, 127
2, 466400, Note_off_c, 1, 55, 0
2, 466400, Note_off_c, 1, 66, 0
2, 466440, Note_on_c, 1, 55, 127
2, 466440, Note_on_c, 1, 75, 127
2, 466600, Note_off_c, 1, 55, 0
2, 466640, Note_on_c, 1, 55, 127
2, 466800, Note_off_c, 1, 55, 0
2, 466800, Note_off_c, 1, 75, 0
2, 466840, Note_on_c, 1, 55, 127
2, 466840, Note_on_c, 1, 72, 127
2, 466960, Note_off_c, 1, 55, 0
2, 466960, Note_off_c, 1, 72, 0
2, 467040, Note_on_c, 1, 55, 127
2, 467040, Note_on_c, 1, 69, 127
2, 467160, Note_off_c, 1, 55, 0
2, 467160, Note_off_c, 1, 69, 0
2, 467200, Note_on_c, 1, 55, 127
2, 467200, Note_on_c, 1, 74, 127
2, 467360, Note_off_c, 1, 55, 0
2, 467400, Note_on_c, 1, 55, 127
2, 467560, Note_off_c, 1, 55, 0
2, 467560, Note_off_c, 1, 74, 0
2, 467600, Note_on_c, 1, 55, 127
2, 467600, Note_on_c, 1, 70, 127
2, 467720, Note_off_c, 1, 55, 0
2, 467720, Note_off_c, 1, 70, 0
2, 467760, Note_on_c, 1, 55, 127
2, 467760, Note_on_c, 1, 67, 127
2, 467920, Note_off_c, 1, 55, 0
2, 467920, Note_off_c, 1, 67, 0
2, 467960, Note_on_c, 1, 55, 127
2, 467960, Note_on_c, 1, 72, 127
2, 468120, Note_off_c, 1, 55, 0
2, 468120, Note_off_c, 1, 72, 0
2, 468160, Note_on_c, 1, 54, 127
2, 468160, Note_on_c, 1, 69, 127
2, 468280, Note_off_c, 1, 54, 0
2, 468280, Note_off_c, 1, 69, 0
2, 468320, Note_on_c, 1, 55, 127
2, 468320, Note_on_c, 1, 70, 127
2, 468480, Note_off_c, 1, 70, 0
2, 468520, Note_on_c, 1, 67, 127
2, 468680, Note_off_c, 1, 55, 0
2, 468680, Note_off_c, 1, 67, 0
2, 468720, Note_on_c, 1, 50, 127
2, 468720, Note_on_c, 1, 69, 127
2, 468840, Note_off_c, 1, 69, 0
2, 468880, Note_on_c, 1, 62, 127
2, 469040, Note_off_c, 1, 50, 0
2, 469040, Note_off_c, 1, 62, 0
2, 469080, Note_on_c, 1, 48, 127
2, 469080, Note_on_c, 1, 64, 127
2, 469240, Note_off_c, 1, 64, 0
2, 469280, Note_on_c, 1, 66, 127
2, 469400, Note_off_c, 1, 48, 0
2, 469400, Note_off_c, 1, 66, 0
2, 469440, Note_on_c, 1, 46, 127
2, 469440, Note_on_c, 1, 67, 127
2, 469600, Note_off_c, 1, 67, 0
2, 469640, Note_on_c, 1, 69, 127
2, 469800, Note_off_c, 1, 46, 0
2, 469800, Note_off_c, 1, 69, 0
2, 469840, Note_on_c, 1, 50, 127
2, 469840, Note_on_c, 1, 70, 127
2, 469960, Note_off_c, 1, 70, 0
2, 470000, Note_on_c, 1, 67, 127
2, 470160, Note_off_c, 1, 50, 0
2, 470160, Note_off_c, 1, 67, 0
2, 470200, Note_on_c, 1, 42, 127
2, 470200, Note_on_c, 1, 75, 127
2, 470360, Note_off_c, 1, 75, 0
2, 470400, Note_on_c, 1, 72, 127
2, 470520, Note_off_c, 1, 42, 0
2, 470520, Note_off_c, 1, 72, 0
2, 470600, Note_on_c, 1, 50, 127
2, 470600, Note_on_c, 1, 74, 127
2, 470720, Note_off_c, 1, 74, 0
2, 470760, Note_on_c, 1, 70, 127
2, 470920, Note_off_c, 1, 50, 0
2, 470920, Note_off_c, 1, 70, 0
2, 470960, Note_on_c, 1, 43, 127
2, 470960, Note_on_c, 1, 72, 127
2, 471080, Note_off_c, 1, 72, 0
2, 471160, Note_on_c, 1, 69, 127
2, 471280, Note_off_c, 1, 43, 0
2, 471280, Note_off_c, 1, 69, 0
2, 471320, Note_on_c, 1, 50, 127
2, 471320, Note_on_c, 1, 70, 127
2, 471480, Note_off_c, 1, 70, 0
2, 471520, Note_on_c, 1, 67, 127
2, 471680, Note_off_c, 1, 50, 0
2, 471680, Note_off_c, 1, 67, 0
2, 471720, Note_on_c, 1, 38, 127
2, 471720, Note_on_c, 1, 69, 127
2, 472040, Note_off_c, 1, 38, 0
2, 472080, Note_on_c, 1, 50, 127
2, 472080, Note_on_c, 1, 62, 127
2, 472080, Note_off_c, 1, 69, 0
2, 472240, Note_off_c, 1, 50, 0
2, 472280, Note_on_c, 1, 48, 127
2, 472320, Note_off_c, 1, 62, 0
2, 472400, Note_off_c, 1, 48, 0
2, 472440, Note_on_c, 1, 46, 127
2, 472440, Note_on_c, 1, 67, 127
2, 472800, Note_off_c, 1, 46, 0
2, 472800, Note_off_c, 1, 67, 0
2, 472840, Note_on_c, 1, 45, 127
2, 472840, Note_on_c, 1, 70, 127
2, 472960, Note_off_c, 1, 70, 0
2, 473000, Note_on_c, 1, 69, 127
2, 473160, Note_off_c, 1, 45, 0
2, 473160, Note_off_c, 1, 69, 0
2, 473200, Note_on_c, 1, 43, 127
2, 473200, Note_on_c, 1, 70, 127
2, 473400, Note_on_c, 1, 66, 127
2, 473400, Note_off_c, 1, 70, 0
2, 473520, Note_off_c, 1, 66, 0
2, 473560, Note_on_c, 1, 67, 127
2, 473640, Note_off_c, 1, 43, 0
2, 473720, Note_off_c, 1, 67, 0
2, 473760, Note_on_c, 1, 62, 127
2, 473920, Note_off_c, 1, 62, 0
2, 473960, Note_on_c, 1, 41, 127
2, 473960, Note_on_c, 1, 71, 127
2, 474120, Note_on_c, 1, 65, 127
2, 474160, Note_off_c, 1, 71, 0
2, 474280, Note_off_c, 1, 65, 0
2, 474320, Note_on_c, 1, 67, 127
2, 474360, Note_off_c, 1, 41, 0
2, 474480, Note_off_c, 1, 67, 0
2, 474520, Note_on_c, 1, 62, 127
2, 474640, Note_off_c, 1, 62, 0
2, 474720, Note_on_c, 1, 39, 127
2, 474720, Note_on_c, 1, 72, 127
2, 474880, Note_on_c, 1, 62, 127
2, 474880, Note_off_c, 1, 72, 0
2, 475040, Note_off_c, 1, 39, 0
2, 475040, Note_off_c, 1, 62, 0
2, 475080, Note_on_c, 1, 55, 127
2, 475080, Note_on_c, 1, 63, 127
2, 475240, Note_off_c, 1, 55, 0
2, 475240, Note_off_c, 1, 63, 0
2, 475280, Note_on_c, 1, 53, 127
2, 475280, Note_on_c, 1, 67, 127
2, 475400, Note_off_c, 1, 53, 0
2, 475400, Note_off_c, 1, 67, 0
2, 475440, Note_on_c, 1, 51, 127
2, 475440, Note_on_c, 1, 72, 127
2, 475600, Note_off_c, 1, 72, 0
2, 475640, Note_on_c, 1, 67, 127
2, 475800, Note_off_c, 1, 51, 0
2, 475800, Note_off_c, 1, 67, 0
2, 475840, Note_on_c, 1, 50, 127
2, 475840, Note_on_c, 1, 74, 127
2, 475960, Note_off_c, 1, 74, 0
2, 476000, Note_on_c, 1, 67, 127
2, 476160, Note_off_c, 1, 50, 0
2, 476160, Note_off_c, 1, 67, 0
2, 476200, Note_on_c, 1, 48, 127
2, 476200, Note_on_c, 1, 75, 127
2, 476400, Note_on_c, 1, 71, 127
2, 476400, Note_off_c, 1, 75, 0
2, 476520, Note_off_c, 1, 71, 0
2, 476560, Note_on_c, 1, 72, 127
2, 476640, Note_off_c, 1, 48, 0
2, 476720, Note_off_c, 1, 72, 0
2, 476760, Note_on_c, 1, 67, 127
2, 476920, Note_off_c, 1, 67, 0
2, 476960, Note_on_c, 1, 46, 127
2, 476960, Note_on_c, 1, 76, 127
2, 477120, Note_on_c, 1, 70, 127
2, 477120, Note_off_c, 1, 76, 0
2, 477280, Note_off_c, 1, 70, 0
2, 477320, Note_on_c, 1, 72, 127
2, 477360, Note_off_c, 1, 46, 0
2, 477480, Note_off_c, 1, 72, 0
2, 477520, Note_on_c, 1, 67, 127
2, 477640, Note_off_c, 1, 67, 0
2, 477680, Note_on_c, 1, 45, 127
2, 477680, Note_on_c, 1, 77, 127
2, 477880, Note_on_c, 1, 67, 127
2, 477880, Note_off_c, 1, 77, 0
2, 478040, Note_off_c, 1, 45, 0
2, 478040, Note_off_c, 1, 67, 0
2, 478080, Note_on_c, 1, 60, 127
2, 478080, Note_on_c, 1, 69, 127
2, 478200, Note_off_c, 1, 60, 0
2, 478200, Note_off_c, 1, 69, 0
2, 478240, Note_on_c, 1, 58, 127
2, 478240, Note_on_c, 1, 72, 127
2, 478400, Note_off_c, 1, 58, 0
2, 478400, Note_off_c, 1, 72, 0
2, 478440, Note_on_c, 1, 57, 127
2, 478440, Note_on_c, 1, 78, 127
2, 478640, Note_on_c, 1, 72, 127
2, 478640, Note_off_c, 1, 78, 0
2, 478760, Note_off_c, 1, 57, 0
2, 478760, Note_off_c, 1, 72, 0
2, 478840, Note_on_c, 1, 55, 127
2, 478840, Note_on_c, 1, 79, 127
2, 479000, Note_on_c, 1, 72, 127
2, 479000, Note_off_c, 1, 79, 0
2, 479160, Note_off_c, 1, 55, 0
2, 479160, Note_off_c, 1, 72, 0
2, 479200, Note_on_c, 1, 54, 127
2, 479200, Note_on_c, 1, 81, 127
2, 479400, Note_on_c, 1, 76, 127
2, 479400, Note_off_c, 1, 81, 0
2, 479520, Note_off_c, 1, 76, 0
2, 479560, Note_on_c, 1, 78, 127
2, 479640, Note_off_c, 1, 54, 0
2, 479760, Note_on_c, 1, 74, 127
2, 479760, Note_off_c, 1, 78, 0
2, 479920, Note_off_c, 1, 74, 0
2, 479960, Note_on_c, 1, 52, 127
2, 479960, Note_on_c, 1, 82, 127
2, 480080, Note_off_c, 1, 82, 0
2, 480120, Note_on_c, 1, 78, 127
2, 480280, Note_off_c, 1, 78, 0
2, 480320, Note_on_c, 1, 79, 127
2, 480360, Note_off_c, 1, 52, 0
2, 480480, Note_off_c, 1, 79, 0
2, 480520, Note_on_c, 1, 74, 127
2, 480640, Note_off_c, 1, 74, 0
2, 480680, Note_on_c, 1, 50, 127
2, 480680, Note_on_c, 1, 84, 127
2, 480840, Note_off_c, 1, 84, 0
2, 480880, Note_on_c, 1, 81, 127
2, 481040, Note_off_c, 1, 50, 0
2, 481040, Note_off_c, 1, 81, 0
2, 481080, Note_on_c, 1, 54, 127
2, 481080, Note_on_c, 1, 74, 127
2, 481200, Note_off_c, 1, 74, 0
2, 481240, Note_on_c, 1, 84, 127
2, 481400, Note_off_c, 1, 54, 0
2, 481400, Note_off_c, 1, 84, 0
2, 481440, Note_on_c, 1, 55, 127
2, 481440, Note_on_c, 1, 82, 127
2, 481600, Note_off_c, 1, 82, 0
2, 481640, Note_on_c, 1, 81, 127
2, 481760, Note_off_c, 1, 55, 0
2, 481760, Note_off_c, 1, 81, 0
2, 481800, Note_on_c, 1, 57, 127
2, 481800, Note_on_c, 1, 79, 127
2, 481960, Note_off_c, 1, 79, 0
2, 482000, Note_on_c, 1, 78, 127
2, 482160, Note_off_c, 1, 57, 0
2, 482160, Note_off_c, 1, 78, 0
2, 482200, Note_on_c, 1, 58, 127
2, 482200, Note_on_c, 1, 79, 127
2, 482320, Note_off_c, 1, 79, 0
2, 482400, Note_on_c, 1, 74, 127
2, 482520, Note_off_c, 1, 58, 0
2, 482520, Note_off_c, 1, 74, 0
2, 482560, Note_on_c, 1, 60, 127
2, 482560, Note_on_c, 1, 75, 127
2, 482720, Note_off_c, 1, 75, 0
2, 482760, Note_on_c, 1, 72, 127
2, 482920, Note_off_c, 1, 60, 0
2, 482920, Note_off_c, 1, 72, 0
2, 482960, Note_on_c, 1, 62, 127
2, 482960, Note_on_c, 1, 72, 127
2, 483000, Note_off_c, 1, 72, 0
2, 483040, Note_on_c, 1, 70, 127
2, 483080, Note_off_c, 1, 70, 0
2, 483120, Note_on_c, 1, 72, 127
2, 483160, Note_off_c, 1, 72, 0
2, 483240, Note_on_c, 1, 70, 127
2, 483280, Note_off_c, 1, 62, 0
2, 483280, Note_off_c, 1, 70, 0
2, 483320, Note_on_c, 1, 50, 127
2, 483320, Note_on_c, 1, 69, 127
2, 483440, Note_off_c, 1, 69, 0
2, 483520, Note_on_c, 1, 67, 127
2, 483640, Note_off_c, 1, 50, 0
2, 483640, Note_off_c, 1, 67, 0
2, 483680, Note_on_c, 1, 43, 127
2, 483680, Note_on_c, 1, 67, 127
2, 484400, Note_off_c, 1, 43, 0
2, 484400, Note_off_c, 1, 67, 0
2, 484440, Note_on_c, 1, 55, 127
2, 484440, Note_on_c, 1, 59, 127
2, 484440, Note_on_c, 1, 62, 127
2, 484760, Note_off_c, 1, 59, 0
2, 484760, Note_off_c, 1, 62, 0
2, 484800, Note_on_c, 1, 57, 127
2, 484800, Note_on_c, 1, 64, 127
2, 484960, Note_off_c, 1, 64, 0
2, 485000, Note_on_c, 1, 60, 127
2, 485160, Note_off_c, 1, 57, 0
2, 485160, Note_off_c, 1, 60, 0
2, 485200, Note_on_c, 1, 59, 127
2, 485200, Note_on_c, 1, 62, 127
2, 485520, Note_off_c, 1, 59, 0
2, 485520, Note_off_c, 1, 62, 0
2, 485560, Note_on_c, 1, 60, 127
2, 485560, Note_on_c, 1, 67, 127
2, 485720, Note_off_c, 1, 67, 0
2, 485760, Note_on_c, 1, 69, 127
2, 485880, Note_off_c, 1, 60, 0
2, 485880, Note_off_c, 1, 69, 0
2, 485920, Note_on_c, 1, 62, 127
2, 485920, Note_on_c, 1, 71, 127
2, 486280, Note_off_c, 1, 62, 0
2, 486280, Note_off_c, 1, 71, 0
2, 486320, Note_on_c, 1, 60, 127
2, 486320, Note_on_c, 1, 69, 127
2, 486440, Note_off_c, 1, 69, 0
2, 486480, Note_on_c, 1, 66, 127
2, 486640, Note_off_c, 1, 60, 0
2, 486640, Note_off_c, 1, 66, 0
2, 486680, Note_on_c, 1, 59, 127
2, 486680, Note_on_c, 1, 67, 127
2, 487000, Note_off_c, 1, 59, 0
2, 487000, Note_off_c, 1, 67, 0
2, 487040, Note_on_c, 1, 60, 127
2, 487040, Note_on_c, 1, 62, 127
2, 487400, Note_off_c, 1, 55, 0
2, 487400, Note_off_c, 1, 60, 0
2, 487400, Note_off_c, 1, 62, 0
2, 487440, Note_on_c, 1, 55, 127
2, 487440, Note_on_c, 1, 59, 127
2, 487440, Note_on_c, 1, 67, 127
2, 487760, Note_off_c, 1, 59, 0
2, 487760, Note_off_c, 1, 67, 0
2, 487800, Note_on_c, 1, 57, 127
2, 487800, Note_on_c, 1, 69, 127
2, 487960, Note_off_c, 1, 69, 0
2, 488000, Note_on_c, 1, 66, 127
2, 488160, Note_off_c, 1, 57, 0
2, 488160, Note_off_c, 1, 66, 0
2, 488200, Note_on_c, 1, 59, 127
2, 488200, Note_on_c, 1, 67, 127
2, 488320, Note_off_c, 1, 67, 0
2, 488360, Note_on_c, 1, 69, 127
2, 488520, Note_off_c, 1, 59, 0
2, 488520, Note_off_c, 1, 69, 0
2, 488560, Note_on_c, 1, 60, 127
2, 488560, Note_on_c, 1, 71, 127
2, 488720, Note_off_c, 1, 71, 0
2, 488760, Note_on_c, 1, 72, 127
2, 488880, Note_off_c, 1, 60, 0
2, 488880, Note_off_c, 1, 72, 0
2, 488920, Note_on_c, 1, 59, 127
2, 488920, Note_on_c, 1, 74, 127
2, 489080, Note_off_c, 1, 74, 0
2, 489120, Note_on_c, 1, 71, 127
2, 489280, Note_off_c, 1, 59, 0
2, 489280, Note_off_c, 1, 71, 0
2, 489320, Note_on_c, 1, 57, 127
2, 489320, Note_on_c, 1, 72, 127
2, 489440, Note_off_c, 1, 72, 0
2, 489480, Note_on_c, 1, 69, 127
2, 489640, Note_off_c, 1, 55, 0
2, 489640, Note_off_c, 1, 57, 0
2, 489640, Note_off_c, 1, 69, 0
2, 489680, Note_on_c, 1, 55, 127
2, 489680, Note_on_c, 1, 71, 127
2, 490400, Note_off_c, 1, 55, 0
2, 490400, Note_off_c, 1, 71, 0
2, 490440, Note_on_c, 1, 55, 127
2, 490440, Note_on_c, 1, 59, 127
2, 490440, Note_on_c, 1, 74, 127
2, 490760, Note_off_c, 1, 59, 0
2, 490760, Note_off_c, 1, 74, 0
2, 490800, Note_on_c, 1, 57, 127
2, 490800, Note_on_c, 1, 76, 127
2, 490960, Note_off_c, 1, 76, 0
2, 491000, Note_on_c, 1, 72, 127
2, 491120, Note_off_c, 1, 57, 0
2, 491120, Note_off_c, 1, 72, 0
2, 491160, Note_on_c, 1, 59, 127
2, 491160, Note_on_c, 1, 74, 127
2, 491520, Note_off_c, 1, 59, 0
2, 491520, Note_off_c, 1, 74, 0
2, 491560, Note_on_c, 1, 64, 127
2, 491560, Note_on_c, 1, 72, 127
2, 491680, Note_off_c, 1, 72, 0
2, 491760, Note_on_c, 1, 69, 127
2, 491880, Note_off_c, 1, 64, 0
2, 491880, Note_off_c, 1, 69, 0
2, 491920, Note_on_c, 1, 62, 127
2, 491920, Note_on_c, 1, 71, 127
2, 492080, Note_off_c, 1, 71, 0
2, 492120, Note_on_c, 1, 67, 127
2, 492280, Note_off_c, 1, 62, 0
2, 492280, Note_off_c, 1, 67, 0
2, 492320, Note_on_c, 1, 60, 127
2, 492320, Note_on_c, 1, 69, 127
2, 492440, Note_off_c, 1, 69, 0
2, 492480, Note_on_c, 1, 66, 127
2, 492640, Note_off_c, 1, 60, 0
2, 492640, Note_off_c, 1, 66, 0
2, 492680, Note_on_c, 1, 60, 127
2, 492680, Note_on_c, 1, 67, 127
2, 492840, Note_off_c, 1, 60, 0
2, 492880, Note_on_c, 1, 59, 127
2, 493000, Note_off_c, 1, 59, 0
2, 493000, Note_off_c, 1, 67, 0
2, 493040, Note_on_c, 1, 57, 127
2, 493040, Note_on_c, 1, 62, 127
2, 493200, Note_off_c, 1, 57, 0
2, 493240, Note_on_c, 1, 59, 127
2, 493360, Note_off_c, 1, 55, 0
2, 493400, Note_off_c, 1, 59, 0
2, 493400, Note_off_c, 1, 62, 0
2, 493440, Note_on_c, 1, 55, 127
2, 493440, Note_on_c, 1, 60, 127
2, 493440, Note_on_c, 1, 64, 127
2, 493560, Note_off_c, 1, 64, 0
2, 493600, Note_on_c, 1, 62, 127
2, 493760, Note_off_c, 1, 60, 0
2, 493760, Note_off_c, 1, 62, 0
2, 493800, Note_on_c, 1, 59, 127
2, 493800, Note_on_c, 1, 67, 127
2, 493960, Note_off_c, 1, 67, 0
2, 494000, Note_on_c, 1, 62, 127
2, 494120, Note_off_c, 1, 59, 0
2, 494120, Note_off_c, 1, 62, 0
2, 494160, Note_on_c, 1, 60, 127
2, 494160, Note_on_c, 1, 64, 127
2, 494320, Note_off_c, 1, 64, 0
2, 494360, Note_on_c, 1, 62, 127
2, 494520, Note_off_c, 1, 60, 0
2, 494520, Note_off_c, 1, 62, 0
2, 494560, Note_on_c, 1, 59, 127
2, 494560, Note_on_c, 1, 67, 127
2, 494680, Note_off_c, 1, 67, 0
2, 494720, Note_on_c, 1, 62, 127
2, 494880, Note_off_c, 1, 59, 0
2, 494880, Note_off_c, 1, 62, 0
2, 494920, Note_on_c, 1, 60, 127
2, 494920, Note_on_c, 1, 64, 127
2, 495080, Note_off_c, 1, 64, 0
2, 495120, Note_on_c, 1, 62, 127
2, 495240, Note_off_c, 1, 60, 0
2, 495240, Note_off_c, 1, 62, 0
2, 495280, Note_on_c, 1, 60, 127
2, 495280, Note_on_c, 1, 69, 127
2, 495440, Note_off_c, 1, 60, 0
2, 495480, Note_on_c, 1, 57, 127
2, 495640, Note_off_c, 1, 57, 0
2, 495640, Note_off_c, 1, 69, 0
2, 495680, Note_on_c, 1, 60, 127
2, 495680, Note_on_c, 1, 66, 127
2, 495680, Note_on_c, 1, 69, 127
2, 496360, Note_off_c, 1, 55, 0
2, 496360, Note_off_c, 1, 60, 0
2, 496360, Note_off_c, 1, 66, 0
2, 496360, Note_off_c, 1, 69, 0
2, 496440, Note_on_c, 1, 55, 127
2, 496440, Note_on_c, 1, 60, 127
2, 496440, Note_on_c, 1, 69, 127
2, 496760, Note_off_c, 1, 60, 0
2, 496760, Note_off_c, 1, 69, 0
2, 496800, Note_on_c, 1, 62, 127
2, 496800, Note_on_c, 1, 71, 127
2, 496920, Note_off_c, 1, 71, 0
2, 497000, Note_on_c, 1, 67, 127
2, 497120, Note_off_c, 1, 62, 0
2, 497120, Note_off_c, 1, 67, 0
2, 497160, Note_on_c, 1, 64, 127
2, 497160, Note_on_c, 1, 72, 127
2, 497520, Note_off_c, 1, 64, 0
2, 497520, Note_off_c, 1, 72, 0
2, 497560, Note_on_c, 1, 62, 127
2, 497560, Note_on_c, 1, 71, 127
2, 497680, Note_off_c, 1, 71, 0
2, 497720, Note_on_c, 1, 67, 127
2, 497880, Note_off_c, 1, 62, 0
2, 497880, Note_off_c, 1, 67, 0
2, 497920, Note_on_c, 1, 60, 127
2, 497920, Note_on_c, 1, 76, 127
2, 498080, Note_off_c, 1, 76, 0
2, 498120, Note_on_c, 1, 72, 127
2, 498240, Note_off_c, 1, 60, 0
2, 498240, Note_off_c, 1, 72, 0
2, 498280, Note_on_c, 1, 59, 127
2, 498280, Note_on_c, 1, 74, 127
2, 498440, Note_off_c, 1, 74, 0
2, 498480, Note_on_c, 1, 71, 127
2, 498640, Note_off_c, 1, 59, 0
2, 498640, Note_off_c, 1, 71, 0
2, 498680, Note_on_c, 1, 57, 127
2, 498680, Note_on_c, 1, 72, 127
2, 498800, Note_off_c, 1, 72, 0
2, 498840, Note_on_c, 1, 71, 127
2, 499000, Note_off_c, 1, 57, 0
2, 499000, Note_off_c, 1, 71, 0
2, 499040, Note_on_c, 1, 59, 127
2, 499040, Note_on_c, 1, 69, 127
2, 499200, Note_off_c, 1, 69, 0
2, 499240, Note_on_c, 1, 67, 127
2, 499360, Note_off_c, 1, 55, 0
2, 499360, Note_off_c, 1, 59, 0
2, 499360, Note_off_c, 1, 67, 0
2, 499400, Note_on_c, 1, 55, 127
2, 499400, Note_on_c, 1, 60, 127
2, 499400, Note_on_c, 1, 69, 127
2, 499560, Note_off_c, 1, 69, 0
2, 499600, Note_on_c, 1, 71, 127
2, 499760, Note_off_c, 1, 60, 0
2, 499760, Note_off_c, 1, 71, 0
2, 499800, Note_on_c, 1, 62, 127
2, 499800, Note_on_c, 1, 72, 127
2, 499920, Note_off_c, 1, 72, 0
2, 499960, Note_on_c, 1, 71, 127
2, 500120, Note_off_c, 1, 62, 0
2, 500120, Note_off_c, 1, 71, 0
2, 500160, Note_on_c, 1, 60, 127
2, 500160, Note_on_c, 1, 69, 127
2, 500320, Note_off_c, 1, 69, 0
2, 500360, Note_on_c, 1, 67, 127
2, 500480, Note_off_c, 1, 60, 0
2, 500480, Note_off_c, 1, 67, 0
2, 500520, Note_on_c, 1, 64, 127
2, 500520, Note_on_c, 1, 66, 127
2, 500680, Note_off_c, 1, 66, 0
2, 500720, Note_on_c, 1, 67, 127
2, 500880, Note_off_c, 1, 64, 0
2, 500880, Note_off_c, 1, 67, 0
2, 500920, Note_on_c, 1, 62, 127
2, 500920, Note_on_c, 1, 69, 127
2, 501040, Note_off_c, 1, 69, 0
2, 501120, Note_on_c, 1, 67, 127
2, 501240, Note_off_c, 1, 62, 0
2, 501240, Note_off_c, 1, 67, 0
2, 501280, Note_on_c, 1, 60, 127
2, 501280, Note_on_c, 1, 66, 127
2, 501440, Note_off_c, 1, 66, 0
2, 501480, Note_on_c, 1, 64, 127
2, 501640, Note_off_c, 1, 60, 0
2, 501640, Note_off_c, 1, 64, 0
2, 501680, Note_on_c, 1, 59, 127
2, 501680, Note_on_c, 1, 62, 127
2, 502000, Note_off_c, 1, 59, 0
2, 502040, Note_on_c, 1, 60, 127
2, 502360, Note_off_c, 1, 55, 0
2, 502360, Note_off_c, 1, 60, 0
2, 502400, Note_on_c, 1, 55, 127
2, 502400, Note_on_c, 1, 59, 127
2, 502760, Note_off_c, 1, 59, 0
2, 502760, Note_off_c, 1, 62, 0
2, 502800, Note_on_c, 1, 57, 127
2, 502800, Note_on_c, 1, 64, 127
2, 502920, Note_off_c, 1, 64, 0
2, 502960, Note_on_c, 1, 60, 127
2, 503120, Note_off_c, 1, 57, 0
2, 503120, Note_off_c, 1, 60, 0
2, 503160, Note_on_c, 1, 59, 127
2, 503160, Note_on_c, 1, 62, 127
2, 503480, Note_off_c, 1, 59, 0
2, 503480, Note_off_c, 1, 62, 0
2, 503520, Note_on_c, 1, 60, 127
2, 503520, Note_on_c, 1, 67, 127
2, 503680, Note_off_c, 1, 67, 0
2, 503720, Note_on_c, 1, 69, 127
2, 503880, Note_off_c, 1, 60, 0
2, 503880, Note_off_c, 1, 69, 0
2, 503920, Note_on_c, 1, 62, 127
2, 503920, Note_on_c, 1, 71, 127
2, 504240, Note_off_c, 1, 62, 0
2, 504240, Note_off_c, 1, 71, 0
2, 504280, Note_on_c, 1, 60, 127
2, 504280, Note_on_c, 1, 69, 127
2, 504440, Note_off_c, 1, 69, 0
2, 504480, Note_on_c, 1, 66, 127
2, 504600, Note_off_c, 1, 60, 0
2, 504600, Note_off_c, 1, 66, 0
2, 504640, Note_on_c, 1, 59, 127
2, 504640, Note_on_c, 1, 67, 127
2, 505000, Note_off_c, 1, 67, 0
2, 505040, Note_on_c, 1, 62, 127
2, 505360, Note_off_c, 1, 55, 0
2, 505360, Note_off_c, 1, 59, 0
2, 505360, Note_off_c, 1, 62, 0
2, 505440, Note_on_c, 1, 55, 127
2, 505440, Note_on_c, 1, 62, 127
2, 505440, Note_on_c, 1, 71, 127
2, 505560, Note_off_c, 1, 71, 0
2, 505600, Note_on_c, 1, 66, 127
2, 505760, Note_off_c, 1, 66, 0
2, 505800, Note_on_c, 1, 67, 127
2, 505960, Note_off_c, 1, 62, 0
2, 506000, Note_on_c, 1, 62, 127
2, 506000, Note_off_c, 1, 67, 0
2, 506160, Note_off_c, 1, 62, 0
2, 506200, Note_on_c, 1, 59, 127
2, 506200, Note_on_c, 1, 74, 127
2, 506320, Note_off_c, 1, 74, 0
2, 506360, Note_on_c, 1, 66, 127
2, 506520, Note_off_c, 1, 66, 0
2, 506560, Note_on_c, 1, 67, 127
2, 506760, Note_on_c, 1, 62, 127
2, 506760, Note_off_c, 1, 67, 0
2, 506880, Note_off_c, 1, 59, 0
2, 506920, Note_off_c, 1, 62, 0
2, 506960, Note_on_c, 1, 62, 127
2, 506960, Note_on_c, 1, 71, 127
2, 507120, Note_off_c, 1, 71, 0
2, 507160, Note_on_c, 1, 66, 127
2, 507280, Note_off_c, 1, 66, 0
2, 507320, Note_on_c, 1, 67, 127
2, 507480, Note_off_c, 1, 62, 0
2, 507520, Note_on_c, 1, 62, 127
2, 507560, Note_off_c, 1, 67, 0
2, 507680, Note_off_c, 1, 62, 0
2, 507760, Note_on_c, 1, 59, 127
2, 507760, Note_on_c, 1, 62, 127
2, 507760, Note_on_c, 1, 67, 127
2, 510080, Note_off_c, 1, 55, 0
2, 510160, Note_off_c, 1, 59, 0
2, 510160, Note_off_c, 1, 62, 0
2, 510160, Note_off_c, 1, 67, 0
2, 511840, Note_on_c, 1, 74, 127
2, 511960, Note_off_c, 1, 74, 0
2, 512000, Note_on_c, 1, 75, 127
2, 512160, Note_off_c, 1, 75, 0
2, 512200, Note_on_c, 1, 74, 127
2, 512320, Note_off_c, 1, 74, 0
2, 512360, Note_on_c, 1, 72, 127
2, 512480, Note_off_c, 1, 72, 0
2, 512560, Note_on_c, 1, 70, 127
2, 512680, Note_off_c, 1, 70, 0
2, 512720, Note_on_c, 1, 69, 127
2, 512880, Note_off_c, 1, 69, 0
2, 512920, Note_on_c, 1, 67, 127
2, 513040, Note_off_c, 1, 67, 0
2, 513080, Note_on_c, 1, 66, 127
2, 513240, Note_off_c, 1, 66, 0
2, 513280, Note_on_c, 1, 69, 127
2, 513400, Note_off_c, 1, 69, 0
2, 513440, Note_on_c, 1, 62, 127
2, 513560, Note_off_c, 1, 62, 0
2, 513640, Note_on_c, 1, 60, 127
2, 513760, Note_off_c, 1, 60, 0
2, 513800, Note_on_c, 1, 58, 127
2, 513920, Note_off_c, 1, 58, 0
2, 514000, Note_on_c, 1, 57, 127
2, 514120, Note_off_c, 1, 57, 0
2, 514160, Note_on_c, 1, 58, 127
2, 514280, Note_off_c, 1, 58, 0
2, 514320, Note_on_c, 1, 62, 127
2, 514480, Note_off_c, 1, 62, 0
2, 514520, Note_on_c, 1, 67, 127
2, 514640, Note_off_c, 1, 67, 0
2, 514680, Note_on_c, 1, 57, 127
2, 514840, Note_off_c, 1, 57, 0
2, 514880, Note_on_c, 1, 67, 127
2, 515000, Note_off_c, 1, 67, 0
2, 515040, Note_on_c, 1, 66, 127
2, 515160, Note_off_c, 1, 66, 0
2, 515240, Note_on_c, 1, 67, 127
2, 515360, Note_off_c, 1, 67, 0
2, 515400, Note_on_c, 1, 70, 127
2, 515520, Note_off_c, 1, 70, 0
2, 515600, Note_on_c, 1, 69, 127
2, 515720, Note_off_c, 1, 69, 0
2, 515760, Note_on_c, 1, 70, 127
2, 515880, Note_off_c, 1, 70, 0
2, 515960, Note_on_c, 1, 74, 127
2, 516080, Note_off_c, 1, 74, 0
2, 516120, Note_on_c, 1, 67, 127
2, 516120, Note_on_c, 1, 72, 127
2, 516240, Note_off_c, 1, 67, 0
2, 516240, Note_off_c, 1, 72, 0
2, 516280, Note_on_c, 1, 70, 127
2, 516280, Note_on_c, 1, 74, 127
2, 516440, Note_off_c, 1, 70, 0
2, 516480, Note_on_c, 1, 69, 127
2, 516600, Note_off_c, 1, 69, 0
2, 516640, Note_on_c, 1, 67, 127
2, 516760, Note_off_c, 1, 67, 0
2, 516840, Note_on_c, 1, 65, 127
2, 516960, Note_off_c, 1, 65, 0
2, 516960, Note_off_c, 1, 74, 0
2, 517000, Note_on_c, 1, 64, 127
2, 517000, Note_on_c, 1, 76, 127
2, 517120, Note_off_c, 1, 64, 0
2, 517120, Note_off_c, 1, 76, 0
2, 517200, Note_on_c, 1, 62, 127
2, 517200, Note_on_c, 1, 77, 127
2, 517320, Note_off_c, 1, 62, 0
2, 517320, Note_off_c, 1, 77, 0
2, 517360, Note_on_c, 1, 61, 127
2, 517360, Note_on_c, 1, 76, 127
2, 517520, Note_off_c, 1, 61, 0
2, 517560, Note_on_c, 1, 64, 127
2, 517680, Note_off_c, 1, 64, 0
2, 517720, Note_on_c, 1, 57, 127
2, 517840, Note_off_c, 1, 57, 0
2, 517920, Note_on_c, 1, 55, 127
2, 518040, Note_off_c, 1, 55, 0
2, 518040, Note_off_c, 1, 76, 0
2, 518080, Note_on_c, 1, 53, 127
2, 518080, Note_on_c, 1, 77, 127
2, 518200, Note_off_c, 1, 53, 0
2, 518200, Note_off_c, 1, 77, 0
2, 518280, Note_on_c, 1, 52, 127
2, 518280, Note_on_c, 1, 79, 127
2, 518360, Note_off_c, 1, 52, 0
2, 518360, Note_off_c, 1, 79, 0
2, 518440, Note_on_c, 1, 53, 127
2, 518440, Note_on_c, 1, 81, 127
2, 518560, Note_off_c, 1, 53, 0
2, 518560, Note_off_c, 1, 81, 0
2, 518600, Note_on_c, 1, 57, 127
2, 518600, Note_on_c, 1, 79, 127
2, 518760, Note_off_c, 1, 57, 0
2, 518760, Note_off_c, 1, 79, 0
2, 518800, Note_on_c, 1, 62, 127
2, 518800, Note_on_c, 1, 77, 127
2, 518920, Note_off_c, 1, 62, 0
2, 518920, Note_off_c, 1, 77, 0
2, 518960, Note_on_c, 1, 52, 127
2, 518960, Note_on_c, 1, 79, 127
2, 519120, Note_off_c, 1, 52, 0
2, 519120, Note_off_c, 1, 79, 0
2, 519160, Note_on_c, 1, 62, 127
2, 519160, Note_on_c, 1, 77, 127
2, 519280, Note_off_c, 1, 62, 0
2, 519280, Note_off_c, 1, 77, 0
2, 519320, Note_on_c, 1, 61, 127
2, 519320, Note_on_c, 1, 76, 127
2, 519440, Note_off_c, 1, 61, 0
2, 519440, Note_off_c, 1, 76, 0
2, 519520, Note_on_c, 1, 62, 127
2, 519520, Note_on_c, 1, 77, 127
2, 519640, Note_off_c, 1, 77, 0
2, 519680, Note_on_c, 1, 79, 127
2, 519800, Note_off_c, 1, 79, 0
2, 519880, Note_on_c, 1, 81, 127
2, 520000, Note_off_c, 1, 81, 0
2, 520040, Note_on_c, 1, 74, 127
2, 520160, Note_off_c, 1, 62, 0
2, 520240, Note_on_c, 1, 64, 127
2, 520360, Note_off_c, 1, 64, 0
2, 520400, Note_on_c, 1, 65, 127
2, 520520, Note_off_c, 1, 65, 0
2, 520560, Note_on_c, 1, 64, 127
2, 520720, Note_off_c, 1, 74, 0
2, 520760, Note_on_c, 1, 72, 127
2, 520880, Note_off_c, 1, 72, 0
2, 520920, Note_on_c, 1, 70, 127
2, 521040, Note_off_c, 1, 70, 0
2, 521120, Note_on_c, 1, 72, 127
2, 521240, Note_off_c, 1, 64, 0
2, 521280, Note_on_c, 1, 66, 127
2, 521400, Note_off_c, 1, 66, 0
2, 521480, Note_on_c, 1, 67, 127
2, 521600, Note_off_c, 1, 67, 0
2, 521640, Note_on_c, 1, 69, 127
2, 521800, Note_off_c, 1, 69, 0
2, 521840, Note_on_c, 1, 67, 127
2, 521960, Note_off_c, 1, 67, 0
2, 521960, Note_off_c, 1, 72, 0
2, 522000, Note_on_c, 1, 66, 127
2, 522000, Note_on_c, 1, 74, 127
2, 522120, Note_off_c, 1, 66, 0
2, 522120, Note_off_c, 1, 74, 0
2, 522200, Note_on_c, 1, 67, 127
2, 522200, Note_on_c, 1, 70, 127
2, 522320, Note_off_c, 1, 67, 0
2, 522360, Note_on_c, 1, 66, 127
2, 522480, Note_off_c, 1, 66, 0
2, 522480, Note_off_c, 1, 70, 0
2, 522520, Note_on_c, 1, 64, 127
2, 522520, Note_on_c, 1, 72, 127
2, 522640, Note_off_c, 1, 64, 0
2, 522640, Note_off_c, 1, 72, 0
2, 522720, Note_on_c, 1, 66, 127
2, 522720, Note_on_c, 1, 69, 127
2, 522840, Note_off_c, 1, 66, 0
2, 522880, Note_on_c, 1, 64, 127
2, 523040, Note_off_c, 1, 64, 0
2, 523040, Note_off_c, 1, 69, 0
2, 523080, Note_on_c, 1, 62, 127
2, 523080, Note_on_c, 1, 70, 127
2, 523200, Note_off_c, 1, 62, 0
2, 523200, Note_off_c, 1, 70, 0
2, 523240, Note_on_c, 1, 64, 127
2, 523240, Note_on_c, 1, 72, 127
2, 523400, Note_off_c, 1, 64, 0
2, 523440, Note_on_c, 1, 67, 127
2, 523560, Note_off_c, 1, 67, 0
2, 523560, Note_off_c, 1, 72, 0
2, 523600, Note_on_c, 1, 62, 127
2, 523600, Note_on_c, 1, 66, 127
2, 523600, Note_on_c, 1, 74, 127
2, 523720, Note_off_c, 1, 62, 0
2, 523720, Note_off_c, 1, 66, 0
2, 523720, Note_off_c, 1, 74, 0
2, 523800, Note_on_c, 1, 63, 127
2, 523800, Note_on_c, 1, 67, 127
2, 523800, Note_on_c, 1, 70, 127
2, 523920, Note_off_c, 1, 63, 0
2, 523960, Note_on_c, 1, 62, 127
2, 524080, Note_off_c, 1, 62, 0
2, 524120, Note_off_c, 1, 70, 0
2, 524160, Note_on_c, 1, 60, 127
2, 524160, Note_on_c, 1, 72, 127
2, 524280, Note_off_c, 1, 60, 0
2, 524280, Note_off_c, 1, 72, 0
2, 524320, Note_on_c, 1, 58, 127
2, 524320, Note_on_c, 1, 74, 127
2, 524440, Note_off_c, 1, 58, 0
2, 524440, Note_off_c, 1, 67, 0
2, 524520, Note_on_c, 1, 57, 127
2, 524520, Note_on_c, 1, 69, 127
2, 524640, Note_off_c, 1, 57, 0
2, 524640, Note_off_c, 1, 69, 0
2, 524680, Note_on_c, 1, 55, 127
2, 524680, Note_on_c, 1, 70, 127
2, 524800, Note_off_c, 1, 55, 0
2, 524800, Note_off_c, 1, 70, 0
2, 524840, Note_on_c, 1, 54, 127
2, 524840, Note_on_c, 1, 69, 127
2, 525000, Note_off_c, 1, 54, 0
2, 525040, Note_on_c, 1, 57, 127
2, 525160, Note_off_c, 1, 57, 0
2, 525160, Note_off_c, 1, 74, 0
2, 525200, Note_on_c, 1, 50, 127
2, 525200, Note_on_c, 1, 76, 127
2, 525320, Note_off_c, 1, 50, 0
2, 525320, Note_off_c, 1, 76, 0
2, 525400, Note_on_c, 1, 48, 127
2, 525400, Note_on_c, 1, 78, 127
2, 525520, Note_off_c, 1, 48, 0
2, 525520, Note_off_c, 1, 69, 0
2, 525560, Note_on_c, 1, 46, 127
2, 525560, Note_on_c, 1, 70, 127
2, 525680, Note_off_c, 1, 46, 0
2, 525680, Note_off_c, 1, 70, 0
2, 525760, Note_on_c, 1, 45, 127
2, 525760, Note_on_c, 1, 72, 127
2, 525880, Note_off_c, 1, 45, 0
2, 525880, Note_off_c, 1, 72, 0
2, 525880, Note_off_c, 1, 78, 0
2, 525920, Note_on_c, 1, 46, 127
2, 525920, Note_on_c, 1, 74, 127
2, 525920, Note_on_c, 1, 79, 127
2, 526080, Note_off_c, 1, 46, 0
2, 526080, Note_off_c, 1, 74, 0
2, 526120, Note_on_c, 1, 50, 127
2, 526120, Note_on_c, 1, 72, 127
2, 526240, Note_off_c, 1, 50, 0
2, 526240, Note_off_c, 1, 72, 0
2, 526280, Note_on_c, 1, 55, 127
2, 526280, Note_on_c, 1, 70, 127
2, 526400, Note_off_c, 1, 55, 0
2, 526400, Note_off_c, 1, 70, 0
2, 526400, Note_off_c, 1, 79, 0
2, 526480, Note_on_c, 1, 45, 127
2, 526480, Note_on_c, 1, 72, 127
2, 526480, Note_on_c, 1, 81, 127
2, 526600, Note_off_c, 1, 45, 0
2, 526600, Note_off_c, 1, 72, 0
2, 526640, Note_on_c, 1, 55, 127
2, 526640, Note_on_c, 1, 70, 127
2, 526760, Note_off_c, 1, 55, 0
2, 526760, Note_off_c, 1, 70, 0
2, 526800, Note_on_c, 1, 54, 127
2, 526800, Note_on_c, 1, 69, 127
2, 526920, Note_off_c, 1, 54, 0
2, 526920, Note_off_c, 1, 69, 0
2, 527000, Note_on_c, 1, 55, 127
2, 527000, Note_on_c, 1, 70, 127
2, 527120, Note_off_c, 1, 55, 0
2, 527160, Note_on_c, 1, 58, 127
2, 527320, Note_off_c, 1, 58, 0
2, 527360, Note_on_c, 1, 57, 127
2, 527480, Note_off_c, 1, 57, 0
2, 527480, Note_off_c, 1, 81, 0
2, 527520, Note_on_c, 1, 58, 127
2, 527520, Note_on_c, 1, 79, 127
2, 527680, Note_off_c, 1, 58, 0
2, 527720, Note_on_c, 1, 62, 127
2, 527840, Note_off_c, 1, 62, 0
2, 527880, Note_on_c, 1, 60, 127
2, 528000, Note_off_c, 1, 60, 0
2, 528040, Note_off_c, 1, 70, 0
2, 528080, Note_on_c, 1, 62, 127
2, 528080, Note_on_c, 1, 69, 127
2, 528200, Note_off_c, 1, 79, 0
2, 528240, Note_on_c, 1, 77, 127
2, 528360, Note_off_c, 1, 77, 0
2, 528440, Note_on_c, 1, 76, 127
2, 528560, Note_off_c, 1, 76, 0
2, 528600, Note_on_c, 1, 77, 127
2, 528720, Note_off_c, 1, 62, 0
2, 528800, Note_on_c, 1, 57, 127
2, 528920, Note_off_c, 1, 57, 0
2, 528960, Note_on_c, 1, 50, 127
2, 529080, Note_off_c, 1, 50, 0
2, 529080, Note_off_c, 1, 69, 0
2, 529120, Note_on_c, 1, 51, 127
2, 529120, Note_on_c, 1, 67, 127
2, 529280, Note_off_c, 1, 51, 0
2, 529320, Note_on_c, 1, 55, 127
2, 529440, Note_off_c, 1, 55, 0
2, 529480, Note_on_c, 1, 53, 127
2, 529600, Note_off_c, 1, 53, 0
2, 529640, Note_off_c, 1, 77, 0
2, 529680, Note_on_c, 1, 55, 127
2, 529680, Note_on_c, 1, 75, 127
2, 529800, Note_off_c, 1, 55, 0
2, 529840, Note_on_c, 1, 58, 127
2, 529960, Note_off_c, 1, 58, 0
2, 530040, Note_on_c, 1, 57, 127
2, 530160, Note_off_c, 1, 57, 0
2, 530160, Note_off_c, 1, 67, 0
2, 530200, Note_on_c, 1, 58, 127
2, 530200, Note_on_c, 1, 65, 127
2, 530360, Note_off_c, 1, 75, 0
2, 530400, Note_on_c, 1, 74, 127
2, 530520, Note_off_c, 1, 74, 0
2, 530560, Note_on_c, 1, 72, 127
2, 530680, Note_off_c, 1, 72, 0
2, 530760, Note_on_c, 1, 74, 127
2, 530880, Note_off_c, 1, 58, 0
2, 530920, Note_on_c, 1, 53, 127
2, 531040, Note_off_c, 1, 53, 0
2, 531080, Note_on_c, 1, 46, 127
2, 531200, Note_off_c, 1, 46, 0
2, 531240, Note_off_c, 1, 65, 0
2, 531280, Note_on_c, 1, 48, 127
2, 531280, Note_on_c, 1, 63, 127
2, 531400, Note_off_c, 1, 48, 0
2, 531440, Note_on_c, 1, 51, 127
2, 531600, Note_off_c, 1, 51, 0
2, 531640, Note_on_c, 1, 50, 127
2, 531760, Note_off_c, 1, 50, 0
2, 531760, Note_off_c, 1, 74, 0
2, 531800, Note_on_c, 1, 51, 127
2, 531800, Note_on_c, 1, 72, 127
2, 531960, Note_off_c, 1, 51, 0
2, 532000, Note_on_c, 1, 55, 127
2, 532120, Note_off_c, 1, 55, 0
2, 532160, Note_on_c, 1, 53, 127
2, 532280, Note_off_c, 1, 53, 0
2, 532320, Note_off_c, 1, 63, 0
2, 532360, Note_on_c, 1, 55, 127
2, 532360, Note_on_c, 1, 62, 127
2, 532480, Note_off_c, 1, 72, 0
2, 532520, Note_on_c, 1, 70, 127
2, 532640, Note_off_c, 1, 70, 0
2, 532720, Note_on_c, 1, 69, 127
2, 532840, Note_off_c, 1, 69, 0
2, 532880, Note_on_c, 1, 70, 127
2, 533000, Note_off_c, 1, 62, 0
2, 533080, Note_on_c, 1, 65, 127
2, 533200, Note_off_c, 1, 55, 0
2, 533200, Note_off_c, 1, 65, 0
2, 533240, Note_on_c, 1, 49, 127
2, 533240, Note_on_c, 1, 64, 127
2, 533360, Note_off_c, 1, 49, 0
2, 533360, Note_off_c, 1, 64, 0
2, 533400, Note_on_c, 1, 50, 127
2, 533400, Note_on_c, 1, 65, 127
2, 533560, Note_off_c, 1, 70, 0
2, 533600, Note_on_c, 1, 69, 127
2, 533720, Note_off_c, 1, 50, 0
2, 533720, Note_off_c, 1, 65, 0
2, 533760, Note_on_c, 1, 48, 127
2, 533760, Note_on_c, 1, 64, 127
2, 533880, Note_off_c, 1, 48, 0
2, 533880, Note_off_c, 1, 64, 0
2, 533960, Note_on_c, 1, 48, 127
2, 533960, Note_on_c, 1, 62, 127
2, 534000, Note_off_c, 1, 48, 0
2, 534040, Note_on_c, 1, 46, 127
2, 534080, Note_off_c, 1, 46, 0
2, 534080, Note_off_c, 1, 69, 0
2, 534120, Note_on_c, 1, 48, 127
2, 534120, Note_on_c, 1, 69, 127
2, 534160, Note_off_c, 1, 48, 0
2, 534240, Note_on_c, 1, 46, 127
2, 534280, Note_off_c, 1, 46, 0
2, 534280, Note_off_c, 1, 69, 0
2, 534320, Note_on_c, 1, 48, 127
2, 534320, Note_on_c, 1, 67, 127
2, 534360, Note_off_c, 1, 48, 0
2, 534400, Note_on_c, 1, 46, 127
2, 534440, Note_off_c, 1, 46, 0
2, 534440, Note_off_c, 1, 67, 0
2, 534480, Note_on_c, 1, 45, 127
2, 534480, Note_on_c, 1, 69, 127
2, 534640, Note_off_c, 1, 62, 0
2, 534680, Note_on_c, 1, 61, 127
2, 534800, Note_off_c, 1, 61, 0
2, 534840, Note_on_c, 1, 59, 127
2, 534960, Note_off_c, 1, 45, 0
2, 534960, Note_off_c, 1, 59, 0
2, 534960, Note_off_c, 1, 69, 0
2, 535040, Note_on_c, 1, 61, 127
2, 535200, Note_on_c, 1, 64, 127
2, 535320, Note_off_c, 1, 64, 0
2, 535360, Note_on_c, 1, 57, 127
2, 535360, Note_on_c, 1, 67, 127
2, 535480, Note_off_c, 1, 57, 0
2, 535480, Note_off_c, 1, 67, 0
2, 535520, Note_off_c, 1, 61, 0
2, 535560, Note_on_c, 1, 58, 127
2, 535560, Note_on_c, 1, 62, 127
2, 535560, Note_on_c, 1, 65, 127
2, 535680, Note_off_c, 1, 58, 0
2, 535720, Note_on_c, 1, 57, 127
2, 535880, Note_off_c, 1, 57, 0
2, 535920, Note_on_c, 1, 55, 127
2, 536040, Note_off_c, 1, 55, 0
2, 536080, Note_on_c, 1, 53, 127
2, 536240, Note_off_c, 1, 53, 0
2, 536240, Note_off_c, 1, 62, 0
2, 536240, Note_off_c, 1, 65, 0
2, 536280, Note_on_c, 1, 52, 127
2, 536280, Note_on_c, 1, 64, 127
2, 536280, Note_on_c, 1, 67, 127
2, 536400, Note_off_c, 1, 52, 0
2, 536400, Note_off_c, 1, 64, 0
2, 536400, Note_off_c, 1, 67, 0
2, 536440, Note_on_c, 1, 50, 127
2, 536440, Note_on_c, 1, 65, 127
2, 536440, Note_on_c, 1, 69, 127
2, 536560, Note_off_c, 1, 50, 0
2, 536560, Note_off_c, 1, 65, 0
2, 536560, Note_off_c, 1, 69, 0
2, 536640, Note_on_c, 1, 49, 127
2, 536640, Note_on_c, 1, 64, 127
2, 536640, Note_on_c, 1, 67, 127
2, 536760, Note_off_c, 1, 49, 0
2, 536800, Note_on_c, 1, 52, 127
2, 536920, Note_off_c, 1, 52, 0
2, 537000, Note_on_c, 1, 45, 127
2, 537120, Note_off_c, 1, 45, 0
2, 537160, Note_on_c, 1, 43, 127
2, 537280, Note_off_c, 1, 43, 0
2, 537280, Note_off_c, 1, 64, 0
2, 537280, Note_off_c, 1, 67, 0
2, 537320, Note_on_c, 1, 41, 127
2, 537320, Note_on_c, 1, 65, 127
2, 537320, Note_on_c, 1, 69, 127
2, 537480, Note_off_c, 1, 41, 0
2, 537480, Note_off_c, 1, 65, 0
2, 537480, Note_off_c, 1, 69, 0
2, 537520, Note_on_c, 1, 40, 127
2, 537520, Note_on_c, 1, 67, 127
2, 537520, Note_on_c, 1, 70, 127
2, 537640, Note_off_c, 1, 40, 0
2, 537640, Note_off_c, 1, 67, 0
2, 537640, Note_off_c, 1, 70, 0
2, 537680, Note_on_c, 1, 41, 127
2, 537680, Note_on_c, 1, 69, 127
2, 537840, Note_off_c, 1, 41, 0
2, 537880, Note_on_c, 1, 45, 127
2, 537880, Note_on_c, 1, 74, 127
2, 538000, Note_off_c, 1, 45, 0
2, 538000, Note_off_c, 1, 74, 0
2, 538040, Note_on_c, 1, 50, 127
2, 538040, Note_on_c, 1, 77, 127
2, 538160, Note_off_c, 1, 50, 0
2, 538200, Note_off_c, 1, 69, 0
2, 538240, Note_on_c, 1, 40, 127
2, 538240, Note_on_c, 1, 67, 127
2, 538360, Note_off_c, 1, 40, 0
2, 538360, Note_off_c, 1, 77, 0
2, 538400, Note_on_c, 1, 50, 127
2, 538400, Note_on_c, 1, 79, 127
2, 538520, Note_off_c, 1, 50, 0
2, 538520, Note_off_c, 1, 79, 0
2, 538600, Note_on_c, 1, 49, 127
2, 538600, Note_on_c, 1, 76, 127
2, 538720, Note_off_c, 1, 49, 0
2, 538720, Note_off_c, 1, 67, 0
2, 538720, Note_off_c, 1, 76, 0
2, 538760, Note_on_c, 1, 50, 127
2, 538760, Note_on_c, 1, 77, 127
2, 538880, Note_off_c, 1, 77, 0
2, 538960, Note_on_c, 1, 81, 127
2, 539080, Note_off_c, 1, 81, 0
2, 539120, Note_on_c, 1, 79, 127
2, 539240, Note_off_c, 1, 79, 0
2, 539280, Note_on_c, 1, 81, 127
2, 539440, Note_off_c, 1, 50, 0
2, 539480, Note_on_c, 1, 53, 127
2, 539600, Note_off_c, 1, 53, 0
2, 539640, Note_on_c, 1, 52, 127
2, 539760, Note_off_c, 1, 52, 0
2, 539800, Note_off_c, 1, 81, 0
2, 539840, Note_on_c, 1, 53, 127
2, 539840, Note_on_c, 1, 69, 127
2, 539960, Note_off_c, 1, 53, 0
2, 539960, Note_off_c, 1, 69, 0
2, 540000, Note_on_c, 1, 57, 127
2, 540000, Note_on_c, 1, 73, 127
2, 540120, Note_off_c, 1, 57, 0
2, 540120, Note_off_c, 1, 73, 0
2, 540200, Note_on_c, 1, 55, 127
2, 540200, Note_on_c, 1, 71, 127
2, 540320, Note_off_c, 1, 55, 0
2, 540320, Note_off_c, 1, 71, 0
2, 540360, Note_on_c, 1, 57, 127
2, 540360, Note_on_c, 1, 73, 127
2, 540520, Note_off_c, 1, 73, 0
2, 540560, Note_on_c, 1, 76, 127
2, 540680, Note_off_c, 1, 76, 0
2, 540720, Note_on_c, 1, 74, 127
2, 540840, Note_off_c, 1, 57, 0
2, 540840, Note_off_c, 1, 74, 0
2, 540920, Note_on_c, 1, 45, 127
2, 540920, Note_on_c, 1, 76, 127
2, 541040, Note_off_c, 1, 45, 0
2, 541080, Note_on_c, 1, 49, 127
2, 541200, Note_off_c, 1, 49, 0
2, 541240, Note_on_c, 1, 47, 127
2, 541360, Note_off_c, 1, 47, 0
2, 541400, Note_off_c, 1, 76, 0
2, 541440, Note_on_c, 1, 49, 127
2, 541440, Note_on_c, 1, 64, 127
2, 541560, Note_off_c, 1, 49, 0
2, 541560, Note_off_c, 1, 64, 0
2, 541600, Note_on_c, 1, 52, 127
2, 541600, Note_on_c, 1, 67, 127
2, 541760, Note_off_c, 1, 52, 0
2, 541760, Note_off_c, 1, 67, 0
2, 541800, Note_on_c, 1, 50, 127
2, 541800, Note_on_c, 1, 65, 127
2, 541920, Note_off_c, 1, 50, 0
2, 541920, Note_off_c, 1, 65, 0
2, 541960, Note_on_c, 1, 52, 127
2, 541960, Note_on_c, 1, 67, 127
2, 542120, Note_off_c, 1, 67, 0
2, 542160, Note_on_c, 1, 70, 127
2, 542280, Note_off_c, 1, 70, 0
2, 542320, Note_on_c, 1, 69, 127
2, 542440, Note_off_c, 1, 69, 0
2, 542520, Note_on_c, 1, 70, 127
2, 542640, Note_off_c, 1, 52, 0
2, 542680, Note_on_c, 1, 55, 127
2, 542800, Note_off_c, 1, 55, 0
2, 542880, Note_on_c, 1, 53, 127
2, 543000, Note_off_c, 1, 53, 0
2, 543000, Note_off_c, 1, 70, 0
2, 543040, Note_on_c, 1, 55, 127
2, 543040, Note_on_c, 1, 61, 127
2, 543160, Note_off_c, 1, 61, 0
2, 543200, Note_on_c, 1, 64, 127
2, 543360, Note_off_c, 1, 64, 0
2, 543400, Note_on_c, 1, 62, 127
2, 543520, Note_off_c, 1, 62, 0
2, 543560, Note_on_c, 1, 64, 127
2, 543720, Note_off_c, 1, 55, 0
2, 543720, Note_off_c, 1, 64, 0
2, 543760, Note_on_c, 1, 58, 127
2, 543760, Note_on_c, 1, 67, 127
2, 543880, Note_off_c, 1, 58, 0
2, 543880, Note_off_c, 1, 67, 0
2, 543920, Note_on_c, 1, 57, 127
2, 543920, Note_on_c, 1, 65, 127
2, 544040, Note_off_c, 1, 57, 0
2, 544040, Note_off_c, 1, 65, 0
2, 544120, Note_on_c, 1, 58, 127
2, 544120, Note_on_c, 1, 67, 127
2, 544240, Note_off_c, 1, 58, 0
2, 544240, Note_off_c, 1, 67, 0
2, 544280, Note_on_c, 1, 55, 127
2, 544280, Note_on_c, 1, 70, 127
2, 544400, Note_off_c, 1, 55, 0
2, 544400, Note_off_c, 1, 70, 0
2, 544480, Note_on_c, 1, 53, 127
2, 544480, Note_on_c, 1, 69, 127
2, 544600, Note_off_c, 1, 53, 0
2, 544600, Note_off_c, 1, 69, 0
2, 544640, Note_on_c, 1, 52, 127
2, 544640, Note_on_c, 1, 70, 127
2, 544800, Note_off_c, 1, 52, 0
2, 544800, Note_off_c, 1, 70, 0
2, 544840, Note_on_c, 1, 53, 127
2, 544840, Note_on_c, 1, 69, 127
2, 544960, Note_off_c, 1, 53, 0
2, 544960, Note_off_c, 1, 69, 0
2, 545000, Note_on_c, 1, 55, 127
2, 545000, Note_on_c, 1, 67, 127
2, 545120, Note_off_c, 1, 55, 0
2, 545120, Note_off_c, 1, 67, 0
2, 545200, Note_on_c, 1, 45, 127
2, 545200, Note_on_c, 1, 73, 127
2, 545320, Note_off_c, 1, 73, 0
2, 545360, Note_on_c, 1, 70, 127
2, 545480, Note_off_c, 1, 70, 0
2, 545520, Note_off_c, 1, 45, 0
2, 545520, Note_on_c, 1, 69, 127
2, 545640, Note_off_c, 1, 69, 0
2, 545720, Note_on_c, 1, 47, 127
2, 545720, Note_on_c, 1, 74, 127
2, 545840, Note_off_c, 1, 74, 0
2, 545880, Note_on_c, 1, 69, 127
2, 546040, Note_off_c, 1, 69, 0
2, 546080, Note_off_c, 1, 47, 0
2, 546080, Note_on_c, 1, 67, 127
2, 546200, Note_off_c, 1, 67, 0
2, 546240, Note_on_c, 1, 49, 127
2, 546240, Note_on_c, 1, 76, 127
2, 546400, Note_off_c, 1, 76, 0
2, 546440, Note_on_c, 1, 69, 127
2, 546560, Note_off_c, 1, 49, 0
2, 546560, Note_off_c, 1, 69, 0
2, 546600, Note_on_c, 1, 45, 127
2, 546600, Note_on_c, 1, 67, 127
2, 546720, Note_off_c, 1, 45, 0
2, 546720, Note_off_c, 1, 67, 0
2, 546800, Note_on_c, 1, 47, 127
2, 546800, Note_on_c, 1, 65, 127
2, 546920, Note_off_c, 1, 65, 0
2, 546960, Note_on_c, 1, 67, 127
2, 547080, Note_off_c, 1, 47, 0
2, 547080, Note_off_c, 1, 67, 0
2, 547160, Note_on_c, 1, 49, 127
2, 547160, Note_on_c, 1, 64, 127
2, 547280, Note_off_c, 1, 49, 0
2, 547280, Note_off_c, 1, 64, 0
2, 547320, Note_on_c, 1, 50, 127
2, 547320, Note_on_c, 1, 65, 127
2, 547440, Note_off_c, 1, 65, 0
2, 547480, Note_on_c, 1, 64, 127
2, 547640, Note_off_c, 1, 64, 0
2, 547680, Note_off_c, 1, 50, 0
2, 547680, Note_on_c, 1, 62, 127
2, 547800, Note_off_c, 1, 62, 0
2, 547840, Note_on_c, 1, 52, 127
2, 547840, Note_on_c, 1, 67, 127
2, 548000, Note_off_c, 1, 67, 0
2, 548040, Note_on_c, 1, 64, 127
2, 548160, Note_off_c, 1, 64, 0
2, 548200, Note_off_c, 1, 52, 0
2, 548200, Note_on_c, 1, 62, 127
2, 548320, Note_off_c, 1, 62, 0
2, 548400, Note_on_c, 1, 53, 127
2, 548400, Note_on_c, 1, 69, 127
2, 548520, Note_off_c, 1, 69, 0
2, 548560, Note_on_c, 1, 64, 127
2, 548680, Note_off_c, 1, 64, 0
2, 548720, Note_off_c, 1, 53, 0
2, 548760, Note_on_c, 1, 62, 127
2, 548880, Note_off_c, 1, 62, 0
2, 548920, Note_on_c, 1, 55, 127
2, 548920, Note_on_c, 1, 70, 127
2, 549080, Note_off_c, 1, 70, 0
2, 549120, Note_on_c, 1, 64, 127
2, 549240, Note_off_c, 1, 64, 0
2, 549280, Note_on_c, 1, 62, 127
2, 549400, Note_off_c, 1, 62, 0
2, 549480, Note_on_c, 1, 61, 127
2, 549560, Note_off_c, 1, 55, 0
2, 549600, Note_off_c, 1, 61, 0
2, 549640, Note_on_c, 1, 53, 127
2, 549640, Note_on_c, 1, 62, 127
2, 549760, Note_off_c, 1, 53, 0
2, 549760, Note_off_c, 1, 62, 0
2, 549800, Note_on_c, 1, 52, 127
2, 549800, Note_on_c, 1, 64, 127
2, 549920, Note_off_c, 1, 52, 0
2, 549920, Note_off_c, 1, 64, 0
2, 550000, Note_on_c, 1, 53, 127
2, 550000, Note_on_c, 1, 57, 127
2, 550120, Note_off_c, 1, 53, 0
2, 550160, Note_on_c, 1, 61, 127
2, 550320, Note_off_c, 1, 57, 0
2, 550320, Note_off_c, 1, 61, 0
2, 550360, Note_on_c, 1, 62, 127
2, 550360, Note_on_c, 1, 81, 127
2, 550480, Note_off_c, 1, 62, 0
2, 550480, Note_off_c, 1, 81, 0
2, 550520, Note_on_c, 1, 55, 127
2, 550520, Note_on_c, 1, 82, 127
2, 550680, Note_off_c, 1, 55, 0
2, 550680, Note_off_c, 1, 82, 0
2, 550720, Note_on_c, 1, 61, 127
2, 550720, Note_on_c, 1, 81, 127
2, 550840, Note_off_c, 1, 61, 0
2, 550840, Note_off_c, 1, 81, 0
2, 550880, Note_on_c, 1, 62, 127
2, 550880, Note_on_c, 1, 79, 127
2, 551000, Note_off_c, 1, 62, 0
2, 551000, Note_off_c, 1, 79, 0
2, 551080, Note_on_c, 1, 56, 127
2, 551080, Note_on_c, 1, 77, 127
2, 551200, Note_off_c, 1, 56, 0
2, 551200, Note_off_c, 1, 77, 0
2, 551240, Note_on_c, 1, 61, 127
2, 551240, Note_on_c, 1, 76, 127
2, 551360, Note_off_c, 1, 61, 0
2, 551360, Note_off_c, 1, 76, 0
2, 551440, Note_on_c, 1, 62, 127
2, 551440, Note_on_c, 1, 74, 127
2, 551560, Note_off_c, 1, 62, 0
2, 551560, Note_off_c, 1, 74, 0
2, 551600, Note_on_c, 1, 57, 127
2, 551600, Note_on_c, 1, 73, 127
2, 551720, Note_off_c, 1, 57, 0
2, 551720, Note_off_c, 1, 73, 0
2, 551760, Note_on_c, 1, 61, 127
2, 551760, Note_on_c, 1, 76, 127
2, 551920, Note_off_c, 1, 61, 0
2, 551920, Note_off_c, 1, 76, 0
2, 551960, Note_on_c, 1, 62, 127
2, 551960, Note_on_c, 1, 69, 127
2, 552080, Note_off_c, 1, 62, 0
2, 552080, Note_off_c, 1, 69, 0
2, 552120, Note_on_c, 1, 64, 127
2, 552120, Note_on_c, 1, 67, 127
2, 552280, Note_off_c, 1, 64, 0
2, 552280, Note_off_c, 1, 67, 0
2, 552320, Note_on_c, 1, 62, 127
2, 552320, Note_on_c, 1, 65, 127
2, 552440, Note_off_c, 1, 62, 0
2, 552440, Note_off_c, 1, 65, 0
2, 552480, Note_on_c, 1, 61, 127
2, 552480, Note_on_c, 1, 64, 127
2, 552600, Note_off_c, 1, 61, 0
2, 552600, Note_off_c, 1, 64, 0
2, 552680, Note_on_c, 1, 62, 127
2, 552680, Note_on_c, 1, 65, 127
2, 552800, Note_off_c, 1, 62, 0
2, 552800, Note_off_c, 1, 65, 0
2, 552840, Note_on_c, 1, 53, 127
2, 552840, Note_on_c, 1, 69, 127
2, 552960, Note_off_c, 1, 53, 0
2, 552960, Note_off_c, 1, 69, 0
2, 553040, Note_on_c, 1, 55, 127
2, 553040, Note_on_c, 1, 74, 127
2, 553160, Note_off_c, 1, 55, 0
2, 553160, Note_off_c, 1, 74, 0
2, 553200, Note_on_c, 1, 57, 127
2, 553200, Note_on_c, 1, 64, 127
2, 553320, Note_off_c, 1, 57, 0
2, 553320, Note_off_c, 1, 64, 0
2, 553400, Note_on_c, 1, 55, 127
2, 553400, Note_on_c, 1, 74, 127
2, 553520, Note_off_c, 1, 55, 0
2, 553520, Note_off_c, 1, 74, 0
2, 553560, Note_on_c, 1, 57, 127
2, 553560, Note_on_c, 1, 73, 127
2, 553680, Note_off_c, 1, 57, 0
2, 553680, Note_off_c, 1, 73, 0
2, 553760, Note_on_c, 1, 50, 127
2, 553760, Note_on_c, 1, 74, 127
2, 553880, Note_off_c, 1, 50, 0
2, 553880, Note_off_c, 1, 74, 0
2, 553920, Note_on_c, 1, 54, 127
2, 553920, Note_on_c, 1, 69, 127
2, 554040, Note_off_c, 1, 54, 0
2, 554040, Note_off_c, 1, 69, 0
2, 554080, Note_on_c, 1, 57, 127
2, 554080, Note_on_c, 1, 66, 127
2, 554200, Note_off_c, 1, 57, 0
2, 554200, Note_off_c, 1, 66, 0
2, 554280, Note_on_c, 1, 62, 127
2, 554600, Note_off_c, 1, 62, 0
2, 554640, Note_on_c, 1, 57, 127
2, 554760, Note_off_c, 1, 57, 0
2, 554800, Note_on_c, 1, 54, 127
2, 554960, Note_off_c, 1, 54, 0
2, 555000, Note_on_c, 1, 55, 127
2, 555120, Note_off_c, 1, 55, 0
2, 555160, Note_on_c, 1, 57, 127
2, 555280, Note_off_c, 1, 57, 0
2, 555360, Note_on_c, 1, 58, 127
2, 555480, Note_off_c, 1, 58, 0
2, 555520, Note_on_c, 1, 60, 127
2, 555640, Note_off_c, 1, 60, 0
2, 555720, Note_on_c, 1, 62, 127
2, 555840, Note_off_c, 1, 62, 0
2, 555880, Note_on_c, 1, 63, 127
2, 556000, Note_off_c, 1, 63, 0
2, 556040, Note_on_c, 1, 60, 127
2, 556200, Note_off_c, 1, 60, 0
2, 556240, Note_on_c, 1, 67, 127
2, 556360, Note_off_c, 1, 67, 0
2, 556400, Note_on_c, 1, 69, 127
2, 556560, Note_off_c, 1, 69, 0
2, 556600, Note_on_c, 1, 70, 127
2, 556720, Note_off_c, 1, 70, 0
2, 556760, Note_on_c, 1, 72, 127
2, 556880, Note_off_c, 1, 72, 0
2, 556960, Note_on_c, 1, 70, 127
2, 557080, Note_off_c, 1, 70, 0
2, 557120, Note_on_c, 1, 67, 127
2, 557240, Note_off_c, 1, 67, 0
2, 557320, Note_on_c, 1, 62, 127
2, 557440, Note_off_c, 1, 62, 0
2, 557480, Note_on_c, 1, 72, 127
2, 557600, Note_off_c, 1, 72, 0
2, 557680, Note_on_c, 1, 64, 127
2, 557800, Note_off_c, 1, 64, 0
2, 557840, Note_on_c, 1, 66, 127
2, 557960, Note_off_c, 1, 66, 0
2, 558000, Note_on_c, 1, 67, 127
2, 558160, Note_off_c, 1, 67, 0
2, 558200, Note_on_c, 1, 64, 127
2, 558320, Note_off_c, 1, 64, 0
2, 558360, Note_on_c, 1, 65, 127
2, 558480, Note_off_c, 1, 65, 0
2, 558560, Note_on_c, 1, 64, 127
2, 558680, Note_off_c, 1, 64, 0
2, 558720, Note_on_c, 1, 61, 127
2, 558840, Note_off_c, 1, 61, 0
2, 558920, Note_on_c, 1, 38, 127
2, 558920, Note_on_c, 1, 62, 127
2, 559040, Note_off_c, 1, 38, 0
2, 559040, Note_off_c, 1, 62, 0
2, 559080, Note_on_c, 1, 37, 127
2, 559080, Note_on_c, 1, 69, 127
2, 559240, Note_off_c, 1, 37, 0
2, 559280, Note_on_c, 1, 38, 127
2, 559400, Note_off_c, 1, 38, 0
2, 559440, Note_on_c, 1, 40, 127
2, 559560, Note_off_c, 1, 40, 0
2, 559640, Note_on_c, 1, 41, 127
2, 559760, Note_off_c, 1, 41, 0
2, 559760, Note_off_c, 1, 69, 0
2, 559800, Note_on_c, 1, 43, 127
2, 559800, Note_on_c, 1, 67, 127
2, 559920, Note_off_c, 1, 43, 0
2, 559920, Note_off_c, 1, 67, 0
2, 559960, Note_on_c, 1, 45, 127
2, 559960, Note_on_c, 1, 65, 127
2, 560080, Note_off_c, 1, 45, 0
2, 560080, Note_off_c, 1, 65, 0
2, 560160, Note_on_c, 1, 46, 127
2, 560160, Note_on_c, 1, 67, 127
2, 560280, Note_off_c, 1, 46, 0
2, 560320, Note_on_c, 1, 43, 127
2, 560480, Note_off_c, 1, 43, 0
2, 560520, Note_on_c, 1, 50, 127
2, 560640, Note_off_c, 1, 50, 0
2, 560680, Note_on_c, 1, 52, 127
2, 560840, Note_off_c, 1, 52, 0
2, 560840, Note_off_c, 1, 67, 0
2, 560880, Note_on_c, 1, 53, 127
2, 560880, Note_on_c, 1, 65, 127
2, 561000, Note_off_c, 1, 53, 0
2, 561000, Note_off_c, 1, 65, 0
2, 561040, Note_on_c, 1, 55, 127
2, 561040, Note_on_c, 1, 64, 127
2, 561160, Note_off_c, 1, 55, 0
2, 561160, Note_off_c, 1, 64, 0
2, 561240, Note_on_c, 1, 53, 127
2, 561240, Note_on_c, 1, 62, 127
2, 561360, Note_off_c, 1, 53, 0
2, 561360, Note_off_c, 1, 62, 0
2, 561400, Note_on_c, 1, 50, 127
2, 561400, Note_on_c, 1, 64, 127
2, 561520, Note_off_c, 1, 50, 0
2, 561520, Note_off_c, 1, 64, 0
2, 561600, Note_on_c, 1, 45, 127
2, 561600, Note_on_c, 1, 65, 127
2, 561720, Note_off_c, 1, 45, 0
2, 561720, Note_off_c, 1, 65, 0
2, 561760, Note_on_c, 1, 55, 127
2, 561760, Note_on_c, 1, 64, 127
2, 561880, Note_off_c, 1, 55, 0
2, 561880, Note_off_c, 1, 64, 0
2, 561960, Note_on_c, 1, 47, 127
2, 561960, Note_on_c, 1, 69, 127
2, 562080, Note_off_c, 1, 47, 0
2, 562080, Note_off_c, 1, 69, 0
2, 562120, Note_on_c, 1, 49, 127
2, 562120, Note_on_c, 1, 67, 127
2, 562240, Note_off_c, 1, 49, 0
2, 562240, Note_off_c, 1, 67, 0
2, 562280, Note_on_c, 1, 50, 127
2, 562280, Note_on_c, 1, 65, 127
2, 562440, Note_off_c, 1, 65, 0
2, 562480, Note_on_c, 1, 64, 127
2, 562600, Note_off_c, 1, 64, 0
2, 562640, Note_on_c, 1, 62, 127
2, 562760, Note_off_c, 1, 62, 0
2, 562840, Note_on_c, 1, 70, 127
2, 562960, Note_off_c, 1, 50, 0
2, 563000, Note_on_c, 1, 48, 127
2, 563120, Note_off_c, 1, 48, 0
2, 563200, Note_on_c, 1, 46, 127
2, 563320, Note_off_c, 1, 46, 0
2, 563360, Note_on_c, 1, 48, 127
2, 563520, Note_off_c, 1, 70, 0
2, 563560, Note_on_c, 1, 69, 127
2, 563680, Note_off_c, 1, 69, 0
2, 563720, Note_on_c, 1, 67, 127
2, 563840, Note_off_c, 1, 67, 0
2, 563920, Note_on_c, 1, 69, 127
2, 564040, Note_off_c, 1, 69, 0
2, 564080, Note_on_c, 1, 67, 127
2, 564200, Note_off_c, 1, 48, 0
2, 564200, Note_off_c, 1, 67, 0
2, 564280, Note_on_c, 1, 50, 127
2, 564280, Note_on_c, 1, 66, 127
2, 564360, Note_off_c, 1, 50, 0
2, 564360, Note_off_c, 1, 66, 0
2, 564440, Note_on_c, 1, 51, 127
2, 564440, Note_on_c, 1, 67, 127
2, 564560, Note_off_c, 1, 51, 0
2, 564600, Note_on_c, 1, 50, 127
2, 564760, Note_off_c, 1, 50, 0
2, 564760, Note_off_c, 1, 67, 0
2, 564800, Note_on_c, 1, 48, 127
2, 564800, Note_on_c, 1, 75, 127
2, 564920, Note_off_c, 1, 48, 0
2, 564920, Note_off_c, 1, 75, 0
2, 564960, Note_on_c, 1, 50, 127
2, 564960, Note_on_c, 1, 65, 127
2, 565120, Note_off_c, 1, 50, 0
2, 565160, Note_on_c, 1, 48, 127
2, 565280, Note_off_c, 1, 48, 0
2, 565280, Note_off_c, 1, 65, 0
2, 565320, Note_on_c, 1, 47, 127
2, 565320, Note_on_c, 1, 74, 127
2, 565440, Note_off_c, 1, 47, 0
2, 565440, Note_off_c, 1, 74, 0
2, 565520, Note_on_c, 1, 48, 127
2, 565520, Note_on_c, 1, 63, 127
2, 565640, Note_off_c, 1, 63, 0
2, 565680, Note_on_c, 1, 62, 127
2, 565800, Note_off_c, 1, 62, 0
2, 565840, Note_off_c, 1, 48, 0
2, 565880, Note_on_c, 1, 57, 127
2, 565880, Note_on_c, 1, 60, 127
2, 566000, Note_off_c, 1, 57, 0
2, 566000, Note_off_c, 1, 60, 0
2, 566040, Note_on_c, 1, 46, 127
2, 566040, Note_on_c, 1, 62, 127
2, 566160, Note_off_c, 1, 62, 0
2, 566240, Note_on_c, 1, 60, 127
2, 566360, Note_off_c, 1, 46, 0
2, 566360, Note_off_c, 1, 60, 0
2, 566400, Note_on_c, 1, 55, 127
2, 566400, Note_on_c, 1, 58, 127
2, 566520, Note_off_c, 1, 55, 0
2, 566520, Note_off_c, 1, 58, 0
2, 566560, Note_on_c, 1, 57, 127
2, 566560, Note_on_c, 1, 60, 127
2, 566720, Note_off_c, 1, 57, 0
2, 566760, Note_on_c, 1, 55, 127
2, 566880, Note_off_c, 1, 55, 0
2, 566880, Note_off_c, 1, 60, 0
2, 566920, Note_on_c, 1, 54, 127
2, 566920, Note_on_c, 1, 69, 127
2, 567040, Note_off_c, 1, 54, 0
2, 567040, Note_off_c, 1, 69, 0
2, 567120, Note_on_c, 1, 55, 127
2, 567120, Note_on_c, 1, 58, 127
2, 567240, Note_off_c, 1, 55, 0
2, 567280, Note_on_c, 1, 53, 127
2, 567400, Note_off_c, 1, 53, 0
2, 567440, Note_off_c, 1, 58, 0
2, 567480, Note_on_c, 1, 51, 127
2, 567480, Note_on_c, 1, 60, 127
2, 567480, Note_on_c, 1, 67, 127
2, 567600, Note_off_c, 1, 51, 0
2, 567600, Note_off_c, 1, 60, 0
2, 567600, Note_off_c, 1, 67, 0
2, 567640, Note_on_c, 1, 50, 127
2, 567640, Note_on_c, 1, 62, 127
2, 567640, Note_on_c, 1, 66, 127
2, 567800, Note_off_c, 1, 50, 0
2, 567800, Note_off_c, 1, 66, 0
2, 567840, Note_on_c, 1, 52, 127
2, 567840, Note_on_c, 1, 67, 127
2, 567960, Note_off_c, 1, 52, 0
2, 567960, Note_off_c, 1, 67, 0
2, 568000, Note_on_c, 1, 54, 127
2, 568000, Note_on_c, 1, 69, 127
2, 568120, Note_off_c, 1, 54, 0
2, 568120, Note_off_c, 1, 69, 0
2, 568200, Note_on_c, 1, 55, 127
2, 568200, Note_on_c, 1, 70, 127
2, 568320, Note_off_c, 1, 62, 0
2, 568320, Note_off_c, 1, 70, 0
2, 568360, Note_on_c, 1, 60, 127
2, 568360, Note_on_c, 1, 72, 127
2, 568480, Note_off_c, 1, 60, 0
2, 568480, Note_off_c, 1, 72, 0
2, 568520, Note_on_c, 1, 58, 127
2, 568520, Note_on_c, 1, 74, 127
2, 568640, Note_off_c, 1, 58, 0
2, 568640, Note_off_c, 1, 74, 0
2, 568720, Note_on_c, 1, 60, 127
2, 568720, Note_on_c, 1, 75, 127
2, 568840, Note_off_c, 1, 55, 0
2, 568840, Note_off_c, 1, 75, 0
2, 568880, Note_on_c, 1, 57, 127
2, 568880, Note_on_c, 1, 72, 127
2, 569040, Note_off_c, 1, 57, 0
2, 569040, Note_off_c, 1, 72, 0
2, 569080, Note_on_c, 1, 58, 127
2, 569080, Note_on_c, 1, 79, 127
2, 569200, Note_off_c, 1, 58, 0
2, 569200, Note_off_c, 1, 79, 0
2, 569240, Note_on_c, 1, 54, 127
2, 569240, Note_on_c, 1, 81, 127
2, 569400, Note_off_c, 1, 60, 0
2, 569400, Note_off_c, 1, 81, 0
2, 569440, Note_on_c, 1, 58, 127
2, 569440, Note_on_c, 1, 82, 127
2, 569560, Note_off_c, 1, 58, 0
2, 569560, Note_off_c, 1, 82, 0
2, 569600, Note_on_c, 1, 57, 127
2, 569600, Note_on_c, 1, 84, 127
2, 569720, Note_off_c, 1, 57, 0
2, 569720, Note_off_c, 1, 84, 0
2, 569760, Note_off_c, 1, 54, 0
2, 569800, Note_on_c, 1, 55, 127
2, 569800, Note_on_c, 1, 82, 127
2, 569920, Note_off_c, 1, 82, 0
2, 569960, Note_on_c, 1, 79, 127
2, 570080, Note_off_c, 1, 79, 0
2, 570160, Note_on_c, 1, 51, 127
2, 570160, Note_on_c, 1, 74, 127
2, 570280, Note_off_c, 1, 51, 0
2, 570280, Note_off_c, 1, 55, 0
2, 570280, Note_off_c, 1, 74, 0
2, 570320, Note_on_c, 1, 48, 127
2, 570320, Note_on_c, 1, 57, 127
2, 570320, Note_on_c, 1, 84, 127
2, 570440, Note_off_c, 1, 57, 0
2, 570440, Note_off_c, 1, 84, 0
2, 570480, Note_on_c, 1, 58, 127
2, 570480, Note_on_c, 1, 76, 127
2, 570640, Note_off_c, 1, 48, 0
2, 570640, Note_off_c, 1, 58, 0
2, 570640, Note_off_c, 1, 76, 0
2, 570680, Note_on_c, 1, 50, 127
2, 570680, Note_on_c, 1, 60, 127
2, 570680, Note_on_c, 1, 78, 127
2, 570800, Note_off_c, 1, 50, 0
2, 570800, Note_off_c, 1, 60, 0
2, 570800, Note_off_c, 1, 78, 0
2, 570840, Note_on_c, 1, 55, 127
2, 570840, Note_on_c, 1, 58, 127
2, 570840, Note_on_c, 1, 79, 127
2, 571000, Note_off_c, 1, 79, 0
2, 571040, Note_on_c, 1, 74, 127
2, 571160, Note_off_c, 1, 74, 0
2, 571200, Note_on_c, 1, 75, 127
2, 571320, Note_off_c, 1, 75, 0
2, 571360, Note_off_c, 1, 58, 0
2, 571400, Note_on_c, 1, 60, 127
2, 571400, Note_on_c, 1, 77, 127
2, 571440, Note_off_c, 1, 60, 0
2, 571480, Note_on_c, 1, 59, 127
2, 571520, Note_off_c, 1, 59, 0
2, 571520, Note_off_c, 1, 77, 0
2, 571560, Note_on_c, 1, 60, 127
2, 571560, Note_on_c, 1, 72, 127
2, 571600, Note_off_c, 1, 60, 0
2, 571640, Note_on_c, 1, 59, 127
2, 571680, Note_off_c, 1, 72, 0
2, 571720, Note_off_c, 1, 59, 0
2, 571760, Note_on_c, 1, 57, 127
2, 571760, Note_on_c, 1, 74, 127
2, 571800, Note_off_c, 1, 57, 0
2, 571840, Note_on_c, 1, 59, 127
2, 571880, Note_off_c, 1, 55, 0
2, 571880, Note_off_c, 1, 59, 0
2, 571880, Note_off_c, 1, 74, 0
2, 571920, Note_on_c, 1, 60, 127
2, 571920, Note_on_c, 1, 75, 127
2, 572080, Note_off_c, 1, 60, 0
2, 572120, Note_on_c, 1, 55, 127
2, 572240, Note_off_c, 1, 55, 0
2, 572280, Note_on_c, 1, 57, 127
2, 572400, Note_off_c, 1, 57, 0
2, 572400, Note_off_c, 1, 75, 0
2, 572480, Note_on_c, 1, 58, 127
2, 572480, Note_on_c, 1, 77, 127
2, 572520, Note_off_c, 1, 77, 0
2, 572560, Note_on_c, 1, 76, 127
2, 572600, Note_off_c, 1, 58, 0
2, 572600, Note_off_c, 1, 76, 0
2, 572640, Note_on_c, 1, 53, 127
2, 572640, Note_on_c, 1, 77, 127
2, 572680, Note_off_c, 1, 77, 0
2, 572720, Note_on_c, 1, 76, 127
2, 572760, Note_off_c, 1, 53, 0
2, 572760, Note_off_c, 1, 76, 0
2, 572800, Note_on_c, 1, 55, 127
2, 572800, Note_on_c, 1, 74, 127
2, 572880, Note_off_c, 1, 74, 0
2, 572920, Note_off_c, 1, 55, 0
2, 572920, Note_on_c, 1, 76, 127
2, 572960, Note_off_c, 1, 76, 0
2, 573000, Note_on_c, 1, 57, 127
2, 573000, Note_on_c, 1, 77, 127
2, 573120, Note_off_c, 1, 77, 0
2, 573160, Note_on_c, 1, 72, 127
2, 573320, Note_off_c, 1, 57, 0
2, 573320, Note_off_c, 1, 72, 0
2, 573360, Note_on_c, 1, 53, 127
2, 573360, Note_on_c, 1, 74, 127
2, 573480, Note_off_c, 1, 53, 0
2, 573480, Note_off_c, 1, 74, 0
2, 573520, Note_on_c, 1, 55, 127
2, 573520, Note_on_c, 1, 75, 127
2, 573680, Note_off_c, 1, 75, 0
2, 573720, Note_on_c, 1, 70, 127
2, 573840, Note_off_c, 1, 55, 0
2, 573840, Note_off_c, 1, 70, 0
2, 573880, Note_on_c, 1, 57, 127
2, 573880, Note_on_c, 1, 72, 127
2, 574000, Note_off_c, 1, 57, 0
2, 574000, Note_off_c, 1, 72, 0
2, 574080, Note_on_c, 1, 58, 127
2, 574080, Note_on_c, 1, 74, 127
2, 574200, Note_off_c, 1, 58, 0
2, 574200, Note_off_c, 1, 74, 0
2, 574240, Note_on_c, 1, 54, 127
2, 574240, Note_on_c, 1, 69, 127
2, 574360, Note_off_c, 1, 54, 0
2, 574360, Note_off_c, 1, 69, 0
2, 574440, Note_on_c, 1, 55, 127
2, 574440, Note_on_c, 1, 70, 127
2, 574560, Note_off_c, 1, 55, 0
2, 574560, Note_off_c, 1, 70, 0
2, 574600, Note_on_c, 1, 57, 127
2, 574600, Note_on_c, 1, 72, 127
2, 574720, Note_off_c, 1, 57, 0
2, 574720, Note_off_c, 1, 72, 0
2, 574800, Note_on_c, 1, 52, 127
2, 574800, Note_on_c, 1, 67, 127
2, 574920, Note_off_c, 1, 52, 0
2, 574920, Note_off_c, 1, 67, 0
2, 574960, Note_on_c, 1, 54, 127
2, 574960, Note_on_c, 1, 69, 127
2, 575080, Note_off_c, 1, 54, 0
2, 575080, Note_off_c, 1, 69, 0
2, 575120, Note_on_c, 1, 55, 127
2, 575120, Note_on_c, 1, 70, 127
2, 575280, Note_off_c, 1, 55, 0
2, 575320, Note_on_c, 1, 50, 127
2, 575440, Note_off_c, 1, 50, 0
2, 575440, Note_off_c, 1, 70, 0
2, 575480, Note_on_c, 1, 51, 127
2, 575480, Note_on_c, 1, 79, 127
2, 575600, Note_off_c, 1, 51, 0
2, 575600, Note_off_c, 1, 79, 0
2, 575680, Note_on_c, 1, 53, 127
2, 575680, Note_on_c, 1, 68, 127
2, 575800, Note_off_c, 1, 53, 0
2, 575840, Note_on_c, 1, 48, 127
2, 575960, Note_off_c, 1, 48, 0
2, 576000, Note_off_c, 1, 68, 0
2, 576040, Note_on_c, 1, 50, 127
2, 576040, Note_on_c, 1, 77, 127
2, 576160, Note_off_c, 1, 50, 0
2, 576160, Note_off_c, 1, 77, 0
2, 576200, Note_on_c, 1, 51, 127
2, 576200, Note_on_c, 1, 67, 127
2, 576360, Note_off_c, 1, 51, 0
2, 576400, Note_on_c, 1, 47, 127
2, 576520, Note_off_c, 1, 47, 0
2, 576520, Note_off_c, 1, 67, 0
2, 576560, Note_on_c, 1, 48, 127
2, 576560, Note_on_c, 1, 75, 127
2, 576680, Note_off_c, 1, 48, 0
2, 576680, Note_off_c, 1, 75, 0
2, 576760, Note_on_c, 1, 50, 127
2, 576760, Note_on_c, 1, 65, 127
2, 576880, Note_off_c, 1, 50, 0
2, 576920, Note_on_c, 1, 45, 127
2, 577040, Note_off_c, 1, 45, 0
2, 577040, Note_off_c, 1, 65, 0
2, 577080, Note_on_c, 1, 47, 127
2, 577080, Note_on_c, 1, 74, 127
2, 577200, Note_off_c, 1, 47, 0
2, 577200, Note_off_c, 1, 74, 0
2, 577280, Note_on_c, 1, 48, 127
2, 577280, Note_on_c, 1, 63, 127
2, 577400, Note_off_c, 1, 48, 0
2, 577400, Note_off_c, 1, 63, 0
2, 577440, Note_on_c, 1, 50, 127
2, 577440, Note_on_c, 1, 65, 127
2, 577600, Note_off_c, 1, 50, 0
2, 577600, Note_off_c, 1, 65, 0
2, 577640, Note_on_c, 1, 51, 127
2, 577640, Note_on_c, 1, 67, 127
2, 577760, Note_off_c, 1, 51, 0
2, 577760, Note_off_c, 1, 67, 0
2, 577800, Note_on_c, 1, 53, 127
2, 577800, Note_on_c, 1, 62, 127
2, 577960, Note_off_c, 1, 53, 0
2, 577960, Note_off_c, 1, 62, 0
2, 578000, Note_on_c, 1, 55, 127
2, 578000, Note_on_c, 1, 63, 127
2, 578120, Note_off_c, 1, 55, 0
2, 578120, Note_off_c, 1, 63, 0
2, 578160, Note_on_c, 1, 56, 127
2, 578160, Note_on_c, 1, 60, 127
2, 578280, Note_off_c, 1, 56, 0
2, 578280, Note_off_c, 1, 60, 0
2, 578360, Note_on_c, 1, 55, 127
2, 578360, Note_on_c, 1, 59, 127
2, 578480, Note_off_c, 1, 55, 0
2, 578480, Note_off_c, 1, 59, 0
2, 578520, Note_on_c, 1, 57, 127
2, 578520, Note_on_c, 1, 60, 127
2, 578640, Note_off_c, 1, 57, 0
2, 578640, Note_off_c, 1, 60, 0
2, 578720, Note_on_c, 1, 59, 127
2, 578720, Note_on_c, 1, 62, 127
2, 578840, Note_off_c, 1, 59, 0
2, 578840, Note_off_c, 1, 62, 0
2, 578880, Note_on_c, 1, 48, 127
2, 578880, Note_on_c, 1, 63, 127
2, 579000, Note_off_c, 1, 48, 0
2, 579000, Note_off_c, 1, 63, 0
2, 579080, Note_on_c, 1, 50, 127
2, 579080, Note_on_c, 1, 65, 127
2, 579200, Note_off_c, 1, 50, 0
2, 579200, Note_off_c, 1, 65, 0
2, 579240, Note_on_c, 1, 51, 127
2, 579240, Note_on_c, 1, 67, 127
2, 579360, Note_off_c, 1, 51, 0
2, 579360, Note_off_c, 1, 67, 0
2, 579400, Note_on_c, 1, 53, 127
2, 579400, Note_on_c, 1, 68, 127
2, 579560, Note_off_c, 1, 53, 0
2, 579560, Note_off_c, 1, 68, 0
2, 579600, Note_on_c, 1, 55, 127
2, 579600, Note_on_c, 1, 65, 127
2, 579720, Note_off_c, 1, 55, 0
2, 579720, Note_off_c, 1, 65, 0
2, 579760, Note_on_c, 1, 56, 127
2, 579760, Note_on_c, 1, 72, 127
2, 579880, Note_off_c, 1, 56, 0
2, 579880, Note_off_c, 1, 72, 0
2, 579960, Note_on_c, 1, 47, 127
2, 579960, Note_on_c, 1, 74, 127
2, 580080, Note_off_c, 1, 47, 0
2, 580080, Note_off_c, 1, 74, 0
2, 580120, Note_on_c, 1, 48, 127
2, 580120, Note_on_c, 1, 75, 127
2, 580240, Note_off_c, 1, 48, 0
2, 580240, Note_off_c, 1, 75, 0
2, 580320, Note_on_c, 1, 50, 127
2, 580320, Note_on_c, 1, 77, 127
2, 580440, Note_off_c, 1, 50, 0
2, 580440, Note_off_c, 1, 77, 0
2, 580480, Note_on_c, 1, 51, 127
2, 580480, Note_on_c, 1, 79, 127
2, 580640, Note_off_c, 1, 79, 0
2, 580680, Note_on_c, 1, 75, 127
2, 580800, Note_off_c, 1, 51, 0
2, 580800, Note_off_c, 1, 75, 0
2, 580840, Note_on_c, 1, 56, 127
2, 580840, Note_on_c, 1, 72, 127
2, 580960, Note_off_c, 1, 56, 0
2, 580960, Note_off_c, 1, 72, 0
2, 581040, Note_on_c, 1, 50, 127
2, 581040, Note_on_c, 1, 77, 127
2, 581160, Note_off_c, 1, 77, 0
2, 581200, Note_on_c, 1, 69, 127
2, 581320, Note_off_c, 1, 50, 0
2, 581320, Note_off_c, 1, 69, 0
2, 581360, Note_on_c, 1, 55, 127
2, 581360, Note_on_c, 1, 71, 127
2, 581480, Note_off_c, 1, 55, 0
2, 581480, Note_off_c, 1, 71, 0
2, 581560, Note_on_c, 1, 48, 127
2, 581560, Note_on_c, 1, 75, 127
2, 581680, Note_off_c, 1, 75, 0
2, 581720, Note_on_c, 1, 72, 127
2, 581880, Note_off_c, 1, 72, 0
2, 581920, Note_on_c, 1, 69, 127
2, 582040, Note_off_c, 1, 69, 0
2, 582080, Note_on_c, 1, 74, 127
2, 582200, Note_off_c, 1, 48, 0
2, 582240, Note_off_c, 1, 74, 0
2, 582280, Note_on_c, 1, 66, 127
2, 582400, Note_off_c, 1, 66, 0
2, 582440, Note_on_c, 1, 58, 127
2, 582440, Note_on_c, 1, 67, 127
2, 582560, Note_off_c, 1, 58, 0
2, 582560, Note_off_c, 1, 67, 0
2, 582640, Note_on_c, 1, 57, 127
2, 582640, Note_on_c, 1, 72, 127
2, 582760, Note_off_c, 1, 72, 0
2, 582800, Note_on_c, 1, 69, 127
2, 582920, Note_off_c, 1, 69, 0
2, 583000, Note_on_c, 1, 66, 127
2, 583120, Note_off_c, 1, 66, 0
2, 583160, Note_on_c, 1, 70, 127
2, 583280, Note_off_c, 1, 70, 0
2, 583360, Note_on_c, 1, 62, 127
2, 583400, Note_off_c, 1, 57, 0
2, 583480, Note_off_c, 1, 62, 0
2, 583520, Note_on_c, 1, 55, 127
2, 583520, Note_on_c, 1, 63, 127
2, 583640, Note_off_c, 1, 55, 0
2, 583640, Note_off_c, 1, 63, 0
2, 583680, Note_on_c, 1, 53, 127
2, 583680, Note_on_c, 1, 69, 127
2, 583840, Note_off_c, 1, 69, 0
2, 583880, Note_on_c, 1, 65, 127
2, 584000, Note_off_c, 1, 65, 0
2, 584040, Note_on_c, 1, 62, 127
2, 584160, Note_off_c, 1, 62, 0
2, 584240, Note_on_c, 1, 67, 127
2, 584360, Note_off_c, 1, 67, 0
2, 584400, Note_on_c, 1, 58, 127
2, 584440, Note_off_c, 1, 53, 0
2, 584560, Note_off_c, 1, 58, 0
2, 584600, Note_on_c, 1, 51, 127
2, 584600, Note_on_c, 1, 60, 127
2, 584720, Note_off_c, 1, 51, 0
2, 584720, Note_off_c, 1, 60, 0
2, 584760, Note_on_c, 1, 42, 127
2, 584760, Note_on_c, 1, 62, 127
2, 584920, Note_off_c, 1, 42, 0
2, 584960, Note_on_c, 1, 43, 127
2, 585080, Note_off_c, 1, 43, 0
2, 585120, Note_on_c, 1, 45, 127
2, 585240, Note_off_c, 1, 45, 0
2, 585320, Note_on_c, 1, 46, 127
2, 585440, Note_off_c, 1, 46, 0
2, 585440, Note_off_c, 1, 62, 0
2, 585480, Note_on_c, 1, 48, 127
2, 585480, Note_on_c, 1, 64, 127
2, 585600, Note_off_c, 1, 48, 0
2, 585600, Note_off_c, 1, 64, 0
2, 585680, Note_on_c, 1, 50, 127
2, 585680, Note_on_c, 1, 66, 127
2, 585760, Note_off_c, 1, 50, 0
2, 585760, Note_off_c, 1, 66, 0
2, 585840, Note_on_c, 1, 51, 127
2, 585840, Note_on_c, 1, 67, 127
2, 585960, Note_off_c, 1, 51, 0
2, 585960, Note_off_c, 1, 67, 0
2, 586000, Note_on_c, 1, 48, 127
2, 586000, Note_on_c, 1, 69, 127
2, 586160, Note_off_c, 1, 48, 0
2, 586160, Note_off_c, 1, 69, 0
2, 586200, Note_on_c, 1, 55, 127
2, 586200, Note_on_c, 1, 70, 127
2, 586320, Note_off_c, 1, 55, 0
2, 586320, Note_off_c, 1, 70, 0
2, 586360, Note_on_c, 1, 57, 127
2, 586360, Note_on_c, 1, 72, 127
2, 586520, Note_off_c, 1, 57, 0
2, 586520, Note_off_c, 1, 72, 0
2, 586560, Note_on_c, 1, 58, 127
2, 586560, Note_on_c, 1, 74, 127
2, 586680, Note_off_c, 1, 58, 0
2, 586680, Note_off_c, 1, 74, 0
2, 586720, Note_on_c, 1, 60, 127
2, 586720, Note_on_c, 1, 75, 127
2, 586840, Note_off_c, 1, 60, 0
2, 586840, Note_off_c, 1, 75, 0
2, 586920, Note_on_c, 1, 58, 127
2, 586920, Note_on_c, 1, 74, 127
2, 587040, Note_off_c, 1, 58, 0
2, 587080, Note_on_c, 1, 55, 127
2, 587200, Note_off_c, 1, 55, 0
2, 587240, Note_off_c, 1, 74, 0
2, 587280, Note_on_c, 1, 50, 127
2, 587280, Note_on_c, 1, 82, 127
2, 587400, Note_off_c, 1, 50, 0
2, 587400, Note_off_c, 1, 82, 0
2, 587440, Note_on_c, 1, 60, 127
2, 587440, Note_on_c, 1, 75, 127
2, 587560, Note_off_c, 1, 60, 0
2, 587560, Note_off_c, 1, 75, 0
2, 587640, Note_on_c, 1, 52, 127
2, 587640, Note_on_c, 1, 74, 127
2, 587760, Note_off_c, 1, 52, 0
2, 587760, Note_off_c, 1, 74, 0
2, 587800, Note_on_c, 1, 54, 127
2, 587800, Note_on_c, 1, 72, 127
2, 587920, Note_off_c, 1, 54, 0
2, 587920, Note_off_c, 1, 72, 0
2, 587960, Note_on_c, 1, 55, 127
2, 587960, Note_on_c, 1, 70, 127
2, 588120, Note_off_c, 1, 55, 0
2, 588160, Note_on_c, 1, 50, 127
2, 588280, Note_off_c, 1, 50, 0
2, 588280, Note_off_c, 1, 70, 0
2, 588320, Note_on_c, 1, 46, 127
2, 588320, Note_on_c, 1, 79, 127
2, 588440, Note_off_c, 1, 46, 0
2, 588440, Note_off_c, 1, 79, 0
2, 588520, Note_on_c, 1, 56, 127
2, 588520, Note_on_c, 1, 72, 127
2, 588640, Note_off_c, 1, 56, 0
2, 588640, Note_off_c, 1, 72, 0
2, 588680, Note_on_c, 1, 48, 127
2, 588680, Note_on_c, 1, 70, 127
2, 588840, Note_off_c, 1, 48, 0
2, 588840, Note_off_c, 1, 70, 0
2, 588880, Note_on_c, 1, 50, 127
2, 588880, Note_on_c, 1, 68, 127
2, 589000, Note_off_c, 1, 50, 0
2, 589000, Note_off_c, 1, 68, 0
2, 589040, Note_on_c, 1, 51, 127
2, 589040, Note_on_c, 1, 67, 127
2, 589200, Note_off_c, 1, 51, 0
2, 589240, Note_on_c, 1, 46, 127
2, 589360, Note_off_c, 1, 46, 0
2, 589360, Note_off_c, 1, 67, 0
2, 589400, Note_on_c, 1, 43, 127
2, 589400, Note_on_c, 1, 75, 127
2, 589520, Note_off_c, 1, 43, 0
2, 589520, Note_off_c, 1, 75, 0
2, 589600, Note_on_c, 1, 53, 127
2, 589600, Note_on_c, 1, 68, 127
2, 589720, Note_off_c, 1, 53, 0
2, 589720, Note_off_c, 1, 68, 0
2, 589760, Note_on_c, 1, 45, 127
2, 589760, Note_on_c, 1, 67, 127
2, 589880, Note_off_c, 1, 45, 0
2, 589880, Note_off_c, 1, 67, 0
2, 589960, Note_on_c, 1, 47, 127
2, 589960, Note_on_c, 1, 65, 127
2, 590040, Note_off_c, 1, 47, 0
2, 590040, Note_off_c, 1, 65, 0
2, 590120, Note_on_c, 1, 48, 127
2, 590120, Note_on_c, 1, 63, 127
2, 590240, Note_off_c, 1, 63, 0
2, 590280, Note_on_c, 1, 72, 127
2, 590440, Note_off_c, 1, 72, 0
2, 590480, Note_off_c, 1, 48, 0
2, 590480, Note_on_c, 1, 63, 127
2, 590600, Note_off_c, 1, 63, 0
2, 590640, Note_on_c, 1, 43, 127
2, 590640, Note_on_c, 1, 62, 127
2, 590800, Note_off_c, 1, 62, 0
2, 590840, Note_on_c, 1, 72, 127
2, 590960, Note_off_c, 1, 72, 0
2, 591000, Note_off_c, 1, 43, 0
2, 591000, Note_on_c, 1, 70, 127
2, 591120, Note_off_c, 1, 70, 0
2, 591200, Note_on_c, 1, 40, 127
2, 591200, Note_on_c, 1, 60, 127
2, 591320, Note_off_c, 1, 60, 0
2, 591360, Note_on_c, 1, 70, 127
2, 591480, Note_off_c, 1, 70, 0
2, 591520, Note_off_c, 1, 40, 0
2, 591560, Note_on_c, 1, 69, 127
2, 591680, Note_off_c, 1, 69, 0
2, 591720, Note_on_c, 1, 42, 127
2, 591720, Note_on_c, 1, 62, 127
2, 591840, Note_off_c, 1, 62, 0
2, 591920, Note_on_c, 1, 72, 127
2, 592040, Note_off_c, 1, 72, 0
2, 592080, Note_off_c, 1, 42, 0
2, 592080, Note_on_c, 1, 70, 127
2, 592200, Note_off_c, 1, 70, 0
2, 592240, Note_on_c, 1, 43, 127
2, 592240, Note_on_c, 1, 64, 127
2, 592400, Note_off_c, 1, 64, 0
2, 592440, Note_on_c, 1, 74, 127
2, 592560, Note_off_c, 1, 74, 0
2, 592600, Note_off_c, 1, 43, 0
2, 592600, Note_on_c, 1, 72, 127
2, 592720, Note_off_c, 1, 72, 0
2, 592800, Note_on_c, 1, 45, 127
2, 592800, Note_on_c, 1, 66, 127
2, 592920, Note_off_c, 1, 66, 0
2, 592960, Note_on_c, 1, 75, 127
2, 593080, Note_off_c, 1, 75, 0
2, 593160, Note_off_c, 1, 45, 0
2, 593160, Note_on_c, 1, 74, 127
2, 593280, Note_off_c, 1, 74, 0
2, 593320, Note_on_c, 1, 46, 127
2, 593320, Note_on_c, 1, 67, 127
2, 593480, Note_off_c, 1, 67, 0
2, 593520, Note_on_c, 1, 72, 127
2, 593640, Note_off_c, 1, 72, 0
2, 593680, Note_off_c, 1, 46, 0
2, 593680, Note_on_c, 1, 70, 127
2, 593800, Note_off_c, 1, 70, 0
2, 593880, Note_on_c, 1, 48, 127
2, 593880, Note_on_c, 1, 69, 127
2, 594000, Note_off_c, 1, 69, 0
2, 594040, Note_on_c, 1, 70, 127
2, 594160, Note_off_c, 1, 70, 0
2, 594200, Note_off_c, 1, 48, 0
2, 594200, Note_on_c, 1, 67, 127
2, 594320, Note_off_c, 1, 67, 0
2, 594400, Note_on_c, 1, 50, 127
2, 594400, Note_on_c, 1, 66, 127
2, 594560, Note_on_c, 1, 63, 127
2, 594720, Note_off_c, 1, 63, 0
2, 594720, Note_off_c, 1, 66, 0
2, 594760, Note_off_c, 1, 50, 0
2, 594760, Note_on_c, 1, 62, 127
2, 594880, Note_off_c, 1, 62, 0
2, 594920, Note_on_c, 1, 52, 127
2, 594920, Note_on_c, 1, 67, 127
2, 595120, Note_on_c, 1, 62, 127
2, 595240, Note_off_c, 1, 62, 0
2, 595240, Note_off_c, 1, 67, 0
2, 595280, Note_off_c, 1, 52, 0
2, 595280, Note_on_c, 1, 60, 127
2, 595400, Note_off_c, 1, 60, 0
2, 595480, Note_on_c, 1, 54, 127
2, 595480, Note_on_c, 1, 69, 127
2, 595640, Note_on_c, 1, 62, 127
2, 595760, Note_off_c, 1, 54, 0
2, 595760, Note_off_c, 1, 62, 0
2, 595760, Note_off_c, 1, 69, 0
2, 595800, Note_on_c, 1, 38, 127
2, 595800, Note_on_c, 1, 60, 127
2, 595920, Note_off_c, 1, 38, 0
2, 595920, Note_off_c, 1, 60, 0
2, 596000, Note_on_c, 1, 40, 127
2, 596000, Note_on_c, 1, 58, 127
2, 596120, Note_off_c, 1, 58, 0
2, 596160, Note_on_c, 1, 60, 127
2, 596320, Note_off_c, 1, 40, 0
2, 596320, Note_off_c, 1, 60, 0
2, 596360, Note_on_c, 1, 42, 127
2, 596360, Note_on_c, 1, 57, 127
2, 596480, Note_off_c, 1, 42, 0
2, 596480, Note_off_c, 1, 57, 0
2, 596520, Note_on_c, 1, 43, 127
2, 596520, Note_on_c, 1, 58, 127
2, 596720, Note_on_c, 1, 57, 127
2, 596760, Note_off_c, 1, 58, 0
2, 596840, Note_off_c, 1, 57, 0
2, 596880, Note_off_c, 1, 43, 0
2, 596880, Note_on_c, 1, 55, 127
2, 597000, Note_off_c, 1, 55, 0
2, 597080, Note_on_c, 1, 45, 127
2, 597080, Note_on_c, 1, 60, 127
2, 597240, Note_on_c, 1, 57, 127
2, 597280, Note_off_c, 1, 60, 0
2, 597360, Note_off_c, 1, 57, 0
2, 597400, Note_off_c, 1, 45, 0
2, 597440, Note_on_c, 1, 55, 127
2, 597560, Note_off_c, 1, 55, 0
2, 597600, Note_on_c, 1, 46, 127
2, 597600, Note_on_c, 1, 62, 127
2, 597760, Note_on_c, 1, 57, 127
2, 597800, Note_off_c, 1, 62, 0
2, 597920, Note_off_c, 1, 57, 0
2, 597960, Note_off_c, 1, 46, 0
2, 597960, Note_on_c, 1, 55, 127
2, 598080, Note_off_c, 1, 55, 0
2, 598120, Note_on_c, 1, 48, 127
2, 598120, Note_on_c, 1, 63, 127
2, 598320, Note_on_c, 1, 57, 127
2, 598320, Note_off_c, 1, 63, 0
2, 598440, Note_off_c, 1, 57, 0
2, 598480, Note_off_c, 1, 48, 0
2, 598480, Note_on_c, 1, 55, 127
2, 598600, Note_off_c, 1, 55, 0
2, 598680, Note_on_c, 1, 50, 127
2, 598680, Note_on_c, 1, 54, 127
2, 598800, Note_off_c, 1, 50, 0
2, 598800, Note_off_c, 1, 54, 0
2, 598840, Note_on_c, 1, 52, 127
2, 598840, Note_on_c, 1, 55, 127
2, 598960, Note_off_c, 1, 52, 0
2, 598960, Note_off_c, 1, 55, 0
2, 599040, Note_on_c, 1, 54, 127
2, 599040, Note_on_c, 1, 57, 127
2, 599160, Note_off_c, 1, 54, 0
2, 599160, Note_off_c, 1, 57, 0
2, 599200, Note_on_c, 1, 43, 127
2, 599200, Note_on_c, 1, 58, 127
2, 599360, Note_off_c, 1, 43, 0
2, 599360, Note_off_c, 1, 58, 0
2, 599400, Note_on_c, 1, 45, 127
2, 599400, Note_on_c, 1, 60, 127
2, 599520, Note_off_c, 1, 45, 0
2, 599520, Note_off_c, 1, 60, 0
2, 599560, Note_on_c, 1, 46, 127
2, 599560, Note_on_c, 1, 62, 127
2, 599680, Note_off_c, 1, 46, 0
2, 599680, Note_off_c, 1, 62, 0
2, 599760, Note_on_c, 1, 48, 127
2, 599760, Note_on_c, 1, 63, 127
2, 599880, Note_off_c, 1, 48, 0
2, 599920, Note_on_c, 1, 50, 127
2, 599920, Note_on_c, 1, 60, 127
2, 599920, Note_off_c, 1, 63, 0
2, 600040, Note_off_c, 1, 50, 0
2, 600040, Note_off_c, 1, 60, 0
2, 600080, Note_on_c, 1, 51, 127
2, 600080, Note_on_c, 1, 67, 127
2, 600200, Note_off_c, 1, 51, 0
2, 600200, Note_off_c, 1, 67, 0
2, 600280, Note_on_c, 1, 42, 127
2, 600280, Note_on_c, 1, 69, 127
2, 600400, Note_off_c, 1, 42, 0
2, 600400, Note_off_c, 1, 69, 0
2, 600440, Note_on_c, 1, 43, 127
2, 600440, Note_on_c, 1, 70, 127
2, 600600, Note_off_c, 1, 43, 0
2, 600600, Note_off_c, 1, 70, 0
2, 600640, Note_on_c, 1, 45, 127
2, 600640, Note_on_c, 1, 72, 127
2, 600760, Note_off_c, 1, 45, 0
2, 600760, Note_off_c, 1, 72, 0
2, 600800, Note_on_c, 1, 46, 127
2, 600800, Note_on_c, 1, 74, 127
2, 601000, Note_on_c, 1, 70, 127
2, 601000, Note_off_c, 1, 74, 0
2, 601120, Note_off_c, 1, 46, 0
2, 601120, Note_off_c, 1, 70, 0
2, 601160, Note_on_c, 1, 51, 127
2, 601160, Note_on_c, 1, 67, 127
2, 601280, Note_off_c, 1, 51, 0
2, 601280, Note_off_c, 1, 67, 0
2, 601360, Note_on_c, 1, 45, 127
2, 601360, Note_on_c, 1, 72, 127
2, 601480, Note_off_c, 1, 72, 0
2, 601520, Note_on_c, 1, 64, 127
2, 601640, Note_off_c, 1, 45, 0
2, 601640, Note_off_c, 1, 64, 0
2, 601720, Note_on_c, 1, 62, 127
2, 601720, Note_on_c, 1, 66, 127
2, 601840, Note_off_c, 1, 62, 0
2, 601840, Note_off_c, 1, 66, 0
2, 601880, Note_on_c, 1, 63, 127
2, 601880, Note_on_c, 1, 67, 127
2, 602000, Note_off_c, 1, 63, 0
2, 602080, Note_on_c, 1, 62, 127
2, 602200, Note_off_c, 1, 62, 0
2, 602240, Note_on_c, 1, 60, 127
2, 602240, Note_on_c, 1, 74, 127
2, 602360, Note_off_c, 1, 60, 0
2, 602360, Note_off_c, 1, 74, 0
2, 602400, Note_on_c, 1, 58, 127
2, 602400, Note_on_c, 1, 79, 127
2, 602480, Note_off_c, 1, 67, 0
2, 602560, Note_off_c, 1, 58, 0
2, 602560, Note_off_c, 1, 79, 0
2, 602600, Note_on_c, 1, 57, 127
2, 602600, Note_on_c, 1, 77, 127
2, 602720, Note_off_c, 1, 57, 0
2, 602720, Note_off_c, 1, 77, 0
2, 602760, Note_on_c, 1, 55, 127
2, 602760, Note_on_c, 1, 75, 127
2, 602880, Note_off_c, 1, 55, 0
2, 602880, Note_off_c, 1, 75, 0
2, 602960, Note_on_c, 1, 54, 127
2, 602960, Note_on_c, 1, 74, 127
2, 603080, Note_off_c, 1, 54, 0
2, 603080, Note_off_c, 1, 74, 0
2, 603120, Note_on_c, 1, 57, 127
2, 603120, Note_on_c, 1, 72, 127
2, 603240, Note_off_c, 1, 57, 0
2, 603240, Note_off_c, 1, 72, 0
2, 603320, Note_on_c, 1, 50, 127
2, 603320, Note_on_c, 1, 70, 127
2, 603440, Note_off_c, 1, 50, 0
2, 603440, Note_off_c, 1, 70, 0
2, 603480, Note_on_c, 1, 48, 127
2, 603480, Note_on_c, 1, 69, 127
2, 603640, Note_off_c, 1, 48, 0
2, 603640, Note_off_c, 1, 69, 0
2, 603680, Note_on_c, 1, 46, 127
2, 603680, Note_on_c, 1, 67, 127
2, 603800, Note_off_c, 1, 46, 0
2, 603800, Note_off_c, 1, 67, 0
2, 603840, Note_on_c, 1, 45, 127
2, 603840, Note_on_c, 1, 66, 127
2, 603960, Note_off_c, 1, 45, 0
2, 603960, Note_off_c, 1, 66, 0
2, 604040, Note_on_c, 1, 46, 127
2, 604040, Note_on_c, 1, 67, 127
2, 604160, Note_off_c, 1, 46, 0
2, 604160, Note_off_c, 1, 67, 0
2, 604200, Note_on_c, 1, 55, 127
2, 604200, Note_on_c, 1, 75, 127
2, 604320, Note_off_c, 1, 55, 0
2, 604320, Note_off_c, 1, 75, 0
2, 604360, Note_on_c, 1, 48, 127
2, 604360, Note_on_c, 1, 74, 127
2, 604480, Note_off_c, 1, 48, 0
2, 604480, Note_off_c, 1, 74, 0
2, 604560, Note_on_c, 1, 50, 127
2, 604560, Note_on_c, 1, 72, 127
2, 604600, Note_off_c, 1, 72, 0
2, 604640, Note_on_c, 1, 70, 127
2, 604680, Note_off_c, 1, 50, 0
2, 604680, Note_off_c, 1, 70, 0
2, 604720, Note_on_c, 1, 48, 127
2, 604720, Note_on_c, 1, 69, 127
2, 604880, Note_off_c, 1, 48, 0
2, 604880, Note_off_c, 1, 69, 0
2, 604920, Note_on_c, 1, 50, 127
2, 604920, Note_on_c, 1, 67, 127
2, 605040, Note_off_c, 1, 50, 0
2, 605040, Note_off_c, 1, 67, 0
2, 605080, Note_on_c, 1, 43, 127
2, 605080, Note_on_c, 1, 67, 127
2, 605280, Note_off_c, 1, 43, 0
2, 605280, Note_off_c, 1, 67, 0
2, 605320, Note_on_c, 1, 46, 127
2, 605320, Note_on_c, 1, 62, 127
2, 605480, Note_off_c, 1, 46, 0
2, 605480, Note_off_c, 1, 62, 0
2, 605520, Note_on_c, 1, 50, 127
2, 605520, Note_on_c, 1, 58, 127
2, 605720, Note_off_c, 1, 50, 0
2, 605720, Note_off_c, 1, 58, 0
2, 605800, Note_on_c, 1, 55, 127
2, 607960, Note_off_c, 1, 55, 0
2, 608920, End_track
3, 0, Start_track
3, 0, Title_t, "MIDI"
3, 1536, End_track
0, 0, End_of_file
