0, 0, Header, 1, 3, 384
1, 0, Start_track
1, 0, Time_signature, 4, 2, 24, 8
1, 0, Tempo, 500000
1, 708096, End_track
2, 0, Start_track
2, 0, Text_t, "harpsichord: John Sankey"
2, 0, Program_c, 0, 6
2, 0, Pitch_bend_c, 0, 8192
2, 0, Program_c, 1, 6
2, 0, Pitch_bend_c, 1, 7792
2, 0, Program_c, 2, 6
2, 0, Pitch_bend_c, 2, 7876
2, 0, Program_c, 3, 6
2, 0, Pitch_bend_c, 3, 7952
2, 0, Program_c, 4, 6
2, 0, Pitch_bend_c, 4, 7792
2, 0, Program_c, 5, 6
2, 0, Pitch_bend_c, 5, 8112
2, 0, Program_c, 6, 6
2, 0, Pitch_bend_c, 6, 7712
2, 0, Program_c, 7, 6
2, 0, Pitch_bend_c, 7, 8037
2, 0, Program_c, 8, 6
2, 0, Pitch_bend_c, 8, 7872
2, 0, Program_c, 10, 6
2, 0, Pitch_bend_c, 10, 7712
2, 0, Program_c, 11, 6
2, 0, Pitch_bend_c, 11, 8032
2, 0, Program_c, 12, 6
2, 0, Pitch_bend_c, 12, 7872
2, 0, Title_t, "Track 1"
2, 115, Note_on_c, 10, 45, 127
2, 345, Note_on_c, 1, 49, 127
2, 459, Note_off_c, 1, 49, 127
2, 460, Note_on_c, 4, 52, 127
2, 570, Note_off_c, 10, 45, 127
2, 574, Note_off_c, 4, 52, 127
2, 575, Note_on_c, 10, 57, 127
2, 689, Note_off_c, 10, 57, 127
2, 690, Note_on_c, 8, 56, 127
2, 804, Note_off_c, 8, 56, 127
2, 805, Note_on_c, 6, 54, 127
2, 919, Note_off_c, 6, 54, 127
2, 920, Note_on_c, 4, 52, 127
2, 1054, Note_on_c, 8, 56, 127
2, 1168, Note_off_c, 8, 56, 127
2, 1169, Note_on_c, 12, 59, 127
2, 1283, Note_off_c, 12, 59, 127
2, 1284, Note_on_c, 2, 62, 127
2, 1375, Note_off_c, 4, 52, 127
2, 1398, Note_off_c, 2, 62, 127
2, 1399, Note_on_c, 1, 61, 127
2, 1513, Note_off_c, 1, 61, 127
2, 1514, Note_on_c, 12, 59, 127
2, 1628, Note_off_c, 12, 59, 127
2, 1629, Note_on_c, 10, 57, 127
2, 1763, Note_on_c, 1, 61, 127
2, 1877, Note_off_c, 1, 61, 127
2, 1878, Note_on_c, 4, 64, 127
2, 1992, Note_off_c, 4, 64, 127
2, 1993, Note_on_c, 10, 69, 127
2, 2084, Note_off_c, 10, 57, 127
2, 2107, Note_off_c, 10, 69, 127
2, 2108, Note_on_c, 8, 68, 127
2, 2222, Note_off_c, 8, 68, 127
2, 2223, Note_on_c, 6, 66, 127
2, 2337, Note_off_c, 6, 66, 127
2, 2338, Note_on_c, 4, 64, 127
2, 2472, Note_on_c, 8, 68, 127
2, 2586, Note_off_c, 8, 68, 127
2, 2587, Note_on_c, 12, 71, 127
2, 2701, Note_off_c, 12, 71, 127
2, 2702, Note_on_c, 2, 74, 127
2, 2793, Note_off_c, 4, 64, 127
2, 2816, Note_off_c, 2, 74, 127
2, 2817, Note_on_c, 1, 73, 127
2, 2931, Note_off_c, 1, 73, 127
2, 2932, Note_on_c, 12, 71, 127
2, 3059, Note_off_c, 12, 71, 127
2, 3059, Note_on_c, 10, 69, 127
2, 3411, Note_on_c, 12, 71, 127
2, 3450, Note_off_c, 10, 69, 127
2, 3514, Note_off_c, 12, 71, 127
2, 3515, Note_on_c, 1, 73, 127
2, 3618, Note_off_c, 1, 73, 127
2, 3619, Note_on_c, 2, 74, 127
2, 3722, Note_off_c, 2, 74, 127
2, 3723, Note_on_c, 4, 76, 127
2, 3826, Note_off_c, 4, 76, 127
2, 3827, Note_on_c, 6, 78, 127
2, 3930, Note_off_c, 6, 78, 127
2, 3931, Note_on_c, 8, 80, 127
2, 4034, Note_off_c, 8, 80, 127
2, 4035, Note_on_c, 10, 81, 127
2, 4138, Note_off_c, 10, 81, 127
2, 4139, Note_on_c, 12, 83, 127
2, 4242, Note_off_c, 12, 83, 127
2, 4243, Note_on_c, 8, 80, 127
2, 4346, Note_off_c, 8, 80, 127
2, 4347, Note_on_c, 4, 76, 127
2, 4463, Note_off_c, 4, 76, 127
2, 4472, Note_on_c, 8, 80, 127
2, 4584, Note_off_c, 8, 80, 127
2, 4591, Note_on_c, 10, 81, 127
2, 5089, Note_on_c, 8, 80, 127
2, 5223, Note_off_c, 8, 80, 127
2, 5227, Note_on_c, 6, 78, 127
2, 5361, Note_off_c, 6, 78, 127
2, 5364, Note_on_c, 4, 76, 127
2, 5502, Note_on_c, 2, 74, 127
2, 5636, Note_off_c, 2, 74, 127
2, 5640, Note_on_c, 1, 73, 127
2, 5777, Note_on_c, 12, 71, 127
2, 5911, Note_off_c, 12, 71, 127
2, 5915, Note_on_c, 10, 69, 127
2, 6049, Note_off_c, 10, 69, 127
2, 6052, Note_on_c, 8, 68, 127
2, 6186, Note_off_c, 8, 68, 127
2, 6190, Note_on_c, 10, 69, 127
2, 6415, Note_on_c, 4, 64, 127
2, 6734, Note_on_c, 10, 57, 127
2, 7068, Note_off_c, 10, 81, 127
2, 7268, Note_off_c, 4, 76, 127
2, 7275, Note_off_c, 1, 73, 127
2, 8017, Note_off_c, 10, 69, 127
2, 8111, Note_off_c, 4, 64, 127
2, 9469, Note_off_c, 10, 57, 127
2, 9793, Note_on_c, 10, 81, 127
2, 9986, Note_off_c, 10, 81, 127
2, 9987, Note_on_c, 8, 80, 127
2, 10180, Note_off_c, 8, 80, 127
2, 10181, Note_on_c, 6, 78, 127
2, 10374, Note_off_c, 6, 78, 127
2, 10375, Note_on_c, 4, 76, 127
2, 10568, Note_off_c, 4, 76, 127
2, 10569, Note_on_c, 6, 78, 127
2, 10762, Note_off_c, 6, 78, 127
2, 10763, Note_on_c, 2, 74, 127
2, 10956, Note_off_c, 2, 74, 127
2, 10957, Note_on_c, 1, 73, 127
2, 10957, Note_on_c, 10, 69, 127
2, 11020, Note_on_c, 12, 71, 127
2, 11027, Note_off_c, 1, 73, 127
2, 11083, Note_on_c, 1, 73, 127
2, 11090, Note_off_c, 12, 71, 127
2, 11149, Note_off_c, 10, 69, 127
2, 11150, Note_on_c, 8, 68, 127
2, 11343, Note_off_c, 8, 68, 127
2, 11344, Note_on_c, 6, 66, 127
2, 11537, Note_off_c, 6, 66, 127
2, 11538, Note_on_c, 4, 64, 127
2, 11731, Note_off_c, 4, 64, 127
2, 11732, Note_on_c, 6, 66, 127
2, 11921, Note_off_c, 1, 73, 127
2, 11925, Note_off_c, 6, 66, 127
2, 11926, Note_on_c, 2, 62, 127
2, 11926, Note_on_c, 4, 76, 127
2, 11973, Note_off_c, 4, 76, 127
2, 11974, Note_on_c, 2, 74, 127
2, 12021, Note_off_c, 2, 74, 127
2, 12022, Note_on_c, 1, 73, 127
2, 12069, Note_off_c, 1, 73, 127
2, 12070, Note_on_c, 2, 74, 127
2, 12116, Note_off_c, 2, 62, 127
2, 12117, Note_off_c, 2, 74, 127
2, 12118, Note_on_c, 1, 61, 127
2, 12118, Note_on_c, 4, 76, 127
2, 12311, Note_off_c, 4, 76, 127
2, 12312, Note_on_c, 2, 74, 127
2, 12505, Note_off_c, 2, 74, 127
2, 12506, Note_on_c, 1, 73, 127
2, 12699, Note_off_c, 1, 73, 127
2, 12700, Note_on_c, 12, 71, 127
2, 12805, Note_off_c, 1, 61, 127
2, 12893, Note_off_c, 12, 71, 127
2, 12894, Note_on_c, 1, 73, 127
2, 13087, Note_off_c, 1, 73, 127
2, 13088, Note_on_c, 10, 69, 127
2, 13088, Note_on_c, 2, 62, 127
2, 13281, Note_off_c, 2, 62, 127
2, 13281, Note_off_c, 10, 69, 127
2, 13282, Note_on_c, 4, 64, 127
2, 13282, Note_on_c, 8, 68, 127
2, 13476, Note_on_c, 2, 62, 127
2, 13669, Note_off_c, 2, 62, 127
2, 13670, Note_on_c, 1, 61, 127
2, 13863, Note_off_c, 1, 61, 127
2, 13864, Note_on_c, 12, 59, 127
2, 14057, Note_off_c, 12, 59, 127
2, 14058, Note_on_c, 1, 61, 127
2, 14251, Note_off_c, 1, 61, 127
2, 14251, Note_off_c, 8, 68, 127
2, 14252, Note_on_c, 10, 57, 127
2, 14252, Note_on_c, 10, 69, 127
2, 14445, Note_off_c, 10, 69, 127
2, 14445, Note_off_c, 10, 57, 127
2, 14446, Note_on_c, 8, 56, 127
2, 14446, Note_on_c, 12, 71, 127
2, 14639, Note_off_c, 12, 71, 127
2, 14640, Note_on_c, 1, 73, 127
2, 14828, Note_off_c, 4, 64, 127
2, 14833, Note_off_c, 1, 73, 127
2, 14834, Note_on_c, 12, 59, 127
2, 14834, Note_on_c, 2, 74, 127
2, 15027, Note_off_c, 2, 74, 127
2, 15027, Note_off_c, 12, 59, 127
2, 15028, Note_on_c, 4, 64, 127
2, 15028, Note_on_c, 1, 73, 127
2, 15221, Note_off_c, 1, 73, 127
2, 15222, Note_on_c, 2, 74, 127
2, 15415, Note_off_c, 2, 74, 127
2, 15415, Note_off_c, 8, 56, 127
2, 15416, Note_on_c, 4, 52, 127
2, 15416, Note_on_c, 12, 71, 127
2, 15609, Note_off_c, 12, 71, 127
2, 15609, Note_off_c, 4, 52, 127
2, 15610, Note_on_c, 10, 57, 127
2, 15610, Note_on_c, 10, 69, 127
2, 15610, Note_on_c, 12, 71, 127
2, 15755, Note_off_c, 12, 71, 127
2, 15755, Note_on_c, 1, 73, 127
2, 15802, Note_off_c, 10, 57, 127
2, 15803, Note_on_c, 8, 56, 127
2, 15815, Note_on_c, 12, 71, 127
2, 15819, Note_off_c, 1, 73, 127
2, 15875, Note_on_c, 1, 73, 127
2, 15879, Note_off_c, 12, 71, 127
2, 15995, Note_off_c, 8, 56, 127
2, 15996, Note_off_c, 4, 64, 127
2, 15996, Note_on_c, 6, 54, 127
2, 16189, Note_off_c, 6, 54, 127
2, 16190, Note_on_c, 4, 52, 127
2, 16383, Note_off_c, 4, 52, 127
2, 16384, Note_on_c, 6, 54, 127
2, 16435, Note_off_c, 1, 73, 127
2, 16576, Note_off_c, 6, 54, 127
2, 16577, Note_on_c, 2, 50, 127
2, 16577, Note_on_c, 2, 74, 127
2, 16770, Note_off_c, 2, 74, 127
2, 16770, Note_off_c, 2, 50, 127
2, 16771, Note_on_c, 1, 49, 127
2, 16771, Note_on_c, 4, 76, 127
2, 16964, Note_off_c, 4, 76, 127
2, 16965, Note_on_c, 6, 78, 127
2, 17158, Note_off_c, 6, 78, 127
2, 17159, Note_on_c, 4, 52, 127
2, 17159, Note_on_c, 7, 79, 127
2, 17352, Note_off_c, 7, 79, 127
2, 17352, Note_off_c, 4, 52, 127
2, 17353, Note_on_c, 10, 57, 127
2, 17353, Note_on_c, 6, 78, 127
2, 17546, Note_off_c, 6, 78, 127
2, 17547, Note_on_c, 7, 79, 127
2, 17740, Note_off_c, 7, 79, 127
2, 17741, Note_off_c, 1, 49, 127
2, 17741, Note_on_c, 10, 45, 127
2, 17741, Note_on_c, 4, 76, 127
2, 17934, Note_off_c, 4, 76, 127
2, 17934, Note_off_c, 10, 45, 127
2, 17935, Note_on_c, 2, 50, 127
2, 17935, Note_on_c, 6, 78, 127
2, 17997, Note_on_c, 4, 76, 127
2, 17999, Note_off_c, 6, 78, 127
2, 18061, Note_off_c, 4, 76, 127
2, 18061, Note_on_c, 6, 78, 127
2, 18129, Note_off_c, 10, 57, 127
2, 18130, Note_on_c, 10, 57, 127
2, 18321, Note_off_c, 6, 78, 127
2, 18323, Note_off_c, 10, 57, 127
2, 18324, Note_on_c, 7, 55, 127
2, 18324, Note_on_c, 4, 76, 127
2, 18517, Note_off_c, 4, 76, 127
2, 18517, Note_off_c, 7, 55, 127
2, 18517, Note_off_c, 2, 50, 127
2, 18518, Note_on_c, 6, 54, 127
2, 18518, Note_on_c, 2, 74, 127
2, 18711, Note_off_c, 6, 54, 127
2, 18712, Note_on_c, 7, 55, 127
2, 18905, Note_off_c, 7, 55, 127
2, 18905, Note_off_c, 2, 74, 127
2, 18906, Note_on_c, 4, 52, 127
2, 18906, Note_on_c, 4, 76, 127
2, 19094, Note_off_c, 10, 69, 127
2, 19099, Note_off_c, 4, 76, 127
2, 19099, Note_off_c, 4, 52, 127
2, 19100, Note_on_c, 3, 51, 127
2, 19100, Note_on_c, 6, 78, 127
2, 19293, Note_off_c, 6, 78, 127
2, 19294, Note_on_c, 8, 80, 127
2, 19487, Note_off_c, 8, 80, 127
2, 19487, Note_off_c, 3, 51, 127
2, 19488, Note_on_c, 6, 54, 127
2, 19488, Note_on_c, 10, 81, 127
2, 19681, Note_off_c, 10, 81, 127
2, 19681, Note_off_c, 6, 54, 127
2, 19682, Note_on_c, 3, 51, 127
2, 19682, Note_on_c, 12, 83, 127
2, 19875, Note_off_c, 12, 83, 127
2, 19876, Note_on_c, 8, 80, 127
2, 20069, Note_off_c, 8, 80, 127
2, 20069, Note_off_c, 3, 51, 127
2, 20070, Note_on_c, 12, 47, 127
2, 20070, Note_on_c, 10, 81, 127
2, 20263, Note_off_c, 10, 81, 127
2, 20263, Note_off_c, 12, 47, 127
2, 20264, Note_on_c, 4, 52, 127
2, 20264, Note_on_c, 4, 76, 127
2, 20264, Note_on_c, 10, 81, 127
2, 20457, Note_off_c, 4, 52, 127
2, 20458, Note_on_c, 3, 51, 127
2, 20651, Note_off_c, 3, 51, 127
2, 20652, Note_on_c, 1, 49, 127
2, 20845, Note_off_c, 1, 49, 127
2, 20845, Note_off_c, 10, 81, 127
2, 20846, Note_on_c, 12, 47, 127
2, 20846, Note_on_c, 8, 80, 127
2, 21039, Note_off_c, 12, 47, 127
2, 21040, Note_on_c, 1, 49, 127
2, 21135, Note_off_c, 8, 80, 127
2, 21137, Note_on_c, 12, 83, 127
2, 21201, Note_off_c, 12, 83, 127
2, 21206, Note_on_c, 10, 81, 127
2, 21233, Note_off_c, 1, 49, 127
2, 21234, Note_on_c, 10, 45, 127
2, 21269, Note_off_c, 10, 81, 127
2, 21274, Note_on_c, 8, 80, 127
2, 21338, Note_off_c, 8, 80, 127
2, 21353, Note_on_c, 10, 81, 127
2, 21417, Note_off_c, 10, 81, 127
2, 21427, Note_off_c, 10, 45, 127
2, 21428, Note_on_c, 8, 44, 127
2, 21428, Note_on_c, 12, 83, 127
2, 21621, Note_off_c, 12, 83, 127
2, 21622, Note_on_c, 12, 47, 127
2, 21622, Note_on_c, 10, 81, 127
2, 21815, Note_off_c, 10, 81, 127
2, 21815, Note_off_c, 12, 47, 127
2, 21816, Note_on_c, 4, 52, 127
2, 21816, Note_on_c, 8, 80, 127
2, 22002, Note_off_c, 4, 76, 127
2, 22009, Note_off_c, 8, 80, 127
2, 22009, Note_off_c, 4, 52, 127
2, 22009, Note_off_c, 8, 44, 127
2, 22010, Note_on_c, 10, 45, 127
2, 22010, Note_on_c, 6, 78, 127
2, 22203, Note_off_c, 6, 78, 127
2, 22204, Note_on_c, 1, 49, 127
2, 22204, Note_on_c, 8, 80, 127
2, 22397, Note_off_c, 8, 80, 127
2, 22397, Note_off_c, 1, 49, 127
2, 22398, Note_on_c, 6, 54, 127
2, 22398, Note_on_c, 4, 76, 127
2, 22591, Note_off_c, 4, 76, 127
2, 22591, Note_off_c, 6, 54, 127
2, 22591, Note_off_c, 10, 45, 127
2, 22592, Note_on_c, 12, 47, 127
2, 22592, Note_on_c, 3, 75, 127
2, 22785, Note_off_c, 3, 75, 127
2, 22786, Note_on_c, 12, 59, 127
2, 22786, Note_on_c, 4, 76, 127
2, 22976, Note_off_c, 12, 47, 127
2, 22979, Note_off_c, 4, 76, 127
2, 22979, Note_off_c, 12, 59, 127
2, 22980, Note_on_c, 1, 61, 127
2, 22980, Note_on_c, 6, 78, 127
2, 23173, Note_off_c, 1, 61, 127
2, 23174, Note_on_c, 3, 63, 127
2, 23174, Note_on_c, 12, 71, 127
2, 23367, Note_off_c, 12, 71, 127
2, 23367, Note_off_c, 3, 63, 127
2, 23368, Note_on_c, 1, 61, 127
2, 23368, Note_on_c, 1, 73, 127
2, 23561, Note_off_c, 1, 73, 127
2, 23561, Note_off_c, 1, 61, 127
2, 23562, Note_on_c, 12, 59, 127
2, 23562, Note_on_c, 10, 69, 127
2, 23755, Note_off_c, 10, 69, 127
2, 23755, Note_off_c, 12, 59, 127
2, 23756, Note_on_c, 4, 64, 127
2, 23756, Note_on_c, 8, 68, 127
2, 23949, Note_off_c, 4, 64, 127
2, 23950, Note_off_c, 6, 78, 127
2, 23950, Note_on_c, 8, 56, 127
2, 23950, Note_on_c, 12, 71, 127
2, 24143, Note_off_c, 12, 71, 127
2, 24143, Note_off_c, 8, 56, 127
2, 24144, Note_on_c, 10, 57, 127
2, 24144, Note_on_c, 4, 76, 127
2, 24337, Note_off_c, 10, 57, 127
2, 24337, Note_off_c, 8, 68, 127
2, 24338, Note_on_c, 12, 59, 127
2, 24338, Note_on_c, 6, 66, 127
2, 24528, Note_off_c, 4, 76, 127
2, 24531, Note_off_c, 12, 59, 127
2, 24532, Note_on_c, 10, 57, 127
2, 24532, Note_on_c, 4, 76, 127
2, 24725, Note_off_c, 4, 76, 127
2, 24725, Note_off_c, 10, 57, 127
2, 24726, Note_on_c, 12, 59, 127
2, 24726, Note_on_c, 3, 75, 127
2, 24919, Note_off_c, 3, 75, 127
2, 24919, Note_off_c, 12, 59, 127
2, 24919, Note_off_c, 6, 66, 127
2, 24920, Note_on_c, 4, 52, 127
2, 24920, Note_on_c, 4, 76, 127
2, 24920, Note_on_c, 4, 64, 127
2, 25113, Note_off_c, 4, 76, 127
2, 25114, Note_on_c, 3, 75, 127
2, 25307, Note_off_c, 3, 75, 127
2, 25308, Note_on_c, 6, 54, 127
2, 25308, Note_on_c, 1, 73, 127
2, 25501, Note_off_c, 1, 73, 127
2, 25501, Note_off_c, 6, 54, 127
2, 25502, Note_on_c, 8, 56, 127
2, 25502, Note_on_c, 12, 71, 127
2, 25695, Note_off_c, 12, 71, 127
2, 25696, Note_on_c, 1, 73, 127
2, 25889, Note_off_c, 1, 73, 127
2, 25889, Note_off_c, 8, 56, 127
2, 25890, Note_on_c, 10, 57, 127
2, 25890, Note_on_c, 10, 69, 127
2, 26083, Note_off_c, 10, 69, 127
2, 26083, Note_off_c, 10, 57, 127
2, 26084, Note_on_c, 12, 59, 127
2, 26084, Note_on_c, 8, 68, 127
2, 26277, Note_off_c, 12, 59, 127
2, 26278, Note_on_c, 3, 63, 127
2, 26284, Note_off_c, 4, 64, 127
2, 26471, Note_off_c, 3, 63, 127
2, 26471, Note_off_c, 8, 68, 127
2, 26472, Note_on_c, 1, 61, 127
2, 26472, Note_on_c, 10, 69, 127
2, 26665, Note_off_c, 10, 69, 127
2, 26665, Note_off_c, 1, 61, 127
2, 26666, Note_on_c, 12, 59, 127
2, 26666, Note_on_c, 10, 69, 127
2, 26762, Note_off_c, 10, 69, 127
2, 26763, Note_on_c, 8, 68, 127
2, 26810, Note_off_c, 8, 68, 127
2, 26811, Note_on_c, 10, 69, 127
2, 26858, Note_off_c, 10, 69, 127
2, 26858, Note_off_c, 12, 59, 127
2, 26859, Note_on_c, 1, 61, 127
2, 26859, Note_on_c, 8, 68, 127
2, 26906, Note_off_c, 8, 68, 127
2, 26907, Note_on_c, 10, 69, 127
2, 26954, Note_off_c, 10, 69, 127
2, 26955, Note_on_c, 8, 68, 127
2, 27051, Note_off_c, 8, 68, 127
2, 27051, Note_off_c, 1, 61, 127
2, 27052, Note_on_c, 10, 57, 127
2, 27052, Note_on_c, 6, 66, 127
2, 27245, Note_off_c, 6, 66, 127
2, 27245, Note_off_c, 10, 57, 127
2, 27246, Note_on_c, 8, 56, 127
2, 27246, Note_on_c, 4, 64, 127
2, 27434, Note_off_c, 4, 52, 127
2, 27440, Note_on_c, 3, 51, 127
2, 27630, Note_off_c, 8, 56, 127
2, 27633, Note_off_c, 3, 51, 127
2, 27634, Note_on_c, 1, 49, 127
2, 27634, Note_on_c, 10, 57, 127
2, 27827, Note_off_c, 10, 57, 127
2, 27827, Note_off_c, 1, 49, 127
2, 27828, Note_on_c, 12, 47, 127
2, 27828, Note_on_c, 8, 56, 127
2, 28021, Note_off_c, 12, 47, 127
2, 28022, Note_on_c, 1, 49, 127
2, 28212, Note_off_c, 8, 56, 127
2, 28215, Note_off_c, 1, 49, 127
2, 28216, Note_on_c, 10, 45, 127
2, 28216, Note_on_c, 6, 54, 127
2, 28409, Note_off_c, 6, 54, 127
2, 28409, Note_off_c, 10, 45, 127
2, 28410, Note_on_c, 4, 52, 127
2, 28410, Note_on_c, 8, 44, 127
2, 28603, Note_off_c, 4, 64, 127
2, 28604, Note_on_c, 2, 62, 127
2, 28797, Note_off_c, 2, 62, 127
2, 28797, Note_off_c, 8, 44, 127
2, 28798, Note_on_c, 10, 45, 127
2, 28798, Note_on_c, 1, 61, 127
2, 28991, Note_off_c, 1, 61, 127
2, 28991, Note_off_c, 10, 45, 127
2, 28992, Note_on_c, 8, 44, 127
2, 28992, Note_on_c, 12, 59, 127
2, 29185, Note_off_c, 12, 59, 127
2, 29185, Note_off_c, 8, 44, 127
2, 29186, Note_on_c, 6, 42, 127
2, 29186, Note_on_c, 2, 62, 127
2, 29379, Note_off_c, 2, 62, 127
2, 29379, Note_off_c, 6, 42, 127
2, 29380, Note_on_c, 4, 40, 127
2, 29380, Note_on_c, 1, 61, 127
2, 29572, Note_off_c, 4, 52, 127
2, 29573, Note_off_c, 1, 61, 127
2, 29573, Note_off_c, 4, 40, 127
2, 29574, Note_on_c, 6, 42, 127
2, 29574, Note_on_c, 2, 62, 127
2, 29767, Note_off_c, 2, 62, 127
2, 29767, Note_off_c, 6, 42, 127
2, 29768, Note_on_c, 8, 44, 127
2, 29768, Note_on_c, 4, 64, 127
2, 29961, Note_off_c, 4, 64, 127
2, 29961, Note_off_c, 8, 44, 127
2, 29962, Note_on_c, 10, 45, 127
2, 29962, Note_on_c, 6, 66, 127
2, 30155, Note_off_c, 6, 66, 127
2, 30155, Note_off_c, 10, 45, 127
2, 30156, Note_on_c, 8, 44, 127
2, 30156, Note_on_c, 4, 64, 127
2, 30349, Note_off_c, 4, 64, 127
2, 30349, Note_off_c, 8, 44, 127
2, 30350, Note_on_c, 10, 45, 127
2, 30350, Note_on_c, 6, 66, 127
2, 30543, Note_off_c, 6, 66, 127
2, 30543, Note_off_c, 10, 45, 127
2, 30544, Note_on_c, 12, 47, 127
2, 30544, Note_on_c, 2, 62, 127
2, 30737, Note_off_c, 2, 62, 127
2, 30737, Note_off_c, 12, 47, 127
2, 30738, Note_on_c, 10, 45, 127
2, 30738, Note_on_c, 1, 61, 127
2, 30738, Note_on_c, 10, 69, 127
2, 30931, Note_off_c, 10, 69, 127
2, 30932, Note_on_c, 8, 68, 127
2, 31125, Note_off_c, 8, 68, 127
2, 31125, Note_off_c, 10, 45, 127
2, 31126, Note_on_c, 12, 47, 127
2, 31126, Note_on_c, 6, 66, 127
2, 31319, Note_off_c, 6, 66, 127
2, 31319, Note_off_c, 12, 47, 127
2, 31320, Note_on_c, 1, 49, 127
2, 31320, Note_on_c, 4, 64, 127
2, 31513, Note_off_c, 4, 64, 127
2, 31513, Note_off_c, 1, 49, 127
2, 31514, Note_on_c, 12, 47, 127
2, 31514, Note_on_c, 7, 67, 127
2, 31707, Note_off_c, 7, 67, 127
2, 31707, Note_off_c, 12, 47, 127
2, 31708, Note_on_c, 10, 45, 127
2, 31708, Note_on_c, 6, 66, 127
2, 31900, Note_off_c, 1, 61, 127
2, 31901, Note_off_c, 6, 66, 127
2, 31901, Note_off_c, 10, 45, 127
2, 31902, Note_on_c, 12, 47, 127
2, 31902, Note_on_c, 7, 67, 127
2, 31902, Note_on_c, 2, 62, 127
2, 32095, Note_off_c, 7, 67, 127
2, 32095, Note_off_c, 12, 47, 127
2, 32096, Note_on_c, 1, 49, 127
2, 32096, Note_on_c, 10, 69, 127
2, 32289, Note_off_c, 10, 69, 127
2, 32289, Note_off_c, 1, 49, 127
2, 32290, Note_on_c, 2, 50, 127
2, 32290, Note_on_c, 12, 71, 127
2, 32483, Note_off_c, 12, 71, 127
2, 32483, Note_off_c, 2, 50, 127
2, 32483, Note_off_c, 2, 62, 127
2, 32484, Note_on_c, 1, 49, 127
2, 32484, Note_on_c, 4, 64, 127
2, 32484, Note_on_c, 10, 69, 127
2, 32677, Note_off_c, 10, 69, 127
2, 32677, Note_off_c, 1, 49, 127
2, 32678, Note_on_c, 2, 50, 127
2, 32678, Note_on_c, 12, 71, 127
2, 32871, Note_off_c, 12, 71, 127
2, 32871, Note_off_c, 2, 50, 127
2, 32872, Note_on_c, 4, 52, 127
2, 32872, Note_on_c, 7, 67, 127
2, 33065, Note_off_c, 7, 67, 127
2, 33065, Note_off_c, 4, 52, 127
2, 33066, Note_on_c, 2, 50, 127
2, 33066, Note_on_c, 6, 66, 127
2, 33259, Note_off_c, 6, 66, 127
2, 33259, Note_off_c, 2, 50, 127
2, 33260, Note_on_c, 4, 52, 127
2, 33260, Note_on_c, 8, 68, 127
2, 33453, Note_off_c, 8, 68, 127
2, 33453, Note_off_c, 4, 52, 127
2, 33454, Note_on_c, 6, 54, 127
2, 33454, Note_on_c, 10, 69, 127
2, 33646, Note_off_c, 4, 64, 127
2, 33647, Note_off_c, 10, 69, 127
2, 33647, Note_off_c, 6, 54, 127
2, 33648, Note_on_c, 8, 44, 127
2, 33648, Note_on_c, 2, 62, 127
2, 33648, Note_on_c, 12, 71, 127
2, 33841, Note_off_c, 8, 44, 127
2, 33842, Note_on_c, 10, 45, 127
2, 34035, Note_off_c, 10, 45, 127
2, 34036, Note_on_c, 12, 47, 127
2, 34229, Note_off_c, 12, 47, 127
2, 34229, Note_off_c, 2, 62, 127
2, 34230, Note_on_c, 6, 42, 127
2, 34230, Note_on_c, 1, 61, 127
2, 34287, Note_off_c, 6, 42, 127
2, 34301, Note_on_c, 5, 41, 127
2, 34372, Note_off_c, 5, 41, 127
2, 34373, Note_on_c, 3, 39, 127
2, 34422, Note_off_c, 12, 71, 127
2, 34423, Note_on_c, 10, 69, 127
2, 34443, Note_off_c, 3, 39, 127
2, 34444, Note_on_c, 5, 41, 127
2, 34515, Note_off_c, 5, 41, 127
2, 34516, Note_on_c, 6, 42, 127
2, 34587, Note_off_c, 6, 42, 127
2, 34588, Note_on_c, 5, 41, 127
2, 34616, Note_off_c, 10, 69, 127
2, 34617, Note_on_c, 8, 68, 127
2, 34658, Note_off_c, 5, 41, 127
2, 34659, Note_on_c, 3, 39, 127
2, 34730, Note_off_c, 3, 39, 127
2, 34733, Note_on_c, 5, 41, 127
2, 34804, Note_off_c, 5, 41, 127
2, 34810, Note_off_c, 8, 68, 127
2, 34811, Note_on_c, 6, 42, 127
2, 34811, Note_on_c, 10, 69, 127
2, 35004, Note_off_c, 10, 69, 127
2, 35004, Note_off_c, 6, 42, 127
2, 35005, Note_on_c, 4, 40, 127
2, 35005, Note_on_c, 6, 66, 127
2, 35198, Note_off_c, 6, 66, 127
2, 35198, Note_off_c, 4, 40, 127
2, 35199, Note_off_c, 1, 61, 127
2, 35199, Note_on_c, 2, 38, 127
2, 35199, Note_on_c, 12, 59, 127
2, 35199, Note_on_c, 8, 68, 127
2, 35392, Note_off_c, 8, 68, 127
2, 35392, Note_off_c, 12, 59, 127
2, 35392, Note_off_c, 2, 38, 127
2, 35393, Note_on_c, 1, 37, 127
2, 35393, Note_on_c, 5, 65, 127
2, 35393, Note_on_c, 1, 61, 127
2, 35586, Note_off_c, 1, 61, 127
2, 35587, Note_on_c, 12, 59, 127
2, 35780, Note_off_c, 12, 59, 127
2, 35781, Note_on_c, 10, 57, 127
2, 35974, Note_off_c, 10, 57, 127
2, 35975, Note_on_c, 8, 56, 127
2, 36168, Note_off_c, 8, 56, 127
2, 36169, Note_on_c, 12, 59, 127
2, 36362, Note_off_c, 12, 59, 127
2, 36363, Note_on_c, 10, 57, 127
2, 36556, Note_off_c, 10, 57, 127
2, 36557, Note_on_c, 12, 59, 127
2, 36747, Note_off_c, 5, 65, 127
2, 36751, Note_on_c, 6, 66, 127
2, 36944, Note_off_c, 6, 66, 127
2, 36945, Note_on_c, 8, 68, 127
2, 37138, Note_off_c, 8, 68, 127
2, 37139, Note_on_c, 1, 61, 127
2, 37332, Note_off_c, 1, 61, 127
2, 37333, Note_on_c, 6, 66, 127
2, 37526, Note_off_c, 6, 66, 127
2, 37526, Note_off_c, 1, 37, 127
2, 37527, Note_on_c, 1, 49, 127
2, 37527, Note_on_c, 5, 65, 127
2, 37719, Note_off_c, 12, 59, 127
2, 37720, Note_off_c, 5, 65, 127
2, 37720, Note_off_c, 1, 49, 127
2, 37721, Note_on_c, 2, 50, 127
2, 37721, Note_on_c, 10, 57, 127
2, 37721, Note_on_c, 6, 66, 127
2, 37914, Note_off_c, 6, 66, 127
2, 37915, Note_on_c, 8, 68, 127
2, 38108, Note_off_c, 8, 68, 127
2, 38109, Note_on_c, 10, 69, 127
2, 38302, Note_off_c, 10, 69, 127
2, 38302, Note_off_c, 2, 50, 127
2, 38303, Note_on_c, 3, 51, 127
2, 38303, Note_on_c, 12, 71, 127
2, 38496, Note_off_c, 10, 57, 127
2, 38497, Note_on_c, 8, 56, 127
2, 38690, Note_off_c, 8, 56, 127
2, 38691, Note_on_c, 6, 54, 127
2, 38884, Note_off_c, 6, 54, 127
2, 38884, Note_off_c, 3, 51, 127
2, 38885, Note_on_c, 8, 56, 127
2, 38885, Note_on_c, 4, 52, 127
2, 39078, Note_off_c, 12, 71, 127
2, 39079, Note_on_c, 1, 73, 127
2, 39272, Note_off_c, 1, 73, 127
2, 39273, Note_on_c, 2, 74, 127
2, 39466, Note_off_c, 2, 74, 127
2, 39466, Note_off_c, 4, 52, 127
2, 39467, Note_on_c, 5, 53, 127
2, 39467, Note_on_c, 1, 73, 127
2, 39660, Note_off_c, 1, 73, 127
2, 39660, Note_off_c, 8, 56, 127
2, 39661, Note_on_c, 8, 56, 127
2, 39661, Note_on_c, 2, 74, 127
2, 39854, Note_off_c, 2, 74, 127
2, 39854, Note_off_c, 8, 56, 127
2, 39855, Note_on_c, 1, 61, 127
2, 39855, Note_on_c, 12, 71, 127
2, 40048, Note_off_c, 12, 71, 127
2, 40048, Note_off_c, 1, 61, 127
2, 40048, Note_off_c, 5, 53, 127
2, 40049, Note_on_c, 6, 54, 127
2, 40049, Note_on_c, 10, 69, 127
2, 40242, Note_off_c, 10, 69, 127
2, 40243, Note_on_c, 12, 71, 127
2, 40436, Note_off_c, 12, 71, 127
2, 40437, Note_on_c, 12, 47, 127
2, 40437, Note_on_c, 8, 68, 127
2, 40630, Note_off_c, 8, 68, 127
2, 40630, Note_off_c, 12, 47, 127
2, 40631, Note_on_c, 1, 49, 127
2, 40631, Note_on_c, 10, 69, 127
2, 40718, Note_on_c, 8, 68, 127
2, 40727, Note_off_c, 10, 69, 127
2, 40775, Note_off_c, 8, 68, 127
2, 40776, Note_on_c, 10, 69, 127
2, 40823, Note_off_c, 6, 54, 127
2, 40824, Note_on_c, 6, 54, 127
2, 40833, Note_off_c, 10, 69, 127
2, 40834, Note_on_c, 8, 68, 127
2, 40891, Note_off_c, 8, 68, 127
2, 40892, Note_on_c, 10, 69, 127
2, 40940, Note_on_c, 8, 68, 127
2, 40949, Note_off_c, 10, 69, 127
2, 41016, Note_off_c, 8, 68, 127
2, 41016, Note_off_c, 6, 54, 127
2, 41017, Note_on_c, 5, 53, 127
2, 41017, Note_on_c, 6, 66, 127
2, 41210, Note_off_c, 6, 66, 127
2, 41210, Note_off_c, 5, 53, 127
2, 41210, Note_off_c, 1, 49, 127
2, 41211, Note_on_c, 6, 42, 127
2, 41211, Note_on_c, 6, 54, 127
2, 41211, Note_on_c, 6, 78, 127
2, 41211, Note_on_c, 6, 66, 127
2, 41404, Note_off_c, 6, 78, 127
2, 41405, Note_on_c, 4, 76, 127
2, 41598, Note_off_c, 4, 76, 127
2, 41599, Note_on_c, 8, 56, 127
2, 41599, Note_on_c, 2, 74, 127
2, 41792, Note_off_c, 2, 74, 127
2, 41792, Note_off_c, 8, 56, 127
2, 41792, Note_off_c, 6, 42, 127
2, 41793, Note_on_c, 11, 58, 127
2, 41793, Note_on_c, 1, 73, 127
2, 41986, Note_off_c, 1, 73, 127
2, 41987, Note_on_c, 2, 74, 127
2, 42180, Note_off_c, 2, 74, 127
2, 42180, Note_off_c, 11, 58, 127
2, 42181, Note_on_c, 12, 59, 127
2, 42181, Note_on_c, 12, 71, 127
2, 42374, Note_off_c, 12, 71, 127
2, 42374, Note_off_c, 12, 59, 127
2, 42375, Note_on_c, 1, 61, 127
2, 42375, Note_on_c, 11, 70, 127
2, 42565, Note_off_c, 6, 66, 127
2, 42568, Note_off_c, 1, 61, 127
2, 42569, Note_on_c, 4, 64, 127
2, 42762, Note_off_c, 4, 64, 127
2, 42762, Note_off_c, 11, 70, 127
2, 42763, Note_on_c, 2, 62, 127
2, 42763, Note_on_c, 12, 71, 127
2, 42956, Note_off_c, 12, 71, 127
2, 42956, Note_off_c, 2, 62, 127
2, 42957, Note_on_c, 1, 61, 127
2, 42957, Note_on_c, 12, 71, 127
2, 43053, Note_off_c, 12, 71, 127
2, 43054, Note_on_c, 11, 70, 127
2, 43111, Note_off_c, 11, 70, 127
2, 43112, Note_on_c, 12, 71, 127
2, 43149, Note_off_c, 1, 61, 127
2, 43150, Note_on_c, 2, 62, 127
2, 43169, Note_off_c, 12, 71, 127
2, 43170, Note_on_c, 11, 70, 127
2, 43227, Note_off_c, 11, 70, 127
2, 43228, Note_on_c, 12, 71, 127
2, 43283, Note_on_c, 11, 70, 127
2, 43285, Note_off_c, 12, 71, 127
2, 43340, Note_off_c, 11, 70, 127
2, 43341, Note_off_c, 2, 62, 127
2, 43342, Note_on_c, 12, 59, 127
2, 43342, Note_on_c, 8, 68, 127
2, 43535, Note_off_c, 8, 68, 127
2, 43535, Note_off_c, 12, 59, 127
2, 43536, Note_on_c, 11, 58, 127
2, 43536, Note_on_c, 6, 66, 127
2, 43730, Note_on_c, 4, 64, 127
2, 43923, Note_off_c, 4, 64, 127
2, 43923, Note_off_c, 11, 58, 127
2, 43924, Note_on_c, 12, 59, 127
2, 43924, Note_on_c, 2, 62, 127
2, 44117, Note_off_c, 2, 62, 127
2, 44117, Note_off_c, 12, 59, 127
2, 44118, Note_on_c, 11, 58, 127
2, 44118, Note_on_c, 1, 61, 127
2, 44311, Note_off_c, 1, 61, 127
2, 44312, Note_on_c, 2, 62, 127
2, 44505, Note_off_c, 2, 62, 127
2, 44505, Note_off_c, 11, 58, 127
2, 44506, Note_on_c, 8, 56, 127
2, 44506, Note_on_c, 12, 59, 127
2, 44692, Note_off_c, 6, 54, 127
2, 44699, Note_off_c, 12, 59, 127
2, 44699, Note_off_c, 8, 56, 127
2, 44700, Note_on_c, 6, 54, 127
2, 44700, Note_on_c, 11, 58, 127
2, 44890, Note_off_c, 6, 66, 127
2, 44894, Note_on_c, 8, 68, 127
2, 45084, Note_off_c, 11, 58, 127
2, 45087, Note_off_c, 8, 68, 127
2, 45087, Note_off_c, 6, 54, 127
2, 45088, Note_on_c, 4, 52, 127
2, 45088, Note_on_c, 11, 70, 127
2, 45281, Note_off_c, 11, 70, 127
2, 45281, Note_off_c, 4, 52, 127
2, 45282, Note_on_c, 2, 50, 127
2, 45282, Note_on_c, 12, 71, 127
2, 45475, Note_off_c, 12, 71, 127
2, 45476, Note_on_c, 11, 70, 127
2, 45669, Note_off_c, 11, 70, 127
2, 45669, Note_off_c, 2, 50, 127
2, 45670, Note_on_c, 1, 49, 127
2, 45670, Note_on_c, 1, 73, 127
2, 45863, Note_off_c, 1, 73, 127
2, 45863, Note_off_c, 1, 49, 127
2, 45864, Note_on_c, 12, 47, 127
2, 45864, Note_on_c, 2, 74, 127
2, 45864, Note_on_c, 12, 59, 127
2, 46057, Note_off_c, 12, 59, 127
2, 46058, Note_on_c, 1, 61, 127
2, 46248, Note_off_c, 12, 47, 127
2, 46251, Note_off_c, 1, 61, 127
2, 46252, Note_on_c, 2, 62, 127
2, 46445, Note_off_c, 2, 62, 127
2, 46446, Note_on_c, 4, 64, 127
2, 46639, Note_off_c, 4, 64, 127
2, 46640, Note_on_c, 2, 62, 127
2, 46833, Note_off_c, 2, 62, 127
2, 46834, Note_on_c, 6, 66, 127
2, 47027, Note_off_c, 6, 66, 127
2, 47028, Note_on_c, 7, 67, 127
2, 47218, Note_off_c, 2, 74, 127
2, 47222, Note_on_c, 1, 73, 127
2, 47415, Note_off_c, 1, 73, 127
2, 47416, Note_on_c, 12, 71, 127
2, 47609, Note_off_c, 12, 71, 127
2, 47610, Note_on_c, 4, 76, 127
2, 47803, Note_off_c, 7, 67, 127
2, 47804, Note_on_c, 6, 66, 127
2, 47997, Note_off_c, 6, 66, 127
2, 47998, Note_on_c, 4, 64, 127
2, 48191, Note_off_c, 4, 64, 127
2, 48192, Note_on_c, 12, 71, 127
2, 48385, Note_off_c, 4, 76, 127
2, 48386, Note_on_c, 2, 74, 127
2, 48579, Note_off_c, 2, 74, 127
2, 48580, Note_on_c, 1, 73, 127
2, 48773, Note_off_c, 1, 73, 127
2, 48774, Note_on_c, 2, 74, 127
2, 48967, Note_off_c, 2, 74, 127
2, 48968, Note_on_c, 6, 78, 127
2, 49161, Note_off_c, 6, 78, 127
2, 49162, Note_on_c, 4, 76, 127
2, 49354, Note_off_c, 12, 71, 127
2, 49355, Note_off_c, 4, 76, 127
2, 49356, Note_on_c, 6, 54, 127
2, 49356, Note_on_c, 11, 70, 127
2, 49356, Note_on_c, 6, 78, 127
2, 49549, Note_off_c, 11, 70, 127
2, 49549, Note_off_c, 6, 54, 127
2, 49550, Note_on_c, 8, 56, 127
2, 49550, Note_on_c, 12, 71, 127
2, 49743, Note_off_c, 12, 71, 127
2, 49743, Note_off_c, 8, 56, 127
2, 49744, Note_on_c, 11, 58, 127
2, 49744, Note_on_c, 1, 73, 127
2, 49937, Note_off_c, 1, 73, 127
2, 49937, Note_off_c, 11, 58, 127
2, 49938, Note_on_c, 12, 59, 127
2, 49938, Note_on_c, 2, 74, 127
2, 50131, Note_off_c, 2, 74, 127
2, 50131, Note_off_c, 12, 59, 127
2, 50132, Note_on_c, 11, 58, 127
2, 50132, Note_on_c, 4, 76, 127
2, 50325, Note_off_c, 4, 76, 127
2, 50325, Note_off_c, 11, 58, 127
2, 50326, Note_on_c, 1, 61, 127
2, 50326, Note_on_c, 11, 70, 127
2, 50519, Note_off_c, 11, 70, 127
2, 50519, Note_off_c, 1, 61, 127
2, 50520, Note_on_c, 2, 62, 127
2, 50520, Note_on_c, 12, 71, 127
2, 50710, Note_off_c, 6, 78, 127
2, 50714, Note_on_c, 7, 79, 127
2, 50907, Note_off_c, 7, 79, 127
2, 50908, Note_on_c, 10, 81, 127
2, 51101, Note_off_c, 10, 81, 127
2, 51102, Note_on_c, 12, 83, 127
2, 51295, Note_off_c, 12, 83, 127
2, 51296, Note_on_c, 0, 84, 127
2, 51489, Note_off_c, 0, 84, 127
2, 51489, Note_off_c, 2, 62, 127
2, 51490, Note_on_c, 3, 63, 127
2, 51490, Note_on_c, 10, 81, 127
2, 51683, Note_off_c, 10, 81, 127
2, 51683, Note_off_c, 3, 63, 127
2, 51684, Note_on_c, 4, 64, 127
2, 51684, Note_on_c, 7, 79, 127
2, 51877, Note_off_c, 7, 79, 127
2, 51877, Note_off_c, 4, 64, 127
2, 51878, Note_on_c, 6, 66, 127
2, 51878, Note_on_c, 6, 78, 127
2, 52071, Note_off_c, 6, 78, 127
2, 52071, Note_off_c, 6, 66, 127
2, 52072, Note_on_c, 7, 67, 127
2, 52072, Note_on_c, 4, 76, 127
2, 52265, Note_off_c, 4, 76, 127
2, 52265, Note_off_c, 7, 67, 127
2, 52266, Note_on_c, 6, 66, 127
2, 52266, Note_on_c, 2, 74, 127
2, 52459, Note_off_c, 2, 74, 127
2, 52459, Note_off_c, 6, 66, 127
2, 52460, Note_on_c, 7, 67, 127
2, 52460, Note_on_c, 4, 76, 127
2, 52653, Note_off_c, 4, 76, 127
2, 52653, Note_off_c, 7, 67, 127
2, 52654, Note_on_c, 4, 64, 127
2, 52654, Note_on_c, 1, 73, 127
2, 52847, Note_off_c, 1, 73, 127
2, 52847, Note_off_c, 4, 64, 127
2, 52848, Note_on_c, 2, 62, 127
2, 52848, Note_on_c, 6, 78, 127
2, 53041, Note_off_c, 2, 62, 127
2, 53042, Note_on_c, 6, 66, 127
2, 53235, Note_off_c, 6, 66, 127
2, 53235, Note_off_c, 6, 78, 127
2, 53236, Note_on_c, 4, 64, 127
2, 53236, Note_on_c, 7, 79, 127
2, 53424, Note_off_c, 12, 71, 127
2, 53429, Note_off_c, 7, 79, 127
2, 53429, Note_off_c, 4, 64, 127
2, 53430, Note_on_c, 6, 66, 127
2, 53430, Note_on_c, 2, 74, 127
2, 53430, Note_on_c, 11, 70, 127
2, 53517, Note_on_c, 1, 73, 127
2, 53526, Note_off_c, 2, 74, 127
2, 53574, Note_off_c, 1, 73, 127
2, 53575, Note_on_c, 2, 74, 127
2, 53622, Note_off_c, 6, 66, 127
2, 53623, Note_on_c, 1, 61, 127
2, 53632, Note_off_c, 2, 74, 127
2, 53633, Note_on_c, 1, 73, 127
2, 53690, Note_off_c, 1, 73, 127
2, 53691, Note_on_c, 2, 74, 127
2, 53748, Note_off_c, 2, 74, 127
2, 53749, Note_on_c, 1, 73, 127
2, 53806, Note_off_c, 1, 73, 127
2, 53811, Note_off_c, 11, 70, 127
2, 53814, Note_off_c, 1, 61, 127
2, 53815, Note_on_c, 4, 64, 127
2, 53815, Note_on_c, 12, 71, 127
2, 54008, Note_off_c, 12, 71, 127
2, 54008, Note_off_c, 4, 64, 127
2, 54009, Note_on_c, 4, 64, 127
2, 54009, Note_on_c, 12, 71, 127
2, 54009, Note_on_c, 12, 83, 127
2, 54079, Note_off_c, 4, 64, 127
2, 54079, Note_on_c, 3, 63, 127
2, 54149, Note_off_c, 3, 63, 127
2, 54150, Note_on_c, 4, 64, 127
2, 54203, Note_off_c, 12, 83, 127
2, 54204, Note_on_c, 10, 81, 127
2, 54220, Note_off_c, 4, 64, 127
2, 54220, Note_on_c, 3, 63, 127
2, 54397, Note_off_c, 10, 81, 127
2, 54398, Note_on_c, 8, 80, 127
2, 54591, Note_off_c, 8, 80, 127
2, 54592, Note_on_c, 6, 78, 127
2, 54785, Note_off_c, 6, 78, 127
2, 54786, Note_on_c, 8, 80, 127
2, 54979, Note_off_c, 8, 80, 127
2, 54980, Note_on_c, 4, 64, 127
2, 54980, Note_on_c, 4, 76, 127
2, 54985, Note_off_c, 3, 63, 127
2, 55173, Note_off_c, 4, 76, 127
2, 55173, Note_off_c, 4, 64, 127
2, 55174, Note_on_c, 6, 66, 127
2, 55174, Note_on_c, 3, 75, 127
2, 55367, Note_off_c, 3, 75, 127
2, 55367, Note_off_c, 6, 66, 127
2, 55368, Note_on_c, 12, 59, 127
2, 55368, Note_on_c, 4, 76, 127
2, 55561, Note_off_c, 4, 76, 127
2, 55561, Note_off_c, 12, 59, 127
2, 55562, Note_on_c, 10, 57, 127
2, 55562, Note_on_c, 6, 78, 127
2, 55748, Note_off_c, 12, 71, 127
2, 55755, Note_off_c, 6, 78, 127
2, 55755, Note_off_c, 10, 57, 127
2, 55756, Note_on_c, 8, 56, 127
2, 55756, Note_on_c, 12, 71, 127
2, 55949, Note_off_c, 8, 56, 127
2, 55950, Note_on_c, 10, 57, 127
2, 55950, Note_on_c, 1, 73, 127
2, 56140, Note_off_c, 12, 71, 127
2, 56143, Note_off_c, 1, 73, 127
2, 56143, Note_off_c, 10, 57, 127
2, 56144, Note_on_c, 6, 54, 127
2, 56144, Note_on_c, 3, 75, 127
2, 56144, Note_on_c, 10, 69, 127
2, 56337, Note_off_c, 10, 69, 127
2, 56337, Note_off_c, 3, 75, 127
2, 56337, Note_off_c, 6, 54, 127
2, 56338, Note_on_c, 4, 52, 127
2, 56338, Note_on_c, 8, 68, 127
2, 56338, Note_on_c, 4, 76, 127
2, 56531, Note_off_c, 4, 76, 127
2, 56531, Note_off_c, 4, 52, 127
2, 56532, Note_on_c, 6, 54, 127
2, 56532, Note_on_c, 12, 71, 127
2, 56725, Note_off_c, 12, 71, 127
2, 56725, Note_off_c, 6, 54, 127
2, 56726, Note_on_c, 8, 56, 127
2, 56726, Note_on_c, 4, 76, 127
2, 56919, Note_off_c, 8, 56, 127
2, 56919, Note_off_c, 8, 68, 127
2, 56920, Note_on_c, 10, 57, 127
2, 56920, Note_on_c, 6, 66, 127
2, 57110, Note_off_c, 4, 76, 127
2, 57113, Note_off_c, 10, 57, 127
2, 57114, Note_on_c, 6, 54, 127
2, 57114, Note_on_c, 4, 76, 127
2, 57307, Note_off_c, 4, 76, 127
2, 57307, Note_off_c, 6, 54, 127
2, 57308, Note_on_c, 12, 59, 127
2, 57308, Note_on_c, 2, 74, 127
2, 57501, Note_off_c, 12, 59, 127
2, 57501, Note_off_c, 6, 66, 127
2, 57502, Note_on_c, 8, 56, 127
2, 57502, Note_on_c, 4, 64, 127
2, 57692, Note_off_c, 2, 74, 127
2, 57695, Note_off_c, 8, 56, 127
2, 57696, Note_on_c, 4, 52, 127
2, 57696, Note_on_c, 2, 74, 127
2, 57889, Note_off_c, 2, 74, 127
2, 57889, Note_off_c, 4, 52, 127
2, 57890, Note_on_c, 10, 57, 127
2, 57890, Note_on_c, 1, 73, 127
2, 58083, Note_off_c, 10, 57, 127
2, 58083, Note_off_c, 4, 64, 127
2, 58084, Note_on_c, 3, 51, 127
2, 58084, Note_on_c, 6, 66, 127
2, 58274, Note_off_c, 1, 73, 127
2, 58278, Note_on_c, 6, 54, 127
2, 58278, Note_on_c, 12, 71, 127
2, 58471, Note_off_c, 12, 71, 127
2, 58471, Note_off_c, 6, 54, 127
2, 58472, Note_on_c, 12, 59, 127
2, 58472, Note_on_c, 10, 69, 127
2, 58665, Note_off_c, 10, 69, 127
2, 58665, Note_off_c, 6, 66, 127
2, 58665, Note_off_c, 3, 51, 127
2, 58666, Note_on_c, 4, 52, 127
2, 58666, Note_on_c, 8, 68, 127
2, 58856, Note_off_c, 12, 59, 127
2, 58860, Note_on_c, 1, 61, 127
2, 59053, Note_off_c, 1, 61, 127
2, 59054, Note_on_c, 12, 47, 127
2, 59054, Note_on_c, 3, 63, 127
2, 59247, Note_off_c, 3, 63, 127
2, 59247, Note_off_c, 12, 47, 127
2, 59248, Note_on_c, 8, 44, 127
2, 59248, Note_on_c, 4, 64, 127
2, 59441, Note_off_c, 4, 64, 127
2, 59441, Note_off_c, 8, 44, 127
2, 59442, Note_on_c, 10, 45, 127
2, 59442, Note_on_c, 3, 63, 127
2, 59635, Note_off_c, 3, 63, 127
2, 59635, Note_off_c, 10, 45, 127
2, 59636, Note_on_c, 12, 47, 127
2, 59636, Note_on_c, 6, 66, 127
2, 59829, Note_off_c, 6, 66, 127
2, 59829, Note_off_c, 12, 47, 127
2, 59830, Note_on_c, 4, 40, 127
2, 59830, Note_on_c, 4, 64, 127
2, 60020, Note_off_c, 8, 68, 127
2, 60020, Note_off_c, 4, 52, 127
2, 60024, Note_on_c, 6, 54, 127
2, 60024, Note_on_c, 10, 69, 127
2, 60214, Note_off_c, 4, 40, 127
2, 60217, Note_off_c, 10, 69, 127
2, 60217, Note_off_c, 6, 54, 127
2, 60218, Note_on_c, 8, 56, 127
2, 60218, Note_on_c, 12, 71, 127
2, 60411, Note_off_c, 12, 71, 127
2, 60411, Note_off_c, 8, 56, 127
2, 60412, Note_on_c, 10, 57, 127
2, 60412, Note_on_c, 1, 73, 127
2, 60605, Note_off_c, 1, 73, 127
2, 60605, Note_off_c, 10, 57, 127
2, 60606, Note_on_c, 8, 56, 127
2, 60606, Note_on_c, 12, 71, 127
2, 60799, Note_off_c, 12, 71, 127
2, 60799, Note_off_c, 8, 56, 127
2, 60800, Note_on_c, 12, 59, 127
2, 60800, Note_on_c, 2, 74, 127
2, 60993, Note_off_c, 2, 74, 127
2, 60993, Note_off_c, 12, 59, 127
2, 60994, Note_on_c, 10, 57, 127
2, 60994, Note_on_c, 1, 73, 127
2, 61184, Note_off_c, 4, 64, 127
2, 61188, Note_on_c, 6, 66, 127
2, 61381, Note_off_c, 6, 66, 127
2, 61382, Note_on_c, 4, 52, 127
2, 61382, Note_on_c, 8, 68, 127
2, 61575, Note_off_c, 8, 68, 127
2, 61575, Note_off_c, 4, 52, 127
2, 61576, Note_on_c, 1, 49, 127
2, 61576, Note_on_c, 10, 69, 127
2, 61769, Note_off_c, 10, 69, 127
2, 61769, Note_off_c, 1, 49, 127
2, 61770, Note_on_c, 2, 50, 127
2, 61770, Note_on_c, 8, 68, 127
2, 61963, Note_off_c, 8, 68, 127
2, 61963, Note_off_c, 2, 50, 127
2, 61964, Note_on_c, 4, 52, 127
2, 61964, Note_on_c, 12, 71, 127
2, 62157, Note_off_c, 12, 71, 127
2, 62157, Note_off_c, 4, 52, 127
2, 62158, Note_on_c, 10, 45, 127
2, 62158, Note_on_c, 10, 69, 127
2, 62348, Note_off_c, 1, 73, 127
2, 62348, Note_off_c, 10, 57, 127
2, 62352, Note_on_c, 12, 59, 127
2, 62352, Note_on_c, 2, 74, 127
2, 62542, Note_off_c, 10, 45, 127
2, 62545, Note_off_c, 2, 74, 127
2, 62545, Note_off_c, 12, 59, 127
2, 62546, Note_on_c, 1, 61, 127
2, 62546, Note_on_c, 4, 76, 127
2, 62739, Note_off_c, 4, 76, 127
2, 62739, Note_off_c, 1, 61, 127
2, 62740, Note_on_c, 2, 62, 127
2, 62740, Note_on_c, 6, 78, 127
2, 62933, Note_off_c, 6, 78, 127
2, 62933, Note_off_c, 2, 62, 127
2, 62934, Note_on_c, 1, 61, 127
2, 62934, Note_on_c, 4, 76, 127
2, 63127, Note_off_c, 4, 76, 127
2, 63127, Note_off_c, 1, 61, 127
2, 63128, Note_on_c, 4, 64, 127
2, 63128, Note_on_c, 7, 79, 127
2, 63321, Note_off_c, 7, 79, 127
2, 63321, Note_off_c, 4, 64, 127
2, 63322, Note_on_c, 2, 62, 127
2, 63322, Note_on_c, 6, 78, 127
2, 63512, Note_off_c, 10, 69, 127
2, 63516, Note_on_c, 12, 71, 127
2, 63709, Note_off_c, 12, 71, 127
2, 63710, Note_on_c, 10, 57, 127
2, 63710, Note_on_c, 1, 73, 127
2, 63903, Note_off_c, 1, 73, 127
2, 63903, Note_off_c, 10, 57, 127
2, 63904, Note_on_c, 6, 54, 127
2, 63904, Note_on_c, 2, 74, 127
2, 64097, Note_off_c, 2, 74, 127
2, 64097, Note_off_c, 6, 54, 127
2, 64098, Note_on_c, 7, 55, 127
2, 64098, Note_on_c, 1, 73, 127
2, 64291, Note_off_c, 1, 73, 127
2, 64291, Note_off_c, 7, 55, 127
2, 64292, Note_on_c, 10, 57, 127
2, 64292, Note_on_c, 4, 76, 127
2, 64484, Note_off_c, 2, 62, 127
2, 64485, Note_off_c, 4, 76, 127
2, 64485, Note_off_c, 10, 57, 127
2, 64486, Note_on_c, 2, 50, 127
2, 64486, Note_on_c, 2, 74, 127
2, 64676, Note_off_c, 6, 78, 127
2, 64679, Note_off_c, 2, 50, 127
2, 64680, Note_on_c, 6, 54, 127
2, 64680, Note_on_c, 8, 80, 127
2, 64873, Note_off_c, 8, 80, 127
2, 64873, Note_off_c, 6, 54, 127
2, 64874, Note_on_c, 2, 50, 127
2, 64874, Note_on_c, 10, 81, 127
2, 65067, Note_off_c, 10, 81, 127
2, 65067, Note_off_c, 2, 50, 127
2, 65068, Note_on_c, 12, 47, 127
2, 65068, Note_on_c, 12, 83, 127
2, 65261, Note_off_c, 12, 83, 127
2, 65261, Note_off_c, 12, 47, 127
2, 65262, Note_on_c, 2, 50, 127
2, 65262, Note_on_c, 6, 78, 127
2, 65455, Note_off_c, 6, 78, 127
2, 65455, Note_off_c, 2, 50, 127
2, 65456, Note_on_c, 12, 47, 127
2, 65456, Note_on_c, 10, 81, 127
2, 65649, Note_off_c, 10, 81, 127
2, 65649, Note_off_c, 12, 47, 127
2, 65650, Note_on_c, 4, 52, 127
2, 65650, Note_on_c, 8, 80, 127
2, 65843, Note_off_c, 8, 80, 127
2, 65844, Note_on_c, 6, 78, 127
2, 66037, Note_off_c, 6, 78, 127
2, 66038, Note_on_c, 4, 76, 127
2, 66224, Note_off_c, 2, 74, 127
2, 66231, Note_off_c, 4, 76, 127
2, 66232, Note_on_c, 10, 81, 127
2, 66232, Note_on_c, 1, 73, 127
2, 66425, Note_off_c, 1, 73, 127
2, 66426, Note_on_c, 12, 71, 127
2, 66619, Note_off_c, 12, 71, 127
2, 66620, Note_on_c, 10, 69, 127
2, 66813, Note_off_c, 10, 69, 127
2, 66814, Note_on_c, 12, 71, 127
2, 67007, Note_off_c, 10, 81, 127
2, 67008, Note_on_c, 8, 80, 127
2, 67201, Note_off_c, 8, 80, 127
2, 67202, Note_on_c, 6, 78, 127
2, 67395, Note_off_c, 6, 78, 127
2, 67396, Note_on_c, 8, 80, 127
2, 67589, Note_off_c, 8, 80, 127
2, 67589, Note_off_c, 12, 71, 127
2, 67589, Note_off_c, 4, 52, 127
2, 67590, Note_on_c, 4, 64, 127
2, 67590, Note_on_c, 4, 76, 127
2, 67590, Note_on_c, 1, 73, 127
2, 67783, Note_off_c, 1, 73, 127
2, 67783, Note_off_c, 4, 76, 127
2, 67783, Note_off_c, 4, 64, 127
2, 67784, Note_on_c, 2, 62, 127
2, 67784, Note_on_c, 2, 74, 127
2, 67784, Note_on_c, 6, 78, 127
2, 67977, Note_off_c, 6, 78, 127
2, 67977, Note_off_c, 2, 74, 127
2, 67977, Note_off_c, 2, 62, 127
2, 67978, Note_on_c, 1, 61, 127
2, 67978, Note_on_c, 4, 76, 127
2, 67978, Note_on_c, 7, 79, 127
2, 68171, Note_off_c, 4, 76, 127
2, 68171, Note_off_c, 1, 61, 127
2, 68172, Note_on_c, 2, 62, 127
2, 68172, Note_on_c, 2, 74, 127
2, 68365, Note_off_c, 2, 74, 127
2, 68365, Note_off_c, 2, 62, 127
2, 68366, Note_on_c, 12, 59, 127
2, 68366, Note_on_c, 6, 78, 127
2, 68559, Note_off_c, 6, 78, 127
2, 68559, Note_off_c, 12, 59, 127
2, 68560, Note_on_c, 1, 61, 127
2, 68560, Note_on_c, 4, 76, 127
2, 68753, Note_off_c, 1, 61, 127
2, 68754, Note_on_c, 12, 59, 127
2, 68947, Note_off_c, 12, 59, 127
2, 68948, Note_on_c, 10, 57, 127
2, 69140, Note_off_c, 7, 79, 127
2, 69141, Note_off_c, 10, 57, 127
2, 69142, Note_on_c, 2, 62, 127
2, 69142, Note_on_c, 6, 78, 127
2, 69335, Note_off_c, 4, 76, 127
2, 69336, Note_on_c, 10, 69, 127
2, 69529, Note_off_c, 10, 69, 127
2, 69530, Note_on_c, 1, 73, 127
2, 69723, Note_off_c, 1, 73, 127
2, 69724, Note_on_c, 2, 74, 127
2, 69917, Note_off_c, 2, 62, 127
2, 69918, Note_on_c, 12, 59, 127
2, 70111, Note_off_c, 12, 59, 127
2, 70112, Note_on_c, 2, 62, 127
2, 70304, Note_off_c, 6, 78, 127
2, 70305, Note_off_c, 2, 62, 127
2, 70306, Note_on_c, 8, 56, 127
2, 70306, Note_on_c, 4, 76, 127
2, 70499, Note_off_c, 8, 56, 127
2, 70499, Note_off_c, 2, 74, 127
2, 70500, Note_on_c, 12, 59, 127
2, 70500, Note_on_c, 8, 68, 127
2, 70693, Note_off_c, 8, 68, 127
2, 70693, Note_off_c, 12, 59, 127
2, 70694, Note_on_c, 4, 52, 127
2, 70694, Note_on_c, 12, 71, 127
2, 70887, Note_off_c, 12, 71, 127
2, 70887, Note_off_c, 4, 52, 127
2, 70888, Note_on_c, 10, 57, 127
2, 70888, Note_on_c, 1, 73, 127
2, 71081, Note_off_c, 10, 57, 127
2, 71082, Note_on_c, 1, 49, 127
2, 71275, Note_off_c, 1, 49, 127
2, 71276, Note_on_c, 4, 52, 127
2, 71468, Note_off_c, 4, 76, 127
2, 71469, Note_off_c, 4, 52, 127
2, 71470, Note_on_c, 6, 42, 127
2, 71470, Note_on_c, 2, 74, 127
2, 71663, Note_off_c, 1, 73, 127
2, 71664, Note_on_c, 12, 71, 127
2, 71857, Note_off_c, 12, 71, 127
2, 71858, Note_on_c, 10, 69, 127
2, 72051, Note_off_c, 10, 69, 127
2, 72051, Note_off_c, 6, 42, 127
2, 72052, Note_on_c, 6, 42, 127
2, 72052, Note_on_c, 12, 71, 127
2, 72120, Note_off_c, 6, 42, 127
2, 72121, Note_on_c, 8, 44, 127
2, 72189, Note_off_c, 8, 44, 127
2, 72190, Note_on_c, 10, 45, 127
2, 72245, Note_off_c, 2, 74, 127
2, 72246, Note_on_c, 1, 73, 127
2, 72257, Note_off_c, 10, 45, 127
2, 72258, Note_on_c, 8, 44, 127
2, 72326, Note_off_c, 8, 44, 127
2, 72327, Note_on_c, 10, 45, 127
2, 72395, Note_off_c, 10, 45, 127
2, 72396, Note_on_c, 8, 44, 127
2, 72436, Note_off_c, 12, 71, 127
2, 72439, Note_off_c, 1, 73, 127
2, 72440, Note_on_c, 12, 71, 127
2, 72463, Note_off_c, 8, 44, 127
2, 72464, Note_on_c, 6, 42, 127
2, 72532, Note_off_c, 6, 42, 127
2, 72533, Note_on_c, 8, 44, 127
2, 72633, Note_off_c, 8, 44, 127
2, 72633, Note_off_c, 12, 71, 127
2, 72634, Note_on_c, 10, 45, 127
2, 72634, Note_on_c, 1, 73, 127
2, 72827, Note_off_c, 10, 45, 127
2, 72828, Note_on_c, 1, 49, 127
2, 72828, Note_on_c, 10, 69, 127
2, 73021, Note_off_c, 10, 69, 127
2, 73021, Note_off_c, 1, 49, 127
2, 73022, Note_on_c, 4, 52, 127
2, 73022, Note_on_c, 7, 67, 127
2, 73215, Note_off_c, 7, 67, 127
2, 73215, Note_off_c, 4, 52, 127
2, 73216, Note_on_c, 10, 57, 127
2, 73216, Note_on_c, 6, 66, 127
2, 73409, Note_off_c, 6, 66, 127
2, 73409, Note_off_c, 10, 57, 127
2, 73410, Note_on_c, 10, 45, 127
2, 73410, Note_on_c, 7, 67, 127
2, 73603, Note_off_c, 7, 67, 127
2, 73603, Note_off_c, 10, 45, 127
2, 73604, Note_on_c, 1, 49, 127
2, 73604, Note_on_c, 4, 64, 127
2, 73797, Note_off_c, 4, 64, 127
2, 73797, Note_off_c, 1, 49, 127
2, 73798, Note_on_c, 2, 38, 127
2, 73798, Note_on_c, 6, 66, 127
2, 73988, Note_off_c, 1, 73, 127
2, 73992, Note_on_c, 2, 74, 127
2, 74185, Note_off_c, 2, 74, 127
2, 74186, Note_on_c, 1, 73, 127
2, 74379, Note_off_c, 1, 73, 127
2, 74379, Note_off_c, 2, 38, 127
2, 74380, Note_on_c, 1, 37, 127
2, 74380, Note_on_c, 12, 71, 127
2, 74448, Note_off_c, 1, 37, 127
2, 74449, Note_on_c, 3, 39, 127
2, 74517, Note_off_c, 3, 39, 127
2, 74518, Note_on_c, 4, 40, 127
2, 74573, Note_off_c, 12, 71, 127
2, 74574, Note_on_c, 1, 73, 127
2, 74585, Note_off_c, 4, 40, 127
2, 74586, Note_on_c, 3, 39, 127
2, 74654, Note_off_c, 3, 39, 127
2, 74655, Note_on_c, 4, 40, 127
2, 74723, Note_off_c, 4, 40, 127
2, 74724, Note_on_c, 3, 39, 127
2, 74767, Note_off_c, 1, 73, 127
2, 74768, Note_on_c, 10, 69, 127
2, 74791, Note_off_c, 3, 39, 127
2, 74792, Note_on_c, 1, 37, 127
2, 74860, Note_off_c, 1, 37, 127
2, 74861, Note_on_c, 3, 39, 127
2, 74960, Note_off_c, 6, 66, 127
2, 74961, Note_off_c, 3, 39, 127
2, 74961, Note_off_c, 10, 69, 127
2, 74962, Note_on_c, 4, 40, 127
2, 74962, Note_on_c, 4, 64, 127
2, 74962, Note_on_c, 10, 69, 127
2, 75057, Note_on_c, 8, 68, 127
2, 75058, Note_off_c, 10, 69, 127
2, 75138, Note_off_c, 8, 68, 127
2, 75138, Note_on_c, 10, 69, 127
2, 75154, Note_off_c, 4, 64, 127
2, 75156, Note_on_c, 2, 62, 127
2, 75218, Note_on_c, 8, 68, 127
2, 75219, Note_off_c, 10, 69, 127
2, 75296, Note_on_c, 10, 69, 127
2, 75299, Note_off_c, 8, 68, 127
2, 75346, Note_off_c, 4, 40, 127
2, 75348, Note_off_c, 2, 62, 127
2, 75350, Note_on_c, 8, 68, 127
2, 75350, Note_on_c, 1, 61, 127
2, 75364, Note_off_c, 10, 69, 127
2, 75541, Note_off_c, 1, 61, 127
2, 75543, Note_on_c, 12, 59, 127
2, 75733, Note_off_c, 8, 68, 127
2, 75736, Note_off_c, 12, 59, 127
2, 75737, Note_on_c, 1, 61, 127
2, 75737, Note_on_c, 10, 69, 127
2, 75930, Note_off_c, 10, 69, 127
2, 75930, Note_off_c, 1, 61, 127
2, 75931, Note_on_c, 10, 57, 127
2, 75931, Note_on_c, 12, 71, 127
2, 76124, Note_off_c, 12, 71, 127
2, 76124, Note_off_c, 10, 57, 127
2, 76125, Note_on_c, 8, 56, 127
2, 76125, Note_on_c, 4, 64, 127
2, 76319, Note_on_c, 2, 62, 127
2, 76512, Note_off_c, 2, 62, 127
2, 76512, Note_off_c, 8, 56, 127
2, 76513, Note_on_c, 10, 57, 127
2, 76513, Note_on_c, 1, 61, 127
2, 76706, Note_off_c, 1, 61, 127
2, 76706, Note_off_c, 10, 57, 127
2, 76707, Note_on_c, 8, 56, 127
2, 76707, Note_on_c, 12, 59, 127
2, 76900, Note_off_c, 12, 59, 127
2, 76900, Note_off_c, 4, 64, 127
2, 76901, Note_on_c, 1, 61, 127
2, 77094, Note_off_c, 1, 61, 127
2, 77094, Note_off_c, 8, 56, 127
2, 77095, Note_on_c, 6, 54, 127
2, 77095, Note_on_c, 10, 57, 127
2, 77288, Note_off_c, 10, 57, 127
2, 77288, Note_off_c, 6, 54, 127
2, 77289, Note_on_c, 4, 52, 127
2, 77289, Note_on_c, 4, 76, 127
2, 77289, Note_on_c, 8, 56, 127
2, 77482, Note_off_c, 4, 76, 127
2, 77483, Note_on_c, 2, 74, 127
2, 77673, Note_off_c, 8, 56, 127
2, 77676, Note_off_c, 2, 74, 127
2, 77676, Note_off_c, 4, 52, 127
2, 77677, Note_on_c, 6, 54, 127
2, 77677, Note_on_c, 10, 57, 127
2, 77677, Note_on_c, 1, 73, 127
2, 77870, Note_off_c, 1, 73, 127
2, 77870, Note_off_c, 10, 57, 127
2, 77870, Note_off_c, 6, 54, 127
2, 77871, Note_on_c, 8, 56, 127
2, 77871, Note_on_c, 12, 59, 127
2, 77871, Note_on_c, 12, 71, 127
2, 78064, Note_off_c, 12, 71, 127
2, 78064, Note_off_c, 12, 59, 127
2, 78065, Note_on_c, 4, 64, 127
2, 78065, Note_on_c, 2, 74, 127
2, 78258, Note_off_c, 2, 74, 127
2, 78258, Note_off_c, 4, 64, 127
2, 78258, Note_off_c, 8, 56, 127
2, 78259, Note_on_c, 10, 57, 127
2, 78259, Note_on_c, 1, 73, 127
2, 78259, Note_on_c, 6, 66, 127
2, 78452, Note_off_c, 6, 66, 127
2, 78452, Note_off_c, 1, 73, 127
2, 78452, Note_off_c, 10, 57, 127
2, 78453, Note_on_c, 12, 59, 127
2, 78453, Note_on_c, 4, 52, 127
2, 78453, Note_on_c, 8, 68, 127
2, 78453, Note_on_c, 2, 74, 127
2, 78646, Note_off_c, 4, 52, 127
2, 78647, Note_on_c, 2, 50, 127
2, 78837, Note_off_c, 12, 59, 127
2, 78840, Note_off_c, 2, 50, 127
2, 78841, Note_on_c, 1, 49, 127
2, 79034, Note_off_c, 1, 49, 127
2, 79035, Note_on_c, 12, 47, 127
2, 79228, Note_off_c, 12, 47, 127
2, 79229, Note_on_c, 1, 49, 127
2, 79422, Note_off_c, 1, 49, 127
2, 79422, Note_off_c, 8, 68, 127
2, 79423, Note_on_c, 10, 45, 127
2, 79423, Note_on_c, 10, 69, 127
2, 79616, Note_off_c, 10, 69, 127
2, 79616, Note_off_c, 10, 45, 127
2, 79617, Note_on_c, 8, 44, 127
2, 79617, Note_on_c, 12, 71, 127
2, 79810, Note_off_c, 8, 44, 127
2, 79811, Note_on_c, 6, 42, 127
2, 80004, Note_off_c, 6, 42, 127
2, 80005, Note_on_c, 4, 40, 127
2, 80191, Note_off_c, 2, 74, 127
2, 80198, Note_off_c, 4, 40, 127
2, 80199, Note_on_c, 10, 45, 127
2, 80199, Note_on_c, 1, 73, 127
2, 80392, Note_off_c, 10, 45, 127
2, 80392, Note_off_c, 12, 71, 127
2, 80393, Note_on_c, 12, 47, 127
2, 80393, Note_on_c, 10, 69, 127
2, 80586, Note_off_c, 10, 69, 127
2, 80586, Note_off_c, 12, 47, 127
2, 80587, Note_on_c, 1, 49, 127
2, 80587, Note_on_c, 7, 67, 127
2, 80780, Note_off_c, 7, 67, 127
2, 80780, Note_off_c, 1, 49, 127
2, 80781, Note_on_c, 2, 50, 127
2, 80781, Note_on_c, 6, 66, 127
2, 80974, Note_off_c, 2, 50, 127
2, 80974, Note_off_c, 1, 73, 127
2, 80975, Note_on_c, 1, 49, 127
2, 80975, Note_on_c, 2, 74, 127
2, 81168, Note_off_c, 2, 74, 127
2, 81168, Note_off_c, 1, 49, 127
2, 81169, Note_on_c, 4, 52, 127
2, 81169, Note_on_c, 1, 73, 127
2, 81362, Note_off_c, 1, 73, 127
2, 81362, Note_off_c, 4, 52, 127
2, 81362, Note_off_c, 6, 66, 127
2, 81363, Note_on_c, 2, 50, 127
2, 81363, Note_on_c, 12, 71, 127
2, 81363, Note_on_c, 5, 65, 127
2, 81556, Note_off_c, 12, 71, 127
2, 81556, Note_off_c, 2, 50, 127
2, 81557, Note_on_c, 4, 52, 127
2, 81557, Note_on_c, 0, 72, 127
2, 81750, Note_off_c, 0, 72, 127
2, 81750, Note_off_c, 4, 52, 127
2, 81751, Note_on_c, 5, 53, 127
2, 81751, Note_on_c, 10, 69, 127
2, 81944, Note_off_c, 10, 69, 127
2, 81944, Note_off_c, 5, 53, 127
2, 81945, Note_on_c, 4, 52, 127
2, 81945, Note_on_c, 8, 68, 127
2, 82138, Note_off_c, 5, 65, 127
2, 82139, Note_on_c, 4, 64, 127
2, 82332, Note_off_c, 4, 64, 127
2, 82333, Note_on_c, 2, 62, 127
2, 82525, Note_off_c, 2, 62, 127
2, 82526, Note_off_c, 4, 52, 127
2, 82527, Note_on_c, 1, 61, 127
2, 82720, Note_off_c, 1, 61, 127
2, 82720, Note_off_c, 8, 68, 127
2, 82721, Note_on_c, 2, 62, 127
2, 82721, Note_on_c, 12, 71, 127
2, 82914, Note_off_c, 12, 71, 127
2, 82914, Note_off_c, 2, 62, 127
2, 82915, Note_on_c, 12, 59, 127
2, 82915, Note_on_c, 8, 68, 127
2, 83108, Note_off_c, 8, 68, 127
2, 83108, Note_off_c, 12, 59, 127
2, 83109, Note_on_c, 1, 61, 127
2, 83109, Note_on_c, 4, 64, 127
2, 83302, Note_off_c, 4, 64, 127
2, 83303, Note_on_c, 4, 76, 127
2, 83496, Note_off_c, 4, 76, 127
2, 83497, Note_on_c, 10, 69, 127
2, 83690, Note_off_c, 1, 61, 127
2, 83691, Note_on_c, 12, 59, 127
2, 83691, Note_on_c, 2, 62, 127
2, 83884, Note_off_c, 10, 69, 127
2, 83885, Note_on_c, 12, 71, 127
2, 84078, Note_off_c, 12, 71, 127
2, 84079, Note_on_c, 8, 68, 127
2, 84273, Note_off_c, 8, 68, 127
2, 84283, Note_off_c, 2, 62, 127
2, 84288, Note_off_c, 12, 59, 127
2, 84290, Note_on_c, 10, 69, 127
2, 84290, Note_on_c, 10, 81, 127
2, 84290, Note_on_c, 10, 57, 127
2, 84290, Note_on_c, 1, 61, 127
2, 84484, Note_off_c, 10, 81, 127
2, 84485, Note_on_c, 8, 80, 127
2, 84679, Note_off_c, 8, 80, 127
2, 84679, Note_off_c, 1, 61, 127
2, 84680, Note_on_c, 6, 78, 127
2, 84680, Note_on_c, 2, 62, 127
2, 84874, Note_off_c, 2, 62, 127
2, 84874, Note_off_c, 6, 78, 127
2, 84875, Note_on_c, 4, 76, 127
2, 84875, Note_on_c, 1, 61, 127
2, 85069, Note_off_c, 4, 76, 127
2, 85070, Note_on_c, 6, 78, 127
2, 85264, Note_off_c, 6, 78, 127
2, 85264, Note_off_c, 1, 61, 127
2, 85265, Note_on_c, 2, 74, 127
2, 85265, Note_on_c, 12, 59, 127
2, 85458, Note_off_c, 10, 57, 127
2, 85459, Note_off_c, 12, 59, 127
2, 85459, Note_off_c, 2, 74, 127
2, 85460, Note_on_c, 1, 73, 127
2, 85460, Note_on_c, 10, 57, 127
2, 85651, Note_off_c, 10, 69, 127
2, 85655, Note_on_c, 8, 68, 127
2, 85849, Note_off_c, 8, 68, 127
2, 85849, Note_off_c, 1, 73, 127
2, 85850, Note_on_c, 2, 74, 127
2, 85850, Note_on_c, 6, 66, 127
2, 86044, Note_off_c, 6, 66, 127
2, 86044, Note_off_c, 2, 74, 127
2, 86045, Note_on_c, 2, 74, 127
2, 86045, Note_on_c, 4, 64, 127
2, 86142, Note_off_c, 2, 74, 127
2, 86143, Note_on_c, 1, 73, 127
2, 86191, Note_off_c, 1, 73, 127
2, 86192, Note_on_c, 2, 74, 127
2, 86240, Note_off_c, 2, 74, 127
2, 86240, Note_off_c, 4, 64, 127
2, 86241, Note_on_c, 6, 66, 127
2, 86241, Note_on_c, 1, 73, 127
2, 86289, Note_off_c, 1, 73, 127
2, 86290, Note_on_c, 2, 74, 127
2, 86338, Note_off_c, 2, 74, 127
2, 86339, Note_on_c, 1, 73, 127
2, 86436, Note_off_c, 1, 73, 127
2, 86436, Note_off_c, 6, 66, 127
2, 86437, Note_on_c, 12, 71, 127
2, 86437, Note_on_c, 2, 62, 127
2, 86630, Note_off_c, 10, 57, 127
2, 86634, Note_off_c, 2, 62, 127
2, 86634, Note_off_c, 12, 71, 127
2, 86635, Note_on_c, 10, 69, 127
2, 86635, Note_on_c, 1, 61, 127
2, 86635, Note_on_c, 10, 57, 127
2, 86833, Note_off_c, 1, 61, 127
2, 86834, Note_on_c, 12, 71, 127
2, 86834, Note_on_c, 2, 62, 127
2, 87032, Note_off_c, 2, 62, 127
2, 87032, Note_off_c, 12, 71, 127
2, 87033, Note_on_c, 1, 73, 127
2, 87033, Note_on_c, 4, 64, 127
2, 87231, Note_off_c, 4, 64, 127
2, 87231, Note_off_c, 1, 73, 127
2, 87232, Note_on_c, 2, 74, 127
2, 87232, Note_on_c, 6, 66, 127
2, 87430, Note_off_c, 6, 66, 127
2, 87430, Note_off_c, 2, 74, 127
2, 87431, Note_on_c, 6, 78, 127
2, 87431, Note_on_c, 2, 62, 127
2, 87629, Note_off_c, 2, 62, 127
2, 87629, Note_off_c, 6, 78, 127
2, 87630, Note_on_c, 4, 76, 127
2, 87630, Note_on_c, 1, 61, 127
2, 87831, Note_off_c, 1, 61, 127
2, 87831, Note_off_c, 4, 76, 127
2, 87832, Note_on_c, 6, 78, 127
2, 87832, Note_on_c, 2, 62, 127
2, 88030, Note_off_c, 10, 69, 127
2, 88033, Note_off_c, 2, 62, 127
2, 88033, Note_off_c, 6, 78, 127
2, 88034, Note_on_c, 2, 74, 127
2, 88034, Note_on_c, 6, 66, 127
2, 88235, Note_off_c, 6, 66, 127
2, 88236, Note_on_c, 4, 76, 127
2, 88236, Note_on_c, 4, 64, 127
2, 88437, Note_off_c, 4, 64, 127
2, 88437, Note_off_c, 4, 76, 127
2, 88438, Note_on_c, 6, 78, 127
2, 88438, Note_on_c, 2, 62, 127
2, 88639, Note_off_c, 2, 62, 127
2, 88640, Note_on_c, 10, 81, 127
2, 88640, Note_on_c, 6, 66, 127
2, 88841, Note_off_c, 6, 66, 127
2, 88841, Note_off_c, 10, 81, 127
2, 88842, Note_on_c, 8, 80, 127
2, 88842, Note_on_c, 4, 64, 127
2, 89047, Note_off_c, 10, 57, 127
2, 89056, Note_off_c, 4, 64, 127
2, 89056, Note_off_c, 8, 80, 127
2, 89057, Note_on_c, 10, 57, 127
2, 89057, Note_on_c, 10, 81, 127
2, 89057, Note_on_c, 6, 66, 127
2, 89271, Note_off_c, 6, 66, 127
2, 89272, Note_on_c, 10, 69, 127
2, 89487, Note_on_c, 8, 68, 127
2, 89698, Note_off_c, 10, 69, 127
2, 89701, Note_off_c, 8, 68, 127
2, 89720, Note_on_c, 10, 69, 127
2, 89946, Note_off_c, 2, 74, 127
2, 89958, Note_off_c, 6, 78, 127
2, 89971, Note_on_c, 1, 73, 127
2, 89971, Note_on_c, 4, 76, 127
2, 90220, Note_off_c, 4, 76, 127
2, 90220, Note_off_c, 1, 73, 127
2, 90242, Note_on_c, 12, 71, 127
2, 90242, Note_on_c, 2, 74, 127
2, 90470, Note_off_c, 10, 69, 127
2, 90491, Note_off_c, 2, 74, 127
2, 90491, Note_off_c, 12, 71, 127
2, 90513, Note_on_c, 10, 45, 127
2, 90513, Note_on_c, 1, 73, 127
2, 90513, Note_on_c, 10, 69, 127
2, 92861, Note_off_c, 10, 81, 127
2, 92861, Note_off_c, 10, 57, 127
2, 93813, Note_off_c, 10, 69, 127
2, 93813, Note_off_c, 1, 73, 127
2, 93816, Note_off_c, 10, 45, 127
2, 95637, Note_on_c, 10, 81, 127
2, 95825, Note_off_c, 10, 81, 127
2, 95827, Note_on_c, 10, 81, 127
2, 96017, Note_on_c, 10, 57, 127
2, 96207, Note_on_c, 1, 61, 127
2, 96397, Note_on_c, 4, 64, 127
2, 96587, Note_on_c, 10, 69, 127
2, 96777, Note_on_c, 1, 73, 127
2, 96965, Note_off_c, 1, 73, 127
2, 96965, Note_off_c, 10, 81, 127
2, 96967, Note_on_c, 4, 76, 127
2, 97155, Note_off_c, 4, 76, 127
2, 97157, Note_on_c, 10, 81, 127
2, 97339, Note_off_c, 10, 69, 127
2, 97345, Note_off_c, 1, 61, 127
2, 97347, Note_off_c, 4, 64, 127
2, 97347, Note_on_c, 2, 62, 127
2, 97347, Note_on_c, 12, 71, 127
2, 97533, Note_off_c, 10, 81, 127
2, 97537, Note_on_c, 10, 81, 127
2, 97725, Note_off_c, 10, 81, 127
2, 97727, Note_on_c, 8, 80, 127
2, 97915, Note_off_c, 8, 80, 127
2, 97917, Note_on_c, 6, 78, 127
2, 98105, Note_off_c, 6, 78, 127
2, 98107, Note_on_c, 8, 80, 127
2, 98295, Note_off_c, 8, 80, 127
2, 98297, Note_on_c, 12, 83, 127
2, 98485, Note_off_c, 12, 83, 127
2, 98487, Note_on_c, 4, 76, 127
2, 98675, Note_off_c, 4, 76, 127
2, 98677, Note_on_c, 6, 78, 127
2, 98865, Note_off_c, 6, 78, 127
2, 98865, Note_off_c, 12, 71, 127
2, 98865, Note_off_c, 2, 62, 127
2, 98867, Note_on_c, 7, 79, 127
2, 98867, Note_on_c, 4, 64, 127
2, 98935, Note_on_c, 2, 62, 127
2, 98960, Note_off_c, 4, 64, 127
2, 99004, Note_on_c, 4, 64, 127
2, 99029, Note_off_c, 2, 62, 127
2, 99058, Note_on_c, 4, 76, 127
2, 99248, Note_on_c, 1, 73, 127
2, 99438, Note_on_c, 10, 69, 127
2, 99623, Note_off_c, 4, 64, 127
2, 99629, Note_on_c, 6, 66, 127
2, 99815, Note_off_c, 10, 69, 127
2, 99819, Note_on_c, 10, 69, 127
2, 100001, Note_off_c, 1, 73, 127
2, 100007, Note_off_c, 7, 79, 127
2, 100009, Note_off_c, 4, 76, 127
2, 100009, Note_on_c, 6, 78, 127
2, 100009, Note_on_c, 2, 74, 127
2, 100195, Note_off_c, 10, 69, 127
2, 100199, Note_on_c, 8, 68, 127
2, 100203, Note_off_c, 6, 66, 127
2, 100385, Note_off_c, 2, 74, 127
2, 100385, Note_off_c, 6, 78, 127
2, 100387, Note_off_c, 8, 68, 127
2, 100389, Note_on_c, 10, 69, 127
2, 100389, Note_on_c, 4, 76, 127
2, 100579, Note_on_c, 2, 74, 127
2, 100767, Note_off_c, 2, 74, 127
2, 100769, Note_on_c, 1, 73, 127
2, 100957, Note_off_c, 1, 73, 127
2, 100959, Note_on_c, 12, 71, 127
2, 101147, Note_off_c, 12, 71, 127
2, 101149, Note_on_c, 1, 73, 127
2, 101339, Note_off_c, 10, 69, 127
2, 101339, Note_on_c, 12, 71, 127
2, 101527, Note_off_c, 12, 71, 127
2, 101529, Note_on_c, 4, 64, 127
2, 101717, Note_off_c, 4, 64, 127
2, 101719, Note_on_c, 6, 66, 127
2, 101907, Note_off_c, 6, 66, 127
2, 101909, Note_on_c, 7, 67, 127
2, 101957, Note_off_c, 10, 57, 127
2, 102100, Note_on_c, 4, 64, 127
2, 102290, Note_on_c, 1, 61, 127
2, 102480, Note_on_c, 10, 57, 127
2, 102655, Note_off_c, 4, 64, 127
2, 102663, Note_off_c, 7, 67, 127
2, 102667, Note_off_c, 4, 76, 127
2, 102669, Note_off_c, 1, 61, 127
2, 102671, Note_on_c, 6, 66, 127
2, 102853, Note_off_c, 1, 73, 127
2, 102861, Note_on_c, 10, 69, 127
2, 103047, Note_off_c, 6, 66, 127
2, 103051, Note_on_c, 5, 65, 127
2, 103051, Note_on_c, 2, 74, 127
2, 103237, Note_off_c, 10, 69, 127
2, 103241, Note_on_c, 8, 68, 127
2, 103427, Note_off_c, 5, 65, 127
2, 103429, Note_off_c, 8, 68, 127
2, 103431, Note_on_c, 10, 69, 127
2, 103431, Note_on_c, 4, 64, 127
2, 103606, Note_off_c, 2, 74, 127
2, 103622, Note_on_c, 2, 74, 127
2, 103810, Note_off_c, 2, 74, 127
2, 103812, Note_on_c, 1, 73, 127
2, 104000, Note_off_c, 1, 73, 127
2, 104002, Note_on_c, 12, 71, 127
2, 104184, Note_off_c, 4, 64, 127
2, 104184, Note_off_c, 10, 69, 127
2, 104190, Note_off_c, 12, 71, 127
2, 104192, Note_on_c, 1, 73, 127
2, 104192, Note_on_c, 4, 64, 127
2, 104192, Note_on_c, 10, 69, 127
2, 104255, Note_on_c, 8, 68, 127
2, 104285, Note_off_c, 10, 69, 127
2, 104319, Note_on_c, 10, 69, 127
2, 104349, Note_off_c, 8, 68, 127
2, 104381, Note_off_c, 10, 57, 127
2, 104383, Note_on_c, 1, 61, 127
2, 104571, Note_off_c, 1, 61, 127
2, 104573, Note_on_c, 6, 54, 127
2, 104761, Note_off_c, 6, 54, 127
2, 104763, Note_on_c, 8, 56, 127
2, 104943, Note_off_c, 10, 69, 127
2, 104945, Note_off_c, 4, 64, 127
2, 104945, Note_off_c, 1, 73, 127
2, 104951, Note_off_c, 8, 56, 127
2, 104953, Note_on_c, 12, 71, 127
2, 104953, Note_on_c, 6, 66, 127
2, 104953, Note_on_c, 3, 63, 127
2, 104953, Note_on_c, 10, 57, 127
2, 105143, Note_on_c, 6, 54, 127
2, 105333, Note_on_c, 3, 51, 127
2, 105523, Note_on_c, 12, 47, 127
2, 105698, Note_off_c, 6, 54, 127
2, 105706, Note_off_c, 10, 57, 127
2, 105706, Note_off_c, 3, 63, 127
2, 105710, Note_off_c, 3, 51, 127
2, 105712, Note_off_c, 12, 47, 127
2, 105714, Note_on_c, 8, 56, 127
2, 105904, Note_on_c, 12, 59, 127
2, 106092, Note_off_c, 6, 66, 127
2, 106094, Note_on_c, 4, 64, 127
2, 106282, Note_off_c, 12, 71, 127
2, 106284, Note_on_c, 1, 73, 127
2, 106466, Note_off_c, 8, 56, 127
2, 106472, Note_off_c, 1, 73, 127
2, 106472, Note_off_c, 12, 59, 127
2, 106474, Note_on_c, 10, 69, 127
2, 106474, Note_on_c, 6, 54, 127
2, 106474, Note_on_c, 1, 61, 127
2, 106662, Note_off_c, 10, 69, 127
2, 106664, Note_on_c, 1, 73, 127
2, 106852, Note_off_c, 1, 73, 127
2, 106854, Note_on_c, 6, 66, 127
2, 107042, Note_off_c, 6, 66, 127
2, 107044, Note_on_c, 8, 68, 127
2, 107232, Note_off_c, 8, 68, 127
2, 107234, Note_on_c, 10, 69, 127
2, 107420, Note_off_c, 4, 64, 127
2, 107424, Note_on_c, 6, 66, 127
2, 107612, Note_off_c, 6, 66, 127
2, 107612, Note_off_c, 1, 61, 127
2, 107614, Note_on_c, 3, 63, 127
2, 107614, Note_on_c, 12, 59, 127
2, 107802, Note_off_c, 12, 59, 127
2, 107804, Note_on_c, 10, 57, 127
2, 107992, Note_off_c, 10, 57, 127
2, 107992, Note_off_c, 3, 63, 127
2, 107992, Note_off_c, 6, 54, 127
2, 107994, Note_on_c, 4, 64, 127
2, 107994, Note_on_c, 4, 52, 127
2, 107994, Note_on_c, 12, 59, 127
2, 108184, Note_off_c, 10, 69, 127
2, 108184, Note_on_c, 10, 69, 127
2, 108372, Note_off_c, 10, 69, 127
2, 108374, Note_on_c, 8, 68, 127
2, 108562, Note_off_c, 8, 68, 127
2, 108564, Note_on_c, 6, 66, 127
2, 108746, Note_off_c, 12, 59, 127
2, 108746, Note_off_c, 4, 64, 127
2, 108752, Note_off_c, 6, 66, 127
2, 108754, Note_on_c, 8, 68, 127
2, 108754, Note_on_c, 4, 64, 127
2, 108754, Note_on_c, 12, 59, 127
2, 108827, Note_on_c, 3, 63, 127
2, 108857, Note_off_c, 4, 64, 127
2, 108901, Note_on_c, 4, 64, 127
2, 108931, Note_off_c, 3, 63, 127
2, 108943, Note_off_c, 4, 52, 127
2, 108945, Note_on_c, 6, 54, 127
2, 109133, Note_off_c, 6, 54, 127
2, 109135, Note_on_c, 12, 47, 127
2, 109323, Note_off_c, 12, 47, 127
2, 109325, Note_on_c, 1, 49, 127
2, 109513, Note_off_c, 1, 49, 127
2, 109515, Note_on_c, 2, 50, 127
2, 109705, Note_on_c, 12, 47, 127
2, 109895, Note_on_c, 8, 44, 127
2, 110019, Note_off_c, 4, 64, 127
2, 110074, Note_off_c, 12, 59, 127
2, 110074, Note_off_c, 8, 68, 127
2, 110086, Note_on_c, 8, 68, 127
2, 110086, Note_on_c, 4, 40, 127
2, 110261, Note_off_c, 12, 47, 127
2, 110269, Note_off_c, 2, 50, 127
2, 110273, Note_off_c, 8, 44, 127
2, 110275, Note_off_c, 4, 40, 127
2, 110275, Note_off_c, 8, 68, 127
2, 110277, Note_on_c, 4, 64, 127
2, 110277, Note_on_c, 10, 69, 127
2, 110277, Note_on_c, 1, 49, 127
2, 110465, Note_off_c, 10, 69, 127
2, 110467, Note_on_c, 12, 71, 127
2, 110467, Note_on_c, 10, 57, 127
2, 110653, Note_off_c, 1, 49, 127
2, 110655, Note_off_c, 12, 71, 127
2, 110657, Note_on_c, 1, 73, 127
2, 110657, Note_on_c, 12, 47, 127
2, 110750, Note_off_c, 1, 73, 127
2, 110752, Note_on_c, 12, 71, 127
2, 110843, Note_off_c, 10, 57, 127
2, 110845, Note_off_c, 12, 71, 127
2, 110847, Note_on_c, 10, 69, 127
2, 110847, Note_on_c, 8, 56, 127
2, 110940, Note_off_c, 10, 69, 127
2, 110942, Note_on_c, 12, 71, 127
2, 111033, Note_off_c, 12, 47, 127
2, 111035, Note_off_c, 12, 71, 127
2, 111035, Note_off_c, 8, 56, 127
2, 111037, Note_on_c, 1, 73, 127
2, 111037, Note_on_c, 10, 45, 127
2, 111227, Note_on_c, 12, 71, 127
2, 111415, Note_off_c, 12, 71, 127
2, 111417, Note_on_c, 10, 69, 127
2, 111605, Note_off_c, 10, 69, 127
2, 111607, Note_on_c, 8, 68, 127
2, 111607, Note_on_c, 4, 52, 127
2, 111789, Note_off_c, 10, 45, 127
2, 111795, Note_off_c, 4, 52, 127
2, 111795, Note_off_c, 8, 68, 127
2, 111797, Note_on_c, 10, 69, 127
2, 111797, Note_on_c, 10, 57, 127
2, 111985, Note_off_c, 10, 57, 127
2, 111987, Note_on_c, 12, 59, 127
2, 112175, Note_off_c, 12, 59, 127
2, 112177, Note_on_c, 4, 52, 127
2, 112365, Note_off_c, 4, 52, 127
2, 112367, Note_on_c, 6, 54, 127
2, 112555, Note_off_c, 6, 54, 127
2, 112557, Note_on_c, 7, 55, 127
2, 112747, Note_on_c, 4, 52, 127
2, 112937, Note_on_c, 1, 49, 127
2, 113048, Note_off_c, 4, 64, 127
2, 113115, Note_off_c, 1, 73, 127
2, 113125, Note_off_c, 10, 69, 127
2, 113127, Note_on_c, 1, 73, 127
2, 113127, Note_on_c, 10, 45, 127
2, 113302, Note_off_c, 4, 52, 127
2, 113310, Note_off_c, 7, 55, 127
2, 113314, Note_off_c, 1, 49, 127
2, 113316, Note_off_c, 10, 45, 127
2, 113316, Note_off_c, 1, 73, 127
2, 113318, Note_on_c, 10, 69, 127
2, 113318, Note_on_c, 2, 74, 127
2, 113318, Note_on_c, 6, 54, 127
2, 113506, Note_off_c, 2, 74, 127
2, 113508, Note_on_c, 1, 73, 127
2, 113508, Note_on_c, 2, 62, 127
2, 113601, Note_off_c, 1, 73, 127
2, 113603, Note_on_c, 2, 74, 127
2, 113694, Note_off_c, 6, 54, 127
2, 113696, Note_off_c, 2, 74, 127
2, 113698, Note_on_c, 4, 76, 127
2, 113698, Note_on_c, 4, 52, 127
2, 113884, Note_off_c, 2, 62, 127
2, 113886, Note_off_c, 4, 76, 127
2, 113888, Note_on_c, 2, 74, 127
2, 113888, Note_on_c, 1, 61, 127
2, 113981, Note_off_c, 2, 74, 127
2, 113983, Note_on_c, 4, 76, 127
2, 114074, Note_off_c, 4, 52, 127
2, 114076, Note_off_c, 4, 76, 127
2, 114076, Note_off_c, 1, 61, 127
2, 114078, Note_on_c, 6, 78, 127
2, 114078, Note_on_c, 2, 50, 127
2, 114268, Note_on_c, 4, 76, 127
2, 114456, Note_off_c, 4, 76, 127
2, 114458, Note_on_c, 2, 74, 127
2, 114646, Note_off_c, 2, 74, 127
2, 114648, Note_on_c, 1, 73, 127
2, 114648, Note_on_c, 10, 57, 127
2, 114830, Note_off_c, 2, 50, 127
2, 114836, Note_off_c, 10, 57, 127
2, 114836, Note_off_c, 1, 73, 127
2, 114838, Note_on_c, 2, 74, 127
2, 114838, Note_on_c, 2, 62, 127
2, 115026, Note_off_c, 2, 62, 127
2, 115028, Note_on_c, 6, 66, 127
2, 115216, Note_off_c, 6, 66, 127
2, 115218, Note_on_c, 12, 59, 127
2, 115404, Note_off_c, 6, 78, 127
2, 115406, Note_off_c, 12, 59, 127
2, 115406, Note_off_c, 2, 74, 127
2, 115408, Note_on_c, 6, 78, 127
2, 115408, Note_on_c, 1, 61, 127
2, 115594, Note_off_c, 10, 69, 127
2, 115596, Note_off_c, 1, 61, 127
2, 115596, Note_off_c, 6, 78, 127
2, 115598, Note_on_c, 4, 76, 127
2, 115598, Note_on_c, 8, 80, 127
2, 115598, Note_on_c, 2, 62, 127
2, 115786, Note_off_c, 8, 80, 127
2, 115788, Note_on_c, 10, 81, 127
2, 115788, Note_on_c, 12, 59, 127
2, 115976, Note_off_c, 10, 81, 127
2, 115978, Note_on_c, 8, 80, 127
2, 115978, Note_on_c, 8, 56, 127
2, 116166, Note_off_c, 8, 80, 127
2, 116168, Note_on_c, 10, 81, 127
2, 116168, Note_on_c, 4, 52, 127
2, 116343, Note_off_c, 12, 59, 127
2, 116351, Note_off_c, 2, 62, 127
2, 116355, Note_off_c, 8, 56, 127
2, 116357, Note_off_c, 4, 52, 127
2, 116357, Note_off_c, 10, 81, 127
2, 116359, Note_on_c, 12, 83, 127
2, 116359, Note_on_c, 1, 61, 127
2, 116549, Note_on_c, 4, 64, 127
2, 116582, Note_on_c, 10, 81, 127
2, 116583, Note_off_c, 12, 83, 127
2, 116652, Note_off_c, 10, 81, 127
2, 116655, Note_on_c, 12, 83, 127
2, 116727, Note_off_c, 12, 83, 127
2, 116728, Note_on_c, 10, 81, 127
2, 116735, Note_off_c, 1, 61, 127
2, 116739, Note_on_c, 12, 59, 127
2, 116799, Note_on_c, 12, 83, 127
2, 116801, Note_off_c, 10, 81, 127
2, 116873, Note_off_c, 12, 83, 127
2, 116876, Note_on_c, 10, 81, 127
2, 116927, Note_off_c, 12, 59, 127
2, 116929, Note_on_c, 10, 57, 127
2, 116957, Note_off_c, 10, 81, 127
2, 116966, Note_on_c, 8, 80, 127
2, 117046, Note_off_c, 8, 80, 127
2, 117048, Note_on_c, 10, 81, 127
2, 117117, Note_off_c, 10, 81, 127
2, 117117, Note_off_c, 10, 57, 127
2, 117119, Note_on_c, 12, 83, 127
2, 117119, Note_on_c, 8, 56, 127
2, 117301, Note_off_c, 4, 76, 127
2, 117309, Note_on_c, 10, 81, 127
2, 117497, Note_off_c, 10, 81, 127
2, 117499, Note_on_c, 8, 80, 127
2, 117687, Note_off_c, 8, 80, 127
2, 117689, Note_on_c, 6, 78, 127
2, 117689, Note_on_c, 10, 57, 127
2, 117877, Note_off_c, 10, 57, 127
2, 117877, Note_off_c, 6, 78, 127
2, 117879, Note_on_c, 4, 76, 127
2, 117879, Note_on_c, 12, 59, 127
2, 118067, Note_off_c, 4, 76, 127
2, 118069, Note_on_c, 2, 74, 127
2, 118257, Note_off_c, 2, 74, 127
2, 118257, Note_off_c, 4, 64, 127
2, 118259, Note_on_c, 1, 73, 127
2, 118259, Note_on_c, 4, 64, 127
2, 118447, Note_off_c, 1, 73, 127
2, 118449, Note_on_c, 12, 71, 127
2, 118631, Note_off_c, 12, 59, 127
2, 118637, Note_off_c, 12, 71, 127
2, 118637, Note_off_c, 8, 56, 127
2, 118639, Note_on_c, 1, 73, 127
2, 118639, Note_on_c, 10, 57, 127
2, 118821, Note_off_c, 12, 83, 127
2, 118829, Note_on_c, 4, 76, 127
2, 119017, Note_off_c, 4, 76, 127
2, 119017, Note_off_c, 10, 57, 127
2, 119019, Note_on_c, 10, 81, 127
2, 119019, Note_on_c, 1, 61, 127
2, 119194, Note_off_c, 1, 73, 127
2, 119208, Note_off_c, 1, 61, 127
2, 119210, Note_on_c, 1, 73, 127
2, 119210, Note_on_c, 10, 57, 127
2, 119396, Note_off_c, 10, 81, 127
2, 119398, Note_off_c, 10, 57, 127
2, 119398, Note_off_c, 1, 73, 127
2, 119398, Note_off_c, 4, 64, 127
2, 119400, Note_on_c, 12, 71, 127
2, 119400, Note_on_c, 4, 64, 127
2, 119590, Note_on_c, 2, 74, 127
2, 119780, Note_on_c, 10, 81, 127
2, 119780, Note_on_c, 4, 52, 127
2, 119968, Note_off_c, 10, 81, 127
2, 119970, Note_on_c, 8, 80, 127
2, 120145, Note_off_c, 2, 74, 127
2, 120153, Note_off_c, 12, 71, 127
2, 120159, Note_off_c, 4, 52, 127
2, 120161, Note_on_c, 1, 73, 127
2, 120161, Note_on_c, 10, 57, 127
2, 120347, Note_off_c, 8, 80, 127
2, 120351, Note_off_c, 4, 64, 127
2, 120351, Note_on_c, 8, 80, 127
2, 120351, Note_on_c, 4, 64, 127
2, 120539, Note_off_c, 4, 64, 127
2, 120539, Note_off_c, 8, 80, 127
2, 120541, Note_on_c, 6, 78, 127
2, 120541, Note_on_c, 6, 66, 127
2, 120729, Note_off_c, 6, 66, 127
2, 120729, Note_off_c, 6, 78, 127
2, 120731, Note_on_c, 4, 76, 127
2, 120731, Note_on_c, 8, 68, 127
2, 120919, Note_off_c, 8, 68, 127
2, 120919, Note_off_c, 4, 76, 127
2, 120921, Note_on_c, 6, 78, 127
2, 120921, Note_on_c, 10, 69, 127
2, 121109, Note_off_c, 6, 78, 127
2, 121111, Note_on_c, 10, 81, 127
2, 121299, Note_off_c, 10, 81, 127
2, 121299, Note_off_c, 10, 57, 127
2, 121299, Note_off_c, 1, 73, 127
2, 121301, Note_on_c, 1, 73, 127
2, 121301, Note_on_c, 10, 57, 127
2, 121476, Note_off_c, 10, 69, 127
2, 121490, Note_off_c, 1, 73, 127
2, 121492, Note_on_c, 3, 75, 127
2, 121492, Note_on_c, 8, 68, 127
2, 121678, Note_off_c, 10, 57, 127
2, 121680, Note_off_c, 8, 68, 127
2, 121680, Note_off_c, 3, 75, 127
2, 121682, Note_on_c, 4, 76, 127
2, 121682, Note_on_c, 11, 58, 127
2, 121872, Note_on_c, 1, 73, 127
2, 122062, Note_on_c, 11, 70, 127
2, 122252, Note_on_c, 6, 66, 127
2, 122434, Note_off_c, 4, 76, 127
2, 122442, Note_on_c, 4, 76, 127
2, 122630, Note_off_c, 11, 58, 127
2, 122632, Note_on_c, 6, 54, 127
2, 122820, Note_off_c, 6, 54, 127
2, 122822, Note_on_c, 8, 56, 127
2, 123010, Note_off_c, 8, 56, 127
2, 123010, Note_off_c, 4, 76, 127
2, 123012, Note_on_c, 6, 78, 127
2, 123012, Note_on_c, 11, 58, 127
2, 123198, Note_off_c, 1, 73, 127
2, 123200, Note_off_c, 11, 58, 127
2, 123200, Note_off_c, 6, 78, 127
2, 123200, Note_off_c, 11, 70, 127
2, 123202, Note_on_c, 3, 75, 127
2, 123202, Note_on_c, 12, 59, 127
2, 123392, Note_on_c, 1, 73, 127
2, 123580, Note_off_c, 1, 73, 127
2, 123582, Note_on_c, 12, 71, 127
2, 123770, Note_off_c, 12, 71, 127
2, 123772, Note_on_c, 11, 70, 127
2, 123960, Note_off_c, 11, 70, 127
2, 123962, Note_on_c, 12, 71, 127
2, 124150, Note_off_c, 12, 59, 127
2, 124152, Note_on_c, 1, 61, 127
2, 124340, Note_off_c, 1, 61, 127
2, 124342, Note_on_c, 6, 54, 127
2, 124530, Note_off_c, 6, 54, 127
2, 124532, Note_on_c, 8, 56, 127
2, 124720, Note_off_c, 8, 56, 127
2, 124722, Note_on_c, 10, 57, 127
2, 124912, Note_on_c, 6, 54, 127
2, 125102, Note_on_c, 3, 51, 127
2, 125292, Note_on_c, 12, 47, 127
2, 125419, Note_off_c, 6, 66, 127
2, 125467, Note_off_c, 6, 54, 127
2, 125475, Note_off_c, 10, 57, 127
2, 125479, Note_off_c, 3, 51, 127
2, 125479, Note_off_c, 3, 75, 127
2, 125481, Note_off_c, 12, 47, 127
2, 125481, Note_off_c, 12, 71, 127
2, 125483, Note_on_c, 12, 71, 127
2, 125483, Note_on_c, 2, 74, 127
2, 125483, Note_on_c, 8, 56, 127
2, 125576, Note_off_c, 2, 74, 127
2, 125578, Note_on_c, 1, 73, 127
2, 125671, Note_off_c, 1, 73, 127
2, 125673, Note_on_c, 2, 74, 127
2, 125673, Note_on_c, 12, 59, 127
2, 125863, Note_on_c, 4, 64, 127
2, 126051, Note_off_c, 2, 74, 127
2, 126053, Note_on_c, 4, 76, 127
2, 126228, Note_off_c, 12, 59, 127
2, 126236, Note_off_c, 8, 56, 127
2, 126242, Note_off_c, 4, 76, 127
2, 126244, Note_on_c, 1, 73, 127
2, 126244, Note_on_c, 10, 57, 127
2, 126434, Note_off_c, 12, 71, 127
2, 126434, Note_on_c, 12, 71, 127
2, 126622, Note_off_c, 12, 71, 127
2, 126622, Note_off_c, 10, 57, 127
2, 126624, Note_on_c, 10, 69, 127
2, 126624, Note_on_c, 8, 56, 127
2, 126812, Note_off_c, 10, 69, 127
2, 126814, Note_on_c, 8, 68, 127
2, 126996, Note_off_c, 1, 73, 127
2, 127002, Note_off_c, 8, 68, 127
2, 127002, Note_off_c, 8, 56, 127
2, 127002, Note_off_c, 4, 64, 127
2, 127004, Note_on_c, 10, 69, 127
2, 127004, Note_on_c, 6, 54, 127
2, 127192, Note_off_c, 10, 69, 127
2, 127194, Note_on_c, 1, 73, 127
2, 127382, Note_off_c, 1, 73, 127
2, 127382, Note_off_c, 6, 54, 127
2, 127384, Note_on_c, 6, 66, 127
2, 127384, Note_on_c, 4, 52, 127
2, 127572, Note_off_c, 6, 66, 127
2, 127574, Note_on_c, 8, 68, 127
2, 127762, Note_off_c, 8, 68, 127
2, 127762, Note_off_c, 4, 52, 127
2, 127764, Note_on_c, 10, 69, 127
2, 127764, Note_on_c, 3, 51, 127
2, 127954, Note_on_c, 6, 66, 127
2, 128142, Note_off_c, 3, 51, 127
2, 128144, Note_on_c, 3, 63, 127
2, 128144, Note_on_c, 12, 47, 127
2, 128334, Note_on_c, 12, 59, 127
2, 128509, Note_off_c, 6, 66, 127
2, 128517, Note_off_c, 10, 69, 127
2, 128521, Note_off_c, 3, 63, 127
2, 128523, Note_off_c, 12, 59, 127
2, 128523, Note_off_c, 12, 47, 127
2, 128525, Note_on_c, 8, 68, 127
2, 128525, Note_on_c, 4, 52, 127
2, 128715, Note_on_c, 12, 59, 127
2, 128903, Note_off_c, 12, 59, 127
2, 128905, Note_on_c, 4, 64, 127
2, 128905, Note_on_c, 4, 40, 127
2, 129080, Note_off_c, 8, 68, 127
2, 129096, Note_on_c, 8, 68, 127
2, 129282, Note_off_c, 4, 64, 127
2, 129284, Note_off_c, 4, 40, 127
2, 129286, Note_on_c, 1, 61, 127
2, 129286, Note_on_c, 10, 45, 127
2, 129472, Note_off_c, 8, 68, 127
2, 129476, Note_off_c, 4, 52, 127
2, 129476, Note_on_c, 8, 68, 127
2, 129476, Note_on_c, 4, 52, 127
2, 129664, Note_off_c, 4, 52, 127
2, 129664, Note_off_c, 8, 68, 127
2, 129666, Note_on_c, 6, 66, 127
2, 129666, Note_on_c, 6, 54, 127
2, 129854, Note_off_c, 6, 54, 127
2, 129854, Note_off_c, 6, 66, 127
2, 129856, Note_on_c, 4, 64, 127
2, 129856, Note_on_c, 8, 56, 127
2, 130044, Note_off_c, 8, 56, 127
2, 130044, Note_off_c, 4, 64, 127
2, 130046, Note_on_c, 6, 66, 127
2, 130046, Note_on_c, 10, 57, 127
2, 130234, Note_off_c, 6, 66, 127
2, 130236, Note_on_c, 10, 69, 127
2, 130424, Note_off_c, 10, 69, 127
2, 130424, Note_off_c, 10, 45, 127
2, 130424, Note_off_c, 1, 61, 127
2, 130426, Note_on_c, 1, 61, 127
2, 130426, Note_on_c, 10, 45, 127
2, 130601, Note_off_c, 10, 57, 127
2, 130615, Note_off_c, 1, 61, 127
2, 130617, Note_on_c, 12, 59, 127
2, 130617, Note_on_c, 3, 63, 127
2, 130805, Note_off_c, 3, 63, 127
2, 130805, Note_off_c, 12, 59, 127
2, 130805, Note_off_c, 10, 45, 127
2, 130807, Note_on_c, 4, 64, 127
2, 130807, Note_on_c, 11, 46, 127
2, 130997, Note_on_c, 1, 61, 127
2, 131187, Note_on_c, 11, 58, 127
2, 131377, Note_on_c, 6, 54, 127
2, 131559, Note_off_c, 4, 64, 127
2, 131567, Note_on_c, 4, 64, 127
2, 131755, Note_off_c, 11, 46, 127
2, 131757, Note_on_c, 6, 42, 127
2, 131945, Note_off_c, 6, 42, 127
2, 131947, Note_on_c, 8, 44, 127
2, 132135, Note_off_c, 8, 44, 127
2, 132135, Note_off_c, 4, 64, 127
2, 132137, Note_on_c, 6, 66, 127
2, 132137, Note_on_c, 11, 46, 127
2, 132323, Note_off_c, 1, 61, 127
2, 132325, Note_off_c, 11, 46, 127
2, 132325, Note_off_c, 6, 66, 127
2, 132325, Note_off_c, 11, 58, 127
2, 132327, Note_off_c, 6, 54, 127
2, 132327, Note_on_c, 4, 64, 127
2, 132327, Note_on_c, 12, 35, 127
2, 132454, Note_off_c, 4, 64, 127
2, 132454, Note_on_c, 3, 63, 127
2, 132515, Note_off_c, 3, 63, 127
2, 132515, Note_off_c, 12, 35, 127
2, 132517, Note_on_c, 4, 64, 127
2, 132517, Note_on_c, 12, 47, 127
2, 132578, Note_off_c, 4, 64, 127
2, 132580, Note_on_c, 3, 63, 127
2, 132641, Note_off_c, 3, 63, 127
2, 132643, Note_on_c, 4, 64, 127
2, 132704, Note_off_c, 4, 64, 127
2, 132706, Note_on_c, 3, 63, 127
2, 132706, Note_on_c, 3, 51, 127
2, 132896, Note_on_c, 6, 54, 127
2, 133084, Note_off_c, 3, 63, 127
2, 133086, Note_on_c, 12, 59, 127
2, 133276, Note_on_c, 3, 63, 127
2, 133464, Note_off_c, 3, 63, 127
2, 133466, Note_on_c, 6, 66, 127
2, 133654, Note_off_c, 6, 66, 127
2, 133656, Note_on_c, 12, 71, 127
2, 133838, Note_off_c, 12, 59, 127
2, 133844, Note_off_c, 6, 54, 127
2, 133844, Note_off_c, 3, 51, 127
2, 133846, Note_on_c, 1, 61, 127
2, 133846, Note_on_c, 4, 52, 127
2, 134032, Note_off_c, 12, 71, 127
2, 134036, Note_on_c, 12, 71, 127
2, 134224, Note_off_c, 12, 71, 127
2, 134226, Note_on_c, 11, 70, 127
2, 134414, Note_off_c, 11, 70, 127
2, 134416, Note_on_c, 8, 68, 127
2, 134604, Note_off_c, 8, 68, 127
2, 134606, Note_on_c, 11, 70, 127
2, 134794, Note_off_c, 11, 70, 127
2, 134796, Note_on_c, 1, 73, 127
2, 134984, Note_off_c, 1, 73, 127
2, 134986, Note_on_c, 6, 66, 127
2, 135174, Note_off_c, 6, 66, 127
2, 135176, Note_on_c, 8, 68, 127
2, 135364, Note_off_c, 8, 68, 127
2, 135364, Note_off_c, 4, 52, 127
2, 135364, Note_off_c, 1, 61, 127
2, 135366, Note_on_c, 10, 69, 127
2, 135366, Note_on_c, 6, 54, 127
2, 135556, Note_on_c, 6, 66, 127
2, 135746, Note_on_c, 3, 63, 127
2, 135936, Note_on_c, 12, 59, 127
2, 136023, Note_off_c, 3, 63, 127
2, 136124, Note_off_c, 6, 54, 127
2, 136126, Note_on_c, 8, 56, 127
2, 136314, Note_off_c, 12, 59, 127
2, 136316, Note_on_c, 12, 59, 127
2, 136504, Note_off_c, 10, 69, 127
2, 136506, Note_off_c, 6, 66, 127
2, 136506, Note_on_c, 8, 68, 127
2, 136506, Note_on_c, 4, 64, 127
2, 136694, Note_off_c, 8, 56, 127
2, 136696, Note_on_c, 11, 58, 127
2, 136871, Note_off_c, 12, 59, 127
2, 136885, Note_off_c, 11, 58, 127
2, 136885, Note_off_c, 8, 68, 127
2, 136887, Note_on_c, 6, 66, 127
2, 136887, Note_on_c, 12, 59, 127
2, 137062, Note_off_c, 4, 64, 127
2, 137078, Note_on_c, 4, 64, 127
2, 137266, Note_off_c, 4, 64, 127
2, 137268, Note_on_c, 3, 63, 127
2, 137456, Note_off_c, 3, 63, 127
2, 137458, Note_on_c, 1, 61, 127
2, 137646, Note_off_c, 1, 61, 127
2, 137648, Note_on_c, 3, 63, 127
2, 137836, Note_off_c, 12, 59, 127
2, 137838, Note_on_c, 1, 61, 127
2, 138026, Note_off_c, 1, 61, 127
2, 138028, Note_on_c, 6, 54, 127
2, 138216, Note_off_c, 6, 54, 127
2, 138218, Note_on_c, 8, 56, 127
2, 138406, Note_off_c, 8, 56, 127
2, 138408, Note_on_c, 10, 57, 127
2, 138596, Note_off_c, 10, 57, 127
2, 138598, Note_on_c, 6, 54, 127
2, 138788, Note_on_c, 3, 51, 127
2, 138851, Note_off_c, 12, 47, 127
2, 138978, Note_on_c, 12, 47, 127
2, 139153, Note_off_c, 6, 54, 127
2, 139165, Note_off_c, 3, 51, 127
2, 139169, Note_on_c, 8, 56, 127
2, 139357, Note_off_c, 3, 63, 127
2, 139359, Note_on_c, 12, 59, 127
2, 139502, Note_off_c, 6, 66, 127
2, 139548, Note_off_c, 8, 56, 127
2, 139550, Note_on_c, 4, 64, 127
2, 139550, Note_on_c, 7, 55, 127
2, 139736, Note_off_c, 12, 59, 127
2, 139740, Note_on_c, 11, 58, 127
2, 139928, Note_off_c, 11, 58, 127
2, 139928, Note_off_c, 7, 55, 127
2, 139930, Note_on_c, 12, 59, 127
2, 139930, Note_on_c, 6, 54, 127
2, 140009, Note_off_c, 4, 64, 127
2, 140041, Note_on_c, 6, 66, 127
2, 140134, Note_off_c, 6, 66, 127
2, 140136, Note_on_c, 8, 68, 127
2, 140229, Note_off_c, 8, 68, 127
2, 140231, Note_on_c, 10, 69, 127
2, 140308, Note_off_c, 6, 54, 127
2, 140324, Note_off_c, 10, 69, 127
2, 140326, Note_on_c, 4, 52, 127
2, 140326, Note_on_c, 8, 68, 127
2, 140419, Note_off_c, 8, 68, 127
2, 140421, Note_on_c, 6, 66, 127
2, 140514, Note_off_c, 6, 66, 127
2, 140516, Note_on_c, 8, 68, 127
2, 140609, Note_off_c, 8, 68, 127
2, 140611, Note_on_c, 10, 69, 127
2, 140704, Note_off_c, 10, 69, 127
2, 140704, Note_off_c, 4, 52, 127
2, 140706, Note_on_c, 6, 54, 127
2, 140706, Note_on_c, 4, 64, 127
2, 140831, Note_off_c, 4, 64, 127
2, 140833, Note_on_c, 3, 63, 127
2, 140894, Note_off_c, 3, 63, 127
2, 140894, Note_off_c, 6, 54, 127
2, 140896, Note_on_c, 8, 56, 127
2, 140896, Note_on_c, 4, 64, 127
2, 140957, Note_off_c, 4, 64, 127
2, 140959, Note_on_c, 3, 63, 127
2, 141020, Note_off_c, 3, 63, 127
2, 141022, Note_on_c, 4, 64, 127
2, 141083, Note_off_c, 4, 64, 127
2, 141083, Note_off_c, 8, 56, 127
2, 141085, Note_on_c, 10, 57, 127
2, 141085, Note_on_c, 3, 63, 127
2, 141273, Note_off_c, 3, 63, 127
2, 141275, Note_on_c, 4, 64, 127
2, 141354, Note_off_c, 12, 47, 127
2, 141463, Note_off_c, 4, 64, 127
2, 141465, Note_on_c, 4, 52, 127
2, 141465, Note_on_c, 4, 64, 127
2, 141631, Note_off_c, 12, 59, 127
2, 141655, Note_on_c, 12, 59, 127
2, 141837, Note_off_c, 10, 57, 127
2, 141843, Note_off_c, 12, 59, 127
2, 141845, Note_on_c, 8, 56, 127
2, 141845, Note_on_c, 1, 61, 127
2, 142033, Note_off_c, 1, 61, 127
2, 142035, Note_on_c, 2, 62, 127
2, 142223, Note_off_c, 2, 62, 127
2, 142225, Note_on_c, 1, 61, 127
2, 142413, Note_off_c, 8, 56, 127
2, 142415, Note_on_c, 10, 57, 127
2, 142603, Note_off_c, 10, 57, 127
2, 142605, Note_on_c, 6, 54, 127
2, 142785, Note_off_c, 4, 64, 127
2, 142793, Note_off_c, 1, 61, 127
2, 142795, Note_on_c, 10, 57, 127
2, 142795, Note_on_c, 3, 63, 127
2, 142795, Note_on_c, 0, 60, 127
2, 142983, Note_off_c, 0, 60, 127
2, 142983, Note_off_c, 3, 63, 127
2, 142983, Note_off_c, 10, 57, 127
2, 142983, Note_off_c, 6, 54, 127
2, 142983, Note_off_c, 4, 52, 127
2, 142985, Note_on_c, 4, 52, 127
2, 142985, Note_on_c, 8, 56, 127
2, 142985, Note_on_c, 12, 59, 127
2, 142985, Note_on_c, 4, 64, 127
2, 143175, Note_on_c, 4, 40, 127
2, 143365, Note_on_c, 8, 44, 127
2, 143553, Note_off_c, 8, 44, 127
2, 143555, Note_on_c, 12, 47, 127
2, 143737, Note_off_c, 4, 52, 127
2, 143745, Note_on_c, 4, 52, 127
2, 144304, Note_off_c, 4, 64, 127
2, 144304, Note_off_c, 12, 59, 127
2, 144304, Note_off_c, 8, 56, 127
2, 144316, Note_on_c, 12, 71, 127
2, 144491, Note_off_c, 12, 47, 127
2, 144499, Note_off_c, 4, 52, 127
2, 144503, Note_off_c, 4, 40, 127
2, 144505, Note_off_c, 12, 71, 127
2, 144507, Note_on_c, 12, 71, 127
2, 144697, Note_on_c, 4, 52, 127
2, 144887, Note_on_c, 8, 56, 127
2, 145077, Note_on_c, 12, 59, 127
2, 145267, Note_on_c, 4, 64, 127
2, 145457, Note_on_c, 8, 68, 127
2, 145645, Note_off_c, 12, 71, 127
2, 145647, Note_on_c, 12, 71, 127
2, 145837, Note_on_c, 4, 76, 127
2, 146012, Note_off_c, 8, 68, 127
2, 146020, Note_off_c, 4, 64, 127
2, 146024, Note_off_c, 12, 71, 127
2, 146026, Note_off_c, 4, 76, 127
2, 146026, Note_off_c, 8, 56, 127
2, 146028, Note_off_c, 12, 59, 127
2, 146028, Note_on_c, 12, 71, 127
2, 146028, Note_on_c, 6, 66, 127
2, 146028, Note_on_c, 1, 61, 127
2, 146153, Note_off_c, 12, 71, 127
2, 146155, Note_on_c, 11, 70, 127
2, 146216, Note_off_c, 11, 70, 127
2, 146216, Note_off_c, 4, 52, 127
2, 146218, Note_on_c, 7, 55, 127
2, 146218, Note_on_c, 12, 71, 127
2, 146279, Note_off_c, 12, 71, 127
2, 146281, Note_on_c, 11, 70, 127
2, 146342, Note_off_c, 11, 70, 127
2, 146344, Note_on_c, 12, 71, 127
2, 146405, Note_off_c, 12, 71, 127
2, 146405, Note_off_c, 7, 55, 127
2, 146407, Note_on_c, 1, 49, 127
2, 146407, Note_on_c, 11, 70, 127
2, 146468, Note_off_c, 11, 70, 127
2, 146470, Note_on_c, 12, 71, 127
2, 146531, Note_off_c, 12, 71, 127
2, 146533, Note_on_c, 11, 70, 127
2, 146594, Note_off_c, 1, 49, 127
2, 146596, Note_on_c, 4, 52, 127
2, 146784, Note_off_c, 4, 52, 127
2, 146786, Note_on_c, 11, 46, 127
2, 146974, Note_off_c, 11, 46, 127
2, 146976, Note_on_c, 1, 49, 127
2, 147164, Note_off_c, 1, 49, 127
2, 147166, Note_on_c, 6, 42, 127
2, 147354, Note_off_c, 6, 42, 127
2, 147356, Note_on_c, 4, 52, 127
2, 147544, Note_off_c, 4, 52, 127
2, 147546, Note_on_c, 2, 50, 127
2, 147671, Note_off_c, 11, 70, 127
2, 147736, Note_on_c, 6, 54, 127
2, 147926, Note_on_c, 11, 58, 127
2, 148114, Note_off_c, 6, 66, 127
2, 148116, Note_on_c, 4, 64, 127
2, 148291, Note_off_c, 6, 54, 127
2, 148303, Note_off_c, 11, 58, 127
2, 148303, Note_off_c, 1, 61, 127
2, 148305, Note_off_c, 4, 64, 127
2, 148307, Note_on_c, 12, 59, 127
2, 148307, Note_on_c, 2, 62, 127
2, 148497, Note_on_c, 6, 66, 127
2, 148685, Note_off_c, 2, 50, 127
2, 148687, Note_on_c, 6, 54, 127
2, 148687, Note_on_c, 2, 50, 127
2, 148687, Note_on_c, 12, 71, 127
2, 148877, Note_on_c, 2, 74, 127
2, 149052, Note_off_c, 6, 66, 127
2, 149060, Note_off_c, 2, 62, 127
2, 149064, Note_off_c, 12, 71, 127
2, 149066, Note_off_c, 2, 74, 127
2, 149066, Note_off_c, 2, 50, 127
2, 149066, Note_off_c, 6, 54, 127
2, 149068, Note_on_c, 1, 49, 127
2, 149068, Note_on_c, 7, 55, 127
2, 149068, Note_on_c, 4, 76, 127
2, 149256, Note_off_c, 4, 76, 127
2, 149258, Note_on_c, 7, 79, 127
2, 149446, Note_off_c, 7, 79, 127
2, 149446, Note_off_c, 7, 55, 127
2, 149446, Note_off_c, 12, 59, 127
2, 149448, Note_on_c, 4, 52, 127
2, 149448, Note_on_c, 7, 55, 127
2, 149448, Note_on_c, 1, 73, 127
2, 149636, Note_off_c, 1, 73, 127
2, 149638, Note_on_c, 4, 76, 127
2, 149820, Note_off_c, 1, 49, 127
2, 149826, Note_off_c, 4, 76, 127
2, 149826, Note_off_c, 7, 55, 127
2, 149826, Note_off_c, 4, 52, 127
2, 149828, Note_on_c, 6, 54, 127
2, 149828, Note_on_c, 11, 70, 127
2, 150016, Note_off_c, 11, 70, 127
2, 150018, Note_on_c, 1, 73, 127
2, 150206, Note_off_c, 1, 73, 127
2, 150208, Note_on_c, 6, 42, 127
2, 150208, Note_on_c, 6, 66, 127
2, 150398, Note_on_c, 4, 76, 127
2, 150580, Note_off_c, 6, 54, 127
2, 150586, Note_off_c, 4, 76, 127
2, 150586, Note_off_c, 6, 42, 127
2, 150588, Note_on_c, 12, 47, 127
2, 150588, Note_on_c, 2, 74, 127
2, 150763, Note_off_c, 6, 66, 127
2, 150779, Note_on_c, 6, 66, 127
2, 150967, Note_off_c, 6, 66, 127
2, 150969, Note_on_c, 8, 68, 127
2, 151157, Note_off_c, 8, 68, 127
2, 151159, Note_on_c, 11, 70, 127
2, 151341, Note_off_c, 2, 74, 127
2, 151347, Note_off_c, 11, 70, 127
2, 151349, Note_on_c, 12, 71, 127
2, 151539, Note_on_c, 2, 74, 127
2, 151727, Note_off_c, 2, 74, 127
2, 151729, Note_on_c, 7, 67, 127
2, 151918, Note_off_c, 12, 71, 127
2, 151919, Note_on_c, 12, 71, 127
2, 152105, Note_off_c, 7, 67, 127
2, 152107, Note_off_c, 12, 71, 127
2, 152109, Note_on_c, 5, 65, 127
2, 152109, Note_on_c, 1, 73, 127
2, 152109, Note_on_c, 8, 68, 127
2, 152297, Note_off_c, 12, 47, 127
2, 152299, Note_on_c, 2, 50, 127
2, 152487, Note_off_c, 2, 50, 127
2, 152489, Note_on_c, 8, 44, 127
2, 152677, Note_off_c, 8, 44, 127
2, 152679, Note_on_c, 12, 47, 127
2, 152867, Note_off_c, 12, 47, 127
2, 152869, Note_on_c, 5, 41, 127
2, 153057, Note_off_c, 5, 41, 127
2, 153059, Note_on_c, 8, 44, 127
2, 153247, Note_off_c, 8, 44, 127
2, 153249, Note_on_c, 1, 37, 127
2, 153437, Note_off_c, 1, 37, 127
2, 153439, Note_on_c, 12, 47, 127
2, 153627, Note_off_c, 12, 47, 127
2, 153627, Note_off_c, 8, 68, 127
2, 153627, Note_off_c, 5, 65, 127
2, 153629, Note_on_c, 10, 45, 127
2, 153629, Note_on_c, 10, 69, 127
2, 153629, Note_on_c, 6, 66, 127
2, 153819, Note_on_c, 1, 49, 127
2, 154009, Note_on_c, 6, 54, 127
2, 154199, Note_on_c, 10, 57, 127
2, 154374, Note_off_c, 1, 49, 127
2, 154386, Note_off_c, 6, 54, 127
2, 154386, Note_off_c, 1, 73, 127
2, 154388, Note_off_c, 10, 57, 127
2, 154388, Note_off_c, 6, 66, 127
2, 154388, Note_off_c, 10, 69, 127
2, 154390, Note_on_c, 3, 51, 127
2, 154390, Note_on_c, 12, 59, 127
2, 154580, Note_on_c, 3, 63, 127
2, 154768, Note_off_c, 3, 51, 127
2, 154768, Note_off_c, 10, 45, 127
2, 154770, Note_on_c, 10, 45, 127
2, 154770, Note_on_c, 6, 66, 127
2, 154960, Note_on_c, 12, 71, 127
2, 155135, Note_off_c, 3, 63, 127
2, 155143, Note_off_c, 12, 59, 127
2, 155147, Note_off_c, 6, 66, 127
2, 155149, Note_off_c, 10, 45, 127
2, 155151, Note_on_c, 8, 44, 127
2, 155151, Note_on_c, 5, 65, 127
2, 155337, Note_off_c, 12, 71, 127
2, 155339, Note_off_c, 8, 44, 127
2, 155341, Note_on_c, 1, 49, 127
2, 155341, Note_on_c, 8, 68, 127
2, 155527, Note_off_c, 5, 65, 127
2, 155529, Note_off_c, 8, 68, 127
2, 155529, Note_off_c, 1, 49, 127
2, 155531, Note_on_c, 3, 51, 127
2, 155531, Note_on_c, 1, 73, 127
2, 155719, Note_off_c, 1, 73, 127
2, 155719, Note_off_c, 3, 51, 127
2, 155721, Note_on_c, 5, 53, 127
2, 155721, Note_on_c, 12, 71, 127
2, 155909, Note_off_c, 12, 71, 127
2, 155909, Note_off_c, 5, 53, 127
2, 155911, Note_on_c, 6, 54, 127
2, 155911, Note_on_c, 10, 69, 127
2, 156099, Note_off_c, 6, 54, 127
2, 156101, Note_on_c, 5, 53, 127
2, 156101, Note_on_c, 6, 66, 127
2, 156287, Note_off_c, 10, 69, 127
2, 156289, Note_off_c, 5, 53, 127
2, 156291, Note_on_c, 6, 54, 127
2, 156291, Note_on_c, 2, 74, 127
2, 156477, Note_off_c, 6, 66, 127
2, 156479, Note_off_c, 6, 54, 127
2, 156481, Note_on_c, 8, 56, 127
2, 156481, Note_on_c, 5, 65, 127
2, 156667, Note_off_c, 2, 74, 127
2, 156669, Note_off_c, 5, 65, 127
2, 156669, Note_off_c, 8, 56, 127
2, 156671, Note_on_c, 10, 57, 127
2, 156671, Note_on_c, 1, 73, 127
2, 156859, Note_off_c, 10, 57, 127
2, 156861, Note_on_c, 8, 56, 127
2, 156861, Note_on_c, 5, 65, 127
2, 157049, Note_off_c, 5, 65, 127
2, 157049, Note_off_c, 8, 56, 127
2, 157051, Note_on_c, 10, 57, 127
2, 157051, Note_on_c, 6, 66, 127
2, 157226, Note_off_c, 1, 73, 127
2, 157240, Note_off_c, 10, 57, 127
2, 157242, Note_on_c, 12, 59, 127
2, 157242, Note_on_c, 8, 68, 127
2, 157430, Note_off_c, 8, 68, 127
2, 157430, Note_off_c, 12, 59, 127
2, 157432, Note_on_c, 1, 61, 127
2, 157432, Note_on_c, 10, 69, 127
2, 157607, Note_off_c, 6, 66, 127
2, 157623, Note_on_c, 6, 66, 127
2, 157809, Note_off_c, 10, 69, 127
2, 157811, Note_off_c, 1, 61, 127
2, 157813, Note_on_c, 1, 49, 127
2, 157813, Note_on_c, 8, 68, 127
2, 157999, Note_off_c, 6, 66, 127
2, 158003, Note_on_c, 5, 65, 127
2, 158189, Note_off_c, 8, 68, 127
2, 158191, Note_off_c, 5, 65, 127
2, 158191, Note_off_c, 1, 49, 127
2, 158193, Note_on_c, 6, 54, 127
2, 158193, Note_on_c, 6, 66, 127
2, 158389, Note_on_c, 10, 57, 127
2, 158389, Note_on_c, 1, 73, 127
2, 158421, Note_off_c, 6, 66, 127
2, 158577, Note_off_c, 1, 73, 127
2, 158577, Note_off_c, 10, 57, 127
2, 158589, Note_on_c, 6, 78, 127
2, 158589, Note_on_c, 1, 61, 127
2, 158777, Note_off_c, 1, 61, 127
2, 158777, Note_off_c, 6, 78, 127
2, 158779, Note_on_c, 8, 80, 127
2, 158779, Note_on_c, 5, 65, 127
2, 158945, Note_off_c, 6, 54, 127
2, 158967, Note_off_c, 5, 65, 127
2, 158967, Note_off_c, 8, 80, 127
2, 158969, Note_on_c, 10, 81, 127
2, 158969, Note_on_c, 6, 66, 127
2, 159062, Note_off_c, 10, 81, 127
2, 159064, Note_on_c, 8, 80, 127
2, 159157, Note_off_c, 8, 80, 127
2, 159157, Note_off_c, 6, 66, 127
2, 159159, Note_on_c, 10, 81, 127
2, 159159, Note_on_c, 10, 69, 127
2, 159347, Note_off_c, 10, 69, 127
2, 159349, Note_on_c, 2, 62, 127
2, 159349, Note_on_c, 6, 54, 127
2, 159537, Note_off_c, 2, 62, 127
2, 159537, Note_off_c, 10, 81, 127
2, 159539, Note_on_c, 10, 81, 127
2, 159539, Note_on_c, 6, 66, 127
2, 159725, Note_off_c, 6, 54, 127
2, 159727, Note_off_c, 6, 66, 127
2, 159727, Note_off_c, 10, 81, 127
2, 159729, Note_on_c, 10, 81, 127
2, 159729, Note_on_c, 8, 56, 127
2, 159729, Note_on_c, 0, 60, 127
2, 159917, Note_off_c, 10, 81, 127
2, 159919, Note_on_c, 6, 78, 127
2, 160107, Note_off_c, 6, 78, 127
2, 160109, Note_on_c, 3, 75, 127
2, 160297, Note_off_c, 3, 75, 127
2, 160299, Note_on_c, 6, 78, 127
2, 160481, Note_off_c, 0, 60, 127
2, 160487, Note_off_c, 6, 78, 127
2, 160489, Note_on_c, 0, 72, 127
2, 160677, Note_off_c, 0, 72, 127
2, 160677, Note_off_c, 8, 56, 127
2, 160679, Note_on_c, 3, 75, 127
2, 160679, Note_on_c, 8, 56, 127
2, 160867, Note_off_c, 8, 56, 127
2, 160867, Note_off_c, 3, 75, 127
2, 160869, Note_on_c, 8, 68, 127
2, 160869, Note_on_c, 11, 58, 127
2, 161057, Note_off_c, 11, 58, 127
2, 161057, Note_off_c, 8, 68, 127
2, 161059, Note_on_c, 6, 78, 127
2, 161059, Note_on_c, 0, 60, 127
2, 161247, Note_off_c, 0, 60, 127
2, 161247, Note_off_c, 6, 78, 127
2, 161249, Note_on_c, 4, 76, 127
2, 161249, Note_on_c, 1, 61, 127
2, 161437, Note_off_c, 1, 61, 127
2, 161439, Note_on_c, 3, 75, 127
2, 161439, Note_on_c, 4, 64, 127
2, 161627, Note_off_c, 4, 64, 127
2, 161627, Note_off_c, 3, 75, 127
2, 161629, Note_on_c, 1, 73, 127
2, 161629, Note_on_c, 10, 57, 127
2, 161817, Note_off_c, 10, 57, 127
2, 161817, Note_off_c, 1, 73, 127
2, 161819, Note_on_c, 12, 71, 127
2, 161819, Note_on_c, 1, 61, 127
2, 162007, Note_off_c, 1, 61, 127
2, 162007, Note_off_c, 12, 71, 127
2, 162009, Note_on_c, 10, 69, 127
2, 162009, Note_on_c, 6, 54, 127
2, 162197, Note_off_c, 6, 54, 127
2, 162199, Note_off_c, 4, 76, 127
2, 162199, Note_on_c, 4, 76, 127
2, 162199, Note_on_c, 10, 57, 127
2, 162387, Note_off_c, 10, 57, 127
2, 162387, Note_off_c, 4, 76, 127
2, 162389, Note_on_c, 3, 75, 127
2, 162389, Note_on_c, 3, 51, 127
2, 162577, Note_off_c, 3, 51, 127
2, 162577, Note_off_c, 3, 75, 127
2, 162579, Note_on_c, 1, 73, 127
2, 162579, Note_on_c, 6, 54, 127
2, 162767, Note_off_c, 6, 54, 127
2, 162767, Note_off_c, 1, 73, 127
2, 162769, Note_on_c, 0, 72, 127
2, 162769, Note_on_c, 8, 44, 127
2, 162959, Note_off_c, 10, 69, 127
2, 162959, Note_on_c, 8, 68, 127
2, 162959, Note_on_c, 3, 51, 127
2, 163145, Note_off_c, 0, 72, 127
2, 163147, Note_off_c, 3, 51, 127
2, 163149, Note_on_c, 11, 70, 127
2, 163149, Note_on_c, 8, 56, 127
2, 163337, Note_off_c, 8, 56, 127
2, 163337, Note_off_c, 11, 70, 127
2, 163339, Note_on_c, 0, 72, 127
2, 163339, Note_on_c, 6, 54, 127
2, 163521, Note_off_c, 8, 44, 127
2, 163527, Note_off_c, 6, 54, 127
2, 163527, Note_off_c, 0, 72, 127
2, 163529, Note_on_c, 1, 73, 127
2, 163529, Note_on_c, 4, 52, 127
2, 163717, Note_off_c, 1, 73, 127
2, 163719, Note_on_c, 0, 72, 127
2, 163719, Note_on_c, 1, 61, 127
2, 163905, Note_off_c, 4, 52, 127
2, 163907, Note_off_c, 0, 72, 127
2, 163909, Note_on_c, 1, 73, 127
2, 163909, Note_on_c, 3, 51, 127
2, 164095, Note_off_c, 1, 61, 127
2, 164097, Note_off_c, 1, 73, 127
2, 164099, Note_on_c, 3, 75, 127
2, 164099, Note_on_c, 0, 60, 127
2, 164278, Note_off_c, 8, 68, 127
2, 164286, Note_off_c, 3, 51, 127
2, 164288, Note_off_c, 0, 60, 127
2, 164288, Note_off_c, 3, 75, 127
2, 164290, Note_on_c, 4, 76, 127
2, 164290, Note_on_c, 1, 49, 127
2, 164478, Note_off_c, 1, 49, 127
2, 164478, Note_off_c, 4, 76, 127
2, 164480, Note_on_c, 6, 78, 127
2, 164480, Note_on_c, 3, 51, 127
2, 164668, Note_off_c, 3, 51, 127
2, 164668, Note_off_c, 6, 78, 127
2, 164670, Note_on_c, 8, 80, 127
2, 164670, Note_on_c, 4, 52, 127
2, 164858, Note_off_c, 4, 52, 127
2, 164858, Note_off_c, 8, 80, 127
2, 164860, Note_on_c, 10, 81, 127
2, 164860, Note_on_c, 6, 54, 127
2, 165048, Note_off_c, 6, 54, 127
2, 165048, Note_off_c, 10, 81, 127
2, 165050, Note_on_c, 4, 76, 127
2, 165050, Note_on_c, 0, 72, 127
2, 165050, Note_on_c, 8, 56, 127
2, 165175, Note_off_c, 4, 76, 127
2, 165177, Note_on_c, 3, 75, 127
2, 165238, Note_off_c, 3, 75, 127
2, 165240, Note_on_c, 4, 76, 127
2, 165301, Note_off_c, 4, 76, 127
2, 165303, Note_on_c, 3, 75, 127
2, 165364, Note_off_c, 3, 75, 127
2, 165366, Note_on_c, 4, 76, 127
2, 165427, Note_off_c, 4, 76, 127
2, 165429, Note_on_c, 3, 75, 127
2, 165429, Note_on_c, 8, 44, 127
2, 165617, Note_off_c, 3, 75, 127
2, 165619, Note_on_c, 1, 73, 127
2, 165801, Note_off_c, 0, 72, 127
2, 165807, Note_off_c, 1, 73, 127
2, 165807, Note_off_c, 8, 44, 127
2, 165809, Note_on_c, 1, 73, 127
2, 165809, Note_on_c, 1, 49, 127
2, 165999, Note_on_c, 8, 68, 127
2, 166189, Note_on_c, 4, 64, 127
2, 166373, Note_off_c, 8, 56, 127
2, 166384, Note_on_c, 8, 56, 127
2, 166561, Note_off_c, 1, 49, 127
2, 166572, Note_off_c, 8, 56, 127
2, 166579, Note_on_c, 1, 61, 127
2, 166667, Note_on_c, 0, 60, 127
2, 166672, Note_off_c, 1, 61, 127
2, 166743, Note_off_c, 4, 64, 127
2, 166751, Note_off_c, 8, 68, 127
2, 166759, Note_off_c, 1, 73, 127
2, 166759, Note_on_c, 2, 74, 127
2, 166759, Note_on_c, 1, 61, 127
2, 166760, Note_off_c, 0, 60, 127
2, 166947, Note_off_c, 2, 74, 127
2, 166949, Note_on_c, 1, 73, 127
2, 167137, Note_off_c, 1, 73, 127
2, 167137, Note_off_c, 1, 61, 127
2, 167139, Note_on_c, 2, 74, 127
2, 167139, Note_on_c, 12, 59, 127
2, 167327, Note_off_c, 12, 59, 127
2, 167327, Note_off_c, 2, 74, 127
2, 167329, Note_on_c, 4, 76, 127
2, 167329, Note_on_c, 11, 58, 127
2, 167517, Note_off_c, 11, 58, 127
2, 167517, Note_off_c, 4, 76, 127
2, 167519, Note_on_c, 7, 79, 127
2, 167519, Note_on_c, 12, 59, 127
2, 167707, Note_off_c, 12, 59, 127
2, 167707, Note_off_c, 7, 79, 127
2, 167709, Note_on_c, 1, 73, 127
2, 167709, Note_on_c, 11, 58, 127
2, 167897, Note_off_c, 11, 58, 127
2, 167897, Note_off_c, 1, 73, 127
2, 167899, Note_on_c, 4, 76, 127
2, 167899, Note_on_c, 8, 56, 127
2, 168087, Note_off_c, 8, 56, 127
2, 168087, Note_off_c, 4, 76, 127
2, 168089, Note_on_c, 11, 70, 127
2, 168089, Note_on_c, 6, 54, 127
2, 168277, Note_off_c, 6, 54, 127
2, 168277, Note_off_c, 11, 70, 127
2, 168279, Note_on_c, 1, 73, 127
2, 168279, Note_on_c, 4, 52, 127
2, 168467, Note_off_c, 4, 52, 127
2, 168467, Note_off_c, 1, 73, 127
2, 168469, Note_on_c, 6, 66, 127
2, 168469, Note_on_c, 2, 50, 127
2, 168657, Note_off_c, 2, 50, 127
2, 168657, Note_off_c, 6, 66, 127
2, 168659, Note_on_c, 4, 76, 127
2, 168659, Note_on_c, 1, 49, 127
2, 168847, Note_off_c, 1, 49, 127
2, 168847, Note_off_c, 4, 76, 127
2, 168849, Note_on_c, 2, 74, 127
2, 168849, Note_on_c, 12, 47, 127
2, 169039, Note_on_c, 12, 71, 127
2, 169229, Note_on_c, 6, 66, 127
2, 169419, Note_on_c, 6, 54, 127
2, 169601, Note_off_c, 12, 47, 127
2, 169607, Note_off_c, 6, 54, 127
2, 169609, Note_on_c, 12, 59, 127
2, 169702, Note_off_c, 12, 59, 127
2, 169704, Note_on_c, 11, 58, 127
2, 169791, Note_off_c, 12, 71, 127
2, 169797, Note_off_c, 11, 58, 127
2, 169797, Note_off_c, 6, 66, 127
2, 169799, Note_off_c, 2, 74, 127
2, 169799, Note_on_c, 1, 73, 127
2, 169799, Note_on_c, 12, 59, 127
2, 169987, Note_off_c, 1, 73, 127
2, 169989, Note_on_c, 12, 71, 127
2, 170177, Note_off_c, 12, 71, 127
2, 170177, Note_off_c, 12, 59, 127
2, 170179, Note_on_c, 1, 73, 127
2, 170179, Note_on_c, 10, 57, 127
2, 170367, Note_off_c, 10, 57, 127
2, 170367, Note_off_c, 1, 73, 127
2, 170369, Note_on_c, 2, 74, 127
2, 170369, Note_on_c, 8, 56, 127
2, 170557, Note_off_c, 8, 56, 127
2, 170557, Note_off_c, 2, 74, 127
2, 170559, Note_on_c, 4, 76, 127
2, 170559, Note_on_c, 10, 57, 127
2, 170652, Note_off_c, 4, 76, 127
2, 170654, Note_on_c, 6, 78, 127
2, 170747, Note_off_c, 6, 78, 127
2, 170747, Note_off_c, 10, 57, 127
2, 170749, Note_on_c, 12, 71, 127
2, 170749, Note_on_c, 8, 56, 127
2, 170937, Note_off_c, 8, 56, 127
2, 170937, Note_off_c, 12, 71, 127
2, 170939, Note_on_c, 1, 73, 127
2, 170939, Note_on_c, 6, 54, 127
2, 171032, Note_off_c, 1, 73, 127
2, 171034, Note_on_c, 2, 74, 127
2, 171127, Note_off_c, 2, 74, 127
2, 171127, Note_off_c, 6, 54, 127
2, 171129, Note_on_c, 8, 68, 127
2, 171129, Note_on_c, 4, 52, 127
2, 171317, Note_off_c, 4, 52, 127
2, 171317, Note_off_c, 8, 68, 127
2, 171319, Note_on_c, 10, 69, 127
2, 171319, Note_on_c, 2, 50, 127
2, 171412, Note_off_c, 10, 69, 127
2, 171414, Note_on_c, 12, 71, 127
2, 171507, Note_off_c, 12, 71, 127
2, 171507, Note_off_c, 2, 50, 127
2, 171509, Note_on_c, 4, 64, 127
2, 171509, Note_on_c, 1, 49, 127
2, 171697, Note_off_c, 1, 49, 127
2, 171697, Note_off_c, 4, 64, 127
2, 171699, Note_on_c, 2, 74, 127
2, 171699, Note_on_c, 12, 47, 127
2, 171887, Note_off_c, 12, 47, 127
2, 171887, Note_off_c, 2, 74, 127
2, 171889, Note_on_c, 1, 73, 127
2, 171889, Note_on_c, 10, 45, 127
2, 172079, Note_on_c, 10, 69, 127
2, 172269, Note_on_c, 4, 64, 127
2, 172459, Note_on_c, 4, 52, 127
2, 172641, Note_off_c, 10, 45, 127
2, 172647, Note_off_c, 4, 52, 127
2, 172649, Note_on_c, 10, 57, 127
2, 172742, Note_off_c, 10, 57, 127
2, 172744, Note_on_c, 8, 56, 127
2, 172831, Note_off_c, 10, 69, 127
2, 172837, Note_off_c, 8, 56, 127
2, 172837, Note_off_c, 4, 64, 127
2, 172839, Note_off_c, 1, 73, 127
2, 172839, Note_on_c, 10, 69, 127
2, 172839, Note_on_c, 10, 57, 127
2, 173027, Note_off_c, 10, 69, 127
2, 173029, Note_on_c, 12, 71, 127
2, 173217, Note_off_c, 12, 71, 127
2, 173217, Note_off_c, 10, 57, 127
2, 173219, Note_on_c, 1, 73, 127
2, 173219, Note_on_c, 7, 55, 127
2, 173407, Note_off_c, 7, 55, 127
2, 173407, Note_off_c, 1, 73, 127
2, 173409, Note_on_c, 2, 74, 127
2, 173409, Note_on_c, 6, 54, 127
2, 173597, Note_off_c, 6, 54, 127
2, 173597, Note_off_c, 2, 74, 127
2, 173599, Note_on_c, 4, 76, 127
2, 173599, Note_on_c, 7, 55, 127
2, 173787, Note_off_c, 7, 55, 127
2, 173787, Note_off_c, 4, 76, 127
2, 173789, Note_on_c, 2, 74, 127
2, 173789, Note_on_c, 6, 54, 127
2, 173977, Note_off_c, 6, 54, 127
2, 173977, Note_off_c, 2, 74, 127
2, 173979, Note_on_c, 1, 73, 127
2, 173979, Note_on_c, 4, 52, 127
2, 174167, Note_off_c, 4, 52, 127
2, 174167, Note_off_c, 1, 73, 127
2, 174169, Note_on_c, 12, 71, 127
2, 174169, Note_on_c, 2, 50, 127
2, 174357, Note_off_c, 2, 50, 127
2, 174357, Note_off_c, 12, 71, 127
2, 174359, Note_on_c, 10, 69, 127
2, 174359, Note_on_c, 1, 49, 127
2, 174547, Note_off_c, 1, 49, 127
2, 174547, Note_off_c, 10, 69, 127
2, 174549, Note_on_c, 8, 68, 127
2, 174549, Note_on_c, 12, 47, 127
2, 174737, Note_off_c, 12, 47, 127
2, 174737, Note_off_c, 8, 68, 127
2, 174739, Note_on_c, 10, 69, 127
2, 174739, Note_on_c, 10, 45, 127
2, 174927, Note_off_c, 10, 45, 127
2, 174927, Note_off_c, 10, 69, 127
2, 174929, Note_on_c, 10, 69, 127
2, 174929, Note_on_c, 4, 52, 127
2, 174990, Note_off_c, 10, 69, 127
2, 174992, Note_on_c, 8, 68, 127
2, 175053, Note_off_c, 8, 68, 127
2, 175055, Note_on_c, 10, 69, 127
2, 175116, Note_off_c, 10, 69, 127
2, 175118, Note_on_c, 8, 68, 127
2, 175306, Note_off_c, 8, 68, 127
2, 175308, Note_on_c, 4, 64, 127
2, 175496, Note_off_c, 4, 64, 127
2, 175496, Note_off_c, 4, 52, 127
2, 175498, Note_on_c, 12, 71, 127
2, 175498, Note_on_c, 2, 50, 127
2, 175686, Note_off_c, 2, 50, 127
2, 175686, Note_off_c, 12, 71, 127
2, 175688, Note_on_c, 4, 76, 127
2, 175688, Note_on_c, 1, 49, 127
2, 175876, Note_off_c, 1, 49, 127
2, 175878, Note_on_c, 10, 45, 127
2, 176066, Note_off_c, 10, 45, 127
2, 176068, Note_on_c, 1, 49, 127
2, 176256, Note_off_c, 1, 49, 127
2, 176256, Note_off_c, 4, 76, 127
2, 176258, Note_on_c, 2, 74, 127
2, 176258, Note_on_c, 4, 52, 127
2, 176446, Note_off_c, 4, 52, 127
2, 176446, Note_off_c, 2, 74, 127
2, 176448, Note_on_c, 1, 73, 127
2, 176448, Note_on_c, 10, 57, 127
2, 176636, Note_off_c, 1, 73, 127
2, 176638, Note_on_c, 10, 69, 127
2, 176826, Note_off_c, 10, 69, 127
2, 176828, Note_on_c, 1, 73, 127
2, 177016, Note_off_c, 1, 73, 127
2, 177016, Note_off_c, 10, 57, 127
2, 177018, Note_on_c, 4, 76, 127
2, 177018, Note_on_c, 7, 55, 127
2, 177206, Note_off_c, 7, 55, 127
2, 177206, Note_off_c, 4, 76, 127
2, 177208, Note_on_c, 10, 81, 127
2, 177208, Note_on_c, 6, 54, 127
2, 177396, Note_off_c, 6, 54, 127
2, 177398, Note_on_c, 2, 50, 127
2, 177586, Note_off_c, 2, 50, 127
2, 177588, Note_on_c, 6, 54, 127
2, 177776, Note_off_c, 6, 54, 127
2, 177776, Note_off_c, 10, 81, 127
2, 177778, Note_on_c, 7, 79, 127
2, 177778, Note_on_c, 10, 57, 127
2, 177966, Note_off_c, 10, 57, 127
2, 177966, Note_off_c, 7, 79, 127
2, 177968, Note_on_c, 6, 78, 127
2, 177968, Note_on_c, 2, 62, 127
2, 178156, Note_off_c, 6, 78, 127
2, 178158, Note_on_c, 10, 81, 127
2, 178346, Note_off_c, 10, 81, 127
2, 178346, Note_off_c, 2, 62, 127
2, 178348, Note_on_c, 2, 74, 127
2, 178348, Note_on_c, 1, 61, 127
2, 178536, Note_off_c, 2, 74, 127
2, 178538, Note_on_c, 4, 76, 127
2, 178726, Note_off_c, 4, 76, 127
2, 178726, Note_off_c, 1, 61, 127
2, 178728, Note_on_c, 6, 78, 127
2, 178728, Note_on_c, 12, 59, 127
2, 178916, Note_off_c, 6, 78, 127
2, 178918, Note_on_c, 2, 74, 127
2, 179106, Note_off_c, 2, 74, 127
2, 179106, Note_off_c, 12, 59, 127
2, 179108, Note_on_c, 12, 71, 127
2, 179108, Note_on_c, 10, 57, 127
2, 179296, Note_off_c, 12, 71, 127
2, 179298, Note_on_c, 1, 73, 127
2, 179486, Note_off_c, 1, 73, 127
2, 179486, Note_off_c, 10, 57, 127
2, 179488, Note_on_c, 2, 74, 127
2, 179488, Note_on_c, 12, 59, 127
2, 179676, Note_off_c, 2, 74, 127
2, 179678, Note_on_c, 6, 78, 127
2, 179866, Note_off_c, 6, 78, 127
2, 179866, Note_off_c, 12, 59, 127
2, 179868, Note_on_c, 12, 71, 127
2, 179868, Note_on_c, 10, 57, 127
2, 180056, Note_off_c, 12, 71, 127
2, 180058, Note_on_c, 1, 73, 127
2, 180246, Note_off_c, 1, 73, 127
2, 180246, Note_off_c, 10, 57, 127
2, 180248, Note_on_c, 2, 74, 127
2, 180248, Note_on_c, 8, 56, 127
2, 180436, Note_off_c, 2, 74, 127
2, 180438, Note_on_c, 12, 71, 127
2, 180626, Note_off_c, 12, 71, 127
2, 180626, Note_off_c, 8, 56, 127
2, 180628, Note_on_c, 8, 68, 127
2, 180628, Note_on_c, 6, 54, 127
2, 180816, Note_off_c, 8, 68, 127
2, 180818, Note_on_c, 10, 69, 127
2, 181006, Note_off_c, 10, 69, 127
2, 181006, Note_off_c, 6, 54, 127
2, 181008, Note_on_c, 10, 69, 127
2, 181008, Note_on_c, 4, 52, 127
2, 181069, Note_off_c, 10, 69, 127
2, 181071, Note_on_c, 8, 68, 127
2, 181132, Note_off_c, 8, 68, 127
2, 181134, Note_on_c, 10, 69, 127
2, 181195, Note_off_c, 10, 69, 127
2, 181197, Note_on_c, 8, 68, 127
2, 181197, Note_on_c, 6, 54, 127
2, 181385, Note_off_c, 6, 54, 127
2, 181387, Note_on_c, 8, 56, 127
2, 181482, Note_off_c, 8, 68, 127
2, 181577, Note_on_c, 6, 66, 127
2, 181577, Note_on_c, 12, 59, 127
2, 181765, Note_off_c, 6, 66, 127
2, 181767, Note_on_c, 4, 64, 127
2, 181957, Note_on_c, 8, 68, 127
2, 182145, Note_off_c, 8, 68, 127
2, 182147, Note_on_c, 12, 71, 127
2, 182335, Note_off_c, 12, 71, 127
2, 182337, Note_on_c, 4, 76, 127
2, 182519, Note_off_c, 4, 64, 127
2, 182525, Note_off_c, 8, 56, 127
2, 182527, Note_off_c, 12, 59, 127
2, 182527, Note_on_c, 6, 66, 127
2, 182527, Note_on_c, 10, 57, 127
2, 182713, Note_off_c, 4, 76, 127
2, 182717, Note_on_c, 4, 76, 127
2, 182905, Note_off_c, 4, 76, 127
2, 182907, Note_on_c, 3, 75, 127
2, 183095, Note_off_c, 3, 75, 127
2, 183097, Note_on_c, 1, 73, 127
2, 183285, Note_off_c, 1, 73, 127
2, 183287, Note_on_c, 3, 75, 127
2, 183475, Note_off_c, 3, 75, 127
2, 183477, Note_on_c, 6, 78, 127
2, 183665, Note_off_c, 6, 78, 127
2, 183667, Note_on_c, 12, 71, 127
2, 183855, Note_off_c, 12, 71, 127
2, 183857, Note_on_c, 1, 73, 127
2, 184045, Note_off_c, 1, 73, 127
2, 184045, Note_off_c, 10, 57, 127
2, 184045, Note_off_c, 6, 66, 127
2, 184047, Note_on_c, 2, 74, 127
2, 184047, Note_on_c, 12, 59, 127
2, 184237, Note_on_c, 12, 71, 127
2, 184427, Note_on_c, 8, 68, 127
2, 184617, Note_on_c, 4, 64, 127
2, 184805, Note_off_c, 12, 59, 127
2, 184807, Note_on_c, 1, 61, 127
2, 184995, Note_off_c, 4, 64, 127
2, 184997, Note_on_c, 4, 64, 127
2, 185179, Note_off_c, 8, 68, 127
2, 185185, Note_off_c, 2, 74, 127
2, 185187, Note_off_c, 12, 71, 127
2, 185187, Note_on_c, 10, 69, 127
2, 185187, Note_on_c, 1, 73, 127
2, 185375, Note_off_c, 1, 61, 127
2, 185377, Note_on_c, 3, 63, 127
2, 185552, Note_off_c, 4, 64, 127
2, 185566, Note_off_c, 3, 63, 127
2, 185566, Note_off_c, 1, 73, 127
2, 185568, Note_on_c, 12, 71, 127
2, 185568, Note_on_c, 4, 64, 127
2, 185743, Note_off_c, 10, 69, 127
2, 185759, Note_on_c, 10, 69, 127
2, 185947, Note_off_c, 10, 69, 127
2, 185949, Note_on_c, 8, 68, 127
2, 186137, Note_off_c, 8, 68, 127
2, 186139, Note_on_c, 6, 66, 127
2, 186327, Note_off_c, 6, 66, 127
2, 186329, Note_on_c, 8, 68, 127
2, 186517, Note_off_c, 4, 64, 127
2, 186519, Note_on_c, 6, 66, 127
2, 186707, Note_off_c, 6, 66, 127
2, 186709, Note_on_c, 12, 59, 127
2, 186897, Note_off_c, 12, 59, 127
2, 186899, Note_on_c, 1, 61, 127
2, 187087, Note_off_c, 1, 61, 127
2, 187089, Note_on_c, 2, 62, 127
2, 187279, Note_on_c, 12, 59, 127
2, 187469, Note_on_c, 8, 56, 127
2, 187540, Note_off_c, 4, 52, 127
2, 187659, Note_on_c, 4, 52, 127
2, 187834, Note_off_c, 12, 59, 127
2, 187842, Note_off_c, 2, 62, 127
2, 187846, Note_off_c, 8, 56, 127
2, 187850, Note_on_c, 1, 61, 127
2, 188038, Note_off_c, 8, 68, 127
2, 188040, Note_on_c, 4, 64, 127
2, 188183, Note_off_c, 12, 71, 127
2, 188229, Note_off_c, 1, 61, 127
2, 188231, Note_on_c, 10, 69, 127
2, 188231, Note_on_c, 0, 60, 127
2, 188417, Note_off_c, 4, 64, 127
2, 188421, Note_on_c, 3, 63, 127
2, 188609, Note_off_c, 3, 63, 127
2, 188609, Note_off_c, 0, 60, 127
2, 188611, Note_on_c, 4, 64, 127
2, 188611, Note_on_c, 12, 59, 127
2, 188690, Note_off_c, 10, 69, 127
2, 188706, Note_on_c, 12, 71, 127
2, 188799, Note_off_c, 12, 71, 127
2, 188801, Note_on_c, 1, 73, 127
2, 188894, Note_off_c, 1, 73, 127
2, 188896, Note_on_c, 2, 74, 127
2, 188989, Note_off_c, 2, 74, 127
2, 188989, Note_off_c, 12, 59, 127
2, 188991, Note_on_c, 1, 73, 127
2, 188991, Note_on_c, 10, 57, 127
2, 189084, Note_off_c, 1, 73, 127
2, 189086, Note_on_c, 12, 71, 127
2, 189179, Note_off_c, 12, 71, 127
2, 189181, Note_on_c, 1, 73, 127
2, 189274, Note_off_c, 1, 73, 127
2, 189276, Note_on_c, 2, 74, 127
2, 189369, Note_off_c, 2, 74, 127
2, 189369, Note_off_c, 10, 57, 127
2, 189371, Note_on_c, 10, 69, 127
2, 189371, Note_on_c, 12, 59, 127
2, 189496, Note_off_c, 10, 69, 127
2, 189498, Note_on_c, 8, 68, 127
2, 189559, Note_off_c, 8, 68, 127
2, 189559, Note_off_c, 12, 59, 127
2, 189561, Note_on_c, 10, 69, 127
2, 189561, Note_on_c, 1, 61, 127
2, 189622, Note_off_c, 10, 69, 127
2, 189624, Note_on_c, 8, 68, 127
2, 189685, Note_off_c, 8, 68, 127
2, 189687, Note_on_c, 10, 69, 127
2, 189748, Note_off_c, 10, 69, 127
2, 189748, Note_off_c, 1, 61, 127
2, 189750, Note_on_c, 2, 62, 127
2, 189750, Note_on_c, 8, 68, 127
2, 189936, Note_off_c, 4, 52, 127
2, 189938, Note_off_c, 8, 68, 127
2, 189940, Note_on_c, 10, 69, 127
2, 190133, Note_off_c, 10, 69, 127
2, 190135, Note_on_c, 10, 69, 127
2, 190135, Note_on_c, 10, 57, 127
2, 190322, Note_off_c, 4, 64, 127
2, 190330, Note_on_c, 4, 64, 127
2, 190517, Note_off_c, 2, 62, 127
2, 190523, Note_off_c, 4, 64, 127
2, 190525, Note_on_c, 6, 66, 127
2, 190525, Note_on_c, 1, 61, 127
2, 190718, Note_off_c, 6, 66, 127
2, 190720, Note_on_c, 7, 67, 127
2, 190922, Note_off_c, 7, 67, 127
2, 190924, Note_on_c, 6, 66, 127
2, 191126, Note_off_c, 1, 61, 127
2, 191128, Note_on_c, 2, 62, 127
2, 191330, Note_off_c, 2, 62, 127
2, 191332, Note_on_c, 12, 59, 127
2, 191523, Note_off_c, 10, 69, 127
2, 191534, Note_off_c, 6, 66, 127
2, 191536, Note_on_c, 2, 62, 127
2, 191536, Note_on_c, 8, 68, 127
2, 191536, Note_on_c, 5, 65, 127
2, 191760, Note_off_c, 5, 65, 127
2, 191760, Note_off_c, 8, 68, 127
2, 191760, Note_off_c, 2, 62, 127
2, 191760, Note_off_c, 12, 59, 127
2, 191760, Note_off_c, 10, 57, 127
2, 191762, Note_on_c, 1, 61, 127
2, 191762, Note_on_c, 4, 64, 127
2, 191762, Note_on_c, 10, 69, 127
2, 191762, Note_on_c, 10, 57, 127
2, 191988, Note_on_c, 10, 45, 127
2, 192214, Note_on_c, 1, 49, 127
2, 192440, Note_on_c, 4, 52, 127
2, 192656, Note_off_c, 10, 57, 127
2, 192661, Note_off_c, 1, 49, 127
2, 192666, Note_on_c, 10, 57, 127
2, 195120, Note_off_c, 10, 57, 127
2, 195120, Note_off_c, 4, 52, 127
2, 195120, Note_off_c, 10, 45, 127
2, 195120, Note_off_c, 10, 69, 127
2, 195120, Note_off_c, 4, 64, 127
2, 195120, Note_off_c, 1, 61, 127
2, 196781, Note_on_c, 10, 81, 127
2, 197017, Note_off_c, 10, 81, 127
2, 197021, Note_on_c, 10, 57, 127
2, 197021, Note_on_c, 1, 73, 127
2, 197108, Note_on_c, 4, 76, 127
2, 197196, Note_on_c, 10, 81, 127
2, 197223, Note_on_c, 10, 45, 127
2, 197418, Note_off_c, 10, 45, 127
2, 197425, Note_on_c, 12, 47, 127
2, 197613, Note_off_c, 1, 73, 127
2, 197614, Note_off_c, 10, 81, 127
2, 197620, Note_off_c, 12, 47, 127
2, 197622, Note_on_c, 8, 80, 127
2, 197622, Note_on_c, 1, 49, 127
2, 197625, Note_off_c, 4, 76, 127
2, 197810, Note_off_c, 1, 49, 127
2, 197810, Note_off_c, 8, 80, 127
2, 197812, Note_on_c, 6, 78, 127
2, 197812, Note_on_c, 2, 50, 127
2, 198000, Note_off_c, 6, 78, 127
2, 198002, Note_on_c, 4, 76, 127
2, 198185, Note_off_c, 10, 57, 127
2, 198190, Note_off_c, 4, 76, 127
2, 198190, Note_off_c, 2, 50, 127
2, 198192, Note_on_c, 2, 74, 127
2, 198192, Note_on_c, 4, 52, 127
2, 198192, Note_on_c, 8, 56, 127
2, 198380, Note_off_c, 2, 74, 127
2, 198382, Note_on_c, 1, 73, 127
2, 198570, Note_off_c, 1, 73, 127
2, 198570, Note_off_c, 8, 56, 127
2, 198570, Note_off_c, 4, 52, 127
2, 198572, Note_on_c, 1, 73, 127
2, 198572, Note_on_c, 6, 54, 127
2, 198655, Note_on_c, 8, 56, 127
2, 198736, Note_off_c, 8, 56, 127
2, 198738, Note_on_c, 10, 57, 127
2, 198760, Note_off_c, 1, 73, 127
2, 198762, Note_on_c, 2, 74, 127
2, 198823, Note_off_c, 2, 74, 127
2, 198825, Note_on_c, 1, 73, 127
2, 198886, Note_off_c, 1, 73, 127
2, 198888, Note_on_c, 2, 74, 127
2, 198949, Note_off_c, 10, 57, 127
2, 198949, Note_off_c, 6, 54, 127
2, 198951, Note_on_c, 8, 56, 127
2, 199034, Note_on_c, 10, 57, 127
2, 199115, Note_off_c, 10, 57, 127
2, 199117, Note_on_c, 12, 59, 127
2, 199139, Note_off_c, 2, 74, 127
2, 199141, Note_on_c, 4, 76, 127
2, 199329, Note_off_c, 4, 76, 127
2, 199329, Note_off_c, 12, 59, 127
2, 199329, Note_off_c, 8, 56, 127
2, 199331, Note_on_c, 2, 74, 127
2, 199331, Note_on_c, 10, 57, 127
2, 199392, Note_off_c, 2, 74, 127
2, 199394, Note_on_c, 1, 73, 127
2, 199455, Note_off_c, 1, 73, 127
2, 199457, Note_on_c, 2, 74, 127
2, 199518, Note_off_c, 2, 74, 127
2, 199520, Note_on_c, 1, 73, 127
2, 199520, Note_on_c, 1, 61, 127
2, 199710, Note_on_c, 4, 64, 127
2, 199885, Note_off_c, 10, 57, 127
2, 199899, Note_off_c, 1, 73, 127
2, 199901, Note_on_c, 12, 71, 127
2, 199901, Note_on_c, 8, 56, 127
2, 200076, Note_off_c, 1, 61, 127
2, 200088, Note_off_c, 4, 64, 127
2, 200090, Note_off_c, 8, 56, 127
2, 200090, Note_off_c, 12, 71, 127
2, 200092, Note_on_c, 10, 69, 127
2, 200092, Note_on_c, 6, 54, 127
2, 200280, Note_off_c, 6, 54, 127
2, 200280, Note_off_c, 10, 69, 127
2, 200282, Note_on_c, 8, 68, 127
2, 200282, Note_on_c, 4, 52, 127
2, 200470, Note_off_c, 4, 52, 127
2, 200470, Note_off_c, 8, 68, 127
2, 200472, Note_on_c, 6, 66, 127
2, 200472, Note_on_c, 2, 50, 127
2, 200660, Note_off_c, 2, 50, 127
2, 200660, Note_off_c, 6, 66, 127
2, 200662, Note_on_c, 2, 74, 127
2, 200662, Note_on_c, 1, 49, 127
2, 200850, Note_off_c, 1, 49, 127
2, 200850, Note_off_c, 2, 74, 127
2, 200852, Note_on_c, 1, 73, 127
2, 200852, Note_on_c, 2, 50, 127
2, 200977, Note_off_c, 1, 73, 127
2, 200979, Note_on_c, 12, 71, 127
2, 201040, Note_off_c, 12, 71, 127
2, 201042, Note_on_c, 1, 73, 127
2, 201042, Note_on_c, 6, 54, 127
2, 201103, Note_off_c, 1, 73, 127
2, 201105, Note_on_c, 12, 71, 127
2, 201166, Note_off_c, 12, 71, 127
2, 201168, Note_on_c, 1, 73, 127
2, 201228, Note_off_c, 2, 50, 127
2, 201230, Note_off_c, 1, 73, 127
2, 201232, Note_on_c, 12, 71, 127
2, 201232, Note_on_c, 12, 47, 127
2, 201420, Note_off_c, 12, 71, 127
2, 201422, Note_on_c, 10, 69, 127
2, 201597, Note_off_c, 6, 54, 127
2, 201611, Note_off_c, 10, 69, 127
2, 201611, Note_off_c, 12, 47, 127
2, 201613, Note_on_c, 10, 69, 127
2, 201613, Note_on_c, 4, 52, 127
2, 201674, Note_off_c, 10, 69, 127
2, 201676, Note_on_c, 8, 68, 127
2, 201737, Note_off_c, 8, 68, 127
2, 201739, Note_on_c, 10, 69, 127
2, 201800, Note_off_c, 10, 69, 127
2, 201802, Note_on_c, 8, 68, 127
2, 201802, Note_on_c, 8, 56, 127
2, 201992, Note_on_c, 12, 59, 127
2, 202180, Note_off_c, 8, 68, 127
2, 202182, Note_on_c, 6, 66, 127
2, 202364, Note_off_c, 4, 52, 127
2, 202370, Note_off_c, 6, 66, 127
2, 202372, Note_on_c, 4, 64, 127
2, 202372, Note_on_c, 2, 50, 127
2, 202560, Note_off_c, 4, 64, 127
2, 202562, Note_on_c, 6, 66, 127
2, 202744, Note_off_c, 12, 59, 127
2, 202750, Note_off_c, 6, 66, 127
2, 202750, Note_off_c, 2, 50, 127
2, 202752, Note_off_c, 8, 56, 127
2, 202752, Note_on_c, 8, 68, 127
2, 202752, Note_on_c, 10, 57, 127
2, 202752, Note_on_c, 4, 52, 127
2, 202752, Note_on_c, 1, 49, 127
2, 202940, Note_off_c, 8, 68, 127
2, 202942, Note_on_c, 10, 69, 127
2, 203130, Note_off_c, 10, 69, 127
2, 203130, Note_off_c, 1, 49, 127
2, 203130, Note_off_c, 4, 52, 127
2, 203130, Note_off_c, 10, 57, 127
2, 203132, Note_on_c, 10, 69, 127
2, 203132, Note_on_c, 12, 47, 127
2, 203132, Note_on_c, 2, 50, 127
2, 203320, Note_off_c, 10, 69, 127
2, 203322, Note_on_c, 12, 71, 127
2, 203322, Note_on_c, 8, 56, 127
2, 203383, Note_off_c, 12, 71, 127
2, 203385, Note_on_c, 10, 69, 127
2, 203446, Note_off_c, 10, 69, 127
2, 203448, Note_on_c, 12, 71, 127
2, 203508, Note_off_c, 2, 50, 127
2, 203508, Note_off_c, 12, 47, 127
2, 203510, Note_off_c, 8, 56, 127
2, 203512, Note_on_c, 10, 45, 127
2, 203512, Note_on_c, 4, 52, 127
2, 203700, Note_off_c, 12, 71, 127
2, 203702, Note_on_c, 1, 73, 127
2, 203702, Note_on_c, 10, 57, 127
2, 203888, Note_off_c, 4, 52, 127
2, 203888, Note_off_c, 10, 45, 127
2, 203890, Note_off_c, 10, 57, 127
2, 203890, Note_off_c, 1, 73, 127
2, 203892, Note_on_c, 2, 74, 127
2, 203892, Note_on_c, 8, 44, 127
2, 204082, Note_on_c, 12, 71, 127
2, 204082, Note_on_c, 12, 47, 127
2, 204270, Note_off_c, 12, 47, 127
2, 204270, Note_off_c, 12, 71, 127
2, 204272, Note_on_c, 8, 68, 127
2, 204272, Note_on_c, 4, 52, 127
2, 204447, Note_off_c, 8, 44, 127
2, 204447, Note_off_c, 2, 74, 127
2, 204463, Note_on_c, 4, 76, 127
2, 204463, Note_on_c, 4, 40, 127
2, 204649, Note_off_c, 8, 68, 127
2, 204651, Note_off_c, 4, 40, 127
2, 204651, Note_off_c, 4, 76, 127
2, 204653, Note_on_c, 2, 74, 127
2, 204653, Note_on_c, 10, 69, 127
2, 204653, Note_on_c, 10, 45, 127
2, 204714, Note_off_c, 2, 74, 127
2, 204716, Note_on_c, 1, 73, 127
2, 204777, Note_off_c, 1, 73, 127
2, 204779, Note_on_c, 2, 74, 127
2, 204840, Note_off_c, 2, 74, 127
2, 204842, Note_on_c, 1, 73, 127
2, 205024, Note_off_c, 4, 52, 127
2, 205030, Note_off_c, 10, 45, 127
2, 205032, Note_on_c, 6, 54, 127
2, 205032, Note_on_c, 2, 50, 127
2, 205220, Note_off_c, 1, 73, 127
2, 205222, Note_on_c, 12, 71, 127
2, 205404, Note_off_c, 10, 69, 127
2, 205410, Note_off_c, 12, 71, 127
2, 205410, Note_off_c, 2, 50, 127
2, 205410, Note_off_c, 6, 54, 127
2, 205412, Note_on_c, 1, 73, 127
2, 205412, Note_on_c, 8, 68, 127
2, 205412, Note_on_c, 4, 52, 127
2, 205537, Note_off_c, 1, 73, 127
2, 205539, Note_on_c, 12, 71, 127
2, 205600, Note_off_c, 12, 71, 127
2, 205602, Note_on_c, 1, 73, 127
2, 205663, Note_off_c, 1, 73, 127
2, 205665, Note_on_c, 12, 71, 127
2, 205726, Note_off_c, 12, 71, 127
2, 205728, Note_on_c, 1, 73, 127
2, 205789, Note_off_c, 1, 73, 127
2, 205791, Note_on_c, 12, 71, 127
2, 205791, Note_on_c, 4, 40, 127
2, 205979, Note_off_c, 12, 71, 127
2, 205981, Note_on_c, 10, 69, 127
2, 206163, Note_off_c, 4, 52, 127
2, 206163, Note_off_c, 8, 68, 127
2, 206169, Note_off_c, 10, 69, 127
2, 206169, Note_off_c, 4, 40, 127
2, 206171, Note_on_c, 1, 61, 127
2, 206171, Note_on_c, 10, 45, 127
2, 206254, Note_on_c, 4, 64, 127
2, 206337, Note_on_c, 10, 69, 127
2, 206361, Note_on_c, 4, 52, 127
2, 206549, Note_off_c, 4, 52, 127
2, 206551, Note_on_c, 6, 54, 127
2, 206739, Note_off_c, 6, 54, 127
2, 206741, Note_on_c, 8, 56, 127
2, 206923, Note_off_c, 10, 45, 127
2, 206923, Note_off_c, 1, 61, 127
2, 206927, Note_off_c, 4, 64, 127
2, 206929, Note_off_c, 8, 56, 127
2, 206931, Note_on_c, 10, 57, 127
2, 207119, Note_off_c, 10, 69, 127
2, 207121, Note_on_c, 1, 73, 127
2, 207309, Note_off_c, 1, 73, 127
2, 207309, Note_off_c, 10, 57, 127
2, 207311, Note_on_c, 12, 71, 127
2, 207311, Note_on_c, 8, 56, 127
2, 207499, Note_off_c, 8, 56, 127
2, 207499, Note_off_c, 12, 71, 127
2, 207501, Note_on_c, 10, 69, 127
2, 207501, Note_on_c, 6, 54, 127
2, 207689, Note_off_c, 6, 54, 127
2, 207689, Note_off_c, 10, 69, 127
2, 207691, Note_on_c, 10, 69, 127
2, 207691, Note_on_c, 5, 53, 127
2, 207816, Note_off_c, 10, 69, 127
2, 207818, Note_on_c, 8, 68, 127
2, 207879, Note_off_c, 8, 68, 127
2, 207881, Note_on_c, 10, 69, 127
2, 207881, Note_on_c, 8, 56, 127
2, 207942, Note_off_c, 10, 69, 127
2, 207944, Note_on_c, 8, 68, 127
2, 208005, Note_off_c, 8, 68, 127
2, 208007, Note_on_c, 10, 69, 127
2, 208067, Note_off_c, 5, 53, 127
2, 208069, Note_off_c, 10, 69, 127
2, 208071, Note_on_c, 8, 68, 127
2, 208071, Note_on_c, 1, 49, 127
2, 208259, Note_off_c, 8, 68, 127
2, 208261, Note_on_c, 10, 69, 127
2, 208436, Note_off_c, 8, 56, 127
2, 208450, Note_off_c, 10, 69, 127
2, 208450, Note_off_c, 1, 49, 127
2, 208452, Note_on_c, 12, 71, 127
2, 208452, Note_on_c, 6, 54, 127
2, 208640, Note_off_c, 12, 71, 127
2, 208642, Note_on_c, 10, 69, 127
2, 208830, Note_off_c, 10, 69, 127
2, 208832, Note_on_c, 8, 68, 127
2, 209020, Note_off_c, 8, 68, 127
2, 209020, Note_off_c, 6, 54, 127
2, 209022, Note_on_c, 6, 66, 127
2, 209022, Note_on_c, 8, 56, 127
2, 209210, Note_off_c, 8, 56, 127
2, 209210, Note_off_c, 6, 66, 127
2, 209212, Note_on_c, 6, 78, 127
2, 209212, Note_on_c, 10, 57, 127
2, 209273, Note_off_c, 6, 78, 127
2, 209275, Note_on_c, 4, 76, 127
2, 209336, Note_off_c, 4, 76, 127
2, 209338, Note_on_c, 6, 78, 127
2, 209399, Note_off_c, 10, 57, 127
2, 209401, Note_on_c, 1, 61, 127
2, 209589, Note_off_c, 1, 61, 127
2, 209591, Note_on_c, 12, 59, 127
2, 209779, Note_off_c, 12, 59, 127
2, 209779, Note_off_c, 6, 78, 127
2, 209781, Note_on_c, 3, 75, 127
2, 209781, Note_on_c, 10, 57, 127
2, 209969, Note_off_c, 10, 57, 127
2, 209969, Note_off_c, 3, 75, 127
2, 209971, Note_on_c, 3, 75, 127
2, 209971, Note_on_c, 8, 56, 127
2, 210054, Note_on_c, 10, 57, 127
2, 210096, Note_off_c, 3, 75, 127
2, 210098, Note_on_c, 4, 76, 127
2, 210136, Note_off_c, 10, 57, 127
2, 210138, Note_on_c, 12, 59, 127
2, 210160, Note_off_c, 4, 76, 127
2, 210162, Note_on_c, 3, 75, 127
2, 210223, Note_off_c, 3, 75, 127
2, 210225, Note_on_c, 4, 76, 127
2, 210350, Note_off_c, 12, 59, 127
2, 210350, Note_off_c, 8, 56, 127
2, 210352, Note_on_c, 11, 58, 127
2, 210435, Note_on_c, 12, 59, 127
2, 210516, Note_off_c, 12, 59, 127
2, 210518, Note_on_c, 1, 61, 127
2, 210540, Note_off_c, 4, 76, 127
2, 210542, Note_on_c, 6, 78, 127
2, 210730, Note_off_c, 6, 78, 127
2, 210730, Note_off_c, 1, 61, 127
2, 210730, Note_off_c, 11, 58, 127
2, 210732, Note_on_c, 4, 76, 127
2, 210732, Note_on_c, 12, 59, 127
2, 210793, Note_off_c, 4, 76, 127
2, 210795, Note_on_c, 3, 75, 127
2, 210856, Note_off_c, 3, 75, 127
2, 210858, Note_on_c, 4, 76, 127
2, 210919, Note_off_c, 4, 76, 127
2, 210921, Note_on_c, 3, 75, 127
2, 210921, Note_on_c, 3, 63, 127
2, 211111, Note_on_c, 6, 66, 127
2, 211299, Note_off_c, 3, 75, 127
2, 211301, Note_on_c, 1, 73, 127
2, 211483, Note_off_c, 12, 59, 127
2, 211489, Note_off_c, 1, 73, 127
2, 211491, Note_on_c, 12, 71, 127
2, 211491, Note_on_c, 10, 57, 127
2, 211679, Note_off_c, 12, 71, 127
2, 211681, Note_on_c, 1, 73, 127
2, 211863, Note_off_c, 6, 66, 127
2, 211869, Note_off_c, 1, 73, 127
2, 211869, Note_off_c, 10, 57, 127
2, 211871, Note_off_c, 3, 63, 127
2, 211871, Note_on_c, 3, 75, 127
2, 211871, Note_on_c, 12, 59, 127
2, 211871, Note_on_c, 4, 64, 127
2, 211871, Note_on_c, 8, 56, 127
2, 212059, Note_off_c, 3, 75, 127
2, 212061, Note_on_c, 4, 76, 127
2, 212249, Note_off_c, 4, 76, 127
2, 212249, Note_off_c, 8, 56, 127
2, 212249, Note_off_c, 4, 64, 127
2, 212249, Note_off_c, 12, 59, 127
2, 212251, Note_on_c, 4, 76, 127
2, 212251, Note_on_c, 6, 54, 127
2, 212251, Note_on_c, 10, 57, 127
2, 212439, Note_off_c, 4, 76, 127
2, 212441, Note_on_c, 6, 78, 127
2, 212441, Note_on_c, 3, 63, 127
2, 212502, Note_off_c, 6, 78, 127
2, 212504, Note_on_c, 4, 76, 127
2, 212565, Note_off_c, 4, 76, 127
2, 212567, Note_on_c, 6, 78, 127
2, 212627, Note_off_c, 10, 57, 127
2, 212627, Note_off_c, 6, 54, 127
2, 212629, Note_off_c, 3, 63, 127
2, 212631, Note_on_c, 4, 52, 127
2, 212631, Note_on_c, 12, 59, 127
2, 212819, Note_off_c, 6, 78, 127
2, 212821, Note_on_c, 8, 80, 127
2, 212821, Note_on_c, 4, 64, 127
2, 213007, Note_off_c, 12, 59, 127
2, 213007, Note_off_c, 4, 52, 127
2, 213009, Note_off_c, 4, 64, 127
2, 213009, Note_off_c, 8, 80, 127
2, 213011, Note_on_c, 10, 81, 127
2, 213011, Note_on_c, 3, 51, 127
2, 213201, Note_on_c, 6, 78, 127
2, 213201, Note_on_c, 6, 54, 127
2, 213389, Note_off_c, 6, 54, 127
2, 213389, Note_off_c, 6, 78, 127
2, 213391, Note_on_c, 3, 75, 127
2, 213391, Note_on_c, 12, 59, 127
2, 213566, Note_off_c, 3, 51, 127
2, 213566, Note_off_c, 10, 81, 127
2, 213582, Note_on_c, 12, 83, 127
2, 213582, Note_on_c, 12, 47, 127
2, 213768, Note_off_c, 3, 75, 127
2, 213770, Note_off_c, 12, 47, 127
2, 213770, Note_off_c, 12, 83, 127
2, 213772, Note_on_c, 4, 76, 127
2, 213772, Note_on_c, 10, 81, 127
2, 213772, Note_on_c, 4, 52, 127
2, 213833, Note_off_c, 10, 81, 127
2, 213835, Note_on_c, 8, 80, 127
2, 213896, Note_off_c, 8, 80, 127
2, 213898, Note_on_c, 10, 81, 127
2, 213959, Note_off_c, 10, 81, 127
2, 213961, Note_on_c, 8, 80, 127
2, 214022, Note_off_c, 8, 80, 127
2, 214024, Note_on_c, 10, 81, 127
2, 214085, Note_off_c, 10, 81, 127
2, 214087, Note_on_c, 8, 80, 127
2, 214143, Note_off_c, 12, 59, 127
2, 214149, Note_off_c, 4, 52, 127
2, 214151, Note_on_c, 10, 57, 127
2, 214151, Note_on_c, 1, 61, 127
2, 214339, Note_off_c, 8, 80, 127
2, 214341, Note_on_c, 6, 78, 127
2, 214523, Note_off_c, 4, 76, 127
2, 214529, Note_off_c, 6, 78, 127
2, 214529, Note_off_c, 1, 61, 127
2, 214529, Note_off_c, 10, 57, 127
2, 214531, Note_on_c, 8, 80, 127
2, 214531, Note_on_c, 3, 75, 127
2, 214531, Note_on_c, 12, 59, 127
2, 214656, Note_off_c, 8, 80, 127
2, 214658, Note_on_c, 6, 78, 127
2, 214719, Note_off_c, 6, 78, 127
2, 214721, Note_on_c, 8, 80, 127
2, 214782, Note_off_c, 8, 80, 127
2, 214784, Note_on_c, 6, 78, 127
2, 214845, Note_off_c, 6, 78, 127
2, 214847, Note_on_c, 8, 80, 127
2, 214908, Note_off_c, 8, 80, 127
2, 214910, Note_on_c, 6, 78, 127
2, 214910, Note_on_c, 8, 56, 127
2, 215098, Note_off_c, 6, 78, 127
2, 215100, Note_on_c, 4, 76, 127
2, 215282, Note_off_c, 12, 59, 127
2, 215282, Note_off_c, 3, 75, 127
2, 215288, Note_off_c, 4, 76, 127
2, 215288, Note_off_c, 8, 56, 127
2, 215290, Note_on_c, 4, 76, 127
2, 215290, Note_on_c, 1, 61, 127
2, 215478, Note_off_c, 1, 61, 127
2, 215480, Note_on_c, 3, 63, 127
2, 215668, Note_off_c, 3, 63, 127
2, 215670, Note_on_c, 1, 61, 127
2, 215858, Note_off_c, 1, 61, 127
2, 215860, Note_on_c, 3, 75, 127
2, 215860, Note_on_c, 12, 59, 127
2, 216048, Note_off_c, 12, 59, 127
2, 216048, Note_off_c, 3, 75, 127
2, 216050, Note_on_c, 1, 73, 127
2, 216050, Note_on_c, 10, 57, 127
2, 216238, Note_off_c, 10, 57, 127
2, 216238, Note_off_c, 1, 73, 127
2, 216240, Note_on_c, 12, 71, 127
2, 216240, Note_on_c, 8, 56, 127
2, 216428, Note_off_c, 8, 56, 127
2, 216428, Note_off_c, 12, 71, 127
2, 216430, Note_on_c, 10, 69, 127
2, 216430, Note_on_c, 6, 54, 127
2, 216618, Note_off_c, 6, 54, 127
2, 216618, Note_off_c, 10, 69, 127
2, 216620, Note_on_c, 8, 68, 127
2, 216620, Note_on_c, 4, 52, 127
2, 216808, Note_off_c, 4, 52, 127
2, 216808, Note_off_c, 8, 68, 127
2, 216808, Note_off_c, 4, 76, 127
2, 216810, Note_on_c, 6, 66, 127
2, 216810, Note_on_c, 12, 59, 127
2, 217000, Note_on_c, 10, 69, 127
2, 217190, Note_on_c, 4, 76, 127
2, 217190, Note_on_c, 12, 47, 127
2, 217378, Note_off_c, 4, 76, 127
2, 217380, Note_on_c, 3, 75, 127
2, 217555, Note_off_c, 10, 69, 127
2, 217563, Note_off_c, 12, 59, 127
2, 217563, Note_off_c, 6, 66, 127
2, 217569, Note_off_c, 3, 75, 127
2, 217569, Note_off_c, 12, 47, 127
2, 217571, Note_on_c, 4, 76, 127
2, 217571, Note_on_c, 4, 52, 127
2, 217952, Note_on_c, 4, 40, 127
2, 218142, Note_on_c, 12, 71, 127
2, 218324, Note_off_c, 4, 52, 127
2, 218330, Note_off_c, 12, 71, 127
2, 218332, Note_on_c, 1, 73, 127
2, 218332, Note_on_c, 12, 47, 127
2, 218520, Note_off_c, 1, 73, 127
2, 218522, Note_on_c, 10, 69, 127
2, 218710, Note_off_c, 10, 69, 127
2, 218710, Note_off_c, 12, 47, 127
2, 218710, Note_off_c, 4, 76, 127
2, 218712, Note_on_c, 8, 68, 127
2, 218712, Note_on_c, 4, 52, 127
2, 218795, Note_on_c, 12, 71, 127
2, 218878, Note_on_c, 4, 76, 127
2, 219465, Note_off_c, 8, 68, 127
2, 219469, Note_off_c, 12, 71, 127
2, 219661, Note_off_c, 4, 76, 127
2, 219663, Note_off_c, 4, 52, 127
2, 219663, Note_on_c, 12, 71, 127
2, 219669, Note_off_c, 4, 40, 127
2, 219851, Note_off_c, 12, 71, 127
2, 219853, Note_on_c, 4, 64, 127
2, 219853, Note_on_c, 4, 40, 127
2, 219936, Note_on_c, 8, 68, 127
2, 220019, Note_on_c, 12, 71, 127
2, 220043, Note_on_c, 12, 47, 127
2, 220231, Note_off_c, 12, 47, 127
2, 220233, Note_on_c, 1, 49, 127
2, 220408, Note_off_c, 4, 64, 127
2, 220412, Note_off_c, 8, 68, 127
2, 220422, Note_off_c, 1, 49, 127
2, 220422, Note_off_c, 12, 71, 127
2, 220424, Note_on_c, 10, 69, 127
2, 220424, Note_on_c, 3, 51, 127
2, 220606, Note_off_c, 4, 40, 127
2, 220612, Note_off_c, 3, 51, 127
2, 220612, Note_off_c, 10, 69, 127
2, 220614, Note_on_c, 8, 68, 127
2, 220614, Note_on_c, 4, 52, 127
2, 220802, Note_off_c, 8, 68, 127
2, 220804, Note_on_c, 10, 69, 127
2, 220804, Note_on_c, 6, 54, 127
2, 220992, Note_off_c, 6, 54, 127
2, 220992, Note_off_c, 10, 69, 127
2, 220994, Note_on_c, 12, 71, 127
2, 220994, Note_on_c, 8, 56, 127
2, 221182, Note_off_c, 12, 71, 127
2, 221184, Note_on_c, 1, 73, 127
2, 221366, Note_off_c, 4, 52, 127
2, 221372, Note_off_c, 1, 73, 127
2, 221372, Note_off_c, 8, 56, 127
2, 221374, Note_on_c, 1, 73, 127
2, 221374, Note_on_c, 6, 54, 127
2, 221457, Note_on_c, 8, 56, 127
2, 221538, Note_off_c, 8, 56, 127
2, 221540, Note_on_c, 10, 57, 127
2, 221562, Note_off_c, 1, 73, 127
2, 221564, Note_on_c, 2, 74, 127
2, 221625, Note_off_c, 2, 74, 127
2, 221627, Note_on_c, 1, 73, 127
2, 221688, Note_off_c, 1, 73, 127
2, 221690, Note_on_c, 2, 74, 127
2, 221751, Note_off_c, 10, 57, 127
2, 221751, Note_off_c, 6, 54, 127
2, 221753, Note_on_c, 8, 56, 127
2, 221836, Note_on_c, 10, 57, 127
2, 221917, Note_off_c, 10, 57, 127
2, 221919, Note_on_c, 12, 59, 127
2, 221941, Note_off_c, 2, 74, 127
2, 221943, Note_on_c, 4, 76, 127
2, 222131, Note_off_c, 4, 76, 127
2, 222131, Note_off_c, 12, 59, 127
2, 222131, Note_off_c, 8, 56, 127
2, 222133, Note_on_c, 2, 74, 127
2, 222133, Note_on_c, 10, 57, 127
2, 222194, Note_off_c, 2, 74, 127
2, 222196, Note_on_c, 1, 73, 127
2, 222257, Note_off_c, 1, 73, 127
2, 222259, Note_on_c, 2, 74, 127
2, 222320, Note_off_c, 2, 74, 127
2, 222322, Note_on_c, 1, 73, 127
2, 222322, Note_on_c, 1, 61, 127
2, 222510, Note_off_c, 1, 61, 127
2, 222512, Note_on_c, 4, 64, 127
2, 222687, Note_off_c, 10, 57, 127
2, 222701, Note_off_c, 1, 73, 127
2, 222703, Note_on_c, 12, 71, 127
2, 222703, Note_on_c, 12, 59, 127
2, 222891, Note_off_c, 12, 59, 127
2, 222891, Note_off_c, 12, 71, 127
2, 222893, Note_on_c, 10, 69, 127
2, 222893, Note_on_c, 1, 61, 127
2, 223081, Note_off_c, 10, 69, 127
2, 223083, Note_on_c, 10, 81, 127
2, 223265, Note_off_c, 4, 64, 127
2, 223271, Note_off_c, 10, 81, 127
2, 223271, Note_off_c, 1, 61, 127
2, 223273, Note_on_c, 8, 80, 127
2, 223273, Note_on_c, 10, 57, 127
2, 223273, Note_on_c, 1, 61, 127
2, 223461, Note_off_c, 8, 80, 127
2, 223463, Note_on_c, 6, 78, 127
2, 223651, Note_off_c, 6, 78, 127
2, 223651, Note_off_c, 1, 61, 127
2, 223651, Note_off_c, 10, 57, 127
2, 223653, Note_on_c, 12, 83, 127
2, 223653, Note_on_c, 6, 66, 127
2, 223653, Note_on_c, 2, 62, 127
2, 223841, Note_off_c, 12, 83, 127
2, 223843, Note_on_c, 8, 80, 127
2, 224031, Note_off_c, 8, 80, 127
2, 224031, Note_off_c, 2, 62, 127
2, 224031, Note_off_c, 6, 66, 127
2, 224033, Note_on_c, 10, 81, 127
2, 224033, Note_on_c, 12, 59, 127
2, 224033, Note_on_c, 2, 62, 127
2, 224221, Note_off_c, 10, 81, 127
2, 224223, Note_on_c, 6, 78, 127
2, 224411, Note_off_c, 6, 78, 127
2, 224411, Note_off_c, 2, 62, 127
2, 224411, Note_off_c, 12, 59, 127
2, 224413, Note_on_c, 6, 78, 127
2, 224413, Note_on_c, 1, 61, 127
2, 224538, Note_off_c, 6, 78, 127
2, 224540, Note_on_c, 5, 77, 127
2, 224601, Note_off_c, 5, 77, 127
2, 224603, Note_on_c, 6, 78, 127
2, 224603, Note_on_c, 1, 73, 127
2, 224664, Note_off_c, 6, 78, 127
2, 224666, Note_on_c, 5, 77, 127
2, 224727, Note_off_c, 5, 77, 127
2, 224729, Note_on_c, 6, 78, 127
2, 224790, Note_off_c, 6, 78, 127
2, 224792, Note_on_c, 5, 77, 127
2, 224792, Note_on_c, 8, 68, 127
2, 224853, Note_off_c, 5, 77, 127
2, 224855, Note_on_c, 6, 78, 127
2, 224916, Note_off_c, 6, 78, 127
2, 224918, Note_on_c, 5, 77, 127
2, 224979, Note_off_c, 1, 61, 127
2, 224981, Note_on_c, 12, 59, 127
2, 225169, Note_off_c, 12, 59, 127
2, 225171, Note_on_c, 10, 57, 127
2, 225359, Note_off_c, 10, 57, 127
2, 225361, Note_on_c, 8, 56, 127
2, 225543, Note_off_c, 8, 68, 127
2, 225549, Note_off_c, 8, 56, 127
2, 225549, Note_off_c, 5, 77, 127
2, 225551, Note_off_c, 1, 73, 127
2, 225551, Note_on_c, 10, 69, 127
2, 225551, Note_on_c, 6, 54, 127
2, 225634, Note_on_c, 1, 73, 127
2, 225717, Note_on_c, 6, 78, 127
2, 225739, Note_off_c, 6, 54, 127
2, 225741, Note_on_c, 5, 53, 127
2, 225927, Note_off_c, 10, 69, 127
2, 225929, Note_off_c, 5, 53, 127
2, 225929, Note_off_c, 6, 78, 127
2, 225931, Note_off_c, 1, 73, 127
2, 225931, Note_on_c, 4, 76, 127
2, 225931, Note_on_c, 6, 54, 127
2, 226014, Note_on_c, 8, 56, 127
2, 226056, Note_off_c, 4, 76, 127
2, 226058, Note_on_c, 3, 75, 127
2, 226096, Note_off_c, 8, 56, 127
2, 226098, Note_on_c, 10, 57, 127
2, 226120, Note_off_c, 3, 75, 127
2, 226122, Note_on_c, 4, 76, 127
2, 226183, Note_off_c, 4, 76, 127
2, 226185, Note_on_c, 3, 75, 127
2, 226246, Note_off_c, 3, 75, 127
2, 226248, Note_on_c, 4, 76, 127
2, 226309, Note_off_c, 4, 76, 127
2, 226309, Note_off_c, 10, 57, 127
2, 226309, Note_off_c, 6, 54, 127
2, 226311, Note_on_c, 3, 75, 127
2, 226311, Note_on_c, 8, 56, 127
2, 226394, Note_on_c, 10, 57, 127
2, 226475, Note_off_c, 10, 57, 127
2, 226477, Note_on_c, 12, 59, 127
2, 226499, Note_off_c, 3, 75, 127
2, 226501, Note_on_c, 4, 76, 127
2, 226689, Note_off_c, 4, 76, 127
2, 226689, Note_off_c, 12, 59, 127
2, 226689, Note_off_c, 8, 56, 127
2, 226691, Note_on_c, 1, 73, 127
2, 226691, Note_on_c, 10, 57, 127
2, 226752, Note_off_c, 1, 73, 127
2, 226754, Note_on_c, 12, 71, 127
2, 226815, Note_off_c, 12, 71, 127
2, 226817, Note_on_c, 1, 73, 127
2, 226880, Note_on_c, 1, 61, 127
2, 227068, Note_off_c, 1, 61, 127
2, 227070, Note_on_c, 6, 66, 127
2, 227252, Note_off_c, 1, 73, 127
2, 227258, Note_off_c, 10, 57, 127
2, 227260, Note_on_c, 2, 74, 127
2, 227260, Note_on_c, 12, 59, 127
2, 227446, Note_off_c, 6, 66, 127
2, 227448, Note_off_c, 12, 59, 127
2, 227448, Note_off_c, 2, 74, 127
2, 227450, Note_on_c, 5, 65, 127
2, 227450, Note_on_c, 1, 73, 127
2, 227450, Note_on_c, 8, 56, 127
2, 227575, Note_off_c, 1, 73, 127
2, 227577, Note_on_c, 12, 71, 127
2, 227638, Note_off_c, 12, 71, 127
2, 227640, Note_on_c, 1, 73, 127
2, 227701, Note_off_c, 1, 73, 127
2, 227703, Note_on_c, 12, 71, 127
2, 227764, Note_off_c, 12, 71, 127
2, 227766, Note_on_c, 1, 73, 127
2, 227826, Note_off_c, 5, 65, 127
2, 227828, Note_off_c, 1, 73, 127
2, 227828, Note_off_c, 8, 56, 127
2, 227830, Note_on_c, 12, 71, 127
2, 227830, Note_on_c, 6, 66, 127
2, 227830, Note_on_c, 6, 54, 127
2, 228018, Note_off_c, 12, 71, 127
2, 228020, Note_on_c, 10, 69, 127
2, 228206, Note_off_c, 6, 66, 127
2, 228208, Note_off_c, 10, 69, 127
2, 228208, Note_off_c, 6, 54, 127
2, 228210, Note_on_c, 5, 65, 127
2, 228210, Note_on_c, 10, 69, 127
2, 228210, Note_on_c, 1, 61, 127
2, 228335, Note_off_c, 10, 69, 127
2, 228337, Note_on_c, 8, 68, 127
2, 228398, Note_off_c, 8, 68, 127
2, 228400, Note_on_c, 10, 69, 127
2, 228461, Note_off_c, 10, 69, 127
2, 228463, Note_on_c, 8, 68, 127
2, 228524, Note_off_c, 8, 68, 127
2, 228526, Note_on_c, 10, 69, 127
2, 228587, Note_off_c, 10, 69, 127
2, 228587, Note_off_c, 1, 61, 127
2, 228589, Note_on_c, 8, 68, 127
2, 228589, Note_on_c, 1, 49, 127
2, 228777, Note_off_c, 8, 68, 127
2, 228779, Note_on_c, 6, 66, 127
2, 228961, Note_off_c, 5, 65, 127
2, 228967, Note_off_c, 6, 66, 127
2, 228967, Note_off_c, 1, 49, 127
2, 228969, Note_on_c, 10, 57, 127
2, 228969, Note_on_c, 6, 42, 127
2, 229052, Note_on_c, 1, 61, 127
2, 229135, Note_on_c, 6, 66, 127
2, 229159, Note_on_c, 1, 49, 127
2, 229347, Note_off_c, 1, 49, 127
2, 229349, Note_on_c, 3, 51, 127
2, 229537, Note_off_c, 3, 51, 127
2, 229539, Note_on_c, 5, 53, 127
2, 229721, Note_off_c, 6, 42, 127
2, 229721, Note_off_c, 10, 57, 127
2, 229725, Note_off_c, 1, 61, 127
2, 229727, Note_off_c, 5, 53, 127
2, 229729, Note_on_c, 6, 54, 127
2, 229917, Note_off_c, 6, 66, 127
2, 229919, Note_on_c, 6, 78, 127
2, 229919, Note_on_c, 10, 57, 127
2, 230105, Note_off_c, 6, 54, 127
2, 230107, Note_off_c, 10, 57, 127
2, 230107, Note_off_c, 6, 78, 127
2, 230109, Note_on_c, 4, 76, 127
2, 230109, Note_on_c, 8, 56, 127
2, 230297, Note_off_c, 4, 76, 127
2, 230299, Note_on_c, 2, 74, 127
2, 230299, Note_on_c, 12, 59, 127
2, 230485, Note_off_c, 8, 56, 127
2, 230487, Note_off_c, 12, 59, 127
2, 230487, Note_off_c, 2, 74, 127
2, 230489, Note_on_c, 2, 74, 127
2, 230489, Note_on_c, 11, 58, 127
2, 230614, Note_off_c, 2, 74, 127
2, 230616, Note_on_c, 1, 73, 127
2, 230677, Note_off_c, 1, 73, 127
2, 230679, Note_on_c, 2, 74, 127
2, 230679, Note_on_c, 1, 61, 127
2, 230740, Note_off_c, 2, 74, 127
2, 230742, Note_on_c, 1, 73, 127
2, 230803, Note_off_c, 1, 73, 127
2, 230805, Note_on_c, 2, 74, 127
2, 230865, Note_off_c, 11, 58, 127
2, 230867, Note_off_c, 2, 74, 127
2, 230869, Note_on_c, 1, 73, 127
2, 230869, Note_on_c, 6, 54, 127
2, 231057, Note_off_c, 1, 73, 127
2, 231059, Note_on_c, 2, 74, 127
2, 231234, Note_off_c, 1, 61, 127
2, 231248, Note_off_c, 2, 74, 127
2, 231248, Note_off_c, 6, 54, 127
2, 231250, Note_on_c, 4, 76, 127
2, 231250, Note_on_c, 12, 59, 127
2, 231438, Note_off_c, 4, 76, 127
2, 231440, Note_on_c, 2, 74, 127
2, 231628, Note_off_c, 2, 74, 127
2, 231630, Note_on_c, 1, 73, 127
2, 231818, Note_off_c, 1, 73, 127
2, 231818, Note_off_c, 12, 59, 127
2, 231820, Note_on_c, 12, 71, 127
2, 231820, Note_on_c, 1, 61, 127
2, 232008, Note_off_c, 1, 61, 127
2, 232008, Note_off_c, 12, 71, 127
2, 232010, Note_on_c, 12, 83, 127
2, 232010, Note_on_c, 2, 62, 127
2, 232071, Note_off_c, 12, 83, 127
2, 232073, Note_on_c, 10, 81, 127
2, 232134, Note_off_c, 10, 81, 127
2, 232136, Note_on_c, 12, 83, 127
2, 232197, Note_off_c, 2, 62, 127
2, 232199, Note_on_c, 6, 66, 127
2, 232387, Note_off_c, 6, 66, 127
2, 232389, Note_on_c, 4, 64, 127
2, 232577, Note_off_c, 4, 64, 127
2, 232577, Note_off_c, 12, 83, 127
2, 232579, Note_on_c, 8, 80, 127
2, 232579, Note_on_c, 2, 62, 127
2, 232767, Note_off_c, 2, 62, 127
2, 232767, Note_off_c, 8, 80, 127
2, 232769, Note_on_c, 8, 80, 127
2, 232769, Note_on_c, 1, 61, 127
2, 232852, Note_on_c, 2, 62, 127
2, 232933, Note_off_c, 2, 62, 127
2, 232935, Note_on_c, 4, 64, 127
2, 232957, Note_off_c, 8, 80, 127
2, 232959, Note_on_c, 10, 81, 127
2, 233020, Note_off_c, 10, 81, 127
2, 233022, Note_on_c, 8, 80, 127
2, 233083, Note_off_c, 8, 80, 127
2, 233085, Note_on_c, 10, 81, 127
2, 233146, Note_off_c, 4, 64, 127
2, 233146, Note_off_c, 1, 61, 127
2, 233148, Note_on_c, 3, 63, 127
2, 233231, Note_on_c, 4, 64, 127
2, 233312, Note_off_c, 4, 64, 127
2, 233314, Note_on_c, 6, 66, 127
2, 233336, Note_off_c, 10, 81, 127
2, 233338, Note_on_c, 12, 83, 127
2, 233526, Note_off_c, 12, 83, 127
2, 233526, Note_off_c, 6, 66, 127
2, 233526, Note_off_c, 3, 63, 127
2, 233528, Note_on_c, 10, 81, 127
2, 233528, Note_on_c, 4, 64, 127
2, 233653, Note_off_c, 10, 81, 127
2, 233655, Note_on_c, 8, 80, 127
2, 233716, Note_off_c, 8, 80, 127
2, 233718, Note_on_c, 10, 81, 127
2, 233718, Note_on_c, 8, 68, 127
2, 233779, Note_off_c, 10, 81, 127
2, 233781, Note_on_c, 8, 80, 127
2, 233842, Note_off_c, 8, 80, 127
2, 233844, Note_on_c, 10, 81, 127
2, 233905, Note_off_c, 10, 81, 127
2, 233907, Note_on_c, 8, 80, 127
2, 233907, Note_on_c, 12, 71, 127
2, 234082, Note_off_c, 4, 64, 127
2, 234096, Note_off_c, 8, 80, 127
2, 234096, Note_off_c, 8, 68, 127
2, 234098, Note_on_c, 6, 78, 127
2, 234098, Note_on_c, 2, 62, 127
2, 234284, Note_off_c, 12, 71, 127
2, 234286, Note_off_c, 2, 62, 127
2, 234286, Note_off_c, 6, 78, 127
2, 234288, Note_on_c, 4, 76, 127
2, 234288, Note_on_c, 1, 61, 127
2, 234476, Note_off_c, 1, 61, 127
2, 234476, Note_off_c, 4, 76, 127
2, 234478, Note_on_c, 2, 74, 127
2, 234478, Note_on_c, 12, 59, 127
2, 234666, Note_off_c, 12, 59, 127
2, 234666, Note_off_c, 2, 74, 127
2, 234668, Note_on_c, 1, 73, 127
2, 234668, Note_on_c, 10, 57, 127
2, 234856, Note_off_c, 10, 57, 127
2, 234856, Note_off_c, 1, 73, 127
2, 234858, Note_on_c, 12, 71, 127
2, 234858, Note_on_c, 8, 56, 127
2, 235046, Note_off_c, 8, 56, 127
2, 235046, Note_off_c, 12, 71, 127
2, 235048, Note_on_c, 10, 69, 127
2, 235048, Note_on_c, 6, 54, 127
2, 235236, Note_off_c, 6, 54, 127
2, 235236, Note_off_c, 10, 69, 127
2, 235238, Note_on_c, 8, 68, 127
2, 235238, Note_on_c, 4, 52, 127
2, 235426, Note_off_c, 4, 52, 127
2, 235426, Note_off_c, 8, 68, 127
2, 235428, Note_on_c, 10, 69, 127
2, 235428, Note_on_c, 2, 50, 127
2, 235616, Note_off_c, 2, 50, 127
2, 235616, Note_off_c, 10, 69, 127
2, 235618, Note_on_c, 6, 66, 127
2, 235618, Note_on_c, 1, 49, 127
2, 235806, Note_off_c, 1, 49, 127
2, 235806, Note_off_c, 6, 66, 127
2, 235808, Note_on_c, 2, 74, 127
2, 235808, Note_on_c, 12, 47, 127
2, 235869, Note_off_c, 2, 74, 127
2, 235871, Note_on_c, 1, 73, 127
2, 235932, Note_off_c, 1, 73, 127
2, 235934, Note_on_c, 2, 74, 127
2, 235995, Note_off_c, 12, 47, 127
2, 235997, Note_on_c, 10, 45, 127
2, 236185, Note_off_c, 10, 45, 127
2, 236187, Note_on_c, 12, 47, 127
2, 236375, Note_off_c, 12, 47, 127
2, 236375, Note_off_c, 2, 74, 127
2, 236377, Note_on_c, 4, 76, 127
2, 236377, Note_on_c, 8, 44, 127
2, 236565, Note_off_c, 8, 44, 127
2, 236565, Note_off_c, 4, 76, 127
2, 236567, Note_on_c, 2, 74, 127
2, 236567, Note_on_c, 10, 45, 127
2, 236692, Note_off_c, 2, 74, 127
2, 236694, Note_on_c, 1, 73, 127
2, 236755, Note_off_c, 1, 73, 127
2, 236757, Note_on_c, 2, 74, 127
2, 236818, Note_off_c, 2, 74, 127
2, 236820, Note_on_c, 1, 73, 127
2, 236881, Note_off_c, 1, 73, 127
2, 236883, Note_on_c, 2, 74, 127
2, 236944, Note_off_c, 2, 74, 127
2, 236944, Note_off_c, 10, 45, 127
2, 236946, Note_on_c, 1, 73, 127
2, 236946, Note_on_c, 10, 69, 127
2, 236946, Note_on_c, 2, 50, 127
2, 237134, Note_off_c, 1, 73, 127
2, 237136, Note_on_c, 12, 71, 127
2, 237322, Note_off_c, 10, 69, 127
2, 237324, Note_off_c, 12, 71, 127
2, 237324, Note_off_c, 2, 50, 127
2, 237326, Note_on_c, 1, 73, 127
2, 237326, Note_on_c, 8, 68, 127
2, 237326, Note_on_c, 4, 52, 127
2, 237451, Note_off_c, 1, 73, 127
2, 237453, Note_on_c, 12, 71, 127
2, 237514, Note_off_c, 12, 71, 127
2, 237516, Note_on_c, 1, 73, 127
2, 237577, Note_off_c, 1, 73, 127
2, 237579, Note_on_c, 12, 71, 127
2, 237640, Note_off_c, 12, 71, 127
2, 237642, Note_on_c, 1, 73, 127
2, 237703, Note_off_c, 1, 73, 127
2, 237705, Note_on_c, 12, 71, 127
2, 237705, Note_on_c, 1, 49, 127
2, 237893, Note_off_c, 12, 71, 127
2, 237895, Note_on_c, 10, 69, 127
2, 238077, Note_off_c, 4, 52, 127
2, 238077, Note_off_c, 8, 68, 127
2, 238083, Note_off_c, 10, 69, 127
2, 238083, Note_off_c, 1, 49, 127
2, 238085, Note_on_c, 10, 69, 127
2, 238085, Note_on_c, 6, 54, 127
2, 238273, Note_off_c, 6, 54, 127
2, 238275, Note_on_c, 8, 56, 127
2, 238463, Note_off_c, 8, 56, 127
2, 238465, Note_on_c, 6, 54, 127
2, 238653, Note_off_c, 6, 54, 127
2, 238655, Note_on_c, 8, 68, 127
2, 238655, Note_on_c, 4, 52, 127
2, 238843, Note_off_c, 4, 52, 127
2, 238843, Note_off_c, 8, 68, 127
2, 238845, Note_on_c, 6, 66, 127
2, 238845, Note_on_c, 2, 50, 127
2, 239033, Note_off_c, 2, 50, 127
2, 239033, Note_off_c, 6, 66, 127
2, 239035, Note_on_c, 4, 64, 127
2, 239035, Note_on_c, 1, 49, 127
2, 239223, Note_off_c, 1, 49, 127
2, 239223, Note_off_c, 4, 64, 127
2, 239225, Note_on_c, 2, 62, 127
2, 239225, Note_on_c, 12, 47, 127
2, 239413, Note_off_c, 12, 47, 127
2, 239413, Note_off_c, 2, 62, 127
2, 239415, Note_on_c, 1, 61, 127
2, 239415, Note_on_c, 10, 45, 127
2, 239603, Note_off_c, 10, 45, 127
2, 239603, Note_off_c, 1, 61, 127
2, 239603, Note_off_c, 10, 69, 127
2, 239605, Note_on_c, 12, 59, 127
2, 239605, Note_on_c, 4, 52, 127
2, 239795, Note_on_c, 2, 62, 127
2, 239985, Note_on_c, 10, 69, 127
2, 239985, Note_on_c, 4, 40, 127
2, 240173, Note_off_c, 10, 69, 127
2, 240175, Note_on_c, 8, 68, 127
2, 240350, Note_off_c, 2, 62, 127
2, 240358, Note_off_c, 4, 52, 127
2, 240358, Note_off_c, 12, 59, 127
2, 240364, Note_off_c, 8, 68, 127
2, 240364, Note_off_c, 4, 40, 127
2, 240366, Note_on_c, 10, 69, 127
2, 240366, Note_on_c, 10, 45, 127
2, 240747, Note_on_c, 10, 33, 127
2, 240937, Note_on_c, 4, 64, 127
2, 241119, Note_off_c, 10, 45, 127
2, 241125, Note_off_c, 4, 64, 127
2, 241127, Note_on_c, 6, 66, 127
2, 241127, Note_on_c, 4, 40, 127
2, 241315, Note_off_c, 6, 66, 127
2, 241317, Note_on_c, 2, 62, 127
2, 241505, Note_off_c, 2, 62, 127
2, 241505, Note_off_c, 4, 40, 127
2, 241505, Note_off_c, 10, 69, 127
2, 241507, Note_on_c, 1, 61, 127
2, 241507, Note_on_c, 10, 45, 127
2, 241590, Note_on_c, 4, 64, 127
2, 241673, Note_on_c, 10, 69, 127
2, 242260, Note_off_c, 10, 45, 127
2, 242266, Note_off_c, 10, 33, 127
2, 242446, Note_off_c, 10, 69, 127
2, 242458, Note_off_c, 1, 61, 127
2, 242458, Note_on_c, 10, 69, 127
2, 242462, Note_off_c, 4, 64, 127
2, 242646, Note_off_c, 10, 69, 127
2, 242648, Note_on_c, 10, 69, 127
2, 242648, Note_on_c, 10, 45, 127
2, 242838, Note_on_c, 4, 64, 127
2, 243028, Note_on_c, 1, 61, 127
2, 243216, Note_off_c, 10, 45, 127
2, 243218, Note_on_c, 12, 47, 127
2, 243311, Note_off_c, 12, 47, 127
2, 243313, Note_on_c, 1, 49, 127
2, 243406, Note_off_c, 1, 49, 127
2, 243408, Note_on_c, 12, 47, 127
2, 243596, Note_off_c, 12, 47, 127
2, 243598, Note_on_c, 1, 49, 127
2, 243691, Note_off_c, 1, 49, 127
2, 243693, Note_on_c, 2, 50, 127
2, 243786, Note_off_c, 2, 50, 127
2, 243786, Note_off_c, 1, 61, 127
2, 243786, Note_off_c, 10, 69, 127
2, 243788, Note_off_c, 4, 64, 127
2, 243788, Note_on_c, 4, 64, 127
2, 243788, Note_on_c, 1, 49, 127
2, 244167, Note_off_c, 1, 49, 127
2, 244167, Note_off_c, 4, 64, 127
2, 244169, Note_on_c, 6, 66, 127
2, 244169, Note_on_c, 1, 49, 127
2, 244230, Note_off_c, 6, 66, 127
2, 244232, Note_on_c, 4, 64, 127
2, 244293, Note_off_c, 4, 64, 127
2, 244293, Note_off_c, 1, 49, 127
2, 244295, Note_on_c, 6, 66, 127
2, 244295, Note_on_c, 12, 47, 127
2, 244356, Note_off_c, 12, 47, 127
2, 244358, Note_on_c, 1, 49, 127
2, 244419, Note_off_c, 1, 49, 127
2, 244421, Note_on_c, 12, 47, 127
2, 244546, Note_off_c, 12, 47, 127
2, 244548, Note_on_c, 10, 45, 127
2, 244736, Note_off_c, 6, 66, 127
2, 244738, Note_on_c, 7, 67, 127
2, 244926, Note_off_c, 7, 67, 127
2, 244926, Note_off_c, 10, 45, 127
2, 244928, Note_on_c, 7, 67, 127
2, 244928, Note_on_c, 2, 50, 127
2, 245053, Note_off_c, 7, 67, 127
2, 245055, Note_on_c, 6, 66, 127
2, 245116, Note_off_c, 6, 66, 127
2, 245118, Note_on_c, 7, 67, 127
2, 245179, Note_off_c, 7, 67, 127
2, 245181, Note_on_c, 6, 66, 127
2, 245242, Note_off_c, 6, 66, 127
2, 245244, Note_on_c, 7, 67, 127
2, 245305, Note_off_c, 7, 67, 127
2, 245305, Note_off_c, 2, 50, 127
2, 245307, Note_on_c, 6, 66, 127
2, 245307, Note_on_c, 2, 50, 127
2, 245432, Note_off_c, 2, 50, 127
2, 245434, Note_on_c, 1, 49, 127
2, 245495, Note_off_c, 1, 49, 127
2, 245495, Note_off_c, 6, 66, 127
2, 245497, Note_on_c, 10, 69, 127
2, 245497, Note_on_c, 2, 50, 127
2, 245558, Note_off_c, 2, 50, 127
2, 245560, Note_on_c, 1, 49, 127
2, 245685, Note_off_c, 1, 49, 127
2, 245685, Note_off_c, 10, 69, 127
2, 245687, Note_on_c, 2, 74, 127
2, 245687, Note_on_c, 12, 47, 127
2, 245780, Note_off_c, 2, 74, 127
2, 245782, Note_on_c, 1, 73, 127
2, 245875, Note_off_c, 1, 73, 127
2, 245877, Note_on_c, 2, 74, 127
2, 246065, Note_off_c, 12, 47, 127
2, 246067, Note_on_c, 8, 56, 127
2, 246255, Note_off_c, 2, 74, 127
2, 246257, Note_on_c, 4, 76, 127
2, 246445, Note_off_c, 4, 76, 127
2, 246445, Note_off_c, 8, 56, 127
2, 246447, Note_on_c, 2, 74, 127
2, 246447, Note_on_c, 10, 57, 127
2, 246508, Note_off_c, 10, 57, 127
2, 246510, Note_on_c, 8, 56, 127
2, 246571, Note_off_c, 8, 56, 127
2, 246571, Note_off_c, 2, 74, 127
2, 246573, Note_on_c, 1, 73, 127
2, 246573, Note_on_c, 10, 57, 127
2, 246634, Note_off_c, 1, 73, 127
2, 246636, Note_on_c, 2, 74, 127
2, 246697, Note_off_c, 2, 74, 127
2, 246699, Note_on_c, 1, 73, 127
2, 246760, Note_off_c, 1, 73, 127
2, 246762, Note_on_c, 2, 74, 127
2, 246823, Note_off_c, 2, 74, 127
2, 246823, Note_off_c, 10, 57, 127
2, 246825, Note_on_c, 1, 73, 127
2, 246825, Note_on_c, 10, 45, 127
2, 247013, Note_off_c, 1, 73, 127
2, 247015, Note_on_c, 12, 71, 127
2, 247203, Note_off_c, 12, 71, 127
2, 247203, Note_off_c, 10, 45, 127
2, 247205, Note_on_c, 12, 71, 127
2, 247205, Note_on_c, 4, 52, 127
2, 247395, Note_on_c, 8, 68, 127
2, 247585, Note_on_c, 4, 64, 127
2, 247773, Note_off_c, 4, 52, 127
2, 247775, Note_on_c, 6, 54, 127
2, 247868, Note_off_c, 6, 54, 127
2, 247870, Note_on_c, 8, 56, 127
2, 247963, Note_off_c, 8, 56, 127
2, 247965, Note_on_c, 6, 54, 127
2, 248153, Note_off_c, 6, 54, 127
2, 248155, Note_on_c, 8, 56, 127
2, 248248, Note_off_c, 8, 56, 127
2, 248250, Note_on_c, 10, 57, 127
2, 248343, Note_off_c, 10, 57, 127
2, 248343, Note_off_c, 4, 64, 127
2, 248343, Note_off_c, 12, 71, 127
2, 248345, Note_off_c, 8, 68, 127
2, 248345, Note_on_c, 4, 76, 127
2, 248345, Note_on_c, 8, 56, 127
2, 248406, Note_off_c, 4, 76, 127
2, 248408, Note_on_c, 2, 74, 127
2, 248469, Note_off_c, 2, 74, 127
2, 248471, Note_on_c, 4, 76, 127
2, 248723, Note_off_c, 4, 76, 127
2, 248723, Note_off_c, 8, 56, 127
2, 248725, Note_on_c, 4, 76, 127
2, 248725, Note_on_c, 8, 56, 127
2, 248850, Note_off_c, 8, 56, 127
2, 248850, Note_off_c, 4, 76, 127
2, 248852, Note_on_c, 2, 74, 127
2, 248852, Note_on_c, 6, 54, 127
2, 248913, Note_off_c, 6, 54, 127
2, 248913, Note_off_c, 2, 74, 127
2, 248915, Note_on_c, 4, 76, 127
2, 248915, Note_on_c, 8, 56, 127
2, 248976, Note_off_c, 8, 56, 127
2, 248976, Note_off_c, 4, 76, 127
2, 248978, Note_on_c, 2, 74, 127
2, 248978, Note_on_c, 6, 54, 127
2, 249039, Note_off_c, 2, 74, 127
2, 249041, Note_on_c, 4, 76, 127
2, 249102, Note_off_c, 4, 76, 127
2, 249102, Note_off_c, 6, 54, 127
2, 249104, Note_on_c, 2, 74, 127
2, 249104, Note_on_c, 4, 52, 127
2, 249292, Note_off_c, 2, 74, 127
2, 249294, Note_on_c, 4, 76, 127
2, 249482, Note_off_c, 4, 76, 127
2, 249482, Note_off_c, 4, 52, 127
2, 249484, Note_on_c, 2, 74, 127
2, 249484, Note_on_c, 10, 57, 127
2, 249545, Note_off_c, 2, 74, 127
2, 249547, Note_on_c, 1, 73, 127
2, 249608, Note_off_c, 1, 73, 127
2, 249610, Note_on_c, 2, 74, 127
2, 249671, Note_off_c, 2, 74, 127
2, 249673, Note_on_c, 1, 73, 127
2, 249861, Note_off_c, 10, 57, 127
2, 249863, Note_on_c, 12, 59, 127
2, 250051, Note_off_c, 1, 73, 127
2, 250053, Note_on_c, 12, 71, 127
2, 250241, Note_off_c, 12, 71, 127
2, 250241, Note_off_c, 12, 59, 127
2, 250243, Note_on_c, 10, 69, 127
2, 250243, Note_on_c, 1, 61, 127
2, 250431, Note_off_c, 10, 69, 127
2, 250433, Note_on_c, 1, 73, 127
2, 250621, Note_off_c, 1, 73, 127
2, 250621, Note_off_c, 1, 61, 127
2, 250623, Note_on_c, 6, 78, 127
2, 250623, Note_on_c, 6, 54, 127
2, 250623, Note_on_c, 10, 57, 127
2, 251002, Note_off_c, 10, 57, 127
2, 251002, Note_off_c, 6, 54, 127
2, 251002, Note_off_c, 6, 78, 127
2, 251004, Note_on_c, 6, 78, 127
2, 251004, Note_on_c, 12, 59, 127
2, 251004, Note_on_c, 8, 56, 127
2, 251129, Note_off_c, 6, 78, 127
2, 251131, Note_on_c, 4, 76, 127
2, 251192, Note_off_c, 4, 76, 127
2, 251194, Note_on_c, 6, 78, 127
2, 251255, Note_off_c, 6, 78, 127
2, 251257, Note_on_c, 4, 76, 127
2, 251318, Note_off_c, 4, 76, 127
2, 251320, Note_on_c, 6, 78, 127
2, 251381, Note_off_c, 6, 78, 127
2, 251381, Note_off_c, 8, 56, 127
2, 251381, Note_off_c, 12, 59, 127
2, 251383, Note_on_c, 4, 76, 127
2, 251383, Note_on_c, 1, 61, 127
2, 251383, Note_on_c, 11, 58, 127
2, 251571, Note_off_c, 4, 76, 127
2, 251573, Note_on_c, 6, 78, 127
2, 251761, Note_off_c, 6, 78, 127
2, 251761, Note_off_c, 11, 58, 127
2, 251761, Note_off_c, 1, 61, 127
2, 251763, Note_on_c, 4, 76, 127
2, 251763, Note_on_c, 12, 59, 127
2, 251824, Note_off_c, 4, 76, 127
2, 251826, Note_on_c, 3, 75, 127
2, 251887, Note_off_c, 3, 75, 127
2, 251889, Note_on_c, 4, 76, 127
2, 251950, Note_off_c, 4, 76, 127
2, 251952, Note_on_c, 3, 75, 127
2, 252140, Note_off_c, 12, 59, 127
2, 252142, Note_on_c, 1, 61, 127
2, 252330, Note_off_c, 3, 75, 127
2, 252332, Note_on_c, 1, 73, 127
2, 252520, Note_off_c, 1, 73, 127
2, 252520, Note_off_c, 1, 61, 127
2, 252522, Note_on_c, 12, 71, 127
2, 252522, Note_on_c, 3, 63, 127
2, 252712, Note_on_c, 6, 78, 127
2, 252900, Note_off_c, 6, 78, 127
2, 252900, Note_off_c, 3, 63, 127
2, 252902, Note_on_c, 12, 83, 127
2, 252902, Note_on_c, 8, 56, 127
2, 253275, Note_off_c, 12, 71, 127
2, 253281, Note_off_c, 8, 56, 127
2, 253281, Note_off_c, 12, 83, 127
2, 253283, Note_on_c, 4, 76, 127
2, 253283, Note_on_c, 12, 83, 127
2, 253283, Note_on_c, 1, 61, 127
2, 253408, Note_off_c, 12, 83, 127
2, 253410, Note_on_c, 10, 81, 127
2, 253471, Note_off_c, 10, 81, 127
2, 253473, Note_on_c, 12, 83, 127
2, 253534, Note_off_c, 12, 83, 127
2, 253536, Note_on_c, 10, 81, 127
2, 253597, Note_off_c, 10, 81, 127
2, 253599, Note_on_c, 12, 83, 127
2, 253659, Note_off_c, 4, 76, 127
2, 253661, Note_off_c, 12, 83, 127
2, 253661, Note_off_c, 1, 61, 127
2, 253663, Note_on_c, 10, 81, 127
2, 253663, Note_on_c, 6, 78, 127
2, 253663, Note_on_c, 3, 63, 127
2, 253851, Note_off_c, 10, 81, 127
2, 253853, Note_on_c, 12, 83, 127
2, 254039, Note_off_c, 6, 78, 127
2, 254041, Note_off_c, 12, 83, 127
2, 254041, Note_off_c, 3, 63, 127
2, 254043, Note_on_c, 12, 71, 127
2, 254043, Note_on_c, 10, 81, 127
2, 254043, Note_on_c, 4, 64, 127
2, 254168, Note_off_c, 10, 81, 127
2, 254170, Note_on_c, 8, 80, 127
2, 254231, Note_off_c, 8, 80, 127
2, 254233, Note_on_c, 10, 81, 127
2, 254294, Note_off_c, 10, 81, 127
2, 254296, Note_on_c, 8, 80, 127
2, 254357, Note_off_c, 8, 80, 127
2, 254359, Note_on_c, 10, 81, 127
2, 254420, Note_off_c, 10, 81, 127
2, 254420, Note_off_c, 4, 64, 127
2, 254422, Note_on_c, 8, 80, 127
2, 254422, Note_on_c, 4, 52, 127
2, 254610, Note_off_c, 4, 52, 127
2, 254610, Note_off_c, 8, 80, 127
2, 254612, Note_on_c, 10, 81, 127
2, 254612, Note_on_c, 6, 54, 127
2, 254800, Note_off_c, 6, 54, 127
2, 254800, Note_off_c, 10, 81, 127
2, 254802, Note_on_c, 12, 83, 127
2, 254802, Note_on_c, 8, 56, 127
2, 254990, Note_off_c, 12, 83, 127
2, 254992, Note_on_c, 8, 80, 127
2, 255180, Note_off_c, 8, 80, 127
2, 255180, Note_off_c, 8, 56, 127
2, 255182, Note_on_c, 10, 81, 127
2, 255182, Note_on_c, 4, 52, 127
2, 255370, Note_off_c, 10, 81, 127
2, 255372, Note_on_c, 12, 83, 127
2, 255560, Note_off_c, 12, 83, 127
2, 255560, Note_off_c, 4, 52, 127
2, 255560, Note_off_c, 12, 71, 127
2, 255562, Note_on_c, 2, 74, 127
2, 255562, Note_on_c, 10, 57, 127
2, 255623, Note_off_c, 2, 74, 127
2, 255625, Note_on_c, 1, 73, 127
2, 255686, Note_off_c, 1, 73, 127
2, 255688, Note_on_c, 2, 74, 127
2, 255749, Note_off_c, 2, 74, 127
2, 255751, Note_on_c, 1, 73, 127
2, 255751, Note_on_c, 12, 71, 127
2, 255812, Note_off_c, 1, 73, 127
2, 255814, Note_on_c, 2, 74, 127
2, 255875, Note_off_c, 2, 74, 127
2, 255877, Note_on_c, 1, 73, 127
2, 255938, Note_off_c, 12, 71, 127
2, 255938, Note_off_c, 10, 57, 127
2, 255940, Note_on_c, 10, 69, 127
2, 255940, Note_on_c, 6, 54, 127
2, 256115, Note_off_c, 1, 73, 127
2, 256131, Note_on_c, 10, 81, 127
2, 256319, Note_off_c, 10, 81, 127
2, 256319, Note_off_c, 6, 54, 127
2, 256321, Note_on_c, 4, 76, 127
2, 256321, Note_on_c, 12, 59, 127
2, 256446, Note_off_c, 4, 76, 127
2, 256448, Note_on_c, 3, 75, 127
2, 256509, Note_off_c, 3, 75, 127
2, 256509, Note_off_c, 12, 59, 127
2, 256511, Note_on_c, 4, 76, 127
2, 256511, Note_on_c, 1, 61, 127
2, 256572, Note_off_c, 4, 76, 127
2, 256574, Note_on_c, 3, 75, 127
2, 256635, Note_off_c, 3, 75, 127
2, 256637, Note_on_c, 4, 76, 127
2, 256698, Note_off_c, 4, 76, 127
2, 256698, Note_off_c, 1, 61, 127
2, 256700, Note_on_c, 3, 75, 127
2, 256700, Note_on_c, 12, 59, 127
2, 256888, Note_off_c, 12, 59, 127
2, 256888, Note_off_c, 3, 75, 127
2, 256890, Note_on_c, 1, 73, 127
2, 256890, Note_on_c, 10, 57, 127
2, 257078, Note_off_c, 10, 57, 127
2, 257078, Note_off_c, 1, 73, 127
2, 257078, Note_off_c, 10, 69, 127
2, 257080, Note_on_c, 12, 71, 127
2, 257080, Note_on_c, 8, 56, 127
2, 257268, Note_off_c, 8, 56, 127
2, 257268, Note_off_c, 12, 71, 127
2, 257270, Note_on_c, 10, 69, 127
2, 257270, Note_on_c, 6, 54, 127
2, 257458, Note_off_c, 6, 54, 127
2, 257458, Note_off_c, 10, 69, 127
2, 257460, Note_on_c, 8, 68, 127
2, 257460, Note_on_c, 4, 52, 127
2, 257648, Note_off_c, 8, 68, 127
2, 257650, Note_on_c, 4, 76, 127
2, 257838, Note_off_c, 4, 76, 127
2, 257838, Note_off_c, 4, 52, 127
2, 257840, Note_on_c, 8, 68, 127
2, 257840, Note_on_c, 3, 63, 127
2, 257840, Note_on_c, 12, 59, 127
2, 257965, Note_off_c, 8, 68, 127
2, 257967, Note_on_c, 6, 66, 127
2, 258028, Note_off_c, 6, 66, 127
2, 258030, Note_on_c, 8, 68, 127
2, 258091, Note_off_c, 8, 68, 127
2, 258093, Note_on_c, 6, 66, 127
2, 258154, Note_off_c, 6, 66, 127
2, 258156, Note_on_c, 8, 68, 127
2, 258217, Note_off_c, 8, 68, 127
2, 258219, Note_on_c, 6, 66, 127
2, 258219, Note_on_c, 12, 47, 127
2, 258407, Note_off_c, 6, 66, 127
2, 258409, Note_on_c, 4, 64, 127
2, 258591, Note_off_c, 12, 59, 127
2, 258591, Note_off_c, 3, 63, 127
2, 258597, Note_off_c, 4, 64, 127
2, 258597, Note_off_c, 12, 47, 127
2, 258599, Note_on_c, 4, 64, 127
2, 258599, Note_on_c, 4, 52, 127
2, 258980, Note_on_c, 4, 40, 127
2, 259353, Note_off_c, 4, 52, 127
2, 259361, Note_on_c, 12, 47, 127
2, 259740, Note_off_c, 12, 47, 127
2, 259742, Note_on_c, 8, 56, 127
2, 259742, Note_on_c, 12, 59, 127
2, 259742, Note_on_c, 4, 52, 127
2, 260496, Note_off_c, 4, 52, 127
2, 260502, Note_off_c, 4, 40, 127
2, 260504, Note_off_c, 4, 64, 127
2, 260684, Note_on_c, 12, 71, 127
2, 260692, Note_off_c, 12, 59, 127
2, 260692, Note_off_c, 8, 56, 127
2, 260872, Note_off_c, 12, 71, 127
2, 260884, Note_on_c, 12, 71, 127
2, 260884, Note_on_c, 4, 40, 127
2, 261074, Note_on_c, 8, 68, 127
2, 261264, Note_on_c, 4, 64, 127
2, 261357, Note_off_c, 4, 40, 127
2, 261359, Note_on_c, 12, 47, 127
2, 261452, Note_off_c, 12, 47, 127
2, 261454, Note_on_c, 1, 49, 127
2, 261547, Note_off_c, 1, 49, 127
2, 261549, Note_on_c, 2, 50, 127
2, 261642, Note_off_c, 2, 50, 127
2, 261644, Note_on_c, 1, 49, 127
2, 261832, Note_off_c, 1, 49, 127
2, 261834, Note_on_c, 2, 50, 127
2, 261927, Note_off_c, 2, 50, 127
2, 261929, Note_on_c, 4, 52, 127
2, 262022, Note_off_c, 4, 52, 127
2, 262022, Note_off_c, 4, 64, 127
2, 262022, Note_off_c, 12, 71, 127
2, 262024, Note_off_c, 8, 68, 127
2, 262024, Note_on_c, 4, 64, 127
2, 262024, Note_on_c, 8, 68, 127
2, 262024, Note_on_c, 2, 50, 127
2, 262403, Note_off_c, 2, 50, 127
2, 262403, Note_off_c, 8, 68, 127
2, 262403, Note_off_c, 4, 64, 127
2, 262405, Note_on_c, 6, 66, 127
2, 262405, Note_on_c, 8, 68, 127
2, 262405, Note_on_c, 2, 50, 127
2, 262530, Note_off_c, 2, 50, 127
2, 262532, Note_on_c, 1, 49, 127
2, 262593, Note_off_c, 1, 49, 127
2, 262593, Note_off_c, 8, 68, 127
2, 262595, Note_on_c, 10, 69, 127
2, 262595, Note_on_c, 2, 50, 127
2, 262656, Note_off_c, 2, 50, 127
2, 262656, Note_off_c, 10, 69, 127
2, 262658, Note_on_c, 8, 68, 127
2, 262658, Note_on_c, 1, 49, 127
2, 262719, Note_off_c, 8, 68, 127
2, 262721, Note_on_c, 10, 69, 127
2, 262782, Note_off_c, 1, 49, 127
2, 262784, Note_on_c, 12, 47, 127
2, 262959, Note_off_c, 6, 66, 127
2, 262973, Note_off_c, 10, 69, 127
2, 262975, Note_on_c, 12, 71, 127
2, 262975, Note_on_c, 8, 68, 127
2, 263163, Note_off_c, 8, 68, 127
2, 263163, Note_off_c, 12, 71, 127
2, 263163, Note_off_c, 12, 47, 127
2, 263165, Note_on_c, 10, 69, 127
2, 263165, Note_on_c, 1, 73, 127
2, 263165, Note_on_c, 10, 45, 127
2, 263544, Note_off_c, 10, 45, 127
2, 263546, Note_on_c, 1, 49, 127
2, 263734, Note_off_c, 1, 73, 127
2, 263734, Note_off_c, 10, 69, 127
2, 263736, Note_on_c, 10, 69, 127
2, 263924, Note_off_c, 1, 49, 127
2, 263926, Note_on_c, 6, 78, 127
2, 263926, Note_on_c, 2, 50, 127
2, 263987, Note_off_c, 6, 78, 127
2, 263989, Note_on_c, 4, 76, 127
2, 264050, Note_off_c, 4, 76, 127
2, 264052, Note_on_c, 6, 78, 127
2, 264290, Note_off_c, 10, 69, 127
2, 264304, Note_off_c, 2, 50, 127
2, 264306, Note_on_c, 12, 71, 127
2, 264306, Note_on_c, 7, 55, 127
2, 264488, Note_off_c, 6, 78, 127
2, 264496, Note_on_c, 7, 79, 127
2, 264684, Note_off_c, 7, 79, 127
2, 264684, Note_off_c, 7, 55, 127
2, 264686, Note_on_c, 6, 78, 127
2, 264686, Note_on_c, 1, 49, 127
2, 264874, Note_off_c, 6, 78, 127
2, 264876, Note_on_c, 4, 76, 127
2, 264937, Note_off_c, 4, 76, 127
2, 264939, Note_on_c, 6, 78, 127
2, 265000, Note_off_c, 6, 78, 127
2, 265002, Note_on_c, 4, 76, 127
2, 265058, Note_off_c, 12, 71, 127
2, 265064, Note_off_c, 4, 76, 127
2, 265064, Note_off_c, 1, 49, 127
2, 265066, Note_on_c, 6, 78, 127
2, 265066, Note_on_c, 11, 70, 127
2, 265066, Note_on_c, 6, 54, 127
2, 265127, Note_off_c, 6, 78, 127
2, 265129, Note_on_c, 4, 76, 127
2, 265317, Note_off_c, 4, 76, 127
2, 265319, Note_on_c, 2, 74, 127
2, 265380, Note_off_c, 2, 74, 127
2, 265382, Note_on_c, 1, 73, 127
2, 265442, Note_off_c, 11, 70, 127
2, 265444, Note_off_c, 1, 73, 127
2, 265444, Note_off_c, 6, 54, 127
2, 265446, Note_on_c, 12, 71, 127
2, 265446, Note_on_c, 2, 74, 127
2, 265446, Note_on_c, 12, 47, 127
2, 265507, Note_off_c, 2, 74, 127
2, 265509, Note_on_c, 1, 73, 127
2, 265570, Note_off_c, 1, 73, 127
2, 265572, Note_on_c, 2, 74, 127
2, 266014, Note_off_c, 12, 47, 127
2, 266016, Note_on_c, 1, 49, 127
2, 266109, Note_off_c, 1, 49, 127
2, 266111, Note_on_c, 2, 50, 127
2, 266204, Note_off_c, 2, 50, 127
2, 266206, Note_on_c, 1, 49, 127
2, 266394, Note_off_c, 1, 49, 127
2, 266396, Note_on_c, 2, 50, 127
2, 266489, Note_off_c, 2, 50, 127
2, 266491, Note_on_c, 4, 52, 127
2, 266584, Note_off_c, 4, 52, 127
2, 266584, Note_off_c, 2, 74, 127
2, 266584, Note_off_c, 12, 71, 127
2, 266586, Note_on_c, 12, 71, 127
2, 266586, Note_on_c, 2, 50, 127
2, 266669, Note_on_c, 6, 78, 127
2, 266752, Note_on_c, 12, 83, 127
2, 266962, Note_off_c, 12, 71, 127
2, 266964, Note_off_c, 12, 83, 127
2, 266964, Note_off_c, 2, 50, 127
2, 266966, Note_off_c, 6, 78, 127
2, 266966, Note_on_c, 6, 78, 127
2, 266966, Note_on_c, 12, 83, 127
2, 266966, Note_on_c, 4, 52, 127
2, 267091, Note_off_c, 12, 83, 127
2, 267093, Note_on_c, 10, 81, 127
2, 267154, Note_off_c, 10, 81, 127
2, 267154, Note_off_c, 4, 52, 127
2, 267156, Note_on_c, 12, 83, 127
2, 267156, Note_on_c, 3, 51, 127
2, 267217, Note_off_c, 12, 83, 127
2, 267219, Note_on_c, 10, 81, 127
2, 267280, Note_off_c, 10, 81, 127
2, 267282, Note_on_c, 12, 83, 127
2, 267343, Note_off_c, 12, 83, 127
2, 267343, Note_off_c, 3, 51, 127
2, 267345, Note_on_c, 10, 81, 127
2, 267345, Note_on_c, 1, 49, 127
2, 267406, Note_off_c, 1, 49, 127
2, 267408, Note_on_c, 3, 51, 127
2, 267469, Note_off_c, 3, 51, 127
2, 267471, Note_on_c, 1, 49, 127
2, 267532, Note_off_c, 1, 49, 127
2, 267532, Note_off_c, 10, 81, 127
2, 267534, Note_on_c, 12, 83, 127
2, 267534, Note_on_c, 12, 47, 127
2, 267716, Note_off_c, 6, 78, 127
2, 267722, Note_off_c, 12, 47, 127
2, 267722, Note_off_c, 12, 83, 127
2, 267724, Note_on_c, 4, 76, 127
2, 267724, Note_on_c, 10, 81, 127
2, 267724, Note_on_c, 4, 52, 127
2, 267785, Note_off_c, 10, 81, 127
2, 267787, Note_on_c, 7, 79, 127
2, 267848, Note_off_c, 7, 79, 127
2, 267850, Note_on_c, 10, 81, 127
2, 267911, Note_off_c, 10, 81, 127
2, 267913, Note_on_c, 7, 79, 127
2, 268101, Note_off_c, 4, 52, 127
2, 268103, Note_on_c, 6, 54, 127
2, 268291, Note_off_c, 7, 79, 127
2, 268293, Note_on_c, 6, 78, 127
2, 268475, Note_off_c, 4, 76, 127
2, 268481, Note_off_c, 6, 78, 127
2, 268481, Note_off_c, 6, 54, 127
2, 268483, Note_on_c, 4, 76, 127
2, 268483, Note_on_c, 7, 55, 127
2, 268671, Note_off_c, 4, 76, 127
2, 268673, Note_on_c, 7, 79, 127
2, 268861, Note_off_c, 7, 79, 127
2, 268861, Note_off_c, 7, 55, 127
2, 268863, Note_on_c, 2, 62, 127
2, 268863, Note_on_c, 12, 71, 127
2, 268863, Note_on_c, 7, 67, 127
2, 268863, Note_on_c, 6, 54, 127
2, 269242, Note_off_c, 6, 54, 127
2, 269242, Note_off_c, 7, 67, 127
2, 269242, Note_off_c, 12, 71, 127
2, 269242, Note_off_c, 2, 62, 127
2, 269244, Note_on_c, 4, 64, 127
2, 269244, Note_on_c, 6, 54, 127
2, 269307, Note_on_c, 7, 67, 127
2, 269337, Note_off_c, 6, 54, 127
2, 269339, Note_on_c, 4, 52, 127
2, 269371, Note_on_c, 10, 69, 127
2, 269432, Note_off_c, 4, 52, 127
2, 269434, Note_on_c, 1, 73, 127
2, 269434, Note_on_c, 6, 54, 127
2, 269527, Note_off_c, 6, 54, 127
2, 269529, Note_on_c, 4, 52, 127
2, 269620, Note_off_c, 4, 64, 127
2, 269622, Note_off_c, 4, 52, 127
2, 269624, Note_off_c, 7, 67, 127
2, 269624, Note_on_c, 6, 66, 127
2, 269624, Note_on_c, 2, 50, 127
2, 269628, Note_off_c, 10, 69, 127
2, 269810, Note_off_c, 1, 73, 127
2, 269814, Note_on_c, 2, 74, 127
2, 270000, Note_off_c, 6, 66, 127
2, 270002, Note_off_c, 2, 74, 127
2, 270002, Note_off_c, 2, 50, 127
2, 270004, Note_on_c, 4, 64, 127
2, 270004, Note_on_c, 2, 74, 127
2, 270004, Note_on_c, 10, 57, 127
2, 270065, Note_off_c, 2, 74, 127
2, 270067, Note_on_c, 1, 73, 127
2, 270128, Note_off_c, 1, 73, 127
2, 270130, Note_on_c, 2, 74, 127
2, 270191, Note_off_c, 2, 74, 127
2, 270193, Note_on_c, 1, 73, 127
2, 270381, Note_off_c, 10, 57, 127
2, 270383, Note_on_c, 12, 59, 127
2, 270571, Note_off_c, 1, 73, 127
2, 270573, Note_on_c, 12, 71, 127
2, 270761, Note_off_c, 12, 71, 127
2, 270761, Note_off_c, 12, 59, 127
2, 270763, Note_on_c, 10, 69, 127
2, 270763, Note_on_c, 1, 61, 127
2, 270951, Note_off_c, 10, 69, 127
2, 270953, Note_on_c, 4, 76, 127
2, 271141, Note_off_c, 4, 76, 127
2, 271141, Note_off_c, 1, 61, 127
2, 271141, Note_off_c, 4, 64, 127
2, 271143, Note_on_c, 10, 81, 127
2, 271143, Note_on_c, 1, 61, 127
2, 271143, Note_on_c, 10, 57, 127
2, 271522, Note_off_c, 10, 57, 127
2, 271522, Note_off_c, 1, 61, 127
2, 271522, Note_off_c, 10, 81, 127
2, 271524, Note_on_c, 10, 81, 127
2, 271524, Note_on_c, 2, 62, 127
2, 271524, Note_on_c, 12, 59, 127
2, 271649, Note_off_c, 10, 81, 127
2, 271651, Note_on_c, 7, 79, 127
2, 271712, Note_off_c, 7, 79, 127
2, 271714, Note_on_c, 10, 81, 127
2, 271775, Note_off_c, 10, 81, 127
2, 271777, Note_on_c, 7, 79, 127
2, 271838, Note_off_c, 7, 79, 127
2, 271840, Note_on_c, 10, 81, 127
2, 271901, Note_off_c, 10, 81, 127
2, 271901, Note_off_c, 12, 59, 127
2, 271901, Note_off_c, 2, 62, 127
2, 271903, Note_on_c, 7, 79, 127
2, 271903, Note_on_c, 4, 64, 127
2, 271903, Note_on_c, 1, 61, 127
2, 272091, Note_off_c, 7, 79, 127
2, 272093, Note_on_c, 10, 81, 127
2, 272281, Note_off_c, 10, 81, 127
2, 272281, Note_off_c, 1, 61, 127
2, 272281, Note_off_c, 4, 64, 127
2, 272283, Note_on_c, 6, 78, 127
2, 272283, Note_on_c, 2, 62, 127
2, 272344, Note_off_c, 6, 78, 127
2, 272346, Note_on_c, 4, 76, 127
2, 272407, Note_off_c, 4, 76, 127
2, 272409, Note_on_c, 6, 78, 127
2, 272663, Note_on_c, 2, 50, 127
2, 272851, Note_off_c, 2, 50, 127
2, 272851, Note_off_c, 6, 78, 127
2, 272853, Note_on_c, 4, 76, 127
2, 272853, Note_on_c, 4, 52, 127
2, 273041, Note_off_c, 4, 52, 127
2, 273041, Note_off_c, 4, 76, 127
2, 273043, Note_on_c, 2, 74, 127
2, 273043, Note_on_c, 6, 54, 127
2, 273231, Note_off_c, 2, 74, 127
2, 273233, Note_on_c, 1, 73, 127
2, 273421, Note_off_c, 1, 73, 127
2, 273421, Note_off_c, 6, 54, 127
2, 273421, Note_off_c, 2, 62, 127
2, 273423, Note_on_c, 12, 71, 127
2, 273423, Note_on_c, 7, 55, 127
2, 273611, Note_off_c, 12, 71, 127
2, 273613, Note_on_c, 4, 76, 127
2, 273801, Note_off_c, 4, 76, 127
2, 273801, Note_off_c, 7, 55, 127
2, 273803, Note_on_c, 2, 74, 127
2, 273803, Note_on_c, 10, 57, 127
2, 273928, Note_off_c, 2, 74, 127
2, 273930, Note_on_c, 1, 73, 127
2, 273991, Note_off_c, 1, 73, 127
2, 273993, Note_on_c, 2, 74, 127
2, 274054, Note_off_c, 2, 74, 127
2, 274056, Note_on_c, 1, 73, 127
2, 274117, Note_off_c, 1, 73, 127
2, 274119, Note_on_c, 2, 74, 127
2, 274180, Note_off_c, 2, 74, 127
2, 274182, Note_on_c, 1, 73, 127
2, 274182, Note_on_c, 10, 45, 127
2, 274370, Note_off_c, 1, 73, 127
2, 274372, Note_on_c, 2, 74, 127
2, 274554, Note_off_c, 10, 57, 127
2, 274560, Note_off_c, 2, 74, 127
2, 274560, Note_off_c, 10, 45, 127
2, 274562, Note_on_c, 2, 74, 127
2, 274562, Note_on_c, 2, 50, 127
2, 274752, Note_on_c, 10, 69, 127
2, 274942, Note_on_c, 6, 66, 127
2, 275130, Note_off_c, 2, 50, 127
2, 275132, Note_on_c, 4, 52, 127
2, 275225, Note_off_c, 4, 52, 127
2, 275227, Note_on_c, 6, 54, 127
2, 275320, Note_off_c, 6, 54, 127
2, 275322, Note_on_c, 4, 52, 127
2, 275510, Note_off_c, 4, 52, 127
2, 275512, Note_on_c, 6, 54, 127
2, 275605, Note_off_c, 6, 54, 127
2, 275607, Note_on_c, 7, 55, 127
2, 275700, Note_off_c, 7, 55, 127
2, 275700, Note_off_c, 6, 66, 127
2, 275700, Note_off_c, 2, 74, 127
2, 275702, Note_off_c, 10, 69, 127
2, 275718, Note_on_c, 11, 46, 127
2, 275718, Note_on_c, 1, 73, 127
2, 275718, Note_on_c, 6, 78, 127
2, 276097, Note_off_c, 6, 78, 127
2, 276097, Note_off_c, 1, 73, 127
2, 276097, Note_off_c, 11, 46, 127
2, 276099, Note_on_c, 12, 47, 127
2, 276099, Note_on_c, 6, 78, 127
2, 276099, Note_on_c, 2, 74, 127
2, 276287, Note_off_c, 6, 78, 127
2, 276289, Note_on_c, 7, 79, 127
2, 276350, Note_off_c, 7, 79, 127
2, 276352, Note_on_c, 6, 78, 127
2, 276413, Note_off_c, 6, 78, 127
2, 276415, Note_on_c, 7, 79, 127
2, 276475, Note_off_c, 2, 74, 127
2, 276477, Note_off_c, 12, 47, 127
2, 276479, Note_on_c, 10, 45, 127
2, 276479, Note_on_c, 0, 72, 127
2, 276654, Note_off_c, 7, 79, 127
2, 276670, Note_on_c, 6, 78, 127
2, 276856, Note_off_c, 0, 72, 127
2, 276858, Note_off_c, 6, 78, 127
2, 276858, Note_off_c, 10, 45, 127
2, 276860, Note_on_c, 7, 43, 127
2, 276860, Note_on_c, 12, 71, 127
2, 276860, Note_on_c, 6, 78, 127
2, 276921, Note_off_c, 6, 78, 127
2, 276923, Note_on_c, 4, 76, 127
2, 276984, Note_off_c, 4, 76, 127
2, 276986, Note_on_c, 6, 78, 127
2, 277047, Note_off_c, 6, 78, 127
2, 277049, Note_on_c, 4, 76, 127
2, 277235, Note_off_c, 12, 71, 127
2, 277237, Note_off_c, 7, 43, 127
2, 277239, Note_on_c, 7, 43, 127
2, 277239, Note_on_c, 10, 69, 127
2, 277332, Note_off_c, 7, 43, 127
2, 277334, Note_on_c, 6, 42, 127
2, 277425, Note_off_c, 4, 76, 127
2, 277427, Note_off_c, 6, 42, 127
2, 277429, Note_on_c, 7, 43, 127
2, 277429, Note_on_c, 2, 74, 127
2, 277522, Note_off_c, 7, 43, 127
2, 277524, Note_on_c, 6, 42, 127
2, 277615, Note_off_c, 10, 69, 127
2, 277617, Note_off_c, 6, 42, 127
2, 277617, Note_off_c, 2, 74, 127
2, 277619, Note_on_c, 4, 40, 127
2, 277619, Note_on_c, 2, 74, 127
2, 277619, Note_on_c, 7, 67, 127
2, 277807, Note_off_c, 2, 74, 127
2, 277809, Note_on_c, 0, 72, 127
2, 277997, Note_off_c, 0, 72, 127
2, 277997, Note_off_c, 4, 40, 127
2, 277999, Note_on_c, 1, 49, 127
2, 277999, Note_on_c, 12, 71, 127
2, 278187, Note_off_c, 12, 71, 127
2, 278189, Note_on_c, 11, 70, 127
2, 278371, Note_off_c, 7, 67, 127
2, 278377, Note_off_c, 11, 70, 127
2, 278377, Note_off_c, 1, 49, 127
2, 278379, Note_on_c, 2, 50, 127
2, 278379, Note_on_c, 12, 71, 127
2, 278379, Note_on_c, 6, 66, 127
2, 278440, Note_off_c, 12, 71, 127
2, 278442, Note_on_c, 11, 70, 127
2, 278503, Note_off_c, 11, 70, 127
2, 278505, Note_on_c, 12, 71, 127
2, 278755, Note_off_c, 6, 66, 127
2, 278757, Note_off_c, 2, 50, 127
2, 278759, Note_on_c, 4, 52, 127
2, 278759, Note_on_c, 7, 67, 127
2, 278941, Note_off_c, 12, 71, 127
2, 278949, Note_on_c, 1, 73, 127
2, 279135, Note_off_c, 7, 67, 127
2, 279137, Note_off_c, 1, 73, 127
2, 279137, Note_off_c, 4, 52, 127
2, 279139, Note_on_c, 6, 54, 127
2, 279139, Note_on_c, 12, 71, 127
2, 279139, Note_on_c, 1, 61, 127
2, 279264, Note_off_c, 12, 71, 127
2, 279266, Note_on_c, 11, 70, 127
2, 279327, Note_off_c, 11, 70, 127
2, 279329, Note_on_c, 12, 71, 127
2, 279390, Note_off_c, 12, 71, 127
2, 279392, Note_on_c, 11, 70, 127
2, 279453, Note_off_c, 11, 70, 127
2, 279455, Note_on_c, 12, 71, 127
2, 279516, Note_off_c, 12, 71, 127
2, 279516, Note_off_c, 6, 54, 127
2, 279518, Note_on_c, 8, 56, 127
2, 279518, Note_on_c, 11, 70, 127
2, 279706, Note_off_c, 11, 70, 127
2, 279708, Note_on_c, 8, 68, 127
2, 279896, Note_off_c, 8, 68, 127
2, 279896, Note_off_c, 8, 56, 127
2, 279898, Note_on_c, 11, 58, 127
2, 279898, Note_on_c, 6, 66, 127
2, 280086, Note_off_c, 6, 66, 127
2, 280088, Note_on_c, 1, 73, 127
2, 280276, Note_off_c, 1, 73, 127
2, 280276, Note_off_c, 11, 58, 127
2, 280276, Note_off_c, 1, 61, 127
2, 280278, Note_on_c, 6, 54, 127
2, 280278, Note_on_c, 11, 58, 127
2, 280278, Note_on_c, 6, 78, 127
2, 280657, Note_off_c, 6, 78, 127
2, 280657, Note_off_c, 11, 58, 127
2, 280657, Note_off_c, 6, 54, 127
2, 280659, Note_on_c, 12, 59, 127
2, 280659, Note_on_c, 8, 56, 127
2, 280659, Note_on_c, 6, 78, 127
2, 280784, Note_off_c, 6, 78, 127
2, 280786, Note_on_c, 4, 76, 127
2, 280847, Note_off_c, 4, 76, 127
2, 280849, Note_on_c, 6, 78, 127
2, 280910, Note_off_c, 6, 78, 127
2, 280912, Note_on_c, 4, 76, 127
2, 280973, Note_off_c, 4, 76, 127
2, 280975, Note_on_c, 6, 78, 127
2, 281036, Note_off_c, 6, 78, 127
2, 281036, Note_off_c, 8, 56, 127
2, 281036, Note_off_c, 12, 59, 127
2, 281038, Note_on_c, 11, 58, 127
2, 281038, Note_on_c, 1, 61, 127
2, 281038, Note_on_c, 4, 76, 127
2, 281226, Note_off_c, 4, 76, 127
2, 281228, Note_on_c, 6, 78, 127
2, 281416, Note_off_c, 6, 78, 127
2, 281416, Note_off_c, 1, 61, 127
2, 281416, Note_off_c, 11, 58, 127
2, 281418, Note_on_c, 12, 59, 127
2, 281418, Note_on_c, 4, 76, 127
2, 281479, Note_off_c, 4, 76, 127
2, 281481, Note_on_c, 2, 74, 127
2, 281542, Note_off_c, 2, 74, 127
2, 281544, Note_on_c, 4, 76, 127
2, 281605, Note_off_c, 4, 76, 127
2, 281605, Note_off_c, 12, 59, 127
2, 281607, Note_on_c, 1, 61, 127
2, 281607, Note_on_c, 2, 74, 127
2, 281795, Note_off_c, 1, 61, 127
2, 281797, Note_on_c, 12, 59, 127
2, 281985, Note_off_c, 12, 59, 127
2, 281985, Note_off_c, 2, 74, 127
2, 281987, Note_on_c, 10, 57, 127
2, 281987, Note_on_c, 1, 73, 127
2, 282175, Note_off_c, 1, 73, 127
2, 282175, Note_off_c, 10, 57, 127
2, 282177, Note_on_c, 7, 55, 127
2, 282177, Note_on_c, 12, 71, 127
2, 282365, Note_off_c, 12, 71, 127
2, 282365, Note_off_c, 7, 55, 127
2, 282367, Note_on_c, 6, 54, 127
2, 282367, Note_on_c, 11, 70, 127
2, 282555, Note_off_c, 11, 70, 127
2, 282555, Note_off_c, 6, 54, 127
2, 282557, Note_on_c, 7, 55, 127
2, 282557, Note_on_c, 12, 71, 127
2, 282745, Note_off_c, 12, 71, 127
2, 282745, Note_off_c, 7, 55, 127
2, 282747, Note_on_c, 4, 52, 127
2, 282747, Note_on_c, 1, 73, 127
2, 282935, Note_off_c, 1, 73, 127
2, 282935, Note_off_c, 4, 52, 127
2, 282937, Note_on_c, 6, 54, 127
2, 282937, Note_on_c, 11, 70, 127
2, 282937, Note_on_c, 2, 74, 127
2, 283062, Note_off_c, 2, 74, 127
2, 283064, Note_on_c, 1, 73, 127
2, 283125, Note_off_c, 1, 73, 127
2, 283127, Note_on_c, 2, 74, 127
2, 283188, Note_off_c, 2, 74, 127
2, 283190, Note_on_c, 1, 73, 127
2, 283251, Note_off_c, 1, 73, 127
2, 283253, Note_on_c, 2, 74, 127
2, 283314, Note_off_c, 2, 74, 127
2, 283316, Note_on_c, 6, 42, 127
2, 283316, Note_on_c, 1, 73, 127
2, 283504, Note_off_c, 1, 73, 127
2, 283506, Note_on_c, 12, 71, 127
2, 283688, Note_off_c, 11, 70, 127
2, 283688, Note_off_c, 6, 54, 127
2, 283694, Note_off_c, 12, 71, 127
2, 283694, Note_off_c, 6, 42, 127
2, 283696, Note_on_c, 12, 47, 127
2, 283696, Note_on_c, 12, 71, 127
2, 283886, Note_on_c, 6, 66, 127
2, 284076, Note_on_c, 2, 62, 127
2, 284264, Note_off_c, 12, 47, 127
2, 284266, Note_on_c, 2, 50, 127
2, 284359, Note_off_c, 2, 50, 127
2, 284361, Note_on_c, 1, 49, 127
2, 284454, Note_off_c, 1, 49, 127
2, 284456, Note_on_c, 12, 47, 127
2, 284644, Note_off_c, 12, 47, 127
2, 284646, Note_on_c, 1, 49, 127
2, 284739, Note_off_c, 1, 49, 127
2, 284741, Note_on_c, 2, 50, 127
2, 284834, Note_off_c, 2, 50, 127
2, 284834, Note_off_c, 2, 62, 127
2, 284834, Note_off_c, 12, 71, 127
2, 284836, Note_off_c, 6, 66, 127
2, 284836, Note_on_c, 8, 44, 127
2, 284836, Note_on_c, 12, 71, 127
2, 284897, Note_off_c, 12, 71, 127
2, 284899, Note_on_c, 10, 69, 127
2, 284960, Note_off_c, 10, 69, 127
2, 284962, Note_on_c, 12, 71, 127
2, 285214, Note_off_c, 12, 71, 127
2, 285214, Note_off_c, 8, 44, 127
2, 285216, Note_on_c, 8, 44, 127
2, 285216, Note_on_c, 4, 64, 127
2, 285299, Note_on_c, 12, 71, 127
2, 285341, Note_off_c, 8, 44, 127
2, 285343, Note_on_c, 6, 42, 127
2, 285383, Note_on_c, 4, 76, 127
2, 285405, Note_off_c, 6, 42, 127
2, 285407, Note_on_c, 8, 44, 127
2, 285468, Note_off_c, 8, 44, 127
2, 285470, Note_on_c, 6, 42, 127
2, 285595, Note_off_c, 6, 42, 127
2, 285597, Note_on_c, 4, 40, 127
2, 285785, Note_off_c, 4, 76, 127
2, 285787, Note_on_c, 2, 74, 127
2, 285969, Note_off_c, 4, 64, 127
2, 285973, Note_off_c, 12, 71, 127
2, 285975, Note_off_c, 2, 74, 127
2, 285975, Note_off_c, 4, 40, 127
2, 285977, Note_on_c, 10, 45, 127
2, 285977, Note_on_c, 4, 64, 127
2, 285977, Note_on_c, 2, 74, 127
2, 286038, Note_off_c, 2, 74, 127
2, 286040, Note_on_c, 1, 73, 127
2, 286101, Note_off_c, 1, 73, 127
2, 286103, Note_on_c, 2, 74, 127
2, 286164, Note_off_c, 2, 74, 127
2, 286166, Note_on_c, 1, 73, 127
2, 286354, Note_off_c, 10, 45, 127
2, 286356, Note_on_c, 12, 47, 127
2, 286544, Note_off_c, 1, 73, 127
2, 286546, Note_on_c, 12, 71, 127
2, 286734, Note_off_c, 12, 71, 127
2, 286734, Note_off_c, 12, 47, 127
2, 286736, Note_on_c, 1, 49, 127
2, 286736, Note_on_c, 10, 69, 127
2, 286924, Note_off_c, 10, 69, 127
2, 286926, Note_on_c, 1, 73, 127
2, 287114, Note_off_c, 1, 73, 127
2, 287114, Note_off_c, 1, 49, 127
2, 287114, Note_off_c, 4, 64, 127
2, 287116, Note_on_c, 2, 50, 127
2, 287116, Note_on_c, 6, 66, 127
2, 287116, Note_on_c, 10, 57, 127
2, 287495, Note_off_c, 10, 57, 127
2, 287495, Note_off_c, 6, 66, 127
2, 287495, Note_off_c, 2, 50, 127
2, 287497, Note_on_c, 1, 49, 127
2, 287497, Note_on_c, 2, 62, 127
2, 287580, Note_on_c, 4, 64, 127
2, 287622, Note_off_c, 1, 49, 127
2, 287624, Note_on_c, 12, 47, 127
2, 287664, Note_on_c, 8, 68, 127
2, 287686, Note_off_c, 12, 47, 127
2, 287688, Note_on_c, 1, 49, 127
2, 287749, Note_off_c, 1, 49, 127
2, 287751, Note_on_c, 12, 47, 127
2, 287874, Note_off_c, 2, 62, 127
2, 287876, Note_off_c, 12, 47, 127
2, 287878, Note_off_c, 4, 64, 127
2, 287878, Note_on_c, 10, 45, 127
2, 287878, Note_on_c, 1, 61, 127
2, 288060, Note_off_c, 8, 68, 127
2, 288068, Note_on_c, 10, 69, 127
2, 288254, Note_off_c, 1, 61, 127
2, 288256, Note_off_c, 10, 69, 127
2, 288256, Note_off_c, 10, 45, 127
2, 288258, Note_on_c, 4, 52, 127
2, 288258, Note_on_c, 12, 59, 127
2, 288258, Note_on_c, 10, 69, 127
2, 288319, Note_off_c, 10, 69, 127
2, 288321, Note_on_c, 8, 68, 127
2, 288382, Note_off_c, 8, 68, 127
2, 288384, Note_on_c, 10, 69, 127
2, 288445, Note_off_c, 10, 69, 127
2, 288447, Note_on_c, 8, 68, 127
2, 288635, Note_off_c, 4, 52, 127
2, 288637, Note_on_c, 6, 54, 127
2, 288825, Note_off_c, 8, 68, 127
2, 288827, Note_on_c, 6, 66, 127
2, 289015, Note_off_c, 6, 66, 127
2, 289015, Note_off_c, 6, 54, 127
2, 289017, Note_on_c, 8, 56, 127
2, 289017, Note_on_c, 4, 64, 127
2, 289396, Note_off_c, 4, 64, 127
2, 289396, Note_off_c, 8, 56, 127
2, 289396, Note_off_c, 12, 59, 127
2, 289398, Note_on_c, 4, 52, 127
2, 289398, Note_on_c, 12, 71, 127
2, 289586, Note_off_c, 12, 71, 127
2, 289588, Note_on_c, 1, 73, 127
2, 289681, Note_off_c, 1, 73, 127
2, 289683, Note_on_c, 2, 74, 127
2, 289776, Note_off_c, 2, 74, 127
2, 289776, Note_off_c, 4, 52, 127
2, 289778, Note_on_c, 10, 57, 127
2, 289778, Note_on_c, 2, 74, 127
2, 289903, Note_off_c, 2, 74, 127
2, 289905, Note_on_c, 1, 73, 127
2, 289966, Note_off_c, 1, 73, 127
2, 289968, Note_on_c, 2, 74, 127
2, 290029, Note_off_c, 2, 74, 127
2, 290031, Note_on_c, 1, 73, 127
2, 290092, Note_off_c, 1, 73, 127
2, 290094, Note_on_c, 2, 74, 127
2, 290155, Note_off_c, 2, 74, 127
2, 290155, Note_off_c, 10, 57, 127
2, 290157, Note_on_c, 12, 59, 127
2, 290157, Note_on_c, 1, 73, 127
2, 290345, Note_off_c, 1, 73, 127
2, 290347, Note_on_c, 12, 71, 127
2, 290535, Note_off_c, 12, 71, 127
2, 290535, Note_off_c, 12, 59, 127
2, 290537, Note_on_c, 1, 61, 127
2, 290537, Note_on_c, 12, 71, 127
2, 290725, Note_off_c, 12, 71, 127
2, 290727, Note_on_c, 4, 76, 127
2, 290917, Note_on_c, 12, 59, 127
2, 291105, Note_off_c, 4, 76, 127
2, 291107, Note_on_c, 6, 78, 127
2, 291289, Note_off_c, 1, 61, 127
2, 291295, Note_off_c, 6, 78, 127
2, 291295, Note_off_c, 12, 59, 127
2, 291297, Note_on_c, 10, 57, 127
2, 291297, Note_on_c, 7, 79, 127
2, 291485, Note_off_c, 7, 79, 127
2, 291487, Note_on_c, 4, 76, 127
2, 291675, Note_off_c, 4, 76, 127
2, 291675, Note_off_c, 10, 57, 127
2, 291677, Note_on_c, 10, 45, 127
2, 291677, Note_on_c, 10, 81, 127
2, 291677, Note_on_c, 1, 73, 127
2, 292056, Note_off_c, 1, 73, 127
2, 292056, Note_off_c, 10, 81, 127
2, 292056, Note_off_c, 10, 45, 127
2, 292058, Note_on_c, 12, 47, 127
2, 292058, Note_on_c, 2, 74, 127
2, 292058, Note_on_c, 10, 81, 127
2, 292183, Note_off_c, 10, 81, 127
2, 292185, Note_on_c, 7, 79, 127
2, 292246, Note_off_c, 7, 79, 127
2, 292248, Note_on_c, 10, 81, 127
2, 292309, Note_off_c, 10, 81, 127
2, 292311, Note_on_c, 7, 79, 127
2, 292372, Note_off_c, 7, 79, 127
2, 292374, Note_on_c, 10, 81, 127
2, 292434, Note_off_c, 2, 74, 127
2, 292436, Note_off_c, 10, 81, 127
2, 292436, Note_off_c, 12, 47, 127
2, 292438, Note_on_c, 1, 49, 127
2, 292438, Note_on_c, 4, 76, 127
2, 292438, Note_on_c, 7, 79, 127
2, 292626, Note_off_c, 7, 79, 127
2, 292628, Note_on_c, 10, 81, 127
2, 292816, Note_off_c, 10, 81, 127
2, 292816, Note_off_c, 1, 49, 127
2, 292818, Note_on_c, 2, 50, 127
2, 292818, Note_on_c, 7, 79, 127
2, 292818, Note_on_c, 10, 69, 127
2, 292993, Note_off_c, 4, 76, 127
2, 293007, Note_off_c, 7, 79, 127
2, 293009, Note_on_c, 6, 78, 127
2, 293195, Note_off_c, 10, 69, 127
2, 293197, Note_off_c, 2, 50, 127
2, 293199, Note_on_c, 12, 47, 127
2, 293199, Note_on_c, 2, 74, 127
2, 293366, Note_off_c, 6, 78, 127
2, 293390, Note_on_c, 8, 80, 127
2, 293576, Note_off_c, 2, 74, 127
2, 293578, Note_off_c, 8, 80, 127
2, 293578, Note_off_c, 12, 47, 127
2, 293580, Note_on_c, 1, 49, 127
2, 293580, Note_on_c, 1, 73, 127
2, 293580, Note_on_c, 10, 81, 127
2, 293768, Note_off_c, 10, 81, 127
2, 293768, Note_off_c, 1, 73, 127
2, 293770, Note_on_c, 2, 74, 127
2, 293770, Note_on_c, 12, 71, 127
2, 293958, Note_off_c, 12, 71, 127
2, 293958, Note_off_c, 2, 74, 127
2, 293958, Note_off_c, 1, 49, 127
2, 293960, Note_on_c, 2, 50, 127
2, 293960, Note_on_c, 10, 69, 127
2, 293960, Note_on_c, 1, 73, 127
2, 294148, Note_off_c, 1, 73, 127
2, 294148, Note_off_c, 10, 69, 127
2, 294150, Note_on_c, 12, 71, 127
2, 294338, Note_off_c, 12, 71, 127
2, 294338, Note_off_c, 2, 50, 127
2, 294340, Note_on_c, 4, 52, 127
2, 294340, Note_on_c, 1, 73, 127
2, 294340, Note_on_c, 8, 68, 127
2, 294465, Note_off_c, 1, 73, 127
2, 294467, Note_on_c, 12, 71, 127
2, 294528, Note_off_c, 12, 71, 127
2, 294530, Note_on_c, 1, 73, 127
2, 294591, Note_off_c, 1, 73, 127
2, 294593, Note_on_c, 12, 71, 127
2, 294654, Note_off_c, 12, 71, 127
2, 294656, Note_on_c, 1, 73, 127
2, 294717, Note_off_c, 1, 73, 127
2, 294719, Note_on_c, 4, 40, 127
2, 294719, Note_on_c, 12, 71, 127
2, 294907, Note_off_c, 12, 71, 127
2, 294909, Note_on_c, 10, 69, 127
2, 295091, Note_off_c, 8, 68, 127
2, 295091, Note_off_c, 4, 52, 127
2, 295097, Note_off_c, 10, 69, 127
2, 295097, Note_off_c, 4, 40, 127
2, 295099, Note_on_c, 10, 45, 127
2, 295099, Note_on_c, 10, 69, 127
2, 295480, Note_on_c, 10, 33, 127
2, 295853, Note_off_c, 10, 45, 127
2, 295861, Note_on_c, 4, 40, 127
2, 296240, Note_off_c, 4, 40, 127
2, 296242, Note_on_c, 10, 45, 127
2, 296242, Note_on_c, 4, 64, 127
2, 296242, Note_on_c, 1, 61, 127
2, 296996, Note_off_c, 10, 45, 127
2, 297002, Note_off_c, 10, 33, 127
2, 297143, Note_off_c, 10, 69, 127
2, 297195, Note_off_c, 1, 61, 127
2, 297195, Note_off_c, 4, 64, 127
2, 297195, Note_on_c, 10, 69, 127
2, 297383, Note_off_c, 10, 69, 127
2, 297385, Note_on_c, 10, 45, 127
2, 297385, Note_on_c, 10, 69, 127
2, 297575, Note_on_c, 4, 64, 127
2, 297765, Note_on_c, 1, 61, 127
2, 297858, Note_off_c, 10, 45, 127
2, 297860, Note_on_c, 10, 57, 127
2, 297953, Note_off_c, 10, 57, 127
2, 297955, Note_on_c, 8, 56, 127
2, 298048, Note_off_c, 8, 56, 127
2, 298050, Note_on_c, 6, 54, 127
2, 298143, Note_off_c, 6, 54, 127
2, 298145, Note_on_c, 4, 52, 127
2, 298333, Note_off_c, 4, 52, 127
2, 298335, Note_on_c, 6, 54, 127
2, 298428, Note_off_c, 6, 54, 127
2, 298430, Note_on_c, 2, 50, 127
2, 298523, Note_off_c, 2, 50, 127
2, 298523, Note_off_c, 1, 61, 127
2, 298523, Note_off_c, 10, 69, 127
2, 298525, Note_off_c, 4, 64, 127
2, 298525, Note_on_c, 1, 49, 127
2, 298525, Note_on_c, 4, 64, 127
2, 298713, Note_off_c, 1, 49, 127
2, 298715, Note_on_c, 2, 50, 127
2, 298808, Note_off_c, 2, 50, 127
2, 298810, Note_on_c, 4, 52, 127
2, 298903, Note_off_c, 4, 52, 127
2, 298903, Note_off_c, 4, 64, 127
2, 298905, Note_on_c, 2, 50, 127
2, 298905, Note_on_c, 4, 64, 127
2, 299093, Note_off_c, 4, 64, 127
2, 299093, Note_off_c, 2, 50, 127
2, 299095, Note_on_c, 4, 52, 127
2, 299095, Note_on_c, 6, 66, 127
2, 299156, Note_off_c, 6, 66, 127
2, 299158, Note_on_c, 4, 64, 127
2, 299188, Note_off_c, 4, 52, 127
2, 299190, Note_on_c, 1, 49, 127
2, 299220, Note_off_c, 4, 64, 127
2, 299222, Note_on_c, 6, 66, 127
2, 299283, Note_off_c, 1, 49, 127
2, 299285, Note_on_c, 12, 47, 127
2, 299473, Note_off_c, 12, 47, 127
2, 299473, Note_off_c, 6, 66, 127
2, 299475, Note_on_c, 1, 49, 127
2, 299475, Note_on_c, 7, 67, 127
2, 299568, Note_off_c, 1, 49, 127
2, 299570, Note_on_c, 10, 45, 127
2, 299663, Note_off_c, 10, 45, 127
2, 299663, Note_off_c, 7, 67, 127
2, 299665, Note_on_c, 2, 50, 127
2, 299665, Note_on_c, 7, 67, 127
2, 299758, Note_off_c, 7, 67, 127
2, 299760, Note_on_c, 6, 66, 127
2, 299806, Note_off_c, 6, 66, 127
2, 299808, Note_on_c, 7, 67, 127
2, 299854, Note_off_c, 7, 67, 127
2, 299856, Note_on_c, 6, 66, 127
2, 299943, Note_off_c, 6, 66, 127
2, 299945, Note_on_c, 2, 62, 127
2, 300012, Note_off_c, 2, 62, 127
2, 300014, Note_on_c, 4, 64, 127
2, 300044, Note_off_c, 2, 50, 127
2, 300046, Note_on_c, 1, 49, 127
2, 300082, Note_off_c, 4, 64, 127
2, 300084, Note_on_c, 6, 66, 127
2, 300151, Note_off_c, 6, 66, 127
2, 300153, Note_on_c, 8, 68, 127
2, 300220, Note_off_c, 8, 68, 127
2, 300222, Note_on_c, 10, 69, 127
2, 300289, Note_off_c, 10, 69, 127
2, 300291, Note_on_c, 12, 71, 127
2, 300358, Note_off_c, 12, 71, 127
2, 300360, Note_on_c, 1, 73, 127
2, 300423, Note_off_c, 1, 73, 127
2, 300423, Note_off_c, 1, 49, 127
2, 300425, Note_on_c, 12, 47, 127
2, 300425, Note_on_c, 2, 74, 127
2, 300615, Note_on_c, 12, 71, 127
2, 300803, Note_off_c, 12, 71, 127
2, 300803, Note_off_c, 12, 47, 127
2, 300805, Note_on_c, 4, 52, 127
2, 300805, Note_on_c, 8, 68, 127
2, 300980, Note_off_c, 2, 74, 127
2, 300996, Note_on_c, 4, 76, 127
2, 301182, Note_off_c, 8, 68, 127
2, 301184, Note_off_c, 4, 76, 127
2, 301184, Note_off_c, 4, 52, 127
2, 301186, Note_on_c, 10, 45, 127
2, 301186, Note_on_c, 2, 74, 127
2, 301247, Note_off_c, 2, 74, 127
2, 301249, Note_on_c, 1, 73, 127
2, 301310, Note_off_c, 1, 73, 127
2, 301312, Note_on_c, 2, 74, 127
2, 301373, Note_off_c, 2, 74, 127
2, 301375, Note_on_c, 1, 73, 127
2, 301470, Note_on_c, 12, 71, 127
2, 301563, Note_off_c, 12, 71, 127
2, 301563, Note_off_c, 10, 45, 127
2, 301565, Note_on_c, 2, 38, 127
2, 301565, Note_on_c, 10, 69, 127
2, 301751, Note_off_c, 1, 73, 127
2, 301755, Note_on_c, 12, 71, 127
2, 301822, Note_off_c, 10, 69, 127
2, 301943, Note_off_c, 12, 71, 127
2, 301943, Note_off_c, 2, 38, 127
2, 301945, Note_on_c, 4, 40, 127
2, 301945, Note_on_c, 12, 71, 127
2, 302135, Note_on_c, 8, 68, 127
2, 302325, Note_on_c, 4, 64, 127
2, 302418, Note_off_c, 4, 40, 127
2, 302420, Note_on_c, 4, 52, 127
2, 302513, Note_off_c, 4, 52, 127
2, 302515, Note_on_c, 2, 50, 127
2, 302608, Note_off_c, 2, 50, 127
2, 302610, Note_on_c, 1, 49, 127
2, 302703, Note_off_c, 1, 49, 127
2, 302705, Note_on_c, 12, 47, 127
2, 302893, Note_off_c, 12, 47, 127
2, 302895, Note_on_c, 1, 49, 127
2, 302988, Note_off_c, 1, 49, 127
2, 302990, Note_on_c, 10, 45, 127
2, 303083, Note_off_c, 10, 45, 127
2, 303083, Note_off_c, 4, 64, 127
2, 303083, Note_off_c, 12, 71, 127
2, 303085, Note_off_c, 8, 68, 127
2, 303085, Note_on_c, 8, 44, 127
2, 303085, Note_on_c, 4, 64, 127
2, 303168, Note_on_c, 12, 71, 127
2, 303251, Note_on_c, 4, 76, 127
2, 303273, Note_off_c, 8, 44, 127
2, 303275, Note_on_c, 10, 45, 127
2, 303368, Note_off_c, 10, 45, 127
2, 303370, Note_on_c, 12, 47, 127
2, 303449, Note_off_c, 12, 71, 127
2, 303461, Note_off_c, 4, 64, 127
2, 303463, Note_off_c, 12, 47, 127
2, 303463, Note_off_c, 4, 76, 127
2, 303465, Note_on_c, 10, 45, 127
2, 303465, Note_on_c, 4, 76, 127
2, 303465, Note_on_c, 12, 71, 127
2, 303526, Note_off_c, 4, 76, 127
2, 303528, Note_on_c, 2, 74, 127
2, 303589, Note_off_c, 2, 74, 127
2, 303591, Note_on_c, 1, 73, 127
2, 303652, Note_off_c, 1, 73, 127
2, 303652, Note_off_c, 10, 45, 127
2, 303654, Note_on_c, 12, 47, 127
2, 303654, Note_on_c, 2, 74, 127
2, 303715, Note_off_c, 2, 74, 127
2, 303717, Note_on_c, 4, 76, 127
2, 303747, Note_off_c, 12, 47, 127
2, 303749, Note_on_c, 8, 44, 127
2, 303779, Note_off_c, 4, 76, 127
2, 303781, Note_on_c, 2, 74, 127
2, 303842, Note_off_c, 2, 74, 127
2, 303842, Note_off_c, 8, 44, 127
2, 303844, Note_on_c, 6, 42, 127
2, 303844, Note_on_c, 4, 76, 127
2, 303905, Note_off_c, 4, 76, 127
2, 303907, Note_on_c, 2, 74, 127
2, 303968, Note_off_c, 2, 74, 127
2, 303970, Note_on_c, 1, 73, 127
2, 304031, Note_off_c, 1, 73, 127
2, 304031, Note_off_c, 6, 42, 127
2, 304033, Note_on_c, 8, 44, 127
2, 304033, Note_on_c, 2, 74, 127
2, 304094, Note_off_c, 2, 74, 127
2, 304096, Note_on_c, 4, 76, 127
2, 304126, Note_off_c, 8, 44, 127
2, 304128, Note_on_c, 4, 40, 127
2, 304215, Note_off_c, 12, 71, 127
2, 304221, Note_off_c, 4, 40, 127
2, 304221, Note_off_c, 4, 76, 127
2, 304223, Note_on_c, 10, 45, 127
2, 304223, Note_on_c, 2, 74, 127
2, 304411, Note_off_c, 2, 74, 127
2, 304413, Note_on_c, 1, 73, 127
2, 304601, Note_off_c, 1, 73, 127
2, 304601, Note_off_c, 10, 45, 127
2, 304603, Note_on_c, 12, 47, 127
2, 304603, Note_on_c, 12, 71, 127
2, 304791, Note_off_c, 12, 71, 127
2, 304793, Note_on_c, 10, 69, 127
2, 304981, Note_off_c, 10, 69, 127
2, 304981, Note_off_c, 12, 47, 127
2, 304983, Note_on_c, 1, 49, 127
2, 304983, Note_on_c, 8, 68, 127
2, 305171, Note_off_c, 8, 68, 127
2, 305173, Note_on_c, 6, 66, 127
2, 305361, Note_off_c, 6, 66, 127
2, 305361, Note_off_c, 1, 49, 127
2, 305363, Note_on_c, 6, 42, 127
2, 305363, Note_on_c, 6, 78, 127
2, 305742, Note_off_c, 6, 78, 127
2, 305742, Note_off_c, 6, 42, 127
2, 305744, Note_on_c, 8, 44, 127
2, 305744, Note_on_c, 6, 78, 127
2, 305805, Note_off_c, 6, 78, 127
2, 305807, Note_on_c, 4, 76, 127
2, 305868, Note_off_c, 4, 76, 127
2, 305870, Note_on_c, 3, 75, 127
2, 305931, Note_off_c, 3, 75, 127
2, 305933, Note_on_c, 4, 76, 127
2, 305994, Note_off_c, 4, 76, 127
2, 305996, Note_on_c, 6, 78, 127
2, 306057, Note_off_c, 6, 78, 127
2, 306059, Note_on_c, 4, 76, 127
2, 306120, Note_off_c, 4, 76, 127
2, 306120, Note_off_c, 8, 44, 127
2, 306122, Note_on_c, 11, 46, 127
2, 306122, Note_on_c, 6, 78, 127
2, 306183, Note_off_c, 6, 78, 127
2, 306185, Note_on_c, 4, 76, 127
2, 306246, Note_off_c, 4, 76, 127
2, 306248, Note_on_c, 3, 75, 127
2, 306309, Note_off_c, 3, 75, 127
2, 306311, Note_on_c, 4, 76, 127
2, 306372, Note_off_c, 4, 76, 127
2, 306374, Note_on_c, 6, 78, 127
2, 306499, Note_off_c, 6, 78, 127
2, 306499, Note_off_c, 11, 46, 127
2, 306501, Note_on_c, 12, 47, 127
2, 306501, Note_on_c, 4, 76, 127
2, 306689, Note_off_c, 4, 76, 127
2, 306691, Note_on_c, 3, 75, 127
2, 306879, Note_off_c, 3, 75, 127
2, 306879, Note_off_c, 12, 47, 127
2, 306881, Note_on_c, 1, 49, 127
2, 306881, Note_on_c, 1, 73, 127
2, 307069, Note_off_c, 1, 73, 127
2, 307071, Note_on_c, 12, 71, 127
2, 307259, Note_off_c, 12, 71, 127
2, 307259, Note_off_c, 1, 49, 127
2, 307261, Note_on_c, 3, 51, 127
2, 307261, Note_on_c, 10, 69, 127
2, 307449, Note_off_c, 10, 69, 127
2, 307451, Note_on_c, 8, 68, 127
2, 307639, Note_off_c, 8, 68, 127
2, 307639, Note_off_c, 3, 51, 127
2, 307641, Note_on_c, 8, 44, 127
2, 307641, Note_on_c, 12, 83, 127
2, 308020, Note_off_c, 12, 83, 127
2, 308020, Note_off_c, 8, 44, 127
2, 308022, Note_on_c, 1, 49, 127
2, 308022, Note_on_c, 12, 83, 127
2, 308083, Note_off_c, 12, 83, 127
2, 308085, Note_on_c, 10, 81, 127
2, 308146, Note_off_c, 10, 81, 127
2, 308148, Note_on_c, 8, 80, 127
2, 308209, Note_off_c, 8, 80, 127
2, 308211, Note_on_c, 10, 81, 127
2, 308272, Note_off_c, 10, 81, 127
2, 308274, Note_on_c, 12, 83, 127
2, 308335, Note_off_c, 12, 83, 127
2, 308337, Note_on_c, 10, 81, 127
2, 308398, Note_off_c, 10, 81, 127
2, 308398, Note_off_c, 1, 49, 127
2, 308400, Note_on_c, 3, 51, 127
2, 308400, Note_on_c, 12, 83, 127
2, 308461, Note_off_c, 12, 83, 127
2, 308463, Note_on_c, 10, 81, 127
2, 308524, Note_off_c, 10, 81, 127
2, 308526, Note_on_c, 8, 80, 127
2, 308587, Note_off_c, 8, 80, 127
2, 308589, Note_on_c, 10, 81, 127
2, 308650, Note_off_c, 10, 81, 127
2, 308652, Note_on_c, 12, 83, 127
2, 308777, Note_off_c, 12, 83, 127
2, 308777, Note_off_c, 3, 51, 127
2, 308779, Note_on_c, 4, 52, 127
2, 308779, Note_on_c, 10, 81, 127
2, 308825, Note_off_c, 10, 81, 127
2, 308827, Note_on_c, 8, 80, 127
2, 308873, Note_off_c, 8, 80, 127
2, 308875, Note_on_c, 10, 81, 127
2, 308921, Note_off_c, 10, 81, 127
2, 308923, Note_on_c, 8, 80, 127
2, 308969, Note_off_c, 8, 80, 127
2, 308971, Note_on_c, 6, 78, 127
2, 309159, Note_off_c, 6, 78, 127
2, 309159, Note_off_c, 4, 52, 127
2, 309161, Note_on_c, 6, 54, 127
2, 309161, Note_on_c, 8, 80, 127
2, 309349, Note_off_c, 8, 80, 127
2, 309351, Note_on_c, 10, 81, 127
2, 309539, Note_off_c, 10, 81, 127
2, 309539, Note_off_c, 6, 54, 127
2, 309541, Note_on_c, 8, 56, 127
2, 309541, Note_on_c, 12, 83, 127
2, 309729, Note_off_c, 12, 83, 127
2, 309731, Note_on_c, 8, 80, 127
2, 309919, Note_off_c, 8, 80, 127
2, 309919, Note_off_c, 8, 56, 127
2, 309921, Note_on_c, 4, 52, 127
2, 309921, Note_on_c, 10, 81, 127
2, 310109, Note_off_c, 10, 81, 127
2, 310111, Note_on_c, 12, 83, 127
2, 310299, Note_off_c, 12, 83, 127
2, 310299, Note_off_c, 4, 52, 127
2, 310301, Note_on_c, 10, 57, 127
2, 310301, Note_on_c, 2, 74, 127
2, 310359, Note_on_c, 1, 73, 127
2, 310366, Note_off_c, 2, 74, 127
2, 310417, Note_on_c, 2, 74, 127
2, 310424, Note_off_c, 1, 73, 127
2, 310475, Note_on_c, 1, 73, 127
2, 310482, Note_off_c, 2, 74, 127
2, 310531, Note_off_c, 1, 73, 127
2, 310533, Note_on_c, 12, 71, 127
2, 310680, Note_off_c, 12, 71, 127
2, 310682, Note_off_c, 10, 57, 127
2, 310684, Note_on_c, 6, 54, 127
2, 310684, Note_on_c, 1, 73, 127
2, 310872, Note_off_c, 1, 73, 127
2, 310874, Note_on_c, 10, 81, 127
2, 311062, Note_off_c, 10, 81, 127
2, 311062, Note_off_c, 6, 54, 127
2, 311064, Note_on_c, 12, 59, 127
2, 311064, Note_on_c, 4, 76, 127
2, 311122, Note_on_c, 3, 75, 127
2, 311130, Note_off_c, 4, 76, 127
2, 311181, Note_on_c, 4, 76, 127
2, 311186, Note_off_c, 3, 75, 127
2, 311238, Note_on_c, 3, 75, 127
2, 311248, Note_off_c, 4, 76, 127
2, 311295, Note_on_c, 1, 73, 127
2, 311302, Note_off_c, 3, 75, 127
2, 311442, Note_off_c, 1, 73, 127
2, 311445, Note_off_c, 12, 59, 127
2, 311447, Note_on_c, 1, 61, 127
2, 311447, Note_on_c, 3, 75, 127
2, 311635, Note_off_c, 3, 75, 127
2, 311637, Note_on_c, 4, 76, 127
2, 311825, Note_off_c, 4, 76, 127
2, 311825, Note_off_c, 1, 61, 127
2, 311827, Note_on_c, 3, 63, 127
2, 311827, Note_on_c, 6, 78, 127
2, 312017, Note_on_c, 10, 69, 127
2, 312205, Note_off_c, 10, 69, 127
2, 312205, Note_off_c, 3, 63, 127
2, 312207, Note_on_c, 4, 64, 127
2, 312207, Note_on_c, 8, 68, 127
2, 312382, Note_off_c, 6, 78, 127
2, 312396, Note_off_c, 4, 64, 127
2, 312398, Note_on_c, 10, 57, 127
2, 312398, Note_on_c, 4, 76, 127
2, 312584, Note_off_c, 8, 68, 127
2, 312586, Note_off_c, 10, 57, 127
2, 312588, Note_on_c, 12, 59, 127
2, 312588, Note_on_c, 6, 66, 127
2, 312774, Note_off_c, 4, 76, 127
2, 312778, Note_on_c, 10, 69, 127
2, 312966, Note_off_c, 12, 59, 127
2, 312968, Note_on_c, 12, 47, 127
2, 312968, Note_on_c, 4, 76, 127
2, 313156, Note_off_c, 4, 76, 127
2, 313158, Note_on_c, 3, 75, 127
2, 313333, Note_off_c, 10, 69, 127
2, 313341, Note_off_c, 6, 66, 127
2, 313347, Note_off_c, 3, 75, 127
2, 313347, Note_off_c, 12, 47, 127
2, 313349, Note_on_c, 4, 52, 127
2, 313349, Note_on_c, 4, 76, 127
2, 313539, Note_on_c, 12, 71, 127
2, 313729, Note_on_c, 8, 68, 127
2, 313919, Note_on_c, 3, 63, 127
2, 314107, Note_off_c, 3, 63, 127
2, 314109, Note_on_c, 4, 64, 127
2, 314299, Note_on_c, 12, 47, 127
2, 314487, Note_off_c, 12, 47, 127
2, 314489, Note_on_c, 4, 40, 127
2, 315235, Note_off_c, 8, 68, 127
2, 315243, Note_off_c, 12, 71, 127
2, 315251, Note_off_c, 4, 76, 127
2, 315251, Note_off_c, 4, 52, 127
2, 315280, Note_on_c, 12, 71, 127
2, 315439, Note_off_c, 4, 64, 127
2, 315590, Note_off_c, 12, 71, 127
2, 315629, Note_off_c, 4, 40, 127
2, 315631, Note_on_c, 4, 40, 127
2, 315631, Note_on_c, 12, 71, 127
2, 315821, Note_on_c, 8, 68, 127
2, 316011, Note_on_c, 4, 64, 127
2, 316104, Note_off_c, 4, 40, 127
2, 316106, Note_on_c, 8, 56, 127
2, 316199, Note_off_c, 8, 56, 127
2, 316201, Note_on_c, 6, 54, 127
2, 316294, Note_off_c, 6, 54, 127
2, 316296, Note_on_c, 4, 52, 127
2, 316389, Note_off_c, 4, 52, 127
2, 316391, Note_on_c, 2, 50, 127
2, 316579, Note_off_c, 2, 50, 127
2, 316581, Note_on_c, 4, 52, 127
2, 316674, Note_off_c, 4, 52, 127
2, 316676, Note_on_c, 1, 49, 127
2, 316769, Note_off_c, 1, 49, 127
2, 316769, Note_off_c, 4, 64, 127
2, 316769, Note_off_c, 12, 71, 127
2, 316771, Note_off_c, 8, 68, 127
2, 316771, Note_on_c, 2, 50, 127
2, 316771, Note_on_c, 8, 68, 127
2, 316771, Note_on_c, 4, 64, 127
2, 316959, Note_off_c, 2, 50, 127
2, 316961, Note_on_c, 4, 52, 127
2, 317054, Note_off_c, 4, 52, 127
2, 317056, Note_on_c, 6, 54, 127
2, 317149, Note_off_c, 6, 54, 127
2, 317149, Note_off_c, 4, 64, 127
2, 317149, Note_off_c, 8, 68, 127
2, 317151, Note_on_c, 4, 52, 127
2, 317151, Note_on_c, 8, 68, 127
2, 317151, Note_on_c, 6, 66, 127
2, 317339, Note_off_c, 8, 68, 127
2, 317339, Note_off_c, 4, 52, 127
2, 317341, Note_on_c, 6, 54, 127
2, 317341, Note_on_c, 10, 69, 127
2, 317402, Note_off_c, 10, 69, 127
2, 317404, Note_on_c, 8, 68, 127
2, 317434, Note_off_c, 6, 54, 127
2, 317436, Note_on_c, 2, 50, 127
2, 317466, Note_off_c, 8, 68, 127
2, 317468, Note_on_c, 10, 69, 127
2, 317529, Note_off_c, 2, 50, 127
2, 317531, Note_on_c, 1, 49, 127
2, 317706, Note_off_c, 6, 66, 127
2, 317720, Note_off_c, 1, 49, 127
2, 317720, Note_off_c, 10, 69, 127
2, 317722, Note_on_c, 2, 50, 127
2, 317722, Note_on_c, 12, 71, 127
2, 317722, Note_on_c, 8, 68, 127
2, 317815, Note_off_c, 2, 50, 127
2, 317817, Note_on_c, 12, 47, 127
2, 317910, Note_off_c, 12, 47, 127
2, 317910, Note_off_c, 8, 68, 127
2, 317910, Note_off_c, 12, 71, 127
2, 317912, Note_on_c, 10, 45, 127
2, 317912, Note_on_c, 10, 69, 127
2, 317912, Note_on_c, 12, 71, 127
2, 318005, Note_off_c, 12, 71, 127
2, 318007, Note_on_c, 1, 73, 127
2, 318090, Note_off_c, 10, 69, 127
2, 318100, Note_off_c, 1, 73, 127
2, 318102, Note_on_c, 12, 71, 127
2, 318195, Note_off_c, 12, 71, 127
2, 318197, Note_on_c, 10, 69, 127
2, 318290, Note_off_c, 10, 69, 127
2, 318290, Note_off_c, 10, 45, 127
2, 318292, Note_on_c, 1, 49, 127
2, 318292, Note_on_c, 12, 71, 127
2, 318385, Note_off_c, 12, 71, 127
2, 318387, Note_on_c, 1, 73, 127
2, 318480, Note_off_c, 1, 73, 127
2, 318482, Note_on_c, 2, 74, 127
2, 318575, Note_off_c, 2, 74, 127
2, 318577, Note_on_c, 4, 76, 127
2, 318670, Note_off_c, 4, 76, 127
2, 318670, Note_off_c, 1, 49, 127
2, 318672, Note_on_c, 2, 50, 127
2, 318672, Note_on_c, 6, 78, 127
2, 318862, Note_on_c, 2, 74, 127
2, 319050, Note_off_c, 2, 74, 127
2, 319050, Note_off_c, 2, 50, 127
2, 319052, Note_on_c, 7, 55, 127
2, 319052, Note_on_c, 12, 71, 127
2, 319227, Note_off_c, 6, 78, 127
2, 319243, Note_on_c, 7, 79, 127
2, 319431, Note_off_c, 7, 79, 127
2, 319431, Note_off_c, 7, 55, 127
2, 319433, Note_on_c, 1, 49, 127
2, 319433, Note_on_c, 6, 78, 127
2, 319621, Note_off_c, 6, 78, 127
2, 319623, Note_on_c, 4, 76, 127
2, 319805, Note_off_c, 12, 71, 127
2, 319811, Note_off_c, 4, 76, 127
2, 319811, Note_off_c, 1, 49, 127
2, 319813, Note_on_c, 6, 54, 127
2, 319813, Note_on_c, 11, 70, 127
2, 319813, Note_on_c, 2, 74, 127
2, 320001, Note_off_c, 2, 74, 127
2, 320003, Note_on_c, 1, 73, 127
2, 320189, Note_off_c, 11, 70, 127
2, 320191, Note_off_c, 1, 73, 127
2, 320191, Note_off_c, 6, 54, 127
2, 320193, Note_on_c, 12, 47, 127
2, 320193, Note_on_c, 1, 73, 127
2, 320383, Note_on_c, 12, 71, 127
2, 320573, Note_on_c, 6, 66, 127
2, 320666, Note_off_c, 12, 47, 127
2, 320668, Note_on_c, 12, 59, 127
2, 320747, Note_off_c, 1, 73, 127
2, 320761, Note_off_c, 12, 59, 127
2, 320763, Note_on_c, 10, 57, 127
2, 320763, Note_on_c, 2, 74, 127
2, 320856, Note_off_c, 10, 57, 127
2, 320858, Note_on_c, 7, 55, 127
2, 320951, Note_off_c, 7, 55, 127
2, 320953, Note_on_c, 6, 54, 127
2, 321141, Note_off_c, 6, 54, 127
2, 321143, Note_on_c, 7, 55, 127
2, 321236, Note_off_c, 7, 55, 127
2, 321238, Note_on_c, 4, 52, 127
2, 321325, Note_off_c, 6, 66, 127
2, 321331, Note_off_c, 4, 52, 127
2, 321331, Note_off_c, 2, 74, 127
2, 321333, Note_off_c, 12, 71, 127
2, 321333, Note_on_c, 2, 50, 127
2, 321333, Note_on_c, 12, 71, 127
2, 321416, Note_on_c, 6, 78, 127
2, 321499, Note_on_c, 12, 83, 127
2, 321521, Note_off_c, 2, 50, 127
2, 321523, Note_on_c, 4, 52, 127
2, 321616, Note_off_c, 4, 52, 127
2, 321618, Note_on_c, 6, 54, 127
2, 321709, Note_off_c, 12, 71, 127
2, 321711, Note_off_c, 6, 54, 127
2, 321711, Note_off_c, 12, 83, 127
2, 321713, Note_off_c, 6, 78, 127
2, 321713, Note_on_c, 4, 52, 127
2, 321713, Note_on_c, 12, 83, 127
2, 321713, Note_on_c, 6, 78, 127
2, 321774, Note_off_c, 12, 83, 127
2, 321776, Note_on_c, 10, 81, 127
2, 321837, Note_off_c, 10, 81, 127
2, 321839, Note_on_c, 8, 80, 127
2, 321900, Note_off_c, 8, 80, 127
2, 321900, Note_off_c, 4, 52, 127
2, 321902, Note_on_c, 6, 54, 127
2, 321902, Note_on_c, 10, 81, 127
2, 321963, Note_off_c, 10, 81, 127
2, 321965, Note_on_c, 12, 83, 127
2, 321995, Note_off_c, 6, 54, 127
2, 321997, Note_on_c, 3, 51, 127
2, 322027, Note_off_c, 12, 83, 127
2, 322029, Note_on_c, 10, 81, 127
2, 322090, Note_off_c, 10, 81, 127
2, 322090, Note_off_c, 3, 51, 127
2, 322092, Note_on_c, 1, 49, 127
2, 322092, Note_on_c, 12, 83, 127
2, 322153, Note_off_c, 12, 83, 127
2, 322155, Note_on_c, 10, 81, 127
2, 322216, Note_off_c, 10, 81, 127
2, 322218, Note_on_c, 8, 80, 127
2, 322279, Note_off_c, 8, 80, 127
2, 322279, Note_off_c, 1, 49, 127
2, 322281, Note_on_c, 3, 51, 127
2, 322281, Note_on_c, 10, 81, 127
2, 322342, Note_off_c, 10, 81, 127
2, 322344, Note_on_c, 12, 83, 127
2, 322374, Note_off_c, 3, 51, 127
2, 322376, Note_on_c, 12, 47, 127
2, 322463, Note_off_c, 6, 78, 127
2, 322469, Note_off_c, 12, 47, 127
2, 322469, Note_off_c, 12, 83, 127
2, 322471, Note_on_c, 4, 52, 127
2, 322471, Note_on_c, 10, 81, 127
2, 322659, Note_off_c, 10, 81, 127
2, 322661, Note_on_c, 7, 79, 127
2, 322849, Note_off_c, 7, 79, 127
2, 322849, Note_off_c, 4, 52, 127
2, 322851, Note_on_c, 6, 54, 127
2, 322851, Note_on_c, 6, 78, 127
2, 323039, Note_off_c, 6, 78, 127
2, 323041, Note_on_c, 4, 76, 127
2, 323229, Note_off_c, 4, 76, 127
2, 323229, Note_off_c, 6, 54, 127
2, 323231, Note_on_c, 7, 55, 127
2, 323231, Note_on_c, 2, 74, 127
2, 323419, Note_off_c, 2, 74, 127
2, 323421, Note_on_c, 1, 73, 127
2, 323609, Note_off_c, 1, 73, 127
2, 323609, Note_off_c, 7, 55, 127
2, 323611, Note_on_c, 6, 54, 127
2, 323611, Note_on_c, 12, 71, 127
2, 323799, Note_off_c, 12, 71, 127
2, 323801, Note_on_c, 1, 73, 127
2, 323989, Note_off_c, 1, 73, 127
2, 323989, Note_off_c, 6, 54, 127
2, 323991, Note_on_c, 4, 52, 127
2, 323991, Note_on_c, 2, 74, 127
2, 324084, Note_off_c, 4, 52, 127
2, 324086, Note_on_c, 6, 54, 127
2, 324179, Note_off_c, 6, 54, 127
2, 324179, Note_off_c, 2, 74, 127
2, 324181, Note_on_c, 4, 52, 127
2, 324181, Note_on_c, 6, 78, 127
2, 324369, Note_off_c, 6, 78, 127
2, 324369, Note_off_c, 4, 52, 127
2, 324371, Note_on_c, 2, 50, 127
2, 324371, Note_on_c, 4, 76, 127
2, 324559, Note_off_c, 4, 76, 127
2, 324561, Note_on_c, 2, 74, 127
2, 324749, Note_off_c, 2, 74, 127
2, 324749, Note_off_c, 2, 50, 127
2, 324751, Note_on_c, 10, 57, 127
2, 324751, Note_on_c, 2, 74, 127
2, 324809, Note_on_c, 1, 73, 127
2, 324815, Note_off_c, 2, 74, 127
2, 324867, Note_on_c, 2, 74, 127
2, 324870, Note_off_c, 1, 73, 127
2, 324925, Note_on_c, 1, 73, 127
2, 324932, Note_off_c, 2, 74, 127
2, 324983, Note_on_c, 12, 71, 127
2, 324990, Note_off_c, 1, 73, 127
2, 325132, Note_off_c, 12, 71, 127
2, 325134, Note_on_c, 1, 61, 127
2, 325134, Note_on_c, 10, 69, 127
2, 325322, Note_off_c, 10, 69, 127
2, 325324, Note_on_c, 12, 71, 127
2, 325512, Note_off_c, 12, 71, 127
2, 325512, Note_off_c, 1, 61, 127
2, 325514, Note_on_c, 4, 64, 127
2, 325514, Note_on_c, 1, 73, 127
2, 325702, Note_off_c, 1, 73, 127
2, 325704, Note_on_c, 2, 74, 127
2, 325892, Note_off_c, 2, 74, 127
2, 325892, Note_off_c, 4, 64, 127
2, 325892, Note_off_c, 10, 57, 127
2, 325894, Note_on_c, 10, 57, 127
2, 325894, Note_on_c, 1, 61, 127
2, 325894, Note_on_c, 4, 76, 127
2, 326082, Note_off_c, 4, 76, 127
2, 326084, Note_on_c, 6, 78, 127
2, 326272, Note_off_c, 6, 78, 127
2, 326272, Note_off_c, 1, 61, 127
2, 326272, Note_off_c, 10, 57, 127
2, 326274, Note_on_c, 12, 59, 127
2, 326274, Note_on_c, 2, 62, 127
2, 326274, Note_on_c, 7, 79, 127
2, 326462, Note_off_c, 7, 79, 127
2, 326464, Note_on_c, 12, 83, 127
2, 326652, Note_off_c, 12, 83, 127
2, 326652, Note_off_c, 2, 62, 127
2, 326652, Note_off_c, 12, 59, 127
2, 326654, Note_on_c, 1, 61, 127
2, 326654, Note_on_c, 4, 64, 127
2, 326654, Note_on_c, 10, 81, 127
2, 326842, Note_off_c, 10, 81, 127
2, 326844, Note_on_c, 7, 79, 127
2, 327032, Note_off_c, 7, 79, 127
2, 327032, Note_off_c, 4, 64, 127
2, 327032, Note_off_c, 1, 61, 127
2, 327034, Note_on_c, 2, 62, 127
2, 327034, Note_on_c, 6, 78, 127
2, 327222, Note_off_c, 6, 78, 127
2, 327224, Note_on_c, 7, 79, 127
2, 327412, Note_off_c, 7, 79, 127
2, 327412, Note_off_c, 2, 62, 127
2, 327414, Note_on_c, 2, 50, 127
2, 327414, Note_on_c, 6, 78, 127
2, 327602, Note_off_c, 6, 78, 127
2, 327602, Note_off_c, 2, 50, 127
2, 327604, Note_on_c, 4, 52, 127
2, 327604, Note_on_c, 4, 76, 127
2, 327792, Note_off_c, 4, 76, 127
2, 327792, Note_off_c, 4, 52, 127
2, 327794, Note_on_c, 6, 54, 127
2, 327794, Note_on_c, 2, 74, 127
2, 327982, Note_off_c, 2, 74, 127
2, 327984, Note_on_c, 1, 73, 127
2, 328172, Note_off_c, 1, 73, 127
2, 328172, Note_off_c, 6, 54, 127
2, 328174, Note_on_c, 7, 55, 127
2, 328174, Note_on_c, 12, 71, 127
2, 328362, Note_off_c, 12, 71, 127
2, 328364, Note_on_c, 4, 76, 127
2, 328552, Note_off_c, 4, 76, 127
2, 328552, Note_off_c, 7, 55, 127
2, 328554, Note_on_c, 10, 57, 127
2, 328554, Note_on_c, 2, 74, 127
2, 328679, Note_off_c, 2, 74, 127
2, 328681, Note_on_c, 1, 73, 127
2, 328742, Note_off_c, 1, 73, 127
2, 328744, Note_on_c, 2, 74, 127
2, 328805, Note_off_c, 2, 74, 127
2, 328807, Note_on_c, 1, 73, 127
2, 328868, Note_off_c, 1, 73, 127
2, 328870, Note_on_c, 2, 74, 127
2, 328931, Note_off_c, 2, 74, 127
2, 328931, Note_off_c, 10, 57, 127
2, 328933, Note_on_c, 10, 45, 127
2, 328933, Note_on_c, 1, 73, 127
2, 329121, Note_off_c, 1, 73, 127
2, 329123, Note_on_c, 2, 74, 127
2, 329311, Note_off_c, 2, 74, 127
2, 329311, Note_off_c, 10, 45, 127
2, 329313, Note_on_c, 2, 38, 127
2, 329313, Note_on_c, 2, 74, 127
2, 329503, Note_on_c, 10, 69, 127
2, 329693, Note_on_c, 6, 66, 127
2, 329786, Note_off_c, 2, 38, 127
2, 329788, Note_on_c, 6, 54, 127
2, 329881, Note_off_c, 6, 54, 127
2, 329883, Note_on_c, 4, 52, 127
2, 329976, Note_off_c, 4, 52, 127
2, 329978, Note_on_c, 2, 50, 127
2, 330071, Note_off_c, 2, 50, 127
2, 330073, Note_on_c, 1, 49, 127
2, 330261, Note_off_c, 1, 49, 127
2, 330263, Note_on_c, 2, 50, 127
2, 330356, Note_off_c, 2, 50, 127
2, 330358, Note_on_c, 12, 47, 127
2, 330451, Note_off_c, 12, 47, 127
2, 330451, Note_off_c, 6, 66, 127
2, 330451, Note_off_c, 2, 74, 127
2, 330453, Note_off_c, 10, 69, 127
2, 330453, Note_on_c, 11, 46, 127
2, 330453, Note_on_c, 6, 78, 127
2, 330641, Note_off_c, 6, 78, 127
2, 330641, Note_off_c, 11, 46, 127
2, 330643, Note_on_c, 12, 47, 127
2, 330643, Note_on_c, 7, 79, 127
2, 330736, Note_off_c, 7, 79, 127
2, 330736, Note_off_c, 12, 47, 127
2, 330738, Note_on_c, 1, 49, 127
2, 330738, Note_on_c, 10, 81, 127
2, 330831, Note_off_c, 10, 81, 127
2, 330831, Note_off_c, 1, 49, 127
2, 330833, Note_on_c, 12, 47, 127
2, 330833, Note_on_c, 10, 81, 127
2, 330958, Note_off_c, 10, 81, 127
2, 330960, Note_on_c, 7, 79, 127
2, 331021, Note_off_c, 7, 79, 127
2, 331021, Note_off_c, 12, 47, 127
2, 331023, Note_on_c, 1, 49, 127
2, 331023, Note_on_c, 10, 81, 127
2, 331084, Note_off_c, 10, 81, 127
2, 331086, Note_on_c, 7, 79, 127
2, 331116, Note_off_c, 1, 49, 127
2, 331118, Note_on_c, 10, 45, 127
2, 331148, Note_off_c, 7, 79, 127
2, 331150, Note_on_c, 10, 81, 127
2, 331211, Note_off_c, 10, 81, 127
2, 331211, Note_off_c, 10, 45, 127
2, 331213, Note_on_c, 7, 43, 127
2, 331213, Note_on_c, 7, 79, 127
2, 331401, Note_off_c, 7, 79, 127
2, 331401, Note_off_c, 7, 43, 127
2, 331403, Note_on_c, 10, 45, 127
2, 331403, Note_on_c, 6, 78, 127
2, 331496, Note_off_c, 10, 45, 127
2, 331498, Note_on_c, 6, 42, 127
2, 331591, Note_off_c, 6, 42, 127
2, 331591, Note_off_c, 6, 78, 127
2, 331593, Note_on_c, 7, 43, 127
2, 331593, Note_on_c, 6, 78, 127
2, 331781, Note_off_c, 6, 78, 127
2, 331783, Note_on_c, 4, 76, 127
2, 331971, Note_off_c, 4, 76, 127
2, 331971, Note_off_c, 7, 43, 127
2, 331973, Note_on_c, 6, 42, 127
2, 331973, Note_on_c, 2, 74, 127
2, 332066, Note_off_c, 6, 42, 127
2, 332068, Note_on_c, 7, 43, 127
2, 332161, Note_off_c, 7, 43, 127
2, 332161, Note_off_c, 2, 74, 127
2, 332163, Note_on_c, 6, 42, 127
2, 332163, Note_on_c, 1, 73, 127
2, 332351, Note_off_c, 1, 73, 127
2, 332351, Note_off_c, 6, 42, 127
2, 332353, Note_on_c, 4, 40, 127
2, 332353, Note_on_c, 2, 74, 127
2, 332541, Note_off_c, 2, 74, 127
2, 332543, Note_on_c, 1, 73, 127
2, 332731, Note_off_c, 1, 73, 127
2, 332731, Note_off_c, 4, 40, 127
2, 332733, Note_on_c, 1, 49, 127
2, 332733, Note_on_c, 12, 71, 127
2, 332921, Note_off_c, 12, 71, 127
2, 332923, Note_on_c, 11, 70, 127
2, 333111, Note_off_c, 11, 70, 127
2, 333111, Note_off_c, 1, 49, 127
2, 333113, Note_on_c, 2, 50, 127
2, 333113, Note_on_c, 12, 71, 127
2, 333301, Note_off_c, 12, 71, 127
2, 333303, Note_on_c, 11, 70, 127
2, 333491, Note_off_c, 11, 70, 127
2, 333491, Note_off_c, 2, 50, 127
2, 333493, Note_on_c, 4, 52, 127
2, 333493, Note_on_c, 12, 71, 127
2, 333681, Note_off_c, 12, 71, 127
2, 333683, Note_on_c, 1, 73, 127
2, 333871, Note_off_c, 1, 73, 127
2, 333871, Note_off_c, 4, 52, 127
2, 333873, Note_on_c, 6, 54, 127
2, 333873, Note_on_c, 11, 70, 127
2, 334061, Note_off_c, 11, 70, 127
2, 334063, Note_on_c, 8, 68, 127
2, 334251, Note_off_c, 8, 68, 127
2, 334253, Note_on_c, 11, 58, 127
2, 334253, Note_on_c, 6, 66, 127
2, 334441, Note_off_c, 6, 66, 127
2, 334443, Note_on_c, 8, 68, 127
2, 334631, Note_off_c, 8, 68, 127
2, 334631, Note_off_c, 11, 58, 127
2, 334633, Note_on_c, 1, 61, 127
2, 334633, Note_on_c, 11, 70, 127
2, 334821, Note_off_c, 11, 70, 127
2, 334823, Note_on_c, 12, 71, 127
2, 335011, Note_off_c, 12, 71, 127
2, 335011, Note_off_c, 1, 61, 127
2, 335011, Note_off_c, 6, 54, 127
2, 335013, Note_on_c, 11, 58, 127
2, 335013, Note_on_c, 6, 54, 127
2, 335013, Note_on_c, 1, 73, 127
2, 335201, Note_off_c, 1, 73, 127
2, 335203, Note_on_c, 2, 74, 127
2, 335391, Note_off_c, 2, 74, 127
2, 335391, Note_off_c, 6, 54, 127
2, 335391, Note_off_c, 11, 58, 127
2, 335393, Note_on_c, 12, 59, 127
2, 335393, Note_on_c, 8, 56, 127
2, 335393, Note_on_c, 4, 76, 127
2, 335581, Note_off_c, 4, 76, 127
2, 335583, Note_on_c, 7, 79, 127
2, 335771, Note_off_c, 7, 79, 127
2, 335771, Note_off_c, 8, 56, 127
2, 335771, Note_off_c, 12, 59, 127
2, 335773, Note_on_c, 1, 61, 127
2, 335773, Note_on_c, 11, 58, 127
2, 335773, Note_on_c, 6, 78, 127
2, 335961, Note_off_c, 6, 78, 127
2, 335963, Note_on_c, 4, 76, 127
2, 336151, Note_off_c, 4, 76, 127
2, 336151, Note_off_c, 11, 58, 127
2, 336151, Note_off_c, 1, 61, 127
2, 336153, Note_on_c, 12, 59, 127
2, 336153, Note_on_c, 2, 74, 127
2, 336341, Note_off_c, 2, 74, 127
2, 336341, Note_off_c, 12, 59, 127
2, 336343, Note_on_c, 1, 61, 127
2, 336343, Note_on_c, 4, 76, 127
2, 336531, Note_off_c, 4, 76, 127
2, 336531, Note_off_c, 1, 61, 127
2, 336533, Note_on_c, 12, 59, 127
2, 336533, Note_on_c, 2, 74, 127
2, 336721, Note_off_c, 2, 74, 127
2, 336721, Note_off_c, 12, 59, 127
2, 336723, Note_on_c, 10, 57, 127
2, 336723, Note_on_c, 1, 73, 127
2, 336911, Note_off_c, 1, 73, 127
2, 336911, Note_off_c, 10, 57, 127
2, 336913, Note_on_c, 7, 55, 127
2, 336913, Note_on_c, 12, 71, 127
2, 337101, Note_off_c, 12, 71, 127
2, 337101, Note_off_c, 7, 55, 127
2, 337103, Note_on_c, 6, 54, 127
2, 337103, Note_on_c, 11, 70, 127
2, 337291, Note_off_c, 11, 70, 127
2, 337291, Note_off_c, 6, 54, 127
2, 337293, Note_on_c, 7, 55, 127
2, 337293, Note_on_c, 12, 71, 127
2, 337481, Note_off_c, 12, 71, 127
2, 337481, Note_off_c, 7, 55, 127
2, 337483, Note_on_c, 4, 52, 127
2, 337483, Note_on_c, 1, 73, 127
2, 337671, Note_off_c, 1, 73, 127
2, 337671, Note_off_c, 4, 52, 127
2, 337673, Note_on_c, 6, 54, 127
2, 337673, Note_on_c, 11, 70, 127
2, 337673, Note_on_c, 2, 74, 127
2, 337734, Note_off_c, 2, 74, 127
2, 337736, Note_on_c, 1, 73, 127
2, 337797, Note_off_c, 1, 73, 127
2, 337799, Note_on_c, 2, 74, 127
2, 337860, Note_off_c, 2, 74, 127
2, 337862, Note_on_c, 1, 73, 127
2, 337923, Note_off_c, 1, 73, 127
2, 337925, Note_on_c, 2, 74, 127
2, 337986, Note_off_c, 2, 74, 127
2, 337988, Note_on_c, 1, 73, 127
2, 338049, Note_off_c, 6, 54, 127
2, 338051, Note_on_c, 6, 42, 127
2, 338226, Note_off_c, 11, 70, 127
2, 338240, Note_off_c, 1, 73, 127
2, 338242, Note_on_c, 12, 71, 127
2, 338430, Note_off_c, 12, 71, 127
2, 338430, Note_off_c, 6, 42, 127
2, 338432, Note_on_c, 12, 35, 127
2, 338432, Note_on_c, 12, 71, 127
2, 338622, Note_on_c, 6, 66, 127
2, 338812, Note_on_c, 2, 62, 127
2, 338905, Note_off_c, 12, 35, 127
2, 338907, Note_on_c, 4, 52, 127
2, 339000, Note_off_c, 4, 52, 127
2, 339002, Note_on_c, 2, 50, 127
2, 339095, Note_off_c, 2, 50, 127
2, 339097, Note_on_c, 1, 49, 127
2, 339190, Note_off_c, 1, 49, 127
2, 339192, Note_on_c, 12, 47, 127
2, 339380, Note_off_c, 12, 47, 127
2, 339382, Note_on_c, 1, 49, 127
2, 339475, Note_off_c, 1, 49, 127
2, 339477, Note_on_c, 10, 45, 127
2, 339570, Note_off_c, 10, 45, 127
2, 339570, Note_off_c, 2, 62, 127
2, 339570, Note_off_c, 12, 71, 127
2, 339572, Note_off_c, 6, 66, 127
2, 339572, Note_on_c, 8, 44, 127
2, 339572, Note_on_c, 12, 71, 127
2, 339760, Note_off_c, 8, 44, 127
2, 339762, Note_on_c, 10, 45, 127
2, 339855, Note_off_c, 10, 45, 127
2, 339857, Note_on_c, 12, 47, 127
2, 339950, Note_off_c, 12, 47, 127
2, 339950, Note_off_c, 12, 71, 127
2, 339952, Note_on_c, 10, 45, 127
2, 339952, Note_on_c, 1, 73, 127
2, 340013, Note_off_c, 1, 73, 127
2, 340015, Note_on_c, 2, 74, 127
2, 340076, Note_off_c, 2, 74, 127
2, 340078, Note_on_c, 4, 76, 127
2, 340139, Note_off_c, 10, 45, 127
2, 340141, Note_on_c, 12, 47, 127
2, 340234, Note_off_c, 12, 47, 127
2, 340236, Note_on_c, 8, 44, 127
2, 340329, Note_off_c, 8, 44, 127
2, 340331, Note_on_c, 6, 42, 127
2, 340519, Note_off_c, 6, 42, 127
2, 340519, Note_off_c, 4, 76, 127
2, 340521, Note_on_c, 8, 44, 127
2, 340521, Note_on_c, 2, 74, 127
2, 340614, Note_off_c, 8, 44, 127
2, 340616, Note_on_c, 4, 40, 127
2, 340709, Note_off_c, 4, 40, 127
2, 340709, Note_off_c, 2, 74, 127
2, 340711, Note_on_c, 10, 45, 127
2, 340711, Note_on_c, 1, 73, 127
2, 340899, Note_off_c, 1, 73, 127
2, 340901, Note_on_c, 2, 74, 127
2, 341089, Note_off_c, 2, 74, 127
2, 341089, Note_off_c, 10, 45, 127
2, 341091, Note_on_c, 12, 47, 127
2, 341091, Note_on_c, 1, 73, 127
2, 341279, Note_off_c, 1, 73, 127
2, 341281, Note_on_c, 12, 71, 127
2, 341469, Note_off_c, 12, 71, 127
2, 341469, Note_off_c, 12, 47, 127
2, 341471, Note_on_c, 1, 49, 127
2, 341471, Note_on_c, 10, 69, 127
2, 341659, Note_off_c, 10, 69, 127
2, 341661, Note_on_c, 8, 68, 127
2, 341849, Note_off_c, 8, 68, 127
2, 341849, Note_off_c, 1, 49, 127
2, 341851, Note_on_c, 2, 50, 127
2, 341851, Note_on_c, 6, 66, 127
2, 342039, Note_off_c, 6, 66, 127
2, 342039, Note_off_c, 2, 50, 127
2, 342041, Note_on_c, 1, 49, 127
2, 342041, Note_on_c, 8, 68, 127
2, 342229, Note_off_c, 8, 68, 127
2, 342229, Note_off_c, 1, 49, 127
2, 342231, Note_on_c, 12, 47, 127
2, 342231, Note_on_c, 10, 69, 127
2, 342324, Note_off_c, 12, 47, 127
2, 342326, Note_on_c, 1, 49, 127
2, 342419, Note_off_c, 1, 49, 127
2, 342419, Note_off_c, 10, 69, 127
2, 342421, Note_on_c, 12, 47, 127
2, 342421, Note_on_c, 1, 73, 127
2, 342609, Note_off_c, 1, 73, 127
2, 342609, Note_off_c, 12, 47, 127
2, 342611, Note_on_c, 10, 45, 127
2, 342611, Note_on_c, 12, 71, 127
2, 342799, Note_off_c, 12, 71, 127
2, 342801, Note_on_c, 10, 69, 127
2, 342989, Note_off_c, 10, 69, 127
2, 342989, Note_off_c, 10, 45, 127
2, 342991, Note_on_c, 4, 52, 127
2, 342991, Note_on_c, 8, 68, 127
2, 343179, Note_off_c, 8, 68, 127
2, 343181, Note_on_c, 6, 66, 127
2, 343369, Note_off_c, 6, 66, 127
2, 343371, Note_on_c, 8, 56, 127
2, 343371, Note_on_c, 4, 64, 127
2, 343559, Note_off_c, 4, 64, 127
2, 343561, Note_on_c, 6, 66, 127
2, 343749, Note_off_c, 6, 66, 127
2, 343749, Note_off_c, 8, 56, 127
2, 343751, Note_on_c, 12, 59, 127
2, 343751, Note_on_c, 8, 68, 127
2, 343939, Note_off_c, 8, 68, 127
2, 343941, Note_on_c, 10, 69, 127
2, 344129, Note_off_c, 10, 69, 127
2, 344129, Note_off_c, 4, 52, 127
2, 344131, Note_on_c, 4, 52, 127
2, 344131, Note_on_c, 12, 71, 127
2, 344319, Note_off_c, 12, 71, 127
2, 344321, Note_on_c, 1, 73, 127
2, 344503, Note_off_c, 12, 59, 127
2, 344509, Note_off_c, 1, 73, 127
2, 344509, Note_off_c, 4, 52, 127
2, 344511, Note_on_c, 10, 57, 127
2, 344511, Note_on_c, 2, 74, 127
2, 344699, Note_off_c, 2, 74, 127
2, 344701, Note_on_c, 1, 73, 127
2, 344889, Note_off_c, 1, 73, 127
2, 344889, Note_off_c, 10, 57, 127
2, 344891, Note_on_c, 12, 59, 127
2, 344891, Note_on_c, 12, 71, 127
2, 344952, Note_off_c, 12, 71, 127
2, 344954, Note_on_c, 1, 73, 127
2, 345015, Note_off_c, 1, 73, 127
2, 345017, Note_on_c, 12, 71, 127
2, 345078, Note_off_c, 12, 71, 127
2, 345080, Note_on_c, 10, 69, 127
2, 345268, Note_off_c, 10, 69, 127
2, 345268, Note_off_c, 12, 59, 127
2, 345270, Note_on_c, 1, 61, 127
2, 345270, Note_on_c, 4, 76, 127
2, 345458, Note_off_c, 4, 76, 127
2, 345460, Note_on_c, 2, 74, 127
2, 345648, Note_off_c, 2, 74, 127
2, 345650, Note_on_c, 4, 64, 127
2, 345650, Note_on_c, 1, 73, 127
2, 345838, Note_off_c, 1, 73, 127
2, 345840, Note_on_c, 2, 74, 127
2, 346028, Note_off_c, 2, 74, 127
2, 346028, Note_off_c, 4, 64, 127
2, 346030, Note_on_c, 10, 69, 127
2, 346030, Note_on_c, 4, 76, 127
2, 346218, Note_off_c, 4, 76, 127
2, 346220, Note_on_c, 6, 78, 127
2, 346408, Note_off_c, 6, 78, 127
2, 346408, Note_off_c, 10, 69, 127
2, 346408, Note_off_c, 1, 61, 127
2, 346410, Note_on_c, 1, 61, 127
2, 346410, Note_on_c, 10, 57, 127
2, 346410, Note_on_c, 7, 79, 127
2, 346598, Note_off_c, 7, 79, 127
2, 346600, Note_on_c, 6, 78, 127
2, 346788, Note_off_c, 6, 78, 127
2, 346788, Note_off_c, 10, 57, 127
2, 346788, Note_off_c, 1, 61, 127
2, 346790, Note_on_c, 12, 59, 127
2, 346790, Note_on_c, 2, 62, 127
2, 346790, Note_on_c, 7, 79, 127
2, 346978, Note_off_c, 7, 79, 127
2, 346980, Note_on_c, 12, 83, 127
2, 347168, Note_off_c, 12, 83, 127
2, 347168, Note_off_c, 2, 62, 127
2, 347168, Note_off_c, 12, 59, 127
2, 347170, Note_on_c, 1, 61, 127
2, 347170, Note_on_c, 4, 64, 127
2, 347170, Note_on_c, 10, 81, 127
2, 347358, Note_off_c, 10, 81, 127
2, 347360, Note_on_c, 7, 79, 127
2, 347548, Note_off_c, 7, 79, 127
2, 347548, Note_off_c, 4, 64, 127
2, 347548, Note_off_c, 1, 61, 127
2, 347550, Note_on_c, 2, 62, 127
2, 347550, Note_on_c, 6, 78, 127
2, 347738, Note_off_c, 6, 78, 127
2, 347740, Note_on_c, 4, 76, 127
2, 347928, Note_off_c, 4, 76, 127
2, 347928, Note_off_c, 2, 62, 127
2, 347930, Note_on_c, 1, 61, 127
2, 347930, Note_on_c, 6, 78, 127
2, 348118, Note_off_c, 6, 78, 127
2, 348118, Note_off_c, 1, 61, 127
2, 348120, Note_on_c, 12, 59, 127
2, 348120, Note_on_c, 8, 80, 127
2, 348308, Note_off_c, 8, 80, 127
2, 348308, Note_off_c, 12, 59, 127
2, 348310, Note_on_c, 1, 61, 127
2, 348310, Note_on_c, 10, 81, 127
2, 348498, Note_off_c, 10, 81, 127
2, 348500, Note_on_c, 2, 74, 127
2, 348688, Note_off_c, 2, 74, 127
2, 348688, Note_off_c, 1, 61, 127
2, 348690, Note_on_c, 2, 62, 127
2, 348690, Note_on_c, 1, 73, 127
2, 348878, Note_off_c, 1, 73, 127
2, 348880, Note_on_c, 12, 71, 127
2, 349068, Note_off_c, 12, 71, 127
2, 349068, Note_off_c, 2, 62, 127
2, 349070, Note_on_c, 4, 64, 127
2, 349070, Note_on_c, 8, 68, 127
2, 349070, Note_on_c, 1, 73, 127
2, 349195, Note_off_c, 1, 73, 127
2, 349197, Note_on_c, 12, 71, 127
2, 349258, Note_off_c, 12, 71, 127
2, 349260, Note_on_c, 1, 73, 127
2, 349321, Note_off_c, 1, 73, 127
2, 349323, Note_on_c, 12, 71, 127
2, 349384, Note_off_c, 12, 71, 127
2, 349386, Note_on_c, 1, 73, 127
2, 349447, Note_off_c, 1, 73, 127
2, 349447, Note_off_c, 4, 64, 127
2, 349449, Note_on_c, 4, 52, 127
2, 349449, Note_on_c, 12, 71, 127
2, 349510, Note_off_c, 12, 71, 127
2, 349512, Note_on_c, 1, 73, 127
2, 349573, Note_off_c, 1, 73, 127
2, 349575, Note_on_c, 12, 71, 127
2, 349623, Note_off_c, 8, 68, 127
2, 349637, Note_off_c, 12, 71, 127
2, 349639, Note_on_c, 10, 69, 127
2, 349827, Note_off_c, 10, 69, 127
2, 349827, Note_off_c, 4, 52, 127
2, 349829, Note_on_c, 10, 45, 127
2, 349829, Note_on_c, 10, 69, 127
2, 350019, Note_on_c, 4, 64, 127
2, 350209, Note_on_c, 1, 61, 127
2, 350399, Note_on_c, 8, 56, 127
2, 350587, Note_off_c, 8, 56, 127
2, 350589, Note_on_c, 10, 57, 127
2, 350777, Note_off_c, 10, 45, 127
2, 350779, Note_on_c, 4, 40, 127
2, 350967, Note_off_c, 4, 40, 127
2, 350969, Note_on_c, 10, 33, 127
2, 351715, Note_off_c, 1, 61, 127
2, 351723, Note_off_c, 4, 64, 127
2, 351731, Note_off_c, 10, 69, 127
2, 351919, Note_off_c, 10, 57, 127
2, 351921, Note_on_c, 10, 69, 127
2, 352109, Note_off_c, 10, 69, 127
2, 352109, Note_off_c, 10, 33, 127
2, 352111, Note_on_c, 10, 57, 127
2, 352111, Note_on_c, 10, 69, 127
2, 352301, Note_on_c, 4, 64, 127
2, 352491, Note_on_c, 1, 61, 127
2, 352679, Note_off_c, 10, 57, 127
2, 352681, Note_on_c, 10, 45, 127
2, 352869, Note_off_c, 10, 45, 127
2, 352871, Note_on_c, 12, 47, 127
2, 353059, Note_off_c, 12, 47, 127
2, 353061, Note_on_c, 2, 50, 127
2, 353249, Note_off_c, 2, 50, 127
2, 353249, Note_off_c, 1, 61, 127
2, 353249, Note_off_c, 10, 69, 127
2, 353251, Note_off_c, 4, 64, 127
2, 353251, Note_on_c, 1, 49, 127
2, 353251, Note_on_c, 4, 64, 127
2, 353439, Note_off_c, 1, 49, 127
2, 353441, Note_on_c, 4, 52, 127
2, 353629, Note_off_c, 4, 52, 127
2, 353629, Note_off_c, 4, 64, 127
2, 353631, Note_on_c, 2, 50, 127
2, 353631, Note_on_c, 4, 64, 127
2, 353756, Note_off_c, 4, 64, 127
2, 353758, Note_on_c, 6, 66, 127
2, 353819, Note_off_c, 6, 66, 127
2, 353819, Note_off_c, 2, 50, 127
2, 353821, Note_on_c, 1, 49, 127
2, 353821, Note_on_c, 4, 64, 127
2, 353882, Note_off_c, 4, 64, 127
2, 353884, Note_on_c, 6, 66, 127
2, 354009, Note_off_c, 1, 49, 127
2, 354011, Note_on_c, 12, 47, 127
2, 354199, Note_off_c, 12, 47, 127
2, 354199, Note_off_c, 6, 66, 127
2, 354201, Note_on_c, 10, 45, 127
2, 354201, Note_on_c, 7, 67, 127
2, 354389, Note_off_c, 7, 67, 127
2, 354389, Note_off_c, 10, 45, 127
2, 354391, Note_on_c, 2, 50, 127
2, 354391, Note_on_c, 7, 67, 127
2, 354516, Note_off_c, 7, 67, 127
2, 354518, Note_on_c, 6, 66, 127
2, 354579, Note_off_c, 6, 66, 127
2, 354579, Note_off_c, 2, 50, 127
2, 354581, Note_on_c, 4, 52, 127
2, 354581, Note_on_c, 7, 67, 127
2, 354642, Note_off_c, 7, 67, 127
2, 354644, Note_on_c, 6, 66, 127
2, 354705, Note_off_c, 6, 66, 127
2, 354707, Note_on_c, 7, 67, 127
2, 354768, Note_off_c, 7, 67, 127
2, 354768, Note_off_c, 4, 52, 127
2, 354770, Note_on_c, 2, 50, 127
2, 354770, Note_on_c, 6, 66, 127
2, 354958, Note_off_c, 6, 66, 127
2, 354958, Note_off_c, 2, 50, 127
2, 354960, Note_on_c, 1, 49, 127
2, 354960, Note_on_c, 10, 69, 127
2, 355148, Note_off_c, 10, 69, 127
2, 355148, Note_off_c, 1, 49, 127
2, 355150, Note_on_c, 12, 47, 127
2, 355150, Note_on_c, 2, 74, 127
2, 355338, Note_off_c, 12, 47, 127
2, 355340, Note_on_c, 10, 45, 127
2, 355340, Note_on_c, 1, 73, 127
2, 355528, Note_off_c, 1, 73, 127
2, 355528, Note_off_c, 10, 45, 127
2, 355530, Note_on_c, 8, 44, 127
2, 355530, Note_on_c, 12, 71, 127
2, 355705, Note_off_c, 2, 74, 127
2, 355719, Note_off_c, 8, 44, 127
2, 355721, Note_on_c, 4, 40, 127
2, 355721, Note_on_c, 4, 76, 127
2, 355909, Note_off_c, 4, 76, 127
2, 355909, Note_off_c, 4, 40, 127
2, 355911, Note_on_c, 10, 45, 127
2, 355911, Note_on_c, 2, 74, 127
2, 356036, Note_off_c, 2, 74, 127
2, 356038, Note_on_c, 1, 73, 127
2, 356099, Note_off_c, 1, 73, 127
2, 356099, Note_off_c, 10, 45, 127
2, 356101, Note_on_c, 4, 40, 127
2, 356101, Note_on_c, 2, 74, 127
2, 356162, Note_off_c, 2, 74, 127
2, 356164, Note_on_c, 1, 73, 127
2, 356225, Note_off_c, 1, 73, 127
2, 356227, Note_on_c, 2, 74, 127
2, 356283, Note_off_c, 12, 71, 127
2, 356289, Note_off_c, 2, 74, 127
2, 356289, Note_off_c, 4, 40, 127
2, 356291, Note_on_c, 1, 37, 127
2, 356291, Note_on_c, 10, 69, 127
2, 356291, Note_on_c, 1, 73, 127
2, 356479, Note_off_c, 1, 73, 127
2, 356479, Note_off_c, 10, 69, 127
2, 356479, Note_off_c, 1, 37, 127
2, 356481, Note_on_c, 10, 33, 127
2, 356481, Note_on_c, 12, 71, 127
2, 356669, Note_off_c, 12, 71, 127
2, 356669, Note_off_c, 10, 33, 127
2, 356671, Note_on_c, 4, 40, 127
2, 356671, Note_on_c, 12, 71, 127
2, 356861, Note_on_c, 8, 68, 127
2, 357051, Note_on_c, 4, 64, 127
2, 357239, Note_off_c, 4, 40, 127
2, 357241, Note_on_c, 4, 52, 127
2, 357429, Note_off_c, 4, 52, 127
2, 357431, Note_on_c, 6, 54, 127
2, 357619, Note_off_c, 6, 54, 127
2, 357621, Note_on_c, 10, 57, 127
2, 357809, Note_off_c, 10, 57, 127
2, 357809, Note_off_c, 4, 64, 127
2, 357809, Note_off_c, 12, 71, 127
2, 357811, Note_off_c, 8, 68, 127
2, 357811, Note_on_c, 8, 56, 127
2, 357811, Note_on_c, 4, 64, 127
2, 357894, Note_on_c, 12, 71, 127
2, 357977, Note_on_c, 4, 76, 127
2, 357999, Note_off_c, 8, 56, 127
2, 358001, Note_on_c, 12, 59, 127
2, 358185, Note_off_c, 12, 71, 127
2, 358187, Note_off_c, 4, 64, 127
2, 358189, Note_off_c, 12, 59, 127
2, 358189, Note_off_c, 4, 76, 127
2, 358191, Note_on_c, 10, 57, 127
2, 358191, Note_on_c, 12, 71, 127
2, 358191, Note_on_c, 4, 76, 127
2, 358252, Note_off_c, 4, 76, 127
2, 358254, Note_on_c, 2, 74, 127
2, 358315, Note_off_c, 2, 74, 127
2, 358317, Note_on_c, 1, 73, 127
2, 358378, Note_off_c, 1, 73, 127
2, 358378, Note_off_c, 10, 57, 127
2, 358380, Note_on_c, 8, 56, 127
2, 358380, Note_on_c, 2, 74, 127
2, 358441, Note_off_c, 2, 74, 127
2, 358443, Note_on_c, 4, 76, 127
2, 358504, Note_off_c, 4, 76, 127
2, 358506, Note_on_c, 2, 74, 127
2, 358567, Note_off_c, 2, 74, 127
2, 358567, Note_off_c, 8, 56, 127
2, 358569, Note_on_c, 6, 54, 127
2, 358569, Note_on_c, 4, 76, 127
2, 358630, Note_off_c, 4, 76, 127
2, 358632, Note_on_c, 2, 74, 127
2, 358693, Note_off_c, 2, 74, 127
2, 358695, Note_on_c, 1, 73, 127
2, 358756, Note_off_c, 1, 73, 127
2, 358756, Note_off_c, 6, 54, 127
2, 358758, Note_on_c, 4, 52, 127
2, 358758, Note_on_c, 2, 74, 127
2, 358819, Note_off_c, 2, 74, 127
2, 358821, Note_on_c, 4, 76, 127
2, 358940, Note_off_c, 12, 71, 127
2, 358946, Note_off_c, 4, 76, 127
2, 358946, Note_off_c, 4, 52, 127
2, 358948, Note_on_c, 10, 57, 127
2, 358948, Note_on_c, 10, 69, 127
2, 358948, Note_on_c, 2, 74, 127
2, 359009, Note_off_c, 2, 74, 127
2, 359011, Note_on_c, 1, 73, 127
2, 359072, Note_off_c, 1, 73, 127
2, 359074, Note_on_c, 2, 74, 127
2, 359135, Note_off_c, 2, 74, 127
2, 359135, Note_off_c, 10, 57, 127
2, 359137, Note_on_c, 12, 59, 127
2, 359137, Note_on_c, 1, 73, 127
2, 359325, Note_off_c, 12, 59, 127
2, 359327, Note_on_c, 10, 57, 127
2, 359502, Note_off_c, 10, 69, 127
2, 359516, Note_off_c, 10, 57, 127
2, 359516, Note_off_c, 1, 73, 127
2, 359518, Note_on_c, 8, 56, 127
2, 359518, Note_on_c, 12, 71, 127
2, 359706, Note_off_c, 12, 71, 127
2, 359706, Note_off_c, 8, 56, 127
2, 359708, Note_on_c, 6, 54, 127
2, 359708, Note_on_c, 10, 69, 127
2, 359896, Note_off_c, 10, 69, 127
2, 359896, Note_off_c, 6, 54, 127
2, 359898, Note_on_c, 8, 56, 127
2, 359898, Note_on_c, 1, 73, 127
2, 360086, Note_off_c, 1, 73, 127
2, 360086, Note_off_c, 8, 56, 127
2, 360088, Note_on_c, 10, 57, 127
2, 360088, Note_on_c, 6, 78, 127
2, 360276, Note_off_c, 10, 57, 127
2, 360278, Note_on_c, 6, 54, 127
2, 360466, Note_off_c, 6, 54, 127
2, 360466, Note_off_c, 6, 78, 127
2, 360468, Note_on_c, 8, 56, 127
2, 360468, Note_on_c, 6, 78, 127
2, 360529, Note_off_c, 6, 78, 127
2, 360531, Note_on_c, 4, 76, 127
2, 360592, Note_off_c, 4, 76, 127
2, 360594, Note_on_c, 3, 75, 127
2, 360655, Note_off_c, 3, 75, 127
2, 360655, Note_off_c, 8, 56, 127
2, 360657, Note_on_c, 12, 59, 127
2, 360657, Note_on_c, 4, 76, 127
2, 360718, Note_off_c, 4, 76, 127
2, 360720, Note_on_c, 6, 78, 127
2, 360781, Note_off_c, 6, 78, 127
2, 360783, Note_on_c, 4, 76, 127
2, 360844, Note_off_c, 4, 76, 127
2, 360844, Note_off_c, 12, 59, 127
2, 360846, Note_on_c, 11, 58, 127
2, 360846, Note_on_c, 6, 78, 127
2, 360907, Note_off_c, 6, 78, 127
2, 360909, Note_on_c, 4, 76, 127
2, 360970, Note_off_c, 4, 76, 127
2, 360972, Note_on_c, 3, 75, 127
2, 361033, Note_off_c, 3, 75, 127
2, 361033, Note_off_c, 11, 58, 127
2, 361035, Note_on_c, 1, 61, 127
2, 361035, Note_on_c, 4, 76, 127
2, 361096, Note_off_c, 4, 76, 127
2, 361098, Note_on_c, 6, 78, 127
2, 361223, Note_off_c, 6, 78, 127
2, 361223, Note_off_c, 1, 61, 127
2, 361225, Note_on_c, 12, 59, 127
2, 361225, Note_on_c, 4, 76, 127
2, 361286, Note_off_c, 4, 76, 127
2, 361288, Note_on_c, 3, 75, 127
2, 361349, Note_off_c, 3, 75, 127
2, 361351, Note_on_c, 4, 76, 127
2, 361412, Note_off_c, 4, 76, 127
2, 361412, Note_off_c, 12, 59, 127
2, 361414, Note_on_c, 1, 61, 127
2, 361414, Note_on_c, 3, 75, 127
2, 361602, Note_off_c, 1, 61, 127
2, 361604, Note_on_c, 12, 59, 127
2, 361792, Note_off_c, 12, 59, 127
2, 361792, Note_off_c, 3, 75, 127
2, 361794, Note_on_c, 10, 57, 127
2, 361794, Note_on_c, 1, 73, 127
2, 361982, Note_off_c, 1, 73, 127
2, 361982, Note_off_c, 10, 57, 127
2, 361984, Note_on_c, 8, 56, 127
2, 361984, Note_on_c, 12, 71, 127
2, 362172, Note_off_c, 12, 71, 127
2, 362172, Note_off_c, 8, 56, 127
2, 362174, Note_on_c, 10, 57, 127
2, 362174, Note_on_c, 6, 78, 127
2, 362362, Note_off_c, 6, 78, 127
2, 362362, Note_off_c, 10, 57, 127
2, 362364, Note_on_c, 12, 59, 127
2, 362364, Note_on_c, 12, 83, 127
2, 362552, Note_off_c, 12, 59, 127
2, 362554, Note_on_c, 8, 56, 127
2, 362742, Note_off_c, 8, 56, 127
2, 362742, Note_off_c, 12, 83, 127
2, 362744, Note_on_c, 1, 61, 127
2, 362744, Note_on_c, 12, 83, 127
2, 362805, Note_off_c, 12, 83, 127
2, 362807, Note_on_c, 10, 81, 127
2, 362868, Note_off_c, 10, 81, 127
2, 362870, Note_on_c, 8, 80, 127
2, 362931, Note_off_c, 8, 80, 127
2, 362931, Note_off_c, 1, 61, 127
2, 362933, Note_on_c, 4, 64, 127
2, 362933, Note_on_c, 10, 81, 127
2, 362994, Note_off_c, 10, 81, 127
2, 362996, Note_on_c, 12, 83, 127
2, 363057, Note_off_c, 12, 83, 127
2, 363059, Note_on_c, 10, 81, 127
2, 363120, Note_off_c, 10, 81, 127
2, 363120, Note_off_c, 4, 64, 127
2, 363122, Note_on_c, 3, 63, 127
2, 363122, Note_on_c, 12, 83, 127
2, 363183, Note_off_c, 12, 83, 127
2, 363185, Note_on_c, 10, 81, 127
2, 363246, Note_off_c, 10, 81, 127
2, 363248, Note_on_c, 8, 80, 127
2, 363309, Note_off_c, 8, 80, 127
2, 363309, Note_off_c, 3, 63, 127
2, 363311, Note_on_c, 6, 66, 127
2, 363311, Note_on_c, 10, 81, 127
2, 363372, Note_off_c, 10, 81, 127
2, 363374, Note_on_c, 12, 83, 127
2, 363499, Note_off_c, 12, 83, 127
2, 363499, Note_off_c, 6, 66, 127
2, 363501, Note_on_c, 4, 64, 127
2, 363501, Note_on_c, 10, 81, 127
2, 363562, Note_off_c, 10, 81, 127
2, 363564, Note_on_c, 8, 80, 127
2, 363625, Note_off_c, 8, 80, 127
2, 363627, Note_on_c, 10, 81, 127
2, 363688, Note_off_c, 10, 81, 127
2, 363688, Note_off_c, 4, 64, 127
2, 363690, Note_on_c, 3, 63, 127
2, 363690, Note_on_c, 8, 80, 127
2, 363878, Note_off_c, 3, 63, 127
2, 363880, Note_on_c, 4, 64, 127
2, 364068, Note_off_c, 4, 64, 127
2, 364068, Note_off_c, 8, 80, 127
2, 364070, Note_on_c, 6, 66, 127
2, 364070, Note_on_c, 10, 81, 127
2, 364258, Note_off_c, 10, 81, 127
2, 364258, Note_off_c, 6, 66, 127
2, 364260, Note_on_c, 8, 68, 127
2, 364260, Note_on_c, 12, 83, 127
2, 364448, Note_off_c, 12, 83, 127
2, 364448, Note_off_c, 8, 68, 127
2, 364450, Note_on_c, 4, 64, 127
2, 364450, Note_on_c, 8, 80, 127
2, 364638, Note_off_c, 8, 80, 127
2, 364638, Note_off_c, 4, 64, 127
2, 364640, Note_on_c, 6, 66, 127
2, 364640, Note_on_c, 10, 81, 127
2, 364828, Note_off_c, 10, 81, 127
2, 364828, Note_off_c, 6, 66, 127
2, 364830, Note_on_c, 8, 68, 127
2, 364830, Note_on_c, 12, 83, 127
2, 365018, Note_off_c, 12, 83, 127
2, 365018, Note_off_c, 8, 68, 127
2, 365020, Note_on_c, 10, 69, 127
2, 365020, Note_on_c, 2, 74, 127
2, 365081, Note_off_c, 2, 74, 127
2, 365083, Note_on_c, 1, 73, 127
2, 365144, Note_off_c, 1, 73, 127
2, 365146, Note_on_c, 2, 74, 127
2, 365207, Note_off_c, 2, 74, 127
2, 365207, Note_off_c, 10, 69, 127
2, 365209, Note_on_c, 8, 68, 127
2, 365209, Note_on_c, 1, 73, 127
2, 365397, Note_off_c, 8, 68, 127
2, 365399, Note_on_c, 10, 69, 127
2, 365587, Note_off_c, 10, 69, 127
2, 365587, Note_off_c, 1, 73, 127
2, 365589, Note_on_c, 6, 66, 127
2, 365589, Note_on_c, 10, 81, 127
2, 365777, Note_off_c, 10, 81, 127
2, 365777, Note_off_c, 6, 66, 127
2, 365779, Note_on_c, 12, 71, 127
2, 365779, Note_on_c, 4, 76, 127
2, 365840, Note_off_c, 4, 76, 127
2, 365842, Note_on_c, 3, 75, 127
2, 365903, Note_off_c, 3, 75, 127
2, 365905, Note_on_c, 4, 76, 127
2, 365966, Note_off_c, 4, 76, 127
2, 365968, Note_on_c, 12, 47, 127
2, 365968, Note_on_c, 3, 75, 127
2, 366156, Note_off_c, 12, 47, 127
2, 366158, Note_on_c, 1, 49, 127
2, 366333, Note_off_c, 12, 71, 127
2, 366347, Note_off_c, 1, 49, 127
2, 366347, Note_off_c, 3, 75, 127
2, 366349, Note_on_c, 3, 51, 127
2, 366349, Note_on_c, 1, 73, 127
2, 366537, Note_off_c, 1, 73, 127
2, 366537, Note_off_c, 3, 51, 127
2, 366539, Note_on_c, 4, 52, 127
2, 366539, Note_on_c, 12, 71, 127
2, 366727, Note_off_c, 12, 71, 127
2, 366727, Note_off_c, 4, 52, 127
2, 366729, Note_on_c, 6, 54, 127
2, 366729, Note_on_c, 10, 69, 127
2, 366917, Note_off_c, 10, 69, 127
2, 366917, Note_off_c, 6, 54, 127
2, 366919, Note_on_c, 8, 56, 127
2, 366919, Note_on_c, 8, 68, 127
2, 367107, Note_off_c, 8, 68, 127
2, 367107, Note_off_c, 8, 56, 127
2, 367109, Note_on_c, 10, 57, 127
2, 367109, Note_on_c, 4, 76, 127
2, 367297, Note_off_c, 4, 76, 127
2, 367297, Note_off_c, 10, 57, 127
2, 367299, Note_on_c, 12, 59, 127
2, 367299, Note_on_c, 3, 63, 127
2, 367299, Note_on_c, 8, 68, 127
2, 367424, Note_off_c, 8, 68, 127
2, 367426, Note_on_c, 6, 66, 127
2, 367487, Note_off_c, 6, 66, 127
2, 367487, Note_off_c, 12, 59, 127
2, 367489, Note_on_c, 10, 57, 127
2, 367489, Note_on_c, 8, 68, 127
2, 367550, Note_off_c, 8, 68, 127
2, 367552, Note_on_c, 6, 66, 127
2, 367613, Note_off_c, 6, 66, 127
2, 367615, Note_on_c, 8, 68, 127
2, 367676, Note_off_c, 8, 68, 127
2, 367676, Note_off_c, 10, 57, 127
2, 367678, Note_on_c, 12, 59, 127
2, 367678, Note_on_c, 6, 66, 127
2, 367853, Note_off_c, 3, 63, 127
2, 367867, Note_off_c, 6, 66, 127
2, 367867, Note_off_c, 12, 59, 127
2, 367869, Note_on_c, 12, 47, 127
2, 367869, Note_on_c, 4, 64, 127
2, 368057, Note_off_c, 4, 64, 127
2, 368057, Note_off_c, 12, 47, 127
2, 368059, Note_on_c, 4, 52, 127
2, 368059, Note_on_c, 4, 64, 127
2, 368249, Note_on_c, 12, 59, 127
2, 368439, Note_on_c, 8, 56, 127
2, 368627, Note_off_c, 4, 52, 127
2, 368629, Note_on_c, 12, 47, 127
2, 368817, Note_off_c, 12, 47, 127
2, 368819, Note_on_c, 4, 40, 127
2, 369009, Note_on_c, 12, 47, 127
2, 369199, Note_on_c, 4, 52, 127
2, 369768, Note_off_c, 12, 59, 127
2, 369958, Note_off_c, 4, 40, 127
2, 369960, Note_off_c, 12, 47, 127
2, 369960, Note_off_c, 4, 64, 127
2, 369987, Note_on_c, 12, 71, 127
2, 370148, Note_off_c, 8, 56, 127
2, 370150, Note_off_c, 4, 52, 127
2, 370307, Note_off_c, 12, 71, 127
2, 370340, Note_on_c, 4, 40, 127
2, 370340, Note_on_c, 12, 71, 127
2, 370530, Note_on_c, 8, 68, 127
2, 370720, Note_on_c, 4, 64, 127
2, 370908, Note_off_c, 4, 40, 127
2, 370910, Note_on_c, 12, 47, 127
2, 371098, Note_off_c, 12, 47, 127
2, 371100, Note_on_c, 1, 49, 127
2, 371288, Note_off_c, 1, 49, 127
2, 371290, Note_on_c, 4, 52, 127
2, 371478, Note_off_c, 4, 52, 127
2, 371478, Note_off_c, 4, 64, 127
2, 371478, Note_off_c, 12, 71, 127
2, 371480, Note_off_c, 8, 68, 127
2, 371480, Note_on_c, 2, 50, 127
2, 371480, Note_on_c, 8, 68, 127
2, 371480, Note_on_c, 4, 64, 127
2, 371668, Note_off_c, 2, 50, 127
2, 371670, Note_on_c, 6, 54, 127
2, 371858, Note_off_c, 6, 54, 127
2, 371858, Note_off_c, 4, 64, 127
2, 371858, Note_off_c, 8, 68, 127
2, 371860, Note_on_c, 4, 52, 127
2, 371860, Note_on_c, 6, 66, 127
2, 371860, Note_on_c, 8, 68, 127
2, 371985, Note_off_c, 8, 68, 127
2, 371987, Note_on_c, 10, 69, 127
2, 372048, Note_off_c, 10, 69, 127
2, 372048, Note_off_c, 4, 52, 127
2, 372050, Note_on_c, 2, 50, 127
2, 372050, Note_on_c, 8, 68, 127
2, 372111, Note_off_c, 8, 68, 127
2, 372113, Note_on_c, 10, 69, 127
2, 372238, Note_off_c, 2, 50, 127
2, 372240, Note_on_c, 1, 49, 127
2, 372415, Note_off_c, 6, 66, 127
2, 372429, Note_off_c, 1, 49, 127
2, 372429, Note_off_c, 10, 69, 127
2, 372431, Note_on_c, 12, 47, 127
2, 372431, Note_on_c, 8, 68, 127
2, 372431, Note_on_c, 12, 71, 127
2, 372619, Note_off_c, 12, 71, 127
2, 372619, Note_off_c, 8, 68, 127
2, 372619, Note_off_c, 12, 47, 127
2, 372621, Note_on_c, 10, 45, 127
2, 372621, Note_on_c, 10, 69, 127
2, 372621, Note_on_c, 1, 73, 127
2, 372809, Note_off_c, 10, 45, 127
2, 372811, Note_on_c, 10, 57, 127
2, 372999, Note_off_c, 10, 57, 127
2, 373001, Note_on_c, 12, 59, 127
2, 373189, Note_off_c, 12, 59, 127
2, 373189, Note_off_c, 1, 73, 127
2, 373189, Note_off_c, 10, 69, 127
2, 373191, Note_on_c, 1, 61, 127
2, 373191, Note_on_c, 10, 69, 127
2, 373379, Note_off_c, 1, 61, 127
2, 373381, Note_on_c, 2, 62, 127
2, 373381, Note_on_c, 6, 78, 127
2, 373569, Note_off_c, 2, 62, 127
2, 373571, Note_on_c, 1, 61, 127
2, 373746, Note_off_c, 10, 69, 127
2, 373760, Note_off_c, 1, 61, 127
2, 373762, Note_on_c, 12, 59, 127
2, 373762, Note_on_c, 2, 74, 127
2, 373937, Note_off_c, 6, 78, 127
2, 373951, Note_off_c, 12, 59, 127
2, 373953, Note_on_c, 10, 57, 127
2, 373953, Note_on_c, 7, 79, 127
2, 374141, Note_off_c, 7, 79, 127
2, 374141, Note_off_c, 10, 57, 127
2, 374143, Note_on_c, 8, 56, 127
2, 374143, Note_on_c, 6, 78, 127
2, 374268, Note_off_c, 6, 78, 127
2, 374270, Note_on_c, 4, 76, 127
2, 374318, Note_off_c, 2, 74, 127
2, 374332, Note_off_c, 4, 76, 127
2, 374332, Note_off_c, 8, 56, 127
2, 374334, Note_on_c, 12, 59, 127
2, 374334, Note_on_c, 6, 78, 127
2, 374395, Note_off_c, 6, 78, 127
2, 374397, Note_on_c, 4, 76, 127
2, 374458, Note_off_c, 4, 76, 127
2, 374460, Note_on_c, 6, 78, 127
2, 374521, Note_off_c, 6, 78, 127
2, 374521, Note_off_c, 12, 59, 127
2, 374523, Note_on_c, 11, 58, 127
2, 374523, Note_on_c, 1, 73, 127
2, 374523, Note_on_c, 4, 76, 127
2, 374711, Note_off_c, 4, 76, 127
2, 374711, Note_off_c, 1, 73, 127
2, 374711, Note_off_c, 11, 58, 127
2, 374713, Note_on_c, 1, 61, 127
2, 374713, Note_on_c, 2, 74, 127
2, 374806, Note_off_c, 2, 74, 127
2, 374808, Note_on_c, 1, 73, 127
2, 374901, Note_off_c, 1, 73, 127
2, 374901, Note_off_c, 1, 61, 127
2, 374903, Note_on_c, 12, 59, 127
2, 374903, Note_on_c, 2, 74, 127
2, 375091, Note_off_c, 12, 59, 127
2, 375093, Note_on_c, 11, 58, 127
2, 375093, Note_on_c, 12, 71, 127
2, 375281, Note_off_c, 11, 58, 127
2, 375283, Note_on_c, 12, 59, 127
2, 375283, Note_on_c, 6, 66, 127
2, 375471, Note_off_c, 12, 59, 127
2, 375473, Note_on_c, 2, 62, 127
2, 375661, Note_off_c, 2, 62, 127
2, 375663, Note_on_c, 1, 61, 127
2, 375851, Note_off_c, 1, 61, 127
2, 375853, Note_on_c, 4, 64, 127
2, 376041, Note_off_c, 4, 64, 127
2, 376041, Note_off_c, 6, 66, 127
2, 376041, Note_off_c, 2, 74, 127
2, 376043, Note_off_c, 12, 71, 127
2, 376043, Note_on_c, 2, 62, 127
2, 376043, Note_on_c, 12, 71, 127
2, 376126, Note_on_c, 6, 78, 127
2, 376209, Note_on_c, 12, 83, 127
2, 376231, Note_off_c, 2, 62, 127
2, 376233, Note_on_c, 6, 66, 127
2, 376404, Note_off_c, 6, 78, 127
2, 376420, Note_off_c, 12, 71, 127
2, 376422, Note_off_c, 6, 66, 127
2, 376422, Note_off_c, 12, 83, 127
2, 376424, Note_on_c, 4, 64, 127
2, 376424, Note_on_c, 6, 78, 127
2, 376424, Note_on_c, 12, 83, 127
2, 376485, Note_off_c, 12, 83, 127
2, 376487, Note_on_c, 10, 81, 127
2, 376548, Note_off_c, 10, 81, 127
2, 376550, Note_on_c, 8, 80, 127
2, 376611, Note_off_c, 8, 80, 127
2, 376611, Note_off_c, 4, 64, 127
2, 376613, Note_on_c, 3, 63, 127
2, 376613, Note_on_c, 10, 81, 127
2, 376674, Note_off_c, 10, 81, 127
2, 376676, Note_on_c, 12, 83, 127
2, 376737, Note_off_c, 12, 83, 127
2, 376739, Note_on_c, 10, 81, 127
2, 376800, Note_off_c, 10, 81, 127
2, 376800, Note_off_c, 3, 63, 127
2, 376802, Note_on_c, 1, 61, 127
2, 376802, Note_on_c, 12, 83, 127
2, 376863, Note_off_c, 12, 83, 127
2, 376865, Note_on_c, 10, 81, 127
2, 376926, Note_off_c, 10, 81, 127
2, 376928, Note_on_c, 8, 80, 127
2, 376989, Note_off_c, 8, 80, 127
2, 376989, Note_off_c, 1, 61, 127
2, 376991, Note_on_c, 12, 59, 127
2, 376991, Note_on_c, 10, 81, 127
2, 377052, Note_off_c, 10, 81, 127
2, 377054, Note_on_c, 12, 83, 127
2, 377173, Note_off_c, 6, 78, 127
2, 377179, Note_off_c, 12, 83, 127
2, 377179, Note_off_c, 12, 59, 127
2, 377181, Note_on_c, 4, 64, 127
2, 377181, Note_on_c, 10, 81, 127
2, 377181, Note_on_c, 4, 76, 127
2, 377306, Note_off_c, 10, 81, 127
2, 377308, Note_on_c, 7, 79, 127
2, 377369, Note_off_c, 7, 79, 127
2, 377369, Note_off_c, 4, 64, 127
2, 377371, Note_on_c, 6, 66, 127
2, 377371, Note_on_c, 10, 81, 127
2, 377432, Note_off_c, 10, 81, 127
2, 377434, Note_on_c, 7, 79, 127
2, 377495, Note_off_c, 7, 79, 127
2, 377497, Note_on_c, 10, 81, 127
2, 377558, Note_off_c, 10, 81, 127
2, 377558, Note_off_c, 6, 66, 127
2, 377560, Note_on_c, 4, 64, 127
2, 377560, Note_on_c, 7, 79, 127
2, 377735, Note_off_c, 4, 76, 127
2, 377749, Note_off_c, 7, 79, 127
2, 377749, Note_off_c, 4, 64, 127
2, 377751, Note_on_c, 2, 62, 127
2, 377751, Note_on_c, 6, 78, 127
2, 377939, Note_off_c, 6, 78, 127
2, 377939, Note_off_c, 2, 62, 127
2, 377941, Note_on_c, 1, 61, 127
2, 377941, Note_on_c, 4, 76, 127
2, 378129, Note_off_c, 4, 76, 127
2, 378129, Note_off_c, 1, 61, 127
2, 378131, Note_on_c, 12, 59, 127
2, 378131, Note_on_c, 7, 79, 127
2, 378319, Note_off_c, 7, 79, 127
2, 378319, Note_off_c, 12, 59, 127
2, 378321, Note_on_c, 10, 57, 127
2, 378321, Note_on_c, 12, 71, 127
2, 378321, Note_on_c, 2, 62, 127
2, 378509, Note_off_c, 10, 57, 127
2, 378511, Note_on_c, 7, 55, 127
2, 378699, Note_off_c, 7, 55, 127
2, 378699, Note_off_c, 2, 62, 127
2, 378699, Note_off_c, 12, 71, 127
2, 378701, Note_on_c, 6, 54, 127
2, 378701, Note_on_c, 4, 64, 127
2, 378749, Note_on_c, 7, 67, 127
2, 378797, Note_on_c, 10, 69, 127
2, 378845, Note_on_c, 1, 73, 127
2, 378891, Note_off_c, 6, 54, 127
2, 378893, Note_on_c, 4, 52, 127
2, 379081, Note_off_c, 4, 52, 127
2, 379083, Note_on_c, 6, 54, 127
2, 379234, Note_off_c, 10, 69, 127
2, 379256, Note_off_c, 7, 67, 127
2, 379258, Note_off_c, 4, 64, 127
2, 379272, Note_off_c, 6, 54, 127
2, 379272, Note_off_c, 1, 73, 127
2, 379274, Note_on_c, 2, 50, 127
2, 379274, Note_on_c, 6, 66, 127
2, 379274, Note_on_c, 2, 74, 127
2, 379462, Note_off_c, 2, 74, 127
2, 379462, Note_off_c, 6, 66, 127
2, 379462, Note_off_c, 2, 50, 127
2, 379464, Note_on_c, 10, 57, 127
2, 379464, Note_on_c, 4, 64, 127
2, 379464, Note_on_c, 2, 74, 127
2, 379525, Note_off_c, 2, 74, 127
2, 379527, Note_on_c, 1, 73, 127
2, 379588, Note_off_c, 1, 73, 127
2, 379590, Note_on_c, 2, 74, 127
2, 379651, Note_off_c, 2, 74, 127
2, 379651, Note_off_c, 10, 57, 127
2, 379653, Note_on_c, 12, 59, 127
2, 379653, Note_on_c, 1, 73, 127
2, 379714, Note_off_c, 1, 73, 127
2, 379716, Note_on_c, 2, 74, 127
2, 379777, Note_off_c, 2, 74, 127
2, 379779, Note_on_c, 1, 73, 127
2, 379840, Note_off_c, 12, 59, 127
2, 379842, Note_on_c, 10, 57, 127
2, 380030, Note_off_c, 10, 57, 127
2, 380030, Note_off_c, 1, 73, 127
2, 380032, Note_on_c, 7, 55, 127
2, 380032, Note_on_c, 12, 71, 127
2, 380214, Note_off_c, 4, 64, 127
2, 380220, Note_off_c, 12, 71, 127
2, 380220, Note_off_c, 7, 55, 127
2, 380222, Note_on_c, 6, 54, 127
2, 380222, Note_on_c, 10, 69, 127
2, 380410, Note_off_c, 6, 54, 127
2, 380412, Note_on_c, 4, 52, 127
2, 380412, Note_on_c, 4, 76, 127
2, 380600, Note_off_c, 4, 52, 127
2, 380602, Note_on_c, 2, 50, 127
2, 380602, Note_on_c, 10, 81, 127
2, 380790, Note_off_c, 2, 50, 127
2, 380792, Note_on_c, 1, 49, 127
2, 380967, Note_off_c, 4, 76, 127
2, 380975, Note_off_c, 10, 69, 127
2, 380981, Note_off_c, 1, 49, 127
2, 380981, Note_off_c, 10, 81, 127
2, 380983, Note_on_c, 12, 47, 127
2, 380983, Note_on_c, 2, 74, 127
2, 380983, Note_on_c, 10, 81, 127
2, 381044, Note_off_c, 10, 81, 127
2, 381046, Note_on_c, 7, 79, 127
2, 381107, Note_off_c, 7, 79, 127
2, 381109, Note_on_c, 6, 78, 127
2, 381170, Note_off_c, 6, 78, 127
2, 381170, Note_off_c, 12, 47, 127
2, 381172, Note_on_c, 2, 50, 127
2, 381172, Note_on_c, 7, 79, 127
2, 381233, Note_off_c, 7, 79, 127
2, 381235, Note_on_c, 10, 81, 127
2, 381296, Note_off_c, 10, 81, 127
2, 381298, Note_on_c, 7, 79, 127
2, 381358, Note_off_c, 2, 74, 127
2, 381360, Note_off_c, 7, 79, 127
2, 381360, Note_off_c, 2, 50, 127
2, 381362, Note_on_c, 1, 49, 127
2, 381362, Note_on_c, 4, 76, 127
2, 381362, Note_on_c, 10, 81, 127
2, 381423, Note_off_c, 10, 81, 127
2, 381425, Note_on_c, 7, 79, 127
2, 381486, Note_off_c, 7, 79, 127
2, 381488, Note_on_c, 6, 78, 127
2, 381549, Note_off_c, 6, 78, 127
2, 381549, Note_off_c, 1, 49, 127
2, 381551, Note_on_c, 4, 52, 127
2, 381551, Note_on_c, 7, 79, 127
2, 381612, Note_off_c, 7, 79, 127
2, 381614, Note_on_c, 10, 81, 127
2, 381737, Note_off_c, 4, 76, 127
2, 381739, Note_off_c, 10, 81, 127
2, 381739, Note_off_c, 4, 52, 127
2, 381741, Note_on_c, 2, 50, 127
2, 381741, Note_on_c, 10, 69, 127
2, 381741, Note_on_c, 7, 79, 127
2, 381866, Note_off_c, 7, 79, 127
2, 381868, Note_on_c, 6, 78, 127
2, 381929, Note_off_c, 6, 78, 127
2, 381929, Note_off_c, 2, 50, 127
2, 381931, Note_on_c, 6, 54, 127
2, 381931, Note_on_c, 7, 79, 127
2, 381992, Note_off_c, 7, 79, 127
2, 381994, Note_on_c, 6, 78, 127
2, 382119, Note_off_c, 6, 54, 127
2, 382121, Note_on_c, 4, 52, 127
2, 382309, Note_off_c, 4, 52, 127
2, 382309, Note_off_c, 6, 78, 127
2, 382311, Note_on_c, 7, 55, 127
2, 382311, Note_on_c, 4, 76, 127
2, 382499, Note_off_c, 4, 76, 127
2, 382499, Note_off_c, 7, 55, 127
2, 382501, Note_on_c, 6, 54, 127
2, 382501, Note_on_c, 2, 74, 127
2, 382689, Note_off_c, 2, 74, 127
2, 382689, Note_off_c, 6, 54, 127
2, 382691, Note_on_c, 10, 57, 127
2, 382691, Note_on_c, 1, 73, 127
2, 382879, Note_off_c, 1, 73, 127
2, 382879, Note_off_c, 10, 57, 127
2, 382879, Note_off_c, 10, 69, 127
2, 382881, Note_on_c, 7, 55, 127
2, 382881, Note_on_c, 12, 71, 127
2, 383069, Note_off_c, 12, 71, 127
2, 383069, Note_off_c, 7, 55, 127
2, 383071, Note_on_c, 12, 59, 127
2, 383071, Note_on_c, 4, 76, 127
2, 383259, Note_off_c, 4, 76, 127
2, 383259, Note_off_c, 12, 59, 127
2, 383261, Note_on_c, 10, 57, 127
2, 383261, Note_on_c, 2, 74, 127
2, 383261, Note_on_c, 7, 67, 127
2, 383386, Note_off_c, 2, 74, 127
2, 383388, Note_on_c, 1, 73, 127
2, 383449, Note_off_c, 1, 73, 127
2, 383449, Note_off_c, 10, 57, 127
2, 383451, Note_on_c, 7, 55, 127
2, 383451, Note_on_c, 2, 74, 127
2, 383512, Note_off_c, 2, 74, 127
2, 383514, Note_on_c, 1, 73, 127
2, 383575, Note_off_c, 1, 73, 127
2, 383577, Note_on_c, 2, 74, 127
2, 383638, Note_off_c, 2, 74, 127
2, 383638, Note_off_c, 7, 55, 127
2, 383640, Note_on_c, 10, 57, 127
2, 383640, Note_on_c, 1, 73, 127
2, 383828, Note_off_c, 1, 73, 127
2, 383828, Note_off_c, 10, 57, 127
2, 383830, Note_on_c, 10, 45, 127
2, 383830, Note_on_c, 2, 74, 127
2, 384012, Note_off_c, 7, 67, 127
2, 384018, Note_off_c, 2, 74, 127
2, 384018, Note_off_c, 10, 45, 127
2, 384020, Note_on_c, 2, 50, 127
2, 384020, Note_on_c, 2, 74, 127
2, 384020, Note_on_c, 6, 66, 127
2, 384020, Note_on_c, 10, 69, 127
2, 384208, Note_off_c, 2, 50, 127
2, 384210, Note_on_c, 10, 57, 127
2, 384398, Note_off_c, 10, 57, 127
2, 384400, Note_on_c, 12, 59, 127
2, 384588, Note_off_c, 12, 59, 127
2, 384590, Note_on_c, 2, 62, 127
2, 384778, Note_off_c, 2, 62, 127
2, 384780, Note_on_c, 1, 61, 127
2, 384968, Note_off_c, 1, 61, 127
2, 384970, Note_on_c, 4, 64, 127
2, 385158, Note_off_c, 6, 66, 127
2, 385176, Note_on_c, 6, 78, 127
2, 385176, Note_on_c, 2, 62, 127
2, 385178, Note_off_c, 4, 64, 127
2, 385186, Note_off_c, 10, 69, 127
2, 385189, Note_off_c, 2, 74, 127
2, 385237, Note_off_c, 6, 78, 127
2, 385239, Note_on_c, 4, 76, 127
2, 385300, Note_off_c, 4, 76, 127
2, 385302, Note_on_c, 6, 78, 127
2, 385363, Note_off_c, 2, 62, 127
2, 385365, Note_on_c, 6, 66, 127
2, 385553, Note_off_c, 6, 66, 127
2, 385553, Note_off_c, 6, 78, 127
2, 385555, Note_on_c, 6, 78, 127
2, 385555, Note_on_c, 4, 64, 127
2, 385743, Note_off_c, 4, 64, 127
2, 385743, Note_off_c, 6, 78, 127
2, 385745, Note_on_c, 7, 79, 127
2, 385745, Note_on_c, 2, 62, 127
2, 385806, Note_off_c, 7, 79, 127
2, 385808, Note_on_c, 6, 78, 127
2, 385869, Note_off_c, 6, 78, 127
2, 385871, Note_on_c, 7, 79, 127
2, 385932, Note_off_c, 2, 62, 127
2, 385934, Note_on_c, 1, 61, 127
2, 386122, Note_off_c, 1, 61, 127
2, 386122, Note_off_c, 7, 79, 127
2, 386124, Note_on_c, 6, 78, 127
2, 386124, Note_on_c, 12, 59, 127
2, 386312, Note_off_c, 12, 59, 127
2, 386312, Note_off_c, 6, 78, 127
2, 386314, Note_on_c, 6, 78, 127
2, 386314, Note_on_c, 11, 58, 127
2, 386439, Note_off_c, 6, 78, 127
2, 386441, Note_on_c, 4, 76, 127
2, 386502, Note_off_c, 4, 76, 127
2, 386502, Note_off_c, 11, 58, 127
2, 386504, Note_on_c, 6, 78, 127
2, 386504, Note_on_c, 12, 59, 127
2, 386565, Note_off_c, 6, 78, 127
2, 386567, Note_on_c, 4, 76, 127
2, 386628, Note_off_c, 4, 76, 127
2, 386630, Note_on_c, 6, 78, 127
2, 386691, Note_off_c, 6, 78, 127
2, 386691, Note_off_c, 12, 59, 127
2, 386693, Note_on_c, 4, 76, 127
2, 386693, Note_on_c, 1, 61, 127
2, 386881, Note_off_c, 1, 61, 127
2, 386881, Note_off_c, 4, 76, 127
2, 386883, Note_on_c, 2, 74, 127
2, 386883, Note_on_c, 2, 62, 127
2, 387071, Note_off_c, 2, 62, 127
2, 387071, Note_off_c, 2, 74, 127
2, 387073, Note_on_c, 2, 74, 127
2, 387073, Note_on_c, 4, 64, 127
2, 387198, Note_off_c, 2, 74, 127
2, 387200, Note_on_c, 1, 73, 127
2, 387261, Note_off_c, 1, 73, 127
2, 387261, Note_off_c, 4, 64, 127
2, 387263, Note_on_c, 2, 74, 127
2, 387263, Note_on_c, 2, 62, 127
2, 387324, Note_off_c, 2, 74, 127
2, 387326, Note_on_c, 1, 73, 127
2, 387451, Note_off_c, 1, 73, 127
2, 387451, Note_off_c, 2, 62, 127
2, 387453, Note_on_c, 12, 71, 127
2, 387453, Note_on_c, 4, 64, 127
2, 387641, Note_off_c, 4, 64, 127
2, 387641, Note_off_c, 12, 71, 127
2, 387643, Note_on_c, 11, 70, 127
2, 387643, Note_on_c, 6, 66, 127
2, 387831, Note_off_c, 6, 66, 127
2, 387831, Note_off_c, 11, 70, 127
2, 387833, Note_on_c, 11, 70, 127
2, 387833, Note_on_c, 7, 67, 127
2, 387958, Note_off_c, 11, 70, 127
2, 387960, Note_on_c, 12, 71, 127
2, 388021, Note_off_c, 12, 71, 127
2, 388021, Note_off_c, 7, 67, 127
2, 388023, Note_on_c, 11, 70, 127
2, 388023, Note_on_c, 6, 66, 127
2, 388084, Note_off_c, 11, 70, 127
2, 388086, Note_on_c, 12, 71, 127
2, 388211, Note_off_c, 6, 66, 127
2, 388213, Note_on_c, 7, 67, 127
2, 388401, Note_off_c, 7, 67, 127
2, 388401, Note_off_c, 12, 71, 127
2, 388403, Note_on_c, 1, 73, 127
2, 388403, Note_on_c, 4, 64, 127
2, 388591, Note_off_c, 4, 64, 127
2, 388591, Note_off_c, 1, 73, 127
2, 388593, Note_on_c, 12, 71, 127
2, 388593, Note_on_c, 6, 66, 127
2, 388654, Note_off_c, 12, 71, 127
2, 388656, Note_on_c, 11, 70, 127
2, 388717, Note_off_c, 11, 70, 127
2, 388719, Note_on_c, 12, 71, 127
2, 388780, Note_off_c, 12, 71, 127
2, 388780, Note_off_c, 6, 66, 127
2, 388782, Note_on_c, 11, 70, 127
2, 388782, Note_on_c, 7, 67, 127
2, 388970, Note_off_c, 7, 67, 127
2, 388972, Note_on_c, 6, 66, 127
2, 389160, Note_off_c, 6, 66, 127
2, 389160, Note_off_c, 11, 70, 127
2, 389162, Note_on_c, 8, 68, 127
2, 389162, Note_on_c, 4, 64, 127
2, 389350, Note_off_c, 4, 64, 127
2, 389350, Note_off_c, 8, 68, 127
2, 389352, Note_on_c, 6, 66, 127
2, 389352, Note_on_c, 2, 62, 127
2, 389540, Note_off_c, 2, 62, 127
2, 389542, Note_on_c, 1, 73, 127
2, 389542, Note_on_c, 1, 61, 127
2, 389730, Note_off_c, 1, 61, 127
2, 389732, Note_on_c, 6, 78, 127
2, 389732, Note_on_c, 12, 59, 127
2, 389920, Note_off_c, 12, 59, 127
2, 389922, Note_on_c, 10, 57, 127
2, 390097, Note_off_c, 1, 73, 127
2, 390105, Note_off_c, 6, 66, 127
2, 390111, Note_off_c, 10, 57, 127
2, 390111, Note_off_c, 6, 78, 127
2, 390113, Note_on_c, 6, 78, 127
2, 390113, Note_on_c, 12, 71, 127
2, 390113, Note_on_c, 8, 56, 127
2, 390238, Note_off_c, 6, 78, 127
2, 390240, Note_on_c, 4, 76, 127
2, 390301, Note_off_c, 4, 76, 127
2, 390301, Note_off_c, 8, 56, 127
2, 390303, Note_on_c, 6, 78, 127
2, 390303, Note_on_c, 12, 59, 127
2, 390364, Note_off_c, 6, 78, 127
2, 390366, Note_on_c, 4, 76, 127
2, 390427, Note_off_c, 4, 76, 127
2, 390429, Note_on_c, 6, 78, 127
2, 390489, Note_off_c, 12, 71, 127
2, 390491, Note_off_c, 6, 78, 127
2, 390491, Note_off_c, 12, 59, 127
2, 390493, Note_on_c, 4, 76, 127
2, 390493, Note_on_c, 1, 73, 127
2, 390493, Note_on_c, 11, 58, 127
2, 390681, Note_off_c, 11, 58, 127
2, 390681, Note_off_c, 4, 76, 127
2, 390683, Note_on_c, 6, 78, 127
2, 390683, Note_on_c, 1, 61, 127
2, 390869, Note_off_c, 1, 73, 127
2, 390871, Note_off_c, 1, 61, 127
2, 390871, Note_off_c, 6, 78, 127
2, 390873, Note_on_c, 6, 66, 127
2, 390873, Note_on_c, 4, 76, 127
2, 390873, Note_on_c, 12, 59, 127
2, 390934, Note_off_c, 4, 76, 127
2, 390936, Note_on_c, 2, 74, 127
2, 390997, Note_off_c, 2, 74, 127
2, 390999, Note_on_c, 4, 76, 127
2, 391060, Note_off_c, 4, 76, 127
2, 391060, Note_off_c, 12, 59, 127
2, 391062, Note_on_c, 2, 74, 127
2, 391062, Note_on_c, 1, 61, 127
2, 391250, Note_off_c, 1, 61, 127
2, 391252, Note_on_c, 12, 59, 127
2, 391440, Note_off_c, 12, 59, 127
2, 391440, Note_off_c, 2, 74, 127
2, 391442, Note_on_c, 1, 73, 127
2, 391442, Note_on_c, 10, 57, 127
2, 391624, Note_off_c, 6, 66, 127
2, 391630, Note_off_c, 10, 57, 127
2, 391630, Note_off_c, 1, 73, 127
2, 391632, Note_on_c, 12, 71, 127
2, 391632, Note_on_c, 7, 55, 127
2, 391820, Note_off_c, 7, 55, 127
2, 391820, Note_off_c, 12, 71, 127
2, 391822, Note_on_c, 11, 70, 127
2, 391822, Note_on_c, 6, 54, 127
2, 392010, Note_off_c, 6, 54, 127
2, 392010, Note_off_c, 11, 70, 127
2, 392012, Note_on_c, 12, 71, 127
2, 392012, Note_on_c, 7, 55, 127
2, 392200, Note_off_c, 7, 55, 127
2, 392200, Note_off_c, 12, 71, 127
2, 392202, Note_on_c, 1, 73, 127
2, 392202, Note_on_c, 4, 52, 127
2, 392390, Note_off_c, 4, 52, 127
2, 392390, Note_off_c, 1, 73, 127
2, 392392, Note_on_c, 2, 74, 127
2, 392392, Note_on_c, 11, 70, 127
2, 392392, Note_on_c, 6, 54, 127
2, 392517, Note_off_c, 11, 70, 127
2, 392517, Note_off_c, 2, 74, 127
2, 392519, Note_on_c, 1, 73, 127
2, 392580, Note_off_c, 1, 73, 127
2, 392580, Note_off_c, 6, 54, 127
2, 392582, Note_on_c, 2, 74, 127
2, 392582, Note_on_c, 4, 52, 127
2, 392643, Note_off_c, 2, 74, 127
2, 392645, Note_on_c, 1, 73, 127
2, 392706, Note_off_c, 1, 73, 127
2, 392708, Note_on_c, 2, 74, 127
2, 392769, Note_off_c, 2, 74, 127
2, 392769, Note_off_c, 4, 52, 127
2, 392771, Note_on_c, 1, 73, 127
2, 392771, Note_on_c, 6, 54, 127
2, 392832, Note_off_c, 1, 73, 127
2, 392834, Note_on_c, 2, 74, 127
2, 392895, Note_off_c, 2, 74, 127
2, 392897, Note_on_c, 1, 73, 127
2, 392958, Note_off_c, 1, 73, 127
2, 392958, Note_off_c, 6, 54, 127
2, 392960, Note_on_c, 12, 71, 127
2, 392960, Note_on_c, 6, 42, 127
2, 393148, Note_off_c, 6, 42, 127
2, 393148, Note_off_c, 12, 71, 127
2, 393150, Note_on_c, 2, 62, 127
2, 393150, Note_on_c, 12, 71, 127
2, 393150, Note_on_c, 6, 66, 127
2, 393150, Note_on_c, 12, 47, 127
2, 393338, Note_off_c, 12, 47, 127
2, 393340, Note_on_c, 1, 49, 127
2, 393528, Note_off_c, 1, 49, 127
2, 393530, Note_on_c, 2, 50, 127
2, 393718, Note_off_c, 2, 50, 127
2, 393720, Note_on_c, 1, 49, 127
2, 393908, Note_off_c, 1, 49, 127
2, 393910, Note_on_c, 12, 47, 127
2, 394098, Note_off_c, 12, 47, 127
2, 394100, Note_on_c, 10, 45, 127
2, 394288, Note_off_c, 10, 45, 127
2, 394288, Note_off_c, 6, 66, 127
2, 394288, Note_off_c, 12, 71, 127
2, 394288, Note_off_c, 2, 62, 127
2, 394290, Note_on_c, 12, 71, 127
2, 394290, Note_on_c, 8, 44, 127
2, 394478, Note_off_c, 8, 44, 127
2, 394480, Note_on_c, 12, 47, 127
2, 394668, Note_off_c, 12, 47, 127
2, 394668, Note_off_c, 12, 71, 127
2, 394670, Note_on_c, 1, 73, 127
2, 394670, Note_on_c, 12, 71, 127
2, 394670, Note_on_c, 10, 45, 127
2, 394731, Note_off_c, 1, 73, 127
2, 394733, Note_on_c, 2, 74, 127
2, 394794, Note_off_c, 2, 74, 127
2, 394796, Note_on_c, 4, 76, 127
2, 394857, Note_off_c, 10, 45, 127
2, 394859, Note_on_c, 8, 44, 127
2, 395047, Note_off_c, 8, 44, 127
2, 395049, Note_on_c, 6, 42, 127
2, 395237, Note_off_c, 6, 42, 127
2, 395237, Note_off_c, 4, 76, 127
2, 395239, Note_on_c, 2, 74, 127
2, 395239, Note_on_c, 4, 40, 127
2, 395421, Note_off_c, 12, 71, 127
2, 395427, Note_off_c, 4, 40, 127
2, 395427, Note_off_c, 2, 74, 127
2, 395429, Note_on_c, 2, 74, 127
2, 395429, Note_on_c, 10, 69, 127
2, 395429, Note_on_c, 10, 45, 127
2, 395554, Note_off_c, 2, 74, 127
2, 395556, Note_on_c, 1, 73, 127
2, 395617, Note_off_c, 1, 73, 127
2, 395617, Note_off_c, 10, 45, 127
2, 395619, Note_on_c, 2, 74, 127
2, 395619, Note_on_c, 12, 47, 127
2, 395680, Note_off_c, 2, 74, 127
2, 395682, Note_on_c, 1, 73, 127
2, 395743, Note_off_c, 1, 73, 127
2, 395745, Note_on_c, 2, 74, 127
2, 395806, Note_off_c, 2, 74, 127
2, 395806, Note_off_c, 12, 47, 127
2, 395808, Note_on_c, 1, 73, 127
2, 395808, Note_on_c, 10, 45, 127
2, 395983, Note_off_c, 10, 69, 127
2, 395997, Note_off_c, 10, 45, 127
2, 395997, Note_off_c, 1, 73, 127
2, 395999, Note_on_c, 12, 71, 127
2, 395999, Note_on_c, 8, 44, 127
2, 396187, Note_off_c, 8, 44, 127
2, 396187, Note_off_c, 12, 71, 127
2, 396189, Note_on_c, 10, 69, 127
2, 396189, Note_on_c, 6, 42, 127
2, 396377, Note_off_c, 6, 42, 127
2, 396377, Note_off_c, 10, 69, 127
2, 396379, Note_on_c, 1, 73, 127
2, 396379, Note_on_c, 4, 40, 127
2, 396567, Note_off_c, 4, 40, 127
2, 396567, Note_off_c, 1, 73, 127
2, 396569, Note_on_c, 6, 66, 127
2, 396569, Note_on_c, 10, 57, 127
2, 396569, Note_on_c, 2, 38, 127
2, 396757, Note_off_c, 2, 38, 127
2, 396759, Note_on_c, 4, 40, 127
2, 396947, Note_off_c, 4, 40, 127
2, 396947, Note_off_c, 10, 57, 127
2, 396947, Note_off_c, 6, 66, 127
2, 396949, Note_on_c, 12, 59, 127
2, 396949, Note_on_c, 2, 38, 127
2, 396995, Note_off_c, 12, 59, 127
2, 396997, Note_on_c, 2, 62, 127
2, 397045, Note_on_c, 4, 64, 127
2, 397093, Note_on_c, 8, 68, 127
2, 397139, Note_off_c, 2, 38, 127
2, 397141, Note_on_c, 1, 37, 127
2, 397329, Note_off_c, 1, 37, 127
2, 397331, Note_on_c, 12, 35, 127
2, 397519, Note_off_c, 12, 35, 127
2, 397519, Note_off_c, 8, 68, 127
2, 397521, Note_on_c, 10, 69, 127
2, 397521, Note_on_c, 1, 61, 127
2, 397521, Note_on_c, 10, 33, 127
2, 397551, Note_off_c, 4, 64, 127
2, 397553, Note_off_c, 2, 62, 127
2, 397710, Note_off_c, 10, 33, 127
2, 397710, Note_off_c, 1, 61, 127
2, 397710, Note_off_c, 10, 69, 127
2, 397712, Note_on_c, 10, 69, 127
2, 397712, Note_on_c, 12, 59, 127
2, 397712, Note_on_c, 4, 40, 127
2, 397773, Note_off_c, 10, 69, 127
2, 397775, Note_on_c, 8, 68, 127
2, 397836, Note_off_c, 8, 68, 127
2, 397838, Note_on_c, 10, 69, 127
2, 397899, Note_off_c, 10, 69, 127
2, 397899, Note_off_c, 4, 40, 127
2, 397901, Note_on_c, 8, 68, 127
2, 397901, Note_on_c, 2, 38, 127
2, 398089, Note_off_c, 2, 38, 127
2, 398091, Note_on_c, 4, 40, 127
2, 398279, Note_off_c, 4, 40, 127
2, 398279, Note_off_c, 8, 68, 127
2, 398281, Note_on_c, 6, 66, 127
2, 398281, Note_on_c, 6, 42, 127
2, 398463, Note_off_c, 12, 59, 127
2, 398469, Note_off_c, 6, 42, 127
2, 398469, Note_off_c, 6, 66, 127
2, 398471, Note_on_c, 4, 64, 127
2, 398471, Note_on_c, 8, 44, 127
2, 398659, Note_off_c, 8, 44, 127
2, 398661, Note_on_c, 6, 42, 127
2, 398849, Note_off_c, 6, 42, 127
2, 398849, Note_off_c, 4, 64, 127
2, 398851, Note_on_c, 12, 71, 127
2, 398851, Note_on_c, 8, 44, 127
2, 399039, Note_off_c, 8, 44, 127
2, 399039, Note_off_c, 12, 71, 127
2, 399041, Note_on_c, 1, 73, 127
2, 399041, Note_on_c, 4, 40, 127
2, 399134, Note_off_c, 1, 73, 127
2, 399136, Note_on_c, 2, 74, 127
2, 399229, Note_off_c, 2, 74, 127
2, 399229, Note_off_c, 4, 40, 127
2, 399231, Note_on_c, 2, 74, 127
2, 399231, Note_on_c, 10, 45, 127
2, 399356, Note_off_c, 2, 74, 127
2, 399358, Note_on_c, 1, 73, 127
2, 399419, Note_off_c, 1, 73, 127
2, 399419, Note_off_c, 10, 45, 127
2, 399421, Note_on_c, 2, 74, 127
2, 399421, Note_on_c, 8, 44, 127
2, 399482, Note_off_c, 2, 74, 127
2, 399484, Note_on_c, 1, 73, 127
2, 399545, Note_off_c, 1, 73, 127
2, 399547, Note_on_c, 2, 74, 127
2, 399608, Note_off_c, 2, 74, 127
2, 399608, Note_off_c, 8, 44, 127
2, 399610, Note_on_c, 1, 73, 127
2, 399610, Note_on_c, 10, 45, 127
2, 399798, Note_off_c, 10, 45, 127
2, 399798, Note_off_c, 1, 73, 127
2, 399800, Note_on_c, 12, 71, 127
2, 399800, Note_on_c, 12, 47, 127
2, 399988, Note_off_c, 12, 47, 127
2, 399988, Note_off_c, 12, 71, 127
2, 399990, Note_on_c, 12, 71, 127
2, 399990, Note_on_c, 1, 49, 127
2, 400178, Note_off_c, 1, 49, 127
2, 400180, Note_on_c, 4, 76, 127
2, 400180, Note_on_c, 12, 47, 127
2, 400366, Note_off_c, 12, 71, 127
2, 400368, Note_off_c, 12, 47, 127
2, 400370, Note_on_c, 10, 69, 127
2, 400370, Note_on_c, 1, 49, 127
2, 400556, Note_off_c, 4, 76, 127
2, 400558, Note_off_c, 1, 49, 127
2, 400560, Note_on_c, 6, 78, 127
2, 400560, Note_on_c, 10, 45, 127
2, 400746, Note_off_c, 10, 69, 127
2, 400748, Note_off_c, 10, 45, 127
2, 400748, Note_off_c, 6, 78, 127
2, 400750, Note_on_c, 7, 79, 127
2, 400750, Note_on_c, 12, 47, 127
2, 400938, Note_off_c, 12, 47, 127
2, 400938, Note_off_c, 7, 79, 127
2, 400940, Note_on_c, 4, 76, 127
2, 400940, Note_on_c, 2, 50, 127
2, 401128, Note_off_c, 2, 50, 127
2, 401128, Note_off_c, 4, 76, 127
2, 401130, Note_on_c, 10, 69, 127
2, 401130, Note_on_c, 1, 49, 127
2, 401193, Note_on_c, 4, 76, 127
2, 401256, Note_on_c, 10, 81, 127
2, 401317, Note_off_c, 1, 49, 127
2, 401319, Note_on_c, 4, 52, 127
2, 401499, Note_off_c, 4, 76, 127
2, 401505, Note_off_c, 10, 69, 127
2, 401507, Note_off_c, 4, 52, 127
2, 401507, Note_off_c, 10, 81, 127
2, 401509, Note_on_c, 10, 81, 127
2, 401509, Note_on_c, 4, 76, 127
2, 401509, Note_on_c, 2, 50, 127
2, 401570, Note_off_c, 10, 81, 127
2, 401572, Note_on_c, 7, 79, 127
2, 401633, Note_off_c, 7, 79, 127
2, 401635, Note_on_c, 6, 78, 127
2, 401696, Note_off_c, 6, 78, 127
2, 401696, Note_off_c, 2, 50, 127
2, 401698, Note_on_c, 7, 79, 127
2, 401698, Note_on_c, 1, 49, 127
2, 401759, Note_off_c, 7, 79, 127
2, 401761, Note_on_c, 10, 81, 127
2, 401822, Note_off_c, 10, 81, 127
2, 401824, Note_on_c, 7, 79, 127
2, 401885, Note_off_c, 7, 79, 127
2, 401885, Note_off_c, 1, 49, 127
2, 401887, Note_on_c, 10, 81, 127
2, 401887, Note_on_c, 12, 47, 127
2, 401948, Note_off_c, 10, 81, 127
2, 401950, Note_on_c, 7, 79, 127
2, 402011, Note_off_c, 7, 79, 127
2, 402013, Note_on_c, 6, 78, 127
2, 402074, Note_off_c, 6, 78, 127
2, 402074, Note_off_c, 12, 47, 127
2, 402076, Note_on_c, 7, 79, 127
2, 402076, Note_on_c, 10, 45, 127
2, 402137, Note_off_c, 7, 79, 127
2, 402139, Note_on_c, 10, 81, 127
2, 402260, Note_off_c, 4, 76, 127
2, 402266, Note_off_c, 10, 81, 127
2, 402266, Note_off_c, 10, 45, 127
2, 402268, Note_on_c, 10, 69, 127
2, 402268, Note_on_c, 7, 79, 127
2, 402268, Note_on_c, 2, 50, 127
2, 402395, Note_off_c, 7, 79, 127
2, 402397, Note_on_c, 6, 78, 127
2, 402460, Note_off_c, 6, 78, 127
2, 402460, Note_off_c, 2, 50, 127
2, 402462, Note_on_c, 7, 79, 127
2, 402462, Note_on_c, 6, 54, 127
2, 402525, Note_off_c, 7, 79, 127
2, 402527, Note_on_c, 6, 78, 127
2, 402590, Note_off_c, 6, 78, 127
2, 402592, Note_on_c, 7, 79, 127
2, 402655, Note_off_c, 7, 79, 127
2, 402655, Note_off_c, 6, 54, 127
2, 402657, Note_on_c, 6, 78, 127
2, 402657, Note_on_c, 4, 52, 127
2, 402834, Note_off_c, 10, 69, 127
2, 402848, Note_off_c, 4, 52, 127
2, 402848, Note_off_c, 6, 78, 127
2, 402850, Note_on_c, 8, 80, 127
2, 402850, Note_on_c, 12, 71, 127
2, 402850, Note_on_c, 2, 50, 127
2, 403047, Note_off_c, 2, 50, 127
2, 403047, Note_off_c, 12, 71, 127
2, 403047, Note_off_c, 8, 80, 127
2, 403049, Note_on_c, 1, 73, 127
2, 403049, Note_on_c, 10, 81, 127
2, 403049, Note_on_c, 1, 49, 127
2, 403246, Note_off_c, 1, 49, 127
2, 403246, Note_off_c, 10, 81, 127
2, 403246, Note_off_c, 1, 73, 127
2, 403248, Note_on_c, 2, 74, 127
2, 403248, Note_on_c, 12, 47, 127
2, 403445, Note_off_c, 12, 47, 127
2, 403445, Note_off_c, 2, 74, 127
2, 403447, Note_on_c, 1, 73, 127
2, 403447, Note_on_c, 10, 45, 127
2, 403644, Note_off_c, 10, 45, 127
2, 403644, Note_off_c, 1, 73, 127
2, 403646, Note_on_c, 12, 71, 127
2, 403646, Note_on_c, 2, 50, 127
2, 403853, Note_off_c, 2, 50, 127
2, 403853, Note_off_c, 12, 71, 127
2, 403855, Note_on_c, 1, 73, 127
2, 403855, Note_on_c, 8, 68, 127
2, 403855, Note_on_c, 4, 52, 127
2, 403992, Note_off_c, 1, 73, 127
2, 403994, Note_on_c, 12, 71, 127
2, 404062, Note_off_c, 12, 71, 127
2, 404062, Note_off_c, 4, 52, 127
2, 404064, Note_on_c, 1, 73, 127
2, 404064, Note_on_c, 2, 50, 127
2, 404132, Note_off_c, 1, 73, 127
2, 404134, Note_on_c, 12, 71, 127
2, 404202, Note_off_c, 12, 71, 127
2, 404204, Note_on_c, 1, 73, 127
2, 404272, Note_off_c, 1, 73, 127
2, 404272, Note_off_c, 2, 50, 127
2, 404274, Note_on_c, 12, 71, 127
2, 404274, Note_on_c, 4, 52, 127
2, 404342, Note_off_c, 12, 71, 127
2, 404344, Note_on_c, 1, 73, 127
2, 404412, Note_off_c, 1, 73, 127
2, 404414, Note_on_c, 12, 71, 127
2, 404466, Note_off_c, 8, 68, 127
2, 404481, Note_off_c, 12, 71, 127
2, 404481, Note_off_c, 4, 52, 127
2, 404483, Note_on_c, 10, 69, 127
2, 404483, Note_on_c, 4, 40, 127
2, 404711, Note_off_c, 4, 40, 127
2, 404711, Note_off_c, 10, 69, 127
2, 404713, Note_on_c, 10, 69, 127
2, 404713, Note_on_c, 10, 45, 127
2, 404943, Note_on_c, 4, 64, 127
2, 405173, Note_on_c, 1, 61, 127
2, 405401, Note_off_c, 10, 45, 127
2, 405403, Note_on_c, 4, 40, 127
2, 405631, Note_off_c, 4, 40, 127
2, 405633, Note_on_c, 10, 33, 127
2, 405863, Note_on_c, 4, 40, 127
2, 406111, Note_off_c, 4, 40, 127
2, 406117, Note_on_c, 10, 45, 127
2, 408462, Note_off_c, 10, 69, 127
2, 408467, Note_off_c, 4, 64, 127
2, 408469, Note_off_c, 10, 33, 127
2, 408471, Note_off_c, 1, 61, 127
2, 408475, Note_off_c, 10, 45, 127
2, 410168, Note_on_c, 10, 45, 127
2, 410168, Note_on_c, 4, 64, 127
2, 410192, Note_on_c, 10, 69, 127
2, 410225, Note_on_c, 4, 52, 127
2, 410283, Note_on_c, 10, 57, 127
2, 410291, Note_on_c, 12, 71, 127
2, 410370, Note_off_c, 12, 71, 127
2, 410373, Note_on_c, 1, 73, 127
2, 410559, Note_off_c, 10, 69, 127
2, 410559, Note_off_c, 4, 64, 127
2, 410765, Note_off_c, 1, 73, 127
2, 410767, Note_on_c, 2, 74, 127
2, 410860, Note_off_c, 2, 74, 127
2, 410862, Note_on_c, 4, 76, 127
2, 410959, Note_off_c, 4, 76, 127
2, 410961, Note_on_c, 2, 74, 127
2, 411419, Note_off_c, 2, 74, 127
2, 411421, Note_on_c, 1, 73, 127
2, 411816, Note_off_c, 1, 73, 127
2, 411818, Note_on_c, 1, 73, 127
2, 411882, Note_off_c, 1, 73, 127
2, 411884, Note_on_c, 12, 71, 127
2, 411948, Note_off_c, 12, 71, 127
2, 411950, Note_on_c, 1, 73, 127
2, 412014, Note_off_c, 1, 73, 127
2, 412016, Note_on_c, 12, 71, 127
2, 412213, Note_off_c, 12, 71, 127
2, 412215, Note_on_c, 10, 69, 127
2, 412604, Note_off_c, 4, 52, 127
2, 412608, Note_off_c, 10, 45, 127
2, 412610, Note_off_c, 10, 69, 127
2, 412610, Note_off_c, 10, 57, 127
2, 412612, Note_on_c, 1, 61, 127
2, 412612, Note_on_c, 10, 57, 127
2, 412612, Note_on_c, 4, 64, 127
2, 412612, Note_on_c, 4, 76, 127
2, 412612, Note_on_c, 10, 69, 127
2, 412612, Note_on_c, 7, 79, 127
2, 413007, Note_off_c, 7, 79, 127
2, 413007, Note_off_c, 4, 76, 127
2, 413009, Note_on_c, 2, 74, 127
2, 413009, Note_on_c, 6, 78, 127
2, 413398, Note_off_c, 10, 69, 127
2, 413404, Note_off_c, 6, 78, 127
2, 413404, Note_off_c, 2, 74, 127
2, 413404, Note_off_c, 4, 64, 127
2, 413404, Note_off_c, 1, 61, 127
2, 413406, Note_on_c, 2, 62, 127
2, 413406, Note_on_c, 6, 66, 127
2, 413406, Note_on_c, 10, 69, 127
2, 413406, Note_on_c, 4, 76, 127
2, 413406, Note_on_c, 7, 79, 127
2, 414198, Note_off_c, 7, 79, 127
2, 414198, Note_off_c, 4, 76, 127
2, 414200, Note_on_c, 2, 74, 127
2, 414200, Note_on_c, 6, 78, 127
2, 414990, Note_off_c, 10, 57, 127
2, 414992, Note_off_c, 6, 78, 127
2, 414992, Note_off_c, 2, 74, 127
2, 414992, Note_off_c, 10, 69, 127
2, 414992, Note_off_c, 6, 66, 127
2, 414992, Note_off_c, 2, 62, 127
2, 415010, Note_on_c, 4, 76, 127
2, 415010, Note_on_c, 10, 81, 127
2, 415010, Note_on_c, 12, 71, 127
2, 415010, Note_on_c, 2, 74, 127
2, 415010, Note_on_c, 2, 62, 127
2, 415010, Note_on_c, 12, 59, 127
2, 415405, Note_off_c, 10, 81, 127
2, 415407, Note_on_c, 8, 80, 127
2, 415796, Note_off_c, 2, 74, 127
2, 415796, Note_off_c, 12, 71, 127
2, 415796, Note_off_c, 4, 76, 127
2, 415802, Note_off_c, 8, 80, 127
2, 415802, Note_off_c, 12, 59, 127
2, 415802, Note_off_c, 2, 62, 127
2, 415804, Note_on_c, 10, 69, 127
2, 415804, Note_on_c, 8, 80, 127
2, 415804, Note_on_c, 1, 73, 127
2, 415804, Note_on_c, 4, 76, 127
2, 415804, Note_on_c, 1, 61, 127
2, 415804, Note_on_c, 4, 64, 127
2, 416199, Note_off_c, 8, 80, 127
2, 416201, Note_on_c, 10, 81, 127
2, 416590, Note_off_c, 4, 76, 127
2, 416590, Note_off_c, 1, 73, 127
2, 416590, Note_off_c, 10, 69, 127
2, 416596, Note_off_c, 10, 81, 127
2, 416596, Note_off_c, 4, 64, 127
2, 416596, Note_off_c, 1, 61, 127
2, 416598, Note_on_c, 12, 71, 127
2, 416598, Note_on_c, 2, 62, 127
2, 416598, Note_on_c, 6, 66, 127
2, 416797, Note_on_c, 12, 83, 127
2, 416894, Note_off_c, 12, 83, 127
2, 416896, Note_on_c, 10, 81, 127
2, 416993, Note_off_c, 10, 81, 127
2, 416995, Note_on_c, 8, 80, 127
2, 417092, Note_off_c, 8, 80, 127
2, 417094, Note_on_c, 10, 81, 127
2, 417191, Note_off_c, 10, 81, 127
2, 417193, Note_on_c, 12, 83, 127
2, 417383, Note_off_c, 12, 71, 127
2, 417389, Note_off_c, 12, 83, 127
2, 417389, Note_off_c, 6, 66, 127
2, 417389, Note_off_c, 2, 62, 127
2, 417391, Note_on_c, 12, 71, 127
2, 417391, Note_on_c, 10, 81, 127
2, 417391, Note_on_c, 4, 64, 127
2, 417521, Note_off_c, 10, 81, 127
2, 417523, Note_on_c, 8, 80, 127
2, 417587, Note_off_c, 8, 80, 127
2, 417589, Note_on_c, 10, 81, 127
2, 417653, Note_off_c, 10, 81, 127
2, 417655, Note_on_c, 8, 80, 127
2, 417719, Note_off_c, 8, 80, 127
2, 417721, Note_on_c, 10, 81, 127
2, 417785, Note_off_c, 10, 81, 127
2, 417787, Note_on_c, 8, 80, 127
2, 417851, Note_off_c, 8, 80, 127
2, 417853, Note_on_c, 10, 81, 127
2, 417917, Note_off_c, 10, 81, 127
2, 417919, Note_on_c, 8, 80, 127
2, 417983, Note_off_c, 8, 80, 127
2, 417985, Note_on_c, 10, 81, 127
2, 418049, Note_off_c, 10, 81, 127
2, 418051, Note_on_c, 8, 80, 127
2, 418183, Note_on_c, 4, 52, 127
2, 418578, Note_off_c, 8, 80, 127
2, 418578, Note_off_c, 12, 71, 127
2, 418580, Note_on_c, 10, 69, 127
2, 418580, Note_on_c, 6, 78, 127
2, 418975, Note_off_c, 6, 78, 127
2, 418975, Note_off_c, 10, 69, 127
2, 418977, Note_on_c, 8, 68, 127
2, 418977, Note_on_c, 4, 76, 127
2, 419372, Note_off_c, 4, 76, 127
2, 419372, Note_off_c, 4, 52, 127
2, 419374, Note_on_c, 2, 74, 127
2, 419374, Note_on_c, 6, 54, 127
2, 419763, Note_off_c, 8, 68, 127
2, 419767, Note_off_c, 4, 64, 127
2, 419769, Note_off_c, 6, 54, 127
2, 419769, Note_off_c, 2, 74, 127
2, 419771, Note_on_c, 1, 73, 127
2, 419771, Note_on_c, 10, 69, 127
2, 419771, Note_on_c, 4, 64, 127
2, 419771, Note_on_c, 7, 55, 127
2, 420365, Note_off_c, 10, 69, 127
2, 420365, Note_off_c, 1, 73, 127
2, 420367, Note_on_c, 2, 74, 127
2, 420464, Note_off_c, 2, 74, 127
2, 420466, Note_on_c, 4, 76, 127
2, 420563, Note_off_c, 4, 76, 127
2, 420565, Note_on_c, 2, 74, 127
2, 420960, Note_off_c, 2, 74, 127
2, 420962, Note_on_c, 1, 73, 127
2, 421357, Note_off_c, 1, 73, 127
2, 421359, Note_on_c, 1, 73, 127
2, 421423, Note_off_c, 1, 73, 127
2, 421425, Note_on_c, 12, 71, 127
2, 421489, Note_off_c, 12, 71, 127
2, 421491, Note_on_c, 1, 73, 127
2, 421555, Note_off_c, 1, 73, 127
2, 421557, Note_on_c, 12, 71, 127
2, 421754, Note_off_c, 12, 71, 127
2, 421756, Note_on_c, 10, 69, 127
2, 422149, Note_off_c, 4, 64, 127
2, 422151, Note_off_c, 10, 69, 127
2, 422151, Note_off_c, 7, 55, 127
2, 422153, Note_on_c, 1, 73, 127
2, 422153, Note_on_c, 4, 76, 127
2, 422153, Note_on_c, 12, 47, 127
2, 422219, Note_on_c, 6, 78, 127
2, 422271, Note_off_c, 12, 47, 127
2, 422273, Note_on_c, 11, 46, 127
2, 422283, Note_off_c, 6, 78, 127
2, 422285, Note_on_c, 7, 79, 127
2, 422391, Note_off_c, 11, 46, 127
2, 422393, Note_on_c, 12, 47, 127
2, 422511, Note_off_c, 12, 47, 127
2, 422514, Note_on_c, 11, 46, 127
2, 422548, Note_off_c, 7, 79, 127
2, 422550, Note_on_c, 6, 78, 127
2, 422939, Note_off_c, 4, 76, 127
2, 422945, Note_off_c, 6, 78, 127
2, 422947, Note_on_c, 4, 76, 127
2, 422947, Note_on_c, 12, 47, 127
2, 422948, Note_off_c, 11, 46, 127
2, 423077, Note_off_c, 4, 76, 127
2, 423079, Note_on_c, 2, 74, 127
2, 423143, Note_off_c, 2, 74, 127
2, 423145, Note_on_c, 4, 76, 127
2, 423209, Note_off_c, 4, 76, 127
2, 423211, Note_on_c, 2, 74, 127
2, 423275, Note_off_c, 2, 74, 127
2, 423277, Note_on_c, 4, 76, 127
2, 423341, Note_off_c, 4, 76, 127
2, 423343, Note_on_c, 2, 74, 127
2, 423407, Note_off_c, 2, 74, 127
2, 423409, Note_on_c, 4, 76, 127
2, 423473, Note_off_c, 4, 76, 127
2, 423475, Note_on_c, 2, 74, 127
2, 423539, Note_off_c, 12, 47, 127
2, 423541, Note_on_c, 1, 49, 127
2, 423638, Note_off_c, 1, 49, 127
2, 423640, Note_on_c, 2, 50, 127
2, 423737, Note_off_c, 2, 50, 127
2, 423737, Note_off_c, 1, 73, 127
2, 423739, Note_on_c, 12, 71, 127
2, 423739, Note_on_c, 10, 45, 127
2, 423836, Note_off_c, 10, 45, 127
2, 423838, Note_on_c, 8, 44, 127
2, 423935, Note_off_c, 8, 44, 127
2, 423937, Note_on_c, 10, 45, 127
2, 424034, Note_off_c, 10, 45, 127
2, 424036, Note_on_c, 8, 44, 127
2, 424131, Note_off_c, 2, 74, 127
2, 424135, Note_on_c, 4, 76, 127
2, 424530, Note_off_c, 4, 76, 127
2, 424530, Note_off_c, 8, 44, 127
2, 424532, Note_on_c, 2, 74, 127
2, 424532, Note_on_c, 10, 45, 127
2, 424729, Note_off_c, 2, 74, 127
2, 424731, Note_on_c, 1, 73, 127
2, 424928, Note_off_c, 1, 73, 127
2, 424930, Note_on_c, 2, 74, 127
2, 425127, Note_off_c, 2, 74, 127
2, 425127, Note_off_c, 10, 45, 127
2, 425129, Note_on_c, 4, 76, 127
2, 425129, Note_on_c, 12, 47, 127
2, 425226, Note_off_c, 12, 47, 127
2, 425228, Note_on_c, 1, 49, 127
2, 425325, Note_off_c, 1, 49, 127
2, 425325, Note_off_c, 4, 76, 127
2, 425327, Note_on_c, 4, 76, 127
2, 425327, Note_on_c, 6, 42, 127
2, 425591, Note_off_c, 4, 76, 127
2, 425592, Note_on_c, 3, 75, 127
2, 425656, Note_off_c, 3, 75, 127
2, 425658, Note_on_c, 4, 76, 127
2, 425722, Note_off_c, 4, 76, 127
2, 425724, Note_off_c, 12, 71, 127
2, 425724, Note_on_c, 3, 75, 127
2, 425724, Note_on_c, 10, 69, 127
2, 425788, Note_off_c, 3, 75, 127
2, 425790, Note_on_c, 4, 76, 127
2, 425854, Note_off_c, 4, 76, 127
2, 425856, Note_on_c, 3, 75, 127
2, 425920, Note_off_c, 3, 75, 127
2, 425922, Note_on_c, 4, 76, 127
2, 425986, Note_off_c, 4, 76, 127
2, 425988, Note_on_c, 3, 75, 127
2, 426052, Note_off_c, 3, 75, 127
2, 426054, Note_on_c, 4, 76, 127
2, 426116, Note_off_c, 10, 69, 127
2, 426118, Note_off_c, 4, 76, 127
2, 426118, Note_off_c, 6, 42, 127
2, 426120, Note_on_c, 3, 75, 127
2, 426120, Note_on_c, 1, 73, 127
2, 426120, Note_on_c, 12, 47, 127
2, 426184, Note_off_c, 3, 75, 127
2, 426186, Note_on_c, 4, 76, 127
2, 426250, Note_off_c, 4, 76, 127
2, 426252, Note_on_c, 3, 75, 127
2, 426515, Note_off_c, 1, 73, 127
2, 426517, Note_on_c, 12, 71, 127
2, 426674, Note_on_c, 1, 73, 127
2, 426676, Note_off_c, 3, 75, 127
2, 426792, Note_off_c, 1, 73, 127
2, 426794, Note_on_c, 3, 75, 127
2, 426910, Note_off_c, 12, 71, 127
2, 426912, Note_off_c, 3, 75, 127
2, 426912, Note_off_c, 12, 47, 127
2, 426914, Note_on_c, 10, 69, 127
2, 426914, Note_on_c, 4, 76, 127
2, 426914, Note_on_c, 4, 40, 127
2, 427311, Note_on_c, 12, 47, 127
2, 427508, Note_off_c, 4, 76, 127
2, 427510, Note_on_c, 6, 78, 127
2, 427607, Note_off_c, 6, 78, 127
2, 427609, Note_on_c, 3, 75, 127
2, 427700, Note_off_c, 10, 69, 127
2, 427706, Note_off_c, 3, 75, 127
2, 427706, Note_off_c, 12, 47, 127
2, 427708, Note_on_c, 3, 75, 127
2, 427708, Note_on_c, 10, 69, 127
2, 427708, Note_on_c, 4, 52, 127
2, 428500, Note_off_c, 10, 69, 127
2, 428500, Note_off_c, 3, 75, 127
2, 428502, Note_on_c, 8, 68, 127
2, 428502, Note_on_c, 4, 76, 127
2, 428583, Note_off_c, 8, 68, 127
2, 428585, Note_on_c, 10, 69, 127
2, 428666, Note_off_c, 10, 69, 127
2, 428668, Note_on_c, 8, 68, 127
2, 428749, Note_off_c, 8, 68, 127
2, 428751, Note_on_c, 10, 69, 127
2, 428841, Note_off_c, 10, 69, 127
2, 428850, Note_on_c, 8, 68, 127
2, 429314, Note_off_c, 4, 40, 127
2, 429320, Note_off_c, 4, 52, 127
2, 429321, Note_off_c, 8, 68, 127
2, 429329, Note_off_c, 4, 76, 127
2, 429329, Note_on_c, 4, 64, 127
2, 429329, Note_on_c, 8, 68, 127
2, 429329, Note_on_c, 12, 59, 127
2, 429329, Note_on_c, 2, 50, 127
2, 429923, Note_off_c, 8, 68, 127
2, 429925, Note_on_c, 10, 69, 127
2, 430022, Note_off_c, 10, 69, 127
2, 430024, Note_on_c, 12, 71, 127
2, 430121, Note_off_c, 12, 71, 127
2, 430123, Note_on_c, 10, 69, 127
2, 430518, Note_off_c, 10, 69, 127
2, 430520, Note_on_c, 8, 68, 127
2, 430915, Note_off_c, 8, 68, 127
2, 430917, Note_on_c, 8, 68, 127
2, 430981, Note_off_c, 8, 68, 127
2, 430983, Note_on_c, 6, 66, 127
2, 431047, Note_off_c, 6, 66, 127
2, 431049, Note_on_c, 8, 68, 127
2, 431113, Note_off_c, 8, 68, 127
2, 431115, Note_on_c, 6, 66, 127
2, 431312, Note_off_c, 6, 66, 127
2, 431314, Note_off_c, 4, 64, 127
2, 431314, Note_on_c, 4, 64, 127
2, 431709, Note_off_c, 4, 64, 127
2, 431709, Note_off_c, 2, 50, 127
2, 431709, Note_off_c, 12, 59, 127
2, 431711, Note_on_c, 7, 67, 127
2, 431711, Note_on_c, 4, 76, 127
2, 431711, Note_on_c, 10, 57, 127
2, 431711, Note_on_c, 1, 49, 127
2, 432106, Note_off_c, 4, 76, 127
2, 432106, Note_off_c, 7, 67, 127
2, 432108, Note_on_c, 6, 66, 127
2, 432108, Note_on_c, 2, 74, 127
2, 432503, Note_off_c, 2, 74, 127
2, 432503, Note_off_c, 6, 66, 127
2, 432505, Note_on_c, 2, 74, 127
2, 432505, Note_on_c, 6, 66, 127
2, 432702, Note_off_c, 1, 49, 127
2, 432702, Note_off_c, 10, 57, 127
2, 432704, Note_on_c, 2, 50, 127
2, 432901, Note_off_c, 2, 50, 127
2, 432903, Note_on_c, 4, 52, 127
2, 433100, Note_off_c, 4, 52, 127
2, 433102, Note_on_c, 2, 50, 127
2, 433299, Note_off_c, 2, 50, 127
2, 433299, Note_off_c, 6, 66, 127
2, 433299, Note_off_c, 2, 74, 127
2, 433301, Note_on_c, 4, 76, 127
2, 433301, Note_on_c, 7, 67, 127
2, 433301, Note_on_c, 1, 49, 127
2, 433498, Note_off_c, 1, 49, 127
2, 433500, Note_on_c, 12, 47, 127
2, 433697, Note_off_c, 12, 47, 127
2, 433699, Note_on_c, 11, 46, 127
2, 433896, Note_off_c, 11, 46, 127
2, 433898, Note_on_c, 12, 47, 127
2, 434095, Note_off_c, 12, 47, 127
2, 434095, Note_off_c, 7, 67, 127
2, 434097, Note_on_c, 6, 66, 127
2, 434097, Note_on_c, 11, 46, 127
2, 434689, Note_off_c, 4, 76, 127
2, 434693, Note_on_c, 6, 78, 127
2, 434790, Note_off_c, 6, 78, 127
2, 434792, Note_on_c, 7, 79, 127
2, 434889, Note_off_c, 7, 79, 127
2, 434891, Note_on_c, 6, 78, 127
2, 434891, Note_on_c, 1, 49, 127
2, 435286, Note_off_c, 6, 78, 127
2, 435288, Note_on_c, 4, 76, 127
2, 435683, Note_off_c, 4, 76, 127
2, 435683, Note_off_c, 1, 49, 127
2, 435685, Note_on_c, 4, 76, 127
2, 435685, Note_on_c, 6, 54, 127
2, 435759, Note_off_c, 4, 76, 127
2, 435761, Note_on_c, 2, 74, 127
2, 435835, Note_off_c, 2, 74, 127
2, 435837, Note_on_c, 4, 76, 127
2, 435911, Note_off_c, 4, 76, 127
2, 435913, Note_on_c, 2, 74, 127
2, 436079, Note_off_c, 2, 74, 127
2, 436081, Note_on_c, 1, 73, 127
2, 436474, Note_off_c, 11, 46, 127
2, 436476, Note_off_c, 1, 73, 127
2, 436478, Note_on_c, 2, 74, 127
2, 436478, Note_on_c, 12, 47, 127
2, 436867, Note_off_c, 6, 66, 127
2, 436873, Note_off_c, 2, 74, 127
2, 436875, Note_on_c, 4, 64, 127
2, 436875, Note_on_c, 11, 70, 127
2, 436875, Note_on_c, 1, 73, 127
2, 437270, Note_off_c, 1, 73, 127
2, 437270, Note_off_c, 11, 70, 127
2, 437270, Note_off_c, 4, 64, 127
2, 437270, Note_off_c, 6, 54, 127
2, 437272, Note_on_c, 1, 73, 127
2, 437272, Note_on_c, 11, 70, 127
2, 437272, Note_on_c, 6, 66, 127
2, 437272, Note_on_c, 12, 59, 127
2, 437458, Note_off_c, 12, 47, 127
2, 437470, Note_on_c, 1, 49, 127
2, 437667, Note_off_c, 1, 49, 127
2, 437669, Note_on_c, 2, 50, 127
2, 437866, Note_off_c, 2, 50, 127
2, 437868, Note_on_c, 1, 49, 127
2, 438058, Note_off_c, 12, 59, 127
2, 438064, Note_off_c, 1, 49, 127
2, 438064, Note_off_c, 11, 70, 127
2, 438064, Note_off_c, 1, 73, 127
2, 438066, Note_on_c, 2, 74, 127
2, 438066, Note_on_c, 12, 71, 127
2, 438066, Note_on_c, 12, 47, 127
2, 438263, Note_off_c, 12, 47, 127
2, 438265, Note_on_c, 10, 45, 127
2, 438462, Note_off_c, 10, 45, 127
2, 438464, Note_on_c, 7, 43, 127
2, 438661, Note_off_c, 7, 43, 127
2, 438663, Note_on_c, 10, 45, 127
2, 438760, Note_off_c, 10, 45, 127
2, 438762, Note_on_c, 12, 47, 127
2, 438859, Note_off_c, 12, 47, 127
2, 438859, Note_off_c, 12, 71, 127
2, 438859, Note_off_c, 2, 74, 127
2, 438859, Note_off_c, 6, 66, 127
2, 438877, Note_on_c, 4, 40, 127
2, 438877, Note_on_c, 7, 67, 127
2, 438877, Note_on_c, 0, 72, 127
2, 439471, Note_off_c, 0, 72, 127
2, 439473, Note_on_c, 2, 74, 127
2, 439570, Note_off_c, 2, 74, 127
2, 439572, Note_on_c, 4, 76, 127
2, 439669, Note_off_c, 4, 76, 127
2, 439669, Note_off_c, 4, 40, 127
2, 439671, Note_on_c, 4, 52, 127
2, 439671, Note_on_c, 2, 74, 127
2, 440066, Note_off_c, 2, 74, 127
2, 440068, Note_on_c, 0, 72, 127
2, 440463, Note_off_c, 0, 72, 127
2, 440463, Note_off_c, 4, 52, 127
2, 440463, Note_off_c, 7, 67, 127
2, 440465, Note_on_c, 7, 55, 127
2, 440465, Note_on_c, 0, 72, 127
2, 440465, Note_on_c, 6, 66, 127
2, 440565, Note_off_c, 7, 55, 127
2, 440565, Note_on_c, 6, 54, 127
2, 440663, Note_off_c, 0, 72, 127
2, 440665, Note_off_c, 6, 54, 127
2, 440665, Note_on_c, 4, 52, 127
2, 440665, Note_on_c, 12, 71, 127
2, 440765, Note_off_c, 4, 52, 127
2, 440765, Note_on_c, 6, 54, 127
2, 440862, Note_off_c, 12, 71, 127
2, 440864, Note_on_c, 1, 73, 127
2, 440865, Note_off_c, 6, 54, 127
2, 440865, Note_on_c, 7, 55, 127
2, 440965, Note_off_c, 7, 55, 127
2, 440965, Note_on_c, 6, 54, 127
2, 441061, Note_off_c, 1, 73, 127
2, 441063, Note_on_c, 11, 70, 127
2, 441065, Note_off_c, 6, 54, 127
2, 441065, Note_on_c, 4, 52, 127
2, 441165, Note_off_c, 4, 52, 127
2, 441165, Note_on_c, 6, 54, 127
2, 441253, Note_off_c, 6, 66, 127
2, 441259, Note_off_c, 11, 70, 127
2, 441261, Note_on_c, 7, 55, 127
2, 441261, Note_on_c, 4, 64, 127
2, 441261, Note_on_c, 12, 71, 127
2, 441265, Note_off_c, 6, 54, 127
2, 441855, Note_off_c, 4, 64, 127
2, 441857, Note_on_c, 6, 66, 127
2, 441954, Note_off_c, 6, 66, 127
2, 441956, Note_on_c, 7, 67, 127
2, 442053, Note_off_c, 7, 67, 127
2, 442053, Note_off_c, 7, 55, 127
2, 442055, Note_on_c, 2, 50, 127
2, 442055, Note_on_c, 6, 66, 127
2, 442450, Note_off_c, 6, 66, 127
2, 442452, Note_on_c, 4, 64, 127
2, 442847, Note_off_c, 4, 64, 127
2, 442847, Note_off_c, 2, 50, 127
2, 442849, Note_on_c, 4, 52, 127
2, 442849, Note_on_c, 2, 62, 127
2, 443244, Note_off_c, 2, 62, 127
2, 443246, Note_on_c, 1, 61, 127
2, 443641, Note_off_c, 1, 61, 127
2, 443641, Note_off_c, 4, 52, 127
2, 443643, Note_on_c, 6, 54, 127
2, 443643, Note_on_c, 2, 62, 127
2, 444237, Note_off_c, 2, 62, 127
2, 444239, Note_off_c, 12, 71, 127
2, 444239, Note_on_c, 4, 64, 127
2, 444239, Note_on_c, 1, 73, 127
2, 444336, Note_off_c, 1, 73, 127
2, 444336, Note_off_c, 4, 64, 127
2, 444338, Note_on_c, 2, 74, 127
2, 444338, Note_on_c, 6, 66, 127
2, 444435, Note_off_c, 6, 66, 127
2, 444435, Note_off_c, 2, 74, 127
2, 444437, Note_on_c, 6, 66, 127
2, 444437, Note_on_c, 1, 61, 127
2, 444832, Note_off_c, 1, 61, 127
2, 444834, Note_on_c, 4, 64, 127
2, 445016, Note_off_c, 6, 66, 127
2, 445030, Note_off_c, 4, 64, 127
2, 445032, Note_on_c, 12, 71, 127
2, 445032, Note_on_c, 2, 62, 127
2, 445229, Note_off_c, 2, 62, 127
2, 445229, Note_off_c, 12, 71, 127
2, 445231, Note_on_c, 4, 64, 127
2, 445231, Note_on_c, 12, 71, 127
2, 445361, Note_off_c, 12, 71, 127
2, 445363, Note_on_c, 11, 70, 127
2, 445427, Note_off_c, 11, 70, 127
2, 445429, Note_on_c, 12, 71, 127
2, 445493, Note_off_c, 12, 71, 127
2, 445495, Note_on_c, 11, 70, 127
2, 445559, Note_off_c, 11, 70, 127
2, 445561, Note_on_c, 12, 71, 127
2, 445625, Note_off_c, 12, 71, 127
2, 445627, Note_on_c, 11, 70, 127
2, 445824, Note_off_c, 11, 70, 127
2, 445826, Note_on_c, 2, 74, 127
2, 446020, Note_off_c, 6, 54, 127
2, 446022, Note_off_c, 2, 74, 127
2, 446024, Note_on_c, 1, 73, 127
2, 446024, Note_on_c, 12, 59, 127
2, 446419, Note_off_c, 1, 73, 127
2, 446419, Note_off_c, 4, 64, 127
2, 446421, Note_on_c, 7, 67, 127
2, 446421, Note_on_c, 12, 71, 127
2, 446618, Note_off_c, 7, 67, 127
2, 446620, Note_on_c, 6, 66, 127
2, 446814, Note_off_c, 12, 71, 127
2, 446816, Note_off_c, 6, 66, 127
2, 446818, Note_on_c, 12, 71, 127
2, 446818, Note_on_c, 4, 64, 127
2, 447017, Note_on_c, 7, 55, 127
2, 447214, Note_off_c, 7, 55, 127
2, 447214, Note_off_c, 12, 59, 127
2, 447216, Note_on_c, 6, 54, 127
2, 447413, Note_off_c, 6, 54, 127
2, 447415, Note_on_c, 4, 52, 127
2, 447612, Note_off_c, 4, 52, 127
2, 447612, Note_off_c, 4, 64, 127
2, 447614, Note_on_c, 2, 50, 127
2, 447614, Note_on_c, 2, 62, 127
2, 447811, Note_off_c, 2, 50, 127
2, 447813, Note_on_c, 1, 49, 127
2, 448010, Note_off_c, 1, 49, 127
2, 448012, Note_on_c, 12, 47, 127
2, 448229, Note_on_c, 1, 49, 127
2, 448232, Note_off_c, 12, 47, 127
2, 448346, Note_on_c, 2, 50, 127
2, 448349, Note_off_c, 1, 49, 127
2, 448407, Note_off_c, 2, 62, 127
2, 448407, Note_off_c, 12, 71, 127
2, 448441, Note_on_c, 5, 41, 127
2, 448441, Note_on_c, 1, 61, 127
2, 448453, Note_off_c, 2, 50, 127
2, 449035, Note_off_c, 1, 61, 127
2, 449037, Note_on_c, 1, 73, 127
2, 449134, Note_off_c, 1, 73, 127
2, 449136, Note_on_c, 2, 74, 127
2, 449233, Note_off_c, 2, 74, 127
2, 449233, Note_off_c, 5, 41, 127
2, 449235, Note_on_c, 5, 53, 127
2, 449235, Note_on_c, 1, 73, 127
2, 449630, Note_off_c, 1, 73, 127
2, 449632, Note_on_c, 12, 71, 127
2, 450027, Note_off_c, 12, 71, 127
2, 450027, Note_off_c, 5, 53, 127
2, 450029, Note_on_c, 1, 49, 127
2, 450029, Note_on_c, 12, 71, 127
2, 450093, Note_off_c, 12, 71, 127
2, 450095, Note_on_c, 10, 69, 127
2, 450159, Note_off_c, 10, 69, 127
2, 450161, Note_on_c, 12, 71, 127
2, 450225, Note_off_c, 12, 71, 127
2, 450227, Note_on_c, 10, 69, 127
2, 450291, Note_off_c, 10, 69, 127
2, 450293, Note_on_c, 12, 71, 127
2, 450357, Note_off_c, 12, 71, 127
2, 450359, Note_on_c, 10, 69, 127
2, 450491, Note_off_c, 10, 69, 127
2, 450491, Note_on_c, 8, 68, 127
2, 450820, Note_off_c, 8, 68, 127
2, 450820, Note_off_c, 1, 49, 127
2, 450822, Note_on_c, 6, 54, 127
2, 450822, Note_on_c, 10, 69, 127
2, 451019, Note_off_c, 10, 69, 127
2, 451021, Note_on_c, 8, 68, 127
2, 451218, Note_off_c, 8, 68, 127
2, 451220, Note_on_c, 6, 66, 127
2, 451417, Note_off_c, 6, 66, 127
2, 451419, Note_on_c, 5, 65, 127
2, 451616, Note_off_c, 5, 65, 127
2, 451618, Note_on_c, 6, 66, 127
2, 451815, Note_off_c, 6, 66, 127
2, 451817, Note_on_c, 8, 68, 127
2, 452014, Note_off_c, 8, 68, 127
2, 452014, Note_off_c, 6, 54, 127
2, 452016, Note_on_c, 7, 55, 127
2, 452016, Note_on_c, 10, 69, 127
2, 452213, Note_off_c, 10, 69, 127
2, 452213, Note_off_c, 7, 55, 127
2, 452215, Note_on_c, 6, 54, 127
2, 452215, Note_on_c, 12, 71, 127
2, 452412, Note_off_c, 12, 71, 127
2, 452412, Note_off_c, 6, 54, 127
2, 452414, Note_on_c, 4, 52, 127
2, 452414, Note_on_c, 1, 73, 127
2, 452611, Note_off_c, 1, 73, 127
2, 452611, Note_off_c, 4, 52, 127
2, 452613, Note_on_c, 2, 50, 127
2, 452613, Note_on_c, 2, 74, 127
2, 452810, Note_off_c, 2, 74, 127
2, 452810, Note_off_c, 2, 50, 127
2, 452812, Note_on_c, 1, 49, 127
2, 452812, Note_on_c, 4, 76, 127
2, 453009, Note_off_c, 4, 76, 127
2, 453009, Note_off_c, 1, 49, 127
2, 453011, Note_on_c, 2, 50, 127
2, 453011, Note_on_c, 6, 78, 127
2, 453208, Note_off_c, 6, 78, 127
2, 453208, Note_off_c, 2, 50, 127
2, 453210, Note_on_c, 1, 49, 127
2, 453210, Note_on_c, 10, 81, 127
2, 453572, Note_off_c, 10, 81, 127
2, 453574, Note_on_c, 7, 79, 127
2, 453806, Note_on_c, 10, 81, 127
2, 453807, Note_off_c, 7, 79, 127
2, 453903, Note_off_c, 10, 81, 127
2, 453905, Note_on_c, 12, 83, 127
2, 454002, Note_off_c, 12, 83, 127
2, 454004, Note_on_c, 4, 52, 127
2, 454004, Note_on_c, 10, 81, 127
2, 454399, Note_off_c, 10, 81, 127
2, 454401, Note_on_c, 7, 79, 127
2, 454796, Note_off_c, 7, 79, 127
2, 454796, Note_off_c, 4, 52, 127
2, 454798, Note_on_c, 10, 57, 127
2, 454798, Note_on_c, 7, 79, 127
2, 454862, Note_off_c, 7, 79, 127
2, 454864, Note_on_c, 6, 78, 127
2, 454928, Note_off_c, 6, 78, 127
2, 454930, Note_on_c, 7, 79, 127
2, 454994, Note_off_c, 7, 79, 127
2, 454996, Note_on_c, 6, 78, 127
2, 455193, Note_off_c, 6, 78, 127
2, 455195, Note_on_c, 7, 79, 127
2, 455195, Note_on_c, 4, 76, 127
2, 455588, Note_off_c, 1, 49, 127
2, 455590, Note_off_c, 4, 76, 127
2, 455590, Note_off_c, 7, 79, 127
2, 455592, Note_on_c, 2, 50, 127
2, 455592, Note_on_c, 7, 79, 127
2, 455592, Note_on_c, 4, 76, 127
2, 455987, Note_off_c, 4, 76, 127
2, 455987, Note_off_c, 7, 79, 127
2, 455989, Note_on_c, 6, 78, 127
2, 455989, Note_on_c, 2, 74, 127
2, 456384, Note_off_c, 2, 74, 127
2, 456384, Note_off_c, 6, 78, 127
2, 456384, Note_off_c, 10, 57, 127
2, 456386, Note_on_c, 2, 74, 127
2, 456386, Note_on_c, 7, 79, 127
2, 456483, Note_off_c, 2, 50, 127
2, 456485, Note_on_c, 10, 45, 127
2, 456516, Note_off_c, 7, 79, 127
2, 456518, Note_on_c, 6, 78, 127
2, 456582, Note_off_c, 6, 78, 127
2, 456582, Note_off_c, 10, 45, 127
2, 456584, Note_on_c, 12, 47, 127
2, 456584, Note_on_c, 7, 79, 127
2, 456648, Note_off_c, 7, 79, 127
2, 456650, Note_on_c, 6, 78, 127
2, 456681, Note_off_c, 12, 47, 127
2, 456683, Note_on_c, 1, 49, 127
2, 456714, Note_off_c, 6, 78, 127
2, 456716, Note_on_c, 7, 79, 127
2, 456780, Note_off_c, 7, 79, 127
2, 456780, Note_off_c, 1, 49, 127
2, 456782, Note_on_c, 2, 50, 127
2, 456782, Note_on_c, 6, 78, 127
2, 456846, Note_off_c, 6, 78, 127
2, 456848, Note_on_c, 7, 79, 127
2, 456879, Note_off_c, 2, 50, 127
2, 456881, Note_on_c, 4, 52, 127
2, 456912, Note_off_c, 7, 79, 127
2, 456914, Note_on_c, 6, 78, 127
2, 456978, Note_off_c, 6, 78, 127
2, 456978, Note_off_c, 4, 52, 127
2, 456980, Note_on_c, 6, 54, 127
2, 456980, Note_on_c, 7, 79, 127
2, 457044, Note_off_c, 7, 79, 127
2, 457046, Note_on_c, 6, 78, 127
2, 457077, Note_off_c, 6, 54, 127
2, 457079, Note_on_c, 7, 55, 127
2, 457176, Note_off_c, 7, 55, 127
2, 457178, Note_on_c, 10, 57, 127
2, 457275, Note_off_c, 10, 57, 127
2, 457277, Note_on_c, 12, 59, 127
2, 457374, Note_off_c, 12, 59, 127
2, 457376, Note_on_c, 1, 61, 127
2, 457473, Note_off_c, 1, 61, 127
2, 457475, Note_on_c, 2, 62, 127
2, 457572, Note_off_c, 2, 62, 127
2, 457574, Note_on_c, 1, 61, 127
2, 457671, Note_off_c, 1, 61, 127
2, 457673, Note_on_c, 12, 59, 127
2, 457770, Note_off_c, 12, 59, 127
2, 457772, Note_on_c, 1, 61, 127
2, 457869, Note_off_c, 1, 61, 127
2, 457871, Note_on_c, 10, 57, 127
2, 457968, Note_off_c, 10, 57, 127
2, 457968, Note_off_c, 6, 78, 127
2, 457968, Note_off_c, 2, 74, 127
2, 457970, Note_on_c, 2, 62, 127
2, 457970, Note_on_c, 8, 80, 127
2, 457970, Note_on_c, 4, 76, 127
2, 457970, Note_on_c, 12, 71, 127
2, 458564, Note_off_c, 8, 80, 127
2, 458566, Note_on_c, 10, 81, 127
2, 458663, Note_off_c, 10, 81, 127
2, 458665, Note_on_c, 12, 83, 127
2, 458756, Note_off_c, 12, 71, 127
2, 458762, Note_off_c, 12, 83, 127
2, 458762, Note_off_c, 2, 62, 127
2, 458764, Note_on_c, 4, 64, 127
2, 458764, Note_on_c, 1, 61, 127
2, 458764, Note_on_c, 10, 81, 127
2, 459159, Note_off_c, 10, 81, 127
2, 459161, Note_on_c, 8, 80, 127
2, 459556, Note_off_c, 8, 80, 127
2, 459556, Note_off_c, 1, 61, 127
2, 459556, Note_off_c, 4, 64, 127
2, 459556, Note_off_c, 4, 76, 127
2, 459558, Note_on_c, 10, 57, 127
2, 459558, Note_on_c, 10, 69, 127
2, 459558, Note_on_c, 1, 73, 127
2, 459558, Note_on_c, 8, 80, 127
2, 459755, Note_off_c, 8, 80, 127
2, 459757, Note_on_c, 6, 78, 127
2, 459951, Note_off_c, 10, 69, 127
2, 459953, Note_off_c, 6, 78, 127
2, 459955, Note_on_c, 4, 76, 127
2, 459955, Note_on_c, 8, 68, 127
2, 460344, Note_off_c, 1, 73, 127
2, 460350, Note_off_c, 8, 68, 127
2, 460350, Note_off_c, 4, 76, 127
2, 460350, Note_off_c, 10, 57, 127
2, 460352, Note_on_c, 12, 59, 127
2, 460352, Note_on_c, 6, 66, 127
2, 460352, Note_on_c, 12, 71, 127
2, 460352, Note_on_c, 2, 74, 127
2, 460445, Note_off_c, 2, 74, 127
2, 460445, Note_on_c, 1, 73, 127
2, 460538, Note_off_c, 1, 73, 127
2, 460539, Note_on_c, 2, 74, 127
2, 460948, Note_on_c, 4, 76, 127
2, 460964, Note_off_c, 2, 74, 127
2, 461046, Note_off_c, 4, 76, 127
2, 461048, Note_on_c, 6, 78, 127
2, 461139, Note_off_c, 6, 66, 127
2, 461145, Note_off_c, 6, 78, 127
2, 461145, Note_off_c, 12, 59, 127
2, 461147, Note_on_c, 8, 56, 127
2, 461147, Note_on_c, 12, 59, 127
2, 461147, Note_on_c, 4, 76, 127
2, 461542, Note_off_c, 4, 76, 127
2, 461544, Note_on_c, 2, 74, 127
2, 461937, Note_off_c, 2, 74, 127
2, 461939, Note_off_c, 12, 59, 127
2, 461939, Note_off_c, 8, 56, 127
2, 461939, Note_off_c, 12, 71, 127
2, 461941, Note_on_c, 4, 52, 127
2, 461941, Note_on_c, 8, 68, 127
2, 461941, Note_on_c, 4, 64, 127
2, 461941, Note_on_c, 2, 74, 127
2, 462005, Note_off_c, 2, 74, 127
2, 462007, Note_on_c, 1, 73, 127
2, 462071, Note_off_c, 1, 73, 127
2, 462073, Note_on_c, 2, 74, 127
2, 462137, Note_off_c, 2, 74, 127
2, 462139, Note_on_c, 1, 73, 127
2, 462333, Note_off_c, 4, 64, 127
2, 462335, Note_off_c, 1, 73, 127
2, 462337, Note_on_c, 12, 71, 127
2, 462337, Note_on_c, 2, 62, 127
2, 462726, Note_off_c, 8, 68, 127
2, 462732, Note_off_c, 2, 62, 127
2, 462732, Note_off_c, 12, 71, 127
2, 462732, Note_off_c, 4, 52, 127
2, 462734, Note_on_c, 6, 54, 127
2, 462734, Note_on_c, 1, 61, 127
2, 462734, Note_on_c, 10, 69, 127
2, 462734, Note_on_c, 6, 66, 127
2, 463328, Note_off_c, 10, 69, 127
2, 463330, Note_on_c, 12, 71, 127
2, 463427, Note_off_c, 12, 71, 127
2, 463429, Note_on_c, 1, 73, 127
2, 463520, Note_off_c, 1, 61, 127
2, 463526, Note_off_c, 1, 73, 127
2, 463526, Note_off_c, 6, 54, 127
2, 463528, Note_on_c, 3, 51, 127
2, 463528, Note_on_c, 6, 54, 127
2, 463528, Note_on_c, 12, 71, 127
2, 463923, Note_off_c, 12, 71, 127
2, 463925, Note_on_c, 10, 69, 127
2, 464320, Note_off_c, 10, 69, 127
2, 464320, Note_off_c, 6, 54, 127
2, 464320, Note_off_c, 3, 51, 127
2, 464320, Note_off_c, 6, 66, 127
2, 464322, Note_on_c, 12, 47, 127
2, 464322, Note_on_c, 3, 63, 127
2, 464322, Note_on_c, 12, 59, 127
2, 464322, Note_on_c, 8, 68, 127
2, 464519, Note_off_c, 8, 68, 127
2, 464521, Note_on_c, 10, 69, 127
2, 464718, Note_off_c, 10, 69, 127
2, 464720, Note_on_c, 8, 68, 127
2, 464917, Note_off_c, 8, 68, 127
2, 464919, Note_on_c, 10, 69, 127
2, 465109, Note_off_c, 12, 59, 127
2, 465109, Note_off_c, 3, 63, 127
2, 465115, Note_off_c, 10, 69, 127
2, 465115, Note_off_c, 12, 47, 127
2, 465117, Note_on_c, 4, 52, 127
2, 465117, Note_on_c, 4, 64, 127
2, 465117, Note_on_c, 12, 59, 127
2, 465117, Note_on_c, 10, 69, 127
2, 465214, Note_off_c, 4, 52, 127
2, 465216, Note_on_c, 4, 40, 127
2, 465247, Note_off_c, 10, 69, 127
2, 465249, Note_on_c, 8, 68, 127
2, 465313, Note_off_c, 4, 40, 127
2, 465315, Note_on_c, 6, 42, 127
2, 465342, Note_off_c, 8, 68, 127
2, 465342, Note_on_c, 10, 69, 127
2, 465412, Note_off_c, 6, 42, 127
2, 465414, Note_on_c, 8, 44, 127
2, 465435, Note_off_c, 10, 69, 127
2, 465435, Note_on_c, 8, 68, 127
2, 465512, Note_off_c, 8, 44, 127
2, 465514, Note_on_c, 10, 45, 127
2, 465611, Note_off_c, 10, 45, 127
2, 465613, Note_on_c, 12, 47, 127
2, 465710, Note_off_c, 12, 47, 127
2, 465712, Note_on_c, 1, 49, 127
2, 465809, Note_off_c, 1, 49, 127
2, 465811, Note_on_c, 2, 50, 127
2, 465908, Note_off_c, 2, 50, 127
2, 465910, Note_on_c, 4, 52, 127
2, 466007, Note_off_c, 4, 52, 127
2, 466009, Note_on_c, 6, 54, 127
2, 466106, Note_off_c, 6, 54, 127
2, 466108, Note_on_c, 8, 56, 127
2, 466205, Note_off_c, 8, 56, 127
2, 466207, Note_on_c, 10, 57, 127
2, 466261, Note_off_c, 8, 68, 127
2, 466304, Note_off_c, 10, 57, 127
2, 466304, Note_off_c, 12, 59, 127
2, 466304, Note_off_c, 4, 64, 127
2, 466306, Note_on_c, 12, 59, 127
2, 466306, Note_on_c, 6, 66, 127
2, 466403, Note_off_c, 12, 59, 127
2, 466405, Note_on_c, 1, 61, 127
2, 466502, Note_off_c, 1, 61, 127
2, 466504, Note_on_c, 2, 62, 127
2, 466601, Note_off_c, 2, 62, 127
2, 466603, Note_on_c, 1, 61, 127
2, 466700, Note_off_c, 1, 61, 127
2, 466700, Note_off_c, 6, 66, 127
2, 466702, Note_on_c, 12, 59, 127
2, 466702, Note_on_c, 4, 64, 127
2, 466799, Note_off_c, 12, 59, 127
2, 466801, Note_on_c, 10, 57, 127
2, 466898, Note_off_c, 10, 57, 127
2, 466900, Note_on_c, 8, 56, 127
2, 466997, Note_off_c, 8, 56, 127
2, 466999, Note_on_c, 6, 54, 127
2, 467096, Note_off_c, 6, 54, 127
2, 467098, Note_on_c, 4, 52, 127
2, 467195, Note_off_c, 4, 52, 127
2, 467197, Note_on_c, 2, 50, 127
2, 467294, Note_off_c, 2, 50, 127
2, 467296, Note_on_c, 1, 49, 127
2, 467393, Note_off_c, 1, 49, 127
2, 467403, Note_on_c, 12, 47, 127
2, 467492, Note_off_c, 4, 64, 127
2, 467500, Note_off_c, 12, 47, 127
2, 467510, Note_on_c, 1, 73, 127
2, 467510, Note_on_c, 10, 45, 127
2, 467591, Note_off_c, 1, 73, 127
2, 467593, Note_on_c, 12, 71, 127
2, 467674, Note_off_c, 12, 71, 127
2, 467676, Note_on_c, 1, 73, 127
2, 468104, Note_off_c, 1, 73, 127
2, 468106, Note_on_c, 2, 74, 127
2, 468203, Note_off_c, 2, 74, 127
2, 468205, Note_on_c, 4, 76, 127
2, 468302, Note_off_c, 4, 76, 127
2, 468304, Note_on_c, 2, 74, 127
2, 468699, Note_off_c, 2, 74, 127
2, 468701, Note_on_c, 1, 73, 127
2, 469096, Note_off_c, 1, 73, 127
2, 469096, Note_off_c, 10, 45, 127
2, 469098, Note_on_c, 1, 73, 127
2, 469162, Note_off_c, 1, 73, 127
2, 469164, Note_on_c, 12, 71, 127
2, 469228, Note_off_c, 12, 71, 127
2, 469230, Note_on_c, 1, 73, 127
2, 469294, Note_off_c, 1, 73, 127
2, 469296, Note_on_c, 12, 71, 127
2, 469493, Note_off_c, 12, 71, 127
2, 469495, Note_on_c, 10, 69, 127
2, 469890, Note_off_c, 10, 69, 127
2, 469892, Note_on_c, 7, 79, 127
2, 469892, Note_on_c, 4, 76, 127
2, 469892, Note_on_c, 10, 69, 127
2, 469892, Note_on_c, 1, 49, 127
2, 470287, Note_off_c, 4, 76, 127
2, 470287, Note_off_c, 7, 79, 127
2, 470289, Note_on_c, 2, 74, 127
2, 470289, Note_on_c, 6, 78, 127
2, 470486, Note_off_c, 1, 49, 127
2, 470488, Note_on_c, 2, 50, 127
2, 470585, Note_off_c, 2, 50, 127
2, 470587, Note_on_c, 4, 52, 127
2, 470678, Note_off_c, 10, 69, 127
2, 470684, Note_off_c, 4, 52, 127
2, 470684, Note_off_c, 6, 78, 127
2, 470684, Note_off_c, 2, 74, 127
2, 470686, Note_on_c, 6, 78, 127
2, 470686, Note_on_c, 10, 69, 127
2, 470686, Note_on_c, 2, 74, 127
2, 470686, Note_on_c, 2, 50, 127
2, 471081, Note_off_c, 2, 50, 127
2, 471083, Note_on_c, 1, 49, 127
2, 471478, Note_off_c, 1, 49, 127
2, 471478, Note_off_c, 2, 74, 127
2, 471478, Note_off_c, 6, 78, 127
2, 471480, Note_on_c, 4, 76, 127
2, 471480, Note_on_c, 7, 79, 127
2, 471480, Note_on_c, 1, 49, 127
2, 471577, Note_off_c, 1, 49, 127
2, 471579, Note_on_c, 12, 47, 127
2, 471676, Note_off_c, 12, 47, 127
2, 471678, Note_on_c, 1, 49, 127
2, 471775, Note_off_c, 1, 49, 127
2, 471777, Note_on_c, 12, 47, 127
2, 471874, Note_off_c, 12, 47, 127
2, 471876, Note_on_c, 10, 45, 127
2, 472282, Note_off_c, 7, 79, 127
2, 472282, Note_off_c, 4, 76, 127
2, 472286, Note_off_c, 10, 69, 127
2, 472288, Note_off_c, 10, 45, 127
2, 472289, Note_on_c, 10, 57, 127
2, 472289, Note_on_c, 2, 74, 127
2, 472289, Note_on_c, 6, 78, 127
2, 472684, Note_off_c, 10, 57, 127
2, 472686, Note_on_c, 8, 56, 127
2, 472883, Note_off_c, 6, 78, 127
2, 472885, Note_on_c, 7, 79, 127
2, 472982, Note_off_c, 7, 79, 127
2, 472984, Note_on_c, 10, 81, 127
2, 473075, Note_off_c, 2, 74, 127
2, 473081, Note_off_c, 10, 81, 127
2, 473081, Note_off_c, 8, 56, 127
2, 473083, Note_on_c, 10, 57, 127
2, 473083, Note_on_c, 7, 79, 127
2, 473478, Note_off_c, 7, 79, 127
2, 473480, Note_on_c, 6, 78, 127
2, 473875, Note_off_c, 6, 78, 127
2, 473877, Note_on_c, 6, 78, 127
2, 473941, Note_off_c, 6, 78, 127
2, 473943, Note_on_c, 4, 76, 127
2, 474007, Note_off_c, 4, 76, 127
2, 474009, Note_on_c, 6, 78, 127
2, 474073, Note_off_c, 6, 78, 127
2, 474075, Note_on_c, 4, 76, 127
2, 474272, Note_off_c, 4, 76, 127
2, 474274, Note_on_c, 2, 74, 127
2, 474669, Note_off_c, 2, 74, 127
2, 474669, Note_off_c, 10, 57, 127
2, 474671, Note_on_c, 8, 44, 127
2, 474671, Note_on_c, 4, 76, 127
2, 474671, Note_on_c, 2, 74, 127
2, 474671, Note_on_c, 12, 83, 127
2, 475066, Note_off_c, 12, 83, 127
2, 475066, Note_off_c, 2, 74, 127
2, 475068, Note_on_c, 10, 81, 127
2, 475068, Note_on_c, 1, 73, 127
2, 475265, Note_off_c, 8, 44, 127
2, 475267, Note_on_c, 10, 45, 127
2, 475364, Note_off_c, 10, 45, 127
2, 475366, Note_on_c, 12, 47, 127
2, 475463, Note_off_c, 12, 47, 127
2, 475463, Note_off_c, 1, 73, 127
2, 475463, Note_off_c, 10, 81, 127
2, 475465, Note_on_c, 10, 45, 127
2, 475465, Note_on_c, 10, 81, 127
2, 475465, Note_on_c, 1, 73, 127
2, 475860, Note_off_c, 10, 45, 127
2, 475862, Note_on_c, 8, 44, 127
2, 476257, Note_off_c, 8, 44, 127
2, 476257, Note_off_c, 1, 73, 127
2, 476257, Note_off_c, 10, 81, 127
2, 476259, Note_on_c, 8, 44, 127
2, 476259, Note_on_c, 12, 83, 127
2, 476259, Note_on_c, 2, 74, 127
2, 476356, Note_off_c, 8, 44, 127
2, 476358, Note_on_c, 6, 42, 127
2, 476455, Note_off_c, 6, 42, 127
2, 476457, Note_on_c, 8, 44, 127
2, 476554, Note_off_c, 8, 44, 127
2, 476556, Note_on_c, 6, 42, 127
2, 476653, Note_off_c, 6, 42, 127
2, 476655, Note_on_c, 4, 40, 127
2, 477055, Note_off_c, 4, 76, 127
2, 477057, Note_off_c, 4, 40, 127
2, 477075, Note_on_c, 0, 48, 127
2, 477461, Note_off_c, 12, 83, 127
2, 477477, Note_off_c, 0, 48, 127
2, 477479, Note_on_c, 8, 80, 127
2, 477479, Note_on_c, 12, 47, 127
2, 477660, Note_on_c, 4, 76, 127
2, 477661, Note_off_c, 2, 74, 127
2, 477772, Note_off_c, 4, 76, 127
2, 477772, Note_on_c, 5, 77, 127
2, 477879, Note_off_c, 8, 80, 127
2, 477881, Note_off_c, 12, 47, 127
2, 477882, Note_off_c, 5, 77, 127
2, 477883, Note_on_c, 10, 81, 127
2, 477883, Note_on_c, 4, 76, 127
2, 477883, Note_on_c, 0, 48, 127
2, 478285, Note_off_c, 4, 76, 127
2, 478287, Note_on_c, 2, 74, 127
2, 478683, Note_off_c, 0, 48, 127
2, 478689, Note_off_c, 2, 74, 127
2, 478691, Note_on_c, 2, 74, 127
2, 478756, Note_off_c, 2, 74, 127
2, 478758, Note_on_c, 0, 72, 127
2, 478823, Note_off_c, 0, 72, 127
2, 478825, Note_on_c, 2, 74, 127
2, 478890, Note_off_c, 2, 74, 127
2, 478892, Note_on_c, 0, 72, 127
2, 479092, Note_off_c, 0, 72, 127
2, 479094, Note_on_c, 12, 71, 127
2, 479496, Note_off_c, 12, 71, 127
2, 479498, Note_on_c, 0, 72, 127
2, 479498, Note_on_c, 5, 53, 127
2, 479900, Note_off_c, 5, 53, 127
2, 479902, Note_off_c, 10, 81, 127
2, 479902, Note_on_c, 8, 80, 127
2, 479902, Note_on_c, 4, 52, 127
2, 480087, Note_off_c, 0, 72, 127
2, 480093, Note_on_c, 2, 74, 127
2, 480199, Note_on_c, 4, 76, 127
2, 480202, Note_off_c, 2, 74, 127
2, 480301, Note_off_c, 8, 80, 127
2, 480303, Note_off_c, 4, 52, 127
2, 480305, Note_on_c, 8, 80, 127
2, 480305, Note_on_c, 2, 74, 127
2, 480305, Note_on_c, 5, 53, 127
2, 480309, Note_off_c, 4, 76, 127
2, 480707, Note_off_c, 2, 74, 127
2, 480709, Note_on_c, 0, 72, 127
2, 481105, Note_off_c, 8, 80, 127
2, 481111, Note_off_c, 0, 72, 127
2, 481111, Note_off_c, 5, 53, 127
2, 481113, Note_on_c, 0, 72, 127
2, 481113, Note_on_c, 10, 81, 127
2, 481113, Note_on_c, 4, 52, 127
2, 481178, Note_off_c, 0, 72, 127
2, 481180, Note_on_c, 12, 71, 127
2, 481228, Note_off_c, 4, 52, 127
2, 481228, Note_on_c, 3, 51, 127
2, 481245, Note_off_c, 12, 71, 127
2, 481247, Note_on_c, 0, 72, 127
2, 481312, Note_off_c, 0, 72, 127
2, 481314, Note_on_c, 12, 71, 127
2, 481343, Note_off_c, 3, 51, 127
2, 481343, Note_on_c, 4, 52, 127
2, 481459, Note_off_c, 4, 52, 127
2, 481460, Note_on_c, 3, 51, 127
2, 481514, Note_off_c, 12, 71, 127
2, 481532, Note_on_c, 10, 69, 127
2, 481881, Note_off_c, 3, 51, 127
2, 481936, Note_off_c, 10, 69, 127
2, 481938, Note_on_c, 2, 74, 127
2, 482006, Note_off_c, 2, 74, 127
2, 482008, Note_on_c, 4, 76, 127
2, 482076, Note_off_c, 4, 76, 127
2, 482078, Note_on_c, 5, 77, 127
2, 482358, Note_off_c, 5, 77, 127
2, 482360, Note_on_c, 4, 76, 127
2, 482781, Note_off_c, 4, 76, 127
2, 482783, Note_on_c, 4, 52, 127
2, 482783, Note_on_c, 2, 74, 127
2, 482871, Note_off_c, 2, 74, 127
2, 482871, Note_on_c, 0, 72, 127
2, 482904, Note_off_c, 4, 52, 127
2, 482904, Note_on_c, 3, 51, 127
2, 482959, Note_off_c, 0, 72, 127
2, 482959, Note_on_c, 12, 71, 127
2, 483025, Note_off_c, 3, 51, 127
2, 483025, Note_on_c, 4, 52, 127
2, 483047, Note_off_c, 12, 71, 127
2, 483047, Note_on_c, 0, 72, 127
2, 483135, Note_off_c, 0, 72, 127
2, 483135, Note_on_c, 2, 74, 127
2, 483223, Note_off_c, 2, 74, 127
2, 483230, Note_on_c, 0, 72, 127
2, 483322, Note_on_c, 2, 74, 127
2, 483323, Note_off_c, 0, 72, 127
2, 483417, Note_off_c, 2, 74, 127
2, 483417, Note_on_c, 0, 72, 127
2, 483608, Note_off_c, 10, 81, 127
2, 483626, Note_off_c, 0, 72, 127
2, 483628, Note_on_c, 4, 40, 127
2, 483628, Note_on_c, 12, 71, 127
2, 483628, Note_on_c, 8, 80, 127
2, 483657, Note_off_c, 4, 52, 127
2, 484049, Note_off_c, 12, 71, 127
2, 484051, Note_on_c, 10, 69, 127
2, 484516, Note_off_c, 8, 80, 127
2, 484523, Note_off_c, 10, 69, 127
2, 484523, Note_off_c, 4, 40, 127
2, 484525, Note_on_c, 10, 45, 127
2, 484525, Note_on_c, 10, 69, 127
2, 484525, Note_on_c, 10, 81, 127
2, 485000, Note_on_c, 1, 49, 127
2, 485235, Note_off_c, 1, 49, 127
2, 485237, Note_on_c, 4, 52, 127
2, 485472, Note_off_c, 4, 52, 127
2, 485472, Note_off_c, 10, 81, 127
2, 485472, Note_off_c, 10, 69, 127
2, 485474, Note_on_c, 10, 57, 127
2, 485474, Note_on_c, 10, 81, 127
2, 485474, Note_on_c, 4, 76, 127
2, 485474, Note_on_c, 1, 73, 127
2, 485474, Note_on_c, 10, 69, 127
2, 487764, Note_off_c, 10, 45, 127
2, 487769, Note_off_c, 10, 69, 127
2, 487769, Note_off_c, 1, 73, 127
2, 487769, Note_off_c, 4, 76, 127
2, 487769, Note_off_c, 10, 81, 127
2, 487769, Note_off_c, 10, 57, 127
2, 489941, Note_on_c, 4, 64, 127
2, 490279, Note_off_c, 4, 64, 127
2, 490301, Note_on_c, 10, 69, 127
2, 490479, Note_off_c, 10, 69, 127
2, 490481, Note_on_c, 8, 68, 127
2, 490659, Note_off_c, 8, 68, 127
2, 490661, Note_on_c, 12, 71, 127
2, 490839, Note_off_c, 12, 71, 127
2, 490841, Note_on_c, 10, 69, 127
2, 491019, Note_off_c, 10, 69, 127
2, 491021, Note_on_c, 1, 73, 127
2, 491199, Note_off_c, 1, 73, 127
2, 491201, Note_on_c, 12, 71, 127
2, 491379, Note_off_c, 12, 71, 127
2, 491381, Note_on_c, 10, 69, 127
2, 491559, Note_off_c, 10, 69, 127
2, 491561, Note_on_c, 8, 68, 127
2, 491739, Note_off_c, 8, 68, 127
2, 491741, Note_on_c, 10, 69, 127
2, 492088, Note_off_c, 10, 69, 127
2, 492101, Note_on_c, 4, 64, 127
2, 492448, Note_off_c, 4, 64, 127
2, 492461, Note_on_c, 1, 61, 127
2, 492639, Note_off_c, 1, 61, 127
2, 492641, Note_on_c, 4, 64, 127
2, 492819, Note_off_c, 4, 64, 127
2, 492821, Note_on_c, 10, 69, 127
2, 492821, Note_on_c, 4, 52, 127
2, 492999, Note_off_c, 10, 69, 127
2, 493001, Note_on_c, 12, 71, 127
2, 493179, Note_off_c, 12, 71, 127
2, 493179, Note_off_c, 4, 52, 127
2, 493181, Note_on_c, 1, 73, 127
2, 493181, Note_on_c, 10, 57, 127
2, 493359, Note_off_c, 10, 57, 127
2, 493359, Note_off_c, 1, 73, 127
2, 493361, Note_on_c, 12, 71, 127
2, 493361, Note_on_c, 8, 56, 127
2, 493539, Note_off_c, 8, 56, 127
2, 493539, Note_off_c, 12, 71, 127
2, 493541, Note_on_c, 2, 74, 127
2, 493541, Note_on_c, 12, 59, 127
2, 493719, Note_off_c, 12, 59, 127
2, 493719, Note_off_c, 2, 74, 127
2, 493721, Note_on_c, 1, 73, 127
2, 493721, Note_on_c, 10, 57, 127
2, 493899, Note_off_c, 10, 57, 127
2, 493899, Note_off_c, 1, 73, 127
2, 493901, Note_on_c, 4, 76, 127
2, 493901, Note_on_c, 1, 61, 127
2, 494079, Note_off_c, 1, 61, 127
2, 494079, Note_off_c, 4, 76, 127
2, 494081, Note_on_c, 2, 74, 127
2, 494081, Note_on_c, 12, 59, 127
2, 494259, Note_off_c, 12, 59, 127
2, 494259, Note_off_c, 2, 74, 127
2, 494261, Note_on_c, 1, 73, 127
2, 494261, Note_on_c, 10, 57, 127
2, 494439, Note_off_c, 10, 57, 127
2, 494439, Note_off_c, 1, 73, 127
2, 494441, Note_on_c, 12, 71, 127
2, 494441, Note_on_c, 8, 56, 127
2, 494619, Note_off_c, 8, 56, 127
2, 494619, Note_off_c, 12, 71, 127
2, 494621, Note_on_c, 2, 74, 127
2, 494621, Note_on_c, 10, 57, 127
2, 494799, Note_off_c, 2, 74, 127
2, 494801, Note_on_c, 1, 73, 127
2, 494968, Note_off_c, 10, 57, 127
2, 494979, Note_off_c, 1, 73, 127
2, 494981, Note_on_c, 12, 71, 127
2, 494981, Note_on_c, 4, 52, 127
2, 495159, Note_off_c, 12, 71, 127
2, 495161, Note_on_c, 1, 73, 127
2, 495328, Note_off_c, 4, 52, 127
2, 495339, Note_off_c, 1, 73, 127
2, 495341, Note_on_c, 10, 69, 127
2, 495341, Note_on_c, 1, 49, 127
2, 495519, Note_off_c, 1, 49, 127
2, 495519, Note_off_c, 10, 69, 127
2, 495521, Note_on_c, 12, 71, 127
2, 495521, Note_on_c, 4, 52, 127
2, 495699, Note_off_c, 4, 52, 127
2, 495699, Note_off_c, 12, 71, 127
2, 495701, Note_on_c, 1, 73, 127
2, 495701, Note_on_c, 10, 57, 127
2, 495879, Note_off_c, 10, 57, 127
2, 495879, Note_off_c, 1, 73, 127
2, 495881, Note_on_c, 2, 74, 127
2, 495881, Note_on_c, 12, 59, 127
2, 496059, Note_off_c, 12, 59, 127
2, 496059, Note_off_c, 2, 74, 127
2, 496061, Note_on_c, 4, 76, 127
2, 496061, Note_on_c, 1, 61, 127
2, 496239, Note_off_c, 1, 61, 127
2, 496241, Note_on_c, 12, 59, 127
2, 496389, Note_off_c, 4, 76, 127
2, 496419, Note_off_c, 12, 59, 127
2, 496421, Note_on_c, 7, 79, 127
2, 496421, Note_on_c, 2, 62, 127
2, 496599, Note_off_c, 2, 62, 127
2, 496599, Note_off_c, 7, 79, 127
2, 496601, Note_on_c, 5, 77, 127
2, 496601, Note_on_c, 1, 61, 127
2, 496779, Note_off_c, 1, 61, 127
2, 496779, Note_off_c, 5, 77, 127
2, 496781, Note_on_c, 7, 79, 127
2, 496781, Note_on_c, 4, 64, 127
2, 496869, Note_off_c, 7, 79, 127
2, 496871, Note_on_c, 5, 77, 127
2, 496959, Note_off_c, 5, 77, 127
2, 496959, Note_off_c, 4, 64, 127
2, 496961, Note_on_c, 7, 79, 127
2, 496961, Note_on_c, 2, 62, 127
2, 497139, Note_off_c, 2, 62, 127
2, 497141, Note_on_c, 1, 61, 127
2, 497299, Note_off_c, 7, 79, 127
2, 497320, Note_off_c, 1, 61, 127
2, 497322, Note_on_c, 10, 81, 127
2, 497322, Note_on_c, 10, 57, 127
2, 497500, Note_off_c, 10, 57, 127
2, 497500, Note_off_c, 10, 81, 127
2, 497502, Note_on_c, 6, 78, 127
2, 497502, Note_on_c, 2, 62, 127
2, 497680, Note_off_c, 2, 62, 127
2, 497682, Note_on_c, 1, 61, 127
2, 497830, Note_off_c, 6, 78, 127
2, 497860, Note_off_c, 1, 61, 127
2, 497862, Note_on_c, 10, 81, 127
2, 497862, Note_on_c, 4, 64, 127
2, 498040, Note_off_c, 4, 64, 127
2, 498040, Note_off_c, 10, 81, 127
2, 498042, Note_on_c, 8, 80, 127
2, 498042, Note_on_c, 2, 62, 127
2, 498220, Note_off_c, 2, 62, 127
2, 498220, Note_off_c, 8, 80, 127
2, 498222, Note_on_c, 10, 81, 127
2, 498222, Note_on_c, 6, 66, 127
2, 498310, Note_off_c, 10, 81, 127
2, 498312, Note_on_c, 8, 80, 127
2, 498400, Note_off_c, 8, 80, 127
2, 498400, Note_off_c, 6, 66, 127
2, 498402, Note_on_c, 10, 81, 127
2, 498402, Note_on_c, 4, 64, 127
2, 498580, Note_off_c, 4, 64, 127
2, 498582, Note_on_c, 3, 63, 127
2, 498740, Note_off_c, 10, 81, 127
2, 498761, Note_off_c, 3, 63, 127
2, 498763, Note_on_c, 12, 83, 127
2, 498763, Note_on_c, 12, 59, 127
2, 498941, Note_off_c, 12, 59, 127
2, 498941, Note_off_c, 12, 83, 127
2, 498943, Note_on_c, 8, 80, 127
2, 498943, Note_on_c, 4, 64, 127
2, 499121, Note_off_c, 4, 64, 127
2, 499121, Note_off_c, 8, 80, 127
2, 499123, Note_on_c, 10, 81, 127
2, 499123, Note_on_c, 6, 66, 127
2, 499301, Note_off_c, 6, 66, 127
2, 499301, Note_off_c, 10, 81, 127
2, 499303, Note_on_c, 8, 80, 127
2, 499303, Note_on_c, 4, 64, 127
2, 499481, Note_off_c, 4, 64, 127
2, 499481, Note_off_c, 8, 80, 127
2, 499483, Note_on_c, 10, 81, 127
2, 499483, Note_on_c, 2, 62, 127
2, 499661, Note_off_c, 2, 62, 127
2, 499661, Note_off_c, 10, 81, 127
2, 499663, Note_on_c, 12, 83, 127
2, 499663, Note_on_c, 1, 61, 127
2, 499813, Note_off_c, 12, 83, 127
2, 499813, Note_on_c, 10, 81, 127
2, 499841, Note_off_c, 1, 61, 127
2, 499843, Note_on_c, 12, 59, 127
2, 499901, Note_off_c, 10, 81, 127
2, 499903, Note_on_c, 12, 83, 127
2, 499983, Note_on_c, 10, 81, 127
2, 499991, Note_off_c, 12, 83, 127
2, 500021, Note_off_c, 12, 59, 127
2, 500023, Note_on_c, 1, 61, 127
2, 500063, Note_on_c, 12, 83, 127
2, 500071, Note_off_c, 10, 81, 127
2, 500143, Note_on_c, 10, 81, 127
2, 500151, Note_off_c, 12, 83, 127
2, 500201, Note_off_c, 1, 61, 127
2, 500203, Note_on_c, 10, 57, 127
2, 500223, Note_on_c, 8, 80, 127
2, 500231, Note_off_c, 10, 81, 127
2, 500303, Note_on_c, 10, 81, 127
2, 500311, Note_off_c, 8, 80, 127
2, 500381, Note_off_c, 10, 57, 127
2, 500383, Note_on_c, 12, 83, 127
2, 500383, Note_on_c, 4, 64, 127
2, 500391, Note_off_c, 10, 81, 127
2, 500561, Note_off_c, 4, 64, 127
2, 500563, Note_on_c, 3, 63, 127
2, 500741, Note_off_c, 3, 63, 127
2, 500743, Note_on_c, 6, 66, 127
2, 500921, Note_off_c, 6, 66, 127
2, 500922, Note_off_c, 12, 83, 127
2, 500923, Note_on_c, 4, 64, 127
2, 501101, Note_off_c, 4, 64, 127
2, 501103, Note_on_c, 8, 68, 127
2, 501281, Note_off_c, 8, 68, 127
2, 501283, Note_on_c, 6, 66, 127
2, 501461, Note_off_c, 6, 66, 127
2, 501463, Note_on_c, 4, 64, 127
2, 501643, Note_on_c, 2, 62, 127
2, 501819, Note_off_c, 4, 64, 127
2, 501821, Note_off_c, 2, 62, 127
2, 501823, Note_on_c, 10, 69, 127
2, 501823, Note_on_c, 1, 61, 127
2, 502001, Note_off_c, 1, 61, 127
2, 502001, Note_off_c, 10, 69, 127
2, 502003, Note_on_c, 8, 68, 127
2, 502003, Note_on_c, 12, 59, 127
2, 502181, Note_off_c, 12, 59, 127
2, 502181, Note_off_c, 8, 68, 127
2, 502183, Note_on_c, 12, 71, 127
2, 502183, Note_on_c, 2, 62, 127
2, 502361, Note_off_c, 2, 62, 127
2, 502361, Note_off_c, 12, 71, 127
2, 502363, Note_on_c, 10, 69, 127
2, 502363, Note_on_c, 1, 61, 127
2, 502541, Note_off_c, 1, 61, 127
2, 502541, Note_off_c, 10, 69, 127
2, 502543, Note_on_c, 1, 73, 127
2, 502543, Note_on_c, 4, 64, 127
2, 502721, Note_off_c, 4, 64, 127
2, 502721, Note_off_c, 1, 73, 127
2, 502723, Note_on_c, 12, 71, 127
2, 502723, Note_on_c, 2, 62, 127
2, 502901, Note_off_c, 2, 62, 127
2, 502901, Note_off_c, 12, 71, 127
2, 502903, Note_on_c, 10, 69, 127
2, 502903, Note_on_c, 1, 61, 127
2, 503081, Note_off_c, 1, 61, 127
2, 503081, Note_off_c, 10, 69, 127
2, 503083, Note_on_c, 8, 68, 127
2, 503083, Note_on_c, 12, 59, 127
2, 503261, Note_off_c, 12, 59, 127
2, 503261, Note_off_c, 8, 68, 127
2, 503263, Note_on_c, 10, 69, 127
2, 503263, Note_on_c, 1, 61, 127
2, 503441, Note_off_c, 1, 61, 127
2, 503443, Note_on_c, 2, 62, 127
2, 503610, Note_off_c, 10, 69, 127
2, 503621, Note_off_c, 2, 62, 127
2, 503623, Note_on_c, 4, 64, 127
2, 503623, Note_on_c, 1, 61, 127
2, 503801, Note_off_c, 1, 61, 127
2, 503803, Note_on_c, 12, 59, 127
2, 503970, Note_off_c, 4, 64, 127
2, 503981, Note_off_c, 12, 59, 127
2, 503983, Note_on_c, 1, 61, 127
2, 503983, Note_on_c, 10, 57, 127
2, 504161, Note_off_c, 1, 61, 127
2, 504163, Note_on_c, 4, 64, 127
2, 504341, Note_off_c, 4, 64, 127
2, 504341, Note_off_c, 10, 57, 127
2, 504343, Note_on_c, 10, 69, 127
2, 504343, Note_on_c, 4, 52, 127
2, 504521, Note_off_c, 10, 69, 127
2, 504523, Note_on_c, 12, 71, 127
2, 504701, Note_off_c, 12, 71, 127
2, 504701, Note_off_c, 4, 52, 127
2, 504703, Note_on_c, 1, 73, 127
2, 504703, Note_on_c, 10, 57, 127
2, 504881, Note_off_c, 10, 57, 127
2, 504881, Note_off_c, 1, 73, 127
2, 504883, Note_on_c, 12, 71, 127
2, 504883, Note_on_c, 8, 56, 127
2, 505061, Note_off_c, 8, 56, 127
2, 505061, Note_off_c, 12, 71, 127
2, 505063, Note_on_c, 2, 74, 127
2, 505063, Note_on_c, 12, 59, 127
2, 505241, Note_off_c, 12, 59, 127
2, 505241, Note_off_c, 2, 74, 127
2, 505243, Note_on_c, 1, 73, 127
2, 505243, Note_on_c, 10, 57, 127
2, 505421, Note_off_c, 10, 57, 127
2, 505421, Note_off_c, 1, 73, 127
2, 505423, Note_on_c, 4, 76, 127
2, 505423, Note_on_c, 1, 61, 127
2, 505601, Note_off_c, 1, 61, 127
2, 505601, Note_off_c, 4, 76, 127
2, 505603, Note_on_c, 2, 74, 127
2, 505603, Note_on_c, 12, 59, 127
2, 505781, Note_off_c, 12, 59, 127
2, 505781, Note_off_c, 2, 74, 127
2, 505783, Note_on_c, 1, 73, 127
2, 505783, Note_on_c, 10, 57, 127
2, 505961, Note_off_c, 10, 57, 127
2, 505961, Note_off_c, 1, 73, 127
2, 505963, Note_on_c, 12, 71, 127
2, 505963, Note_on_c, 8, 56, 127
2, 506141, Note_off_c, 8, 56, 127
2, 506141, Note_off_c, 12, 71, 127
2, 506143, Note_on_c, 2, 74, 127
2, 506143, Note_on_c, 10, 57, 127
2, 506321, Note_off_c, 2, 74, 127
2, 506323, Note_on_c, 1, 73, 127
2, 506490, Note_off_c, 10, 57, 127
2, 506501, Note_off_c, 1, 73, 127
2, 506503, Note_on_c, 12, 71, 127
2, 506503, Note_on_c, 4, 52, 127
2, 506681, Note_off_c, 12, 71, 127
2, 506683, Note_on_c, 1, 73, 127
2, 506850, Note_off_c, 4, 52, 127
2, 506861, Note_off_c, 1, 73, 127
2, 506863, Note_on_c, 10, 69, 127
2, 506863, Note_on_c, 1, 49, 127
2, 507041, Note_off_c, 10, 69, 127
2, 507043, Note_on_c, 8, 68, 127
2, 507221, Note_off_c, 8, 68, 127
2, 507221, Note_off_c, 1, 49, 127
2, 507223, Note_on_c, 12, 71, 127
2, 507223, Note_on_c, 4, 52, 127
2, 507401, Note_off_c, 12, 71, 127
2, 507403, Note_on_c, 10, 69, 127
2, 507581, Note_off_c, 10, 69, 127
2, 507581, Note_off_c, 4, 52, 127
2, 507583, Note_on_c, 1, 73, 127
2, 507583, Note_on_c, 10, 45, 127
2, 507761, Note_off_c, 1, 73, 127
2, 507763, Note_on_c, 12, 71, 127
2, 507941, Note_off_c, 12, 71, 127
2, 507941, Note_off_c, 10, 45, 127
2, 507943, Note_on_c, 10, 69, 127
2, 507943, Note_on_c, 4, 52, 127
2, 508121, Note_off_c, 10, 69, 127
2, 508123, Note_on_c, 8, 68, 127
2, 508301, Note_off_c, 8, 68, 127
2, 508301, Note_off_c, 4, 52, 127
2, 508303, Note_on_c, 6, 66, 127
2, 508303, Note_on_c, 10, 57, 127
2, 508481, Note_off_c, 10, 57, 127
2, 508481, Note_off_c, 6, 66, 127
2, 508483, Note_on_c, 4, 64, 127
2, 508483, Note_on_c, 8, 56, 127
2, 508661, Note_off_c, 8, 56, 127
2, 508661, Note_off_c, 4, 64, 127
2, 508663, Note_on_c, 8, 68, 127
2, 508663, Note_on_c, 12, 59, 127
2, 508841, Note_off_c, 12, 59, 127
2, 508841, Note_off_c, 8, 68, 127
2, 508843, Note_on_c, 6, 66, 127
2, 508843, Note_on_c, 10, 57, 127
2, 509021, Note_off_c, 10, 57, 127
2, 509021, Note_off_c, 6, 66, 127
2, 509023, Note_on_c, 10, 69, 127
2, 509023, Note_on_c, 1, 61, 127
2, 509201, Note_off_c, 1, 61, 127
2, 509201, Note_off_c, 10, 69, 127
2, 509203, Note_on_c, 8, 68, 127
2, 509203, Note_on_c, 12, 59, 127
2, 509381, Note_off_c, 12, 59, 127
2, 509381, Note_off_c, 8, 68, 127
2, 509383, Note_on_c, 6, 66, 127
2, 509383, Note_on_c, 10, 57, 127
2, 509561, Note_off_c, 10, 57, 127
2, 509561, Note_off_c, 6, 66, 127
2, 509563, Note_on_c, 4, 64, 127
2, 509563, Note_on_c, 8, 56, 127
2, 509741, Note_off_c, 8, 56, 127
2, 509741, Note_off_c, 4, 64, 127
2, 509743, Note_on_c, 3, 63, 127
2, 509743, Note_on_c, 6, 54, 127
2, 509921, Note_off_c, 6, 54, 127
2, 509921, Note_off_c, 3, 63, 127
2, 509923, Note_on_c, 1, 61, 127
2, 509923, Note_on_c, 4, 52, 127
2, 510101, Note_off_c, 4, 52, 127
2, 510101, Note_off_c, 1, 61, 127
2, 510103, Note_on_c, 4, 64, 127
2, 510103, Note_on_c, 8, 56, 127
2, 510281, Note_off_c, 8, 56, 127
2, 510281, Note_off_c, 4, 64, 127
2, 510283, Note_on_c, 3, 63, 127
2, 510283, Note_on_c, 6, 54, 127
2, 510461, Note_off_c, 6, 54, 127
2, 510461, Note_off_c, 3, 63, 127
2, 510463, Note_on_c, 6, 66, 127
2, 510463, Note_on_c, 10, 57, 127
2, 510641, Note_off_c, 10, 57, 127
2, 510641, Note_off_c, 6, 66, 127
2, 510643, Note_on_c, 12, 59, 127
2, 510643, Note_on_c, 8, 56, 127
2, 510821, Note_off_c, 8, 56, 127
2, 510821, Note_off_c, 12, 59, 127
2, 510823, Note_on_c, 12, 71, 127
2, 510823, Note_on_c, 6, 54, 127
2, 511001, Note_off_c, 6, 54, 127
2, 511003, Note_on_c, 4, 52, 127
2, 511181, Note_off_c, 4, 52, 127
2, 511181, Note_off_c, 12, 71, 127
2, 511183, Note_on_c, 10, 69, 127
2, 511183, Note_on_c, 12, 59, 127
2, 511271, Note_off_c, 10, 69, 127
2, 511273, Note_on_c, 8, 68, 127
2, 511361, Note_off_c, 8, 68, 127
2, 511363, Note_on_c, 10, 69, 127
2, 511451, Note_off_c, 10, 69, 127
2, 511453, Note_on_c, 8, 68, 127
2, 511541, Note_off_c, 8, 68, 127
2, 511541, Note_off_c, 12, 59, 127
2, 511543, Note_on_c, 6, 66, 127
2, 511543, Note_on_c, 12, 47, 127
2, 511721, Note_off_c, 6, 66, 127
2, 511723, Note_on_c, 4, 64, 127
2, 511901, Note_off_c, 4, 64, 127
2, 511901, Note_off_c, 12, 47, 127
2, 511903, Note_on_c, 4, 64, 127
2, 511903, Note_on_c, 4, 52, 127
2, 512263, Note_on_c, 12, 47, 127
2, 512621, Note_off_c, 12, 47, 127
2, 512623, Note_on_c, 4, 40, 127
2, 512979, Note_off_c, 4, 40, 127
2, 512981, Note_off_c, 4, 52, 127
2, 512981, Note_off_c, 4, 64, 127
2, 512983, Note_on_c, 4, 64, 127
2, 513321, Note_off_c, 4, 64, 127
2, 513343, Note_on_c, 12, 71, 127
2, 513521, Note_off_c, 12, 71, 127
2, 513523, Note_on_c, 10, 69, 127
2, 513701, Note_off_c, 10, 69, 127
2, 513703, Note_on_c, 1, 73, 127
2, 513881, Note_off_c, 1, 73, 127
2, 513883, Note_on_c, 12, 71, 127
2, 514061, Note_off_c, 12, 71, 127
2, 514063, Note_on_c, 2, 74, 127
2, 514241, Note_off_c, 2, 74, 127
2, 514243, Note_on_c, 1, 73, 127
2, 514421, Note_off_c, 1, 73, 127
2, 514423, Note_on_c, 4, 76, 127
2, 514423, Note_on_c, 4, 52, 127
2, 514770, Note_off_c, 4, 76, 127
2, 514781, Note_off_c, 4, 52, 127
2, 514783, Note_on_c, 2, 74, 127
2, 514783, Note_on_c, 10, 57, 127
2, 514913, Note_on_c, 1, 73, 127
2, 514923, Note_off_c, 2, 74, 127
2, 514961, Note_off_c, 10, 57, 127
2, 514963, Note_on_c, 8, 56, 127
2, 514983, Note_on_c, 2, 74, 127
2, 514991, Note_off_c, 1, 73, 127
2, 515053, Note_on_c, 1, 73, 127
2, 515061, Note_off_c, 2, 74, 127
2, 515141, Note_off_c, 1, 73, 127
2, 515141, Note_off_c, 8, 56, 127
2, 515143, Note_on_c, 12, 71, 127
2, 515143, Note_on_c, 12, 59, 127
2, 515321, Note_off_c, 12, 59, 127
2, 515321, Note_off_c, 12, 71, 127
2, 515323, Note_on_c, 1, 73, 127
2, 515323, Note_on_c, 10, 57, 127
2, 515501, Note_off_c, 10, 57, 127
2, 515501, Note_off_c, 1, 73, 127
2, 515503, Note_on_c, 10, 69, 127
2, 515503, Note_on_c, 1, 61, 127
2, 515681, Note_off_c, 1, 61, 127
2, 515681, Note_off_c, 10, 69, 127
2, 515683, Note_on_c, 12, 71, 127
2, 515683, Note_on_c, 12, 59, 127
2, 515861, Note_off_c, 12, 59, 127
2, 515861, Note_off_c, 12, 71, 127
2, 515863, Note_on_c, 1, 73, 127
2, 515863, Note_on_c, 4, 64, 127
2, 516041, Note_off_c, 1, 73, 127
2, 516043, Note_on_c, 2, 74, 127
2, 516210, Note_off_c, 4, 64, 127
2, 516221, Note_off_c, 2, 74, 127
2, 516223, Note_on_c, 4, 76, 127
2, 516223, Note_on_c, 2, 62, 127
2, 516303, Note_on_c, 1, 61, 127
2, 516311, Note_off_c, 2, 62, 127
2, 516383, Note_on_c, 2, 62, 127
2, 516391, Note_off_c, 1, 61, 127
2, 516401, Note_off_c, 4, 76, 127
2, 516403, Note_on_c, 2, 74, 127
2, 516463, Note_on_c, 1, 61, 127
2, 516471, Note_off_c, 2, 62, 127
2, 516581, Note_off_c, 2, 74, 127
2, 516583, Note_off_c, 1, 61, 127
2, 516583, Note_on_c, 6, 78, 127
2, 516583, Note_on_c, 12, 59, 127
2, 516761, Note_off_c, 12, 59, 127
2, 516761, Note_off_c, 6, 78, 127
2, 516763, Note_on_c, 4, 76, 127
2, 516763, Note_on_c, 1, 61, 127
2, 516941, Note_off_c, 1, 61, 127
2, 516941, Note_off_c, 4, 76, 127
2, 516943, Note_on_c, 7, 79, 127
2, 516943, Note_on_c, 10, 57, 127
2, 517121, Note_off_c, 7, 79, 127
2, 517123, Note_on_c, 6, 78, 127
2, 517301, Note_off_c, 6, 78, 127
2, 517301, Note_off_c, 10, 57, 127
2, 517303, Note_on_c, 10, 81, 127
2, 517303, Note_on_c, 10, 45, 127
2, 517661, Note_off_c, 10, 45, 127
2, 517661, Note_off_c, 10, 81, 127
2, 517663, Note_on_c, 7, 79, 127
2, 517663, Note_on_c, 2, 50, 127
2, 517733, Note_on_c, 6, 78, 127
2, 517751, Note_off_c, 7, 79, 127
2, 517803, Note_on_c, 7, 79, 127
2, 517821, Note_off_c, 6, 78, 127
2, 517841, Note_off_c, 2, 50, 127
2, 517843, Note_on_c, 1, 49, 127
2, 517873, Note_on_c, 6, 78, 127
2, 517891, Note_off_c, 7, 79, 127
2, 518013, Note_off_c, 6, 78, 127
2, 518021, Note_off_c, 1, 49, 127
2, 518023, Note_on_c, 4, 76, 127
2, 518023, Note_on_c, 4, 52, 127
2, 518201, Note_off_c, 4, 52, 127
2, 518201, Note_off_c, 4, 76, 127
2, 518203, Note_on_c, 6, 78, 127
2, 518203, Note_on_c, 2, 50, 127
2, 518381, Note_off_c, 2, 50, 127
2, 518381, Note_off_c, 6, 78, 127
2, 518383, Note_on_c, 2, 74, 127
2, 518383, Note_on_c, 6, 54, 127
2, 518561, Note_off_c, 6, 54, 127
2, 518563, Note_on_c, 2, 50, 127
2, 518741, Note_off_c, 2, 50, 127
2, 518741, Note_off_c, 2, 74, 127
2, 518743, Note_on_c, 6, 78, 127
2, 518743, Note_on_c, 2, 62, 127
2, 519101, Note_off_c, 2, 62, 127
2, 519101, Note_off_c, 6, 78, 127
2, 519103, Note_on_c, 6, 78, 127
2, 519103, Note_on_c, 7, 43, 127
2, 519281, Note_off_c, 6, 78, 127
2, 519283, Note_on_c, 2, 74, 127
2, 519461, Note_off_c, 2, 74, 127
2, 519463, Note_on_c, 1, 73, 127
2, 519641, Note_off_c, 1, 73, 127
2, 519643, Note_on_c, 12, 71, 127
2, 519815, Note_off_c, 7, 43, 127
2, 519821, Note_off_c, 12, 71, 127
2, 519823, Note_on_c, 2, 74, 127
2, 520001, Note_off_c, 2, 74, 127
2, 520003, Note_on_c, 1, 73, 127
2, 520181, Note_off_c, 1, 73, 127
2, 520183, Note_on_c, 4, 76, 127
2, 520183, Note_on_c, 1, 61, 127
2, 520361, Note_off_c, 4, 76, 127
2, 520363, Note_on_c, 2, 74, 127
2, 520541, Note_off_c, 2, 74, 127
2, 520541, Note_off_c, 1, 61, 127
2, 520543, Note_on_c, 4, 76, 127
2, 520543, Note_on_c, 6, 42, 127
2, 520721, Note_off_c, 4, 76, 127
2, 520723, Note_on_c, 1, 73, 127
2, 520901, Note_off_c, 1, 73, 127
2, 520903, Note_on_c, 12, 71, 127
2, 521081, Note_off_c, 12, 71, 127
2, 521083, Note_on_c, 11, 70, 127
2, 521255, Note_off_c, 6, 42, 127
2, 521261, Note_off_c, 11, 70, 127
2, 521263, Note_on_c, 1, 73, 127
2, 521441, Note_off_c, 1, 73, 127
2, 521443, Note_on_c, 12, 71, 127
2, 521621, Note_off_c, 12, 71, 127
2, 521623, Note_on_c, 2, 74, 127
2, 521623, Note_on_c, 12, 59, 127
2, 521801, Note_off_c, 2, 74, 127
2, 521803, Note_on_c, 1, 73, 127
2, 521981, Note_off_c, 1, 73, 127
2, 521981, Note_off_c, 12, 59, 127
2, 521983, Note_on_c, 4, 76, 127
2, 521983, Note_on_c, 7, 55, 127
2, 522161, Note_off_c, 4, 76, 127
2, 522163, Note_on_c, 2, 74, 127
2, 522341, Note_off_c, 2, 74, 127
2, 522341, Note_off_c, 7, 55, 127
2, 522343, Note_on_c, 1, 73, 127
2, 522343, Note_on_c, 2, 50, 127
2, 522521, Note_off_c, 1, 73, 127
2, 522523, Note_on_c, 12, 71, 127
2, 522701, Note_off_c, 12, 71, 127
2, 522701, Note_off_c, 2, 50, 127
2, 522703, Note_on_c, 2, 74, 127
2, 522703, Note_on_c, 4, 52, 127
2, 522881, Note_off_c, 2, 74, 127
2, 522883, Note_on_c, 1, 73, 127
2, 523061, Note_off_c, 1, 73, 127
2, 523061, Note_off_c, 4, 52, 127
2, 523063, Note_on_c, 12, 71, 127
2, 523063, Note_on_c, 6, 54, 127
2, 523241, Note_off_c, 12, 71, 127
2, 523243, Note_on_c, 11, 70, 127
2, 523421, Note_off_c, 11, 70, 127
2, 523421, Note_off_c, 6, 54, 127
2, 523423, Note_on_c, 12, 71, 127
2, 523423, Note_on_c, 12, 47, 127
2, 523601, Note_off_c, 12, 47, 127
2, 523603, Note_on_c, 11, 46, 127
2, 523781, Note_off_c, 11, 46, 127
2, 523783, Note_on_c, 1, 49, 127
2, 523961, Note_off_c, 1, 49, 127
2, 523963, Note_on_c, 12, 47, 127
2, 524141, Note_off_c, 12, 47, 127
2, 524143, Note_on_c, 2, 50, 127
2, 524321, Note_off_c, 2, 50, 127
2, 524323, Note_on_c, 1, 49, 127
2, 524501, Note_off_c, 1, 49, 127
2, 524501, Note_off_c, 12, 71, 127
2, 524503, Note_on_c, 12, 71, 127
2, 524503, Note_on_c, 4, 52, 127
2, 524861, Note_off_c, 4, 52, 127
2, 524861, Note_off_c, 12, 71, 127
2, 524863, Note_on_c, 6, 78, 127
2, 524863, Note_on_c, 4, 52, 127
2, 524934, Note_on_c, 3, 51, 127
2, 524952, Note_off_c, 4, 52, 127
2, 525005, Note_on_c, 4, 52, 127
2, 525023, Note_off_c, 3, 51, 127
2, 525042, Note_off_c, 6, 78, 127
2, 525044, Note_on_c, 4, 76, 127
2, 525076, Note_on_c, 3, 51, 127
2, 525094, Note_off_c, 4, 52, 127
2, 525223, Note_off_c, 4, 76, 127
2, 525225, Note_on_c, 8, 80, 127
2, 525403, Note_off_c, 8, 80, 127
2, 525405, Note_on_c, 6, 78, 127
2, 525527, Note_off_c, 3, 51, 127
2, 525583, Note_off_c, 6, 78, 127
2, 525585, Note_on_c, 10, 81, 127
2, 525763, Note_off_c, 10, 81, 127
2, 525765, Note_on_c, 8, 80, 127
2, 525943, Note_off_c, 8, 80, 127
2, 525945, Note_on_c, 12, 83, 127
2, 525945, Note_on_c, 12, 47, 127
2, 526303, Note_off_c, 12, 47, 127
2, 526303, Note_off_c, 12, 83, 127
2, 526305, Note_on_c, 10, 81, 127
2, 526305, Note_on_c, 4, 52, 127
2, 526425, Note_off_c, 10, 81, 127
2, 526435, Note_on_c, 8, 80, 127
2, 526483, Note_off_c, 4, 52, 127
2, 526485, Note_on_c, 3, 51, 127
2, 526505, Note_on_c, 10, 81, 127
2, 526514, Note_off_c, 8, 80, 127
2, 526575, Note_on_c, 8, 80, 127
2, 526581, Note_off_c, 10, 81, 127
2, 526663, Note_off_c, 8, 80, 127
2, 526663, Note_off_c, 3, 51, 127
2, 526665, Note_on_c, 6, 78, 127
2, 526665, Note_on_c, 6, 54, 127
2, 526843, Note_off_c, 6, 54, 127
2, 526843, Note_off_c, 6, 78, 127
2, 526845, Note_on_c, 8, 80, 127
2, 526845, Note_on_c, 4, 52, 127
2, 527023, Note_off_c, 4, 52, 127
2, 527023, Note_off_c, 8, 80, 127
2, 527025, Note_on_c, 4, 76, 127
2, 527025, Note_on_c, 8, 56, 127
2, 527203, Note_off_c, 8, 56, 127
2, 527205, Note_on_c, 6, 54, 127
2, 527383, Note_off_c, 6, 54, 127
2, 527383, Note_off_c, 4, 76, 127
2, 527385, Note_on_c, 4, 64, 127
2, 527385, Note_on_c, 10, 57, 127
2, 527743, Note_off_c, 10, 57, 127
2, 527743, Note_off_c, 4, 64, 127
2, 527745, Note_on_c, 12, 71, 127
2, 527745, Note_on_c, 10, 57, 127
2, 527821, Note_on_c, 8, 56, 127
2, 527834, Note_off_c, 10, 57, 127
2, 527897, Note_on_c, 10, 57, 127
2, 527910, Note_off_c, 8, 56, 127
2, 527924, Note_off_c, 12, 71, 127
2, 527926, Note_on_c, 10, 69, 127
2, 527973, Note_on_c, 8, 56, 127
2, 527986, Note_off_c, 10, 57, 127
2, 528105, Note_off_c, 10, 69, 127
2, 528107, Note_on_c, 1, 73, 127
2, 528285, Note_off_c, 1, 73, 127
2, 528287, Note_on_c, 12, 71, 127
2, 528424, Note_off_c, 8, 56, 127
2, 528465, Note_off_c, 12, 71, 127
2, 528467, Note_on_c, 2, 74, 127
2, 528645, Note_off_c, 2, 74, 127
2, 528647, Note_on_c, 1, 73, 127
2, 528825, Note_off_c, 1, 73, 127
2, 528827, Note_on_c, 4, 76, 127
2, 528827, Note_on_c, 4, 52, 127
2, 529185, Note_off_c, 4, 52, 127
2, 529185, Note_off_c, 4, 76, 127
2, 529187, Note_on_c, 2, 74, 127
2, 529187, Note_on_c, 10, 57, 127
2, 529257, Note_on_c, 1, 73, 127
2, 529265, Note_off_c, 2, 74, 127
2, 529327, Note_on_c, 2, 74, 127
2, 529336, Note_off_c, 1, 73, 127
2, 529365, Note_off_c, 10, 57, 127
2, 529367, Note_on_c, 8, 56, 127
2, 529397, Note_on_c, 1, 73, 127
2, 529404, Note_off_c, 2, 74, 127
2, 529545, Note_off_c, 8, 56, 127
2, 529547, Note_on_c, 12, 71, 127
2, 529547, Note_on_c, 12, 59, 127
2, 529558, Note_off_c, 1, 73, 127
2, 529725, Note_off_c, 12, 59, 127
2, 529725, Note_off_c, 12, 71, 127
2, 529727, Note_on_c, 1, 73, 127
2, 529727, Note_on_c, 10, 57, 127
2, 529905, Note_off_c, 10, 57, 127
2, 529905, Note_off_c, 1, 73, 127
2, 529907, Note_on_c, 10, 69, 127
2, 529907, Note_on_c, 1, 61, 127
2, 530085, Note_off_c, 1, 61, 127
2, 530085, Note_off_c, 10, 69, 127
2, 530087, Note_on_c, 12, 71, 127
2, 530087, Note_on_c, 12, 59, 127
2, 530265, Note_off_c, 12, 59, 127
2, 530265, Note_off_c, 12, 71, 127
2, 530267, Note_on_c, 1, 73, 127
2, 530267, Note_on_c, 4, 64, 127
2, 530445, Note_off_c, 1, 73, 127
2, 530447, Note_on_c, 2, 74, 127
2, 530625, Note_off_c, 2, 74, 127
2, 530625, Note_off_c, 4, 64, 127
2, 530627, Note_on_c, 4, 76, 127
2, 530627, Note_on_c, 2, 62, 127
2, 530698, Note_on_c, 1, 61, 127
2, 530715, Note_off_c, 2, 62, 127
2, 530769, Note_on_c, 2, 62, 127
2, 530786, Note_off_c, 1, 61, 127
2, 530805, Note_off_c, 4, 76, 127
2, 530807, Note_on_c, 1, 73, 127
2, 530841, Note_on_c, 1, 61, 127
2, 530858, Note_off_c, 2, 62, 127
2, 530986, Note_off_c, 1, 73, 127
2, 530988, Note_on_c, 12, 71, 127
2, 530988, Note_on_c, 2, 62, 127
2, 530991, Note_off_c, 1, 61, 127
2, 531166, Note_off_c, 12, 71, 127
2, 531168, Note_on_c, 10, 69, 127
2, 531346, Note_off_c, 10, 69, 127
2, 531346, Note_off_c, 2, 62, 127
2, 531348, Note_on_c, 4, 76, 127
2, 531348, Note_on_c, 1, 61, 127
2, 531526, Note_off_c, 4, 76, 127
2, 531528, Note_on_c, 2, 74, 127
2, 531706, Note_off_c, 2, 74, 127
2, 531706, Note_off_c, 1, 61, 127
2, 531708, Note_on_c, 6, 78, 127
2, 531708, Note_on_c, 12, 59, 127
2, 531886, Note_off_c, 6, 78, 127
2, 531888, Note_on_c, 4, 76, 127
2, 532066, Note_off_c, 4, 76, 127
2, 532066, Note_off_c, 12, 59, 127
2, 532068, Note_on_c, 7, 79, 127
2, 532068, Note_on_c, 10, 57, 127
2, 532248, Note_on_c, 1, 73, 127
2, 532424, Note_off_c, 7, 79, 127
2, 532426, Note_off_c, 1, 73, 127
2, 532426, Note_off_c, 10, 57, 127
2, 532428, Note_on_c, 12, 71, 127
2, 532428, Note_on_c, 10, 57, 127
2, 532606, Note_off_c, 12, 71, 127
2, 532608, Note_on_c, 10, 69, 127
2, 532786, Note_off_c, 10, 69, 127
2, 532786, Note_off_c, 10, 57, 127
2, 532788, Note_on_c, 2, 74, 127
2, 532788, Note_on_c, 10, 57, 127
2, 532966, Note_off_c, 2, 74, 127
2, 532968, Note_on_c, 1, 73, 127
2, 533146, Note_off_c, 1, 73, 127
2, 533146, Note_off_c, 10, 57, 127
2, 533148, Note_on_c, 4, 76, 127
2, 533148, Note_on_c, 10, 57, 127
2, 533326, Note_off_c, 4, 76, 127
2, 533328, Note_on_c, 2, 74, 127
2, 533506, Note_off_c, 2, 74, 127
2, 533506, Note_off_c, 10, 57, 127
2, 533508, Note_on_c, 6, 78, 127
2, 533508, Note_on_c, 10, 57, 127
2, 533688, Note_on_c, 1, 73, 127
2, 533864, Note_off_c, 6, 78, 127
2, 533866, Note_off_c, 1, 73, 127
2, 533866, Note_off_c, 10, 57, 127
2, 533868, Note_on_c, 12, 71, 127
2, 533868, Note_on_c, 10, 57, 127
2, 534046, Note_off_c, 12, 71, 127
2, 534048, Note_on_c, 10, 69, 127
2, 534226, Note_off_c, 10, 69, 127
2, 534226, Note_off_c, 10, 57, 127
2, 534228, Note_on_c, 4, 76, 127
2, 534228, Note_on_c, 10, 57, 127
2, 534406, Note_off_c, 4, 76, 127
2, 534408, Note_on_c, 2, 74, 127
2, 534586, Note_off_c, 2, 74, 127
2, 534586, Note_off_c, 10, 57, 127
2, 534588, Note_on_c, 6, 78, 127
2, 534588, Note_on_c, 10, 57, 127
2, 534766, Note_off_c, 6, 78, 127
2, 534768, Note_on_c, 4, 76, 127
2, 534946, Note_off_c, 4, 76, 127
2, 534946, Note_off_c, 10, 57, 127
2, 534948, Note_on_c, 7, 79, 127
2, 534948, Note_on_c, 10, 57, 127
2, 535128, Note_on_c, 1, 73, 127
2, 535304, Note_off_c, 7, 79, 127
2, 535306, Note_off_c, 1, 73, 127
2, 535306, Note_off_c, 10, 57, 127
2, 535308, Note_on_c, 12, 71, 127
2, 535308, Note_on_c, 7, 55, 127
2, 535486, Note_off_c, 12, 71, 127
2, 535488, Note_on_c, 10, 69, 127
2, 535666, Note_off_c, 10, 69, 127
2, 535666, Note_off_c, 7, 55, 127
2, 535668, Note_on_c, 2, 74, 127
2, 535668, Note_on_c, 6, 54, 127
2, 535846, Note_off_c, 2, 74, 127
2, 535848, Note_on_c, 1, 73, 127
2, 536026, Note_off_c, 1, 73, 127
2, 536026, Note_off_c, 6, 54, 127
2, 536028, Note_on_c, 4, 76, 127
2, 536028, Note_on_c, 4, 52, 127
2, 536206, Note_off_c, 4, 76, 127
2, 536208, Note_on_c, 2, 74, 127
2, 536386, Note_off_c, 2, 74, 127
2, 536386, Note_off_c, 4, 52, 127
2, 536388, Note_on_c, 6, 78, 127
2, 536388, Note_on_c, 2, 50, 127
2, 536566, Note_off_c, 6, 78, 127
2, 536568, Note_on_c, 2, 74, 127
2, 536746, Note_off_c, 2, 74, 127
2, 536746, Note_off_c, 2, 50, 127
2, 536748, Note_on_c, 1, 73, 127
2, 536748, Note_on_c, 4, 52, 127
2, 536926, Note_off_c, 1, 73, 127
2, 536928, Note_on_c, 12, 71, 127
2, 537106, Note_off_c, 12, 71, 127
2, 537106, Note_off_c, 4, 52, 127
2, 537108, Note_on_c, 6, 78, 127
2, 537108, Note_on_c, 2, 50, 127
2, 537286, Note_off_c, 6, 78, 127
2, 537288, Note_on_c, 4, 76, 127
2, 537466, Note_off_c, 4, 76, 127
2, 537466, Note_off_c, 2, 50, 127
2, 537468, Note_on_c, 8, 80, 127
2, 537468, Note_on_c, 1, 49, 127
2, 537646, Note_off_c, 8, 80, 127
2, 537648, Note_on_c, 6, 78, 127
2, 537826, Note_off_c, 6, 78, 127
2, 537826, Note_off_c, 1, 49, 127
2, 537828, Note_on_c, 10, 81, 127
2, 537828, Note_on_c, 12, 47, 127
2, 538008, Note_on_c, 3, 75, 127
2, 538186, Note_off_c, 3, 75, 127
2, 538186, Note_off_c, 12, 47, 127
2, 538188, Note_on_c, 1, 73, 127
2, 538188, Note_on_c, 12, 47, 127
2, 538228, Note_off_c, 10, 81, 127
2, 538366, Note_off_c, 1, 73, 127
2, 538368, Note_on_c, 12, 71, 127
2, 538546, Note_off_c, 12, 71, 127
2, 538546, Note_off_c, 12, 47, 127
2, 538548, Note_on_c, 4, 76, 127
2, 538548, Note_on_c, 12, 47, 127
2, 538728, Note_on_c, 3, 75, 127
2, 538738, Note_off_c, 4, 76, 127
2, 538906, Note_off_c, 3, 75, 127
2, 538906, Note_off_c, 12, 47, 127
2, 538908, Note_on_c, 6, 78, 127
2, 538908, Note_on_c, 12, 47, 127
2, 539088, Note_on_c, 4, 76, 127
2, 539098, Note_off_c, 6, 78, 127
2, 539266, Note_off_c, 4, 76, 127
2, 539266, Note_off_c, 12, 47, 127
2, 539268, Note_on_c, 8, 80, 127
2, 539268, Note_on_c, 12, 47, 127
2, 539448, Note_on_c, 3, 75, 127
2, 539626, Note_off_c, 3, 75, 127
2, 539626, Note_off_c, 12, 47, 127
2, 539628, Note_on_c, 1, 73, 127
2, 539628, Note_on_c, 12, 47, 127
2, 539668, Note_off_c, 8, 80, 127
2, 539806, Note_off_c, 1, 73, 127
2, 539808, Note_on_c, 12, 71, 127
2, 539986, Note_off_c, 12, 71, 127
2, 539986, Note_off_c, 12, 47, 127
2, 539988, Note_on_c, 6, 78, 127
2, 539988, Note_on_c, 12, 47, 127
2, 540168, Note_on_c, 4, 76, 127
2, 540188, Note_off_c, 6, 78, 127
2, 540346, Note_off_c, 4, 76, 127
2, 540346, Note_off_c, 12, 47, 127
2, 540348, Note_on_c, 8, 80, 127
2, 540348, Note_on_c, 12, 47, 127
2, 540528, Note_on_c, 6, 78, 127
2, 540548, Note_off_c, 8, 80, 127
2, 540706, Note_off_c, 6, 78, 127
2, 540706, Note_off_c, 12, 47, 127
2, 540708, Note_on_c, 10, 81, 127
2, 540708, Note_on_c, 12, 47, 127
2, 540888, Note_on_c, 3, 75, 127
2, 541066, Note_off_c, 3, 75, 127
2, 541066, Note_off_c, 12, 47, 127
2, 541068, Note_on_c, 1, 73, 127
2, 541068, Note_on_c, 10, 45, 127
2, 541108, Note_off_c, 10, 81, 127
2, 541246, Note_off_c, 1, 73, 127
2, 541248, Note_on_c, 12, 71, 127
2, 541426, Note_off_c, 12, 71, 127
2, 541426, Note_off_c, 10, 45, 127
2, 541428, Note_on_c, 4, 76, 127
2, 541428, Note_on_c, 8, 44, 127
2, 541606, Note_off_c, 4, 76, 127
2, 541608, Note_on_c, 3, 75, 127
2, 541786, Note_off_c, 3, 75, 127
2, 541786, Note_off_c, 8, 44, 127
2, 541788, Note_on_c, 6, 78, 127
2, 541788, Note_on_c, 6, 42, 127
2, 541966, Note_off_c, 6, 78, 127
2, 541968, Note_on_c, 4, 76, 127
2, 542146, Note_off_c, 4, 76, 127
2, 542146, Note_off_c, 6, 42, 127
2, 542148, Note_on_c, 8, 80, 127
2, 542148, Note_on_c, 4, 40, 127
2, 542326, Note_off_c, 8, 80, 127
2, 542328, Note_on_c, 6, 78, 127
2, 542506, Note_off_c, 6, 78, 127
2, 542506, Note_off_c, 4, 40, 127
2, 542508, Note_on_c, 4, 76, 127
2, 542508, Note_on_c, 4, 40, 127
2, 542686, Note_off_c, 4, 76, 127
2, 542688, Note_on_c, 6, 78, 127
2, 542866, Note_off_c, 6, 78, 127
2, 542866, Note_off_c, 4, 40, 127
2, 542868, Note_on_c, 8, 80, 127
2, 542868, Note_on_c, 4, 40, 127
2, 543046, Note_off_c, 8, 80, 127
2, 543048, Note_on_c, 6, 78, 127
2, 543226, Note_off_c, 6, 78, 127
2, 543226, Note_off_c, 4, 40, 127
2, 543228, Note_on_c, 10, 81, 127
2, 543228, Note_on_c, 4, 40, 127
2, 543406, Note_off_c, 10, 81, 127
2, 543408, Note_on_c, 8, 80, 127
2, 543586, Note_off_c, 8, 80, 127
2, 543586, Note_off_c, 4, 40, 127
2, 543588, Note_on_c, 12, 83, 127
2, 543588, Note_on_c, 2, 38, 127
2, 543766, Note_off_c, 12, 83, 127
2, 543768, Note_on_c, 10, 81, 127
2, 543946, Note_off_c, 10, 81, 127
2, 543946, Note_off_c, 2, 38, 127
2, 543948, Note_on_c, 8, 80, 127
2, 543948, Note_on_c, 2, 38, 127
2, 544126, Note_off_c, 8, 80, 127
2, 544128, Note_on_c, 6, 78, 127
2, 544306, Note_off_c, 6, 78, 127
2, 544306, Note_off_c, 2, 38, 127
2, 544308, Note_on_c, 10, 81, 127
2, 544308, Note_on_c, 2, 38, 127
2, 544486, Note_off_c, 10, 81, 127
2, 544488, Note_on_c, 8, 80, 127
2, 544666, Note_off_c, 8, 80, 127
2, 544666, Note_off_c, 2, 38, 127
2, 544668, Note_on_c, 6, 78, 127
2, 544668, Note_on_c, 2, 50, 127
2, 544846, Note_off_c, 6, 78, 127
2, 544848, Note_on_c, 4, 76, 127
2, 545026, Note_off_c, 4, 76, 127
2, 545026, Note_off_c, 2, 50, 127
2, 545028, Note_on_c, 10, 81, 127
2, 545028, Note_on_c, 1, 49, 127
2, 545386, Note_off_c, 1, 49, 127
2, 545388, Note_on_c, 4, 52, 127
2, 545476, Note_off_c, 4, 52, 127
2, 545478, Note_on_c, 2, 50, 127
2, 545566, Note_off_c, 2, 50, 127
2, 545566, Note_off_c, 10, 81, 127
2, 545568, Note_on_c, 12, 83, 127
2, 545568, Note_on_c, 1, 49, 127
2, 545656, Note_off_c, 1, 49, 127
2, 545658, Note_on_c, 2, 50, 127
2, 545746, Note_off_c, 2, 50, 127
2, 545746, Note_off_c, 12, 83, 127
2, 545748, Note_on_c, 10, 81, 127
2, 545748, Note_on_c, 4, 52, 127
2, 545813, Note_on_c, 8, 80, 127
2, 545836, Note_off_c, 10, 81, 127
2, 545888, Note_on_c, 10, 81, 127
2, 545901, Note_off_c, 8, 80, 127
2, 545963, Note_on_c, 8, 80, 127
2, 545976, Note_off_c, 10, 81, 127
2, 546038, Note_on_c, 10, 81, 127
2, 546051, Note_off_c, 8, 80, 127
2, 546106, Note_off_c, 4, 52, 127
2, 546108, Note_on_c, 4, 40, 127
2, 546113, Note_on_c, 8, 80, 127
2, 546126, Note_off_c, 10, 81, 127
2, 546188, Note_on_c, 10, 81, 127
2, 546201, Note_off_c, 8, 80, 127
2, 546268, Note_on_c, 8, 80, 127
2, 546276, Note_off_c, 10, 81, 127
2, 546328, Note_on_c, 6, 78, 127
2, 546356, Note_off_c, 8, 80, 127
2, 546398, Note_on_c, 8, 80, 127
2, 546416, Note_off_c, 6, 78, 127
2, 546466, Note_off_c, 4, 40, 127
2, 546468, Note_on_c, 10, 81, 127
2, 546468, Note_on_c, 10, 45, 127
2, 546486, Note_off_c, 8, 80, 127
2, 546646, Note_off_c, 10, 45, 127
2, 546648, Note_on_c, 4, 52, 127
2, 546826, Note_off_c, 4, 52, 127
2, 546828, Note_on_c, 6, 54, 127
2, 547006, Note_off_c, 6, 54, 127
2, 547008, Note_on_c, 8, 56, 127
2, 547186, Note_off_c, 8, 56, 127
2, 547187, Note_off_c, 10, 81, 127
2, 547188, Note_on_c, 10, 57, 127
2, 547366, Note_off_c, 10, 57, 127
2, 547368, Note_on_c, 12, 59, 127
2, 547546, Note_off_c, 12, 59, 127
2, 547548, Note_on_c, 4, 76, 127
2, 547548, Note_on_c, 1, 61, 127
2, 547906, Note_off_c, 1, 61, 127
2, 547906, Note_off_c, 4, 76, 127
2, 547908, Note_on_c, 4, 76, 127
2, 547908, Note_on_c, 6, 42, 127
2, 548086, Note_off_c, 4, 76, 127
2, 548088, Note_on_c, 1, 73, 127
2, 548266, Note_off_c, 1, 73, 127
2, 548268, Note_on_c, 12, 71, 127
2, 548446, Note_off_c, 12, 71, 127
2, 548448, Note_on_c, 10, 69, 127
2, 548620, Note_off_c, 6, 42, 127
2, 548626, Note_off_c, 10, 69, 127
2, 548628, Note_on_c, 1, 73, 127
2, 548806, Note_off_c, 1, 73, 127
2, 548808, Note_on_c, 12, 71, 127
2, 548986, Note_off_c, 12, 71, 127
2, 548988, Note_on_c, 2, 74, 127
2, 548988, Note_on_c, 12, 59, 127
2, 549166, Note_off_c, 2, 74, 127
2, 549168, Note_on_c, 1, 73, 127
2, 549346, Note_off_c, 1, 73, 127
2, 549346, Note_off_c, 12, 59, 127
2, 549348, Note_on_c, 2, 74, 127
2, 549348, Note_on_c, 4, 40, 127
2, 549526, Note_off_c, 2, 74, 127
2, 549528, Note_on_c, 12, 71, 127
2, 549706, Note_off_c, 12, 71, 127
2, 549708, Note_on_c, 10, 69, 127
2, 549886, Note_off_c, 10, 69, 127
2, 549888, Note_on_c, 8, 68, 127
2, 550060, Note_off_c, 4, 40, 127
2, 550066, Note_off_c, 8, 68, 127
2, 550068, Note_on_c, 12, 71, 127
2, 550246, Note_off_c, 12, 71, 127
2, 550248, Note_on_c, 10, 69, 127
2, 550426, Note_off_c, 10, 69, 127
2, 550428, Note_on_c, 1, 73, 127
2, 550428, Note_on_c, 10, 57, 127
2, 550606, Note_off_c, 1, 73, 127
2, 550608, Note_on_c, 12, 71, 127
2, 550786, Note_off_c, 12, 71, 127
2, 550786, Note_off_c, 10, 57, 127
2, 550788, Note_on_c, 2, 74, 127
2, 550788, Note_on_c, 6, 54, 127
2, 550966, Note_off_c, 2, 74, 127
2, 550968, Note_on_c, 1, 73, 127
2, 551146, Note_off_c, 1, 73, 127
2, 551146, Note_off_c, 6, 54, 127
2, 551148, Note_on_c, 12, 71, 127
2, 551148, Note_on_c, 1, 49, 127
2, 551326, Note_off_c, 12, 71, 127
2, 551328, Note_on_c, 10, 69, 127
2, 551506, Note_off_c, 10, 69, 127
2, 551506, Note_off_c, 1, 49, 127
2, 551508, Note_on_c, 1, 73, 127
2, 551508, Note_on_c, 2, 50, 127
2, 551686, Note_off_c, 1, 73, 127
2, 551688, Note_on_c, 12, 71, 127
2, 551866, Note_off_c, 12, 71, 127
2, 551866, Note_off_c, 2, 50, 127
2, 551868, Note_on_c, 10, 69, 127
2, 551868, Note_on_c, 4, 52, 127
2, 552046, Note_off_c, 10, 69, 127
2, 552048, Note_on_c, 8, 68, 127
2, 552226, Note_off_c, 8, 68, 127
2, 552226, Note_off_c, 4, 52, 127
2, 552228, Note_on_c, 10, 69, 127
2, 552228, Note_on_c, 10, 45, 127
2, 552406, Note_off_c, 10, 45, 127
2, 552406, Note_off_c, 10, 69, 127
2, 552408, Note_on_c, 4, 64, 127
2, 552408, Note_on_c, 8, 44, 127
2, 552586, Note_off_c, 8, 44, 127
2, 552586, Note_off_c, 4, 64, 127
2, 552588, Note_on_c, 6, 66, 127
2, 552588, Note_on_c, 10, 45, 127
2, 552766, Note_off_c, 10, 45, 127
2, 552766, Note_off_c, 6, 66, 127
2, 552768, Note_on_c, 8, 68, 127
2, 552768, Note_on_c, 12, 47, 127
2, 552946, Note_off_c, 12, 47, 127
2, 552946, Note_off_c, 8, 68, 127
2, 552948, Note_on_c, 10, 69, 127
2, 552948, Note_on_c, 1, 49, 127
2, 553126, Note_off_c, 1, 49, 127
2, 553126, Note_off_c, 10, 69, 127
2, 553128, Note_on_c, 12, 71, 127
2, 553128, Note_on_c, 2, 50, 127
2, 553306, Note_off_c, 2, 50, 127
2, 553306, Note_off_c, 12, 71, 127
2, 553308, Note_on_c, 1, 73, 127
2, 553308, Note_on_c, 4, 52, 127
2, 553486, Note_off_c, 4, 52, 127
2, 553486, Note_off_c, 1, 73, 127
2, 553488, Note_on_c, 2, 74, 127
2, 553488, Note_on_c, 1, 49, 127
2, 553666, Note_off_c, 1, 49, 127
2, 553666, Note_off_c, 2, 74, 127
2, 553668, Note_on_c, 4, 76, 127
2, 553668, Note_on_c, 6, 54, 127
2, 553738, Note_on_c, 4, 52, 127
2, 553748, Note_off_c, 6, 54, 127
2, 553808, Note_on_c, 6, 54, 127
2, 553818, Note_off_c, 4, 52, 127
2, 553846, Note_off_c, 4, 76, 127
2, 553848, Note_on_c, 1, 73, 127
2, 554026, Note_off_c, 1, 73, 127
2, 554028, Note_on_c, 12, 71, 127
2, 554206, Note_off_c, 12, 71, 127
2, 554208, Note_on_c, 10, 69, 127
2, 554386, Note_off_c, 10, 69, 127
2, 554388, Note_on_c, 1, 73, 127
2, 554427, Note_off_c, 6, 54, 127
2, 554566, Note_off_c, 1, 73, 127
2, 554568, Note_on_c, 12, 71, 127
2, 554746, Note_off_c, 12, 71, 127
2, 554748, Note_on_c, 2, 74, 127
2, 554748, Note_on_c, 12, 47, 127
2, 554926, Note_off_c, 2, 74, 127
2, 554928, Note_on_c, 1, 73, 127
2, 555106, Note_off_c, 1, 73, 127
2, 555106, Note_off_c, 12, 47, 127
2, 555108, Note_on_c, 2, 74, 127
2, 555108, Note_on_c, 4, 52, 127
2, 555188, Note_off_c, 4, 52, 127
2, 555188, Note_on_c, 2, 50, 127
2, 555268, Note_off_c, 2, 50, 127
2, 555268, Note_on_c, 4, 52, 127
2, 555286, Note_off_c, 2, 74, 127
2, 555288, Note_on_c, 12, 71, 127
2, 555466, Note_off_c, 12, 71, 127
2, 555468, Note_on_c, 10, 69, 127
2, 555646, Note_off_c, 10, 69, 127
2, 555648, Note_on_c, 8, 68, 127
2, 555826, Note_off_c, 8, 68, 127
2, 555828, Note_on_c, 12, 71, 127
2, 555887, Note_off_c, 4, 52, 127
2, 556006, Note_off_c, 12, 71, 127
2, 556008, Note_on_c, 10, 69, 127
2, 556186, Note_off_c, 10, 69, 127
2, 556188, Note_on_c, 1, 73, 127
2, 556188, Note_on_c, 10, 45, 127
2, 556366, Note_off_c, 1, 73, 127
2, 556368, Note_on_c, 12, 71, 127
2, 556546, Note_off_c, 12, 71, 127
2, 556546, Note_off_c, 10, 45, 127
2, 556548, Note_on_c, 2, 74, 127
2, 556548, Note_on_c, 6, 42, 127
2, 556726, Note_off_c, 2, 74, 127
2, 556728, Note_on_c, 1, 73, 127
2, 556906, Note_off_c, 1, 73, 127
2, 556906, Note_off_c, 6, 42, 127
2, 556908, Note_on_c, 12, 71, 127
2, 556908, Note_on_c, 1, 37, 127
2, 557086, Note_off_c, 12, 71, 127
2, 557088, Note_on_c, 10, 69, 127
2, 557266, Note_off_c, 10, 69, 127
2, 557266, Note_off_c, 1, 37, 127
2, 557268, Note_on_c, 1, 73, 127
2, 557268, Note_on_c, 2, 38, 127
2, 557446, Note_off_c, 1, 73, 127
2, 557448, Note_on_c, 12, 71, 127
2, 557626, Note_off_c, 12, 71, 127
2, 557626, Note_off_c, 2, 38, 127
2, 557628, Note_on_c, 10, 69, 127
2, 557628, Note_on_c, 4, 40, 127
2, 557806, Note_off_c, 10, 69, 127
2, 557808, Note_on_c, 8, 68, 127
2, 557986, Note_off_c, 8, 68, 127
2, 557986, Note_off_c, 4, 40, 127
2, 557988, Note_on_c, 10, 69, 127
2, 557988, Note_on_c, 10, 33, 127
2, 558076, Note_off_c, 10, 69, 127
2, 558078, Note_on_c, 8, 68, 127
2, 558166, Note_off_c, 8, 68, 127
2, 558168, Note_on_c, 10, 69, 127
2, 558348, Note_on_c, 4, 40, 127
2, 558706, Note_off_c, 4, 40, 127
2, 558708, Note_on_c, 10, 45, 127
2, 558887, Note_off_c, 10, 69, 127
2, 559066, Note_off_c, 10, 33, 127
2, 559068, Note_on_c, 0, 60, 127
2, 559068, Note_on_c, 4, 52, 127
2, 559246, Note_off_c, 4, 52, 127
2, 559246, Note_off_c, 0, 60, 127
2, 559248, Note_on_c, 2, 62, 127
2, 559248, Note_on_c, 2, 50, 127
2, 559426, Note_off_c, 2, 50, 127
2, 559426, Note_off_c, 2, 62, 127
2, 559427, Note_off_c, 10, 45, 127
2, 559428, Note_on_c, 4, 64, 127
2, 559428, Note_on_c, 0, 48, 127
2, 559606, Note_off_c, 0, 48, 127
2, 559608, Note_on_c, 12, 47, 127
2, 559786, Note_off_c, 12, 47, 127
2, 559786, Note_off_c, 4, 64, 127
2, 559788, Note_on_c, 5, 65, 127
2, 559788, Note_on_c, 10, 45, 127
2, 559966, Note_off_c, 10, 45, 127
2, 559968, Note_on_c, 12, 47, 127
2, 560146, Note_off_c, 12, 47, 127
2, 560146, Note_off_c, 5, 65, 127
2, 560148, Note_on_c, 4, 64, 127
2, 560148, Note_on_c, 0, 48, 127
2, 560326, Note_off_c, 0, 48, 127
2, 560328, Note_on_c, 12, 47, 127
2, 560506, Note_off_c, 12, 47, 127
2, 560506, Note_off_c, 4, 64, 127
2, 560508, Note_on_c, 2, 62, 127
2, 560508, Note_on_c, 10, 45, 127
2, 560686, Note_off_c, 10, 45, 127
2, 560688, Note_on_c, 12, 47, 127
2, 560866, Note_off_c, 12, 47, 127
2, 560866, Note_off_c, 2, 62, 127
2, 560868, Note_on_c, 4, 64, 127
2, 560868, Note_on_c, 0, 48, 127
2, 560938, Note_on_c, 2, 62, 127
2, 560948, Note_off_c, 4, 64, 127
2, 561008, Note_on_c, 4, 64, 127
2, 561018, Note_off_c, 2, 62, 127
2, 561046, Note_off_c, 0, 48, 127
2, 561048, Note_on_c, 12, 47, 127
2, 561226, Note_off_c, 12, 47, 127
2, 561228, Note_on_c, 10, 57, 127
2, 561228, Note_on_c, 10, 45, 127
2, 561266, Note_off_c, 4, 64, 127
2, 561406, Note_off_c, 10, 45, 127
2, 561408, Note_on_c, 12, 47, 127
2, 561586, Note_off_c, 12, 47, 127
2, 561588, Note_on_c, 0, 48, 127
2, 561766, Note_off_c, 0, 48, 127
2, 561768, Note_on_c, 2, 50, 127
2, 561847, Note_off_c, 10, 57, 127
2, 561946, Note_off_c, 2, 50, 127
2, 561948, Note_on_c, 8, 56, 127
2, 561948, Note_on_c, 4, 52, 127
2, 562126, Note_off_c, 4, 52, 127
2, 562128, Note_on_c, 2, 50, 127
2, 562306, Note_off_c, 2, 50, 127
2, 562306, Note_off_c, 8, 56, 127
2, 562308, Note_on_c, 10, 57, 127
2, 562308, Note_on_c, 0, 48, 127
2, 562486, Note_off_c, 0, 48, 127
2, 562488, Note_on_c, 12, 47, 127
2, 562666, Note_off_c, 12, 47, 127
2, 562666, Note_off_c, 10, 57, 127
2, 562668, Note_on_c, 5, 65, 127
2, 562668, Note_on_c, 10, 45, 127
2, 562846, Note_off_c, 10, 45, 127
2, 562848, Note_on_c, 12, 47, 127
2, 563026, Note_off_c, 12, 47, 127
2, 563026, Note_off_c, 5, 65, 127
2, 563028, Note_on_c, 4, 64, 127
2, 563028, Note_on_c, 0, 48, 127
2, 563206, Note_off_c, 0, 48, 127
2, 563208, Note_on_c, 12, 47, 127
2, 563386, Note_off_c, 12, 47, 127
2, 563386, Note_off_c, 4, 64, 127
2, 563388, Note_on_c, 2, 62, 127
2, 563388, Note_on_c, 10, 45, 127
2, 563566, Note_off_c, 10, 45, 127
2, 563568, Note_on_c, 12, 47, 127
2, 563746, Note_off_c, 12, 47, 127
2, 563746, Note_off_c, 2, 62, 127
2, 563748, Note_on_c, 4, 64, 127
2, 563748, Note_on_c, 0, 48, 127
2, 563818, Note_on_c, 2, 62, 127
2, 563828, Note_off_c, 4, 64, 127
2, 563888, Note_on_c, 4, 64, 127
2, 563898, Note_off_c, 2, 62, 127
2, 563926, Note_off_c, 0, 48, 127
2, 563928, Note_on_c, 12, 47, 127
2, 564106, Note_off_c, 12, 47, 127
2, 564108, Note_on_c, 10, 57, 127
2, 564108, Note_on_c, 10, 45, 127
2, 564138, Note_off_c, 4, 64, 127
2, 564286, Note_off_c, 10, 45, 127
2, 564288, Note_on_c, 12, 47, 127
2, 564466, Note_off_c, 12, 47, 127
2, 564468, Note_on_c, 0, 48, 127
2, 564646, Note_off_c, 0, 48, 127
2, 564648, Note_on_c, 2, 50, 127
2, 564727, Note_off_c, 10, 57, 127
2, 564826, Note_off_c, 2, 50, 127
2, 564828, Note_on_c, 8, 56, 127
2, 564828, Note_on_c, 4, 52, 127
2, 565006, Note_off_c, 4, 52, 127
2, 565008, Note_on_c, 2, 50, 127
2, 565186, Note_off_c, 2, 50, 127
2, 565186, Note_off_c, 8, 56, 127
2, 565188, Note_on_c, 10, 57, 127
2, 565188, Note_on_c, 0, 48, 127
2, 565366, Note_off_c, 0, 48, 127
2, 565368, Note_on_c, 12, 47, 127
2, 565546, Note_off_c, 12, 47, 127
2, 565546, Note_off_c, 10, 57, 127
2, 565548, Note_on_c, 5, 65, 127
2, 565548, Note_on_c, 10, 45, 127
2, 565726, Note_off_c, 10, 45, 127
2, 565728, Note_on_c, 12, 47, 127
2, 565906, Note_off_c, 12, 47, 127
2, 565906, Note_off_c, 5, 65, 127
2, 565908, Note_on_c, 4, 64, 127
2, 565908, Note_on_c, 0, 48, 127
2, 566086, Note_off_c, 0, 48, 127
2, 566088, Note_on_c, 12, 47, 127
2, 566266, Note_off_c, 12, 47, 127
2, 566266, Note_off_c, 4, 64, 127
2, 566268, Note_on_c, 2, 62, 127
2, 566268, Note_on_c, 10, 45, 127
2, 566446, Note_off_c, 10, 45, 127
2, 566448, Note_on_c, 12, 47, 127
2, 566626, Note_off_c, 12, 47, 127
2, 566626, Note_off_c, 2, 62, 127
2, 566628, Note_on_c, 10, 69, 127
2, 566628, Note_on_c, 0, 48, 127
2, 566806, Note_off_c, 0, 48, 127
2, 566808, Note_on_c, 12, 47, 127
2, 566986, Note_off_c, 12, 47, 127
2, 566986, Note_off_c, 10, 69, 127
2, 566988, Note_on_c, 7, 67, 127
2, 566988, Note_on_c, 10, 45, 127
2, 567166, Note_off_c, 10, 45, 127
2, 567166, Note_off_c, 7, 67, 127
2, 567168, Note_on_c, 5, 65, 127
2, 567168, Note_on_c, 12, 47, 127
2, 567346, Note_off_c, 12, 47, 127
2, 567346, Note_off_c, 5, 65, 127
2, 567348, Note_on_c, 4, 64, 127
2, 567348, Note_on_c, 0, 48, 127
2, 567526, Note_off_c, 0, 48, 127
2, 567528, Note_on_c, 2, 50, 127
2, 567706, Note_off_c, 2, 50, 127
2, 567706, Note_off_c, 4, 64, 127
2, 567708, Note_on_c, 2, 62, 127
2, 567708, Note_on_c, 4, 52, 127
2, 567886, Note_off_c, 4, 52, 127
2, 567888, Note_on_c, 5, 53, 127
2, 568066, Note_off_c, 5, 53, 127
2, 568066, Note_off_c, 2, 62, 127
2, 568068, Note_on_c, 2, 62, 127
2, 568068, Note_on_c, 4, 52, 127
2, 568212, Note_on_c, 0, 60, 127
2, 568216, Note_off_c, 2, 62, 127
2, 568246, Note_off_c, 4, 52, 127
2, 568248, Note_on_c, 2, 50, 127
2, 568282, Note_off_c, 0, 60, 127
2, 568284, Note_on_c, 2, 62, 127
2, 568354, Note_off_c, 2, 62, 127
2, 568356, Note_on_c, 0, 60, 127
2, 568426, Note_off_c, 0, 60, 127
2, 568426, Note_off_c, 2, 50, 127
2, 568428, Note_on_c, 12, 59, 127
2, 568428, Note_on_c, 0, 48, 127
2, 568606, Note_off_c, 0, 48, 127
2, 568606, Note_off_c, 12, 59, 127
2, 568608, Note_on_c, 0, 60, 127
2, 568608, Note_on_c, 12, 47, 127
2, 568786, Note_off_c, 12, 47, 127
2, 568786, Note_off_c, 0, 60, 127
2, 568788, Note_on_c, 2, 62, 127
2, 568788, Note_on_c, 10, 45, 127
2, 568966, Note_off_c, 10, 45, 127
2, 568966, Note_off_c, 2, 62, 127
2, 568968, Note_on_c, 12, 59, 127
2, 568968, Note_on_c, 8, 44, 127
2, 569146, Note_off_c, 8, 44, 127
2, 569146, Note_off_c, 12, 59, 127
2, 569148, Note_on_c, 0, 60, 127
2, 569148, Note_on_c, 10, 45, 127
2, 569326, Note_off_c, 0, 60, 127
2, 569328, Note_on_c, 10, 57, 127
2, 569506, Note_off_c, 10, 57, 127
2, 569506, Note_off_c, 10, 45, 127
2, 569508, Note_on_c, 12, 59, 127
2, 569508, Note_on_c, 4, 40, 127
2, 569686, Note_off_c, 12, 59, 127
2, 569688, Note_on_c, 10, 57, 127
2, 569866, Note_off_c, 10, 57, 127
2, 569868, Note_on_c, 8, 56, 127
2, 570046, Note_off_c, 8, 56, 127
2, 570048, Note_on_c, 10, 57, 127
2, 570226, Note_off_c, 10, 57, 127
2, 570227, Note_off_c, 4, 40, 127
2, 570228, Note_on_c, 12, 59, 127
2, 570406, Note_off_c, 12, 59, 127
2, 570408, Note_on_c, 0, 60, 127
2, 570586, Note_off_c, 0, 60, 127
2, 570588, Note_on_c, 2, 62, 127
2, 570588, Note_on_c, 4, 52, 127
2, 570766, Note_off_c, 4, 52, 127
2, 570766, Note_off_c, 2, 62, 127
2, 570768, Note_on_c, 12, 59, 127
2, 570768, Note_on_c, 5, 53, 127
2, 570946, Note_off_c, 5, 53, 127
2, 570946, Note_off_c, 12, 59, 127
2, 570948, Note_on_c, 0, 60, 127
2, 570948, Note_on_c, 4, 52, 127
2, 571126, Note_off_c, 0, 60, 127
2, 571128, Note_on_c, 2, 62, 127
2, 571306, Note_off_c, 2, 62, 127
2, 571306, Note_off_c, 4, 52, 127
2, 571308, Note_on_c, 4, 64, 127
2, 571308, Note_on_c, 2, 50, 127
2, 571486, Note_off_c, 4, 64, 127
2, 571488, Note_on_c, 5, 65, 127
2, 571666, Note_off_c, 5, 65, 127
2, 571666, Note_off_c, 2, 50, 127
2, 571668, Note_on_c, 4, 64, 127
2, 571668, Note_on_c, 0, 48, 127
2, 571846, Note_off_c, 4, 64, 127
2, 571848, Note_on_c, 2, 62, 127
2, 572026, Note_off_c, 2, 62, 127
2, 572026, Note_off_c, 0, 48, 127
2, 572028, Note_on_c, 0, 60, 127
2, 572028, Note_on_c, 12, 47, 127
2, 572206, Note_off_c, 0, 60, 127
2, 572208, Note_on_c, 2, 62, 127
2, 572386, Note_off_c, 2, 62, 127
2, 572386, Note_off_c, 12, 47, 127
2, 572388, Note_on_c, 4, 64, 127
2, 572388, Note_on_c, 0, 48, 127
2, 572566, Note_off_c, 4, 64, 127
2, 572568, Note_on_c, 2, 62, 127
2, 572678, Note_off_c, 0, 48, 127
2, 572746, Note_off_c, 2, 62, 127
2, 572748, Note_on_c, 0, 60, 127
2, 572748, Note_on_c, 10, 45, 127
2, 572926, Note_off_c, 10, 45, 127
2, 572926, Note_off_c, 0, 60, 127
2, 572928, Note_on_c, 12, 59, 127
2, 572928, Note_on_c, 12, 47, 127
2, 573106, Note_off_c, 12, 47, 127
2, 573106, Note_off_c, 12, 59, 127
2, 573108, Note_on_c, 10, 57, 127
2, 573108, Note_on_c, 0, 48, 127
2, 573286, Note_off_c, 0, 48, 127
2, 573286, Note_off_c, 10, 57, 127
2, 573288, Note_on_c, 12, 59, 127
2, 573288, Note_on_c, 2, 50, 127
2, 573466, Note_off_c, 2, 50, 127
2, 573466, Note_off_c, 12, 59, 127
2, 573468, Note_on_c, 0, 60, 127
2, 573468, Note_on_c, 4, 52, 127
2, 573646, Note_off_c, 4, 52, 127
2, 573646, Note_off_c, 0, 60, 127
2, 573648, Note_on_c, 2, 62, 127
2, 573648, Note_on_c, 5, 53, 127
2, 573826, Note_off_c, 5, 53, 127
2, 573826, Note_off_c, 2, 62, 127
2, 573828, Note_on_c, 4, 64, 127
2, 573828, Note_on_c, 7, 55, 127
2, 574006, Note_off_c, 4, 64, 127
2, 574008, Note_on_c, 5, 65, 127
2, 574186, Note_off_c, 5, 65, 127
2, 574186, Note_off_c, 7, 55, 127
2, 574188, Note_on_c, 7, 67, 127
2, 574188, Note_on_c, 5, 53, 127
2, 574366, Note_off_c, 7, 67, 127
2, 574368, Note_on_c, 10, 69, 127
2, 574546, Note_off_c, 10, 69, 127
2, 574546, Note_off_c, 5, 53, 127
2, 574548, Note_on_c, 7, 67, 127
2, 574548, Note_on_c, 4, 52, 127
2, 574726, Note_off_c, 7, 67, 127
2, 574728, Note_on_c, 5, 65, 127
2, 574906, Note_off_c, 5, 65, 127
2, 574906, Note_off_c, 4, 52, 127
2, 574908, Note_on_c, 4, 64, 127
2, 574908, Note_on_c, 2, 50, 127
2, 575086, Note_off_c, 4, 64, 127
2, 575088, Note_on_c, 5, 65, 127
2, 575266, Note_off_c, 5, 65, 127
2, 575266, Note_off_c, 2, 50, 127
2, 575268, Note_on_c, 7, 67, 127
2, 575268, Note_on_c, 4, 52, 127
2, 575446, Note_off_c, 7, 67, 127
2, 575448, Note_on_c, 5, 65, 127
2, 575578, Note_off_c, 4, 52, 127
2, 575626, Note_off_c, 5, 65, 127
2, 575628, Note_on_c, 4, 64, 127
2, 575628, Note_on_c, 0, 48, 127
2, 575806, Note_off_c, 0, 48, 127
2, 575806, Note_off_c, 4, 64, 127
2, 575808, Note_on_c, 2, 62, 127
2, 575808, Note_on_c, 2, 50, 127
2, 575986, Note_off_c, 2, 50, 127
2, 575986, Note_off_c, 2, 62, 127
2, 575988, Note_on_c, 0, 60, 127
2, 575988, Note_on_c, 4, 52, 127
2, 576166, Note_off_c, 4, 52, 127
2, 576166, Note_off_c, 0, 60, 127
2, 576168, Note_on_c, 2, 62, 127
2, 576168, Note_on_c, 6, 54, 127
2, 576346, Note_off_c, 6, 54, 127
2, 576346, Note_off_c, 2, 62, 127
2, 576348, Note_on_c, 4, 64, 127
2, 576348, Note_on_c, 7, 55, 127
2, 576526, Note_off_c, 7, 55, 127
2, 576526, Note_off_c, 4, 64, 127
2, 576528, Note_on_c, 6, 66, 127
2, 576528, Note_on_c, 10, 57, 127
2, 576706, Note_off_c, 10, 57, 127
2, 576706, Note_off_c, 6, 66, 127
2, 576708, Note_on_c, 7, 67, 127
2, 576708, Note_on_c, 12, 59, 127
2, 576886, Note_off_c, 7, 67, 127
2, 576888, Note_on_c, 10, 69, 127
2, 577066, Note_off_c, 10, 69, 127
2, 577066, Note_off_c, 12, 59, 127
2, 577068, Note_on_c, 12, 71, 127
2, 577068, Note_on_c, 10, 57, 127
2, 577246, Note_off_c, 12, 71, 127
2, 577248, Note_on_c, 0, 72, 127
2, 577426, Note_off_c, 0, 72, 127
2, 577426, Note_off_c, 10, 57, 127
2, 577428, Note_on_c, 12, 71, 127
2, 577428, Note_on_c, 7, 55, 127
2, 577606, Note_off_c, 12, 71, 127
2, 577608, Note_on_c, 10, 69, 127
2, 577786, Note_off_c, 10, 69, 127
2, 577786, Note_off_c, 7, 55, 127
2, 577788, Note_on_c, 7, 67, 127
2, 577788, Note_on_c, 6, 54, 127
2, 577966, Note_off_c, 7, 67, 127
2, 577968, Note_on_c, 10, 69, 127
2, 578146, Note_off_c, 10, 69, 127
2, 578146, Note_off_c, 6, 54, 127
2, 578148, Note_on_c, 12, 71, 127
2, 578148, Note_on_c, 7, 55, 127
2, 578326, Note_off_c, 12, 71, 127
2, 578328, Note_on_c, 10, 69, 127
2, 578473, Note_off_c, 7, 55, 127
2, 578506, Note_off_c, 10, 69, 127
2, 578508, Note_on_c, 7, 67, 127
2, 578508, Note_on_c, 4, 52, 127
2, 578686, Note_off_c, 7, 67, 127
2, 578688, Note_on_c, 6, 66, 127
2, 578866, Note_off_c, 6, 66, 127
2, 578866, Note_off_c, 4, 52, 127
2, 578868, Note_on_c, 4, 64, 127
2, 578868, Note_on_c, 0, 60, 127
2, 579046, Note_off_c, 4, 64, 127
2, 579048, Note_on_c, 3, 63, 127
2, 579226, Note_off_c, 3, 63, 127
2, 579226, Note_off_c, 0, 60, 127
2, 579228, Note_on_c, 4, 64, 127
2, 579228, Note_on_c, 10, 57, 127
2, 579406, Note_off_c, 4, 64, 127
2, 579408, Note_on_c, 6, 66, 127
2, 579586, Note_off_c, 6, 66, 127
2, 579588, Note_on_c, 12, 59, 127
2, 579766, Note_off_c, 10, 57, 127
2, 579768, Note_on_c, 7, 55, 127
2, 579946, Note_off_c, 7, 55, 127
2, 579946, Note_off_c, 12, 59, 127
2, 579948, Note_on_c, 7, 67, 127
2, 579948, Note_on_c, 6, 54, 127
2, 580126, Note_off_c, 6, 54, 127
2, 580128, Note_on_c, 4, 52, 127
2, 580306, Note_off_c, 4, 52, 127
2, 580308, Note_on_c, 12, 59, 127
2, 580486, Note_off_c, 7, 67, 127
2, 580488, Note_on_c, 6, 66, 127
2, 580666, Note_off_c, 6, 66, 127
2, 580666, Note_off_c, 12, 59, 127
2, 580668, Note_on_c, 4, 64, 127
2, 580668, Note_on_c, 12, 47, 127
2, 580846, Note_off_c, 4, 64, 127
2, 580848, Note_on_c, 3, 63, 127
2, 581026, Note_off_c, 3, 63, 127
2, 581026, Note_off_c, 12, 47, 127
2, 581028, Note_on_c, 4, 64, 127
2, 581028, Note_on_c, 4, 52, 127
2, 581386, Note_off_c, 4, 52, 127
2, 581388, Note_on_c, 12, 47, 127
2, 581746, Note_off_c, 12, 47, 127
2, 581748, Note_on_c, 4, 40, 127
2, 582106, Note_off_c, 4, 40, 127
2, 582106, Note_off_c, 4, 64, 127
2, 582108, Note_on_c, 4, 64, 127
2, 582108, Note_on_c, 4, 52, 127
2, 582286, Note_off_c, 4, 52, 127
2, 582286, Note_off_c, 4, 64, 127
2, 582288, Note_on_c, 2, 62, 127
2, 582288, Note_on_c, 5, 53, 127
2, 582466, Note_off_c, 5, 53, 127
2, 582466, Note_off_c, 2, 62, 127
2, 582468, Note_on_c, 1, 61, 127
2, 582468, Note_on_c, 7, 55, 127
2, 582646, Note_off_c, 7, 55, 127
2, 582648, Note_on_c, 5, 53, 127
2, 582826, Note_off_c, 5, 53, 127
2, 582826, Note_off_c, 1, 61, 127
2, 582828, Note_on_c, 12, 59, 127
2, 582828, Note_on_c, 4, 52, 127
2, 583006, Note_off_c, 4, 52, 127
2, 583008, Note_on_c, 5, 53, 127
2, 583186, Note_off_c, 5, 53, 127
2, 583186, Note_off_c, 12, 59, 127
2, 583188, Note_on_c, 1, 61, 127
2, 583188, Note_on_c, 7, 55, 127
2, 583366, Note_off_c, 7, 55, 127
2, 583368, Note_on_c, 5, 53, 127
2, 583546, Note_off_c, 5, 53, 127
2, 583546, Note_off_c, 1, 61, 127
2, 583548, Note_on_c, 2, 62, 127
2, 583548, Note_on_c, 4, 52, 127
2, 583726, Note_off_c, 4, 52, 127
2, 583728, Note_on_c, 5, 53, 127
2, 583906, Note_off_c, 5, 53, 127
2, 583906, Note_off_c, 2, 62, 127
2, 583908, Note_on_c, 4, 64, 127
2, 583908, Note_on_c, 7, 55, 127
2, 584086, Note_off_c, 7, 55, 127
2, 584086, Note_off_c, 4, 64, 127
2, 584088, Note_on_c, 7, 67, 127
2, 584088, Note_on_c, 5, 53, 127
2, 584266, Note_off_c, 5, 53, 127
2, 584266, Note_off_c, 7, 67, 127
2, 584268, Note_on_c, 11, 70, 127
2, 584268, Note_on_c, 4, 52, 127
2, 584446, Note_off_c, 4, 52, 127
2, 584448, Note_on_c, 5, 53, 127
2, 584626, Note_off_c, 5, 53, 127
2, 584628, Note_on_c, 7, 55, 127
2, 584986, Note_off_c, 7, 55, 127
2, 584986, Note_off_c, 11, 70, 127
2, 584988, Note_on_c, 10, 69, 127
2, 584988, Note_on_c, 1, 49, 127
2, 585166, Note_off_c, 10, 69, 127
2, 585168, Note_on_c, 7, 67, 127
2, 585346, Note_off_c, 7, 67, 127
2, 585346, Note_off_c, 1, 49, 127
2, 585348, Note_on_c, 5, 65, 127
2, 585348, Note_on_c, 2, 50, 127
2, 585526, Note_off_c, 5, 65, 127
2, 585528, Note_on_c, 4, 64, 127
2, 585706, Note_off_c, 4, 64, 127
2, 585706, Note_off_c, 2, 50, 127
2, 585708, Note_on_c, 5, 65, 127
2, 585708, Note_on_c, 11, 46, 127
2, 585886, Note_off_c, 5, 65, 127
2, 585888, Note_on_c, 2, 74, 127
2, 586066, Note_off_c, 2, 74, 127
2, 586066, Note_off_c, 11, 46, 127
2, 586068, Note_on_c, 1, 73, 127
2, 586068, Note_on_c, 7, 43, 127
2, 586246, Note_off_c, 1, 73, 127
2, 586248, Note_on_c, 12, 71, 127
2, 586426, Note_off_c, 12, 71, 127
2, 586426, Note_off_c, 7, 43, 127
2, 586428, Note_on_c, 10, 69, 127
2, 586428, Note_on_c, 10, 45, 127
2, 586606, Note_off_c, 10, 69, 127
2, 586608, Note_on_c, 7, 67, 127
2, 586786, Note_off_c, 7, 67, 127
2, 586786, Note_off_c, 10, 45, 127
2, 586788, Note_on_c, 5, 65, 127
2, 586788, Note_on_c, 2, 38, 127
2, 586966, Note_off_c, 5, 65, 127
2, 586968, Note_on_c, 7, 67, 127
2, 587146, Note_off_c, 7, 67, 127
2, 587148, Note_on_c, 10, 69, 127
2, 587326, Note_off_c, 10, 69, 127
2, 587328, Note_on_c, 7, 67, 127
2, 587506, Note_off_c, 7, 67, 127
2, 587507, Note_off_c, 2, 38, 127
2, 587508, Note_on_c, 5, 65, 127
2, 587686, Note_off_c, 5, 65, 127
2, 587688, Note_on_c, 4, 64, 127
2, 587866, Note_off_c, 4, 64, 127
2, 587868, Note_on_c, 2, 62, 127
2, 587868, Note_on_c, 2, 50, 127
2, 588046, Note_off_c, 2, 50, 127
2, 588046, Note_off_c, 2, 62, 127
2, 588048, Note_on_c, 0, 60, 127
2, 588048, Note_on_c, 4, 52, 127
2, 588226, Note_off_c, 4, 52, 127
2, 588226, Note_off_c, 0, 60, 127
2, 588228, Note_on_c, 12, 59, 127
2, 588228, Note_on_c, 5, 53, 127
2, 588406, Note_off_c, 5, 53, 127
2, 588408, Note_on_c, 4, 52, 127
2, 588586, Note_off_c, 4, 52, 127
2, 588586, Note_off_c, 12, 59, 127
2, 588588, Note_on_c, 12, 59, 127
2, 588588, Note_on_c, 2, 50, 127
2, 588766, Note_off_c, 2, 50, 127
2, 588766, Note_off_c, 12, 59, 127
2, 588768, Note_on_c, 10, 57, 127
2, 588768, Note_on_c, 4, 52, 127
2, 588946, Note_off_c, 4, 52, 127
2, 588946, Note_off_c, 10, 57, 127
2, 588948, Note_on_c, 12, 59, 127
2, 588948, Note_on_c, 5, 53, 127
2, 589126, Note_off_c, 5, 53, 127
2, 589128, Note_on_c, 4, 52, 127
2, 589306, Note_off_c, 4, 52, 127
2, 589306, Note_off_c, 12, 59, 127
2, 589308, Note_on_c, 12, 59, 127
2, 589308, Note_on_c, 2, 50, 127
2, 589486, Note_off_c, 2, 50, 127
2, 589486, Note_off_c, 12, 59, 127
2, 589488, Note_on_c, 0, 60, 127
2, 589488, Note_on_c, 4, 52, 127
2, 589666, Note_off_c, 4, 52, 127
2, 589666, Note_off_c, 0, 60, 127
2, 589668, Note_on_c, 2, 62, 127
2, 589668, Note_on_c, 5, 53, 127
2, 589846, Note_off_c, 5, 53, 127
2, 589846, Note_off_c, 2, 62, 127
2, 589848, Note_on_c, 5, 65, 127
2, 589848, Note_on_c, 4, 52, 127
2, 590026, Note_off_c, 4, 52, 127
2, 590026, Note_off_c, 5, 65, 127
2, 590028, Note_on_c, 10, 69, 127
2, 590028, Note_on_c, 2, 50, 127
2, 590206, Note_off_c, 2, 50, 127
2, 590208, Note_on_c, 4, 52, 127
2, 590386, Note_off_c, 4, 52, 127
2, 590388, Note_on_c, 5, 53, 127
2, 590566, Note_off_c, 5, 53, 127
2, 590568, Note_on_c, 7, 55, 127
2, 590746, Note_off_c, 7, 55, 127
2, 590746, Note_off_c, 10, 69, 127
2, 590748, Note_on_c, 7, 67, 127
2, 590748, Note_on_c, 10, 57, 127
2, 590926, Note_off_c, 10, 57, 127
2, 590926, Note_off_c, 7, 67, 127
2, 590928, Note_on_c, 5, 65, 127
2, 590928, Note_on_c, 12, 59, 127
2, 591106, Note_off_c, 12, 59, 127
2, 591106, Note_off_c, 5, 65, 127
2, 591108, Note_on_c, 4, 64, 127
2, 591108, Note_on_c, 0, 60, 127
2, 591286, Note_off_c, 4, 64, 127
2, 591288, Note_on_c, 2, 62, 127
2, 591466, Note_off_c, 2, 62, 127
2, 591466, Note_off_c, 0, 60, 127
2, 591468, Note_on_c, 4, 64, 127
2, 591468, Note_on_c, 10, 57, 127
2, 591646, Note_off_c, 4, 64, 127
2, 591648, Note_on_c, 0, 72, 127
2, 591826, Note_off_c, 0, 72, 127
2, 591826, Note_off_c, 10, 57, 127
2, 591828, Note_on_c, 12, 71, 127
2, 591828, Note_on_c, 5, 53, 127
2, 592006, Note_off_c, 12, 71, 127
2, 592008, Note_on_c, 10, 69, 127
2, 592186, Note_off_c, 10, 69, 127
2, 592186, Note_off_c, 5, 53, 127
2, 592188, Note_on_c, 7, 67, 127
2, 592188, Note_on_c, 7, 55, 127
2, 592366, Note_off_c, 7, 67, 127
2, 592368, Note_on_c, 5, 65, 127
2, 592546, Note_off_c, 5, 65, 127
2, 592546, Note_off_c, 7, 55, 127
2, 592548, Note_on_c, 4, 64, 127
2, 592548, Note_on_c, 0, 48, 127
2, 592726, Note_off_c, 4, 64, 127
2, 592728, Note_on_c, 5, 65, 127
2, 592906, Note_off_c, 5, 65, 127
2, 592908, Note_on_c, 7, 67, 127
2, 593086, Note_off_c, 7, 67, 127
2, 593088, Note_on_c, 5, 65, 127
2, 593167, Note_off_c, 0, 48, 127
2, 593266, Note_off_c, 5, 65, 127
2, 593268, Note_on_c, 4, 64, 127
2, 593446, Note_off_c, 4, 64, 127
2, 593448, Note_on_c, 2, 62, 127
2, 593448, Note_on_c, 5, 53, 127
2, 593626, Note_off_c, 5, 53, 127
2, 593626, Note_off_c, 2, 62, 127
2, 593628, Note_on_c, 0, 60, 127
2, 593628, Note_on_c, 4, 52, 127
2, 593806, Note_off_c, 4, 52, 127
2, 593806, Note_off_c, 0, 60, 127
2, 593808, Note_on_c, 12, 59, 127
2, 593808, Note_on_c, 2, 50, 127
2, 593986, Note_off_c, 2, 50, 127
2, 593986, Note_off_c, 12, 59, 127
2, 593988, Note_on_c, 10, 57, 127
2, 593988, Note_on_c, 0, 48, 127
2, 594166, Note_off_c, 0, 48, 127
2, 594166, Note_off_c, 10, 57, 127
2, 594168, Note_on_c, 7, 67, 127
2, 594168, Note_on_c, 12, 47, 127
2, 594346, Note_off_c, 12, 47, 127
2, 594346, Note_off_c, 7, 67, 127
2, 594348, Note_on_c, 5, 65, 127
2, 594348, Note_on_c, 0, 48, 127
2, 594526, Note_off_c, 5, 65, 127
2, 594528, Note_on_c, 4, 64, 127
2, 594706, Note_off_c, 4, 64, 127
2, 594708, Note_on_c, 5, 65, 127
2, 594854, Note_off_c, 0, 48, 127
2, 594888, Note_on_c, 4, 52, 127
2, 595066, Note_off_c, 4, 52, 127
2, 595066, Note_off_c, 5, 65, 127
2, 595068, Note_on_c, 10, 57, 127
2, 595068, Note_on_c, 2, 50, 127
2, 595246, Note_off_c, 2, 50, 127
2, 595248, Note_on_c, 0, 48, 127
2, 595426, Note_off_c, 0, 48, 127
2, 595426, Note_off_c, 10, 57, 127
2, 595428, Note_on_c, 8, 56, 127
2, 595428, Note_on_c, 12, 47, 127
2, 595606, Note_off_c, 12, 47, 127
2, 595606, Note_off_c, 8, 56, 127
2, 595608, Note_on_c, 6, 54, 127
2, 595608, Note_on_c, 10, 45, 127
2, 595786, Note_off_c, 10, 45, 127
2, 595786, Note_off_c, 6, 54, 127
2, 595788, Note_on_c, 8, 56, 127
2, 595788, Note_on_c, 12, 47, 127
2, 595966, Note_off_c, 8, 56, 127
2, 595968, Note_on_c, 5, 65, 127
2, 596146, Note_off_c, 5, 65, 127
2, 596148, Note_on_c, 4, 64, 127
2, 596294, Note_off_c, 12, 47, 127
2, 596328, Note_on_c, 2, 50, 127
2, 596506, Note_off_c, 2, 50, 127
2, 596506, Note_off_c, 4, 64, 127
2, 596508, Note_on_c, 7, 55, 127
2, 596508, Note_on_c, 0, 48, 127
2, 596686, Note_off_c, 0, 48, 127
2, 596688, Note_on_c, 12, 47, 127
2, 596866, Note_off_c, 12, 47, 127
2, 596866, Note_off_c, 7, 55, 127
2, 596868, Note_on_c, 6, 54, 127
2, 596868, Note_on_c, 10, 45, 127
2, 597046, Note_off_c, 10, 45, 127
2, 597046, Note_off_c, 6, 54, 127
2, 597048, Note_on_c, 4, 52, 127
2, 597048, Note_on_c, 8, 44, 127
2, 597226, Note_off_c, 8, 44, 127
2, 597226, Note_off_c, 4, 52, 127
2, 597228, Note_on_c, 5, 53, 127
2, 597228, Note_on_c, 10, 45, 127
2, 597406, Note_off_c, 5, 53, 127
2, 597408, Note_on_c, 4, 64, 127
2, 597586, Note_off_c, 4, 64, 127
2, 597588, Note_on_c, 2, 62, 127
2, 597754, Note_off_c, 10, 45, 127
2, 597766, Note_off_c, 2, 62, 127
2, 597768, Note_on_c, 0, 60, 127
2, 597768, Note_on_c, 12, 47, 127
2, 597946, Note_off_c, 12, 47, 127
2, 597946, Note_off_c, 0, 60, 127
2, 597948, Note_on_c, 12, 59, 127
2, 597948, Note_on_c, 0, 48, 127
2, 598126, Note_off_c, 0, 48, 127
2, 598126, Note_off_c, 12, 59, 127
2, 598128, Note_on_c, 10, 57, 127
2, 598128, Note_on_c, 2, 50, 127
2, 598306, Note_off_c, 2, 50, 127
2, 598306, Note_off_c, 10, 57, 127
2, 598308, Note_on_c, 10, 69, 127
2, 598308, Note_on_c, 4, 52, 127
2, 598486, Note_off_c, 4, 52, 127
2, 598486, Note_off_c, 10, 69, 127
2, 598488, Note_on_c, 8, 68, 127
2, 598488, Note_on_c, 3, 51, 127
2, 598666, Note_off_c, 3, 51, 127
2, 598666, Note_off_c, 8, 68, 127
2, 598668, Note_on_c, 6, 66, 127
2, 598668, Note_on_c, 4, 52, 127
2, 598846, Note_off_c, 6, 66, 127
2, 598848, Note_on_c, 4, 64, 127
2, 599026, Note_off_c, 4, 64, 127
2, 599028, Note_on_c, 12, 71, 127
2, 599206, Note_off_c, 4, 52, 127
2, 599208, Note_on_c, 2, 50, 127
2, 599386, Note_off_c, 2, 50, 127
2, 599386, Note_off_c, 12, 71, 127
2, 599388, Note_on_c, 4, 64, 127
2, 599388, Note_on_c, 0, 48, 127
2, 599566, Note_off_c, 0, 48, 127
2, 599566, Note_off_c, 4, 64, 127
2, 599568, Note_on_c, 2, 62, 127
2, 599568, Note_on_c, 12, 47, 127
2, 599746, Note_off_c, 12, 47, 127
2, 599746, Note_off_c, 2, 62, 127
2, 599748, Note_on_c, 4, 64, 127
2, 599748, Note_on_c, 10, 45, 127
2, 599926, Note_off_c, 10, 45, 127
2, 599928, Note_on_c, 8, 44, 127
2, 600106, Note_off_c, 8, 44, 127
2, 600106, Note_off_c, 4, 64, 127
2, 600108, Note_on_c, 2, 74, 127
2, 600108, Note_on_c, 6, 42, 127
2, 600286, Note_off_c, 6, 42, 127
2, 600288, Note_on_c, 8, 44, 127
2, 600466, Note_off_c, 8, 44, 127
2, 600466, Note_off_c, 2, 74, 127
2, 600468, Note_on_c, 0, 72, 127
2, 600468, Note_on_c, 10, 45, 127
2, 600646, Note_off_c, 10, 45, 127
2, 600648, Note_on_c, 8, 44, 127
2, 600826, Note_off_c, 8, 44, 127
2, 600826, Note_off_c, 0, 72, 127
2, 600828, Note_on_c, 12, 71, 127
2, 600828, Note_on_c, 6, 42, 127
2, 601006, Note_off_c, 6, 42, 127
2, 601008, Note_on_c, 8, 44, 127
2, 601186, Note_off_c, 8, 44, 127
2, 601186, Note_off_c, 12, 71, 127
2, 601188, Note_on_c, 0, 72, 127
2, 601188, Note_on_c, 10, 45, 127
2, 601366, Note_off_c, 10, 45, 127
2, 601368, Note_on_c, 12, 47, 127
2, 601546, Note_off_c, 12, 47, 127
2, 601546, Note_off_c, 0, 72, 127
2, 601548, Note_on_c, 4, 64, 127
2, 601548, Note_on_c, 0, 48, 127
2, 601726, Note_off_c, 0, 48, 127
2, 601728, Note_on_c, 2, 50, 127
2, 601906, Note_off_c, 2, 50, 127
2, 601908, Note_on_c, 4, 52, 127
2, 602086, Note_off_c, 4, 52, 127
2, 602088, Note_on_c, 6, 54, 127
2, 602167, Note_off_c, 4, 64, 127
2, 602266, Note_off_c, 6, 54, 127
2, 602268, Note_on_c, 2, 62, 127
2, 602268, Note_on_c, 8, 56, 127
2, 602446, Note_off_c, 8, 56, 127
2, 602446, Note_off_c, 2, 62, 127
2, 602448, Note_on_c, 0, 60, 127
2, 602448, Note_on_c, 10, 57, 127
2, 602626, Note_off_c, 10, 57, 127
2, 602626, Note_off_c, 0, 60, 127
2, 602628, Note_on_c, 2, 62, 127
2, 602628, Note_on_c, 8, 56, 127
2, 602806, Note_off_c, 8, 56, 127
2, 602808, Note_on_c, 10, 57, 127
2, 602986, Note_off_c, 10, 57, 127
2, 602986, Note_off_c, 2, 62, 127
2, 602988, Note_on_c, 0, 72, 127
2, 602988, Note_on_c, 12, 59, 127
2, 603166, Note_off_c, 12, 59, 127
2, 603168, Note_on_c, 10, 57, 127
2, 603346, Note_off_c, 10, 57, 127
2, 603346, Note_off_c, 0, 72, 127
2, 603348, Note_on_c, 12, 71, 127
2, 603348, Note_on_c, 8, 56, 127
2, 603526, Note_off_c, 8, 56, 127
2, 603526, Note_off_c, 12, 71, 127
2, 603528, Note_on_c, 10, 69, 127
2, 603528, Note_on_c, 10, 57, 127
2, 603706, Note_off_c, 10, 57, 127
2, 603706, Note_off_c, 10, 69, 127
2, 603708, Note_on_c, 8, 68, 127
2, 603708, Note_on_c, 12, 59, 127
2, 603886, Note_off_c, 12, 59, 127
2, 603886, Note_off_c, 8, 68, 127
2, 603888, Note_on_c, 10, 69, 127
2, 603888, Note_on_c, 10, 57, 127
2, 604066, Note_off_c, 10, 57, 127
2, 604066, Note_off_c, 10, 69, 127
2, 604068, Note_on_c, 12, 71, 127
2, 604068, Note_on_c, 8, 56, 127
2, 604246, Note_off_c, 8, 56, 127
2, 604248, Note_on_c, 6, 54, 127
2, 604388, Note_off_c, 12, 71, 127
2, 604426, Note_off_c, 6, 54, 127
2, 604428, Note_on_c, 2, 62, 127
2, 604428, Note_on_c, 4, 52, 127
2, 604606, Note_off_c, 4, 52, 127
2, 604608, Note_on_c, 2, 50, 127
2, 604786, Note_off_c, 2, 50, 127
2, 604788, Note_on_c, 0, 48, 127
2, 604966, Note_off_c, 0, 48, 127
2, 604968, Note_on_c, 12, 47, 127
2, 605047, Note_off_c, 2, 62, 127
2, 605146, Note_off_c, 12, 47, 127
2, 605148, Note_on_c, 0, 60, 127
2, 605148, Note_on_c, 10, 45, 127
2, 605326, Note_off_c, 10, 45, 127
2, 605326, Note_off_c, 0, 60, 127
2, 605328, Note_on_c, 12, 59, 127
2, 605328, Note_on_c, 8, 44, 127
2, 605508, Note_off_c, 8, 44, 127
2, 605508, Note_off_c, 12, 59, 127
2, 605510, Note_on_c, 0, 60, 127
2, 605510, Note_on_c, 10, 45, 127
2, 605690, Note_off_c, 0, 60, 127
2, 605692, Note_on_c, 10, 69, 127
2, 605872, Note_off_c, 10, 69, 127
2, 605872, Note_off_c, 10, 45, 127
2, 605874, Note_on_c, 7, 67, 127
2, 605874, Note_on_c, 0, 48, 127
2, 606054, Note_off_c, 7, 67, 127
2, 606056, Note_on_c, 4, 64, 127
2, 606236, Note_off_c, 4, 64, 127
2, 606236, Note_off_c, 0, 48, 127
2, 606238, Note_on_c, 5, 65, 127
2, 606238, Note_on_c, 12, 47, 127
2, 606418, Note_off_c, 5, 65, 127
2, 606420, Note_on_c, 4, 64, 127
2, 606600, Note_off_c, 4, 64, 127
2, 606600, Note_off_c, 12, 47, 127
2, 606602, Note_on_c, 2, 62, 127
2, 606602, Note_on_c, 10, 45, 127
2, 606782, Note_off_c, 2, 62, 127
2, 606784, Note_on_c, 0, 60, 127
2, 606965, Note_off_c, 0, 60, 127
2, 606965, Note_off_c, 10, 45, 127
2, 606967, Note_on_c, 12, 59, 127
2, 606967, Note_on_c, 8, 44, 127
2, 607148, Note_off_c, 12, 59, 127
2, 607150, Note_on_c, 5, 65, 127
2, 607331, Note_off_c, 5, 65, 127
2, 607331, Note_off_c, 8, 44, 127
2, 607333, Note_on_c, 4, 64, 127
2, 607333, Note_on_c, 10, 45, 127
2, 607514, Note_off_c, 4, 64, 127
2, 607516, Note_on_c, 0, 60, 127
2, 607697, Note_off_c, 0, 60, 127
2, 607697, Note_off_c, 10, 45, 127
2, 607699, Note_on_c, 2, 62, 127
2, 607699, Note_on_c, 5, 41, 127
2, 607880, Note_off_c, 2, 62, 127
2, 607882, Note_on_c, 0, 60, 127
2, 608063, Note_off_c, 0, 60, 127
2, 608063, Note_off_c, 5, 41, 127
2, 608065, Note_on_c, 12, 59, 127
2, 608065, Note_on_c, 2, 38, 127
2, 608246, Note_off_c, 12, 59, 127
2, 608248, Note_on_c, 10, 57, 127
2, 608432, Note_off_c, 10, 57, 127
2, 608432, Note_off_c, 2, 38, 127
2, 608434, Note_on_c, 8, 56, 127
2, 608434, Note_on_c, 4, 40, 127
2, 608618, Note_off_c, 8, 56, 127
2, 608620, Note_on_c, 2, 62, 127
2, 608804, Note_off_c, 2, 62, 127
2, 608804, Note_off_c, 4, 40, 127
2, 608806, Note_on_c, 0, 60, 127
2, 608806, Note_on_c, 10, 45, 127
2, 608990, Note_off_c, 0, 60, 127
2, 608992, Note_on_c, 10, 57, 127
2, 609179, Note_off_c, 10, 57, 127
2, 609179, Note_off_c, 10, 45, 127
2, 609181, Note_on_c, 0, 60, 127
2, 609181, Note_on_c, 4, 52, 127
2, 609368, Note_off_c, 0, 60, 127
2, 609370, Note_on_c, 12, 59, 127
2, 609557, Note_off_c, 12, 59, 127
2, 609557, Note_off_c, 4, 52, 127
2, 609559, Note_on_c, 10, 57, 127
2, 609559, Note_on_c, 4, 40, 127
2, 609746, Note_off_c, 10, 57, 127
2, 609748, Note_on_c, 8, 56, 127
2, 609965, Note_off_c, 8, 56, 127
2, 609965, Note_off_c, 4, 40, 127
2, 609967, Note_on_c, 10, 57, 127
2, 609967, Note_on_c, 10, 33, 127
2, 610461, Note_on_c, 4, 40, 127
2, 610941, Note_off_c, 4, 40, 127
2, 610966, Note_on_c, 10, 45, 127
2, 612967, Note_off_c, 10, 33, 127
2, 612967, Note_off_c, 10, 57, 127
2, 612977, Note_off_c, 10, 45, 127
2, 614491, Note_on_c, 4, 76, 127
2, 614750, Note_off_c, 4, 76, 127
2, 614848, Note_on_c, 10, 81, 127
2, 615194, Note_off_c, 10, 81, 127
2, 615205, Note_on_c, 8, 80, 127
2, 615372, Note_off_c, 8, 80, 127
2, 615383, Note_on_c, 6, 78, 127
2, 615550, Note_off_c, 6, 78, 127
2, 615561, Note_on_c, 4, 64, 127
2, 615561, Note_on_c, 4, 76, 127
2, 615728, Note_off_c, 4, 76, 127
2, 615740, Note_on_c, 2, 74, 127
2, 615868, Note_off_c, 4, 64, 127
2, 615907, Note_off_c, 2, 74, 127
2, 615918, Note_on_c, 10, 69, 127
2, 615918, Note_on_c, 1, 73, 127
2, 616085, Note_off_c, 1, 73, 127
2, 616096, Note_on_c, 2, 74, 127
2, 616254, Note_off_c, 2, 74, 127
2, 616263, Note_off_c, 10, 69, 127
2, 616274, Note_on_c, 8, 68, 127
2, 616274, Note_on_c, 4, 76, 127
2, 616352, Note_off_c, 4, 76, 127
2, 616364, Note_on_c, 2, 74, 127
2, 616442, Note_off_c, 2, 74, 127
2, 616442, Note_off_c, 8, 68, 127
2, 616453, Note_on_c, 6, 66, 127
2, 616453, Note_on_c, 4, 76, 127
2, 616531, Note_off_c, 4, 76, 127
2, 616543, Note_on_c, 2, 74, 127
2, 616621, Note_off_c, 2, 74, 127
2, 616621, Note_off_c, 6, 66, 127
2, 616633, Note_on_c, 4, 64, 127
2, 616633, Note_on_c, 4, 76, 127
2, 616711, Note_off_c, 4, 76, 127
2, 616722, Note_on_c, 2, 74, 127
2, 616800, Note_off_c, 2, 74, 127
2, 616801, Note_off_c, 4, 64, 127
2, 616812, Note_on_c, 2, 62, 127
2, 616812, Note_on_c, 1, 73, 127
2, 616890, Note_off_c, 1, 73, 127
2, 616901, Note_on_c, 2, 74, 127
2, 616979, Note_off_c, 2, 74, 127
2, 616980, Note_off_c, 2, 62, 127
2, 616990, Note_on_c, 1, 61, 127
2, 616990, Note_on_c, 4, 76, 127
2, 617157, Note_off_c, 1, 61, 127
2, 617169, Note_on_c, 2, 62, 127
2, 617327, Note_off_c, 2, 62, 127
2, 617335, Note_off_c, 4, 76, 127
2, 617347, Note_on_c, 4, 64, 127
2, 617347, Note_on_c, 2, 74, 127
2, 617425, Note_off_c, 4, 64, 127
2, 617437, Note_on_c, 2, 62, 127
2, 617515, Note_off_c, 2, 62, 127
2, 617515, Note_off_c, 2, 74, 127
2, 617527, Note_on_c, 4, 64, 127
2, 617527, Note_on_c, 1, 73, 127
2, 617605, Note_off_c, 4, 64, 127
2, 617616, Note_on_c, 2, 62, 127
2, 617694, Note_off_c, 2, 62, 127
2, 617695, Note_off_c, 1, 73, 127
2, 617705, Note_on_c, 4, 64, 127
2, 617705, Note_on_c, 12, 71, 127
2, 617783, Note_off_c, 4, 64, 127
2, 617795, Note_on_c, 2, 62, 127
2, 617873, Note_off_c, 2, 62, 127
2, 617873, Note_off_c, 12, 71, 127
2, 617884, Note_on_c, 1, 61, 127
2, 617884, Note_on_c, 10, 69, 127
2, 617962, Note_off_c, 1, 61, 127
2, 617974, Note_on_c, 2, 62, 127
2, 618052, Note_off_c, 2, 62, 127
2, 618052, Note_off_c, 10, 69, 127
2, 618064, Note_on_c, 4, 64, 127
2, 618064, Note_on_c, 8, 68, 127
2, 618231, Note_off_c, 8, 68, 127
2, 618242, Note_on_c, 10, 69, 127
2, 618400, Note_off_c, 10, 69, 127
2, 618409, Note_off_c, 4, 64, 127
2, 618420, Note_on_c, 2, 62, 127
2, 618420, Note_on_c, 12, 71, 127
2, 618498, Note_off_c, 12, 71, 127
2, 618509, Note_on_c, 10, 69, 127
2, 618587, Note_off_c, 10, 69, 127
2, 618588, Note_off_c, 2, 62, 127
2, 618599, Note_on_c, 1, 61, 127
2, 618599, Note_on_c, 12, 71, 127
2, 618677, Note_off_c, 12, 71, 127
2, 618688, Note_on_c, 10, 69, 127
2, 618766, Note_off_c, 10, 69, 127
2, 618767, Note_off_c, 1, 61, 127
2, 618778, Note_on_c, 12, 59, 127
2, 618778, Note_on_c, 12, 71, 127
2, 618856, Note_off_c, 12, 71, 127
2, 618868, Note_on_c, 10, 69, 127
2, 618946, Note_off_c, 10, 69, 127
2, 618946, Note_off_c, 12, 59, 127
2, 618957, Note_on_c, 10, 57, 127
2, 618957, Note_on_c, 8, 68, 127
2, 619035, Note_off_c, 8, 68, 127
2, 619047, Note_on_c, 10, 69, 127
2, 619125, Note_off_c, 10, 69, 127
2, 619125, Note_off_c, 10, 57, 127
2, 619137, Note_on_c, 8, 56, 127
2, 619137, Note_on_c, 12, 71, 127
2, 619313, Note_off_c, 12, 71, 127
2, 619313, Note_off_c, 8, 56, 127
2, 619324, Note_on_c, 10, 57, 127
2, 619324, Note_on_c, 1, 73, 127
2, 619483, Note_off_c, 1, 73, 127
2, 619483, Note_off_c, 10, 57, 127
2, 619494, Note_on_c, 12, 59, 127
2, 619494, Note_on_c, 2, 74, 127
2, 619572, Note_off_c, 2, 74, 127
2, 619572, Note_off_c, 12, 59, 127
2, 619583, Note_on_c, 10, 57, 127
2, 619583, Note_on_c, 1, 73, 127
2, 619661, Note_off_c, 1, 73, 127
2, 619661, Note_off_c, 10, 57, 127
2, 619673, Note_on_c, 12, 59, 127
2, 619673, Note_on_c, 2, 74, 127
2, 619751, Note_off_c, 2, 74, 127
2, 619751, Note_off_c, 12, 59, 127
2, 619763, Note_on_c, 10, 57, 127
2, 619763, Note_on_c, 1, 73, 127
2, 619841, Note_off_c, 1, 73, 127
2, 619841, Note_off_c, 10, 57, 127
2, 619852, Note_on_c, 12, 59, 127
2, 619852, Note_on_c, 2, 74, 127
2, 619930, Note_off_c, 2, 74, 127
2, 619930, Note_off_c, 12, 59, 127
2, 619942, Note_on_c, 10, 57, 127
2, 619942, Note_on_c, 1, 73, 127
2, 620020, Note_off_c, 1, 73, 127
2, 620020, Note_off_c, 10, 57, 127
2, 620031, Note_on_c, 8, 56, 127
2, 620031, Note_on_c, 12, 71, 127
2, 620109, Note_off_c, 12, 71, 127
2, 620109, Note_off_c, 8, 56, 127
2, 620120, Note_on_c, 10, 57, 127
2, 620120, Note_on_c, 1, 73, 127
2, 620198, Note_off_c, 1, 73, 127
2, 620198, Note_off_c, 10, 57, 127
2, 620210, Note_on_c, 12, 59, 127
2, 620210, Note_on_c, 2, 74, 127
2, 620377, Note_off_c, 12, 59, 127
2, 620388, Note_on_c, 10, 57, 127
2, 620555, Note_off_c, 10, 57, 127
2, 620567, Note_on_c, 8, 56, 127
2, 620734, Note_off_c, 8, 56, 127
2, 620734, Note_off_c, 2, 74, 127
2, 620745, Note_on_c, 4, 52, 127
2, 620745, Note_on_c, 4, 76, 127
2, 620912, Note_off_c, 4, 76, 127
2, 620912, Note_off_c, 4, 52, 127
2, 620923, Note_on_c, 10, 57, 127
2, 620923, Note_on_c, 2, 74, 127
2, 621090, Note_off_c, 2, 74, 127
2, 621090, Note_off_c, 10, 57, 127
2, 621101, Note_on_c, 8, 56, 127
2, 621101, Note_on_c, 1, 73, 127
2, 621268, Note_off_c, 8, 56, 127
2, 621280, Note_on_c, 6, 54, 127
2, 621445, Note_off_c, 1, 73, 127
2, 621447, Note_off_c, 6, 54, 127
2, 621458, Note_on_c, 2, 50, 127
2, 621458, Note_on_c, 2, 74, 127
2, 621625, Note_off_c, 2, 74, 127
2, 621625, Note_off_c, 2, 50, 127
2, 621635, Note_on_c, 4, 52, 127
2, 621635, Note_on_c, 1, 73, 127
2, 621812, Note_off_c, 1, 73, 127
2, 621822, Note_on_c, 12, 71, 127
2, 621880, Note_off_c, 12, 71, 127
2, 621880, Note_on_c, 1, 73, 127
2, 621937, Note_on_c, 12, 71, 127
2, 621938, Note_off_c, 1, 73, 127
2, 621980, Note_off_c, 4, 52, 127
2, 621992, Note_on_c, 4, 40, 127
2, 622159, Note_off_c, 4, 40, 127
2, 622171, Note_on_c, 4, 52, 127
2, 622171, Note_on_c, 4, 76, 127
2, 622179, Note_off_c, 12, 71, 127
2, 622338, Note_off_c, 4, 76, 127
2, 622338, Note_off_c, 4, 52, 127
2, 622348, Note_on_c, 10, 57, 127
2, 622348, Note_on_c, 1, 73, 127
2, 622515, Note_off_c, 1, 73, 127
2, 622526, Note_on_c, 12, 71, 127
2, 622693, Note_off_c, 12, 71, 127
2, 622693, Note_off_c, 10, 57, 127
2, 622705, Note_on_c, 8, 56, 127
2, 622705, Note_on_c, 10, 69, 127
2, 622872, Note_off_c, 10, 69, 127
2, 622872, Note_off_c, 8, 56, 127
2, 622883, Note_on_c, 6, 54, 127
2, 622883, Note_on_c, 12, 71, 127
2, 623050, Note_off_c, 12, 71, 127
2, 623050, Note_off_c, 6, 54, 127
2, 623061, Note_on_c, 4, 52, 127
2, 623061, Note_on_c, 1, 73, 127
2, 623228, Note_off_c, 1, 73, 127
2, 623228, Note_off_c, 4, 52, 127
2, 623239, Note_on_c, 2, 50, 127
2, 623239, Note_on_c, 2, 74, 127
2, 623406, Note_off_c, 2, 74, 127
2, 623406, Note_off_c, 2, 50, 127
2, 623418, Note_on_c, 1, 49, 127
2, 623418, Note_on_c, 4, 76, 127
2, 623585, Note_off_c, 4, 76, 127
2, 623585, Note_off_c, 1, 49, 127
2, 623596, Note_on_c, 2, 50, 127
2, 623596, Note_on_c, 2, 74, 127
2, 623763, Note_off_c, 2, 74, 127
2, 623763, Note_off_c, 2, 50, 127
2, 623774, Note_on_c, 4, 52, 127
2, 623774, Note_on_c, 1, 73, 127
2, 623852, Note_off_c, 4, 52, 127
2, 623863, Note_on_c, 2, 50, 127
2, 623941, Note_off_c, 2, 50, 127
2, 623942, Note_off_c, 1, 73, 127
2, 623953, Note_on_c, 4, 52, 127
2, 623953, Note_on_c, 2, 74, 127
2, 624031, Note_off_c, 4, 52, 127
2, 624042, Note_on_c, 2, 50, 127
2, 624120, Note_off_c, 2, 50, 127
2, 624121, Note_off_c, 2, 74, 127
2, 624132, Note_on_c, 4, 52, 127
2, 624132, Note_on_c, 4, 76, 127
2, 624210, Note_off_c, 4, 52, 127
2, 624222, Note_on_c, 2, 50, 127
2, 624300, Note_off_c, 2, 50, 127
2, 624300, Note_off_c, 4, 76, 127
2, 624311, Note_on_c, 1, 49, 127
2, 624311, Note_on_c, 6, 78, 127
2, 624389, Note_off_c, 1, 49, 127
2, 624401, Note_on_c, 2, 50, 127
2, 624479, Note_off_c, 2, 50, 127
2, 624479, Note_off_c, 6, 78, 127
2, 624491, Note_on_c, 4, 52, 127
2, 624491, Note_on_c, 7, 79, 127
2, 624658, Note_off_c, 7, 79, 127
2, 624658, Note_off_c, 4, 52, 127
2, 624668, Note_on_c, 10, 45, 127
2, 624668, Note_on_c, 6, 78, 127
2, 624835, Note_off_c, 6, 78, 127
2, 624835, Note_off_c, 10, 45, 127
2, 624847, Note_on_c, 10, 57, 127
2, 624847, Note_on_c, 4, 76, 127
2, 625014, Note_off_c, 4, 76, 127
2, 625014, Note_off_c, 10, 57, 127
2, 625025, Note_on_c, 7, 55, 127
2, 625025, Note_on_c, 6, 78, 127
2, 625192, Note_off_c, 6, 78, 127
2, 625192, Note_off_c, 7, 55, 127
2, 625203, Note_on_c, 6, 54, 127
2, 625203, Note_on_c, 7, 79, 127
2, 625370, Note_off_c, 7, 79, 127
2, 625370, Note_off_c, 6, 54, 127
2, 625381, Note_on_c, 4, 52, 127
2, 625381, Note_on_c, 10, 81, 127
2, 625540, Note_off_c, 10, 81, 127
2, 625540, Note_off_c, 4, 52, 127
2, 625559, Note_on_c, 2, 50, 127
2, 625559, Note_on_c, 6, 78, 127
2, 625726, Note_off_c, 6, 78, 127
2, 625726, Note_off_c, 2, 50, 127
2, 625738, Note_on_c, 4, 52, 127
2, 625738, Note_on_c, 4, 76, 127
2, 625905, Note_off_c, 4, 76, 127
2, 625905, Note_off_c, 4, 52, 127
2, 625916, Note_on_c, 6, 54, 127
2, 625916, Note_on_c, 2, 74, 127
2, 625994, Note_off_c, 6, 54, 127
2, 626006, Note_on_c, 4, 52, 127
2, 626084, Note_off_c, 4, 52, 127
2, 626084, Note_off_c, 2, 74, 127
2, 626095, Note_on_c, 6, 54, 127
2, 626095, Note_on_c, 4, 76, 127
2, 626173, Note_off_c, 6, 54, 127
2, 626184, Note_on_c, 4, 52, 127
2, 626262, Note_off_c, 4, 52, 127
2, 626263, Note_off_c, 4, 76, 127
2, 626274, Note_on_c, 6, 54, 127
2, 626274, Note_on_c, 6, 78, 127
2, 626352, Note_off_c, 6, 54, 127
2, 626364, Note_on_c, 4, 52, 127
2, 626442, Note_off_c, 4, 52, 127
2, 626442, Note_off_c, 6, 78, 127
2, 626453, Note_on_c, 2, 50, 127
2, 626453, Note_on_c, 8, 80, 127
2, 626531, Note_off_c, 2, 50, 127
2, 626543, Note_on_c, 4, 52, 127
2, 626621, Note_off_c, 4, 52, 127
2, 626621, Note_off_c, 8, 80, 127
2, 626633, Note_on_c, 6, 54, 127
2, 626633, Note_on_c, 10, 81, 127
2, 626800, Note_off_c, 10, 81, 127
2, 626800, Note_off_c, 6, 54, 127
2, 626811, Note_on_c, 12, 47, 127
2, 626811, Note_on_c, 8, 80, 127
2, 626978, Note_off_c, 8, 80, 127
2, 626978, Note_off_c, 12, 47, 127
2, 626988, Note_on_c, 12, 59, 127
2, 626988, Note_on_c, 6, 78, 127
2, 627155, Note_off_c, 6, 78, 127
2, 627155, Note_off_c, 12, 59, 127
2, 627167, Note_on_c, 10, 57, 127
2, 627167, Note_on_c, 8, 80, 127
2, 627334, Note_off_c, 8, 80, 127
2, 627334, Note_off_c, 10, 57, 127
2, 627345, Note_on_c, 8, 56, 127
2, 627345, Note_on_c, 10, 81, 127
2, 627512, Note_off_c, 10, 81, 127
2, 627512, Note_off_c, 8, 56, 127
2, 627524, Note_on_c, 6, 54, 127
2, 627524, Note_on_c, 12, 83, 127
2, 627683, Note_off_c, 12, 83, 127
2, 627683, Note_off_c, 6, 54, 127
2, 627701, Note_on_c, 4, 52, 127
2, 627701, Note_on_c, 8, 80, 127
2, 627868, Note_off_c, 8, 80, 127
2, 627868, Note_off_c, 4, 52, 127
2, 627879, Note_on_c, 6, 54, 127
2, 627879, Note_on_c, 6, 78, 127
2, 628046, Note_off_c, 6, 78, 127
2, 628046, Note_off_c, 6, 54, 127
2, 628058, Note_on_c, 8, 56, 127
2, 628058, Note_on_c, 4, 76, 127
2, 628136, Note_off_c, 8, 56, 127
2, 628148, Note_on_c, 6, 54, 127
2, 628226, Note_off_c, 6, 54, 127
2, 628226, Note_off_c, 4, 76, 127
2, 628237, Note_on_c, 8, 56, 127
2, 628237, Note_on_c, 6, 78, 127
2, 628315, Note_off_c, 8, 56, 127
2, 628327, Note_on_c, 6, 54, 127
2, 628405, Note_off_c, 6, 54, 127
2, 628405, Note_off_c, 6, 78, 127
2, 628416, Note_on_c, 8, 56, 127
2, 628416, Note_on_c, 8, 80, 127
2, 628494, Note_off_c, 8, 56, 127
2, 628505, Note_on_c, 6, 54, 127
2, 628583, Note_off_c, 6, 54, 127
2, 628584, Note_off_c, 8, 80, 127
2, 628595, Note_on_c, 4, 52, 127
2, 628595, Note_on_c, 10, 81, 127
2, 628673, Note_off_c, 4, 52, 127
2, 628685, Note_on_c, 6, 54, 127
2, 628763, Note_off_c, 6, 54, 127
2, 628763, Note_off_c, 10, 81, 127
2, 628774, Note_on_c, 8, 56, 127
2, 628774, Note_on_c, 12, 83, 127
2, 628941, Note_off_c, 12, 83, 127
2, 628941, Note_off_c, 8, 56, 127
2, 628953, Note_on_c, 6, 54, 127
2, 628953, Note_on_c, 10, 81, 127
2, 629120, Note_off_c, 10, 81, 127
2, 629120, Note_off_c, 6, 54, 127
2, 629131, Note_on_c, 4, 52, 127
2, 629131, Note_on_c, 8, 80, 127
2, 629298, Note_off_c, 8, 80, 127
2, 629298, Note_off_c, 4, 52, 127
2, 629309, Note_on_c, 6, 54, 127
2, 629309, Note_on_c, 6, 78, 127
2, 629476, Note_off_c, 6, 78, 127
2, 629476, Note_off_c, 6, 54, 127
2, 629487, Note_on_c, 8, 56, 127
2, 629487, Note_on_c, 4, 76, 127
2, 629654, Note_off_c, 4, 76, 127
2, 629654, Note_off_c, 8, 56, 127
2, 629665, Note_on_c, 4, 52, 127
2, 629665, Note_on_c, 2, 74, 127
2, 629827, Note_off_c, 2, 74, 127
2, 629827, Note_off_c, 4, 52, 127
2, 629844, Note_on_c, 10, 57, 127
2, 629844, Note_on_c, 1, 73, 127
2, 630011, Note_off_c, 1, 73, 127
2, 630011, Note_off_c, 10, 57, 127
2, 630021, Note_on_c, 12, 59, 127
2, 630021, Note_on_c, 3, 75, 127
2, 630188, Note_off_c, 3, 75, 127
2, 630188, Note_off_c, 12, 59, 127
2, 630200, Note_on_c, 1, 61, 127
2, 630200, Note_on_c, 4, 76, 127
2, 630367, Note_off_c, 4, 76, 127
2, 630367, Note_off_c, 1, 61, 127
2, 630378, Note_on_c, 12, 59, 127
2, 630378, Note_on_c, 6, 78, 127
2, 630545, Note_off_c, 6, 78, 127
2, 630545, Note_off_c, 12, 59, 127
2, 630556, Note_on_c, 10, 57, 127
2, 630556, Note_on_c, 8, 80, 127
2, 630723, Note_off_c, 8, 80, 127
2, 630723, Note_off_c, 10, 57, 127
2, 630734, Note_on_c, 8, 56, 127
2, 630734, Note_on_c, 4, 76, 127
2, 630901, Note_off_c, 4, 76, 127
2, 630901, Note_off_c, 8, 56, 127
2, 630912, Note_on_c, 6, 54, 127
2, 630912, Note_on_c, 10, 81, 127
2, 631079, Note_off_c, 10, 81, 127
2, 631079, Note_off_c, 6, 54, 127
2, 631091, Note_on_c, 8, 56, 127
2, 631091, Note_on_c, 8, 80, 127
2, 631258, Note_off_c, 8, 80, 127
2, 631258, Note_off_c, 8, 56, 127
2, 631269, Note_on_c, 10, 57, 127
2, 631269, Note_on_c, 6, 78, 127
2, 631436, Note_off_c, 6, 78, 127
2, 631436, Note_off_c, 10, 57, 127
2, 631448, Note_on_c, 8, 56, 127
2, 631448, Note_on_c, 4, 76, 127
2, 631615, Note_off_c, 4, 76, 127
2, 631615, Note_off_c, 8, 56, 127
2, 631625, Note_on_c, 10, 57, 127
2, 631625, Note_on_c, 3, 75, 127
2, 631792, Note_off_c, 3, 75, 127
2, 631792, Note_off_c, 10, 57, 127
2, 631803, Note_on_c, 6, 54, 127
2, 631803, Note_on_c, 1, 73, 127
2, 631965, Note_off_c, 1, 73, 127
2, 631965, Note_off_c, 6, 54, 127
2, 631982, Note_on_c, 8, 56, 127
2, 631982, Note_on_c, 12, 71, 127
2, 632149, Note_off_c, 12, 71, 127
2, 632149, Note_off_c, 8, 56, 127
2, 632160, Note_on_c, 10, 57, 127
2, 632160, Note_on_c, 1, 73, 127
2, 632327, Note_off_c, 1, 73, 127
2, 632327, Note_off_c, 10, 57, 127
2, 632338, Note_on_c, 12, 59, 127
2, 632338, Note_on_c, 3, 75, 127
2, 632505, Note_off_c, 3, 75, 127
2, 632505, Note_off_c, 12, 59, 127
2, 632516, Note_on_c, 10, 57, 127
2, 632516, Note_on_c, 4, 76, 127
2, 632683, Note_off_c, 4, 76, 127
2, 632683, Note_off_c, 10, 57, 127
2, 632694, Note_on_c, 8, 56, 127
2, 632694, Note_on_c, 6, 78, 127
2, 632861, Note_off_c, 6, 78, 127
2, 632861, Note_off_c, 8, 56, 127
2, 632873, Note_on_c, 6, 54, 127
2, 632873, Note_on_c, 3, 75, 127
2, 633040, Note_off_c, 3, 75, 127
2, 633040, Note_off_c, 6, 54, 127
2, 633050, Note_on_c, 4, 52, 127
2, 633050, Note_on_c, 8, 80, 127
2, 633217, Note_off_c, 8, 80, 127
2, 633217, Note_off_c, 4, 52, 127
2, 633229, Note_on_c, 6, 54, 127
2, 633229, Note_on_c, 6, 78, 127
2, 633396, Note_off_c, 6, 78, 127
2, 633396, Note_off_c, 6, 54, 127
2, 633407, Note_on_c, 8, 56, 127
2, 633407, Note_on_c, 4, 76, 127
2, 633574, Note_off_c, 4, 76, 127
2, 633574, Note_off_c, 8, 56, 127
2, 633586, Note_on_c, 6, 54, 127
2, 633586, Note_on_c, 3, 75, 127
2, 633753, Note_off_c, 3, 75, 127
2, 633753, Note_off_c, 6, 54, 127
2, 633763, Note_on_c, 8, 56, 127
2, 633763, Note_on_c, 1, 73, 127
2, 633930, Note_off_c, 1, 73, 127
2, 633930, Note_off_c, 8, 56, 127
2, 633941, Note_on_c, 4, 52, 127
2, 633941, Note_on_c, 12, 71, 127
2, 634103, Note_off_c, 12, 71, 127
2, 634103, Note_off_c, 4, 52, 127
2, 634120, Note_on_c, 6, 54, 127
2, 634120, Note_on_c, 10, 69, 127
2, 634287, Note_off_c, 10, 69, 127
2, 634287, Note_off_c, 6, 54, 127
2, 634298, Note_on_c, 8, 56, 127
2, 634298, Note_on_c, 12, 71, 127
2, 634465, Note_off_c, 12, 71, 127
2, 634465, Note_off_c, 8, 56, 127
2, 634476, Note_on_c, 10, 57, 127
2, 634476, Note_on_c, 1, 73, 127
2, 634643, Note_off_c, 1, 73, 127
2, 634643, Note_off_c, 10, 57, 127
2, 634654, Note_on_c, 8, 56, 127
2, 634654, Note_on_c, 3, 75, 127
2, 634821, Note_off_c, 3, 75, 127
2, 634821, Note_off_c, 8, 56, 127
2, 634832, Note_on_c, 6, 54, 127
2, 634832, Note_on_c, 4, 76, 127
2, 634999, Note_off_c, 4, 76, 127
2, 634999, Note_off_c, 6, 54, 127
2, 635011, Note_on_c, 4, 52, 127
2, 635011, Note_on_c, 1, 73, 127
2, 635178, Note_off_c, 1, 73, 127
2, 635178, Note_off_c, 4, 52, 127
2, 635189, Note_on_c, 3, 51, 127
2, 635189, Note_on_c, 6, 78, 127
2, 635356, Note_off_c, 6, 78, 127
2, 635356, Note_off_c, 3, 51, 127
2, 635367, Note_on_c, 4, 52, 127
2, 635367, Note_on_c, 4, 76, 127
2, 635534, Note_off_c, 4, 76, 127
2, 635534, Note_off_c, 4, 52, 127
2, 635545, Note_on_c, 6, 54, 127
2, 635545, Note_on_c, 3, 75, 127
2, 635712, Note_off_c, 3, 75, 127
2, 635712, Note_off_c, 6, 54, 127
2, 635723, Note_on_c, 4, 52, 127
2, 635723, Note_on_c, 1, 73, 127
2, 635890, Note_off_c, 1, 73, 127
2, 635890, Note_off_c, 4, 52, 127
2, 635902, Note_on_c, 6, 54, 127
2, 635902, Note_on_c, 12, 71, 127
2, 636069, Note_off_c, 12, 71, 127
2, 636069, Note_off_c, 6, 54, 127
2, 636079, Note_on_c, 3, 51, 127
2, 636079, Note_on_c, 10, 69, 127
2, 636241, Note_off_c, 10, 69, 127
2, 636241, Note_off_c, 3, 51, 127
2, 636258, Note_on_c, 4, 52, 127
2, 636258, Note_on_c, 8, 68, 127
2, 636425, Note_off_c, 8, 68, 127
2, 636425, Note_off_c, 4, 52, 127
2, 636436, Note_on_c, 6, 54, 127
2, 636436, Note_on_c, 4, 76, 127
2, 636603, Note_off_c, 4, 76, 127
2, 636603, Note_off_c, 6, 54, 127
2, 636615, Note_on_c, 8, 56, 127
2, 636615, Note_on_c, 3, 75, 127
2, 636693, Note_off_c, 8, 56, 127
2, 636704, Note_on_c, 6, 54, 127
2, 636782, Note_off_c, 6, 54, 127
2, 636783, Note_off_c, 3, 75, 127
2, 636793, Note_on_c, 4, 52, 127
2, 636793, Note_on_c, 1, 73, 127
2, 636871, Note_off_c, 4, 52, 127
2, 636883, Note_on_c, 6, 54, 127
2, 636961, Note_off_c, 6, 54, 127
2, 636961, Note_off_c, 1, 73, 127
2, 636972, Note_on_c, 8, 56, 127
2, 636972, Note_on_c, 12, 71, 127
2, 637139, Note_off_c, 12, 71, 127
2, 637139, Note_off_c, 8, 56, 127
2, 637151, Note_on_c, 10, 57, 127
2, 637151, Note_on_c, 10, 69, 127
2, 637318, Note_off_c, 10, 69, 127
2, 637318, Note_off_c, 10, 57, 127
2, 637329, Note_on_c, 12, 59, 127
2, 637329, Note_on_c, 8, 68, 127
2, 637407, Note_off_c, 12, 59, 127
2, 637419, Note_on_c, 10, 57, 127
2, 637497, Note_off_c, 10, 57, 127
2, 637497, Note_off_c, 8, 68, 127
2, 637508, Note_on_c, 8, 56, 127
2, 637508, Note_on_c, 10, 69, 127
2, 637586, Note_off_c, 10, 69, 127
2, 637586, Note_off_c, 8, 56, 127
2, 637597, Note_on_c, 10, 57, 127
2, 637597, Note_on_c, 12, 71, 127
2, 637675, Note_off_c, 12, 71, 127
2, 637675, Note_off_c, 10, 57, 127
2, 637687, Note_on_c, 12, 59, 127
2, 637687, Note_on_c, 8, 68, 127
2, 637743, Note_off_c, 8, 68, 127
2, 637746, Note_on_c, 6, 66, 127
2, 637803, Note_off_c, 6, 66, 127
2, 637806, Note_on_c, 8, 68, 127
2, 637863, Note_off_c, 8, 68, 127
2, 637866, Note_on_c, 6, 66, 127
2, 637923, Note_off_c, 6, 66, 127
2, 637927, Note_on_c, 8, 68, 127
2, 637984, Note_off_c, 8, 68, 127
2, 637986, Note_on_c, 6, 66, 127
2, 638035, Note_off_c, 12, 59, 127
2, 638046, Note_on_c, 12, 47, 127
2, 638219, Note_off_c, 6, 66, 127
2, 638225, Note_on_c, 4, 64, 127
2, 638391, Note_off_c, 12, 47, 127
2, 638392, Note_off_c, 4, 64, 127
2, 638402, Note_on_c, 4, 40, 127
2, 638402, Note_on_c, 4, 64, 127
2, 638569, Note_off_c, 4, 64, 127
2, 638581, Note_on_c, 6, 66, 127
2, 638747, Note_off_c, 4, 40, 127
2, 638748, Note_off_c, 6, 66, 127
2, 638759, Note_on_c, 4, 52, 127
2, 638759, Note_on_c, 8, 68, 127
2, 638926, Note_off_c, 8, 68, 127
2, 638926, Note_off_c, 4, 52, 127
2, 638938, Note_on_c, 2, 50, 127
2, 638938, Note_on_c, 10, 69, 127
2, 639105, Note_off_c, 10, 69, 127
2, 639105, Note_off_c, 2, 50, 127
2, 639115, Note_on_c, 1, 49, 127
2, 639115, Note_on_c, 12, 71, 127
2, 639282, Note_off_c, 12, 71, 127
2, 639282, Note_off_c, 1, 49, 127
2, 639293, Note_on_c, 12, 47, 127
2, 639293, Note_on_c, 8, 68, 127
2, 639460, Note_off_c, 8, 68, 127
2, 639460, Note_off_c, 12, 47, 127
2, 639472, Note_on_c, 10, 45, 127
2, 639472, Note_on_c, 1, 73, 127
2, 639639, Note_off_c, 1, 73, 127
2, 639650, Note_on_c, 12, 71, 127
2, 639806, Note_off_c, 10, 45, 127
2, 639817, Note_off_c, 12, 71, 127
2, 639828, Note_on_c, 12, 47, 127
2, 639828, Note_on_c, 10, 69, 127
2, 639906, Note_off_c, 12, 47, 127
2, 639917, Note_on_c, 10, 45, 127
2, 639995, Note_off_c, 10, 45, 127
2, 639996, Note_off_c, 10, 69, 127
2, 640007, Note_on_c, 12, 47, 127
2, 640007, Note_on_c, 8, 68, 127
2, 640085, Note_off_c, 12, 47, 127
2, 640097, Note_on_c, 10, 45, 127
2, 640175, Note_off_c, 10, 45, 127
2, 640175, Note_off_c, 8, 68, 127
2, 640186, Note_on_c, 12, 47, 127
2, 640186, Note_on_c, 6, 66, 127
2, 640264, Note_off_c, 12, 47, 127
2, 640276, Note_on_c, 10, 45, 127
2, 640354, Note_off_c, 10, 45, 127
2, 640354, Note_off_c, 6, 66, 127
2, 640366, Note_on_c, 8, 44, 127
2, 640366, Note_on_c, 4, 64, 127
2, 640444, Note_off_c, 8, 44, 127
2, 640455, Note_on_c, 10, 45, 127
2, 640533, Note_off_c, 10, 45, 127
2, 640534, Note_off_c, 4, 64, 127
2, 640545, Note_on_c, 12, 47, 127
2, 640545, Note_on_c, 3, 63, 127
2, 640712, Note_off_c, 3, 63, 127
2, 640712, Note_off_c, 12, 47, 127
2, 640722, Note_on_c, 1, 49, 127
2, 640722, Note_on_c, 4, 64, 127
2, 640889, Note_off_c, 4, 64, 127
2, 640889, Note_off_c, 1, 49, 127
2, 640901, Note_on_c, 3, 51, 127
2, 640901, Note_on_c, 6, 66, 127
2, 641068, Note_off_c, 6, 66, 127
2, 641068, Note_off_c, 3, 51, 127
2, 641079, Note_on_c, 1, 49, 127
2, 641079, Note_on_c, 8, 68, 127
2, 641246, Note_off_c, 8, 68, 127
2, 641246, Note_off_c, 1, 49, 127
2, 641258, Note_on_c, 12, 47, 127
2, 641258, Note_on_c, 10, 69, 127
2, 641425, Note_off_c, 10, 69, 127
2, 641425, Note_off_c, 12, 47, 127
2, 641435, Note_on_c, 10, 45, 127
2, 641435, Note_on_c, 6, 66, 127
2, 641602, Note_off_c, 6, 66, 127
2, 641602, Note_off_c, 10, 45, 127
2, 641614, Note_on_c, 8, 44, 127
2, 641614, Note_on_c, 12, 71, 127
2, 641781, Note_off_c, 12, 71, 127
2, 641792, Note_on_c, 10, 69, 127
2, 641948, Note_off_c, 8, 44, 127
2, 641959, Note_off_c, 10, 69, 127
2, 641970, Note_on_c, 10, 45, 127
2, 641970, Note_on_c, 8, 68, 127
2, 642048, Note_off_c, 10, 45, 127
2, 642060, Note_on_c, 8, 44, 127
2, 642138, Note_off_c, 8, 44, 127
2, 642138, Note_off_c, 8, 68, 127
2, 642149, Note_on_c, 10, 45, 127
2, 642149, Note_on_c, 6, 66, 127
2, 642227, Note_off_c, 10, 45, 127
2, 642238, Note_on_c, 8, 44, 127
2, 642316, Note_off_c, 8, 44, 127
2, 642317, Note_off_c, 6, 66, 127
2, 642328, Note_on_c, 10, 45, 127
2, 642328, Note_on_c, 4, 64, 127
2, 642406, Note_off_c, 10, 45, 127
2, 642418, Note_on_c, 8, 44, 127
2, 642496, Note_off_c, 8, 44, 127
2, 642496, Note_off_c, 4, 64, 127
2, 642507, Note_on_c, 6, 42, 127
2, 642507, Note_on_c, 3, 63, 127
2, 642585, Note_off_c, 6, 42, 127
2, 642597, Note_on_c, 8, 44, 127
2, 642675, Note_off_c, 8, 44, 127
2, 642675, Note_off_c, 3, 63, 127
2, 642687, Note_on_c, 10, 45, 127
2, 642687, Note_on_c, 1, 61, 127
2, 642854, Note_off_c, 1, 61, 127
2, 642854, Note_off_c, 10, 45, 127
2, 642865, Note_on_c, 12, 47, 127
2, 642865, Note_on_c, 3, 63, 127
2, 643032, Note_off_c, 3, 63, 127
2, 643032, Note_off_c, 12, 47, 127
2, 643043, Note_on_c, 1, 49, 127
2, 643043, Note_on_c, 4, 64, 127
2, 643210, Note_off_c, 4, 64, 127
2, 643210, Note_off_c, 1, 49, 127
2, 643221, Note_on_c, 12, 47, 127
2, 643221, Note_on_c, 6, 66, 127
2, 643388, Note_off_c, 6, 66, 127
2, 643388, Note_off_c, 12, 47, 127
2, 643399, Note_on_c, 10, 45, 127
2, 643399, Note_on_c, 8, 68, 127
2, 643566, Note_off_c, 8, 68, 127
2, 643566, Note_off_c, 10, 45, 127
2, 643578, Note_on_c, 8, 44, 127
2, 643578, Note_on_c, 4, 64, 127
2, 643745, Note_off_c, 4, 64, 127
2, 643745, Note_off_c, 8, 44, 127
2, 643755, Note_on_c, 6, 42, 127
2, 643755, Note_on_c, 10, 69, 127
2, 643922, Note_off_c, 10, 69, 127
2, 643922, Note_off_c, 6, 42, 127
2, 643934, Note_on_c, 8, 44, 127
2, 643934, Note_on_c, 8, 68, 127
2, 644101, Note_off_c, 8, 68, 127
2, 644101, Note_off_c, 8, 44, 127
2, 644112, Note_on_c, 10, 45, 127
2, 644112, Note_on_c, 6, 66, 127
2, 644279, Note_off_c, 6, 66, 127
2, 644279, Note_off_c, 10, 45, 127
2, 644291, Note_on_c, 8, 44, 127
2, 644291, Note_on_c, 4, 64, 127
2, 644458, Note_off_c, 4, 64, 127
2, 644458, Note_off_c, 8, 44, 127
2, 644468, Note_on_c, 6, 42, 127
2, 644468, Note_on_c, 3, 63, 127
2, 644635, Note_off_c, 3, 63, 127
2, 644635, Note_off_c, 6, 42, 127
2, 644646, Note_on_c, 4, 40, 127
2, 644646, Note_on_c, 1, 61, 127
2, 644813, Note_off_c, 1, 61, 127
2, 644813, Note_off_c, 4, 40, 127
2, 644825, Note_on_c, 3, 39, 127
2, 644825, Note_on_c, 12, 59, 127
2, 644992, Note_off_c, 12, 59, 127
2, 645003, Note_on_c, 10, 69, 127
2, 645170, Note_off_c, 10, 69, 127
2, 645170, Note_off_c, 3, 39, 127
2, 645181, Note_on_c, 12, 47, 127
2, 645181, Note_on_c, 8, 68, 127
2, 645348, Note_off_c, 8, 68, 127
2, 645359, Note_on_c, 6, 66, 127
2, 645526, Note_off_c, 6, 66, 127
2, 645526, Note_off_c, 12, 47, 127
2, 645537, Note_on_c, 1, 49, 127
2, 645537, Note_on_c, 4, 64, 127
2, 645704, Note_off_c, 4, 64, 127
2, 645716, Note_on_c, 3, 63, 127
2, 645882, Note_off_c, 1, 49, 127
2, 645883, Note_off_c, 3, 63, 127
2, 645894, Note_on_c, 10, 45, 127
2, 645894, Note_on_c, 4, 64, 127
2, 646061, Note_off_c, 4, 64, 127
2, 646072, Note_on_c, 6, 66, 127
2, 646239, Note_off_c, 6, 66, 127
2, 646239, Note_off_c, 10, 45, 127
2, 646250, Note_on_c, 8, 68, 127
2, 646250, Note_on_c, 12, 47, 127
2, 646345, Note_off_c, 8, 68, 127
2, 646347, Note_on_c, 6, 66, 127
2, 646404, Note_off_c, 6, 66, 127
2, 646408, Note_on_c, 8, 68, 127
2, 646465, Note_off_c, 8, 68, 127
2, 646467, Note_on_c, 6, 66, 127
2, 646524, Note_off_c, 6, 66, 127
2, 646528, Note_on_c, 8, 68, 127
2, 646585, Note_off_c, 8, 68, 127
2, 646587, Note_on_c, 6, 66, 127
2, 646598, Note_off_c, 12, 47, 127
2, 646610, Note_on_c, 12, 35, 127
2, 646775, Note_off_c, 6, 66, 127
2, 646787, Note_on_c, 4, 64, 127
2, 646955, Note_off_c, 4, 64, 127
2, 646956, Note_off_c, 12, 35, 127
2, 646967, Note_on_c, 4, 40, 127
2, 646967, Note_on_c, 4, 64, 127
2, 647324, Note_on_c, 8, 44, 127
2, 647670, Note_off_c, 8, 44, 127
2, 647681, Note_on_c, 12, 47, 127
2, 648027, Note_off_c, 12, 47, 127
2, 648039, Note_on_c, 4, 52, 127
2, 648736, Note_off_c, 4, 52, 127
2, 648742, Note_off_c, 4, 64, 127
2, 648743, Note_off_c, 4, 40, 127
2, 648752, Note_on_c, 12, 71, 127
2, 649084, Note_off_c, 12, 71, 127
2, 649109, Note_on_c, 4, 64, 127
2, 649455, Note_off_c, 4, 64, 127
2, 649467, Note_on_c, 6, 66, 127
2, 649634, Note_off_c, 6, 66, 127
2, 649645, Note_on_c, 8, 68, 127
2, 649812, Note_off_c, 8, 68, 127
2, 649823, Note_on_c, 10, 69, 127
2, 649990, Note_off_c, 10, 69, 127
2, 650001, Note_on_c, 12, 71, 127
2, 650168, Note_off_c, 12, 71, 127
2, 650180, Note_on_c, 10, 69, 127
2, 650347, Note_off_c, 10, 69, 127
2, 650358, Note_on_c, 12, 71, 127
2, 650525, Note_off_c, 12, 71, 127
2, 650537, Note_on_c, 1, 73, 127
2, 650615, Note_off_c, 1, 73, 127
2, 650625, Note_on_c, 12, 71, 127
2, 650703, Note_off_c, 12, 71, 127
2, 650715, Note_on_c, 1, 73, 127
2, 650793, Note_off_c, 1, 73, 127
2, 650805, Note_on_c, 12, 71, 127
2, 650883, Note_off_c, 12, 71, 127
2, 650894, Note_on_c, 4, 52, 127
2, 650894, Note_on_c, 1, 73, 127
2, 650972, Note_off_c, 1, 73, 127
2, 650984, Note_on_c, 12, 71, 127
2, 651062, Note_off_c, 12, 71, 127
2, 651074, Note_on_c, 10, 69, 127
2, 651152, Note_off_c, 10, 69, 127
2, 651163, Note_on_c, 12, 71, 127
2, 651241, Note_off_c, 12, 71, 127
2, 651241, Note_off_c, 4, 52, 127
2, 651253, Note_on_c, 10, 45, 127
2, 651253, Note_on_c, 1, 73, 127
2, 651420, Note_off_c, 1, 73, 127
2, 651430, Note_on_c, 2, 74, 127
2, 651597, Note_off_c, 2, 74, 127
2, 651598, Note_off_c, 10, 45, 127
2, 651609, Note_on_c, 12, 47, 127
2, 651609, Note_on_c, 1, 73, 127
2, 651776, Note_off_c, 1, 73, 127
2, 651776, Note_off_c, 12, 47, 127
2, 651787, Note_on_c, 1, 49, 127
2, 651787, Note_on_c, 12, 71, 127
2, 651954, Note_off_c, 12, 71, 127
2, 651954, Note_off_c, 1, 49, 127
2, 651966, Note_on_c, 2, 50, 127
2, 651966, Note_on_c, 10, 69, 127
2, 652133, Note_off_c, 10, 69, 127
2, 652133, Note_off_c, 2, 50, 127
2, 652143, Note_on_c, 4, 52, 127
2, 652143, Note_on_c, 7, 67, 127
2, 652310, Note_off_c, 7, 67, 127
2, 652310, Note_off_c, 4, 52, 127
2, 652321, Note_on_c, 2, 50, 127
2, 652321, Note_on_c, 6, 66, 127
2, 652488, Note_off_c, 6, 66, 127
2, 652488, Note_off_c, 2, 50, 127
2, 652500, Note_on_c, 4, 52, 127
2, 652500, Note_on_c, 6, 78, 127
2, 652667, Note_off_c, 6, 78, 127
2, 652667, Note_off_c, 4, 52, 127
2, 652678, Note_on_c, 6, 54, 127
2, 652678, Note_on_c, 4, 76, 127
2, 652756, Note_off_c, 6, 54, 127
2, 652768, Note_on_c, 4, 52, 127
2, 652846, Note_off_c, 4, 52, 127
2, 652846, Note_off_c, 4, 76, 127
2, 652857, Note_on_c, 6, 54, 127
2, 652857, Note_on_c, 2, 74, 127
2, 652935, Note_off_c, 6, 54, 127
2, 652946, Note_on_c, 4, 52, 127
2, 653024, Note_off_c, 4, 52, 127
2, 653025, Note_off_c, 2, 74, 127
2, 653036, Note_on_c, 6, 54, 127
2, 653036, Note_on_c, 1, 73, 127
2, 653114, Note_off_c, 6, 54, 127
2, 653126, Note_on_c, 4, 52, 127
2, 653204, Note_off_c, 4, 52, 127
2, 653204, Note_off_c, 1, 73, 127
2, 653215, Note_on_c, 2, 50, 127
2, 653215, Note_on_c, 12, 71, 127
2, 653293, Note_off_c, 2, 50, 127
2, 653305, Note_on_c, 4, 52, 127
2, 653383, Note_off_c, 4, 52, 127
2, 653383, Note_off_c, 12, 71, 127
2, 653395, Note_on_c, 6, 54, 127
2, 653395, Note_on_c, 11, 70, 127
2, 653562, Note_off_c, 11, 70, 127
2, 653573, Note_on_c, 12, 71, 127
2, 653740, Note_off_c, 12, 71, 127
2, 653740, Note_off_c, 6, 54, 127
2, 653751, Note_on_c, 4, 52, 127
2, 653751, Note_on_c, 1, 73, 127
2, 653829, Note_off_c, 1, 73, 127
2, 653840, Note_on_c, 12, 71, 127
2, 653918, Note_off_c, 12, 71, 127
2, 653919, Note_off_c, 4, 52, 127
2, 653930, Note_on_c, 2, 50, 127
2, 653930, Note_on_c, 1, 73, 127
2, 654008, Note_off_c, 1, 73, 127
2, 654020, Note_on_c, 12, 71, 127
2, 654098, Note_off_c, 12, 71, 127
2, 654098, Note_off_c, 2, 50, 127
2, 654109, Note_on_c, 1, 49, 127
2, 654109, Note_on_c, 1, 73, 127
2, 654187, Note_off_c, 1, 73, 127
2, 654199, Note_on_c, 12, 71, 127
2, 654277, Note_off_c, 12, 71, 127
2, 654277, Note_off_c, 1, 49, 127
2, 654289, Note_on_c, 12, 47, 127
2, 654289, Note_on_c, 11, 70, 127
2, 654367, Note_off_c, 11, 70, 127
2, 654378, Note_on_c, 12, 71, 127
2, 654456, Note_off_c, 12, 71, 127
2, 654457, Note_off_c, 12, 47, 127
2, 654467, Note_on_c, 11, 46, 127
2, 654467, Note_on_c, 1, 73, 127
2, 654634, Note_off_c, 1, 73, 127
2, 654634, Note_off_c, 11, 46, 127
2, 654645, Note_on_c, 12, 47, 127
2, 654645, Note_on_c, 2, 74, 127
2, 654812, Note_off_c, 2, 74, 127
2, 654812, Note_off_c, 12, 47, 127
2, 654824, Note_on_c, 1, 49, 127
2, 654824, Note_on_c, 4, 76, 127
2, 654902, Note_off_c, 4, 76, 127
2, 654902, Note_off_c, 1, 49, 127
2, 654913, Note_on_c, 12, 47, 127
2, 654913, Note_on_c, 2, 74, 127
2, 654991, Note_off_c, 2, 74, 127
2, 654991, Note_off_c, 12, 47, 127
2, 655003, Note_on_c, 1, 49, 127
2, 655003, Note_on_c, 4, 76, 127
2, 655081, Note_off_c, 4, 76, 127
2, 655081, Note_off_c, 1, 49, 127
2, 655093, Note_on_c, 12, 47, 127
2, 655093, Note_on_c, 2, 74, 127
2, 655171, Note_off_c, 2, 74, 127
2, 655171, Note_off_c, 12, 47, 127
2, 655183, Note_on_c, 1, 49, 127
2, 655183, Note_on_c, 4, 76, 127
2, 655261, Note_off_c, 4, 76, 127
2, 655261, Note_off_c, 1, 49, 127
2, 655271, Note_on_c, 12, 47, 127
2, 655271, Note_on_c, 2, 74, 127
2, 655349, Note_off_c, 2, 74, 127
2, 655349, Note_off_c, 12, 47, 127
2, 655361, Note_on_c, 11, 46, 127
2, 655361, Note_on_c, 1, 73, 127
2, 655439, Note_off_c, 1, 73, 127
2, 655439, Note_off_c, 11, 46, 127
2, 655451, Note_on_c, 12, 47, 127
2, 655451, Note_on_c, 2, 74, 127
2, 655529, Note_off_c, 2, 74, 127
2, 655529, Note_off_c, 12, 47, 127
2, 655540, Note_on_c, 1, 49, 127
2, 655540, Note_on_c, 4, 76, 127
2, 655707, Note_off_c, 1, 49, 127
2, 655719, Note_on_c, 6, 42, 127
2, 655886, Note_off_c, 6, 42, 127
2, 655897, Note_on_c, 8, 44, 127
2, 656064, Note_off_c, 8, 44, 127
2, 656064, Note_off_c, 4, 76, 127
2, 656074, Note_on_c, 11, 46, 127
2, 656074, Note_on_c, 6, 78, 127
2, 656241, Note_off_c, 6, 78, 127
2, 656241, Note_off_c, 11, 46, 127
2, 656253, Note_on_c, 12, 47, 127
2, 656253, Note_on_c, 4, 76, 127
2, 656420, Note_off_c, 4, 76, 127
2, 656420, Note_off_c, 12, 47, 127
2, 656431, Note_on_c, 1, 49, 127
2, 656431, Note_on_c, 2, 74, 127
2, 656598, Note_off_c, 1, 49, 127
2, 656610, Note_on_c, 2, 50, 127
2, 656776, Note_off_c, 2, 74, 127
2, 656777, Note_off_c, 2, 50, 127
2, 656787, Note_on_c, 12, 47, 127
2, 656787, Note_on_c, 4, 76, 127
2, 656954, Note_off_c, 4, 76, 127
2, 656954, Note_off_c, 12, 47, 127
2, 656966, Note_on_c, 6, 54, 127
2, 656966, Note_on_c, 2, 74, 127
2, 657022, Note_off_c, 2, 74, 127
2, 657025, Note_on_c, 1, 73, 127
2, 657082, Note_off_c, 1, 73, 127
2, 657084, Note_on_c, 2, 74, 127
2, 657141, Note_off_c, 2, 74, 127
2, 657145, Note_on_c, 1, 73, 127
2, 657202, Note_off_c, 1, 73, 127
2, 657205, Note_on_c, 2, 74, 127
2, 657262, Note_off_c, 2, 74, 127
2, 657265, Note_on_c, 1, 73, 127
2, 657314, Note_off_c, 6, 54, 127
2, 657325, Note_on_c, 6, 42, 127
2, 657490, Note_off_c, 1, 73, 127
2, 657503, Note_on_c, 6, 78, 127
2, 657670, Note_off_c, 6, 78, 127
2, 657670, Note_off_c, 6, 42, 127
2, 657681, Note_on_c, 12, 47, 127
2, 657681, Note_on_c, 3, 75, 127
2, 657848, Note_off_c, 3, 75, 127
2, 657859, Note_on_c, 12, 71, 127
2, 658026, Note_off_c, 12, 71, 127
2, 658038, Note_on_c, 1, 73, 127
2, 658205, Note_off_c, 1, 73, 127
2, 658216, Note_on_c, 3, 75, 127
2, 658378, Note_off_c, 12, 47, 127
2, 658384, Note_off_c, 3, 75, 127
2, 658395, Note_on_c, 4, 76, 127
2, 658562, Note_off_c, 4, 76, 127
2, 658573, Note_on_c, 6, 78, 127
2, 658740, Note_off_c, 6, 78, 127
2, 658751, Note_on_c, 4, 76, 127
2, 658918, Note_off_c, 4, 76, 127
2, 658930, Note_on_c, 6, 78, 127
2, 659097, Note_off_c, 6, 78, 127
2, 659107, Note_on_c, 7, 79, 127
2, 659185, Note_off_c, 7, 79, 127
2, 659197, Note_on_c, 6, 78, 127
2, 659275, Note_off_c, 6, 78, 127
2, 659287, Note_on_c, 7, 79, 127
2, 659365, Note_off_c, 7, 79, 127
2, 659376, Note_on_c, 6, 78, 127
2, 659454, Note_off_c, 6, 78, 127
2, 659466, Note_on_c, 12, 59, 127
2, 659466, Note_on_c, 7, 79, 127
2, 659544, Note_off_c, 7, 79, 127
2, 659556, Note_on_c, 6, 78, 127
2, 659634, Note_off_c, 6, 78, 127
2, 659645, Note_on_c, 4, 76, 127
2, 659723, Note_off_c, 4, 76, 127
2, 659735, Note_on_c, 6, 78, 127
2, 659813, Note_off_c, 6, 78, 127
2, 659813, Note_off_c, 12, 59, 127
2, 659824, Note_on_c, 4, 52, 127
2, 659824, Note_on_c, 7, 79, 127
2, 659991, Note_off_c, 7, 79, 127
2, 660002, Note_on_c, 10, 81, 127
2, 660169, Note_off_c, 10, 81, 127
2, 660169, Note_off_c, 4, 52, 127
2, 660181, Note_on_c, 6, 54, 127
2, 660181, Note_on_c, 7, 79, 127
2, 660348, Note_off_c, 7, 79, 127
2, 660348, Note_off_c, 6, 54, 127
2, 660359, Note_on_c, 7, 55, 127
2, 660359, Note_on_c, 6, 78, 127
2, 660526, Note_off_c, 6, 78, 127
2, 660526, Note_off_c, 7, 55, 127
2, 660537, Note_on_c, 10, 57, 127
2, 660537, Note_on_c, 4, 76, 127
2, 660704, Note_off_c, 4, 76, 127
2, 660704, Note_off_c, 10, 57, 127
2, 660715, Note_on_c, 12, 59, 127
2, 660715, Note_on_c, 2, 74, 127
2, 660882, Note_off_c, 2, 74, 127
2, 660882, Note_off_c, 12, 59, 127
2, 660893, Note_on_c, 10, 57, 127
2, 660893, Note_on_c, 0, 72, 127
2, 661060, Note_off_c, 0, 72, 127
2, 661060, Note_off_c, 10, 57, 127
2, 661072, Note_on_c, 12, 59, 127
2, 661072, Note_on_c, 12, 83, 127
2, 661239, Note_off_c, 12, 83, 127
2, 661239, Note_off_c, 12, 59, 127
2, 661250, Note_on_c, 0, 60, 127
2, 661250, Note_on_c, 10, 81, 127
2, 661328, Note_off_c, 0, 60, 127
2, 661339, Note_on_c, 12, 59, 127
2, 661417, Note_off_c, 12, 59, 127
2, 661418, Note_off_c, 10, 81, 127
2, 661428, Note_on_c, 0, 60, 127
2, 661428, Note_on_c, 7, 79, 127
2, 661506, Note_off_c, 0, 60, 127
2, 661518, Note_on_c, 12, 59, 127
2, 661596, Note_off_c, 12, 59, 127
2, 661596, Note_off_c, 7, 79, 127
2, 661608, Note_on_c, 0, 60, 127
2, 661608, Note_on_c, 6, 78, 127
2, 661686, Note_off_c, 0, 60, 127
2, 661697, Note_on_c, 12, 59, 127
2, 661775, Note_off_c, 12, 59, 127
2, 661776, Note_off_c, 6, 78, 127
2, 661787, Note_on_c, 10, 57, 127
2, 661787, Note_on_c, 4, 76, 127
2, 661865, Note_off_c, 10, 57, 127
2, 661877, Note_on_c, 12, 59, 127
2, 661955, Note_off_c, 12, 59, 127
2, 661955, Note_off_c, 4, 76, 127
2, 661967, Note_on_c, 0, 60, 127
2, 661967, Note_on_c, 3, 75, 127
2, 662134, Note_off_c, 3, 75, 127
2, 662134, Note_off_c, 0, 60, 127
2, 662144, Note_on_c, 12, 59, 127
2, 662144, Note_on_c, 4, 76, 127
2, 662311, Note_off_c, 4, 76, 127
2, 662311, Note_off_c, 12, 59, 127
2, 662322, Note_on_c, 10, 57, 127
2, 662322, Note_on_c, 6, 78, 127
2, 662400, Note_off_c, 6, 78, 127
2, 662412, Note_on_c, 4, 76, 127
2, 662490, Note_off_c, 4, 76, 127
2, 662490, Note_off_c, 10, 57, 127
2, 662502, Note_on_c, 7, 55, 127
2, 662502, Note_on_c, 6, 78, 127
2, 662580, Note_off_c, 6, 78, 127
2, 662591, Note_on_c, 4, 76, 127
2, 662669, Note_off_c, 4, 76, 127
2, 662670, Note_off_c, 7, 55, 127
2, 662681, Note_on_c, 6, 54, 127
2, 662681, Note_on_c, 6, 78, 127
2, 662759, Note_off_c, 6, 78, 127
2, 662771, Note_on_c, 4, 76, 127
2, 662849, Note_off_c, 4, 76, 127
2, 662849, Note_off_c, 6, 54, 127
2, 662860, Note_on_c, 4, 52, 127
2, 662860, Note_on_c, 3, 75, 127
2, 662938, Note_off_c, 3, 75, 127
2, 662949, Note_on_c, 4, 76, 127
2, 663027, Note_off_c, 4, 76, 127
2, 663028, Note_off_c, 4, 52, 127
2, 663039, Note_on_c, 3, 51, 127
2, 663039, Note_on_c, 6, 78, 127
2, 663215, Note_off_c, 6, 78, 127
2, 663215, Note_off_c, 3, 51, 127
2, 663228, Note_on_c, 7, 79, 127
2, 663228, Note_on_c, 4, 52, 127
2, 663387, Note_off_c, 4, 52, 127
2, 663387, Note_off_c, 7, 79, 127
2, 663397, Note_on_c, 6, 54, 127
2, 663397, Note_on_c, 10, 81, 127
2, 663475, Note_off_c, 10, 81, 127
2, 663475, Note_off_c, 6, 54, 127
2, 663486, Note_on_c, 4, 52, 127
2, 663486, Note_on_c, 7, 79, 127
2, 663564, Note_off_c, 7, 79, 127
2, 663564, Note_off_c, 4, 52, 127
2, 663576, Note_on_c, 6, 54, 127
2, 663576, Note_on_c, 10, 81, 127
2, 663654, Note_off_c, 10, 81, 127
2, 663654, Note_off_c, 6, 54, 127
2, 663665, Note_on_c, 4, 52, 127
2, 663665, Note_on_c, 7, 79, 127
2, 663743, Note_off_c, 7, 79, 127
2, 663743, Note_off_c, 4, 52, 127
2, 663754, Note_on_c, 6, 54, 127
2, 663754, Note_on_c, 10, 81, 127
2, 663832, Note_off_c, 10, 81, 127
2, 663832, Note_off_c, 6, 54, 127
2, 663844, Note_on_c, 4, 52, 127
2, 663844, Note_on_c, 7, 79, 127
2, 663922, Note_off_c, 7, 79, 127
2, 663922, Note_off_c, 4, 52, 127
2, 663934, Note_on_c, 3, 51, 127
2, 663934, Note_on_c, 6, 78, 127
2, 664012, Note_off_c, 6, 78, 127
2, 664012, Note_off_c, 3, 51, 127
2, 664023, Note_on_c, 4, 52, 127
2, 664023, Note_on_c, 7, 79, 127
2, 664101, Note_off_c, 7, 79, 127
2, 664101, Note_off_c, 4, 52, 127
2, 664113, Note_on_c, 6, 54, 127
2, 664113, Note_on_c, 10, 81, 127
2, 664280, Note_off_c, 6, 54, 127
2, 664291, Note_on_c, 12, 47, 127
2, 664458, Note_off_c, 12, 47, 127
2, 664469, Note_on_c, 1, 49, 127
2, 664636, Note_off_c, 1, 49, 127
2, 664637, Note_off_c, 10, 81, 127
2, 664647, Note_on_c, 3, 51, 127
2, 664647, Note_on_c, 12, 83, 127
2, 664814, Note_off_c, 12, 83, 127
2, 664814, Note_off_c, 3, 51, 127
2, 664826, Note_on_c, 4, 52, 127
2, 664826, Note_on_c, 10, 81, 127
2, 664993, Note_off_c, 10, 81, 127
2, 664993, Note_off_c, 4, 52, 127
2, 665004, Note_on_c, 6, 54, 127
2, 665004, Note_on_c, 7, 79, 127
2, 665171, Note_off_c, 6, 54, 127
2, 665182, Note_on_c, 7, 55, 127
2, 665349, Note_off_c, 7, 55, 127
2, 665349, Note_off_c, 7, 79, 127
2, 665360, Note_on_c, 4, 52, 127
2, 665360, Note_on_c, 10, 81, 127
2, 665527, Note_off_c, 10, 81, 127
2, 665527, Note_off_c, 4, 52, 127
2, 665538, Note_on_c, 12, 59, 127
2, 665538, Note_on_c, 7, 79, 127
2, 665594, Note_off_c, 7, 79, 127
2, 665598, Note_on_c, 6, 78, 127
2, 665655, Note_off_c, 6, 78, 127
2, 665657, Note_on_c, 7, 79, 127
2, 665714, Note_off_c, 7, 79, 127
2, 665718, Note_on_c, 6, 78, 127
2, 665775, Note_off_c, 6, 78, 127
2, 665777, Note_on_c, 7, 79, 127
2, 665834, Note_off_c, 7, 79, 127
2, 665838, Note_on_c, 6, 78, 127
2, 665884, Note_off_c, 12, 59, 127
2, 665898, Note_on_c, 12, 47, 127
2, 666062, Note_off_c, 6, 78, 127
2, 666075, Note_on_c, 12, 83, 127
2, 666242, Note_off_c, 12, 83, 127
2, 666243, Note_off_c, 12, 47, 127
2, 666254, Note_on_c, 4, 40, 127
2, 666254, Note_on_c, 8, 80, 127
2, 666421, Note_off_c, 8, 80, 127
2, 666432, Note_on_c, 10, 81, 127
2, 666599, Note_off_c, 10, 81, 127
2, 666599, Note_off_c, 4, 40, 127
2, 666611, Note_on_c, 6, 42, 127
2, 666611, Note_on_c, 8, 80, 127
2, 666778, Note_off_c, 8, 80, 127
2, 666778, Note_off_c, 6, 42, 127
2, 666788, Note_on_c, 8, 44, 127
2, 666788, Note_on_c, 6, 78, 127
2, 666955, Note_off_c, 6, 78, 127
2, 666955, Note_off_c, 8, 44, 127
2, 666966, Note_on_c, 10, 45, 127
2, 666966, Note_on_c, 4, 76, 127
2, 667133, Note_off_c, 4, 76, 127
2, 667133, Note_off_c, 10, 45, 127
2, 667145, Note_on_c, 12, 47, 127
2, 667145, Note_on_c, 2, 74, 127
2, 667312, Note_off_c, 2, 74, 127
2, 667312, Note_off_c, 12, 47, 127
2, 667323, Note_on_c, 10, 45, 127
2, 667323, Note_on_c, 1, 73, 127
2, 667490, Note_off_c, 1, 73, 127
2, 667490, Note_off_c, 10, 45, 127
2, 667501, Note_on_c, 12, 47, 127
2, 667501, Note_on_c, 12, 71, 127
2, 667668, Note_off_c, 12, 71, 127
2, 667668, Note_off_c, 12, 47, 127
2, 667679, Note_on_c, 1, 49, 127
2, 667679, Note_on_c, 10, 69, 127
2, 667757, Note_off_c, 1, 49, 127
2, 667769, Note_on_c, 12, 47, 127
2, 667847, Note_off_c, 12, 47, 127
2, 667847, Note_off_c, 10, 69, 127
2, 667858, Note_on_c, 1, 49, 127
2, 667858, Note_on_c, 12, 71, 127
2, 667936, Note_off_c, 1, 49, 127
2, 667948, Note_on_c, 12, 47, 127
2, 668026, Note_off_c, 12, 47, 127
2, 668026, Note_off_c, 12, 71, 127
2, 668038, Note_on_c, 1, 49, 127
2, 668038, Note_on_c, 1, 73, 127
2, 668116, Note_off_c, 1, 49, 127
2, 668128, Note_on_c, 12, 47, 127
2, 668206, Note_off_c, 12, 47, 127
2, 668206, Note_off_c, 1, 73, 127
2, 668217, Note_on_c, 10, 45, 127
2, 668217, Note_on_c, 2, 74, 127
2, 668295, Note_off_c, 10, 45, 127
2, 668306, Note_on_c, 12, 47, 127
2, 668384, Note_off_c, 12, 47, 127
2, 668385, Note_off_c, 2, 74, 127
2, 668396, Note_on_c, 1, 49, 127
2, 668396, Note_on_c, 4, 76, 127
2, 668563, Note_off_c, 4, 76, 127
2, 668563, Note_off_c, 1, 49, 127
2, 668574, Note_on_c, 10, 45, 127
2, 668574, Note_on_c, 2, 74, 127
2, 668741, Note_off_c, 2, 74, 127
2, 668741, Note_off_c, 10, 45, 127
2, 668752, Note_on_c, 12, 47, 127
2, 668752, Note_on_c, 1, 73, 127
2, 668919, Note_off_c, 1, 73, 127
2, 668919, Note_off_c, 12, 47, 127
2, 668931, Note_on_c, 1, 49, 127
2, 668931, Note_on_c, 12, 71, 127
2, 669098, Note_off_c, 12, 71, 127
2, 669098, Note_off_c, 1, 49, 127
2, 669108, Note_on_c, 2, 50, 127
2, 669108, Note_on_c, 10, 69, 127
2, 669275, Note_off_c, 10, 69, 127
2, 669275, Note_off_c, 2, 50, 127
2, 669287, Note_on_c, 4, 52, 127
2, 669287, Note_on_c, 7, 67, 127
2, 669454, Note_off_c, 7, 67, 127
2, 669454, Note_off_c, 4, 52, 127
2, 669465, Note_on_c, 2, 50, 127
2, 669465, Note_on_c, 6, 66, 127
2, 669632, Note_off_c, 6, 66, 127
2, 669632, Note_off_c, 2, 50, 127
2, 669643, Note_on_c, 4, 52, 127
2, 669643, Note_on_c, 4, 64, 127
2, 669810, Note_off_c, 4, 64, 127
2, 669810, Note_off_c, 4, 52, 127
2, 669821, Note_on_c, 6, 54, 127
2, 669821, Note_on_c, 2, 62, 127
2, 669899, Note_off_c, 6, 54, 127
2, 669911, Note_on_c, 4, 52, 127
2, 669989, Note_off_c, 4, 52, 127
2, 669989, Note_off_c, 2, 62, 127
2, 670000, Note_on_c, 6, 54, 127
2, 670000, Note_on_c, 4, 64, 127
2, 670078, Note_off_c, 6, 54, 127
2, 670090, Note_on_c, 4, 52, 127
2, 670168, Note_off_c, 4, 52, 127
2, 670168, Note_off_c, 4, 64, 127
2, 670180, Note_on_c, 6, 54, 127
2, 670180, Note_on_c, 6, 66, 127
2, 670258, Note_off_c, 6, 54, 127
2, 670269, Note_on_c, 4, 52, 127
2, 670347, Note_off_c, 4, 52, 127
2, 670348, Note_off_c, 6, 66, 127
2, 670359, Note_on_c, 2, 50, 127
2, 670359, Note_on_c, 7, 67, 127
2, 670437, Note_off_c, 2, 50, 127
2, 670449, Note_on_c, 4, 52, 127
2, 670527, Note_off_c, 4, 52, 127
2, 670527, Note_off_c, 7, 67, 127
2, 670538, Note_on_c, 6, 54, 127
2, 670538, Note_on_c, 10, 69, 127
2, 670705, Note_off_c, 10, 69, 127
2, 670716, Note_on_c, 2, 62, 127
2, 670883, Note_off_c, 2, 62, 127
2, 670894, Note_on_c, 2, 74, 127
2, 670975, Note_off_c, 6, 54, 127
2, 671073, Note_on_c, 2, 50, 127
2, 671240, Note_off_c, 2, 50, 127
2, 671252, Note_on_c, 12, 47, 127
2, 671419, Note_off_c, 12, 47, 127
2, 671429, Note_on_c, 2, 50, 127
2, 671596, Note_off_c, 2, 50, 127
2, 671608, Note_on_c, 8, 44, 127
2, 671775, Note_off_c, 2, 74, 127
2, 671786, Note_on_c, 12, 71, 127
2, 671953, Note_off_c, 12, 71, 127
2, 671965, Note_on_c, 8, 68, 127
2, 672045, Note_off_c, 8, 44, 127
2, 672133, Note_off_c, 8, 68, 127
2, 672143, Note_on_c, 4, 52, 127
2, 672143, Note_on_c, 12, 71, 127
2, 672310, Note_off_c, 12, 71, 127
2, 672310, Note_off_c, 4, 52, 127
2, 672321, Note_on_c, 8, 56, 127
2, 672321, Note_on_c, 4, 64, 127
2, 672488, Note_off_c, 8, 56, 127
2, 672500, Note_on_c, 4, 52, 127
2, 672667, Note_off_c, 4, 52, 127
2, 672678, Note_on_c, 10, 57, 127
2, 672845, Note_off_c, 4, 64, 127
2, 672856, Note_on_c, 10, 69, 127
2, 673023, Note_off_c, 10, 69, 127
2, 673034, Note_on_c, 1, 73, 127
2, 673115, Note_off_c, 10, 57, 127
2, 673213, Note_on_c, 4, 52, 127
2, 673380, Note_off_c, 4, 52, 127
2, 673392, Note_on_c, 10, 45, 127
2, 673559, Note_off_c, 10, 45, 127
2, 673570, Note_on_c, 1, 49, 127
2, 673737, Note_off_c, 1, 49, 127
2, 673748, Note_on_c, 2, 38, 127
2, 673915, Note_off_c, 1, 73, 127
2, 673926, Note_on_c, 10, 69, 127
2, 674093, Note_off_c, 10, 69, 127
2, 674104, Note_on_c, 6, 66, 127
2, 674185, Note_off_c, 2, 38, 127
2, 674272, Note_off_c, 6, 66, 127
2, 674284, Note_on_c, 6, 42, 127
2, 674284, Note_on_c, 10, 69, 127
2, 674451, Note_off_c, 10, 69, 127
2, 674451, Note_off_c, 6, 42, 127
2, 674461, Note_on_c, 8, 44, 127
2, 674461, Note_on_c, 2, 62, 127
2, 674628, Note_off_c, 2, 62, 127
2, 674640, Note_on_c, 1, 73, 127
2, 674807, Note_off_c, 1, 73, 127
2, 674818, Note_on_c, 12, 71, 127
2, 674957, Note_off_c, 8, 44, 127
2, 674985, Note_off_c, 12, 71, 127
2, 674996, Note_on_c, 12, 47, 127
2, 674996, Note_on_c, 8, 68, 127
2, 675163, Note_off_c, 8, 68, 127
2, 675163, Note_off_c, 12, 47, 127
2, 675174, Note_on_c, 1, 49, 127
2, 675174, Note_on_c, 4, 64, 127
2, 675341, Note_off_c, 4, 64, 127
2, 675352, Note_on_c, 8, 68, 127
2, 675519, Note_off_c, 8, 68, 127
2, 675531, Note_on_c, 1, 61, 127
2, 675611, Note_off_c, 1, 49, 127
2, 675699, Note_off_c, 1, 61, 127
2, 675710, Note_on_c, 4, 52, 127
2, 675710, Note_on_c, 12, 71, 127
2, 675877, Note_off_c, 12, 71, 127
2, 675877, Note_off_c, 4, 52, 127
2, 675888, Note_on_c, 6, 54, 127
2, 675888, Note_on_c, 10, 69, 127
2, 676055, Note_off_c, 10, 69, 127
2, 676055, Note_off_c, 6, 54, 127
2, 676066, Note_on_c, 10, 57, 127
2, 676066, Note_on_c, 6, 66, 127
2, 676233, Note_off_c, 6, 66, 127
2, 676233, Note_off_c, 10, 57, 127
2, 676244, Note_on_c, 12, 59, 127
2, 676244, Note_on_c, 2, 62, 127
2, 676411, Note_off_c, 2, 62, 127
2, 676411, Note_off_c, 12, 59, 127
2, 676423, Note_on_c, 6, 54, 127
2, 676423, Note_on_c, 6, 66, 127
2, 676590, Note_off_c, 6, 66, 127
2, 676590, Note_off_c, 6, 54, 127
2, 676601, Note_on_c, 2, 50, 127
2, 676601, Note_on_c, 12, 59, 127
2, 676768, Note_off_c, 12, 59, 127
2, 676768, Note_off_c, 2, 50, 127
2, 676779, Note_on_c, 12, 47, 127
2, 676779, Note_on_c, 10, 69, 127
2, 676946, Note_off_c, 10, 69, 127
2, 676946, Note_off_c, 12, 47, 127
2, 676957, Note_on_c, 4, 52, 127
2, 676957, Note_on_c, 8, 68, 127
2, 677124, Note_off_c, 8, 68, 127
2, 677124, Note_off_c, 4, 52, 127
2, 677135, Note_on_c, 10, 57, 127
2, 677135, Note_on_c, 4, 64, 127
2, 677302, Note_off_c, 4, 64, 127
2, 677302, Note_off_c, 10, 57, 127
2, 677314, Note_on_c, 8, 56, 127
2, 677314, Note_on_c, 6, 66, 127
2, 677481, Note_off_c, 6, 66, 127
2, 677481, Note_off_c, 8, 56, 127
2, 677491, Note_on_c, 6, 54, 127
2, 677491, Note_on_c, 8, 68, 127
2, 677658, Note_off_c, 8, 68, 127
2, 677658, Note_off_c, 6, 54, 127
2, 677670, Note_on_c, 4, 52, 127
2, 677670, Note_on_c, 10, 69, 127
2, 677837, Note_off_c, 10, 69, 127
2, 677837, Note_off_c, 4, 52, 127
2, 677848, Note_on_c, 2, 50, 127
2, 677848, Note_on_c, 12, 71, 127
2, 678010, Note_off_c, 12, 71, 127
2, 678010, Note_off_c, 2, 50, 127
2, 678026, Note_on_c, 1, 49, 127
2, 678026, Note_on_c, 10, 69, 127
2, 678193, Note_off_c, 10, 69, 127
2, 678193, Note_off_c, 1, 49, 127
2, 678204, Note_on_c, 2, 50, 127
2, 678204, Note_on_c, 12, 71, 127
2, 678371, Note_off_c, 12, 71, 127
2, 678371, Note_off_c, 2, 50, 127
2, 678382, Note_on_c, 4, 52, 127
2, 678382, Note_on_c, 1, 73, 127
2, 678460, Note_off_c, 1, 73, 127
2, 678472, Note_on_c, 12, 71, 127
2, 678550, Note_off_c, 12, 71, 127
2, 678550, Note_off_c, 4, 52, 127
2, 678562, Note_on_c, 2, 50, 127
2, 678562, Note_on_c, 1, 73, 127
2, 678640, Note_off_c, 1, 73, 127
2, 678651, Note_on_c, 12, 71, 127
2, 678729, Note_off_c, 12, 71, 127
2, 678730, Note_off_c, 2, 50, 127
2, 678741, Note_on_c, 1, 49, 127
2, 678741, Note_on_c, 1, 73, 127
2, 678819, Note_off_c, 1, 73, 127
2, 678831, Note_on_c, 12, 71, 127
2, 678909, Note_off_c, 12, 71, 127
2, 678909, Note_off_c, 1, 49, 127
2, 678920, Note_on_c, 12, 47, 127
2, 678920, Note_on_c, 10, 69, 127
2, 678998, Note_off_c, 10, 69, 127
2, 679009, Note_on_c, 12, 71, 127
2, 679087, Note_off_c, 12, 71, 127
2, 679088, Note_off_c, 12, 47, 127
2, 679099, Note_on_c, 10, 45, 127
2, 679099, Note_on_c, 1, 73, 127
2, 679266, Note_off_c, 1, 73, 127
2, 679266, Note_off_c, 10, 45, 127
2, 679277, Note_on_c, 2, 50, 127
2, 679277, Note_on_c, 10, 69, 127
2, 679444, Note_off_c, 10, 69, 127
2, 679444, Note_off_c, 2, 50, 127
2, 679456, Note_on_c, 1, 49, 127
2, 679456, Note_on_c, 12, 71, 127
2, 679623, Note_off_c, 12, 71, 127
2, 679623, Note_off_c, 1, 49, 127
2, 679634, Note_on_c, 12, 47, 127
2, 679634, Note_on_c, 1, 73, 127
2, 679801, Note_off_c, 1, 73, 127
2, 679801, Note_off_c, 12, 47, 127
2, 679811, Note_on_c, 10, 45, 127
2, 679811, Note_on_c, 2, 74, 127
2, 679978, Note_off_c, 2, 74, 127
2, 679978, Note_off_c, 10, 45, 127
2, 679990, Note_on_c, 7, 43, 127
2, 679990, Note_on_c, 4, 76, 127
2, 680152, Note_off_c, 4, 76, 127
2, 680152, Note_off_c, 7, 43, 127
2, 680168, Note_on_c, 6, 42, 127
2, 680168, Note_on_c, 2, 74, 127
2, 680335, Note_off_c, 2, 74, 127
2, 680335, Note_off_c, 6, 42, 127
2, 680347, Note_on_c, 7, 43, 127
2, 680347, Note_on_c, 4, 76, 127
2, 680514, Note_off_c, 4, 76, 127
2, 680514, Note_off_c, 7, 43, 127
2, 680524, Note_on_c, 10, 45, 127
2, 680524, Note_on_c, 6, 78, 127
2, 680602, Note_off_c, 6, 78, 127
2, 680614, Note_on_c, 4, 76, 127
2, 680692, Note_off_c, 4, 76, 127
2, 680692, Note_off_c, 10, 45, 127
2, 680703, Note_on_c, 7, 43, 127
2, 680703, Note_on_c, 6, 78, 127
2, 680781, Note_off_c, 6, 78, 127
2, 680793, Note_on_c, 4, 76, 127
2, 680871, Note_off_c, 4, 76, 127
2, 680871, Note_off_c, 7, 43, 127
2, 680883, Note_on_c, 6, 42, 127
2, 680883, Note_on_c, 6, 78, 127
2, 680961, Note_off_c, 6, 78, 127
2, 680972, Note_on_c, 4, 76, 127
2, 681050, Note_off_c, 4, 76, 127
2, 681051, Note_off_c, 6, 42, 127
2, 681062, Note_on_c, 4, 40, 127
2, 681062, Note_on_c, 2, 74, 127
2, 681140, Note_off_c, 2, 74, 127
2, 681152, Note_on_c, 4, 76, 127
2, 681230, Note_off_c, 4, 76, 127
2, 681230, Note_off_c, 4, 40, 127
2, 681241, Note_on_c, 2, 38, 127
2, 681241, Note_on_c, 6, 78, 127
2, 681408, Note_off_c, 6, 78, 127
2, 681408, Note_off_c, 2, 38, 127
2, 681419, Note_on_c, 6, 42, 127
2, 681419, Note_on_c, 2, 74, 127
2, 681586, Note_off_c, 2, 74, 127
2, 681586, Note_off_c, 6, 42, 127
2, 681597, Note_on_c, 7, 43, 127
2, 681597, Note_on_c, 4, 76, 127
2, 681764, Note_off_c, 4, 76, 127
2, 681764, Note_off_c, 7, 43, 127
2, 681776, Note_on_c, 10, 45, 127
2, 681776, Note_on_c, 6, 78, 127
2, 681943, Note_off_c, 6, 78, 127
2, 681943, Note_off_c, 10, 45, 127
2, 681954, Note_on_c, 12, 47, 127
2, 681954, Note_on_c, 7, 79, 127
2, 682121, Note_off_c, 7, 79, 127
2, 682121, Note_off_c, 12, 47, 127
2, 682132, Note_on_c, 1, 49, 127
2, 682132, Note_on_c, 10, 81, 127
2, 682290, Note_off_c, 10, 81, 127
2, 682294, Note_off_c, 1, 49, 127
2, 682311, Note_on_c, 2, 50, 127
2, 682311, Note_on_c, 8, 80, 127
2, 682478, Note_off_c, 8, 80, 127
2, 682478, Note_off_c, 2, 50, 127
2, 682489, Note_on_c, 4, 52, 127
2, 682489, Note_on_c, 10, 81, 127
2, 682656, Note_off_c, 10, 81, 127
2, 682656, Note_off_c, 4, 52, 127
2, 682668, Note_on_c, 2, 50, 127
2, 682668, Note_on_c, 12, 83, 127
2, 682746, Note_off_c, 12, 83, 127
2, 682757, Note_on_c, 10, 81, 127
2, 682835, Note_off_c, 10, 81, 127
2, 682836, Note_off_c, 2, 50, 127
2, 682846, Note_on_c, 1, 49, 127
2, 682846, Note_on_c, 12, 83, 127
2, 682924, Note_off_c, 12, 83, 127
2, 682936, Note_on_c, 10, 81, 127
2, 683014, Note_off_c, 10, 81, 127
2, 683014, Note_off_c, 1, 49, 127
2, 683025, Note_on_c, 12, 47, 127
2, 683025, Note_on_c, 12, 83, 127
2, 683103, Note_off_c, 12, 83, 127
2, 683115, Note_on_c, 10, 81, 127
2, 683193, Note_off_c, 10, 81, 127
2, 683193, Note_off_c, 12, 47, 127
2, 683205, Note_on_c, 10, 45, 127
2, 683205, Note_on_c, 8, 80, 127
2, 683283, Note_off_c, 8, 80, 127
2, 683294, Note_on_c, 10, 81, 127
2, 683372, Note_off_c, 10, 81, 127
2, 683373, Note_off_c, 10, 45, 127
2, 683384, Note_on_c, 8, 44, 127
2, 683384, Note_on_c, 12, 83, 127
2, 683551, Note_off_c, 12, 83, 127
2, 683551, Note_off_c, 8, 44, 127
2, 683562, Note_on_c, 4, 40, 127
2, 683562, Note_on_c, 10, 81, 127
2, 683729, Note_off_c, 10, 81, 127
2, 683729, Note_off_c, 4, 40, 127
2, 683740, Note_on_c, 6, 42, 127
2, 683740, Note_on_c, 8, 80, 127
2, 683907, Note_off_c, 8, 80, 127
2, 683907, Note_off_c, 6, 42, 127
2, 683918, Note_on_c, 8, 44, 127
2, 683918, Note_on_c, 6, 78, 127
2, 684085, Note_off_c, 6, 78, 127
2, 684085, Note_off_c, 8, 44, 127
2, 684097, Note_on_c, 10, 45, 127
2, 684097, Note_on_c, 4, 76, 127
2, 684264, Note_off_c, 4, 76, 127
2, 684264, Note_off_c, 10, 45, 127
2, 684275, Note_on_c, 12, 47, 127
2, 684275, Note_on_c, 2, 74, 127
2, 684442, Note_off_c, 2, 74, 127
2, 684442, Note_off_c, 12, 47, 127
2, 684453, Note_on_c, 10, 45, 127
2, 684453, Note_on_c, 1, 73, 127
2, 684620, Note_off_c, 1, 73, 127
2, 684620, Note_off_c, 10, 45, 127
2, 684631, Note_on_c, 12, 47, 127
2, 684631, Note_on_c, 12, 71, 127
2, 684798, Note_off_c, 12, 71, 127
2, 684798, Note_off_c, 12, 47, 127
2, 684809, Note_on_c, 1, 49, 127
2, 684809, Note_on_c, 10, 69, 127
2, 684887, Note_off_c, 1, 49, 127
2, 684899, Note_on_c, 12, 47, 127
2, 684977, Note_off_c, 12, 47, 127
2, 684977, Note_off_c, 10, 69, 127
2, 684989, Note_on_c, 1, 49, 127
2, 684989, Note_on_c, 12, 71, 127
2, 685067, Note_off_c, 1, 49, 127
2, 685079, Note_on_c, 12, 47, 127
2, 685157, Note_off_c, 12, 47, 127
2, 685157, Note_off_c, 12, 71, 127
2, 685167, Note_on_c, 1, 49, 127
2, 685167, Note_on_c, 1, 73, 127
2, 685245, Note_off_c, 1, 49, 127
2, 685257, Note_on_c, 12, 47, 127
2, 685335, Note_off_c, 12, 47, 127
2, 685335, Note_off_c, 1, 73, 127
2, 685347, Note_on_c, 10, 45, 127
2, 685347, Note_on_c, 2, 74, 127
2, 685425, Note_off_c, 10, 45, 127
2, 685436, Note_on_c, 12, 47, 127
2, 685514, Note_off_c, 12, 47, 127
2, 685515, Note_off_c, 2, 74, 127
2, 685526, Note_on_c, 1, 49, 127
2, 685526, Note_on_c, 4, 76, 127
2, 685693, Note_off_c, 4, 76, 127
2, 685693, Note_off_c, 1, 49, 127
2, 685704, Note_on_c, 12, 47, 127
2, 685704, Note_on_c, 2, 74, 127
2, 685871, Note_off_c, 2, 74, 127
2, 685871, Note_off_c, 12, 47, 127
2, 685882, Note_on_c, 10, 45, 127
2, 685882, Note_on_c, 1, 73, 127
2, 686049, Note_off_c, 1, 73, 127
2, 686049, Note_off_c, 10, 45, 127
2, 686060, Note_on_c, 12, 47, 127
2, 686060, Note_on_c, 12, 71, 127
2, 686227, Note_off_c, 12, 71, 127
2, 686227, Note_off_c, 12, 47, 127
2, 686239, Note_on_c, 1, 49, 127
2, 686239, Note_on_c, 10, 69, 127
2, 686406, Note_off_c, 10, 69, 127
2, 686406, Note_off_c, 1, 49, 127
2, 686417, Note_on_c, 10, 45, 127
2, 686417, Note_on_c, 7, 67, 127
2, 686584, Note_off_c, 7, 67, 127
2, 686584, Note_off_c, 10, 45, 127
2, 686595, Note_on_c, 2, 50, 127
2, 686595, Note_on_c, 6, 66, 127
2, 686762, Note_off_c, 6, 66, 127
2, 686762, Note_off_c, 2, 50, 127
2, 686773, Note_on_c, 1, 49, 127
2, 686773, Note_on_c, 4, 76, 127
2, 686940, Note_off_c, 4, 76, 127
2, 686940, Note_off_c, 1, 49, 127
2, 686951, Note_on_c, 12, 47, 127
2, 686951, Note_on_c, 2, 74, 127
2, 687118, Note_off_c, 2, 74, 127
2, 687118, Note_off_c, 12, 47, 127
2, 687130, Note_on_c, 1, 49, 127
2, 687130, Note_on_c, 1, 73, 127
2, 687297, Note_off_c, 1, 73, 127
2, 687297, Note_off_c, 1, 49, 127
2, 687308, Note_on_c, 2, 50, 127
2, 687308, Note_on_c, 12, 71, 127
2, 687475, Note_off_c, 12, 71, 127
2, 687475, Note_off_c, 2, 50, 127
2, 687485, Note_on_c, 12, 47, 127
2, 687485, Note_on_c, 10, 69, 127
2, 687652, Note_off_c, 10, 69, 127
2, 687652, Note_off_c, 12, 47, 127
2, 687664, Note_on_c, 4, 52, 127
2, 687664, Note_on_c, 8, 68, 127
2, 687831, Note_off_c, 8, 68, 127
2, 687831, Note_off_c, 4, 52, 127
2, 687842, Note_on_c, 6, 54, 127
2, 687842, Note_on_c, 4, 64, 127
2, 688009, Note_off_c, 4, 64, 127
2, 688009, Note_off_c, 6, 54, 127
2, 688021, Note_on_c, 4, 52, 127
2, 688021, Note_on_c, 6, 66, 127
2, 688188, Note_off_c, 6, 66, 127
2, 688188, Note_off_c, 4, 52, 127
2, 688198, Note_on_c, 2, 50, 127
2, 688198, Note_on_c, 8, 68, 127
2, 688365, Note_off_c, 8, 68, 127
2, 688365, Note_off_c, 2, 50, 127
2, 688377, Note_on_c, 1, 49, 127
2, 688377, Note_on_c, 10, 69, 127
2, 688544, Note_off_c, 10, 69, 127
2, 688544, Note_off_c, 1, 49, 127
2, 688555, Note_on_c, 12, 47, 127
2, 688555, Note_on_c, 8, 68, 127
2, 688722, Note_off_c, 8, 68, 127
2, 688722, Note_off_c, 12, 47, 127
2, 688733, Note_on_c, 1, 49, 127
2, 688733, Note_on_c, 10, 69, 127
2, 688900, Note_off_c, 10, 69, 127
2, 688900, Note_off_c, 1, 49, 127
2, 688911, Note_on_c, 2, 50, 127
2, 688911, Note_on_c, 12, 71, 127
2, 689078, Note_off_c, 12, 71, 127
2, 689078, Note_off_c, 2, 50, 127
2, 689089, Note_on_c, 4, 52, 127
2, 689089, Note_on_c, 10, 69, 127
2, 689145, Note_off_c, 10, 69, 127
2, 689149, Note_on_c, 8, 68, 127
2, 689206, Note_off_c, 8, 68, 127
2, 689208, Note_on_c, 10, 69, 127
2, 689265, Note_off_c, 10, 69, 127
2, 689269, Note_on_c, 8, 68, 127
2, 689326, Note_off_c, 8, 68, 127
2, 689329, Note_on_c, 10, 69, 127
2, 689386, Note_off_c, 10, 69, 127
2, 689388, Note_on_c, 8, 68, 127
2, 689437, Note_off_c, 4, 52, 127
2, 689449, Note_on_c, 4, 40, 127
2, 689751, Note_off_c, 8, 68, 127
2, 689795, Note_off_c, 4, 40, 127
2, 689806, Note_on_c, 10, 45, 127
2, 689806, Note_on_c, 10, 69, 127
2, 689973, Note_off_c, 10, 69, 127
2, 689984, Note_on_c, 12, 71, 127
2, 690151, Note_off_c, 12, 71, 127
2, 690151, Note_off_c, 10, 45, 127
2, 690162, Note_on_c, 10, 57, 127
2, 690162, Note_on_c, 1, 73, 127
2, 690329, Note_off_c, 1, 73, 127
2, 690329, Note_off_c, 10, 57, 127
2, 690341, Note_on_c, 8, 56, 127
2, 690341, Note_on_c, 2, 74, 127
2, 690508, Note_off_c, 2, 74, 127
2, 690508, Note_off_c, 8, 56, 127
2, 690518, Note_on_c, 6, 54, 127
2, 690518, Note_on_c, 4, 76, 127
2, 690685, Note_off_c, 4, 76, 127
2, 690685, Note_off_c, 6, 54, 127
2, 690697, Note_on_c, 4, 52, 127
2, 690697, Note_on_c, 1, 73, 127
2, 690864, Note_off_c, 1, 73, 127
2, 690864, Note_off_c, 4, 52, 127
2, 690875, Note_on_c, 2, 50, 127
2, 690875, Note_on_c, 6, 78, 127
2, 691042, Note_off_c, 6, 78, 127
2, 691054, Note_on_c, 4, 76, 127
2, 691220, Note_off_c, 2, 50, 127
2, 691221, Note_off_c, 4, 76, 127
2, 691231, Note_on_c, 4, 52, 127
2, 691231, Note_on_c, 2, 74, 127
2, 691309, Note_off_c, 4, 52, 127
2, 691321, Note_on_c, 2, 50, 127
2, 691399, Note_off_c, 2, 50, 127
2, 691399, Note_off_c, 2, 74, 127
2, 691410, Note_on_c, 4, 52, 127
2, 691410, Note_on_c, 1, 73, 127
2, 691488, Note_off_c, 4, 52, 127
2, 691500, Note_on_c, 2, 50, 127
2, 691578, Note_off_c, 2, 50, 127
2, 691578, Note_off_c, 1, 73, 127
2, 691590, Note_on_c, 4, 52, 127
2, 691590, Note_on_c, 12, 71, 127
2, 691668, Note_off_c, 4, 52, 127
2, 691679, Note_on_c, 2, 50, 127
2, 691757, Note_off_c, 2, 50, 127
2, 691758, Note_off_c, 12, 71, 127
2, 691769, Note_on_c, 1, 49, 127
2, 691769, Note_on_c, 10, 69, 127
2, 691847, Note_off_c, 1, 49, 127
2, 691859, Note_on_c, 2, 50, 127
2, 691937, Note_off_c, 2, 50, 127
2, 691937, Note_off_c, 10, 69, 127
2, 691948, Note_on_c, 4, 52, 127
2, 691948, Note_on_c, 8, 68, 127
2, 692115, Note_off_c, 8, 68, 127
2, 692115, Note_off_c, 4, 52, 127
2, 692126, Note_on_c, 6, 54, 127
2, 692126, Note_on_c, 10, 69, 127
2, 692293, Note_off_c, 10, 69, 127
2, 692293, Note_off_c, 6, 54, 127
2, 692304, Note_on_c, 8, 56, 127
2, 692304, Note_on_c, 12, 71, 127
2, 692471, Note_off_c, 12, 71, 127
2, 692471, Note_off_c, 8, 56, 127
2, 692483, Note_on_c, 6, 54, 127
2, 692483, Note_on_c, 1, 73, 127
2, 692650, Note_off_c, 1, 73, 127
2, 692650, Note_off_c, 6, 54, 127
2, 692661, Note_on_c, 4, 52, 127
2, 692661, Note_on_c, 2, 74, 127
2, 692828, Note_off_c, 2, 74, 127
2, 692828, Note_off_c, 4, 52, 127
2, 692838, Note_on_c, 2, 50, 127
2, 692838, Note_on_c, 12, 71, 127
2, 693005, Note_off_c, 12, 71, 127
2, 693005, Note_off_c, 2, 50, 127
2, 693017, Note_on_c, 1, 49, 127
2, 693017, Note_on_c, 4, 76, 127
2, 693184, Note_off_c, 4, 76, 127
2, 693195, Note_on_c, 2, 74, 127
2, 693362, Note_off_c, 2, 74, 127
2, 693362, Note_off_c, 1, 49, 127
2, 693374, Note_on_c, 2, 50, 127
2, 693374, Note_on_c, 1, 73, 127
2, 693452, Note_off_c, 2, 50, 127
2, 693463, Note_on_c, 1, 49, 127
2, 693541, Note_off_c, 1, 49, 127
2, 693542, Note_off_c, 1, 73, 127
2, 693552, Note_on_c, 2, 50, 127
2, 693552, Note_on_c, 12, 71, 127
2, 693630, Note_off_c, 2, 50, 127
2, 693642, Note_on_c, 1, 49, 127
2, 693720, Note_off_c, 1, 49, 127
2, 693720, Note_off_c, 12, 71, 127
2, 693731, Note_on_c, 2, 50, 127
2, 693731, Note_on_c, 10, 69, 127
2, 693809, Note_off_c, 2, 50, 127
2, 693821, Note_on_c, 1, 49, 127
2, 693899, Note_off_c, 1, 49, 127
2, 693899, Note_off_c, 10, 69, 127
2, 693911, Note_on_c, 12, 47, 127
2, 693911, Note_on_c, 8, 68, 127
2, 693989, Note_off_c, 12, 47, 127
2, 694000, Note_on_c, 1, 49, 127
2, 694078, Note_off_c, 1, 49, 127
2, 694079, Note_off_c, 8, 68, 127
2, 694090, Note_on_c, 2, 50, 127
2, 694090, Note_on_c, 6, 66, 127
2, 694257, Note_off_c, 6, 66, 127
2, 694257, Note_off_c, 2, 50, 127
2, 694268, Note_on_c, 4, 52, 127
2, 694268, Note_on_c, 8, 68, 127
2, 694435, Note_off_c, 8, 68, 127
2, 694435, Note_off_c, 4, 52, 127
2, 694446, Note_on_c, 6, 54, 127
2, 694446, Note_on_c, 10, 69, 127
2, 694613, Note_off_c, 10, 69, 127
2, 694613, Note_off_c, 6, 54, 127
2, 694624, Note_on_c, 4, 52, 127
2, 694624, Note_on_c, 12, 71, 127
2, 694791, Note_off_c, 12, 71, 127
2, 694791, Note_off_c, 4, 52, 127
2, 694803, Note_on_c, 2, 50, 127
2, 694803, Note_on_c, 1, 73, 127
2, 694970, Note_off_c, 1, 73, 127
2, 694970, Note_off_c, 2, 50, 127
2, 694981, Note_on_c, 1, 49, 127
2, 694981, Note_on_c, 10, 69, 127
2, 695148, Note_off_c, 10, 69, 127
2, 695148, Note_off_c, 1, 49, 127
2, 695159, Note_on_c, 12, 47, 127
2, 695159, Note_on_c, 2, 74, 127
2, 695326, Note_off_c, 2, 74, 127
2, 695326, Note_off_c, 12, 47, 127
2, 695337, Note_on_c, 1, 49, 127
2, 695337, Note_on_c, 1, 73, 127
2, 695504, Note_off_c, 1, 73, 127
2, 695504, Note_off_c, 1, 49, 127
2, 695515, Note_on_c, 2, 50, 127
2, 695515, Note_on_c, 12, 71, 127
2, 695682, Note_off_c, 12, 71, 127
2, 695682, Note_off_c, 2, 50, 127
2, 695694, Note_on_c, 1, 49, 127
2, 695694, Note_on_c, 10, 69, 127
2, 695861, Note_off_c, 10, 69, 127
2, 695861, Note_off_c, 1, 49, 127
2, 695871, Note_on_c, 12, 47, 127
2, 695871, Note_on_c, 8, 68, 127
2, 696038, Note_off_c, 8, 68, 127
2, 696038, Note_off_c, 12, 47, 127
2, 696050, Note_on_c, 10, 45, 127
2, 696050, Note_on_c, 6, 66, 127
2, 696217, Note_off_c, 6, 66, 127
2, 696217, Note_off_c, 10, 45, 127
2, 696228, Note_on_c, 8, 44, 127
2, 696228, Note_on_c, 4, 64, 127
2, 696398, Note_off_c, 4, 64, 127
2, 696409, Note_on_c, 2, 74, 127
2, 696579, Note_off_c, 2, 74, 127
2, 696579, Note_off_c, 8, 44, 127
2, 696590, Note_on_c, 4, 52, 127
2, 696590, Note_on_c, 1, 73, 127
2, 696760, Note_off_c, 1, 73, 127
2, 696771, Note_on_c, 12, 71, 127
2, 696941, Note_off_c, 12, 71, 127
2, 696941, Note_off_c, 4, 52, 127
2, 696952, Note_on_c, 6, 54, 127
2, 696952, Note_on_c, 10, 69, 127
2, 697122, Note_off_c, 10, 69, 127
2, 697133, Note_on_c, 8, 68, 127
2, 697303, Note_off_c, 8, 68, 127
2, 697303, Note_off_c, 6, 54, 127
2, 697315, Note_on_c, 2, 50, 127
2, 697315, Note_on_c, 10, 69, 127
2, 697485, Note_off_c, 10, 69, 127
2, 697495, Note_on_c, 12, 71, 127
2, 697665, Note_off_c, 12, 71, 127
2, 697666, Note_off_c, 2, 50, 127
2, 697676, Note_on_c, 4, 52, 127
2, 697676, Note_on_c, 1, 73, 127
2, 697748, Note_off_c, 1, 73, 127
2, 697754, Note_on_c, 12, 71, 127
2, 697826, Note_off_c, 12, 71, 127
2, 697833, Note_on_c, 1, 73, 127
2, 697905, Note_off_c, 1, 73, 127
2, 697911, Note_on_c, 12, 71, 127
2, 697983, Note_off_c, 12, 71, 127
2, 697989, Note_on_c, 1, 73, 127
2, 698035, Note_off_c, 4, 52, 127
2, 698046, Note_on_c, 4, 40, 127
2, 698060, Note_off_c, 1, 73, 127
2, 698066, Note_on_c, 12, 71, 127
2, 698219, Note_off_c, 12, 71, 127
2, 698230, Note_on_c, 10, 69, 127
2, 698404, Note_off_c, 10, 69, 127
2, 698404, Note_off_c, 4, 40, 127
2, 698415, Note_on_c, 10, 33, 127
2, 698415, Note_on_c, 10, 69, 127
2, 698833, Note_on_c, 1, 37, 127
2, 699241, Note_off_c, 1, 37, 127
2, 699252, Note_on_c, 4, 40, 127
2, 699660, Note_off_c, 4, 40, 127
2, 699670, Note_on_c, 10, 45, 127
2, 702624, Note_off_c, 10, 45, 127
2, 702624, Note_off_c, 10, 69, 127
2, 702624, Note_off_c, 10, 33, 127
2, 708096, End_track
3, 0, Start_track
3, 0, Title_t, "MIDI"
3, 1536, End_track
0, 0, End_of_file
