0, 0, Header, 1, 3, 384
1, 0, Start_track
1, 0, Time_signature, 4, 2, 24, 8
1, 0, Tempo, 500000
1, 564840, End_track
2, 0, Start_track
2, 0, Text_t, "harpsichord: John Sankey"
2, 0, Title_t, "Track 1"
2, 0, Note_on_c, 1, 79, 127
2, 40, Note_on_c, 1, 46, 127
2, 40, Note_on_c, 1, 58, 127
2, 40, Note_on_c, 1, 74, 127
2, 200, Note_off_c, 1, 74, 0
2, 200, Note_off_c, 1, 79, 0
2, 240, Note_on_c, 1, 74, 127
2, 240, Note_on_c, 1, 77, 127
2, 360, Note_off_c, 1, 74, 0
2, 360, Note_off_c, 1, 77, 0
2, 400, Note_on_c, 1, 70, 127
2, 400, Note_on_c, 1, 76, 127
2, 560, Note_off_c, 1, 70, 0
2, 560, Note_off_c, 1, 76, 0
2, 600, Note_on_c, 1, 69, 127
2, 600, Note_on_c, 1, 77, 127
2, 760, Note_off_c, 1, 69, 0
2, 760, Note_off_c, 1, 77, 0
2, 800, Note_on_c, 1, 70, 127
2, 800, Note_on_c, 1, 82, 127
2, 960, Note_off_c, 1, 70, 0
2, 960, Note_off_c, 1, 82, 0
2, 1000, Note_on_c, 1, 77, 127
2, 1000, Note_on_c, 1, 80, 127
2, 1120, Note_off_c, 1, 46, 0
2, 1120, Note_off_c, 1, 58, 0
2, 1120, Note_off_c, 1, 77, 0
2, 1120, Note_off_c, 1, 80, 0
2, 1200, Note_on_c, 1, 46, 127
2, 1200, Note_on_c, 1, 58, 127
2, 1200, Note_on_c, 1, 77, 127
2, 1200, Note_on_c, 1, 80, 127
2, 1320, Note_off_c, 1, 77, 0
2, 1320, Note_off_c, 1, 80, 0
2, 1360, Note_on_c, 1, 74, 127
2, 1360, Note_on_c, 1, 77, 127
2, 1520, Note_off_c, 1, 46, 0
2, 1520, Note_off_c, 1, 58, 0
2, 1520, Note_off_c, 1, 74, 0
2, 1520, Note_off_c, 1, 77, 0
2, 1560, Note_on_c, 1, 58, 127
2, 1560, Note_on_c, 1, 74, 127
2, 1560, Note_on_c, 1, 77, 127
2, 1720, Note_off_c, 1, 74, 0
2, 1720, Note_off_c, 1, 77, 0
2, 1760, Note_on_c, 1, 62, 127
2, 1760, Note_on_c, 1, 77, 127
2, 1760, Note_on_c, 1, 82, 127
2, 1920, Note_off_c, 1, 58, 0
2, 1920, Note_off_c, 1, 62, 0
2, 1920, Note_off_c, 1, 77, 0
2, 1920, Note_off_c, 1, 82, 0
2, 1960, Note_on_c, 1, 56, 127
2, 1960, Note_on_c, 1, 63, 127
2, 1960, Note_on_c, 1, 70, 127
2, 1960, Note_on_c, 1, 82, 127
2, 2080, Note_off_c, 1, 82, 0
2, 2160, Note_on_c, 1, 79, 127
2, 2280, Note_off_c, 1, 56, 0
2, 2280, Note_off_c, 1, 63, 0
2, 2280, Note_off_c, 1, 70, 0
2, 2280, Note_off_c, 1, 79, 0
2, 2320, Note_on_c, 1, 77, 127
2, 2480, Note_off_c, 1, 77, 0
2, 2520, Note_on_c, 1, 75, 127
2, 2680, Note_off_c, 1, 75, 0
2, 2720, Note_on_c, 1, 74, 127
2, 2880, Note_off_c, 1, 74, 0
2, 2920, Note_on_c, 1, 75, 127
2, 3040, Note_off_c, 1, 75, 0
2, 3120, Note_on_c, 1, 55, 127
2, 3120, Note_on_c, 1, 59, 127
2, 3120, Note_on_c, 1, 62, 127
2, 3120, Note_on_c, 1, 74, 127
2, 3240, Note_off_c, 1, 74, 0
2, 3280, Note_on_c, 1, 86, 127
2, 3440, Note_off_c, 1, 55, 0
2, 3440, Note_off_c, 1, 59, 0
2, 3440, Note_off_c, 1, 62, 0
2, 3440, Note_off_c, 1, 86, 0
2, 3480, Note_on_c, 1, 55, 127
2, 3480, Note_on_c, 1, 59, 127
2, 3480, Note_on_c, 1, 65, 127
2, 3480, Note_on_c, 1, 86, 127
2, 3640, Note_off_c, 1, 86, 0
2, 3680, Note_on_c, 1, 71, 127
2, 3840, Note_off_c, 1, 71, 0
2, 3880, Note_on_c, 1, 86, 127
2, 4000, Note_off_c, 1, 55, 0
2, 4000, Note_off_c, 1, 59, 0
2, 4000, Note_off_c, 1, 65, 0
2, 4000, Note_off_c, 1, 86, 0
2, 4080, Note_on_c, 1, 56, 127
2, 4080, Note_on_c, 1, 60, 127
2, 4080, Note_on_c, 1, 63, 127
2, 4080, Note_on_c, 1, 87, 127
2, 4200, Note_off_c, 1, 60, 0
2, 4200, Note_off_c, 1, 87, 0
2, 4240, Note_on_c, 1, 62, 127
2, 4240, Note_off_c, 1, 63, 0
2, 4240, Note_on_c, 1, 68, 127
2, 4240, Note_on_c, 1, 88, 127
2, 4400, Note_off_c, 1, 62, 0
2, 4400, Note_off_c, 1, 68, 0
2, 4400, Note_off_c, 1, 88, 0
2, 4440, Note_on_c, 1, 64, 127
2, 4440, Note_on_c, 1, 67, 127
2, 4440, Note_on_c, 1, 87, 127
2, 4600, Note_off_c, 1, 87, 0
2, 4640, Note_on_c, 1, 88, 127
2, 4800, Note_off_c, 1, 56, 0
2, 4800, Note_off_c, 1, 64, 0
2, 4800, Note_on_c, 1, 65, 127
2, 4800, Note_off_c, 1, 88, 0
2, 4840, Note_on_c, 1, 56, 127
2, 4840, Note_on_c, 1, 64, 127
2, 4840, Note_off_c, 1, 65, 0
2, 4840, Note_on_c, 1, 70, 127
2, 4840, Note_on_c, 1, 82, 127
2, 4960, Note_off_c, 1, 70, 0
2, 4960, Note_off_c, 1, 82, 0
2, 5040, Note_on_c, 1, 72, 127
2, 5040, Note_on_c, 1, 84, 127
2, 5160, Note_off_c, 1, 56, 0
2, 5160, Note_off_c, 1, 64, 0
2, 5160, Note_off_c, 1, 67, 0
2, 5160, Note_off_c, 1, 72, 0
2, 5160, Note_off_c, 1, 84, 0
2, 5200, Note_on_c, 1, 85, 127
2, 5360, Note_off_c, 1, 85, 0
2, 5400, Note_on_c, 1, 84, 127
2, 5560, Note_off_c, 1, 84, 0
2, 5600, Note_on_c, 1, 67, 127
2, 5600, Note_on_c, 1, 75, 127
2, 5600, Note_on_c, 1, 76, 127
2, 5600, Note_on_c, 1, 90, 127
2, 5760, Note_off_c, 1, 67, 0
2, 5760, Note_off_c, 1, 75, 0
2, 5760, Note_off_c, 1, 76, 0
2, 5760, Note_off_c, 1, 90, 0
2, 5800, Note_on_c, 1, 89, 127
2, 5920, Note_off_c, 1, 89, 0
2, 6000, Note_on_c, 1, 57, 127
2, 6000, Note_on_c, 1, 75, 127
2, 6000, Note_on_c, 1, 87, 127
2, 6000, Note_on_c, 1, 89, 127
2, 6040, Note_off_c, 1, 89, 0
2, 6040, Note_on_c, 1, 90, 127
2, 6120, Note_off_c, 1, 57, 0
2, 6120, Note_off_c, 1, 90, 0
2, 6160, Note_off_c, 1, 87, 0
2, 6160, Note_on_c, 1, 88, 127
2, 6160, Note_on_c, 1, 89, 127
2, 6200, Note_on_c, 1, 72, 127
2, 6200, Note_on_c, 1, 87, 127
2, 6200, Note_off_c, 1, 89, 0
2, 6240, Note_on_c, 1, 84, 127
2, 6240, Note_off_c, 1, 88, 0
2, 6320, Note_off_c, 1, 72, 0
2, 6320, Note_off_c, 1, 75, 0
2, 6320, Note_off_c, 1, 84, 0
2, 6320, Note_off_c, 1, 87, 0
2, 6360, Note_on_c, 1, 55, 127
2, 6360, Note_on_c, 1, 75, 127
2, 6360, Note_on_c, 1, 84, 127
2, 6360, Note_on_c, 1, 87, 127
2, 6520, Note_off_c, 1, 55, 0
2, 6520, Note_off_c, 1, 75, 0
2, 6520, Note_off_c, 1, 84, 0
2, 6520, Note_off_c, 1, 87, 0
2, 6560, Note_on_c, 1, 79, 127
2, 6560, Note_on_c, 1, 85, 127
2, 6560, Note_on_c, 1, 88, 127
2, 6720, Note_off_c, 1, 79, 0
2, 6720, Note_off_c, 1, 85, 0
2, 6720, Note_off_c, 1, 88, 0
2, 6760, Note_on_c, 1, 50, 127
2, 6760, Note_on_c, 1, 53, 127
2, 6760, Note_on_c, 1, 58, 127
2, 6760, Note_on_c, 1, 62, 127
2, 6760, Note_on_c, 1, 77, 127
2, 6760, Note_on_c, 1, 82, 127
2, 6880, Note_off_c, 1, 77, 0
2, 6880, Note_off_c, 1, 82, 0
2, 6960, Note_on_c, 1, 82, 127
2, 7080, Note_off_c, 1, 50, 0
2, 7080, Note_off_c, 1, 53, 0
2, 7080, Note_off_c, 1, 58, 0
2, 7080, Note_off_c, 1, 62, 0
2, 7080, Note_off_c, 1, 82, 0
2, 7120, Note_on_c, 1, 79, 127
2, 7120, Note_on_c, 1, 82, 127
2, 7160, Note_off_c, 1, 79, 0
2, 7160, Note_on_c, 1, 81, 127
2, 7160, Note_off_c, 1, 82, 0
2, 7200, Note_on_c, 1, 79, 127
2, 7200, Note_on_c, 1, 80, 127
2, 7200, Note_off_c, 1, 81, 0
2, 7240, Note_off_c, 1, 80, 0
2, 7280, Note_off_c, 1, 79, 0
2, 7320, Note_on_c, 1, 77, 127
2, 7360, Note_off_c, 1, 77, 0
2, 7440, Note_on_c, 1, 75, 127
2, 7480, Note_off_c, 1, 75, 0
2, 7520, Note_on_c, 1, 53, 127
2, 7520, Note_on_c, 1, 58, 127
2, 7520, Note_on_c, 1, 62, 127
2, 7520, Note_on_c, 1, 74, 127
2, 7520, Note_on_c, 1, 79, 127
2, 7680, Note_off_c, 1, 53, 0
2, 7680, Note_off_c, 1, 58, 0
2, 7680, Note_off_c, 1, 62, 0
2, 7720, Note_on_c, 1, 53, 127
2, 7720, Note_on_c, 1, 57, 127
2, 7720, Note_on_c, 1, 62, 127
2, 7840, Note_off_c, 1, 53, 0
2, 7840, Note_off_c, 1, 57, 0
2, 7840, Note_off_c, 1, 62, 0
2, 7920, Note_on_c, 1, 53, 127
2, 7920, Note_on_c, 1, 57, 127
2, 7920, Note_on_c, 1, 60, 127
2, 7960, Note_on_c, 1, 78, 127
2, 7960, Note_off_c, 1, 79, 0
2, 8000, Note_off_c, 1, 78, 0
2, 8000, Note_on_c, 1, 79, 127
2, 8040, Note_off_c, 1, 53, 0
2, 8040, Note_off_c, 1, 57, 0
2, 8040, Note_off_c, 1, 60, 0
2, 8080, Note_on_c, 1, 53, 127
2, 8080, Note_on_c, 1, 57, 127
2, 8080, Note_on_c, 1, 60, 127
2, 8080, Note_on_c, 1, 72, 127
2, 8120, Note_off_c, 1, 72, 0
2, 8120, Note_off_c, 1, 74, 0
2, 8120, Note_on_c, 1, 75, 127
2, 8160, Note_on_c, 1, 72, 127
2, 8160, Note_on_c, 1, 74, 127
2, 8160, Note_off_c, 1, 75, 0
2, 8200, Note_off_c, 1, 72, 0
2, 8240, Note_off_c, 1, 53, 0
2, 8240, Note_off_c, 1, 57, 0
2, 8240, Note_off_c, 1, 60, 0
2, 8240, Note_off_c, 1, 74, 0
2, 8240, Note_off_c, 1, 79, 0
2, 8280, Note_on_c, 1, 52, 127
2, 8280, Note_on_c, 1, 55, 127
2, 8280, Note_on_c, 1, 58, 127
2, 8280, Note_on_c, 1, 61, 127
2, 8280, Note_on_c, 1, 64, 127
2, 8280, Note_on_c, 1, 67, 127
2, 8280, Note_on_c, 1, 73, 127
2, 8280, Note_on_c, 1, 76, 127
2, 8280, Note_on_c, 1, 79, 127
2, 8280, Note_on_c, 1, 82, 127
2, 8400, Note_off_c, 1, 61, 0
2, 8400, Note_off_c, 1, 64, 0
2, 8400, Note_on_c, 1, 72, 127
2, 8400, Note_off_c, 1, 73, 0
2, 8440, Note_on_c, 1, 60, 127
2, 8440, Note_off_c, 1, 67, 0
2, 8440, Note_off_c, 1, 72, 0
2, 8440, Note_off_c, 1, 76, 0
2, 8440, Note_off_c, 1, 79, 0
2, 8440, Note_off_c, 1, 82, 0
2, 8480, Note_on_c, 1, 64, 127
2, 8480, Note_on_c, 1, 67, 127
2, 8480, Note_on_c, 1, 72, 127
2, 8480, Note_on_c, 1, 76, 127
2, 8560, Note_off_c, 1, 76, 0
2, 8640, Note_off_c, 1, 52, 0
2, 8640, Note_off_c, 1, 55, 0
2, 8640, Note_off_c, 1, 58, 0
2, 8640, Note_off_c, 1, 60, 0
2, 8640, Note_off_c, 1, 64, 0
2, 8640, Note_off_c, 1, 67, 0
2, 8640, Note_off_c, 1, 72, 0
2, 8680, Note_on_c, 1, 40, 127
2, 8680, Note_on_c, 1, 72, 127
2, 8840, Note_off_c, 1, 72, 0
2, 8880, Note_on_c, 1, 52, 127
2, 8880, Note_on_c, 1, 55, 127
2, 8880, Note_on_c, 1, 67, 127
2, 8880, Note_on_c, 1, 74, 127
2, 8920, Note_off_c, 1, 74, 0
2, 8960, Note_on_c, 1, 70, 127
2, 9000, Note_off_c, 1, 40, 0
2, 9000, Note_off_c, 1, 52, 0
2, 9000, Note_off_c, 1, 55, 0
2, 9000, Note_off_c, 1, 67, 0
2, 9000, Note_off_c, 1, 70, 0
2, 9040, Note_on_c, 1, 53, 127
2, 9040, Note_on_c, 1, 57, 127
2, 9040, Note_on_c, 1, 60, 127
2, 9040, Note_on_c, 1, 69, 127
2, 9200, Note_off_c, 1, 60, 0
2, 9200, Note_off_c, 1, 69, 0
2, 9240, Note_on_c, 1, 67, 127
2, 9240, Note_on_c, 1, 69, 127
2, 9280, Note_off_c, 1, 67, 0
2, 9280, Note_off_c, 1, 69, 0
2, 9400, Note_off_c, 1, 53, 0
2, 9400, Note_off_c, 1, 57, 0
2, 9440, Note_on_c, 1, 42, 127
2, 9440, Note_on_c, 1, 54, 127
2, 9440, Note_on_c, 1, 81, 127
2, 9440, Note_on_c, 1, 84, 127
2, 9560, Note_on_c, 1, 69, 127
2, 9600, Note_off_c, 1, 42, 0
2, 9600, Note_off_c, 1, 54, 0
2, 9600, Note_off_c, 1, 69, 0
2, 9640, Note_on_c, 1, 67, 127
2, 9680, Note_off_c, 1, 67, 0
2, 9760, Note_on_c, 1, 71, 127
2, 9800, Note_off_c, 1, 71, 0
2, 9840, Note_on_c, 1, 66, 127
2, 9880, Note_off_c, 1, 66, 0
2, 9960, Note_on_c, 1, 80, 127
2, 9960, Note_off_c, 1, 81, 0
2, 10000, Note_off_c, 1, 80, 0
2, 10000, Note_on_c, 1, 81, 127
2, 10120, Note_off_c, 1, 81, 0
2, 10120, Note_on_c, 1, 82, 127
2, 10160, Note_off_c, 1, 82, 0
2, 10160, Note_off_c, 1, 84, 0
2, 10200, Note_on_c, 1, 67, 127
2, 10240, Note_off_c, 1, 67, 0
2, 10320, Note_on_c, 1, 65, 127
2, 10360, Note_off_c, 1, 65, 0
2, 10400, Note_on_c, 1, 67, 127
2, 10440, Note_off_c, 1, 67, 0
2, 10480, Note_on_c, 1, 65, 127
2, 10560, Note_off_c, 1, 65, 0
2, 10600, Note_on_c, 1, 69, 127
2, 10640, Note_off_c, 1, 69, 0
2, 10680, Note_on_c, 1, 65, 127
2, 10720, Note_off_c, 1, 65, 0
2, 10800, Note_on_c, 1, 81, 127
2, 10840, Note_off_c, 1, 81, 0
2, 10880, Note_on_c, 1, 79, 127
2, 10920, Note_off_c, 1, 79, 0
2, 10960, Note_on_c, 1, 77, 127
2, 11040, Note_off_c, 1, 77, 0
2, 11080, Note_on_c, 1, 79, 127
2, 11120, Note_off_c, 1, 79, 0
2, 11160, Note_on_c, 1, 81, 127
2, 11200, Note_off_c, 1, 81, 0
2, 11280, Note_on_c, 1, 79, 127
2, 11320, Note_off_c, 1, 79, 0
2, 11360, Note_on_c, 1, 81, 127
2, 11400, Note_off_c, 1, 81, 0
2, 11440, Note_on_c, 1, 82, 127
2, 11520, Note_off_c, 1, 82, 0
2, 11560, Note_on_c, 1, 81, 127
2, 11600, Note_off_c, 1, 81, 0
2, 11640, Note_on_c, 1, 79, 127
2, 11680, Note_off_c, 1, 79, 0
2, 11760, Note_on_c, 1, 81, 127
2, 11800, Note_off_c, 1, 81, 0
2, 11840, Note_on_c, 1, 82, 127
2, 11880, Note_off_c, 1, 82, 0
2, 11920, Note_on_c, 1, 81, 127
2, 12000, Note_off_c, 1, 81, 0
2, 12040, Note_on_c, 1, 80, 127
2, 12080, Note_off_c, 1, 80, 0
2, 12120, Note_on_c, 1, 60, 127
2, 12120, Note_on_c, 1, 65, 127
2, 12120, Note_on_c, 1, 78, 127
2, 12160, Note_off_c, 1, 78, 0
2, 12240, Note_on_c, 1, 81, 127
2, 12280, Note_off_c, 1, 60, 0
2, 12280, Note_off_c, 1, 65, 0
2, 12280, Note_off_c, 1, 81, 0
2, 12320, Note_on_c, 1, 67, 127
2, 12320, Note_on_c, 1, 79, 127
2, 12360, Note_off_c, 1, 67, 0
2, 12360, Note_off_c, 1, 79, 0
2, 12400, Note_on_c, 1, 81, 127
2, 12480, Note_off_c, 1, 81, 0
2, 12520, Note_on_c, 1, 69, 127
2, 12520, Note_on_c, 1, 77, 127
2, 12560, Note_off_c, 1, 69, 0
2, 12560, Note_off_c, 1, 77, 0
2, 12600, Note_on_c, 1, 77, 127
2, 12640, Note_off_c, 1, 77, 0
2, 12720, Note_on_c, 1, 67, 127
2, 12720, Note_on_c, 1, 79, 127
2, 12760, Note_off_c, 1, 67, 0
2, 12760, Note_off_c, 1, 79, 0
2, 12800, Note_on_c, 1, 77, 127
2, 12840, Note_off_c, 1, 77, 0
2, 12880, Note_on_c, 1, 65, 127
2, 12880, Note_on_c, 1, 76, 127
2, 12960, Note_off_c, 1, 65, 0
2, 12960, Note_off_c, 1, 76, 0
2, 13000, Note_on_c, 1, 77, 127
2, 13040, Note_off_c, 1, 77, 0
2, 13080, Note_on_c, 1, 69, 127
2, 13080, Note_on_c, 1, 77, 127
2, 13120, Note_off_c, 1, 69, 0
2, 13120, Note_off_c, 1, 77, 0
2, 13200, Note_on_c, 1, 77, 127
2, 13240, Note_off_c, 1, 77, 0
2, 13280, Note_on_c, 1, 60, 127
2, 13280, Note_on_c, 1, 63, 127
2, 13280, Note_on_c, 1, 65, 127
2, 13280, Note_on_c, 1, 77, 127
2, 13320, Note_off_c, 1, 77, 0
2, 13360, Note_on_c, 1, 79, 127
2, 13440, Note_off_c, 1, 60, 0
2, 13440, Note_off_c, 1, 63, 0
2, 13440, Note_off_c, 1, 65, 0
2, 13440, Note_off_c, 1, 79, 0
2, 13480, Note_on_c, 1, 77, 127
2, 13520, Note_off_c, 1, 77, 0
2, 13560, Note_on_c, 1, 76, 127
2, 13600, Note_off_c, 1, 76, 0
2, 13680, Note_on_c, 1, 41, 127
2, 13680, Note_on_c, 1, 53, 127
2, 13680, Note_on_c, 1, 63, 127
2, 13760, Note_on_c, 1, 69, 127
2, 13800, Note_off_c, 1, 69, 0
2, 13840, Note_on_c, 1, 65, 127
2, 13920, Note_off_c, 1, 65, 0
2, 13960, Note_on_c, 1, 67, 127
2, 14000, Note_off_c, 1, 67, 0
2, 14040, Note_on_c, 1, 69, 127
2, 14080, Note_off_c, 1, 69, 0
2, 14160, Note_on_c, 1, 72, 127
2, 14200, Note_off_c, 1, 41, 0
2, 14200, Note_off_c, 1, 53, 0
2, 14200, Note_off_c, 1, 63, 0
2, 14200, Note_off_c, 1, 72, 0
2, 14240, Note_on_c, 1, 41, 127
2, 14240, Note_on_c, 1, 53, 127
2, 14240, Note_on_c, 1, 63, 127
2, 14240, Note_on_c, 1, 69, 127
2, 14280, Note_off_c, 1, 69, 0
2, 14320, Note_on_c, 1, 70, 127
2, 14400, Note_off_c, 1, 63, 0
2, 14400, Note_off_c, 1, 70, 0
2, 14440, Note_on_c, 1, 62, 127
2, 14440, Note_on_c, 1, 72, 127
2, 14480, Note_off_c, 1, 72, 0
2, 14520, Note_off_c, 1, 62, 0
2, 14520, Note_on_c, 1, 63, 127
2, 14520, Note_on_c, 1, 74, 127
2, 14560, Note_off_c, 1, 41, 0
2, 14560, Note_off_c, 1, 53, 0
2, 14560, Note_off_c, 1, 63, 0
2, 14560, Note_off_c, 1, 74, 0
2, 14640, Note_on_c, 1, 46, 127
2, 14640, Note_on_c, 1, 58, 127
2, 14640, Note_on_c, 1, 62, 127
2, 14640, Note_on_c, 1, 65, 127
2, 14640, Note_on_c, 1, 75, 127
2, 14680, Note_off_c, 1, 46, 0
2, 14680, Note_off_c, 1, 58, 0
2, 14680, Note_on_c, 1, 61, 127
2, 14680, Note_off_c, 1, 62, 0
2, 14680, Note_on_c, 1, 72, 127
2, 14680, Note_off_c, 1, 75, 0
2, 14720, Note_on_c, 1, 58, 127
2, 14720, Note_off_c, 1, 61, 0
2, 14720, Note_off_c, 1, 72, 0
2, 14720, Note_on_c, 1, 74, 127
2, 14760, Note_off_c, 1, 58, 0
2, 14760, Note_off_c, 1, 74, 0
2, 14800, Note_on_c, 1, 46, 127
2, 14800, Note_on_c, 1, 58, 127
2, 14800, Note_on_c, 1, 62, 127
2, 14800, Note_on_c, 1, 72, 127
2, 14880, Note_off_c, 1, 46, 0
2, 14880, Note_off_c, 1, 72, 0
2, 14920, Note_on_c, 1, 75, 127
2, 14960, Note_off_c, 1, 58, 0
2, 14960, Note_off_c, 1, 62, 0
2, 14960, Note_off_c, 1, 65, 0
2, 14960, Note_off_c, 1, 75, 0
2, 15000, Note_on_c, 1, 63, 127
2, 15000, Note_on_c, 1, 72, 127
2, 15040, Note_off_c, 1, 63, 0
2, 15040, Note_off_c, 1, 72, 0
2, 15120, Note_on_c, 1, 67, 127
2, 15160, Note_off_c, 1, 67, 0
2, 15200, Note_on_c, 1, 39, 127
2, 15200, Note_on_c, 1, 46, 127
2, 15200, Note_on_c, 1, 51, 127
2, 15200, Note_on_c, 1, 70, 127
2, 15200, Note_on_c, 1, 75, 127
2, 15200, Note_on_c, 1, 79, 127
2, 15280, Note_on_c, 1, 55, 127
2, 15280, Note_on_c, 1, 63, 127
2, 15440, Note_off_c, 1, 46, 0
2, 15520, Note_off_c, 1, 39, 0
2, 15520, Note_off_c, 1, 51, 0
2, 15520, Note_off_c, 1, 55, 0
2, 15520, Note_off_c, 1, 63, 0
2, 15520, Note_off_c, 1, 70, 0
2, 15520, Note_off_c, 1, 75, 0
2, 15520, Note_off_c, 1, 79, 0
2, 15600, Note_on_c, 1, 39, 127
2, 15600, Note_on_c, 1, 51, 127
2, 15600, Note_on_c, 1, 68, 127
2, 15600, Note_on_c, 1, 75, 127
2, 15720, Note_off_c, 1, 39, 0
2, 15720, Note_off_c, 1, 51, 0
2, 15720, Note_off_c, 1, 68, 0
2, 15720, Note_off_c, 1, 75, 0
2, 15760, Note_on_c, 1, 68, 127
2, 15760, Note_on_c, 1, 70, 127
2, 15760, Note_on_c, 1, 77, 127
2, 16120, Note_off_c, 1, 68, 0
2, 16120, Note_off_c, 1, 70, 0
2, 16120, Note_off_c, 1, 77, 0
2, 16160, Note_on_c, 1, 46, 127
2, 16160, Note_on_c, 1, 58, 127
2, 16160, Note_on_c, 1, 62, 127
2, 16160, Note_on_c, 1, 74, 127
2, 16160, Note_on_c, 1, 77, 127
2, 16200, Note_on_c, 1, 65, 127
2, 16360, Note_on_c, 1, 70, 127
2, 16400, Note_off_c, 1, 70, 0
2, 16480, Note_off_c, 1, 46, 0
2, 16480, Note_off_c, 1, 58, 0
2, 16480, Note_off_c, 1, 62, 0
2, 16480, Note_off_c, 1, 65, 0
2, 16480, Note_off_c, 1, 74, 0
2, 16480, Note_off_c, 1, 77, 0
2, 16560, Note_on_c, 1, 63, 127
2, 16560, Note_on_c, 1, 75, 127
2, 16560, Note_on_c, 1, 79, 127
2, 16680, Note_off_c, 1, 63, 0
2, 16680, Note_off_c, 1, 79, 0
2, 16720, Note_on_c, 1, 55, 127
2, 16720, Note_on_c, 1, 60, 127
2, 16880, Note_off_c, 1, 55, 0
2, 16880, Note_off_c, 1, 60, 0
2, 16880, Note_off_c, 1, 75, 0
2, 16920, Note_on_c, 1, 55, 127
2, 16920, Note_on_c, 1, 58, 127
2, 16920, Note_on_c, 1, 62, 127
2, 16920, Note_on_c, 1, 82, 127
2, 17080, Note_off_c, 1, 55, 0
2, 17080, Note_off_c, 1, 58, 0
2, 17080, Note_off_c, 1, 62, 0
2, 17080, Note_off_c, 1, 82, 0
2, 17120, Note_on_c, 1, 75, 127
2, 17120, Note_on_c, 1, 80, 127
2, 17280, Note_off_c, 1, 75, 0
2, 17280, Note_off_c, 1, 80, 0
2, 17320, Note_on_c, 1, 55, 127
2, 17320, Note_on_c, 1, 58, 127
2, 17320, Note_on_c, 1, 63, 127
2, 17320, Note_on_c, 1, 70, 127
2, 17320, Note_on_c, 1, 75, 127
2, 17320, Note_on_c, 1, 79, 127
2, 17320, Note_on_c, 1, 82, 127
2, 17440, Note_off_c, 1, 55, 0
2, 17440, Note_off_c, 1, 58, 0
2, 17440, Note_off_c, 1, 63, 0
2, 17440, Note_off_c, 1, 70, 0
2, 17440, Note_off_c, 1, 75, 0
2, 17440, Note_off_c, 1, 79, 0
2, 17440, Note_off_c, 1, 82, 0
2, 17520, Note_on_c, 1, 54, 127
2, 17520, Note_on_c, 1, 63, 127
2, 17640, Note_off_c, 1, 54, 0
2, 17640, Note_off_c, 1, 63, 0
2, 17680, Note_on_c, 1, 53, 127
2, 17680, Note_on_c, 1, 65, 127
2, 17680, Note_on_c, 1, 70, 127
2, 17680, Note_on_c, 1, 74, 127
2, 17680, Note_on_c, 1, 77, 127
2, 17880, Note_on_c, 1, 62, 127
2, 18040, Note_off_c, 1, 53, 0
2, 18040, Note_off_c, 1, 62, 0
2, 18040, Note_off_c, 1, 65, 0
2, 18040, Note_off_c, 1, 70, 0
2, 18040, Note_off_c, 1, 74, 0
2, 18040, Note_off_c, 1, 77, 0
2, 18080, Note_on_c, 1, 51, 127
2, 18080, Note_on_c, 1, 63, 127
2, 18080, Note_on_c, 1, 67, 127
2, 18080, Note_on_c, 1, 72, 127
2, 18080, Note_on_c, 1, 79, 127
2, 18080, Note_on_c, 1, 84, 127
2, 18120, Note_off_c, 1, 72, 0
2, 18120, Note_off_c, 1, 79, 0
2, 18120, Note_off_c, 1, 84, 0
2, 18240, Note_off_c, 1, 51, 0
2, 18240, Note_off_c, 1, 63, 0
2, 18240, Note_off_c, 1, 67, 0
2, 18280, Note_on_c, 1, 53, 127
2, 18280, Note_on_c, 1, 65, 127
2, 18280, Note_on_c, 1, 68, 127
2, 18280, Note_on_c, 1, 74, 127
2, 18280, Note_on_c, 1, 86, 127
2, 18400, Note_off_c, 1, 53, 0
2, 18400, Note_off_c, 1, 65, 0
2, 18400, Note_off_c, 1, 68, 0
2, 18400, Note_off_c, 1, 74, 0
2, 18480, Note_on_c, 1, 53, 127
2, 18480, Note_on_c, 1, 65, 127
2, 18480, Note_on_c, 1, 68, 127
2, 18480, Note_on_c, 1, 74, 127
2, 18600, Note_off_c, 1, 53, 0
2, 18600, Note_off_c, 1, 65, 0
2, 18600, Note_off_c, 1, 68, 0
2, 18600, Note_off_c, 1, 74, 0
2, 18600, Note_off_c, 1, 86, 0
2, 18640, Note_on_c, 1, 48, 127
2, 18640, Note_on_c, 1, 60, 127
2, 18640, Note_on_c, 1, 80, 127
2, 18720, Note_off_c, 1, 80, 0
2, 18760, Note_on_c, 1, 84, 127
2, 18800, Note_off_c, 1, 48, 0
2, 18800, Note_off_c, 1, 60, 0
2, 18800, Note_off_c, 1, 84, 0
2, 18840, Note_on_c, 1, 51, 127
2, 18840, Note_on_c, 1, 60, 127
2, 18840, Note_on_c, 1, 67, 127
2, 18840, Note_on_c, 1, 70, 127
2, 18840, Note_on_c, 1, 84, 127
2, 18880, Note_on_c, 1, 50, 127
2, 18880, Note_off_c, 1, 51, 0
2, 18880, Note_off_c, 1, 84, 0
2, 18920, Note_off_c, 1, 50, 0
2, 18920, Note_on_c, 1, 51, 127
2, 19000, Note_off_c, 1, 51, 0
2, 19000, Note_off_c, 1, 60, 0
2, 19000, Note_off_c, 1, 67, 0
2, 19000, Note_off_c, 1, 70, 0
2, 19040, Note_on_c, 1, 53, 127
2, 19040, Note_on_c, 1, 60, 127
2, 19040, Note_on_c, 1, 84, 127
2, 19080, Note_on_c, 1, 82, 127
2, 19080, Note_off_c, 1, 84, 0
2, 19120, Note_on_c, 1, 81, 127
2, 19120, Note_off_c, 1, 82, 0
2, 19160, Note_off_c, 1, 81, 0
2, 19200, Note_off_c, 1, 53, 0
2, 19200, Note_on_c, 1, 68, 127
2, 19200, Note_on_c, 1, 80, 127
2, 19240, Note_on_c, 1, 51, 127
2, 19240, Note_off_c, 1, 80, 0
2, 19240, Note_on_c, 1, 81, 127
2, 19280, Note_off_c, 1, 81, 0
2, 19320, Note_on_c, 1, 82, 127
2, 19360, Note_off_c, 1, 51, 0
2, 19360, Note_off_c, 1, 60, 0
2, 19360, Note_off_c, 1, 68, 0
2, 19360, Note_off_c, 1, 82, 0
2, 19440, Note_on_c, 1, 53, 127
2, 19440, Note_on_c, 1, 62, 127
2, 19440, Note_on_c, 1, 67, 127
2, 19440, Note_on_c, 1, 70, 127
2, 19440, Note_on_c, 1, 82, 127
2, 19560, Note_off_c, 1, 53, 0
2, 19560, Note_off_c, 1, 62, 0
2, 19560, Note_off_c, 1, 67, 0
2, 19560, Note_off_c, 1, 82, 0
2, 19600, Note_on_c, 1, 53, 127
2, 19600, Note_on_c, 1, 62, 127
2, 19600, Note_on_c, 1, 65, 127
2, 19600, Note_on_c, 1, 68, 127
2, 19600, Note_on_c, 1, 82, 127
2, 19680, Note_off_c, 1, 82, 0
2, 19720, Note_on_c, 1, 80, 127
2, 19760, Note_off_c, 1, 53, 0
2, 19760, Note_off_c, 1, 62, 0
2, 19760, Note_off_c, 1, 80, 0
2, 19800, Note_on_c, 1, 53, 127
2, 19800, Note_on_c, 1, 62, 127
2, 19800, Note_on_c, 1, 80, 127
2, 19840, Note_off_c, 1, 80, 0
2, 19840, Note_on_c, 1, 82, 127
2, 19960, Note_off_c, 1, 53, 0
2, 19960, Note_off_c, 1, 62, 0
2, 19960, Note_off_c, 1, 65, 0
2, 19960, Note_off_c, 1, 68, 0
2, 19960, Note_off_c, 1, 70, 0
2, 19960, Note_off_c, 1, 82, 0
2, 20000, Note_on_c, 1, 39, 127
2, 20000, Note_on_c, 1, 51, 127
2, 20000, Note_on_c, 1, 60, 127
2, 20000, Note_on_c, 1, 63, 127
2, 20000, Note_on_c, 1, 72, 127
2, 20000, Note_on_c, 1, 81, 127
2, 20040, Note_off_c, 1, 81, 0
2, 20080, Note_on_c, 1, 79, 127
2, 20160, Note_off_c, 1, 60, 0
2, 20160, Note_off_c, 1, 63, 0
2, 20160, Note_off_c, 1, 72, 0
2, 20160, Note_off_c, 1, 79, 0
2, 20200, Note_on_c, 1, 62, 127
2, 20200, Note_on_c, 1, 70, 127
2, 20200, Note_on_c, 1, 74, 127
2, 20200, Note_on_c, 1, 80, 127
2, 20240, Note_off_c, 1, 80, 0
2, 20280, Note_on_c, 1, 79, 127
2, 20320, Note_off_c, 1, 39, 0
2, 20320, Note_off_c, 1, 51, 0
2, 20320, Note_off_c, 1, 62, 0
2, 20320, Note_off_c, 1, 70, 0
2, 20320, Note_off_c, 1, 74, 0
2, 20320, Note_off_c, 1, 79, 0
2, 20400, Note_on_c, 1, 41, 127
2, 20400, Note_on_c, 1, 53, 127
2, 20400, Note_on_c, 1, 62, 127
2, 20400, Note_on_c, 1, 70, 127
2, 20400, Note_on_c, 1, 74, 127
2, 20400, Note_on_c, 1, 81, 127
2, 20440, Note_off_c, 1, 81, 0
2, 20480, Note_on_c, 1, 82, 127
2, 20520, Note_off_c, 1, 41, 0
2, 20520, Note_off_c, 1, 53, 0
2, 20520, Note_off_c, 1, 62, 0
2, 20520, Note_off_c, 1, 70, 0
2, 20520, Note_off_c, 1, 74, 0
2, 20520, Note_off_c, 1, 82, 0
2, 20560, Note_on_c, 1, 41, 127
2, 20560, Note_on_c, 1, 53, 127
2, 20560, Note_on_c, 1, 84, 127
2, 20640, Note_off_c, 1, 84, 0
2, 20680, Note_on_c, 1, 81, 127
2, 20720, Note_off_c, 1, 41, 0
2, 20720, Note_off_c, 1, 53, 0
2, 20720, Note_off_c, 1, 81, 0
2, 20760, Note_on_c, 1, 58, 127
2, 20760, Note_on_c, 1, 62, 127
2, 20760, Note_on_c, 1, 70, 127
2, 20760, Note_on_c, 1, 74, 127
2, 20760, Note_on_c, 1, 82, 127
2, 20800, Note_off_c, 1, 82, 0
2, 20920, Note_off_c, 1, 58, 0
2, 20920, Note_off_c, 1, 62, 0
2, 20920, Note_off_c, 1, 70, 0
2, 20920, Note_off_c, 1, 74, 0
2, 20960, Note_on_c, 1, 58, 127
2, 20960, Note_on_c, 1, 62, 127
2, 20960, Note_on_c, 1, 70, 127
2, 20960, Note_on_c, 1, 74, 127
2, 20960, Note_on_c, 1, 79, 127
2, 21000, Note_on_c, 1, 77, 127
2, 21000, Note_off_c, 1, 79, 0
2, 21120, Note_off_c, 1, 58, 0
2, 21120, Note_off_c, 1, 62, 0
2, 21120, Note_off_c, 1, 70, 0
2, 21120, Note_off_c, 1, 74, 0
2, 21120, Note_off_c, 1, 77, 0
2, 21160, Note_on_c, 1, 43, 127
2, 21160, Note_on_c, 1, 58, 127
2, 21160, Note_on_c, 1, 70, 127
2, 21160, Note_on_c, 1, 75, 127
2, 21160, Note_on_c, 1, 79, 127
2, 21280, Note_off_c, 1, 70, 0
2, 21280, Note_off_c, 1, 75, 0
2, 21280, Note_off_c, 1, 79, 0
2, 21280, Note_on_c, 1, 82, 127
2, 21320, Note_off_c, 1, 82, 0
2, 21360, Note_on_c, 1, 55, 127
2, 21360, Note_on_c, 1, 62, 127
2, 21360, Note_on_c, 1, 82, 127
2, 21480, Note_off_c, 1, 43, 0
2, 21480, Note_off_c, 1, 55, 0
2, 21480, Note_off_c, 1, 58, 0
2, 21480, Note_off_c, 1, 62, 0
2, 21480, Note_off_c, 1, 82, 0
2, 21560, Note_on_c, 1, 55, 127
2, 21560, Note_on_c, 1, 58, 127
2, 21560, Note_on_c, 1, 61, 127
2, 21560, Note_on_c, 1, 70, 127
2, 21560, Note_on_c, 1, 73, 127
2, 21560, Note_on_c, 1, 82, 127
2, 21640, Note_off_c, 1, 82, 0
2, 21680, Note_off_c, 1, 55, 0
2, 21680, Note_off_c, 1, 58, 0
2, 21680, Note_off_c, 1, 61, 0
2, 21720, Note_on_c, 1, 55, 127
2, 21720, Note_on_c, 1, 58, 127
2, 21720, Note_on_c, 1, 61, 127
2, 21720, Note_on_c, 1, 79, 127
2, 21800, Note_off_c, 1, 70, 0
2, 21880, Note_off_c, 1, 55, 0
2, 21880, Note_off_c, 1, 58, 0
2, 21880, Note_off_c, 1, 61, 0
2, 21880, Note_off_c, 1, 73, 0
2, 21920, Note_on_c, 1, 55, 127
2, 21920, Note_on_c, 1, 58, 127
2, 21920, Note_on_c, 1, 61, 127
2, 21920, Note_off_c, 1, 79, 0
2, 21920, Note_on_c, 1, 82, 127
2, 22080, Note_off_c, 1, 55, 0
2, 22080, Note_off_c, 1, 58, 0
2, 22080, Note_off_c, 1, 61, 0
2, 22080, Note_off_c, 1, 82, 0
2, 22120, Note_on_c, 1, 55, 127
2, 22120, Note_on_c, 1, 61, 127
2, 22120, Note_on_c, 1, 82, 127
2, 22160, Note_on_c, 1, 81, 127
2, 22160, Note_off_c, 1, 82, 0
2, 22280, Note_off_c, 1, 55, 0
2, 22280, Note_off_c, 1, 61, 0
2, 22280, Note_off_c, 1, 81, 0
2, 22320, Note_on_c, 1, 39, 127
2, 22320, Note_on_c, 1, 51, 127
2, 22320, Note_on_c, 1, 79, 127
2, 22320, Note_on_c, 1, 82, 127
2, 22320, Note_on_c, 1, 84, 127
2, 22440, Note_off_c, 1, 39, 0
2, 22440, Note_off_c, 1, 51, 0
2, 22440, Note_off_c, 1, 79, 0
2, 22440, Note_off_c, 1, 82, 0
2, 22440, Note_off_c, 1, 84, 0
2, 22520, Note_on_c, 1, 51, 127
2, 22520, Note_on_c, 1, 58, 127
2, 22520, Note_on_c, 1, 63, 127
2, 22520, Note_on_c, 1, 79, 127
2, 22520, Note_on_c, 1, 82, 127
2, 22640, Note_off_c, 1, 51, 0
2, 22640, Note_off_c, 1, 58, 0
2, 22640, Note_off_c, 1, 63, 0
2, 22640, Note_off_c, 1, 79, 0
2, 22640, Note_off_c, 1, 82, 0
2, 22680, Note_on_c, 1, 51, 127
2, 22680, Note_on_c, 1, 55, 127
2, 22680, Note_on_c, 1, 60, 127
2, 22680, Note_on_c, 1, 63, 127
2, 22680, Note_on_c, 1, 79, 127
2, 22680, Note_on_c, 1, 82, 127
2, 22760, Note_off_c, 1, 51, 0
2, 22760, Note_on_c, 1, 52, 127
2, 22800, Note_on_c, 1, 51, 127
2, 22800, Note_off_c, 1, 52, 0
2, 22840, Note_off_c, 1, 51, 0
2, 22840, Note_off_c, 1, 55, 0
2, 22840, Note_off_c, 1, 82, 0
2, 22880, Note_on_c, 1, 51, 127
2, 22880, Note_on_c, 1, 55, 127
2, 22880, Note_on_c, 1, 83, 127
2, 23040, Note_off_c, 1, 51, 0
2, 23040, Note_off_c, 1, 55, 0
2, 23040, Note_off_c, 1, 60, 0
2, 23040, Note_off_c, 1, 63, 0
2, 23040, Note_off_c, 1, 79, 0
2, 23040, Note_off_c, 1, 83, 0
2, 23080, Note_on_c, 1, 51, 127
2, 23080, Note_on_c, 1, 55, 127
2, 23080, Note_on_c, 1, 65, 127
2, 23080, Note_on_c, 1, 79, 127
2, 23080, Note_on_c, 1, 83, 127
2, 23240, Note_off_c, 1, 51, 0
2, 23240, Note_off_c, 1, 55, 0
2, 23240, Note_off_c, 1, 65, 0
2, 23240, Note_off_c, 1, 83, 0
2, 23280, Note_on_c, 1, 51, 127
2, 23280, Note_on_c, 1, 55, 127
2, 23280, Note_on_c, 1, 60, 127
2, 23280, Note_on_c, 1, 81, 127
2, 23400, Note_off_c, 1, 51, 0
2, 23400, Note_off_c, 1, 55, 0
2, 23400, Note_off_c, 1, 60, 0
2, 23480, Note_on_c, 1, 51, 127
2, 23480, Note_on_c, 1, 55, 127
2, 23480, Note_on_c, 1, 60, 127
2, 23520, Note_off_c, 1, 81, 0
2, 23600, Note_off_c, 1, 51, 0
2, 23600, Note_off_c, 1, 55, 0
2, 23600, Note_off_c, 1, 60, 0
2, 23600, Note_off_c, 1, 79, 0
2, 23640, Note_on_c, 1, 49, 127
2, 23640, Note_on_c, 1, 50, 127
2, 23640, Note_on_c, 1, 53, 127
2, 23640, Note_on_c, 1, 58, 127
2, 23640, Note_on_c, 1, 77, 127
2, 23720, Note_off_c, 1, 50, 0
2, 23800, Note_off_c, 1, 49, 0
2, 23800, Note_off_c, 1, 53, 0
2, 23800, Note_off_c, 1, 58, 0
2, 23800, Note_off_c, 1, 77, 0
2, 23840, Note_on_c, 1, 46, 127
2, 23840, Note_on_c, 1, 61, 127
2, 23880, Note_on_c, 1, 58, 127
2, 23880, Note_off_c, 1, 61, 0
2, 24000, Note_off_c, 1, 46, 0
2, 24000, Note_off_c, 1, 58, 0
2, 24040, Note_on_c, 1, 45, 127
2, 24040, Note_on_c, 1, 54, 127
2, 24040, Note_on_c, 1, 59, 127
2, 24040, Note_on_c, 1, 67, 127
2, 24080, Note_off_c, 1, 59, 0
2, 24080, Note_off_c, 1, 67, 0
2, 24200, Note_off_c, 1, 45, 0
2, 24200, Note_off_c, 1, 54, 0
2, 24240, Note_on_c, 1, 43, 127
2, 24240, Note_on_c, 1, 55, 127
2, 24240, Note_on_c, 1, 67, 127
2, 24240, Note_on_c, 1, 70, 127
2, 24240, Note_on_c, 1, 85, 127
2, 24360, Note_off_c, 1, 43, 0
2, 24360, Note_off_c, 1, 55, 0
2, 24360, Note_off_c, 1, 67, 0
2, 24360, Note_off_c, 1, 70, 0
2, 24360, Note_off_c, 1, 85, 0
2, 24440, Note_on_c, 1, 44, 127
2, 24440, Note_on_c, 1, 56, 127
2, 24440, Note_on_c, 1, 65, 127
2, 24440, Note_on_c, 1, 70, 127
2, 24440, Note_on_c, 1, 85, 127
2, 24480, Note_off_c, 1, 65, 0
2, 24480, Note_off_c, 1, 70, 0
2, 24480, Note_off_c, 1, 85, 0
2, 24560, Note_off_c, 1, 44, 0
2, 24560, Note_off_c, 1, 56, 0
2, 24600, Note_on_c, 1, 41, 127
2, 24600, Note_on_c, 1, 53, 127
2, 24600, Note_on_c, 1, 64, 127
2, 24600, Note_on_c, 1, 70, 127
2, 24600, Note_on_c, 1, 82, 127
2, 24760, Note_off_c, 1, 41, 0
2, 24760, Note_off_c, 1, 53, 0
2, 24760, Note_off_c, 1, 64, 0
2, 24760, Note_off_c, 1, 70, 0
2, 24760, Note_off_c, 1, 82, 0
2, 24800, Note_on_c, 1, 39, 127
2, 24800, Note_on_c, 1, 51, 127
2, 24800, Note_on_c, 1, 67, 127
2, 24800, Note_on_c, 1, 70, 127
2, 24800, Note_on_c, 1, 82, 127
2, 24960, Note_off_c, 1, 39, 0
2, 24960, Note_off_c, 1, 51, 0
2, 25000, Note_on_c, 1, 37, 127
2, 25000, Note_on_c, 1, 49, 127
2, 25160, Note_off_c, 1, 37, 0
2, 25160, Note_off_c, 1, 49, 0
2, 25160, Note_off_c, 1, 67, 0
2, 25160, Note_off_c, 1, 70, 0
2, 25160, Note_off_c, 1, 82, 0
2, 25200, Note_on_c, 1, 37, 127
2, 25200, Note_on_c, 1, 49, 127
2, 25200, Note_on_c, 1, 82, 127
2, 25240, Note_off_c, 1, 82, 0
2, 25280, Note_on_c, 1, 79, 127
2, 25320, Note_off_c, 1, 37, 0
2, 25320, Note_off_c, 1, 49, 0
2, 25400, Note_on_c, 1, 49, 127
2, 25520, Note_off_c, 1, 49, 0
2, 25520, Note_on_c, 1, 64, 127
2, 25560, Note_on_c, 1, 61, 127
2, 25560, Note_on_c, 1, 67, 127
2, 25560, Note_on_c, 1, 70, 127
2, 25560, Note_on_c, 1, 76, 127
2, 25720, Note_off_c, 1, 64, 0
2, 25720, Note_off_c, 1, 67, 0
2, 25720, Note_off_c, 1, 70, 0
2, 25720, Note_off_c, 1, 76, 0
2, 25720, Note_off_c, 1, 79, 0
2, 25760, Note_on_c, 1, 64, 127
2, 25760, Note_on_c, 1, 67, 127
2, 25760, Note_on_c, 1, 70, 127
2, 25760, Note_on_c, 1, 76, 127
2, 25760, Note_on_c, 1, 79, 127
2, 25920, Note_off_c, 1, 61, 0
2, 25920, Note_off_c, 1, 64, 0
2, 25920, Note_off_c, 1, 67, 0
2, 25920, Note_off_c, 1, 70, 0
2, 25920, Note_off_c, 1, 76, 0
2, 25920, Note_off_c, 1, 79, 0
2, 25960, Note_on_c, 1, 35, 127
2, 25960, Note_on_c, 1, 47, 127
2, 25960, Note_on_c, 1, 63, 127
2, 25960, Note_on_c, 1, 66, 127
2, 25960, Note_on_c, 1, 68, 127
2, 25960, Note_on_c, 1, 71, 127
2, 25960, Note_on_c, 1, 79, 127
2, 26120, Note_off_c, 1, 63, 0
2, 26120, Note_off_c, 1, 66, 0
2, 26120, Note_off_c, 1, 68, 0
2, 26120, Note_off_c, 1, 71, 0
2, 26120, Note_off_c, 1, 79, 0
2, 26160, Note_on_c, 1, 79, 127
2, 26200, Note_off_c, 1, 79, 0
2, 26280, Note_off_c, 1, 35, 0
2, 26280, Note_off_c, 1, 47, 0
2, 26360, Note_on_c, 1, 75, 127
2, 26480, Note_off_c, 1, 75, 0
2, 26520, Note_on_c, 1, 75, 127
2, 26680, Note_off_c, 1, 75, 0
2, 26720, Note_on_c, 1, 49, 127
2, 26720, Note_on_c, 1, 52, 127
2, 26720, Note_on_c, 1, 67, 127
2, 26720, Note_on_c, 1, 70, 127
2, 26720, Note_on_c, 1, 73, 127
2, 26720, Note_on_c, 1, 77, 127
2, 26880, Note_off_c, 1, 49, 0
2, 26880, Note_off_c, 1, 52, 0
2, 26880, Note_off_c, 1, 67, 0
2, 26880, Note_off_c, 1, 70, 0
2, 26880, Note_off_c, 1, 73, 0
2, 26880, Note_off_c, 1, 77, 0
2, 26920, Note_on_c, 1, 63, 127
2, 26920, Note_on_c, 1, 67, 127
2, 27080, Note_off_c, 1, 63, 0
2, 27080, Note_off_c, 1, 67, 0
2, 27120, Note_on_c, 1, 49, 127
2, 27120, Note_on_c, 1, 52, 127
2, 27120, Note_on_c, 1, 61, 127
2, 27120, Note_on_c, 1, 67, 127
2, 27120, Note_on_c, 1, 79, 127
2, 27120, Note_on_c, 1, 87, 127
2, 27240, Note_off_c, 1, 49, 0
2, 27240, Note_off_c, 1, 52, 0
2, 27240, Note_off_c, 1, 61, 0
2, 27240, Note_off_c, 1, 67, 0
2, 27240, Note_off_c, 1, 79, 0
2, 27240, Note_off_c, 1, 87, 0
2, 27320, Note_on_c, 1, 55, 127
2, 27320, Note_on_c, 1, 61, 127
2, 27320, Note_on_c, 1, 64, 127
2, 27320, Note_on_c, 1, 78, 127
2, 27320, Note_on_c, 1, 88, 127
2, 27440, Note_off_c, 1, 55, 0
2, 27440, Note_off_c, 1, 61, 0
2, 27440, Note_off_c, 1, 64, 0
2, 27440, Note_off_c, 1, 78, 0
2, 27440, Note_off_c, 1, 88, 0
2, 27480, Note_on_c, 1, 58, 127
2, 27480, Note_on_c, 1, 61, 127
2, 27480, Note_on_c, 1, 64, 127
2, 27480, Note_on_c, 1, 78, 127
2, 27480, Note_on_c, 1, 90, 127
2, 27640, Note_off_c, 1, 58, 0
2, 27640, Note_off_c, 1, 61, 0
2, 27640, Note_off_c, 1, 64, 0
2, 27640, Note_off_c, 1, 78, 0
2, 27640, Note_off_c, 1, 90, 0
2, 27680, Note_on_c, 1, 58, 127
2, 27680, Note_on_c, 1, 61, 127
2, 27680, Note_on_c, 1, 64, 127
2, 27680, Note_on_c, 1, 76, 127
2, 27680, Note_on_c, 1, 88, 127
2, 27840, Note_off_c, 1, 58, 0
2, 27840, Note_off_c, 1, 61, 0
2, 27840, Note_off_c, 1, 64, 0
2, 27840, Note_off_c, 1, 76, 0
2, 27840, Note_off_c, 1, 88, 0
2, 27880, Note_on_c, 1, 55, 127
2, 27880, Note_on_c, 1, 61, 127
2, 27880, Note_on_c, 1, 64, 127
2, 27880, Note_on_c, 1, 73, 127
2, 27880, Note_on_c, 1, 88, 127
2, 28000, Note_on_c, 1, 54, 127
2, 28000, Note_off_c, 1, 55, 0
2, 28040, Note_off_c, 1, 54, 0
2, 28040, Note_off_c, 1, 61, 0
2, 28040, Note_off_c, 1, 64, 0
2, 28040, Note_off_c, 1, 73, 0
2, 28040, Note_off_c, 1, 88, 0
2, 28080, Note_on_c, 1, 54, 127
2, 28080, Note_on_c, 1, 59, 127
2, 28080, Note_on_c, 1, 62, 127
2, 28080, Note_on_c, 1, 74, 127
2, 28080, Note_on_c, 1, 86, 127
2, 28200, Note_off_c, 1, 54, 0
2, 28200, Note_off_c, 1, 59, 0
2, 28200, Note_off_c, 1, 62, 0
2, 28200, Note_off_c, 1, 74, 0
2, 28200, Note_off_c, 1, 86, 0
2, 28280, Note_on_c, 1, 54, 127
2, 28280, Note_on_c, 1, 58, 127
2, 28280, Note_on_c, 1, 64, 127
2, 28280, Note_on_c, 1, 73, 127
2, 28280, Note_on_c, 1, 85, 127
2, 28400, Note_off_c, 1, 54, 0
2, 28400, Note_off_c, 1, 58, 0
2, 28400, Note_off_c, 1, 64, 0
2, 28400, Note_off_c, 1, 73, 0
2, 28400, Note_off_c, 1, 85, 0
2, 28440, Note_on_c, 1, 54, 127
2, 28440, Note_on_c, 1, 61, 127
2, 28440, Note_on_c, 1, 64, 127
2, 28440, Note_on_c, 1, 76, 127
2, 28440, Note_on_c, 1, 85, 127
2, 28480, Note_on_c, 1, 84, 127
2, 28480, Note_off_c, 1, 85, 0
2, 28600, Note_off_c, 1, 54, 0
2, 28600, Note_off_c, 1, 61, 0
2, 28600, Note_off_c, 1, 64, 0
2, 28600, Note_off_c, 1, 76, 0
2, 28600, Note_off_c, 1, 84, 0
2, 28640, Note_on_c, 1, 54, 127
2, 28640, Note_on_c, 1, 61, 127
2, 28640, Note_on_c, 1, 64, 127
2, 28640, Note_on_c, 1, 76, 127
2, 28640, Note_on_c, 1, 82, 127
2, 28800, Note_off_c, 1, 54, 0
2, 28800, Note_off_c, 1, 61, 0
2, 28800, Note_off_c, 1, 64, 0
2, 28800, Note_off_c, 1, 76, 0
2, 28800, Note_off_c, 1, 82, 0
2, 28840, Note_on_c, 1, 54, 127
2, 28840, Note_on_c, 1, 61, 127
2, 28840, Note_on_c, 1, 64, 127
2, 28840, Note_on_c, 1, 76, 127
2, 28840, Note_on_c, 1, 82, 127
2, 28960, Note_off_c, 1, 54, 0
2, 28960, Note_off_c, 1, 61, 0
2, 28960, Note_off_c, 1, 64, 0
2, 28960, Note_off_c, 1, 76, 0
2, 28960, Note_off_c, 1, 82, 0
2, 29040, Note_on_c, 1, 35, 127
2, 29040, Note_on_c, 1, 47, 127
2, 29040, Note_on_c, 1, 54, 127
2, 29040, Note_on_c, 1, 59, 127
2, 29040, Note_on_c, 1, 62, 127
2, 29040, Note_on_c, 1, 71, 127
2, 29040, Note_on_c, 1, 83, 127
2, 29160, Note_off_c, 1, 54, 0
2, 29160, Note_off_c, 1, 59, 0
2, 29160, Note_off_c, 1, 62, 0
2, 29160, Note_off_c, 1, 71, 0
2, 29160, Note_off_c, 1, 83, 0
2, 29240, Note_off_c, 1, 35, 0
2, 29240, Note_on_c, 1, 54, 127
2, 29240, Note_on_c, 1, 59, 127
2, 29240, Note_on_c, 1, 62, 127
2, 29240, Note_on_c, 1, 71, 127
2, 29240, Note_on_c, 1, 83, 127
2, 29360, Note_off_c, 1, 47, 0
2, 29360, Note_off_c, 1, 54, 0
2, 29360, Note_off_c, 1, 59, 0
2, 29360, Note_off_c, 1, 62, 0
2, 29360, Note_off_c, 1, 71, 0
2, 29360, Note_off_c, 1, 83, 0
2, 29400, Note_on_c, 1, 59, 127
2, 29400, Note_on_c, 1, 62, 127
2, 29400, Note_on_c, 1, 71, 127
2, 29400, Note_on_c, 1, 83, 127
2, 29560, Note_off_c, 1, 59, 0
2, 29560, Note_off_c, 1, 62, 0
2, 29600, Note_on_c, 1, 59, 127
2, 29600, Note_on_c, 1, 62, 127
2, 29760, Note_off_c, 1, 59, 0
2, 29760, Note_off_c, 1, 62, 0
2, 29760, Note_off_c, 1, 71, 0
2, 29760, Note_off_c, 1, 83, 0
2, 29800, Note_on_c, 1, 40, 127
2, 29800, Note_on_c, 1, 52, 127
2, 29800, Note_on_c, 1, 60, 127
2, 29800, Note_on_c, 1, 73, 127
2, 29800, Note_on_c, 1, 81, 127
2, 29960, Note_off_c, 1, 40, 0
2, 29960, Note_off_c, 1, 52, 0
2, 29960, Note_off_c, 1, 60, 0
2, 29960, Note_off_c, 1, 73, 0
2, 29960, Note_off_c, 1, 81, 0
2, 30000, Note_on_c, 1, 61, 127
2, 30000, Note_on_c, 1, 64, 127
2, 30000, Note_on_c, 1, 67, 127
2, 30000, Note_on_c, 1, 79, 127
2, 30040, Note_off_c, 1, 79, 0
2, 30120, Note_off_c, 1, 61, 0
2, 30120, Note_off_c, 1, 64, 0
2, 30120, Note_off_c, 1, 67, 0
2, 30200, Note_on_c, 1, 61, 127
2, 30200, Note_on_c, 1, 64, 127
2, 30200, Note_on_c, 1, 67, 127
2, 30200, Note_on_c, 1, 79, 127
2, 30240, Note_off_c, 1, 79, 0
2, 30360, Note_on_c, 1, 85, 127
2, 30520, Note_off_c, 1, 61, 0
2, 30520, Note_off_c, 1, 64, 0
2, 30520, Note_off_c, 1, 67, 0
2, 30520, Note_off_c, 1, 85, 0
2, 30560, Note_on_c, 1, 38, 127
2, 30560, Note_on_c, 1, 50, 127
2, 30560, Note_on_c, 1, 57, 127
2, 30560, Note_on_c, 1, 61, 127
2, 30560, Note_on_c, 1, 66, 127
2, 30560, Note_on_c, 1, 69, 127
2, 30560, Note_on_c, 1, 74, 127
2, 30560, Note_on_c, 1, 78, 127
2, 30560, Note_on_c, 1, 81, 127
2, 30720, Note_off_c, 1, 61, 0
2, 30760, Note_on_c, 1, 62, 127
2, 30920, Note_off_c, 1, 57, 0
2, 31280, Note_off_c, 1, 38, 0
2, 31280, Note_off_c, 1, 50, 0
2, 31280, Note_off_c, 1, 62, 0
2, 31280, Note_off_c, 1, 66, 0
2, 31280, Note_off_c, 1, 69, 0
2, 31280, Note_off_c, 1, 74, 0
2, 31280, Note_off_c, 1, 78, 0
2, 31280, Note_off_c, 1, 81, 0
2, 31320, Note_on_c, 1, 38, 127
2, 31320, Note_on_c, 1, 50, 127
2, 31320, Note_on_c, 1, 66, 127
2, 31320, Note_on_c, 1, 69, 127
2, 31320, Note_on_c, 1, 74, 127
2, 31320, Note_on_c, 1, 78, 127
2, 31640, Note_on_c, 1, 81, 127
2, 31680, Note_off_c, 1, 38, 0
2, 31680, Note_off_c, 1, 50, 0
2, 31680, Note_off_c, 1, 66, 0
2, 31680, Note_off_c, 1, 69, 0
2, 31680, Note_off_c, 1, 74, 0
2, 31680, Note_off_c, 1, 78, 0
2, 31720, Note_on_c, 1, 38, 127
2, 31720, Note_on_c, 1, 50, 127
2, 31880, Note_off_c, 1, 50, 0
2, 31880, Note_off_c, 1, 81, 0
2, 32040, Note_off_c, 1, 38, 0
2, 32120, Note_on_c, 1, 41, 127
2, 32120, Note_on_c, 1, 53, 127
2, 32120, Note_on_c, 1, 57, 127
2, 32120, Note_on_c, 1, 65, 127
2, 32120, Note_on_c, 1, 69, 127
2, 32120, Note_on_c, 1, 71, 127
2, 32120, Note_on_c, 1, 74, 127
2, 32240, Note_off_c, 1, 74, 0
2, 32280, Note_on_c, 1, 73, 127
2, 32360, Note_off_c, 1, 73, 0
2, 32440, Note_off_c, 1, 41, 0
2, 32440, Note_off_c, 1, 53, 0
2, 32440, Note_off_c, 1, 57, 0
2, 32440, Note_off_c, 1, 65, 0
2, 32440, Note_off_c, 1, 69, 0
2, 32440, Note_off_c, 1, 71, 0
2, 32480, Note_on_c, 1, 40, 127
2, 32480, Note_on_c, 1, 52, 127
2, 32480, Note_on_c, 1, 64, 127
2, 32480, Note_on_c, 1, 68, 127
2, 32480, Note_on_c, 1, 71, 127
2, 32480, Note_on_c, 1, 73, 127
2, 32520, Note_off_c, 1, 73, 0
2, 32680, Note_on_c, 1, 74, 127
2, 32720, Note_off_c, 1, 74, 0
2, 32840, Note_off_c, 1, 40, 0
2, 32840, Note_off_c, 1, 52, 0
2, 32840, Note_off_c, 1, 71, 0
2, 32880, Note_on_c, 1, 74, 127
2, 33000, Note_off_c, 1, 64, 0
2, 33000, Note_off_c, 1, 68, 0
2, 33000, Note_off_c, 1, 74, 0
2, 33080, Note_on_c, 1, 49, 127
2, 33080, Note_on_c, 1, 57, 127
2, 33080, Note_on_c, 1, 73, 127
2, 33080, Note_on_c, 1, 76, 127
2, 33120, Note_off_c, 1, 76, 0
2, 33200, Note_off_c, 1, 49, 0
2, 33200, Note_off_c, 1, 57, 0
2, 33200, Note_off_c, 1, 73, 0
2, 33240, Note_on_c, 1, 40, 127
2, 33240, Note_on_c, 1, 52, 127
2, 33240, Note_on_c, 1, 70, 127
2, 33240, Note_on_c, 1, 73, 127
2, 33240, Note_on_c, 1, 76, 127
2, 33320, Note_off_c, 1, 76, 0
2, 33360, Note_on_c, 1, 80, 127
2, 33400, Note_off_c, 1, 80, 0
2, 33440, Note_on_c, 1, 79, 127
2, 33480, Note_off_c, 1, 79, 0
2, 33560, Note_on_c, 1, 83, 127
2, 33600, Note_off_c, 1, 40, 0
2, 33600, Note_off_c, 1, 52, 0
2, 33600, Note_off_c, 1, 70, 0
2, 33600, Note_off_c, 1, 73, 0
2, 33600, Note_off_c, 1, 83, 0
2, 33640, Note_on_c, 1, 38, 127
2, 33640, Note_on_c, 1, 50, 127
2, 33640, Note_on_c, 1, 71, 127
2, 33640, Note_on_c, 1, 74, 127
2, 33640, Note_on_c, 1, 78, 127
2, 33640, Note_on_c, 1, 83, 127
2, 33680, Note_off_c, 1, 78, 0
2, 33680, Note_off_c, 1, 83, 0
2, 33720, Note_on_c, 1, 83, 127
2, 33800, Note_off_c, 1, 83, 0
2, 33840, Note_on_c, 1, 77, 127
2, 33880, Note_off_c, 1, 77, 0
2, 33920, Note_on_c, 1, 86, 127
2, 34000, Note_off_c, 1, 86, 0
2, 34040, Note_on_c, 1, 80, 127
2, 34040, Note_on_c, 1, 86, 127
2, 34080, Note_off_c, 1, 86, 0
2, 34160, Note_off_c, 1, 38, 0
2, 34160, Note_off_c, 1, 50, 0
2, 34160, Note_off_c, 1, 71, 0
2, 34160, Note_off_c, 1, 74, 0
2, 34160, Note_off_c, 1, 80, 0
2, 34200, Note_on_c, 1, 36, 127
2, 34200, Note_on_c, 1, 48, 127
2, 34200, Note_on_c, 1, 72, 127
2, 34200, Note_on_c, 1, 75, 127
2, 34200, Note_on_c, 1, 81, 127
2, 34200, Note_on_c, 1, 88, 127
2, 34280, Note_on_c, 1, 87, 127
2, 34280, Note_off_c, 1, 88, 0
2, 34360, Note_on_c, 1, 74, 127
2, 34360, Note_off_c, 1, 75, 0
2, 34360, Note_on_c, 1, 82, 127
2, 34360, Note_off_c, 1, 87, 0
2, 34400, Note_off_c, 1, 74, 0
2, 34400, Note_on_c, 1, 75, 127
2, 34400, Note_off_c, 1, 82, 0
2, 34520, Note_on_c, 1, 85, 127
2, 34560, Note_off_c, 1, 36, 0
2, 34560, Note_off_c, 1, 48, 0
2, 34560, Note_off_c, 1, 72, 0
2, 34560, Note_off_c, 1, 75, 0
2, 34560, Note_off_c, 1, 81, 0
2, 34560, Note_off_c, 1, 85, 0
2, 34600, Note_on_c, 1, 57, 127
2, 34600, Note_on_c, 1, 81, 127
2, 34640, Note_off_c, 1, 81, 0
2, 34680, Note_on_c, 1, 81, 127
2, 34760, Note_off_c, 1, 81, 0
2, 34800, Note_on_c, 1, 79, 127
2, 34840, Note_off_c, 1, 79, 0
2, 34880, Note_on_c, 1, 78, 127
2, 34920, Note_off_c, 1, 57, 0
2, 34920, Note_off_c, 1, 78, 0
2, 35000, Note_on_c, 1, 69, 127
2, 35000, Note_on_c, 1, 81, 127
2, 35040, Note_off_c, 1, 81, 0
2, 35080, Note_on_c, 1, 79, 127
2, 35120, Note_off_c, 1, 79, 0
2, 35160, Note_on_c, 1, 81, 127
2, 35240, Note_off_c, 1, 81, 0
2, 35280, Note_on_c, 1, 76, 127
2, 35320, Note_off_c, 1, 76, 0
2, 35360, Note_on_c, 1, 81, 127
2, 35400, Note_off_c, 1, 81, 0
2, 35480, Note_on_c, 1, 79, 127
2, 35520, Note_off_c, 1, 79, 0
2, 35560, Note_on_c, 1, 81, 127
2, 35600, Note_off_c, 1, 81, 0
2, 35640, Note_on_c, 1, 79, 127
2, 35720, Note_off_c, 1, 69, 0
2, 35720, Note_off_c, 1, 79, 0
2, 35760, Note_on_c, 1, 47, 127
2, 35760, Note_on_c, 1, 59, 127
2, 35760, Note_on_c, 1, 63, 127
2, 35760, Note_on_c, 1, 66, 127
2, 35760, Note_on_c, 1, 78, 127
2, 35880, Note_off_c, 1, 78, 0
2, 35960, Note_on_c, 1, 75, 127
2, 36080, Note_off_c, 1, 47, 0
2, 36080, Note_off_c, 1, 75, 0
2, 36120, Note_on_c, 1, 38, 127
2, 36120, Note_on_c, 1, 62, 127
2, 36120, Note_on_c, 1, 71, 127
2, 36160, Note_off_c, 1, 62, 0
2, 36280, Note_off_c, 1, 71, 0
2, 36320, Note_on_c, 1, 81, 127
2, 36480, Note_off_c, 1, 38, 0
2, 36480, Note_off_c, 1, 59, 0
2, 36480, Note_off_c, 1, 63, 0
2, 36480, Note_off_c, 1, 66, 0
2, 36480, Note_off_c, 1, 81, 0
2, 36520, Note_on_c, 1, 40, 127
2, 36520, Note_on_c, 1, 52, 127
2, 36520, Note_on_c, 1, 59, 127
2, 36520, Note_on_c, 1, 64, 127
2, 36520, Note_on_c, 1, 68, 127
2, 36520, Note_on_c, 1, 80, 127
2, 36560, Note_off_c, 1, 80, 0
2, 36680, Note_off_c, 1, 64, 0
2, 36720, Note_on_c, 1, 64, 127
2, 36920, Note_on_c, 1, 83, 127
2, 37040, Note_off_c, 1, 83, 0
2, 37080, Note_on_c, 1, 81, 127
2, 37160, Note_off_c, 1, 81, 0
2, 37240, Note_off_c, 1, 52, 0
2, 37280, Note_on_c, 1, 52, 127
2, 37280, Note_on_c, 1, 83, 127
2, 37320, Note_off_c, 1, 83, 0
2, 37480, Note_on_c, 1, 78, 127
2, 37520, Note_off_c, 1, 78, 0
2, 37560, Note_on_c, 1, 80, 127
2, 37640, Note_off_c, 1, 40, 0
2, 37640, Note_off_c, 1, 52, 0
2, 37640, Note_off_c, 1, 59, 0
2, 37640, Note_off_c, 1, 64, 0
2, 37640, Note_off_c, 1, 68, 0
2, 37640, Note_off_c, 1, 80, 0
2, 37680, Note_on_c, 1, 40, 127
2, 37680, Note_on_c, 1, 52, 127
2, 37680, Note_on_c, 1, 56, 127
2, 37680, Note_on_c, 1, 59, 127
2, 37680, Note_on_c, 1, 64, 127
2, 37680, Note_on_c, 1, 68, 127
2, 37680, Note_on_c, 1, 71, 127
2, 37680, Note_on_c, 1, 76, 127
2, 37800, Note_off_c, 1, 76, 0
2, 37880, Note_on_c, 1, 80, 127
2, 37920, Note_off_c, 1, 80, 0
2, 38040, Note_on_c, 1, 76, 127
2, 38120, Note_off_c, 1, 76, 0
2, 38160, Note_on_c, 1, 78, 127
2, 38200, Note_off_c, 1, 78, 0
2, 38240, Note_on_c, 1, 75, 127
2, 38280, Note_off_c, 1, 75, 0
2, 38360, Note_on_c, 1, 76, 127
2, 38400, Note_off_c, 1, 40, 0
2, 38400, Note_off_c, 1, 52, 0
2, 38400, Note_off_c, 1, 56, 0
2, 38400, Note_off_c, 1, 59, 0
2, 38400, Note_off_c, 1, 64, 0
2, 38400, Note_off_c, 1, 68, 0
2, 38400, Note_off_c, 1, 71, 0
2, 38400, Note_off_c, 1, 76, 0
2, 38440, Note_on_c, 1, 42, 127
2, 38440, Note_on_c, 1, 54, 127
2, 38440, Note_on_c, 1, 57, 127
2, 38440, Note_on_c, 1, 63, 127
2, 38440, Note_on_c, 1, 66, 127
2, 38440, Note_on_c, 1, 78, 127
2, 38480, Note_off_c, 1, 78, 0
2, 38640, Note_on_c, 1, 85, 127
2, 38680, Note_off_c, 1, 85, 0
2, 38720, Note_on_c, 1, 81, 127
2, 38760, Note_off_c, 1, 81, 0
2, 38840, Note_on_c, 1, 76, 127
2, 38880, Note_off_c, 1, 76, 0
2, 38920, Note_on_c, 1, 78, 127
2, 38960, Note_off_c, 1, 78, 0
2, 39000, Note_on_c, 1, 78, 127
2, 39000, Note_on_c, 1, 81, 127
2, 39080, Note_off_c, 1, 78, 0
2, 39160, Note_off_c, 1, 42, 0
2, 39160, Note_off_c, 1, 54, 0
2, 39160, Note_off_c, 1, 57, 0
2, 39160, Note_off_c, 1, 63, 0
2, 39160, Note_off_c, 1, 66, 0
2, 39160, Note_off_c, 1, 81, 0
2, 39240, Note_on_c, 1, 75, 127
2, 39280, Note_off_c, 1, 75, 0
2, 39320, Note_on_c, 1, 78, 127
2, 39360, Note_off_c, 1, 78, 0
2, 39400, Note_on_c, 1, 78, 127
2, 39480, Note_off_c, 1, 78, 0
2, 39520, Note_on_c, 1, 81, 127
2, 39760, Note_off_c, 1, 81, 0
2, 39800, Note_on_c, 1, 49, 127
2, 39800, Note_on_c, 1, 52, 127
2, 39800, Note_on_c, 1, 56, 127
2, 39800, Note_on_c, 1, 64, 127
2, 39800, Note_on_c, 1, 83, 127
2, 39840, Note_off_c, 1, 83, 0
2, 39880, Note_on_c, 1, 81, 127
2, 39960, Note_off_c, 1, 81, 0
2, 40000, Note_on_c, 1, 80, 127
2, 40040, Note_off_c, 1, 80, 0
2, 40080, Note_on_c, 1, 76, 127
2, 40120, Note_off_c, 1, 49, 0
2, 40120, Note_off_c, 1, 52, 0
2, 40120, Note_off_c, 1, 56, 0
2, 40120, Note_off_c, 1, 64, 0
2, 40120, Note_off_c, 1, 76, 0
2, 40200, Note_on_c, 1, 75, 127
2, 40200, Note_on_c, 1, 81, 127
2, 40240, Note_off_c, 1, 75, 0
2, 40240, Note_off_c, 1, 81, 0
2, 40280, Note_on_c, 1, 80, 127
2, 40320, Note_off_c, 1, 80, 0
2, 40360, Note_on_c, 1, 76, 127
2, 40360, Note_on_c, 1, 80, 127
2, 40440, Note_off_c, 1, 76, 0
2, 40440, Note_off_c, 1, 80, 0
2, 40480, Note_on_c, 1, 82, 127
2, 40520, Note_off_c, 1, 82, 0
2, 40560, Note_on_c, 1, 47, 127
2, 40560, Note_on_c, 1, 59, 127
2, 40560, Note_on_c, 1, 71, 127
2, 40560, Note_on_c, 1, 75, 127
2, 40600, Note_off_c, 1, 47, 0
2, 40600, Note_off_c, 1, 59, 0
2, 40600, Note_off_c, 1, 71, 0
2, 40600, Note_off_c, 1, 75, 0
2, 40680, Note_on_c, 1, 80, 127
2, 40720, Note_off_c, 1, 80, 0
2, 40760, Note_on_c, 1, 45, 127
2, 40760, Note_on_c, 1, 57, 127
2, 40760, Note_on_c, 1, 64, 127
2, 40760, Note_on_c, 1, 69, 127
2, 40760, Note_on_c, 1, 73, 127
2, 40800, Note_off_c, 1, 73, 0
2, 40840, Note_on_c, 1, 76, 127
2, 40880, Note_off_c, 1, 76, 0
2, 40920, Note_off_c, 1, 45, 0
2, 40920, Note_off_c, 1, 64, 0
2, 40920, Note_off_c, 1, 69, 0
2, 40920, Note_on_c, 1, 75, 127
2, 40960, Note_on_c, 1, 61, 127
2, 40960, Note_on_c, 1, 64, 127
2, 40960, Note_on_c, 1, 69, 127
2, 40960, Note_off_c, 1, 75, 0
2, 41040, Note_on_c, 1, 76, 127
2, 41080, Note_off_c, 1, 76, 0
2, 41160, Note_on_c, 1, 73, 127
2, 41200, Note_off_c, 1, 73, 0
2, 41240, Note_on_c, 1, 75, 127
2, 41280, Note_off_c, 1, 57, 0
2, 41280, Note_off_c, 1, 61, 0
2, 41280, Note_off_c, 1, 64, 0
2, 41280, Note_off_c, 1, 69, 0
2, 41280, Note_off_c, 1, 75, 0
2, 41320, Note_on_c, 1, 73, 127
2, 41400, Note_off_c, 1, 73, 0
2, 41440, Note_on_c, 1, 71, 127
2, 41480, Note_off_c, 1, 71, 0
2, 41520, Note_on_c, 1, 69, 127
2, 41560, Note_off_c, 1, 69, 0
2, 41640, Note_on_c, 1, 68, 127
2, 41680, Note_off_c, 1, 68, 0
2, 41720, Note_on_c, 1, 78, 127
2, 41760, Note_off_c, 1, 78, 0
2, 41800, Note_on_c, 1, 76, 127
2, 41880, Note_off_c, 1, 76, 0
2, 41920, Note_on_c, 1, 71, 127
2, 41960, Note_off_c, 1, 71, 0
2, 42000, Note_on_c, 1, 68, 127
2, 42040, Note_off_c, 1, 68, 0
2, 42120, Note_on_c, 1, 47, 127
2, 42120, Note_on_c, 1, 59, 127
2, 42120, Note_on_c, 1, 63, 127
2, 42120, Note_on_c, 1, 66, 127
2, 42120, Note_on_c, 1, 69, 127
2, 42160, Note_off_c, 1, 69, 0
2, 42200, Note_on_c, 1, 75, 127
2, 42240, Note_off_c, 1, 47, 0
2, 42240, Note_off_c, 1, 59, 0
2, 42240, Note_off_c, 1, 63, 0
2, 42240, Note_off_c, 1, 66, 0
2, 42240, Note_off_c, 1, 75, 0
2, 42280, Note_on_c, 1, 52, 127
2, 42280, Note_on_c, 1, 61, 127
2, 42280, Note_on_c, 1, 76, 127
2, 42320, Note_off_c, 1, 76, 0
2, 42360, Note_off_c, 1, 52, 0
2, 42360, Note_off_c, 1, 61, 0
2, 42400, Note_on_c, 1, 73, 127
2, 42440, Note_off_c, 1, 73, 0
2, 42480, Note_on_c, 1, 47, 127
2, 42480, Note_on_c, 1, 59, 127
2, 42480, Note_on_c, 1, 63, 127
2, 42480, Note_on_c, 1, 71, 127
2, 42520, Note_off_c, 1, 71, 0
2, 42600, Note_on_c, 1, 69, 127
2, 42640, Note_off_c, 1, 47, 0
2, 42640, Note_off_c, 1, 59, 0
2, 42640, Note_off_c, 1, 63, 0
2, 42640, Note_off_c, 1, 69, 0
2, 42680, Note_on_c, 1, 68, 127
2, 42720, Note_off_c, 1, 68, 0
2, 42760, Note_on_c, 1, 69, 127
2, 42840, Note_off_c, 1, 69, 0
2, 42880, Note_on_c, 1, 52, 127
2, 42880, Note_on_c, 1, 59, 127
2, 42880, Note_on_c, 1, 64, 127
2, 42880, Note_on_c, 1, 68, 127
2, 42920, Note_off_c, 1, 64, 0
2, 42920, Note_off_c, 1, 68, 0
2, 42960, Note_on_c, 1, 71, 127
2, 43000, Note_off_c, 1, 52, 0
2, 43000, Note_off_c, 1, 59, 0
2, 43000, Note_off_c, 1, 71, 0
2, 43080, Note_on_c, 1, 73, 127
2, 43120, Note_off_c, 1, 73, 0
2, 43160, Note_on_c, 1, 71, 127
2, 43200, Note_off_c, 1, 71, 0
2, 43240, Note_on_c, 1, 52, 127
2, 43240, Note_on_c, 1, 56, 127
2, 43240, Note_on_c, 1, 61, 127
2, 43240, Note_on_c, 1, 73, 127
2, 43320, Note_off_c, 1, 52, 0
2, 43320, Note_off_c, 1, 73, 0
2, 43360, Note_on_c, 1, 71, 127
2, 43400, Note_off_c, 1, 71, 0
2, 43440, Note_on_c, 1, 54, 127
2, 43440, Note_on_c, 1, 64, 127
2, 43480, Note_off_c, 1, 64, 0
2, 43560, Note_on_c, 1, 73, 127
2, 43600, Note_off_c, 1, 54, 0
2, 43600, Note_off_c, 1, 73, 0
2, 43640, Note_on_c, 1, 52, 127
2, 43640, Note_on_c, 1, 73, 127
2, 43680, Note_off_c, 1, 52, 0
2, 43680, Note_off_c, 1, 73, 0
2, 43720, Note_on_c, 1, 76, 127
2, 43800, Note_off_c, 1, 76, 0
2, 43840, Note_on_c, 1, 52, 127
2, 43840, Note_on_c, 1, 68, 127
2, 43880, Note_off_c, 1, 52, 0
2, 43880, Note_off_c, 1, 68, 0
2, 43920, Note_on_c, 1, 76, 127
2, 43960, Note_off_c, 1, 56, 0
2, 43960, Note_off_c, 1, 61, 0
2, 43960, Note_off_c, 1, 76, 0
2, 44040, Note_on_c, 1, 54, 127
2, 44040, Note_on_c, 1, 57, 127
2, 44040, Note_on_c, 1, 61, 127
2, 44040, Note_on_c, 1, 66, 127
2, 44080, Note_off_c, 1, 66, 0
2, 44120, Note_on_c, 1, 78, 127
2, 44160, Note_off_c, 1, 54, 0
2, 44160, Note_off_c, 1, 57, 0
2, 44160, Note_off_c, 1, 78, 0
2, 44200, Note_on_c, 1, 56, 127
2, 44200, Note_on_c, 1, 78, 127
2, 44280, Note_off_c, 1, 56, 0
2, 44280, Note_off_c, 1, 78, 0
2, 44320, Note_on_c, 1, 80, 127
2, 44360, Note_off_c, 1, 80, 0
2, 44400, Note_on_c, 1, 54, 127
2, 44400, Note_on_c, 1, 78, 127
2, 44440, Note_off_c, 1, 78, 0
2, 44520, Note_on_c, 1, 75, 127
2, 44560, Note_off_c, 1, 54, 0
2, 44560, Note_off_c, 1, 75, 0
2, 44600, Note_on_c, 1, 56, 127
2, 44600, Note_on_c, 1, 68, 127
2, 44640, Note_off_c, 1, 68, 0
2, 44720, Note_on_c, 1, 66, 127
2, 44760, Note_off_c, 1, 56, 0
2, 44760, Note_off_c, 1, 66, 0
2, 44800, Note_on_c, 1, 58, 127
2, 44800, Note_on_c, 1, 66, 127
2, 44840, Note_off_c, 1, 66, 0
2, 44880, Note_on_c, 1, 70, 127
2, 44920, Note_off_c, 1, 70, 0
2, 45000, Note_on_c, 1, 71, 127
2, 45040, Note_off_c, 1, 71, 0
2, 45080, Note_on_c, 1, 73, 127
2, 45120, Note_off_c, 1, 58, 0
2, 45120, Note_off_c, 1, 61, 0
2, 45120, Note_off_c, 1, 73, 0
2, 45160, Note_on_c, 1, 75, 127
2, 45200, Note_off_c, 1, 75, 0
2, 45280, Note_on_c, 1, 73, 127
2, 45320, Note_off_c, 1, 73, 0
2, 45360, Note_on_c, 1, 83, 127
2, 45400, Note_off_c, 1, 83, 0
2, 45480, Note_on_c, 1, 73, 127
2, 45520, Note_off_c, 1, 73, 0
2, 45560, Note_on_c, 1, 40, 127
2, 45560, Note_on_c, 1, 52, 127
2, 45560, Note_on_c, 1, 71, 127
2, 45600, Note_off_c, 1, 71, 0
2, 45640, Note_on_c, 1, 85, 127
2, 45720, Note_off_c, 1, 40, 0
2, 45720, Note_off_c, 1, 52, 0
2, 45720, Note_off_c, 1, 85, 0
2, 45760, Note_on_c, 1, 83, 127
2, 45800, Note_off_c, 1, 83, 0
2, 45840, Note_on_c, 1, 80, 127
2, 45880, Note_off_c, 1, 80, 0
2, 45960, Note_on_c, 1, 39, 127
2, 45960, Note_on_c, 1, 51, 127
2, 45960, Note_on_c, 1, 63, 127
2, 46000, Note_off_c, 1, 63, 0
2, 46040, Note_on_c, 1, 61, 127
2, 46080, Note_off_c, 1, 39, 0
2, 46080, Note_off_c, 1, 51, 0
2, 46080, Note_off_c, 1, 61, 0
2, 46120, Note_on_c, 1, 59, 127
2, 46240, Note_on_c, 1, 75, 127
2, 46280, Note_off_c, 1, 59, 0
2, 46280, Note_off_c, 1, 75, 0
2, 46320, Note_on_c, 1, 61, 127
2, 46360, Note_off_c, 1, 61, 0
2, 46440, Note_on_c, 1, 71, 127
2, 46480, Note_off_c, 1, 71, 0
2, 46520, Note_on_c, 1, 61, 127
2, 46560, Note_off_c, 1, 61, 0
2, 46600, Note_on_c, 1, 71, 127
2, 46680, Note_off_c, 1, 71, 0
2, 46720, Note_on_c, 1, 61, 127
2, 46760, Note_off_c, 1, 61, 0
2, 46800, Note_on_c, 1, 71, 127
2, 46840, Note_off_c, 1, 71, 0
2, 46920, Note_on_c, 1, 44, 127
2, 46920, Note_on_c, 1, 56, 127
2, 46920, Note_on_c, 1, 60, 127
2, 46920, Note_on_c, 1, 69, 127
2, 46920, Note_on_c, 1, 72, 127
2, 46960, Note_off_c, 1, 72, 0
2, 47000, Note_on_c, 1, 78, 127
2, 47040, Note_off_c, 1, 60, 0
2, 47040, Note_off_c, 1, 69, 0
2, 47040, Note_off_c, 1, 78, 0
2, 47080, Note_on_c, 1, 60, 127
2, 47080, Note_on_c, 1, 68, 127
2, 47080, Note_on_c, 1, 80, 127
2, 47160, Note_off_c, 1, 80, 0
2, 47200, Note_on_c, 1, 73, 127
2, 47240, Note_off_c, 1, 60, 0
2, 47240, Note_off_c, 1, 68, 0
2, 47240, Note_off_c, 1, 73, 0
2, 47280, Note_on_c, 1, 60, 127
2, 47280, Note_on_c, 1, 68, 127
2, 47280, Note_on_c, 1, 75, 127
2, 47280, Note_on_c, 1, 77, 127
2, 47320, Note_off_c, 1, 77, 0
2, 47400, Note_on_c, 1, 78, 127
2, 47440, Note_off_c, 1, 78, 0
2, 47480, Note_on_c, 1, 80, 127
2, 47520, Note_off_c, 1, 80, 0
2, 47560, Note_on_c, 1, 73, 127
2, 47560, Note_off_c, 1, 75, 0
2, 47560, Note_on_c, 1, 76, 127
2, 47640, Note_off_c, 1, 44, 0
2, 47640, Note_off_c, 1, 60, 0
2, 47640, Note_on_c, 1, 61, 127
2, 47640, Note_off_c, 1, 68, 0
2, 47640, Note_off_c, 1, 73, 0
2, 47640, Note_off_c, 1, 76, 0
2, 47680, Note_on_c, 1, 44, 127
2, 47680, Note_off_c, 1, 61, 0
2, 47680, Note_on_c, 1, 72, 127
2, 47720, Note_off_c, 1, 72, 0
2, 47760, Note_on_c, 1, 73, 127
2, 47800, Note_off_c, 1, 73, 0
2, 47880, Note_on_c, 1, 72, 127
2, 47880, Note_on_c, 1, 75, 127
2, 47880, Note_on_c, 1, 78, 127
2, 47920, Note_off_c, 1, 75, 0
2, 47960, Note_on_c, 1, 75, 127
2, 48000, Note_off_c, 1, 44, 0
2, 48000, Note_off_c, 1, 56, 0
2, 48000, Note_off_c, 1, 72, 0
2, 48000, Note_off_c, 1, 75, 0
2, 48000, Note_off_c, 1, 78, 0
2, 48040, Note_on_c, 1, 65, 127
2, 48120, Note_off_c, 1, 65, 0
2, 48160, Note_on_c, 1, 77, 127
2, 48200, Note_off_c, 1, 77, 0
2, 48240, Note_on_c, 1, 73, 127
2, 48240, Note_on_c, 1, 77, 127
2, 48280, Note_off_c, 1, 73, 0
2, 48280, Note_off_c, 1, 77, 0
2, 48360, Note_on_c, 1, 80, 127
2, 48400, Note_off_c, 1, 80, 0
2, 48440, Note_on_c, 1, 68, 127
2, 48440, Note_on_c, 1, 72, 127
2, 48440, Note_on_c, 1, 75, 127
2, 48480, Note_off_c, 1, 68, 0
2, 48480, Note_off_c, 1, 72, 0
2, 48480, Note_off_c, 1, 75, 0
2, 48520, Note_on_c, 1, 75, 127
2, 48600, Note_off_c, 1, 75, 0
2, 48640, Note_on_c, 1, 69, 127
2, 48640, Note_on_c, 1, 73, 127
2, 48680, Note_off_c, 1, 69, 0
2, 48680, Note_off_c, 1, 73, 0
2, 48720, Note_on_c, 1, 75, 127
2, 48760, Note_off_c, 1, 75, 0
2, 48840, Note_on_c, 1, 44, 127
2, 48840, Note_on_c, 1, 56, 127
2, 48840, Note_on_c, 1, 63, 127
2, 48840, Note_on_c, 1, 68, 127
2, 48840, Note_on_c, 1, 72, 127
2, 48840, Note_on_c, 1, 75, 127
2, 48880, Note_off_c, 1, 75, 0
2, 48920, Note_on_c, 1, 78, 127
2, 48960, Note_off_c, 1, 78, 0
2, 49000, Note_on_c, 1, 80, 127
2, 49080, Note_off_c, 1, 80, 0
2, 49120, Note_on_c, 1, 78, 127
2, 49160, Note_off_c, 1, 44, 0
2, 49160, Note_off_c, 1, 56, 0
2, 49160, Note_off_c, 1, 63, 0
2, 49160, Note_off_c, 1, 68, 0
2, 49160, Note_off_c, 1, 72, 0
2, 49160, Note_off_c, 1, 78, 0
2, 49200, Note_on_c, 1, 44, 127
2, 49200, Note_on_c, 1, 56, 127
2, 49200, Note_on_c, 1, 68, 127
2, 49200, Note_on_c, 1, 72, 127
2, 49200, Note_on_c, 1, 75, 127
2, 49240, Note_off_c, 1, 44, 0
2, 49240, Note_off_c, 1, 75, 0
2, 49320, Note_on_c, 1, 78, 127
2, 49360, Note_off_c, 1, 78, 0
2, 49400, Note_on_c, 1, 80, 127
2, 49440, Note_off_c, 1, 80, 0
2, 49480, Note_on_c, 1, 78, 127
2, 49560, Note_off_c, 1, 56, 0
2, 49560, Note_off_c, 1, 68, 0
2, 49560, Note_off_c, 1, 72, 0
2, 49560, Note_off_c, 1, 78, 0
2, 49600, Note_on_c, 1, 80, 127
2, 49640, Note_off_c, 1, 80, 0
2, 49680, Note_on_c, 1, 77, 127
2, 49720, Note_off_c, 1, 77, 0
2, 49800, Note_on_c, 1, 56, 127
2, 49800, Note_on_c, 1, 68, 127
2, 49800, Note_on_c, 1, 69, 127
2, 49800, Note_on_c, 1, 75, 127
2, 49840, Note_off_c, 1, 68, 0
2, 49840, Note_off_c, 1, 69, 0
2, 49840, Note_off_c, 1, 75, 0
2, 49880, Note_on_c, 1, 80, 127
2, 49920, Note_off_c, 1, 56, 0
2, 49920, Note_off_c, 1, 80, 0
2, 49960, Note_on_c, 1, 54, 127
2, 49960, Note_on_c, 1, 68, 127
2, 49960, Note_on_c, 1, 72, 127
2, 50040, Note_off_c, 1, 54, 0
2, 50040, Note_off_c, 1, 68, 0
2, 50040, Note_off_c, 1, 72, 0
2, 50080, Note_on_c, 1, 80, 127
2, 50120, Note_off_c, 1, 80, 0
2, 50160, Note_on_c, 1, 54, 127
2, 50160, Note_on_c, 1, 69, 127
2, 50160, Note_on_c, 1, 72, 127
2, 50200, Note_off_c, 1, 54, 0
2, 50200, Note_off_c, 1, 69, 0
2, 50200, Note_off_c, 1, 72, 0
2, 50280, Note_on_c, 1, 78, 127
2, 50320, Note_off_c, 1, 78, 0
2, 50360, Note_on_c, 1, 53, 127
2, 50360, Note_on_c, 1, 68, 127
2, 50360, Note_on_c, 1, 72, 127
2, 50360, Note_on_c, 1, 78, 127
2, 50400, Note_off_c, 1, 78, 0
2, 50440, Note_on_c, 1, 80, 127
2, 50520, Note_off_c, 1, 53, 0
2, 50520, Note_off_c, 1, 68, 0
2, 50520, Note_off_c, 1, 72, 0
2, 50520, Note_off_c, 1, 80, 0
2, 50560, Note_on_c, 1, 53, 127
2, 50560, Note_on_c, 1, 71, 127
2, 50560, Note_on_c, 1, 73, 127
2, 50560, Note_on_c, 1, 78, 127
2, 50600, Note_off_c, 1, 53, 0
2, 50600, Note_off_c, 1, 71, 0
2, 50600, Note_off_c, 1, 73, 0
2, 50600, Note_off_c, 1, 78, 0
2, 50640, Note_on_c, 1, 80, 127
2, 50680, Note_off_c, 1, 80, 0
2, 50760, Note_on_c, 1, 53, 127
2, 50760, Note_on_c, 1, 68, 127
2, 50760, Note_on_c, 1, 73, 127
2, 50760, Note_on_c, 1, 80, 127
2, 50800, Note_off_c, 1, 80, 0
2, 50840, Note_on_c, 1, 81, 127
2, 50880, Note_off_c, 1, 53, 0
2, 50880, Note_off_c, 1, 68, 0
2, 50880, Note_off_c, 1, 73, 0
2, 50880, Note_off_c, 1, 81, 0
2, 50920, Note_on_c, 1, 41, 127
2, 50920, Note_on_c, 1, 53, 127
2, 50920, Note_on_c, 1, 73, 127
2, 50920, Note_on_c, 1, 80, 127
2, 51000, Note_off_c, 1, 80, 0
2, 51040, Note_on_c, 1, 78, 127
2, 51080, Note_off_c, 1, 41, 0
2, 51080, Note_off_c, 1, 53, 0
2, 51080, Note_off_c, 1, 73, 0
2, 51080, Note_off_c, 1, 78, 0
2, 51120, Note_on_c, 1, 37, 127
2, 51120, Note_on_c, 1, 49, 127
2, 51120, Note_on_c, 1, 61, 127
2, 51120, Note_on_c, 1, 66, 127
2, 51120, Note_on_c, 1, 73, 127
2, 51120, Note_on_c, 1, 78, 127
2, 51160, Note_off_c, 1, 78, 0
2, 51240, Note_on_c, 1, 77, 127
2, 51280, Note_off_c, 1, 37, 0
2, 51280, Note_off_c, 1, 66, 0
2, 51280, Note_off_c, 1, 73, 0
2, 51280, Note_off_c, 1, 77, 0
2, 51320, Note_on_c, 1, 66, 127
2, 51320, Note_on_c, 1, 73, 127
2, 51320, Note_on_c, 1, 75, 127
2, 51360, Note_off_c, 1, 75, 0
2, 51480, Note_off_c, 1, 49, 0
2, 51480, Note_off_c, 1, 61, 0
2, 51480, Note_off_c, 1, 66, 0
2, 51480, Note_off_c, 1, 73, 0
2, 51520, Note_on_c, 1, 50, 127
2, 51520, Note_on_c, 1, 62, 127
2, 51520, Note_on_c, 1, 66, 127
2, 51520, Note_on_c, 1, 71, 127
2, 51520, Note_on_c, 1, 74, 127
2, 51560, Note_off_c, 1, 74, 0
2, 51600, Note_on_c, 1, 76, 127
2, 51640, Note_off_c, 1, 62, 0
2, 51640, Note_off_c, 1, 66, 0
2, 51640, Note_off_c, 1, 71, 0
2, 51640, Note_off_c, 1, 76, 0
2, 51720, Note_on_c, 1, 78, 127
2, 51760, Note_off_c, 1, 78, 0
2, 51800, Note_on_c, 1, 77, 127
2, 51840, Note_off_c, 1, 50, 0
2, 51840, Note_off_c, 1, 77, 0
2, 51880, Note_on_c, 1, 77, 127
2, 51920, Note_off_c, 1, 77, 0
2, 52000, Note_on_c, 1, 80, 127
2, 52040, Note_off_c, 1, 80, 0
2, 52080, Note_on_c, 1, 78, 127
2, 52120, Note_off_c, 1, 78, 0
2, 52200, Note_on_c, 1, 77, 127
2, 52240, Note_off_c, 1, 77, 0
2, 52280, Note_on_c, 1, 77, 127
2, 52440, Note_off_c, 1, 77, 0
2, 52680, Note_on_c, 1, 54, 127
2, 52680, Note_on_c, 1, 59, 127
2, 52680, Note_on_c, 1, 63, 127
2, 52680, Note_on_c, 1, 78, 127
2, 52720, Note_off_c, 1, 78, 0
2, 52840, Note_on_c, 1, 80, 127
2, 52920, Note_off_c, 1, 80, 0
2, 53000, Note_off_c, 1, 59, 0
2, 53040, Note_on_c, 1, 59, 127
2, 53040, Note_on_c, 1, 66, 127
2, 53200, Note_off_c, 1, 66, 0
2, 53240, Note_on_c, 1, 65, 127
2, 53280, Note_off_c, 1, 65, 0
2, 53320, Note_on_c, 1, 68, 127
2, 53400, Note_off_c, 1, 54, 0
2, 53400, Note_off_c, 1, 59, 0
2, 53400, Note_off_c, 1, 63, 0
2, 53400, Note_off_c, 1, 68, 0
2, 53440, Note_on_c, 1, 54, 127
2, 53440, Note_on_c, 1, 59, 127
2, 53440, Note_on_c, 1, 62, 127
2, 53560, Note_off_c, 1, 54, 0
2, 53560, Note_off_c, 1, 59, 0
2, 53560, Note_off_c, 1, 62, 0
2, 53640, Note_on_c, 1, 59, 127
2, 53640, Note_on_c, 1, 63, 127
2, 53760, Note_off_c, 1, 59, 0
2, 53760, Note_off_c, 1, 63, 0
2, 53800, Note_on_c, 1, 54, 127
2, 53800, Note_on_c, 1, 66, 127
2, 53880, Note_off_c, 1, 54, 0
2, 53880, Note_off_c, 1, 66, 0
2, 53920, Note_on_c, 1, 63, 127
2, 53960, Note_off_c, 1, 63, 0
2, 54000, Note_on_c, 1, 59, 127
2, 54000, Note_on_c, 1, 66, 127
2, 54040, Note_off_c, 1, 59, 0
2, 54040, Note_off_c, 1, 66, 0
2, 54120, Note_on_c, 1, 63, 127
2, 54160, Note_off_c, 1, 63, 0
2, 54200, Note_on_c, 1, 58, 127
2, 54200, Note_on_c, 1, 70, 127
2, 54240, Note_off_c, 1, 58, 0
2, 54240, Note_off_c, 1, 70, 0
2, 54280, Note_on_c, 1, 63, 127
2, 54360, Note_off_c, 1, 63, 0
2, 54400, Note_on_c, 1, 55, 127
2, 54400, Note_on_c, 1, 73, 127
2, 54440, Note_off_c, 1, 55, 0
2, 54440, Note_off_c, 1, 73, 0
2, 54480, Note_on_c, 1, 63, 127
2, 54520, Note_off_c, 1, 63, 0
2, 54600, Note_on_c, 1, 58, 127
2, 54600, Note_on_c, 1, 75, 127
2, 54640, Note_off_c, 1, 58, 0
2, 54640, Note_off_c, 1, 75, 0
2, 54680, Note_on_c, 1, 63, 127
2, 54720, Note_off_c, 1, 63, 0
2, 54760, Note_on_c, 1, 52, 127
2, 54760, Note_on_c, 1, 59, 127
2, 54760, Note_on_c, 1, 64, 127
2, 54760, Note_on_c, 1, 68, 127
2, 54760, Note_on_c, 1, 70, 127
2, 54760, Note_on_c, 1, 73, 127
2, 54840, Note_off_c, 1, 52, 0
2, 54840, Note_off_c, 1, 59, 0
2, 54840, Note_off_c, 1, 70, 0
2, 54840, Note_on_c, 1, 71, 127
2, 54880, Note_off_c, 1, 73, 0
2, 54920, Note_off_c, 1, 64, 0
2, 54920, Note_off_c, 1, 68, 0
2, 54920, Note_off_c, 1, 71, 0
2, 54960, Note_on_c, 1, 51, 127
2, 54960, Note_on_c, 1, 54, 127
2, 54960, Note_on_c, 1, 66, 127
2, 54960, Note_on_c, 1, 71, 127
2, 54960, Note_on_c, 1, 75, 127
2, 55000, Note_off_c, 1, 51, 0
2, 55000, Note_off_c, 1, 54, 0
2, 55000, Note_off_c, 1, 66, 0
2, 55000, Note_off_c, 1, 71, 0
2, 55000, Note_off_c, 1, 75, 0
2, 55080, Note_on_c, 1, 66, 127
2, 55120, Note_off_c, 1, 66, 0
2, 55160, Note_on_c, 1, 59, 127
2, 55160, Note_on_c, 1, 63, 127
2, 55160, Note_on_c, 1, 66, 127
2, 55160, Note_on_c, 1, 71, 127
2, 55160, Note_on_c, 1, 75, 127
2, 55200, Note_off_c, 1, 59, 0
2, 55200, Note_off_c, 1, 71, 0
2, 55200, Note_off_c, 1, 75, 0
2, 55320, Note_off_c, 1, 63, 0
2, 55320, Note_off_c, 1, 66, 0
2, 55360, Note_on_c, 1, 54, 127
2, 55360, Note_on_c, 1, 59, 127
2, 55360, Note_on_c, 1, 83, 127
2, 55400, Note_off_c, 1, 54, 0
2, 55400, Note_off_c, 1, 59, 0
2, 55440, Note_on_c, 1, 63, 127
2, 55480, Note_off_c, 1, 63, 0
2, 55480, Note_off_c, 1, 83, 0
2, 55560, Note_on_c, 1, 54, 127
2, 55560, Note_on_c, 1, 59, 127
2, 55560, Note_on_c, 1, 66, 127
2, 55560, Note_on_c, 1, 71, 127
2, 55560, Note_on_c, 1, 75, 127
2, 55600, Note_off_c, 1, 54, 0
2, 55600, Note_off_c, 1, 59, 0
2, 55640, Note_on_c, 1, 63, 127
2, 55680, Note_off_c, 1, 63, 0
2, 55720, Note_on_c, 1, 54, 127
2, 55720, Note_on_c, 1, 59, 127
2, 55800, Note_off_c, 1, 54, 0
2, 55800, Note_off_c, 1, 59, 0
2, 55840, Note_on_c, 1, 63, 127
2, 55880, Note_off_c, 1, 63, 0
2, 55880, Note_off_c, 1, 66, 0
2, 55880, Note_off_c, 1, 71, 0
2, 55880, Note_off_c, 1, 75, 0
2, 55920, Note_on_c, 1, 54, 127
2, 55920, Note_on_c, 1, 59, 127
2, 55960, Note_off_c, 1, 54, 0
2, 55960, Note_off_c, 1, 59, 0
2, 56040, Note_on_c, 1, 63, 127
2, 56080, Note_off_c, 1, 63, 0
2, 56120, Note_on_c, 1, 54, 127
2, 56120, Note_on_c, 1, 59, 127
2, 56120, Note_on_c, 1, 62, 127
2, 56120, Note_on_c, 1, 66, 127
2, 56120, Note_on_c, 1, 71, 127
2, 56160, Note_off_c, 1, 54, 0
2, 56160, Note_off_c, 1, 62, 0
2, 56280, Note_off_c, 1, 59, 0
2, 56360, Note_off_c, 1, 66, 0
2, 56360, Note_off_c, 1, 71, 0
2, 56400, Note_on_c, 1, 63, 127
2, 56400, Note_on_c, 1, 71, 127
2, 56440, Note_off_c, 1, 63, 0
2, 56440, Note_off_c, 1, 71, 0
2, 56520, Note_on_c, 1, 47, 127
2, 56520, Note_on_c, 1, 59, 127
2, 56520, Note_on_c, 1, 63, 127
2, 56520, Note_on_c, 1, 71, 127
2, 56840, Note_off_c, 1, 47, 0
2, 56840, Note_off_c, 1, 59, 0
2, 56840, Note_off_c, 1, 63, 0
2, 56840, Note_off_c, 1, 71, 0
2, 56880, Note_on_c, 1, 59, 127
2, 56880, Note_on_c, 1, 71, 127
2, 57040, Note_off_c, 1, 59, 0
2, 57040, Note_off_c, 1, 71, 0
2, 57080, Note_on_c, 1, 63, 127
2, 57080, Note_on_c, 1, 75, 127
2, 57120, Note_off_c, 1, 63, 0
2, 57120, Note_off_c, 1, 75, 0
2, 57160, Note_on_c, 1, 59, 127
2, 57160, Note_on_c, 1, 71, 127
2, 57240, Note_off_c, 1, 59, 0
2, 57240, Note_off_c, 1, 71, 0
2, 57280, Note_on_c, 1, 52, 127
2, 57280, Note_on_c, 1, 66, 127
2, 57280, Note_on_c, 1, 75, 127
2, 57400, Note_off_c, 1, 52, 0
2, 57400, Note_off_c, 1, 66, 0
2, 57400, Note_off_c, 1, 75, 0
2, 57480, Note_on_c, 1, 59, 127
2, 57480, Note_on_c, 1, 66, 127
2, 57480, Note_on_c, 1, 75, 127
2, 57520, Note_off_c, 1, 59, 0
2, 57560, Note_on_c, 1, 58, 127
2, 57560, Note_off_c, 1, 75, 0
2, 57560, Note_on_c, 1, 76, 127
2, 57600, Note_off_c, 1, 58, 0
2, 57600, Note_off_c, 1, 66, 0
2, 57600, Note_off_c, 1, 76, 0
2, 57640, Note_on_c, 1, 52, 127
2, 57640, Note_on_c, 1, 65, 127
2, 57640, Note_on_c, 1, 76, 127
2, 57680, Note_off_c, 1, 65, 0
2, 57680, Note_on_c, 1, 67, 127
2, 57800, Note_off_c, 1, 52, 0
2, 57800, Note_off_c, 1, 67, 0
2, 57800, Note_off_c, 1, 76, 0
2, 57840, Note_on_c, 1, 49, 127
2, 57840, Note_on_c, 1, 52, 127
2, 57840, Note_on_c, 1, 56, 127
2, 57840, Note_on_c, 1, 68, 127
2, 57840, Note_on_c, 1, 71, 127
2, 58000, Note_off_c, 1, 68, 0
2, 58000, Note_off_c, 1, 71, 0
2, 58040, Note_on_c, 1, 59, 127
2, 58240, Note_on_c, 1, 68, 127
2, 58240, Note_on_c, 1, 76, 127
2, 58360, Note_off_c, 1, 68, 0
2, 58360, Note_off_c, 1, 76, 0
2, 58440, Note_on_c, 1, 64, 127
2, 58440, Note_on_c, 1, 76, 127
2, 58560, Note_off_c, 1, 49, 0
2, 58560, Note_off_c, 1, 52, 0
2, 58560, Note_off_c, 1, 56, 0
2, 58560, Note_off_c, 1, 59, 0
2, 58560, Note_off_c, 1, 64, 0
2, 58560, Note_off_c, 1, 76, 0
2, 58600, Note_on_c, 1, 47, 127
2, 58600, Note_on_c, 1, 71, 127
2, 58600, Note_on_c, 1, 75, 127
2, 58680, Note_off_c, 1, 71, 0
2, 58680, Note_off_c, 1, 75, 0
2, 58720, Note_on_c, 1, 66, 127
2, 58760, Note_off_c, 1, 66, 0
2, 58800, Note_on_c, 1, 63, 127
2, 58800, Note_on_c, 1, 75, 127
2, 58840, Note_off_c, 1, 63, 0
2, 58840, Note_off_c, 1, 75, 0
2, 58920, Note_on_c, 1, 71, 127
2, 58960, Note_off_c, 1, 47, 0
2, 58960, Note_off_c, 1, 71, 0
2, 59000, Note_on_c, 1, 63, 127
2, 59000, Note_on_c, 1, 75, 127
2, 59000, Note_on_c, 1, 80, 127
2, 59160, Note_on_c, 1, 47, 127
2, 59320, Note_off_c, 1, 47, 0
2, 59320, Note_off_c, 1, 63, 0
2, 59320, Note_off_c, 1, 75, 0
2, 59320, Note_off_c, 1, 80, 0
2, 59400, Note_on_c, 1, 66, 127
2, 59400, Note_on_c, 1, 75, 127
2, 59400, Note_on_c, 1, 78, 127
2, 59520, Note_off_c, 1, 66, 0
2, 59560, Note_on_c, 1, 66, 127
2, 59720, Note_off_c, 1, 66, 0
2, 59720, Note_off_c, 1, 75, 0
2, 59720, Note_off_c, 1, 78, 0
2, 59760, Note_on_c, 1, 63, 127
2, 59760, Note_on_c, 1, 66, 127
2, 59760, Note_on_c, 1, 75, 127
2, 59760, Note_on_c, 1, 78, 127
2, 60120, Note_off_c, 1, 63, 0
2, 60120, Note_off_c, 1, 66, 0
2, 60120, Note_off_c, 1, 75, 0
2, 60120, Note_off_c, 1, 78, 0
2, 60160, Note_on_c, 1, 49, 127
2, 60160, Note_on_c, 1, 73, 127
2, 60160, Note_on_c, 1, 77, 127
2, 60200, Note_off_c, 1, 77, 0
2, 60280, Note_off_c, 1, 49, 0
2, 60360, Note_on_c, 1, 51, 127
2, 60480, Note_off_c, 1, 51, 0
2, 60520, Note_on_c, 1, 52, 127
2, 60720, Note_on_c, 1, 56, 127
2, 60840, Note_off_c, 1, 73, 0
2, 60920, Note_on_c, 1, 54, 127
2, 60920, Note_off_c, 1, 56, 0
2, 60920, Note_on_c, 1, 75, 127
2, 60960, Note_off_c, 1, 75, 0
2, 61000, Note_on_c, 1, 73, 127
2, 61080, Note_off_c, 1, 52, 0
2, 61080, Note_off_c, 1, 54, 0
2, 61080, Note_off_c, 1, 73, 0
2, 61120, Note_on_c, 1, 51, 127
2, 61120, Note_on_c, 1, 54, 127
2, 61120, Note_on_c, 1, 59, 127
2, 61120, Note_on_c, 1, 61, 127
2, 61120, Note_on_c, 1, 70, 127
2, 61160, Note_off_c, 1, 70, 0
2, 61200, Note_on_c, 1, 68, 127
2, 61240, Note_off_c, 1, 68, 0
2, 61320, Note_on_c, 1, 66, 127
2, 61360, Note_off_c, 1, 66, 0
2, 61400, Note_on_c, 1, 68, 127
2, 61440, Note_off_c, 1, 51, 0
2, 61440, Note_off_c, 1, 54, 0
2, 61440, Note_off_c, 1, 59, 0
2, 61440, Note_off_c, 1, 61, 0
2, 61440, Note_off_c, 1, 68, 0
2, 61480, Note_on_c, 1, 61, 127
2, 61480, Note_on_c, 1, 70, 127
2, 61560, Note_off_c, 1, 70, 0
2, 61600, Note_on_c, 1, 68, 127
2, 61640, Note_off_c, 1, 61, 0
2, 61640, Note_off_c, 1, 68, 0
2, 61680, Note_on_c, 1, 58, 127
2, 61680, Note_on_c, 1, 73, 127
2, 61720, Note_off_c, 1, 58, 0
2, 61720, Note_off_c, 1, 73, 0
2, 61800, Note_on_c, 1, 61, 127
2, 61800, Note_on_c, 1, 76, 127
2, 61840, Note_off_c, 1, 61, 0
2, 61840, Note_off_c, 1, 76, 0
2, 61880, Note_on_c, 1, 46, 127
2, 61880, Note_on_c, 1, 58, 127
2, 61880, Note_on_c, 1, 68, 127
2, 61880, Note_on_c, 1, 73, 127
2, 61880, Note_on_c, 1, 76, 127
2, 62040, Note_off_c, 1, 68, 0
2, 62040, Note_off_c, 1, 73, 0
2, 62040, Note_off_c, 1, 76, 0
2, 62080, Note_on_c, 1, 61, 127
2, 62080, Note_on_c, 1, 66, 127
2, 62080, Note_on_c, 1, 73, 127
2, 62080, Note_on_c, 1, 76, 127
2, 62240, Note_off_c, 1, 46, 0
2, 62400, Note_off_c, 1, 61, 0
2, 62400, Note_off_c, 1, 66, 0
2, 62400, Note_off_c, 1, 73, 0
2, 62400, Note_off_c, 1, 76, 0
2, 62440, Note_on_c, 1, 64, 127
2, 62440, Note_on_c, 1, 68, 127
2, 62520, Note_off_c, 1, 64, 0
2, 62520, Note_off_c, 1, 68, 0
2, 62560, Note_on_c, 1, 63, 127
2, 62600, Note_off_c, 1, 58, 0
2, 62600, Note_off_c, 1, 63, 0
2, 62640, Note_on_c, 1, 61, 127
2, 62640, Note_on_c, 1, 64, 127
2, 62680, Note_off_c, 1, 64, 0
2, 62720, Note_off_c, 1, 61, 0
2, 62760, Note_on_c, 1, 58, 127
2, 62800, Note_off_c, 1, 58, 0
2, 62840, Note_on_c, 1, 39, 127
2, 62840, Note_on_c, 1, 51, 127
2, 62840, Note_on_c, 1, 58, 127
2, 62840, Note_on_c, 1, 66, 127
2, 63000, Note_off_c, 1, 66, 0
2, 63040, Note_on_c, 1, 66, 127
2, 63160, Note_off_c, 1, 39, 0
2, 63160, Note_off_c, 1, 51, 0
2, 63160, Note_off_c, 1, 66, 0
2, 63240, Note_on_c, 1, 70, 127
2, 63360, Note_off_c, 1, 70, 0
2, 63400, Note_on_c, 1, 66, 127
2, 63560, Note_off_c, 1, 58, 0
2, 63560, Note_off_c, 1, 66, 0
2, 63600, Note_on_c, 1, 52, 127
2, 63600, Note_on_c, 1, 64, 127
2, 63760, Note_off_c, 1, 64, 0
2, 63800, Note_on_c, 1, 63, 127
2, 63960, Note_off_c, 1, 52, 0
2, 63960, Note_off_c, 1, 63, 0
2, 64000, Note_on_c, 1, 49, 127
2, 64000, Note_on_c, 1, 64, 127
2, 64040, Note_off_c, 1, 49, 0
2, 64040, Note_on_c, 1, 52, 127
2, 64120, Note_off_c, 1, 52, 0
2, 64120, Note_off_c, 1, 64, 0
2, 64200, Note_on_c, 1, 44, 127
2, 64200, Note_on_c, 1, 64, 127
2, 64240, Note_off_c, 1, 64, 0
2, 64320, Note_off_c, 1, 44, 0
2, 64360, Note_on_c, 1, 37, 127
2, 64360, Note_on_c, 1, 49, 127
2, 64360, Note_on_c, 1, 64, 127
2, 64360, Note_on_c, 1, 68, 127
2, 64360, Note_on_c, 1, 76, 127
2, 64480, Note_on_c, 1, 70, 127
2, 64520, Note_off_c, 1, 70, 0
2, 64560, Note_on_c, 1, 71, 127
2, 64600, Note_off_c, 1, 71, 0
2, 64720, Note_off_c, 1, 37, 0
2, 64720, Note_off_c, 1, 49, 0
2, 64760, Note_on_c, 1, 44, 127
2, 64760, Note_on_c, 1, 56, 127
2, 64920, Note_off_c, 1, 64, 0
2, 64920, Note_off_c, 1, 68, 0
2, 64920, Note_off_c, 1, 76, 0
2, 64960, Note_on_c, 1, 64, 127
2, 64960, Note_on_c, 1, 68, 127
2, 64960, Note_on_c, 1, 75, 127
2, 65080, Note_off_c, 1, 44, 0
2, 65080, Note_off_c, 1, 68, 0
2, 65080, Note_off_c, 1, 75, 0
2, 65160, Note_off_c, 1, 56, 0
2, 65160, Note_on_c, 1, 73, 127
2, 65200, Note_off_c, 1, 73, 0
2, 65280, Note_off_c, 1, 64, 0
2, 65320, Note_on_c, 1, 44, 127
2, 65320, Note_on_c, 1, 54, 127
2, 65320, Note_on_c, 1, 63, 127
2, 65320, Note_on_c, 1, 69, 127
2, 65320, Note_on_c, 1, 72, 127
2, 65480, Note_off_c, 1, 44, 0
2, 65480, Note_off_c, 1, 54, 0
2, 65480, Note_off_c, 1, 69, 0
2, 65520, Note_on_c, 1, 45, 127
2, 65520, Note_on_c, 1, 57, 127
2, 65520, Note_on_c, 1, 69, 127
2, 65680, Note_off_c, 1, 45, 0
2, 65680, Note_off_c, 1, 57, 0
2, 65680, Note_off_c, 1, 63, 0
2, 65680, Note_on_c, 1, 65, 127
2, 65720, Note_on_c, 1, 60, 127
2, 65720, Note_on_c, 1, 63, 127
2, 65720, Note_off_c, 1, 65, 0
2, 65880, Note_on_c, 1, 57, 127
2, 65880, Note_off_c, 1, 60, 0
2, 65880, Note_off_c, 1, 69, 0
2, 65920, Note_on_c, 1, 69, 127
2, 66040, Note_off_c, 1, 57, 0
2, 66040, Note_off_c, 1, 63, 0
2, 66080, Note_off_c, 1, 69, 0
2, 66120, Note_on_c, 1, 43, 127
2, 66120, Note_on_c, 1, 55, 127
2, 66120, Note_on_c, 1, 67, 127
2, 66120, Note_on_c, 1, 71, 127
2, 66120, Note_off_c, 1, 72, 0
2, 66240, Note_off_c, 1, 67, 0
2, 66240, Note_off_c, 1, 71, 0
2, 66280, Note_on_c, 1, 59, 127
2, 66280, Note_on_c, 1, 62, 127
2, 66360, Note_off_c, 1, 55, 0
2, 66360, Note_off_c, 1, 59, 0
2, 66360, Note_off_c, 1, 62, 0
2, 66440, Note_on_c, 1, 31, 127
2, 66480, Note_off_c, 1, 31, 0
2, 66480, Note_on_c, 1, 55, 127
2, 66480, Note_on_c, 1, 58, 127
2, 66480, Note_on_c, 1, 62, 127
2, 66480, Note_on_c, 1, 64, 127
2, 66520, Note_off_c, 1, 58, 0
2, 66640, Note_off_c, 1, 55, 0
2, 66640, Note_off_c, 1, 62, 0
2, 66640, Note_off_c, 1, 64, 0
2, 66680, Note_on_c, 1, 65, 127
2, 66680, Note_on_c, 1, 71, 127
2, 66680, Note_on_c, 1, 74, 127
2, 66720, Note_off_c, 1, 65, 0
2, 66720, Note_off_c, 1, 71, 0
2, 66720, Note_off_c, 1, 74, 0
2, 66840, Note_off_c, 1, 43, 0
2, 66880, Note_on_c, 1, 45, 127
2, 66880, Note_on_c, 1, 65, 127
2, 66880, Note_on_c, 1, 71, 127
2, 66880, Note_on_c, 1, 74, 127
2, 66920, Note_off_c, 1, 65, 0
2, 66920, Note_off_c, 1, 71, 0
2, 66920, Note_off_c, 1, 74, 0
2, 67080, Note_on_c, 1, 64, 127
2, 67080, Note_on_c, 1, 67, 127
2, 67080, Note_on_c, 1, 73, 127
2, 67080, Note_on_c, 1, 79, 127
2, 67120, Note_off_c, 1, 64, 0
2, 67120, Note_off_c, 1, 67, 0
2, 67120, Note_off_c, 1, 73, 0
2, 67120, Note_off_c, 1, 79, 0
2, 67200, Note_off_c, 1, 45, 0
2, 67240, Note_on_c, 1, 45, 127
2, 67240, Note_on_c, 1, 73, 127
2, 67320, Note_off_c, 1, 73, 0
2, 67440, Note_on_c, 1, 67, 127
2, 67440, Note_on_c, 1, 73, 127
2, 67440, Note_on_c, 1, 76, 127
2, 67480, Note_off_c, 1, 67, 0
2, 67480, Note_off_c, 1, 73, 0
2, 67480, Note_off_c, 1, 76, 0
2, 67600, Note_off_c, 1, 45, 0
2, 67640, Note_on_c, 1, 37, 127
2, 67640, Note_on_c, 1, 49, 127
2, 67640, Note_on_c, 1, 69, 127
2, 67640, Note_on_c, 1, 73, 127
2, 67640, Note_on_c, 1, 76, 127
2, 67800, Note_off_c, 1, 69, 0
2, 67800, Note_off_c, 1, 73, 0
2, 67800, Note_off_c, 1, 76, 0
2, 67840, Note_on_c, 1, 69, 127
2, 67840, Note_on_c, 1, 73, 127
2, 67840, Note_on_c, 1, 76, 127
2, 67880, Note_off_c, 1, 69, 0
2, 67880, Note_off_c, 1, 73, 0
2, 67880, Note_off_c, 1, 76, 0
2, 67960, Note_off_c, 1, 37, 0
2, 67960, Note_off_c, 1, 49, 0
2, 68040, Note_on_c, 1, 38, 127
2, 68040, Note_on_c, 1, 50, 127
2, 68040, Note_on_c, 1, 69, 127
2, 68040, Note_on_c, 1, 74, 127
2, 68040, Note_on_c, 1, 78, 127
2, 68160, Note_off_c, 1, 69, 0
2, 68160, Note_off_c, 1, 74, 0
2, 68160, Note_off_c, 1, 78, 0
2, 68200, Note_on_c, 1, 69, 127
2, 68200, Note_on_c, 1, 74, 127
2, 68200, Note_on_c, 1, 78, 127
2, 68280, Note_off_c, 1, 69, 0
2, 68280, Note_off_c, 1, 74, 0
2, 68280, Note_off_c, 1, 78, 0
2, 68360, Note_off_c, 1, 38, 0
2, 68360, Note_off_c, 1, 50, 0
2, 68400, Note_on_c, 1, 60, 127
2, 68400, Note_on_c, 1, 69, 127
2, 68400, Note_on_c, 1, 75, 127
2, 68400, Note_on_c, 1, 78, 127
2, 68560, Note_off_c, 1, 69, 0
2, 68560, Note_off_c, 1, 75, 0
2, 68560, Note_off_c, 1, 78, 0
2, 68600, Note_on_c, 1, 71, 127
2, 68600, Note_on_c, 1, 74, 127
2, 68600, Note_on_c, 1, 78, 127
2, 68640, Note_off_c, 1, 71, 0
2, 68640, Note_off_c, 1, 74, 0
2, 68640, Note_off_c, 1, 78, 0
2, 68760, Note_off_c, 1, 60, 0
2, 68800, Note_on_c, 1, 38, 127
2, 68800, Note_on_c, 1, 50, 127
2, 68800, Note_on_c, 1, 71, 127
2, 68800, Note_on_c, 1, 74, 127
2, 68800, Note_on_c, 1, 78, 127
2, 68840, Note_off_c, 1, 71, 0
2, 68840, Note_off_c, 1, 74, 0
2, 68840, Note_off_c, 1, 78, 0
2, 69000, Note_on_c, 1, 69, 127
2, 69000, Note_on_c, 1, 72, 127
2, 69000, Note_on_c, 1, 78, 127
2, 69040, Note_off_c, 1, 69, 0
2, 69040, Note_off_c, 1, 72, 0
2, 69040, Note_off_c, 1, 78, 0
2, 69120, Note_off_c, 1, 38, 0
2, 69120, Note_off_c, 1, 50, 0
2, 69160, Note_on_c, 1, 43, 127
2, 69160, Note_on_c, 1, 55, 127
2, 69160, Note_on_c, 1, 71, 127
2, 69160, Note_on_c, 1, 74, 127
2, 69160, Note_on_c, 1, 79, 127
2, 69240, Note_off_c, 1, 71, 0
2, 69240, Note_off_c, 1, 74, 0
2, 69240, Note_off_c, 1, 79, 0
2, 69360, Note_on_c, 1, 71, 127
2, 69360, Note_on_c, 1, 74, 127
2, 69360, Note_on_c, 1, 79, 127
2, 69480, Note_off_c, 1, 71, 0
2, 69480, Note_off_c, 1, 74, 0
2, 69480, Note_off_c, 1, 79, 0
2, 69520, Note_off_c, 1, 43, 0
2, 69520, Note_off_c, 1, 55, 0
2, 69560, Note_on_c, 1, 40, 127
2, 69560, Note_on_c, 1, 52, 127
2, 69560, Note_on_c, 1, 71, 127
2, 69560, Note_on_c, 1, 74, 127
2, 69560, Note_on_c, 1, 77, 127
2, 69600, Note_off_c, 1, 71, 0
2, 69600, Note_off_c, 1, 74, 0
2, 69600, Note_off_c, 1, 77, 0
2, 69760, Note_on_c, 1, 71, 127
2, 69760, Note_on_c, 1, 74, 127
2, 69760, Note_on_c, 1, 80, 127
2, 69800, Note_off_c, 1, 71, 0
2, 69800, Note_off_c, 1, 74, 0
2, 69800, Note_off_c, 1, 80, 0
2, 69880, Note_off_c, 1, 40, 0
2, 69880, Note_off_c, 1, 52, 0
2, 69960, Note_on_c, 1, 69, 127
2, 69960, Note_on_c, 1, 73, 127
2, 69960, Note_on_c, 1, 84, 127
2, 70000, Note_off_c, 1, 84, 0
2, 70080, Note_off_c, 1, 69, 0
2, 70080, Note_off_c, 1, 73, 0
2, 70120, Note_on_c, 1, 71, 127
2, 70120, Note_on_c, 1, 74, 127
2, 70120, Note_on_c, 1, 86, 127
2, 70200, Note_off_c, 1, 71, 0
2, 70280, Note_off_c, 1, 74, 0
2, 70280, Note_off_c, 1, 86, 0
2, 70320, Note_on_c, 1, 73, 127
2, 70320, Note_on_c, 1, 76, 127
2, 70320, Note_on_c, 1, 85, 127
2, 70480, Note_off_c, 1, 73, 0
2, 70480, Note_off_c, 1, 76, 0
2, 70480, Note_off_c, 1, 85, 0
2, 70520, Note_on_c, 1, 74, 127
2, 70520, Note_on_c, 1, 78, 127
2, 70520, Note_on_c, 1, 86, 127
2, 70560, Note_off_c, 1, 74, 0
2, 70560, Note_off_c, 1, 78, 0
2, 70560, Note_off_c, 1, 86, 0
2, 70720, Note_on_c, 1, 80, 127
2, 70720, Note_on_c, 1, 86, 127
2, 70760, Note_off_c, 1, 80, 0
2, 70760, Note_off_c, 1, 86, 0
2, 70920, Note_on_c, 1, 81, 127
2, 70920, Note_on_c, 1, 88, 127
2, 70960, Note_off_c, 1, 81, 0
2, 70960, Note_off_c, 1, 88, 0
2, 71080, Note_on_c, 1, 73, 127
2, 71080, Note_on_c, 1, 79, 127
2, 71080, Note_on_c, 1, 88, 127
2, 71240, Note_off_c, 1, 73, 0
2, 71240, Note_off_c, 1, 79, 0
2, 71240, Note_off_c, 1, 88, 0
2, 71280, Note_on_c, 1, 74, 127
2, 71280, Note_on_c, 1, 86, 127
2, 71440, Note_off_c, 1, 74, 0
2, 71440, Note_off_c, 1, 86, 0
2, 71480, Note_on_c, 1, 74, 127
2, 71480, Note_on_c, 1, 86, 127
2, 71640, Note_off_c, 1, 74, 0
2, 71640, Note_off_c, 1, 86, 0
2, 71680, Note_on_c, 1, 72, 127
2, 71680, Note_on_c, 1, 84, 127
2, 71720, Note_off_c, 1, 84, 0
2, 71800, Note_off_c, 1, 72, 0
2, 71880, Note_on_c, 1, 67, 127
2, 71880, Note_on_c, 1, 83, 127
2, 72000, Note_off_c, 1, 67, 0
2, 72000, Note_off_c, 1, 83, 0
2, 72040, Note_on_c, 1, 69, 127
2, 72040, Note_on_c, 1, 81, 127
2, 72040, Note_on_c, 1, 84, 127
2, 72120, Note_off_c, 1, 69, 0
2, 72120, Note_off_c, 1, 84, 0
2, 72160, Note_on_c, 1, 83, 127
2, 72200, Note_off_c, 1, 81, 0
2, 72200, Note_off_c, 1, 83, 0
2, 72240, Note_on_c, 1, 71, 127
2, 72240, Note_on_c, 1, 79, 127
2, 72240, Note_on_c, 1, 83, 127
2, 72360, Note_on_c, 1, 77, 127
2, 72400, Note_off_c, 1, 71, 0
2, 72400, Note_off_c, 1, 77, 0
2, 72400, Note_off_c, 1, 83, 0
2, 72440, Note_on_c, 1, 69, 127
2, 72440, Note_on_c, 1, 81, 127
2, 72600, Note_off_c, 1, 69, 0
2, 72600, Note_off_c, 1, 79, 0
2, 72600, Note_off_c, 1, 81, 0
2, 72640, Note_on_c, 1, 64, 127
2, 72640, Note_on_c, 1, 67, 127
2, 72640, Note_on_c, 1, 76, 127
2, 72640, Note_on_c, 1, 79, 127
2, 72760, Note_off_c, 1, 64, 0
2, 72760, Note_off_c, 1, 67, 0
2, 72760, Note_off_c, 1, 76, 0
2, 72760, Note_off_c, 1, 79, 0
2, 72840, Note_on_c, 1, 62, 127
2, 72840, Note_on_c, 1, 66, 127
2, 72960, Note_off_c, 1, 62, 0
2, 72960, Note_off_c, 1, 66, 0
2, 73000, Note_on_c, 1, 62, 127
2, 73000, Note_on_c, 1, 66, 127
2, 73160, Note_off_c, 1, 62, 0
2, 73160, Note_off_c, 1, 66, 0
2, 73200, Note_on_c, 1, 57, 127
2, 73200, Note_on_c, 1, 69, 127
2, 73200, Note_on_c, 1, 74, 127
2, 73200, Note_on_c, 1, 78, 127
2, 73360, Note_off_c, 1, 57, 0
2, 73360, Note_off_c, 1, 69, 0
2, 73360, Note_off_c, 1, 74, 0
2, 73360, Note_off_c, 1, 78, 0
2, 73600, Note_on_c, 1, 62, 127
2, 73600, Note_on_c, 1, 69, 127
2, 73600, Note_on_c, 1, 74, 127
2, 73600, Note_on_c, 1, 78, 127
2, 73720, Note_off_c, 1, 62, 0
2, 73720, Note_off_c, 1, 69, 0
2, 73800, Note_on_c, 1, 62, 127
2, 73920, Note_off_c, 1, 62, 0
2, 73920, Note_off_c, 1, 74, 0
2, 73920, Note_off_c, 1, 78, 0
2, 73960, Note_on_c, 1, 74, 127
2, 73960, Note_on_c, 1, 78, 127
2, 73960, Note_on_c, 1, 84, 127
2, 74120, Note_off_c, 1, 74, 0
2, 74120, Note_off_c, 1, 78, 0
2, 74120, Note_off_c, 1, 84, 0
2, 74160, Note_on_c, 1, 43, 127
2, 74160, Note_on_c, 1, 55, 127
2, 74160, Note_on_c, 1, 62, 127
2, 74160, Note_on_c, 1, 72, 127
2, 74160, Note_on_c, 1, 74, 127
2, 74160, Note_on_c, 1, 79, 127
2, 74160, Note_on_c, 1, 84, 127
2, 74320, Note_off_c, 1, 62, 0
2, 74320, Note_off_c, 1, 72, 0
2, 74320, Note_off_c, 1, 74, 0
2, 74320, Note_off_c, 1, 79, 0
2, 74320, Note_off_c, 1, 84, 0
2, 74360, Note_on_c, 1, 60, 127
2, 74360, Note_on_c, 1, 64, 127
2, 74360, Note_on_c, 1, 67, 127
2, 74360, Note_on_c, 1, 72, 127
2, 74360, Note_on_c, 1, 76, 127
2, 74360, Note_on_c, 1, 79, 127
2, 74360, Note_on_c, 1, 84, 127
2, 74400, Note_off_c, 1, 84, 0
2, 74520, Note_off_c, 1, 43, 0
2, 74520, Note_off_c, 1, 55, 0
2, 74520, Note_off_c, 1, 60, 0
2, 74520, Note_off_c, 1, 64, 0
2, 74520, Note_off_c, 1, 67, 0
2, 74520, Note_off_c, 1, 72, 0
2, 74520, Note_off_c, 1, 76, 0
2, 74520, Note_off_c, 1, 79, 0
2, 74560, Note_on_c, 1, 52, 127
2, 74560, Note_on_c, 1, 82, 127
2, 74600, Note_off_c, 1, 52, 0
2, 74600, Note_off_c, 1, 82, 0
2, 74760, Note_on_c, 1, 55, 127
2, 74760, Note_on_c, 1, 81, 127
2, 74800, Note_off_c, 1, 55, 0
2, 74800, Note_off_c, 1, 81, 0
2, 74840, Note_on_c, 1, 83, 127
2, 74880, Note_off_c, 1, 83, 0
2, 74920, Note_on_c, 1, 55, 127
2, 74920, Note_on_c, 1, 71, 127
2, 74920, Note_on_c, 1, 74, 127
2, 74920, Note_on_c, 1, 83, 127
2, 75000, Note_off_c, 1, 55, 0
2, 75000, Note_off_c, 1, 83, 0
2, 75080, Note_off_c, 1, 71, 0
2, 75080, Note_off_c, 1, 74, 0
2, 75120, Note_on_c, 1, 55, 127
2, 75120, Note_on_c, 1, 79, 127
2, 75120, Note_on_c, 1, 88, 127
2, 75160, Note_off_c, 1, 55, 0
2, 75160, Note_off_c, 1, 88, 0
2, 75240, Note_on_c, 1, 72, 127
2, 75280, Note_off_c, 1, 72, 0
2, 75280, Note_off_c, 1, 79, 0
2, 75320, Note_on_c, 1, 43, 127
2, 75320, Note_on_c, 1, 79, 127
2, 75320, Note_on_c, 1, 83, 127
2, 75320, Note_on_c, 1, 91, 127
2, 75360, Note_off_c, 1, 43, 0
2, 75360, Note_off_c, 1, 79, 0
2, 75360, Note_off_c, 1, 83, 0
2, 75360, Note_off_c, 1, 91, 0
2, 75400, Note_on_c, 1, 71, 127
2, 75480, Note_off_c, 1, 71, 0
2, 75520, Note_on_c, 1, 43, 127
2, 75520, Note_on_c, 1, 74, 127
2, 75520, Note_on_c, 1, 79, 127
2, 75520, Note_on_c, 1, 83, 127
2, 75520, Note_on_c, 1, 86, 127
2, 75560, Note_off_c, 1, 43, 0
2, 75560, Note_on_c, 1, 71, 127
2, 75560, Note_off_c, 1, 83, 0
2, 75560, Note_off_c, 1, 86, 0
2, 75600, Note_off_c, 1, 71, 0
2, 75640, Note_off_c, 1, 74, 0
2, 75640, Note_off_c, 1, 79, 0
2, 75720, Note_on_c, 1, 43, 127
2, 75720, Note_on_c, 1, 71, 127
2, 75720, Note_on_c, 1, 76, 127
2, 75720, Note_on_c, 1, 79, 127
2, 75720, Note_on_c, 1, 83, 127
2, 75760, Note_off_c, 1, 43, 0
2, 75760, Note_off_c, 1, 71, 0
2, 75800, Note_on_c, 1, 71, 127
2, 75840, Note_off_c, 1, 71, 0
2, 75840, Note_off_c, 1, 76, 0
2, 75840, Note_off_c, 1, 79, 0
2, 75840, Note_off_c, 1, 83, 0
2, 75880, Note_on_c, 1, 42, 127
2, 75880, Note_on_c, 1, 73, 127
2, 75960, Note_off_c, 1, 42, 0
2, 75960, Note_off_c, 1, 73, 0
2, 76000, Note_on_c, 1, 88, 127
2, 76040, Note_off_c, 1, 88, 0
2, 76080, Note_on_c, 1, 39, 127
2, 76080, Note_on_c, 1, 78, 127
2, 76120, Note_off_c, 1, 39, 0
2, 76120, Note_off_c, 1, 78, 0
2, 76200, Note_on_c, 1, 81, 127
2, 76240, Note_off_c, 1, 81, 0
2, 76280, Note_on_c, 1, 47, 127
2, 76280, Note_on_c, 1, 71, 127
2, 76280, Note_on_c, 1, 78, 127
2, 76280, Note_on_c, 1, 81, 127
2, 76280, Note_on_c, 1, 83, 127
2, 76320, Note_off_c, 1, 47, 0
2, 76440, Note_off_c, 1, 71, 0
2, 76440, Note_off_c, 1, 78, 0
2, 76440, Note_off_c, 1, 81, 0
2, 76440, Note_off_c, 1, 83, 0
2, 76480, Note_on_c, 1, 52, 127
2, 76480, Note_on_c, 1, 64, 127
2, 76480, Note_on_c, 1, 71, 127
2, 76480, Note_on_c, 1, 76, 127
2, 76480, Note_on_c, 1, 80, 127
2, 76480, Note_on_c, 1, 83, 127
2, 76600, Note_off_c, 1, 52, 0
2, 76600, Note_off_c, 1, 64, 0
2, 76600, Note_off_c, 1, 71, 0
2, 76600, Note_off_c, 1, 76, 0
2, 76600, Note_off_c, 1, 80, 0
2, 76600, Note_off_c, 1, 83, 0
2, 76680, Note_on_c, 1, 52, 127
2, 76680, Note_on_c, 1, 56, 127
2, 76720, Note_off_c, 1, 52, 0
2, 76720, Note_off_c, 1, 56, 0
2, 76840, Note_on_c, 1, 52, 127
2, 76840, Note_on_c, 1, 59, 127
2, 76880, Note_on_c, 1, 40, 127
2, 76880, Note_off_c, 1, 59, 0
2, 76920, Note_off_c, 1, 40, 0
2, 76920, Note_off_c, 1, 52, 0
2, 77040, Note_on_c, 1, 52, 127
2, 77040, Note_on_c, 1, 56, 127
2, 77080, Note_off_c, 1, 52, 0
2, 77080, Note_off_c, 1, 56, 0
2, 77240, Note_on_c, 1, 44, 127
2, 77240, Note_on_c, 1, 68, 127
2, 77240, Note_on_c, 1, 74, 127
2, 77240, Note_on_c, 1, 76, 127
2, 77280, Note_on_c, 1, 59, 127
2, 77320, Note_on_c, 1, 71, 127
2, 77400, Note_off_c, 1, 68, 0
2, 77400, Note_off_c, 1, 71, 0
2, 77400, Note_off_c, 1, 74, 0
2, 77400, Note_off_c, 1, 76, 0
2, 77440, Note_on_c, 1, 68, 127
2, 77440, Note_on_c, 1, 71, 127
2, 77440, Note_on_c, 1, 74, 127
2, 77440, Note_on_c, 1, 76, 127
2, 77480, Note_off_c, 1, 68, 0
2, 77480, Note_off_c, 1, 71, 0
2, 77480, Note_off_c, 1, 74, 0
2, 77480, Note_off_c, 1, 76, 0
2, 77520, Note_on_c, 1, 64, 127
2, 77520, Note_on_c, 1, 71, 127
2, 77520, Note_on_c, 1, 74, 127
2, 77520, Note_on_c, 1, 76, 127
2, 77560, Note_off_c, 1, 44, 0
2, 77560, Note_off_c, 1, 59, 0
2, 77560, Note_off_c, 1, 64, 0
2, 77560, Note_off_c, 1, 71, 0
2, 77560, Note_off_c, 1, 74, 0
2, 77560, Note_off_c, 1, 76, 0
2, 77640, Note_on_c, 1, 47, 127
2, 77640, Note_on_c, 1, 59, 127
2, 77640, Note_on_c, 1, 68, 127
2, 77640, Note_on_c, 1, 71, 127
2, 77640, Note_on_c, 1, 74, 127
2, 77640, Note_on_c, 1, 76, 127
2, 77760, Note_off_c, 1, 47, 0
2, 77760, Note_off_c, 1, 59, 0
2, 77760, Note_off_c, 1, 68, 0
2, 77760, Note_off_c, 1, 71, 0
2, 77760, Note_off_c, 1, 74, 0
2, 77760, Note_off_c, 1, 76, 0
2, 78000, Note_on_c, 1, 45, 127
2, 78000, Note_on_c, 1, 57, 127
2, 78000, Note_on_c, 1, 73, 127
2, 78000, Note_on_c, 1, 76, 127
2, 78000, Note_on_c, 1, 81, 127
2, 78040, Note_off_c, 1, 45, 0
2, 78040, Note_off_c, 1, 57, 0
2, 78120, Note_on_c, 1, 64, 127
2, 78160, Note_off_c, 1, 64, 0
2, 78200, Note_on_c, 1, 60, 127
2, 78200, Note_on_c, 1, 64, 127
2, 78240, Note_off_c, 1, 60, 0
2, 78240, Note_off_c, 1, 64, 0
2, 78280, Note_on_c, 1, 64, 127
2, 78360, Note_off_c, 1, 64, 0
2, 78360, Note_off_c, 1, 73, 0
2, 78360, Note_off_c, 1, 76, 0
2, 78360, Note_off_c, 1, 81, 0
2, 78400, Note_on_c, 1, 74, 127
2, 78440, Note_off_c, 1, 74, 0
2, 78480, Note_on_c, 1, 74, 127
2, 78520, Note_off_c, 1, 74, 0
2, 78600, Note_on_c, 1, 76, 127
2, 78640, Note_off_c, 1, 76, 0
2, 78680, Note_on_c, 1, 74, 127
2, 78760, Note_on_c, 1, 40, 127
2, 78760, Note_on_c, 1, 50, 127
2, 78760, Note_on_c, 1, 68, 127
2, 78760, Note_on_c, 1, 71, 127
2, 78840, Note_off_c, 1, 50, 0
2, 78880, Note_off_c, 1, 68, 0
2, 78920, Note_on_c, 1, 68, 127
2, 78960, Note_on_c, 1, 56, 127
2, 79000, Note_off_c, 1, 56, 0
2, 79000, Note_off_c, 1, 68, 0
2, 79080, Note_on_c, 1, 64, 127
2, 79080, Note_on_c, 1, 68, 127
2, 79120, Note_off_c, 1, 40, 0
2, 79120, Note_off_c, 1, 64, 0
2, 79120, Note_off_c, 1, 68, 0
2, 79120, Note_off_c, 1, 71, 0
2, 79120, Note_off_c, 1, 74, 0
2, 79160, Note_on_c, 1, 45, 127
2, 79160, Note_on_c, 1, 69, 127
2, 79160, Note_on_c, 1, 73, 127
2, 79200, Note_off_c, 1, 45, 0
2, 79240, Note_on_c, 1, 52, 127
2, 79320, Note_off_c, 1, 52, 0
2, 79320, Note_off_c, 1, 69, 0
2, 79360, Note_on_c, 1, 52, 127
2, 79360, Note_on_c, 1, 81, 127
2, 79400, Note_off_c, 1, 52, 0
2, 79400, Note_on_c, 1, 80, 127
2, 79400, Note_off_c, 1, 81, 0
2, 79440, Note_on_c, 1, 52, 127
2, 79440, Note_off_c, 1, 80, 0
2, 79440, Note_on_c, 1, 81, 127
2, 79480, Note_off_c, 1, 52, 0
2, 79480, Note_off_c, 1, 73, 0
2, 79480, Note_off_c, 1, 81, 0
2, 79480, Note_on_c, 1, 83, 127
2, 79520, Note_off_c, 1, 83, 0
2, 79560, Note_on_c, 1, 38, 127
2, 79560, Note_on_c, 1, 73, 127
2, 79560, Note_on_c, 1, 76, 127
2, 79560, Note_on_c, 1, 81, 127
2, 79600, Note_off_c, 1, 38, 0
2, 79600, Note_off_c, 1, 73, 0
2, 79600, Note_off_c, 1, 76, 0
2, 79640, Note_on_c, 1, 54, 127
2, 79640, Note_on_c, 1, 75, 127
2, 79680, Note_off_c, 1, 54, 0
2, 79680, Note_off_c, 1, 75, 0
2, 79720, Note_on_c, 1, 42, 127
2, 79720, Note_on_c, 1, 76, 127
2, 79720, Note_on_c, 1, 85, 127
2, 79800, Note_off_c, 1, 76, 0
2, 79840, Note_on_c, 1, 54, 127
2, 79840, Note_on_c, 1, 74, 127
2, 79880, Note_off_c, 1, 42, 0
2, 79880, Note_off_c, 1, 54, 0
2, 79880, Note_off_c, 1, 74, 0
2, 79880, Note_off_c, 1, 85, 0
2, 79920, Note_on_c, 1, 45, 127
2, 79920, Note_on_c, 1, 76, 127
2, 79920, Note_on_c, 1, 85, 127
2, 79960, Note_off_c, 1, 45, 0
2, 79960, Note_off_c, 1, 76, 0
2, 79960, Note_off_c, 1, 81, 0
2, 79960, Note_off_c, 1, 85, 0
2, 80040, Note_on_c, 1, 52, 127
2, 80040, Note_on_c, 1, 81, 127
2, 80080, Note_off_c, 1, 52, 0
2, 80080, Note_off_c, 1, 81, 0
2, 80120, Note_on_c, 1, 57, 127
2, 80120, Note_on_c, 1, 78, 127
2, 80120, Note_on_c, 1, 81, 127
2, 80160, Note_off_c, 1, 57, 0
2, 80160, Note_off_c, 1, 78, 0
2, 80160, Note_off_c, 1, 81, 0
2, 80200, Note_on_c, 1, 52, 127
2, 80200, Note_on_c, 1, 73, 127
2, 80240, Note_off_c, 1, 52, 0
2, 80240, Note_off_c, 1, 73, 0
2, 80320, Note_on_c, 1, 40, 127
2, 80320, Note_on_c, 1, 68, 127
2, 80320, Note_on_c, 1, 71, 127
2, 80320, Note_on_c, 1, 76, 127
2, 80320, Note_on_c, 1, 80, 127
2, 80360, Note_off_c, 1, 40, 0
2, 80360, Note_off_c, 1, 76, 0
2, 80400, Note_on_c, 1, 52, 127
2, 80440, Note_off_c, 1, 52, 0
2, 80440, Note_off_c, 1, 68, 0
2, 80440, Note_off_c, 1, 71, 0
2, 80440, Note_off_c, 1, 80, 0
2, 80520, Note_on_c, 1, 59, 127
2, 80520, Note_on_c, 1, 81, 127
2, 80520, Note_on_c, 1, 83, 127
2, 80560, Note_off_c, 1, 59, 0
2, 80560, Note_off_c, 1, 81, 0
2, 80560, Note_off_c, 1, 83, 0
2, 80600, Note_on_c, 1, 52, 127
2, 80600, Note_on_c, 1, 76, 127
2, 80640, Note_off_c, 1, 52, 0
2, 80640, Note_off_c, 1, 76, 0
2, 80680, Note_on_c, 1, 40, 127
2, 80680, Note_on_c, 1, 64, 127
2, 80680, Note_on_c, 1, 68, 127
2, 80680, Note_on_c, 1, 71, 127
2, 80680, Note_on_c, 1, 76, 127
2, 80760, Note_off_c, 1, 40, 0
2, 80800, Note_on_c, 1, 52, 127
2, 80840, Note_off_c, 1, 52, 0
2, 80840, Note_off_c, 1, 64, 0
2, 80840, Note_off_c, 1, 68, 0
2, 80840, Note_off_c, 1, 71, 0
2, 80840, Note_off_c, 1, 76, 0
2, 80880, Note_on_c, 1, 54, 127
2, 80880, Note_on_c, 1, 63, 127
2, 80880, Note_on_c, 1, 66, 127
2, 80880, Note_on_c, 1, 69, 127
2, 81000, Note_on_c, 1, 74, 127
2, 81040, Note_off_c, 1, 54, 0
2, 81040, Note_off_c, 1, 74, 0
2, 81080, Note_on_c, 1, 54, 127
2, 81080, Note_on_c, 1, 73, 127
2, 81120, Note_off_c, 1, 73, 0
2, 81160, Note_on_c, 1, 75, 127
2, 81240, Note_off_c, 1, 54, 0
2, 81240, Note_off_c, 1, 63, 0
2, 81240, Note_off_c, 1, 66, 0
2, 81240, Note_off_c, 1, 69, 0
2, 81240, Note_off_c, 1, 75, 0
2, 81280, Note_on_c, 1, 44, 127
2, 81280, Note_on_c, 1, 64, 127
2, 81280, Note_on_c, 1, 68, 127
2, 81280, Note_on_c, 1, 71, 127
2, 81280, Note_on_c, 1, 76, 127
2, 81320, Note_off_c, 1, 76, 0
2, 81480, Note_on_c, 1, 75, 127
2, 81520, Note_off_c, 1, 75, 0
2, 81560, Note_on_c, 1, 76, 127
2, 81600, Note_off_c, 1, 44, 0
2, 81600, Note_on_c, 1, 47, 127
2, 81600, Note_off_c, 1, 76, 0
2, 81640, Note_on_c, 1, 44, 127
2, 81640, Note_off_c, 1, 47, 0
2, 81640, Note_on_c, 1, 76, 127
2, 81720, Note_off_c, 1, 76, 0
2, 81760, Note_on_c, 1, 80, 127
2, 81800, Note_off_c, 1, 64, 0
2, 81800, Note_off_c, 1, 68, 0
2, 81800, Note_off_c, 1, 71, 0
2, 81800, Note_off_c, 1, 80, 0
2, 81840, Note_on_c, 1, 52, 127
2, 81840, Note_on_c, 1, 64, 127
2, 81840, Note_on_c, 1, 71, 127
2, 81840, Note_on_c, 1, 76, 127
2, 81880, Note_off_c, 1, 76, 0
2, 81960, Note_on_c, 1, 80, 127
2, 82000, Note_off_c, 1, 44, 0
2, 82000, Note_off_c, 1, 52, 0
2, 82000, Note_off_c, 1, 64, 0
2, 82000, Note_off_c, 1, 71, 0
2, 82000, Note_off_c, 1, 80, 0
2, 82040, Note_on_c, 1, 43, 127
2, 82040, Note_on_c, 1, 52, 127
2, 82040, Note_on_c, 1, 55, 127
2, 82040, Note_on_c, 1, 59, 127
2, 82040, Note_on_c, 1, 67, 127
2, 82040, Note_on_c, 1, 71, 127
2, 82040, Note_on_c, 1, 76, 127
2, 82080, Note_off_c, 1, 52, 0
2, 82360, Note_off_c, 1, 43, 0
2, 82360, Note_off_c, 1, 55, 0
2, 82360, Note_off_c, 1, 59, 0
2, 82360, Note_off_c, 1, 71, 0
2, 82360, Note_off_c, 1, 76, 0
2, 82440, Note_on_c, 1, 59, 127
2, 82440, Note_on_c, 1, 76, 127
2, 82480, Note_off_c, 1, 59, 0
2, 82520, Note_on_c, 1, 52, 127
2, 82560, Note_off_c, 1, 52, 0
2, 82600, Note_on_c, 1, 55, 127
2, 82680, Note_off_c, 1, 55, 0
2, 82720, Note_on_c, 1, 57, 127
2, 82760, Note_off_c, 1, 57, 0
2, 82760, Note_off_c, 1, 67, 0
2, 82760, Note_off_c, 1, 76, 0
2, 82800, Note_on_c, 1, 43, 127
2, 82800, Note_on_c, 1, 55, 127
2, 82800, Note_on_c, 1, 79, 127
2, 82840, Note_off_c, 1, 43, 0
2, 82840, Note_off_c, 1, 79, 0
2, 82920, Note_on_c, 1, 64, 127
2, 82920, Note_on_c, 1, 76, 127
2, 82960, Note_off_c, 1, 76, 0
2, 83000, Note_on_c, 1, 60, 127
2, 83000, Note_off_c, 1, 64, 0
2, 83000, Note_on_c, 1, 76, 127
2, 83040, Note_off_c, 1, 60, 0
2, 83040, Note_off_c, 1, 76, 0
2, 83080, Note_on_c, 1, 61, 127
2, 83080, Note_on_c, 1, 76, 127
2, 83160, Note_off_c, 1, 55, 0
2, 83160, Note_off_c, 1, 61, 0
2, 83160, Note_off_c, 1, 76, 0
2, 83200, Note_on_c, 1, 57, 127
2, 83200, Note_on_c, 1, 72, 127
2, 83200, Note_on_c, 1, 76, 127
2, 83240, Note_off_c, 1, 57, 0
2, 83240, Note_off_c, 1, 76, 0
2, 83280, Note_on_c, 1, 55, 127
2, 83320, Note_off_c, 1, 55, 0
2, 83320, Note_off_c, 1, 72, 0
2, 83400, Note_on_c, 1, 49, 127
2, 83400, Note_on_c, 1, 76, 127
2, 83440, Note_off_c, 1, 49, 0
2, 83440, Note_off_c, 1, 76, 0
2, 83480, Note_on_c, 1, 55, 127
2, 83480, Note_on_c, 1, 73, 127
2, 83520, Note_off_c, 1, 55, 0
2, 83520, Note_off_c, 1, 73, 0
2, 83560, Note_on_c, 1, 47, 127
2, 83560, Note_on_c, 1, 74, 127
2, 83560, Note_on_c, 1, 86, 127
2, 83640, Note_off_c, 1, 47, 0
2, 83640, Note_off_c, 1, 74, 0
2, 83680, Note_on_c, 1, 55, 127
2, 83680, Note_on_c, 1, 76, 127
2, 83720, Note_off_c, 1, 55, 0
2, 83720, Note_off_c, 1, 76, 0
2, 83760, Note_on_c, 1, 54, 127
2, 83760, Note_on_c, 1, 74, 127
2, 83800, Note_off_c, 1, 54, 0
2, 83800, Note_off_c, 1, 74, 0
2, 83880, Note_on_c, 1, 74, 127
2, 83920, Note_off_c, 1, 74, 0
2, 83960, Note_on_c, 1, 43, 127
2, 83960, Note_on_c, 1, 71, 127
2, 83960, Note_on_c, 1, 74, 127
2, 84000, Note_off_c, 1, 43, 0
2, 84000, Note_off_c, 1, 71, 0
2, 84000, Note_off_c, 1, 74, 0
2, 84040, Note_on_c, 1, 55, 127
2, 84040, Note_on_c, 1, 74, 127
2, 84120, Note_off_c, 1, 55, 0
2, 84120, Note_off_c, 1, 74, 0
2, 84120, Note_off_c, 1, 86, 0
2, 84160, Note_on_c, 1, 54, 127
2, 84160, Note_on_c, 1, 76, 127
2, 84160, Note_on_c, 1, 85, 127
2, 84160, Note_on_c, 1, 88, 127
2, 84200, Note_off_c, 1, 54, 0
2, 84200, Note_off_c, 1, 76, 0
2, 84200, Note_off_c, 1, 85, 0
2, 84240, Note_on_c, 1, 55, 127
2, 84240, Note_on_c, 1, 78, 127
2, 84240, Note_on_c, 1, 90, 127
2, 84280, Note_off_c, 1, 55, 0
2, 84280, Note_off_c, 1, 78, 0
2, 84280, Note_off_c, 1, 88, 0
2, 84280, Note_off_c, 1, 90, 0
2, 84360, Note_on_c, 1, 42, 127
2, 84360, Note_on_c, 1, 54, 127
2, 84360, Note_on_c, 1, 58, 127
2, 84360, Note_on_c, 1, 62, 127
2, 84360, Note_on_c, 1, 64, 127
2, 84360, Note_on_c, 1, 67, 127
2, 84360, Note_on_c, 1, 74, 127
2, 84360, Note_on_c, 1, 85, 127
2, 84360, Note_on_c, 1, 88, 127
2, 84400, Note_off_c, 1, 42, 0
2, 84400, Note_on_c, 1, 73, 127
2, 84400, Note_off_c, 1, 74, 0
2, 84400, Note_off_c, 1, 88, 0
2, 84440, Note_off_c, 1, 85, 0
2, 84440, Note_on_c, 1, 86, 127
2, 84480, Note_off_c, 1, 54, 0
2, 84480, Note_on_c, 1, 66, 127
2, 84480, Note_off_c, 1, 67, 0
2, 84480, Note_off_c, 1, 73, 0
2, 84480, Note_off_c, 1, 86, 0
2, 84520, Note_on_c, 1, 54, 127
2, 84520, Note_off_c, 1, 66, 0
2, 84520, Note_on_c, 1, 67, 127
2, 84520, Note_on_c, 1, 85, 127
2, 84520, Note_on_c, 1, 88, 127
2, 84600, Note_off_c, 1, 54, 0
2, 84600, Note_on_c, 1, 61, 127
2, 84600, Note_off_c, 1, 62, 0
2, 84600, Note_off_c, 1, 67, 0
2, 84680, Note_off_c, 1, 58, 0
2, 84680, Note_off_c, 1, 61, 0
2, 84680, Note_off_c, 1, 64, 0
2, 84680, Note_off_c, 1, 85, 0
2, 84680, Note_off_c, 1, 88, 0
2, 84720, Note_on_c, 1, 43, 127
2, 84720, Note_on_c, 1, 55, 127
2, 84720, Note_on_c, 1, 59, 127
2, 84720, Note_on_c, 1, 65, 127
2, 84720, Note_on_c, 1, 67, 127
2, 84720, Note_on_c, 1, 83, 127
2, 84720, Note_on_c, 1, 86, 127
2, 84880, Note_off_c, 1, 43, 0
2, 84880, Note_off_c, 1, 55, 0
2, 84880, Note_off_c, 1, 59, 0
2, 84880, Note_off_c, 1, 65, 0
2, 84880, Note_off_c, 1, 67, 0
2, 84880, Note_off_c, 1, 83, 0
2, 84880, Note_off_c, 1, 86, 0
2, 84920, Note_on_c, 1, 35, 127
2, 84920, Note_on_c, 1, 47, 127
2, 84920, Note_on_c, 1, 59, 127
2, 84920, Note_on_c, 1, 63, 127
2, 84920, Note_on_c, 1, 67, 127
2, 84960, Note_on_c, 1, 66, 127
2, 84960, Note_off_c, 1, 67, 0
2, 85000, Note_off_c, 1, 66, 0
2, 85000, Note_on_c, 1, 67, 127
2, 85080, Note_off_c, 1, 35, 0
2, 85080, Note_off_c, 1, 47, 0
2, 85080, Note_off_c, 1, 59, 0
2, 85080, Note_off_c, 1, 63, 0
2, 85080, Note_off_c, 1, 67, 0
2, 85120, Note_on_c, 1, 59, 127
2, 85200, Note_on_c, 1, 63, 127
2, 85240, Note_off_c, 1, 63, 0
2, 85320, Note_on_c, 1, 62, 127
2, 85320, Note_on_c, 1, 66, 127
2, 85320, Note_on_c, 1, 76, 127
2, 85320, Note_on_c, 1, 78, 127
2, 85320, Note_on_c, 1, 81, 127
2, 85440, Note_off_c, 1, 59, 0
2, 85440, Note_off_c, 1, 62, 0
2, 85440, Note_off_c, 1, 66, 0
2, 85440, Note_off_c, 1, 76, 0
2, 85440, Note_off_c, 1, 78, 0
2, 85440, Note_off_c, 1, 81, 0
2, 85480, Note_on_c, 1, 61, 127
2, 85480, Note_on_c, 1, 64, 127
2, 85480, Note_on_c, 1, 76, 127
2, 85480, Note_on_c, 1, 79, 127
2, 85480, Note_on_c, 1, 82, 127
2, 85480, Note_on_c, 1, 88, 127
2, 85640, Note_off_c, 1, 61, 0
2, 85640, Note_off_c, 1, 64, 0
2, 85640, Note_off_c, 1, 76, 0
2, 85640, Note_off_c, 1, 79, 0
2, 85640, Note_off_c, 1, 82, 0
2, 85640, Note_off_c, 1, 88, 0
2, 85680, Note_on_c, 1, 32, 127
2, 85680, Note_on_c, 1, 52, 127
2, 85680, Note_on_c, 1, 64, 127
2, 85680, Note_on_c, 1, 87, 127
2, 85720, Note_off_c, 1, 32, 0
2, 85800, Note_off_c, 1, 87, 0
2, 85800, Note_on_c, 1, 88, 127
2, 85840, Note_off_c, 1, 88, 0
2, 85880, Note_on_c, 1, 76, 127
2, 85880, Note_on_c, 1, 79, 127
2, 85880, Note_on_c, 1, 82, 127
2, 85880, Note_on_c, 1, 88, 127
2, 86040, Note_off_c, 1, 76, 0
2, 86040, Note_off_c, 1, 79, 0
2, 86040, Note_off_c, 1, 82, 0
2, 86040, Note_off_c, 1, 88, 0
2, 86080, Note_on_c, 1, 76, 127
2, 86080, Note_on_c, 1, 80, 127
2, 86080, Note_on_c, 1, 85, 127
2, 86080, Note_on_c, 1, 88, 127
2, 86120, Note_on_c, 1, 84, 127
2, 86120, Note_off_c, 1, 85, 0
2, 86200, Note_off_c, 1, 76, 0
2, 86200, Note_off_c, 1, 80, 0
2, 86200, Note_off_c, 1, 84, 0
2, 86200, Note_off_c, 1, 88, 0
2, 86280, Note_on_c, 1, 79, 127
2, 86280, Note_on_c, 1, 88, 127
2, 86400, Note_off_c, 1, 52, 0
2, 86400, Note_off_c, 1, 64, 0
2, 86400, Note_off_c, 1, 79, 0
2, 86400, Note_off_c, 1, 88, 0
2, 86440, Note_on_c, 1, 64, 127
2, 86440, Note_on_c, 1, 76, 127
2, 86440, Note_on_c, 1, 81, 127
2, 86440, Note_on_c, 1, 88, 127
2, 86600, Note_off_c, 1, 64, 0
2, 86600, Note_off_c, 1, 76, 0
2, 86600, Note_off_c, 1, 81, 0
2, 86600, Note_off_c, 1, 88, 0
2, 86640, Note_on_c, 1, 55, 127
2, 86640, Note_on_c, 1, 76, 127
2, 86640, Note_on_c, 1, 79, 127
2, 86640, Note_on_c, 1, 88, 127
2, 86800, Note_off_c, 1, 55, 0
2, 86800, Note_off_c, 1, 76, 0
2, 86800, Note_off_c, 1, 79, 0
2, 86800, Note_off_c, 1, 88, 0
2, 86840, Note_on_c, 1, 57, 127
2, 86840, Note_on_c, 1, 82, 127
2, 86840, Note_on_c, 1, 85, 127
2, 86840, Note_on_c, 1, 88, 127
2, 87000, Note_off_c, 1, 57, 0
2, 87000, Note_off_c, 1, 82, 0
2, 87000, Note_off_c, 1, 85, 0
2, 87000, Note_off_c, 1, 88, 0
2, 87040, Note_on_c, 1, 38, 127
2, 87040, Note_on_c, 1, 50, 127
2, 87040, Note_on_c, 1, 81, 127
2, 87160, Note_off_c, 1, 38, 0
2, 87160, Note_off_c, 1, 50, 0
2, 87160, Note_off_c, 1, 81, 0
2, 87240, Note_on_c, 1, 57, 127
2, 87360, Note_off_c, 1, 57, 0
2, 87400, Note_on_c, 1, 62, 127
2, 87560, Note_off_c, 1, 62, 0
2, 87600, Note_on_c, 1, 45, 127
2, 87600, Note_on_c, 1, 57, 127
2, 87600, Note_on_c, 1, 73, 127
2, 87600, Note_on_c, 1, 76, 127
2, 87600, Note_on_c, 1, 81, 127
2, 87600, Note_on_c, 1, 85, 127
2, 87960, Note_off_c, 1, 45, 0
2, 87960, Note_off_c, 1, 57, 0
2, 87960, Note_off_c, 1, 73, 0
2, 87960, Note_off_c, 1, 76, 0
2, 87960, Note_off_c, 1, 81, 0
2, 87960, Note_off_c, 1, 85, 0
2, 88360, Note_on_c, 1, 32, 127
2, 88360, Note_on_c, 1, 44, 127
2, 88360, Note_on_c, 1, 68, 127
2, 88360, Note_on_c, 1, 72, 127
2, 88360, Note_on_c, 1, 75, 127
2, 88360, Note_on_c, 1, 80, 127
2, 88800, Note_off_c, 1, 32, 0
2, 88800, Note_on_c, 1, 39, 127
2, 88800, Note_off_c, 1, 44, 0
2, 88840, Note_on_c, 1, 32, 127
2, 88840, Note_off_c, 1, 39, 0
2, 88840, Note_on_c, 1, 44, 127
2, 88920, Note_off_c, 1, 32, 0
2, 88920, Note_off_c, 1, 44, 0
2, 88920, Note_off_c, 1, 68, 0
2, 88920, Note_off_c, 1, 72, 0
2, 88920, Note_off_c, 1, 75, 0
2, 88920, Note_off_c, 1, 80, 0
2, 88960, Note_on_c, 1, 32, 127
2, 88960, Note_on_c, 1, 44, 127
2, 88960, Note_on_c, 1, 68, 127
2, 88960, Note_on_c, 1, 72, 127
2, 88960, Note_on_c, 1, 75, 127
2, 88960, Note_on_c, 1, 80, 127
2, 89120, Note_off_c, 1, 32, 0
2, 89120, Note_off_c, 1, 44, 0
2, 89120, Note_off_c, 1, 68, 0
2, 89120, Note_off_c, 1, 72, 0
2, 89120, Note_off_c, 1, 75, 0
2, 89120, Note_off_c, 1, 80, 0
2, 89160, Note_on_c, 1, 32, 127
2, 89160, Note_on_c, 1, 44, 127
2, 89160, Note_on_c, 1, 68, 127
2, 89160, Note_on_c, 1, 72, 127
2, 89160, Note_on_c, 1, 75, 127
2, 89160, Note_on_c, 1, 80, 127
2, 89680, Note_off_c, 1, 44, 0
2, 89720, Note_on_c, 1, 44, 127
2, 89880, Note_off_c, 1, 32, 0
2, 89880, Note_on_c, 1, 39, 127
2, 89880, Note_off_c, 1, 44, 0
2, 89920, Note_on_c, 1, 32, 127
2, 89920, Note_off_c, 1, 39, 0
2, 89920, Note_on_c, 1, 44, 127
2, 90000, Note_off_c, 1, 75, 0
2, 90080, Note_off_c, 1, 32, 0
2, 90080, Note_off_c, 1, 44, 0
2, 90080, Note_off_c, 1, 68, 0
2, 90080, Note_off_c, 1, 72, 0
2, 90080, Note_off_c, 1, 80, 0
2, 90120, Note_on_c, 1, 37, 127
2, 90120, Note_on_c, 1, 49, 127
2, 90120, Note_on_c, 1, 61, 127
2, 90120, Note_on_c, 1, 68, 127
2, 90120, Note_on_c, 1, 73, 127
2, 90200, Note_off_c, 1, 49, 0
2, 90240, Note_on_c, 1, 44, 127
2, 90320, Note_off_c, 1, 44, 0
2, 90320, Note_on_c, 1, 80, 127
2, 90360, Note_on_c, 1, 44, 127
2, 90440, Note_off_c, 1, 73, 0
2, 90440, Note_off_c, 1, 80, 0
2, 90480, Note_on_c, 1, 75, 127
2, 90560, Note_off_c, 1, 75, 0
2, 90600, Note_on_c, 1, 71, 127
2, 90680, Note_off_c, 1, 37, 0
2, 90680, Note_off_c, 1, 71, 0
2, 90720, Note_on_c, 1, 42, 127
2, 90720, Note_off_c, 1, 44, 0
2, 90720, Note_on_c, 1, 69, 127
2, 90800, Note_off_c, 1, 42, 0
2, 90800, Note_off_c, 1, 61, 0
2, 90800, Note_off_c, 1, 68, 0
2, 90800, Note_off_c, 1, 69, 0
2, 90840, Note_on_c, 1, 41, 127
2, 90840, Note_on_c, 1, 53, 127
2, 90840, Note_on_c, 1, 60, 127
2, 90840, Note_on_c, 1, 68, 127
2, 90840, Note_on_c, 1, 76, 127
2, 90920, Note_off_c, 1, 76, 0
2, 90960, Note_on_c, 1, 77, 127
2, 91040, Note_off_c, 1, 77, 0
2, 91200, Note_off_c, 1, 68, 0
2, 91240, Note_off_c, 1, 60, 0
2, 91280, Note_on_c, 1, 58, 127
2, 91280, Note_on_c, 1, 61, 127
2, 91280, Note_on_c, 1, 64, 127
2, 91280, Note_on_c, 1, 72, 127
2, 91320, Note_off_c, 1, 72, 0
2, 91400, Note_on_c, 1, 76, 127
2, 91440, Note_off_c, 1, 76, 0
2, 91480, Note_on_c, 1, 70, 127
2, 91560, Note_off_c, 1, 70, 0
2, 91600, Note_on_c, 1, 77, 127
2, 91640, Note_off_c, 1, 77, 0
2, 91680, Note_on_c, 1, 79, 127
2, 91760, Note_off_c, 1, 64, 0
2, 91760, Note_off_c, 1, 79, 0
2, 91800, Note_on_c, 1, 65, 127
2, 91800, Note_on_c, 1, 73, 127
2, 91880, Note_off_c, 1, 73, 0
2, 91920, Note_on_c, 1, 76, 127
2, 91960, Note_off_c, 1, 76, 0
2, 92000, Note_on_c, 1, 77, 127
2, 92040, Note_off_c, 1, 77, 0
2, 92120, Note_on_c, 1, 73, 127
2, 92160, Note_off_c, 1, 73, 0
2, 92200, Note_on_c, 1, 70, 127
2, 92240, Note_off_c, 1, 41, 0
2, 92240, Note_off_c, 1, 53, 0
2, 92240, Note_off_c, 1, 58, 0
2, 92240, Note_off_c, 1, 61, 0
2, 92240, Note_off_c, 1, 65, 0
2, 92240, Note_off_c, 1, 70, 0
2, 92280, Note_on_c, 1, 70, 127
2, 92320, Note_off_c, 1, 70, 0
2, 92400, Note_on_c, 1, 73, 127
2, 92440, Note_off_c, 1, 73, 0
2, 92480, Note_on_c, 1, 72, 127
2, 92520, Note_off_c, 1, 72, 0
2, 92600, Note_on_c, 1, 70, 127
2, 92640, Note_off_c, 1, 70, 0
2, 92680, Note_on_c, 1, 71, 127
2, 92720, Note_off_c, 1, 71, 0
2, 92760, Note_on_c, 1, 41, 127
2, 92760, Note_on_c, 1, 53, 127
2, 92760, Note_on_c, 1, 61, 127
2, 92760, Note_on_c, 1, 68, 127
2, 92760, Note_on_c, 1, 70, 127
2, 92760, Note_on_c, 1, 73, 127
2, 92760, Note_on_c, 1, 80, 127
2, 92800, Note_off_c, 1, 70, 0
2, 92800, Note_off_c, 1, 80, 0
2, 92840, Note_off_c, 1, 41, 0
2, 92840, Note_off_c, 1, 53, 0
2, 92840, Note_off_c, 1, 61, 0
2, 92840, Note_on_c, 1, 66, 127
2, 92840, Note_off_c, 1, 68, 0
2, 92840, Note_on_c, 1, 70, 127
2, 92880, Note_on_c, 1, 61, 127
2, 92920, Note_off_c, 1, 66, 0
2, 92920, Note_off_c, 1, 70, 0
2, 92960, Note_on_c, 1, 53, 127
2, 92960, Note_on_c, 1, 66, 127
2, 92960, Note_on_c, 1, 70, 127
2, 93000, Note_off_c, 1, 53, 0
2, 93000, Note_off_c, 1, 73, 0
2, 93120, Note_off_c, 1, 61, 0
2, 93120, Note_off_c, 1, 66, 0
2, 93120, Note_off_c, 1, 70, 0
2, 93160, Note_on_c, 1, 49, 127
2, 93160, Note_on_c, 1, 53, 127
2, 93160, Note_on_c, 1, 61, 127
2, 93160, Note_on_c, 1, 68, 127
2, 93160, Note_on_c, 1, 73, 127
2, 93200, Note_off_c, 1, 49, 0
2, 93200, Note_off_c, 1, 53, 0
2, 93240, Note_on_c, 1, 65, 127
2, 93320, Note_off_c, 1, 65, 0
2, 93320, Note_off_c, 1, 68, 0
2, 93320, Note_off_c, 1, 73, 0
2, 93360, Note_on_c, 1, 65, 127
2, 93360, Note_on_c, 1, 68, 127
2, 93360, Note_on_c, 1, 73, 127
2, 93400, Note_off_c, 1, 65, 0
2, 93400, Note_off_c, 1, 68, 0
2, 93400, Note_off_c, 1, 73, 0
2, 93440, Note_on_c, 1, 65, 127
2, 93480, Note_off_c, 1, 61, 0
2, 93480, Note_off_c, 1, 65, 0
2, 93560, Note_on_c, 1, 45, 127
2, 93560, Note_on_c, 1, 48, 127
2, 93560, Note_on_c, 1, 51, 127
2, 93560, Note_on_c, 1, 63, 127
2, 93560, Note_on_c, 1, 66, 127
2, 93560, Note_on_c, 1, 72, 127
2, 93600, Note_off_c, 1, 72, 0
2, 93640, Note_on_c, 1, 69, 127
2, 93680, Note_off_c, 1, 69, 0
2, 93720, Note_on_c, 1, 73, 127
2, 93800, Note_off_c, 1, 73, 0
2, 93840, Note_on_c, 1, 72, 127
2, 93880, Note_off_c, 1, 45, 0
2, 93880, Note_off_c, 1, 48, 0
2, 93880, Note_off_c, 1, 51, 0
2, 93880, Note_off_c, 1, 63, 0
2, 93880, Note_off_c, 1, 66, 0
2, 93880, Note_off_c, 1, 72, 0
2, 93920, Note_on_c, 1, 64, 127
2, 93920, Note_on_c, 1, 73, 127
2, 93960, Note_off_c, 1, 73, 0
2, 94040, Note_on_c, 1, 72, 127
2, 94080, Note_off_c, 1, 72, 0
2, 94120, Note_on_c, 1, 73, 127
2, 94160, Note_off_c, 1, 73, 0
2, 94200, Note_on_c, 1, 75, 127
2, 94280, Note_off_c, 1, 64, 0
2, 94280, Note_off_c, 1, 75, 0
2, 94320, Note_on_c, 1, 72, 127
2, 94320, Note_on_c, 1, 76, 127
2, 94320, Note_on_c, 1, 80, 127
2, 94360, Note_off_c, 1, 76, 0
2, 94360, Note_off_c, 1, 80, 0
2, 94400, Note_on_c, 1, 73, 127
2, 94440, Note_off_c, 1, 72, 0
2, 94440, Note_off_c, 1, 73, 0
2, 94520, Note_on_c, 1, 75, 127
2, 94560, Note_off_c, 1, 75, 0
2, 94600, Note_on_c, 1, 73, 127
2, 94640, Note_off_c, 1, 73, 0
2, 94680, Note_on_c, 1, 42, 127
2, 94680, Note_on_c, 1, 54, 127
2, 94680, Note_on_c, 1, 58, 127
2, 94680, Note_on_c, 1, 61, 127
2, 94680, Note_on_c, 1, 70, 127
2, 94680, Note_on_c, 1, 73, 127
2, 94680, Note_on_c, 1, 78, 127
2, 94760, Note_off_c, 1, 70, 0
2, 94760, Note_off_c, 1, 73, 0
2, 94840, Note_off_c, 1, 78, 0
2, 94880, Note_on_c, 1, 71, 127
2, 94880, Note_on_c, 1, 77, 127
2, 94920, Note_off_c, 1, 71, 0
2, 95000, Note_on_c, 1, 66, 127
2, 95040, Note_off_c, 1, 42, 0
2, 95040, Note_off_c, 1, 54, 0
2, 95040, Note_off_c, 1, 58, 0
2, 95040, Note_off_c, 1, 61, 0
2, 95040, Note_off_c, 1, 66, 0
2, 95040, Note_off_c, 1, 77, 0
2, 95080, Note_on_c, 1, 44, 127
2, 95080, Note_on_c, 1, 56, 127
2, 95080, Note_on_c, 1, 60, 127
2, 95080, Note_on_c, 1, 63, 127
2, 95080, Note_on_c, 1, 75, 127
2, 95080, Note_on_c, 1, 77, 127
2, 95120, Note_off_c, 1, 77, 0
2, 95160, Note_on_c, 1, 78, 127
2, 95240, Note_off_c, 1, 78, 0
2, 95280, Note_on_c, 1, 78, 127
2, 95320, Note_off_c, 1, 78, 0
2, 95360, Note_on_c, 1, 80, 127
2, 95400, Note_off_c, 1, 44, 0
2, 95400, Note_off_c, 1, 56, 0
2, 95400, Note_off_c, 1, 60, 0
2, 95400, Note_off_c, 1, 63, 0
2, 95400, Note_off_c, 1, 75, 0
2, 95400, Note_off_c, 1, 80, 0
2, 95480, Note_on_c, 1, 68, 127
2, 95480, Note_on_c, 1, 75, 127
2, 95480, Note_on_c, 1, 80, 127
2, 95520, Note_off_c, 1, 75, 0
2, 95520, Note_off_c, 1, 80, 0
2, 95560, Note_on_c, 1, 78, 127
2, 95560, Note_on_c, 1, 82, 127
2, 95600, Note_off_c, 1, 78, 0
2, 95600, Note_off_c, 1, 82, 0
2, 95640, Note_on_c, 1, 72, 127
2, 95680, Note_on_c, 1, 75, 127
2, 95720, Note_off_c, 1, 72, 0
2, 95720, Note_off_c, 1, 75, 0
2, 95760, Note_on_c, 1, 80, 127
2, 95800, Note_off_c, 1, 68, 0
2, 95800, Note_off_c, 1, 80, 0
2, 95840, Note_on_c, 1, 68, 127
2, 95840, Note_on_c, 1, 73, 127
2, 95840, Note_on_c, 1, 80, 127
2, 95880, Note_off_c, 1, 80, 0
2, 95920, Note_on_c, 1, 82, 127
2, 95960, Note_on_c, 1, 80, 127
2, 95960, Note_off_c, 1, 82, 0
2, 96000, Note_off_c, 1, 80, 0
2, 96040, Note_on_c, 1, 85, 127
2, 96080, Note_off_c, 1, 85, 0
2, 96120, Note_on_c, 1, 78, 127
2, 96200, Note_off_c, 1, 68, 0
2, 96200, Note_off_c, 1, 73, 0
2, 96200, Note_off_c, 1, 78, 0
2, 96240, Note_on_c, 1, 65, 127
2, 96240, Note_on_c, 1, 68, 127
2, 96240, Note_on_c, 1, 75, 127
2, 96240, Note_on_c, 1, 90, 127
2, 96280, Note_off_c, 1, 90, 0
2, 96320, Note_on_c, 1, 87, 127
2, 96360, Note_off_c, 1, 65, 0
2, 96360, Note_off_c, 1, 68, 0
2, 96360, Note_off_c, 1, 87, 0
2, 96440, Note_on_c, 1, 65, 127
2, 96440, Note_on_c, 1, 68, 127
2, 96440, Note_on_c, 1, 73, 127
2, 96440, Note_off_c, 1, 75, 0
2, 96440, Note_on_c, 1, 87, 127
2, 96480, Note_off_c, 1, 73, 0
2, 96480, Note_on_c, 1, 75, 127
2, 96560, Note_off_c, 1, 65, 0
2, 96560, Note_off_c, 1, 68, 0
2, 96560, Note_off_c, 1, 75, 0
2, 96560, Note_off_c, 1, 87, 0
2, 96600, Note_on_c, 1, 39, 127
2, 96600, Note_on_c, 1, 51, 127
2, 96600, Note_on_c, 1, 63, 127
2, 96720, Note_on_c, 1, 78, 127
2, 96760, Note_off_c, 1, 78, 0
2, 96800, Note_on_c, 1, 80, 127
2, 96840, Note_off_c, 1, 80, 0
2, 96920, Note_on_c, 1, 82, 127
2, 96960, Note_off_c, 1, 63, 0
2, 96960, Note_off_c, 1, 82, 0
2, 97000, Note_on_c, 1, 63, 127
2, 97000, Note_on_c, 1, 80, 127
2, 97040, Note_off_c, 1, 63, 0
2, 97040, Note_off_c, 1, 80, 0
2, 97080, Note_on_c, 1, 72, 127
2, 97080, Note_on_c, 1, 80, 127
2, 97160, Note_off_c, 1, 39, 0
2, 97160, Note_off_c, 1, 51, 0
2, 97160, Note_on_c, 1, 60, 127
2, 97160, Note_off_c, 1, 72, 0
2, 97160, Note_off_c, 1, 80, 0
2, 97200, Note_on_c, 1, 37, 127
2, 97200, Note_on_c, 1, 49, 127
2, 97200, Note_off_c, 1, 60, 0
2, 97200, Note_on_c, 1, 61, 127
2, 97200, Note_on_c, 1, 65, 127
2, 97200, Note_on_c, 1, 73, 127
2, 97200, Note_on_c, 1, 80, 127
2, 97240, Note_off_c, 1, 80, 0
2, 97280, Note_on_c, 1, 77, 127
2, 97320, Note_off_c, 1, 37, 0
2, 97320, Note_off_c, 1, 49, 0
2, 97320, Note_off_c, 1, 61, 0
2, 97320, Note_off_c, 1, 65, 0
2, 97320, Note_off_c, 1, 73, 0
2, 97320, Note_off_c, 1, 77, 0
2, 97400, Note_on_c, 1, 37, 127
2, 97400, Note_on_c, 1, 49, 127
2, 97400, Note_on_c, 1, 61, 127
2, 97400, Note_on_c, 1, 73, 127
2, 97400, Note_on_c, 1, 82, 127
2, 97520, Note_off_c, 1, 73, 0
2, 97520, Note_off_c, 1, 82, 0
2, 97560, Note_on_c, 1, 65, 127
2, 97560, Note_on_c, 1, 68, 127
2, 97600, Note_on_c, 1, 74, 127
2, 97720, Note_off_c, 1, 37, 0
2, 97720, Note_off_c, 1, 49, 0
2, 97720, Note_off_c, 1, 61, 0
2, 97720, Note_off_c, 1, 65, 0
2, 97720, Note_off_c, 1, 68, 0
2, 97720, Note_off_c, 1, 74, 0
2, 97760, Note_on_c, 1, 44, 127
2, 97760, Note_on_c, 1, 56, 127
2, 97760, Note_on_c, 1, 75, 127
2, 97760, Note_on_c, 1, 77, 127
2, 97760, Note_on_c, 1, 80, 127
2, 97760, Note_on_c, 1, 84, 127
2, 98000, Note_on_c, 1, 82, 127
2, 98040, Note_off_c, 1, 82, 0
2, 98120, Note_off_c, 1, 44, 0
2, 98120, Note_off_c, 1, 56, 0
2, 98120, Note_off_c, 1, 75, 0
2, 98120, Note_off_c, 1, 77, 0
2, 98120, Note_off_c, 1, 80, 0
2, 98120, Note_off_c, 1, 84, 0
2, 98160, Note_on_c, 1, 40, 127
2, 98160, Note_on_c, 1, 53, 127
2, 98160, Note_on_c, 1, 56, 127
2, 98160, Note_on_c, 1, 61, 127
2, 98160, Note_on_c, 1, 68, 127
2, 98200, Note_off_c, 1, 40, 0
2, 98200, Note_on_c, 1, 41, 127
2, 98200, Note_off_c, 1, 68, 0
2, 98240, Note_on_c, 1, 68, 127
2, 98280, Note_off_c, 1, 61, 0
2, 98280, Note_off_c, 1, 68, 0
2, 98360, Note_on_c, 1, 80, 127
2, 98360, Note_on_c, 1, 85, 127
2, 98400, Note_off_c, 1, 85, 0
2, 98440, Note_on_c, 1, 84, 127
2, 98480, Note_off_c, 1, 41, 0
2, 98480, Note_off_c, 1, 53, 0
2, 98480, Note_off_c, 1, 56, 0
2, 98480, Note_off_c, 1, 80, 0
2, 98480, Note_off_c, 1, 84, 0
2, 98520, Note_on_c, 1, 80, 127
2, 98520, Note_on_c, 1, 89, 127
2, 98600, Note_off_c, 1, 80, 0
2, 98600, Note_off_c, 1, 89, 0
2, 98640, Note_on_c, 1, 80, 127
2, 98640, Note_on_c, 1, 89, 127
2, 98680, Note_off_c, 1, 80, 0
2, 98680, Note_off_c, 1, 89, 0
2, 98720, Note_on_c, 1, 82, 127
2, 98720, Note_on_c, 1, 87, 127
2, 98760, Note_off_c, 1, 82, 0
2, 98760, Note_off_c, 1, 87, 0
2, 98840, Note_on_c, 1, 80, 127
2, 98840, Note_on_c, 1, 87, 127
2, 98880, Note_off_c, 1, 80, 0
2, 98880, Note_off_c, 1, 87, 0
2, 98920, Note_on_c, 1, 56, 127
2, 98920, Note_on_c, 1, 65, 127
2, 98920, Note_on_c, 1, 80, 127
2, 98920, Note_on_c, 1, 85, 127
2, 98960, Note_off_c, 1, 85, 0
2, 99000, Note_on_c, 1, 84, 127
2, 99080, Note_off_c, 1, 56, 0
2, 99080, Note_off_c, 1, 65, 0
2, 99080, Note_off_c, 1, 84, 0
2, 99120, Note_on_c, 1, 61, 127
2, 99120, Note_on_c, 1, 68, 127
2, 99120, Note_on_c, 1, 83, 127
2, 99160, Note_off_c, 1, 83, 0
2, 99200, Note_on_c, 1, 85, 127
2, 99240, Note_off_c, 1, 61, 0
2, 99240, Note_off_c, 1, 68, 0
2, 99240, Note_off_c, 1, 80, 0
2, 99240, Note_off_c, 1, 85, 0
2, 99320, Note_on_c, 1, 61, 127
2, 99320, Note_on_c, 1, 68, 127
2, 99320, Note_on_c, 1, 78, 127
2, 99320, Note_on_c, 1, 82, 127
2, 99320, Note_on_c, 1, 89, 127
2, 99440, Note_on_c, 1, 77, 127
2, 99440, Note_off_c, 1, 78, 0
2, 99640, Note_off_c, 1, 61, 0
2, 99640, Note_off_c, 1, 68, 0
2, 99640, Note_off_c, 1, 77, 0
2, 99640, Note_off_c, 1, 82, 0
2, 99640, Note_off_c, 1, 89, 0
2, 99680, Note_on_c, 1, 61, 127
2, 99680, Note_on_c, 1, 64, 127
2, 99680, Note_on_c, 1, 76, 127
2, 99680, Note_on_c, 1, 82, 127
2, 99680, Note_on_c, 1, 88, 127
2, 99840, Note_off_c, 1, 64, 0
2, 99840, Note_off_c, 1, 76, 0
2, 99840, Note_off_c, 1, 88, 0
2, 99880, Note_on_c, 1, 66, 127
2, 99880, Note_on_c, 1, 80, 127
2, 99880, Note_off_c, 1, 82, 0
2, 99880, Note_on_c, 1, 84, 127
2, 99880, Note_on_c, 1, 89, 127
2, 99920, Note_on_c, 1, 65, 127
2, 99920, Note_off_c, 1, 66, 0
2, 99920, Note_off_c, 1, 80, 0
2, 99920, Note_on_c, 1, 82, 127
2, 99920, Note_off_c, 1, 84, 0
2, 99920, Note_on_c, 1, 88, 127
2, 99920, Note_off_c, 1, 89, 0
2, 99960, Note_off_c, 1, 82, 0
2, 99960, Note_on_c, 1, 84, 127
2, 99960, Note_on_c, 1, 87, 127
2, 99960, Note_off_c, 1, 88, 0
2, 100000, Note_off_c, 1, 84, 0
2, 100000, Note_on_c, 1, 85, 127
2, 100000, Note_off_c, 1, 87, 0
2, 100000, Note_on_c, 1, 88, 127
2, 100040, Note_off_c, 1, 61, 0
2, 100040, Note_off_c, 1, 65, 0
2, 100040, Note_off_c, 1, 85, 0
2, 100040, Note_off_c, 1, 88, 0
2, 100080, Note_on_c, 1, 48, 127
2, 100080, Note_on_c, 1, 60, 127
2, 100080, Note_on_c, 1, 65, 127
2, 100080, Note_on_c, 1, 68, 127
2, 100080, Note_on_c, 1, 75, 127
2, 100080, Note_on_c, 1, 87, 127
2, 100400, Note_off_c, 1, 48, 0
2, 100400, Note_off_c, 1, 60, 0
2, 100400, Note_off_c, 1, 65, 0
2, 100400, Note_off_c, 1, 68, 0
2, 100400, Note_off_c, 1, 75, 0
2, 100400, Note_off_c, 1, 87, 0
2, 100440, Note_on_c, 1, 73, 127
2, 100440, Note_on_c, 1, 77, 127
2, 100440, Note_on_c, 1, 85, 127
2, 100440, Note_on_c, 1, 89, 127
2, 100760, Note_on_c, 1, 41, 127
2, 100800, Note_off_c, 1, 41, 0
2, 100800, Note_off_c, 1, 73, 0
2, 100800, Note_off_c, 1, 77, 0
2, 100800, Note_off_c, 1, 85, 0
2, 100800, Note_off_c, 1, 89, 0
2, 100840, Note_on_c, 1, 36, 127
2, 100840, Note_on_c, 1, 48, 127
2, 100840, Note_on_c, 1, 60, 127
2, 100840, Note_on_c, 1, 72, 127
2, 100840, Note_on_c, 1, 75, 127
2, 100840, Note_on_c, 1, 78, 127
2, 100840, Note_on_c, 1, 84, 127
2, 101240, Note_on_c, 1, 63, 127
2, 101320, Note_on_c, 1, 70, 127
2, 101360, Note_off_c, 1, 70, 0
2, 101360, Note_off_c, 1, 72, 0
2, 101440, Note_on_c, 1, 72, 127
2, 101520, Note_off_c, 1, 36, 0
2, 101560, Note_off_c, 1, 48, 0
2, 101560, Note_off_c, 1, 60, 0
2, 101560, Note_off_c, 1, 63, 0
2, 101560, Note_off_c, 1, 72, 0
2, 101560, Note_off_c, 1, 75, 0
2, 101560, Note_off_c, 1, 78, 0
2, 101560, Note_off_c, 1, 84, 0
2, 101600, Note_on_c, 1, 41, 127
2, 101600, Note_on_c, 1, 53, 127
2, 101600, Note_on_c, 1, 65, 127
2, 101600, Note_on_c, 1, 77, 127
2, 101960, Note_off_c, 1, 41, 0
2, 101960, Note_off_c, 1, 53, 0
2, 101960, Note_off_c, 1, 65, 0
2, 101960, Note_off_c, 1, 77, 0
2, 102000, Note_on_c, 1, 34, 127
2, 102000, Note_on_c, 1, 46, 127
2, 102000, Note_on_c, 1, 58, 127
2, 102000, Note_on_c, 1, 70, 127
2, 102000, Note_on_c, 1, 74, 127
2, 102320, Note_off_c, 1, 34, 0
2, 102320, Note_off_c, 1, 46, 0
2, 102320, Note_off_c, 1, 58, 0
2, 102320, Note_off_c, 1, 70, 0
2, 102320, Note_off_c, 1, 74, 0
2, 102360, Note_on_c, 1, 77, 127
2, 102400, Note_off_c, 1, 77, 0
2, 102440, Note_on_c, 1, 70, 127
2, 102440, Note_on_c, 1, 74, 127
2, 102520, Note_off_c, 1, 74, 0
2, 102560, Note_on_c, 1, 74, 127
2, 102600, Note_off_c, 1, 74, 0
2, 102680, Note_on_c, 1, 75, 127
2, 102720, Note_off_c, 1, 70, 0
2, 102720, Note_off_c, 1, 75, 0
2, 102760, Note_on_c, 1, 77, 127
2, 102800, Note_off_c, 1, 77, 0
2, 102840, Note_on_c, 1, 75, 127
2, 102920, Note_off_c, 1, 75, 0
2, 102960, Note_on_c, 1, 77, 127
2, 103000, Note_off_c, 1, 77, 0
2, 103040, Note_on_c, 1, 75, 127
2, 103080, Note_off_c, 1, 75, 0
2, 103160, Note_on_c, 1, 66, 127
2, 103160, Note_on_c, 1, 75, 127
2, 103200, Note_off_c, 1, 66, 0
2, 103200, Note_off_c, 1, 75, 0
2, 103240, Note_on_c, 1, 41, 127
2, 103240, Note_on_c, 1, 53, 127
2, 103240, Note_on_c, 1, 57, 127
2, 103240, Note_on_c, 1, 61, 127
2, 103240, Note_on_c, 1, 65, 127
2, 103240, Note_on_c, 1, 70, 127
2, 103240, Note_on_c, 1, 73, 127
2, 103280, Note_off_c, 1, 41, 0
2, 103280, Note_off_c, 1, 53, 0
2, 103280, Note_off_c, 1, 57, 0
2, 103280, Note_off_c, 1, 61, 0
2, 103280, Note_off_c, 1, 65, 0
2, 103280, Note_off_c, 1, 70, 0
2, 103280, Note_off_c, 1, 73, 0
2, 104680, Note_on_c, 1, 46, 127
2, 104680, Note_on_c, 1, 58, 127
2, 104680, Note_on_c, 1, 65, 127
2, 104680, Note_on_c, 1, 70, 127
2, 104680, Note_on_c, 1, 74, 127
2, 105040, Note_off_c, 1, 46, 0
2, 105080, Note_on_c, 1, 46, 127
2, 105400, Note_off_c, 1, 65, 0
2, 105400, Note_off_c, 1, 70, 0
2, 105400, Note_off_c, 1, 74, 0
2, 105440, Note_on_c, 1, 63, 127
2, 105440, Note_on_c, 1, 68, 127
2, 105440, Note_on_c, 1, 71, 127
2, 105440, Note_on_c, 1, 74, 127
2, 105640, Note_off_c, 1, 46, 0
2, 105640, Note_off_c, 1, 58, 0
2, 105640, Note_on_c, 1, 66, 127
2, 105640, Note_off_c, 1, 68, 0
2, 105760, Note_off_c, 1, 74, 0
2, 105760, Note_on_c, 1, 75, 127
2, 105840, Note_on_c, 1, 46, 127
2, 105840, Note_on_c, 1, 58, 127
2, 105960, Note_off_c, 1, 71, 0
2, 105960, Note_off_c, 1, 75, 0
2, 106000, Note_off_c, 1, 66, 0
2, 106040, Note_on_c, 1, 67, 127
2, 106040, Note_on_c, 1, 70, 127
2, 106160, Note_off_c, 1, 70, 0
2, 106240, Note_on_c, 1, 72, 127
2, 106480, Note_off_c, 1, 72, 0
2, 106520, Note_off_c, 1, 63, 0
2, 106520, Note_on_c, 1, 65, 127
2, 106520, Note_off_c, 1, 67, 0
2, 106560, Note_off_c, 1, 46, 0
2, 106560, Note_off_c, 1, 58, 0
2, 106560, Note_off_c, 1, 65, 0
2, 106600, Note_on_c, 1, 46, 127
2, 106600, Note_on_c, 1, 55, 127
2, 106600, Note_on_c, 1, 58, 127
2, 106600, Note_on_c, 1, 62, 127
2, 106600, Note_on_c, 1, 70, 127
2, 106600, Note_on_c, 1, 74, 127
2, 106800, Note_on_c, 1, 69, 127
2, 106840, Note_off_c, 1, 69, 0
2, 106960, Note_off_c, 1, 55, 0
2, 106960, Note_off_c, 1, 58, 0
2, 106960, Note_off_c, 1, 70, 0
2, 106960, Note_off_c, 1, 74, 0
2, 107000, Note_on_c, 1, 53, 127
2, 107000, Note_on_c, 1, 68, 127
2, 107000, Note_on_c, 1, 74, 127
2, 107200, Note_off_c, 1, 46, 0
2, 107200, Note_on_c, 1, 51, 127
2, 107200, Note_off_c, 1, 53, 0
2, 107200, Note_off_c, 1, 62, 0
2, 107200, Note_off_c, 1, 68, 0
2, 107200, Note_on_c, 1, 69, 127
2, 107200, Note_off_c, 1, 74, 0
2, 107240, Note_off_c, 1, 69, 0
2, 107320, Note_on_c, 1, 46, 127
2, 107320, Note_off_c, 1, 51, 0
2, 107360, Note_on_c, 1, 56, 127
2, 107360, Note_on_c, 1, 70, 127
2, 107360, Note_on_c, 1, 75, 127
2, 107520, Note_off_c, 1, 56, 0
2, 107520, Note_on_c, 1, 58, 127
2, 107520, Note_off_c, 1, 70, 0
2, 107560, Note_on_c, 1, 56, 127
2, 107560, Note_off_c, 1, 58, 0
2, 107560, Note_on_c, 1, 68, 127
2, 107600, Note_off_c, 1, 68, 0
2, 107680, Note_on_c, 1, 70, 127
2, 107720, Note_off_c, 1, 56, 0
2, 107720, Note_off_c, 1, 75, 0
2, 107760, Note_on_c, 1, 55, 127
2, 107760, Note_on_c, 1, 77, 127
2, 107880, Note_off_c, 1, 70, 0
2, 107960, Note_on_c, 1, 67, 127
2, 108080, Note_off_c, 1, 55, 0
2, 108080, Note_off_c, 1, 67, 0
2, 108080, Note_off_c, 1, 77, 0
2, 108160, Note_on_c, 1, 53, 127
2, 108160, Note_on_c, 1, 62, 127
2, 108280, Note_off_c, 1, 53, 0
2, 108320, Note_on_c, 1, 56, 127
2, 108440, Note_off_c, 1, 46, 0
2, 108440, Note_off_c, 1, 56, 0
2, 108440, Note_off_c, 1, 62, 0
2, 108440, Note_on_c, 1, 65, 127
2, 108480, Note_off_c, 1, 65, 0
2, 108520, Note_on_c, 1, 44, 127
2, 108520, Note_on_c, 1, 56, 127
2, 108520, Note_on_c, 1, 63, 127
2, 108520, Note_on_c, 1, 67, 127
2, 108520, Note_on_c, 1, 75, 127
2, 108720, Note_on_c, 1, 65, 127
2, 108880, Note_off_c, 1, 56, 0
2, 108880, Note_off_c, 1, 65, 0
2, 108880, Note_off_c, 1, 75, 0
2, 108920, Note_on_c, 1, 55, 127
2, 108920, Note_on_c, 1, 70, 127
2, 109040, Note_off_c, 1, 63, 0
2, 109040, Note_off_c, 1, 67, 0
2, 109040, Note_off_c, 1, 70, 0
2, 109120, Note_on_c, 1, 62, 127
2, 109120, Note_on_c, 1, 65, 127
2, 109120, Note_on_c, 1, 68, 127
2, 109120, Note_on_c, 1, 72, 127
2, 109240, Note_off_c, 1, 44, 0
2, 109240, Note_off_c, 1, 55, 0
2, 109240, Note_off_c, 1, 62, 0
2, 109240, Note_off_c, 1, 65, 0
2, 109240, Note_off_c, 1, 68, 0
2, 109240, Note_off_c, 1, 72, 0
2, 109280, Note_on_c, 1, 39, 127
2, 109280, Note_on_c, 1, 51, 127
2, 109280, Note_on_c, 1, 63, 127
2, 109280, Note_on_c, 1, 67, 127
2, 109280, Note_on_c, 1, 70, 127
2, 109280, Note_on_c, 1, 74, 127
2, 109440, Note_off_c, 1, 67, 0
2, 109480, Note_on_c, 1, 79, 127
2, 109520, Note_off_c, 1, 79, 0
2, 109600, Note_on_c, 1, 79, 127
2, 109640, Note_off_c, 1, 70, 0
2, 109640, Note_off_c, 1, 74, 0
2, 109640, Note_off_c, 1, 79, 0
2, 109680, Note_on_c, 1, 67, 127
2, 109680, Note_on_c, 1, 70, 127
2, 109680, Note_on_c, 1, 75, 127
2, 109680, Note_on_c, 1, 79, 127
2, 109720, Note_off_c, 1, 79, 0
2, 109760, Note_on_c, 1, 81, 127
2, 109840, Note_off_c, 1, 67, 0
2, 109840, Note_off_c, 1, 70, 0
2, 109840, Note_off_c, 1, 75, 0
2, 109840, Note_off_c, 1, 81, 0
2, 109880, Note_on_c, 1, 67, 127
2, 109880, Note_on_c, 1, 70, 127
2, 109880, Note_on_c, 1, 79, 127
2, 109920, Note_off_c, 1, 79, 0
2, 109960, Note_on_c, 1, 77, 127
2, 110000, Note_off_c, 1, 39, 0
2, 110000, Note_off_c, 1, 51, 0
2, 110000, Note_off_c, 1, 63, 0
2, 110000, Note_off_c, 1, 67, 0
2, 110000, Note_off_c, 1, 70, 0
2, 110000, Note_off_c, 1, 77, 0
2, 110080, Note_on_c, 1, 41, 127
2, 110080, Note_on_c, 1, 53, 127
2, 110080, Note_on_c, 1, 63, 127
2, 110080, Note_on_c, 1, 68, 127
2, 110080, Note_on_c, 1, 72, 127
2, 110080, Note_on_c, 1, 75, 127
2, 110120, Note_off_c, 1, 68, 0
2, 110200, Note_off_c, 1, 72, 0
2, 110200, Note_off_c, 1, 75, 0
2, 110240, Note_on_c, 1, 65, 127
2, 110240, Note_on_c, 1, 69, 127
2, 110240, Note_on_c, 1, 72, 127
2, 110240, Note_on_c, 1, 75, 127
2, 110320, Note_off_c, 1, 75, 0
2, 110360, Note_on_c, 1, 79, 127
2, 110400, Note_off_c, 1, 79, 0
2, 110440, Note_on_c, 1, 77, 127
2, 110480, Note_off_c, 1, 77, 0
2, 110560, Note_on_c, 1, 78, 127
2, 110600, Note_off_c, 1, 65, 0
2, 110600, Note_off_c, 1, 69, 0
2, 110600, Note_off_c, 1, 72, 0
2, 110600, Note_off_c, 1, 78, 0
2, 110640, Note_on_c, 1, 67, 127
2, 110640, Note_on_c, 1, 70, 127
2, 110640, Note_on_c, 1, 74, 127
2, 110640, Note_on_c, 1, 77, 127
2, 110800, Note_off_c, 1, 63, 0
2, 110800, Note_off_c, 1, 67, 0
2, 110800, Note_off_c, 1, 70, 0
2, 110800, Note_off_c, 1, 74, 0
2, 110800, Note_off_c, 1, 77, 0
2, 110840, Note_on_c, 1, 63, 127
2, 110840, Note_on_c, 1, 69, 127
2, 110840, Note_on_c, 1, 72, 127
2, 110840, Note_on_c, 1, 75, 127
2, 110880, Note_off_c, 1, 75, 0
2, 110920, Note_on_c, 1, 77, 127
2, 110960, Note_off_c, 1, 77, 0
2, 111040, Note_on_c, 1, 74, 127
2, 111080, Note_off_c, 1, 74, 0
2, 111120, Note_on_c, 1, 77, 127
2, 111160, Note_off_c, 1, 77, 0
2, 111200, Note_on_c, 1, 78, 127
2, 111240, Note_off_c, 1, 78, 0
2, 111320, Note_on_c, 1, 77, 127
2, 111360, Note_off_c, 1, 77, 0
2, 111400, Note_on_c, 1, 75, 127
2, 111440, Note_off_c, 1, 75, 0
2, 111600, Note_on_c, 1, 65, 127
2, 111600, Note_on_c, 1, 75, 127
2, 111640, Note_off_c, 1, 65, 0
2, 111640, Note_off_c, 1, 75, 0
2, 111800, Note_on_c, 1, 67, 127
2, 111800, Note_on_c, 1, 75, 127
2, 111840, Note_off_c, 1, 67, 0
2, 111840, Note_off_c, 1, 75, 0
2, 111880, Note_on_c, 1, 79, 127
2, 111920, Note_off_c, 1, 79, 0
2, 112000, Note_on_c, 1, 65, 127
2, 112080, Note_on_c, 1, 75, 127
2, 112120, Note_off_c, 1, 65, 0
2, 112120, Note_off_c, 1, 69, 0
2, 112120, Note_off_c, 1, 72, 0
2, 112120, Note_off_c, 1, 75, 0
2, 112160, Note_on_c, 1, 69, 127
2, 112160, Note_on_c, 1, 72, 127
2, 112160, Note_on_c, 1, 75, 127
2, 112160, Note_on_c, 1, 81, 127
2, 112240, Note_off_c, 1, 75, 0
2, 112320, Note_off_c, 1, 41, 0
2, 112320, Note_off_c, 1, 53, 0
2, 112320, Note_off_c, 1, 63, 0
2, 112320, Note_off_c, 1, 72, 0
2, 112320, Note_off_c, 1, 81, 0
2, 112360, Note_on_c, 1, 50, 127
2, 112360, Note_on_c, 1, 53, 127
2, 112360, Note_on_c, 1, 58, 127
2, 112360, Note_on_c, 1, 62, 127
2, 112360, Note_on_c, 1, 65, 127
2, 112360, Note_on_c, 1, 70, 127
2, 112360, Note_on_c, 1, 82, 127
2, 112400, Note_off_c, 1, 82, 0
2, 112480, Note_on_c, 1, 81, 127
2, 112520, Note_off_c, 1, 69, 0
2, 112520, Note_off_c, 1, 81, 0
2, 112560, Note_on_c, 1, 38, 127
2, 112560, Note_on_c, 1, 69, 127
2, 112560, Note_on_c, 1, 74, 127
2, 112560, Note_on_c, 1, 80, 127
2, 112600, Note_off_c, 1, 74, 0
2, 112600, Note_off_c, 1, 80, 0
2, 112640, Note_on_c, 1, 74, 127
2, 112720, Note_off_c, 1, 74, 0
2, 112760, Note_off_c, 1, 69, 0
2, 112760, Note_on_c, 1, 74, 127
2, 112800, Note_off_c, 1, 74, 0
2, 112840, Note_on_c, 1, 69, 127
2, 112880, Note_off_c, 1, 65, 0
2, 112880, Note_off_c, 1, 69, 0
2, 112960, Note_on_c, 1, 69, 127
2, 112960, Note_on_c, 1, 72, 127
2, 113000, Note_off_c, 1, 69, 0
2, 113040, Note_on_c, 1, 65, 127
2, 113040, Note_on_c, 1, 69, 127
2, 113080, Note_off_c, 1, 65, 0
2, 113080, Note_off_c, 1, 72, 0
2, 113240, Note_off_c, 1, 69, 0
2, 113240, Note_off_c, 1, 70, 0
2, 113240, Note_on_c, 1, 71, 127
2, 113280, Note_off_c, 1, 71, 0
2, 113320, Note_on_c, 1, 70, 127
2, 113480, Note_off_c, 1, 50, 0
2, 113480, Note_off_c, 1, 53, 0
2, 113480, Note_off_c, 1, 58, 0
2, 113480, Note_off_c, 1, 62, 0
2, 113480, Note_off_c, 1, 70, 0
2, 113520, Note_on_c, 1, 50, 127
2, 113520, Note_on_c, 1, 65, 127
2, 113520, Note_on_c, 1, 70, 127
2, 113520, Note_on_c, 1, 74, 127
2, 113720, Note_on_c, 1, 47, 127
2, 113720, Note_on_c, 1, 63, 127
2, 113760, Note_off_c, 1, 47, 0
2, 113840, Note_off_c, 1, 74, 0
2, 113920, Note_on_c, 1, 68, 127
2, 113960, Note_off_c, 1, 68, 0
2, 114000, Note_on_c, 1, 73, 127
2, 114040, Note_off_c, 1, 63, 0
2, 114040, Note_off_c, 1, 65, 0
2, 114040, Note_off_c, 1, 73, 0
2, 114080, Note_on_c, 1, 62, 127
2, 114080, Note_on_c, 1, 74, 127
2, 114080, Note_on_c, 1, 82, 127
2, 114160, Note_off_c, 1, 74, 0
2, 114200, Note_on_c, 1, 65, 127
2, 114240, Note_off_c, 1, 38, 0
2, 114240, Note_off_c, 1, 50, 0
2, 114240, Note_off_c, 1, 62, 0
2, 114240, Note_off_c, 1, 65, 0
2, 114240, Note_off_c, 1, 70, 0
2, 114240, Note_off_c, 1, 82, 0
2, 114280, Note_on_c, 1, 58, 127
2, 114280, Note_on_c, 1, 82, 127
2, 114320, Note_off_c, 1, 58, 0
2, 114320, Note_off_c, 1, 82, 0
2, 114400, Note_on_c, 1, 65, 127
2, 114440, Note_off_c, 1, 65, 0
2, 114480, Note_on_c, 1, 62, 127
2, 114480, Note_on_c, 1, 70, 127
2, 114480, Note_on_c, 1, 82, 127
2, 114520, Note_off_c, 1, 62, 0
2, 114520, Note_on_c, 1, 65, 127
2, 114520, Note_off_c, 1, 70, 0
2, 114640, Note_off_c, 1, 65, 0
2, 114640, Note_off_c, 1, 82, 0
2, 114680, Note_on_c, 1, 58, 127
2, 114680, Note_on_c, 1, 62, 127
2, 114680, Note_on_c, 1, 65, 127
2, 114680, Note_on_c, 1, 81, 127
2, 114720, Note_off_c, 1, 58, 0
2, 114720, Note_off_c, 1, 62, 0
2, 114720, Note_off_c, 1, 65, 0
2, 114720, Note_off_c, 1, 81, 0
2, 114760, Note_on_c, 1, 65, 127
2, 114760, Note_on_c, 1, 77, 127
2, 114800, Note_off_c, 1, 65, 0
2, 114800, Note_off_c, 1, 77, 0
2, 114880, Note_on_c, 1, 41, 127
2, 114880, Note_on_c, 1, 53, 127
2, 114880, Note_on_c, 1, 62, 127
2, 114880, Note_on_c, 1, 65, 127
2, 114880, Note_on_c, 1, 77, 127
2, 114920, Note_off_c, 1, 41, 0
2, 114920, Note_off_c, 1, 53, 0
2, 114920, Note_off_c, 1, 62, 0
2, 114920, Note_off_c, 1, 65, 0
2, 114920, Note_off_c, 1, 77, 0
2, 114960, Note_on_c, 1, 70, 127
2, 114960, Note_on_c, 1, 77, 127
2, 115000, Note_off_c, 1, 70, 0
2, 115000, Note_off_c, 1, 77, 0
2, 115040, Note_on_c, 1, 41, 127
2, 115040, Note_on_c, 1, 53, 127
2, 115040, Note_on_c, 1, 62, 127
2, 115040, Note_on_c, 1, 70, 127
2, 115040, Note_on_c, 1, 74, 127
2, 115120, Note_off_c, 1, 62, 0
2, 115160, Note_on_c, 1, 58, 127
2, 115200, Note_off_c, 1, 58, 0
2, 115240, Note_on_c, 1, 65, 127
2, 115280, Note_on_c, 1, 38, 127
2, 115280, Note_off_c, 1, 41, 0
2, 115280, Note_off_c, 1, 65, 0
2, 115320, Note_off_c, 1, 38, 0
2, 115320, Note_on_c, 1, 41, 127
2, 115360, Note_on_c, 1, 82, 127
2, 115400, Note_off_c, 1, 41, 0
2, 115400, Note_off_c, 1, 53, 0
2, 115400, Note_off_c, 1, 70, 0
2, 115400, Note_off_c, 1, 74, 0
2, 115400, Note_off_c, 1, 82, 0
2, 115440, Note_on_c, 1, 74, 127
2, 115440, Note_on_c, 1, 77, 127
2, 115440, Note_on_c, 1, 82, 127
2, 115480, Note_off_c, 1, 77, 0
2, 115600, Note_off_c, 1, 74, 0
2, 115600, Note_off_c, 1, 82, 0
2, 115640, Note_on_c, 1, 54, 127
2, 115640, Note_on_c, 1, 62, 127
2, 115640, Note_on_c, 1, 65, 127
2, 115640, Note_on_c, 1, 67, 127
2, 115640, Note_on_c, 1, 70, 127
2, 115640, Note_on_c, 1, 74, 127
2, 115640, Note_on_c, 1, 77, 127
2, 115680, Note_on_c, 1, 53, 127
2, 115680, Note_off_c, 1, 54, 0
2, 115680, Note_off_c, 1, 67, 0
2, 115680, Note_off_c, 1, 77, 0
2, 115680, Note_on_c, 1, 82, 127
2, 115760, Note_off_c, 1, 53, 0
2, 115760, Note_off_c, 1, 62, 0
2, 115760, Note_off_c, 1, 65, 0
2, 115760, Note_off_c, 1, 70, 0
2, 115760, Note_off_c, 1, 74, 0
2, 115760, Note_off_c, 1, 82, 0
2, 115840, Note_on_c, 1, 41, 127
2, 115840, Note_on_c, 1, 53, 127
2, 115840, Note_on_c, 1, 60, 127
2, 115840, Note_on_c, 1, 63, 127
2, 115840, Note_on_c, 1, 69, 127
2, 115840, Note_on_c, 1, 72, 127
2, 115840, Note_on_c, 1, 75, 127
2, 115840, Note_on_c, 1, 81, 127
2, 115960, Note_off_c, 1, 41, 0
2, 115960, Note_off_c, 1, 53, 0
2, 115960, Note_off_c, 1, 60, 0
2, 115960, Note_off_c, 1, 63, 0
2, 115960, Note_off_c, 1, 69, 0
2, 115960, Note_off_c, 1, 72, 0
2, 115960, Note_off_c, 1, 75, 0
2, 115960, Note_off_c, 1, 81, 0
2, 116000, Note_on_c, 1, 70, 127
2, 116000, Note_on_c, 1, 74, 127
2, 116000, Note_on_c, 1, 82, 127
2, 116080, Note_off_c, 1, 70, 0
2, 116080, Note_off_c, 1, 74, 0
2, 116080, Note_off_c, 1, 82, 0
2, 116120, Note_on_c, 1, 65, 127
2, 116120, Note_on_c, 1, 74, 127
2, 116120, Note_on_c, 1, 82, 127
2, 116160, Note_off_c, 1, 65, 0
2, 116160, Note_off_c, 1, 74, 0
2, 116160, Note_off_c, 1, 82, 0
2, 116200, Note_on_c, 1, 63, 127
2, 116200, Note_on_c, 1, 72, 127
2, 116200, Note_on_c, 1, 75, 127
2, 116200, Note_on_c, 1, 79, 127
2, 116360, Note_off_c, 1, 72, 0
2, 116400, Note_on_c, 1, 70, 127
2, 116560, Note_off_c, 1, 63, 0
2, 116560, Note_off_c, 1, 70, 0
2, 116560, Note_off_c, 1, 75, 0
2, 116560, Note_off_c, 1, 79, 0
2, 116600, Note_on_c, 1, 43, 127
2, 116600, Note_on_c, 1, 55, 127
2, 116600, Note_on_c, 1, 58, 127
2, 116600, Note_on_c, 1, 63, 127
2, 116600, Note_on_c, 1, 67, 127
2, 116600, Note_on_c, 1, 70, 127
2, 116600, Note_on_c, 1, 75, 127
2, 116600, Note_on_c, 1, 79, 127
2, 116640, Note_off_c, 1, 79, 0
2, 116800, Note_on_c, 1, 82, 127
2, 116840, Note_off_c, 1, 82, 0
2, 116880, Note_on_c, 1, 80, 127
2, 116920, Note_off_c, 1, 43, 0
2, 116920, Note_off_c, 1, 55, 0
2, 116920, Note_off_c, 1, 58, 0
2, 116920, Note_off_c, 1, 63, 0
2, 116920, Note_off_c, 1, 67, 0
2, 116920, Note_off_c, 1, 70, 0
2, 116920, Note_off_c, 1, 75, 0
2, 116920, Note_off_c, 1, 80, 0
2, 116960, Note_on_c, 1, 79, 127
2, 117000, Note_off_c, 1, 79, 0
2, 117040, Note_on_c, 1, 82, 127
2, 117120, Note_off_c, 1, 82, 0
2, 117160, Note_on_c, 1, 79, 127
2, 117320, Note_off_c, 1, 79, 0
2, 117360, Note_on_c, 1, 81, 127
2, 117400, Note_off_c, 1, 81, 0
2, 117440, Note_on_c, 1, 79, 127
2, 117520, Note_off_c, 1, 79, 0
2, 117560, Note_on_c, 1, 81, 127
2, 117600, Note_off_c, 1, 81, 0
2, 117640, Note_on_c, 1, 84, 127
2, 117680, Note_off_c, 1, 84, 0
2, 117760, Note_on_c, 1, 82, 127
2, 117800, Note_off_c, 1, 82, 0
2, 117840, Note_on_c, 1, 81, 127
2, 117880, Note_off_c, 1, 81, 0
2, 117920, Note_on_c, 1, 79, 127
2, 118000, Note_off_c, 1, 79, 0
2, 118040, Note_on_c, 1, 77, 127
2, 118080, Note_off_c, 1, 77, 0
2, 118120, Note_on_c, 1, 76, 127
2, 118160, Note_off_c, 1, 76, 0
2, 118240, Note_on_c, 1, 74, 127
2, 118280, Note_off_c, 1, 74, 0
2, 118320, Note_on_c, 1, 72, 127
2, 118360, Note_off_c, 1, 72, 0
2, 118400, Note_on_c, 1, 70, 127
2, 118480, Note_off_c, 1, 70, 0
2, 118520, Note_on_c, 1, 67, 127
2, 118560, Note_off_c, 1, 67, 0
2, 118600, Note_on_c, 1, 67, 127
2, 118640, Note_off_c, 1, 67, 0
2, 118720, Note_on_c, 1, 67, 127
2, 118760, Note_off_c, 1, 67, 0
2, 118800, Note_on_c, 1, 70, 127
2, 118840, Note_off_c, 1, 70, 0
2, 118880, Note_on_c, 1, 72, 127
2, 118960, Note_off_c, 1, 72, 0
2, 119000, Note_on_c, 1, 70, 127
2, 119040, Note_off_c, 1, 70, 0
2, 119080, Note_on_c, 1, 51, 127
2, 119080, Note_on_c, 1, 63, 127
2, 119080, Note_on_c, 1, 72, 127
2, 119120, Note_on_c, 1, 70, 127
2, 119120, Note_off_c, 1, 72, 0
2, 119160, Note_off_c, 1, 70, 0
2, 119200, Note_on_c, 1, 72, 127
2, 119240, Note_off_c, 1, 51, 0
2, 119240, Note_off_c, 1, 63, 0
2, 119240, Note_off_c, 1, 72, 0
2, 119280, Note_on_c, 1, 65, 127
2, 119280, Note_on_c, 1, 70, 127
2, 119320, Note_off_c, 1, 70, 0
2, 119360, Note_on_c, 1, 72, 127
2, 119440, Note_off_c, 1, 65, 0
2, 119440, Note_off_c, 1, 72, 0
2, 119480, Note_on_c, 1, 58, 127
2, 119480, Note_on_c, 1, 74, 127
2, 119520, Note_off_c, 1, 74, 0
2, 119560, Note_on_c, 1, 75, 127
2, 119600, Note_off_c, 1, 58, 0
2, 119600, Note_off_c, 1, 75, 0
2, 119680, Note_on_c, 1, 65, 127
2, 119680, Note_on_c, 1, 77, 127
2, 119720, Note_off_c, 1, 77, 0
2, 119760, Note_on_c, 1, 77, 127
2, 119800, Note_off_c, 1, 65, 0
2, 119800, Note_off_c, 1, 77, 0
2, 119840, Note_on_c, 1, 60, 127
2, 119840, Note_on_c, 1, 79, 127
2, 119920, Note_off_c, 1, 79, 0
2, 119960, Note_on_c, 1, 77, 127
2, 120000, Note_off_c, 1, 60, 0
2, 120000, Note_off_c, 1, 77, 0
2, 120040, Note_on_c, 1, 67, 127
2, 120040, Note_on_c, 1, 78, 127
2, 120080, Note_off_c, 1, 78, 0
2, 120160, Note_on_c, 1, 77, 127
2, 120200, Note_off_c, 1, 67, 0
2, 120200, Note_off_c, 1, 77, 0
2, 120240, Note_on_c, 1, 61, 127
2, 120240, Note_on_c, 1, 79, 127
2, 120280, Note_off_c, 1, 79, 0
2, 120320, Note_on_c, 1, 77, 127
2, 120400, Note_off_c, 1, 61, 0
2, 120400, Note_off_c, 1, 77, 0
2, 120440, Note_on_c, 1, 69, 127
2, 120440, Note_on_c, 1, 76, 127
2, 120560, Note_off_c, 1, 69, 0
2, 120560, Note_off_c, 1, 76, 0
2, 120640, Note_on_c, 1, 65, 127
2, 120640, Note_on_c, 1, 74, 127
2, 120640, Note_on_c, 1, 79, 127
2, 120760, Note_off_c, 1, 74, 0
2, 120760, Note_off_c, 1, 79, 0
2, 120800, Note_on_c, 1, 72, 127
2, 120800, Note_on_c, 1, 77, 127
2, 120800, Note_on_c, 1, 81, 127
2, 120880, Note_off_c, 1, 77, 0
2, 120960, Note_off_c, 1, 65, 0
2, 120960, Note_off_c, 1, 72, 0
2, 120960, Note_off_c, 1, 81, 0
2, 121000, Note_on_c, 1, 70, 127
2, 121000, Note_on_c, 1, 76, 127
2, 121040, Note_off_c, 1, 76, 0
2, 121160, Note_off_c, 1, 70, 0
2, 121200, Note_on_c, 1, 69, 127
2, 121200, Note_on_c, 1, 72, 127
2, 121200, Note_on_c, 1, 84, 127
2, 121360, Note_off_c, 1, 72, 0
2, 121360, Note_off_c, 1, 84, 0
2, 121400, Note_on_c, 1, 72, 127
2, 121520, Note_off_c, 1, 69, 0
2, 121520, Note_off_c, 1, 72, 0
2, 121600, Note_on_c, 1, 65, 127
2, 121600, Note_on_c, 1, 69, 127
2, 121600, Note_on_c, 1, 72, 127
2, 121600, Note_on_c, 1, 84, 127
2, 121640, Note_off_c, 1, 65, 0
2, 121720, Note_off_c, 1, 69, 0
2, 121720, Note_off_c, 1, 72, 0
2, 121720, Note_off_c, 1, 84, 0
2, 121760, Note_on_c, 1, 64, 127
2, 121760, Note_on_c, 1, 70, 127
2, 121840, Note_off_c, 1, 64, 0
2, 121880, Note_on_c, 1, 67, 127
2, 121920, Note_off_c, 1, 67, 0
2, 121920, Note_off_c, 1, 70, 0
2, 121960, Note_on_c, 1, 70, 127
2, 121960, Note_on_c, 1, 79, 127
2, 122000, Note_off_c, 1, 70, 0
2, 122000, Note_on_c, 1, 72, 127
2, 122080, Note_on_c, 1, 70, 127
2, 122120, Note_off_c, 1, 70, 0
2, 122120, Note_off_c, 1, 72, 0
2, 122120, Note_off_c, 1, 79, 0
2, 122160, Note_on_c, 1, 67, 127
2, 122160, Note_on_c, 1, 76, 127
2, 122160, Note_on_c, 1, 82, 127
2, 122200, Note_off_c, 1, 67, 0
2, 122240, Note_on_c, 1, 70, 127
2, 122320, Note_off_c, 1, 70, 0
2, 122320, Note_off_c, 1, 76, 0
2, 122320, Note_off_c, 1, 82, 0
2, 122360, Note_on_c, 1, 65, 127
2, 122360, Note_on_c, 1, 69, 127
2, 122360, Note_on_c, 1, 81, 127
2, 122400, Note_off_c, 1, 65, 0
2, 122400, Note_off_c, 1, 69, 0
2, 122440, Note_on_c, 1, 69, 127
2, 122440, Note_on_c, 1, 72, 127
2, 122480, Note_off_c, 1, 69, 0
2, 122480, Note_off_c, 1, 72, 0
2, 122480, Note_off_c, 1, 81, 0
2, 122560, Note_on_c, 1, 67, 127
2, 122560, Note_on_c, 1, 82, 127
2, 122560, Note_on_c, 1, 84, 127
2, 122600, Note_off_c, 1, 67, 0
2, 122640, Note_on_c, 1, 70, 127
2, 122680, Note_off_c, 1, 70, 0
2, 122680, Note_off_c, 1, 84, 0
2, 122720, Note_on_c, 1, 67, 127
2, 122760, Note_off_c, 1, 67, 0
2, 122800, Note_off_c, 1, 82, 0
2, 122840, Note_on_c, 1, 72, 127
2, 122840, Note_on_c, 1, 81, 127
2, 122880, Note_off_c, 1, 72, 0
2, 122880, Note_off_c, 1, 81, 0
2, 122920, Note_on_c, 1, 67, 127
2, 122920, Note_on_c, 1, 79, 127
2, 122920, Note_on_c, 1, 82, 127
2, 122960, Note_off_c, 1, 67, 0
2, 122960, Note_off_c, 1, 79, 0
2, 122960, Note_off_c, 1, 82, 0
2, 123040, Note_on_c, 1, 69, 127
2, 123040, Note_on_c, 1, 77, 127
2, 123080, Note_off_c, 1, 69, 0
2, 123080, Note_off_c, 1, 77, 0
2, 123120, Note_on_c, 1, 64, 127
2, 123120, Note_on_c, 1, 76, 127
2, 123160, Note_off_c, 1, 64, 0
2, 123160, Note_off_c, 1, 76, 0
2, 123200, Note_on_c, 1, 67, 127
2, 123200, Note_on_c, 1, 72, 127
2, 123280, Note_off_c, 1, 67, 0
2, 123280, Note_off_c, 1, 72, 0
2, 123320, Note_on_c, 1, 64, 127
2, 123320, Note_on_c, 1, 82, 127
2, 123320, Note_on_c, 1, 84, 127
2, 123360, Note_off_c, 1, 64, 0
2, 123360, Note_off_c, 1, 84, 0
2, 123400, Note_on_c, 1, 72, 127
2, 123440, Note_off_c, 1, 72, 0
2, 123440, Note_off_c, 1, 82, 0
2, 123520, Note_on_c, 1, 68, 127
2, 123520, Note_on_c, 1, 74, 127
2, 123520, Note_on_c, 1, 82, 127
2, 123520, Note_on_c, 1, 84, 127
2, 123560, Note_off_c, 1, 68, 0
2, 123560, Note_off_c, 1, 74, 0
2, 123600, Note_on_c, 1, 72, 127
2, 123640, Note_off_c, 1, 72, 0
2, 123640, Note_off_c, 1, 82, 0
2, 123640, Note_off_c, 1, 84, 0
2, 123680, Note_on_c, 1, 71, 127
2, 123680, Note_on_c, 1, 74, 127
2, 123680, Note_on_c, 1, 82, 127
2, 123680, Note_on_c, 1, 86, 127
2, 123760, Note_off_c, 1, 71, 0
2, 123760, Note_off_c, 1, 74, 0
2, 123800, Note_on_c, 1, 72, 127
2, 123840, Note_off_c, 1, 72, 0
2, 123840, Note_off_c, 1, 82, 0
2, 123840, Note_off_c, 1, 86, 0
2, 123880, Note_on_c, 1, 72, 127
2, 123920, Note_off_c, 1, 72, 0
2, 124000, Note_on_c, 1, 81, 127
2, 124040, Note_off_c, 1, 81, 0
2, 124080, Note_on_c, 1, 53, 127
2, 124080, Note_on_c, 1, 60, 127
2, 124080, Note_on_c, 1, 65, 127
2, 124080, Note_on_c, 1, 77, 127
2, 124080, Note_on_c, 1, 81, 127
2, 124080, Note_on_c, 1, 82, 127
2, 124120, Note_off_c, 1, 82, 0
2, 124160, Note_on_c, 1, 82, 127
2, 124200, Note_off_c, 1, 82, 0
2, 124240, Note_off_c, 1, 65, 0
2, 124240, Note_off_c, 1, 77, 0
2, 124240, Note_off_c, 1, 81, 0
2, 124280, Note_on_c, 1, 69, 127
2, 124280, Note_on_c, 1, 77, 127
2, 124280, Note_on_c, 1, 81, 127
2, 124400, Note_off_c, 1, 53, 0
2, 124400, Note_off_c, 1, 60, 0
2, 124400, Note_off_c, 1, 69, 0
2, 124400, Note_off_c, 1, 77, 0
2, 124400, Note_off_c, 1, 81, 0
2, 124480, Note_on_c, 1, 48, 127
2, 124480, Note_on_c, 1, 60, 127
2, 124480, Note_on_c, 1, 67, 127
2, 124480, Note_on_c, 1, 77, 127
2, 124480, Note_on_c, 1, 79, 127
2, 124480, Note_on_c, 1, 82, 127
2, 124520, Note_off_c, 1, 77, 0
2, 124560, Note_on_c, 1, 77, 127
2, 124600, Note_off_c, 1, 48, 0
2, 124600, Note_off_c, 1, 60, 0
2, 124600, Note_off_c, 1, 67, 0
2, 124600, Note_off_c, 1, 77, 0
2, 124600, Note_off_c, 1, 79, 0
2, 124600, Note_off_c, 1, 82, 0
2, 125240, Note_on_c, 1, 57, 127
2, 125240, Note_on_c, 1, 64, 127
2, 125240, Note_on_c, 1, 67, 127
2, 125240, Note_on_c, 1, 79, 127
2, 125240, Note_on_c, 1, 82, 127
2, 125560, Note_off_c, 1, 57, 0
2, 125560, Note_off_c, 1, 64, 0
2, 125560, Note_off_c, 1, 67, 0
2, 125560, Note_off_c, 1, 79, 0
2, 125560, Note_off_c, 1, 82, 0
2, 125600, Note_on_c, 1, 57, 127
2, 125600, Note_on_c, 1, 64, 127
2, 125600, Note_on_c, 1, 67, 127
2, 125760, Note_off_c, 1, 64, 0
2, 125760, Note_off_c, 1, 67, 0
2, 125800, Note_on_c, 1, 69, 127
2, 125800, Note_on_c, 1, 72, 127
2, 125800, Note_on_c, 1, 77, 127
2, 125960, Note_off_c, 1, 57, 0
2, 125960, Note_off_c, 1, 69, 0
2, 125960, Note_off_c, 1, 72, 0
2, 125960, Note_off_c, 1, 77, 0
2, 126000, Note_on_c, 1, 73, 127
2, 126000, Note_on_c, 1, 77, 127
2, 126000, Note_on_c, 1, 85, 127
2, 126040, Note_off_c, 1, 85, 0
2, 126080, Note_on_c, 1, 81, 127
2, 126120, Note_off_c, 1, 81, 0
2, 126160, Note_off_c, 1, 73, 0
2, 126160, Note_off_c, 1, 77, 0
2, 126200, Note_on_c, 1, 73, 127
2, 126200, Note_on_c, 1, 76, 127
2, 126200, Note_on_c, 1, 86, 127
2, 126240, Note_off_c, 1, 86, 0
2, 126280, Note_on_c, 1, 82, 127
2, 126320, Note_off_c, 1, 73, 0
2, 126320, Note_off_c, 1, 76, 0
2, 126320, Note_off_c, 1, 82, 0
2, 126400, Note_on_c, 1, 72, 127
2, 126400, Note_on_c, 1, 74, 127
2, 126400, Note_on_c, 1, 84, 127
2, 126440, Note_off_c, 1, 84, 0
2, 126480, Note_on_c, 1, 82, 127
2, 126520, Note_off_c, 1, 72, 0
2, 126520, Note_off_c, 1, 74, 0
2, 126520, Note_off_c, 1, 82, 0
2, 126560, Note_on_c, 1, 70, 127
2, 126560, Note_on_c, 1, 72, 127
2, 126560, Note_on_c, 1, 75, 127
2, 126560, Note_on_c, 1, 81, 127
2, 126600, Note_off_c, 1, 81, 0
2, 126720, Note_off_c, 1, 70, 0
2, 126720, Note_off_c, 1, 72, 0
2, 126720, Note_off_c, 1, 75, 0
2, 126760, Note_on_c, 1, 70, 127
2, 126760, Note_on_c, 1, 74, 127
2, 126760, Note_on_c, 1, 79, 127
2, 126800, Note_off_c, 1, 79, 0
2, 126880, Note_on_c, 1, 77, 127
2, 126920, Note_off_c, 1, 70, 0
2, 126920, Note_off_c, 1, 74, 0
2, 126920, Note_off_c, 1, 77, 0
2, 126960, Note_on_c, 1, 70, 127
2, 126960, Note_on_c, 1, 75, 127
2, 126960, Note_on_c, 1, 79, 127
2, 127000, Note_off_c, 1, 79, 0
2, 127120, Note_off_c, 1, 70, 0
2, 127120, Note_off_c, 1, 75, 0
2, 127160, Note_on_c, 1, 72, 127
2, 127160, Note_on_c, 1, 75, 127
2, 127160, Note_on_c, 1, 79, 127
2, 127200, Note_off_c, 1, 79, 0
2, 127280, Note_off_c, 1, 72, 0
2, 127280, Note_off_c, 1, 75, 0
2, 127360, Note_on_c, 1, 74, 127
2, 127360, Note_on_c, 1, 77, 127
2, 127400, Note_off_c, 1, 77, 0
2, 127440, Note_on_c, 1, 77, 127
2, 127480, Note_off_c, 1, 74, 0
2, 127480, Note_off_c, 1, 77, 0
2, 127520, Note_on_c, 1, 53, 127
2, 127520, Note_on_c, 1, 57, 127
2, 127520, Note_on_c, 1, 65, 127
2, 127520, Note_on_c, 1, 70, 127
2, 127520, Note_on_c, 1, 75, 127
2, 127600, Note_off_c, 1, 75, 0
2, 127680, Note_off_c, 1, 53, 0
2, 127680, Note_off_c, 1, 57, 0
2, 127680, Note_off_c, 1, 65, 0
2, 127680, Note_off_c, 1, 70, 0
2, 127720, Note_on_c, 1, 53, 127
2, 127880, Note_off_c, 1, 53, 0
2, 127920, Note_on_c, 1, 70, 127
2, 127960, Note_off_c, 1, 70, 0
2, 128000, Note_on_c, 1, 69, 127
2, 128080, Note_off_c, 1, 69, 0
2, 128120, Note_on_c, 1, 70, 127
2, 128160, Note_off_c, 1, 70, 0
2, 128200, Note_on_c, 1, 72, 127
2, 128240, Note_off_c, 1, 72, 0
2, 128320, Note_on_c, 1, 74, 127
2, 128360, Note_off_c, 1, 74, 0
2, 128400, Note_on_c, 1, 65, 127
2, 128440, Note_off_c, 1, 65, 0
2, 128480, Note_on_c, 1, 74, 127
2, 128560, Note_off_c, 1, 74, 0
2, 128600, Note_on_c, 1, 65, 127
2, 128640, Note_off_c, 1, 65, 0
2, 128680, Note_on_c, 1, 50, 127
2, 128680, Note_on_c, 1, 70, 127
2, 128840, Note_off_c, 1, 50, 0
2, 128840, Note_off_c, 1, 70, 0
2, 128880, Note_on_c, 1, 53, 127
2, 128880, Note_on_c, 1, 74, 127
2, 128920, Note_off_c, 1, 53, 0
2, 128920, Note_off_c, 1, 74, 0
2, 129080, Note_on_c, 1, 53, 127
2, 129080, Note_on_c, 1, 70, 127
2, 129120, Note_off_c, 1, 53, 0
2, 129120, Note_off_c, 1, 70, 0
2, 129240, Note_on_c, 1, 58, 127
2, 129240, Note_on_c, 1, 77, 127
2, 129320, Note_off_c, 1, 58, 0
2, 129320, Note_off_c, 1, 77, 0
2, 129440, Note_on_c, 1, 52, 127
2, 129440, Note_on_c, 1, 75, 127
2, 129480, Note_off_c, 1, 52, 0
2, 129480, Note_off_c, 1, 75, 0
2, 129640, Note_on_c, 1, 53, 127
2, 129640, Note_on_c, 1, 74, 127
2, 129680, Note_off_c, 1, 53, 0
2, 129680, Note_off_c, 1, 74, 0
2, 129840, Note_on_c, 1, 55, 127
2, 129840, Note_on_c, 1, 75, 127
2, 129880, Note_off_c, 1, 75, 0
2, 129960, Note_off_c, 1, 55, 0
2, 130040, Note_on_c, 1, 47, 127
2, 130040, Note_on_c, 1, 76, 127
2, 130080, Note_off_c, 1, 47, 0
2, 130080, Note_off_c, 1, 76, 0
2, 130200, Note_on_c, 1, 48, 127
2, 130200, Note_on_c, 1, 74, 127
2, 130360, Note_off_c, 1, 48, 0
2, 130360, Note_off_c, 1, 74, 0
2, 130400, Note_on_c, 1, 55, 127
2, 130400, Note_on_c, 1, 72, 127
2, 130560, Note_off_c, 1, 55, 0
2, 130560, Note_off_c, 1, 72, 0
2, 130600, Note_on_c, 1, 41, 127
2, 130600, Note_on_c, 1, 53, 127
2, 130600, Note_on_c, 1, 57, 127
2, 130600, Note_on_c, 1, 60, 127
2, 130600, Note_on_c, 1, 65, 127
2, 130600, Note_on_c, 1, 68, 127
2, 130600, Note_on_c, 1, 72, 127
2, 130640, Note_off_c, 1, 68, 0
2, 130640, Note_on_c, 1, 69, 127
2, 130960, Note_off_c, 1, 72, 0
2, 131000, Note_on_c, 1, 72, 127
2, 131120, Note_off_c, 1, 41, 0
2, 131120, Note_off_c, 1, 53, 0
2, 131120, Note_off_c, 1, 57, 0
2, 131120, Note_off_c, 1, 60, 0
2, 131120, Note_off_c, 1, 65, 0
2, 131120, Note_off_c, 1, 69, 0
2, 131120, Note_off_c, 1, 72, 0
2, 131160, Note_on_c, 1, 41, 127
2, 131160, Note_on_c, 1, 53, 127
2, 131160, Note_on_c, 1, 56, 127
2, 131160, Note_on_c, 1, 62, 127
2, 131160, Note_on_c, 1, 65, 127
2, 131160, Note_on_c, 1, 70, 127
2, 131520, Note_off_c, 1, 41, 0
2, 131520, Note_off_c, 1, 53, 0
2, 131520, Note_off_c, 1, 56, 0
2, 131520, Note_off_c, 1, 62, 0
2, 131520, Note_off_c, 1, 65, 0
2, 131520, Note_off_c, 1, 70, 0
2, 131560, Note_on_c, 1, 60, 127
2, 131560, Note_on_c, 1, 64, 127
2, 131560, Note_on_c, 1, 70, 127
2, 131600, Note_on_c, 1, 67, 127
2, 131600, Note_off_c, 1, 70, 0
2, 131640, Note_off_c, 1, 67, 0
2, 131640, Note_on_c, 1, 69, 127
2, 131680, Note_on_c, 1, 67, 127
2, 131680, Note_off_c, 1, 69, 0
2, 131720, Note_off_c, 1, 60, 0
2, 131720, Note_off_c, 1, 64, 0
2, 131720, Note_off_c, 1, 67, 0
2, 131760, Note_on_c, 1, 45, 127
2, 131760, Note_on_c, 1, 53, 127
2, 131760, Note_on_c, 1, 57, 127
2, 131760, Note_on_c, 1, 62, 127
2, 131760, Note_on_c, 1, 65, 127
2, 131800, Note_off_c, 1, 65, 0
2, 131840, Note_on_c, 1, 67, 127
2, 131880, Note_off_c, 1, 45, 0
2, 131880, Note_off_c, 1, 53, 0
2, 131880, Note_off_c, 1, 57, 0
2, 131880, Note_off_c, 1, 62, 0
2, 131880, Note_off_c, 1, 67, 0
2, 131960, Note_on_c, 1, 45, 127
2, 131960, Note_on_c, 1, 48, 127
2, 131960, Note_on_c, 1, 53, 127
2, 131960, Note_on_c, 1, 57, 127
2, 131960, Note_on_c, 1, 60, 127
2, 131960, Note_on_c, 1, 65, 127
2, 132080, Note_off_c, 1, 45, 0
2, 132080, Note_off_c, 1, 48, 0
2, 132080, Note_off_c, 1, 53, 0
2, 132080, Note_off_c, 1, 57, 0
2, 132080, Note_off_c, 1, 60, 0
2, 132080, Note_off_c, 1, 65, 0
2, 132120, Note_on_c, 1, 45, 127
2, 132120, Note_on_c, 1, 48, 127
2, 132120, Note_on_c, 1, 53, 127
2, 132120, Note_on_c, 1, 57, 127
2, 132120, Note_on_c, 1, 60, 127
2, 132120, Note_on_c, 1, 65, 127
2, 132480, Note_off_c, 1, 65, 0
2, 132520, Note_on_c, 1, 65, 127
2, 132760, Note_off_c, 1, 65, 0
2, 132800, Note_on_c, 1, 67, 127
2, 132840, Note_off_c, 1, 45, 0
2, 132840, Note_off_c, 1, 48, 0
2, 132840, Note_off_c, 1, 53, 0
2, 132840, Note_off_c, 1, 57, 0
2, 132840, Note_off_c, 1, 60, 0
2, 132840, Note_off_c, 1, 67, 0
2, 132880, Note_on_c, 1, 65, 127
2, 133040, Note_off_c, 1, 65, 0
2, 133080, Note_on_c, 1, 48, 127
2, 133080, Note_on_c, 1, 53, 127
2, 133080, Note_on_c, 1, 57, 127
2, 133080, Note_on_c, 1, 60, 127
2, 133080, Note_on_c, 1, 65, 127
2, 133120, Note_off_c, 1, 65, 0
2, 133240, Note_off_c, 1, 48, 0
2, 133240, Note_off_c, 1, 53, 0
2, 133240, Note_off_c, 1, 57, 0
2, 133240, Note_off_c, 1, 60, 0
2, 133280, Note_on_c, 1, 65, 127
2, 133320, Note_off_c, 1, 65, 0
2, 133360, Note_on_c, 1, 69, 127
2, 133400, Note_off_c, 1, 69, 0
2, 133480, Note_on_c, 1, 58, 127
2, 133480, Note_on_c, 1, 70, 127
2, 133520, Note_off_c, 1, 58, 0
2, 133520, Note_off_c, 1, 70, 0
2, 133560, Note_on_c, 1, 65, 127
2, 133560, Note_on_c, 1, 74, 127
2, 133600, Note_off_c, 1, 65, 0
2, 133600, Note_off_c, 1, 74, 0
2, 133640, Note_on_c, 1, 58, 127
2, 133640, Note_on_c, 1, 75, 127
2, 133720, Note_off_c, 1, 58, 0
2, 133720, Note_off_c, 1, 75, 0
2, 133760, Note_on_c, 1, 65, 127
2, 133760, Note_on_c, 1, 74, 127
2, 133800, Note_off_c, 1, 65, 0
2, 133800, Note_off_c, 1, 74, 0
2, 133840, Note_on_c, 1, 58, 127
2, 133840, Note_on_c, 1, 74, 127
2, 133880, Note_off_c, 1, 58, 0
2, 133880, Note_off_c, 1, 74, 0
2, 133960, Note_on_c, 1, 65, 127
2, 133960, Note_on_c, 1, 77, 127
2, 134000, Note_off_c, 1, 65, 0
2, 134000, Note_off_c, 1, 77, 0
2, 134040, Note_on_c, 1, 62, 127
2, 134040, Note_on_c, 1, 77, 127
2, 134080, Note_off_c, 1, 62, 0
2, 134080, Note_off_c, 1, 77, 0
2, 134120, Note_on_c, 1, 65, 127
2, 134120, Note_on_c, 1, 75, 127
2, 134200, Note_off_c, 1, 65, 0
2, 134200, Note_off_c, 1, 75, 0
2, 134240, Note_on_c, 1, 58, 127
2, 134240, Note_on_c, 1, 74, 127
2, 134280, Note_off_c, 1, 58, 0
2, 134280, Note_off_c, 1, 74, 0
2, 134320, Note_on_c, 1, 65, 127
2, 134320, Note_on_c, 1, 75, 127
2, 134360, Note_off_c, 1, 65, 0
2, 134360, Note_off_c, 1, 75, 0
2, 134440, Note_on_c, 1, 62, 127
2, 134440, Note_on_c, 1, 77, 127
2, 134480, Note_off_c, 1, 62, 0
2, 134480, Note_off_c, 1, 77, 0
2, 134520, Note_on_c, 1, 65, 127
2, 134520, Note_on_c, 1, 70, 127
2, 134560, Note_off_c, 1, 65, 0
2, 134560, Note_off_c, 1, 70, 0
2, 134600, Note_on_c, 1, 56, 127
2, 134600, Note_on_c, 1, 80, 127
2, 134680, Note_off_c, 1, 56, 0
2, 134680, Note_off_c, 1, 80, 0
2, 134720, Note_on_c, 1, 65, 127
2, 134720, Note_on_c, 1, 72, 127
2, 134760, Note_off_c, 1, 65, 0
2, 134760, Note_off_c, 1, 72, 0
2, 134800, Note_on_c, 1, 62, 127
2, 134800, Note_on_c, 1, 77, 127
2, 134840, Note_off_c, 1, 62, 0
2, 134840, Note_off_c, 1, 77, 0
2, 134920, Note_on_c, 1, 65, 127
2, 134920, Note_on_c, 1, 77, 127
2, 134960, Note_off_c, 1, 65, 0
2, 134960, Note_off_c, 1, 77, 0
2, 135000, Note_on_c, 1, 60, 127
2, 135000, Note_on_c, 1, 81, 127
2, 135040, Note_off_c, 1, 60, 0
2, 135080, Note_on_c, 1, 67, 127
2, 135120, Note_on_c, 1, 57, 127
2, 135160, Note_off_c, 1, 57, 0
2, 135160, Note_off_c, 1, 67, 0
2, 135200, Note_on_c, 1, 62, 127
2, 135240, Note_off_c, 1, 62, 0
2, 135280, Note_on_c, 1, 65, 127
2, 135320, Note_off_c, 1, 65, 0
2, 135320, Note_off_c, 1, 81, 0
2, 135400, Note_on_c, 1, 60, 127
2, 135400, Note_on_c, 1, 81, 127
2, 135440, Note_off_c, 1, 60, 0
2, 135440, Note_off_c, 1, 81, 0
2, 135480, Note_on_c, 1, 65, 127
2, 135480, Note_on_c, 1, 79, 127
2, 135520, Note_off_c, 1, 65, 0
2, 135520, Note_off_c, 1, 79, 0
2, 135560, Note_on_c, 1, 64, 127
2, 135560, Note_on_c, 1, 77, 127
2, 135640, Note_off_c, 1, 64, 0
2, 135640, Note_off_c, 1, 77, 0
2, 135680, Note_on_c, 1, 65, 127
2, 135680, Note_on_c, 1, 76, 127
2, 135720, Note_off_c, 1, 65, 0
2, 135720, Note_off_c, 1, 76, 0
2, 135760, Note_on_c, 1, 60, 127
2, 135760, Note_on_c, 1, 77, 127
2, 135800, Note_off_c, 1, 60, 0
2, 135800, Note_off_c, 1, 77, 0
2, 135880, Note_on_c, 1, 65, 127
2, 135880, Note_on_c, 1, 75, 127
2, 135920, Note_off_c, 1, 65, 0
2, 135920, Note_off_c, 1, 75, 0
2, 135960, Note_on_c, 1, 62, 127
2, 135960, Note_on_c, 1, 74, 127
2, 136000, Note_off_c, 1, 62, 0
2, 136000, Note_off_c, 1, 74, 0
2, 136040, Note_on_c, 1, 65, 127
2, 136040, Note_on_c, 1, 72, 127
2, 136120, Note_off_c, 1, 65, 0
2, 136120, Note_off_c, 1, 72, 0
2, 136160, Note_on_c, 1, 57, 127
2, 136160, Note_on_c, 1, 72, 127
2, 136200, Note_off_c, 1, 57, 0
2, 136200, Note_off_c, 1, 72, 0
2, 136240, Note_on_c, 1, 65, 127
2, 136240, Note_on_c, 1, 74, 127
2, 136280, Note_off_c, 1, 65, 0
2, 136280, Note_off_c, 1, 74, 0
2, 136360, Note_on_c, 1, 62, 127
2, 136360, Note_on_c, 1, 72, 127
2, 136400, Note_off_c, 1, 62, 0
2, 136400, Note_off_c, 1, 72, 0
2, 136440, Note_on_c, 1, 65, 127
2, 136440, Note_on_c, 1, 74, 127
2, 136480, Note_off_c, 1, 65, 0
2, 136480, Note_off_c, 1, 74, 0
2, 136520, Note_on_c, 1, 60, 127
2, 136520, Note_on_c, 1, 79, 127
2, 136600, Note_off_c, 1, 60, 0
2, 136600, Note_off_c, 1, 79, 0
2, 136640, Note_on_c, 1, 65, 127
2, 136640, Note_on_c, 1, 77, 127
2, 136680, Note_off_c, 1, 65, 0
2, 136680, Note_off_c, 1, 77, 0
2, 136720, Note_on_c, 1, 60, 127
2, 136720, Note_on_c, 1, 76, 127
2, 136760, Note_off_c, 1, 60, 0
2, 136760, Note_off_c, 1, 76, 0
2, 136840, Note_on_c, 1, 65, 127
2, 136840, Note_on_c, 1, 77, 127
2, 136880, Note_off_c, 1, 65, 0
2, 136880, Note_off_c, 1, 77, 0
2, 136920, Note_on_c, 1, 48, 127
2, 136920, Note_on_c, 1, 81, 127
2, 136960, Note_off_c, 1, 48, 0
2, 136960, Note_off_c, 1, 81, 0
2, 137000, Note_on_c, 1, 57, 127
2, 137000, Note_on_c, 1, 77, 127
2, 137080, Note_off_c, 1, 57, 0
2, 137080, Note_off_c, 1, 77, 0
2, 137120, Note_on_c, 1, 60, 127
2, 137120, Note_on_c, 1, 79, 127
2, 137160, Note_off_c, 1, 60, 0
2, 137160, Note_off_c, 1, 79, 0
2, 137200, Note_on_c, 1, 57, 127
2, 137200, Note_on_c, 1, 77, 127
2, 137240, Note_off_c, 1, 57, 0
2, 137240, Note_off_c, 1, 77, 0
2, 137320, Note_on_c, 1, 48, 127
2, 137320, Note_on_c, 1, 77, 127
2, 137360, Note_off_c, 1, 48, 0
2, 137360, Note_off_c, 1, 77, 0
2, 137400, Note_on_c, 1, 57, 127
2, 137400, Note_on_c, 1, 77, 127
2, 137440, Note_off_c, 1, 57, 0
2, 137440, Note_off_c, 1, 77, 0
2, 137480, Note_on_c, 1, 53, 127
2, 137480, Note_on_c, 1, 77, 127
2, 137560, Note_off_c, 1, 53, 0
2, 137560, Note_off_c, 1, 77, 0
2, 137600, Note_on_c, 1, 57, 127
2, 137600, Note_on_c, 1, 77, 127
2, 137640, Note_off_c, 1, 57, 0
2, 137640, Note_off_c, 1, 77, 0
2, 137680, Note_on_c, 1, 50, 127
2, 137680, Note_on_c, 1, 77, 127
2, 137720, Note_off_c, 1, 50, 0
2, 137720, Note_off_c, 1, 77, 0
2, 137800, Note_on_c, 1, 58, 127
2, 137800, Note_on_c, 1, 76, 127
2, 137840, Note_off_c, 1, 58, 0
2, 137840, Note_off_c, 1, 76, 0
2, 137880, Note_on_c, 1, 53, 127
2, 137880, Note_on_c, 1, 74, 127
2, 137920, Note_off_c, 1, 53, 0
2, 137920, Note_off_c, 1, 74, 0
2, 137960, Note_on_c, 1, 58, 127
2, 137960, Note_on_c, 1, 72, 127
2, 138040, Note_off_c, 1, 58, 0
2, 138040, Note_off_c, 1, 72, 0
2, 138080, Note_on_c, 1, 50, 127
2, 138080, Note_on_c, 1, 70, 127
2, 138120, Note_off_c, 1, 50, 0
2, 138120, Note_off_c, 1, 70, 0
2, 138160, Note_on_c, 1, 58, 127
2, 138160, Note_on_c, 1, 72, 127
2, 138200, Note_off_c, 1, 58, 0
2, 138200, Note_off_c, 1, 72, 0
2, 138280, Note_on_c, 1, 50, 127
2, 138280, Note_on_c, 1, 74, 127
2, 138320, Note_off_c, 1, 50, 0
2, 138320, Note_off_c, 1, 74, 0
2, 138360, Note_on_c, 1, 58, 127
2, 138360, Note_on_c, 1, 70, 127
2, 138400, Note_off_c, 1, 58, 0
2, 138400, Note_off_c, 1, 70, 0
2, 138440, Note_on_c, 1, 53, 127
2, 138440, Note_on_c, 1, 69, 127
2, 138520, Note_off_c, 1, 53, 0
2, 138520, Note_off_c, 1, 69, 0
2, 138560, Note_on_c, 1, 57, 127
2, 138560, Note_on_c, 1, 65, 127
2, 138600, Note_off_c, 1, 57, 0
2, 138600, Note_off_c, 1, 65, 0
2, 138640, Note_on_c, 1, 60, 127
2, 138640, Note_on_c, 1, 65, 127
2, 138680, Note_off_c, 1, 60, 0
2, 138680, Note_off_c, 1, 65, 0
2, 138760, Note_on_c, 1, 57, 127
2, 138760, Note_on_c, 1, 65, 127
2, 138800, Note_off_c, 1, 57, 0
2, 138800, Note_off_c, 1, 65, 0
2, 138840, Note_on_c, 1, 46, 127
2, 138840, Note_on_c, 1, 70, 127
2, 139160, Note_off_c, 1, 46, 0
2, 139160, Note_off_c, 1, 70, 0
2, 139240, Note_on_c, 1, 58, 127
2, 139240, Note_on_c, 1, 70, 127
2, 139280, Note_off_c, 1, 58, 0
2, 139280, Note_off_c, 1, 70, 0
2, 139320, Note_on_c, 1, 69, 127
2, 139360, Note_on_c, 1, 67, 127
2, 139360, Note_off_c, 1, 69, 0
2, 139400, Note_off_c, 1, 67, 0
2, 139440, Note_on_c, 1, 65, 127
2, 139440, Note_on_c, 1, 70, 127
2, 139520, Note_on_c, 1, 69, 127
2, 139520, Note_off_c, 1, 70, 0
2, 139560, Note_off_c, 1, 65, 0
2, 139560, Note_off_c, 1, 69, 0
2, 139600, Note_on_c, 1, 58, 127
2, 139600, Note_on_c, 1, 74, 127
2, 139760, Note_off_c, 1, 58, 0
2, 139800, Note_on_c, 1, 65, 127
2, 139960, Note_off_c, 1, 65, 0
2, 139960, Note_off_c, 1, 74, 0
2, 140000, Note_on_c, 1, 62, 127
2, 140000, Note_on_c, 1, 77, 127
2, 140040, Note_off_c, 1, 77, 0
2, 140080, Note_on_c, 1, 79, 127
2, 140160, Note_off_c, 1, 62, 0
2, 140160, Note_off_c, 1, 79, 0
2, 140200, Note_on_c, 1, 65, 127
2, 140200, Note_on_c, 1, 77, 127
2, 140240, Note_off_c, 1, 77, 0
2, 140280, Note_on_c, 1, 79, 127
2, 140320, Note_off_c, 1, 65, 0
2, 140320, Note_off_c, 1, 79, 0
2, 140400, Note_on_c, 1, 60, 127
2, 140400, Note_on_c, 1, 79, 127
2, 140440, Note_off_c, 1, 79, 0
2, 140480, Note_on_c, 1, 77, 127
2, 140520, Note_off_c, 1, 60, 0
2, 140520, Note_off_c, 1, 77, 0
2, 140560, Note_on_c, 1, 65, 127
2, 140560, Note_on_c, 1, 76, 127
2, 140640, Note_off_c, 1, 76, 0
2, 140680, Note_on_c, 1, 77, 127
2, 140720, Note_off_c, 1, 65, 0
2, 140720, Note_off_c, 1, 77, 0
2, 140760, Note_on_c, 1, 62, 127
2, 140760, Note_on_c, 1, 77, 127
2, 140800, Note_off_c, 1, 77, 0
2, 140880, Note_on_c, 1, 76, 127
2, 140920, Note_off_c, 1, 62, 0
2, 140920, Note_off_c, 1, 76, 0
2, 140960, Note_on_c, 1, 65, 127
2, 140960, Note_on_c, 1, 74, 127
2, 141000, Note_off_c, 1, 74, 0
2, 141040, Note_on_c, 1, 72, 127
2, 141120, Note_off_c, 1, 65, 0
2, 141120, Note_off_c, 1, 72, 0
2, 141160, Note_on_c, 1, 60, 127
2, 141160, Note_on_c, 1, 80, 127
2, 141200, Note_off_c, 1, 80, 0
2, 141240, Note_on_c, 1, 79, 127
2, 141280, Note_off_c, 1, 60, 0
2, 141280, Note_off_c, 1, 79, 0
2, 141360, Note_on_c, 1, 64, 127
2, 141360, Note_on_c, 1, 77, 127
2, 141400, Note_off_c, 1, 77, 0
2, 141440, Note_on_c, 1, 76, 127
2, 141480, Note_off_c, 1, 64, 0
2, 141480, Note_off_c, 1, 76, 0
2, 141520, Note_on_c, 1, 55, 127
2, 141520, Note_on_c, 1, 77, 127
2, 141600, Note_off_c, 1, 77, 0
2, 141640, Note_on_c, 1, 76, 127
2, 141680, Note_off_c, 1, 55, 0
2, 141720, Note_on_c, 1, 65, 127
2, 141760, Note_off_c, 1, 76, 0
2, 141840, Note_on_c, 1, 77, 127
2, 141880, Note_off_c, 1, 65, 0
2, 141880, Note_off_c, 1, 77, 0
2, 141920, Note_on_c, 1, 74, 127
2, 141960, Note_off_c, 1, 74, 0
2, 141960, Note_on_c, 1, 75, 127
2, 142000, Note_on_c, 1, 74, 127
2, 142000, Note_off_c, 1, 75, 0
2, 142120, Note_on_c, 1, 59, 127
2, 142280, Note_off_c, 1, 59, 0
2, 142280, Note_off_c, 1, 74, 0
2, 142320, Note_on_c, 1, 62, 127
2, 142440, Note_off_c, 1, 62, 0
2, 142520, Note_on_c, 1, 55, 127
2, 142520, Note_on_c, 1, 72, 127
2, 142560, Note_off_c, 1, 72, 0
2, 142600, Note_on_c, 1, 71, 127
2, 142640, Note_off_c, 1, 55, 0
2, 142640, Note_off_c, 1, 71, 0
2, 142680, Note_on_c, 1, 62, 127
2, 142680, Note_on_c, 1, 69, 127
2, 142680, Note_on_c, 1, 70, 127
2, 142760, Note_off_c, 1, 70, 0
2, 142840, Note_off_c, 1, 62, 0
2, 142840, Note_off_c, 1, 69, 0
2, 142840, Note_on_c, 1, 70, 127
2, 142880, Note_on_c, 1, 62, 127
2, 142880, Note_on_c, 1, 69, 127
2, 142920, Note_off_c, 1, 69, 0
2, 142920, Note_off_c, 1, 70, 0
2, 143040, Note_off_c, 1, 62, 0
2, 143080, Note_on_c, 1, 53, 127
2, 143080, Note_on_c, 1, 69, 127
2, 143120, Note_off_c, 1, 69, 0
2, 143160, Note_on_c, 1, 69, 127
2, 143240, Note_off_c, 1, 53, 0
2, 143280, Note_on_c, 1, 62, 127
2, 143280, Note_on_c, 1, 72, 127
2, 143400, Note_off_c, 1, 62, 0
2, 143400, Note_off_c, 1, 72, 0
2, 143480, Note_on_c, 1, 64, 127
2, 143480, Note_on_c, 1, 72, 127
2, 143600, Note_off_c, 1, 64, 0
2, 143600, Note_off_c, 1, 72, 0
2, 143640, Note_on_c, 1, 62, 127
2, 143640, Note_on_c, 1, 74, 127
2, 143800, Note_off_c, 1, 62, 0
2, 143800, Note_off_c, 1, 69, 0
2, 143800, Note_off_c, 1, 74, 0
2, 143840, Note_on_c, 1, 77, 127
2, 143840, Note_on_c, 1, 84, 127
2, 144000, Note_off_c, 1, 77, 0
2, 144000, Note_off_c, 1, 84, 0
2, 144040, Note_on_c, 1, 65, 127
2, 144040, Note_on_c, 1, 81, 127
2, 144040, Note_on_c, 1, 84, 127
2, 144200, Note_off_c, 1, 65, 0
2, 144200, Note_off_c, 1, 81, 0
2, 144200, Note_off_c, 1, 84, 0
2, 144240, Note_on_c, 1, 56, 127
2, 144240, Note_on_c, 1, 77, 127
2, 144240, Note_on_c, 1, 83, 127
2, 144360, Note_off_c, 1, 56, 0
2, 144360, Note_off_c, 1, 77, 0
2, 144360, Note_off_c, 1, 83, 0
2, 144440, Note_on_c, 1, 62, 127
2, 144440, Note_on_c, 1, 77, 127
2, 144440, Note_on_c, 1, 82, 127
2, 144480, Note_off_c, 1, 82, 0
2, 144480, Note_on_c, 1, 83, 127
2, 144520, Note_on_c, 1, 82, 127
2, 144520, Note_off_c, 1, 83, 0
2, 144560, Note_off_c, 1, 62, 0
2, 144560, Note_off_c, 1, 77, 0
2, 144560, Note_off_c, 1, 82, 0
2, 144600, Note_on_c, 1, 58, 127
2, 144760, Note_off_c, 1, 58, 0
2, 144800, Note_on_c, 1, 65, 127
2, 144800, Note_on_c, 1, 77, 127
2, 144800, Note_on_c, 1, 86, 127
2, 144960, Note_off_c, 1, 65, 0
2, 144960, Note_off_c, 1, 77, 0
2, 144960, Note_off_c, 1, 86, 0
2, 145000, Note_on_c, 1, 58, 127
2, 145160, Note_off_c, 1, 58, 0
2, 145200, Note_on_c, 1, 67, 127
2, 145200, Note_on_c, 1, 77, 127
2, 145200, Note_on_c, 1, 88, 127
2, 145320, Note_off_c, 1, 67, 0
2, 145320, Note_off_c, 1, 77, 0
2, 145320, Note_off_c, 1, 88, 0
2, 145400, Note_on_c, 1, 67, 127
2, 145520, Note_off_c, 1, 67, 0
2, 145560, Note_on_c, 1, 57, 127
2, 145560, Note_on_c, 1, 76, 127
2, 145560, Note_on_c, 1, 84, 127
2, 145560, Note_on_c, 1, 89, 127
2, 145600, Note_on_c, 1, 88, 127
2, 145600, Note_off_c, 1, 89, 0
2, 145920, Note_off_c, 1, 57, 0
2, 145960, Note_on_c, 1, 60, 127
2, 146280, Note_off_c, 1, 60, 0
2, 146280, Note_off_c, 1, 76, 0
2, 146280, Note_off_c, 1, 84, 0
2, 146280, Note_off_c, 1, 88, 0
2, 146720, Note_on_c, 1, 68, 127
2, 146800, Note_off_c, 1, 68, 0
2, 146840, Note_on_c, 1, 77, 127
2, 147440, Note_off_c, 1, 77, 0
2, 147480, Note_on_c, 1, 76, 127
2, 147640, Note_off_c, 1, 76, 0
2, 147680, Note_on_c, 1, 74, 127
2, 147840, Note_off_c, 1, 74, 0
2, 147880, Note_on_c, 1, 72, 127
2, 148040, Note_off_c, 1, 72, 0
2, 148080, Note_on_c, 1, 69, 127
2, 148120, Note_off_c, 1, 69, 0
2, 148160, Note_on_c, 1, 65, 127
2, 148240, Note_off_c, 1, 65, 0
2, 148280, Note_on_c, 1, 60, 127
2, 148320, Note_on_c, 1, 52, 127
2, 148600, Note_off_c, 1, 52, 0
2, 148800, Note_off_c, 1, 60, 0
2, 148840, Note_on_c, 1, 62, 127
2, 148880, Note_on_c, 1, 60, 127
2, 148880, Note_off_c, 1, 62, 0
2, 149000, Note_off_c, 1, 60, 0
2, 149040, Note_on_c, 1, 64, 127
2, 149160, Note_off_c, 1, 64, 0
2, 149240, Note_on_c, 1, 69, 127
2, 149360, Note_off_c, 1, 69, 0
2, 149400, Note_on_c, 1, 72, 127
2, 149560, Note_off_c, 1, 72, 0
2, 149600, Note_on_c, 1, 76, 127
2, 149760, Note_off_c, 1, 76, 0
2, 149800, Note_on_c, 1, 72, 127
2, 150000, Note_on_c, 1, 48, 127
2, 150000, Note_on_c, 1, 57, 127
2, 150000, Note_on_c, 1, 60, 127
2, 150000, Note_on_c, 1, 76, 127
2, 150120, Note_off_c, 1, 48, 0
2, 150120, Note_off_c, 1, 57, 0
2, 150120, Note_off_c, 1, 60, 0
2, 150120, Note_off_c, 1, 72, 0
2, 150200, Note_on_c, 1, 55, 127
2, 150200, Note_on_c, 1, 60, 127
2, 150200, Note_on_c, 1, 72, 127
2, 150320, Note_off_c, 1, 55, 0
2, 150320, Note_off_c, 1, 60, 0
2, 150320, Note_off_c, 1, 72, 0
2, 150320, Note_off_c, 1, 76, 0
2, 150360, Note_on_c, 1, 48, 127
2, 150360, Note_on_c, 1, 55, 127
2, 150360, Note_on_c, 1, 60, 127
2, 150360, Note_on_c, 1, 70, 127
2, 150360, Note_on_c, 1, 72, 127
2, 150360, Note_on_c, 1, 76, 127
2, 150520, Note_off_c, 1, 48, 0
2, 150520, Note_off_c, 1, 55, 0
2, 150520, Note_off_c, 1, 60, 0
2, 150520, Note_off_c, 1, 70, 0
2, 150520, Note_off_c, 1, 72, 0
2, 150560, Note_on_c, 1, 48, 127
2, 150560, Note_on_c, 1, 55, 127
2, 150560, Note_on_c, 1, 58, 127
2, 150560, Note_on_c, 1, 60, 127
2, 150560, Note_on_c, 1, 70, 127
2, 150560, Note_on_c, 1, 72, 127
2, 150680, Note_off_c, 1, 70, 0
2, 150720, Note_off_c, 1, 48, 0
2, 150720, Note_off_c, 1, 55, 0
2, 150720, Note_off_c, 1, 58, 0
2, 150720, Note_off_c, 1, 60, 0
2, 150720, Note_off_c, 1, 72, 0
2, 150720, Note_off_c, 1, 76, 0
2, 150760, Note_on_c, 1, 48, 127
2, 150760, Note_on_c, 1, 55, 127
2, 150760, Note_on_c, 1, 58, 127
2, 150760, Note_on_c, 1, 60, 127
2, 150760, Note_on_c, 1, 76, 127
2, 150760, Note_on_c, 1, 79, 127
2, 150800, Note_off_c, 1, 48, 0
2, 150800, Note_off_c, 1, 55, 0
2, 150800, Note_off_c, 1, 58, 0
2, 150800, Note_off_c, 1, 60, 0
2, 150840, Note_on_c, 1, 55, 127
2, 150840, Note_on_c, 1, 60, 127
2, 150920, Note_off_c, 1, 55, 0
2, 150920, Note_off_c, 1, 60, 0
2, 150920, Note_off_c, 1, 76, 0
2, 150920, Note_off_c, 1, 79, 0
2, 150960, Note_on_c, 1, 53, 127
2, 150960, Note_on_c, 1, 57, 127
2, 150960, Note_on_c, 1, 60, 127
2, 150960, Note_on_c, 1, 77, 127
2, 150960, Note_on_c, 1, 81, 127
2, 151280, Note_off_c, 1, 53, 0
2, 151280, Note_off_c, 1, 57, 0
2, 151280, Note_off_c, 1, 60, 0
2, 151280, Note_off_c, 1, 77, 0
2, 151280, Note_off_c, 1, 81, 0
2, 151320, Note_on_c, 1, 38, 127
2, 151320, Note_on_c, 1, 50, 127
2, 151440, Note_on_c, 1, 77, 127
2, 151480, Note_off_c, 1, 77, 0
2, 151520, Note_on_c, 1, 81, 127
2, 151560, Note_off_c, 1, 81, 0
2, 151640, Note_on_c, 1, 84, 127
2, 151680, Note_off_c, 1, 38, 0
2, 151680, Note_off_c, 1, 50, 0
2, 151680, Note_off_c, 1, 84, 0
2, 151720, Note_on_c, 1, 86, 127
2, 151760, Note_off_c, 1, 86, 0
2, 151800, Note_on_c, 1, 86, 127
2, 151880, Note_off_c, 1, 86, 0
2, 151920, Note_on_c, 1, 74, 127
2, 151920, Note_on_c, 1, 81, 127
2, 151920, Note_on_c, 1, 86, 127
2, 151960, Note_off_c, 1, 74, 0
2, 151960, Note_off_c, 1, 81, 0
2, 151960, Note_off_c, 1, 86, 0
2, 152000, Note_on_c, 1, 82, 127
2, 152000, Note_on_c, 1, 86, 127
2, 152040, Note_off_c, 1, 82, 0
2, 152040, Note_off_c, 1, 86, 0
2, 152120, Note_on_c, 1, 48, 127
2, 152120, Note_on_c, 1, 60, 127
2, 152120, Note_on_c, 1, 64, 127
2, 152120, Note_on_c, 1, 76, 127
2, 152120, Note_on_c, 1, 79, 127
2, 152120, Note_on_c, 1, 82, 127
2, 152160, Note_off_c, 1, 64, 0
2, 152160, Note_off_c, 1, 82, 0
2, 152200, Note_on_c, 1, 67, 127
2, 152240, Note_off_c, 1, 67, 0
2, 152240, Note_off_c, 1, 76, 0
2, 152240, Note_off_c, 1, 79, 0
2, 152280, Note_on_c, 1, 64, 127
2, 152280, Note_on_c, 1, 67, 127
2, 152280, Note_on_c, 1, 79, 127
2, 152360, Note_off_c, 1, 64, 0
2, 152440, Note_off_c, 1, 67, 0
2, 152440, Note_off_c, 1, 79, 0
2, 152480, Note_on_c, 1, 64, 127
2, 152480, Note_on_c, 1, 67, 127
2, 152480, Note_on_c, 1, 76, 127
2, 152480, Note_on_c, 1, 77, 127
2, 152520, Note_off_c, 1, 77, 0
2, 152640, Note_off_c, 1, 48, 0
2, 152640, Note_off_c, 1, 60, 0
2, 152640, Note_off_c, 1, 64, 0
2, 152640, Note_off_c, 1, 67, 0
2, 152640, Note_off_c, 1, 76, 0
2, 152680, Note_on_c, 1, 84, 127
2, 152720, Note_off_c, 1, 84, 0
2, 152760, Note_on_c, 1, 77, 127
2, 152840, Note_off_c, 1, 77, 0
2, 152880, Note_on_c, 1, 89, 127
2, 152920, Note_off_c, 1, 89, 0
2, 152960, Note_on_c, 1, 76, 127
2, 153000, Note_off_c, 1, 76, 0
2, 153080, Note_on_c, 1, 81, 127
2, 153120, Note_off_c, 1, 81, 0
2, 153160, Note_on_c, 1, 77, 127
2, 153200, Note_off_c, 1, 77, 0
2, 153240, Note_on_c, 1, 82, 127
2, 153320, Note_off_c, 1, 82, 0
2, 153360, Note_on_c, 1, 77, 127
2, 153400, Note_off_c, 1, 77, 0
2, 153440, Note_on_c, 1, 76, 127
2, 153480, Note_off_c, 1, 76, 0
2, 153560, Note_on_c, 1, 77, 127
2, 153600, Note_off_c, 1, 77, 0
2, 153640, Note_on_c, 1, 86, 127
2, 153680, Note_off_c, 1, 86, 0
2, 153720, Note_on_c, 1, 82, 127
2, 153800, Note_off_c, 1, 82, 0
2, 153840, Note_on_c, 1, 82, 127
2, 153880, Note_off_c, 1, 82, 0
2, 153920, Note_on_c, 1, 86, 127
2, 153960, Note_off_c, 1, 86, 0
2, 154040, Note_on_c, 1, 84, 127
2, 154080, Note_off_c, 1, 84, 0
2, 154120, Note_on_c, 1, 81, 127
2, 154160, Note_off_c, 1, 81, 0
2, 154200, Note_on_c, 1, 77, 127
2, 154280, Note_off_c, 1, 77, 0
2, 154320, Note_on_c, 1, 77, 127
2, 154360, Note_off_c, 1, 77, 0
2, 154400, Note_on_c, 1, 76, 127
2, 154440, Note_off_c, 1, 76, 0
2, 154520, Note_on_c, 1, 77, 127
2, 154560, Note_off_c, 1, 77, 0
2, 154600, Note_on_c, 1, 74, 127
2, 154640, Note_off_c, 1, 74, 0
2, 154680, Note_on_c, 1, 57, 127
2, 154680, Note_on_c, 1, 72, 127
2, 154760, Note_off_c, 1, 57, 0
2, 154760, Note_off_c, 1, 72, 0
2, 154800, Note_on_c, 1, 58, 127
2, 154800, Note_on_c, 1, 74, 127
2, 154840, Note_off_c, 1, 58, 0
2, 154840, Note_off_c, 1, 74, 0
2, 154880, Note_on_c, 1, 57, 127
2, 154880, Note_on_c, 1, 72, 127
2, 154920, Note_off_c, 1, 57, 0
2, 154920, Note_off_c, 1, 72, 0
2, 155000, Note_on_c, 1, 58, 127
2, 155000, Note_on_c, 1, 70, 127
2, 155040, Note_off_c, 1, 58, 0
2, 155040, Note_off_c, 1, 70, 0
2, 155080, Note_on_c, 1, 60, 127
2, 155080, Note_on_c, 1, 67, 127
2, 155120, Note_off_c, 1, 60, 0
2, 155120, Note_off_c, 1, 67, 0
2, 155160, Note_on_c, 1, 58, 127
2, 155160, Note_on_c, 1, 65, 127
2, 155200, Note_off_c, 1, 58, 0
2, 155200, Note_off_c, 1, 65, 0
2, 155280, Note_on_c, 1, 57, 127
2, 155280, Note_on_c, 1, 65, 127
2, 155320, Note_off_c, 1, 57, 0
2, 155320, Note_off_c, 1, 65, 0
2, 155360, Note_on_c, 1, 58, 127
2, 155360, Note_on_c, 1, 70, 127
2, 155400, Note_off_c, 1, 58, 0
2, 155400, Note_off_c, 1, 70, 0
2, 155560, Note_on_c, 1, 57, 127
2, 155560, Note_on_c, 1, 65, 127
2, 155600, Note_off_c, 1, 57, 0
2, 155600, Note_off_c, 1, 65, 0
2, 155640, Note_on_c, 1, 53, 127
2, 155640, Note_on_c, 1, 65, 127
2, 155720, Note_off_c, 1, 53, 0
2, 155720, Note_off_c, 1, 65, 0
2, 155760, Note_on_c, 1, 57, 127
2, 155760, Note_on_c, 1, 72, 127
2, 155800, Note_off_c, 1, 57, 0
2, 155800, Note_off_c, 1, 72, 0
2, 155840, Note_on_c, 1, 53, 127
2, 155840, Note_on_c, 1, 65, 127
2, 155880, Note_off_c, 1, 53, 0
2, 155880, Note_off_c, 1, 65, 0
2, 155960, Note_on_c, 1, 57, 127
2, 155960, Note_on_c, 1, 65, 127
2, 156000, Note_off_c, 1, 57, 0
2, 156000, Note_off_c, 1, 65, 0
2, 156040, Note_on_c, 1, 56, 127
2, 156040, Note_on_c, 1, 65, 127
2, 156080, Note_off_c, 1, 56, 0
2, 156080, Note_off_c, 1, 65, 0
2, 156120, Note_on_c, 1, 53, 127
2, 156120, Note_on_c, 1, 65, 127
2, 156240, Note_off_c, 1, 53, 0
2, 156240, Note_off_c, 1, 65, 0
2, 157800, Note_on_c, 1, 56, 127
2, 157800, Note_on_c, 1, 59, 127
2, 157800, Note_on_c, 1, 62, 127
2, 157800, Note_on_c, 1, 65, 127
2, 157800, Note_on_c, 1, 71, 127
2, 157800, Note_on_c, 1, 74, 127
2, 158040, Note_off_c, 1, 56, 0
2, 158040, Note_off_c, 1, 59, 0
2, 158720, Note_off_c, 1, 74, 0
2, 158760, Note_on_c, 1, 86, 127
2, 158920, Note_off_c, 1, 86, 0
2, 158960, Note_on_c, 1, 86, 127
2, 159000, Note_off_c, 1, 86, 0
2, 159000, Note_on_c, 1, 88, 127
2, 159040, Note_on_c, 1, 86, 127
2, 159040, Note_off_c, 1, 88, 0
2, 159120, Note_off_c, 1, 62, 0
2, 159120, Note_off_c, 1, 65, 0
2, 159120, Note_off_c, 1, 71, 0
2, 159120, Note_off_c, 1, 86, 0
2, 159160, Note_on_c, 1, 59, 127
2, 159160, Note_on_c, 1, 79, 127
2, 159360, Note_on_c, 1, 62, 127
2, 159360, Note_on_c, 1, 65, 127
2, 159480, Note_off_c, 1, 79, 0
2, 159520, Note_on_c, 1, 86, 127
2, 159920, Note_on_c, 1, 77, 127
2, 160120, Note_on_c, 1, 70, 127
2, 160160, Note_off_c, 1, 70, 0
2, 160240, Note_off_c, 1, 62, 0
2, 160320, Note_on_c, 1, 62, 127
2, 160320, Note_on_c, 1, 71, 127
2, 160360, Note_off_c, 1, 71, 0
2, 160400, Note_on_c, 1, 67, 127
2, 160440, Note_off_c, 1, 67, 0
2, 160640, Note_off_c, 1, 59, 0
2, 160640, Note_off_c, 1, 62, 0
2, 160640, Note_off_c, 1, 65, 0
2, 160640, Note_off_c, 1, 77, 0
2, 160640, Note_off_c, 1, 86, 0
2, 160680, Note_on_c, 1, 60, 127
2, 160680, Note_on_c, 1, 62, 127
2, 160680, Note_on_c, 1, 77, 127
2, 160840, Note_off_c, 1, 62, 0
2, 160840, Note_off_c, 1, 77, 0
2, 160880, Note_on_c, 1, 64, 127
2, 160880, Note_on_c, 1, 77, 127
2, 161040, Note_off_c, 1, 60, 0
2, 161040, Note_off_c, 1, 64, 0
2, 161040, Note_off_c, 1, 77, 0
2, 161080, Note_on_c, 1, 58, 127
2, 161080, Note_on_c, 1, 76, 127
2, 161200, Note_off_c, 1, 58, 0
2, 161280, Note_on_c, 1, 60, 127
2, 161400, Note_off_c, 1, 60, 0
2, 161400, Note_off_c, 1, 76, 0
2, 161440, Note_on_c, 1, 60, 127
2, 161440, Note_on_c, 1, 81, 127
2, 161600, Note_off_c, 1, 60, 0
2, 161640, Note_on_c, 1, 65, 127
2, 161800, Note_off_c, 1, 65, 0
2, 161840, Note_on_c, 1, 62, 127
2, 161960, Note_off_c, 1, 62, 0
2, 162040, Note_on_c, 1, 65, 127
2, 162160, Note_off_c, 1, 65, 0
2, 162160, Note_off_c, 1, 81, 0
2, 162200, Note_on_c, 1, 59, 127
2, 162200, Note_on_c, 1, 69, 127
2, 162200, Note_on_c, 1, 78, 127
2, 162280, Note_off_c, 1, 69, 0
2, 162280, Note_off_c, 1, 78, 0
2, 162400, Note_on_c, 1, 66, 127
2, 162400, Note_on_c, 1, 78, 127
2, 162560, Note_off_c, 1, 59, 0
2, 162560, Note_off_c, 1, 66, 0
2, 162560, Note_off_c, 1, 78, 0
2, 162600, Note_on_c, 1, 60, 127
2, 162600, Note_on_c, 1, 67, 127
2, 162760, Note_off_c, 1, 60, 0
2, 162800, Note_on_c, 1, 62, 127
2, 162920, Note_off_c, 1, 62, 0
2, 162920, Note_off_c, 1, 67, 0
2, 163000, Note_on_c, 1, 60, 127
2, 163000, Note_on_c, 1, 69, 127
2, 163000, Note_on_c, 1, 81, 127
2, 163120, Note_off_c, 1, 60, 0
2, 163120, Note_off_c, 1, 81, 0
2, 163160, Note_on_c, 1, 59, 127
2, 163160, Note_on_c, 1, 83, 127
2, 163200, Note_off_c, 1, 69, 0
2, 163320, Note_off_c, 1, 59, 0
2, 163320, Note_off_c, 1, 83, 0
2, 163360, Note_on_c, 1, 57, 127
2, 163360, Note_on_c, 1, 64, 127
2, 163360, Note_on_c, 1, 78, 127
2, 163360, Note_on_c, 1, 84, 127
2, 163880, Note_off_c, 1, 84, 0
2, 163960, Note_on_c, 1, 83, 127
2, 164000, Note_off_c, 1, 83, 0
2, 164080, Note_off_c, 1, 57, 0
2, 164080, Note_off_c, 1, 78, 0
2, 164120, Note_on_c, 1, 48, 127
2, 164120, Note_on_c, 1, 60, 127
2, 164120, Note_on_c, 1, 79, 127
2, 164280, Note_off_c, 1, 79, 0
2, 164320, Note_on_c, 1, 84, 127
2, 164360, Note_off_c, 1, 84, 0
2, 164480, Note_off_c, 1, 48, 0
2, 164480, Note_off_c, 1, 60, 0
2, 164480, Note_off_c, 1, 64, 0
2, 164520, Note_on_c, 1, 48, 127
2, 164520, Note_on_c, 1, 60, 127
2, 164520, Note_on_c, 1, 67, 127
2, 164520, Note_on_c, 1, 72, 127
2, 164520, Note_on_c, 1, 76, 127
2, 164520, Note_on_c, 1, 88, 127
2, 164680, Note_off_c, 1, 88, 0
2, 164720, Note_on_c, 1, 86, 127
2, 164840, Note_off_c, 1, 48, 0
2, 164840, Note_off_c, 1, 60, 0
2, 164840, Note_off_c, 1, 67, 0
2, 164840, Note_off_c, 1, 72, 0
2, 164840, Note_off_c, 1, 76, 0
2, 164840, Note_off_c, 1, 86, 0
2, 164880, Note_on_c, 1, 65, 127
2, 164880, Note_on_c, 1, 69, 127
2, 164880, Note_on_c, 1, 77, 127
2, 165040, Note_off_c, 1, 77, 0
2, 165080, Note_on_c, 1, 76, 127
2, 165120, Note_off_c, 1, 76, 0
2, 165240, Note_off_c, 1, 65, 0
2, 165240, Note_off_c, 1, 69, 0
2, 165280, Note_on_c, 1, 53, 127
2, 165280, Note_on_c, 1, 56, 127
2, 165280, Note_on_c, 1, 60, 127
2, 165280, Note_on_c, 1, 65, 127
2, 165280, Note_on_c, 1, 69, 127
2, 165280, Note_on_c, 1, 74, 127
2, 165440, Note_off_c, 1, 74, 0
2, 165480, Note_on_c, 1, 62, 127
2, 165480, Note_on_c, 1, 77, 127
2, 165600, Note_off_c, 1, 53, 0
2, 165600, Note_off_c, 1, 56, 0
2, 165600, Note_off_c, 1, 60, 0
2, 165600, Note_off_c, 1, 62, 0
2, 165600, Note_off_c, 1, 65, 0
2, 165600, Note_off_c, 1, 69, 0
2, 165600, Note_off_c, 1, 77, 0
2, 165680, Note_on_c, 1, 53, 127
2, 165680, Note_on_c, 1, 77, 127
2, 165800, Note_off_c, 1, 77, 0
2, 165840, Note_on_c, 1, 74, 127
2, 166000, Note_off_c, 1, 74, 0
2, 166040, Note_on_c, 1, 41, 127
2, 166040, Note_on_c, 1, 62, 127
2, 166040, Note_on_c, 1, 69, 127
2, 166040, Note_on_c, 1, 72, 127
2, 166040, Note_on_c, 1, 79, 127
2, 166080, Note_off_c, 1, 79, 0
2, 166160, Note_on_c, 1, 77, 127
2, 166200, Note_off_c, 1, 77, 0
2, 166240, Note_on_c, 1, 79, 127
2, 166280, Note_off_c, 1, 79, 0
2, 166320, Note_on_c, 1, 81, 127
2, 166400, Note_off_c, 1, 41, 0
2, 166400, Note_off_c, 1, 53, 0
2, 166400, Note_off_c, 1, 62, 0
2, 166400, Note_off_c, 1, 69, 0
2, 166400, Note_off_c, 1, 72, 0
2, 166400, Note_off_c, 1, 81, 0
2, 166440, Note_on_c, 1, 82, 127
2, 166480, Note_off_c, 1, 82, 0
2, 166520, Note_on_c, 1, 81, 127
2, 166560, Note_off_c, 1, 81, 0
2, 166640, Note_on_c, 1, 79, 127
2, 166680, Note_off_c, 1, 79, 0
2, 166720, Note_on_c, 1, 77, 127
2, 166760, Note_off_c, 1, 77, 0
2, 166800, Note_on_c, 1, 84, 127
2, 166880, Note_off_c, 1, 84, 0
2, 166920, Note_on_c, 1, 83, 127
2, 166960, Note_off_c, 1, 83, 0
2, 167000, Note_on_c, 1, 77, 127
2, 167040, Note_off_c, 1, 77, 0
2, 167120, Note_on_c, 1, 81, 127
2, 167160, Note_off_c, 1, 81, 0
2, 167200, Note_on_c, 1, 53, 127
2, 167200, Note_on_c, 1, 65, 127
2, 167200, Note_on_c, 1, 71, 127
2, 167200, Note_on_c, 1, 79, 127
2, 167200, Note_on_c, 1, 81, 127
2, 167240, Note_off_c, 1, 81, 0
2, 167280, Note_on_c, 1, 81, 127
2, 167360, Note_off_c, 1, 79, 0
2, 167360, Note_off_c, 1, 81, 0
2, 167400, Note_on_c, 1, 67, 127
2, 167400, Note_on_c, 1, 77, 127
2, 167400, Note_on_c, 1, 79, 127
2, 167440, Note_off_c, 1, 67, 0
2, 167440, Note_off_c, 1, 79, 0
2, 167480, Note_on_c, 1, 81, 127
2, 167520, Note_off_c, 1, 53, 0
2, 167520, Note_off_c, 1, 65, 0
2, 167520, Note_off_c, 1, 71, 0
2, 167520, Note_off_c, 1, 77, 0
2, 167520, Note_off_c, 1, 81, 0
2, 167600, Note_on_c, 1, 52, 127
2, 167600, Note_on_c, 1, 55, 127
2, 167600, Note_on_c, 1, 67, 127
2, 167600, Note_on_c, 1, 74, 127
2, 167600, Note_on_c, 1, 79, 127
2, 167680, Note_on_c, 1, 86, 127
2, 167720, Note_off_c, 1, 52, 0
2, 167720, Note_off_c, 1, 55, 0
2, 167720, Note_off_c, 1, 67, 0
2, 167720, Note_off_c, 1, 74, 0
2, 167720, Note_off_c, 1, 79, 0
2, 167720, Note_off_c, 1, 86, 0
2, 167760, Note_on_c, 1, 50, 127
2, 167920, Note_off_c, 1, 50, 0
2, 167960, Note_on_c, 1, 50, 127
2, 167960, Note_on_c, 1, 57, 127
2, 167960, Note_on_c, 1, 62, 127
2, 167960, Note_on_c, 1, 65, 127
2, 168120, Note_off_c, 1, 50, 0
2, 168120, Note_off_c, 1, 57, 0
2, 168160, Note_on_c, 1, 72, 127
2, 168160, Note_on_c, 1, 84, 127
2, 168320, Note_off_c, 1, 72, 0
2, 168320, Note_off_c, 1, 84, 0
2, 168360, Note_on_c, 1, 71, 127
2, 168360, Note_on_c, 1, 83, 127
2, 168360, Note_on_c, 1, 86, 127
2, 168480, Note_off_c, 1, 62, 0
2, 168480, Note_off_c, 1, 71, 0
2, 168480, Note_off_c, 1, 83, 0
2, 168480, Note_off_c, 1, 86, 0
2, 168560, Note_on_c, 1, 55, 127
2, 168560, Note_on_c, 1, 62, 127
2, 168560, Note_off_c, 1, 65, 0
2, 168560, Note_on_c, 1, 67, 127
2, 168560, Note_on_c, 1, 82, 127
2, 168600, Note_off_c, 1, 67, 0
2, 168600, Note_off_c, 1, 82, 0
2, 168640, Note_on_c, 1, 69, 127
2, 168640, Note_on_c, 1, 81, 127
2, 168680, Note_off_c, 1, 55, 0
2, 168680, Note_off_c, 1, 69, 0
2, 168680, Note_off_c, 1, 81, 0
2, 168720, Note_on_c, 1, 55, 127
2, 168720, Note_on_c, 1, 65, 127
2, 168720, Note_on_c, 1, 71, 127
2, 168720, Note_on_c, 1, 79, 127
2, 168880, Note_off_c, 1, 55, 0
2, 168880, Note_off_c, 1, 62, 0
2, 168880, Note_off_c, 1, 79, 0
2, 168920, Note_on_c, 1, 47, 127
2, 168920, Note_on_c, 1, 62, 127
2, 168920, Note_on_c, 1, 77, 127
2, 169080, Note_off_c, 1, 47, 0
2, 169080, Note_off_c, 1, 62, 0
2, 169080, Note_off_c, 1, 65, 0
2, 169080, Note_off_c, 1, 71, 0
2, 169080, Note_off_c, 1, 77, 0
2, 169120, Note_on_c, 1, 36, 127
2, 169120, Note_on_c, 1, 48, 127
2, 169120, Note_on_c, 1, 64, 127
2, 169120, Note_on_c, 1, 67, 127
2, 169120, Note_on_c, 1, 72, 127
2, 169120, Note_on_c, 1, 76, 127
2, 169280, Note_off_c, 1, 64, 0
2, 169280, Note_off_c, 1, 67, 0
2, 169280, Note_off_c, 1, 72, 0
2, 169280, Note_off_c, 1, 76, 0
2, 169320, Note_on_c, 1, 74, 127
2, 169360, Note_off_c, 1, 74, 0
2, 169400, Note_on_c, 1, 55, 127
2, 169400, Note_on_c, 1, 76, 127
2, 169440, Note_off_c, 1, 36, 0
2, 169440, Note_off_c, 1, 48, 0
2, 169440, Note_off_c, 1, 55, 0
2, 169440, Note_off_c, 1, 76, 0
2, 169520, Note_on_c, 1, 38, 127
2, 169520, Note_on_c, 1, 50, 127
2, 169520, Note_on_c, 1, 74, 127
2, 169520, Note_on_c, 1, 77, 127
2, 169640, Note_off_c, 1, 50, 0
2, 169680, Note_on_c, 1, 65, 127
2, 169840, Note_off_c, 1, 38, 0
2, 169840, Note_off_c, 1, 65, 0
2, 169880, Note_on_c, 1, 50, 127
2, 169880, Note_on_c, 1, 62, 127
2, 170040, Note_off_c, 1, 62, 0
2, 170040, Note_off_c, 1, 74, 0
2, 170040, Note_off_c, 1, 77, 0
2, 170080, Note_on_c, 1, 65, 127
2, 170080, Note_on_c, 1, 69, 127
2, 170080, Note_on_c, 1, 76, 127
2, 170120, Note_off_c, 1, 65, 0
2, 170120, Note_off_c, 1, 69, 0
2, 170240, Note_off_c, 1, 50, 0
2, 170240, Note_off_c, 1, 76, 0
2, 170280, Note_on_c, 1, 67, 127
2, 170280, Note_on_c, 1, 69, 127
2, 170280, Note_on_c, 1, 82, 127
2, 170320, Note_off_c, 1, 67, 0
2, 170320, Note_off_c, 1, 69, 0
2, 170320, Note_off_c, 1, 82, 0
2, 170480, Note_on_c, 1, 65, 127
2, 170480, Note_on_c, 1, 69, 127
2, 170480, Note_on_c, 1, 81, 127
2, 170520, Note_off_c, 1, 65, 0
2, 170520, Note_off_c, 1, 69, 0
2, 170520, Note_off_c, 1, 81, 0
2, 170640, Note_on_c, 1, 48, 127
2, 170640, Note_on_c, 1, 65, 127
2, 170640, Note_on_c, 1, 69, 127
2, 170640, Note_on_c, 1, 74, 127
2, 170640, Note_on_c, 1, 84, 127
2, 170800, Note_off_c, 1, 65, 0
2, 170800, Note_off_c, 1, 69, 0
2, 170800, Note_off_c, 1, 74, 0
2, 170800, Note_off_c, 1, 84, 0
2, 170840, Note_on_c, 1, 62, 127
2, 170840, Note_on_c, 1, 65, 127
2, 170840, Note_on_c, 1, 69, 127
2, 170840, Note_on_c, 1, 84, 127
2, 171000, Note_off_c, 1, 48, 0
2, 171000, Note_off_c, 1, 62, 0
2, 171000, Note_off_c, 1, 65, 0
2, 171000, Note_off_c, 1, 69, 0
2, 171000, Note_off_c, 1, 84, 0
2, 171040, Note_on_c, 1, 50, 127
2, 171040, Note_on_c, 1, 62, 127
2, 171040, Note_on_c, 1, 74, 127
2, 171040, Note_on_c, 1, 77, 127
2, 171040, Note_on_c, 1, 86, 127
2, 171200, Note_off_c, 1, 74, 0
2, 171200, Note_off_c, 1, 77, 0
2, 171200, Note_off_c, 1, 86, 0
2, 171240, Note_on_c, 1, 60, 127
2, 171240, Note_on_c, 1, 69, 127
2, 171240, Note_on_c, 1, 72, 127
2, 171240, Note_on_c, 1, 77, 127
2, 171240, Note_on_c, 1, 89, 127
2, 171360, Note_off_c, 1, 62, 0
2, 171360, Note_off_c, 1, 69, 0
2, 171360, Note_off_c, 1, 72, 0
2, 171360, Note_off_c, 1, 77, 0
2, 171360, Note_off_c, 1, 89, 0
2, 171440, Note_on_c, 1, 69, 127
2, 171440, Note_on_c, 1, 72, 127
2, 171440, Note_on_c, 1, 77, 127
2, 171440, Note_on_c, 1, 89, 127
2, 171560, Note_off_c, 1, 50, 0
2, 171560, Note_off_c, 1, 60, 0
2, 171560, Note_off_c, 1, 69, 0
2, 171560, Note_off_c, 1, 72, 0
2, 171560, Note_off_c, 1, 77, 0
2, 171560, Note_off_c, 1, 89, 0
2, 171600, Note_on_c, 1, 89, 127
2, 171680, Note_off_c, 1, 89, 0
2, 171800, Note_on_c, 1, 60, 127
2, 171800, Note_on_c, 1, 69, 127
2, 171800, Note_on_c, 1, 76, 127
2, 171800, Note_on_c, 1, 88, 127
2, 171960, Note_off_c, 1, 69, 0
2, 171960, Note_off_c, 1, 76, 0
2, 171960, Note_off_c, 1, 88, 0
2, 172000, Note_on_c, 1, 65, 127
2, 172000, Note_on_c, 1, 77, 127
2, 172000, Note_on_c, 1, 89, 127
2, 172160, Note_off_c, 1, 60, 0
2, 172160, Note_off_c, 1, 65, 0
2, 172160, Note_off_c, 1, 77, 0
2, 172160, Note_off_c, 1, 89, 0
2, 172200, Note_on_c, 1, 60, 127
2, 172200, Note_on_c, 1, 64, 127
2, 172200, Note_on_c, 1, 76, 127
2, 172200, Note_on_c, 1, 88, 127
2, 172320, Note_off_c, 1, 60, 0
2, 172320, Note_off_c, 1, 64, 0
2, 172320, Note_off_c, 1, 76, 0
2, 172320, Note_off_c, 1, 88, 0
2, 172400, Note_on_c, 1, 57, 127
2, 172400, Note_on_c, 1, 65, 127
2, 172400, Note_on_c, 1, 77, 127
2, 172400, Note_on_c, 1, 89, 127
2, 172520, Note_off_c, 1, 57, 0
2, 172520, Note_off_c, 1, 65, 0
2, 172520, Note_off_c, 1, 77, 0
2, 172520, Note_off_c, 1, 89, 0
2, 172560, Note_on_c, 1, 57, 127
2, 172560, Note_on_c, 1, 67, 127
2, 172560, Note_on_c, 1, 79, 127
2, 172560, Note_on_c, 1, 89, 127
2, 172640, Note_on_c, 1, 88, 127
2, 172640, Note_off_c, 1, 89, 0
2, 172720, Note_off_c, 1, 57, 0
2, 172720, Note_off_c, 1, 67, 0
2, 172720, Note_off_c, 1, 79, 0
2, 172720, Note_on_c, 1, 81, 127
2, 172720, Note_off_c, 1, 88, 0
2, 172760, Note_on_c, 1, 60, 127
2, 172760, Note_on_c, 1, 69, 127
2, 172760, Note_on_c, 1, 86, 127
2, 172920, Note_off_c, 1, 60, 0
2, 172920, Note_off_c, 1, 69, 0
2, 172920, Note_off_c, 1, 81, 0
2, 172920, Note_off_c, 1, 86, 0
2, 172960, Note_on_c, 1, 41, 127
2, 172960, Note_on_c, 1, 53, 127
2, 172960, Note_on_c, 1, 83, 127
2, 172960, Note_on_c, 1, 86, 127
2, 172960, Note_on_c, 1, 89, 127
2, 173120, Note_off_c, 1, 53, 0
2, 173160, Note_on_c, 1, 60, 127
2, 173200, Note_off_c, 1, 60, 0
2, 173280, Note_off_c, 1, 83, 0
2, 173280, Note_off_c, 1, 86, 0
2, 173280, Note_off_c, 1, 89, 0
2, 173360, Note_on_c, 1, 57, 127
2, 173360, Note_on_c, 1, 72, 127
2, 173360, Note_on_c, 1, 84, 127
2, 173480, Note_off_c, 1, 41, 0
2, 173480, Note_off_c, 1, 57, 0
2, 173480, Note_off_c, 1, 72, 0
2, 173480, Note_off_c, 1, 84, 0
2, 173520, Note_on_c, 1, 53, 127
2, 173520, Note_on_c, 1, 65, 127
2, 173520, Note_on_c, 1, 69, 127
2, 173520, Note_on_c, 1, 81, 127
2, 173680, Note_off_c, 1, 53, 0
2, 173680, Note_off_c, 1, 65, 0
2, 173680, Note_off_c, 1, 69, 0
2, 173680, Note_off_c, 1, 81, 0
2, 173720, Note_on_c, 1, 52, 127
2, 173720, Note_on_c, 1, 64, 127
2, 173720, Note_on_c, 1, 69, 127
2, 173720, Note_on_c, 1, 81, 127
2, 173720, Note_on_c, 1, 84, 127
2, 173760, Note_off_c, 1, 69, 0
2, 173880, Note_off_c, 1, 52, 0
2, 173880, Note_off_c, 1, 64, 0
2, 173880, Note_off_c, 1, 81, 0
2, 173880, Note_off_c, 1, 84, 0
2, 173920, Note_on_c, 1, 52, 127
2, 173920, Note_on_c, 1, 64, 127
2, 173920, Note_on_c, 1, 72, 127
2, 173920, Note_on_c, 1, 84, 127
2, 174080, Note_off_c, 1, 52, 0
2, 174080, Note_off_c, 1, 64, 0
2, 174120, Note_on_c, 1, 64, 127
2, 174240, Note_off_c, 1, 64, 0
2, 174320, Note_on_c, 1, 48, 127
2, 174320, Note_on_c, 1, 64, 127
2, 174440, Note_off_c, 1, 48, 0
2, 174440, Note_off_c, 1, 64, 0
2, 174440, Note_off_c, 1, 72, 0
2, 174440, Note_off_c, 1, 84, 0
2, 174480, Note_on_c, 1, 48, 127
2, 174480, Note_on_c, 1, 60, 127
2, 174480, Note_on_c, 1, 64, 127
2, 174480, Note_on_c, 1, 78, 127
2, 174480, Note_on_c, 1, 88, 127
2, 174640, Note_off_c, 1, 48, 0
2, 174640, Note_off_c, 1, 60, 0
2, 174640, Note_off_c, 1, 64, 0
2, 174640, Note_off_c, 1, 78, 0
2, 174640, Note_off_c, 1, 88, 0
2, 174680, Note_on_c, 1, 47, 127
2, 174680, Note_on_c, 1, 59, 127
2, 174680, Note_on_c, 1, 62, 127
2, 174680, Note_on_c, 1, 86, 127
2, 174840, Note_off_c, 1, 62, 0
2, 174840, Note_off_c, 1, 86, 0
2, 174880, Note_on_c, 1, 62, 127
2, 175040, Note_off_c, 1, 47, 0
2, 175040, Note_off_c, 1, 59, 0
2, 175040, Note_off_c, 1, 62, 0
2, 175080, Note_on_c, 1, 60, 127
2, 175080, Note_on_c, 1, 64, 127
2, 175080, Note_on_c, 1, 88, 127
2, 175200, Note_off_c, 1, 60, 0
2, 175200, Note_off_c, 1, 64, 0
2, 175200, Note_off_c, 1, 88, 0
2, 175280, Note_on_c, 1, 57, 127
2, 175280, Note_on_c, 1, 60, 127
2, 175280, Note_on_c, 1, 76, 127
2, 175280, Note_on_c, 1, 88, 127
2, 175400, Note_off_c, 1, 57, 0
2, 175400, Note_off_c, 1, 60, 0
2, 175400, Note_off_c, 1, 76, 0
2, 175400, Note_off_c, 1, 88, 0
2, 175440, Note_on_c, 1, 57, 127
2, 175440, Note_on_c, 1, 60, 127
2, 175440, Note_on_c, 1, 69, 127
2, 175440, Note_on_c, 1, 88, 127
2, 175600, Note_off_c, 1, 57, 0
2, 175600, Note_off_c, 1, 60, 0
2, 175600, Note_off_c, 1, 69, 0
2, 175600, Note_off_c, 1, 88, 0
2, 175640, Note_on_c, 1, 40, 127
2, 175640, Note_on_c, 1, 52, 127
2, 175640, Note_on_c, 1, 55, 127
2, 175640, Note_on_c, 1, 59, 127
2, 175640, Note_on_c, 1, 64, 127
2, 175640, Note_on_c, 1, 67, 127
2, 175640, Note_on_c, 1, 86, 127
2, 175800, Note_off_c, 1, 55, 0
2, 175800, Note_off_c, 1, 59, 0
2, 175800, Note_off_c, 1, 64, 0
2, 175800, Note_off_c, 1, 67, 0
2, 175800, Note_off_c, 1, 86, 0
2, 175840, Note_on_c, 1, 59, 127
2, 175840, Note_on_c, 1, 64, 127
2, 175840, Note_on_c, 1, 68, 127
2, 175840, Note_on_c, 1, 83, 127
2, 175880, Note_off_c, 1, 83, 0
2, 176000, Note_off_c, 1, 40, 0
2, 176000, Note_off_c, 1, 52, 0
2, 176000, Note_off_c, 1, 59, 0
2, 176000, Note_off_c, 1, 64, 0
2, 176000, Note_off_c, 1, 68, 0
2, 176040, Note_on_c, 1, 55, 127
2, 176040, Note_on_c, 1, 59, 127
2, 176040, Note_on_c, 1, 64, 127
2, 176040, Note_on_c, 1, 67, 127
2, 176040, Note_on_c, 1, 79, 127
2, 176160, Note_off_c, 1, 55, 0
2, 176160, Note_off_c, 1, 59, 0
2, 176160, Note_off_c, 1, 64, 0
2, 176160, Note_off_c, 1, 67, 0
2, 176160, Note_off_c, 1, 79, 0
2, 176240, Note_on_c, 1, 48, 127
2, 176240, Note_on_c, 1, 55, 127
2, 176240, Note_on_c, 1, 72, 127
2, 176240, Note_on_c, 1, 79, 127
2, 176240, Note_on_c, 1, 81, 127
2, 176240, Note_on_c, 1, 84, 127
2, 176360, Note_off_c, 1, 48, 0
2, 176360, Note_off_c, 1, 55, 0
2, 176400, Note_on_c, 1, 48, 127
2, 176480, Note_on_c, 1, 69, 127
2, 176520, Note_off_c, 1, 69, 0
2, 176560, Note_off_c, 1, 48, 0
2, 176600, Note_on_c, 1, 48, 127
2, 176600, Note_on_c, 1, 60, 127
2, 176760, Note_off_c, 1, 48, 0
2, 176760, Note_off_c, 1, 60, 0
2, 176760, Note_off_c, 1, 72, 0
2, 176760, Note_off_c, 1, 79, 0
2, 176760, Note_off_c, 1, 81, 0
2, 176760, Note_off_c, 1, 84, 0
2, 176800, Note_on_c, 1, 72, 127
2, 177000, Note_on_c, 1, 55, 127
2, 177000, Note_on_c, 1, 64, 127
2, 177000, Note_on_c, 1, 84, 127
2, 177120, Note_off_c, 1, 55, 0
2, 177120, Note_off_c, 1, 64, 0
2, 177200, Note_on_c, 1, 48, 127
2, 177200, Note_on_c, 1, 55, 127
2, 177200, Note_on_c, 1, 60, 127
2, 177320, Note_off_c, 1, 48, 0
2, 177320, Note_off_c, 1, 55, 0
2, 177320, Note_off_c, 1, 60, 0
2, 177560, Note_on_c, 1, 60, 127
2, 177560, Note_on_c, 1, 64, 127
2, 177720, Note_off_c, 1, 60, 0
2, 177720, Note_off_c, 1, 64, 0
2, 177760, Note_on_c, 1, 52, 127
2, 177760, Note_on_c, 1, 64, 127
2, 177760, Note_off_c, 1, 72, 0
2, 177920, Note_off_c, 1, 52, 0
2, 177920, Note_off_c, 1, 64, 0
2, 177960, Note_on_c, 1, 64, 127
2, 177960, Note_on_c, 1, 67, 127
2, 177960, Note_on_c, 1, 72, 127
2, 178080, Note_off_c, 1, 64, 0
2, 178080, Note_off_c, 1, 67, 0
2, 178080, Note_off_c, 1, 72, 0
2, 178160, Note_on_c, 1, 50, 127
2, 178160, Note_on_c, 1, 64, 127
2, 178160, Note_on_c, 1, 69, 127
2, 178280, Note_off_c, 1, 50, 0
2, 178280, Note_off_c, 1, 64, 0
2, 178280, Note_off_c, 1, 69, 0
2, 178280, Note_off_c, 1, 84, 0
2, 178320, Note_on_c, 1, 83, 127
2, 178480, Note_off_c, 1, 83, 0
2, 178520, Note_on_c, 1, 84, 127
2, 178680, Note_off_c, 1, 84, 0
2, 178720, Note_on_c, 1, 67, 127
2, 178720, Note_on_c, 1, 83, 127
2, 178880, Note_off_c, 1, 67, 0
2, 178880, Note_off_c, 1, 83, 0
2, 178920, Note_on_c, 1, 67, 127
2, 178920, Note_on_c, 1, 84, 127
2, 179040, Note_off_c, 1, 67, 0
2, 179040, Note_off_c, 1, 84, 0
2, 179120, Note_on_c, 1, 52, 127
2, 179120, Note_on_c, 1, 59, 127
2, 179120, Note_on_c, 1, 62, 127
2, 179120, Note_on_c, 1, 64, 127
2, 179120, Note_on_c, 1, 67, 127
2, 179120, Note_on_c, 1, 83, 127
2, 179160, Note_off_c, 1, 83, 0
2, 179200, Note_on_c, 1, 81, 127
2, 179240, Note_off_c, 1, 62, 0
2, 179240, Note_off_c, 1, 81, 0
2, 179280, Note_on_c, 1, 83, 127
2, 179360, Note_off_c, 1, 83, 0
2, 179400, Note_off_c, 1, 67, 0
2, 179400, Note_on_c, 1, 81, 127
2, 179440, Note_off_c, 1, 52, 0
2, 179440, Note_off_c, 1, 59, 0
2, 179440, Note_off_c, 1, 64, 0
2, 179440, Note_off_c, 1, 81, 0
2, 179480, Note_on_c, 1, 53, 127
2, 179480, Note_on_c, 1, 61, 127
2, 179480, Note_on_c, 1, 64, 127
2, 179480, Note_on_c, 1, 69, 127
2, 179480, Note_on_c, 1, 79, 127
2, 179520, Note_off_c, 1, 79, 0
2, 179600, Note_on_c, 1, 81, 127
2, 179640, Note_off_c, 1, 53, 0
2, 179640, Note_off_c, 1, 61, 0
2, 179640, Note_off_c, 1, 64, 0
2, 179640, Note_off_c, 1, 69, 0
2, 179640, Note_off_c, 1, 81, 0
2, 179680, Note_on_c, 1, 47, 127
2, 179680, Note_on_c, 1, 59, 127
2, 179680, Note_on_c, 1, 67, 127
2, 179680, Note_on_c, 1, 71, 127
2, 179680, Note_on_c, 1, 79, 127
2, 179840, Note_off_c, 1, 47, 0
2, 179840, Note_off_c, 1, 67, 0
2, 179840, Note_off_c, 1, 71, 0
2, 179840, Note_off_c, 1, 79, 0
2, 179880, Note_on_c, 1, 62, 127
2, 179880, Note_on_c, 1, 66, 127
2, 179880, Note_on_c, 1, 69, 127
2, 179880, Note_on_c, 1, 78, 127
2, 180000, Note_off_c, 1, 78, 0
2, 180080, Note_on_c, 1, 74, 127
2, 180080, Note_on_c, 1, 79, 127
2, 180200, Note_off_c, 1, 59, 0
2, 180200, Note_off_c, 1, 62, 0
2, 180200, Note_off_c, 1, 66, 0
2, 180200, Note_off_c, 1, 69, 0
2, 180200, Note_on_c, 1, 71, 127
2, 180200, Note_off_c, 1, 79, 0
2, 180240, Note_on_c, 1, 60, 127
2, 180240, Note_on_c, 1, 64, 127
2, 180240, Note_on_c, 1, 69, 127
2, 180360, Note_off_c, 1, 71, 0
2, 180400, Note_off_c, 1, 60, 0
2, 180400, Note_off_c, 1, 64, 0
2, 180400, Note_off_c, 1, 69, 0
2, 180400, Note_off_c, 1, 74, 0
2, 180440, Note_on_c, 1, 59, 127
2, 180440, Note_on_c, 1, 64, 127
2, 180440, Note_on_c, 1, 69, 127
2, 180440, Note_on_c, 1, 74, 127
2, 180600, Note_off_c, 1, 59, 0
2, 180600, Note_off_c, 1, 64, 0
2, 180600, Note_off_c, 1, 69, 0
2, 180600, Note_off_c, 1, 74, 0
2, 180640, Note_on_c, 1, 56, 127
2, 180640, Note_on_c, 1, 59, 127
2, 180640, Note_on_c, 1, 62, 127
2, 180640, Note_on_c, 1, 64, 127
2, 180640, Note_on_c, 1, 68, 127
2, 180640, Note_on_c, 1, 74, 127
2, 180640, Note_on_c, 1, 77, 127
2, 180800, Note_off_c, 1, 77, 0
2, 180880, Note_on_c, 1, 76, 127
2, 180960, Note_off_c, 1, 76, 0
2, 181040, Note_on_c, 1, 79, 127
2, 181080, Note_off_c, 1, 79, 0
2, 181120, Note_on_c, 1, 80, 127
2, 181160, Note_off_c, 1, 62, 0
2, 181160, Note_off_c, 1, 80, 0
2, 181200, Note_on_c, 1, 83, 127
2, 181280, Note_off_c, 1, 83, 0
2, 181320, Note_on_c, 1, 84, 127
2, 181360, Note_off_c, 1, 56, 0
2, 181360, Note_off_c, 1, 59, 0
2, 181360, Note_off_c, 1, 64, 0
2, 181360, Note_off_c, 1, 68, 0
2, 181360, Note_off_c, 1, 74, 0
2, 181360, Note_off_c, 1, 84, 0
2, 181400, Note_on_c, 1, 54, 127
2, 181400, Note_on_c, 1, 57, 127
2, 181400, Note_on_c, 1, 60, 127
2, 181400, Note_on_c, 1, 69, 127
2, 181400, Note_on_c, 1, 72, 127
2, 181400, Note_on_c, 1, 88, 127
2, 181440, Note_off_c, 1, 88, 0
2, 181520, Note_off_c, 1, 60, 0
2, 181520, Note_off_c, 1, 69, 0
2, 181520, Note_off_c, 1, 72, 0
2, 181560, Note_off_c, 1, 54, 0
2, 181560, Note_off_c, 1, 57, 0
2, 181600, Note_on_c, 1, 84, 127
2, 181640, Note_off_c, 1, 84, 0
2, 181680, Note_on_c, 1, 85, 127
2, 181720, Note_off_c, 1, 85, 0
2, 181720, Note_on_c, 1, 86, 127
2, 181760, Note_off_c, 1, 86, 0
2, 181800, Note_on_c, 1, 44, 127
2, 181800, Note_on_c, 1, 56, 127
2, 181800, Note_on_c, 1, 71, 127
2, 181800, Note_on_c, 1, 74, 127
2, 181800, Note_on_c, 1, 76, 127
2, 181800, Note_on_c, 1, 83, 127
2, 181800, Note_on_c, 1, 86, 127
2, 182120, Note_off_c, 1, 44, 0
2, 182120, Note_off_c, 1, 56, 0
2, 182120, Note_off_c, 1, 71, 0
2, 182120, Note_off_c, 1, 74, 0
2, 182120, Note_off_c, 1, 76, 0
2, 182120, Note_off_c, 1, 83, 0
2, 182120, Note_off_c, 1, 86, 0
2, 182160, Note_on_c, 1, 45, 127
2, 182160, Note_on_c, 1, 57, 127
2, 182160, Note_on_c, 1, 63, 127
2, 182160, Note_on_c, 1, 72, 127
2, 182160, Note_on_c, 1, 78, 127
2, 182160, Note_on_c, 1, 84, 127
2, 182240, Note_off_c, 1, 84, 0
2, 182280, Note_on_c, 1, 75, 127
2, 182280, Note_on_c, 1, 81, 127
2, 182320, Note_off_c, 1, 81, 0
2, 182360, Note_on_c, 1, 81, 127
2, 182400, Note_off_c, 1, 81, 0
2, 182480, Note_off_c, 1, 45, 0
2, 182480, Note_off_c, 1, 57, 0
2, 182480, Note_off_c, 1, 63, 0
2, 182480, Note_on_c, 1, 66, 127
2, 182480, Note_on_c, 1, 69, 127
2, 182520, Note_off_c, 1, 66, 0
2, 182520, Note_off_c, 1, 69, 0
2, 182520, Note_off_c, 1, 72, 0
2, 182520, Note_off_c, 1, 75, 0
2, 182520, Note_off_c, 1, 78, 0
2, 182560, Note_on_c, 1, 55, 127
2, 182560, Note_on_c, 1, 67, 127
2, 182560, Note_on_c, 1, 71, 127
2, 182560, Note_on_c, 1, 76, 127
2, 182560, Note_on_c, 1, 79, 127
2, 182600, Note_off_c, 1, 79, 0
2, 182720, Note_on_c, 1, 64, 127
2, 182720, Note_off_c, 1, 67, 0
2, 182760, Note_on_c, 1, 83, 127
2, 182760, Note_on_c, 1, 86, 127
2, 182800, Note_off_c, 1, 86, 0
2, 182880, Note_off_c, 1, 55, 0
2, 182880, Note_off_c, 1, 64, 0
2, 182880, Note_off_c, 1, 71, 0
2, 182880, Note_off_c, 1, 76, 0
2, 182880, Note_off_c, 1, 83, 0
2, 182960, Note_on_c, 1, 86, 127
2, 183000, Note_off_c, 1, 86, 0
2, 183040, Note_on_c, 1, 86, 127
2, 183080, Note_off_c, 1, 86, 0
2, 183120, Note_on_c, 1, 89, 127
2, 183200, Note_off_c, 1, 89, 0
2, 183240, Note_on_c, 1, 83, 127
2, 183280, Note_off_c, 1, 83, 0
2, 183320, Note_on_c, 1, 86, 127
2, 183360, Note_off_c, 1, 86, 0
2, 183440, Note_on_c, 1, 81, 127
2, 183480, Note_off_c, 1, 81, 0
2, 183520, Note_on_c, 1, 80, 127
2, 183560, Note_off_c, 1, 80, 0
2, 183600, Note_on_c, 1, 77, 127
2, 183640, Note_on_c, 1, 76, 127
2, 183640, Note_off_c, 1, 77, 0
2, 183680, Note_off_c, 1, 76, 0
2, 183720, Note_on_c, 1, 76, 127
2, 183760, Note_off_c, 1, 76, 0
2, 183800, Note_on_c, 1, 74, 127
2, 183840, Note_off_c, 1, 74, 0
2, 183920, Note_on_c, 1, 53, 127
2, 183920, Note_on_c, 1, 59, 127
2, 183920, Note_on_c, 1, 62, 127
2, 183920, Note_on_c, 1, 67, 127
2, 183920, Note_on_c, 1, 71, 127
2, 183960, Note_off_c, 1, 71, 0
2, 184000, Note_on_c, 1, 74, 127
2, 184040, Note_off_c, 1, 67, 0
2, 184040, Note_off_c, 1, 74, 0
2, 184080, Note_on_c, 1, 65, 127
2, 184080, Note_on_c, 1, 71, 127
2, 184160, Note_off_c, 1, 71, 0
2, 184200, Note_on_c, 1, 74, 127
2, 184240, Note_off_c, 1, 53, 0
2, 184240, Note_off_c, 1, 59, 0
2, 184240, Note_off_c, 1, 62, 0
2, 184240, Note_off_c, 1, 65, 0
2, 184240, Note_off_c, 1, 74, 0
2, 184280, Note_on_c, 1, 57, 127
2, 184280, Note_on_c, 1, 60, 127
2, 184280, Note_on_c, 1, 76, 127
2, 184320, Note_off_c, 1, 57, 0
2, 184320, Note_off_c, 1, 76, 0
2, 184400, Note_on_c, 1, 74, 127
2, 184440, Note_off_c, 1, 74, 0
2, 184480, Note_on_c, 1, 76, 127
2, 184520, Note_off_c, 1, 76, 0
2, 184560, Note_on_c, 1, 78, 127
2, 184640, Note_off_c, 1, 78, 0
2, 184680, Note_on_c, 1, 55, 127
2, 184680, Note_off_c, 1, 60, 0
2, 184680, Note_on_c, 1, 81, 127
2, 184720, Note_off_c, 1, 81, 0
2, 184760, Note_on_c, 1, 79, 127
2, 184800, Note_off_c, 1, 79, 0
2, 184880, Note_on_c, 1, 59, 127
2, 184880, Note_on_c, 1, 62, 127
2, 184880, Note_on_c, 1, 67, 127
2, 184880, Note_on_c, 1, 71, 127
2, 184880, Note_on_c, 1, 79, 127
2, 184920, Note_off_c, 1, 79, 0
2, 184960, Note_on_c, 1, 88, 127
2, 185000, Note_off_c, 1, 59, 0
2, 185000, Note_off_c, 1, 62, 0
2, 185000, Note_off_c, 1, 67, 0
2, 185000, Note_off_c, 1, 71, 0
2, 185000, Note_off_c, 1, 88, 0
2, 185040, Note_on_c, 1, 57, 127
2, 185040, Note_on_c, 1, 67, 127
2, 185040, Note_on_c, 1, 72, 127
2, 185040, Note_on_c, 1, 84, 127
2, 185080, Note_off_c, 1, 67, 0
2, 185080, Note_off_c, 1, 72, 0
2, 185120, Note_off_c, 1, 84, 0
2, 185160, Note_on_c, 1, 83, 127
2, 185200, Note_off_c, 1, 55, 0
2, 185200, Note_off_c, 1, 57, 0
2, 185200, Note_off_c, 1, 83, 0
2, 185240, Note_on_c, 1, 55, 127
2, 185240, Note_on_c, 1, 84, 127
2, 185280, Note_off_c, 1, 84, 0
2, 185360, Note_on_c, 1, 79, 127
2, 185400, Note_off_c, 1, 55, 0
2, 185400, Note_off_c, 1, 79, 0
2, 185440, Note_on_c, 1, 53, 127
2, 185440, Note_on_c, 1, 67, 127
2, 185440, Note_on_c, 1, 71, 127
2, 185440, Note_on_c, 1, 77, 127
2, 185480, Note_off_c, 1, 77, 0
2, 185520, Note_on_c, 1, 86, 127
2, 185600, Note_off_c, 1, 53, 0
2, 185600, Note_off_c, 1, 67, 0
2, 185600, Note_off_c, 1, 71, 0
2, 185600, Note_off_c, 1, 86, 0
2, 185640, Note_on_c, 1, 50, 127
2, 185640, Note_on_c, 1, 74, 127
2, 185640, Note_on_c, 1, 77, 127
2, 185640, Note_on_c, 1, 86, 127
2, 185680, Note_off_c, 1, 86, 0
2, 185720, Note_on_c, 1, 83, 127
2, 185760, Note_off_c, 1, 50, 0
2, 185760, Note_off_c, 1, 74, 0
2, 185760, Note_off_c, 1, 77, 0
2, 185760, Note_off_c, 1, 83, 0
2, 185840, Note_on_c, 1, 55, 127
2, 185840, Note_on_c, 1, 74, 127
2, 185840, Note_on_c, 1, 77, 127
2, 185840, Note_on_c, 1, 79, 127
2, 185880, Note_off_c, 1, 74, 0
2, 185880, Note_off_c, 1, 79, 0
2, 185960, Note_off_c, 1, 55, 0
2, 185960, Note_off_c, 1, 77, 0
2, 186000, Note_on_c, 1, 43, 127
2, 186000, Note_on_c, 1, 55, 127
2, 186000, Note_on_c, 1, 59, 127
2, 186000, Note_on_c, 1, 67, 127
2, 186000, Note_on_c, 1, 74, 127
2, 186000, Note_on_c, 1, 77, 127
2, 186000, Note_on_c, 1, 79, 127
2, 186080, Note_off_c, 1, 79, 0
2, 186160, Note_off_c, 1, 43, 0
2, 186160, Note_off_c, 1, 55, 0
2, 186160, Note_off_c, 1, 59, 0
2, 186160, Note_off_c, 1, 67, 0
2, 186160, Note_off_c, 1, 74, 0
2, 186160, Note_off_c, 1, 77, 0
2, 186200, Note_on_c, 1, 48, 127
2, 186200, Note_on_c, 1, 60, 127
2, 186200, Note_on_c, 1, 72, 127
2, 186200, Note_on_c, 1, 76, 127
2, 186240, Note_off_c, 1, 72, 0
2, 186280, Note_off_c, 1, 76, 0
2, 186320, Note_on_c, 1, 76, 127
2, 186360, Note_off_c, 1, 48, 0
2, 186360, Note_off_c, 1, 60, 0
2, 186360, Note_off_c, 1, 76, 0
2, 186400, Note_on_c, 1, 60, 127
2, 186400, Note_on_c, 1, 72, 127
2, 186440, Note_off_c, 1, 72, 0
2, 186480, Note_on_c, 1, 76, 127
2, 186560, Note_off_c, 1, 76, 0
2, 186600, Note_on_c, 1, 67, 127
2, 186600, Note_on_c, 1, 72, 127
2, 186600, Note_on_c, 1, 76, 127
2, 186640, Note_off_c, 1, 76, 0
2, 186720, Note_off_c, 1, 60, 0
2, 186720, Note_off_c, 1, 67, 0
2, 186720, Note_off_c, 1, 72, 0
2, 186800, Note_on_c, 1, 36, 127
2, 186800, Note_on_c, 1, 55, 127
2, 186800, Note_on_c, 1, 60, 127
2, 186800, Note_on_c, 1, 64, 127
2, 186800, Note_on_c, 1, 70, 127
2, 186840, Note_on_c, 1, 52, 127
2, 186840, Note_off_c, 1, 55, 0
2, 186840, Note_off_c, 1, 70, 0
2, 186880, Note_on_c, 1, 72, 127
2, 186920, Note_off_c, 1, 52, 0
2, 186920, Note_off_c, 1, 60, 0
2, 186920, Note_off_c, 1, 64, 0
2, 186960, Note_on_c, 1, 55, 127
2, 186960, Note_on_c, 1, 60, 127
2, 186960, Note_on_c, 1, 64, 127
2, 186960, Note_on_c, 1, 67, 127
2, 187000, Note_off_c, 1, 67, 0
2, 187080, Note_on_c, 1, 76, 127
2, 187120, Note_off_c, 1, 36, 0
2, 187120, Note_off_c, 1, 55, 0
2, 187120, Note_off_c, 1, 60, 0
2, 187120, Note_off_c, 1, 64, 0
2, 187120, Note_off_c, 1, 72, 0
2, 187120, Note_off_c, 1, 76, 0
2, 187160, Note_on_c, 1, 41, 127
2, 187160, Note_on_c, 1, 53, 127
2, 187160, Note_on_c, 1, 60, 127
2, 187160, Note_on_c, 1, 65, 127
2, 187160, Note_on_c, 1, 69, 127
2, 187200, Note_off_c, 1, 60, 0
2, 187200, Note_off_c, 1, 69, 0
2, 187200, Note_on_c, 1, 72, 127
2, 187240, Note_off_c, 1, 72, 0
2, 187280, Note_on_c, 1, 69, 127
2, 187280, Note_on_c, 1, 72, 127
2, 187320, Note_off_c, 1, 65, 0
2, 187320, Note_off_c, 1, 69, 0
2, 187320, Note_off_c, 1, 72, 0
2, 187320, Note_on_c, 1, 77, 127
2, 187360, Note_on_c, 1, 60, 127
2, 187360, Note_on_c, 1, 72, 127
2, 187400, Note_off_c, 1, 60, 0
2, 187400, Note_off_c, 1, 72, 0
2, 187400, Note_off_c, 1, 77, 0
2, 187440, Note_on_c, 1, 77, 127
2, 187520, Note_off_c, 1, 41, 0
2, 187520, Note_off_c, 1, 53, 0
2, 187520, Note_off_c, 1, 77, 0
2, 187560, Note_on_c, 1, 48, 127
2, 187560, Note_on_c, 1, 60, 127
2, 187560, Note_on_c, 1, 69, 127
2, 187560, Note_on_c, 1, 72, 127
2, 187560, Note_on_c, 1, 76, 127
2, 187680, Note_off_c, 1, 60, 0
2, 187680, Note_off_c, 1, 69, 0
2, 187680, Note_off_c, 1, 72, 0
2, 187680, Note_off_c, 1, 76, 0
2, 187760, Note_on_c, 1, 72, 127
2, 187800, Note_off_c, 1, 72, 0
2, 187840, Note_on_c, 1, 72, 127
2, 187880, Note_off_c, 1, 48, 0
2, 187880, Note_off_c, 1, 72, 0
2, 187920, Note_on_c, 1, 57, 127
2, 187920, Note_on_c, 1, 66, 127
2, 187920, Note_on_c, 1, 72, 127
2, 188000, Note_off_c, 1, 72, 0
2, 188040, Note_on_c, 1, 75, 127
2, 188080, Note_off_c, 1, 57, 0
2, 188080, Note_off_c, 1, 66, 0
2, 188080, Note_off_c, 1, 75, 0
2, 188120, Note_on_c, 1, 57, 127
2, 188120, Note_on_c, 1, 66, 127
2, 188120, Note_on_c, 1, 72, 127
2, 188120, Note_on_c, 1, 76, 127
2, 188280, Note_off_c, 1, 72, 0
2, 188280, Note_off_c, 1, 76, 0
2, 188320, Note_on_c, 1, 75, 127
2, 188320, Note_on_c, 1, 78, 127
2, 188480, Note_off_c, 1, 57, 0
2, 188480, Note_off_c, 1, 66, 0
2, 188480, Note_off_c, 1, 75, 0
2, 188480, Note_off_c, 1, 78, 0
2, 188520, Note_on_c, 1, 60, 127
2, 188520, Note_on_c, 1, 75, 127
2, 188520, Note_on_c, 1, 81, 127
2, 188640, Note_off_c, 1, 81, 0
2, 188720, Note_on_c, 1, 81, 127
2, 188760, Note_off_c, 1, 81, 0
2, 188800, Note_on_c, 1, 79, 127
2, 188840, Note_off_c, 1, 60, 0
2, 188840, Note_off_c, 1, 75, 0
2, 188840, Note_off_c, 1, 79, 0
2, 188880, Note_on_c, 1, 60, 127
2, 188880, Note_on_c, 1, 63, 127
2, 188880, Note_on_c, 1, 78, 127
2, 188880, Note_on_c, 1, 81, 127
2, 188880, Note_on_c, 1, 84, 127
2, 189040, Note_on_c, 1, 75, 127
2, 189040, Note_off_c, 1, 78, 0
2, 189040, Note_off_c, 1, 81, 0
2, 189040, Note_off_c, 1, 84, 0
2, 189080, Note_on_c, 1, 79, 127
2, 189080, Note_on_c, 1, 83, 127
2, 189120, Note_off_c, 1, 83, 0
2, 189240, Note_off_c, 1, 60, 0
2, 189240, Note_off_c, 1, 63, 0
2, 189240, Note_off_c, 1, 75, 0
2, 189240, Note_off_c, 1, 79, 0
2, 189280, Note_on_c, 1, 75, 127
2, 189280, Note_on_c, 1, 78, 127
2, 189280, Note_on_c, 1, 84, 127
2, 189440, Note_off_c, 1, 84, 0
2, 189480, Note_on_c, 1, 48, 127
2, 189480, Note_on_c, 1, 84, 127
2, 189600, Note_off_c, 1, 48, 0
2, 189600, Note_off_c, 1, 75, 0
2, 189600, Note_off_c, 1, 78, 0
2, 189600, Note_off_c, 1, 84, 0
2, 189680, Note_on_c, 1, 47, 127
2, 189680, Note_on_c, 1, 84, 127
2, 189720, Note_off_c, 1, 84, 0
2, 189760, Note_on_c, 1, 83, 127
2, 189800, Note_off_c, 1, 83, 0
2, 189840, Note_on_c, 1, 81, 127
2, 189920, Note_off_c, 1, 47, 0
2, 189920, Note_off_c, 1, 81, 0
2, 189960, Note_on_c, 1, 83, 127
2, 190000, Note_off_c, 1, 83, 0
2, 190040, Note_on_c, 1, 47, 127
2, 190040, Note_on_c, 1, 55, 127
2, 190040, Note_on_c, 1, 59, 127
2, 190040, Note_on_c, 1, 71, 127
2, 190040, Note_on_c, 1, 76, 127
2, 190040, Note_on_c, 1, 83, 127
2, 190240, Note_on_c, 1, 64, 127
2, 190280, Note_off_c, 1, 64, 0
2, 190320, Note_on_c, 1, 67, 127
2, 190400, Note_off_c, 1, 47, 0
2, 190400, Note_off_c, 1, 55, 0
2, 190400, Note_off_c, 1, 59, 0
2, 190400, Note_off_c, 1, 67, 0
2, 190400, Note_off_c, 1, 71, 0
2, 190400, Note_off_c, 1, 76, 0
2, 190440, Note_off_c, 1, 83, 0
2, 190480, Note_on_c, 1, 83, 127
2, 190560, Note_off_c, 1, 83, 0
2, 190640, Note_on_c, 1, 83, 127
2, 190680, Note_off_c, 1, 83, 0
2, 190720, Note_on_c, 1, 81, 127
2, 190760, Note_off_c, 1, 81, 0
2, 190800, Note_on_c, 1, 83, 127
2, 190960, Note_off_c, 1, 83, 0
2, 191000, Note_on_c, 1, 81, 127
2, 191040, Note_off_c, 1, 81, 0
2, 191120, Note_on_c, 1, 80, 127
2, 191160, Note_off_c, 1, 80, 0
2, 191200, Note_on_c, 1, 40, 127
2, 191200, Note_on_c, 1, 47, 127
2, 191200, Note_on_c, 1, 52, 127
2, 191200, Note_on_c, 1, 76, 127
2, 191200, Note_on_c, 1, 80, 127
2, 191200, Note_on_c, 1, 83, 127
2, 191200, Note_on_c, 1, 88, 127
2, 191240, Note_off_c, 1, 76, 0
2, 191280, Note_on_c, 1, 71, 127
2, 191520, Note_off_c, 1, 40, 0
2, 191520, Note_off_c, 1, 47, 0
2, 191520, Note_off_c, 1, 71, 0
2, 191520, Note_off_c, 1, 80, 0
2, 191520, Note_off_c, 1, 88, 0
2, 191560, Note_off_c, 1, 83, 0
2, 191600, Note_off_c, 1, 52, 0
2, 191600, Note_on_c, 1, 71, 127
2, 191680, Note_off_c, 1, 71, 0
2, 191720, Note_on_c, 1, 76, 127
2, 191800, Note_off_c, 1, 76, 0
2, 191880, Note_on_c, 1, 80, 127
2, 192000, Note_off_c, 1, 80, 0
2, 192040, Note_on_c, 1, 83, 127
2, 192200, Note_off_c, 1, 83, 0
2, 192240, Note_on_c, 1, 87, 127
2, 192400, Note_off_c, 1, 87, 0
2, 192440, Note_on_c, 1, 88, 127
2, 192600, Note_off_c, 1, 88, 0
2, 192640, Note_on_c, 1, 88, 127
2, 192680, Note_on_c, 1, 87, 127
2, 192680, Note_off_c, 1, 88, 0
2, 192760, Note_off_c, 1, 87, 0
2, 192840, Note_on_c, 1, 35, 127
2, 192840, Note_on_c, 1, 49, 127
2, 192840, Note_on_c, 1, 88, 127
2, 192960, Note_off_c, 1, 49, 0
2, 193120, Note_off_c, 1, 35, 0
2, 193120, Note_off_c, 1, 88, 0
2, 193200, Note_on_c, 1, 71, 127
2, 193200, Note_on_c, 1, 75, 127
2, 193360, Note_off_c, 1, 71, 0
2, 193360, Note_off_c, 1, 75, 0
2, 193400, Note_on_c, 1, 69, 127
2, 193560, Note_off_c, 1, 69, 0
2, 193600, Note_on_c, 1, 36, 127
2, 193600, Note_on_c, 1, 48, 127
2, 193600, Note_on_c, 1, 79, 127
2, 193720, Note_off_c, 1, 48, 0
2, 193720, Note_off_c, 1, 79, 0
2, 193800, Note_on_c, 1, 72, 127
2, 193920, Note_off_c, 1, 36, 0
2, 193920, Note_off_c, 1, 72, 0
2, 193960, Note_on_c, 1, 83, 127
2, 194080, Note_off_c, 1, 83, 0
2, 194160, Note_on_c, 1, 88, 127
2, 194280, Note_off_c, 1, 88, 0
2, 194320, Note_on_c, 1, 45, 127
2, 194320, Note_on_c, 1, 57, 127
2, 194320, Note_on_c, 1, 87, 127
2, 194480, Note_off_c, 1, 87, 0
2, 194520, Note_on_c, 1, 86, 127
2, 194680, Note_off_c, 1, 45, 0
2, 194680, Note_off_c, 1, 57, 0
2, 194680, Note_off_c, 1, 86, 0
2, 194720, Note_on_c, 1, 45, 127
2, 194720, Note_on_c, 1, 57, 127
2, 194720, Note_on_c, 1, 83, 127
2, 194880, Note_off_c, 1, 83, 0
2, 194920, Note_on_c, 1, 83, 127
2, 195040, Note_off_c, 1, 45, 0
2, 195040, Note_off_c, 1, 57, 0
2, 195040, Note_off_c, 1, 83, 0
2, 195120, Note_on_c, 1, 47, 127
2, 195120, Note_on_c, 1, 59, 127
2, 195120, Note_on_c, 1, 69, 127
2, 195120, Note_on_c, 1, 72, 127
2, 195120, Note_on_c, 1, 78, 127
2, 195120, Note_on_c, 1, 81, 127
2, 195240, Note_off_c, 1, 47, 0
2, 195280, Note_off_c, 1, 78, 0
2, 195280, Note_on_c, 1, 86, 127
2, 195360, Note_on_c, 1, 84, 127
2, 195360, Note_off_c, 1, 86, 0
2, 195400, Note_off_c, 1, 59, 0
2, 195400, Note_on_c, 1, 60, 127
2, 195440, Note_off_c, 1, 60, 0
2, 195440, Note_off_c, 1, 84, 0
2, 195480, Note_on_c, 1, 47, 127
2, 195480, Note_on_c, 1, 59, 127
2, 195600, Note_off_c, 1, 47, 0
2, 195600, Note_off_c, 1, 81, 0
2, 195680, Note_on_c, 1, 83, 127
2, 195840, Note_off_c, 1, 59, 0
2, 195840, Note_off_c, 1, 72, 0
2, 195840, Note_off_c, 1, 83, 0
2, 195880, Note_on_c, 1, 48, 127
2, 195880, Note_on_c, 1, 71, 127
2, 195880, Note_on_c, 1, 74, 127
2, 195880, Note_on_c, 1, 81, 127
2, 196000, Note_off_c, 1, 48, 0
2, 196080, Note_on_c, 1, 60, 127
2, 196080, Note_off_c, 1, 81, 0
2, 196200, Note_off_c, 1, 60, 0
2, 196200, Note_off_c, 1, 69, 0
2, 196200, Note_off_c, 1, 71, 0
2, 196200, Note_off_c, 1, 74, 0
2, 196240, Note_on_c, 1, 50, 127
2, 196240, Note_on_c, 1, 62, 127
2, 196240, Note_on_c, 1, 66, 127
2, 196240, Note_on_c, 1, 69, 127
2, 196240, Note_on_c, 1, 72, 127
2, 196240, Note_on_c, 1, 81, 127
2, 196400, Note_off_c, 1, 50, 0
2, 196600, Note_off_c, 1, 62, 0
2, 196600, Note_off_c, 1, 66, 0
2, 196600, Note_off_c, 1, 69, 0
2, 196600, Note_off_c, 1, 72, 0
2, 196600, Note_off_c, 1, 81, 0
2, 196640, Note_on_c, 1, 38, 127
2, 196640, Note_on_c, 1, 50, 127
2, 196640, Note_on_c, 1, 66, 127
2, 196640, Note_on_c, 1, 72, 127
2, 196800, Note_off_c, 1, 50, 0
2, 196840, Note_on_c, 1, 62, 127
2, 196840, Note_on_c, 1, 69, 127
2, 196960, Note_off_c, 1, 38, 0
2, 196960, Note_off_c, 1, 62, 0
2, 196960, Note_off_c, 1, 69, 0
2, 196960, Note_off_c, 1, 72, 0
2, 197040, Note_on_c, 1, 50, 127
2, 197040, Note_on_c, 1, 62, 127
2, 197040, Note_on_c, 1, 69, 127
2, 197040, Note_on_c, 1, 81, 127
2, 197160, Note_off_c, 1, 50, 0
2, 197360, Note_off_c, 1, 62, 0
2, 197360, Note_off_c, 1, 66, 0
2, 197360, Note_off_c, 1, 69, 0
2, 197360, Note_off_c, 1, 81, 0
2, 197400, Note_on_c, 1, 64, 127
2, 197400, Note_on_c, 1, 74, 127
2, 197400, Note_on_c, 1, 81, 127
2, 197560, Note_off_c, 1, 81, 0
2, 197600, Note_on_c, 1, 62, 127
2, 197600, Note_on_c, 1, 79, 127
2, 197760, Note_off_c, 1, 62, 0
2, 197760, Note_off_c, 1, 64, 0
2, 197760, Note_off_c, 1, 74, 0
2, 197760, Note_off_c, 1, 79, 0
2, 197800, Note_on_c, 1, 60, 127
2, 197800, Note_on_c, 1, 76, 127
2, 198000, Note_on_c, 1, 64, 127
2, 198000, Note_on_c, 1, 81, 127
2, 198120, Note_off_c, 1, 60, 0
2, 198120, Note_off_c, 1, 64, 0
2, 198120, Note_off_c, 1, 76, 0
2, 198120, Note_off_c, 1, 81, 0
2, 198160, Note_on_c, 1, 59, 127
2, 198160, Note_on_c, 1, 76, 127
2, 198160, Note_on_c, 1, 81, 127
2, 198200, Note_on_c, 1, 74, 127
2, 198200, Note_off_c, 1, 76, 0
2, 198320, Note_off_c, 1, 74, 0
2, 198360, Note_on_c, 1, 60, 127
2, 198360, Note_on_c, 1, 76, 127
2, 198520, Note_off_c, 1, 59, 0
2, 198520, Note_off_c, 1, 60, 0
2, 198520, Note_off_c, 1, 76, 0
2, 198560, Note_on_c, 1, 59, 127
2, 198560, Note_on_c, 1, 79, 127
2, 198720, Note_off_c, 1, 59, 0
2, 198720, Note_off_c, 1, 79, 0
2, 198760, Note_on_c, 1, 55, 127
2, 198760, Note_on_c, 1, 78, 127
2, 198880, Note_off_c, 1, 55, 0
2, 198880, Note_off_c, 1, 78, 0
2, 198880, Note_off_c, 1, 81, 0
2, 198960, Note_on_c, 1, 60, 127
2, 198960, Note_on_c, 1, 76, 127
2, 198960, Note_on_c, 1, 79, 127
2, 198960, Note_on_c, 1, 82, 127
2, 199320, Note_on_c, 1, 52, 127
2, 199320, Note_on_c, 1, 67, 127
2, 199480, Note_off_c, 1, 67, 0
2, 199680, Note_off_c, 1, 52, 0
2, 199680, Note_off_c, 1, 76, 0
2, 199680, Note_off_c, 1, 79, 0
2, 199720, Note_on_c, 1, 50, 127
2, 199720, Note_on_c, 1, 65, 127
2, 199720, Note_on_c, 1, 77, 127
2, 199720, Note_on_c, 1, 81, 127
2, 199840, Note_off_c, 1, 65, 0
2, 199840, Note_off_c, 1, 77, 0
2, 199840, Note_off_c, 1, 81, 0
2, 199920, Note_on_c, 1, 76, 127
2, 199920, Note_on_c, 1, 79, 127
2, 200040, Note_off_c, 1, 76, 0
2, 200040, Note_off_c, 1, 79, 0
2, 200080, Note_on_c, 1, 72, 127
2, 200080, Note_on_c, 1, 76, 127
2, 200080, Note_on_c, 1, 81, 127
2, 200120, Note_on_c, 1, 79, 127
2, 200120, Note_off_c, 1, 81, 0
2, 200240, Note_off_c, 1, 72, 0
2, 200240, Note_off_c, 1, 76, 0
2, 200240, Note_off_c, 1, 79, 0
2, 200240, Note_off_c, 1, 82, 0
2, 200240, Note_on_c, 1, 84, 127
2, 200280, Note_on_c, 1, 77, 127
2, 200280, Note_on_c, 1, 79, 127
2, 200280, Note_on_c, 1, 82, 127
2, 200280, Note_off_c, 1, 84, 0
2, 200440, Note_off_c, 1, 50, 0
2, 200440, Note_off_c, 1, 60, 0
2, 200440, Note_off_c, 1, 77, 0
2, 200440, Note_off_c, 1, 79, 0
2, 200440, Note_off_c, 1, 82, 0
2, 200480, Note_on_c, 1, 72, 127
2, 200640, Note_off_c, 1, 72, 0
2, 200680, Note_on_c, 1, 69, 127
2, 200800, Note_off_c, 1, 69, 0
2, 200880, Note_on_c, 1, 43, 127
2, 200880, Note_on_c, 1, 55, 127
2, 200880, Note_on_c, 1, 71, 127
2, 200880, Note_on_c, 1, 82, 127
2, 200880, Note_on_c, 1, 86, 127
2, 201000, Note_off_c, 1, 82, 0
2, 201000, Note_on_c, 1, 83, 127
2, 201040, Note_on_c, 1, 74, 127
2, 201200, Note_off_c, 1, 74, 0
2, 201240, Note_on_c, 1, 76, 127
2, 201400, Note_off_c, 1, 55, 0
2, 201440, Note_on_c, 1, 62, 127
2, 201440, Note_on_c, 1, 74, 127
2, 201440, Note_off_c, 1, 76, 0
2, 201600, Note_off_c, 1, 43, 0
2, 201600, Note_off_c, 1, 62, 0
2, 201600, Note_off_c, 1, 71, 0
2, 201600, Note_off_c, 1, 74, 0
2, 201600, Note_off_c, 1, 83, 0
2, 201600, Note_off_c, 1, 86, 0
2, 201640, Note_on_c, 1, 67, 127
2, 201960, Note_off_c, 1, 67, 0
2, 202000, Note_on_c, 1, 59, 127
2, 202000, Note_on_c, 1, 62, 127
2, 202000, Note_on_c, 1, 74, 127
2, 202000, Note_on_c, 1, 79, 127
2, 202000, Note_on_c, 1, 83, 127
2, 202000, Note_on_c, 1, 89, 127
2, 202080, Note_on_c, 1, 86, 127
2, 202360, Note_off_c, 1, 59, 0
2, 202360, Note_off_c, 1, 62, 0
2, 202360, Note_off_c, 1, 74, 0
2, 202360, Note_off_c, 1, 79, 0
2, 202360, Note_off_c, 1, 83, 0
2, 202360, Note_off_c, 1, 86, 0
2, 202360, Note_off_c, 1, 89, 0
2, 202400, Note_on_c, 1, 45, 127
2, 202400, Note_on_c, 1, 57, 127
2, 202720, Note_off_c, 1, 45, 0
2, 202720, Note_off_c, 1, 57, 0
2, 202800, Note_on_c, 1, 43, 127
2, 202800, Note_on_c, 1, 55, 127
2, 202800, Note_on_c, 1, 59, 127
2, 202800, Note_on_c, 1, 62, 127
2, 202800, Note_on_c, 1, 79, 127
2, 202800, Note_on_c, 1, 83, 127
2, 202800, Note_on_c, 1, 88, 127
2, 202800, Note_on_c, 1, 91, 127
2, 203120, Note_off_c, 1, 43, 0
2, 203120, Note_off_c, 1, 55, 0
2, 203120, Note_off_c, 1, 59, 0
2, 203120, Note_off_c, 1, 62, 0
2, 203120, Note_off_c, 1, 79, 0
2, 203120, Note_off_c, 1, 83, 0
2, 203120, Note_off_c, 1, 88, 0
2, 203120, Note_off_c, 1, 91, 0
2, 203160, Note_on_c, 1, 72, 127
2, 203160, Note_on_c, 1, 84, 127
2, 203160, Note_on_c, 1, 88, 127
2, 203320, Note_off_c, 1, 72, 0
2, 203320, Note_on_c, 1, 91, 127
2, 203360, Note_off_c, 1, 84, 0
2, 203360, Note_off_c, 1, 88, 0
2, 203360, Note_off_c, 1, 91, 0
2, 203480, Note_on_c, 1, 79, 127
2, 203480, Note_on_c, 1, 88, 127
2, 203520, Note_off_c, 1, 79, 0
2, 203520, Note_off_c, 1, 88, 0
2, 203560, Note_on_c, 1, 64, 127
2, 203560, Note_on_c, 1, 79, 127
2, 203560, Note_on_c, 1, 84, 127
2, 203560, Note_on_c, 1, 91, 127
2, 203880, Note_off_c, 1, 64, 0
2, 203880, Note_off_c, 1, 79, 0
2, 203880, Note_off_c, 1, 84, 0
2, 203880, Note_off_c, 1, 91, 0
2, 203960, Note_on_c, 1, 48, 127
2, 203960, Note_on_c, 1, 60, 127
2, 203960, Note_on_c, 1, 72, 127
2, 203960, Note_on_c, 1, 81, 127
2, 204080, Note_on_c, 1, 84, 127
2, 204280, Note_off_c, 1, 48, 0
2, 204280, Note_off_c, 1, 60, 0
2, 204280, Note_off_c, 1, 72, 0
2, 204280, Note_off_c, 1, 81, 0
2, 204280, Note_off_c, 1, 84, 0
2, 205280, Note_on_c, 1, 74, 127
2, 205280, Note_on_c, 1, 83, 127
2, 205440, Note_off_c, 1, 74, 0
2, 205440, Note_off_c, 1, 83, 0
2, 205480, Note_on_c, 1, 71, 127
2, 205480, Note_on_c, 1, 79, 127
2, 205520, Note_off_c, 1, 71, 0
2, 205520, Note_off_c, 1, 79, 0
2, 205680, Note_on_c, 1, 71, 127
2, 205680, Note_on_c, 1, 79, 127
2, 205720, Note_off_c, 1, 71, 0
2, 205720, Note_off_c, 1, 79, 0
2, 205880, Note_on_c, 1, 73, 127
2, 205880, Note_on_c, 1, 81, 127
2, 205920, Note_off_c, 1, 73, 0
2, 205920, Note_off_c, 1, 81, 0
2, 206040, Note_on_c, 1, 74, 127
2, 206040, Note_on_c, 1, 83, 127
2, 206120, Note_off_c, 1, 74, 0
2, 206120, Note_off_c, 1, 83, 0
2, 206240, Note_on_c, 1, 73, 127
2, 206240, Note_on_c, 1, 81, 127
2, 206280, Note_off_c, 1, 73, 0
2, 206280, Note_off_c, 1, 81, 0
2, 206440, Note_on_c, 1, 71, 127
2, 206440, Note_on_c, 1, 79, 127
2, 206480, Note_off_c, 1, 71, 0
2, 206480, Note_off_c, 1, 79, 0
2, 206640, Note_on_c, 1, 69, 127
2, 206640, Note_on_c, 1, 78, 127
2, 206680, Note_off_c, 1, 69, 0
2, 206680, Note_off_c, 1, 78, 0
2, 206840, Note_on_c, 1, 71, 127
2, 206840, Note_on_c, 1, 79, 127
2, 206880, Note_off_c, 1, 71, 0
2, 206880, Note_off_c, 1, 79, 0
2, 207000, Note_on_c, 1, 69, 127
2, 207000, Note_on_c, 1, 76, 127
2, 207080, Note_off_c, 1, 69, 0
2, 207080, Note_off_c, 1, 76, 0
2, 207200, Note_on_c, 1, 42, 127
2, 207200, Note_on_c, 1, 67, 127
2, 207200, Note_on_c, 1, 74, 127
2, 207200, Note_on_c, 1, 81, 127
2, 207320, Note_on_c, 1, 62, 127
2, 207360, Note_off_c, 1, 42, 0
2, 207360, Note_off_c, 1, 62, 0
2, 207360, Note_off_c, 1, 67, 0
2, 207360, Note_off_c, 1, 74, 0
2, 207360, Note_off_c, 1, 81, 0
2, 207400, Note_on_c, 1, 33, 127
2, 207400, Note_on_c, 1, 45, 127
2, 207400, Note_on_c, 1, 73, 127
2, 207400, Note_on_c, 1, 81, 127
2, 207440, Note_off_c, 1, 73, 0
2, 207440, Note_off_c, 1, 81, 0
2, 207480, Note_on_c, 1, 71, 127
2, 207560, Note_off_c, 1, 71, 0
2, 207600, Note_on_c, 1, 64, 127
2, 207600, Note_on_c, 1, 76, 127
2, 207720, Note_off_c, 1, 64, 0
2, 207720, Note_off_c, 1, 76, 0
2, 207800, Note_on_c, 1, 76, 127
2, 207920, Note_off_c, 1, 76, 0
2, 207960, Note_on_c, 1, 76, 127
2, 208120, Note_off_c, 1, 76, 0
2, 208160, Note_on_c, 1, 76, 127
2, 208320, Note_off_c, 1, 33, 0
2, 208320, Note_off_c, 1, 45, 0
2, 208320, Note_off_c, 1, 76, 0
2, 208360, Note_on_c, 1, 76, 127
2, 208560, Note_on_c, 1, 67, 127
2, 208760, Note_on_c, 1, 65, 127
2, 208880, Note_off_c, 1, 65, 0
2, 208920, Note_on_c, 1, 64, 127
2, 209080, Note_off_c, 1, 64, 0
2, 209120, Note_on_c, 1, 61, 127
2, 209280, Note_off_c, 1, 61, 0
2, 209280, Note_off_c, 1, 67, 0
2, 209280, Note_off_c, 1, 76, 0
2, 209320, Note_on_c, 1, 58, 127
2, 209480, Note_off_c, 1, 58, 0
2, 209520, Note_on_c, 1, 61, 127
2, 209640, Note_off_c, 1, 61, 0
2, 209720, Note_on_c, 1, 59, 127
2, 209840, Note_off_c, 1, 59, 0
2, 209880, Note_on_c, 1, 62, 127
2, 210040, Note_off_c, 1, 62, 0
2, 210080, Note_on_c, 1, 57, 127
2, 210080, Note_on_c, 1, 78, 127
2, 210240, Note_off_c, 1, 57, 0
2, 210240, Note_off_c, 1, 78, 0
2, 210280, Note_on_c, 1, 65, 127
2, 210280, Note_on_c, 1, 69, 127
2, 210440, Note_off_c, 1, 65, 0
2, 210440, Note_off_c, 1, 69, 0
2, 210480, Note_on_c, 1, 62, 127
2, 210480, Note_on_c, 1, 67, 127
2, 210480, Note_on_c, 1, 71, 127
2, 210640, Note_off_c, 1, 62, 0
2, 210680, Note_on_c, 1, 66, 127
2, 210720, Note_off_c, 1, 66, 0
2, 210760, Note_on_c, 1, 62, 127
2, 210800, Note_off_c, 1, 62, 0
2, 210800, Note_off_c, 1, 67, 0
2, 210800, Note_off_c, 1, 71, 0
2, 210880, Note_on_c, 1, 62, 127
2, 210880, Note_on_c, 1, 66, 127
2, 210880, Note_on_c, 1, 71, 127
2, 210920, Note_off_c, 1, 62, 0
2, 210960, Note_on_c, 1, 61, 127
2, 211000, Note_off_c, 1, 61, 0
2, 211040, Note_on_c, 1, 59, 127
2, 211120, Note_off_c, 1, 59, 0
2, 211160, Note_on_c, 1, 57, 127
2, 211200, Note_off_c, 1, 66, 0
2, 211200, Note_off_c, 1, 71, 0
2, 211240, Note_on_c, 1, 54, 127
2, 211240, Note_off_c, 1, 57, 0
2, 211240, Note_on_c, 1, 66, 127
2, 211240, Note_on_c, 1, 69, 127
2, 211240, Note_on_c, 1, 74, 127
2, 211280, Note_off_c, 1, 54, 0
2, 211360, Note_on_c, 1, 57, 127
2, 211400, Note_off_c, 1, 57, 0
2, 211400, Note_off_c, 1, 66, 0
2, 211400, Note_off_c, 1, 74, 0
2, 211440, Note_on_c, 1, 54, 127
2, 211440, Note_off_c, 1, 69, 0
2, 211440, Note_on_c, 1, 71, 127
2, 211480, Note_off_c, 1, 54, 0
2, 211520, Note_on_c, 1, 62, 127
2, 211600, Note_off_c, 1, 62, 0
2, 211600, Note_off_c, 1, 71, 0
2, 211640, Note_on_c, 1, 50, 127
2, 211640, Note_on_c, 1, 67, 127
2, 211640, Note_on_c, 1, 73, 127
2, 211640, Note_on_c, 1, 76, 127
2, 211680, Note_off_c, 1, 50, 0
2, 211720, Note_on_c, 1, 61, 127
2, 211760, Note_off_c, 1, 61, 0
2, 211840, Note_on_c, 1, 59, 127
2, 211880, Note_off_c, 1, 59, 0
2, 211920, Note_on_c, 1, 61, 127
2, 211960, Note_off_c, 1, 61, 0
2, 211960, Note_off_c, 1, 67, 0
2, 211960, Note_off_c, 1, 73, 0
2, 211960, Note_off_c, 1, 76, 0
2, 212000, Note_on_c, 1, 50, 127
2, 212000, Note_on_c, 1, 66, 127
2, 212000, Note_on_c, 1, 69, 127
2, 212000, Note_on_c, 1, 74, 127
2, 212080, Note_off_c, 1, 50, 0
2, 212120, Note_on_c, 1, 57, 127
2, 212160, Note_off_c, 1, 57, 0
2, 212200, Note_on_c, 1, 54, 127
2, 212240, Note_off_c, 1, 54, 0
2, 212320, Note_on_c, 1, 57, 127
2, 212360, Note_off_c, 1, 57, 0
2, 212360, Note_off_c, 1, 66, 0
2, 212360, Note_off_c, 1, 69, 0
2, 212360, Note_off_c, 1, 74, 0
2, 212400, Note_on_c, 1, 50, 127
2, 212400, Note_on_c, 1, 67, 127
2, 212400, Note_on_c, 1, 74, 127
2, 212440, Note_off_c, 1, 50, 0
2, 212480, Note_on_c, 1, 57, 127
2, 212560, Note_off_c, 1, 57, 0
2, 212560, Note_off_c, 1, 67, 0
2, 212560, Note_off_c, 1, 74, 0
2, 212600, Note_on_c, 1, 50, 127
2, 212600, Note_on_c, 1, 67, 127
2, 212600, Note_on_c, 1, 74, 127
2, 212640, Note_off_c, 1, 50, 0
2, 212680, Note_on_c, 1, 59, 127
2, 212720, Note_off_c, 1, 59, 0
2, 212720, Note_off_c, 1, 67, 0
2, 212720, Note_off_c, 1, 74, 0
2, 212800, Note_on_c, 1, 50, 127
2, 212800, Note_on_c, 1, 69, 127
2, 212800, Note_on_c, 1, 74, 127
2, 212840, Note_off_c, 1, 50, 0
2, 212880, Note_on_c, 1, 60, 127
2, 212920, Note_off_c, 1, 60, 0
2, 212960, Note_on_c, 1, 54, 127
2, 213040, Note_off_c, 1, 54, 0
2, 213080, Note_on_c, 1, 60, 127
2, 213120, Note_off_c, 1, 60, 0
2, 213120, Note_off_c, 1, 69, 0
2, 213120, Note_off_c, 1, 74, 0
2, 213160, Note_on_c, 1, 54, 127
2, 213160, Note_on_c, 1, 69, 127
2, 213160, Note_on_c, 1, 74, 127
2, 213200, Note_off_c, 1, 54, 0
2, 213280, Note_on_c, 1, 57, 127
2, 213320, Note_off_c, 1, 57, 0
2, 213360, Note_on_c, 1, 62, 127
2, 213400, Note_off_c, 1, 62, 0
2, 213440, Note_on_c, 1, 60, 127
2, 213520, Note_off_c, 1, 60, 0
2, 213520, Note_off_c, 1, 69, 0
2, 213520, Note_off_c, 1, 74, 0
2, 213560, Note_on_c, 1, 54, 127
2, 213560, Note_on_c, 1, 70, 127
2, 213560, Note_on_c, 1, 74, 127
2, 213560, Note_on_c, 1, 79, 127
2, 213600, Note_off_c, 1, 54, 0
2, 213640, Note_on_c, 1, 62, 127
2, 213680, Note_off_c, 1, 62, 0
2, 213760, Note_on_c, 1, 55, 127
2, 213800, Note_off_c, 1, 55, 0
2, 213840, Note_on_c, 1, 62, 127
2, 213880, Note_off_c, 1, 62, 0
2, 213880, Note_off_c, 1, 70, 0
2, 213880, Note_off_c, 1, 74, 0
2, 213880, Note_off_c, 1, 79, 0
2, 213920, Note_on_c, 1, 50, 127
2, 213920, Note_on_c, 1, 70, 127
2, 213920, Note_on_c, 1, 74, 127
2, 213920, Note_on_c, 1, 82, 127
2, 214000, Note_off_c, 1, 50, 0
2, 214040, Note_on_c, 1, 62, 127
2, 214080, Note_off_c, 1, 62, 0
2, 214080, Note_off_c, 1, 70, 0
2, 214080, Note_off_c, 1, 74, 0
2, 214080, Note_off_c, 1, 82, 0
2, 214120, Note_on_c, 1, 54, 127
2, 214120, Note_on_c, 1, 70, 127
2, 214120, Note_on_c, 1, 74, 127
2, 214160, Note_off_c, 1, 54, 0
2, 214240, Note_on_c, 1, 62, 127
2, 214280, Note_off_c, 1, 62, 0
2, 214320, Note_on_c, 1, 58, 127
2, 214360, Note_off_c, 1, 58, 0
2, 214400, Note_on_c, 1, 62, 127
2, 214480, Note_off_c, 1, 62, 0
2, 214480, Note_off_c, 1, 70, 0
2, 214480, Note_off_c, 1, 74, 0
2, 214520, Note_on_c, 1, 51, 127
2, 214520, Note_on_c, 1, 62, 127
2, 214520, Note_on_c, 1, 66, 127
2, 214520, Note_on_c, 1, 70, 127
2, 214520, Note_on_c, 1, 73, 127
2, 214560, Note_off_c, 1, 51, 0
2, 214600, Note_on_c, 1, 58, 127
2, 214640, Note_off_c, 1, 58, 0
2, 214680, Note_off_c, 1, 73, 0
2, 214720, Note_on_c, 1, 53, 127
2, 214760, Note_off_c, 1, 53, 0
2, 214840, Note_off_c, 1, 62, 0
2, 214840, Note_off_c, 1, 66, 0
2, 214840, Note_off_c, 1, 70, 0
2, 214880, Note_on_c, 1, 46, 127
2, 214960, Note_off_c, 1, 46, 0
2, 215000, Note_on_c, 1, 58, 127
2, 215040, Note_off_c, 1, 58, 0
2, 215080, Note_on_c, 1, 50, 127
2, 215120, Note_off_c, 1, 50, 0
2, 215200, Note_on_c, 1, 58, 127
2, 215240, Note_off_c, 1, 58, 0
2, 215280, Note_on_c, 1, 51, 127
2, 215280, Note_on_c, 1, 82, 127
2, 215320, Note_off_c, 1, 51, 0
2, 215360, Note_on_c, 1, 55, 127
2, 215440, Note_off_c, 1, 55, 0
2, 215440, Note_off_c, 1, 82, 0
2, 215480, Note_on_c, 1, 82, 127
2, 215520, Note_off_c, 1, 82, 0
2, 215560, Note_on_c, 1, 51, 127
2, 215560, Note_on_c, 1, 79, 127
2, 215600, Note_off_c, 1, 51, 0
2, 215600, Note_off_c, 1, 79, 0
2, 215680, Note_on_c, 1, 50, 127
2, 215680, Note_on_c, 1, 81, 127
2, 215720, Note_off_c, 1, 50, 0
2, 215720, Note_off_c, 1, 81, 0
2, 215760, Note_on_c, 1, 82, 127
2, 215800, Note_off_c, 1, 82, 0
2, 215840, Note_on_c, 1, 54, 127
2, 215840, Note_on_c, 1, 81, 127
2, 215920, Note_off_c, 1, 54, 0
2, 215920, Note_off_c, 1, 81, 0
2, 215960, Note_on_c, 1, 79, 127
2, 216000, Note_off_c, 1, 79, 0
2, 216040, Note_on_c, 1, 50, 127
2, 216040, Note_on_c, 1, 62, 127
2, 216040, Note_on_c, 1, 66, 127
2, 216040, Note_on_c, 1, 69, 127
2, 216040, Note_on_c, 1, 78, 127
2, 216080, Note_off_c, 1, 78, 0
2, 216160, Note_on_c, 1, 75, 127
2, 216200, Note_off_c, 1, 50, 0
2, 216200, Note_off_c, 1, 62, 0
2, 216200, Note_off_c, 1, 66, 0
2, 216200, Note_off_c, 1, 69, 0
2, 216200, Note_off_c, 1, 75, 0
2, 216240, Note_on_c, 1, 70, 127
2, 216280, Note_off_c, 1, 70, 0
2, 216320, Note_on_c, 1, 72, 127
2, 216400, Note_off_c, 1, 72, 0
2, 216440, Note_on_c, 1, 46, 127
2, 216440, Note_on_c, 1, 58, 127
2, 216440, Note_on_c, 1, 62, 127
2, 216440, Note_on_c, 1, 65, 127
2, 216440, Note_on_c, 1, 67, 127
2, 216440, Note_on_c, 1, 70, 127
2, 216440, Note_on_c, 1, 74, 127
2, 216480, Note_off_c, 1, 74, 0
2, 216520, Note_on_c, 1, 77, 127
2, 216560, Note_off_c, 1, 77, 0
2, 216640, Note_on_c, 1, 79, 127
2, 216680, Note_off_c, 1, 79, 0
2, 216720, Note_on_c, 1, 77, 127
2, 216760, Note_off_c, 1, 46, 0
2, 216760, Note_off_c, 1, 58, 0
2, 216760, Note_off_c, 1, 62, 0
2, 216760, Note_off_c, 1, 65, 0
2, 216760, Note_off_c, 1, 67, 0
2, 216760, Note_off_c, 1, 70, 0
2, 216760, Note_off_c, 1, 77, 0
2, 216800, Note_on_c, 1, 77, 127
2, 216880, Note_off_c, 1, 77, 0
2, 216920, Note_on_c, 1, 74, 127
2, 216960, Note_off_c, 1, 74, 0
2, 217000, Note_on_c, 1, 76, 127
2, 217040, Note_off_c, 1, 76, 0
2, 217120, Note_on_c, 1, 74, 127
2, 217160, Note_off_c, 1, 74, 0
2, 217200, Note_on_c, 1, 46, 127
2, 217200, Note_on_c, 1, 58, 127
2, 217200, Note_on_c, 1, 62, 127
2, 217200, Note_on_c, 1, 65, 127
2, 217200, Note_on_c, 1, 67, 127
2, 217200, Note_on_c, 1, 70, 127
2, 217200, Note_on_c, 1, 74, 127
2, 217240, Note_off_c, 1, 74, 0
2, 217360, Note_off_c, 1, 65, 0
2, 217400, Note_off_c, 1, 67, 0
2, 217400, Note_on_c, 1, 68, 127
2, 217400, Note_off_c, 1, 70, 0
2, 217440, Note_on_c, 1, 67, 127
2, 217440, Note_off_c, 1, 68, 0
2, 217480, Note_on_c, 1, 74, 127
2, 217520, Note_off_c, 1, 46, 0
2, 217520, Note_off_c, 1, 62, 0
2, 217520, Note_off_c, 1, 67, 0
2, 217520, Note_off_c, 1, 74, 0
2, 217600, Note_on_c, 1, 46, 127
2, 217600, Note_on_c, 1, 65, 127
2, 217600, Note_on_c, 1, 70, 127
2, 217600, Note_on_c, 1, 74, 127
2, 217720, Note_off_c, 1, 65, 0
2, 217760, Note_on_c, 1, 62, 127
2, 217840, Note_off_c, 1, 70, 0
2, 217840, Note_off_c, 1, 74, 0
2, 217880, Note_on_c, 1, 68, 127
2, 217880, Note_on_c, 1, 70, 127
2, 217920, Note_off_c, 1, 46, 0
2, 217920, Note_off_c, 1, 58, 0
2, 217920, Note_off_c, 1, 62, 0
2, 217920, Note_off_c, 1, 68, 0
2, 217920, Note_off_c, 1, 70, 0
2, 217960, Note_on_c, 1, 51, 127
2, 217960, Note_on_c, 1, 63, 127
2, 217960, Note_on_c, 1, 67, 127
2, 217960, Note_on_c, 1, 70, 127
2, 218120, Note_off_c, 1, 51, 0
2, 218120, Note_off_c, 1, 63, 0
2, 218120, Note_off_c, 1, 67, 0
2, 218120, Note_off_c, 1, 70, 0
2, 218160, Note_on_c, 1, 74, 127
2, 218200, Note_off_c, 1, 74, 0
2, 218360, Note_on_c, 1, 39, 127
2, 218360, Note_on_c, 1, 51, 127
2, 218360, Note_on_c, 1, 67, 127
2, 218360, Note_on_c, 1, 72, 127
2, 218360, Note_on_c, 1, 75, 127
2, 218400, Note_off_c, 1, 75, 0
2, 218680, Note_off_c, 1, 39, 0
2, 218680, Note_off_c, 1, 51, 0
2, 218680, Note_off_c, 1, 67, 0
2, 218680, Note_off_c, 1, 72, 0
2, 218720, Note_on_c, 1, 39, 127
2, 218720, Note_on_c, 1, 51, 127
2, 218720, Note_on_c, 1, 63, 127
2, 218720, Note_on_c, 1, 74, 127
2, 219320, Note_on_c, 1, 70, 127
2, 219360, Note_off_c, 1, 70, 0
2, 219360, Note_off_c, 1, 74, 0
2, 219400, Note_on_c, 1, 68, 127
2, 219400, Note_on_c, 1, 75, 127
2, 219440, Note_off_c, 1, 39, 0
2, 219440, Note_off_c, 1, 51, 0
2, 219440, Note_off_c, 1, 63, 0
2, 219440, Note_off_c, 1, 68, 0
2, 219440, Note_off_c, 1, 75, 0
2, 219480, Note_on_c, 1, 72, 127
2, 219560, Note_off_c, 1, 72, 0
2, 219600, Note_on_c, 1, 75, 127
2, 219640, Note_off_c, 1, 75, 0
2, 219680, Note_on_c, 1, 74, 127
2, 219720, Note_off_c, 1, 74, 0
2, 219800, Note_on_c, 1, 75, 127
2, 219840, Note_off_c, 1, 75, 0
2, 219880, Note_on_c, 1, 41, 127
2, 219880, Note_on_c, 1, 53, 127
2, 219880, Note_on_c, 1, 65, 127
2, 219880, Note_on_c, 1, 70, 127
2, 219880, Note_on_c, 1, 74, 127
2, 220080, Note_on_c, 1, 68, 127
2, 220120, Note_off_c, 1, 68, 0
2, 220200, Note_off_c, 1, 53, 0
2, 220280, Note_on_c, 1, 51, 127
2, 220400, Note_off_c, 1, 51, 0
2, 220440, Note_on_c, 1, 53, 127
2, 220600, Note_off_c, 1, 53, 0
2, 220600, Note_off_c, 1, 65, 0
2, 220600, Note_off_c, 1, 70, 0
2, 220640, Note_on_c, 1, 53, 127
2, 220640, Note_on_c, 1, 65, 127
2, 220640, Note_on_c, 1, 70, 127
2, 221000, Note_off_c, 1, 41, 0
2, 221000, Note_off_c, 1, 53, 0
2, 221000, Note_off_c, 1, 65, 0
2, 221000, Note_off_c, 1, 70, 0
2, 221000, Note_off_c, 1, 74, 0
2, 221040, Note_on_c, 1, 77, 127
2, 221640, Note_off_c, 1, 77, 0
2, 221720, Note_on_c, 1, 76, 127
2, 221760, Note_off_c, 1, 76, 0
2, 221800, Note_on_c, 1, 74, 127
2, 222040, Note_off_c, 1, 74, 0
2, 222080, Note_on_c, 1, 70, 127
2, 222120, Note_off_c, 1, 70, 0
2, 222200, Note_on_c, 1, 41, 127
2, 222200, Note_on_c, 1, 53, 127
2, 222200, Note_on_c, 1, 60, 127
2, 222200, Note_on_c, 1, 63, 127
2, 222200, Note_on_c, 1, 69, 127
2, 222200, Note_on_c, 1, 80, 127
2, 222240, Note_off_c, 1, 80, 0
2, 222240, Note_on_c, 1, 81, 127
2, 222320, Note_off_c, 1, 69, 0
2, 222360, Note_on_c, 1, 72, 127
2, 222440, Note_off_c, 1, 72, 0
2, 222480, Note_on_c, 1, 70, 127
2, 222520, Note_off_c, 1, 70, 0
2, 222560, Note_on_c, 1, 69, 127
2, 222600, Note_off_c, 1, 69, 0
2, 222680, Note_on_c, 1, 70, 127
2, 222720, Note_off_c, 1, 60, 0
2, 222720, Note_off_c, 1, 70, 0
2, 222760, Note_on_c, 1, 60, 127
2, 222760, Note_on_c, 1, 70, 127
2, 222800, Note_off_c, 1, 70, 0
2, 222840, Note_on_c, 1, 72, 127
2, 222920, Note_off_c, 1, 72, 0
2, 222920, Note_off_c, 1, 81, 0
2, 222960, Note_on_c, 1, 73, 127
2, 222960, Note_on_c, 1, 84, 127
2, 223000, Note_off_c, 1, 73, 0
2, 223000, Note_on_c, 1, 82, 127
2, 223000, Note_off_c, 1, 84, 0
2, 223040, Note_on_c, 1, 74, 127
2, 223080, Note_off_c, 1, 41, 0
2, 223080, Note_off_c, 1, 53, 0
2, 223080, Note_off_c, 1, 60, 0
2, 223080, Note_off_c, 1, 63, 0
2, 223080, Note_off_c, 1, 74, 0
2, 223080, Note_off_c, 1, 82, 0
2, 223160, Note_on_c, 1, 70, 127
2, 223160, Note_on_c, 1, 82, 127
2, 223200, Note_off_c, 1, 70, 0
2, 223240, Note_on_c, 1, 72, 127
2, 223280, Note_off_c, 1, 72, 0
2, 223280, Note_off_c, 1, 82, 0
2, 223320, Note_on_c, 1, 71, 127
2, 223320, Note_on_c, 1, 80, 127
2, 223360, Note_off_c, 1, 71, 0
2, 223400, Note_off_c, 1, 80, 0
2, 223440, Note_on_c, 1, 77, 127
2, 223480, Note_off_c, 1, 77, 0
2, 223520, Note_on_c, 1, 29, 127
2, 223520, Note_on_c, 1, 41, 127
2, 223520, Note_on_c, 1, 77, 127
2, 223560, Note_off_c, 1, 77, 0
2, 223640, Note_on_c, 1, 72, 127
2, 223680, Note_off_c, 1, 29, 0
2, 223680, Note_off_c, 1, 72, 0
2, 223720, Note_on_c, 1, 74, 127
2, 223760, Note_off_c, 1, 74, 0
2, 223800, Note_on_c, 1, 75, 127
2, 223880, Note_off_c, 1, 41, 0
2, 223880, Note_off_c, 1, 75, 0
2, 223920, Note_on_c, 1, 79, 127
2, 223960, Note_off_c, 1, 79, 0
2, 224000, Note_on_c, 1, 81, 127
2, 224040, Note_off_c, 1, 81, 0
2, 224120, Note_on_c, 1, 82, 127
2, 224160, Note_off_c, 1, 82, 0
2, 224200, Note_on_c, 1, 81, 127
2, 224240, Note_off_c, 1, 81, 0
2, 224280, Note_on_c, 1, 46, 127
2, 224280, Note_on_c, 1, 58, 127
2, 224280, Note_on_c, 1, 62, 127
2, 224280, Note_on_c, 1, 65, 127
2, 224280, Note_on_c, 1, 70, 127
2, 224280, Note_on_c, 1, 79, 127
2, 224360, Note_off_c, 1, 79, 0
2, 224400, Note_on_c, 1, 81, 127
2, 224440, Note_off_c, 1, 81, 0
2, 224480, Note_on_c, 1, 79, 127
2, 224520, Note_off_c, 1, 79, 0
2, 224600, Note_on_c, 1, 81, 127
2, 224640, Note_off_c, 1, 46, 0
2, 224640, Note_off_c, 1, 62, 0
2, 224640, Note_off_c, 1, 65, 0
2, 224640, Note_off_c, 1, 70, 0
2, 224640, Note_off_c, 1, 81, 0
2, 224680, Note_on_c, 1, 48, 127
2, 224680, Note_on_c, 1, 63, 127
2, 224680, Note_on_c, 1, 67, 127
2, 224680, Note_on_c, 1, 82, 127
2, 224720, Note_off_c, 1, 82, 0
2, 224840, Note_off_c, 1, 48, 0
2, 224840, Note_off_c, 1, 58, 0
2, 224840, Note_off_c, 1, 63, 0
2, 224840, Note_on_c, 1, 65, 127
2, 224840, Note_off_c, 1, 67, 0
2, 224840, Note_on_c, 1, 70, 127
2, 224880, Note_on_c, 1, 60, 127
2, 224880, Note_on_c, 1, 67, 127
2, 224960, Note_off_c, 1, 70, 0
2, 225000, Note_off_c, 1, 60, 0
2, 225080, Note_on_c, 1, 51, 127
2, 225080, Note_on_c, 1, 62, 127
2, 225080, Note_on_c, 1, 70, 127
2, 225200, Note_off_c, 1, 65, 0
2, 225400, Note_off_c, 1, 51, 0
2, 225400, Note_off_c, 1, 62, 0
2, 225400, Note_off_c, 1, 67, 0
2, 225400, Note_off_c, 1, 70, 0
2, 225440, Note_on_c, 1, 60, 127
2, 225440, Note_on_c, 1, 63, 127
2, 225440, Note_on_c, 1, 66, 127
2, 225440, Note_on_c, 1, 69, 127
2, 225800, Note_off_c, 1, 60, 0
2, 225800, Note_off_c, 1, 63, 0
2, 225800, Note_off_c, 1, 66, 0
2, 225800, Note_off_c, 1, 69, 0
2, 225840, Note_on_c, 1, 58, 127
2, 225840, Note_on_c, 1, 62, 127
2, 225840, Note_on_c, 1, 65, 127
2, 225840, Note_on_c, 1, 68, 127
2, 226000, Note_off_c, 1, 68, 0
2, 226040, Note_on_c, 1, 70, 127
2, 226160, Note_off_c, 1, 70, 0
2, 226200, Note_off_c, 1, 65, 0
2, 226240, Note_on_c, 1, 67, 127
2, 226240, Note_on_c, 1, 70, 127
2, 226360, Note_off_c, 1, 67, 0
2, 226400, Note_on_c, 1, 65, 127
2, 226400, Note_on_c, 1, 68, 127
2, 226480, Note_off_c, 1, 68, 0
2, 226480, Note_off_c, 1, 70, 0
2, 226560, Note_off_c, 1, 58, 0
2, 226560, Note_off_c, 1, 62, 0
2, 226560, Note_off_c, 1, 65, 0
2, 226600, Note_on_c, 1, 67, 127
2, 226680, Note_off_c, 1, 67, 0
2, 226680, Note_on_c, 1, 68, 127
2, 226720, Note_off_c, 1, 68, 0
2, 226720, Note_on_c, 1, 69, 127
2, 226760, Note_off_c, 1, 69, 0
2, 226800, Note_on_c, 1, 67, 127
2, 226840, Note_off_c, 1, 67, 0
2, 226880, Note_on_c, 1, 65, 127
2, 226960, Note_off_c, 1, 65, 0
2, 227000, Note_on_c, 1, 58, 127
2, 227000, Note_on_c, 1, 67, 127
2, 227320, Note_off_c, 1, 67, 0
2, 227360, Note_on_c, 1, 70, 127
2, 227520, Note_off_c, 1, 58, 0
2, 227520, Note_off_c, 1, 70, 0
2, 227560, Note_on_c, 1, 57, 127
2, 227560, Note_on_c, 1, 72, 127
2, 227600, Note_off_c, 1, 57, 0
2, 227600, Note_off_c, 1, 72, 0
2, 227680, Note_on_c, 1, 55, 127
2, 227680, Note_on_c, 1, 70, 127
2, 227720, Note_off_c, 1, 55, 0
2, 227720, Note_off_c, 1, 70, 0
2, 227760, Note_on_c, 1, 53, 127
2, 227760, Note_on_c, 1, 70, 127
2, 227800, Note_off_c, 1, 53, 0
2, 227800, Note_off_c, 1, 70, 0
2, 227840, Note_on_c, 1, 50, 127
2, 227840, Note_on_c, 1, 74, 127
2, 227920, Note_off_c, 1, 50, 0
2, 227920, Note_off_c, 1, 74, 0
2, 227960, Note_on_c, 1, 45, 127
2, 227960, Note_on_c, 1, 77, 127
2, 228000, Note_off_c, 1, 45, 0
2, 228000, Note_off_c, 1, 77, 0
2, 228040, Note_on_c, 1, 51, 127
2, 228040, Note_on_c, 1, 75, 127
2, 228080, Note_off_c, 1, 51, 0
2, 228080, Note_off_c, 1, 75, 0
2, 228160, Note_on_c, 1, 53, 127
2, 228160, Note_on_c, 1, 74, 127
2, 228200, Note_off_c, 1, 53, 0
2, 228200, Note_off_c, 1, 74, 0
2, 228240, Note_on_c, 1, 51, 127
2, 228240, Note_on_c, 1, 75, 127
2, 228280, Note_off_c, 1, 51, 0
2, 228280, Note_off_c, 1, 75, 0
2, 228320, Note_on_c, 1, 46, 127
2, 228320, Note_on_c, 1, 77, 127
2, 228400, Note_off_c, 1, 46, 0
2, 228400, Note_off_c, 1, 77, 0
2, 228440, Note_on_c, 1, 50, 127
2, 228440, Note_on_c, 1, 70, 127
2, 228480, Note_off_c, 1, 50, 0
2, 228480, Note_off_c, 1, 70, 0
2, 228520, Note_on_c, 1, 53, 127
2, 228520, Note_on_c, 1, 69, 127
2, 228560, Note_off_c, 1, 53, 0
2, 228560, Note_off_c, 1, 69, 0
2, 228640, Note_on_c, 1, 58, 127
2, 228640, Note_on_c, 1, 70, 127
2, 228680, Note_off_c, 1, 58, 0
2, 228680, Note_off_c, 1, 70, 0
2, 228720, Note_on_c, 1, 46, 127
2, 228720, Note_on_c, 1, 63, 127
2, 228760, Note_off_c, 1, 46, 0
2, 228760, Note_off_c, 1, 63, 0
2, 228760, Note_on_c, 1, 75, 127
2, 228800, Note_on_c, 1, 58, 127
2, 228880, Note_off_c, 1, 58, 0
2, 228920, Note_on_c, 1, 53, 127
2, 228960, Note_off_c, 1, 53, 0
2, 229000, Note_on_c, 1, 58, 127
2, 229040, Note_off_c, 1, 58, 0
2, 229040, Note_off_c, 1, 75, 0
2, 229120, Note_on_c, 1, 48, 127
2, 229120, Note_on_c, 1, 72, 127
2, 229160, Note_off_c, 1, 48, 0
2, 229160, Note_on_c, 1, 71, 127
2, 229160, Note_off_c, 1, 72, 0
2, 229200, Note_on_c, 1, 60, 127
2, 229200, Note_off_c, 1, 71, 0
2, 229200, Note_on_c, 1, 72, 127
2, 229240, Note_off_c, 1, 60, 0
2, 229280, Note_on_c, 1, 48, 127
2, 229280, Note_on_c, 1, 71, 127
2, 229280, Note_off_c, 1, 72, 0
2, 229320, Note_off_c, 1, 71, 0
2, 229360, Note_off_c, 1, 48, 0
2, 229360, Note_on_c, 1, 72, 127
2, 229400, Note_on_c, 1, 60, 127
2, 229400, Note_on_c, 1, 70, 127
2, 229400, Note_off_c, 1, 72, 0
2, 229440, Note_off_c, 1, 60, 0
2, 229440, Note_off_c, 1, 70, 0
2, 229440, Note_on_c, 1, 72, 127
2, 229480, Note_on_c, 1, 48, 127
2, 229480, Note_on_c, 1, 70, 127
2, 229480, Note_off_c, 1, 72, 0
2, 229520, Note_off_c, 1, 48, 0
2, 229520, Note_off_c, 1, 70, 0
2, 229520, Note_on_c, 1, 72, 127
2, 229560, Note_off_c, 1, 72, 0
2, 229600, Note_on_c, 1, 60, 127
2, 229600, Note_on_c, 1, 69, 127
2, 229640, Note_off_c, 1, 60, 0
2, 229640, Note_off_c, 1, 69, 0
2, 229640, Note_on_c, 1, 72, 127
2, 229680, Note_on_c, 1, 53, 127
2, 229680, Note_on_c, 1, 70, 127
2, 229680, Note_off_c, 1, 72, 0
2, 229720, Note_off_c, 1, 53, 0
2, 229720, Note_off_c, 1, 70, 0
2, 229720, Note_on_c, 1, 72, 127
2, 229760, Note_on_c, 1, 60, 127
2, 229760, Note_on_c, 1, 70, 127
2, 229760, Note_off_c, 1, 72, 0
2, 229800, Note_off_c, 1, 70, 0
2, 229840, Note_off_c, 1, 60, 0
2, 229840, Note_on_c, 1, 69, 127
2, 229880, Note_on_c, 1, 46, 127
2, 229880, Note_off_c, 1, 69, 0
2, 229880, Note_on_c, 1, 70, 127
2, 229920, Note_off_c, 1, 46, 0
2, 229960, Note_on_c, 1, 58, 127
2, 230000, Note_off_c, 1, 58, 0
2, 230080, Note_on_c, 1, 50, 127
2, 230120, Note_off_c, 1, 50, 0
2, 230160, Note_on_c, 1, 58, 127
2, 230200, Note_off_c, 1, 58, 0
2, 230240, Note_on_c, 1, 53, 127
2, 230320, Note_off_c, 1, 53, 0
2, 230360, Note_on_c, 1, 58, 127
2, 230400, Note_off_c, 1, 58, 0
2, 230400, Note_on_c, 1, 69, 127
2, 230400, Note_off_c, 1, 70, 0
2, 230440, Note_on_c, 1, 50, 127
2, 230440, Note_off_c, 1, 69, 0
2, 230440, Note_on_c, 1, 70, 127
2, 230480, Note_off_c, 1, 50, 0
2, 230560, Note_on_c, 1, 58, 127
2, 230600, Note_off_c, 1, 58, 0
2, 230600, Note_off_c, 1, 70, 0
2, 230640, Note_on_c, 1, 46, 127
2, 230640, Note_on_c, 1, 50, 127
2, 230640, Note_on_c, 1, 74, 127
2, 230640, Note_on_c, 1, 77, 127
2, 230680, Note_off_c, 1, 46, 0
2, 230680, Note_off_c, 1, 50, 0
2, 230680, Note_on_c, 1, 79, 127
2, 230720, Note_on_c, 1, 58, 127
2, 230720, Note_off_c, 1, 79, 0
2, 230800, Note_off_c, 1, 58, 0
2, 230800, Note_on_c, 1, 79, 127
2, 230840, Note_on_c, 1, 53, 127
2, 230840, Note_off_c, 1, 79, 0
2, 230880, Note_on_c, 1, 41, 127
2, 230880, Note_off_c, 1, 53, 0
2, 230880, Note_on_c, 1, 80, 127
2, 230920, Note_on_c, 1, 75, 127
2, 230920, Note_off_c, 1, 77, 0
2, 230920, Note_off_c, 1, 80, 0
2, 230960, Note_off_c, 1, 41, 0
2, 230960, Note_off_c, 1, 75, 0
2, 230960, Note_on_c, 1, 77, 127
2, 230960, Note_on_c, 1, 80, 127
2, 231000, Note_off_c, 1, 80, 0
2, 231040, Note_on_c, 1, 41, 127
2, 231040, Note_on_c, 1, 80, 127
2, 231080, Note_off_c, 1, 41, 0
2, 231080, Note_off_c, 1, 80, 0
2, 231120, Note_on_c, 1, 53, 127
2, 231160, Note_off_c, 1, 53, 0
2, 231160, Note_on_c, 1, 81, 127
2, 231200, Note_on_c, 1, 44, 127
2, 231200, Note_off_c, 1, 81, 0
2, 231200, Note_on_c, 1, 82, 127
2, 231280, Note_off_c, 1, 44, 0
2, 231280, Note_off_c, 1, 82, 0
2, 231320, Note_on_c, 1, 53, 127
2, 231320, Note_on_c, 1, 80, 127
2, 231360, Note_off_c, 1, 53, 0
2, 231360, Note_off_c, 1, 74, 0
2, 231360, Note_off_c, 1, 77, 0
2, 231360, Note_off_c, 1, 80, 0
2, 231400, Note_on_c, 1, 43, 127
2, 231400, Note_on_c, 1, 75, 127
2, 231400, Note_on_c, 1, 79, 127
2, 231400, Note_on_c, 1, 82, 127
2, 231440, Note_off_c, 1, 43, 0
2, 231440, Note_off_c, 1, 82, 0
2, 231520, Note_on_c, 1, 51, 127
2, 231560, Note_off_c, 1, 51, 0
2, 231600, Note_on_c, 1, 55, 127
2, 231640, Note_off_c, 1, 55, 0
2, 231640, Note_off_c, 1, 79, 0
2, 231680, Note_on_c, 1, 58, 127
2, 231680, Note_on_c, 1, 79, 127
2, 231760, Note_off_c, 1, 58, 0
2, 231760, Note_off_c, 1, 75, 0
2, 231760, Note_off_c, 1, 79, 0
2, 231800, Note_on_c, 1, 43, 127
2, 231800, Note_on_c, 1, 77, 127
2, 231800, Note_on_c, 1, 79, 127
2, 231840, Note_off_c, 1, 43, 0
2, 231880, Note_on_c, 1, 53, 127
2, 231880, Note_off_c, 1, 79, 0
2, 231880, Note_on_c, 1, 80, 127
2, 231920, Note_off_c, 1, 53, 0
2, 231920, Note_off_c, 1, 77, 0
2, 231920, Note_on_c, 1, 79, 127
2, 231920, Note_off_c, 1, 80, 0
2, 231960, Note_off_c, 1, 79, 0
2, 232000, Note_on_c, 1, 53, 127
2, 232000, Note_on_c, 1, 77, 127
2, 232000, Note_on_c, 1, 80, 127
2, 232040, Note_off_c, 1, 53, 0
2, 232040, Note_off_c, 1, 77, 0
2, 232040, Note_on_c, 1, 79, 127
2, 232040, Note_off_c, 1, 80, 0
2, 232080, Note_on_c, 1, 55, 127
2, 232080, Note_on_c, 1, 75, 127
2, 232080, Note_on_c, 1, 77, 127
2, 232080, Note_off_c, 1, 79, 0
2, 232120, Note_off_c, 1, 55, 0
2, 232120, Note_off_c, 1, 75, 0
2, 232120, Note_on_c, 1, 76, 127
2, 232120, Note_off_c, 1, 77, 0
2, 232160, Note_on_c, 1, 43, 127
2, 232160, Note_on_c, 1, 72, 127
2, 232160, Note_off_c, 1, 76, 0
2, 232240, Note_off_c, 1, 43, 0
2, 232280, Note_on_c, 1, 48, 127
2, 232320, Note_off_c, 1, 48, 0
2, 232360, Note_on_c, 1, 51, 127
2, 232400, Note_off_c, 1, 51, 0
2, 232480, Note_on_c, 1, 51, 127
2, 232520, Note_off_c, 1, 51, 0
2, 232520, Note_off_c, 1, 72, 0
2, 232560, Note_on_c, 1, 43, 127
2, 232560, Note_on_c, 1, 60, 127
2, 232560, Note_on_c, 1, 72, 127
2, 232600, Note_off_c, 1, 43, 0
2, 232600, Note_on_c, 1, 69, 127
2, 232640, Note_on_c, 1, 55, 127
2, 232720, Note_off_c, 1, 55, 0
2, 232720, Note_on_c, 1, 68, 127
2, 232720, Note_off_c, 1, 69, 0
2, 232760, Note_on_c, 1, 55, 127
2, 232800, Note_off_c, 1, 55, 0
2, 232840, Note_on_c, 1, 55, 127
2, 232880, Note_off_c, 1, 55, 0
2, 232880, Note_off_c, 1, 68, 0
2, 232880, Note_on_c, 1, 69, 127
2, 232960, Note_on_c, 1, 56, 127
2, 233000, Note_off_c, 1, 56, 0
2, 233040, Note_on_c, 1, 55, 127
2, 233080, Note_off_c, 1, 55, 0
2, 233080, Note_off_c, 1, 60, 0
2, 233080, Note_off_c, 1, 69, 0
2, 233080, Note_off_c, 1, 72, 0
2, 233120, Note_on_c, 1, 50, 127
2, 233120, Note_on_c, 1, 65, 127
2, 233120, Note_on_c, 1, 70, 127
2, 233120, Note_on_c, 1, 74, 127
2, 233200, Note_off_c, 1, 50, 0
2, 233240, Note_on_c, 1, 53, 127
2, 233280, Note_off_c, 1, 53, 0
2, 233280, Note_off_c, 1, 65, 0
2, 233280, Note_off_c, 1, 70, 0
2, 233280, Note_off_c, 1, 74, 0
2, 233320, Note_on_c, 1, 48, 127
2, 233320, Note_on_c, 1, 64, 127
2, 233320, Note_on_c, 1, 70, 127
2, 233320, Note_on_c, 1, 75, 127
2, 233360, Note_off_c, 1, 48, 0
2, 233400, Note_on_c, 1, 53, 127
2, 233440, Note_on_c, 1, 51, 127
2, 233440, Note_off_c, 1, 53, 0
2, 233480, Note_off_c, 1, 51, 0
2, 233480, Note_off_c, 1, 64, 0
2, 233480, Note_off_c, 1, 70, 0
2, 233480, Note_off_c, 1, 75, 0
2, 233520, Note_on_c, 1, 53, 127
2, 233520, Note_on_c, 1, 65, 127
2, 233520, Note_on_c, 1, 70, 127
2, 233520, Note_on_c, 1, 74, 127
2, 233560, Note_off_c, 1, 53, 0
2, 233600, Note_on_c, 1, 50, 127
2, 233680, Note_off_c, 1, 50, 0
2, 233680, Note_off_c, 1, 65, 0
2, 233680, Note_off_c, 1, 70, 0
2, 233680, Note_off_c, 1, 74, 0
2, 233720, Note_on_c, 1, 52, 127
2, 233720, Note_on_c, 1, 74, 127
2, 233760, Note_off_c, 1, 52, 0
2, 233800, Note_on_c, 1, 53, 127
2, 233840, Note_off_c, 1, 53, 0
2, 233840, Note_off_c, 1, 74, 0
2, 233920, Note_on_c, 1, 41, 127
2, 233920, Note_on_c, 1, 53, 127
2, 233920, Note_on_c, 1, 65, 127
2, 233920, Note_on_c, 1, 72, 127
2, 233920, Note_on_c, 1, 74, 127
2, 233960, Note_off_c, 1, 72, 0
2, 234080, Note_on_c, 1, 72, 127
2, 234160, Note_off_c, 1, 72, 0
2, 234240, Note_off_c, 1, 41, 0
2, 234240, Note_off_c, 1, 53, 0
2, 234280, Note_on_c, 1, 46, 127
2, 234280, Note_on_c, 1, 58, 127
2, 234280, Note_on_c, 1, 70, 127
2, 234320, Note_off_c, 1, 70, 0
2, 234560, Note_on_c, 1, 70, 127
2, 234640, Note_off_c, 1, 46, 0
2, 234640, Note_off_c, 1, 58, 0
2, 234640, Note_off_c, 1, 65, 0
2, 234640, Note_off_c, 1, 70, 0
2, 234680, Note_on_c, 1, 69, 127
2, 234680, Note_on_c, 1, 72, 127
2, 234680, Note_off_c, 1, 74, 0
2, 234680, Note_on_c, 1, 77, 127
2, 234720, Note_off_c, 1, 69, 0
2, 234720, Note_on_c, 1, 70, 127
2, 234720, Note_off_c, 1, 72, 0
2, 234720, Note_on_c, 1, 74, 127
2, 234760, Note_off_c, 1, 70, 0
2, 234760, Note_off_c, 1, 74, 0
2, 234760, Note_off_c, 1, 77, 0
2, 234760, Note_on_c, 1, 79, 127
2, 234800, Note_on_c, 1, 74, 127
2, 234800, Note_on_c, 1, 77, 127
2, 234800, Note_off_c, 1, 79, 0
2, 234840, Note_off_c, 1, 74, 0
2, 234840, Note_off_c, 1, 77, 0
2, 234840, Note_on_c, 1, 84, 127
2, 234880, Note_on_c, 1, 76, 127
2, 234880, Note_off_c, 1, 84, 0
2, 234920, Note_off_c, 1, 76, 0
2, 234960, Note_on_c, 1, 77, 127
2, 235000, Note_off_c, 1, 77, 0
2, 235040, Note_on_c, 1, 53, 127
2, 235040, Note_on_c, 1, 69, 127
2, 235040, Note_on_c, 1, 75, 127
2, 235040, Note_on_c, 1, 81, 127
2, 235080, Note_off_c, 1, 81, 0
2, 235160, Note_off_c, 1, 69, 0
2, 235160, Note_on_c, 1, 70, 127
2, 235160, Note_on_c, 1, 82, 127
2, 235200, Note_off_c, 1, 70, 0
2, 235200, Note_off_c, 1, 75, 0
2, 235200, Note_off_c, 1, 82, 0
2, 235240, Note_on_c, 1, 74, 127
2, 235280, Note_off_c, 1, 53, 0
2, 235280, Note_off_c, 1, 74, 0
2, 235360, Note_on_c, 1, 82, 127
2, 235400, Note_off_c, 1, 82, 0
2, 235440, Note_on_c, 1, 53, 127
2, 235440, Note_on_c, 1, 74, 127
2, 235440, Note_on_c, 1, 77, 127
2, 235440, Note_on_c, 1, 81, 127
2, 235480, Note_off_c, 1, 81, 0
2, 235520, Note_on_c, 1, 82, 127
2, 235600, Note_off_c, 1, 74, 0
2, 235600, Note_off_c, 1, 77, 0
2, 235600, Note_off_c, 1, 82, 0
2, 235640, Note_on_c, 1, 72, 127
2, 235640, Note_on_c, 1, 74, 127
2, 235640, Note_on_c, 1, 77, 127
2, 235640, Note_on_c, 1, 84, 127
2, 235680, Note_off_c, 1, 84, 0
2, 235720, Note_on_c, 1, 86, 127
2, 235760, Note_off_c, 1, 53, 0
2, 235760, Note_off_c, 1, 72, 0
2, 235760, Note_off_c, 1, 74, 0
2, 235760, Note_off_c, 1, 77, 0
2, 235760, Note_off_c, 1, 86, 0
2, 235840, Note_on_c, 1, 41, 127
2, 235840, Note_on_c, 1, 70, 127
2, 235840, Note_on_c, 1, 74, 127
2, 235840, Note_on_c, 1, 77, 127
2, 235920, Note_on_c, 1, 82, 127
2, 235960, Note_off_c, 1, 70, 0
2, 235960, Note_off_c, 1, 74, 0
2, 235960, Note_off_c, 1, 77, 0
2, 235960, Note_off_c, 1, 82, 0
2, 236000, Note_on_c, 1, 82, 127
2, 236080, Note_off_c, 1, 82, 0
2, 236120, Note_on_c, 1, 81, 127
2, 236160, Note_off_c, 1, 41, 0
2, 236160, Note_off_c, 1, 81, 0
2, 236200, Note_on_c, 1, 79, 127
2, 236240, Note_off_c, 1, 79, 0
2, 236320, Note_on_c, 1, 77, 127
2, 236360, Note_off_c, 1, 77, 0
2, 236400, Note_on_c, 1, 75, 127
2, 236440, Note_off_c, 1, 75, 0
2, 236480, Note_on_c, 1, 74, 127
2, 236560, Note_off_c, 1, 74, 0
2, 236600, Note_on_c, 1, 82, 127
2, 236640, Note_off_c, 1, 82, 0
2, 236680, Note_on_c, 1, 81, 127
2, 236720, Note_off_c, 1, 81, 0
2, 236800, Note_on_c, 1, 82, 127
2, 236840, Note_off_c, 1, 82, 0
2, 236880, Note_on_c, 1, 81, 127
2, 236920, Note_off_c, 1, 81, 0
2, 236960, Note_on_c, 1, 82, 127
2, 237040, Note_off_c, 1, 82, 0
2, 237080, Note_on_c, 1, 84, 127
2, 237120, Note_off_c, 1, 84, 0
2, 237160, Note_on_c, 1, 82, 127
2, 237200, Note_off_c, 1, 82, 0
2, 237280, Note_on_c, 1, 84, 127
2, 237320, Note_off_c, 1, 84, 0
2, 237360, Note_on_c, 1, 53, 127
2, 237360, Note_on_c, 1, 65, 127
2, 237360, Note_on_c, 1, 68, 127
2, 237360, Note_on_c, 1, 75, 127
2, 237360, Note_on_c, 1, 84, 127
2, 237880, Note_off_c, 1, 75, 0
2, 237880, Note_off_c, 1, 84, 0
2, 237920, Note_on_c, 1, 89, 127
2, 238080, Note_off_c, 1, 53, 0
2, 238080, Note_off_c, 1, 65, 0
2, 238080, Note_off_c, 1, 68, 0
2, 238080, Note_off_c, 1, 89, 0
2, 238120, Note_on_c, 1, 48, 127
2, 238120, Note_on_c, 1, 60, 127
2, 238120, Note_on_c, 1, 67, 127
2, 238120, Note_on_c, 1, 74, 127
2, 238120, Note_on_c, 1, 84, 127
2, 238120, Note_on_c, 1, 88, 127
2, 238240, Note_on_c, 1, 86, 127
2, 238240, Note_off_c, 1, 88, 0
2, 238280, Note_off_c, 1, 86, 0
2, 238280, Note_on_c, 1, 88, 127
2, 238480, Note_on_c, 1, 72, 127
2, 238480, Note_off_c, 1, 74, 0
2, 238480, Note_off_c, 1, 84, 0
2, 238480, Note_off_c, 1, 88, 0
2, 238520, Note_on_c, 1, 79, 127
2, 238520, Note_on_c, 1, 84, 127
2, 238640, Note_off_c, 1, 67, 0
2, 238640, Note_off_c, 1, 72, 0
2, 238640, Note_off_c, 1, 79, 0
2, 238640, Note_off_c, 1, 84, 0
2, 238720, Note_on_c, 1, 65, 127
2, 238720, Note_on_c, 1, 69, 127
2, 238720, Note_on_c, 1, 77, 127
2, 238720, Note_on_c, 1, 82, 127
2, 238840, Note_off_c, 1, 60, 0
2, 238840, Note_off_c, 1, 65, 0
2, 238840, Note_off_c, 1, 69, 0
2, 238840, Note_off_c, 1, 77, 0
2, 238840, Note_off_c, 1, 82, 0
2, 238880, Note_on_c, 1, 60, 127
2, 238880, Note_on_c, 1, 64, 127
2, 238880, Note_on_c, 1, 67, 127
2, 238880, Note_on_c, 1, 75, 127
2, 238880, Note_on_c, 1, 79, 127
2, 239040, Note_off_c, 1, 64, 0
2, 239080, Note_on_c, 1, 72, 127
2, 239160, Note_off_c, 1, 72, 0
2, 239240, Note_off_c, 1, 48, 0
2, 239240, Note_off_c, 1, 60, 0
2, 239240, Note_off_c, 1, 67, 0
2, 239240, Note_off_c, 1, 75, 0
2, 239240, Note_off_c, 1, 79, 0
2, 239280, Note_on_c, 1, 48, 127
2, 239280, Note_on_c, 1, 60, 127
2, 239280, Note_on_c, 1, 63, 127
2, 239280, Note_on_c, 1, 67, 127
2, 239280, Note_on_c, 1, 78, 127
2, 239440, Note_off_c, 1, 63, 0
2, 239440, Note_off_c, 1, 67, 0
2, 239440, Note_off_c, 1, 78, 0
2, 239480, Note_on_c, 1, 75, 127
2, 239480, Note_on_c, 1, 79, 127
2, 239600, Note_off_c, 1, 48, 0
2, 239600, Note_off_c, 1, 60, 0
2, 239600, Note_off_c, 1, 75, 0
2, 239600, Note_off_c, 1, 79, 0
2, 239680, Note_on_c, 1, 77, 127
2, 239680, Note_on_c, 1, 84, 127
2, 239800, Note_off_c, 1, 77, 0
2, 239800, Note_off_c, 1, 84, 0
2, 239840, Note_on_c, 1, 75, 127
2, 239840, Note_on_c, 1, 84, 127
2, 239920, Note_off_c, 1, 75, 0
2, 239920, Note_off_c, 1, 84, 0
2, 239960, Note_on_c, 1, 74, 127
2, 239960, Note_on_c, 1, 82, 127
2, 240000, Note_off_c, 1, 74, 0
2, 240000, Note_off_c, 1, 82, 0
2, 240040, Note_on_c, 1, 75, 127
2, 240040, Note_on_c, 1, 79, 127
2, 240080, Note_off_c, 1, 79, 0
2, 240160, Note_on_c, 1, 84, 127
2, 240200, Note_off_c, 1, 75, 0
2, 240200, Note_off_c, 1, 84, 0
2, 240240, Note_on_c, 1, 76, 127
2, 240240, Note_on_c, 1, 79, 127
2, 240280, Note_off_c, 1, 76, 0
2, 240280, Note_off_c, 1, 79, 0
2, 240320, Note_on_c, 1, 79, 127
2, 240400, Note_off_c, 1, 79, 0
2, 240440, Note_on_c, 1, 76, 127
2, 240440, Note_on_c, 1, 79, 127
2, 240480, Note_off_c, 1, 76, 0
2, 240480, Note_off_c, 1, 79, 0
2, 240520, Note_on_c, 1, 72, 127
2, 240560, Note_off_c, 1, 72, 0
2, 240640, Note_on_c, 1, 75, 127
2, 240640, Note_on_c, 1, 79, 127
2, 240680, Note_off_c, 1, 75, 0
2, 240680, Note_off_c, 1, 79, 0
2, 240720, Note_on_c, 1, 72, 127
2, 240760, Note_off_c, 1, 72, 0
2, 240800, Note_on_c, 1, 70, 127
2, 240800, Note_on_c, 1, 82, 127
2, 240920, Note_on_c, 1, 74, 127
2, 240960, Note_off_c, 1, 70, 0
2, 240960, Note_off_c, 1, 74, 0
2, 241000, Note_on_c, 1, 74, 127
2, 241040, Note_off_c, 1, 74, 0
2, 241120, Note_on_c, 1, 74, 127
2, 241160, Note_off_c, 1, 74, 0
2, 241200, Note_on_c, 1, 69, 127
2, 241200, Note_on_c, 1, 76, 127
2, 241240, Note_off_c, 1, 69, 0
2, 241240, Note_off_c, 1, 76, 0
2, 241240, Note_off_c, 1, 82, 0
2, 241280, Note_on_c, 1, 70, 127
2, 241360, Note_off_c, 1, 70, 0
2, 241400, Note_on_c, 1, 72, 127
2, 241400, Note_on_c, 1, 77, 127
2, 241400, Note_on_c, 1, 79, 127
2, 241600, Note_on_c, 1, 38, 127
2, 241600, Note_on_c, 1, 50, 127
2, 241600, Note_on_c, 1, 65, 127
2, 241600, Note_on_c, 1, 78, 127
2, 241600, Note_off_c, 1, 79, 0
2, 241640, Note_off_c, 1, 78, 0
2, 241720, Note_off_c, 1, 38, 0
2, 241720, Note_off_c, 1, 50, 0
2, 241720, Note_off_c, 1, 65, 0
2, 241720, Note_off_c, 1, 72, 0
2, 241720, Note_off_c, 1, 77, 0
2, 241760, Note_on_c, 1, 52, 127
2, 241840, Note_off_c, 1, 52, 0
2, 241880, Note_on_c, 1, 50, 127
2, 241920, Note_off_c, 1, 50, 0
2, 241960, Note_on_c, 1, 48, 127
2, 242000, Note_off_c, 1, 48, 0
2, 242160, Note_on_c, 1, 45, 127
2, 242160, Note_on_c, 1, 84, 127
2, 242200, Note_off_c, 1, 45, 0
2, 242200, Note_on_c, 1, 81, 127
2, 242200, Note_off_c, 1, 84, 0
2, 242320, Note_on_c, 1, 53, 127
2, 242400, Note_off_c, 1, 53, 0
2, 242520, Note_on_c, 1, 53, 127
2, 242600, Note_off_c, 1, 53, 0
2, 242720, Note_on_c, 1, 41, 127
2, 242720, Note_on_c, 1, 53, 127
2, 242720, Note_on_c, 1, 62, 127
2, 242720, Note_on_c, 1, 65, 127
2, 242760, Note_off_c, 1, 62, 0
2, 242760, Note_off_c, 1, 65, 0
2, 242880, Note_off_c, 1, 41, 0
2, 242880, Note_off_c, 1, 53, 0
2, 242880, Note_on_c, 1, 79, 127
2, 242880, Note_off_c, 1, 81, 0
2, 242920, Note_on_c, 1, 41, 127
2, 242920, Note_on_c, 1, 53, 127
2, 242920, Note_on_c, 1, 60, 127
2, 242920, Note_on_c, 1, 65, 127
2, 242920, Note_off_c, 1, 79, 0
2, 242920, Note_on_c, 1, 81, 127
2, 243080, Note_off_c, 1, 81, 0
2, 243120, Note_on_c, 1, 63, 127
2, 243120, Note_on_c, 1, 81, 127
2, 243160, Note_off_c, 1, 60, 0
2, 243160, Note_off_c, 1, 63, 0
2, 243160, Note_off_c, 1, 65, 0
2, 243240, Note_off_c, 1, 81, 0
2, 243320, Note_on_c, 1, 57, 127
2, 243320, Note_on_c, 1, 60, 127
2, 243320, Note_on_c, 1, 65, 127
2, 243320, Note_on_c, 1, 79, 127
2, 243440, Note_off_c, 1, 79, 0
2, 243480, Note_on_c, 1, 78, 127
2, 243560, Note_off_c, 1, 78, 0
2, 243600, Note_on_c, 1, 75, 127
2, 243640, Note_off_c, 1, 75, 0
2, 243680, Note_on_c, 1, 46, 127
2, 243680, Note_on_c, 1, 77, 127
2, 243720, Note_on_c, 1, 45, 127
2, 243720, Note_off_c, 1, 46, 0
2, 243720, Note_off_c, 1, 77, 0
2, 243800, Note_on_c, 1, 79, 127
2, 243840, Note_off_c, 1, 45, 0
2, 243840, Note_off_c, 1, 79, 0
2, 243880, Note_on_c, 1, 81, 127
2, 243920, Note_off_c, 1, 81, 0
2, 243960, Note_on_c, 1, 82, 127
2, 244040, Note_off_c, 1, 41, 0
2, 244040, Note_off_c, 1, 53, 0
2, 244040, Note_off_c, 1, 57, 0
2, 244040, Note_off_c, 1, 65, 0
2, 244040, Note_off_c, 1, 82, 0
2, 244080, Note_on_c, 1, 75, 127
2, 244080, Note_on_c, 1, 84, 127
2, 244120, Note_off_c, 1, 84, 0
2, 244160, Note_on_c, 1, 82, 127
2, 244200, Note_off_c, 1, 75, 0
2, 244200, Note_off_c, 1, 82, 0
2, 244280, Note_on_c, 1, 74, 127
2, 244280, Note_on_c, 1, 79, 127
2, 244320, Note_off_c, 1, 74, 0
2, 244320, Note_off_c, 1, 79, 0
2, 244360, Note_on_c, 1, 82, 127
2, 244400, Note_off_c, 1, 60, 0
2, 244400, Note_off_c, 1, 82, 0
2, 244440, Note_on_c, 1, 58, 127
2, 244440, Note_on_c, 1, 74, 127
2, 244440, Note_on_c, 1, 82, 127
2, 244480, Note_off_c, 1, 82, 0
2, 244520, Note_off_c, 1, 58, 0
2, 244560, Note_on_c, 1, 82, 127
2, 244600, Note_off_c, 1, 74, 0
2, 244600, Note_off_c, 1, 82, 0
2, 244640, Note_on_c, 1, 50, 127
2, 244640, Note_on_c, 1, 77, 127
2, 244640, Note_on_c, 1, 81, 127
2, 244680, Note_off_c, 1, 50, 0
2, 244680, Note_off_c, 1, 77, 0
2, 244680, Note_off_c, 1, 81, 0
2, 244760, Note_on_c, 1, 82, 127
2, 244840, Note_on_c, 1, 38, 127
2, 244840, Note_on_c, 1, 50, 127
2, 244840, Note_on_c, 1, 55, 127
2, 244840, Note_on_c, 1, 62, 127
2, 244840, Note_on_c, 1, 77, 127
2, 244840, Note_on_c, 1, 79, 127
2, 244840, Note_off_c, 1, 82, 0
2, 244880, Note_off_c, 1, 79, 0
2, 244960, Note_on_c, 1, 81, 127
2, 245000, Note_off_c, 1, 38, 0
2, 245000, Note_off_c, 1, 50, 0
2, 245000, Note_off_c, 1, 77, 0
2, 245000, Note_off_c, 1, 81, 0
2, 245040, Note_on_c, 1, 40, 127
2, 245040, Note_on_c, 1, 86, 127
2, 245080, Note_off_c, 1, 86, 0
2, 245120, Note_off_c, 1, 40, 0
2, 245120, Note_off_c, 1, 55, 0
2, 245120, Note_off_c, 1, 62, 0
2, 245120, Note_on_c, 1, 80, 127
2, 245160, Note_off_c, 1, 80, 0
2, 245240, Note_on_c, 1, 36, 127
2, 245240, Note_on_c, 1, 48, 127
2, 245240, Note_on_c, 1, 53, 127
2, 245240, Note_on_c, 1, 55, 127
2, 245240, Note_on_c, 1, 58, 127
2, 245240, Note_on_c, 1, 62, 127
2, 245240, Note_on_c, 1, 64, 127
2, 245240, Note_on_c, 1, 79, 127
2, 245240, Note_on_c, 1, 84, 127
2, 245240, Note_on_c, 1, 88, 127
2, 245280, Note_off_c, 1, 88, 0
2, 245280, Note_on_c, 1, 89, 127
2, 245320, Note_on_c, 1, 52, 127
2, 245320, Note_off_c, 1, 53, 0
2, 245360, Note_off_c, 1, 64, 0
2, 245360, Note_off_c, 1, 79, 0
2, 245360, Note_off_c, 1, 84, 0
2, 245360, Note_off_c, 1, 89, 0
2, 245400, Note_off_c, 1, 52, 0
2, 245400, Note_on_c, 1, 53, 127
2, 245400, Note_on_c, 1, 89, 127
2, 245480, Note_off_c, 1, 89, 0
2, 245520, Note_on_c, 1, 77, 127
2, 245520, Note_on_c, 1, 88, 127
2, 245560, Note_off_c, 1, 77, 0
2, 245560, Note_off_c, 1, 88, 0
2, 245600, Note_on_c, 1, 79, 127
2, 245600, Note_on_c, 1, 89, 127
2, 245640, Note_off_c, 1, 89, 0
2, 245720, Note_on_c, 1, 88, 127
2, 245760, Note_off_c, 1, 79, 0
2, 245760, Note_off_c, 1, 88, 0
2, 245800, Note_on_c, 1, 77, 127
2, 245800, Note_on_c, 1, 86, 127
2, 245840, Note_off_c, 1, 86, 0
2, 245880, Note_on_c, 1, 82, 127
2, 245920, Note_off_c, 1, 82, 0
2, 245960, Note_off_c, 1, 77, 0
2, 246000, Note_on_c, 1, 77, 127
2, 246000, Note_on_c, 1, 86, 127
2, 246040, Note_off_c, 1, 77, 0
2, 246040, Note_off_c, 1, 86, 0
2, 246080, Note_on_c, 1, 76, 127
2, 246080, Note_on_c, 1, 88, 127
2, 246120, Note_off_c, 1, 88, 0
2, 246160, Note_off_c, 1, 76, 0
2, 246200, Note_on_c, 1, 84, 127
2, 246200, Note_on_c, 1, 88, 127
2, 246240, Note_off_c, 1, 84, 0
2, 246240, Note_off_c, 1, 88, 0
2, 246280, Note_on_c, 1, 77, 127
2, 246280, Note_on_c, 1, 86, 127
2, 246320, Note_off_c, 1, 77, 0
2, 246320, Note_off_c, 1, 86, 0
2, 246360, Note_on_c, 1, 76, 127
2, 246360, Note_on_c, 1, 84, 127
2, 246440, Note_off_c, 1, 76, 0
2, 246440, Note_off_c, 1, 84, 0
2, 246480, Note_on_c, 1, 81, 127
2, 246480, Note_on_c, 1, 84, 127
2, 246520, Note_off_c, 1, 84, 0
2, 246560, Note_on_c, 1, 79, 127
2, 246560, Note_off_c, 1, 81, 0
2, 246560, Note_on_c, 1, 89, 127
2, 246600, Note_off_c, 1, 89, 0
2, 246680, Note_on_c, 1, 84, 127
2, 246720, Note_off_c, 1, 79, 0
2, 246720, Note_off_c, 1, 84, 0
2, 246760, Note_on_c, 1, 81, 127
2, 246760, Note_on_c, 1, 88, 127
2, 246800, Note_off_c, 1, 81, 0
2, 246800, Note_off_c, 1, 88, 0
2, 246840, Note_on_c, 1, 82, 127
2, 246840, Note_on_c, 1, 86, 127
2, 246880, Note_on_c, 1, 81, 127
2, 246880, Note_off_c, 1, 82, 0
2, 246880, Note_on_c, 1, 84, 127
2, 246880, Note_off_c, 1, 86, 0
2, 246920, Note_off_c, 1, 81, 0
2, 246920, Note_off_c, 1, 84, 0
2, 246960, Note_on_c, 1, 79, 127
2, 246960, Note_on_c, 1, 84, 127
2, 247000, Note_off_c, 1, 79, 0
2, 247000, Note_off_c, 1, 84, 0
2, 247040, Note_on_c, 1, 79, 127
2, 247040, Note_on_c, 1, 83, 127
2, 247080, Note_off_c, 1, 79, 0
2, 247080, Note_off_c, 1, 83, 0
2, 247160, Note_on_c, 1, 81, 127
2, 247160, Note_on_c, 1, 84, 127
2, 247200, Note_off_c, 1, 81, 0
2, 247240, Note_on_c, 1, 81, 127
2, 247280, Note_off_c, 1, 81, 0
2, 247280, Note_off_c, 1, 84, 0
2, 247320, Note_on_c, 1, 79, 127
2, 247320, Note_on_c, 1, 81, 127
2, 247400, Note_off_c, 1, 79, 0
2, 247440, Note_on_c, 1, 72, 127
2, 247480, Note_off_c, 1, 72, 0
2, 247480, Note_off_c, 1, 81, 0
2, 247520, Note_on_c, 1, 77, 127
2, 247560, Note_off_c, 1, 77, 0
2, 247600, Note_on_c, 1, 76, 127
2, 247680, Note_off_c, 1, 76, 0
2, 247720, Note_on_c, 1, 77, 127
2, 247760, Note_off_c, 1, 77, 0
2, 247800, Note_on_c, 1, 76, 127
2, 247840, Note_off_c, 1, 76, 0
2, 247920, Note_on_c, 1, 74, 127
2, 247960, Note_off_c, 1, 74, 0
2, 248000, Note_off_c, 1, 55, 0
2, 248000, Note_on_c, 1, 76, 127
2, 248040, Note_off_c, 1, 76, 0
2, 248080, Note_on_c, 1, 73, 127
2, 248120, Note_off_c, 1, 73, 0
2, 248200, Note_on_c, 1, 64, 127
2, 248200, Note_on_c, 1, 67, 127
2, 248200, Note_on_c, 1, 74, 127
2, 248240, Note_off_c, 1, 67, 0
2, 248240, Note_off_c, 1, 74, 0
2, 248280, Note_off_c, 1, 64, 0
2, 248280, Note_on_c, 1, 76, 127
2, 248320, Note_off_c, 1, 76, 0
2, 248400, Note_on_c, 1, 33, 127
2, 248400, Note_off_c, 1, 36, 0
2, 248400, Note_on_c, 1, 70, 127
2, 248400, Note_on_c, 1, 77, 127
2, 248440, Note_off_c, 1, 33, 0
2, 248440, Note_on_c, 1, 36, 127
2, 248440, Note_off_c, 1, 77, 0
2, 248480, Note_on_c, 1, 74, 127
2, 248520, Note_off_c, 1, 36, 0
2, 248520, Note_off_c, 1, 48, 0
2, 248520, Note_off_c, 1, 53, 0
2, 248520, Note_off_c, 1, 58, 0
2, 248520, Note_off_c, 1, 62, 0
2, 248520, Note_off_c, 1, 70, 0
2, 248520, Note_off_c, 1, 74, 0
2, 248560, Note_on_c, 1, 33, 127
2, 248560, Note_on_c, 1, 45, 127
2, 248560, Note_on_c, 1, 52, 127
2, 248560, Note_on_c, 1, 57, 127
2, 248560, Note_on_c, 1, 64, 127
2, 248560, Note_on_c, 1, 69, 127
2, 248560, Note_on_c, 1, 73, 127
2, 248560, Note_on_c, 1, 79, 127
2, 248640, Note_off_c, 1, 64, 0
2, 248720, Note_off_c, 1, 79, 0
2, 248760, Note_on_c, 1, 78, 127
2, 248840, Note_off_c, 1, 78, 0
2, 248880, Note_on_c, 1, 76, 127
2, 248920, Note_off_c, 1, 69, 0
2, 248920, Note_off_c, 1, 73, 0
2, 248920, Note_off_c, 1, 76, 0
2, 248960, Note_on_c, 1, 69, 127
2, 248960, Note_on_c, 1, 73, 127
2, 248960, Note_on_c, 1, 79, 127
2, 249000, Note_off_c, 1, 79, 0
2, 249040, Note_on_c, 1, 81, 127
2, 249120, Note_off_c, 1, 33, 0
2, 249120, Note_off_c, 1, 45, 0
2, 249120, Note_off_c, 1, 52, 0
2, 249120, Note_off_c, 1, 57, 0
2, 249120, Note_off_c, 1, 69, 0
2, 249120, Note_off_c, 1, 73, 0
2, 249120, Note_off_c, 1, 81, 0
2, 249160, Note_on_c, 1, 89, 127
2, 249200, Note_off_c, 1, 89, 0
2, 249240, Note_on_c, 1, 88, 127
2, 249280, Note_off_c, 1, 88, 0
2, 249360, Note_on_c, 1, 88, 127
2, 249400, Note_off_c, 1, 88, 0
2, 249440, Note_on_c, 1, 89, 127
2, 249480, Note_off_c, 1, 89, 0
2, 249520, Note_on_c, 1, 89, 127
2, 249600, Note_off_c, 1, 89, 0
2, 249640, Note_on_c, 1, 76, 127
2, 249640, Note_on_c, 1, 88, 127
2, 249680, Note_off_c, 1, 76, 0
2, 249680, Note_off_c, 1, 88, 0
2, 249720, Note_on_c, 1, 76, 127
2, 249720, Note_on_c, 1, 88, 127
2, 249760, Note_off_c, 1, 76, 0
2, 249760, Note_off_c, 1, 88, 0
2, 249840, Note_on_c, 1, 87, 127
2, 249880, Note_off_c, 1, 87, 0
2, 249920, Note_on_c, 1, 86, 127
2, 249960, Note_off_c, 1, 86, 0
2, 250000, Note_on_c, 1, 86, 127
2, 250080, Note_off_c, 1, 86, 0
2, 250120, Note_on_c, 1, 76, 127
2, 250160, Note_off_c, 1, 76, 0
2, 250200, Note_on_c, 1, 88, 127
2, 250240, Note_off_c, 1, 88, 0
2, 250320, Note_on_c, 1, 76, 127
2, 250320, Note_on_c, 1, 88, 127
2, 250360, Note_off_c, 1, 76, 0
2, 250360, Note_off_c, 1, 88, 0
2, 250400, Note_on_c, 1, 76, 127
2, 250400, Note_on_c, 1, 88, 127
2, 250440, Note_off_c, 1, 76, 0
2, 250440, Note_off_c, 1, 88, 0
2, 250480, Note_on_c, 1, 76, 127
2, 250480, Note_on_c, 1, 88, 127
2, 250560, Note_off_c, 1, 76, 0
2, 250560, Note_off_c, 1, 88, 0
2, 250600, Note_on_c, 1, 79, 127
2, 250600, Note_on_c, 1, 88, 127
2, 250640, Note_off_c, 1, 79, 0
2, 250640, Note_off_c, 1, 88, 0
2, 250680, Note_on_c, 1, 76, 127
2, 250680, Note_on_c, 1, 88, 127
2, 250720, Note_off_c, 1, 76, 0
2, 250720, Note_off_c, 1, 88, 0
2, 250800, Note_on_c, 1, 74, 127
2, 250800, Note_on_c, 1, 86, 127
2, 250840, Note_off_c, 1, 74, 0
2, 250840, Note_off_c, 1, 86, 0
2, 250880, Note_on_c, 1, 76, 127
2, 250880, Note_on_c, 1, 88, 127
2, 250920, Note_off_c, 1, 76, 0
2, 250920, Note_off_c, 1, 88, 0
2, 250960, Note_on_c, 1, 86, 127
2, 251040, Note_off_c, 1, 86, 0
2, 251080, Note_on_c, 1, 68, 127
2, 251080, Note_on_c, 1, 77, 127
2, 251080, Note_on_c, 1, 84, 127
2, 251120, Note_off_c, 1, 68, 0
2, 251120, Note_off_c, 1, 77, 0
2, 251120, Note_off_c, 1, 84, 0
2, 251160, Note_on_c, 1, 88, 127
2, 251200, Note_off_c, 1, 88, 0
2, 251280, Note_on_c, 1, 74, 127
2, 251280, Note_on_c, 1, 80, 127
2, 251280, Note_on_c, 1, 88, 127
2, 251320, Note_off_c, 1, 74, 0
2, 251320, Note_off_c, 1, 80, 0
2, 251320, Note_off_c, 1, 88, 0
2, 251360, Note_on_c, 1, 80, 127
2, 251400, Note_off_c, 1, 80, 0
2, 251440, Note_on_c, 1, 68, 127
2, 251440, Note_on_c, 1, 78, 127
2, 251440, Note_on_c, 1, 83, 127
2, 251520, Note_off_c, 1, 68, 0
2, 251520, Note_off_c, 1, 78, 0
2, 251520, Note_off_c, 1, 83, 0
2, 251560, Note_on_c, 1, 81, 127
2, 251600, Note_off_c, 1, 81, 0
2, 251640, Note_on_c, 1, 76, 127
2, 251640, Note_on_c, 1, 81, 127
2, 251680, Note_off_c, 1, 76, 0
2, 251680, Note_off_c, 1, 81, 0
2, 251760, Note_on_c, 1, 77, 127
2, 251800, Note_off_c, 1, 77, 0
2, 251840, Note_on_c, 1, 66, 127
2, 251840, Note_on_c, 1, 76, 127
2, 251840, Note_on_c, 1, 83, 127
2, 251880, Note_off_c, 1, 66, 0
2, 251880, Note_off_c, 1, 76, 0
2, 251880, Note_off_c, 1, 83, 0
2, 251920, Note_on_c, 1, 81, 127
2, 252000, Note_off_c, 1, 81, 0
2, 252040, Note_on_c, 1, 64, 127
2, 252040, Note_on_c, 1, 76, 127
2, 252040, Note_on_c, 1, 80, 127
2, 252080, Note_off_c, 1, 64, 0
2, 252080, Note_off_c, 1, 76, 0
2, 252080, Note_off_c, 1, 80, 0
2, 252120, Note_on_c, 1, 77, 127
2, 252160, Note_off_c, 1, 77, 0
2, 252240, Note_on_c, 1, 65, 127
2, 252240, Note_on_c, 1, 74, 127
2, 252240, Note_on_c, 1, 82, 127
2, 252280, Note_off_c, 1, 65, 0
2, 252280, Note_off_c, 1, 74, 0
2, 252280, Note_off_c, 1, 82, 0
2, 252320, Note_on_c, 1, 77, 127
2, 252360, Note_off_c, 1, 77, 0
2, 252400, Note_on_c, 1, 64, 127
2, 252400, Note_on_c, 1, 74, 127
2, 252400, Note_on_c, 1, 83, 127
2, 252480, Note_off_c, 1, 64, 0
2, 252480, Note_off_c, 1, 74, 0
2, 252480, Note_off_c, 1, 83, 0
2, 252520, Note_on_c, 1, 86, 127
2, 252560, Note_off_c, 1, 86, 0
2, 252600, Note_on_c, 1, 69, 127
2, 252600, Note_on_c, 1, 73, 127
2, 252600, Note_on_c, 1, 81, 127
2, 252640, Note_off_c, 1, 69, 0
2, 252640, Note_off_c, 1, 73, 0
2, 252640, Note_off_c, 1, 81, 0
2, 252720, Note_on_c, 1, 80, 127
2, 252760, Note_off_c, 1, 80, 0
2, 252800, Note_on_c, 1, 69, 127
2, 252800, Note_on_c, 1, 73, 127
2, 252800, Note_on_c, 1, 79, 127
2, 252840, Note_off_c, 1, 69, 0
2, 252840, Note_off_c, 1, 73, 0
2, 252840, Note_off_c, 1, 79, 0
2, 252880, Note_on_c, 1, 73, 127
2, 252960, Note_off_c, 1, 73, 0
2, 253000, Note_on_c, 1, 69, 127
2, 253000, Note_on_c, 1, 73, 127
2, 253000, Note_on_c, 1, 76, 127
2, 253040, Note_off_c, 1, 69, 0
2, 253040, Note_off_c, 1, 73, 0
2, 253040, Note_off_c, 1, 76, 0
2, 253080, Note_on_c, 1, 74, 127
2, 253120, Note_off_c, 1, 74, 0
2, 253200, Note_on_c, 1, 67, 127
2, 253200, Note_on_c, 1, 73, 127
2, 253200, Note_on_c, 1, 81, 127
2, 253240, Note_off_c, 1, 67, 0
2, 253240, Note_off_c, 1, 73, 0
2, 253240, Note_off_c, 1, 81, 0
2, 253280, Note_on_c, 1, 69, 127
2, 253320, Note_off_c, 1, 69, 0
2, 253360, Note_on_c, 1, 64, 127
2, 253360, Note_on_c, 1, 71, 127
2, 253360, Note_on_c, 1, 80, 127
2, 253400, Note_off_c, 1, 80, 0
2, 253440, Note_off_c, 1, 64, 0
2, 253440, Note_off_c, 1, 71, 0
2, 253480, Note_on_c, 1, 69, 127
2, 253520, Note_off_c, 1, 69, 0
2, 253560, Note_on_c, 1, 67, 127
2, 253560, Note_on_c, 1, 73, 127
2, 253560, Note_on_c, 1, 81, 127
2, 253600, Note_off_c, 1, 67, 0
2, 253600, Note_off_c, 1, 81, 0
2, 253680, Note_on_c, 1, 69, 127
2, 253720, Note_off_c, 1, 69, 0
2, 253720, Note_off_c, 1, 73, 0
2, 253760, Note_on_c, 1, 73, 127
2, 253760, Note_on_c, 1, 76, 127
2, 253760, Note_on_c, 1, 82, 127
2, 253800, Note_off_c, 1, 82, 0
2, 253960, Note_on_c, 1, 67, 127
2, 253960, Note_on_c, 1, 82, 127
2, 254000, Note_off_c, 1, 67, 0
2, 254000, Note_off_c, 1, 82, 0
2, 254040, Note_on_c, 1, 70, 127
2, 254080, Note_off_c, 1, 70, 0
2, 254080, Note_off_c, 1, 73, 0
2, 254080, Note_off_c, 1, 76, 0
2, 254160, Note_on_c, 1, 61, 127
2, 254160, Note_on_c, 1, 69, 127
2, 254160, Note_on_c, 1, 73, 127
2, 254160, Note_on_c, 1, 76, 127
2, 254200, Note_off_c, 1, 76, 0
2, 254280, Note_off_c, 1, 61, 0
2, 254280, Note_off_c, 1, 69, 0
2, 254280, Note_off_c, 1, 73, 0
2, 254320, Note_on_c, 1, 70, 127
2, 254320, Note_on_c, 1, 74, 127
2, 254400, Note_off_c, 1, 70, 0
2, 254400, Note_off_c, 1, 74, 0
2, 254440, Note_on_c, 1, 70, 127
2, 254480, Note_off_c, 1, 70, 0
2, 254520, Note_on_c, 1, 40, 127
2, 254520, Note_on_c, 1, 52, 127
2, 254520, Note_on_c, 1, 55, 127
2, 254520, Note_on_c, 1, 59, 127
2, 254520, Note_on_c, 1, 67, 127
2, 254520, Note_on_c, 1, 70, 127
2, 254520, Note_on_c, 1, 72, 127
2, 254560, Note_off_c, 1, 67, 0
2, 254560, Note_off_c, 1, 70, 0
2, 254560, Note_off_c, 1, 72, 0
2, 254560, Note_on_c, 1, 73, 127
2, 254640, Note_on_c, 1, 70, 127
2, 254680, Note_off_c, 1, 70, 0
2, 254720, Note_on_c, 1, 67, 127
2, 254720, Note_on_c, 1, 70, 127
2, 254760, Note_off_c, 1, 67, 0
2, 254760, Note_off_c, 1, 70, 0
2, 254800, Note_on_c, 1, 69, 127
2, 254880, Note_off_c, 1, 52, 0
2, 254880, Note_off_c, 1, 55, 0
2, 254880, Note_off_c, 1, 59, 0
2, 254880, Note_off_c, 1, 69, 0
2, 254880, Note_off_c, 1, 73, 0
2, 254920, Note_on_c, 1, 52, 127
2, 254920, Note_on_c, 1, 55, 127
2, 254920, Note_on_c, 1, 67, 127
2, 254920, Note_on_c, 1, 70, 127
2, 254920, Note_on_c, 1, 76, 127
2, 254960, Note_off_c, 1, 70, 0
2, 255040, Note_off_c, 1, 40, 0
2, 255040, Note_off_c, 1, 52, 0
2, 255040, Note_off_c, 1, 55, 0
2, 255040, Note_off_c, 1, 67, 0
2, 255040, Note_off_c, 1, 76, 0
2, 255120, Note_on_c, 1, 56, 127
2, 255120, Note_on_c, 1, 72, 127
2, 255120, Note_on_c, 1, 84, 127
2, 255160, Note_off_c, 1, 56, 0
2, 255160, Note_off_c, 1, 72, 0
2, 255200, Note_on_c, 1, 55, 127
2, 255200, Note_on_c, 1, 77, 127
2, 255240, Note_off_c, 1, 55, 0
2, 255240, Note_off_c, 1, 77, 0
2, 255240, Note_off_c, 1, 84, 0
2, 255280, Note_on_c, 1, 55, 127
2, 255280, Note_on_c, 1, 77, 127
2, 255280, Note_on_c, 1, 83, 127
2, 255360, Note_off_c, 1, 55, 0
2, 255360, Note_off_c, 1, 77, 0
2, 255400, Note_on_c, 1, 53, 127
2, 255400, Note_on_c, 1, 77, 127
2, 255440, Note_off_c, 1, 53, 0
2, 255440, Note_off_c, 1, 77, 0
2, 255440, Note_off_c, 1, 83, 0
2, 255480, Note_on_c, 1, 36, 127
2, 255480, Note_on_c, 1, 48, 127
2, 255480, Note_on_c, 1, 52, 127
2, 255480, Note_on_c, 1, 55, 127
2, 255480, Note_on_c, 1, 60, 127
2, 255480, Note_on_c, 1, 67, 127
2, 255480, Note_on_c, 1, 72, 127
2, 255480, Note_on_c, 1, 76, 127
2, 255520, Note_off_c, 1, 76, 0
2, 255640, Note_off_c, 1, 36, 0
2, 255640, Note_off_c, 1, 48, 0
2, 255640, Note_off_c, 1, 52, 0
2, 255640, Note_off_c, 1, 55, 0
2, 255640, Note_off_c, 1, 60, 0
2, 255640, Note_off_c, 1, 67, 0
2, 255640, Note_off_c, 1, 72, 0
2, 255680, Note_on_c, 1, 36, 127
2, 255680, Note_on_c, 1, 48, 127
2, 255680, Note_on_c, 1, 53, 127
2, 255680, Note_on_c, 1, 55, 127
2, 255680, Note_on_c, 1, 62, 127
2, 255680, Note_on_c, 1, 67, 127
2, 255680, Note_on_c, 1, 71, 127
2, 255720, Note_off_c, 1, 71, 0
2, 255760, Note_on_c, 1, 72, 127
2, 255840, Note_off_c, 1, 72, 0
2, 255880, Note_on_c, 1, 70, 127
2, 255920, Note_off_c, 1, 70, 0
2, 255960, Note_on_c, 1, 72, 127
2, 256000, Note_off_c, 1, 36, 0
2, 256000, Note_off_c, 1, 48, 0
2, 256000, Note_off_c, 1, 53, 0
2, 256000, Note_off_c, 1, 55, 0
2, 256000, Note_off_c, 1, 62, 0
2, 256000, Note_off_c, 1, 67, 0
2, 256000, Note_off_c, 1, 72, 0
2, 256080, Note_on_c, 1, 77, 127
2, 256120, Note_off_c, 1, 77, 0
2, 256160, Note_on_c, 1, 77, 127
2, 256200, Note_off_c, 1, 77, 0
2, 256240, Note_on_c, 1, 32, 127
2, 256240, Note_on_c, 1, 43, 127
2, 256240, Note_on_c, 1, 48, 127
2, 256240, Note_on_c, 1, 56, 127
2, 256240, Note_on_c, 1, 60, 127
2, 256240, Note_on_c, 1, 77, 127
2, 256280, Note_off_c, 1, 32, 0
2, 256280, Note_on_c, 1, 36, 127
2, 256280, Note_on_c, 1, 40, 127
2, 256280, Note_off_c, 1, 43, 0
2, 256280, Note_on_c, 1, 53, 127
2, 256280, Note_off_c, 1, 77, 0
2, 256360, Note_off_c, 1, 40, 0
2, 256360, Note_on_c, 1, 76, 127
2, 256400, Note_off_c, 1, 53, 0
2, 256400, Note_off_c, 1, 56, 0
2, 256400, Note_off_c, 1, 60, 0
2, 256400, Note_off_c, 1, 76, 0
2, 256440, Note_on_c, 1, 74, 127
2, 256480, Note_off_c, 1, 74, 0
2, 256560, Note_on_c, 1, 72, 127
2, 256600, Note_off_c, 1, 36, 0
2, 256600, Note_off_c, 1, 48, 0
2, 256600, Note_off_c, 1, 72, 0
2, 256640, Note_on_c, 1, 41, 127
2, 256640, Note_on_c, 1, 53, 127
2, 256640, Note_on_c, 1, 69, 127
2, 256680, Note_off_c, 1, 69, 0
2, 256720, Note_on_c, 1, 72, 127
2, 256800, Note_off_c, 1, 72, 0
2, 256840, Note_on_c, 1, 57, 127
2, 256840, Note_on_c, 1, 60, 127
2, 256840, Note_on_c, 1, 74, 127
2, 256880, Note_off_c, 1, 74, 0
2, 256920, Note_on_c, 1, 69, 127
2, 256960, Note_off_c, 1, 53, 0
2, 256960, Note_off_c, 1, 57, 0
2, 256960, Note_off_c, 1, 60, 0
2, 256960, Note_off_c, 1, 69, 0
2, 257040, Note_on_c, 1, 65, 127
2, 257040, Note_on_c, 1, 69, 127
2, 257040, Note_on_c, 1, 72, 127
2, 257080, Note_off_c, 1, 72, 0
2, 257160, Note_off_c, 1, 65, 0
2, 257160, Note_off_c, 1, 69, 0
2, 257200, Note_on_c, 1, 57, 127
2, 257200, Note_on_c, 1, 65, 127
2, 257280, Note_off_c, 1, 57, 0
2, 257280, Note_off_c, 1, 65, 0
2, 257320, Note_on_c, 1, 69, 127
2, 257360, Note_off_c, 1, 69, 0
2, 257400, Note_on_c, 1, 55, 127
2, 257400, Note_on_c, 1, 64, 127
2, 257400, Note_on_c, 1, 67, 127
2, 257440, Note_off_c, 1, 55, 0
2, 257440, Note_off_c, 1, 67, 0
2, 257520, Note_on_c, 1, 70, 127
2, 257560, Note_off_c, 1, 64, 0
2, 257560, Note_off_c, 1, 70, 0
2, 257600, Note_on_c, 1, 57, 127
2, 257600, Note_on_c, 1, 69, 127
2, 257640, Note_off_c, 1, 57, 0
2, 257640, Note_off_c, 1, 69, 0
2, 257680, Note_on_c, 1, 67, 127
2, 257760, Note_off_c, 1, 41, 0
2, 257760, Note_off_c, 1, 67, 0
2, 257800, Note_on_c, 1, 41, 127
2, 257800, Note_on_c, 1, 67, 127
2, 257840, Note_off_c, 1, 67, 0
2, 257880, Note_on_c, 1, 65, 127
2, 257920, Note_off_c, 1, 65, 0
2, 258000, Note_on_c, 1, 53, 127
2, 258000, Note_on_c, 1, 57, 127
2, 258000, Note_on_c, 1, 60, 127
2, 258000, Note_on_c, 1, 67, 127
2, 258040, Note_off_c, 1, 67, 0
2, 258080, Note_off_c, 1, 60, 0
2, 258080, Note_on_c, 1, 65, 127
2, 258120, Note_off_c, 1, 65, 0
2, 258160, Note_on_c, 1, 60, 127
2, 258160, Note_on_c, 1, 65, 127
2, 258160, Note_on_c, 1, 77, 127
2, 258240, Note_off_c, 1, 65, 0
2, 258320, Note_off_c, 1, 41, 0
2, 258320, Note_off_c, 1, 57, 0
2, 258320, Note_off_c, 1, 60, 0
2, 258320, Note_off_c, 1, 77, 0
2, 258360, Note_on_c, 1, 60, 127
2, 258360, Note_on_c, 1, 69, 127
2, 258360, Note_on_c, 1, 77, 127
2, 258400, Note_off_c, 1, 60, 0
2, 258400, Note_off_c, 1, 69, 0
2, 258480, Note_on_c, 1, 72, 127
2, 258520, Note_off_c, 1, 72, 0
2, 258520, Note_off_c, 1, 77, 0
2, 258560, Note_on_c, 1, 57, 127
2, 258560, Note_on_c, 1, 65, 127
2, 258560, Note_on_c, 1, 77, 127
2, 258600, Note_off_c, 1, 57, 0
2, 258600, Note_off_c, 1, 65, 0
2, 258640, Note_on_c, 1, 72, 127
2, 258720, Note_off_c, 1, 53, 0
2, 258720, Note_off_c, 1, 72, 0
2, 258720, Note_off_c, 1, 77, 0
2, 258760, Note_on_c, 1, 41, 127
2, 258760, Note_on_c, 1, 53, 127
2, 258760, Note_on_c, 1, 57, 127
2, 258760, Note_on_c, 1, 60, 127
2, 258760, Note_on_c, 1, 65, 127
2, 258760, Note_on_c, 1, 70, 127
2, 258800, Note_off_c, 1, 70, 0
2, 258800, Note_on_c, 1, 77, 127
2, 258840, Note_on_c, 1, 69, 127
2, 258880, Note_off_c, 1, 57, 0
2, 258880, Note_off_c, 1, 60, 0
2, 258880, Note_off_c, 1, 69, 0
2, 258960, Note_on_c, 1, 60, 127
2, 258960, Note_on_c, 1, 69, 127
2, 259000, Note_off_c, 1, 69, 0
2, 259040, Note_on_c, 1, 80, 127
2, 259080, Note_off_c, 1, 41, 0
2, 259080, Note_off_c, 1, 53, 0
2, 259080, Note_off_c, 1, 60, 0
2, 259080, Note_on_c, 1, 64, 127
2, 259080, Note_off_c, 1, 65, 0
2, 259080, Note_off_c, 1, 77, 0
2, 259080, Note_off_c, 1, 80, 0
2, 259120, Note_on_c, 1, 48, 127
2, 259120, Note_on_c, 1, 60, 127
2, 259120, Note_off_c, 1, 64, 0
2, 259120, Note_on_c, 1, 65, 127
2, 259120, Note_on_c, 1, 69, 127
2, 259120, Note_on_c, 1, 77, 127
2, 259160, Note_off_c, 1, 77, 0
2, 259240, Note_on_c, 1, 76, 127
2, 259280, Note_off_c, 1, 65, 0
2, 259280, Note_off_c, 1, 69, 0
2, 259280, Note_off_c, 1, 76, 0
2, 259320, Note_on_c, 1, 65, 127
2, 259320, Note_on_c, 1, 69, 127
2, 259320, Note_on_c, 1, 71, 127
2, 259320, Note_on_c, 1, 74, 127
2, 259360, Note_off_c, 1, 71, 0
2, 259440, Note_on_c, 1, 68, 127
2, 259440, Note_off_c, 1, 69, 0
2, 259480, Note_off_c, 1, 48, 0
2, 259480, Note_off_c, 1, 60, 0
2, 259480, Note_off_c, 1, 65, 0
2, 259480, Note_off_c, 1, 68, 0
2, 259480, Note_off_c, 1, 74, 0
2, 259520, Note_on_c, 1, 36, 127
2, 259520, Note_on_c, 1, 48, 127
2, 259520, Note_on_c, 1, 59, 127
2, 259520, Note_on_c, 1, 64, 127
2, 259520, Note_on_c, 1, 71, 127
2, 259560, Note_on_c, 1, 69, 127
2, 259560, Note_off_c, 1, 71, 0
2, 259600, Note_on_c, 1, 65, 127
2, 259640, Note_off_c, 1, 65, 0
2, 259680, Note_off_c, 1, 59, 0
2, 259680, Note_on_c, 1, 67, 127
2, 259720, Note_on_c, 1, 55, 127
2, 259760, Note_off_c, 1, 69, 0
2, 259800, Note_on_c, 1, 72, 127
2, 259840, Note_off_c, 1, 36, 0
2, 259840, Note_off_c, 1, 48, 0
2, 259840, Note_off_c, 1, 55, 0
2, 259840, Note_off_c, 1, 64, 0
2, 259840, Note_off_c, 1, 67, 0
2, 259840, Note_off_c, 1, 72, 0
2, 259920, Note_on_c, 1, 52, 127
2, 259920, Note_on_c, 1, 64, 127
2, 259920, Note_on_c, 1, 67, 127
2, 259920, Note_on_c, 1, 76, 127
2, 259960, Note_off_c, 1, 52, 0
2, 259960, Note_off_c, 1, 76, 0
2, 260000, Note_on_c, 1, 55, 127
2, 260000, Note_on_c, 1, 75, 127
2, 260040, Note_off_c, 1, 55, 0
2, 260040, Note_off_c, 1, 75, 0
2, 260080, Note_on_c, 1, 51, 127
2, 260080, Note_on_c, 1, 73, 127
2, 260160, Note_off_c, 1, 51, 0
2, 260160, Note_off_c, 1, 73, 0
2, 260200, Note_on_c, 1, 53, 127
2, 260200, Note_on_c, 1, 72, 127
2, 260240, Note_off_c, 1, 53, 0
2, 260240, Note_off_c, 1, 64, 0
2, 260240, Note_off_c, 1, 67, 0
2, 260240, Note_off_c, 1, 72, 0
2, 260280, Note_on_c, 1, 53, 127
2, 260280, Note_on_c, 1, 55, 127
2, 260280, Note_on_c, 1, 65, 127
2, 260280, Note_on_c, 1, 69, 127
2, 260280, Note_on_c, 1, 72, 127
2, 260320, Note_off_c, 1, 55, 0
2, 260320, Note_off_c, 1, 72, 0
2, 260440, Note_off_c, 1, 53, 0
2, 260440, Note_off_c, 1, 65, 0
2, 260480, Note_on_c, 1, 53, 127
2, 260480, Note_on_c, 1, 57, 127
2, 260480, Note_on_c, 1, 60, 127
2, 260480, Note_on_c, 1, 65, 127
2, 260480, Note_on_c, 1, 72, 127
2, 260520, Note_off_c, 1, 72, 0
2, 260640, Note_off_c, 1, 53, 0
2, 260640, Note_off_c, 1, 57, 0
2, 260640, Note_off_c, 1, 60, 0
2, 260640, Note_off_c, 1, 65, 0
2, 260640, Note_off_c, 1, 69, 0
2, 260680, Note_on_c, 1, 52, 127
2, 260680, Note_on_c, 1, 55, 127
2, 260680, Note_on_c, 1, 59, 127
2, 260680, Note_on_c, 1, 62, 127
2, 260680, Note_on_c, 1, 67, 127
2, 260680, Note_on_c, 1, 71, 127
2, 260720, Note_off_c, 1, 52, 0
2, 260880, Note_on_c, 1, 75, 127
2, 260920, Note_off_c, 1, 75, 0
2, 260960, Note_on_c, 1, 74, 127
2, 261000, Note_off_c, 1, 55, 0
2, 261000, Note_off_c, 1, 59, 0
2, 261000, Note_off_c, 1, 62, 0
2, 261000, Note_off_c, 1, 67, 0
2, 261000, Note_off_c, 1, 71, 0
2, 261000, Note_off_c, 1, 74, 0
2, 261040, Note_on_c, 1, 72, 127
2, 261120, Note_off_c, 1, 72, 0
2, 261160, Note_on_c, 1, 71, 127
2, 261200, Note_off_c, 1, 71, 0
2, 261240, Note_on_c, 1, 69, 127
2, 261280, Note_off_c, 1, 69, 0
2, 261360, Note_on_c, 1, 67, 127
2, 261400, Note_off_c, 1, 67, 0
2, 261440, Note_on_c, 1, 34, 127
2, 261440, Note_on_c, 1, 46, 127
2, 261440, Note_on_c, 1, 58, 127
2, 261440, Note_on_c, 1, 67, 127
2, 261480, Note_off_c, 1, 67, 0
2, 261520, Note_on_c, 1, 65, 127
2, 261600, Note_off_c, 1, 65, 0
2, 261640, Note_on_c, 1, 64, 127
2, 261680, Note_off_c, 1, 64, 0
2, 261720, Note_on_c, 1, 65, 127
2, 261760, Note_off_c, 1, 65, 0
2, 261840, Note_on_c, 1, 62, 127
2, 261880, Note_off_c, 1, 62, 0
2, 261920, Note_on_c, 1, 67, 127
2, 261960, Note_off_c, 1, 67, 0
2, 262000, Note_on_c, 1, 62, 127
2, 262000, Note_on_c, 1, 65, 127
2, 262040, Note_off_c, 1, 65, 0
2, 262120, Note_on_c, 1, 65, 127
2, 262160, Note_off_c, 1, 58, 0
2, 262160, Note_off_c, 1, 62, 0
2, 262160, Note_off_c, 1, 65, 0
2, 262200, Note_on_c, 1, 55, 127
2, 262200, Note_on_c, 1, 56, 127
2, 262200, Note_on_c, 1, 60, 127
2, 262200, Note_on_c, 1, 65, 127
2, 262240, Note_off_c, 1, 65, 0
2, 262280, Note_off_c, 1, 56, 0
2, 262280, Note_on_c, 1, 58, 127
2, 262280, Note_off_c, 1, 60, 0
2, 262280, Note_on_c, 1, 64, 127
2, 262360, Note_off_c, 1, 64, 0
2, 262400, Note_on_c, 1, 60, 127
2, 262400, Note_on_c, 1, 65, 127
2, 262440, Note_off_c, 1, 60, 0
2, 262440, Note_on_c, 1, 62, 127
2, 262440, Note_off_c, 1, 65, 0
2, 262480, Note_off_c, 1, 62, 0
2, 262480, Note_on_c, 1, 65, 127
2, 262520, Note_off_c, 1, 34, 0
2, 262520, Note_off_c, 1, 46, 0
2, 262520, Note_off_c, 1, 55, 0
2, 262520, Note_off_c, 1, 58, 0
2, 262520, Note_off_c, 1, 65, 0
2, 262600, Note_on_c, 1, 39, 127
2, 262600, Note_on_c, 1, 51, 127
2, 262600, Note_on_c, 1, 55, 127
2, 262600, Note_on_c, 1, 60, 127
2, 262640, Note_off_c, 1, 60, 0
2, 262680, Note_on_c, 1, 58, 127
2, 262720, Note_off_c, 1, 58, 0
2, 262760, Note_on_c, 1, 64, 127
2, 262840, Note_off_c, 1, 64, 0
2, 262880, Note_on_c, 1, 58, 127
2, 262920, Note_off_c, 1, 39, 0
2, 262920, Note_off_c, 1, 51, 0
2, 262920, Note_off_c, 1, 55, 0
2, 262920, Note_off_c, 1, 58, 0
2, 262960, Note_on_c, 1, 82, 127
2, 263000, Note_off_c, 1, 82, 0
2, 263080, Note_on_c, 1, 81, 127
2, 263120, Note_off_c, 1, 81, 0
2, 263160, Note_on_c, 1, 75, 127
2, 263200, Note_off_c, 1, 75, 0
2, 263240, Note_on_c, 1, 87, 127
2, 263320, Note_off_c, 1, 87, 0
2, 263360, Note_on_c, 1, 49, 127
2, 263360, Note_on_c, 1, 52, 127
2, 263360, Note_on_c, 1, 55, 127
2, 263360, Note_on_c, 1, 76, 127
2, 263360, Note_on_c, 1, 82, 127
2, 263400, Note_off_c, 1, 76, 0
2, 263400, Note_on_c, 1, 79, 127
2, 263400, Note_off_c, 1, 82, 0
2, 263440, Note_on_c, 1, 76, 127
2, 263440, Note_on_c, 1, 82, 127
2, 263480, Note_off_c, 1, 49, 0
2, 263480, Note_off_c, 1, 52, 0
2, 263480, Note_off_c, 1, 55, 0
2, 263480, Note_off_c, 1, 76, 0
2, 263680, Note_on_c, 1, 76, 127
2, 263680, Note_off_c, 1, 79, 0
2, 263720, Note_on_c, 1, 70, 127
2, 263720, Note_off_c, 1, 76, 0
2, 263720, Note_on_c, 1, 79, 127
2, 263800, Note_off_c, 1, 70, 0
2, 263840, Note_on_c, 1, 72, 127
2, 263880, Note_off_c, 1, 72, 0
2, 263920, Note_on_c, 1, 76, 127
2, 263960, Note_off_c, 1, 76, 0
2, 263960, Note_off_c, 1, 79, 0
2, 264040, Note_on_c, 1, 77, 127
2, 264080, Note_off_c, 1, 77, 0
2, 264080, Note_off_c, 1, 82, 0
2, 264120, Note_on_c, 1, 73, 127
2, 264120, Note_on_c, 1, 82, 127
2, 264120, Note_on_c, 1, 84, 127
2, 264160, Note_off_c, 1, 73, 0
2, 264160, Note_off_c, 1, 84, 0
2, 264200, Note_on_c, 1, 70, 127
2, 264280, Note_off_c, 1, 70, 0
2, 264320, Note_on_c, 1, 73, 127
2, 264320, Note_on_c, 1, 79, 127
2, 264360, Note_off_c, 1, 73, 0
2, 264360, Note_off_c, 1, 79, 0
2, 264400, Note_on_c, 1, 73, 127
2, 264440, Note_off_c, 1, 73, 0
2, 264440, Note_off_c, 1, 82, 0
2, 264520, Note_on_c, 1, 69, 127
2, 264520, Note_on_c, 1, 82, 127
2, 264520, Note_on_c, 1, 84, 127
2, 264560, Note_off_c, 1, 69, 0
2, 264560, Note_off_c, 1, 84, 0
2, 264600, Note_on_c, 1, 70, 127
2, 264600, Note_on_c, 1, 84, 127
2, 264640, Note_off_c, 1, 70, 0
2, 264640, Note_off_c, 1, 84, 0
2, 264680, Note_on_c, 1, 65, 127
2, 264680, Note_on_c, 1, 81, 127
2, 264680, Note_off_c, 1, 82, 0
2, 264680, Note_on_c, 1, 84, 127
2, 264720, Note_off_c, 1, 65, 0
2, 264720, Note_off_c, 1, 81, 0
2, 264720, Note_off_c, 1, 84, 0
2, 264800, Note_on_c, 1, 73, 127
2, 264800, Note_on_c, 1, 82, 127
2, 264840, Note_off_c, 1, 73, 0
2, 264840, Note_off_c, 1, 82, 0
2, 264880, Note_on_c, 1, 70, 127
2, 264880, Note_on_c, 1, 79, 127
2, 264880, Note_on_c, 1, 84, 127
2, 264920, Note_off_c, 1, 70, 0
2, 264920, Note_off_c, 1, 79, 0
2, 264920, Note_off_c, 1, 84, 0
2, 265000, Note_on_c, 1, 72, 127
2, 265040, Note_off_c, 1, 72, 0
2, 265080, Note_on_c, 1, 76, 127
2, 265080, Note_on_c, 1, 84, 127
2, 265120, Note_off_c, 1, 76, 0
2, 265120, Note_off_c, 1, 84, 0
2, 265160, Note_on_c, 1, 70, 127
2, 265240, Note_off_c, 1, 70, 0
2, 265280, Note_on_c, 1, 64, 127
2, 265280, Note_on_c, 1, 76, 127
2, 265280, Note_on_c, 1, 79, 127
2, 265280, Note_on_c, 1, 84, 127
2, 265320, Note_off_c, 1, 64, 0
2, 265320, Note_on_c, 1, 82, 127
2, 265320, Note_off_c, 1, 84, 0
2, 265360, Note_on_c, 1, 72, 127
2, 265400, Note_off_c, 1, 72, 0
2, 265480, Note_on_c, 1, 70, 127
2, 265520, Note_off_c, 1, 70, 0
2, 265560, Note_on_c, 1, 70, 127
2, 265600, Note_off_c, 1, 70, 0
2, 265640, Note_on_c, 1, 70, 127
2, 265720, Note_off_c, 1, 70, 0
2, 265760, Note_on_c, 1, 67, 127
2, 265800, Note_off_c, 1, 67, 0
2, 265800, Note_off_c, 1, 76, 0
2, 265800, Note_off_c, 1, 79, 0
2, 265800, Note_off_c, 1, 82, 0
2, 265840, Note_on_c, 1, 64, 127
2, 265840, Note_on_c, 1, 80, 127
2, 265880, Note_off_c, 1, 64, 0
2, 265880, Note_off_c, 1, 80, 0
2, 265960, Note_on_c, 1, 65, 127
2, 266000, Note_off_c, 1, 65, 0
2, 266040, Note_on_c, 1, 64, 127
2, 266080, Note_off_c, 1, 64, 0
2, 266120, Note_on_c, 1, 65, 127
2, 266200, Note_off_c, 1, 65, 0
2, 266240, Note_on_c, 1, 61, 127
2, 266280, Note_off_c, 1, 61, 0
2, 266320, Note_on_c, 1, 65, 127
2, 266360, Note_off_c, 1, 65, 0
2, 266440, Note_on_c, 1, 70, 127
2, 266480, Note_off_c, 1, 70, 0
2, 266520, Note_on_c, 1, 74, 127
2, 266560, Note_off_c, 1, 74, 0
2, 266600, Note_on_c, 1, 76, 127
2, 266680, Note_off_c, 1, 76, 0
2, 266720, Note_on_c, 1, 80, 127
2, 266760, Note_off_c, 1, 80, 0
2, 266800, Note_on_c, 1, 79, 127
2, 266840, Note_off_c, 1, 79, 0
2, 266920, Note_on_c, 1, 80, 127
2, 266960, Note_off_c, 1, 80, 0
2, 267000, Note_on_c, 1, 82, 127
2, 267040, Note_off_c, 1, 82, 0
2, 267080, Note_on_c, 1, 84, 127
2, 267160, Note_off_c, 1, 84, 0
2, 267200, Note_on_c, 1, 82, 127
2, 267240, Note_off_c, 1, 82, 0
2, 267280, Note_on_c, 1, 81, 127
2, 267320, Note_off_c, 1, 81, 0
2, 267400, Note_on_c, 1, 82, 127
2, 267440, Note_off_c, 1, 82, 0
2, 267480, Note_on_c, 1, 84, 127
2, 267520, Note_off_c, 1, 84, 0
2, 267560, Note_on_c, 1, 86, 127
2, 267640, Note_off_c, 1, 86, 0
2, 267680, Note_on_c, 1, 84, 127
2, 267720, Note_off_c, 1, 84, 0
2, 267760, Note_on_c, 1, 82, 127
2, 267800, Note_off_c, 1, 82, 0
2, 267880, Note_on_c, 1, 84, 127
2, 267920, Note_off_c, 1, 84, 0
2, 267960, Note_on_c, 1, 51, 127
2, 267960, Note_on_c, 1, 64, 127
2, 267960, Note_on_c, 1, 79, 127
2, 267960, Note_on_c, 1, 82, 127
2, 268000, Note_off_c, 1, 51, 0
2, 268000, Note_off_c, 1, 64, 0
2, 268000, Note_off_c, 1, 79, 0
2, 268000, Note_off_c, 1, 82, 0
2, 268040, Note_on_c, 1, 82, 127
2, 268120, Note_on_c, 1, 53, 127
2, 268160, Note_on_c, 1, 62, 127
2, 268160, Note_on_c, 1, 79, 127
2, 268200, Note_off_c, 1, 53, 0
2, 268200, Note_off_c, 1, 62, 0
2, 268200, Note_off_c, 1, 79, 0
2, 268200, Note_on_c, 1, 81, 127
2, 268200, Note_off_c, 1, 82, 0
2, 268240, Note_on_c, 1, 58, 127
2, 268240, Note_on_c, 1, 70, 127
2, 268240, Note_off_c, 1, 81, 0
2, 268240, Note_on_c, 1, 82, 127
2, 268280, Note_off_c, 1, 58, 0
2, 268280, Note_off_c, 1, 70, 0
2, 268360, Note_on_c, 1, 63, 127
2, 268360, Note_on_c, 1, 72, 127
2, 268360, Note_on_c, 1, 84, 127
2, 268400, Note_off_c, 1, 63, 0
2, 268400, Note_off_c, 1, 72, 0
2, 268400, Note_off_c, 1, 84, 0
2, 268440, Note_on_c, 1, 58, 127
2, 268440, Note_on_c, 1, 74, 127
2, 268440, Note_on_c, 1, 86, 127
2, 268480, Note_off_c, 1, 58, 0
2, 268480, Note_off_c, 1, 74, 0
2, 268480, Note_off_c, 1, 82, 0
2, 268480, Note_off_c, 1, 86, 0
2, 268520, Note_on_c, 1, 62, 127
2, 268520, Note_on_c, 1, 77, 127
2, 268520, Note_on_c, 1, 82, 127
2, 268600, Note_off_c, 1, 62, 0
2, 268600, Note_off_c, 1, 77, 0
2, 268600, Note_off_c, 1, 82, 0
2, 268640, Note_on_c, 1, 60, 127
2, 268640, Note_on_c, 1, 75, 127
2, 268640, Note_on_c, 1, 81, 127
2, 268680, Note_off_c, 1, 60, 0
2, 268680, Note_off_c, 1, 75, 0
2, 268680, Note_off_c, 1, 81, 0
2, 268720, Note_on_c, 1, 57, 127
2, 268720, Note_on_c, 1, 77, 127
2, 268720, Note_on_c, 1, 84, 127
2, 268760, Note_off_c, 1, 57, 0
2, 268760, Note_off_c, 1, 77, 0
2, 268760, Note_off_c, 1, 84, 0
2, 268840, Note_on_c, 1, 58, 127
2, 268840, Note_on_c, 1, 65, 127
2, 268840, Note_on_c, 1, 70, 127
2, 268840, Note_on_c, 1, 82, 127
2, 268960, Note_off_c, 1, 70, 0
2, 268960, Note_off_c, 1, 82, 0
2, 269000, Note_on_c, 1, 69, 127
2, 269000, Note_on_c, 1, 84, 127
2, 269160, Note_off_c, 1, 58, 0
2, 269160, Note_off_c, 1, 65, 0
2, 269160, Note_off_c, 1, 69, 0
2, 269160, Note_off_c, 1, 84, 0
2, 269200, Note_on_c, 1, 51, 127
2, 269200, Note_on_c, 1, 63, 127
2, 269200, Note_on_c, 1, 67, 127
2, 269200, Note_on_c, 1, 82, 127
2, 269200, Note_on_c, 1, 84, 127
2, 269280, Note_off_c, 1, 84, 0
2, 269320, Note_on_c, 1, 84, 127
2, 269360, Note_off_c, 1, 82, 0
2, 269360, Note_off_c, 1, 84, 0
2, 269400, Note_on_c, 1, 81, 127
2, 269400, Note_on_c, 1, 82, 127
2, 269440, Note_off_c, 1, 81, 0
2, 269480, Note_on_c, 1, 74, 127
2, 269520, Note_off_c, 1, 51, 0
2, 269520, Note_off_c, 1, 82, 0
2, 269560, Note_off_c, 1, 63, 0
2, 269560, Note_off_c, 1, 67, 0
2, 269560, Note_off_c, 1, 74, 0
2, 269600, Note_on_c, 1, 82, 127
2, 269600, Note_on_c, 1, 84, 127
2, 269640, Note_off_c, 1, 82, 0
2, 269640, Note_off_c, 1, 84, 0
2, 269680, Note_on_c, 1, 82, 127
2, 269680, Note_on_c, 1, 86, 127
2, 269720, Note_off_c, 1, 82, 0
2, 269720, Note_off_c, 1, 86, 0
2, 269800, Note_on_c, 1, 79, 127
2, 269800, Note_on_c, 1, 87, 127
2, 269840, Note_off_c, 1, 79, 0
2, 269840, Note_off_c, 1, 87, 0
2, 269880, Note_on_c, 1, 86, 127
2, 269920, Note_off_c, 1, 86, 0
2, 269960, Note_on_c, 1, 77, 127
2, 269960, Note_on_c, 1, 79, 127
2, 269960, Note_on_c, 1, 86, 127
2, 270040, Note_off_c, 1, 77, 0
2, 270040, Note_off_c, 1, 79, 0
2, 270040, Note_off_c, 1, 86, 0
2, 270080, Note_on_c, 1, 74, 127
2, 270080, Note_on_c, 1, 82, 127
2, 270120, Note_off_c, 1, 74, 0
2, 270120, Note_off_c, 1, 82, 0
2, 270160, Note_on_c, 1, 79, 127
2, 270160, Note_on_c, 1, 84, 127
2, 270200, Note_off_c, 1, 79, 0
2, 270200, Note_off_c, 1, 84, 0
2, 270280, Note_on_c, 1, 74, 127
2, 270280, Note_on_c, 1, 84, 127
2, 270280, Note_on_c, 1, 86, 127
2, 270320, Note_off_c, 1, 74, 0
2, 270320, Note_off_c, 1, 84, 0
2, 270320, Note_off_c, 1, 86, 0
2, 270360, Note_on_c, 1, 43, 127
2, 270360, Note_on_c, 1, 55, 127
2, 270360, Note_on_c, 1, 67, 127
2, 270360, Note_on_c, 1, 82, 127
2, 270360, Note_on_c, 1, 86, 127
2, 270400, Note_off_c, 1, 67, 0
2, 270400, Note_off_c, 1, 86, 0
2, 270440, Note_on_c, 1, 70, 127
2, 270440, Note_on_c, 1, 85, 127
2, 270480, Note_off_c, 1, 85, 0
2, 270520, Note_off_c, 1, 43, 0
2, 270520, Note_off_c, 1, 55, 0
2, 270520, Note_off_c, 1, 70, 0
2, 270600, Note_off_c, 1, 82, 0
2, 270640, Note_on_c, 1, 77, 127
2, 270680, Note_off_c, 1, 77, 0
2, 270760, Note_on_c, 1, 74, 127
2, 270760, Note_on_c, 1, 81, 127
2, 270760, Note_on_c, 1, 82, 127
2, 270800, Note_off_c, 1, 74, 0
2, 270800, Note_off_c, 1, 81, 0
2, 270800, Note_on_c, 1, 86, 127
2, 270840, Note_on_c, 1, 74, 127
2, 270880, Note_off_c, 1, 74, 0
2, 270880, Note_off_c, 1, 82, 0
2, 270880, Note_off_c, 1, 86, 0
2, 270920, Note_on_c, 1, 74, 127
2, 271000, Note_off_c, 1, 74, 0
2, 271040, Note_on_c, 1, 74, 127
2, 271080, Note_off_c, 1, 74, 0
2, 271120, Note_on_c, 1, 44, 127
2, 271120, Note_on_c, 1, 60, 127
2, 271120, Note_on_c, 1, 68, 127
2, 271120, Note_on_c, 1, 74, 127
2, 271120, Note_on_c, 1, 77, 127
2, 271120, Note_on_c, 1, 80, 127
2, 271440, Note_off_c, 1, 68, 0
2, 271480, Note_off_c, 1, 44, 0
2, 271480, Note_off_c, 1, 60, 0
2, 271480, Note_off_c, 1, 74, 0
2, 271480, Note_off_c, 1, 77, 0
2, 271480, Note_off_c, 1, 80, 0
2, 271520, Note_on_c, 1, 43, 127
2, 271520, Note_on_c, 1, 55, 127
2, 271520, Note_on_c, 1, 70, 127
2, 271520, Note_on_c, 1, 75, 127
2, 271520, Note_on_c, 1, 79, 127
2, 271520, Note_on_c, 1, 82, 127
2, 271560, Note_off_c, 1, 70, 0
2, 271560, Note_off_c, 1, 82, 0
2, 271640, Note_off_c, 1, 43, 0
2, 271640, Note_off_c, 1, 55, 0
2, 271640, Note_off_c, 1, 75, 0
2, 271640, Note_off_c, 1, 79, 0
2, 271640, Note_on_c, 1, 82, 127
2, 271680, Note_on_c, 1, 80, 127
2, 271680, Note_off_c, 1, 82, 0
2, 271720, Note_on_c, 1, 75, 127
2, 271720, Note_off_c, 1, 80, 0
2, 271720, Note_on_c, 1, 82, 127
2, 271760, Note_on_c, 1, 73, 127
2, 271760, Note_off_c, 1, 75, 0
2, 271760, Note_off_c, 1, 82, 0
2, 271840, Note_off_c, 1, 73, 0
2, 271840, Note_on_c, 1, 74, 127
2, 271880, Note_on_c, 1, 44, 127
2, 271880, Note_on_c, 1, 56, 127
2, 271880, Note_on_c, 1, 68, 127
2, 271880, Note_on_c, 1, 72, 127
2, 271880, Note_off_c, 1, 74, 0
2, 271880, Note_on_c, 1, 75, 127
2, 271880, Note_on_c, 1, 80, 127
2, 271920, Note_off_c, 1, 68, 0
2, 271920, Note_off_c, 1, 72, 0
2, 271920, Note_off_c, 1, 75, 0
2, 271960, Note_off_c, 1, 80, 0
2, 272000, Note_on_c, 1, 67, 127
2, 272000, Note_on_c, 1, 75, 127
2, 272040, Note_off_c, 1, 44, 0
2, 272040, Note_off_c, 1, 56, 0
2, 272040, Note_off_c, 1, 67, 0
2, 272040, Note_off_c, 1, 75, 0
2, 272040, Note_on_c, 1, 80, 127
2, 272080, Note_on_c, 1, 55, 127
2, 272080, Note_on_c, 1, 62, 127
2, 272080, Note_on_c, 1, 65, 127
2, 272120, Note_off_c, 1, 80, 0
2, 272120, Note_on_c, 1, 82, 127
2, 272160, Note_off_c, 1, 82, 0
2, 272200, Note_on_c, 1, 80, 127
2, 272240, Note_off_c, 1, 55, 0
2, 272240, Note_off_c, 1, 62, 0
2, 272240, Note_off_c, 1, 65, 0
2, 272240, Note_off_c, 1, 80, 0
2, 272240, Note_on_c, 1, 82, 127
2, 272280, Note_on_c, 1, 55, 127
2, 272280, Note_on_c, 1, 61, 127
2, 272280, Note_on_c, 1, 63, 127
2, 272280, Note_on_c, 1, 79, 127
2, 272280, Note_off_c, 1, 82, 0
2, 272440, Note_off_c, 1, 55, 0
2, 272440, Note_off_c, 1, 61, 0
2, 272440, Note_off_c, 1, 63, 0
2, 272480, Note_on_c, 1, 56, 127
2, 272480, Note_on_c, 1, 60, 127
2, 272480, Note_on_c, 1, 63, 127
2, 272600, Note_off_c, 1, 56, 0
2, 272600, Note_off_c, 1, 60, 0
2, 272600, Note_off_c, 1, 63, 0
2, 272680, Note_on_c, 1, 58, 127
2, 272680, Note_on_c, 1, 61, 127
2, 272800, Note_off_c, 1, 58, 0
2, 272800, Note_off_c, 1, 61, 0
2, 272800, Note_off_c, 1, 79, 0
2, 272840, Note_on_c, 1, 39, 127
2, 272840, Note_on_c, 1, 51, 127
2, 272840, Note_on_c, 1, 55, 127
2, 272840, Note_on_c, 1, 62, 127
2, 272840, Note_on_c, 1, 70, 127
2, 272840, Note_on_c, 1, 77, 127
2, 272840, Note_on_c, 1, 79, 127
2, 272840, Note_on_c, 1, 82, 127
2, 272960, Note_on_c, 1, 68, 127
2, 273000, Note_off_c, 1, 68, 0
2, 273000, Note_off_c, 1, 77, 0
2, 273040, Note_on_c, 1, 72, 127
2, 273080, Note_off_c, 1, 72, 0
2, 273200, Note_off_c, 1, 39, 0
2, 273200, Note_off_c, 1, 51, 0
2, 273200, Note_off_c, 1, 55, 0
2, 273200, Note_off_c, 1, 62, 0
2, 273200, Note_off_c, 1, 70, 0
2, 273200, Note_off_c, 1, 79, 0
2, 273200, Note_off_c, 1, 82, 0
2, 273240, Note_on_c, 1, 48, 127
2, 273240, Note_on_c, 1, 60, 127
2, 273240, Note_on_c, 1, 63, 127
2, 273240, Note_on_c, 1, 68, 127
2, 273280, Note_off_c, 1, 48, 0
2, 273320, Note_on_c, 1, 51, 127
2, 273400, Note_off_c, 1, 51, 0
2, 273440, Note_on_c, 1, 53, 127
2, 273480, Note_off_c, 1, 53, 0
2, 273520, Note_on_c, 1, 56, 127
2, 273560, Note_off_c, 1, 56, 0
2, 273560, Note_off_c, 1, 60, 0
2, 273560, Note_off_c, 1, 63, 0
2, 273560, Note_off_c, 1, 68, 0
2, 273640, Note_on_c, 1, 47, 127
2, 273640, Note_on_c, 1, 51, 127
2, 273640, Note_on_c, 1, 54, 127
2, 273640, Note_on_c, 1, 75, 127
2, 273640, Note_on_c, 1, 78, 127
2, 273640, Note_on_c, 1, 82, 127
2, 273640, Note_on_c, 1, 87, 127
2, 273680, Note_off_c, 1, 47, 0
2, 273760, Note_off_c, 1, 51, 0
2, 273760, Note_off_c, 1, 54, 0
2, 273760, Note_off_c, 1, 75, 0
2, 273760, Note_off_c, 1, 78, 0
2, 273760, Note_off_c, 1, 82, 0
2, 273760, Note_off_c, 1, 87, 0
2, 273800, Note_on_c, 1, 49, 127
2, 273800, Note_on_c, 1, 53, 127
2, 273800, Note_on_c, 1, 56, 127
2, 273800, Note_on_c, 1, 65, 127
2, 273800, Note_on_c, 1, 68, 127
2, 273800, Note_on_c, 1, 73, 127
2, 273800, Note_on_c, 1, 77, 127
2, 273800, Note_on_c, 1, 80, 127
2, 273800, Note_on_c, 1, 85, 127
2, 273880, Note_off_c, 1, 53, 0
2, 273920, Note_on_c, 1, 53, 127
2, 273960, Note_off_c, 1, 65, 0
2, 273960, Note_off_c, 1, 68, 0
2, 274000, Note_on_c, 1, 68, 127
2, 274000, Note_on_c, 1, 72, 127
2, 274000, Note_off_c, 1, 73, 0
2, 274000, Note_on_c, 1, 75, 127
2, 274000, Note_off_c, 1, 77, 0
2, 274040, Note_on_c, 1, 65, 127
2, 274040, Note_off_c, 1, 72, 0
2, 274040, Note_on_c, 1, 73, 127
2, 274040, Note_off_c, 1, 75, 0
2, 274040, Note_on_c, 1, 77, 127
2, 274160, Note_off_c, 1, 49, 0
2, 274160, Note_off_c, 1, 53, 0
2, 274160, Note_off_c, 1, 56, 0
2, 274160, Note_off_c, 1, 65, 0
2, 274160, Note_off_c, 1, 68, 0
2, 274160, Note_off_c, 1, 73, 0
2, 274160, Note_off_c, 1, 77, 0
2, 274160, Note_off_c, 1, 80, 0
2, 274160, Note_off_c, 1, 85, 0
2, 274200, Note_on_c, 1, 68, 127
2, 274360, Note_off_c, 1, 68, 0
2, 274400, Note_on_c, 1, 65, 127
2, 274520, Note_off_c, 1, 65, 0
2, 274600, Note_on_c, 1, 68, 127
2, 274720, Note_off_c, 1, 68, 0
2, 274760, Note_on_c, 1, 73, 127
2, 274920, Note_off_c, 1, 73, 0
2, 274960, Note_on_c, 1, 68, 127
2, 275120, Note_off_c, 1, 68, 0
2, 275160, Note_on_c, 1, 68, 127
2, 275320, Note_off_c, 1, 68, 0
2, 275360, Note_on_c, 1, 77, 127
2, 275480, Note_off_c, 1, 77, 0
2, 275560, Note_on_c, 1, 56, 127
2, 275560, Note_on_c, 1, 60, 127
2, 275560, Note_on_c, 1, 68, 127
2, 275560, Note_on_c, 1, 80, 127
2, 275680, Note_off_c, 1, 56, 0
2, 275680, Note_off_c, 1, 60, 0
2, 275680, Note_off_c, 1, 68, 0
2, 275720, Note_on_c, 1, 65, 127
2, 275880, Note_off_c, 1, 65, 0
2, 275920, Note_on_c, 1, 56, 127
2, 275920, Note_on_c, 1, 65, 127
2, 276080, Note_on_c, 1, 84, 127
2, 276160, Note_off_c, 1, 80, 0
2, 276160, Note_off_c, 1, 84, 0
2, 276200, Note_on_c, 1, 82, 127
2, 276200, Note_on_c, 1, 85, 127
2, 276280, Note_off_c, 1, 56, 0
2, 276280, Note_off_c, 1, 65, 0
2, 276280, Note_off_c, 1, 82, 0
2, 276280, Note_off_c, 1, 85, 0
2, 276320, Note_on_c, 1, 72, 127
2, 276320, Note_on_c, 1, 84, 127
2, 276400, Note_on_c, 1, 86, 127
2, 276440, Note_off_c, 1, 86, 0
2, 276640, Note_off_c, 1, 72, 0
2, 276640, Note_off_c, 1, 84, 0
2, 276680, Note_on_c, 1, 68, 127
2, 276680, Note_on_c, 1, 82, 127
2, 276680, Note_on_c, 1, 84, 127
2, 276840, Note_off_c, 1, 68, 0
2, 276840, Note_off_c, 1, 84, 0
2, 276880, Note_on_c, 1, 65, 127
2, 277000, Note_on_c, 1, 80, 127
2, 277000, Note_off_c, 1, 82, 0
2, 277000, Note_on_c, 1, 85, 127
2, 277040, Note_off_c, 1, 65, 0
2, 277040, Note_off_c, 1, 85, 0
2, 277080, Note_on_c, 1, 65, 127
2, 277080, Note_on_c, 1, 84, 127
2, 277120, Note_off_c, 1, 80, 0
2, 277120, Note_on_c, 1, 82, 127
2, 277120, Note_off_c, 1, 84, 0
2, 277240, Note_off_c, 1, 65, 0
2, 277240, Note_off_c, 1, 82, 0
2, 277280, Note_on_c, 1, 68, 127
2, 277280, Note_on_c, 1, 80, 127
2, 277280, Note_on_c, 1, 82, 127
2, 277320, Note_off_c, 1, 80, 0
2, 277360, Note_on_c, 1, 80, 127
2, 277400, Note_off_c, 1, 68, 0
2, 277400, Note_off_c, 1, 80, 0
2, 277400, Note_off_c, 1, 82, 0
2, 277480, Note_on_c, 1, 67, 127
2, 277480, Note_on_c, 1, 79, 127
2, 277480, Note_on_c, 1, 82, 127
2, 277520, Note_off_c, 1, 82, 0
2, 277560, Note_on_c, 1, 83, 127
2, 277600, Note_off_c, 1, 67, 0
2, 277600, Note_off_c, 1, 79, 0
2, 277600, Note_off_c, 1, 83, 0
2, 277640, Note_on_c, 1, 53, 127
2, 277640, Note_on_c, 1, 60, 127
2, 277640, Note_on_c, 1, 63, 127
2, 277640, Note_on_c, 1, 68, 127
2, 277640, Note_on_c, 1, 79, 127
2, 277640, Note_on_c, 1, 84, 127
2, 277760, Note_on_c, 1, 72, 127
2, 277800, Note_off_c, 1, 63, 0
2, 277800, Note_off_c, 1, 68, 0
2, 277800, Note_off_c, 1, 72, 0
2, 277800, Note_off_c, 1, 79, 0
2, 277800, Note_off_c, 1, 84, 0
2, 277840, Note_on_c, 1, 67, 127
2, 277840, Note_on_c, 1, 70, 127
2, 277840, Note_on_c, 1, 82, 127
2, 277840, Note_on_c, 1, 85, 127
2, 277880, Note_on_c, 1, 84, 127
2, 277880, Note_off_c, 1, 85, 0
2, 277920, Note_off_c, 1, 84, 0
2, 277960, Note_on_c, 1, 84, 127
2, 278000, Note_off_c, 1, 53, 0
2, 278000, Note_off_c, 1, 60, 0
2, 278000, Note_off_c, 1, 67, 0
2, 278000, Note_off_c, 1, 70, 0
2, 278000, Note_off_c, 1, 82, 0
2, 278000, Note_off_c, 1, 84, 0
2, 278040, Note_on_c, 1, 46, 127
2, 278040, Note_on_c, 1, 58, 127
2, 278040, Note_on_c, 1, 77, 127
2, 278040, Note_on_c, 1, 80, 127
2, 278080, Note_off_c, 1, 77, 0
2, 278080, Note_off_c, 1, 80, 0
2, 278120, Note_on_c, 1, 74, 127
2, 278120, Note_on_c, 1, 77, 127
2, 278200, Note_off_c, 1, 46, 0
2, 278200, Note_off_c, 1, 58, 0
2, 278200, Note_off_c, 1, 74, 0
2, 278200, Note_off_c, 1, 77, 0
2, 278240, Note_on_c, 1, 70, 127
2, 278240, Note_on_c, 1, 74, 127
2, 278240, Note_on_c, 1, 82, 127
2, 278280, Note_off_c, 1, 70, 0
2, 278280, Note_off_c, 1, 74, 0
2, 278280, Note_off_c, 1, 82, 0
2, 278320, Note_on_c, 1, 70, 127
2, 278320, Note_on_c, 1, 74, 127
2, 278360, Note_off_c, 1, 70, 0
2, 278360, Note_off_c, 1, 74, 0
2, 278440, Note_on_c, 1, 65, 127
2, 278440, Note_on_c, 1, 72, 127
2, 278440, Note_on_c, 1, 75, 127
2, 278440, Note_on_c, 1, 82, 127
2, 278480, Note_off_c, 1, 65, 0
2, 278480, Note_off_c, 1, 72, 0
2, 278480, Note_off_c, 1, 75, 0
2, 278480, Note_off_c, 1, 82, 0
2, 278520, Note_on_c, 1, 63, 127
2, 278520, Note_on_c, 1, 74, 127
2, 278560, Note_off_c, 1, 74, 0
2, 278600, Note_on_c, 1, 70, 127
2, 278600, Note_on_c, 1, 73, 127
2, 278600, Note_on_c, 1, 84, 127
2, 278680, Note_off_c, 1, 73, 0
2, 278680, Note_on_c, 1, 82, 127
2, 278680, Note_off_c, 1, 84, 0
2, 278760, Note_off_c, 1, 63, 0
2, 278760, Note_off_c, 1, 70, 0
2, 278760, Note_off_c, 1, 82, 0
2, 278800, Note_on_c, 1, 58, 127
2, 278800, Note_on_c, 1, 70, 127
2, 278800, Note_on_c, 1, 73, 127
2, 278800, Note_on_c, 1, 79, 127
2, 278800, Note_on_c, 1, 82, 127
2, 278960, Note_off_c, 1, 58, 0
2, 278960, Note_off_c, 1, 70, 0
2, 278960, Note_off_c, 1, 73, 0
2, 278960, Note_off_c, 1, 79, 0
2, 278960, Note_off_c, 1, 82, 0
2, 279000, Note_on_c, 1, 45, 127
2, 279000, Note_on_c, 1, 65, 127
2, 279040, Note_off_c, 1, 45, 0
2, 279040, Note_on_c, 1, 49, 127
2, 279040, Note_off_c, 1, 65, 0
2, 279080, Note_off_c, 1, 49, 0
2, 279080, Note_on_c, 1, 62, 127
2, 279120, Note_on_c, 1, 61, 127
2, 279120, Note_off_c, 1, 62, 0
2, 279160, Note_off_c, 1, 61, 0
2, 279200, Note_on_c, 1, 55, 127
2, 279200, Note_on_c, 1, 67, 127
2, 279200, Note_on_c, 1, 74, 127
2, 279200, Note_on_c, 1, 77, 127
2, 279200, Note_on_c, 1, 79, 127
2, 279320, Note_off_c, 1, 55, 0
2, 279320, Note_off_c, 1, 74, 0
2, 279320, Note_off_c, 1, 77, 0
2, 279320, Note_off_c, 1, 79, 0
2, 279400, Note_on_c, 1, 44, 127
2, 279400, Note_on_c, 1, 56, 127
2, 279400, Note_off_c, 1, 67, 0
2, 279400, Note_on_c, 1, 68, 127
2, 279400, Note_on_c, 1, 72, 127
2, 279400, Note_on_c, 1, 79, 127
2, 279520, Note_off_c, 1, 44, 0
2, 279520, Note_off_c, 1, 56, 0
2, 279520, Note_off_c, 1, 68, 0
2, 279520, Note_off_c, 1, 72, 0
2, 279520, Note_off_c, 1, 79, 0
2, 279560, Note_on_c, 1, 70, 127
2, 279560, Note_on_c, 1, 82, 127
2, 279640, Note_off_c, 1, 70, 0
2, 279640, Note_off_c, 1, 82, 0
2, 279680, Note_on_c, 1, 69, 127
2, 279680, Note_on_c, 1, 72, 127
2, 279720, Note_off_c, 1, 69, 0
2, 279720, Note_off_c, 1, 72, 0
2, 279760, Note_on_c, 1, 49, 127
2, 279760, Note_on_c, 1, 58, 127
2, 279760, Note_on_c, 1, 68, 127
2, 279760, Note_on_c, 1, 70, 127
2, 279760, Note_on_c, 1, 73, 127
2, 279800, Note_off_c, 1, 68, 0
2, 279800, Note_off_c, 1, 70, 0
2, 279800, Note_off_c, 1, 73, 0
2, 279880, Note_on_c, 1, 70, 127
2, 279920, Note_off_c, 1, 49, 0
2, 279920, Note_off_c, 1, 58, 0
2, 279920, Note_off_c, 1, 70, 0
2, 279960, Note_on_c, 1, 70, 127
2, 279960, Note_on_c, 1, 73, 127
2, 279960, Note_on_c, 1, 82, 127
2, 279960, Note_on_c, 1, 85, 127
2, 280000, Note_off_c, 1, 70, 0
2, 280000, Note_off_c, 1, 73, 0
2, 280040, Note_on_c, 1, 70, 127
2, 280080, Note_on_c, 1, 65, 127
2, 280120, Note_off_c, 1, 65, 0
2, 280120, Note_off_c, 1, 70, 0
2, 280120, Note_off_c, 1, 82, 0
2, 280120, Note_off_c, 1, 85, 0
2, 280160, Note_on_c, 1, 73, 127
2, 280160, Note_on_c, 1, 76, 127
2, 280160, Note_on_c, 1, 82, 127
2, 280160, Note_on_c, 1, 88, 127
2, 280200, Note_off_c, 1, 73, 0
2, 280200, Note_off_c, 1, 76, 0
2, 280280, Note_off_c, 1, 82, 0
2, 280280, Note_off_c, 1, 88, 0
2, 280360, Note_on_c, 1, 70, 127
2, 280360, Note_on_c, 1, 73, 127
2, 280360, Note_on_c, 1, 81, 127
2, 280360, Note_on_c, 1, 85, 127
2, 280400, Note_off_c, 1, 70, 0
2, 280400, Note_off_c, 1, 73, 0
2, 280440, Note_on_c, 1, 65, 127
2, 280480, Note_off_c, 1, 65, 0
2, 280480, Note_off_c, 1, 81, 0
2, 280480, Note_off_c, 1, 85, 0
2, 280520, Note_on_c, 1, 74, 127
2, 280520, Note_on_c, 1, 77, 127
2, 280520, Note_on_c, 1, 82, 127
2, 280520, Note_on_c, 1, 86, 127
2, 280600, Note_off_c, 1, 77, 0
2, 280600, Note_on_c, 1, 81, 127
2, 280600, Note_off_c, 1, 82, 0
2, 280640, Note_off_c, 1, 81, 0
2, 280640, Note_on_c, 1, 82, 127
2, 280680, Note_off_c, 1, 74, 0
2, 280680, Note_off_c, 1, 82, 0
2, 280680, Note_off_c, 1, 86, 0
2, 280720, Note_on_c, 1, 46, 127
2, 280720, Note_on_c, 1, 58, 127
2, 280720, Note_on_c, 1, 70, 127
2, 280720, Note_on_c, 1, 74, 127
2, 280760, Note_off_c, 1, 70, 0
2, 280760, Note_off_c, 1, 74, 0
2, 280840, Note_on_c, 1, 70, 127
2, 280880, Note_off_c, 1, 46, 0
2, 280880, Note_off_c, 1, 58, 0
2, 280880, Note_off_c, 1, 70, 0
2, 280920, Note_on_c, 1, 70, 127
2, 280920, Note_on_c, 1, 74, 127
2, 280920, Note_on_c, 1, 82, 127
2, 280960, Note_off_c, 1, 70, 0
2, 280960, Note_off_c, 1, 74, 0
2, 281000, Note_on_c, 1, 65, 127
2, 281080, Note_off_c, 1, 65, 0
2, 281080, Note_off_c, 1, 82, 0
2, 281120, Note_on_c, 1, 46, 127
2, 281120, Note_on_c, 1, 58, 127
2, 281120, Note_on_c, 1, 70, 127
2, 281120, Note_on_c, 1, 74, 127
2, 281120, Note_on_c, 1, 82, 127
2, 281160, Note_off_c, 1, 70, 0
2, 281160, Note_off_c, 1, 74, 0
2, 281160, Note_off_c, 1, 82, 0
2, 281200, Note_on_c, 1, 65, 127
2, 281240, Note_off_c, 1, 65, 0
2, 281320, Note_on_c, 1, 74, 127
2, 281320, Note_on_c, 1, 82, 127
2, 281320, Note_on_c, 1, 86, 127
2, 281360, Note_off_c, 1, 74, 0
2, 281400, Note_on_c, 1, 65, 127
2, 281440, Note_off_c, 1, 46, 0
2, 281440, Note_off_c, 1, 58, 0
2, 281440, Note_off_c, 1, 65, 0
2, 281440, Note_off_c, 1, 82, 0
2, 281440, Note_off_c, 1, 86, 0
2, 281480, Note_on_c, 1, 82, 127
2, 281480, Note_on_c, 1, 86, 127
2, 281560, Note_off_c, 1, 82, 0
2, 281600, Note_on_c, 1, 65, 127
2, 281600, Note_on_c, 1, 82, 127
2, 281640, Note_off_c, 1, 65, 0
2, 281640, Note_off_c, 1, 82, 0
2, 281640, Note_off_c, 1, 86, 0
2, 281680, Note_on_c, 1, 77, 127
2, 281680, Note_on_c, 1, 82, 127
2, 281680, Note_on_c, 1, 86, 127
2, 281720, Note_off_c, 1, 77, 0
2, 281720, Note_off_c, 1, 82, 0
2, 281720, Note_off_c, 1, 86, 0
2, 281800, Note_on_c, 1, 74, 127
2, 281800, Note_on_c, 1, 82, 127
2, 281800, Note_on_c, 1, 86, 127
2, 281840, Note_off_c, 1, 74, 0
2, 281840, Note_off_c, 1, 82, 0
2, 281840, Note_off_c, 1, 86, 0
2, 281880, Note_on_c, 1, 70, 127
2, 281880, Note_on_c, 1, 79, 127
2, 281880, Note_on_c, 1, 82, 127
2, 281920, Note_off_c, 1, 70, 0
2, 281920, Note_off_c, 1, 79, 0
2, 281920, Note_off_c, 1, 82, 0
2, 281960, Note_on_c, 1, 70, 127
2, 282040, Note_off_c, 1, 70, 0
2, 282080, Note_on_c, 1, 79, 127
2, 282080, Note_on_c, 1, 82, 127
2, 282120, Note_off_c, 1, 79, 0
2, 282120, Note_off_c, 1, 82, 0
2, 282160, Note_on_c, 1, 70, 127
2, 282200, Note_off_c, 1, 70, 0
2, 282280, Note_on_c, 1, 38, 127
2, 282280, Note_on_c, 1, 50, 127
2, 282280, Note_on_c, 1, 70, 127
2, 282280, Note_on_c, 1, 77, 127
2, 282320, Note_off_c, 1, 38, 0
2, 282320, Note_off_c, 1, 50, 0
2, 282320, Note_off_c, 1, 70, 0
2, 282320, Note_off_c, 1, 77, 0
2, 282360, Note_on_c, 1, 39, 127
2, 282360, Note_on_c, 1, 51, 127
2, 282360, Note_on_c, 1, 72, 127
2, 282400, Note_off_c, 1, 39, 0
2, 282400, Note_off_c, 1, 51, 0
2, 282400, Note_off_c, 1, 72, 0
2, 282440, Note_on_c, 1, 43, 127
2, 282440, Note_on_c, 1, 70, 127
2, 282520, Note_off_c, 1, 43, 0
2, 282520, Note_off_c, 1, 70, 0
2, 282560, Note_on_c, 1, 39, 127
2, 282560, Note_on_c, 1, 51, 127
2, 282600, Note_off_c, 1, 39, 0
2, 282600, Note_off_c, 1, 51, 0
2, 282640, Note_on_c, 1, 38, 127
2, 282640, Note_on_c, 1, 50, 127
2, 282680, Note_off_c, 1, 38, 0
2, 282680, Note_off_c, 1, 50, 0
2, 282760, Note_on_c, 1, 50, 127
2, 282800, Note_off_c, 1, 50, 0
2, 282840, Note_on_c, 1, 50, 127
2, 282880, Note_off_c, 1, 50, 0
2, 282920, Note_on_c, 1, 51, 127
2, 283000, Note_off_c, 1, 51, 0
2, 283040, Note_on_c, 1, 36, 127
2, 283080, Note_off_c, 1, 36, 0
2, 283120, Note_on_c, 1, 48, 127
2, 283160, Note_off_c, 1, 48, 0
2, 283240, Note_on_c, 1, 50, 127
2, 283280, Note_off_c, 1, 50, 0
2, 283320, Note_on_c, 1, 51, 127
2, 283360, Note_off_c, 1, 51, 0
2, 283400, Note_on_c, 1, 55, 127
2, 283400, Note_on_c, 1, 77, 127
2, 283400, Note_on_c, 1, 82, 127
2, 283480, Note_off_c, 1, 55, 0
2, 283480, Note_off_c, 1, 77, 0
2, 283480, Note_off_c, 1, 82, 0
2, 283520, Note_on_c, 1, 53, 127
2, 283520, Note_on_c, 1, 74, 127
2, 283560, Note_off_c, 1, 53, 0
2, 283560, Note_off_c, 1, 74, 0
2, 283600, Note_on_c, 1, 55, 127
2, 283600, Note_on_c, 1, 75, 127
2, 283600, Note_on_c, 1, 84, 127
2, 283640, Note_off_c, 1, 55, 0
2, 283640, Note_off_c, 1, 84, 0
2, 283720, Note_on_c, 1, 51, 127
2, 283720, Note_on_c, 1, 79, 127
2, 283760, Note_off_c, 1, 51, 0
2, 283760, Note_off_c, 1, 75, 0
2, 283760, Note_off_c, 1, 79, 0
2, 283800, Note_on_c, 1, 50, 127
2, 283800, Note_on_c, 1, 78, 127
2, 283800, Note_on_c, 1, 86, 127
2, 283840, Note_off_c, 1, 50, 0
2, 283840, Note_off_c, 1, 78, 0
2, 283840, Note_off_c, 1, 86, 0
2, 283880, Note_on_c, 1, 53, 127
2, 283880, Note_on_c, 1, 77, 127
2, 283880, Note_on_c, 1, 82, 127
2, 283920, Note_off_c, 1, 77, 0
2, 283960, Note_off_c, 1, 53, 0
2, 283960, Note_off_c, 1, 82, 0
2, 284000, Note_on_c, 1, 41, 127
2, 284000, Note_on_c, 1, 46, 127
2, 284000, Note_on_c, 1, 53, 127
2, 284000, Note_on_c, 1, 58, 127
2, 284000, Note_on_c, 1, 79, 127
2, 284000, Note_on_c, 1, 82, 127
2, 284040, Note_off_c, 1, 41, 0
2, 284040, Note_on_c, 1, 44, 127
2, 284040, Note_off_c, 1, 82, 0
2, 284080, Note_off_c, 1, 44, 0
2, 284080, Note_on_c, 1, 69, 127
2, 284120, Note_off_c, 1, 69, 0
2, 284120, Note_off_c, 1, 79, 0
2, 284200, Note_on_c, 1, 70, 127
2, 284200, Note_on_c, 1, 77, 127
2, 284240, Note_off_c, 1, 77, 0
2, 284280, Note_on_c, 1, 82, 127
2, 284320, Note_off_c, 1, 46, 0
2, 284320, Note_off_c, 1, 53, 0
2, 284320, Note_off_c, 1, 58, 0
2, 284320, Note_off_c, 1, 70, 0
2, 284320, Note_off_c, 1, 82, 0
2, 284360, Note_on_c, 1, 70, 127
2, 284360, Note_on_c, 1, 74, 127
2, 284360, Note_on_c, 1, 82, 127
2, 284440, Note_off_c, 1, 70, 0
2, 284440, Note_off_c, 1, 74, 0
2, 284520, Note_on_c, 1, 70, 127
2, 284520, Note_on_c, 1, 72, 127
2, 284520, Note_off_c, 1, 82, 0
2, 284560, Note_on_c, 1, 63, 127
2, 284560, Note_off_c, 1, 70, 0
2, 284560, Note_on_c, 1, 80, 127
2, 284560, Note_on_c, 1, 84, 127
2, 284600, Note_off_c, 1, 63, 0
2, 284600, Note_off_c, 1, 72, 0
2, 284600, Note_off_c, 1, 80, 0
2, 284600, Note_off_c, 1, 84, 0
2, 284640, Note_on_c, 1, 72, 127
2, 284640, Note_on_c, 1, 81, 127
2, 284720, Note_off_c, 1, 72, 0
2, 284720, Note_off_c, 1, 81, 0
2, 284760, Note_on_c, 1, 65, 127
2, 284760, Note_on_c, 1, 70, 127
2, 284760, Note_on_c, 1, 74, 127
2, 284760, Note_on_c, 1, 77, 127
2, 284760, Note_on_c, 1, 82, 127
2, 284760, Note_on_c, 1, 84, 127
2, 284800, Note_off_c, 1, 65, 0
2, 284800, Note_off_c, 1, 84, 0
2, 284880, Note_off_c, 1, 70, 0
2, 284880, Note_off_c, 1, 74, 0
2, 284880, Note_off_c, 1, 77, 0
2, 284880, Note_off_c, 1, 82, 0
2, 284960, Note_on_c, 1, 38, 127
2, 284960, Note_on_c, 1, 50, 127
2, 284960, Note_on_c, 1, 66, 127
2, 284960, Note_on_c, 1, 70, 127
2, 284960, Note_on_c, 1, 75, 127
2, 284960, Note_on_c, 1, 82, 127
2, 285000, Note_off_c, 1, 75, 0
2, 285000, Note_off_c, 1, 82, 0
2, 285040, Note_on_c, 1, 80, 127
2, 285040, Note_on_c, 1, 82, 127
2, 285080, Note_off_c, 1, 66, 0
2, 285080, Note_off_c, 1, 70, 0
2, 285080, Note_off_c, 1, 80, 0
2, 285080, Note_off_c, 1, 82, 0
2, 285120, Note_on_c, 1, 67, 127
2, 285120, Note_on_c, 1, 70, 127
2, 285120, Note_on_c, 1, 82, 127
2, 285200, Note_off_c, 1, 67, 0
2, 285200, Note_off_c, 1, 70, 0
2, 285200, Note_off_c, 1, 82, 0
2, 285240, Note_on_c, 1, 65, 127
2, 285240, Note_on_c, 1, 70, 127
2, 285240, Note_on_c, 1, 82, 127
2, 285280, Note_off_c, 1, 38, 0
2, 285280, Note_off_c, 1, 50, 0
2, 285280, Note_off_c, 1, 65, 0
2, 285280, Note_off_c, 1, 70, 0
2, 285280, Note_off_c, 1, 82, 0
2, 285320, Note_on_c, 1, 67, 127
2, 285320, Note_on_c, 1, 70, 127
2, 285320, Note_on_c, 1, 82, 127
2, 285360, Note_off_c, 1, 67, 0
2, 285360, Note_off_c, 1, 70, 0
2, 285360, Note_off_c, 1, 82, 0
2, 285440, Note_on_c, 1, 82, 127
2, 285480, Note_off_c, 1, 82, 0
2, 285520, Note_on_c, 1, 70, 127
2, 285520, Note_on_c, 1, 74, 127
2, 285560, Note_off_c, 1, 70, 0
2, 285560, Note_off_c, 1, 74, 0
2, 285600, Note_on_c, 1, 79, 127
2, 285680, Note_off_c, 1, 79, 0
2, 285720, Note_on_c, 1, 41, 127
2, 285720, Note_on_c, 1, 53, 127
2, 285720, Note_on_c, 1, 66, 127
2, 285720, Note_on_c, 1, 72, 127
2, 285720, Note_on_c, 1, 75, 127
2, 285760, Note_off_c, 1, 66, 0
2, 285760, Note_off_c, 1, 72, 0
2, 285760, Note_off_c, 1, 75, 0
2, 285800, Note_on_c, 1, 75, 127
2, 285840, Note_off_c, 1, 41, 0
2, 285840, Note_off_c, 1, 53, 0
2, 285840, Note_off_c, 1, 75, 0
2, 285920, Note_on_c, 1, 72, 127
2, 285960, Note_off_c, 1, 72, 0
2, 286000, Note_on_c, 1, 75, 127
2, 286040, Note_off_c, 1, 75, 0
2, 286080, Note_on_c, 1, 34, 127
2, 286080, Note_on_c, 1, 46, 127
2, 286080, Note_on_c, 1, 58, 127
2, 286080, Note_on_c, 1, 62, 127
2, 286080, Note_on_c, 1, 70, 127
2, 286080, Note_on_c, 1, 74, 127
2, 286160, Note_off_c, 1, 74, 0
2, 286200, Note_on_c, 1, 75, 127
2, 286240, Note_off_c, 1, 62, 0
2, 286240, Note_off_c, 1, 70, 0
2, 286240, Note_off_c, 1, 75, 0
2, 286280, Note_on_c, 1, 70, 127
2, 286280, Note_on_c, 1, 74, 127
2, 286280, Note_on_c, 1, 77, 127
2, 286320, Note_off_c, 1, 77, 0
2, 286440, Note_off_c, 1, 34, 0
2, 286440, Note_off_c, 1, 46, 0
2, 286440, Note_off_c, 1, 58, 0
2, 286440, Note_off_c, 1, 70, 0
2, 286440, Note_off_c, 1, 74, 0
2, 286480, Note_on_c, 1, 34, 127
2, 286480, Note_on_c, 1, 46, 127
2, 286480, Note_on_c, 1, 63, 127
2, 286480, Note_on_c, 1, 69, 127
2, 286480, Note_on_c, 1, 72, 127
2, 286520, Note_off_c, 1, 72, 0
2, 286560, Note_on_c, 1, 79, 127
2, 286600, Note_off_c, 1, 79, 0
2, 286680, Note_on_c, 1, 75, 127
2, 286720, Note_off_c, 1, 75, 0
2, 286800, Note_off_c, 1, 34, 0
2, 286800, Note_off_c, 1, 46, 0
2, 286800, Note_off_c, 1, 63, 0
2, 286800, Note_off_c, 1, 69, 0
2, 286880, Note_on_c, 1, 34, 127
2, 286880, Note_on_c, 1, 46, 127
2, 286880, Note_on_c, 1, 65, 127
2, 286880, Note_on_c, 1, 70, 127
2, 286880, Note_on_c, 1, 74, 127
2, 286920, Note_off_c, 1, 74, 0
2, 286960, Note_on_c, 1, 77, 127
2, 287000, Note_off_c, 1, 77, 0
2, 287040, Note_on_c, 1, 78, 127
2, 287080, Note_off_c, 1, 78, 0
2, 287160, Note_on_c, 1, 77, 127
2, 287200, Note_off_c, 1, 34, 0
2, 287200, Note_off_c, 1, 46, 0
2, 287200, Note_off_c, 1, 65, 0
2, 287200, Note_off_c, 1, 70, 0
2, 287200, Note_off_c, 1, 77, 0
2, 287240, Note_on_c, 1, 62, 127
2, 287240, Note_on_c, 1, 75, 127
2, 287280, Note_off_c, 1, 62, 0
2, 287280, Note_off_c, 1, 75, 0
2, 287360, Note_on_c, 1, 60, 127
2, 287360, Note_on_c, 1, 70, 127
2, 287400, Note_off_c, 1, 60, 0
2, 287400, Note_off_c, 1, 70, 0
2, 287440, Note_on_c, 1, 51, 127
2, 287440, Note_on_c, 1, 63, 127
2, 287480, Note_off_c, 1, 51, 0
2, 287480, Note_off_c, 1, 63, 0
2, 287520, Note_on_c, 1, 57, 127
2, 287520, Note_on_c, 1, 72, 127
2, 287600, Note_off_c, 1, 57, 0
2, 287600, Note_off_c, 1, 72, 0
2, 287640, Note_on_c, 1, 59, 127
2, 287640, Note_on_c, 1, 71, 127
2, 287680, Note_off_c, 1, 59, 0
2, 287680, Note_off_c, 1, 71, 0
2, 287720, Note_on_c, 1, 46, 127
2, 287720, Note_on_c, 1, 58, 127
2, 287720, Note_on_c, 1, 62, 127
2, 287720, Note_on_c, 1, 70, 127
2, 287720, Note_on_c, 1, 77, 127
2, 287760, Note_off_c, 1, 58, 0
2, 287760, Note_off_c, 1, 62, 0
2, 287840, Note_on_c, 1, 58, 127
2, 287840, Note_on_c, 1, 74, 127
2, 287880, Note_off_c, 1, 58, 0
2, 287880, Note_off_c, 1, 74, 0
2, 287920, Note_on_c, 1, 58, 127
2, 287920, Note_on_c, 1, 74, 127
2, 287960, Note_off_c, 1, 58, 0
2, 287960, Note_off_c, 1, 70, 0
2, 287960, Note_off_c, 1, 74, 0
2, 287960, Note_off_c, 1, 77, 0
2, 288000, Note_on_c, 1, 58, 127
2, 288000, Note_on_c, 1, 65, 127
2, 288000, Note_on_c, 1, 74, 127
2, 288000, Note_on_c, 1, 77, 127
2, 288080, Note_off_c, 1, 58, 0
2, 288080, Note_off_c, 1, 65, 0
2, 288080, Note_off_c, 1, 74, 0
2, 288080, Note_off_c, 1, 77, 0
2, 288120, Note_on_c, 1, 58, 127
2, 288120, Note_on_c, 1, 65, 127
2, 288120, Note_on_c, 1, 70, 127
2, 288120, Note_on_c, 1, 74, 127
2, 288160, Note_off_c, 1, 58, 0
2, 288200, Note_on_c, 1, 53, 127
2, 288240, Note_off_c, 1, 53, 0
2, 288320, Note_on_c, 1, 58, 127
2, 288360, Note_off_c, 1, 58, 0
2, 288400, Note_on_c, 1, 62, 127
2, 288440, Note_off_c, 1, 62, 0
2, 288480, Note_on_c, 1, 58, 127
2, 288560, Note_off_c, 1, 58, 0
2, 288680, Note_on_c, 1, 50, 127
2, 288720, Note_off_c, 1, 50, 0
2, 288840, Note_off_c, 1, 46, 0
2, 288840, Note_off_c, 1, 65, 0
2, 288840, Note_off_c, 1, 70, 0
2, 288840, Note_off_c, 1, 74, 0
2, 288880, Note_on_c, 1, 41, 127
2, 288880, Note_on_c, 1, 53, 127
2, 288880, Note_on_c, 1, 70, 127
2, 288880, Note_on_c, 1, 74, 127
2, 288880, Note_on_c, 1, 77, 127
2, 288880, Note_on_c, 1, 80, 127
2, 288920, Note_off_c, 1, 77, 0
2, 289040, Note_off_c, 1, 80, 0
2, 289080, Note_on_c, 1, 82, 127
2, 289120, Note_off_c, 1, 70, 0
2, 289200, Note_off_c, 1, 41, 0
2, 289200, Note_off_c, 1, 53, 0
2, 289200, Note_off_c, 1, 74, 0
2, 289200, Note_off_c, 1, 82, 0
2, 289280, Note_on_c, 1, 51, 127
2, 289280, Note_on_c, 1, 75, 127
2, 289280, Note_on_c, 1, 82, 127
2, 289320, Note_off_c, 1, 51, 0
2, 289320, Note_off_c, 1, 75, 0
2, 289320, Note_off_c, 1, 82, 0
2, 289360, Note_on_c, 1, 53, 127
2, 289360, Note_on_c, 1, 77, 127
2, 289400, Note_off_c, 1, 53, 0
2, 289400, Note_off_c, 1, 77, 0
2, 289440, Note_on_c, 1, 55, 127
2, 289440, Note_on_c, 1, 79, 127
2, 289520, Note_off_c, 1, 55, 0
2, 289520, Note_off_c, 1, 79, 0
2, 289560, Note_on_c, 1, 53, 127
2, 289560, Note_on_c, 1, 82, 127
2, 289600, Note_off_c, 1, 53, 0
2, 289600, Note_off_c, 1, 82, 0
2, 289640, Note_on_c, 1, 39, 127
2, 289640, Note_on_c, 1, 51, 127
2, 289640, Note_on_c, 1, 58, 127
2, 289640, Note_on_c, 1, 67, 127
2, 289640, Note_on_c, 1, 72, 127
2, 289640, Note_on_c, 1, 84, 127
2, 289680, Note_off_c, 1, 84, 0
2, 289760, Note_on_c, 1, 82, 127
2, 289800, Note_off_c, 1, 51, 0
2, 289800, Note_off_c, 1, 58, 0
2, 289800, Note_off_c, 1, 82, 0
2, 289840, Note_on_c, 1, 58, 127
2, 289840, Note_on_c, 1, 84, 127
2, 289880, Note_off_c, 1, 58, 0
2, 289880, Note_off_c, 1, 84, 0
2, 289920, Note_on_c, 1, 82, 127
2, 290000, Note_off_c, 1, 39, 0
2, 290000, Note_off_c, 1, 67, 0
2, 290000, Note_off_c, 1, 72, 0
2, 290000, Note_off_c, 1, 82, 0
2, 290040, Note_on_c, 1, 48, 127
2, 290040, Note_on_c, 1, 70, 127
2, 290040, Note_on_c, 1, 72, 127
2, 290040, Note_on_c, 1, 77, 127
2, 290080, Note_off_c, 1, 48, 0
2, 290080, Note_off_c, 1, 70, 0
2, 290080, Note_off_c, 1, 72, 0
2, 290080, Note_off_c, 1, 77, 0
2, 290080, Note_on_c, 1, 84, 127
2, 290120, Note_on_c, 1, 77, 127
2, 290160, Note_off_c, 1, 77, 0
2, 290160, Note_off_c, 1, 84, 0
2, 290240, Note_on_c, 1, 55, 127
2, 290240, Note_on_c, 1, 70, 127
2, 290240, Note_on_c, 1, 76, 127
2, 290240, Note_on_c, 1, 79, 127
2, 290280, Note_off_c, 1, 55, 0
2, 290280, Note_off_c, 1, 76, 0
2, 290320, Note_on_c, 1, 82, 127
2, 290360, Note_off_c, 1, 70, 0
2, 290360, Note_off_c, 1, 79, 0
2, 290360, Note_off_c, 1, 82, 0
2, 290400, Note_on_c, 1, 41, 127
2, 290400, Note_on_c, 1, 53, 127
2, 290400, Note_on_c, 1, 68, 127
2, 290400, Note_on_c, 1, 72, 127
2, 290400, Note_on_c, 1, 77, 127
2, 290400, Note_on_c, 1, 81, 127
2, 290480, Note_off_c, 1, 68, 0
2, 290520, Note_on_c, 1, 84, 127
2, 290560, Note_off_c, 1, 72, 0
2, 290560, Note_off_c, 1, 77, 0
2, 290560, Note_off_c, 1, 81, 0
2, 290600, Note_on_c, 1, 69, 127
2, 290600, Note_on_c, 1, 72, 127
2, 290600, Note_on_c, 1, 77, 127
2, 290600, Note_on_c, 1, 81, 127
2, 290640, Note_off_c, 1, 72, 0
2, 290640, Note_off_c, 1, 84, 0
2, 290760, Note_off_c, 1, 41, 0
2, 290760, Note_off_c, 1, 53, 0
2, 290760, Note_off_c, 1, 69, 0
2, 290760, Note_off_c, 1, 77, 0
2, 290760, Note_off_c, 1, 81, 0
2, 290800, Note_on_c, 1, 53, 127
2, 290800, Note_on_c, 1, 69, 127
2, 290800, Note_on_c, 1, 72, 127
2, 290800, Note_on_c, 1, 77, 127
2, 290800, Note_on_c, 1, 81, 127
2, 290840, Note_off_c, 1, 53, 0
2, 290840, Note_off_c, 1, 69, 0
2, 290840, Note_off_c, 1, 72, 0
2, 290880, Note_on_c, 1, 53, 127
2, 290960, Note_off_c, 1, 53, 0
2, 290960, Note_off_c, 1, 77, 0
2, 290960, Note_off_c, 1, 81, 0
2, 291000, Note_on_c, 1, 41, 127
2, 291000, Note_on_c, 1, 53, 127
2, 291000, Note_on_c, 1, 65, 127
2, 291000, Note_on_c, 1, 72, 127
2, 291000, Note_on_c, 1, 77, 127
2, 291000, Note_on_c, 1, 79, 127
2, 291040, Note_off_c, 1, 41, 0
2, 291040, Note_off_c, 1, 53, 0
2, 291040, Note_off_c, 1, 65, 0
2, 291040, Note_off_c, 1, 72, 0
2, 291040, Note_off_c, 1, 77, 0
2, 291040, Note_off_c, 1, 79, 0
2, 291040, Note_on_c, 1, 84, 127
2, 291080, Note_on_c, 1, 48, 127
2, 291080, Note_on_c, 1, 72, 127
2, 291080, Note_on_c, 1, 77, 127
2, 291120, Note_off_c, 1, 48, 0
2, 291120, Note_off_c, 1, 72, 0
2, 291120, Note_off_c, 1, 77, 0
2, 291200, Note_on_c, 1, 53, 127
2, 291200, Note_on_c, 1, 65, 127
2, 291200, Note_on_c, 1, 72, 127
2, 291200, Note_on_c, 1, 77, 127
2, 291240, Note_off_c, 1, 53, 0
2, 291240, Note_off_c, 1, 72, 0
2, 291280, Note_on_c, 1, 53, 127
2, 291280, Note_on_c, 1, 72, 127
2, 291320, Note_off_c, 1, 53, 0
2, 291320, Note_off_c, 1, 65, 0
2, 291320, Note_off_c, 1, 72, 0
2, 291320, Note_off_c, 1, 77, 0
2, 291320, Note_off_c, 1, 84, 0
2, 291360, Note_on_c, 1, 36, 127
2, 291360, Note_on_c, 1, 48, 127
2, 291360, Note_on_c, 1, 60, 127
2, 291360, Note_on_c, 1, 70, 127
2, 291440, Note_off_c, 1, 70, 0
2, 291480, Note_on_c, 1, 64, 127
2, 291520, Note_off_c, 1, 64, 0
2, 291560, Note_on_c, 1, 68, 127
2, 291720, Note_off_c, 1, 36, 0
2, 291720, Note_off_c, 1, 48, 0
2, 291720, Note_off_c, 1, 60, 0
2, 291720, Note_off_c, 1, 68, 0
2, 292520, Note_on_c, 1, 34, 127
2, 292520, Note_on_c, 1, 46, 127
2, 292520, Note_on_c, 1, 61, 127
2, 294040, Note_off_c, 1, 34, 0
2, 294040, Note_off_c, 1, 46, 0
2, 294040, Note_off_c, 1, 61, 0
2, 294480, Note_on_c, 1, 60, 127
2, 294800, Note_off_c, 1, 60, 0
2, 294840, Note_on_c, 1, 58, 127
2, 295200, Note_off_c, 1, 58, 0
2, 295240, Note_on_c, 1, 67, 127
2, 295360, Note_off_c, 1, 67, 0
2, 295440, Note_on_c, 1, 69, 127
2, 295560, Note_off_c, 1, 69, 0
2, 295600, Note_on_c, 1, 67, 127
2, 295760, Note_off_c, 1, 67, 0
2, 295800, Note_on_c, 1, 65, 127
2, 295960, Note_off_c, 1, 65, 0
2, 296000, Note_on_c, 1, 64, 127
2, 296160, Note_off_c, 1, 64, 0
2, 296200, Note_on_c, 1, 61, 127
2, 296200, Note_on_c, 1, 72, 127
2, 296320, Note_off_c, 1, 61, 0
2, 296400, Note_on_c, 1, 64, 127
2, 296520, Note_off_c, 1, 64, 0
2, 296600, Note_on_c, 1, 64, 127
2, 296720, Note_off_c, 1, 64, 0
2, 296760, Note_on_c, 1, 67, 127
2, 296920, Note_off_c, 1, 67, 0
2, 296960, Note_on_c, 1, 65, 127
2, 297120, Note_off_c, 1, 65, 0
2, 297160, Note_on_c, 1, 67, 127
2, 297320, Note_off_c, 1, 67, 0
2, 297320, Note_off_c, 1, 72, 0
2, 297360, Note_on_c, 1, 60, 127
2, 297360, Note_on_c, 1, 82, 127
2, 297480, Note_off_c, 1, 60, 0
2, 297560, Note_on_c, 1, 67, 127
2, 297680, Note_off_c, 1, 67, 0
2, 297680, Note_off_c, 1, 82, 0
2, 297720, Note_on_c, 1, 65, 127
2, 297720, Note_on_c, 1, 81, 127
2, 297880, Note_off_c, 1, 65, 0
2, 297880, Note_off_c, 1, 81, 0
2, 297920, Note_on_c, 1, 70, 127
2, 297920, Note_on_c, 1, 79, 127
2, 298080, Note_off_c, 1, 70, 0
2, 298080, Note_off_c, 1, 79, 0
2, 298120, Note_on_c, 1, 65, 127
2, 298120, Note_on_c, 1, 84, 127
2, 298280, Note_off_c, 1, 65, 0
2, 298320, Note_on_c, 1, 69, 127
2, 298440, Note_off_c, 1, 69, 0
2, 298440, Note_off_c, 1, 84, 0
2, 298520, Note_on_c, 1, 67, 127
2, 298520, Note_on_c, 1, 84, 127
2, 298640, Note_off_c, 1, 67, 0
2, 298680, Note_on_c, 1, 76, 127
2, 298800, Note_on_c, 1, 72, 127
2, 298800, Note_off_c, 1, 76, 0
2, 298840, Note_off_c, 1, 72, 0
2, 298840, Note_off_c, 1, 84, 0
2, 298880, Note_on_c, 1, 65, 127
2, 298880, Note_on_c, 1, 82, 127
2, 299040, Note_off_c, 1, 65, 0
2, 299080, Note_on_c, 1, 70, 127
2, 299240, Note_off_c, 1, 70, 0
2, 299240, Note_off_c, 1, 82, 0
2, 299280, Note_on_c, 1, 62, 127
2, 299280, Note_on_c, 1, 78, 127
2, 299400, Note_off_c, 1, 78, 0
2, 299480, Note_on_c, 1, 77, 127
2, 299600, Note_off_c, 1, 62, 0
2, 299600, Note_off_c, 1, 77, 0
2, 299640, Note_on_c, 1, 68, 127
2, 299640, Note_on_c, 1, 77, 127
2, 299800, Note_off_c, 1, 77, 0
2, 299840, Note_on_c, 1, 77, 127
2, 300000, Note_off_c, 1, 68, 0
2, 300000, Note_off_c, 1, 77, 0
2, 300040, Note_on_c, 1, 50, 127
2, 300040, Note_on_c, 1, 53, 127
2, 300040, Note_on_c, 1, 74, 127
2, 300200, Note_off_c, 1, 74, 0
2, 300240, Note_on_c, 1, 77, 127
2, 300360, Note_off_c, 1, 50, 0
2, 300360, Note_off_c, 1, 53, 0
2, 300360, Note_off_c, 1, 77, 0
2, 300440, Note_on_c, 1, 48, 127
2, 300440, Note_on_c, 1, 51, 127
2, 300440, Note_on_c, 1, 68, 127
2, 300440, Note_on_c, 1, 72, 127
2, 300560, Note_off_c, 1, 48, 0
2, 300560, Note_off_c, 1, 51, 0
2, 300600, Note_on_c, 1, 48, 127
2, 300600, Note_on_c, 1, 51, 127
2, 300680, Note_off_c, 1, 68, 0
2, 300680, Note_off_c, 1, 72, 0
2, 300760, Note_off_c, 1, 48, 0
2, 300760, Note_off_c, 1, 51, 0
2, 300800, Note_on_c, 1, 47, 127
2, 300800, Note_on_c, 1, 51, 127
2, 300800, Note_on_c, 1, 67, 127
2, 300800, Note_on_c, 1, 70, 127
2, 300960, Note_off_c, 1, 47, 0
2, 300960, Note_off_c, 1, 51, 0
2, 301000, Note_on_c, 1, 43, 127
2, 301000, Note_on_c, 1, 51, 127
2, 301160, Note_off_c, 1, 43, 0
2, 301160, Note_off_c, 1, 51, 0
2, 301160, Note_off_c, 1, 67, 0
2, 301200, Note_on_c, 1, 44, 127
2, 301200, Note_on_c, 1, 56, 127
2, 301200, Note_on_c, 1, 68, 127
2, 301200, Note_off_c, 1, 70, 0
2, 301200, Note_on_c, 1, 72, 127
2, 301320, Note_off_c, 1, 68, 0
2, 301320, Note_on_c, 1, 69, 127
2, 301360, Note_off_c, 1, 69, 0
2, 301360, Note_off_c, 1, 72, 0
2, 301400, Note_on_c, 1, 68, 127
2, 301400, Note_on_c, 1, 72, 127
2, 301520, Note_off_c, 1, 44, 0
2, 301520, Note_off_c, 1, 56, 0
2, 301520, Note_off_c, 1, 68, 0
2, 301520, Note_off_c, 1, 72, 0
2, 301560, Note_on_c, 1, 43, 127
2, 301560, Note_on_c, 1, 55, 127
2, 301560, Note_on_c, 1, 70, 127
2, 301560, Note_on_c, 1, 72, 127
2, 301720, Note_off_c, 1, 70, 0
2, 301720, Note_off_c, 1, 72, 0
2, 301760, Note_on_c, 1, 70, 127
2, 301760, Note_on_c, 1, 73, 127
2, 301920, Note_off_c, 1, 43, 0
2, 301920, Note_off_c, 1, 70, 0
2, 301920, Note_off_c, 1, 73, 0
2, 301960, Note_on_c, 1, 43, 127
2, 301960, Note_on_c, 1, 70, 127
2, 301960, Note_on_c, 1, 73, 127
2, 302120, Note_off_c, 1, 70, 0
2, 302120, Note_off_c, 1, 73, 0
2, 302160, Note_on_c, 1, 67, 127
2, 302160, Note_on_c, 1, 70, 127
2, 302280, Note_off_c, 1, 43, 0
2, 302280, Note_off_c, 1, 55, 0
2, 302280, Note_off_c, 1, 67, 0
2, 302280, Note_off_c, 1, 70, 0
2, 302360, Note_on_c, 1, 44, 127
2, 302360, Note_on_c, 1, 56, 127
2, 302360, Note_on_c, 1, 70, 127
2, 302360, Note_on_c, 1, 75, 127
2, 302400, Note_off_c, 1, 70, 0
2, 302400, Note_off_c, 1, 75, 0
2, 302440, Note_on_c, 1, 68, 127
2, 302440, Note_on_c, 1, 77, 127
2, 302480, Note_off_c, 1, 68, 0
2, 302480, Note_off_c, 1, 77, 0
2, 302520, Note_on_c, 1, 70, 127
2, 302520, Note_on_c, 1, 79, 127
2, 302600, Note_off_c, 1, 70, 0
2, 302600, Note_off_c, 1, 79, 0
2, 302640, Note_on_c, 1, 72, 127
2, 302640, Note_on_c, 1, 80, 127
2, 302680, Note_off_c, 1, 44, 0
2, 302680, Note_off_c, 1, 56, 0
2, 302680, Note_off_c, 1, 72, 0
2, 302680, Note_off_c, 1, 80, 0
2, 302720, Note_on_c, 1, 58, 127
2, 302720, Note_on_c, 1, 70, 127
2, 302720, Note_on_c, 1, 76, 127
2, 302720, Note_on_c, 1, 79, 127
2, 302760, Note_off_c, 1, 76, 0
2, 302760, Note_off_c, 1, 79, 0
2, 302880, Note_off_c, 1, 70, 0
2, 302920, Note_on_c, 1, 67, 127
2, 302960, Note_off_c, 1, 67, 0
2, 303000, Note_on_c, 1, 70, 127
2, 303080, Note_off_c, 1, 70, 0
2, 303120, Note_on_c, 1, 74, 127
2, 303120, Note_on_c, 1, 82, 127
2, 303240, Note_off_c, 1, 74, 0
2, 303240, Note_off_c, 1, 82, 0
2, 303320, Note_on_c, 1, 67, 127
2, 303400, Note_off_c, 1, 67, 0
2, 303440, Note_off_c, 1, 58, 0
2, 303480, Note_on_c, 1, 39, 127
2, 303480, Note_on_c, 1, 51, 127
2, 303480, Note_on_c, 1, 67, 127
2, 303480, Note_on_c, 1, 79, 127
2, 303560, Note_off_c, 1, 67, 0
2, 303560, Note_off_c, 1, 79, 0
2, 303680, Note_on_c, 1, 70, 127
2, 303720, Note_off_c, 1, 70, 0
2, 303840, Note_off_c, 1, 39, 0
2, 303840, Note_off_c, 1, 51, 0
2, 303880, Note_on_c, 1, 43, 127
2, 303880, Note_on_c, 1, 55, 127
2, 303880, Note_on_c, 1, 75, 127
2, 303880, Note_on_c, 1, 82, 127
2, 303880, Note_on_c, 1, 87, 127
2, 304040, Note_off_c, 1, 55, 0
2, 304040, Note_off_c, 1, 75, 0
2, 304040, Note_off_c, 1, 82, 0
2, 304040, Note_off_c, 1, 87, 0
2, 304080, Note_on_c, 1, 70, 127
2, 304200, Note_off_c, 1, 43, 0
2, 304200, Note_off_c, 1, 70, 0
2, 304280, Note_on_c, 1, 32, 127
2, 304280, Note_on_c, 1, 44, 127
2, 304280, Note_on_c, 1, 79, 127
2, 304280, Note_on_c, 1, 83, 127
2, 304280, Note_on_c, 1, 89, 127
2, 304440, Note_on_c, 1, 86, 127
2, 304440, Note_off_c, 1, 89, 0
2, 304480, Note_on_c, 1, 41, 127
2, 304480, Note_off_c, 1, 44, 0
2, 304520, Note_off_c, 1, 41, 0
2, 304520, Note_on_c, 1, 44, 127
2, 304600, Note_off_c, 1, 32, 0
2, 304600, Note_off_c, 1, 44, 0
2, 304600, Note_off_c, 1, 79, 0
2, 304600, Note_off_c, 1, 83, 0
2, 304600, Note_off_c, 1, 86, 0
2, 305040, Note_on_c, 1, 86, 127
2, 305080, Note_off_c, 1, 86, 0
2, 305240, Note_on_c, 1, 88, 127
2, 305280, Note_off_c, 1, 88, 0
2, 305400, Note_on_c, 1, 87, 127
2, 305480, Note_off_c, 1, 87, 0
2, 305600, Note_on_c, 1, 84, 127
2, 305640, Note_off_c, 1, 84, 0
2, 305800, Note_on_c, 1, 83, 127
2, 305840, Note_off_c, 1, 83, 0
2, 306000, Note_on_c, 1, 84, 127
2, 306040, Note_off_c, 1, 84, 0
2, 306200, Note_on_c, 1, 85, 127
2, 306320, Note_off_c, 1, 85, 0
2, 306360, Note_on_c, 1, 84, 127
2, 306520, Note_off_c, 1, 84, 0
2, 306560, Note_on_c, 1, 67, 127
2, 306560, Note_on_c, 1, 81, 127
2, 306560, Note_on_c, 1, 88, 127
2, 306600, Note_off_c, 1, 88, 0
2, 306640, Note_on_c, 1, 83, 127
2, 306680, Note_off_c, 1, 83, 0
2, 306720, Note_off_c, 1, 67, 0
2, 306720, Note_on_c, 1, 80, 127
2, 306720, Note_off_c, 1, 81, 0
2, 306760, Note_on_c, 1, 87, 127
2, 306800, Note_off_c, 1, 80, 0
2, 306800, Note_off_c, 1, 87, 0
2, 306840, Note_on_c, 1, 79, 127
2, 306920, Note_off_c, 1, 79, 0
2, 306960, Note_on_c, 1, 64, 127
2, 306960, Note_on_c, 1, 80, 127
2, 306960, Note_on_c, 1, 84, 127
2, 307000, Note_off_c, 1, 84, 0
2, 307080, Note_off_c, 1, 64, 0
2, 307080, Note_off_c, 1, 80, 0
2, 307080, Note_on_c, 1, 85, 127
2, 307120, Note_off_c, 1, 85, 0
2, 307160, Note_on_c, 1, 62, 127
2, 307160, Note_on_c, 1, 84, 127
2, 307160, Note_on_c, 1, 87, 127
2, 307200, Note_off_c, 1, 87, 0
2, 307200, Note_on_c, 1, 88, 127
2, 307240, Note_on_c, 1, 83, 127
2, 307240, Note_off_c, 1, 84, 0
2, 307280, Note_off_c, 1, 62, 0
2, 307280, Note_off_c, 1, 83, 0
2, 307280, Note_on_c, 1, 84, 127
2, 307280, Note_off_c, 1, 88, 0
2, 307320, Note_on_c, 1, 67, 127
2, 307320, Note_on_c, 1, 82, 127
2, 307320, Note_off_c, 1, 84, 0
2, 307320, Note_on_c, 1, 85, 127
2, 307480, Note_off_c, 1, 67, 0
2, 307480, Note_off_c, 1, 82, 0
2, 307480, Note_off_c, 1, 85, 0
2, 307520, Note_on_c, 1, 67, 127
2, 307520, Note_on_c, 1, 84, 127
2, 307680, Note_off_c, 1, 67, 0
2, 307680, Note_off_c, 1, 84, 0
2, 307720, Note_on_c, 1, 65, 127
2, 307720, Note_on_c, 1, 81, 127
2, 307720, Note_on_c, 1, 84, 127
2, 307840, Note_off_c, 1, 65, 0
2, 307840, Note_off_c, 1, 84, 0
2, 307880, Note_off_c, 1, 81, 0
2, 307880, Note_on_c, 1, 82, 127
2, 308040, Note_off_c, 1, 82, 0
2, 308120, Note_on_c, 1, 80, 127
2, 308120, Note_on_c, 1, 84, 127
2, 308160, Note_off_c, 1, 80, 0
2, 308160, Note_off_c, 1, 84, 0
2, 308160, Note_on_c, 1, 86, 127
2, 308200, Note_on_c, 1, 84, 127
2, 308200, Note_off_c, 1, 86, 0
2, 308240, Note_off_c, 1, 84, 0
2, 308280, Note_on_c, 1, 82, 127
2, 308280, Note_on_c, 1, 85, 127
2, 308440, Note_off_c, 1, 82, 0
2, 308440, Note_off_c, 1, 85, 0
2, 308480, Note_on_c, 1, 74, 127
2, 308480, Note_on_c, 1, 81, 127
2, 308480, Note_on_c, 1, 85, 127
2, 308520, Note_off_c, 1, 85, 0
2, 308640, Note_off_c, 1, 74, 0
2, 308640, Note_off_c, 1, 81, 0
2, 308680, Note_on_c, 1, 79, 127
2, 308720, Note_on_c, 1, 77, 127
2, 308720, Note_off_c, 1, 79, 0
2, 308840, Note_off_c, 1, 77, 0
2, 308880, Note_on_c, 1, 63, 127
2, 308880, Note_on_c, 1, 74, 127
2, 309000, Note_off_c, 1, 63, 0
2, 309000, Note_off_c, 1, 74, 0
2, 309080, Note_on_c, 1, 74, 127
2, 309200, Note_off_c, 1, 74, 0
2, 309240, Note_on_c, 1, 60, 127
2, 309240, Note_on_c, 1, 64, 127
2, 309240, Note_on_c, 1, 67, 127
2, 309280, Note_on_c, 1, 73, 127
2, 309280, Note_on_c, 1, 75, 127
2, 309320, Note_on_c, 1, 69, 127
2, 309320, Note_off_c, 1, 75, 0
2, 309360, Note_off_c, 1, 69, 0
2, 309360, Note_on_c, 1, 70, 127
2, 309400, Note_off_c, 1, 73, 0
2, 309440, Note_on_c, 1, 71, 127
2, 309480, Note_off_c, 1, 71, 0
2, 309560, Note_on_c, 1, 73, 127
2, 309600, Note_off_c, 1, 60, 0
2, 309600, Note_off_c, 1, 64, 0
2, 309600, Note_off_c, 1, 67, 0
2, 309600, Note_off_c, 1, 70, 0
2, 309600, Note_off_c, 1, 73, 0
2, 309640, Note_on_c, 1, 60, 127
2, 309640, Note_on_c, 1, 64, 127
2, 309640, Note_on_c, 1, 67, 127
2, 309640, Note_on_c, 1, 72, 127
2, 309800, Note_off_c, 1, 60, 0
2, 309800, Note_off_c, 1, 64, 0
2, 309800, Note_off_c, 1, 67, 0
2, 309800, Note_off_c, 1, 72, 0
2, 309840, Note_on_c, 1, 76, 127
2, 309880, Note_off_c, 1, 76, 0
2, 309920, Note_on_c, 1, 77, 127
2, 309960, Note_off_c, 1, 77, 0
2, 310040, Note_on_c, 1, 79, 127
2, 310080, Note_off_c, 1, 79, 0
2, 310120, Note_on_c, 1, 81, 127
2, 310160, Note_off_c, 1, 81, 0
2, 310200, Note_on_c, 1, 79, 127
2, 310280, Note_off_c, 1, 79, 0
2, 310320, Note_on_c, 1, 80, 127
2, 310360, Note_off_c, 1, 80, 0
2, 310400, Note_on_c, 1, 62, 127
2, 310400, Note_on_c, 1, 70, 127
2, 310400, Note_on_c, 1, 79, 127
2, 310440, Note_off_c, 1, 79, 0
2, 310520, Note_on_c, 1, 77, 127
2, 310560, Note_off_c, 1, 77, 0
2, 310600, Note_on_c, 1, 76, 127
2, 310640, Note_off_c, 1, 76, 0
2, 310680, Note_on_c, 1, 77, 127
2, 310720, Note_off_c, 1, 77, 0
2, 310760, Note_off_c, 1, 62, 0
2, 310760, Note_off_c, 1, 70, 0
2, 310800, Note_on_c, 1, 74, 127
2, 310840, Note_off_c, 1, 74, 0
2, 310880, Note_on_c, 1, 72, 127
2, 310920, Note_off_c, 1, 72, 0
2, 311000, Note_on_c, 1, 71, 127
2, 311040, Note_off_c, 1, 71, 0
2, 311080, Note_on_c, 1, 77, 127
2, 311120, Note_off_c, 1, 77, 0
2, 311160, Note_on_c, 1, 64, 127
2, 311160, Note_on_c, 1, 69, 127
2, 311160, Note_on_c, 1, 74, 127
2, 311200, Note_off_c, 1, 74, 0
2, 311280, Note_on_c, 1, 72, 127
2, 311320, Note_off_c, 1, 72, 0
2, 311360, Note_on_c, 1, 75, 127
2, 311400, Note_off_c, 1, 75, 0
2, 311480, Note_on_c, 1, 77, 127
2, 311520, Note_off_c, 1, 64, 0
2, 311520, Note_off_c, 1, 69, 0
2, 311520, Note_off_c, 1, 77, 0
2, 311560, Note_on_c, 1, 67, 127
2, 311600, Note_off_c, 1, 67, 0
2, 311640, Note_on_c, 1, 78, 127
2, 311720, Note_off_c, 1, 78, 0
2, 311760, Note_on_c, 1, 69, 127
2, 311800, Note_off_c, 1, 69, 0
2, 311840, Note_on_c, 1, 81, 127
2, 311880, Note_off_c, 1, 81, 0
2, 311960, Note_on_c, 1, 68, 127
2, 311960, Note_on_c, 1, 71, 127
2, 311960, Note_on_c, 1, 77, 127
2, 312280, Note_off_c, 1, 68, 0
2, 312280, Note_off_c, 1, 71, 0
2, 312280, Note_off_c, 1, 77, 0
2, 312720, Note_on_c, 1, 59, 127
2, 312720, Note_on_c, 1, 68, 127
2, 312720, Note_on_c, 1, 74, 127
2, 312720, Note_on_c, 1, 77, 127
2, 312720, Note_on_c, 1, 86, 127
2, 312840, Note_off_c, 1, 59, 0
2, 312840, Note_off_c, 1, 68, 0
2, 312840, Note_off_c, 1, 74, 0
2, 312840, Note_off_c, 1, 77, 0
2, 312840, Note_off_c, 1, 86, 0
2, 313080, Note_on_c, 1, 60, 127
2, 313080, Note_on_c, 1, 67, 127
2, 313080, Note_on_c, 1, 72, 127
2, 313080, Note_on_c, 1, 76, 127
2, 313080, Note_on_c, 1, 84, 127
2, 313240, Note_off_c, 1, 60, 0
2, 313280, Note_on_c, 1, 60, 127
2, 313440, Note_off_c, 1, 60, 0
2, 313440, Note_off_c, 1, 67, 0
2, 313440, Note_off_c, 1, 72, 0
2, 313440, Note_off_c, 1, 76, 0
2, 313440, Note_off_c, 1, 84, 0
2, 313880, Note_on_c, 1, 48, 127
2, 314040, Note_on_c, 1, 72, 127
2, 314200, Note_off_c, 1, 48, 0
2, 314200, Note_off_c, 1, 72, 0
2, 314240, Note_on_c, 1, 55, 127
2, 314240, Note_on_c, 1, 60, 127
2, 314240, Note_on_c, 1, 64, 127
2, 314240, Note_on_c, 1, 72, 127
2, 314280, Note_on_c, 1, 67, 127
2, 314400, Note_off_c, 1, 67, 0
2, 314400, Note_off_c, 1, 72, 0
2, 314440, Note_on_c, 1, 67, 127
2, 314440, Note_on_c, 1, 70, 127
2, 314600, Note_off_c, 1, 55, 0
2, 314600, Note_off_c, 1, 60, 0
2, 314600, Note_off_c, 1, 64, 0
2, 314600, Note_off_c, 1, 67, 0
2, 314600, Note_off_c, 1, 70, 0
2, 314640, Note_on_c, 1, 53, 127
2, 314640, Note_on_c, 1, 60, 127
2, 314640, Note_on_c, 1, 65, 127
2, 314640, Note_on_c, 1, 69, 127
2, 314960, Note_off_c, 1, 53, 0
2, 314960, Note_off_c, 1, 60, 0
2, 315040, Note_on_c, 1, 53, 127
2, 315160, Note_off_c, 1, 65, 0
2, 315160, Note_off_c, 1, 69, 0
2, 315360, Note_off_c, 1, 53, 0
2, 315400, Note_on_c, 1, 60, 127
2, 315600, Note_on_c, 1, 65, 127
2, 315600, Note_on_c, 1, 69, 127
2, 315640, Note_off_c, 1, 65, 0
2, 315640, Note_off_c, 1, 69, 0
2, 315720, Note_off_c, 1, 60, 0
2, 315800, Note_on_c, 1, 57, 127
2, 315800, Note_on_c, 1, 70, 127
2, 315800, Note_on_c, 1, 71, 127
2, 315840, Note_off_c, 1, 70, 0
2, 315840, Note_off_c, 1, 71, 0
2, 315960, Note_on_c, 1, 74, 127
2, 315960, Note_on_c, 1, 77, 127
2, 316040, Note_off_c, 1, 74, 0
2, 316040, Note_off_c, 1, 77, 0
2, 316120, Note_off_c, 1, 57, 0
2, 316160, Note_on_c, 1, 48, 127
2, 316160, Note_on_c, 1, 75, 127
2, 316160, Note_on_c, 1, 79, 127
2, 316200, Note_off_c, 1, 75, 0
2, 316200, Note_off_c, 1, 79, 0
2, 316360, Note_on_c, 1, 74, 127
2, 316360, Note_on_c, 1, 77, 127
2, 316400, Note_off_c, 1, 74, 0
2, 316400, Note_off_c, 1, 77, 0
2, 316520, Note_off_c, 1, 48, 0
2, 316560, Note_on_c, 1, 75, 127
2, 316560, Note_on_c, 1, 79, 127
2, 316680, Note_off_c, 1, 75, 0
2, 316680, Note_off_c, 1, 79, 0
2, 316760, Note_on_c, 1, 79, 127
2, 316760, Note_on_c, 1, 81, 127
2, 316800, Note_off_c, 1, 79, 0
2, 316800, Note_off_c, 1, 81, 0
2, 316920, Note_on_c, 1, 77, 127
2, 316920, Note_on_c, 1, 81, 127
2, 317080, Note_off_c, 1, 77, 0
2, 317080, Note_off_c, 1, 81, 0
2, 317120, Note_on_c, 1, 75, 127
2, 317120, Note_on_c, 1, 79, 127
2, 317280, Note_off_c, 1, 75, 0
2, 317280, Note_off_c, 1, 79, 0
2, 317320, Note_on_c, 1, 46, 127
2, 317320, Note_on_c, 1, 74, 127
2, 317320, Note_on_c, 1, 82, 127
2, 317480, Note_off_c, 1, 46, 0
2, 317480, Note_off_c, 1, 82, 0
2, 317520, Note_on_c, 1, 50, 127
2, 317520, Note_on_c, 1, 82, 127
2, 317640, Note_off_c, 1, 50, 0
2, 317640, Note_off_c, 1, 74, 0
2, 317640, Note_off_c, 1, 82, 0
2, 317720, Note_on_c, 1, 53, 127
2, 317840, Note_off_c, 1, 53, 0
2, 317880, Note_on_c, 1, 50, 127
2, 317880, Note_on_c, 1, 77, 127
2, 317880, Note_on_c, 1, 81, 127
2, 318040, Note_off_c, 1, 50, 0
2, 318040, Note_off_c, 1, 77, 0
2, 318040, Note_off_c, 1, 81, 0
2, 318080, Note_on_c, 1, 53, 127
2, 318080, Note_on_c, 1, 74, 127
2, 318080, Note_on_c, 1, 80, 127
2, 318120, Note_off_c, 1, 53, 0
2, 318240, Note_off_c, 1, 74, 0
2, 318240, Note_off_c, 1, 80, 0
2, 318280, Note_on_c, 1, 51, 127
2, 318280, Note_on_c, 1, 72, 127
2, 318280, Note_on_c, 1, 79, 127
2, 318320, Note_off_c, 1, 51, 0
2, 318440, Note_off_c, 1, 72, 0
2, 318440, Note_off_c, 1, 79, 0
2, 318480, Note_on_c, 1, 41, 127
2, 318480, Note_on_c, 1, 74, 127
2, 318480, Note_on_c, 1, 80, 127
2, 318600, Note_off_c, 1, 74, 0
2, 318600, Note_off_c, 1, 80, 0
2, 318680, Note_on_c, 1, 77, 127
2, 318680, Note_on_c, 1, 81, 127
2, 318800, Note_off_c, 1, 41, 0
2, 318800, Note_off_c, 1, 77, 0
2, 318800, Note_off_c, 1, 81, 0
2, 318840, Note_on_c, 1, 43, 127
2, 318840, Note_on_c, 1, 77, 127
2, 318840, Note_on_c, 1, 82, 127
2, 318920, Note_off_c, 1, 77, 0
2, 318920, Note_off_c, 1, 82, 0
2, 319000, Note_off_c, 1, 43, 0
2, 319040, Note_on_c, 1, 48, 127
2, 319040, Note_on_c, 1, 77, 127
2, 319040, Note_on_c, 1, 81, 127
2, 319080, Note_off_c, 1, 77, 0
2, 319080, Note_off_c, 1, 81, 0
2, 319200, Note_off_c, 1, 48, 0
2, 319240, Note_on_c, 1, 41, 127
2, 319240, Note_on_c, 1, 77, 127
2, 319240, Note_on_c, 1, 81, 127
2, 319400, Note_off_c, 1, 77, 0
2, 319400, Note_off_c, 1, 81, 0
2, 319440, Note_on_c, 1, 77, 127
2, 319440, Note_on_c, 1, 81, 127
2, 319480, Note_off_c, 1, 77, 0
2, 319480, Note_off_c, 1, 81, 0
2, 319560, Note_off_c, 1, 41, 0
2, 319640, Note_on_c, 1, 41, 127
2, 319640, Note_on_c, 1, 77, 127
2, 319640, Note_on_c, 1, 82, 127
2, 319680, Note_off_c, 1, 77, 0
2, 319680, Note_off_c, 1, 82, 0
2, 319760, Note_off_c, 1, 41, 0
2, 319800, Note_on_c, 1, 41, 127
2, 319800, Note_on_c, 1, 75, 127
2, 319800, Note_on_c, 1, 81, 127
2, 319880, Note_off_c, 1, 75, 0
2, 319880, Note_off_c, 1, 81, 0
2, 319960, Note_off_c, 1, 41, 0
2, 320000, Note_on_c, 1, 46, 127
2, 320000, Note_on_c, 1, 74, 127
2, 320000, Note_on_c, 1, 82, 127
2, 320160, Note_off_c, 1, 74, 0
2, 320160, Note_off_c, 1, 82, 0
2, 320200, Note_on_c, 1, 74, 127
2, 320200, Note_on_c, 1, 77, 127
2, 320240, Note_off_c, 1, 74, 0
2, 320240, Note_off_c, 1, 77, 0
2, 320360, Note_off_c, 1, 46, 0
2, 320400, Note_on_c, 1, 43, 127
2, 320400, Note_on_c, 1, 75, 127
2, 320400, Note_on_c, 1, 82, 127
2, 320440, Note_off_c, 1, 75, 0
2, 320520, Note_off_c, 1, 43, 0
2, 320520, Note_off_c, 1, 82, 0
2, 320600, Note_on_c, 1, 55, 127
2, 320600, Note_on_c, 1, 79, 127
2, 320600, Note_on_c, 1, 82, 127
2, 320640, Note_off_c, 1, 55, 0
2, 320640, Note_off_c, 1, 82, 0
2, 320720, Note_off_c, 1, 79, 0
2, 320760, Note_on_c, 1, 41, 127
2, 320760, Note_on_c, 1, 77, 127
2, 320760, Note_on_c, 1, 79, 127
2, 320840, Note_off_c, 1, 77, 0
2, 320840, Note_off_c, 1, 79, 0
2, 320920, Note_off_c, 1, 41, 0
2, 320960, Note_on_c, 1, 79, 127
2, 320960, Note_on_c, 1, 82, 127
2, 321000, Note_off_c, 1, 79, 0
2, 321120, Note_off_c, 1, 82, 0
2, 321160, Note_on_c, 1, 82, 127
2, 321160, Note_on_c, 1, 84, 127
2, 321200, Note_off_c, 1, 82, 0
2, 321320, Note_off_c, 1, 84, 0
2, 321360, Note_on_c, 1, 72, 127
2, 321360, Note_on_c, 1, 75, 127
2, 321360, Note_on_c, 1, 81, 127
2, 321360, Note_on_c, 1, 84, 127
2, 321400, Note_off_c, 1, 72, 0
2, 321480, Note_off_c, 1, 75, 0
2, 321480, Note_off_c, 1, 81, 0
2, 321480, Note_off_c, 1, 84, 0
2, 321560, Note_on_c, 1, 82, 127
2, 321560, Note_on_c, 1, 87, 127
2, 321600, Note_off_c, 1, 82, 0
2, 321600, Note_off_c, 1, 87, 0
2, 321720, Note_on_c, 1, 82, 127
2, 321720, Note_on_c, 1, 86, 127
2, 321880, Note_off_c, 1, 82, 0
2, 321880, Note_off_c, 1, 86, 0
2, 321920, Note_on_c, 1, 82, 127
2, 321920, Note_on_c, 1, 87, 127
2, 321960, Note_on_c, 1, 84, 127
2, 321960, Note_off_c, 1, 87, 0
2, 322000, Note_off_c, 1, 84, 0
2, 322040, Note_on_c, 1, 81, 127
2, 322040, Note_off_c, 1, 82, 0
2, 322040, Note_on_c, 1, 84, 127
2, 322080, Note_off_c, 1, 81, 0
2, 322080, Note_off_c, 1, 84, 0
2, 322120, Note_on_c, 1, 53, 127
2, 322120, Note_on_c, 1, 65, 127
2, 322120, Note_on_c, 1, 70, 127
2, 322120, Note_on_c, 1, 75, 127
2, 322120, Note_on_c, 1, 82, 127
2, 322160, Note_off_c, 1, 75, 0
2, 322160, Note_off_c, 1, 82, 0
2, 322280, Note_off_c, 1, 70, 0
2, 322320, Note_on_c, 1, 74, 127
2, 322320, Note_on_c, 1, 83, 127
2, 322360, Note_off_c, 1, 74, 0
2, 322360, Note_off_c, 1, 83, 0
2, 322440, Note_off_c, 1, 53, 0
2, 322440, Note_off_c, 1, 65, 0
2, 322520, Note_on_c, 1, 82, 127
2, 322520, Note_on_c, 1, 86, 127
2, 322560, Note_off_c, 1, 86, 0
2, 322680, Note_on_c, 1, 84, 127
2, 322720, Note_off_c, 1, 84, 0
2, 322840, Note_off_c, 1, 82, 0
2, 322880, Note_on_c, 1, 50, 127
2, 322880, Note_on_c, 1, 65, 127
2, 322880, Note_on_c, 1, 82, 127
2, 323000, Note_on_c, 1, 81, 127
2, 323040, Note_off_c, 1, 65, 0
2, 323040, Note_off_c, 1, 81, 0
2, 323040, Note_off_c, 1, 82, 0
2, 323080, Note_on_c, 1, 65, 127
2, 323080, Note_on_c, 1, 79, 127
2, 323080, Note_on_c, 1, 82, 127
2, 323120, Note_off_c, 1, 79, 0
2, 323120, Note_off_c, 1, 82, 0
2, 323240, Note_off_c, 1, 50, 0
2, 323240, Note_off_c, 1, 65, 0
2, 323280, Note_on_c, 1, 51, 127
2, 323280, Note_on_c, 1, 62, 127
2, 323280, Note_on_c, 1, 72, 127
2, 323280, Note_on_c, 1, 79, 127
2, 323320, Note_off_c, 1, 72, 0
2, 323320, Note_off_c, 1, 79, 0
2, 323400, Note_off_c, 1, 51, 0
2, 323400, Note_off_c, 1, 62, 0
2, 323480, Note_on_c, 1, 51, 127
2, 323480, Note_on_c, 1, 63, 127
2, 323480, Note_on_c, 1, 81, 127
2, 323480, Note_on_c, 1, 84, 127
2, 323600, Note_off_c, 1, 51, 0
2, 323600, Note_off_c, 1, 63, 0
2, 323600, Note_off_c, 1, 81, 0
2, 323600, Note_off_c, 1, 84, 0
2, 323640, Note_on_c, 1, 50, 127
2, 323640, Note_on_c, 1, 62, 127
2, 323640, Note_on_c, 1, 74, 127
2, 323640, Note_on_c, 1, 82, 127
2, 323720, Note_off_c, 1, 74, 0
2, 323720, Note_off_c, 1, 82, 0
2, 323800, Note_off_c, 1, 50, 0
2, 323800, Note_off_c, 1, 62, 0
2, 323840, Note_on_c, 1, 51, 127
2, 323840, Note_on_c, 1, 63, 127
2, 323840, Note_on_c, 1, 72, 127
2, 323840, Note_on_c, 1, 81, 127
2, 324000, Note_off_c, 1, 51, 0
2, 324000, Note_off_c, 1, 63, 0
2, 324000, Note_off_c, 1, 81, 0
2, 324040, Note_on_c, 1, 48, 127
2, 324040, Note_on_c, 1, 60, 127
2, 324040, Note_on_c, 1, 75, 127
2, 324200, Note_off_c, 1, 48, 0
2, 324200, Note_off_c, 1, 60, 0
2, 324200, Note_off_c, 1, 72, 0
2, 324200, Note_off_c, 1, 75, 0
2, 324240, Note_on_c, 1, 48, 127
2, 324240, Note_on_c, 1, 60, 127
2, 324360, Note_off_c, 1, 48, 0
2, 324360, Note_off_c, 1, 60, 0
2, 324440, Note_on_c, 1, 48, 127
2, 324440, Note_on_c, 1, 60, 127
2, 324440, Note_on_c, 1, 72, 127
2, 324560, Note_off_c, 1, 48, 0
2, 324560, Note_off_c, 1, 60, 0
2, 324560, Note_off_c, 1, 72, 0
2, 324600, Note_on_c, 1, 53, 127
2, 324600, Note_on_c, 1, 65, 127
2, 324600, Note_on_c, 1, 70, 127
2, 324600, Note_on_c, 1, 74, 127
2, 324680, Note_off_c, 1, 70, 0
2, 324680, Note_off_c, 1, 74, 0
2, 324760, Note_off_c, 1, 53, 0
2, 324760, Note_off_c, 1, 65, 0
2, 324800, Note_on_c, 1, 53, 127
2, 324800, Note_on_c, 1, 65, 127
2, 324800, Note_on_c, 1, 72, 127
2, 324800, Note_on_c, 1, 75, 127
2, 324840, Note_off_c, 1, 72, 0
2, 324840, Note_off_c, 1, 75, 0
2, 324960, Note_off_c, 1, 53, 0
2, 324960, Note_off_c, 1, 65, 0
2, 325000, Note_on_c, 1, 51, 127
2, 325000, Note_on_c, 1, 63, 127
2, 325000, Note_on_c, 1, 75, 127
2, 325040, Note_off_c, 1, 75, 0
2, 325080, Note_on_c, 1, 74, 127
2, 325160, Note_off_c, 1, 51, 0
2, 325160, Note_off_c, 1, 63, 0
2, 325160, Note_off_c, 1, 74, 0
2, 325200, Note_on_c, 1, 48, 127
2, 325200, Note_on_c, 1, 60, 127
2, 325200, Note_on_c, 1, 75, 127
2, 325240, Note_off_c, 1, 75, 0
2, 325280, Note_on_c, 1, 74, 127
2, 325320, Note_off_c, 1, 48, 0
2, 325320, Note_off_c, 1, 60, 0
2, 325320, Note_off_c, 1, 74, 0
2, 325400, Note_on_c, 1, 48, 127
2, 325400, Note_on_c, 1, 60, 127
2, 325400, Note_on_c, 1, 72, 127
2, 325440, Note_off_c, 1, 72, 0
2, 325480, Note_on_c, 1, 74, 127
2, 325520, Note_off_c, 1, 48, 0
2, 325520, Note_off_c, 1, 60, 0
2, 325520, Note_off_c, 1, 74, 0
2, 325560, Note_on_c, 1, 46, 127
2, 325560, Note_on_c, 1, 58, 127
2, 325560, Note_on_c, 1, 70, 127
2, 325640, Note_off_c, 1, 70, 0
2, 325680, Note_on_c, 1, 72, 127
2, 325720, Note_off_c, 1, 46, 0
2, 325720, Note_off_c, 1, 58, 0
2, 325720, Note_off_c, 1, 72, 0
2, 325760, Note_on_c, 1, 46, 127
2, 325760, Note_on_c, 1, 58, 127
2, 325760, Note_on_c, 1, 70, 127
2, 325800, Note_off_c, 1, 70, 0
2, 325880, Note_on_c, 1, 72, 127
2, 325920, Note_off_c, 1, 46, 0
2, 325920, Note_off_c, 1, 58, 0
2, 325920, Note_off_c, 1, 72, 0
2, 325960, Note_on_c, 1, 43, 127
2, 325960, Note_on_c, 1, 55, 127
2, 325960, Note_on_c, 1, 67, 127
2, 326000, Note_off_c, 1, 67, 0
2, 326040, Note_on_c, 1, 70, 127
2, 326120, Note_off_c, 1, 43, 0
2, 326120, Note_off_c, 1, 55, 0
2, 326120, Note_off_c, 1, 70, 0
2, 326160, Note_on_c, 1, 42, 127
2, 326160, Note_on_c, 1, 54, 127
2, 326160, Note_on_c, 1, 75, 127
2, 326200, Note_off_c, 1, 75, 0
2, 326240, Note_on_c, 1, 72, 127
2, 326280, Note_off_c, 1, 42, 0
2, 326280, Note_off_c, 1, 54, 0
2, 326280, Note_off_c, 1, 72, 0
2, 326360, Note_on_c, 1, 41, 127
2, 326360, Note_on_c, 1, 53, 127
2, 326360, Note_on_c, 1, 77, 127
2, 326400, Note_off_c, 1, 77, 0
2, 326440, Note_on_c, 1, 75, 127
2, 326480, Note_off_c, 1, 41, 0
2, 326480, Note_off_c, 1, 53, 0
2, 326480, Note_off_c, 1, 75, 0
2, 326520, Note_on_c, 1, 38, 127
2, 326520, Note_on_c, 1, 50, 127
2, 326520, Note_on_c, 1, 62, 127
2, 326520, Note_on_c, 1, 70, 127
2, 326600, Note_off_c, 1, 70, 0
2, 326640, Note_on_c, 1, 77, 127
2, 326680, Note_off_c, 1, 38, 0
2, 326680, Note_off_c, 1, 50, 0
2, 326680, Note_off_c, 1, 62, 0
2, 326680, Note_off_c, 1, 77, 0
2, 326720, Note_on_c, 1, 39, 127
2, 326720, Note_on_c, 1, 51, 127
2, 326720, Note_on_c, 1, 63, 127
2, 326760, Note_off_c, 1, 63, 0
2, 326840, Note_on_c, 1, 77, 127
2, 326880, Note_off_c, 1, 39, 0
2, 326880, Note_off_c, 1, 51, 0
2, 326880, Note_off_c, 1, 77, 0
2, 326920, Note_on_c, 1, 40, 127
2, 326920, Note_on_c, 1, 52, 127
2, 326920, Note_on_c, 1, 67, 127
2, 326920, Note_on_c, 1, 72, 127
2, 326960, Note_off_c, 1, 67, 0
2, 326960, Note_off_c, 1, 72, 0
2, 327000, Note_on_c, 1, 81, 127
2, 327080, Note_off_c, 1, 40, 0
2, 327080, Note_off_c, 1, 52, 0
2, 327080, Note_off_c, 1, 81, 0
2, 327120, Note_on_c, 1, 41, 127
2, 327120, Note_on_c, 1, 53, 127
2, 327120, Note_on_c, 1, 65, 127
2, 327120, Note_on_c, 1, 72, 127
2, 327160, Note_off_c, 1, 65, 0
2, 327160, Note_off_c, 1, 72, 0
2, 327200, Note_on_c, 1, 81, 127
2, 327240, Note_off_c, 1, 41, 0
2, 327240, Note_off_c, 1, 53, 0
2, 327240, Note_off_c, 1, 81, 0
2, 327320, Note_on_c, 1, 43, 127
2, 327320, Note_on_c, 1, 55, 127
2, 327320, Note_on_c, 1, 67, 127
2, 327320, Note_on_c, 1, 72, 127
2, 327360, Note_off_c, 1, 67, 0
2, 327360, Note_off_c, 1, 72, 0
2, 327400, Note_on_c, 1, 81, 127
2, 327440, Note_off_c, 1, 43, 0
2, 327440, Note_off_c, 1, 55, 0
2, 327440, Note_off_c, 1, 81, 0
2, 327480, Note_on_c, 1, 40, 127
2, 327480, Note_on_c, 1, 52, 127
2, 327480, Note_on_c, 1, 68, 127
2, 327480, Note_on_c, 1, 81, 127
2, 327560, Note_off_c, 1, 68, 0
2, 327560, Note_off_c, 1, 81, 0
2, 327600, Note_on_c, 1, 84, 127
2, 327640, Note_off_c, 1, 40, 0
2, 327640, Note_off_c, 1, 52, 0
2, 327640, Note_off_c, 1, 84, 0
2, 327680, Note_on_c, 1, 38, 127
2, 327680, Note_on_c, 1, 50, 127
2, 327680, Note_on_c, 1, 70, 127
2, 327680, Note_on_c, 1, 79, 127
2, 327720, Note_off_c, 1, 70, 0
2, 327720, Note_off_c, 1, 79, 0
2, 327800, Note_on_c, 1, 82, 127
2, 327840, Note_off_c, 1, 38, 0
2, 327840, Note_off_c, 1, 50, 0
2, 327840, Note_off_c, 1, 82, 0
2, 327880, Note_on_c, 1, 46, 127
2, 327880, Note_on_c, 1, 58, 127
2, 327880, Note_on_c, 1, 74, 127
2, 327880, Note_on_c, 1, 79, 127
2, 327920, Note_off_c, 1, 46, 0
2, 327920, Note_off_c, 1, 74, 0
2, 327920, Note_off_c, 1, 79, 0
2, 327960, Note_on_c, 1, 82, 127
2, 328040, Note_off_c, 1, 58, 0
2, 328040, Note_off_c, 1, 82, 0
2, 328080, Note_on_c, 1, 39, 127
2, 328080, Note_on_c, 1, 51, 127
2, 328080, Note_on_c, 1, 63, 127
2, 328080, Note_on_c, 1, 70, 127
2, 328080, Note_on_c, 1, 79, 127
2, 328400, Note_off_c, 1, 39, 0
2, 328400, Note_off_c, 1, 51, 0
2, 328400, Note_off_c, 1, 63, 0
2, 328400, Note_off_c, 1, 70, 0
2, 328400, Note_off_c, 1, 79, 0
2, 329240, Note_on_c, 1, 61, 127
2, 329240, Note_on_c, 1, 76, 127
2, 329240, Note_on_c, 1, 80, 127
2, 329240, Note_on_c, 1, 84, 127
2, 329560, Note_off_c, 1, 76, 0
2, 329560, Note_off_c, 1, 80, 0
2, 329560, Note_off_c, 1, 84, 0
2, 329600, Note_on_c, 1, 64, 127
2, 329600, Note_on_c, 1, 73, 127
2, 329600, Note_on_c, 1, 76, 127
2, 329600, Note_on_c, 1, 80, 127
2, 329600, Note_on_c, 1, 82, 127
2, 329640, Note_off_c, 1, 82, 0
2, 329640, Note_on_c, 1, 84, 127
2, 329760, Note_off_c, 1, 84, 0
2, 329760, Note_on_c, 1, 85, 127
2, 329840, Note_off_c, 1, 64, 0
2, 330120, Note_off_c, 1, 85, 0
2, 330160, Note_on_c, 1, 64, 127
2, 330320, Note_off_c, 1, 64, 0
2, 330360, Note_on_c, 1, 64, 127
2, 330720, Note_off_c, 1, 61, 0
2, 330720, Note_off_c, 1, 64, 0
2, 330720, Note_off_c, 1, 73, 0
2, 330720, Note_off_c, 1, 76, 0
2, 330720, Note_off_c, 1, 80, 0
2, 331160, Note_on_c, 1, 51, 127
2, 331160, Note_on_c, 1, 63, 127
2, 331160, Note_on_c, 1, 73, 127
2, 331160, Note_on_c, 1, 78, 127
2, 331480, Note_off_c, 1, 73, 0
2, 331480, Note_off_c, 1, 78, 0
2, 331520, Note_on_c, 1, 78, 127
2, 331520, Note_on_c, 1, 82, 127
2, 331880, Note_off_c, 1, 51, 0
2, 331880, Note_off_c, 1, 63, 0
2, 331880, Note_off_c, 1, 78, 0
2, 331880, Note_off_c, 1, 82, 0
2, 331920, Note_on_c, 1, 40, 127
2, 331920, Note_on_c, 1, 52, 127
2, 331920, Note_on_c, 1, 73, 127
2, 331920, Note_on_c, 1, 79, 127
2, 331920, Note_on_c, 1, 82, 127
2, 332240, Note_off_c, 1, 40, 0
2, 332280, Note_on_c, 1, 61, 127
2, 332480, Note_on_c, 1, 69, 127
2, 332520, Note_off_c, 1, 69, 0
2, 332560, Note_on_c, 1, 70, 127
2, 332640, Note_off_c, 1, 70, 0
2, 332640, Note_off_c, 1, 73, 0
2, 332640, Note_off_c, 1, 79, 0
2, 332640, Note_off_c, 1, 82, 0
2, 332680, Note_on_c, 1, 67, 127
2, 332680, Note_on_c, 1, 73, 127
2, 332680, Note_on_c, 1, 82, 127
2, 332840, Note_off_c, 1, 67, 0
2, 332880, Note_on_c, 1, 76, 127
2, 333000, Note_off_c, 1, 52, 0
2, 333000, Note_off_c, 1, 73, 0
2, 333000, Note_off_c, 1, 76, 0
2, 333000, Note_off_c, 1, 82, 0
2, 333080, Note_on_c, 1, 54, 127
2, 333080, Note_on_c, 1, 73, 127
2, 333080, Note_on_c, 1, 82, 127
2, 333120, Note_off_c, 1, 73, 0
2, 333160, Note_on_c, 1, 75, 127
2, 333200, Note_off_c, 1, 75, 0
2, 333240, Note_on_c, 1, 73, 127
2, 333320, Note_off_c, 1, 73, 0
2, 333360, Note_on_c, 1, 75, 127
2, 333400, Note_off_c, 1, 54, 0
2, 333400, Note_off_c, 1, 61, 0
2, 333400, Note_off_c, 1, 75, 0
2, 333400, Note_off_c, 1, 82, 0
2, 333440, Note_on_c, 1, 55, 127
2, 333440, Note_on_c, 1, 59, 127
2, 333440, Note_on_c, 1, 62, 127
2, 333440, Note_on_c, 1, 71, 127
2, 333440, Note_on_c, 1, 74, 127
2, 333480, Note_off_c, 1, 59, 0
2, 333560, Note_on_c, 1, 59, 127
2, 333720, Note_on_c, 1, 73, 127
2, 333800, Note_off_c, 1, 55, 0
2, 333800, Note_off_c, 1, 59, 0
2, 333800, Note_off_c, 1, 62, 0
2, 333800, Note_off_c, 1, 71, 0
2, 333800, Note_off_c, 1, 73, 0
2, 333800, Note_off_c, 1, 74, 0
2, 333840, Note_on_c, 1, 57, 127
2, 333840, Note_on_c, 1, 60, 127
2, 333840, Note_on_c, 1, 72, 127
2, 333840, Note_on_c, 1, 75, 127
2, 333880, Note_off_c, 1, 75, 0
2, 333920, Note_on_c, 1, 76, 127
2, 333960, Note_off_c, 1, 76, 0
2, 334040, Note_on_c, 1, 78, 127
2, 334080, Note_off_c, 1, 78, 0
2, 334120, Note_on_c, 1, 79, 127
2, 334160, Note_off_c, 1, 57, 0
2, 334160, Note_off_c, 1, 60, 0
2, 334160, Note_off_c, 1, 72, 0
2, 334160, Note_off_c, 1, 79, 0
2, 334200, Note_on_c, 1, 83, 127
2, 334280, Note_off_c, 1, 83, 0
2, 334320, Note_on_c, 1, 81, 127
2, 334360, Note_off_c, 1, 81, 0
2, 334400, Note_on_c, 1, 79, 127
2, 334440, Note_off_c, 1, 79, 0
2, 334520, Note_on_c, 1, 78, 127
2, 334560, Note_off_c, 1, 78, 0
2, 334600, Note_on_c, 1, 76, 127
2, 334640, Note_off_c, 1, 76, 0
2, 334680, Note_on_c, 1, 74, 127
2, 334760, Note_off_c, 1, 74, 0
2, 334800, Note_on_c, 1, 73, 127
2, 334840, Note_off_c, 1, 73, 0
2, 334880, Note_on_c, 1, 71, 127
2, 335000, Note_on_c, 1, 59, 127
2, 335000, Note_on_c, 1, 61, 127
2, 335000, Note_on_c, 1, 64, 127
2, 335000, Note_off_c, 1, 71, 0
2, 335000, Note_on_c, 1, 76, 127
2, 335040, Note_off_c, 1, 64, 0
2, 335120, Note_off_c, 1, 59, 0
2, 335120, Note_off_c, 1, 76, 0
2, 335160, Note_on_c, 1, 66, 127
2, 335160, Note_on_c, 1, 69, 127
2, 335240, Note_off_c, 1, 69, 0
2, 335280, Note_on_c, 1, 71, 127
2, 335320, Note_off_c, 1, 61, 0
2, 335320, Note_off_c, 1, 66, 0
2, 335320, Note_off_c, 1, 71, 0
2, 335360, Note_on_c, 1, 62, 127
2, 335360, Note_on_c, 1, 71, 127
2, 335400, Note_off_c, 1, 62, 0
2, 335480, Note_on_c, 1, 64, 127
2, 335520, Note_off_c, 1, 64, 0
2, 335560, Note_on_c, 1, 59, 127
2, 335600, Note_off_c, 1, 59, 0
2, 335640, Note_on_c, 1, 64, 127
2, 335720, Note_off_c, 1, 64, 0
2, 335720, Note_off_c, 1, 71, 0
2, 335760, Note_on_c, 1, 59, 127
2, 335760, Note_on_c, 1, 74, 127
2, 335800, Note_off_c, 1, 59, 0
2, 335840, Note_on_c, 1, 64, 127
2, 335880, Note_off_c, 1, 64, 0
2, 335960, Note_on_c, 1, 58, 127
2, 336000, Note_off_c, 1, 58, 0
2, 336040, Note_on_c, 1, 64, 127
2, 336080, Note_off_c, 1, 64, 0
2, 336080, Note_off_c, 1, 74, 0
2, 336120, Note_on_c, 1, 55, 127
2, 336120, Note_on_c, 1, 73, 127
2, 336200, Note_off_c, 1, 55, 0
2, 336240, Note_on_c, 1, 64, 127
2, 336280, Note_off_c, 1, 64, 0
2, 336280, Note_off_c, 1, 73, 0
2, 336320, Note_on_c, 1, 59, 127
2, 336320, Note_on_c, 1, 71, 127
2, 336360, Note_off_c, 1, 59, 0
2, 336440, Note_on_c, 1, 64, 127
2, 336480, Note_off_c, 1, 64, 0
2, 336480, Note_off_c, 1, 71, 0
2, 336520, Note_on_c, 1, 54, 127
2, 336520, Note_on_c, 1, 70, 127
2, 336560, Note_off_c, 1, 54, 0
2, 336560, Note_off_c, 1, 70, 0
2, 336560, Note_on_c, 1, 71, 127
2, 336600, Note_on_c, 1, 64, 127
2, 336600, Note_on_c, 1, 70, 127
2, 336600, Note_off_c, 1, 71, 0
2, 336640, Note_off_c, 1, 70, 0
2, 336680, Note_off_c, 1, 64, 0
2, 336680, Note_on_c, 1, 71, 127
2, 336720, Note_on_c, 1, 57, 127
2, 336720, Note_off_c, 1, 71, 0
2, 336720, Note_on_c, 1, 73, 127
2, 336760, Note_off_c, 1, 57, 0
2, 336760, Note_off_c, 1, 73, 0
2, 336760, Note_on_c, 1, 74, 127
2, 336800, Note_on_c, 1, 64, 127
2, 336800, Note_on_c, 1, 73, 127
2, 336800, Note_off_c, 1, 74, 0
2, 336840, Note_off_c, 1, 64, 0
2, 336840, Note_off_c, 1, 73, 0
2, 336840, Note_on_c, 1, 74, 127
2, 336880, Note_off_c, 1, 74, 0
2, 336920, Note_on_c, 1, 54, 127
2, 336920, Note_on_c, 1, 74, 127
2, 336960, Note_off_c, 1, 54, 0
2, 336960, Note_off_c, 1, 74, 0
2, 336960, Note_on_c, 1, 76, 127
2, 337000, Note_on_c, 1, 66, 127
2, 337000, Note_on_c, 1, 74, 127
2, 337000, Note_off_c, 1, 76, 0
2, 337040, Note_off_c, 1, 66, 0
2, 337040, Note_off_c, 1, 74, 0
2, 337040, Note_on_c, 1, 76, 127
2, 337080, Note_on_c, 1, 57, 127
2, 337080, Note_on_c, 1, 74, 127
2, 337080, Note_off_c, 1, 76, 0
2, 337160, Note_off_c, 1, 57, 0
2, 337160, Note_off_c, 1, 74, 0
2, 337200, Note_on_c, 1, 64, 127
2, 337200, Note_on_c, 1, 73, 127
2, 337240, Note_off_c, 1, 64, 0
2, 337240, Note_off_c, 1, 73, 0
2, 337280, Note_on_c, 1, 54, 127
2, 337280, Note_on_c, 1, 71, 127
2, 337320, Note_off_c, 1, 54, 0
2, 337400, Note_on_c, 1, 66, 127
2, 337440, Note_off_c, 1, 66, 0
2, 337480, Note_on_c, 1, 57, 127
2, 337520, Note_off_c, 1, 57, 0
2, 337560, Note_on_c, 1, 66, 127
2, 337640, Note_off_c, 1, 66, 0
2, 337640, Note_off_c, 1, 71, 0
2, 337680, Note_on_c, 1, 60, 127
2, 337720, Note_off_c, 1, 60, 0
2, 337760, Note_on_c, 1, 66, 127
2, 337800, Note_off_c, 1, 66, 0
2, 337880, Note_on_c, 1, 57, 127
2, 337880, Note_on_c, 1, 72, 127
2, 337920, Note_off_c, 1, 57, 0
2, 337920, Note_off_c, 1, 72, 0
2, 337960, Note_on_c, 1, 66, 127
2, 337960, Note_on_c, 1, 71, 127
2, 338000, Note_off_c, 1, 66, 0
2, 338000, Note_off_c, 1, 71, 0
2, 338040, Note_on_c, 1, 59, 127
2, 338040, Note_on_c, 1, 72, 127
2, 338120, Note_off_c, 1, 59, 0
2, 338120, Note_off_c, 1, 72, 0
2, 338160, Note_on_c, 1, 67, 127
2, 338160, Note_on_c, 1, 75, 127
2, 338200, Note_off_c, 1, 67, 0
2, 338200, Note_off_c, 1, 75, 0
2, 338240, Note_on_c, 1, 57, 127
2, 338240, Note_on_c, 1, 79, 127
2, 338280, Note_off_c, 1, 57, 0
2, 338280, Note_off_c, 1, 79, 0
2, 338360, Note_on_c, 1, 66, 127
2, 338360, Note_on_c, 1, 78, 127
2, 338400, Note_off_c, 1, 66, 0
2, 338400, Note_off_c, 1, 78, 0
2, 338440, Note_on_c, 1, 60, 127
2, 338440, Note_on_c, 1, 78, 127
2, 338480, Note_off_c, 1, 60, 0
2, 338480, Note_off_c, 1, 78, 0
2, 338520, Note_on_c, 1, 67, 127
2, 338520, Note_on_c, 1, 79, 127
2, 338600, Note_off_c, 1, 67, 0
2, 338600, Note_off_c, 1, 79, 0
2, 338640, Note_on_c, 1, 55, 127
2, 338640, Note_on_c, 1, 83, 127
2, 338680, Note_off_c, 1, 55, 0
2, 338680, Note_off_c, 1, 83, 0
2, 338720, Note_on_c, 1, 66, 127
2, 338720, Note_on_c, 1, 81, 127
2, 338760, Note_off_c, 1, 66, 0
2, 338760, Note_off_c, 1, 81, 0
2, 338840, Note_on_c, 1, 60, 127
2, 338840, Note_on_c, 1, 83, 127
2, 338880, Note_off_c, 1, 60, 0
2, 338880, Note_off_c, 1, 83, 0
2, 338920, Note_on_c, 1, 66, 127
2, 338920, Note_on_c, 1, 81, 127
2, 338960, Note_off_c, 1, 66, 0
2, 338960, Note_off_c, 1, 81, 0
2, 339000, Note_on_c, 1, 55, 127
2, 339000, Note_on_c, 1, 83, 127
2, 339080, Note_off_c, 1, 55, 0
2, 339080, Note_off_c, 1, 83, 0
2, 339120, Note_on_c, 1, 66, 127
2, 339120, Note_on_c, 1, 81, 127
2, 339160, Note_off_c, 1, 66, 0
2, 339160, Note_off_c, 1, 81, 0
2, 339200, Note_on_c, 1, 60, 127
2, 339200, Note_on_c, 1, 79, 127
2, 339240, Note_off_c, 1, 60, 0
2, 339240, Note_off_c, 1, 79, 0
2, 339320, Note_on_c, 1, 66, 127
2, 339320, Note_on_c, 1, 78, 127
2, 339360, Note_off_c, 1, 66, 0
2, 339360, Note_off_c, 1, 78, 0
2, 339400, Note_on_c, 1, 57, 127
2, 339400, Note_on_c, 1, 76, 127
2, 339440, Note_off_c, 1, 57, 0
2, 339480, Note_on_c, 1, 67, 127
2, 339560, Note_off_c, 1, 67, 0
2, 339560, Note_off_c, 1, 76, 0
2, 339600, Note_on_c, 1, 59, 127
2, 339600, Note_on_c, 1, 75, 127
2, 339640, Note_off_c, 1, 59, 0
2, 339680, Note_on_c, 1, 66, 127
2, 339720, Note_off_c, 1, 66, 0
2, 339720, Note_off_c, 1, 75, 0
2, 339800, Note_on_c, 1, 57, 127
2, 339800, Note_on_c, 1, 74, 127
2, 339840, Note_off_c, 1, 57, 0
2, 339880, Note_on_c, 1, 66, 127
2, 339920, Note_off_c, 1, 66, 0
2, 339920, Note_off_c, 1, 74, 0
2, 339960, Note_on_c, 1, 62, 127
2, 340040, Note_off_c, 1, 62, 0
2, 340080, Note_on_c, 1, 66, 127
2, 340080, Note_on_c, 1, 72, 127
2, 340120, Note_off_c, 1, 66, 0
2, 340120, Note_off_c, 1, 72, 0
2, 340160, Note_on_c, 1, 57, 127
2, 340160, Note_on_c, 1, 74, 127
2, 340200, Note_off_c, 1, 57, 0
2, 340280, Note_on_c, 1, 66, 127
2, 340320, Note_off_c, 1, 66, 0
2, 340320, Note_off_c, 1, 74, 0
2, 340360, Note_on_c, 1, 62, 127
2, 340360, Note_on_c, 1, 78, 127
2, 340400, Note_off_c, 1, 62, 0
2, 340440, Note_on_c, 1, 66, 127
2, 340520, Note_off_c, 1, 66, 0
2, 340520, Note_off_c, 1, 78, 0
2, 340560, Note_on_c, 1, 59, 127
2, 340560, Note_on_c, 1, 74, 127
2, 340600, Note_off_c, 1, 59, 0
2, 340640, Note_on_c, 1, 67, 127
2, 340680, Note_off_c, 1, 67, 0
2, 340680, Note_off_c, 1, 74, 0
2, 340760, Note_on_c, 1, 62, 127
2, 340760, Note_on_c, 1, 71, 127
2, 340800, Note_off_c, 1, 62, 0
2, 340840, Note_on_c, 1, 67, 127
2, 340880, Note_off_c, 1, 67, 0
2, 340880, Note_off_c, 1, 71, 0
2, 340920, Note_on_c, 1, 55, 127
2, 340920, Note_on_c, 1, 74, 127
2, 341000, Note_off_c, 1, 55, 0
2, 341040, Note_on_c, 1, 67, 127
2, 341080, Note_off_c, 1, 67, 0
2, 341080, Note_off_c, 1, 74, 0
2, 341120, Note_on_c, 1, 59, 127
2, 341120, Note_on_c, 1, 79, 127
2, 341160, Note_off_c, 1, 59, 0
2, 341240, Note_on_c, 1, 67, 127
2, 341280, Note_off_c, 1, 67, 0
2, 341280, Note_off_c, 1, 79, 0
2, 341320, Note_on_c, 1, 52, 127
2, 341320, Note_on_c, 1, 66, 127
2, 341320, Note_on_c, 1, 71, 127
2, 341320, Note_on_c, 1, 78, 127
2, 341360, Note_off_c, 1, 52, 0
2, 341360, Note_off_c, 1, 66, 0
2, 341360, Note_on_c, 1, 67, 127
2, 341400, Note_on_c, 1, 59, 127
2, 341400, Note_on_c, 1, 66, 127
2, 341400, Note_off_c, 1, 67, 0
2, 341480, Note_off_c, 1, 59, 0
2, 341480, Note_off_c, 1, 78, 0
2, 341520, Note_on_c, 1, 55, 127
2, 341520, Note_on_c, 1, 76, 127
2, 341560, Note_off_c, 1, 55, 0
2, 341600, Note_on_c, 1, 59, 127
2, 341640, Note_off_c, 1, 59, 0
2, 341640, Note_off_c, 1, 66, 0
2, 341640, Note_off_c, 1, 71, 0
2, 341640, Note_off_c, 1, 76, 0
2, 341720, Note_on_c, 1, 50, 127
2, 341720, Note_on_c, 1, 66, 127
2, 341720, Note_on_c, 1, 69, 127
2, 341720, Note_on_c, 1, 74, 127
2, 341760, Note_off_c, 1, 50, 0
2, 341760, Note_off_c, 1, 66, 0
2, 341760, Note_on_c, 1, 67, 127
2, 341800, Note_on_c, 1, 57, 127
2, 341800, Note_off_c, 1, 67, 0
2, 341840, Note_off_c, 1, 57, 0
2, 341880, Note_on_c, 1, 50, 127
2, 341960, Note_off_c, 1, 50, 0
2, 341960, Note_off_c, 1, 74, 0
2, 342000, Note_on_c, 1, 57, 127
2, 342040, Note_off_c, 1, 57, 0
2, 342040, Note_off_c, 1, 69, 0
2, 342080, Note_on_c, 1, 45, 127
2, 342080, Note_on_c, 1, 50, 127
2, 342080, Note_on_c, 1, 78, 127
2, 342160, Note_off_c, 1, 78, 0
2, 342200, Note_on_c, 1, 79, 127
2, 342240, Note_off_c, 1, 50, 0
2, 342240, Note_off_c, 1, 79, 0
2, 342280, Note_on_c, 1, 57, 127
2, 342280, Note_on_c, 1, 79, 127
2, 342320, Note_off_c, 1, 57, 0
2, 342320, Note_off_c, 1, 79, 0
2, 342360, Note_on_c, 1, 76, 127
2, 342440, Note_off_c, 1, 45, 0
2, 342440, Note_off_c, 1, 76, 0
2, 342480, Note_on_c, 1, 59, 127
2, 342480, Note_on_c, 1, 74, 127
2, 342520, Note_off_c, 1, 74, 0
2, 342560, Note_on_c, 1, 78, 127
2, 342600, Note_off_c, 1, 78, 0
2, 342680, Note_on_c, 1, 76, 127
2, 342720, Note_off_c, 1, 76, 0
2, 342760, Note_on_c, 1, 74, 127
2, 342800, Note_off_c, 1, 59, 0
2, 342800, Note_off_c, 1, 74, 0
2, 342840, Note_on_c, 1, 55, 127
2, 342840, Note_on_c, 1, 62, 127
2, 342840, Note_on_c, 1, 71, 127
2, 342840, Note_on_c, 1, 74, 127
2, 342920, Note_off_c, 1, 74, 0
2, 342960, Note_on_c, 1, 80, 127
2, 343000, Note_off_c, 1, 80, 0
2, 343040, Note_on_c, 1, 76, 127
2, 343080, Note_off_c, 1, 76, 0
2, 343160, Note_on_c, 1, 79, 127
2, 343200, Note_off_c, 1, 55, 0
2, 343200, Note_off_c, 1, 62, 0
2, 343200, Note_off_c, 1, 71, 0
2, 343200, Note_off_c, 1, 79, 0
2, 343240, Note_on_c, 1, 74, 127
2, 343280, Note_off_c, 1, 74, 0
2, 343320, Note_on_c, 1, 79, 127
2, 343400, Note_off_c, 1, 79, 0
2, 343440, Note_on_c, 1, 74, 127
2, 343480, Note_off_c, 1, 74, 0
2, 343520, Note_on_c, 1, 83, 127
2, 343560, Note_off_c, 1, 83, 0
2, 343640, Note_on_c, 1, 45, 127
2, 343640, Note_on_c, 1, 57, 127
2, 343640, Note_on_c, 1, 69, 127
2, 343640, Note_on_c, 1, 73, 127
2, 343680, Note_off_c, 1, 73, 0
2, 343720, Note_on_c, 1, 77, 127
2, 343760, Note_off_c, 1, 77, 0
2, 343800, Note_on_c, 1, 74, 127
2, 343880, Note_off_c, 1, 74, 0
2, 343920, Note_on_c, 1, 76, 127
2, 343960, Note_off_c, 1, 45, 0
2, 343960, Note_off_c, 1, 57, 0
2, 343960, Note_off_c, 1, 69, 0
2, 343960, Note_off_c, 1, 76, 0
2, 344000, Note_on_c, 1, 38, 127
2, 344000, Note_on_c, 1, 50, 127
2, 344000, Note_on_c, 1, 74, 127
2, 344000, Note_on_c, 1, 78, 127
2, 344040, Note_off_c, 1, 78, 0
2, 344120, Note_on_c, 1, 78, 127
2, 344160, Note_off_c, 1, 78, 0
2, 344200, Note_on_c, 1, 81, 127
2, 344240, Note_off_c, 1, 81, 0
2, 344280, Note_on_c, 1, 78, 127
2, 344360, Note_off_c, 1, 38, 0
2, 344360, Note_off_c, 1, 50, 0
2, 344360, Note_off_c, 1, 74, 0
2, 344360, Note_off_c, 1, 78, 0
2, 344400, Note_on_c, 1, 81, 127
2, 344440, Note_off_c, 1, 81, 0
2, 344480, Note_on_c, 1, 74, 127
2, 344520, Note_off_c, 1, 74, 0
2, 344600, Note_on_c, 1, 78, 127
2, 344640, Note_off_c, 1, 78, 0
2, 344680, Note_on_c, 1, 74, 127
2, 344720, Note_off_c, 1, 74, 0
2, 344760, Note_on_c, 1, 43, 127
2, 344760, Note_on_c, 1, 55, 127
2, 344760, Note_on_c, 1, 67, 127
2, 344760, Note_on_c, 1, 71, 127
2, 344760, Note_on_c, 1, 74, 127
2, 344840, Note_off_c, 1, 74, 0
2, 344880, Note_on_c, 1, 76, 127
2, 344920, Note_off_c, 1, 67, 0
2, 344920, Note_off_c, 1, 71, 0
2, 344920, Note_off_c, 1, 76, 0
2, 344960, Note_on_c, 1, 67, 127
2, 344960, Note_on_c, 1, 71, 127
2, 344960, Note_on_c, 1, 74, 127
2, 345000, Note_off_c, 1, 74, 0
2, 345080, Note_on_c, 1, 76, 127
2, 345120, Note_off_c, 1, 43, 0
2, 345120, Note_off_c, 1, 55, 0
2, 345120, Note_off_c, 1, 67, 0
2, 345120, Note_off_c, 1, 71, 0
2, 345120, Note_off_c, 1, 76, 0
2, 345160, Note_on_c, 1, 66, 127
2, 345160, Note_on_c, 1, 78, 127
2, 345200, Note_off_c, 1, 66, 0
2, 345200, Note_off_c, 1, 78, 0
2, 345240, Note_on_c, 1, 79, 127
2, 345320, Note_off_c, 1, 79, 0
2, 345360, Note_on_c, 1, 67, 127
2, 345360, Note_on_c, 1, 71, 127
2, 345360, Note_on_c, 1, 77, 127
2, 345400, Note_off_c, 1, 67, 0
2, 345400, Note_off_c, 1, 71, 0
2, 345400, Note_off_c, 1, 77, 0
2, 345440, Note_on_c, 1, 79, 127
2, 345480, Note_off_c, 1, 79, 0
2, 345560, Note_on_c, 1, 48, 127
2, 345560, Note_on_c, 1, 67, 127
2, 345560, Note_on_c, 1, 71, 127
2, 345560, Note_on_c, 1, 78, 127
2, 345600, Note_off_c, 1, 71, 0
2, 345680, Note_off_c, 1, 78, 0
2, 345720, Note_on_c, 1, 55, 127
2, 345720, Note_on_c, 1, 71, 127
2, 345800, Note_off_c, 1, 71, 0
2, 345840, Note_on_c, 1, 76, 127
2, 345880, Note_off_c, 1, 48, 0
2, 345880, Note_off_c, 1, 55, 0
2, 345880, Note_off_c, 1, 76, 0
2, 345920, Note_on_c, 1, 48, 127
2, 345920, Note_on_c, 1, 55, 127
2, 345920, Note_on_c, 1, 59, 127
2, 345920, Note_on_c, 1, 71, 127
2, 345960, Note_off_c, 1, 71, 0
2, 346040, Note_on_c, 1, 79, 127
2, 346080, Note_off_c, 1, 67, 0
2, 346080, Note_off_c, 1, 79, 0
2, 346120, Note_on_c, 1, 71, 127
2, 346160, Note_off_c, 1, 71, 0
2, 346200, Note_on_c, 1, 79, 127
2, 346280, Note_off_c, 1, 48, 0
2, 346280, Note_off_c, 1, 55, 0
2, 346280, Note_off_c, 1, 59, 0
2, 346280, Note_off_c, 1, 79, 0
2, 346320, Note_on_c, 1, 50, 127
2, 346320, Note_on_c, 1, 53, 127
2, 346320, Note_on_c, 1, 59, 127
2, 346440, Note_off_c, 1, 50, 0
2, 346440, Note_off_c, 1, 53, 0
2, 346440, Note_off_c, 1, 59, 0
2, 346520, Note_on_c, 1, 48, 127
2, 346520, Note_on_c, 1, 51, 127
2, 346520, Note_on_c, 1, 57, 127
2, 346520, Note_on_c, 1, 72, 127
2, 346520, Note_on_c, 1, 78, 127
2, 346640, Note_off_c, 1, 48, 0
2, 346640, Note_off_c, 1, 51, 0
2, 346640, Note_off_c, 1, 57, 0
2, 346640, Note_off_c, 1, 72, 0
2, 346640, Note_off_c, 1, 78, 0
2, 346680, Note_on_c, 1, 44, 127
2, 346680, Note_on_c, 1, 47, 127
2, 346680, Note_on_c, 1, 52, 127
2, 346840, Note_off_c, 1, 44, 0
2, 346840, Note_off_c, 1, 47, 0
2, 346840, Note_off_c, 1, 52, 0
2, 346880, Note_on_c, 1, 41, 127
2, 346880, Note_on_c, 1, 47, 127
2, 346880, Note_on_c, 1, 50, 127
2, 346880, Note_on_c, 1, 53, 127
2, 346880, Note_on_c, 1, 68, 127
2, 346880, Note_on_c, 1, 74, 127
2, 346880, Note_on_c, 1, 77, 127
2, 347040, Note_off_c, 1, 41, 0
2, 347080, Note_on_c, 1, 41, 127
2, 347240, Note_off_c, 1, 41, 0
2, 347240, Note_off_c, 1, 47, 0
2, 347240, Note_off_c, 1, 50, 0
2, 347240, Note_off_c, 1, 53, 0
2, 347240, Note_off_c, 1, 68, 0
2, 347240, Note_off_c, 1, 74, 0
2, 347240, Note_off_c, 1, 77, 0
2, 347280, Note_on_c, 1, 45, 127
2, 347280, Note_on_c, 1, 48, 127
2, 347280, Note_on_c, 1, 54, 127
2, 347280, Note_on_c, 1, 69, 127
2, 347280, Note_on_c, 1, 75, 127
2, 347280, Note_on_c, 1, 78, 127
2, 347400, Note_off_c, 1, 45, 0
2, 347400, Note_off_c, 1, 48, 0
2, 347400, Note_off_c, 1, 54, 0
2, 347400, Note_off_c, 1, 69, 0
2, 347400, Note_off_c, 1, 75, 0
2, 347400, Note_off_c, 1, 78, 0
2, 347640, Note_on_c, 1, 48, 127
2, 347640, Note_on_c, 1, 51, 127
2, 347640, Note_on_c, 1, 67, 127
2, 347640, Note_on_c, 1, 72, 127
2, 347800, Note_off_c, 1, 48, 0
2, 347800, Note_off_c, 1, 51, 0
2, 347800, Note_off_c, 1, 67, 0
2, 347800, Note_off_c, 1, 72, 0
2, 347840, Note_on_c, 1, 75, 127
2, 348000, Note_off_c, 1, 75, 0
2, 348040, Note_on_c, 1, 78, 127
2, 348200, Note_off_c, 1, 78, 0
2, 348240, Note_on_c, 1, 76, 127
2, 348280, Note_on_c, 1, 75, 127
2, 348280, Note_off_c, 1, 76, 0
2, 348360, Note_off_c, 1, 75, 0
2, 348440, Note_on_c, 1, 45, 127
2, 348440, Note_on_c, 1, 73, 127
2, 348480, Note_on_c, 1, 44, 127
2, 348480, Note_off_c, 1, 45, 0
2, 348480, Note_off_c, 1, 73, 0
2, 348520, Note_off_c, 1, 44, 0
2, 348520, Note_on_c, 1, 45, 127
2, 348520, Note_on_c, 1, 71, 127
2, 348560, Note_off_c, 1, 71, 0
2, 348600, Note_on_c, 1, 51, 127
2, 348600, Note_on_c, 1, 69, 127
2, 348680, Note_off_c, 1, 51, 0
2, 348680, Note_off_c, 1, 69, 0
2, 348800, Note_on_c, 1, 49, 127
2, 348800, Note_on_c, 1, 69, 127
2, 348840, Note_off_c, 1, 69, 0
2, 348880, Note_off_c, 1, 49, 0
2, 349000, Note_on_c, 1, 54, 127
2, 349000, Note_on_c, 1, 71, 127
2, 349040, Note_off_c, 1, 54, 0
2, 349040, Note_off_c, 1, 71, 0
2, 349160, Note_off_c, 1, 45, 0
2, 349200, Note_on_c, 1, 47, 127
2, 349200, Note_on_c, 1, 71, 127
2, 349200, Note_on_c, 1, 76, 127
2, 349240, Note_off_c, 1, 71, 0
2, 349240, Note_off_c, 1, 76, 0
2, 349320, Note_off_c, 1, 47, 0
2, 349400, Note_on_c, 1, 52, 127
2, 349400, Note_on_c, 1, 76, 127
2, 349440, Note_off_c, 1, 76, 0
2, 349520, Note_off_c, 1, 52, 0
2, 349560, Note_on_c, 1, 50, 127
2, 349560, Note_on_c, 1, 78, 127
2, 349640, Note_off_c, 1, 78, 0
2, 349720, Note_off_c, 1, 50, 0
2, 349760, Note_on_c, 1, 55, 127
2, 349760, Note_on_c, 1, 75, 127
2, 349800, Note_off_c, 1, 75, 0
2, 349920, Note_off_c, 1, 55, 0
2, 349960, Note_on_c, 1, 54, 127
2, 349960, Note_on_c, 1, 75, 127
2, 350000, Note_off_c, 1, 75, 0
2, 350120, Note_off_c, 1, 54, 0
2, 350160, Note_on_c, 1, 48, 127
2, 350160, Note_on_c, 1, 75, 127
2, 350200, Note_off_c, 1, 75, 0
2, 350280, Note_off_c, 1, 48, 0
2, 350360, Note_on_c, 1, 39, 127
2, 350360, Note_on_c, 1, 47, 127
2, 350360, Note_on_c, 1, 71, 127
2, 350360, Note_on_c, 1, 79, 127
2, 350480, Note_off_c, 1, 47, 0
2, 350520, Note_on_c, 1, 59, 127
2, 350520, Note_on_c, 1, 78, 127
2, 350520, Note_off_c, 1, 79, 0
2, 350600, Note_on_c, 1, 51, 127
2, 350600, Note_off_c, 1, 59, 0
2, 350600, Note_off_c, 1, 78, 0
2, 350640, Note_on_c, 1, 81, 127
2, 350680, Note_off_c, 1, 39, 0
2, 350680, Note_off_c, 1, 51, 0
2, 350680, Note_off_c, 1, 81, 0
2, 350680, Note_on_c, 1, 83, 127
2, 350720, Note_on_c, 1, 40, 127
2, 350720, Note_on_c, 1, 52, 127
2, 350720, Note_on_c, 1, 81, 127
2, 350720, Note_off_c, 1, 83, 0
2, 350880, Note_off_c, 1, 40, 0
2, 350880, Note_off_c, 1, 52, 0
2, 350880, Note_off_c, 1, 71, 0
2, 350880, Note_off_c, 1, 81, 0
2, 350920, Note_on_c, 1, 52, 127
2, 350920, Note_on_c, 1, 71, 127
2, 350920, Note_on_c, 1, 83, 127
2, 350960, Note_off_c, 1, 52, 0
2, 351080, Note_off_c, 1, 71, 0
2, 351080, Note_off_c, 1, 83, 0
2, 351120, Note_on_c, 1, 47, 127
2, 351120, Note_on_c, 1, 76, 127
2, 351120, Note_on_c, 1, 84, 127
2, 351160, Note_off_c, 1, 47, 0
2, 351240, Note_off_c, 1, 76, 0
2, 351240, Note_off_c, 1, 84, 0
2, 351320, Note_on_c, 1, 51, 127
2, 351320, Note_on_c, 1, 75, 127
2, 351320, Note_on_c, 1, 83, 127
2, 351360, Note_off_c, 1, 51, 0
2, 351360, Note_off_c, 1, 75, 0
2, 351360, Note_off_c, 1, 83, 0
2, 351480, Note_on_c, 1, 45, 127
2, 351480, Note_on_c, 1, 73, 127
2, 351480, Note_on_c, 1, 84, 127
2, 351640, Note_off_c, 1, 73, 0
2, 351640, Note_off_c, 1, 84, 0
2, 351680, Note_on_c, 1, 57, 127
2, 351680, Note_on_c, 1, 69, 127
2, 351680, Note_on_c, 1, 81, 127
2, 351760, Note_off_c, 1, 57, 0
2, 351840, Note_off_c, 1, 45, 0
2, 351840, Note_off_c, 1, 69, 0
2, 351840, Note_off_c, 1, 81, 0
2, 351880, Note_on_c, 1, 45, 127
2, 351880, Note_on_c, 1, 57, 127
2, 351880, Note_on_c, 1, 69, 127
2, 351880, Note_on_c, 1, 81, 127
2, 351920, Note_off_c, 1, 57, 0
2, 352040, Note_off_c, 1, 69, 0
2, 352040, Note_off_c, 1, 81, 0
2, 352080, Note_on_c, 1, 49, 127
2, 352080, Note_on_c, 1, 67, 127
2, 352080, Note_on_c, 1, 79, 127
2, 352120, Note_off_c, 1, 49, 0
2, 352160, Note_on_c, 1, 52, 127
2, 352200, Note_off_c, 1, 45, 0
2, 352200, Note_off_c, 1, 52, 0
2, 352200, Note_off_c, 1, 67, 0
2, 352200, Note_off_c, 1, 79, 0
2, 352280, Note_on_c, 1, 54, 127
2, 352280, Note_on_c, 1, 69, 127
2, 352280, Note_on_c, 1, 81, 127
2, 352440, Note_on_c, 1, 57, 127
2, 352600, Note_off_c, 1, 54, 0
2, 352600, Note_off_c, 1, 57, 0
2, 352600, Note_off_c, 1, 69, 0
2, 352600, Note_off_c, 1, 81, 0
2, 352640, Note_on_c, 1, 55, 127
2, 352640, Note_on_c, 1, 59, 127
2, 352640, Note_on_c, 1, 62, 127
2, 352640, Note_on_c, 1, 67, 127
2, 352680, Note_off_c, 1, 67, 0
2, 352800, Note_off_c, 1, 62, 0
2, 352840, Note_on_c, 1, 75, 127
2, 352840, Note_on_c, 1, 86, 127
2, 353000, Note_off_c, 1, 55, 0
2, 353000, Note_off_c, 1, 59, 0
2, 353000, Note_off_c, 1, 75, 0
2, 353000, Note_off_c, 1, 86, 0
2, 353040, Note_on_c, 1, 71, 127
2, 353040, Note_on_c, 1, 74, 127
2, 353160, Note_off_c, 1, 71, 0
2, 353160, Note_off_c, 1, 74, 0
2, 353240, Note_on_c, 1, 55, 127
2, 353240, Note_on_c, 1, 57, 127
2, 353240, Note_on_c, 1, 72, 127
2, 353240, Note_on_c, 1, 76, 127
2, 353280, Note_off_c, 1, 72, 0
2, 353280, Note_off_c, 1, 76, 0
2, 353360, Note_off_c, 1, 55, 0
2, 353360, Note_off_c, 1, 57, 0
2, 353400, Note_on_c, 1, 36, 127
2, 353400, Note_on_c, 1, 48, 127
2, 353400, Note_on_c, 1, 54, 127
2, 353400, Note_on_c, 1, 57, 127
2, 353480, Note_off_c, 1, 36, 0
2, 353480, Note_off_c, 1, 48, 0
2, 353480, Note_off_c, 1, 54, 0
2, 353480, Note_off_c, 1, 57, 0
2, 353600, Note_on_c, 1, 55, 127
2, 353600, Note_on_c, 1, 71, 127
2, 353600, Note_on_c, 1, 74, 127
2, 353640, Note_off_c, 1, 55, 0
2, 353640, Note_off_c, 1, 71, 0
2, 353640, Note_off_c, 1, 74, 0
2, 353800, Note_on_c, 1, 45, 127
2, 353800, Note_on_c, 1, 57, 127
2, 353800, Note_on_c, 1, 72, 127
2, 353800, Note_on_c, 1, 76, 127
2, 353840, Note_off_c, 1, 45, 0
2, 353840, Note_off_c, 1, 57, 0
2, 353840, Note_off_c, 1, 72, 0
2, 353840, Note_off_c, 1, 76, 0
2, 354000, Note_on_c, 1, 60, 127
2, 354000, Note_on_c, 1, 72, 127
2, 354000, Note_on_c, 1, 76, 127
2, 354040, Note_off_c, 1, 60, 0
2, 354040, Note_off_c, 1, 72, 0
2, 354040, Note_off_c, 1, 76, 0
2, 354200, Note_on_c, 1, 38, 127
2, 354200, Note_on_c, 1, 50, 127
2, 354200, Note_on_c, 1, 74, 127
2, 354200, Note_on_c, 1, 78, 127
2, 354240, Note_off_c, 1, 74, 0
2, 354240, Note_off_c, 1, 78, 0
2, 354360, Note_on_c, 1, 78, 127
2, 354360, Note_on_c, 1, 81, 127
2, 354440, Note_off_c, 1, 78, 0
2, 354440, Note_off_c, 1, 81, 0
2, 354520, Note_off_c, 1, 38, 0
2, 354520, Note_off_c, 1, 50, 0
2, 354560, Note_on_c, 1, 37, 127
2, 354560, Note_on_c, 1, 49, 127
2, 354560, Note_on_c, 1, 81, 127
2, 354560, Note_on_c, 1, 85, 127
2, 354600, Note_off_c, 1, 81, 0
2, 354600, Note_off_c, 1, 85, 0
2, 354720, Note_off_c, 1, 37, 0
2, 354720, Note_off_c, 1, 49, 0
2, 354760, Note_on_c, 1, 56, 127
2, 354800, Note_off_c, 1, 56, 0
2, 354960, Note_on_c, 1, 38, 127
2, 354960, Note_on_c, 1, 50, 127
2, 354960, Note_on_c, 1, 81, 127
2, 354960, Note_on_c, 1, 84, 127
2, 355080, Note_off_c, 1, 81, 0
2, 355080, Note_off_c, 1, 84, 0
2, 355160, Note_on_c, 1, 83, 127
2, 355200, Note_off_c, 1, 83, 0
2, 355240, Note_on_c, 1, 81, 127
2, 355280, Note_off_c, 1, 38, 0
2, 355280, Note_off_c, 1, 50, 0
2, 355280, Note_off_c, 1, 81, 0
2, 355320, Note_on_c, 1, 81, 127
2, 355360, Note_off_c, 1, 81, 0
2, 355440, Note_on_c, 1, 83, 127
2, 355480, Note_off_c, 1, 83, 0
2, 355520, Note_on_c, 1, 86, 127
2, 355880, Note_off_c, 1, 86, 0
2, 355920, Note_on_c, 1, 79, 127
2, 356040, Note_on_c, 1, 76, 127
2, 356040, Note_off_c, 1, 79, 0
2, 356080, Note_off_c, 1, 76, 0
2, 356120, Note_on_c, 1, 74, 127
2, 356240, Note_off_c, 1, 74, 0
2, 356280, Note_on_c, 1, 74, 127
2, 356360, Note_off_c, 1, 74, 0
2, 356400, Note_on_c, 1, 73, 127
2, 356440, Note_off_c, 1, 73, 0
2, 356480, Note_on_c, 1, 71, 127
2, 356520, Note_off_c, 1, 71, 0
2, 356600, Note_on_c, 1, 69, 127
2, 356640, Note_off_c, 1, 69, 0
2, 356680, Note_on_c, 1, 64, 127
2, 356680, Note_on_c, 1, 67, 127
2, 356680, Note_on_c, 1, 69, 127
2, 356720, Note_off_c, 1, 69, 0
2, 356760, Note_on_c, 1, 73, 127
2, 356800, Note_off_c, 1, 73, 0
2, 356880, Note_on_c, 1, 69, 127
2, 356920, Note_off_c, 1, 69, 0
2, 356960, Note_on_c, 1, 70, 127
2, 357000, Note_off_c, 1, 64, 0
2, 357000, Note_off_c, 1, 67, 0
2, 357000, Note_off_c, 1, 70, 0
2, 357080, Note_on_c, 1, 66, 127
2, 357080, Note_on_c, 1, 69, 127
2, 357200, Note_off_c, 1, 66, 0
2, 357200, Note_off_c, 1, 69, 0
2, 357440, Note_on_c, 1, 50, 127
2, 357440, Note_on_c, 1, 57, 127
2, 357440, Note_on_c, 1, 62, 127
2, 357440, Note_on_c, 1, 73, 127
2, 357440, Note_on_c, 1, 81, 127
2, 357480, Note_off_c, 1, 62, 0
2, 357480, Note_off_c, 1, 73, 0
2, 357480, Note_off_c, 1, 81, 0
2, 357600, Note_off_c, 1, 50, 0
2, 357600, Note_off_c, 1, 57, 0
2, 357640, Note_on_c, 1, 69, 127
2, 357640, Note_on_c, 1, 73, 127
2, 357640, Note_on_c, 1, 78, 127
2, 357640, Note_on_c, 1, 79, 127
2, 357680, Note_off_c, 1, 73, 0
2, 357680, Note_off_c, 1, 78, 0
2, 357680, Note_off_c, 1, 79, 0
2, 357800, Note_off_c, 1, 69, 0
2, 357840, Note_on_c, 1, 51, 127
2, 357840, Note_on_c, 1, 54, 127
2, 357840, Note_on_c, 1, 66, 127
2, 357840, Note_on_c, 1, 69, 127
2, 357840, Note_on_c, 1, 78, 127
2, 357880, Note_off_c, 1, 51, 0
2, 357880, Note_off_c, 1, 54, 0
2, 357880, Note_off_c, 1, 66, 0
2, 357880, Note_off_c, 1, 69, 0
2, 357880, Note_off_c, 1, 78, 0
2, 358040, Note_on_c, 1, 57, 127
2, 358040, Note_on_c, 1, 62, 127
2, 358040, Note_on_c, 1, 69, 127
2, 358040, Note_on_c, 1, 81, 127
2, 358080, Note_off_c, 1, 57, 0
2, 358080, Note_off_c, 1, 62, 0
2, 358080, Note_off_c, 1, 69, 0
2, 358080, Note_off_c, 1, 81, 0
2, 358200, Note_on_c, 1, 47, 127
2, 358200, Note_on_c, 1, 59, 127
2, 358200, Note_on_c, 1, 69, 127
2, 358200, Note_on_c, 1, 74, 127
2, 358200, Note_on_c, 1, 78, 127
2, 358200, Note_on_c, 1, 86, 127
2, 358280, Note_off_c, 1, 69, 0
2, 358360, Note_off_c, 1, 74, 0
2, 358360, Note_off_c, 1, 78, 0
2, 358360, Note_off_c, 1, 86, 0
2, 358400, Note_on_c, 1, 66, 127
2, 358400, Note_on_c, 1, 71, 127
2, 358400, Note_on_c, 1, 78, 127
2, 358440, Note_off_c, 1, 66, 0
2, 358440, Note_off_c, 1, 71, 0
2, 358440, Note_off_c, 1, 78, 0
2, 358520, Note_on_c, 1, 74, 127
2, 358520, Note_on_c, 1, 86, 127
2, 358560, Note_off_c, 1, 47, 0
2, 358560, Note_off_c, 1, 59, 0
2, 358560, Note_off_c, 1, 74, 0
2, 358560, Note_off_c, 1, 86, 0
2, 358600, Note_on_c, 1, 67, 127
2, 358600, Note_on_c, 1, 71, 127
2, 358600, Note_on_c, 1, 82, 127
2, 358600, Note_on_c, 1, 86, 127
2, 358640, Note_off_c, 1, 71, 0
2, 358640, Note_on_c, 1, 80, 127
2, 358640, Note_off_c, 1, 82, 0
2, 358680, Note_on_c, 1, 70, 127
2, 358680, Note_off_c, 1, 80, 0
2, 358680, Note_on_c, 1, 82, 127
2, 358760, Note_off_c, 1, 67, 0
2, 358760, Note_off_c, 1, 70, 0
2, 358760, Note_off_c, 1, 82, 0
2, 358760, Note_off_c, 1, 86, 0
2, 358800, Note_on_c, 1, 71, 127
2, 358800, Note_on_c, 1, 74, 127
2, 358800, Note_on_c, 1, 86, 127
2, 358840, Note_off_c, 1, 71, 0
2, 358840, Note_off_c, 1, 74, 0
2, 358880, Note_on_c, 1, 71, 127
2, 358920, Note_off_c, 1, 71, 0
2, 358920, Note_off_c, 1, 86, 0
2, 359000, Note_on_c, 1, 47, 127
2, 359000, Note_on_c, 1, 59, 127
2, 359000, Note_on_c, 1, 67, 127
2, 359000, Note_on_c, 1, 74, 127
2, 359000, Note_on_c, 1, 77, 127
2, 359000, Note_on_c, 1, 79, 127
2, 359040, Note_off_c, 1, 67, 0
2, 359040, Note_off_c, 1, 74, 0
2, 359080, Note_on_c, 1, 74, 127
2, 359120, Note_off_c, 1, 74, 0
2, 359120, Note_off_c, 1, 77, 0
2, 359120, Note_off_c, 1, 79, 0
2, 359160, Note_on_c, 1, 67, 127
2, 359160, Note_on_c, 1, 74, 127
2, 359160, Note_on_c, 1, 77, 127
2, 359160, Note_on_c, 1, 79, 127
2, 359200, Note_on_c, 1, 65, 127
2, 359200, Note_off_c, 1, 67, 0
2, 359240, Note_off_c, 1, 65, 0
2, 359240, Note_on_c, 1, 67, 127
2, 359240, Note_off_c, 1, 74, 0
2, 359320, Note_off_c, 1, 47, 0
2, 359320, Note_off_c, 1, 59, 0
2, 359320, Note_off_c, 1, 67, 0
2, 359320, Note_off_c, 1, 77, 0
2, 359320, Note_off_c, 1, 79, 0
2, 359360, Note_on_c, 1, 48, 127
2, 359360, Note_on_c, 1, 60, 127
2, 359360, Note_on_c, 1, 72, 127
2, 359360, Note_on_c, 1, 76, 127
2, 359360, Note_on_c, 1, 79, 127
2, 359360, Note_on_c, 1, 84, 127
2, 359520, Note_off_c, 1, 72, 0
2, 359720, Note_off_c, 1, 48, 0
2, 359720, Note_off_c, 1, 60, 0
2, 359720, Note_off_c, 1, 76, 0
2, 359720, Note_off_c, 1, 79, 0
2, 359720, Note_off_c, 1, 84, 0
2, 360120, Note_on_c, 1, 48, 127
2, 360120, Note_on_c, 1, 60, 127
2, 360120, Note_on_c, 1, 76, 127
2, 360120, Note_on_c, 1, 79, 127
2, 360120, Note_on_c, 1, 84, 127
2, 360120, Note_on_c, 1, 88, 127
2, 360480, Note_off_c, 1, 48, 0
2, 360480, Note_off_c, 1, 60, 0
2, 360480, Note_off_c, 1, 76, 0
2, 360480, Note_off_c, 1, 79, 0
2, 360480, Note_off_c, 1, 84, 0
2, 360480, Note_off_c, 1, 88, 0
2, 360920, Note_on_c, 1, 89, 127
2, 361040, Note_off_c, 1, 89, 0
2, 361080, Note_on_c, 1, 88, 127
2, 361240, Note_off_c, 1, 88, 0
2, 361280, Note_on_c, 1, 87, 127
2, 361320, Note_off_c, 1, 87, 0
2, 361480, Note_on_c, 1, 88, 127
2, 361640, Note_off_c, 1, 88, 0
2, 361680, Note_on_c, 1, 84, 127
2, 361800, Note_off_c, 1, 84, 0
2, 361880, Note_on_c, 1, 68, 127
2, 361880, Note_on_c, 1, 72, 127
2, 361880, Note_on_c, 1, 76, 127
2, 361880, Note_on_c, 1, 83, 127
2, 362000, Note_off_c, 1, 68, 0
2, 362000, Note_off_c, 1, 72, 0
2, 362000, Note_off_c, 1, 76, 0
2, 362000, Note_off_c, 1, 83, 0
2, 362040, Note_on_c, 1, 86, 127
2, 362120, Note_off_c, 1, 86, 0
2, 362240, Note_on_c, 1, 67, 127
2, 362240, Note_on_c, 1, 71, 127
2, 362240, Note_on_c, 1, 74, 127
2, 362240, Note_on_c, 1, 84, 127
2, 362280, Note_off_c, 1, 84, 0
2, 362400, Note_off_c, 1, 67, 0
2, 362400, Note_off_c, 1, 71, 0
2, 362400, Note_off_c, 1, 74, 0
2, 362440, Note_on_c, 1, 86, 127
2, 362600, Note_off_c, 1, 86, 0
2, 362640, Note_on_c, 1, 64, 127
2, 362640, Note_on_c, 1, 67, 127
2, 362640, Note_on_c, 1, 72, 127
2, 362640, Note_on_c, 1, 84, 127
2, 362680, Note_off_c, 1, 84, 0
2, 362720, Note_on_c, 1, 83, 127
2, 362760, Note_off_c, 1, 64, 0
2, 362760, Note_off_c, 1, 67, 0
2, 362760, Note_off_c, 1, 72, 0
2, 362760, Note_off_c, 1, 83, 0
2, 362840, Note_on_c, 1, 81, 127
2, 362960, Note_off_c, 1, 81, 0
2, 363000, Note_on_c, 1, 83, 127
2, 363160, Note_off_c, 1, 83, 0
2, 363200, Note_on_c, 1, 81, 127
2, 363360, Note_off_c, 1, 81, 0
2, 363400, Note_on_c, 1, 79, 127
2, 363560, Note_off_c, 1, 79, 0
2, 363600, Note_on_c, 1, 77, 127
2, 363800, Note_on_c, 1, 67, 127
2, 363800, Note_on_c, 1, 76, 127
2, 363920, Note_off_c, 1, 77, 0
2, 363960, Note_on_c, 1, 77, 127
2, 364120, Note_off_c, 1, 67, 0
2, 364120, Note_off_c, 1, 76, 0
2, 364120, Note_off_c, 1, 77, 0
2, 364160, Note_on_c, 1, 55, 127
2, 364160, Note_on_c, 1, 59, 127
2, 364160, Note_on_c, 1, 60, 127
2, 364160, Note_on_c, 1, 74, 127
2, 364160, Note_on_c, 1, 77, 127
2, 364320, Note_off_c, 1, 77, 0
2, 364360, Note_on_c, 1, 71, 127
2, 364520, Note_off_c, 1, 55, 0
2, 364520, Note_off_c, 1, 59, 0
2, 364520, Note_off_c, 1, 60, 0
2, 364520, Note_off_c, 1, 71, 0
2, 364520, Note_off_c, 1, 74, 0
2, 364560, Note_on_c, 1, 72, 127
2, 364680, Note_off_c, 1, 72, 0
2, 364760, Note_on_c, 1, 71, 127
2, 364880, Note_off_c, 1, 71, 0
2, 364920, Note_on_c, 1, 64, 127
2, 364920, Note_on_c, 1, 67, 127
2, 364920, Note_on_c, 1, 72, 127
2, 365720, Note_on_c, 1, 52, 127
2, 365840, Note_off_c, 1, 52, 0
2, 365840, Note_off_c, 1, 64, 0
2, 365840, Note_off_c, 1, 67, 0
2, 365840, Note_off_c, 1, 72, 0
2, 365880, Note_on_c, 1, 53, 127
2, 365880, Note_on_c, 1, 68, 127
2, 365880, Note_on_c, 1, 71, 127
2, 366040, Note_off_c, 1, 53, 0
2, 366040, Note_off_c, 1, 68, 0
2, 366040, Note_off_c, 1, 71, 0
2, 366080, Note_on_c, 1, 52, 127
2, 366080, Note_on_c, 1, 67, 127
2, 366080, Note_on_c, 1, 70, 127
2, 366240, Note_off_c, 1, 52, 0
2, 366280, Note_on_c, 1, 55, 127
2, 366440, Note_off_c, 1, 55, 0
2, 366440, Note_off_c, 1, 67, 0
2, 366440, Note_off_c, 1, 70, 0
2, 366480, Note_on_c, 1, 60, 127
2, 366480, Note_on_c, 1, 65, 127
2, 366480, Note_on_c, 1, 69, 127
2, 366800, Note_off_c, 1, 60, 0
2, 366800, Note_off_c, 1, 69, 0
2, 366840, Note_on_c, 1, 48, 127
2, 366840, Note_on_c, 1, 67, 127
2, 367000, Note_off_c, 1, 65, 0
2, 367040, Note_on_c, 1, 52, 127
2, 367040, Note_on_c, 1, 60, 127
2, 367040, Note_on_c, 1, 64, 127
2, 367200, Note_off_c, 1, 48, 0
2, 367200, Note_off_c, 1, 52, 0
2, 367200, Note_off_c, 1, 60, 0
2, 367200, Note_off_c, 1, 64, 0
2, 367200, Note_off_c, 1, 67, 0
2, 367240, Note_on_c, 1, 53, 127
2, 367240, Note_on_c, 1, 57, 127
2, 367240, Note_on_c, 1, 60, 127
2, 367240, Note_on_c, 1, 65, 127
2, 367240, Note_on_c, 1, 69, 127
2, 367400, Note_off_c, 1, 57, 0
2, 367400, Note_off_c, 1, 60, 0
2, 367400, Note_off_c, 1, 69, 0
2, 367440, Note_on_c, 1, 55, 127
2, 367440, Note_on_c, 1, 59, 127
2, 367440, Note_on_c, 1, 67, 127
2, 367560, Note_off_c, 1, 53, 0
2, 367560, Note_off_c, 1, 67, 0
2, 367680, Note_off_c, 1, 59, 0
2, 367800, Note_on_c, 1, 48, 127
2, 367800, Note_on_c, 1, 60, 127
2, 367800, Note_on_c, 1, 64, 127
2, 367800, Note_off_c, 1, 65, 0
2, 367960, Note_off_c, 1, 55, 0
2, 368000, Note_on_c, 1, 55, 127
2, 368160, Note_off_c, 1, 48, 0
2, 368160, Note_off_c, 1, 55, 0
2, 368160, Note_off_c, 1, 60, 0
2, 368160, Note_off_c, 1, 64, 0
2, 368200, Note_on_c, 1, 60, 127
2, 368400, Note_on_c, 1, 64, 127
2, 368520, Note_off_c, 1, 60, 0
2, 368520, Note_off_c, 1, 64, 0
2, 368600, Note_on_c, 1, 60, 127
2, 368600, Note_on_c, 1, 67, 127
2, 368720, Note_off_c, 1, 67, 0
2, 368760, Note_on_c, 1, 77, 127
2, 368920, Note_off_c, 1, 60, 0
2, 368920, Note_off_c, 1, 77, 0
2, 368960, Note_on_c, 1, 60, 127
2, 369160, Note_on_c, 1, 64, 127
2, 369160, Note_on_c, 1, 79, 127
2, 369320, Note_off_c, 1, 60, 0
2, 369320, Note_off_c, 1, 64, 0
2, 369320, Note_off_c, 1, 79, 0
2, 369360, Note_on_c, 1, 57, 127
2, 369360, Note_on_c, 1, 77, 127
2, 369360, Note_on_c, 1, 88, 127
2, 369560, Note_on_c, 1, 62, 127
2, 369600, Note_off_c, 1, 62, 0
2, 369680, Note_off_c, 1, 57, 0
2, 369680, Note_off_c, 1, 88, 0
2, 369720, Note_on_c, 1, 64, 127
2, 369720, Note_on_c, 1, 83, 127
2, 369880, Note_off_c, 1, 77, 0
2, 369880, Note_off_c, 1, 83, 0
2, 369920, Note_on_c, 1, 57, 127
2, 369920, Note_on_c, 1, 79, 127
2, 370040, Note_off_c, 1, 57, 0
2, 370080, Note_off_c, 1, 64, 0
2, 370080, Note_off_c, 1, 79, 0
2, 370120, Note_on_c, 1, 55, 127
2, 370120, Note_on_c, 1, 82, 127
2, 370280, Note_off_c, 1, 55, 0
2, 370320, Note_on_c, 1, 60, 127
2, 370440, Note_off_c, 1, 60, 0
2, 370440, Note_off_c, 1, 82, 0
2, 370520, Note_on_c, 1, 53, 127
2, 370520, Note_on_c, 1, 59, 127
2, 370520, Note_on_c, 1, 62, 127
2, 370520, Note_on_c, 1, 81, 127
2, 370640, Note_off_c, 1, 62, 0
2, 370680, Note_on_c, 1, 64, 127
2, 370800, Note_off_c, 1, 59, 0
2, 370840, Note_off_c, 1, 53, 0
2, 370840, Note_off_c, 1, 64, 0
2, 370840, Note_off_c, 1, 81, 0
2, 370880, Note_on_c, 1, 53, 127
2, 370880, Note_on_c, 1, 65, 127
2, 370880, Note_on_c, 1, 80, 127
2, 371040, Note_off_c, 1, 65, 0
2, 371040, Note_off_c, 1, 80, 0
2, 371080, Note_on_c, 1, 62, 127
2, 371080, Note_on_c, 1, 79, 127
2, 371240, Note_off_c, 1, 62, 0
2, 371240, Note_off_c, 1, 79, 0
2, 371280, Note_on_c, 1, 62, 127
2, 371280, Note_on_c, 1, 65, 127
2, 371280, Note_on_c, 1, 74, 127
2, 371400, Note_off_c, 1, 65, 0
2, 371400, Note_off_c, 1, 74, 0
2, 371480, Note_on_c, 1, 82, 127
2, 371600, Note_off_c, 1, 53, 0
2, 371600, Note_off_c, 1, 62, 0
2, 371600, Note_off_c, 1, 82, 0
2, 371640, Note_on_c, 1, 57, 127
2, 371640, Note_on_c, 1, 65, 127
2, 371640, Note_on_c, 1, 84, 127
2, 371800, Note_off_c, 1, 65, 0
2, 371840, Note_on_c, 1, 62, 127
2, 372000, Note_off_c, 1, 62, 0
2, 372000, Note_off_c, 1, 84, 0
2, 372040, Note_on_c, 1, 60, 127
2, 372040, Note_on_c, 1, 82, 127
2, 372200, Note_off_c, 1, 60, 0
2, 372200, Note_off_c, 1, 82, 0
2, 372240, Note_on_c, 1, 65, 127
2, 372240, Note_on_c, 1, 84, 127
2, 372360, Note_off_c, 1, 57, 0
2, 372360, Note_off_c, 1, 65, 0
2, 372360, Note_off_c, 1, 84, 0
2, 372440, Note_on_c, 1, 48, 127
2, 372440, Note_on_c, 1, 70, 127
2, 372440, Note_on_c, 1, 84, 127
2, 372560, Note_off_c, 1, 70, 0
2, 372560, Note_off_c, 1, 84, 0
2, 372600, Note_on_c, 1, 57, 127
2, 372600, Note_on_c, 1, 84, 127
2, 372760, Note_off_c, 1, 48, 0
2, 372760, Note_off_c, 1, 57, 0
2, 372760, Note_off_c, 1, 84, 0
2, 372800, Note_on_c, 1, 53, 127
2, 372800, Note_on_c, 1, 81, 127
2, 372960, Note_off_c, 1, 81, 0
2, 373000, Note_on_c, 1, 77, 127
2, 373160, Note_off_c, 1, 53, 0
2, 373160, Note_off_c, 1, 77, 0
2, 373200, Note_on_c, 1, 60, 127
2, 373200, Note_on_c, 1, 77, 127
2, 373320, Note_off_c, 1, 60, 0
2, 373320, Note_off_c, 1, 77, 0
2, 373400, Note_on_c, 1, 57, 127
2, 373400, Note_on_c, 1, 77, 127
2, 373520, Note_off_c, 1, 57, 0
2, 373520, Note_off_c, 1, 77, 0
2, 373560, Note_on_c, 1, 48, 127
2, 373560, Note_on_c, 1, 80, 127
2, 373720, Note_off_c, 1, 48, 0
2, 373760, Note_on_c, 1, 51, 127
2, 373920, Note_off_c, 1, 51, 0
2, 373920, Note_off_c, 1, 80, 0
2, 373960, Note_on_c, 1, 47, 127
2, 373960, Note_on_c, 1, 83, 127
2, 374120, Note_off_c, 1, 47, 0
2, 374120, Note_off_c, 1, 83, 0
2, 374160, Note_on_c, 1, 51, 127
2, 374160, Note_on_c, 1, 72, 127
2, 374160, Note_on_c, 1, 82, 127
2, 374280, Note_off_c, 1, 51, 0
2, 374280, Note_off_c, 1, 72, 0
2, 374280, Note_off_c, 1, 82, 0
2, 374360, Note_on_c, 1, 50, 127
2, 374360, Note_on_c, 1, 80, 127
2, 374480, Note_off_c, 1, 50, 0
2, 374480, Note_off_c, 1, 80, 0
2, 374520, Note_on_c, 1, 48, 127
2, 374520, Note_on_c, 1, 84, 127
2, 374680, Note_off_c, 1, 48, 0
2, 374680, Note_off_c, 1, 84, 0
2, 374720, Note_on_c, 1, 47, 127
2, 374720, Note_on_c, 1, 65, 127
2, 374720, Note_on_c, 1, 68, 127
2, 374720, Note_on_c, 1, 79, 127
2, 374880, Note_off_c, 1, 47, 0
2, 374880, Note_off_c, 1, 79, 0
2, 374920, Note_on_c, 1, 48, 127
2, 374920, Note_on_c, 1, 75, 127
2, 375080, Note_off_c, 1, 48, 0
2, 375080, Note_off_c, 1, 65, 0
2, 375080, Note_off_c, 1, 68, 0
2, 375080, Note_off_c, 1, 75, 0
2, 375120, Note_on_c, 1, 48, 127
2, 375120, Note_on_c, 1, 65, 127
2, 375120, Note_on_c, 1, 70, 127
2, 375120, Note_on_c, 1, 74, 127
2, 375120, Note_on_c, 1, 84, 127
2, 375240, Note_off_c, 1, 48, 0
2, 375240, Note_off_c, 1, 84, 0
2, 375320, Note_on_c, 1, 50, 127
2, 375320, Note_on_c, 1, 79, 127
2, 375360, Note_off_c, 1, 79, 0
2, 375440, Note_off_c, 1, 50, 0
2, 375440, Note_off_c, 1, 65, 0
2, 375440, Note_off_c, 1, 70, 0
2, 375440, Note_off_c, 1, 74, 0
2, 375480, Note_on_c, 1, 46, 127
2, 375480, Note_on_c, 1, 63, 127
2, 375480, Note_on_c, 1, 68, 127
2, 375480, Note_on_c, 1, 72, 127
2, 375480, Note_on_c, 1, 75, 127
2, 375640, Note_off_c, 1, 46, 0
2, 375680, Note_on_c, 1, 48, 127
2, 375840, Note_off_c, 1, 48, 0
2, 375840, Note_off_c, 1, 63, 0
2, 375840, Note_off_c, 1, 68, 0
2, 375840, Note_off_c, 1, 72, 0
2, 375840, Note_off_c, 1, 75, 0
2, 375880, Note_on_c, 1, 55, 127
2, 375880, Note_on_c, 1, 75, 127
2, 376040, Note_off_c, 1, 55, 0
2, 376040, Note_off_c, 1, 75, 0
2, 376080, Note_on_c, 1, 55, 127
2, 376080, Note_on_c, 1, 79, 127
2, 376200, Note_off_c, 1, 55, 0
2, 376200, Note_off_c, 1, 79, 0
2, 376280, Note_on_c, 1, 56, 127
2, 376280, Note_on_c, 1, 79, 127
2, 376400, Note_off_c, 1, 56, 0
2, 376400, Note_off_c, 1, 79, 0
2, 376440, Note_on_c, 1, 51, 127
2, 376440, Note_on_c, 1, 77, 127
2, 376600, Note_off_c, 1, 51, 0
2, 376600, Note_off_c, 1, 77, 0
2, 376640, Note_on_c, 1, 50, 127
2, 376640, Note_on_c, 1, 82, 127
2, 376800, Note_off_c, 1, 50, 0
2, 376800, Note_off_c, 1, 82, 0
2, 376840, Note_on_c, 1, 51, 127
2, 376840, Note_on_c, 1, 79, 127
2, 377000, Note_off_c, 1, 51, 0
2, 377000, Note_off_c, 1, 79, 0
2, 377040, Note_on_c, 1, 48, 127
2, 377040, Note_on_c, 1, 79, 127
2, 377160, Note_off_c, 1, 48, 0
2, 377160, Note_off_c, 1, 79, 0
2, 377240, Note_on_c, 1, 50, 127
2, 377240, Note_on_c, 1, 77, 127
2, 377360, Note_off_c, 1, 50, 0
2, 377360, Note_off_c, 1, 77, 0
2, 377400, Note_on_c, 1, 74, 127
2, 377560, Note_off_c, 1, 74, 0
2, 377600, Note_on_c, 1, 70, 127
2, 377760, Note_off_c, 1, 70, 0
2, 377800, Note_on_c, 1, 82, 127
2, 377960, Note_off_c, 1, 82, 0
2, 378000, Note_on_c, 1, 53, 127
2, 378000, Note_on_c, 1, 56, 127
2, 378000, Note_on_c, 1, 60, 127
2, 378000, Note_on_c, 1, 72, 127
2, 378000, Note_on_c, 1, 74, 127
2, 378000, Note_on_c, 1, 80, 127
2, 378000, Note_on_c, 1, 84, 127
2, 378040, Note_on_c, 1, 59, 127
2, 378080, Note_on_c, 1, 58, 127
2, 378080, Note_off_c, 1, 59, 0
2, 378120, Note_off_c, 1, 74, 0
2, 378120, Note_on_c, 1, 75, 127
2, 378160, Note_off_c, 1, 58, 0
2, 378160, Note_on_c, 1, 74, 127
2, 378160, Note_off_c, 1, 75, 0
2, 378200, Note_on_c, 1, 58, 127
2, 378320, Note_off_c, 1, 53, 0
2, 378320, Note_off_c, 1, 58, 0
2, 378320, Note_off_c, 1, 60, 0
2, 378320, Note_off_c, 1, 72, 0
2, 378320, Note_off_c, 1, 74, 0
2, 378320, Note_off_c, 1, 84, 0
2, 378360, Note_on_c, 1, 55, 127
2, 378360, Note_off_c, 1, 56, 0
2, 378360, Note_on_c, 1, 59, 127
2, 378360, Note_on_c, 1, 62, 127
2, 378360, Note_on_c, 1, 68, 127
2, 378360, Note_on_c, 1, 70, 127
2, 378520, Note_off_c, 1, 70, 0
2, 378520, Note_off_c, 1, 80, 0
2, 378560, Note_on_c, 1, 79, 127
2, 378720, Note_off_c, 1, 55, 0
2, 378720, Note_off_c, 1, 59, 0
2, 378720, Note_off_c, 1, 62, 0
2, 378720, Note_off_c, 1, 68, 0
2, 378760, Note_on_c, 1, 57, 127
2, 378760, Note_on_c, 1, 60, 127
2, 378760, Note_on_c, 1, 63, 127
2, 378760, Note_on_c, 1, 68, 127
2, 378760, Note_on_c, 1, 74, 127
2, 378760, Note_on_c, 1, 77, 127
2, 378800, Note_on_c, 1, 73, 127
2, 378800, Note_off_c, 1, 74, 0
2, 378800, Note_off_c, 1, 77, 0
2, 378920, Note_off_c, 1, 73, 0
2, 378960, Note_on_c, 1, 74, 127
2, 379000, Note_off_c, 1, 74, 0
2, 379000, Note_on_c, 1, 75, 127
2, 379000, Note_off_c, 1, 79, 0
2, 379040, Note_off_c, 1, 75, 0
2, 379040, Note_on_c, 1, 77, 127
2, 379080, Note_off_c, 1, 77, 0
2, 379160, Note_on_c, 1, 75, 127
2, 379160, Note_on_c, 1, 78, 127
2, 379160, Note_on_c, 1, 84, 127
2, 379200, Note_on_c, 1, 77, 127
2, 379200, Note_off_c, 1, 78, 0
2, 379200, Note_off_c, 1, 84, 0
2, 379240, Note_on_c, 1, 84, 127
2, 379280, Note_off_c, 1, 77, 0
2, 379280, Note_off_c, 1, 84, 0
2, 379320, Note_on_c, 1, 56, 127
2, 379320, Note_off_c, 1, 57, 0
2, 379320, Note_on_c, 1, 84, 127
2, 379480, Note_off_c, 1, 56, 0
2, 379480, Note_off_c, 1, 60, 0
2, 379480, Note_off_c, 1, 63, 0
2, 379480, Note_off_c, 1, 68, 0
2, 379480, Note_off_c, 1, 75, 0
2, 379480, Note_off_c, 1, 84, 0
2, 379520, Note_on_c, 1, 46, 127
2, 379520, Note_on_c, 1, 58, 127
2, 379520, Note_on_c, 1, 74, 127
2, 379520, Note_on_c, 1, 77, 127
2, 379520, Note_on_c, 1, 82, 127
2, 379560, Note_off_c, 1, 82, 0
2, 379720, Note_on_c, 1, 82, 127
2, 379760, Note_off_c, 1, 82, 0
2, 379880, Note_off_c, 1, 46, 0
2, 379880, Note_off_c, 1, 58, 0
2, 379880, Note_off_c, 1, 74, 0
2, 379880, Note_off_c, 1, 77, 0
2, 379920, Note_on_c, 1, 48, 127
2, 379920, Note_on_c, 1, 58, 127
2, 379920, Note_on_c, 1, 72, 127
2, 379920, Note_on_c, 1, 76, 127
2, 379960, Note_on_c, 1, 74, 127
2, 379960, Note_off_c, 1, 76, 0
2, 380120, Note_on_c, 1, 56, 127
2, 380240, Note_off_c, 1, 56, 0
2, 380240, Note_off_c, 1, 58, 0
2, 380240, Note_off_c, 1, 74, 0
2, 380280, Note_on_c, 1, 56, 127
2, 380280, Note_on_c, 1, 65, 127
2, 380280, Note_on_c, 1, 68, 127
2, 380440, Note_off_c, 1, 56, 0
2, 380480, Note_on_c, 1, 55, 127
2, 380480, Note_on_c, 1, 76, 127
2, 380520, Note_off_c, 1, 76, 0
2, 380600, Note_on_c, 1, 77, 127
2, 380640, Note_off_c, 1, 55, 0
2, 380640, Note_on_c, 1, 60, 127
2, 380640, Note_off_c, 1, 77, 0
2, 380680, Note_on_c, 1, 52, 127
2, 380840, Note_off_c, 1, 52, 0
2, 380880, Note_off_c, 1, 60, 0
2, 380880, Note_off_c, 1, 65, 0
2, 380880, Note_off_c, 1, 68, 0
2, 381080, Note_on_c, 1, 53, 127
2, 381080, Note_on_c, 1, 57, 127
2, 381080, Note_on_c, 1, 63, 127
2, 381080, Note_on_c, 1, 69, 127
2, 381200, Note_off_c, 1, 72, 0
2, 381400, Note_off_c, 1, 48, 0
2, 381400, Note_off_c, 1, 53, 0
2, 381400, Note_off_c, 1, 57, 0
2, 381400, Note_off_c, 1, 63, 0
2, 381400, Note_off_c, 1, 69, 0
2, 381440, Note_on_c, 1, 60, 127
2, 381440, Note_on_c, 1, 63, 127
2, 381440, Note_on_c, 1, 72, 127
2, 381600, Note_off_c, 1, 72, 0
2, 381640, Note_off_c, 1, 60, 0
2, 381640, Note_on_c, 1, 70, 127
2, 381680, Note_off_c, 1, 70, 0
2, 381800, Note_off_c, 1, 63, 0
2, 381840, Note_on_c, 1, 65, 127
2, 381840, Note_on_c, 1, 77, 127
2, 381960, Note_off_c, 1, 77, 0
2, 382040, Note_on_c, 1, 70, 127
2, 382160, Note_off_c, 1, 70, 0
2, 382200, Note_on_c, 1, 72, 127
2, 382360, Note_off_c, 1, 72, 0
2, 382400, Note_on_c, 1, 70, 127
2, 382560, Note_off_c, 1, 65, 0
2, 382560, Note_off_c, 1, 70, 0
2, 382600, Note_on_c, 1, 41, 127
2, 382600, Note_on_c, 1, 45, 127
2, 382600, Note_on_c, 1, 50, 127
2, 382600, Note_on_c, 1, 53, 127
2, 382600, Note_on_c, 1, 65, 127
2, 382960, Note_off_c, 1, 41, 0
2, 382960, Note_off_c, 1, 45, 0
2, 382960, Note_off_c, 1, 50, 0
2, 382960, Note_off_c, 1, 53, 0
2, 382960, Note_off_c, 1, 65, 0
2, 383000, Note_on_c, 1, 36, 127
2, 383000, Note_on_c, 1, 43, 127
2, 383000, Note_on_c, 1, 48, 127
2, 383000, Note_on_c, 1, 55, 127
2, 383000, Note_on_c, 1, 58, 127
2, 383000, Note_on_c, 1, 60, 127
2, 383000, Note_on_c, 1, 63, 127
2, 383320, Note_off_c, 1, 36, 0
2, 383320, Note_off_c, 1, 43, 0
2, 383320, Note_off_c, 1, 48, 0
2, 383320, Note_off_c, 1, 55, 0
2, 383320, Note_off_c, 1, 58, 0
2, 383320, Note_off_c, 1, 60, 0
2, 383720, Note_off_c, 1, 63, 0
2, 383760, Note_on_c, 1, 61, 127
2, 384120, Note_off_c, 1, 61, 0
2, 384160, Note_on_c, 1, 77, 127
2, 384280, Note_off_c, 1, 77, 0
2, 384360, Note_on_c, 1, 82, 127
2, 384480, Note_off_c, 1, 82, 0
2, 384520, Note_on_c, 1, 85, 127
2, 384680, Note_off_c, 1, 85, 0
2, 384720, Note_on_c, 1, 87, 127
2, 384880, Note_off_c, 1, 87, 0
2, 384920, Note_on_c, 1, 73, 127
2, 384920, Note_on_c, 1, 89, 127
2, 385080, Note_off_c, 1, 73, 0
2, 385080, Note_off_c, 1, 89, 0
2, 385120, Note_on_c, 1, 73, 127
2, 385120, Note_on_c, 1, 89, 127
2, 385240, Note_off_c, 1, 73, 0
2, 385240, Note_off_c, 1, 89, 0
2, 385320, Note_on_c, 1, 74, 127
2, 385320, Note_on_c, 1, 89, 127
2, 385440, Note_off_c, 1, 74, 0
2, 385440, Note_off_c, 1, 89, 0
2, 385480, Note_on_c, 1, 72, 127
2, 385480, Note_on_c, 1, 89, 127
2, 385640, Note_off_c, 1, 72, 0
2, 385640, Note_off_c, 1, 89, 0
2, 385680, Note_on_c, 1, 72, 127
2, 385680, Note_on_c, 1, 87, 127
2, 385840, Note_off_c, 1, 72, 0
2, 385840, Note_off_c, 1, 87, 0
2, 385880, Note_on_c, 1, 70, 127
2, 386040, Note_off_c, 1, 70, 0
2, 386080, Note_on_c, 1, 72, 127
2, 386080, Note_on_c, 1, 86, 127
2, 386200, Note_off_c, 1, 72, 0
2, 386200, Note_off_c, 1, 86, 0
2, 386280, Note_on_c, 1, 75, 127
2, 386280, Note_on_c, 1, 87, 127
2, 386400, Note_off_c, 1, 75, 0
2, 386400, Note_off_c, 1, 87, 0
2, 386440, Note_on_c, 1, 70, 127
2, 386440, Note_on_c, 1, 87, 127
2, 386600, Note_off_c, 1, 70, 0
2, 386600, Note_off_c, 1, 87, 0
2, 386640, Note_on_c, 1, 72, 127
2, 386640, Note_on_c, 1, 84, 127
2, 386800, Note_off_c, 1, 72, 0
2, 386800, Note_off_c, 1, 84, 0
2, 386840, Note_on_c, 1, 70, 127
2, 386840, Note_on_c, 1, 82, 127
2, 387000, Note_off_c, 1, 70, 0
2, 387000, Note_off_c, 1, 82, 0
2, 387040, Note_on_c, 1, 70, 127
2, 387040, Note_on_c, 1, 82, 127
2, 387160, Note_off_c, 1, 70, 0
2, 387160, Note_off_c, 1, 82, 0
2, 387240, Note_on_c, 1, 73, 127
2, 387240, Note_on_c, 1, 85, 127
2, 387360, Note_off_c, 1, 73, 0
2, 387360, Note_off_c, 1, 85, 0
2, 387400, Note_on_c, 1, 70, 127
2, 387400, Note_on_c, 1, 82, 127
2, 387560, Note_off_c, 1, 70, 0
2, 387560, Note_off_c, 1, 82, 0
2, 387600, Note_on_c, 1, 74, 127
2, 387600, Note_on_c, 1, 83, 127
2, 387760, Note_off_c, 1, 74, 0
2, 387760, Note_off_c, 1, 83, 0
2, 387800, Note_on_c, 1, 76, 127
2, 387800, Note_on_c, 1, 88, 127
2, 387960, Note_off_c, 1, 76, 0
2, 387960, Note_off_c, 1, 88, 0
2, 388000, Note_on_c, 1, 77, 127
2, 388000, Note_on_c, 1, 89, 127
2, 388120, Note_off_c, 1, 77, 0
2, 388120, Note_off_c, 1, 89, 0
2, 388200, Note_on_c, 1, 76, 127
2, 388200, Note_on_c, 1, 88, 127
2, 388320, Note_off_c, 1, 76, 0
2, 388320, Note_off_c, 1, 88, 0
2, 388360, Note_on_c, 1, 77, 127
2, 388360, Note_on_c, 1, 89, 127
2, 388520, Note_off_c, 1, 77, 0
2, 388520, Note_off_c, 1, 89, 0
2, 388560, Note_on_c, 1, 68, 127
2, 388560, Note_on_c, 1, 84, 127
2, 388720, Note_off_c, 1, 68, 0
2, 388720, Note_off_c, 1, 84, 0
2, 388760, Note_on_c, 1, 64, 127
2, 388760, Note_on_c, 1, 79, 127
2, 388920, Note_off_c, 1, 64, 0
2, 388920, Note_off_c, 1, 79, 0
2, 388960, Note_on_c, 1, 67, 127
2, 388960, Note_on_c, 1, 79, 127
2, 389080, Note_off_c, 1, 67, 0
2, 389080, Note_off_c, 1, 79, 0
2, 389160, Note_on_c, 1, 65, 127
2, 389160, Note_on_c, 1, 81, 127
2, 389280, Note_off_c, 1, 65, 0
2, 389280, Note_off_c, 1, 81, 0
2, 389320, Note_on_c, 1, 67, 127
2, 389320, Note_on_c, 1, 82, 127
2, 389480, Note_off_c, 1, 67, 0
2, 389480, Note_off_c, 1, 82, 0
2, 389520, Note_on_c, 1, 69, 127
2, 389520, Note_on_c, 1, 84, 127
2, 389680, Note_off_c, 1, 69, 0
2, 389680, Note_off_c, 1, 84, 0
2, 389720, Note_on_c, 1, 65, 127
2, 389720, Note_on_c, 1, 79, 127
2, 389760, Note_off_c, 1, 79, 0
2, 389760, Note_on_c, 1, 81, 127
2, 389800, Note_on_c, 1, 79, 127
2, 389800, Note_off_c, 1, 81, 0
2, 389880, Note_off_c, 1, 65, 0
2, 389880, Note_off_c, 1, 79, 0
2, 389920, Note_on_c, 1, 69, 127
2, 389920, Note_on_c, 1, 81, 127
2, 390040, Note_off_c, 1, 69, 0
2, 390040, Note_off_c, 1, 81, 0
2, 390120, Note_on_c, 1, 67, 127
2, 390120, Note_on_c, 1, 82, 127
2, 390240, Note_off_c, 1, 67, 0
2, 390240, Note_off_c, 1, 82, 0
2, 390280, Note_on_c, 1, 69, 127
2, 390280, Note_on_c, 1, 84, 127
2, 390440, Note_off_c, 1, 69, 0
2, 390440, Note_off_c, 1, 84, 0
2, 390480, Note_on_c, 1, 46, 127
2, 390480, Note_on_c, 1, 69, 127
2, 390480, Note_on_c, 1, 84, 127
2, 390520, Note_off_c, 1, 69, 0
2, 390520, Note_off_c, 1, 84, 0
2, 390640, Note_off_c, 1, 46, 0
2, 390680, Note_on_c, 1, 62, 127
2, 390680, Note_on_c, 1, 72, 127
2, 390680, Note_on_c, 1, 84, 127
2, 390720, Note_off_c, 1, 72, 0
2, 390720, Note_off_c, 1, 84, 0
2, 390840, Note_off_c, 1, 62, 0
2, 390880, Note_on_c, 1, 50, 127
2, 390880, Note_on_c, 1, 70, 127
2, 390880, Note_on_c, 1, 82, 127
2, 390920, Note_off_c, 1, 70, 0
2, 390920, Note_off_c, 1, 82, 0
2, 391000, Note_off_c, 1, 50, 0
2, 391080, Note_on_c, 1, 65, 127
2, 391080, Note_on_c, 1, 81, 127
2, 391120, Note_off_c, 1, 65, 0
2, 391120, Note_off_c, 1, 81, 0
2, 391240, Note_on_c, 1, 50, 127
2, 391240, Note_on_c, 1, 74, 127
2, 391240, Note_on_c, 1, 82, 127
2, 391400, Note_off_c, 1, 50, 0
2, 391440, Note_on_c, 1, 50, 127
2, 391600, Note_off_c, 1, 50, 0
2, 391600, Note_off_c, 1, 74, 0
2, 391600, Note_off_c, 1, 82, 0
2, 391640, Note_on_c, 1, 53, 127
2, 391800, Note_off_c, 1, 53, 0
2, 391840, Note_on_c, 1, 50, 127
2, 391960, Note_off_c, 1, 50, 0
2, 392040, Note_on_c, 1, 51, 127
2, 392160, Note_off_c, 1, 51, 0
2, 392200, Note_on_c, 1, 55, 127
2, 392360, Note_off_c, 1, 55, 0
2, 392400, Note_on_c, 1, 51, 127
2, 392400, Note_on_c, 1, 67, 127
2, 392400, Note_on_c, 1, 75, 127
2, 392400, Note_on_c, 1, 79, 127
2, 392600, Note_on_c, 1, 46, 127
2, 392640, Note_off_c, 1, 51, 0
2, 392680, Note_on_c, 1, 55, 127
2, 392760, Note_off_c, 1, 46, 0
2, 392760, Note_off_c, 1, 55, 0
2, 392760, Note_off_c, 1, 67, 0
2, 392760, Note_off_c, 1, 75, 0
2, 392760, Note_off_c, 1, 79, 0
2, 392800, Note_on_c, 1, 77, 127
2, 393120, Note_off_c, 1, 77, 0
2, 393160, Note_on_c, 1, 75, 127
2, 393560, Note_on_c, 1, 63, 127
2, 393560, Note_on_c, 1, 67, 127
2, 393720, Note_off_c, 1, 63, 0
2, 393720, Note_off_c, 1, 67, 0
2, 393880, Note_off_c, 1, 75, 0
2, 393960, Note_on_c, 1, 46, 127
2, 393960, Note_on_c, 1, 50, 127
2, 393960, Note_on_c, 1, 70, 127
2, 393960, Note_on_c, 1, 74, 127
2, 393960, Note_on_c, 1, 77, 127
2, 393960, Note_on_c, 1, 80, 127
2, 394120, Note_on_c, 1, 62, 127
2, 394280, Note_off_c, 1, 62, 0
2, 394480, Note_off_c, 1, 70, 0
2, 394480, Note_off_c, 1, 74, 0
2, 394480, Note_off_c, 1, 77, 0
2, 394480, Note_off_c, 1, 80, 0
2, 394520, Note_on_c, 1, 70, 127
2, 394520, Note_on_c, 1, 74, 127
2, 394520, Note_on_c, 1, 77, 127
2, 394680, Note_off_c, 1, 46, 0
2, 394680, Note_off_c, 1, 50, 0
2, 394680, Note_off_c, 1, 70, 0
2, 394680, Note_off_c, 1, 74, 0
2, 394680, Note_off_c, 1, 77, 0
2, 394720, Note_on_c, 1, 48, 127
2, 394720, Note_on_c, 1, 51, 127
2, 394720, Note_on_c, 1, 56, 127
2, 394720, Note_on_c, 1, 68, 127
2, 394720, Note_on_c, 1, 72, 127
2, 394720, Note_on_c, 1, 75, 127
2, 394720, Note_on_c, 1, 77, 127
2, 394840, Note_off_c, 1, 68, 0
2, 394840, Note_off_c, 1, 72, 0
2, 394840, Note_off_c, 1, 75, 0
2, 394840, Note_off_c, 1, 77, 0
2, 394920, Note_on_c, 1, 70, 127
2, 394920, Note_on_c, 1, 74, 127
2, 394920, Note_on_c, 1, 75, 127
2, 395040, Note_off_c, 1, 48, 0
2, 395040, Note_off_c, 1, 51, 0
2, 395040, Note_off_c, 1, 56, 0
2, 395040, Note_off_c, 1, 70, 0
2, 395040, Note_off_c, 1, 74, 0
2, 395040, Note_off_c, 1, 75, 0
2, 395080, Note_on_c, 1, 46, 127
2, 395080, Note_on_c, 1, 75, 127
2, 395080, Note_on_c, 1, 79, 127
2, 395080, Note_on_c, 1, 82, 127
2, 395240, Note_off_c, 1, 75, 0
2, 395240, Note_off_c, 1, 79, 0
2, 395240, Note_off_c, 1, 82, 0
2, 395280, Note_on_c, 1, 74, 127
2, 395280, Note_on_c, 1, 77, 127
2, 395280, Note_on_c, 1, 79, 127
2, 395440, Note_off_c, 1, 74, 0
2, 395440, Note_off_c, 1, 77, 0
2, 395440, Note_off_c, 1, 79, 0
2, 395480, Note_on_c, 1, 74, 127
2, 395480, Note_on_c, 1, 77, 127
2, 395520, Note_off_c, 1, 74, 0
2, 395640, Note_off_c, 1, 77, 0
2, 395680, Note_on_c, 1, 74, 127
2, 395800, Note_off_c, 1, 46, 0
2, 395800, Note_off_c, 1, 74, 0
2, 395880, Note_on_c, 1, 44, 127
2, 395880, Note_on_c, 1, 56, 127
2, 395880, Note_on_c, 1, 72, 127
2, 395880, Note_on_c, 1, 75, 127
2, 396000, Note_off_c, 1, 72, 0
2, 396000, Note_off_c, 1, 75, 0
2, 396040, Note_on_c, 1, 70, 127
2, 396040, Note_on_c, 1, 74, 127
2, 396200, Note_off_c, 1, 44, 0
2, 396200, Note_off_c, 1, 56, 0
2, 396200, Note_off_c, 1, 70, 0
2, 396200, Note_off_c, 1, 74, 0
2, 396240, Note_on_c, 1, 43, 127
2, 396240, Note_on_c, 1, 55, 127
2, 396240, Note_on_c, 1, 70, 127
2, 396240, Note_on_c, 1, 75, 127
2, 396400, Note_off_c, 1, 75, 0
2, 396440, Note_on_c, 1, 74, 127
2, 396600, Note_off_c, 1, 43, 0
2, 396600, Note_off_c, 1, 55, 0
2, 396600, Note_off_c, 1, 70, 0
2, 396600, Note_off_c, 1, 74, 0
2, 396640, Note_on_c, 1, 39, 127
2, 396640, Note_on_c, 1, 51, 127
2, 396640, Note_on_c, 1, 70, 127
2, 396640, Note_on_c, 1, 75, 127
2, 396800, Note_off_c, 1, 70, 0
2, 396840, Note_on_c, 1, 72, 127
2, 396880, Note_off_c, 1, 72, 0
2, 396920, Note_on_c, 1, 72, 127
2, 396960, Note_off_c, 1, 39, 0
2, 396960, Note_off_c, 1, 51, 0
2, 396960, Note_off_c, 1, 72, 0
2, 396960, Note_off_c, 1, 75, 0
2, 397000, Note_on_c, 1, 70, 127
2, 397080, Note_off_c, 1, 70, 0
2, 397120, Note_on_c, 1, 70, 127
2, 397160, Note_off_c, 1, 70, 0
2, 397200, Note_on_c, 1, 72, 127
2, 397240, Note_off_c, 1, 72, 0
2, 397320, Note_on_c, 1, 70, 127
2, 397360, Note_off_c, 1, 70, 0
2, 397400, Note_on_c, 1, 41, 127
2, 397400, Note_on_c, 1, 53, 127
2, 397400, Note_on_c, 1, 62, 127
2, 397560, Note_off_c, 1, 53, 0
2, 397800, Note_on_c, 1, 65, 127
2, 397800, Note_on_c, 1, 74, 127
2, 398120, Note_off_c, 1, 41, 0
2, 398120, Note_off_c, 1, 62, 0
2, 398120, Note_off_c, 1, 65, 0
2, 398120, Note_off_c, 1, 74, 0
2, 398160, Note_on_c, 1, 34, 127
2, 398160, Note_on_c, 1, 46, 127
2, 398160, Note_on_c, 1, 65, 127
2, 398160, Note_on_c, 1, 70, 127
2, 398160, Note_on_c, 1, 74, 127
2, 398520, Note_off_c, 1, 34, 0
2, 398520, Note_off_c, 1, 46, 0
2, 398520, Note_off_c, 1, 65, 0
2, 398520, Note_off_c, 1, 70, 0
2, 398520, Note_off_c, 1, 74, 0
2, 398920, Note_on_c, 1, 63, 127
2, 398960, Note_off_c, 1, 63, 0
2, 399040, Note_on_c, 1, 65, 127
2, 399080, Note_on_c, 1, 34, 127
2, 399080, Note_on_c, 1, 46, 127
2, 399080, Note_off_c, 1, 65, 0
2, 399080, Note_on_c, 1, 70, 127
2, 399200, Note_off_c, 1, 70, 0
2, 399200, Note_on_c, 1, 72, 127
2, 399400, Note_on_c, 1, 53, 127
2, 399400, Note_on_c, 1, 65, 127
2, 399400, Note_on_c, 1, 70, 127
2, 399400, Note_off_c, 1, 72, 0
2, 399480, Note_off_c, 1, 65, 0
2, 399560, Note_off_c, 1, 53, 0
2, 399760, Note_off_c, 1, 34, 0
2, 399760, Note_off_c, 1, 46, 0
2, 399760, Note_off_c, 1, 70, 0
2, 399800, Note_on_c, 1, 62, 127
2, 399840, Note_off_c, 1, 62, 0
2, 400000, Note_on_c, 1, 62, 127
2, 400040, Note_off_c, 1, 62, 0
2, 400200, Note_on_c, 1, 63, 127
2, 400240, Note_off_c, 1, 63, 0
2, 400360, Note_on_c, 1, 60, 127
2, 400400, Note_off_c, 1, 60, 0
2, 400560, Note_on_c, 1, 60, 127
2, 400600, Note_off_c, 1, 60, 0
2, 400760, Note_on_c, 1, 60, 127
2, 400800, Note_off_c, 1, 60, 0
2, 400960, Note_on_c, 1, 53, 127
2, 401080, Note_off_c, 1, 53, 0
2, 401160, Note_on_c, 1, 67, 127
2, 401280, Note_off_c, 1, 67, 0
2, 401320, Note_on_c, 1, 70, 127
2, 401360, Note_on_c, 1, 56, 127
2, 401400, Note_off_c, 1, 56, 0
2, 401440, Note_off_c, 1, 70, 0
2, 401520, Note_on_c, 1, 58, 127
2, 401520, Note_on_c, 1, 70, 127
2, 401680, Note_off_c, 1, 58, 0
2, 401720, Note_on_c, 1, 62, 127
2, 401880, Note_off_c, 1, 62, 0
2, 401920, Note_on_c, 1, 62, 127
2, 402080, Note_off_c, 1, 62, 0
2, 402120, Note_on_c, 1, 65, 127
2, 402240, Note_off_c, 1, 65, 0
2, 402240, Note_off_c, 1, 70, 0
2, 402320, Note_on_c, 1, 62, 127
2, 402320, Note_on_c, 1, 67, 127
2, 402360, Note_off_c, 1, 67, 0
2, 402400, Note_on_c, 1, 71, 127
2, 402440, Note_off_c, 1, 62, 0
2, 402440, Note_off_c, 1, 71, 0
2, 402480, Note_on_c, 1, 65, 127
2, 402480, Note_on_c, 1, 72, 127
2, 402560, Note_off_c, 1, 72, 0
2, 402600, Note_on_c, 1, 74, 127
2, 402640, Note_off_c, 1, 65, 0
2, 402640, Note_off_c, 1, 74, 0
2, 402680, Note_on_c, 1, 55, 127
2, 402680, Note_on_c, 1, 72, 127
2, 402720, Note_off_c, 1, 72, 0
2, 402800, Note_on_c, 1, 70, 127
2, 402840, Note_off_c, 1, 55, 0
2, 402840, Note_off_c, 1, 70, 0
2, 402880, Note_on_c, 1, 65, 127
2, 402880, Note_on_c, 1, 69, 127
2, 402920, Note_off_c, 1, 69, 0
2, 402960, Note_on_c, 1, 70, 127
2, 403040, Note_off_c, 1, 65, 0
2, 403040, Note_off_c, 1, 70, 0
2, 403080, Note_on_c, 1, 58, 127
2, 403080, Note_on_c, 1, 74, 127
2, 403120, Note_off_c, 1, 74, 0
2, 403160, Note_on_c, 1, 65, 127
2, 403200, Note_off_c, 1, 58, 0
2, 403200, Note_off_c, 1, 65, 0
2, 403280, Note_on_c, 1, 62, 127
2, 403280, Note_on_c, 1, 74, 127
2, 403320, Note_off_c, 1, 74, 0
2, 403360, Note_off_c, 1, 62, 0
2, 403360, Note_on_c, 1, 65, 127
2, 403400, Note_off_c, 1, 65, 0
2, 403440, Note_on_c, 1, 62, 127
2, 403440, Note_on_c, 1, 70, 127
2, 403520, Note_off_c, 1, 70, 0
2, 403560, Note_on_c, 1, 65, 127
2, 403600, Note_off_c, 1, 62, 0
2, 403600, Note_off_c, 1, 65, 0
2, 403640, Note_on_c, 1, 60, 127
2, 403640, Note_on_c, 1, 74, 127
2, 403680, Note_off_c, 1, 74, 0
2, 403760, Note_on_c, 1, 65, 127
2, 403800, Note_off_c, 1, 60, 0
2, 403800, Note_off_c, 1, 65, 0
2, 403840, Note_on_c, 1, 58, 127
2, 403840, Note_on_c, 1, 74, 127
2, 403880, Note_off_c, 1, 74, 0
2, 403920, Note_on_c, 1, 70, 127
2, 404000, Note_off_c, 1, 58, 0
2, 404000, Note_off_c, 1, 70, 0
2, 404040, Note_on_c, 1, 62, 127
2, 404040, Note_on_c, 1, 77, 127
2, 404080, Note_off_c, 1, 77, 0
2, 404120, Note_on_c, 1, 70, 127
2, 404160, Note_off_c, 1, 62, 0
2, 404160, Note_off_c, 1, 70, 0
2, 404240, Note_on_c, 1, 58, 127
2, 404240, Note_on_c, 1, 79, 127
2, 404280, Note_off_c, 1, 79, 0
2, 404320, Note_on_c, 1, 77, 127
2, 404360, Note_off_c, 1, 58, 0
2, 404360, Note_off_c, 1, 77, 0
2, 404400, Note_on_c, 1, 65, 127
2, 404400, Note_on_c, 1, 76, 127
2, 404480, Note_off_c, 1, 76, 0
2, 404520, Note_on_c, 1, 77, 127
2, 404560, Note_off_c, 1, 65, 0
2, 404560, Note_off_c, 1, 77, 0
2, 404600, Note_on_c, 1, 62, 127
2, 404600, Note_on_c, 1, 77, 127
2, 404640, Note_off_c, 1, 77, 0
2, 404720, Note_on_c, 1, 79, 127
2, 404760, Note_off_c, 1, 62, 0
2, 404760, Note_off_c, 1, 79, 0
2, 404800, Note_on_c, 1, 65, 127
2, 404800, Note_on_c, 1, 81, 127
2, 404840, Note_off_c, 1, 81, 0
2, 404880, Note_on_c, 1, 82, 127
2, 404960, Note_off_c, 1, 65, 0
2, 404960, Note_off_c, 1, 82, 0
2, 405000, Note_on_c, 1, 63, 127
2, 405000, Note_on_c, 1, 84, 127
2, 405040, Note_off_c, 1, 84, 0
2, 405080, Note_on_c, 1, 82, 127
2, 405120, Note_off_c, 1, 63, 0
2, 405120, Note_off_c, 1, 82, 0
2, 405200, Note_on_c, 1, 65, 127
2, 405200, Note_on_c, 1, 81, 127
2, 405240, Note_off_c, 1, 81, 0
2, 405280, Note_on_c, 1, 79, 127
2, 405320, Note_off_c, 1, 65, 0
2, 405320, Note_off_c, 1, 79, 0
2, 405360, Note_on_c, 1, 62, 127
2, 405360, Note_on_c, 1, 77, 127
2, 405440, Note_off_c, 1, 77, 0
2, 405480, Note_on_c, 1, 79, 127
2, 405520, Note_off_c, 1, 62, 0
2, 405520, Note_off_c, 1, 79, 0
2, 405560, Note_on_c, 1, 65, 127
2, 405560, Note_on_c, 1, 77, 127
2, 405600, Note_off_c, 1, 77, 0
2, 405680, Note_on_c, 1, 79, 127
2, 405720, Note_off_c, 1, 65, 0
2, 405720, Note_off_c, 1, 79, 0
2, 405760, Note_on_c, 1, 58, 127
2, 405760, Note_on_c, 1, 77, 127
2, 405800, Note_off_c, 1, 77, 0
2, 405840, Note_on_c, 1, 79, 127
2, 405920, Note_off_c, 1, 58, 0
2, 405920, Note_off_c, 1, 79, 0
2, 405960, Note_on_c, 1, 65, 127
2, 405960, Note_on_c, 1, 77, 127
2, 406000, Note_off_c, 1, 77, 0
2, 406040, Note_on_c, 1, 79, 127
2, 406080, Note_off_c, 1, 65, 0
2, 406080, Note_off_c, 1, 79, 0
2, 406160, Note_on_c, 1, 61, 127
2, 406160, Note_on_c, 1, 84, 127
2, 406200, Note_off_c, 1, 84, 0
2, 406240, Note_on_c, 1, 82, 127
2, 406280, Note_off_c, 1, 61, 0
2, 406280, Note_off_c, 1, 82, 0
2, 406320, Note_on_c, 1, 64, 127
2, 406320, Note_on_c, 1, 81, 127
2, 406400, Note_off_c, 1, 81, 0
2, 406440, Note_on_c, 1, 79, 127
2, 406480, Note_off_c, 1, 64, 0
2, 406480, Note_off_c, 1, 79, 0
2, 406520, Note_on_c, 1, 57, 127
2, 406520, Note_on_c, 1, 77, 127
2, 406560, Note_off_c, 1, 77, 0
2, 406640, Note_on_c, 1, 76, 127
2, 406680, Note_off_c, 1, 57, 0
2, 406680, Note_off_c, 1, 76, 0
2, 406720, Note_on_c, 1, 64, 127
2, 406720, Note_on_c, 1, 74, 127
2, 406760, Note_off_c, 1, 74, 0
2, 406800, Note_on_c, 1, 73, 127
2, 406880, Note_off_c, 1, 64, 0
2, 406880, Note_off_c, 1, 73, 0
2, 406920, Note_on_c, 1, 62, 127
2, 406920, Note_on_c, 1, 73, 127
2, 406960, Note_off_c, 1, 73, 0
2, 407000, Note_on_c, 1, 74, 127
2, 407040, Note_off_c, 1, 62, 0
2, 407040, Note_off_c, 1, 74, 0
2, 407120, Note_on_c, 1, 65, 127
2, 407120, Note_on_c, 1, 75, 127
2, 407160, Note_off_c, 1, 75, 0
2, 407200, Note_on_c, 1, 74, 127
2, 407240, Note_off_c, 1, 65, 0
2, 407240, Note_off_c, 1, 74, 0
2, 407280, Note_on_c, 1, 57, 127
2, 407280, Note_on_c, 1, 77, 127
2, 407360, Note_off_c, 1, 77, 0
2, 407400, Note_on_c, 1, 79, 127
2, 407440, Note_off_c, 1, 57, 0
2, 407440, Note_off_c, 1, 79, 0
2, 407480, Note_on_c, 1, 65, 127
2, 407480, Note_on_c, 1, 81, 127
2, 407520, Note_off_c, 1, 81, 0
2, 407600, Note_on_c, 1, 82, 127
2, 407640, Note_off_c, 1, 65, 0
2, 407640, Note_off_c, 1, 82, 0
2, 407680, Note_on_c, 1, 61, 127
2, 407680, Note_on_c, 1, 81, 127
2, 407720, Note_off_c, 1, 81, 0
2, 407760, Note_on_c, 1, 82, 127
2, 407840, Note_off_c, 1, 61, 0
2, 407840, Note_off_c, 1, 82, 0
2, 407880, Note_on_c, 1, 64, 127
2, 407880, Note_on_c, 1, 81, 127
2, 407920, Note_off_c, 1, 81, 0
2, 407960, Note_on_c, 1, 79, 127
2, 408000, Note_off_c, 1, 64, 0
2, 408000, Note_off_c, 1, 79, 0
2, 408080, Note_on_c, 1, 62, 127
2, 408080, Note_on_c, 1, 78, 127
2, 408200, Note_off_c, 1, 62, 0
2, 408240, Note_on_c, 1, 60, 127
2, 408400, Note_off_c, 1, 60, 0
2, 408400, Note_off_c, 1, 78, 0
2, 408440, Note_on_c, 1, 60, 127
2, 408800, Note_off_c, 1, 60, 0
2, 408840, Note_on_c, 1, 62, 127
2, 409160, Note_off_c, 1, 62, 0
2, 409200, Note_on_c, 1, 72, 127
2, 409200, Note_on_c, 1, 74, 127
2, 409560, Note_off_c, 1, 74, 0
2, 409600, Note_on_c, 1, 75, 127
2, 409920, Note_off_c, 1, 72, 0
2, 409920, Note_off_c, 1, 75, 0
2, 410000, Note_on_c, 1, 41, 127
2, 410000, Note_on_c, 1, 69, 127
2, 410000, Note_on_c, 1, 72, 127
2, 410320, Note_off_c, 1, 41, 0
2, 410320, Note_off_c, 1, 69, 0
2, 410360, Note_on_c, 1, 75, 127
2, 410520, Note_off_c, 1, 75, 0
2, 410560, Note_on_c, 1, 74, 127
2, 410720, Note_off_c, 1, 72, 0
2, 410720, Note_off_c, 1, 74, 0
2, 410760, Note_on_c, 1, 65, 127
2, 410760, Note_on_c, 1, 69, 127
2, 410760, Note_on_c, 1, 72, 127
2, 411080, Note_off_c, 1, 65, 0
2, 411080, Note_off_c, 1, 69, 0
2, 411080, Note_off_c, 1, 72, 0
2, 411120, Note_on_c, 1, 62, 127
2, 411120, Note_on_c, 1, 70, 127
2, 411280, Note_off_c, 1, 70, 0
2, 411320, Note_on_c, 1, 74, 127
2, 411360, Note_on_c, 1, 71, 127
2, 411360, Note_off_c, 1, 74, 0
2, 411400, Note_on_c, 1, 70, 127
2, 411400, Note_off_c, 1, 71, 0
2, 411440, Note_on_c, 1, 67, 127
2, 411440, Note_off_c, 1, 70, 0
2, 411480, Note_off_c, 1, 62, 0
2, 411480, Note_on_c, 1, 65, 127
2, 411480, Note_off_c, 1, 67, 0
2, 411480, Note_on_c, 1, 70, 127
2, 411520, Note_off_c, 1, 70, 0
2, 411520, Note_on_c, 1, 75, 127
2, 411680, Note_off_c, 1, 65, 0
2, 411680, Note_off_c, 1, 75, 0
2, 411720, Note_on_c, 1, 72, 127
2, 411840, Note_off_c, 1, 72, 0
2, 411920, Note_on_c, 1, 65, 127
2, 412080, Note_on_c, 1, 69, 127
2, 412240, Note_off_c, 1, 65, 0
2, 412240, Note_off_c, 1, 69, 0
2, 412320, Note_on_c, 1, 38, 127
2, 412320, Note_on_c, 1, 50, 127
2, 412320, Note_on_c, 1, 65, 127
2, 412320, Note_on_c, 1, 70, 127
2, 412640, Note_off_c, 1, 38, 0
2, 412640, Note_off_c, 1, 50, 0
2, 412640, Note_off_c, 1, 65, 0
2, 412640, Note_off_c, 1, 70, 0
2, 412680, Note_on_c, 1, 38, 127
2, 412680, Note_on_c, 1, 50, 127
2, 412680, Note_on_c, 1, 65, 127
2, 412680, Note_on_c, 1, 70, 127
2, 413000, Note_off_c, 1, 38, 0
2, 413000, Note_off_c, 1, 50, 0
2, 413000, Note_off_c, 1, 65, 0
2, 413000, Note_off_c, 1, 70, 0
2, 413040, Note_on_c, 1, 41, 127
2, 413040, Note_on_c, 1, 53, 127
2, 413040, Note_on_c, 1, 65, 127
2, 413040, Note_on_c, 1, 72, 127
2, 413400, Note_off_c, 1, 65, 0
2, 413400, Note_off_c, 1, 72, 0
2, 413440, Note_on_c, 1, 66, 127
2, 413440, Note_on_c, 1, 69, 127
2, 413600, Note_off_c, 1, 66, 0
2, 413600, Note_off_c, 1, 69, 0
2, 413640, Note_on_c, 1, 65, 127
2, 413640, Note_on_c, 1, 69, 127
2, 413760, Note_off_c, 1, 41, 0
2, 413760, Note_off_c, 1, 53, 0
2, 413760, Note_off_c, 1, 65, 0
2, 413760, Note_off_c, 1, 69, 0
2, 413840, Note_on_c, 1, 46, 127
2, 413840, Note_on_c, 1, 58, 127
2, 413840, Note_on_c, 1, 65, 127
2, 413840, Note_on_c, 1, 70, 127
2, 414160, Note_off_c, 1, 46, 0
2, 414160, Note_off_c, 1, 58, 0
2, 414160, Note_off_c, 1, 65, 0
2, 414160, Note_off_c, 1, 70, 0
2, 414200, Note_on_c, 1, 51, 127
2, 414200, Note_on_c, 1, 55, 127
2, 414200, Note_on_c, 1, 58, 127
2, 414200, Note_on_c, 1, 63, 127
2, 414920, Note_off_c, 1, 51, 0
2, 414920, Note_off_c, 1, 55, 0
2, 414920, Note_off_c, 1, 58, 0
2, 414920, Note_off_c, 1, 63, 0
2, 416120, Note_on_c, 1, 66, 127
2, 416280, Note_off_c, 1, 66, 0
2, 416520, Note_on_c, 1, 63, 127
2, 416640, Note_off_c, 1, 63, 0
2, 416680, Note_on_c, 1, 65, 127
2, 416840, Note_off_c, 1, 65, 0
2, 416880, Note_on_c, 1, 67, 127
2, 417040, Note_off_c, 1, 67, 0
2, 417080, Note_on_c, 1, 69, 127
2, 417240, Note_off_c, 1, 69, 0
2, 417280, Note_on_c, 1, 70, 127
2, 417320, Note_on_c, 1, 69, 127
2, 417320, Note_off_c, 1, 70, 0
2, 417360, Note_off_c, 1, 69, 0
2, 417400, Note_on_c, 1, 70, 127
2, 417440, Note_off_c, 1, 70, 0
2, 417480, Note_on_c, 1, 72, 127
2, 417600, Note_off_c, 1, 72, 0
2, 417640, Note_on_c, 1, 72, 127
2, 417680, Note_off_c, 1, 72, 0
2, 417720, Note_on_c, 1, 70, 127
2, 417760, Note_off_c, 1, 70, 0
2, 417840, Note_on_c, 1, 70, 127
2, 418000, Note_off_c, 1, 70, 0
2, 418040, Note_on_c, 1, 63, 127
2, 418200, Note_off_c, 1, 63, 0
2, 418240, Note_on_c, 1, 70, 127
2, 418360, Note_off_c, 1, 70, 0
2, 418440, Note_on_c, 1, 74, 127
2, 418560, Note_off_c, 1, 74, 0
2, 418600, Note_on_c, 1, 68, 127
2, 418760, Note_off_c, 1, 68, 0
2, 418800, Note_on_c, 1, 65, 127
2, 418960, Note_off_c, 1, 65, 0
2, 419000, Note_on_c, 1, 72, 127
2, 419160, Note_off_c, 1, 72, 0
2, 419200, Note_on_c, 1, 74, 127
2, 419320, Note_off_c, 1, 74, 0
2, 419400, Note_on_c, 1, 75, 127
2, 419520, Note_off_c, 1, 75, 0
2, 419560, Note_on_c, 1, 77, 127
2, 419800, Note_off_c, 1, 77, 0
2, 419960, Note_on_c, 1, 62, 127
2, 419960, Note_on_c, 1, 67, 127
2, 419960, Note_on_c, 1, 79, 127
2, 420280, Note_off_c, 1, 67, 0
2, 420280, Note_off_c, 1, 79, 0
2, 420320, Note_on_c, 1, 66, 127
2, 420320, Note_on_c, 1, 69, 127
2, 420320, Note_on_c, 1, 81, 127
2, 420680, Note_off_c, 1, 62, 0
2, 420680, Note_off_c, 1, 66, 0
2, 420680, Note_off_c, 1, 69, 0
2, 420680, Note_off_c, 1, 81, 0
2, 421120, Note_on_c, 1, 63, 127
2, 421120, Note_on_c, 1, 66, 127
2, 421120, Note_on_c, 1, 78, 127
2, 421160, Note_off_c, 1, 78, 0
2, 421280, Note_on_c, 1, 72, 127
2, 421360, Note_off_c, 1, 72, 0
2, 421480, Note_on_c, 1, 71, 127
2, 421600, Note_off_c, 1, 71, 0
2, 421640, Note_on_c, 1, 74, 127
2, 421680, Note_off_c, 1, 74, 0
2, 421760, Note_on_c, 1, 72, 127
2, 421800, Note_off_c, 1, 72, 0
2, 421840, Note_off_c, 1, 63, 0
2, 421840, Note_on_c, 1, 69, 127
2, 421880, Note_on_c, 1, 59, 127
2, 421880, Note_off_c, 1, 69, 0
2, 421880, Note_on_c, 1, 73, 127
2, 421960, Note_off_c, 1, 73, 0
2, 422080, Note_on_c, 1, 74, 127
2, 422200, Note_off_c, 1, 59, 0
2, 422200, Note_off_c, 1, 66, 0
2, 422200, Note_off_c, 1, 74, 0
2, 422240, Note_on_c, 1, 69, 127
2, 422600, Note_on_c, 1, 78, 127
2, 422640, Note_on_c, 1, 74, 127
2, 422640, Note_on_c, 1, 77, 127
2, 422640, Note_off_c, 1, 78, 0
2, 422760, Note_off_c, 1, 74, 0
2, 422760, Note_off_c, 1, 77, 0
2, 422840, Note_on_c, 1, 71, 127
2, 422840, Note_on_c, 1, 74, 127
2, 422960, Note_off_c, 1, 69, 0
2, 422960, Note_off_c, 1, 71, 0
2, 423200, Note_on_c, 1, 68, 127
2, 423200, Note_on_c, 1, 71, 127
2, 423360, Note_off_c, 1, 68, 0
2, 423360, Note_off_c, 1, 71, 0
2, 423360, Note_off_c, 1, 74, 0
2, 423400, Note_on_c, 1, 66, 127
2, 423400, Note_on_c, 1, 69, 127
2, 423400, Note_on_c, 1, 74, 127
2, 423760, Note_off_c, 1, 66, 0
2, 423800, Note_on_c, 1, 66, 127
2, 424120, Note_off_c, 1, 69, 0
2, 424120, Note_off_c, 1, 74, 0
2, 424160, Note_on_c, 1, 69, 127
2, 424560, Note_on_c, 1, 74, 127
2, 424720, Note_off_c, 1, 66, 0
2, 424720, Note_off_c, 1, 69, 0
2, 424720, Note_off_c, 1, 74, 0
2, 424760, Note_on_c, 1, 78, 127
2, 424800, Note_off_c, 1, 78, 0
2, 424840, Note_on_c, 1, 81, 127
2, 424880, Note_off_c, 1, 81, 0
2, 424960, Note_on_c, 1, 78, 127
2, 425000, Note_off_c, 1, 78, 0
2, 425040, Note_on_c, 1, 81, 127
2, 425080, Note_off_c, 1, 81, 0
2, 425120, Note_on_c, 1, 83, 127
2, 425200, Note_off_c, 1, 83, 0
2, 425240, Note_on_c, 1, 81, 127
2, 425280, Note_off_c, 1, 81, 0
2, 425320, Note_on_c, 1, 80, 127
2, 425360, Note_off_c, 1, 80, 0
2, 425440, Note_on_c, 1, 81, 127
2, 425480, Note_off_c, 1, 81, 0
2, 425520, Note_on_c, 1, 80, 127
2, 425560, Note_off_c, 1, 80, 0
2, 425600, Note_on_c, 1, 81, 127
2, 425680, Note_off_c, 1, 81, 0
2, 425720, Note_on_c, 1, 83, 127
2, 425760, Note_off_c, 1, 83, 0
2, 425800, Note_on_c, 1, 81, 127
2, 425840, Note_off_c, 1, 81, 0
2, 425920, Note_on_c, 1, 82, 127
2, 425960, Note_off_c, 1, 82, 0
2, 426000, Note_on_c, 1, 84, 127
2, 426040, Note_off_c, 1, 84, 0
2, 426080, Note_on_c, 1, 86, 127
2, 426160, Note_off_c, 1, 86, 0
2, 426200, Note_on_c, 1, 79, 127
2, 426240, Note_off_c, 1, 79, 0
2, 426280, Note_on_c, 1, 83, 127
2, 426320, Note_off_c, 1, 83, 0
2, 426400, Note_on_c, 1, 76, 127
2, 426440, Note_off_c, 1, 76, 0
2, 426480, Note_on_c, 1, 50, 127
2, 426480, Note_on_c, 1, 71, 127
2, 426480, Note_on_c, 1, 74, 127
2, 426480, Note_on_c, 1, 86, 127
2, 426520, Note_off_c, 1, 86, 0
2, 426560, Note_on_c, 1, 84, 127
2, 426640, Note_off_c, 1, 84, 0
2, 426680, Note_on_c, 1, 83, 127
2, 426720, Note_off_c, 1, 83, 0
2, 426760, Note_on_c, 1, 83, 127
2, 426800, Note_off_c, 1, 50, 0
2, 426800, Note_off_c, 1, 71, 0
2, 426800, Note_off_c, 1, 74, 0
2, 426800, Note_off_c, 1, 83, 0
2, 426880, Note_on_c, 1, 72, 127
2, 426880, Note_on_c, 1, 75, 127
2, 426880, Note_on_c, 1, 84, 127
2, 426920, Note_off_c, 1, 84, 0
2, 426960, Note_on_c, 1, 81, 127
2, 427000, Note_off_c, 1, 81, 0
2, 427040, Note_on_c, 1, 45, 127
2, 427040, Note_on_c, 1, 80, 127
2, 427120, Note_off_c, 1, 80, 0
2, 427160, Note_on_c, 1, 76, 127
2, 427200, Note_off_c, 1, 45, 0
2, 427200, Note_off_c, 1, 76, 0
2, 427240, Note_on_c, 1, 80, 127
2, 427280, Note_off_c, 1, 80, 0
2, 427360, Note_on_c, 1, 81, 127
2, 427400, Note_off_c, 1, 81, 0
2, 427440, Note_on_c, 1, 79, 127
2, 427480, Note_off_c, 1, 79, 0
2, 427520, Note_on_c, 1, 81, 127
2, 427600, Note_off_c, 1, 72, 0
2, 427600, Note_off_c, 1, 75, 0
2, 427600, Note_off_c, 1, 81, 0
2, 427640, Note_on_c, 1, 73, 127
2, 427640, Note_on_c, 1, 76, 127
2, 427640, Note_on_c, 1, 80, 127
2, 427680, Note_off_c, 1, 80, 0
2, 427720, Note_on_c, 1, 81, 127
2, 427760, Note_off_c, 1, 81, 0
2, 427840, Note_on_c, 1, 79, 127
2, 427880, Note_off_c, 1, 79, 0
2, 427920, Note_on_c, 1, 81, 127
2, 427960, Note_off_c, 1, 81, 0
2, 428000, Note_on_c, 1, 82, 127
2, 428040, Note_off_c, 1, 82, 0
2, 428120, Note_on_c, 1, 81, 127
2, 428160, Note_off_c, 1, 81, 0
2, 428200, Note_on_c, 1, 82, 127
2, 428240, Note_off_c, 1, 82, 0
2, 428320, Note_on_c, 1, 81, 127
2, 428360, Note_off_c, 1, 81, 0
2, 428400, Note_on_c, 1, 79, 127
2, 428440, Note_off_c, 1, 79, 0
2, 428600, Note_on_c, 1, 55, 127
2, 428720, Note_off_c, 1, 55, 0
2, 428720, Note_off_c, 1, 73, 0
2, 428720, Note_off_c, 1, 76, 0
2, 428800, Note_on_c, 1, 57, 127
2, 428800, Note_on_c, 1, 72, 127
2, 428800, Note_on_c, 1, 76, 127
2, 428840, Note_off_c, 1, 76, 0
2, 428880, Note_on_c, 1, 77, 127
2, 428920, Note_off_c, 1, 57, 0
2, 428920, Note_off_c, 1, 77, 0
2, 428960, Note_on_c, 1, 59, 127
2, 428960, Note_on_c, 1, 76, 127
2, 429040, Note_off_c, 1, 76, 0
2, 429080, Note_on_c, 1, 77, 127
2, 429120, Note_off_c, 1, 59, 0
2, 429120, Note_off_c, 1, 72, 0
2, 429120, Note_off_c, 1, 77, 0
2, 429160, Note_on_c, 1, 60, 127
2, 429160, Note_on_c, 1, 72, 127
2, 429160, Note_on_c, 1, 76, 127
2, 429200, Note_off_c, 1, 76, 0
2, 429280, Note_on_c, 1, 74, 127
2, 429320, Note_off_c, 1, 74, 0
2, 429360, Note_on_c, 1, 79, 127
2, 429400, Note_off_c, 1, 79, 0
2, 429440, Note_on_c, 1, 76, 127
2, 429520, Note_off_c, 1, 60, 0
2, 429520, Note_off_c, 1, 72, 0
2, 429520, Note_off_c, 1, 76, 0
2, 429560, Note_on_c, 1, 64, 127
2, 429560, Note_on_c, 1, 78, 127
2, 429600, Note_off_c, 1, 78, 0
2, 429640, Note_on_c, 1, 79, 127
2, 429680, Note_off_c, 1, 64, 0
2, 429680, Note_off_c, 1, 79, 0
2, 429760, Note_on_c, 1, 66, 127
2, 429760, Note_on_c, 1, 81, 127
2, 429800, Note_off_c, 1, 81, 0
2, 429840, Note_on_c, 1, 79, 127
2, 429880, Note_off_c, 1, 66, 0
2, 429880, Note_off_c, 1, 79, 0
2, 429920, Note_on_c, 1, 60, 127
2, 429920, Note_on_c, 1, 71, 127
2, 429920, Note_on_c, 1, 79, 127
2, 429960, Note_off_c, 1, 79, 0
2, 430040, Note_on_c, 1, 78, 127
2, 430080, Note_off_c, 1, 60, 0
2, 430080, Note_off_c, 1, 71, 0
2, 430080, Note_off_c, 1, 78, 0
2, 430120, Note_on_c, 1, 59, 127
2, 430120, Note_on_c, 1, 75, 127
2, 430160, Note_off_c, 1, 75, 0
2, 430240, Note_on_c, 1, 76, 127
2, 430280, Note_off_c, 1, 59, 0
2, 430280, Note_off_c, 1, 76, 0
2, 430320, Note_on_c, 1, 57, 127
2, 430320, Note_on_c, 1, 78, 127
2, 430360, Note_off_c, 1, 78, 0
2, 430400, Note_on_c, 1, 76, 127
2, 430480, Note_off_c, 1, 57, 0
2, 430480, Note_off_c, 1, 76, 0
2, 430520, Note_on_c, 1, 60, 127
2, 430520, Note_on_c, 1, 78, 127
2, 430560, Note_off_c, 1, 78, 0
2, 430600, Note_on_c, 1, 76, 127
2, 430640, Note_off_c, 1, 60, 0
2, 430640, Note_off_c, 1, 76, 0
2, 430720, Note_on_c, 1, 55, 127
2, 430720, Note_on_c, 1, 79, 127
2, 430760, Note_off_c, 1, 79, 0
2, 430800, Note_on_c, 1, 72, 127
2, 430840, Note_off_c, 1, 55, 0
2, 430840, Note_off_c, 1, 72, 0
2, 430880, Note_on_c, 1, 59, 127
2, 430880, Note_on_c, 1, 83, 127
2, 430960, Note_off_c, 1, 83, 0
2, 431000, Note_on_c, 1, 81, 127
2, 431040, Note_off_c, 1, 59, 0
2, 431040, Note_off_c, 1, 81, 0
2, 431080, Note_on_c, 1, 55, 127
2, 431080, Note_on_c, 1, 79, 127
2, 431240, Note_off_c, 1, 55, 0
2, 431280, Note_on_c, 1, 59, 127
2, 431440, Note_off_c, 1, 59, 0
2, 431480, Note_on_c, 1, 55, 127
2, 431480, Note_on_c, 1, 76, 127
2, 431600, Note_off_c, 1, 55, 0
2, 431600, Note_off_c, 1, 76, 0
2, 431600, Note_off_c, 1, 79, 0
2, 431680, Note_on_c, 1, 60, 127
2, 431680, Note_on_c, 1, 74, 127
2, 431680, Note_on_c, 1, 77, 127
2, 431720, Note_off_c, 1, 77, 0
2, 431800, Note_off_c, 1, 60, 0
2, 431800, Note_off_c, 1, 74, 0
2, 431840, Note_on_c, 1, 50, 127
2, 431840, Note_on_c, 1, 74, 127
2, 432000, Note_off_c, 1, 50, 0
2, 432040, Note_on_c, 1, 59, 127
2, 432200, Note_off_c, 1, 59, 0
2, 432200, Note_off_c, 1, 74, 0
2, 432240, Note_on_c, 1, 48, 127
2, 432240, Note_on_c, 1, 79, 127
2, 432400, Note_off_c, 1, 48, 0
2, 432440, Note_on_c, 1, 60, 127
2, 432560, Note_off_c, 1, 60, 0
2, 432640, Note_on_c, 1, 57, 127
2, 432760, Note_off_c, 1, 57, 0
2, 432800, Note_on_c, 1, 60, 127
2, 432880, Note_off_c, 1, 79, 0
2, 432960, Note_off_c, 1, 60, 0
2, 433000, Note_on_c, 1, 67, 127
2, 433000, Note_on_c, 1, 81, 127
2, 433160, Note_off_c, 1, 67, 0
2, 433200, Note_on_c, 1, 60, 127
2, 433400, Note_on_c, 1, 76, 127
2, 433520, Note_off_c, 1, 60, 0
2, 433520, Note_off_c, 1, 76, 0
2, 433520, Note_off_c, 1, 81, 0
2, 433600, Note_on_c, 1, 55, 127
2, 433600, Note_on_c, 1, 71, 127
2, 433600, Note_on_c, 1, 74, 127
2, 433720, Note_off_c, 1, 55, 0
2, 433720, Note_off_c, 1, 71, 0
2, 433720, Note_off_c, 1, 74, 0
2, 433760, Note_on_c, 1, 51, 127
2, 433760, Note_on_c, 1, 72, 127
2, 433760, Note_on_c, 1, 81, 127
2, 433920, Note_off_c, 1, 72, 0
2, 433920, Note_off_c, 1, 81, 0
2, 433960, Note_on_c, 1, 71, 127
2, 434120, Note_off_c, 1, 51, 0
2, 434160, Note_on_c, 1, 57, 127
2, 434160, Note_on_c, 1, 74, 127
2, 434160, Note_on_c, 1, 83, 127
2, 434200, Note_on_c, 1, 55, 127
2, 434200, Note_off_c, 1, 57, 0
2, 434280, Note_off_c, 1, 55, 0
2, 434280, Note_on_c, 1, 57, 127
2, 434320, Note_off_c, 1, 57, 0
2, 434360, Note_on_c, 1, 59, 127
2, 434480, Note_off_c, 1, 59, 0
2, 434480, Note_off_c, 1, 71, 0
2, 434480, Note_off_c, 1, 74, 0
2, 434480, Note_off_c, 1, 83, 0
2, 434560, Note_on_c, 1, 62, 127
2, 434560, Note_on_c, 1, 83, 127
2, 434680, Note_off_c, 1, 62, 0
2, 434680, Note_off_c, 1, 83, 0
2, 434720, Note_on_c, 1, 59, 127
2, 434720, Note_on_c, 1, 81, 127
2, 434880, Note_off_c, 1, 59, 0
2, 434880, Note_off_c, 1, 81, 0
2, 434920, Note_on_c, 1, 62, 127
2, 434920, Note_on_c, 1, 81, 127
2, 435080, Note_off_c, 1, 62, 0
2, 435120, Note_on_c, 1, 59, 127
2, 435280, Note_off_c, 1, 59, 0
2, 435280, Note_off_c, 1, 81, 0
2, 435320, Note_on_c, 1, 50, 127
2, 435320, Note_on_c, 1, 62, 127
2, 435320, Note_on_c, 1, 78, 127
2, 435320, Note_on_c, 1, 81, 127
2, 435320, Note_on_c, 1, 84, 127
2, 435640, Note_off_c, 1, 50, 0
2, 435640, Note_off_c, 1, 62, 0
2, 435640, Note_off_c, 1, 78, 0
2, 435640, Note_off_c, 1, 81, 0
2, 435640, Note_off_c, 1, 84, 0
2, 435680, Note_on_c, 1, 38, 127
2, 435680, Note_on_c, 1, 50, 127
2, 435680, Note_on_c, 1, 62, 127
2, 436600, Note_off_c, 1, 50, 0
2, 436640, Note_on_c, 1, 50, 127
2, 437280, Note_off_c, 1, 50, 0
2, 437400, Note_on_c, 1, 54, 127
2, 437640, Note_off_c, 1, 54, 0
2, 438120, Note_off_c, 1, 38, 0
2, 438200, Note_on_c, 1, 78, 127
2, 438320, Note_off_c, 1, 78, 0
2, 438360, Note_on_c, 1, 74, 127
2, 438520, Note_off_c, 1, 74, 0
2, 438560, Note_on_c, 1, 76, 127
2, 438720, Note_off_c, 1, 76, 0
2, 438760, Note_on_c, 1, 78, 127
2, 438920, Note_off_c, 1, 78, 0
2, 438960, Note_on_c, 1, 72, 127
2, 439080, Note_off_c, 1, 72, 0
2, 439160, Note_on_c, 1, 74, 127
2, 439280, Note_off_c, 1, 74, 0
2, 439320, Note_on_c, 1, 78, 127
2, 439480, Note_off_c, 1, 78, 0
2, 439520, Note_on_c, 1, 69, 127
2, 439680, Note_off_c, 1, 69, 0
2, 439720, Note_on_c, 1, 67, 127
2, 439720, Note_on_c, 1, 79, 127
2, 439840, Note_off_c, 1, 67, 0
2, 439920, Note_on_c, 1, 59, 127
2, 440040, Note_off_c, 1, 62, 0
2, 440040, Note_off_c, 1, 79, 0
2, 440120, Note_on_c, 1, 69, 127
2, 440120, Note_on_c, 1, 81, 127
2, 440240, Note_off_c, 1, 59, 0
2, 440240, Note_on_c, 1, 62, 127
2, 440240, Note_off_c, 1, 69, 0
2, 440280, Note_on_c, 1, 61, 127
2, 440280, Note_off_c, 1, 62, 0
2, 440440, Note_off_c, 1, 61, 0
2, 440480, Note_on_c, 1, 66, 127
2, 440640, Note_off_c, 1, 66, 0
2, 440680, Note_on_c, 1, 64, 127
2, 440800, Note_off_c, 1, 64, 0
2, 440840, Note_off_c, 1, 81, 0
2, 440880, Note_on_c, 1, 55, 127
2, 440880, Note_on_c, 1, 62, 127
2, 440880, Note_on_c, 1, 67, 127
2, 440880, Note_on_c, 1, 79, 127
2, 441240, Note_on_c, 1, 74, 127
2, 441440, Note_off_c, 1, 55, 0
2, 441640, Note_on_c, 1, 55, 127
2, 441960, Note_off_c, 1, 55, 0
2, 441960, Note_off_c, 1, 62, 0
2, 441960, Note_off_c, 1, 67, 0
2, 441960, Note_off_c, 1, 74, 0
2, 441960, Note_off_c, 1, 79, 0
2, 442040, Note_on_c, 1, 50, 127
2, 442040, Note_on_c, 1, 62, 127
2, 443120, Note_off_c, 1, 50, 0
2, 443120, Note_off_c, 1, 62, 0
2, 443200, Note_on_c, 1, 69, 127
2, 443320, Note_off_c, 1, 69, 0
2, 443400, Note_on_c, 1, 66, 127
2, 443520, Note_off_c, 1, 66, 0
2, 443560, Note_on_c, 1, 74, 127
2, 443720, Note_off_c, 1, 74, 0
2, 443760, Note_on_c, 1, 69, 127
2, 443920, Note_off_c, 1, 69, 0
2, 443960, Note_on_c, 1, 74, 127
2, 444120, Note_off_c, 1, 74, 0
2, 444160, Note_on_c, 1, 69, 127
2, 444280, Note_off_c, 1, 69, 0
2, 444360, Note_on_c, 1, 66, 127
2, 444480, Note_off_c, 1, 66, 0
2, 444520, Note_on_c, 1, 62, 127
2, 444680, Note_off_c, 1, 62, 0
2, 444720, Note_on_c, 1, 60, 127
2, 444880, Note_off_c, 1, 60, 0
2, 444920, Note_on_c, 1, 57, 127
2, 445080, Note_off_c, 1, 57, 0
2, 445120, Note_on_c, 1, 60, 127
2, 445240, Note_off_c, 1, 60, 0
2, 445320, Note_on_c, 1, 81, 127
2, 445480, Note_on_c, 1, 54, 127
2, 445640, Note_off_c, 1, 54, 0
2, 445640, Note_off_c, 1, 81, 0
2, 445680, Note_on_c, 1, 57, 127
2, 445840, Note_off_c, 1, 57, 0
2, 445880, Note_on_c, 1, 55, 127
2, 446040, Note_off_c, 1, 55, 0
2, 446080, Note_on_c, 1, 50, 127
2, 446080, Note_on_c, 1, 62, 127
2, 446240, Note_off_c, 1, 50, 0
2, 446280, Note_on_c, 1, 54, 127
2, 446400, Note_off_c, 1, 54, 0
2, 446400, Note_off_c, 1, 62, 0
2, 446480, Note_on_c, 1, 57, 127
2, 446480, Note_on_c, 1, 78, 127
2, 446600, Note_off_c, 1, 78, 0
2, 446640, Note_on_c, 1, 74, 127
2, 446800, Note_off_c, 1, 57, 0
2, 446800, Note_off_c, 1, 74, 0
2, 446840, Note_on_c, 1, 74, 127
2, 447000, Note_off_c, 1, 74, 0
2, 447040, Note_on_c, 1, 73, 127
2, 447200, Note_off_c, 1, 73, 0
2, 447240, Note_on_c, 1, 57, 127
2, 447240, Note_on_c, 1, 72, 127
2, 447560, Note_off_c, 1, 57, 0
2, 447560, Note_off_c, 1, 72, 0
2, 447600, Note_on_c, 1, 62, 127
2, 447680, Note_off_c, 1, 62, 0
2, 447800, Note_on_c, 1, 62, 127
2, 447960, Note_off_c, 1, 62, 0
2, 448000, Note_on_c, 1, 64, 127
2, 448160, Note_off_c, 1, 64, 0
2, 448200, Note_on_c, 1, 72, 127
2, 448320, Note_off_c, 1, 72, 0
2, 448400, Note_on_c, 1, 74, 127
2, 448520, Note_off_c, 1, 74, 0
2, 448560, Note_on_c, 1, 75, 127
2, 448720, Note_off_c, 1, 75, 0
2, 448760, Note_on_c, 1, 76, 127
2, 448920, Note_off_c, 1, 76, 0
2, 448960, Note_on_c, 1, 78, 127
2, 449120, Note_off_c, 1, 78, 0
2, 449160, Note_on_c, 1, 64, 127
2, 449160, Note_on_c, 1, 67, 127
2, 449160, Note_on_c, 1, 78, 127
2, 449200, Note_off_c, 1, 78, 0
2, 449280, Note_off_c, 1, 64, 0
2, 449280, Note_off_c, 1, 67, 0
2, 449360, Note_on_c, 1, 69, 127
2, 449360, Note_on_c, 1, 76, 127
2, 449400, Note_on_c, 1, 72, 127
2, 449400, Note_off_c, 1, 76, 0
2, 449480, Note_off_c, 1, 69, 0
2, 449480, Note_off_c, 1, 72, 0
2, 449520, Note_on_c, 1, 66, 127
2, 449520, Note_on_c, 1, 69, 127
2, 449520, Note_on_c, 1, 74, 127
2, 449680, Note_off_c, 1, 74, 0
2, 449720, Note_on_c, 1, 72, 127
2, 449880, Note_off_c, 1, 66, 0
2, 449880, Note_off_c, 1, 69, 0
2, 449880, Note_off_c, 1, 72, 0
2, 449920, Note_on_c, 1, 62, 127
2, 449920, Note_on_c, 1, 66, 127
2, 449920, Note_on_c, 1, 69, 127
2, 450240, Note_off_c, 1, 62, 0
2, 450240, Note_off_c, 1, 66, 0
2, 450240, Note_off_c, 1, 69, 0
2, 450320, Note_on_c, 1, 38, 127
2, 450320, Note_on_c, 1, 50, 127
2, 450640, Note_off_c, 1, 38, 0
2, 450640, Note_off_c, 1, 50, 0
2, 451080, Note_on_c, 1, 57, 127
2, 451080, Note_on_c, 1, 61, 127
2, 451400, Note_off_c, 1, 57, 0
2, 451400, Note_off_c, 1, 61, 0
2, 451440, Note_on_c, 1, 66, 127
2, 451800, Note_off_c, 1, 66, 0
2, 451840, Note_on_c, 1, 64, 127
2, 452200, Note_off_c, 1, 64, 0
2, 452240, Note_on_c, 1, 69, 127
2, 452360, Note_off_c, 1, 69, 0
2, 452600, Note_on_c, 1, 66, 127
2, 452800, Note_off_c, 1, 66, 0
2, 452800, Note_on_c, 1, 67, 127
2, 452840, Note_on_c, 1, 66, 127
2, 452840, Note_off_c, 1, 67, 0
2, 452960, Note_off_c, 1, 66, 0
2, 453000, Note_on_c, 1, 69, 127
2, 453120, Note_off_c, 1, 69, 0
2, 453200, Note_on_c, 1, 67, 127
2, 453320, Note_off_c, 1, 67, 0
2, 453360, Note_on_c, 1, 50, 127
2, 453360, Note_on_c, 1, 66, 127
2, 453480, Note_off_c, 1, 66, 0
2, 453560, Note_on_c, 1, 69, 127
2, 453720, Note_off_c, 1, 69, 0
2, 453760, Note_on_c, 1, 66, 127
2, 453880, Note_off_c, 1, 66, 0
2, 453920, Note_off_c, 1, 50, 0
2, 453960, Note_on_c, 1, 54, 127
2, 453960, Note_on_c, 1, 74, 127
2, 454080, Note_off_c, 1, 54, 0
2, 454080, Note_off_c, 1, 74, 0
2, 454160, Note_on_c, 1, 50, 127
2, 454160, Note_on_c, 1, 78, 127
2, 454280, Note_off_c, 1, 78, 0
2, 454320, Note_on_c, 1, 76, 127
2, 454480, Note_off_c, 1, 50, 0
2, 454480, Note_off_c, 1, 76, 0
2, 454520, Note_on_c, 1, 62, 127
2, 454520, Note_on_c, 1, 81, 127
2, 454680, Note_off_c, 1, 62, 0
2, 454680, Note_off_c, 1, 81, 0
2, 454720, Note_on_c, 1, 64, 127
2, 454720, Note_on_c, 1, 78, 127
2, 454880, Note_off_c, 1, 64, 0
2, 454880, Note_off_c, 1, 78, 0
2, 454920, Note_on_c, 1, 61, 127
2, 454920, Note_on_c, 1, 69, 127
2, 455040, Note_off_c, 1, 61, 0
2, 455200, Note_on_c, 1, 66, 127
2, 455240, Note_off_c, 1, 66, 0
2, 455240, Note_off_c, 1, 69, 0
2, 455280, Note_on_c, 1, 62, 127
2, 455280, Note_on_c, 1, 74, 127
2, 455440, Note_off_c, 1, 62, 0
2, 455480, Note_on_c, 1, 66, 127
2, 455640, Note_off_c, 1, 66, 0
2, 455640, Note_off_c, 1, 74, 0
2, 455680, Note_on_c, 1, 62, 127
2, 455680, Note_on_c, 1, 78, 127
2, 455840, Note_off_c, 1, 62, 0
2, 455880, Note_on_c, 1, 69, 127
2, 456000, Note_off_c, 1, 69, 0
2, 456000, Note_off_c, 1, 78, 0
2, 456080, Note_on_c, 1, 62, 127
2, 456200, Note_off_c, 1, 62, 0
2, 456240, Note_on_c, 1, 67, 127
2, 456400, Note_off_c, 1, 67, 0
2, 456440, Note_on_c, 1, 62, 127
2, 456440, Note_on_c, 1, 78, 127
2, 456480, Note_off_c, 1, 78, 0
2, 456600, Note_off_c, 1, 62, 0
2, 456640, Note_on_c, 1, 71, 127
2, 456800, Note_off_c, 1, 71, 0
2, 456840, Note_on_c, 1, 61, 127
2, 456840, Note_on_c, 1, 74, 127
2, 456880, Note_on_c, 1, 73, 127
2, 456880, Note_off_c, 1, 74, 0
2, 456960, Note_off_c, 1, 61, 0
2, 457040, Note_on_c, 1, 67, 127
2, 457160, Note_off_c, 1, 67, 0
2, 457160, Note_off_c, 1, 73, 0
2, 457200, Note_on_c, 1, 62, 127
2, 457200, Note_on_c, 1, 69, 127
2, 457360, Note_off_c, 1, 62, 0
2, 457400, Note_on_c, 1, 66, 127
2, 457560, Note_off_c, 1, 66, 0
2, 457560, Note_off_c, 1, 69, 0
2, 457600, Note_on_c, 1, 62, 127
2, 457760, Note_off_c, 1, 62, 0
2, 457800, Note_on_c, 1, 66, 127
2, 457920, Note_off_c, 1, 66, 0
2, 458000, Note_on_c, 1, 57, 127
2, 458000, Note_on_c, 1, 76, 127
2, 458120, Note_off_c, 1, 57, 0
2, 458160, Note_on_c, 1, 67, 127
2, 458320, Note_off_c, 1, 67, 0
2, 458320, Note_off_c, 1, 76, 0
2, 458360, Note_on_c, 1, 62, 127
2, 458520, Note_off_c, 1, 62, 0
2, 458560, Note_on_c, 1, 67, 127
2, 458720, Note_off_c, 1, 67, 0
2, 458760, Note_on_c, 1, 57, 127
2, 458760, Note_on_c, 1, 74, 127
2, 458880, Note_off_c, 1, 57, 0
2, 458960, Note_on_c, 1, 69, 127
2, 459080, Note_off_c, 1, 69, 0
2, 459080, Note_off_c, 1, 74, 0
2, 459120, Note_on_c, 1, 62, 127
2, 459120, Note_on_c, 1, 78, 127
2, 459280, Note_off_c, 1, 62, 0
2, 459280, Note_off_c, 1, 78, 0
2, 459320, Note_on_c, 1, 67, 127
2, 459320, Note_on_c, 1, 74, 127
2, 459480, Note_off_c, 1, 67, 0
2, 459480, Note_off_c, 1, 74, 0
2, 459520, Note_on_c, 1, 57, 127
2, 459520, Note_on_c, 1, 74, 127
2, 459680, Note_off_c, 1, 57, 0
2, 459680, Note_off_c, 1, 74, 0
2, 459720, Note_on_c, 1, 66, 127
2, 459720, Note_on_c, 1, 74, 127
2, 459840, Note_off_c, 1, 66, 0
2, 459840, Note_off_c, 1, 74, 0
2, 459920, Note_on_c, 1, 55, 127
2, 459920, Note_on_c, 1, 62, 127
2, 459920, Note_on_c, 1, 76, 127
2, 460040, Note_off_c, 1, 76, 0
2, 460080, Note_on_c, 1, 74, 127
2, 460240, Note_off_c, 1, 55, 0
2, 460240, Note_off_c, 1, 62, 0
2, 460240, Note_off_c, 1, 74, 0
2, 460280, Note_on_c, 1, 57, 127
2, 460280, Note_on_c, 1, 61, 127
2, 460280, Note_on_c, 1, 73, 127
2, 460440, Note_off_c, 1, 73, 0
2, 460480, Note_on_c, 1, 76, 127
2, 460640, Note_off_c, 1, 57, 0
2, 460640, Note_off_c, 1, 61, 0
2, 460640, Note_off_c, 1, 76, 0
2, 460680, Note_on_c, 1, 81, 127
2, 460800, Note_off_c, 1, 81, 0
2, 460880, Note_on_c, 1, 85, 127
2, 461000, Note_off_c, 1, 85, 0
2, 461040, Note_on_c, 1, 85, 127
2, 461200, Note_off_c, 1, 85, 0
2, 461240, Note_on_c, 1, 79, 127
2, 461400, Note_off_c, 1, 79, 0
2, 461440, Note_on_c, 1, 57, 127
2, 461440, Note_on_c, 1, 64, 127
2, 461440, Note_on_c, 1, 83, 127
2, 461600, Note_off_c, 1, 83, 0
2, 461640, Note_on_c, 1, 76, 127
2, 461760, Note_off_c, 1, 76, 0
2, 461840, Note_on_c, 1, 73, 127
2, 461960, Note_off_c, 1, 73, 0
2, 462000, Note_on_c, 1, 76, 127
2, 462160, Note_off_c, 1, 57, 0
2, 462160, Note_off_c, 1, 64, 0
2, 462160, Note_off_c, 1, 76, 0
2, 462200, Note_on_c, 1, 79, 127
2, 462360, Note_off_c, 1, 79, 0
2, 462400, Note_on_c, 1, 79, 127
2, 462560, Note_off_c, 1, 79, 0
2, 462600, Note_on_c, 1, 81, 127
2, 462720, Note_off_c, 1, 81, 0
2, 462960, Note_on_c, 1, 77, 127
2, 463120, Note_off_c, 1, 77, 0
2, 463160, Note_on_c, 1, 76, 127
2, 463320, Note_off_c, 1, 76, 0
2, 463360, Note_on_c, 1, 61, 127
2, 463360, Note_on_c, 1, 64, 127
2, 463360, Note_on_c, 1, 69, 127
2, 463360, Note_on_c, 1, 74, 127
2, 463360, Note_on_c, 1, 76, 127
2, 463520, Note_off_c, 1, 61, 0
2, 463520, Note_off_c, 1, 64, 0
2, 463520, Note_off_c, 1, 76, 0
2, 463560, Note_on_c, 1, 59, 127
2, 463560, Note_on_c, 1, 62, 127
2, 463560, Note_on_c, 1, 76, 127
2, 463600, Note_off_c, 1, 76, 0
2, 463680, Note_off_c, 1, 59, 0
2, 463680, Note_off_c, 1, 62, 0
2, 463680, Note_off_c, 1, 69, 0
2, 463680, Note_off_c, 1, 74, 0
2, 463760, Note_on_c, 1, 61, 127
2, 463760, Note_on_c, 1, 64, 127
2, 463760, Note_on_c, 1, 69, 127
2, 463760, Note_on_c, 1, 76, 127
2, 463880, Note_off_c, 1, 61, 0
2, 463880, Note_off_c, 1, 64, 0
2, 463880, Note_off_c, 1, 69, 0
2, 463880, Note_off_c, 1, 76, 0
2, 463920, Note_on_c, 1, 68, 127
2, 463920, Note_on_c, 1, 71, 127
2, 463920, Note_on_c, 1, 74, 127
2, 463920, Note_on_c, 1, 80, 127
2, 464080, Note_off_c, 1, 68, 0
2, 464080, Note_off_c, 1, 71, 0
2, 464080, Note_off_c, 1, 74, 0
2, 464080, Note_off_c, 1, 80, 0
2, 464120, Note_on_c, 1, 61, 127
2, 464120, Note_on_c, 1, 69, 127
2, 464120, Note_on_c, 1, 73, 127
2, 464120, Note_on_c, 1, 76, 127
2, 464120, Note_on_c, 1, 81, 127
2, 464280, Note_off_c, 1, 61, 0
2, 464320, Note_on_c, 1, 57, 127
2, 464320, Note_on_c, 1, 64, 127
2, 464480, Note_off_c, 1, 57, 0
2, 464480, Note_off_c, 1, 64, 0
2, 464480, Note_off_c, 1, 69, 0
2, 464480, Note_off_c, 1, 73, 0
2, 464520, Note_on_c, 1, 61, 127
2, 464520, Note_on_c, 1, 69, 127
2, 464520, Note_on_c, 1, 73, 127
2, 464520, Note_off_c, 1, 76, 0
2, 464640, Note_off_c, 1, 61, 0
2, 464640, Note_off_c, 1, 69, 0
2, 464640, Note_off_c, 1, 73, 0
2, 464720, Note_on_c, 1, 57, 127
2, 464720, Note_on_c, 1, 73, 127
2, 464840, Note_off_c, 1, 57, 0
2, 464840, Note_off_c, 1, 73, 0
2, 464840, Note_off_c, 1, 81, 0
2, 464880, Note_on_c, 1, 64, 127
2, 464880, Note_on_c, 1, 69, 127
2, 464880, Note_on_c, 1, 76, 127
2, 464880, Note_on_c, 1, 80, 127
2, 465040, Note_off_c, 1, 76, 0
2, 465040, Note_off_c, 1, 80, 0
2, 465080, Note_on_c, 1, 76, 127
2, 465080, Note_on_c, 1, 81, 127
2, 465120, Note_off_c, 1, 76, 0
2, 465120, Note_off_c, 1, 81, 0
2, 465240, Note_off_c, 1, 64, 0
2, 465240, Note_off_c, 1, 69, 0
2, 465280, Note_on_c, 1, 74, 127
2, 465280, Note_on_c, 1, 85, 127
2, 465440, Note_off_c, 1, 74, 0
2, 465440, Note_off_c, 1, 85, 0
2, 465480, Note_on_c, 1, 74, 127
2, 465480, Note_on_c, 1, 86, 127
2, 465640, Note_off_c, 1, 74, 0
2, 465640, Note_off_c, 1, 86, 0
2, 465680, Note_on_c, 1, 73, 127
2, 465680, Note_on_c, 1, 85, 127
2, 465800, Note_off_c, 1, 73, 0
2, 465800, Note_off_c, 1, 85, 0
2, 465880, Note_on_c, 1, 74, 127
2, 465880, Note_on_c, 1, 86, 127
2, 466000, Note_off_c, 1, 74, 0
2, 466000, Note_off_c, 1, 86, 0
2, 466040, Note_on_c, 1, 73, 127
2, 466040, Note_on_c, 1, 85, 127
2, 466200, Note_off_c, 1, 73, 0
2, 466200, Note_off_c, 1, 85, 0
2, 466240, Note_on_c, 1, 74, 127
2, 466240, Note_on_c, 1, 86, 127
2, 466400, Note_off_c, 1, 74, 0
2, 466400, Note_off_c, 1, 86, 0
2, 466440, Note_on_c, 1, 57, 127
2, 466440, Note_on_c, 1, 73, 127
2, 466440, Note_on_c, 1, 85, 127
2, 466600, Note_off_c, 1, 57, 0
2, 466600, Note_off_c, 1, 73, 0
2, 466600, Note_off_c, 1, 85, 0
2, 466640, Note_on_c, 1, 68, 127
2, 466640, Note_on_c, 1, 83, 127
2, 466760, Note_off_c, 1, 68, 0
2, 466760, Note_off_c, 1, 83, 0
2, 466840, Note_on_c, 1, 69, 127
2, 466840, Note_on_c, 1, 81, 127
2, 466960, Note_off_c, 1, 69, 0
2, 466960, Note_off_c, 1, 81, 0
2, 467000, Note_on_c, 1, 66, 127
2, 467000, Note_on_c, 1, 88, 127
2, 467160, Note_off_c, 1, 66, 0
2, 467160, Note_off_c, 1, 88, 0
2, 467200, Note_on_c, 1, 54, 127
2, 467200, Note_on_c, 1, 71, 127
2, 467200, Note_on_c, 1, 90, 127
2, 467360, Note_off_c, 1, 54, 0
2, 467360, Note_off_c, 1, 71, 0
2, 467360, Note_off_c, 1, 90, 0
2, 467400, Note_on_c, 1, 56, 127
2, 467400, Note_on_c, 1, 64, 127
2, 467400, Note_on_c, 1, 83, 127
2, 467400, Note_on_c, 1, 88, 127
2, 467440, Note_on_c, 1, 81, 127
2, 467440, Note_off_c, 1, 83, 0
2, 467440, Note_on_c, 1, 86, 127
2, 467440, Note_off_c, 1, 88, 0
2, 467560, Note_off_c, 1, 56, 0
2, 467560, Note_off_c, 1, 64, 0
2, 467560, Note_on_c, 1, 69, 127
2, 467600, Note_on_c, 1, 62, 127
2, 467600, Note_on_c, 1, 64, 127
2, 467600, Note_off_c, 1, 69, 0
2, 467720, Note_off_c, 1, 62, 0
2, 467720, Note_off_c, 1, 64, 0
2, 467720, Note_off_c, 1, 81, 0
2, 467720, Note_off_c, 1, 86, 0
2, 467800, Note_on_c, 1, 61, 127
2, 467800, Note_on_c, 1, 64, 127
2, 467800, Note_on_c, 1, 71, 127
2, 467920, Note_off_c, 1, 61, 0
2, 467920, Note_off_c, 1, 64, 0
2, 467920, Note_off_c, 1, 71, 0
2, 467960, Note_on_c, 1, 57, 127
2, 467960, Note_on_c, 1, 76, 127
2, 468120, Note_off_c, 1, 57, 0
2, 468120, Note_off_c, 1, 76, 0
2, 468160, Note_on_c, 1, 61, 127
2, 468160, Note_on_c, 1, 76, 127
2, 468160, Note_on_c, 1, 88, 127
2, 468320, Note_off_c, 1, 61, 0
2, 468360, Note_on_c, 1, 54, 127
2, 468520, Note_off_c, 1, 54, 0
2, 468520, Note_off_c, 1, 76, 0
2, 468520, Note_off_c, 1, 88, 0
2, 468560, Note_on_c, 1, 47, 127
2, 468560, Note_on_c, 1, 57, 127
2, 468560, Note_on_c, 1, 59, 127
2, 468560, Note_on_c, 1, 74, 127
2, 468560, Note_on_c, 1, 84, 127
2, 468680, Note_off_c, 1, 47, 0
2, 468760, Note_on_c, 1, 52, 127
2, 468880, Note_off_c, 1, 52, 0
2, 468880, Note_off_c, 1, 57, 0
2, 468880, Note_off_c, 1, 59, 0
2, 468880, Note_off_c, 1, 74, 0
2, 468880, Note_off_c, 1, 84, 0
2, 468920, Note_on_c, 1, 50, 127
2, 468920, Note_on_c, 1, 56, 127
2, 468920, Note_on_c, 1, 59, 127
2, 468920, Note_on_c, 1, 71, 127
2, 468920, Note_on_c, 1, 74, 127
2, 468920, Note_on_c, 1, 83, 127
2, 469080, Note_off_c, 1, 50, 0
2, 469120, Note_on_c, 1, 47, 127
2, 469280, Note_off_c, 1, 47, 0
2, 469320, Note_on_c, 1, 50, 127
2, 469480, Note_off_c, 1, 50, 0
2, 469480, Note_off_c, 1, 56, 0
2, 469480, Note_off_c, 1, 59, 0
2, 469520, Note_on_c, 1, 50, 127
2, 469520, Note_on_c, 1, 54, 127
2, 469520, Note_on_c, 1, 59, 127
2, 469640, Note_off_c, 1, 50, 0
2, 469640, Note_off_c, 1, 54, 0
2, 469640, Note_off_c, 1, 59, 0
2, 469720, Note_on_c, 1, 50, 127
2, 469720, Note_on_c, 1, 56, 127
2, 469720, Note_on_c, 1, 59, 127
2, 469840, Note_off_c, 1, 50, 0
2, 469840, Note_off_c, 1, 56, 0
2, 469840, Note_off_c, 1, 59, 0
2, 469880, Note_on_c, 1, 50, 127
2, 469880, Note_on_c, 1, 56, 127
2, 469880, Note_on_c, 1, 59, 127
2, 470040, Note_off_c, 1, 50, 0
2, 470040, Note_off_c, 1, 56, 0
2, 470040, Note_off_c, 1, 59, 0
2, 470040, Note_off_c, 1, 71, 0
2, 470040, Note_off_c, 1, 74, 0
2, 470040, Note_off_c, 1, 83, 0
2, 470080, Note_on_c, 1, 49, 127
2, 470080, Note_on_c, 1, 56, 127
2, 470080, Note_on_c, 1, 59, 127
2, 470080, Note_on_c, 1, 73, 127
2, 470080, Note_on_c, 1, 77, 127
2, 470080, Note_on_c, 1, 83, 127
2, 470440, Note_off_c, 1, 49, 0
2, 470440, Note_off_c, 1, 56, 0
2, 470440, Note_off_c, 1, 59, 0
2, 470440, Note_off_c, 1, 73, 0
2, 470440, Note_off_c, 1, 77, 0
2, 470440, Note_off_c, 1, 83, 0
2, 470480, Note_on_c, 1, 61, 127
2, 470480, Note_on_c, 1, 74, 127
2, 470480, Note_on_c, 1, 80, 127
2, 470680, Note_on_c, 1, 76, 127
2, 470720, Note_on_c, 1, 73, 127
2, 470720, Note_off_c, 1, 74, 0
2, 470760, Note_off_c, 1, 73, 0
2, 470760, Note_on_c, 1, 74, 127
2, 470800, Note_off_c, 1, 61, 0
2, 470800, Note_off_c, 1, 74, 0
2, 470800, Note_off_c, 1, 76, 0
2, 470800, Note_off_c, 1, 80, 0
2, 470840, Note_on_c, 1, 59, 127
2, 470840, Note_on_c, 1, 71, 127
2, 470840, Note_on_c, 1, 78, 127
2, 471000, Note_off_c, 1, 59, 0
2, 471000, Note_off_c, 1, 78, 0
2, 471040, Note_on_c, 1, 62, 127
2, 471040, Note_on_c, 1, 78, 127
2, 471200, Note_off_c, 1, 62, 0
2, 471200, Note_off_c, 1, 71, 0
2, 471200, Note_off_c, 1, 78, 0
2, 471240, Note_on_c, 1, 61, 127
2, 471240, Note_on_c, 1, 69, 127
2, 471400, Note_off_c, 1, 61, 0
2, 471440, Note_on_c, 1, 57, 127
2, 471600, Note_off_c, 1, 57, 0
2, 471640, Note_on_c, 1, 61, 127
2, 471640, Note_on_c, 1, 78, 127
2, 471760, Note_off_c, 1, 61, 0
2, 471760, Note_off_c, 1, 78, 0
2, 471840, Note_on_c, 1, 61, 127
2, 471840, Note_on_c, 1, 76, 127
2, 471960, Note_off_c, 1, 61, 0
2, 471960, Note_off_c, 1, 69, 0
2, 471960, Note_off_c, 1, 76, 0
2, 472000, Note_on_c, 1, 68, 127
2, 472000, Note_on_c, 1, 73, 127
2, 472160, Note_off_c, 1, 73, 0
2, 472200, Note_on_c, 1, 61, 127
2, 472200, Note_on_c, 1, 71, 127
2, 472360, Note_off_c, 1, 61, 0
2, 472360, Note_off_c, 1, 71, 0
2, 472400, Note_on_c, 1, 56, 127
2, 472400, Note_on_c, 1, 60, 127
2, 472400, Note_off_c, 1, 68, 0
2, 472400, Note_on_c, 1, 73, 127
2, 472560, Note_off_c, 1, 56, 0
2, 472560, Note_off_c, 1, 60, 0
2, 472560, Note_off_c, 1, 73, 0
2, 472600, Note_on_c, 1, 62, 127
2, 472600, Note_on_c, 1, 74, 127
2, 472720, Note_off_c, 1, 62, 0
2, 472720, Note_off_c, 1, 74, 0
2, 472800, Note_on_c, 1, 52, 127
2, 472800, Note_on_c, 1, 56, 127
2, 472800, Note_on_c, 1, 60, 127
2, 472800, Note_on_c, 1, 64, 127
2, 472920, Note_off_c, 1, 60, 0
2, 472960, Note_off_c, 1, 56, 0
2, 472960, Note_on_c, 1, 59, 127
2, 472960, Note_on_c, 1, 74, 127
2, 473120, Note_off_c, 1, 52, 0
2, 473120, Note_off_c, 1, 59, 0
2, 473120, Note_off_c, 1, 64, 0
2, 473120, Note_off_c, 1, 74, 0
2, 473160, Note_on_c, 1, 50, 127
2, 473160, Note_on_c, 1, 54, 127
2, 473160, Note_on_c, 1, 57, 127
2, 473160, Note_on_c, 1, 60, 127
2, 473160, Note_on_c, 1, 66, 127
2, 473160, Note_on_c, 1, 69, 127
2, 473160, Note_on_c, 1, 75, 127
2, 473200, Note_on_c, 1, 74, 127
2, 473200, Note_off_c, 1, 75, 0
2, 473600, Note_off_c, 1, 50, 0
2, 473600, Note_off_c, 1, 54, 0
2, 473600, Note_off_c, 1, 57, 0
2, 473600, Note_off_c, 1, 60, 0
2, 473600, Note_on_c, 1, 62, 127
2, 473680, Note_off_c, 1, 62, 0
2, 473680, Note_off_c, 1, 66, 0
2, 473680, Note_off_c, 1, 69, 0
2, 473680, Note_off_c, 1, 74, 0
2, 473760, Note_on_c, 1, 50, 127
2, 473760, Note_on_c, 1, 52, 127
2, 473760, Note_on_c, 1, 62, 127
2, 473800, Note_off_c, 1, 50, 0
2, 473800, Note_off_c, 1, 52, 0
2, 473800, Note_off_c, 1, 62, 0
2, 473920, Note_on_c, 1, 50, 127
2, 473920, Note_on_c, 1, 54, 127
2, 473920, Note_on_c, 1, 59, 127
2, 473920, Note_on_c, 1, 62, 127
2, 474000, Note_off_c, 1, 50, 0
2, 474000, Note_off_c, 1, 54, 0
2, 474000, Note_off_c, 1, 59, 0
2, 474000, Note_off_c, 1, 62, 0
2, 474120, Note_on_c, 1, 50, 127
2, 474120, Note_on_c, 1, 54, 127
2, 474120, Note_on_c, 1, 57, 127
2, 474120, Note_on_c, 1, 62, 127
2, 474120, Note_on_c, 1, 72, 127
2, 474160, Note_off_c, 1, 50, 0
2, 474160, Note_off_c, 1, 54, 0
2, 474160, Note_off_c, 1, 57, 0
2, 474160, Note_off_c, 1, 62, 0
2, 474160, Note_off_c, 1, 72, 0
2, 474320, Note_on_c, 1, 50, 127
2, 474320, Note_on_c, 1, 56, 127
2, 474320, Note_on_c, 1, 59, 127
2, 474320, Note_on_c, 1, 62, 127
2, 474320, Note_on_c, 1, 71, 127
2, 474440, Note_off_c, 1, 71, 0
2, 474480, Note_off_c, 1, 50, 0
2, 474480, Note_off_c, 1, 56, 0
2, 474480, Note_off_c, 1, 59, 0
2, 474480, Note_off_c, 1, 62, 0
2, 474720, Note_on_c, 1, 33, 127
2, 474720, Note_on_c, 1, 45, 127
2, 474720, Note_on_c, 1, 57, 127
2, 474720, Note_on_c, 1, 62, 127
2, 474720, Note_on_c, 1, 69, 127
2, 474840, Note_off_c, 1, 69, 0
2, 474880, Note_on_c, 1, 66, 127
2, 474960, Note_off_c, 1, 66, 0
2, 475000, Note_on_c, 1, 68, 127
2, 475040, Note_off_c, 1, 68, 0
2, 475080, Note_on_c, 1, 69, 127
2, 475120, Note_off_c, 1, 69, 0
2, 475200, Note_on_c, 1, 68, 127
2, 475240, Note_off_c, 1, 68, 0
2, 475280, Note_on_c, 1, 69, 127
2, 475320, Note_off_c, 1, 69, 0
2, 475360, Note_on_c, 1, 71, 127
2, 475440, Note_off_c, 1, 62, 0
2, 475440, Note_off_c, 1, 71, 0
2, 475480, Note_on_c, 1, 72, 127
2, 475520, Note_off_c, 1, 72, 0
2, 475560, Note_on_c, 1, 71, 127
2, 475600, Note_off_c, 1, 57, 0
2, 475600, Note_off_c, 1, 71, 0
2, 475680, Note_on_c, 1, 52, 127
2, 475680, Note_on_c, 1, 69, 127
2, 475720, Note_off_c, 1, 69, 0
2, 475760, Note_on_c, 1, 68, 127
2, 475800, Note_off_c, 1, 33, 0
2, 475800, Note_off_c, 1, 45, 0
2, 475800, Note_off_c, 1, 52, 0
2, 475800, Note_off_c, 1, 68, 0
2, 475840, Note_on_c, 1, 33, 127
2, 475840, Note_on_c, 1, 45, 127
2, 475840, Note_on_c, 1, 52, 127
2, 475840, Note_on_c, 1, 57, 127
2, 475840, Note_on_c, 1, 64, 127
2, 475920, Note_off_c, 1, 64, 0
2, 475960, Note_on_c, 1, 69, 127
2, 476000, Note_off_c, 1, 52, 0
2, 476000, Note_off_c, 1, 57, 0
2, 476000, Note_off_c, 1, 69, 0
2, 476040, Note_on_c, 1, 56, 127
2, 476040, Note_on_c, 1, 59, 127
2, 476040, Note_on_c, 1, 61, 127
2, 476080, Note_off_c, 1, 61, 0
2, 476160, Note_on_c, 1, 71, 127
2, 476200, Note_off_c, 1, 56, 0
2, 476200, Note_off_c, 1, 59, 0
2, 476200, Note_off_c, 1, 71, 0
2, 476240, Note_on_c, 1, 56, 127
2, 476240, Note_on_c, 1, 60, 127
2, 476240, Note_on_c, 1, 69, 127
2, 476280, Note_off_c, 1, 56, 0
2, 476280, Note_on_c, 1, 57, 127
2, 476280, Note_off_c, 1, 60, 0
2, 476280, Note_off_c, 1, 69, 0
2, 476320, Note_on_c, 1, 62, 127
2, 476320, Note_on_c, 1, 71, 127
2, 476400, Note_off_c, 1, 57, 0
2, 476400, Note_off_c, 1, 62, 0
2, 476400, Note_off_c, 1, 71, 0
2, 476440, Note_on_c, 1, 57, 127
2, 476440, Note_on_c, 1, 62, 127
2, 476440, Note_on_c, 1, 73, 127
2, 476480, Note_off_c, 1, 62, 0
2, 476480, Note_off_c, 1, 73, 0
2, 476520, Note_on_c, 1, 74, 127
2, 476560, Note_off_c, 1, 33, 0
2, 476560, Note_off_c, 1, 45, 0
2, 476560, Note_off_c, 1, 57, 0
2, 476560, Note_off_c, 1, 74, 0
2, 476640, Note_on_c, 1, 57, 127
2, 476640, Note_on_c, 1, 62, 127
2, 476640, Note_on_c, 1, 74, 127
2, 476680, Note_off_c, 1, 74, 0
2, 476720, Note_on_c, 1, 76, 127
2, 476760, Note_off_c, 1, 57, 0
2, 476760, Note_off_c, 1, 62, 0
2, 476760, Note_off_c, 1, 76, 0
2, 476800, Note_on_c, 1, 74, 127
2, 476880, Note_off_c, 1, 74, 0
2, 476920, Note_on_c, 1, 74, 127
2, 476960, Note_off_c, 1, 74, 0
2, 477000, Note_on_c, 1, 45, 127
2, 477000, Note_on_c, 1, 57, 127
2, 477000, Note_on_c, 1, 69, 127
2, 477040, Note_off_c, 1, 69, 0
2, 477120, Note_on_c, 1, 68, 127
2, 477160, Note_off_c, 1, 68, 0
2, 477200, Note_on_c, 1, 69, 127
2, 477240, Note_off_c, 1, 69, 0
2, 477280, Note_on_c, 1, 64, 127
2, 477360, Note_off_c, 1, 45, 0
2, 477360, Note_off_c, 1, 57, 0
2, 477360, Note_off_c, 1, 64, 0
2, 477400, Note_on_c, 1, 45, 127
2, 477400, Note_on_c, 1, 57, 127
2, 477400, Note_on_c, 1, 64, 127
2, 477440, Note_off_c, 1, 64, 0
2, 477480, Note_on_c, 1, 62, 127
2, 477520, Note_off_c, 1, 62, 0
2, 477600, Note_on_c, 1, 64, 127
2, 477640, Note_off_c, 1, 64, 0
2, 477680, Note_on_c, 1, 69, 127
2, 477720, Note_off_c, 1, 45, 0
2, 477720, Note_off_c, 1, 57, 0
2, 477720, Note_off_c, 1, 69, 0
2, 477760, Note_on_c, 1, 73, 127
2, 477840, Note_off_c, 1, 73, 0
2, 477880, Note_on_c, 1, 69, 127
2, 477920, Note_off_c, 1, 69, 0
2, 477960, Note_on_c, 1, 71, 127
2, 478000, Note_off_c, 1, 71, 0
2, 478080, Note_on_c, 1, 69, 127
2, 478120, Note_off_c, 1, 69, 0
2, 478160, Note_on_c, 1, 35, 127
2, 478160, Note_on_c, 1, 47, 127
2, 478160, Note_on_c, 1, 69, 127
2, 478200, Note_off_c, 1, 69, 0
2, 478240, Note_on_c, 1, 68, 127
2, 478320, Note_off_c, 1, 68, 0
2, 478360, Note_on_c, 1, 66, 127
2, 478400, Note_off_c, 1, 66, 0
2, 478440, Note_on_c, 1, 69, 127
2, 478480, Note_off_c, 1, 35, 0
2, 478480, Note_off_c, 1, 47, 0
2, 478480, Note_off_c, 1, 69, 0
2, 478560, Note_on_c, 1, 37, 127
2, 478560, Note_on_c, 1, 49, 127
2, 478560, Note_on_c, 1, 69, 127
2, 478600, Note_off_c, 1, 69, 0
2, 478640, Note_on_c, 1, 68, 127
2, 478680, Note_off_c, 1, 68, 0
2, 478720, Note_on_c, 1, 66, 127
2, 478800, Note_off_c, 1, 66, 0
2, 478840, Note_on_c, 1, 68, 127
2, 478880, Note_off_c, 1, 37, 0
2, 478880, Note_off_c, 1, 49, 0
2, 478880, Note_off_c, 1, 68, 0
2, 478920, Note_on_c, 1, 33, 127
2, 478920, Note_on_c, 1, 45, 127
2, 478920, Note_on_c, 1, 73, 127
2, 478960, Note_off_c, 1, 73, 0
2, 479040, Note_on_c, 1, 69, 127
2, 479080, Note_off_c, 1, 69, 0
2, 479120, Note_on_c, 1, 74, 127
2, 479160, Note_off_c, 1, 74, 0
2, 479200, Note_on_c, 1, 73, 127
2, 479280, Note_off_c, 1, 33, 0
2, 479280, Note_off_c, 1, 45, 0
2, 479280, Note_off_c, 1, 73, 0
2, 479320, Note_on_c, 1, 33, 127
2, 479320, Note_on_c, 1, 45, 127
2, 479320, Note_on_c, 1, 64, 127
2, 479360, Note_off_c, 1, 64, 0
2, 479400, Note_on_c, 1, 73, 127
2, 479440, Note_off_c, 1, 73, 0
2, 479520, Note_on_c, 1, 76, 127
2, 479560, Note_off_c, 1, 76, 0
2, 479600, Note_on_c, 1, 64, 127
2, 479640, Note_off_c, 1, 64, 0
2, 479680, Note_on_c, 1, 73, 127
2, 479760, Note_off_c, 1, 73, 0
2, 479800, Note_on_c, 1, 61, 127
2, 479840, Note_off_c, 1, 61, 0
2, 479880, Note_on_c, 1, 73, 127
2, 479920, Note_off_c, 1, 73, 0
2, 480000, Note_on_c, 1, 69, 127
2, 480040, Note_off_c, 1, 69, 0
2, 480080, Note_on_c, 1, 69, 127
2, 480120, Note_off_c, 1, 69, 0
2, 480160, Note_on_c, 1, 73, 127
2, 480240, Note_off_c, 1, 73, 0
2, 480280, Note_on_c, 1, 75, 127
2, 480320, Note_off_c, 1, 75, 0
2, 480360, Note_on_c, 1, 76, 127
2, 480400, Note_off_c, 1, 33, 0
2, 480400, Note_off_c, 1, 45, 0
2, 480400, Note_off_c, 1, 76, 0
2, 480480, Note_on_c, 1, 49, 127
2, 480480, Note_on_c, 1, 57, 127
2, 480480, Note_on_c, 1, 78, 127
2, 480520, Note_off_c, 1, 78, 0
2, 480560, Note_on_c, 1, 76, 127
2, 480600, Note_off_c, 1, 76, 0
2, 480640, Note_on_c, 1, 78, 127
2, 480720, Note_off_c, 1, 78, 0
2, 480760, Note_on_c, 1, 76, 127
2, 480800, Note_off_c, 1, 49, 0
2, 480800, Note_off_c, 1, 57, 0
2, 480800, Note_off_c, 1, 76, 0
2, 480840, Note_on_c, 1, 44, 127
2, 480840, Note_on_c, 1, 56, 127
2, 480840, Note_on_c, 1, 74, 127
2, 480880, Note_off_c, 1, 74, 0
2, 480960, Note_on_c, 1, 76, 127
2, 481000, Note_off_c, 1, 76, 0
2, 481040, Note_on_c, 1, 80, 127
2, 481080, Note_off_c, 1, 80, 0
2, 481120, Note_on_c, 1, 76, 127
2, 481200, Note_off_c, 1, 44, 0
2, 481200, Note_off_c, 1, 56, 0
2, 481200, Note_off_c, 1, 76, 0
2, 481240, Note_on_c, 1, 42, 127
2, 481240, Note_on_c, 1, 54, 127
2, 481240, Note_on_c, 1, 81, 127
2, 481280, Note_off_c, 1, 81, 0
2, 481320, Note_on_c, 1, 80, 127
2, 481360, Note_off_c, 1, 80, 0
2, 481440, Note_on_c, 1, 78, 127
2, 481480, Note_off_c, 1, 78, 0
2, 481520, Note_on_c, 1, 81, 127
2, 481560, Note_off_c, 1, 42, 0
2, 481560, Note_off_c, 1, 54, 0
2, 481560, Note_off_c, 1, 81, 0
2, 481600, Note_on_c, 1, 37, 127
2, 481600, Note_on_c, 1, 49, 127
2, 481600, Note_on_c, 1, 73, 127
2, 481680, Note_off_c, 1, 73, 0
2, 481720, Note_on_c, 1, 81, 127
2, 481760, Note_off_c, 1, 81, 0
2, 481800, Note_on_c, 1, 81, 127
2, 481840, Note_off_c, 1, 81, 0
2, 481920, Note_on_c, 1, 85, 127
2, 481960, Note_off_c, 1, 37, 0
2, 481960, Note_off_c, 1, 49, 0
2, 481960, Note_off_c, 1, 85, 0
2, 482000, Note_on_c, 1, 38, 127
2, 482000, Note_on_c, 1, 50, 127
2, 482000, Note_on_c, 1, 66, 127
2, 482000, Note_on_c, 1, 71, 127
2, 482000, Note_on_c, 1, 74, 127
2, 482320, Note_off_c, 1, 38, 0
2, 482320, Note_off_c, 1, 50, 0
2, 482320, Note_off_c, 1, 66, 0
2, 482320, Note_off_c, 1, 71, 0
2, 482320, Note_off_c, 1, 74, 0
2, 482400, Note_on_c, 1, 39, 127
2, 482400, Note_on_c, 1, 51, 127
2, 482400, Note_on_c, 1, 70, 127
2, 482400, Note_on_c, 1, 73, 127
2, 482400, Note_on_c, 1, 82, 127
2, 482720, Note_off_c, 1, 70, 0
2, 482720, Note_off_c, 1, 73, 0
2, 482720, Note_off_c, 1, 82, 0
2, 482760, Note_on_c, 1, 55, 127
2, 482760, Note_on_c, 1, 58, 127
2, 482760, Note_on_c, 1, 63, 127
2, 483280, Note_off_c, 1, 39, 0
2, 483280, Note_on_c, 1, 43, 127
2, 483320, Note_on_c, 1, 39, 127
2, 483320, Note_off_c, 1, 43, 0
2, 483480, Note_off_c, 1, 39, 0
2, 483480, Note_off_c, 1, 51, 0
2, 483480, Note_off_c, 1, 55, 0
2, 483480, Note_off_c, 1, 58, 0
2, 483480, Note_off_c, 1, 63, 0
2, 483920, Note_on_c, 1, 82, 127
2, 484080, Note_off_c, 1, 82, 0
2, 484120, Note_on_c, 1, 81, 127
2, 484240, Note_off_c, 1, 81, 0
2, 484320, Note_on_c, 1, 82, 127
2, 484440, Note_off_c, 1, 82, 0
2, 484480, Note_on_c, 1, 84, 127
2, 484640, Note_off_c, 1, 84, 0
2, 484680, Note_on_c, 1, 85, 127
2, 484840, Note_off_c, 1, 85, 0
2, 484880, Note_on_c, 1, 84, 127
2, 485040, Note_off_c, 1, 84, 0
2, 485080, Note_on_c, 1, 70, 127
2, 485080, Note_on_c, 1, 79, 127
2, 485080, Note_on_c, 1, 82, 127
2, 485200, Note_off_c, 1, 82, 0
2, 485280, Note_on_c, 1, 81, 127
2, 485400, Note_on_c, 1, 78, 127
2, 485400, Note_off_c, 1, 79, 0
2, 485400, Note_off_c, 1, 81, 0
2, 485440, Note_off_c, 1, 78, 0
2, 485440, Note_on_c, 1, 79, 127
2, 485480, Note_on_c, 1, 82, 127
2, 485600, Note_on_c, 1, 78, 127
2, 485600, Note_off_c, 1, 79, 0
2, 485600, Note_off_c, 1, 82, 0
2, 486120, Note_on_c, 1, 82, 127
2, 486160, Note_off_c, 1, 82, 0
2, 486240, Note_on_c, 1, 90, 127
2, 486280, Note_off_c, 1, 90, 0
2, 486400, Note_on_c, 1, 87, 127
2, 486440, Note_off_c, 1, 87, 0
2, 486520, Note_on_c, 1, 87, 127
2, 486560, Note_off_c, 1, 70, 0
2, 486560, Note_off_c, 1, 78, 0
2, 486560, Note_off_c, 1, 87, 0
2, 486600, Note_on_c, 1, 70, 127
2, 486600, Note_on_c, 1, 87, 127
2, 486760, Note_off_c, 1, 70, 0
2, 486800, Note_on_c, 1, 71, 127
2, 486960, Note_off_c, 1, 71, 0
2, 487000, Note_on_c, 1, 67, 127
2, 487120, Note_off_c, 1, 67, 0
2, 487200, Note_on_c, 1, 67, 127
2, 487320, Note_off_c, 1, 67, 0
2, 487320, Note_off_c, 1, 87, 0
2, 487360, Note_on_c, 1, 70, 127
2, 487360, Note_on_c, 1, 81, 127
2, 487520, Note_off_c, 1, 81, 0
2, 487560, Note_on_c, 1, 82, 127
2, 487720, Note_off_c, 1, 70, 0
2, 487720, Note_off_c, 1, 82, 0
2, 487760, Note_on_c, 1, 63, 127
2, 487760, Note_on_c, 1, 78, 127
2, 487920, Note_off_c, 1, 63, 0
2, 487920, Note_off_c, 1, 78, 0
2, 487960, Note_on_c, 1, 70, 127
2, 487960, Note_on_c, 1, 82, 127
2, 488080, Note_off_c, 1, 70, 0
2, 488080, Note_off_c, 1, 82, 0
2, 488160, Note_on_c, 1, 66, 127
2, 488160, Note_on_c, 1, 85, 127
2, 488280, Note_off_c, 1, 66, 0
2, 488280, Note_off_c, 1, 85, 0
2, 488320, Note_on_c, 1, 70, 127
2, 488320, Note_on_c, 1, 82, 127
2, 488480, Note_off_c, 1, 70, 0
2, 488480, Note_off_c, 1, 82, 0
2, 488520, Note_on_c, 1, 66, 127
2, 488520, Note_on_c, 1, 75, 127
2, 488680, Note_off_c, 1, 66, 0
2, 488680, Note_off_c, 1, 75, 0
2, 488720, Note_on_c, 1, 70, 127
2, 488720, Note_on_c, 1, 73, 127
2, 488880, Note_off_c, 1, 70, 0
2, 488880, Note_off_c, 1, 73, 0
2, 488920, Note_on_c, 1, 61, 127
2, 488920, Note_on_c, 1, 71, 127
2, 489040, Note_off_c, 1, 61, 0
2, 489040, Note_off_c, 1, 71, 0
2, 489120, Note_on_c, 1, 70, 127
2, 489120, Note_on_c, 1, 73, 127
2, 489160, Note_off_c, 1, 73, 0
2, 489240, Note_off_c, 1, 70, 0
2, 489280, Note_on_c, 1, 68, 127
2, 489280, Note_on_c, 1, 77, 127
2, 489440, Note_off_c, 1, 68, 0
2, 489480, Note_on_c, 1, 71, 127
2, 489640, Note_off_c, 1, 71, 0
2, 489640, Note_off_c, 1, 77, 0
2, 489680, Note_on_c, 1, 66, 127
2, 489680, Note_on_c, 1, 70, 127
2, 489680, Note_on_c, 1, 78, 127
2, 489840, Note_off_c, 1, 66, 0
2, 489840, Note_off_c, 1, 78, 0
2, 489880, Note_on_c, 1, 61, 127
2, 489880, Note_on_c, 1, 77, 127
2, 490000, Note_off_c, 1, 61, 0
2, 490000, Note_off_c, 1, 70, 0
2, 490000, Note_off_c, 1, 77, 0
2, 490080, Note_on_c, 1, 66, 127
2, 490080, Note_on_c, 1, 75, 127
2, 490080, Note_on_c, 1, 87, 127
2, 490200, Note_off_c, 1, 66, 0
2, 490200, Note_off_c, 1, 75, 0
2, 490200, Note_off_c, 1, 87, 0
2, 490240, Note_on_c, 1, 65, 127
2, 490240, Note_on_c, 1, 77, 127
2, 490240, Note_on_c, 1, 89, 127
2, 490400, Note_off_c, 1, 65, 0
2, 490400, Note_off_c, 1, 77, 0
2, 490400, Note_off_c, 1, 89, 0
2, 490440, Note_on_c, 1, 61, 127
2, 490440, Note_on_c, 1, 65, 127
2, 490440, Note_on_c, 1, 77, 127
2, 490440, Note_on_c, 1, 89, 127
2, 490800, Note_off_c, 1, 65, 0
2, 490800, Note_off_c, 1, 77, 0
2, 490800, Note_off_c, 1, 89, 0
2, 490840, Note_on_c, 1, 64, 127
2, 490840, Note_on_c, 1, 88, 127
2, 491160, Note_off_c, 1, 61, 0
2, 491160, Note_off_c, 1, 64, 0
2, 491160, Note_off_c, 1, 88, 0
2, 491200, Note_on_c, 1, 53, 127
2, 491200, Note_on_c, 1, 81, 127
2, 491200, Note_on_c, 1, 85, 127
2, 491320, Note_off_c, 1, 85, 0
2, 491400, Note_on_c, 1, 85, 127
2, 491480, Note_off_c, 1, 85, 0
2, 491560, Note_off_c, 1, 53, 0
2, 491560, Note_off_c, 1, 81, 0
2, 491560, Note_on_c, 1, 82, 127
2, 491600, Note_on_c, 1, 53, 127
2, 491600, Note_on_c, 1, 84, 127
2, 491640, Note_off_c, 1, 84, 0
2, 491680, Note_on_c, 1, 81, 127
2, 491680, Note_off_c, 1, 82, 0
2, 491760, Note_off_c, 1, 81, 0
2, 491800, Note_on_c, 1, 82, 127
2, 491800, Note_on_c, 1, 84, 127
2, 491840, Note_off_c, 1, 82, 0
2, 491840, Note_off_c, 1, 84, 0
2, 491880, Note_on_c, 1, 81, 127
2, 491920, Note_off_c, 1, 53, 0
2, 491920, Note_off_c, 1, 81, 0
2, 492000, Note_on_c, 1, 52, 127
2, 492000, Note_on_c, 1, 82, 127
2, 492000, Note_on_c, 1, 85, 127
2, 492320, Note_off_c, 1, 52, 0
2, 492360, Note_on_c, 1, 55, 127
2, 492520, Note_off_c, 1, 55, 0
2, 492560, Note_on_c, 1, 56, 127
2, 492720, Note_off_c, 1, 56, 0
2, 492760, Note_on_c, 1, 58, 127
2, 492920, Note_off_c, 1, 58, 0
2, 492960, Note_on_c, 1, 61, 127
2, 493080, Note_off_c, 1, 61, 0
2, 493160, Note_on_c, 1, 63, 127
2, 493200, Note_off_c, 1, 63, 0
2, 493240, Note_on_c, 1, 66, 127
2, 493280, Note_off_c, 1, 66, 0
2, 493320, Note_on_c, 1, 64, 127
2, 493360, Note_off_c, 1, 64, 0
2, 493440, Note_on_c, 1, 63, 127
2, 493480, Note_off_c, 1, 63, 0
2, 493480, Note_off_c, 1, 82, 0
2, 493480, Note_off_c, 1, 85, 0
2, 493520, Note_on_c, 1, 48, 127
2, 493520, Note_on_c, 1, 53, 127
2, 493520, Note_on_c, 1, 55, 127
2, 493520, Note_on_c, 1, 58, 127
2, 493520, Note_on_c, 1, 79, 127
2, 493520, Note_on_c, 1, 82, 127
2, 493520, Note_on_c, 1, 88, 127
2, 493680, Note_off_c, 1, 82, 0
2, 493680, Note_on_c, 1, 84, 127
2, 493680, Note_off_c, 1, 88, 0
2, 493720, Note_on_c, 1, 88, 127
2, 493760, Note_off_c, 1, 79, 0
2, 493920, Note_off_c, 1, 84, 0
2, 493920, Note_on_c, 1, 85, 127
2, 493960, Note_off_c, 1, 85, 0
2, 494000, Note_on_c, 1, 84, 127
2, 494040, Note_off_c, 1, 55, 0
2, 494040, Note_off_c, 1, 88, 0
2, 494080, Note_on_c, 1, 88, 127
2, 494120, Note_off_c, 1, 88, 0
2, 494120, Note_on_c, 1, 89, 127
2, 494160, Note_on_c, 1, 88, 127
2, 494160, Note_off_c, 1, 89, 0
2, 494240, Note_on_c, 1, 43, 127
2, 494280, Note_off_c, 1, 43, 0
2, 494280, Note_off_c, 1, 84, 0
2, 494320, Note_on_c, 1, 84, 127
2, 494520, Note_off_c, 1, 53, 0
2, 494520, Note_off_c, 1, 58, 0
2, 494520, Note_off_c, 1, 84, 0
2, 494560, Note_off_c, 1, 88, 0
2, 494600, Note_on_c, 1, 61, 127
2, 494600, Note_on_c, 1, 70, 127
2, 494600, Note_on_c, 1, 76, 127
2, 494600, Note_on_c, 1, 88, 127
2, 494760, Note_off_c, 1, 70, 0
2, 494760, Note_off_c, 1, 76, 0
2, 494760, Note_off_c, 1, 88, 0
2, 494920, Note_off_c, 1, 48, 0
2, 494920, Note_off_c, 1, 61, 0
2, 495000, Note_on_c, 1, 48, 127
2, 495000, Note_on_c, 1, 60, 127
2, 495000, Note_on_c, 1, 70, 127
2, 495000, Note_on_c, 1, 79, 127
2, 495000, Note_on_c, 1, 84, 127
2, 495000, Note_on_c, 1, 88, 127
2, 495000, Note_on_c, 1, 91, 127
2, 495280, Note_on_c, 1, 67, 127
2, 495320, Note_off_c, 1, 67, 0
2, 495320, Note_off_c, 1, 70, 0
2, 495320, Note_off_c, 1, 79, 0
2, 495320, Note_off_c, 1, 84, 0
2, 495320, Note_off_c, 1, 88, 0
2, 495320, Note_off_c, 1, 91, 0
2, 495360, Note_on_c, 1, 70, 127
2, 495360, Note_on_c, 1, 76, 127
2, 495360, Note_on_c, 1, 79, 127
2, 495360, Note_on_c, 1, 88, 127
2, 495360, Note_on_c, 1, 91, 127
2, 495400, Note_off_c, 1, 70, 0
2, 495400, Note_on_c, 1, 72, 127
2, 495440, Note_on_c, 1, 70, 127
2, 495440, Note_off_c, 1, 72, 0
2, 495440, Note_off_c, 1, 91, 0
2, 495520, Note_off_c, 1, 70, 0
2, 495560, Note_on_c, 1, 68, 127
2, 495560, Note_on_c, 1, 84, 127
2, 495600, Note_off_c, 1, 68, 0
2, 495600, Note_on_c, 1, 72, 127
2, 495680, Note_off_c, 1, 72, 0
2, 495680, Note_off_c, 1, 76, 0
2, 495680, Note_off_c, 1, 79, 0
2, 495680, Note_off_c, 1, 84, 0
2, 495680, Note_off_c, 1, 88, 0
2, 495840, Note_on_c, 1, 81, 127
2, 495880, Note_off_c, 1, 81, 0
2, 495960, Note_on_c, 1, 80, 127
2, 496000, Note_off_c, 1, 80, 0
2, 496040, Note_on_c, 1, 79, 127
2, 496080, Note_off_c, 1, 79, 0
2, 496120, Note_on_c, 1, 77, 127
2, 496120, Note_on_c, 1, 82, 127
2, 496200, Note_off_c, 1, 77, 0
2, 496200, Note_off_c, 1, 82, 0
2, 496240, Note_on_c, 1, 76, 127
2, 496280, Note_off_c, 1, 76, 0
2, 496320, Note_on_c, 1, 76, 127
2, 496320, Note_on_c, 1, 82, 127
2, 496320, Note_on_c, 1, 84, 127
2, 496360, Note_off_c, 1, 84, 0
2, 496480, Note_off_c, 1, 76, 0
2, 496480, Note_off_c, 1, 82, 0
2, 496520, Note_on_c, 1, 79, 127
2, 496520, Note_on_c, 1, 82, 127
2, 496560, Note_off_c, 1, 79, 0
2, 496560, Note_off_c, 1, 82, 0
2, 496600, Note_on_c, 1, 79, 127
2, 496680, Note_off_c, 1, 48, 0
2, 496680, Note_off_c, 1, 60, 0
2, 496680, Note_off_c, 1, 79, 0
2, 496720, Note_on_c, 1, 49, 127
2, 496720, Note_on_c, 1, 60, 127
2, 496720, Note_on_c, 1, 69, 127
2, 496720, Note_on_c, 1, 73, 127
2, 496720, Note_on_c, 1, 77, 127
2, 496760, Note_off_c, 1, 77, 0
2, 496840, Note_off_c, 1, 69, 0
2, 496840, Note_off_c, 1, 73, 0
2, 496920, Note_on_c, 1, 68, 127
2, 496920, Note_on_c, 1, 72, 127
2, 496920, Note_on_c, 1, 77, 127
2, 496960, Note_off_c, 1, 68, 0
2, 497000, Note_on_c, 1, 65, 127
2, 497040, Note_off_c, 1, 49, 0
2, 497040, Note_off_c, 1, 60, 0
2, 497040, Note_off_c, 1, 65, 0
2, 497040, Note_off_c, 1, 72, 0
2, 497040, Note_off_c, 1, 77, 0
2, 497080, Note_on_c, 1, 44, 127
2, 497080, Note_on_c, 1, 56, 127
2, 497080, Note_on_c, 1, 68, 127
2, 497080, Note_on_c, 1, 73, 127
2, 497080, Note_on_c, 1, 76, 127
2, 497440, Note_off_c, 1, 68, 0
2, 497440, Note_off_c, 1, 73, 0
2, 497440, Note_off_c, 1, 76, 0
2, 497480, Note_on_c, 1, 61, 127
2, 497640, Note_off_c, 1, 61, 0
2, 497680, Note_on_c, 1, 60, 127
2, 497800, Note_off_c, 1, 56, 0
2, 497800, Note_off_c, 1, 60, 0
2, 497880, Note_on_c, 1, 56, 127
2, 497880, Note_on_c, 1, 61, 127
2, 498000, Note_off_c, 1, 56, 0
2, 498040, Note_on_c, 1, 53, 127
2, 498200, Note_off_c, 1, 53, 0
2, 498200, Note_off_c, 1, 61, 0
2, 498240, Note_on_c, 1, 48, 127
2, 498240, Note_on_c, 1, 56, 127
2, 498240, Note_on_c, 1, 68, 127
2, 498240, Note_on_c, 1, 72, 127
2, 498240, Note_on_c, 1, 78, 127
2, 498320, Note_off_c, 1, 48, 0
2, 498360, Note_on_c, 1, 51, 127
2, 498400, Note_off_c, 1, 51, 0
2, 498400, Note_off_c, 1, 72, 0
2, 498400, Note_off_c, 1, 78, 0
2, 498440, Note_on_c, 1, 53, 127
2, 498440, Note_on_c, 1, 70, 127
2, 498440, Note_on_c, 1, 77, 127
2, 498480, Note_off_c, 1, 53, 0
2, 498480, Note_off_c, 1, 70, 0
2, 498480, Note_on_c, 1, 75, 127
2, 498520, Note_off_c, 1, 77, 0
2, 498520, Note_on_c, 1, 78, 127
2, 498560, Note_off_c, 1, 78, 0
2, 498640, Note_on_c, 1, 78, 127
2, 498640, Note_on_c, 1, 82, 127
2, 498680, Note_off_c, 1, 82, 0
2, 498720, Note_on_c, 1, 72, 127
2, 498760, Note_off_c, 1, 72, 0
2, 498760, Note_off_c, 1, 78, 0
2, 498840, Note_on_c, 1, 73, 127
2, 498840, Note_on_c, 1, 77, 127
2, 498880, Note_off_c, 1, 73, 0
2, 498880, Note_off_c, 1, 77, 0
2, 498920, Note_on_c, 1, 72, 127
2, 498960, Note_off_c, 1, 72, 0
2, 499000, Note_on_c, 1, 71, 127
2, 499000, Note_on_c, 1, 77, 127
2, 499040, Note_off_c, 1, 71, 0
2, 499080, Note_off_c, 1, 77, 0
2, 499120, Note_on_c, 1, 73, 127
2, 499120, Note_on_c, 1, 78, 127
2, 499160, Note_off_c, 1, 56, 0
2, 499160, Note_off_c, 1, 73, 0
2, 499160, Note_off_c, 1, 78, 0
2, 499200, Note_on_c, 1, 60, 127
2, 499200, Note_on_c, 1, 72, 127
2, 499240, Note_off_c, 1, 72, 0
2, 499360, Note_off_c, 1, 44, 0
2, 499360, Note_off_c, 1, 60, 0
2, 499360, Note_off_c, 1, 68, 0
2, 499360, Note_off_c, 1, 75, 0
2, 499400, Note_on_c, 1, 60, 127
2, 499400, Note_on_c, 1, 75, 127
2, 499600, Note_on_c, 1, 54, 127
2, 499720, Note_off_c, 1, 54, 0
2, 499720, Note_off_c, 1, 60, 0
2, 499720, Note_off_c, 1, 75, 0
2, 499800, Note_on_c, 1, 57, 127
2, 499800, Note_on_c, 1, 69, 127
2, 499920, Note_off_c, 1, 57, 0
2, 499960, Note_on_c, 1, 54, 127
2, 500120, Note_off_c, 1, 54, 0
2, 500120, Note_off_c, 1, 69, 0
2, 500160, Note_on_c, 1, 53, 127
2, 500160, Note_on_c, 1, 70, 127
2, 500320, Note_off_c, 1, 53, 0
2, 500360, Note_on_c, 1, 51, 127
2, 500480, Note_off_c, 1, 51, 0
2, 500520, Note_off_c, 1, 70, 0
2, 500560, Note_on_c, 1, 47, 127
2, 500560, Note_on_c, 1, 56, 127
2, 500560, Note_on_c, 1, 75, 127
2, 500560, Note_on_c, 1, 80, 127
2, 500680, Note_off_c, 1, 75, 0
2, 500760, Note_on_c, 1, 71, 127
2, 500880, Note_off_c, 1, 71, 0
2, 500920, Note_on_c, 1, 74, 127
2, 501080, Note_off_c, 1, 74, 0
2, 501120, Note_off_c, 1, 47, 0
2, 501120, Note_on_c, 1, 71, 127
2, 501280, Note_off_c, 1, 71, 0
2, 501280, Note_off_c, 1, 80, 0
2, 501320, Note_on_c, 1, 49, 127
2, 501320, Note_on_c, 1, 68, 127
2, 501320, Note_on_c, 1, 77, 127
2, 501320, Note_on_c, 1, 80, 127
2, 501480, Note_off_c, 1, 68, 0
2, 501520, Note_on_c, 1, 71, 127
2, 501640, Note_off_c, 1, 49, 0
2, 501640, Note_off_c, 1, 56, 0
2, 501640, Note_off_c, 1, 71, 0
2, 501640, Note_off_c, 1, 77, 0
2, 501720, Note_on_c, 1, 47, 127
2, 501720, Note_on_c, 1, 75, 127
2, 501760, Note_off_c, 1, 75, 0
2, 501800, Note_on_c, 1, 75, 127
2, 501840, Note_off_c, 1, 47, 0
2, 501840, Note_off_c, 1, 75, 0
2, 501880, Note_on_c, 1, 49, 127
2, 501880, Note_on_c, 1, 77, 127
2, 502040, Note_off_c, 1, 49, 0
2, 502040, Note_off_c, 1, 77, 0
2, 502080, Note_on_c, 1, 48, 127
2, 502080, Note_on_c, 1, 72, 127
2, 502120, Note_off_c, 1, 72, 0
2, 502200, Note_on_c, 1, 75, 127
2, 502240, Note_off_c, 1, 75, 0
2, 502280, Note_on_c, 1, 73, 127
2, 502320, Note_off_c, 1, 73, 0
2, 502360, Note_on_c, 1, 44, 127
2, 502360, Note_off_c, 1, 48, 0
2, 502360, Note_on_c, 1, 75, 127
2, 502400, Note_off_c, 1, 44, 0
2, 502440, Note_off_c, 1, 75, 0
2, 502440, Note_off_c, 1, 80, 0
2, 502480, Note_on_c, 1, 37, 127
2, 502480, Note_on_c, 1, 44, 127
2, 502480, Note_on_c, 1, 73, 127
2, 502600, Note_off_c, 1, 37, 0
2, 502600, Note_off_c, 1, 44, 0
2, 502600, Note_off_c, 1, 73, 0
2, 502680, Note_on_c, 1, 42, 127
2, 502680, Note_on_c, 1, 54, 127
2, 502680, Note_on_c, 1, 70, 127
2, 502680, Note_on_c, 1, 78, 127
2, 502720, Note_on_c, 1, 80, 127
2, 502800, Note_off_c, 1, 42, 0
2, 502800, Note_off_c, 1, 54, 0
2, 502800, Note_off_c, 1, 70, 0
2, 502800, Note_off_c, 1, 78, 0
2, 502800, Note_off_c, 1, 80, 0
2, 502800, Note_on_c, 1, 82, 127
2, 502840, Note_on_c, 1, 39, 127
2, 502840, Note_on_c, 1, 51, 127
2, 502840, Note_on_c, 1, 70, 127
2, 502840, Note_on_c, 1, 78, 127
2, 502840, Note_on_c, 1, 80, 127
2, 502880, Note_off_c, 1, 82, 0
2, 503000, Note_off_c, 1, 39, 0
2, 503000, Note_off_c, 1, 51, 0
2, 503000, Note_off_c, 1, 70, 0
2, 503000, Note_off_c, 1, 78, 0
2, 503000, Note_off_c, 1, 80, 0
2, 503040, Note_on_c, 1, 38, 127
2, 503040, Note_on_c, 1, 50, 127
2, 503040, Note_on_c, 1, 72, 127
2, 503040, Note_on_c, 1, 78, 127
2, 503040, Note_on_c, 1, 81, 127
2, 503200, Note_off_c, 1, 38, 0
2, 503200, Note_off_c, 1, 50, 0
2, 503240, Note_on_c, 1, 38, 127
2, 503240, Note_on_c, 1, 50, 127
2, 503400, Note_off_c, 1, 38, 0
2, 503400, Note_off_c, 1, 50, 0
2, 503400, Note_off_c, 1, 72, 0
2, 503400, Note_off_c, 1, 78, 0
2, 503400, Note_off_c, 1, 81, 0
2, 503440, Note_on_c, 1, 35, 127
2, 503440, Note_on_c, 1, 47, 127
2, 503440, Note_on_c, 1, 68, 127
2, 503440, Note_on_c, 1, 75, 127
2, 503560, Note_off_c, 1, 35, 0
2, 503560, Note_off_c, 1, 47, 0
2, 503640, Note_on_c, 1, 35, 127
2, 503640, Note_on_c, 1, 47, 127
2, 503760, Note_off_c, 1, 35, 0
2, 503760, Note_off_c, 1, 47, 0
2, 503760, Note_off_c, 1, 68, 0
2, 503760, Note_off_c, 1, 75, 0
2, 503800, Note_on_c, 1, 38, 127
2, 503800, Note_on_c, 1, 50, 127
2, 503800, Note_on_c, 1, 54, 127
2, 503800, Note_on_c, 1, 65, 127
2, 503800, Note_on_c, 1, 70, 127
2, 503800, Note_on_c, 1, 74, 127
2, 503960, Note_off_c, 1, 38, 0
2, 503960, Note_off_c, 1, 50, 0
2, 503960, Note_off_c, 1, 54, 0
2, 504000, Note_on_c, 1, 38, 127
2, 504000, Note_on_c, 1, 50, 127
2, 504360, Note_off_c, 1, 38, 0
2, 504360, Note_off_c, 1, 50, 0
2, 504360, Note_off_c, 1, 65, 0
2, 504360, Note_off_c, 1, 70, 0
2, 504360, Note_off_c, 1, 74, 0
2, 504400, Note_on_c, 1, 34, 127
2, 504400, Note_on_c, 1, 38, 127
2, 504400, Note_on_c, 1, 46, 127
2, 504400, Note_on_c, 1, 68, 127
2, 504400, Note_on_c, 1, 70, 127
2, 504440, Note_on_c, 1, 41, 127
2, 504440, Note_on_c, 1, 65, 127
2, 504440, Note_off_c, 1, 70, 0
2, 504480, Note_on_c, 1, 31, 127
2, 504480, Note_off_c, 1, 34, 0
2, 504520, Note_off_c, 1, 31, 0
2, 504520, Note_off_c, 1, 38, 0
2, 504520, Note_off_c, 1, 41, 0
2, 504520, Note_off_c, 1, 46, 0
2, 504520, Note_on_c, 1, 62, 127
2, 504600, Note_on_c, 1, 34, 127
2, 504600, Note_on_c, 1, 46, 127
2, 504720, Note_off_c, 1, 34, 0
2, 504720, Note_off_c, 1, 46, 0
2, 504720, Note_off_c, 1, 62, 0
2, 504720, Note_off_c, 1, 65, 0
2, 504720, Note_off_c, 1, 68, 0
2, 504760, Note_on_c, 1, 34, 127
2, 504760, Note_on_c, 1, 46, 127
2, 504760, Note_on_c, 1, 62, 127
2, 504760, Note_on_c, 1, 65, 127
2, 504760, Note_on_c, 1, 68, 127
2, 505120, Note_off_c, 1, 34, 0
2, 505120, Note_off_c, 1, 46, 0
2, 505120, Note_off_c, 1, 62, 0
2, 505120, Note_off_c, 1, 65, 0
2, 505120, Note_off_c, 1, 68, 0
2, 505160, Note_on_c, 1, 53, 127
2, 505160, Note_on_c, 1, 77, 127
2, 505320, Note_off_c, 1, 77, 0
2, 505360, Note_on_c, 1, 74, 127
2, 505400, Note_off_c, 1, 74, 0
2, 505440, Note_on_c, 1, 73, 127
2, 505480, Note_off_c, 1, 53, 0
2, 505480, Note_off_c, 1, 73, 0
2, 505560, Note_on_c, 1, 74, 127
2, 505600, Note_off_c, 1, 74, 0
2, 505640, Note_on_c, 1, 77, 127
2, 505680, Note_off_c, 1, 77, 0
2, 505720, Note_on_c, 1, 76, 127
2, 505800, Note_off_c, 1, 76, 0
2, 505840, Note_on_c, 1, 74, 127
2, 505880, Note_off_c, 1, 74, 0
2, 505920, Note_on_c, 1, 53, 127
2, 505920, Note_on_c, 1, 62, 127
2, 505920, Note_on_c, 1, 68, 127
2, 505920, Note_on_c, 1, 71, 127
2, 505960, Note_off_c, 1, 71, 0
2, 506040, Note_on_c, 1, 71, 127
2, 506080, Note_off_c, 1, 71, 0
2, 506120, Note_on_c, 1, 73, 127
2, 506160, Note_off_c, 1, 73, 0
2, 506200, Note_on_c, 1, 74, 127
2, 506280, Note_off_c, 1, 62, 0
2, 506280, Note_off_c, 1, 68, 0
2, 506280, Note_off_c, 1, 74, 0
2, 506320, Note_on_c, 1, 62, 127
2, 506320, Note_on_c, 1, 68, 127
2, 506320, Note_on_c, 1, 71, 127
2, 506360, Note_off_c, 1, 71, 0
2, 506400, Note_on_c, 1, 79, 127
2, 506440, Note_off_c, 1, 62, 0
2, 506440, Note_off_c, 1, 68, 0
2, 506440, Note_off_c, 1, 79, 0
2, 506520, Note_on_c, 1, 62, 127
2, 506520, Note_on_c, 1, 68, 127
2, 506520, Note_on_c, 1, 70, 127
2, 506560, Note_off_c, 1, 70, 0
2, 506600, Note_on_c, 1, 82, 127
2, 506640, Note_off_c, 1, 53, 0
2, 506640, Note_off_c, 1, 62, 0
2, 506640, Note_off_c, 1, 68, 0
2, 506640, Note_off_c, 1, 82, 0
2, 506680, Note_on_c, 1, 39, 127
2, 506680, Note_on_c, 1, 51, 127
2, 506680, Note_on_c, 1, 63, 127
2, 506680, Note_on_c, 1, 67, 127
2, 506680, Note_on_c, 1, 79, 127
2, 506760, Note_off_c, 1, 79, 0
2, 506800, Note_on_c, 1, 75, 127
2, 506840, Note_off_c, 1, 51, 0
2, 506840, Note_off_c, 1, 63, 0
2, 506840, Note_off_c, 1, 75, 0
2, 506880, Note_on_c, 1, 62, 127
2, 506880, Note_on_c, 1, 77, 127
2, 506920, Note_off_c, 1, 77, 0
2, 507000, Note_on_c, 1, 75, 127
2, 507040, Note_off_c, 1, 39, 0
2, 507040, Note_off_c, 1, 62, 0
2, 507040, Note_off_c, 1, 67, 0
2, 507040, Note_off_c, 1, 75, 0
2, 507080, Note_on_c, 1, 39, 127
2, 507080, Note_on_c, 1, 63, 127
2, 507080, Note_on_c, 1, 67, 127
2, 507080, Note_on_c, 1, 79, 127
2, 507120, Note_off_c, 1, 79, 0
2, 507160, Note_on_c, 1, 77, 127
2, 507240, Note_off_c, 1, 63, 0
2, 507240, Note_off_c, 1, 67, 0
2, 507240, Note_off_c, 1, 77, 0
2, 507280, Note_on_c, 1, 63, 127
2, 507280, Note_on_c, 1, 75, 127
2, 507320, Note_off_c, 1, 75, 0
2, 507360, Note_on_c, 1, 79, 127
2, 507400, Note_off_c, 1, 39, 0
2, 507400, Note_off_c, 1, 63, 0
2, 507400, Note_off_c, 1, 79, 0
2, 507480, Note_on_c, 1, 48, 127
2, 507480, Note_on_c, 1, 68, 127
2, 507560, Note_on_c, 1, 80, 127
2, 507600, Note_off_c, 1, 80, 0
2, 507640, Note_on_c, 1, 79, 127
2, 507720, Note_off_c, 1, 79, 0
2, 507800, Note_off_c, 1, 48, 0
2, 507840, Note_on_c, 1, 36, 127
2, 507840, Note_on_c, 1, 56, 127
2, 507840, Note_on_c, 1, 60, 127
2, 507840, Note_on_c, 1, 75, 127
2, 507880, Note_off_c, 1, 75, 0
2, 507960, Note_on_c, 1, 80, 127
2, 508000, Note_off_c, 1, 36, 0
2, 508000, Note_off_c, 1, 60, 0
2, 508000, Note_off_c, 1, 80, 0
2, 508040, Note_on_c, 1, 63, 127
2, 508040, Note_on_c, 1, 75, 127
2, 508080, Note_off_c, 1, 75, 0
2, 508120, Note_on_c, 1, 80, 127
2, 508200, Note_off_c, 1, 56, 0
2, 508200, Note_off_c, 1, 63, 0
2, 508200, Note_off_c, 1, 68, 0
2, 508200, Note_off_c, 1, 80, 0
2, 508240, Note_on_c, 1, 32, 127
2, 508240, Note_on_c, 1, 44, 127
2, 508240, Note_on_c, 1, 56, 127
2, 508240, Note_on_c, 1, 60, 127
2, 508240, Note_on_c, 1, 63, 127
2, 508240, Note_on_c, 1, 68, 127
2, 508240, Note_on_c, 1, 72, 127
2, 508280, Note_off_c, 1, 72, 0
2, 508320, Note_on_c, 1, 78, 127
2, 508360, Note_off_c, 1, 60, 0
2, 508360, Note_off_c, 1, 63, 0
2, 508360, Note_off_c, 1, 78, 0
2, 508440, Note_on_c, 1, 60, 127
2, 508440, Note_on_c, 1, 75, 127
2, 508480, Note_off_c, 1, 75, 0
2, 508520, Note_on_c, 1, 77, 127
2, 508560, Note_off_c, 1, 32, 0
2, 508560, Note_off_c, 1, 44, 0
2, 508560, Note_off_c, 1, 56, 0
2, 508560, Note_off_c, 1, 60, 0
2, 508560, Note_off_c, 1, 68, 0
2, 508560, Note_off_c, 1, 77, 0
2, 508600, Note_on_c, 1, 32, 127
2, 508600, Note_on_c, 1, 44, 127
2, 508600, Note_on_c, 1, 60, 127
2, 508600, Note_on_c, 1, 63, 127
2, 508600, Note_on_c, 1, 69, 127
2, 508600, Note_on_c, 1, 72, 127
2, 508600, Note_on_c, 1, 75, 127
2, 508680, Note_off_c, 1, 75, 0
2, 508720, Note_on_c, 1, 75, 127
2, 508760, Note_off_c, 1, 32, 0
2, 508760, Note_off_c, 1, 44, 0
2, 508760, Note_off_c, 1, 60, 0
2, 508760, Note_off_c, 1, 63, 0
2, 508760, Note_off_c, 1, 69, 0
2, 508760, Note_off_c, 1, 72, 0
2, 508760, Note_off_c, 1, 75, 0
2, 508800, Note_on_c, 1, 29, 127
2, 508800, Note_on_c, 1, 41, 127
2, 508800, Note_on_c, 1, 61, 127
2, 508800, Note_on_c, 1, 64, 127
2, 508800, Note_on_c, 1, 70, 127
2, 508800, Note_on_c, 1, 73, 127
2, 508840, Note_off_c, 1, 73, 0
2, 508960, Note_off_c, 1, 29, 0
2, 508960, Note_off_c, 1, 41, 0
2, 508960, Note_off_c, 1, 61, 0
2, 508960, Note_off_c, 1, 64, 0
2, 508960, Note_off_c, 1, 70, 0
2, 509000, Note_on_c, 1, 32, 127
2, 509000, Note_on_c, 1, 44, 127
2, 509000, Note_on_c, 1, 61, 127
2, 509000, Note_on_c, 1, 68, 127
2, 509000, Note_on_c, 1, 73, 127
2, 509040, Note_off_c, 1, 73, 0
2, 509080, Note_on_c, 1, 75, 127
2, 509160, Note_off_c, 1, 61, 0
2, 509160, Note_off_c, 1, 68, 0
2, 509160, Note_off_c, 1, 75, 0
2, 509200, Note_on_c, 1, 73, 127
2, 509240, Note_off_c, 1, 73, 0
2, 509280, Note_on_c, 1, 72, 127
2, 509320, Note_off_c, 1, 32, 0
2, 509320, Note_off_c, 1, 44, 0
2, 509320, Note_off_c, 1, 72, 0
2, 509400, Note_on_c, 1, 32, 127
2, 509400, Note_on_c, 1, 44, 127
2, 509400, Note_on_c, 1, 61, 127
2, 509400, Note_on_c, 1, 65, 127
2, 509400, Note_on_c, 1, 68, 127
2, 509400, Note_on_c, 1, 73, 127
2, 509440, Note_off_c, 1, 73, 0
2, 509480, Note_on_c, 1, 75, 127
2, 509520, Note_off_c, 1, 65, 0
2, 509520, Note_off_c, 1, 75, 0
2, 509560, Note_on_c, 1, 73, 127
2, 509640, Note_off_c, 1, 73, 0
2, 509680, Note_on_c, 1, 75, 127
2, 509720, Note_off_c, 1, 32, 0
2, 509720, Note_off_c, 1, 44, 0
2, 509720, Note_off_c, 1, 61, 0
2, 509720, Note_off_c, 1, 68, 0
2, 509720, Note_off_c, 1, 75, 0
2, 509760, Note_on_c, 1, 36, 127
2, 509760, Note_on_c, 1, 48, 127
2, 509760, Note_on_c, 1, 56, 127
2, 509760, Note_on_c, 1, 63, 127
2, 509760, Note_on_c, 1, 68, 127
2, 509760, Note_on_c, 1, 72, 127
2, 509800, Note_off_c, 1, 72, 0
2, 509880, Note_on_c, 1, 75, 127
2, 509920, Note_off_c, 1, 56, 0
2, 509920, Note_off_c, 1, 63, 0
2, 509920, Note_off_c, 1, 68, 0
2, 509920, Note_off_c, 1, 75, 0
2, 509960, Note_on_c, 1, 56, 127
2, 509960, Note_on_c, 1, 63, 127
2, 509960, Note_on_c, 1, 68, 127
2, 509960, Note_on_c, 1, 73, 127
2, 510000, Note_off_c, 1, 73, 0
2, 510040, Note_on_c, 1, 75, 127
2, 510120, Note_off_c, 1, 36, 0
2, 510120, Note_off_c, 1, 48, 0
2, 510120, Note_off_c, 1, 56, 0
2, 510120, Note_off_c, 1, 63, 0
2, 510120, Note_off_c, 1, 68, 0
2, 510120, Note_off_c, 1, 75, 0
2, 510160, Note_on_c, 1, 37, 127
2, 510160, Note_on_c, 1, 49, 127
2, 510160, Note_on_c, 1, 73, 127
2, 510200, Note_off_c, 1, 73, 0
2, 510240, Note_on_c, 1, 75, 127
2, 510280, Note_off_c, 1, 37, 0
2, 510280, Note_off_c, 1, 49, 0
2, 510280, Note_off_c, 1, 75, 0
2, 510360, Note_on_c, 1, 61, 127
2, 510360, Note_on_c, 1, 65, 127
2, 510360, Note_on_c, 1, 68, 127
2, 510360, Note_on_c, 1, 77, 127
2, 510400, Note_off_c, 1, 77, 0
2, 510480, Note_off_c, 1, 61, 0
2, 510480, Note_off_c, 1, 65, 0
2, 510480, Note_off_c, 1, 68, 0
2, 510520, Note_on_c, 1, 37, 127
2, 510520, Note_on_c, 1, 49, 127
2, 510520, Note_on_c, 1, 60, 127
2, 510520, Note_on_c, 1, 64, 127
2, 510520, Note_on_c, 1, 68, 127
2, 510520, Note_on_c, 1, 76, 127
2, 510600, Note_off_c, 1, 76, 0
2, 510640, Note_on_c, 1, 75, 127
2, 510680, Note_off_c, 1, 64, 0
2, 510680, Note_off_c, 1, 68, 0
2, 510680, Note_off_c, 1, 75, 0
2, 510720, Note_on_c, 1, 56, 127
2, 510720, Note_off_c, 1, 60, 0
2, 510720, Note_on_c, 1, 61, 127
2, 510720, Note_on_c, 1, 67, 127
2, 510720, Note_on_c, 1, 70, 127
2, 510720, Note_on_c, 1, 73, 127
2, 510760, Note_off_c, 1, 73, 0
2, 510840, Note_on_c, 1, 64, 127
2, 510880, Note_off_c, 1, 37, 0
2, 510880, Note_off_c, 1, 49, 0
2, 510880, Note_off_c, 1, 56, 0
2, 510880, Note_off_c, 1, 61, 0
2, 510880, Note_off_c, 1, 64, 0
2, 510880, Note_off_c, 1, 67, 0
2, 510880, Note_off_c, 1, 70, 0
2, 510920, Note_on_c, 1, 44, 127
2, 510920, Note_on_c, 1, 56, 127
2, 510920, Note_on_c, 1, 60, 127
2, 510920, Note_on_c, 1, 63, 127
2, 510920, Note_on_c, 1, 68, 127
2, 510920, Note_on_c, 1, 84, 127
2, 510960, Note_off_c, 1, 84, 0
2, 511000, Note_on_c, 1, 75, 127
2, 511080, Note_off_c, 1, 60, 0
2, 511080, Note_off_c, 1, 63, 0
2, 511080, Note_off_c, 1, 68, 0
2, 511080, Note_off_c, 1, 75, 0
2, 511120, Note_on_c, 1, 60, 127
2, 511120, Note_on_c, 1, 63, 127
2, 511120, Note_on_c, 1, 68, 127
2, 511120, Note_on_c, 1, 80, 127
2, 511160, Note_off_c, 1, 80, 0
2, 511200, Note_on_c, 1, 84, 127
2, 511240, Note_off_c, 1, 44, 0
2, 511240, Note_off_c, 1, 63, 0
2, 511240, Note_off_c, 1, 68, 0
2, 511240, Note_off_c, 1, 84, 0
2, 511320, Note_on_c, 1, 82, 127
2, 511360, Note_off_c, 1, 82, 0
2, 511400, Note_on_c, 1, 80, 127
2, 511440, Note_off_c, 1, 56, 0
2, 511440, Note_off_c, 1, 60, 0
2, 511440, Note_off_c, 1, 80, 0
2, 511480, Note_on_c, 1, 58, 127
2, 511480, Note_on_c, 1, 61, 127
2, 511480, Note_on_c, 1, 82, 127
2, 511560, Note_off_c, 1, 82, 0
2, 511600, Note_on_c, 1, 84, 127
2, 511640, Note_off_c, 1, 58, 0
2, 511640, Note_off_c, 1, 61, 0
2, 511680, Note_on_c, 1, 61, 127
2, 511680, Note_on_c, 1, 65, 127
2, 511680, Note_on_c, 1, 69, 127
2, 511720, Note_off_c, 1, 84, 0
2, 511800, Note_on_c, 1, 84, 127
2, 511840, Note_off_c, 1, 61, 0
2, 511840, Note_off_c, 1, 65, 0
2, 511840, Note_off_c, 1, 69, 0
2, 511840, Note_off_c, 1, 84, 0
2, 511880, Note_on_c, 1, 61, 127
2, 511880, Note_on_c, 1, 65, 127
2, 511880, Note_on_c, 1, 68, 127
2, 511880, Note_on_c, 1, 84, 127
2, 511920, Note_off_c, 1, 65, 0
2, 511920, Note_on_c, 1, 72, 127
2, 511920, Note_off_c, 1, 84, 0
2, 512000, Note_on_c, 1, 84, 127
2, 512040, Note_off_c, 1, 68, 0
2, 512040, Note_off_c, 1, 72, 0
2, 512040, Note_off_c, 1, 84, 0
2, 512080, Note_on_c, 1, 73, 127
2, 512080, Note_on_c, 1, 80, 127
2, 512120, Note_off_c, 1, 73, 0
2, 512120, Note_off_c, 1, 80, 0
2, 512160, Note_on_c, 1, 85, 127
2, 512200, Note_off_c, 1, 61, 0
2, 512200, Note_off_c, 1, 85, 0
2, 512280, Note_on_c, 1, 61, 127
2, 512280, Note_on_c, 1, 64, 127
2, 512280, Note_on_c, 1, 70, 127
2, 512280, Note_on_c, 1, 75, 127
2, 512320, Note_off_c, 1, 64, 0
2, 512320, Note_on_c, 1, 65, 127
2, 512320, Note_off_c, 1, 75, 0
2, 512360, Note_on_c, 1, 82, 127
2, 512400, Note_off_c, 1, 61, 0
2, 512400, Note_off_c, 1, 65, 0
2, 512400, Note_off_c, 1, 70, 0
2, 512400, Note_off_c, 1, 82, 0
2, 512440, Note_on_c, 1, 56, 127
2, 512440, Note_on_c, 1, 84, 127
2, 512520, Note_off_c, 1, 84, 0
2, 512560, Note_on_c, 1, 84, 127
2, 512600, Note_off_c, 1, 56, 0
2, 512600, Note_off_c, 1, 84, 0
2, 512640, Note_on_c, 1, 60, 127
2, 512640, Note_on_c, 1, 68, 127
2, 512640, Note_on_c, 1, 72, 127
2, 512640, Note_on_c, 1, 75, 127
2, 512640, Note_on_c, 1, 84, 127
2, 512680, Note_off_c, 1, 84, 0
2, 512760, Note_on_c, 1, 78, 127
2, 512800, Note_off_c, 1, 60, 0
2, 512800, Note_off_c, 1, 68, 0
2, 512800, Note_off_c, 1, 72, 0
2, 512800, Note_off_c, 1, 75, 0
2, 512800, Note_off_c, 1, 78, 0
2, 512840, Note_on_c, 1, 51, 127
2, 512840, Note_on_c, 1, 75, 127
2, 512880, Note_off_c, 1, 51, 0
2, 512880, Note_off_c, 1, 75, 0
2, 512920, Note_on_c, 1, 48, 127
2, 512920, Note_on_c, 1, 77, 127
2, 513000, Note_off_c, 1, 48, 0
2, 513000, Note_off_c, 1, 77, 0
2, 513040, Note_on_c, 1, 48, 127
2, 513040, Note_on_c, 1, 75, 127
2, 513080, Note_off_c, 1, 48, 0
2, 513080, Note_on_c, 1, 66, 127
2, 513120, Note_on_c, 1, 60, 127
2, 513120, Note_off_c, 1, 66, 0
2, 513160, Note_off_c, 1, 60, 0
2, 513160, Note_off_c, 1, 75, 0
2, 513240, Note_on_c, 1, 48, 127
2, 513240, Note_on_c, 1, 84, 127
2, 513280, Note_off_c, 1, 48, 0
2, 513320, Note_on_c, 1, 60, 127
2, 513360, Note_off_c, 1, 60, 0
2, 513360, Note_off_c, 1, 84, 0
2, 513400, Note_on_c, 1, 37, 127
2, 513400, Note_on_c, 1, 49, 127
2, 513400, Note_on_c, 1, 61, 127
2, 513400, Note_on_c, 1, 65, 127
2, 513400, Note_on_c, 1, 73, 127
2, 513400, Note_on_c, 1, 77, 127
2, 513400, Note_on_c, 1, 85, 127
2, 513560, Note_off_c, 1, 37, 0
2, 513560, Note_off_c, 1, 49, 0
2, 513560, Note_off_c, 1, 61, 0
2, 513560, Note_off_c, 1, 65, 0
2, 513560, Note_off_c, 1, 73, 0
2, 513560, Note_off_c, 1, 77, 0
2, 513600, Note_on_c, 1, 61, 127
2, 513600, Note_on_c, 1, 77, 127
2, 513640, Note_off_c, 1, 61, 0
2, 513640, Note_off_c, 1, 77, 0
2, 513640, Note_off_c, 1, 85, 0
2, 513720, Note_on_c, 1, 65, 127
2, 513760, Note_off_c, 1, 65, 0
2, 513800, Note_on_c, 1, 61, 127
2, 513800, Note_on_c, 1, 68, 127
2, 513800, Note_on_c, 1, 73, 127
2, 513800, Note_on_c, 1, 77, 127
2, 513800, Note_on_c, 1, 85, 127
2, 513840, Note_off_c, 1, 61, 0
2, 513880, Note_on_c, 1, 65, 127
2, 513960, Note_off_c, 1, 65, 0
2, 513960, Note_off_c, 1, 68, 0
2, 513960, Note_off_c, 1, 73, 0
2, 513960, Note_off_c, 1, 77, 0
2, 513960, Note_off_c, 1, 85, 0
2, 514000, Note_on_c, 1, 53, 127
2, 514000, Note_on_c, 1, 65, 127
2, 514000, Note_on_c, 1, 73, 127
2, 514000, Note_on_c, 1, 80, 127
2, 514000, Note_on_c, 1, 85, 127
2, 514120, Note_off_c, 1, 53, 0
2, 514200, Note_on_c, 1, 61, 127
2, 514320, Note_off_c, 1, 61, 0
2, 514320, Note_off_c, 1, 65, 0
2, 514320, Note_off_c, 1, 73, 0
2, 514320, Note_off_c, 1, 85, 0
2, 514360, Note_on_c, 1, 61, 127
2, 514360, Note_on_c, 1, 65, 127
2, 514360, Note_on_c, 1, 73, 127
2, 514360, Note_on_c, 1, 85, 127
2, 514520, Note_off_c, 1, 61, 0
2, 514520, Note_off_c, 1, 65, 0
2, 514560, Note_on_c, 1, 61, 127
2, 514560, Note_on_c, 1, 65, 127
2, 514720, Note_off_c, 1, 61, 0
2, 514720, Note_off_c, 1, 65, 0
2, 514720, Note_off_c, 1, 73, 0
2, 514720, Note_off_c, 1, 80, 0
2, 514720, Note_off_c, 1, 85, 0
2, 514760, Note_on_c, 1, 56, 127
2, 514760, Note_on_c, 1, 61, 127
2, 514760, Note_on_c, 1, 77, 127
2, 514760, Note_on_c, 1, 80, 127
2, 514760, Note_on_c, 1, 85, 127
2, 514920, Note_off_c, 1, 56, 0
2, 515080, Note_off_c, 1, 61, 0
2, 515080, Note_off_c, 1, 77, 0
2, 515080, Note_off_c, 1, 80, 0
2, 515080, Note_off_c, 1, 85, 0
2, 515160, Note_on_c, 1, 44, 127
2, 515160, Note_on_c, 1, 56, 127
2, 515280, Note_off_c, 1, 44, 0
2, 515280, Note_off_c, 1, 56, 0
2, 515320, Note_on_c, 1, 56, 127
2, 515480, Note_off_c, 1, 56, 0
2, 515520, Note_on_c, 1, 48, 127
2, 515520, Note_on_c, 1, 56, 127
2, 515680, Note_off_c, 1, 48, 0
2, 515680, Note_off_c, 1, 56, 0
2, 515720, Note_on_c, 1, 51, 127
2, 515880, Note_off_c, 1, 51, 0
2, 515920, Note_on_c, 1, 44, 127
2, 515920, Note_on_c, 1, 54, 127
2, 515920, Note_on_c, 1, 56, 127
2, 515920, Note_on_c, 1, 60, 127
2, 515920, Note_on_c, 1, 63, 127
2, 515920, Note_on_c, 1, 75, 127
2, 516040, Note_off_c, 1, 44, 0
2, 516040, Note_off_c, 1, 75, 0
2, 516120, Note_on_c, 1, 78, 127
2, 516240, Note_off_c, 1, 54, 0
2, 516240, Note_off_c, 1, 56, 0
2, 516240, Note_off_c, 1, 60, 0
2, 516240, Note_off_c, 1, 63, 0
2, 516240, Note_off_c, 1, 78, 0
2, 516280, Note_on_c, 1, 44, 127
2, 516280, Note_on_c, 1, 60, 127
2, 516280, Note_on_c, 1, 63, 127
2, 516440, Note_off_c, 1, 60, 0
2, 516440, Note_off_c, 1, 63, 0
2, 516480, Note_on_c, 1, 68, 127
2, 516520, Note_off_c, 1, 68, 0
2, 516680, Note_on_c, 1, 72, 127
2, 516720, Note_off_c, 1, 72, 0
2, 516880, Note_on_c, 1, 66, 127
2, 516920, Note_off_c, 1, 66, 0
2, 516960, Note_on_c, 1, 68, 127
2, 517000, Note_off_c, 1, 44, 0
2, 517000, Note_off_c, 1, 68, 0
2, 517080, Note_on_c, 1, 40, 127
2, 517080, Note_on_c, 1, 61, 127
2, 517080, Note_on_c, 1, 67, 127
2, 517080, Note_on_c, 1, 70, 127
2, 517200, Note_off_c, 1, 61, 0
2, 517240, Note_on_c, 1, 61, 127
2, 517400, Note_off_c, 1, 61, 0
2, 517400, Note_off_c, 1, 67, 0
2, 517400, Note_off_c, 1, 70, 0
2, 517440, Note_on_c, 1, 61, 127
2, 517440, Note_on_c, 1, 67, 127
2, 517440, Note_on_c, 1, 70, 127
2, 517480, Note_off_c, 1, 67, 0
2, 517480, Note_off_c, 1, 70, 0
2, 517600, Note_off_c, 1, 61, 0
2, 517640, Note_on_c, 1, 64, 127
2, 517640, Note_on_c, 1, 73, 127
2, 517680, Note_off_c, 1, 64, 0
2, 517680, Note_off_c, 1, 73, 0
2, 517800, Note_off_c, 1, 40, 0
2, 517840, Note_on_c, 1, 29, 127
2, 517840, Note_on_c, 1, 41, 127
2, 517840, Note_on_c, 1, 65, 127
2, 517840, Note_on_c, 1, 68, 127
2, 517840, Note_on_c, 1, 72, 127
2, 517840, Note_on_c, 1, 77, 127
2, 517960, Note_off_c, 1, 65, 0
2, 517960, Note_off_c, 1, 68, 0
2, 517960, Note_off_c, 1, 72, 0
2, 517960, Note_off_c, 1, 77, 0
2, 518040, Note_on_c, 1, 65, 127
2, 518080, Note_on_c, 1, 60, 127
2, 518080, Note_off_c, 1, 65, 0
2, 518120, Note_off_c, 1, 41, 0
2, 518120, Note_off_c, 1, 60, 0
2, 518120, Note_on_c, 1, 65, 127
2, 518160, Note_off_c, 1, 29, 0
2, 518160, Note_on_c, 1, 53, 127
2, 518200, Note_off_c, 1, 65, 0
2, 518200, Note_on_c, 1, 77, 127
2, 518200, Note_on_c, 1, 86, 127
2, 518360, Note_off_c, 1, 53, 0
2, 518360, Note_off_c, 1, 86, 0
2, 518400, Note_on_c, 1, 65, 127
2, 518400, Note_on_c, 1, 84, 127
2, 518560, Note_off_c, 1, 65, 0
2, 518560, Note_off_c, 1, 77, 0
2, 518560, Note_off_c, 1, 84, 0
2, 518600, Note_on_c, 1, 65, 127
2, 518600, Note_on_c, 1, 84, 127
2, 518760, Note_off_c, 1, 65, 0
2, 518760, Note_off_c, 1, 84, 0
2, 518800, Note_on_c, 1, 65, 127
2, 518800, Note_on_c, 1, 80, 127
2, 518920, Note_off_c, 1, 65, 0
2, 518920, Note_off_c, 1, 80, 0
2, 519000, Note_on_c, 1, 40, 127
2, 519000, Note_on_c, 1, 52, 127
2, 519000, Note_on_c, 1, 76, 127
2, 519000, Note_on_c, 1, 80, 127
2, 519040, Note_off_c, 1, 76, 0
2, 519040, Note_off_c, 1, 80, 0
2, 519160, Note_on_c, 1, 73, 127
2, 519240, Note_off_c, 1, 73, 0
2, 519320, Note_off_c, 1, 40, 0
2, 519320, Note_off_c, 1, 52, 0
2, 519360, Note_on_c, 1, 38, 127
2, 519360, Note_on_c, 1, 50, 127
2, 519360, Note_on_c, 1, 67, 127
2, 519360, Note_on_c, 1, 74, 127
2, 519360, Note_on_c, 1, 77, 127
2, 519400, Note_off_c, 1, 67, 0
2, 519400, Note_off_c, 1, 74, 0
2, 519400, Note_off_c, 1, 77, 0
2, 519560, Note_on_c, 1, 65, 127
2, 519560, Note_on_c, 1, 76, 127
2, 519600, Note_off_c, 1, 65, 0
2, 519600, Note_off_c, 1, 76, 0
2, 519720, Note_off_c, 1, 38, 0
2, 519720, Note_off_c, 1, 50, 0
2, 519760, Note_on_c, 1, 62, 127
2, 519760, Note_on_c, 1, 77, 127
2, 519800, Note_off_c, 1, 62, 0
2, 519800, Note_off_c, 1, 77, 0
2, 519960, Note_on_c, 1, 65, 127
2, 519960, Note_on_c, 1, 77, 127
2, 520000, Note_off_c, 1, 65, 0
2, 520000, Note_off_c, 1, 77, 0
2, 520120, Note_on_c, 1, 41, 127
2, 520120, Note_on_c, 1, 53, 127
2, 520120, Note_on_c, 1, 62, 127
2, 520120, Note_on_c, 1, 74, 127
2, 520200, Note_off_c, 1, 62, 0
2, 520200, Note_off_c, 1, 74, 0
2, 520320, Note_on_c, 1, 62, 127
2, 520320, Note_on_c, 1, 77, 127
2, 520360, Note_off_c, 1, 62, 0
2, 520360, Note_off_c, 1, 77, 0
2, 520480, Note_off_c, 1, 41, 0
2, 520480, Note_off_c, 1, 53, 0
2, 520520, Note_on_c, 1, 41, 127
2, 520520, Note_on_c, 1, 53, 127
2, 520520, Note_on_c, 1, 65, 127
2, 520520, Note_on_c, 1, 82, 127
2, 520680, Note_off_c, 1, 65, 0
2, 520680, Note_off_c, 1, 82, 0
2, 520720, Note_on_c, 1, 65, 127
2, 520720, Note_on_c, 1, 81, 127
2, 520840, Note_off_c, 1, 41, 0
2, 520840, Note_off_c, 1, 53, 0
2, 520840, Note_off_c, 1, 65, 0
2, 520840, Note_off_c, 1, 81, 0
2, 520920, Note_on_c, 1, 69, 127
2, 520920, Note_on_c, 1, 81, 127
2, 521040, Note_off_c, 1, 69, 0
2, 521040, Note_off_c, 1, 81, 0
2, 521080, Note_on_c, 1, 66, 127
2, 521080, Note_on_c, 1, 81, 127
2, 521240, Note_off_c, 1, 66, 0
2, 521240, Note_off_c, 1, 81, 0
2, 521280, Note_on_c, 1, 57, 127
2, 521280, Note_on_c, 1, 63, 127
2, 521280, Note_on_c, 1, 69, 127
2, 521280, Note_on_c, 1, 72, 127
2, 521280, Note_on_c, 1, 78, 127
2, 521320, Note_off_c, 1, 57, 0
2, 521440, Note_off_c, 1, 63, 0
2, 521440, Note_off_c, 1, 78, 0
2, 521480, Note_on_c, 1, 57, 127
2, 521480, Note_on_c, 1, 60, 127
2, 521480, Note_on_c, 1, 77, 127
2, 521520, Note_off_c, 1, 57, 0
2, 521520, Note_off_c, 1, 60, 0
2, 521560, Note_on_c, 1, 63, 127
2, 521640, Note_off_c, 1, 63, 0
2, 521640, Note_off_c, 1, 69, 0
2, 521640, Note_off_c, 1, 72, 0
2, 521640, Note_off_c, 1, 77, 0
2, 521680, Note_on_c, 1, 54, 127
2, 521680, Note_on_c, 1, 60, 127
2, 521720, Note_off_c, 1, 60, 0
2, 521760, Note_on_c, 1, 61, 127
2, 521800, Note_off_c, 1, 54, 0
2, 521800, Note_off_c, 1, 61, 0
2, 521880, Note_on_c, 1, 57, 127
2, 521880, Note_on_c, 1, 72, 127
2, 521920, Note_off_c, 1, 57, 0
2, 521920, Note_off_c, 1, 72, 0
2, 521960, Note_on_c, 1, 56, 127
2, 522000, Note_off_c, 1, 56, 0
2, 522040, Note_on_c, 1, 41, 127
2, 522040, Note_on_c, 1, 53, 127
2, 522040, Note_on_c, 1, 58, 127
2, 522040, Note_on_c, 1, 65, 127
2, 522040, Note_on_c, 1, 70, 127
2, 522040, Note_on_c, 1, 74, 127
2, 522120, Note_off_c, 1, 53, 0
2, 522200, Note_off_c, 1, 58, 0
2, 522240, Note_on_c, 1, 53, 127
2, 522240, Note_on_c, 1, 58, 127
2, 522280, Note_off_c, 1, 53, 0
2, 522280, Note_off_c, 1, 58, 0
2, 522360, Note_on_c, 1, 62, 127
2, 522400, Note_off_c, 1, 41, 0
2, 522400, Note_off_c, 1, 62, 0
2, 522400, Note_off_c, 1, 65, 0
2, 522440, Note_on_c, 1, 41, 127
2, 522440, Note_on_c, 1, 53, 127
2, 522480, Note_off_c, 1, 53, 0
2, 522520, Note_on_c, 1, 62, 127
2, 522600, Note_off_c, 1, 41, 0
2, 522600, Note_off_c, 1, 62, 0
2, 522600, Note_off_c, 1, 70, 0
2, 522600, Note_off_c, 1, 74, 0
2, 522640, Note_on_c, 1, 41, 127
2, 522640, Note_on_c, 1, 53, 127
2, 522640, Note_on_c, 1, 62, 127
2, 522640, Note_on_c, 1, 70, 127
2, 522640, Note_on_c, 1, 74, 127
2, 522680, Note_off_c, 1, 53, 0
2, 522680, Note_off_c, 1, 62, 0
2, 522680, Note_off_c, 1, 74, 0
2, 522720, Note_on_c, 1, 65, 127
2, 522760, Note_off_c, 1, 41, 0
2, 522760, Note_off_c, 1, 65, 0
2, 522760, Note_off_c, 1, 70, 0
2, 522840, Note_on_c, 1, 46, 127
2, 522840, Note_on_c, 1, 58, 127
2, 522840, Note_on_c, 1, 70, 127
2, 522880, Note_off_c, 1, 70, 0
2, 522920, Note_on_c, 1, 65, 127
2, 522960, Note_off_c, 1, 65, 0
2, 523000, Note_on_c, 1, 62, 127
2, 523080, Note_off_c, 1, 62, 0
2, 523120, Note_on_c, 1, 62, 127
2, 523160, Note_off_c, 1, 46, 0
2, 523160, Note_off_c, 1, 58, 0
2, 523160, Note_off_c, 1, 62, 0
2, 523200, Note_on_c, 1, 62, 127
2, 523200, Note_on_c, 1, 70, 127
2, 523200, Note_on_c, 1, 74, 127
2, 523200, Note_on_c, 1, 82, 127
2, 523240, Note_off_c, 1, 62, 0
2, 523320, Note_on_c, 1, 66, 127
2, 523360, Note_off_c, 1, 66, 0
2, 523400, Note_on_c, 1, 65, 127
2, 523440, Note_off_c, 1, 65, 0
2, 523480, Note_on_c, 1, 65, 127
2, 523560, Note_off_c, 1, 65, 0
2, 523560, Note_off_c, 1, 70, 0
2, 523560, Note_off_c, 1, 74, 0
2, 523560, Note_off_c, 1, 82, 0
2, 523600, Note_on_c, 1, 51, 127
2, 523600, Note_on_c, 1, 67, 127
2, 523640, Note_off_c, 1, 51, 0
2, 523680, Note_on_c, 1, 58, 127
2, 523720, Note_off_c, 1, 58, 0
2, 523800, Note_on_c, 1, 55, 127
2, 523840, Note_off_c, 1, 55, 0
2, 523880, Note_on_c, 1, 58, 127
2, 523920, Note_off_c, 1, 58, 0
2, 523920, Note_off_c, 1, 67, 0
2, 523960, Note_on_c, 1, 46, 127
2, 523960, Note_on_c, 1, 63, 127
2, 523960, Note_on_c, 1, 67, 127
2, 523960, Note_on_c, 1, 70, 127
2, 523960, Note_on_c, 1, 75, 127
2, 524040, Note_off_c, 1, 46, 0
2, 524080, Note_on_c, 1, 58, 127
2, 524120, Note_off_c, 1, 58, 0
2, 524160, Note_on_c, 1, 55, 127
2, 524200, Note_off_c, 1, 55, 0
2, 524280, Note_on_c, 1, 58, 127
2, 524320, Note_off_c, 1, 58, 0
2, 524320, Note_off_c, 1, 63, 0
2, 524320, Note_off_c, 1, 67, 0
2, 524320, Note_off_c, 1, 70, 0
2, 524320, Note_off_c, 1, 75, 0
2, 524360, Note_on_c, 1, 43, 127
2, 524360, Note_on_c, 1, 70, 127
2, 524360, Note_on_c, 1, 75, 127
2, 524360, Note_on_c, 1, 77, 127
2, 524360, Note_on_c, 1, 82, 127
2, 524400, Note_off_c, 1, 43, 0
2, 524400, Note_off_c, 1, 77, 0
2, 524440, Note_on_c, 1, 51, 127
2, 524520, Note_off_c, 1, 51, 0
2, 524560, Note_on_c, 1, 43, 127
2, 524600, Note_off_c, 1, 43, 0
2, 524640, Note_on_c, 1, 51, 127
2, 524680, Note_off_c, 1, 51, 0
2, 524680, Note_off_c, 1, 70, 0
2, 524680, Note_off_c, 1, 75, 0
2, 524680, Note_off_c, 1, 82, 0
2, 524760, Note_on_c, 1, 43, 127
2, 524760, Note_on_c, 1, 55, 127
2, 524760, Note_on_c, 1, 67, 127
2, 524760, Note_on_c, 1, 70, 127
2, 524760, Note_on_c, 1, 75, 127
2, 524800, Note_off_c, 1, 75, 0
2, 524840, Note_on_c, 1, 82, 127
2, 524880, Note_off_c, 1, 43, 0
2, 524880, Note_off_c, 1, 55, 0
2, 524880, Note_off_c, 1, 82, 0
2, 524920, Note_on_c, 1, 43, 127
2, 524920, Note_on_c, 1, 55, 127
2, 524920, Note_on_c, 1, 82, 127
2, 525000, Note_off_c, 1, 82, 0
2, 525040, Note_on_c, 1, 82, 127
2, 525080, Note_off_c, 1, 43, 0
2, 525080, Note_off_c, 1, 55, 0
2, 525080, Note_off_c, 1, 67, 0
2, 525080, Note_off_c, 1, 70, 0
2, 525080, Note_off_c, 1, 82, 0
2, 525120, Note_on_c, 1, 39, 127
2, 525120, Note_on_c, 1, 51, 127
2, 525120, Note_on_c, 1, 63, 127
2, 525120, Note_on_c, 1, 67, 127
2, 525120, Note_on_c, 1, 70, 127
2, 525120, Note_on_c, 1, 86, 127
2, 525160, Note_off_c, 1, 86, 0
2, 525240, Note_on_c, 1, 84, 127
2, 525280, Note_off_c, 1, 39, 0
2, 525280, Note_off_c, 1, 51, 0
2, 525280, Note_off_c, 1, 63, 0
2, 525280, Note_off_c, 1, 67, 0
2, 525280, Note_off_c, 1, 70, 0
2, 525280, Note_off_c, 1, 84, 0
2, 525320, Note_on_c, 1, 41, 127
2, 525320, Note_on_c, 1, 53, 127
2, 525320, Note_on_c, 1, 68, 127
2, 525320, Note_on_c, 1, 70, 127
2, 525320, Note_on_c, 1, 75, 127
2, 525320, Note_on_c, 1, 84, 127
2, 525360, Note_off_c, 1, 75, 0
2, 525360, Note_off_c, 1, 84, 0
2, 525400, Note_on_c, 1, 84, 127
2, 525480, Note_off_c, 1, 41, 0
2, 525480, Note_off_c, 1, 53, 0
2, 525480, Note_off_c, 1, 68, 0
2, 525480, Note_off_c, 1, 70, 0
2, 525480, Note_off_c, 1, 84, 0
2, 525520, Note_on_c, 1, 67, 127
2, 525520, Note_on_c, 1, 70, 127
2, 525520, Note_on_c, 1, 75, 127
2, 525560, Note_off_c, 1, 67, 0
2, 525560, Note_off_c, 1, 70, 0
2, 525560, Note_off_c, 1, 75, 0
2, 525600, Note_on_c, 1, 82, 127
2, 525640, Note_off_c, 1, 82, 0
2, 525720, Note_on_c, 1, 67, 127
2, 525720, Note_on_c, 1, 70, 127
2, 525720, Note_on_c, 1, 74, 127
2, 525720, Note_on_c, 1, 84, 127
2, 525760, Note_off_c, 1, 67, 0
2, 525760, Note_off_c, 1, 70, 0
2, 525760, Note_off_c, 1, 74, 0
2, 525760, Note_off_c, 1, 84, 0
2, 525760, Note_on_c, 1, 87, 127
2, 525840, Note_off_c, 1, 87, 0
2, 525880, Note_on_c, 1, 44, 127
2, 525880, Note_on_c, 1, 56, 127
2, 525880, Note_on_c, 1, 68, 127
2, 525880, Note_on_c, 1, 72, 127
2, 525880, Note_on_c, 1, 84, 127
2, 525960, Note_off_c, 1, 84, 0
2, 526000, Note_on_c, 1, 80, 127
2, 526040, Note_off_c, 1, 68, 0
2, 526040, Note_off_c, 1, 72, 0
2, 526040, Note_off_c, 1, 80, 0
2, 526080, Note_on_c, 1, 68, 127
2, 526080, Note_on_c, 1, 72, 127
2, 526080, Note_on_c, 1, 79, 127
2, 526120, Note_off_c, 1, 79, 0
2, 526200, Note_on_c, 1, 80, 127
2, 526240, Note_off_c, 1, 44, 0
2, 526240, Note_off_c, 1, 56, 0
2, 526240, Note_off_c, 1, 68, 0
2, 526240, Note_off_c, 1, 72, 0
2, 526240, Note_off_c, 1, 80, 0
2, 526280, Note_on_c, 1, 48, 127
2, 526280, Note_on_c, 1, 60, 127
2, 526280, Note_on_c, 1, 68, 127
2, 526280, Note_on_c, 1, 72, 127
2, 526280, Note_on_c, 1, 80, 127
2, 526320, Note_off_c, 1, 80, 0
2, 526360, Note_on_c, 1, 79, 127
2, 526440, Note_off_c, 1, 68, 0
2, 526440, Note_off_c, 1, 72, 0
2, 526440, Note_off_c, 1, 79, 0
2, 526480, Note_on_c, 1, 68, 127
2, 526480, Note_on_c, 1, 72, 127
2, 526480, Note_on_c, 1, 77, 127
2, 526520, Note_off_c, 1, 77, 0
2, 526560, Note_on_c, 1, 79, 127
2, 526600, Note_off_c, 1, 48, 0
2, 526600, Note_off_c, 1, 60, 0
2, 526600, Note_off_c, 1, 68, 0
2, 526600, Note_off_c, 1, 72, 0
2, 526600, Note_off_c, 1, 79, 0
2, 526680, Note_on_c, 1, 48, 127
2, 526680, Note_on_c, 1, 60, 127
2, 526680, Note_on_c, 1, 68, 127
2, 526680, Note_on_c, 1, 72, 127
2, 526680, Note_on_c, 1, 77, 127
2, 526720, Note_off_c, 1, 77, 0
2, 526760, Note_on_c, 1, 79, 127
2, 526800, Note_off_c, 1, 48, 0
2, 526800, Note_off_c, 1, 60, 0
2, 526800, Note_off_c, 1, 68, 0
2, 526800, Note_off_c, 1, 72, 0
2, 526800, Note_off_c, 1, 79, 0
2, 526840, Note_on_c, 1, 48, 127
2, 526840, Note_on_c, 1, 61, 127
2, 526840, Note_on_c, 1, 68, 127
2, 526840, Note_on_c, 1, 70, 127
2, 526840, Note_on_c, 1, 80, 127
2, 526920, Note_off_c, 1, 48, 0
2, 526920, Note_on_c, 1, 60, 127
2, 526920, Note_off_c, 1, 61, 0
2, 526920, Note_off_c, 1, 80, 0
2, 526960, Note_on_c, 1, 48, 127
2, 526960, Note_on_c, 1, 82, 127
2, 527000, Note_off_c, 1, 48, 0
2, 527000, Note_off_c, 1, 60, 0
2, 527000, Note_off_c, 1, 68, 0
2, 527000, Note_off_c, 1, 70, 0
2, 527000, Note_off_c, 1, 82, 0
2, 527040, Note_on_c, 1, 41, 127
2, 527040, Note_on_c, 1, 53, 127
2, 527040, Note_on_c, 1, 67, 127
2, 527040, Note_on_c, 1, 70, 127
2, 527040, Note_on_c, 1, 84, 127
2, 527200, Note_off_c, 1, 41, 0
2, 527200, Note_off_c, 1, 53, 0
2, 527200, Note_on_c, 1, 55, 127
2, 527200, Note_off_c, 1, 84, 0
2, 527240, Note_on_c, 1, 41, 127
2, 527240, Note_on_c, 1, 53, 127
2, 527240, Note_off_c, 1, 55, 0
2, 527240, Note_on_c, 1, 65, 127
2, 527240, Note_on_c, 1, 84, 127
2, 527280, Note_off_c, 1, 65, 0
2, 527360, Note_on_c, 1, 69, 127
2, 527360, Note_off_c, 1, 70, 0
2, 527400, Note_off_c, 1, 41, 0
2, 527400, Note_off_c, 1, 53, 0
2, 527400, Note_off_c, 1, 67, 0
2, 527400, Note_off_c, 1, 69, 0
2, 527400, Note_off_c, 1, 84, 0
2, 527440, Note_on_c, 1, 37, 127
2, 527440, Note_on_c, 1, 49, 127
2, 527440, Note_on_c, 1, 61, 127
2, 527440, Note_on_c, 1, 65, 127
2, 527440, Note_on_c, 1, 68, 127
2, 527520, Note_on_c, 1, 82, 127
2, 527560, Note_off_c, 1, 65, 0
2, 527640, Note_on_c, 1, 67, 127
2, 527680, Note_off_c, 1, 68, 0
2, 527760, Note_off_c, 1, 37, 0
2, 527760, Note_off_c, 1, 49, 0
2, 527760, Note_off_c, 1, 61, 0
2, 527760, Note_off_c, 1, 67, 0
2, 527800, Note_on_c, 1, 49, 127
2, 527960, Note_off_c, 1, 49, 0
2, 528000, Note_on_c, 1, 51, 127
2, 528120, Note_off_c, 1, 51, 0
2, 528160, Note_off_c, 1, 82, 0
2, 528200, Note_on_c, 1, 39, 127
2, 528200, Note_on_c, 1, 51, 127
2, 528200, Note_on_c, 1, 70, 127
2, 528200, Note_on_c, 1, 73, 127
2, 528200, Note_on_c, 1, 75, 127
2, 528200, Note_on_c, 1, 80, 127
2, 528200, Note_on_c, 1, 82, 127
2, 528360, Note_off_c, 1, 39, 0
2, 528360, Note_off_c, 1, 51, 0
2, 528400, Note_on_c, 1, 43, 127
2, 528400, Note_on_c, 1, 55, 127
2, 528400, Note_off_c, 1, 80, 0
2, 528560, Note_off_c, 1, 43, 0
2, 528560, Note_off_c, 1, 55, 0
2, 528560, Note_off_c, 1, 70, 0
2, 528560, Note_off_c, 1, 73, 0
2, 528560, Note_off_c, 1, 75, 0
2, 528560, Note_off_c, 1, 82, 0
2, 528600, Note_on_c, 1, 34, 127
2, 528600, Note_on_c, 1, 50, 127
2, 528600, Note_on_c, 1, 70, 127
2, 528600, Note_on_c, 1, 74, 127
2, 528600, Note_on_c, 1, 82, 127
2, 528640, Note_off_c, 1, 34, 0
2, 528640, Note_on_c, 1, 38, 127
2, 528720, Note_off_c, 1, 38, 0
2, 528720, Note_off_c, 1, 50, 0
2, 528720, Note_off_c, 1, 70, 0
2, 528720, Note_off_c, 1, 74, 0
2, 528720, Note_off_c, 1, 82, 0
2, 528800, Note_on_c, 1, 36, 127
2, 528800, Note_on_c, 1, 48, 127
2, 528800, Note_on_c, 1, 80, 127
2, 528800, Note_on_c, 1, 84, 127
2, 528920, Note_off_c, 1, 36, 0
2, 528920, Note_off_c, 1, 48, 0
2, 528920, Note_off_c, 1, 80, 0
2, 528920, Note_off_c, 1, 84, 0
2, 528960, Note_on_c, 1, 34, 127
2, 528960, Note_on_c, 1, 46, 127
2, 528960, Note_on_c, 1, 79, 127
2, 528960, Note_on_c, 1, 82, 127
2, 529120, Note_off_c, 1, 34, 0
2, 529120, Note_off_c, 1, 46, 0
2, 529160, Note_on_c, 1, 34, 127
2, 529160, Note_on_c, 1, 46, 127
2, 529160, Note_off_c, 1, 79, 0
2, 529160, Note_on_c, 1, 80, 127
2, 529160, Note_off_c, 1, 82, 0
2, 529160, Note_on_c, 1, 84, 127
2, 529200, Note_on_c, 1, 79, 127
2, 529200, Note_off_c, 1, 80, 0
2, 529200, Note_on_c, 1, 82, 127
2, 529200, Note_off_c, 1, 84, 0
2, 529320, Note_off_c, 1, 34, 0
2, 529320, Note_off_c, 1, 46, 0
2, 529320, Note_off_c, 1, 79, 0
2, 529320, Note_off_c, 1, 82, 0
2, 529360, Note_on_c, 1, 34, 127
2, 529360, Note_on_c, 1, 46, 127
2, 529360, Note_on_c, 1, 77, 127
2, 529360, Note_on_c, 1, 80, 127
2, 529520, Note_off_c, 1, 34, 0
2, 529520, Note_off_c, 1, 46, 0
2, 529520, Note_off_c, 1, 77, 0
2, 529520, Note_off_c, 1, 80, 0
2, 529560, Note_on_c, 1, 34, 127
2, 529560, Note_on_c, 1, 46, 127
2, 529560, Note_on_c, 1, 72, 127
2, 529560, Note_on_c, 1, 75, 127
2, 529560, Note_on_c, 1, 79, 127
2, 529720, Note_off_c, 1, 34, 0
2, 529720, Note_off_c, 1, 46, 0
2, 529720, Note_off_c, 1, 72, 0
2, 529720, Note_off_c, 1, 75, 0
2, 529720, Note_off_c, 1, 79, 0
2, 529760, Note_on_c, 1, 36, 127
2, 529760, Note_on_c, 1, 48, 127
2, 529760, Note_on_c, 1, 70, 127
2, 529760, Note_on_c, 1, 75, 127
2, 529760, Note_on_c, 1, 79, 127
2, 529880, Note_off_c, 1, 36, 0
2, 529880, Note_off_c, 1, 48, 0
2, 529880, Note_off_c, 1, 70, 0
2, 529880, Note_off_c, 1, 75, 0
2, 529880, Note_off_c, 1, 79, 0
2, 529960, Note_on_c, 1, 36, 127
2, 529960, Note_on_c, 1, 48, 127
2, 529960, Note_on_c, 1, 68, 127
2, 529960, Note_on_c, 1, 72, 127
2, 529960, Note_on_c, 1, 75, 127
2, 529960, Note_on_c, 1, 79, 127
2, 530080, Note_off_c, 1, 36, 0
2, 530080, Note_off_c, 1, 48, 0
2, 530080, Note_off_c, 1, 68, 0
2, 530080, Note_off_c, 1, 72, 0
2, 530080, Note_off_c, 1, 75, 0
2, 530080, Note_off_c, 1, 79, 0
2, 530120, Note_on_c, 1, 36, 127
2, 530120, Note_on_c, 1, 48, 127
2, 530280, Note_off_c, 1, 36, 0
2, 530280, Note_off_c, 1, 48, 0
2, 530320, Note_on_c, 1, 39, 127
2, 530320, Note_on_c, 1, 51, 127
2, 530320, Note_on_c, 1, 79, 127
2, 530320, Note_on_c, 1, 82, 127
2, 530320, Note_on_c, 1, 87, 127
2, 530480, Note_off_c, 1, 39, 0
2, 530480, Note_off_c, 1, 51, 0
2, 530520, Note_on_c, 1, 51, 127
2, 530560, Note_off_c, 1, 51, 0
2, 530680, Note_off_c, 1, 79, 0
2, 530680, Note_off_c, 1, 82, 0
2, 530680, Note_off_c, 1, 87, 0
2, 530720, Note_on_c, 1, 50, 127
2, 530720, Note_on_c, 1, 77, 127
2, 530720, Note_on_c, 1, 80, 127
2, 530720, Note_on_c, 1, 82, 127
2, 530720, Note_on_c, 1, 89, 127
2, 530760, Note_off_c, 1, 50, 0
2, 530760, Note_off_c, 1, 77, 0
2, 530800, Note_on_c, 1, 86, 127
2, 530840, Note_off_c, 1, 80, 0
2, 530840, Note_off_c, 1, 82, 0
2, 530840, Note_off_c, 1, 86, 0
2, 530840, Note_off_c, 1, 89, 0
2, 530920, Note_on_c, 1, 41, 127
2, 530920, Note_on_c, 1, 53, 127
2, 530920, Note_on_c, 1, 77, 127
2, 530920, Note_on_c, 1, 82, 127
2, 530920, Note_on_c, 1, 86, 127
2, 531040, Note_off_c, 1, 41, 0
2, 531040, Note_off_c, 1, 53, 0
2, 531040, Note_off_c, 1, 77, 0
2, 531040, Note_off_c, 1, 82, 0
2, 531040, Note_off_c, 1, 86, 0
2, 531080, Note_on_c, 1, 41, 127
2, 531080, Note_on_c, 1, 53, 127
2, 531080, Note_on_c, 1, 72, 127
2, 531080, Note_on_c, 1, 77, 127
2, 531080, Note_on_c, 1, 81, 127
2, 531240, Note_off_c, 1, 41, 0
2, 531240, Note_off_c, 1, 53, 0
2, 531240, Note_off_c, 1, 72, 0
2, 531240, Note_on_c, 1, 74, 127
2, 531280, Note_on_c, 1, 41, 127
2, 531280, Note_on_c, 1, 53, 127
2, 531280, Note_on_c, 1, 72, 127
2, 531280, Note_off_c, 1, 74, 0
2, 531440, Note_off_c, 1, 41, 0
2, 531440, Note_off_c, 1, 53, 0
2, 531440, Note_off_c, 1, 72, 0
2, 531440, Note_off_c, 1, 77, 0
2, 531440, Note_off_c, 1, 81, 0
2, 531480, Note_on_c, 1, 41, 127
2, 531480, Note_on_c, 1, 53, 127
2, 531480, Note_on_c, 1, 73, 127
2, 531480, Note_on_c, 1, 77, 127
2, 531480, Note_on_c, 1, 82, 127
2, 531640, Note_off_c, 1, 41, 0
2, 531640, Note_off_c, 1, 53, 0
2, 531680, Note_on_c, 1, 41, 127
2, 531680, Note_on_c, 1, 53, 127
2, 531720, Note_off_c, 1, 73, 0
2, 531720, Note_off_c, 1, 77, 0
2, 531720, Note_off_c, 1, 82, 0
2, 531760, Note_on_c, 1, 72, 127
2, 531760, Note_on_c, 1, 73, 127
2, 531760, Note_on_c, 1, 77, 127
2, 531760, Note_on_c, 1, 81, 127
2, 531800, Note_off_c, 1, 41, 0
2, 531800, Note_off_c, 1, 53, 0
2, 531800, Note_off_c, 1, 72, 0
2, 531800, Note_off_c, 1, 73, 0
2, 531800, Note_off_c, 1, 77, 0
2, 531800, Note_off_c, 1, 81, 0
2, 531880, Note_on_c, 1, 43, 127
2, 531880, Note_on_c, 1, 55, 127
2, 531880, Note_on_c, 1, 70, 127
2, 531880, Note_on_c, 1, 74, 127
2, 531880, Note_on_c, 1, 79, 127
2, 531880, Note_on_c, 1, 82, 127
2, 532000, Note_off_c, 1, 43, 0
2, 532000, Note_off_c, 1, 55, 0
2, 532040, Note_on_c, 1, 44, 127
2, 532040, Note_on_c, 1, 56, 127
2, 532120, Note_off_c, 1, 70, 0
2, 532120, Note_off_c, 1, 74, 0
2, 532120, Note_off_c, 1, 79, 0
2, 532120, Note_off_c, 1, 82, 0
2, 532160, Note_on_c, 1, 70, 127
2, 532160, Note_on_c, 1, 74, 127
2, 532160, Note_on_c, 1, 79, 127
2, 532160, Note_on_c, 1, 82, 127
2, 532200, Note_off_c, 1, 44, 0
2, 532200, Note_off_c, 1, 56, 0
2, 532200, Note_off_c, 1, 70, 0
2, 532200, Note_off_c, 1, 74, 0
2, 532200, Note_off_c, 1, 79, 0
2, 532200, Note_off_c, 1, 82, 0
2, 532240, Note_on_c, 1, 43, 127
2, 532240, Note_on_c, 1, 55, 127
2, 532240, Note_on_c, 1, 70, 127
2, 532240, Note_on_c, 1, 73, 127
2, 532240, Note_on_c, 1, 79, 127
2, 532240, Note_on_c, 1, 82, 127
2, 532400, Note_off_c, 1, 43, 0
2, 532400, Note_off_c, 1, 55, 0
2, 532400, Note_off_c, 1, 70, 0
2, 532400, Note_off_c, 1, 73, 0
2, 532400, Note_off_c, 1, 79, 0
2, 532400, Note_off_c, 1, 82, 0
2, 532440, Note_on_c, 1, 43, 127
2, 532440, Note_on_c, 1, 55, 127
2, 532440, Note_on_c, 1, 67, 127
2, 532440, Note_on_c, 1, 70, 127
2, 532440, Note_on_c, 1, 75, 127
2, 532600, Note_off_c, 1, 43, 0
2, 532600, Note_off_c, 1, 55, 0
2, 532600, Note_off_c, 1, 67, 0
2, 532600, Note_off_c, 1, 70, 0
2, 532600, Note_off_c, 1, 75, 0
2, 532640, Note_on_c, 1, 44, 127
2, 532640, Note_on_c, 1, 56, 127
2, 532640, Note_on_c, 1, 68, 127
2, 532640, Note_on_c, 1, 72, 127
2, 532640, Note_on_c, 1, 77, 127
2, 532760, Note_off_c, 1, 44, 0
2, 532760, Note_off_c, 1, 56, 0
2, 532760, Note_off_c, 1, 68, 0
2, 532760, Note_off_c, 1, 72, 0
2, 532760, Note_off_c, 1, 77, 0
2, 532840, Note_on_c, 1, 44, 127
2, 532840, Note_on_c, 1, 56, 127
2, 532840, Note_on_c, 1, 68, 127
2, 532840, Note_on_c, 1, 72, 127
2, 532840, Note_on_c, 1, 75, 127
2, 532840, Note_on_c, 1, 80, 127
2, 532960, Note_off_c, 1, 44, 0
2, 532960, Note_off_c, 1, 56, 0
2, 533000, Note_on_c, 1, 43, 127
2, 533000, Note_on_c, 1, 55, 127
2, 533080, Note_off_c, 1, 68, 0
2, 533080, Note_off_c, 1, 72, 0
2, 533080, Note_off_c, 1, 75, 0
2, 533080, Note_off_c, 1, 80, 0
2, 533120, Note_on_c, 1, 70, 127
2, 533120, Note_on_c, 1, 73, 127
2, 533120, Note_on_c, 1, 80, 127
2, 533160, Note_off_c, 1, 43, 0
2, 533160, Note_off_c, 1, 55, 0
2, 533160, Note_off_c, 1, 70, 0
2, 533160, Note_off_c, 1, 73, 0
2, 533160, Note_off_c, 1, 80, 0
2, 533200, Note_on_c, 1, 44, 127
2, 533200, Note_on_c, 1, 56, 127
2, 533200, Note_on_c, 1, 68, 127
2, 533200, Note_on_c, 1, 72, 127
2, 533200, Note_on_c, 1, 75, 127
2, 533200, Note_on_c, 1, 80, 127
2, 533360, Note_off_c, 1, 44, 0
2, 533360, Note_off_c, 1, 56, 0
2, 533360, Note_off_c, 1, 68, 0
2, 533360, Note_off_c, 1, 72, 0
2, 533360, Note_off_c, 1, 75, 0
2, 533360, Note_off_c, 1, 80, 0
2, 533800, Note_on_c, 1, 57, 127
2, 533800, Note_on_c, 1, 60, 127
2, 533800, Note_on_c, 1, 75, 127
2, 533800, Note_on_c, 1, 84, 127
2, 533920, Note_off_c, 1, 57, 0
2, 533920, Note_off_c, 1, 60, 0
2, 533920, Note_off_c, 1, 75, 0
2, 533920, Note_off_c, 1, 84, 0
2, 533960, Note_on_c, 1, 56, 127
2, 533960, Note_on_c, 1, 60, 127
2, 533960, Note_on_c, 1, 75, 127
2, 533960, Note_on_c, 1, 84, 127
2, 534120, Note_off_c, 1, 56, 0
2, 534120, Note_off_c, 1, 60, 0
2, 534120, Note_off_c, 1, 75, 0
2, 534120, Note_off_c, 1, 84, 0
2, 534160, Note_on_c, 1, 56, 127
2, 534160, Note_on_c, 1, 60, 127
2, 534160, Note_on_c, 1, 75, 127
2, 534160, Note_on_c, 1, 84, 127
2, 534320, Note_off_c, 1, 56, 0
2, 534320, Note_off_c, 1, 60, 0
2, 534320, Note_off_c, 1, 75, 0
2, 534320, Note_off_c, 1, 84, 0
2, 534360, Note_on_c, 1, 56, 127
2, 534360, Note_on_c, 1, 60, 127
2, 534360, Note_on_c, 1, 72, 127
2, 534360, Note_on_c, 1, 84, 127
2, 534520, Note_off_c, 1, 56, 0
2, 534520, Note_off_c, 1, 60, 0
2, 534520, Note_off_c, 1, 72, 0
2, 534520, Note_off_c, 1, 84, 0
2, 534560, Note_on_c, 1, 56, 127
2, 534560, Note_on_c, 1, 61, 127
2, 534680, Note_off_c, 1, 56, 0
2, 534680, Note_off_c, 1, 61, 0
2, 534760, Note_on_c, 1, 55, 127
2, 534760, Note_on_c, 1, 60, 127
2, 534760, Note_on_c, 1, 63, 127
2, 534760, Note_on_c, 1, 75, 127
2, 534760, Note_on_c, 1, 82, 127
2, 534880, Note_off_c, 1, 55, 0
2, 534880, Note_off_c, 1, 60, 0
2, 534880, Note_off_c, 1, 63, 0
2, 534880, Note_off_c, 1, 75, 0
2, 534880, Note_off_c, 1, 82, 0
2, 534920, Note_on_c, 1, 56, 127
2, 534920, Note_on_c, 1, 60, 127
2, 534920, Note_on_c, 1, 63, 127
2, 534920, Note_on_c, 1, 75, 127
2, 534920, Note_on_c, 1, 84, 127
2, 535080, Note_off_c, 1, 56, 0
2, 535080, Note_off_c, 1, 60, 0
2, 535080, Note_off_c, 1, 63, 0
2, 535080, Note_off_c, 1, 75, 0
2, 535080, Note_off_c, 1, 84, 0
2, 535120, Note_on_c, 1, 56, 127
2, 535120, Note_on_c, 1, 60, 127
2, 535120, Note_on_c, 1, 63, 127
2, 535120, Note_on_c, 1, 73, 127
2, 535120, Note_on_c, 1, 75, 127
2, 535280, Note_off_c, 1, 60, 0
2, 535280, Note_off_c, 1, 73, 0
2, 535280, Note_off_c, 1, 75, 0
2, 535320, Note_on_c, 1, 59, 127
2, 535320, Note_on_c, 1, 72, 127
2, 535320, Note_on_c, 1, 75, 127
2, 535360, Note_off_c, 1, 72, 0
2, 535360, Note_off_c, 1, 75, 0
2, 535400, Note_on_c, 1, 75, 127
2, 535480, Note_off_c, 1, 56, 0
2, 535480, Note_off_c, 1, 59, 0
2, 535480, Note_off_c, 1, 75, 0
2, 535520, Note_on_c, 1, 56, 127
2, 535520, Note_on_c, 1, 58, 127
2, 535520, Note_on_c, 1, 68, 127
2, 535520, Note_on_c, 1, 73, 127
2, 535600, Note_off_c, 1, 68, 0
2, 535640, Note_off_c, 1, 56, 0
2, 535640, Note_off_c, 1, 73, 0
2, 535720, Note_on_c, 1, 75, 127
2, 535760, Note_off_c, 1, 75, 0
2, 535800, Note_on_c, 1, 77, 127
2, 535840, Note_off_c, 1, 58, 0
2, 535840, Note_off_c, 1, 63, 0
2, 535840, Note_off_c, 1, 77, 0
2, 535880, Note_on_c, 1, 51, 127
2, 535880, Note_on_c, 1, 56, 127
2, 535880, Note_on_c, 1, 60, 127
2, 535880, Note_on_c, 1, 63, 127
2, 535880, Note_on_c, 1, 75, 127
2, 536040, Note_off_c, 1, 51, 0
2, 536120, Note_off_c, 1, 75, 0
2, 536200, Note_on_c, 1, 75, 127
2, 536240, Note_off_c, 1, 56, 0
2, 536240, Note_off_c, 1, 60, 0
2, 536240, Note_off_c, 1, 63, 0
2, 536240, Note_off_c, 1, 75, 0
2, 536280, Note_on_c, 1, 44, 127
2, 536280, Note_on_c, 1, 56, 127
2, 536280, Note_on_c, 1, 60, 127
2, 536280, Note_on_c, 1, 68, 127
2, 536280, Note_on_c, 1, 75, 127
2, 536440, Note_off_c, 1, 44, 0
2, 536640, Note_off_c, 1, 56, 0
2, 536680, Note_on_c, 1, 44, 127
2, 536680, Note_on_c, 1, 48, 127
2, 536800, Note_off_c, 1, 44, 0
2, 536800, Note_off_c, 1, 48, 0
2, 536840, Note_on_c, 1, 51, 127
2, 537000, Note_off_c, 1, 51, 0
2, 537000, Note_off_c, 1, 60, 0
2, 537000, Note_off_c, 1, 68, 0
2, 537000, Note_off_c, 1, 75, 0
2, 537040, Note_on_c, 1, 46, 127
2, 537040, Note_on_c, 1, 68, 127
2, 537040, Note_on_c, 1, 77, 127
2, 537200, Note_off_c, 1, 46, 0
2, 537200, Note_off_c, 1, 68, 0
2, 537200, Note_off_c, 1, 77, 0
2, 537240, Note_on_c, 1, 52, 127
2, 537240, Note_on_c, 1, 70, 127
2, 537240, Note_on_c, 1, 82, 127
2, 537400, Note_off_c, 1, 52, 0
2, 537400, Note_off_c, 1, 70, 0
2, 537400, Note_off_c, 1, 82, 0
2, 537440, Note_on_c, 1, 73, 127
2, 537440, Note_on_c, 1, 85, 127
2, 537560, Note_off_c, 1, 73, 0
2, 537560, Note_off_c, 1, 85, 0
2, 537640, Note_on_c, 1, 72, 127
2, 537640, Note_on_c, 1, 84, 127
2, 537760, Note_off_c, 1, 72, 0
2, 537760, Note_off_c, 1, 84, 0
2, 537800, Note_on_c, 1, 50, 127
2, 537800, Note_on_c, 1, 70, 127
2, 537800, Note_on_c, 1, 82, 127
2, 537960, Note_off_c, 1, 50, 0
2, 538000, Note_on_c, 1, 53, 127
2, 538160, Note_off_c, 1, 53, 0
2, 538160, Note_off_c, 1, 70, 0
2, 538160, Note_off_c, 1, 82, 0
2, 538200, Note_on_c, 1, 51, 127
2, 538200, Note_on_c, 1, 58, 127
2, 538200, Note_on_c, 1, 67, 127
2, 538200, Note_on_c, 1, 79, 127
2, 538240, Note_off_c, 1, 67, 0
2, 538240, Note_off_c, 1, 79, 0
2, 538360, Note_off_c, 1, 51, 0
2, 538360, Note_off_c, 1, 58, 0
2, 538400, Note_on_c, 1, 55, 127
2, 538400, Note_on_c, 1, 63, 127
2, 538520, Note_off_c, 1, 55, 0
2, 538520, Note_off_c, 1, 63, 0
2, 538600, Note_on_c, 1, 44, 127
2, 538600, Note_on_c, 1, 56, 127
2, 538600, Note_on_c, 1, 58, 127
2, 538600, Note_on_c, 1, 75, 127
2, 538640, Note_off_c, 1, 44, 0
2, 538640, Note_off_c, 1, 56, 0
2, 538640, Note_off_c, 1, 58, 0
2, 538640, Note_off_c, 1, 75, 0
2, 539000, Note_on_c, 1, 44, 127
2, 539000, Note_on_c, 1, 56, 127
2, 539000, Note_on_c, 1, 63, 127
2, 539000, Note_on_c, 1, 72, 127
2, 539120, Note_off_c, 1, 44, 0
2, 539120, Note_off_c, 1, 56, 0
2, 539120, Note_off_c, 1, 63, 0
2, 539120, Note_off_c, 1, 72, 0
2, 539160, Note_on_c, 1, 44, 127
2, 539160, Note_on_c, 1, 56, 127
2, 539160, Note_on_c, 1, 60, 127
2, 539160, Note_on_c, 1, 68, 127
2, 539320, Note_off_c, 1, 44, 0
2, 539320, Note_off_c, 1, 56, 0
2, 539320, Note_off_c, 1, 60, 0
2, 539320, Note_off_c, 1, 68, 0
2, 539360, Note_on_c, 1, 44, 127
2, 539360, Note_on_c, 1, 56, 127
2, 539360, Note_on_c, 1, 60, 127
2, 539360, Note_on_c, 1, 68, 127
2, 539520, Note_off_c, 1, 44, 0
2, 539520, Note_off_c, 1, 56, 0
2, 539520, Note_off_c, 1, 60, 0
2, 539520, Note_off_c, 1, 68, 0
2, 539560, Note_on_c, 1, 44, 127
2, 539560, Note_on_c, 1, 56, 127
2, 539560, Note_on_c, 1, 63, 127
2, 539560, Note_on_c, 1, 68, 127
2, 539600, Note_off_c, 1, 44, 0
2, 539600, Note_off_c, 1, 56, 0
2, 539600, Note_off_c, 1, 63, 0
2, 539600, Note_off_c, 1, 68, 0
2, 539760, Note_on_c, 1, 39, 127
2, 539760, Note_on_c, 1, 51, 127
2, 539760, Note_on_c, 1, 63, 127
2, 539760, Note_on_c, 1, 67, 127
2, 539800, Note_off_c, 1, 39, 0
2, 539800, Note_off_c, 1, 51, 0
2, 539800, Note_off_c, 1, 63, 0
2, 539800, Note_off_c, 1, 67, 0
2, 539960, Note_on_c, 1, 39, 127
2, 539960, Note_on_c, 1, 51, 127
2, 539960, Note_on_c, 1, 63, 127
2, 540000, Note_off_c, 1, 39, 0
2, 540000, Note_off_c, 1, 51, 0
2, 540000, Note_off_c, 1, 63, 0
2, 540120, Note_on_c, 1, 43, 127
2, 540120, Note_on_c, 1, 55, 127
2, 540120, Note_on_c, 1, 63, 127
2, 540120, Note_on_c, 1, 74, 127
2, 540280, Note_off_c, 1, 43, 0
2, 540280, Note_off_c, 1, 55, 0
2, 540320, Note_on_c, 1, 43, 127
2, 540320, Note_on_c, 1, 55, 127
2, 540480, Note_off_c, 1, 43, 0
2, 540480, Note_off_c, 1, 55, 0
2, 540480, Note_off_c, 1, 63, 0
2, 540480, Note_off_c, 1, 74, 0
2, 540520, Note_on_c, 1, 43, 127
2, 540520, Note_on_c, 1, 55, 127
2, 540520, Note_on_c, 1, 63, 127
2, 540520, Note_on_c, 1, 75, 127
2, 540680, Note_off_c, 1, 43, 0
2, 540680, Note_off_c, 1, 55, 0
2, 540680, Note_off_c, 1, 63, 0
2, 540720, Note_on_c, 1, 43, 127
2, 540720, Note_on_c, 1, 55, 127
2, 540720, Note_on_c, 1, 63, 127
2, 540840, Note_off_c, 1, 43, 0
2, 540840, Note_off_c, 1, 55, 0
2, 540840, Note_off_c, 1, 63, 0
2, 540840, Note_off_c, 1, 75, 0
2, 540920, Note_on_c, 1, 38, 127
2, 540920, Note_on_c, 1, 51, 127
2, 540920, Note_on_c, 1, 62, 127
2, 540920, Note_on_c, 1, 74, 127
2, 541040, Note_off_c, 1, 38, 0
2, 541040, Note_off_c, 1, 51, 0
2, 541040, Note_off_c, 1, 62, 0
2, 541040, Note_off_c, 1, 74, 0
2, 541080, Note_on_c, 1, 38, 127
2, 541080, Note_on_c, 1, 50, 127
2, 541080, Note_on_c, 1, 66, 127
2, 541080, Note_on_c, 1, 69, 127
2, 541080, Note_on_c, 1, 75, 127
2, 541240, Note_off_c, 1, 38, 0
2, 541240, Note_off_c, 1, 50, 0
2, 541240, Note_off_c, 1, 66, 0
2, 541240, Note_off_c, 1, 69, 0
2, 541240, Note_off_c, 1, 75, 0
2, 541280, Note_on_c, 1, 34, 127
2, 541280, Note_on_c, 1, 46, 127
2, 541280, Note_on_c, 1, 66, 127
2, 541280, Note_on_c, 1, 69, 127
2, 541280, Note_on_c, 1, 75, 127
2, 541440, Note_off_c, 1, 34, 0
2, 541440, Note_off_c, 1, 46, 0
2, 541440, Note_off_c, 1, 66, 0
2, 541440, Note_off_c, 1, 69, 0
2, 541440, Note_off_c, 1, 75, 0
2, 541480, Note_on_c, 1, 34, 127
2, 541480, Note_on_c, 1, 46, 127
2, 541480, Note_on_c, 1, 66, 127
2, 541480, Note_on_c, 1, 70, 127
2, 541480, Note_on_c, 1, 75, 127
2, 541480, Note_on_c, 1, 78, 127
2, 541640, Note_off_c, 1, 34, 0
2, 541640, Note_off_c, 1, 46, 0
2, 541640, Note_off_c, 1, 66, 0
2, 541680, Note_on_c, 1, 34, 127
2, 541680, Note_on_c, 1, 46, 127
2, 541800, Note_off_c, 1, 34, 0
2, 541800, Note_off_c, 1, 46, 0
2, 541800, Note_off_c, 1, 70, 0
2, 541880, Note_on_c, 1, 34, 127
2, 541880, Note_on_c, 1, 46, 127
2, 541880, Note_on_c, 1, 70, 127
2, 542000, Note_off_c, 1, 34, 0
2, 542000, Note_off_c, 1, 46, 0
2, 542000, Note_off_c, 1, 70, 0
2, 542000, Note_off_c, 1, 75, 0
2, 542000, Note_off_c, 1, 78, 0
2, 542040, Note_on_c, 1, 39, 127
2, 542040, Note_on_c, 1, 46, 127
2, 542040, Note_on_c, 1, 70, 127
2, 542040, Note_on_c, 1, 75, 127
2, 542040, Note_on_c, 1, 78, 127
2, 542200, Note_off_c, 1, 39, 0
2, 542200, Note_off_c, 1, 46, 0
2, 542200, Note_off_c, 1, 70, 0
2, 542200, Note_off_c, 1, 75, 0
2, 542200, Note_off_c, 1, 78, 0
2, 542240, Note_on_c, 1, 39, 127
2, 542240, Note_on_c, 1, 51, 127
2, 542240, Note_on_c, 1, 70, 127
2, 542240, Note_on_c, 1, 75, 127
2, 542240, Note_on_c, 1, 78, 127
2, 542400, Note_off_c, 1, 39, 0
2, 542400, Note_off_c, 1, 51, 0
2, 542440, Note_on_c, 1, 39, 127
2, 542440, Note_on_c, 1, 51, 127
2, 542480, Note_off_c, 1, 70, 0
2, 542480, Note_off_c, 1, 75, 0
2, 542480, Note_off_c, 1, 78, 0
2, 542520, Note_on_c, 1, 70, 127
2, 542520, Note_on_c, 1, 75, 127
2, 542520, Note_on_c, 1, 78, 127
2, 542560, Note_off_c, 1, 70, 0
2, 542560, Note_off_c, 1, 75, 0
2, 542560, Note_off_c, 1, 78, 0
2, 542600, Note_off_c, 1, 39, 0
2, 542600, Note_off_c, 1, 51, 0
2, 542640, Note_on_c, 1, 42, 127
2, 542640, Note_on_c, 1, 54, 127
2, 542640, Note_on_c, 1, 70, 127
2, 542640, Note_on_c, 1, 75, 127
2, 542640, Note_on_c, 1, 78, 127
2, 542760, Note_off_c, 1, 42, 0
2, 542760, Note_off_c, 1, 54, 0
2, 542760, Note_off_c, 1, 70, 0
2, 542800, Note_on_c, 1, 70, 127
2, 542840, Note_on_c, 1, 39, 127
2, 542840, Note_on_c, 1, 51, 127
2, 542960, Note_off_c, 1, 39, 0
2, 542960, Note_off_c, 1, 51, 0
2, 542960, Note_off_c, 1, 70, 0
2, 542960, Note_off_c, 1, 75, 0
2, 542960, Note_off_c, 1, 78, 0
2, 543000, Note_on_c, 1, 39, 127
2, 543000, Note_on_c, 1, 51, 127
2, 543160, Note_off_c, 1, 39, 0
2, 543160, Note_off_c, 1, 51, 0
2, 543200, Note_on_c, 1, 39, 127
2, 543200, Note_on_c, 1, 51, 127
2, 543360, Note_off_c, 1, 39, 0
2, 543360, Note_off_c, 1, 51, 0
2, 543400, Note_on_c, 1, 37, 127
2, 543400, Note_on_c, 1, 49, 127
2, 543400, Note_on_c, 1, 66, 127
2, 543400, Note_on_c, 1, 73, 127
2, 543400, Note_on_c, 1, 78, 127
2, 543560, Note_off_c, 1, 37, 0
2, 543560, Note_off_c, 1, 49, 0
2, 543600, Note_on_c, 1, 37, 127
2, 543600, Note_on_c, 1, 49, 127
2, 543640, Note_off_c, 1, 66, 0
2, 543640, Note_off_c, 1, 73, 0
2, 543640, Note_off_c, 1, 78, 0
2, 543680, Note_on_c, 1, 70, 127
2, 543680, Note_on_c, 1, 73, 127
2, 543720, Note_off_c, 1, 37, 0
2, 543720, Note_off_c, 1, 49, 0
2, 543720, Note_off_c, 1, 70, 0
2, 543720, Note_off_c, 1, 73, 0
2, 543800, Note_on_c, 1, 37, 127
2, 543800, Note_on_c, 1, 49, 127
2, 543800, Note_on_c, 1, 68, 127
2, 543800, Note_on_c, 1, 71, 127
2, 543840, Note_off_c, 1, 68, 0
2, 543840, Note_off_c, 1, 71, 0
2, 543880, Note_on_c, 1, 68, 127
2, 543880, Note_on_c, 1, 71, 127
2, 543920, Note_off_c, 1, 37, 0
2, 543920, Note_off_c, 1, 49, 0
2, 543960, Note_on_c, 1, 37, 127
2, 543960, Note_on_c, 1, 49, 127
2, 544040, Note_off_c, 1, 68, 0
2, 544040, Note_off_c, 1, 71, 0
2, 544080, Note_on_c, 1, 66, 127
2, 544120, Note_off_c, 1, 37, 0
2, 544120, Note_off_c, 1, 49, 0
2, 544120, Note_off_c, 1, 66, 0
2, 544160, Note_on_c, 1, 37, 127
2, 544160, Note_on_c, 1, 49, 127
2, 544160, Note_on_c, 1, 65, 127
2, 544160, Note_on_c, 1, 71, 127
2, 544200, Note_off_c, 1, 37, 0
2, 544200, Note_off_c, 1, 65, 0
2, 544200, Note_off_c, 1, 71, 0
2, 544280, Note_on_c, 1, 51, 127
2, 544320, Note_off_c, 1, 49, 0
2, 544320, Note_off_c, 1, 51, 0
2, 544360, Note_on_c, 1, 49, 127
2, 544360, Note_on_c, 1, 61, 127
2, 544360, Note_on_c, 1, 73, 127
2, 544400, Note_off_c, 1, 49, 0
2, 544400, Note_off_c, 1, 61, 0
2, 544400, Note_off_c, 1, 73, 0
2, 544440, Note_on_c, 1, 48, 127
2, 544520, Note_off_c, 1, 48, 0
2, 544560, Note_on_c, 1, 37, 127
2, 544560, Note_on_c, 1, 65, 127
2, 544560, Note_on_c, 1, 73, 127
2, 544560, Note_on_c, 1, 80, 127
2, 544600, Note_on_c, 1, 49, 127
2, 544680, Note_off_c, 1, 65, 0
2, 544680, Note_off_c, 1, 73, 0
2, 544680, Note_off_c, 1, 80, 0
2, 544760, Note_on_c, 1, 66, 127
2, 544760, Note_on_c, 1, 72, 127
2, 544880, Note_off_c, 1, 37, 0
2, 544880, Note_off_c, 1, 49, 0
2, 544880, Note_off_c, 1, 66, 0
2, 544880, Note_off_c, 1, 72, 0
2, 544920, Note_on_c, 1, 37, 127
2, 544920, Note_on_c, 1, 49, 127
2, 544920, Note_on_c, 1, 65, 127
2, 544920, Note_on_c, 1, 73, 127
2, 544920, Note_on_c, 1, 77, 127
2, 545080, Note_off_c, 1, 65, 0
2, 545080, Note_off_c, 1, 73, 0
2, 545080, Note_off_c, 1, 77, 0
2, 545120, Note_on_c, 1, 66, 127
2, 545280, Note_off_c, 1, 66, 0
2, 545320, Note_on_c, 1, 61, 127
2, 545320, Note_on_c, 1, 65, 127
2, 545480, Note_off_c, 1, 61, 0
2, 545480, Note_off_c, 1, 65, 0
2, 545520, Note_on_c, 1, 60, 127
2, 545640, Note_off_c, 1, 60, 0
2, 545720, Note_on_c, 1, 61, 127
2, 545840, Note_off_c, 1, 37, 0
2, 545840, Note_off_c, 1, 49, 0
2, 545840, Note_off_c, 1, 61, 0
2, 545880, Note_on_c, 1, 41, 127
2, 545880, Note_on_c, 1, 53, 127
2, 545880, Note_on_c, 1, 56, 127
2, 545880, Note_on_c, 1, 65, 127
2, 546040, Note_off_c, 1, 65, 0
2, 546080, Note_on_c, 1, 61, 127
2, 546080, Note_on_c, 1, 63, 127
2, 546080, Note_on_c, 1, 66, 127
2, 546080, Note_on_c, 1, 75, 127
2, 546240, Note_off_c, 1, 41, 0
2, 546240, Note_off_c, 1, 53, 0
2, 546240, Note_off_c, 1, 56, 0
2, 546240, Note_off_c, 1, 61, 0
2, 546240, Note_off_c, 1, 63, 0
2, 546240, Note_off_c, 1, 66, 0
2, 546240, Note_off_c, 1, 75, 0
2, 546280, Note_on_c, 1, 39, 127
2, 546280, Note_on_c, 1, 51, 127
2, 546280, Note_on_c, 1, 63, 127
2, 546280, Note_on_c, 1, 66, 127
2, 546600, Note_off_c, 1, 39, 0
2, 546600, Note_off_c, 1, 51, 0
2, 546680, Note_on_c, 1, 70, 127
2, 546680, Note_on_c, 1, 73, 127
2, 546720, Note_off_c, 1, 63, 0
2, 546800, Note_off_c, 1, 73, 0
2, 546840, Note_on_c, 1, 63, 127
2, 546840, Note_on_c, 1, 72, 127
2, 546920, Note_off_c, 1, 63, 0
2, 546920, Note_off_c, 1, 66, 0
2, 546920, Note_off_c, 1, 70, 0
2, 546960, Note_on_c, 1, 61, 127
2, 547000, Note_off_c, 1, 61, 0
2, 547000, Note_off_c, 1, 72, 0
2, 547040, Note_on_c, 1, 60, 127
2, 547040, Note_on_c, 1, 72, 127
2, 547080, Note_off_c, 1, 60, 0
2, 547080, Note_off_c, 1, 72, 0
2, 547160, Note_on_c, 1, 63, 127
2, 547160, Note_on_c, 1, 75, 127
2, 547200, Note_off_c, 1, 63, 0
2, 547200, Note_off_c, 1, 75, 0
2, 547240, Note_on_c, 1, 60, 127
2, 547240, Note_on_c, 1, 75, 127
2, 547280, Note_off_c, 1, 60, 0
2, 547280, Note_off_c, 1, 75, 0
2, 547320, Note_on_c, 1, 63, 127
2, 547320, Note_on_c, 1, 72, 127
2, 547400, Note_off_c, 1, 63, 0
2, 547400, Note_off_c, 1, 72, 0
2, 547440, Note_on_c, 1, 37, 127
2, 547440, Note_on_c, 1, 49, 127
2, 547440, Note_on_c, 1, 61, 127
2, 547440, Note_on_c, 1, 65, 127
2, 547440, Note_on_c, 1, 68, 127
2, 547440, Note_on_c, 1, 73, 127
2, 547600, Note_off_c, 1, 37, 0
2, 547640, Note_off_c, 1, 49, 0
2, 547640, Note_on_c, 1, 53, 127
2, 547760, Note_off_c, 1, 53, 0
2, 547760, Note_off_c, 1, 61, 0
2, 547800, Note_on_c, 1, 45, 127
2, 547800, Note_on_c, 1, 49, 127
2, 548160, Note_off_c, 1, 45, 0
2, 548160, Note_off_c, 1, 49, 0
2, 548160, Note_off_c, 1, 65, 0
2, 548160, Note_off_c, 1, 68, 0
2, 548160, Note_off_c, 1, 73, 0
2, 548200, Note_on_c, 1, 77, 127
2, 548360, Note_off_c, 1, 77, 0
2, 548400, Note_on_c, 1, 79, 127
2, 548440, Note_off_c, 1, 79, 0
2, 548480, Note_on_c, 1, 80, 127
2, 548520, Note_off_c, 1, 80, 0
2, 548600, Note_on_c, 1, 80, 127
2, 548720, Note_off_c, 1, 80, 0
2, 548760, Note_on_c, 1, 83, 127
2, 548840, Note_off_c, 1, 83, 0
2, 548960, Note_on_c, 1, 84, 127
2, 549000, Note_off_c, 1, 84, 0
2, 549160, Note_on_c, 1, 84, 127
2, 549200, Note_off_c, 1, 84, 0
2, 549360, Note_on_c, 1, 82, 127
2, 549480, Note_off_c, 1, 82, 0
2, 549560, Note_on_c, 1, 80, 127
2, 549680, Note_off_c, 1, 80, 0
2, 549720, Note_on_c, 1, 65, 127
2, 549720, Note_on_c, 1, 74, 127
2, 549720, Note_on_c, 1, 77, 127
2, 549720, Note_on_c, 1, 80, 127
2, 549880, Note_off_c, 1, 65, 0
2, 549880, Note_off_c, 1, 74, 0
2, 549880, Note_off_c, 1, 77, 0
2, 549880, Note_off_c, 1, 80, 0
2, 549920, Note_on_c, 1, 83, 127
2, 550080, Note_off_c, 1, 83, 0
2, 550120, Note_on_c, 1, 83, 127
2, 550160, Note_off_c, 1, 83, 0
2, 550320, Note_on_c, 1, 80, 127
2, 550360, Note_off_c, 1, 80, 0
2, 550520, Note_on_c, 1, 72, 127
2, 550520, Note_on_c, 1, 80, 127
2, 550640, Note_off_c, 1, 80, 0
2, 550680, Note_on_c, 1, 78, 127
2, 550840, Note_off_c, 1, 72, 0
2, 550840, Note_off_c, 1, 78, 0
2, 550880, Note_on_c, 1, 73, 127
2, 550880, Note_on_c, 1, 77, 127
2, 550880, Note_on_c, 1, 80, 127
2, 551040, Note_off_c, 1, 80, 0
2, 551240, Note_off_c, 1, 73, 0
2, 551240, Note_off_c, 1, 77, 0
2, 551280, Note_on_c, 1, 78, 127
2, 551280, Note_on_c, 1, 80, 127
2, 551400, Note_off_c, 1, 78, 0
2, 551400, Note_off_c, 1, 80, 0
2, 551480, Note_on_c, 1, 75, 127
2, 551480, Note_on_c, 1, 80, 127
2, 551600, Note_off_c, 1, 75, 0
2, 551600, Note_off_c, 1, 80, 0
2, 551640, Note_on_c, 1, 77, 127
2, 551640, Note_on_c, 1, 80, 127
2, 551800, Note_off_c, 1, 77, 0
2, 551800, Note_off_c, 1, 80, 0
2, 551840, Note_on_c, 1, 78, 127
2, 551840, Note_on_c, 1, 80, 127
2, 551960, Note_on_c, 1, 75, 127
2, 551960, Note_off_c, 1, 80, 0
2, 552000, Note_off_c, 1, 75, 0
2, 552000, Note_off_c, 1, 78, 0
2, 552040, Note_on_c, 1, 77, 127
2, 552040, Note_on_c, 1, 80, 127
2, 552200, Note_off_c, 1, 77, 0
2, 552200, Note_off_c, 1, 80, 0
2, 552240, Note_on_c, 1, 77, 127
2, 552240, Note_on_c, 1, 80, 127
2, 552360, Note_off_c, 1, 77, 0
2, 552360, Note_off_c, 1, 80, 0
2, 552440, Note_on_c, 1, 73, 127
2, 552440, Note_on_c, 1, 77, 127
2, 552440, Note_on_c, 1, 85, 127
2, 552560, Note_off_c, 1, 73, 0
2, 552560, Note_off_c, 1, 77, 0
2, 552560, Note_off_c, 1, 85, 0
2, 552600, Note_on_c, 1, 85, 127
2, 552760, Note_off_c, 1, 85, 0
2, 552800, Note_on_c, 1, 86, 127
2, 552960, Note_off_c, 1, 86, 0
2, 553000, Note_on_c, 1, 86, 127
2, 553160, Note_off_c, 1, 86, 0
2, 553200, Note_on_c, 1, 86, 127
2, 553240, Note_off_c, 1, 86, 0
2, 553400, Note_on_c, 1, 83, 127
2, 553440, Note_off_c, 1, 83, 0
2, 553560, Note_on_c, 1, 84, 127
2, 553720, Note_off_c, 1, 84, 0
2, 553760, Note_on_c, 1, 89, 127
2, 553920, Note_off_c, 1, 89, 0
2, 553960, Note_on_c, 1, 65, 127
2, 553960, Note_on_c, 1, 68, 127
2, 553960, Note_on_c, 1, 73, 127
2, 553960, Note_on_c, 1, 85, 127
2, 554120, Note_off_c, 1, 85, 0
2, 554160, Note_on_c, 1, 80, 127
2, 554280, Note_off_c, 1, 65, 0
2, 554280, Note_off_c, 1, 68, 0
2, 554280, Note_off_c, 1, 73, 0
2, 554280, Note_off_c, 1, 80, 0
2, 554680, Note_on_c, 1, 76, 127
2, 554720, Note_off_c, 1, 76, 0
2, 554760, Note_on_c, 1, 76, 127
2, 554800, Note_off_c, 1, 76, 0
2, 554880, Note_on_c, 1, 78, 127
2, 554960, Note_off_c, 1, 78, 0
2, 555040, Note_on_c, 1, 77, 127
2, 555120, Note_off_c, 1, 77, 0
2, 555240, Note_on_c, 1, 78, 127
2, 555280, Note_off_c, 1, 78, 0
2, 555440, Note_on_c, 1, 78, 127
2, 555520, Note_off_c, 1, 78, 0
2, 555640, Note_on_c, 1, 80, 127
2, 555720, Note_off_c, 1, 80, 0
2, 555840, Note_on_c, 1, 80, 127
2, 555920, Note_off_c, 1, 80, 0
2, 556000, Note_on_c, 1, 78, 127
2, 556120, Note_off_c, 1, 78, 0
2, 556200, Note_on_c, 1, 80, 127
2, 556320, Note_off_c, 1, 80, 0
2, 556400, Note_on_c, 1, 73, 127
2, 556520, Note_off_c, 1, 73, 0
2, 556600, Note_on_c, 1, 80, 127
2, 556680, Note_off_c, 1, 80, 0
2, 556800, Note_on_c, 1, 68, 127
2, 556800, Note_on_c, 1, 73, 127
2, 556960, Note_on_c, 1, 54, 127
2, 557080, Note_off_c, 1, 54, 0
2, 557080, Note_off_c, 1, 68, 0
2, 557080, Note_off_c, 1, 73, 0
2, 557160, Note_on_c, 1, 56, 127
2, 557160, Note_on_c, 1, 63, 127
2, 557160, Note_on_c, 1, 72, 127
2, 557200, Note_off_c, 1, 72, 0
2, 557280, Note_on_c, 1, 73, 127
2, 557320, Note_off_c, 1, 73, 0
2, 557360, Note_on_c, 1, 71, 127
2, 557400, Note_off_c, 1, 71, 0
2, 557440, Note_off_c, 1, 56, 0
2, 557440, Note_on_c, 1, 73, 127
2, 557520, Note_off_c, 1, 63, 0
2, 557520, Note_off_c, 1, 73, 0
2, 557560, Note_on_c, 1, 56, 127
2, 557560, Note_on_c, 1, 63, 127
2, 557560, Note_on_c, 1, 72, 127
2, 557680, Note_off_c, 1, 72, 0
2, 557760, Note_on_c, 1, 73, 127
2, 557800, Note_off_c, 1, 73, 0
2, 557840, Note_off_c, 1, 56, 0
2, 557840, Note_off_c, 1, 63, 0
2, 557840, Note_on_c, 1, 72, 127
2, 557920, Note_on_c, 1, 70, 127
2, 558000, Note_off_c, 1, 70, 0
2, 558120, Note_on_c, 1, 58, 127
2, 558120, Note_on_c, 1, 64, 127
2, 558280, Note_off_c, 1, 64, 0
2, 558320, Note_on_c, 1, 63, 127
2, 558480, Note_off_c, 1, 58, 0
2, 558520, Note_on_c, 1, 60, 127
2, 558520, Note_off_c, 1, 72, 0
2, 558560, Note_on_c, 1, 73, 127
2, 558600, Note_off_c, 1, 73, 0
2, 558640, Note_off_c, 1, 60, 0
2, 558640, Note_on_c, 1, 72, 127
2, 558680, Note_on_c, 1, 70, 127
2, 558680, Note_off_c, 1, 72, 0
2, 558720, Note_on_c, 1, 58, 127
2, 558720, Note_off_c, 1, 70, 0
2, 558720, Note_on_c, 1, 72, 127
2, 558840, Note_off_c, 1, 58, 0
2, 558840, Note_off_c, 1, 63, 0
2, 558840, Note_off_c, 1, 72, 0
2, 558840, Note_on_c, 1, 73, 127
2, 558880, Note_on_c, 1, 61, 127
2, 558880, Note_on_c, 1, 65, 127
2, 559040, Note_off_c, 1, 61, 0
2, 559080, Note_on_c, 1, 56, 127
2, 559240, Note_off_c, 1, 56, 0
2, 559280, Note_on_c, 1, 58, 127
2, 559440, Note_off_c, 1, 58, 0
2, 559440, Note_off_c, 1, 73, 0
2, 559480, Note_on_c, 1, 60, 127
2, 559480, Note_on_c, 1, 75, 127
2, 559600, Note_off_c, 1, 60, 0
2, 559600, Note_off_c, 1, 75, 0
2, 559680, Note_on_c, 1, 57, 127
2, 559680, Note_on_c, 1, 77, 127
2, 559800, Note_off_c, 1, 57, 0
2, 559800, Note_off_c, 1, 65, 0
2, 559800, Note_off_c, 1, 77, 0
2, 559840, Note_on_c, 1, 58, 127
2, 559840, Note_on_c, 1, 75, 127
2, 560000, Note_off_c, 1, 75, 0
2, 560040, Note_on_c, 1, 72, 127
2, 560200, Note_off_c, 1, 58, 0
2, 560200, Note_off_c, 1, 72, 0
2, 560240, Note_on_c, 1, 78, 127
2, 560400, Note_off_c, 1, 78, 0
2, 560440, Note_on_c, 1, 85, 127
2, 560560, Note_off_c, 1, 85, 0
2, 560640, Note_on_c, 1, 82, 127
2, 560760, Note_off_c, 1, 82, 0
2, 560800, Note_on_c, 1, 80, 127
2, 560960, Note_off_c, 1, 80, 0
2, 561000, Note_on_c, 1, 77, 127
2, 561160, Note_off_c, 1, 77, 0
2, 561200, Note_on_c, 1, 72, 127
2, 561360, Note_off_c, 1, 72, 0
2, 561400, Note_on_c, 1, 70, 127
2, 561520, Note_off_c, 1, 70, 0
2, 561600, Note_on_c, 1, 69, 127
2, 561720, Note_off_c, 1, 69, 0
2, 561760, Note_on_c, 1, 41, 127
2, 561760, Note_on_c, 1, 53, 127
2, 561760, Note_on_c, 1, 72, 127
2, 561920, Note_off_c, 1, 72, 0
2, 561960, Note_on_c, 1, 70, 127
2, 562120, Note_off_c, 1, 41, 0
2, 562120, Note_off_c, 1, 53, 0
2, 562120, Note_off_c, 1, 70, 0
2, 562160, Note_on_c, 1, 46, 127
2, 562160, Note_on_c, 1, 58, 127
2, 562160, Note_on_c, 1, 61, 127
2, 562320, Note_off_c, 1, 61, 0
2, 562360, Note_on_c, 1, 65, 127
2, 562480, Note_off_c, 1, 65, 0
2, 562720, Note_on_c, 1, 65, 127
2, 562880, Note_off_c, 1, 46, 0
2, 562880, Note_off_c, 1, 58, 0
2, 562880, Note_off_c, 1, 65, 0
2, 562920, Note_on_c, 1, 32, 127
2, 562920, Note_on_c, 1, 44, 127
2, 562920, Note_on_c, 1, 61, 127
2, 562920, Note_on_c, 1, 65, 127
2, 563080, Note_off_c, 1, 61, 0
2, 563080, Note_off_c, 1, 65, 0
2, 563240, Note_off_c, 1, 32, 0
2, 563240, Note_off_c, 1, 44, 0
2, 563680, Note_on_c, 1, 75, 127
2, 563680, Note_on_c, 1, 78, 127
2, 564000, Note_off_c, 1, 75, 0
2, 564000, Note_off_c, 1, 78, 0
2, 564080, Note_on_c, 1, 76, 127
2, 564080, Note_on_c, 1, 80, 127
2, 564240, Note_on_c, 1, 44, 127
2, 564240, Note_on_c, 1, 52, 127
2, 564400, Note_off_c, 1, 44, 0
2, 564400, Note_off_c, 1, 52, 0
2, 564400, Note_off_c, 1, 76, 0
2, 564400, Note_off_c, 1, 80, 0
2, 564440, Note_on_c, 1, 73, 127
2, 564440, Note_on_c, 1, 76, 127
2, 564600, Note_off_c, 1, 73, 0
2, 564600, Note_off_c, 1, 76, 0
2, 564640, Note_on_c, 1, 40, 127
2, 564640, Note_on_c, 1, 52, 127
2, 564640, Note_on_c, 1, 56, 127
2, 564640, Note_on_c, 1, 61, 127
2, 564640, Note_on_c, 1, 65, 127
2, 564640, Note_on_c, 1, 73, 127
2, 564640, Note_on_c, 1, 76, 127
2, 564680, Note_on_c, 1, 64, 127
2, 564680, Note_off_c, 1, 65, 0
2, 564800, Note_off_c, 1, 40, 0
2, 564800, Note_off_c, 1, 52, 0
2, 564800, Note_off_c, 1, 56, 0
2, 564800, Note_off_c, 1, 61, 0
2, 564800, Note_off_c, 1, 64, 0
2, 564800, Note_off_c, 1, 73, 0
2, 564800, Note_off_c, 1, 76, 0
2, 564840, End_track
3, 0, Start_track
3, 0, Title_t, "MIDI"
3, 1536, End_track
0, 0, End_of_file
