0, 0, Header, 1, 3, 384
1, 0, Start_track
1, 0, Time_signature, 4, 2, 24, 8
1, 0, Tempo, 500000
1, 109640, End_track
2, 0, Start_track
2, 0, Text_t, "harpsichord: John Sankey"
2, 0, Title_t, "Track 1"
2, 0, Note_on_c, 1, 66, 127
2, 40, Note_off_c, 1, 66, 0
2, 80, Note_on_c, 1, 57, 127
2, 120, Note_off_c, 1, 57, 0
2, 160, Note_on_c, 1, 55, 127
2, 200, Note_on_c, 1, 54, 127
2, 200, Note_off_c, 1, 55, 0
2, 240, Note_off_c, 1, 54, 0
2, 280, Note_on_c, 1, 51, 127
2, 320, Note_off_c, 1, 51, 0
2, 360, Note_on_c, 1, 42, 127
2, 400, Note_off_c, 1, 42, 0
2, 440, Note_on_c, 1, 48, 127
2, 480, Note_on_c, 1, 46, 127
2, 480, Note_off_c, 1, 48, 0
2, 520, Note_off_c, 1, 46, 0
2, 560, Note_on_c, 1, 50, 127
2, 600, Note_off_c, 1, 50, 0
2, 640, Note_on_c, 1, 48, 127
2, 760, Note_on_c, 1, 60, 127
2, 760, Note_on_c, 1, 66, 127
2, 760, Note_on_c, 1, 69, 127
2, 1640, Note_off_c, 1, 48, 0
2, 1640, Note_off_c, 1, 60, 0
2, 1640, Note_off_c, 1, 66, 0
2, 1640, Note_off_c, 1, 69, 0
2, 1680, Note_on_c, 1, 51, 127
2, 1680, Note_on_c, 1, 60, 127
2, 1680, Note_on_c, 1, 66, 127
2, 1680, Note_on_c, 1, 69, 127
2, 2400, Note_off_c, 1, 51, 0
2, 2400, Note_off_c, 1, 60, 0
2, 2400, Note_off_c, 1, 66, 0
2, 2400, Note_off_c, 1, 69, 0
2, 2440, Note_on_c, 1, 78, 127
2, 2520, Note_off_c, 1, 78, 0
2, 2560, Note_on_c, 1, 75, 127
2, 2640, Note_off_c, 1, 75, 0
2, 2680, Note_on_c, 1, 77, 127
2, 2760, Note_off_c, 1, 77, 0
2, 2800, Note_on_c, 1, 78, 127
2, 2880, Note_off_c, 1, 78, 0
2, 2920, Note_on_c, 1, 76, 127
2, 3000, Note_off_c, 1, 76, 0
2, 3040, Note_on_c, 1, 48, 127
2, 3040, Note_on_c, 1, 75, 127
2, 3040, Note_on_c, 1, 81, 127
2, 3120, Note_off_c, 1, 75, 0
2, 3160, Note_on_c, 1, 76, 127
2, 3240, Note_off_c, 1, 76, 0
2, 3280, Note_on_c, 1, 78, 127
2, 3360, Note_off_c, 1, 78, 0
2, 3400, Note_on_c, 1, 76, 127
2, 3480, Note_off_c, 1, 48, 0
2, 3480, Note_off_c, 1, 76, 0
2, 3520, Note_on_c, 1, 50, 127
2, 3520, Note_on_c, 1, 75, 127
2, 3560, Note_off_c, 1, 75, 0
2, 3600, Note_on_c, 1, 74, 127
2, 3640, Note_off_c, 1, 74, 0
2, 3680, Note_on_c, 1, 72, 127
2, 3720, Note_off_c, 1, 72, 0
2, 3760, Note_on_c, 1, 71, 127
2, 3840, Note_off_c, 1, 50, 0
2, 3840, Note_off_c, 1, 71, 0
2, 3840, Note_on_c, 1, 80, 127
2, 3840, Note_off_c, 1, 81, 0
2, 3880, Note_on_c, 1, 50, 127
2, 3880, Note_on_c, 1, 71, 127
2, 3880, Note_off_c, 1, 80, 0
2, 3880, Note_on_c, 1, 81, 127
2, 3920, Note_off_c, 1, 50, 0
2, 3920, Note_on_c, 1, 67, 127
2, 3920, Note_off_c, 1, 71, 0
2, 3960, Note_on_c, 1, 52, 127
2, 4040, Note_off_c, 1, 52, 0
2, 4080, Note_on_c, 1, 54, 127
2, 4160, Note_off_c, 1, 54, 0
2, 4200, Note_on_c, 1, 57, 127
2, 4200, Note_off_c, 1, 67, 0
2, 4280, Note_off_c, 1, 57, 0
2, 4280, Note_off_c, 1, 81, 0
2, 4320, Note_on_c, 1, 50, 127
2, 4320, Note_on_c, 1, 66, 127
2, 4440, Note_on_c, 1, 69, 127
2, 4560, Note_on_c, 1, 76, 127
2, 4600, Note_off_c, 1, 76, 0
2, 4640, Note_on_c, 1, 74, 127
2, 4920, Note_on_c, 1, 62, 127
2, 5200, Note_off_c, 1, 50, 0
2, 5200, Note_off_c, 1, 62, 0
2, 5200, Note_off_c, 1, 66, 0
2, 5200, Note_off_c, 1, 69, 0
2, 5200, Note_off_c, 1, 74, 0
2, 5240, Note_on_c, 1, 50, 127
2, 5280, Note_off_c, 1, 50, 0
2, 5320, Note_on_c, 1, 48, 127
2, 5360, Note_off_c, 1, 48, 0
2, 5440, Note_on_c, 1, 45, 127
2, 5480, Note_off_c, 1, 45, 0
2, 5520, Note_on_c, 1, 47, 127
2, 5560, Note_off_c, 1, 47, 0
2, 5600, Note_on_c, 1, 45, 127
2, 5640, Note_on_c, 1, 48, 127
2, 5680, Note_off_c, 1, 45, 0
2, 5720, Note_on_c, 1, 45, 127
2, 5760, Note_off_c, 1, 48, 0
2, 5800, Note_on_c, 1, 48, 127
2, 5840, Note_off_c, 1, 48, 0
2, 5880, Note_on_c, 1, 54, 127
2, 5920, Note_off_c, 1, 54, 0
2, 5960, Note_on_c, 1, 55, 127
2, 6000, Note_off_c, 1, 55, 0
2, 6040, Note_on_c, 1, 54, 127
2, 6080, Note_off_c, 1, 54, 0
2, 6120, Note_on_c, 1, 55, 127
2, 6160, Note_off_c, 1, 45, 0
2, 6160, Note_off_c, 1, 55, 0
2, 6200, Note_on_c, 1, 43, 127
2, 6200, Note_on_c, 1, 57, 127
2, 6240, Note_off_c, 1, 57, 0
2, 6280, Note_on_c, 1, 50, 127
2, 6320, Note_off_c, 1, 50, 0
2, 6360, Note_on_c, 1, 55, 127
2, 6400, Note_off_c, 1, 55, 0
2, 6440, Note_on_c, 1, 54, 127
2, 6480, Note_off_c, 1, 54, 0
2, 6520, Note_on_c, 1, 55, 127
2, 6560, Note_off_c, 1, 55, 0
2, 6600, Note_on_c, 1, 54, 127
2, 6640, Note_off_c, 1, 54, 0
2, 6680, Note_on_c, 1, 55, 127
2, 6720, Note_off_c, 1, 55, 0
2, 6760, Note_on_c, 1, 59, 127
2, 6800, Note_off_c, 1, 59, 0
2, 6840, Note_on_c, 1, 62, 127
2, 6920, Note_off_c, 1, 43, 0
2, 6920, Note_off_c, 1, 62, 0
2, 6960, Note_on_c, 1, 48, 127
2, 6960, Note_on_c, 1, 64, 127
2, 7000, Note_off_c, 1, 48, 0
2, 7040, Note_on_c, 1, 50, 127
2, 7120, Note_off_c, 1, 50, 0
2, 7160, Note_on_c, 1, 52, 127
2, 7200, Note_off_c, 1, 52, 0
2, 7240, Note_on_c, 1, 54, 127
2, 7320, Note_off_c, 1, 54, 0
2, 7320, Note_off_c, 1, 64, 0
2, 7360, Note_on_c, 1, 60, 127
2, 7400, Note_off_c, 1, 60, 0
2, 7440, Note_on_c, 1, 57, 127
2, 7520, Note_on_c, 1, 54, 127
2, 7680, Note_off_c, 1, 54, 0
2, 7680, Note_off_c, 1, 57, 0
2, 7720, Note_on_c, 1, 50, 127
2, 7880, Note_off_c, 1, 50, 0
2, 7920, Note_on_c, 1, 43, 127
2, 8080, Note_on_c, 1, 50, 127
2, 8240, Note_on_c, 1, 59, 127
2, 8400, Note_off_c, 1, 59, 0
2, 8440, Note_on_c, 1, 57, 127
2, 8600, Note_off_c, 1, 57, 0
2, 8640, Note_on_c, 1, 65, 127
2, 8800, Note_off_c, 1, 50, 0
2, 8800, Note_off_c, 1, 65, 0
2, 8840, Note_on_c, 1, 47, 127
2, 8840, Note_on_c, 1, 62, 127
2, 8920, Note_off_c, 1, 43, 0
2, 8920, Note_off_c, 1, 47, 0
2, 8960, Note_on_c, 1, 45, 127
2, 9000, Note_off_c, 1, 45, 0
2, 9000, Note_off_c, 1, 62, 0
2, 9040, Note_on_c, 1, 44, 127
2, 9040, Note_on_c, 1, 47, 127
2, 9040, Note_on_c, 1, 64, 127
2, 9240, Note_off_c, 1, 47, 0
2, 9280, Note_on_c, 1, 52, 127
2, 9440, Note_off_c, 1, 52, 0
2, 9440, Note_off_c, 1, 64, 0
2, 9480, Note_on_c, 1, 55, 127
2, 9480, Note_on_c, 1, 59, 127
2, 9600, Note_off_c, 1, 59, 0
2, 9640, Note_on_c, 1, 64, 127
2, 9800, Note_off_c, 1, 55, 0
2, 9800, Note_off_c, 1, 64, 0
2, 9840, Note_on_c, 1, 53, 127
2, 9840, Note_on_c, 1, 62, 127
2, 9960, Note_off_c, 1, 53, 0
2, 10000, Note_on_c, 1, 51, 127
2, 10040, Note_off_c, 1, 51, 0
2, 10080, Note_on_c, 1, 50, 127
2, 10120, Note_off_c, 1, 50, 0
2, 10120, Note_off_c, 1, 62, 0
2, 10160, Note_on_c, 1, 47, 127
2, 10160, Note_on_c, 1, 64, 127
2, 10240, Note_off_c, 1, 47, 0
2, 10280, Note_on_c, 1, 48, 127
2, 10320, Note_off_c, 1, 48, 0
2, 10360, Note_on_c, 1, 47, 127
2, 10400, Note_off_c, 1, 47, 0
2, 10440, Note_on_c, 1, 48, 127
2, 10480, Note_off_c, 1, 48, 0
2, 10480, Note_off_c, 1, 64, 0
2, 10520, Note_on_c, 1, 50, 127
2, 10520, Note_on_c, 1, 59, 127
2, 10560, Note_off_c, 1, 50, 0
2, 10600, Note_on_c, 1, 54, 127
2, 10640, Note_off_c, 1, 54, 0
2, 10680, Note_on_c, 1, 52, 127
2, 10720, Note_off_c, 1, 52, 0
2, 10760, Note_on_c, 1, 54, 127
2, 10840, Note_off_c, 1, 44, 0
2, 10840, Note_on_c, 1, 56, 127
2, 10880, Note_off_c, 1, 54, 0
2, 10880, Note_off_c, 1, 56, 0
2, 10880, Note_off_c, 1, 59, 0
2, 10920, Note_on_c, 1, 52, 127
2, 10920, Note_on_c, 1, 68, 127
2, 11080, Note_on_c, 1, 56, 127
2, 11240, Note_off_c, 1, 56, 0
2, 11280, Note_on_c, 1, 60, 127
2, 11320, Note_off_c, 1, 60, 0
2, 11320, Note_off_c, 1, 68, 0
2, 11360, Note_on_c, 1, 64, 127
2, 11440, Note_off_c, 1, 64, 0
2, 11480, Note_on_c, 1, 62, 127
2, 12240, Note_on_c, 1, 59, 127
2, 12320, Note_off_c, 1, 59, 0
2, 12480, Note_on_c, 1, 57, 127
2, 13280, Note_off_c, 1, 57, 0
2, 13320, Note_on_c, 1, 57, 127
2, 13360, Note_off_c, 1, 57, 0
2, 13360, Note_off_c, 1, 62, 0
2, 13400, Note_on_c, 1, 56, 127
2, 13400, Note_on_c, 1, 59, 127
2, 13440, Note_off_c, 1, 59, 0
2, 13480, Note_on_c, 1, 60, 127
2, 13560, Note_off_c, 1, 60, 0
2, 13600, Note_on_c, 1, 59, 127
2, 13640, Note_off_c, 1, 56, 0
2, 13640, Note_off_c, 1, 59, 0
2, 13680, Note_on_c, 1, 57, 127
2, 13800, Note_on_c, 1, 60, 127
2, 14040, Note_off_c, 1, 57, 0
2, 14040, Note_off_c, 1, 60, 0
2, 14080, Note_on_c, 1, 59, 127
2, 14120, Note_on_c, 1, 57, 127
2, 14120, Note_off_c, 1, 59, 0
2, 14160, Note_on_c, 1, 61, 127
2, 15320, Note_off_c, 1, 61, 0
2, 15360, Note_on_c, 1, 62, 127
2, 15440, Note_off_c, 1, 62, 0
2, 15480, Note_on_c, 1, 64, 127
2, 15560, Note_off_c, 1, 57, 0
2, 15600, Note_on_c, 1, 59, 127
2, 15720, Note_off_c, 1, 64, 0
2, 15760, Note_on_c, 1, 62, 127
2, 16000, Note_off_c, 1, 52, 0
2, 16000, Note_off_c, 1, 59, 0
2, 16000, Note_off_c, 1, 62, 0
2, 16040, Note_on_c, 1, 52, 127
2, 16040, Note_on_c, 1, 57, 127
2, 16040, Note_on_c, 1, 61, 127
2, 16040, Note_on_c, 1, 66, 127
2, 16080, Note_off_c, 1, 66, 0
2, 16120, Note_on_c, 1, 64, 127
2, 16160, Note_off_c, 1, 64, 0
2, 16200, Note_on_c, 1, 66, 127
2, 16240, Note_off_c, 1, 66, 0
2, 16280, Note_on_c, 1, 64, 127
2, 16320, Note_off_c, 1, 64, 0
2, 16360, Note_on_c, 1, 68, 127
2, 16400, Note_off_c, 1, 68, 0
2, 16440, Note_on_c, 1, 64, 127
2, 17120, Note_off_c, 1, 64, 0
2, 17160, Note_on_c, 1, 69, 127
2, 17240, Note_off_c, 1, 69, 0
2, 17280, Note_on_c, 1, 74, 127
2, 17480, Note_off_c, 1, 74, 0
2, 17520, Note_on_c, 1, 73, 127
2, 17680, Note_off_c, 1, 73, 0
2, 17720, Note_on_c, 1, 70, 127
2, 17760, Note_off_c, 1, 70, 0
2, 17800, Note_on_c, 1, 71, 127
2, 17840, Note_off_c, 1, 71, 0
2, 17880, Note_on_c, 1, 69, 127
2, 18320, Note_off_c, 1, 52, 0
2, 18320, Note_off_c, 1, 57, 0
2, 18320, Note_off_c, 1, 61, 0
2, 18360, Note_on_c, 1, 50, 127
2, 18360, Note_on_c, 1, 59, 127
2, 18920, Note_off_c, 1, 50, 0
2, 18960, Note_off_c, 1, 59, 0
2, 18960, Note_off_c, 1, 69, 0
2, 19000, Note_on_c, 1, 38, 127
2, 19000, Note_on_c, 1, 50, 127
2, 19160, Note_on_c, 1, 62, 127
2, 19280, Note_off_c, 1, 50, 0
2, 19280, Note_off_c, 1, 62, 0
2, 19320, Note_off_c, 1, 38, 0
2, 19320, Note_on_c, 1, 50, 127
2, 19320, Note_on_c, 1, 62, 127
2, 19360, Note_off_c, 1, 62, 0
2, 19400, Note_on_c, 1, 60, 127
2, 19440, Note_off_c, 1, 60, 0
2, 19480, Note_on_c, 1, 59, 127
2, 19880, Note_on_c, 1, 66, 127
2, 19920, Note_off_c, 1, 50, 0
2, 19920, Note_off_c, 1, 59, 0
2, 19960, Note_on_c, 1, 49, 127
2, 20240, Note_off_c, 1, 66, 0
2, 20240, Note_on_c, 1, 69, 127
2, 20360, Note_off_c, 1, 49, 0
2, 20360, Note_on_c, 1, 66, 127
2, 20360, Note_off_c, 1, 69, 0
2, 20400, Note_on_c, 1, 52, 127
2, 20400, Note_on_c, 1, 61, 127
2, 20520, Note_off_c, 1, 52, 0
2, 20560, Note_on_c, 1, 53, 127
2, 20600, Note_off_c, 1, 66, 0
2, 20640, Note_on_c, 1, 71, 127
2, 20720, Note_off_c, 1, 71, 0
2, 20760, Note_on_c, 1, 71, 127
2, 20840, Note_off_c, 1, 71, 0
2, 20880, Note_on_c, 1, 73, 127
2, 20960, Note_off_c, 1, 73, 0
2, 21000, Note_on_c, 1, 74, 127
2, 21080, Note_off_c, 1, 53, 0
2, 21080, Note_off_c, 1, 74, 0
2, 21120, Note_on_c, 1, 45, 127
2, 21120, Note_on_c, 1, 71, 127
2, 21240, Note_off_c, 1, 71, 0
2, 21280, Note_on_c, 1, 69, 127
2, 21360, Note_off_c, 1, 69, 0
2, 21400, Note_on_c, 1, 68, 127
2, 21440, Note_off_c, 1, 45, 0
2, 21480, Note_on_c, 1, 46, 127
2, 21760, Note_off_c, 1, 46, 0
2, 21800, Note_on_c, 1, 45, 127
2, 21800, Note_on_c, 1, 71, 127
2, 21880, Note_off_c, 1, 71, 0
2, 21920, Note_on_c, 1, 69, 127
2, 21960, Note_off_c, 1, 69, 0
2, 22040, Note_on_c, 1, 65, 127
2, 22080, Note_off_c, 1, 65, 0
2, 22080, Note_off_c, 1, 68, 0
2, 22120, Note_on_c, 1, 66, 127
2, 22160, Note_off_c, 1, 61, 0
2, 22200, Note_off_c, 1, 45, 0
2, 22200, Note_on_c, 1, 47, 127
2, 22200, Note_on_c, 1, 52, 127
2, 22200, Note_on_c, 1, 61, 127
2, 22240, Note_off_c, 1, 47, 0
2, 22320, Note_off_c, 1, 52, 0
2, 22320, Note_on_c, 1, 59, 127
2, 22320, Note_off_c, 1, 61, 0
2, 22360, Note_on_c, 1, 54, 127
2, 22560, Note_off_c, 1, 54, 0
2, 22600, Note_on_c, 1, 56, 127
2, 22640, Note_off_c, 1, 56, 0
2, 22720, Note_on_c, 1, 54, 127
2, 22760, Note_off_c, 1, 54, 0
2, 22760, Note_off_c, 1, 66, 0
2, 22800, Note_on_c, 1, 52, 127
2, 22800, Note_on_c, 1, 64, 127
2, 23040, Note_off_c, 1, 64, 0
2, 23040, Note_on_c, 1, 68, 127
2, 23120, Note_off_c, 1, 59, 0
2, 23160, Note_on_c, 1, 59, 127
2, 23280, Note_off_c, 1, 68, 0
2, 23320, Note_on_c, 1, 73, 127
2, 23440, Note_off_c, 1, 52, 0
2, 23440, Note_off_c, 1, 73, 0
2, 23480, Note_on_c, 1, 52, 127
2, 23480, Note_on_c, 1, 62, 127
2, 23520, Note_off_c, 1, 52, 0
2, 23560, Note_on_c, 1, 50, 127
2, 23560, Note_on_c, 1, 71, 127
2, 23640, Note_off_c, 1, 50, 0
2, 23680, Note_on_c, 1, 45, 127
2, 23760, Note_off_c, 1, 45, 0
2, 23800, Note_on_c, 1, 44, 127
2, 24640, Note_off_c, 1, 44, 0
2, 24720, Note_on_c, 1, 56, 127
2, 24720, Note_off_c, 1, 59, 0
2, 25000, Note_on_c, 1, 59, 127
2, 25000, Note_off_c, 1, 62, 0
2, 25040, Note_on_c, 1, 62, 127
2, 25880, Note_off_c, 1, 62, 0
2, 25880, Note_off_c, 1, 71, 0
2, 25920, Note_on_c, 1, 81, 127
2, 26080, Note_off_c, 1, 56, 0
2, 26080, Note_off_c, 1, 59, 0
2, 26080, Note_off_c, 1, 81, 0
2, 26120, Note_on_c, 1, 56, 127
2, 26120, Note_on_c, 1, 80, 127
2, 26200, Note_off_c, 1, 80, 0
2, 26240, Note_on_c, 1, 78, 127
2, 26320, Note_off_c, 1, 78, 0
2, 26360, Note_on_c, 1, 77, 127
2, 26440, Note_off_c, 1, 77, 0
2, 26480, Note_on_c, 1, 66, 127
2, 26480, Note_on_c, 1, 80, 127
2, 26720, Note_on_c, 1, 71, 127
2, 26920, Note_off_c, 1, 66, 0
2, 26920, Note_off_c, 1, 71, 0
2, 26920, Note_off_c, 1, 80, 0
2, 26960, Note_on_c, 1, 65, 127
2, 26960, Note_on_c, 1, 71, 127
2, 27080, Note_on_c, 1, 80, 127
2, 27200, Note_on_c, 1, 77, 127
2, 27520, Note_off_c, 1, 65, 0
2, 27560, Note_on_c, 1, 68, 127
2, 27640, Note_off_c, 1, 68, 0
2, 27680, Note_on_c, 1, 65, 127
2, 27720, Note_off_c, 1, 56, 0
2, 27720, Note_off_c, 1, 65, 0
2, 27720, Note_off_c, 1, 71, 0
2, 27720, Note_off_c, 1, 77, 0
2, 27720, Note_off_c, 1, 80, 0
2, 27800, Note_on_c, 1, 54, 127
2, 27800, Note_on_c, 1, 69, 127
2, 27800, Note_on_c, 1, 74, 127
2, 27800, Note_on_c, 1, 78, 127
2, 28120, Note_off_c, 1, 74, 0
2, 28120, Note_off_c, 1, 78, 0
2, 28160, Note_on_c, 1, 73, 127
2, 28160, Note_on_c, 1, 77, 127
2, 28480, Note_off_c, 1, 54, 0
2, 28480, Note_off_c, 1, 73, 0
2, 28480, Note_off_c, 1, 77, 0
2, 28520, Note_on_c, 1, 44, 127
2, 28520, Note_on_c, 1, 79, 127
2, 28640, Note_off_c, 1, 79, 0
2, 28680, Note_on_c, 1, 80, 127
2, 28720, Note_off_c, 1, 69, 0
2, 28760, Note_off_c, 1, 80, 0
2, 28800, Note_on_c, 1, 81, 127
2, 28840, Note_off_c, 1, 44, 0
2, 28840, Note_off_c, 1, 81, 0
2, 28880, Note_on_c, 1, 47, 127
2, 28880, Note_on_c, 1, 68, 127
2, 28880, Note_on_c, 1, 74, 127
2, 28880, Note_on_c, 1, 75, 127
2, 29240, Note_off_c, 1, 75, 0
2, 29280, Note_on_c, 1, 77, 127
2, 29400, Note_off_c, 1, 47, 0
2, 29440, Note_on_c, 1, 50, 127
2, 29560, Note_off_c, 1, 68, 0
2, 29560, Note_off_c, 1, 74, 0
2, 29640, Note_on_c, 1, 72, 127
2, 29680, Note_off_c, 1, 72, 0
2, 29720, Note_on_c, 1, 70, 127
2, 29760, Note_off_c, 1, 50, 0
2, 29760, Note_off_c, 1, 70, 0
2, 29800, Note_on_c, 1, 56, 127
2, 29800, Note_on_c, 1, 71, 127
2, 29840, Note_off_c, 1, 56, 0
2, 29840, Note_off_c, 1, 71, 0
2, 29880, Note_on_c, 1, 48, 127
2, 29880, Note_on_c, 1, 72, 127
2, 29920, Note_off_c, 1, 48, 0
2, 29920, Note_off_c, 1, 72, 0
2, 29960, Note_on_c, 1, 50, 127
2, 29960, Note_on_c, 1, 74, 127
2, 30000, Note_off_c, 1, 74, 0
2, 30040, Note_on_c, 1, 69, 127
2, 30080, Note_off_c, 1, 69, 0
2, 30120, Note_on_c, 1, 71, 127
2, 30160, Note_off_c, 1, 71, 0
2, 30200, Note_on_c, 1, 69, 127
2, 30240, Note_off_c, 1, 69, 0
2, 30280, Note_on_c, 1, 68, 127
2, 30320, Note_off_c, 1, 50, 0
2, 30320, Note_off_c, 1, 68, 0
2, 30360, Note_on_c, 1, 42, 127
2, 30360, Note_on_c, 1, 66, 127
2, 30440, Note_off_c, 1, 42, 0
2, 30480, Note_on_c, 1, 41, 127
2, 30520, Note_off_c, 1, 41, 0
2, 30560, Note_on_c, 1, 39, 127
2, 30720, Note_off_c, 1, 39, 0
2, 30760, Note_on_c, 1, 41, 127
2, 30880, Note_off_c, 1, 66, 0
2, 30960, Note_on_c, 1, 68, 127
2, 31360, Note_on_c, 1, 51, 127
2, 31520, Note_off_c, 1, 51, 0
2, 31520, Note_off_c, 1, 77, 0
2, 31560, Note_on_c, 1, 53, 127
2, 31560, Note_on_c, 1, 71, 127
2, 31800, Note_off_c, 1, 41, 0
2, 31800, Note_off_c, 1, 71, 0
2, 31840, Note_on_c, 1, 41, 127
2, 31840, Note_on_c, 1, 73, 127
2, 32000, Note_off_c, 1, 53, 0
2, 32000, Note_off_c, 1, 68, 0
2, 32000, Note_on_c, 1, 70, 127
2, 32000, Note_off_c, 1, 73, 0
2, 32040, Note_on_c, 1, 53, 127
2, 32040, Note_on_c, 1, 69, 127
2, 32080, Note_off_c, 1, 70, 0
2, 32120, Note_on_c, 1, 71, 127
2, 32160, Note_off_c, 1, 69, 0
2, 32160, Note_off_c, 1, 71, 0
2, 32200, Note_on_c, 1, 68, 127
2, 32240, Note_off_c, 1, 68, 0
2, 32280, Note_on_c, 1, 69, 127
2, 32320, Note_off_c, 1, 53, 0
2, 32320, Note_off_c, 1, 69, 0
2, 32360, Note_on_c, 1, 61, 127
2, 32360, Note_on_c, 1, 66, 127
2, 32360, Note_on_c, 1, 68, 127
2, 32640, Note_off_c, 1, 41, 0
2, 32640, Note_off_c, 1, 61, 0
2, 32640, Note_off_c, 1, 66, 0
2, 32640, Note_off_c, 1, 68, 0
2, 32680, Note_on_c, 1, 41, 127
2, 32680, Note_on_c, 1, 61, 127
2, 32680, Note_on_c, 1, 65, 127
2, 32680, Note_on_c, 1, 68, 127
2, 33000, Note_off_c, 1, 61, 0
2, 33040, Note_on_c, 1, 59, 127
2, 33440, Note_off_c, 1, 59, 0
2, 33440, Note_off_c, 1, 65, 0
2, 33440, Note_off_c, 1, 68, 0
2, 33480, Note_on_c, 1, 56, 127
2, 33480, Note_on_c, 1, 65, 127
2, 33640, Note_on_c, 1, 68, 127
2, 33800, Note_on_c, 1, 73, 127
2, 33840, Note_off_c, 1, 73, 0
2, 33880, Note_on_c, 1, 71, 127
2, 33960, Note_off_c, 1, 41, 0
2, 34040, Note_off_c, 1, 56, 0
2, 34040, Note_off_c, 1, 65, 0
2, 34040, Note_off_c, 1, 68, 0
2, 34040, Note_off_c, 1, 71, 0
2, 34080, Note_on_c, 1, 45, 127
2, 34080, Note_on_c, 1, 66, 127
2, 34080, Note_on_c, 1, 69, 127
2, 34600, Note_off_c, 1, 66, 0
2, 34600, Note_off_c, 1, 69, 0
2, 34640, Note_on_c, 1, 66, 127
2, 34640, Note_on_c, 1, 69, 127
2, 34640, Note_on_c, 1, 74, 127
2, 35040, Note_off_c, 1, 45, 0
2, 35080, Note_on_c, 1, 42, 127
2, 36560, Note_off_c, 1, 42, 0
2, 36560, Note_off_c, 1, 66, 0
2, 36560, Note_off_c, 1, 69, 0
2, 36560, Note_off_c, 1, 74, 0
2, 36920, Note_on_c, 1, 38, 127
2, 36920, Note_on_c, 1, 50, 127
2, 37040, Note_on_c, 1, 60, 127
2, 37120, Note_on_c, 1, 62, 127
2, 37160, Note_off_c, 1, 62, 0
2, 37200, Note_on_c, 1, 64, 127
2, 37240, Note_off_c, 1, 50, 0
2, 37360, Note_on_c, 1, 67, 127
2, 37400, Note_off_c, 1, 67, 0
2, 37440, Note_on_c, 1, 69, 127
2, 37560, Note_off_c, 1, 64, 0
2, 37560, Note_off_c, 1, 69, 0
2, 37600, Note_on_c, 1, 66, 127
2, 37600, Note_on_c, 1, 69, 127
2, 37920, Note_off_c, 1, 66, 0
2, 37960, Note_on_c, 1, 66, 127
2, 38080, Note_off_c, 1, 38, 0
2, 38080, Note_off_c, 1, 60, 0
2, 38080, Note_off_c, 1, 66, 0
2, 38080, Note_off_c, 1, 69, 0
2, 38120, Note_on_c, 1, 59, 127
2, 38480, Note_on_c, 1, 50, 127
2, 38480, Note_on_c, 1, 62, 127
2, 38480, Note_on_c, 1, 66, 127
2, 39240, Note_off_c, 1, 50, 0
2, 39280, Note_on_c, 1, 50, 127
2, 39280, Note_on_c, 1, 72, 127
2, 39400, Note_off_c, 1, 72, 0
2, 39440, Note_on_c, 1, 71, 127
2, 39520, Note_off_c, 1, 50, 0
2, 39520, Note_off_c, 1, 71, 0
2, 39560, Note_on_c, 1, 48, 127
2, 39560, Note_on_c, 1, 69, 127
2, 39720, Note_off_c, 1, 48, 0
2, 39720, Note_off_c, 1, 69, 0
2, 39760, Note_on_c, 1, 47, 127
2, 39760, Note_on_c, 1, 71, 127
2, 40320, Note_off_c, 1, 71, 0
2, 40360, Note_on_c, 1, 69, 127
2, 40560, Note_off_c, 1, 69, 0
2, 40600, Note_on_c, 1, 71, 127
2, 41240, Note_off_c, 1, 59, 0
2, 41520, Note_off_c, 1, 47, 0
2, 41560, Note_on_c, 1, 50, 127
2, 41680, Note_off_c, 1, 50, 0
2, 41760, Note_on_c, 1, 48, 127
2, 42160, Note_off_c, 1, 48, 0
2, 42160, Note_off_c, 1, 62, 0
2, 42160, Note_off_c, 1, 66, 0
2, 42160, Note_off_c, 1, 71, 0
2, 42200, Note_on_c, 1, 47, 127
2, 42520, Note_on_c, 1, 71, 127
2, 42720, Note_off_c, 1, 71, 0
2, 42840, Note_on_c, 1, 71, 127
2, 42960, Note_off_c, 1, 71, 0
2, 43000, Note_on_c, 1, 66, 127
2, 43160, Note_off_c, 1, 47, 0
2, 43200, Note_on_c, 1, 57, 127
2, 43400, Note_on_c, 1, 62, 127
2, 43560, Note_off_c, 1, 57, 0
2, 43560, Note_off_c, 1, 66, 0
2, 43600, Note_on_c, 1, 55, 127
2, 43920, Note_on_c, 1, 71, 127
2, 44360, Note_off_c, 1, 62, 0
2, 44440, Note_on_c, 1, 62, 127
2, 44600, Note_off_c, 1, 71, 0
2, 44640, Note_on_c, 1, 74, 127
2, 44840, Note_off_c, 1, 62, 0
2, 44840, Note_off_c, 1, 74, 0
2, 44880, Note_on_c, 1, 63, 127
2, 44880, Note_on_c, 1, 74, 127
2, 44960, Note_off_c, 1, 74, 0
2, 45000, Note_on_c, 1, 72, 127
2, 45040, Note_off_c, 1, 72, 0
2, 45080, Note_on_c, 1, 71, 127
2, 45120, Note_off_c, 1, 71, 0
2, 45120, Note_on_c, 1, 72, 127
2, 45160, Note_off_c, 1, 72, 0
2, 45200, Note_on_c, 1, 71, 127
2, 45240, Note_off_c, 1, 55, 0
2, 45240, Note_off_c, 1, 71, 0
2, 45280, Note_on_c, 1, 53, 127
2, 45280, Note_on_c, 1, 72, 127
2, 45640, Note_off_c, 1, 63, 0
2, 45680, Note_on_c, 1, 65, 127
2, 45760, Note_off_c, 1, 65, 0
2, 45800, Note_on_c, 1, 63, 127
2, 45920, Note_off_c, 1, 72, 0
2, 45960, Note_on_c, 1, 66, 127
2, 45960, Note_on_c, 1, 72, 127
2, 46640, Note_off_c, 1, 63, 0
2, 46640, Note_off_c, 1, 66, 0
2, 46760, Note_on_c, 1, 65, 127
2, 46760, Note_on_c, 1, 69, 127
2, 47000, Note_off_c, 1, 72, 0
2, 47080, Note_on_c, 1, 74, 127
2, 47440, Note_off_c, 1, 53, 0
2, 47440, Note_on_c, 1, 61, 127
2, 47480, Note_off_c, 1, 61, 0
2, 47520, Note_on_c, 1, 51, 127
2, 47560, Note_off_c, 1, 51, 0
2, 47600, Note_on_c, 1, 53, 127
2, 47680, Note_off_c, 1, 53, 0
2, 47680, Note_off_c, 1, 65, 0
2, 47680, Note_off_c, 1, 69, 0
2, 47680, Note_off_c, 1, 74, 0
2, 47720, Note_on_c, 1, 55, 127
2, 47720, Note_on_c, 1, 62, 127
2, 47720, Note_on_c, 1, 65, 127
2, 47720, Note_on_c, 1, 69, 127
2, 47840, Note_off_c, 1, 55, 0
2, 47880, Note_on_c, 1, 53, 127
2, 47960, Note_off_c, 1, 53, 0
2, 48000, Note_on_c, 1, 55, 127
2, 48080, Note_off_c, 1, 55, 0
2, 48120, Note_on_c, 1, 52, 127
2, 48160, Note_off_c, 1, 52, 0
2, 48200, Note_on_c, 1, 51, 127
2, 48240, Note_on_c, 1, 50, 127
2, 48240, Note_off_c, 1, 51, 0
2, 48280, Note_off_c, 1, 50, 0
2, 48280, Note_off_c, 1, 69, 0
2, 48320, Note_on_c, 1, 50, 127
2, 48320, Note_on_c, 1, 72, 127
2, 48480, Note_off_c, 1, 72, 0
2, 48480, Note_on_c, 1, 77, 127
2, 48600, Note_off_c, 1, 62, 0
2, 48640, Note_on_c, 1, 61, 127
2, 48720, Note_off_c, 1, 50, 0
2, 48760, Note_on_c, 1, 49, 127
2, 48760, Note_on_c, 1, 58, 127
2, 48760, Note_off_c, 1, 61, 0
2, 48960, Note_off_c, 1, 49, 0
2, 48960, Note_on_c, 1, 61, 127
2, 49000, Note_on_c, 1, 46, 127
2, 49040, Note_off_c, 1, 65, 0
2, 49160, Note_off_c, 1, 77, 0
2, 49200, Note_on_c, 1, 75, 127
2, 49320, Note_off_c, 1, 75, 0
2, 49360, Note_off_c, 1, 58, 0
2, 49400, Note_on_c, 1, 73, 127
2, 49440, Note_off_c, 1, 73, 0
2, 49480, Note_on_c, 1, 58, 127
2, 49560, Note_off_c, 1, 58, 0
2, 49560, Note_off_c, 1, 61, 0
2, 49600, Note_on_c, 1, 51, 127
2, 49600, Note_on_c, 1, 60, 127
2, 49600, Note_on_c, 1, 74, 127
2, 49920, Note_off_c, 1, 74, 0
2, 49960, Note_on_c, 1, 72, 127
2, 50120, Note_off_c, 1, 51, 0
2, 50120, Note_off_c, 1, 60, 0
2, 50120, Note_off_c, 1, 72, 0
2, 50160, Note_on_c, 1, 56, 127
2, 50160, Note_on_c, 1, 65, 127
2, 50520, Note_off_c, 1, 65, 0
2, 50600, Note_on_c, 1, 51, 127
2, 50600, Note_on_c, 1, 67, 127
2, 50760, Note_off_c, 1, 67, 0
2, 50800, Note_on_c, 1, 65, 127
2, 50960, Note_off_c, 1, 46, 0
2, 50960, Note_off_c, 1, 56, 0
2, 50960, Note_off_c, 1, 65, 0
2, 51000, Note_on_c, 1, 44, 127
2, 51000, Note_on_c, 1, 63, 127
2, 51000, Note_on_c, 1, 70, 127
2, 51320, Note_off_c, 1, 70, 0
2, 51360, Note_on_c, 1, 68, 127
2, 51680, Note_off_c, 1, 44, 0
2, 51680, Note_off_c, 1, 51, 0
2, 51680, Note_off_c, 1, 63, 0
2, 51680, Note_off_c, 1, 68, 0
2, 51720, Note_on_c, 1, 43, 127
2, 51720, Note_on_c, 1, 50, 127
2, 51720, Note_on_c, 1, 67, 127
2, 51720, Note_on_c, 1, 75, 127
2, 52040, Note_off_c, 1, 67, 0
2, 52120, Note_on_c, 1, 68, 127
2, 52120, Note_on_c, 1, 74, 127
2, 52120, Note_off_c, 1, 75, 0
2, 52160, Note_off_c, 1, 74, 0
2, 52160, Note_on_c, 1, 75, 127
2, 52480, Note_off_c, 1, 43, 0
2, 52480, Note_off_c, 1, 50, 0
2, 52480, Note_off_c, 1, 75, 0
2, 52520, Note_on_c, 1, 39, 127
2, 52520, Note_on_c, 1, 48, 127
2, 52520, Note_on_c, 1, 75, 127
2, 52680, Note_off_c, 1, 68, 0
2, 52720, Note_on_c, 1, 67, 127
2, 52880, Note_off_c, 1, 39, 0
2, 52880, Note_off_c, 1, 67, 0
2, 52920, Note_on_c, 1, 38, 127
2, 52920, Note_off_c, 1, 48, 0
2, 52920, Note_on_c, 1, 50, 127
2, 52920, Note_on_c, 1, 65, 127
2, 53080, Note_off_c, 1, 50, 0
2, 53120, Note_on_c, 1, 59, 127
2, 53240, Note_on_c, 1, 70, 127
2, 53320, Note_off_c, 1, 59, 0
2, 53360, Note_on_c, 1, 60, 127
2, 53520, Note_off_c, 1, 60, 0
2, 53560, Note_on_c, 1, 58, 127
2, 53560, Note_on_c, 1, 74, 127
2, 53560, Note_off_c, 1, 75, 0
2, 53640, Note_off_c, 1, 74, 0
2, 53640, Note_on_c, 1, 75, 127
2, 53720, Note_off_c, 1, 58, 0
2, 53760, Note_on_c, 1, 56, 127
2, 53920, Note_off_c, 1, 56, 0
2, 53960, Note_on_c, 1, 58, 127
2, 54080, Note_off_c, 1, 58, 0
2, 54120, Note_on_c, 1, 56, 127
2, 54280, Note_off_c, 1, 56, 0
2, 54320, Note_off_c, 1, 38, 0
2, 54440, Note_on_c, 1, 41, 127
2, 54880, Note_off_c, 1, 41, 0
2, 54920, Note_on_c, 1, 60, 127
2, 54960, Note_off_c, 1, 60, 0
2, 54960, Note_off_c, 1, 65, 0
2, 54960, Note_on_c, 1, 67, 127
2, 55000, Note_on_c, 1, 62, 127
2, 55000, Note_on_c, 1, 66, 127
2, 55000, Note_off_c, 1, 67, 0
2, 55040, Note_off_c, 1, 66, 0
2, 55080, Note_on_c, 1, 65, 127
2, 55120, Note_off_c, 1, 75, 0
2, 55120, Note_on_c, 1, 77, 127
2, 55160, Note_off_c, 1, 77, 0
2, 55200, Note_on_c, 1, 77, 127
2, 55240, Note_off_c, 1, 77, 0
2, 55280, Note_on_c, 1, 79, 127
2, 55320, Note_off_c, 1, 79, 0
2, 55400, Note_on_c, 1, 81, 127
2, 55440, Note_off_c, 1, 62, 0
2, 55440, Note_off_c, 1, 81, 0
2, 55480, Note_on_c, 1, 58, 127
2, 55480, Note_on_c, 1, 79, 127
2, 55560, Note_off_c, 1, 58, 0
2, 55560, Note_off_c, 1, 65, 0
2, 55560, Note_off_c, 1, 70, 0
2, 55560, Note_off_c, 1, 79, 0
2, 55600, Note_on_c, 1, 53, 127
2, 55600, Note_on_c, 1, 54, 127
2, 55600, Note_on_c, 1, 60, 127
2, 55600, Note_on_c, 1, 63, 127
2, 55600, Note_on_c, 1, 72, 127
2, 55680, Note_off_c, 1, 54, 0
2, 55720, Note_on_c, 1, 58, 127
2, 55800, Note_off_c, 1, 58, 0
2, 55840, Note_on_c, 1, 55, 127
2, 55920, Note_off_c, 1, 55, 0
2, 55960, Note_on_c, 1, 57, 127
2, 56040, Note_off_c, 1, 57, 0
2, 56080, Note_on_c, 1, 55, 127
2, 56160, Note_off_c, 1, 55, 0
2, 56200, Note_on_c, 1, 57, 127
2, 56200, Note_on_c, 1, 70, 127
2, 56240, Note_off_c, 1, 60, 0
2, 56280, Note_off_c, 1, 70, 0
2, 56320, Note_on_c, 1, 67, 127
2, 56360, Note_off_c, 1, 67, 0
2, 56400, Note_on_c, 1, 65, 127
2, 56480, Note_off_c, 1, 65, 0
2, 56520, Note_on_c, 1, 66, 127
2, 56560, Note_on_c, 1, 65, 127
2, 56560, Note_off_c, 1, 66, 0
2, 56600, Note_off_c, 1, 57, 0
2, 56600, Note_off_c, 1, 65, 0
2, 56600, Note_off_c, 1, 72, 0
2, 56640, Note_on_c, 1, 58, 127
2, 56640, Note_on_c, 1, 70, 127
2, 56720, Note_off_c, 1, 63, 0
2, 56720, Note_off_c, 1, 70, 0
2, 56760, Note_on_c, 1, 67, 127
2, 56800, Note_off_c, 1, 53, 0
2, 56800, Note_off_c, 1, 67, 0
2, 56840, Note_on_c, 1, 53, 127
2, 57000, Note_on_c, 1, 67, 127
2, 57040, Note_off_c, 1, 67, 0
2, 57080, Note_on_c, 1, 65, 127
2, 57160, Note_off_c, 1, 65, 0
2, 57200, Note_on_c, 1, 67, 127
2, 57240, Note_off_c, 1, 67, 0
2, 57280, Note_on_c, 1, 65, 127
2, 57520, Note_on_c, 1, 69, 127
2, 57640, Note_off_c, 1, 53, 0
2, 57680, Note_on_c, 1, 57, 127
2, 57680, Note_off_c, 1, 58, 0
2, 57720, Note_off_c, 1, 65, 0
2, 57720, Note_off_c, 1, 69, 0
2, 57760, Note_off_c, 1, 57, 0
2, 57800, Note_on_c, 1, 55, 127
2, 57800, Note_on_c, 1, 65, 127
2, 57840, Note_off_c, 1, 55, 0
2, 57880, Note_on_c, 1, 53, 127
2, 57880, Note_on_c, 1, 75, 127
2, 57920, Note_off_c, 1, 53, 0
2, 57920, Note_off_c, 1, 65, 0
2, 57960, Note_on_c, 1, 51, 127
2, 57960, Note_on_c, 1, 71, 127
2, 58000, Note_off_c, 1, 51, 0
2, 58000, Note_off_c, 1, 71, 0
2, 58000, Note_on_c, 1, 72, 127
2, 58040, Note_on_c, 1, 53, 127
2, 58080, Note_off_c, 1, 53, 0
2, 58120, Note_on_c, 1, 55, 127
2, 58200, Note_off_c, 1, 55, 0
2, 58200, Note_off_c, 1, 72, 0
2, 58240, Note_on_c, 1, 57, 127
2, 58280, Note_off_c, 1, 57, 0
2, 58280, Note_off_c, 1, 75, 0
2, 58320, Note_on_c, 1, 59, 127
2, 58320, Note_on_c, 1, 79, 127
2, 58360, Note_off_c, 1, 59, 0
2, 58360, Note_off_c, 1, 79, 0
2, 58400, Note_on_c, 1, 60, 127
2, 58400, Note_on_c, 1, 77, 127
2, 58440, Note_off_c, 1, 60, 0
2, 58480, Note_on_c, 1, 59, 127
2, 58520, Note_off_c, 1, 59, 0
2, 58520, Note_on_c, 1, 64, 127
2, 58560, Note_on_c, 1, 60, 127
2, 58560, Note_off_c, 1, 64, 0
2, 58560, Note_on_c, 1, 65, 127
2, 58800, Note_on_c, 1, 72, 127
2, 58920, Note_off_c, 1, 60, 0
2, 58920, Note_off_c, 1, 65, 0
2, 58920, Note_off_c, 1, 72, 0
2, 58960, Note_on_c, 1, 57, 127
2, 58960, Note_on_c, 1, 65, 127
2, 58960, Note_on_c, 1, 72, 127
2, 59000, Note_off_c, 1, 57, 0
2, 59040, Note_on_c, 1, 55, 127
2, 59080, Note_off_c, 1, 55, 0
2, 59080, Note_off_c, 1, 65, 0
2, 59080, Note_off_c, 1, 77, 0
2, 59120, Note_on_c, 1, 60, 127
2, 59120, Note_on_c, 1, 64, 127
2, 59120, Note_on_c, 1, 79, 127
2, 59560, Note_off_c, 1, 72, 0
2, 59600, Note_on_c, 1, 71, 127
2, 59640, Note_off_c, 1, 71, 0
2, 59680, Note_on_c, 1, 72, 127
2, 59720, Note_off_c, 1, 60, 0
2, 59720, Note_off_c, 1, 64, 0
2, 59720, Note_off_c, 1, 72, 0
2, 59760, Note_on_c, 1, 58, 127
2, 59760, Note_on_c, 1, 62, 127
2, 59760, Note_on_c, 1, 69, 127
2, 59840, Note_off_c, 1, 69, 0
2, 59880, Note_on_c, 1, 67, 127
2, 59920, Note_off_c, 1, 67, 0
2, 59960, Note_on_c, 1, 69, 127
2, 60000, Note_off_c, 1, 69, 0
2, 60040, Note_on_c, 1, 67, 127
2, 60080, Note_off_c, 1, 67, 0
2, 60120, Note_on_c, 1, 69, 127
2, 60200, Note_off_c, 1, 69, 0
2, 60240, Note_on_c, 1, 70, 127
2, 60280, Note_off_c, 1, 70, 0
2, 60320, Note_on_c, 1, 72, 127
2, 60360, Note_off_c, 1, 58, 0
2, 60360, Note_off_c, 1, 62, 0
2, 60360, Note_off_c, 1, 72, 0
2, 60360, Note_off_c, 1, 79, 0
2, 60400, Note_on_c, 1, 57, 127
2, 60400, Note_on_c, 1, 72, 127
2, 60560, Note_on_c, 1, 69, 127
2, 60920, Note_on_c, 1, 81, 127
2, 61040, Note_off_c, 1, 81, 0
2, 61080, Note_on_c, 1, 77, 127
2, 61240, Note_off_c, 1, 77, 0
2, 61280, Note_on_c, 1, 76, 127
2, 61440, Note_off_c, 1, 57, 0
2, 61440, Note_off_c, 1, 69, 0
2, 61440, Note_off_c, 1, 76, 0
2, 61480, Note_on_c, 1, 58, 127
2, 61480, Note_on_c, 1, 76, 127
2, 61640, Note_off_c, 1, 58, 0
2, 61640, Note_off_c, 1, 76, 0
2, 61680, Note_on_c, 1, 60, 127
2, 61680, Note_on_c, 1, 80, 127
2, 61840, Note_off_c, 1, 60, 0
2, 61840, Note_off_c, 1, 72, 0
2, 61840, Note_off_c, 1, 80, 0
2, 61880, Note_on_c, 1, 63, 127
2, 61880, Note_on_c, 1, 69, 127
2, 61880, Note_on_c, 1, 81, 127
2, 62000, Note_off_c, 1, 63, 0
2, 62000, Note_off_c, 1, 69, 0
2, 62000, Note_off_c, 1, 81, 0
2, 62040, Note_on_c, 1, 64, 127
2, 62040, Note_on_c, 1, 69, 127
2, 62040, Note_on_c, 1, 72, 127
2, 62040, Note_on_c, 1, 81, 127
2, 62400, Note_off_c, 1, 64, 0
2, 62400, Note_off_c, 1, 69, 0
2, 62400, Note_off_c, 1, 72, 0
2, 62400, Note_off_c, 1, 81, 0
2, 62440, Note_on_c, 1, 63, 127
2, 62440, Note_on_c, 1, 65, 127
2, 62440, Note_on_c, 1, 70, 127
2, 62440, Note_on_c, 1, 73, 127
2, 62600, Note_off_c, 1, 73, 0
2, 62640, Note_on_c, 1, 75, 127
2, 62800, Note_off_c, 1, 75, 0
2, 62840, Note_on_c, 1, 74, 127
2, 63000, Note_off_c, 1, 74, 0
2, 63040, Note_on_c, 1, 79, 127
2, 63200, Note_off_c, 1, 65, 0
2, 63200, Note_off_c, 1, 70, 0
2, 63200, Note_off_c, 1, 79, 0
2, 63240, Note_on_c, 1, 60, 127
2, 63240, Note_on_c, 1, 69, 127
2, 63240, Note_on_c, 1, 81, 127
2, 63360, Note_off_c, 1, 81, 0
2, 63400, Note_on_c, 1, 79, 127
2, 63560, Note_off_c, 1, 60, 0
2, 63560, Note_off_c, 1, 79, 0
2, 63600, Note_on_c, 1, 58, 127
2, 63600, Note_on_c, 1, 77, 127
2, 63640, Note_off_c, 1, 58, 0
2, 63680, Note_on_c, 1, 60, 127
2, 63760, Note_off_c, 1, 60, 0
2, 63760, Note_off_c, 1, 69, 0
2, 63800, Note_on_c, 1, 58, 127
2, 63800, Note_on_c, 1, 74, 127
2, 63920, Note_off_c, 1, 63, 0
2, 63960, Note_on_c, 1, 62, 127
2, 64120, Note_off_c, 1, 62, 0
2, 64120, Note_off_c, 1, 74, 0
2, 64120, Note_off_c, 1, 77, 0
2, 64160, Note_on_c, 1, 63, 127
2, 64160, Note_on_c, 1, 72, 127
2, 64320, Note_off_c, 1, 63, 0
2, 64320, Note_off_c, 1, 72, 0
2, 64360, Note_on_c, 1, 62, 127
2, 64360, Note_on_c, 1, 70, 127
2, 64480, Note_off_c, 1, 62, 0
2, 64480, Note_off_c, 1, 70, 0
2, 64520, Note_on_c, 1, 63, 127
2, 64520, Note_on_c, 1, 70, 127
2, 64680, Note_off_c, 1, 70, 0
2, 64720, Note_on_c, 1, 72, 127
2, 64760, Note_on_c, 1, 62, 127
2, 64760, Note_off_c, 1, 63, 0
2, 64800, Note_off_c, 1, 62, 0
2, 64800, Note_on_c, 1, 63, 127
2, 64840, Note_off_c, 1, 72, 0
2, 64880, Note_off_c, 1, 63, 0
2, 64880, Note_on_c, 1, 69, 127
2, 64920, Note_on_c, 1, 81, 127
2, 65040, Note_off_c, 1, 58, 0
2, 65040, Note_off_c, 1, 69, 0
2, 65040, Note_off_c, 1, 81, 0
2, 65080, Note_on_c, 1, 58, 127
2, 65080, Note_on_c, 1, 65, 127
2, 65080, Note_on_c, 1, 82, 127
2, 65240, Note_off_c, 1, 65, 0
2, 65240, Note_off_c, 1, 82, 0
2, 65280, Note_on_c, 1, 64, 127
2, 65280, Note_on_c, 1, 81, 127
2, 65400, Note_off_c, 1, 58, 0
2, 65400, Note_off_c, 1, 64, 0
2, 65400, Note_off_c, 1, 81, 0
2, 65440, Note_on_c, 1, 63, 127
2, 65440, Note_on_c, 1, 78, 127
2, 65600, Note_off_c, 1, 78, 0
2, 65640, Note_on_c, 1, 79, 127
2, 65760, Note_off_c, 1, 63, 0
2, 65760, Note_off_c, 1, 79, 0
2, 65800, Note_on_c, 1, 62, 127
2, 65800, Note_on_c, 1, 81, 127
2, 65960, Note_off_c, 1, 81, 0
2, 66000, Note_on_c, 1, 82, 127
2, 66120, Note_off_c, 1, 62, 0
2, 66120, Note_off_c, 1, 82, 0
2, 66160, Note_on_c, 1, 63, 127
2, 66160, Note_on_c, 1, 81, 127
2, 66320, Note_off_c, 1, 81, 0
2, 66360, Note_on_c, 1, 79, 127
2, 66520, Note_off_c, 1, 63, 0
2, 66520, Note_off_c, 1, 79, 0
2, 66560, Note_on_c, 1, 65, 127
2, 66560, Note_on_c, 1, 81, 127
2, 66680, Note_off_c, 1, 65, 0
2, 66680, Note_off_c, 1, 81, 0
2, 66720, Note_on_c, 1, 67, 127
2, 66720, Note_on_c, 1, 82, 127
2, 66880, Note_off_c, 1, 67, 0
2, 66880, Note_off_c, 1, 82, 0
2, 66920, Note_on_c, 1, 65, 127
2, 66920, Note_on_c, 1, 81, 127
2, 67040, Note_off_c, 1, 65, 0
2, 67040, Note_off_c, 1, 81, 0
2, 67080, Note_on_c, 1, 67, 127
2, 67080, Note_on_c, 1, 82, 127
2, 67240, Note_off_c, 1, 67, 0
2, 67240, Note_off_c, 1, 82, 0
2, 67280, Note_on_c, 1, 65, 127
2, 67280, Note_on_c, 1, 81, 127
2, 67400, Note_off_c, 1, 65, 0
2, 67400, Note_off_c, 1, 81, 0
2, 67440, Note_on_c, 1, 59, 127
2, 67440, Note_on_c, 1, 82, 127
2, 67600, Note_off_c, 1, 59, 0
2, 67600, Note_off_c, 1, 82, 0
2, 67640, Note_on_c, 1, 60, 127
2, 67640, Note_on_c, 1, 81, 127
2, 67760, Note_off_c, 1, 60, 0
2, 67760, Note_off_c, 1, 81, 0
2, 67800, Note_on_c, 1, 58, 127
2, 67800, Note_on_c, 1, 79, 127
2, 67960, Note_off_c, 1, 79, 0
2, 68000, Note_on_c, 1, 84, 127
2, 68120, Note_off_c, 1, 58, 0
2, 68120, Note_off_c, 1, 84, 0
2, 68160, Note_on_c, 1, 60, 127
2, 68160, Note_on_c, 1, 78, 127
2, 68320, Note_off_c, 1, 60, 0
2, 68320, Note_off_c, 1, 78, 0
2, 68360, Note_on_c, 1, 59, 127
2, 68360, Note_on_c, 1, 79, 127
2, 68480, Note_off_c, 1, 59, 0
2, 68480, Note_off_c, 1, 79, 0
2, 68520, Note_on_c, 1, 58, 127
2, 68520, Note_on_c, 1, 77, 127
2, 68680, Note_off_c, 1, 58, 0
2, 68680, Note_off_c, 1, 77, 0
2, 68720, Note_on_c, 1, 57, 127
2, 68720, Note_on_c, 1, 75, 127
2, 68880, Note_off_c, 1, 57, 0
2, 68880, Note_off_c, 1, 75, 0
2, 68920, Note_on_c, 1, 58, 127
2, 68920, Note_on_c, 1, 74, 127
2, 69040, Note_off_c, 1, 58, 0
2, 69040, Note_off_c, 1, 74, 0
2, 69080, Note_on_c, 1, 57, 127
2, 69080, Note_on_c, 1, 65, 127
2, 69240, Note_off_c, 1, 65, 0
2, 69280, Note_on_c, 1, 72, 127
2, 69440, Note_off_c, 1, 72, 0
2, 69480, Note_on_c, 1, 58, 127
2, 69480, Note_on_c, 1, 74, 127
2, 69640, Note_off_c, 1, 58, 0
2, 69640, Note_off_c, 1, 74, 0
2, 69680, Note_on_c, 1, 63, 127
2, 69680, Note_on_c, 1, 72, 127
2, 69840, Note_off_c, 1, 57, 0
2, 69840, Note_off_c, 1, 72, 0
2, 69880, Note_on_c, 1, 55, 127
2, 69880, Note_on_c, 1, 74, 127
2, 69920, Note_off_c, 1, 74, 0
2, 69960, Note_on_c, 1, 75, 127
2, 70000, Note_off_c, 1, 63, 0
2, 70000, Note_off_c, 1, 75, 0
2, 70040, Note_on_c, 1, 58, 127
2, 70040, Note_on_c, 1, 77, 127
2, 70120, Note_off_c, 1, 77, 0
2, 70160, Note_on_c, 1, 75, 127
2, 70200, Note_off_c, 1, 58, 0
2, 70200, Note_off_c, 1, 75, 0
2, 70240, Note_on_c, 1, 58, 127
2, 70240, Note_on_c, 1, 79, 127
2, 70320, Note_off_c, 1, 79, 0
2, 70360, Note_on_c, 1, 76, 127
2, 70400, Note_off_c, 1, 76, 0
2, 70440, Note_on_c, 1, 74, 127
2, 70480, Note_off_c, 1, 74, 0
2, 70520, Note_on_c, 1, 73, 127
2, 70600, Note_off_c, 1, 58, 0
2, 70600, Note_off_c, 1, 73, 0
2, 70640, Note_on_c, 1, 65, 127
2, 70640, Note_on_c, 1, 74, 127
2, 70680, Note_off_c, 1, 74, 0
2, 70720, Note_on_c, 1, 75, 127
2, 70760, Note_off_c, 1, 75, 0
2, 70840, Note_on_c, 1, 74, 127
2, 70880, Note_off_c, 1, 74, 0
2, 70920, Note_on_c, 1, 72, 127
2, 70960, Note_off_c, 1, 55, 0
2, 70960, Note_off_c, 1, 65, 0
2, 70960, Note_off_c, 1, 72, 0
2, 71000, Note_on_c, 1, 50, 127
2, 71000, Note_on_c, 1, 70, 127
2, 71080, Note_off_c, 1, 70, 0
2, 71120, Note_on_c, 1, 69, 127
2, 71200, Note_off_c, 1, 69, 0
2, 71240, Note_on_c, 1, 67, 127
2, 71320, Note_off_c, 1, 67, 0
2, 71360, Note_on_c, 1, 38, 127
2, 71360, Note_on_c, 1, 65, 127
2, 71440, Note_off_c, 1, 50, 0
2, 72040, Note_on_c, 1, 72, 127
2, 72200, Note_off_c, 1, 38, 0
2, 72200, Note_off_c, 1, 72, 0
2, 72240, Note_on_c, 1, 43, 127
2, 72240, Note_on_c, 1, 70, 127
2, 72600, Note_off_c, 1, 43, 0
2, 72600, Note_off_c, 1, 65, 0
2, 72600, Note_off_c, 1, 70, 0
2, 72640, Note_on_c, 1, 67, 127
2, 72680, Note_off_c, 1, 67, 0
2, 72720, Note_on_c, 1, 65, 127
2, 72760, Note_off_c, 1, 65, 0
2, 72800, Note_on_c, 1, 63, 127
2, 72840, Note_off_c, 1, 63, 0
2, 72880, Note_on_c, 1, 62, 127
2, 73040, Note_on_c, 1, 58, 127
2, 73240, Note_on_c, 1, 65, 127
2, 73440, Note_on_c, 1, 46, 127
2, 73600, Note_off_c, 1, 58, 0
2, 73640, Note_on_c, 1, 53, 127
2, 73800, Note_off_c, 1, 53, 0
2, 73800, Note_off_c, 1, 62, 0
2, 73840, Note_on_c, 1, 58, 127
2, 74000, Note_off_c, 1, 58, 0
2, 74000, Note_off_c, 1, 65, 0
2, 74040, Note_on_c, 1, 58, 127
2, 74040, Note_on_c, 1, 67, 127
2, 74200, Note_off_c, 1, 67, 0
2, 74240, Note_on_c, 1, 65, 127
2, 74400, Note_off_c, 1, 58, 0
2, 74400, Note_off_c, 1, 65, 0
2, 74440, Note_on_c, 1, 60, 127
2, 74440, Note_on_c, 1, 64, 127
2, 74480, Note_off_c, 1, 64, 0
2, 74520, Note_on_c, 1, 62, 127
2, 74600, Note_off_c, 1, 62, 0
2, 74640, Note_on_c, 1, 61, 127
2, 74680, Note_off_c, 1, 46, 0
2, 74680, Note_on_c, 1, 50, 127
2, 74680, Note_off_c, 1, 61, 0
2, 74680, Note_on_c, 1, 64, 127
2, 74720, Note_off_c, 1, 50, 0
2, 74720, Note_off_c, 1, 64, 0
2, 74760, Note_on_c, 1, 53, 127
2, 74760, Note_on_c, 1, 62, 127
2, 74800, Note_off_c, 1, 60, 0
2, 74800, Note_off_c, 1, 62, 0
2, 74840, Note_on_c, 1, 60, 127
2, 75000, Note_off_c, 1, 53, 0
2, 75000, Note_off_c, 1, 60, 0
2, 75040, Note_on_c, 1, 46, 127
2, 75040, Note_on_c, 1, 55, 127
2, 75040, Note_on_c, 1, 60, 127
2, 75040, Note_on_c, 1, 65, 127
2, 75760, Note_off_c, 1, 55, 0
2, 75760, Note_off_c, 1, 60, 0
2, 75760, Note_off_c, 1, 65, 0
2, 75800, Note_on_c, 1, 56, 127
2, 75800, Note_on_c, 1, 65, 127
2, 75960, Note_off_c, 1, 46, 0
2, 75960, Note_off_c, 1, 65, 0
2, 76000, Note_on_c, 1, 48, 127
2, 76000, Note_on_c, 1, 64, 127
2, 76040, Note_off_c, 1, 64, 0
2, 76080, Note_on_c, 1, 62, 127
2, 76160, Note_off_c, 1, 48, 0
2, 76160, Note_off_c, 1, 62, 0
2, 76200, Note_on_c, 1, 46, 127
2, 76200, Note_on_c, 1, 61, 127
2, 76320, Note_off_c, 1, 61, 0
2, 76360, Note_on_c, 1, 60, 127
2, 76520, Note_off_c, 1, 46, 0
2, 76520, Note_off_c, 1, 60, 0
2, 76560, Note_on_c, 1, 48, 127
2, 76560, Note_on_c, 1, 62, 127
2, 76720, Note_off_c, 1, 62, 0
2, 76760, Note_on_c, 1, 60, 127
2, 76880, Note_off_c, 1, 56, 0
2, 76880, Note_off_c, 1, 60, 0
2, 76920, Note_on_c, 1, 55, 127
2, 76920, Note_on_c, 1, 58, 127
2, 77000, Note_off_c, 1, 58, 0
2, 77040, Note_on_c, 1, 60, 127
2, 77080, Note_off_c, 1, 60, 0
2, 77120, Note_on_c, 1, 61, 127
2, 77200, Note_off_c, 1, 61, 0
2, 77240, Note_on_c, 1, 63, 127
2, 77280, Note_off_c, 1, 63, 0
2, 77320, Note_on_c, 1, 60, 127
2, 77360, Note_off_c, 1, 48, 0
2, 77400, Note_on_c, 1, 50, 127
2, 77520, Note_off_c, 1, 50, 0
2, 77560, Note_on_c, 1, 48, 127
2, 77560, Note_on_c, 1, 65, 127
2, 77920, Note_off_c, 1, 65, 0
2, 77960, Note_on_c, 1, 63, 127
2, 78000, Note_off_c, 1, 60, 0
2, 78000, Note_off_c, 1, 63, 0
2, 78040, Note_on_c, 1, 62, 127
2, 78120, Note_off_c, 1, 55, 0
2, 78120, Note_off_c, 1, 62, 0
2, 78160, Note_on_c, 1, 51, 127
2, 78160, Note_on_c, 1, 63, 127
2, 78200, Note_off_c, 1, 63, 0
2, 78240, Note_on_c, 1, 65, 127
2, 78320, Note_off_c, 1, 65, 0
2, 78360, Note_on_c, 1, 67, 127
2, 78400, Note_off_c, 1, 67, 0
2, 78440, Note_on_c, 1, 68, 127
2, 78520, Note_off_c, 1, 68, 0
2, 78560, Note_on_c, 1, 67, 127
2, 78600, Note_off_c, 1, 48, 0
2, 78600, Note_off_c, 1, 51, 0
2, 78600, Note_off_c, 1, 67, 0
2, 78640, Note_on_c, 1, 41, 127
2, 78640, Note_on_c, 1, 65, 127
2, 78880, Note_off_c, 1, 65, 0
2, 78920, Note_on_c, 1, 72, 127
2, 79000, Note_off_c, 1, 41, 0
2, 79000, Note_off_c, 1, 72, 0
2, 79040, Note_on_c, 1, 74, 127
2, 79120, Note_off_c, 1, 74, 0
2, 79160, Note_on_c, 1, 75, 127
2, 79240, Note_off_c, 1, 75, 0
2, 79280, Note_on_c, 1, 46, 127
2, 79280, Note_on_c, 1, 77, 127
2, 79640, Note_off_c, 1, 46, 0
2, 79640, Note_off_c, 1, 77, 0
2, 79680, Note_on_c, 1, 51, 127
2, 79680, Note_on_c, 1, 75, 127
2, 79880, Note_off_c, 1, 51, 0
2, 79880, Note_off_c, 1, 75, 0
2, 79920, Note_on_c, 1, 53, 127
2, 79920, Note_on_c, 1, 74, 127
2, 80080, Note_off_c, 1, 53, 0
2, 80120, Note_on_c, 1, 58, 127
2, 80280, Note_off_c, 1, 58, 0
2, 80280, Note_off_c, 1, 74, 0
2, 80320, Note_on_c, 1, 55, 127
2, 80320, Note_on_c, 1, 75, 127
2, 80480, Note_off_c, 1, 55, 0
2, 80480, Note_off_c, 1, 75, 0
2, 80520, Note_on_c, 1, 58, 127
2, 80520, Note_on_c, 1, 74, 127
2, 80680, Note_off_c, 1, 74, 0
2, 80720, Note_off_c, 1, 58, 0
2, 80760, Note_on_c, 1, 51, 127
2, 80760, Note_on_c, 1, 72, 127
2, 80920, Note_off_c, 1, 51, 0
2, 80960, Note_on_c, 1, 53, 127
2, 81120, Note_off_c, 1, 53, 0
2, 81120, Note_off_c, 1, 72, 0
2, 81160, Note_on_c, 1, 55, 127
2, 81160, Note_on_c, 1, 72, 127
2, 81320, Note_off_c, 1, 55, 0
2, 81360, Note_on_c, 1, 53, 127
2, 81560, Note_off_c, 1, 53, 0
2, 81560, Note_off_c, 1, 72, 0
2, 81600, Note_on_c, 1, 55, 127
2, 81600, Note_on_c, 1, 70, 127
2, 81760, Note_off_c, 1, 55, 0
2, 81800, Note_on_c, 1, 56, 127
2, 81960, Note_off_c, 1, 70, 0
2, 82000, Note_off_c, 1, 56, 0
2, 82040, Note_on_c, 1, 58, 127
2, 82040, Note_on_c, 1, 79, 127
2, 82160, Note_off_c, 1, 79, 0
2, 82200, Note_on_c, 1, 70, 127
2, 82440, Note_on_c, 1, 60, 127
2, 82560, Note_off_c, 1, 70, 0
2, 82680, Note_on_c, 1, 74, 127
2, 82840, Note_off_c, 1, 60, 0
2, 82840, Note_off_c, 1, 74, 0
2, 82880, Note_on_c, 1, 75, 127
2, 83120, Note_on_c, 1, 79, 127
2, 83240, Note_off_c, 1, 58, 0
2, 83240, Note_off_c, 1, 79, 0
2, 83280, Note_on_c, 1, 48, 127
2, 83280, Note_on_c, 1, 79, 127
2, 83360, Note_off_c, 1, 79, 0
2, 83400, Note_on_c, 1, 77, 127
2, 83480, Note_off_c, 1, 77, 0
2, 83520, Note_on_c, 1, 80, 127
2, 83560, Note_off_c, 1, 75, 0
2, 83560, Note_off_c, 1, 80, 0
2, 83600, Note_on_c, 1, 74, 127
2, 83680, Note_off_c, 1, 48, 0
2, 83680, Note_off_c, 1, 74, 0
2, 83720, Note_on_c, 1, 46, 127
2, 83720, Note_on_c, 1, 75, 127
2, 83760, Note_off_c, 1, 75, 0
2, 83800, Note_on_c, 1, 74, 127
2, 83880, Note_off_c, 1, 46, 0
2, 83880, Note_off_c, 1, 74, 0
2, 83920, Note_on_c, 1, 51, 127
2, 83920, Note_on_c, 1, 72, 127
2, 84080, Note_off_c, 1, 51, 0
2, 84120, Note_on_c, 1, 53, 127
2, 84120, Note_on_c, 1, 68, 127
2, 84280, Note_off_c, 1, 68, 0
2, 84320, Note_on_c, 1, 62, 127
2, 84480, Note_off_c, 1, 72, 0
2, 84520, Note_off_c, 1, 53, 0
2, 84560, Note_on_c, 1, 55, 127
2, 84560, Note_on_c, 1, 72, 127
2, 84720, Note_off_c, 1, 72, 0
2, 84760, Note_on_c, 1, 70, 127
2, 84960, Note_off_c, 1, 62, 0
2, 84960, Note_off_c, 1, 70, 0
2, 85000, Note_on_c, 1, 63, 127
2, 85000, Note_on_c, 1, 72, 127
2, 85120, Note_off_c, 1, 63, 0
2, 85160, Note_off_c, 1, 72, 0
2, 85200, Note_on_c, 1, 65, 127
2, 85200, Note_on_c, 1, 74, 127
2, 85360, Note_off_c, 1, 65, 0
2, 85360, Note_off_c, 1, 74, 0
2, 85400, Note_on_c, 1, 67, 127
2, 85400, Note_on_c, 1, 75, 127
2, 85480, Note_off_c, 1, 75, 0
2, 85520, Note_on_c, 1, 77, 127
2, 85600, Note_off_c, 1, 77, 0
2, 85640, Note_on_c, 1, 79, 127
2, 85800, Note_off_c, 1, 55, 0
2, 85800, Note_off_c, 1, 79, 0
2, 85840, Note_on_c, 1, 41, 127
2, 85840, Note_on_c, 1, 80, 127
2, 85920, Note_off_c, 1, 80, 0
2, 85960, Note_on_c, 1, 79, 127
2, 86000, Note_off_c, 1, 79, 0
2, 86040, Note_on_c, 1, 81, 127
2, 86200, Note_off_c, 1, 41, 0
2, 86200, Note_off_c, 1, 67, 0
2, 86200, Note_off_c, 1, 81, 0
2, 86240, Note_on_c, 1, 63, 127
2, 86240, Note_on_c, 1, 82, 127
2, 86280, Note_off_c, 1, 63, 0
2, 86280, Note_off_c, 1, 82, 0
2, 86320, Note_on_c, 1, 65, 127
2, 86320, Note_on_c, 1, 81, 127
2, 86400, Note_off_c, 1, 81, 0
2, 86440, Note_on_c, 1, 82, 127
2, 86600, Note_off_c, 1, 65, 0
2, 86600, Note_off_c, 1, 82, 0
2, 86640, Note_on_c, 1, 65, 127
2, 86640, Note_on_c, 1, 81, 127
2, 86680, Note_off_c, 1, 81, 0
2, 86720, Note_on_c, 1, 82, 127
2, 86800, Note_off_c, 1, 65, 0
2, 86800, Note_off_c, 1, 82, 0
2, 86840, Note_on_c, 1, 63, 127
2, 86840, Note_on_c, 1, 81, 127
2, 87040, Note_on_c, 1, 58, 127
2, 87200, Note_off_c, 1, 81, 0
2, 87240, Note_off_c, 1, 63, 0
2, 87280, Note_on_c, 1, 75, 127
2, 87320, Note_off_c, 1, 75, 0
2, 87360, Note_on_c, 1, 77, 127
2, 87400, Note_off_c, 1, 77, 0
2, 87480, Note_on_c, 1, 79, 127
2, 87520, Note_off_c, 1, 79, 0
2, 87560, Note_on_c, 1, 81, 127
2, 87600, Note_off_c, 1, 81, 0
2, 87640, Note_on_c, 1, 82, 127
2, 87720, Note_off_c, 1, 58, 0
2, 87840, Note_on_c, 1, 57, 127
2, 87840, Note_on_c, 1, 74, 127
2, 88000, Note_off_c, 1, 57, 0
2, 88000, Note_off_c, 1, 74, 0
2, 88040, Note_on_c, 1, 58, 127
2, 88040, Note_on_c, 1, 75, 127
2, 88200, Note_off_c, 1, 58, 0
2, 88200, Note_off_c, 1, 75, 0
2, 88200, Note_off_c, 1, 82, 0
2, 88240, Note_on_c, 1, 45, 127
2, 88240, Note_on_c, 1, 77, 127
2, 88400, Note_off_c, 1, 45, 0
2, 88400, Note_off_c, 1, 77, 0
2, 88440, Note_on_c, 1, 46, 127
2, 88440, Note_on_c, 1, 75, 127
2, 88640, Note_off_c, 1, 46, 0
2, 88640, Note_off_c, 1, 75, 0
2, 88680, Note_on_c, 1, 51, 127
2, 88680, Note_on_c, 1, 81, 127
2, 88840, Note_off_c, 1, 51, 0
2, 88840, Note_off_c, 1, 81, 0
2, 88880, Note_on_c, 1, 50, 127
2, 88880, Note_on_c, 1, 82, 127
2, 89040, Note_off_c, 1, 50, 0
2, 89080, Note_on_c, 1, 48, 127
2, 89240, Note_off_c, 1, 48, 0
2, 89280, Note_on_c, 1, 50, 127
2, 89440, Note_off_c, 1, 50, 0
2, 89480, Note_on_c, 1, 50, 127
2, 89640, Note_off_c, 1, 50, 0
2, 89640, Note_off_c, 1, 82, 0
2, 89680, Note_on_c, 1, 46, 127
2, 89680, Note_on_c, 1, 77, 127
2, 89840, Note_off_c, 1, 46, 0
2, 89840, Note_off_c, 1, 77, 0
2, 89880, Note_on_c, 1, 44, 127
2, 89880, Note_on_c, 1, 74, 127
2, 90040, Note_off_c, 1, 44, 0
2, 90080, Note_on_c, 1, 43, 127
2, 90080, Note_on_c, 1, 82, 127
2, 90240, Note_off_c, 1, 43, 0
2, 90240, Note_off_c, 1, 74, 0
2, 90240, Note_off_c, 1, 82, 0
2, 90280, Note_on_c, 1, 46, 127
2, 90280, Note_on_c, 1, 80, 127
2, 90440, Note_off_c, 1, 46, 0
2, 90440, Note_off_c, 1, 80, 0
2, 90480, Note_on_c, 1, 48, 127
2, 90480, Note_on_c, 1, 75, 127
2, 90640, Note_off_c, 1, 48, 0
2, 90640, Note_on_c, 1, 50, 127
2, 90640, Note_off_c, 1, 75, 0
2, 90640, Note_on_c, 1, 77, 127
2, 90720, Note_on_c, 1, 38, 127
2, 90880, Note_off_c, 1, 38, 0
2, 90920, Note_on_c, 1, 36, 127
2, 90960, Note_on_c, 1, 48, 127
2, 90960, Note_off_c, 1, 50, 0
2, 91040, Note_off_c, 1, 48, 0
2, 91080, Note_on_c, 1, 47, 127
2, 91240, Note_off_c, 1, 47, 0
2, 91280, Note_off_c, 1, 36, 0
2, 91280, Note_on_c, 1, 48, 127
2, 91320, Note_on_c, 1, 51, 127
2, 91480, Note_off_c, 1, 51, 0
2, 91480, Note_off_c, 1, 77, 0
2, 91520, Note_on_c, 1, 50, 127
2, 91520, Note_on_c, 1, 75, 127
2, 91680, Note_off_c, 1, 48, 0
2, 91680, Note_off_c, 1, 50, 0
2, 91680, Note_off_c, 1, 75, 0
2, 91720, Note_on_c, 1, 45, 127
2, 91720, Note_on_c, 1, 74, 127
2, 91880, Note_off_c, 1, 45, 0
2, 91880, Note_off_c, 1, 74, 0
2, 91920, Note_on_c, 1, 46, 127
2, 91920, Note_on_c, 1, 72, 127
2, 92080, Note_off_c, 1, 46, 0
2, 92080, Note_off_c, 1, 72, 0
2, 92120, Note_on_c, 1, 48, 127
2, 92120, Note_on_c, 1, 74, 127
2, 92160, Note_off_c, 1, 74, 0
2, 92200, Note_on_c, 1, 75, 127
2, 92280, Note_off_c, 1, 48, 0
2, 92320, Note_on_c, 1, 45, 127
2, 92480, Note_off_c, 1, 45, 0
2, 92520, Note_on_c, 1, 43, 127
2, 92680, Note_off_c, 1, 43, 0
2, 92680, Note_on_c, 1, 44, 127
2, 92720, Note_on_c, 1, 43, 127
2, 92720, Note_off_c, 1, 44, 0
2, 92720, Note_on_c, 1, 46, 127
2, 92880, Note_off_c, 1, 46, 0
2, 92880, Note_off_c, 1, 75, 0
2, 92920, Note_on_c, 1, 46, 127
2, 92920, Note_on_c, 1, 74, 127
2, 92960, Note_off_c, 1, 46, 0
2, 92960, Note_on_c, 1, 48, 127
2, 93040, Note_off_c, 1, 48, 0
2, 93120, Note_on_c, 1, 51, 127
2, 93280, Note_off_c, 1, 43, 0
2, 93280, Note_off_c, 1, 51, 0
2, 93280, Note_off_c, 1, 74, 0
2, 93320, Note_on_c, 1, 43, 127
2, 93320, Note_on_c, 1, 79, 127
2, 93440, Note_off_c, 1, 79, 0
2, 93480, Note_on_c, 1, 77, 127
2, 93640, Note_off_c, 1, 43, 0
2, 93640, Note_off_c, 1, 77, 0
2, 93680, Note_on_c, 1, 45, 127
2, 93680, Note_on_c, 1, 75, 127
2, 93760, Note_off_c, 1, 75, 0
2, 93800, Note_on_c, 1, 74, 127
2, 93840, Note_off_c, 1, 45, 0
2, 93840, Note_off_c, 1, 74, 0
2, 93880, Note_on_c, 1, 43, 127
2, 93880, Note_on_c, 1, 75, 127
2, 94040, Note_off_c, 1, 43, 0
2, 94080, Note_on_c, 1, 44, 127
2, 94240, Note_off_c, 1, 44, 0
2, 94280, Note_on_c, 1, 46, 127
2, 94440, Note_off_c, 1, 46, 0
2, 94440, Note_off_c, 1, 75, 0
2, 94480, Note_on_c, 1, 48, 127
2, 94480, Note_on_c, 1, 74, 127
2, 94640, Note_off_c, 1, 48, 0
2, 94640, Note_off_c, 1, 74, 0
2, 94680, Note_on_c, 1, 46, 127
2, 94680, Note_on_c, 1, 75, 127
2, 94840, Note_off_c, 1, 46, 0
2, 94840, Note_off_c, 1, 75, 0
2, 94880, Note_on_c, 1, 48, 127
2, 94880, Note_on_c, 1, 80, 127
2, 95040, Note_off_c, 1, 48, 0
2, 95040, Note_off_c, 1, 80, 0
2, 95080, Note_on_c, 1, 50, 127
2, 95080, Note_on_c, 1, 70, 127
2, 95240, Note_off_c, 1, 50, 0
2, 95240, Note_off_c, 1, 70, 0
2, 95280, Note_on_c, 1, 51, 127
2, 95280, Note_on_c, 1, 80, 127
2, 95440, Note_off_c, 1, 51, 0
2, 95480, Note_on_c, 1, 53, 127
2, 95600, Note_off_c, 1, 80, 0
2, 95640, Note_off_c, 1, 53, 0
2, 95680, Note_on_c, 1, 54, 127
2, 95680, Note_on_c, 1, 82, 127
2, 95800, Note_off_c, 1, 54, 0
2, 95880, Note_on_c, 1, 51, 127
2, 96000, Note_off_c, 1, 51, 0
2, 96000, Note_off_c, 1, 82, 0
2, 96040, Note_on_c, 1, 53, 127
2, 96040, Note_on_c, 1, 79, 127
2, 96200, Note_off_c, 1, 79, 0
2, 96240, Note_on_c, 1, 80, 127
2, 96400, Note_off_c, 1, 53, 0
2, 96400, Note_off_c, 1, 80, 0
2, 96440, Note_on_c, 1, 55, 127
2, 96440, Note_on_c, 1, 77, 127
2, 96600, Note_off_c, 1, 55, 0
2, 96600, Note_off_c, 1, 77, 0
2, 96640, Note_on_c, 1, 53, 127
2, 96640, Note_on_c, 1, 75, 127
2, 96760, Note_off_c, 1, 75, 0
2, 96800, Note_off_c, 1, 53, 0
2, 96840, Note_on_c, 1, 48, 127
2, 96840, Note_on_c, 1, 77, 127
2, 97000, Note_off_c, 1, 77, 0
2, 97040, Note_on_c, 1, 74, 127
2, 97160, Note_off_c, 1, 48, 0
2, 97160, Note_off_c, 1, 74, 0
2, 97240, Note_on_c, 1, 48, 127
2, 97240, Note_on_c, 1, 75, 127
2, 97360, Note_off_c, 1, 75, 0
2, 97400, Note_on_c, 1, 77, 127
2, 97560, Note_off_c, 1, 48, 0
2, 97560, Note_off_c, 1, 77, 0
2, 97600, Note_on_c, 1, 55, 127
2, 97600, Note_on_c, 1, 79, 127
2, 97760, Note_off_c, 1, 79, 0
2, 97800, Note_on_c, 1, 80, 127
2, 97960, Note_off_c, 1, 55, 0
2, 97960, Note_off_c, 1, 80, 0
2, 98000, Note_on_c, 1, 48, 127
2, 98000, Note_on_c, 1, 79, 127
2, 98160, Note_off_c, 1, 79, 0
2, 98200, Note_on_c, 1, 77, 127
2, 98360, Note_off_c, 1, 48, 0
2, 98360, Note_off_c, 1, 77, 0
2, 98400, Note_on_c, 1, 50, 127
2, 98400, Note_on_c, 1, 77, 127
2, 98560, Note_off_c, 1, 77, 0
2, 98600, Note_on_c, 1, 75, 127
2, 98720, Note_off_c, 1, 50, 0
2, 98760, Note_off_c, 1, 75, 0
2, 98800, Note_on_c, 1, 51, 127
2, 98800, Note_on_c, 1, 74, 127
2, 98960, Note_off_c, 1, 74, 0
2, 99000, Note_on_c, 1, 72, 127
2, 99160, Note_off_c, 1, 51, 0
2, 99160, Note_off_c, 1, 72, 0
2, 99200, Note_on_c, 1, 50, 127
2, 99200, Note_on_c, 1, 70, 127
2, 99360, Note_off_c, 1, 70, 0
2, 99400, Note_on_c, 1, 72, 127
2, 99560, Note_off_c, 1, 50, 0
2, 99560, Note_off_c, 1, 72, 0
2, 99600, Note_on_c, 1, 43, 127
2, 99600, Note_on_c, 1, 71, 127
2, 99760, Note_off_c, 1, 71, 0
2, 99800, Note_on_c, 1, 72, 127
2, 99920, Note_off_c, 1, 43, 0
2, 99920, Note_off_c, 1, 72, 0
2, 99960, Note_on_c, 1, 48, 127
2, 99960, Note_on_c, 1, 75, 127
2, 100120, Note_off_c, 1, 75, 0
2, 100160, Note_on_c, 1, 74, 127
2, 100320, Note_off_c, 1, 48, 0
2, 100320, Note_off_c, 1, 74, 0
2, 100360, Note_on_c, 1, 47, 127
2, 100360, Note_on_c, 1, 75, 127
2, 100520, Note_off_c, 1, 47, 0
2, 100520, Note_off_c, 1, 75, 0
2, 100560, Note_on_c, 1, 46, 127
2, 100560, Note_on_c, 1, 74, 127
2, 100720, Note_off_c, 1, 46, 0
2, 100720, Note_off_c, 1, 74, 0
2, 100760, Note_on_c, 1, 44, 127
2, 100760, Note_on_c, 1, 72, 127
2, 100880, Note_off_c, 1, 72, 0
2, 100920, Note_on_c, 1, 71, 127
2, 100960, Note_off_c, 1, 71, 0
2, 101000, Note_on_c, 1, 72, 127
2, 101040, Note_off_c, 1, 72, 0
2, 101080, Note_on_c, 1, 71, 127
2, 101120, Note_off_c, 1, 71, 0
2, 101120, Note_on_c, 1, 72, 127
2, 101240, Note_off_c, 1, 44, 0
2, 101240, Note_off_c, 1, 72, 0
2, 101280, Note_on_c, 1, 43, 127
2, 101280, Note_on_c, 1, 74, 127
2, 101440, Note_off_c, 1, 43, 0
2, 101440, Note_off_c, 1, 74, 0
2, 101480, Note_on_c, 1, 48, 127
2, 101480, Note_on_c, 1, 75, 127
2, 101640, Note_off_c, 1, 48, 0
2, 101640, Note_off_c, 1, 75, 0
2, 101680, Note_on_c, 1, 50, 127
2, 101680, Note_on_c, 1, 77, 127
2, 101840, Note_off_c, 1, 50, 0
2, 101840, Note_off_c, 1, 77, 0
2, 101880, Note_on_c, 1, 51, 127
2, 101880, Note_on_c, 1, 79, 127
2, 101920, Note_off_c, 1, 79, 0
2, 102000, Note_off_c, 1, 51, 0
2, 102040, Note_on_c, 1, 53, 127
2, 102040, Note_on_c, 1, 80, 127
2, 102200, Note_off_c, 1, 53, 0
2, 102200, Note_off_c, 1, 80, 0
2, 102240, Note_on_c, 1, 55, 127
2, 102240, Note_on_c, 1, 79, 127
2, 102400, Note_off_c, 1, 55, 0
2, 102400, Note_off_c, 1, 79, 0
2, 102440, Note_on_c, 1, 57, 127
2, 102440, Note_on_c, 1, 75, 127
2, 102560, Note_off_c, 1, 57, 0
2, 102560, Note_off_c, 1, 75, 0
2, 102640, Note_on_c, 1, 55, 127
2, 102640, Note_on_c, 1, 72, 127
2, 102760, Note_off_c, 1, 55, 0
2, 102760, Note_off_c, 1, 72, 0
2, 102800, Note_on_c, 1, 57, 127
2, 102800, Note_on_c, 1, 72, 127
2, 102960, Note_off_c, 1, 57, 0
2, 103000, Note_on_c, 1, 43, 127
2, 103000, Note_off_c, 1, 72, 0
2, 103000, Note_on_c, 1, 75, 127
2, 103160, Note_off_c, 1, 43, 0
2, 103160, Note_off_c, 1, 75, 0
2, 103200, Note_on_c, 1, 45, 127
2, 103200, Note_on_c, 1, 74, 127
2, 103320, Note_off_c, 1, 45, 0
2, 103320, Note_off_c, 1, 74, 0
2, 103360, Note_on_c, 1, 43, 127
2, 103360, Note_on_c, 1, 72, 127
2, 103520, Note_off_c, 1, 43, 0
2, 103520, Note_off_c, 1, 72, 0
2, 103560, Note_on_c, 1, 41, 127
2, 103560, Note_on_c, 1, 70, 127
2, 103720, Note_off_c, 1, 41, 0
2, 103720, Note_off_c, 1, 70, 0
2, 103760, Note_on_c, 1, 39, 127
2, 103760, Note_on_c, 1, 69, 127
2, 103880, Note_off_c, 1, 39, 0
2, 103880, Note_off_c, 1, 69, 0
2, 103920, Note_on_c, 1, 41, 127
2, 103920, Note_on_c, 1, 70, 127
2, 104080, Note_off_c, 1, 41, 0
2, 104080, Note_off_c, 1, 70, 0
2, 104120, Note_on_c, 1, 40, 127
2, 104120, Note_on_c, 1, 69, 127
2, 104240, Note_off_c, 1, 40, 0
2, 104240, Note_off_c, 1, 69, 0
2, 104280, Note_on_c, 1, 38, 127
2, 104280, Note_on_c, 1, 70, 127
2, 104440, Note_off_c, 1, 38, 0
2, 104440, Note_off_c, 1, 70, 0
2, 104480, Note_on_c, 1, 41, 127
2, 104480, Note_on_c, 1, 74, 127
2, 104600, Note_off_c, 1, 41, 0
2, 104600, Note_off_c, 1, 74, 0
2, 104680, Note_on_c, 1, 38, 127
2, 104680, Note_on_c, 1, 70, 127
2, 104720, Note_off_c, 1, 70, 0
2, 104760, Note_on_c, 1, 74, 127
2, 104800, Note_off_c, 1, 38, 0
2, 104800, Note_off_c, 1, 74, 0
2, 104840, Note_on_c, 1, 36, 127
2, 104840, Note_on_c, 1, 75, 127
2, 105000, Note_off_c, 1, 36, 0
2, 105040, Note_on_c, 1, 38, 127
2, 105160, Note_off_c, 1, 38, 0
2, 105160, Note_off_c, 1, 75, 0
2, 105200, Note_on_c, 1, 41, 127
2, 105200, Note_on_c, 1, 74, 127
2, 105360, Note_off_c, 1, 74, 0
2, 105400, Note_on_c, 1, 70, 127
2, 105520, Note_off_c, 1, 70, 0
2, 105600, Note_on_c, 1, 72, 127
2, 105720, Note_off_c, 1, 72, 0
2, 105760, Note_on_c, 1, 46, 127
2, 105760, Note_on_c, 1, 74, 127
2, 105920, Note_off_c, 1, 41, 0
2, 105920, Note_off_c, 1, 46, 0
2, 105920, Note_off_c, 1, 74, 0
2, 105960, Note_on_c, 1, 38, 127
2, 105960, Note_on_c, 1, 75, 127
2, 106040, Note_off_c, 1, 75, 0
2, 106080, Note_on_c, 1, 74, 127
2, 106120, Note_off_c, 1, 74, 0
2, 106160, Note_on_c, 1, 72, 127
2, 106280, Note_off_c, 1, 38, 0
2, 106280, Note_off_c, 1, 72, 0
2, 106360, Note_on_c, 1, 38, 127
2, 106360, Note_on_c, 1, 75, 127
2, 106480, Note_off_c, 1, 75, 0
2, 106520, Note_on_c, 1, 74, 127
2, 106680, Note_off_c, 1, 38, 0
2, 106680, Note_off_c, 1, 74, 0
2, 106720, Note_on_c, 1, 50, 127
2, 106720, Note_on_c, 1, 72, 127
2, 106840, Note_off_c, 1, 72, 0
2, 106880, Note_on_c, 1, 70, 127
2, 107000, Note_off_c, 1, 70, 0
2, 107040, Note_off_c, 1, 50, 0
2, 107080, Note_on_c, 1, 43, 127
2, 107080, Note_on_c, 1, 72, 127
2, 107200, Note_off_c, 1, 72, 0
2, 107240, Note_on_c, 1, 70, 127
2, 107400, Note_off_c, 1, 43, 0
2, 107400, Note_off_c, 1, 70, 0
2, 107440, Note_on_c, 1, 45, 127
2, 107440, Note_on_c, 1, 72, 127
2, 107600, Note_off_c, 1, 72, 0
2, 107640, Note_on_c, 1, 74, 127
2, 107760, Note_off_c, 1, 45, 0
2, 107760, Note_off_c, 1, 74, 0
2, 107840, Note_on_c, 1, 46, 127
2, 107840, Note_on_c, 1, 74, 127
2, 107960, Note_off_c, 1, 74, 0
2, 108000, Note_on_c, 1, 72, 127
2, 108160, Note_off_c, 1, 46, 0
2, 108160, Note_off_c, 1, 72, 0
2, 108200, Note_on_c, 1, 50, 127
2, 108200, Note_on_c, 1, 70, 127
2, 108320, Note_off_c, 1, 50, 0
2, 108360, Note_on_c, 1, 53, 127
2, 108520, Note_off_c, 1, 53, 0
2, 108520, Note_off_c, 1, 70, 0
2, 108560, Note_on_c, 1, 58, 127
2, 108560, Note_on_c, 1, 77, 127
2, 108600, Note_off_c, 1, 77, 0
2, 108640, Note_on_c, 1, 76, 127
2, 108680, Note_off_c, 1, 58, 0
2, 108680, Note_off_c, 1, 76, 0
2, 108760, Note_on_c, 1, 57, 127
2, 108760, Note_on_c, 1, 77, 127
2, 108800, Note_off_c, 1, 77, 0
2, 108840, Note_on_c, 1, 76, 127
2, 108880, Note_off_c, 1, 57, 0
2, 108880, Note_off_c, 1, 76, 0
2, 108920, Note_on_c, 1, 55, 127
2, 108920, Note_on_c, 1, 77, 127
2, 109080, Note_off_c, 1, 55, 0
2, 109080, Note_off_c, 1, 77, 0
2, 109120, Note_on_c, 1, 53, 127
2, 109120, Note_on_c, 1, 79, 127
2, 109240, Note_off_c, 1, 53, 0
2, 109240, Note_off_c, 1, 79, 0
2, 109280, Note_on_c, 1, 52, 127
2, 109280, Note_on_c, 1, 81, 127
2, 109440, Note_off_c, 1, 52, 0
2, 109440, Note_off_c, 1, 81, 0
2, 109480, Note_on_c, 1, 55, 127
2, 109480, Note_on_c, 1, 79, 127
2, 109600, Note_off_c, 1, 55, 0
2, 109600, Note_off_c, 1, 79, 0
2, 109640, End_track
3, 0, Start_track
3, 0, Title_t, "MIDI"
3, 1536, End_track
0, 0, End_of_file
