0, 0, Header, 1, 3, 384
1, 0, Start_track
1, 0, Time_signature, 4, 2, 24, 8
1, 0, Tempo, 500000
1, 221520, End_track
2, 0, Start_track
2, 0, Text_t, "harpsichord: John Sankey"
2, 0, Title_t, "Track 1"
2, 0, Note_on_c, 1, 79, 127
2, 40, Note_on_c, 1, 38, 127
2, 40, Note_on_c, 1, 50, 127
2, 40, Note_on_c, 1, 62, 127
2, 40, Note_on_c, 1, 77, 127
2, 40, Note_off_c, 1, 79, 0
2, 400, Note_off_c, 1, 38, 0
2, 400, Note_off_c, 1, 50, 0
2, 400, Note_off_c, 1, 62, 0
2, 400, Note_off_c, 1, 77, 0
2, 2200, Note_on_c, 1, 60, 127
2, 2320, Note_off_c, 1, 60, 0
2, 2400, Note_on_c, 1, 65, 127
2, 2520, Note_off_c, 1, 65, 0
2, 2600, Note_on_c, 1, 64, 127
2, 2720, Note_off_c, 1, 64, 0
2, 2760, Note_on_c, 1, 55, 127
2, 2760, Note_on_c, 1, 65, 127
2, 2920, Note_off_c, 1, 55, 0
2, 2920, Note_off_c, 1, 65, 0
2, 2960, Note_on_c, 1, 60, 127
2, 2960, Note_on_c, 1, 67, 127
2, 3120, Note_off_c, 1, 60, 0
2, 3120, Note_off_c, 1, 67, 0
2, 3160, Note_on_c, 1, 62, 127
2, 3160, Note_on_c, 1, 70, 127
2, 3280, Note_off_c, 1, 62, 0
2, 3280, Note_off_c, 1, 70, 0
2, 3360, Note_on_c, 1, 57, 127
2, 3360, Note_on_c, 1, 72, 127
2, 3480, Note_off_c, 1, 57, 0
2, 3480, Note_off_c, 1, 72, 0
2, 3520, Note_on_c, 1, 60, 127
2, 3520, Note_on_c, 1, 70, 127
2, 3680, Note_off_c, 1, 60, 0
2, 3680, Note_off_c, 1, 70, 0
2, 3720, Note_on_c, 1, 62, 127
2, 3720, Note_on_c, 1, 71, 127
2, 3760, Note_off_c, 1, 71, 0
2, 3880, Note_off_c, 1, 62, 0
2, 3920, Note_on_c, 1, 52, 127
2, 3920, Note_on_c, 1, 72, 127
2, 4080, Note_off_c, 1, 52, 0
2, 4080, Note_off_c, 1, 72, 0
2, 4120, Note_on_c, 1, 55, 127
2, 4120, Note_on_c, 1, 70, 127
2, 4240, Note_off_c, 1, 55, 0
2, 4240, Note_off_c, 1, 70, 0
2, 4320, Note_on_c, 1, 60, 127
2, 4320, Note_on_c, 1, 72, 127
2, 4440, Note_off_c, 1, 60, 0
2, 4440, Note_off_c, 1, 72, 0
2, 4480, Note_on_c, 1, 55, 127
2, 4480, Note_on_c, 1, 75, 127
2, 4640, Note_off_c, 1, 55, 0
2, 4640, Note_off_c, 1, 75, 0
2, 4680, Note_on_c, 1, 64, 127
2, 4680, Note_on_c, 1, 76, 127
2, 4840, Note_off_c, 1, 64, 0
2, 4880, Note_on_c, 1, 55, 127
2, 5040, Note_off_c, 1, 55, 0
2, 5040, Note_off_c, 1, 76, 0
2, 5080, Note_on_c, 1, 70, 127
2, 5080, Note_on_c, 1, 79, 127
2, 5200, Note_off_c, 1, 70, 0
2, 5200, Note_off_c, 1, 79, 0
2, 5280, Note_on_c, 1, 60, 127
2, 5280, Note_on_c, 1, 77, 127
2, 5400, Note_off_c, 1, 60, 0
2, 5400, Note_off_c, 1, 77, 0
2, 5440, Note_on_c, 1, 65, 127
2, 5600, Note_off_c, 1, 65, 0
2, 5640, Note_on_c, 1, 58, 127
2, 5640, Note_on_c, 1, 79, 127
2, 5800, Note_off_c, 1, 58, 0
2, 5840, Note_on_c, 1, 60, 127
2, 6000, Note_off_c, 1, 60, 0
2, 6000, Note_off_c, 1, 79, 0
2, 6040, Note_on_c, 1, 65, 127
2, 6040, Note_on_c, 1, 80, 127
2, 6160, Note_off_c, 1, 65, 0
2, 6160, Note_off_c, 1, 80, 0
2, 6240, Note_on_c, 1, 58, 127
2, 6240, Note_on_c, 1, 82, 127
2, 6360, Note_off_c, 1, 58, 0
2, 6360, Note_off_c, 1, 82, 0
2, 6400, Note_on_c, 1, 64, 127
2, 6400, Note_on_c, 1, 84, 127
2, 6560, Note_off_c, 1, 64, 0
2, 6600, Note_on_c, 1, 55, 127
2, 6760, Note_off_c, 1, 55, 0
2, 6800, Note_on_c, 1, 64, 127
2, 6960, Note_off_c, 1, 64, 0
2, 6960, Note_off_c, 1, 84, 0
2, 7000, Note_on_c, 1, 55, 127
2, 7000, Note_on_c, 1, 82, 127
2, 7040, Note_off_c, 1, 82, 0
2, 7080, Note_on_c, 1, 81, 127
2, 7120, Note_off_c, 1, 55, 0
2, 7120, Note_off_c, 1, 81, 0
2, 7200, Note_on_c, 1, 60, 127
2, 7200, Note_on_c, 1, 82, 127
2, 7240, Note_off_c, 1, 82, 0
2, 7280, Note_on_c, 1, 79, 127
2, 7320, Note_off_c, 1, 60, 0
2, 7320, Note_off_c, 1, 79, 0
2, 7360, Note_on_c, 1, 53, 127
2, 7360, Note_on_c, 1, 87, 127
2, 7400, Note_on_c, 1, 86, 127
2, 7400, Note_off_c, 1, 87, 0
2, 7440, Note_off_c, 1, 86, 0
2, 7480, Note_on_c, 1, 84, 127
2, 7520, Note_off_c, 1, 53, 0
2, 7520, Note_off_c, 1, 84, 0
2, 7560, Note_on_c, 1, 64, 127
2, 7560, Note_on_c, 1, 81, 127
2, 7600, Note_off_c, 1, 81, 0
2, 7680, Note_on_c, 1, 79, 127
2, 7720, Note_off_c, 1, 64, 0
2, 7720, Note_off_c, 1, 79, 0
2, 7760, Note_on_c, 1, 53, 127
2, 7760, Note_on_c, 1, 77, 127
2, 7800, Note_off_c, 1, 77, 0
2, 7840, Note_on_c, 1, 76, 127
2, 7920, Note_off_c, 1, 53, 0
2, 7920, Note_off_c, 1, 76, 0
2, 7960, Note_on_c, 1, 60, 127
2, 7960, Note_on_c, 1, 77, 127
2, 8000, Note_off_c, 1, 77, 0
2, 8040, Note_on_c, 1, 79, 127
2, 8080, Note_off_c, 1, 60, 0
2, 8080, Note_off_c, 1, 79, 0
2, 8160, Note_on_c, 1, 52, 127
2, 8160, Note_on_c, 1, 84, 127
2, 8200, Note_off_c, 1, 84, 0
2, 8240, Note_on_c, 1, 80, 127
2, 8280, Note_off_c, 1, 52, 0
2, 8280, Note_off_c, 1, 80, 0
2, 8320, Note_on_c, 1, 53, 127
2, 8320, Note_on_c, 1, 79, 127
2, 8400, Note_off_c, 1, 79, 0
2, 8440, Note_on_c, 1, 77, 127
2, 8480, Note_off_c, 1, 53, 0
2, 8480, Note_off_c, 1, 77, 0
2, 8520, Note_on_c, 1, 55, 127
2, 8520, Note_on_c, 1, 76, 127
2, 8560, Note_off_c, 1, 76, 0
2, 8640, Note_on_c, 1, 74, 127
2, 8680, Note_off_c, 1, 55, 0
2, 8680, Note_off_c, 1, 74, 0
2, 8720, Note_on_c, 1, 57, 127
2, 8720, Note_on_c, 1, 73, 127
2, 8760, Note_off_c, 1, 73, 0
2, 8800, Note_on_c, 1, 70, 127
2, 8880, Note_off_c, 1, 57, 0
2, 8880, Note_off_c, 1, 70, 0
2, 8920, Note_on_c, 1, 55, 127
2, 8920, Note_on_c, 1, 69, 127
2, 8960, Note_off_c, 1, 69, 0
2, 9000, Note_on_c, 1, 70, 127
2, 9040, Note_off_c, 1, 55, 0
2, 9040, Note_off_c, 1, 70, 0
2, 9120, Note_on_c, 1, 53, 127
2, 9120, Note_on_c, 1, 79, 127
2, 9240, Note_off_c, 1, 53, 0
2, 9280, Note_on_c, 1, 60, 127
2, 9440, Note_off_c, 1, 60, 0
2, 9440, Note_off_c, 1, 79, 0
2, 9480, Note_on_c, 1, 52, 127
2, 9480, Note_on_c, 1, 84, 127
2, 9520, Note_off_c, 1, 84, 0
2, 9600, Note_on_c, 1, 82, 127
2, 9640, Note_off_c, 1, 52, 0
2, 9640, Note_off_c, 1, 82, 0
2, 9680, Note_on_c, 1, 55, 127
2, 9680, Note_on_c, 1, 81, 127
2, 9840, Note_off_c, 1, 55, 0
2, 9840, Note_off_c, 1, 81, 0
2, 9880, Note_on_c, 1, 53, 127
2, 9880, Note_on_c, 1, 79, 127
2, 9920, Note_off_c, 1, 79, 0
2, 9960, Note_on_c, 1, 81, 127
2, 10000, Note_off_c, 1, 53, 0
2, 10000, Note_off_c, 1, 81, 0
2, 10080, Note_on_c, 1, 52, 127
2, 10080, Note_on_c, 1, 79, 127
2, 10120, Note_off_c, 1, 79, 0
2, 10160, Note_on_c, 1, 77, 127
2, 10200, Note_off_c, 1, 52, 0
2, 10200, Note_off_c, 1, 77, 0
2, 10240, Note_on_c, 1, 55, 127
2, 10240, Note_on_c, 1, 79, 127
2, 10320, Note_off_c, 1, 79, 0
2, 10360, Note_on_c, 1, 77, 127
2, 10400, Note_off_c, 1, 55, 0
2, 10400, Note_off_c, 1, 77, 0
2, 10440, Note_on_c, 1, 55, 127
2, 10440, Note_on_c, 1, 79, 127
2, 10600, Note_off_c, 1, 55, 0
2, 10640, Note_on_c, 1, 52, 127
2, 10680, Note_off_c, 1, 79, 0
2, 10720, Note_on_c, 1, 79, 127
2, 10800, Note_off_c, 1, 52, 0
2, 10800, Note_off_c, 1, 79, 0
2, 10840, Note_on_c, 1, 53, 127
2, 10840, Note_on_c, 1, 79, 127
2, 11000, Note_off_c, 1, 53, 0
2, 11000, Note_off_c, 1, 79, 0
2, 11040, Note_on_c, 1, 55, 127
2, 11040, Note_on_c, 1, 79, 127
2, 11120, Note_off_c, 1, 79, 0
2, 11160, Note_off_c, 1, 55, 0
2, 11160, Note_on_c, 1, 81, 127
2, 11200, Note_off_c, 1, 81, 0
2, 11240, Note_on_c, 1, 52, 127
2, 11240, Note_on_c, 1, 79, 127
2, 11280, Note_off_c, 1, 52, 0
2, 11280, Note_off_c, 1, 79, 0
2, 11320, Note_on_c, 1, 50, 127
2, 11320, Note_on_c, 1, 77, 127
2, 11360, Note_off_c, 1, 50, 0
2, 11400, Note_off_c, 1, 77, 0
2, 11440, Note_on_c, 1, 48, 127
2, 11440, Note_on_c, 1, 76, 127
2, 11480, Note_off_c, 1, 76, 0
2, 11480, Note_on_c, 1, 77, 127
2, 11560, Note_off_c, 1, 48, 0
2, 11560, Note_off_c, 1, 77, 0
2, 11600, Note_on_c, 1, 52, 127
2, 11600, Note_on_c, 1, 79, 127
2, 11760, Note_off_c, 1, 52, 0
2, 11760, Note_off_c, 1, 79, 0
2, 11800, Note_on_c, 1, 53, 127
2, 11800, Note_on_c, 1, 81, 127
2, 11960, Note_off_c, 1, 53, 0
2, 12000, Note_on_c, 1, 53, 127
2, 12160, Note_off_c, 1, 53, 0
2, 12200, Note_on_c, 1, 57, 127
2, 12320, Note_off_c, 1, 57, 0
2, 12400, Note_on_c, 1, 58, 127
2, 12520, Note_off_c, 1, 58, 0
2, 12520, Note_off_c, 1, 81, 0
2, 12560, Note_on_c, 1, 57, 127
2, 12560, Note_on_c, 1, 77, 127
2, 12720, Note_off_c, 1, 57, 0
2, 12720, Note_off_c, 1, 77, 0
2, 12760, Note_on_c, 1, 59, 127
2, 12760, Note_on_c, 1, 79, 127
2, 12920, Note_off_c, 1, 59, 0
2, 12920, Note_off_c, 1, 79, 0
2, 12960, Note_on_c, 1, 60, 127
2, 12960, Note_on_c, 1, 77, 127
2, 13120, Note_off_c, 1, 60, 0
2, 13120, Note_off_c, 1, 77, 0
2, 13160, Note_on_c, 1, 63, 127
2, 13160, Note_on_c, 1, 79, 127
2, 13280, Note_off_c, 1, 63, 0
2, 13280, Note_off_c, 1, 79, 0
2, 13360, Note_on_c, 1, 60, 127
2, 13360, Note_on_c, 1, 81, 127
2, 13480, Note_off_c, 1, 60, 0
2, 13480, Note_off_c, 1, 81, 0
2, 13520, Note_on_c, 1, 63, 127
2, 13520, Note_on_c, 1, 82, 127
2, 13680, Note_off_c, 1, 63, 0
2, 13680, Note_off_c, 1, 82, 0
2, 13720, Note_on_c, 1, 58, 127
2, 13720, Note_on_c, 1, 81, 127
2, 13880, Note_off_c, 1, 58, 0
2, 13880, Note_off_c, 1, 81, 0
2, 13920, Note_on_c, 1, 57, 127
2, 14000, Note_on_c, 1, 79, 127
2, 14080, Note_off_c, 1, 57, 0
2, 14080, Note_off_c, 1, 79, 0
2, 14120, Note_on_c, 1, 48, 127
2, 14120, Note_on_c, 1, 80, 127
2, 14240, Note_off_c, 1, 48, 0
2, 14240, Note_off_c, 1, 80, 0
2, 14320, Note_on_c, 1, 60, 127
2, 14320, Note_on_c, 1, 76, 127
2, 14440, Note_off_c, 1, 60, 0
2, 14440, Note_off_c, 1, 76, 0
2, 14480, Note_on_c, 1, 48, 127
2, 14480, Note_on_c, 1, 76, 127
2, 14640, Note_off_c, 1, 76, 0
2, 14680, Note_on_c, 1, 75, 127
2, 14840, Note_off_c, 1, 48, 0
2, 14840, Note_off_c, 1, 75, 0
2, 14880, Note_on_c, 1, 50, 127
2, 14880, Note_on_c, 1, 53, 127
2, 14880, Note_on_c, 1, 79, 127
2, 15040, Note_off_c, 1, 53, 0
2, 15040, Note_off_c, 1, 79, 0
2, 15080, Note_on_c, 1, 57, 127
2, 15080, Note_on_c, 1, 81, 127
2, 15200, Note_off_c, 1, 50, 0
2, 15200, Note_off_c, 1, 57, 0
2, 15200, Note_off_c, 1, 81, 0
2, 15280, Note_on_c, 1, 58, 127
2, 15280, Note_on_c, 1, 79, 127
2, 15360, Note_off_c, 1, 79, 0
2, 15440, Note_on_c, 1, 50, 127
2, 15440, Note_on_c, 1, 77, 127
2, 15600, Note_off_c, 1, 58, 0
2, 15600, Note_off_c, 1, 77, 0
2, 15640, Note_on_c, 1, 57, 127
2, 15640, Note_on_c, 1, 79, 127
2, 15800, Note_off_c, 1, 50, 0
2, 15800, Note_off_c, 1, 57, 0
2, 15800, Note_off_c, 1, 79, 0
2, 15840, Note_on_c, 1, 58, 127
2, 15840, Note_on_c, 1, 84, 127
2, 16000, Note_off_c, 1, 58, 0
2, 16000, Note_off_c, 1, 84, 0
2, 16040, Note_on_c, 1, 48, 127
2, 16040, Note_on_c, 1, 52, 127
2, 16040, Note_on_c, 1, 82, 127
2, 16160, Note_off_c, 1, 52, 0
2, 16240, Note_on_c, 1, 60, 127
2, 16320, Note_off_c, 1, 82, 0
2, 16360, Note_off_c, 1, 48, 0
2, 16360, Note_off_c, 1, 60, 0
2, 16400, Note_on_c, 1, 62, 127
2, 16400, Note_on_c, 1, 79, 127
2, 16560, Note_off_c, 1, 62, 0
2, 16560, Note_off_c, 1, 79, 0
2, 16600, Note_on_c, 1, 63, 127
2, 16600, Note_on_c, 1, 77, 127
2, 16760, Note_off_c, 1, 63, 0
2, 16760, Note_off_c, 1, 77, 0
2, 16800, Note_on_c, 1, 58, 127
2, 16800, Note_on_c, 1, 79, 127
2, 16960, Note_off_c, 1, 58, 0
2, 16960, Note_off_c, 1, 79, 0
2, 17000, Note_on_c, 1, 62, 127
2, 17000, Note_on_c, 1, 77, 127
2, 17120, Note_off_c, 1, 62, 0
2, 17120, Note_off_c, 1, 77, 0
2, 17200, Note_on_c, 1, 53, 127
2, 17200, Note_on_c, 1, 63, 127
2, 17200, Note_on_c, 1, 86, 127
2, 17320, Note_off_c, 1, 53, 0
2, 17320, Note_off_c, 1, 63, 0
2, 17320, Note_off_c, 1, 86, 0
2, 17360, Note_on_c, 1, 63, 127
2, 17360, Note_on_c, 1, 86, 127
2, 17520, Note_off_c, 1, 63, 0
2, 17520, Note_off_c, 1, 86, 0
2, 17560, Note_on_c, 1, 55, 127
2, 17560, Note_on_c, 1, 60, 127
2, 17560, Note_on_c, 1, 79, 127
2, 17720, Note_off_c, 1, 60, 0
2, 17760, Note_on_c, 1, 62, 127
2, 17920, Note_off_c, 1, 55, 0
2, 17920, Note_off_c, 1, 62, 0
2, 17920, Note_off_c, 1, 79, 0
2, 17960, Note_on_c, 1, 60, 127
2, 17960, Note_on_c, 1, 77, 127
2, 18080, Note_off_c, 1, 60, 0
2, 18080, Note_off_c, 1, 77, 0
2, 18160, Note_on_c, 1, 55, 127
2, 18160, Note_on_c, 1, 76, 127
2, 18280, Note_off_c, 1, 55, 0
2, 18280, Note_off_c, 1, 76, 0
2, 18320, Note_on_c, 1, 53, 127
2, 18320, Note_on_c, 1, 65, 127
2, 18320, Note_on_c, 1, 74, 127
2, 18320, Note_on_c, 1, 77, 127
2, 18480, Note_off_c, 1, 53, 0
2, 18480, Note_off_c, 1, 74, 0
2, 18520, Note_on_c, 1, 57, 127
2, 18520, Note_on_c, 1, 72, 127
2, 18680, Note_off_c, 1, 57, 0
2, 18680, Note_off_c, 1, 65, 0
2, 18680, Note_off_c, 1, 72, 0
2, 18680, Note_off_c, 1, 77, 0
2, 18720, Note_on_c, 1, 45, 127
2, 18720, Note_on_c, 1, 48, 127
2, 18720, Note_on_c, 1, 51, 127
2, 18720, Note_on_c, 1, 59, 127
2, 18720, Note_on_c, 1, 72, 127
2, 18720, Note_on_c, 1, 79, 127
2, 18760, Note_off_c, 1, 59, 0
2, 18880, Note_off_c, 1, 51, 0
2, 18880, Note_off_c, 1, 72, 0
2, 18880, Note_off_c, 1, 79, 0
2, 19120, Note_on_c, 1, 53, 127
2, 19120, Note_on_c, 1, 75, 127
2, 19440, Note_off_c, 1, 75, 0
2, 19520, Note_on_c, 1, 74, 127
2, 19520, Note_on_c, 1, 84, 127
2, 19640, Note_off_c, 1, 74, 0
2, 19640, Note_off_c, 1, 84, 0
2, 19680, Note_on_c, 1, 77, 127
2, 19840, Note_off_c, 1, 45, 0
2, 19840, Note_off_c, 1, 48, 0
2, 19840, Note_off_c, 1, 53, 0
2, 19840, Note_off_c, 1, 77, 0
2, 19880, Note_on_c, 1, 46, 127
2, 19880, Note_on_c, 1, 77, 127
2, 19880, Note_on_c, 1, 85, 127
2, 20040, Note_off_c, 1, 77, 0
2, 20080, Note_on_c, 1, 78, 127
2, 20200, Note_off_c, 1, 78, 0
2, 20240, Note_off_c, 1, 85, 0
2, 20280, Note_on_c, 1, 34, 127
2, 20280, Note_on_c, 1, 38, 127
2, 20280, Note_on_c, 1, 87, 127
2, 20320, Note_off_c, 1, 38, 0
2, 20320, Note_on_c, 1, 41, 127
2, 20400, Note_off_c, 1, 41, 0
2, 20400, Note_off_c, 1, 87, 0
2, 20480, Note_on_c, 1, 77, 127
2, 20600, Note_off_c, 1, 34, 0
2, 20600, Note_off_c, 1, 46, 0
2, 20600, Note_off_c, 1, 77, 0
2, 20640, Note_on_c, 1, 45, 127
2, 20640, Note_on_c, 1, 48, 127
2, 20640, Note_on_c, 1, 77, 127
2, 20800, Note_off_c, 1, 48, 0
2, 20840, Note_on_c, 1, 57, 127
2, 21000, Note_off_c, 1, 57, 0
2, 21000, Note_off_c, 1, 77, 0
2, 21040, Note_on_c, 1, 55, 127
2, 21040, Note_on_c, 1, 74, 127
2, 21040, Note_on_c, 1, 79, 127
2, 21200, Note_off_c, 1, 74, 0
2, 21200, Note_off_c, 1, 79, 0
2, 21240, Note_on_c, 1, 72, 127
2, 21240, Note_on_c, 1, 77, 127
2, 21360, Note_off_c, 1, 45, 0
2, 21360, Note_off_c, 1, 55, 0
2, 21360, Note_off_c, 1, 72, 0
2, 21360, Note_off_c, 1, 77, 0
2, 21440, Note_on_c, 1, 57, 127
2, 21440, Note_on_c, 1, 84, 127
2, 21560, Note_off_c, 1, 57, 0
2, 21600, Note_on_c, 1, 60, 127
2, 21760, Note_off_c, 1, 60, 0
2, 21760, Note_off_c, 1, 84, 0
2, 21800, Note_on_c, 1, 53, 127
2, 21800, Note_on_c, 1, 82, 127
2, 21880, Note_off_c, 1, 82, 0
2, 21920, Note_on_c, 1, 81, 127
2, 21960, Note_off_c, 1, 53, 0
2, 21960, Note_off_c, 1, 81, 0
2, 22000, Note_on_c, 1, 60, 127
2, 22000, Note_on_c, 1, 82, 127
2, 22080, Note_on_c, 1, 81, 127
2, 22080, Note_off_c, 1, 82, 0
2, 22160, Note_off_c, 1, 60, 0
2, 22160, Note_off_c, 1, 81, 0
2, 22200, Note_on_c, 1, 48, 127
2, 22200, Note_on_c, 1, 58, 127
2, 22200, Note_on_c, 1, 70, 127
2, 22200, Note_on_c, 1, 82, 127
2, 22360, Note_off_c, 1, 48, 0
2, 22360, Note_off_c, 1, 58, 0
2, 22560, Note_off_c, 1, 70, 0
2, 22600, Note_on_c, 1, 48, 127
2, 22600, Note_off_c, 1, 82, 0
2, 22600, Note_on_c, 1, 84, 127
2, 22720, Note_off_c, 1, 48, 0
2, 22800, Note_on_c, 1, 60, 127
2, 22920, Note_off_c, 1, 60, 0
2, 22920, Note_off_c, 1, 84, 0
2, 22960, Note_on_c, 1, 48, 127
2, 22960, Note_on_c, 1, 58, 127
2, 22960, Note_on_c, 1, 72, 127
2, 22960, Note_on_c, 1, 84, 127
2, 23000, Note_on_c, 1, 50, 127
2, 23000, Note_on_c, 1, 55, 127
2, 23000, Note_off_c, 1, 58, 0
2, 23320, Note_off_c, 1, 48, 0
2, 23320, Note_off_c, 1, 50, 0
2, 23320, Note_off_c, 1, 55, 0
2, 23320, Note_off_c, 1, 72, 0
2, 23320, Note_off_c, 1, 84, 0
2, 23360, Note_on_c, 1, 63, 127
2, 23360, Note_on_c, 1, 75, 127
2, 23360, Note_on_c, 1, 84, 127
2, 23520, Note_off_c, 1, 63, 0
2, 23560, Note_on_c, 1, 62, 127
2, 23720, Note_off_c, 1, 62, 0
2, 23720, Note_off_c, 1, 75, 0
2, 23720, Note_off_c, 1, 84, 0
2, 23760, Note_on_c, 1, 55, 127
2, 23760, Note_on_c, 1, 86, 127
2, 23920, Note_off_c, 1, 86, 0
2, 23960, Note_on_c, 1, 87, 127
2, 24080, Note_off_c, 1, 55, 0
2, 24080, Note_off_c, 1, 87, 0
2, 24160, Note_on_c, 1, 57, 127
2, 24160, Note_on_c, 1, 84, 127
2, 24280, Note_off_c, 1, 84, 0
2, 24320, Note_on_c, 1, 84, 127
2, 24480, Note_off_c, 1, 57, 0
2, 24480, Note_off_c, 1, 84, 0
2, 24520, Note_on_c, 1, 62, 127
2, 24520, Note_on_c, 1, 77, 127
2, 24680, Note_off_c, 1, 62, 0
2, 24720, Note_on_c, 1, 65, 127
2, 24880, Note_off_c, 1, 65, 0
2, 24880, Note_off_c, 1, 77, 0
2, 24920, Note_on_c, 1, 46, 127
2, 24920, Note_on_c, 1, 63, 127
2, 24920, Note_on_c, 1, 81, 127
2, 25080, Note_off_c, 1, 63, 0
2, 25120, Note_on_c, 1, 62, 127
2, 25240, Note_off_c, 1, 46, 0
2, 25240, Note_off_c, 1, 62, 0
2, 25280, Note_off_c, 1, 81, 0
2, 25320, Note_on_c, 1, 48, 127
2, 25320, Note_on_c, 1, 63, 127
2, 25320, Note_on_c, 1, 81, 127
2, 25440, Note_off_c, 1, 63, 0
2, 25480, Note_on_c, 1, 62, 127
2, 25640, Note_off_c, 1, 48, 0
2, 25640, Note_off_c, 1, 62, 0
2, 25640, Note_off_c, 1, 81, 0
2, 25680, Note_on_c, 1, 60, 127
2, 25680, Note_on_c, 1, 84, 127
2, 25840, Note_off_c, 1, 60, 0
2, 25880, Note_on_c, 1, 65, 127
2, 26040, Note_off_c, 1, 65, 0
2, 26040, Note_off_c, 1, 84, 0
2, 26080, Note_on_c, 1, 59, 127
2, 26080, Note_on_c, 1, 86, 127
2, 26240, Note_off_c, 1, 59, 0
2, 26240, Note_off_c, 1, 86, 0
2, 26280, Note_on_c, 1, 65, 127
2, 26280, Note_on_c, 1, 78, 127
2, 26400, Note_off_c, 1, 65, 0
2, 26400, Note_off_c, 1, 78, 0
2, 26480, Note_on_c, 1, 58, 127
2, 26480, Note_on_c, 1, 77, 127
2, 26600, Note_off_c, 1, 58, 0
2, 26600, Note_off_c, 1, 77, 0
2, 26640, Note_on_c, 1, 65, 127
2, 26640, Note_on_c, 1, 74, 127
2, 26800, Note_off_c, 1, 65, 0
2, 26800, Note_off_c, 1, 74, 0
2, 26840, Note_on_c, 1, 58, 127
2, 26840, Note_on_c, 1, 79, 127
2, 27000, Note_off_c, 1, 58, 0
2, 27000, Note_off_c, 1, 79, 0
2, 27040, Note_on_c, 1, 65, 127
2, 27040, Note_on_c, 1, 77, 127
2, 27200, Note_off_c, 1, 65, 0
2, 27200, Note_off_c, 1, 77, 0
2, 27240, Note_on_c, 1, 55, 127
2, 27240, Note_on_c, 1, 68, 127
2, 27240, Note_on_c, 1, 79, 127
2, 27400, Note_off_c, 1, 55, 0
2, 27400, Note_on_c, 1, 67, 127
2, 27400, Note_off_c, 1, 68, 0
2, 27440, Note_on_c, 1, 65, 127
2, 27440, Note_off_c, 1, 67, 0
2, 27560, Note_off_c, 1, 65, 0
2, 27560, Note_off_c, 1, 79, 0
2, 27640, Note_on_c, 1, 53, 127
2, 27640, Note_on_c, 1, 75, 127
2, 27760, Note_off_c, 1, 53, 0
2, 27760, Note_off_c, 1, 75, 0
2, 27800, Note_on_c, 1, 65, 127
2, 27800, Note_on_c, 1, 74, 127
2, 27960, Note_off_c, 1, 65, 0
2, 27960, Note_off_c, 1, 74, 0
2, 28000, Note_on_c, 1, 60, 127
2, 28000, Note_on_c, 1, 72, 127
2, 28160, Note_off_c, 1, 60, 0
2, 28160, Note_off_c, 1, 72, 0
2, 28200, Note_on_c, 1, 65, 127
2, 28200, Note_on_c, 1, 74, 127
2, 28360, Note_off_c, 1, 65, 0
2, 28360, Note_off_c, 1, 74, 0
2, 28400, Note_on_c, 1, 53, 127
2, 28400, Note_on_c, 1, 58, 127
2, 28400, Note_on_c, 1, 72, 127
2, 28400, Note_on_c, 1, 75, 127
2, 28520, Note_off_c, 1, 72, 0
2, 28520, Note_off_c, 1, 75, 0
2, 28600, Note_on_c, 1, 74, 127
2, 28720, Note_off_c, 1, 53, 0
2, 28720, Note_off_c, 1, 58, 0
2, 28720, Note_off_c, 1, 74, 0
2, 28760, Note_on_c, 1, 72, 127
2, 28920, Note_off_c, 1, 72, 0
2, 28960, Note_on_c, 1, 70, 127
2, 29120, Note_off_c, 1, 70, 0
2, 29160, Note_on_c, 1, 51, 127
2, 29160, Note_on_c, 1, 53, 127
2, 29160, Note_on_c, 1, 70, 127
2, 29320, Note_off_c, 1, 70, 0
2, 29360, Note_on_c, 1, 69, 127
2, 29400, Note_off_c, 1, 51, 0
2, 29480, Note_off_c, 1, 53, 0
2, 29480, Note_off_c, 1, 69, 0
2, 29560, Note_on_c, 1, 48, 127
2, 29560, Note_on_c, 1, 70, 127
2, 29720, Note_on_c, 1, 60, 127
2, 29880, Note_off_c, 1, 48, 0
2, 29880, Note_off_c, 1, 60, 0
2, 29920, Note_on_c, 1, 46, 127
2, 29920, Note_on_c, 1, 58, 127
2, 29960, Note_off_c, 1, 70, 0
2, 30080, Note_off_c, 1, 58, 0
2, 30120, Note_on_c, 1, 58, 127
2, 30280, Note_off_c, 1, 46, 0
2, 30280, Note_off_c, 1, 58, 0
2, 30280, Note_on_c, 1, 65, 127
2, 30320, Note_on_c, 1, 34, 127
2, 30320, Note_on_c, 1, 46, 127
2, 30320, Note_on_c, 1, 62, 127
2, 30320, Note_off_c, 1, 65, 0
2, 30440, Note_off_c, 1, 34, 0
2, 30440, Note_off_c, 1, 46, 0
2, 30440, Note_off_c, 1, 62, 0
2, 30440, Note_on_c, 1, 65, 127
2, 30520, Note_on_c, 1, 38, 127
2, 30520, Note_on_c, 1, 50, 127
2, 30640, Note_off_c, 1, 38, 0
2, 30640, Note_off_c, 1, 50, 0
2, 30640, Note_off_c, 1, 65, 0
2, 30680, Note_on_c, 1, 36, 127
2, 30680, Note_on_c, 1, 48, 127
2, 30680, Note_on_c, 1, 81, 127
2, 30840, Note_off_c, 1, 36, 0
2, 30840, Note_off_c, 1, 48, 0
2, 30840, Note_off_c, 1, 81, 0
2, 30880, Note_on_c, 1, 34, 127
2, 30880, Note_on_c, 1, 46, 127
2, 30880, Note_on_c, 1, 82, 127
2, 31040, Note_off_c, 1, 34, 0
2, 31040, Note_off_c, 1, 46, 0
2, 31040, Note_off_c, 1, 82, 0
2, 31080, Note_on_c, 1, 34, 127
2, 31080, Note_on_c, 1, 46, 127
2, 31080, Note_on_c, 1, 77, 127
2, 31240, Note_off_c, 1, 77, 0
2, 31280, Note_on_c, 1, 75, 127
2, 31400, Note_off_c, 1, 34, 0
2, 31400, Note_off_c, 1, 46, 0
2, 31400, Note_off_c, 1, 75, 0
2, 31480, Note_on_c, 1, 77, 127
2, 31600, Note_off_c, 1, 77, 0
2, 31640, Note_on_c, 1, 79, 127
2, 31800, Note_off_c, 1, 79, 0
2, 31840, Note_on_c, 1, 36, 127
2, 31840, Note_on_c, 1, 48, 127
2, 31840, Note_on_c, 1, 81, 127
2, 32000, Note_off_c, 1, 81, 0
2, 32040, Note_on_c, 1, 75, 127
2, 32200, Note_off_c, 1, 36, 0
2, 32200, Note_off_c, 1, 48, 0
2, 32200, Note_off_c, 1, 75, 0
2, 32240, Note_on_c, 1, 38, 127
2, 32240, Note_on_c, 1, 53, 127
2, 32240, Note_on_c, 1, 77, 127
2, 32360, Note_off_c, 1, 77, 0
2, 32440, Note_on_c, 1, 75, 127
2, 32560, Note_off_c, 1, 38, 0
2, 32560, Note_off_c, 1, 53, 0
2, 32560, Note_off_c, 1, 75, 0
2, 32600, Note_on_c, 1, 46, 127
2, 32600, Note_on_c, 1, 58, 127
2, 32600, Note_on_c, 1, 67, 127
2, 32760, Note_off_c, 1, 67, 0
2, 32800, Note_on_c, 1, 74, 127
2, 32960, Note_off_c, 1, 46, 0
2, 32960, Note_off_c, 1, 58, 0
2, 32960, Note_off_c, 1, 74, 0
2, 33000, Note_on_c, 1, 48, 127
2, 33000, Note_on_c, 1, 60, 127
2, 33000, Note_on_c, 1, 69, 127
2, 33120, Note_off_c, 1, 69, 0
2, 33200, Note_on_c, 1, 67, 127
2, 33320, Note_off_c, 1, 48, 0
2, 33320, Note_off_c, 1, 60, 0
2, 33320, Note_off_c, 1, 67, 0
2, 33360, Note_on_c, 1, 41, 127
2, 33360, Note_on_c, 1, 53, 127
2, 33360, Note_on_c, 1, 65, 127
2, 33520, Note_off_c, 1, 65, 0
2, 33560, Note_on_c, 1, 77, 127
2, 33720, Note_off_c, 1, 41, 0
2, 33720, Note_off_c, 1, 53, 0
2, 33720, Note_off_c, 1, 77, 0
2, 33760, Note_on_c, 1, 46, 127
2, 33760, Note_on_c, 1, 58, 127
2, 33760, Note_on_c, 1, 77, 127
2, 33880, Note_off_c, 1, 77, 0
2, 34080, Note_off_c, 1, 46, 0
2, 34080, Note_off_c, 1, 58, 0
2, 34120, Note_on_c, 1, 46, 127
2, 34120, Note_on_c, 1, 58, 127
2, 34120, Note_on_c, 1, 62, 127
2, 34280, Note_off_c, 1, 62, 0
2, 34320, Note_on_c, 1, 70, 127
2, 34480, Note_off_c, 1, 46, 0
2, 34480, Note_off_c, 1, 58, 0
2, 34480, Note_off_c, 1, 70, 0
2, 34520, Note_on_c, 1, 46, 127
2, 34520, Note_on_c, 1, 58, 127
2, 34520, Note_on_c, 1, 75, 127
2, 34680, Note_off_c, 1, 75, 0
2, 34720, Note_on_c, 1, 74, 127
2, 34840, Note_off_c, 1, 46, 0
2, 34840, Note_off_c, 1, 58, 0
2, 34840, Note_off_c, 1, 74, 0
2, 34920, Note_on_c, 1, 46, 127
2, 34920, Note_on_c, 1, 58, 127
2, 34920, Note_on_c, 1, 67, 127
2, 35040, Note_off_c, 1, 67, 0
2, 35080, Note_on_c, 1, 65, 127
2, 35240, Note_off_c, 1, 46, 0
2, 35240, Note_off_c, 1, 58, 0
2, 35240, Note_off_c, 1, 65, 0
2, 35280, Note_on_c, 1, 48, 127
2, 35280, Note_on_c, 1, 60, 127
2, 35280, Note_on_c, 1, 69, 127
2, 35440, Note_off_c, 1, 48, 0
2, 35440, Note_off_c, 1, 60, 0
2, 35480, Note_on_c, 1, 46, 127
2, 35480, Note_on_c, 1, 53, 127
2, 35640, Note_off_c, 1, 46, 0
2, 35640, Note_off_c, 1, 53, 0
2, 35640, Note_off_c, 1, 69, 0
2, 35680, Note_on_c, 1, 48, 127
2, 35800, Note_off_c, 1, 48, 0
2, 35880, Note_on_c, 1, 50, 127
2, 36000, Note_off_c, 1, 50, 0
2, 36040, Note_on_c, 1, 52, 127
2, 36040, Note_on_c, 1, 65, 127
2, 36200, Note_off_c, 1, 52, 0
2, 36240, Note_on_c, 1, 53, 127
2, 36400, Note_off_c, 1, 53, 0
2, 36400, Note_off_c, 1, 65, 0
2, 36440, Note_on_c, 1, 46, 127
2, 36440, Note_on_c, 1, 51, 127
2, 36440, Note_on_c, 1, 65, 127
2, 36600, Note_off_c, 1, 51, 0
2, 36640, Note_on_c, 1, 53, 127
2, 36760, Note_off_c, 1, 46, 0
2, 36760, Note_off_c, 1, 53, 0
2, 36760, Note_off_c, 1, 65, 0
2, 36840, Note_on_c, 1, 46, 127
2, 36840, Note_on_c, 1, 50, 127
2, 36840, Note_on_c, 1, 74, 127
2, 36880, Note_off_c, 1, 74, 0
2, 36920, Note_on_c, 1, 75, 127
2, 36960, Note_off_c, 1, 75, 0
2, 37000, Note_on_c, 1, 74, 127
2, 37040, Note_off_c, 1, 74, 0
2, 37120, Note_on_c, 1, 72, 127
2, 37160, Note_off_c, 1, 46, 0
2, 37160, Note_off_c, 1, 50, 0
2, 37160, Note_off_c, 1, 72, 0
2, 37200, Note_on_c, 1, 46, 127
2, 37200, Note_on_c, 1, 53, 127
2, 37200, Note_on_c, 1, 62, 127
2, 37240, Note_off_c, 1, 62, 0
2, 37320, Note_on_c, 1, 65, 127
2, 37360, Note_off_c, 1, 65, 0
2, 37400, Note_on_c, 1, 70, 127
2, 37440, Note_off_c, 1, 70, 0
2, 37480, Note_on_c, 1, 69, 127
2, 37560, Note_off_c, 1, 69, 0
2, 37600, Note_on_c, 1, 62, 127
2, 37680, Note_off_c, 1, 62, 0
2, 37800, Note_on_c, 1, 63, 127
2, 37880, Note_on_c, 1, 62, 127
2, 37880, Note_off_c, 1, 63, 0
2, 37920, Note_off_c, 1, 62, 0
2, 37960, Note_on_c, 1, 65, 127
2, 38120, Note_off_c, 1, 65, 0
2, 38160, Note_on_c, 1, 58, 127
2, 38320, Note_off_c, 1, 58, 0
2, 38360, Note_on_c, 1, 68, 127
2, 38480, Note_off_c, 1, 68, 0
2, 38560, Note_on_c, 1, 74, 127
2, 38680, Note_off_c, 1, 46, 0
2, 38680, Note_off_c, 1, 74, 0
2, 38720, Note_on_c, 1, 42, 127
2, 38720, Note_on_c, 1, 75, 127
2, 38880, Note_off_c, 1, 75, 0
2, 38920, Note_on_c, 1, 74, 127
2, 39080, Note_off_c, 1, 42, 0
2, 39080, Note_off_c, 1, 74, 0
2, 39120, Note_on_c, 1, 43, 127
2, 39120, Note_on_c, 1, 67, 127
2, 39280, Note_off_c, 1, 67, 0
2, 39320, Note_on_c, 1, 70, 127
2, 39480, Note_off_c, 1, 43, 0
2, 39480, Note_off_c, 1, 70, 0
2, 39520, Note_on_c, 1, 46, 127
2, 39520, Note_on_c, 1, 74, 127
2, 39760, Note_off_c, 1, 74, 0
2, 39800, Note_on_c, 1, 70, 127
2, 39840, Note_off_c, 1, 46, 0
2, 39840, Note_off_c, 1, 53, 0
2, 39840, Note_off_c, 1, 70, 0
2, 39880, Note_on_c, 1, 45, 127
2, 39880, Note_on_c, 1, 53, 127
2, 39880, Note_on_c, 1, 72, 127
2, 39920, Note_off_c, 1, 72, 0
2, 39960, Note_on_c, 1, 71, 127
2, 40040, Note_off_c, 1, 71, 0
2, 40080, Note_on_c, 1, 72, 127
2, 40240, Note_off_c, 1, 72, 0
2, 40280, Note_on_c, 1, 74, 127
2, 40320, Note_off_c, 1, 74, 0
2, 40360, Note_on_c, 1, 75, 127
2, 40440, Note_off_c, 1, 75, 0
2, 40480, Note_on_c, 1, 74, 127
2, 40520, Note_off_c, 1, 74, 0
2, 40560, Note_on_c, 1, 72, 127
2, 40600, Note_off_c, 1, 45, 0
2, 40600, Note_off_c, 1, 72, 0
2, 40680, Note_on_c, 1, 46, 127
2, 40680, Note_on_c, 1, 70, 127
2, 40800, Note_off_c, 1, 70, 0
2, 40840, Note_on_c, 1, 74, 127
2, 41000, Note_off_c, 1, 74, 0
2, 41040, Note_on_c, 1, 77, 127
2, 41200, Note_off_c, 1, 77, 0
2, 41240, Note_on_c, 1, 70, 127
2, 41400, Note_off_c, 1, 46, 0
2, 41400, Note_off_c, 1, 53, 0
2, 41400, Note_off_c, 1, 70, 0
2, 41440, Note_on_c, 1, 41, 127
2, 41440, Note_on_c, 1, 46, 127
2, 41440, Note_on_c, 1, 58, 127
2, 41560, Note_off_c, 1, 41, 0
2, 41560, Note_off_c, 1, 58, 0
2, 41600, Note_on_c, 1, 70, 127
2, 41760, Note_off_c, 1, 70, 0
2, 41800, Note_on_c, 1, 41, 127
2, 41800, Note_on_c, 1, 62, 127
2, 41960, Note_off_c, 1, 62, 0
2, 42000, Note_on_c, 1, 68, 127
2, 42120, Note_off_c, 1, 41, 0
2, 42120, Note_off_c, 1, 46, 0
2, 42120, Note_off_c, 1, 68, 0
2, 42200, Note_on_c, 1, 39, 127
2, 42200, Note_on_c, 1, 48, 127
2, 42200, Note_on_c, 1, 67, 127
2, 42320, Note_off_c, 1, 67, 0
2, 42360, Note_on_c, 1, 63, 127
2, 42520, Note_off_c, 1, 39, 0
2, 42520, Note_off_c, 1, 48, 0
2, 42520, Note_off_c, 1, 63, 0
2, 42560, Note_on_c, 1, 42, 127
2, 42560, Note_on_c, 1, 48, 127
2, 42560, Note_on_c, 1, 54, 127
2, 42560, Note_on_c, 1, 84, 127
2, 42720, Note_off_c, 1, 84, 0
2, 42760, Note_on_c, 1, 82, 127
2, 42920, Note_off_c, 1, 42, 0
2, 42920, Note_off_c, 1, 48, 0
2, 42920, Note_off_c, 1, 82, 0
2, 42960, Note_on_c, 1, 48, 127
2, 42960, Note_on_c, 1, 74, 127
2, 43080, Note_off_c, 1, 74, 0
2, 43160, Note_on_c, 1, 77, 127
2, 43280, Note_off_c, 1, 48, 0
2, 43280, Note_off_c, 1, 77, 0
2, 43320, Note_on_c, 1, 46, 127
2, 43320, Note_on_c, 1, 78, 127
2, 43480, Note_off_c, 1, 78, 0
2, 43520, Note_on_c, 1, 77, 127
2, 43680, Note_off_c, 1, 46, 0
2, 43680, Note_off_c, 1, 54, 0
2, 43680, Note_off_c, 1, 77, 0
2, 43720, Note_on_c, 1, 46, 127
2, 43720, Note_on_c, 1, 58, 127
2, 43720, Note_on_c, 1, 72, 127
2, 43880, Note_off_c, 1, 72, 0
2, 43920, Note_on_c, 1, 70, 127
2, 44040, Note_off_c, 1, 46, 0
2, 44040, Note_off_c, 1, 58, 0
2, 44040, Note_off_c, 1, 70, 0
2, 44120, Note_on_c, 1, 45, 127
2, 44120, Note_on_c, 1, 57, 127
2, 44120, Note_on_c, 1, 69, 127
2, 44240, Note_off_c, 1, 69, 0
2, 44280, Note_on_c, 1, 72, 127
2, 44440, Note_off_c, 1, 45, 0
2, 44440, Note_off_c, 1, 57, 0
2, 44440, Note_off_c, 1, 72, 0
2, 44480, Note_on_c, 1, 46, 127
2, 44480, Note_on_c, 1, 58, 127
2, 44480, Note_on_c, 1, 70, 127
2, 44640, Note_off_c, 1, 70, 0
2, 44680, Note_on_c, 1, 69, 127
2, 44840, Note_off_c, 1, 46, 0
2, 44840, Note_off_c, 1, 58, 0
2, 44840, Note_off_c, 1, 69, 0
2, 44880, Note_on_c, 1, 45, 127
2, 44880, Note_on_c, 1, 57, 127
2, 44880, Note_on_c, 1, 77, 127
2, 45000, Note_off_c, 1, 57, 0
2, 45080, Note_on_c, 1, 65, 127
2, 45200, Note_off_c, 1, 45, 0
2, 45200, Note_off_c, 1, 65, 0
2, 45240, Note_on_c, 1, 46, 127
2, 45240, Note_on_c, 1, 62, 127
2, 45400, Note_off_c, 1, 62, 0
2, 45440, Note_on_c, 1, 70, 127
2, 45520, Note_off_c, 1, 77, 0
2, 45600, Note_off_c, 1, 46, 0
2, 45600, Note_off_c, 1, 70, 0
2, 45640, Note_on_c, 1, 48, 127
2, 45640, Note_on_c, 1, 70, 127
2, 45640, Note_on_c, 1, 75, 127
2, 45760, Note_off_c, 1, 70, 0
2, 45840, Note_on_c, 1, 66, 127
2, 45960, Note_off_c, 1, 48, 0
2, 45960, Note_off_c, 1, 66, 0
2, 46000, Note_on_c, 1, 46, 127
2, 46000, Note_on_c, 1, 70, 127
2, 46160, Note_off_c, 1, 70, 0
2, 46200, Note_on_c, 1, 69, 127
2, 46360, Note_off_c, 1, 46, 0
2, 46360, Note_off_c, 1, 69, 0
2, 46360, Note_on_c, 1, 70, 127
2, 46360, Note_off_c, 1, 75, 0
2, 46400, Note_on_c, 1, 45, 127
2, 46400, Note_on_c, 1, 65, 127
2, 46400, Note_off_c, 1, 70, 0
2, 46400, Note_on_c, 1, 74, 127
2, 46440, Note_off_c, 1, 74, 0
2, 46600, Note_on_c, 1, 69, 127
2, 46720, Note_off_c, 1, 45, 0
2, 46720, Note_off_c, 1, 65, 0
2, 46800, Note_on_c, 1, 43, 127
2, 46800, Note_on_c, 1, 67, 127
2, 46920, Note_off_c, 1, 69, 0
2, 46960, Note_on_c, 1, 70, 127
2, 47120, Note_off_c, 1, 43, 0
2, 47160, Note_on_c, 1, 45, 127
2, 47360, Note_off_c, 1, 67, 0
2, 47480, Note_off_c, 1, 70, 0
2, 47560, Note_on_c, 1, 63, 127
2, 47560, Note_on_c, 1, 68, 127
2, 47680, Note_off_c, 1, 68, 0
2, 47720, Note_on_c, 1, 70, 127
2, 47880, Note_off_c, 1, 45, 0
2, 47880, Note_off_c, 1, 63, 0
2, 47920, Note_on_c, 1, 58, 127
2, 47920, Note_on_c, 1, 62, 127
2, 48000, Note_off_c, 1, 58, 0
2, 48080, Note_off_c, 1, 62, 0
2, 48120, Note_on_c, 1, 58, 127
2, 48280, Note_off_c, 1, 58, 0
2, 48320, Note_on_c, 1, 55, 127
2, 48320, Note_on_c, 1, 77, 127
2, 48480, Note_off_c, 1, 77, 0
2, 48520, Note_on_c, 1, 75, 127
2, 48680, Note_off_c, 1, 55, 0
2, 48680, Note_off_c, 1, 75, 0
2, 48720, Note_on_c, 1, 54, 127
2, 48720, Note_on_c, 1, 74, 127
2, 48880, Note_off_c, 1, 74, 0
2, 48920, Note_on_c, 1, 75, 127
2, 49040, Note_off_c, 1, 54, 0
2, 49040, Note_off_c, 1, 70, 0
2, 49040, Note_off_c, 1, 75, 0
2, 49120, Note_on_c, 1, 53, 127
2, 49120, Note_on_c, 1, 70, 127
2, 49120, Note_on_c, 1, 74, 127
2, 49240, Note_off_c, 1, 70, 0
2, 49280, Note_on_c, 1, 69, 127
2, 49440, Note_off_c, 1, 53, 0
2, 49440, Note_off_c, 1, 74, 0
2, 49480, Note_on_c, 1, 42, 127
2, 49480, Note_on_c, 1, 75, 127
2, 49640, Note_off_c, 1, 75, 0
2, 49680, Note_on_c, 1, 72, 127
2, 49840, Note_off_c, 1, 42, 0
2, 49840, Note_off_c, 1, 69, 0
2, 49840, Note_off_c, 1, 72, 0
2, 49880, Note_on_c, 1, 51, 127
2, 49880, Note_on_c, 1, 58, 127
2, 49880, Note_on_c, 1, 75, 127
2, 50040, Note_off_c, 1, 75, 0
2, 50080, Note_on_c, 1, 79, 127
2, 50240, Note_off_c, 1, 79, 0
2, 50280, Note_on_c, 1, 81, 127
2, 50400, Note_off_c, 1, 81, 0
2, 50480, Note_on_c, 1, 79, 127
2, 50600, Note_off_c, 1, 51, 0
2, 50600, Note_off_c, 1, 58, 0
2, 50600, Note_off_c, 1, 79, 0
2, 50640, Note_on_c, 1, 51, 127
2, 50640, Note_on_c, 1, 58, 127
2, 50640, Note_on_c, 1, 79, 127
2, 50800, Note_off_c, 1, 79, 0
2, 50840, Note_on_c, 1, 77, 127
2, 51000, Note_off_c, 1, 58, 0
2, 51000, Note_off_c, 1, 77, 0
2, 51040, Note_on_c, 1, 63, 127
2, 51040, Note_on_c, 1, 79, 127
2, 51200, Note_off_c, 1, 79, 0
2, 51240, Note_on_c, 1, 74, 127
2, 51360, Note_off_c, 1, 51, 0
2, 51360, Note_off_c, 1, 63, 0
2, 51360, Note_off_c, 1, 74, 0
2, 51440, Note_on_c, 1, 72, 127
2, 51560, Note_off_c, 1, 72, 0
2, 51600, Note_on_c, 1, 74, 127
2, 51760, Note_off_c, 1, 74, 0
2, 51800, Note_on_c, 1, 79, 127
2, 51960, Note_off_c, 1, 79, 0
2, 52000, Note_on_c, 1, 74, 127
2, 52160, Note_off_c, 1, 74, 0
2, 52200, Note_on_c, 1, 72, 127
2, 52320, Note_off_c, 1, 72, 0
2, 52400, Note_on_c, 1, 74, 127
2, 52520, Note_off_c, 1, 74, 0
2, 52560, Note_on_c, 1, 79, 127
2, 52720, Note_off_c, 1, 79, 0
2, 52760, Note_on_c, 1, 81, 127
2, 52920, Note_off_c, 1, 81, 0
2, 52960, Note_on_c, 1, 77, 127
2, 52960, Note_on_c, 1, 82, 127
2, 53120, Note_off_c, 1, 77, 0
2, 53120, Note_off_c, 1, 82, 0
2, 53160, Note_on_c, 1, 79, 127
2, 53280, Note_off_c, 1, 79, 0
2, 53360, Note_on_c, 1, 77, 127
2, 53360, Note_on_c, 1, 81, 127
2, 53480, Note_off_c, 1, 77, 0
2, 53480, Note_off_c, 1, 81, 0
2, 53520, Note_on_c, 1, 74, 127
2, 53520, Note_on_c, 1, 77, 127
2, 53680, Note_off_c, 1, 74, 0
2, 53680, Note_off_c, 1, 77, 0
2, 53720, Note_on_c, 1, 72, 127
2, 53720, Note_on_c, 1, 75, 127
2, 53880, Note_off_c, 1, 72, 0
2, 53880, Note_off_c, 1, 75, 0
2, 53920, Note_on_c, 1, 70, 127
2, 53920, Note_on_c, 1, 74, 127
2, 54080, Note_off_c, 1, 70, 0
2, 54080, Note_off_c, 1, 74, 0
2, 54120, Note_on_c, 1, 58, 127
2, 54120, Note_on_c, 1, 62, 127
2, 54120, Note_on_c, 1, 65, 127
2, 54120, Note_on_c, 1, 70, 127
2, 54240, Note_off_c, 1, 70, 0
2, 54320, Note_on_c, 1, 69, 127
2, 54440, Note_off_c, 1, 58, 0
2, 54440, Note_off_c, 1, 62, 0
2, 54440, Note_off_c, 1, 65, 0
2, 54440, Note_off_c, 1, 69, 0
2, 54480, Note_on_c, 1, 58, 127
2, 54480, Note_on_c, 1, 62, 127
2, 54480, Note_on_c, 1, 70, 127
2, 54840, Note_off_c, 1, 58, 0
2, 54840, Note_off_c, 1, 62, 0
2, 54840, Note_off_c, 1, 70, 0
2, 54880, Note_on_c, 1, 74, 127
2, 55400, Note_off_c, 1, 74, 0
2, 55440, Note_on_c, 1, 48, 127
2, 55440, Note_on_c, 1, 58, 127
2, 55440, Note_on_c, 1, 63, 127
2, 55440, Note_on_c, 1, 67, 127
2, 55760, Note_off_c, 1, 48, 0
2, 55800, Note_off_c, 1, 58, 0
2, 55800, Note_off_c, 1, 63, 0
2, 55800, Note_off_c, 1, 67, 0
2, 55840, Note_on_c, 1, 46, 127
2, 55840, Note_on_c, 1, 58, 127
2, 55840, Note_on_c, 1, 62, 127
2, 55840, Note_on_c, 1, 65, 127
2, 56240, Note_on_c, 1, 70, 127
2, 56520, Note_off_c, 1, 58, 0
2, 56520, Note_off_c, 1, 62, 0
2, 56520, Note_off_c, 1, 65, 0
2, 56600, Note_on_c, 1, 53, 127
2, 56600, Note_on_c, 1, 60, 127
2, 56600, Note_on_c, 1, 69, 127
2, 56680, Note_off_c, 1, 69, 0
2, 56960, Note_off_c, 1, 70, 0
2, 57000, Note_on_c, 1, 77, 127
2, 57160, Note_off_c, 1, 77, 0
2, 57200, Note_on_c, 1, 68, 127
2, 57200, Note_on_c, 1, 72, 127
2, 57320, Note_off_c, 1, 68, 0
2, 57320, Note_off_c, 1, 72, 0
2, 57400, Note_on_c, 1, 77, 127
2, 57520, Note_off_c, 1, 46, 0
2, 57520, Note_off_c, 1, 53, 0
2, 57520, Note_off_c, 1, 60, 0
2, 57520, Note_off_c, 1, 77, 0
2, 57600, Note_on_c, 1, 48, 127
2, 57600, Note_on_c, 1, 58, 127
2, 57600, Note_on_c, 1, 65, 127
2, 57600, Note_on_c, 1, 70, 127
2, 57600, Note_on_c, 1, 77, 127
2, 57720, Note_off_c, 1, 77, 0
2, 57760, Note_on_c, 1, 75, 127
2, 57920, Note_off_c, 1, 48, 0
2, 57920, Note_off_c, 1, 58, 0
2, 57920, Note_off_c, 1, 65, 0
2, 57920, Note_off_c, 1, 70, 0
2, 57920, Note_off_c, 1, 75, 0
2, 57960, Note_on_c, 1, 48, 127
2, 57960, Note_on_c, 1, 60, 127
2, 57960, Note_on_c, 1, 63, 127
2, 57960, Note_on_c, 1, 69, 127
2, 57960, Note_on_c, 1, 75, 127
2, 58320, Note_off_c, 1, 63, 0
2, 58320, Note_off_c, 1, 69, 0
2, 58320, Note_off_c, 1, 75, 0
2, 58360, Note_on_c, 1, 63, 127
2, 58360, Note_on_c, 1, 68, 127
2, 58360, Note_on_c, 1, 75, 127
2, 58480, Note_on_c, 1, 67, 127
2, 58480, Note_off_c, 1, 68, 0
2, 58520, Note_off_c, 1, 63, 0
2, 58520, Note_off_c, 1, 67, 0
2, 58520, Note_off_c, 1, 75, 0
2, 58560, Note_on_c, 1, 65, 127
2, 58560, Note_on_c, 1, 69, 127
2, 58560, Note_on_c, 1, 74, 127
2, 58680, Note_off_c, 1, 48, 0
2, 58680, Note_off_c, 1, 60, 0
2, 58680, Note_off_c, 1, 65, 0
2, 58680, Note_off_c, 1, 69, 0
2, 58680, Note_off_c, 1, 74, 0
2, 58760, Note_on_c, 1, 46, 127
2, 58760, Note_on_c, 1, 58, 127
2, 58760, Note_on_c, 1, 62, 127
2, 58760, Note_on_c, 1, 70, 127
2, 58760, Note_on_c, 1, 74, 127
2, 59080, Note_off_c, 1, 62, 0
2, 59080, Note_off_c, 1, 70, 0
2, 59080, Note_off_c, 1, 74, 0
2, 59120, Note_on_c, 1, 62, 127
2, 59120, Note_on_c, 1, 65, 127
2, 59120, Note_on_c, 1, 70, 127
2, 59440, Note_off_c, 1, 46, 0
2, 59440, Note_off_c, 1, 58, 0
2, 59440, Note_off_c, 1, 62, 0
2, 59440, Note_off_c, 1, 65, 0
2, 59440, Note_off_c, 1, 70, 0
2, 59520, Note_on_c, 1, 46, 127
2, 59520, Note_on_c, 1, 55, 127
2, 59520, Note_on_c, 1, 60, 127
2, 59520, Note_on_c, 1, 63, 127
2, 59520, Note_on_c, 1, 67, 127
2, 59840, Note_off_c, 1, 46, 0
2, 59840, Note_off_c, 1, 55, 0
2, 59840, Note_off_c, 1, 60, 0
2, 59840, Note_off_c, 1, 63, 0
2, 59840, Note_off_c, 1, 67, 0
2, 59880, Note_on_c, 1, 46, 127
2, 59880, Note_on_c, 1, 50, 127
2, 59880, Note_on_c, 1, 58, 127
2, 59880, Note_on_c, 1, 62, 127
2, 59880, Note_on_c, 1, 65, 127
2, 60040, Note_off_c, 1, 58, 0
2, 60080, Note_off_c, 1, 50, 0
2, 60080, Note_on_c, 1, 51, 127
2, 60080, Note_on_c, 1, 55, 127
2, 60200, Note_off_c, 1, 51, 0
2, 60200, Note_off_c, 1, 62, 0
2, 60200, Note_off_c, 1, 65, 0
2, 60240, Note_off_c, 1, 55, 0
2, 60280, Note_on_c, 1, 48, 127
2, 60280, Note_on_c, 1, 51, 127
2, 60280, Note_on_c, 1, 55, 127
2, 60280, Note_on_c, 1, 57, 127
2, 60280, Note_on_c, 1, 60, 127
2, 60280, Note_on_c, 1, 75, 127
2, 60400, Note_off_c, 1, 60, 0
2, 60600, Note_off_c, 1, 46, 0
2, 60600, Note_off_c, 1, 48, 0
2, 60600, Note_off_c, 1, 51, 0
2, 60600, Note_off_c, 1, 55, 0
2, 60600, Note_off_c, 1, 57, 0
2, 60600, Note_off_c, 1, 75, 0
2, 60640, Note_on_c, 1, 34, 127
2, 60640, Note_on_c, 1, 46, 127
2, 60640, Note_on_c, 1, 50, 127
2, 60640, Note_on_c, 1, 58, 127
2, 60640, Note_on_c, 1, 74, 127
2, 60800, Note_off_c, 1, 74, 0
2, 60840, Note_on_c, 1, 65, 127
2, 61000, Note_off_c, 1, 34, 0
2, 61000, Note_off_c, 1, 46, 0
2, 61000, Note_off_c, 1, 50, 0
2, 61000, Note_off_c, 1, 58, 0
2, 61000, Note_off_c, 1, 65, 0
2, 61040, Note_on_c, 1, 34, 127
2, 61040, Note_on_c, 1, 46, 127
2, 61040, Note_on_c, 1, 50, 127
2, 61040, Note_on_c, 1, 58, 127
2, 61040, Note_on_c, 1, 62, 127
2, 61040, Note_on_c, 1, 65, 127
2, 61200, Note_off_c, 1, 34, 0
2, 61200, Note_off_c, 1, 46, 0
2, 61200, Note_off_c, 1, 50, 0
2, 61200, Note_off_c, 1, 65, 0
2, 61240, Note_on_c, 1, 65, 127
2, 61360, Note_off_c, 1, 58, 0
2, 61400, Note_off_c, 1, 62, 0
2, 61400, Note_off_c, 1, 65, 0
2, 61440, Note_on_c, 1, 38, 127
2, 61440, Note_on_c, 1, 50, 127
2, 61440, Note_on_c, 1, 53, 127
2, 61440, Note_on_c, 1, 57, 127
2, 61440, Note_on_c, 1, 65, 127
2, 61440, Note_on_c, 1, 70, 127
2, 61600, Note_off_c, 1, 70, 0
2, 61640, Note_on_c, 1, 63, 127
2, 61760, Note_off_c, 1, 38, 0
2, 61760, Note_off_c, 1, 50, 0
2, 61760, Note_off_c, 1, 53, 0
2, 61760, Note_off_c, 1, 57, 0
2, 61760, Note_off_c, 1, 63, 0
2, 61760, Note_off_c, 1, 65, 0
2, 61840, Note_on_c, 1, 34, 127
2, 61840, Note_on_c, 1, 46, 127
2, 61840, Note_on_c, 1, 50, 127
2, 61840, Note_on_c, 1, 58, 127
2, 61840, Note_on_c, 1, 62, 127
2, 61840, Note_on_c, 1, 65, 127
2, 61840, Note_on_c, 1, 70, 127
2, 62400, Note_off_c, 1, 58, 0
2, 62400, Note_off_c, 1, 62, 0
2, 62400, Note_off_c, 1, 65, 0
2, 62400, Note_off_c, 1, 70, 0
2, 62520, Note_off_c, 1, 34, 0
2, 62520, Note_off_c, 1, 46, 0
2, 62520, Note_off_c, 1, 50, 0
2, 63160, Note_on_c, 1, 34, 127
2, 63160, Note_on_c, 1, 46, 127
2, 63160, Note_on_c, 1, 58, 127
2, 63160, Note_on_c, 1, 62, 127
2, 63160, Note_on_c, 1, 65, 127
2, 63160, Note_on_c, 1, 70, 127
2, 63480, Note_off_c, 1, 34, 0
2, 63480, Note_off_c, 1, 46, 0
2, 63480, Note_off_c, 1, 58, 0
2, 63480, Note_off_c, 1, 62, 0
2, 63480, Note_off_c, 1, 65, 0
2, 63480, Note_off_c, 1, 70, 0
2, 63560, Note_on_c, 1, 48, 127
2, 63560, Note_on_c, 1, 60, 127
2, 63560, Note_on_c, 1, 65, 127
2, 63560, Note_on_c, 1, 69, 127
2, 63680, Note_off_c, 1, 48, 0
2, 63680, Note_off_c, 1, 60, 0
2, 63680, Note_off_c, 1, 65, 0
2, 63680, Note_off_c, 1, 69, 0
2, 63720, Note_on_c, 1, 46, 127
2, 63720, Note_on_c, 1, 58, 127
2, 63720, Note_on_c, 1, 62, 127
2, 63720, Note_on_c, 1, 70, 127
2, 63880, Note_off_c, 1, 62, 0
2, 63880, Note_off_c, 1, 70, 0
2, 63920, Note_on_c, 1, 60, 127
2, 63920, Note_on_c, 1, 75, 127
2, 64080, Note_off_c, 1, 46, 0
2, 64080, Note_off_c, 1, 58, 0
2, 64080, Note_off_c, 1, 60, 0
2, 64080, Note_off_c, 1, 75, 0
2, 64120, Note_on_c, 1, 46, 127
2, 64120, Note_on_c, 1, 58, 127
2, 64120, Note_on_c, 1, 65, 127
2, 64120, Note_on_c, 1, 70, 127
2, 64120, Note_on_c, 1, 74, 127
2, 64440, Note_off_c, 1, 58, 0
2, 64440, Note_off_c, 1, 65, 0
2, 64440, Note_off_c, 1, 70, 0
2, 64440, Note_off_c, 1, 74, 0
2, 64640, Note_off_c, 1, 46, 0
2, 64680, Note_on_c, 1, 36, 127
2, 64680, Note_on_c, 1, 48, 127
2, 64680, Note_on_c, 1, 60, 127
2, 64680, Note_on_c, 1, 65, 127
2, 64680, Note_on_c, 1, 69, 127
2, 64680, Note_on_c, 1, 77, 127
2, 65040, Note_off_c, 1, 60, 0
2, 65080, Note_on_c, 1, 55, 127
2, 65200, Note_off_c, 1, 69, 0
2, 65200, Note_off_c, 1, 77, 0
2, 65240, Note_off_c, 1, 55, 0
2, 65280, Note_on_c, 1, 60, 127
2, 65280, Note_on_c, 1, 69, 127
2, 65400, Note_off_c, 1, 36, 0
2, 65400, Note_off_c, 1, 48, 0
2, 65400, Note_off_c, 1, 60, 0
2, 65400, Note_off_c, 1, 65, 0
2, 65400, Note_off_c, 1, 69, 0
2, 65440, Note_on_c, 1, 60, 127
2, 65640, Note_on_c, 1, 74, 127
2, 65800, Note_off_c, 1, 60, 0
2, 65800, Note_off_c, 1, 74, 0
2, 65880, Note_on_c, 1, 60, 127
2, 66200, Note_off_c, 1, 60, 0
2, 66280, Note_on_c, 1, 58, 127
2, 66280, Note_on_c, 1, 62, 127
2, 66280, Note_on_c, 1, 74, 127
2, 66280, Note_on_c, 1, 77, 127
2, 66600, Note_off_c, 1, 62, 0
2, 66600, Note_off_c, 1, 74, 0
2, 66600, Note_off_c, 1, 77, 0
2, 66640, Note_on_c, 1, 65, 127
2, 66640, Note_on_c, 1, 70, 127
2, 66640, Note_on_c, 1, 74, 127
2, 66640, Note_on_c, 1, 77, 127
2, 66800, Note_off_c, 1, 65, 0
2, 66800, Note_off_c, 1, 70, 0
2, 66800, Note_off_c, 1, 74, 0
2, 66800, Note_off_c, 1, 77, 0
2, 66840, Note_on_c, 1, 63, 127
2, 66840, Note_on_c, 1, 72, 127
2, 66840, Note_on_c, 1, 75, 127
2, 66840, Note_on_c, 1, 78, 127
2, 67000, Note_off_c, 1, 63, 0
2, 67000, Note_off_c, 1, 72, 0
2, 67000, Note_off_c, 1, 75, 0
2, 67000, Note_off_c, 1, 78, 0
2, 67040, Note_on_c, 1, 65, 127
2, 67040, Note_on_c, 1, 70, 127
2, 67040, Note_on_c, 1, 74, 127
2, 67040, Note_on_c, 1, 77, 127
2, 67160, Note_off_c, 1, 65, 0
2, 67160, Note_off_c, 1, 74, 0
2, 67160, Note_off_c, 1, 77, 0
2, 67240, Note_on_c, 1, 63, 127
2, 67240, Note_on_c, 1, 72, 127
2, 67240, Note_on_c, 1, 75, 127
2, 67360, Note_off_c, 1, 63, 0
2, 67360, Note_off_c, 1, 70, 0
2, 67360, Note_off_c, 1, 72, 0
2, 67360, Note_off_c, 1, 75, 0
2, 67400, Note_on_c, 1, 62, 127
2, 67400, Note_on_c, 1, 70, 127
2, 67400, Note_on_c, 1, 74, 127
2, 67400, Note_on_c, 1, 84, 127
2, 67560, Note_off_c, 1, 62, 0
2, 67560, Note_off_c, 1, 84, 0
2, 67600, Note_on_c, 1, 82, 127
2, 67760, Note_off_c, 1, 58, 0
2, 67760, Note_off_c, 1, 70, 0
2, 67760, Note_off_c, 1, 74, 0
2, 67760, Note_off_c, 1, 82, 0
2, 67800, Note_on_c, 1, 58, 127
2, 67800, Note_on_c, 1, 74, 127
2, 67800, Note_on_c, 1, 86, 127
2, 67920, Note_off_c, 1, 74, 0
2, 67960, Note_off_c, 1, 86, 0
2, 67960, Note_on_c, 1, 89, 127
2, 68000, Note_on_c, 1, 74, 127
2, 68000, Note_on_c, 1, 86, 127
2, 68000, Note_off_c, 1, 89, 0
2, 68120, Note_off_c, 1, 58, 0
2, 68120, Note_off_c, 1, 74, 0
2, 68120, Note_off_c, 1, 86, 0
2, 68200, Note_on_c, 1, 63, 127
2, 68200, Note_on_c, 1, 69, 127
2, 68200, Note_on_c, 1, 72, 127
2, 68200, Note_on_c, 1, 81, 127
2, 68320, Note_off_c, 1, 63, 0
2, 68320, Note_off_c, 1, 69, 0
2, 68360, Note_on_c, 1, 65, 127
2, 68360, Note_on_c, 1, 68, 127
2, 68520, Note_off_c, 1, 65, 0
2, 68520, Note_off_c, 1, 68, 0
2, 68520, Note_off_c, 1, 72, 0
2, 68520, Note_off_c, 1, 81, 0
2, 68560, Note_on_c, 1, 63, 127
2, 68560, Note_on_c, 1, 67, 127
2, 68560, Note_on_c, 1, 72, 127
2, 68560, Note_on_c, 1, 82, 127
2, 68720, Note_off_c, 1, 63, 0
2, 68720, Note_off_c, 1, 67, 0
2, 68760, Note_on_c, 1, 65, 127
2, 68760, Note_on_c, 1, 69, 127
2, 68880, Note_off_c, 1, 65, 0
2, 68880, Note_off_c, 1, 69, 0
2, 68880, Note_off_c, 1, 82, 0
2, 68960, Note_on_c, 1, 63, 127
2, 68960, Note_on_c, 1, 67, 127
2, 68960, Note_on_c, 1, 82, 127
2, 69080, Note_off_c, 1, 63, 0
2, 69080, Note_off_c, 1, 67, 0
2, 69080, Note_off_c, 1, 82, 0
2, 69120, Note_on_c, 1, 62, 127
2, 69120, Note_on_c, 1, 65, 127
2, 69120, Note_on_c, 1, 69, 127
2, 69120, Note_on_c, 1, 81, 127
2, 69280, Note_off_c, 1, 62, 0
2, 69280, Note_off_c, 1, 65, 0
2, 69280, Note_off_c, 1, 69, 0
2, 69280, Note_off_c, 1, 72, 0
2, 69280, Note_off_c, 1, 81, 0
2, 69320, Note_on_c, 1, 58, 127
2, 69320, Note_on_c, 1, 62, 127
2, 69320, Note_on_c, 1, 70, 127
2, 69320, Note_on_c, 1, 74, 127
2, 69320, Note_on_c, 1, 86, 127
2, 69480, Note_off_c, 1, 58, 0
2, 69480, Note_off_c, 1, 62, 0
2, 69520, Note_on_c, 1, 62, 127
2, 69680, Note_off_c, 1, 62, 0
2, 69680, Note_off_c, 1, 70, 0
2, 69680, Note_off_c, 1, 74, 0
2, 69680, Note_off_c, 1, 86, 0
2, 69720, Note_on_c, 1, 87, 127
2, 69920, Note_on_c, 1, 63, 127
2, 70040, Note_off_c, 1, 63, 0
2, 70040, Note_off_c, 1, 87, 0
2, 70120, Note_on_c, 1, 65, 127
2, 70120, Note_on_c, 1, 70, 127
2, 70120, Note_on_c, 1, 74, 127
2, 70120, Note_on_c, 1, 86, 127
2, 70240, Note_off_c, 1, 65, 0
2, 70280, Note_on_c, 1, 62, 127
2, 70440, Note_off_c, 1, 62, 0
2, 70440, Note_off_c, 1, 70, 0
2, 70440, Note_off_c, 1, 74, 0
2, 70440, Note_off_c, 1, 86, 0
2, 70480, Note_on_c, 1, 58, 127
2, 70480, Note_on_c, 1, 70, 127
2, 70480, Note_on_c, 1, 74, 127
2, 70480, Note_on_c, 1, 87, 127
2, 70560, Note_on_c, 1, 86, 127
2, 70560, Note_off_c, 1, 87, 0
2, 70640, Note_off_c, 1, 58, 0
2, 70680, Note_on_c, 1, 65, 127
2, 70840, Note_off_c, 1, 65, 0
2, 70840, Note_off_c, 1, 70, 0
2, 70840, Note_off_c, 1, 74, 0
2, 70880, Note_on_c, 1, 62, 127
2, 70880, Note_on_c, 1, 70, 127
2, 70880, Note_on_c, 1, 74, 127
2, 71000, Note_off_c, 1, 70, 0
2, 71000, Note_off_c, 1, 86, 0
2, 71040, Note_on_c, 1, 86, 127
2, 71080, Note_on_c, 1, 70, 127
2, 71160, Note_off_c, 1, 62, 0
2, 71160, Note_on_c, 1, 72, 127
2, 71160, Note_off_c, 1, 74, 0
2, 71200, Note_off_c, 1, 70, 0
2, 71200, Note_off_c, 1, 72, 0
2, 71200, Note_off_c, 1, 86, 0
2, 71240, Note_on_c, 1, 89, 127
2, 71280, Note_on_c, 1, 58, 127
2, 71280, Note_on_c, 1, 62, 127
2, 71280, Note_on_c, 1, 70, 127
2, 71280, Note_on_c, 1, 86, 127
2, 71280, Note_off_c, 1, 89, 0
2, 71400, Note_off_c, 1, 62, 0
2, 71400, Note_off_c, 1, 86, 0
2, 71440, Note_on_c, 1, 65, 127
2, 71440, Note_on_c, 1, 82, 127
2, 71600, Note_off_c, 1, 65, 0
2, 71640, Note_on_c, 1, 62, 127
2, 71800, Note_off_c, 1, 62, 0
2, 71800, Note_off_c, 1, 82, 0
2, 71840, Note_on_c, 1, 63, 127
2, 71840, Note_on_c, 1, 77, 127
2, 72000, Note_off_c, 1, 63, 0
2, 72000, Note_off_c, 1, 77, 0
2, 72040, Note_on_c, 1, 65, 127
2, 72040, Note_on_c, 1, 77, 127
2, 72160, Note_on_c, 1, 62, 127
2, 72160, Note_off_c, 1, 65, 0
2, 72160, Note_off_c, 1, 77, 0
2, 72200, Note_off_c, 1, 62, 0
2, 72240, Note_on_c, 1, 75, 127
2, 72360, Note_off_c, 1, 75, 0
2, 72400, Note_on_c, 1, 74, 127
2, 72560, Note_off_c, 1, 70, 0
2, 72600, Note_on_c, 1, 70, 127
2, 72760, Note_off_c, 1, 70, 0
2, 72800, Note_on_c, 1, 67, 127
2, 72800, Note_on_c, 1, 79, 127
2, 72960, Note_off_c, 1, 67, 0
2, 72960, Note_off_c, 1, 79, 0
2, 73000, Note_on_c, 1, 65, 127
2, 73000, Note_on_c, 1, 82, 127
2, 73120, Note_off_c, 1, 65, 0
2, 73200, Note_on_c, 1, 67, 127
2, 73320, Note_off_c, 1, 67, 0
2, 73360, Note_on_c, 1, 65, 127
2, 73520, Note_off_c, 1, 65, 0
2, 73520, Note_off_c, 1, 82, 0
2, 73560, Note_on_c, 1, 63, 127
2, 73560, Note_on_c, 1, 86, 127
2, 73720, Note_off_c, 1, 63, 0
2, 73720, Note_off_c, 1, 74, 0
2, 73760, Note_on_c, 1, 65, 127
2, 73880, Note_off_c, 1, 58, 0
2, 73880, Note_off_c, 1, 65, 0
2, 73880, Note_off_c, 1, 86, 0
2, 73960, Note_on_c, 1, 58, 127
2, 73960, Note_on_c, 1, 63, 127
2, 74080, Note_off_c, 1, 63, 0
2, 74120, Note_on_c, 1, 67, 127
2, 74280, Note_off_c, 1, 58, 0
2, 74280, Note_off_c, 1, 67, 0
2, 74320, Note_on_c, 1, 60, 127
2, 74320, Note_on_c, 1, 69, 127
2, 74480, Note_off_c, 1, 69, 0
2, 74520, Note_on_c, 1, 67, 127
2, 74680, Note_off_c, 1, 60, 0
2, 74680, Note_off_c, 1, 67, 0
2, 74720, Note_on_c, 1, 58, 127
2, 74720, Note_on_c, 1, 63, 127
2, 74840, Note_off_c, 1, 63, 0
2, 74920, Note_on_c, 1, 67, 127
2, 75040, Note_off_c, 1, 58, 0
2, 75040, Note_off_c, 1, 67, 0
2, 75080, Note_on_c, 1, 70, 127
2, 75240, Note_off_c, 1, 70, 0
2, 75280, Note_on_c, 1, 58, 127
2, 75280, Note_on_c, 1, 69, 127
2, 75440, Note_off_c, 1, 58, 0
2, 75440, Note_off_c, 1, 69, 0
2, 75480, Note_on_c, 1, 60, 127
2, 75480, Note_on_c, 1, 75, 127
2, 75680, Note_on_c, 1, 67, 127
2, 75800, Note_off_c, 1, 60, 0
2, 75800, Note_off_c, 1, 67, 0
2, 75800, Note_off_c, 1, 75, 0
2, 75880, Note_on_c, 1, 62, 127
2, 75880, Note_on_c, 1, 65, 127
2, 75880, Note_on_c, 1, 77, 127
2, 76000, Note_off_c, 1, 65, 0
2, 76040, Note_on_c, 1, 65, 127
2, 76200, Note_off_c, 1, 62, 0
2, 76200, Note_off_c, 1, 65, 0
2, 76200, Note_off_c, 1, 77, 0
2, 76240, Note_on_c, 1, 60, 127
2, 76240, Note_on_c, 1, 63, 127
2, 76240, Note_on_c, 1, 75, 127
2, 76400, Note_off_c, 1, 63, 0
2, 76440, Note_on_c, 1, 65, 127
2, 76600, Note_off_c, 1, 65, 0
2, 76600, Note_off_c, 1, 75, 0
2, 76640, Note_on_c, 1, 67, 127
2, 76760, Note_off_c, 1, 67, 0
2, 76840, Note_on_c, 1, 70, 127
2, 76960, Note_off_c, 1, 60, 0
2, 76960, Note_off_c, 1, 70, 0
2, 77000, Note_on_c, 1, 58, 127
2, 77000, Note_on_c, 1, 77, 127
2, 77160, Note_off_c, 1, 58, 0
2, 77200, Note_on_c, 1, 57, 127
2, 77360, Note_off_c, 1, 57, 0
2, 77360, Note_off_c, 1, 77, 0
2, 77400, Note_on_c, 1, 46, 127
2, 77400, Note_on_c, 1, 79, 127
2, 77400, Note_on_c, 1, 82, 127
2, 77400, Note_on_c, 1, 86, 127
2, 77560, Note_off_c, 1, 46, 0
2, 77600, Note_on_c, 1, 58, 127
2, 77720, Note_off_c, 1, 58, 0
2, 77720, Note_off_c, 1, 79, 0
2, 77720, Note_off_c, 1, 82, 0
2, 77720, Note_off_c, 1, 86, 0
2, 77800, Note_on_c, 1, 57, 127
2, 77800, Note_on_c, 1, 72, 127
2, 77920, Note_off_c, 1, 57, 0
2, 77960, Note_on_c, 1, 60, 127
2, 78120, Note_off_c, 1, 60, 0
2, 78120, Note_off_c, 1, 72, 0
2, 78160, Note_on_c, 1, 72, 127
2, 78360, Note_on_c, 1, 60, 127
2, 78520, Note_off_c, 1, 60, 0
2, 78520, Note_off_c, 1, 72, 0
2, 78560, Note_on_c, 1, 58, 127
2, 78560, Note_on_c, 1, 77, 127
2, 78680, Note_off_c, 1, 58, 0
2, 78760, Note_on_c, 1, 62, 127
2, 78880, Note_off_c, 1, 62, 0
2, 78880, Note_off_c, 1, 77, 0
2, 78920, Note_on_c, 1, 61, 127
2, 78920, Note_on_c, 1, 82, 127
2, 79080, Note_off_c, 1, 61, 0
2, 79120, Note_on_c, 1, 65, 127
2, 79240, Note_off_c, 1, 65, 0
2, 79240, Note_off_c, 1, 82, 0
2, 79320, Note_on_c, 1, 58, 127
2, 79320, Note_on_c, 1, 70, 127
2, 79440, Note_off_c, 1, 58, 0
2, 79480, Note_on_c, 1, 65, 127
2, 79640, Note_off_c, 1, 65, 0
2, 79640, Note_off_c, 1, 70, 0
2, 79680, Note_on_c, 1, 58, 127
2, 79680, Note_on_c, 1, 70, 127
2, 79840, Note_off_c, 1, 58, 0
2, 79880, Note_on_c, 1, 62, 127
2, 80040, Note_off_c, 1, 62, 0
2, 80040, Note_off_c, 1, 70, 0
2, 80080, Note_on_c, 1, 65, 127
2, 80080, Note_on_c, 1, 74, 127
2, 80080, Note_on_c, 1, 84, 127
2, 80200, Note_off_c, 1, 65, 0
2, 80280, Note_on_c, 1, 62, 127
2, 80400, Note_off_c, 1, 62, 0
2, 80400, Note_off_c, 1, 74, 0
2, 80400, Note_off_c, 1, 84, 0
2, 80440, Note_on_c, 1, 66, 127
2, 80440, Note_on_c, 1, 70, 127
2, 80440, Note_on_c, 1, 82, 127
2, 80600, Note_off_c, 1, 66, 0
2, 80640, Note_on_c, 1, 65, 127
2, 80800, Note_off_c, 1, 65, 0
2, 80800, Note_off_c, 1, 70, 0
2, 80800, Note_off_c, 1, 82, 0
2, 80840, Note_on_c, 1, 63, 127
2, 80840, Note_on_c, 1, 69, 127
2, 80840, Note_on_c, 1, 75, 127
2, 80840, Note_on_c, 1, 79, 127
2, 81000, Note_off_c, 1, 63, 0
2, 81040, Note_on_c, 1, 62, 127
2, 81160, Note_off_c, 1, 62, 0
2, 81160, Note_off_c, 1, 69, 0
2, 81160, Note_off_c, 1, 75, 0
2, 81160, Note_off_c, 1, 79, 0
2, 81240, Note_on_c, 1, 58, 127
2, 81240, Note_on_c, 1, 70, 127
2, 81240, Note_on_c, 1, 75, 127
2, 81240, Note_on_c, 1, 82, 127
2, 81360, Note_off_c, 1, 58, 0
2, 81400, Note_on_c, 1, 62, 127
2, 81560, Note_off_c, 1, 62, 0
2, 81560, Note_off_c, 1, 70, 0
2, 81560, Note_off_c, 1, 75, 0
2, 81560, Note_on_c, 1, 77, 127
2, 81600, Note_on_c, 1, 65, 127
2, 81760, Note_off_c, 1, 65, 0
2, 81800, Note_on_c, 1, 65, 127
2, 81920, Note_off_c, 1, 65, 0
2, 81920, Note_off_c, 1, 77, 0
2, 81960, Note_off_c, 1, 82, 0
2, 82000, Note_on_c, 1, 60, 127
2, 82000, Note_on_c, 1, 63, 127
2, 82120, Note_off_c, 1, 60, 0
2, 82160, Note_on_c, 1, 58, 127
2, 82280, Note_off_c, 1, 63, 0
2, 82320, Note_off_c, 1, 58, 0
2, 82360, Note_on_c, 1, 58, 127
2, 82360, Note_on_c, 1, 70, 127
2, 82520, Note_off_c, 1, 58, 0
2, 82520, Note_off_c, 1, 70, 0
2, 82560, Note_on_c, 1, 62, 127
2, 82560, Note_on_c, 1, 65, 127
2, 82680, Note_off_c, 1, 62, 0
2, 82680, Note_off_c, 1, 65, 0
2, 82760, Note_on_c, 1, 65, 127
2, 82760, Note_on_c, 1, 70, 127
2, 82880, Note_off_c, 1, 65, 0
2, 82880, Note_off_c, 1, 70, 0
2, 82960, Note_on_c, 1, 58, 127
2, 82960, Note_on_c, 1, 69, 127
2, 82960, Note_on_c, 1, 74, 127
2, 83080, Note_off_c, 1, 58, 0
2, 83080, Note_off_c, 1, 69, 0
2, 83080, Note_off_c, 1, 74, 0
2, 83120, Note_on_c, 1, 57, 127
2, 83120, Note_on_c, 1, 69, 127
2, 83120, Note_on_c, 1, 72, 127
2, 83280, Note_off_c, 1, 72, 0
2, 83320, Note_on_c, 1, 74, 127
2, 83400, Note_off_c, 1, 74, 0
2, 83440, Note_on_c, 1, 72, 127
2, 83480, Note_off_c, 1, 57, 0
2, 83480, Note_off_c, 1, 69, 0
2, 83480, Note_off_c, 1, 72, 0
2, 83520, Note_on_c, 1, 55, 127
2, 83520, Note_on_c, 1, 70, 127
2, 83680, Note_off_c, 1, 70, 0
2, 83720, Note_on_c, 1, 69, 127
2, 83840, Note_off_c, 1, 55, 0
2, 83840, Note_off_c, 1, 69, 0
2, 83920, Note_on_c, 1, 58, 127
2, 83920, Note_on_c, 1, 70, 127
2, 83920, Note_on_c, 1, 75, 127
2, 84040, Note_off_c, 1, 75, 0
2, 84080, Note_on_c, 1, 74, 127
2, 84240, Note_off_c, 1, 58, 0
2, 84240, Note_off_c, 1, 70, 0
2, 84240, Note_off_c, 1, 74, 0
2, 84280, Note_on_c, 1, 55, 127
2, 84280, Note_on_c, 1, 70, 127
2, 84280, Note_on_c, 1, 75, 127
2, 84400, Note_off_c, 1, 70, 0
2, 84480, Note_on_c, 1, 67, 127
2, 84600, Note_off_c, 1, 55, 0
2, 84600, Note_off_c, 1, 67, 0
2, 84600, Note_off_c, 1, 75, 0
2, 84680, Note_on_c, 1, 53, 127
2, 84680, Note_on_c, 1, 68, 127
2, 84680, Note_on_c, 1, 74, 127
2, 84800, Note_off_c, 1, 68, 0
2, 84840, Note_on_c, 1, 65, 127
2, 85000, Note_off_c, 1, 53, 0
2, 85000, Note_off_c, 1, 65, 0
2, 85000, Note_off_c, 1, 74, 0
2, 85040, Note_on_c, 1, 63, 127
2, 85040, Note_on_c, 1, 67, 127
2, 85040, Note_on_c, 1, 75, 127
2, 85200, Note_off_c, 1, 67, 0
2, 85240, Note_on_c, 1, 70, 127
2, 85400, Note_off_c, 1, 63, 0
2, 85400, Note_off_c, 1, 70, 0
2, 85400, Note_off_c, 1, 75, 0
2, 85440, Note_on_c, 1, 50, 127
2, 85440, Note_on_c, 1, 62, 127
2, 85440, Note_on_c, 1, 77, 127
2, 85560, Note_off_c, 1, 77, 0
2, 85600, Note_off_c, 1, 62, 0
2, 85640, Note_on_c, 1, 65, 127
2, 85640, Note_on_c, 1, 70, 127
2, 85760, Note_off_c, 1, 65, 0
2, 85760, Note_off_c, 1, 70, 0
2, 85840, Note_on_c, 1, 62, 127
2, 85840, Note_on_c, 1, 70, 127
2, 85960, Note_off_c, 1, 62, 0
2, 86000, Note_on_c, 1, 60, 127
2, 86160, Note_off_c, 1, 50, 0
2, 86160, Note_off_c, 1, 60, 0
2, 86160, Note_off_c, 1, 70, 0
2, 86200, Note_on_c, 1, 53, 127
2, 86200, Note_on_c, 1, 62, 127
2, 86200, Note_on_c, 1, 70, 127
2, 86360, Note_off_c, 1, 62, 0
2, 86400, Note_on_c, 1, 65, 127
2, 86520, Note_off_c, 1, 70, 0
2, 86560, Note_off_c, 1, 53, 0
2, 86560, Note_off_c, 1, 65, 0
2, 86600, Note_on_c, 1, 65, 127
2, 86600, Note_on_c, 1, 69, 127
2, 86800, Note_on_c, 1, 62, 127
2, 86920, Note_off_c, 1, 62, 0
2, 86920, Note_off_c, 1, 65, 0
2, 86920, Note_off_c, 1, 69, 0
2, 86960, Note_on_c, 1, 53, 127
2, 86960, Note_on_c, 1, 58, 127
2, 87120, Note_off_c, 1, 58, 0
2, 87160, Note_on_c, 1, 62, 127
2, 87320, Note_off_c, 1, 53, 0
2, 87320, Note_off_c, 1, 62, 0
2, 87360, Note_on_c, 1, 58, 127
2, 87360, Note_on_c, 1, 63, 127
2, 87360, Note_on_c, 1, 72, 127
2, 87480, Note_off_c, 1, 63, 0
2, 87560, Note_on_c, 1, 65, 127
2, 87680, Note_off_c, 1, 58, 0
2, 87680, Note_off_c, 1, 65, 0
2, 87680, Note_off_c, 1, 72, 0
2, 87720, Note_on_c, 1, 62, 127
2, 87880, Note_off_c, 1, 62, 0
2, 87920, Note_on_c, 1, 58, 127
2, 88080, Note_off_c, 1, 58, 0
2, 88120, Note_on_c, 1, 54, 127
2, 88120, Note_on_c, 1, 69, 127
2, 88280, Note_off_c, 1, 54, 0
2, 88320, Note_on_c, 1, 62, 127
2, 88440, Note_off_c, 1, 62, 0
2, 88440, Note_off_c, 1, 69, 0
2, 88520, Note_on_c, 1, 55, 127
2, 88520, Note_on_c, 1, 70, 127
2, 88640, Note_off_c, 1, 55, 0
2, 88680, Note_on_c, 1, 62, 127
2, 88840, Note_off_c, 1, 62, 0
2, 88840, Note_off_c, 1, 70, 0
2, 88880, Note_on_c, 1, 63, 127
2, 88880, Note_on_c, 1, 67, 127
2, 89040, Note_off_c, 1, 63, 0
2, 89080, Note_on_c, 1, 62, 127
2, 89240, Note_off_c, 1, 62, 0
2, 89240, Note_off_c, 1, 67, 0
2, 89280, Note_on_c, 1, 62, 127
2, 89280, Note_on_c, 1, 77, 127
2, 89440, Note_off_c, 1, 62, 0
2, 89480, Note_on_c, 1, 63, 127
2, 89600, Note_off_c, 1, 63, 0
2, 89600, Note_off_c, 1, 77, 0
2, 89680, Note_on_c, 1, 62, 127
2, 89680, Note_on_c, 1, 70, 127
2, 89680, Note_on_c, 1, 77, 127
2, 89800, Note_off_c, 1, 62, 0
2, 89840, Note_on_c, 1, 62, 127
2, 90000, Note_off_c, 1, 62, 0
2, 90000, Note_off_c, 1, 70, 0
2, 90000, Note_off_c, 1, 77, 0
2, 90040, Note_on_c, 1, 60, 127
2, 90040, Note_on_c, 1, 79, 127
2, 90200, Note_off_c, 1, 60, 0
2, 90240, Note_on_c, 1, 67, 127
2, 90400, Note_off_c, 1, 67, 0
2, 90440, Note_on_c, 1, 63, 127
2, 90560, Note_off_c, 1, 63, 0
2, 90560, Note_off_c, 1, 79, 0
2, 90640, Note_on_c, 1, 67, 127
2, 90640, Note_on_c, 1, 77, 127
2, 90760, Note_off_c, 1, 67, 0
2, 90760, Note_off_c, 1, 77, 0
2, 90800, Note_on_c, 1, 58, 127
2, 90800, Note_on_c, 1, 63, 127
2, 90800, Note_on_c, 1, 75, 127
2, 90960, Note_off_c, 1, 63, 0
2, 91000, Note_on_c, 1, 67, 127
2, 91160, Note_off_c, 1, 58, 0
2, 91160, Note_off_c, 1, 67, 0
2, 91160, Note_off_c, 1, 75, 0
2, 91200, Note_on_c, 1, 58, 127
2, 91200, Note_on_c, 1, 65, 127
2, 91200, Note_on_c, 1, 74, 127
2, 91320, Note_off_c, 1, 65, 0
2, 91400, Note_on_c, 1, 70, 127
2, 91520, Note_off_c, 1, 58, 0
2, 91520, Note_off_c, 1, 70, 0
2, 91560, Note_on_c, 1, 69, 127
2, 91720, Note_off_c, 1, 69, 0
2, 91760, Note_on_c, 1, 58, 127
2, 91760, Note_on_c, 1, 65, 127
2, 91920, Note_off_c, 1, 58, 0
2, 91920, Note_off_c, 1, 65, 0
2, 91920, Note_off_c, 1, 74, 0
2, 91960, Note_on_c, 1, 67, 127
2, 91960, Note_on_c, 1, 70, 127
2, 92120, Note_off_c, 1, 67, 0
2, 92160, Note_on_c, 1, 65, 127
2, 92280, Note_off_c, 1, 65, 0
2, 92280, Note_off_c, 1, 70, 0
2, 92360, Note_on_c, 1, 51, 127
2, 92480, Note_off_c, 1, 51, 0
2, 92520, Note_on_c, 1, 53, 127
2, 92680, Note_off_c, 1, 53, 0
2, 92720, Note_on_c, 1, 57, 127
2, 92720, Note_on_c, 1, 63, 127
2, 92880, Note_off_c, 1, 57, 0
2, 92880, Note_off_c, 1, 63, 0
2, 92920, Note_on_c, 1, 58, 127
2, 92920, Note_on_c, 1, 62, 127
2, 93080, Note_off_c, 1, 58, 0
2, 93080, Note_off_c, 1, 62, 0
2, 93120, Note_on_c, 1, 53, 127
2, 93120, Note_on_c, 1, 60, 127
2, 93240, Note_off_c, 1, 60, 0
2, 93320, Note_on_c, 1, 65, 127
2, 93440, Note_off_c, 1, 53, 0
2, 93440, Note_off_c, 1, 65, 0
2, 93480, Note_on_c, 1, 55, 127
2, 93480, Note_on_c, 1, 63, 127
2, 93640, Note_off_c, 1, 63, 0
2, 93680, Note_on_c, 1, 69, 127
2, 93840, Note_off_c, 1, 55, 0
2, 93840, Note_off_c, 1, 69, 0
2, 93880, Note_on_c, 1, 58, 127
2, 93880, Note_on_c, 1, 62, 127
2, 94000, Note_off_c, 1, 62, 0
2, 94080, Note_on_c, 1, 65, 127
2, 94160, Note_off_c, 1, 58, 0
2, 94160, Note_off_c, 1, 65, 0
2, 94240, Note_on_c, 1, 46, 127
2, 94240, Note_on_c, 1, 65, 127
2, 94240, Note_on_c, 1, 70, 127
2, 94240, Note_on_c, 1, 74, 127
2, 94240, Note_on_c, 1, 77, 127
2, 94400, Note_off_c, 1, 65, 0
2, 94400, Note_off_c, 1, 74, 0
2, 94440, Note_on_c, 1, 60, 127
2, 94600, Note_off_c, 1, 46, 0
2, 94600, Note_off_c, 1, 60, 0
2, 94600, Note_off_c, 1, 70, 0
2, 94600, Note_off_c, 1, 77, 0
2, 94640, Note_on_c, 1, 46, 127
2, 94640, Note_on_c, 1, 58, 127
2, 94640, Note_on_c, 1, 74, 127
2, 94800, Note_off_c, 1, 58, 0
2, 94840, Note_on_c, 1, 62, 127
2, 94840, Note_on_c, 1, 70, 127
2, 94960, Note_off_c, 1, 46, 0
2, 94960, Note_off_c, 1, 62, 0
2, 94960, Note_off_c, 1, 70, 0
2, 94960, Note_off_c, 1, 74, 0
2, 95040, Note_on_c, 1, 34, 127
2, 95040, Note_on_c, 1, 46, 127
2, 95040, Note_on_c, 1, 70, 127
2, 95040, Note_on_c, 1, 74, 127
2, 95040, Note_on_c, 1, 77, 127
2, 95760, Note_off_c, 1, 34, 0
2, 95760, Note_off_c, 1, 46, 0
2, 95760, Note_off_c, 1, 70, 0
2, 95760, Note_off_c, 1, 74, 0
2, 95760, Note_off_c, 1, 77, 0
2, 95800, Note_on_c, 1, 34, 127
2, 95800, Note_on_c, 1, 46, 127
2, 96000, Note_on_c, 1, 68, 127
2, 96120, Note_off_c, 1, 34, 0
2, 96120, Note_off_c, 1, 46, 0
2, 96120, Note_off_c, 1, 68, 0
2, 96160, Note_on_c, 1, 80, 127
2, 96320, Note_off_c, 1, 80, 0
2, 96360, Note_on_c, 1, 77, 127
2, 96520, Note_off_c, 1, 77, 0
2, 96560, Note_on_c, 1, 65, 127
2, 96560, Note_on_c, 1, 70, 127
2, 96720, Note_off_c, 1, 65, 0
2, 96760, Note_on_c, 1, 62, 127
2, 96880, Note_off_c, 1, 62, 0
2, 96880, Note_off_c, 1, 70, 0
2, 96960, Note_on_c, 1, 58, 127
2, 96960, Note_on_c, 1, 74, 127
2, 96960, Note_on_c, 1, 77, 127
2, 97080, Note_off_c, 1, 58, 0
2, 97120, Note_on_c, 1, 62, 127
2, 97280, Note_off_c, 1, 62, 0
2, 97280, Note_off_c, 1, 74, 0
2, 97280, Note_off_c, 1, 77, 0
2, 97320, Note_on_c, 1, 70, 127
2, 97320, Note_on_c, 1, 75, 127
2, 97320, Note_on_c, 1, 81, 127
2, 97480, Note_off_c, 1, 70, 0
2, 97520, Note_on_c, 1, 62, 127
2, 97680, Note_off_c, 1, 75, 0
2, 97680, Note_off_c, 1, 81, 0
2, 97720, Note_on_c, 1, 68, 127
2, 97840, Note_off_c, 1, 68, 0
2, 97920, Note_on_c, 1, 67, 127
2, 98040, Note_off_c, 1, 62, 0
2, 98080, Note_on_c, 1, 58, 127
2, 98080, Note_on_c, 1, 62, 127
2, 98240, Note_off_c, 1, 67, 0
2, 98280, Note_on_c, 1, 82, 127
2, 98440, Note_off_c, 1, 58, 0
2, 98440, Note_off_c, 1, 62, 0
2, 98440, Note_off_c, 1, 82, 0
2, 98480, Note_on_c, 1, 60, 127
2, 98480, Note_on_c, 1, 67, 127
2, 98480, Note_on_c, 1, 75, 127
2, 98640, Note_off_c, 1, 67, 0
2, 98680, Note_on_c, 1, 67, 127
2, 98800, Note_off_c, 1, 60, 0
2, 98800, Note_off_c, 1, 67, 0
2, 98800, Note_off_c, 1, 75, 0
2, 98880, Note_on_c, 1, 58, 127
2, 98880, Note_on_c, 1, 67, 127
2, 98880, Note_on_c, 1, 75, 127
2, 99000, Note_off_c, 1, 67, 0
2, 99040, Note_on_c, 1, 67, 127
2, 99200, Note_off_c, 1, 58, 0
2, 99200, Note_off_c, 1, 67, 0
2, 99200, Note_off_c, 1, 75, 0
2, 99240, Note_on_c, 1, 56, 127
2, 99240, Note_on_c, 1, 68, 127
2, 99240, Note_on_c, 1, 75, 127
2, 99400, Note_off_c, 1, 68, 0
2, 99440, Note_on_c, 1, 62, 127
2, 99560, Note_off_c, 1, 56, 0
2, 99560, Note_off_c, 1, 62, 0
2, 99640, Note_on_c, 1, 55, 127
2, 99640, Note_on_c, 1, 63, 127
2, 99760, Note_off_c, 1, 63, 0
2, 99800, Note_on_c, 1, 62, 127
2, 99960, Note_off_c, 1, 55, 0
2, 99960, Note_off_c, 1, 62, 0
2, 100000, Note_on_c, 1, 60, 127
2, 100000, Note_on_c, 1, 63, 127
2, 100160, Note_off_c, 1, 63, 0
2, 100200, Note_on_c, 1, 66, 127
2, 100360, Note_off_c, 1, 66, 0
2, 100360, Note_off_c, 1, 75, 0
2, 100400, Note_on_c, 1, 63, 127
2, 100400, Note_on_c, 1, 75, 127
2, 100520, Note_off_c, 1, 63, 0
2, 100520, Note_off_c, 1, 75, 0
2, 100600, Note_on_c, 1, 67, 127
2, 100600, Note_on_c, 1, 72, 127
2, 100720, Note_off_c, 1, 67, 0
2, 100720, Note_off_c, 1, 72, 0
2, 100760, Note_on_c, 1, 55, 127
2, 100760, Note_on_c, 1, 75, 127
2, 100920, Note_off_c, 1, 60, 0
2, 100920, Note_off_c, 1, 75, 0
2, 100960, Note_on_c, 1, 59, 127
2, 100960, Note_on_c, 1, 74, 127
2, 101120, Note_off_c, 1, 59, 0
2, 101120, Note_off_c, 1, 74, 0
2, 101160, Note_on_c, 1, 63, 127
2, 101160, Note_on_c, 1, 75, 127
2, 101320, Note_off_c, 1, 63, 0
2, 101320, Note_off_c, 1, 75, 0
2, 101360, Note_on_c, 1, 67, 127
2, 101360, Note_on_c, 1, 79, 127
2, 101520, Note_off_c, 1, 67, 0
2, 101520, Note_off_c, 1, 79, 0
2, 101560, Note_on_c, 1, 63, 127
2, 101560, Note_on_c, 1, 75, 127
2, 101680, Note_off_c, 1, 63, 0
2, 101680, Note_off_c, 1, 75, 0
2, 101760, Note_on_c, 1, 62, 127
2, 101760, Note_on_c, 1, 74, 127
2, 101880, Note_off_c, 1, 55, 0
2, 101880, Note_off_c, 1, 62, 0
2, 101880, Note_off_c, 1, 74, 0
2, 101920, Note_on_c, 1, 65, 127
2, 101920, Note_on_c, 1, 68, 127
2, 101920, Note_on_c, 1, 75, 127
2, 102080, Note_off_c, 1, 65, 0
2, 102080, Note_off_c, 1, 75, 0
2, 102120, Note_on_c, 1, 63, 127
2, 102120, Note_on_c, 1, 74, 127
2, 102280, Note_off_c, 1, 63, 0
2, 102280, Note_off_c, 1, 68, 0
2, 102280, Note_off_c, 1, 74, 0
2, 102320, Note_on_c, 1, 67, 127
2, 102320, Note_on_c, 1, 75, 127
2, 102480, Note_off_c, 1, 67, 0
2, 102480, Note_off_c, 1, 75, 0
2, 102520, Note_on_c, 1, 63, 127
2, 102520, Note_on_c, 1, 79, 127
2, 102640, Note_off_c, 1, 63, 0
2, 102640, Note_off_c, 1, 79, 0
2, 102720, Note_on_c, 1, 62, 127
2, 102720, Note_on_c, 1, 71, 127
2, 102720, Note_on_c, 1, 80, 127
2, 102840, Note_off_c, 1, 62, 0
2, 102840, Note_off_c, 1, 71, 0
2, 102840, Note_off_c, 1, 80, 0
2, 102880, Note_on_c, 1, 65, 127
2, 102880, Note_on_c, 1, 70, 127
2, 102880, Note_on_c, 1, 80, 127
2, 103040, Note_off_c, 1, 65, 0
2, 103040, Note_off_c, 1, 70, 0
2, 103040, Note_off_c, 1, 80, 0
2, 103080, Note_on_c, 1, 63, 127
2, 103080, Note_on_c, 1, 70, 127
2, 103080, Note_on_c, 1, 79, 127
2, 103240, Note_off_c, 1, 63, 0
2, 103240, Note_off_c, 1, 70, 0
2, 103240, Note_off_c, 1, 79, 0
2, 103280, Note_on_c, 1, 62, 127
2, 103280, Note_on_c, 1, 68, 127
2, 103280, Note_on_c, 1, 77, 127
2, 103440, Note_off_c, 1, 62, 0
2, 103440, Note_off_c, 1, 68, 0
2, 103440, Note_off_c, 1, 77, 0
2, 103480, Note_on_c, 1, 63, 127
2, 103480, Note_on_c, 1, 67, 127
2, 103480, Note_on_c, 1, 75, 127
2, 103640, Note_off_c, 1, 75, 0
2, 103680, Note_on_c, 1, 74, 127
2, 103800, Note_off_c, 1, 63, 0
2, 103800, Note_off_c, 1, 67, 0
2, 103800, Note_off_c, 1, 74, 0
2, 103880, Note_on_c, 1, 58, 127
2, 103880, Note_on_c, 1, 67, 127
2, 103880, Note_on_c, 1, 75, 127
2, 104000, Note_off_c, 1, 75, 0
2, 104040, Note_on_c, 1, 74, 127
2, 104200, Note_off_c, 1, 58, 0
2, 104200, Note_off_c, 1, 67, 0
2, 104200, Note_off_c, 1, 74, 0
2, 104240, Note_on_c, 1, 63, 127
2, 104240, Note_on_c, 1, 67, 127
2, 104240, Note_on_c, 1, 75, 127
2, 104400, Note_off_c, 1, 75, 0
2, 104440, Note_on_c, 1, 79, 127
2, 104600, Note_off_c, 1, 63, 0
2, 104600, Note_off_c, 1, 67, 0
2, 104600, Note_off_c, 1, 79, 0
2, 104640, Note_on_c, 1, 58, 127
2, 104640, Note_on_c, 1, 62, 127
2, 104640, Note_on_c, 1, 77, 127
2, 104760, Note_off_c, 1, 77, 0
2, 104840, Note_on_c, 1, 79, 127
2, 104960, Note_off_c, 1, 58, 0
2, 104960, Note_off_c, 1, 62, 0
2, 104960, Note_off_c, 1, 79, 0
2, 105000, Note_on_c, 1, 51, 127
2, 105000, Note_on_c, 1, 60, 127
2, 105000, Note_on_c, 1, 84, 127
2, 105160, Note_off_c, 1, 84, 0
2, 105200, Note_on_c, 1, 89, 127
2, 105360, Note_off_c, 1, 51, 0
2, 105360, Note_off_c, 1, 60, 0
2, 105360, Note_off_c, 1, 89, 0
2, 105400, Note_on_c, 1, 58, 127
2, 105400, Note_on_c, 1, 86, 127
2, 105560, Note_off_c, 1, 86, 0
2, 105600, Note_on_c, 1, 75, 127
2, 105720, Note_off_c, 1, 58, 0
2, 105720, Note_off_c, 1, 75, 0
2, 105800, Note_on_c, 1, 91, 127
2, 105840, Note_on_c, 1, 85, 127
2, 105840, Note_off_c, 1, 91, 0
2, 105920, Note_off_c, 1, 85, 0
2, 105960, Note_on_c, 1, 85, 127
2, 106120, Note_off_c, 1, 85, 0
2, 106160, Note_on_c, 1, 84, 127
2, 106320, Note_off_c, 1, 84, 0
2, 106360, Note_on_c, 1, 82, 127
2, 106520, Note_off_c, 1, 82, 0
2, 106560, Note_on_c, 1, 69, 127
2, 106560, Note_on_c, 1, 84, 127
2, 106680, Note_off_c, 1, 69, 0
2, 106720, Note_on_c, 1, 69, 127
2, 106880, Note_off_c, 1, 69, 0
2, 106880, Note_off_c, 1, 84, 0
2, 106920, Note_on_c, 1, 70, 127
2, 106920, Note_on_c, 1, 82, 127
2, 107280, Note_off_c, 1, 70, 0
2, 107320, Note_on_c, 1, 52, 127
2, 107320, Note_on_c, 1, 67, 127
2, 107640, Note_off_c, 1, 52, 0
2, 107640, Note_off_c, 1, 67, 0
2, 107640, Note_off_c, 1, 82, 0
2, 107720, Note_on_c, 1, 67, 127
2, 107720, Note_on_c, 1, 82, 127
2, 107840, Note_off_c, 1, 67, 0
2, 107880, Note_on_c, 1, 67, 127
2, 108040, Note_off_c, 1, 67, 0
2, 108040, Note_off_c, 1, 82, 0
2, 108080, Note_on_c, 1, 69, 127
2, 108080, Note_on_c, 1, 80, 127
2, 108240, Note_off_c, 1, 69, 0
2, 108240, Note_off_c, 1, 80, 0
2, 108280, Note_on_c, 1, 67, 127
2, 108280, Note_on_c, 1, 82, 127
2, 108440, Note_off_c, 1, 67, 0
2, 108440, Note_off_c, 1, 82, 0
2, 108480, Note_on_c, 1, 70, 127
2, 108480, Note_on_c, 1, 81, 127
2, 108600, Note_off_c, 1, 70, 0
2, 108600, Note_off_c, 1, 81, 0
2, 108680, Note_on_c, 1, 67, 127
2, 108680, Note_on_c, 1, 82, 127
2, 108800, Note_off_c, 1, 67, 0
2, 108800, Note_off_c, 1, 82, 0
2, 108840, Note_on_c, 1, 63, 127
2, 108840, Note_on_c, 1, 80, 127
2, 109000, Note_off_c, 1, 63, 0
2, 109000, Note_off_c, 1, 80, 0
2, 109040, Note_on_c, 1, 67, 127
2, 109040, Note_on_c, 1, 79, 127
2, 109200, Note_off_c, 1, 67, 0
2, 109200, Note_off_c, 1, 79, 0
2, 109240, Note_on_c, 1, 63, 127
2, 109240, Note_on_c, 1, 77, 127
2, 109400, Note_off_c, 1, 63, 0
2, 109400, Note_off_c, 1, 77, 0
2, 109440, Note_on_c, 1, 67, 127
2, 109440, Note_on_c, 1, 82, 127
2, 109560, Note_off_c, 1, 67, 0
2, 109560, Note_off_c, 1, 82, 0
2, 109640, Note_on_c, 1, 65, 127
2, 109640, Note_on_c, 1, 82, 127
2, 109760, Note_off_c, 1, 65, 0
2, 109760, Note_off_c, 1, 82, 0
2, 109800, Note_on_c, 1, 62, 127
2, 109800, Note_on_c, 1, 81, 127
2, 109960, Note_off_c, 1, 62, 0
2, 109960, Note_off_c, 1, 81, 0
2, 110000, Note_on_c, 1, 63, 127
2, 110000, Note_on_c, 1, 79, 127
2, 110160, Note_off_c, 1, 63, 0
2, 110160, Note_off_c, 1, 79, 0
2, 110200, Note_on_c, 1, 63, 127
2, 110200, Note_on_c, 1, 82, 127
2, 110360, Note_off_c, 1, 63, 0
2, 110360, Note_off_c, 1, 82, 0
2, 110400, Note_on_c, 1, 65, 127
2, 110400, Note_on_c, 1, 84, 127
2, 110560, Note_off_c, 1, 65, 0
2, 110560, Note_off_c, 1, 84, 0
2, 110600, Note_on_c, 1, 63, 127
2, 110600, Note_on_c, 1, 82, 127
2, 110640, Note_on_c, 1, 81, 127
2, 110640, Note_off_c, 1, 82, 0
2, 110720, Note_off_c, 1, 63, 0
2, 110720, Note_off_c, 1, 81, 0
2, 110800, Note_on_c, 1, 62, 127
2, 110800, Note_on_c, 1, 82, 127
2, 110920, Note_off_c, 1, 62, 0
2, 110920, Note_off_c, 1, 82, 0
2, 110960, Note_on_c, 1, 60, 127
2, 110960, Note_on_c, 1, 81, 127
2, 111120, Note_off_c, 1, 60, 0
2, 111120, Note_off_c, 1, 81, 0
2, 111160, Note_on_c, 1, 58, 127
2, 111160, Note_on_c, 1, 79, 127
2, 111320, Note_off_c, 1, 58, 0
2, 111320, Note_off_c, 1, 79, 0
2, 111360, Note_on_c, 1, 58, 127
2, 111360, Note_on_c, 1, 80, 127
2, 111520, Note_off_c, 1, 58, 0
2, 111520, Note_off_c, 1, 80, 0
2, 111560, Note_on_c, 1, 60, 127
2, 111560, Note_on_c, 1, 79, 127
2, 111680, Note_off_c, 1, 60, 0
2, 111680, Note_off_c, 1, 79, 0
2, 111760, Note_on_c, 1, 58, 127
2, 111760, Note_on_c, 1, 77, 127
2, 111880, Note_off_c, 1, 58, 0
2, 111880, Note_off_c, 1, 77, 0
2, 111920, Note_on_c, 1, 55, 127
2, 111920, Note_on_c, 1, 75, 127
2, 112080, Note_off_c, 1, 55, 0
2, 112080, Note_off_c, 1, 75, 0
2, 112120, Note_on_c, 1, 60, 127
2, 112120, Note_on_c, 1, 81, 127
2, 112280, Note_off_c, 1, 60, 0
2, 112280, Note_off_c, 1, 81, 0
2, 112320, Note_on_c, 1, 58, 127
2, 112320, Note_on_c, 1, 79, 127
2, 112480, Note_off_c, 1, 58, 0
2, 112480, Note_off_c, 1, 79, 0
2, 112520, Note_on_c, 1, 60, 127
2, 112520, Note_on_c, 1, 75, 127
2, 112640, Note_off_c, 1, 60, 0
2, 112640, Note_off_c, 1, 75, 0
2, 112720, Note_on_c, 1, 58, 127
2, 112720, Note_on_c, 1, 82, 127
2, 112840, Note_off_c, 1, 58, 0
2, 112840, Note_off_c, 1, 82, 0
2, 112880, Note_on_c, 1, 62, 127
2, 113000, Note_on_c, 1, 82, 127
2, 113040, Note_off_c, 1, 62, 0
2, 113040, Note_off_c, 1, 82, 0
2, 113080, Note_on_c, 1, 46, 127
2, 113080, Note_on_c, 1, 53, 127
2, 113080, Note_on_c, 1, 58, 127
2, 113080, Note_on_c, 1, 62, 127
2, 113080, Note_on_c, 1, 74, 127
2, 113120, Note_off_c, 1, 62, 0
2, 113240, Note_off_c, 1, 58, 0
2, 113240, Note_off_c, 1, 74, 0
2, 113280, Note_on_c, 1, 58, 127
2, 113280, Note_on_c, 1, 82, 127
2, 113440, Note_off_c, 1, 53, 0
2, 113440, Note_off_c, 1, 82, 0
2, 113480, Note_on_c, 1, 77, 127
2, 113600, Note_off_c, 1, 77, 0
2, 113680, Note_on_c, 1, 75, 127
2, 113800, Note_off_c, 1, 46, 0
2, 113800, Note_off_c, 1, 58, 0
2, 113800, Note_off_c, 1, 75, 0
2, 113840, Note_on_c, 1, 46, 127
2, 113840, Note_on_c, 1, 58, 127
2, 113840, Note_on_c, 1, 62, 127
2, 113840, Note_on_c, 1, 74, 127
2, 114200, Note_off_c, 1, 46, 0
2, 114200, Note_off_c, 1, 58, 0
2, 114200, Note_off_c, 1, 62, 0
2, 114200, Note_off_c, 1, 74, 0
2, 114240, Note_on_c, 1, 55, 127
2, 114240, Note_on_c, 1, 69, 127
2, 114960, Note_off_c, 1, 55, 0
2, 114960, Note_off_c, 1, 69, 0
2, 115000, Note_on_c, 1, 43, 127
2, 115000, Note_on_c, 1, 55, 127
2, 115000, Note_on_c, 1, 70, 127
2, 115320, Note_off_c, 1, 43, 0
2, 115320, Note_off_c, 1, 55, 0
2, 115320, Note_off_c, 1, 70, 0
2, 115360, Note_on_c, 1, 45, 127
2, 115360, Note_on_c, 1, 57, 127
2, 115360, Note_on_c, 1, 74, 127
2, 115520, Note_off_c, 1, 74, 0
2, 115560, Note_on_c, 1, 72, 127
2, 115720, Note_off_c, 1, 45, 0
2, 115720, Note_off_c, 1, 57, 0
2, 115720, Note_off_c, 1, 72, 0
2, 115760, Note_on_c, 1, 46, 127
2, 115760, Note_on_c, 1, 58, 127
2, 115760, Note_on_c, 1, 70, 127
2, 115760, Note_on_c, 1, 74, 127
2, 115760, Note_on_c, 1, 77, 127
2, 115760, Note_on_c, 1, 82, 127
2, 116080, Note_off_c, 1, 46, 0
2, 116080, Note_off_c, 1, 58, 0
2, 116080, Note_off_c, 1, 70, 0
2, 116080, Note_off_c, 1, 74, 0
2, 116080, Note_off_c, 1, 77, 0
2, 116080, Note_off_c, 1, 82, 0
2, 116520, Note_on_c, 1, 46, 127
2, 116520, Note_on_c, 1, 58, 127
2, 116520, Note_on_c, 1, 74, 127
2, 116520, Note_on_c, 1, 77, 127
2, 116520, Note_on_c, 1, 86, 127
2, 116680, Note_off_c, 1, 46, 0
2, 116680, Note_off_c, 1, 58, 0
2, 116680, Note_off_c, 1, 74, 0
2, 116720, Note_on_c, 1, 74, 127
2, 116920, Note_on_c, 1, 48, 127
2, 116920, Note_on_c, 1, 60, 127
2, 117040, Note_off_c, 1, 48, 0
2, 117040, Note_off_c, 1, 60, 0
2, 117120, Note_on_c, 1, 48, 127
2, 117120, Note_on_c, 1, 60, 127
2, 117200, Note_off_c, 1, 74, 0
2, 117200, Note_off_c, 1, 77, 0
2, 117240, Note_off_c, 1, 48, 0
2, 117240, Note_off_c, 1, 60, 0
2, 117240, Note_off_c, 1, 86, 0
2, 117320, Note_on_c, 1, 42, 127
2, 117320, Note_on_c, 1, 58, 127
2, 117440, Note_off_c, 1, 42, 0
2, 117440, Note_off_c, 1, 58, 0
2, 117480, Note_on_c, 1, 41, 127
2, 117480, Note_on_c, 1, 53, 127
2, 117640, Note_off_c, 1, 41, 0
2, 117640, Note_off_c, 1, 53, 0
2, 117680, Note_on_c, 1, 39, 127
2, 117680, Note_on_c, 1, 51, 127
2, 117680, Note_on_c, 1, 79, 127
2, 117680, Note_on_c, 1, 82, 127
2, 117680, Note_on_c, 1, 84, 127
2, 117840, Note_off_c, 1, 39, 0
2, 117840, Note_off_c, 1, 51, 0
2, 117880, Note_on_c, 1, 40, 127
2, 117880, Note_on_c, 1, 52, 127
2, 117920, Note_off_c, 1, 40, 0
2, 117920, Note_on_c, 1, 42, 127
2, 117960, Note_on_c, 1, 40, 127
2, 117960, Note_off_c, 1, 42, 0
2, 118040, Note_off_c, 1, 40, 0
2, 118040, Note_off_c, 1, 52, 0
2, 118040, Note_off_c, 1, 79, 0
2, 118040, Note_off_c, 1, 82, 0
2, 118040, Note_off_c, 1, 84, 0
2, 118080, Note_on_c, 1, 41, 127
2, 118080, Note_on_c, 1, 53, 127
2, 118080, Note_on_c, 1, 81, 127
2, 118080, Note_on_c, 1, 84, 127
2, 118200, Note_off_c, 1, 41, 0
2, 118200, Note_off_c, 1, 53, 0
2, 118280, Note_on_c, 1, 41, 127
2, 118280, Note_on_c, 1, 53, 127
2, 118400, Note_off_c, 1, 41, 0
2, 118400, Note_off_c, 1, 53, 0
2, 118400, Note_off_c, 1, 81, 0
2, 118400, Note_off_c, 1, 84, 0
2, 118440, Note_on_c, 1, 48, 127
2, 118440, Note_on_c, 1, 60, 127
2, 118600, Note_off_c, 1, 48, 0
2, 118600, Note_off_c, 1, 60, 0
2, 118600, Note_on_c, 1, 72, 127
2, 118640, Note_on_c, 1, 53, 127
2, 118640, Note_on_c, 1, 57, 127
2, 118800, Note_off_c, 1, 53, 0
2, 118800, Note_off_c, 1, 57, 0
2, 118800, Note_off_c, 1, 72, 0
2, 118840, Note_on_c, 1, 43, 127
2, 118840, Note_on_c, 1, 55, 127
2, 118840, Note_on_c, 1, 75, 127
2, 118960, Note_off_c, 1, 43, 0
2, 118960, Note_off_c, 1, 55, 0
2, 119040, Note_on_c, 1, 45, 127
2, 119040, Note_on_c, 1, 57, 127
2, 119160, Note_off_c, 1, 45, 0
2, 119160, Note_off_c, 1, 57, 0
2, 119160, Note_off_c, 1, 75, 0
2, 119200, Note_on_c, 1, 43, 127
2, 119200, Note_on_c, 1, 58, 127
2, 119200, Note_on_c, 1, 67, 127
2, 119200, Note_on_c, 1, 70, 127
2, 119200, Note_on_c, 1, 76, 127
2, 119200, Note_on_c, 1, 79, 127
2, 119200, Note_on_c, 1, 82, 127
2, 119360, Note_off_c, 1, 67, 0
2, 119560, Note_off_c, 1, 43, 0
2, 119560, Note_off_c, 1, 58, 0
2, 119560, Note_off_c, 1, 76, 0
2, 119560, Note_off_c, 1, 82, 0
2, 119760, Note_off_c, 1, 70, 0
2, 119760, Note_off_c, 1, 79, 0
2, 119800, Note_on_c, 1, 69, 127
2, 119800, Note_on_c, 1, 75, 127
2, 119920, Note_off_c, 1, 69, 0
2, 119920, Note_off_c, 1, 75, 0
2, 120000, Note_on_c, 1, 67, 127
2, 120000, Note_on_c, 1, 82, 127
2, 120120, Note_off_c, 1, 67, 0
2, 120160, Note_on_c, 1, 70, 127
2, 120320, Note_off_c, 1, 70, 0
2, 120320, Note_off_c, 1, 82, 0
2, 120360, Note_on_c, 1, 50, 127
2, 120360, Note_on_c, 1, 58, 127
2, 120360, Note_on_c, 1, 70, 127
2, 120520, Note_off_c, 1, 58, 0
2, 120520, Note_off_c, 1, 70, 0
2, 120560, Note_on_c, 1, 65, 127
2, 120720, Note_off_c, 1, 50, 0
2, 120720, Note_off_c, 1, 65, 0
2, 120760, Note_on_c, 1, 50, 127
2, 120760, Note_on_c, 1, 70, 127
2, 120920, Note_off_c, 1, 70, 0
2, 120960, Note_on_c, 1, 69, 127
2, 121080, Note_off_c, 1, 69, 0
2, 121120, Note_on_c, 1, 58, 127
2, 121120, Note_on_c, 1, 62, 127
2, 121120, Note_on_c, 1, 65, 127
2, 121280, Note_off_c, 1, 62, 0
2, 121280, Note_off_c, 1, 65, 0
2, 121320, Note_on_c, 1, 63, 127
2, 121320, Note_on_c, 1, 70, 127
2, 121440, Note_off_c, 1, 63, 0
2, 121480, Note_off_c, 1, 50, 0
2, 121480, Note_off_c, 1, 58, 0
2, 121480, Note_off_c, 1, 70, 0
2, 121520, Note_on_c, 1, 51, 127
2, 121520, Note_on_c, 1, 55, 127
2, 121520, Note_on_c, 1, 58, 127
2, 121520, Note_on_c, 1, 70, 127
2, 121640, Note_off_c, 1, 58, 0
2, 121720, Note_on_c, 1, 58, 127
2, 121840, Note_off_c, 1, 51, 0
2, 121840, Note_off_c, 1, 55, 0
2, 121840, Note_off_c, 1, 58, 0
2, 121840, Note_off_c, 1, 70, 0
2, 121880, Note_on_c, 1, 50, 127
2, 121880, Note_on_c, 1, 53, 127
2, 121880, Note_on_c, 1, 58, 127
2, 121880, Note_on_c, 1, 77, 127
2, 121880, Note_on_c, 1, 82, 127
2, 121880, Note_on_c, 1, 89, 127
2, 122040, Note_off_c, 1, 82, 0
2, 122040, Note_off_c, 1, 89, 0
2, 122080, Note_on_c, 1, 86, 127
2, 122240, Note_off_c, 1, 50, 0
2, 122240, Note_off_c, 1, 53, 0
2, 122240, Note_off_c, 1, 58, 0
2, 122240, Note_off_c, 1, 86, 0
2, 122280, Note_on_c, 1, 86, 127
2, 122400, Note_off_c, 1, 77, 0
2, 122400, Note_off_c, 1, 86, 0
2, 122480, Note_on_c, 1, 77, 127
2, 122480, Note_on_c, 1, 89, 127
2, 122600, Note_off_c, 1, 77, 0
2, 122600, Note_off_c, 1, 89, 0
2, 122640, Note_on_c, 1, 50, 127
2, 122640, Note_on_c, 1, 53, 127
2, 122640, Note_on_c, 1, 58, 127
2, 122640, Note_on_c, 1, 62, 127
2, 122640, Note_on_c, 1, 77, 127
2, 122640, Note_on_c, 1, 89, 127
2, 122800, Note_off_c, 1, 89, 0
2, 122840, Note_on_c, 1, 82, 127
2, 122960, Note_off_c, 1, 82, 0
2, 123000, Note_off_c, 1, 50, 0
2, 123000, Note_off_c, 1, 53, 0
2, 123000, Note_off_c, 1, 58, 0
2, 123000, Note_off_c, 1, 62, 0
2, 123000, Note_off_c, 1, 77, 0
2, 123040, Note_on_c, 1, 46, 127
2, 123040, Note_on_c, 1, 50, 127
2, 123040, Note_on_c, 1, 58, 127
2, 123040, Note_on_c, 1, 62, 127
2, 123040, Note_on_c, 1, 77, 127
2, 123040, Note_on_c, 1, 82, 127
2, 123360, Note_off_c, 1, 46, 0
2, 123360, Note_off_c, 1, 50, 0
2, 123360, Note_off_c, 1, 58, 0
2, 123360, Note_off_c, 1, 62, 0
2, 123400, Note_off_c, 1, 82, 0
2, 123440, Note_on_c, 1, 82, 127
2, 123760, Note_off_c, 1, 77, 0
2, 123800, Note_on_c, 1, 53, 127
2, 123800, Note_on_c, 1, 62, 127
2, 123800, Note_on_c, 1, 65, 127
2, 123960, Note_off_c, 1, 62, 0
2, 123960, Note_off_c, 1, 65, 0
2, 124000, Note_on_c, 1, 60, 127
2, 124000, Note_on_c, 1, 63, 127
2, 124120, Note_off_c, 1, 53, 0
2, 124120, Note_off_c, 1, 60, 0
2, 124120, Note_off_c, 1, 63, 0
2, 124200, Note_on_c, 1, 53, 127
2, 124200, Note_on_c, 1, 62, 127
2, 124320, Note_off_c, 1, 82, 0
2, 124360, Note_on_c, 1, 65, 127
2, 124360, Note_on_c, 1, 77, 127
2, 124360, Note_on_c, 1, 82, 127
2, 124520, Note_off_c, 1, 53, 0
2, 124520, Note_off_c, 1, 62, 0
2, 124520, Note_off_c, 1, 65, 0
2, 124520, Note_off_c, 1, 77, 0
2, 124520, Note_off_c, 1, 82, 0
2, 124560, Note_on_c, 1, 55, 127
2, 124560, Note_on_c, 1, 63, 127
2, 124560, Note_on_c, 1, 75, 127
2, 124560, Note_on_c, 1, 86, 127
2, 124720, Note_off_c, 1, 86, 0
2, 124760, Note_on_c, 1, 87, 127
2, 124920, Note_off_c, 1, 55, 0
2, 124920, Note_off_c, 1, 63, 0
2, 124920, Note_off_c, 1, 75, 0
2, 124920, Note_off_c, 1, 87, 0
2, 124960, Note_on_c, 1, 44, 127
2, 124960, Note_on_c, 1, 56, 127
2, 124960, Note_on_c, 1, 75, 127
2, 124960, Note_on_c, 1, 89, 127
2, 125240, Note_on_c, 1, 73, 127
2, 125240, Note_off_c, 1, 75, 0
2, 125240, Note_on_c, 1, 77, 127
2, 125280, Note_off_c, 1, 44, 0
2, 125280, Note_off_c, 1, 56, 0
2, 125280, Note_off_c, 1, 73, 0
2, 125280, Note_off_c, 1, 77, 0
2, 125360, Note_on_c, 1, 48, 127
2, 125360, Note_on_c, 1, 56, 127
2, 125360, Note_on_c, 1, 72, 127
2, 125360, Note_on_c, 1, 75, 127
2, 125360, Note_on_c, 1, 87, 127
2, 125360, Note_off_c, 1, 89, 0
2, 125400, Note_on_c, 1, 70, 127
2, 125400, Note_off_c, 1, 87, 0
2, 125400, Note_on_c, 1, 90, 127
2, 125440, Note_on_c, 1, 86, 127
2, 125440, Note_off_c, 1, 90, 0
2, 125480, Note_off_c, 1, 70, 0
2, 125480, Note_off_c, 1, 86, 0
2, 125520, Note_on_c, 1, 86, 127
2, 125560, Note_off_c, 1, 86, 0
2, 125640, Note_on_c, 1, 87, 127
2, 125680, Note_off_c, 1, 48, 0
2, 125680, Note_off_c, 1, 56, 0
2, 125680, Note_off_c, 1, 72, 0
2, 125680, Note_off_c, 1, 87, 0
2, 125720, Note_on_c, 1, 46, 127
2, 125720, Note_on_c, 1, 56, 127
2, 125720, Note_on_c, 1, 65, 127
2, 125720, Note_on_c, 1, 70, 127
2, 125720, Note_on_c, 1, 89, 127
2, 125840, Note_on_c, 1, 74, 127
2, 125840, Note_off_c, 1, 75, 0
2, 125880, Note_off_c, 1, 74, 0
2, 125880, Note_off_c, 1, 89, 0
2, 125920, Note_on_c, 1, 73, 127
2, 125920, Note_on_c, 1, 84, 127
2, 126040, Note_off_c, 1, 56, 0
2, 126080, Note_off_c, 1, 84, 0
2, 126120, Note_on_c, 1, 84, 127
2, 126240, Note_off_c, 1, 84, 0
2, 126320, Note_on_c, 1, 53, 127
2, 126320, Note_on_c, 1, 80, 127
2, 126480, Note_off_c, 1, 80, 0
2, 126520, Note_on_c, 1, 79, 127
2, 126560, Note_on_c, 1, 78, 127
2, 126560, Note_off_c, 1, 79, 0
2, 126640, Note_off_c, 1, 78, 0
2, 126720, Note_on_c, 1, 77, 127
2, 126800, Note_off_c, 1, 65, 0
2, 126840, Note_off_c, 1, 46, 0
2, 126840, Note_off_c, 1, 53, 0
2, 126840, Note_off_c, 1, 70, 0
2, 126840, Note_off_c, 1, 73, 0
2, 126840, Note_off_c, 1, 77, 0
2, 126880, Note_on_c, 1, 41, 127
2, 126880, Note_on_c, 1, 53, 127
2, 126880, Note_on_c, 1, 68, 127
2, 126880, Note_on_c, 1, 72, 127
2, 126880, Note_on_c, 1, 75, 127
2, 127040, Note_off_c, 1, 53, 0
2, 127040, Note_off_c, 1, 75, 0
2, 127080, Note_on_c, 1, 74, 127
2, 127240, Note_off_c, 1, 74, 0
2, 127280, Note_on_c, 1, 50, 127
2, 127280, Note_on_c, 1, 70, 127
2, 127440, Note_off_c, 1, 50, 0
2, 127440, Note_off_c, 1, 68, 0
2, 127440, Note_off_c, 1, 70, 0
2, 127440, Note_off_c, 1, 72, 0
2, 127440, Note_on_c, 1, 77, 127
2, 127480, Note_on_c, 1, 46, 127
2, 127480, Note_on_c, 1, 68, 127
2, 127480, Note_on_c, 1, 72, 127
2, 127600, Note_off_c, 1, 77, 0
2, 127680, Note_on_c, 1, 76, 127
2, 127800, Note_off_c, 1, 46, 0
2, 127800, Note_off_c, 1, 72, 0
2, 127800, Note_off_c, 1, 76, 0
2, 127880, Note_on_c, 1, 46, 127
2, 127880, Note_on_c, 1, 74, 127
2, 127880, Note_on_c, 1, 77, 127
2, 128000, Note_off_c, 1, 46, 0
2, 128000, Note_off_c, 1, 74, 0
2, 128000, Note_off_c, 1, 77, 0
2, 128040, Note_on_c, 1, 51, 127
2, 128040, Note_on_c, 1, 75, 127
2, 128040, Note_on_c, 1, 79, 127
2, 128200, Note_off_c, 1, 41, 0
2, 128200, Note_off_c, 1, 51, 0
2, 128200, Note_off_c, 1, 68, 0
2, 128200, Note_off_c, 1, 75, 0
2, 128200, Note_off_c, 1, 79, 0
2, 128240, Note_on_c, 1, 43, 127
2, 128240, Note_on_c, 1, 50, 127
2, 128240, Note_on_c, 1, 67, 127
2, 128240, Note_on_c, 1, 75, 127
2, 128240, Note_on_c, 1, 79, 127
2, 128400, Note_off_c, 1, 43, 0
2, 128440, Note_on_c, 1, 41, 127
2, 128600, Note_off_c, 1, 41, 0
2, 128600, Note_off_c, 1, 50, 0
2, 128640, Note_on_c, 1, 39, 127
2, 128640, Note_on_c, 1, 51, 127
2, 128760, Note_off_c, 1, 67, 0
2, 128840, Note_on_c, 1, 70, 127
2, 128960, Note_off_c, 1, 39, 0
2, 128960, Note_off_c, 1, 51, 0
2, 128960, Note_off_c, 1, 70, 0
2, 128960, Note_off_c, 1, 79, 0
2, 129000, Note_on_c, 1, 50, 127
2, 129000, Note_on_c, 1, 58, 127
2, 129000, Note_on_c, 1, 68, 127
2, 129000, Note_on_c, 1, 77, 127
2, 129160, Note_off_c, 1, 68, 0
2, 129160, Note_off_c, 1, 77, 0
2, 129200, Note_on_c, 1, 67, 127
2, 129360, Note_off_c, 1, 58, 0
2, 129360, Note_off_c, 1, 67, 0
2, 129360, Note_off_c, 1, 75, 0
2, 129400, Note_on_c, 1, 51, 127
2, 129400, Note_on_c, 1, 66, 127
2, 129400, Note_on_c, 1, 74, 127
2, 129560, Note_off_c, 1, 51, 0
2, 129560, Note_off_c, 1, 66, 0
2, 129600, Note_on_c, 1, 54, 127
2, 129600, Note_on_c, 1, 70, 127
2, 129760, Note_off_c, 1, 50, 0
2, 129760, Note_off_c, 1, 54, 0
2, 129760, Note_off_c, 1, 70, 0
2, 129800, Note_on_c, 1, 50, 127
2, 129800, Note_on_c, 1, 53, 127
2, 129800, Note_on_c, 1, 56, 127
2, 129800, Note_on_c, 1, 58, 127
2, 129800, Note_on_c, 1, 62, 127
2, 129920, Note_off_c, 1, 62, 0
2, 129920, Note_on_c, 1, 72, 127
2, 129920, Note_off_c, 1, 74, 0
2, 130000, Note_on_c, 1, 65, 127
2, 130120, Note_off_c, 1, 50, 0
2, 130120, Note_off_c, 1, 53, 0
2, 130120, Note_off_c, 1, 56, 0
2, 130120, Note_off_c, 1, 58, 0
2, 130120, Note_off_c, 1, 65, 0
2, 130120, Note_off_c, 1, 72, 0
2, 130160, Note_on_c, 1, 46, 127
2, 130160, Note_on_c, 1, 50, 127
2, 130160, Note_on_c, 1, 53, 127
2, 130160, Note_on_c, 1, 56, 127
2, 130160, Note_on_c, 1, 65, 127
2, 130160, Note_on_c, 1, 74, 127
2, 130520, Note_off_c, 1, 46, 0
2, 130520, Note_off_c, 1, 50, 0
2, 130520, Note_off_c, 1, 53, 0
2, 130520, Note_off_c, 1, 56, 0
2, 130520, Note_off_c, 1, 65, 0
2, 130520, Note_off_c, 1, 74, 0
2, 130560, Note_on_c, 1, 44, 127
2, 130560, Note_on_c, 1, 56, 127
2, 130560, Note_on_c, 1, 62, 127
2, 130560, Note_on_c, 1, 63, 127
2, 130560, Note_on_c, 1, 72, 127
2, 130680, Note_off_c, 1, 63, 0
2, 130920, Note_off_c, 1, 44, 0
2, 130920, Note_off_c, 1, 56, 0
2, 130920, Note_off_c, 1, 62, 0
2, 130960, Note_on_c, 1, 48, 127
2, 130960, Note_on_c, 1, 63, 127
2, 131080, Note_off_c, 1, 63, 0
2, 131160, Note_on_c, 1, 68, 127
2, 131280, Note_off_c, 1, 48, 0
2, 131280, Note_off_c, 1, 68, 0
2, 131280, Note_off_c, 1, 72, 0
2, 131360, Note_on_c, 1, 43, 127
2, 131360, Note_on_c, 1, 67, 127
2, 131360, Note_on_c, 1, 70, 127
2, 131360, Note_on_c, 1, 72, 127
2, 131520, Note_on_c, 1, 55, 127
2, 131720, Note_on_c, 1, 57, 127
2, 131880, Note_off_c, 1, 43, 0
2, 131880, Note_off_c, 1, 57, 0
2, 131880, Note_off_c, 1, 67, 0
2, 131880, Note_off_c, 1, 70, 0
2, 131880, Note_off_c, 1, 72, 0
2, 131920, Note_on_c, 1, 44, 127
2, 131920, Note_on_c, 1, 69, 127
2, 131920, Note_on_c, 1, 72, 127
2, 132080, Note_off_c, 1, 44, 0
2, 132080, Note_off_c, 1, 55, 0
2, 132080, Note_off_c, 1, 69, 0
2, 132080, Note_off_c, 1, 72, 0
2, 132120, Note_on_c, 1, 46, 127
2, 132120, Note_on_c, 1, 74, 127
2, 132280, Note_off_c, 1, 46, 0
2, 132280, Note_off_c, 1, 74, 0
2, 132320, Note_on_c, 1, 48, 127
2, 132320, Note_on_c, 1, 69, 127
2, 132440, Note_off_c, 1, 48, 0
2, 132440, Note_off_c, 1, 69, 0
2, 132520, Note_on_c, 1, 47, 127
2, 132520, Note_on_c, 1, 63, 127
2, 132520, Note_on_c, 1, 71, 127
2, 132640, Note_off_c, 1, 71, 0
2, 132680, Note_on_c, 1, 75, 127
2, 132840, Note_off_c, 1, 47, 0
2, 132840, Note_off_c, 1, 63, 0
2, 132840, Note_off_c, 1, 75, 0
2, 132880, Note_on_c, 1, 46, 127
2, 132880, Note_on_c, 1, 58, 127
2, 132880, Note_on_c, 1, 66, 127
2, 132880, Note_on_c, 1, 74, 127
2, 133040, Note_off_c, 1, 74, 0
2, 133080, Note_on_c, 1, 74, 127
2, 133400, Note_off_c, 1, 66, 0
2, 133480, Note_on_c, 1, 53, 127
2, 133480, Note_off_c, 1, 58, 0
2, 133480, Note_on_c, 1, 67, 127
2, 133600, Note_off_c, 1, 53, 0
2, 133600, Note_off_c, 1, 67, 0
2, 133640, Note_on_c, 1, 57, 127
2, 133640, Note_on_c, 1, 69, 127
2, 133800, Note_off_c, 1, 74, 0
2, 133840, Note_on_c, 1, 72, 127
2, 134000, Note_off_c, 1, 46, 0
2, 134000, Note_off_c, 1, 57, 0
2, 134000, Note_off_c, 1, 69, 0
2, 134040, Note_on_c, 1, 45, 127
2, 134040, Note_on_c, 1, 55, 127
2, 134040, Note_on_c, 1, 67, 127
2, 134200, Note_off_c, 1, 67, 0
2, 134320, Note_on_c, 1, 70, 127
2, 134320, Note_off_c, 1, 72, 0
2, 134360, Note_off_c, 1, 55, 0
2, 134360, Note_off_c, 1, 70, 0
2, 134400, Note_on_c, 1, 53, 127
2, 134400, Note_on_c, 1, 58, 127
2, 134400, Note_on_c, 1, 74, 127
2, 134440, Note_on_c, 1, 48, 127
2, 134440, Note_off_c, 1, 58, 0
2, 134560, Note_off_c, 1, 74, 0
2, 134600, Note_on_c, 1, 75, 127
2, 134760, Note_off_c, 1, 45, 0
2, 134760, Note_off_c, 1, 48, 0
2, 134760, Note_off_c, 1, 53, 0
2, 134760, Note_off_c, 1, 75, 0
2, 134800, Note_on_c, 1, 46, 127
2, 134800, Note_on_c, 1, 50, 127
2, 134800, Note_on_c, 1, 74, 127
2, 134960, Note_off_c, 1, 74, 0
2, 135000, Note_on_c, 1, 70, 127
2, 135160, Note_off_c, 1, 70, 0
2, 135200, Note_on_c, 1, 53, 127
2, 135200, Note_on_c, 1, 63, 127
2, 135200, Note_on_c, 1, 70, 127
2, 135320, Note_off_c, 1, 63, 0
2, 135400, Note_on_c, 1, 62, 127
2, 135520, Note_off_c, 1, 62, 0
2, 135600, Note_on_c, 1, 65, 127
2, 135720, Note_off_c, 1, 65, 0
2, 135920, Note_off_c, 1, 46, 0
2, 135920, Note_off_c, 1, 50, 0
2, 135920, Note_off_c, 1, 53, 0
2, 136000, Note_on_c, 1, 38, 127
2, 136000, Note_on_c, 1, 50, 127
2, 136000, Note_on_c, 1, 53, 127
2, 136000, Note_on_c, 1, 62, 127
2, 136320, Note_off_c, 1, 38, 0
2, 136320, Note_off_c, 1, 50, 0
2, 136320, Note_off_c, 1, 53, 0
2, 136320, Note_off_c, 1, 62, 0
2, 136320, Note_off_c, 1, 70, 0
2, 136760, Note_on_c, 1, 89, 127
2, 136920, Note_off_c, 1, 89, 0
2, 136960, Note_on_c, 1, 82, 127
2, 137080, Note_off_c, 1, 82, 0
2, 137160, Note_on_c, 1, 44, 127
2, 137160, Note_on_c, 1, 56, 127
2, 137160, Note_on_c, 1, 82, 127
2, 137280, Note_off_c, 1, 82, 0
2, 137320, Note_on_c, 1, 81, 127
2, 137480, Note_off_c, 1, 44, 0
2, 137480, Note_off_c, 1, 56, 0
2, 137480, Note_off_c, 1, 81, 0
2, 137520, Note_on_c, 1, 46, 127
2, 137520, Note_on_c, 1, 58, 127
2, 137520, Note_on_c, 1, 82, 127
2, 137680, Note_off_c, 1, 82, 0
2, 137720, Note_on_c, 1, 77, 127
2, 137880, Note_on_c, 1, 50, 127
2, 138040, Note_off_c, 1, 77, 0
2, 138080, Note_on_c, 1, 82, 127
2, 138240, Note_off_c, 1, 46, 0
2, 138240, Note_off_c, 1, 82, 0
2, 138280, Note_on_c, 1, 46, 127
2, 138280, Note_on_c, 1, 81, 127
2, 138440, Note_off_c, 1, 81, 0
2, 138480, Note_on_c, 1, 79, 127
2, 138600, Note_off_c, 1, 46, 0
2, 138600, Note_off_c, 1, 50, 0
2, 138600, Note_off_c, 1, 58, 0
2, 138680, Note_on_c, 1, 45, 127
2, 138680, Note_on_c, 1, 57, 127
2, 139200, Note_off_c, 1, 45, 0
2, 139200, Note_off_c, 1, 57, 0
2, 139200, Note_off_c, 1, 79, 0
2, 139240, Note_on_c, 1, 46, 127
2, 139240, Note_on_c, 1, 58, 127
2, 139240, Note_on_c, 1, 67, 127
2, 139240, Note_on_c, 1, 74, 127
2, 139240, Note_on_c, 1, 79, 127
2, 139560, Note_off_c, 1, 67, 0
2, 139640, Note_on_c, 1, 70, 127
2, 139760, Note_off_c, 1, 70, 0
2, 139800, Note_on_c, 1, 70, 127
2, 139960, Note_off_c, 1, 46, 0
2, 139960, Note_off_c, 1, 58, 0
2, 139960, Note_off_c, 1, 70, 0
2, 139960, Note_off_c, 1, 74, 0
2, 140000, Note_off_c, 1, 79, 0
2, 140000, Note_on_c, 1, 82, 127
2, 140040, Note_on_c, 1, 79, 127
2, 140040, Note_off_c, 1, 82, 0
2, 140160, Note_off_c, 1, 79, 0
2, 140200, Note_on_c, 1, 81, 127
2, 140360, Note_off_c, 1, 81, 0
2, 140400, Note_on_c, 1, 82, 127
2, 140720, Note_off_c, 1, 82, 0
2, 140760, Note_on_c, 1, 69, 127
2, 140760, Note_on_c, 1, 72, 127
2, 140760, Note_on_c, 1, 77, 127
2, 141120, Note_off_c, 1, 69, 0
2, 141120, Note_off_c, 1, 72, 0
2, 141120, Note_off_c, 1, 77, 0
2, 141160, Note_on_c, 1, 63, 127
2, 141160, Note_on_c, 1, 69, 127
2, 141160, Note_on_c, 1, 72, 127
2, 141480, Note_off_c, 1, 63, 0
2, 141480, Note_off_c, 1, 69, 0
2, 141480, Note_off_c, 1, 72, 0
2, 141520, Note_on_c, 1, 65, 127
2, 141520, Note_on_c, 1, 72, 127
2, 141880, Note_off_c, 1, 65, 0
2, 141880, Note_off_c, 1, 72, 0
2, 141920, Note_on_c, 1, 57, 127
2, 141920, Note_on_c, 1, 70, 127
2, 142240, Note_off_c, 1, 57, 0
2, 142320, Note_on_c, 1, 63, 127
2, 142640, Note_off_c, 1, 63, 0
2, 142640, Note_off_c, 1, 70, 0
2, 142680, Note_on_c, 1, 50, 127
2, 142680, Note_on_c, 1, 62, 127
2, 142680, Note_on_c, 1, 65, 127
2, 142680, Note_on_c, 1, 70, 127
2, 142680, Note_on_c, 1, 77, 127
2, 142840, Note_off_c, 1, 77, 0
2, 142880, Note_on_c, 1, 73, 127
2, 143040, Note_off_c, 1, 50, 0
2, 143040, Note_off_c, 1, 62, 0
2, 143040, Note_off_c, 1, 65, 0
2, 143040, Note_off_c, 1, 70, 0
2, 143040, Note_off_c, 1, 73, 0
2, 143080, Note_on_c, 1, 63, 127
2, 143080, Note_on_c, 1, 67, 127
2, 143080, Note_on_c, 1, 72, 127
2, 143200, Note_off_c, 1, 72, 0
2, 143280, Note_on_c, 1, 70, 127
2, 143400, Note_off_c, 1, 63, 0
2, 143400, Note_off_c, 1, 67, 0
2, 143400, Note_off_c, 1, 70, 0
2, 143440, Note_on_c, 1, 58, 127
2, 143440, Note_on_c, 1, 62, 127
2, 143440, Note_on_c, 1, 65, 127
2, 143440, Note_on_c, 1, 70, 127
2, 143600, Note_off_c, 1, 70, 0
2, 143640, Note_on_c, 1, 70, 127
2, 143800, Note_off_c, 1, 58, 0
2, 143800, Note_off_c, 1, 62, 0
2, 143800, Note_off_c, 1, 65, 0
2, 143800, Note_off_c, 1, 70, 0
2, 143840, Note_on_c, 1, 70, 127
2, 144000, Note_off_c, 1, 70, 0
2, 144040, Note_on_c, 1, 69, 127
2, 144160, Note_off_c, 1, 69, 0
2, 144240, Note_on_c, 1, 67, 127
2, 144360, Note_off_c, 1, 67, 0
2, 144400, Note_on_c, 1, 68, 127
2, 144560, Note_off_c, 1, 68, 0
2, 144600, Note_on_c, 1, 55, 127
2, 144600, Note_on_c, 1, 58, 127
2, 144600, Note_on_c, 1, 63, 127
2, 144600, Note_on_c, 1, 67, 127
2, 144600, Note_on_c, 1, 75, 127
2, 144760, Note_off_c, 1, 63, 0
2, 144760, Note_off_c, 1, 75, 0
2, 144960, Note_off_c, 1, 58, 0
2, 144960, Note_off_c, 1, 67, 0
2, 145000, Note_on_c, 1, 65, 127
2, 145000, Note_on_c, 1, 68, 127
2, 145000, Note_on_c, 1, 74, 127
2, 145120, Note_off_c, 1, 55, 0
2, 145120, Note_off_c, 1, 74, 0
2, 145200, Note_on_c, 1, 75, 127
2, 145320, Note_off_c, 1, 65, 0
2, 145320, Note_off_c, 1, 75, 0
2, 145360, Note_on_c, 1, 56, 127
2, 145360, Note_on_c, 1, 62, 127
2, 145360, Note_on_c, 1, 65, 127
2, 145360, Note_on_c, 1, 74, 127
2, 145520, Note_off_c, 1, 56, 0
2, 145520, Note_off_c, 1, 62, 0
2, 145520, Note_off_c, 1, 65, 0
2, 145520, Note_off_c, 1, 68, 0
2, 145520, Note_off_c, 1, 74, 0
2, 145560, Note_on_c, 1, 63, 127
2, 145560, Note_on_c, 1, 67, 127
2, 145760, Note_on_c, 1, 46, 127
2, 145760, Note_on_c, 1, 58, 127
2, 145760, Note_on_c, 1, 75, 127
2, 145880, Note_off_c, 1, 63, 0
2, 145920, Note_off_c, 1, 58, 0
2, 145920, Note_off_c, 1, 67, 0
2, 145920, Note_on_c, 1, 73, 127
2, 145920, Note_off_c, 1, 75, 0
2, 145960, Note_on_c, 1, 53, 127
2, 145960, Note_on_c, 1, 62, 127
2, 145960, Note_on_c, 1, 68, 127
2, 145960, Note_off_c, 1, 73, 0
2, 145960, Note_on_c, 1, 74, 127
2, 146080, Note_off_c, 1, 46, 0
2, 146080, Note_off_c, 1, 53, 0
2, 146080, Note_off_c, 1, 62, 0
2, 146080, Note_off_c, 1, 68, 0
2, 146080, Note_off_c, 1, 74, 0
2, 146160, Note_on_c, 1, 46, 127
2, 146160, Note_on_c, 1, 53, 127
2, 146160, Note_on_c, 1, 62, 127
2, 146280, Note_off_c, 1, 62, 0
2, 146320, Note_on_c, 1, 63, 127
2, 146480, Note_off_c, 1, 46, 0
2, 146480, Note_off_c, 1, 53, 0
2, 146480, Note_off_c, 1, 63, 0
2, 146520, Note_on_c, 1, 51, 127
2, 146520, Note_on_c, 1, 55, 127
2, 146520, Note_on_c, 1, 70, 127
2, 146520, Note_on_c, 1, 82, 127
2, 146680, Note_off_c, 1, 51, 0
2, 146680, Note_off_c, 1, 70, 0
2, 146720, Note_on_c, 1, 58, 127
2, 146720, Note_on_c, 1, 75, 127
2, 146880, Note_off_c, 1, 58, 0
2, 146920, Note_on_c, 1, 63, 127
2, 147040, Note_off_c, 1, 55, 0
2, 147040, Note_off_c, 1, 63, 0
2, 147040, Note_off_c, 1, 75, 0
2, 147040, Note_off_c, 1, 82, 0
2, 147120, Note_on_c, 1, 58, 127
2, 147120, Note_on_c, 1, 67, 127
2, 147120, Note_on_c, 1, 82, 127
2, 147240, Note_off_c, 1, 58, 0
2, 147240, Note_off_c, 1, 67, 0
2, 147240, Note_off_c, 1, 82, 0
2, 147280, Note_on_c, 1, 51, 127
2, 147280, Note_on_c, 1, 63, 127
2, 147280, Note_on_c, 1, 70, 127
2, 147280, Note_on_c, 1, 79, 127
2, 147440, Note_off_c, 1, 70, 0
2, 147480, Note_on_c, 1, 67, 127
2, 147640, Note_off_c, 1, 51, 0
2, 147640, Note_off_c, 1, 63, 0
2, 147640, Note_off_c, 1, 67, 0
2, 147640, Note_off_c, 1, 79, 0
2, 147680, Note_on_c, 1, 51, 127
2, 147680, Note_on_c, 1, 55, 127
2, 147680, Note_on_c, 1, 58, 127
2, 147680, Note_on_c, 1, 75, 127
2, 147680, Note_on_c, 1, 84, 127
2, 147840, Note_off_c, 1, 75, 0
2, 147880, Note_on_c, 1, 70, 127
2, 148000, Note_off_c, 1, 51, 0
2, 148000, Note_off_c, 1, 55, 0
2, 148000, Note_off_c, 1, 58, 0
2, 148000, Note_off_c, 1, 70, 0
2, 148000, Note_off_c, 1, 84, 0
2, 148080, Note_on_c, 1, 75, 127
2, 148080, Note_on_c, 1, 87, 127
2, 148200, Note_off_c, 1, 75, 0
2, 148200, Note_off_c, 1, 87, 0
2, 148240, Note_on_c, 1, 73, 127
2, 148240, Note_on_c, 1, 85, 127
2, 148400, Note_off_c, 1, 73, 0
2, 148400, Note_off_c, 1, 85, 0
2, 148440, Note_on_c, 1, 82, 127
2, 148440, Note_on_c, 1, 84, 127
2, 148560, Note_off_c, 1, 82, 0
2, 148640, Note_on_c, 1, 44, 127
2, 148640, Note_on_c, 1, 56, 127
2, 148640, Note_on_c, 1, 87, 127
2, 148800, Note_off_c, 1, 44, 0
2, 148800, Note_off_c, 1, 56, 0
2, 148800, Note_off_c, 1, 84, 0
2, 148800, Note_off_c, 1, 87, 0
2, 148840, Note_on_c, 1, 56, 127
2, 148840, Note_on_c, 1, 60, 127
2, 148840, Note_on_c, 1, 84, 127
2, 148840, Note_on_c, 1, 87, 127
2, 149000, Note_off_c, 1, 60, 0
2, 149040, Note_on_c, 1, 63, 127
2, 149160, Note_off_c, 1, 56, 0
2, 149160, Note_off_c, 1, 63, 0
2, 149160, Note_off_c, 1, 84, 0
2, 149160, Note_off_c, 1, 87, 0
2, 149240, Note_on_c, 1, 82, 127
2, 149240, Note_on_c, 1, 85, 127
2, 149240, Note_on_c, 1, 86, 127
2, 149320, Note_off_c, 1, 86, 0
2, 149360, Note_off_c, 1, 82, 0
2, 149360, Note_off_c, 1, 85, 0
2, 149400, Note_on_c, 1, 84, 127
2, 149600, Note_on_c, 1, 45, 127
2, 149600, Note_on_c, 1, 79, 127
2, 149720, Note_off_c, 1, 79, 0
2, 149800, Note_on_c, 1, 48, 127
2, 149800, Note_on_c, 1, 75, 127
2, 149840, Note_off_c, 1, 45, 0
2, 149880, Note_on_c, 1, 50, 127
2, 149920, Note_off_c, 1, 48, 0
2, 149920, Note_off_c, 1, 50, 0
2, 149920, Note_off_c, 1, 75, 0
2, 149920, Note_off_c, 1, 84, 0
2, 149960, Note_on_c, 1, 72, 127
2, 149960, Note_on_c, 1, 84, 127
2, 150160, Note_on_c, 1, 48, 127
2, 150320, Note_off_c, 1, 48, 0
2, 150360, Note_on_c, 1, 56, 127
2, 150520, Note_off_c, 1, 56, 0
2, 150560, Note_on_c, 1, 60, 127
2, 150680, Note_off_c, 1, 60, 0
2, 150720, Note_off_c, 1, 72, 0
2, 150720, Note_off_c, 1, 84, 0
2, 150760, Note_on_c, 1, 46, 127
2, 150760, Note_on_c, 1, 65, 127
2, 150760, Note_on_c, 1, 70, 127
2, 150880, Note_off_c, 1, 46, 0
2, 150960, Note_on_c, 1, 60, 127
2, 151080, Note_off_c, 1, 60, 0
2, 151080, Note_off_c, 1, 65, 0
2, 151080, Note_off_c, 1, 70, 0
2, 151120, Note_on_c, 1, 46, 127
2, 151120, Note_on_c, 1, 70, 127
2, 151200, Note_off_c, 1, 70, 0
2, 151240, Note_on_c, 1, 65, 127
2, 151280, Note_off_c, 1, 46, 0
2, 151280, Note_off_c, 1, 65, 0
2, 151320, Note_on_c, 1, 60, 127
2, 151320, Note_on_c, 1, 68, 127
2, 151360, Note_off_c, 1, 68, 0
2, 151440, Note_on_c, 1, 70, 127
2, 151480, Note_off_c, 1, 60, 0
2, 151480, Note_off_c, 1, 70, 0
2, 151520, Note_on_c, 1, 46, 127
2, 151520, Note_on_c, 1, 62, 127
2, 151520, Note_on_c, 1, 74, 127
2, 151560, Note_off_c, 1, 74, 0
2, 151600, Note_on_c, 1, 58, 127
2, 151600, Note_on_c, 1, 72, 127
2, 151640, Note_off_c, 1, 62, 0
2, 151680, Note_off_c, 1, 72, 0
2, 151720, Note_on_c, 1, 70, 127
2, 151760, Note_off_c, 1, 70, 0
2, 151800, Note_on_c, 1, 65, 127
2, 151840, Note_off_c, 1, 46, 0
2, 151840, Note_off_c, 1, 58, 0
2, 151840, Note_off_c, 1, 65, 0
2, 151880, Note_on_c, 1, 50, 127
2, 151880, Note_on_c, 1, 63, 127
2, 151880, Note_on_c, 1, 75, 127
2, 151960, Note_off_c, 1, 75, 0
2, 152000, Note_on_c, 1, 65, 127
2, 152040, Note_off_c, 1, 65, 0
2, 152080, Note_on_c, 1, 70, 127
2, 152120, Note_off_c, 1, 70, 0
2, 152200, Note_on_c, 1, 74, 127
2, 152240, Note_off_c, 1, 50, 0
2, 152240, Note_off_c, 1, 63, 0
2, 152240, Note_off_c, 1, 74, 0
2, 152280, Note_on_c, 1, 53, 127
2, 152280, Note_on_c, 1, 62, 127
2, 152280, Note_on_c, 1, 70, 127
2, 152320, Note_off_c, 1, 70, 0
2, 152360, Note_on_c, 1, 68, 127
2, 152400, Note_off_c, 1, 68, 0
2, 152480, Note_on_c, 1, 70, 127
2, 152520, Note_off_c, 1, 70, 0
2, 152560, Note_on_c, 1, 74, 127
2, 152600, Note_off_c, 1, 53, 0
2, 152600, Note_off_c, 1, 62, 0
2, 152600, Note_off_c, 1, 74, 0
2, 152680, Note_on_c, 1, 58, 127
2, 152680, Note_on_c, 1, 65, 127
2, 152680, Note_on_c, 1, 70, 127
2, 152680, Note_on_c, 1, 74, 127
2, 152800, Note_off_c, 1, 58, 0
2, 152800, Note_off_c, 1, 65, 0
2, 152800, Note_off_c, 1, 70, 0
2, 152840, Note_on_c, 1, 58, 127
2, 152840, Note_on_c, 1, 62, 127
2, 152840, Note_on_c, 1, 70, 127
2, 153000, Note_off_c, 1, 58, 0
2, 153000, Note_off_c, 1, 62, 0
2, 153000, Note_off_c, 1, 70, 0
2, 153040, Note_on_c, 1, 58, 127
2, 153040, Note_on_c, 1, 62, 127
2, 153040, Note_on_c, 1, 70, 127
2, 153200, Note_off_c, 1, 58, 0
2, 153200, Note_off_c, 1, 62, 0
2, 153200, Note_off_c, 1, 70, 0
2, 153200, Note_off_c, 1, 74, 0
2, 153240, Note_on_c, 1, 58, 127
2, 153240, Note_on_c, 1, 62, 127
2, 153240, Note_on_c, 1, 70, 127
2, 153240, Note_on_c, 1, 74, 127
2, 153400, Note_off_c, 1, 58, 0
2, 153400, Note_off_c, 1, 62, 0
2, 153400, Note_off_c, 1, 70, 0
2, 153400, Note_off_c, 1, 74, 0
2, 153440, Note_on_c, 1, 58, 127
2, 153440, Note_on_c, 1, 62, 127
2, 153560, Note_off_c, 1, 58, 0
2, 153560, Note_off_c, 1, 62, 0
2, 153640, Note_on_c, 1, 58, 127
2, 153640, Note_on_c, 1, 62, 127
2, 153640, Note_on_c, 1, 70, 127
2, 153760, Note_off_c, 1, 58, 0
2, 153760, Note_off_c, 1, 62, 0
2, 153760, Note_off_c, 1, 70, 0
2, 153800, Note_on_c, 1, 58, 127
2, 153800, Note_on_c, 1, 63, 127
2, 153800, Note_on_c, 1, 70, 127
2, 153960, Note_off_c, 1, 58, 0
2, 153960, Note_off_c, 1, 63, 0
2, 153960, Note_off_c, 1, 70, 0
2, 154000, Note_on_c, 1, 62, 127
2, 154000, Note_on_c, 1, 65, 127
2, 154000, Note_on_c, 1, 70, 127
2, 154160, Note_off_c, 1, 62, 0
2, 154160, Note_off_c, 1, 65, 0
2, 154160, Note_off_c, 1, 70, 0
2, 154200, Note_on_c, 1, 62, 127
2, 154200, Note_on_c, 1, 65, 127
2, 154200, Note_on_c, 1, 70, 127
2, 154520, Note_off_c, 1, 70, 0
2, 154600, Note_on_c, 1, 69, 127
2, 154920, Note_off_c, 1, 62, 0
2, 154920, Note_off_c, 1, 65, 0
2, 154920, Note_off_c, 1, 69, 0
2, 154960, Note_on_c, 1, 55, 127
2, 154960, Note_on_c, 1, 58, 127
2, 154960, Note_on_c, 1, 68, 127
2, 154960, Note_on_c, 1, 72, 127
2, 155320, Note_off_c, 1, 55, 0
2, 155320, Note_off_c, 1, 58, 0
2, 155320, Note_off_c, 1, 68, 0
2, 155320, Note_off_c, 1, 72, 0
2, 155360, Note_on_c, 1, 58, 127
2, 155360, Note_on_c, 1, 65, 127
2, 155360, Note_on_c, 1, 68, 127
2, 155360, Note_on_c, 1, 74, 127
2, 155520, Note_off_c, 1, 74, 0
2, 155560, Note_on_c, 1, 75, 127
2, 155680, Note_off_c, 1, 58, 0
2, 155680, Note_off_c, 1, 65, 0
2, 155680, Note_off_c, 1, 68, 0
2, 155680, Note_off_c, 1, 75, 0
2, 155760, Note_on_c, 1, 77, 127
2, 155880, Note_off_c, 1, 77, 0
2, 155920, Note_on_c, 1, 75, 127
2, 156080, Note_off_c, 1, 75, 0
2, 156120, Note_on_c, 1, 60, 127
2, 156120, Note_on_c, 1, 63, 127
2, 156120, Note_on_c, 1, 65, 127
2, 156120, Note_on_c, 1, 72, 127
2, 156480, Note_off_c, 1, 60, 0
2, 156480, Note_off_c, 1, 63, 0
2, 156480, Note_off_c, 1, 65, 0
2, 156480, Note_off_c, 1, 72, 0
2, 156520, Note_on_c, 1, 65, 127
2, 156520, Note_on_c, 1, 70, 127
2, 156840, Note_off_c, 1, 65, 0
2, 156840, Note_off_c, 1, 70, 0
2, 156880, Note_on_c, 1, 63, 127
2, 156880, Note_on_c, 1, 67, 127
2, 156880, Note_on_c, 1, 70, 127
2, 157240, Note_off_c, 1, 63, 0
2, 157240, Note_off_c, 1, 67, 0
2, 157240, Note_off_c, 1, 70, 0
2, 157280, Note_on_c, 1, 56, 127
2, 157280, Note_on_c, 1, 70, 127
2, 157280, Note_on_c, 1, 72, 127
2, 157280, Note_on_c, 1, 75, 127
2, 157600, Note_off_c, 1, 56, 0
2, 157600, Note_off_c, 1, 70, 0
2, 157600, Note_off_c, 1, 72, 0
2, 157600, Note_off_c, 1, 75, 0
2, 157640, Note_on_c, 1, 72, 127
2, 157680, Note_on_c, 1, 56, 127
2, 157800, Note_off_c, 1, 72, 0
2, 157840, Note_on_c, 1, 75, 127
2, 158000, Note_off_c, 1, 56, 0
2, 158000, Note_off_c, 1, 75, 0
2, 158040, Note_on_c, 1, 77, 127
2, 158200, Note_off_c, 1, 77, 0
2, 158240, Note_on_c, 1, 75, 127
2, 158400, Note_off_c, 1, 75, 0
2, 158440, Note_on_c, 1, 75, 127
2, 158560, Note_off_c, 1, 75, 0
2, 158640, Note_on_c, 1, 74, 127
2, 158760, Note_off_c, 1, 74, 0
2, 158800, Note_on_c, 1, 80, 127
2, 158960, Note_off_c, 1, 80, 0
2, 159000, Note_on_c, 1, 82, 127
2, 159160, Note_off_c, 1, 82, 0
2, 159200, Note_on_c, 1, 80, 127
2, 159360, Note_off_c, 1, 80, 0
2, 159400, Note_on_c, 1, 79, 127
2, 159520, Note_off_c, 1, 79, 0
2, 159600, Note_on_c, 1, 77, 127
2, 159720, Note_off_c, 1, 77, 0
2, 159760, Note_on_c, 1, 75, 127
2, 159920, Note_off_c, 1, 75, 0
2, 159960, Note_on_c, 1, 73, 127
2, 160120, Note_off_c, 1, 73, 0
2, 160160, Note_on_c, 1, 71, 127
2, 160320, Note_off_c, 1, 71, 0
2, 160360, Note_on_c, 1, 38, 127
2, 160360, Note_on_c, 1, 70, 127
2, 160560, Note_on_c, 1, 74, 127
2, 160680, Note_off_c, 1, 38, 0
2, 160680, Note_off_c, 1, 70, 0
2, 160680, Note_off_c, 1, 74, 0
2, 160720, Note_on_c, 1, 75, 127
2, 160880, Note_off_c, 1, 75, 0
2, 160920, Note_on_c, 1, 74, 127
2, 161080, Note_off_c, 1, 74, 0
2, 161120, Note_on_c, 1, 75, 127
2, 161280, Note_off_c, 1, 75, 0
2, 161320, Note_on_c, 1, 79, 127
2, 161440, Note_off_c, 1, 79, 0
2, 161520, Note_on_c, 1, 81, 127
2, 161640, Note_off_c, 1, 81, 0
2, 161680, Note_on_c, 1, 79, 127
2, 161840, Note_off_c, 1, 79, 0
2, 161880, Note_on_c, 1, 77, 127
2, 162040, Note_off_c, 1, 77, 0
2, 162080, Note_on_c, 1, 75, 127
2, 162240, Note_off_c, 1, 75, 0
2, 162280, Note_on_c, 1, 74, 127
2, 162400, Note_off_c, 1, 74, 0
2, 162480, Note_on_c, 1, 75, 127
2, 162600, Note_off_c, 1, 75, 0
2, 162640, Note_on_c, 1, 74, 127
2, 162800, Note_off_c, 1, 74, 0
2, 162840, Note_on_c, 1, 75, 127
2, 163000, Note_off_c, 1, 75, 0
2, 163040, Note_on_c, 1, 74, 127
2, 163200, Note_off_c, 1, 74, 0
2, 163240, Note_on_c, 1, 72, 127
2, 163360, Note_off_c, 1, 72, 0
2, 163440, Note_on_c, 1, 74, 127
2, 163560, Note_off_c, 1, 74, 0
2, 163600, Note_on_c, 1, 75, 127
2, 163760, Note_off_c, 1, 75, 0
2, 163800, Note_on_c, 1, 48, 127
2, 163800, Note_on_c, 1, 60, 127
2, 163800, Note_on_c, 1, 65, 127
2, 163920, Note_off_c, 1, 65, 0
2, 163920, Note_on_c, 1, 69, 127
2, 164160, Note_off_c, 1, 60, 0
2, 164200, Note_on_c, 1, 57, 127
2, 164200, Note_on_c, 1, 75, 127
2, 164480, Note_on_c, 1, 68, 127
2, 164480, Note_off_c, 1, 69, 0
2, 164480, Note_off_c, 1, 75, 0
2, 164520, Note_off_c, 1, 48, 0
2, 164520, Note_off_c, 1, 57, 0
2, 164520, Note_off_c, 1, 68, 0
2, 164560, Note_on_c, 1, 72, 127
2, 164920, Note_off_c, 1, 72, 0
2, 164960, Note_on_c, 1, 65, 127
2, 165280, Note_off_c, 1, 65, 0
2, 165360, Note_on_c, 1, 65, 127
2, 165680, Note_off_c, 1, 65, 0
2, 165720, Note_on_c, 1, 58, 127
2, 165880, Note_off_c, 1, 58, 0
2, 165920, Note_on_c, 1, 65, 127
2, 166040, Note_on_c, 1, 63, 127
2, 166040, Note_off_c, 1, 65, 0
2, 166080, Note_off_c, 1, 63, 0
2, 166120, Note_on_c, 1, 46, 127
2, 166120, Note_on_c, 1, 62, 127
2, 166400, Note_on_c, 1, 50, 127
2, 166440, Note_off_c, 1, 62, 0
2, 166480, Note_on_c, 1, 58, 127
2, 166680, Note_off_c, 1, 58, 0
2, 166720, Note_on_c, 1, 58, 127
2, 166880, Note_off_c, 1, 58, 0
2, 166920, Note_on_c, 1, 60, 127
2, 167040, Note_off_c, 1, 46, 0
2, 167040, Note_off_c, 1, 50, 0
2, 167040, Note_off_c, 1, 60, 0
2, 167080, Note_on_c, 1, 62, 127
2, 167240, Note_off_c, 1, 62, 0
2, 167280, Note_on_c, 1, 51, 127
2, 167280, Note_on_c, 1, 55, 127
2, 167280, Note_on_c, 1, 58, 127
2, 167600, Note_off_c, 1, 55, 0
2, 167600, Note_off_c, 1, 58, 0
2, 167680, Note_on_c, 1, 63, 127
2, 168000, Note_off_c, 1, 63, 0
2, 168040, Note_on_c, 1, 70, 127
2, 168400, Note_off_c, 1, 51, 0
2, 168440, Note_on_c, 1, 50, 127
2, 168440, Note_on_c, 1, 58, 127
2, 168560, Note_off_c, 1, 70, 0
2, 168640, Note_on_c, 1, 79, 127
2, 168760, Note_off_c, 1, 50, 0
2, 168760, Note_off_c, 1, 79, 0
2, 168800, Note_on_c, 1, 51, 127
2, 168800, Note_on_c, 1, 81, 127
2, 168960, Note_off_c, 1, 81, 0
2, 169000, Note_on_c, 1, 79, 127
2, 169160, Note_off_c, 1, 51, 0
2, 169160, Note_off_c, 1, 58, 0
2, 169160, Note_off_c, 1, 79, 0
2, 169200, Note_on_c, 1, 53, 127
2, 169200, Note_on_c, 1, 57, 127
2, 169200, Note_on_c, 1, 69, 127
2, 169360, Note_off_c, 1, 69, 0
2, 169400, Note_on_c, 1, 79, 127
2, 169520, Note_off_c, 1, 53, 0
2, 169520, Note_off_c, 1, 57, 0
2, 169520, Note_off_c, 1, 79, 0
2, 169600, Note_on_c, 1, 55, 127
2, 169600, Note_on_c, 1, 58, 127
2, 169600, Note_on_c, 1, 77, 127
2, 169720, Note_off_c, 1, 77, 0
2, 169760, Note_on_c, 1, 75, 127
2, 169920, Note_off_c, 1, 55, 0
2, 169920, Note_off_c, 1, 58, 0
2, 169920, Note_off_c, 1, 75, 0
2, 169960, Note_on_c, 1, 50, 127
2, 169960, Note_on_c, 1, 53, 127
2, 169960, Note_on_c, 1, 80, 127
2, 170120, Note_off_c, 1, 80, 0
2, 170160, Note_on_c, 1, 82, 127
2, 170280, Note_off_c, 1, 53, 0
2, 170320, Note_off_c, 1, 82, 0
2, 170360, Note_on_c, 1, 77, 127
2, 170360, Note_on_c, 1, 81, 127
2, 170480, Note_off_c, 1, 81, 0
2, 170520, Note_on_c, 1, 51, 127
2, 170520, Note_on_c, 1, 81, 127
2, 170680, Note_off_c, 1, 51, 0
2, 170680, Note_off_c, 1, 81, 0
2, 170720, Note_on_c, 1, 53, 127
2, 170720, Note_on_c, 1, 82, 127
2, 170880, Note_off_c, 1, 77, 0
2, 170880, Note_off_c, 1, 82, 0
2, 170920, Note_on_c, 1, 84, 127
2, 171040, Note_off_c, 1, 50, 0
2, 171040, Note_on_c, 1, 51, 127
2, 171080, Note_on_c, 1, 50, 127
2, 171080, Note_off_c, 1, 51, 0
2, 171080, Note_off_c, 1, 84, 0
2, 171120, Note_on_c, 1, 82, 127
2, 171120, Note_on_c, 1, 84, 127
2, 171280, Note_off_c, 1, 84, 0
2, 171320, Note_on_c, 1, 85, 127
2, 171440, Note_off_c, 1, 50, 0
2, 171440, Note_off_c, 1, 53, 0
2, 171440, Note_off_c, 1, 82, 0
2, 171440, Note_off_c, 1, 85, 0
2, 171520, Note_on_c, 1, 46, 127
2, 171520, Note_on_c, 1, 50, 127
2, 171520, Note_on_c, 1, 77, 127
2, 171520, Note_on_c, 1, 82, 127
2, 171640, Note_off_c, 1, 82, 0
2, 171680, Note_on_c, 1, 84, 127
2, 171840, Note_off_c, 1, 84, 0
2, 171880, Note_on_c, 1, 82, 127
2, 172040, Note_off_c, 1, 82, 0
2, 172080, Note_on_c, 1, 86, 127
2, 172240, Note_off_c, 1, 46, 0
2, 172240, Note_off_c, 1, 50, 0
2, 172240, Note_off_c, 1, 77, 0
2, 172240, Note_off_c, 1, 86, 0
2, 172280, Note_on_c, 1, 81, 127
2, 172280, Note_on_c, 1, 86, 127
2, 172400, Note_off_c, 1, 81, 0
2, 172440, Note_on_c, 1, 80, 127
2, 172440, Note_off_c, 1, 86, 0
2, 172480, Note_off_c, 1, 80, 0
2, 172480, Note_on_c, 1, 81, 127
2, 172480, Note_on_c, 1, 86, 127
2, 172600, Note_off_c, 1, 81, 0
2, 172600, Note_off_c, 1, 86, 0
2, 172640, Note_on_c, 1, 86, 127
2, 172800, Note_off_c, 1, 86, 0
2, 172840, Note_on_c, 1, 89, 127
2, 173000, Note_off_c, 1, 89, 0
2, 173040, Note_on_c, 1, 58, 127
2, 173040, Note_on_c, 1, 86, 127
2, 173400, Note_off_c, 1, 58, 0
2, 173400, Note_off_c, 1, 86, 0
2, 173440, Note_on_c, 1, 53, 127
2, 173440, Note_on_c, 1, 72, 127
2, 173440, Note_on_c, 1, 84, 127
2, 173440, Note_on_c, 1, 87, 127
2, 173600, Note_off_c, 1, 84, 0
2, 173600, Note_on_c, 1, 86, 127
2, 173600, Note_off_c, 1, 87, 0
2, 173640, Note_on_c, 1, 82, 127
2, 173680, Note_off_c, 1, 86, 0
2, 173680, Note_on_c, 1, 87, 127
2, 173760, Note_off_c, 1, 82, 0
2, 173760, Note_on_c, 1, 86, 127
2, 173760, Note_off_c, 1, 87, 0
2, 173840, Note_on_c, 1, 79, 127
2, 173840, Note_off_c, 1, 86, 0
2, 173840, Note_on_c, 1, 87, 127
2, 173960, Note_off_c, 1, 72, 0
2, 173960, Note_off_c, 1, 87, 0
2, 174040, Note_on_c, 1, 57, 127
2, 174040, Note_on_c, 1, 72, 127
2, 174160, Note_off_c, 1, 79, 0
2, 174200, Note_on_c, 1, 77, 127
2, 174560, Note_off_c, 1, 53, 0
2, 174560, Note_off_c, 1, 72, 0
2, 174560, Note_off_c, 1, 77, 0
2, 174600, Note_on_c, 1, 44, 127
2, 174600, Note_on_c, 1, 72, 127
2, 174600, Note_on_c, 1, 77, 127
2, 174920, Note_off_c, 1, 44, 0
2, 174920, Note_off_c, 1, 57, 0
2, 174920, Note_off_c, 1, 72, 0
2, 174920, Note_off_c, 1, 77, 0
2, 174960, Note_on_c, 1, 46, 127
2, 174960, Note_on_c, 1, 58, 127
2, 174960, Note_on_c, 1, 65, 127
2, 174960, Note_on_c, 1, 74, 127
2, 174960, Note_on_c, 1, 77, 127
2, 175320, Note_off_c, 1, 65, 0
2, 175320, Note_off_c, 1, 74, 0
2, 175320, Note_off_c, 1, 77, 0
2, 175360, Note_on_c, 1, 63, 127
2, 175360, Note_on_c, 1, 75, 127
2, 175520, Note_off_c, 1, 63, 0
2, 175560, Note_on_c, 1, 65, 127
2, 175680, Note_off_c, 1, 65, 0
2, 175680, Note_off_c, 1, 75, 0
2, 175760, Note_on_c, 1, 62, 127
2, 175760, Note_on_c, 1, 74, 127
2, 175880, Note_off_c, 1, 62, 0
2, 175920, Note_on_c, 1, 70, 127
2, 176080, Note_off_c, 1, 46, 0
2, 176080, Note_off_c, 1, 58, 0
2, 176080, Note_off_c, 1, 70, 0
2, 176080, Note_off_c, 1, 74, 0
2, 176120, Note_on_c, 1, 46, 127
2, 176120, Note_on_c, 1, 56, 127
2, 176120, Note_on_c, 1, 62, 127
2, 176120, Note_on_c, 1, 72, 127
2, 176440, Note_off_c, 1, 46, 0
2, 176440, Note_off_c, 1, 56, 0
2, 176440, Note_off_c, 1, 62, 0
2, 176440, Note_off_c, 1, 72, 0
2, 176520, Note_on_c, 1, 36, 127
2, 176520, Note_on_c, 1, 48, 127
2, 176520, Note_on_c, 1, 60, 127
2, 176520, Note_on_c, 1, 77, 127
2, 176680, Note_off_c, 1, 60, 0
2, 176680, Note_off_c, 1, 77, 0
2, 176720, Note_on_c, 1, 66, 127
2, 176720, Note_on_c, 1, 74, 127
2, 176840, Note_off_c, 1, 36, 0
2, 176840, Note_off_c, 1, 48, 0
2, 176840, Note_off_c, 1, 66, 0
2, 176840, Note_off_c, 1, 74, 0
2, 176920, Note_on_c, 1, 34, 127
2, 176920, Note_on_c, 1, 46, 127
2, 176920, Note_on_c, 1, 65, 127
2, 176920, Note_on_c, 1, 74, 127
2, 177040, Note_off_c, 1, 65, 0
2, 177080, Note_on_c, 1, 77, 127
2, 177240, Note_off_c, 1, 34, 0
2, 177240, Note_off_c, 1, 46, 0
2, 177240, Note_off_c, 1, 74, 0
2, 177240, Note_off_c, 1, 77, 0
2, 177280, Note_on_c, 1, 46, 127
2, 177280, Note_on_c, 1, 58, 127
2, 177280, Note_on_c, 1, 72, 127
2, 177280, Note_on_c, 1, 74, 127
2, 177440, Note_off_c, 1, 72, 0
2, 177480, Note_on_c, 1, 70, 127
2, 177600, Note_off_c, 1, 70, 0
2, 177640, Note_on_c, 1, 70, 127
2, 177800, Note_off_c, 1, 70, 0
2, 177800, Note_off_c, 1, 74, 0
2, 177840, Note_on_c, 1, 65, 127
2, 178000, Note_off_c, 1, 46, 0
2, 178000, Note_off_c, 1, 58, 0
2, 178000, Note_off_c, 1, 65, 0
2, 178040, Note_on_c, 1, 46, 127
2, 178040, Note_on_c, 1, 58, 127
2, 178040, Note_on_c, 1, 62, 127
2, 178040, Note_on_c, 1, 74, 127
2, 178360, Note_off_c, 1, 46, 0
2, 178360, Note_off_c, 1, 58, 0
2, 178360, Note_off_c, 1, 62, 0
2, 178360, Note_off_c, 1, 74, 0
2, 178440, Note_on_c, 1, 45, 127
2, 178440, Note_on_c, 1, 57, 127
2, 178440, Note_on_c, 1, 65, 127
2, 178440, Note_on_c, 1, 77, 127
2, 178760, Note_off_c, 1, 45, 0
2, 178760, Note_off_c, 1, 57, 0
2, 178760, Note_off_c, 1, 65, 0
2, 178760, Note_off_c, 1, 77, 0
2, 178800, Note_on_c, 1, 46, 127
2, 178800, Note_on_c, 1, 58, 127
2, 178800, Note_on_c, 1, 62, 127
2, 178800, Note_on_c, 1, 77, 127
2, 178960, Note_off_c, 1, 62, 0
2, 179000, Note_on_c, 1, 65, 127
2, 179160, Note_off_c, 1, 46, 0
2, 179160, Note_off_c, 1, 58, 0
2, 179160, Note_off_c, 1, 65, 0
2, 179160, Note_off_c, 1, 77, 0
2, 179200, Note_on_c, 1, 34, 127
2, 179200, Note_on_c, 1, 46, 127
2, 179200, Note_on_c, 1, 58, 127
2, 179200, Note_on_c, 1, 62, 127
2, 179200, Note_on_c, 1, 74, 127
2, 179360, Note_off_c, 1, 74, 0
2, 179400, Note_on_c, 1, 75, 127
2, 179520, Note_off_c, 1, 34, 0
2, 179520, Note_off_c, 1, 46, 0
2, 179520, Note_off_c, 1, 58, 0
2, 179520, Note_off_c, 1, 62, 0
2, 179520, Note_off_c, 1, 75, 0
2, 179600, Note_on_c, 1, 34, 127
2, 179600, Note_on_c, 1, 46, 127
2, 179600, Note_on_c, 1, 50, 127
2, 179600, Note_on_c, 1, 58, 127
2, 179600, Note_on_c, 1, 62, 127
2, 179600, Note_on_c, 1, 65, 127
2, 179600, Note_on_c, 1, 70, 127
2, 179600, Note_on_c, 1, 74, 127
2, 179720, Note_off_c, 1, 62, 0
2, 179720, Note_off_c, 1, 65, 0
2, 179920, Note_off_c, 1, 34, 0
2, 179920, Note_off_c, 1, 46, 0
2, 179920, Note_off_c, 1, 50, 0
2, 179920, Note_off_c, 1, 58, 0
2, 179920, Note_off_c, 1, 70, 0
2, 179920, Note_off_c, 1, 74, 0
2, 180360, Note_on_c, 1, 48, 127
2, 180360, Note_on_c, 1, 50, 127
2, 180360, Note_on_c, 1, 53, 127
2, 180360, Note_on_c, 1, 60, 127
2, 180360, Note_on_c, 1, 65, 127
2, 180360, Note_on_c, 1, 70, 127
2, 180360, Note_on_c, 1, 74, 127
2, 180360, Note_on_c, 1, 77, 127
2, 180560, Note_on_c, 1, 46, 127
2, 180560, Note_off_c, 1, 48, 0
2, 180600, Note_off_c, 1, 46, 0
2, 180600, Note_on_c, 1, 48, 127
2, 180600, Note_off_c, 1, 60, 0
2, 180600, Note_off_c, 1, 65, 0
2, 180600, Note_off_c, 1, 70, 0
2, 180600, Note_off_c, 1, 74, 0
2, 180600, Note_off_c, 1, 77, 0
2, 180640, Note_off_c, 1, 50, 0
2, 180640, Note_on_c, 1, 60, 127
2, 180680, Note_off_c, 1, 53, 0
2, 180680, Note_off_c, 1, 60, 0
2, 180720, Note_off_c, 1, 48, 0
2, 180760, Note_on_c, 1, 46, 127
2, 180760, Note_on_c, 1, 51, 127
2, 180760, Note_on_c, 1, 62, 127
2, 180760, Note_on_c, 1, 70, 127
2, 180760, Note_on_c, 1, 74, 127
2, 180760, Note_on_c, 1, 77, 127
2, 180840, Note_off_c, 1, 62, 0
2, 180840, Note_off_c, 1, 70, 0
2, 180840, Note_off_c, 1, 74, 0
2, 180840, Note_off_c, 1, 77, 0
2, 180960, Note_on_c, 1, 70, 127
2, 180960, Note_on_c, 1, 75, 127
2, 180960, Note_on_c, 1, 79, 127
2, 181080, Note_off_c, 1, 46, 0
2, 181080, Note_off_c, 1, 51, 0
2, 181080, Note_off_c, 1, 70, 0
2, 181080, Note_off_c, 1, 75, 0
2, 181080, Note_off_c, 1, 79, 0
2, 181120, Note_on_c, 1, 58, 127
2, 181120, Note_on_c, 1, 72, 127
2, 181120, Note_on_c, 1, 77, 127
2, 181120, Note_on_c, 1, 82, 127
2, 181200, Note_off_c, 1, 82, 0
2, 181320, Note_on_c, 1, 65, 127
2, 181440, Note_off_c, 1, 65, 0
2, 181440, Note_off_c, 1, 72, 0
2, 181520, Note_on_c, 1, 67, 127
2, 181520, Note_on_c, 1, 70, 127
2, 181520, Note_on_c, 1, 82, 127
2, 181600, Note_off_c, 1, 82, 0
2, 181640, Note_off_c, 1, 67, 0
2, 181640, Note_off_c, 1, 77, 0
2, 181640, Note_on_c, 1, 79, 127
2, 181680, Note_on_c, 1, 77, 127
2, 181680, Note_off_c, 1, 79, 0
2, 181680, Note_on_c, 1, 80, 127
2, 181840, Note_off_c, 1, 70, 0
2, 181840, Note_off_c, 1, 77, 0
2, 181880, Note_on_c, 1, 50, 127
2, 181880, Note_on_c, 1, 69, 127
2, 181880, Note_on_c, 1, 75, 127
2, 181880, Note_off_c, 1, 80, 0
2, 181880, Note_on_c, 1, 82, 127
2, 181920, Note_on_c, 1, 80, 127
2, 181920, Note_off_c, 1, 82, 0
2, 182040, Note_off_c, 1, 69, 0
2, 182040, Note_off_c, 1, 75, 0
2, 182040, Note_off_c, 1, 80, 0
2, 182080, Note_on_c, 1, 53, 127
2, 182080, Note_on_c, 1, 70, 127
2, 182080, Note_on_c, 1, 74, 127
2, 182080, Note_on_c, 1, 77, 127
2, 182200, Note_off_c, 1, 58, 0
2, 182200, Note_off_c, 1, 70, 0
2, 182200, Note_off_c, 1, 74, 0
2, 182200, Note_off_c, 1, 77, 0
2, 182240, Note_on_c, 1, 58, 127
2, 182400, Note_off_c, 1, 50, 0
2, 182400, Note_off_c, 1, 53, 0
2, 182400, Note_off_c, 1, 58, 0
2, 182440, Note_on_c, 1, 54, 127
2, 182640, Note_on_c, 1, 69, 127
2, 182800, Note_off_c, 1, 69, 0
2, 182840, Note_on_c, 1, 57, 127
2, 182840, Note_on_c, 1, 58, 127
2, 182840, Note_on_c, 1, 60, 127
2, 182840, Note_on_c, 1, 72, 127
2, 182880, Note_off_c, 1, 58, 0
2, 183040, Note_on_c, 1, 81, 127
2, 183200, Note_off_c, 1, 81, 0
2, 183240, Note_on_c, 1, 81, 127
2, 183360, Note_off_c, 1, 81, 0
2, 183440, Note_on_c, 1, 77, 127
2, 183560, Note_off_c, 1, 54, 0
2, 183560, Note_off_c, 1, 57, 0
2, 183560, Note_off_c, 1, 60, 0
2, 183560, Note_off_c, 1, 72, 0
2, 183560, Note_off_c, 1, 77, 0
2, 183600, Note_on_c, 1, 79, 127
2, 183760, Note_off_c, 1, 79, 0
2, 183800, Note_on_c, 1, 77, 127
2, 183960, Note_off_c, 1, 77, 0
2, 184000, Note_on_c, 1, 41, 127
2, 184000, Note_on_c, 1, 53, 127
2, 184000, Note_on_c, 1, 62, 127
2, 184000, Note_on_c, 1, 70, 127
2, 184000, Note_on_c, 1, 82, 127
2, 184160, Note_off_c, 1, 82, 0
2, 184200, Note_on_c, 1, 81, 127
2, 184240, Note_off_c, 1, 81, 0
2, 184280, Note_on_c, 1, 79, 127
2, 184320, Note_off_c, 1, 62, 0
2, 184320, Note_off_c, 1, 79, 0
2, 184400, Note_on_c, 1, 63, 127
2, 184400, Note_on_c, 1, 79, 127
2, 184440, Note_off_c, 1, 79, 0
2, 184480, Note_on_c, 1, 77, 127
2, 184520, Note_off_c, 1, 41, 0
2, 184520, Note_off_c, 1, 63, 0
2, 184520, Note_off_c, 1, 70, 0
2, 184520, Note_off_c, 1, 77, 0
2, 184560, Note_on_c, 1, 42, 127
2, 184560, Note_on_c, 1, 62, 127
2, 184560, Note_on_c, 1, 74, 127
2, 184720, Note_off_c, 1, 42, 0
2, 184720, Note_off_c, 1, 53, 0
2, 184720, Note_off_c, 1, 62, 0
2, 184720, Note_off_c, 1, 74, 0
2, 184760, Note_on_c, 1, 40, 127
2, 184760, Note_on_c, 1, 52, 127
2, 184760, Note_on_c, 1, 82, 127
2, 184920, Note_off_c, 1, 40, 0
2, 184960, Note_on_c, 1, 41, 127
2, 184960, Note_on_c, 1, 60, 127
2, 185120, Note_off_c, 1, 41, 0
2, 185120, Note_off_c, 1, 52, 0
2, 185120, Note_off_c, 1, 60, 0
2, 185120, Note_off_c, 1, 82, 0
2, 185160, Note_on_c, 1, 46, 127
2, 185160, Note_on_c, 1, 53, 127
2, 185160, Note_on_c, 1, 62, 127
2, 185160, Note_on_c, 1, 74, 127
2, 185160, Note_on_c, 1, 86, 127
2, 185280, Note_off_c, 1, 46, 0
2, 185280, Note_off_c, 1, 53, 0
2, 185280, Note_off_c, 1, 62, 0
2, 185360, Note_on_c, 1, 41, 127
2, 185360, Note_on_c, 1, 53, 127
2, 185480, Note_off_c, 1, 41, 0
2, 185480, Note_off_c, 1, 53, 0
2, 185480, Note_off_c, 1, 74, 0
2, 185480, Note_off_c, 1, 86, 0
2, 185560, Note_on_c, 1, 39, 127
2, 185560, Note_on_c, 1, 51, 127
2, 185560, Note_on_c, 1, 75, 127
2, 185560, Note_on_c, 1, 81, 127
2, 185560, Note_on_c, 1, 87, 127
2, 185680, Note_off_c, 1, 39, 0
2, 185680, Note_off_c, 1, 51, 0
2, 185720, Note_on_c, 1, 51, 127
2, 185720, Note_on_c, 1, 54, 127
2, 185880, Note_off_c, 1, 51, 0
2, 185880, Note_off_c, 1, 54, 0
2, 185880, Note_off_c, 1, 75, 0
2, 185880, Note_off_c, 1, 81, 0
2, 185880, Note_off_c, 1, 87, 0
2, 185920, Note_on_c, 1, 50, 127
2, 185920, Note_on_c, 1, 53, 127
2, 185920, Note_on_c, 1, 72, 127
2, 185920, Note_on_c, 1, 79, 127
2, 186080, Note_off_c, 1, 72, 0
2, 186080, Note_off_c, 1, 79, 0
2, 186120, Note_on_c, 1, 75, 127
2, 186280, Note_off_c, 1, 50, 0
2, 186280, Note_off_c, 1, 53, 0
2, 186280, Note_off_c, 1, 75, 0
2, 186320, Note_on_c, 1, 51, 127
2, 186320, Note_on_c, 1, 55, 127
2, 186320, Note_on_c, 1, 58, 127
2, 186320, Note_on_c, 1, 77, 127
2, 186320, Note_on_c, 1, 82, 127
2, 186320, Note_on_c, 1, 86, 127
2, 186440, Note_off_c, 1, 77, 0
2, 186440, Note_off_c, 1, 82, 0
2, 186480, Note_off_c, 1, 86, 0
2, 186480, Note_on_c, 1, 89, 127
2, 186600, Note_off_c, 1, 51, 0
2, 186600, Note_off_c, 1, 55, 0
2, 186600, Note_off_c, 1, 58, 0
2, 186640, Note_off_c, 1, 89, 0
2, 186680, Note_on_c, 1, 50, 127
2, 186680, Note_on_c, 1, 77, 127
2, 186680, Note_on_c, 1, 89, 127
2, 186840, Note_off_c, 1, 77, 0
2, 187040, Note_off_c, 1, 50, 0
2, 187040, Note_off_c, 1, 89, 0
2, 187080, Note_on_c, 1, 77, 127
2, 187080, Note_on_c, 1, 89, 127
2, 187800, Note_off_c, 1, 77, 0
2, 187840, Note_on_c, 1, 77, 127
2, 188160, Note_off_c, 1, 77, 0
2, 188160, Note_off_c, 1, 89, 0
2, 188240, Note_on_c, 1, 89, 127
2, 188360, Note_off_c, 1, 89, 0
2, 188400, Note_on_c, 1, 77, 127
2, 188400, Note_on_c, 1, 86, 127
2, 188560, Note_off_c, 1, 86, 0
2, 188600, Note_on_c, 1, 86, 127
2, 189320, Note_off_c, 1, 86, 0
2, 189360, Note_on_c, 1, 89, 127
2, 189520, Note_off_c, 1, 77, 0
2, 189520, Note_off_c, 1, 89, 0
2, 189560, Note_on_c, 1, 76, 127
2, 189560, Note_on_c, 1, 88, 127
2, 189720, Note_off_c, 1, 76, 0
2, 189720, Note_off_c, 1, 88, 0
2, 189760, Note_on_c, 1, 74, 127
2, 189760, Note_on_c, 1, 86, 127
2, 189880, Note_off_c, 1, 74, 0
2, 189880, Note_off_c, 1, 86, 0
2, 189960, Note_on_c, 1, 75, 127
2, 189960, Note_on_c, 1, 87, 127
2, 190080, Note_off_c, 1, 75, 0
2, 190080, Note_off_c, 1, 87, 0
2, 190120, Note_on_c, 1, 74, 127
2, 190120, Note_on_c, 1, 86, 127
2, 190280, Note_off_c, 1, 74, 0
2, 190280, Note_off_c, 1, 86, 0
2, 190320, Note_on_c, 1, 75, 127
2, 190320, Note_on_c, 1, 87, 127
2, 190480, Note_off_c, 1, 75, 0
2, 190480, Note_off_c, 1, 87, 0
2, 190520, Note_on_c, 1, 53, 127
2, 190520, Note_on_c, 1, 58, 127
2, 190520, Note_on_c, 1, 62, 127
2, 190520, Note_on_c, 1, 74, 127
2, 190520, Note_on_c, 1, 86, 127
2, 190840, Note_off_c, 1, 53, 0
2, 190840, Note_off_c, 1, 58, 0
2, 190840, Note_off_c, 1, 62, 0
2, 190840, Note_off_c, 1, 74, 0
2, 190840, Note_off_c, 1, 86, 0
2, 190920, Note_on_c, 1, 54, 127
2, 190920, Note_on_c, 1, 58, 127
2, 190920, Note_on_c, 1, 62, 127
2, 190920, Note_on_c, 1, 77, 127
2, 190920, Note_on_c, 1, 82, 127
2, 191040, Note_off_c, 1, 62, 0
2, 191040, Note_off_c, 1, 77, 0
2, 191120, Note_on_c, 1, 66, 127
2, 191120, Note_on_c, 1, 78, 127
2, 191440, Note_off_c, 1, 78, 0
2, 191440, Note_off_c, 1, 82, 0
2, 191480, Note_off_c, 1, 54, 0
2, 191480, Note_off_c, 1, 58, 0
2, 191640, Note_off_c, 1, 66, 0
2, 191680, Note_on_c, 1, 53, 127
2, 191680, Note_on_c, 1, 59, 127
2, 191680, Note_on_c, 1, 65, 127
2, 191680, Note_on_c, 1, 74, 127
2, 191680, Note_on_c, 1, 86, 127
2, 191840, Note_off_c, 1, 59, 0
2, 191840, Note_off_c, 1, 86, 0
2, 191880, Note_on_c, 1, 87, 127
2, 192040, Note_off_c, 1, 74, 0
2, 192040, Note_off_c, 1, 87, 0
2, 192080, Note_on_c, 1, 87, 127
2, 192200, Note_off_c, 1, 87, 0
2, 192280, Note_on_c, 1, 76, 127
2, 192280, Note_on_c, 1, 80, 127
2, 192360, Note_off_c, 1, 76, 0
2, 192360, Note_on_c, 1, 77, 127
2, 192400, Note_off_c, 1, 53, 0
2, 192400, Note_off_c, 1, 65, 0
2, 192400, Note_off_c, 1, 77, 0
2, 192400, Note_off_c, 1, 80, 0
2, 192440, Note_on_c, 1, 52, 127
2, 192440, Note_on_c, 1, 56, 127
2, 192440, Note_on_c, 1, 59, 127
2, 192440, Note_on_c, 1, 63, 127
2, 192440, Note_on_c, 1, 78, 127
2, 192440, Note_on_c, 1, 87, 127
2, 192440, Note_on_c, 1, 89, 127
2, 192480, Note_off_c, 1, 89, 0
2, 192480, Note_on_c, 1, 90, 127
2, 192560, Note_off_c, 1, 78, 0
2, 192600, Note_off_c, 1, 63, 0
2, 192600, Note_on_c, 1, 89, 127
2, 192600, Note_off_c, 1, 90, 0
2, 192640, Note_on_c, 1, 63, 127
2, 192640, Note_on_c, 1, 78, 127
2, 192640, Note_on_c, 1, 86, 127
2, 192640, Note_off_c, 1, 87, 0
2, 192640, Note_on_c, 1, 91, 127
2, 192680, Note_on_c, 1, 77, 127
2, 192680, Note_off_c, 1, 78, 0
2, 192680, Note_off_c, 1, 91, 0
2, 192760, Note_off_c, 1, 52, 0
2, 192760, Note_off_c, 1, 56, 0
2, 192760, Note_off_c, 1, 59, 0
2, 192760, Note_off_c, 1, 63, 0
2, 192760, Note_off_c, 1, 77, 0
2, 192760, Note_off_c, 1, 86, 0
2, 192760, Note_off_c, 1, 89, 0
2, 192840, Note_on_c, 1, 47, 127
2, 192840, Note_on_c, 1, 59, 127
2, 192840, Note_on_c, 1, 62, 127
2, 192840, Note_on_c, 1, 74, 127
2, 192840, Note_on_c, 1, 86, 127
2, 193000, Note_on_c, 1, 77, 127
2, 193160, Note_off_c, 1, 62, 0
2, 193360, Note_off_c, 1, 74, 0
2, 193360, Note_off_c, 1, 77, 0
2, 193560, Note_off_c, 1, 47, 0
2, 193560, Note_off_c, 1, 59, 0
2, 193560, Note_off_c, 1, 86, 0
2, 193600, Note_on_c, 1, 36, 127
2, 193600, Note_on_c, 1, 48, 127
2, 193600, Note_on_c, 1, 75, 127
2, 193600, Note_on_c, 1, 78, 127
2, 193600, Note_on_c, 1, 84, 127
2, 193920, Note_off_c, 1, 36, 0
2, 193920, Note_off_c, 1, 48, 0
2, 193920, Note_off_c, 1, 75, 0
2, 193920, Note_off_c, 1, 78, 0
2, 193920, Note_off_c, 1, 84, 0
2, 194000, Note_on_c, 1, 37, 127
2, 194000, Note_on_c, 1, 49, 127
2, 194000, Note_on_c, 1, 77, 127
2, 194000, Note_on_c, 1, 81, 127
2, 194000, Note_on_c, 1, 85, 127
2, 194200, Note_on_c, 1, 80, 127
2, 194200, Note_off_c, 1, 81, 0
2, 194200, Note_on_c, 1, 82, 127
2, 194240, Note_off_c, 1, 82, 0
2, 194320, Note_off_c, 1, 37, 0
2, 194320, Note_off_c, 1, 49, 0
2, 194320, Note_off_c, 1, 80, 0
2, 194320, Note_off_c, 1, 85, 0
2, 194360, Note_on_c, 1, 80, 127
2, 194360, Note_on_c, 1, 86, 127
2, 194520, Note_off_c, 1, 86, 0
2, 194760, Note_off_c, 1, 80, 0
2, 194760, Note_on_c, 1, 82, 127
2, 194800, Note_on_c, 1, 80, 127
2, 194800, Note_off_c, 1, 82, 0
2, 195080, Note_off_c, 1, 77, 0
2, 195080, Note_off_c, 1, 80, 0
2, 195160, Note_on_c, 1, 75, 127
2, 195200, Note_off_c, 1, 75, 0
2, 195240, Note_on_c, 1, 73, 127
2, 195280, Note_off_c, 1, 73, 0
2, 195320, Note_on_c, 1, 80, 127
2, 195560, Note_off_c, 1, 80, 0
2, 195720, Note_on_c, 1, 54, 127
2, 195720, Note_on_c, 1, 61, 127
2, 195720, Note_on_c, 1, 66, 127
2, 195720, Note_on_c, 1, 76, 127
2, 196040, Note_off_c, 1, 54, 0
2, 196040, Note_off_c, 1, 61, 0
2, 196120, Note_on_c, 1, 63, 127
2, 196240, Note_off_c, 1, 63, 0
2, 196240, Note_off_c, 1, 66, 0
2, 196240, Note_off_c, 1, 76, 0
2, 196280, Note_on_c, 1, 65, 127
2, 196280, Note_on_c, 1, 68, 127
2, 196280, Note_on_c, 1, 74, 127
2, 196440, Note_off_c, 1, 65, 0
2, 196440, Note_off_c, 1, 68, 0
2, 196440, Note_off_c, 1, 74, 0
2, 196480, Note_on_c, 1, 70, 127
2, 196480, Note_on_c, 1, 73, 127
2, 196880, Note_on_c, 1, 58, 127
2, 196880, Note_on_c, 1, 61, 127
2, 197200, Note_off_c, 1, 58, 0
2, 197200, Note_off_c, 1, 61, 0
2, 197200, Note_off_c, 1, 70, 0
2, 197200, Note_off_c, 1, 73, 0
2, 197240, Note_on_c, 1, 66, 127
2, 197240, Note_on_c, 1, 70, 127
2, 198360, Note_off_c, 1, 66, 0
2, 198360, Note_off_c, 1, 70, 0
2, 198400, Note_on_c, 1, 70, 127
2, 198720, Note_off_c, 1, 70, 0
2, 198760, Note_on_c, 1, 37, 127
2, 198760, Note_on_c, 1, 49, 127
2, 198760, Note_on_c, 1, 65, 127
2, 198760, Note_on_c, 1, 71, 127
2, 198760, Note_on_c, 1, 73, 127
2, 198760, Note_on_c, 1, 83, 127
2, 198920, Note_off_c, 1, 83, 0
2, 198960, Note_on_c, 1, 82, 127
2, 199000, Note_off_c, 1, 82, 0
2, 199040, Note_on_c, 1, 80, 127
2, 199120, Note_off_c, 1, 65, 0
2, 199120, Note_off_c, 1, 71, 0
2, 199120, Note_off_c, 1, 73, 0
2, 199120, Note_off_c, 1, 80, 0
2, 199160, Note_on_c, 1, 61, 127
2, 199160, Note_on_c, 1, 70, 127
2, 199160, Note_on_c, 1, 73, 127
2, 199160, Note_on_c, 1, 82, 127
2, 199520, Note_off_c, 1, 70, 0
2, 199520, Note_off_c, 1, 73, 0
2, 199560, Note_on_c, 1, 71, 127
2, 199560, Note_on_c, 1, 73, 127
2, 199640, Note_on_c, 1, 80, 127
2, 199640, Note_off_c, 1, 82, 0
2, 199680, Note_off_c, 1, 61, 0
2, 199680, Note_off_c, 1, 80, 0
2, 199680, Note_on_c, 1, 82, 127
2, 199720, Note_off_c, 1, 71, 0
2, 199720, Note_off_c, 1, 73, 0
2, 199720, Note_off_c, 1, 82, 0
2, 199720, Note_on_c, 1, 85, 127
2, 199760, Note_on_c, 1, 61, 127
2, 199760, Note_on_c, 1, 70, 127
2, 199760, Note_on_c, 1, 73, 127
2, 199760, Note_on_c, 1, 82, 127
2, 199760, Note_off_c, 1, 85, 0
2, 199800, Note_off_c, 1, 70, 0
2, 199800, Note_off_c, 1, 82, 0
2, 199840, Note_on_c, 1, 70, 127
2, 199840, Note_on_c, 1, 82, 127
2, 199880, Note_off_c, 1, 70, 0
2, 199880, Note_off_c, 1, 73, 0
2, 199880, Note_off_c, 1, 82, 0
2, 199920, Note_on_c, 1, 68, 127
2, 199920, Note_on_c, 1, 71, 127
2, 200040, Note_on_c, 1, 80, 127
2, 200080, Note_off_c, 1, 71, 0
2, 200080, Note_on_c, 1, 78, 127
2, 200080, Note_off_c, 1, 80, 0
2, 200120, Note_on_c, 1, 66, 127
2, 200120, Note_off_c, 1, 68, 0
2, 200120, Note_on_c, 1, 70, 127
2, 200160, Note_off_c, 1, 70, 0
2, 200160, Note_on_c, 1, 77, 127
2, 200160, Note_off_c, 1, 78, 0
2, 200200, Note_off_c, 1, 77, 0
2, 200200, Note_on_c, 1, 78, 127
2, 200240, Note_on_c, 1, 68, 127
2, 200240, Note_on_c, 1, 77, 127
2, 200240, Note_off_c, 1, 78, 0
2, 200280, Note_off_c, 1, 37, 0
2, 200280, Note_off_c, 1, 49, 0
2, 200280, Note_off_c, 1, 61, 0
2, 200280, Note_off_c, 1, 66, 0
2, 200280, Note_off_c, 1, 68, 0
2, 200280, Note_off_c, 1, 77, 0
2, 200320, Note_on_c, 1, 37, 127
2, 200320, Note_on_c, 1, 49, 127
2, 200320, Note_on_c, 1, 66, 127
2, 200320, Note_on_c, 1, 70, 127
2, 200320, Note_on_c, 1, 77, 127
2, 200360, Note_off_c, 1, 70, 0
2, 200520, Note_on_c, 1, 58, 127
2, 200520, Note_on_c, 1, 70, 127
2, 200560, Note_off_c, 1, 58, 0
2, 200560, Note_off_c, 1, 70, 0
2, 200600, Note_on_c, 1, 54, 127
2, 200640, Note_off_c, 1, 37, 0
2, 200640, Note_off_c, 1, 49, 0
2, 200640, Note_off_c, 1, 54, 0
2, 200640, Note_off_c, 1, 66, 0
2, 200640, Note_off_c, 1, 77, 0
2, 200720, Note_on_c, 1, 49, 127
2, 200720, Note_on_c, 1, 54, 127
2, 200720, Note_on_c, 1, 58, 127
2, 200720, Note_on_c, 1, 66, 127
2, 200720, Note_on_c, 1, 70, 127
2, 200760, Note_off_c, 1, 49, 0
2, 201040, Note_off_c, 1, 54, 0
2, 201040, Note_off_c, 1, 58, 0
2, 201040, Note_off_c, 1, 66, 0
2, 201040, Note_off_c, 1, 70, 0
2, 201080, Note_on_c, 1, 56, 127
2, 201080, Note_on_c, 1, 62, 127
2, 201080, Note_on_c, 1, 72, 127
2, 201080, Note_on_c, 1, 80, 127
2, 201080, Note_on_c, 1, 86, 127
2, 201440, Note_off_c, 1, 56, 0
2, 201440, Note_off_c, 1, 62, 0
2, 201440, Note_off_c, 1, 72, 0
2, 201440, Note_off_c, 1, 80, 0
2, 201440, Note_off_c, 1, 86, 0
2, 201840, Note_on_c, 1, 54, 127
2, 201840, Note_on_c, 1, 58, 127
2, 202000, Note_off_c, 1, 54, 0
2, 202000, Note_off_c, 1, 58, 0
2, 202040, Note_on_c, 1, 56, 127
2, 202040, Note_on_c, 1, 59, 127
2, 202200, Note_off_c, 1, 56, 0
2, 202200, Note_off_c, 1, 59, 0
2, 202240, Note_on_c, 1, 53, 127
2, 202240, Note_on_c, 1, 56, 127
2, 202240, Note_on_c, 1, 65, 127
2, 202240, Note_on_c, 1, 74, 127
2, 202400, Note_off_c, 1, 53, 0
2, 202400, Note_off_c, 1, 56, 0
2, 202400, Note_off_c, 1, 65, 0
2, 202400, Note_off_c, 1, 74, 0
2, 202440, Note_on_c, 1, 54, 127
2, 202440, Note_on_c, 1, 58, 127
2, 202440, Note_on_c, 1, 66, 127
2, 202440, Note_on_c, 1, 75, 127
2, 202560, Note_off_c, 1, 54, 0
2, 202560, Note_off_c, 1, 58, 0
2, 202560, Note_off_c, 1, 66, 0
2, 202560, Note_off_c, 1, 75, 0
2, 202640, Note_on_c, 1, 58, 127
2, 202640, Note_on_c, 1, 65, 127
2, 202640, Note_on_c, 1, 73, 127
2, 202760, Note_off_c, 1, 65, 0
2, 202760, Note_off_c, 1, 73, 0
2, 202800, Note_on_c, 1, 66, 127
2, 202800, Note_on_c, 1, 72, 127
2, 202960, Note_off_c, 1, 66, 0
2, 202960, Note_off_c, 1, 72, 0
2, 203000, Note_on_c, 1, 61, 127
2, 203000, Note_on_c, 1, 65, 127
2, 203000, Note_on_c, 1, 70, 127
2, 203160, Note_off_c, 1, 70, 0
2, 203200, Note_on_c, 1, 73, 127
2, 203360, Note_off_c, 1, 58, 0
2, 203360, Note_off_c, 1, 61, 0
2, 203360, Note_off_c, 1, 65, 0
2, 203360, Note_off_c, 1, 73, 0
2, 203400, Note_on_c, 1, 77, 127
2, 203520, Note_off_c, 1, 77, 0
2, 203600, Note_on_c, 1, 75, 127
2, 203720, Note_off_c, 1, 75, 0
2, 203760, Note_on_c, 1, 53, 127
2, 203760, Note_on_c, 1, 58, 127
2, 203760, Note_on_c, 1, 61, 127
2, 203760, Note_on_c, 1, 73, 127
2, 203920, Note_off_c, 1, 73, 0
2, 203960, Note_on_c, 1, 72, 127
2, 204120, Note_off_c, 1, 53, 0
2, 204120, Note_off_c, 1, 58, 0
2, 204120, Note_off_c, 1, 61, 0
2, 204120, Note_off_c, 1, 72, 0
2, 204160, Note_on_c, 1, 70, 127
2, 204280, Note_off_c, 1, 70, 0
2, 204360, Note_on_c, 1, 73, 127
2, 204480, Note_off_c, 1, 73, 0
2, 204520, Note_on_c, 1, 58, 127
2, 204520, Note_on_c, 1, 79, 127
2, 204520, Note_on_c, 1, 82, 127
2, 204680, Note_off_c, 1, 79, 0
2, 204680, Note_off_c, 1, 82, 0
2, 204720, Note_on_c, 1, 77, 127
2, 204720, Note_on_c, 1, 80, 127
2, 204880, Note_off_c, 1, 58, 0
2, 204880, Note_off_c, 1, 77, 0
2, 204880, Note_off_c, 1, 80, 0
2, 204920, Note_on_c, 1, 58, 127
2, 204920, Note_on_c, 1, 75, 127
2, 204920, Note_on_c, 1, 82, 127
2, 205000, Note_off_c, 1, 82, 0
2, 205040, Note_on_c, 1, 80, 127
2, 205080, Note_off_c, 1, 58, 0
2, 205080, Note_off_c, 1, 80, 0
2, 205120, Note_on_c, 1, 60, 127
2, 205120, Note_on_c, 1, 79, 127
2, 205280, Note_off_c, 1, 60, 0
2, 205280, Note_off_c, 1, 79, 0
2, 205320, Note_on_c, 1, 58, 127
2, 205320, Note_on_c, 1, 79, 127
2, 205440, Note_off_c, 1, 58, 0
2, 205440, Note_off_c, 1, 75, 0
2, 205440, Note_off_c, 1, 79, 0
2, 205520, Note_on_c, 1, 53, 127
2, 205520, Note_on_c, 1, 77, 127
2, 205520, Note_on_c, 1, 80, 127
2, 205600, Note_off_c, 1, 77, 0
2, 205600, Note_off_c, 1, 80, 0
2, 205640, Note_off_c, 1, 53, 0
2, 205640, Note_on_c, 1, 79, 127
2, 205680, Note_on_c, 1, 55, 127
2, 205680, Note_on_c, 1, 70, 127
2, 205840, Note_off_c, 1, 55, 0
2, 205880, Note_on_c, 1, 51, 127
2, 206040, Note_off_c, 1, 51, 0
2, 206040, Note_off_c, 1, 70, 0
2, 206080, Note_on_c, 1, 51, 127
2, 206080, Note_on_c, 1, 70, 127
2, 206240, Note_off_c, 1, 51, 0
2, 206240, Note_off_c, 1, 70, 0
2, 206240, Note_off_c, 1, 79, 0
2, 206280, Note_on_c, 1, 53, 127
2, 206280, Note_on_c, 1, 68, 127
2, 206280, Note_on_c, 1, 80, 127
2, 206400, Note_off_c, 1, 53, 0
2, 206400, Note_off_c, 1, 68, 0
2, 206400, Note_off_c, 1, 80, 0
2, 206480, Note_on_c, 1, 55, 127
2, 206480, Note_on_c, 1, 70, 127
2, 206480, Note_on_c, 1, 82, 127
2, 206600, Note_off_c, 1, 55, 0
2, 206600, Note_off_c, 1, 70, 0
2, 206640, Note_on_c, 1, 53, 127
2, 206640, Note_on_c, 1, 72, 127
2, 206800, Note_off_c, 1, 53, 0
2, 206840, Note_on_c, 1, 52, 127
2, 207000, Note_off_c, 1, 52, 0
2, 207040, Note_on_c, 1, 50, 127
2, 207160, Note_off_c, 1, 50, 0
2, 207240, Note_on_c, 1, 46, 127
2, 207360, Note_off_c, 1, 46, 0
2, 207360, Note_off_c, 1, 72, 0
2, 207360, Note_off_c, 1, 82, 0
2, 207400, Note_on_c, 1, 51, 127
2, 207400, Note_on_c, 1, 70, 127
2, 207400, Note_on_c, 1, 82, 127
2, 207560, Note_off_c, 1, 51, 0
2, 207560, Note_off_c, 1, 70, 0
2, 207560, Note_off_c, 1, 82, 0
2, 207600, Note_on_c, 1, 49, 127
2, 207600, Note_on_c, 1, 70, 127
2, 207600, Note_on_c, 1, 80, 127
2, 207760, Note_off_c, 1, 49, 0
2, 207760, Note_off_c, 1, 70, 0
2, 207760, Note_off_c, 1, 80, 0
2, 207800, Note_on_c, 1, 48, 127
2, 207800, Note_on_c, 1, 72, 127
2, 207960, Note_off_c, 1, 48, 0
2, 208000, Note_on_c, 1, 50, 127
2, 208120, Note_off_c, 1, 50, 0
2, 208120, Note_off_c, 1, 72, 0
2, 208200, Note_on_c, 1, 48, 127
2, 208200, Note_on_c, 1, 75, 127
2, 208200, Note_on_c, 1, 82, 127
2, 208320, Note_off_c, 1, 48, 0
2, 208360, Note_on_c, 1, 46, 127
2, 208520, Note_off_c, 1, 46, 0
2, 208520, Note_off_c, 1, 75, 0
2, 208520, Note_off_c, 1, 82, 0
2, 208560, Note_on_c, 1, 48, 127
2, 208560, Note_on_c, 1, 75, 127
2, 208560, Note_on_c, 1, 84, 127
2, 208720, Note_off_c, 1, 48, 0
2, 208760, Note_on_c, 1, 53, 127
2, 208880, Note_off_c, 1, 84, 0
2, 208920, Note_off_c, 1, 53, 0
2, 208920, Note_off_c, 1, 75, 0
2, 208960, Note_on_c, 1, 51, 127
2, 208960, Note_on_c, 1, 77, 127
2, 208960, Note_on_c, 1, 82, 127
2, 209080, Note_off_c, 1, 51, 0
2, 209160, Note_on_c, 1, 50, 127
2, 209280, Note_off_c, 1, 50, 0
2, 209280, Note_off_c, 1, 77, 0
2, 209280, Note_off_c, 1, 82, 0
2, 209320, Note_on_c, 1, 46, 127
2, 209320, Note_on_c, 1, 75, 127
2, 209320, Note_on_c, 1, 82, 127
2, 209480, Note_off_c, 1, 46, 0
2, 209520, Note_on_c, 1, 51, 127
2, 209600, Note_off_c, 1, 51, 0
2, 209680, Note_off_c, 1, 75, 0
2, 209680, Note_off_c, 1, 82, 0
2, 209720, Note_on_c, 1, 50, 127
2, 209720, Note_on_c, 1, 70, 127
2, 209720, Note_on_c, 1, 77, 127
2, 209720, Note_on_c, 1, 82, 127
2, 209880, Note_off_c, 1, 50, 0
2, 209920, Note_on_c, 1, 58, 127
2, 210040, Note_off_c, 1, 58, 0
2, 210040, Note_off_c, 1, 82, 0
2, 210080, Note_on_c, 1, 79, 127
2, 210120, Note_on_c, 1, 56, 127
2, 210120, Note_off_c, 1, 79, 0
2, 210120, Note_on_c, 1, 82, 127
2, 210240, Note_off_c, 1, 56, 0
2, 210280, Note_off_c, 1, 82, 0
2, 210320, Note_on_c, 1, 58, 127
2, 210320, Note_on_c, 1, 81, 127
2, 210440, Note_off_c, 1, 58, 0
2, 210440, Note_off_c, 1, 70, 0
2, 210440, Note_off_c, 1, 77, 0
2, 210440, Note_off_c, 1, 81, 0
2, 210480, Note_on_c, 1, 53, 127
2, 210480, Note_on_c, 1, 70, 127
2, 210480, Note_on_c, 1, 77, 127
2, 210480, Note_on_c, 1, 82, 127
2, 210640, Note_off_c, 1, 53, 0
2, 210640, Note_off_c, 1, 82, 0
2, 210680, Note_on_c, 1, 58, 127
2, 210680, Note_on_c, 1, 82, 127
2, 210840, Note_off_c, 1, 58, 0
2, 210840, Note_off_c, 1, 70, 0
2, 210840, Note_off_c, 1, 77, 0
2, 210840, Note_off_c, 1, 82, 0
2, 210880, Note_on_c, 1, 39, 127
2, 210880, Note_on_c, 1, 51, 127
2, 210880, Note_on_c, 1, 79, 127
2, 210880, Note_on_c, 1, 82, 127
2, 211040, Note_off_c, 1, 51, 0
2, 211080, Note_on_c, 1, 71, 127
2, 211240, Note_off_c, 1, 39, 0
2, 211240, Note_off_c, 1, 71, 0
2, 211240, Note_off_c, 1, 82, 0
2, 211280, Note_on_c, 1, 51, 127
2, 211280, Note_on_c, 1, 70, 127
2, 211280, Note_on_c, 1, 82, 127
2, 211400, Note_off_c, 1, 70, 0
2, 211400, Note_off_c, 1, 82, 0
2, 211480, Note_on_c, 1, 67, 127
2, 211600, Note_off_c, 1, 51, 0
2, 211600, Note_off_c, 1, 67, 0
2, 211600, Note_off_c, 1, 79, 0
2, 211640, Note_on_c, 1, 39, 127
2, 211640, Note_on_c, 1, 51, 127
2, 211640, Note_on_c, 1, 82, 127
2, 211640, Note_on_c, 1, 87, 127
2, 211800, Note_off_c, 1, 51, 0
2, 211800, Note_off_c, 1, 87, 0
2, 211840, Note_on_c, 1, 67, 127
2, 212000, Note_off_c, 1, 39, 0
2, 212000, Note_off_c, 1, 67, 0
2, 212000, Note_off_c, 1, 82, 0
2, 212040, Note_on_c, 1, 41, 127
2, 212040, Note_on_c, 1, 53, 127
2, 212040, Note_on_c, 1, 63, 127
2, 212040, Note_on_c, 1, 77, 127
2, 212040, Note_on_c, 1, 81, 127
2, 212160, Note_off_c, 1, 63, 0
2, 212240, Note_on_c, 1, 70, 127
2, 212360, Note_off_c, 1, 41, 0
2, 212360, Note_off_c, 1, 53, 0
2, 212360, Note_off_c, 1, 70, 0
2, 212360, Note_off_c, 1, 77, 0
2, 212360, Note_off_c, 1, 81, 0
2, 212440, Note_on_c, 1, 50, 127
2, 212440, Note_on_c, 1, 53, 127
2, 212440, Note_on_c, 1, 58, 127
2, 212440, Note_on_c, 1, 75, 127
2, 212440, Note_on_c, 1, 79, 127
2, 212440, Note_on_c, 1, 82, 127
2, 212560, Note_off_c, 1, 75, 0
2, 212560, Note_off_c, 1, 79, 0
2, 212560, Note_on_c, 1, 80, 127
2, 212560, Note_off_c, 1, 82, 0
2, 212600, Note_off_c, 1, 80, 0
2, 212600, Note_on_c, 1, 84, 127
2, 212760, Note_off_c, 1, 50, 0
2, 212760, Note_off_c, 1, 53, 0
2, 212760, Note_off_c, 1, 58, 0
2, 212760, Note_off_c, 1, 84, 0
2, 212800, Note_on_c, 1, 51, 127
2, 212800, Note_on_c, 1, 63, 127
2, 212800, Note_on_c, 1, 87, 127
2, 213160, Note_off_c, 1, 51, 0
2, 213160, Note_off_c, 1, 63, 0
2, 213160, Note_off_c, 1, 87, 0
2, 213200, Note_on_c, 1, 51, 127
2, 213200, Note_on_c, 1, 63, 127
2, 213200, Note_on_c, 1, 87, 127
2, 213360, Note_off_c, 1, 87, 0
2, 213400, Note_on_c, 1, 86, 127
2, 213520, Note_off_c, 1, 51, 0
2, 213520, Note_off_c, 1, 63, 0
2, 213520, Note_off_c, 1, 86, 0
2, 213600, Note_on_c, 1, 53, 127
2, 213600, Note_on_c, 1, 63, 127
2, 213600, Note_on_c, 1, 72, 127
2, 213600, Note_on_c, 1, 84, 127
2, 213720, Note_off_c, 1, 84, 0
2, 213760, Note_on_c, 1, 82, 127
2, 213880, Note_off_c, 1, 63, 0
2, 213920, Note_off_c, 1, 53, 0
2, 213920, Note_off_c, 1, 72, 0
2, 213920, Note_off_c, 1, 82, 0
2, 213960, Note_on_c, 1, 41, 127
2, 213960, Note_on_c, 1, 53, 127
2, 213960, Note_on_c, 1, 62, 127
2, 213960, Note_on_c, 1, 77, 127
2, 213960, Note_on_c, 1, 81, 127
2, 214120, Note_off_c, 1, 62, 0
2, 214120, Note_off_c, 1, 81, 0
2, 214200, Note_off_c, 1, 77, 0
2, 214200, Note_on_c, 1, 80, 127
2, 214320, Note_off_c, 1, 41, 0
2, 214320, Note_off_c, 1, 53, 0
2, 214320, Note_off_c, 1, 80, 0
2, 214360, Note_on_c, 1, 46, 127
2, 214360, Note_on_c, 1, 58, 127
2, 214360, Note_on_c, 1, 70, 127
2, 214360, Note_on_c, 1, 82, 127
2, 214640, Note_off_c, 1, 70, 0
2, 214680, Note_off_c, 1, 58, 0
2, 214680, Note_off_c, 1, 82, 0
2, 214760, Note_on_c, 1, 34, 127
2, 214760, Note_on_c, 1, 45, 127
2, 214760, Note_off_c, 1, 46, 0
2, 214760, Note_on_c, 1, 70, 127
2, 214760, Note_on_c, 1, 77, 127
2, 214760, Note_on_c, 1, 82, 127
2, 215000, Note_off_c, 1, 45, 0
2, 215000, Note_on_c, 1, 46, 127
2, 215080, Note_off_c, 1, 34, 0
2, 215080, Note_off_c, 1, 46, 0
2, 215080, Note_off_c, 1, 70, 0
2, 215080, Note_off_c, 1, 77, 0
2, 215080, Note_off_c, 1, 82, 0
2, 215120, Note_on_c, 1, 34, 127
2, 215120, Note_on_c, 1, 46, 127
2, 215120, Note_on_c, 1, 58, 127
2, 215120, Note_on_c, 1, 62, 127
2, 215120, Note_on_c, 1, 65, 127
2, 215120, Note_on_c, 1, 77, 127
2, 215280, Note_off_c, 1, 34, 0
2, 215280, Note_off_c, 1, 46, 0
2, 215400, Note_on_c, 1, 34, 127
2, 215440, Note_off_c, 1, 34, 0
2, 215440, Note_off_c, 1, 77, 0
2, 215520, Note_on_c, 1, 34, 127
2, 215520, Note_on_c, 1, 45, 127
2, 215520, Note_off_c, 1, 58, 0
2, 215520, Note_on_c, 1, 74, 127
2, 215720, Note_off_c, 1, 34, 0
2, 215720, Note_off_c, 1, 45, 0
2, 215720, Note_on_c, 1, 60, 127
2, 215720, Note_off_c, 1, 62, 0
2, 215800, Note_off_c, 1, 60, 0
2, 215800, Note_on_c, 1, 62, 127
2, 215880, Note_on_c, 1, 46, 127
2, 215880, Note_on_c, 1, 58, 127
2, 216080, Note_off_c, 1, 58, 0
2, 216160, Note_on_c, 1, 50, 127
2, 216240, Note_off_c, 1, 46, 0
2, 216240, Note_off_c, 1, 50, 0
2, 216280, Note_on_c, 1, 47, 127
2, 216280, Note_on_c, 1, 55, 127
2, 216280, Note_on_c, 1, 68, 127
2, 217000, Note_off_c, 1, 47, 0
2, 217000, Note_off_c, 1, 55, 0
2, 217000, Note_off_c, 1, 62, 0
2, 217000, Note_off_c, 1, 65, 0
2, 217000, Note_off_c, 1, 68, 0
2, 217000, Note_off_c, 1, 74, 0
2, 217040, Note_on_c, 1, 75, 127
2, 217200, Note_off_c, 1, 75, 0
2, 217240, Note_on_c, 1, 74, 127
2, 217400, Note_off_c, 1, 74, 0
2, 217440, Note_on_c, 1, 75, 127
2, 217480, Note_off_c, 1, 75, 0
2, 217520, Note_on_c, 1, 74, 127
2, 217560, Note_off_c, 1, 74, 0
2, 217640, Note_on_c, 1, 72, 127
2, 217680, Note_off_c, 1, 72, 0
2, 217720, Note_on_c, 1, 70, 127
2, 217760, Note_off_c, 1, 70, 0
2, 217800, Note_on_c, 1, 41, 127
2, 217800, Note_on_c, 1, 50, 127
2, 217800, Note_on_c, 1, 53, 127
2, 217800, Note_on_c, 1, 62, 127
2, 217800, Note_on_c, 1, 65, 127
2, 217800, Note_on_c, 1, 68, 127
2, 218000, Note_off_c, 1, 62, 0
2, 218160, Note_off_c, 1, 41, 0
2, 218160, Note_off_c, 1, 50, 0
2, 218160, Note_off_c, 1, 53, 0
2, 218160, Note_off_c, 1, 65, 0
2, 218160, Note_off_c, 1, 68, 0
2, 218200, Note_on_c, 1, 39, 127
2, 218200, Note_on_c, 1, 51, 127
2, 218200, Note_on_c, 1, 63, 127
2, 218200, Note_on_c, 1, 67, 127
2, 218200, Note_on_c, 1, 70, 127
2, 218520, Note_off_c, 1, 39, 0
2, 218520, Note_off_c, 1, 51, 0
2, 218520, Note_off_c, 1, 63, 0
2, 218520, Note_off_c, 1, 67, 0
2, 218520, Note_off_c, 1, 70, 0
2, 218600, Note_on_c, 1, 38, 127
2, 218600, Note_on_c, 1, 50, 127
2, 218920, Note_off_c, 1, 38, 0
2, 218920, Note_off_c, 1, 50, 0
2, 218960, Note_on_c, 1, 43, 127
2, 218960, Note_on_c, 1, 50, 127
2, 218960, Note_on_c, 1, 62, 127
2, 218960, Note_on_c, 1, 70, 127
2, 219320, Note_off_c, 1, 43, 0
2, 219320, Note_off_c, 1, 50, 0
2, 219320, Note_off_c, 1, 62, 0
2, 219320, Note_off_c, 1, 70, 0
2, 219360, Note_on_c, 1, 39, 127
2, 219360, Note_on_c, 1, 51, 127
2, 219360, Note_on_c, 1, 67, 127
2, 219360, Note_on_c, 1, 70, 127
2, 219360, Note_on_c, 1, 75, 127
2, 219680, Note_off_c, 1, 67, 0
2, 219680, Note_off_c, 1, 70, 0
2, 220080, Note_off_c, 1, 39, 0
2, 220080, Note_off_c, 1, 51, 0
2, 220080, Note_off_c, 1, 75, 0
2, 220120, Note_on_c, 1, 39, 127
2, 220120, Note_on_c, 1, 51, 127
2, 220120, Note_on_c, 1, 75, 127
2, 220120, Note_on_c, 1, 79, 127
2, 220440, Note_off_c, 1, 39, 0
2, 220440, Note_off_c, 1, 51, 0
2, 220440, Note_off_c, 1, 75, 0
2, 220440, Note_off_c, 1, 79, 0
2, 220520, Note_on_c, 1, 39, 127
2, 220520, Note_on_c, 1, 51, 127
2, 220520, Note_on_c, 1, 75, 127
2, 220520, Note_on_c, 1, 79, 127
2, 220640, Note_off_c, 1, 51, 0
2, 220840, Note_off_c, 1, 39, 0
2, 220880, Note_on_c, 1, 44, 127
2, 221040, Note_off_c, 1, 44, 0
2, 221040, Note_off_c, 1, 75, 0
2, 221080, Note_on_c, 1, 46, 127
2, 221240, Note_off_c, 1, 46, 0
2, 221280, Note_on_c, 1, 36, 127
2, 221280, Note_on_c, 1, 48, 127
2, 221280, Note_on_c, 1, 76, 127
2, 221280, Note_on_c, 1, 81, 127
2, 221440, Note_off_c, 1, 36, 0
2, 221480, Note_on_c, 1, 36, 127
2, 221480, Note_off_c, 1, 48, 0
2, 221480, Note_off_c, 1, 76, 0
2, 221480, Note_off_c, 1, 79, 0
2, 221480, Note_off_c, 1, 81, 0
2, 221520, End_track
3, 0, Start_track
3, 0, Title_t, "MIDI"
3, 1536, End_track
0, 0, End_of_file
