0, 0, Header, 1, 3, 384
1, 0, Start_track
1, 0, Time_signature, 4, 2, 24, 8
1, 0, Tempo, 500000
1, 213560, End_track
2, 0, Start_track
2, 0, Text_t, "harpsichord: John Sankey"
2, 0, Title_t, "Track 1"
2, 0, Note_on_c, 1, 56, 127
2, 0, Note_on_c, 1, 64, 127
2, 0, Note_on_c, 1, 71, 127
2, 0, Note_on_c, 1, 77, 127
2, 0, Note_on_c, 1, 80, 127
2, 120, Note_on_c, 1, 59, 127
2, 160, Note_off_c, 1, 56, 0
2, 160, Note_off_c, 1, 59, 0
2, 160, Note_off_c, 1, 64, 0
2, 160, Note_off_c, 1, 77, 0
2, 160, Note_off_c, 1, 80, 0
2, 200, Note_on_c, 1, 53, 127
2, 200, Note_on_c, 1, 65, 127
2, 200, Note_on_c, 1, 83, 127
2, 320, Note_on_c, 1, 77, 127
2, 360, Note_off_c, 1, 53, 0
2, 360, Note_off_c, 1, 77, 0
2, 400, Note_on_c, 1, 56, 127
2, 400, Note_on_c, 1, 75, 127
2, 520, Note_off_c, 1, 65, 0
2, 560, Note_off_c, 1, 75, 0
2, 600, Note_on_c, 1, 65, 127
2, 600, Note_on_c, 1, 80, 127
2, 720, Note_off_c, 1, 56, 0
2, 760, Note_on_c, 1, 56, 127
2, 920, Note_off_c, 1, 56, 0
2, 920, Note_off_c, 1, 65, 0
2, 920, Note_off_c, 1, 83, 0
2, 960, Note_on_c, 1, 53, 127
2, 960, Note_on_c, 1, 65, 127
2, 960, Note_on_c, 1, 83, 127
2, 1120, Note_off_c, 1, 65, 0
2, 1160, Note_on_c, 1, 65, 127
2, 1240, Note_off_c, 1, 53, 0
2, 1240, Note_off_c, 1, 65, 0
2, 1240, Note_off_c, 1, 80, 0
2, 1320, Note_on_c, 1, 53, 127
2, 1320, Note_on_c, 1, 61, 127
2, 1320, Note_on_c, 1, 73, 127
2, 1600, Note_off_c, 1, 53, 0
2, 1600, Note_off_c, 1, 61, 0
2, 1600, Note_off_c, 1, 71, 0
2, 1600, Note_off_c, 1, 73, 0
2, 1640, Note_on_c, 1, 53, 127
2, 1640, Note_on_c, 1, 61, 127
2, 1640, Note_on_c, 1, 71, 127
2, 1640, Note_on_c, 1, 73, 127
2, 1800, Note_off_c, 1, 73, 0
2, 1840, Note_on_c, 1, 77, 127
2, 2040, Note_on_c, 1, 68, 127
2, 2360, Note_off_c, 1, 53, 0
2, 2360, Note_off_c, 1, 61, 0
2, 2360, Note_off_c, 1, 68, 0
2, 2360, Note_off_c, 1, 71, 0
2, 2360, Note_off_c, 1, 77, 0
2, 2360, Note_off_c, 1, 83, 0
2, 2400, Note_on_c, 1, 54, 127
2, 2400, Note_on_c, 1, 61, 127
2, 2400, Note_on_c, 1, 66, 127
2, 2400, Note_on_c, 1, 73, 127
2, 2400, Note_on_c, 1, 82, 127
2, 2600, Note_on_c, 1, 78, 127
2, 2760, Note_off_c, 1, 73, 0
2, 2760, Note_off_c, 1, 82, 0
2, 2800, Note_on_c, 1, 82, 127
2, 3120, Note_off_c, 1, 54, 0
2, 3120, Note_off_c, 1, 61, 0
2, 3120, Note_off_c, 1, 78, 0
2, 3200, Note_off_c, 1, 66, 0
2, 3200, Note_on_c, 1, 68, 127
2, 3320, Note_off_c, 1, 68, 0
2, 3360, Note_on_c, 1, 77, 127
2, 3480, Note_off_c, 1, 77, 0
2, 3480, Note_on_c, 1, 78, 127
2, 3480, Note_off_c, 1, 82, 0
2, 3520, Note_off_c, 1, 78, 0
2, 3560, Note_on_c, 1, 78, 127
2, 3560, Note_on_c, 1, 87, 127
2, 4080, Note_off_c, 1, 78, 0
2, 4080, Note_off_c, 1, 87, 0
2, 4160, Note_on_c, 1, 73, 127
2, 4160, Note_on_c, 1, 85, 127
2, 4280, Note_off_c, 1, 73, 0
2, 4280, Note_off_c, 1, 85, 0
2, 4320, Note_on_c, 1, 71, 127
2, 4320, Note_on_c, 1, 83, 127
2, 4480, Note_off_c, 1, 71, 0
2, 4480, Note_off_c, 1, 83, 0
2, 4520, Note_on_c, 1, 70, 127
2, 4520, Note_on_c, 1, 85, 127
2, 4680, Note_off_c, 1, 70, 0
2, 4680, Note_off_c, 1, 85, 0
2, 4720, Note_on_c, 1, 66, 127
2, 4720, Note_on_c, 1, 82, 127
2, 4880, Note_off_c, 1, 66, 0
2, 4880, Note_off_c, 1, 82, 0
2, 4920, Note_on_c, 1, 63, 127
2, 4920, Note_on_c, 1, 80, 127
2, 5080, Note_off_c, 1, 63, 0
2, 5080, Note_off_c, 1, 80, 0
2, 5120, Note_on_c, 1, 61, 127
2, 5120, Note_on_c, 1, 78, 127
2, 5160, Note_off_c, 1, 78, 0
2, 5200, Note_on_c, 1, 77, 127
2, 5240, Note_off_c, 1, 77, 0
2, 5240, Note_on_c, 1, 78, 127
2, 5280, Note_off_c, 1, 61, 0
2, 5280, Note_off_c, 1, 78, 0
2, 5320, Note_on_c, 1, 61, 127
2, 5320, Note_on_c, 1, 77, 127
2, 5360, Note_off_c, 1, 77, 0
2, 5400, Note_on_c, 1, 75, 127
2, 5440, Note_off_c, 1, 61, 0
2, 5440, Note_off_c, 1, 75, 0
2, 5520, Note_on_c, 1, 59, 127
2, 5520, Note_on_c, 1, 80, 127
2, 5560, Note_off_c, 1, 80, 0
2, 5600, Note_on_c, 1, 78, 127
2, 5640, Note_off_c, 1, 59, 0
2, 5640, Note_off_c, 1, 78, 0
2, 5680, Note_on_c, 1, 58, 127
2, 5680, Note_on_c, 1, 77, 127
2, 5840, Note_off_c, 1, 58, 0
2, 5880, Note_on_c, 1, 60, 127
2, 6040, Note_off_c, 1, 60, 0
2, 6040, Note_off_c, 1, 77, 0
2, 6080, Note_on_c, 1, 65, 127
2, 6080, Note_on_c, 1, 78, 127
2, 6200, Note_off_c, 1, 65, 0
2, 6200, Note_off_c, 1, 78, 0
2, 6280, Note_on_c, 1, 61, 127
2, 6280, Note_on_c, 1, 77, 127
2, 6400, Note_off_c, 1, 61, 0
2, 6400, Note_off_c, 1, 77, 0
2, 6440, Note_on_c, 1, 59, 127
2, 6440, Note_on_c, 1, 78, 127
2, 6600, Note_off_c, 1, 59, 0
2, 6640, Note_on_c, 1, 61, 127
2, 6800, Note_off_c, 1, 61, 0
2, 6800, Note_off_c, 1, 78, 0
2, 6840, Note_on_c, 1, 68, 127
2, 6840, Note_on_c, 1, 77, 127
2, 7000, Note_off_c, 1, 68, 0
2, 7000, Note_off_c, 1, 77, 0
2, 7040, Note_on_c, 1, 63, 127
2, 7040, Note_on_c, 1, 75, 127
2, 7200, Note_off_c, 1, 63, 0
2, 7200, Note_off_c, 1, 75, 0
2, 7240, Note_on_c, 1, 68, 127
2, 7240, Note_on_c, 1, 82, 127
2, 7360, Note_off_c, 1, 68, 0
2, 7440, Note_on_c, 1, 66, 127
2, 7560, Note_off_c, 1, 66, 0
2, 7560, Note_off_c, 1, 82, 0
2, 7600, Note_on_c, 1, 63, 127
2, 7600, Note_on_c, 1, 78, 127
2, 7760, Note_off_c, 1, 63, 0
2, 7800, Note_on_c, 1, 66, 127
2, 7960, Note_off_c, 1, 66, 0
2, 7960, Note_off_c, 1, 78, 0
2, 8000, Note_on_c, 1, 65, 127
2, 8000, Note_on_c, 1, 68, 127
2, 8000, Note_on_c, 1, 77, 127
2, 8160, Note_off_c, 1, 65, 0
2, 8240, Note_on_c, 1, 61, 127
2, 8360, Note_off_c, 1, 61, 0
2, 8360, Note_off_c, 1, 68, 0
2, 8400, Note_on_c, 1, 66, 127
2, 8400, Note_on_c, 1, 70, 127
2, 8520, Note_off_c, 1, 66, 0
2, 8520, Note_off_c, 1, 70, 0
2, 8520, Note_off_c, 1, 77, 0
2, 8600, Note_on_c, 1, 68, 127
2, 8600, Note_on_c, 1, 72, 127
2, 8600, Note_on_c, 1, 78, 127
2, 8720, Note_off_c, 1, 68, 0
2, 8720, Note_off_c, 1, 72, 0
2, 8720, Note_off_c, 1, 78, 0
2, 8760, Note_on_c, 1, 70, 127
2, 8760, Note_on_c, 1, 73, 127
2, 8760, Note_on_c, 1, 78, 127
2, 9120, Note_off_c, 1, 70, 0
2, 9120, Note_off_c, 1, 73, 0
2, 9160, Note_on_c, 1, 68, 127
2, 9160, Note_on_c, 1, 72, 127
2, 9320, Note_off_c, 1, 72, 0
2, 9360, Note_on_c, 1, 70, 127
2, 9520, Note_off_c, 1, 68, 0
2, 9520, Note_off_c, 1, 70, 0
2, 9520, Note_off_c, 1, 78, 0
2, 9560, Note_on_c, 1, 66, 127
2, 9560, Note_on_c, 1, 78, 127
2, 9720, Note_off_c, 1, 66, 0
2, 9760, Note_on_c, 1, 72, 127
2, 9880, Note_off_c, 1, 72, 0
2, 9880, Note_on_c, 1, 75, 127
2, 9880, Note_off_c, 1, 78, 0
2, 9920, Note_off_c, 1, 75, 0
2, 9960, Note_on_c, 1, 53, 127
2, 9960, Note_on_c, 1, 68, 127
2, 9960, Note_on_c, 1, 73, 127
2, 10080, Note_off_c, 1, 73, 0
2, 10120, Note_on_c, 1, 72, 127
2, 10280, Note_off_c, 1, 53, 0
2, 10280, Note_off_c, 1, 72, 0
2, 10320, Note_on_c, 1, 54, 127
2, 10320, Note_on_c, 1, 70, 127
2, 10480, Note_off_c, 1, 68, 0
2, 10480, Note_off_c, 1, 70, 0
2, 10520, Note_on_c, 1, 65, 127
2, 10520, Note_on_c, 1, 68, 127
2, 10680, Note_off_c, 1, 54, 0
2, 10680, Note_off_c, 1, 65, 0
2, 10680, Note_off_c, 1, 68, 0
2, 10720, Note_on_c, 1, 53, 127
2, 10720, Note_on_c, 1, 71, 127
2, 10920, Note_on_c, 1, 61, 127
2, 11080, Note_off_c, 1, 53, 0
2, 11080, Note_off_c, 1, 61, 0
2, 11080, Note_off_c, 1, 71, 0
2, 11120, Note_on_c, 1, 54, 127
2, 11120, Note_on_c, 1, 70, 127
2, 11320, Note_off_c, 1, 70, 0
2, 11320, Note_on_c, 1, 71, 127
2, 11320, Note_on_c, 1, 73, 127
2, 11640, Note_off_c, 1, 73, 0
2, 11680, Note_on_c, 1, 70, 127
2, 11840, Note_off_c, 1, 54, 0
2, 11840, Note_off_c, 1, 71, 0
2, 11880, Note_on_c, 1, 53, 127
2, 11880, Note_on_c, 1, 73, 127
2, 12040, Note_off_c, 1, 70, 0
2, 12080, Note_on_c, 1, 68, 127
2, 12200, Note_off_c, 1, 68, 0
2, 12240, Note_off_c, 1, 53, 0
2, 12280, Note_on_c, 1, 51, 127
2, 12280, Note_on_c, 1, 66, 127
2, 12400, Note_off_c, 1, 73, 0
2, 12440, Note_on_c, 1, 75, 127
2, 12600, Note_off_c, 1, 51, 0
2, 12600, Note_off_c, 1, 66, 0
2, 12640, Note_on_c, 1, 49, 127
2, 12640, Note_on_c, 1, 65, 127
2, 12760, Note_off_c, 1, 75, 0
2, 12840, Note_on_c, 1, 75, 127
2, 12960, Note_off_c, 1, 49, 0
2, 13040, Note_on_c, 1, 54, 127
2, 13160, Note_off_c, 1, 75, 0
2, 13240, Note_on_c, 1, 68, 127
2, 13360, Note_off_c, 1, 54, 0
2, 13360, Note_off_c, 1, 68, 0
2, 13400, Note_on_c, 1, 57, 127
2, 13400, Note_on_c, 1, 66, 127
2, 13560, Note_off_c, 1, 57, 0
2, 13600, Note_on_c, 1, 56, 127
2, 13760, Note_off_c, 1, 56, 0
2, 13800, Note_on_c, 1, 54, 127
2, 13960, Note_off_c, 1, 54, 0
2, 14000, Note_on_c, 1, 51, 127
2, 14120, Note_off_c, 1, 51, 0
2, 14200, Note_on_c, 1, 47, 127
2, 14520, Note_off_c, 1, 47, 0
2, 14560, Note_on_c, 1, 44, 127
2, 14560, Note_on_c, 1, 63, 127
2, 14560, Note_off_c, 1, 66, 0
2, 14880, Note_off_c, 1, 44, 0
2, 14920, Note_on_c, 1, 43, 127
2, 15080, Note_off_c, 1, 65, 0
2, 15120, Note_on_c, 1, 66, 127
2, 15280, Note_off_c, 1, 43, 0
2, 15280, Note_off_c, 1, 63, 0
2, 15280, Note_off_c, 1, 66, 0
2, 15320, Note_on_c, 1, 44, 127
2, 15320, Note_on_c, 1, 65, 127
2, 15320, Note_on_c, 1, 68, 127
2, 15480, Note_off_c, 1, 68, 0
2, 15520, Note_on_c, 1, 73, 127
2, 15640, Note_off_c, 1, 44, 0
2, 15680, Note_off_c, 1, 73, 0
2, 15720, Note_on_c, 1, 41, 127
2, 15720, Note_on_c, 1, 71, 127
2, 15840, Note_off_c, 1, 71, 0
2, 15880, Note_on_c, 1, 68, 127
2, 16040, Note_off_c, 1, 41, 0
2, 16040, Note_off_c, 1, 65, 0
2, 16040, Note_off_c, 1, 68, 0
2, 16080, Note_on_c, 1, 49, 127
2, 16080, Note_on_c, 1, 61, 127
2, 16080, Note_on_c, 1, 65, 127
2, 16240, Note_off_c, 1, 65, 0
2, 16280, Note_on_c, 1, 66, 127
2, 16440, Note_off_c, 1, 49, 0
2, 16440, Note_off_c, 1, 61, 0
2, 16440, Note_off_c, 1, 66, 0
2, 16480, Note_on_c, 1, 48, 127
2, 16480, Note_on_c, 1, 56, 127
2, 16480, Note_on_c, 1, 68, 127
2, 16640, Note_off_c, 1, 68, 0
2, 16680, Note_on_c, 1, 71, 127
2, 16840, Note_off_c, 1, 48, 0
2, 16840, Note_off_c, 1, 71, 0
2, 16880, Note_on_c, 1, 50, 127
2, 16880, Note_on_c, 1, 65, 127
2, 17040, Note_off_c, 1, 65, 0
2, 17080, Note_on_c, 1, 71, 127
2, 17200, Note_off_c, 1, 71, 0
2, 17240, Note_on_c, 1, 68, 127
2, 17400, Note_off_c, 1, 56, 0
2, 17400, Note_off_c, 1, 68, 0
2, 17440, Note_on_c, 1, 54, 127
2, 17440, Note_on_c, 1, 70, 127
2, 17600, Note_off_c, 1, 50, 0
2, 17600, Note_off_c, 1, 54, 0
2, 17600, Note_off_c, 1, 70, 0
2, 17640, Note_on_c, 1, 51, 127
2, 17640, Note_on_c, 1, 55, 127
2, 17640, Note_on_c, 1, 70, 127
2, 17800, Note_off_c, 1, 55, 0
2, 17800, Note_off_c, 1, 70, 0
2, 17840, Note_on_c, 1, 54, 127
2, 17840, Note_on_c, 1, 71, 127
2, 18000, Note_off_c, 1, 54, 0
2, 18040, Note_on_c, 1, 54, 127
2, 18200, Note_off_c, 1, 54, 0
2, 18240, Note_on_c, 1, 56, 127
2, 18360, Note_off_c, 1, 56, 0
2, 18400, Note_off_c, 1, 51, 0
2, 18440, Note_on_c, 1, 50, 127
2, 18440, Note_on_c, 1, 58, 127
2, 18560, Note_off_c, 1, 58, 0
2, 18640, Note_on_c, 1, 56, 127
2, 18760, Note_off_c, 1, 50, 0
2, 18760, Note_off_c, 1, 56, 0
2, 18760, Note_off_c, 1, 71, 0
2, 18800, Note_on_c, 1, 51, 127
2, 18800, Note_on_c, 1, 67, 127
2, 18960, Note_off_c, 1, 51, 0
2, 19000, Note_on_c, 1, 50, 127
2, 19000, Note_on_c, 1, 60, 127
2, 19160, Note_off_c, 1, 50, 0
2, 19160, Note_off_c, 1, 60, 0
2, 19200, Note_on_c, 1, 48, 127
2, 19200, Note_on_c, 1, 64, 127
2, 19520, Note_off_c, 1, 64, 0
2, 19520, Note_off_c, 1, 67, 0
2, 19600, Note_on_c, 1, 63, 127
2, 19600, Note_on_c, 1, 67, 127
2, 19720, Note_off_c, 1, 67, 0
2, 19760, Note_on_c, 1, 66, 127
2, 19920, Note_off_c, 1, 48, 0
2, 19920, Note_off_c, 1, 63, 0
2, 19920, Note_off_c, 1, 66, 0
2, 19960, Note_on_c, 1, 48, 127
2, 19960, Note_on_c, 1, 66, 127
2, 19960, Note_on_c, 1, 68, 127
2, 20120, Note_off_c, 1, 66, 0
2, 20160, Note_on_c, 1, 63, 127
2, 20320, Note_off_c, 1, 48, 0
2, 20320, Note_off_c, 1, 63, 0
2, 20360, Note_on_c, 1, 46, 127
2, 20360, Note_on_c, 1, 61, 127
2, 20520, Note_off_c, 1, 61, 0
2, 20560, Note_on_c, 1, 60, 127
2, 20720, Note_off_c, 1, 46, 0
2, 20720, Note_off_c, 1, 60, 0
2, 20760, Note_on_c, 1, 44, 127
2, 20760, Note_on_c, 1, 61, 127
2, 20920, Note_off_c, 1, 61, 0
2, 20960, Note_on_c, 1, 63, 127
2, 21120, Note_off_c, 1, 44, 0
2, 21120, Note_off_c, 1, 63, 0
2, 21160, Note_on_c, 1, 47, 127
2, 21160, Note_on_c, 1, 63, 127
2, 21280, Note_off_c, 1, 63, 0
2, 21360, Note_on_c, 1, 63, 127
2, 21480, Note_off_c, 1, 47, 0
2, 21480, Note_off_c, 1, 68, 0
2, 21520, Note_on_c, 1, 51, 127
2, 21520, Note_on_c, 1, 71, 127
2, 21680, Note_off_c, 1, 63, 0
2, 21720, Note_on_c, 1, 61, 127
2, 21880, Note_off_c, 1, 51, 0
2, 21880, Note_off_c, 1, 61, 0
2, 21920, Note_on_c, 1, 49, 127
2, 21920, Note_on_c, 1, 65, 127
2, 22080, Note_off_c, 1, 65, 0
2, 22120, Note_on_c, 1, 63, 127
2, 22280, Note_off_c, 1, 49, 0
2, 22280, Note_off_c, 1, 63, 0
2, 22320, Note_on_c, 1, 42, 127
2, 22320, Note_on_c, 1, 65, 127
2, 22480, Note_off_c, 1, 65, 0
2, 22520, Note_on_c, 1, 66, 127
2, 22640, Note_off_c, 1, 42, 0
2, 22640, Note_off_c, 1, 66, 0
2, 22640, Note_off_c, 1, 71, 0
2, 22720, Note_on_c, 1, 63, 127
2, 22840, Note_off_c, 1, 63, 0
2, 22880, Note_on_c, 1, 65, 127
2, 23040, Note_off_c, 1, 65, 0
2, 23080, Note_on_c, 1, 46, 127
2, 23080, Note_on_c, 1, 55, 127
2, 23080, Note_on_c, 1, 61, 127
2, 23080, Note_on_c, 1, 73, 127
2, 23240, Note_off_c, 1, 46, 0
2, 23240, Note_off_c, 1, 55, 0
2, 23440, Note_off_c, 1, 61, 0
2, 23440, Note_off_c, 1, 73, 0
2, 23480, Note_on_c, 1, 58, 127
2, 23480, Note_on_c, 1, 61, 127
2, 23680, Note_on_c, 1, 70, 127
2, 23800, Note_off_c, 1, 58, 0
2, 23800, Note_off_c, 1, 61, 0
2, 23800, Note_off_c, 1, 70, 0
2, 23840, Note_on_c, 1, 49, 127
2, 23840, Note_on_c, 1, 53, 127
2, 23840, Note_on_c, 1, 68, 127
2, 24000, Note_off_c, 1, 68, 0
2, 24040, Note_on_c, 1, 67, 127
2, 24200, Note_off_c, 1, 49, 0
2, 24200, Note_off_c, 1, 53, 0
2, 24200, Note_off_c, 1, 67, 0
2, 24240, Note_on_c, 1, 51, 127
2, 24240, Note_on_c, 1, 58, 127
2, 24240, Note_on_c, 1, 67, 127
2, 24400, Note_off_c, 1, 67, 0
2, 24440, Note_on_c, 1, 73, 127
2, 24600, Note_off_c, 1, 51, 0
2, 24600, Note_off_c, 1, 58, 0
2, 24600, Note_off_c, 1, 73, 0
2, 24640, Note_on_c, 1, 59, 127
2, 24640, Note_on_c, 1, 75, 127
2, 24800, Note_off_c, 1, 75, 0
2, 24840, Note_on_c, 1, 73, 127
2, 24960, Note_off_c, 1, 59, 0
2, 24960, Note_off_c, 1, 73, 0
2, 25040, Note_on_c, 1, 53, 127
2, 25040, Note_on_c, 1, 68, 127
2, 25160, Note_off_c, 1, 68, 0
2, 25200, Note_on_c, 1, 71, 127
2, 25360, Note_off_c, 1, 53, 0
2, 25360, Note_off_c, 1, 71, 0
2, 25400, Note_on_c, 1, 41, 127
2, 25400, Note_on_c, 1, 53, 127
2, 25400, Note_on_c, 1, 62, 127
2, 25400, Note_on_c, 1, 68, 127
2, 25560, Note_off_c, 1, 68, 0
2, 25600, Note_on_c, 1, 71, 127
2, 25760, Note_off_c, 1, 41, 0
2, 25760, Note_off_c, 1, 53, 0
2, 25760, Note_off_c, 1, 62, 0
2, 25760, Note_off_c, 1, 71, 0
2, 25800, Note_on_c, 1, 42, 127
2, 25800, Note_on_c, 1, 54, 127
2, 25800, Note_on_c, 1, 63, 127
2, 25800, Note_on_c, 1, 69, 127
2, 25960, Note_off_c, 1, 69, 0
2, 26000, Note_on_c, 1, 66, 127
2, 26160, Note_off_c, 1, 42, 0
2, 26160, Note_off_c, 1, 54, 0
2, 26160, Note_off_c, 1, 63, 0
2, 26160, Note_off_c, 1, 66, 0
2, 26200, Note_on_c, 1, 46, 127
2, 26200, Note_on_c, 1, 62, 127
2, 26400, Note_on_c, 1, 56, 127
2, 26400, Note_on_c, 1, 65, 127
2, 26520, Note_off_c, 1, 46, 0
2, 26520, Note_off_c, 1, 56, 0
2, 26520, Note_off_c, 1, 62, 0
2, 26520, Note_off_c, 1, 65, 0
2, 26560, Note_on_c, 1, 51, 127
2, 26560, Note_on_c, 1, 54, 127
2, 26560, Note_on_c, 1, 63, 127
2, 26720, Note_off_c, 1, 54, 0
2, 26720, Note_off_c, 1, 63, 0
2, 26760, Note_on_c, 1, 59, 127
2, 26760, Note_on_c, 1, 65, 127
2, 26920, Note_off_c, 1, 51, 0
2, 26920, Note_off_c, 1, 59, 0
2, 26920, Note_off_c, 1, 65, 0
2, 26960, Note_on_c, 1, 54, 127
2, 26960, Note_on_c, 1, 58, 127
2, 26960, Note_on_c, 1, 63, 127
2, 27080, Note_off_c, 1, 54, 0
2, 27080, Note_off_c, 1, 63, 0
2, 27160, Note_on_c, 1, 53, 127
2, 27160, Note_on_c, 1, 66, 127
2, 27280, Note_off_c, 1, 53, 0
2, 27280, Note_off_c, 1, 58, 0
2, 27280, Note_off_c, 1, 66, 0
2, 27320, Note_on_c, 1, 51, 127
2, 27320, Note_on_c, 1, 54, 127
2, 27320, Note_on_c, 1, 63, 127
2, 27440, Note_off_c, 1, 63, 0
2, 27520, Note_on_c, 1, 68, 127
2, 27640, Note_off_c, 1, 51, 0
2, 27640, Note_off_c, 1, 54, 0
2, 27640, Note_off_c, 1, 68, 0
2, 27680, Note_on_c, 1, 63, 127
2, 27840, Note_off_c, 1, 63, 0
2, 27880, Note_on_c, 1, 65, 127
2, 28040, Note_off_c, 1, 65, 0
2, 28080, Note_on_c, 1, 58, 127
2, 28080, Note_on_c, 1, 66, 127
2, 28240, Note_off_c, 1, 66, 0
2, 28280, Note_on_c, 1, 65, 127
2, 28400, Note_off_c, 1, 65, 0
2, 28440, Note_on_c, 1, 67, 127
2, 28600, Note_off_c, 1, 67, 0
2, 28640, Note_on_c, 1, 69, 127
2, 28800, Note_off_c, 1, 58, 0
2, 28800, Note_off_c, 1, 69, 0
2, 28840, Note_on_c, 1, 67, 127
2, 29000, Note_off_c, 1, 67, 0
2, 29040, Note_on_c, 1, 65, 127
2, 29160, Note_off_c, 1, 65, 0
2, 29240, Note_on_c, 1, 63, 127
2, 29360, Note_off_c, 1, 63, 0
2, 29400, Note_on_c, 1, 57, 127
2, 29560, Note_off_c, 1, 57, 0
2, 29600, Note_on_c, 1, 56, 127
2, 29760, Note_off_c, 1, 56, 0
2, 29800, Note_on_c, 1, 64, 127
2, 29960, Note_off_c, 1, 64, 0
2, 30000, Note_on_c, 1, 55, 127
2, 30000, Note_on_c, 1, 72, 127
2, 30120, Note_off_c, 1, 55, 0
2, 30200, Note_on_c, 1, 64, 127
2, 30320, Note_off_c, 1, 64, 0
2, 30360, Note_on_c, 1, 60, 127
2, 30520, Note_off_c, 1, 60, 0
2, 30560, Note_on_c, 1, 63, 127
2, 30720, Note_off_c, 1, 63, 0
2, 30720, Note_off_c, 1, 72, 0
2, 30760, Note_on_c, 1, 60, 127
2, 30760, Note_on_c, 1, 69, 127
2, 30920, Note_off_c, 1, 60, 0
2, 30960, Note_on_c, 1, 63, 127
2, 31080, Note_off_c, 1, 63, 0
2, 31160, Note_on_c, 1, 59, 127
2, 31160, Note_on_c, 1, 75, 127
2, 31280, Note_off_c, 1, 59, 0
2, 31320, Note_on_c, 1, 63, 127
2, 31480, Note_off_c, 1, 63, 0
2, 31480, Note_off_c, 1, 69, 0
2, 31480, Note_off_c, 1, 75, 0
2, 31520, Note_on_c, 1, 60, 127
2, 31520, Note_on_c, 1, 63, 127
2, 31680, Note_off_c, 1, 60, 0
2, 31720, Note_on_c, 1, 66, 127
2, 31840, Note_off_c, 1, 63, 0
2, 31840, Note_off_c, 1, 66, 0
2, 31920, Note_on_c, 1, 57, 127
2, 31920, Note_on_c, 1, 64, 127
2, 31920, Note_on_c, 1, 72, 127
2, 32040, Note_off_c, 1, 72, 0
2, 32080, Note_on_c, 1, 75, 127
2, 32240, Note_off_c, 1, 57, 0
2, 32240, Note_off_c, 1, 75, 0
2, 32280, Note_on_c, 1, 55, 127
2, 32280, Note_on_c, 1, 73, 127
2, 32440, Note_off_c, 1, 73, 0
2, 32480, Note_on_c, 1, 72, 127
2, 32640, Note_off_c, 1, 55, 0
2, 32640, Note_off_c, 1, 64, 0
2, 32640, Note_off_c, 1, 72, 0
2, 32680, Note_on_c, 1, 56, 127
2, 32680, Note_on_c, 1, 61, 127
2, 32680, Note_on_c, 1, 72, 127
2, 32800, Note_off_c, 1, 72, 0
2, 32880, Note_on_c, 1, 70, 127
2, 33000, Note_off_c, 1, 56, 0
2, 33000, Note_off_c, 1, 61, 0
2, 33000, Note_off_c, 1, 70, 0
2, 33040, Note_on_c, 1, 68, 127
2, 33040, Note_on_c, 1, 72, 127
2, 33200, Note_off_c, 1, 68, 0
2, 33200, Note_off_c, 1, 72, 0
2, 33240, Note_on_c, 1, 65, 127
2, 33240, Note_on_c, 1, 70, 127
2, 33400, Note_off_c, 1, 65, 0
2, 33400, Note_off_c, 1, 70, 0
2, 33440, Note_on_c, 1, 68, 127
2, 33440, Note_on_c, 1, 72, 127
2, 33600, Note_off_c, 1, 68, 0
2, 33640, Note_on_c, 1, 63, 127
2, 33800, Note_off_c, 1, 63, 0
2, 33840, Note_on_c, 1, 67, 127
2, 33960, Note_off_c, 1, 67, 0
2, 34040, Note_on_c, 1, 63, 127
2, 34160, Note_off_c, 1, 63, 0
2, 34160, Note_off_c, 1, 72, 0
2, 34240, Note_on_c, 1, 61, 127
2, 34240, Note_on_c, 1, 73, 127
2, 34360, Note_off_c, 1, 61, 0
2, 34360, Note_off_c, 1, 73, 0
2, 34400, Note_on_c, 1, 60, 127
2, 34400, Note_on_c, 1, 75, 127
2, 34560, Note_off_c, 1, 60, 0
2, 34560, Note_off_c, 1, 75, 0
2, 34600, Note_on_c, 1, 53, 127
2, 34600, Note_on_c, 1, 75, 127
2, 34760, Note_off_c, 1, 53, 0
2, 34760, Note_off_c, 1, 75, 0
2, 34800, Note_on_c, 1, 60, 127
2, 34800, Note_on_c, 1, 73, 127
2, 34960, Note_off_c, 1, 60, 0
2, 34960, Note_off_c, 1, 73, 0
2, 35000, Note_on_c, 1, 58, 127
2, 35000, Note_on_c, 1, 70, 127
2, 35120, Note_off_c, 1, 58, 0
2, 35120, Note_off_c, 1, 70, 0
2, 35200, Note_on_c, 1, 60, 127
2, 35200, Note_on_c, 1, 72, 127
2, 35320, Note_off_c, 1, 60, 0
2, 35320, Note_off_c, 1, 72, 0
2, 35360, Note_on_c, 1, 53, 127
2, 35360, Note_on_c, 1, 73, 127
2, 35520, Note_off_c, 1, 53, 0
2, 35520, Note_off_c, 1, 73, 0
2, 35560, Note_on_c, 1, 61, 127
2, 35560, Note_on_c, 1, 76, 127
2, 35720, Note_off_c, 1, 61, 0
2, 35720, Note_off_c, 1, 76, 0
2, 35760, Note_on_c, 1, 58, 127
2, 35760, Note_on_c, 1, 77, 127
2, 35920, Note_off_c, 1, 58, 0
2, 35920, Note_off_c, 1, 77, 0
2, 35960, Note_on_c, 1, 61, 127
2, 35960, Note_on_c, 1, 79, 127
2, 36080, Note_off_c, 1, 61, 0
2, 36080, Note_off_c, 1, 79, 0
2, 36160, Note_on_c, 1, 53, 127
2, 36160, Note_on_c, 1, 80, 127
2, 36280, Note_off_c, 1, 53, 0
2, 36280, Note_off_c, 1, 80, 0
2, 36320, Note_on_c, 1, 60, 127
2, 36320, Note_on_c, 1, 79, 127
2, 36480, Note_off_c, 1, 60, 0
2, 36480, Note_off_c, 1, 79, 0
2, 36520, Note_on_c, 1, 49, 127
2, 36520, Note_on_c, 1, 77, 127
2, 36680, Note_off_c, 1, 49, 0
2, 36680, Note_off_c, 1, 77, 0
2, 36720, Note_on_c, 1, 58, 127
2, 36720, Note_on_c, 1, 82, 127
2, 36880, Note_off_c, 1, 58, 0
2, 36880, Note_off_c, 1, 82, 0
2, 36920, Note_on_c, 1, 49, 127
2, 36920, Note_on_c, 1, 79, 127
2, 37040, Note_off_c, 1, 49, 0
2, 37040, Note_off_c, 1, 79, 0
2, 37120, Note_on_c, 1, 46, 127
2, 37120, Note_on_c, 1, 80, 127
2, 37240, Note_off_c, 1, 46, 0
2, 37240, Note_off_c, 1, 80, 0
2, 37280, Note_on_c, 1, 44, 127
2, 37280, Note_on_c, 1, 77, 127
2, 37440, Note_off_c, 1, 44, 0
2, 37440, Note_off_c, 1, 77, 0
2, 37480, Note_on_c, 1, 43, 127
2, 37480, Note_on_c, 1, 79, 127
2, 37640, Note_off_c, 1, 43, 0
2, 37640, Note_off_c, 1, 79, 0
2, 37680, Note_on_c, 1, 53, 127
2, 37680, Note_on_c, 1, 80, 127
2, 37840, Note_off_c, 1, 53, 0
2, 37840, Note_off_c, 1, 80, 0
2, 37880, Note_on_c, 1, 46, 127
2, 37880, Note_on_c, 1, 76, 127
2, 38000, Note_off_c, 1, 46, 0
2, 38000, Note_off_c, 1, 76, 0
2, 38080, Note_on_c, 1, 57, 127
2, 38080, Note_on_c, 1, 77, 127
2, 38200, Note_off_c, 1, 57, 0
2, 38200, Note_off_c, 1, 77, 0
2, 38240, Note_on_c, 1, 48, 127
2, 38240, Note_on_c, 1, 75, 127
2, 38400, Note_off_c, 1, 48, 0
2, 38400, Note_off_c, 1, 75, 0
2, 38440, Note_on_c, 1, 49, 127
2, 38440, Note_on_c, 1, 77, 127
2, 38600, Note_off_c, 1, 49, 0
2, 38600, Note_off_c, 1, 77, 0
2, 38640, Note_on_c, 1, 48, 127
2, 38640, Note_on_c, 1, 79, 127
2, 38800, Note_off_c, 1, 48, 0
2, 38800, Note_off_c, 1, 79, 0
2, 38840, Note_on_c, 1, 48, 127
2, 38840, Note_on_c, 1, 75, 127
2, 38960, Note_off_c, 1, 48, 0
2, 38960, Note_off_c, 1, 75, 0
2, 39040, Note_on_c, 1, 51, 127
2, 39040, Note_on_c, 1, 78, 127
2, 39160, Note_off_c, 1, 51, 0
2, 39160, Note_off_c, 1, 78, 0
2, 39200, Note_on_c, 1, 46, 127
2, 39200, Note_on_c, 1, 79, 127
2, 39360, Note_off_c, 1, 46, 0
2, 39360, Note_off_c, 1, 79, 0
2, 39400, Note_on_c, 1, 48, 127
2, 39400, Note_on_c, 1, 77, 127
2, 39560, Note_off_c, 1, 48, 0
2, 39560, Note_off_c, 1, 77, 0
2, 39600, Note_on_c, 1, 51, 127
2, 39600, Note_on_c, 1, 75, 127
2, 39760, Note_off_c, 1, 51, 0
2, 39760, Note_off_c, 1, 75, 0
2, 39800, Note_on_c, 1, 46, 127
2, 39800, Note_on_c, 1, 73, 127
2, 39960, Note_off_c, 1, 46, 0
2, 39960, Note_off_c, 1, 73, 0
2, 40000, Note_on_c, 1, 58, 127
2, 40000, Note_on_c, 1, 70, 127
2, 40120, Note_off_c, 1, 58, 0
2, 40120, Note_off_c, 1, 70, 0
2, 40200, Note_on_c, 1, 50, 127
2, 40200, Note_on_c, 1, 70, 127
2, 40320, Note_off_c, 1, 50, 0
2, 40320, Note_off_c, 1, 70, 0
2, 40360, Note_on_c, 1, 51, 127
2, 40360, Note_on_c, 1, 69, 127
2, 40520, Note_off_c, 1, 51, 0
2, 40520, Note_off_c, 1, 69, 0
2, 40560, Note_on_c, 1, 49, 127
2, 40560, Note_on_c, 1, 70, 127
2, 40720, Note_off_c, 1, 70, 0
2, 40760, Note_on_c, 1, 66, 127
2, 40880, Note_off_c, 1, 49, 0
2, 40880, Note_off_c, 1, 66, 0
2, 40960, Note_on_c, 1, 70, 127
2, 41080, Note_off_c, 1, 70, 0
2, 41120, Note_on_c, 1, 75, 127
2, 41280, Note_off_c, 1, 75, 0
2, 41320, Note_on_c, 1, 67, 127
2, 41480, Note_off_c, 1, 67, 0
2, 41520, Note_on_c, 1, 82, 127
2, 41680, Note_off_c, 1, 82, 0
2, 41720, Note_on_c, 1, 65, 127
2, 41720, Note_on_c, 1, 68, 127
2, 41720, Note_on_c, 1, 75, 127
2, 41840, Note_off_c, 1, 65, 0
2, 41920, Note_on_c, 1, 58, 127
2, 42040, Note_off_c, 1, 58, 0
2, 42040, Note_off_c, 1, 68, 0
2, 42040, Note_off_c, 1, 75, 0
2, 42080, Note_on_c, 1, 63, 127
2, 42080, Note_on_c, 1, 67, 127
2, 42080, Note_on_c, 1, 75, 127
2, 42240, Note_off_c, 1, 63, 0
2, 42440, Note_off_c, 1, 67, 0
2, 42480, Note_on_c, 1, 63, 127
2, 42600, Note_off_c, 1, 63, 0
2, 42600, Note_off_c, 1, 75, 0
2, 42680, Note_on_c, 1, 70, 127
2, 42680, Note_on_c, 1, 74, 127
2, 42800, Note_off_c, 1, 70, 0
2, 42800, Note_off_c, 1, 74, 0
2, 42840, Note_on_c, 1, 63, 127
2, 42840, Note_on_c, 1, 70, 127
2, 43000, Note_off_c, 1, 63, 0
2, 43000, Note_off_c, 1, 70, 0
2, 43040, Note_on_c, 1, 68, 127
2, 43040, Note_on_c, 1, 72, 127
2, 43200, Note_off_c, 1, 68, 0
2, 43200, Note_off_c, 1, 72, 0
2, 43240, Note_on_c, 1, 70, 127
2, 43240, Note_on_c, 1, 74, 127
2, 43400, Note_off_c, 1, 70, 0
2, 43400, Note_off_c, 1, 74, 0
2, 43440, Note_on_c, 1, 72, 127
2, 43440, Note_on_c, 1, 75, 127
2, 43520, Note_on_c, 1, 69, 127
2, 43560, Note_off_c, 1, 69, 0
2, 43560, Note_off_c, 1, 72, 0
2, 43560, Note_off_c, 1, 75, 0
2, 43640, Note_on_c, 1, 65, 127
2, 43640, Note_on_c, 1, 74, 127
2, 43760, Note_off_c, 1, 65, 0
2, 43760, Note_off_c, 1, 74, 0
2, 43800, Note_on_c, 1, 63, 127
2, 43800, Note_on_c, 1, 72, 127
2, 43960, Note_off_c, 1, 63, 0
2, 43960, Note_off_c, 1, 72, 0
2, 44000, Note_on_c, 1, 62, 127
2, 44000, Note_on_c, 1, 70, 127
2, 44160, Note_off_c, 1, 62, 0
2, 44160, Note_off_c, 1, 70, 0
2, 44200, Note_on_c, 1, 65, 127
2, 44200, Note_on_c, 1, 68, 127
2, 44360, Note_off_c, 1, 65, 0
2, 44360, Note_off_c, 1, 68, 0
2, 44400, Note_on_c, 1, 63, 127
2, 44400, Note_on_c, 1, 67, 127
2, 44400, Note_on_c, 1, 70, 127
2, 44520, Note_off_c, 1, 67, 0
2, 44600, Note_on_c, 1, 62, 127
2, 44600, Note_off_c, 1, 63, 0
2, 44680, Note_off_c, 1, 62, 0
2, 44680, Note_on_c, 1, 63, 127
2, 44720, Note_off_c, 1, 63, 0
2, 44720, Note_off_c, 1, 70, 0
2, 44800, Note_on_c, 1, 50, 127
2, 44800, Note_on_c, 1, 70, 127
2, 44960, Note_on_c, 1, 66, 127
2, 45120, Note_off_c, 1, 66, 0
2, 45160, Note_on_c, 1, 65, 127
2, 45320, Note_off_c, 1, 65, 0
2, 45360, Note_on_c, 1, 62, 127
2, 45520, Note_off_c, 1, 62, 0
2, 45520, Note_off_c, 1, 70, 0
2, 45560, Note_on_c, 1, 64, 127
2, 45560, Note_on_c, 1, 67, 127
2, 45560, Note_on_c, 1, 70, 127
2, 45880, Note_off_c, 1, 50, 0
2, 45880, Note_off_c, 1, 64, 0
2, 45880, Note_off_c, 1, 67, 0
2, 45880, Note_off_c, 1, 70, 0
2, 45920, Note_on_c, 1, 48, 127
2, 45920, Note_on_c, 1, 64, 127
2, 45920, Note_on_c, 1, 67, 127
2, 45920, Note_on_c, 1, 70, 127
2, 46080, Note_off_c, 1, 64, 0
2, 46080, Note_off_c, 1, 70, 0
2, 46120, Note_on_c, 1, 60, 127
2, 46120, Note_on_c, 1, 69, 127
2, 46280, Note_off_c, 1, 48, 0
2, 46280, Note_off_c, 1, 60, 0
2, 46280, Note_off_c, 1, 67, 0
2, 46280, Note_off_c, 1, 69, 0
2, 46320, Note_on_c, 1, 50, 127
2, 46320, Note_on_c, 1, 67, 127
2, 46480, Note_off_c, 1, 67, 0
2, 46520, Note_on_c, 1, 65, 127
2, 46640, Note_off_c, 1, 50, 0
2, 46640, Note_off_c, 1, 65, 0
2, 46720, Note_on_c, 1, 44, 127
2, 46720, Note_on_c, 1, 48, 127
2, 46720, Note_on_c, 1, 63, 127
2, 46720, Note_on_c, 1, 67, 127
2, 47040, Note_off_c, 1, 44, 0
2, 47040, Note_on_c, 1, 46, 127
2, 47040, Note_off_c, 1, 48, 0
2, 47080, Note_on_c, 1, 44, 127
2, 47400, Note_off_c, 1, 44, 0
2, 47400, Note_off_c, 1, 46, 0
2, 47400, Note_off_c, 1, 63, 0
2, 47400, Note_off_c, 1, 67, 0
2, 47480, Note_on_c, 1, 41, 127
2, 47480, Note_on_c, 1, 45, 127
2, 47480, Note_on_c, 1, 53, 127
2, 47480, Note_on_c, 1, 65, 127
2, 48040, Note_on_c, 1, 48, 127
2, 48200, Note_off_c, 1, 53, 0
2, 48200, Note_off_c, 1, 65, 0
2, 48240, Note_on_c, 1, 53, 127
2, 48240, Note_on_c, 1, 67, 127
2, 48400, Note_off_c, 1, 67, 0
2, 48440, Note_on_c, 1, 65, 127
2, 48560, Note_on_c, 1, 50, 127
2, 48560, Note_off_c, 1, 53, 0
2, 48600, Note_off_c, 1, 50, 0
2, 48600, Note_on_c, 1, 53, 127
2, 48640, Note_off_c, 1, 65, 0
2, 48720, Note_off_c, 1, 41, 0
2, 48760, Note_on_c, 1, 41, 127
2, 48760, Note_on_c, 1, 57, 127
2, 48760, Note_on_c, 1, 69, 127
2, 48920, Note_off_c, 1, 69, 0
2, 48960, Note_on_c, 1, 67, 127
2, 49120, Note_off_c, 1, 67, 0
2, 49160, Note_on_c, 1, 69, 127
2, 49320, Note_off_c, 1, 69, 0
2, 49360, Note_on_c, 1, 67, 127
2, 49480, Note_off_c, 1, 67, 0
2, 49560, Note_on_c, 1, 63, 127
2, 49680, Note_off_c, 1, 63, 0
2, 49720, Note_on_c, 1, 60, 127
2, 49880, Note_off_c, 1, 60, 0
2, 49920, Note_off_c, 1, 57, 0
2, 49920, Note_on_c, 1, 63, 127
2, 49960, Note_off_c, 1, 63, 0
2, 50000, Note_on_c, 1, 62, 127
2, 50040, Note_off_c, 1, 62, 0
2, 50080, Note_on_c, 1, 60, 127
2, 50120, Note_off_c, 1, 60, 0
2, 50200, Note_on_c, 1, 60, 127
2, 50240, Note_off_c, 1, 60, 0
2, 50240, Note_on_c, 1, 64, 127
2, 50280, Note_off_c, 1, 64, 0
2, 50320, Note_off_c, 1, 41, 0
2, 50360, Note_on_c, 1, 41, 127
2, 50360, Note_on_c, 1, 60, 127
2, 50480, Note_off_c, 1, 60, 0
2, 50520, Note_on_c, 1, 65, 127
2, 50600, Note_off_c, 1, 41, 0
2, 50600, Note_off_c, 1, 45, 0
2, 50600, Note_off_c, 1, 48, 0
2, 50600, Note_off_c, 1, 53, 0
2, 50600, Note_off_c, 1, 65, 0
2, 50640, Note_on_c, 1, 41, 127
2, 50640, Note_on_c, 1, 45, 127
2, 50640, Note_on_c, 1, 48, 127
2, 50640, Note_on_c, 1, 53, 127
2, 50640, Note_on_c, 1, 63, 127
2, 50720, Note_off_c, 1, 45, 0
2, 50720, Note_off_c, 1, 53, 0
2, 50760, Note_on_c, 1, 53, 127
2, 50880, Note_off_c, 1, 63, 0
2, 50920, Note_on_c, 1, 63, 127
2, 50960, Note_off_c, 1, 41, 0
2, 50960, Note_off_c, 1, 63, 0
2, 51000, Note_off_c, 1, 48, 0
2, 51000, Note_off_c, 1, 53, 0
2, 51040, Note_on_c, 1, 46, 127
2, 51040, Note_on_c, 1, 52, 127
2, 51040, Note_on_c, 1, 55, 127
2, 51040, Note_on_c, 1, 61, 127
2, 51080, Note_off_c, 1, 61, 0
2, 51120, Note_on_c, 1, 58, 127
2, 51160, Note_off_c, 1, 58, 0
2, 51200, Note_on_c, 1, 60, 127
2, 51320, Note_off_c, 1, 46, 0
2, 51320, Note_off_c, 1, 52, 0
2, 51320, Note_off_c, 1, 55, 0
2, 51320, Note_off_c, 1, 60, 0
2, 51360, Note_on_c, 1, 55, 127
2, 51360, Note_on_c, 1, 57, 127
2, 51360, Note_on_c, 1, 60, 127
2, 51360, Note_on_c, 1, 64, 127
2, 51880, Note_off_c, 1, 57, 0
2, 51880, Note_off_c, 1, 60, 0
2, 51880, Note_off_c, 1, 64, 0
2, 52080, Note_off_c, 1, 55, 0
2, 52120, Note_on_c, 1, 53, 127
2, 52320, Note_on_c, 1, 48, 127
2, 52320, Note_on_c, 1, 56, 127
2, 52440, Note_on_c, 1, 60, 127
2, 52480, Note_off_c, 1, 56, 0
2, 52480, Note_off_c, 1, 60, 0
2, 52520, Note_on_c, 1, 65, 127
2, 52720, Note_on_c, 1, 57, 127
2, 53080, Note_off_c, 1, 65, 0
2, 53120, Note_on_c, 1, 64, 127
2, 53200, Note_off_c, 1, 64, 0
2, 53240, Note_on_c, 1, 62, 127
2, 53280, Note_off_c, 1, 57, 0
2, 53280, Note_off_c, 1, 62, 0
2, 53280, Note_on_c, 1, 67, 127
2, 53320, Note_on_c, 1, 64, 127
2, 53320, Note_off_c, 1, 67, 0
2, 53360, Note_off_c, 1, 48, 0
2, 53360, Note_off_c, 1, 53, 0
2, 53360, Note_off_c, 1, 64, 0
2, 53400, Note_on_c, 1, 46, 127
2, 53400, Note_on_c, 1, 50, 127
2, 53400, Note_on_c, 1, 55, 127
2, 53400, Note_on_c, 1, 70, 127
2, 53440, Note_on_c, 1, 69, 127
2, 53440, Note_off_c, 1, 70, 0
2, 53480, Note_off_c, 1, 69, 0
2, 53520, Note_on_c, 1, 67, 127
2, 53600, Note_off_c, 1, 67, 0
2, 53640, Note_on_c, 1, 64, 127
2, 53680, Note_off_c, 1, 46, 0
2, 53680, Note_off_c, 1, 50, 0
2, 53680, Note_off_c, 1, 55, 0
2, 53680, Note_off_c, 1, 64, 0
2, 53720, Note_on_c, 1, 52, 127
2, 53720, Note_on_c, 1, 58, 127
2, 53720, Note_on_c, 1, 64, 127
2, 53880, Note_off_c, 1, 64, 0
2, 53960, Note_on_c, 1, 66, 127
2, 54080, Note_off_c, 1, 58, 0
2, 54080, Note_off_c, 1, 66, 0
2, 54120, Note_on_c, 1, 58, 127
2, 54120, Note_on_c, 1, 67, 127
2, 54280, Note_off_c, 1, 58, 0
2, 54280, Note_off_c, 1, 67, 0
2, 54320, Note_on_c, 1, 58, 127
2, 54320, Note_on_c, 1, 67, 127
2, 54440, Note_on_c, 1, 64, 127
2, 54480, Note_off_c, 1, 64, 0
2, 54480, Note_off_c, 1, 67, 0
2, 54520, Note_on_c, 1, 67, 127
2, 54680, Note_off_c, 1, 58, 0
2, 54680, Note_off_c, 1, 67, 0
2, 54720, Note_on_c, 1, 60, 127
2, 54720, Note_on_c, 1, 70, 127
2, 54880, Note_off_c, 1, 70, 0
2, 54920, Note_on_c, 1, 72, 127
2, 55080, Note_off_c, 1, 52, 0
2, 55080, Note_off_c, 1, 60, 0
2, 55080, Note_off_c, 1, 72, 0
2, 55120, Note_on_c, 1, 53, 127
2, 55120, Note_on_c, 1, 62, 127
2, 55120, Note_on_c, 1, 71, 127
2, 55280, Note_off_c, 1, 71, 0
2, 55360, Note_on_c, 1, 67, 127
2, 55480, Note_off_c, 1, 62, 0
2, 55480, Note_off_c, 1, 67, 0
2, 55520, Note_on_c, 1, 71, 127
2, 55600, Note_off_c, 1, 71, 0
2, 55720, Note_on_c, 1, 56, 127
2, 55720, Note_on_c, 1, 68, 127
2, 55880, Note_off_c, 1, 53, 0
2, 55880, Note_off_c, 1, 56, 0
2, 55880, Note_off_c, 1, 68, 0
2, 55920, Note_on_c, 1, 55, 127
2, 55920, Note_on_c, 1, 65, 127
2, 56120, Note_on_c, 1, 68, 127
2, 56280, Note_off_c, 1, 65, 0
2, 56280, Note_off_c, 1, 68, 0
2, 56320, Note_on_c, 1, 65, 127
2, 56320, Note_on_c, 1, 72, 127
2, 56360, Note_off_c, 1, 72, 0
2, 56400, Note_on_c, 1, 71, 127
2, 56440, Note_off_c, 1, 55, 0
2, 56440, Note_off_c, 1, 71, 0
2, 56520, Note_on_c, 1, 57, 127
2, 56520, Note_on_c, 1, 67, 127
2, 56560, Note_off_c, 1, 67, 0
2, 56600, Note_on_c, 1, 72, 127
2, 56640, Note_off_c, 1, 57, 0
2, 56640, Note_off_c, 1, 72, 0
2, 56680, Note_on_c, 1, 50, 127
2, 56680, Note_on_c, 1, 74, 127
2, 56840, Note_off_c, 1, 65, 0
2, 56840, Note_off_c, 1, 74, 0
2, 56880, Note_on_c, 1, 58, 127
2, 56880, Note_on_c, 1, 76, 127
2, 57040, Note_off_c, 1, 50, 0
2, 57040, Note_off_c, 1, 58, 0
2, 57040, Note_off_c, 1, 76, 0
2, 57080, Note_on_c, 1, 49, 127
2, 57080, Note_on_c, 1, 55, 127
2, 57080, Note_on_c, 1, 77, 127
2, 57200, Note_off_c, 1, 77, 0
2, 57280, Note_on_c, 1, 69, 127
2, 57400, Note_off_c, 1, 49, 0
2, 57400, Note_off_c, 1, 55, 0
2, 57400, Note_off_c, 1, 69, 0
2, 57440, Note_on_c, 1, 50, 127
2, 57440, Note_on_c, 1, 53, 127
2, 57440, Note_on_c, 1, 70, 127
2, 57600, Note_off_c, 1, 70, 0
2, 57640, Note_on_c, 1, 69, 127
2, 57800, Note_off_c, 1, 50, 0
2, 57800, Note_off_c, 1, 53, 0
2, 57800, Note_off_c, 1, 69, 0
2, 57840, Note_on_c, 1, 52, 127
2, 57840, Note_on_c, 1, 55, 127
2, 57840, Note_on_c, 1, 67, 127
2, 57960, Note_off_c, 1, 67, 0
2, 58040, Note_on_c, 1, 64, 127
2, 58160, Note_off_c, 1, 52, 0
2, 58160, Note_off_c, 1, 55, 0
2, 58160, Note_off_c, 1, 64, 0
2, 58200, Note_on_c, 1, 53, 127
2, 58200, Note_on_c, 1, 55, 127
2, 58200, Note_on_c, 1, 65, 127
2, 58360, Note_off_c, 1, 65, 0
2, 58400, Note_on_c, 1, 69, 127
2, 58560, Note_off_c, 1, 69, 0
2, 58600, Note_on_c, 1, 72, 127
2, 58720, Note_off_c, 1, 72, 0
2, 58800, Note_on_c, 1, 70, 127
2, 58920, Note_off_c, 1, 55, 0
2, 58920, Note_off_c, 1, 70, 0
2, 58960, Note_on_c, 1, 57, 127
2, 58960, Note_on_c, 1, 72, 127
2, 59120, Note_off_c, 1, 72, 0
2, 59160, Note_on_c, 1, 74, 127
2, 59320, Note_off_c, 1, 53, 0
2, 59320, Note_off_c, 1, 57, 0
2, 59320, Note_off_c, 1, 74, 0
2, 59360, Note_on_c, 1, 52, 127
2, 59360, Note_on_c, 1, 67, 127
2, 59360, Note_on_c, 1, 70, 127
2, 59520, Note_off_c, 1, 70, 0
2, 59560, Note_on_c, 1, 73, 127
2, 59720, Note_off_c, 1, 52, 0
2, 59720, Note_off_c, 1, 67, 0
2, 59720, Note_off_c, 1, 73, 0
2, 59760, Note_on_c, 1, 53, 127
2, 59760, Note_on_c, 1, 62, 127
2, 59760, Note_on_c, 1, 69, 127
2, 59880, Note_off_c, 1, 69, 0
2, 59960, Note_on_c, 1, 65, 127
2, 60080, Note_off_c, 1, 62, 0
2, 60080, Note_off_c, 1, 65, 0
2, 60120, Note_on_c, 1, 65, 127
2, 60120, Note_on_c, 1, 67, 127
2, 60280, Note_off_c, 1, 67, 0
2, 60320, Note_on_c, 1, 68, 127
2, 60480, Note_off_c, 1, 53, 0
2, 60480, Note_off_c, 1, 65, 0
2, 60480, Note_off_c, 1, 68, 0
2, 60520, Note_on_c, 1, 55, 127
2, 60520, Note_on_c, 1, 62, 127
2, 60520, Note_on_c, 1, 65, 127
2, 60680, Note_off_c, 1, 62, 0
2, 60680, Note_off_c, 1, 65, 0
2, 60720, Note_on_c, 1, 65, 127
2, 60840, Note_off_c, 1, 65, 0
2, 60920, Note_on_c, 1, 67, 127
2, 60920, Note_on_c, 1, 70, 127
2, 61040, Note_off_c, 1, 67, 0
2, 61040, Note_off_c, 1, 70, 0
2, 61080, Note_on_c, 1, 70, 127
2, 61240, Note_off_c, 1, 55, 0
2, 61240, Note_off_c, 1, 70, 0
2, 61280, Note_on_c, 1, 52, 127
2, 61280, Note_on_c, 1, 61, 127
2, 61280, Note_on_c, 1, 67, 127
2, 61280, Note_on_c, 1, 69, 127
2, 61440, Note_off_c, 1, 52, 0
2, 61440, Note_off_c, 1, 67, 0
2, 61440, Note_off_c, 1, 69, 0
2, 61480, Note_on_c, 1, 67, 127
2, 61480, Note_on_c, 1, 69, 127
2, 61520, Note_off_c, 1, 69, 0
2, 61560, Note_on_c, 1, 70, 127
2, 61640, Note_off_c, 1, 61, 0
2, 61640, Note_off_c, 1, 67, 0
2, 61640, Note_off_c, 1, 70, 0
2, 61680, Note_on_c, 1, 50, 127
2, 61680, Note_on_c, 1, 65, 127
2, 61680, Note_on_c, 1, 69, 127
2, 61720, Note_off_c, 1, 69, 0
2, 61760, Note_on_c, 1, 67, 127
2, 61800, Note_off_c, 1, 65, 0
2, 61800, Note_off_c, 1, 67, 0
2, 61880, Note_on_c, 1, 65, 127
2, 61880, Note_on_c, 1, 69, 127
2, 61920, Note_off_c, 1, 69, 0
2, 61960, Note_on_c, 1, 70, 127
2, 62000, Note_off_c, 1, 50, 0
2, 62000, Note_off_c, 1, 70, 0
2, 62040, Note_on_c, 1, 46, 127
2, 62040, Note_on_c, 1, 69, 127
2, 62080, Note_off_c, 1, 69, 0
2, 62160, Note_on_c, 1, 71, 127
2, 62200, Note_off_c, 1, 71, 0
2, 62240, Note_on_c, 1, 53, 127
2, 62240, Note_on_c, 1, 69, 127
2, 62240, Note_on_c, 1, 74, 127
2, 62280, Note_off_c, 1, 69, 0
2, 62280, Note_off_c, 1, 74, 0
2, 62360, Note_on_c, 1, 70, 127
2, 62400, Note_off_c, 1, 46, 0
2, 62400, Note_off_c, 1, 53, 0
2, 62400, Note_off_c, 1, 65, 0
2, 62400, Note_off_c, 1, 70, 0
2, 62440, Note_on_c, 1, 58, 127
2, 62440, Note_on_c, 1, 67, 127
2, 62600, Note_off_c, 1, 67, 0
2, 62640, Note_on_c, 1, 70, 127
2, 62680, Note_off_c, 1, 70, 0
2, 62720, Note_on_c, 1, 67, 127
2, 62760, Note_off_c, 1, 67, 0
2, 62840, Note_on_c, 1, 48, 127
2, 62840, Note_on_c, 1, 73, 127
2, 62880, Note_off_c, 1, 73, 0
2, 62920, Note_on_c, 1, 72, 127
2, 62960, Note_off_c, 1, 72, 0
2, 63000, Note_on_c, 1, 65, 127
2, 63080, Note_off_c, 1, 65, 0
2, 63120, Note_off_c, 1, 48, 0
2, 63120, Note_on_c, 1, 67, 127
2, 63160, Note_off_c, 1, 58, 0
2, 63160, Note_off_c, 1, 67, 0
2, 63200, Note_on_c, 1, 53, 127
2, 63200, Note_on_c, 1, 63, 127
2, 63200, Note_on_c, 1, 65, 127
2, 63240, Note_off_c, 1, 65, 0
2, 63320, Note_on_c, 1, 72, 127
2, 63360, Note_off_c, 1, 72, 0
2, 63400, Note_on_c, 1, 70, 127
2, 63440, Note_off_c, 1, 70, 0
2, 63480, Note_on_c, 1, 72, 127
2, 63560, Note_off_c, 1, 63, 0
2, 63560, Note_off_c, 1, 72, 0
2, 63600, Note_on_c, 1, 46, 127
2, 63600, Note_on_c, 1, 65, 127
2, 63640, Note_off_c, 1, 65, 0
2, 63680, Note_on_c, 1, 70, 127
2, 63720, Note_off_c, 1, 70, 0
2, 63800, Note_on_c, 1, 69, 127
2, 63840, Note_off_c, 1, 69, 0
2, 63880, Note_on_c, 1, 70, 127
2, 63920, Note_off_c, 1, 46, 0
2, 63920, Note_off_c, 1, 53, 0
2, 63920, Note_off_c, 1, 70, 0
2, 63960, Note_on_c, 1, 48, 127
2, 63960, Note_on_c, 1, 51, 127
2, 63960, Note_on_c, 1, 57, 127
2, 63960, Note_on_c, 1, 69, 127
2, 64120, Note_off_c, 1, 69, 0
2, 64160, Note_on_c, 1, 74, 127
2, 64200, Note_off_c, 1, 74, 0
2, 64280, Note_on_c, 1, 69, 127
2, 64320, Note_off_c, 1, 48, 0
2, 64320, Note_off_c, 1, 51, 0
2, 64320, Note_off_c, 1, 57, 0
2, 64320, Note_off_c, 1, 69, 0
2, 64360, Note_on_c, 1, 45, 127
2, 64360, Note_on_c, 1, 48, 127
2, 64360, Note_on_c, 1, 53, 127
2, 64360, Note_on_c, 1, 57, 127
2, 64360, Note_on_c, 1, 65, 127
2, 64360, Note_on_c, 1, 69, 127
2, 64360, Note_on_c, 1, 77, 127
2, 64680, Note_off_c, 1, 77, 0
2, 64720, Note_on_c, 1, 75, 127
2, 65000, Note_off_c, 1, 75, 0
2, 65040, Note_on_c, 1, 72, 127
2, 65240, Note_off_c, 1, 45, 0
2, 65240, Note_off_c, 1, 48, 0
2, 65240, Note_off_c, 1, 53, 0
2, 65240, Note_off_c, 1, 57, 0
2, 65240, Note_off_c, 1, 65, 0
2, 65240, Note_off_c, 1, 69, 0
2, 65240, Note_off_c, 1, 72, 0
2, 65280, Note_on_c, 1, 46, 127
2, 65280, Note_on_c, 1, 50, 127
2, 65280, Note_on_c, 1, 53, 127
2, 65280, Note_on_c, 1, 62, 127
2, 65280, Note_on_c, 1, 65, 127
2, 65280, Note_on_c, 1, 70, 127
2, 65280, Note_on_c, 1, 74, 127
2, 65680, Note_off_c, 1, 46, 0
2, 65680, Note_off_c, 1, 62, 0
2, 65880, Note_off_c, 1, 50, 0
2, 65880, Note_off_c, 1, 65, 0
2, 65880, Note_off_c, 1, 74, 0
2, 65920, Note_on_c, 1, 48, 127
2, 66000, Note_off_c, 1, 48, 0
2, 66000, Note_off_c, 1, 53, 0
2, 66040, Note_off_c, 1, 70, 0
2, 66080, Note_on_c, 1, 48, 127
2, 66080, Note_on_c, 1, 51, 127
2, 66080, Note_on_c, 1, 53, 127
2, 66080, Note_on_c, 1, 69, 127
2, 66600, Note_off_c, 1, 69, 0
2, 66640, Note_on_c, 1, 70, 127
2, 66800, Note_off_c, 1, 48, 0
2, 66800, Note_off_c, 1, 51, 0
2, 66800, Note_off_c, 1, 53, 0
2, 66800, Note_off_c, 1, 70, 0
2, 66840, Note_on_c, 1, 50, 127
2, 66840, Note_on_c, 1, 77, 127
2, 67160, Note_off_c, 1, 50, 0
2, 67240, Note_on_c, 1, 51, 127
2, 67240, Note_on_c, 1, 57, 127
2, 67560, Note_off_c, 1, 51, 0
2, 67560, Note_off_c, 1, 57, 0
2, 67560, Note_off_c, 1, 77, 0
2, 67600, Note_on_c, 1, 53, 127
2, 67600, Note_on_c, 1, 58, 127
2, 67600, Note_on_c, 1, 75, 127
2, 67920, Note_off_c, 1, 53, 0
2, 67920, Note_off_c, 1, 58, 0
2, 67920, Note_off_c, 1, 75, 0
2, 68000, Note_on_c, 1, 53, 127
2, 68000, Note_on_c, 1, 57, 127
2, 68000, Note_on_c, 1, 72, 127
2, 68000, Note_on_c, 1, 84, 127
2, 68560, Note_on_c, 1, 74, 127
2, 68720, Note_off_c, 1, 53, 0
2, 68720, Note_off_c, 1, 57, 0
2, 68760, Note_on_c, 1, 53, 127
2, 68760, Note_on_c, 1, 57, 127
2, 69080, Note_off_c, 1, 53, 0
2, 69080, Note_off_c, 1, 72, 0
2, 69080, Note_off_c, 1, 74, 0
2, 69120, Note_off_c, 1, 84, 0
2, 69160, Note_on_c, 1, 53, 127
2, 69160, Note_on_c, 1, 65, 127
2, 69160, Note_on_c, 1, 77, 127
2, 69160, Note_on_c, 1, 89, 127
2, 69320, Note_on_c, 1, 69, 127
2, 69680, Note_off_c, 1, 65, 0
2, 69680, Note_off_c, 1, 69, 0
2, 69720, Note_on_c, 1, 64, 127
2, 69720, Note_on_c, 1, 67, 127
2, 69720, Note_on_c, 1, 88, 127
2, 69720, Note_off_c, 1, 89, 0
2, 69840, Note_off_c, 1, 53, 0
2, 69840, Note_off_c, 1, 57, 0
2, 69840, Note_off_c, 1, 64, 0
2, 69840, Note_off_c, 1, 67, 0
2, 69840, Note_off_c, 1, 77, 0
2, 69840, Note_off_c, 1, 88, 0
2, 69920, Note_on_c, 1, 86, 127
2, 70040, Note_off_c, 1, 86, 0
2, 70080, Note_on_c, 1, 81, 127
2, 70240, Note_off_c, 1, 81, 0
2, 70280, Note_on_c, 1, 77, 127
2, 70440, Note_off_c, 1, 77, 0
2, 70480, Note_on_c, 1, 76, 127
2, 70600, Note_off_c, 1, 76, 0
2, 70680, Note_on_c, 1, 55, 127
2, 70680, Note_on_c, 1, 81, 127
2, 70800, Note_off_c, 1, 55, 0
2, 70840, Note_on_c, 1, 57, 127
2, 71000, Note_off_c, 1, 57, 0
2, 71000, Note_off_c, 1, 81, 0
2, 71040, Note_on_c, 1, 60, 127
2, 71040, Note_on_c, 1, 79, 127
2, 71200, Note_off_c, 1, 60, 0
2, 71240, Note_on_c, 1, 58, 127
2, 71400, Note_off_c, 1, 58, 0
2, 71400, Note_off_c, 1, 79, 0
2, 71440, Note_on_c, 1, 50, 127
2, 71440, Note_on_c, 1, 77, 127
2, 71560, Note_off_c, 1, 50, 0
2, 71640, Note_on_c, 1, 60, 127
2, 71760, Note_off_c, 1, 60, 0
2, 71760, Note_off_c, 1, 77, 0
2, 71800, Note_on_c, 1, 48, 127
2, 71800, Note_on_c, 1, 77, 127
2, 71840, Note_off_c, 1, 77, 0
2, 71920, Note_on_c, 1, 76, 127
2, 71960, Note_off_c, 1, 48, 0
2, 71960, Note_off_c, 1, 76, 0
2, 72000, Note_on_c, 1, 57, 127
2, 72000, Note_on_c, 1, 77, 127
2, 72160, Note_off_c, 1, 57, 0
2, 72200, Note_on_c, 1, 53, 127
2, 72360, Note_off_c, 1, 53, 0
2, 72360, Note_off_c, 1, 77, 0
2, 72400, Note_on_c, 1, 55, 127
2, 72400, Note_on_c, 1, 75, 127
2, 72520, Note_off_c, 1, 55, 0
2, 72600, Note_on_c, 1, 57, 127
2, 72720, Note_off_c, 1, 57, 0
2, 72720, Note_off_c, 1, 75, 0
2, 72760, Note_on_c, 1, 58, 127
2, 72760, Note_on_c, 1, 74, 127
2, 72920, Note_off_c, 1, 58, 0
2, 72920, Note_off_c, 1, 74, 0
2, 72960, Note_on_c, 1, 56, 127
2, 72960, Note_on_c, 1, 72, 127
2, 73120, Note_off_c, 1, 56, 0
2, 73120, Note_off_c, 1, 72, 0
2, 73160, Note_on_c, 1, 55, 127
2, 73160, Note_on_c, 1, 72, 127
2, 73320, Note_off_c, 1, 55, 0
2, 73360, Note_on_c, 1, 58, 127
2, 73480, Note_off_c, 1, 58, 0
2, 73480, Note_off_c, 1, 72, 0
2, 73560, Note_on_c, 1, 52, 127
2, 73560, Note_on_c, 1, 72, 127
2, 73680, Note_off_c, 1, 52, 0
2, 73680, Note_off_c, 1, 72, 0
2, 73720, Note_on_c, 1, 59, 127
2, 73720, Note_on_c, 1, 70, 127
2, 73880, Note_off_c, 1, 59, 0
2, 73880, Note_off_c, 1, 70, 0
2, 73920, Note_on_c, 1, 60, 127
2, 73920, Note_on_c, 1, 68, 127
2, 73960, Note_off_c, 1, 68, 0
2, 74040, Note_on_c, 1, 67, 127
2, 74080, Note_off_c, 1, 60, 0
2, 74080, Note_off_c, 1, 67, 0
2, 74120, Note_on_c, 1, 63, 127
2, 74120, Note_on_c, 1, 69, 127
2, 74160, Note_off_c, 1, 69, 0
2, 74200, Note_on_c, 1, 67, 127
2, 74280, Note_off_c, 1, 63, 0
2, 74280, Note_off_c, 1, 67, 0
2, 74320, Note_on_c, 1, 55, 127
2, 74320, Note_on_c, 1, 76, 127
2, 74360, Note_off_c, 1, 76, 0
2, 74400, Note_on_c, 1, 71, 127
2, 74440, Note_off_c, 1, 55, 0
2, 74440, Note_off_c, 1, 71, 0
2, 74520, Note_on_c, 1, 59, 127
2, 74520, Note_on_c, 1, 80, 127
2, 74560, Note_off_c, 1, 80, 0
2, 74600, Note_on_c, 1, 79, 127
2, 74640, Note_off_c, 1, 59, 0
2, 74640, Note_off_c, 1, 79, 0
2, 74680, Note_on_c, 1, 67, 127
2, 74680, Note_on_c, 1, 71, 127
2, 74760, Note_off_c, 1, 71, 0
2, 74800, Note_on_c, 1, 72, 127
2, 74840, Note_off_c, 1, 67, 0
2, 74840, Note_off_c, 1, 72, 0
2, 74880, Note_on_c, 1, 55, 127
2, 74880, Note_on_c, 1, 77, 127
2, 74920, Note_off_c, 1, 77, 0
2, 75000, Note_on_c, 1, 76, 127
2, 75040, Note_off_c, 1, 55, 0
2, 75040, Note_off_c, 1, 76, 0
2, 75080, Note_on_c, 1, 59, 127
2, 75080, Note_on_c, 1, 74, 127
2, 75120, Note_off_c, 1, 74, 0
2, 75160, Note_on_c, 1, 71, 127
2, 75240, Note_off_c, 1, 59, 0
2, 75240, Note_off_c, 1, 71, 0
2, 75280, Note_on_c, 1, 62, 127
2, 75280, Note_on_c, 1, 79, 127
2, 75600, Note_off_c, 1, 62, 0
2, 75600, Note_off_c, 1, 79, 0
2, 75640, Note_on_c, 1, 67, 127
2, 75640, Note_on_c, 1, 79, 127
2, 75800, Note_off_c, 1, 67, 0
2, 75840, Note_on_c, 1, 63, 127
2, 76000, Note_off_c, 1, 63, 0
2, 76040, Note_on_c, 1, 67, 127
2, 76200, Note_off_c, 1, 67, 0
2, 76240, Note_on_c, 1, 63, 127
2, 76360, Note_off_c, 1, 63, 0
2, 76360, Note_off_c, 1, 79, 0
2, 76440, Note_on_c, 1, 55, 127
2, 76440, Note_on_c, 1, 67, 127
2, 76560, Note_off_c, 1, 55, 0
2, 76600, Note_on_c, 1, 63, 127
2, 76760, Note_off_c, 1, 63, 0
2, 76760, Note_off_c, 1, 67, 0
2, 76800, Note_on_c, 1, 67, 127
2, 76960, Note_off_c, 1, 67, 0
2, 77000, Note_on_c, 1, 63, 127
2, 77000, Note_on_c, 1, 79, 127
2, 77160, Note_off_c, 1, 63, 0
2, 77160, Note_off_c, 1, 79, 0
2, 77200, Note_on_c, 1, 56, 127
2, 77200, Note_on_c, 1, 64, 127
2, 77320, Note_off_c, 1, 56, 0
2, 77320, Note_off_c, 1, 64, 0
2, 77400, Note_on_c, 1, 63, 127
2, 77520, Note_off_c, 1, 63, 0
2, 77560, Note_on_c, 1, 59, 127
2, 77720, Note_off_c, 1, 59, 0
2, 77760, Note_on_c, 1, 55, 127
2, 77920, Note_off_c, 1, 55, 0
2, 77960, Note_on_c, 1, 59, 127
2, 78120, Note_off_c, 1, 59, 0
2, 78160, Note_on_c, 1, 55, 127
2, 78280, Note_off_c, 1, 55, 0
2, 78360, Note_on_c, 1, 54, 127
2, 78480, Note_off_c, 1, 54, 0
2, 78520, Note_on_c, 1, 55, 127
2, 78680, Note_off_c, 1, 55, 0
2, 78720, Note_on_c, 1, 57, 127
2, 78720, Note_on_c, 1, 68, 127
2, 78880, Note_off_c, 1, 57, 0
2, 78880, Note_off_c, 1, 68, 0
2, 78920, Note_on_c, 1, 59, 127
2, 78920, Note_on_c, 1, 67, 127
2, 79080, Note_off_c, 1, 59, 0
2, 79080, Note_off_c, 1, 67, 0
2, 79120, Note_on_c, 1, 48, 127
2, 79120, Note_on_c, 1, 60, 127
2, 79120, Note_on_c, 1, 72, 127
2, 79280, Note_off_c, 1, 48, 0
2, 79280, Note_off_c, 1, 60, 0
2, 79320, Note_on_c, 1, 48, 127
2, 79320, Note_on_c, 1, 60, 127
2, 79440, Note_off_c, 1, 48, 0
2, 79440, Note_off_c, 1, 60, 0
2, 79440, Note_off_c, 1, 72, 0
2, 79520, Note_on_c, 1, 46, 127
2, 79520, Note_on_c, 1, 58, 127
2, 79520, Note_on_c, 1, 74, 127
2, 79640, Note_off_c, 1, 46, 0
2, 79640, Note_off_c, 1, 58, 0
2, 79680, Note_on_c, 1, 48, 127
2, 79680, Note_on_c, 1, 58, 127
2, 79840, Note_off_c, 1, 48, 0
2, 79840, Note_off_c, 1, 58, 0
2, 79840, Note_off_c, 1, 74, 0
2, 79880, Note_on_c, 1, 50, 127
2, 79880, Note_on_c, 1, 79, 127
2, 79920, Note_off_c, 1, 79, 0
2, 80000, Note_on_c, 1, 77, 127
2, 80040, Note_off_c, 1, 50, 0
2, 80040, Note_off_c, 1, 77, 0
2, 80080, Note_on_c, 1, 48, 127
2, 80080, Note_on_c, 1, 57, 127
2, 80080, Note_on_c, 1, 79, 127
2, 80240, Note_off_c, 1, 48, 0
2, 80240, Note_off_c, 1, 57, 0
2, 80240, Note_off_c, 1, 79, 0
2, 80280, Note_on_c, 1, 50, 127
2, 80280, Note_on_c, 1, 81, 127
2, 80400, Note_off_c, 1, 50, 0
2, 80400, Note_off_c, 1, 81, 0
2, 80480, Note_on_c, 1, 46, 127
2, 80480, Note_on_c, 1, 50, 127
2, 80480, Note_on_c, 1, 69, 127
2, 80600, Note_off_c, 1, 46, 0
2, 80600, Note_off_c, 1, 50, 0
2, 80600, Note_off_c, 1, 69, 0
2, 80640, Note_on_c, 1, 47, 127
2, 80640, Note_on_c, 1, 51, 127
2, 80640, Note_on_c, 1, 67, 127
2, 80800, Note_off_c, 1, 47, 0
2, 80800, Note_off_c, 1, 51, 0
2, 80800, Note_off_c, 1, 67, 0
2, 80840, Note_on_c, 1, 48, 127
2, 80840, Note_on_c, 1, 60, 127
2, 80840, Note_on_c, 1, 69, 127
2, 81000, Note_off_c, 1, 48, 0
2, 81000, Note_off_c, 1, 60, 0
2, 81000, Note_off_c, 1, 69, 0
2, 81040, Note_on_c, 1, 50, 127
2, 81040, Note_on_c, 1, 66, 127
2, 81040, Note_on_c, 1, 69, 127
2, 81200, Note_off_c, 1, 50, 0
2, 81240, Note_on_c, 1, 47, 127
2, 81360, Note_off_c, 1, 47, 0
2, 81360, Note_off_c, 1, 66, 0
2, 81360, Note_off_c, 1, 69, 0
2, 81440, Note_on_c, 1, 48, 127
2, 81440, Note_on_c, 1, 67, 127
2, 81440, Note_on_c, 1, 69, 127
2, 81560, Note_off_c, 1, 48, 0
2, 81600, Note_on_c, 1, 46, 127
2, 81760, Note_off_c, 1, 46, 0
2, 81760, Note_off_c, 1, 67, 0
2, 81760, Note_off_c, 1, 69, 0
2, 81800, Note_on_c, 1, 50, 127
2, 81800, Note_on_c, 1, 66, 127
2, 81800, Note_on_c, 1, 72, 127
2, 81960, Note_off_c, 1, 50, 0
2, 82000, Note_on_c, 1, 48, 127
2, 82120, Note_off_c, 1, 48, 0
2, 82120, Note_off_c, 1, 66, 0
2, 82120, Note_off_c, 1, 72, 0
2, 82200, Note_on_c, 1, 74, 127
2, 82320, Note_off_c, 1, 74, 0
2, 82360, Note_on_c, 1, 75, 127
2, 82520, Note_off_c, 1, 75, 0
2, 82560, Note_on_c, 1, 77, 127
2, 82720, Note_off_c, 1, 77, 0
2, 82760, Note_on_c, 1, 76, 127
2, 82920, Note_off_c, 1, 76, 0
2, 82960, Note_on_c, 1, 69, 127
2, 82960, Note_on_c, 1, 77, 127
2, 83280, Note_off_c, 1, 69, 0
2, 83280, Note_off_c, 1, 77, 0
2, 83320, Note_on_c, 1, 69, 127
2, 83320, Note_on_c, 1, 77, 127
2, 83520, Note_on_c, 1, 75, 127
2, 83520, Note_off_c, 1, 77, 0
2, 83520, Note_on_c, 1, 79, 127
2, 83680, Note_off_c, 1, 69, 0
2, 83680, Note_off_c, 1, 75, 0
2, 83680, Note_off_c, 1, 79, 0
2, 83720, Note_on_c, 1, 71, 127
2, 83720, Note_on_c, 1, 75, 127
2, 83720, Note_on_c, 1, 77, 127
2, 83880, Note_off_c, 1, 75, 0
2, 83920, Note_on_c, 1, 74, 127
2, 84040, Note_off_c, 1, 71, 0
2, 84040, Note_off_c, 1, 74, 0
2, 84040, Note_off_c, 1, 77, 0
2, 84120, Note_on_c, 1, 69, 127
2, 84120, Note_on_c, 1, 75, 127
2, 84280, Note_on_c, 1, 72, 127
2, 84440, Note_off_c, 1, 69, 0
2, 84440, Note_off_c, 1, 72, 0
2, 84440, Note_off_c, 1, 75, 0
2, 84480, Note_on_c, 1, 67, 127
2, 84480, Note_on_c, 1, 71, 127
2, 84640, Note_off_c, 1, 67, 0
2, 84680, Note_on_c, 1, 68, 127
2, 84840, Note_off_c, 1, 68, 0
2, 84840, Note_off_c, 1, 71, 0
2, 84880, Note_on_c, 1, 64, 127
2, 84880, Note_on_c, 1, 72, 127
2, 85040, Note_off_c, 1, 64, 0
2, 85080, Note_on_c, 1, 62, 127
2, 85240, Note_off_c, 1, 62, 0
2, 85240, Note_off_c, 1, 72, 0
2, 85280, Note_on_c, 1, 67, 127
2, 85280, Note_on_c, 1, 70, 127
2, 85440, Note_off_c, 1, 67, 0
2, 85480, Note_on_c, 1, 67, 127
2, 85600, Note_off_c, 1, 67, 0
2, 85600, Note_off_c, 1, 70, 0
2, 85680, Note_on_c, 1, 69, 127
2, 85800, Note_off_c, 1, 69, 0
2, 85840, Note_on_c, 1, 70, 127
2, 86000, Note_off_c, 1, 70, 0
2, 86040, Note_on_c, 1, 69, 127
2, 86040, Note_on_c, 1, 72, 127
2, 86200, Note_off_c, 1, 69, 0
2, 86200, Note_off_c, 1, 72, 0
2, 86240, Note_on_c, 1, 65, 127
2, 86240, Note_on_c, 1, 70, 127
2, 86400, Note_off_c, 1, 65, 0
2, 86400, Note_off_c, 1, 70, 0
2, 86440, Note_on_c, 1, 69, 127
2, 86440, Note_on_c, 1, 72, 127
2, 86640, Note_on_c, 1, 57, 127
2, 86760, Note_off_c, 1, 57, 0
2, 86760, Note_off_c, 1, 69, 0
2, 86760, Note_off_c, 1, 72, 0
2, 86800, Note_on_c, 1, 54, 127
2, 86800, Note_on_c, 1, 72, 127
2, 86800, Note_on_c, 1, 75, 127
2, 86960, Note_off_c, 1, 54, 0
2, 87000, Note_on_c, 1, 63, 127
2, 87160, Note_off_c, 1, 63, 0
2, 87160, Note_off_c, 1, 72, 0
2, 87160, Note_off_c, 1, 75, 0
2, 87200, Note_on_c, 1, 65, 127
2, 87200, Note_on_c, 1, 70, 127
2, 87200, Note_on_c, 1, 74, 127
2, 87360, Note_off_c, 1, 65, 0
2, 87360, Note_off_c, 1, 70, 0
2, 87400, Note_on_c, 1, 52, 127
2, 87400, Note_on_c, 1, 67, 127
2, 87560, Note_off_c, 1, 52, 0
2, 87560, Note_off_c, 1, 67, 0
2, 87560, Note_off_c, 1, 74, 0
2, 87600, Note_on_c, 1, 53, 127
2, 87600, Note_on_c, 1, 69, 127
2, 87600, Note_on_c, 1, 72, 127
2, 87600, Note_on_c, 1, 75, 127
2, 87760, Note_off_c, 1, 53, 0
2, 87800, Note_on_c, 1, 51, 127
2, 87920, Note_off_c, 1, 51, 0
2, 87920, Note_off_c, 1, 69, 0
2, 87920, Note_off_c, 1, 72, 0
2, 87920, Note_off_c, 1, 75, 0
2, 88000, Note_on_c, 1, 74, 127
2, 88120, Note_off_c, 1, 74, 0
2, 88160, Note_on_c, 1, 77, 127
2, 88320, Note_off_c, 1, 77, 0
2, 88360, Note_on_c, 1, 81, 127
2, 88560, Note_on_c, 1, 65, 127
2, 88560, Note_on_c, 1, 69, 127
2, 88720, Note_off_c, 1, 65, 0
2, 88720, Note_off_c, 1, 69, 0
2, 88760, Note_on_c, 1, 60, 127
2, 88760, Note_on_c, 1, 72, 127
2, 88760, Note_on_c, 1, 77, 127
2, 88880, Note_off_c, 1, 60, 0
2, 88880, Note_off_c, 1, 72, 0
2, 88880, Note_off_c, 1, 77, 0
2, 88880, Note_off_c, 1, 81, 0
2, 88960, Note_on_c, 1, 51, 127
2, 88960, Note_on_c, 1, 72, 127
2, 88960, Note_on_c, 1, 79, 127
2, 88960, Note_on_c, 1, 84, 127
2, 89080, Note_off_c, 1, 51, 0
2, 89080, Note_off_c, 1, 72, 0
2, 89120, Note_on_c, 1, 60, 127
2, 89120, Note_on_c, 1, 72, 127
2, 89280, Note_off_c, 1, 60, 0
2, 89280, Note_off_c, 1, 72, 0
2, 89280, Note_off_c, 1, 79, 0
2, 89280, Note_off_c, 1, 84, 0
2, 89320, Note_on_c, 1, 50, 127
2, 89320, Note_on_c, 1, 77, 127
2, 89320, Note_on_c, 1, 81, 127
2, 89320, Note_on_c, 1, 84, 127
2, 89480, Note_off_c, 1, 50, 0
2, 89520, Note_on_c, 1, 53, 127
2, 89680, Note_off_c, 1, 53, 0
2, 89680, Note_off_c, 1, 77, 0
2, 89680, Note_off_c, 1, 81, 0
2, 89680, Note_off_c, 1, 84, 0
2, 89720, Note_on_c, 1, 50, 127
2, 89720, Note_on_c, 1, 77, 127
2, 89720, Note_on_c, 1, 84, 127
2, 89840, Note_off_c, 1, 50, 0
2, 89920, Note_on_c, 1, 53, 127
2, 90040, Note_off_c, 1, 53, 0
2, 90040, Note_off_c, 1, 77, 0
2, 90040, Note_off_c, 1, 84, 0
2, 90080, Note_on_c, 1, 57, 127
2, 90080, Note_on_c, 1, 72, 127
2, 90080, Note_on_c, 1, 75, 127
2, 90080, Note_on_c, 1, 77, 127
2, 90080, Note_on_c, 1, 84, 127
2, 90240, Note_off_c, 1, 57, 0
2, 90240, Note_off_c, 1, 77, 0
2, 90240, Note_on_c, 1, 78, 127
2, 90280, Note_on_c, 1, 53, 127
2, 90280, Note_on_c, 1, 77, 127
2, 90280, Note_off_c, 1, 78, 0
2, 90440, Note_off_c, 1, 53, 0
2, 90480, Note_on_c, 1, 57, 127
2, 90640, Note_off_c, 1, 57, 0
2, 90680, Note_on_c, 1, 53, 127
2, 90760, Note_off_c, 1, 72, 0
2, 90760, Note_off_c, 1, 77, 0
2, 90760, Note_on_c, 1, 79, 127
2, 90800, Note_off_c, 1, 53, 0
2, 90800, Note_off_c, 1, 75, 0
2, 90800, Note_off_c, 1, 79, 0
2, 90800, Note_off_c, 1, 84, 0
2, 90880, Note_on_c, 1, 51, 127
2, 90880, Note_on_c, 1, 66, 127
2, 90880, Note_on_c, 1, 72, 127
2, 90880, Note_on_c, 1, 74, 127
2, 90880, Note_on_c, 1, 77, 127
2, 91000, Note_off_c, 1, 51, 0
2, 91040, Note_on_c, 1, 51, 127
2, 91200, Note_off_c, 1, 51, 0
2, 91200, Note_off_c, 1, 66, 0
2, 91200, Note_off_c, 1, 72, 0
2, 91200, Note_off_c, 1, 74, 0
2, 91200, Note_off_c, 1, 77, 0
2, 91240, Note_on_c, 1, 53, 127
2, 91240, Note_on_c, 1, 75, 127
2, 91400, Note_off_c, 1, 53, 0
2, 91440, Note_on_c, 1, 58, 127
2, 91600, Note_off_c, 1, 58, 0
2, 91600, Note_off_c, 1, 75, 0
2, 91640, Note_on_c, 1, 46, 127
2, 91640, Note_on_c, 1, 74, 127
2, 91800, Note_off_c, 1, 46, 0
2, 91800, Note_off_c, 1, 74, 0
2, 91840, Note_on_c, 1, 58, 127
2, 91840, Note_on_c, 1, 70, 127
2, 91960, Note_off_c, 1, 58, 0
2, 91960, Note_off_c, 1, 70, 0
2, 92040, Note_on_c, 1, 53, 127
2, 92040, Note_on_c, 1, 70, 127
2, 92040, Note_on_c, 1, 74, 127
2, 92040, Note_on_c, 1, 82, 127
2, 92160, Note_off_c, 1, 53, 0
2, 92160, Note_off_c, 1, 82, 0
2, 92200, Note_on_c, 1, 53, 127
2, 92200, Note_on_c, 1, 79, 127
2, 92360, Note_off_c, 1, 53, 0
2, 92360, Note_off_c, 1, 70, 0
2, 92360, Note_off_c, 1, 74, 0
2, 92360, Note_off_c, 1, 79, 0
2, 92400, Note_on_c, 1, 58, 127
2, 92400, Note_on_c, 1, 74, 127
2, 92400, Note_on_c, 1, 77, 127
2, 92560, Note_off_c, 1, 58, 0
2, 92560, Note_off_c, 1, 77, 0
2, 92600, Note_on_c, 1, 58, 127
2, 92600, Note_on_c, 1, 75, 127
2, 92680, Note_on_c, 1, 70, 127
2, 92680, Note_off_c, 1, 75, 0
2, 92720, Note_off_c, 1, 70, 0
2, 92760, Note_off_c, 1, 58, 0
2, 92800, Note_on_c, 1, 51, 127
2, 92800, Note_on_c, 1, 70, 127
2, 92920, Note_off_c, 1, 51, 0
2, 92920, Note_off_c, 1, 70, 0
2, 92920, Note_off_c, 1, 74, 0
2, 93000, Note_on_c, 1, 53, 127
2, 93000, Note_on_c, 1, 72, 127
2, 93000, Note_on_c, 1, 75, 127
2, 93120, Note_off_c, 1, 53, 0
2, 93120, Note_off_c, 1, 72, 0
2, 93120, Note_off_c, 1, 75, 0
2, 93160, Note_on_c, 1, 55, 127
2, 93160, Note_on_c, 1, 75, 127
2, 93320, Note_off_c, 1, 55, 0
2, 93320, Note_off_c, 1, 75, 0
2, 93360, Note_on_c, 1, 58, 127
2, 93360, Note_on_c, 1, 74, 127
2, 93520, Note_off_c, 1, 58, 0
2, 93520, Note_off_c, 1, 74, 0
2, 93560, Note_on_c, 1, 56, 127
2, 93560, Note_on_c, 1, 70, 127
2, 93720, Note_off_c, 1, 56, 0
2, 93720, Note_off_c, 1, 70, 0
2, 93760, Note_on_c, 1, 58, 127
2, 93760, Note_on_c, 1, 68, 127
2, 93880, Note_off_c, 1, 58, 0
2, 93880, Note_off_c, 1, 68, 0
2, 93960, Note_on_c, 1, 46, 127
2, 93960, Note_on_c, 1, 69, 127
2, 94000, Note_off_c, 1, 69, 0
2, 94040, Note_on_c, 1, 65, 127
2, 94080, Note_off_c, 1, 46, 0
2, 94080, Note_off_c, 1, 65, 0
2, 94120, Note_on_c, 1, 48, 127
2, 94120, Note_on_c, 1, 63, 127
2, 94280, Note_off_c, 1, 48, 0
2, 94280, Note_off_c, 1, 63, 0
2, 94320, Note_on_c, 1, 46, 127
2, 94320, Note_on_c, 1, 65, 127
2, 94480, Note_off_c, 1, 46, 0
2, 94480, Note_off_c, 1, 65, 0
2, 94520, Note_on_c, 1, 45, 127
2, 94520, Note_on_c, 1, 75, 127
2, 94680, Note_off_c, 1, 45, 0
2, 94680, Note_off_c, 1, 75, 0
2, 94720, Note_on_c, 1, 46, 127
2, 94720, Note_on_c, 1, 62, 127
2, 94840, Note_off_c, 1, 46, 0
2, 94840, Note_off_c, 1, 62, 0
2, 94920, Note_on_c, 1, 43, 127
2, 94920, Note_on_c, 1, 71, 127
2, 95040, Note_off_c, 1, 43, 0
2, 95040, Note_off_c, 1, 71, 0
2, 95080, Note_on_c, 1, 48, 127
2, 95080, Note_on_c, 1, 75, 127
2, 95240, Note_off_c, 1, 48, 0
2, 95280, Note_on_c, 1, 48, 127
2, 95440, Note_off_c, 1, 48, 0
2, 95440, Note_off_c, 1, 75, 0
2, 95480, Note_on_c, 1, 50, 127
2, 95480, Note_on_c, 1, 59, 127
2, 95480, Note_on_c, 1, 65, 127
2, 95480, Note_on_c, 1, 71, 127
2, 95480, Note_on_c, 1, 74, 127
2, 95480, Note_on_c, 1, 77, 127
2, 95480, Note_on_c, 1, 80, 127
2, 95480, Note_on_c, 1, 83, 127
2, 95800, Note_off_c, 1, 50, 0
2, 95800, Note_off_c, 1, 59, 0
2, 95800, Note_off_c, 1, 65, 0
2, 95800, Note_off_c, 1, 71, 0
2, 95800, Note_off_c, 1, 74, 0
2, 95800, Note_off_c, 1, 77, 0
2, 95800, Note_off_c, 1, 80, 0
2, 95800, Note_off_c, 1, 83, 0
2, 95880, Note_on_c, 1, 51, 127
2, 95880, Note_on_c, 1, 58, 127
2, 95880, Note_on_c, 1, 70, 127
2, 95880, Note_on_c, 1, 74, 127
2, 95880, Note_on_c, 1, 78, 127
2, 95880, Note_on_c, 1, 82, 127
2, 96000, Note_off_c, 1, 51, 0
2, 96000, Note_off_c, 1, 58, 0
2, 96000, Note_off_c, 1, 70, 0
2, 96000, Note_off_c, 1, 74, 0
2, 96000, Note_off_c, 1, 78, 0
2, 96000, Note_off_c, 1, 82, 0
2, 96040, Note_on_c, 1, 53, 127
2, 96040, Note_on_c, 1, 60, 127
2, 96040, Note_on_c, 1, 72, 127
2, 96040, Note_on_c, 1, 75, 127
2, 96040, Note_on_c, 1, 81, 127
2, 96200, Note_off_c, 1, 53, 0
2, 96200, Note_off_c, 1, 60, 0
2, 96200, Note_off_c, 1, 72, 0
2, 96200, Note_off_c, 1, 75, 0
2, 96200, Note_off_c, 1, 81, 0
2, 96240, Note_on_c, 1, 41, 127
2, 96240, Note_on_c, 1, 53, 127
2, 96240, Note_on_c, 1, 65, 127
2, 96240, Note_on_c, 1, 74, 127
2, 96240, Note_on_c, 1, 77, 127
2, 96240, Note_on_c, 1, 80, 127
2, 96440, Note_on_c, 1, 68, 127
2, 96600, Note_off_c, 1, 41, 0
2, 96600, Note_off_c, 1, 53, 0
2, 96600, Note_off_c, 1, 65, 0
2, 96600, Note_off_c, 1, 68, 0
2, 96600, Note_off_c, 1, 74, 0
2, 96600, Note_off_c, 1, 77, 0
2, 96600, Note_off_c, 1, 80, 0
2, 96640, Note_on_c, 1, 79, 127
2, 96760, Note_off_c, 1, 79, 0
2, 96840, Note_on_c, 1, 76, 127
2, 96960, Note_off_c, 1, 76, 0
2, 97000, Note_on_c, 1, 36, 127
2, 97000, Note_on_c, 1, 48, 127
2, 97000, Note_on_c, 1, 58, 127
2, 97000, Note_on_c, 1, 64, 127
2, 97000, Note_on_c, 1, 72, 127
2, 97000, Note_on_c, 1, 79, 127
2, 97360, Note_off_c, 1, 36, 0
2, 97360, Note_off_c, 1, 48, 0
2, 97360, Note_off_c, 1, 58, 0
2, 97360, Note_off_c, 1, 64, 0
2, 97360, Note_off_c, 1, 72, 0
2, 97400, Note_on_c, 1, 41, 127
2, 97400, Note_on_c, 1, 53, 127
2, 97400, Note_on_c, 1, 65, 127
2, 97400, Note_on_c, 1, 72, 127
2, 97720, Note_off_c, 1, 41, 0
2, 97720, Note_off_c, 1, 53, 0
2, 97720, Note_off_c, 1, 65, 0
2, 97720, Note_off_c, 1, 72, 0
2, 97720, Note_off_c, 1, 79, 0
2, 97800, Note_on_c, 1, 43, 127
2, 97800, Note_on_c, 1, 55, 127
2, 97800, Note_on_c, 1, 79, 127
2, 97960, Note_on_c, 1, 67, 127
2, 98120, Note_off_c, 1, 43, 0
2, 98120, Note_off_c, 1, 55, 0
2, 98120, Note_off_c, 1, 67, 0
2, 98120, Note_off_c, 1, 79, 0
2, 98160, Note_on_c, 1, 41, 127
2, 98160, Note_on_c, 1, 53, 127
2, 98160, Note_on_c, 1, 69, 127
2, 98160, Note_on_c, 1, 77, 127
2, 98320, Note_off_c, 1, 69, 0
2, 98360, Note_on_c, 1, 72, 127
2, 98400, Note_off_c, 1, 72, 0
2, 98480, Note_on_c, 1, 70, 127
2, 98520, Note_off_c, 1, 41, 0
2, 98520, Note_off_c, 1, 70, 0
2, 98520, Note_off_c, 1, 77, 0
2, 98560, Note_on_c, 1, 65, 127
2, 98560, Note_on_c, 1, 69, 127
2, 98560, Note_on_c, 1, 77, 127
2, 98720, Note_off_c, 1, 69, 0
2, 99280, Note_off_c, 1, 53, 0
2, 99280, Note_off_c, 1, 65, 0
2, 99280, Note_off_c, 1, 77, 0
2, 99320, Note_on_c, 1, 55, 127
2, 99320, Note_on_c, 1, 58, 127
2, 99320, Note_on_c, 1, 67, 127
2, 99320, Note_on_c, 1, 79, 127
2, 99680, Note_off_c, 1, 58, 0
2, 99680, Note_off_c, 1, 67, 0
2, 99720, Note_on_c, 1, 53, 127
2, 99720, Note_off_c, 1, 55, 0
2, 99720, Note_on_c, 1, 57, 127
2, 99720, Note_on_c, 1, 69, 127
2, 99720, Note_on_c, 1, 77, 127
2, 100040, Note_off_c, 1, 53, 0
2, 100040, Note_off_c, 1, 57, 0
2, 100040, Note_off_c, 1, 69, 0
2, 100040, Note_off_c, 1, 77, 0
2, 100080, Note_on_c, 1, 55, 127
2, 100120, Note_on_c, 1, 53, 127
2, 100120, Note_on_c, 1, 74, 127
2, 100240, Note_off_c, 1, 53, 0
2, 100240, Note_off_c, 1, 55, 0
2, 100280, Note_on_c, 1, 53, 127
2, 100280, Note_on_c, 1, 57, 127
2, 100440, Note_off_c, 1, 53, 0
2, 100440, Note_off_c, 1, 57, 0
2, 100440, Note_off_c, 1, 74, 0
2, 100440, Note_off_c, 1, 79, 0
2, 100480, Note_on_c, 1, 53, 127
2, 100480, Note_on_c, 1, 57, 127
2, 100480, Note_on_c, 1, 72, 127
2, 100480, Note_on_c, 1, 77, 127
2, 100480, Note_on_c, 1, 81, 127
2, 100840, Note_off_c, 1, 77, 0
2, 100880, Note_on_c, 1, 77, 127
2, 101200, Note_off_c, 1, 53, 0
2, 101200, Note_off_c, 1, 57, 0
2, 101200, Note_off_c, 1, 72, 0
2, 101200, Note_off_c, 1, 81, 0
2, 101280, Note_on_c, 1, 57, 127
2, 101280, Note_on_c, 1, 60, 127
2, 101280, Note_on_c, 1, 69, 127
2, 101280, Note_on_c, 1, 84, 127
2, 101600, Note_off_c, 1, 69, 0
2, 101600, Note_off_c, 1, 84, 0
2, 101640, Note_on_c, 1, 72, 127
2, 101640, Note_on_c, 1, 82, 127
2, 101800, Note_off_c, 1, 77, 0
2, 101800, Note_off_c, 1, 82, 0
2, 101840, Note_on_c, 1, 81, 127
2, 102000, Note_off_c, 1, 81, 0
2, 102040, Note_on_c, 1, 84, 127
2, 102240, Note_on_c, 1, 76, 127
2, 102360, Note_off_c, 1, 57, 0
2, 102360, Note_off_c, 1, 60, 0
2, 102360, Note_off_c, 1, 76, 0
2, 102400, Note_on_c, 1, 53, 127
2, 102400, Note_on_c, 1, 63, 127
2, 102400, Note_on_c, 1, 75, 127
2, 102560, Note_off_c, 1, 75, 0
2, 102600, Note_on_c, 1, 74, 127
2, 102760, Note_off_c, 1, 53, 0
2, 102760, Note_off_c, 1, 63, 0
2, 102760, Note_off_c, 1, 72, 0
2, 102760, Note_off_c, 1, 74, 0
2, 102760, Note_off_c, 1, 84, 0
2, 102800, Note_on_c, 1, 57, 127
2, 102800, Note_on_c, 1, 65, 127
2, 102800, Note_on_c, 1, 70, 127
2, 102800, Note_on_c, 1, 74, 127
2, 102800, Note_on_c, 1, 77, 127
2, 102800, Note_on_c, 1, 82, 127
2, 102800, Note_on_c, 1, 84, 127
2, 102800, Note_on_c, 1, 86, 127
2, 102840, Note_off_c, 1, 84, 0
2, 102960, Note_off_c, 1, 74, 0
2, 102960, Note_off_c, 1, 77, 0
2, 103000, Note_off_c, 1, 70, 0
2, 103000, Note_on_c, 1, 77, 127
2, 103080, Note_on_c, 1, 70, 127
2, 103120, Note_off_c, 1, 57, 0
2, 103120, Note_off_c, 1, 65, 0
2, 103120, Note_off_c, 1, 70, 0
2, 103120, Note_off_c, 1, 77, 0
2, 103120, Note_off_c, 1, 82, 0
2, 103160, Note_on_c, 1, 84, 127
2, 103160, Note_off_c, 1, 86, 0
2, 103200, Note_on_c, 1, 55, 127
2, 103200, Note_on_c, 1, 62, 127
2, 103200, Note_on_c, 1, 67, 127
2, 103200, Note_on_c, 1, 72, 127
2, 103200, Note_on_c, 1, 82, 127
2, 103320, Note_off_c, 1, 72, 0
2, 103360, Note_on_c, 1, 70, 127
2, 103440, Note_off_c, 1, 84, 0
2, 103480, Note_on_c, 1, 86, 127
2, 103520, Note_off_c, 1, 67, 0
2, 103520, Note_off_c, 1, 70, 0
2, 103560, Note_on_c, 1, 70, 127
2, 103600, Note_off_c, 1, 86, 0
2, 103880, Note_off_c, 1, 82, 0
2, 103960, Note_on_c, 1, 77, 127
2, 103960, Note_on_c, 1, 79, 127
2, 104080, Note_off_c, 1, 77, 0
2, 104120, Note_on_c, 1, 74, 127
2, 104120, Note_on_c, 1, 82, 127
2, 104280, Note_off_c, 1, 55, 0
2, 104280, Note_off_c, 1, 62, 0
2, 104280, Note_off_c, 1, 70, 0
2, 104280, Note_off_c, 1, 74, 0
2, 104280, Note_off_c, 1, 79, 0
2, 104280, Note_off_c, 1, 82, 0
2, 104320, Note_on_c, 1, 74, 127
2, 104480, Note_off_c, 1, 74, 0
2, 104520, Note_on_c, 1, 70, 127
2, 104680, Note_off_c, 1, 70, 0
2, 104720, Note_on_c, 1, 72, 127
2, 104720, Note_on_c, 1, 84, 127
2, 104840, Note_off_c, 1, 72, 0
2, 104920, Note_on_c, 1, 72, 127
2, 105120, Note_on_c, 1, 48, 127
2, 105240, Note_off_c, 1, 48, 0
2, 105240, Note_off_c, 1, 72, 0
2, 105280, Note_on_c, 1, 53, 127
2, 105440, Note_off_c, 1, 53, 0
2, 105440, Note_off_c, 1, 84, 0
2, 105480, Note_on_c, 1, 54, 127
2, 105480, Note_on_c, 1, 84, 127
2, 105640, Note_off_c, 1, 54, 0
2, 105680, Note_on_c, 1, 62, 127
2, 105840, Note_off_c, 1, 62, 0
2, 105840, Note_off_c, 1, 84, 0
2, 105880, Note_on_c, 1, 53, 127
2, 105880, Note_on_c, 1, 82, 127
2, 106000, Note_off_c, 1, 53, 0
2, 106080, Note_on_c, 1, 62, 127
2, 106200, Note_off_c, 1, 62, 0
2, 106200, Note_off_c, 1, 82, 0
2, 106240, Note_on_c, 1, 82, 127
2, 106280, Note_on_c, 1, 65, 127
2, 106400, Note_off_c, 1, 65, 0
2, 106440, Note_on_c, 1, 67, 127
2, 106600, Note_off_c, 1, 67, 0
2, 106600, Note_off_c, 1, 82, 0
2, 106640, Note_on_c, 1, 53, 127
2, 106640, Note_on_c, 1, 69, 127
2, 106640, Note_on_c, 1, 75, 127
2, 106640, Note_on_c, 1, 81, 127
2, 107000, Note_off_c, 1, 53, 0
2, 107000, Note_off_c, 1, 69, 0
2, 107000, Note_off_c, 1, 81, 0
2, 107040, Note_on_c, 1, 67, 127
2, 107040, Note_on_c, 1, 70, 127
2, 107040, Note_on_c, 1, 82, 127
2, 107160, Note_off_c, 1, 75, 0
2, 107240, Note_on_c, 1, 75, 127
2, 107360, Note_off_c, 1, 67, 0
2, 107360, Note_off_c, 1, 70, 0
2, 107360, Note_off_c, 1, 82, 0
2, 107400, Note_on_c, 1, 65, 127
2, 107400, Note_on_c, 1, 69, 127
2, 107400, Note_on_c, 1, 81, 127
2, 107560, Note_off_c, 1, 65, 0
2, 107560, Note_off_c, 1, 69, 0
2, 107560, Note_off_c, 1, 81, 0
2, 107600, Note_on_c, 1, 63, 127
2, 107600, Note_on_c, 1, 70, 127
2, 107600, Note_on_c, 1, 82, 127
2, 107760, Note_off_c, 1, 70, 0
2, 107760, Note_off_c, 1, 82, 0
2, 107800, Note_on_c, 1, 67, 127
2, 107800, Note_on_c, 1, 82, 127
2, 107960, Note_off_c, 1, 67, 0
2, 107960, Note_off_c, 1, 82, 0
2, 108000, Note_on_c, 1, 67, 127
2, 108000, Note_on_c, 1, 82, 127
2, 108120, Note_off_c, 1, 63, 0
2, 108120, Note_off_c, 1, 67, 0
2, 108200, Note_on_c, 1, 63, 127
2, 108320, Note_off_c, 1, 75, 0
2, 108360, Note_on_c, 1, 72, 127
2, 108520, Note_off_c, 1, 63, 0
2, 108520, Note_off_c, 1, 82, 0
2, 108560, Note_on_c, 1, 53, 127
2, 108560, Note_on_c, 1, 57, 127
2, 108560, Note_on_c, 1, 81, 127
2, 108760, Note_off_c, 1, 81, 0
2, 108760, Note_on_c, 1, 84, 127
2, 108800, Note_on_c, 1, 81, 127
2, 108800, Note_off_c, 1, 84, 0
2, 108880, Note_off_c, 1, 57, 0
2, 108880, Note_off_c, 1, 72, 0
2, 108880, Note_off_c, 1, 81, 0
2, 108960, Note_on_c, 1, 62, 127
2, 108960, Note_on_c, 1, 70, 127
2, 108960, Note_on_c, 1, 79, 127
2, 109280, Note_off_c, 1, 62, 0
2, 109280, Note_off_c, 1, 70, 0
2, 109280, Note_off_c, 1, 79, 0
2, 109320, Note_on_c, 1, 57, 127
2, 109320, Note_on_c, 1, 72, 127
2, 109320, Note_on_c, 1, 84, 127
2, 110040, Note_off_c, 1, 57, 0
2, 110040, Note_off_c, 1, 72, 0
2, 110040, Note_off_c, 1, 84, 0
2, 110120, Note_on_c, 1, 68, 127
2, 110120, Note_on_c, 1, 73, 127
2, 110440, Note_off_c, 1, 53, 0
2, 110440, Note_off_c, 1, 68, 0
2, 110440, Note_off_c, 1, 73, 0
2, 110480, Note_on_c, 1, 51, 127
2, 110480, Note_on_c, 1, 67, 127
2, 110480, Note_on_c, 1, 72, 127
2, 110640, Note_on_c, 1, 86, 127
2, 110800, Note_off_c, 1, 51, 0
2, 110800, Note_off_c, 1, 67, 0
2, 110800, Note_off_c, 1, 72, 0
2, 110800, Note_off_c, 1, 86, 0
2, 110880, Note_on_c, 1, 50, 127
2, 110880, Note_on_c, 1, 53, 127
2, 110880, Note_on_c, 1, 70, 127
2, 110880, Note_on_c, 1, 82, 127
2, 111040, Note_on_c, 1, 68, 127
2, 111040, Note_off_c, 1, 70, 0
2, 111200, Note_off_c, 1, 68, 0
2, 111200, Note_off_c, 1, 82, 0
2, 111240, Note_on_c, 1, 70, 127
2, 111240, Note_on_c, 1, 83, 127
2, 111440, Note_off_c, 1, 70, 0
2, 111440, Note_on_c, 1, 72, 127
2, 111600, Note_off_c, 1, 50, 0
2, 111600, Note_off_c, 1, 72, 0
2, 111600, Note_off_c, 1, 83, 0
2, 111640, Note_on_c, 1, 46, 127
2, 111640, Note_on_c, 1, 62, 127
2, 111640, Note_on_c, 1, 72, 127
2, 111640, Note_on_c, 1, 86, 127
2, 111720, Note_on_c, 1, 71, 127
2, 111720, Note_off_c, 1, 72, 0
2, 111760, Note_off_c, 1, 71, 0
2, 111760, Note_off_c, 1, 86, 0
2, 111840, Note_on_c, 1, 75, 127
2, 111840, Note_on_c, 1, 81, 127
2, 111960, Note_off_c, 1, 62, 0
2, 111960, Note_off_c, 1, 75, 0
2, 111960, Note_off_c, 1, 81, 0
2, 112040, Note_on_c, 1, 72, 127
2, 112160, Note_off_c, 1, 72, 0
2, 112200, Note_on_c, 1, 74, 127
2, 112400, Note_on_c, 1, 77, 127
2, 112560, Note_off_c, 1, 77, 0
2, 112600, Note_on_c, 1, 82, 127
2, 112760, Note_off_c, 1, 82, 0
2, 112800, Note_on_c, 1, 82, 127
2, 112960, Note_off_c, 1, 82, 0
2, 113000, Note_on_c, 1, 80, 127
2, 113000, Note_on_c, 1, 82, 127
2, 113040, Note_off_c, 1, 82, 0
2, 113040, Note_on_c, 1, 84, 127
2, 113160, Note_off_c, 1, 46, 0
2, 113160, Note_off_c, 1, 53, 0
2, 113160, Note_off_c, 1, 74, 0
2, 113160, Note_off_c, 1, 80, 0
2, 113160, Note_off_c, 1, 84, 0
2, 113200, Note_on_c, 1, 48, 127
2, 113200, Note_on_c, 1, 77, 127
2, 113200, Note_on_c, 1, 81, 127
2, 113200, Note_on_c, 1, 86, 127
2, 113240, Note_on_c, 1, 84, 127
2, 113240, Note_off_c, 1, 86, 0
2, 113520, Note_off_c, 1, 48, 0
2, 113520, Note_off_c, 1, 77, 0
2, 113520, Note_off_c, 1, 81, 0
2, 113560, Note_on_c, 1, 74, 127
2, 113560, Note_on_c, 1, 77, 127
2, 113560, Note_on_c, 1, 81, 127
2, 113720, Note_off_c, 1, 77, 0
2, 113720, Note_off_c, 1, 84, 0
2, 113760, Note_on_c, 1, 79, 127
2, 113760, Note_off_c, 1, 81, 0
2, 113760, Note_on_c, 1, 82, 127
2, 113920, Note_off_c, 1, 74, 0
2, 113920, Note_off_c, 1, 79, 0
2, 113920, Note_off_c, 1, 82, 0
2, 113960, Note_on_c, 1, 58, 127
2, 113960, Note_on_c, 1, 74, 127
2, 113960, Note_on_c, 1, 79, 127
2, 113960, Note_on_c, 1, 82, 127
2, 114120, Note_off_c, 1, 82, 0
2, 114160, Note_on_c, 1, 82, 127
2, 114320, Note_off_c, 1, 79, 0
2, 114320, Note_off_c, 1, 82, 0
2, 114360, Note_on_c, 1, 46, 127
2, 114360, Note_on_c, 1, 81, 127
2, 114680, Note_off_c, 1, 58, 0
2, 114680, Note_off_c, 1, 81, 0
2, 114720, Note_on_c, 1, 53, 127
2, 114720, Note_on_c, 1, 82, 127
2, 115080, Note_off_c, 1, 46, 0
2, 115080, Note_off_c, 1, 53, 0
2, 115120, Note_on_c, 1, 58, 127
2, 115240, Note_off_c, 1, 58, 0
2, 115240, Note_off_c, 1, 74, 0
2, 115240, Note_off_c, 1, 82, 0
2, 115320, Note_on_c, 1, 57, 127
2, 115320, Note_on_c, 1, 81, 127
2, 115440, Note_off_c, 1, 57, 0
2, 115440, Note_off_c, 1, 81, 0
2, 115480, Note_on_c, 1, 46, 127
2, 115480, Note_on_c, 1, 79, 127
2, 115480, Note_on_c, 1, 82, 127
2, 115640, Note_off_c, 1, 46, 0
2, 115680, Note_on_c, 1, 46, 127
2, 115840, Note_off_c, 1, 46, 0
2, 115840, Note_off_c, 1, 79, 0
2, 115840, Note_off_c, 1, 82, 0
2, 115880, Note_on_c, 1, 50, 127
2, 115880, Note_on_c, 1, 77, 127
2, 115880, Note_on_c, 1, 82, 127
2, 116040, Note_off_c, 1, 50, 0
2, 116080, Note_on_c, 1, 46, 127
2, 116240, Note_off_c, 1, 46, 0
2, 116280, Note_on_c, 1, 43, 127
2, 116440, Note_off_c, 1, 43, 0
2, 116480, Note_on_c, 1, 43, 127
2, 116600, Note_off_c, 1, 43, 0
2, 116600, Note_off_c, 1, 77, 0
2, 116600, Note_off_c, 1, 82, 0
2, 116680, Note_on_c, 1, 45, 127
2, 116680, Note_on_c, 1, 75, 127
2, 116680, Note_on_c, 1, 84, 127
2, 116800, Note_off_c, 1, 45, 0
2, 116800, Note_off_c, 1, 75, 0
2, 116800, Note_off_c, 1, 84, 0
2, 116840, Note_on_c, 1, 46, 127
2, 116840, Note_on_c, 1, 74, 127
2, 116840, Note_on_c, 1, 82, 127
2, 117000, Note_off_c, 1, 46, 0
2, 117000, Note_off_c, 1, 74, 0
2, 117040, Note_on_c, 1, 46, 127
2, 117040, Note_on_c, 1, 75, 127
2, 117200, Note_off_c, 1, 46, 0
2, 117200, Note_off_c, 1, 75, 0
2, 117240, Note_on_c, 1, 50, 127
2, 117240, Note_on_c, 1, 74, 127
2, 117400, Note_off_c, 1, 50, 0
2, 117400, Note_off_c, 1, 74, 0
2, 117440, Note_on_c, 1, 51, 127
2, 117440, Note_on_c, 1, 72, 127
2, 117600, Note_off_c, 1, 51, 0
2, 117640, Note_on_c, 1, 48, 127
2, 117760, Note_off_c, 1, 48, 0
2, 117840, Note_on_c, 1, 51, 127
2, 117960, Note_off_c, 1, 51, 0
2, 118000, Note_on_c, 1, 52, 127
2, 118160, Note_off_c, 1, 52, 0
2, 118160, Note_off_c, 1, 72, 0
2, 118160, Note_off_c, 1, 82, 0
2, 118200, Note_on_c, 1, 53, 127
2, 118400, Note_on_c, 1, 77, 127
2, 118560, Note_off_c, 1, 77, 0
2, 118600, Note_on_c, 1, 57, 127
2, 118600, Note_on_c, 1, 75, 127
2, 119120, Note_off_c, 1, 75, 0
2, 119160, Note_on_c, 1, 72, 127
2, 119320, Note_off_c, 1, 53, 0
2, 119320, Note_off_c, 1, 57, 0
2, 119320, Note_off_c, 1, 72, 0
2, 119360, Note_on_c, 1, 58, 127
2, 119360, Note_on_c, 1, 74, 127
2, 119520, Note_off_c, 1, 74, 0
2, 119560, Note_on_c, 1, 72, 127
2, 119680, Note_off_c, 1, 58, 0
2, 119680, Note_off_c, 1, 72, 0
2, 119760, Note_on_c, 1, 46, 127
2, 119760, Note_on_c, 1, 72, 127
2, 119760, Note_on_c, 1, 75, 127
2, 119880, Note_off_c, 1, 72, 0
2, 119880, Note_off_c, 1, 75, 0
2, 119920, Note_on_c, 1, 74, 127
2, 119920, Note_on_c, 1, 77, 127
2, 120080, Note_off_c, 1, 46, 0
2, 120080, Note_off_c, 1, 74, 0
2, 120080, Note_off_c, 1, 77, 0
2, 120120, Note_on_c, 1, 51, 127
2, 120120, Note_on_c, 1, 75, 127
2, 120120, Note_on_c, 1, 79, 127
2, 120120, Note_on_c, 1, 82, 127
2, 120480, Note_off_c, 1, 51, 0
2, 120520, Note_on_c, 1, 55, 127
2, 120840, Note_off_c, 1, 55, 0
2, 120920, Note_on_c, 1, 57, 127
2, 121040, Note_off_c, 1, 57, 0
2, 121080, Note_on_c, 1, 58, 127
2, 121240, Note_off_c, 1, 58, 0
2, 121280, Note_on_c, 1, 57, 127
2, 121440, Note_off_c, 1, 57, 0
2, 121480, Note_on_c, 1, 55, 127
2, 121600, Note_off_c, 1, 55, 0
2, 121680, Note_on_c, 1, 53, 127
2, 121760, Note_off_c, 1, 79, 0
2, 121760, Note_off_c, 1, 82, 0
2, 121800, Note_off_c, 1, 53, 0
2, 121880, Note_on_c, 1, 57, 127
2, 122000, Note_off_c, 1, 57, 0
2, 122000, Note_off_c, 1, 75, 0
2, 122040, Note_on_c, 1, 50, 127
2, 122040, Note_on_c, 1, 77, 127
2, 122040, Note_on_c, 1, 84, 127
2, 122120, Note_off_c, 1, 84, 0
2, 122160, Note_on_c, 1, 82, 127
2, 122200, Note_off_c, 1, 50, 0
2, 122200, Note_off_c, 1, 82, 0
2, 122240, Note_on_c, 1, 58, 127
2, 122240, Note_on_c, 1, 86, 127
2, 122400, Note_off_c, 1, 58, 0
2, 122400, Note_off_c, 1, 77, 0
2, 122400, Note_off_c, 1, 86, 0
2, 122440, Note_on_c, 1, 53, 127
2, 122440, Note_on_c, 1, 81, 127
2, 122440, Note_on_c, 1, 87, 127
2, 122600, Note_off_c, 1, 53, 0
2, 122640, Note_on_c, 1, 60, 127
2, 122760, Note_off_c, 1, 60, 0
2, 122760, Note_off_c, 1, 81, 0
2, 122760, Note_off_c, 1, 87, 0
2, 122840, Note_on_c, 1, 82, 127
2, 122960, Note_off_c, 1, 82, 0
2, 123000, Note_on_c, 1, 79, 127
2, 123000, Note_on_c, 1, 86, 127
2, 123160, Note_off_c, 1, 79, 0
2, 123160, Note_off_c, 1, 86, 0
2, 123200, Note_on_c, 1, 52, 127
2, 123200, Note_on_c, 1, 80, 127
2, 123200, Note_on_c, 1, 87, 127
2, 123360, Note_off_c, 1, 52, 0
2, 123400, Note_on_c, 1, 63, 127
2, 123560, Note_off_c, 1, 63, 0
2, 123560, Note_off_c, 1, 80, 0
2, 123560, Note_off_c, 1, 87, 0
2, 123600, Note_on_c, 1, 63, 127
2, 123600, Note_on_c, 1, 82, 127
2, 123600, Note_on_c, 1, 84, 127
2, 123760, Note_off_c, 1, 63, 0
2, 123760, Note_off_c, 1, 82, 0
2, 123800, Note_on_c, 1, 60, 127
2, 123920, Note_off_c, 1, 60, 0
2, 123920, Note_off_c, 1, 84, 0
2, 124000, Note_on_c, 1, 53, 127
2, 124000, Note_on_c, 1, 80, 127
2, 124000, Note_on_c, 1, 84, 127
2, 124120, Note_off_c, 1, 53, 0
2, 124120, Note_off_c, 1, 80, 0
2, 124160, Note_on_c, 1, 60, 127
2, 124160, Note_on_c, 1, 79, 127
2, 124320, Note_off_c, 1, 60, 0
2, 124320, Note_off_c, 1, 79, 0
2, 124320, Note_off_c, 1, 84, 0
2, 124360, Note_on_c, 1, 53, 127
2, 124360, Note_on_c, 1, 80, 127
2, 124360, Note_on_c, 1, 84, 127
2, 124520, Note_off_c, 1, 53, 0
2, 124560, Note_on_c, 1, 60, 127
2, 124680, Note_off_c, 1, 60, 0
2, 124680, Note_off_c, 1, 80, 0
2, 124680, Note_off_c, 1, 84, 0
2, 124760, Note_on_c, 1, 50, 127
2, 124760, Note_on_c, 1, 82, 127
2, 124760, Note_on_c, 1, 84, 127
2, 124880, Note_off_c, 1, 50, 0
2, 124920, Note_on_c, 1, 65, 127
2, 125080, Note_off_c, 1, 65, 0
2, 125120, Note_on_c, 1, 48, 127
2, 125120, Note_on_c, 1, 75, 127
2, 125120, Note_off_c, 1, 82, 0
2, 125280, Note_off_c, 1, 48, 0
2, 125320, Note_on_c, 1, 63, 127
2, 125480, Note_off_c, 1, 63, 0
2, 125480, Note_off_c, 1, 75, 0
2, 125480, Note_off_c, 1, 84, 0
2, 125520, Note_on_c, 1, 46, 127
2, 125520, Note_on_c, 1, 74, 127
2, 125520, Note_on_c, 1, 82, 127
2, 125640, Note_off_c, 1, 46, 0
2, 125640, Note_off_c, 1, 74, 0
2, 125720, Note_on_c, 1, 58, 127
2, 125720, Note_on_c, 1, 77, 127
2, 125840, Note_off_c, 1, 58, 0
2, 125840, Note_off_c, 1, 77, 0
2, 125840, Note_off_c, 1, 82, 0
2, 125880, Note_on_c, 1, 44, 127
2, 125880, Note_on_c, 1, 80, 127
2, 125880, Note_on_c, 1, 84, 127
2, 126040, Note_off_c, 1, 44, 0
2, 126080, Note_on_c, 1, 60, 127
2, 126240, Note_off_c, 1, 60, 0
2, 126240, Note_off_c, 1, 80, 0
2, 126240, Note_off_c, 1, 84, 0
2, 126280, Note_on_c, 1, 46, 127
2, 126280, Note_on_c, 1, 82, 127
2, 126440, Note_off_c, 1, 46, 0
2, 126480, Note_on_c, 1, 58, 127
2, 126600, Note_off_c, 1, 58, 0
2, 126600, Note_off_c, 1, 82, 0
2, 126680, Note_on_c, 1, 48, 127
2, 126680, Note_on_c, 1, 75, 127
2, 126680, Note_on_c, 1, 84, 127
2, 126800, Note_off_c, 1, 48, 0
2, 126840, Note_on_c, 1, 58, 127
2, 127000, Note_off_c, 1, 58, 0
2, 127000, Note_off_c, 1, 75, 0
2, 127000, Note_off_c, 1, 84, 0
2, 127040, Note_on_c, 1, 63, 127
2, 127200, Note_off_c, 1, 63, 0
2, 127240, Note_on_c, 1, 65, 127
2, 127400, Note_off_c, 1, 65, 0
2, 127440, Note_on_c, 1, 46, 127
2, 127440, Note_on_c, 1, 75, 127
2, 127560, Note_off_c, 1, 75, 0
2, 127640, Note_on_c, 1, 74, 127
2, 127760, Note_off_c, 1, 46, 0
2, 127760, Note_off_c, 1, 74, 0
2, 127800, Note_on_c, 1, 62, 127
2, 127800, Note_on_c, 1, 65, 127
2, 127800, Note_on_c, 1, 70, 127
2, 127960, Note_off_c, 1, 70, 0
2, 128000, Note_on_c, 1, 69, 127
2, 128160, Note_off_c, 1, 62, 0
2, 128160, Note_off_c, 1, 65, 0
2, 128160, Note_off_c, 1, 69, 0
2, 128200, Note_on_c, 1, 62, 127
2, 128200, Note_on_c, 1, 65, 127
2, 128200, Note_on_c, 1, 70, 127
2, 128360, Note_off_c, 1, 70, 0
2, 128400, Note_on_c, 1, 69, 127
2, 128520, Note_off_c, 1, 62, 0
2, 128520, Note_off_c, 1, 65, 0
2, 128520, Note_off_c, 1, 69, 0
2, 128600, Note_on_c, 1, 65, 127
2, 128600, Note_on_c, 1, 70, 127
2, 128600, Note_on_c, 1, 74, 127
2, 128920, Note_off_c, 1, 65, 0
2, 128920, Note_off_c, 1, 70, 0
2, 128920, Note_off_c, 1, 74, 0
2, 128960, Note_on_c, 1, 58, 127
2, 128960, Note_on_c, 1, 70, 127
2, 128960, Note_on_c, 1, 74, 127
2, 129120, Note_off_c, 1, 70, 0
2, 129120, Note_off_c, 1, 74, 0
2, 129160, Note_on_c, 1, 70, 127
2, 129320, Note_off_c, 1, 58, 0
2, 129320, Note_off_c, 1, 70, 0
2, 129360, Note_on_c, 1, 63, 127
2, 129360, Note_on_c, 1, 70, 127
2, 129360, Note_on_c, 1, 74, 127
2, 129480, Note_off_c, 1, 70, 0
2, 129480, Note_off_c, 1, 74, 0
2, 129560, Note_on_c, 1, 70, 127
2, 129560, Note_on_c, 1, 74, 127
2, 129680, Note_off_c, 1, 63, 0
2, 129680, Note_off_c, 1, 70, 0
2, 129680, Note_off_c, 1, 74, 0
2, 129720, Note_on_c, 1, 65, 127
2, 129720, Note_on_c, 1, 70, 127
2, 129720, Note_on_c, 1, 74, 127
2, 129880, Note_off_c, 1, 74, 0
2, 129920, Note_on_c, 1, 72, 127
2, 130080, Note_off_c, 1, 65, 0
2, 130080, Note_off_c, 1, 70, 0
2, 130080, Note_off_c, 1, 72, 0
2, 130120, Note_on_c, 1, 62, 127
2, 130120, Note_on_c, 1, 70, 127
2, 130440, Note_off_c, 1, 62, 0
2, 130440, Note_off_c, 1, 70, 0
2, 130480, Note_on_c, 1, 56, 127
2, 130480, Note_on_c, 1, 58, 127
2, 130480, Note_on_c, 1, 70, 127
2, 130640, Note_off_c, 1, 70, 0
2, 130680, Note_on_c, 1, 68, 127
2, 130840, Note_off_c, 1, 56, 0
2, 130840, Note_off_c, 1, 58, 0
2, 130840, Note_off_c, 1, 68, 0
2, 130880, Note_on_c, 1, 56, 127
2, 130880, Note_on_c, 1, 72, 127
2, 130880, Note_on_c, 1, 84, 127
2, 130880, Note_on_c, 1, 86, 127
2, 131000, Note_off_c, 1, 86, 0
2, 131200, Note_off_c, 1, 56, 0
2, 131200, Note_off_c, 1, 84, 0
2, 131240, Note_on_c, 1, 53, 127
2, 131240, Note_on_c, 1, 68, 127
2, 131240, Note_on_c, 1, 84, 127
2, 131400, Note_off_c, 1, 84, 0
2, 131440, Note_on_c, 1, 82, 127
2, 131600, Note_off_c, 1, 53, 0
2, 131600, Note_off_c, 1, 68, 0
2, 131600, Note_off_c, 1, 72, 0
2, 131600, Note_off_c, 1, 82, 0
2, 131640, Note_on_c, 1, 53, 127
2, 131640, Note_on_c, 1, 68, 127
2, 131640, Note_on_c, 1, 72, 127
2, 131640, Note_on_c, 1, 81, 127
2, 131800, Note_off_c, 1, 81, 0
2, 131840, Note_on_c, 1, 80, 127
2, 131960, Note_off_c, 1, 53, 0
2, 131960, Note_off_c, 1, 68, 0
2, 131960, Note_off_c, 1, 72, 0
2, 131960, Note_off_c, 1, 80, 0
2, 132040, Note_on_c, 1, 53, 127
2, 132040, Note_on_c, 1, 68, 127
2, 132040, Note_on_c, 1, 80, 127
2, 132160, Note_off_c, 1, 68, 0
2, 132160, Note_off_c, 1, 80, 0
2, 132200, Note_on_c, 1, 68, 127
2, 132200, Note_on_c, 1, 74, 127
2, 132360, Note_off_c, 1, 53, 0
2, 132360, Note_off_c, 1, 68, 0
2, 132360, Note_off_c, 1, 74, 0
2, 132400, Note_on_c, 1, 53, 127
2, 132400, Note_on_c, 1, 63, 127
2, 132400, Note_on_c, 1, 74, 127
2, 132560, Note_off_c, 1, 63, 0
2, 132560, Note_off_c, 1, 74, 0
2, 132600, Note_on_c, 1, 65, 127
2, 132600, Note_on_c, 1, 71, 127
2, 132760, Note_off_c, 1, 53, 0
2, 132760, Note_off_c, 1, 65, 0
2, 132760, Note_off_c, 1, 71, 0
2, 132800, Note_on_c, 1, 55, 127
2, 132800, Note_on_c, 1, 63, 127
2, 132800, Note_on_c, 1, 72, 127
2, 132920, Note_off_c, 1, 63, 0
2, 132920, Note_off_c, 1, 72, 0
2, 133000, Note_on_c, 1, 62, 127
2, 133000, Note_on_c, 1, 70, 127
2, 133120, Note_off_c, 1, 55, 0
2, 133120, Note_off_c, 1, 62, 0
2, 133120, Note_off_c, 1, 70, 0
2, 133160, Note_on_c, 1, 55, 127
2, 133160, Note_on_c, 1, 63, 127
2, 133160, Note_on_c, 1, 72, 127
2, 133320, Note_off_c, 1, 72, 0
2, 133360, Note_on_c, 1, 70, 127
2, 133520, Note_off_c, 1, 55, 0
2, 133520, Note_off_c, 1, 63, 0
2, 133520, Note_off_c, 1, 70, 0
2, 133560, Note_on_c, 1, 51, 127
2, 133560, Note_on_c, 1, 63, 127
2, 133560, Note_on_c, 1, 67, 127
2, 133680, Note_off_c, 1, 67, 0
2, 133760, Note_on_c, 1, 70, 127
2, 133880, Note_off_c, 1, 51, 0
2, 133880, Note_off_c, 1, 63, 0
2, 133880, Note_off_c, 1, 70, 0
2, 133920, Note_on_c, 1, 48, 127
2, 133920, Note_on_c, 1, 63, 127
2, 134080, Note_off_c, 1, 63, 0
2, 134120, Note_on_c, 1, 72, 127
2, 134280, Note_off_c, 1, 48, 0
2, 134280, Note_off_c, 1, 72, 0
2, 134320, Note_on_c, 1, 51, 127
2, 134320, Note_on_c, 1, 62, 127
2, 134320, Note_on_c, 1, 72, 127
2, 134480, Note_off_c, 1, 62, 0
2, 134520, Note_on_c, 1, 65, 127
2, 134640, Note_off_c, 1, 51, 0
2, 134640, Note_off_c, 1, 65, 0
2, 134640, Note_off_c, 1, 72, 0
2, 134720, Note_on_c, 1, 74, 127
2, 134840, Note_off_c, 1, 74, 0
2, 134880, Note_on_c, 1, 74, 127
2, 135040, Note_off_c, 1, 74, 0
2, 135080, Note_on_c, 1, 53, 127
2, 135080, Note_on_c, 1, 58, 127
2, 135080, Note_on_c, 1, 74, 127
2, 135240, Note_off_c, 1, 74, 0
2, 135280, Note_on_c, 1, 75, 127
2, 135400, Note_off_c, 1, 58, 0
2, 135400, Note_off_c, 1, 75, 0
2, 135480, Note_on_c, 1, 56, 127
2, 135480, Note_on_c, 1, 72, 127
2, 135600, Note_off_c, 1, 72, 0
2, 135640, Note_on_c, 1, 71, 127
2, 135800, Note_off_c, 1, 53, 0
2, 135800, Note_off_c, 1, 56, 0
2, 135800, Note_off_c, 1, 71, 0
2, 135840, Note_on_c, 1, 58, 127
2, 135840, Note_on_c, 1, 62, 127
2, 135840, Note_on_c, 1, 68, 127
2, 135840, Note_on_c, 1, 74, 127
2, 136000, Note_off_c, 1, 68, 0
2, 136000, Note_off_c, 1, 74, 0
2, 136040, Note_on_c, 1, 70, 127
2, 136200, Note_off_c, 1, 58, 0
2, 136200, Note_off_c, 1, 62, 0
2, 136200, Note_off_c, 1, 70, 0
2, 136240, Note_on_c, 1, 65, 127
2, 136240, Note_on_c, 1, 68, 127
2, 136400, Note_off_c, 1, 68, 0
2, 136440, Note_on_c, 1, 67, 127
2, 136560, Note_off_c, 1, 65, 0
2, 136560, Note_off_c, 1, 67, 0
2, 136640, Note_on_c, 1, 48, 127
2, 136640, Note_on_c, 1, 51, 127
2, 136640, Note_on_c, 1, 60, 127
2, 136640, Note_on_c, 1, 65, 127
2, 136640, Note_on_c, 1, 68, 127
2, 136760, Note_off_c, 1, 68, 0
2, 136960, Note_off_c, 1, 48, 0
2, 136960, Note_off_c, 1, 51, 0
2, 136960, Note_off_c, 1, 65, 0
2, 137000, Note_on_c, 1, 46, 127
2, 137000, Note_on_c, 1, 53, 127
2, 137000, Note_on_c, 1, 63, 127
2, 137160, Note_off_c, 1, 63, 0
2, 137200, Note_on_c, 1, 62, 127
2, 137360, Note_off_c, 1, 46, 0
2, 137360, Note_off_c, 1, 53, 0
2, 137360, Note_off_c, 1, 60, 0
2, 137360, Note_off_c, 1, 62, 0
2, 137400, Note_on_c, 1, 51, 127
2, 137400, Note_on_c, 1, 55, 127
2, 137400, Note_on_c, 1, 60, 127
2, 137400, Note_on_c, 1, 63, 127
2, 137520, Note_off_c, 1, 63, 0
2, 137600, Note_on_c, 1, 62, 127
2, 137720, Note_off_c, 1, 51, 0
2, 137720, Note_off_c, 1, 55, 0
2, 137720, Note_off_c, 1, 62, 0
2, 137760, Note_on_c, 1, 63, 127
2, 137920, Note_off_c, 1, 63, 0
2, 138120, Note_off_c, 1, 60, 0
2, 138160, Note_on_c, 1, 51, 127
2, 138160, Note_on_c, 1, 56, 127
2, 138160, Note_on_c, 1, 60, 127
2, 138160, Note_on_c, 1, 64, 127
2, 138480, Note_off_c, 1, 51, 0
2, 138480, Note_off_c, 1, 56, 0
2, 138480, Note_off_c, 1, 60, 0
2, 138480, Note_off_c, 1, 64, 0
2, 138560, Note_on_c, 1, 48, 127
2, 138560, Note_on_c, 1, 55, 127
2, 138560, Note_on_c, 1, 60, 127
2, 138560, Note_on_c, 1, 63, 127
2, 138880, Note_off_c, 1, 48, 0
2, 138880, Note_off_c, 1, 55, 0
2, 138880, Note_off_c, 1, 60, 0
2, 138880, Note_off_c, 1, 63, 0
2, 138920, Note_on_c, 1, 45, 127
2, 138920, Note_on_c, 1, 61, 127
2, 138920, Note_on_c, 1, 68, 127
2, 139120, Note_on_c, 1, 60, 127
2, 139120, Note_off_c, 1, 61, 0
2, 139240, Note_off_c, 1, 45, 0
2, 139240, Note_off_c, 1, 60, 0
2, 139240, Note_off_c, 1, 68, 0
2, 139320, Note_on_c, 1, 60, 127
2, 139320, Note_on_c, 1, 75, 127
2, 139440, Note_off_c, 1, 75, 0
2, 139480, Note_on_c, 1, 77, 127
2, 139640, Note_off_c, 1, 60, 0
2, 139640, Note_off_c, 1, 77, 0
2, 139680, Note_on_c, 1, 61, 127
2, 139680, Note_on_c, 1, 77, 127
2, 139720, Note_off_c, 1, 77, 0
2, 139800, Note_on_c, 1, 75, 127
2, 139840, Note_off_c, 1, 75, 0
2, 139880, Note_on_c, 1, 77, 127
2, 140040, Note_off_c, 1, 61, 0
2, 140040, Note_off_c, 1, 77, 0
2, 140080, Note_on_c, 1, 56, 127
2, 140080, Note_on_c, 1, 68, 127
2, 140080, Note_on_c, 1, 72, 127
2, 140080, Note_on_c, 1, 77, 127
2, 140400, Note_off_c, 1, 77, 0
2, 140440, Note_on_c, 1, 78, 127
2, 140600, Note_off_c, 1, 78, 0
2, 140640, Note_on_c, 1, 75, 127
2, 140800, Note_off_c, 1, 56, 0
2, 140800, Note_off_c, 1, 68, 0
2, 140800, Note_off_c, 1, 72, 0
2, 140800, Note_off_c, 1, 75, 0
2, 140840, Note_on_c, 1, 61, 127
2, 140840, Note_on_c, 1, 65, 127
2, 140840, Note_on_c, 1, 68, 127
2, 140840, Note_on_c, 1, 73, 127
2, 141160, Note_off_c, 1, 68, 0
2, 141160, Note_off_c, 1, 73, 0
2, 141240, Note_on_c, 1, 71, 127
2, 141240, Note_on_c, 1, 77, 127
2, 141560, Note_off_c, 1, 61, 0
2, 141560, Note_off_c, 1, 65, 0
2, 141560, Note_off_c, 1, 71, 0
2, 141560, Note_off_c, 1, 77, 0
2, 141600, Note_on_c, 1, 60, 127
2, 141600, Note_on_c, 1, 63, 127
2, 141600, Note_on_c, 1, 68, 127
2, 142320, Note_off_c, 1, 60, 0
2, 142320, Note_off_c, 1, 63, 0
2, 142320, Note_off_c, 1, 68, 0
2, 142400, Note_on_c, 1, 56, 127
2, 142400, Note_on_c, 1, 72, 127
2, 142720, Note_off_c, 1, 56, 0
2, 142720, Note_off_c, 1, 72, 0
2, 142760, Note_on_c, 1, 60, 127
2, 142760, Note_on_c, 1, 63, 127
2, 142760, Note_on_c, 1, 70, 127
2, 142760, Note_on_c, 1, 72, 127
2, 142920, Note_off_c, 1, 72, 0
2, 142960, Note_on_c, 1, 80, 127
2, 143120, Note_off_c, 1, 60, 0
2, 143120, Note_off_c, 1, 63, 0
2, 143120, Note_off_c, 1, 70, 0
2, 143120, Note_off_c, 1, 80, 0
2, 143160, Note_on_c, 1, 63, 127
2, 143160, Note_on_c, 1, 67, 127
2, 143160, Note_on_c, 1, 82, 127
2, 143480, Note_off_c, 1, 63, 0
2, 143480, Note_off_c, 1, 67, 0
2, 143480, Note_off_c, 1, 82, 0
2, 143560, Note_on_c, 1, 63, 127
2, 143560, Note_on_c, 1, 67, 127
2, 143560, Note_on_c, 1, 75, 127
2, 143560, Note_on_c, 1, 79, 127
2, 144640, Note_off_c, 1, 79, 0
2, 144680, Note_on_c, 1, 79, 127
2, 145400, Note_off_c, 1, 63, 0
2, 145400, Note_off_c, 1, 67, 0
2, 145400, Note_off_c, 1, 75, 0
2, 145400, Note_off_c, 1, 79, 0
2, 145440, Note_on_c, 1, 58, 127
2, 145440, Note_on_c, 1, 63, 127
2, 145440, Note_on_c, 1, 67, 127
2, 145440, Note_on_c, 1, 75, 127
2, 145600, Note_off_c, 1, 75, 0
2, 145640, Note_on_c, 1, 77, 127
2, 145760, Note_on_c, 1, 64, 127
2, 145760, Note_off_c, 1, 77, 0
2, 145800, Note_off_c, 1, 64, 0
2, 145840, Note_on_c, 1, 79, 127
2, 145960, Note_off_c, 1, 79, 0
2, 146040, Note_off_c, 1, 58, 0
2, 146040, Note_off_c, 1, 63, 0
2, 146040, Note_off_c, 1, 67, 0
2, 146120, Note_on_c, 1, 79, 127
2, 146160, Note_off_c, 1, 79, 0
2, 146200, Note_on_c, 1, 63, 127
2, 146200, Note_on_c, 1, 67, 127
2, 146200, Note_on_c, 1, 79, 127
2, 146560, Note_off_c, 1, 63, 0
2, 146560, Note_off_c, 1, 67, 0
2, 146560, Note_off_c, 1, 79, 0
2, 146600, Note_on_c, 1, 62, 127
2, 146600, Note_on_c, 1, 65, 127
2, 146600, Note_on_c, 1, 82, 127
2, 146760, Note_off_c, 1, 82, 0
2, 146800, Note_on_c, 1, 84, 127
2, 146920, Note_off_c, 1, 62, 0
2, 146920, Note_off_c, 1, 65, 0
2, 146920, Note_off_c, 1, 84, 0
2, 147000, Note_on_c, 1, 63, 127
2, 147000, Note_on_c, 1, 67, 127
2, 147000, Note_on_c, 1, 84, 127
2, 147320, Note_off_c, 1, 84, 0
2, 147360, Note_on_c, 1, 84, 127
2, 147520, Note_off_c, 1, 84, 0
2, 147560, Note_on_c, 1, 82, 127
2, 147720, Note_off_c, 1, 63, 0
2, 147720, Note_off_c, 1, 67, 0
2, 147720, Note_off_c, 1, 82, 0
2, 147760, Note_on_c, 1, 62, 127
2, 147760, Note_on_c, 1, 67, 127
2, 147760, Note_on_c, 1, 82, 127
2, 148480, Note_off_c, 1, 62, 0
2, 148520, Note_on_c, 1, 63, 127
2, 148680, Note_off_c, 1, 82, 0
2, 148720, Note_on_c, 1, 84, 127
2, 148880, Note_off_c, 1, 84, 0
2, 148920, Note_on_c, 1, 84, 127
2, 149240, Note_off_c, 1, 84, 0
2, 149280, Note_on_c, 1, 82, 127
2, 149440, Note_off_c, 1, 82, 0
2, 149480, Note_on_c, 1, 77, 127
2, 149640, Note_off_c, 1, 67, 0
2, 149640, Note_off_c, 1, 77, 0
2, 149680, Note_on_c, 1, 66, 127
2, 149680, Note_on_c, 1, 79, 127
2, 149840, Note_off_c, 1, 79, 0
2, 149880, Note_on_c, 1, 78, 127
2, 150040, Note_off_c, 1, 63, 0
2, 150040, Note_off_c, 1, 66, 0
2, 150040, Note_off_c, 1, 78, 0
2, 150080, Note_on_c, 1, 58, 127
2, 150080, Note_on_c, 1, 62, 127
2, 150080, Note_on_c, 1, 65, 127
2, 150080, Note_on_c, 1, 79, 127
2, 150200, Note_off_c, 1, 79, 0
2, 150280, Note_on_c, 1, 81, 127
2, 150400, Note_off_c, 1, 58, 0
2, 150400, Note_off_c, 1, 62, 0
2, 150400, Note_off_c, 1, 65, 0
2, 150400, Note_off_c, 1, 81, 0
2, 150440, Note_on_c, 1, 58, 127
2, 150440, Note_on_c, 1, 63, 127
2, 150440, Note_on_c, 1, 70, 127
2, 150440, Note_on_c, 1, 82, 127
2, 150600, Note_off_c, 1, 82, 0
2, 150640, Note_on_c, 1, 82, 127
2, 150800, Note_off_c, 1, 63, 0
2, 150800, Note_off_c, 1, 82, 0
2, 150840, Note_on_c, 1, 62, 127
2, 150840, Note_on_c, 1, 81, 127
2, 151000, Note_off_c, 1, 81, 0
2, 151040, Note_on_c, 1, 79, 127
2, 151200, Note_off_c, 1, 58, 0
2, 151200, Note_off_c, 1, 62, 0
2, 151200, Note_off_c, 1, 70, 0
2, 151200, Note_off_c, 1, 79, 0
2, 151240, Note_on_c, 1, 64, 127
2, 151240, Note_on_c, 1, 68, 127
2, 151240, Note_on_c, 1, 78, 127
2, 151240, Note_on_c, 1, 79, 127
2, 151280, Note_off_c, 1, 78, 0
2, 151280, Note_on_c, 1, 82, 127
2, 151360, Note_off_c, 1, 68, 0
2, 151360, Note_on_c, 1, 70, 127
2, 151360, Note_off_c, 1, 82, 0
2, 151400, Note_on_c, 1, 68, 127
2, 151400, Note_off_c, 1, 70, 0
2, 151400, Note_on_c, 1, 77, 127
2, 151400, Note_off_c, 1, 79, 0
2, 151440, Note_on_c, 1, 70, 127
2, 151440, Note_off_c, 1, 77, 0
2, 151440, Note_on_c, 1, 79, 127
2, 151560, Note_off_c, 1, 64, 0
2, 151560, Note_off_c, 1, 68, 0
2, 151560, Note_off_c, 1, 70, 0
2, 151560, Note_off_c, 1, 79, 0
2, 151600, Note_on_c, 1, 56, 127
2, 151600, Note_on_c, 1, 60, 127
2, 151600, Note_on_c, 1, 65, 127
2, 151600, Note_on_c, 1, 68, 127
2, 151600, Note_on_c, 1, 80, 127
2, 151760, Note_off_c, 1, 68, 0
2, 151760, Note_off_c, 1, 80, 0
2, 151800, Note_on_c, 1, 72, 127
2, 151800, Note_on_c, 1, 84, 127
2, 151960, Note_off_c, 1, 56, 0
2, 151960, Note_off_c, 1, 60, 0
2, 151960, Note_off_c, 1, 65, 0
2, 151960, Note_off_c, 1, 72, 0
2, 151960, Note_off_c, 1, 84, 0
2, 152000, Note_on_c, 1, 58, 127
2, 152000, Note_on_c, 1, 62, 127
2, 152000, Note_on_c, 1, 65, 127
2, 152000, Note_on_c, 1, 84, 127
2, 152160, Note_off_c, 1, 84, 0
2, 152200, Note_on_c, 1, 84, 127
2, 152320, Note_off_c, 1, 58, 0
2, 152320, Note_off_c, 1, 62, 0
2, 152320, Note_off_c, 1, 65, 0
2, 152320, Note_off_c, 1, 84, 0
2, 152400, Note_on_c, 1, 82, 127
2, 152520, Note_off_c, 1, 82, 0
2, 152560, Note_on_c, 1, 81, 127
2, 152720, Note_off_c, 1, 81, 0
2, 152760, Note_on_c, 1, 77, 127
2, 152760, Note_on_c, 1, 82, 127
2, 152920, Note_off_c, 1, 77, 0
2, 152920, Note_off_c, 1, 82, 0
2, 152960, Note_on_c, 1, 77, 127
2, 152960, Note_on_c, 1, 89, 127
2, 153120, Note_off_c, 1, 77, 0
2, 153120, Note_off_c, 1, 89, 0
2, 153160, Note_on_c, 1, 48, 127
2, 153160, Note_on_c, 1, 51, 127
2, 153160, Note_on_c, 1, 58, 127
2, 153160, Note_on_c, 1, 63, 127
2, 153280, Note_off_c, 1, 51, 0
2, 153280, Note_off_c, 1, 58, 0
2, 153480, Note_off_c, 1, 48, 0
2, 153480, Note_off_c, 1, 63, 0
2, 153520, Note_on_c, 1, 46, 127
2, 153520, Note_on_c, 1, 50, 127
2, 153520, Note_on_c, 1, 56, 127
2, 153520, Note_on_c, 1, 60, 127
2, 153520, Note_on_c, 1, 65, 127
2, 153520, Note_on_c, 1, 77, 127
2, 153680, Note_off_c, 1, 60, 0
2, 153880, Note_off_c, 1, 46, 0
2, 153880, Note_off_c, 1, 50, 0
2, 153880, Note_off_c, 1, 56, 0
2, 153880, Note_off_c, 1, 65, 0
2, 153880, Note_off_c, 1, 77, 0
2, 153920, Note_on_c, 1, 57, 127
2, 153920, Note_on_c, 1, 63, 127
2, 153920, Note_on_c, 1, 84, 127
2, 153920, Note_on_c, 1, 87, 127
2, 154200, Note_off_c, 1, 63, 0
2, 154320, Note_on_c, 1, 34, 127
2, 154320, Note_on_c, 1, 46, 127
2, 154440, Note_off_c, 1, 57, 0
2, 154440, Note_off_c, 1, 87, 0
2, 154480, Note_off_c, 1, 34, 0
2, 154480, Note_on_c, 1, 43, 127
2, 154520, Note_on_c, 1, 86, 127
2, 154560, Note_off_c, 1, 43, 0
2, 154560, Note_off_c, 1, 46, 0
2, 154560, Note_off_c, 1, 84, 0
2, 154560, Note_off_c, 1, 86, 0
2, 154600, Note_on_c, 1, 46, 127
2, 154600, Note_on_c, 1, 82, 127
2, 154600, Note_on_c, 1, 86, 127
2, 154680, Note_off_c, 1, 46, 0
2, 154680, Note_off_c, 1, 82, 0
2, 154680, Note_off_c, 1, 86, 0
2, 154720, Note_on_c, 1, 46, 127
2, 154720, Note_on_c, 1, 58, 127
2, 154720, Note_on_c, 1, 60, 127
2, 154720, Note_on_c, 1, 81, 127
2, 154720, Note_on_c, 1, 82, 127
2, 154720, Note_on_c, 1, 87, 127
2, 154720, Note_on_c, 1, 90, 127
2, 154760, Note_off_c, 1, 82, 0
2, 154760, Note_on_c, 1, 85, 127
2, 154760, Note_off_c, 1, 90, 0
2, 154760, Note_on_c, 1, 92, 127
2, 154800, Note_off_c, 1, 87, 0
2, 154800, Note_on_c, 1, 89, 127
2, 154800, Note_off_c, 1, 92, 0
2, 154840, Note_off_c, 1, 60, 0
2, 154840, Note_on_c, 1, 65, 127
2, 154840, Note_on_c, 1, 92, 127
2, 155080, Note_off_c, 1, 46, 0
2, 155080, Note_off_c, 1, 58, 0
2, 155080, Note_off_c, 1, 65, 0
2, 155080, Note_off_c, 1, 81, 0
2, 155080, Note_off_c, 1, 85, 0
2, 155080, Note_off_c, 1, 89, 0
2, 155080, Note_off_c, 1, 92, 0
2, 157280, Note_on_c, 1, 77, 127
2, 157440, Note_off_c, 1, 77, 0
2, 157600, Note_on_c, 1, 75, 127
2, 157640, Note_off_c, 1, 75, 0
2, 157680, Note_on_c, 1, 74, 127
2, 157840, Note_off_c, 1, 74, 0
2, 158040, Note_on_c, 1, 65, 127
2, 158040, Note_on_c, 1, 74, 127
2, 158400, Note_off_c, 1, 65, 0
2, 158400, Note_off_c, 1, 74, 0
2, 158840, Note_on_c, 1, 34, 127
2, 158840, Note_on_c, 1, 46, 127
2, 158840, Note_on_c, 1, 62, 127
2, 159040, Note_off_c, 1, 34, 0
2, 159080, Note_off_c, 1, 62, 0
2, 159080, Note_on_c, 1, 72, 127
2, 159200, Note_on_c, 1, 58, 127
2, 159200, Note_off_c, 1, 72, 0
2, 159200, Note_on_c, 1, 74, 127
2, 159360, Note_off_c, 1, 74, 0
2, 159400, Note_on_c, 1, 70, 127
2, 159560, Note_off_c, 1, 46, 0
2, 159560, Note_off_c, 1, 58, 0
2, 159560, Note_off_c, 1, 70, 0
2, 159600, Note_on_c, 1, 46, 127
2, 159600, Note_on_c, 1, 58, 127
2, 159600, Note_on_c, 1, 70, 127
2, 159600, Note_on_c, 1, 82, 127
2, 159960, Note_off_c, 1, 46, 0
2, 159960, Note_off_c, 1, 58, 0
2, 159960, Note_off_c, 1, 70, 0
2, 159960, Note_off_c, 1, 82, 0
2, 160000, Note_on_c, 1, 34, 127
2, 160000, Note_on_c, 1, 46, 127
2, 160000, Note_on_c, 1, 62, 127
2, 160320, Note_off_c, 1, 34, 0
2, 160320, Note_off_c, 1, 46, 0
2, 160320, Note_off_c, 1, 62, 0
2, 160960, Note_on_c, 1, 89, 127
2, 161000, Note_off_c, 1, 89, 0
2, 161080, Note_on_c, 1, 87, 127
2, 161280, Note_off_c, 1, 87, 0
2, 161440, Note_on_c, 1, 86, 127
2, 161600, Note_off_c, 1, 86, 0
2, 161720, Note_on_c, 1, 82, 127
2, 161760, Note_off_c, 1, 82, 0
2, 161840, Note_on_c, 1, 82, 127
2, 161880, Note_off_c, 1, 82, 0
2, 162000, Note_on_c, 1, 82, 127
2, 162160, Note_off_c, 1, 82, 0
2, 162200, Note_on_c, 1, 82, 127
2, 162360, Note_off_c, 1, 82, 0
2, 162400, Note_on_c, 1, 82, 127
2, 162560, Note_off_c, 1, 82, 0
2, 162600, Note_on_c, 1, 51, 127
2, 162600, Note_on_c, 1, 60, 127
2, 162600, Note_on_c, 1, 63, 127
2, 162600, Note_on_c, 1, 81, 127
2, 162720, Note_off_c, 1, 81, 0
2, 162800, Note_on_c, 1, 79, 127
2, 162920, Note_off_c, 1, 51, 0
2, 162920, Note_off_c, 1, 60, 0
2, 162920, Note_off_c, 1, 63, 0
2, 162920, Note_off_c, 1, 79, 0
2, 163160, Note_on_c, 1, 74, 127
2, 163280, Note_off_c, 1, 74, 0
2, 163560, Note_on_c, 1, 60, 127
2, 163560, Note_on_c, 1, 63, 127
2, 163560, Note_on_c, 1, 75, 127
2, 163680, Note_off_c, 1, 60, 0
2, 163680, Note_off_c, 1, 63, 0
2, 163680, Note_off_c, 1, 75, 0
2, 163920, Note_on_c, 1, 58, 127
2, 163920, Note_on_c, 1, 62, 127
2, 163920, Note_on_c, 1, 70, 127
2, 164080, Note_off_c, 1, 58, 0
2, 164080, Note_off_c, 1, 62, 0
2, 164080, Note_off_c, 1, 70, 0
2, 164320, Note_on_c, 1, 58, 127
2, 164320, Note_on_c, 1, 62, 127
2, 164440, Note_off_c, 1, 58, 0
2, 164440, Note_off_c, 1, 62, 0
2, 164520, Note_on_c, 1, 62, 127
2, 164640, Note_off_c, 1, 62, 0
2, 164680, Note_on_c, 1, 58, 127
2, 164680, Note_on_c, 1, 62, 127
2, 164680, Note_on_c, 1, 70, 127
2, 164920, Note_off_c, 1, 58, 0
2, 164920, Note_off_c, 1, 62, 0
2, 164920, Note_off_c, 1, 70, 0
2, 165080, Note_on_c, 1, 34, 127
2, 165080, Note_on_c, 1, 46, 127
2, 165080, Note_on_c, 1, 72, 127
2, 165560, Note_off_c, 1, 34, 0
2, 165560, Note_off_c, 1, 46, 0
2, 165560, Note_off_c, 1, 72, 0
2, 165680, Note_on_c, 1, 46, 127
2, 165680, Note_on_c, 1, 53, 127
2, 165680, Note_on_c, 1, 62, 127
2, 165680, Note_on_c, 1, 70, 127
2, 165680, Note_on_c, 1, 77, 127
2, 165680, Note_on_c, 1, 82, 127
2, 165800, Note_off_c, 1, 70, 0
2, 165800, Note_off_c, 1, 77, 0
2, 165800, Note_off_c, 1, 82, 0
2, 165880, Note_on_c, 1, 67, 127
2, 166000, Note_off_c, 1, 46, 0
2, 166000, Note_off_c, 1, 53, 0
2, 166000, Note_off_c, 1, 62, 0
2, 166000, Note_off_c, 1, 67, 0
2, 166040, Note_on_c, 1, 68, 127
2, 166040, Note_on_c, 1, 79, 127
2, 166200, Note_off_c, 1, 68, 0
2, 166200, Note_off_c, 1, 79, 0
2, 166240, Note_on_c, 1, 67, 127
2, 166240, Note_on_c, 1, 77, 127
2, 166400, Note_off_c, 1, 67, 0
2, 166400, Note_off_c, 1, 77, 0
2, 166440, Note_on_c, 1, 51, 127
2, 166440, Note_on_c, 1, 58, 127
2, 166440, Note_on_c, 1, 63, 127
2, 166440, Note_on_c, 1, 75, 127
2, 166440, Note_on_c, 1, 79, 127
2, 166600, Note_off_c, 1, 51, 0
2, 166600, Note_off_c, 1, 58, 0
2, 166600, Note_off_c, 1, 63, 0
2, 166600, Note_off_c, 1, 75, 0
2, 166600, Note_off_c, 1, 79, 0
2, 166840, Note_on_c, 1, 50, 127
2, 166840, Note_on_c, 1, 53, 127
2, 166840, Note_on_c, 1, 57, 127
2, 166840, Note_on_c, 1, 65, 127
2, 166840, Note_on_c, 1, 77, 127
2, 167080, Note_off_c, 1, 50, 0
2, 167080, Note_off_c, 1, 53, 0
2, 167080, Note_off_c, 1, 57, 0
2, 167080, Note_off_c, 1, 65, 0
2, 167080, Note_off_c, 1, 77, 0
2, 167200, Note_on_c, 1, 51, 127
2, 167200, Note_on_c, 1, 55, 127
2, 167200, Note_on_c, 1, 58, 127
2, 167200, Note_on_c, 1, 67, 127
2, 167200, Note_on_c, 1, 79, 127
2, 167440, Note_off_c, 1, 51, 0
2, 167440, Note_off_c, 1, 55, 0
2, 167440, Note_off_c, 1, 58, 0
2, 167440, Note_off_c, 1, 67, 0
2, 167440, Note_off_c, 1, 79, 0
2, 167600, Note_on_c, 1, 53, 127
2, 167600, Note_on_c, 1, 57, 127
2, 167600, Note_on_c, 1, 60, 127
2, 167600, Note_on_c, 1, 69, 127
2, 167600, Note_on_c, 1, 78, 127
2, 167920, Note_off_c, 1, 53, 0
2, 167920, Note_off_c, 1, 57, 0
2, 167920, Note_off_c, 1, 60, 0
2, 167920, Note_off_c, 1, 69, 0
2, 167920, Note_off_c, 1, 78, 0
2, 168000, Note_on_c, 1, 51, 127
2, 168000, Note_on_c, 1, 58, 127
2, 168160, Note_on_c, 1, 79, 127
2, 168320, Note_off_c, 1, 51, 0
2, 168320, Note_off_c, 1, 58, 0
2, 168320, Note_off_c, 1, 79, 0
2, 168360, Note_on_c, 1, 53, 127
2, 168360, Note_on_c, 1, 57, 127
2, 168360, Note_on_c, 1, 72, 127
2, 168360, Note_on_c, 1, 81, 127
2, 168520, Note_off_c, 1, 72, 0
2, 168520, Note_off_c, 1, 81, 0
2, 168560, Note_on_c, 1, 72, 127
2, 168560, Note_on_c, 1, 81, 127
2, 168720, Note_off_c, 1, 53, 0
2, 168720, Note_off_c, 1, 57, 0
2, 168720, Note_off_c, 1, 72, 0
2, 168720, Note_off_c, 1, 81, 0
2, 168760, Note_on_c, 1, 77, 127
2, 168760, Note_on_c, 1, 81, 127
2, 168880, Note_off_c, 1, 77, 0
2, 168880, Note_off_c, 1, 81, 0
2, 168960, Note_on_c, 1, 79, 127
2, 169080, Note_off_c, 1, 79, 0
2, 169120, Note_on_c, 1, 53, 127
2, 169120, Note_on_c, 1, 58, 127
2, 169120, Note_on_c, 1, 62, 127
2, 169120, Note_on_c, 1, 65, 127
2, 169120, Note_on_c, 1, 69, 127
2, 169120, Note_on_c, 1, 77, 127
2, 169480, Note_off_c, 1, 53, 0
2, 169480, Note_off_c, 1, 58, 0
2, 169480, Note_off_c, 1, 62, 0
2, 169480, Note_off_c, 1, 65, 0
2, 169480, Note_off_c, 1, 69, 0
2, 169480, Note_off_c, 1, 77, 0
2, 169520, Note_on_c, 1, 46, 127
2, 169800, Note_off_c, 1, 46, 0
2, 169880, Note_on_c, 1, 58, 127
2, 170080, Note_on_c, 1, 63, 127
2, 170080, Note_on_c, 1, 67, 127
2, 170080, Note_on_c, 1, 75, 127
2, 170240, Note_off_c, 1, 58, 0
2, 170240, Note_off_c, 1, 63, 0
2, 170240, Note_off_c, 1, 67, 0
2, 170240, Note_off_c, 1, 75, 0
2, 170280, Note_on_c, 1, 48, 127
2, 170280, Note_on_c, 1, 60, 127
2, 170280, Note_on_c, 1, 72, 127
2, 170280, Note_on_c, 1, 75, 127
2, 170320, Note_off_c, 1, 72, 0
2, 170320, Note_off_c, 1, 75, 0
2, 170440, Note_off_c, 1, 60, 0
2, 170480, Note_on_c, 1, 63, 127
2, 170480, Note_on_c, 1, 72, 127
2, 170480, Note_on_c, 1, 75, 127
2, 170520, Note_off_c, 1, 72, 0
2, 170520, Note_off_c, 1, 75, 0
2, 170600, Note_off_c, 1, 63, 0
2, 170680, Note_on_c, 1, 56, 127
2, 170680, Note_on_c, 1, 63, 127
2, 170680, Note_on_c, 1, 72, 127
2, 170680, Note_on_c, 1, 75, 127
2, 170800, Note_off_c, 1, 63, 0
2, 170840, Note_on_c, 1, 65, 127
2, 171000, Note_off_c, 1, 48, 0
2, 171000, Note_off_c, 1, 56, 0
2, 171000, Note_off_c, 1, 65, 0
2, 171000, Note_off_c, 1, 72, 0
2, 171000, Note_off_c, 1, 75, 0
2, 171040, Note_on_c, 1, 70, 127
2, 171040, Note_on_c, 1, 74, 127
2, 171200, Note_off_c, 1, 70, 0
2, 171200, Note_off_c, 1, 74, 0
2, 171240, Note_on_c, 1, 71, 127
2, 171240, Note_on_c, 1, 74, 127
2, 171360, Note_off_c, 1, 71, 0
2, 171360, Note_off_c, 1, 74, 0
2, 171440, Note_on_c, 1, 46, 127
2, 171440, Note_on_c, 1, 53, 127
2, 171440, Note_on_c, 1, 69, 127
2, 171440, Note_on_c, 1, 72, 127
2, 171440, Note_on_c, 1, 75, 127
2, 171560, Note_off_c, 1, 46, 0
2, 171560, Note_off_c, 1, 69, 0
2, 171640, Note_off_c, 1, 72, 0
2, 171640, Note_off_c, 1, 75, 0
2, 171760, Note_off_c, 1, 53, 0
2, 171800, Note_on_c, 1, 70, 127
2, 172160, Note_off_c, 1, 70, 0
2, 172200, Note_on_c, 1, 48, 127
2, 172200, Note_on_c, 1, 53, 127
2, 172200, Note_on_c, 1, 57, 127
2, 172200, Note_on_c, 1, 72, 127
2, 172200, Note_on_c, 1, 77, 127
2, 172400, Note_off_c, 1, 48, 0
2, 172400, Note_off_c, 1, 53, 0
2, 172400, Note_off_c, 1, 57, 0
2, 172400, Note_on_c, 1, 79, 127
2, 172440, Note_off_c, 1, 79, 0
2, 172520, Note_off_c, 1, 72, 0
2, 172520, Note_off_c, 1, 77, 0
2, 172600, Note_on_c, 1, 46, 127
2, 172600, Note_on_c, 1, 58, 127
2, 172600, Note_on_c, 1, 72, 127
2, 172600, Note_on_c, 1, 75, 127
2, 172600, Note_on_c, 1, 79, 127
2, 172640, Note_off_c, 1, 72, 0
2, 172640, Note_off_c, 1, 75, 0
2, 172640, Note_off_c, 1, 79, 0
2, 172760, Note_on_c, 1, 77, 127
2, 172800, Note_off_c, 1, 77, 0
2, 172880, Note_off_c, 1, 46, 0
2, 172880, Note_off_c, 1, 58, 0
2, 172960, Note_on_c, 1, 45, 127
2, 172960, Note_on_c, 1, 48, 127
2, 172960, Note_on_c, 1, 53, 127
2, 172960, Note_on_c, 1, 57, 127
2, 172960, Note_on_c, 1, 75, 127
2, 172960, Note_on_c, 1, 81, 127
2, 172960, Note_on_c, 1, 87, 127
2, 173080, Note_off_c, 1, 75, 0
2, 173080, Note_off_c, 1, 81, 0
2, 173080, Note_off_c, 1, 87, 0
2, 173120, Note_on_c, 1, 75, 127
2, 173120, Note_on_c, 1, 80, 127
2, 173280, Note_off_c, 1, 75, 0
2, 173280, Note_off_c, 1, 80, 0
2, 173320, Note_on_c, 1, 75, 127
2, 173320, Note_on_c, 1, 81, 127
2, 173320, Note_on_c, 1, 87, 127
2, 173480, Note_off_c, 1, 75, 0
2, 173480, Note_off_c, 1, 81, 0
2, 173480, Note_off_c, 1, 87, 0
2, 173520, Note_on_c, 1, 81, 127
2, 173520, Note_on_c, 1, 84, 127
2, 173520, Note_on_c, 1, 86, 127
2, 173560, Note_off_c, 1, 86, 0
2, 173640, Note_on_c, 1, 72, 127
2, 173680, Note_off_c, 1, 72, 0
2, 173680, Note_off_c, 1, 81, 0
2, 173720, Note_off_c, 1, 48, 0
2, 173720, Note_on_c, 1, 72, 127
2, 173760, Note_off_c, 1, 53, 0
2, 173840, Note_off_c, 1, 72, 0
2, 173880, Note_on_c, 1, 48, 127
2, 173880, Note_on_c, 1, 72, 127
2, 174160, Note_off_c, 1, 72, 0
2, 174160, Note_off_c, 1, 84, 0
2, 174240, Note_off_c, 1, 45, 0
2, 174240, Note_off_c, 1, 48, 0
2, 174240, Note_off_c, 1, 57, 0
2, 174280, Note_on_c, 1, 46, 127
2, 174280, Note_on_c, 1, 58, 127
2, 174280, Note_on_c, 1, 82, 127
2, 174280, Note_on_c, 1, 86, 127
2, 174600, Note_off_c, 1, 46, 0
2, 174600, Note_off_c, 1, 58, 0
2, 174600, Note_off_c, 1, 82, 0
2, 174600, Note_off_c, 1, 86, 0
2, 174680, Note_on_c, 1, 50, 127
2, 174680, Note_on_c, 1, 62, 127
2, 174680, Note_on_c, 1, 77, 127
2, 174680, Note_on_c, 1, 82, 127
2, 175000, Note_off_c, 1, 50, 0
2, 175000, Note_off_c, 1, 62, 0
2, 175000, Note_off_c, 1, 77, 0
2, 175000, Note_off_c, 1, 82, 0
2, 175040, Note_on_c, 1, 50, 127
2, 175040, Note_on_c, 1, 58, 127
2, 175040, Note_on_c, 1, 77, 127
2, 175040, Note_on_c, 1, 82, 127
2, 175200, Note_off_c, 1, 50, 0
2, 175400, Note_off_c, 1, 58, 0
2, 175400, Note_off_c, 1, 77, 0
2, 175400, Note_off_c, 1, 82, 0
2, 175440, Note_on_c, 1, 48, 127
2, 175440, Note_on_c, 1, 56, 127
2, 175440, Note_on_c, 1, 84, 127
2, 175440, Note_on_c, 1, 87, 127
2, 175760, Note_off_c, 1, 48, 0
2, 175760, Note_off_c, 1, 56, 0
2, 175760, Note_off_c, 1, 84, 0
2, 175760, Note_off_c, 1, 87, 0
2, 175760, Note_on_c, 1, 88, 127
2, 175800, Note_on_c, 1, 86, 127
2, 175800, Note_off_c, 1, 88, 0
2, 175840, Note_on_c, 1, 50, 127
2, 175840, Note_on_c, 1, 58, 127
2, 175840, Note_on_c, 1, 75, 127
2, 175840, Note_off_c, 1, 86, 0
2, 175840, Note_on_c, 1, 87, 127
2, 176120, Note_off_c, 1, 87, 0
2, 176200, Note_on_c, 1, 70, 127
2, 176200, Note_on_c, 1, 82, 127
2, 176280, Note_off_c, 1, 75, 0
2, 176320, Note_off_c, 1, 70, 0
2, 176320, Note_on_c, 1, 73, 127
2, 176480, Note_off_c, 1, 50, 0
2, 176480, Note_off_c, 1, 58, 0
2, 176480, Note_off_c, 1, 73, 0
2, 176480, Note_off_c, 1, 82, 0
2, 176600, Note_on_c, 1, 60, 127
2, 176600, Note_on_c, 1, 72, 127
2, 176600, Note_on_c, 1, 81, 127
2, 176920, Note_off_c, 1, 60, 0
2, 176960, Note_on_c, 1, 46, 127
2, 176960, Note_on_c, 1, 53, 127
2, 177320, Note_off_c, 1, 72, 0
2, 177320, Note_off_c, 1, 81, 0
2, 177360, Note_on_c, 1, 81, 127
2, 177360, Note_on_c, 1, 84, 127
2, 177560, Note_on_c, 1, 77, 127
2, 177600, Note_off_c, 1, 77, 0
2, 177600, Note_on_c, 1, 79, 127
2, 177640, Note_off_c, 1, 79, 0
2, 177680, Note_off_c, 1, 81, 0
2, 177680, Note_off_c, 1, 84, 0
2, 177760, Note_on_c, 1, 79, 127
2, 177760, Note_on_c, 1, 82, 127
2, 177880, Note_off_c, 1, 79, 0
2, 177880, Note_off_c, 1, 82, 0
2, 177920, Note_on_c, 1, 84, 127
2, 178080, Note_off_c, 1, 84, 0
2, 178120, Note_on_c, 1, 82, 127
2, 178280, Note_off_c, 1, 46, 0
2, 178320, Note_on_c, 1, 51, 127
2, 178320, Note_off_c, 1, 53, 0
2, 178520, Note_on_c, 1, 46, 127
2, 178640, Note_off_c, 1, 51, 0
2, 178640, Note_off_c, 1, 82, 0
2, 178720, Note_on_c, 1, 53, 127
2, 178720, Note_on_c, 1, 77, 127
2, 178840, Note_off_c, 1, 46, 0
2, 178840, Note_off_c, 1, 53, 0
2, 178840, Note_off_c, 1, 77, 0
2, 178880, Note_on_c, 1, 45, 127
2, 178880, Note_on_c, 1, 48, 127
2, 178880, Note_on_c, 1, 60, 127
2, 178880, Note_on_c, 1, 79, 127
2, 179040, Note_off_c, 1, 60, 0
2, 179040, Note_off_c, 1, 79, 0
2, 179080, Note_on_c, 1, 77, 127
2, 179240, Note_off_c, 1, 45, 0
2, 179240, Note_off_c, 1, 48, 0
2, 179240, Note_off_c, 1, 77, 0
2, 179280, Note_on_c, 1, 34, 127
2, 179280, Note_on_c, 1, 46, 127
2, 179280, Note_on_c, 1, 50, 127
2, 179280, Note_on_c, 1, 60, 127
2, 179280, Note_on_c, 1, 80, 127
2, 179400, Note_off_c, 1, 60, 0
2, 179480, Note_on_c, 1, 58, 127
2, 179600, Note_off_c, 1, 50, 0
2, 179600, Note_off_c, 1, 80, 0
2, 179680, Note_on_c, 1, 86, 127
2, 179840, Note_on_c, 1, 80, 127
2, 180000, Note_off_c, 1, 80, 0
2, 180000, Note_off_c, 1, 86, 0
2, 180040, Note_on_c, 1, 74, 127
2, 180040, Note_on_c, 1, 86, 127
2, 180200, Note_off_c, 1, 58, 0
2, 180240, Note_on_c, 1, 68, 127
2, 180400, Note_off_c, 1, 68, 0
2, 180440, Note_on_c, 1, 70, 127
2, 180560, Note_off_c, 1, 70, 0
2, 180640, Note_on_c, 1, 67, 127
2, 180760, Note_off_c, 1, 67, 0
2, 180800, Note_on_c, 1, 72, 127
2, 180800, Note_off_c, 1, 74, 0
2, 180800, Note_off_c, 1, 86, 0
2, 180840, Note_on_c, 1, 63, 127
2, 180840, Note_on_c, 1, 87, 127
2, 180960, Note_off_c, 1, 72, 0
2, 180960, Note_off_c, 1, 87, 0
2, 181000, Note_on_c, 1, 65, 127
2, 181160, Note_off_c, 1, 63, 0
2, 181200, Note_on_c, 1, 62, 127
2, 181320, Note_off_c, 1, 62, 0
2, 181400, Note_on_c, 1, 62, 127
2, 181400, Note_on_c, 1, 86, 127
2, 181520, Note_off_c, 1, 62, 0
2, 181520, Note_off_c, 1, 86, 0
2, 181560, Note_on_c, 1, 63, 127
2, 181560, Note_on_c, 1, 87, 127
2, 181720, Note_off_c, 1, 87, 0
2, 181760, Note_on_c, 1, 86, 127
2, 181920, Note_off_c, 1, 86, 0
2, 181960, Note_on_c, 1, 84, 127
2, 182080, Note_off_c, 1, 34, 0
2, 182120, Note_off_c, 1, 63, 0
2, 182120, Note_off_c, 1, 84, 0
2, 182160, Note_on_c, 1, 62, 127
2, 182160, Note_on_c, 1, 84, 127
2, 182280, Note_off_c, 1, 65, 0
2, 182280, Note_off_c, 1, 84, 0
2, 182360, Note_on_c, 1, 77, 127
2, 182480, Note_off_c, 1, 77, 0
2, 182520, Note_on_c, 1, 54, 127
2, 182520, Note_off_c, 1, 62, 0
2, 182520, Note_on_c, 1, 70, 127
2, 182520, Note_on_c, 1, 82, 127
2, 182720, Note_on_c, 1, 73, 127
2, 182880, Note_off_c, 1, 54, 0
2, 182920, Note_on_c, 1, 58, 127
2, 183040, Note_off_c, 1, 58, 0
2, 183120, Note_on_c, 1, 53, 127
2, 183240, Note_off_c, 1, 53, 0
2, 183440, Note_off_c, 1, 82, 0
2, 183480, Note_on_c, 1, 81, 127
2, 183640, Note_off_c, 1, 73, 0
2, 183640, Note_off_c, 1, 81, 0
2, 183680, Note_on_c, 1, 75, 127
2, 183680, Note_on_c, 1, 82, 127
2, 183840, Note_off_c, 1, 75, 0
2, 183880, Note_on_c, 1, 74, 127
2, 184000, Note_off_c, 1, 46, 0
2, 184000, Note_off_c, 1, 70, 0
2, 184000, Note_off_c, 1, 74, 0
2, 184000, Note_off_c, 1, 82, 0
2, 184080, Note_on_c, 1, 48, 127
2, 184080, Note_on_c, 1, 60, 127
2, 184080, Note_on_c, 1, 72, 127
2, 184080, Note_on_c, 1, 81, 127
2, 184400, Note_off_c, 1, 48, 0
2, 184400, Note_off_c, 1, 60, 0
2, 184440, Note_on_c, 1, 53, 127
2, 184440, Note_on_c, 1, 61, 127
2, 184600, Note_off_c, 1, 72, 0
2, 184640, Note_on_c, 1, 73, 127
2, 184760, Note_off_c, 1, 53, 0
2, 184760, Note_off_c, 1, 73, 0
2, 184760, Note_off_c, 1, 81, 0
2, 184840, Note_on_c, 1, 55, 127
2, 184840, Note_on_c, 1, 70, 127
2, 184840, Note_on_c, 1, 79, 127
2, 184960, Note_off_c, 1, 70, 0
2, 185000, Note_on_c, 1, 70, 127
2, 185160, Note_off_c, 1, 55, 0
2, 185160, Note_off_c, 1, 61, 0
2, 185160, Note_off_c, 1, 70, 0
2, 185160, Note_off_c, 1, 79, 0
2, 185200, Note_on_c, 1, 53, 127
2, 185200, Note_on_c, 1, 63, 127
2, 185200, Note_on_c, 1, 70, 127
2, 185200, Note_on_c, 1, 79, 127
2, 185320, Note_off_c, 1, 53, 0
2, 185320, Note_off_c, 1, 63, 0
2, 185520, Note_off_c, 1, 70, 0
2, 185520, Note_off_c, 1, 79, 0
2, 185560, Note_on_c, 1, 51, 127
2, 185560, Note_on_c, 1, 58, 127
2, 185720, Note_off_c, 1, 51, 0
2, 185760, Note_on_c, 1, 70, 127
2, 185920, Note_off_c, 1, 58, 0
2, 185920, Note_off_c, 1, 70, 0
2, 185960, Note_on_c, 1, 39, 127
2, 185960, Note_on_c, 1, 51, 127
2, 185960, Note_on_c, 1, 68, 127
2, 186080, Note_off_c, 1, 51, 0
2, 186160, Note_on_c, 1, 51, 127
2, 186280, Note_off_c, 1, 39, 0
2, 186280, Note_off_c, 1, 51, 0
2, 186280, Note_off_c, 1, 68, 0
2, 186320, Note_on_c, 1, 37, 127
2, 186320, Note_on_c, 1, 49, 127
2, 186320, Note_on_c, 1, 67, 127
2, 186320, Note_on_c, 1, 70, 127
2, 186480, Note_off_c, 1, 67, 0
2, 186520, Note_on_c, 1, 61, 127
2, 186680, Note_off_c, 1, 37, 0
2, 186680, Note_off_c, 1, 49, 0
2, 186680, Note_off_c, 1, 61, 0
2, 186680, Note_off_c, 1, 70, 0
2, 186720, Note_on_c, 1, 62, 127
2, 186880, Note_off_c, 1, 62, 0
2, 186920, Note_on_c, 1, 67, 127
2, 187040, Note_off_c, 1, 67, 0
2, 187120, Note_on_c, 1, 65, 127
2, 187240, Note_off_c, 1, 65, 0
2, 187280, Note_on_c, 1, 67, 127
2, 187440, Note_off_c, 1, 67, 0
2, 187480, Note_on_c, 1, 44, 127
2, 187480, Note_on_c, 1, 48, 127
2, 187480, Note_on_c, 1, 51, 127
2, 187480, Note_on_c, 1, 56, 127
2, 187480, Note_on_c, 1, 68, 127
2, 187800, Note_off_c, 1, 68, 0
2, 187840, Note_on_c, 1, 67, 127
2, 188000, Note_off_c, 1, 67, 0
2, 188040, Note_on_c, 1, 65, 127
2, 188200, Note_off_c, 1, 56, 0
2, 188240, Note_on_c, 1, 56, 127
2, 188440, Note_off_c, 1, 44, 0
2, 188440, Note_off_c, 1, 65, 0
2, 188480, Note_on_c, 1, 63, 127
2, 188640, Note_off_c, 1, 48, 0
2, 188640, Note_off_c, 1, 51, 0
2, 188640, Note_off_c, 1, 56, 0
2, 188640, Note_off_c, 1, 63, 0
2, 188680, Note_on_c, 1, 49, 127
2, 188880, Note_on_c, 1, 56, 127
2, 189000, Note_off_c, 1, 49, 0
2, 189000, Note_off_c, 1, 56, 0
2, 189040, Note_on_c, 1, 51, 127
2, 189040, Note_on_c, 1, 55, 127
2, 189200, Note_off_c, 1, 51, 0
2, 189200, Note_off_c, 1, 55, 0
2, 189240, Note_on_c, 1, 51, 127
2, 189240, Note_on_c, 1, 55, 127
2, 189400, Note_off_c, 1, 51, 0
2, 189400, Note_off_c, 1, 55, 0
2, 189440, Note_on_c, 1, 48, 127
2, 189440, Note_on_c, 1, 56, 127
2, 189600, Note_off_c, 1, 48, 0
2, 189600, Note_off_c, 1, 56, 0
2, 189640, Note_on_c, 1, 36, 127
2, 189640, Note_on_c, 1, 69, 127
2, 189760, Note_off_c, 1, 36, 0
2, 189760, Note_off_c, 1, 69, 0
2, 189840, Note_on_c, 1, 39, 127
2, 189840, Note_on_c, 1, 51, 127
2, 189840, Note_on_c, 1, 69, 127
2, 189840, Note_on_c, 1, 72, 127
2, 189840, Note_on_c, 1, 75, 127
2, 189840, Note_on_c, 1, 80, 127
2, 189960, Note_off_c, 1, 39, 0
2, 189960, Note_off_c, 1, 51, 0
2, 189960, Note_off_c, 1, 69, 0
2, 189960, Note_off_c, 1, 72, 0
2, 189960, Note_off_c, 1, 80, 0
2, 190000, Note_on_c, 1, 39, 127
2, 190000, Note_on_c, 1, 51, 127
2, 190000, Note_on_c, 1, 67, 127
2, 190000, Note_on_c, 1, 70, 127
2, 190000, Note_on_c, 1, 79, 127
2, 190160, Note_off_c, 1, 39, 0
2, 190160, Note_off_c, 1, 51, 0
2, 190160, Note_off_c, 1, 67, 0
2, 190160, Note_off_c, 1, 70, 0
2, 190200, Note_on_c, 1, 41, 127
2, 190200, Note_on_c, 1, 51, 127
2, 190200, Note_on_c, 1, 68, 127
2, 190200, Note_on_c, 1, 72, 127
2, 190360, Note_off_c, 1, 41, 0
2, 190360, Note_off_c, 1, 51, 0
2, 190360, Note_off_c, 1, 68, 0
2, 190360, Note_off_c, 1, 72, 0
2, 190360, Note_off_c, 1, 75, 0
2, 190360, Note_off_c, 1, 79, 0
2, 190400, Note_on_c, 1, 43, 127
2, 190400, Note_on_c, 1, 46, 127
2, 190400, Note_on_c, 1, 58, 127
2, 190400, Note_on_c, 1, 67, 127
2, 190400, Note_on_c, 1, 70, 127
2, 190400, Note_on_c, 1, 75, 127
2, 190400, Note_on_c, 1, 79, 127
2, 190800, Note_on_c, 1, 51, 127
2, 191120, Note_off_c, 1, 43, 0
2, 191120, Note_off_c, 1, 46, 0
2, 191120, Note_off_c, 1, 51, 0
2, 191120, Note_off_c, 1, 58, 0
2, 191120, Note_off_c, 1, 67, 0
2, 191120, Note_off_c, 1, 70, 0
2, 191120, Note_off_c, 1, 79, 0
2, 191200, Note_on_c, 1, 48, 127
2, 191200, Note_on_c, 1, 70, 127
2, 191200, Note_on_c, 1, 80, 127
2, 191280, Note_off_c, 1, 70, 0
2, 191520, Note_off_c, 1, 48, 0
2, 191520, Note_on_c, 1, 68, 127
2, 191520, Note_off_c, 1, 75, 0
2, 191560, Note_on_c, 1, 49, 127
2, 191560, Note_on_c, 1, 70, 127
2, 191720, Note_off_c, 1, 49, 0
2, 191720, Note_off_c, 1, 70, 0
2, 191760, Note_on_c, 1, 48, 127
2, 191880, Note_off_c, 1, 48, 0
2, 191880, Note_off_c, 1, 68, 0
2, 191880, Note_off_c, 1, 80, 0
2, 191960, Note_on_c, 1, 48, 127
2, 191960, Note_on_c, 1, 80, 127
2, 192080, Note_off_c, 1, 48, 0
2, 192080, Note_off_c, 1, 80, 0
2, 192120, Note_on_c, 1, 51, 127
2, 192120, Note_on_c, 1, 80, 127
2, 192280, Note_off_c, 1, 51, 0
2, 192280, Note_off_c, 1, 80, 0
2, 192320, Note_on_c, 1, 46, 127
2, 192320, Note_on_c, 1, 50, 127
2, 192320, Note_on_c, 1, 58, 127
2, 192320, Note_on_c, 1, 82, 127
2, 192480, Note_off_c, 1, 46, 0
2, 192480, Note_off_c, 1, 58, 0
2, 192520, Note_off_c, 1, 50, 0
2, 192520, Note_on_c, 1, 53, 127
2, 192720, Note_on_c, 1, 46, 127
2, 192720, Note_on_c, 1, 50, 127
2, 192840, Note_off_c, 1, 82, 0
2, 192920, Note_on_c, 1, 74, 127
2, 193040, Note_off_c, 1, 74, 0
2, 193080, Note_on_c, 1, 74, 127
2, 193080, Note_on_c, 1, 82, 127
2, 193240, Note_off_c, 1, 82, 0
2, 193280, Note_on_c, 1, 80, 127
2, 193360, Note_off_c, 1, 46, 0
2, 193360, Note_off_c, 1, 50, 0
2, 193360, Note_off_c, 1, 53, 0
2, 193360, Note_off_c, 1, 74, 0
2, 193400, Note_on_c, 1, 46, 127
2, 193400, Note_on_c, 1, 51, 127
2, 193440, Note_off_c, 1, 46, 0
2, 193440, Note_off_c, 1, 51, 0
2, 193440, Note_off_c, 1, 80, 0
2, 193480, Note_on_c, 1, 77, 127
2, 193640, Note_off_c, 1, 77, 0
2, 193680, Note_on_c, 1, 77, 127
2, 193840, Note_off_c, 1, 77, 0
2, 193880, Note_on_c, 1, 46, 127
2, 193880, Note_on_c, 1, 50, 127
2, 193880, Note_on_c, 1, 53, 127
2, 193880, Note_on_c, 1, 58, 127
2, 193880, Note_on_c, 1, 77, 127
2, 193880, Note_on_c, 1, 82, 127
2, 194000, Note_off_c, 1, 82, 0
2, 194080, Note_on_c, 1, 82, 127
2, 194200, Note_off_c, 1, 82, 0
2, 194240, Note_on_c, 1, 81, 127
2, 194400, Note_off_c, 1, 81, 0
2, 194440, Note_on_c, 1, 79, 127
2, 194600, Note_off_c, 1, 50, 0
2, 194600, Note_off_c, 1, 58, 0
2, 194600, Note_off_c, 1, 77, 0
2, 194600, Note_off_c, 1, 79, 0
2, 194640, Note_on_c, 1, 56, 127
2, 194640, Note_on_c, 1, 58, 127
2, 194640, Note_on_c, 1, 75, 127
2, 194640, Note_on_c, 1, 80, 127
2, 194760, Note_on_c, 1, 70, 127
2, 194800, Note_off_c, 1, 70, 0
2, 194840, Note_on_c, 1, 62, 127
2, 194840, Note_on_c, 1, 72, 127
2, 194840, Note_off_c, 1, 75, 0
2, 194880, Note_off_c, 1, 62, 0
2, 194880, Note_on_c, 1, 84, 127
2, 194920, Note_off_c, 1, 84, 0
2, 194920, Note_on_c, 1, 86, 127
2, 195000, Note_off_c, 1, 72, 0
2, 195000, Note_off_c, 1, 80, 0
2, 195040, Note_on_c, 1, 65, 127
2, 195040, Note_on_c, 1, 77, 127
2, 195160, Note_off_c, 1, 65, 0
2, 195240, Note_on_c, 1, 62, 127
2, 195320, Note_off_c, 1, 77, 0
2, 195320, Note_off_c, 1, 86, 0
2, 195360, Note_off_c, 1, 46, 0
2, 195360, Note_off_c, 1, 53, 0
2, 195360, Note_off_c, 1, 56, 0
2, 195360, Note_off_c, 1, 58, 0
2, 195360, Note_off_c, 1, 62, 0
2, 195600, Note_on_c, 1, 48, 127
2, 195600, Note_on_c, 1, 56, 127
2, 195600, Note_on_c, 1, 60, 127
2, 195600, Note_on_c, 1, 63, 127
2, 195600, Note_on_c, 1, 75, 127
2, 195760, Note_off_c, 1, 48, 0
2, 195760, Note_off_c, 1, 56, 0
2, 195760, Note_off_c, 1, 60, 0
2, 195760, Note_off_c, 1, 63, 0
2, 195760, Note_off_c, 1, 75, 0
2, 195800, Note_on_c, 1, 46, 127
2, 195800, Note_on_c, 1, 55, 127
2, 195800, Note_on_c, 1, 62, 127
2, 195800, Note_on_c, 1, 74, 127
2, 195960, Note_off_c, 1, 55, 0
2, 195960, Note_off_c, 1, 62, 0
2, 196000, Note_on_c, 1, 62, 127
2, 196120, Note_off_c, 1, 46, 0
2, 196120, Note_off_c, 1, 62, 0
2, 196120, Note_off_c, 1, 74, 0
2, 196200, Note_on_c, 1, 39, 127
2, 196200, Note_on_c, 1, 51, 127
2, 196200, Note_on_c, 1, 63, 127
2, 196200, Note_on_c, 1, 75, 127
2, 196320, Note_off_c, 1, 51, 0
2, 196320, Note_off_c, 1, 63, 0
2, 196320, Note_off_c, 1, 75, 0
2, 196360, Note_on_c, 1, 58, 127
2, 196360, Note_on_c, 1, 67, 127
2, 196520, Note_off_c, 1, 39, 0
2, 196520, Note_off_c, 1, 58, 0
2, 196520, Note_off_c, 1, 67, 0
2, 196560, Note_on_c, 1, 51, 127
2, 196560, Note_on_c, 1, 75, 127
2, 196760, Note_on_c, 1, 65, 127
2, 196880, Note_off_c, 1, 75, 0
2, 196920, Note_off_c, 1, 65, 0
2, 196960, Note_on_c, 1, 63, 127
2, 196960, Note_on_c, 1, 75, 127
2, 197080, Note_off_c, 1, 63, 0
2, 197160, Note_on_c, 1, 67, 127
2, 197280, Note_off_c, 1, 51, 0
2, 197280, Note_off_c, 1, 67, 0
2, 197280, Note_off_c, 1, 75, 0
2, 197320, Note_on_c, 1, 65, 127
2, 197320, Note_on_c, 1, 74, 127
2, 197480, Note_off_c, 1, 65, 0
2, 197520, Note_on_c, 1, 65, 127
2, 197680, Note_off_c, 1, 65, 0
2, 197680, Note_off_c, 1, 74, 0
2, 197720, Note_on_c, 1, 46, 127
2, 197720, Note_on_c, 1, 74, 127
2, 197920, Note_on_c, 1, 62, 127
2, 198040, Note_off_c, 1, 46, 0
2, 198040, Note_off_c, 1, 62, 0
2, 198040, Note_off_c, 1, 74, 0
2, 198120, Note_on_c, 1, 67, 127
2, 198120, Note_on_c, 1, 82, 127
2, 198240, Note_off_c, 1, 67, 0
2, 198280, Note_on_c, 1, 58, 127
2, 198440, Note_off_c, 1, 58, 0
2, 198440, Note_off_c, 1, 82, 0
2, 198480, Note_on_c, 1, 63, 127
2, 198480, Note_on_c, 1, 79, 127
2, 198640, Note_off_c, 1, 63, 0
2, 198680, Note_on_c, 1, 62, 127
2, 198840, Note_off_c, 1, 62, 0
2, 198840, Note_off_c, 1, 79, 0
2, 198880, Note_on_c, 1, 63, 127
2, 198880, Note_on_c, 1, 75, 127
2, 198880, Note_on_c, 1, 79, 127
2, 199000, Note_off_c, 1, 75, 0
2, 199080, Note_on_c, 1, 70, 127
2, 199200, Note_off_c, 1, 63, 0
2, 199200, Note_off_c, 1, 70, 0
2, 199200, Note_off_c, 1, 79, 0
2, 199240, Note_on_c, 1, 50, 127
2, 199240, Note_on_c, 1, 53, 127
2, 199240, Note_on_c, 1, 60, 127
2, 199240, Note_on_c, 1, 70, 127
2, 199400, Note_off_c, 1, 60, 0
2, 199440, Note_on_c, 1, 58, 127
2, 199440, Note_on_c, 1, 68, 127
2, 199520, Note_off_c, 1, 68, 0
2, 199600, Note_off_c, 1, 58, 0
2, 199600, Note_off_c, 1, 70, 0
2, 199640, Note_on_c, 1, 60, 127
2, 199640, Note_on_c, 1, 67, 127
2, 199640, Note_on_c, 1, 70, 127
2, 199800, Note_off_c, 1, 60, 0
2, 199800, Note_off_c, 1, 67, 0
2, 199800, Note_off_c, 1, 70, 0
2, 199840, Note_on_c, 1, 63, 127
2, 199840, Note_on_c, 1, 69, 127
2, 199840, Note_on_c, 1, 73, 127
2, 200000, Note_off_c, 1, 63, 0
2, 200000, Note_off_c, 1, 69, 0
2, 200000, Note_off_c, 1, 73, 0
2, 200040, Note_on_c, 1, 62, 127
2, 200040, Note_on_c, 1, 65, 127
2, 200040, Note_on_c, 1, 70, 127
2, 200200, Note_off_c, 1, 65, 0
2, 200240, Note_on_c, 1, 77, 127
2, 200360, Note_off_c, 1, 50, 0
2, 200360, Note_off_c, 1, 53, 0
2, 200360, Note_off_c, 1, 62, 0
2, 200360, Note_off_c, 1, 70, 0
2, 200360, Note_off_c, 1, 77, 0
2, 200440, Note_on_c, 1, 46, 127
2, 200440, Note_on_c, 1, 53, 127
2, 200440, Note_on_c, 1, 58, 127
2, 200440, Note_on_c, 1, 63, 127
2, 200440, Note_on_c, 1, 70, 127
2, 200440, Note_on_c, 1, 74, 127
2, 200560, Note_off_c, 1, 63, 0
2, 200760, Note_off_c, 1, 46, 0
2, 200760, Note_off_c, 1, 53, 0
2, 200760, Note_off_c, 1, 58, 0
2, 200760, Note_off_c, 1, 70, 0
2, 200760, Note_off_c, 1, 74, 0
2, 200800, Note_on_c, 1, 72, 127
2, 200800, Note_on_c, 1, 75, 127
2, 201200, Note_on_c, 1, 48, 127
2, 201200, Note_on_c, 1, 53, 127
2, 201200, Note_on_c, 1, 57, 127
2, 201320, Note_off_c, 1, 72, 0
2, 201400, Note_on_c, 1, 72, 127
2, 201720, Note_off_c, 1, 48, 0
2, 201720, Note_off_c, 1, 53, 0
2, 201720, Note_off_c, 1, 57, 0
2, 201720, Note_off_c, 1, 72, 0
2, 201720, Note_off_c, 1, 75, 0
2, 201760, Note_on_c, 1, 48, 127
2, 201760, Note_on_c, 1, 60, 127
2, 201760, Note_on_c, 1, 69, 127
2, 201760, Note_on_c, 1, 72, 127
2, 201920, Note_off_c, 1, 69, 0
2, 201920, Note_off_c, 1, 72, 0
2, 201960, Note_on_c, 1, 63, 127
2, 201960, Note_on_c, 1, 72, 127
2, 201960, Note_on_c, 1, 84, 127
2, 202120, Note_off_c, 1, 48, 0
2, 202120, Note_off_c, 1, 60, 0
2, 202120, Note_off_c, 1, 63, 0
2, 202120, Note_off_c, 1, 72, 0
2, 202120, Note_off_c, 1, 84, 0
2, 202160, Note_on_c, 1, 46, 127
2, 202160, Note_on_c, 1, 58, 127
2, 202160, Note_on_c, 1, 80, 127
2, 202160, Note_on_c, 1, 86, 127
2, 202320, Note_off_c, 1, 80, 0
2, 202320, Note_off_c, 1, 86, 0
2, 202360, Note_on_c, 1, 82, 127
2, 202360, Note_on_c, 1, 86, 127
2, 202480, Note_off_c, 1, 46, 0
2, 202480, Note_off_c, 1, 58, 0
2, 202480, Note_off_c, 1, 82, 0
2, 202480, Note_off_c, 1, 86, 0
2, 202560, Note_on_c, 1, 45, 127
2, 202560, Note_on_c, 1, 48, 127
2, 202560, Note_on_c, 1, 57, 127
2, 202560, Note_on_c, 1, 84, 127
2, 202560, Note_on_c, 1, 87, 127
2, 202680, Note_off_c, 1, 84, 0
2, 202680, Note_off_c, 1, 87, 0
2, 202720, Note_on_c, 1, 84, 127
2, 202760, Note_off_c, 1, 45, 0
2, 202760, Note_on_c, 1, 50, 127
2, 202800, Note_on_c, 1, 45, 127
2, 202800, Note_off_c, 1, 50, 0
2, 202880, Note_off_c, 1, 45, 0
2, 202880, Note_off_c, 1, 48, 0
2, 202880, Note_off_c, 1, 57, 0
2, 202920, Note_on_c, 1, 48, 127
2, 202920, Note_on_c, 1, 53, 127
2, 202920, Note_on_c, 1, 57, 127
2, 202920, Note_on_c, 1, 81, 127
2, 203040, Note_off_c, 1, 81, 0
2, 203080, Note_off_c, 1, 84, 0
2, 203120, Note_on_c, 1, 77, 127
2, 203160, Note_on_c, 1, 81, 127
2, 203240, Note_off_c, 1, 77, 0
2, 203240, Note_off_c, 1, 81, 0
2, 203280, Note_off_c, 1, 48, 0
2, 203280, Note_off_c, 1, 53, 0
2, 203280, Note_off_c, 1, 57, 0
2, 203320, Note_on_c, 1, 46, 127
2, 203320, Note_on_c, 1, 55, 127
2, 203320, Note_on_c, 1, 58, 127
2, 203320, Note_on_c, 1, 75, 127
2, 203320, Note_on_c, 1, 82, 127
2, 203480, Note_on_c, 1, 74, 127
2, 203480, Note_off_c, 1, 75, 0
2, 203640, Note_off_c, 1, 46, 0
2, 203640, Note_off_c, 1, 55, 0
2, 203640, Note_off_c, 1, 58, 0
2, 203640, Note_off_c, 1, 74, 0
2, 203640, Note_off_c, 1, 82, 0
2, 203720, Note_on_c, 1, 38, 127
2, 203720, Note_on_c, 1, 50, 127
2, 203720, Note_on_c, 1, 53, 127
2, 203720, Note_on_c, 1, 65, 127
2, 203720, Note_on_c, 1, 74, 127
2, 204040, Note_off_c, 1, 38, 0
2, 204040, Note_off_c, 1, 65, 0
2, 204040, Note_off_c, 1, 74, 0
2, 204080, Note_on_c, 1, 56, 127
2, 204080, Note_on_c, 1, 69, 127
2, 204080, Note_on_c, 1, 75, 127
2, 204080, Note_on_c, 1, 84, 127
2, 204400, Note_off_c, 1, 56, 0
2, 204400, Note_off_c, 1, 69, 0
2, 204400, Note_off_c, 1, 75, 0
2, 204400, Note_off_c, 1, 84, 0
2, 204440, Note_off_c, 1, 50, 0
2, 204440, Note_off_c, 1, 53, 0
2, 204480, Note_on_c, 1, 51, 127
2, 204480, Note_on_c, 1, 60, 127
2, 204680, Note_on_c, 1, 70, 127
2, 204800, Note_off_c, 1, 51, 0
2, 204800, Note_off_c, 1, 60, 0
2, 204840, Note_on_c, 1, 53, 127
2, 204840, Note_on_c, 1, 58, 127
2, 204840, Note_on_c, 1, 82, 127
2, 205400, Note_off_c, 1, 70, 0
2, 205600, Note_off_c, 1, 53, 0
2, 205600, Note_off_c, 1, 82, 0
2, 205640, Note_on_c, 1, 65, 127
2, 205640, Note_on_c, 1, 77, 127
2, 205800, Note_off_c, 1, 65, 0
2, 205840, Note_on_c, 1, 62, 127
2, 205960, Note_off_c, 1, 58, 0
2, 205960, Note_off_c, 1, 62, 0
2, 205960, Note_off_c, 1, 77, 0
2, 206040, Note_on_c, 1, 58, 127
2, 206040, Note_on_c, 1, 62, 127
2, 206040, Note_on_c, 1, 77, 127
2, 206160, Note_off_c, 1, 62, 0
2, 206200, Note_on_c, 1, 63, 127
2, 206360, Note_off_c, 1, 63, 0
2, 206400, Note_on_c, 1, 62, 127
2, 206560, Note_off_c, 1, 62, 0
2, 206600, Note_on_c, 1, 65, 127
2, 206720, Note_off_c, 1, 65, 0
2, 206720, Note_off_c, 1, 77, 0
2, 206800, Note_on_c, 1, 70, 127
2, 206800, Note_on_c, 1, 74, 127
2, 206920, Note_off_c, 1, 70, 0
2, 206960, Note_on_c, 1, 65, 127
2, 207120, Note_off_c, 1, 65, 0
2, 207160, Note_on_c, 1, 63, 127
2, 207160, Note_on_c, 1, 70, 127
2, 207320, Note_off_c, 1, 70, 0
2, 207480, Note_off_c, 1, 63, 0
2, 207480, Note_off_c, 1, 74, 0
2, 207560, Note_on_c, 1, 46, 127
2, 207560, Note_on_c, 1, 62, 127
2, 207560, Note_on_c, 1, 74, 127
2, 207680, Note_off_c, 1, 62, 0
2, 207720, Note_on_c, 1, 62, 127
2, 207880, Note_off_c, 1, 62, 0
2, 207920, Note_on_c, 1, 62, 127
2, 208080, Note_off_c, 1, 46, 0
2, 208280, Note_off_c, 1, 58, 0
2, 208280, Note_off_c, 1, 62, 0
2, 208280, Note_off_c, 1, 74, 0
2, 208320, Note_on_c, 1, 58, 127
2, 208320, Note_on_c, 1, 60, 127
2, 208320, Note_on_c, 1, 75, 127
2, 208480, Note_off_c, 1, 75, 0
2, 208520, Note_on_c, 1, 77, 127
2, 208600, Note_off_c, 1, 77, 0
2, 208640, Note_off_c, 1, 58, 0
2, 208640, Note_off_c, 1, 60, 0
2, 208720, Note_on_c, 1, 58, 127
2, 208720, Note_on_c, 1, 60, 127
2, 208720, Note_on_c, 1, 87, 127
2, 208840, Note_off_c, 1, 87, 0
2, 208880, Note_on_c, 1, 86, 127
2, 209040, Note_off_c, 1, 86, 0
2, 209080, Note_on_c, 1, 84, 127
2, 209240, Note_off_c, 1, 84, 0
2, 209280, Note_on_c, 1, 75, 127
2, 209440, Note_off_c, 1, 58, 0
2, 209440, Note_off_c, 1, 60, 0
2, 209440, Note_off_c, 1, 75, 0
2, 209480, Note_on_c, 1, 60, 127
2, 209480, Note_on_c, 1, 63, 127
2, 209480, Note_on_c, 1, 84, 127
2, 209800, Note_off_c, 1, 60, 0
2, 209800, Note_off_c, 1, 63, 0
2, 209800, Note_on_c, 1, 82, 127
2, 209800, Note_off_c, 1, 84, 0
2, 209840, Note_off_c, 1, 82, 0
2, 209840, Note_on_c, 1, 84, 127
2, 209880, Note_on_c, 1, 82, 127
2, 209880, Note_off_c, 1, 84, 0
2, 209920, Note_off_c, 1, 82, 0
2, 209920, Note_on_c, 1, 84, 127
2, 210000, Note_on_c, 1, 82, 127
2, 210000, Note_off_c, 1, 84, 0
2, 210040, Note_on_c, 1, 58, 127
2, 210200, Note_on_c, 1, 63, 127
2, 210200, Note_off_c, 1, 82, 0
2, 210240, Note_on_c, 1, 84, 127
2, 210600, Note_off_c, 1, 84, 0
2, 210640, Note_on_c, 1, 82, 127
2, 210840, Note_on_c, 1, 72, 127
2, 210880, Note_off_c, 1, 82, 0
2, 210960, Note_off_c, 1, 63, 0
2, 211040, Note_on_c, 1, 62, 127
2, 211040, Note_on_c, 1, 81, 127
2, 211080, Note_off_c, 1, 81, 0
2, 211200, Note_on_c, 1, 78, 127
2, 211360, Note_off_c, 1, 72, 0
2, 211360, Note_off_c, 1, 78, 0
2, 211400, Note_on_c, 1, 70, 127
2, 211400, Note_on_c, 1, 82, 127
2, 211560, Note_off_c, 1, 62, 0
2, 211560, Note_off_c, 1, 82, 0
2, 211600, Note_on_c, 1, 65, 127
2, 211600, Note_on_c, 1, 77, 127
2, 211760, Note_off_c, 1, 65, 0
2, 211760, Note_off_c, 1, 70, 0
2, 211800, Note_on_c, 1, 60, 127
2, 211800, Note_on_c, 1, 69, 127
2, 211960, Note_off_c, 1, 69, 0
2, 212000, Note_on_c, 1, 67, 127
2, 212120, Note_off_c, 1, 60, 0
2, 212120, Note_off_c, 1, 77, 0
2, 212200, Note_on_c, 1, 34, 127
2, 212200, Note_on_c, 1, 50, 127
2, 212200, Note_on_c, 1, 66, 127
2, 212200, Note_on_c, 1, 70, 127
2, 212200, Note_on_c, 1, 79, 127
2, 212320, Note_off_c, 1, 34, 0
2, 212320, Note_off_c, 1, 67, 0
2, 212320, Note_off_c, 1, 79, 0
2, 212360, Note_off_c, 1, 50, 0
2, 212360, Note_on_c, 1, 51, 127
2, 212360, Note_off_c, 1, 66, 0
2, 212360, Note_on_c, 1, 67, 127
2, 212360, Note_on_c, 1, 78, 127
2, 212520, Note_off_c, 1, 51, 0
2, 212520, Note_off_c, 1, 67, 0
2, 212520, Note_off_c, 1, 70, 0
2, 212520, Note_off_c, 1, 78, 0
2, 212560, Note_on_c, 1, 52, 127
2, 212560, Note_on_c, 1, 79, 127
2, 212720, Note_off_c, 1, 79, 0
2, 212760, Note_on_c, 1, 77, 127
2, 212920, Note_off_c, 1, 52, 0
2, 212920, Note_off_c, 1, 58, 0
2, 212920, Note_off_c, 1, 77, 0
2, 212960, Note_on_c, 1, 53, 127
2, 212960, Note_on_c, 1, 57, 127
2, 212960, Note_on_c, 1, 60, 127
2, 212960, Note_on_c, 1, 77, 127
2, 213280, Note_off_c, 1, 57, 0
2, 213280, Note_off_c, 1, 60, 0
2, 213280, Note_off_c, 1, 77, 0
2, 213320, Note_on_c, 1, 56, 127
2, 213560, End_track
3, 0, Start_track
3, 0, Title_t, "MIDI"
3, 1536, End_track
0, 0, End_of_file
