0, 0, Header, 1, 3, 384
1, 0, Start_track
1, 0, Time_signature, 4, 2, 24, 8
1, 0, Tempo, 500000
1, 271000, End_track
2, 0, Start_track
2, 0, Text_t, "harpsichord: John Sankey"
2, 0, Title_t, "Track 1"
2, 0, Note_on_c, 1, 27, 127
2, 40, Note_off_c, 1, 27, 0
2, 40, Note_on_c, 1, 54, 127
2, 40, Note_on_c, 1, 82, 127
2, 160, Note_off_c, 1, 54, 0
2, 160, Note_off_c, 1, 82, 0
2, 200, Note_on_c, 1, 58, 127
2, 200, Note_on_c, 1, 85, 127
2, 320, Note_off_c, 1, 58, 0
2, 320, Note_off_c, 1, 85, 0
2, 360, Note_on_c, 1, 54, 127
2, 360, Note_on_c, 1, 82, 127
2, 440, Note_off_c, 1, 54, 0
2, 440, Note_off_c, 1, 82, 0
2, 480, Note_on_c, 1, 58, 127
2, 480, Note_on_c, 1, 76, 127
2, 600, Note_off_c, 1, 58, 0
2, 600, Note_off_c, 1, 76, 0
2, 640, Note_on_c, 1, 54, 127
2, 640, Note_on_c, 1, 74, 127
2, 760, Note_off_c, 1, 54, 0
2, 760, Note_off_c, 1, 74, 0
2, 800, Note_on_c, 1, 55, 127
2, 800, Note_on_c, 1, 75, 127
2, 920, Note_off_c, 1, 55, 0
2, 920, Note_off_c, 1, 75, 0
2, 960, Note_on_c, 1, 58, 127
2, 960, Note_on_c, 1, 73, 127
2, 1040, Note_off_c, 1, 58, 0
2, 1040, Note_off_c, 1, 73, 0
2, 1120, Note_on_c, 1, 52, 127
2, 1120, Note_on_c, 1, 75, 127
2, 1240, Note_off_c, 1, 75, 0
2, 1240, Note_on_c, 1, 78, 127
2, 1360, Note_off_c, 1, 78, 0
2, 1400, Note_on_c, 1, 79, 127
2, 1480, Note_off_c, 1, 52, 0
2, 1480, Note_off_c, 1, 79, 0
2, 1520, Note_on_c, 1, 55, 127
2, 1520, Note_on_c, 1, 82, 127
2, 1640, Note_off_c, 1, 82, 0
2, 1680, Note_on_c, 1, 76, 127
2, 1800, Note_off_c, 1, 55, 0
2, 1800, Note_off_c, 1, 76, 0
2, 1840, Note_on_c, 1, 59, 127
2, 1840, Note_on_c, 1, 78, 127
2, 1920, Note_off_c, 1, 59, 0
2, 1920, Note_off_c, 1, 78, 0
2, 1960, Note_on_c, 1, 58, 127
2, 1960, Note_on_c, 1, 79, 127
2, 2080, Note_off_c, 1, 58, 0
2, 2080, Note_off_c, 1, 79, 0
2, 2120, Note_on_c, 1, 55, 127
2, 2120, Note_on_c, 1, 76, 127
2, 2240, Note_off_c, 1, 55, 0
2, 2240, Note_off_c, 1, 76, 0
2, 2280, Note_on_c, 1, 58, 127
2, 2280, Note_on_c, 1, 74, 127
2, 2360, Note_off_c, 1, 74, 0
2, 2400, Note_on_c, 1, 76, 127
2, 2520, Note_off_c, 1, 58, 0
2, 2520, Note_off_c, 1, 76, 0
2, 2560, Note_on_c, 1, 59, 127
2, 2560, Note_on_c, 1, 74, 127
2, 2680, Note_off_c, 1, 59, 0
2, 2680, Note_off_c, 1, 74, 0
2, 2720, Note_on_c, 1, 58, 127
2, 2720, Note_on_c, 1, 76, 127
2, 2800, Note_off_c, 1, 58, 0
2, 2800, Note_off_c, 1, 76, 0
2, 2840, Note_on_c, 1, 59, 127
2, 2840, Note_on_c, 1, 75, 127
2, 2960, Note_off_c, 1, 59, 0
2, 2960, Note_off_c, 1, 75, 0
2, 3000, Note_on_c, 1, 58, 127
2, 3000, Note_on_c, 1, 74, 127
2, 3120, Note_off_c, 1, 58, 0
2, 3120, Note_off_c, 1, 74, 0
2, 3160, Note_on_c, 1, 59, 127
2, 3160, Note_on_c, 1, 75, 127
2, 3240, Note_off_c, 1, 59, 0
2, 3240, Note_off_c, 1, 75, 0
2, 3280, Note_on_c, 1, 55, 127
2, 3280, Note_on_c, 1, 71, 127
2, 3400, Note_off_c, 1, 55, 0
2, 3400, Note_off_c, 1, 71, 0
2, 3440, Note_on_c, 1, 59, 127
2, 3440, Note_on_c, 1, 70, 127
2, 3560, Note_off_c, 1, 59, 0
2, 3560, Note_off_c, 1, 70, 0
2, 3600, Note_on_c, 1, 52, 127
2, 3600, Note_on_c, 1, 67, 127
2, 3720, Note_off_c, 1, 52, 0
2, 3720, Note_off_c, 1, 67, 0
2, 3760, Note_on_c, 1, 55, 127
2, 3760, Note_on_c, 1, 63, 127
2, 3880, Note_off_c, 1, 63, 0
2, 3920, Note_on_c, 1, 67, 127
2, 4000, Note_off_c, 1, 55, 0
2, 4000, Note_off_c, 1, 67, 0
2, 4080, Note_on_c, 1, 51, 127
2, 4080, Note_on_c, 1, 68, 127
2, 4160, Note_off_c, 1, 68, 0
2, 4200, Note_on_c, 1, 61, 127
2, 4320, Note_off_c, 1, 61, 0
2, 4360, Note_on_c, 1, 63, 127
2, 4440, Note_off_c, 1, 51, 0
2, 4480, Note_off_c, 1, 63, 0
2, 4520, Note_on_c, 1, 55, 127
2, 4520, Note_on_c, 1, 71, 127
2, 4640, Note_off_c, 1, 71, 0
2, 4680, Note_on_c, 1, 70, 127
2, 4800, Note_off_c, 1, 70, 0
2, 4840, Note_on_c, 1, 67, 127
2, 4960, Note_off_c, 1, 55, 0
2, 4960, Note_off_c, 1, 67, 0
2, 5000, Note_on_c, 1, 54, 127
2, 5000, Note_on_c, 1, 62, 127
2, 5080, Note_off_c, 1, 62, 0
2, 5160, Note_on_c, 1, 63, 127
2, 5240, Note_off_c, 1, 54, 0
2, 5240, Note_off_c, 1, 63, 0
2, 5280, Note_on_c, 1, 59, 127
2, 5280, Note_on_c, 1, 67, 127
2, 5400, Note_off_c, 1, 59, 0
2, 5400, Note_off_c, 1, 67, 0
2, 5440, Note_on_c, 1, 58, 127
2, 5440, Note_on_c, 1, 70, 127
2, 5560, Note_off_c, 1, 58, 0
2, 5560, Note_off_c, 1, 70, 0
2, 5600, Note_on_c, 1, 59, 127
2, 5600, Note_on_c, 1, 71, 127
2, 5760, Note_on_c, 1, 67, 127
2, 5760, Note_off_c, 1, 71, 0
2, 5880, Note_off_c, 1, 67, 0
2, 5920, Note_on_c, 1, 71, 127
2, 6000, Note_off_c, 1, 59, 0
2, 6080, Note_on_c, 1, 57, 127
2, 6200, Note_off_c, 1, 57, 0
2, 6200, Note_off_c, 1, 71, 0
2, 6240, Note_on_c, 1, 56, 127
2, 6240, Note_on_c, 1, 59, 127
2, 6320, Note_off_c, 1, 59, 0
2, 6400, Note_on_c, 1, 64, 127
2, 6480, Note_off_c, 1, 56, 0
2, 6480, Note_off_c, 1, 64, 0
2, 6520, Note_on_c, 1, 52, 127
2, 6520, Note_on_c, 1, 60, 127
2, 6640, Note_off_c, 1, 52, 0
2, 6640, Note_off_c, 1, 60, 0
2, 6680, Note_on_c, 1, 56, 127
2, 6680, Note_on_c, 1, 59, 127
2, 6800, Note_off_c, 1, 59, 0
2, 6840, Note_on_c, 1, 61, 127
2, 6920, Note_off_c, 1, 61, 0
2, 7000, Note_on_c, 1, 68, 127
2, 7080, Note_off_c, 1, 68, 0
2, 7160, Note_on_c, 1, 63, 127
2, 7240, Note_off_c, 1, 56, 0
2, 7240, Note_off_c, 1, 63, 0
2, 7280, Note_on_c, 1, 49, 127
2, 7280, Note_on_c, 1, 64, 127
2, 7400, Note_off_c, 1, 64, 0
2, 7440, Note_on_c, 1, 67, 127
2, 7560, Note_off_c, 1, 49, 0
2, 7560, Note_off_c, 1, 67, 0
2, 7600, Note_on_c, 1, 58, 127
2, 7600, Note_on_c, 1, 63, 127
2, 7680, Note_off_c, 1, 58, 0
2, 7680, Note_off_c, 1, 63, 0
2, 7720, Note_on_c, 1, 56, 127
2, 7720, Note_on_c, 1, 64, 127
2, 7840, Note_off_c, 1, 56, 0
2, 7840, Note_off_c, 1, 64, 0
2, 7880, Note_on_c, 1, 54, 127
2, 7880, Note_on_c, 1, 63, 127
2, 8000, Note_off_c, 1, 54, 0
2, 8000, Note_off_c, 1, 63, 0
2, 8040, Note_on_c, 1, 52, 127
2, 8040, Note_on_c, 1, 61, 127
2, 8160, Note_off_c, 1, 61, 0
2, 8200, Note_on_c, 1, 60, 127
2, 8280, Note_off_c, 1, 52, 0
2, 8280, Note_off_c, 1, 60, 0
2, 8360, Note_on_c, 1, 56, 127
2, 8440, Note_off_c, 1, 56, 0
2, 8480, Note_on_c, 1, 54, 127
2, 8480, Note_on_c, 1, 63, 127
2, 8600, Note_off_c, 1, 63, 0
2, 8640, Note_on_c, 1, 62, 127
2, 8720, Note_off_c, 1, 62, 0
2, 8800, Note_on_c, 1, 63, 127
2, 8880, Note_off_c, 1, 54, 0
2, 8880, Note_off_c, 1, 63, 0
2, 8920, Note_on_c, 1, 56, 127
2, 8920, Note_on_c, 1, 66, 127
2, 9040, Note_off_c, 1, 66, 0
2, 9080, Note_on_c, 1, 64, 127
2, 9200, Note_off_c, 1, 64, 0
2, 9240, Note_on_c, 1, 63, 127
2, 9360, Note_off_c, 1, 56, 0
2, 9360, Note_off_c, 1, 63, 0
2, 9400, Note_on_c, 1, 54, 127
2, 9400, Note_on_c, 1, 61, 127
2, 9480, Note_off_c, 1, 54, 0
2, 9480, Note_off_c, 1, 61, 0
2, 9560, Note_on_c, 1, 59, 127
2, 9640, Note_off_c, 1, 59, 0
2, 9680, Note_on_c, 1, 57, 127
2, 9680, Note_on_c, 1, 75, 127
2, 9800, Note_off_c, 1, 57, 0
2, 9800, Note_off_c, 1, 75, 0
2, 9840, Note_on_c, 1, 54, 127
2, 9840, Note_on_c, 1, 71, 127
2, 9960, Note_off_c, 1, 71, 0
2, 10000, Note_on_c, 1, 75, 127
2, 10120, Note_off_c, 1, 54, 0
2, 10120, Note_off_c, 1, 75, 0
2, 10160, Note_on_c, 1, 53, 127
2, 10160, Note_on_c, 1, 72, 127
2, 10280, Note_off_c, 1, 53, 0
2, 10280, Note_off_c, 1, 72, 0
2, 10320, Note_on_c, 1, 51, 127
2, 10320, Note_on_c, 1, 78, 127
2, 10440, Note_off_c, 1, 51, 0
2, 10440, Note_off_c, 1, 78, 0
2, 10480, Note_on_c, 1, 44, 127
2, 10480, Note_on_c, 1, 76, 127
2, 10560, Note_off_c, 1, 44, 0
2, 10560, Note_off_c, 1, 76, 0
2, 10600, Note_on_c, 1, 51, 127
2, 10600, Note_on_c, 1, 78, 127
2, 10720, Note_off_c, 1, 51, 0
2, 10720, Note_off_c, 1, 78, 0
2, 10760, Note_on_c, 1, 76, 127
2, 10880, Note_off_c, 1, 76, 0
2, 10920, Note_on_c, 1, 60, 127
2, 10920, Note_on_c, 1, 75, 127
2, 11000, Note_off_c, 1, 60, 0
2, 11040, Note_on_c, 1, 56, 127
2, 11040, Note_on_c, 1, 66, 127
2, 11080, Note_off_c, 1, 75, 0
2, 11160, Note_off_c, 1, 56, 0
2, 11160, Note_off_c, 1, 66, 0
2, 11200, Note_on_c, 1, 54, 127
2, 11200, Note_on_c, 1, 61, 127
2, 11360, Note_off_c, 1, 61, 0
2, 11360, Note_on_c, 1, 69, 127
2, 11480, Note_off_c, 1, 54, 0
2, 11480, Note_off_c, 1, 69, 0
2, 11520, Note_on_c, 1, 56, 127
2, 11520, Note_on_c, 1, 63, 127
2, 11680, Note_off_c, 1, 63, 0
2, 11680, Note_on_c, 1, 75, 127
2, 11760, Note_off_c, 1, 56, 0
2, 11760, Note_off_c, 1, 75, 0
2, 11840, Note_on_c, 1, 57, 127
2, 11840, Note_on_c, 1, 73, 127
2, 11920, Note_off_c, 1, 73, 0
2, 11960, Note_on_c, 1, 72, 127
2, 12080, Note_off_c, 1, 57, 0
2, 12080, Note_off_c, 1, 72, 0
2, 12120, Note_on_c, 1, 61, 127
2, 12120, Note_on_c, 1, 73, 127
2, 12200, Note_off_c, 1, 73, 0
2, 12240, Note_on_c, 1, 72, 127
2, 12360, Note_off_c, 1, 61, 0
2, 12360, Note_off_c, 1, 72, 0
2, 12400, Note_on_c, 1, 60, 127
2, 12400, Note_on_c, 1, 69, 127
2, 12480, Note_off_c, 1, 69, 0
2, 12560, Note_on_c, 1, 66, 127
2, 12640, Note_off_c, 1, 60, 0
2, 12640, Note_off_c, 1, 66, 0
2, 12680, Note_on_c, 1, 57, 127
2, 12680, Note_on_c, 1, 72, 127
2, 12800, Note_off_c, 1, 72, 0
2, 12840, Note_on_c, 1, 75, 127
2, 12960, Note_off_c, 1, 57, 0
2, 12960, Note_off_c, 1, 75, 0
2, 13000, Note_on_c, 1, 60, 127
2, 13000, Note_on_c, 1, 78, 127
2, 13120, Note_off_c, 1, 78, 0
2, 13160, Note_on_c, 1, 78, 127
2, 13240, Note_off_c, 1, 60, 0
2, 13240, Note_off_c, 1, 78, 0
2, 13280, Note_on_c, 1, 61, 127
2, 13280, Note_on_c, 1, 69, 127
2, 13400, Note_off_c, 1, 69, 0
2, 13440, Note_on_c, 1, 80, 127
2, 13520, Note_off_c, 1, 61, 0
2, 13520, Note_off_c, 1, 80, 0
2, 13560, Note_on_c, 1, 66, 127
2, 13560, Note_on_c, 1, 78, 127
2, 13680, Note_off_c, 1, 78, 0
2, 13720, Note_on_c, 1, 81, 127
2, 13800, Note_off_c, 1, 66, 0
2, 13840, Note_off_c, 1, 81, 0
2, 13880, Note_on_c, 1, 57, 127
2, 13880, Note_on_c, 1, 75, 127
2, 13960, Note_off_c, 1, 75, 0
2, 14000, Note_off_c, 1, 57, 0
2, 14000, Note_on_c, 1, 84, 127
2, 14040, Note_on_c, 1, 55, 127
2, 14120, Note_off_c, 1, 55, 0
2, 14120, Note_off_c, 1, 84, 0
2, 14200, Note_on_c, 1, 59, 127
2, 14200, Note_on_c, 1, 75, 127
2, 14280, Note_off_c, 1, 75, 0
2, 14320, Note_on_c, 1, 78, 127
2, 14440, Note_off_c, 1, 59, 0
2, 14440, Note_off_c, 1, 78, 0
2, 14480, Note_on_c, 1, 57, 127
2, 14480, Note_on_c, 1, 71, 127
2, 14600, Note_off_c, 1, 71, 0
2, 14640, Note_on_c, 1, 75, 127
2, 14720, Note_off_c, 1, 57, 0
2, 14720, Note_off_c, 1, 75, 0
2, 14800, Note_on_c, 1, 55, 127
2, 14800, Note_on_c, 1, 76, 127
2, 14880, Note_off_c, 1, 76, 0
2, 14920, Note_on_c, 1, 79, 127
2, 15040, Note_off_c, 1, 55, 0
2, 15040, Note_off_c, 1, 79, 0
2, 15080, Note_on_c, 1, 53, 127
2, 15080, Note_on_c, 1, 84, 127
2, 15200, Note_off_c, 1, 84, 0
2, 15240, Note_on_c, 1, 83, 127
2, 15320, Note_off_c, 1, 53, 0
2, 15320, Note_off_c, 1, 83, 0
2, 15360, Note_on_c, 1, 58, 127
2, 15360, Note_on_c, 1, 76, 127
2, 15480, Note_off_c, 1, 76, 0
2, 15520, Note_on_c, 1, 79, 127
2, 15640, Note_off_c, 1, 58, 0
2, 15640, Note_off_c, 1, 79, 0
2, 15680, Note_on_c, 1, 55, 127
2, 15680, Note_on_c, 1, 76, 127
2, 15760, Note_off_c, 1, 76, 0
2, 15840, Note_on_c, 1, 77, 127
2, 15920, Note_off_c, 1, 55, 0
2, 15920, Note_off_c, 1, 77, 0
2, 15960, Note_on_c, 1, 52, 127
2, 15960, Note_on_c, 1, 79, 127
2, 16080, Note_off_c, 1, 79, 0
2, 16120, Note_on_c, 1, 71, 127
2, 16240, Note_off_c, 1, 52, 0
2, 16240, Note_off_c, 1, 71, 0
2, 16280, Note_on_c, 1, 48, 127
2, 16280, Note_on_c, 1, 72, 127
2, 16400, Note_off_c, 1, 48, 0
2, 16400, Note_off_c, 1, 72, 0
2, 16440, Note_on_c, 1, 43, 127
2, 16440, Note_on_c, 1, 71, 127
2, 16520, Note_off_c, 1, 43, 0
2, 16520, Note_off_c, 1, 71, 0
2, 16560, Note_on_c, 1, 52, 127
2, 16560, Note_on_c, 1, 67, 127
2, 16680, Note_off_c, 1, 67, 0
2, 16720, Note_on_c, 1, 72, 127
2, 16840, Note_off_c, 1, 52, 0
2, 16840, Note_off_c, 1, 72, 0
2, 16880, Note_on_c, 1, 55, 127
2, 16880, Note_on_c, 1, 70, 127
2, 17000, Note_off_c, 1, 55, 0
2, 17000, Note_off_c, 1, 70, 0
2, 17040, Note_on_c, 1, 48, 127
2, 17040, Note_on_c, 1, 76, 127
2, 17120, Note_off_c, 1, 76, 0
2, 17160, Note_on_c, 1, 70, 127
2, 17280, Note_off_c, 1, 70, 0
2, 17320, Note_on_c, 1, 64, 127
2, 17400, Note_off_c, 1, 48, 0
2, 17400, Note_off_c, 1, 64, 0
2, 17480, Note_on_c, 1, 49, 127
2, 17480, Note_on_c, 1, 61, 127
2, 17560, Note_off_c, 1, 61, 0
2, 17600, Note_on_c, 1, 64, 127
2, 17720, Note_off_c, 1, 49, 0
2, 17720, Note_off_c, 1, 64, 0
2, 17760, Note_on_c, 1, 54, 127
2, 17760, Note_on_c, 1, 70, 127
2, 17880, Note_off_c, 1, 54, 0
2, 17880, Note_off_c, 1, 70, 0
2, 17920, Note_on_c, 1, 55, 127
2, 17920, Note_on_c, 1, 67, 127
2, 18040, Note_off_c, 1, 55, 0
2, 18040, Note_off_c, 1, 67, 0
2, 18080, Note_on_c, 1, 54, 127
2, 18080, Note_on_c, 1, 75, 127
2, 18160, Note_off_c, 1, 54, 0
2, 18160, Note_off_c, 1, 75, 0
2, 18200, Note_on_c, 1, 53, 127
2, 18200, Note_on_c, 1, 67, 127
2, 18320, Note_off_c, 1, 53, 0
2, 18320, Note_off_c, 1, 67, 0
2, 18360, Note_on_c, 1, 51, 127
2, 18360, Note_on_c, 1, 70, 127
2, 18480, Note_off_c, 1, 51, 0
2, 18480, Note_off_c, 1, 70, 0
2, 18520, Note_on_c, 1, 48, 127
2, 18520, Note_on_c, 1, 69, 127
2, 18640, Note_off_c, 1, 48, 0
2, 18640, Note_off_c, 1, 69, 0
2, 18680, Note_on_c, 1, 50, 127
2, 18680, Note_on_c, 1, 70, 127
2, 18760, Note_off_c, 1, 50, 0
2, 18760, Note_off_c, 1, 70, 0
2, 18800, Note_on_c, 1, 52, 127
2, 18800, Note_on_c, 1, 73, 127
2, 18920, Note_off_c, 1, 52, 0
2, 18920, Note_off_c, 1, 73, 0
2, 18960, Note_on_c, 1, 54, 127
2, 18960, Note_on_c, 1, 71, 127
2, 19080, Note_off_c, 1, 54, 0
2, 19120, Note_on_c, 1, 52, 127
2, 19160, Note_off_c, 1, 71, 0
2, 19240, Note_off_c, 1, 52, 0
2, 19280, Note_on_c, 1, 47, 127
2, 19280, Note_on_c, 1, 71, 127
2, 19440, Note_on_c, 1, 75, 127
2, 19520, Note_off_c, 1, 75, 0
2, 19600, Note_on_c, 1, 78, 127
2, 19680, Note_off_c, 1, 47, 0
2, 19680, Note_off_c, 1, 71, 0
2, 19680, Note_off_c, 1, 78, 0
2, 19720, Note_on_c, 1, 47, 127
2, 19720, Note_on_c, 1, 69, 127
2, 19840, Note_off_c, 1, 47, 0
2, 19840, Note_off_c, 1, 69, 0
2, 19880, Note_on_c, 1, 40, 127
2, 19880, Note_on_c, 1, 67, 127
2, 19960, Note_off_c, 1, 67, 0
2, 20040, Note_on_c, 1, 71, 127
2, 20120, Note_off_c, 1, 40, 0
2, 20120, Note_off_c, 1, 71, 0
2, 20160, Note_on_c, 1, 52, 127
2, 20160, Note_on_c, 1, 72, 127
2, 20280, Note_off_c, 1, 72, 0
2, 20320, Note_on_c, 1, 71, 127
2, 20440, Note_off_c, 1, 52, 0
2, 20440, Note_off_c, 1, 71, 0
2, 20480, Note_on_c, 1, 54, 127
2, 20480, Note_on_c, 1, 69, 127
2, 20560, Note_off_c, 1, 54, 0
2, 20600, Note_off_c, 1, 69, 0
2, 20640, Note_on_c, 1, 56, 127
2, 20640, Note_on_c, 1, 72, 127
2, 20720, Note_off_c, 1, 56, 0
2, 20720, Note_off_c, 1, 72, 0
2, 20760, Note_on_c, 1, 54, 127
2, 20760, Note_on_c, 1, 76, 127
2, 20880, Note_off_c, 1, 54, 0
2, 20920, Note_on_c, 1, 47, 127
2, 21040, Note_off_c, 1, 47, 0
2, 21080, Note_on_c, 1, 52, 127
2, 21160, Note_off_c, 1, 52, 0
2, 21200, Note_on_c, 1, 54, 127
2, 21320, Note_off_c, 1, 54, 0
2, 21360, Note_on_c, 1, 59, 127
2, 21480, Note_off_c, 1, 76, 0
2, 21520, Note_on_c, 1, 71, 127
2, 21560, Note_off_c, 1, 59, 0
2, 21600, Note_off_c, 1, 71, 0
2, 21640, Note_on_c, 1, 55, 127
2, 21640, Note_on_c, 1, 71, 127
2, 21760, Note_off_c, 1, 71, 0
2, 21800, Note_on_c, 1, 71, 127
2, 21880, Note_off_c, 1, 71, 0
2, 21920, Note_off_c, 1, 55, 0
2, 21960, Note_on_c, 1, 54, 127
2, 21960, Note_on_c, 1, 72, 127
2, 22040, Note_off_c, 1, 72, 0
2, 22080, Note_on_c, 1, 69, 127
2, 22200, Note_off_c, 1, 54, 0
2, 22200, Note_off_c, 1, 69, 0
2, 22240, Note_on_c, 1, 52, 127
2, 22240, Note_on_c, 1, 67, 127
2, 22320, Note_off_c, 1, 67, 0
2, 22360, Note_on_c, 1, 71, 127
2, 22480, Note_off_c, 1, 52, 0
2, 22480, Note_off_c, 1, 71, 0
2, 22520, Note_on_c, 1, 40, 127
2, 22520, Note_on_c, 1, 72, 127
2, 22640, Note_off_c, 1, 72, 0
2, 22680, Note_on_c, 1, 71, 127
2, 22760, Note_off_c, 1, 40, 0
2, 22760, Note_off_c, 1, 71, 0
2, 22800, Note_on_c, 1, 45, 127
2, 22800, Note_on_c, 1, 72, 127
2, 22920, Note_off_c, 1, 72, 0
2, 22960, Note_on_c, 1, 69, 127
2, 23040, Note_off_c, 1, 45, 0
2, 23040, Note_off_c, 1, 69, 0
2, 23120, Note_on_c, 1, 47, 127
2, 23120, Note_on_c, 1, 67, 127
2, 23200, Note_off_c, 1, 67, 0
2, 23240, Note_on_c, 1, 68, 127
2, 23360, Note_off_c, 1, 47, 0
2, 23360, Note_off_c, 1, 68, 0
2, 23400, Note_on_c, 1, 48, 127
2, 23400, Note_on_c, 1, 64, 127
2, 23480, Note_off_c, 1, 64, 0
2, 23520, Note_on_c, 1, 69, 127
2, 23640, Note_off_c, 1, 48, 0
2, 23640, Note_off_c, 1, 69, 0
2, 23680, Note_on_c, 1, 37, 127
2, 23680, Note_on_c, 1, 67, 127
2, 23760, Note_off_c, 1, 67, 0
2, 23840, Note_on_c, 1, 69, 127
2, 23880, Note_off_c, 1, 37, 0
2, 23920, Note_off_c, 1, 69, 0
2, 23960, Note_on_c, 1, 43, 127
2, 23960, Note_on_c, 1, 71, 127
2, 24080, Note_off_c, 1, 71, 0
2, 24120, Note_on_c, 1, 77, 127
2, 24200, Note_off_c, 1, 43, 0
2, 24200, Note_off_c, 1, 77, 0
2, 24240, Note_on_c, 1, 45, 127
2, 24240, Note_on_c, 1, 79, 127
2, 24360, Note_off_c, 1, 79, 0
2, 24400, Note_on_c, 1, 74, 127
2, 24520, Note_off_c, 1, 45, 0
2, 24520, Note_off_c, 1, 74, 0
2, 24560, Note_on_c, 1, 47, 127
2, 24560, Note_on_c, 1, 68, 127
2, 24640, Note_off_c, 1, 68, 0
2, 24720, Note_on_c, 1, 71, 127
2, 24800, Note_off_c, 1, 47, 0
2, 24800, Note_off_c, 1, 71, 0
2, 24840, Note_on_c, 1, 49, 127
2, 24840, Note_on_c, 1, 64, 127
2, 24960, Note_off_c, 1, 64, 0
2, 25000, Note_on_c, 1, 76, 127
2, 25080, Note_off_c, 1, 49, 0
2, 25120, Note_off_c, 1, 76, 0
2, 25160, Note_on_c, 1, 50, 127
2, 25160, Note_on_c, 1, 78, 127
2, 25280, Note_on_c, 1, 66, 127
2, 25280, Note_on_c, 1, 76, 127
2, 25280, Note_off_c, 1, 78, 0
2, 25320, Note_off_c, 1, 76, 0
2, 25400, Note_off_c, 1, 50, 0
2, 25400, Note_off_c, 1, 66, 0
2, 25440, Note_on_c, 1, 54, 127
2, 25440, Note_on_c, 1, 62, 127
2, 25560, Note_off_c, 1, 62, 0
2, 25560, Note_on_c, 1, 69, 127
2, 25680, Note_off_c, 1, 54, 0
2, 25680, Note_off_c, 1, 69, 0
2, 25720, Note_on_c, 1, 42, 127
2, 25720, Note_on_c, 1, 69, 127
2, 25840, Note_off_c, 1, 69, 0
2, 25880, Note_on_c, 1, 66, 127
2, 25960, Note_off_c, 1, 42, 0
2, 25960, Note_off_c, 1, 66, 0
2, 26000, Note_on_c, 1, 45, 127
2, 26000, Note_on_c, 1, 62, 127
2, 26120, Note_off_c, 1, 62, 0
2, 26160, Note_on_c, 1, 66, 127
2, 26280, Note_off_c, 1, 45, 0
2, 26280, Note_off_c, 1, 66, 0
2, 26320, Note_on_c, 1, 38, 127
2, 26320, Note_on_c, 1, 69, 127
2, 26400, Note_off_c, 1, 69, 0
2, 26440, Note_on_c, 1, 67, 127
2, 26560, Note_off_c, 1, 38, 0
2, 26560, Note_off_c, 1, 67, 0
2, 26600, Note_on_c, 1, 45, 127
2, 26600, Note_on_c, 1, 66, 127
2, 26720, Note_off_c, 1, 66, 0
2, 26760, Note_on_c, 1, 69, 127
2, 26840, Note_off_c, 1, 45, 0
2, 26840, Note_off_c, 1, 69, 0
2, 26880, Note_on_c, 1, 43, 127
2, 26880, Note_on_c, 1, 67, 127
2, 27000, Note_off_c, 1, 67, 0
2, 27040, Note_on_c, 1, 64, 127
2, 27120, Note_off_c, 1, 64, 0
2, 27160, Note_off_c, 1, 43, 0
2, 27200, Note_on_c, 1, 55, 127
2, 27200, Note_on_c, 1, 66, 127
2, 27280, Note_off_c, 1, 66, 0
2, 27320, Note_on_c, 1, 67, 127
2, 27440, Note_off_c, 1, 55, 0
2, 27440, Note_off_c, 1, 67, 0
2, 27480, Note_on_c, 1, 57, 127
2, 27480, Note_on_c, 1, 66, 127
2, 27560, Note_off_c, 1, 66, 0
2, 27600, Note_on_c, 1, 64, 127
2, 27720, Note_off_c, 1, 57, 0
2, 27720, Note_off_c, 1, 64, 0
2, 27800, Note_on_c, 1, 54, 127
2, 27800, Note_on_c, 1, 74, 127
2, 27880, Note_off_c, 1, 74, 0
2, 27920, Note_on_c, 1, 67, 127
2, 28040, Note_off_c, 1, 54, 0
2, 28040, Note_off_c, 1, 67, 0
2, 28080, Note_on_c, 1, 57, 127
2, 28080, Note_on_c, 1, 66, 127
2, 28160, Note_off_c, 1, 66, 0
2, 28200, Note_on_c, 1, 69, 127
2, 28320, Note_off_c, 1, 57, 0
2, 28320, Note_off_c, 1, 69, 0
2, 28360, Note_on_c, 1, 54, 127
2, 28360, Note_on_c, 1, 67, 127
2, 28440, Note_off_c, 1, 67, 0
2, 28480, Note_on_c, 1, 69, 127
2, 28600, Note_off_c, 1, 54, 0
2, 28600, Note_off_c, 1, 69, 0
2, 28640, Note_on_c, 1, 43, 127
2, 28640, Note_on_c, 1, 71, 127
2, 28720, Note_off_c, 1, 71, 0
2, 28800, Note_on_c, 1, 67, 127
2, 28880, Note_off_c, 1, 43, 0
2, 28880, Note_off_c, 1, 67, 0
2, 28920, Note_on_c, 1, 58, 127
2, 28920, Note_on_c, 1, 66, 127
2, 29040, Note_off_c, 1, 66, 0
2, 29080, Note_on_c, 1, 74, 127
2, 29160, Note_off_c, 1, 58, 0
2, 29160, Note_off_c, 1, 74, 0
2, 29240, Note_on_c, 1, 52, 127
2, 29240, Note_on_c, 1, 76, 127
2, 29320, Note_off_c, 1, 76, 0
2, 29360, Note_on_c, 1, 78, 127
2, 29480, Note_off_c, 1, 52, 0
2, 29480, Note_off_c, 1, 78, 0
2, 29520, Note_on_c, 1, 54, 127
2, 29520, Note_on_c, 1, 76, 127
2, 29600, Note_off_c, 1, 76, 0
2, 29680, Note_on_c, 1, 73, 127
2, 29760, Note_off_c, 1, 54, 0
2, 29760, Note_off_c, 1, 73, 0
2, 29800, Note_on_c, 1, 59, 127
2, 29800, Note_on_c, 1, 74, 127
2, 29920, Note_off_c, 1, 74, 0
2, 29960, Note_on_c, 1, 76, 127
2, 30040, Note_off_c, 1, 59, 0
2, 30040, Note_off_c, 1, 76, 0
2, 30120, Note_on_c, 1, 58, 127
2, 30120, Note_on_c, 1, 78, 127
2, 30200, Note_off_c, 1, 78, 0
2, 30240, Note_on_c, 1, 76, 127
2, 30360, Note_off_c, 1, 58, 0
2, 30360, Note_off_c, 1, 76, 0
2, 30400, Note_on_c, 1, 49, 127
2, 30400, Note_on_c, 1, 70, 127
2, 30480, Note_off_c, 1, 70, 0
2, 30520, Note_on_c, 1, 76, 127
2, 30640, Note_off_c, 1, 49, 0
2, 30640, Note_off_c, 1, 76, 0
2, 30680, Note_on_c, 1, 54, 127
2, 30680, Note_on_c, 1, 70, 127
2, 30760, Note_off_c, 1, 70, 0
2, 30800, Note_on_c, 1, 68, 127
2, 30920, Note_off_c, 1, 54, 0
2, 30920, Note_off_c, 1, 68, 0
2, 30960, Note_on_c, 1, 59, 127
2, 30960, Note_on_c, 1, 67, 127
2, 31040, Note_off_c, 1, 59, 0
2, 31040, Note_off_c, 1, 67, 0
2, 31080, Note_on_c, 1, 58, 127
2, 31080, Note_on_c, 1, 76, 127
2, 31200, Note_off_c, 1, 58, 0
2, 31200, Note_off_c, 1, 76, 0
2, 31240, Note_on_c, 1, 62, 127
2, 31240, Note_on_c, 1, 66, 127
2, 31360, Note_off_c, 1, 62, 0
2, 31360, Note_off_c, 1, 66, 0
2, 31400, Note_on_c, 1, 61, 127
2, 31400, Note_on_c, 1, 76, 127
2, 31480, Note_off_c, 1, 61, 0
2, 31480, Note_off_c, 1, 76, 0
2, 31520, Note_on_c, 1, 58, 127
2, 31520, Note_on_c, 1, 73, 127
2, 31640, Note_off_c, 1, 58, 0
2, 31640, Note_off_c, 1, 73, 0
2, 31680, Note_on_c, 1, 59, 127
2, 31680, Note_on_c, 1, 74, 127
2, 31760, Note_off_c, 1, 59, 0
2, 31760, Note_off_c, 1, 74, 0
2, 31800, Note_on_c, 1, 64, 127
2, 31800, Note_on_c, 1, 76, 127
2, 31920, Note_off_c, 1, 64, 0
2, 31920, Note_off_c, 1, 76, 0
2, 31960, Note_on_c, 1, 61, 127
2, 31960, Note_on_c, 1, 73, 127
2, 32080, Note_off_c, 1, 61, 0
2, 32080, Note_off_c, 1, 73, 0
2, 32120, Note_on_c, 1, 64, 127
2, 32120, Note_on_c, 1, 76, 127
2, 32200, Note_off_c, 1, 64, 0
2, 32200, Note_off_c, 1, 76, 0
2, 32240, Note_on_c, 1, 66, 127
2, 32240, Note_on_c, 1, 74, 127
2, 32360, Note_off_c, 1, 66, 0
2, 32360, Note_off_c, 1, 74, 0
2, 32400, Note_on_c, 1, 67, 127
2, 32400, Note_on_c, 1, 76, 127
2, 32520, Note_off_c, 1, 67, 0
2, 32520, Note_off_c, 1, 76, 0
2, 32560, Note_on_c, 1, 66, 127
2, 32560, Note_on_c, 1, 74, 127
2, 32640, Note_off_c, 1, 66, 0
2, 32640, Note_off_c, 1, 74, 0
2, 32720, Note_on_c, 1, 64, 127
2, 32720, Note_on_c, 1, 76, 127
2, 32800, Note_off_c, 1, 64, 0
2, 32800, Note_off_c, 1, 76, 0
2, 32840, Note_on_c, 1, 66, 127
2, 32840, Note_on_c, 1, 74, 127
2, 32960, Note_off_c, 1, 66, 0
2, 32960, Note_off_c, 1, 74, 0
2, 33000, Note_on_c, 1, 65, 127
2, 33000, Note_on_c, 1, 73, 127
2, 33040, Note_on_c, 1, 64, 127
2, 33040, Note_off_c, 1, 65, 0
2, 33080, Note_off_c, 1, 64, 0
2, 33080, Note_off_c, 1, 73, 0
2, 33120, Note_on_c, 1, 66, 127
2, 33120, Note_on_c, 1, 70, 127
2, 33240, Note_off_c, 1, 66, 0
2, 33280, Note_on_c, 1, 66, 127
2, 33400, Note_off_c, 1, 66, 0
2, 33440, Note_on_c, 1, 66, 127
2, 33520, Note_off_c, 1, 66, 0
2, 33560, Note_on_c, 1, 66, 127
2, 33680, Note_off_c, 1, 66, 0
2, 33720, Note_on_c, 1, 54, 127
2, 33800, Note_off_c, 1, 70, 0
2, 33880, Note_on_c, 1, 73, 127
2, 33960, Note_off_c, 1, 54, 0
2, 33960, Note_off_c, 1, 73, 0
2, 34000, Note_on_c, 1, 52, 127
2, 34000, Note_on_c, 1, 66, 127
2, 34120, Note_off_c, 1, 52, 0
2, 34160, Note_on_c, 1, 54, 127
2, 34240, Note_off_c, 1, 66, 0
2, 34280, Note_off_c, 1, 54, 0
2, 34320, Note_on_c, 1, 51, 127
2, 34320, Note_on_c, 1, 66, 127
2, 34440, Note_off_c, 1, 51, 0
2, 34480, Note_on_c, 1, 59, 127
2, 34560, Note_off_c, 1, 59, 0
2, 34600, Note_on_c, 1, 57, 127
2, 34600, Note_on_c, 1, 78, 127
2, 34720, Note_off_c, 1, 57, 0
2, 34720, Note_off_c, 1, 66, 0
2, 34760, Note_on_c, 1, 52, 127
2, 34880, Note_off_c, 1, 52, 0
2, 34880, Note_off_c, 1, 78, 0
2, 34920, Note_on_c, 1, 54, 127
2, 34920, Note_on_c, 1, 70, 127
2, 35080, Note_off_c, 1, 70, 0
2, 35080, Note_on_c, 1, 76, 127
2, 35160, Note_off_c, 1, 54, 0
2, 35160, Note_off_c, 1, 76, 0
2, 35200, Note_on_c, 1, 58, 127
2, 35200, Note_on_c, 1, 73, 127
2, 35360, Note_on_c, 1, 71, 127
2, 35520, Note_on_c, 1, 61, 127
2, 35600, Note_off_c, 1, 61, 0
2, 35600, Note_off_c, 1, 71, 0
2, 35640, Note_on_c, 1, 63, 127
2, 35720, Note_off_c, 1, 63, 0
2, 35720, Note_off_c, 1, 73, 0
2, 35760, Note_on_c, 1, 63, 127
2, 35760, Note_on_c, 1, 73, 127
2, 35880, Note_off_c, 1, 58, 0
2, 35880, Note_off_c, 1, 63, 0
2, 35920, Note_on_c, 1, 71, 127
2, 35920, Note_off_c, 1, 73, 0
2, 35960, Note_on_c, 1, 59, 127
2, 35960, Note_on_c, 1, 63, 127
2, 36040, Note_off_c, 1, 63, 0
2, 36080, Note_on_c, 1, 66, 127
2, 36200, Note_off_c, 1, 59, 0
2, 36200, Note_off_c, 1, 66, 0
2, 36240, Note_on_c, 1, 61, 127
2, 36240, Note_on_c, 1, 68, 127
2, 36360, Note_off_c, 1, 61, 0
2, 36360, Note_off_c, 1, 68, 0
2, 36400, Note_on_c, 1, 63, 127
2, 36400, Note_on_c, 1, 68, 127
2, 36480, Note_off_c, 1, 68, 0
2, 36520, Note_on_c, 1, 66, 127
2, 36600, Note_off_c, 1, 66, 0
2, 36600, Note_off_c, 1, 71, 0
2, 36640, Note_off_c, 1, 63, 0
2, 36680, Note_on_c, 1, 61, 127
2, 36680, Note_on_c, 1, 76, 127
2, 36760, Note_off_c, 1, 61, 0
2, 36800, Note_on_c, 1, 63, 127
2, 36920, Note_off_c, 1, 63, 0
2, 36920, Note_off_c, 1, 76, 0
2, 36960, Note_on_c, 1, 59, 127
2, 36960, Note_on_c, 1, 66, 127
2, 37080, Note_off_c, 1, 59, 0
2, 37080, Note_off_c, 1, 66, 0
2, 37120, Note_on_c, 1, 61, 127
2, 37120, Note_on_c, 1, 76, 127
2, 37200, Note_off_c, 1, 61, 0
2, 37200, Note_off_c, 1, 76, 0
2, 37240, Note_on_c, 1, 59, 127
2, 37240, Note_on_c, 1, 75, 127
2, 37360, Note_off_c, 1, 75, 0
2, 37400, Note_on_c, 1, 73, 127
2, 37480, Note_off_c, 1, 73, 0
2, 37520, Note_on_c, 1, 71, 127
2, 37640, Note_off_c, 1, 59, 0
2, 37640, Note_off_c, 1, 71, 0
2, 37680, Note_on_c, 1, 56, 127
2, 37680, Note_on_c, 1, 75, 127
2, 37720, Note_on_c, 1, 54, 127
2, 37720, Note_off_c, 1, 56, 0
2, 37760, Note_off_c, 1, 54, 0
2, 37760, Note_off_c, 1, 75, 0
2, 37800, Note_on_c, 1, 54, 127
2, 37800, Note_on_c, 1, 73, 127
2, 37920, Note_off_c, 1, 73, 0
2, 37960, Note_on_c, 1, 75, 127
2, 38080, Note_off_c, 1, 54, 0
2, 38080, Note_off_c, 1, 75, 0
2, 38120, Note_on_c, 1, 52, 127
2, 38120, Note_on_c, 1, 80, 127
2, 38200, Note_off_c, 1, 52, 0
2, 38200, Note_off_c, 1, 80, 0
2, 38240, Note_on_c, 1, 54, 127
2, 38240, Note_on_c, 1, 75, 127
2, 38360, Note_off_c, 1, 54, 0
2, 38360, Note_off_c, 1, 75, 0
2, 38400, Note_on_c, 1, 56, 127
2, 38400, Note_on_c, 1, 72, 127
2, 38480, Note_off_c, 1, 72, 0
2, 38520, Note_on_c, 1, 73, 127
2, 38640, Note_off_c, 1, 56, 0
2, 38640, Note_off_c, 1, 73, 0
2, 38680, Note_on_c, 1, 52, 127
2, 38680, Note_on_c, 1, 73, 127
2, 38760, Note_off_c, 1, 73, 0
2, 38840, Note_on_c, 1, 75, 127
2, 38920, Note_off_c, 1, 52, 0
2, 38920, Note_off_c, 1, 75, 0
2, 38960, Note_on_c, 1, 51, 127
2, 38960, Note_on_c, 1, 76, 127
2, 39080, Note_off_c, 1, 76, 0
2, 39120, Note_on_c, 1, 75, 127
2, 39200, Note_off_c, 1, 51, 0
2, 39200, Note_off_c, 1, 75, 0
2, 39240, Note_on_c, 1, 44, 127
2, 39240, Note_on_c, 1, 76, 127
2, 39360, Note_off_c, 1, 76, 0
2, 39400, Note_on_c, 1, 80, 127
2, 39480, Note_off_c, 1, 44, 0
2, 39480, Note_off_c, 1, 80, 0
2, 39520, Note_on_c, 1, 53, 127
2, 39520, Note_on_c, 1, 80, 127
2, 39640, Note_off_c, 1, 80, 0
2, 39680, Note_on_c, 1, 78, 127
2, 39800, Note_off_c, 1, 53, 0
2, 39800, Note_off_c, 1, 78, 0
2, 39840, Note_on_c, 1, 56, 127
2, 39840, Note_on_c, 1, 77, 127
2, 39960, Note_off_c, 1, 77, 0
2, 40000, Note_on_c, 1, 75, 127
2, 40080, Note_off_c, 1, 56, 0
2, 40080, Note_off_c, 1, 75, 0
2, 40120, Note_on_c, 1, 49, 127
2, 40120, Note_on_c, 1, 77, 127
2, 40280, Note_on_c, 1, 74, 127
2, 40280, Note_off_c, 1, 77, 0
2, 40280, Note_on_c, 1, 80, 127
2, 40360, Note_off_c, 1, 74, 0
2, 40400, Note_off_c, 1, 49, 0
2, 40440, Note_on_c, 1, 56, 127
2, 40440, Note_on_c, 1, 77, 127
2, 40520, Note_off_c, 1, 56, 0
2, 40520, Note_off_c, 1, 77, 0
2, 40560, Note_on_c, 1, 58, 127
2, 40560, Note_on_c, 1, 75, 127
2, 40680, Note_off_c, 1, 58, 0
2, 40680, Note_off_c, 1, 75, 0
2, 40720, Note_on_c, 1, 59, 127
2, 40760, Note_off_c, 1, 80, 0
2, 40840, Note_off_c, 1, 59, 0
2, 40880, Note_on_c, 1, 58, 127
2, 40880, Note_on_c, 1, 78, 127
2, 40960, Note_off_c, 1, 58, 0
2, 40960, Note_off_c, 1, 78, 0
2, 41000, Note_on_c, 1, 56, 127
2, 41000, Note_on_c, 1, 77, 127
2, 41120, Note_off_c, 1, 56, 0
2, 41120, Note_off_c, 1, 77, 0
2, 41160, Note_on_c, 1, 57, 127
2, 41160, Note_on_c, 1, 78, 127
2, 41240, Note_off_c, 1, 57, 0
2, 41240, Note_off_c, 1, 78, 0
2, 41280, Note_on_c, 1, 48, 127
2, 41280, Note_on_c, 1, 81, 127
2, 41400, Note_off_c, 1, 48, 0
2, 41400, Note_off_c, 1, 81, 0
2, 41440, Note_on_c, 1, 51, 127
2, 41440, Note_on_c, 1, 79, 127
2, 41560, Note_off_c, 1, 51, 0
2, 41560, Note_off_c, 1, 79, 0
2, 41600, Note_on_c, 1, 56, 127
2, 41600, Note_on_c, 1, 80, 127
2, 41680, Note_off_c, 1, 56, 0
2, 41680, Note_off_c, 1, 80, 0
2, 41720, Note_on_c, 1, 46, 127
2, 41720, Note_on_c, 1, 77, 127
2, 41840, Note_off_c, 1, 46, 0
2, 41840, Note_off_c, 1, 77, 0
2, 41880, Note_on_c, 1, 48, 127
2, 41880, Note_on_c, 1, 75, 127
2, 42000, Note_off_c, 1, 48, 0
2, 42040, Note_on_c, 1, 44, 127
2, 42160, Note_off_c, 1, 44, 0
2, 42160, Note_off_c, 1, 75, 0
2, 42200, Note_on_c, 1, 43, 127
2, 42200, Note_on_c, 1, 63, 127
2, 42280, Note_off_c, 1, 43, 0
2, 42320, Note_on_c, 1, 43, 127
2, 42480, Note_off_c, 1, 63, 0
2, 42520, Note_on_c, 1, 70, 127
2, 42640, Note_off_c, 1, 43, 0
2, 42680, Note_on_c, 1, 42, 127
2, 42680, Note_on_c, 1, 73, 127
2, 42760, Note_off_c, 1, 42, 0
2, 42760, Note_off_c, 1, 70, 0
2, 42760, Note_off_c, 1, 73, 0
2, 42800, Note_on_c, 1, 44, 127
2, 42800, Note_on_c, 1, 72, 127
2, 42920, Note_off_c, 1, 44, 0
2, 42960, Note_on_c, 1, 46, 127
2, 42960, Note_on_c, 1, 75, 127
2, 43040, Note_off_c, 1, 46, 0
2, 43040, Note_off_c, 1, 72, 0
2, 43040, Note_off_c, 1, 75, 0
2, 43080, Note_on_c, 1, 44, 127
2, 43080, Note_on_c, 1, 75, 127
2, 43200, Note_off_c, 1, 44, 0
2, 43240, Note_on_c, 1, 49, 127
2, 43320, Note_off_c, 1, 49, 0
2, 43320, Note_off_c, 1, 75, 0
2, 43400, Note_on_c, 1, 51, 127
2, 43400, Note_on_c, 1, 75, 127
2, 43480, Note_off_c, 1, 51, 0
2, 43520, Note_on_c, 1, 49, 127
2, 43640, Note_off_c, 1, 49, 0
2, 43640, Note_off_c, 1, 75, 0
2, 43680, Note_on_c, 1, 47, 127
2, 43760, Note_off_c, 1, 47, 0
2, 43800, Note_on_c, 1, 44, 127
2, 43800, Note_on_c, 1, 66, 127
2, 43920, Note_off_c, 1, 44, 0
2, 43920, Note_off_c, 1, 66, 0
2, 43960, Note_on_c, 1, 52, 127
2, 43960, Note_on_c, 1, 68, 127
2, 44040, Note_off_c, 1, 52, 0
2, 44040, Note_off_c, 1, 68, 0
2, 44080, Note_on_c, 1, 54, 127
2, 44080, Note_on_c, 1, 70, 127
2, 44200, Note_off_c, 1, 54, 0
2, 44200, Note_off_c, 1, 70, 0
2, 44240, Note_on_c, 1, 52, 127
2, 44240, Note_on_c, 1, 68, 127
2, 44320, Note_off_c, 1, 52, 0
2, 44320, Note_off_c, 1, 68, 0
2, 44360, Note_on_c, 1, 51, 127
2, 44360, Note_on_c, 1, 71, 127
2, 44480, Note_off_c, 1, 51, 0
2, 44480, Note_off_c, 1, 71, 0
2, 44520, Note_on_c, 1, 49, 127
2, 44520, Note_on_c, 1, 68, 127
2, 44600, Note_off_c, 1, 49, 0
2, 44640, Note_on_c, 1, 47, 127
2, 44760, Note_off_c, 1, 47, 0
2, 44760, Note_off_c, 1, 68, 0
2, 44800, Note_on_c, 1, 52, 127
2, 44800, Note_on_c, 1, 73, 127
2, 44920, Note_off_c, 1, 52, 0
2, 44960, Note_on_c, 1, 52, 127
2, 45040, Note_off_c, 1, 52, 0
2, 45040, Note_off_c, 1, 73, 0
2, 45080, Note_on_c, 1, 51, 127
2, 45080, Note_on_c, 1, 68, 127
2, 45200, Note_off_c, 1, 51, 0
2, 45240, Note_on_c, 1, 54, 127
2, 45320, Note_off_c, 1, 54, 0
2, 45320, Note_off_c, 1, 68, 0
2, 45360, Note_on_c, 1, 56, 127
2, 45360, Note_on_c, 1, 59, 127
2, 45360, Note_on_c, 1, 64, 127
2, 45480, Note_off_c, 1, 56, 0
2, 45520, Note_on_c, 1, 56, 127
2, 45600, Note_off_c, 1, 56, 0
2, 45600, Note_off_c, 1, 64, 0
2, 45680, Note_on_c, 1, 52, 127
2, 45680, Note_on_c, 1, 61, 127
2, 45760, Note_off_c, 1, 52, 0
2, 45760, Note_off_c, 1, 61, 0
2, 45800, Note_on_c, 1, 54, 127
2, 45800, Note_on_c, 1, 63, 127
2, 45880, Note_off_c, 1, 54, 0
2, 45880, Note_off_c, 1, 63, 0
2, 45920, Note_on_c, 1, 56, 127
2, 45920, Note_on_c, 1, 64, 127
2, 46040, Note_off_c, 1, 56, 0
2, 46080, Note_on_c, 1, 52, 127
2, 46160, Note_off_c, 1, 52, 0
2, 46160, Note_off_c, 1, 59, 0
2, 46160, Note_off_c, 1, 64, 0
2, 46240, Note_on_c, 1, 49, 127
2, 46240, Note_on_c, 1, 61, 127
2, 46320, Note_off_c, 1, 49, 0
2, 46360, Note_on_c, 1, 55, 127
2, 46480, Note_off_c, 1, 55, 0
2, 46520, Note_on_c, 1, 57, 127
2, 46520, Note_on_c, 1, 63, 127
2, 46640, Note_off_c, 1, 57, 0
2, 46640, Note_off_c, 1, 61, 0
2, 46640, Note_off_c, 1, 63, 0
2, 46680, Note_on_c, 1, 59, 127
2, 46680, Note_on_c, 1, 63, 127
2, 46760, Note_off_c, 1, 63, 0
2, 46800, Note_on_c, 1, 61, 127
2, 46800, Note_on_c, 1, 64, 127
2, 46920, Note_off_c, 1, 64, 0
2, 46960, Note_on_c, 1, 66, 127
2, 47040, Note_off_c, 1, 61, 0
2, 47040, Note_off_c, 1, 66, 0
2, 47120, Note_on_c, 1, 64, 127
2, 47120, Note_on_c, 1, 66, 127
2, 47200, Note_off_c, 1, 64, 0
2, 47200, Note_off_c, 1, 66, 0
2, 47240, Note_on_c, 1, 64, 127
2, 47240, Note_on_c, 1, 66, 127
2, 47360, Note_off_c, 1, 59, 0
2, 47360, Note_off_c, 1, 64, 0
2, 47360, Note_off_c, 1, 66, 0
2, 47400, Note_on_c, 1, 47, 127
2, 47400, Note_on_c, 1, 63, 127
2, 47520, Note_on_c, 1, 59, 127
2, 47640, Note_off_c, 1, 47, 0
2, 47640, Note_off_c, 1, 59, 0
2, 47640, Note_off_c, 1, 63, 0
2, 47680, Note_on_c, 1, 57, 127
2, 47680, Note_on_c, 1, 75, 127
2, 47760, Note_off_c, 1, 57, 0
2, 47760, Note_off_c, 1, 75, 0
2, 47800, Note_on_c, 1, 59, 127
2, 47800, Note_on_c, 1, 71, 127
2, 47920, Note_off_c, 1, 59, 0
2, 47920, Note_off_c, 1, 71, 0
2, 47960, Note_on_c, 1, 57, 127
2, 47960, Note_on_c, 1, 63, 127
2, 48000, Note_off_c, 1, 57, 0
2, 48040, Note_on_c, 1, 56, 127
2, 48040, Note_off_c, 1, 63, 0
2, 48040, Note_on_c, 1, 64, 127
2, 48080, Note_off_c, 1, 56, 0
2, 48080, Note_off_c, 1, 64, 0
2, 48120, Note_on_c, 1, 57, 127
2, 48120, Note_on_c, 1, 61, 127
2, 48200, Note_off_c, 1, 57, 0
2, 48200, Note_off_c, 1, 61, 0
2, 48240, Note_on_c, 1, 59, 127
2, 48240, Note_on_c, 1, 75, 127
2, 48240, Note_on_c, 1, 78, 127
2, 48360, Note_off_c, 1, 59, 0
2, 48400, Note_on_c, 1, 54, 127
2, 48520, Note_off_c, 1, 54, 0
2, 48520, Note_off_c, 1, 75, 0
2, 48520, Note_off_c, 1, 78, 0
2, 48560, Note_on_c, 1, 52, 127
2, 48560, Note_on_c, 1, 75, 127
2, 48560, Note_on_c, 1, 78, 127
2, 48640, Note_off_c, 1, 52, 0
2, 48680, Note_on_c, 1, 44, 127
2, 48800, Note_off_c, 1, 44, 0
2, 48800, Note_off_c, 1, 75, 0
2, 48800, Note_off_c, 1, 78, 0
2, 48840, Note_on_c, 1, 45, 127
2, 48840, Note_on_c, 1, 75, 127
2, 48840, Note_on_c, 1, 78, 127
2, 48920, Note_off_c, 1, 45, 0
2, 48960, Note_on_c, 1, 47, 127
2, 49080, Note_off_c, 1, 47, 0
2, 49080, Note_off_c, 1, 75, 0
2, 49080, Note_off_c, 1, 78, 0
2, 49120, Note_on_c, 1, 40, 127
2, 49120, Note_on_c, 1, 76, 127
2, 49120, Note_on_c, 1, 80, 127
2, 49200, Note_off_c, 1, 76, 0
2, 49280, Note_on_c, 1, 71, 127
2, 49360, Note_off_c, 1, 40, 0
2, 49360, Note_off_c, 1, 71, 0
2, 49360, Note_off_c, 1, 80, 0
2, 49400, Note_on_c, 1, 56, 127
2, 49400, Note_on_c, 1, 64, 127
2, 49400, Note_on_c, 1, 83, 127
2, 49520, Note_off_c, 1, 83, 0
2, 49560, Note_on_c, 1, 76, 127
2, 49640, Note_off_c, 1, 56, 0
2, 49640, Note_off_c, 1, 64, 0
2, 49640, Note_off_c, 1, 76, 0
2, 49680, Note_on_c, 1, 52, 127
2, 49680, Note_on_c, 1, 56, 127
2, 49680, Note_on_c, 1, 77, 127
2, 49800, Note_off_c, 1, 77, 0
2, 49840, Note_on_c, 1, 74, 127
2, 49920, Note_off_c, 1, 52, 0
2, 49920, Note_off_c, 1, 56, 0
2, 49920, Note_off_c, 1, 74, 0
2, 49960, Note_on_c, 1, 44, 127
2, 49960, Note_on_c, 1, 71, 127
2, 50080, Note_off_c, 1, 71, 0
2, 50120, Note_on_c, 1, 69, 127
2, 50200, Note_off_c, 1, 44, 0
2, 50200, Note_off_c, 1, 69, 0
2, 50240, Note_on_c, 1, 45, 127
2, 50240, Note_on_c, 1, 68, 127
2, 50240, Note_on_c, 1, 71, 127
2, 50360, Note_off_c, 1, 68, 0
2, 50400, Note_on_c, 1, 66, 127
2, 50480, Note_off_c, 1, 45, 0
2, 50480, Note_off_c, 1, 66, 0
2, 50480, Note_off_c, 1, 71, 0
2, 50520, Note_on_c, 1, 59, 127
2, 50520, Note_on_c, 1, 62, 127
2, 50520, Note_on_c, 1, 71, 127
2, 50640, Note_off_c, 1, 71, 0
2, 50680, Note_on_c, 1, 57, 127
2, 50680, Note_off_c, 1, 59, 0
2, 50680, Note_on_c, 1, 74, 127
2, 50760, Note_off_c, 1, 57, 0
2, 50760, Note_off_c, 1, 62, 0
2, 50760, Note_off_c, 1, 74, 0
2, 50800, Note_on_c, 1, 56, 127
2, 50800, Note_on_c, 1, 59, 127
2, 50800, Note_on_c, 1, 74, 127
2, 50920, Note_off_c, 1, 74, 0
2, 50960, Note_on_c, 1, 71, 127
2, 51040, Note_off_c, 1, 56, 0
2, 51040, Note_off_c, 1, 59, 0
2, 51040, Note_off_c, 1, 71, 0
2, 51080, Note_on_c, 1, 52, 127
2, 51080, Note_on_c, 1, 70, 127
2, 51200, Note_off_c, 1, 70, 0
2, 51240, Note_on_c, 1, 68, 127
2, 51320, Note_off_c, 1, 52, 0
2, 51320, Note_off_c, 1, 68, 0
2, 51360, Note_on_c, 1, 54, 127
2, 51360, Note_on_c, 1, 57, 127
2, 51360, Note_on_c, 1, 78, 127
2, 51480, Note_off_c, 1, 78, 0
2, 51520, Note_on_c, 1, 66, 127
2, 51600, Note_off_c, 1, 54, 0
2, 51600, Note_off_c, 1, 57, 0
2, 51600, Note_off_c, 1, 66, 0
2, 51640, Note_on_c, 1, 56, 127
2, 51640, Note_on_c, 1, 59, 127
2, 51760, Note_off_c, 1, 59, 0
2, 51800, Note_on_c, 1, 68, 127
2, 51880, Note_off_c, 1, 56, 0
2, 51880, Note_off_c, 1, 68, 0
2, 51920, Note_on_c, 1, 47, 127
2, 51920, Note_on_c, 1, 54, 127
2, 51920, Note_on_c, 1, 62, 127
2, 52000, Note_off_c, 1, 62, 0
2, 52080, Note_on_c, 1, 64, 127
2, 52160, Note_off_c, 1, 47, 0
2, 52160, Note_off_c, 1, 54, 0
2, 52160, Note_off_c, 1, 64, 0
2, 52200, Note_on_c, 1, 49, 127
2, 52200, Note_on_c, 1, 53, 127
2, 52200, Note_on_c, 1, 65, 127
2, 52320, Note_off_c, 1, 65, 0
2, 52360, Note_on_c, 1, 71, 127
2, 52440, Note_off_c, 1, 49, 0
2, 52440, Note_off_c, 1, 53, 0
2, 52440, Note_off_c, 1, 71, 0
2, 52480, Note_on_c, 1, 49, 127
2, 52480, Note_on_c, 1, 53, 127
2, 52480, Note_on_c, 1, 68, 127
2, 52600, Note_off_c, 1, 68, 0
2, 52640, Note_on_c, 1, 71, 127
2, 52720, Note_off_c, 1, 49, 0
2, 52720, Note_off_c, 1, 53, 0
2, 52720, Note_off_c, 1, 71, 0
2, 52760, Note_on_c, 1, 42, 127
2, 52760, Note_on_c, 1, 54, 127
2, 52760, Note_on_c, 1, 70, 127
2, 52880, Note_off_c, 1, 70, 0
2, 52920, Note_on_c, 1, 68, 127
2, 53000, Note_off_c, 1, 42, 0
2, 53000, Note_off_c, 1, 54, 0
2, 53000, Note_off_c, 1, 68, 0
2, 53040, Note_on_c, 1, 51, 127
2, 53040, Note_on_c, 1, 54, 127
2, 53040, Note_on_c, 1, 66, 127
2, 53160, Note_off_c, 1, 66, 0
2, 53200, Note_on_c, 1, 70, 127
2, 53280, Note_off_c, 1, 51, 0
2, 53280, Note_off_c, 1, 54, 0
2, 53280, Note_off_c, 1, 70, 0
2, 53320, Note_on_c, 1, 44, 127
2, 53320, Note_on_c, 1, 71, 127
2, 53440, Note_off_c, 1, 71, 0
2, 53480, Note_on_c, 1, 61, 127
2, 53480, Note_on_c, 1, 70, 127
2, 53560, Note_off_c, 1, 44, 0
2, 53560, Note_off_c, 1, 61, 0
2, 53560, Note_off_c, 1, 70, 0
2, 53600, Note_on_c, 1, 56, 127
2, 53600, Note_on_c, 1, 68, 127
2, 53600, Note_on_c, 1, 71, 127
2, 53720, Note_off_c, 1, 71, 0
2, 53760, Note_on_c, 1, 70, 127
2, 53840, Note_off_c, 1, 56, 0
2, 53840, Note_off_c, 1, 68, 0
2, 53840, Note_off_c, 1, 70, 0
2, 53880, Note_on_c, 1, 58, 127
2, 53880, Note_on_c, 1, 68, 127
2, 54040, Note_off_c, 1, 68, 0
2, 54040, Note_on_c, 1, 78, 127
2, 54120, Note_off_c, 1, 78, 0
2, 54160, Note_on_c, 1, 66, 127
2, 54160, Note_on_c, 1, 75, 127
2, 54280, Note_off_c, 1, 66, 0
2, 54320, Note_on_c, 1, 65, 127
2, 54400, Note_off_c, 1, 58, 0
2, 54400, Note_off_c, 1, 65, 0
2, 54400, Note_off_c, 1, 75, 0
2, 54440, Note_on_c, 1, 59, 127
2, 54440, Note_on_c, 1, 66, 127
2, 54440, Note_on_c, 1, 75, 127
2, 54560, Note_off_c, 1, 66, 0
2, 54600, Note_on_c, 1, 68, 127
2, 54680, Note_off_c, 1, 59, 0
2, 54680, Note_off_c, 1, 75, 0
2, 54720, Note_on_c, 1, 58, 127
2, 54720, Note_on_c, 1, 74, 127
2, 54840, Note_off_c, 1, 68, 0
2, 54880, Note_on_c, 1, 68, 127
2, 54960, Note_on_c, 1, 53, 127
2, 54960, Note_off_c, 1, 68, 0
2, 55000, Note_off_c, 1, 53, 0
2, 55040, Note_on_c, 1, 65, 127
2, 55120, Note_off_c, 1, 58, 0
2, 55160, Note_on_c, 1, 63, 127
2, 55280, Note_off_c, 1, 63, 0
2, 55280, Note_off_c, 1, 65, 0
2, 55280, Note_off_c, 1, 74, 0
2, 55320, Note_on_c, 1, 66, 127
2, 55320, Note_on_c, 1, 75, 127
2, 55400, Note_off_c, 1, 66, 0
2, 55400, Note_off_c, 1, 75, 0
2, 55440, Note_on_c, 1, 65, 127
2, 55440, Note_on_c, 1, 74, 127
2, 55560, Note_off_c, 1, 65, 0
2, 55560, Note_off_c, 1, 74, 0
2, 55600, Note_on_c, 1, 63, 127
2, 55600, Note_on_c, 1, 66, 127
2, 55680, Note_off_c, 1, 63, 0
2, 55680, Note_off_c, 1, 66, 0
2, 55720, Note_on_c, 1, 58, 127
2, 55720, Note_on_c, 1, 63, 127
2, 55840, Note_off_c, 1, 58, 0
2, 55840, Note_off_c, 1, 63, 0
2, 55880, Note_on_c, 1, 59, 127
2, 55880, Note_on_c, 1, 68, 127
2, 55960, Note_off_c, 1, 59, 0
2, 55960, Note_off_c, 1, 68, 0
2, 56000, Note_on_c, 1, 62, 127
2, 56000, Note_on_c, 1, 65, 127
2, 56120, Note_off_c, 1, 62, 0
2, 56120, Note_off_c, 1, 65, 0
2, 56160, Note_on_c, 1, 63, 127
2, 56160, Note_on_c, 1, 66, 127
2, 56280, Note_off_c, 1, 66, 0
2, 56320, Note_on_c, 1, 70, 127
2, 56440, Note_off_c, 1, 63, 0
2, 56440, Note_off_c, 1, 70, 0
2, 56480, Note_on_c, 1, 59, 127
2, 56480, Note_on_c, 1, 71, 127
2, 56560, Note_off_c, 1, 71, 0
2, 56600, Note_on_c, 1, 75, 127
2, 56720, Note_off_c, 1, 59, 0
2, 56720, Note_off_c, 1, 75, 0
2, 56760, Note_on_c, 1, 58, 127
2, 56760, Note_on_c, 1, 70, 127
2, 56840, Note_off_c, 1, 70, 0
2, 56880, Note_on_c, 1, 75, 127
2, 57000, Note_off_c, 1, 58, 0
2, 57000, Note_off_c, 1, 75, 0
2, 57040, Note_on_c, 1, 47, 127
2, 57040, Note_on_c, 1, 56, 127
2, 57040, Note_on_c, 1, 75, 127
2, 57120, Note_off_c, 1, 75, 0
2, 57160, Note_on_c, 1, 71, 127
2, 57280, Note_off_c, 1, 47, 0
2, 57280, Note_off_c, 1, 56, 0
2, 57280, Note_off_c, 1, 71, 0
2, 57320, Note_on_c, 1, 49, 127
2, 57320, Note_on_c, 1, 54, 127
2, 57320, Note_on_c, 1, 70, 127
2, 57400, Note_off_c, 1, 70, 0
2, 57440, Note_on_c, 1, 72, 127
2, 57560, Note_off_c, 1, 49, 0
2, 57560, Note_off_c, 1, 54, 0
2, 57560, Note_off_c, 1, 72, 0
2, 57600, Note_on_c, 1, 53, 127
2, 57600, Note_on_c, 1, 56, 127
2, 57600, Note_on_c, 1, 74, 127
2, 57680, Note_off_c, 1, 74, 0
2, 57720, Note_on_c, 1, 75, 127
2, 57840, Note_off_c, 1, 53, 0
2, 57840, Note_off_c, 1, 56, 0
2, 57840, Note_off_c, 1, 75, 0
2, 57880, Note_on_c, 1, 51, 127
2, 57880, Note_on_c, 1, 55, 127
2, 57880, Note_on_c, 1, 71, 127
2, 57960, Note_off_c, 1, 71, 0
2, 58000, Note_on_c, 1, 70, 127
2, 58120, Note_off_c, 1, 55, 0
2, 58120, Note_off_c, 1, 70, 0
2, 58160, Note_on_c, 1, 53, 127
2, 58160, Note_on_c, 1, 68, 127
2, 58240, Note_off_c, 1, 68, 0
2, 58280, Note_on_c, 1, 67, 127
2, 58400, Note_off_c, 1, 51, 0
2, 58400, Note_off_c, 1, 53, 0
2, 58400, Note_off_c, 1, 67, 0
2, 58440, Note_on_c, 1, 50, 127
2, 58440, Note_on_c, 1, 68, 127
2, 58560, Note_on_c, 1, 65, 127
2, 58680, Note_off_c, 1, 50, 0
2, 58680, Note_off_c, 1, 65, 0
2, 58680, Note_off_c, 1, 68, 0
2, 58720, Note_on_c, 1, 51, 127
2, 58720, Note_on_c, 1, 58, 127
2, 58720, Note_on_c, 1, 66, 127
2, 58800, Note_off_c, 1, 66, 0
2, 58840, Note_on_c, 1, 70, 127
2, 58960, Note_off_c, 1, 51, 0
2, 58960, Note_off_c, 1, 58, 0
2, 58960, Note_off_c, 1, 70, 0
2, 59000, Note_on_c, 1, 46, 127
2, 59000, Note_on_c, 1, 58, 127
2, 59000, Note_on_c, 1, 66, 127
2, 59080, Note_off_c, 1, 66, 0
2, 59120, Note_on_c, 1, 70, 127
2, 59240, Note_off_c, 1, 46, 0
2, 59240, Note_off_c, 1, 58, 0
2, 59240, Note_off_c, 1, 70, 0
2, 59280, Note_on_c, 1, 47, 127
2, 59280, Note_on_c, 1, 54, 127
2, 59280, Note_on_c, 1, 63, 127
2, 59360, Note_off_c, 1, 63, 0
2, 59400, Note_on_c, 1, 72, 127
2, 59520, Note_off_c, 1, 47, 0
2, 59520, Note_off_c, 1, 54, 0
2, 59520, Note_off_c, 1, 72, 0
2, 59560, Note_on_c, 1, 51, 127
2, 59560, Note_on_c, 1, 54, 127
2, 59560, Note_on_c, 1, 71, 127
2, 59640, Note_off_c, 1, 71, 0
2, 59680, Note_on_c, 1, 72, 127
2, 59800, Note_off_c, 1, 51, 0
2, 59800, Note_off_c, 1, 54, 0
2, 59800, Note_off_c, 1, 72, 0
2, 59840, Note_on_c, 1, 53, 127
2, 59840, Note_on_c, 1, 56, 127
2, 59840, Note_on_c, 1, 74, 127
2, 59920, Note_off_c, 1, 74, 0
2, 59960, Note_on_c, 1, 71, 127
2, 60080, Note_off_c, 1, 71, 0
2, 60120, Note_on_c, 1, 73, 127
2, 60200, Note_off_c, 1, 73, 0
2, 60240, Note_on_c, 1, 71, 127
2, 60360, Note_off_c, 1, 56, 0
2, 60360, Note_off_c, 1, 71, 0
2, 60400, Note_on_c, 1, 61, 127
2, 60400, Note_on_c, 1, 70, 127
2, 60480, Note_off_c, 1, 70, 0
2, 60520, Note_on_c, 1, 68, 127
2, 60600, Note_off_c, 1, 53, 0
2, 60640, Note_off_c, 1, 61, 0
2, 60640, Note_off_c, 1, 68, 0
2, 60680, Note_on_c, 1, 49, 127
2, 60680, Note_on_c, 1, 56, 127
2, 60680, Note_on_c, 1, 65, 127
2, 60760, Note_off_c, 1, 65, 0
2, 60800, Note_on_c, 1, 75, 127
2, 60920, Note_off_c, 1, 75, 0
2, 60960, Note_on_c, 1, 77, 127
2, 61040, Note_off_c, 1, 56, 0
2, 61080, Note_on_c, 1, 65, 127
2, 61200, Note_off_c, 1, 49, 0
2, 61200, Note_off_c, 1, 65, 0
2, 61240, Note_on_c, 1, 61, 127
2, 61240, Note_on_c, 1, 65, 127
2, 61320, Note_off_c, 1, 77, 0
2, 61400, Note_on_c, 1, 64, 127
2, 61400, Note_off_c, 1, 65, 0
2, 61400, Note_on_c, 1, 66, 127
2, 61440, Note_off_c, 1, 64, 0
2, 61440, Note_on_c, 1, 65, 127
2, 61480, Note_off_c, 1, 66, 0
2, 61520, Note_on_c, 1, 68, 127
2, 61600, Note_off_c, 1, 61, 0
2, 61640, Note_on_c, 1, 59, 127
2, 61760, Note_off_c, 1, 59, 0
2, 61760, Note_off_c, 1, 65, 0
2, 61800, Note_on_c, 1, 58, 127
2, 61800, Note_on_c, 1, 65, 127
2, 61920, Note_off_c, 1, 58, 0
2, 61960, Note_on_c, 1, 56, 127
2, 62040, Note_off_c, 1, 56, 0
2, 62040, Note_off_c, 1, 68, 0
2, 62080, Note_on_c, 1, 54, 127
2, 62160, Note_off_c, 1, 65, 0
2, 62240, Note_on_c, 1, 62, 127
2, 62320, Note_off_c, 1, 54, 0
2, 62320, Note_off_c, 1, 62, 0
2, 62360, Note_on_c, 1, 53, 127
2, 62360, Note_on_c, 1, 61, 127
2, 62440, Note_off_c, 1, 53, 0
2, 62480, Note_on_c, 1, 51, 127
2, 62600, Note_off_c, 1, 51, 0
2, 62600, Note_off_c, 1, 61, 0
2, 62640, Note_on_c, 1, 49, 127
2, 62640, Note_on_c, 1, 65, 127
2, 62640, Note_on_c, 1, 71, 127
2, 62720, Note_off_c, 1, 49, 0
2, 62760, Note_on_c, 1, 51, 127
2, 62880, Note_off_c, 1, 51, 0
2, 62880, Note_off_c, 1, 65, 0
2, 62920, Note_on_c, 1, 49, 127
2, 62920, Note_on_c, 1, 66, 127
2, 63000, Note_off_c, 1, 49, 0
2, 63040, Note_on_c, 1, 51, 127
2, 63160, Note_off_c, 1, 51, 0
2, 63160, Note_off_c, 1, 66, 0
2, 63200, Note_on_c, 1, 53, 127
2, 63200, Note_on_c, 1, 61, 127
2, 63280, Note_off_c, 1, 53, 0
2, 63320, Note_on_c, 1, 47, 127
2, 63320, Note_off_c, 1, 61, 0
2, 63320, Note_on_c, 1, 66, 127
2, 63400, Note_off_c, 1, 66, 0
2, 63400, Note_off_c, 1, 71, 0
2, 63440, Note_off_c, 1, 47, 0
2, 63480, Note_on_c, 1, 50, 127
2, 63480, Note_on_c, 1, 68, 127
2, 63480, Note_on_c, 1, 78, 127
2, 63560, Note_off_c, 1, 50, 0
2, 63600, Note_on_c, 1, 47, 127
2, 63720, Note_off_c, 1, 47, 0
2, 63720, Note_off_c, 1, 68, 0
2, 63720, Note_off_c, 1, 78, 0
2, 63760, Note_on_c, 1, 49, 127
2, 63760, Note_on_c, 1, 65, 127
2, 63760, Note_on_c, 1, 77, 127
2, 63840, Note_off_c, 1, 49, 0
2, 63880, Note_on_c, 1, 51, 127
2, 64000, Note_off_c, 1, 51, 0
2, 64000, Note_off_c, 1, 65, 0
2, 64000, Note_off_c, 1, 77, 0
2, 64040, Note_on_c, 1, 53, 127
2, 64040, Note_on_c, 1, 71, 127
2, 64120, Note_off_c, 1, 53, 0
2, 64120, Note_off_c, 1, 71, 0
2, 64160, Note_on_c, 1, 56, 127
2, 64160, Note_on_c, 1, 65, 127
2, 64160, Note_on_c, 1, 71, 127
2, 64280, Note_off_c, 1, 56, 0
2, 64280, Note_off_c, 1, 65, 0
2, 64280, Note_off_c, 1, 71, 0
2, 64320, Note_on_c, 1, 54, 127
2, 64320, Note_on_c, 1, 63, 127
2, 64320, Note_on_c, 1, 70, 127
2, 64400, Note_off_c, 1, 54, 0
2, 64400, Note_off_c, 1, 63, 0
2, 64400, Note_off_c, 1, 70, 0
2, 64440, Note_on_c, 1, 56, 127
2, 64440, Note_on_c, 1, 71, 127
2, 64560, Note_off_c, 1, 56, 0
2, 64560, Note_off_c, 1, 71, 0
2, 64600, Note_on_c, 1, 58, 127
2, 64600, Note_on_c, 1, 73, 127
2, 64680, Note_off_c, 1, 58, 0
2, 64680, Note_off_c, 1, 73, 0
2, 64720, Note_on_c, 1, 56, 127
2, 64720, Note_on_c, 1, 71, 127
2, 64840, Note_off_c, 1, 56, 0
2, 64840, Note_off_c, 1, 71, 0
2, 64880, Note_on_c, 1, 54, 127
2, 64880, Note_on_c, 1, 70, 127
2, 64960, Note_off_c, 1, 54, 0
2, 64960, Note_off_c, 1, 70, 0
2, 65000, Note_on_c, 1, 56, 127
2, 65000, Note_on_c, 1, 63, 127
2, 65000, Note_on_c, 1, 71, 127
2, 65120, Note_off_c, 1, 56, 0
2, 65120, Note_off_c, 1, 63, 0
2, 65120, Note_off_c, 1, 71, 0
2, 65160, Note_on_c, 1, 54, 127
2, 65160, Note_on_c, 1, 61, 127
2, 65160, Note_on_c, 1, 70, 127
2, 65240, Note_off_c, 1, 70, 0
2, 65280, Note_on_c, 1, 68, 127
2, 65400, Note_off_c, 1, 68, 0
2, 65440, Note_on_c, 1, 70, 127
2, 65560, Note_off_c, 1, 70, 0
2, 65600, Note_on_c, 1, 66, 127
2, 65680, Note_off_c, 1, 54, 0
2, 65680, Note_off_c, 1, 66, 0
2, 65720, Note_on_c, 1, 43, 127
2, 65720, Note_on_c, 1, 70, 127
2, 65840, Note_off_c, 1, 43, 0
2, 65880, Note_on_c, 1, 58, 127
2, 65960, Note_off_c, 1, 58, 0
2, 65960, Note_off_c, 1, 61, 0
2, 66000, Note_on_c, 1, 47, 127
2, 66000, Note_on_c, 1, 59, 127
2, 66120, Note_off_c, 1, 47, 0
2, 66160, Note_on_c, 1, 49, 127
2, 66240, Note_off_c, 1, 49, 0
2, 66240, Note_off_c, 1, 59, 0
2, 66240, Note_off_c, 1, 70, 0
2, 66280, Note_on_c, 1, 51, 127
2, 66280, Note_on_c, 1, 63, 127
2, 66400, Note_off_c, 1, 51, 0
2, 66400, Note_off_c, 1, 63, 0
2, 66440, Note_on_c, 1, 54, 127
2, 66440, Note_on_c, 1, 63, 127
2, 66560, Note_off_c, 1, 54, 0
2, 66560, Note_off_c, 1, 63, 0
2, 66600, Note_on_c, 1, 53, 127
2, 66600, Note_on_c, 1, 61, 127
2, 66680, Note_off_c, 1, 53, 0
2, 66720, Note_on_c, 1, 51, 127
2, 66840, Note_off_c, 1, 51, 0
2, 66840, Note_off_c, 1, 61, 0
2, 66880, Note_on_c, 1, 53, 127
2, 66880, Note_on_c, 1, 68, 127
2, 66880, Note_on_c, 1, 78, 127
2, 66960, Note_off_c, 1, 53, 0
2, 67000, Note_on_c, 1, 51, 127
2, 67040, Note_off_c, 1, 78, 0
2, 67120, Note_off_c, 1, 51, 0
2, 67160, Note_on_c, 1, 53, 127
2, 67160, Note_on_c, 1, 71, 127
2, 67240, Note_off_c, 1, 53, 0
2, 67280, Note_on_c, 1, 51, 127
2, 67400, Note_off_c, 1, 51, 0
2, 67400, Note_off_c, 1, 68, 0
2, 67400, Note_off_c, 1, 71, 0
2, 67440, Note_on_c, 1, 49, 127
2, 67440, Note_on_c, 1, 66, 127
2, 67440, Note_on_c, 1, 70, 127
2, 67520, Note_off_c, 1, 49, 0
2, 67600, Note_on_c, 1, 47, 127
2, 67680, Note_off_c, 1, 47, 0
2, 67680, Note_off_c, 1, 70, 0
2, 67720, Note_on_c, 1, 44, 127
2, 67720, Note_on_c, 1, 71, 127
2, 67840, Note_off_c, 1, 44, 0
2, 67880, Note_on_c, 1, 47, 127
2, 68000, Note_off_c, 1, 47, 0
2, 68000, Note_off_c, 1, 66, 0
2, 68000, Note_off_c, 1, 71, 0
2, 68040, Note_on_c, 1, 49, 127
2, 68040, Note_on_c, 1, 65, 127
2, 68040, Note_on_c, 1, 71, 127
2, 68120, Note_off_c, 1, 49, 0
2, 68160, Note_on_c, 1, 54, 127
2, 68280, Note_off_c, 1, 54, 0
2, 68280, Note_off_c, 1, 71, 0
2, 68320, Note_on_c, 1, 59, 127
2, 68320, Note_on_c, 1, 77, 127
2, 68400, Note_off_c, 1, 59, 0
2, 68440, Note_on_c, 1, 56, 127
2, 68560, Note_off_c, 1, 56, 0
2, 68560, Note_off_c, 1, 65, 0
2, 68600, Note_on_c, 1, 58, 127
2, 68600, Note_on_c, 1, 73, 127
2, 68680, Note_off_c, 1, 58, 0
2, 68680, Note_off_c, 1, 77, 0
2, 68720, Note_on_c, 1, 59, 127
2, 68760, Note_on_c, 1, 77, 127
2, 68840, Note_off_c, 1, 59, 0
2, 68840, Note_off_c, 1, 73, 0
2, 68840, Note_off_c, 1, 77, 0
2, 68880, Note_on_c, 1, 58, 127
2, 68880, Note_on_c, 1, 71, 127
2, 68880, Note_on_c, 1, 80, 127
2, 68960, Note_off_c, 1, 58, 0
2, 68960, Note_off_c, 1, 80, 0
2, 69000, Note_on_c, 1, 58, 127
2, 69000, Note_on_c, 1, 78, 127
2, 69120, Note_off_c, 1, 58, 0
2, 69120, Note_off_c, 1, 78, 0
2, 69160, Note_on_c, 1, 61, 127
2, 69160, Note_on_c, 1, 77, 127
2, 69240, Note_off_c, 1, 61, 0
2, 69280, Note_on_c, 1, 65, 127
2, 69400, Note_off_c, 1, 65, 0
2, 69400, Note_off_c, 1, 77, 0
2, 69440, Note_on_c, 1, 59, 127
2, 69440, Note_on_c, 1, 66, 127
2, 69520, Note_off_c, 1, 59, 0
2, 69560, Note_on_c, 1, 61, 127
2, 69680, Note_off_c, 1, 61, 0
2, 69680, Note_off_c, 1, 66, 0
2, 69720, Note_on_c, 1, 61, 127
2, 69840, Note_on_c, 1, 66, 127
2, 69960, Note_off_c, 1, 61, 0
2, 69960, Note_off_c, 1, 66, 0
2, 70000, Note_on_c, 1, 65, 127
2, 70000, Note_on_c, 1, 68, 127
2, 70080, Note_off_c, 1, 65, 0
2, 70120, Note_on_c, 1, 62, 127
2, 70240, Note_off_c, 1, 62, 0
2, 70240, Note_off_c, 1, 68, 0
2, 70240, Note_off_c, 1, 71, 0
2, 70280, Note_on_c, 1, 65, 127
2, 70280, Note_on_c, 1, 68, 127
2, 70280, Note_on_c, 1, 71, 127
2, 70360, Note_off_c, 1, 65, 0
2, 70400, Note_on_c, 1, 59, 127
2, 70520, Note_off_c, 1, 59, 0
2, 70520, Note_off_c, 1, 68, 0
2, 70520, Note_off_c, 1, 71, 0
2, 70560, Note_on_c, 1, 62, 127
2, 70560, Note_on_c, 1, 65, 127
2, 70560, Note_on_c, 1, 68, 127
2, 70640, Note_off_c, 1, 62, 0
2, 70720, Note_on_c, 1, 61, 127
2, 70800, Note_off_c, 1, 61, 0
2, 70800, Note_off_c, 1, 65, 0
2, 70800, Note_off_c, 1, 68, 0
2, 70840, Note_on_c, 1, 63, 127
2, 70840, Note_on_c, 1, 68, 127
2, 70960, Note_off_c, 1, 63, 0
2, 71000, Note_on_c, 1, 62, 127
2, 71000, Note_on_c, 1, 71, 127
2, 71080, Note_off_c, 1, 62, 0
2, 71080, Note_off_c, 1, 68, 0
2, 71080, Note_off_c, 1, 71, 0
2, 71120, Note_on_c, 1, 61, 127
2, 71120, Note_on_c, 1, 65, 127
2, 71200, Note_off_c, 1, 61, 0
2, 71240, Note_on_c, 1, 59, 127
2, 71240, Note_on_c, 1, 68, 127
2, 71360, Note_off_c, 1, 59, 0
2, 71360, Note_off_c, 1, 65, 0
2, 71360, Note_off_c, 1, 68, 0
2, 71400, Note_on_c, 1, 58, 127
2, 71400, Note_on_c, 1, 66, 127
2, 71400, Note_on_c, 1, 70, 127
2, 71480, Note_off_c, 1, 58, 0
2, 71480, Note_off_c, 1, 66, 0
2, 71520, Note_on_c, 1, 61, 127
2, 71520, Note_on_c, 1, 65, 127
2, 71640, Note_off_c, 1, 61, 0
2, 71640, Note_off_c, 1, 65, 0
2, 71640, Note_off_c, 1, 70, 0
2, 71680, Note_on_c, 1, 54, 127
2, 71680, Note_on_c, 1, 61, 127
2, 71760, Note_off_c, 1, 54, 0
2, 71800, Note_on_c, 1, 54, 127
2, 71920, Note_off_c, 1, 54, 0
2, 71920, Note_off_c, 1, 61, 0
2, 71960, Note_on_c, 1, 56, 127
2, 71960, Note_on_c, 1, 60, 127
2, 72040, Note_off_c, 1, 60, 0
2, 72080, Note_on_c, 1, 61, 127
2, 72200, Note_off_c, 1, 56, 0
2, 72200, Note_off_c, 1, 61, 0
2, 72240, Note_on_c, 1, 68, 127
2, 72240, Note_on_c, 1, 73, 127
2, 72320, Note_off_c, 1, 68, 0
2, 72360, Note_on_c, 1, 56, 127
2, 72360, Note_on_c, 1, 65, 127
2, 72480, Note_off_c, 1, 56, 0
2, 72480, Note_off_c, 1, 65, 0
2, 72480, Note_off_c, 1, 73, 0
2, 72520, Note_on_c, 1, 54, 127
2, 72520, Note_on_c, 1, 61, 127
2, 72600, Note_off_c, 1, 61, 0
2, 72640, Note_on_c, 1, 63, 127
2, 72760, Note_off_c, 1, 54, 0
2, 72760, Note_off_c, 1, 63, 0
2, 72800, Note_on_c, 1, 47, 127
2, 72800, Note_on_c, 1, 71, 127
2, 72920, Note_on_c, 1, 68, 127
2, 73040, Note_off_c, 1, 47, 0
2, 73040, Note_off_c, 1, 68, 0
2, 73080, Note_on_c, 1, 44, 127
2, 73080, Note_on_c, 1, 66, 127
2, 73160, Note_off_c, 1, 66, 0
2, 73200, Note_on_c, 1, 59, 127
2, 73280, Note_off_c, 1, 44, 0
2, 73280, Note_off_c, 1, 59, 0
2, 73280, Note_off_c, 1, 71, 0
2, 73360, Note_on_c, 1, 42, 127
2, 73360, Note_on_c, 1, 58, 127
2, 73360, Note_on_c, 1, 66, 127
2, 73440, Note_off_c, 1, 58, 0
2, 73480, Note_on_c, 1, 59, 127
2, 73600, Note_off_c, 1, 42, 0
2, 73600, Note_off_c, 1, 59, 0
2, 73640, Note_on_c, 1, 61, 127
2, 73720, Note_off_c, 1, 61, 0
2, 73760, Note_on_c, 1, 63, 127
2, 73840, Note_off_c, 1, 63, 0
2, 73880, Note_off_c, 1, 66, 0
2, 73920, Note_on_c, 1, 47, 127
2, 73920, Note_on_c, 1, 63, 127
2, 74000, Note_off_c, 1, 47, 0
2, 74000, Note_off_c, 1, 63, 0
2, 74040, Note_on_c, 1, 49, 127
2, 74040, Note_on_c, 1, 65, 127
2, 74160, Note_off_c, 1, 49, 0
2, 74160, Note_off_c, 1, 65, 0
2, 74200, Note_on_c, 1, 47, 127
2, 74200, Note_on_c, 1, 59, 127
2, 74360, Note_on_c, 1, 65, 127
2, 74440, Note_off_c, 1, 59, 0
2, 74440, Note_off_c, 1, 65, 0
2, 74480, Note_off_c, 1, 47, 0
2, 74520, Note_on_c, 1, 58, 127
2, 74520, Note_on_c, 1, 70, 127
2, 74600, Note_off_c, 1, 70, 0
2, 74640, Note_on_c, 1, 68, 127
2, 74760, Note_off_c, 1, 58, 0
2, 74760, Note_off_c, 1, 68, 0
2, 74800, Note_on_c, 1, 56, 127
2, 74800, Note_on_c, 1, 62, 127
2, 74800, Note_on_c, 1, 65, 127
2, 74880, Note_off_c, 1, 65, 0
2, 74920, Note_on_c, 1, 66, 127
2, 75040, Note_off_c, 1, 56, 0
2, 75040, Note_off_c, 1, 62, 0
2, 75040, Note_off_c, 1, 66, 0
2, 75080, Note_on_c, 1, 48, 127
2, 75080, Note_on_c, 1, 63, 127
2, 75080, Note_on_c, 1, 66, 127
2, 75160, Note_off_c, 1, 66, 0
2, 75200, Note_on_c, 1, 68, 127
2, 75240, Note_off_c, 1, 63, 0
2, 75320, Note_off_c, 1, 48, 0
2, 75320, Note_off_c, 1, 68, 0
2, 75360, Note_on_c, 1, 46, 127
2, 75360, Note_on_c, 1, 61, 127
2, 75360, Note_on_c, 1, 66, 127
2, 75440, Note_off_c, 1, 66, 0
2, 75480, Note_on_c, 1, 68, 127
2, 75600, Note_off_c, 1, 46, 0
2, 75600, Note_off_c, 1, 61, 0
2, 75600, Note_off_c, 1, 68, 0
2, 75640, Note_on_c, 1, 39, 127
2, 75640, Note_on_c, 1, 63, 127
2, 75640, Note_on_c, 1, 66, 127
2, 75720, Note_off_c, 1, 63, 0
2, 75760, Note_on_c, 1, 61, 127
2, 75840, Note_off_c, 1, 39, 0
2, 75840, Note_off_c, 1, 61, 0
2, 75840, Note_off_c, 1, 66, 0
2, 75920, Note_on_c, 1, 44, 127
2, 75920, Note_on_c, 1, 60, 127
2, 75920, Note_on_c, 1, 63, 127
2, 75920, Note_on_c, 1, 66, 127
2, 76000, Note_off_c, 1, 60, 0
2, 76000, Note_on_c, 1, 61, 127
2, 76000, Note_off_c, 1, 66, 0
2, 76040, Note_on_c, 1, 60, 127
2, 76040, Note_off_c, 1, 61, 0
2, 76040, Note_on_c, 1, 66, 127
2, 76120, Note_off_c, 1, 44, 0
2, 76120, Note_off_c, 1, 60, 0
2, 76120, Note_off_c, 1, 63, 0
2, 76120, Note_off_c, 1, 66, 0
2, 76160, Note_on_c, 1, 44, 127
2, 76160, Note_on_c, 1, 61, 127
2, 76160, Note_on_c, 1, 65, 127
2, 76320, Note_on_c, 1, 56, 127
2, 76400, Note_off_c, 1, 44, 0
2, 76400, Note_off_c, 1, 56, 0
2, 76400, Note_off_c, 1, 61, 0
2, 76400, Note_off_c, 1, 65, 0
2, 76480, Note_on_c, 1, 39, 127
2, 76480, Note_on_c, 1, 55, 127
2, 76480, Note_on_c, 1, 63, 127
2, 76480, Note_on_c, 1, 67, 127
2, 76560, Note_off_c, 1, 67, 0
2, 76600, Note_on_c, 1, 68, 127
2, 76720, Note_off_c, 1, 39, 0
2, 76720, Note_off_c, 1, 68, 0
2, 76760, Note_on_c, 1, 42, 127
2, 76760, Note_on_c, 1, 70, 127
2, 77000, Note_off_c, 1, 42, 0
2, 77000, Note_off_c, 1, 55, 0
2, 77000, Note_off_c, 1, 63, 0
2, 77000, Note_off_c, 1, 70, 0
2, 77040, Note_on_c, 1, 44, 127
2, 77040, Note_on_c, 1, 56, 127
2, 77040, Note_on_c, 1, 59, 127
2, 77040, Note_on_c, 1, 63, 127
2, 77280, Note_off_c, 1, 44, 0
2, 77280, Note_off_c, 1, 56, 0
2, 77280, Note_off_c, 1, 59, 0
2, 77280, Note_off_c, 1, 63, 0
2, 77320, Note_on_c, 1, 42, 127
2, 77320, Note_on_c, 1, 58, 127
2, 77320, Note_on_c, 1, 63, 127
2, 77320, Note_on_c, 1, 66, 127
2, 77560, Note_off_c, 1, 42, 0
2, 77560, Note_off_c, 1, 58, 0
2, 77560, Note_off_c, 1, 63, 0
2, 77560, Note_off_c, 1, 66, 0
2, 77600, Note_on_c, 1, 59, 127
2, 77600, Note_on_c, 1, 63, 127
2, 77600, Note_on_c, 1, 66, 127
2, 77680, Note_off_c, 1, 63, 0
2, 77720, Note_on_c, 1, 61, 127
2, 77840, Note_off_c, 1, 59, 0
2, 77840, Note_off_c, 1, 61, 0
2, 77840, Note_off_c, 1, 66, 0
2, 77880, Note_on_c, 1, 60, 127
2, 77880, Note_on_c, 1, 63, 127
2, 77960, Note_off_c, 1, 63, 0
2, 78000, Note_on_c, 1, 48, 127
2, 78000, Note_on_c, 1, 63, 127
2, 78120, Note_off_c, 1, 48, 0
2, 78120, Note_off_c, 1, 63, 0
2, 78160, Note_on_c, 1, 49, 127
2, 78160, Note_on_c, 1, 68, 127
2, 78240, Note_off_c, 1, 68, 0
2, 78280, Note_on_c, 1, 66, 127
2, 78400, Note_off_c, 1, 49, 0
2, 78400, Note_off_c, 1, 60, 0
2, 78400, Note_off_c, 1, 66, 0
2, 78440, Note_on_c, 1, 44, 127
2, 78440, Note_on_c, 1, 60, 127
2, 78440, Note_on_c, 1, 66, 127
2, 78520, Note_off_c, 1, 60, 0
2, 78520, Note_off_c, 1, 66, 0
2, 78600, Note_on_c, 1, 65, 127
2, 78680, Note_off_c, 1, 44, 0
2, 78680, Note_off_c, 1, 65, 0
2, 78720, Note_on_c, 1, 53, 127
2, 78720, Note_on_c, 1, 60, 127
2, 78720, Note_on_c, 1, 63, 127
2, 78840, Note_off_c, 1, 60, 0
2, 78840, Note_off_c, 1, 63, 0
2, 78880, Note_on_c, 1, 65, 127
2, 78960, Note_off_c, 1, 53, 0
2, 78960, Note_off_c, 1, 65, 0
2, 79000, Note_on_c, 1, 41, 127
2, 79000, Note_on_c, 1, 61, 127
2, 79120, Note_off_c, 1, 41, 0
2, 79120, Note_on_c, 1, 68, 127
2, 79160, Note_on_c, 1, 54, 127
2, 79240, Note_off_c, 1, 54, 0
2, 79240, Note_off_c, 1, 68, 0
2, 79280, Note_on_c, 1, 53, 127
2, 79280, Note_on_c, 1, 68, 127
2, 79400, Note_off_c, 1, 53, 0
2, 79400, Note_off_c, 1, 68, 0
2, 79440, Note_on_c, 1, 52, 127
2, 79440, Note_on_c, 1, 69, 127
2, 79520, Note_off_c, 1, 52, 0
2, 79520, Note_off_c, 1, 61, 0
2, 79520, Note_off_c, 1, 69, 0
2, 79560, Note_on_c, 1, 50, 127
2, 79560, Note_on_c, 1, 65, 127
2, 79560, Note_on_c, 1, 68, 127
2, 79680, Note_off_c, 1, 50, 0
2, 79720, Note_on_c, 1, 51, 127
2, 79800, Note_off_c, 1, 51, 0
2, 79800, Note_off_c, 1, 65, 0
2, 79800, Note_off_c, 1, 68, 0
2, 79840, Note_on_c, 1, 53, 127
2, 79840, Note_on_c, 1, 65, 127
2, 79840, Note_on_c, 1, 68, 127
2, 79960, Note_off_c, 1, 53, 0
2, 80000, Note_on_c, 1, 50, 127
2, 80120, Note_off_c, 1, 50, 0
2, 80120, Note_off_c, 1, 65, 0
2, 80120, Note_off_c, 1, 68, 0
2, 80160, Note_on_c, 1, 48, 127
2, 80160, Note_on_c, 1, 63, 127
2, 80160, Note_on_c, 1, 66, 127
2, 80240, Note_off_c, 1, 48, 0
2, 80280, Note_on_c, 1, 47, 127
2, 80400, Note_off_c, 1, 47, 0
2, 80400, Note_off_c, 1, 63, 0
2, 80400, Note_on_c, 1, 65, 127
2, 80400, Note_off_c, 1, 66, 0
2, 80440, Note_on_c, 1, 46, 127
2, 80440, Note_on_c, 1, 71, 127
2, 80520, Note_off_c, 1, 46, 0
2, 80520, Note_off_c, 1, 71, 0
2, 80560, Note_on_c, 1, 48, 127
2, 80560, Note_on_c, 1, 72, 127
2, 80680, Note_off_c, 1, 48, 0
2, 80680, Note_off_c, 1, 72, 0
2, 80720, Note_on_c, 1, 50, 127
2, 80720, Note_on_c, 1, 70, 127
2, 80800, Note_off_c, 1, 50, 0
2, 80800, Note_off_c, 1, 65, 0
2, 80840, Note_on_c, 1, 51, 127
2, 80840, Note_on_c, 1, 66, 127
2, 80960, Note_off_c, 1, 51, 0
2, 80960, Note_off_c, 1, 66, 0
2, 81000, Note_on_c, 1, 53, 127
2, 81000, Note_on_c, 1, 65, 127
2, 81000, Note_on_c, 1, 68, 127
2, 81000, Note_off_c, 1, 70, 0
2, 81080, Note_off_c, 1, 53, 0
2, 81080, Note_off_c, 1, 68, 0
2, 81080, Note_on_c, 1, 70, 127
2, 81120, Note_on_c, 1, 54, 127
2, 81240, Note_off_c, 1, 54, 0
2, 81240, Note_off_c, 1, 65, 0
2, 81280, Note_on_c, 1, 51, 127
2, 81280, Note_on_c, 1, 66, 127
2, 81360, Note_off_c, 1, 51, 0
2, 81400, Note_on_c, 1, 53, 127
2, 81480, Note_off_c, 1, 53, 0
2, 81480, Note_off_c, 1, 66, 0
2, 81560, Note_on_c, 1, 54, 127
2, 81560, Note_on_c, 1, 63, 127
2, 81640, Note_off_c, 1, 54, 0
2, 81680, Note_on_c, 1, 58, 127
2, 81760, Note_off_c, 1, 58, 0
2, 81760, Note_off_c, 1, 63, 0
2, 81760, Note_off_c, 1, 70, 0
2, 81840, Note_on_c, 1, 51, 127
2, 81840, Note_on_c, 1, 66, 127
2, 81840, Note_on_c, 1, 71, 127
2, 81920, Note_off_c, 1, 51, 0
2, 81960, Note_on_c, 1, 54, 127
2, 82080, Note_off_c, 1, 54, 0
2, 82080, Note_off_c, 1, 66, 0
2, 82080, Note_off_c, 1, 71, 0
2, 82120, Note_on_c, 1, 48, 127
2, 82120, Note_on_c, 1, 63, 127
2, 82120, Note_on_c, 1, 69, 127
2, 82200, Note_off_c, 1, 48, 0
2, 82240, Note_on_c, 1, 47, 127
2, 82360, Note_off_c, 1, 47, 0
2, 82360, Note_off_c, 1, 63, 0
2, 82360, Note_off_c, 1, 69, 0
2, 82400, Note_on_c, 1, 50, 127
2, 82400, Note_on_c, 1, 71, 127
2, 82480, Note_off_c, 1, 50, 0
2, 82520, Note_on_c, 1, 52, 127
2, 82640, Note_off_c, 1, 52, 0
2, 82680, Note_on_c, 1, 45, 127
2, 82680, Note_on_c, 1, 60, 127
2, 82760, Note_off_c, 1, 45, 0
2, 82800, Note_on_c, 1, 52, 127
2, 82920, Note_off_c, 1, 52, 0
2, 82920, Note_off_c, 1, 60, 0
2, 82920, Note_off_c, 1, 71, 0
2, 82960, Note_on_c, 1, 51, 127
2, 82960, Note_on_c, 1, 66, 127
2, 82960, Note_on_c, 1, 70, 127
2, 83040, Note_off_c, 1, 51, 0
2, 83080, Note_on_c, 1, 47, 127
2, 83200, Note_off_c, 1, 47, 0
2, 83200, Note_off_c, 1, 66, 0
2, 83200, Note_on_c, 1, 68, 127
2, 83200, Note_off_c, 1, 70, 0
2, 83240, Note_on_c, 1, 48, 127
2, 83240, Note_on_c, 1, 63, 127
2, 83240, Note_on_c, 1, 66, 127
2, 83320, Note_off_c, 1, 48, 0
2, 83360, Note_on_c, 1, 51, 127
2, 83480, Note_off_c, 1, 51, 0
2, 83520, Note_on_c, 1, 52, 127
2, 83600, Note_off_c, 1, 52, 0
2, 83640, Note_on_c, 1, 44, 127
2, 83760, Note_off_c, 1, 44, 0
2, 83800, Note_on_c, 1, 51, 127
2, 83880, Note_off_c, 1, 51, 0
2, 83880, Note_off_c, 1, 63, 0
2, 83880, Note_off_c, 1, 66, 0
2, 83880, Note_off_c, 1, 68, 0
2, 83920, Note_on_c, 1, 46, 127
2, 83920, Note_on_c, 1, 64, 127
2, 83920, Note_on_c, 1, 67, 127
2, 84040, Note_off_c, 1, 46, 0
2, 84040, Note_off_c, 1, 64, 0
2, 84040, Note_off_c, 1, 67, 0
2, 84080, Note_on_c, 1, 44, 127
2, 84080, Note_on_c, 1, 60, 127
2, 84080, Note_on_c, 1, 63, 127
2, 84080, Note_on_c, 1, 68, 127
2, 84160, Note_off_c, 1, 44, 0
2, 84200, Note_on_c, 1, 51, 127
2, 84320, Note_off_c, 1, 51, 0
2, 84320, Note_off_c, 1, 60, 0
2, 84320, Note_off_c, 1, 63, 0
2, 84320, Note_off_c, 1, 68, 0
2, 84360, Note_on_c, 1, 49, 127
2, 84360, Note_on_c, 1, 61, 127
2, 84360, Note_on_c, 1, 64, 127
2, 84360, Note_on_c, 1, 67, 127
2, 84560, Note_off_c, 1, 49, 0
2, 84560, Note_off_c, 1, 61, 0
2, 84560, Note_off_c, 1, 64, 0
2, 84560, Note_off_c, 1, 67, 0
2, 84640, Note_on_c, 1, 51, 127
2, 84640, Note_on_c, 1, 61, 127
2, 84640, Note_on_c, 1, 67, 127
2, 84720, Note_off_c, 1, 61, 0
2, 84760, Note_on_c, 1, 60, 127
2, 84880, Note_off_c, 1, 51, 0
2, 84880, Note_off_c, 1, 60, 0
2, 84880, Note_off_c, 1, 67, 0
2, 84920, Note_on_c, 1, 44, 127
2, 84920, Note_on_c, 1, 60, 127
2, 84920, Note_on_c, 1, 63, 127
2, 84920, Note_on_c, 1, 68, 127
2, 85000, Note_off_c, 1, 60, 0
2, 85040, Note_on_c, 1, 56, 127
2, 85160, Note_off_c, 1, 44, 0
2, 85160, Note_off_c, 1, 56, 0
2, 85160, Note_off_c, 1, 63, 0
2, 85200, Note_on_c, 1, 49, 127
2, 85200, Note_on_c, 1, 64, 127
2, 85280, Note_off_c, 1, 64, 0
2, 85320, Note_on_c, 1, 61, 127
2, 85440, Note_off_c, 1, 49, 0
2, 85440, Note_off_c, 1, 61, 0
2, 85480, Note_on_c, 1, 51, 127
2, 85480, Note_on_c, 1, 60, 127
2, 85840, Note_off_c, 1, 51, 0
2, 85840, Note_off_c, 1, 60, 0
2, 85880, Note_on_c, 1, 54, 127
2, 85960, Note_off_c, 1, 54, 0
2, 86040, Note_on_c, 1, 55, 127
2, 86120, Note_off_c, 1, 55, 0
2, 86160, Note_on_c, 1, 44, 127
2, 86160, Note_on_c, 1, 60, 127
2, 86400, Note_off_c, 1, 44, 0
2, 86400, Note_off_c, 1, 68, 0
2, 86440, Note_on_c, 1, 56, 127
2, 86600, Note_on_c, 1, 72, 127
2, 86680, Note_off_c, 1, 60, 0
2, 86680, Note_off_c, 1, 72, 0
2, 86720, Note_on_c, 1, 61, 127
2, 86720, Note_on_c, 1, 73, 127
2, 86800, Note_off_c, 1, 73, 0
2, 86840, Note_on_c, 1, 72, 127
2, 86960, Note_off_c, 1, 56, 0
2, 86960, Note_off_c, 1, 61, 0
2, 86960, Note_off_c, 1, 72, 0
2, 87000, Note_on_c, 1, 58, 127
2, 87000, Note_on_c, 1, 61, 127
2, 87000, Note_on_c, 1, 73, 127
2, 87080, Note_off_c, 1, 73, 0
2, 87120, Note_on_c, 1, 75, 127
2, 87240, Note_off_c, 1, 58, 0
2, 87240, Note_off_c, 1, 61, 0
2, 87240, Note_off_c, 1, 75, 0
2, 87280, Note_on_c, 1, 49, 127
2, 87280, Note_on_c, 1, 58, 127
2, 87280, Note_on_c, 1, 76, 127
2, 87360, Note_off_c, 1, 76, 0
2, 87440, Note_on_c, 1, 73, 127
2, 87520, Note_off_c, 1, 49, 0
2, 87520, Note_off_c, 1, 58, 0
2, 87520, Note_off_c, 1, 73, 0
2, 87560, Note_on_c, 1, 63, 127
2, 87560, Note_on_c, 1, 75, 127
2, 87720, Note_on_c, 1, 58, 127
2, 87800, Note_off_c, 1, 58, 0
2, 87800, Note_off_c, 1, 63, 0
2, 87840, Note_on_c, 1, 61, 127
2, 87840, Note_on_c, 1, 65, 127
2, 87960, Note_off_c, 1, 61, 0
2, 88000, Note_on_c, 1, 58, 127
2, 88080, Note_off_c, 1, 58, 0
2, 88120, Note_off_c, 1, 65, 0
2, 88120, Note_off_c, 1, 75, 0
2, 88160, Note_on_c, 1, 60, 127
2, 88160, Note_on_c, 1, 63, 127
2, 88160, Note_on_c, 1, 75, 127
2, 88240, Note_off_c, 1, 75, 0
2, 88320, Note_on_c, 1, 70, 127
2, 88400, Note_off_c, 1, 60, 0
2, 88400, Note_off_c, 1, 63, 0
2, 88400, Note_off_c, 1, 70, 0
2, 88440, Note_on_c, 1, 61, 127
2, 88440, Note_on_c, 1, 67, 127
2, 88440, Note_on_c, 1, 70, 127
2, 88560, Note_off_c, 1, 70, 0
2, 88600, Note_on_c, 1, 73, 127
2, 88680, Note_off_c, 1, 61, 0
2, 88680, Note_off_c, 1, 67, 0
2, 88680, Note_off_c, 1, 73, 0
2, 88720, Note_on_c, 1, 63, 127
2, 88720, Note_on_c, 1, 68, 127
2, 88720, Note_on_c, 1, 72, 127
2, 88840, Note_off_c, 1, 68, 0
2, 88840, Note_off_c, 1, 72, 0
2, 88880, Note_on_c, 1, 66, 127
2, 88880, Note_on_c, 1, 72, 127
2, 88960, Note_off_c, 1, 63, 0
2, 88960, Note_off_c, 1, 66, 0
2, 88960, Note_off_c, 1, 72, 0
2, 89000, Note_on_c, 1, 61, 127
2, 89000, Note_on_c, 1, 64, 127
2, 89000, Note_on_c, 1, 73, 127
2, 89120, Note_off_c, 1, 73, 0
2, 89160, Note_on_c, 1, 72, 127
2, 89240, Note_off_c, 1, 61, 0
2, 89240, Note_off_c, 1, 72, 0
2, 89280, Note_on_c, 1, 56, 127
2, 89280, Note_on_c, 1, 73, 127
2, 89400, Note_off_c, 1, 64, 0
2, 89400, Note_off_c, 1, 73, 0
2, 89440, Note_on_c, 1, 68, 127
2, 89440, Note_on_c, 1, 79, 127
2, 89520, Note_off_c, 1, 68, 0
2, 89520, Note_off_c, 1, 79, 0
2, 89600, Note_on_c, 1, 68, 127
2, 89600, Note_on_c, 1, 77, 127
2, 89680, Note_off_c, 1, 68, 0
2, 89680, Note_off_c, 1, 77, 0
2, 89720, Note_on_c, 1, 68, 127
2, 89720, Note_on_c, 1, 84, 127
2, 89800, Note_off_c, 1, 56, 0
2, 89800, Note_off_c, 1, 68, 0
2, 89800, Note_off_c, 1, 84, 0
2, 89840, Note_on_c, 1, 68, 127
2, 89840, Note_on_c, 1, 83, 127
2, 89960, Note_off_c, 1, 68, 0
2, 90000, Note_on_c, 1, 68, 127
2, 90080, Note_off_c, 1, 68, 0
2, 90080, Note_off_c, 1, 83, 0
2, 90160, Note_on_c, 1, 72, 127
2, 90160, Note_on_c, 1, 80, 127
2, 90240, Note_off_c, 1, 72, 0
2, 90280, Note_on_c, 1, 73, 127
2, 90400, Note_off_c, 1, 73, 0
2, 90440, Note_on_c, 1, 66, 127
2, 90440, Note_on_c, 1, 75, 127
2, 90520, Note_off_c, 1, 66, 0
2, 90520, Note_off_c, 1, 75, 0
2, 90560, Note_on_c, 1, 65, 127
2, 90680, Note_off_c, 1, 65, 0
2, 90720, Note_on_c, 1, 66, 127
2, 90720, Note_on_c, 1, 70, 127
2, 90800, Note_off_c, 1, 66, 0
2, 90840, Note_on_c, 1, 61, 127
2, 90960, Note_off_c, 1, 61, 0
2, 91000, Note_on_c, 1, 63, 127
2, 91080, Note_off_c, 1, 63, 0
2, 91120, Note_on_c, 1, 61, 127
2, 91240, Note_off_c, 1, 61, 0
2, 91240, Note_off_c, 1, 80, 0
2, 91280, Note_on_c, 1, 60, 127
2, 91280, Note_on_c, 1, 78, 127
2, 91360, Note_off_c, 1, 60, 0
2, 91400, Note_on_c, 1, 61, 127
2, 91520, Note_off_c, 1, 61, 0
2, 91520, Note_off_c, 1, 70, 0
2, 91560, Note_on_c, 1, 60, 127
2, 91560, Note_on_c, 1, 68, 127
2, 91640, Note_off_c, 1, 60, 0
2, 91680, Note_on_c, 1, 56, 127
2, 91800, Note_off_c, 1, 56, 0
2, 91800, Note_off_c, 1, 78, 0
2, 91840, Note_on_c, 1, 61, 127
2, 91840, Note_on_c, 1, 76, 127
2, 91920, Note_off_c, 1, 61, 0
2, 91960, Note_on_c, 1, 59, 127
2, 92080, Note_off_c, 1, 59, 0
2, 92080, Note_off_c, 1, 68, 0
2, 92120, Note_on_c, 1, 54, 127
2, 92120, Note_on_c, 1, 70, 127
2, 92200, Note_off_c, 1, 54, 0
2, 92200, Note_off_c, 1, 70, 0
2, 92240, Note_on_c, 1, 52, 127
2, 92240, Note_on_c, 1, 68, 127
2, 92360, Note_off_c, 1, 52, 0
2, 92360, Note_off_c, 1, 68, 0
2, 92400, Note_on_c, 1, 51, 127
2, 92400, Note_on_c, 1, 70, 127
2, 92480, Note_off_c, 1, 51, 0
2, 92480, Note_off_c, 1, 70, 0
2, 92520, Note_on_c, 1, 52, 127
2, 92520, Note_on_c, 1, 71, 127
2, 92640, Note_off_c, 1, 52, 0
2, 92640, Note_off_c, 1, 71, 0
2, 92680, Note_on_c, 1, 54, 127
2, 92680, Note_on_c, 1, 70, 127
2, 92760, Note_off_c, 1, 54, 0
2, 92760, Note_off_c, 1, 70, 0
2, 92800, Note_on_c, 1, 59, 127
2, 92800, Note_on_c, 1, 71, 127
2, 92920, Note_off_c, 1, 59, 0
2, 92920, Note_off_c, 1, 76, 0
2, 92960, Note_on_c, 1, 49, 127
2, 92960, Note_on_c, 1, 75, 127
2, 93040, Note_off_c, 1, 49, 0
2, 93120, Note_on_c, 1, 47, 127
2, 93200, Note_off_c, 1, 71, 0
2, 93200, Note_off_c, 1, 75, 0
2, 93240, Note_on_c, 1, 71, 127
2, 93240, Note_on_c, 1, 75, 127
2, 93360, Note_off_c, 1, 75, 0
2, 93400, Note_on_c, 1, 78, 127
2, 93480, Note_off_c, 1, 71, 0
2, 93520, Note_on_c, 1, 68, 127
2, 93640, Note_off_c, 1, 68, 0
2, 93640, Note_off_c, 1, 78, 0
2, 93680, Note_on_c, 1, 66, 127
2, 93680, Note_on_c, 1, 76, 127
2, 93720, Note_off_c, 1, 76, 0
2, 93760, Note_on_c, 1, 75, 127
2, 93800, Note_off_c, 1, 47, 0
2, 93800, Note_off_c, 1, 66, 0
2, 93840, Note_on_c, 1, 49, 127
2, 93840, Note_on_c, 1, 73, 127
2, 93840, Note_off_c, 1, 75, 0
2, 93840, Note_on_c, 1, 76, 127
2, 93920, Note_off_c, 1, 73, 0
2, 93960, Note_on_c, 1, 72, 127
2, 94040, Note_off_c, 1, 72, 0
2, 94080, Note_off_c, 1, 49, 0
2, 94080, Note_on_c, 1, 73, 127
2, 94080, Note_off_c, 1, 76, 0
2, 94120, Note_on_c, 1, 47, 127
2, 94120, Note_off_c, 1, 73, 0
2, 94120, Note_on_c, 1, 75, 127
2, 94120, Note_on_c, 1, 78, 127
2, 94200, Note_off_c, 1, 75, 0
2, 94240, Note_on_c, 1, 70, 127
2, 94360, Note_off_c, 1, 47, 0
2, 94360, Note_off_c, 1, 70, 0
2, 94360, Note_off_c, 1, 78, 0
2, 94400, Note_on_c, 1, 52, 127
2, 94400, Note_on_c, 1, 68, 127
2, 94400, Note_on_c, 1, 80, 127
2, 94480, Note_off_c, 1, 68, 0
2, 94520, Note_on_c, 1, 73, 127
2, 94640, Note_off_c, 1, 52, 0
2, 94640, Note_off_c, 1, 73, 0
2, 94680, Note_on_c, 1, 51, 127
2, 94680, Note_on_c, 1, 71, 127
2, 94760, Note_off_c, 1, 71, 0
2, 94840, Note_on_c, 1, 73, 127
2, 94920, Note_off_c, 1, 51, 0
2, 94920, Note_off_c, 1, 73, 0
2, 94960, Note_on_c, 1, 49, 127
2, 94960, Note_on_c, 1, 71, 127
2, 95040, Note_off_c, 1, 80, 0
2, 95080, Note_off_c, 1, 71, 0
2, 95120, Note_on_c, 1, 70, 127
2, 95200, Note_off_c, 1, 49, 0
2, 95200, Note_off_c, 1, 70, 0
2, 95240, Note_on_c, 1, 47, 127
2, 95240, Note_on_c, 1, 68, 127
2, 95240, Note_on_c, 1, 71, 127
2, 95320, Note_off_c, 1, 68, 0
2, 95400, Note_on_c, 1, 68, 127
2, 95480, Note_off_c, 1, 47, 0
2, 95480, Note_off_c, 1, 68, 0
2, 95480, Note_off_c, 1, 71, 0
2, 95520, Note_on_c, 1, 49, 127
2, 95520, Note_on_c, 1, 65, 127
2, 95520, Note_on_c, 1, 70, 127
2, 95640, Note_off_c, 1, 65, 0
2, 95680, Note_on_c, 1, 58, 127
2, 95760, Note_off_c, 1, 58, 0
2, 95800, Note_on_c, 1, 61, 127
2, 95920, Note_off_c, 1, 70, 0
2, 95960, Note_on_c, 1, 65, 127
2, 96040, Note_off_c, 1, 61, 0
2, 96040, Note_off_c, 1, 65, 0
2, 96080, Note_on_c, 1, 64, 127
2, 96080, Note_on_c, 1, 73, 127
2, 96200, Note_off_c, 1, 49, 0
2, 96200, Note_off_c, 1, 64, 0
2, 96200, Note_off_c, 1, 73, 0
2, 96240, Note_on_c, 1, 47, 127
2, 96240, Note_on_c, 1, 63, 127
2, 96240, Note_on_c, 1, 75, 127
2, 96320, Note_off_c, 1, 75, 0
2, 96360, Note_on_c, 1, 75, 127
2, 96480, Note_off_c, 1, 47, 0
2, 96480, Note_off_c, 1, 63, 0
2, 96480, Note_off_c, 1, 75, 0
2, 96520, Note_on_c, 1, 46, 127
2, 96520, Note_on_c, 1, 76, 127
2, 96560, Note_off_c, 1, 76, 0
2, 96600, Note_on_c, 1, 75, 127
2, 96760, Note_off_c, 1, 46, 0
2, 96760, Note_off_c, 1, 75, 0
2, 96800, Note_on_c, 1, 47, 127
2, 96800, Note_on_c, 1, 75, 127
2, 96880, Note_off_c, 1, 47, 0
2, 96920, Note_on_c, 1, 51, 127
2, 97040, Note_off_c, 1, 51, 0
2, 97080, Note_on_c, 1, 44, 127
2, 97080, Note_on_c, 1, 71, 127
2, 97160, Note_off_c, 1, 71, 0
2, 97160, Note_off_c, 1, 75, 0
2, 97200, Note_on_c, 1, 73, 127
2, 97320, Note_off_c, 1, 73, 0
2, 97360, Note_on_c, 1, 71, 127
2, 97360, Note_on_c, 1, 83, 127
2, 97440, Note_off_c, 1, 71, 0
2, 97480, Note_on_c, 1, 69, 127
2, 97600, Note_off_c, 1, 44, 0
2, 97600, Note_off_c, 1, 69, 0
2, 97600, Note_off_c, 1, 83, 0
2, 97640, Note_on_c, 1, 68, 127
2, 97640, Note_on_c, 1, 76, 127
2, 97720, Note_off_c, 1, 76, 0
2, 97760, Note_on_c, 1, 78, 127
2, 97880, Note_off_c, 1, 68, 0
2, 97880, Note_off_c, 1, 78, 0
2, 97920, Note_on_c, 1, 49, 127
2, 97920, Note_on_c, 1, 76, 127
2, 97920, Note_on_c, 1, 80, 127
2, 98000, Note_off_c, 1, 49, 0
2, 98040, Note_on_c, 1, 52, 127
2, 98160, Note_off_c, 1, 52, 0
2, 98160, Note_off_c, 1, 76, 0
2, 98160, Note_off_c, 1, 80, 0
2, 98200, Note_on_c, 1, 49, 127
2, 98200, Note_on_c, 1, 76, 127
2, 98200, Note_on_c, 1, 80, 127
2, 98280, Note_off_c, 1, 76, 0
2, 98360, Note_on_c, 1, 76, 127
2, 98440, Note_off_c, 1, 49, 0
2, 98440, Note_off_c, 1, 76, 0
2, 98480, Note_on_c, 1, 57, 127
2, 98480, Note_on_c, 1, 73, 127
2, 98560, Note_off_c, 1, 73, 0
2, 98560, Note_off_c, 1, 80, 0
2, 98600, Note_on_c, 1, 71, 127
2, 98600, Note_on_c, 1, 75, 127
2, 98720, Note_off_c, 1, 57, 0
2, 98720, Note_off_c, 1, 71, 0
2, 98720, Note_off_c, 1, 75, 0
2, 98760, Note_on_c, 1, 56, 127
2, 98760, Note_on_c, 1, 71, 127
2, 98760, Note_on_c, 1, 76, 127
2, 98840, Note_off_c, 1, 71, 0
2, 98880, Note_on_c, 1, 69, 127
2, 98960, Note_off_c, 1, 69, 0
2, 99000, Note_off_c, 1, 56, 0
2, 99040, Note_on_c, 1, 52, 127
2, 99040, Note_on_c, 1, 68, 127
2, 99120, Note_off_c, 1, 76, 0
2, 99160, Note_on_c, 1, 76, 127
2, 99280, Note_off_c, 1, 52, 0
2, 99280, Note_off_c, 1, 76, 0
2, 99320, Note_on_c, 1, 54, 127
2, 99320, Note_on_c, 1, 75, 127
2, 99400, Note_off_c, 1, 75, 0
2, 99440, Note_on_c, 1, 78, 127
2, 99560, Note_off_c, 1, 54, 0
2, 99560, Note_off_c, 1, 78, 0
2, 99600, Note_on_c, 1, 56, 127
2, 99600, Note_on_c, 1, 76, 127
2, 99680, Note_off_c, 1, 76, 0
2, 99720, Note_on_c, 1, 75, 127
2, 99840, Note_off_c, 1, 56, 0
2, 99840, Note_off_c, 1, 68, 0
2, 99880, Note_on_c, 1, 58, 127
2, 99880, Note_on_c, 1, 66, 127
2, 99960, Note_off_c, 1, 75, 0
2, 100000, Note_on_c, 1, 78, 127
2, 100120, Note_off_c, 1, 58, 0
2, 100120, Note_off_c, 1, 78, 0
2, 100160, Note_on_c, 1, 60, 127
2, 100160, Note_on_c, 1, 80, 127
2, 100240, Note_off_c, 1, 66, 0
2, 100280, Note_on_c, 1, 63, 127
2, 100400, Note_off_c, 1, 60, 0
2, 100400, Note_off_c, 1, 63, 0
2, 100440, Note_on_c, 1, 61, 127
2, 100440, Note_on_c, 1, 76, 127
2, 100520, Note_off_c, 1, 76, 0
2, 100560, Note_on_c, 1, 75, 127
2, 100680, Note_off_c, 1, 61, 0
2, 100680, Note_off_c, 1, 75, 0
2, 100720, Note_on_c, 1, 60, 127
2, 100720, Note_on_c, 1, 73, 127
2, 100800, Note_off_c, 1, 73, 0
2, 100840, Note_on_c, 1, 75, 127
2, 100960, Note_off_c, 1, 60, 0
2, 100960, Note_off_c, 1, 75, 0
2, 101000, Note_on_c, 1, 61, 127
2, 101000, Note_on_c, 1, 76, 127
2, 101080, Note_off_c, 1, 76, 0
2, 101120, Note_on_c, 1, 75, 127
2, 101240, Note_off_c, 1, 61, 0
2, 101240, Note_off_c, 1, 75, 0
2, 101280, Note_on_c, 1, 64, 127
2, 101280, Note_on_c, 1, 72, 127
2, 101360, Note_off_c, 1, 72, 0
2, 101400, Note_on_c, 1, 73, 127
2, 101520, Note_off_c, 1, 64, 0
2, 101520, Note_off_c, 1, 73, 0
2, 101560, Note_on_c, 1, 62, 127
2, 101560, Note_on_c, 1, 75, 127
2, 101640, Note_off_c, 1, 75, 0
2, 101680, Note_on_c, 1, 71, 127
2, 101800, Note_off_c, 1, 62, 0
2, 101800, Note_off_c, 1, 71, 0
2, 101840, Note_on_c, 1, 64, 127
2, 101840, Note_on_c, 1, 72, 127
2, 101920, Note_off_c, 1, 72, 0
2, 101960, Note_on_c, 1, 73, 127
2, 102080, Note_off_c, 1, 64, 0
2, 102080, Note_off_c, 1, 73, 0
2, 102120, Note_on_c, 1, 68, 127
2, 102120, Note_on_c, 1, 76, 127
2, 102200, Note_off_c, 1, 68, 0
2, 102200, Note_off_c, 1, 76, 0
2, 102240, Note_on_c, 1, 63, 127
2, 102320, Note_off_c, 1, 63, 0
2, 102320, Note_off_c, 1, 80, 0
2, 102360, Note_on_c, 1, 59, 127
2, 102360, Note_on_c, 1, 68, 127
2, 102360, Note_on_c, 1, 78, 127
2, 102480, Note_on_c, 1, 56, 127
2, 102480, Note_off_c, 1, 59, 0
2, 102480, Note_off_c, 1, 78, 0
2, 102520, Note_on_c, 1, 76, 127
2, 102600, Note_off_c, 1, 56, 0
2, 102600, Note_off_c, 1, 68, 0
2, 102600, Note_off_c, 1, 76, 0
2, 102640, Note_on_c, 1, 54, 127
2, 102640, Note_on_c, 1, 75, 127
2, 102760, Note_off_c, 1, 75, 0
2, 102800, Note_on_c, 1, 78, 127
2, 102880, Note_off_c, 1, 78, 0
2, 102920, Note_on_c, 1, 76, 127
2, 103000, Note_off_c, 1, 54, 0
2, 103080, Note_on_c, 1, 59, 127
2, 103160, Note_off_c, 1, 59, 0
2, 103160, Note_off_c, 1, 76, 0
2, 103200, Note_on_c, 1, 57, 127
2, 103200, Note_on_c, 1, 75, 127
2, 103320, Note_off_c, 1, 57, 0
2, 103320, Note_off_c, 1, 75, 0
2, 103360, Note_on_c, 1, 56, 127
2, 103360, Note_on_c, 1, 76, 127
2, 103440, Note_off_c, 1, 56, 0
2, 103440, Note_off_c, 1, 76, 0
2, 103480, Note_on_c, 1, 54, 127
2, 103480, Note_on_c, 1, 71, 127
2, 103600, Note_off_c, 1, 54, 0
2, 103600, Note_off_c, 1, 71, 0
2, 103640, Note_on_c, 1, 52, 127
2, 103640, Note_on_c, 1, 69, 127
2, 103760, Note_off_c, 1, 52, 0
2, 103760, Note_off_c, 1, 69, 0
2, 103800, Note_on_c, 1, 54, 127
2, 103800, Note_on_c, 1, 68, 127
2, 103880, Note_off_c, 1, 54, 0
2, 103880, Note_off_c, 1, 68, 0
2, 103920, Note_on_c, 1, 56, 127
2, 103920, Note_on_c, 1, 64, 127
2, 104040, Note_off_c, 1, 56, 0
2, 104040, Note_off_c, 1, 64, 0
2, 104080, Note_on_c, 1, 52, 127
2, 104080, Note_on_c, 1, 68, 127
2, 104160, Note_off_c, 1, 52, 0
2, 104160, Note_off_c, 1, 68, 0
2, 104200, Note_on_c, 1, 54, 127
2, 104200, Note_on_c, 1, 69, 127
2, 104320, Note_off_c, 1, 54, 0
2, 104320, Note_off_c, 1, 69, 0
2, 104360, Note_on_c, 1, 52, 127
2, 104360, Note_on_c, 1, 71, 127
2, 104440, Note_off_c, 1, 52, 0
2, 104480, Note_on_c, 1, 51, 127
2, 104600, Note_off_c, 1, 51, 0
2, 104600, Note_off_c, 1, 71, 0
2, 104640, Note_on_c, 1, 52, 127
2, 104640, Note_on_c, 1, 56, 127
2, 104640, Note_on_c, 1, 71, 127
2, 104720, Note_off_c, 1, 71, 0
2, 104720, Note_on_c, 1, 74, 127
2, 104760, Note_off_c, 1, 74, 0
2, 104800, Note_on_c, 1, 76, 127
2, 104880, Note_off_c, 1, 52, 0
2, 104880, Note_off_c, 1, 56, 0
2, 104880, Note_off_c, 1, 76, 0
2, 104920, Note_on_c, 1, 47, 127
2, 104920, Note_on_c, 1, 54, 127
2, 104920, Note_on_c, 1, 75, 127
2, 105040, Note_off_c, 1, 75, 0
2, 105080, Note_on_c, 1, 78, 127
2, 105160, Note_off_c, 1, 47, 0
2, 105160, Note_on_c, 1, 51, 127
2, 105160, Note_off_c, 1, 54, 0
2, 105160, Note_off_c, 1, 78, 0
2, 105200, Note_on_c, 1, 46, 127
2, 105200, Note_on_c, 1, 71, 127
2, 105320, Note_off_c, 1, 71, 0
2, 105360, Note_on_c, 1, 73, 127
2, 105440, Note_off_c, 1, 46, 0
2, 105440, Note_off_c, 1, 51, 0
2, 105440, Note_off_c, 1, 73, 0
2, 105480, Note_on_c, 1, 50, 127
2, 105480, Note_on_c, 1, 53, 127
2, 105480, Note_on_c, 1, 75, 127
2, 105600, Note_off_c, 1, 75, 0
2, 105640, Note_on_c, 1, 77, 127
2, 105720, Note_off_c, 1, 53, 0
2, 105720, Note_off_c, 1, 77, 0
2, 105760, Note_on_c, 1, 58, 127
2, 105760, Note_on_c, 1, 78, 127
2, 105880, Note_off_c, 1, 78, 0
2, 105920, Note_on_c, 1, 77, 127
2, 106000, Note_off_c, 1, 50, 0
2, 106000, Note_off_c, 1, 77, 0
2, 106040, Note_on_c, 1, 51, 127
2, 106040, Note_on_c, 1, 78, 127
2, 106120, Note_on_c, 1, 77, 127
2, 106120, Note_off_c, 1, 78, 0
2, 106160, Note_off_c, 1, 77, 0
2, 106200, Note_on_c, 1, 78, 127
2, 106280, Note_off_c, 1, 58, 0
2, 106280, Note_off_c, 1, 78, 0
2, 106320, Note_on_c, 1, 56, 127
2, 106320, Note_on_c, 1, 83, 127
2, 106440, Note_off_c, 1, 83, 0
2, 106480, Note_on_c, 1, 77, 127
2, 106560, Note_off_c, 1, 77, 0
2, 106640, Note_on_c, 1, 78, 127
2, 106720, Note_off_c, 1, 78, 0
2, 106760, Note_on_c, 1, 77, 127
2, 106840, Note_off_c, 1, 51, 0
2, 106840, Note_off_c, 1, 77, 0
2, 106880, Note_on_c, 1, 51, 127
2, 106880, Note_on_c, 1, 78, 127
2, 107000, Note_off_c, 1, 78, 0
2, 107040, Note_on_c, 1, 74, 127
2, 107120, Note_off_c, 1, 56, 0
2, 107120, Note_off_c, 1, 74, 0
2, 107160, Note_on_c, 1, 58, 127
2, 107160, Note_on_c, 1, 75, 127
2, 107280, Note_off_c, 1, 75, 0
2, 107320, Note_on_c, 1, 77, 127
2, 107400, Note_off_c, 1, 58, 0
2, 107400, Note_off_c, 1, 77, 0
2, 107440, Note_on_c, 1, 61, 127
2, 107440, Note_on_c, 1, 78, 127
2, 107560, Note_off_c, 1, 78, 0
2, 107600, Note_on_c, 1, 75, 127
2, 107680, Note_off_c, 1, 51, 0
2, 107680, Note_off_c, 1, 75, 0
2, 107720, Note_on_c, 1, 52, 127
2, 107720, Note_on_c, 1, 73, 127
2, 107840, Note_off_c, 1, 73, 0
2, 107880, Note_on_c, 1, 71, 127
2, 107960, Note_off_c, 1, 52, 0
2, 107960, Note_off_c, 1, 61, 0
2, 107960, Note_off_c, 1, 71, 0
2, 108000, Note_on_c, 1, 51, 127
2, 108000, Note_on_c, 1, 66, 127
2, 108000, Note_on_c, 1, 70, 127
2, 108080, Note_off_c, 1, 70, 0
2, 108160, Note_on_c, 1, 71, 127
2, 108240, Note_off_c, 1, 51, 0
2, 108240, Note_off_c, 1, 71, 0
2, 108280, Note_on_c, 1, 47, 127
2, 108280, Note_on_c, 1, 73, 127
2, 108360, Note_off_c, 1, 73, 0
2, 108400, Note_on_c, 1, 71, 127
2, 108520, Note_off_c, 1, 66, 0
2, 108520, Note_off_c, 1, 71, 0
2, 108560, Note_on_c, 1, 59, 127
2, 108560, Note_on_c, 1, 63, 127
2, 108640, Note_off_c, 1, 63, 0
2, 108680, Note_on_c, 1, 66, 127
2, 108760, Note_off_c, 1, 47, 0
2, 108760, Note_off_c, 1, 59, 0
2, 108800, Note_on_c, 1, 56, 127
2, 108800, Note_on_c, 1, 64, 127
2, 108800, Note_off_c, 1, 66, 0
2, 108800, Note_on_c, 1, 71, 127
2, 108920, Note_off_c, 1, 71, 0
2, 108960, Note_on_c, 1, 69, 127
2, 109040, Note_off_c, 1, 56, 0
2, 109040, Note_off_c, 1, 69, 0
2, 109080, Note_on_c, 1, 42, 127
2, 109080, Note_on_c, 1, 68, 127
2, 109200, Note_off_c, 1, 64, 0
2, 109240, Note_on_c, 1, 63, 127
2, 109320, Note_off_c, 1, 42, 0
2, 109320, Note_off_c, 1, 63, 0
2, 109320, Note_off_c, 1, 68, 0
2, 109360, Note_on_c, 1, 44, 127
2, 109360, Note_on_c, 1, 64, 127
2, 109480, Note_off_c, 1, 64, 0
2, 109520, Note_on_c, 1, 63, 127
2, 109600, Note_off_c, 1, 44, 0
2, 109600, Note_off_c, 1, 63, 0
2, 109640, Note_on_c, 1, 42, 127
2, 109640, Note_on_c, 1, 61, 127
2, 109880, Note_off_c, 1, 61, 0
2, 110200, Note_on_c, 1, 75, 127
2, 110280, Note_off_c, 1, 75, 0
2, 110320, Note_on_c, 1, 73, 127
2, 110440, Note_off_c, 1, 73, 0
2, 110480, Note_on_c, 1, 71, 127
2, 110560, Note_off_c, 1, 42, 0
2, 110560, Note_off_c, 1, 71, 0
2, 110600, Note_on_c, 1, 47, 127
2, 110600, Note_on_c, 1, 69, 127
2, 110720, Note_off_c, 1, 69, 0
2, 110760, Note_on_c, 1, 71, 127
2, 110960, Note_off_c, 1, 47, 0
2, 110960, Note_off_c, 1, 71, 0
2, 111000, Note_on_c, 1, 40, 127
2, 111000, Note_on_c, 1, 71, 127
2, 111120, Note_off_c, 1, 71, 0
2, 111160, Note_on_c, 1, 76, 127
2, 111240, Note_off_c, 1, 40, 0
2, 111240, Note_off_c, 1, 76, 0
2, 111280, Note_on_c, 1, 44, 127
2, 111280, Note_on_c, 1, 71, 127
2, 111360, Note_off_c, 1, 71, 0
2, 111440, Note_on_c, 1, 69, 127
2, 111520, Note_off_c, 1, 44, 0
2, 111520, Note_off_c, 1, 69, 0
2, 111560, Note_on_c, 1, 52, 127
2, 111560, Note_on_c, 1, 68, 127
2, 111640, Note_off_c, 1, 68, 0
2, 111680, Note_on_c, 1, 71, 127
2, 111800, Note_off_c, 1, 52, 0
2, 111800, Note_off_c, 1, 71, 0
2, 111840, Note_on_c, 1, 56, 127
2, 111840, Note_on_c, 1, 76, 127
2, 111920, Note_off_c, 1, 76, 0
2, 111960, Note_on_c, 1, 68, 127
2, 112080, Note_off_c, 1, 56, 0
2, 112080, Note_off_c, 1, 68, 0
2, 112120, Note_on_c, 1, 54, 127
2, 112120, Note_on_c, 1, 69, 127
2, 112200, Note_off_c, 1, 69, 0
2, 112240, Note_on_c, 1, 71, 127
2, 112320, Note_off_c, 1, 54, 0
2, 112320, Note_off_c, 1, 71, 0
2, 112400, Note_on_c, 1, 52, 127
2, 112400, Note_on_c, 1, 69, 127
2, 112480, Note_off_c, 1, 69, 0
2, 112520, Note_on_c, 1, 68, 127
2, 112640, Note_off_c, 1, 52, 0
2, 112640, Note_off_c, 1, 68, 0
2, 112680, Note_on_c, 1, 57, 127
2, 112680, Note_on_c, 1, 73, 127
2, 112760, Note_off_c, 1, 73, 0
2, 112800, Note_on_c, 1, 81, 127
2, 112920, Note_off_c, 1, 57, 0
2, 112920, Note_off_c, 1, 81, 0
2, 112960, Note_on_c, 1, 54, 127
2, 112960, Note_on_c, 1, 80, 127
2, 113040, Note_off_c, 1, 80, 0
2, 113080, Note_on_c, 1, 81, 127
2, 113200, Note_off_c, 1, 54, 0
2, 113200, Note_off_c, 1, 81, 0
2, 113240, Note_on_c, 1, 56, 127
2, 113240, Note_on_c, 1, 76, 127
2, 113240, Note_on_c, 1, 78, 127
2, 113320, Note_off_c, 1, 76, 0
2, 113360, Note_on_c, 1, 75, 127
2, 113480, Note_off_c, 1, 56, 0
2, 113480, Note_off_c, 1, 75, 0
2, 113480, Note_off_c, 1, 78, 0
2, 113520, Note_on_c, 1, 61, 127
2, 113520, Note_on_c, 1, 73, 127
2, 113520, Note_on_c, 1, 76, 127
2, 113600, Note_off_c, 1, 61, 0
2, 113600, Note_off_c, 1, 73, 0
2, 113640, Note_on_c, 1, 60, 127
2, 113640, Note_on_c, 1, 72, 127
2, 113760, Note_off_c, 1, 60, 0
2, 113760, Note_off_c, 1, 72, 0
2, 113800, Note_on_c, 1, 56, 127
2, 113800, Note_on_c, 1, 72, 127
2, 113880, Note_off_c, 1, 72, 0
2, 113880, Note_off_c, 1, 76, 0
2, 113920, Note_on_c, 1, 73, 127
2, 114040, Note_off_c, 1, 56, 0
2, 114040, Note_off_c, 1, 73, 0
2, 114080, Note_on_c, 1, 52, 127
2, 114080, Note_on_c, 1, 73, 127
2, 114160, Note_off_c, 1, 73, 0
2, 114200, Note_on_c, 1, 76, 127
2, 114320, Note_off_c, 1, 52, 0
2, 114320, Note_off_c, 1, 76, 0
2, 114360, Note_on_c, 1, 57, 127
2, 114360, Note_on_c, 1, 75, 127
2, 114440, Note_off_c, 1, 75, 0
2, 114480, Note_on_c, 1, 73, 127
2, 114600, Note_off_c, 1, 57, 0
2, 114600, Note_off_c, 1, 73, 0
2, 114640, Note_on_c, 1, 54, 127
2, 114640, Note_on_c, 1, 72, 127
2, 114800, Note_on_c, 1, 78, 127
2, 114880, Note_off_c, 1, 54, 0
2, 114880, Note_off_c, 1, 72, 0
2, 114880, Note_off_c, 1, 78, 0
2, 114920, Note_on_c, 1, 68, 127
2, 114920, Note_on_c, 1, 73, 127
2, 115080, Note_on_c, 1, 52, 127
2, 115160, Note_off_c, 1, 73, 0
2, 115200, Note_on_c, 1, 75, 127
2, 115320, Note_off_c, 1, 75, 0
2, 115360, Note_on_c, 1, 73, 127
2, 115440, Note_off_c, 1, 52, 0
2, 115440, Note_off_c, 1, 73, 0
2, 115480, Note_on_c, 1, 56, 127
2, 115480, Note_on_c, 1, 72, 127
2, 115600, Note_off_c, 1, 72, 0
2, 115640, Note_on_c, 1, 73, 127
2, 115720, Note_off_c, 1, 73, 0
2, 115760, Note_on_c, 1, 75, 127
2, 115800, Note_off_c, 1, 68, 0
2, 115880, Note_off_c, 1, 56, 0
2, 115880, Note_off_c, 1, 75, 0
2, 115920, Note_on_c, 1, 61, 127
2, 115920, Note_on_c, 1, 76, 127
2, 116000, Note_off_c, 1, 61, 0
2, 116000, Note_off_c, 1, 76, 0
2, 116040, Note_on_c, 1, 51, 127
2, 116040, Note_on_c, 1, 73, 127
2, 116160, Note_off_c, 1, 73, 0
2, 116200, Note_on_c, 1, 75, 127
2, 116280, Note_off_c, 1, 51, 0
2, 116280, Note_off_c, 1, 75, 0
2, 116320, Note_on_c, 1, 44, 127
2, 116320, Note_on_c, 1, 76, 127
2, 116440, Note_off_c, 1, 76, 0
2, 116480, Note_on_c, 1, 80, 127
2, 116560, Note_off_c, 1, 44, 0
2, 116560, Note_off_c, 1, 80, 0
2, 116600, Note_on_c, 1, 48, 127
2, 116600, Note_on_c, 1, 75, 127
2, 116720, Note_off_c, 1, 75, 0
2, 116760, Note_on_c, 1, 73, 127
2, 116840, Note_off_c, 1, 48, 0
2, 116840, Note_off_c, 1, 73, 0
2, 116880, Note_on_c, 1, 49, 127
2, 116880, Note_on_c, 1, 80, 127
2, 116920, Note_off_c, 1, 80, 0
2, 116960, Note_on_c, 1, 78, 127
2, 117000, Note_off_c, 1, 78, 0
2, 117040, Note_on_c, 1, 76, 127
2, 117120, Note_off_c, 1, 49, 0
2, 117120, Note_off_c, 1, 76, 0
2, 117160, Note_on_c, 1, 52, 127
2, 117160, Note_on_c, 1, 80, 127
2, 117400, Note_off_c, 1, 52, 0
2, 117400, Note_off_c, 1, 80, 0
2, 117480, Note_on_c, 1, 48, 127
2, 117480, Note_on_c, 1, 68, 127
2, 117480, Note_on_c, 1, 80, 127
2, 117520, Note_off_c, 1, 80, 0
2, 117600, Note_on_c, 1, 78, 127
2, 117640, Note_off_c, 1, 78, 0
2, 117680, Note_on_c, 1, 76, 127
2, 117720, Note_off_c, 1, 48, 0
2, 117720, Note_off_c, 1, 76, 0
2, 117760, Note_on_c, 1, 51, 127
2, 117760, Note_on_c, 1, 78, 127
2, 117840, Note_off_c, 1, 78, 0
2, 117880, Note_on_c, 1, 80, 127
2, 118000, Note_off_c, 1, 51, 0
2, 118000, Note_off_c, 1, 68, 0
2, 118000, Note_off_c, 1, 80, 0
2, 118040, Note_on_c, 1, 49, 127
2, 118040, Note_on_c, 1, 69, 127
2, 118040, Note_on_c, 1, 76, 127
2, 118120, Note_off_c, 1, 76, 0
2, 118160, Note_on_c, 1, 78, 127
2, 118280, Note_off_c, 1, 49, 0
2, 118280, Note_off_c, 1, 78, 0
2, 118320, Note_on_c, 1, 51, 127
2, 118320, Note_on_c, 1, 76, 127
2, 118400, Note_off_c, 1, 76, 0
2, 118440, Note_on_c, 1, 75, 127
2, 118560, Note_off_c, 1, 51, 0
2, 118560, Note_off_c, 1, 69, 0
2, 118560, Note_off_c, 1, 75, 0
2, 118600, Note_on_c, 1, 40, 127
2, 118600, Note_on_c, 1, 68, 127
2, 118720, Note_on_c, 1, 73, 127
2, 118800, Note_off_c, 1, 40, 0
2, 118800, Note_off_c, 1, 68, 0
2, 118800, Note_off_c, 1, 73, 0
2, 118880, Note_on_c, 1, 71, 127
2, 119000, Note_on_c, 1, 51, 127
2, 119080, Note_off_c, 1, 51, 0
2, 119080, Note_off_c, 1, 71, 0
2, 119120, Note_on_c, 1, 52, 127
2, 119120, Note_on_c, 1, 80, 127
2, 119240, Note_off_c, 1, 52, 0
2, 119280, Note_on_c, 1, 56, 127
2, 119360, Note_off_c, 1, 56, 0
2, 119360, Note_off_c, 1, 80, 0
2, 119400, Note_on_c, 1, 57, 127
2, 119400, Note_on_c, 1, 78, 127
2, 119520, Note_off_c, 1, 57, 0
2, 119520, Note_off_c, 1, 78, 0
2, 119560, Note_on_c, 1, 56, 127
2, 119560, Note_on_c, 1, 76, 127
2, 119640, Note_off_c, 1, 56, 0
2, 119640, Note_off_c, 1, 76, 0
2, 119680, Note_on_c, 1, 57, 127
2, 119680, Note_on_c, 1, 78, 127
2, 119800, Note_off_c, 1, 57, 0
2, 119800, Note_off_c, 1, 78, 0
2, 119840, Note_on_c, 1, 47, 127
2, 119840, Note_on_c, 1, 80, 127
2, 119920, Note_off_c, 1, 47, 0
2, 119920, Note_off_c, 1, 80, 0
2, 119960, Note_on_c, 1, 47, 127
2, 119960, Note_on_c, 1, 81, 127
2, 120080, Note_off_c, 1, 47, 0
2, 120080, Note_off_c, 1, 81, 0
2, 120120, Note_on_c, 1, 59, 127
2, 120120, Note_on_c, 1, 80, 127
2, 120200, Note_off_c, 1, 59, 0
2, 120200, Note_off_c, 1, 80, 0
2, 120240, Note_on_c, 1, 54, 127
2, 120240, Note_on_c, 1, 81, 127
2, 120360, Note_off_c, 1, 54, 0
2, 120360, Note_off_c, 1, 81, 0
2, 120400, Note_on_c, 1, 59, 127
2, 120400, Note_on_c, 1, 82, 127
2, 120520, Note_off_c, 1, 59, 0
2, 120520, Note_off_c, 1, 82, 0
2, 120560, Note_on_c, 1, 56, 127
2, 120560, Note_on_c, 1, 83, 127
2, 120680, Note_off_c, 1, 56, 0
2, 120720, Note_on_c, 1, 47, 127
2, 120800, Note_off_c, 1, 47, 0
2, 120800, Note_off_c, 1, 83, 0
2, 120840, Note_on_c, 1, 52, 127
2, 120840, Note_on_c, 1, 80, 127
2, 120960, Note_off_c, 1, 52, 0
2, 120960, Note_off_c, 1, 80, 0
2, 121000, Note_on_c, 1, 56, 127
2, 121000, Note_on_c, 1, 76, 127
2, 121080, Note_off_c, 1, 56, 0
2, 121080, Note_off_c, 1, 76, 0
2, 121120, Note_on_c, 1, 47, 127
2, 121120, Note_on_c, 1, 80, 127
2, 121240, Note_off_c, 1, 80, 0
2, 121280, Note_on_c, 1, 81, 127
2, 121360, Note_off_c, 1, 47, 0
2, 121360, Note_off_c, 1, 81, 0
2, 121400, Note_on_c, 1, 52, 127
2, 121400, Note_on_c, 1, 80, 127
2, 121520, Note_off_c, 1, 52, 0
2, 121520, Note_off_c, 1, 80, 0
2, 121560, Note_on_c, 1, 56, 127
2, 121560, Note_on_c, 1, 76, 127
2, 121640, Note_off_c, 1, 56, 0
2, 121640, Note_off_c, 1, 76, 0
2, 121680, Note_on_c, 1, 59, 127
2, 121680, Note_on_c, 1, 80, 127
2, 121800, Note_off_c, 1, 59, 0
2, 121800, Note_off_c, 1, 80, 0
2, 121840, Note_on_c, 1, 56, 127
2, 121840, Note_on_c, 1, 83, 127
2, 121920, Note_off_c, 1, 83, 0
2, 122000, Note_on_c, 1, 76, 127
2, 122080, Note_off_c, 1, 56, 0
2, 122080, Note_off_c, 1, 76, 0
2, 122120, Note_on_c, 1, 54, 127
2, 122120, Note_on_c, 1, 75, 127
2, 122200, Note_off_c, 1, 54, 0
2, 122200, Note_off_c, 1, 75, 0
2, 122240, Note_on_c, 1, 56, 127
2, 122240, Note_on_c, 1, 76, 127
2, 122360, Note_off_c, 1, 76, 0
2, 122400, Note_on_c, 1, 80, 127
2, 122480, Note_off_c, 1, 56, 0
2, 122480, Note_off_c, 1, 80, 0
2, 122520, Note_on_c, 1, 52, 127
2, 122520, Note_on_c, 1, 78, 127
2, 122640, Note_off_c, 1, 78, 0
2, 122680, Note_on_c, 1, 76, 127
2, 122760, Note_off_c, 1, 52, 0
2, 122760, Note_off_c, 1, 76, 0
2, 122800, Note_on_c, 1, 49, 127
2, 122800, Note_on_c, 1, 80, 127
2, 122920, Note_off_c, 1, 49, 0
2, 122920, Note_off_c, 1, 80, 0
2, 122960, Note_on_c, 1, 51, 127
2, 122960, Note_on_c, 1, 83, 127
2, 123040, Note_off_c, 1, 83, 0
2, 123080, Note_on_c, 1, 81, 127
2, 123200, Note_off_c, 1, 51, 0
2, 123200, Note_off_c, 1, 81, 0
2, 123240, Note_on_c, 1, 52, 127
2, 123240, Note_on_c, 1, 80, 127
2, 123320, Note_off_c, 1, 80, 0
2, 123360, Note_on_c, 1, 71, 127
2, 123480, Note_off_c, 1, 52, 0
2, 123480, Note_off_c, 1, 71, 0
2, 123520, Note_on_c, 1, 69, 127
2, 123640, Note_on_c, 1, 57, 127
2, 123760, Note_off_c, 1, 57, 0
2, 123800, Note_on_c, 1, 59, 127
2, 123880, Note_off_c, 1, 59, 0
2, 123920, Note_on_c, 1, 57, 127
2, 124040, Note_off_c, 1, 57, 0
2, 124040, Note_off_c, 1, 69, 0
2, 124080, Note_on_c, 1, 61, 127
2, 124080, Note_on_c, 1, 72, 127
2, 124160, Note_off_c, 1, 61, 0
2, 124160, Note_off_c, 1, 72, 0
2, 124200, Note_on_c, 1, 60, 127
2, 124200, Note_on_c, 1, 70, 127
2, 124320, Note_off_c, 1, 60, 0
2, 124320, Note_off_c, 1, 70, 0
2, 124360, Note_on_c, 1, 64, 127
2, 124360, Note_on_c, 1, 72, 127
2, 124440, Note_off_c, 1, 64, 0
2, 124440, Note_off_c, 1, 72, 0
2, 124480, Note_on_c, 1, 57, 127
2, 124480, Note_on_c, 1, 73, 127
2, 124600, Note_off_c, 1, 57, 0
2, 124600, Note_off_c, 1, 73, 0
2, 124640, Note_on_c, 1, 62, 127
2, 124640, Note_on_c, 1, 69, 127
2, 124720, Note_off_c, 1, 62, 0
2, 124720, Note_off_c, 1, 69, 0
2, 124760, Note_on_c, 1, 59, 127
2, 124760, Note_on_c, 1, 68, 127
2, 124880, Note_off_c, 1, 59, 0
2, 124880, Note_off_c, 1, 68, 0
2, 124920, Note_on_c, 1, 56, 127
2, 124920, Note_on_c, 1, 65, 127
2, 125000, Note_off_c, 1, 56, 0
2, 125040, Note_on_c, 1, 57, 127
2, 125160, Note_off_c, 1, 57, 0
2, 125160, Note_off_c, 1, 65, 0
2, 125200, Note_on_c, 1, 59, 127
2, 125200, Note_on_c, 1, 66, 127
2, 125320, Note_off_c, 1, 59, 0
2, 125360, Note_on_c, 1, 57, 127
2, 125440, Note_off_c, 1, 57, 0
2, 125440, Note_off_c, 1, 66, 0
2, 125480, Note_on_c, 1, 54, 127
2, 125480, Note_on_c, 1, 69, 127
2, 125600, Note_off_c, 1, 54, 0
2, 125600, Note_off_c, 1, 69, 0
2, 125640, Note_on_c, 1, 57, 127
2, 125640, Note_on_c, 1, 62, 127
2, 125720, Note_off_c, 1, 57, 0
2, 125720, Note_off_c, 1, 62, 0
2, 125800, Note_on_c, 1, 54, 127
2, 125800, Note_on_c, 1, 66, 127
2, 125880, Note_off_c, 1, 54, 0
2, 125880, Note_off_c, 1, 66, 0
2, 125920, Note_on_c, 1, 57, 127
2, 125920, Note_on_c, 1, 61, 127
2, 126040, Note_off_c, 1, 57, 0
2, 126040, Note_off_c, 1, 61, 0
2, 126080, Note_on_c, 1, 56, 127
2, 126080, Note_on_c, 1, 71, 127
2, 126160, Note_off_c, 1, 56, 0
2, 126200, Note_on_c, 1, 54, 127
2, 126320, Note_off_c, 1, 54, 0
2, 126320, Note_off_c, 1, 71, 0
2, 126360, Note_on_c, 1, 56, 127
2, 126440, Note_off_c, 1, 56, 0
2, 126480, Note_on_c, 1, 54, 127
2, 126600, Note_off_c, 1, 54, 0
2, 126640, Note_on_c, 1, 52, 127
2, 126640, Note_on_c, 1, 73, 127
2, 126720, Note_off_c, 1, 52, 0
2, 126760, Note_on_c, 1, 54, 127
2, 126760, Note_on_c, 1, 68, 127
2, 126880, Note_off_c, 1, 54, 0
2, 126880, Note_off_c, 1, 68, 0
2, 126880, Note_off_c, 1, 73, 0
2, 126920, Note_on_c, 1, 59, 127
2, 126920, Note_on_c, 1, 71, 127
2, 127000, Note_off_c, 1, 59, 0
2, 127040, Note_on_c, 1, 61, 127
2, 127160, Note_off_c, 1, 61, 0
2, 127160, Note_off_c, 1, 71, 0
2, 127200, Note_on_c, 1, 57, 127
2, 127200, Note_on_c, 1, 73, 127
2, 127280, Note_off_c, 1, 57, 0
2, 127320, Note_on_c, 1, 62, 127
2, 127440, Note_off_c, 1, 62, 0
2, 127440, Note_off_c, 1, 73, 0
2, 127480, Note_on_c, 1, 56, 127
2, 127480, Note_on_c, 1, 71, 127
2, 127560, Note_off_c, 1, 56, 0
2, 127600, Note_on_c, 1, 54, 127
2, 127720, Note_off_c, 1, 54, 0
2, 127720, Note_off_c, 1, 71, 0
2, 127760, Note_on_c, 1, 53, 127
2, 127760, Note_on_c, 1, 68, 127
2, 127840, Note_off_c, 1, 53, 0
2, 127840, Note_off_c, 1, 68, 0
2, 127880, Note_on_c, 1, 54, 127
2, 127880, Note_on_c, 1, 69, 127
2, 128000, Note_off_c, 1, 54, 0
2, 128000, Note_off_c, 1, 69, 0
2, 128040, Note_on_c, 1, 50, 127
2, 128040, Note_on_c, 1, 71, 127
2, 128120, Note_off_c, 1, 50, 0
2, 128120, Note_off_c, 1, 71, 0
2, 128160, Note_on_c, 1, 52, 127
2, 128160, Note_on_c, 1, 73, 127
2, 128280, Note_off_c, 1, 52, 0
2, 128280, Note_off_c, 1, 73, 0
2, 128320, Note_on_c, 1, 54, 127
2, 128320, Note_on_c, 1, 69, 127
2, 128400, Note_off_c, 1, 54, 0
2, 128400, Note_off_c, 1, 69, 0
2, 128440, Note_on_c, 1, 52, 127
2, 128440, Note_on_c, 1, 68, 127
2, 128560, Note_off_c, 1, 52, 0
2, 128560, Note_off_c, 1, 68, 0
2, 128600, Note_on_c, 1, 50, 127
2, 128600, Note_on_c, 1, 66, 127
2, 128680, Note_off_c, 1, 50, 0
2, 128720, Note_on_c, 1, 47, 127
2, 128840, Note_off_c, 1, 47, 0
2, 128880, Note_on_c, 1, 45, 127
2, 128880, Note_on_c, 1, 73, 127
2, 128960, Note_off_c, 1, 45, 0
2, 128960, Note_off_c, 1, 66, 0
2, 128960, Note_off_c, 1, 73, 0
2, 129000, Note_on_c, 1, 44, 127
2, 129000, Note_on_c, 1, 71, 127
2, 129120, Note_off_c, 1, 44, 0
2, 129120, Note_off_c, 1, 71, 0
2, 129160, Note_on_c, 1, 45, 127
2, 129160, Note_on_c, 1, 61, 127
2, 129160, Note_on_c, 1, 69, 127
2, 129240, Note_off_c, 1, 45, 0
2, 129280, Note_on_c, 1, 47, 127
2, 129400, Note_off_c, 1, 47, 0
2, 129400, Note_off_c, 1, 61, 0
2, 129400, Note_off_c, 1, 69, 0
2, 129440, Note_on_c, 1, 49, 127
2, 129440, Note_on_c, 1, 69, 127
2, 129520, Note_off_c, 1, 49, 0
2, 129600, Note_on_c, 1, 50, 127
2, 129680, Note_off_c, 1, 50, 0
2, 129680, Note_off_c, 1, 69, 0
2, 129720, Note_on_c, 1, 47, 127
2, 129720, Note_on_c, 1, 71, 127
2, 129840, Note_off_c, 1, 47, 0
2, 129880, Note_on_c, 1, 45, 127
2, 129960, Note_off_c, 1, 45, 0
2, 129960, Note_off_c, 1, 71, 0
2, 130000, Note_on_c, 1, 44, 127
2, 130000, Note_on_c, 1, 61, 127
2, 130000, Note_on_c, 1, 69, 127
2, 130080, Note_off_c, 1, 44, 0
2, 130120, Note_on_c, 1, 45, 127
2, 130160, Note_off_c, 1, 61, 0
2, 130160, Note_on_c, 1, 62, 127
2, 130200, Note_on_c, 1, 61, 127
2, 130200, Note_off_c, 1, 62, 0
2, 130240, Note_off_c, 1, 45, 0
2, 130280, Note_on_c, 1, 47, 127
2, 130360, Note_off_c, 1, 47, 0
2, 130400, Note_on_c, 1, 49, 127
2, 130520, Note_off_c, 1, 49, 0
2, 130560, Note_on_c, 1, 45, 127
2, 130640, Note_off_c, 1, 61, 0
2, 130720, Note_on_c, 1, 57, 127
2, 130800, Note_off_c, 1, 57, 0
2, 130840, Note_on_c, 1, 59, 127
2, 130920, Note_off_c, 1, 59, 0
2, 130920, Note_off_c, 1, 69, 0
2, 131000, Note_on_c, 1, 61, 127
2, 131000, Note_on_c, 1, 69, 127
2, 131080, Note_off_c, 1, 69, 0
2, 131120, Note_on_c, 1, 71, 127
2, 131240, Note_off_c, 1, 45, 0
2, 131240, Note_off_c, 1, 71, 0
2, 131280, Note_on_c, 1, 49, 127
2, 131280, Note_on_c, 1, 73, 127
2, 131360, Note_off_c, 1, 73, 0
2, 131400, Note_on_c, 1, 74, 127
2, 131520, Note_off_c, 1, 49, 0
2, 131520, Note_off_c, 1, 74, 0
2, 131560, Note_on_c, 1, 54, 127
2, 131560, Note_on_c, 1, 76, 127
2, 131640, Note_off_c, 1, 54, 0
2, 131640, Note_off_c, 1, 76, 0
2, 131680, Note_on_c, 1, 52, 127
2, 131680, Note_on_c, 1, 73, 127
2, 131800, Note_off_c, 1, 52, 0
2, 131800, Note_off_c, 1, 73, 0
2, 131840, Note_on_c, 1, 50, 127
2, 131840, Note_on_c, 1, 69, 127
2, 131920, Note_off_c, 1, 50, 0
2, 131920, Note_off_c, 1, 69, 0
2, 131960, Note_on_c, 1, 49, 127
2, 131960, Note_on_c, 1, 66, 127
2, 132080, Note_off_c, 1, 49, 0
2, 132080, Note_off_c, 1, 66, 0
2, 132120, Note_on_c, 1, 53, 127
2, 132120, Note_on_c, 1, 68, 127
2, 132200, Note_off_c, 1, 53, 0
2, 132200, Note_off_c, 1, 61, 0
2, 132200, Note_off_c, 1, 68, 0
2, 132240, Note_on_c, 1, 54, 127
2, 132240, Note_on_c, 1, 69, 127
2, 132360, Note_off_c, 1, 54, 0
2, 132400, Note_on_c, 1, 50, 127
2, 132480, Note_off_c, 1, 50, 0
2, 132480, Note_off_c, 1, 69, 0
2, 132520, Note_on_c, 1, 51, 127
2, 132640, Note_off_c, 1, 51, 0
2, 132680, Note_on_c, 1, 49, 127
2, 132800, Note_off_c, 1, 49, 0
2, 132840, Note_on_c, 1, 47, 127
2, 132840, Note_on_c, 1, 69, 127
2, 132920, Note_off_c, 1, 47, 0
2, 132920, Note_off_c, 1, 69, 0
2, 132960, Note_on_c, 1, 51, 127
2, 132960, Note_on_c, 1, 68, 127
2, 133080, Note_off_c, 1, 51, 0
2, 133080, Note_off_c, 1, 68, 0
2, 133120, Note_on_c, 1, 49, 127
2, 133120, Note_on_c, 1, 68, 127
2, 133200, Note_off_c, 1, 49, 0
2, 133240, Note_on_c, 1, 47, 127
2, 133360, Note_off_c, 1, 47, 0
2, 133360, Note_off_c, 1, 68, 0
2, 133400, Note_on_c, 1, 45, 127
2, 133400, Note_on_c, 1, 73, 127
2, 133520, Note_off_c, 1, 45, 0
2, 133560, Note_on_c, 1, 44, 127
2, 133640, Note_off_c, 1, 44, 0
2, 133640, Note_off_c, 1, 73, 0
2, 133680, Note_on_c, 1, 37, 127
2, 133680, Note_on_c, 1, 74, 127
2, 133800, Note_off_c, 1, 37, 0
2, 133800, Note_on_c, 1, 71, 127
2, 133800, Note_off_c, 1, 74, 0
2, 133840, Note_on_c, 1, 42, 127
2, 133920, Note_off_c, 1, 42, 0
2, 133960, Note_on_c, 1, 41, 127
2, 134080, Note_off_c, 1, 41, 0
2, 134120, Note_on_c, 1, 42, 127
2, 134200, Note_off_c, 1, 42, 0
2, 134200, Note_off_c, 1, 71, 0
2, 134240, Note_on_c, 1, 41, 127
2, 134240, Note_on_c, 1, 71, 127
2, 134360, Note_off_c, 1, 41, 0
2, 134400, Note_on_c, 1, 42, 127
2, 134480, Note_off_c, 1, 42, 0
2, 134480, Note_off_c, 1, 71, 0
2, 134520, Note_on_c, 1, 41, 127
2, 134520, Note_on_c, 1, 71, 127
2, 134640, Note_off_c, 1, 41, 0
2, 134680, Note_on_c, 1, 42, 127
2, 134760, Note_off_c, 1, 42, 0
2, 134760, Note_off_c, 1, 71, 0
2, 134840, Note_on_c, 1, 42, 127
2, 134840, Note_on_c, 1, 73, 127
2, 134880, Note_off_c, 1, 73, 0
2, 134920, Note_off_c, 1, 42, 0
2, 134920, Note_on_c, 1, 73, 127
2, 134960, Note_on_c, 1, 37, 127
2, 135080, Note_off_c, 1, 37, 0
2, 135080, Note_off_c, 1, 73, 0
2, 135120, Note_on_c, 1, 38, 127
2, 135120, Note_on_c, 1, 66, 127
2, 135200, Note_off_c, 1, 38, 0
2, 135280, Note_on_c, 1, 42, 127
2, 135360, Note_off_c, 1, 42, 0
2, 135360, Note_off_c, 1, 66, 0
2, 135400, Note_on_c, 1, 45, 127
2, 135400, Note_on_c, 1, 66, 127
2, 135480, Note_off_c, 1, 45, 0
2, 135520, Note_on_c, 1, 47, 127
2, 135640, Note_off_c, 1, 47, 0
2, 135640, Note_off_c, 1, 66, 0
2, 135680, Note_on_c, 1, 45, 127
2, 135680, Note_on_c, 1, 73, 127
2, 135760, Note_off_c, 1, 45, 0
2, 135800, Note_on_c, 1, 45, 127
2, 135920, Note_off_c, 1, 45, 0
2, 135920, Note_off_c, 1, 73, 0
2, 135960, Note_on_c, 1, 44, 127
2, 135960, Note_on_c, 1, 69, 127
2, 136040, Note_off_c, 1, 69, 0
2, 136080, Note_on_c, 1, 42, 127
2, 136080, Note_off_c, 1, 44, 0
2, 136080, Note_on_c, 1, 68, 127
2, 136120, Note_off_c, 1, 42, 0
2, 136120, Note_on_c, 1, 44, 127
2, 136160, Note_off_c, 1, 44, 0
2, 136160, Note_off_c, 1, 68, 0
2, 136200, Note_on_c, 1, 42, 127
2, 136200, Note_on_c, 1, 66, 127
2, 136320, Note_off_c, 1, 66, 0
2, 136360, Note_on_c, 1, 68, 127
2, 136440, Note_off_c, 1, 42, 0
2, 136440, Note_off_c, 1, 68, 0
2, 136480, Note_on_c, 1, 44, 127
2, 136480, Note_on_c, 1, 73, 127
2, 136600, Note_off_c, 1, 73, 0
2, 136640, Note_on_c, 1, 71, 127
2, 136720, Note_off_c, 1, 44, 0
2, 136720, Note_off_c, 1, 71, 0
2, 136760, Note_on_c, 1, 37, 127
2, 136760, Note_on_c, 1, 69, 127
2, 136880, Note_off_c, 1, 69, 0
2, 136920, Note_on_c, 1, 68, 127
2, 137000, Note_off_c, 1, 37, 0
2, 137000, Note_off_c, 1, 68, 0
2, 137040, Note_on_c, 1, 61, 127
2, 137040, Note_on_c, 1, 66, 127
2, 137120, Note_off_c, 1, 66, 0
2, 137160, Note_on_c, 1, 68, 127
2, 137280, Note_off_c, 1, 61, 0
2, 137280, Note_off_c, 1, 68, 0
2, 137320, Note_on_c, 1, 54, 127
2, 137320, Note_on_c, 1, 69, 127
2, 137400, Note_off_c, 1, 69, 0
2, 137440, Note_on_c, 1, 73, 127
2, 137560, Note_off_c, 1, 54, 0
2, 137560, Note_off_c, 1, 73, 0
2, 137600, Note_on_c, 1, 56, 127
2, 137600, Note_on_c, 1, 71, 127
2, 137680, Note_off_c, 1, 71, 0
2, 137720, Note_on_c, 1, 74, 127
2, 137840, Note_off_c, 1, 56, 0
2, 137840, Note_off_c, 1, 74, 0
2, 137880, Note_on_c, 1, 57, 127
2, 137880, Note_on_c, 1, 66, 127
2, 137960, Note_off_c, 1, 66, 0
2, 138000, Note_on_c, 1, 69, 127
2, 138120, Note_off_c, 1, 57, 0
2, 138120, Note_off_c, 1, 69, 0
2, 138160, Note_on_c, 1, 53, 127
2, 138160, Note_on_c, 1, 74, 127
2, 138240, Note_off_c, 1, 74, 0
2, 138280, Note_on_c, 1, 77, 127
2, 138360, Note_off_c, 1, 53, 0
2, 138360, Note_off_c, 1, 77, 0
2, 138440, Note_on_c, 1, 54, 127
2, 138440, Note_on_c, 1, 81, 127
2, 138520, Note_off_c, 1, 81, 0
2, 138560, Note_on_c, 1, 73, 127
2, 138640, Note_off_c, 1, 54, 0
2, 138640, Note_off_c, 1, 73, 0
2, 138720, Note_on_c, 1, 52, 127
2, 138720, Note_on_c, 1, 74, 127
2, 138800, Note_off_c, 1, 74, 0
2, 138840, Note_on_c, 1, 62, 127
2, 138920, Note_off_c, 1, 52, 0
2, 138920, Note_off_c, 1, 62, 0
2, 139000, Note_on_c, 1, 50, 127
2, 139000, Note_on_c, 1, 66, 127
2, 139080, Note_off_c, 1, 66, 0
2, 139120, Note_on_c, 1, 68, 127
2, 139200, Note_off_c, 1, 50, 0
2, 139200, Note_off_c, 1, 68, 0
2, 139280, Note_on_c, 1, 49, 127
2, 139280, Note_on_c, 1, 69, 127
2, 139360, Note_off_c, 1, 69, 0
2, 139400, Note_on_c, 1, 66, 127
2, 139480, Note_off_c, 1, 49, 0
2, 139480, Note_off_c, 1, 66, 0
2, 139560, Note_on_c, 1, 54, 127
2, 139560, Note_on_c, 1, 69, 127
2, 139640, Note_off_c, 1, 69, 0
2, 139680, Note_on_c, 1, 71, 127
2, 139760, Note_off_c, 1, 54, 0
2, 139760, Note_off_c, 1, 71, 0
2, 139840, Note_on_c, 1, 53, 127
2, 139840, Note_on_c, 1, 73, 127
2, 139920, Note_off_c, 1, 73, 0
2, 139960, Note_on_c, 1, 74, 127
2, 140080, Note_off_c, 1, 53, 0
2, 140080, Note_off_c, 1, 74, 0
2, 140120, Note_on_c, 1, 54, 127
2, 140120, Note_on_c, 1, 81, 127
2, 140200, Note_off_c, 1, 81, 0
2, 140240, Note_on_c, 1, 80, 127
2, 140320, Note_off_c, 1, 54, 0
2, 140320, Note_off_c, 1, 80, 0
2, 140400, Note_on_c, 1, 57, 127
2, 140400, Note_on_c, 1, 78, 127
2, 140480, Note_off_c, 1, 78, 0
2, 140520, Note_on_c, 1, 73, 127
2, 140600, Note_off_c, 1, 57, 0
2, 140600, Note_off_c, 1, 73, 0
2, 140640, Note_on_c, 1, 50, 127
2, 140640, Note_on_c, 1, 78, 127
2, 140760, Note_off_c, 1, 78, 0
2, 140800, Note_on_c, 1, 71, 127
2, 140880, Note_off_c, 1, 50, 0
2, 140880, Note_off_c, 1, 71, 0
2, 140920, Note_on_c, 1, 54, 127
2, 140920, Note_on_c, 1, 74, 127
2, 141040, Note_off_c, 1, 74, 0
2, 141080, Note_on_c, 1, 69, 127
2, 141160, Note_off_c, 1, 54, 0
2, 141160, Note_off_c, 1, 69, 0
2, 141200, Note_on_c, 1, 59, 127
2, 141200, Note_on_c, 1, 68, 127
2, 141280, Note_off_c, 1, 59, 0
2, 141320, Note_on_c, 1, 47, 127
2, 141440, Note_off_c, 1, 47, 0
2, 141440, Note_off_c, 1, 68, 0
2, 141480, Note_on_c, 1, 45, 127
2, 141480, Note_on_c, 1, 75, 127
2, 141640, Note_on_c, 1, 65, 127
2, 141640, Note_on_c, 1, 68, 127
2, 141720, Note_off_c, 1, 45, 0
2, 141720, Note_off_c, 1, 65, 0
2, 141720, Note_off_c, 1, 68, 0
2, 141760, Note_on_c, 1, 49, 127
2, 141760, Note_on_c, 1, 68, 127
2, 141800, Note_off_c, 1, 68, 0
2, 141840, Note_on_c, 1, 68, 127
2, 141880, Note_off_c, 1, 68, 0
2, 141920, Note_on_c, 1, 66, 127
2, 142000, Note_off_c, 1, 49, 0
2, 142000, Note_off_c, 1, 66, 0
2, 142000, Note_off_c, 1, 75, 0
2, 142040, Note_on_c, 1, 47, 127
2, 142040, Note_on_c, 1, 68, 127
2, 142200, Note_on_c, 1, 77, 127
2, 142280, Note_off_c, 1, 47, 0
2, 142280, Note_off_c, 1, 77, 0
2, 142320, Note_on_c, 1, 45, 127
2, 142320, Note_on_c, 1, 73, 127
2, 142360, Note_off_c, 1, 68, 0
2, 142480, Note_on_c, 1, 68, 127
2, 142560, Note_off_c, 1, 68, 0
2, 142560, Note_off_c, 1, 73, 0
2, 142600, Note_on_c, 1, 69, 127
2, 142680, Note_off_c, 1, 69, 0
2, 142720, Note_on_c, 1, 61, 127
2, 142840, Note_off_c, 1, 45, 0
2, 142840, Note_off_c, 1, 61, 0
2, 142880, Note_on_c, 1, 54, 127
2, 142880, Note_on_c, 1, 66, 127
2, 143000, Note_on_c, 1, 73, 127
2, 143080, Note_off_c, 1, 66, 0
2, 143120, Note_off_c, 1, 54, 0
2, 143120, Note_off_c, 1, 73, 0
2, 143160, Note_on_c, 1, 53, 127
2, 143160, Note_on_c, 1, 75, 127
2, 143240, Note_off_c, 1, 75, 0
2, 143280, Note_on_c, 1, 68, 127
2, 143400, Note_off_c, 1, 53, 0
2, 143400, Note_off_c, 1, 68, 0
2, 143440, Note_on_c, 1, 56, 127
2, 143440, Note_on_c, 1, 77, 127
2, 143560, Note_on_c, 1, 69, 127
2, 143680, Note_off_c, 1, 56, 0
2, 143680, Note_off_c, 1, 69, 0
2, 143680, Note_off_c, 1, 77, 0
2, 143720, Note_on_c, 1, 54, 127
2, 143720, Note_on_c, 1, 73, 127
2, 143800, Note_off_c, 1, 73, 0
2, 143840, Note_on_c, 1, 75, 127
2, 143960, Note_off_c, 1, 54, 0
2, 143960, Note_off_c, 1, 75, 0
2, 144000, Note_on_c, 1, 56, 127
2, 144000, Note_on_c, 1, 66, 127
2, 144080, Note_off_c, 1, 66, 0
2, 144120, Note_on_c, 1, 68, 127
2, 144240, Note_off_c, 1, 56, 0
2, 144240, Note_off_c, 1, 68, 0
2, 144280, Note_on_c, 1, 54, 127
2, 144280, Note_on_c, 1, 73, 127
2, 144400, Note_on_c, 1, 66, 127
2, 144520, Note_off_c, 1, 54, 0
2, 144520, Note_off_c, 1, 66, 0
2, 144560, Note_on_c, 1, 56, 127
2, 144560, Note_on_c, 1, 65, 127
2, 144640, Note_off_c, 1, 65, 0
2, 144680, Note_on_c, 1, 68, 127
2, 144800, Note_off_c, 1, 56, 0
2, 144800, Note_off_c, 1, 68, 0
2, 144840, Note_on_c, 1, 54, 127
2, 144840, Note_on_c, 1, 66, 127
2, 144920, Note_off_c, 1, 66, 0
2, 144960, Note_on_c, 1, 68, 127
2, 145080, Note_off_c, 1, 68, 0
2, 145120, Note_on_c, 1, 69, 127
2, 145200, Note_off_c, 1, 54, 0
2, 145200, Note_off_c, 1, 73, 0
2, 145240, Note_on_c, 1, 49, 127
2, 145360, Note_off_c, 1, 49, 0
2, 145400, Note_on_c, 1, 51, 127
2, 145400, Note_on_c, 1, 78, 127
2, 145480, Note_off_c, 1, 69, 0
2, 145560, Note_on_c, 1, 72, 127
2, 145560, Note_off_c, 1, 78, 0
2, 145640, Note_off_c, 1, 51, 0
2, 145640, Note_off_c, 1, 72, 0
2, 145680, Note_on_c, 1, 49, 127
2, 145680, Note_on_c, 1, 73, 127
2, 145800, Note_on_c, 1, 75, 127
2, 145920, Note_off_c, 1, 49, 0
2, 145920, Note_off_c, 1, 75, 0
2, 145960, Note_on_c, 1, 49, 127
2, 145960, Note_on_c, 1, 77, 127
2, 146040, Note_off_c, 1, 73, 0
2, 146080, Note_on_c, 1, 68, 127
2, 146200, Note_off_c, 1, 49, 0
2, 146200, Note_off_c, 1, 68, 0
2, 146200, Note_off_c, 1, 77, 0
2, 146240, Note_on_c, 1, 37, 127
2, 146240, Note_on_c, 1, 70, 127
2, 146360, Note_on_c, 1, 73, 127
2, 146480, Note_off_c, 1, 37, 0
2, 146480, Note_off_c, 1, 73, 0
2, 146520, Note_on_c, 1, 42, 127
2, 146520, Note_on_c, 1, 73, 127
2, 146600, Note_off_c, 1, 70, 0
2, 146640, Note_on_c, 1, 66, 127
2, 146760, Note_off_c, 1, 42, 0
2, 146760, Note_off_c, 1, 66, 0
2, 146760, Note_off_c, 1, 73, 0
2, 146800, Note_on_c, 1, 70, 127
2, 146880, Note_off_c, 1, 70, 0
2, 146920, Note_on_c, 1, 68, 127
2, 147040, Note_off_c, 1, 68, 0
2, 147080, Note_on_c, 1, 66, 127
2, 147080, Note_on_c, 1, 72, 127
2, 147160, Note_off_c, 1, 66, 0
2, 147200, Note_on_c, 1, 63, 127
2, 147320, Note_off_c, 1, 63, 0
2, 147320, Note_off_c, 1, 72, 0
2, 147360, Note_on_c, 1, 61, 127
2, 147360, Note_on_c, 1, 78, 127
2, 147440, Note_off_c, 1, 61, 0
2, 147480, Note_on_c, 1, 65, 127
2, 147600, Note_off_c, 1, 65, 0
2, 147600, Note_off_c, 1, 78, 0
2, 147640, Note_on_c, 1, 63, 127
2, 147640, Note_on_c, 1, 78, 127
2, 147720, Note_off_c, 1, 63, 0
2, 147760, Note_on_c, 1, 60, 127
2, 147880, Note_off_c, 1, 60, 0
2, 147920, Note_on_c, 1, 56, 127
2, 147920, Note_on_c, 1, 75, 127
2, 147920, Note_off_c, 1, 78, 0
2, 148000, Note_off_c, 1, 56, 0
2, 148000, Note_on_c, 1, 59, 127
2, 148040, Note_off_c, 1, 59, 0
2, 148080, Note_on_c, 1, 60, 127
2, 148160, Note_off_c, 1, 60, 0
2, 148160, Note_off_c, 1, 75, 0
2, 148200, Note_on_c, 1, 57, 127
2, 148200, Note_on_c, 1, 75, 127
2, 148280, Note_off_c, 1, 57, 0
2, 148280, Note_off_c, 1, 75, 0
2, 148320, Note_on_c, 1, 56, 127
2, 148320, Note_on_c, 1, 72, 127
2, 148440, Note_off_c, 1, 56, 0
2, 148440, Note_off_c, 1, 72, 0
2, 148480, Note_on_c, 1, 54, 127
2, 148480, Note_on_c, 1, 70, 127
2, 148560, Note_off_c, 1, 54, 0
2, 148600, Note_on_c, 1, 53, 127
2, 148680, Note_off_c, 1, 70, 0
2, 148720, Note_off_c, 1, 53, 0
2, 148760, Note_on_c, 1, 51, 127
2, 148760, Note_on_c, 1, 66, 127
2, 148840, Note_off_c, 1, 51, 0
2, 148880, Note_on_c, 1, 51, 127
2, 149000, Note_off_c, 1, 51, 0
2, 149000, Note_off_c, 1, 66, 0
2, 149040, Note_on_c, 1, 52, 127
2, 149040, Note_on_c, 1, 64, 127
2, 149120, Note_on_c, 1, 49, 127
2, 149120, Note_off_c, 1, 52, 0
2, 149160, Note_off_c, 1, 49, 0
2, 149200, Note_on_c, 1, 56, 127
2, 149280, Note_off_c, 1, 56, 0
2, 149320, Note_on_c, 1, 58, 127
2, 149400, Note_off_c, 1, 58, 0
2, 149400, Note_off_c, 1, 64, 0
2, 149440, Note_on_c, 1, 60, 127
2, 149560, Note_off_c, 1, 60, 0
2, 149600, Note_on_c, 1, 61, 127
2, 149720, Note_off_c, 1, 61, 0
2, 149720, Note_on_c, 1, 64, 127
2, 149840, Note_off_c, 1, 64, 0
2, 149880, Note_on_c, 1, 61, 127
2, 149880, Note_on_c, 1, 70, 127
2, 149960, Note_off_c, 1, 70, 0
2, 150000, Note_on_c, 1, 73, 127
2, 150080, Note_off_c, 1, 73, 0
2, 150120, Note_on_c, 1, 65, 127
2, 150240, Note_off_c, 1, 65, 0
2, 150280, Note_on_c, 1, 70, 127
2, 150360, Note_off_c, 1, 61, 0
2, 150360, Note_off_c, 1, 70, 0
2, 150440, Note_on_c, 1, 64, 127
2, 150440, Note_on_c, 1, 73, 127
2, 150520, Note_off_c, 1, 73, 0
2, 150560, Note_on_c, 1, 71, 127
2, 150680, Note_off_c, 1, 64, 0
2, 150680, Note_off_c, 1, 71, 0
2, 150720, Note_on_c, 1, 66, 127
2, 150720, Note_on_c, 1, 70, 127
2, 150800, Note_off_c, 1, 70, 0
2, 150840, Note_on_c, 1, 73, 127
2, 150960, Note_off_c, 1, 73, 0
2, 151000, Note_on_c, 1, 76, 127
2, 151080, Note_off_c, 1, 76, 0
2, 151120, Note_on_c, 1, 54, 127
2, 151120, Note_on_c, 1, 73, 127
2, 151240, Note_off_c, 1, 54, 0
2, 151240, Note_off_c, 1, 66, 0
2, 151240, Note_off_c, 1, 73, 0
2, 151280, Note_on_c, 1, 56, 127
2, 151280, Note_on_c, 1, 65, 127
2, 151280, Note_on_c, 1, 71, 127
2, 151360, Note_off_c, 1, 71, 0
2, 151400, Note_on_c, 1, 71, 127
2, 151520, Note_off_c, 1, 56, 0
2, 151520, Note_off_c, 1, 65, 0
2, 151520, Note_off_c, 1, 71, 0
2, 151560, Note_on_c, 1, 58, 127
2, 151560, Note_on_c, 1, 66, 127
2, 151560, Note_on_c, 1, 73, 127
2, 151640, Note_off_c, 1, 73, 0
2, 151680, Note_on_c, 1, 76, 127
2, 151800, Note_off_c, 1, 58, 0
2, 151800, Note_off_c, 1, 66, 0
2, 151800, Note_off_c, 1, 76, 0
2, 151840, Note_on_c, 1, 42, 127
2, 151840, Note_on_c, 1, 66, 127
2, 151840, Note_on_c, 1, 70, 127
2, 151920, Note_off_c, 1, 70, 0
2, 151960, Note_on_c, 1, 73, 127
2, 152040, Note_off_c, 1, 42, 0
2, 152040, Note_off_c, 1, 66, 0
2, 152040, Note_off_c, 1, 73, 0
2, 152080, Note_on_c, 1, 44, 127
2, 152080, Note_on_c, 1, 61, 127
2, 152080, Note_on_c, 1, 71, 127
2, 152200, Note_off_c, 1, 71, 0
2, 152240, Note_on_c, 1, 73, 127
2, 152320, Note_off_c, 1, 44, 0
2, 152320, Note_off_c, 1, 73, 0
2, 152360, Note_on_c, 1, 42, 127
2, 152360, Note_on_c, 1, 70, 127
2, 152480, Note_off_c, 1, 70, 0
2, 152520, Note_on_c, 1, 71, 127
2, 152600, Note_off_c, 1, 42, 0
2, 152600, Note_off_c, 1, 61, 0
2, 152600, Note_off_c, 1, 71, 0
2, 152640, Note_on_c, 1, 47, 127
2, 152640, Note_on_c, 1, 63, 127
2, 152640, Note_on_c, 1, 73, 127
2, 152760, Note_off_c, 1, 73, 0
2, 152800, Note_on_c, 1, 71, 127
2, 152880, Note_off_c, 1, 47, 0
2, 152880, Note_off_c, 1, 63, 0
2, 152880, Note_off_c, 1, 71, 0
2, 152920, Note_on_c, 1, 46, 127
2, 152920, Note_on_c, 1, 64, 127
2, 152920, Note_on_c, 1, 70, 127
2, 153040, Note_off_c, 1, 70, 0
2, 153080, Note_on_c, 1, 71, 127
2, 153160, Note_off_c, 1, 46, 0
2, 153160, Note_off_c, 1, 64, 0
2, 153160, Note_off_c, 1, 71, 0
2, 153200, Note_on_c, 1, 47, 127
2, 153200, Note_on_c, 1, 63, 127
2, 153200, Note_on_c, 1, 70, 127
2, 153280, Note_off_c, 1, 70, 0
2, 153360, Note_on_c, 1, 71, 127
2, 153440, Note_off_c, 1, 47, 0
2, 153440, Note_off_c, 1, 63, 0
2, 153440, Note_off_c, 1, 71, 0
2, 153480, Note_on_c, 1, 46, 127
2, 153480, Note_on_c, 1, 64, 127
2, 153480, Note_on_c, 1, 73, 127
2, 153560, Note_off_c, 1, 46, 0
2, 153600, Note_on_c, 1, 44, 127
2, 153720, Note_off_c, 1, 44, 0
2, 153720, Note_off_c, 1, 73, 0
2, 153760, Note_on_c, 1, 42, 127
2, 153760, Note_on_c, 1, 70, 127
2, 153840, Note_off_c, 1, 70, 0
2, 153880, Note_on_c, 1, 71, 127
2, 154000, Note_off_c, 1, 42, 0
2, 154000, Note_off_c, 1, 64, 0
2, 154000, Note_off_c, 1, 71, 0
2, 154040, Note_on_c, 1, 47, 127
2, 154040, Note_on_c, 1, 63, 127
2, 154040, Note_on_c, 1, 73, 127
2, 154120, Note_off_c, 1, 73, 0
2, 154160, Note_on_c, 1, 71, 127
2, 154280, Note_off_c, 1, 47, 0
2, 154280, Note_off_c, 1, 63, 0
2, 154280, Note_off_c, 1, 71, 0
2, 154320, Note_on_c, 1, 46, 127
2, 154320, Note_on_c, 1, 61, 127
2, 154320, Note_on_c, 1, 70, 127
2, 154400, Note_off_c, 1, 70, 0
2, 154440, Note_on_c, 1, 73, 127
2, 154520, Note_off_c, 1, 46, 0
2, 154520, Note_off_c, 1, 61, 0
2, 154520, Note_off_c, 1, 73, 0
2, 154560, Note_on_c, 1, 44, 127
2, 154560, Note_on_c, 1, 71, 127
2, 154720, Note_on_c, 1, 70, 127
2, 154800, Note_off_c, 1, 44, 0
2, 154800, Note_off_c, 1, 70, 0
2, 154840, Note_on_c, 1, 66, 127
2, 154960, Note_off_c, 1, 71, 0
2, 155000, Note_on_c, 1, 61, 127
2, 155000, Note_on_c, 1, 70, 127
2, 155080, Note_off_c, 1, 61, 0
2, 155080, Note_off_c, 1, 70, 0
2, 155120, Note_on_c, 1, 59, 127
2, 155120, Note_on_c, 1, 71, 127
2, 155240, Note_off_c, 1, 66, 0
2, 155280, Note_on_c, 1, 64, 127
2, 155360, Note_off_c, 1, 59, 0
2, 155360, Note_off_c, 1, 71, 0
2, 155400, Note_on_c, 1, 45, 127
2, 155400, Note_on_c, 1, 73, 127
2, 155520, Note_off_c, 1, 64, 0
2, 155560, Note_on_c, 1, 69, 127
2, 155640, Note_off_c, 1, 69, 0
2, 155720, Note_on_c, 1, 71, 127
2, 155800, Note_off_c, 1, 71, 0
2, 155840, Note_on_c, 1, 69, 127
2, 155960, Note_off_c, 1, 69, 0
2, 156000, Note_on_c, 1, 61, 127
2, 156080, Note_off_c, 1, 73, 0
2, 156120, Note_on_c, 1, 69, 127
2, 156240, Note_off_c, 1, 45, 0
2, 156240, Note_on_c, 1, 57, 127
2, 156240, Note_off_c, 1, 61, 0
2, 156240, Note_off_c, 1, 69, 0
2, 156280, Note_on_c, 1, 64, 127
2, 156400, Note_off_c, 1, 64, 0
2, 156440, Note_on_c, 1, 66, 127
2, 156520, Note_off_c, 1, 57, 0
2, 156520, Note_off_c, 1, 66, 0
2, 156560, Note_on_c, 1, 64, 127
2, 156720, Note_on_c, 1, 69, 127
2, 156800, Note_off_c, 1, 64, 0
2, 156800, Note_off_c, 1, 69, 0
2, 156840, Note_on_c, 1, 61, 127
2, 156840, Note_on_c, 1, 71, 127
2, 156960, Note_off_c, 1, 71, 0
2, 157000, Note_on_c, 1, 73, 127
2, 157080, Note_off_c, 1, 61, 0
2, 157080, Note_off_c, 1, 73, 0
2, 157120, Note_on_c, 1, 47, 127
2, 157120, Note_on_c, 1, 59, 127
2, 157120, Note_on_c, 1, 75, 127
2, 157240, Note_off_c, 1, 75, 0
2, 157280, Note_on_c, 1, 71, 127
2, 157360, Note_off_c, 1, 47, 0
2, 157360, Note_off_c, 1, 59, 0
2, 157360, Note_off_c, 1, 71, 0
2, 157400, Note_on_c, 1, 45, 127
2, 157400, Note_on_c, 1, 69, 127
2, 157560, Note_on_c, 1, 71, 127
2, 157640, Note_off_c, 1, 45, 0
2, 157640, Note_off_c, 1, 71, 0
2, 157680, Note_on_c, 1, 47, 127
2, 157680, Note_on_c, 1, 75, 127
2, 157800, Note_off_c, 1, 69, 0
2, 157840, Note_on_c, 1, 71, 127
2, 157880, Note_off_c, 1, 71, 0
2, 157960, Note_on_c, 1, 66, 127
2, 158040, Note_off_c, 1, 75, 0
2, 158120, Note_on_c, 1, 73, 127
2, 158200, Note_off_c, 1, 47, 0
2, 158200, Note_off_c, 1, 66, 0
2, 158200, Note_off_c, 1, 73, 0
2, 158240, Note_on_c, 1, 40, 127
2, 158240, Note_on_c, 1, 71, 127
2, 158400, Note_on_c, 1, 69, 127
2, 158480, Note_off_c, 1, 69, 0
2, 158480, Note_off_c, 1, 71, 0
2, 158520, Note_on_c, 1, 68, 127
2, 158640, Note_off_c, 1, 68, 0
2, 158680, Note_on_c, 1, 66, 127
2, 158760, Note_off_c, 1, 66, 0
2, 158800, Note_on_c, 1, 64, 127
2, 158920, Note_off_c, 1, 64, 0
2, 158960, Note_on_c, 1, 63, 127
2, 159040, Note_off_c, 1, 40, 0
2, 159040, Note_off_c, 1, 63, 0
2, 159080, Note_on_c, 1, 52, 127
2, 159080, Note_on_c, 1, 61, 127
2, 159200, Note_off_c, 1, 61, 0
2, 159240, Note_on_c, 1, 68, 127
2, 159320, Note_off_c, 1, 52, 0
2, 159320, Note_off_c, 1, 68, 0
2, 159360, Note_on_c, 1, 51, 127
2, 159360, Note_on_c, 1, 63, 127
2, 159480, Note_off_c, 1, 63, 0
2, 159520, Note_on_c, 1, 73, 127
2, 159600, Note_off_c, 1, 51, 0
2, 159600, Note_off_c, 1, 73, 0
2, 159640, Note_on_c, 1, 51, 127
2, 159640, Note_on_c, 1, 71, 127
2, 159760, Note_off_c, 1, 71, 0
2, 159800, Note_on_c, 1, 69, 127
2, 159880, Note_off_c, 1, 51, 0
2, 159880, Note_off_c, 1, 69, 0
2, 159920, Note_on_c, 1, 56, 127
2, 159920, Note_on_c, 1, 68, 127
2, 160000, Note_off_c, 1, 68, 0
2, 160080, Note_on_c, 1, 66, 127
2, 160160, Note_off_c, 1, 56, 0
2, 160160, Note_off_c, 1, 66, 0
2, 160200, Note_on_c, 1, 47, 127
2, 160200, Note_on_c, 1, 68, 127
2, 160320, Note_off_c, 1, 68, 0
2, 160360, Note_on_c, 1, 64, 127
2, 160440, Note_off_c, 1, 47, 0
2, 160440, Note_off_c, 1, 64, 0
2, 160480, Note_on_c, 1, 44, 127
2, 160480, Note_on_c, 1, 71, 127
2, 160600, Note_off_c, 1, 71, 0
2, 160640, Note_on_c, 1, 68, 127
2, 160720, Note_off_c, 1, 44, 0
2, 160720, Note_off_c, 1, 68, 0
2, 160760, Note_on_c, 1, 40, 127
2, 160760, Note_on_c, 1, 69, 127
2, 160880, Note_off_c, 1, 69, 0
2, 160920, Note_on_c, 1, 71, 127
2, 161000, Note_off_c, 1, 71, 0
2, 161080, Note_on_c, 1, 56, 127
2, 161080, Note_on_c, 1, 64, 127
2, 161160, Note_off_c, 1, 64, 0
2, 161200, Note_on_c, 1, 59, 127
2, 161320, Note_off_c, 1, 56, 0
2, 161320, Note_off_c, 1, 59, 0
2, 161360, Note_on_c, 1, 57, 127
2, 161360, Note_on_c, 1, 61, 127
2, 161440, Note_off_c, 1, 61, 0
2, 161480, Note_on_c, 1, 64, 127
2, 161560, Note_off_c, 1, 40, 0
2, 161560, Note_off_c, 1, 57, 0
2, 161560, Note_off_c, 1, 64, 0
2, 161600, Note_on_c, 1, 52, 127
2, 161600, Note_on_c, 1, 68, 127
2, 161720, Note_off_c, 1, 52, 0
2, 161720, Note_off_c, 1, 68, 0
2, 161760, Note_on_c, 1, 54, 127
2, 161760, Note_on_c, 1, 69, 127
2, 161840, Note_off_c, 1, 54, 0
2, 161840, Note_off_c, 1, 69, 0
2, 161880, Note_on_c, 1, 56, 127
2, 161880, Note_on_c, 1, 71, 127
2, 162000, Note_off_c, 1, 56, 0
2, 162000, Note_off_c, 1, 71, 0
2, 162040, Note_on_c, 1, 57, 127
2, 162040, Note_on_c, 1, 73, 127
2, 162120, Note_off_c, 1, 57, 0
2, 162120, Note_off_c, 1, 73, 0
2, 162160, Note_on_c, 1, 59, 127
2, 162160, Note_on_c, 1, 74, 127
2, 162280, Note_off_c, 1, 59, 0
2, 162280, Note_off_c, 1, 74, 0
2, 162320, Note_on_c, 1, 64, 127
2, 162320, Note_on_c, 1, 71, 127
2, 162400, Note_off_c, 1, 64, 0
2, 162400, Note_off_c, 1, 71, 0
2, 162440, Note_on_c, 1, 49, 127
2, 162440, Note_on_c, 1, 69, 127
2, 162560, Note_off_c, 1, 49, 0
2, 162600, Note_on_c, 1, 57, 127
2, 162680, Note_off_c, 1, 57, 0
2, 162680, Note_off_c, 1, 69, 0
2, 162760, Note_on_c, 1, 61, 127
2, 162760, Note_on_c, 1, 71, 127
2, 162840, Note_off_c, 1, 61, 0
2, 162880, Note_on_c, 1, 57, 127
2, 163000, Note_off_c, 1, 57, 0
2, 163000, Note_off_c, 1, 71, 0
2, 163040, Note_on_c, 1, 50, 127
2, 163040, Note_on_c, 1, 79, 127
2, 163120, Note_off_c, 1, 50, 0
2, 163120, Note_on_c, 1, 78, 127
2, 163120, Note_off_c, 1, 79, 0
2, 163160, Note_on_c, 1, 57, 127
2, 163280, Note_off_c, 1, 57, 0
2, 163280, Note_off_c, 1, 78, 0
2, 163320, Note_on_c, 1, 47, 127
2, 163320, Note_on_c, 1, 79, 127
2, 163400, Note_off_c, 1, 47, 0
2, 163440, Note_on_c, 1, 59, 127
2, 163560, Note_off_c, 1, 59, 0
2, 163600, Note_on_c, 1, 55, 127
2, 163680, Note_off_c, 1, 55, 0
2, 163720, Note_on_c, 1, 54, 127
2, 163840, Note_off_c, 1, 54, 0
2, 163840, Note_off_c, 1, 79, 0
2, 163880, Note_on_c, 1, 52, 127
2, 163880, Note_on_c, 1, 79, 127
2, 163960, Note_off_c, 1, 52, 0
2, 164000, Note_on_c, 1, 50, 127
2, 164120, Note_off_c, 1, 50, 0
2, 164120, Note_off_c, 1, 79, 0
2, 164160, Note_on_c, 1, 49, 127
2, 164160, Note_on_c, 1, 67, 127
2, 164240, Note_off_c, 1, 49, 0
2, 164280, Note_on_c, 1, 47, 127
2, 164400, Note_off_c, 1, 47, 0
2, 164400, Note_off_c, 1, 67, 0
2, 164440, Note_on_c, 1, 49, 127
2, 164440, Note_on_c, 1, 69, 127
2, 164520, Note_off_c, 1, 49, 0
2, 164560, Note_on_c, 1, 47, 127
2, 164680, Note_off_c, 1, 47, 0
2, 164680, Note_off_c, 1, 69, 0
2, 164720, Note_on_c, 1, 49, 127
2, 164720, Note_on_c, 1, 66, 127
2, 164800, Note_off_c, 1, 49, 0
2, 164840, Note_on_c, 1, 52, 127
2, 164960, Note_off_c, 1, 52, 0
2, 164960, Note_off_c, 1, 66, 0
2, 165000, Note_on_c, 1, 54, 127
2, 165000, Note_on_c, 1, 62, 127
2, 165080, Note_off_c, 1, 54, 0
2, 165120, Note_on_c, 1, 50, 127
2, 165240, Note_off_c, 1, 50, 0
2, 165240, Note_off_c, 1, 62, 0
2, 165280, Note_on_c, 1, 49, 127
2, 165280, Note_on_c, 1, 74, 127
2, 165360, Note_off_c, 1, 49, 0
2, 165400, Note_on_c, 1, 50, 127
2, 165520, Note_off_c, 1, 50, 0
2, 165520, Note_off_c, 1, 74, 0
2, 165560, Note_on_c, 1, 52, 127
2, 165560, Note_on_c, 1, 61, 127
2, 165560, Note_on_c, 1, 71, 127
2, 165640, Note_off_c, 1, 52, 0
2, 165640, Note_off_c, 1, 61, 0
2, 165680, Note_on_c, 1, 50, 127
2, 165680, Note_on_c, 1, 62, 127
2, 165800, Note_off_c, 1, 50, 0
2, 165800, Note_off_c, 1, 62, 0
2, 165840, Note_on_c, 1, 49, 127
2, 165840, Note_on_c, 1, 61, 127
2, 165920, Note_off_c, 1, 49, 0
2, 165960, Note_on_c, 1, 54, 127
2, 166080, Note_off_c, 1, 54, 0
2, 166080, Note_off_c, 1, 61, 0
2, 166080, Note_off_c, 1, 71, 0
2, 166120, Note_on_c, 1, 52, 127
2, 166120, Note_on_c, 1, 73, 127
2, 166200, Note_off_c, 1, 52, 0
2, 166240, Note_on_c, 1, 50, 127
2, 166360, Note_off_c, 1, 50, 0
2, 166400, Note_on_c, 1, 52, 127
2, 166400, Note_on_c, 1, 59, 127
2, 166480, Note_off_c, 1, 59, 0
2, 166520, Note_on_c, 1, 61, 127
2, 166640, Note_off_c, 1, 52, 0
2, 166640, Note_off_c, 1, 61, 0
2, 166680, Note_on_c, 1, 54, 127
2, 166680, Note_on_c, 1, 62, 127
2, 166760, Note_off_c, 1, 62, 0
2, 166800, Note_on_c, 1, 66, 127
2, 166920, Note_off_c, 1, 54, 0
2, 166920, Note_off_c, 1, 66, 0
2, 166960, Note_on_c, 1, 55, 127
2, 166960, Note_on_c, 1, 64, 127
2, 167040, Note_off_c, 1, 64, 0
2, 167080, Note_on_c, 1, 62, 127
2, 167200, Note_off_c, 1, 62, 0
2, 167240, Note_on_c, 1, 61, 127
2, 167320, Note_off_c, 1, 61, 0
2, 167360, Note_on_c, 1, 67, 127
2, 167480, Note_off_c, 1, 55, 0
2, 167480, Note_off_c, 1, 67, 0
2, 167520, Note_on_c, 1, 59, 127
2, 167520, Note_on_c, 1, 66, 127
2, 167600, Note_off_c, 1, 66, 0
2, 167640, Note_on_c, 1, 67, 127
2, 167760, Note_off_c, 1, 59, 0
2, 167760, Note_off_c, 1, 67, 0
2, 167760, Note_off_c, 1, 73, 0
2, 167800, Note_on_c, 1, 62, 127
2, 167800, Note_on_c, 1, 66, 127
2, 167880, Note_off_c, 1, 62, 0
2, 167880, Note_off_c, 1, 66, 0
2, 167920, Note_on_c, 1, 59, 127
2, 167920, Note_on_c, 1, 67, 127
2, 168040, Note_off_c, 1, 59, 0
2, 168040, Note_off_c, 1, 67, 0
2, 168080, Note_on_c, 1, 55, 127
2, 168080, Note_on_c, 1, 69, 127
2, 168200, Note_on_c, 1, 59, 127
2, 168320, Note_off_c, 1, 59, 0
2, 168320, Note_off_c, 1, 69, 0
2, 168360, Note_on_c, 1, 57, 127
2, 168360, Note_on_c, 1, 69, 127
2, 168440, Note_off_c, 1, 55, 0
2, 168440, Note_off_c, 1, 57, 0
2, 168440, Note_off_c, 1, 69, 0
2, 168480, Note_on_c, 1, 54, 127
2, 168480, Note_on_c, 1, 62, 127
2, 168480, Note_on_c, 1, 74, 127
2, 168600, Note_off_c, 1, 54, 0
2, 168600, Note_off_c, 1, 74, 0
2, 168640, Note_on_c, 1, 52, 127
2, 168640, Note_on_c, 1, 73, 127
2, 168720, Note_off_c, 1, 52, 0
2, 168720, Note_off_c, 1, 73, 0
2, 168760, Note_on_c, 1, 50, 127
2, 168760, Note_on_c, 1, 71, 127
2, 168880, Note_off_c, 1, 50, 0
2, 168880, Note_off_c, 1, 71, 0
2, 168920, Note_on_c, 1, 54, 127
2, 168920, Note_on_c, 1, 69, 127
2, 169000, Note_off_c, 1, 54, 0
2, 169000, Note_off_c, 1, 69, 0
2, 169040, Note_on_c, 1, 55, 127
2, 169040, Note_on_c, 1, 71, 127
2, 169160, Note_off_c, 1, 55, 0
2, 169160, Note_off_c, 1, 71, 0
2, 169200, Note_on_c, 1, 55, 127
2, 169200, Note_on_c, 1, 70, 127
2, 169280, Note_off_c, 1, 55, 0
2, 169280, Note_off_c, 1, 70, 0
2, 169320, Note_on_c, 1, 43, 127
2, 169320, Note_on_c, 1, 59, 127
2, 169320, Note_on_c, 1, 71, 127
2, 169440, Note_off_c, 1, 43, 0
2, 169440, Note_off_c, 1, 71, 0
2, 169480, Note_on_c, 1, 45, 127
2, 169480, Note_on_c, 1, 69, 127
2, 169560, Note_off_c, 1, 45, 0
2, 169560, Note_off_c, 1, 69, 0
2, 169600, Note_on_c, 1, 43, 127
2, 169600, Note_on_c, 1, 71, 127
2, 169720, Note_off_c, 1, 43, 0
2, 169720, Note_off_c, 1, 59, 0
2, 169720, Note_off_c, 1, 62, 0
2, 169720, Note_off_c, 1, 71, 0
2, 169760, Note_on_c, 1, 45, 127
2, 169760, Note_on_c, 1, 62, 127
2, 169840, Note_off_c, 1, 45, 0
2, 169840, Note_off_c, 1, 62, 0
2, 169880, Note_on_c, 1, 59, 127
2, 170000, Note_off_c, 1, 59, 0
2, 170040, Note_on_c, 1, 45, 127
2, 170040, Note_on_c, 1, 57, 127
2, 170040, Note_on_c, 1, 61, 127
2, 170160, Note_off_c, 1, 61, 0
2, 170200, Note_on_c, 1, 62, 127
2, 170280, Note_off_c, 1, 45, 0
2, 170280, Note_off_c, 1, 62, 0
2, 170320, Note_on_c, 1, 49, 127
2, 170320, Note_on_c, 1, 64, 127
2, 170400, Note_off_c, 1, 57, 0
2, 170440, Note_off_c, 1, 64, 0
2, 170480, Note_on_c, 1, 67, 127
2, 170560, Note_off_c, 1, 49, 0
2, 170560, Note_off_c, 1, 67, 0
2, 170600, Note_on_c, 1, 42, 127
2, 170600, Note_on_c, 1, 69, 127
2, 170760, Note_on_c, 1, 61, 127
2, 170840, Note_off_c, 1, 42, 0
2, 170840, Note_off_c, 1, 61, 0
2, 170880, Note_on_c, 1, 52, 127
2, 170880, Note_on_c, 1, 59, 127
2, 170960, Note_off_c, 1, 59, 0
2, 171000, Note_on_c, 1, 61, 127
2, 171120, Note_off_c, 1, 52, 0
2, 171120, Note_off_c, 1, 61, 0
2, 171120, Note_off_c, 1, 69, 0
2, 171160, Note_on_c, 1, 54, 127
2, 171160, Note_on_c, 1, 69, 127
2, 171280, Note_on_c, 1, 64, 127
2, 171400, Note_off_c, 1, 64, 0
2, 171400, Note_off_c, 1, 69, 0
2, 171440, Note_on_c, 1, 67, 127
2, 171440, Note_on_c, 1, 71, 127
2, 171520, Note_off_c, 1, 67, 0
2, 171560, Note_on_c, 1, 66, 127
2, 171680, Note_off_c, 1, 54, 0
2, 171680, Note_off_c, 1, 66, 0
2, 171720, Note_on_c, 1, 50, 127
2, 171720, Note_on_c, 1, 64, 127
2, 171800, Note_off_c, 1, 64, 0
2, 171840, Note_on_c, 1, 66, 127
2, 171960, Note_off_c, 1, 66, 0
2, 171960, Note_off_c, 1, 71, 0
2, 172000, Note_on_c, 1, 64, 127
2, 172000, Note_on_c, 1, 74, 127
2, 172080, Note_off_c, 1, 50, 0
2, 172080, Note_off_c, 1, 64, 0
2, 172080, Note_off_c, 1, 74, 0
2, 172120, Note_on_c, 1, 48, 127
2, 172120, Note_on_c, 1, 72, 127
2, 172240, Note_off_c, 1, 48, 0
2, 172240, Note_off_c, 1, 72, 0
2, 172280, Note_on_c, 1, 50, 127
2, 172280, Note_on_c, 1, 71, 127
2, 172400, Note_on_c, 1, 57, 127
2, 172400, Note_on_c, 1, 67, 127
2, 172480, Note_off_c, 1, 50, 0
2, 172520, Note_off_c, 1, 57, 0
2, 172520, Note_off_c, 1, 67, 0
2, 172560, Note_on_c, 1, 52, 127
2, 172560, Note_on_c, 1, 67, 127
2, 172640, Note_off_c, 1, 67, 0
2, 172680, Note_on_c, 1, 62, 127
2, 172800, Note_off_c, 1, 52, 0
2, 172800, Note_off_c, 1, 62, 0
2, 172840, Note_on_c, 1, 57, 127
2, 172840, Note_on_c, 1, 64, 127
2, 172960, Note_off_c, 1, 71, 0
2, 173000, Note_on_c, 1, 69, 127
2, 173080, Note_off_c, 1, 64, 0
2, 173080, Note_off_c, 1, 69, 0
2, 173120, Note_on_c, 1, 45, 127
2, 173120, Note_on_c, 1, 60, 127
2, 173120, Note_on_c, 1, 74, 127
2, 173200, Note_off_c, 1, 74, 0
2, 173240, Note_on_c, 1, 72, 127
2, 173360, Note_off_c, 1, 45, 0
2, 173360, Note_off_c, 1, 60, 0
2, 173360, Note_off_c, 1, 72, 0
2, 173400, Note_on_c, 1, 43, 127
2, 173400, Note_on_c, 1, 71, 127
2, 173480, Note_off_c, 1, 71, 0
2, 173520, Note_on_c, 1, 69, 127
2, 173640, Note_off_c, 1, 43, 0
2, 173640, Note_on_c, 1, 48, 127
2, 173640, Note_off_c, 1, 57, 0
2, 173640, Note_off_c, 1, 69, 0
2, 173680, Note_on_c, 1, 43, 127
2, 173680, Note_off_c, 1, 48, 0
2, 173680, Note_on_c, 1, 55, 127
2, 173680, Note_on_c, 1, 67, 127
2, 173760, Note_off_c, 1, 67, 0
2, 173800, Note_on_c, 1, 71, 127
2, 173920, Note_off_c, 1, 43, 0
2, 173920, Note_off_c, 1, 55, 0
2, 173920, Note_off_c, 1, 71, 0
2, 173960, Note_on_c, 1, 48, 127
2, 173960, Note_on_c, 1, 64, 127
2, 173960, Note_on_c, 1, 69, 127
2, 174040, Note_off_c, 1, 69, 0
2, 174080, Note_on_c, 1, 71, 127
2, 174200, Note_off_c, 1, 48, 0
2, 174200, Note_off_c, 1, 71, 0
2, 174240, Note_on_c, 1, 50, 127
2, 174240, Note_on_c, 1, 72, 127
2, 174320, Note_off_c, 1, 72, 0
2, 174360, Note_on_c, 1, 71, 127
2, 174480, Note_off_c, 1, 50, 0
2, 174480, Note_off_c, 1, 64, 0
2, 174480, Note_off_c, 1, 71, 0
2, 174520, Note_on_c, 1, 48, 127
2, 174520, Note_on_c, 1, 60, 127
2, 174520, Note_on_c, 1, 64, 127
2, 174600, Note_off_c, 1, 64, 0
2, 174680, Note_on_c, 1, 71, 127
2, 174760, Note_off_c, 1, 71, 0
2, 174800, Note_on_c, 1, 79, 127
2, 174880, Note_off_c, 1, 60, 0
2, 174920, Note_on_c, 1, 64, 127
2, 174960, Note_off_c, 1, 64, 0
2, 174960, Note_off_c, 1, 79, 0
2, 175000, Note_on_c, 1, 64, 127
2, 175000, Note_on_c, 1, 79, 127
2, 175040, Note_off_c, 1, 48, 0
2, 175040, Note_off_c, 1, 64, 0
2, 175080, Note_on_c, 1, 64, 127
2, 175160, Note_off_c, 1, 64, 0
2, 175200, Note_on_c, 1, 62, 127
2, 175200, Note_on_c, 1, 69, 127
2, 175280, Note_off_c, 1, 62, 0
2, 175280, Note_off_c, 1, 69, 0
2, 175360, Note_on_c, 1, 60, 127
2, 175360, Note_on_c, 1, 67, 127
2, 175440, Note_off_c, 1, 60, 0
2, 175440, Note_off_c, 1, 67, 0
2, 175440, Note_off_c, 1, 79, 0
2, 175480, Note_on_c, 1, 62, 127
2, 175480, Note_on_c, 1, 71, 127
2, 175560, Note_off_c, 1, 62, 0
2, 175560, Note_off_c, 1, 71, 0
2, 175600, Note_on_c, 1, 60, 127
2, 175600, Note_on_c, 1, 76, 127
2, 175720, Note_off_c, 1, 60, 0
2, 175720, Note_off_c, 1, 76, 0
2, 175760, Note_on_c, 1, 59, 127
2, 175760, Note_on_c, 1, 74, 127
2, 175840, Note_off_c, 1, 59, 0
2, 175840, Note_off_c, 1, 74, 0
2, 175880, Note_on_c, 1, 52, 127
2, 175880, Note_on_c, 1, 67, 127
2, 176000, Note_off_c, 1, 52, 0
2, 176000, Note_off_c, 1, 67, 0
2, 176040, Note_on_c, 1, 50, 127
2, 176040, Note_on_c, 1, 64, 127
2, 176120, Note_off_c, 1, 50, 0
2, 176120, Note_off_c, 1, 64, 0
2, 176160, Note_on_c, 1, 48, 127
2, 176160, Note_on_c, 1, 69, 127
2, 176280, Note_off_c, 1, 48, 0
2, 176280, Note_off_c, 1, 69, 0
2, 176320, Note_on_c, 1, 47, 127
2, 176320, Note_on_c, 1, 69, 127
2, 176400, Note_off_c, 1, 47, 0
2, 176400, Note_off_c, 1, 69, 0
2, 176440, Note_on_c, 1, 45, 127
2, 176440, Note_on_c, 1, 62, 127
2, 176560, Note_off_c, 1, 45, 0
2, 176560, Note_off_c, 1, 62, 0
2, 176600, Note_on_c, 1, 43, 127
2, 176600, Note_on_c, 1, 67, 127
2, 176680, Note_off_c, 1, 43, 0
2, 176680, Note_off_c, 1, 67, 0
2, 176720, Note_on_c, 1, 42, 127
2, 176720, Note_on_c, 1, 69, 127
2, 176840, Note_off_c, 1, 42, 0
2, 176840, Note_off_c, 1, 69, 0
2, 176880, Note_on_c, 1, 43, 127
2, 176880, Note_on_c, 1, 59, 127
2, 176960, Note_off_c, 1, 59, 0
2, 177000, Note_on_c, 1, 57, 127
2, 177120, Note_off_c, 1, 43, 0
2, 177120, Note_off_c, 1, 57, 0
2, 177160, Note_on_c, 1, 60, 127
2, 177240, Note_off_c, 1, 60, 0
2, 177280, Note_on_c, 1, 59, 127
2, 177360, Note_off_c, 1, 59, 0
2, 177440, Note_on_c, 1, 57, 127
2, 177520, Note_off_c, 1, 57, 0
2, 177560, Note_on_c, 1, 55, 127
2, 177640, Note_off_c, 1, 55, 0
2, 177720, Note_on_c, 1, 59, 127
2, 177800, Note_off_c, 1, 59, 0
2, 177840, Note_on_c, 1, 48, 127
2, 177960, Note_on_c, 1, 67, 127
2, 178080, Note_off_c, 1, 67, 0
2, 178120, Note_on_c, 1, 69, 127
2, 178200, Note_off_c, 1, 69, 0
2, 178240, Note_on_c, 1, 67, 127
2, 178360, Note_off_c, 1, 67, 0
2, 178400, Note_on_c, 1, 64, 127
2, 178480, Note_off_c, 1, 48, 0
2, 178480, Note_off_c, 1, 64, 0
2, 178520, Note_on_c, 1, 50, 127
2, 178520, Note_on_c, 1, 67, 127
2, 178640, Note_off_c, 1, 67, 0
2, 178680, Note_on_c, 1, 64, 127
2, 178760, Note_off_c, 1, 50, 0
2, 178760, Note_off_c, 1, 64, 0
2, 178800, Note_on_c, 1, 55, 127
2, 178800, Note_on_c, 1, 64, 127
2, 178920, Note_off_c, 1, 64, 0
2, 178960, Note_on_c, 1, 60, 127
2, 179040, Note_off_c, 1, 55, 0
2, 179040, Note_off_c, 1, 60, 0
2, 179080, Note_on_c, 1, 57, 127
2, 179080, Note_on_c, 1, 65, 127
2, 179200, Note_off_c, 1, 57, 0
2, 179200, Note_off_c, 1, 65, 0
2, 179240, Note_on_c, 1, 53, 127
2, 179240, Note_on_c, 1, 64, 127
2, 179320, Note_off_c, 1, 53, 0
2, 179320, Note_off_c, 1, 64, 0
2, 179360, Note_on_c, 1, 55, 127
2, 179360, Note_on_c, 1, 59, 127
2, 179440, Note_off_c, 1, 59, 0
2, 179480, Note_on_c, 1, 57, 127
2, 179600, Note_off_c, 1, 55, 0
2, 179600, Note_off_c, 1, 57, 0
2, 179640, Note_on_c, 1, 53, 127
2, 179640, Note_on_c, 1, 59, 127
2, 179720, Note_off_c, 1, 53, 0
2, 179720, Note_off_c, 1, 59, 0
2, 179760, Note_on_c, 1, 52, 127
2, 179760, Note_on_c, 1, 60, 127
2, 179880, Note_off_c, 1, 52, 0
2, 179880, Note_off_c, 1, 60, 0
2, 179920, Note_on_c, 1, 50, 127
2, 179920, Note_on_c, 1, 59, 127
2, 180000, Note_off_c, 1, 50, 0
2, 180000, Note_off_c, 1, 59, 0
2, 180040, Note_on_c, 1, 52, 127
2, 180040, Note_on_c, 1, 60, 127
2, 180120, Note_off_c, 1, 52, 0
2, 180120, Note_off_c, 1, 60, 0
2, 180200, Note_on_c, 1, 53, 127
2, 180200, Note_on_c, 1, 62, 127
2, 180280, Note_off_c, 1, 53, 0
2, 180280, Note_off_c, 1, 62, 0
2, 180320, Note_on_c, 1, 52, 127
2, 180320, Note_on_c, 1, 60, 127
2, 180400, Note_off_c, 1, 52, 0
2, 180400, Note_off_c, 1, 60, 0
2, 180440, Note_on_c, 1, 47, 127
2, 180440, Note_on_c, 1, 62, 127
2, 180560, Note_off_c, 1, 47, 0
2, 180560, Note_off_c, 1, 62, 0
2, 180600, Note_on_c, 1, 49, 127
2, 180600, Note_on_c, 1, 57, 127
2, 180680, Note_off_c, 1, 57, 0
2, 180720, Note_on_c, 1, 59, 127
2, 180840, Note_off_c, 1, 59, 0
2, 180880, Note_on_c, 1, 64, 127
2, 180960, Note_off_c, 1, 49, 0
2, 180960, Note_off_c, 1, 64, 0
2, 181000, Note_on_c, 1, 45, 127
2, 181000, Note_on_c, 1, 62, 127
2, 181120, Note_off_c, 1, 62, 0
2, 181160, Note_on_c, 1, 57, 127
2, 181240, Note_off_c, 1, 45, 0
2, 181240, Note_off_c, 1, 57, 0
2, 181280, Note_on_c, 1, 57, 127
2, 181280, Note_on_c, 1, 67, 127
2, 181440, Note_on_c, 1, 69, 127
2, 181520, Note_off_c, 1, 67, 0
2, 181520, Note_off_c, 1, 69, 0
2, 181560, Note_on_c, 1, 61, 127
2, 181560, Note_on_c, 1, 76, 127
2, 181680, Note_off_c, 1, 61, 0
2, 181680, Note_off_c, 1, 76, 0
2, 181720, Note_on_c, 1, 71, 127
2, 181800, Note_off_c, 1, 57, 0
2, 181800, Note_off_c, 1, 71, 0
2, 181840, Note_on_c, 1, 45, 127
2, 181840, Note_on_c, 1, 61, 127
2, 181840, Note_on_c, 1, 76, 127
2, 181920, Note_off_c, 1, 76, 0
2, 181960, Note_on_c, 1, 74, 127
2, 182080, Note_off_c, 1, 61, 0
2, 182080, Note_off_c, 1, 74, 0
2, 182120, Note_on_c, 1, 64, 127
2, 182120, Note_on_c, 1, 73, 127
2, 182200, Note_off_c, 1, 73, 0
2, 182280, Note_on_c, 1, 73, 127
2, 182360, Note_off_c, 1, 45, 0
2, 182360, Note_off_c, 1, 64, 0
2, 182360, Note_off_c, 1, 73, 0
2, 182400, Note_on_c, 1, 62, 127
2, 182400, Note_on_c, 1, 81, 127
2, 182480, Note_off_c, 1, 81, 0
2, 182520, Note_on_c, 1, 72, 127
2, 182640, Note_off_c, 1, 72, 0
2, 182680, Note_on_c, 1, 71, 127
2, 182760, Note_off_c, 1, 71, 0
2, 182800, Note_on_c, 1, 74, 127
2, 182880, Note_off_c, 1, 62, 0
2, 182880, Note_off_c, 1, 74, 0
2, 182920, Note_on_c, 1, 52, 127
2, 182920, Note_on_c, 1, 71, 127
2, 183040, Note_off_c, 1, 71, 0
2, 183080, Note_on_c, 1, 74, 127
2, 183160, Note_off_c, 1, 52, 0
2, 183160, Note_off_c, 1, 74, 0
2, 183200, Note_on_c, 1, 49, 127
2, 183200, Note_on_c, 1, 69, 127
2, 183360, Note_on_c, 1, 79, 127
2, 183440, Note_off_c, 1, 49, 0
2, 183440, Note_off_c, 1, 79, 0
2, 183480, Note_on_c, 1, 47, 127
2, 183480, Note_on_c, 1, 76, 127
2, 183560, Note_off_c, 1, 76, 0
2, 183640, Note_on_c, 1, 74, 127
2, 183720, Note_off_c, 1, 47, 0
2, 183720, Note_off_c, 1, 69, 0
2, 183720, Note_off_c, 1, 74, 0
2, 183760, Note_on_c, 1, 44, 127
2, 183760, Note_on_c, 1, 71, 127
2, 183880, Note_off_c, 1, 71, 0
2, 183920, Note_on_c, 1, 74, 127
2, 184000, Note_off_c, 1, 44, 0
2, 184000, Note_off_c, 1, 74, 0
2, 184040, Note_on_c, 1, 47, 127
2, 184040, Note_on_c, 1, 71, 127
2, 184160, Note_off_c, 1, 71, 0
2, 184200, Note_on_c, 1, 81, 127
2, 184280, Note_off_c, 1, 47, 0
2, 184280, Note_off_c, 1, 81, 0
2, 184320, Note_on_c, 1, 49, 127
2, 184320, Note_on_c, 1, 76, 127
2, 184440, Note_off_c, 1, 76, 0
2, 184480, Note_on_c, 1, 81, 127
2, 184560, Note_off_c, 1, 49, 0
2, 184560, Note_off_c, 1, 81, 0
2, 184600, Note_on_c, 1, 45, 127
2, 184600, Note_on_c, 1, 83, 127
2, 184680, Note_off_c, 1, 83, 0
2, 184760, Note_on_c, 1, 81, 127
2, 184840, Note_off_c, 1, 45, 0
2, 184840, Note_off_c, 1, 81, 0
2, 184880, Note_on_c, 1, 47, 127
2, 184880, Note_on_c, 1, 80, 127
2, 185000, Note_off_c, 1, 80, 0
2, 185040, Note_on_c, 1, 76, 127
2, 185120, Note_off_c, 1, 47, 0
2, 185120, Note_off_c, 1, 76, 0
2, 185160, Note_on_c, 1, 50, 127
2, 185160, Note_on_c, 1, 74, 127
2, 185240, Note_off_c, 1, 50, 0
2, 185280, Note_on_c, 1, 52, 127
2, 185400, Note_off_c, 1, 52, 0
2, 185440, Note_on_c, 1, 47, 127
2, 185520, Note_off_c, 1, 47, 0
2, 185560, Note_on_c, 1, 50, 127
2, 185680, Note_off_c, 1, 50, 0
2, 185720, Note_on_c, 1, 51, 127
2, 185800, Note_off_c, 1, 51, 0
2, 185840, Note_on_c, 1, 50, 127
2, 185960, Note_off_c, 1, 50, 0
2, 186000, Note_on_c, 1, 40, 127
2, 186000, Note_on_c, 1, 68, 127
2, 186000, Note_off_c, 1, 74, 0
2, 186080, Note_off_c, 1, 40, 0
2, 186120, Note_on_c, 1, 47, 127
2, 186200, Note_off_c, 1, 47, 0
2, 186280, Note_on_c, 1, 45, 127
2, 186360, Note_off_c, 1, 68, 0
2, 186400, Note_on_c, 1, 64, 127
2, 186520, Note_off_c, 1, 45, 0
2, 186520, Note_off_c, 1, 64, 0
2, 186560, Note_on_c, 1, 35, 127
2, 186560, Note_on_c, 1, 62, 127
2, 186640, Note_off_c, 1, 62, 0
2, 186680, Note_on_c, 1, 67, 127
2, 186760, Note_off_c, 1, 35, 0
2, 186760, Note_off_c, 1, 67, 0
2, 186800, Note_on_c, 1, 38, 127
2, 186960, Note_on_c, 1, 66, 127
2, 187040, Note_off_c, 1, 38, 0
2, 187040, Note_off_c, 1, 66, 0
2, 187080, Note_on_c, 1, 40, 127
2, 187080, Note_on_c, 1, 64, 127
2, 187160, Note_off_c, 1, 64, 0
2, 187200, Note_on_c, 1, 68, 127
2, 187320, Note_off_c, 1, 40, 0
2, 187320, Note_off_c, 1, 68, 0
2, 187360, Note_on_c, 1, 42, 127
2, 187360, Note_on_c, 1, 69, 127
2, 187440, Note_off_c, 1, 69, 0
2, 187480, Note_on_c, 1, 62, 127
2, 187560, Note_off_c, 1, 42, 0
2, 187560, Note_off_c, 1, 62, 0
2, 187640, Note_on_c, 1, 49, 127
2, 187640, Note_on_c, 1, 64, 127
2, 187720, Note_off_c, 1, 64, 0
2, 187760, Note_on_c, 1, 63, 127
2, 187840, Note_off_c, 1, 49, 0
2, 187840, Note_off_c, 1, 63, 0
2, 187880, Note_on_c, 1, 52, 127
2, 187880, Note_on_c, 1, 61, 127
2, 188000, Note_off_c, 1, 61, 0
2, 188040, Note_on_c, 1, 60, 127
2, 188120, Note_off_c, 1, 52, 0
2, 188120, Note_off_c, 1, 60, 0
2, 188160, Note_on_c, 1, 48, 127
2, 188160, Note_on_c, 1, 62, 127
2, 188240, Note_off_c, 1, 48, 0
2, 188320, Note_on_c, 1, 50, 127
2, 188400, Note_off_c, 1, 50, 0
2, 188400, Note_off_c, 1, 62, 0
2, 188440, Note_on_c, 1, 42, 127
2, 188440, Note_on_c, 1, 59, 127
2, 188520, Note_off_c, 1, 59, 0
2, 188560, Note_on_c, 1, 52, 127
2, 188640, Note_off_c, 1, 52, 0
2, 188680, Note_on_c, 1, 52, 127
2, 188760, Note_off_c, 1, 52, 0
2, 188800, Note_on_c, 1, 40, 127
2, 188800, Note_off_c, 1, 42, 0
2, 188800, Note_on_c, 1, 52, 127
2, 188920, Note_off_c, 1, 40, 0
2, 188920, Note_off_c, 1, 52, 0
2, 188960, Note_on_c, 1, 45, 127
2, 188960, Note_on_c, 1, 61, 127
2, 189040, Note_off_c, 1, 45, 0
2, 189080, Note_on_c, 1, 45, 127
2, 189160, Note_off_c, 1, 45, 0
2, 189160, Note_off_c, 1, 61, 0
2, 189200, Note_on_c, 1, 46, 127
2, 189200, Note_on_c, 1, 64, 127
2, 189320, Note_off_c, 1, 46, 0
2, 189360, Note_on_c, 1, 47, 127
2, 189440, Note_off_c, 1, 47, 0
2, 189440, Note_off_c, 1, 64, 0
2, 189480, Note_on_c, 1, 49, 127
2, 189480, Note_on_c, 1, 69, 127
2, 189560, Note_off_c, 1, 49, 0
2, 189560, Note_off_c, 1, 69, 0
2, 189600, Note_on_c, 1, 45, 127
2, 189600, Note_on_c, 1, 73, 127
2, 189720, Note_off_c, 1, 45, 0
2, 189720, Note_off_c, 1, 73, 0
2, 189760, Note_on_c, 1, 35, 127
2, 189760, Note_on_c, 1, 74, 127
2, 189840, Note_off_c, 1, 35, 0
2, 189840, Note_on_c, 1, 54, 127
2, 189880, Note_on_c, 1, 44, 127
2, 189880, Note_off_c, 1, 54, 0
2, 189880, Note_on_c, 1, 59, 127
2, 189960, Note_off_c, 1, 44, 0
2, 189960, Note_off_c, 1, 74, 0
2, 190000, Note_on_c, 1, 45, 127
2, 190000, Note_on_c, 1, 74, 127
2, 190120, Note_off_c, 1, 45, 0
2, 190120, Note_off_c, 1, 59, 0
2, 190120, Note_off_c, 1, 74, 0
2, 190160, Note_on_c, 1, 42, 127
2, 190160, Note_on_c, 1, 60, 127
2, 190160, Note_on_c, 1, 69, 127
2, 190240, Note_off_c, 1, 42, 0
2, 190240, Note_off_c, 1, 60, 0
2, 190240, Note_off_c, 1, 69, 0
2, 190280, Note_on_c, 1, 40, 127
2, 190280, Note_on_c, 1, 59, 127
2, 190280, Note_on_c, 1, 68, 127
2, 190400, Note_off_c, 1, 68, 0
2, 190440, Note_on_c, 1, 69, 127
2, 190520, Note_off_c, 1, 40, 0
2, 190520, Note_off_c, 1, 59, 0
2, 190520, Note_off_c, 1, 69, 0
2, 190560, Note_on_c, 1, 52, 127
2, 190560, Note_on_c, 1, 59, 127
2, 190560, Note_on_c, 1, 72, 127
2, 190640, Note_off_c, 1, 59, 0
2, 190640, Note_off_c, 1, 72, 0
2, 190680, Note_on_c, 1, 68, 127
2, 190800, Note_off_c, 1, 52, 0
2, 190800, Note_off_c, 1, 68, 0
2, 190840, Note_on_c, 1, 54, 127
2, 190840, Note_on_c, 1, 72, 127
2, 190960, Note_on_c, 1, 71, 127
2, 191040, Note_off_c, 1, 71, 0
2, 191080, Note_off_c, 1, 54, 0
2, 191080, Note_off_c, 1, 72, 0
2, 191120, Note_on_c, 1, 57, 127
2, 191120, Note_on_c, 1, 69, 127
2, 191200, Note_off_c, 1, 69, 0
2, 191240, Note_on_c, 1, 68, 127
2, 191320, Note_off_c, 1, 57, 0
2, 191320, Note_off_c, 1, 68, 0
2, 191400, Note_on_c, 1, 65, 127
2, 191400, Note_on_c, 1, 81, 127
2, 191480, Note_off_c, 1, 65, 0
2, 191520, Note_on_c, 1, 69, 127
2, 191600, Note_off_c, 1, 69, 0
2, 191600, Note_off_c, 1, 81, 0
2, 191640, Note_on_c, 1, 48, 127
2, 191640, Note_on_c, 1, 64, 127
2, 191760, Note_off_c, 1, 48, 0
2, 191800, Note_on_c, 1, 52, 127
2, 191880, Note_off_c, 1, 52, 0
2, 191880, Note_off_c, 1, 64, 0
2, 191920, Note_on_c, 1, 54, 127
2, 191920, Note_on_c, 1, 63, 127
2, 192000, Note_off_c, 1, 63, 0
2, 192080, Note_on_c, 1, 61, 127
2, 192160, Note_off_c, 1, 54, 0
2, 192160, Note_off_c, 1, 61, 0
2, 192200, Note_on_c, 1, 54, 127
2, 192200, Note_on_c, 1, 60, 127
2, 192280, Note_off_c, 1, 60, 0
2, 192320, Note_on_c, 1, 56, 127
2, 192440, Note_off_c, 1, 54, 0
2, 192440, Note_off_c, 1, 56, 0
2, 192480, Note_on_c, 1, 53, 127
2, 192480, Note_on_c, 1, 63, 127
2, 192560, Note_off_c, 1, 63, 0
2, 192600, Note_on_c, 1, 68, 127
2, 192720, Note_off_c, 1, 53, 0
2, 192720, Note_off_c, 1, 68, 0
2, 192760, Note_on_c, 1, 44, 127
2, 192760, Note_on_c, 1, 72, 127
2, 192840, Note_off_c, 1, 72, 0
2, 192880, Note_on_c, 1, 73, 127
2, 193000, Note_off_c, 1, 44, 0
2, 193000, Note_off_c, 1, 73, 0
2, 193040, Note_on_c, 1, 56, 127
2, 193040, Note_on_c, 1, 64, 127
2, 193120, Note_off_c, 1, 64, 0
2, 193160, Note_on_c, 1, 68, 127
2, 193280, Note_off_c, 1, 56, 0
2, 193280, Note_off_c, 1, 68, 0
2, 193320, Note_on_c, 1, 52, 127
2, 193320, Note_on_c, 1, 60, 127
2, 193400, Note_off_c, 1, 60, 0
2, 193440, Note_on_c, 1, 60, 127
2, 193520, Note_off_c, 1, 52, 0
2, 193520, Note_off_c, 1, 60, 0
2, 193600, Note_on_c, 1, 56, 127
2, 193600, Note_on_c, 1, 72, 127
2, 193680, Note_off_c, 1, 72, 0
2, 193720, Note_on_c, 1, 64, 127
2, 193840, Note_off_c, 1, 56, 0
2, 193840, Note_off_c, 1, 64, 0
2, 193880, Note_on_c, 1, 54, 127
2, 193880, Note_on_c, 1, 63, 127
2, 193960, Note_off_c, 1, 63, 0
2, 194000, Note_on_c, 1, 63, 127
2, 194080, Note_off_c, 1, 54, 0
2, 194080, Note_off_c, 1, 63, 0
2, 194160, Note_on_c, 1, 56, 127
2, 194160, Note_on_c, 1, 64, 127
2, 194240, Note_off_c, 1, 64, 0
2, 194280, Note_on_c, 1, 68, 127
2, 194360, Note_off_c, 1, 56, 0
2, 194360, Note_off_c, 1, 68, 0
2, 194400, Note_on_c, 1, 52, 127
2, 194400, Note_on_c, 1, 62, 127
2, 194520, Note_off_c, 1, 62, 0
2, 194560, Note_on_c, 1, 68, 127
2, 194640, Note_off_c, 1, 52, 0
2, 194640, Note_off_c, 1, 68, 0
2, 194680, Note_on_c, 1, 56, 127
2, 194680, Note_on_c, 1, 64, 127
2, 194760, Note_off_c, 1, 64, 0
2, 194840, Note_on_c, 1, 72, 127
2, 194920, Note_off_c, 1, 56, 0
2, 194920, Note_off_c, 1, 72, 0
2, 194960, Note_on_c, 1, 49, 127
2, 194960, Note_on_c, 1, 56, 127
2, 194960, Note_on_c, 1, 76, 127
2, 195040, Note_off_c, 1, 76, 0
2, 195080, Note_on_c, 1, 80, 127
2, 195160, Note_off_c, 1, 49, 0
2, 195160, Note_off_c, 1, 56, 0
2, 195160, Note_off_c, 1, 80, 0
2, 195200, Note_on_c, 1, 53, 127
2, 195200, Note_on_c, 1, 57, 127
2, 195200, Note_on_c, 1, 72, 127
2, 195280, Note_off_c, 1, 72, 0
2, 195360, Note_on_c, 1, 75, 127
2, 195440, Note_off_c, 1, 53, 0
2, 195440, Note_off_c, 1, 75, 0
2, 195480, Note_on_c, 1, 52, 127
2, 195480, Note_on_c, 1, 73, 127
2, 195560, Note_off_c, 1, 57, 0
2, 195600, Note_on_c, 1, 71, 127
2, 195720, Note_off_c, 1, 52, 0
2, 195720, Note_off_c, 1, 71, 0
2, 195720, Note_off_c, 1, 73, 0
2, 195760, Note_on_c, 1, 54, 127
2, 195760, Note_on_c, 1, 69, 127
2, 195840, Note_off_c, 1, 69, 0
2, 195880, Note_on_c, 1, 68, 127
2, 196000, Note_off_c, 1, 54, 0
2, 196000, Note_off_c, 1, 68, 0
2, 196040, Note_on_c, 1, 47, 127
2, 196040, Note_on_c, 1, 54, 127
2, 196040, Note_on_c, 1, 73, 127
2, 196120, Note_off_c, 1, 73, 0
2, 196160, Note_on_c, 1, 71, 127
2, 196280, Note_off_c, 1, 47, 0
2, 196280, Note_off_c, 1, 54, 0
2, 196280, Note_off_c, 1, 71, 0
2, 196320, Note_on_c, 1, 52, 127
2, 196320, Note_on_c, 1, 56, 127
2, 196320, Note_on_c, 1, 68, 127
2, 196400, Note_off_c, 1, 68, 0
2, 196440, Note_on_c, 1, 71, 127
2, 196520, Note_off_c, 1, 71, 0
2, 196600, Note_on_c, 1, 68, 127
2, 196680, Note_off_c, 1, 56, 0
2, 196680, Note_off_c, 1, 68, 0
2, 196720, Note_on_c, 1, 71, 127
2, 196800, Note_off_c, 1, 52, 0
2, 196800, Note_off_c, 1, 71, 0
2, 196840, Note_on_c, 1, 54, 127
2, 196840, Note_on_c, 1, 69, 127
2, 196960, Note_off_c, 1, 54, 0
2, 197000, Note_on_c, 1, 51, 127
2, 197080, Note_off_c, 1, 51, 0
2, 197080, Note_off_c, 1, 69, 0
2, 197120, Note_on_c, 1, 52, 127
2, 197120, Note_on_c, 1, 61, 127
2, 197120, Note_on_c, 1, 68, 127
2, 197200, Note_off_c, 1, 61, 0
2, 197280, Note_on_c, 1, 59, 127
2, 197360, Note_off_c, 1, 59, 0
2, 197360, Note_off_c, 1, 68, 0
2, 197400, Note_on_c, 1, 64, 127
2, 197400, Note_on_c, 1, 71, 127
2, 197480, Note_off_c, 1, 52, 0
2, 197520, Note_on_c, 1, 49, 127
2, 197640, Note_off_c, 1, 49, 0
2, 197640, Note_off_c, 1, 64, 0
2, 197640, Note_off_c, 1, 71, 0
2, 197680, Note_on_c, 1, 51, 127
2, 197680, Note_on_c, 1, 66, 127
2, 197760, Note_off_c, 1, 51, 0
2, 197760, Note_off_c, 1, 66, 0
2, 197800, Note_on_c, 1, 45, 127
2, 197800, Note_on_c, 1, 64, 127
2, 197920, Note_off_c, 1, 45, 0
2, 197920, Note_off_c, 1, 64, 0
2, 197960, Note_on_c, 1, 47, 127
2, 197960, Note_on_c, 1, 63, 127
2, 198040, Note_off_c, 1, 47, 0
2, 198040, Note_off_c, 1, 63, 0
2, 198080, Note_on_c, 1, 49, 127
2, 198080, Note_on_c, 1, 61, 127
2, 198160, Note_off_c, 1, 49, 0
2, 198160, Note_off_c, 1, 61, 0
2, 198200, Note_on_c, 1, 48, 127
2, 198200, Note_on_c, 1, 59, 127
2, 198440, Note_off_c, 1, 48, 0
2, 198440, Note_off_c, 1, 59, 0
2, 198480, Note_on_c, 1, 40, 127
2, 198480, Note_on_c, 1, 56, 127
2, 198480, Note_on_c, 1, 71, 127
2, 198480, Note_on_c, 1, 74, 127
2, 198720, Note_off_c, 1, 40, 0
2, 198720, Note_off_c, 1, 56, 0
2, 198720, Note_off_c, 1, 71, 0
2, 198720, Note_off_c, 1, 74, 0
2, 198760, Note_on_c, 1, 40, 127
2, 199000, Note_off_c, 1, 40, 0
2, 199040, Note_on_c, 1, 62, 127
2, 199040, Note_on_c, 1, 68, 127
2, 199040, Note_on_c, 1, 71, 127
2, 199240, Note_off_c, 1, 62, 0
2, 199240, Note_off_c, 1, 68, 0
2, 199240, Note_off_c, 1, 71, 0
2, 199280, Note_on_c, 1, 57, 127
2, 199280, Note_on_c, 1, 69, 127
2, 199280, Note_on_c, 1, 72, 127
2, 199520, Note_off_c, 1, 57, 0
2, 199520, Note_off_c, 1, 69, 0
2, 199520, Note_off_c, 1, 72, 0
2, 199560, Note_on_c, 1, 62, 127
2, 199560, Note_on_c, 1, 65, 127
2, 199560, Note_on_c, 1, 71, 127
2, 199680, Note_off_c, 1, 71, 0
2, 199720, Note_on_c, 1, 72, 127
2, 199800, Note_off_c, 1, 65, 0
2, 199800, Note_off_c, 1, 72, 0
2, 199840, Note_on_c, 1, 67, 127
2, 199840, Note_on_c, 1, 74, 127
2, 199920, Note_off_c, 1, 74, 0
2, 199960, Note_on_c, 1, 71, 127
2, 200040, Note_off_c, 1, 62, 0
2, 200040, Note_off_c, 1, 67, 0
2, 200040, Note_off_c, 1, 71, 0
2, 200080, Note_on_c, 1, 71, 127
2, 200200, Note_off_c, 1, 71, 0
2, 200240, Note_on_c, 1, 69, 127
2, 200320, Note_off_c, 1, 69, 0
2, 200360, Note_on_c, 1, 64, 127
2, 200360, Note_on_c, 1, 67, 127
2, 200360, Note_on_c, 1, 73, 127
2, 200480, Note_off_c, 1, 73, 0
2, 200520, Note_on_c, 1, 70, 127
2, 200600, Note_off_c, 1, 64, 0
2, 200600, Note_off_c, 1, 67, 0
2, 200600, Note_off_c, 1, 70, 0
2, 200640, Note_on_c, 1, 54, 127
2, 200640, Note_on_c, 1, 69, 127
2, 200640, Note_on_c, 1, 74, 127
2, 200720, Note_off_c, 1, 74, 0
2, 200760, Note_on_c, 1, 73, 127
2, 200880, Note_off_c, 1, 69, 0
2, 200880, Note_off_c, 1, 73, 0
2, 200920, Note_on_c, 1, 69, 127
2, 200920, Note_on_c, 1, 71, 127
2, 201000, Note_off_c, 1, 71, 0
2, 201040, Note_on_c, 1, 73, 127
2, 201120, Note_off_c, 1, 54, 0
2, 201120, Note_off_c, 1, 69, 0
2, 201120, Note_off_c, 1, 73, 0
2, 201200, Note_on_c, 1, 62, 127
2, 201200, Note_on_c, 1, 69, 127
2, 201200, Note_on_c, 1, 78, 127
2, 201280, Note_off_c, 1, 78, 0
2, 201320, Note_on_c, 1, 81, 127
2, 201440, Note_off_c, 1, 62, 0
2, 201440, Note_off_c, 1, 69, 0
2, 201440, Note_off_c, 1, 81, 0
2, 201480, Note_on_c, 1, 61, 127
2, 201480, Note_on_c, 1, 64, 127
2, 201480, Note_on_c, 1, 70, 127
2, 201560, Note_off_c, 1, 70, 0
2, 201600, Note_on_c, 1, 76, 127
2, 201680, Note_off_c, 1, 61, 0
2, 201680, Note_off_c, 1, 64, 0
2, 201680, Note_off_c, 1, 76, 0
2, 201760, Note_on_c, 1, 50, 127
2, 201760, Note_on_c, 1, 71, 127
2, 201760, Note_on_c, 1, 77, 127
2, 201840, Note_off_c, 1, 71, 0
2, 201840, Note_on_c, 1, 74, 127
2, 201880, Note_on_c, 1, 68, 127
2, 201960, Note_off_c, 1, 50, 0
2, 201960, Note_off_c, 1, 68, 0
2, 201960, Note_off_c, 1, 74, 0
2, 201960, Note_off_c, 1, 77, 0
2, 202000, Note_on_c, 1, 55, 127
2, 202000, Note_on_c, 1, 71, 127
2, 202120, Note_off_c, 1, 71, 0
2, 202160, Note_on_c, 1, 78, 127
2, 202240, Note_off_c, 1, 55, 0
2, 202240, Note_off_c, 1, 78, 0
2, 202280, Note_on_c, 1, 59, 127
2, 202280, Note_on_c, 1, 67, 127
2, 202440, Note_on_c, 1, 74, 127
2, 202480, Note_off_c, 1, 67, 0
2, 202520, Note_off_c, 1, 59, 0
2, 202520, Note_off_c, 1, 74, 0
2, 202560, Note_on_c, 1, 47, 127
2, 202560, Note_on_c, 1, 67, 127
2, 202640, Note_off_c, 1, 67, 0
2, 202680, Note_on_c, 1, 71, 127
2, 202800, Note_off_c, 1, 47, 0
2, 202800, Note_off_c, 1, 71, 0
2, 202840, Note_on_c, 1, 45, 127
2, 202840, Note_on_c, 1, 72, 127
2, 202920, Note_off_c, 1, 72, 0
2, 202960, Note_on_c, 1, 69, 127
2, 203080, Note_off_c, 1, 45, 0
2, 203080, Note_off_c, 1, 69, 0
2, 203120, Note_on_c, 1, 50, 127
2, 203120, Note_on_c, 1, 74, 127
2, 203240, Note_on_c, 1, 69, 127
2, 203320, Note_off_c, 1, 50, 0
2, 203320, Note_off_c, 1, 69, 0
2, 203320, Note_off_c, 1, 74, 0
2, 203400, Note_on_c, 1, 47, 127
2, 203400, Note_on_c, 1, 67, 127
2, 203520, Note_off_c, 1, 67, 0
2, 203520, Note_on_c, 1, 71, 127
2, 203520, Note_on_c, 1, 74, 127
2, 203600, Note_off_c, 1, 47, 0
2, 203600, Note_off_c, 1, 71, 0
2, 203680, Note_on_c, 1, 40, 127
2, 203680, Note_on_c, 1, 72, 127
2, 203760, Note_off_c, 1, 72, 0
2, 203760, Note_off_c, 1, 74, 0
2, 203760, Note_on_c, 1, 76, 127
2, 203800, Note_on_c, 1, 71, 127
2, 203800, Note_on_c, 1, 74, 127
2, 203800, Note_off_c, 1, 76, 0
2, 203840, Note_off_c, 1, 74, 0
2, 203880, Note_on_c, 1, 74, 127
2, 203920, Note_off_c, 1, 40, 0
2, 203920, Note_off_c, 1, 71, 0
2, 203960, Note_on_c, 1, 47, 127
2, 203960, Note_on_c, 1, 72, 127
2, 204000, Note_off_c, 1, 72, 0
2, 204080, Note_on_c, 1, 71, 127
2, 204200, Note_off_c, 1, 47, 0
2, 204200, Note_off_c, 1, 71, 0
2, 204240, Note_on_c, 1, 52, 127
2, 204240, Note_on_c, 1, 67, 127
2, 204320, Note_off_c, 1, 67, 0
2, 204360, Note_on_c, 1, 69, 127
2, 204480, Note_off_c, 1, 52, 0
2, 204480, Note_off_c, 1, 69, 0
2, 204480, Note_off_c, 1, 74, 0
2, 204520, Note_on_c, 1, 47, 127
2, 204520, Note_on_c, 1, 71, 127
2, 204520, Note_on_c, 1, 74, 127
2, 204600, Note_off_c, 1, 74, 0
2, 204640, Note_on_c, 1, 74, 127
2, 204760, Note_off_c, 1, 47, 0
2, 204760, Note_off_c, 1, 74, 0
2, 204800, Note_on_c, 1, 50, 127
2, 204800, Note_on_c, 1, 76, 127
2, 204880, Note_off_c, 1, 71, 0
2, 204920, Note_on_c, 1, 69, 127
2, 205000, Note_off_c, 1, 50, 0
2, 205000, Note_off_c, 1, 76, 0
2, 205040, Note_on_c, 1, 47, 127
2, 205040, Note_on_c, 1, 74, 127
2, 205160, Note_off_c, 1, 69, 0
2, 205200, Note_on_c, 1, 69, 127
2, 205280, Note_off_c, 1, 47, 0
2, 205280, Note_off_c, 1, 69, 0
2, 205320, Note_on_c, 1, 52, 127
2, 205320, Note_on_c, 1, 67, 127
2, 205400, Note_off_c, 1, 52, 0
2, 205480, Note_on_c, 1, 47, 127
2, 205560, Note_off_c, 1, 47, 0
2, 205560, Note_off_c, 1, 67, 0
2, 205600, Note_on_c, 1, 48, 127
2, 205600, Note_on_c, 1, 64, 127
2, 205680, Note_off_c, 1, 48, 0
2, 205720, Note_on_c, 1, 45, 127
2, 205840, Note_off_c, 1, 45, 0
2, 205840, Note_off_c, 1, 64, 0
2, 205840, Note_off_c, 1, 74, 0
2, 205880, Note_on_c, 1, 43, 127
2, 205880, Note_on_c, 1, 64, 127
2, 205880, Note_on_c, 1, 71, 127
2, 205960, Note_off_c, 1, 43, 0
2, 206000, Note_on_c, 1, 47, 127
2, 206120, Note_off_c, 1, 47, 0
2, 206120, Note_off_c, 1, 71, 0
2, 206160, Note_on_c, 1, 45, 127
2, 206160, Note_on_c, 1, 72, 127
2, 206240, Note_off_c, 1, 45, 0
2, 206280, Note_on_c, 1, 43, 127
2, 206360, Note_off_c, 1, 43, 0
2, 206360, Note_on_c, 1, 53, 127
2, 206400, Note_off_c, 1, 53, 0
2, 206400, Note_off_c, 1, 64, 0
2, 206400, Note_off_c, 1, 72, 0
2, 206440, Note_on_c, 1, 40, 127
2, 206680, Note_off_c, 1, 40, 0
2, 206720, Note_on_c, 1, 42, 127
2, 206720, Note_on_c, 1, 61, 127
2, 206720, Note_on_c, 1, 69, 127
2, 206800, Note_off_c, 1, 42, 0
2, 206840, Note_on_c, 1, 45, 127
2, 206960, Note_off_c, 1, 45, 0
2, 206960, Note_off_c, 1, 61, 0
2, 207000, Note_on_c, 1, 47, 127
2, 207000, Note_on_c, 1, 62, 127
2, 207080, Note_off_c, 1, 47, 0
2, 207120, Note_on_c, 1, 49, 127
2, 207240, Note_off_c, 1, 49, 0
2, 207280, Note_on_c, 1, 50, 127
2, 207360, Note_off_c, 1, 50, 0
2, 207360, Note_off_c, 1, 62, 0
2, 207360, Note_off_c, 1, 69, 0
2, 207400, Note_on_c, 1, 47, 127
2, 207400, Note_on_c, 1, 59, 127
2, 207400, Note_on_c, 1, 64, 127
2, 207520, Note_off_c, 1, 47, 0
2, 207520, Note_off_c, 1, 59, 0
2, 207520, Note_off_c, 1, 64, 0
2, 207560, Note_on_c, 1, 45, 127
2, 207560, Note_on_c, 1, 57, 127
2, 207560, Note_on_c, 1, 61, 127
2, 207560, Note_on_c, 1, 64, 127
2, 207800, Note_off_c, 1, 45, 0
2, 207800, Note_off_c, 1, 57, 0
2, 207800, Note_off_c, 1, 61, 0
2, 207800, Note_off_c, 1, 64, 0
2, 207840, Note_on_c, 1, 45, 127
2, 207840, Note_on_c, 1, 64, 127
2, 208040, Note_off_c, 1, 45, 0
2, 208120, Note_on_c, 1, 45, 127
2, 208120, Note_on_c, 1, 66, 127
2, 208320, Note_off_c, 1, 64, 0
2, 208320, Note_off_c, 1, 66, 0
2, 208360, Note_on_c, 1, 61, 127
2, 208360, Note_on_c, 1, 67, 127
2, 208480, Note_off_c, 1, 61, 0
2, 208480, Note_off_c, 1, 67, 0
2, 208520, Note_on_c, 1, 62, 127
2, 208520, Note_on_c, 1, 66, 127
2, 208600, Note_off_c, 1, 62, 0
2, 208600, Note_off_c, 1, 66, 0
2, 208640, Note_on_c, 1, 61, 127
2, 208640, Note_on_c, 1, 64, 127
2, 208760, Note_off_c, 1, 61, 0
2, 208760, Note_off_c, 1, 64, 0
2, 208800, Note_on_c, 1, 63, 127
2, 208800, Note_on_c, 1, 66, 127
2, 208880, Note_off_c, 1, 45, 0
2, 208880, Note_off_c, 1, 63, 0
2, 208880, Note_off_c, 1, 66, 0
2, 208920, Note_on_c, 1, 52, 127
2, 208920, Note_on_c, 1, 64, 127
2, 208920, Note_on_c, 1, 67, 127
2, 209040, Note_off_c, 1, 67, 0
2, 209080, Note_on_c, 1, 66, 127
2, 209160, Note_off_c, 1, 52, 0
2, 209160, Note_off_c, 1, 64, 0
2, 209160, Note_off_c, 1, 66, 0
2, 209200, Note_on_c, 1, 54, 127
2, 209200, Note_on_c, 1, 63, 127
2, 209200, Note_on_c, 1, 66, 127
2, 209280, Note_off_c, 1, 63, 0
2, 209280, Note_off_c, 1, 66, 0
2, 209320, Note_on_c, 1, 59, 127
2, 209320, Note_on_c, 1, 63, 127
2, 209440, Note_off_c, 1, 54, 0
2, 209440, Note_off_c, 1, 59, 0
2, 209440, Note_off_c, 1, 63, 0
2, 209480, Note_on_c, 1, 56, 127
2, 209480, Note_on_c, 1, 59, 127
2, 209480, Note_on_c, 1, 64, 127
2, 209560, Note_off_c, 1, 64, 0
2, 209600, Note_on_c, 1, 63, 127
2, 209720, Note_off_c, 1, 56, 0
2, 209720, Note_off_c, 1, 59, 0
2, 209720, Note_off_c, 1, 63, 0
2, 209760, Note_on_c, 1, 53, 127
2, 209760, Note_on_c, 1, 58, 127
2, 209760, Note_on_c, 1, 71, 127
2, 209840, Note_off_c, 1, 58, 0
2, 209880, Note_on_c, 1, 59, 127
2, 210000, Note_off_c, 1, 53, 0
2, 210000, Note_off_c, 1, 59, 0
2, 210040, Note_on_c, 1, 54, 127
2, 210040, Note_on_c, 1, 66, 127
2, 210120, Note_off_c, 1, 54, 0
2, 210160, Note_on_c, 1, 59, 127
2, 210280, Note_off_c, 1, 59, 0
2, 210280, Note_off_c, 1, 66, 0
2, 210320, Note_on_c, 1, 58, 127
2, 210320, Note_on_c, 1, 64, 127
2, 210400, Note_off_c, 1, 58, 0
2, 210440, Note_on_c, 1, 52, 127
2, 210560, Note_off_c, 1, 52, 0
2, 210560, Note_off_c, 1, 64, 0
2, 210600, Note_on_c, 1, 54, 127
2, 210600, Note_on_c, 1, 63, 127
2, 210680, Note_off_c, 1, 54, 0
2, 210720, Note_on_c, 1, 55, 127
2, 210840, Note_off_c, 1, 55, 0
2, 210840, Note_off_c, 1, 63, 0
2, 210880, Note_on_c, 1, 59, 127
2, 210880, Note_on_c, 1, 63, 127
2, 210960, Note_off_c, 1, 59, 0
2, 211000, Note_on_c, 1, 51, 127
2, 211120, Note_off_c, 1, 51, 0
2, 211120, Note_off_c, 1, 63, 0
2, 211120, Note_off_c, 1, 71, 0
2, 211160, Note_on_c, 1, 49, 127
2, 211160, Note_on_c, 1, 64, 127
2, 211160, Note_on_c, 1, 73, 127
2, 211280, Note_off_c, 1, 73, 0
2, 211320, Note_on_c, 1, 69, 127
2, 211400, Note_off_c, 1, 49, 0
2, 211400, Note_off_c, 1, 64, 0
2, 211400, Note_off_c, 1, 69, 0
2, 211440, Note_on_c, 1, 40, 127
2, 211440, Note_on_c, 1, 67, 127
2, 211440, Note_on_c, 1, 71, 127
2, 211560, Note_off_c, 1, 71, 0
2, 211600, Note_on_c, 1, 70, 127
2, 211680, Note_off_c, 1, 40, 0
2, 211680, Note_off_c, 1, 70, 0
2, 211720, Note_on_c, 1, 54, 127
2, 211720, Note_on_c, 1, 71, 127
2, 211840, Note_off_c, 1, 71, 0
2, 211880, Note_on_c, 1, 69, 127
2, 211960, Note_off_c, 1, 54, 0
2, 211960, Note_off_c, 1, 67, 0
2, 211960, Note_off_c, 1, 69, 0
2, 212000, Note_on_c, 1, 52, 127
2, 212000, Note_on_c, 1, 68, 127
2, 212120, Note_on_c, 1, 74, 127
2, 212240, Note_off_c, 1, 68, 0
2, 212240, Note_off_c, 1, 74, 0
2, 212280, Note_on_c, 1, 71, 127
2, 212360, Note_off_c, 1, 71, 0
2, 212400, Note_on_c, 1, 69, 127
2, 212520, Note_off_c, 1, 69, 0
2, 212560, Note_on_c, 1, 71, 127
2, 212640, Note_off_c, 1, 71, 0
2, 212680, Note_on_c, 1, 73, 127
2, 212800, Note_off_c, 1, 52, 0
2, 212800, Note_off_c, 1, 73, 0
2, 212840, Note_on_c, 1, 50, 127
2, 212840, Note_on_c, 1, 66, 127
2, 212840, Note_on_c, 1, 71, 127
2, 212920, Note_off_c, 1, 71, 0
2, 212960, Note_on_c, 1, 74, 127
2, 213080, Note_off_c, 1, 50, 0
2, 213080, Note_off_c, 1, 66, 0
2, 213080, Note_off_c, 1, 74, 0
2, 213120, Note_on_c, 1, 40, 127
2, 213120, Note_on_c, 1, 71, 127
2, 213200, Note_off_c, 1, 71, 0
2, 213240, Note_on_c, 1, 73, 127
2, 213360, Note_off_c, 1, 40, 0
2, 213360, Note_off_c, 1, 73, 0
2, 213400, Note_on_c, 1, 52, 127
2, 213400, Note_on_c, 1, 74, 127
2, 213640, Note_off_c, 1, 52, 0
2, 213640, Note_off_c, 1, 74, 0
2, 213680, Note_on_c, 1, 54, 127
2, 213680, Note_on_c, 1, 69, 127
2, 213680, Note_on_c, 1, 74, 127
2, 213760, Note_off_c, 1, 69, 0
2, 213800, Note_on_c, 1, 68, 127
2, 213920, Note_off_c, 1, 54, 0
2, 213920, Note_off_c, 1, 68, 0
2, 213920, Note_off_c, 1, 74, 0
2, 213960, Note_on_c, 1, 56, 127
2, 213960, Note_on_c, 1, 68, 127
2, 213960, Note_on_c, 1, 71, 127
2, 214200, Note_off_c, 1, 68, 0
2, 214200, Note_off_c, 1, 71, 0
2, 214240, Note_on_c, 1, 40, 127
2, 214240, Note_on_c, 1, 68, 127
2, 214480, Note_off_c, 1, 68, 0
2, 214520, Note_on_c, 1, 71, 127
2, 214640, Note_off_c, 1, 71, 0
2, 214680, Note_on_c, 1, 73, 127
2, 214720, Note_on_c, 1, 71, 127
2, 214720, Note_off_c, 1, 73, 0
2, 214760, Note_off_c, 1, 40, 0
2, 214760, Note_off_c, 1, 56, 0
2, 214760, Note_off_c, 1, 71, 0
2, 214800, Note_on_c, 1, 45, 127
2, 214800, Note_on_c, 1, 57, 127
2, 214800, Note_on_c, 1, 73, 127
2, 214920, Note_on_c, 1, 72, 127
2, 214960, Note_off_c, 1, 73, 0
2, 215040, Note_off_c, 1, 72, 0
2, 215080, Note_on_c, 1, 71, 127
2, 215160, Note_off_c, 1, 45, 0
2, 215160, Note_off_c, 1, 57, 0
2, 215160, Note_off_c, 1, 71, 0
2, 215200, Note_on_c, 1, 49, 127
2, 215200, Note_on_c, 1, 69, 127
2, 215200, Note_on_c, 1, 73, 127
2, 215280, Note_off_c, 1, 49, 0
2, 215280, Note_off_c, 1, 69, 0
2, 215280, Note_off_c, 1, 73, 0
2, 215320, Note_on_c, 1, 47, 127
2, 215320, Note_on_c, 1, 59, 127
2, 215320, Note_on_c, 1, 68, 127
2, 215320, Note_on_c, 1, 74, 127
2, 215440, Note_off_c, 1, 74, 0
2, 215480, Note_on_c, 1, 73, 127
2, 215560, Note_off_c, 1, 47, 0
2, 215560, Note_off_c, 1, 59, 0
2, 215560, Note_off_c, 1, 68, 0
2, 215560, Note_off_c, 1, 73, 0
2, 215600, Note_on_c, 1, 45, 127
2, 215600, Note_on_c, 1, 57, 127
2, 215600, Note_on_c, 1, 69, 127
2, 215600, Note_on_c, 1, 73, 127
2, 215720, Note_off_c, 1, 45, 0
2, 215720, Note_off_c, 1, 69, 0
2, 215760, Note_on_c, 1, 44, 127
2, 215760, Note_on_c, 1, 56, 127
2, 215760, Note_off_c, 1, 57, 0
2, 215840, Note_off_c, 1, 44, 0
2, 215840, Note_off_c, 1, 56, 0
2, 215840, Note_off_c, 1, 73, 0
2, 215880, Note_on_c, 1, 42, 127
2, 215880, Note_on_c, 1, 54, 127
2, 215880, Note_on_c, 1, 62, 127
2, 215880, Note_on_c, 1, 69, 127
2, 216000, Note_off_c, 1, 69, 0
2, 216040, Note_on_c, 1, 66, 127
2, 216120, Note_off_c, 1, 42, 0
2, 216120, Note_off_c, 1, 54, 0
2, 216120, Note_off_c, 1, 62, 0
2, 216120, Note_off_c, 1, 66, 0
2, 216200, Note_on_c, 1, 45, 127
2, 216200, Note_on_c, 1, 57, 127
2, 216200, Note_on_c, 1, 64, 127
2, 216200, Note_on_c, 1, 73, 127
2, 216400, Note_off_c, 1, 45, 0
2, 216400, Note_off_c, 1, 64, 0
2, 216480, Note_on_c, 1, 40, 127
2, 216480, Note_on_c, 1, 66, 127
2, 216520, Note_off_c, 1, 73, 0
2, 216680, Note_off_c, 1, 40, 0
2, 216680, Note_off_c, 1, 66, 0
2, 216720, Note_on_c, 1, 45, 127
2, 216720, Note_on_c, 1, 61, 127
2, 216720, Note_on_c, 1, 64, 127
2, 216960, Note_off_c, 1, 57, 0
2, 216960, Note_off_c, 1, 61, 0
2, 216960, Note_on_c, 1, 62, 127
2, 216960, Note_off_c, 1, 64, 0
2, 217000, Note_on_c, 1, 54, 127
2, 217000, Note_on_c, 1, 69, 127
2, 217240, Note_off_c, 1, 69, 0
2, 217280, Note_on_c, 1, 68, 127
2, 217400, Note_off_c, 1, 68, 0
2, 217440, Note_on_c, 1, 69, 127
2, 217520, Note_off_c, 1, 62, 0
2, 217520, Note_off_c, 1, 69, 0
2, 217560, Note_on_c, 1, 71, 127
2, 217640, Note_off_c, 1, 71, 0
2, 217680, Note_on_c, 1, 69, 127
2, 217800, Note_off_c, 1, 45, 0
2, 217800, Note_off_c, 1, 69, 0
2, 217840, Note_on_c, 1, 71, 127
2, 217960, Note_on_c, 1, 57, 127
2, 218080, Note_off_c, 1, 54, 0
2, 218080, Note_off_c, 1, 57, 0
2, 218080, Note_off_c, 1, 71, 0
2, 218120, Note_on_c, 1, 52, 127
2, 218120, Note_on_c, 1, 59, 127
2, 218120, Note_on_c, 1, 68, 127
2, 218200, Note_off_c, 1, 59, 0
2, 218240, Note_on_c, 1, 62, 127
2, 218360, Note_off_c, 1, 52, 0
2, 218360, Note_off_c, 1, 62, 0
2, 218400, Note_on_c, 1, 49, 127
2, 218400, Note_on_c, 1, 64, 127
2, 218480, Note_off_c, 1, 49, 0
2, 218480, Note_on_c, 1, 71, 127
2, 218560, Note_on_c, 1, 44, 127
2, 218560, Note_off_c, 1, 71, 0
2, 218560, Note_on_c, 1, 73, 127
2, 218640, Note_off_c, 1, 44, 0
2, 218680, Note_on_c, 1, 45, 127
2, 218800, Note_off_c, 1, 45, 0
2, 218840, Note_on_c, 1, 44, 127
2, 218920, Note_off_c, 1, 64, 0
2, 218920, Note_off_c, 1, 68, 0
2, 218920, Note_off_c, 1, 73, 0
2, 218960, Note_off_c, 1, 44, 0
2, 219000, Note_on_c, 1, 45, 127
2, 219000, Note_on_c, 1, 61, 127
2, 219000, Note_on_c, 1, 64, 127
2, 219000, Note_on_c, 1, 69, 127
2, 219080, Note_off_c, 1, 69, 0
2, 219120, Note_on_c, 1, 73, 127
2, 219280, Note_off_c, 1, 61, 0
2, 219280, Note_off_c, 1, 64, 0
2, 219280, Note_off_c, 1, 73, 0
2, 219320, Note_on_c, 1, 57, 127
2, 219320, Note_on_c, 1, 69, 127
2, 219320, Note_on_c, 1, 75, 127
2, 219400, Note_off_c, 1, 75, 0
2, 219440, Note_on_c, 1, 71, 127
2, 219560, Note_off_c, 1, 69, 0
2, 219560, Note_off_c, 1, 71, 0
2, 219600, Note_on_c, 1, 64, 127
2, 219600, Note_on_c, 1, 73, 127
2, 219680, Note_off_c, 1, 64, 0
2, 219680, Note_off_c, 1, 73, 0
2, 219720, Note_on_c, 1, 63, 127
2, 219720, Note_on_c, 1, 71, 127
2, 219800, Note_off_c, 1, 45, 0
2, 219800, Note_off_c, 1, 57, 0
2, 219800, Note_off_c, 1, 63, 0
2, 219800, Note_off_c, 1, 71, 0
2, 219880, Note_on_c, 1, 47, 127
2, 219880, Note_on_c, 1, 56, 127
2, 219880, Note_on_c, 1, 64, 127
2, 219880, Note_on_c, 1, 68, 127
2, 219960, Note_off_c, 1, 64, 0
2, 219960, Note_off_c, 1, 68, 0
2, 220000, Note_on_c, 1, 66, 127
2, 220120, Note_off_c, 1, 47, 0
2, 220120, Note_off_c, 1, 66, 0
2, 220160, Note_on_c, 1, 49, 127
2, 220160, Note_on_c, 1, 64, 127
2, 220280, Note_off_c, 1, 64, 0
2, 220320, Note_on_c, 1, 66, 127
2, 220400, Note_off_c, 1, 49, 0
2, 220400, Note_off_c, 1, 56, 0
2, 220400, Note_off_c, 1, 66, 0
2, 220440, Note_on_c, 1, 51, 127
2, 220440, Note_on_c, 1, 54, 127
2, 220440, Note_on_c, 1, 59, 127
2, 220440, Note_on_c, 1, 68, 127
2, 220520, Note_off_c, 1, 68, 0
2, 220520, Note_on_c, 1, 70, 127
2, 220560, Note_off_c, 1, 70, 0
2, 220600, Note_on_c, 1, 71, 127
2, 220680, Note_off_c, 1, 51, 0
2, 220680, Note_off_c, 1, 54, 0
2, 220680, Note_off_c, 1, 59, 0
2, 220680, Note_off_c, 1, 71, 0
2, 220720, Note_on_c, 1, 52, 127
2, 220720, Note_on_c, 1, 61, 127
2, 220720, Note_on_c, 1, 76, 127
2, 220840, Note_off_c, 1, 76, 0
2, 220880, Note_on_c, 1, 73, 127
2, 220960, Note_off_c, 1, 52, 0
2, 220960, Note_off_c, 1, 61, 0
2, 220960, Note_off_c, 1, 73, 0
2, 221000, Note_on_c, 1, 49, 127
2, 221000, Note_on_c, 1, 61, 127
2, 221000, Note_on_c, 1, 74, 127
2, 221080, Note_off_c, 1, 74, 0
2, 221120, Note_on_c, 1, 71, 127
2, 221240, Note_off_c, 1, 49, 0
2, 221240, Note_off_c, 1, 61, 0
2, 221240, Note_off_c, 1, 71, 0
2, 221280, Note_on_c, 1, 50, 127
2, 221280, Note_on_c, 1, 54, 127
2, 221280, Note_on_c, 1, 69, 127
2, 221360, Note_off_c, 1, 69, 0
2, 221400, Note_on_c, 1, 71, 127
2, 221520, Note_off_c, 1, 50, 0
2, 221520, Note_off_c, 1, 71, 0
2, 221560, Note_on_c, 1, 47, 127
2, 221560, Note_on_c, 1, 69, 127
2, 221640, Note_off_c, 1, 69, 0
2, 221680, Note_on_c, 1, 68, 127
2, 221800, Note_off_c, 1, 47, 0
2, 221800, Note_off_c, 1, 54, 0
2, 221800, Note_off_c, 1, 68, 0
2, 221840, Note_on_c, 1, 45, 127
2, 221840, Note_on_c, 1, 49, 127
2, 221840, Note_on_c, 1, 66, 127
2, 221920, Note_off_c, 1, 66, 0
2, 221960, Note_on_c, 1, 68, 127
2, 222080, Note_off_c, 1, 49, 0
2, 222080, Note_off_c, 1, 68, 0
2, 222120, Note_on_c, 1, 54, 127
2, 222120, Note_on_c, 1, 69, 127
2, 222240, Note_off_c, 1, 69, 0
2, 222280, Note_on_c, 1, 67, 127
2, 222360, Note_off_c, 1, 67, 0
2, 222400, Note_on_c, 1, 69, 127
2, 222480, Note_off_c, 1, 45, 0
2, 222480, Note_off_c, 1, 69, 0
2, 222560, Note_on_c, 1, 47, 127
2, 222560, Note_on_c, 1, 63, 127
2, 222640, Note_off_c, 1, 63, 0
2, 222680, Note_on_c, 1, 59, 127
2, 222800, Note_off_c, 1, 59, 0
2, 222840, Note_on_c, 1, 63, 127
2, 222920, Note_off_c, 1, 47, 0
2, 222920, Note_off_c, 1, 54, 0
2, 222920, Note_off_c, 1, 63, 0
2, 222960, Note_on_c, 1, 59, 127
2, 222960, Note_on_c, 1, 64, 127
2, 223080, Note_off_c, 1, 64, 0
2, 223120, Note_on_c, 1, 66, 127
2, 223200, Note_off_c, 1, 59, 0
2, 223200, Note_off_c, 1, 66, 0
2, 223240, Note_on_c, 1, 52, 127
2, 223240, Note_on_c, 1, 67, 127
2, 223360, Note_off_c, 1, 67, 0
2, 223400, Note_on_c, 1, 71, 127
2, 223480, Note_off_c, 1, 52, 0
2, 223480, Note_off_c, 1, 71, 0
2, 223520, Note_on_c, 1, 47, 127
2, 223520, Note_on_c, 1, 64, 127
2, 223680, Note_on_c, 1, 67, 127
2, 223760, Note_off_c, 1, 47, 0
2, 223760, Note_off_c, 1, 64, 0
2, 223760, Note_off_c, 1, 67, 0
2, 223800, Note_on_c, 1, 47, 127
2, 223800, Note_on_c, 1, 63, 127
2, 223800, Note_on_c, 1, 68, 127
2, 223920, Note_off_c, 1, 68, 0
2, 223960, Note_on_c, 1, 66, 127
2, 224040, Note_off_c, 1, 47, 0
2, 224040, Note_off_c, 1, 63, 0
2, 224040, Note_off_c, 1, 66, 0
2, 224080, Note_on_c, 1, 52, 127
2, 224080, Note_on_c, 1, 56, 127
2, 224080, Note_on_c, 1, 64, 127
2, 224200, Note_off_c, 1, 64, 0
2, 224240, Note_on_c, 1, 68, 127
2, 224320, Note_off_c, 1, 68, 0
2, 224360, Note_on_c, 1, 71, 127
2, 224480, Note_off_c, 1, 52, 0
2, 224480, Note_off_c, 1, 71, 0
2, 224520, Note_on_c, 1, 50, 127
2, 224520, Note_on_c, 1, 66, 127
2, 224600, Note_off_c, 1, 50, 0
2, 224600, Note_off_c, 1, 66, 0
2, 224640, Note_on_c, 1, 49, 127
2, 224640, Note_on_c, 1, 64, 127
2, 224760, Note_off_c, 1, 49, 0
2, 224760, Note_off_c, 1, 64, 0
2, 224800, Note_on_c, 1, 45, 127
2, 224800, Note_on_c, 1, 63, 127
2, 224880, Note_off_c, 1, 45, 0
2, 224880, Note_off_c, 1, 56, 0
2, 224880, Note_off_c, 1, 63, 0
2, 224920, Note_on_c, 1, 44, 127
2, 224920, Note_on_c, 1, 71, 127
2, 225040, Note_off_c, 1, 44, 0
2, 225080, Note_on_c, 1, 40, 127
2, 225160, Note_off_c, 1, 40, 0
2, 225240, Note_on_c, 1, 40, 127
2, 225240, Note_on_c, 1, 75, 127
2, 225320, Note_off_c, 1, 40, 0
2, 225360, Note_on_c, 1, 47, 127
2, 225480, Note_off_c, 1, 47, 0
2, 225480, Note_off_c, 1, 71, 0
2, 225480, Note_off_c, 1, 75, 0
2, 225520, Note_on_c, 1, 49, 127
2, 225520, Note_on_c, 1, 68, 127
2, 225520, Note_on_c, 1, 76, 127
2, 225600, Note_off_c, 1, 49, 0
2, 225640, Note_on_c, 1, 47, 127
2, 225760, Note_off_c, 1, 47, 0
2, 225760, Note_off_c, 1, 68, 0
2, 225760, Note_off_c, 1, 76, 0
2, 225800, Note_on_c, 1, 45, 127
2, 225800, Note_on_c, 1, 64, 127
2, 225800, Note_on_c, 1, 73, 127
2, 225880, Note_off_c, 1, 45, 0
2, 225920, Note_on_c, 1, 44, 127
2, 226040, Note_off_c, 1, 44, 0
2, 226040, Note_off_c, 1, 64, 0
2, 226040, Note_off_c, 1, 73, 0
2, 226080, Note_on_c, 1, 45, 127
2, 226080, Note_on_c, 1, 61, 127
2, 226080, Note_on_c, 1, 71, 127
2, 226160, Note_off_c, 1, 45, 0
2, 226160, Note_off_c, 1, 61, 0
2, 226200, Note_on_c, 1, 47, 127
2, 226200, Note_on_c, 1, 56, 127
2, 226320, Note_off_c, 1, 47, 0
2, 226320, Note_off_c, 1, 56, 0
2, 226320, Note_off_c, 1, 71, 0
2, 226360, Note_on_c, 1, 49, 127
2, 226360, Note_on_c, 1, 64, 127
2, 226440, Note_off_c, 1, 49, 0
2, 226440, Note_off_c, 1, 64, 0
2, 226480, Note_on_c, 1, 47, 127
2, 226480, Note_on_c, 1, 63, 127
2, 226600, Note_off_c, 1, 47, 0
2, 226600, Note_off_c, 1, 63, 0
2, 226640, Note_on_c, 1, 45, 127
2, 226640, Note_on_c, 1, 61, 127
2, 226720, Note_off_c, 1, 45, 0
2, 226720, Note_off_c, 1, 61, 0
2, 226760, Note_on_c, 1, 52, 127
2, 226760, Note_on_c, 1, 59, 127
2, 226880, Note_off_c, 1, 52, 0
2, 226880, Note_off_c, 1, 59, 0
2, 226920, Note_on_c, 1, 49, 127
2, 226920, Note_on_c, 1, 56, 127
2, 226920, Note_on_c, 1, 58, 127
2, 227000, Note_off_c, 1, 49, 0
2, 227000, Note_off_c, 1, 56, 0
2, 227040, Note_on_c, 1, 51, 127
2, 227040, Note_on_c, 1, 54, 127
2, 227120, Note_off_c, 1, 51, 0
2, 227120, Note_off_c, 1, 54, 0
2, 227120, Note_off_c, 1, 58, 0
2, 227160, Note_on_c, 1, 49, 127
2, 227160, Note_on_c, 1, 56, 127
2, 227160, Note_on_c, 1, 59, 127
2, 227280, Note_off_c, 1, 49, 0
2, 227280, Note_off_c, 1, 59, 0
2, 227320, Note_on_c, 1, 52, 127
2, 227320, Note_on_c, 1, 68, 127
2, 227400, Note_off_c, 1, 52, 0
2, 227400, Note_off_c, 1, 56, 0
2, 227400, Note_off_c, 1, 68, 0
2, 227440, Note_on_c, 1, 42, 127
2, 227440, Note_on_c, 1, 54, 127
2, 227440, Note_on_c, 1, 70, 127
2, 227560, Note_off_c, 1, 42, 0
2, 227560, Note_off_c, 1, 54, 0
2, 227560, Note_off_c, 1, 70, 0
2, 227600, Note_on_c, 1, 49, 127
2, 227600, Note_on_c, 1, 53, 127
2, 227600, Note_on_c, 1, 68, 127
2, 227680, Note_off_c, 1, 49, 0
2, 227680, Note_off_c, 1, 53, 0
2, 227680, Note_off_c, 1, 68, 0
2, 227720, Note_on_c, 1, 51, 127
2, 227720, Note_on_c, 1, 54, 127
2, 227720, Note_on_c, 1, 70, 127
2, 227840, Note_off_c, 1, 51, 0
2, 227840, Note_off_c, 1, 54, 0
2, 227840, Note_off_c, 1, 70, 0
2, 227880, Note_on_c, 1, 52, 127
2, 227880, Note_on_c, 1, 56, 127
2, 227880, Note_on_c, 1, 71, 127
2, 227960, Note_off_c, 1, 52, 0
2, 227960, Note_off_c, 1, 56, 0
2, 227960, Note_off_c, 1, 71, 0
2, 228000, Note_on_c, 1, 58, 127
2, 228000, Note_on_c, 1, 73, 127
2, 228120, Note_off_c, 1, 58, 0
2, 228120, Note_off_c, 1, 73, 0
2, 228160, Note_on_c, 1, 47, 127
2, 228160, Note_on_c, 1, 59, 127
2, 228160, Note_on_c, 1, 75, 127
2, 228240, Note_off_c, 1, 75, 0
2, 228280, Note_on_c, 1, 76, 127
2, 228400, Note_off_c, 1, 47, 0
2, 228400, Note_off_c, 1, 59, 0
2, 228400, Note_off_c, 1, 76, 0
2, 228440, Note_on_c, 1, 58, 127
2, 228440, Note_on_c, 1, 73, 127
2, 228520, Note_off_c, 1, 58, 0
2, 228520, Note_off_c, 1, 73, 0
2, 228560, Note_on_c, 1, 59, 127
2, 228560, Note_on_c, 1, 71, 127
2, 228680, Note_off_c, 1, 59, 0
2, 228680, Note_off_c, 1, 71, 0
2, 228720, Note_on_c, 1, 52, 127
2, 228720, Note_on_c, 1, 73, 127
2, 228800, Note_off_c, 1, 73, 0
2, 228840, Note_on_c, 1, 75, 127
2, 228960, Note_off_c, 1, 52, 0
2, 228960, Note_off_c, 1, 75, 0
2, 229000, Note_on_c, 1, 57, 127
2, 229000, Note_on_c, 1, 76, 127
2, 229080, Note_off_c, 1, 76, 0
2, 229120, Note_on_c, 1, 73, 127
2, 229240, Note_off_c, 1, 57, 0
2, 229240, Note_off_c, 1, 73, 0
2, 229280, Note_on_c, 1, 64, 127
2, 229280, Note_on_c, 1, 69, 127
2, 229400, Note_off_c, 1, 69, 0
2, 229440, Note_on_c, 1, 67, 127
2, 229520, Note_off_c, 1, 64, 0
2, 229520, Note_off_c, 1, 67, 0
2, 229560, Note_on_c, 1, 57, 127
2, 229560, Note_on_c, 1, 66, 127
2, 229640, Note_off_c, 1, 66, 0
2, 229680, Note_on_c, 1, 64, 127
2, 229800, Note_off_c, 1, 57, 0
2, 229800, Note_off_c, 1, 64, 0
2, 229840, Note_on_c, 1, 54, 127
2, 229840, Note_on_c, 1, 63, 127
2, 229920, Note_off_c, 1, 63, 0
2, 229960, Note_on_c, 1, 73, 127
2, 230080, Note_off_c, 1, 54, 0
2, 230080, Note_off_c, 1, 73, 0
2, 230120, Note_on_c, 1, 52, 127
2, 230120, Note_on_c, 1, 67, 127
2, 230200, Note_off_c, 1, 52, 0
2, 230240, Note_on_c, 1, 51, 127
2, 230360, Note_off_c, 1, 51, 0
2, 230360, Note_off_c, 1, 67, 0
2, 230400, Note_on_c, 1, 52, 127
2, 230400, Note_on_c, 1, 63, 127
2, 230480, Note_off_c, 1, 52, 0
2, 230520, Note_on_c, 1, 51, 127
2, 230640, Note_off_c, 1, 51, 0
2, 230640, Note_off_c, 1, 63, 0
2, 230680, Note_on_c, 1, 48, 127
2, 230680, Note_on_c, 1, 75, 127
2, 230760, Note_off_c, 1, 48, 0
2, 230800, Note_on_c, 1, 49, 127
2, 230920, Note_off_c, 1, 49, 0
2, 230920, Note_off_c, 1, 75, 0
2, 230960, Note_on_c, 1, 52, 127
2, 230960, Note_on_c, 1, 55, 127
2, 230960, Note_on_c, 1, 75, 127
2, 231040, Note_off_c, 1, 55, 0
2, 231080, Note_on_c, 1, 64, 127
2, 231200, Note_off_c, 1, 52, 0
2, 231200, Note_off_c, 1, 64, 0
2, 231200, Note_off_c, 1, 75, 0
2, 231240, Note_on_c, 1, 56, 127
2, 231240, Note_on_c, 1, 64, 127
2, 231320, Note_off_c, 1, 64, 0
2, 231360, Note_on_c, 1, 66, 127
2, 231480, Note_off_c, 1, 56, 0
2, 231480, Note_off_c, 1, 66, 0
2, 231520, Note_on_c, 1, 44, 127
2, 231520, Note_on_c, 1, 61, 127
2, 231600, Note_off_c, 1, 61, 0
2, 231640, Note_on_c, 1, 63, 127
2, 231760, Note_off_c, 1, 44, 0
2, 231760, Note_off_c, 1, 63, 0
2, 231800, Note_on_c, 1, 44, 127
2, 231800, Note_on_c, 1, 61, 127
2, 231880, Note_off_c, 1, 61, 0
2, 231920, Note_on_c, 1, 60, 127
2, 232000, Note_off_c, 1, 44, 0
2, 232000, Note_off_c, 1, 60, 0
2, 232040, Note_on_c, 1, 46, 127
2, 232040, Note_on_c, 1, 61, 127
2, 232160, Note_off_c, 1, 61, 0
2, 232200, Note_on_c, 1, 63, 127
2, 232280, Note_off_c, 1, 46, 0
2, 232280, Note_off_c, 1, 63, 0
2, 232320, Note_on_c, 1, 44, 127
2, 232320, Note_on_c, 1, 65, 127
2, 232440, Note_off_c, 1, 65, 0
2, 232480, Note_on_c, 1, 63, 127
2, 232560, Note_off_c, 1, 44, 0
2, 232560, Note_off_c, 1, 63, 0
2, 232600, Note_on_c, 1, 46, 127
2, 232600, Note_on_c, 1, 61, 127
2, 232720, Note_off_c, 1, 61, 0
2, 232760, Note_on_c, 1, 63, 127
2, 232840, Note_off_c, 1, 46, 0
2, 232840, Note_off_c, 1, 63, 0
2, 232880, Note_on_c, 1, 49, 127
2, 232880, Note_on_c, 1, 64, 127
2, 232960, Note_off_c, 1, 49, 0
2, 232960, Note_off_c, 1, 64, 0
2, 233000, Note_on_c, 1, 52, 127
2, 233000, Note_on_c, 1, 63, 127
2, 233120, Note_off_c, 1, 52, 0
2, 233120, Note_off_c, 1, 63, 0
2, 233160, Note_on_c, 1, 49, 127
2, 233160, Note_on_c, 1, 64, 127
2, 233240, Note_off_c, 1, 49, 0
2, 233240, Note_off_c, 1, 64, 0
2, 233280, Note_on_c, 1, 51, 127
2, 233280, Note_on_c, 1, 66, 127
2, 233400, Note_off_c, 1, 51, 0
2, 233400, Note_off_c, 1, 66, 0
2, 233440, Note_on_c, 1, 52, 127
2, 233440, Note_on_c, 1, 68, 127
2, 233520, Note_off_c, 1, 52, 0
2, 233520, Note_off_c, 1, 68, 0
2, 233560, Note_on_c, 1, 51, 127
2, 233560, Note_on_c, 1, 67, 127
2, 233680, Note_off_c, 1, 51, 0
2, 233680, Note_off_c, 1, 67, 0
2, 233720, Note_on_c, 1, 49, 127
2, 233720, Note_on_c, 1, 65, 127
2, 233800, Note_off_c, 1, 65, 0
2, 233840, Note_on_c, 1, 64, 127
2, 233920, Note_off_c, 1, 49, 0
2, 233960, Note_off_c, 1, 64, 0
2, 234000, Note_on_c, 1, 44, 127
2, 234000, Note_on_c, 1, 66, 127
2, 234080, Note_off_c, 1, 66, 0
2, 234120, Note_on_c, 1, 64, 127
2, 234240, Note_off_c, 1, 44, 0
2, 234240, Note_off_c, 1, 64, 0
2, 234280, Note_on_c, 1, 52, 127
2, 234280, Note_on_c, 1, 63, 127
2, 234360, Note_off_c, 1, 63, 0
2, 234400, Note_on_c, 1, 61, 127
2, 234480, Note_off_c, 1, 52, 0
2, 234480, Note_off_c, 1, 61, 0
2, 234560, Note_on_c, 1, 51, 127
2, 234560, Note_on_c, 1, 63, 127
2, 234640, Note_off_c, 1, 63, 0
2, 234680, Note_on_c, 1, 61, 127
2, 234760, Note_off_c, 1, 51, 0
2, 234760, Note_off_c, 1, 61, 0
2, 234800, Note_on_c, 1, 49, 127
2, 234800, Note_on_c, 1, 63, 127
2, 234880, Note_off_c, 1, 63, 0
2, 234960, Note_on_c, 1, 64, 127
2, 235040, Note_off_c, 1, 49, 0
2, 235040, Note_off_c, 1, 64, 0
2, 235080, Note_on_c, 1, 51, 127
2, 235080, Note_on_c, 1, 66, 127
2, 235160, Note_off_c, 1, 51, 0
2, 235160, Note_off_c, 1, 66, 0
2, 235200, Note_on_c, 1, 53, 127
2, 235200, Note_on_c, 1, 68, 127
2, 235320, Note_off_c, 1, 53, 0
2, 235320, Note_off_c, 1, 68, 0
2, 235360, Note_on_c, 1, 54, 127
2, 235360, Note_on_c, 1, 70, 127
2, 235440, Note_off_c, 1, 70, 0
2, 235480, Note_on_c, 1, 66, 127
2, 235600, Note_off_c, 1, 66, 0
2, 235640, Note_on_c, 1, 63, 127
2, 235720, Note_off_c, 1, 63, 0
2, 235760, Note_on_c, 1, 66, 127
2, 235880, Note_off_c, 1, 54, 0
2, 235880, Note_off_c, 1, 66, 0
2, 235920, Note_on_c, 1, 57, 127
2, 235920, Note_on_c, 1, 63, 127
2, 236000, Note_off_c, 1, 63, 0
2, 236040, Note_on_c, 1, 66, 127
2, 236120, Note_off_c, 1, 57, 0
2, 236120, Note_off_c, 1, 66, 0
2, 236200, Note_on_c, 1, 52, 127
2, 236200, Note_on_c, 1, 68, 127
2, 236280, Note_off_c, 1, 68, 0
2, 236320, Note_on_c, 1, 64, 127
2, 236400, Note_off_c, 1, 52, 0
2, 236400, Note_off_c, 1, 64, 0
2, 236440, Note_on_c, 1, 47, 127
2, 236440, Note_on_c, 1, 63, 127
2, 236560, Note_off_c, 1, 63, 0
2, 236600, Note_on_c, 1, 61, 127
2, 236680, Note_off_c, 1, 47, 0
2, 236680, Note_off_c, 1, 61, 0
2, 236720, Note_on_c, 1, 44, 127
2, 236720, Note_on_c, 1, 71, 127
2, 236840, Note_off_c, 1, 71, 0
2, 236880, Note_on_c, 1, 69, 127
2, 236960, Note_off_c, 1, 44, 0
2, 236960, Note_off_c, 1, 69, 0
2, 237000, Note_on_c, 1, 40, 127
2, 237000, Note_on_c, 1, 68, 127
2, 237120, Note_off_c, 1, 68, 0
2, 237160, Note_on_c, 1, 69, 127
2, 237240, Note_off_c, 1, 40, 0
2, 237240, Note_off_c, 1, 69, 0
2, 237280, Note_on_c, 1, 53, 127
2, 237280, Note_on_c, 1, 71, 127
2, 237400, Note_off_c, 1, 53, 0
2, 237400, Note_off_c, 1, 71, 0
2, 237440, Note_on_c, 1, 54, 127
2, 237440, Note_on_c, 1, 69, 127
2, 237520, Note_off_c, 1, 54, 0
2, 237520, Note_off_c, 1, 69, 0
2, 237560, Note_on_c, 1, 56, 127
2, 237560, Note_on_c, 1, 68, 127
2, 237680, Note_off_c, 1, 56, 0
2, 237680, Note_off_c, 1, 68, 0
2, 237720, Note_on_c, 1, 52, 127
2, 237720, Note_on_c, 1, 68, 127
2, 237800, Note_off_c, 1, 52, 0
2, 237800, Note_off_c, 1, 68, 0
2, 237840, Note_on_c, 1, 52, 127
2, 237840, Note_on_c, 1, 73, 127
2, 237960, Note_off_c, 1, 52, 0
2, 237960, Note_off_c, 1, 73, 0
2, 238000, Note_on_c, 1, 49, 127
2, 238000, Note_on_c, 1, 76, 127
2, 238080, Note_off_c, 1, 49, 0
2, 238080, Note_off_c, 1, 76, 0
2, 238120, Note_on_c, 1, 49, 127
2, 238120, Note_on_c, 1, 73, 127
2, 238240, Note_off_c, 1, 73, 0
2, 238280, Note_on_c, 1, 52, 127
2, 238280, Note_on_c, 1, 64, 127
2, 238360, Note_off_c, 1, 49, 0
2, 238360, Note_off_c, 1, 52, 0
2, 238360, Note_off_c, 1, 64, 0
2, 238400, Note_on_c, 1, 51, 127
2, 238400, Note_on_c, 1, 54, 127
2, 238400, Note_on_c, 1, 63, 127
2, 238520, Note_off_c, 1, 63, 0
2, 238560, Note_on_c, 1, 73, 127
2, 238640, Note_off_c, 1, 54, 0
2, 238640, Note_off_c, 1, 73, 0
2, 238680, Note_on_c, 1, 65, 127
2, 238680, Note_on_c, 1, 71, 127
2, 238760, Note_off_c, 1, 71, 0
2, 238800, Note_on_c, 1, 69, 127
2, 238920, Note_off_c, 1, 51, 0
2, 238920, Note_off_c, 1, 65, 0
2, 238920, Note_off_c, 1, 69, 0
2, 238960, Note_on_c, 1, 40, 127
2, 238960, Note_on_c, 1, 68, 127
2, 239080, Note_on_c, 1, 63, 127
2, 239200, Note_off_c, 1, 40, 0
2, 239200, Note_off_c, 1, 63, 0
2, 239200, Note_off_c, 1, 68, 0
2, 239240, Note_on_c, 1, 47, 127
2, 239240, Note_on_c, 1, 64, 127
2, 239320, Note_off_c, 1, 64, 0
2, 239360, Note_on_c, 1, 68, 127
2, 239480, Note_off_c, 1, 47, 0
2, 239480, Note_off_c, 1, 68, 0
2, 239520, Note_on_c, 1, 44, 127
2, 239520, Note_on_c, 1, 71, 127
2, 239600, Note_off_c, 1, 71, 0
2, 239640, Note_on_c, 1, 69, 127
2, 239760, Note_off_c, 1, 44, 0
2, 239760, Note_off_c, 1, 69, 0
2, 239800, Note_on_c, 1, 45, 127
2, 239800, Note_on_c, 1, 68, 127
2, 239880, Note_off_c, 1, 68, 0
2, 239920, Note_on_c, 1, 64, 127
2, 240040, Note_off_c, 1, 45, 0
2, 240040, Note_off_c, 1, 64, 0
2, 240080, Note_on_c, 1, 44, 127
2, 240080, Note_on_c, 1, 63, 127
2, 240160, Note_off_c, 1, 63, 0
2, 240200, Note_on_c, 1, 68, 127
2, 240320, Note_off_c, 1, 44, 0
2, 240320, Note_off_c, 1, 68, 0
2, 240360, Note_on_c, 1, 44, 127
2, 240360, Note_on_c, 1, 71, 127
2, 240480, Note_on_c, 1, 68, 127
2, 240600, Note_off_c, 1, 44, 0
2, 240600, Note_off_c, 1, 68, 0
2, 240600, Note_off_c, 1, 71, 0
2, 240640, Note_on_c, 1, 52, 127
2, 240640, Note_on_c, 1, 68, 127
2, 240720, Note_off_c, 1, 68, 0
2, 240760, Note_on_c, 1, 64, 127
2, 240880, Note_off_c, 1, 52, 0
2, 240880, Note_off_c, 1, 64, 0
2, 240920, Note_on_c, 1, 56, 127
2, 240920, Note_on_c, 1, 76, 127
2, 241040, Note_on_c, 1, 66, 127
2, 241080, Note_off_c, 1, 76, 0
2, 241160, Note_off_c, 1, 56, 0
2, 241160, Note_off_c, 1, 66, 0
2, 241200, Note_on_c, 1, 44, 127
2, 241200, Note_on_c, 1, 64, 127
2, 241280, Note_off_c, 1, 64, 0
2, 241320, Note_on_c, 1, 63, 127
2, 241400, Note_off_c, 1, 44, 0
2, 241400, Note_off_c, 1, 63, 0
2, 241480, Note_on_c, 1, 40, 127
2, 241480, Note_on_c, 1, 73, 127
2, 241600, Note_on_c, 1, 64, 127
2, 241680, Note_off_c, 1, 40, 0
2, 241680, Note_off_c, 1, 64, 0
2, 241680, Note_off_c, 1, 73, 0
2, 241720, Note_on_c, 1, 45, 127
2, 241720, Note_on_c, 1, 63, 127
2, 241840, Note_off_c, 1, 63, 0
2, 241880, Note_on_c, 1, 61, 127
2, 241960, Note_off_c, 1, 45, 0
2, 241960, Note_off_c, 1, 61, 0
2, 242000, Note_on_c, 1, 57, 127
2, 242000, Note_on_c, 1, 63, 127
2, 242080, Note_off_c, 1, 63, 0
2, 242120, Note_on_c, 1, 69, 127
2, 242240, Note_off_c, 1, 57, 0
2, 242240, Note_off_c, 1, 69, 0
2, 242280, Note_on_c, 1, 44, 127
2, 242280, Note_on_c, 1, 71, 127
2, 242400, Note_on_c, 1, 59, 127
2, 242520, Note_off_c, 1, 44, 0
2, 242520, Note_off_c, 1, 59, 0
2, 242520, Note_off_c, 1, 71, 0
2, 242560, Note_on_c, 1, 47, 127
2, 242560, Note_on_c, 1, 76, 127
2, 242680, Note_on_c, 1, 59, 127
2, 242800, Note_off_c, 1, 47, 0
2, 242800, Note_off_c, 1, 59, 0
2, 242800, Note_off_c, 1, 76, 0
2, 242840, Note_on_c, 1, 52, 127
2, 242840, Note_on_c, 1, 64, 127
2, 242920, Note_off_c, 1, 64, 0
2, 242960, Note_on_c, 1, 71, 127
2, 243080, Note_off_c, 1, 52, 0
2, 243080, Note_off_c, 1, 71, 0
2, 243120, Note_on_c, 1, 47, 127
2, 243120, Note_on_c, 1, 68, 127
2, 243200, Note_off_c, 1, 68, 0
2, 243240, Note_on_c, 1, 76, 127
2, 243360, Note_off_c, 1, 47, 0
2, 243360, Note_off_c, 1, 76, 0
2, 243400, Note_on_c, 1, 51, 127
2, 243400, Note_on_c, 1, 75, 127
2, 243480, Note_off_c, 1, 75, 0
2, 243520, Note_on_c, 1, 71, 127
2, 243640, Note_off_c, 1, 51, 0
2, 243640, Note_off_c, 1, 71, 0
2, 243680, Note_on_c, 1, 49, 127
2, 243680, Note_on_c, 1, 64, 127
2, 243760, Note_off_c, 1, 64, 0
2, 243800, Note_on_c, 1, 69, 127
2, 243880, Note_off_c, 1, 49, 0
2, 243880, Note_off_c, 1, 69, 0
2, 243880, Note_on_c, 1, 75, 127
2, 243920, Note_off_c, 1, 75, 0
2, 243960, Note_on_c, 1, 45, 127
2, 243960, Note_on_c, 1, 73, 127
2, 244040, Note_off_c, 1, 73, 0
2, 244080, Note_on_c, 1, 69, 127
2, 244200, Note_off_c, 1, 45, 0
2, 244200, Note_off_c, 1, 69, 0
2, 244240, Note_on_c, 1, 51, 127
2, 244240, Note_on_c, 1, 78, 127
2, 244320, Note_off_c, 1, 78, 0
2, 244360, Note_on_c, 1, 69, 127
2, 244480, Note_off_c, 1, 51, 0
2, 244480, Note_off_c, 1, 69, 0
2, 244520, Note_on_c, 1, 52, 127
2, 244520, Note_on_c, 1, 68, 127
2, 244600, Note_off_c, 1, 68, 0
2, 244640, Note_on_c, 1, 69, 127
2, 244720, Note_off_c, 1, 52, 0
2, 244720, Note_off_c, 1, 69, 0
2, 244800, Note_on_c, 1, 56, 127
2, 244800, Note_on_c, 1, 68, 127
2, 244880, Note_off_c, 1, 68, 0
2, 244920, Note_on_c, 1, 66, 127
2, 245000, Note_off_c, 1, 56, 0
2, 245000, Note_off_c, 1, 66, 0
2, 245080, Note_on_c, 1, 52, 127
2, 245080, Note_on_c, 1, 68, 127
2, 245160, Note_off_c, 1, 68, 0
2, 245200, Note_on_c, 1, 64, 127
2, 245280, Note_off_c, 1, 52, 0
2, 245280, Note_off_c, 1, 64, 0
2, 245320, Note_on_c, 1, 54, 127
2, 245320, Note_on_c, 1, 63, 127
2, 245440, Note_off_c, 1, 54, 0
2, 245440, Note_off_c, 1, 63, 0
2, 245480, Note_on_c, 1, 53, 127
2, 245480, Note_on_c, 1, 72, 127
2, 245560, Note_off_c, 1, 53, 0
2, 245560, Note_off_c, 1, 72, 0
2, 245600, Note_on_c, 1, 51, 127
2, 245600, Note_on_c, 1, 71, 127
2, 245720, Note_off_c, 1, 51, 0
2, 245720, Note_off_c, 1, 71, 0
2, 245760, Note_on_c, 1, 49, 127
2, 245760, Note_on_c, 1, 69, 127
2, 245840, Note_off_c, 1, 49, 0
2, 245840, Note_off_c, 1, 69, 0
2, 245880, Note_on_c, 1, 47, 127
2, 245880, Note_on_c, 1, 68, 127
2, 246000, Note_off_c, 1, 47, 0
2, 246000, Note_off_c, 1, 68, 0
2, 246040, Note_on_c, 1, 51, 127
2, 246040, Note_on_c, 1, 71, 127
2, 246120, Note_off_c, 1, 51, 0
2, 246120, Note_off_c, 1, 71, 0
2, 246160, Note_on_c, 1, 49, 127
2, 246160, Note_on_c, 1, 69, 127
2, 246280, Note_off_c, 1, 49, 0
2, 246280, Note_off_c, 1, 69, 0
2, 246320, Note_on_c, 1, 68, 127
2, 246400, Note_off_c, 1, 68, 0
2, 246440, Note_on_c, 1, 49, 127
2, 246440, Note_on_c, 1, 76, 127
2, 246560, Note_off_c, 1, 49, 0
2, 246600, Note_on_c, 1, 49, 127
2, 246680, Note_off_c, 1, 49, 0
2, 246680, Note_off_c, 1, 76, 0
2, 246720, Note_on_c, 1, 47, 127
2, 246720, Note_on_c, 1, 68, 127
2, 246840, Note_off_c, 1, 47, 0
2, 246880, Note_on_c, 1, 45, 127
2, 246960, Note_off_c, 1, 45, 0
2, 246960, Note_off_c, 1, 68, 0
2, 247000, Note_on_c, 1, 44, 127
2, 247000, Note_on_c, 1, 76, 127
2, 247120, Note_off_c, 1, 44, 0
2, 247160, Note_on_c, 1, 48, 127
2, 247200, Note_off_c, 1, 76, 0
2, 247240, Note_off_c, 1, 48, 0
2, 247280, Note_on_c, 1, 50, 127
2, 247280, Note_on_c, 1, 77, 127
2, 247400, Note_off_c, 1, 50, 0
2, 247440, Note_on_c, 1, 42, 127
2, 247520, Note_off_c, 1, 42, 0
2, 247520, Note_off_c, 1, 77, 0
2, 247560, Note_on_c, 1, 44, 127
2, 247560, Note_on_c, 1, 68, 127
2, 247680, Note_off_c, 1, 44, 0
2, 247680, Note_off_c, 1, 68, 0
2, 247720, Note_on_c, 1, 47, 127
2, 247720, Note_on_c, 1, 59, 127
2, 247800, Note_off_c, 1, 47, 0
2, 247800, Note_off_c, 1, 59, 0
2, 247840, Note_on_c, 1, 46, 127
2, 247840, Note_on_c, 1, 61, 127
2, 247960, Note_off_c, 1, 46, 0
2, 247960, Note_off_c, 1, 61, 0
2, 248000, Note_on_c, 1, 47, 127
2, 248000, Note_on_c, 1, 65, 127
2, 248080, Note_off_c, 1, 47, 0
2, 248080, Note_off_c, 1, 65, 0
2, 248120, Note_on_c, 1, 49, 127
2, 248120, Note_on_c, 1, 74, 127
2, 248240, Note_off_c, 1, 49, 0
2, 248280, Note_on_c, 1, 42, 127
2, 248360, Note_off_c, 1, 42, 0
2, 248360, Note_off_c, 1, 74, 0
2, 248440, Note_on_c, 1, 44, 127
2, 248440, Note_on_c, 1, 77, 127
2, 248520, Note_off_c, 1, 44, 0
2, 248560, Note_on_c, 1, 47, 127
2, 248680, Note_off_c, 1, 47, 0
2, 248680, Note_off_c, 1, 77, 0
2, 248720, Note_on_c, 1, 45, 127
2, 248720, Note_on_c, 1, 78, 127
2, 248800, Note_off_c, 1, 45, 0
2, 248840, Note_on_c, 1, 44, 127
2, 248960, Note_off_c, 1, 44, 0
2, 249000, Note_on_c, 1, 42, 127
2, 249120, Note_on_c, 1, 54, 127
2, 249240, Note_off_c, 1, 42, 0
2, 249240, Note_off_c, 1, 54, 0
2, 249240, Note_off_c, 1, 78, 0
2, 249280, Note_on_c, 1, 47, 127
2, 249280, Note_on_c, 1, 74, 127
2, 249360, Note_off_c, 1, 47, 0
2, 249400, Note_on_c, 1, 54, 127
2, 249520, Note_off_c, 1, 54, 0
2, 249520, Note_off_c, 1, 74, 0
2, 249560, Note_on_c, 1, 59, 127
2, 249680, Note_on_c, 1, 57, 127
2, 249760, Note_off_c, 1, 57, 0
2, 249760, Note_off_c, 1, 59, 0
2, 249800, Note_on_c, 1, 61, 127
2, 249800, Note_on_c, 1, 69, 127
2, 249880, Note_off_c, 1, 61, 0
2, 249960, Note_on_c, 1, 62, 127
2, 250040, Note_off_c, 1, 62, 0
2, 250040, Note_off_c, 1, 69, 0
2, 250080, Note_on_c, 1, 56, 127
2, 250080, Note_on_c, 1, 68, 127
2, 250160, Note_off_c, 1, 56, 0
2, 250200, Note_on_c, 1, 57, 127
2, 250280, Note_off_c, 1, 57, 0
2, 250280, Note_off_c, 1, 68, 0
2, 250320, Note_on_c, 1, 53, 127
2, 250320, Note_on_c, 1, 62, 127
2, 250440, Note_off_c, 1, 62, 0
2, 250480, Note_on_c, 1, 68, 127
2, 250560, Note_off_c, 1, 53, 0
2, 250600, Note_off_c, 1, 68, 0
2, 250640, Note_on_c, 1, 56, 127
2, 250640, Note_on_c, 1, 76, 127
2, 250720, Note_off_c, 1, 76, 0
2, 250760, Note_on_c, 1, 74, 127
2, 250760, Note_on_c, 1, 83, 127
2, 250840, Note_off_c, 1, 74, 0
2, 250880, Note_off_c, 1, 56, 0
2, 250880, Note_off_c, 1, 83, 0
2, 250920, Note_on_c, 1, 53, 127
2, 250920, Note_on_c, 1, 85, 127
2, 250960, Note_on_c, 1, 83, 127
2, 250960, Note_off_c, 1, 85, 0
2, 251000, Note_off_c, 1, 83, 0
2, 251040, Note_on_c, 1, 80, 127
2, 251160, Note_off_c, 1, 53, 0
2, 251160, Note_off_c, 1, 80, 0
2, 251200, Note_on_c, 1, 47, 127
2, 251200, Note_on_c, 1, 83, 127
2, 251280, Note_off_c, 1, 83, 0
2, 251320, Note_on_c, 1, 81, 127
2, 251400, Note_off_c, 1, 47, 0
2, 251400, Note_off_c, 1, 81, 0
2, 251480, Note_on_c, 1, 49, 127
2, 251480, Note_on_c, 1, 80, 127
2, 251560, Note_off_c, 1, 80, 0
2, 251600, Note_on_c, 1, 78, 127
2, 251680, Note_off_c, 1, 49, 0
2, 251680, Note_off_c, 1, 78, 0
2, 251720, Note_on_c, 1, 48, 127
2, 251720, Note_on_c, 1, 80, 127
2, 251840, Note_off_c, 1, 80, 0
2, 251880, Note_on_c, 1, 78, 127
2, 251960, Note_off_c, 1, 48, 0
2, 251960, Note_off_c, 1, 78, 0
2, 252000, Note_on_c, 1, 49, 127
2, 252000, Note_on_c, 1, 77, 127
2, 252120, Note_off_c, 1, 77, 0
2, 252160, Note_on_c, 1, 78, 127
2, 252240, Note_off_c, 1, 49, 0
2, 252240, Note_off_c, 1, 78, 0
2, 252280, Note_on_c, 1, 53, 127
2, 252280, Note_on_c, 1, 80, 127
2, 252400, Note_off_c, 1, 80, 0
2, 252440, Note_on_c, 1, 78, 127
2, 252520, Note_off_c, 1, 53, 0
2, 252520, Note_off_c, 1, 78, 0
2, 252560, Note_on_c, 1, 54, 127
2, 252560, Note_on_c, 1, 77, 127
2, 252680, Note_off_c, 1, 77, 0
2, 252720, Note_on_c, 1, 78, 127
2, 252800, Note_off_c, 1, 54, 0
2, 252800, Note_off_c, 1, 78, 0
2, 252840, Note_on_c, 1, 53, 127
2, 252840, Note_on_c, 1, 72, 127
2, 252840, Note_on_c, 1, 80, 127
2, 252960, Note_off_c, 1, 72, 0
2, 252960, Note_off_c, 1, 80, 0
2, 253000, Note_on_c, 1, 68, 127
2, 253080, Note_off_c, 1, 53, 0
2, 253080, Note_off_c, 1, 68, 0
2, 253120, Note_on_c, 1, 48, 127
2, 253120, Note_on_c, 1, 69, 127
2, 253240, Note_off_c, 1, 69, 0
2, 253280, Note_on_c, 1, 70, 127
2, 253360, Note_off_c, 1, 48, 0
2, 253360, Note_off_c, 1, 70, 0
2, 253400, Note_on_c, 1, 49, 127
2, 253400, Note_on_c, 1, 69, 127
2, 253520, Note_off_c, 1, 69, 0
2, 253560, Note_on_c, 1, 68, 127
2, 253640, Note_off_c, 1, 49, 0
2, 253640, Note_off_c, 1, 68, 0
2, 253720, Note_on_c, 1, 42, 127
2, 253720, Note_on_c, 1, 66, 127
2, 253800, Note_off_c, 1, 66, 0
2, 253840, Note_on_c, 1, 65, 127
2, 253960, Note_off_c, 1, 42, 0
2, 253960, Note_off_c, 1, 65, 0
2, 254000, Note_on_c, 1, 41, 127
2, 254000, Note_on_c, 1, 62, 127
2, 254120, Note_off_c, 1, 62, 0
2, 254160, Note_on_c, 1, 73, 127
2, 254240, Note_off_c, 1, 41, 0
2, 254240, Note_off_c, 1, 73, 0
2, 254280, Note_on_c, 1, 39, 127
2, 254280, Note_on_c, 1, 68, 127
2, 254400, Note_off_c, 1, 68, 0
2, 254440, Note_on_c, 1, 66, 127
2, 254520, Note_off_c, 1, 39, 0
2, 254520, Note_off_c, 1, 66, 0
2, 254560, Note_on_c, 1, 49, 127
2, 254560, Note_on_c, 1, 65, 127
2, 254680, Note_off_c, 1, 65, 0
2, 254720, Note_on_c, 1, 68, 127
2, 254800, Note_off_c, 1, 49, 0
2, 254800, Note_off_c, 1, 68, 0
2, 254840, Note_on_c, 1, 47, 127
2, 254840, Note_on_c, 1, 69, 127
2, 254960, Note_off_c, 1, 69, 0
2, 255000, Note_on_c, 1, 68, 127
2, 255080, Note_off_c, 1, 47, 0
2, 255080, Note_off_c, 1, 68, 0
2, 255120, Note_on_c, 1, 50, 127
2, 255120, Note_on_c, 1, 66, 127
2, 255280, Note_on_c, 1, 69, 127
2, 255360, Note_off_c, 1, 50, 0
2, 255360, Note_off_c, 1, 66, 0
2, 255360, Note_off_c, 1, 69, 0
2, 255400, Note_on_c, 1, 44, 127
2, 255400, Note_on_c, 1, 71, 127
2, 255520, Note_off_c, 1, 71, 0
2, 255560, Note_on_c, 1, 68, 127
2, 255640, Note_off_c, 1, 44, 0
2, 255640, Note_off_c, 1, 68, 0
2, 255680, Note_on_c, 1, 42, 127
2, 255680, Note_on_c, 1, 69, 127
2, 255800, Note_off_c, 1, 69, 0
2, 255840, Note_on_c, 1, 61, 127
2, 255920, Note_off_c, 1, 42, 0
2, 255920, Note_off_c, 1, 61, 0
2, 255960, Note_on_c, 1, 47, 127
2, 255960, Note_on_c, 1, 62, 127
2, 256080, Note_off_c, 1, 62, 0
2, 256120, Note_on_c, 1, 59, 127
2, 256200, Note_off_c, 1, 47, 0
2, 256200, Note_off_c, 1, 59, 0
2, 256240, Note_on_c, 1, 37, 127
2, 256240, Note_on_c, 1, 62, 127
2, 256360, Note_off_c, 1, 62, 0
2, 256400, Note_on_c, 1, 61, 127
2, 256480, Note_off_c, 1, 37, 0
2, 256480, Note_off_c, 1, 61, 0
2, 256520, Note_on_c, 1, 59, 127
2, 256600, Note_off_c, 1, 59, 0
2, 256640, Note_on_c, 1, 61, 127
2, 256760, Note_off_c, 1, 61, 0
2, 256800, Note_on_c, 1, 59, 127
2, 256800, Note_on_c, 1, 68, 127
2, 256880, Note_off_c, 1, 59, 0
2, 256920, Note_on_c, 1, 56, 127
2, 257040, Note_off_c, 1, 56, 0
2, 257040, Note_off_c, 1, 68, 0
2, 257080, Note_on_c, 1, 54, 127
2, 257080, Note_on_c, 1, 70, 127
2, 257160, Note_off_c, 1, 54, 0
2, 257200, Note_on_c, 1, 56, 127
2, 257280, Note_off_c, 1, 56, 0
2, 257280, Note_off_c, 1, 70, 0
2, 257320, Note_on_c, 1, 58, 127
2, 257320, Note_on_c, 1, 73, 127
2, 257440, Note_off_c, 1, 58, 0
2, 257440, Note_off_c, 1, 73, 0
2, 257480, Note_on_c, 1, 59, 127
2, 257480, Note_on_c, 1, 71, 127
2, 257560, Note_off_c, 1, 59, 0
2, 257560, Note_off_c, 1, 71, 0
2, 257600, Note_on_c, 1, 61, 127
2, 257600, Note_on_c, 1, 70, 127
2, 257720, Note_off_c, 1, 70, 0
2, 257760, Note_on_c, 1, 68, 127
2, 257840, Note_off_c, 1, 61, 0
2, 257840, Note_off_c, 1, 68, 0
2, 257880, Note_on_c, 1, 54, 127
2, 257880, Note_on_c, 1, 70, 127
2, 258000, Note_off_c, 1, 70, 0
2, 258040, Note_on_c, 1, 73, 127
2, 258120, Note_off_c, 1, 54, 0
2, 258120, Note_off_c, 1, 73, 0
2, 258160, Note_on_c, 1, 58, 127
2, 258160, Note_on_c, 1, 66, 127
2, 258240, Note_off_c, 1, 66, 0
2, 258280, Note_on_c, 1, 71, 127
2, 258400, Note_off_c, 1, 58, 0
2, 258400, Note_off_c, 1, 71, 0
2, 258440, Note_on_c, 1, 54, 127
2, 258440, Note_on_c, 1, 70, 127
2, 258520, Note_off_c, 1, 70, 0
2, 258560, Note_on_c, 1, 71, 127
2, 258680, Note_off_c, 1, 54, 0
2, 258680, Note_off_c, 1, 71, 0
2, 258720, Note_on_c, 1, 56, 127
2, 258720, Note_on_c, 1, 65, 127
2, 258800, Note_off_c, 1, 65, 0
2, 258840, Note_on_c, 1, 63, 127
2, 258960, Note_off_c, 1, 56, 0
2, 258960, Note_off_c, 1, 63, 0
2, 259000, Note_on_c, 1, 57, 127
2, 259000, Note_on_c, 1, 66, 127
2, 259080, Note_off_c, 1, 66, 0
2, 259120, Note_on_c, 1, 73, 127
2, 259200, Note_off_c, 1, 57, 0
2, 259200, Note_off_c, 1, 73, 0
2, 259240, Note_on_c, 1, 54, 127
2, 259240, Note_on_c, 1, 62, 127
2, 259360, Note_off_c, 1, 62, 0
2, 259400, Note_on_c, 1, 61, 127
2, 259480, Note_off_c, 1, 54, 0
2, 259480, Note_off_c, 1, 61, 0
2, 259520, Note_on_c, 1, 59, 127
2, 259520, Note_on_c, 1, 63, 127
2, 259680, Note_on_c, 1, 74, 127
2, 259760, Note_off_c, 1, 59, 0
2, 259760, Note_off_c, 1, 63, 0
2, 259760, Note_off_c, 1, 74, 0
2, 259800, Note_on_c, 1, 46, 127
2, 259800, Note_on_c, 1, 67, 127
2, 259960, Note_on_c, 1, 74, 127
2, 260000, Note_off_c, 1, 67, 0
2, 260040, Note_off_c, 1, 46, 0
2, 260040, Note_off_c, 1, 74, 0
2, 260080, Note_on_c, 1, 44, 127
2, 260080, Note_on_c, 1, 71, 127
2, 260240, Note_on_c, 1, 68, 127
2, 260320, Note_off_c, 1, 44, 0
2, 260320, Note_off_c, 1, 68, 0
2, 260360, Note_on_c, 1, 42, 127
2, 260360, Note_on_c, 1, 66, 127
2, 260440, Note_off_c, 1, 66, 0
2, 260520, Note_on_c, 1, 66, 127
2, 260600, Note_off_c, 1, 42, 0
2, 260600, Note_off_c, 1, 66, 0
2, 260600, Note_off_c, 1, 71, 0
2, 260640, Note_on_c, 1, 46, 127
2, 260760, Note_on_c, 1, 77, 127
2, 260880, Note_off_c, 1, 46, 0
2, 260880, Note_off_c, 1, 77, 0
2, 260920, Note_on_c, 1, 51, 127
2, 260920, Note_on_c, 1, 78, 127
2, 261040, Note_on_c, 1, 70, 127
2, 261160, Note_off_c, 1, 51, 0
2, 261160, Note_off_c, 1, 70, 0
2, 261160, Note_off_c, 1, 78, 0
2, 261200, Note_on_c, 1, 39, 127
2, 261200, Note_on_c, 1, 70, 127
2, 261280, Note_off_c, 1, 70, 0
2, 261320, Note_on_c, 1, 71, 127
2, 261440, Note_off_c, 1, 39, 0
2, 261440, Note_off_c, 1, 71, 0
2, 261480, Note_on_c, 1, 51, 127
2, 261480, Note_on_c, 1, 70, 127
2, 261560, Note_off_c, 1, 70, 0
2, 261600, Note_on_c, 1, 80, 127
2, 261720, Note_off_c, 1, 51, 0
2, 261720, Note_off_c, 1, 80, 0
2, 261760, Note_on_c, 1, 49, 127
2, 261760, Note_on_c, 1, 82, 127
2, 261840, Note_off_c, 1, 82, 0
2, 261880, Note_on_c, 1, 82, 127
2, 262000, Note_off_c, 1, 49, 0
2, 262000, Note_off_c, 1, 82, 0
2, 262040, Note_on_c, 1, 59, 127
2, 262040, Note_on_c, 1, 83, 127
2, 262280, Note_off_c, 1, 59, 0
2, 262320, Note_on_c, 1, 51, 127
2, 262320, Note_on_c, 1, 75, 127
2, 262400, Note_off_c, 1, 75, 0
2, 262440, Note_on_c, 1, 75, 127
2, 262560, Note_off_c, 1, 51, 0
2, 262560, Note_off_c, 1, 75, 0
2, 262560, Note_off_c, 1, 83, 0
2, 262600, Note_on_c, 1, 59, 127
2, 262600, Note_on_c, 1, 73, 127
2, 262680, Note_off_c, 1, 73, 0
2, 262720, Note_on_c, 1, 71, 127
2, 262840, Note_off_c, 1, 59, 0
2, 262840, Note_off_c, 1, 71, 0
2, 262880, Note_on_c, 1, 63, 127
2, 262880, Note_on_c, 1, 70, 127
2, 262960, Note_off_c, 1, 70, 0
2, 263000, Note_on_c, 1, 68, 127
2, 263120, Note_off_c, 1, 63, 0
2, 263120, Note_off_c, 1, 68, 0
2, 263160, Note_on_c, 1, 59, 127
2, 263160, Note_on_c, 1, 71, 127
2, 263240, Note_off_c, 1, 71, 0
2, 263280, Note_on_c, 1, 70, 127
2, 263360, Note_off_c, 1, 59, 0
2, 263360, Note_off_c, 1, 70, 0
2, 263440, Note_on_c, 1, 56, 127
2, 263440, Note_on_c, 1, 68, 127
2, 263520, Note_off_c, 1, 68, 0
2, 263560, Note_on_c, 1, 71, 127
2, 263640, Note_off_c, 1, 56, 0
2, 263640, Note_off_c, 1, 71, 0
2, 263680, Note_on_c, 1, 59, 127
2, 263680, Note_on_c, 1, 80, 127
2, 263800, Note_off_c, 1, 80, 0
2, 263840, Note_on_c, 1, 73, 127
2, 263960, Note_off_c, 1, 59, 0
2, 263960, Note_off_c, 1, 73, 0
2, 264000, Note_on_c, 1, 47, 127
2, 264000, Note_on_c, 1, 66, 127
2, 264000, Note_on_c, 1, 71, 127
2, 264240, Note_off_c, 1, 47, 0
2, 264240, Note_off_c, 1, 66, 0
2, 264240, Note_off_c, 1, 71, 0
2, 264280, Note_on_c, 1, 66, 127
2, 264360, Note_off_c, 1, 66, 0
2, 264400, Note_on_c, 1, 65, 127
2, 264520, Note_off_c, 1, 65, 0
2, 264560, Note_on_c, 1, 63, 127
2, 264560, Note_on_c, 1, 75, 127
2, 264640, Note_off_c, 1, 75, 0
2, 264680, Note_on_c, 1, 78, 127
2, 264800, Note_off_c, 1, 63, 0
2, 264800, Note_off_c, 1, 78, 0
2, 264840, Note_on_c, 1, 54, 127
2, 264840, Note_on_c, 1, 82, 127
2, 264920, Note_off_c, 1, 82, 0
2, 264960, Note_on_c, 1, 83, 127
2, 265080, Note_off_c, 1, 54, 0
2, 265080, Note_off_c, 1, 83, 0
2, 265120, Note_on_c, 1, 59, 127
2, 265120, Note_on_c, 1, 85, 127
2, 265200, Note_off_c, 1, 85, 0
2, 265240, Note_on_c, 1, 78, 127
2, 265320, Note_off_c, 1, 59, 0
2, 265320, Note_off_c, 1, 78, 0
2, 265360, Note_on_c, 1, 59, 127
2, 265360, Note_on_c, 1, 80, 127
2, 265480, Note_off_c, 1, 80, 0
2, 265520, Note_on_c, 1, 78, 127
2, 265600, Note_off_c, 1, 59, 0
2, 265600, Note_off_c, 1, 78, 0
2, 265640, Note_on_c, 1, 56, 127
2, 265640, Note_on_c, 1, 80, 127
2, 265760, Note_off_c, 1, 80, 0
2, 265800, Note_on_c, 1, 76, 127
2, 265880, Note_off_c, 1, 56, 0
2, 265880, Note_off_c, 1, 76, 0
2, 265920, Note_on_c, 1, 54, 127
2, 265920, Note_on_c, 1, 75, 127
2, 266040, Note_off_c, 1, 75, 0
2, 266080, Note_on_c, 1, 73, 127
2, 266160, Note_off_c, 1, 54, 0
2, 266160, Note_off_c, 1, 73, 0
2, 266200, Note_on_c, 1, 56, 127
2, 266200, Note_on_c, 1, 71, 127
2, 266280, Note_off_c, 1, 71, 0
2, 266320, Note_on_c, 1, 75, 127
2, 266440, Note_off_c, 1, 56, 0
2, 266440, Note_off_c, 1, 75, 0
2, 266480, Note_on_c, 1, 54, 127
2, 266480, Note_on_c, 1, 76, 127
2, 266560, Note_off_c, 1, 76, 0
2, 266600, Note_on_c, 1, 73, 127
2, 266720, Note_off_c, 1, 54, 0
2, 266720, Note_off_c, 1, 73, 0
2, 266760, Note_on_c, 1, 59, 127
2, 266760, Note_on_c, 1, 75, 127
2, 266840, Note_off_c, 1, 75, 0
2, 266880, Note_on_c, 1, 71, 127
2, 266960, Note_off_c, 1, 59, 0
2, 267000, Note_off_c, 1, 71, 0
2, 267040, Note_on_c, 1, 52, 127
2, 267040, Note_on_c, 1, 68, 127
2, 267120, Note_off_c, 1, 68, 0
2, 267160, Note_on_c, 1, 71, 127
2, 267240, Note_off_c, 1, 52, 0
2, 267240, Note_off_c, 1, 71, 0
2, 267280, Note_on_c, 1, 56, 127
2, 267280, Note_on_c, 1, 64, 127
2, 267400, Note_off_c, 1, 64, 0
2, 267440, Note_on_c, 1, 68, 127
2, 267520, Note_off_c, 1, 56, 0
2, 267560, Note_off_c, 1, 68, 0
2, 267600, Note_on_c, 1, 59, 127
2, 267600, Note_on_c, 1, 63, 127
2, 267680, Note_off_c, 1, 63, 0
2, 267720, Note_on_c, 1, 64, 127
2, 267840, Note_off_c, 1, 59, 0
2, 267840, Note_off_c, 1, 64, 0
2, 267880, Note_on_c, 1, 47, 127
2, 267880, Note_on_c, 1, 66, 127
2, 267960, Note_off_c, 1, 66, 0
2, 268000, Note_on_c, 1, 63, 127
2, 268120, Note_off_c, 1, 47, 0
2, 268120, Note_off_c, 1, 63, 0
2, 268160, Note_on_c, 1, 52, 127
2, 268160, Note_on_c, 1, 64, 127
2, 268240, Note_off_c, 1, 52, 0
2, 268240, Note_off_c, 1, 64, 0
2, 268280, Note_on_c, 1, 51, 127
2, 268280, Note_on_c, 1, 66, 127
2, 268400, Note_off_c, 1, 51, 0
2, 268400, Note_off_c, 1, 66, 0
2, 268440, Note_on_c, 1, 40, 127
2, 268440, Note_on_c, 1, 68, 127
2, 268560, Note_off_c, 1, 68, 0
2, 268560, Note_on_c, 1, 71, 127
2, 268680, Note_off_c, 1, 40, 0
2, 268680, Note_off_c, 1, 71, 0
2, 268720, Note_on_c, 1, 56, 127
2, 268720, Note_on_c, 1, 64, 127
2, 268800, Note_off_c, 1, 64, 0
2, 268840, Note_on_c, 1, 71, 127
2, 268960, Note_off_c, 1, 56, 0
2, 268960, Note_off_c, 1, 71, 0
2, 269000, Note_on_c, 1, 52, 127
2, 269000, Note_on_c, 1, 68, 127
2, 269080, Note_off_c, 1, 68, 0
2, 269120, Note_on_c, 1, 71, 127
2, 269200, Note_off_c, 1, 52, 0
2, 269200, Note_off_c, 1, 71, 0
2, 269280, Note_on_c, 1, 56, 127
2, 269280, Note_on_c, 1, 64, 127
2, 269360, Note_off_c, 1, 64, 0
2, 269400, Note_on_c, 1, 68, 127
2, 269480, Note_off_c, 1, 56, 0
2, 269480, Note_off_c, 1, 68, 0
2, 269560, Note_on_c, 1, 57, 127
2, 269560, Note_on_c, 1, 66, 127
2, 269640, Note_off_c, 1, 66, 0
2, 269680, Note_on_c, 1, 68, 127
2, 269760, Note_off_c, 1, 57, 0
2, 269760, Note_off_c, 1, 68, 0
2, 269800, Note_on_c, 1, 54, 127
2, 269800, Note_on_c, 1, 64, 127
2, 269920, Note_off_c, 1, 64, 0
2, 269960, Note_on_c, 1, 69, 127
2, 270040, Note_off_c, 1, 54, 0
2, 270040, Note_off_c, 1, 69, 0
2, 270080, Note_on_c, 1, 56, 127
2, 270080, Note_on_c, 1, 64, 127
2, 270160, Note_off_c, 1, 64, 0
2, 270200, Note_on_c, 1, 63, 127
2, 270320, Note_off_c, 1, 56, 0
2, 270320, Note_off_c, 1, 63, 0
2, 270360, Note_on_c, 1, 57, 127
2, 270360, Note_on_c, 1, 64, 127
2, 270440, Note_off_c, 1, 64, 0
2, 270480, Note_on_c, 1, 66, 127
2, 270600, Note_off_c, 1, 57, 0
2, 270600, Note_off_c, 1, 66, 0
2, 270640, Note_on_c, 1, 47, 127
2, 270640, Note_on_c, 1, 63, 127
2, 270720, Note_off_c, 1, 63, 0
2, 270760, Note_on_c, 1, 64, 127
2, 270880, Note_off_c, 1, 47, 0
2, 270880, Note_off_c, 1, 64, 0
2, 270920, Note_on_c, 1, 47, 127
2, 270920, Note_on_c, 1, 63, 127
2, 270960, Note_off_c, 1, 47, 0
2, 270960, Note_off_c, 1, 63, 0
2, 271000, End_track
3, 0, Start_track
3, 0, Title_t, "MIDI"
3, 1536, End_track
0, 0, End_of_file
