0, 0, Header, 1, 3, 384
1, 0, Start_track
1, 0, Time_signature, 4, 2, 24, 8
1, 0, Tempo, 500000
1, 91840, End_track
2, 0, Start_track
2, 0, Text_t, "harpsichord: John Sankey"
2, 0, Title_t, "Track 1"
2, 0, Note_on_c, 1, 105, 127
2, 40, Note_off_c, 1, 105, 0
2, 160, Note_on_c, 1, 67, 127
2, 160, Note_on_c, 1, 76, 127
2, 160, Note_on_c, 1, 83, 127
2, 160, Note_on_c, 1, 97, 127
2, 160, Note_on_c, 1, 104, 127
2, 200, Note_off_c, 1, 67, 0
2, 200, Note_on_c, 1, 82, 127
2, 200, Note_off_c, 1, 83, 0
2, 480, Note_off_c, 1, 97, 0
2, 480, Note_off_c, 1, 104, 0
2, 520, Note_off_c, 1, 76, 0
2, 520, Note_on_c, 1, 77, 127
2, 520, Note_off_c, 1, 82, 0
2, 560, Note_on_c, 1, 59, 127
2, 560, Note_off_c, 1, 77, 0
2, 600, Note_off_c, 1, 59, 0
2, 920, Note_on_c, 1, 78, 127
2, 920, Note_on_c, 1, 82, 127
2, 920, Note_on_c, 1, 95, 127
2, 920, Note_on_c, 1, 107, 127
2, 960, Note_off_c, 1, 78, 0
2, 960, Note_on_c, 1, 79, 127
2, 1160, Note_off_c, 1, 82, 0
2, 1240, Note_off_c, 1, 79, 0
2, 1240, Note_off_c, 1, 95, 0
2, 1240, Note_off_c, 1, 107, 0
2, 1400, Note_on_c, 1, 61, 127
2, 1400, Note_on_c, 1, 76, 127
2, 1400, Note_on_c, 1, 93, 127
2, 1400, Note_on_c, 1, 107, 127
2, 1440, Note_on_c, 1, 83, 127
2, 1440, Note_on_c, 1, 88, 127
2, 1480, Note_on_c, 1, 100, 127
2, 1560, Note_off_c, 1, 93, 0
2, 1600, Note_off_c, 1, 61, 0
2, 1600, Note_off_c, 1, 76, 0
2, 1600, Note_off_c, 1, 83, 0
2, 1600, Note_off_c, 1, 88, 0
2, 1600, Note_off_c, 1, 100, 0
2, 1600, Note_off_c, 1, 107, 0
2, 1960, Note_on_c, 1, 61, 127
2, 1960, Note_on_c, 1, 76, 127
2, 2000, Note_on_c, 1, 82, 127
2, 2000, Note_on_c, 1, 96, 127
2, 2000, Note_on_c, 1, 107, 127
2, 2040, Note_off_c, 1, 107, 0
2, 2440, Note_off_c, 1, 61, 0
2, 2520, Note_off_c, 1, 76, 0
2, 2520, Note_off_c, 1, 96, 0
2, 2600, Note_off_c, 1, 82, 0
2, 2840, Note_on_c, 1, 82, 127
2, 2880, Note_off_c, 1, 82, 0
2, 2880, Note_on_c, 1, 84, 127
2, 2880, Note_on_c, 1, 95, 127
2, 2880, Note_on_c, 1, 107, 127
2, 2920, Note_on_c, 1, 80, 127
2, 3000, Note_off_c, 1, 84, 0
2, 3000, Note_off_c, 1, 95, 0
2, 3040, Note_off_c, 1, 80, 0
2, 3040, Note_off_c, 1, 107, 0
2, 3080, Note_on_c, 1, 82, 127
2, 3120, Note_off_c, 1, 82, 0
2, 3320, Note_on_c, 1, 80, 127
2, 3320, Note_on_c, 1, 82, 127
2, 3320, Note_on_c, 1, 104, 127
2, 3360, Note_on_c, 1, 72, 127
2, 3360, Note_on_c, 1, 76, 127
2, 3360, Note_on_c, 1, 78, 127
2, 3520, Note_off_c, 1, 72, 0
2, 3520, Note_off_c, 1, 76, 0
2, 3520, Note_off_c, 1, 104, 0
2, 3560, Note_off_c, 1, 78, 0
2, 3560, Note_off_c, 1, 80, 0
2, 3560, Note_off_c, 1, 82, 0
2, 3680, Note_on_c, 1, 78, 127
2, 3680, Note_on_c, 1, 82, 127
2, 3680, Note_on_c, 1, 102, 127
2, 3720, Note_on_c, 1, 74, 127
2, 3720, Note_on_c, 1, 76, 127
2, 3720, Note_on_c, 1, 79, 127
2, 3760, Note_off_c, 1, 78, 0
2, 3800, Note_off_c, 1, 102, 0
2, 3960, Note_on_c, 1, 65, 127
2, 4000, Note_off_c, 1, 65, 0
2, 4200, Note_on_c, 1, 98, 127
2, 4320, Note_on_c, 1, 102, 127
2, 4360, Note_off_c, 1, 98, 0
2, 4360, Note_off_c, 1, 102, 0
2, 4400, Note_on_c, 1, 103, 127
2, 4480, Note_off_c, 1, 103, 0
2, 4600, Note_off_c, 1, 79, 0
2, 4680, Note_off_c, 1, 74, 0
2, 4800, Note_off_c, 1, 82, 0
2, 4840, Note_off_c, 1, 76, 0
2, 5120, Note_on_c, 1, 73, 127
2, 5120, Note_on_c, 1, 74, 127
2, 5120, Note_on_c, 1, 81, 127
2, 5120, Note_on_c, 1, 84, 127
2, 5160, Note_on_c, 1, 78, 127
2, 5160, Note_off_c, 1, 81, 0
2, 5160, Note_on_c, 1, 94, 127
2, 5160, Note_on_c, 1, 100, 127
2, 5160, Note_on_c, 1, 106, 127
2, 5200, Note_off_c, 1, 100, 0
2, 5360, Note_off_c, 1, 84, 0
2, 5400, Note_off_c, 1, 78, 0
2, 5400, Note_off_c, 1, 94, 0
2, 5400, Note_on_c, 1, 98, 127
2, 5400, Note_off_c, 1, 106, 0
2, 5440, Note_off_c, 1, 73, 0
2, 5440, Note_off_c, 1, 98, 0
2, 5480, Note_off_c, 1, 74, 0
2, 5680, Note_on_c, 1, 105, 127
2, 5720, Note_on_c, 1, 73, 127
2, 5720, Note_on_c, 1, 78, 127
2, 5720, Note_on_c, 1, 83, 127
2, 5720, Note_on_c, 1, 93, 127
2, 5720, Note_on_c, 1, 100, 127
2, 5960, Note_off_c, 1, 93, 0
2, 6000, Note_off_c, 1, 100, 0
2, 6080, Note_off_c, 1, 78, 0
2, 6080, Note_off_c, 1, 105, 0
2, 6120, Note_off_c, 1, 83, 0
2, 6120, Note_on_c, 1, 104, 127
2, 6200, Note_off_c, 1, 104, 0
2, 6240, Note_off_c, 1, 73, 0
2, 6800, Note_on_c, 1, 71, 127
2, 6800, Note_on_c, 1, 78, 127
2, 6800, Note_on_c, 1, 82, 127
2, 6800, Note_on_c, 1, 85, 127
2, 6800, Note_on_c, 1, 90, 127
2, 6800, Note_on_c, 1, 102, 127
2, 6840, Note_off_c, 1, 82, 0
2, 6920, Note_off_c, 1, 102, 0
2, 6960, Note_off_c, 1, 71, 0
2, 6960, Note_on_c, 1, 72, 127
2, 7000, Note_off_c, 1, 78, 0
2, 7000, Note_off_c, 1, 85, 0
2, 7000, Note_off_c, 1, 90, 0
2, 7040, Note_off_c, 1, 72, 0
2, 7120, Note_on_c, 1, 67, 127
2, 7120, Note_on_c, 1, 85, 127
2, 7120, Note_on_c, 1, 92, 127
2, 7160, Note_on_c, 1, 71, 127
2, 7160, Note_on_c, 1, 78, 127
2, 7160, Note_on_c, 1, 82, 127
2, 7160, Note_on_c, 1, 97, 127
2, 7160, Note_on_c, 1, 104, 127
2, 7200, Note_on_c, 1, 74, 127
2, 7560, Note_off_c, 1, 92, 0
2, 7920, Note_off_c, 1, 97, 0
2, 7960, Note_off_c, 1, 104, 0
2, 8000, Note_off_c, 1, 85, 0
2, 8040, Note_off_c, 1, 78, 0
2, 8040, Note_off_c, 1, 82, 0
2, 8080, Note_off_c, 1, 67, 0
2, 8080, Note_off_c, 1, 74, 0
2, 8120, Note_off_c, 1, 71, 0
2, 8240, Note_on_c, 1, 63, 127
2, 8240, Note_on_c, 1, 64, 127
2, 8240, Note_on_c, 1, 78, 127
2, 8240, Note_on_c, 1, 81, 127
2, 8240, Note_on_c, 1, 82, 127
2, 8240, Note_on_c, 1, 85, 127
2, 8240, Note_on_c, 1, 105, 127
2, 8280, Note_off_c, 1, 63, 0
2, 8280, Note_on_c, 1, 71, 127
2, 8280, Note_on_c, 1, 73, 127
2, 8280, Note_off_c, 1, 81, 0
2, 8360, Note_off_c, 1, 85, 0
2, 8360, Note_off_c, 1, 105, 0
2, 8400, Note_off_c, 1, 73, 0
2, 8400, Note_off_c, 1, 78, 0
2, 8400, Note_off_c, 1, 82, 0
2, 8440, Note_off_c, 1, 71, 0
2, 8480, Note_off_c, 1, 64, 0
2, 8560, Note_on_c, 1, 71, 127
2, 8560, Note_on_c, 1, 82, 127
2, 8560, Note_on_c, 1, 84, 127
2, 8560, Note_on_c, 1, 93, 127
2, 8560, Note_on_c, 1, 105, 127
2, 8600, Note_on_c, 1, 78, 127
2, 8680, Note_off_c, 1, 82, 0
2, 8760, Note_off_c, 1, 78, 0
2, 8760, Note_off_c, 1, 84, 0
2, 8800, Note_off_c, 1, 71, 0
2, 8800, Note_off_c, 1, 93, 0
2, 8800, Note_off_c, 1, 105, 0
2, 9240, Note_on_c, 1, 74, 127
2, 9240, Note_on_c, 1, 79, 127
2, 9240, Note_on_c, 1, 83, 127
2, 9280, Note_on_c, 1, 71, 127
2, 9280, Note_on_c, 1, 78, 127
2, 9360, Note_off_c, 1, 74, 0
2, 9400, Note_off_c, 1, 79, 0
2, 9400, Note_off_c, 1, 83, 0
2, 9440, Note_off_c, 1, 78, 0
2, 9440, Note_on_c, 1, 79, 127
2, 9480, Note_off_c, 1, 79, 0
2, 9640, Note_off_c, 1, 71, 0
2, 9760, Note_on_c, 1, 72, 127
2, 9760, Note_on_c, 1, 78, 127
2, 9760, Note_on_c, 1, 82, 127
2, 9760, Note_on_c, 1, 91, 127
2, 9760, Note_on_c, 1, 103, 127
2, 9800, Note_off_c, 1, 78, 0
2, 9800, Note_on_c, 1, 79, 127
2, 9880, Note_off_c, 1, 91, 0
2, 9920, Note_off_c, 1, 72, 0
2, 9920, Note_on_c, 1, 73, 127
2, 9960, Note_off_c, 1, 82, 0
2, 10080, Note_off_c, 1, 73, 0
2, 10080, Note_off_c, 1, 79, 0
2, 10120, Note_off_c, 1, 103, 0
2, 10480, Note_on_c, 1, 76, 127
2, 10480, Note_on_c, 1, 82, 127
2, 10480, Note_on_c, 1, 91, 127
2, 10480, Note_on_c, 1, 99, 127
2, 10480, Note_on_c, 1, 103, 127
2, 10520, Note_off_c, 1, 82, 0
2, 10560, Note_on_c, 1, 72, 127
2, 10560, Note_off_c, 1, 76, 0
2, 10640, Note_off_c, 1, 72, 0
2, 10640, Note_off_c, 1, 99, 0
2, 10640, Note_off_c, 1, 103, 0
2, 10720, Note_off_c, 1, 91, 0
2, 10920, Note_on_c, 1, 73, 127
2, 10920, Note_on_c, 1, 81, 127
2, 10920, Note_on_c, 1, 102, 127
2, 10960, Note_off_c, 1, 73, 0
2, 10960, Note_on_c, 1, 100, 127
2, 10960, Note_off_c, 1, 102, 0
2, 11040, Note_off_c, 1, 81, 0
2, 11040, Note_off_c, 1, 100, 0
2, 11160, Note_on_c, 1, 59, 127
2, 11240, Note_off_c, 1, 59, 0
2, 11360, Note_on_c, 1, 55, 127
2, 11360, Note_on_c, 1, 72, 127
2, 11360, Note_on_c, 1, 76, 127
2, 11360, Note_on_c, 1, 77, 127
2, 11360, Note_on_c, 1, 81, 127
2, 11360, Note_on_c, 1, 96, 127
2, 11400, Note_on_c, 1, 105, 127
2, 11600, Note_off_c, 1, 55, 0
2, 11800, Note_off_c, 1, 105, 0
2, 11800, Note_on_c, 1, 107, 127
2, 11840, Note_off_c, 1, 96, 0
2, 11840, Note_on_c, 1, 103, 127
2, 11920, Note_off_c, 1, 107, 0
2, 11960, Note_off_c, 1, 72, 0
2, 11960, Note_off_c, 1, 76, 0
2, 11960, Note_off_c, 1, 81, 0
2, 11960, Note_off_c, 1, 103, 0
2, 12000, Note_off_c, 1, 77, 0
2, 12120, Note_on_c, 1, 73, 127
2, 12120, Note_on_c, 1, 97, 127
2, 12160, Note_on_c, 1, 55, 127
2, 12160, Note_on_c, 1, 88, 127
2, 12280, Note_on_c, 1, 72, 127
2, 12320, Note_off_c, 1, 88, 0
2, 12440, Note_off_c, 1, 72, 0
2, 12480, Note_off_c, 1, 73, 0
2, 12480, Note_on_c, 1, 77, 127
2, 12480, Note_off_c, 1, 97, 0
2, 12520, Note_off_c, 1, 77, 0
2, 12600, Note_on_c, 1, 72, 127
2, 12680, Note_off_c, 1, 55, 0
2, 12720, Note_off_c, 1, 72, 0
2, 12760, Note_on_c, 1, 76, 127
2, 12760, Note_on_c, 1, 77, 127
2, 12760, Note_on_c, 1, 81, 127
2, 12800, Note_on_c, 1, 71, 127
2, 13040, Note_on_c, 1, 66, 127
2, 13040, Note_off_c, 1, 71, 0
2, 13120, Note_off_c, 1, 66, 0
2, 13200, Note_on_c, 1, 64, 127
2, 13200, Note_on_c, 1, 80, 127
2, 13200, Note_off_c, 1, 81, 0
2, 13240, Note_on_c, 1, 85, 127
2, 13240, Note_on_c, 1, 107, 127
2, 13280, Note_off_c, 1, 107, 0
2, 13320, Note_on_c, 1, 81, 127
2, 13360, Note_off_c, 1, 80, 0
2, 13480, Note_on_c, 1, 80, 127
2, 13560, Note_off_c, 1, 76, 0
2, 13560, Note_off_c, 1, 77, 0
2, 13560, Note_off_c, 1, 81, 0
2, 13600, Note_off_c, 1, 85, 0
2, 13640, Note_off_c, 1, 80, 0
2, 13680, Note_on_c, 1, 71, 127
2, 13760, Note_on_c, 1, 76, 127
2, 13840, Note_on_c, 1, 86, 127
2, 13880, Note_on_c, 1, 80, 127
2, 13880, Note_on_c, 1, 85, 127
2, 13880, Note_off_c, 1, 86, 0
2, 13920, Note_off_c, 1, 71, 0
2, 14080, Note_off_c, 1, 76, 0
2, 14120, Note_off_c, 1, 85, 0
2, 14200, Note_off_c, 1, 64, 0
2, 14200, Note_off_c, 1, 80, 0
2, 14240, Note_on_c, 1, 71, 127
2, 14280, Note_off_c, 1, 71, 0
2, 14320, Note_on_c, 1, 86, 127
2, 14360, Note_on_c, 1, 65, 127
2, 14360, Note_on_c, 1, 80, 127
2, 14400, Note_off_c, 1, 80, 0
2, 14400, Note_on_c, 1, 84, 127
2, 14440, Note_off_c, 1, 84, 0
2, 14440, Note_off_c, 1, 86, 0
2, 14600, Note_off_c, 1, 65, 0
2, 14800, Note_on_c, 1, 64, 127
2, 14800, Note_on_c, 1, 80, 127
2, 14800, Note_on_c, 1, 84, 127
2, 14840, Note_off_c, 1, 64, 0
2, 14840, Note_on_c, 1, 74, 127
2, 14840, Note_on_c, 1, 104, 127
2, 14880, Note_on_c, 1, 76, 127
2, 15120, Note_off_c, 1, 104, 0
2, 15160, Note_on_c, 1, 56, 127
2, 15360, Note_off_c, 1, 56, 0
2, 15400, Note_off_c, 1, 84, 0
2, 15440, Note_off_c, 1, 80, 0
2, 15640, Note_off_c, 1, 76, 0
2, 15680, Note_off_c, 1, 74, 0
2, 15760, Note_on_c, 1, 80, 127
2, 15800, Note_on_c, 1, 71, 127
2, 15800, Note_on_c, 1, 74, 127
2, 15800, Note_on_c, 1, 85, 127
2, 15800, Note_on_c, 1, 103, 127
2, 15840, Note_on_c, 1, 56, 127
2, 15840, Note_off_c, 1, 74, 0
2, 15840, Note_on_c, 1, 76, 127
2, 15920, Note_off_c, 1, 56, 0
2, 16040, Note_on_c, 1, 64, 127
2, 16080, Note_off_c, 1, 64, 0
2, 16160, Note_off_c, 1, 71, 0
2, 16160, Note_off_c, 1, 76, 0
2, 16160, Note_off_c, 1, 103, 0
2, 16280, Note_on_c, 1, 73, 127
2, 16280, Note_on_c, 1, 76, 127
2, 16320, Note_off_c, 1, 73, 0
2, 16320, Note_off_c, 1, 76, 0
2, 16400, Note_off_c, 1, 80, 0
2, 16440, Note_off_c, 1, 85, 0
2, 16520, Note_on_c, 1, 56, 127
2, 16560, Note_off_c, 1, 56, 0
2, 16560, Note_on_c, 1, 74, 127
2, 16600, Note_on_c, 1, 80, 127
2, 16600, Note_on_c, 1, 92, 127
2, 16640, Note_on_c, 1, 76, 127
2, 16640, Note_on_c, 1, 86, 127
2, 16640, Note_off_c, 1, 92, 0
2, 16640, Note_on_c, 1, 96, 127
2, 16680, Note_on_c, 1, 94, 127
2, 16680, Note_off_c, 1, 96, 0
2, 16680, Note_on_c, 1, 104, 127
2, 16840, Note_on_c, 1, 92, 127
2, 17000, Note_off_c, 1, 74, 0
2, 17000, Note_off_c, 1, 104, 0
2, 17040, Note_on_c, 1, 74, 127
2, 17080, Note_on_c, 1, 55, 127
2, 17080, Note_on_c, 1, 105, 127
2, 17160, Note_off_c, 1, 55, 0
2, 17160, Note_off_c, 1, 105, 0
2, 17240, Note_off_c, 1, 74, 0
2, 17240, Note_off_c, 1, 76, 0
2, 17240, Note_off_c, 1, 86, 0
2, 17280, Note_off_c, 1, 94, 0
2, 17320, Note_off_c, 1, 80, 0
2, 17320, Note_off_c, 1, 92, 0
2, 17520, Note_on_c, 1, 74, 127
2, 17520, Note_on_c, 1, 80, 127
2, 17520, Note_on_c, 1, 85, 127
2, 17520, Note_on_c, 1, 91, 127
2, 17520, Note_on_c, 1, 103, 127
2, 17560, Note_on_c, 1, 102, 127
2, 17680, Note_on_c, 1, 79, 127
2, 17760, Note_on_c, 1, 56, 127
2, 17800, Note_off_c, 1, 56, 0
2, 17800, Note_off_c, 1, 80, 0
2, 17800, Note_off_c, 1, 91, 0
2, 17800, Note_off_c, 1, 103, 0
2, 17800, Note_on_c, 1, 105, 127
2, 17840, Note_off_c, 1, 102, 0
2, 17840, Note_off_c, 1, 105, 0
2, 17880, Note_off_c, 1, 85, 0
2, 17920, Note_off_c, 1, 74, 0
2, 17920, Note_off_c, 1, 79, 0
2, 18040, Note_on_c, 1, 75, 127
2, 18040, Note_on_c, 1, 78, 127
2, 18040, Note_on_c, 1, 81, 127
2, 18040, Note_on_c, 1, 85, 127
2, 18040, Note_on_c, 1, 97, 127
2, 18040, Note_on_c, 1, 102, 127
2, 18040, Note_on_c, 1, 105, 127
2, 18080, Note_on_c, 1, 56, 127
2, 18080, Note_on_c, 1, 70, 127
2, 18120, Note_on_c, 1, 71, 127
2, 18120, Note_on_c, 1, 74, 127
2, 18200, Note_off_c, 1, 70, 0
2, 18320, Note_off_c, 1, 75, 0
2, 18360, Note_off_c, 1, 102, 0
2, 18360, Note_off_c, 1, 105, 0
2, 18440, Note_off_c, 1, 97, 0
2, 18480, Note_off_c, 1, 85, 0
2, 18520, Note_off_c, 1, 56, 0
2, 18560, Note_off_c, 1, 78, 0
2, 18560, Note_off_c, 1, 81, 0
2, 18600, Note_off_c, 1, 74, 0
2, 18640, Note_on_c, 1, 64, 127
2, 18640, Note_off_c, 1, 71, 0
2, 18680, Note_on_c, 1, 56, 127
2, 18680, Note_off_c, 1, 64, 0
2, 18720, Note_off_c, 1, 56, 0
2, 18920, Note_on_c, 1, 72, 127
2, 18920, Note_on_c, 1, 107, 127
2, 18960, Note_off_c, 1, 72, 0
2, 18960, Note_off_c, 1, 107, 0
2, 19240, Note_on_c, 1, 98, 127
2, 19280, Note_on_c, 1, 72, 127
2, 19280, Note_on_c, 1, 74, 127
2, 19280, Note_on_c, 1, 79, 127
2, 19320, Note_off_c, 1, 98, 0
2, 19360, Note_off_c, 1, 74, 0
2, 19360, Note_off_c, 1, 79, 0
2, 19400, Note_off_c, 1, 72, 0
2, 19440, Note_on_c, 1, 78, 127
2, 19480, Note_off_c, 1, 78, 0
2, 19520, Note_on_c, 1, 59, 127
2, 19520, Note_on_c, 1, 105, 127
2, 19560, Note_off_c, 1, 59, 0
2, 19560, Note_on_c, 1, 84, 127
2, 19560, Note_on_c, 1, 93, 127
2, 19560, Note_on_c, 1, 98, 127
2, 19600, Note_off_c, 1, 84, 0
2, 19600, Note_on_c, 1, 92, 127
2, 19600, Note_off_c, 1, 93, 0
2, 19600, Note_off_c, 1, 98, 0
2, 19640, Note_off_c, 1, 92, 0
2, 19640, Note_off_c, 1, 105, 0
2, 19760, Note_on_c, 1, 78, 127
2, 19760, Note_on_c, 1, 83, 127
2, 19760, Note_on_c, 1, 92, 127
2, 19760, Note_on_c, 1, 95, 127
2, 19760, Note_on_c, 1, 102, 127
2, 19800, Note_off_c, 1, 78, 0
2, 19800, Note_off_c, 1, 83, 0
2, 19800, Note_off_c, 1, 92, 0
2, 19800, Note_on_c, 1, 93, 127
2, 19800, Note_off_c, 1, 95, 0
2, 19800, Note_off_c, 1, 102, 0
2, 19840, Note_off_c, 1, 93, 0
2, 19920, Note_on_c, 1, 80, 127
2, 19920, Note_on_c, 1, 100, 127
2, 19960, Note_on_c, 1, 71, 127
2, 19960, Note_on_c, 1, 74, 127
2, 19960, Note_on_c, 1, 78, 127
2, 19960, Note_on_c, 1, 83, 127
2, 19960, Note_on_c, 1, 96, 127
2, 20000, Note_on_c, 1, 55, 127
2, 20000, Note_off_c, 1, 96, 0
2, 20000, Note_off_c, 1, 100, 0
2, 20040, Note_off_c, 1, 55, 0
2, 20200, Note_on_c, 1, 93, 127
2, 20200, Note_on_c, 1, 95, 127
2, 20200, Note_on_c, 1, 104, 127
2, 20240, Note_off_c, 1, 74, 0
2, 20240, Note_off_c, 1, 78, 0
2, 20240, Note_off_c, 1, 80, 0
2, 20240, Note_off_c, 1, 83, 0
2, 20240, Note_off_c, 1, 93, 0
2, 20240, Note_off_c, 1, 95, 0
2, 20240, Note_on_c, 1, 102, 127
2, 20240, Note_off_c, 1, 104, 0
2, 20280, Note_off_c, 1, 102, 0
2, 20320, Note_on_c, 1, 75, 127
2, 20320, Note_on_c, 1, 83, 127
2, 20320, Note_on_c, 1, 99, 127
2, 20360, Note_on_c, 1, 78, 127
2, 20360, Note_on_c, 1, 81, 127
2, 20360, Note_off_c, 1, 99, 0
2, 20400, Note_off_c, 1, 83, 0
2, 20520, Note_on_c, 1, 99, 127
2, 20560, Note_off_c, 1, 81, 0
2, 20560, Note_off_c, 1, 99, 0
2, 20600, Note_off_c, 1, 75, 0
2, 20600, Note_off_c, 1, 78, 0
2, 20680, Note_on_c, 1, 95, 127
2, 20680, Note_on_c, 1, 102, 127
2, 20720, Note_on_c, 1, 78, 127
2, 20720, Note_off_c, 1, 95, 0
2, 20760, Note_off_c, 1, 78, 0
2, 20760, Note_on_c, 1, 95, 127
2, 20800, Note_off_c, 1, 71, 0
2, 20800, Note_off_c, 1, 102, 0
2, 20840, Note_off_c, 1, 95, 0
2, 20840, Note_on_c, 1, 103, 127
2, 20880, Note_off_c, 1, 103, 0
2, 20920, Note_on_c, 1, 102, 127
2, 20960, Note_off_c, 1, 102, 0
2, 21000, Note_on_c, 1, 99, 127
2, 21040, Note_off_c, 1, 99, 0
2, 21080, Note_on_c, 1, 101, 127
2, 21120, Note_on_c, 1, 73, 127
2, 21120, Note_on_c, 1, 76, 127
2, 21120, Note_on_c, 1, 80, 127
2, 21120, Note_on_c, 1, 85, 127
2, 21120, Note_on_c, 1, 95, 127
2, 21160, Note_on_c, 1, 64, 127
2, 21160, Note_off_c, 1, 95, 0
2, 21160, Note_on_c, 1, 96, 127
2, 21160, Note_off_c, 1, 101, 0
2, 21200, Note_off_c, 1, 96, 0
2, 21200, Note_on_c, 1, 97, 127
2, 21240, Note_on_c, 1, 95, 127
2, 21280, Note_off_c, 1, 97, 0
2, 21320, Note_off_c, 1, 80, 0
2, 21320, Note_off_c, 1, 85, 0
2, 21320, Note_off_c, 1, 95, 0
2, 21400, Note_off_c, 1, 73, 0
2, 21400, Note_off_c, 1, 76, 0
2, 21480, Note_on_c, 1, 73, 127
2, 21480, Note_on_c, 1, 76, 127
2, 21480, Note_on_c, 1, 79, 127
2, 21480, Note_on_c, 1, 83, 127
2, 21520, Note_on_c, 1, 98, 127
2, 21600, Note_on_c, 1, 78, 127
2, 21600, Note_on_c, 1, 91, 127
2, 21600, Note_off_c, 1, 98, 0
2, 21640, Note_on_c, 1, 71, 127
2, 21640, Note_on_c, 1, 84, 127
2, 21680, Note_off_c, 1, 73, 0
2, 21680, Note_off_c, 1, 76, 0
2, 21680, Note_off_c, 1, 78, 0
2, 21680, Note_off_c, 1, 83, 0
2, 21680, Note_off_c, 1, 84, 0
2, 21680, Note_off_c, 1, 91, 0
2, 21720, Note_off_c, 1, 79, 0
2, 21760, Note_on_c, 1, 76, 127
2, 21760, Note_on_c, 1, 83, 127
2, 21760, Note_on_c, 1, 84, 127
2, 21760, Note_on_c, 1, 88, 127
2, 21760, Note_on_c, 1, 93, 127
2, 21800, Note_off_c, 1, 64, 0
2, 21800, Note_on_c, 1, 79, 127
2, 21840, Note_off_c, 1, 71, 0
2, 21840, Note_off_c, 1, 79, 0
2, 21920, Note_off_c, 1, 84, 0
2, 21960, Note_on_c, 1, 64, 127
2, 21960, Note_off_c, 1, 76, 0
2, 21960, Note_off_c, 1, 83, 0
2, 22000, Note_off_c, 1, 64, 0
2, 22000, Note_off_c, 1, 88, 0
2, 22000, Note_off_c, 1, 93, 0
2, 22080, Note_on_c, 1, 79, 127
2, 22160, Note_off_c, 1, 79, 0
2, 22280, Note_on_c, 1, 64, 127
2, 22280, Note_on_c, 1, 79, 127
2, 22320, Note_on_c, 1, 84, 127
2, 22320, Note_on_c, 1, 87, 127
2, 22320, Note_on_c, 1, 91, 127
2, 22360, Note_on_c, 1, 71, 127
2, 22400, Note_off_c, 1, 64, 0
2, 22480, Note_off_c, 1, 87, 0
2, 22520, Note_off_c, 1, 71, 0
2, 22520, Note_on_c, 1, 78, 127
2, 22520, Note_off_c, 1, 79, 0
2, 22560, Note_off_c, 1, 78, 0
2, 22560, Note_off_c, 1, 84, 0
2, 22560, Note_off_c, 1, 91, 0
2, 22760, Note_on_c, 1, 74, 127
2, 22760, Note_on_c, 1, 76, 127
2, 22760, Note_on_c, 1, 79, 127
2, 22760, Note_on_c, 1, 84, 127
2, 22760, Note_on_c, 1, 88, 127
2, 22760, Note_on_c, 1, 91, 127
2, 22800, Note_on_c, 1, 73, 127
2, 22800, Note_off_c, 1, 91, 0
2, 22840, Note_off_c, 1, 74, 0
2, 23080, Note_on_c, 1, 91, 127
2, 23160, Note_off_c, 1, 91, 0
2, 23200, Note_off_c, 1, 84, 0
2, 23280, Note_off_c, 1, 73, 0
2, 23280, Note_off_c, 1, 76, 0
2, 23280, Note_off_c, 1, 79, 0
2, 23280, Note_on_c, 1, 81, 127
2, 23280, Note_off_c, 1, 88, 0
2, 23280, Note_on_c, 1, 100, 127
2, 23320, Note_on_c, 1, 55, 127
2, 23320, Note_off_c, 1, 81, 0
2, 23320, Note_off_c, 1, 100, 0
2, 23360, Note_off_c, 1, 55, 0
2, 23560, Note_on_c, 1, 76, 127
2, 23560, Note_on_c, 1, 79, 127
2, 23600, Note_on_c, 1, 59, 127
2, 23600, Note_on_c, 1, 71, 127
2, 23600, Note_on_c, 1, 81, 127
2, 23600, Note_on_c, 1, 84, 127
2, 23640, Note_off_c, 1, 59, 0
2, 23640, Note_off_c, 1, 76, 0
2, 23640, Note_off_c, 1, 79, 0
2, 23640, Note_off_c, 1, 81, 0
2, 23640, Note_off_c, 1, 84, 0
2, 23800, Note_off_c, 1, 71, 0
2, 24040, Note_on_c, 1, 71, 127
2, 24040, Note_on_c, 1, 74, 127
2, 24040, Note_on_c, 1, 76, 127
2, 24040, Note_on_c, 1, 79, 127
2, 24040, Note_on_c, 1, 81, 127
2, 24040, Note_on_c, 1, 84, 127
2, 24040, Note_on_c, 1, 88, 127
2, 24160, Note_off_c, 1, 74, 0
2, 24320, Note_on_c, 1, 59, 127
2, 24400, Note_on_c, 1, 55, 127
2, 24400, Note_off_c, 1, 59, 0
2, 24440, Note_off_c, 1, 55, 0
2, 24440, Note_off_c, 1, 71, 0
2, 24480, Note_on_c, 1, 57, 127
2, 24480, Note_off_c, 1, 76, 0
2, 24520, Note_off_c, 1, 57, 0
2, 24520, Note_on_c, 1, 64, 127
2, 24600, Note_off_c, 1, 64, 0
2, 24720, Note_off_c, 1, 81, 0
2, 24880, Note_off_c, 1, 79, 0
2, 24920, Note_off_c, 1, 84, 0
2, 24920, Note_off_c, 1, 88, 0
2, 25080, Note_on_c, 1, 71, 127
2, 25080, Note_on_c, 1, 72, 127
2, 25080, Note_on_c, 1, 76, 127
2, 25120, Note_on_c, 1, 79, 127
2, 25160, Note_off_c, 1, 72, 0
2, 25160, Note_off_c, 1, 76, 0
2, 25160, Note_off_c, 1, 79, 0
2, 25160, Note_on_c, 1, 81, 127
2, 25200, Note_off_c, 1, 71, 0
2, 25200, Note_off_c, 1, 81, 0
2, 25280, Note_on_c, 1, 59, 127
2, 25320, Note_off_c, 1, 59, 0
2, 25320, Note_on_c, 1, 78, 127
2, 25400, Note_off_c, 1, 78, 0
2, 25600, Note_on_c, 1, 72, 127
2, 25600, Note_on_c, 1, 78, 127
2, 25600, Note_on_c, 1, 83, 127
2, 25600, Note_on_c, 1, 92, 127
2, 25600, Note_on_c, 1, 104, 127
2, 25640, Note_on_c, 1, 70, 127
2, 25760, Note_off_c, 1, 70, 0
2, 26240, Note_off_c, 1, 72, 0
2, 26240, Note_off_c, 1, 92, 0
2, 26280, Note_on_c, 1, 62, 127
2, 26280, Note_off_c, 1, 78, 0
2, 26280, Note_off_c, 1, 83, 0
2, 26280, Note_off_c, 1, 104, 0
2, 26320, Note_off_c, 1, 62, 0
2, 26400, Note_on_c, 1, 83, 127
2, 26440, Note_on_c, 1, 71, 127
2, 26440, Note_on_c, 1, 74, 127
2, 26440, Note_on_c, 1, 78, 127
2, 26440, Note_on_c, 1, 81, 127
2, 26440, Note_on_c, 1, 104, 127
2, 26480, Note_on_c, 1, 95, 127
2, 26680, Note_off_c, 1, 95, 0
2, 26720, Note_off_c, 1, 81, 0
2, 26720, Note_off_c, 1, 83, 0
2, 26720, Note_off_c, 1, 104, 0
2, 26760, Note_off_c, 1, 74, 0
2, 26760, Note_off_c, 1, 78, 0
2, 26840, Note_off_c, 1, 71, 0
2, 26960, Note_on_c, 1, 64, 127
2, 27000, Note_on_c, 1, 56, 127
2, 27000, Note_off_c, 1, 64, 0
2, 27040, Note_off_c, 1, 56, 0
2, 27160, Note_on_c, 1, 78, 127
2, 27160, Note_on_c, 1, 83, 127
2, 27200, Note_on_c, 1, 73, 127
2, 27200, Note_on_c, 1, 80, 127
2, 27200, Note_on_c, 1, 92, 127
2, 27200, Note_on_c, 1, 104, 127
2, 27240, Note_on_c, 1, 77, 127
2, 27240, Note_off_c, 1, 104, 0
2, 27240, Note_on_c, 1, 107, 127
2, 27280, Note_on_c, 1, 106, 127
2, 27280, Note_off_c, 1, 107, 0
2, 27440, Note_off_c, 1, 92, 0
2, 27440, Note_on_c, 1, 94, 127
2, 27600, Note_off_c, 1, 80, 0
2, 27600, Note_off_c, 1, 83, 0
2, 27680, Note_off_c, 1, 78, 0
2, 27720, Note_off_c, 1, 94, 0
2, 27720, Note_off_c, 1, 106, 0
2, 27760, Note_off_c, 1, 77, 0
2, 27800, Note_off_c, 1, 73, 0
2, 27840, Note_on_c, 1, 101, 127
2, 27840, Note_on_c, 1, 104, 127
2, 27880, Note_off_c, 1, 101, 0
2, 27880, Note_off_c, 1, 104, 0
2, 28040, Note_on_c, 1, 77, 127
2, 28040, Note_on_c, 1, 78, 127
2, 28040, Note_on_c, 1, 80, 127
2, 28040, Note_on_c, 1, 106, 127
2, 28080, Note_on_c, 1, 83, 127
2, 28080, Note_on_c, 1, 94, 127
2, 28120, Note_on_c, 1, 71, 127
2, 28200, Note_off_c, 1, 106, 0
2, 28240, Note_off_c, 1, 78, 0
2, 28280, Note_off_c, 1, 71, 0
2, 28280, Note_off_c, 1, 77, 0
2, 28280, Note_off_c, 1, 80, 0
2, 28280, Note_off_c, 1, 83, 0
2, 28280, Note_off_c, 1, 94, 0
2, 28800, Note_on_c, 1, 55, 127
2, 28800, Note_on_c, 1, 78, 127
2, 28840, Note_off_c, 1, 55, 0
2, 28840, Note_on_c, 1, 71, 127
2, 28840, Note_off_c, 1, 78, 0
2, 28840, Note_on_c, 1, 98, 127
2, 28840, Note_on_c, 1, 104, 127
2, 28880, Note_on_c, 1, 77, 127
2, 28880, Note_on_c, 1, 83, 127
2, 28880, Note_on_c, 1, 97, 127
2, 28880, Note_off_c, 1, 98, 0
2, 28920, Note_on_c, 1, 73, 127
2, 28920, Note_on_c, 1, 80, 127
2, 29080, Note_off_c, 1, 71, 0
2, 29120, Note_off_c, 1, 97, 0
2, 29160, Note_off_c, 1, 104, 0
2, 29200, Note_off_c, 1, 83, 0
2, 29240, Note_off_c, 1, 80, 0
2, 29280, Note_on_c, 1, 72, 127
2, 29320, Note_off_c, 1, 72, 0
2, 29320, Note_off_c, 1, 77, 0
2, 29360, Note_off_c, 1, 73, 0
2, 29520, Note_on_c, 1, 55, 127
2, 29520, Note_on_c, 1, 56, 127
2, 29520, Note_on_c, 1, 73, 127
2, 29560, Note_off_c, 1, 55, 0
2, 29560, Note_off_c, 1, 56, 0
2, 29640, Note_off_c, 1, 73, 0
2, 29760, Note_on_c, 1, 75, 127
2, 29760, Note_on_c, 1, 76, 127
2, 29760, Note_on_c, 1, 80, 127
2, 29760, Note_on_c, 1, 83, 127
2, 29760, Note_on_c, 1, 107, 127
2, 29800, Note_on_c, 1, 65, 127
2, 29840, Note_off_c, 1, 65, 0
2, 30240, Note_off_c, 1, 107, 0
2, 30280, Note_on_c, 1, 107, 127
2, 30320, Note_off_c, 1, 107, 0
2, 30360, Note_on_c, 1, 55, 127
2, 30360, Note_on_c, 1, 64, 127
2, 30360, Note_off_c, 1, 75, 0
2, 30360, Note_off_c, 1, 76, 0
2, 30400, Note_off_c, 1, 55, 0
2, 30400, Note_off_c, 1, 64, 0
2, 30400, Note_off_c, 1, 80, 0
2, 30440, Note_off_c, 1, 83, 0
2, 30520, Note_on_c, 1, 95, 127
2, 30560, Note_off_c, 1, 95, 0
2, 30560, Note_on_c, 1, 99, 127
2, 30600, Note_off_c, 1, 99, 0
2, 30960, Note_on_c, 1, 56, 127
2, 31000, Note_off_c, 1, 56, 0
2, 31200, Note_on_c, 1, 55, 127
2, 31200, Note_on_c, 1, 56, 127
2, 31200, Note_on_c, 1, 65, 127
2, 31200, Note_on_c, 1, 72, 127
2, 31200, Note_on_c, 1, 76, 127
2, 31200, Note_on_c, 1, 80, 127
2, 31200, Note_on_c, 1, 83, 127
2, 31240, Note_off_c, 1, 55, 0
2, 31240, Note_off_c, 1, 56, 0
2, 31280, Note_off_c, 1, 65, 0
2, 31360, Note_on_c, 1, 61, 127
2, 31360, Note_off_c, 1, 72, 0
2, 31400, Note_off_c, 1, 61, 0
2, 31400, Note_off_c, 1, 76, 0
2, 31440, Note_off_c, 1, 80, 0
2, 31440, Note_off_c, 1, 83, 0
2, 31640, Note_on_c, 1, 78, 127
2, 31640, Note_on_c, 1, 80, 127
2, 31640, Note_on_c, 1, 95, 127
2, 31640, Note_on_c, 1, 107, 127
2, 31680, Note_on_c, 1, 56, 127
2, 31680, Note_on_c, 1, 76, 127
2, 31680, Note_on_c, 1, 83, 127
2, 31760, Note_off_c, 1, 83, 0
2, 31840, Note_off_c, 1, 78, 0
2, 31840, Note_off_c, 1, 107, 0
2, 31880, Note_off_c, 1, 76, 0
2, 31920, Note_off_c, 1, 80, 0
2, 31920, Note_off_c, 1, 95, 0
2, 32000, Note_on_c, 1, 79, 127
2, 32040, Note_on_c, 1, 72, 127
2, 32040, Note_on_c, 1, 76, 127
2, 32040, Note_on_c, 1, 83, 127
2, 32040, Note_on_c, 1, 104, 127
2, 32040, Note_on_c, 1, 107, 127
2, 32080, Note_off_c, 1, 76, 0
2, 32080, Note_off_c, 1, 83, 0
2, 32080, Note_on_c, 1, 84, 127
2, 32080, Note_off_c, 1, 104, 0
2, 32120, Note_off_c, 1, 79, 0
2, 32160, Note_off_c, 1, 84, 0
2, 32160, Note_off_c, 1, 107, 0
2, 32200, Note_off_c, 1, 56, 0
2, 32240, Note_off_c, 1, 72, 0
2, 32280, Note_on_c, 1, 63, 127
2, 32280, Note_on_c, 1, 73, 127
2, 32280, Note_on_c, 1, 78, 127
2, 32320, Note_off_c, 1, 63, 0
2, 32320, Note_on_c, 1, 76, 127
2, 32320, Note_on_c, 1, 80, 127
2, 32320, Note_on_c, 1, 85, 127
2, 32400, Note_off_c, 1, 76, 0
2, 32400, Note_off_c, 1, 85, 0
2, 32440, Note_off_c, 1, 80, 0
2, 32600, Note_off_c, 1, 73, 0
2, 32600, Note_off_c, 1, 78, 0
2, 32640, Note_on_c, 1, 73, 127
2, 32640, Note_on_c, 1, 80, 127
2, 32640, Note_on_c, 1, 85, 127
2, 32680, Note_on_c, 1, 76, 127
2, 32680, Note_on_c, 1, 84, 127
2, 32680, Note_off_c, 1, 85, 0
2, 32880, Note_off_c, 1, 73, 0
2, 32880, Note_off_c, 1, 80, 0
2, 32880, Note_on_c, 1, 81, 127
2, 32920, Note_on_c, 1, 74, 127
2, 32960, Note_on_c, 1, 80, 127
2, 32960, Note_off_c, 1, 81, 0
2, 33320, Note_off_c, 1, 74, 0
2, 33320, Note_off_c, 1, 76, 0
2, 33360, Note_off_c, 1, 80, 0
2, 33400, Note_off_c, 1, 84, 0
2, 33480, Note_on_c, 1, 56, 127
2, 33520, Note_off_c, 1, 56, 0
2, 33680, Note_on_c, 1, 101, 127
2, 33720, Note_on_c, 1, 80, 127
2, 33720, Note_on_c, 1, 83, 127
2, 33720, Note_off_c, 1, 101, 0
2, 33760, Note_on_c, 1, 72, 127
2, 33760, Note_on_c, 1, 78, 127
2, 33760, Note_off_c, 1, 80, 0
2, 33760, Note_off_c, 1, 83, 0
2, 33800, Note_off_c, 1, 72, 0
2, 33800, Note_off_c, 1, 78, 0
2, 33880, Note_on_c, 1, 56, 127
2, 33880, Note_on_c, 1, 72, 127
2, 33880, Note_on_c, 1, 74, 127
2, 33880, Note_on_c, 1, 78, 127
2, 33880, Note_on_c, 1, 80, 127
2, 33880, Note_on_c, 1, 83, 127
2, 33920, Note_off_c, 1, 56, 0
2, 33920, Note_off_c, 1, 80, 0
2, 33920, Note_on_c, 1, 101, 127
2, 33960, Note_off_c, 1, 74, 0
2, 33960, Note_off_c, 1, 78, 0
2, 33960, Note_off_c, 1, 83, 0
2, 33960, Note_off_c, 1, 101, 0
2, 34040, Note_off_c, 1, 72, 0
2, 34040, Note_on_c, 1, 76, 127
2, 34040, Note_on_c, 1, 83, 127
2, 34080, Note_off_c, 1, 76, 0
2, 34080, Note_off_c, 1, 83, 0
2, 34240, Note_on_c, 1, 56, 127
2, 34240, Note_on_c, 1, 78, 127
2, 34240, Note_on_c, 1, 83, 127
2, 34240, Note_on_c, 1, 106, 127
2, 34280, Note_on_c, 1, 73, 127
2, 34280, Note_on_c, 1, 79, 127
2, 34400, Note_off_c, 1, 79, 0
2, 34400, Note_on_c, 1, 80, 127
2, 34600, Note_off_c, 1, 56, 0
2, 34720, Note_on_c, 1, 104, 127
2, 34720, Note_off_c, 1, 106, 0
2, 34840, Note_on_c, 1, 56, 127
2, 34840, Note_on_c, 1, 65, 127
2, 34840, Note_off_c, 1, 104, 0
2, 35000, Note_off_c, 1, 73, 0
2, 35040, Note_off_c, 1, 65, 0
2, 35040, Note_off_c, 1, 78, 0
2, 35040, Note_off_c, 1, 80, 0
2, 35080, Note_off_c, 1, 83, 0
2, 35160, Note_off_c, 1, 56, 0
2, 35400, Note_on_c, 1, 83, 127
2, 35440, Note_on_c, 1, 56, 127
2, 35440, Note_on_c, 1, 73, 127
2, 35440, Note_on_c, 1, 79, 127
2, 35440, Note_on_c, 1, 105, 127
2, 35480, Note_off_c, 1, 105, 0
2, 35520, Note_off_c, 1, 56, 0
2, 35520, Note_on_c, 1, 80, 127
2, 35560, Note_off_c, 1, 80, 0
2, 35640, Note_off_c, 1, 73, 0
2, 35720, Note_off_c, 1, 83, 0
2, 35800, Note_off_c, 1, 79, 0
2, 35800, Note_on_c, 1, 80, 127
2, 35840, Note_off_c, 1, 80, 0
2, 36000, Note_on_c, 1, 56, 127
2, 36000, Note_on_c, 1, 65, 127
2, 36000, Note_on_c, 1, 79, 127
2, 36040, Note_off_c, 1, 56, 0
2, 36040, Note_off_c, 1, 65, 0
2, 36080, Note_off_c, 1, 79, 0
2, 36280, Note_on_c, 1, 56, 127
2, 36280, Note_on_c, 1, 75, 127
2, 36280, Note_on_c, 1, 80, 127
2, 36280, Note_on_c, 1, 83, 127
2, 36280, Note_on_c, 1, 104, 127
2, 36320, Note_on_c, 1, 52, 127
2, 36320, Note_off_c, 1, 56, 0
2, 36320, Note_off_c, 1, 104, 0
2, 36360, Note_off_c, 1, 52, 0
2, 36360, Note_on_c, 1, 60, 127
2, 36360, Note_on_c, 1, 79, 127
2, 36400, Note_off_c, 1, 60, 0
2, 36400, Note_on_c, 1, 105, 127
2, 36440, Note_off_c, 1, 105, 0
2, 36520, Note_off_c, 1, 79, 0
2, 36520, Note_off_c, 1, 83, 0
2, 36640, Note_off_c, 1, 75, 0
2, 36640, Note_off_c, 1, 80, 0
2, 36800, Note_on_c, 1, 80, 127
2, 36840, Note_on_c, 1, 75, 127
2, 36840, Note_on_c, 1, 79, 127
2, 36840, Note_on_c, 1, 84, 127
2, 36840, Note_on_c, 1, 107, 127
2, 36880, Note_on_c, 1, 104, 127
2, 36880, Note_off_c, 1, 107, 0
2, 36920, Note_off_c, 1, 104, 0
2, 36920, Note_on_c, 1, 107, 127
2, 37000, Note_off_c, 1, 79, 0
2, 37000, Note_off_c, 1, 84, 0
2, 37000, Note_off_c, 1, 107, 0
2, 37040, Note_on_c, 1, 58, 127
2, 37080, Note_off_c, 1, 58, 0
2, 37080, Note_on_c, 1, 65, 127
2, 37080, Note_off_c, 1, 80, 0
2, 37080, Note_on_c, 1, 83, 127
2, 37120, Note_off_c, 1, 65, 0
2, 37120, Note_off_c, 1, 83, 0
2, 37200, Note_on_c, 1, 56, 127
2, 37240, Note_off_c, 1, 56, 0
2, 37320, Note_on_c, 1, 59, 127
2, 37320, Note_off_c, 1, 75, 0
2, 37360, Note_on_c, 1, 56, 127
2, 37400, Note_off_c, 1, 56, 0
2, 37400, Note_off_c, 1, 59, 0
2, 37400, Note_on_c, 1, 70, 127
2, 37440, Note_off_c, 1, 70, 0
2, 37440, Note_on_c, 1, 72, 127
2, 37560, Note_off_c, 1, 72, 0
2, 37920, Note_on_c, 1, 79, 127
2, 38000, Note_on_c, 1, 80, 127
2, 38000, Note_on_c, 1, 81, 127
2, 38000, Note_on_c, 1, 84, 127
2, 38000, Note_on_c, 1, 88, 127
2, 38040, Note_on_c, 1, 105, 127
2, 38120, Note_on_c, 1, 76, 127
2, 38160, Note_off_c, 1, 76, 0
2, 38280, Note_off_c, 1, 80, 0
2, 38360, Note_on_c, 1, 80, 127
2, 38400, Note_on_c, 1, 78, 127
2, 38400, Note_off_c, 1, 80, 0
2, 38480, Note_on_c, 1, 56, 127
2, 38520, Note_off_c, 1, 56, 0
2, 38520, Note_off_c, 1, 79, 0
2, 38520, Note_off_c, 1, 81, 0
2, 38520, Note_off_c, 1, 88, 0
2, 38520, Note_off_c, 1, 105, 0
2, 38560, Note_off_c, 1, 84, 0
2, 38640, Note_off_c, 1, 78, 0
2, 38720, Note_on_c, 1, 64, 127
2, 38840, Note_on_c, 1, 71, 127
2, 38880, Note_on_c, 1, 80, 127
2, 38920, Note_off_c, 1, 71, 0
2, 38920, Note_on_c, 1, 84, 127
2, 38920, Note_on_c, 1, 102, 127
2, 38960, Note_off_c, 1, 80, 0
2, 38960, Note_off_c, 1, 84, 0
2, 38960, Note_off_c, 1, 102, 0
2, 39000, Note_on_c, 1, 56, 127
2, 39000, Note_off_c, 1, 64, 0
2, 39040, Note_off_c, 1, 56, 0
2, 39160, Note_on_c, 1, 64, 127
2, 39160, Note_on_c, 1, 74, 127
2, 39160, Note_on_c, 1, 79, 127
2, 39160, Note_on_c, 1, 80, 127
2, 39160, Note_on_c, 1, 84, 127
2, 39160, Note_on_c, 1, 102, 127
2, 39200, Note_on_c, 1, 76, 127
2, 39280, Note_off_c, 1, 79, 0
2, 39280, Note_off_c, 1, 102, 0
2, 39320, Note_off_c, 1, 84, 0
2, 39360, Note_off_c, 1, 80, 0
2, 39400, Note_off_c, 1, 74, 0
2, 39400, Note_off_c, 1, 76, 0
2, 39600, Note_on_c, 1, 71, 127
2, 39720, Note_on_c, 1, 74, 127
2, 39720, Note_on_c, 1, 80, 127
2, 39720, Note_on_c, 1, 84, 127
2, 39720, Note_on_c, 1, 90, 127
2, 39800, Note_off_c, 1, 90, 0
2, 39840, Note_off_c, 1, 84, 0
2, 39880, Note_off_c, 1, 71, 0
2, 39880, Note_off_c, 1, 80, 0
2, 39920, Note_off_c, 1, 74, 0
2, 39960, Note_off_c, 1, 64, 0
2, 39960, Note_on_c, 1, 65, 127
2, 39960, Note_on_c, 1, 72, 127
2, 39960, Note_on_c, 1, 80, 127
2, 40000, Note_off_c, 1, 65, 0
2, 40000, Note_on_c, 1, 76, 127
2, 40000, Note_on_c, 1, 83, 127
2, 40000, Note_on_c, 1, 104, 127
2, 40040, Note_on_c, 1, 56, 127
2, 40040, Note_off_c, 1, 83, 0
2, 40040, Note_on_c, 1, 85, 127
2, 40080, Note_off_c, 1, 72, 0
2, 40160, Note_on_c, 1, 89, 127
2, 40160, Note_off_c, 1, 104, 0
2, 40240, Note_off_c, 1, 56, 0
2, 40240, Note_off_c, 1, 76, 0
2, 40240, Note_off_c, 1, 85, 0
2, 40240, Note_off_c, 1, 89, 0
2, 40320, Note_on_c, 1, 56, 127
2, 40400, Note_off_c, 1, 56, 0
2, 40480, Note_off_c, 1, 80, 0
2, 40600, Note_on_c, 1, 100, 127
2, 40640, Note_on_c, 1, 75, 127
2, 40640, Note_on_c, 1, 78, 127
2, 40640, Note_on_c, 1, 79, 127
2, 40640, Note_on_c, 1, 80, 127
2, 40640, Note_on_c, 1, 83, 127
2, 40640, Note_on_c, 1, 85, 127
2, 40640, Note_on_c, 1, 107, 127
2, 40800, Note_off_c, 1, 100, 0
2, 40840, Note_off_c, 1, 107, 0
2, 40880, Note_off_c, 1, 75, 0
2, 40880, Note_off_c, 1, 83, 0
2, 40880, Note_off_c, 1, 85, 0
2, 40920, Note_off_c, 1, 78, 0
2, 40920, Note_off_c, 1, 79, 0
2, 40920, Note_off_c, 1, 80, 0
2, 41040, Note_on_c, 1, 75, 127
2, 41040, Note_on_c, 1, 78, 127
2, 41040, Note_on_c, 1, 83, 127
2, 41040, Note_on_c, 1, 85, 127
2, 41080, Note_on_c, 1, 79, 127
2, 41080, Note_on_c, 1, 80, 127
2, 41080, Note_on_c, 1, 90, 127
2, 41120, Note_off_c, 1, 78, 0
2, 41200, Note_off_c, 1, 83, 0
2, 41240, Note_off_c, 1, 90, 0
2, 41280, Note_off_c, 1, 75, 0
2, 41280, Note_off_c, 1, 85, 0
2, 41360, Note_off_c, 1, 80, 0
2, 41400, Note_on_c, 1, 56, 127
2, 41400, Note_off_c, 1, 79, 0
2, 41400, Note_on_c, 1, 80, 127
2, 41440, Note_off_c, 1, 56, 0
2, 41600, Note_on_c, 1, 55, 127
2, 41640, Note_off_c, 1, 55, 0
2, 41640, Note_on_c, 1, 56, 127
2, 41640, Note_on_c, 1, 66, 127
2, 41640, Note_on_c, 1, 76, 127
2, 41640, Note_off_c, 1, 80, 0
2, 41680, Note_off_c, 1, 56, 0
2, 41680, Note_off_c, 1, 66, 0
2, 41680, Note_off_c, 1, 76, 0
2, 41680, Note_on_c, 1, 80, 127
2, 41760, Note_off_c, 1, 80, 0
2, 41960, Note_on_c, 1, 80, 127
2, 42000, Note_on_c, 1, 64, 127
2, 42000, Note_off_c, 1, 80, 0
2, 42040, Note_off_c, 1, 64, 0
2, 42080, Note_on_c, 1, 91, 127
2, 42120, Note_on_c, 1, 76, 127
2, 42120, Note_on_c, 1, 79, 127
2, 42120, Note_on_c, 1, 80, 127
2, 42120, Note_on_c, 1, 83, 127
2, 42120, Note_on_c, 1, 85, 127
2, 42120, Note_on_c, 1, 88, 127
2, 42120, Note_off_c, 1, 91, 0
2, 42400, Note_on_c, 1, 82, 127
2, 42400, Note_off_c, 1, 83, 0
2, 42560, Note_off_c, 1, 79, 0
2, 42720, Note_off_c, 1, 88, 0
2, 42800, Note_off_c, 1, 80, 0
2, 42920, Note_on_c, 1, 64, 127
2, 42920, Note_on_c, 1, 80, 127
2, 43080, Note_on_c, 1, 79, 127
2, 43120, Note_off_c, 1, 80, 0
2, 43200, Note_on_c, 1, 90, 127
2, 43240, Note_off_c, 1, 76, 0
2, 43280, Note_off_c, 1, 90, 0
2, 43320, Note_off_c, 1, 79, 0
2, 43320, Note_off_c, 1, 82, 0
2, 43320, Note_off_c, 1, 85, 0
2, 43440, Note_off_c, 1, 64, 0
2, 43520, Note_on_c, 1, 56, 127
2, 43520, Note_on_c, 1, 71, 127
2, 43520, Note_on_c, 1, 84, 127
2, 43560, Note_on_c, 1, 55, 127
2, 43560, Note_off_c, 1, 56, 0
2, 43560, Note_off_c, 1, 71, 0
2, 43560, Note_off_c, 1, 84, 0
2, 43600, Note_off_c, 1, 55, 0
2, 43960, Note_on_c, 1, 84, 127
2, 44000, Note_on_c, 1, 60, 127
2, 44040, Note_off_c, 1, 60, 0
2, 44040, Note_on_c, 1, 71, 127
2, 44040, Note_on_c, 1, 73, 127
2, 44040, Note_off_c, 1, 84, 0
2, 44040, Note_on_c, 1, 85, 127
2, 44240, Note_off_c, 1, 71, 0
2, 44240, Note_off_c, 1, 85, 0
2, 44360, Note_off_c, 1, 73, 0
2, 44520, Note_on_c, 1, 98, 127
2, 44560, Note_on_c, 1, 74, 127
2, 44600, Note_on_c, 1, 62, 127
2, 44600, Note_off_c, 1, 74, 0
2, 44600, Note_on_c, 1, 77, 127
2, 44600, Note_on_c, 1, 83, 127
2, 44600, Note_off_c, 1, 98, 0
2, 44640, Note_on_c, 1, 73, 127
2, 44640, Note_on_c, 1, 86, 127
2, 44680, Note_on_c, 1, 97, 127
2, 44800, Note_off_c, 1, 62, 0
2, 44800, Note_off_c, 1, 86, 0
2, 44840, Note_off_c, 1, 83, 0
2, 44880, Note_off_c, 1, 77, 0
2, 44920, Note_off_c, 1, 73, 0
2, 44960, Note_off_c, 1, 97, 0
2, 45040, Note_on_c, 1, 97, 127
2, 45160, Note_on_c, 1, 58, 127
2, 45200, Note_off_c, 1, 58, 0
2, 45600, Note_off_c, 1, 97, 0
2, 46240, Note_on_c, 1, 56, 127
2, 46240, Note_on_c, 1, 73, 127
2, 46240, Note_on_c, 1, 79, 127
2, 46240, Note_on_c, 1, 84, 127
2, 46240, Note_on_c, 1, 89, 127
2, 46240, Note_on_c, 1, 93, 127
2, 46280, Note_off_c, 1, 56, 0
2, 46280, Note_off_c, 1, 73, 0
2, 46520, Note_on_c, 1, 56, 127
2, 46520, Note_off_c, 1, 84, 0
2, 46520, Note_off_c, 1, 89, 0
2, 46520, Note_on_c, 1, 96, 127
2, 46560, Note_off_c, 1, 56, 0
2, 46560, Note_on_c, 1, 88, 127
2, 46600, Note_off_c, 1, 79, 0
2, 46600, Note_off_c, 1, 88, 0
2, 46600, Note_off_c, 1, 93, 0
2, 46600, Note_off_c, 1, 96, 0
2, 46840, Note_on_c, 1, 84, 127
2, 46840, Note_on_c, 1, 96, 127
2, 46920, Note_on_c, 1, 55, 127
2, 46920, Note_on_c, 1, 61, 127
2, 46920, Note_on_c, 1, 68, 127
2, 46960, Note_off_c, 1, 55, 0
2, 46960, Note_on_c, 1, 56, 127
2, 46960, Note_on_c, 1, 79, 127
2, 47000, Note_off_c, 1, 56, 0
2, 47000, Note_off_c, 1, 84, 0
2, 47040, Note_off_c, 1, 79, 0
2, 47080, Note_off_c, 1, 61, 0
2, 47080, Note_off_c, 1, 96, 0
2, 47120, Note_off_c, 1, 68, 0
2, 47200, Note_on_c, 1, 84, 127
2, 47200, Note_on_c, 1, 96, 127
2, 47240, Note_on_c, 1, 79, 127
2, 47240, Note_on_c, 1, 91, 127
2, 47480, Note_off_c, 1, 79, 0
2, 47560, Note_off_c, 1, 84, 0
2, 47720, Note_on_c, 1, 68, 127
2, 47840, Note_off_c, 1, 91, 0
2, 47960, Note_on_c, 1, 61, 127
2, 48080, Note_off_c, 1, 61, 0
2, 48080, Note_on_c, 1, 79, 127
2, 48280, Note_on_c, 1, 56, 127
2, 48280, Note_on_c, 1, 62, 127
2, 48320, Note_off_c, 1, 62, 0
2, 48320, Note_on_c, 1, 84, 127
2, 48400, Note_on_c, 1, 95, 127
2, 48480, Note_on_c, 1, 78, 127
2, 48480, Note_off_c, 1, 79, 0
2, 48480, Note_off_c, 1, 95, 0
2, 48520, Note_off_c, 1, 78, 0
2, 48560, Note_off_c, 1, 56, 0
2, 48600, Note_off_c, 1, 96, 0
2, 48640, Note_on_c, 1, 67, 127
2, 48680, Note_off_c, 1, 67, 0
2, 48760, Note_off_c, 1, 84, 0
2, 48880, Note_on_c, 1, 83, 127
2, 48920, Note_on_c, 1, 56, 127
2, 48920, Note_on_c, 1, 84, 127
2, 49040, Note_off_c, 1, 83, 0
2, 49120, Note_off_c, 1, 56, 0
2, 49160, Note_off_c, 1, 84, 0
2, 49440, Note_on_c, 1, 83, 127
2, 49480, Note_on_c, 1, 80, 127
2, 49520, Note_on_c, 1, 56, 127
2, 49840, Note_on_c, 1, 78, 127
2, 49880, Note_off_c, 1, 56, 0
2, 49880, Note_off_c, 1, 83, 0
2, 50000, Note_off_c, 1, 68, 0
2, 50080, Note_off_c, 1, 80, 0
2, 50240, Note_on_c, 1, 87, 127
2, 50280, Note_on_c, 1, 56, 127
2, 50280, Note_on_c, 1, 70, 127
2, 50280, Note_on_c, 1, 84, 127
2, 50440, Note_off_c, 1, 56, 0
2, 50480, Note_on_c, 1, 83, 127
2, 50560, Note_on_c, 1, 68, 127
2, 50560, Note_off_c, 1, 70, 0
2, 50600, Note_on_c, 1, 62, 127
2, 50640, Note_off_c, 1, 62, 0
2, 50640, Note_off_c, 1, 83, 0
2, 51160, Note_on_c, 1, 64, 127
2, 51200, Note_on_c, 1, 56, 127
2, 51200, Note_on_c, 1, 80, 127
2, 51280, Note_on_c, 1, 58, 127
2, 51280, Note_on_c, 1, 63, 127
2, 51280, Note_off_c, 1, 68, 0
2, 51320, Note_off_c, 1, 58, 0
2, 51320, Note_off_c, 1, 63, 0
2, 51320, Note_on_c, 1, 65, 127
2, 51360, Note_on_c, 1, 63, 127
2, 51360, Note_off_c, 1, 65, 0
2, 51400, Note_off_c, 1, 63, 0
2, 51520, Note_on_c, 1, 83, 127
2, 51520, Note_off_c, 1, 84, 0
2, 51680, Note_off_c, 1, 80, 0
2, 51960, Note_on_c, 1, 80, 127
2, 52320, Note_off_c, 1, 80, 0
2, 52480, Note_on_c, 1, 80, 127
2, 52720, Note_off_c, 1, 64, 0
2, 52880, Note_on_c, 1, 95, 127
2, 53000, Note_off_c, 1, 95, 0
2, 53080, Note_off_c, 1, 83, 0
2, 53120, Note_off_c, 1, 80, 0
2, 53120, Note_off_c, 1, 87, 0
2, 53160, Note_off_c, 1, 78, 0
2, 53280, Note_off_c, 1, 56, 0
2, 53360, Note_on_c, 1, 55, 127
2, 53440, Note_on_c, 1, 61, 127
2, 53480, Note_off_c, 1, 55, 0
2, 53480, Note_on_c, 1, 60, 127
2, 53520, Note_off_c, 1, 60, 0
2, 53520, Note_on_c, 1, 74, 127
2, 53520, Note_on_c, 1, 78, 127
2, 53520, Note_on_c, 1, 81, 127
2, 53560, Note_on_c, 1, 71, 127
2, 53600, Note_on_c, 1, 83, 127
2, 53640, Note_off_c, 1, 71, 0
2, 53680, Note_on_c, 1, 71, 127
2, 53760, Note_off_c, 1, 61, 0
2, 53760, Note_on_c, 1, 67, 127
2, 53920, Note_off_c, 1, 67, 0
2, 54200, Note_off_c, 1, 74, 0
2, 54280, Note_off_c, 1, 78, 0
2, 54320, Note_off_c, 1, 71, 0
2, 54320, Note_on_c, 1, 80, 127
2, 54400, Note_off_c, 1, 80, 0
2, 54440, Note_off_c, 1, 81, 0
2, 54480, Note_off_c, 1, 83, 0
2, 54600, Note_on_c, 1, 55, 127
2, 54640, Note_on_c, 1, 61, 127
2, 54640, Note_on_c, 1, 80, 127
2, 54680, Note_off_c, 1, 55, 0
2, 54680, Note_off_c, 1, 61, 0
2, 54680, Note_on_c, 1, 68, 127
2, 54680, Note_on_c, 1, 71, 127
2, 54680, Note_on_c, 1, 77, 127
2, 54720, Note_on_c, 1, 59, 127
2, 54720, Note_off_c, 1, 68, 0
2, 54960, Note_off_c, 1, 80, 0
2, 55000, Note_off_c, 1, 77, 0
2, 55160, Note_on_c, 1, 64, 127
2, 55160, Note_on_c, 1, 77, 127
2, 55160, Note_on_c, 1, 80, 127
2, 55160, Note_on_c, 1, 84, 127
2, 55200, Note_on_c, 1, 68, 127
2, 55200, Note_on_c, 1, 81, 127
2, 55240, Note_on_c, 1, 57, 127
2, 55240, Note_off_c, 1, 59, 0
2, 55320, Note_off_c, 1, 64, 0
2, 55360, Note_off_c, 1, 68, 0
2, 55360, Note_off_c, 1, 77, 0
2, 55360, Note_off_c, 1, 80, 0
2, 55480, Note_off_c, 1, 71, 0
2, 55480, Note_off_c, 1, 81, 0
2, 55520, Note_off_c, 1, 84, 0
2, 55640, Note_off_c, 1, 57, 0
2, 55640, Note_on_c, 1, 77, 127
2, 55640, Note_on_c, 1, 80, 127
2, 55640, Note_on_c, 1, 84, 127
2, 55720, Note_off_c, 1, 77, 0
2, 55720, Note_off_c, 1, 80, 0
2, 55720, Note_off_c, 1, 84, 0
2, 55880, Note_on_c, 1, 84, 127
2, 56000, Note_on_c, 1, 80, 127
2, 56000, Note_off_c, 1, 84, 0
2, 56040, Note_off_c, 1, 80, 0
2, 56240, Note_on_c, 1, 71, 127
2, 56280, Note_on_c, 1, 57, 127
2, 56320, Note_off_c, 1, 57, 0
2, 56320, Note_off_c, 1, 71, 0
2, 56560, Note_on_c, 1, 55, 127
2, 56600, Note_off_c, 1, 55, 0
2, 56600, Note_on_c, 1, 71, 127
2, 56640, Note_on_c, 1, 55, 127
2, 56680, Note_off_c, 1, 55, 0
2, 56680, Note_off_c, 1, 71, 0
2, 56680, Note_on_c, 1, 85, 127
2, 56720, Note_off_c, 1, 85, 0
2, 56920, Note_on_c, 1, 65, 127
2, 56960, Note_on_c, 1, 71, 127
2, 56960, Note_on_c, 1, 80, 127
2, 56960, Note_on_c, 1, 90, 127
2, 57000, Note_off_c, 1, 65, 0
2, 57000, Note_on_c, 1, 88, 127
2, 57000, Note_off_c, 1, 90, 0
2, 57080, Note_off_c, 1, 88, 0
2, 57240, Note_on_c, 1, 90, 127
2, 57400, Note_on_c, 1, 77, 127
2, 57400, Note_off_c, 1, 80, 0
2, 57400, Note_off_c, 1, 90, 0
2, 57520, Note_on_c, 1, 58, 127
2, 57520, Note_on_c, 1, 92, 127
2, 57640, Note_off_c, 1, 58, 0
2, 57760, Note_off_c, 1, 71, 0
2, 57840, Note_off_c, 1, 77, 0
2, 58080, Note_on_c, 1, 55, 127
2, 58080, Note_on_c, 1, 71, 127
2, 58080, Note_on_c, 1, 85, 127
2, 58080, Note_off_c, 1, 92, 0
2, 58080, Note_on_c, 1, 94, 127
2, 58120, Note_off_c, 1, 55, 0
2, 58120, Note_on_c, 1, 78, 127
2, 58120, Note_on_c, 1, 87, 127
2, 58160, Note_on_c, 1, 82, 127
2, 58360, Note_off_c, 1, 94, 0
2, 58520, Note_on_c, 1, 92, 127
2, 58840, Note_off_c, 1, 71, 0
2, 59040, Note_on_c, 1, 56, 127
2, 59080, Note_on_c, 1, 55, 127
2, 59080, Note_off_c, 1, 56, 0
2, 59120, Note_off_c, 1, 55, 0
2, 59360, Note_on_c, 1, 60, 127
2, 59400, Note_off_c, 1, 60, 0
2, 59400, Note_on_c, 1, 64, 127
2, 59400, Note_on_c, 1, 71, 127
2, 59560, Note_on_c, 1, 68, 127
2, 59560, Note_off_c, 1, 71, 0
2, 59680, Note_off_c, 1, 68, 0
2, 59680, Note_on_c, 1, 71, 127
2, 59880, Note_off_c, 1, 64, 0
2, 59880, Note_off_c, 1, 78, 0
2, 59960, Note_off_c, 1, 82, 0
2, 60000, Note_on_c, 1, 78, 127
2, 60200, Note_on_c, 1, 73, 127
2, 60200, Note_on_c, 1, 82, 127
2, 60280, Note_on_c, 1, 63, 127
2, 60280, Note_off_c, 1, 71, 0
2, 60320, Note_off_c, 1, 73, 0
2, 60360, Note_on_c, 1, 71, 127
2, 60400, Note_off_c, 1, 63, 0
2, 60480, Note_off_c, 1, 92, 0
2, 60600, Note_off_c, 1, 78, 0
2, 60640, Note_on_c, 1, 90, 127
2, 60680, Note_off_c, 1, 85, 0
2, 60720, Note_off_c, 1, 82, 0
2, 60720, Note_off_c, 1, 87, 0
2, 60760, Note_off_c, 1, 90, 0
2, 60840, Note_off_c, 1, 71, 0
2, 60960, Note_on_c, 1, 78, 127
2, 60960, Note_on_c, 1, 81, 127
2, 60960, Note_on_c, 1, 85, 127
2, 60960, Note_on_c, 1, 92, 127
2, 61000, Note_on_c, 1, 71, 127
2, 61000, Note_on_c, 1, 89, 127
2, 61080, Note_off_c, 1, 71, 0
2, 61520, Note_on_c, 1, 71, 127
2, 61520, Note_on_c, 1, 87, 127
2, 61800, Note_off_c, 1, 85, 0
2, 61880, Note_on_c, 1, 73, 127
2, 61880, Note_off_c, 1, 78, 0
2, 61920, Note_off_c, 1, 81, 0
2, 62000, Note_off_c, 1, 73, 0
2, 62000, Note_on_c, 1, 75, 127
2, 62040, Note_off_c, 1, 87, 0
2, 62080, Note_off_c, 1, 92, 0
2, 62160, Note_off_c, 1, 89, 0
2, 62200, Note_off_c, 1, 71, 0
2, 62240, Note_on_c, 1, 71, 127
2, 62480, Note_off_c, 1, 75, 0
2, 62520, Note_on_c, 1, 93, 127
2, 62840, Note_off_c, 1, 93, 0
2, 62880, Note_off_c, 1, 71, 0
2, 63280, Note_on_c, 1, 75, 127
2, 63280, Note_on_c, 1, 95, 127
2, 63320, Note_off_c, 1, 75, 0
2, 63320, Note_on_c, 1, 80, 127
2, 63320, Note_on_c, 1, 85, 127
2, 63320, Note_on_c, 1, 90, 127
2, 63360, Note_on_c, 1, 81, 127
2, 63440, Note_off_c, 1, 80, 0
2, 63480, Note_off_c, 1, 85, 0
2, 63520, Note_off_c, 1, 90, 0
2, 63520, Note_off_c, 1, 95, 0
2, 63640, Note_on_c, 1, 85, 127
2, 63640, Note_on_c, 1, 90, 127
2, 63640, Note_on_c, 1, 95, 127
2, 63680, Note_off_c, 1, 81, 0
2, 63680, Note_off_c, 1, 85, 0
2, 63800, Note_off_c, 1, 95, 0
2, 63920, Note_off_c, 1, 90, 0
2, 64040, Note_on_c, 1, 55, 127
2, 64080, Note_off_c, 1, 55, 0
2, 64080, Note_on_c, 1, 78, 127
2, 64080, Note_on_c, 1, 80, 127
2, 64080, Note_on_c, 1, 85, 127
2, 64080, Note_on_c, 1, 90, 127
2, 64120, Note_on_c, 1, 65, 127
2, 64120, Note_on_c, 1, 75, 127
2, 64120, Note_on_c, 1, 81, 127
2, 64120, Note_on_c, 1, 89, 127
2, 64160, Note_on_c, 1, 64, 127
2, 64200, Note_off_c, 1, 65, 0
2, 64240, Note_on_c, 1, 71, 127
2, 64400, Note_off_c, 1, 75, 0
2, 64560, Note_off_c, 1, 80, 0
2, 64560, Note_off_c, 1, 90, 0
2, 64600, Note_on_c, 1, 90, 127
2, 64760, Note_off_c, 1, 64, 0
2, 64760, Note_off_c, 1, 81, 0
2, 64800, Note_off_c, 1, 89, 0
2, 64800, Note_off_c, 1, 90, 0
2, 64920, Note_off_c, 1, 78, 0
2, 64920, Note_off_c, 1, 85, 0
2, 64960, Note_off_c, 1, 71, 0
2, 65040, Note_on_c, 1, 78, 127
2, 65080, Note_off_c, 1, 78, 0
2, 65840, Note_on_c, 1, 84, 127
2, 65840, Note_on_c, 1, 85, 127
2, 65840, Note_on_c, 1, 90, 127
2, 65840, Note_on_c, 1, 95, 127
2, 65880, Note_on_c, 1, 71, 127
2, 65880, Note_on_c, 1, 78, 127
2, 65880, Note_on_c, 1, 80, 127
2, 65880, Note_on_c, 1, 81, 127
2, 65880, Note_off_c, 1, 84, 0
2, 66120, Note_off_c, 1, 78, 0
2, 66120, Note_off_c, 1, 90, 0
2, 66160, Note_on_c, 1, 62, 127
2, 66160, Note_off_c, 1, 85, 0
2, 66200, Note_on_c, 1, 56, 127
2, 66200, Note_off_c, 1, 62, 0
2, 66200, Note_off_c, 1, 81, 0
2, 66240, Note_off_c, 1, 56, 0
2, 66280, Note_off_c, 1, 71, 0
2, 66280, Note_off_c, 1, 80, 0
2, 66280, Note_off_c, 1, 95, 0
2, 66560, Note_on_c, 1, 78, 127
2, 66600, Note_on_c, 1, 56, 127
2, 66600, Note_on_c, 1, 71, 127
2, 66600, Note_on_c, 1, 80, 127
2, 66600, Note_on_c, 1, 85, 127
2, 66600, Note_on_c, 1, 87, 127
2, 66600, Note_on_c, 1, 92, 127
2, 66600, Note_on_c, 1, 97, 127
2, 66640, Note_on_c, 1, 62, 127
2, 66640, Note_off_c, 1, 71, 0
2, 66680, Note_off_c, 1, 56, 0
2, 66680, Note_on_c, 1, 77, 127
2, 66680, Note_off_c, 1, 92, 0
2, 66720, Note_off_c, 1, 78, 0
2, 66720, Note_on_c, 1, 81, 127
2, 66720, Note_off_c, 1, 87, 0
2, 66760, Note_off_c, 1, 77, 0
2, 66760, Note_off_c, 1, 80, 0
2, 66760, Note_off_c, 1, 85, 0
2, 66760, Note_off_c, 1, 97, 0
2, 66880, Note_off_c, 1, 62, 0
2, 66880, Note_off_c, 1, 81, 0
2, 67120, Note_on_c, 1, 80, 127
2, 67160, Note_on_c, 1, 87, 127
2, 67160, Note_on_c, 1, 92, 127
2, 67160, Note_on_c, 1, 96, 127
2, 67200, Note_off_c, 1, 87, 0
2, 67240, Note_off_c, 1, 80, 0
2, 67240, Note_off_c, 1, 92, 0
2, 67240, Note_off_c, 1, 96, 0
2, 67520, Note_on_c, 1, 80, 127
2, 67520, Note_on_c, 1, 84, 127
2, 67520, Note_on_c, 1, 89, 127
2, 67520, Note_on_c, 1, 92, 127
2, 67520, Note_on_c, 1, 94, 127
2, 67560, Note_on_c, 1, 77, 127
2, 67560, Note_on_c, 1, 82, 127
2, 67640, Note_off_c, 1, 77, 0
2, 67720, Note_off_c, 1, 89, 0
2, 67920, Note_off_c, 1, 94, 0
2, 67960, Note_off_c, 1, 82, 0
2, 68040, Note_on_c, 1, 87, 127
2, 68040, Note_off_c, 1, 92, 0
2, 68040, Note_on_c, 1, 99, 127
2, 68080, Note_on_c, 1, 81, 127
2, 68400, Note_on_c, 1, 96, 127
2, 68480, Note_on_c, 1, 76, 127
2, 68520, Note_on_c, 1, 78, 127
2, 68640, Note_on_c, 1, 82, 127
2, 68680, Note_off_c, 1, 99, 0
2, 68720, Note_off_c, 1, 78, 0
2, 68720, Note_off_c, 1, 82, 0
2, 68720, Note_off_c, 1, 87, 0
2, 68760, Note_on_c, 1, 79, 127
2, 68760, Note_off_c, 1, 81, 0
2, 68800, Note_on_c, 1, 71, 127
2, 68800, Note_off_c, 1, 79, 0
2, 68800, Note_on_c, 1, 88, 127
2, 68840, Note_off_c, 1, 88, 0
2, 68880, Note_off_c, 1, 76, 0
2, 69000, Note_on_c, 1, 79, 127
2, 69000, Note_off_c, 1, 80, 0
2, 69000, Note_off_c, 1, 84, 0
2, 69040, Note_on_c, 1, 55, 127
2, 69040, Note_off_c, 1, 79, 0
2, 69040, Note_on_c, 1, 82, 127
2, 69080, Note_on_c, 1, 70, 127
2, 69080, Note_off_c, 1, 82, 0
2, 69120, Note_off_c, 1, 55, 0
2, 69120, Note_off_c, 1, 71, 0
2, 69160, Note_on_c, 1, 89, 127
2, 69240, Note_on_c, 1, 85, 127
2, 69280, Note_on_c, 1, 55, 127
2, 69280, Note_on_c, 1, 80, 127
2, 69320, Note_off_c, 1, 80, 0
2, 69320, Note_off_c, 1, 85, 0
2, 69320, Note_on_c, 1, 87, 127
2, 69320, Note_on_c, 1, 92, 127
2, 69360, Note_off_c, 1, 87, 0
2, 69400, Note_off_c, 1, 70, 0
2, 69400, Note_off_c, 1, 89, 0
2, 69400, Note_off_c, 1, 92, 0
2, 69440, Note_off_c, 1, 55, 0
2, 69440, Note_off_c, 1, 96, 0
2, 69600, Note_on_c, 1, 84, 127
2, 69600, Note_on_c, 1, 86, 127
2, 69600, Note_on_c, 1, 91, 127
2, 69640, Note_on_c, 1, 78, 127
2, 69640, Note_on_c, 1, 94, 127
2, 69840, Note_off_c, 1, 78, 0
2, 70360, Note_on_c, 1, 62, 127
2, 70400, Note_off_c, 1, 86, 0
2, 70440, Note_on_c, 1, 80, 127
2, 70440, Note_off_c, 1, 84, 0
2, 70480, Note_off_c, 1, 80, 0
2, 70480, Note_off_c, 1, 91, 0
2, 70480, Note_off_c, 1, 94, 0
2, 70520, Note_off_c, 1, 62, 0
2, 70720, Note_on_c, 1, 77, 127
2, 70720, Note_on_c, 1, 80, 127
2, 70720, Note_on_c, 1, 84, 127
2, 70720, Note_on_c, 1, 85, 127
2, 70720, Note_on_c, 1, 89, 127
2, 70760, Note_on_c, 1, 81, 127
2, 70760, Note_on_c, 1, 91, 127
2, 70960, Note_off_c, 1, 81, 0
2, 71080, Note_on_c, 1, 71, 127
2, 71280, Note_on_c, 1, 64, 127
2, 71320, Note_off_c, 1, 64, 0
2, 71640, Note_off_c, 1, 71, 0
2, 71840, Note_off_c, 1, 77, 0
2, 71960, Note_on_c, 1, 71, 127
2, 71960, Note_off_c, 1, 84, 0
2, 72000, Note_on_c, 1, 81, 127
2, 72320, Note_off_c, 1, 89, 0
2, 72560, Note_on_c, 1, 68, 127
2, 72600, Note_on_c, 1, 58, 127
2, 72640, Note_on_c, 1, 56, 127
2, 72640, Note_off_c, 1, 80, 0
2, 72760, Note_off_c, 1, 68, 0
2, 72840, Note_off_c, 1, 56, 0
2, 72880, Note_on_c, 1, 80, 127
2, 72880, Note_off_c, 1, 81, 0
2, 73000, Note_on_c, 1, 81, 127
2, 73040, Note_off_c, 1, 80, 0
2, 73200, Note_off_c, 1, 58, 0
2, 73200, Note_off_c, 1, 85, 0
2, 73200, Note_off_c, 1, 91, 0
2, 73400, Note_on_c, 1, 64, 127
2, 73400, Note_on_c, 1, 66, 127
2, 73400, Note_on_c, 1, 67, 127
2, 73400, Note_off_c, 1, 71, 0
2, 73440, Note_off_c, 1, 66, 0
2, 73600, Note_off_c, 1, 67, 0
2, 73600, Note_on_c, 1, 70, 127
2, 73640, Note_off_c, 1, 64, 0
2, 73720, Note_off_c, 1, 81, 0
2, 73760, Note_off_c, 1, 70, 0
2, 73800, Note_on_c, 1, 60, 127
2, 73800, Note_on_c, 1, 80, 127
2, 73840, Note_off_c, 1, 60, 0
2, 73840, Note_on_c, 1, 73, 127
2, 74000, Note_off_c, 1, 73, 0
2, 74000, Note_off_c, 1, 80, 0
2, 74120, Note_on_c, 1, 91, 127
2, 74160, Note_on_c, 1, 71, 127
2, 74160, Note_on_c, 1, 73, 127
2, 74160, Note_on_c, 1, 81, 127
2, 74160, Note_on_c, 1, 85, 127
2, 74320, Note_off_c, 1, 71, 0
2, 74320, Note_off_c, 1, 85, 0
2, 74400, Note_off_c, 1, 81, 0
2, 74560, Note_off_c, 1, 73, 0
2, 74560, Note_on_c, 1, 75, 127
2, 74640, Note_on_c, 1, 71, 127
2, 74640, Note_on_c, 1, 73, 127
2, 74640, Note_off_c, 1, 75, 0
2, 74680, Note_off_c, 1, 71, 0
2, 74720, Note_off_c, 1, 73, 0
2, 74720, Note_on_c, 1, 75, 127
2, 74720, Note_on_c, 1, 80, 127
2, 74720, Note_on_c, 1, 84, 127
2, 74720, Note_on_c, 1, 85, 127
2, 74880, Note_off_c, 1, 80, 0
2, 74960, Note_off_c, 1, 75, 0
2, 75200, Note_on_c, 1, 63, 127
2, 75200, Note_off_c, 1, 85, 0
2, 75240, Note_on_c, 1, 67, 127
2, 75320, Note_off_c, 1, 84, 0
2, 75480, Note_off_c, 1, 91, 0
2, 75600, Note_on_c, 1, 65, 127
2, 75600, Note_off_c, 1, 67, 0
2, 75640, Note_off_c, 1, 65, 0
2, 75640, Note_on_c, 1, 73, 127
2, 75640, Note_on_c, 1, 78, 127
2, 75640, Note_on_c, 1, 84, 127
2, 75640, Note_on_c, 1, 89, 127
2, 75800, Note_off_c, 1, 73, 0
2, 76120, Note_off_c, 1, 63, 0
2, 76280, Note_on_c, 1, 56, 127
2, 76480, Note_on_c, 1, 63, 127
2, 76600, Note_off_c, 1, 63, 0
2, 76640, Note_off_c, 1, 84, 0
2, 76680, Note_off_c, 1, 78, 0
2, 76680, Note_off_c, 1, 89, 0
2, 77160, Note_on_c, 1, 61, 127
2, 77360, Note_off_c, 1, 61, 0
2, 77400, Note_off_c, 1, 56, 0
2, 77520, Note_on_c, 1, 56, 127
2, 77520, Note_on_c, 1, 59, 127
2, 77520, Note_on_c, 1, 80, 127
2, 77520, Note_on_c, 1, 83, 127
2, 77520, Note_on_c, 1, 92, 127
2, 77560, Note_off_c, 1, 59, 0
2, 77560, Note_on_c, 1, 75, 127
2, 77760, Note_off_c, 1, 56, 0
2, 77800, Note_off_c, 1, 80, 0
2, 77880, Note_off_c, 1, 92, 0
2, 77920, Note_on_c, 1, 56, 127
2, 77920, Note_off_c, 1, 75, 0
2, 77920, Note_off_c, 1, 83, 0
2, 77960, Note_on_c, 1, 80, 127
2, 78160, Note_off_c, 1, 80, 0
2, 78320, Note_on_c, 1, 78, 127
2, 78400, Note_on_c, 1, 96, 127
2, 78520, Note_off_c, 1, 96, 0
2, 78640, Note_off_c, 1, 78, 0
2, 78680, Note_on_c, 1, 75, 127
2, 78880, Note_off_c, 1, 56, 0
2, 78880, Note_on_c, 1, 78, 127
2, 79040, Note_off_c, 1, 78, 0
2, 79120, Note_on_c, 1, 63, 127
2, 79240, Note_off_c, 1, 63, 0
2, 79360, Note_on_c, 1, 78, 127
2, 79400, Note_on_c, 1, 51, 127
2, 79440, Note_off_c, 1, 75, 0
2, 79520, Note_on_c, 1, 60, 127
2, 79520, Note_off_c, 1, 78, 0
2, 79600, Note_off_c, 1, 60, 0
2, 80480, Note_on_c, 1, 81, 127
2, 80480, Note_on_c, 1, 89, 127
2, 80480, Note_on_c, 1, 93, 127
2, 80480, Note_on_c, 1, 97, 127
2, 80760, Note_off_c, 1, 89, 0
2, 80800, Note_off_c, 1, 93, 0
2, 80920, Note_off_c, 1, 97, 0
2, 81000, Note_off_c, 1, 81, 0
2, 81080, Note_on_c, 1, 97, 127
2, 81120, Note_on_c, 1, 90, 127
2, 81200, Note_on_c, 1, 75, 127
2, 81240, Note_off_c, 1, 51, 0
2, 81240, Note_off_c, 1, 97, 0
2, 81280, Note_off_c, 1, 90, 0
2, 81360, Note_on_c, 1, 74, 127
2, 81360, Note_off_c, 1, 75, 0
2, 81400, Note_on_c, 1, 56, 127
2, 81440, Note_off_c, 1, 74, 0
2, 81520, Note_on_c, 1, 102, 127
2, 81560, Note_on_c, 1, 78, 127
2, 81640, Note_on_c, 1, 75, 127
2, 81680, Note_off_c, 1, 102, 0
2, 81880, Note_off_c, 1, 75, 0
2, 82200, Note_on_c, 1, 107, 127
2, 82280, Note_off_c, 1, 107, 0
2, 82400, Note_off_c, 1, 78, 0
2, 82400, Note_on_c, 1, 107, 127
2, 82440, Note_on_c, 1, 83, 127
2, 82480, Note_off_c, 1, 83, 0
2, 82480, Note_off_c, 1, 107, 0
2, 82640, Note_on_c, 1, 107, 127
2, 82680, Note_on_c, 1, 75, 127
2, 82680, Note_on_c, 1, 85, 127
2, 82720, Note_on_c, 1, 80, 127
2, 82720, Note_on_c, 1, 95, 127
2, 82880, Note_off_c, 1, 95, 0
2, 82960, Note_off_c, 1, 107, 0
2, 83000, Note_off_c, 1, 56, 0
2, 83040, Note_on_c, 1, 56, 127
2, 83040, Note_on_c, 1, 65, 127
2, 83080, Note_off_c, 1, 75, 0
2, 83120, Note_off_c, 1, 65, 0
2, 83160, Note_off_c, 1, 85, 0
2, 83200, Note_off_c, 1, 56, 0
2, 83240, Note_on_c, 1, 91, 127
2, 83280, Note_on_c, 1, 102, 127
2, 83360, Note_off_c, 1, 102, 0
2, 83400, Note_on_c, 1, 57, 127
2, 83400, Note_on_c, 1, 62, 127
2, 83440, Note_off_c, 1, 62, 0
2, 83440, Note_on_c, 1, 63, 127
2, 83480, Note_off_c, 1, 57, 0
2, 83480, Note_off_c, 1, 63, 0
2, 83600, Note_off_c, 1, 91, 0
2, 83680, Note_off_c, 1, 80, 0
2, 83760, Note_on_c, 1, 57, 127
2, 83760, Note_on_c, 1, 79, 127
2, 83760, Note_on_c, 1, 83, 127
2, 83760, Note_on_c, 1, 87, 127
2, 83760, Note_on_c, 1, 92, 127
2, 83760, Note_on_c, 1, 102, 127
2, 83800, Note_on_c, 1, 73, 127
2, 83840, Note_off_c, 1, 57, 0
2, 83840, Note_off_c, 1, 92, 0
2, 84120, Note_off_c, 1, 102, 0
2, 84160, Note_on_c, 1, 102, 127
2, 84200, Note_on_c, 1, 90, 127
2, 84200, Note_on_c, 1, 97, 127
2, 84320, Note_off_c, 1, 90, 0
2, 84320, Note_off_c, 1, 102, 0
2, 84360, Note_off_c, 1, 73, 0
2, 84360, Note_off_c, 1, 79, 0
2, 84440, Note_off_c, 1, 97, 0
2, 84440, Note_on_c, 1, 100, 127
2, 84480, Note_off_c, 1, 100, 0
2, 84520, Note_off_c, 1, 87, 0
2, 84640, Note_on_c, 1, 73, 127
2, 84640, Note_on_c, 1, 79, 127
2, 84640, Note_off_c, 1, 83, 0
2, 84680, Note_on_c, 1, 83, 127
2, 84680, Note_on_c, 1, 88, 127
2, 84680, Note_on_c, 1, 100, 127
2, 84800, Note_off_c, 1, 83, 0
2, 84840, Note_off_c, 1, 79, 0
2, 84840, Note_off_c, 1, 88, 0
2, 84920, Note_off_c, 1, 100, 0
2, 85040, Note_off_c, 1, 73, 0
2, 85200, Note_on_c, 1, 70, 127
2, 85240, Note_on_c, 1, 56, 127
2, 85240, Note_off_c, 1, 70, 0
2, 85280, Note_off_c, 1, 56, 0
2, 85320, Note_on_c, 1, 71, 127
2, 85440, Note_on_c, 1, 78, 127
2, 85480, Note_on_c, 1, 55, 127
2, 85480, Note_off_c, 1, 71, 0
2, 85480, Note_on_c, 1, 76, 127
2, 85480, Note_on_c, 1, 80, 127
2, 85520, Note_on_c, 1, 71, 127
2, 85520, Note_on_c, 1, 83, 127
2, 85520, Note_on_c, 1, 92, 127
2, 85520, Note_on_c, 1, 104, 127
2, 85840, Note_off_c, 1, 78, 0
2, 85920, Note_on_c, 1, 59, 127
2, 85960, Note_off_c, 1, 59, 0
2, 85960, Note_off_c, 1, 71, 0
2, 86000, Note_off_c, 1, 55, 0
2, 86000, Note_on_c, 1, 71, 127
2, 86040, Note_off_c, 1, 71, 0
2, 86080, Note_off_c, 1, 92, 0
2, 86280, Note_off_c, 1, 104, 0
2, 86360, Note_off_c, 1, 76, 0
2, 86360, Note_off_c, 1, 80, 0
2, 86360, Note_off_c, 1, 83, 0
2, 86480, Note_on_c, 1, 71, 127
2, 86520, Note_off_c, 1, 71, 0
2, 86920, Note_on_c, 1, 71, 127
2, 86920, Note_on_c, 1, 83, 127
2, 86960, Note_on_c, 1, 76, 127
2, 86960, Note_on_c, 1, 80, 127
2, 86960, Note_on_c, 1, 92, 127
2, 86960, Note_on_c, 1, 104, 127
2, 87000, Note_on_c, 1, 55, 127
2, 87240, Note_off_c, 1, 71, 0
2, 87520, Note_off_c, 1, 80, 0
2, 87560, Note_off_c, 1, 76, 0
2, 87560, Note_off_c, 1, 83, 0
2, 87560, Note_off_c, 1, 92, 0
2, 87560, Note_on_c, 1, 100, 127
2, 87600, Note_off_c, 1, 100, 0
2, 87600, Note_off_c, 1, 104, 0
2, 87880, Note_on_c, 1, 54, 127
2, 87880, Note_off_c, 1, 55, 0
2, 87920, Note_off_c, 1, 54, 0
2, 87920, Note_on_c, 1, 55, 127
2, 87960, Note_on_c, 1, 67, 127
2, 87960, Note_on_c, 1, 79, 127
2, 87960, Note_on_c, 1, 99, 127
2, 88000, Note_on_c, 1, 76, 127
2, 88000, Note_on_c, 1, 83, 127
2, 88080, Note_off_c, 1, 55, 0
2, 88360, Note_on_c, 1, 96, 127
2, 88360, Note_off_c, 1, 99, 0
2, 88400, Note_off_c, 1, 67, 0
2, 88440, Note_off_c, 1, 83, 0
2, 88520, Note_off_c, 1, 76, 0
2, 88520, Note_off_c, 1, 79, 0
2, 88520, Note_on_c, 1, 80, 127
2, 88560, Note_off_c, 1, 80, 0
2, 88640, Note_on_c, 1, 81, 127
2, 88680, Note_on_c, 1, 56, 127
2, 88680, Note_on_c, 1, 64, 127
2, 88680, Note_on_c, 1, 71, 127
2, 88680, Note_on_c, 1, 74, 127
2, 88680, Note_on_c, 1, 76, 127
2, 88680, Note_on_c, 1, 79, 127
2, 88680, Note_off_c, 1, 96, 0
2, 88720, Note_on_c, 1, 55, 127
2, 88720, Note_off_c, 1, 56, 0
2, 88720, Note_off_c, 1, 64, 0
2, 88760, Note_off_c, 1, 55, 0
2, 88800, Note_off_c, 1, 81, 0
2, 89040, Note_off_c, 1, 74, 0
2, 89160, Note_on_c, 1, 56, 127
2, 89280, Note_off_c, 1, 76, 0
2, 89280, Note_off_c, 1, 79, 0
2, 89280, Note_on_c, 1, 100, 127
2, 89320, Note_off_c, 1, 56, 0
2, 89320, Note_off_c, 1, 100, 0
2, 89360, Note_on_c, 1, 62, 127
2, 89400, Note_off_c, 1, 62, 0
2, 89480, Note_off_c, 1, 71, 0
2, 89760, Note_on_c, 1, 80, 127
2, 89800, Note_off_c, 1, 80, 0
2, 90120, Note_on_c, 1, 81, 127
2, 90160, Note_on_c, 1, 76, 127
2, 90160, Note_on_c, 1, 80, 127
2, 90160, Note_on_c, 1, 85, 127
2, 90160, Note_on_c, 1, 92, 127
2, 90160, Note_on_c, 1, 100, 127
2, 90320, Note_off_c, 1, 81, 0
2, 90720, Note_off_c, 1, 85, 0
2, 90800, Note_off_c, 1, 76, 0
2, 90800, Note_off_c, 1, 80, 0
2, 90840, Note_off_c, 1, 92, 0
2, 90840, Note_off_c, 1, 100, 0
2, 91080, Note_on_c, 1, 55, 127
2, 91200, Note_off_c, 1, 55, 0
2, 91200, Note_on_c, 1, 71, 127
2, 91200, Note_on_c, 1, 78, 127
2, 91200, Note_on_c, 1, 89, 127
2, 91240, Note_on_c, 1, 84, 127
2, 91240, Note_on_c, 1, 93, 127
2, 91240, Note_on_c, 1, 100, 127
2, 91360, Note_on_c, 1, 55, 127
2, 91400, Note_off_c, 1, 55, 0
2, 91520, Note_off_c, 1, 71, 0
2, 91520, Note_off_c, 1, 100, 0
2, 91600, Note_off_c, 1, 78, 0
2, 91600, Note_off_c, 1, 89, 0
2, 91600, Note_off_c, 1, 93, 0
2, 91640, Note_off_c, 1, 84, 0
2, 91760, Note_on_c, 1, 59, 127
2, 91760, Note_on_c, 1, 72, 127
2, 91760, Note_on_c, 1, 80, 127
2, 91760, Note_on_c, 1, 84, 127
2, 91760, Note_on_c, 1, 89, 127
2, 91760, Note_on_c, 1, 92, 127
2, 91760, Note_on_c, 1, 95, 127
2, 91800, Note_on_c, 1, 55, 127
2, 91800, Note_off_c, 1, 59, 0
2, 91800, Note_off_c, 1, 72, 0
2, 91800, Note_on_c, 1, 74, 127
2, 91800, Note_off_c, 1, 92, 0
2, 91800, Note_off_c, 1, 95, 0
2, 91840, End_track
3, 0, Start_track
3, 0, Title_t, "MIDI"
3, 1536, End_track
0, 0, End_of_file
