0, 0, Header, 1, 3, 384
1, 0, Start_track
1, 0, Time_signature, 4, 2, 24, 8
1, 0, Tempo, 500000
1, 110040, End_track
2, 0, Start_track
2, 0, Text_t, "harpsichord: John Sankey"
2, 0, Title_t, "Track 1"
2, 0, Note_on_c, 1, 70, 127
2, 0, Note_on_c, 1, 76, 127
2, 40, Note_on_c, 1, 64, 127
2, 240, Note_on_c, 1, 60, 127
2, 1200, Note_off_c, 1, 76, 0
2, 1240, Note_on_c, 1, 77, 127
2, 1640, Note_off_c, 1, 60, 0
2, 1640, Note_off_c, 1, 77, 0
2, 1680, Note_on_c, 1, 48, 127
2, 1680, Note_on_c, 1, 76, 127
2, 2000, Note_off_c, 1, 48, 0
2, 2000, Note_off_c, 1, 64, 0
2, 2000, Note_off_c, 1, 70, 0
2, 2000, Note_off_c, 1, 76, 0
2, 2040, Note_on_c, 1, 53, 127
2, 2040, Note_on_c, 1, 65, 127
2, 2040, Note_on_c, 1, 69, 127
2, 2040, Note_on_c, 1, 73, 127
2, 2080, Note_off_c, 1, 73, 0
2, 2120, Note_on_c, 1, 72, 127
2, 2320, Note_off_c, 1, 53, 0
2, 2360, Note_on_c, 1, 57, 127
2, 2520, Note_off_c, 1, 57, 0
2, 2600, Note_on_c, 1, 56, 127
2, 2800, Note_off_c, 1, 56, 0
2, 2840, Note_on_c, 1, 57, 127
2, 3040, Note_off_c, 1, 57, 0
2, 3080, Note_on_c, 1, 60, 127
2, 3280, Note_off_c, 1, 60, 0
2, 3320, Note_on_c, 1, 54, 127
2, 3480, Note_on_c, 1, 53, 127
2, 3480, Note_off_c, 1, 54, 0
2, 3560, Note_off_c, 1, 65, 0
2, 3560, Note_off_c, 1, 69, 0
2, 3560, Note_off_c, 1, 72, 0
2, 3600, Note_on_c, 1, 67, 127
2, 3600, Note_on_c, 1, 69, 127
2, 3600, Note_on_c, 1, 72, 127
2, 4000, Note_off_c, 1, 67, 0
2, 4040, Note_on_c, 1, 64, 127
2, 4080, Note_off_c, 1, 64, 0
2, 4080, Note_on_c, 1, 65, 127
2, 4400, Note_off_c, 1, 53, 0
2, 4440, Note_on_c, 1, 55, 127
2, 4520, Note_off_c, 1, 55, 0
2, 4560, Note_on_c, 1, 53, 127
2, 4640, Note_off_c, 1, 53, 0
2, 4680, Note_on_c, 1, 57, 127
2, 4760, Note_off_c, 1, 57, 0
2, 4800, Note_on_c, 1, 55, 127
2, 4840, Note_off_c, 1, 55, 0
2, 4880, Note_on_c, 1, 57, 127
2, 4920, Note_off_c, 1, 57, 0
2, 4960, Note_on_c, 1, 53, 127
2, 5000, Note_off_c, 1, 53, 0
2, 5000, Note_off_c, 1, 65, 0
2, 5000, Note_off_c, 1, 69, 0
2, 5000, Note_off_c, 1, 72, 0
2, 5040, Note_on_c, 1, 54, 127
2, 5040, Note_on_c, 1, 65, 127
2, 5200, Note_on_c, 1, 70, 127
2, 5320, Note_off_c, 1, 54, 0
2, 5320, Note_off_c, 1, 65, 0
2, 5320, Note_off_c, 1, 70, 0
2, 5360, Note_on_c, 1, 53, 127
2, 5360, Note_on_c, 1, 69, 127
2, 5440, Note_off_c, 1, 69, 0
2, 5480, Note_on_c, 1, 72, 127
2, 5560, Note_off_c, 1, 53, 0
2, 5560, Note_off_c, 1, 72, 0
2, 5600, Note_on_c, 1, 58, 127
2, 5600, Note_on_c, 1, 73, 127
2, 5760, Note_off_c, 1, 73, 0
2, 5800, Note_on_c, 1, 73, 127
2, 6080, Note_off_c, 1, 73, 0
2, 6120, Note_on_c, 1, 70, 127
2, 6240, Note_off_c, 1, 70, 0
2, 6280, Note_on_c, 1, 66, 127
2, 6640, Note_off_c, 1, 66, 0
2, 6680, Note_on_c, 1, 69, 127
2, 6800, Note_off_c, 1, 58, 0
2, 6800, Note_off_c, 1, 69, 0
2, 6840, Note_on_c, 1, 60, 127
2, 6840, Note_on_c, 1, 67, 127
2, 7440, Note_off_c, 1, 60, 0
2, 7440, Note_off_c, 1, 67, 0
2, 7520, Note_on_c, 1, 37, 127
2, 7520, Note_on_c, 1, 49, 127
2, 7520, Note_on_c, 1, 61, 127
2, 7520, Note_on_c, 1, 64, 127
2, 7520, Note_on_c, 1, 68, 127
2, 7520, Note_on_c, 1, 73, 127
2, 8120, Note_off_c, 1, 68, 0
2, 8120, Note_off_c, 1, 73, 0
2, 8160, Note_on_c, 1, 68, 127
2, 8280, Note_on_c, 1, 52, 127
2, 8280, Note_off_c, 1, 68, 0
2, 8320, Note_on_c, 1, 68, 127
2, 8520, Note_off_c, 1, 37, 0
2, 8520, Note_off_c, 1, 49, 0
2, 8520, Note_off_c, 1, 52, 0
2, 8520, Note_off_c, 1, 64, 0
2, 8560, Note_off_c, 1, 61, 0
2, 8600, Note_on_c, 1, 42, 127
2, 8600, Note_off_c, 1, 68, 0
2, 8640, Note_on_c, 1, 39, 127
2, 8640, Note_off_c, 1, 42, 0
2, 9200, Note_off_c, 1, 39, 0
2, 9320, Note_on_c, 1, 51, 127
2, 10720, Note_off_c, 1, 51, 0
2, 10760, Note_on_c, 1, 51, 127
2, 10760, Note_on_c, 1, 75, 127
2, 11120, Note_off_c, 1, 51, 0
2, 11120, Note_off_c, 1, 75, 0
2, 11160, Note_on_c, 1, 56, 127
2, 11160, Note_on_c, 1, 73, 127
2, 11400, Note_off_c, 1, 73, 0
2, 11440, Note_on_c, 1, 72, 127
2, 11560, Note_off_c, 1, 72, 0
2, 11600, Note_on_c, 1, 73, 127
2, 11680, Note_off_c, 1, 73, 0
2, 11720, Note_on_c, 1, 72, 127
2, 11760, Note_off_c, 1, 72, 0
2, 11800, Note_on_c, 1, 70, 127
2, 11840, Note_off_c, 1, 70, 0
2, 11880, Note_on_c, 1, 68, 127
2, 12120, Note_off_c, 1, 68, 0
2, 12160, Note_on_c, 1, 70, 127
2, 12240, Note_off_c, 1, 70, 0
2, 12280, Note_on_c, 1, 72, 127
2, 12400, Note_on_c, 1, 65, 127
2, 12600, Note_off_c, 1, 65, 0
2, 12600, Note_off_c, 1, 72, 0
2, 12640, Note_on_c, 1, 66, 127
2, 12800, Note_off_c, 1, 66, 0
2, 12840, Note_on_c, 1, 65, 127
2, 13000, Note_on_c, 1, 70, 127
2, 13040, Note_off_c, 1, 70, 0
2, 13080, Note_on_c, 1, 72, 127
2, 13120, Note_off_c, 1, 56, 0
2, 13240, Note_on_c, 1, 56, 127
2, 13240, Note_off_c, 1, 65, 0
2, 13360, Note_on_c, 1, 65, 127
2, 13560, Note_off_c, 1, 56, 0
2, 13560, Note_off_c, 1, 65, 0
2, 13600, Note_on_c, 1, 54, 127
2, 13600, Note_on_c, 1, 63, 127
2, 13840, Note_off_c, 1, 63, 0
2, 13880, Note_on_c, 1, 61, 127
2, 14240, Note_off_c, 1, 72, 0
2, 14280, Note_on_c, 1, 70, 127
2, 14480, Note_off_c, 1, 61, 0
2, 14480, Note_off_c, 1, 70, 0
2, 14520, Note_on_c, 1, 60, 127
2, 14520, Note_on_c, 1, 66, 127
2, 14520, Note_on_c, 1, 75, 127
2, 14720, Note_off_c, 1, 60, 0
2, 14720, Note_off_c, 1, 66, 0
2, 14760, Note_on_c, 1, 63, 127
2, 14960, Note_off_c, 1, 54, 0
2, 14960, Note_off_c, 1, 63, 0
2, 15000, Note_on_c, 1, 53, 127
2, 15000, Note_on_c, 1, 65, 127
2, 15120, Note_off_c, 1, 53, 0
2, 15160, Note_on_c, 1, 58, 127
2, 15320, Note_off_c, 1, 75, 0
2, 15400, Note_on_c, 1, 77, 127
2, 15600, Note_off_c, 1, 58, 0
2, 15600, Note_off_c, 1, 65, 0
2, 15600, Note_off_c, 1, 77, 0
2, 15640, Note_on_c, 1, 51, 127
2, 15640, Note_on_c, 1, 67, 127
2, 15640, Note_on_c, 1, 70, 127
2, 16160, Note_off_c, 1, 51, 0
2, 16160, Note_off_c, 1, 70, 0
2, 16200, Note_on_c, 1, 49, 127
2, 16200, Note_on_c, 1, 70, 127
2, 16480, Note_off_c, 1, 49, 0
2, 16480, Note_off_c, 1, 70, 0
2, 16520, Note_on_c, 1, 51, 127
2, 16520, Note_on_c, 1, 72, 127
2, 16640, Note_off_c, 1, 67, 0
2, 16640, Note_off_c, 1, 72, 0
2, 16680, Note_on_c, 1, 73, 127
2, 16760, Note_off_c, 1, 73, 0
2, 16800, Note_on_c, 1, 39, 127
2, 16800, Note_on_c, 1, 75, 127
2, 17000, Note_on_c, 1, 67, 127
2, 17240, Note_off_c, 1, 75, 0
2, 17280, Note_on_c, 1, 73, 127
2, 17440, Note_off_c, 1, 67, 0
2, 17480, Note_on_c, 1, 75, 127
2, 19240, Note_off_c, 1, 51, 0
2, 19280, Note_on_c, 1, 51, 127
2, 20640, Note_off_c, 1, 39, 0
2, 20680, Note_on_c, 1, 39, 127
2, 22360, Note_off_c, 1, 39, 0
2, 22440, Note_off_c, 1, 51, 0
2, 22440, Note_off_c, 1, 73, 0
2, 22480, Note_on_c, 1, 44, 127
2, 22480, Note_on_c, 1, 68, 127
2, 22480, Note_on_c, 1, 73, 127
2, 22840, Note_off_c, 1, 75, 0
2, 22880, Note_on_c, 1, 74, 127
2, 22920, Note_off_c, 1, 73, 0
2, 22920, Note_off_c, 1, 74, 0
2, 22960, Note_on_c, 1, 72, 127
2, 23000, Note_off_c, 1, 68, 0
2, 23000, Note_off_c, 1, 72, 0
2, 23040, Note_on_c, 1, 54, 127
2, 23040, Note_on_c, 1, 70, 127
2, 23080, Note_off_c, 1, 54, 0
2, 23160, Note_off_c, 1, 70, 0
2, 23200, Note_on_c, 1, 68, 127
2, 23640, Note_on_c, 1, 60, 127
2, 26120, Note_off_c, 1, 44, 0
2, 26120, Note_off_c, 1, 60, 0
2, 26120, Note_off_c, 1, 68, 0
2, 27280, Note_on_c, 1, 56, 127
2, 27280, Note_on_c, 1, 60, 127
2, 27280, Note_on_c, 1, 63, 127
2, 27280, Note_on_c, 1, 68, 127
2, 27280, Note_on_c, 1, 72, 127
2, 27600, Note_off_c, 1, 63, 0
2, 27680, Note_on_c, 1, 44, 127
2, 27800, Note_off_c, 1, 72, 0
2, 27840, Note_on_c, 1, 75, 127
2, 27960, Note_off_c, 1, 68, 0
2, 28000, Note_off_c, 1, 60, 0
2, 28040, Note_on_c, 1, 63, 127
2, 28040, Note_on_c, 1, 68, 127
2, 28040, Note_on_c, 1, 72, 127
2, 28440, Note_off_c, 1, 63, 0
2, 28480, Note_off_c, 1, 68, 0
2, 28480, Note_off_c, 1, 72, 0
2, 28480, Note_off_c, 1, 75, 0
2, 28560, Note_on_c, 1, 72, 127
2, 28560, Note_on_c, 1, 75, 127
2, 28920, Note_off_c, 1, 44, 0
2, 28960, Note_on_c, 1, 44, 127
2, 29080, Note_off_c, 1, 75, 0
2, 29120, Note_on_c, 1, 79, 127
2, 29240, Note_off_c, 1, 79, 0
2, 29280, Note_off_c, 1, 44, 0
2, 29280, Note_off_c, 1, 56, 0
2, 29280, Note_off_c, 1, 72, 0
2, 29280, Note_on_c, 1, 80, 127
2, 29320, Note_on_c, 1, 48, 127
2, 29320, Note_on_c, 1, 56, 127
2, 29320, Note_on_c, 1, 73, 127
2, 29480, Note_off_c, 1, 48, 0
2, 29480, Note_off_c, 1, 73, 0
2, 29480, Note_off_c, 1, 80, 0
2, 29520, Note_on_c, 1, 48, 127
2, 29520, Note_on_c, 1, 75, 127
2, 29520, Note_on_c, 1, 80, 127
2, 29840, Note_off_c, 1, 48, 0
2, 29840, Note_off_c, 1, 75, 0
2, 29840, Note_off_c, 1, 80, 0
2, 29880, Note_on_c, 1, 46, 127
2, 29880, Note_on_c, 1, 73, 127
2, 29880, Note_on_c, 1, 82, 127
2, 30280, Note_off_c, 1, 82, 0
2, 30320, Note_on_c, 1, 82, 127
2, 30640, Note_off_c, 1, 46, 0
2, 30640, Note_off_c, 1, 56, 0
2, 30640, Note_off_c, 1, 73, 0
2, 30680, Note_on_c, 1, 44, 127
2, 30680, Note_on_c, 1, 55, 127
2, 30680, Note_on_c, 1, 75, 127
2, 31040, Note_on_c, 1, 43, 127
2, 31040, Note_off_c, 1, 44, 0
2, 31040, Note_off_c, 1, 55, 0
2, 31040, Note_off_c, 1, 75, 0
2, 31040, Note_off_c, 1, 82, 0
2, 31080, Note_off_c, 1, 43, 0
2, 31080, Note_on_c, 1, 46, 127
2, 31080, Note_on_c, 1, 55, 127
2, 31080, Note_on_c, 1, 73, 127
2, 31080, Note_on_c, 1, 82, 127
2, 31200, Note_off_c, 1, 46, 0
2, 31240, Note_on_c, 1, 46, 127
2, 31280, Note_off_c, 1, 73, 0
2, 31320, Note_on_c, 1, 73, 127
2, 31400, Note_off_c, 1, 55, 0
2, 31400, Note_off_c, 1, 73, 0
2, 31400, Note_off_c, 1, 82, 0
2, 31440, Note_on_c, 1, 56, 127
2, 31440, Note_on_c, 1, 72, 127
2, 31440, Note_on_c, 1, 82, 127
2, 31480, Note_off_c, 1, 46, 0
2, 31680, Note_off_c, 1, 56, 0
2, 31720, Note_on_c, 1, 70, 127
2, 31720, Note_off_c, 1, 72, 0
2, 31800, Note_off_c, 1, 82, 0
2, 31840, Note_off_c, 1, 70, 0
2, 31880, Note_on_c, 1, 68, 127
2, 31880, Note_on_c, 1, 73, 127
2, 31880, Note_on_c, 1, 82, 127
2, 32400, Note_on_c, 1, 65, 127
2, 32400, Note_off_c, 1, 68, 0
2, 32720, Note_off_c, 1, 65, 0
2, 32720, Note_off_c, 1, 73, 0
2, 32760, Note_on_c, 1, 61, 127
2, 32760, Note_on_c, 1, 75, 127
2, 32880, Note_off_c, 1, 75, 0
2, 32920, Note_on_c, 1, 77, 127
2, 33040, Note_off_c, 1, 77, 0
2, 33040, Note_off_c, 1, 82, 0
2, 33080, Note_on_c, 1, 75, 127
2, 33080, Note_on_c, 1, 80, 127
2, 33240, Note_off_c, 1, 75, 0
2, 33280, Note_on_c, 1, 84, 127
2, 33480, Note_off_c, 1, 61, 0
2, 33560, Note_on_c, 1, 63, 127
2, 33840, Note_off_c, 1, 80, 0
2, 33880, Note_off_c, 1, 63, 0
2, 33880, Note_off_c, 1, 84, 0
2, 33920, Note_on_c, 1, 61, 127
2, 33920, Note_on_c, 1, 80, 127
2, 33920, Note_on_c, 1, 85, 127
2, 34120, Note_off_c, 1, 80, 0
2, 34120, Note_on_c, 1, 82, 127
2, 34280, Note_off_c, 1, 61, 0
2, 34320, Note_off_c, 1, 82, 0
2, 34320, Note_off_c, 1, 85, 0
2, 34360, Note_on_c, 1, 63, 127
2, 34360, Note_on_c, 1, 72, 127
2, 34360, Note_on_c, 1, 78, 127
2, 34600, Note_off_c, 1, 63, 0
2, 34640, Note_on_c, 1, 66, 127
2, 34880, Note_off_c, 1, 72, 0
2, 34880, Note_off_c, 1, 78, 0
2, 34920, Note_on_c, 1, 68, 127
2, 34920, Note_on_c, 1, 77, 127
2, 35200, Note_off_c, 1, 66, 0
2, 35200, Note_off_c, 1, 68, 0
2, 35200, Note_off_c, 1, 77, 0
2, 35240, Note_on_c, 1, 56, 127
2, 35240, Note_on_c, 1, 68, 127
2, 35240, Note_on_c, 1, 78, 127
2, 35360, Note_off_c, 1, 78, 0
2, 35400, Note_on_c, 1, 72, 127
2, 35520, Note_off_c, 1, 56, 0
2, 35560, Note_on_c, 1, 56, 127
2, 35560, Note_on_c, 1, 75, 127
2, 35680, Note_off_c, 1, 75, 0
2, 35680, Note_on_c, 1, 77, 127
2, 35720, Note_off_c, 1, 56, 0
2, 35720, Note_off_c, 1, 68, 0
2, 35720, Note_off_c, 1, 72, 0
2, 35720, Note_off_c, 1, 77, 0
2, 35760, Note_on_c, 1, 68, 127
2, 35760, Note_on_c, 1, 74, 127
2, 35760, Note_on_c, 1, 80, 127
2, 35800, Note_on_c, 1, 72, 127
2, 35800, Note_off_c, 1, 74, 0
2, 36120, Note_off_c, 1, 68, 0
2, 36120, Note_off_c, 1, 72, 0
2, 36120, Note_off_c, 1, 80, 0
2, 36120, Note_on_c, 1, 81, 127
2, 36160, Note_on_c, 1, 62, 127
2, 36160, Note_on_c, 1, 72, 127
2, 36160, Note_on_c, 1, 80, 127
2, 36160, Note_off_c, 1, 81, 0
2, 36280, Note_off_c, 1, 72, 0
2, 36320, Note_on_c, 1, 71, 127
2, 36480, Note_off_c, 1, 62, 0
2, 36480, Note_off_c, 1, 71, 0
2, 36520, Note_on_c, 1, 57, 127
2, 36520, Note_on_c, 1, 72, 127
2, 36760, Note_off_c, 1, 80, 0
2, 36800, Note_on_c, 1, 77, 127
2, 37000, Note_off_c, 1, 57, 0
2, 37000, Note_off_c, 1, 72, 0
2, 37000, Note_off_c, 1, 77, 0
2, 37040, Note_on_c, 1, 58, 127
2, 37040, Note_on_c, 1, 73, 127
2, 37040, Note_on_c, 1, 79, 127
2, 37600, Note_off_c, 1, 58, 0
2, 37600, Note_off_c, 1, 79, 0
2, 37640, Note_on_c, 1, 58, 127
2, 37640, Note_on_c, 1, 79, 127
2, 38040, Note_off_c, 1, 79, 0
2, 38080, Note_on_c, 1, 82, 127
2, 38280, Note_off_c, 1, 58, 0
2, 38280, Note_off_c, 1, 73, 0
2, 38320, Note_on_c, 1, 53, 127
2, 38320, Note_on_c, 1, 77, 127
2, 38480, Note_off_c, 1, 82, 0
2, 38520, Note_on_c, 1, 81, 127
2, 38760, Note_off_c, 1, 81, 0
2, 38800, Note_on_c, 1, 82, 127
2, 39120, Note_off_c, 1, 53, 0
2, 39160, Note_on_c, 1, 55, 127
2, 39440, Note_off_c, 1, 55, 0
2, 39440, Note_off_c, 1, 77, 0
2, 39440, Note_off_c, 1, 82, 0
2, 39480, Note_on_c, 1, 60, 127
2, 39480, Note_on_c, 1, 76, 127
2, 39480, Note_on_c, 1, 79, 127
2, 39760, Note_off_c, 1, 60, 0
2, 39760, Note_off_c, 1, 79, 0
2, 39800, Note_on_c, 1, 58, 127
2, 39800, Note_on_c, 1, 81, 127
2, 40040, Note_off_c, 1, 58, 0
2, 40040, Note_off_c, 1, 81, 0
2, 40080, Note_on_c, 1, 60, 127
2, 40080, Note_on_c, 1, 79, 127
2, 40280, Note_off_c, 1, 79, 0
2, 40320, Note_on_c, 1, 81, 127
2, 40440, Note_off_c, 1, 81, 0
2, 40480, Note_off_c, 1, 60, 0
2, 40480, Note_off_c, 1, 76, 0
2, 40520, Note_on_c, 1, 61, 127
2, 40520, Note_on_c, 1, 72, 127
2, 40520, Note_on_c, 1, 76, 127
2, 40880, Note_off_c, 1, 61, 0
2, 40920, Note_on_c, 1, 60, 127
2, 41200, Note_off_c, 1, 60, 0
2, 41200, Note_off_c, 1, 72, 0
2, 41200, Note_off_c, 1, 76, 0
2, 41240, Note_on_c, 1, 62, 127
2, 41240, Note_on_c, 1, 77, 127
2, 41440, Note_off_c, 1, 77, 0
2, 41480, Note_on_c, 1, 77, 127
2, 41640, Note_off_c, 1, 77, 0
2, 41680, Note_on_c, 1, 79, 127
2, 41840, Note_off_c, 1, 79, 0
2, 41880, Note_on_c, 1, 78, 127
2, 41960, Note_off_c, 1, 78, 0
2, 42040, Note_on_c, 1, 77, 127
2, 42160, Note_off_c, 1, 77, 0
2, 42200, Note_on_c, 1, 79, 127
2, 42400, Note_off_c, 1, 62, 0
2, 42400, Note_off_c, 1, 79, 0
2, 42440, Note_on_c, 1, 60, 127
2, 42440, Note_on_c, 1, 77, 127
2, 42600, Note_off_c, 1, 77, 0
2, 42640, Note_on_c, 1, 79, 127
2, 42800, Note_off_c, 1, 60, 0
2, 42800, Note_off_c, 1, 79, 0
2, 42840, Note_on_c, 1, 48, 127
2, 42840, Note_on_c, 1, 77, 127
2, 43000, Note_off_c, 1, 77, 0
2, 43040, Note_on_c, 1, 76, 127
2, 43200, Note_off_c, 1, 48, 0
2, 43200, Note_off_c, 1, 76, 0
2, 43280, Note_on_c, 1, 53, 127
2, 43280, Note_on_c, 1, 77, 127
2, 43440, Note_off_c, 1, 77, 0
2, 43480, Note_on_c, 1, 80, 127
2, 43640, Note_off_c, 1, 80, 0
2, 43680, Note_on_c, 1, 67, 127
2, 43680, Note_on_c, 1, 80, 127
2, 43800, Note_on_c, 1, 68, 127
2, 43840, Note_on_c, 1, 79, 127
2, 43840, Note_off_c, 1, 80, 0
2, 43960, Note_off_c, 1, 67, 0
2, 43960, Note_off_c, 1, 68, 0
2, 43960, Note_off_c, 1, 79, 0
2, 44040, Note_on_c, 1, 64, 127
2, 44040, Note_on_c, 1, 77, 127
2, 44160, Note_off_c, 1, 64, 0
2, 44200, Note_on_c, 1, 65, 127
2, 44360, Note_off_c, 1, 53, 0
2, 44360, Note_off_c, 1, 65, 0
2, 44360, Note_off_c, 1, 77, 0
2, 44400, Note_on_c, 1, 55, 127
2, 44400, Note_on_c, 1, 79, 127
2, 44560, Note_off_c, 1, 55, 0
2, 44600, Note_on_c, 1, 53, 127
2, 44760, Note_off_c, 1, 53, 0
2, 44760, Note_off_c, 1, 79, 0
2, 44800, Note_on_c, 1, 55, 127
2, 44800, Note_on_c, 1, 73, 127
2, 45000, Note_off_c, 1, 55, 0
2, 45000, Note_off_c, 1, 73, 0
2, 45040, Note_on_c, 1, 56, 127
2, 45040, Note_on_c, 1, 72, 127
2, 45200, Note_off_c, 1, 56, 0
2, 45240, Note_on_c, 1, 58, 127
2, 45240, Note_on_c, 1, 79, 127
2, 45480, Note_off_c, 1, 72, 0
2, 45480, Note_off_c, 1, 79, 0
2, 45520, Note_on_c, 1, 74, 127
2, 45680, Note_off_c, 1, 58, 0
2, 45680, Note_off_c, 1, 74, 0
2, 45720, Note_on_c, 1, 60, 127
2, 45720, Note_on_c, 1, 76, 127
2, 45920, Note_off_c, 1, 60, 0
2, 45960, Note_on_c, 1, 58, 127
2, 46120, Note_off_c, 1, 58, 0
2, 46160, Note_on_c, 1, 56, 127
2, 46320, Note_off_c, 1, 56, 0
2, 46360, Note_on_c, 1, 55, 127
2, 46520, Note_off_c, 1, 55, 0
2, 46520, Note_on_c, 1, 74, 127
2, 46520, Note_off_c, 1, 76, 0
2, 46560, Note_on_c, 1, 56, 127
2, 46560, Note_on_c, 1, 72, 127
2, 46560, Note_off_c, 1, 74, 0
2, 46680, Note_off_c, 1, 56, 0
2, 46720, Note_on_c, 1, 58, 127
2, 46880, Note_off_c, 1, 72, 0
2, 46920, Note_on_c, 1, 70, 127
2, 47080, Note_off_c, 1, 58, 0
2, 47120, Note_on_c, 1, 55, 127
2, 47120, Note_on_c, 1, 76, 127
2, 47280, Note_off_c, 1, 70, 0
2, 47320, Note_on_c, 1, 73, 127
2, 47360, Note_off_c, 1, 73, 0
2, 47400, Note_on_c, 1, 71, 127
2, 47480, Note_off_c, 1, 55, 0
2, 47480, Note_off_c, 1, 71, 0
2, 47480, Note_off_c, 1, 76, 0
2, 47520, Note_on_c, 1, 57, 127
2, 47520, Note_on_c, 1, 74, 127
2, 47560, Note_off_c, 1, 74, 0
2, 47600, Note_on_c, 1, 72, 127
2, 47680, Note_off_c, 1, 72, 0
2, 47720, Note_on_c, 1, 74, 127
2, 47920, Note_off_c, 1, 74, 0
2, 47960, Note_on_c, 1, 73, 127
2, 47960, Note_on_c, 1, 76, 127
2, 48160, Note_off_c, 1, 73, 0
2, 48200, Note_on_c, 1, 71, 127
2, 48360, Note_off_c, 1, 57, 0
2, 48360, Note_off_c, 1, 71, 0
2, 48400, Note_on_c, 1, 58, 127
2, 48400, Note_on_c, 1, 73, 127
2, 48560, Note_off_c, 1, 76, 0
2, 48600, Note_on_c, 1, 79, 127
2, 48760, Note_off_c, 1, 58, 0
2, 48760, Note_off_c, 1, 73, 0
2, 48800, Note_on_c, 1, 70, 127
2, 48800, Note_off_c, 1, 79, 0
2, 48840, Note_on_c, 1, 55, 127
2, 48840, Note_on_c, 1, 77, 127
2, 48960, Note_off_c, 1, 77, 0
2, 49040, Note_on_c, 1, 76, 127
2, 49160, Note_off_c, 1, 55, 0
2, 49160, Note_off_c, 1, 70, 0
2, 49160, Note_off_c, 1, 76, 0
2, 49200, Note_on_c, 1, 57, 127
2, 49200, Note_on_c, 1, 65, 127
2, 49200, Note_on_c, 1, 76, 127
2, 49360, Note_off_c, 1, 65, 0
2, 49400, Note_on_c, 1, 67, 127
2, 49520, Note_off_c, 1, 67, 0
2, 49520, Note_off_c, 1, 76, 0
2, 49560, Note_on_c, 1, 69, 127
2, 49560, Note_on_c, 1, 73, 127
2, 49680, Note_off_c, 1, 73, 0
2, 49760, Note_on_c, 1, 76, 127
2, 49880, Note_off_c, 1, 69, 0
2, 49920, Note_on_c, 1, 74, 127
2, 49920, Note_off_c, 1, 76, 0
2, 49960, Note_on_c, 1, 67, 127
2, 50040, Note_off_c, 1, 74, 0
2, 50080, Note_on_c, 1, 76, 127
2, 50200, Note_off_c, 1, 57, 0
2, 50200, Note_off_c, 1, 67, 0
2, 50240, Note_on_c, 1, 57, 127
2, 50320, Note_off_c, 1, 57, 0
2, 50320, Note_off_c, 1, 76, 0
2, 50400, Note_on_c, 1, 55, 127
2, 50520, Note_off_c, 1, 55, 0
2, 50560, Note_on_c, 1, 54, 127
2, 50560, Note_on_c, 1, 73, 127
2, 50720, Note_on_c, 1, 76, 127
2, 50840, Note_off_c, 1, 54, 0
2, 50840, Note_off_c, 1, 73, 0
2, 50840, Note_off_c, 1, 76, 0
2, 50880, Note_on_c, 1, 50, 127
2, 50880, Note_on_c, 1, 78, 127
2, 51200, Note_off_c, 1, 50, 0
2, 51200, Note_off_c, 1, 78, 0
2, 51240, Note_on_c, 1, 55, 127
2, 51240, Note_on_c, 1, 76, 127
2, 51600, Note_off_c, 1, 55, 0
2, 51600, Note_off_c, 1, 76, 0
2, 51640, Note_on_c, 1, 55, 127
2, 51640, Note_on_c, 1, 79, 127
2, 51880, Note_on_c, 1, 74, 127
2, 52000, Note_off_c, 1, 74, 0
2, 52040, Note_on_c, 1, 74, 127
2, 52200, Note_off_c, 1, 55, 0
2, 52200, Note_off_c, 1, 74, 0
2, 52200, Note_off_c, 1, 79, 0
2, 52240, Note_on_c, 1, 57, 127
2, 52240, Note_on_c, 1, 72, 127
2, 52240, Note_on_c, 1, 77, 127
2, 52680, Note_off_c, 1, 77, 0
2, 52760, Note_on_c, 1, 78, 127
2, 53040, Note_off_c, 1, 57, 0
2, 53040, Note_off_c, 1, 78, 0
2, 53080, Note_on_c, 1, 57, 127
2, 53080, Note_on_c, 1, 75, 127
2, 53360, Note_off_c, 1, 57, 0
2, 53360, Note_off_c, 1, 72, 0
2, 53360, Note_off_c, 1, 75, 0
2, 53400, Note_on_c, 1, 55, 127
2, 53400, Note_on_c, 1, 70, 127
2, 53800, Note_off_c, 1, 55, 0
2, 53800, Note_off_c, 1, 70, 0
2, 53840, Note_on_c, 1, 48, 127
2, 53840, Note_on_c, 1, 64, 127
2, 54040, Note_on_c, 1, 67, 127
2, 54200, Note_off_c, 1, 48, 0
2, 54200, Note_off_c, 1, 64, 0
2, 54200, Note_off_c, 1, 67, 0
2, 54240, Note_on_c, 1, 51, 127
2, 54240, Note_on_c, 1, 65, 127
2, 54440, Note_off_c, 1, 65, 0
2, 54480, Note_on_c, 1, 67, 127
2, 54680, Note_off_c, 1, 51, 0
2, 54680, Note_off_c, 1, 67, 0
2, 54720, Note_on_c, 1, 60, 127
2, 54720, Note_on_c, 1, 69, 127
2, 54920, Note_off_c, 1, 69, 0
2, 54960, Note_on_c, 1, 67, 127
2, 55200, Note_off_c, 1, 60, 0
2, 55200, Note_off_c, 1, 67, 0
2, 55240, Note_on_c, 1, 57, 127
2, 55240, Note_on_c, 1, 72, 127
2, 55440, Note_off_c, 1, 72, 0
2, 55480, Note_on_c, 1, 62, 127
2, 55680, Note_off_c, 1, 57, 0
2, 55680, Note_off_c, 1, 62, 0
2, 55760, Note_on_c, 1, 55, 127
2, 55760, Note_on_c, 1, 64, 127
2, 56000, Note_on_c, 1, 67, 127
2, 56200, Note_off_c, 1, 64, 0
2, 56200, Note_off_c, 1, 67, 0
2, 56240, Note_on_c, 1, 61, 127
2, 56240, Note_on_c, 1, 67, 127
2, 56440, Note_off_c, 1, 67, 0
2, 56480, Note_on_c, 1, 64, 127
2, 56680, Note_off_c, 1, 55, 0
2, 56680, Note_off_c, 1, 64, 0
2, 56720, Note_on_c, 1, 50, 127
2, 56720, Note_on_c, 1, 64, 127
2, 57080, Note_off_c, 1, 61, 0
2, 57080, Note_off_c, 1, 64, 0
2, 57120, Note_on_c, 1, 59, 127
2, 57120, Note_on_c, 1, 62, 127
2, 57480, Note_off_c, 1, 59, 0
2, 57480, Note_off_c, 1, 62, 0
2, 57520, Note_on_c, 1, 59, 127
2, 57520, Note_on_c, 1, 64, 127
2, 57760, Note_off_c, 1, 64, 0
2, 57800, Note_on_c, 1, 66, 127
2, 57920, Note_off_c, 1, 59, 0
2, 57920, Note_off_c, 1, 66, 0
2, 57960, Note_on_c, 1, 59, 127
2, 57960, Note_on_c, 1, 68, 127
2, 58200, Note_off_c, 1, 50, 0
2, 58200, Note_off_c, 1, 59, 0
2, 58200, Note_off_c, 1, 68, 0
2, 58240, Note_on_c, 1, 52, 127
2, 58240, Note_on_c, 1, 60, 127
2, 58240, Note_on_c, 1, 69, 127
2, 58600, Note_off_c, 1, 52, 0
2, 58600, Note_off_c, 1, 60, 0
2, 58600, Note_off_c, 1, 69, 0
2, 58640, Note_on_c, 1, 48, 127
2, 58640, Note_on_c, 1, 55, 127
2, 58640, Note_on_c, 1, 59, 127
2, 58640, Note_on_c, 1, 67, 127
2, 58880, Note_off_c, 1, 48, 0
2, 58880, Note_off_c, 1, 55, 0
2, 58880, Note_off_c, 1, 59, 0
2, 58960, Note_on_c, 1, 52, 127
2, 59080, Note_off_c, 1, 67, 0
2, 59120, Note_on_c, 1, 69, 127
2, 59280, Note_off_c, 1, 52, 0
2, 59280, Note_off_c, 1, 69, 0
2, 59320, Note_on_c, 1, 50, 127
2, 59320, Note_on_c, 1, 71, 127
2, 59480, Note_off_c, 1, 50, 0
2, 59480, Note_off_c, 1, 71, 0
2, 59520, Note_on_c, 1, 52, 127
2, 59520, Note_on_c, 1, 72, 127
2, 59680, Note_off_c, 1, 52, 0
2, 59680, Note_off_c, 1, 72, 0
2, 59720, Note_on_c, 1, 52, 127
2, 59720, Note_on_c, 1, 74, 127
2, 60120, Note_off_c, 1, 52, 0
2, 60160, Note_on_c, 1, 53, 127
2, 60440, Note_off_c, 1, 53, 0
2, 60480, Note_on_c, 1, 47, 127
2, 60760, Note_off_c, 1, 47, 0
2, 60800, Note_on_c, 1, 50, 127
2, 61120, Note_on_c, 1, 65, 127
2, 61160, Note_off_c, 1, 50, 0
2, 61160, Note_off_c, 1, 65, 0
2, 61200, Note_on_c, 1, 50, 127
2, 61200, Note_on_c, 1, 65, 127
2, 61280, Note_off_c, 1, 65, 0
2, 61320, Note_on_c, 1, 65, 127
2, 61440, Note_off_c, 1, 50, 0
2, 61440, Note_off_c, 1, 65, 0
2, 61440, Note_off_c, 1, 74, 0
2, 61480, Note_on_c, 1, 52, 127
2, 61480, Note_on_c, 1, 67, 127
2, 61760, Note_off_c, 1, 52, 0
2, 61800, Note_on_c, 1, 57, 127
2, 62120, Note_off_c, 1, 57, 0
2, 62120, Note_off_c, 1, 67, 0
2, 62160, Note_on_c, 1, 59, 127
2, 62160, Note_on_c, 1, 64, 127
2, 62520, Note_off_c, 1, 64, 0
2, 62560, Note_on_c, 1, 66, 127
2, 62880, Note_off_c, 1, 59, 0
2, 62880, Note_off_c, 1, 66, 0
2, 62920, Note_on_c, 1, 59, 127
2, 62920, Note_on_c, 1, 64, 127
2, 63360, Note_off_c, 1, 59, 0
2, 63360, Note_off_c, 1, 64, 0
2, 63440, Note_on_c, 1, 59, 127
2, 63440, Note_on_c, 1, 67, 127
2, 63840, Note_off_c, 1, 59, 0
2, 63840, Note_off_c, 1, 67, 0
2, 63920, Note_on_c, 1, 57, 127
2, 63920, Note_on_c, 1, 66, 127
2, 65000, Note_off_c, 1, 57, 0
2, 65000, Note_off_c, 1, 66, 0
2, 65040, Note_on_c, 1, 58, 127
2, 65040, Note_on_c, 1, 66, 127
2, 65400, Note_off_c, 1, 58, 0
2, 65400, Note_off_c, 1, 66, 0
2, 65440, Note_on_c, 1, 55, 127
2, 65440, Note_on_c, 1, 78, 127
2, 65920, Note_off_c, 1, 55, 0
2, 66040, Note_on_c, 1, 54, 127
2, 66040, Note_off_c, 1, 78, 0
2, 66080, Note_on_c, 1, 42, 127
2, 66080, Note_off_c, 1, 54, 0
2, 66120, Note_off_c, 1, 42, 0
2, 66120, Note_on_c, 1, 54, 127
2, 66320, Note_off_c, 1, 54, 0
2, 66360, Note_on_c, 1, 54, 127
2, 66520, Note_on_c, 1, 78, 127
2, 66760, Note_off_c, 1, 54, 0
2, 66760, Note_off_c, 1, 78, 0
2, 66800, Note_on_c, 1, 43, 127
2, 66800, Note_on_c, 1, 78, 127
2, 67160, Note_on_c, 1, 73, 127
2, 67440, Note_off_c, 1, 43, 0
2, 67440, Note_off_c, 1, 73, 0
2, 67560, Note_on_c, 1, 76, 127
2, 67720, Note_off_c, 1, 76, 0
2, 67760, Note_on_c, 1, 81, 127
2, 68320, Note_off_c, 1, 78, 0
2, 68320, Note_off_c, 1, 81, 0
2, 68360, Note_on_c, 1, 47, 127
2, 68360, Note_on_c, 1, 79, 127
2, 68360, Note_on_c, 1, 83, 127
2, 68480, Note_on_c, 1, 78, 127
2, 68480, Note_off_c, 1, 79, 0
2, 68520, Note_off_c, 1, 78, 0
2, 68520, Note_off_c, 1, 83, 0
2, 68560, Note_on_c, 1, 76, 127
2, 68560, Note_on_c, 1, 79, 127
2, 68680, Note_off_c, 1, 47, 0
2, 68680, Note_off_c, 1, 76, 0
2, 68680, Note_off_c, 1, 79, 0
2, 68720, Note_on_c, 1, 52, 127
2, 68720, Note_on_c, 1, 74, 127
2, 68720, Note_on_c, 1, 78, 127
2, 68960, Note_off_c, 1, 52, 0
2, 69000, Note_on_c, 1, 51, 127
2, 69120, Note_off_c, 1, 51, 0
2, 69160, Note_on_c, 1, 52, 127
2, 69280, Note_off_c, 1, 52, 0
2, 69320, Note_on_c, 1, 50, 127
2, 69440, Note_off_c, 1, 50, 0
2, 69440, Note_off_c, 1, 74, 0
2, 69480, Note_on_c, 1, 52, 127
2, 69480, Note_on_c, 1, 75, 127
2, 69600, Note_off_c, 1, 52, 0
2, 69600, Note_off_c, 1, 75, 0
2, 69640, Note_on_c, 1, 54, 127
2, 69640, Note_on_c, 1, 74, 127
2, 69760, Note_off_c, 1, 54, 0
2, 69760, Note_off_c, 1, 74, 0
2, 69760, Note_off_c, 1, 78, 0
2, 69840, Note_on_c, 1, 55, 127
2, 69840, Note_on_c, 1, 71, 127
2, 69920, Note_off_c, 1, 55, 0
2, 70000, Note_on_c, 1, 57, 127
2, 70120, Note_off_c, 1, 57, 0
2, 70120, Note_off_c, 1, 71, 0
2, 70160, Note_on_c, 1, 59, 127
2, 70160, Note_on_c, 1, 74, 127
2, 70280, Note_off_c, 1, 59, 0
2, 70320, Note_on_c, 1, 57, 127
2, 70320, Note_on_c, 1, 71, 127
2, 70480, Note_off_c, 1, 57, 0
2, 70480, Note_off_c, 1, 74, 0
2, 70520, Note_on_c, 1, 51, 127
2, 70520, Note_on_c, 1, 78, 127
2, 70720, Note_off_c, 1, 71, 0
2, 70760, Note_off_c, 1, 51, 0
2, 70800, Note_on_c, 1, 59, 127
2, 70800, Note_on_c, 1, 71, 127
2, 70960, Note_off_c, 1, 71, 0
2, 71000, Note_on_c, 1, 67, 127
2, 71120, Note_off_c, 1, 59, 0
2, 71120, Note_off_c, 1, 67, 0
2, 71120, Note_off_c, 1, 78, 0
2, 71120, Note_on_c, 1, 79, 127
2, 71160, Note_on_c, 1, 47, 127
2, 71160, Note_on_c, 1, 62, 127
2, 71480, Note_off_c, 1, 62, 0
2, 71760, Note_off_c, 1, 47, 0
2, 71760, Note_off_c, 1, 79, 0
2, 71800, Note_on_c, 1, 49, 127
2, 71800, Note_on_c, 1, 69, 127
2, 71800, Note_on_c, 1, 78, 127
2, 72000, Note_off_c, 1, 49, 0
2, 72040, Note_on_c, 1, 51, 127
2, 72240, Note_off_c, 1, 51, 0
2, 72240, Note_off_c, 1, 78, 0
2, 72280, Note_on_c, 1, 52, 127
2, 72280, Note_on_c, 1, 81, 127
2, 72480, Note_off_c, 1, 52, 0
2, 72520, Note_on_c, 1, 50, 127
2, 72760, Note_off_c, 1, 50, 0
2, 72760, Note_off_c, 1, 69, 0
2, 72800, Note_on_c, 1, 47, 127
2, 72800, Note_on_c, 1, 71, 127
2, 73000, Note_off_c, 1, 47, 0
2, 73040, Note_on_c, 1, 48, 127
2, 73240, Note_off_c, 1, 48, 0
2, 73240, Note_off_c, 1, 81, 0
2, 73280, Note_on_c, 1, 42, 127
2, 73280, Note_on_c, 1, 81, 127
2, 73520, Note_off_c, 1, 42, 0
2, 73520, Note_off_c, 1, 71, 0
2, 73560, Note_on_c, 1, 54, 127
2, 73560, Note_on_c, 1, 69, 127
2, 73760, Note_off_c, 1, 54, 0
2, 73800, Note_on_c, 1, 45, 127
2, 73840, Note_off_c, 1, 45, 0
2, 73840, Note_on_c, 1, 49, 127
2, 74000, Note_off_c, 1, 49, 0
2, 74000, Note_off_c, 1, 69, 0
2, 74040, Note_on_c, 1, 47, 127
2, 74040, Note_on_c, 1, 69, 127
2, 74280, Note_off_c, 1, 47, 0
2, 74280, Note_off_c, 1, 69, 0
2, 74320, Note_on_c, 1, 47, 127
2, 74320, Note_on_c, 1, 71, 127
2, 74560, Note_off_c, 1, 47, 0
2, 74560, Note_off_c, 1, 81, 0
2, 74640, Note_on_c, 1, 48, 127
2, 74640, Note_on_c, 1, 79, 127
2, 75200, Note_off_c, 1, 71, 0
2, 75200, Note_off_c, 1, 79, 0
2, 75240, Note_on_c, 1, 72, 127
2, 75240, Note_on_c, 1, 78, 127
2, 75520, Note_off_c, 1, 48, 0
2, 75520, Note_off_c, 1, 72, 0
2, 75520, Note_off_c, 1, 78, 0
2, 75560, Note_on_c, 1, 52, 127
2, 75560, Note_on_c, 1, 76, 127
2, 75560, Note_on_c, 1, 79, 127
2, 75840, Note_off_c, 1, 52, 0
2, 75920, Note_on_c, 1, 55, 127
2, 76160, Note_off_c, 1, 55, 0
2, 76160, Note_on_c, 1, 74, 127
2, 76160, Note_off_c, 1, 76, 0
2, 76200, Note_off_c, 1, 79, 0
2, 76240, Note_on_c, 1, 59, 127
2, 76240, Note_on_c, 1, 77, 127
2, 76560, Note_off_c, 1, 77, 0
2, 76600, Note_off_c, 1, 59, 0
2, 76640, Note_on_c, 1, 56, 127
2, 76640, Note_on_c, 1, 76, 127
2, 76920, Note_off_c, 1, 56, 0
2, 76960, Note_on_c, 1, 52, 127
2, 76960, Note_on_c, 1, 71, 127
2, 76960, Note_off_c, 1, 76, 0
2, 77200, Note_off_c, 1, 52, 0
2, 77240, Note_on_c, 1, 56, 127
2, 77240, Note_off_c, 1, 74, 0
2, 77280, Note_on_c, 1, 74, 127
2, 77520, Note_off_c, 1, 56, 0
2, 77560, Note_on_c, 1, 56, 127
2, 77760, Note_off_c, 1, 56, 0
2, 77760, Note_off_c, 1, 71, 0
2, 77760, Note_off_c, 1, 74, 0
2, 77840, Note_on_c, 1, 56, 127
2, 77840, Note_on_c, 1, 71, 127
2, 77840, Note_on_c, 1, 74, 127
2, 78080, Note_off_c, 1, 56, 0
2, 78080, Note_off_c, 1, 74, 0
2, 78160, Note_on_c, 1, 59, 127
2, 78160, Note_on_c, 1, 74, 127
2, 78320, Note_off_c, 1, 59, 0
2, 78320, Note_off_c, 1, 71, 0
2, 78320, Note_off_c, 1, 74, 0
2, 78360, Note_on_c, 1, 45, 127
2, 78360, Note_on_c, 1, 74, 127
2, 78600, Note_on_c, 1, 73, 127
2, 78600, Note_off_c, 1, 74, 0
2, 78640, Note_off_c, 1, 73, 0
2, 78640, Note_on_c, 1, 76, 127
2, 78720, Note_on_c, 1, 73, 127
2, 79040, Note_off_c, 1, 45, 0
2, 79040, Note_off_c, 1, 76, 0
2, 79080, Note_on_c, 1, 54, 127
2, 79080, Note_on_c, 1, 69, 127
2, 79080, Note_on_c, 1, 78, 127
2, 79640, Note_off_c, 1, 54, 0
2, 79640, Note_off_c, 1, 78, 0
2, 79720, Note_on_c, 1, 51, 127
2, 80040, Note_off_c, 1, 51, 0
2, 80080, Note_on_c, 1, 52, 127
2, 80440, Note_off_c, 1, 52, 0
2, 80480, Note_on_c, 1, 54, 127
2, 80720, Note_off_c, 1, 54, 0
2, 80720, Note_off_c, 1, 73, 0
2, 80760, Note_on_c, 1, 51, 127
2, 80760, Note_on_c, 1, 71, 127
2, 80920, Note_off_c, 1, 51, 0
2, 80960, Note_on_c, 1, 47, 127
2, 81080, Note_off_c, 1, 47, 0
2, 81080, Note_off_c, 1, 71, 0
2, 81120, Note_on_c, 1, 54, 127
2, 81120, Note_on_c, 1, 81, 127
2, 81520, Note_off_c, 1, 69, 0
2, 81560, Note_on_c, 1, 74, 127
2, 81760, Note_on_c, 1, 42, 127
2, 81760, Note_off_c, 1, 54, 0
2, 81840, Note_off_c, 1, 42, 0
2, 81840, Note_off_c, 1, 74, 0
2, 81880, Note_off_c, 1, 81, 0
2, 81920, Note_on_c, 1, 69, 127
2, 81920, Note_on_c, 1, 74, 127
2, 81920, Note_on_c, 1, 83, 127
2, 82000, Note_on_c, 1, 78, 127
2, 82000, Note_off_c, 1, 83, 0
2, 82120, Note_off_c, 1, 78, 0
2, 82360, Note_off_c, 1, 69, 0
2, 82360, Note_off_c, 1, 74, 0
2, 82400, Note_on_c, 1, 66, 127
2, 82400, Note_on_c, 1, 74, 127
2, 82720, Note_off_c, 1, 66, 0
2, 82760, Note_on_c, 1, 64, 127
2, 83280, Note_off_c, 1, 74, 0
2, 83320, Note_on_c, 1, 72, 127
2, 83440, Note_off_c, 1, 64, 0
2, 83480, Note_off_c, 1, 72, 0
2, 83520, Note_on_c, 1, 62, 127
2, 83520, Note_on_c, 1, 71, 127
2, 83760, Note_off_c, 1, 62, 0
2, 83760, Note_off_c, 1, 71, 0
2, 83800, Note_on_c, 1, 63, 127
2, 83800, Note_on_c, 1, 72, 127
2, 84040, Note_off_c, 1, 63, 0
2, 84040, Note_on_c, 1, 66, 127
2, 84360, Note_off_c, 1, 66, 0
2, 84400, Note_on_c, 1, 65, 127
2, 84400, Note_on_c, 1, 77, 127
2, 84640, Note_off_c, 1, 65, 0
2, 84720, Note_on_c, 1, 67, 127
2, 84840, Note_off_c, 1, 77, 0
2, 84880, Note_on_c, 1, 79, 127
2, 84960, Note_off_c, 1, 79, 0
2, 85040, Note_on_c, 1, 79, 127
2, 85240, Note_off_c, 1, 67, 0
2, 85280, Note_on_c, 1, 69, 127
2, 86080, Note_off_c, 1, 79, 0
2, 86120, Note_on_c, 1, 78, 127
2, 86280, Note_off_c, 1, 69, 0
2, 86480, Note_off_c, 1, 72, 0
2, 86480, Note_off_c, 1, 78, 0
2, 86520, Note_on_c, 1, 74, 127
2, 86520, Note_on_c, 1, 78, 127
2, 86840, Note_off_c, 1, 78, 0
2, 86960, Note_on_c, 1, 69, 127
2, 87160, Note_off_c, 1, 69, 0
2, 87200, Note_on_c, 1, 67, 127
2, 87440, Note_off_c, 1, 67, 0
2, 87440, Note_off_c, 1, 74, 0
2, 87480, Note_on_c, 1, 68, 127
2, 87480, Note_on_c, 1, 69, 127
2, 87760, Note_off_c, 1, 68, 0
2, 87880, Note_on_c, 1, 66, 127
2, 87880, Note_off_c, 1, 69, 0
2, 87880, Note_on_c, 1, 70, 127
2, 87920, Note_off_c, 1, 70, 0
2, 88000, Note_off_c, 1, 66, 0
2, 88040, Note_on_c, 1, 68, 127
2, 88040, Note_on_c, 1, 72, 127
2, 88280, Note_off_c, 1, 72, 0
2, 88320, Note_on_c, 1, 77, 127
2, 88600, Note_off_c, 1, 68, 0
2, 88600, Note_on_c, 1, 76, 127
2, 88600, Note_off_c, 1, 77, 0
2, 88640, Note_on_c, 1, 69, 127
2, 88920, Note_off_c, 1, 69, 0
2, 88920, Note_off_c, 1, 76, 0
2, 88960, Note_on_c, 1, 71, 127
2, 88960, Note_on_c, 1, 77, 127
2, 89320, Note_off_c, 1, 71, 0
2, 89320, Note_on_c, 1, 76, 127
2, 89320, Note_off_c, 1, 77, 0
2, 89360, Note_on_c, 1, 57, 127
2, 89880, Note_off_c, 1, 76, 0
2, 89920, Note_off_c, 1, 57, 0
2, 89960, Note_on_c, 1, 62, 127
2, 90400, Note_on_c, 1, 65, 127
2, 90680, Note_off_c, 1, 65, 0
2, 90720, Note_on_c, 1, 71, 127
2, 90880, Note_off_c, 1, 62, 0
2, 90920, Note_off_c, 1, 71, 0
2, 90960, Note_on_c, 1, 61, 127
2, 90960, Note_on_c, 1, 72, 127
2, 91120, Note_on_c, 1, 65, 127
2, 91240, Note_off_c, 1, 72, 0
2, 91280, Note_on_c, 1, 69, 127
2, 91640, Note_off_c, 1, 61, 0
2, 91640, Note_off_c, 1, 65, 0
2, 91640, Note_off_c, 1, 69, 0
2, 91680, Note_on_c, 1, 59, 127
2, 91680, Note_on_c, 1, 62, 127
2, 91680, Note_on_c, 1, 79, 127
2, 92160, Note_off_c, 1, 59, 0
2, 92160, Note_on_c, 1, 60, 127
2, 92200, Note_off_c, 1, 60, 0
2, 92240, Note_off_c, 1, 62, 0
2, 92240, Note_off_c, 1, 79, 0
2, 92280, Note_on_c, 1, 60, 127
2, 92280, Note_on_c, 1, 64, 127
2, 92280, Note_on_c, 1, 81, 127
2, 92600, Note_off_c, 1, 60, 0
2, 92600, Note_off_c, 1, 64, 0
2, 92680, Note_on_c, 1, 59, 127
2, 92680, Note_on_c, 1, 62, 127
2, 92920, Note_off_c, 1, 81, 0
2, 92960, Note_on_c, 1, 83, 127
2, 93000, Note_on_c, 1, 80, 127
2, 93000, Note_off_c, 1, 83, 0
2, 93240, Note_off_c, 1, 59, 0
2, 93240, Note_off_c, 1, 62, 0
2, 93240, Note_off_c, 1, 80, 0
2, 93280, Note_on_c, 1, 57, 127
2, 93280, Note_on_c, 1, 60, 127
2, 93280, Note_on_c, 1, 76, 127
2, 93520, Note_off_c, 1, 76, 0
2, 93560, Note_on_c, 1, 83, 127
2, 93600, Note_off_c, 1, 83, 0
2, 93600, Note_on_c, 1, 84, 127
2, 94360, Note_off_c, 1, 57, 0
2, 94360, Note_off_c, 1, 60, 0
2, 94360, Note_off_c, 1, 84, 0
2, 94400, Note_on_c, 1, 58, 127
2, 94400, Note_on_c, 1, 62, 127
2, 94400, Note_on_c, 1, 77, 127
2, 94480, Note_off_c, 1, 77, 0
2, 94520, Note_on_c, 1, 76, 127
2, 94640, Note_off_c, 1, 76, 0
2, 94680, Note_on_c, 1, 79, 127
2, 94760, Note_off_c, 1, 79, 0
2, 94800, Note_on_c, 1, 77, 127
2, 94880, Note_off_c, 1, 58, 0
2, 94880, Note_off_c, 1, 77, 0
2, 94920, Note_on_c, 1, 57, 127
2, 94920, Note_on_c, 1, 79, 127
2, 95280, Note_off_c, 1, 57, 0
2, 95280, Note_off_c, 1, 79, 0
2, 95320, Note_on_c, 1, 57, 127
2, 95320, Note_on_c, 1, 78, 127
2, 95560, Note_off_c, 1, 57, 0
2, 95560, Note_off_c, 1, 62, 0
2, 95560, Note_off_c, 1, 78, 0
2, 95640, Note_on_c, 1, 57, 127
2, 95640, Note_on_c, 1, 78, 127
2, 95640, Note_on_c, 1, 84, 127
2, 95720, Note_off_c, 1, 78, 0
2, 95720, Note_on_c, 1, 81, 127
2, 95880, Note_off_c, 1, 57, 0
2, 95880, Note_off_c, 1, 81, 0
2, 95880, Note_off_c, 1, 84, 0
2, 95920, Note_on_c, 1, 55, 127
2, 95920, Note_on_c, 1, 79, 127
2, 95920, Note_on_c, 1, 83, 127
2, 96200, Note_off_c, 1, 55, 0
2, 96200, Note_off_c, 1, 83, 0
2, 96240, Note_on_c, 1, 52, 127
2, 96240, Note_on_c, 1, 84, 127
2, 96360, Note_off_c, 1, 84, 0
2, 96400, Note_on_c, 1, 82, 127
2, 96480, Note_off_c, 1, 52, 0
2, 96480, Note_off_c, 1, 82, 0
2, 96520, Note_on_c, 1, 50, 127
2, 96520, Note_on_c, 1, 82, 127
2, 96720, Note_off_c, 1, 82, 0
2, 96760, Note_on_c, 1, 81, 127
2, 97000, Note_off_c, 1, 79, 0
2, 97040, Note_on_c, 1, 77, 127
2, 97320, Note_off_c, 1, 81, 0
2, 97360, Note_on_c, 1, 82, 127
2, 97400, Note_off_c, 1, 82, 0
2, 97440, Note_on_c, 1, 81, 127
2, 97640, Note_off_c, 1, 81, 0
2, 97680, Note_on_c, 1, 65, 127
2, 97680, Note_on_c, 1, 82, 127
2, 97720, Note_off_c, 1, 82, 0
2, 97760, Note_on_c, 1, 81, 127
2, 98000, Note_on_c, 1, 62, 127
2, 98040, Note_off_c, 1, 62, 0
2, 98160, Note_off_c, 1, 65, 0
2, 98160, Note_off_c, 1, 77, 0
2, 98160, Note_off_c, 1, 81, 0
2, 98160, Note_on_c, 1, 84, 127
2, 98200, Note_on_c, 1, 63, 127
2, 98200, Note_on_c, 1, 67, 127
2, 98200, Note_on_c, 1, 77, 127
2, 98200, Note_on_c, 1, 81, 127
2, 98200, Note_off_c, 1, 84, 0
2, 98360, Note_on_c, 1, 65, 127
2, 98360, Note_off_c, 1, 67, 0
2, 98440, Note_off_c, 1, 63, 0
2, 98440, Note_off_c, 1, 77, 0
2, 98480, Note_on_c, 1, 77, 127
2, 98520, Note_on_c, 1, 80, 127
2, 98520, Note_off_c, 1, 81, 0
2, 98760, Note_off_c, 1, 50, 0
2, 98760, Note_off_c, 1, 65, 0
2, 98760, Note_off_c, 1, 77, 0
2, 98760, Note_off_c, 1, 80, 0
2, 98800, Note_on_c, 1, 60, 127
2, 98800, Note_on_c, 1, 64, 127
2, 98800, Note_on_c, 1, 80, 127
2, 98840, Note_off_c, 1, 80, 0
2, 98920, Note_on_c, 1, 79, 127
2, 99000, Note_off_c, 1, 79, 0
2, 99040, Note_on_c, 1, 77, 127
2, 99120, Note_off_c, 1, 77, 0
2, 99160, Note_on_c, 1, 76, 127
2, 99200, Note_off_c, 1, 76, 0
2, 99240, Note_on_c, 1, 77, 127
2, 99280, Note_off_c, 1, 77, 0
2, 99320, Note_on_c, 1, 76, 127
2, 99480, Note_off_c, 1, 76, 0
2, 99560, Note_off_c, 1, 60, 0
2, 99560, Note_off_c, 1, 64, 0
2, 99600, Note_on_c, 1, 57, 127
2, 99600, Note_on_c, 1, 65, 127
2, 99600, Note_on_c, 1, 74, 127
2, 99960, Note_off_c, 1, 57, 0
2, 99960, Note_off_c, 1, 65, 0
2, 99960, Note_off_c, 1, 74, 0
2, 100000, Note_on_c, 1, 58, 127
2, 100000, Note_on_c, 1, 64, 127
2, 100000, Note_on_c, 1, 73, 127
2, 100320, Note_off_c, 1, 58, 0
2, 100320, Note_off_c, 1, 64, 0
2, 100360, Note_on_c, 1, 60, 127
2, 100360, Note_on_c, 1, 64, 127
2, 100720, Note_on_c, 1, 58, 127
2, 100720, Note_off_c, 1, 60, 0
2, 100800, Note_off_c, 1, 58, 0
2, 100800, Note_off_c, 1, 73, 0
2, 100840, Note_on_c, 1, 60, 127
2, 100840, Note_on_c, 1, 66, 127
2, 100880, Note_off_c, 1, 66, 0
2, 100880, Note_on_c, 1, 67, 127
2, 101160, Note_off_c, 1, 64, 0
2, 101160, Note_off_c, 1, 67, 0
2, 101200, Note_on_c, 1, 67, 127
2, 101200, Note_on_c, 1, 76, 127
2, 101720, Note_off_c, 1, 60, 0
2, 101720, Note_off_c, 1, 67, 0
2, 101720, Note_off_c, 1, 76, 0
2, 101760, Note_on_c, 1, 72, 127
2, 102040, Note_off_c, 1, 72, 0
2, 102080, Note_on_c, 1, 53, 127
2, 102080, Note_on_c, 1, 57, 127
2, 102080, Note_on_c, 1, 65, 127
2, 102080, Note_on_c, 1, 77, 127
2, 102360, Note_off_c, 1, 57, 0
2, 102360, Note_off_c, 1, 77, 0
2, 102400, Note_on_c, 1, 58, 127
2, 102400, Note_on_c, 1, 75, 127
2, 102760, Note_off_c, 1, 65, 0
2, 102760, Note_off_c, 1, 75, 0
2, 102800, Note_on_c, 1, 64, 127
2, 102800, Note_on_c, 1, 74, 127
2, 103040, Note_off_c, 1, 74, 0
2, 103080, Note_on_c, 1, 73, 127
2, 103240, Note_off_c, 1, 58, 0
2, 103240, Note_off_c, 1, 73, 0
2, 103280, Note_on_c, 1, 57, 127
2, 103280, Note_on_c, 1, 74, 127
2, 103360, Note_off_c, 1, 74, 0
2, 103400, Note_on_c, 1, 73, 127
2, 103560, Note_off_c, 1, 53, 0
2, 103560, Note_off_c, 1, 57, 0
2, 103560, Note_off_c, 1, 64, 0
2, 103560, Note_off_c, 1, 73, 0
2, 103600, Note_on_c, 1, 58, 127
2, 103600, Note_on_c, 1, 65, 127
2, 103600, Note_on_c, 1, 74, 127
2, 103840, Note_off_c, 1, 58, 0
2, 103840, Note_off_c, 1, 65, 0
2, 103840, Note_off_c, 1, 74, 0
2, 103880, Note_on_c, 1, 55, 127
2, 103880, Note_on_c, 1, 64, 127
2, 103880, Note_on_c, 1, 71, 127
2, 104040, Note_off_c, 1, 64, 0
2, 104040, Note_off_c, 1, 71, 0
2, 104080, Note_off_c, 1, 55, 0
2, 104120, Note_on_c, 1, 53, 127
2, 104120, Note_on_c, 1, 65, 127
2, 104120, Note_on_c, 1, 69, 127
2, 104320, Note_off_c, 1, 53, 0
2, 104320, Note_off_c, 1, 69, 0
2, 104360, Note_on_c, 1, 53, 127
2, 104360, Note_on_c, 1, 74, 127
2, 104560, Note_off_c, 1, 53, 0
2, 104560, Note_off_c, 1, 74, 0
2, 104600, Note_on_c, 1, 55, 127
2, 104600, Note_on_c, 1, 76, 127
2, 104840, Note_off_c, 1, 55, 0
2, 104840, Note_off_c, 1, 65, 0
2, 104880, Note_on_c, 1, 58, 127
2, 104880, Note_on_c, 1, 64, 127
2, 105120, Note_off_c, 1, 58, 0
2, 105120, Note_off_c, 1, 64, 0
2, 105160, Note_on_c, 1, 57, 127
2, 105160, Note_on_c, 1, 64, 127
2, 105360, Note_off_c, 1, 57, 0
2, 105360, Note_off_c, 1, 76, 0
2, 105440, Note_on_c, 1, 58, 127
2, 105440, Note_on_c, 1, 73, 127
2, 105640, Note_off_c, 1, 58, 0
2, 105640, Note_off_c, 1, 73, 0
2, 105680, Note_on_c, 1, 57, 127
2, 105680, Note_on_c, 1, 72, 127
2, 105960, Note_off_c, 1, 57, 0
2, 105960, Note_off_c, 1, 64, 0
2, 105960, Note_off_c, 1, 72, 0
2, 106000, Note_on_c, 1, 55, 127
2, 106000, Note_on_c, 1, 77, 127
2, 106240, Note_off_c, 1, 55, 0
2, 106280, Note_on_c, 1, 53, 127
2, 106520, Note_off_c, 1, 53, 0
2, 106520, Note_off_c, 1, 77, 0
2, 106560, Note_on_c, 1, 61, 127
2, 106560, Note_on_c, 1, 67, 127
2, 106560, Note_on_c, 1, 77, 127
2, 106960, Note_off_c, 1, 61, 0
2, 106960, Note_off_c, 1, 77, 0
2, 107000, Note_on_c, 1, 55, 127
2, 107000, Note_on_c, 1, 79, 127
2, 107280, Note_off_c, 1, 55, 0
2, 107280, Note_off_c, 1, 79, 0
2, 107320, Note_on_c, 1, 57, 127
2, 107320, Note_on_c, 1, 79, 127
2, 107640, Note_off_c, 1, 79, 0
2, 107680, Note_on_c, 1, 74, 127
2, 108040, Note_off_c, 1, 57, 0
2, 108040, Note_off_c, 1, 67, 0
2, 108040, Note_off_c, 1, 74, 0
2, 108080, Note_on_c, 1, 55, 127
2, 108080, Note_on_c, 1, 70, 127
2, 108080, Note_on_c, 1, 79, 127
2, 108400, Note_off_c, 1, 70, 0
2, 108400, Note_off_c, 1, 79, 0
2, 108440, Note_on_c, 1, 69, 127
2, 108440, Note_on_c, 1, 77, 127
2, 108720, Note_off_c, 1, 55, 0
2, 108720, Note_off_c, 1, 69, 0
2, 108720, Note_off_c, 1, 77, 0
2, 108760, Note_on_c, 1, 55, 127
2, 108760, Note_on_c, 1, 70, 127
2, 108760, Note_on_c, 1, 79, 127
2, 109040, Note_off_c, 1, 55, 0
2, 109040, Note_off_c, 1, 70, 0
2, 109040, Note_off_c, 1, 79, 0
2, 109080, Note_on_c, 1, 53, 127
2, 109080, Note_on_c, 1, 69, 127
2, 109080, Note_on_c, 1, 77, 127
2, 109360, Note_off_c, 1, 53, 0
2, 109360, Note_off_c, 1, 69, 0
2, 109360, Note_off_c, 1, 77, 0
2, 109400, Note_on_c, 1, 46, 127
2, 109400, Note_on_c, 1, 67, 127
2, 109400, Note_on_c, 1, 76, 127
2, 109680, Note_off_c, 1, 46, 0
2, 109680, Note_off_c, 1, 67, 0
2, 109680, Note_off_c, 1, 76, 0
2, 109720, Note_on_c, 1, 46, 127
2, 109720, Note_on_c, 1, 74, 127
2, 109720, Note_on_c, 1, 77, 127
2, 110040, End_track
3, 0, Start_track
3, 0, Title_t, "MIDI"
3, 1536, End_track
0, 0, End_of_file
