0, 0, Header, 1, 3, 384
1, 0, Start_track
1, 0, Time_signature, 4, 2, 24, 8
1, 0, Tempo, 500000
1, 47440, End_track
2, 0, Start_track
2, 0, Text_t, "harpsichord: John Sankey"
2, 0, Title_t, "Track 1"
2, 0, Note_on_c, 1, 38, 127
2, 0, Note_on_c, 1, 54, 127
2, 0, Note_on_c, 1, 65, 127
2, 80, Note_on_c, 1, 58, 127
2, 160, Note_off_c, 1, 38, 0
2, 160, Note_on_c, 1, 41, 127
2, 160, Note_on_c, 1, 51, 127
2, 160, Note_off_c, 1, 54, 0
2, 160, Note_off_c, 1, 65, 0
2, 200, Note_on_c, 1, 64, 127
2, 280, Note_off_c, 1, 58, 0
2, 280, Note_off_c, 1, 64, 0
2, 320, Note_on_c, 1, 57, 127
2, 320, Note_on_c, 1, 60, 127
2, 640, Note_on_c, 1, 69, 127
2, 720, Note_off_c, 1, 41, 0
2, 720, Note_on_c, 1, 46, 127
2, 720, Note_on_c, 1, 49, 127
2, 720, Note_off_c, 1, 51, 0
2, 720, Note_on_c, 1, 55, 127
2, 720, Note_off_c, 1, 57, 0
2, 760, Note_on_c, 1, 41, 127
2, 760, Note_off_c, 1, 46, 0
2, 840, Note_off_c, 1, 41, 0
2, 840, Note_off_c, 1, 49, 0
2, 840, Note_off_c, 1, 55, 0
2, 840, Note_off_c, 1, 60, 0
2, 840, Note_off_c, 1, 69, 0
2, 880, Note_on_c, 1, 46, 127
2, 880, Note_on_c, 1, 48, 127
2, 880, Note_on_c, 1, 62, 127
2, 880, Note_on_c, 1, 67, 127
2, 880, Note_on_c, 1, 70, 127
2, 920, Note_off_c, 1, 46, 0
2, 920, Note_off_c, 1, 48, 0
2, 960, Note_on_c, 1, 47, 127
2, 1080, Note_off_c, 1, 62, 0
2, 1120, Note_on_c, 1, 52, 127
2, 1200, Note_on_c, 1, 40, 127
2, 1200, Note_off_c, 1, 47, 0
2, 1200, Note_off_c, 1, 52, 0
2, 1240, Note_off_c, 1, 40, 0
2, 1240, Note_off_c, 1, 67, 0
2, 1280, Note_on_c, 1, 48, 127
2, 1280, Note_off_c, 1, 70, 0
2, 1320, Note_off_c, 1, 48, 0
2, 1320, Note_on_c, 1, 67, 127
2, 1520, Note_on_c, 1, 64, 127
2, 2000, Note_off_c, 1, 64, 0
2, 2000, Note_off_c, 1, 67, 0
2, 2040, Note_on_c, 1, 65, 127
2, 2040, Note_on_c, 1, 72, 127
2, 2080, Note_off_c, 1, 72, 0
2, 2080, Note_on_c, 1, 74, 127
2, 2760, Note_off_c, 1, 65, 0
2, 2760, Note_off_c, 1, 74, 0
2, 2800, Note_on_c, 1, 62, 127
2, 2800, Note_on_c, 1, 68, 127
2, 2800, Note_on_c, 1, 72, 127
2, 2920, Note_off_c, 1, 68, 0
2, 2920, Note_on_c, 1, 69, 127
2, 2920, Note_off_c, 1, 72, 0
2, 2960, Note_on_c, 1, 71, 127
2, 3000, Note_off_c, 1, 71, 0
2, 3040, Note_on_c, 1, 72, 127
2, 3120, Note_off_c, 1, 72, 0
2, 3200, Note_on_c, 1, 77, 127
2, 3240, Note_off_c, 1, 69, 0
2, 3280, Note_on_c, 1, 67, 127
2, 3400, Note_off_c, 1, 62, 0
2, 3400, Note_off_c, 1, 77, 0
2, 3440, Note_on_c, 1, 62, 127
2, 3440, Note_on_c, 1, 76, 127
2, 3560, Note_off_c, 1, 62, 0
2, 3560, Note_off_c, 1, 76, 0
2, 3600, Note_on_c, 1, 64, 127
2, 3600, Note_on_c, 1, 76, 127
2, 3680, Note_off_c, 1, 64, 0
2, 3680, Note_on_c, 1, 65, 127
2, 3680, Note_off_c, 1, 67, 0
2, 3680, Note_off_c, 1, 76, 0
2, 3720, Note_on_c, 1, 72, 127
2, 3840, Note_off_c, 1, 65, 0
2, 3840, Note_off_c, 1, 72, 0
2, 3880, Note_on_c, 1, 66, 127
2, 3880, Note_on_c, 1, 72, 127
2, 4040, Note_off_c, 1, 72, 0
2, 4080, Note_on_c, 1, 71, 127
2, 4160, Note_off_c, 1, 66, 0
2, 4160, Note_off_c, 1, 71, 0
2, 4200, Note_on_c, 1, 65, 127
2, 4200, Note_on_c, 1, 69, 127
2, 4480, Note_off_c, 1, 69, 0
2, 4520, Note_on_c, 1, 64, 127
2, 4520, Note_off_c, 1, 65, 0
2, 4520, Note_on_c, 1, 68, 127
2, 4600, Note_on_c, 1, 66, 127
2, 4680, Note_off_c, 1, 66, 0
2, 4720, Note_off_c, 1, 68, 0
2, 4760, Note_on_c, 1, 67, 127
2, 5000, Note_off_c, 1, 64, 0
2, 5000, Note_off_c, 1, 67, 0
2, 5040, Note_on_c, 1, 62, 127
2, 5040, Note_on_c, 1, 65, 127
2, 5160, Note_off_c, 1, 65, 0
2, 5200, Note_on_c, 1, 69, 127
2, 5240, Note_on_c, 1, 65, 127
2, 5240, Note_off_c, 1, 69, 0
2, 5480, Note_on_c, 1, 69, 127
2, 5760, Note_off_c, 1, 69, 0
2, 5800, Note_off_c, 1, 62, 0
2, 5800, Note_on_c, 1, 71, 127
2, 5880, Note_off_c, 1, 65, 0
2, 5880, Note_off_c, 1, 71, 0
2, 5880, Note_on_c, 1, 72, 127
2, 5920, Note_on_c, 1, 64, 127
2, 5920, Note_on_c, 1, 65, 127
2, 6000, Note_on_c, 1, 59, 127
2, 6000, Note_off_c, 1, 64, 0
2, 6040, Note_off_c, 1, 59, 0
2, 6080, Note_on_c, 1, 62, 127
2, 6320, Note_off_c, 1, 62, 0
2, 6320, Note_off_c, 1, 65, 0
2, 6320, Note_off_c, 1, 72, 0
2, 6360, Note_on_c, 1, 60, 127
2, 6360, Note_on_c, 1, 67, 127
2, 6360, Note_on_c, 1, 72, 127
2, 6400, Note_on_c, 1, 69, 127
2, 6800, Note_off_c, 1, 60, 0
2, 6840, Note_on_c, 1, 59, 127
2, 6920, Note_off_c, 1, 59, 0
2, 6920, Note_off_c, 1, 72, 0
2, 6960, Note_on_c, 1, 60, 127
2, 7280, Note_off_c, 1, 60, 0
2, 7280, Note_on_c, 1, 63, 127
2, 7320, Note_on_c, 1, 60, 127
2, 7320, Note_off_c, 1, 63, 0
2, 7360, Note_on_c, 1, 64, 127
2, 7360, Note_off_c, 1, 67, 0
2, 7400, Note_off_c, 1, 69, 0
2, 7400, Note_on_c, 1, 72, 127
2, 7440, Note_on_c, 1, 67, 127
2, 7560, Note_off_c, 1, 72, 0
2, 7600, Note_off_c, 1, 67, 0
2, 7600, Note_on_c, 1, 72, 127
2, 7640, Note_on_c, 1, 67, 127
2, 7920, Note_on_c, 1, 43, 127
2, 7960, Note_off_c, 1, 43, 0
2, 7960, Note_off_c, 1, 60, 0
2, 7960, Note_off_c, 1, 64, 0
2, 7960, Note_off_c, 1, 67, 0
2, 7960, Note_off_c, 1, 72, 0
2, 8000, Note_on_c, 1, 42, 127
2, 8000, Note_on_c, 1, 65, 127
2, 8000, Note_on_c, 1, 67, 127
2, 8000, Note_on_c, 1, 73, 127
2, 8320, Note_off_c, 1, 42, 0
2, 8320, Note_off_c, 1, 73, 0
2, 8360, Note_on_c, 1, 60, 127
2, 8360, Note_off_c, 1, 65, 0
2, 8360, Note_on_c, 1, 72, 127
2, 8400, Note_off_c, 1, 60, 0
2, 8400, Note_on_c, 1, 66, 127
2, 8400, Note_off_c, 1, 67, 0
2, 8400, Note_off_c, 1, 72, 0
2, 8440, Note_off_c, 1, 66, 0
2, 8480, Note_on_c, 1, 67, 127
2, 8560, Note_on_c, 1, 69, 127
2, 8640, Note_on_c, 1, 76, 127
2, 8680, Note_on_c, 1, 65, 127
2, 8680, Note_off_c, 1, 67, 0
2, 8800, Note_off_c, 1, 76, 0
2, 8840, Note_on_c, 1, 73, 127
2, 9240, Note_on_c, 1, 64, 127
2, 9240, Note_off_c, 1, 65, 0
2, 9240, Note_on_c, 1, 68, 127
2, 9240, Note_off_c, 1, 69, 0
2, 9360, Note_off_c, 1, 64, 0
2, 9360, Note_on_c, 1, 65, 127
2, 9360, Note_off_c, 1, 73, 0
2, 9400, Note_on_c, 1, 77, 127
2, 9480, Note_off_c, 1, 65, 0
2, 9480, Note_off_c, 1, 68, 0
2, 9480, Note_off_c, 1, 77, 0
2, 9520, Note_on_c, 1, 69, 127
2, 9520, Note_on_c, 1, 72, 127
2, 9520, Note_on_c, 1, 76, 127
2, 9600, Note_on_c, 1, 67, 127
2, 9640, Note_on_c, 1, 58, 127
2, 9640, Note_on_c, 1, 65, 127
2, 9640, Note_off_c, 1, 67, 0
2, 9640, Note_on_c, 1, 75, 127
2, 9640, Note_off_c, 1, 76, 0
2, 10480, Note_on_c, 1, 68, 127
2, 10480, Note_off_c, 1, 69, 0
2, 10600, Note_off_c, 1, 58, 0
2, 10600, Note_on_c, 1, 60, 127
2, 10680, Note_on_c, 1, 58, 127
2, 10680, Note_off_c, 1, 60, 0
2, 10680, Note_off_c, 1, 75, 0
2, 10720, Note_off_c, 1, 72, 0
2, 10720, Note_on_c, 1, 73, 127
2, 10720, Note_on_c, 1, 77, 127
2, 10760, Note_on_c, 1, 72, 127
2, 10760, Note_off_c, 1, 73, 0
2, 11200, Note_on_c, 1, 60, 127
2, 11200, Note_off_c, 1, 65, 0
2, 11400, Note_off_c, 1, 58, 0
2, 11400, Note_on_c, 1, 65, 127
2, 11440, Note_on_c, 1, 57, 127
2, 11760, Note_off_c, 1, 72, 0
2, 11760, Note_off_c, 1, 77, 0
2, 11800, Note_off_c, 1, 65, 0
2, 11800, Note_on_c, 1, 74, 127
2, 11800, Note_on_c, 1, 77, 127
2, 11840, Note_on_c, 1, 72, 127
2, 11840, Note_off_c, 1, 74, 0
2, 11880, Note_on_c, 1, 65, 127
2, 11880, Note_off_c, 1, 68, 0
2, 11960, Note_off_c, 1, 77, 0
2, 12000, Note_off_c, 1, 57, 0
2, 12000, Note_on_c, 1, 68, 127
2, 12000, Note_off_c, 1, 72, 0
2, 12000, Note_on_c, 1, 77, 127
2, 12240, Note_off_c, 1, 65, 0
2, 12240, Note_off_c, 1, 68, 0
2, 12240, Note_off_c, 1, 77, 0
2, 12280, Note_on_c, 1, 55, 127
2, 12280, Note_on_c, 1, 64, 127
2, 12280, Note_on_c, 1, 68, 127
2, 12320, Note_on_c, 1, 76, 127
2, 12520, Note_off_c, 1, 64, 0
2, 12520, Note_on_c, 1, 65, 127
2, 12560, Note_off_c, 1, 65, 0
2, 12560, Note_on_c, 1, 75, 127
2, 12560, Note_off_c, 1, 76, 0
2, 12560, Note_on_c, 1, 79, 127
2, 12600, Note_on_c, 1, 63, 127
2, 12680, Note_off_c, 1, 79, 0
2, 12760, Note_on_c, 1, 59, 127
2, 12760, Note_off_c, 1, 60, 0
2, 12800, Note_on_c, 1, 77, 127
2, 12840, Note_on_c, 1, 74, 127
2, 12840, Note_off_c, 1, 77, 0
2, 12880, Note_off_c, 1, 74, 0
2, 12960, Note_on_c, 1, 76, 127
2, 13000, Note_off_c, 1, 76, 0
2, 13160, Note_off_c, 1, 55, 0
2, 13240, Note_on_c, 1, 55, 127
2, 13280, Note_on_c, 1, 78, 127
2, 13320, Note_off_c, 1, 75, 0
2, 13320, Note_off_c, 1, 78, 0
2, 13360, Note_off_c, 1, 68, 0
2, 13360, Note_on_c, 1, 75, 127
2, 13400, Note_off_c, 1, 55, 0
2, 13400, Note_off_c, 1, 59, 0
2, 13400, Note_off_c, 1, 63, 0
2, 13400, Note_off_c, 1, 75, 0
2, 13440, Note_on_c, 1, 55, 127
2, 13440, Note_on_c, 1, 58, 127
2, 13440, Note_on_c, 1, 63, 127
2, 13440, Note_on_c, 1, 67, 127
2, 13440, Note_on_c, 1, 71, 127
2, 13440, Note_on_c, 1, 74, 127
2, 13440, Note_on_c, 1, 79, 127
2, 13480, Note_off_c, 1, 63, 0
2, 13480, Note_on_c, 1, 64, 127
2, 13480, Note_on_c, 1, 70, 127
2, 13480, Note_off_c, 1, 71, 0
2, 13480, Note_off_c, 1, 79, 0
2, 13560, Note_off_c, 1, 74, 0
2, 13560, Note_on_c, 1, 76, 127
2, 13720, Note_off_c, 1, 70, 0
2, 13720, Note_off_c, 1, 76, 0
2, 13720, Note_on_c, 1, 79, 127
2, 13760, Note_off_c, 1, 55, 0
2, 13760, Note_off_c, 1, 58, 0
2, 13760, Note_off_c, 1, 67, 0
2, 13760, Note_off_c, 1, 79, 0
2, 13800, Note_on_c, 1, 56, 127
2, 13800, Note_on_c, 1, 60, 127
2, 13800, Note_on_c, 1, 67, 127
2, 13800, Note_on_c, 1, 72, 127
2, 13800, Note_on_c, 1, 77, 127
2, 13920, Note_on_c, 1, 75, 127
2, 13920, Note_off_c, 1, 77, 0
2, 14000, Note_off_c, 1, 64, 0
2, 14000, Note_on_c, 1, 65, 127
2, 14040, Note_off_c, 1, 67, 0
2, 14040, Note_on_c, 1, 68, 127
2, 14040, Note_on_c, 1, 70, 127
2, 14040, Note_off_c, 1, 72, 0
2, 14080, Note_on_c, 1, 63, 127
2, 14080, Note_off_c, 1, 65, 0
2, 14160, Note_off_c, 1, 70, 0
2, 14160, Note_off_c, 1, 75, 0
2, 14200, Note_on_c, 1, 72, 127
2, 14200, Note_on_c, 1, 77, 127
2, 14360, Note_off_c, 1, 56, 0
2, 14360, Note_on_c, 1, 57, 127
2, 14560, Note_on_c, 1, 65, 127
2, 14560, Note_off_c, 1, 68, 0
2, 14560, Note_on_c, 1, 69, 127
2, 14560, Note_off_c, 1, 77, 0
2, 14560, Note_on_c, 1, 78, 127
2, 14600, Note_off_c, 1, 65, 0
2, 14600, Note_on_c, 1, 68, 127
2, 14600, Note_off_c, 1, 72, 0
2, 14600, Note_on_c, 1, 74, 127
2, 14600, Note_on_c, 1, 77, 127
2, 14600, Note_off_c, 1, 78, 0
2, 14640, Note_off_c, 1, 68, 0
2, 14760, Note_on_c, 1, 56, 127
2, 14760, Note_off_c, 1, 57, 0
2, 14840, Note_off_c, 1, 63, 0
2, 14960, Note_off_c, 1, 74, 0
2, 14960, Note_off_c, 1, 77, 0
2, 15000, Note_on_c, 1, 68, 127
2, 15000, Note_off_c, 1, 69, 0
2, 15000, Note_on_c, 1, 81, 127
2, 15040, Note_on_c, 1, 72, 127
2, 15040, Note_on_c, 1, 80, 127
2, 15040, Note_off_c, 1, 81, 0
2, 15280, Note_off_c, 1, 56, 0
2, 15280, Note_off_c, 1, 60, 0
2, 15280, Note_off_c, 1, 68, 0
2, 15280, Note_off_c, 1, 72, 0
2, 15320, Note_on_c, 1, 56, 127
2, 15320, Note_on_c, 1, 68, 127
2, 15320, Note_on_c, 1, 72, 127
2, 15320, Note_on_c, 1, 73, 127
2, 15360, Note_on_c, 1, 65, 127
2, 15360, Note_off_c, 1, 73, 0
2, 15360, Note_on_c, 1, 75, 127
2, 15520, Note_off_c, 1, 80, 0
2, 15520, Note_on_c, 1, 81, 127
2, 15560, Note_off_c, 1, 56, 0
2, 15560, Note_off_c, 1, 65, 0
2, 15560, Note_off_c, 1, 68, 0
2, 15560, Note_off_c, 1, 72, 0
2, 15560, Note_off_c, 1, 75, 0
2, 15560, Note_off_c, 1, 81, 0
2, 15600, Note_on_c, 1, 55, 127
2, 15600, Note_on_c, 1, 65, 127
2, 15600, Note_on_c, 1, 68, 127
2, 15600, Note_on_c, 1, 70, 127
2, 15600, Note_on_c, 1, 71, 127
2, 15600, Note_on_c, 1, 79, 127
2, 15640, Note_off_c, 1, 68, 0
2, 15640, Note_off_c, 1, 71, 0
2, 15640, Note_on_c, 1, 73, 127
2, 15680, Note_on_c, 1, 60, 127
2, 15680, Note_off_c, 1, 65, 0
2, 15720, Note_off_c, 1, 60, 0
2, 15720, Note_on_c, 1, 65, 127
2, 15880, Note_off_c, 1, 55, 0
2, 15880, Note_off_c, 1, 65, 0
2, 15880, Note_off_c, 1, 70, 0
2, 15880, Note_off_c, 1, 73, 0
2, 15880, Note_off_c, 1, 79, 0
2, 15920, Note_on_c, 1, 56, 127
2, 15920, Note_on_c, 1, 63, 127
2, 15920, Note_on_c, 1, 68, 127
2, 15920, Note_on_c, 1, 72, 127
2, 15920, Note_on_c, 1, 77, 127
2, 16560, Note_on_c, 1, 62, 127
2, 16560, Note_off_c, 1, 63, 0
2, 16600, Note_on_c, 1, 60, 127
2, 16600, Note_off_c, 1, 62, 0
2, 16600, Note_on_c, 1, 70, 127
2, 16600, Note_off_c, 1, 72, 0
2, 16640, Note_off_c, 1, 70, 0
2, 16680, Note_on_c, 1, 65, 127
2, 16720, Note_off_c, 1, 60, 0
2, 16720, Note_on_c, 1, 63, 127
2, 16800, Note_off_c, 1, 63, 0
2, 16800, Note_off_c, 1, 65, 0
2, 16840, Note_on_c, 1, 61, 127
2, 16840, Note_on_c, 1, 65, 127
2, 17080, Note_off_c, 1, 56, 0
2, 17080, Note_off_c, 1, 65, 0
2, 17120, Note_off_c, 1, 61, 0
2, 17120, Note_off_c, 1, 77, 0
2, 17160, Note_on_c, 1, 56, 127
2, 17160, Note_on_c, 1, 60, 127
2, 17160, Note_off_c, 1, 68, 0
2, 17360, Note_on_c, 1, 44, 127
2, 17440, Note_off_c, 1, 44, 0
2, 17480, Note_on_c, 1, 44, 127
2, 17520, Note_on_c, 1, 63, 127
2, 17720, Note_on_c, 1, 68, 127
2, 18040, Note_off_c, 1, 63, 0
2, 18080, Note_off_c, 1, 68, 0
2, 18120, Note_on_c, 1, 63, 127
2, 18120, Note_on_c, 1, 72, 127
2, 18160, Note_on_c, 1, 68, 127
2, 18560, Note_off_c, 1, 44, 0
2, 18560, Note_off_c, 1, 56, 0
2, 18560, Note_off_c, 1, 60, 0
2, 18560, Note_off_c, 1, 63, 0
2, 18560, Note_off_c, 1, 68, 0
2, 18560, Note_off_c, 1, 72, 0
2, 18600, Note_on_c, 1, 55, 127
2, 18600, Note_on_c, 1, 58, 127
2, 18600, Note_on_c, 1, 62, 127
2, 18600, Note_on_c, 1, 67, 127
2, 18600, Note_on_c, 1, 70, 127
2, 18800, Note_off_c, 1, 62, 0
2, 18800, Note_on_c, 1, 63, 127
2, 19040, Note_on_c, 1, 54, 127
2, 19040, Note_off_c, 1, 55, 0
2, 19080, Note_off_c, 1, 54, 0
2, 19080, Note_on_c, 1, 61, 127
2, 19080, Note_off_c, 1, 63, 0
2, 19080, Note_off_c, 1, 67, 0
2, 19080, Note_off_c, 1, 70, 0
2, 19120, Note_on_c, 1, 65, 127
2, 19120, Note_on_c, 1, 70, 127
2, 20120, Note_off_c, 1, 58, 0
2, 20120, Note_off_c, 1, 65, 0
2, 20160, Note_off_c, 1, 61, 0
2, 20320, Note_off_c, 1, 70, 0
2, 20360, Note_on_c, 1, 70, 127
2, 20560, Note_on_c, 1, 68, 127
2, 20560, Note_off_c, 1, 70, 0
2, 20560, Note_on_c, 1, 73, 127
2, 20800, Note_off_c, 1, 73, 0
2, 20840, Note_on_c, 1, 70, 127
2, 21120, Note_off_c, 1, 68, 0
2, 21120, Note_off_c, 1, 70, 0
2, 21160, Note_on_c, 1, 58, 127
2, 21160, Note_on_c, 1, 63, 127
2, 21160, Note_on_c, 1, 67, 127
2, 21360, Note_off_c, 1, 58, 0
2, 21400, Note_on_c, 1, 61, 127
2, 21400, Note_off_c, 1, 63, 0
2, 21400, Note_on_c, 1, 64, 127
2, 21600, Note_off_c, 1, 64, 0
2, 21640, Note_off_c, 1, 61, 0
2, 21680, Note_on_c, 1, 63, 127
2, 21680, Note_off_c, 1, 67, 0
2, 21680, Note_on_c, 1, 68, 127
2, 22000, Note_off_c, 1, 63, 0
2, 22040, Note_on_c, 1, 60, 127
2, 22040, Note_on_c, 1, 65, 127
2, 22360, Note_off_c, 1, 60, 0
2, 22400, Note_on_c, 1, 46, 127
2, 22680, Note_off_c, 1, 46, 0
2, 22680, Note_off_c, 1, 65, 0
2, 22680, Note_off_c, 1, 68, 0
2, 22720, Note_on_c, 1, 46, 127
2, 22720, Note_on_c, 1, 58, 127
2, 22720, Note_on_c, 1, 65, 127
2, 22720, Note_on_c, 1, 67, 127
2, 22720, Note_on_c, 1, 70, 127
2, 22920, Note_off_c, 1, 67, 0
2, 23040, Note_off_c, 1, 70, 0
2, 23080, Note_on_c, 1, 72, 127
2, 23280, Note_off_c, 1, 72, 0
2, 23320, Note_on_c, 1, 70, 127
2, 23520, Note_off_c, 1, 65, 0
2, 23520, Note_on_c, 1, 69, 127
2, 23520, Note_off_c, 1, 70, 0
2, 23560, Note_on_c, 1, 61, 127
2, 23680, Note_off_c, 1, 69, 0
2, 23720, Note_on_c, 1, 67, 127
2, 23840, Note_off_c, 1, 58, 0
2, 23840, Note_off_c, 1, 61, 0
2, 23840, Note_off_c, 1, 67, 0
2, 23880, Note_on_c, 1, 56, 127
2, 23880, Note_on_c, 1, 60, 127
2, 23880, Note_on_c, 1, 67, 127
2, 23920, Note_on_c, 1, 70, 127
2, 24280, Note_on_c, 1, 64, 127
2, 24400, Note_on_c, 1, 53, 127
2, 24400, Note_off_c, 1, 56, 0
2, 24400, Note_on_c, 1, 57, 127
2, 24520, Note_off_c, 1, 57, 0
2, 24560, Note_on_c, 1, 58, 127
2, 24640, Note_off_c, 1, 64, 0
2, 24640, Note_off_c, 1, 67, 0
2, 24640, Note_off_c, 1, 70, 0
2, 24680, Note_on_c, 1, 62, 127
2, 24680, Note_on_c, 1, 65, 127
2, 24680, Note_on_c, 1, 69, 127
2, 24720, Note_off_c, 1, 62, 0
2, 24800, Note_off_c, 1, 69, 0
2, 24840, Note_on_c, 1, 64, 127
2, 24840, Note_off_c, 1, 65, 0
2, 24840, Note_on_c, 1, 70, 127
2, 24880, Note_off_c, 1, 60, 0
2, 24880, Note_on_c, 1, 61, 127
2, 24880, Note_off_c, 1, 64, 0
2, 24880, Note_on_c, 1, 67, 127
2, 25640, Note_off_c, 1, 46, 0
2, 25640, Note_off_c, 1, 53, 0
2, 25640, Note_off_c, 1, 58, 0
2, 25640, Note_off_c, 1, 61, 0
2, 25640, Note_off_c, 1, 67, 0
2, 25720, Note_off_c, 1, 70, 0
2, 27280, Note_on_c, 1, 53, 127
2, 27360, Note_off_c, 1, 53, 0
2, 27400, Note_on_c, 1, 55, 127
2, 27720, Note_off_c, 1, 55, 0
2, 27760, Note_on_c, 1, 53, 127
2, 28040, Note_on_c, 1, 51, 127
2, 28040, Note_off_c, 1, 53, 0
2, 28080, Note_off_c, 1, 51, 0
2, 28160, Note_on_c, 1, 49, 127
2, 28560, Note_off_c, 1, 49, 0
2, 28640, Note_on_c, 1, 48, 127
2, 28640, Note_on_c, 1, 64, 127
2, 28960, Note_off_c, 1, 48, 0
2, 29000, Note_on_c, 1, 46, 127
2, 29200, Note_off_c, 1, 46, 0
2, 29200, Note_off_c, 1, 64, 0
2, 29200, Note_on_c, 1, 72, 127
2, 29240, Note_on_c, 1, 45, 127
2, 29480, Note_off_c, 1, 45, 0
2, 29560, Note_on_c, 1, 36, 127
2, 29960, Note_off_c, 1, 72, 0
2, 30240, Note_on_c, 1, 75, 127
2, 30520, Note_off_c, 1, 75, 0
2, 31480, Note_off_c, 1, 36, 0
2, 32200, Note_on_c, 1, 53, 127
2, 32200, Note_on_c, 1, 56, 127
2, 32200, Note_on_c, 1, 60, 127
2, 32200, Note_on_c, 1, 72, 127
2, 32240, Note_off_c, 1, 72, 0
2, 32280, Note_on_c, 1, 72, 127
2, 32360, Note_on_c, 1, 65, 127
2, 32360, Note_off_c, 1, 72, 0
2, 32600, Note_off_c, 1, 56, 0
2, 32600, Note_off_c, 1, 60, 0
2, 32600, Note_off_c, 1, 65, 0
2, 32640, Note_on_c, 1, 60, 127
2, 32640, Note_on_c, 1, 68, 127
2, 33000, Note_off_c, 1, 60, 0
2, 33040, Note_on_c, 1, 58, 127
2, 33280, Note_off_c, 1, 58, 0
2, 33280, Note_off_c, 1, 68, 0
2, 33400, Note_off_c, 1, 53, 0
2, 34280, Note_on_c, 1, 60, 127
2, 34280, Note_on_c, 1, 67, 127
2, 34400, Note_on_c, 1, 58, 127
2, 34520, Note_off_c, 1, 58, 0
2, 34560, Note_off_c, 1, 67, 0
2, 34600, Note_on_c, 1, 55, 127
2, 34600, Note_on_c, 1, 64, 127
2, 34840, Note_off_c, 1, 55, 0
2, 34840, Note_off_c, 1, 60, 0
2, 34840, Note_off_c, 1, 64, 0
2, 34880, Note_on_c, 1, 56, 127
2, 35240, Note_on_c, 1, 59, 127
2, 35360, Note_on_c, 1, 62, 127
2, 35600, Note_on_c, 1, 60, 127
2, 35600, Note_off_c, 1, 62, 0
2, 35680, Note_off_c, 1, 56, 0
2, 35680, Note_off_c, 1, 60, 0
2, 35720, Note_on_c, 1, 53, 127
2, 35720, Note_on_c, 1, 67, 127
2, 35800, Note_off_c, 1, 53, 0
2, 35800, Note_on_c, 1, 55, 127
2, 35920, Note_off_c, 1, 55, 0
2, 35960, Note_on_c, 1, 52, 127
2, 36160, Note_off_c, 1, 59, 0
2, 36200, Note_off_c, 1, 67, 0
2, 36240, Note_on_c, 1, 57, 127
2, 36240, Note_on_c, 1, 69, 127
2, 36480, Note_off_c, 1, 57, 0
2, 36520, Note_on_c, 1, 62, 127
2, 36840, Note_off_c, 1, 62, 0
2, 36840, Note_off_c, 1, 69, 0
2, 36880, Note_on_c, 1, 63, 127
2, 36880, Note_on_c, 1, 67, 127
2, 37120, Note_off_c, 1, 63, 0
2, 37120, Note_off_c, 1, 67, 0
2, 37160, Note_on_c, 1, 59, 127
2, 37160, Note_on_c, 1, 69, 127
2, 37280, Note_off_c, 1, 69, 0
2, 37440, Note_on_c, 1, 71, 127
2, 37720, Note_off_c, 1, 71, 0
2, 37760, Note_on_c, 1, 71, 127
2, 38080, Note_off_c, 1, 59, 0
2, 38080, Note_off_c, 1, 71, 0
2, 38200, Note_on_c, 1, 54, 127
2, 38200, Note_on_c, 1, 74, 127
2, 38400, Note_off_c, 1, 74, 0
2, 38440, Note_on_c, 1, 73, 127
2, 38600, Note_off_c, 1, 54, 0
2, 38600, Note_off_c, 1, 73, 0
2, 38640, Note_on_c, 1, 59, 127
2, 38640, Note_on_c, 1, 74, 127
2, 38920, Note_off_c, 1, 59, 0
2, 38920, Note_off_c, 1, 74, 0
2, 38960, Note_on_c, 1, 56, 127
2, 38960, Note_on_c, 1, 74, 127
2, 39160, Note_off_c, 1, 74, 0
2, 39200, Note_on_c, 1, 71, 127
2, 39480, Note_off_c, 1, 52, 0
2, 39480, Note_off_c, 1, 56, 0
2, 39480, Note_off_c, 1, 71, 0
2, 39520, Note_on_c, 1, 50, 127
2, 39520, Note_on_c, 1, 69, 127
2, 39960, Note_on_c, 1, 57, 127
2, 40520, Note_off_c, 1, 57, 0
2, 40520, Note_off_c, 1, 69, 0
2, 40560, Note_on_c, 1, 59, 127
2, 40560, Note_on_c, 1, 64, 127
2, 40760, Note_off_c, 1, 50, 0
2, 40760, Note_off_c, 1, 64, 0
2, 40800, Note_on_c, 1, 50, 127
2, 40800, Note_on_c, 1, 64, 127
2, 41080, Note_off_c, 1, 64, 0
2, 41120, Note_on_c, 1, 67, 127
2, 41680, Note_off_c, 1, 50, 0
2, 41680, Note_off_c, 1, 59, 0
2, 41680, Note_off_c, 1, 67, 0
2, 41720, Note_on_c, 1, 51, 127
2, 41720, Note_on_c, 1, 57, 127
2, 41760, Note_on_c, 1, 69, 127
2, 41920, Note_off_c, 1, 69, 0
2, 42000, Note_on_c, 1, 79, 127
2, 42040, Note_off_c, 1, 79, 0
2, 42080, Note_on_c, 1, 80, 127
2, 42160, Note_off_c, 1, 57, 0
2, 42160, Note_off_c, 1, 80, 0
2, 42200, Note_on_c, 1, 60, 127
2, 42200, Note_on_c, 1, 67, 127
2, 42200, Note_on_c, 1, 76, 127
2, 42440, Note_off_c, 1, 67, 0
2, 42440, Note_off_c, 1, 76, 0
2, 42480, Note_on_c, 1, 66, 127
2, 42480, Note_on_c, 1, 75, 127
2, 42680, Note_off_c, 1, 75, 0
2, 42720, Note_on_c, 1, 77, 127
2, 42800, Note_off_c, 1, 77, 0
2, 42840, Note_on_c, 1, 75, 127
2, 42960, Note_off_c, 1, 75, 0
2, 43000, Note_on_c, 1, 72, 127
2, 43120, Note_off_c, 1, 72, 0
2, 43120, Note_on_c, 1, 75, 127
2, 43360, Note_off_c, 1, 51, 0
2, 43360, Note_off_c, 1, 60, 0
2, 43360, Note_off_c, 1, 66, 0
2, 43400, Note_on_c, 1, 49, 127
2, 43400, Note_on_c, 1, 56, 127
2, 43400, Note_on_c, 1, 58, 127
2, 43400, Note_on_c, 1, 67, 127
2, 43520, Note_off_c, 1, 75, 0
2, 43560, Note_on_c, 1, 78, 127
2, 43600, Note_off_c, 1, 56, 0
2, 43600, Note_off_c, 1, 67, 0
2, 43600, Note_off_c, 1, 78, 0
2, 43640, Note_on_c, 1, 65, 127
2, 43640, Note_on_c, 1, 67, 127
2, 43800, Note_on_c, 1, 66, 127
2, 43800, Note_off_c, 1, 67, 0
2, 44000, Note_on_c, 1, 63, 127
2, 44000, Note_off_c, 1, 65, 0
2, 44040, Note_off_c, 1, 63, 0
2, 44320, Note_on_c, 1, 68, 127
2, 44360, Note_off_c, 1, 49, 0
2, 44400, Note_on_c, 1, 46, 127
2, 44400, Note_on_c, 1, 57, 127
2, 44400, Note_off_c, 1, 58, 0
2, 44560, Note_off_c, 1, 57, 0
2, 44560, Note_on_c, 1, 58, 127
2, 44880, Note_off_c, 1, 46, 0
2, 44880, Note_off_c, 1, 58, 0
2, 44880, Note_off_c, 1, 68, 0
2, 44880, Note_on_c, 1, 70, 127
2, 44920, Note_on_c, 1, 46, 127
2, 44920, Note_on_c, 1, 54, 127
2, 44920, Note_on_c, 1, 71, 127
2, 45080, Note_off_c, 1, 71, 0
2, 45160, Note_on_c, 1, 75, 127
2, 45360, Note_off_c, 1, 46, 0
2, 45360, Note_off_c, 1, 54, 0
2, 45400, Note_off_c, 1, 66, 0
2, 45400, Note_off_c, 1, 70, 0
2, 45440, Note_on_c, 1, 35, 127
2, 45440, Note_on_c, 1, 49, 127
2, 45440, Note_on_c, 1, 66, 127
2, 45440, Note_on_c, 1, 68, 127
2, 45480, Note_on_c, 1, 63, 127
2, 45520, Note_off_c, 1, 35, 0
2, 45520, Note_on_c, 1, 37, 127
2, 45520, Note_on_c, 1, 47, 127
2, 45520, Note_off_c, 1, 49, 0
2, 45560, Note_off_c, 1, 37, 0
2, 45560, Note_off_c, 1, 47, 0
2, 45560, Note_off_c, 1, 63, 0
2, 45560, Note_off_c, 1, 68, 0
2, 45600, Note_on_c, 1, 42, 127
2, 45600, Note_on_c, 1, 49, 127
2, 45600, Note_on_c, 1, 63, 127
2, 45600, Note_on_c, 1, 68, 127
2, 45760, Note_off_c, 1, 68, 0
2, 45760, Note_on_c, 1, 69, 127
2, 45880, Note_off_c, 1, 63, 0
2, 45880, Note_off_c, 1, 66, 0
2, 45880, Note_off_c, 1, 69, 0
2, 45920, Note_on_c, 1, 66, 127
2, 45920, Note_on_c, 1, 70, 127
2, 46160, Note_on_c, 1, 54, 127
2, 46200, Note_off_c, 1, 66, 0
2, 46200, Note_off_c, 1, 75, 0
2, 46200, Note_on_c, 1, 76, 127
2, 46240, Note_on_c, 1, 51, 127
2, 46240, Note_off_c, 1, 54, 0
2, 46280, Note_off_c, 1, 49, 0
2, 46280, Note_off_c, 1, 51, 0
2, 46280, Note_off_c, 1, 76, 0
2, 46320, Note_on_c, 1, 46, 127
2, 46320, Note_on_c, 1, 52, 127
2, 46320, Note_on_c, 1, 62, 127
2, 46320, Note_on_c, 1, 75, 127
2, 46360, Note_on_c, 1, 60, 127
2, 46360, Note_off_c, 1, 62, 0
2, 46400, Note_off_c, 1, 46, 0
2, 46400, Note_off_c, 1, 60, 0
2, 46440, Note_on_c, 1, 58, 127
2, 46560, Note_on_c, 1, 69, 127
2, 46600, Note_off_c, 1, 69, 0
2, 46680, Note_off_c, 1, 52, 0
2, 46680, Note_off_c, 1, 58, 0
2, 46680, Note_off_c, 1, 75, 0
2, 46720, Note_on_c, 1, 51, 127
2, 46720, Note_on_c, 1, 57, 127
2, 46720, Note_on_c, 1, 75, 127
2, 46760, Note_off_c, 1, 57, 0
2, 46760, Note_on_c, 1, 58, 127
2, 47000, Note_off_c, 1, 51, 0
2, 47000, Note_off_c, 1, 58, 0
2, 47000, Note_off_c, 1, 70, 0
2, 47000, Note_off_c, 1, 75, 0
2, 47040, Note_on_c, 1, 49, 127
2, 47040, Note_on_c, 1, 54, 127
2, 47040, Note_on_c, 1, 69, 127
2, 47040, Note_on_c, 1, 70, 127
2, 47040, Note_on_c, 1, 78, 127
2, 47080, Note_off_c, 1, 69, 0
2, 47120, Note_on_c, 1, 76, 127
2, 47120, Note_off_c, 1, 78, 0
2, 47160, Note_on_c, 1, 52, 127
2, 47160, Note_off_c, 1, 54, 0
2, 47200, Note_on_c, 1, 69, 127
2, 47200, Note_off_c, 1, 76, 0
2, 47200, Note_on_c, 1, 78, 127
2, 47360, Note_off_c, 1, 42, 0
2, 47360, Note_off_c, 1, 69, 0
2, 47400, Note_off_c, 1, 49, 0
2, 47400, Note_off_c, 1, 52, 0
2, 47400, Note_off_c, 1, 70, 0
2, 47400, Note_off_c, 1, 78, 0
2, 47440, End_track
3, 0, Start_track
3, 0, Title_t, "MIDI"
3, 1536, End_track
0, 0, End_of_file
