0, 0, Header, 1, 3, 384
1, 0, Start_track
1, 0, Time_signature, 4, 2, 24, 8
1, 0, Tempo, 500000
1, 34440, End_track
2, 0, Start_track
2, 0, Text_t, "harpsichord: John Sankey"
2, 0, Title_t, "Track 1"
2, 0, Note_on_c, 1, 60, 127
2, 0, Note_on_c, 1, 66, 127
2, 40, Note_on_c, 1, 50, 127
2, 80, Note_off_c, 1, 60, 0
2, 120, Note_on_c, 1, 57, 127
2, 160, Note_off_c, 1, 66, 0
2, 200, Note_off_c, 1, 57, 0
2, 240, Note_on_c, 1, 48, 127
2, 240, Note_off_c, 1, 50, 0
2, 440, Note_on_c, 1, 58, 127
2, 680, Note_off_c, 1, 48, 0
2, 680, Note_off_c, 1, 58, 0
2, 720, Note_on_c, 1, 53, 127
2, 720, Note_on_c, 1, 56, 127
2, 840, Note_off_c, 1, 53, 0
2, 880, Note_on_c, 1, 53, 127
2, 880, Note_off_c, 1, 56, 0
2, 880, Note_on_c, 1, 59, 127
2, 920, Note_off_c, 1, 59, 0
2, 960, Note_on_c, 1, 64, 127
2, 1000, Note_off_c, 1, 64, 0
2, 1040, Note_on_c, 1, 55, 127
2, 1120, Note_off_c, 1, 55, 0
2, 1160, Note_on_c, 1, 65, 127
2, 1240, Note_off_c, 1, 65, 0
2, 1360, Note_on_c, 1, 45, 127
2, 1520, Note_on_c, 1, 41, 127
2, 1520, Note_off_c, 1, 45, 0
2, 1600, Note_on_c, 1, 60, 127
2, 1720, Note_on_c, 1, 57, 127
2, 1840, Note_on_c, 1, 65, 127
2, 1920, Note_off_c, 1, 60, 0
2, 2000, Note_on_c, 1, 34, 127
2, 2000, Note_off_c, 1, 41, 0
2, 2040, Note_off_c, 1, 34, 0
2, 2040, Note_on_c, 1, 41, 127
2, 2040, Note_on_c, 1, 62, 127
2, 2120, Note_on_c, 1, 48, 127
2, 2440, Note_on_c, 1, 60, 127
2, 2480, Note_on_c, 1, 45, 127
2, 2480, Note_off_c, 1, 62, 0
2, 2520, Note_off_c, 1, 45, 0
2, 4120, Note_off_c, 1, 48, 0
2, 4160, Note_on_c, 1, 48, 127
2, 4240, Note_on_c, 1, 69, 127
2, 4440, Note_off_c, 1, 69, 0
2, 4440, Note_on_c, 1, 72, 127
2, 4480, Note_on_c, 1, 69, 127
2, 4480, Note_off_c, 1, 72, 0
2, 4560, Note_off_c, 1, 48, 0
2, 4560, Note_off_c, 1, 53, 0
2, 4560, Note_off_c, 1, 57, 0
2, 4560, Note_off_c, 1, 60, 0
2, 4560, Note_off_c, 1, 65, 0
2, 4560, Note_off_c, 1, 69, 0
2, 4600, Note_on_c, 1, 46, 127
2, 4600, Note_on_c, 1, 55, 127
2, 4600, Note_on_c, 1, 69, 127
2, 4600, Note_on_c, 1, 70, 127
2, 4640, Note_on_c, 1, 52, 127
2, 4640, Note_off_c, 1, 55, 0
2, 4720, Note_off_c, 1, 69, 0
2, 4760, Note_off_c, 1, 46, 0
2, 4760, Note_on_c, 1, 48, 127
2, 4760, Note_on_c, 1, 61, 127
2, 5000, Note_off_c, 1, 41, 0
2, 5000, Note_off_c, 1, 48, 0
2, 5000, Note_off_c, 1, 52, 0
2, 5000, Note_off_c, 1, 61, 0
2, 5040, Note_on_c, 1, 41, 127
2, 5040, Note_on_c, 1, 52, 127
2, 5040, Note_on_c, 1, 58, 127
2, 5280, Note_on_c, 1, 36, 127
2, 5280, Note_off_c, 1, 41, 0
2, 5320, Note_off_c, 1, 36, 0
2, 5320, Note_on_c, 1, 43, 127
2, 5320, Note_on_c, 1, 51, 127
2, 5320, Note_off_c, 1, 52, 0
2, 5360, Note_off_c, 1, 43, 0
2, 5360, Note_off_c, 1, 51, 0
2, 5360, Note_off_c, 1, 58, 0
2, 5360, Note_off_c, 1, 70, 0
2, 5400, Note_on_c, 1, 45, 127
2, 5400, Note_on_c, 1, 49, 127
2, 5400, Note_on_c, 1, 60, 127
2, 5400, Note_on_c, 1, 67, 127
2, 5520, Note_off_c, 1, 49, 0
2, 5520, Note_on_c, 1, 51, 127
2, 5600, Note_off_c, 1, 45, 0
2, 5600, Note_off_c, 1, 51, 0
2, 5600, Note_off_c, 1, 60, 0
2, 5600, Note_off_c, 1, 67, 0
2, 5680, Note_on_c, 1, 45, 127
2, 5680, Note_on_c, 1, 50, 127
2, 5680, Note_on_c, 1, 57, 127
2, 5720, Note_off_c, 1, 50, 0
2, 5800, Note_off_c, 1, 45, 0
2, 5800, Note_off_c, 1, 57, 0
2, 5840, Note_on_c, 1, 44, 127
2, 5840, Note_on_c, 1, 53, 127
2, 5920, Note_on_c, 1, 41, 127
2, 5920, Note_off_c, 1, 44, 0
2, 5920, Note_off_c, 1, 53, 0
2, 5920, Note_on_c, 1, 56, 127
2, 5960, Note_off_c, 1, 56, 0
2, 6040, Note_on_c, 1, 55, 127
2, 6040, Note_on_c, 1, 60, 127
2, 6120, Note_off_c, 1, 41, 0
2, 6120, Note_off_c, 1, 55, 0
2, 6120, Note_off_c, 1, 60, 0
2, 6160, Note_on_c, 1, 41, 127
2, 6160, Note_on_c, 1, 46, 127
2, 6160, Note_on_c, 1, 53, 127
2, 6200, Note_on_c, 1, 48, 127
2, 6200, Note_off_c, 1, 53, 0
2, 6240, Note_off_c, 1, 41, 0
2, 6240, Note_off_c, 1, 46, 0
2, 6240, Note_off_c, 1, 48, 0
2, 6240, Note_on_c, 1, 53, 127
2, 6280, Note_on_c, 1, 39, 127
2, 6280, Note_on_c, 1, 41, 127
2, 6280, Note_off_c, 1, 53, 0
2, 6280, Note_on_c, 1, 65, 127
2, 6320, Note_off_c, 1, 41, 0
2, 6320, Note_on_c, 1, 48, 127
2, 6320, Note_off_c, 1, 65, 0
2, 6360, Note_off_c, 1, 48, 0
2, 6360, Note_on_c, 1, 53, 127
2, 6440, Note_off_c, 1, 39, 0
2, 6440, Note_on_c, 1, 51, 127
2, 6480, Note_on_c, 1, 39, 127
2, 6480, Note_off_c, 1, 51, 0
2, 6640, Note_on_c, 1, 36, 127
2, 6640, Note_off_c, 1, 39, 0
2, 6680, Note_off_c, 1, 36, 0
2, 6680, Note_on_c, 1, 41, 127
2, 6680, Note_on_c, 1, 52, 127
2, 6680, Note_off_c, 1, 53, 0
2, 6880, Note_off_c, 1, 41, 0
2, 6880, Note_off_c, 1, 52, 0
2, 6920, Note_on_c, 1, 39, 127
2, 6920, Note_on_c, 1, 48, 127
2, 6920, Note_on_c, 1, 55, 127
2, 6920, Note_on_c, 1, 58, 127
2, 6920, Note_on_c, 1, 63, 127
2, 6920, Note_on_c, 1, 67, 127
2, 6960, Note_on_c, 1, 51, 127
2, 6960, Note_off_c, 1, 67, 0
2, 7000, Note_on_c, 1, 61, 127
2, 7000, Note_off_c, 1, 63, 0
2, 7080, Note_off_c, 1, 51, 0
2, 7120, Note_on_c, 1, 52, 127
2, 7120, Note_off_c, 1, 55, 0
2, 7120, Note_on_c, 1, 60, 127
2, 7120, Note_off_c, 1, 61, 0
2, 7160, Note_off_c, 1, 58, 0
2, 7200, Note_off_c, 1, 39, 0
2, 7200, Note_on_c, 1, 41, 127
2, 7200, Note_on_c, 1, 57, 127
2, 7200, Note_on_c, 1, 65, 127
2, 7240, Note_off_c, 1, 52, 0
2, 7360, Note_on_c, 1, 53, 127
2, 7560, Note_off_c, 1, 48, 0
2, 7600, Note_on_c, 1, 48, 127
2, 8200, Note_off_c, 1, 48, 0
2, 8200, Note_off_c, 1, 53, 0
2, 8200, Note_off_c, 1, 57, 0
2, 8200, Note_off_c, 1, 60, 0
2, 8200, Note_off_c, 1, 65, 0
2, 8240, Note_off_c, 1, 41, 0
2, 8240, Note_on_c, 1, 48, 127
2, 8240, Note_on_c, 1, 50, 127
2, 8240, Note_on_c, 1, 55, 127
2, 8240, Note_on_c, 1, 60, 127
2, 8240, Note_on_c, 1, 65, 127
2, 8320, Note_on_c, 1, 43, 127
2, 8320, Note_off_c, 1, 50, 0
2, 8480, Note_off_c, 1, 55, 0
2, 8520, Note_on_c, 1, 41, 127
2, 8520, Note_off_c, 1, 43, 0
2, 9120, Note_off_c, 1, 60, 0
2, 9120, Note_off_c, 1, 65, 0
2, 9200, Note_on_c, 1, 53, 127
2, 9200, Note_on_c, 1, 60, 127
2, 9200, Note_on_c, 1, 65, 127
2, 9240, Note_on_c, 1, 57, 127
2, 11120, Note_off_c, 1, 53, 0
2, 11120, Note_off_c, 1, 60, 0
2, 11200, Note_on_c, 1, 53, 127
2, 11200, Note_on_c, 1, 60, 127
2, 11280, Note_off_c, 1, 48, 0
2, 11320, Note_on_c, 1, 48, 127
2, 13240, Note_off_c, 1, 57, 0
2, 13240, Note_off_c, 1, 65, 0
2, 13280, Note_on_c, 1, 65, 127
2, 13400, Note_on_c, 1, 58, 127
2, 13400, Note_off_c, 1, 60, 0
2, 13680, Note_off_c, 1, 48, 0
2, 13680, Note_off_c, 1, 58, 0
2, 13680, Note_off_c, 1, 65, 0
2, 13720, Note_on_c, 1, 48, 127
2, 13720, Note_on_c, 1, 60, 127
2, 13720, Note_on_c, 1, 65, 127
2, 14040, Note_off_c, 1, 60, 0
2, 14080, Note_on_c, 1, 58, 127
2, 14520, Note_on_c, 1, 57, 127
2, 14520, Note_off_c, 1, 58, 0
2, 14800, Note_on_c, 1, 60, 127
2, 15120, Note_on_c, 1, 64, 127
2, 15120, Note_off_c, 1, 65, 0
2, 15160, Note_off_c, 1, 64, 0
2, 15160, Note_on_c, 1, 65, 127
2, 16800, Note_off_c, 1, 48, 0
2, 16840, Note_on_c, 1, 48, 127
2, 18120, Note_off_c, 1, 60, 0
2, 18120, Note_off_c, 1, 65, 0
2, 18160, Note_on_c, 1, 60, 127
2, 18160, Note_on_c, 1, 63, 127
2, 18200, Note_off_c, 1, 63, 0
2, 18200, Note_on_c, 1, 65, 127
2, 19440, Note_off_c, 1, 48, 0
2, 19520, Note_on_c, 1, 48, 127
2, 19560, Note_off_c, 1, 57, 0
2, 20120, Note_off_c, 1, 48, 0
2, 20520, Note_on_c, 1, 68, 127
2, 20760, Note_off_c, 1, 68, 0
2, 20800, Note_on_c, 1, 68, 127
2, 20920, Note_off_c, 1, 68, 0
2, 20960, Note_on_c, 1, 68, 127
2, 21200, Note_on_c, 1, 48, 127
2, 21200, Note_off_c, 1, 60, 0
2, 21240, Note_off_c, 1, 48, 0
2, 21280, Note_on_c, 1, 48, 127
2, 21320, Note_off_c, 1, 68, 0
2, 21480, Note_off_c, 1, 41, 0
2, 21480, Note_off_c, 1, 48, 0
2, 21480, Note_off_c, 1, 53, 0
2, 21520, Note_on_c, 1, 47, 127
2, 21520, Note_on_c, 1, 53, 127
2, 21520, Note_on_c, 1, 59, 127
2, 21560, Note_on_c, 1, 52, 127
2, 21560, Note_off_c, 1, 53, 0
2, 21920, Note_off_c, 1, 52, 0
2, 21920, Note_off_c, 1, 59, 0
2, 21920, Note_off_c, 1, 65, 0
2, 21960, Note_on_c, 1, 45, 127
2, 21960, Note_off_c, 1, 47, 0
2, 21960, Note_on_c, 1, 55, 127
2, 21960, Note_on_c, 1, 60, 127
2, 21960, Note_on_c, 1, 62, 127
2, 22280, Note_off_c, 1, 62, 0
2, 22320, Note_on_c, 1, 57, 127
2, 22320, Note_off_c, 1, 60, 0
2, 22320, Note_on_c, 1, 61, 127
2, 22440, Note_on_c, 1, 53, 127
2, 22440, Note_off_c, 1, 55, 0
2, 22440, Note_off_c, 1, 61, 0
2, 22480, Note_on_c, 1, 64, 127
2, 22560, Note_off_c, 1, 64, 0
2, 22600, Note_on_c, 1, 60, 127
2, 22960, Note_off_c, 1, 53, 0
2, 23000, Note_on_c, 1, 53, 127
2, 23000, Note_on_c, 1, 65, 127
2, 23240, Note_on_c, 1, 41, 127
2, 23240, Note_off_c, 1, 45, 0
2, 23360, Note_off_c, 1, 60, 0
2, 23360, Note_off_c, 1, 65, 0
2, 23400, Note_on_c, 1, 60, 127
2, 23400, Note_on_c, 1, 67, 127
2, 23440, Note_on_c, 1, 65, 127
2, 23440, Note_off_c, 1, 67, 0
2, 25000, Note_on_c, 1, 69, 127
2, 25200, Note_off_c, 1, 60, 0
2, 25200, Note_off_c, 1, 69, 0
2, 25240, Note_on_c, 1, 60, 127
2, 26600, Note_off_c, 1, 53, 0
2, 26640, Note_on_c, 1, 53, 127
2, 28280, Note_on_c, 1, 52, 127
2, 28280, Note_off_c, 1, 53, 0
2, 28480, Note_off_c, 1, 52, 0
2, 28480, Note_on_c, 1, 53, 127
2, 29040, Note_off_c, 1, 53, 0
2, 29040, Note_off_c, 1, 57, 0
2, 29040, Note_off_c, 1, 60, 0
2, 29040, Note_off_c, 1, 65, 0
2, 29080, Note_on_c, 1, 55, 127
2, 29080, Note_on_c, 1, 60, 127
2, 29080, Note_on_c, 1, 64, 127
2, 29080, Note_on_c, 1, 67, 127
2, 29120, Note_off_c, 1, 55, 0
2, 29120, Note_on_c, 1, 57, 127
2, 29240, Note_on_c, 1, 65, 127
2, 29240, Note_off_c, 1, 67, 0
2, 29400, Note_off_c, 1, 41, 0
2, 29400, Note_off_c, 1, 57, 0
2, 29400, Note_off_c, 1, 60, 0
2, 29400, Note_off_c, 1, 64, 0
2, 29400, Note_off_c, 1, 65, 0
2, 29440, Note_on_c, 1, 41, 127
2, 29440, Note_on_c, 1, 57, 127
2, 29440, Note_on_c, 1, 62, 127
2, 29440, Note_on_c, 1, 65, 127
2, 29880, Note_off_c, 1, 62, 0
2, 29880, Note_off_c, 1, 65, 0
2, 29920, Note_on_c, 1, 65, 127
2, 30240, Note_off_c, 1, 57, 0
2, 30240, Note_off_c, 1, 65, 0
2, 30280, Note_on_c, 1, 55, 127
2, 30280, Note_on_c, 1, 61, 127
2, 30280, Note_on_c, 1, 67, 127
2, 30360, Note_on_c, 1, 60, 127
2, 30360, Note_off_c, 1, 61, 0
2, 30400, Note_on_c, 1, 65, 127
2, 30440, Note_on_c, 1, 53, 127
2, 30440, Note_off_c, 1, 55, 0
2, 30680, Note_off_c, 1, 67, 0
2, 30880, Note_on_c, 1, 70, 127
2, 30960, Note_off_c, 1, 70, 0
2, 31000, Note_on_c, 1, 70, 127
2, 31440, Note_off_c, 1, 41, 0
2, 31440, Note_off_c, 1, 60, 0
2, 31440, Note_off_c, 1, 65, 0
2, 31440, Note_off_c, 1, 70, 0
2, 31480, Note_on_c, 1, 72, 127
2, 31640, Note_off_c, 1, 72, 0
2, 31680, Note_on_c, 1, 70, 127
2, 31760, Note_off_c, 1, 70, 0
2, 31800, Note_on_c, 1, 67, 127
2, 31960, Note_off_c, 1, 67, 0
2, 32000, Note_on_c, 1, 72, 127
2, 32120, Note_off_c, 1, 72, 0
2, 32160, Note_on_c, 1, 69, 127
2, 32200, Note_off_c, 1, 69, 0
2, 32240, Note_on_c, 1, 67, 127
2, 32280, Note_on_c, 1, 65, 127
2, 32280, Note_off_c, 1, 67, 0
2, 32400, Note_on_c, 1, 57, 127
2, 32560, Note_off_c, 1, 65, 0
2, 32600, Note_on_c, 1, 64, 127
2, 32720, Note_off_c, 1, 64, 0
2, 32760, Note_on_c, 1, 60, 127
2, 32920, Note_on_c, 1, 70, 127
2, 33000, Note_off_c, 1, 70, 0
2, 33040, Note_on_c, 1, 72, 127
2, 33440, Note_off_c, 1, 53, 0
2, 33440, Note_off_c, 1, 57, 0
2, 33480, Note_on_c, 1, 52, 127
2, 33480, Note_on_c, 1, 57, 127
2, 33840, Note_off_c, 1, 52, 0
2, 33840, Note_off_c, 1, 57, 0
2, 33840, Note_off_c, 1, 60, 0
2, 33840, Note_off_c, 1, 72, 0
2, 33880, Note_on_c, 1, 48, 127
2, 33880, Note_on_c, 1, 55, 127
2, 33880, Note_on_c, 1, 60, 127
2, 33880, Note_on_c, 1, 72, 127
2, 33960, Note_off_c, 1, 72, 0
2, 34000, Note_on_c, 1, 67, 127
2, 34200, Note_off_c, 1, 67, 0
2, 34240, Note_on_c, 1, 64, 127
2, 34400, Note_off_c, 1, 48, 0
2, 34400, Note_off_c, 1, 55, 0
2, 34400, Note_off_c, 1, 60, 0
2, 34400, Note_off_c, 1, 64, 0
2, 34440, End_track
3, 0, Start_track
3, 0, Title_t, "MIDI"
3, 1536, End_track
0, 0, End_of_file
