0, 0, Header, 1, 3, 384
1, 0, Start_track
1, 0, Time_signature, 4, 2, 24, 8
1, 0, Tempo, 500000
1, 59960, End_track
2, 0, Start_track
2, 0, Text_t, "harpsichord: John Sankey"
2, 0, Title_t, "Track 1"
2, 0, Note_on_c, 1, 38, 127
2, 0, Note_on_c, 1, 46, 127
2, 0, Note_on_c, 1, 65, 127
2, 0, Note_on_c, 1, 69, 127
2, 160, Note_on_c, 1, 34, 127
2, 160, Note_off_c, 1, 38, 0
2, 160, Note_on_c, 1, 45, 127
2, 160, Note_off_c, 1, 46, 0
2, 360, Note_off_c, 1, 45, 0
2, 400, Note_on_c, 1, 46, 127
2, 640, Note_off_c, 1, 69, 0
2, 680, Note_on_c, 1, 70, 127
2, 1000, Note_off_c, 1, 34, 0
2, 1000, Note_off_c, 1, 46, 0
2, 1000, Note_off_c, 1, 65, 0
2, 1000, Note_off_c, 1, 70, 0
2, 1080, Note_on_c, 1, 46, 127
2, 1080, Note_on_c, 1, 60, 127
2, 1080, Note_on_c, 1, 65, 127
2, 1280, Note_off_c, 1, 46, 0
2, 1280, Note_off_c, 1, 60, 0
2, 1280, Note_off_c, 1, 65, 0
2, 1320, Note_on_c, 1, 42, 127
2, 1320, Note_on_c, 1, 50, 127
2, 1320, Note_on_c, 1, 65, 127
2, 1320, Note_on_c, 1, 69, 127
2, 1760, Note_off_c, 1, 42, 0
2, 1760, Note_off_c, 1, 50, 0
2, 1760, Note_off_c, 1, 65, 0
2, 1760, Note_off_c, 1, 69, 0
2, 1800, Note_on_c, 1, 45, 127
2, 1800, Note_on_c, 1, 63, 127
2, 1800, Note_on_c, 1, 67, 127
2, 2200, Note_off_c, 1, 63, 0
2, 2200, Note_off_c, 1, 67, 0
2, 2240, Note_on_c, 1, 53, 127
2, 2240, Note_on_c, 1, 62, 127
2, 2240, Note_on_c, 1, 70, 127
2, 2440, Note_off_c, 1, 53, 0
2, 2440, Note_off_c, 1, 70, 0
2, 2480, Note_on_c, 1, 52, 127
2, 2480, Note_on_c, 1, 65, 127
2, 2680, Note_off_c, 1, 45, 0
2, 2720, Note_on_c, 1, 40, 127
2, 2880, Note_off_c, 1, 52, 0
2, 2880, Note_off_c, 1, 65, 0
2, 2920, Note_off_c, 1, 40, 0
2, 2920, Note_on_c, 1, 55, 127
2, 2920, Note_off_c, 1, 62, 0
2, 2960, Note_on_c, 1, 46, 127
2, 2960, Note_on_c, 1, 52, 127
2, 2960, Note_off_c, 1, 55, 0
2, 2960, Note_on_c, 1, 58, 127
2, 2960, Note_on_c, 1, 61, 127
2, 3280, Note_off_c, 1, 46, 0
2, 3280, Note_off_c, 1, 52, 0
2, 3280, Note_off_c, 1, 58, 0
2, 3280, Note_off_c, 1, 61, 0
2, 3320, Note_on_c, 1, 45, 127
2, 3320, Note_on_c, 1, 53, 127
2, 3320, Note_on_c, 1, 57, 127
2, 3320, Note_on_c, 1, 62, 127
2, 3560, Note_on_c, 1, 41, 127
2, 3560, Note_off_c, 1, 45, 0
2, 3640, Note_off_c, 1, 53, 0
2, 3640, Note_off_c, 1, 57, 0
2, 3640, Note_off_c, 1, 62, 0
2, 3680, Note_on_c, 1, 50, 127
2, 3680, Note_on_c, 1, 57, 127
2, 3680, Note_on_c, 1, 60, 127
2, 3800, Note_off_c, 1, 60, 0
2, 3840, Note_on_c, 1, 62, 127
2, 4040, Note_off_c, 1, 62, 0
2, 4080, Note_on_c, 1, 65, 127
2, 4360, Note_off_c, 1, 41, 0
2, 4360, Note_off_c, 1, 50, 0
2, 4360, Note_off_c, 1, 57, 0
2, 4360, Note_off_c, 1, 65, 0
2, 4400, Note_on_c, 1, 65, 127
2, 4720, Note_off_c, 1, 65, 0
2, 4760, Note_on_c, 1, 65, 127
2, 5560, Note_off_c, 1, 65, 0
2, 6200, Note_on_c, 1, 41, 127
2, 6200, Note_on_c, 1, 53, 127
2, 6200, Note_on_c, 1, 60, 127
2, 6200, Note_on_c, 1, 69, 127
2, 6520, Note_off_c, 1, 69, 0
2, 6560, Note_on_c, 1, 70, 127
2, 6600, Note_off_c, 1, 70, 0
2, 6640, Note_on_c, 1, 69, 127
2, 6840, Note_off_c, 1, 41, 0
2, 6840, Note_off_c, 1, 53, 0
2, 6840, Note_off_c, 1, 60, 0
2, 6840, Note_off_c, 1, 69, 0
2, 6880, Note_on_c, 1, 70, 127
2, 7160, Note_on_c, 1, 78, 127
2, 7440, Note_off_c, 1, 70, 0
2, 7440, Note_off_c, 1, 78, 0
2, 7480, Note_on_c, 1, 75, 127
2, 7480, Note_on_c, 1, 82, 127
2, 7520, Note_on_c, 1, 79, 127
2, 7520, Note_off_c, 1, 82, 0
2, 7560, Note_off_c, 1, 75, 0
2, 7560, Note_off_c, 1, 79, 0
2, 7600, Note_on_c, 1, 77, 127
2, 7680, Note_off_c, 1, 77, 0
2, 7720, Note_on_c, 1, 76, 127
2, 7880, Note_off_c, 1, 76, 0
2, 7920, Note_on_c, 1, 74, 127
2, 8080, Note_off_c, 1, 74, 0
2, 8120, Note_on_c, 1, 72, 127
2, 8200, Note_off_c, 1, 72, 0
2, 8240, Note_on_c, 1, 70, 127
2, 8280, Note_off_c, 1, 70, 0
2, 8320, Note_on_c, 1, 69, 127
2, 8360, Note_off_c, 1, 69, 0
2, 8400, Note_on_c, 1, 67, 127
2, 8440, Note_off_c, 1, 67, 0
2, 8480, Note_on_c, 1, 65, 127
2, 8520, Note_off_c, 1, 65, 0
2, 8560, Note_on_c, 1, 69, 127
2, 8640, Note_off_c, 1, 69, 0
2, 8680, Note_on_c, 1, 65, 127
2, 8720, Note_off_c, 1, 65, 0
2, 8760, Note_on_c, 1, 40, 127
2, 8760, Note_on_c, 1, 67, 127
2, 8920, Note_off_c, 1, 67, 0
2, 8960, Note_on_c, 1, 65, 127
2, 9000, Note_off_c, 1, 65, 0
2, 9040, Note_on_c, 1, 67, 127
2, 9080, Note_off_c, 1, 67, 0
2, 9120, Note_on_c, 1, 65, 127
2, 9160, Note_off_c, 1, 40, 0
2, 9160, Note_on_c, 1, 64, 127
2, 9160, Note_off_c, 1, 65, 0
2, 9240, Note_off_c, 1, 64, 0
2, 9280, Note_on_c, 1, 69, 127
2, 9440, Note_off_c, 1, 69, 0
2, 9480, Note_on_c, 1, 67, 127
2, 9640, Note_off_c, 1, 67, 0
2, 9680, Note_on_c, 1, 69, 127
2, 9880, Note_on_c, 1, 57, 127
2, 9880, Note_on_c, 1, 65, 127
2, 9920, Note_off_c, 1, 57, 0
2, 10000, Note_on_c, 1, 61, 127
2, 10040, Note_off_c, 1, 61, 0
2, 10400, Note_off_c, 1, 65, 0
2, 10400, Note_off_c, 1, 69, 0
2, 10440, Note_on_c, 1, 67, 127
2, 10440, Note_on_c, 1, 70, 127
2, 10600, Note_off_c, 1, 67, 0
2, 10600, Note_off_c, 1, 70, 0
2, 10640, Note_on_c, 1, 65, 127
2, 10640, Note_on_c, 1, 69, 127
2, 10640, Note_on_c, 1, 72, 127
2, 10720, Note_off_c, 1, 65, 0
2, 10760, Note_on_c, 1, 64, 127
2, 10800, Note_off_c, 1, 64, 0
2, 11560, Note_off_c, 1, 72, 0
2, 11600, Note_on_c, 1, 70, 127
2, 11680, Note_off_c, 1, 69, 0
2, 11720, Note_on_c, 1, 67, 127
2, 11760, Note_off_c, 1, 67, 0
2, 11800, Note_on_c, 1, 65, 127
2, 11840, Note_off_c, 1, 70, 0
2, 11920, Note_on_c, 1, 69, 127
2, 12040, Note_off_c, 1, 69, 0
2, 12080, Note_on_c, 1, 70, 127
2, 12400, Note_on_c, 1, 62, 127
2, 12440, Note_off_c, 1, 62, 0
2, 12520, Note_off_c, 1, 65, 0
2, 12560, Note_on_c, 1, 67, 127
2, 12720, Note_off_c, 1, 70, 0
2, 12760, Note_on_c, 1, 57, 127
2, 12760, Note_on_c, 1, 72, 127
2, 12800, Note_off_c, 1, 57, 0
2, 12800, Note_off_c, 1, 72, 0
2, 12840, Note_on_c, 1, 55, 127
2, 12840, Note_on_c, 1, 70, 127
2, 12880, Note_off_c, 1, 55, 0
2, 12880, Note_off_c, 1, 67, 0
2, 12880, Note_off_c, 1, 70, 0
2, 12920, Note_on_c, 1, 57, 127
2, 12920, Note_on_c, 1, 65, 127
2, 12920, Note_on_c, 1, 72, 127
2, 13040, Note_off_c, 1, 57, 0
2, 13080, Note_on_c, 1, 55, 127
2, 13120, Note_off_c, 1, 55, 0
2, 13120, Note_off_c, 1, 72, 0
2, 13160, Note_on_c, 1, 57, 127
2, 13160, Note_on_c, 1, 70, 127
2, 13200, Note_off_c, 1, 57, 0
2, 13240, Note_on_c, 1, 58, 127
2, 13280, Note_off_c, 1, 58, 0
2, 13320, Note_on_c, 1, 57, 127
2, 13400, Note_off_c, 1, 57, 0
2, 13440, Note_on_c, 1, 58, 127
2, 13480, Note_off_c, 1, 58, 0
2, 13480, Note_off_c, 1, 70, 0
2, 13520, Note_on_c, 1, 57, 127
2, 13520, Note_on_c, 1, 72, 127
2, 13640, Note_off_c, 1, 57, 0
2, 13640, Note_off_c, 1, 72, 0
2, 13680, Note_on_c, 1, 60, 127
2, 13680, Note_on_c, 1, 76, 127
2, 13760, Note_off_c, 1, 60, 0
2, 13840, Note_on_c, 1, 59, 127
2, 13880, Note_off_c, 1, 59, 0
2, 13920, Note_on_c, 1, 57, 127
2, 13960, Note_off_c, 1, 57, 0
2, 13960, Note_off_c, 1, 65, 0
2, 13960, Note_off_c, 1, 76, 0
2, 14000, Note_on_c, 1, 65, 127
2, 14040, Note_on_c, 1, 50, 127
2, 14040, Note_on_c, 1, 74, 127
2, 14080, Note_off_c, 1, 50, 0
2, 14120, Note_on_c, 1, 55, 127
2, 14200, Note_off_c, 1, 55, 0
2, 14200, Note_off_c, 1, 65, 0
2, 14200, Note_off_c, 1, 74, 0
2, 14240, Note_on_c, 1, 53, 127
2, 14240, Note_on_c, 1, 64, 127
2, 14240, Note_on_c, 1, 71, 127
2, 14320, Note_off_c, 1, 53, 0
2, 14320, Note_on_c, 1, 55, 127
2, 14360, Note_on_c, 1, 53, 127
2, 14360, Note_off_c, 1, 55, 0
2, 14400, Note_off_c, 1, 64, 0
2, 14400, Note_off_c, 1, 71, 0
2, 14440, Note_on_c, 1, 62, 127
2, 14440, Note_on_c, 1, 67, 127
2, 14600, Note_off_c, 1, 53, 0
2, 14600, Note_off_c, 1, 62, 0
2, 14600, Note_off_c, 1, 67, 0
2, 14640, Note_on_c, 1, 52, 127
2, 14640, Note_on_c, 1, 72, 127
2, 14720, Note_off_c, 1, 52, 0
2, 14720, Note_on_c, 1, 55, 127
2, 14760, Note_on_c, 1, 52, 127
2, 14760, Note_off_c, 1, 55, 0
2, 14760, Note_on_c, 1, 67, 127
2, 14840, Note_off_c, 1, 52, 0
2, 14840, Note_off_c, 1, 67, 0
2, 14880, Note_on_c, 1, 50, 127
2, 14880, Note_on_c, 1, 65, 127
2, 15000, Note_on_c, 1, 64, 127
2, 15000, Note_off_c, 1, 65, 0
2, 15040, Note_off_c, 1, 50, 0
2, 15040, Note_off_c, 1, 64, 0
2, 15080, Note_on_c, 1, 62, 127
2, 15080, Note_on_c, 1, 65, 127
2, 15240, Note_off_c, 1, 62, 0
2, 15240, Note_off_c, 1, 65, 0
2, 15280, Note_on_c, 1, 57, 127
2, 15280, Note_on_c, 1, 64, 127
2, 15360, Note_off_c, 1, 64, 0
2, 15400, Note_on_c, 1, 60, 127
2, 15440, Note_off_c, 1, 60, 0
2, 15440, Note_off_c, 1, 72, 0
2, 15480, Note_on_c, 1, 64, 127
2, 15480, Note_on_c, 1, 67, 127
2, 15480, Note_on_c, 1, 72, 127
2, 15640, Note_off_c, 1, 57, 0
2, 15680, Note_on_c, 1, 57, 127
2, 15760, Note_off_c, 1, 57, 0
2, 15800, Note_on_c, 1, 58, 127
2, 15880, Note_off_c, 1, 58, 0
2, 15920, Note_on_c, 1, 57, 127
2, 16000, Note_off_c, 1, 57, 0
2, 16000, Note_off_c, 1, 64, 0
2, 16000, Note_off_c, 1, 67, 0
2, 16000, Note_off_c, 1, 72, 0
2, 16040, Note_on_c, 1, 58, 127
2, 16040, Note_on_c, 1, 64, 127
2, 16040, Note_on_c, 1, 67, 127
2, 16040, Note_on_c, 1, 72, 127
2, 16320, Note_off_c, 1, 58, 0
2, 16320, Note_off_c, 1, 64, 0
2, 16320, Note_off_c, 1, 67, 0
2, 16320, Note_off_c, 1, 72, 0
2, 16360, Note_on_c, 1, 57, 127
2, 16360, Note_on_c, 1, 60, 127
2, 16360, Note_on_c, 1, 65, 127
2, 16360, Note_on_c, 1, 72, 127
2, 16880, Note_off_c, 1, 57, 0
2, 16880, Note_off_c, 1, 72, 0
2, 16920, Note_on_c, 1, 53, 127
2, 16920, Note_on_c, 1, 69, 127
2, 17000, Note_off_c, 1, 69, 0
2, 17040, Note_on_c, 1, 67, 127
2, 17120, Note_off_c, 1, 53, 0
2, 17120, Note_off_c, 1, 60, 0
2, 17120, Note_off_c, 1, 65, 0
2, 17120, Note_off_c, 1, 67, 0
2, 17160, Note_on_c, 1, 46, 127
2, 17160, Note_on_c, 1, 60, 127
2, 17160, Note_on_c, 1, 64, 127
2, 17160, Note_on_c, 1, 67, 127
2, 17280, Note_off_c, 1, 46, 0
2, 17320, Note_on_c, 1, 45, 127
2, 17440, Note_off_c, 1, 45, 0
2, 17440, Note_off_c, 1, 60, 0
2, 17480, Note_on_c, 1, 48, 127
2, 17520, Note_off_c, 1, 64, 0
2, 17520, Note_off_c, 1, 67, 0
2, 17720, Note_off_c, 1, 48, 0
2, 17760, Note_on_c, 1, 57, 127
2, 17760, Note_on_c, 1, 60, 127
2, 17760, Note_on_c, 1, 65, 127
2, 17760, Note_on_c, 1, 69, 127
2, 17960, Note_off_c, 1, 57, 0
2, 18000, Note_on_c, 1, 53, 127
2, 18000, Note_off_c, 1, 60, 0
2, 18080, Note_off_c, 1, 53, 0
2, 18120, Note_on_c, 1, 50, 127
2, 18240, Note_off_c, 1, 50, 0
2, 18280, Note_on_c, 1, 48, 127
2, 18360, Note_off_c, 1, 48, 0
2, 18400, Note_on_c, 1, 50, 127
2, 18480, Note_off_c, 1, 50, 0
2, 18480, Note_off_c, 1, 65, 0
2, 18480, Note_off_c, 1, 69, 0
2, 18520, Note_on_c, 1, 52, 127
2, 18520, Note_on_c, 1, 68, 127
2, 18520, Note_on_c, 1, 72, 127
2, 18640, Note_off_c, 1, 72, 0
2, 18680, Note_on_c, 1, 74, 127
2, 18760, Note_off_c, 1, 68, 0
2, 18760, Note_off_c, 1, 74, 0
2, 18800, Note_on_c, 1, 67, 127
2, 18800, Note_on_c, 1, 72, 127
2, 19000, Note_off_c, 1, 52, 0
2, 19000, Note_off_c, 1, 67, 0
2, 19000, Note_off_c, 1, 72, 0
2, 19040, Note_on_c, 1, 45, 127
2, 19040, Note_on_c, 1, 65, 127
2, 19040, Note_on_c, 1, 71, 127
2, 19120, Note_off_c, 1, 71, 0
2, 19160, Note_on_c, 1, 69, 127
2, 19240, Note_off_c, 1, 45, 0
2, 19240, Note_off_c, 1, 65, 0
2, 19240, Note_off_c, 1, 69, 0
2, 19280, Note_on_c, 1, 43, 127
2, 19280, Note_on_c, 1, 64, 127
2, 19280, Note_on_c, 1, 67, 127
2, 19360, Note_off_c, 1, 67, 0
2, 19400, Note_on_c, 1, 69, 127
2, 19520, Note_off_c, 1, 43, 0
2, 19520, Note_off_c, 1, 64, 0
2, 19520, Note_off_c, 1, 69, 0
2, 19560, Note_on_c, 1, 45, 127
2, 19560, Note_on_c, 1, 62, 127
2, 19560, Note_on_c, 1, 77, 127
2, 19640, Note_off_c, 1, 62, 0
2, 19680, Note_on_c, 1, 60, 127
2, 19760, Note_off_c, 1, 45, 0
2, 19760, Note_off_c, 1, 60, 0
2, 19800, Note_on_c, 1, 47, 127
2, 19800, Note_on_c, 1, 62, 127
2, 20000, Note_off_c, 1, 47, 0
2, 20000, Note_off_c, 1, 62, 0
2, 20040, Note_on_c, 1, 45, 127
2, 20040, Note_on_c, 1, 60, 127
2, 20240, Note_off_c, 1, 45, 0
2, 20240, Note_off_c, 1, 60, 0
2, 20280, Note_on_c, 1, 47, 127
2, 20280, Note_on_c, 1, 55, 127
2, 20440, Note_off_c, 1, 47, 0
2, 20440, Note_off_c, 1, 77, 0
2, 20480, Note_on_c, 1, 47, 127
2, 20480, Note_on_c, 1, 79, 127
2, 20560, Note_on_c, 1, 77, 127
2, 20560, Note_off_c, 1, 79, 0
2, 20680, Note_off_c, 1, 77, 0
2, 20720, Note_on_c, 1, 79, 127
2, 20800, Note_off_c, 1, 79, 0
2, 20840, Note_on_c, 1, 81, 127
2, 20920, Note_off_c, 1, 47, 0
2, 20920, Note_off_c, 1, 81, 0
2, 20960, Note_on_c, 1, 47, 127
2, 20960, Note_on_c, 1, 79, 127
2, 21080, Note_off_c, 1, 79, 0
2, 21120, Note_on_c, 1, 77, 127
2, 21200, Note_off_c, 1, 47, 0
2, 21200, Note_off_c, 1, 77, 0
2, 21240, Note_on_c, 1, 45, 127
2, 21240, Note_on_c, 1, 76, 127
2, 21320, Note_off_c, 1, 76, 0
2, 21360, Note_on_c, 1, 74, 127
2, 21440, Note_off_c, 1, 45, 0
2, 21440, Note_off_c, 1, 74, 0
2, 21480, Note_on_c, 1, 47, 127
2, 21480, Note_on_c, 1, 74, 127
2, 21680, Note_off_c, 1, 74, 0
2, 21720, Note_on_c, 1, 76, 127
2, 21800, Note_off_c, 1, 76, 0
2, 21840, Note_on_c, 1, 74, 127
2, 21920, Note_off_c, 1, 74, 0
2, 21960, Note_on_c, 1, 72, 127
2, 22120, Note_off_c, 1, 47, 0
2, 22160, Note_on_c, 1, 45, 127
2, 22360, Note_off_c, 1, 45, 0
2, 22360, Note_off_c, 1, 72, 0
2, 22400, Note_on_c, 1, 43, 127
2, 22400, Note_on_c, 1, 74, 127
2, 22560, Note_off_c, 1, 74, 0
2, 22600, Note_on_c, 1, 72, 127
2, 22680, Note_off_c, 1, 43, 0
2, 22680, Note_off_c, 1, 72, 0
2, 22720, Note_on_c, 1, 74, 127
2, 22800, Note_off_c, 1, 74, 0
2, 22840, Note_on_c, 1, 76, 127
2, 22920, Note_off_c, 1, 55, 0
2, 22920, Note_off_c, 1, 76, 0
2, 22960, Note_on_c, 1, 65, 127
2, 22960, Note_on_c, 1, 77, 127
2, 23280, Note_off_c, 1, 65, 0
2, 23280, Note_off_c, 1, 77, 0
2, 23320, Note_on_c, 1, 64, 127
2, 23320, Note_on_c, 1, 79, 127
2, 23560, Note_off_c, 1, 79, 0
2, 23600, Note_on_c, 1, 72, 127
2, 23600, Note_on_c, 1, 79, 127
2, 23840, Note_off_c, 1, 64, 0
2, 23840, Note_off_c, 1, 72, 0
2, 23880, Note_on_c, 1, 62, 127
2, 23880, Note_on_c, 1, 71, 127
2, 23920, Note_off_c, 1, 62, 0
2, 23920, Note_off_c, 1, 71, 0
2, 23960, Note_on_c, 1, 59, 127
2, 24080, Note_off_c, 1, 79, 0
2, 24120, Note_on_c, 1, 47, 127
2, 24120, Note_on_c, 1, 77, 127
2, 24240, Note_off_c, 1, 59, 0
2, 24240, Note_off_c, 1, 77, 0
2, 24320, Note_on_c, 1, 65, 127
2, 24360, Note_off_c, 1, 65, 0
2, 24440, Note_on_c, 1, 67, 127
2, 24520, Note_off_c, 1, 47, 0
2, 24520, Note_off_c, 1, 67, 0
2, 24560, Note_on_c, 1, 43, 127
2, 24560, Note_on_c, 1, 67, 127
2, 24640, Note_off_c, 1, 67, 0
2, 24680, Note_on_c, 1, 65, 127
2, 24800, Note_off_c, 1, 65, 0
2, 24840, Note_on_c, 1, 64, 127
2, 25000, Note_off_c, 1, 64, 0
2, 25040, Note_on_c, 1, 55, 127
2, 25040, Note_on_c, 1, 65, 127
2, 25160, Note_off_c, 1, 43, 0
2, 25400, Note_off_c, 1, 65, 0
2, 25440, Note_on_c, 1, 71, 127
2, 25640, Note_off_c, 1, 71, 0
2, 25680, Note_on_c, 1, 60, 127
2, 25680, Note_on_c, 1, 64, 127
2, 25960, Note_off_c, 1, 55, 0
2, 25960, Note_off_c, 1, 60, 0
2, 25960, Note_off_c, 1, 64, 0
2, 26000, Note_on_c, 1, 59, 127
2, 26000, Note_on_c, 1, 62, 127
2, 26000, Note_on_c, 1, 74, 127
2, 26280, Note_off_c, 1, 59, 0
2, 26280, Note_off_c, 1, 62, 0
2, 26280, Note_off_c, 1, 74, 0
2, 26320, Note_on_c, 1, 57, 127
2, 26320, Note_on_c, 1, 60, 127
2, 26320, Note_on_c, 1, 64, 127
2, 26600, Note_off_c, 1, 64, 0
2, 26640, Note_on_c, 1, 64, 127
2, 26840, Note_off_c, 1, 57, 0
2, 26840, Note_off_c, 1, 60, 0
2, 26880, Note_off_c, 1, 64, 0
2, 26880, Note_on_c, 1, 65, 127
2, 26920, Note_on_c, 1, 59, 127
2, 27040, Note_off_c, 1, 59, 0
2, 27040, Note_off_c, 1, 65, 0
2, 27080, Note_on_c, 1, 55, 127
2, 27080, Note_on_c, 1, 59, 127
2, 27080, Note_on_c, 1, 64, 127
2, 27360, Note_off_c, 1, 55, 0
2, 27360, Note_off_c, 1, 59, 0
2, 27360, Note_off_c, 1, 64, 0
2, 27400, Note_on_c, 1, 57, 127
2, 27400, Note_on_c, 1, 60, 127
2, 27400, Note_on_c, 1, 65, 127
2, 27600, Note_off_c, 1, 65, 0
2, 27640, Note_on_c, 1, 67, 127
2, 27880, Note_off_c, 1, 57, 0
2, 27880, Note_off_c, 1, 67, 0
2, 27920, Note_on_c, 1, 55, 127
2, 27920, Note_on_c, 1, 65, 127
2, 28240, Note_off_c, 1, 60, 0
2, 28240, Note_off_c, 1, 65, 0
2, 28280, Note_on_c, 1, 62, 127
2, 28280, Note_on_c, 1, 65, 127
2, 28560, Note_off_c, 1, 55, 0
2, 28560, Note_off_c, 1, 62, 0
2, 28560, Note_off_c, 1, 65, 0
2, 28640, Note_on_c, 1, 59, 127
2, 28640, Note_on_c, 1, 62, 127
2, 28640, Note_on_c, 1, 67, 127
2, 28680, Note_off_c, 1, 67, 0
2, 28720, Note_on_c, 1, 66, 127
2, 28800, Note_off_c, 1, 59, 0
2, 28840, Note_on_c, 1, 54, 127
2, 28880, Note_off_c, 1, 54, 0
2, 29000, Note_on_c, 1, 50, 127
2, 29200, Note_off_c, 1, 50, 0
2, 29200, Note_off_c, 1, 62, 0
2, 29200, Note_off_c, 1, 66, 0
2, 29240, Note_on_c, 1, 48, 127
2, 29240, Note_on_c, 1, 62, 127
2, 29240, Note_on_c, 1, 64, 127
2, 29600, Note_off_c, 1, 64, 0
2, 29640, Note_on_c, 1, 64, 127
2, 29920, Note_off_c, 1, 62, 0
2, 29960, Note_on_c, 1, 52, 127
2, 29960, Note_on_c, 1, 62, 127
2, 30160, Note_off_c, 1, 62, 0
2, 30200, Note_on_c, 1, 60, 127
2, 30280, Note_off_c, 1, 60, 0
2, 30360, Note_on_c, 1, 56, 127
2, 31160, Note_on_c, 1, 36, 127
2, 31160, Note_off_c, 1, 56, 0
2, 31200, Note_off_c, 1, 36, 0
2, 31200, Note_on_c, 1, 56, 127
2, 31440, Note_off_c, 1, 52, 0
2, 31440, Note_off_c, 1, 56, 0
2, 31480, Note_on_c, 1, 52, 127
2, 31840, Note_off_c, 1, 48, 0
2, 31840, Note_off_c, 1, 52, 0
2, 31840, Note_off_c, 1, 64, 0
2, 31880, Note_on_c, 1, 45, 127
2, 31880, Note_on_c, 1, 52, 127
2, 31880, Note_on_c, 1, 64, 127
2, 32560, Note_off_c, 1, 45, 0
2, 32600, Note_on_c, 1, 45, 127
2, 33040, Note_off_c, 1, 64, 0
2, 33080, Note_on_c, 1, 64, 127
2, 34000, Note_on_c, 1, 57, 127
2, 34480, Note_off_c, 1, 64, 0
2, 34560, Note_on_c, 1, 61, 127
2, 35040, Note_off_c, 1, 61, 0
2, 35080, Note_on_c, 1, 62, 127
2, 35200, Note_off_c, 1, 62, 0
2, 35240, Note_on_c, 1, 61, 127
2, 35280, Note_off_c, 1, 61, 0
2, 35320, Note_on_c, 1, 62, 127
2, 35360, Note_off_c, 1, 62, 0
2, 35400, Note_on_c, 1, 64, 127
2, 35440, Note_off_c, 1, 64, 0
2, 35480, Note_on_c, 1, 62, 127
2, 35520, Note_off_c, 1, 62, 0
2, 35560, Note_on_c, 1, 61, 127
2, 35600, Note_off_c, 1, 61, 0
2, 35640, Note_on_c, 1, 60, 127
2, 35720, Note_off_c, 1, 60, 0
2, 35760, Note_on_c, 1, 59, 127
2, 35880, Note_off_c, 1, 59, 0
2, 35920, Note_on_c, 1, 60, 127
2, 36200, Note_off_c, 1, 45, 0
2, 36200, Note_off_c, 1, 52, 0
2, 36200, Note_off_c, 1, 57, 0
2, 36240, Note_on_c, 1, 47, 127
2, 36480, Note_off_c, 1, 47, 0
2, 36480, Note_on_c, 1, 48, 127
2, 36480, Note_on_c, 1, 64, 127
2, 36640, Note_off_c, 1, 64, 0
2, 36760, Note_off_c, 1, 60, 0
2, 36800, Note_on_c, 1, 52, 127
2, 37040, Note_on_c, 1, 62, 127
2, 37080, Note_off_c, 1, 62, 0
2, 37120, Note_on_c, 1, 64, 127
2, 37280, Note_off_c, 1, 64, 0
2, 37320, Note_on_c, 1, 62, 127
2, 37760, Note_off_c, 1, 62, 0
2, 38520, Note_off_c, 1, 48, 0
2, 38520, Note_off_c, 1, 52, 0
2, 38560, Note_on_c, 1, 53, 127
2, 38720, Note_off_c, 1, 53, 0
2, 38760, Note_on_c, 1, 62, 127
2, 38880, Note_on_c, 1, 50, 127
2, 38920, Note_off_c, 1, 50, 0
2, 39040, Note_off_c, 1, 62, 0
2, 39080, Note_on_c, 1, 60, 127
2, 39360, Note_off_c, 1, 60, 0
2, 39400, Note_on_c, 1, 57, 127
2, 39640, Note_off_c, 1, 57, 0
2, 39680, Note_on_c, 1, 57, 127
2, 39960, Note_off_c, 1, 57, 0
2, 40000, Note_on_c, 1, 59, 127
2, 40280, Note_off_c, 1, 59, 0
2, 40320, Note_on_c, 1, 61, 127
2, 40560, Note_off_c, 1, 61, 0
2, 40600, Note_on_c, 1, 60, 127
2, 41000, Note_off_c, 1, 60, 0
2, 41040, Note_on_c, 1, 52, 127
2, 41320, Note_off_c, 1, 52, 0
2, 41360, Note_on_c, 1, 53, 127
2, 41680, Note_off_c, 1, 53, 0
2, 41720, Note_on_c, 1, 53, 127
2, 41960, Note_off_c, 1, 53, 0
2, 42000, Note_on_c, 1, 52, 127
2, 42360, Note_on_c, 1, 67, 127
2, 42440, Note_off_c, 1, 52, 0
2, 42480, Note_on_c, 1, 50, 127
2, 42560, Note_off_c, 1, 50, 0
2, 42600, Note_off_c, 1, 67, 0
2, 42640, Note_on_c, 1, 60, 127
2, 42920, Note_on_c, 1, 69, 127
2, 42960, Note_off_c, 1, 60, 0
2, 42960, Note_off_c, 1, 69, 0
2, 43000, Note_on_c, 1, 47, 127
2, 43000, Note_on_c, 1, 67, 127
2, 43200, Note_off_c, 1, 67, 0
2, 43240, Note_on_c, 1, 65, 127
2, 43400, Note_off_c, 1, 65, 0
2, 43440, Note_on_c, 1, 67, 127
2, 43600, Note_off_c, 1, 47, 0
2, 43600, Note_off_c, 1, 67, 0
2, 43640, Note_on_c, 1, 50, 127
2, 43640, Note_on_c, 1, 71, 127
2, 43840, Note_off_c, 1, 71, 0
2, 43880, Note_on_c, 1, 69, 127
2, 44120, Note_off_c, 1, 50, 0
2, 44120, Note_off_c, 1, 69, 0
2, 44160, Note_on_c, 1, 42, 127
2, 44160, Note_on_c, 1, 74, 127
2, 44480, Note_off_c, 1, 42, 0
2, 44560, Note_on_c, 1, 47, 127
2, 44880, Note_off_c, 1, 74, 0
2, 44920, Note_off_c, 1, 47, 0
2, 44960, Note_on_c, 1, 45, 127
2, 44960, Note_on_c, 1, 73, 127
2, 45120, Note_off_c, 1, 73, 0
2, 45160, Note_on_c, 1, 69, 127
2, 45360, Note_off_c, 1, 45, 0
2, 45360, Note_off_c, 1, 69, 0
2, 45400, Note_on_c, 1, 52, 127
2, 45400, Note_on_c, 1, 68, 127
2, 45720, Note_off_c, 1, 52, 0
2, 45720, Note_off_c, 1, 68, 0
2, 45760, Note_on_c, 1, 50, 127
2, 45760, Note_on_c, 1, 71, 127
2, 46120, Note_off_c, 1, 50, 0
2, 46120, Note_off_c, 1, 71, 0
2, 46160, Note_on_c, 1, 52, 127
2, 46160, Note_on_c, 1, 73, 127
2, 46280, Note_off_c, 1, 73, 0
2, 46320, Note_on_c, 1, 74, 127
2, 46440, Note_off_c, 1, 52, 0
2, 46440, Note_off_c, 1, 74, 0
2, 46480, Note_on_c, 1, 55, 127
2, 46480, Note_on_c, 1, 75, 127
2, 46680, Note_on_c, 1, 73, 127
2, 46680, Note_off_c, 1, 75, 0
2, 46760, Note_off_c, 1, 73, 0
2, 46760, Note_on_c, 1, 74, 127
2, 46800, Note_off_c, 1, 74, 0
2, 46840, Note_off_c, 1, 55, 0
2, 46880, Note_on_c, 1, 52, 127
2, 46880, Note_on_c, 1, 76, 127
2, 47000, Note_off_c, 1, 76, 0
2, 47040, Note_on_c, 1, 76, 127
2, 47160, Note_off_c, 1, 76, 0
2, 47200, Note_on_c, 1, 67, 127
2, 47280, Note_off_c, 1, 67, 0
2, 47320, Note_on_c, 1, 68, 127
2, 47400, Note_off_c, 1, 52, 0
2, 47400, Note_off_c, 1, 68, 0
2, 47480, Note_on_c, 1, 50, 127
2, 47480, Note_on_c, 1, 71, 127
2, 47720, Note_off_c, 1, 50, 0
2, 47720, Note_off_c, 1, 71, 0
2, 47760, Note_on_c, 1, 47, 127
2, 47760, Note_on_c, 1, 69, 127
2, 47920, Note_off_c, 1, 69, 0
2, 47960, Note_on_c, 1, 66, 127
2, 48080, Note_off_c, 1, 47, 0
2, 48080, Note_off_c, 1, 66, 0
2, 48120, Note_on_c, 1, 52, 127
2, 48120, Note_on_c, 1, 68, 127
2, 48400, Note_off_c, 1, 52, 0
2, 48400, Note_off_c, 1, 68, 0
2, 48440, Note_on_c, 1, 46, 127
2, 48440, Note_on_c, 1, 78, 127
2, 48680, Note_off_c, 1, 78, 0
2, 48720, Note_on_c, 1, 79, 127
2, 49000, Note_off_c, 1, 46, 0
2, 49000, Note_off_c, 1, 79, 0
2, 49040, Note_on_c, 1, 44, 127
2, 49040, Note_on_c, 1, 78, 127
2, 49400, Note_off_c, 1, 44, 0
2, 49400, Note_off_c, 1, 78, 0
2, 49440, Note_on_c, 1, 49, 127
2, 49440, Note_on_c, 1, 76, 127
2, 49760, Note_off_c, 1, 49, 0
2, 49760, Note_off_c, 1, 76, 0
2, 49800, Note_on_c, 1, 57, 127
2, 49800, Note_on_c, 1, 72, 127
2, 50040, Note_off_c, 1, 72, 0
2, 50080, Note_on_c, 1, 74, 127
2, 50320, Note_off_c, 1, 57, 0
2, 50320, Note_off_c, 1, 74, 0
2, 50360, Note_on_c, 1, 55, 127
2, 50360, Note_on_c, 1, 71, 127
2, 50560, Note_off_c, 1, 71, 0
2, 50600, Note_on_c, 1, 76, 127
2, 50840, Note_off_c, 1, 55, 0
2, 50840, Note_off_c, 1, 76, 0
2, 50920, Note_on_c, 1, 45, 127
2, 50920, Note_on_c, 1, 72, 127
2, 51080, Note_off_c, 1, 72, 0
2, 51120, Note_on_c, 1, 71, 127
2, 51320, Note_off_c, 1, 45, 0
2, 51320, Note_off_c, 1, 71, 0
2, 51400, Note_on_c, 1, 45, 127
2, 51400, Note_on_c, 1, 72, 127
2, 51440, Note_off_c, 1, 72, 0
2, 51480, Note_on_c, 1, 69, 127
2, 51600, Note_off_c, 1, 45, 0
2, 51600, Note_off_c, 1, 69, 0
2, 51640, Note_on_c, 1, 43, 127
2, 51640, Note_on_c, 1, 67, 127
2, 51880, Note_off_c, 1, 43, 0
2, 51880, Note_off_c, 1, 67, 0
2, 51920, Note_on_c, 1, 42, 127
2, 51920, Note_on_c, 1, 69, 127
2, 52120, Note_off_c, 1, 69, 0
2, 52160, Note_on_c, 1, 72, 127
2, 52440, Note_off_c, 1, 42, 0
2, 52440, Note_off_c, 1, 72, 0
2, 52480, Note_on_c, 1, 40, 127
2, 52480, Note_on_c, 1, 71, 127
2, 52640, Note_off_c, 1, 71, 0
2, 52680, Note_on_c, 1, 69, 127
2, 52800, Note_off_c, 1, 40, 0
2, 52800, Note_off_c, 1, 69, 0
2, 52840, Note_on_c, 1, 48, 127
2, 52840, Note_on_c, 1, 69, 127
2, 53000, Note_off_c, 1, 48, 0
2, 53040, Note_on_c, 1, 47, 127
2, 53280, Note_off_c, 1, 47, 0
2, 53280, Note_off_c, 1, 69, 0
2, 53320, Note_on_c, 1, 48, 127
2, 53320, Note_on_c, 1, 76, 127
2, 53520, Note_off_c, 1, 48, 0
2, 53560, Note_on_c, 1, 47, 127
2, 53760, Note_off_c, 1, 47, 0
2, 53760, Note_off_c, 1, 76, 0
2, 53800, Note_on_c, 1, 54, 127
2, 53800, Note_on_c, 1, 71, 127
2, 53800, Note_on_c, 1, 79, 127
2, 54000, Note_off_c, 1, 54, 0
2, 54040, Note_on_c, 1, 52, 127
2, 54240, Note_off_c, 1, 52, 0
2, 54240, Note_off_c, 1, 79, 0
2, 54280, Note_on_c, 1, 45, 127
2, 54280, Note_on_c, 1, 79, 127
2, 54440, Note_off_c, 1, 45, 0
2, 54480, Note_on_c, 1, 43, 127
2, 54720, Note_off_c, 1, 43, 0
2, 54720, Note_off_c, 1, 71, 0
2, 54720, Note_off_c, 1, 79, 0
2, 54760, Note_on_c, 1, 49, 127
2, 54760, Note_on_c, 1, 73, 127
2, 54760, Note_on_c, 1, 81, 127
2, 55040, Note_off_c, 1, 49, 0
2, 55120, Note_off_c, 1, 73, 0
2, 55120, Note_on_c, 1, 78, 127
2, 55120, Note_off_c, 1, 81, 0
2, 55160, Note_on_c, 1, 49, 127
2, 55160, Note_on_c, 1, 74, 127
2, 55440, Note_off_c, 1, 49, 0
2, 55440, Note_off_c, 1, 74, 0
2, 55440, Note_off_c, 1, 78, 0
2, 55480, Note_on_c, 1, 57, 127
2, 55480, Note_on_c, 1, 66, 127
2, 55480, Note_on_c, 1, 76, 127
2, 55880, Note_off_c, 1, 57, 0
2, 55880, Note_off_c, 1, 66, 0
2, 55920, Note_on_c, 1, 52, 127
2, 55920, Note_on_c, 1, 61, 127
2, 56200, Note_off_c, 1, 61, 0
2, 56240, Note_off_c, 1, 76, 0
2, 56240, Note_on_c, 1, 78, 127
2, 56280, Note_on_c, 1, 66, 127
2, 56280, Note_on_c, 1, 74, 127
2, 56280, Note_off_c, 1, 78, 0
2, 56520, Note_off_c, 1, 52, 0
2, 56520, Note_off_c, 1, 66, 0
2, 56520, Note_on_c, 1, 73, 127
2, 56520, Note_off_c, 1, 74, 0
2, 56560, Note_on_c, 1, 57, 127
2, 56560, Note_on_c, 1, 66, 127
2, 56920, Note_off_c, 1, 57, 0
2, 56920, Note_off_c, 1, 66, 0
2, 56960, Note_on_c, 1, 55, 127
2, 56960, Note_on_c, 1, 64, 127
2, 57200, Note_off_c, 1, 55, 0
2, 57240, Note_on_c, 1, 54, 127
2, 57400, Note_off_c, 1, 54, 0
2, 57400, Note_off_c, 1, 73, 0
2, 57440, Note_on_c, 1, 55, 127
2, 57440, Note_on_c, 1, 71, 127
2, 57680, Note_off_c, 1, 55, 0
2, 57680, Note_off_c, 1, 64, 0
2, 57680, Note_off_c, 1, 71, 0
2, 57760, Note_on_c, 1, 52, 127
2, 57760, Note_on_c, 1, 67, 127
2, 57760, Note_on_c, 1, 71, 127
2, 58000, Note_off_c, 1, 52, 0
2, 58000, Note_off_c, 1, 67, 0
2, 58000, Note_off_c, 1, 71, 0
2, 58040, Note_on_c, 1, 55, 127
2, 58040, Note_on_c, 1, 67, 127
2, 58040, Note_on_c, 1, 71, 127
2, 58240, Note_off_c, 1, 55, 0
2, 58280, Note_on_c, 1, 57, 127
2, 58520, Note_off_c, 1, 57, 0
2, 58520, Note_off_c, 1, 67, 0
2, 58520, Note_off_c, 1, 71, 0
2, 58560, Note_on_c, 1, 47, 127
2, 58560, Note_on_c, 1, 66, 127
2, 58560, Note_on_c, 1, 71, 127
2, 58880, Note_off_c, 1, 47, 0
2, 58920, Note_on_c, 1, 48, 127
2, 59240, Note_off_c, 1, 48, 0
2, 59240, Note_off_c, 1, 71, 0
2, 59280, Note_on_c, 1, 42, 127
2, 59280, Note_on_c, 1, 69, 127
2, 59600, Note_off_c, 1, 42, 0
2, 59600, Note_off_c, 1, 66, 0
2, 59600, Note_off_c, 1, 69, 0
2, 59640, Note_on_c, 1, 44, 127
2, 59640, Note_on_c, 1, 68, 127
2, 59640, Note_on_c, 1, 71, 127
2, 59880, Note_off_c, 1, 44, 0
2, 59880, Note_off_c, 1, 68, 0
2, 59920, Note_on_c, 1, 54, 127
2, 59920, Note_on_c, 1, 69, 127
2, 59960, End_track
3, 0, Start_track
3, 0, Title_t, "MIDI"
3, 1536, End_track
0, 0, End_of_file
