0, 0, Header, 1, 3, 384
1, 0, Start_track
1, 0, Time_signature, 4, 2, 24, 8
1, 0, Tempo, 500000
1, 58040, End_track
2, 0, Start_track
2, 0, Text_t, "harpsichord: John Sankey"
2, 0, Title_t, "Track 1"
2, 0, Note_on_c, 1, 38, 127
2, 0, Note_on_c, 1, 57, 127
2, 0, Note_on_c, 1, 65, 127
2, 160, Note_off_c, 1, 38, 0
2, 160, Note_off_c, 1, 57, 0
2, 160, Note_on_c, 1, 59, 127
2, 160, Note_off_c, 1, 65, 0
2, 200, Note_on_c, 1, 55, 127
2, 200, Note_on_c, 1, 58, 127
2, 200, Note_off_c, 1, 59, 0
2, 200, Note_on_c, 1, 63, 127
2, 360, Note_off_c, 1, 55, 0
2, 360, Note_off_c, 1, 58, 0
2, 360, Note_off_c, 1, 63, 0
2, 400, Note_on_c, 1, 48, 127
2, 400, Note_on_c, 1, 60, 127
2, 480, Note_on_c, 1, 55, 127
2, 480, Note_off_c, 1, 60, 0
2, 480, Note_on_c, 1, 64, 127
2, 680, Note_off_c, 1, 48, 0
2, 720, Note_on_c, 1, 45, 127
2, 800, Note_off_c, 1, 45, 0
2, 800, Note_on_c, 1, 47, 127
2, 880, Note_off_c, 1, 64, 0
2, 920, Note_on_c, 1, 67, 127
2, 1080, Note_off_c, 1, 47, 0
2, 1080, Note_off_c, 1, 55, 0
2, 1080, Note_off_c, 1, 67, 0
2, 1120, Note_on_c, 1, 48, 127
2, 1120, Note_on_c, 1, 58, 127
2, 1120, Note_on_c, 1, 64, 127
2, 1360, Note_off_c, 1, 58, 0
2, 1400, Note_on_c, 1, 52, 127
2, 1560, Note_off_c, 1, 64, 0
2, 1600, Note_on_c, 1, 67, 127
2, 1800, Note_off_c, 1, 48, 0
2, 1800, Note_off_c, 1, 52, 0
2, 1800, Note_off_c, 1, 67, 0
2, 1840, Note_on_c, 1, 64, 127
2, 2040, Note_off_c, 1, 64, 0
2, 2080, Note_on_c, 1, 60, 127
2, 2360, Note_off_c, 1, 60, 0
2, 2400, Note_on_c, 1, 43, 127
2, 2400, Note_on_c, 1, 59, 127
2, 2600, Note_off_c, 1, 43, 0
2, 2600, Note_off_c, 1, 59, 0
2, 2680, Note_on_c, 1, 48, 127
2, 2920, Note_on_c, 1, 52, 127
2, 2920, Note_on_c, 1, 60, 127
2, 3200, Note_on_c, 1, 55, 127
2, 3720, Note_on_c, 1, 64, 127
2, 3800, Note_off_c, 1, 64, 0
2, 3840, Note_on_c, 1, 64, 127
2, 4400, Note_off_c, 1, 48, 0
2, 4400, Note_off_c, 1, 52, 0
2, 4400, Note_off_c, 1, 55, 0
2, 4400, Note_off_c, 1, 60, 0
2, 4400, Note_off_c, 1, 64, 0
2, 4480, Note_on_c, 1, 50, 127
2, 4480, Note_on_c, 1, 65, 127
2, 4800, Note_off_c, 1, 65, 0
2, 4880, Note_on_c, 1, 60, 127
2, 5080, Note_off_c, 1, 50, 0
2, 5120, Note_on_c, 1, 55, 127
2, 5240, Note_off_c, 1, 60, 0
2, 5320, Note_on_c, 1, 60, 127
2, 5440, Note_off_c, 1, 55, 0
2, 5480, Note_on_c, 1, 53, 127
2, 5600, Note_off_c, 1, 60, 0
2, 5600, Note_on_c, 1, 65, 127
2, 5640, Note_off_c, 1, 65, 0
2, 5680, Note_on_c, 1, 64, 127
2, 5800, Note_off_c, 1, 64, 0
2, 5840, Note_on_c, 1, 65, 127
2, 6040, Note_on_c, 1, 48, 127
2, 6400, Note_off_c, 1, 48, 0
2, 6400, Note_off_c, 1, 53, 0
2, 6400, Note_off_c, 1, 65, 0
2, 6440, Note_on_c, 1, 53, 127
2, 6440, Note_on_c, 1, 62, 127
2, 6480, Note_off_c, 1, 53, 0
2, 6520, Note_on_c, 1, 53, 127
2, 6640, Note_off_c, 1, 53, 0
2, 6680, Note_on_c, 1, 53, 127
2, 7480, Note_off_c, 1, 53, 0
2, 7480, Note_off_c, 1, 62, 0
2, 7520, Note_on_c, 1, 65, 127
2, 7800, Note_on_c, 1, 81, 127
2, 8000, Note_off_c, 1, 65, 0
2, 8040, Note_on_c, 1, 69, 127
2, 8120, Note_off_c, 1, 69, 0
2, 8160, Note_on_c, 1, 67, 127
2, 8320, Note_off_c, 1, 67, 0
2, 8360, Note_on_c, 1, 65, 127
2, 8520, Note_off_c, 1, 65, 0
2, 8560, Note_on_c, 1, 60, 127
2, 8720, Note_off_c, 1, 81, 0
2, 9000, Note_off_c, 1, 60, 0
2, 9040, Note_on_c, 1, 65, 127
2, 9040, Note_on_c, 1, 69, 127
2, 9400, Note_on_c, 1, 53, 127
2, 9480, Note_off_c, 1, 53, 0
2, 9480, Note_off_c, 1, 65, 0
2, 9520, Note_on_c, 1, 50, 127
2, 9520, Note_on_c, 1, 65, 127
2, 9640, Note_off_c, 1, 65, 0
2, 9680, Note_on_c, 1, 64, 127
2, 9800, Note_off_c, 1, 50, 0
2, 9800, Note_off_c, 1, 64, 0
2, 9800, Note_off_c, 1, 69, 0
2, 9840, Note_on_c, 1, 60, 127
2, 10080, Note_on_c, 1, 63, 127
2, 10400, Note_off_c, 1, 63, 0
2, 10440, Note_on_c, 1, 62, 127
2, 10720, Note_on_c, 1, 58, 127
2, 10760, Note_off_c, 1, 58, 0
2, 10760, Note_off_c, 1, 60, 0
2, 10760, Note_off_c, 1, 62, 0
2, 10800, Note_on_c, 1, 65, 127
2, 11080, Note_off_c, 1, 65, 0
2, 11120, Note_on_c, 1, 64, 127
2, 11560, Note_off_c, 1, 64, 0
2, 11600, Note_on_c, 1, 69, 127
2, 11880, Note_off_c, 1, 69, 0
2, 11920, Note_on_c, 1, 69, 127
2, 12320, Note_off_c, 1, 69, 0
2, 12360, Note_on_c, 1, 62, 127
2, 12560, Note_off_c, 1, 62, 0
2, 12600, Note_on_c, 1, 52, 127
2, 12600, Note_on_c, 1, 76, 127
2, 12760, Note_off_c, 1, 76, 0
2, 12800, Note_on_c, 1, 74, 127
2, 12960, Note_off_c, 1, 74, 0
2, 13000, Note_on_c, 1, 71, 127
2, 13240, Note_off_c, 1, 52, 0
2, 13240, Note_off_c, 1, 71, 0
2, 13280, Note_on_c, 1, 59, 127
2, 13280, Note_on_c, 1, 74, 127
2, 13360, Note_off_c, 1, 74, 0
2, 13400, Note_on_c, 1, 76, 127
2, 13480, Note_off_c, 1, 76, 0
2, 13520, Note_on_c, 1, 77, 127
2, 13640, Note_off_c, 1, 59, 0
2, 13680, Note_on_c, 1, 59, 127
2, 13840, Note_off_c, 1, 77, 0
2, 13880, Note_on_c, 1, 68, 127
2, 13880, Note_on_c, 1, 77, 127
2, 13920, Note_off_c, 1, 77, 0
2, 13960, Note_on_c, 1, 76, 127
2, 14000, Note_off_c, 1, 76, 0
2, 14040, Note_on_c, 1, 77, 127
2, 14160, Note_off_c, 1, 68, 0
2, 14160, Note_off_c, 1, 77, 0
2, 14200, Note_on_c, 1, 65, 127
2, 14200, Note_on_c, 1, 76, 127
2, 14440, Note_off_c, 1, 76, 0
2, 14480, Note_on_c, 1, 71, 127
2, 14640, Note_off_c, 1, 59, 0
2, 14680, Note_on_c, 1, 59, 127
2, 14840, Note_off_c, 1, 71, 0
2, 14880, Note_on_c, 1, 74, 127
2, 15040, Note_off_c, 1, 59, 0
2, 15040, Note_off_c, 1, 65, 0
2, 15080, Note_on_c, 1, 57, 127
2, 15080, Note_on_c, 1, 64, 127
2, 15200, Note_off_c, 1, 64, 0
2, 15240, Note_on_c, 1, 71, 127
2, 15360, Note_off_c, 1, 57, 0
2, 15360, Note_off_c, 1, 71, 0
2, 15400, Note_on_c, 1, 58, 127
2, 15400, Note_on_c, 1, 66, 127
2, 15520, Note_off_c, 1, 66, 0
2, 15560, Note_off_c, 1, 58, 0
2, 15560, Note_off_c, 1, 74, 0
2, 15600, Note_on_c, 1, 59, 127
2, 15600, Note_on_c, 1, 67, 127
2, 15760, Note_on_c, 1, 74, 127
2, 15880, Note_off_c, 1, 59, 0
2, 15880, Note_off_c, 1, 74, 0
2, 15920, Note_on_c, 1, 59, 127
2, 15920, Note_on_c, 1, 79, 127
2, 16000, Note_off_c, 1, 79, 0
2, 16080, Note_on_c, 1, 76, 127
2, 16200, Note_off_c, 1, 76, 0
2, 16240, Note_on_c, 1, 74, 127
2, 16360, Note_off_c, 1, 74, 0
2, 16400, Note_on_c, 1, 73, 127
2, 16520, Note_off_c, 1, 59, 0
2, 16520, Note_off_c, 1, 67, 0
2, 16520, Note_off_c, 1, 73, 0
2, 16560, Note_on_c, 1, 55, 127
2, 16560, Note_on_c, 1, 67, 127
2, 16560, Note_on_c, 1, 76, 127
2, 16840, Note_off_c, 1, 55, 0
2, 16840, Note_off_c, 1, 67, 0
2, 16880, Note_on_c, 1, 57, 127
2, 16880, Note_on_c, 1, 66, 127
2, 17000, Note_off_c, 1, 76, 0
2, 17040, Note_on_c, 1, 76, 127
2, 17160, Note_off_c, 1, 76, 0
2, 17200, Note_on_c, 1, 71, 127
2, 17320, Note_off_c, 1, 57, 0
2, 17360, Note_on_c, 1, 59, 127
2, 17640, Note_off_c, 1, 59, 0
2, 17680, Note_on_c, 1, 57, 127
2, 17840, Note_off_c, 1, 57, 0
2, 17880, Note_on_c, 1, 59, 127
2, 18000, Note_off_c, 1, 59, 0
2, 18000, Note_off_c, 1, 66, 0
2, 18000, Note_off_c, 1, 71, 0
2, 18080, Note_on_c, 1, 59, 127
2, 18080, Note_on_c, 1, 67, 127
2, 18080, Note_on_c, 1, 73, 127
2, 18240, Note_off_c, 1, 59, 0
2, 18240, Note_off_c, 1, 67, 0
2, 18240, Note_off_c, 1, 73, 0
2, 18280, Note_on_c, 1, 54, 127
2, 18280, Note_on_c, 1, 66, 127
2, 18280, Note_on_c, 1, 73, 127
2, 18440, Note_off_c, 1, 54, 0
2, 18440, Note_off_c, 1, 73, 0
2, 18480, Note_on_c, 1, 56, 127
2, 18480, Note_on_c, 1, 71, 127
2, 18600, Note_off_c, 1, 71, 0
2, 18640, Note_on_c, 1, 72, 127
2, 18760, Note_off_c, 1, 56, 0
2, 18760, Note_off_c, 1, 72, 0
2, 18800, Note_on_c, 1, 49, 127
2, 18800, Note_on_c, 1, 71, 127
2, 18960, Note_off_c, 1, 49, 0
2, 19000, Note_on_c, 1, 47, 127
2, 19040, Note_off_c, 1, 71, 0
2, 19040, Note_on_c, 1, 73, 127
2, 19080, Note_off_c, 1, 47, 0
2, 19080, Note_off_c, 1, 73, 0
2, 19120, Note_on_c, 1, 49, 127
2, 19120, Note_on_c, 1, 71, 127
2, 19240, Note_off_c, 1, 49, 0
2, 19280, Note_on_c, 1, 46, 127
2, 19440, Note_off_c, 1, 46, 0
2, 19440, Note_off_c, 1, 66, 0
2, 19480, Note_on_c, 1, 47, 127
2, 19480, Note_on_c, 1, 65, 127
2, 19600, Note_off_c, 1, 71, 0
2, 19640, Note_off_c, 1, 65, 0
2, 19640, Note_on_c, 1, 68, 127
2, 19640, Note_on_c, 1, 72, 127
2, 19800, Note_off_c, 1, 47, 0
2, 19800, Note_off_c, 1, 68, 0
2, 19800, Note_off_c, 1, 72, 0
2, 19840, Note_on_c, 1, 47, 127
2, 19840, Note_on_c, 1, 66, 127
2, 20040, Note_on_c, 1, 68, 127
2, 20200, Note_off_c, 1, 47, 0
2, 20200, Note_off_c, 1, 66, 0
2, 20240, Note_on_c, 1, 44, 127
2, 20240, Note_on_c, 1, 64, 127
2, 20400, Note_off_c, 1, 44, 0
2, 20400, Note_off_c, 1, 68, 0
2, 20440, Note_on_c, 1, 40, 127
2, 20440, Note_on_c, 1, 70, 127
2, 20560, Note_off_c, 1, 40, 0
2, 20560, Note_off_c, 1, 64, 0
2, 20560, Note_off_c, 1, 70, 0
2, 20600, Note_on_c, 1, 44, 127
2, 20600, Note_on_c, 1, 64, 127
2, 20600, Note_on_c, 1, 71, 127
2, 20680, Note_off_c, 1, 44, 0
2, 20720, Note_off_c, 1, 71, 0
2, 20760, Note_on_c, 1, 42, 127
2, 20760, Note_on_c, 1, 73, 127
2, 20880, Note_off_c, 1, 42, 0
2, 20920, Note_on_c, 1, 43, 127
2, 21080, Note_off_c, 1, 43, 0
2, 21080, Note_off_c, 1, 73, 0
2, 21120, Note_on_c, 1, 40, 127
2, 21120, Note_on_c, 1, 71, 127
2, 21280, Note_off_c, 1, 40, 0
2, 21280, Note_off_c, 1, 71, 0
2, 21320, Note_on_c, 1, 39, 127
2, 21320, Note_on_c, 1, 71, 127
2, 21440, Note_off_c, 1, 39, 0
2, 21480, Note_on_c, 1, 40, 127
2, 21560, Note_off_c, 1, 40, 0
2, 21600, Note_on_c, 1, 42, 127
2, 21680, Note_off_c, 1, 42, 0
2, 21680, Note_off_c, 1, 64, 0
2, 21720, Note_on_c, 1, 47, 127
2, 21720, Note_on_c, 1, 62, 127
2, 21840, Note_off_c, 1, 47, 0
2, 21840, Note_off_c, 1, 62, 0
2, 21880, Note_on_c, 1, 52, 127
2, 21880, Note_on_c, 1, 63, 127
2, 21960, Note_off_c, 1, 63, 0
2, 21960, Note_on_c, 1, 64, 127
2, 22000, Note_off_c, 1, 52, 0
2, 22000, Note_off_c, 1, 64, 0
2, 22040, Note_on_c, 1, 49, 127
2, 22040, Note_on_c, 1, 65, 127
2, 22200, Note_off_c, 1, 49, 0
2, 22200, Note_off_c, 1, 65, 0
2, 22240, Note_on_c, 1, 52, 127
2, 22240, Note_on_c, 1, 66, 127
2, 22360, Note_off_c, 1, 52, 0
2, 22360, Note_off_c, 1, 66, 0
2, 22400, Note_on_c, 1, 51, 127
2, 22400, Note_on_c, 1, 64, 127
2, 22560, Note_off_c, 1, 51, 0
2, 22600, Note_on_c, 1, 52, 127
2, 22720, Note_off_c, 1, 52, 0
2, 22720, Note_off_c, 1, 71, 0
2, 22760, Note_on_c, 1, 54, 127
2, 22760, Note_on_c, 1, 69, 127
2, 22880, Note_off_c, 1, 69, 0
2, 22920, Note_on_c, 1, 68, 127
2, 23040, Note_off_c, 1, 54, 0
2, 23040, Note_off_c, 1, 68, 0
2, 23080, Note_on_c, 1, 55, 127
2, 23080, Note_on_c, 1, 63, 127
2, 23080, Note_off_c, 1, 64, 0
2, 23080, Note_on_c, 1, 71, 127
2, 23200, Note_off_c, 1, 63, 0
2, 23280, Note_on_c, 1, 66, 127
2, 23400, Note_off_c, 1, 66, 0
2, 23440, Note_on_c, 1, 63, 127
2, 23520, Note_off_c, 1, 55, 0
2, 23560, Note_on_c, 1, 55, 127
2, 23680, Note_off_c, 1, 55, 0
2, 23680, Note_off_c, 1, 71, 0
2, 23720, Note_on_c, 1, 56, 127
2, 23880, Note_on_c, 1, 72, 127
2, 24000, Note_off_c, 1, 72, 0
2, 24040, Note_on_c, 1, 73, 127
2, 24160, Note_off_c, 1, 73, 0
2, 24200, Note_on_c, 1, 71, 127
2, 24360, Note_off_c, 1, 56, 0
2, 24360, Note_off_c, 1, 63, 0
2, 24400, Note_on_c, 1, 59, 127
2, 24400, Note_on_c, 1, 68, 127
2, 24520, Note_off_c, 1, 68, 0
2, 24520, Note_off_c, 1, 71, 0
2, 24560, Note_on_c, 1, 66, 127
2, 24560, Note_on_c, 1, 75, 127
2, 24680, Note_off_c, 1, 59, 0
2, 24680, Note_off_c, 1, 66, 0
2, 24680, Note_off_c, 1, 75, 0
2, 24720, Note_on_c, 1, 57, 127
2, 24720, Note_on_c, 1, 71, 127
2, 24720, Note_on_c, 1, 74, 127
2, 24880, Note_off_c, 1, 74, 0
2, 24920, Note_on_c, 1, 73, 127
2, 25040, Note_off_c, 1, 57, 0
2, 25040, Note_off_c, 1, 71, 0
2, 25040, Note_on_c, 1, 72, 127
2, 25040, Note_off_c, 1, 73, 0
2, 25080, Note_on_c, 1, 48, 127
2, 25080, Note_on_c, 1, 67, 127
2, 25160, Note_off_c, 1, 72, 0
2, 25200, Note_off_c, 1, 48, 0
2, 25200, Note_on_c, 1, 52, 127
2, 25200, Note_off_c, 1, 67, 0
2, 25240, Note_off_c, 1, 52, 0
2, 25280, Note_on_c, 1, 52, 127
2, 25280, Note_on_c, 1, 56, 127
2, 25280, Note_on_c, 1, 73, 127
2, 25360, Note_off_c, 1, 52, 0
2, 25360, Note_off_c, 1, 56, 0
2, 25360, Note_off_c, 1, 73, 0
2, 25400, Note_on_c, 1, 52, 127
2, 25400, Note_on_c, 1, 56, 127
2, 25400, Note_on_c, 1, 74, 127
2, 25520, Note_off_c, 1, 74, 0
2, 25560, Note_on_c, 1, 76, 127
2, 25680, Note_off_c, 1, 52, 0
2, 25680, Note_off_c, 1, 56, 0
2, 25680, Note_off_c, 1, 76, 0
2, 25720, Note_on_c, 1, 47, 127
2, 25720, Note_on_c, 1, 54, 127
2, 25720, Note_on_c, 1, 75, 127
2, 25840, Note_off_c, 1, 75, 0
2, 25880, Note_on_c, 1, 74, 127
2, 26000, Note_off_c, 1, 54, 0
2, 26000, Note_off_c, 1, 74, 0
2, 26040, Note_on_c, 1, 53, 127
2, 26040, Note_on_c, 1, 68, 127
2, 26160, Note_off_c, 1, 53, 0
2, 26200, Note_on_c, 1, 54, 127
2, 26200, Note_on_c, 1, 72, 127
2, 26280, Note_on_c, 1, 71, 127
2, 26280, Note_off_c, 1, 72, 0
2, 26320, Note_off_c, 1, 54, 0
2, 26320, Note_off_c, 1, 68, 0
2, 26320, Note_off_c, 1, 71, 0
2, 26360, Note_on_c, 1, 68, 127
2, 26360, Note_on_c, 1, 71, 127
2, 26600, Note_off_c, 1, 68, 0
2, 26600, Note_off_c, 1, 71, 0
2, 26640, Note_on_c, 1, 56, 127
2, 26640, Note_on_c, 1, 72, 127
2, 26760, Note_off_c, 1, 72, 0
2, 26800, Note_on_c, 1, 70, 127
2, 26920, Note_off_c, 1, 47, 0
2, 26920, Note_off_c, 1, 56, 0
2, 26920, Note_off_c, 1, 70, 0
2, 26960, Note_on_c, 1, 45, 127
2, 26960, Note_on_c, 1, 51, 127
2, 26960, Note_on_c, 1, 69, 127
2, 27080, Note_off_c, 1, 51, 0
2, 27080, Note_on_c, 1, 52, 127
2, 27240, Note_off_c, 1, 52, 0
2, 27240, Note_off_c, 1, 69, 0
2, 27280, Note_on_c, 1, 42, 127
2, 27280, Note_off_c, 1, 45, 0
2, 27280, Note_on_c, 1, 49, 127
2, 27280, Note_on_c, 1, 68, 127
2, 27280, Note_on_c, 1, 71, 127
2, 27400, Note_off_c, 1, 49, 0
2, 27400, Note_off_c, 1, 71, 0
2, 27440, Note_on_c, 1, 52, 127
2, 27440, Note_off_c, 1, 68, 0
2, 27440, Note_on_c, 1, 69, 127
2, 27440, Note_on_c, 1, 73, 127
2, 27600, Note_off_c, 1, 52, 0
2, 27600, Note_off_c, 1, 69, 0
2, 27600, Note_off_c, 1, 73, 0
2, 27640, Note_on_c, 1, 50, 127
2, 27640, Note_on_c, 1, 68, 127
2, 27640, Note_on_c, 1, 74, 127
2, 27760, Note_off_c, 1, 42, 0
2, 27760, Note_on_c, 1, 47, 127
2, 27760, Note_off_c, 1, 50, 0
2, 27800, Note_on_c, 1, 42, 127
2, 27800, Note_off_c, 1, 47, 0
2, 27800, Note_on_c, 1, 51, 127
2, 27920, Note_off_c, 1, 42, 0
2, 27920, Note_off_c, 1, 51, 0
2, 27920, Note_off_c, 1, 74, 0
2, 27960, Note_on_c, 1, 37, 127
2, 27960, Note_on_c, 1, 53, 127
2, 27960, Note_on_c, 1, 76, 127
2, 28080, Note_off_c, 1, 53, 0
2, 28080, Note_off_c, 1, 76, 0
2, 28120, Note_off_c, 1, 37, 0
2, 28120, Note_on_c, 1, 40, 127
2, 28120, Note_on_c, 1, 56, 127
2, 28120, Note_on_c, 1, 71, 127
2, 28240, Note_off_c, 1, 56, 0
2, 28240, Note_off_c, 1, 71, 0
2, 28280, Note_on_c, 1, 71, 127
2, 28400, Note_off_c, 1, 40, 0
2, 28440, Note_on_c, 1, 37, 127
2, 28560, Note_off_c, 1, 37, 0
2, 28560, Note_off_c, 1, 68, 0
2, 28560, Note_off_c, 1, 71, 0
2, 28600, Note_on_c, 1, 41, 127
2, 28600, Note_on_c, 1, 69, 127
2, 28600, Note_on_c, 1, 73, 127
2, 28760, Note_off_c, 1, 41, 0
2, 28800, Note_on_c, 1, 42, 127
2, 28960, Note_off_c, 1, 69, 0
2, 29000, Note_on_c, 1, 68, 127
2, 29120, Note_off_c, 1, 68, 0
2, 29160, Note_on_c, 1, 66, 127
2, 29280, Note_off_c, 1, 66, 0
2, 29360, Note_on_c, 1, 64, 127
2, 29480, Note_off_c, 1, 64, 0
2, 29520, Note_on_c, 1, 54, 127
2, 29520, Note_on_c, 1, 63, 127
2, 29640, Note_off_c, 1, 73, 0
2, 29680, Note_on_c, 1, 70, 127
2, 29800, Note_off_c, 1, 54, 0
2, 29800, Note_off_c, 1, 63, 0
2, 29840, Note_on_c, 1, 54, 127
2, 29840, Note_on_c, 1, 63, 127
2, 29960, Note_off_c, 1, 63, 0
2, 30000, Note_on_c, 1, 61, 127
2, 30120, Note_off_c, 1, 42, 0
2, 30120, Note_off_c, 1, 54, 0
2, 30120, Note_off_c, 1, 61, 0
2, 30160, Note_off_c, 1, 70, 0
2, 30200, Note_on_c, 1, 53, 127
2, 30200, Note_on_c, 1, 70, 127
2, 30360, Note_on_c, 1, 65, 127
2, 30480, Note_off_c, 1, 53, 0
2, 30480, Note_off_c, 1, 65, 0
2, 30520, Note_on_c, 1, 51, 127
2, 30520, Note_on_c, 1, 61, 127
2, 30640, Note_off_c, 1, 61, 0
2, 30680, Note_on_c, 1, 63, 127
2, 30800, Note_off_c, 1, 51, 0
2, 30800, Note_off_c, 1, 70, 0
2, 30840, Note_on_c, 1, 53, 127
2, 30840, Note_on_c, 1, 70, 127
2, 30960, Note_off_c, 1, 63, 0
2, 31000, Note_on_c, 1, 63, 127
2, 31080, Note_off_c, 1, 53, 0
2, 31080, Note_off_c, 1, 63, 0
2, 31120, Note_on_c, 1, 53, 127
2, 31120, Note_on_c, 1, 59, 127
2, 31240, Note_off_c, 1, 70, 0
2, 31280, Note_on_c, 1, 68, 127
2, 31400, Note_off_c, 1, 53, 0
2, 31400, Note_on_c, 1, 54, 127
2, 31400, Note_off_c, 1, 59, 0
2, 31440, Note_on_c, 1, 58, 127
2, 31440, Note_off_c, 1, 68, 0
2, 31480, Note_on_c, 1, 70, 127
2, 31600, Note_on_c, 1, 44, 127
2, 31600, Note_off_c, 1, 54, 0
2, 31640, Note_on_c, 1, 42, 127
2, 31640, Note_off_c, 1, 44, 0
2, 31640, Note_on_c, 1, 65, 127
2, 31720, Note_off_c, 1, 65, 0
2, 31800, Note_on_c, 1, 54, 127
2, 31800, Note_off_c, 1, 58, 0
2, 31800, Note_on_c, 1, 60, 127
2, 31920, Note_off_c, 1, 54, 0
2, 31920, Note_off_c, 1, 60, 0
2, 31960, Note_off_c, 1, 42, 0
2, 32000, Note_on_c, 1, 46, 127
2, 32000, Note_on_c, 1, 54, 127
2, 32000, Note_on_c, 1, 63, 127
2, 32280, Note_off_c, 1, 54, 0
2, 32320, Note_on_c, 1, 53, 127
2, 32480, Note_off_c, 1, 53, 0
2, 32480, Note_off_c, 1, 63, 0
2, 32520, Note_on_c, 1, 51, 127
2, 32520, Note_on_c, 1, 61, 127
2, 32720, Note_on_c, 1, 63, 127
2, 32920, Note_off_c, 1, 46, 0
2, 32920, Note_off_c, 1, 51, 0
2, 32920, Note_off_c, 1, 61, 0
2, 32920, Note_off_c, 1, 63, 0
2, 32960, Note_on_c, 1, 51, 127
2, 32960, Note_on_c, 1, 60, 127
2, 32960, Note_on_c, 1, 63, 127
2, 33320, Note_off_c, 1, 51, 0
2, 33320, Note_off_c, 1, 70, 0
2, 33360, Note_on_c, 1, 53, 127
2, 33360, Note_on_c, 1, 70, 127
2, 33640, Note_off_c, 1, 70, 0
2, 33680, Note_on_c, 1, 70, 127
2, 33840, Note_off_c, 1, 70, 0
2, 33920, Note_on_c, 1, 68, 127
2, 34080, Note_off_c, 1, 53, 0
2, 34120, Note_off_c, 1, 60, 0
2, 34120, Note_off_c, 1, 63, 0
2, 34120, Note_off_c, 1, 68, 0
2, 34160, Note_on_c, 1, 46, 127
2, 34160, Note_on_c, 1, 53, 127
2, 34160, Note_on_c, 1, 62, 127
2, 34320, Note_off_c, 1, 62, 0
2, 34360, Note_on_c, 1, 63, 127
2, 34520, Note_off_c, 1, 53, 0
2, 34520, Note_off_c, 1, 63, 0
2, 34560, Note_on_c, 1, 54, 127
2, 34560, Note_on_c, 1, 63, 127
2, 34760, Note_off_c, 1, 54, 0
2, 34800, Note_on_c, 1, 56, 127
2, 35040, Note_off_c, 1, 63, 0
2, 35080, Note_on_c, 1, 61, 127
2, 35320, Note_off_c, 1, 61, 0
2, 35360, Note_off_c, 1, 56, 0
2, 35360, Note_on_c, 1, 61, 127
2, 35360, Note_on_c, 1, 65, 127
2, 35520, Note_off_c, 1, 65, 0
2, 35560, Note_on_c, 1, 49, 127
2, 35560, Note_on_c, 1, 70, 127
2, 35800, Note_off_c, 1, 70, 0
2, 35840, Note_on_c, 1, 65, 127
2, 36080, Note_off_c, 1, 65, 0
2, 36120, Note_on_c, 1, 70, 127
2, 36360, Note_off_c, 1, 49, 0
2, 36360, Note_off_c, 1, 61, 0
2, 36360, Note_off_c, 1, 70, 0
2, 36400, Note_on_c, 1, 54, 127
2, 36400, Note_on_c, 1, 66, 127
2, 36400, Note_on_c, 1, 70, 127
2, 36640, Note_off_c, 1, 66, 0
2, 36720, Note_on_c, 1, 64, 127
2, 36920, Note_off_c, 1, 54, 0
2, 36920, Note_off_c, 1, 64, 0
2, 36960, Note_on_c, 1, 56, 127
2, 36960, Note_on_c, 1, 66, 127
2, 37200, Note_off_c, 1, 56, 0
2, 37240, Note_on_c, 1, 58, 127
2, 37400, Note_off_c, 1, 58, 0
2, 37400, Note_off_c, 1, 70, 0
2, 37440, Note_on_c, 1, 54, 127
2, 37440, Note_on_c, 1, 70, 127
2, 37760, Note_off_c, 1, 46, 0
2, 37800, Note_on_c, 1, 42, 127
2, 37800, Note_on_c, 1, 47, 127
2, 37920, Note_off_c, 1, 47, 0
2, 37920, Note_off_c, 1, 54, 0
2, 37920, Note_off_c, 1, 70, 0
2, 37960, Note_on_c, 1, 49, 127
2, 37960, Note_on_c, 1, 68, 127
2, 38160, Note_off_c, 1, 49, 0
2, 38160, Note_off_c, 1, 66, 0
2, 38160, Note_off_c, 1, 68, 0
2, 38200, Note_on_c, 1, 47, 127
2, 38200, Note_on_c, 1, 64, 127
2, 38200, Note_on_c, 1, 66, 127
2, 38480, Note_off_c, 1, 64, 0
2, 38520, Note_on_c, 1, 59, 127
2, 38720, Note_off_c, 1, 47, 0
2, 38720, Note_off_c, 1, 59, 0
2, 38720, Note_off_c, 1, 66, 0
2, 38760, Note_off_c, 1, 42, 0
2, 38800, Note_on_c, 1, 40, 127
2, 38800, Note_on_c, 1, 46, 127
2, 38800, Note_on_c, 1, 55, 127
2, 38800, Note_on_c, 1, 61, 127
2, 38800, Note_on_c, 1, 64, 127
2, 38840, Note_off_c, 1, 40, 0
2, 38840, Note_on_c, 1, 42, 127
2, 38840, Note_off_c, 1, 46, 0
2, 38840, Note_on_c, 1, 52, 127
2, 38840, Note_off_c, 1, 55, 0
2, 38840, Note_on_c, 1, 58, 127
2, 38880, Note_on_c, 1, 40, 127
2, 38880, Note_off_c, 1, 42, 0
2, 39200, Note_off_c, 1, 40, 0
2, 39200, Note_off_c, 1, 52, 0
2, 39200, Note_off_c, 1, 58, 0
2, 39200, Note_off_c, 1, 61, 0
2, 39200, Note_off_c, 1, 64, 0
2, 41400, Note_on_c, 1, 58, 127
2, 41480, Note_off_c, 1, 58, 0
2, 41560, Note_on_c, 1, 61, 127
2, 41760, Note_off_c, 1, 61, 0
2, 41840, Note_on_c, 1, 65, 127
2, 41960, Note_off_c, 1, 65, 0
2, 42000, Note_on_c, 1, 70, 127
2, 42160, Note_on_c, 1, 66, 127
2, 42280, Note_off_c, 1, 66, 0
2, 42280, Note_off_c, 1, 70, 0
2, 42320, Note_on_c, 1, 66, 127
2, 42320, Note_on_c, 1, 72, 127
2, 42440, Note_off_c, 1, 66, 0
2, 42440, Note_off_c, 1, 72, 0
2, 42480, Note_on_c, 1, 66, 127
2, 42480, Note_on_c, 1, 71, 127
2, 42600, Note_off_c, 1, 66, 0
2, 42640, Note_on_c, 1, 63, 127
2, 42760, Note_off_c, 1, 63, 0
2, 42800, Note_on_c, 1, 65, 127
2, 42920, Note_off_c, 1, 65, 0
2, 42920, Note_off_c, 1, 71, 0
2, 42960, Note_on_c, 1, 64, 127
2, 42960, Note_on_c, 1, 76, 127
2, 43080, Note_off_c, 1, 64, 0
2, 43160, Note_on_c, 1, 66, 127
2, 43240, Note_off_c, 1, 66, 0
2, 43240, Note_off_c, 1, 76, 0
2, 43320, Note_on_c, 1, 65, 127
2, 43320, Note_on_c, 1, 73, 127
2, 43440, Note_off_c, 1, 65, 0
2, 43440, Note_off_c, 1, 73, 0
2, 43440, Note_on_c, 1, 74, 127
2, 43480, Note_on_c, 1, 61, 127
2, 43560, Note_off_c, 1, 61, 0
2, 43560, Note_off_c, 1, 74, 0
2, 43600, Note_on_c, 1, 66, 127
2, 43600, Note_on_c, 1, 70, 127
2, 43840, Note_off_c, 1, 66, 0
2, 43880, Note_on_c, 1, 65, 127
2, 44120, Note_off_c, 1, 65, 0
2, 44160, Note_on_c, 1, 54, 127
2, 44240, Note_off_c, 1, 54, 0
2, 44320, Note_on_c, 1, 58, 127
2, 44400, Note_off_c, 1, 58, 0
2, 44440, Note_on_c, 1, 61, 127
2, 44560, Note_off_c, 1, 61, 0
2, 44560, Note_off_c, 1, 70, 0
2, 44600, Note_on_c, 1, 53, 127
2, 44600, Note_on_c, 1, 67, 127
2, 44640, Note_off_c, 1, 67, 0
2, 44680, Note_on_c, 1, 66, 127
2, 44720, Note_off_c, 1, 66, 0
2, 44760, Note_off_c, 1, 53, 0
2, 44760, Note_on_c, 1, 56, 127
2, 44760, Note_on_c, 1, 72, 127
2, 45080, Note_off_c, 1, 56, 0
2, 45080, Note_on_c, 1, 58, 127
2, 45320, Note_off_c, 1, 72, 0
2, 45320, Note_on_c, 1, 73, 127
2, 45360, Note_off_c, 1, 58, 0
2, 45360, Note_on_c, 1, 72, 127
2, 45360, Note_off_c, 1, 73, 0
2, 45400, Note_on_c, 1, 56, 127
2, 45600, Note_off_c, 1, 56, 0
2, 45600, Note_off_c, 1, 72, 0
2, 45640, Note_on_c, 1, 62, 127
2, 45640, Note_on_c, 1, 65, 127
2, 46040, Note_on_c, 1, 45, 127
2, 46240, Note_off_c, 1, 45, 0
2, 46280, Note_on_c, 1, 51, 127
2, 46400, Note_off_c, 1, 51, 0
2, 46400, Note_off_c, 1, 65, 0
2, 46440, Note_on_c, 1, 53, 127
2, 46640, Note_off_c, 1, 53, 0
2, 46640, Note_off_c, 1, 62, 0
2, 46680, Note_on_c, 1, 50, 127
2, 46680, Note_on_c, 1, 62, 127
2, 47080, Note_off_c, 1, 50, 0
2, 47080, Note_off_c, 1, 62, 0
2, 47120, Note_on_c, 1, 50, 127
2, 47120, Note_on_c, 1, 58, 127
2, 47120, Note_on_c, 1, 65, 127
2, 47280, Note_off_c, 1, 65, 0
2, 47320, Note_on_c, 1, 70, 127
2, 47480, Note_off_c, 1, 50, 0
2, 47480, Note_off_c, 1, 58, 0
2, 47520, Note_on_c, 1, 51, 127
2, 47720, Note_off_c, 1, 70, 0
2, 47760, Note_on_c, 1, 73, 127
2, 47960, Note_on_c, 1, 71, 127
2, 47960, Note_off_c, 1, 73, 0
2, 48040, Note_on_c, 1, 54, 127
2, 48320, Note_on_c, 1, 69, 127
2, 48400, Note_off_c, 1, 69, 0
2, 48480, Note_on_c, 1, 66, 127
2, 48640, Note_off_c, 1, 51, 0
2, 48640, Note_off_c, 1, 54, 0
2, 48640, Note_off_c, 1, 66, 0
2, 48680, Note_on_c, 1, 51, 127
2, 48680, Note_on_c, 1, 64, 127
2, 48960, Note_off_c, 1, 51, 0
2, 48960, Note_off_c, 1, 71, 0
2, 49000, Note_on_c, 1, 51, 127
2, 49000, Note_on_c, 1, 63, 127
2, 49000, Note_off_c, 1, 64, 0
2, 49000, Note_on_c, 1, 66, 127
2, 49320, Note_off_c, 1, 51, 0
2, 49320, Note_off_c, 1, 66, 0
2, 49360, Note_on_c, 1, 52, 127
2, 49360, Note_on_c, 1, 66, 127
2, 49520, Note_off_c, 1, 63, 0
2, 49560, Note_on_c, 1, 61, 127
2, 49680, Note_off_c, 1, 66, 0
2, 49760, Note_on_c, 1, 73, 127
2, 49920, Note_off_c, 1, 52, 0
2, 49920, Note_off_c, 1, 61, 0
2, 49920, Note_off_c, 1, 73, 0
2, 49960, Note_on_c, 1, 49, 127
2, 49960, Note_on_c, 1, 67, 127
2, 49960, Note_on_c, 1, 73, 127
2, 50320, Note_off_c, 1, 49, 0
2, 50320, Note_off_c, 1, 73, 0
2, 50360, Note_on_c, 1, 59, 127
2, 50360, Note_on_c, 1, 74, 127
2, 50560, Note_off_c, 1, 74, 0
2, 50600, Note_on_c, 1, 76, 127
2, 50800, Note_off_c, 1, 59, 0
2, 50800, Note_off_c, 1, 67, 0
2, 50840, Note_off_c, 1, 76, 0
2, 50880, Note_on_c, 1, 56, 127
2, 50880, Note_on_c, 1, 71, 127
2, 51080, Note_on_c, 1, 74, 127
2, 51200, Note_off_c, 1, 56, 0
2, 51240, Note_on_c, 1, 56, 127
2, 51280, Note_off_c, 1, 56, 0
2, 51280, Note_off_c, 1, 74, 0
2, 51320, Note_on_c, 1, 54, 127
2, 51320, Note_on_c, 1, 76, 127
2, 51520, Note_off_c, 1, 76, 0
2, 51560, Note_on_c, 1, 73, 127
2, 51720, Note_off_c, 1, 54, 0
2, 51720, Note_off_c, 1, 73, 0
2, 51760, Note_on_c, 1, 56, 127
2, 51760, Note_on_c, 1, 76, 127
2, 51960, Note_off_c, 1, 76, 0
2, 52000, Note_on_c, 1, 74, 127
2, 52200, Note_off_c, 1, 56, 0
2, 52200, Note_off_c, 1, 74, 0
2, 52240, Note_on_c, 1, 59, 127
2, 52240, Note_on_c, 1, 74, 127
2, 52440, Note_off_c, 1, 59, 0
2, 52440, Note_off_c, 1, 71, 0
2, 52440, Note_off_c, 1, 74, 0
2, 52480, Note_on_c, 1, 60, 127
2, 52480, Note_on_c, 1, 76, 127
2, 52640, Note_off_c, 1, 60, 0
2, 52640, Note_off_c, 1, 76, 0
2, 52680, Note_on_c, 1, 55, 127
2, 52680, Note_on_c, 1, 79, 127
2, 52880, Note_off_c, 1, 55, 0
2, 52920, Note_on_c, 1, 59, 127
2, 53080, Note_off_c, 1, 59, 0
2, 53120, Note_on_c, 1, 59, 127
2, 53320, Note_off_c, 1, 59, 0
2, 53320, Note_on_c, 1, 64, 127
2, 53360, Note_on_c, 1, 59, 127
2, 53480, Note_off_c, 1, 59, 0
2, 53480, Note_on_c, 1, 76, 127
2, 53480, Note_off_c, 1, 79, 0
2, 53560, Note_on_c, 1, 57, 127
2, 53720, Note_off_c, 1, 57, 0
2, 53720, Note_off_c, 1, 64, 0
2, 53760, Note_on_c, 1, 69, 127
2, 53920, Note_off_c, 1, 69, 0
2, 53960, Note_on_c, 1, 71, 127
2, 54080, Note_off_c, 1, 71, 0
2, 54160, Note_on_c, 1, 57, 127
2, 54160, Note_on_c, 1, 64, 127
2, 54320, Note_off_c, 1, 57, 0
2, 54320, Note_off_c, 1, 64, 0
2, 54320, Note_off_c, 1, 76, 0
2, 54320, Note_on_c, 1, 78, 127
2, 54360, Note_on_c, 1, 50, 127
2, 54360, Note_on_c, 1, 63, 127
2, 54360, Note_on_c, 1, 69, 127
2, 54480, Note_off_c, 1, 50, 0
2, 54680, Note_off_c, 1, 63, 0
2, 54680, Note_off_c, 1, 69, 0
2, 54680, Note_off_c, 1, 78, 0
2, 54720, Note_on_c, 1, 60, 127
2, 54720, Note_on_c, 1, 64, 127
2, 54720, Note_on_c, 1, 78, 127
2, 54800, Note_on_c, 1, 76, 127
2, 54800, Note_off_c, 1, 78, 0
2, 54880, Note_off_c, 1, 60, 0
2, 54880, Note_off_c, 1, 64, 0
2, 54880, Note_on_c, 1, 66, 127
2, 54920, Note_on_c, 1, 59, 127
2, 55040, Note_off_c, 1, 59, 0
2, 55040, Note_off_c, 1, 66, 0
2, 55080, Note_on_c, 1, 60, 127
2, 55080, Note_on_c, 1, 69, 127
2, 55200, Note_off_c, 1, 60, 0
2, 55240, Note_on_c, 1, 59, 127
2, 55360, Note_off_c, 1, 76, 0
2, 55400, Note_on_c, 1, 74, 127
2, 55440, Note_off_c, 1, 74, 0
2, 55440, Note_on_c, 1, 76, 127
2, 55520, Note_off_c, 1, 76, 0
2, 55560, Note_on_c, 1, 76, 127
2, 55680, Note_off_c, 1, 59, 0
2, 55680, Note_off_c, 1, 69, 0
2, 55720, Note_on_c, 1, 59, 127
2, 55720, Note_on_c, 1, 71, 127
2, 55840, Note_off_c, 1, 59, 0
2, 55840, Note_off_c, 1, 71, 0
2, 55880, Note_on_c, 1, 57, 127
2, 55880, Note_on_c, 1, 69, 127
2, 56000, Note_off_c, 1, 57, 0
2, 56000, Note_off_c, 1, 69, 0
2, 56040, Note_on_c, 1, 59, 127
2, 56040, Note_on_c, 1, 66, 127
2, 56160, Note_off_c, 1, 76, 0
2, 56200, Note_on_c, 1, 74, 127
2, 56320, Note_off_c, 1, 59, 0
2, 56360, Note_on_c, 1, 57, 127
2, 56480, Note_off_c, 1, 66, 0
2, 56520, Note_on_c, 1, 69, 127
2, 56640, Note_off_c, 1, 69, 0
2, 56680, Note_on_c, 1, 62, 127
2, 56760, Note_off_c, 1, 62, 0
2, 56800, Note_off_c, 1, 74, 0
2, 56840, Note_on_c, 1, 69, 127
2, 56840, Note_on_c, 1, 73, 127
2, 56960, Note_off_c, 1, 69, 0
2, 57000, Note_on_c, 1, 66, 127
2, 57120, Note_off_c, 1, 73, 0
2, 57160, Note_on_c, 1, 74, 127
2, 57280, Note_off_c, 1, 66, 0
2, 57320, Note_on_c, 1, 64, 127
2, 57440, Note_off_c, 1, 57, 0
2, 57440, Note_off_c, 1, 64, 0
2, 57480, Note_on_c, 1, 59, 127
2, 57480, Note_on_c, 1, 62, 127
2, 57600, Note_off_c, 1, 74, 0
2, 57640, Note_on_c, 1, 73, 127
2, 57760, Note_off_c, 1, 59, 0
2, 57760, Note_off_c, 1, 62, 0
2, 57760, Note_off_c, 1, 73, 0
2, 57800, Note_on_c, 1, 55, 127
2, 57800, Note_on_c, 1, 64, 127
2, 57800, Note_on_c, 1, 71, 127
2, 57920, Note_off_c, 1, 64, 0
2, 57960, Note_on_c, 1, 62, 127
2, 58040, End_track
3, 0, Start_track
3, 0, Title_t, "MIDI"
3, 1536, End_track
0, 0, End_of_file
