0, 0, Header, 1, 3, 384
1, 0, Start_track
1, 0, Time_signature, 4, 2, 24, 8
1, 0, Tempo, 500000
1, 61480, End_track
2, 0, Start_track
2, 0, Text_t, "harpsichord: John Sankey"
2, 0, Title_t, "Track 1"
2, 0, Note_on_c, 1, 38, 127
2, 0, Note_on_c, 1, 52, 127
2, 0, Note_on_c, 1, 60, 127
2, 0, Note_on_c, 1, 67, 127
2, 40, Note_off_c, 1, 38, 0
2, 40, Note_on_c, 1, 42, 127
2, 80, Note_on_c, 1, 38, 127
2, 80, Note_off_c, 1, 42, 0
2, 80, Note_on_c, 1, 51, 127
2, 80, Note_off_c, 1, 52, 0
2, 120, Note_off_c, 1, 38, 0
2, 120, Note_on_c, 1, 44, 127
2, 120, Note_off_c, 1, 51, 0
2, 120, Note_off_c, 1, 60, 0
2, 160, Note_off_c, 1, 44, 0
2, 160, Note_on_c, 1, 45, 127
2, 160, Note_on_c, 1, 51, 127
2, 160, Note_on_c, 1, 60, 127
2, 160, Note_off_c, 1, 67, 0
2, 240, Note_off_c, 1, 51, 0
2, 240, Note_on_c, 1, 52, 127
2, 400, Note_off_c, 1, 45, 0
2, 400, Note_off_c, 1, 52, 0
2, 400, Note_off_c, 1, 60, 0
2, 440, Note_on_c, 1, 64, 127
2, 480, Note_on_c, 1, 43, 127
2, 720, Note_off_c, 1, 43, 0
2, 720, Note_off_c, 1, 64, 0
2, 760, Note_on_c, 1, 38, 127
2, 760, Note_on_c, 1, 62, 127
2, 920, Note_off_c, 1, 62, 0
2, 960, Note_on_c, 1, 76, 127
2, 1000, Note_on_c, 1, 50, 127
2, 1040, Note_off_c, 1, 76, 0
2, 1040, Note_on_c, 1, 77, 127
2, 1080, Note_off_c, 1, 50, 0
2, 1080, Note_off_c, 1, 77, 0
2, 1120, Note_on_c, 1, 67, 127
2, 1200, Note_off_c, 1, 67, 0
2, 1240, Note_on_c, 1, 67, 127
2, 1320, Note_on_c, 1, 31, 127
2, 1320, Note_off_c, 1, 38, 0
2, 1320, Note_on_c, 1, 50, 127
2, 1360, Note_off_c, 1, 31, 0
2, 1360, Note_on_c, 1, 38, 127
2, 1400, Note_on_c, 1, 65, 127
2, 1400, Note_off_c, 1, 67, 0
2, 1480, Note_on_c, 1, 59, 127
2, 1720, Note_off_c, 1, 38, 0
2, 1720, Note_off_c, 1, 50, 0
2, 1760, Note_on_c, 1, 31, 127
2, 1760, Note_off_c, 1, 59, 0
2, 1760, Note_off_c, 1, 65, 0
2, 1760, Note_on_c, 1, 67, 127
2, 1800, Note_off_c, 1, 31, 0
2, 1800, Note_on_c, 1, 52, 127
2, 1920, Note_on_c, 1, 58, 127
2, 2000, Note_off_c, 1, 58, 0
2, 2040, Note_on_c, 1, 57, 127
2, 2120, Note_off_c, 1, 52, 0
2, 2120, Note_off_c, 1, 57, 0
2, 2120, Note_off_c, 1, 67, 0
2, 2160, Note_on_c, 1, 52, 127
2, 2160, Note_on_c, 1, 59, 127
2, 2160, Note_on_c, 1, 67, 127
2, 2280, Note_off_c, 1, 52, 0
2, 2320, Note_off_c, 1, 59, 0
2, 2320, Note_off_c, 1, 67, 0
2, 2360, Note_on_c, 1, 57, 127
2, 2360, Note_on_c, 1, 68, 127
2, 2400, Note_off_c, 1, 68, 0
2, 2400, Note_on_c, 1, 69, 127
2, 2560, Note_off_c, 1, 57, 0
2, 2600, Note_on_c, 1, 50, 127
2, 2600, Note_on_c, 1, 58, 127
2, 2960, Note_on_c, 1, 57, 127
2, 2960, Note_off_c, 1, 58, 0
2, 3200, Note_off_c, 1, 57, 0
2, 3200, Note_on_c, 1, 58, 127
2, 3520, Note_off_c, 1, 58, 0
2, 3520, Note_on_c, 1, 59, 127
2, 3600, Note_off_c, 1, 69, 0
2, 3600, Note_on_c, 1, 74, 127
2, 3640, Note_off_c, 1, 74, 0
2, 3680, Note_off_c, 1, 50, 0
2, 3760, Note_on_c, 1, 67, 127
2, 3960, Note_off_c, 1, 59, 0
2, 3960, Note_off_c, 1, 67, 0
2, 4000, Note_on_c, 1, 59, 127
2, 4000, Note_on_c, 1, 67, 127
2, 4160, Note_off_c, 1, 67, 0
2, 4200, Note_on_c, 1, 62, 127
2, 4200, Note_on_c, 1, 69, 127
2, 4240, Note_off_c, 1, 69, 0
2, 4640, Note_off_c, 1, 59, 0
2, 4720, Note_on_c, 1, 72, 127
2, 4840, Note_off_c, 1, 72, 0
2, 4880, Note_on_c, 1, 69, 127
2, 5120, Note_off_c, 1, 62, 0
2, 5120, Note_off_c, 1, 69, 0
2, 5160, Note_on_c, 1, 58, 127
2, 5160, Note_on_c, 1, 64, 127
2, 5240, Note_off_c, 1, 58, 0
2, 5240, Note_on_c, 1, 62, 127
2, 5280, Note_on_c, 1, 60, 127
2, 5320, Note_off_c, 1, 62, 0
2, 5520, Note_on_c, 1, 57, 127
2, 5560, Note_off_c, 1, 60, 0
2, 5600, Note_on_c, 1, 62, 127
2, 5600, Note_off_c, 1, 64, 0
2, 5640, Note_on_c, 1, 60, 127
2, 5680, Note_off_c, 1, 62, 0
2, 5680, Note_on_c, 1, 64, 127
2, 5720, Note_off_c, 1, 64, 0
2, 5760, Note_on_c, 1, 67, 127
2, 5880, Note_off_c, 1, 67, 0
2, 5920, Note_on_c, 1, 55, 127
2, 5920, Note_off_c, 1, 57, 0
2, 5920, Note_on_c, 1, 72, 127
2, 6000, Note_off_c, 1, 72, 0
2, 6040, Note_on_c, 1, 74, 127
2, 6120, Note_off_c, 1, 74, 0
2, 6160, Note_on_c, 1, 74, 127
2, 6360, Note_off_c, 1, 60, 0
2, 6400, Note_on_c, 1, 60, 127
2, 6640, Note_off_c, 1, 74, 0
2, 6680, Note_on_c, 1, 58, 127
2, 6680, Note_off_c, 1, 60, 0
2, 6680, Note_on_c, 1, 74, 127
2, 6960, Note_off_c, 1, 74, 0
2, 7000, Note_on_c, 1, 76, 127
2, 7120, Note_off_c, 1, 76, 0
2, 7160, Note_off_c, 1, 58, 0
2, 7200, Note_off_c, 1, 55, 0
2, 7200, Note_on_c, 1, 57, 127
2, 7200, Note_on_c, 1, 59, 127
2, 7200, Note_on_c, 1, 74, 127
2, 7240, Note_off_c, 1, 57, 0
2, 7240, Note_on_c, 1, 62, 127
2, 7520, Note_off_c, 1, 74, 0
2, 7560, Note_off_c, 1, 59, 0
2, 7560, Note_on_c, 1, 71, 127
2, 7560, Note_on_c, 1, 74, 127
2, 7600, Note_on_c, 1, 59, 127
2, 7600, Note_off_c, 1, 74, 0
2, 7640, Note_off_c, 1, 62, 0
2, 7640, Note_off_c, 1, 71, 0
2, 7680, Note_on_c, 1, 65, 127
2, 7680, Note_on_c, 1, 73, 127
2, 7720, Note_off_c, 1, 65, 0
2, 7720, Note_off_c, 1, 73, 0
2, 7720, Note_on_c, 1, 74, 127
2, 7800, Note_off_c, 1, 74, 0
2, 7800, Note_on_c, 1, 77, 127
2, 7840, Note_off_c, 1, 77, 0
2, 7880, Note_on_c, 1, 73, 127
2, 7920, Note_off_c, 1, 73, 0
2, 7920, Note_on_c, 1, 75, 127
2, 7960, Note_off_c, 1, 75, 0
2, 8000, Note_on_c, 1, 72, 127
2, 8040, Note_off_c, 1, 72, 0
2, 8040, Note_on_c, 1, 74, 127
2, 8280, Note_on_c, 1, 72, 127
2, 8280, Note_off_c, 1, 74, 0
2, 8320, Note_off_c, 1, 59, 0
2, 8320, Note_off_c, 1, 72, 0
2, 8360, Note_on_c, 1, 51, 127
2, 8360, Note_on_c, 1, 71, 127
2, 8400, Note_off_c, 1, 51, 0
2, 8400, Note_on_c, 1, 52, 127
2, 8640, Note_off_c, 1, 71, 0
2, 8680, Note_on_c, 1, 50, 127
2, 8680, Note_off_c, 1, 52, 0
2, 8680, Note_on_c, 1, 55, 127
2, 8680, Note_on_c, 1, 76, 127
2, 8920, Note_on_c, 1, 53, 127
2, 8920, Note_off_c, 1, 55, 0
2, 8920, Note_on_c, 1, 67, 127
2, 8920, Note_off_c, 1, 76, 0
2, 8960, Note_off_c, 1, 67, 0
2, 9000, Note_on_c, 1, 70, 127
2, 9080, Note_off_c, 1, 50, 0
2, 9080, Note_off_c, 1, 70, 0
2, 9120, Note_on_c, 1, 67, 127
2, 9160, Note_off_c, 1, 67, 0
2, 9160, Note_on_c, 1, 69, 127
2, 9520, Note_off_c, 1, 69, 0
2, 9560, Note_on_c, 1, 62, 127
2, 9640, Note_on_c, 1, 50, 127
2, 9680, Note_off_c, 1, 50, 0
2, 9760, Note_on_c, 1, 74, 127
2, 9840, Note_off_c, 1, 62, 0
2, 9880, Note_off_c, 1, 53, 0
2, 9880, Note_on_c, 1, 55, 127
2, 10320, Note_off_c, 1, 74, 0
2, 10360, Note_on_c, 1, 72, 127
2, 10600, Note_off_c, 1, 72, 0
2, 10640, Note_on_c, 1, 71, 127
2, 10880, Note_off_c, 1, 71, 0
2, 10920, Note_on_c, 1, 71, 127
2, 11120, Note_on_c, 1, 67, 127
2, 11160, Note_off_c, 1, 55, 0
2, 11200, Note_on_c, 1, 59, 127
2, 11320, Note_off_c, 1, 59, 0
2, 11360, Note_off_c, 1, 67, 0
2, 11360, Note_off_c, 1, 71, 0
2, 11400, Note_on_c, 1, 60, 127
2, 11400, Note_on_c, 1, 76, 127
2, 11640, Note_off_c, 1, 76, 0
2, 11680, Note_on_c, 1, 67, 127
2, 12200, Note_off_c, 1, 67, 0
2, 12240, Note_on_c, 1, 59, 127
2, 12240, Note_off_c, 1, 60, 0
2, 12280, Note_on_c, 1, 58, 127
2, 12280, Note_off_c, 1, 59, 0
2, 12280, Note_on_c, 1, 67, 127
2, 12400, Note_on_c, 1, 57, 127
2, 12400, Note_off_c, 1, 58, 0
2, 12480, Note_off_c, 1, 67, 0
2, 12520, Note_on_c, 1, 55, 127
2, 12520, Note_off_c, 1, 57, 0
2, 12520, Note_on_c, 1, 69, 127
2, 12640, Note_off_c, 1, 55, 0
2, 12680, Note_on_c, 1, 56, 127
2, 12720, Note_off_c, 1, 56, 0
2, 12720, Note_on_c, 1, 59, 127
2, 12840, Note_off_c, 1, 59, 0
2, 12840, Note_on_c, 1, 60, 127
2, 12840, Note_off_c, 1, 69, 0
2, 12880, Note_off_c, 1, 60, 0
2, 12880, Note_on_c, 1, 62, 127
2, 12880, Note_on_c, 1, 67, 127
2, 12880, Note_on_c, 1, 74, 127
2, 12920, Note_off_c, 1, 74, 0
2, 12960, Note_on_c, 1, 74, 127
2, 13160, Note_off_c, 1, 62, 0
2, 13160, Note_off_c, 1, 67, 0
2, 13160, Note_off_c, 1, 74, 0
2, 13200, Note_on_c, 1, 57, 127
2, 13200, Note_on_c, 1, 64, 127
2, 13200, Note_on_c, 1, 74, 127
2, 13440, Note_off_c, 1, 64, 0
2, 13440, Note_on_c, 1, 65, 127
2, 13560, Note_off_c, 1, 57, 0
2, 13560, Note_on_c, 1, 60, 127
2, 13600, Note_off_c, 1, 60, 0
2, 13600, Note_off_c, 1, 65, 0
2, 13600, Note_off_c, 1, 74, 0
2, 13600, Note_on_c, 1, 77, 127
2, 13640, Note_on_c, 1, 47, 127
2, 13640, Note_on_c, 1, 74, 127
2, 13640, Note_off_c, 1, 77, 0
2, 13640, Note_on_c, 1, 79, 127
2, 13880, Note_off_c, 1, 47, 0
2, 13880, Note_on_c, 1, 71, 127
2, 13880, Note_off_c, 1, 74, 0
2, 13920, Note_off_c, 1, 71, 0
2, 13920, Note_off_c, 1, 79, 0
2, 13960, Note_on_c, 1, 50, 127
2, 13960, Note_on_c, 1, 77, 127
2, 14320, Note_off_c, 1, 77, 0
2, 14360, Note_on_c, 1, 57, 127
2, 14360, Note_on_c, 1, 81, 127
2, 14400, Note_on_c, 1, 79, 127
2, 14400, Note_off_c, 1, 81, 0
2, 14520, Note_on_c, 1, 77, 127
2, 14520, Note_off_c, 1, 79, 0
2, 14680, Note_off_c, 1, 57, 0
2, 14720, Note_on_c, 1, 57, 127
2, 14880, Note_off_c, 1, 77, 0
2, 14920, Note_off_c, 1, 50, 0
2, 14920, Note_on_c, 1, 62, 127
2, 14920, Note_on_c, 1, 76, 127
2, 14960, Note_off_c, 1, 62, 0
2, 14960, Note_on_c, 1, 65, 127
2, 15000, Note_on_c, 1, 60, 127
2, 15040, Note_off_c, 1, 76, 0
2, 15080, Note_on_c, 1, 77, 127
2, 15240, Note_on_c, 1, 53, 127
2, 15320, Note_off_c, 1, 53, 0
2, 15320, Note_off_c, 1, 57, 0
2, 15320, Note_off_c, 1, 60, 0
2, 15320, Note_off_c, 1, 65, 0
2, 15320, Note_off_c, 1, 77, 0
2, 15360, Note_on_c, 1, 57, 127
2, 15360, Note_on_c, 1, 62, 127
2, 15360, Note_on_c, 1, 69, 127
2, 15400, Note_off_c, 1, 57, 0
2, 15400, Note_on_c, 1, 60, 127
2, 15400, Note_off_c, 1, 69, 0
2, 15440, Note_on_c, 1, 59, 127
2, 15440, Note_off_c, 1, 60, 0
2, 15440, Note_on_c, 1, 69, 127
2, 15560, Note_off_c, 1, 59, 0
2, 15560, Note_off_c, 1, 69, 0
2, 15600, Note_on_c, 1, 55, 127
2, 15600, Note_on_c, 1, 58, 127
2, 15600, Note_off_c, 1, 62, 0
2, 15600, Note_on_c, 1, 69, 127
2, 15800, Note_off_c, 1, 55, 0
2, 15800, Note_off_c, 1, 58, 0
2, 15840, Note_on_c, 1, 55, 127
2, 15840, Note_on_c, 1, 60, 127
2, 16040, Note_off_c, 1, 69, 0
2, 16080, Note_on_c, 1, 65, 127
2, 16200, Note_off_c, 1, 55, 0
2, 16280, Note_on_c, 1, 56, 127
2, 16440, Note_off_c, 1, 56, 0
2, 16440, Note_on_c, 1, 59, 127
2, 16440, Note_off_c, 1, 60, 0
2, 16480, Note_on_c, 1, 55, 127
2, 16560, Note_off_c, 1, 55, 0
2, 16600, Note_on_c, 1, 56, 127
2, 16680, Note_off_c, 1, 56, 0
2, 16760, Note_on_c, 1, 62, 127
2, 16840, Note_off_c, 1, 59, 0
2, 16880, Note_on_c, 1, 58, 127
2, 16920, Note_on_c, 1, 57, 127
2, 16920, Note_off_c, 1, 58, 0
2, 17160, Note_off_c, 1, 57, 0
2, 17160, Note_off_c, 1, 62, 0
2, 17200, Note_on_c, 1, 55, 127
2, 17200, Note_on_c, 1, 62, 127
2, 17280, Note_off_c, 1, 55, 0
2, 17280, Note_off_c, 1, 62, 0
2, 17280, Note_off_c, 1, 65, 0
2, 17280, Note_on_c, 1, 67, 127
2, 17320, Note_on_c, 1, 52, 127
2, 17320, Note_on_c, 1, 60, 127
2, 17320, Note_on_c, 1, 62, 127
2, 17320, Note_off_c, 1, 67, 0
2, 17400, Note_off_c, 1, 52, 0
2, 17440, Note_on_c, 1, 50, 127
2, 17440, Note_off_c, 1, 62, 0
2, 17480, Note_on_c, 1, 62, 127
2, 17560, Note_off_c, 1, 50, 0
2, 17560, Note_off_c, 1, 60, 0
2, 17560, Note_off_c, 1, 62, 0
2, 17600, Note_on_c, 1, 60, 127
2, 17600, Note_on_c, 1, 62, 127
2, 17680, Note_off_c, 1, 60, 0
2, 17720, Note_on_c, 1, 55, 127
2, 17720, Note_on_c, 1, 60, 127
2, 17840, Note_off_c, 1, 55, 0
2, 17880, Note_on_c, 1, 53, 127
2, 17880, Note_on_c, 1, 57, 127
2, 17880, Note_off_c, 1, 60, 0
2, 17920, Note_on_c, 1, 79, 127
2, 17960, Note_off_c, 1, 53, 0
2, 17960, Note_off_c, 1, 57, 0
2, 17960, Note_off_c, 1, 62, 0
2, 17960, Note_on_c, 1, 74, 127
2, 17960, Note_off_c, 1, 79, 0
2, 18000, Note_on_c, 1, 55, 127
2, 18000, Note_on_c, 1, 60, 127
2, 18120, Note_off_c, 1, 74, 0
2, 18160, Note_on_c, 1, 59, 127
2, 18160, Note_off_c, 1, 60, 0
2, 18160, Note_on_c, 1, 79, 127
2, 18320, Note_off_c, 1, 55, 0
2, 18320, Note_off_c, 1, 59, 0
2, 18320, Note_on_c, 1, 62, 127
2, 18360, Note_on_c, 1, 55, 127
2, 18360, Note_on_c, 1, 77, 127
2, 18360, Note_off_c, 1, 79, 0
2, 18480, Note_off_c, 1, 55, 0
2, 18480, Note_off_c, 1, 62, 0
2, 18480, Note_off_c, 1, 77, 0
2, 18560, Note_on_c, 1, 59, 127
2, 18560, Note_on_c, 1, 79, 127
2, 18800, Note_off_c, 1, 79, 0
2, 18840, Note_on_c, 1, 78, 127
2, 18920, Note_off_c, 1, 78, 0
2, 19080, Note_on_c, 1, 62, 127
2, 19400, Note_off_c, 1, 59, 0
2, 19440, Note_on_c, 1, 55, 127
2, 19640, Note_off_c, 1, 62, 0
2, 19680, Note_on_c, 1, 58, 127
2, 19800, Note_off_c, 1, 55, 0
2, 19800, Note_off_c, 1, 58, 0
2, 19840, Note_on_c, 1, 55, 127
2, 19840, Note_on_c, 1, 57, 127
2, 19840, Note_on_c, 1, 77, 127
2, 19920, Note_on_c, 1, 53, 127
2, 19920, Note_off_c, 1, 55, 0
2, 20120, Note_off_c, 1, 77, 0
2, 20160, Note_on_c, 1, 76, 127
2, 20240, Note_off_c, 1, 76, 0
2, 20280, Note_on_c, 1, 69, 127
2, 20360, Note_off_c, 1, 69, 0
2, 20400, Note_on_c, 1, 70, 127
2, 20520, Note_off_c, 1, 70, 0
2, 20560, Note_on_c, 1, 74, 127
2, 20640, Note_off_c, 1, 57, 0
2, 20640, Note_off_c, 1, 74, 0
2, 20680, Note_on_c, 1, 52, 127
2, 20680, Note_off_c, 1, 53, 0
2, 20680, Note_on_c, 1, 59, 127
2, 20680, Note_on_c, 1, 67, 127
2, 20680, Note_on_c, 1, 79, 127
2, 20760, Note_off_c, 1, 52, 0
2, 20920, Note_off_c, 1, 79, 0
2, 20960, Note_on_c, 1, 79, 127
2, 21080, Note_off_c, 1, 59, 0
2, 21080, Note_off_c, 1, 67, 0
2, 21120, Note_on_c, 1, 59, 127
2, 21120, Note_on_c, 1, 77, 127
2, 21120, Note_off_c, 1, 79, 0
2, 21160, Note_off_c, 1, 77, 0
2, 21160, Note_on_c, 1, 79, 127
2, 21200, Note_off_c, 1, 79, 0
2, 21240, Note_on_c, 1, 62, 127
2, 21240, Note_on_c, 1, 79, 127
2, 21440, Note_off_c, 1, 59, 0
2, 21440, Note_off_c, 1, 62, 0
2, 21440, Note_off_c, 1, 79, 0
2, 21480, Note_on_c, 1, 58, 127
2, 21480, Note_on_c, 1, 79, 127
2, 21600, Note_off_c, 1, 79, 0
2, 21640, Note_on_c, 1, 79, 127
2, 21680, Note_on_c, 1, 57, 127
2, 21680, Note_off_c, 1, 58, 0
2, 21760, Note_off_c, 1, 57, 0
2, 21800, Note_on_c, 1, 57, 127
2, 22160, Note_off_c, 1, 57, 0
2, 22160, Note_off_c, 1, 79, 0
2, 22200, Note_on_c, 1, 57, 127
2, 22200, Note_on_c, 1, 60, 127
2, 22200, Note_on_c, 1, 77, 127
2, 22360, Note_on_c, 1, 59, 127
2, 22360, Note_off_c, 1, 60, 0
2, 22400, Note_off_c, 1, 77, 0
2, 22440, Note_off_c, 1, 57, 0
2, 22440, Note_on_c, 1, 58, 127
2, 22440, Note_on_c, 1, 79, 127
2, 22480, Note_off_c, 1, 58, 0
2, 22600, Note_off_c, 1, 79, 0
2, 22640, Note_on_c, 1, 79, 127
2, 22800, Note_off_c, 1, 79, 0
2, 22840, Note_on_c, 1, 81, 127
2, 22960, Note_on_c, 1, 80, 127
2, 22960, Note_off_c, 1, 81, 0
2, 23000, Note_off_c, 1, 59, 0
2, 23000, Note_off_c, 1, 80, 0
2, 23040, Note_on_c, 1, 60, 127
2, 23040, Note_on_c, 1, 78, 127
2, 23200, Note_off_c, 1, 78, 0
2, 23240, Note_on_c, 1, 77, 127
2, 23320, Note_off_c, 1, 60, 0
2, 23360, Note_on_c, 1, 60, 127
2, 23520, Note_off_c, 1, 60, 0
2, 23520, Note_on_c, 1, 69, 127
2, 23560, Note_off_c, 1, 69, 0
2, 23600, Note_on_c, 1, 55, 127
2, 23600, Note_off_c, 1, 77, 0
2, 23640, Note_on_c, 1, 59, 127
2, 23640, Note_on_c, 1, 77, 127
2, 23720, Note_off_c, 1, 77, 0
2, 23760, Note_on_c, 1, 81, 127
2, 23800, Note_off_c, 1, 55, 0
2, 23800, Note_on_c, 1, 62, 127
2, 23800, Note_on_c, 1, 78, 127
2, 23800, Note_off_c, 1, 81, 0
2, 23880, Note_off_c, 1, 78, 0
2, 23880, Note_on_c, 1, 81, 127
2, 23920, Note_on_c, 1, 80, 127
2, 23920, Note_off_c, 1, 81, 0
2, 23960, Note_off_c, 1, 62, 0
2, 23960, Note_off_c, 1, 80, 0
2, 24000, Note_on_c, 1, 79, 127
2, 24040, Note_on_c, 1, 77, 127
2, 24040, Note_off_c, 1, 79, 0
2, 24120, Note_off_c, 1, 77, 0
2, 24160, Note_on_c, 1, 79, 127
2, 24360, Note_off_c, 1, 79, 0
2, 24400, Note_on_c, 1, 75, 127
2, 24520, Note_off_c, 1, 75, 0
2, 24560, Note_on_c, 1, 78, 127
2, 24640, Note_off_c, 1, 78, 0
2, 24720, Note_on_c, 1, 78, 127
2, 24840, Note_off_c, 1, 59, 0
2, 24840, Note_off_c, 1, 78, 0
2, 24880, Note_on_c, 1, 67, 127
2, 24920, Note_off_c, 1, 67, 0
2, 24960, Note_on_c, 1, 65, 127
2, 25080, Note_off_c, 1, 65, 0
2, 25080, Note_on_c, 1, 67, 127
2, 25120, Note_on_c, 1, 65, 127
2, 25120, Note_off_c, 1, 67, 0
2, 25160, Note_off_c, 1, 65, 0
2, 25240, Note_on_c, 1, 62, 127
2, 25240, Note_on_c, 1, 79, 127
2, 25280, Note_off_c, 1, 79, 0
2, 25440, Note_on_c, 1, 68, 127
2, 25840, Note_off_c, 1, 62, 0
2, 25880, Note_on_c, 1, 59, 127
2, 26160, Note_off_c, 1, 68, 0
2, 26200, Note_on_c, 1, 76, 127
2, 26400, Note_off_c, 1, 76, 0
2, 26440, Note_on_c, 1, 67, 127
2, 26680, Note_off_c, 1, 67, 0
2, 26720, Note_on_c, 1, 67, 127
2, 26920, Note_off_c, 1, 67, 0
2, 26960, Note_on_c, 1, 65, 127
2, 26960, Note_on_c, 1, 76, 127
2, 27160, Note_off_c, 1, 76, 0
2, 27200, Note_on_c, 1, 74, 127
2, 27320, Note_off_c, 1, 65, 0
2, 27360, Note_on_c, 1, 64, 127
2, 27480, Note_off_c, 1, 64, 0
2, 27480, Note_off_c, 1, 74, 0
2, 27520, Note_on_c, 1, 45, 127
2, 27520, Note_on_c, 1, 71, 127
2, 27520, Note_on_c, 1, 76, 127
2, 27640, Note_off_c, 1, 71, 0
2, 27640, Note_off_c, 1, 76, 0
2, 27680, Note_on_c, 1, 79, 127
2, 27720, Note_off_c, 1, 45, 0
2, 27720, Note_off_c, 1, 59, 0
2, 27720, Note_on_c, 1, 62, 127
2, 27720, Note_off_c, 1, 79, 0
2, 27800, Note_on_c, 1, 59, 127
2, 27800, Note_on_c, 1, 74, 127
2, 27920, Note_off_c, 1, 62, 0
2, 27920, Note_off_c, 1, 74, 0
2, 27960, Note_on_c, 1, 62, 127
2, 27960, Note_on_c, 1, 76, 127
2, 28000, Note_on_c, 1, 67, 127
2, 28000, Note_off_c, 1, 76, 0
2, 28080, Note_off_c, 1, 67, 0
2, 28120, Note_on_c, 1, 58, 127
2, 28120, Note_on_c, 1, 67, 127
2, 28160, Note_off_c, 1, 59, 0
2, 28200, Note_on_c, 1, 57, 127
2, 28200, Note_off_c, 1, 58, 0
2, 28320, Note_off_c, 1, 67, 0
2, 28360, Note_on_c, 1, 74, 127
2, 28520, Note_off_c, 1, 57, 0
2, 28560, Note_on_c, 1, 59, 127
2, 29320, Note_off_c, 1, 74, 0
2, 29360, Note_on_c, 1, 74, 127
2, 29520, Note_off_c, 1, 59, 0
2, 29520, Note_off_c, 1, 74, 0
2, 29600, Note_on_c, 1, 64, 127
2, 29600, Note_on_c, 1, 70, 127
2, 29640, Note_off_c, 1, 64, 0
2, 29640, Note_on_c, 1, 66, 127
2, 29720, Note_on_c, 1, 69, 127
2, 29720, Note_off_c, 1, 70, 0
2, 29760, Note_off_c, 1, 62, 0
2, 29760, Note_off_c, 1, 66, 0
2, 29760, Note_off_c, 1, 69, 0
2, 29760, Note_on_c, 1, 71, 127
2, 29800, Note_on_c, 1, 64, 127
2, 29800, Note_on_c, 1, 67, 127
2, 29960, Note_off_c, 1, 64, 0
2, 29960, Note_off_c, 1, 67, 0
2, 29960, Note_off_c, 1, 71, 0
2, 30000, Note_on_c, 1, 57, 127
2, 30000, Note_on_c, 1, 66, 127
2, 30000, Note_on_c, 1, 69, 127
2, 30000, Note_on_c, 1, 72, 127
2, 30040, Note_off_c, 1, 72, 0
2, 30040, Note_on_c, 1, 74, 127
2, 30480, Note_off_c, 1, 66, 0
2, 30480, Note_on_c, 1, 67, 127
2, 30520, Note_on_c, 1, 65, 127
2, 30520, Note_off_c, 1, 67, 0
2, 30560, Note_off_c, 1, 57, 0
2, 30560, Note_off_c, 1, 65, 0
2, 30560, Note_off_c, 1, 74, 0
2, 30600, Note_on_c, 1, 59, 127
2, 30600, Note_on_c, 1, 74, 127
2, 30760, Note_on_c, 1, 68, 127
2, 30760, Note_off_c, 1, 69, 0
2, 30800, Note_on_c, 1, 69, 127
2, 30840, Note_off_c, 1, 68, 0
2, 31120, Note_off_c, 1, 59, 0
2, 31120, Note_off_c, 1, 69, 0
2, 31120, Note_off_c, 1, 74, 0
2, 31160, Note_on_c, 1, 59, 127
2, 31160, Note_on_c, 1, 69, 127
2, 31160, Note_on_c, 1, 74, 127
2, 31320, Note_off_c, 1, 74, 0
2, 31360, Note_on_c, 1, 74, 127
2, 31440, Note_off_c, 1, 74, 0
2, 31480, Note_on_c, 1, 74, 127
2, 31520, Note_off_c, 1, 69, 0
2, 31560, Note_off_c, 1, 74, 0
2, 31600, Note_on_c, 1, 69, 127
2, 31800, Note_off_c, 1, 69, 0
2, 31840, Note_on_c, 1, 66, 127
2, 31840, Note_on_c, 1, 77, 127
2, 31880, Note_off_c, 1, 77, 0
2, 31920, Note_on_c, 1, 76, 127
2, 32120, Note_off_c, 1, 76, 0
2, 32160, Note_off_c, 1, 66, 0
2, 32160, Note_on_c, 1, 67, 127
2, 32160, Note_on_c, 1, 76, 127
2, 32520, Note_off_c, 1, 59, 0
2, 32520, Note_off_c, 1, 67, 0
2, 32520, Note_off_c, 1, 76, 0
2, 32560, Note_on_c, 1, 59, 127
2, 32560, Note_on_c, 1, 62, 127
2, 32560, Note_on_c, 1, 71, 127
2, 32600, Note_off_c, 1, 71, 0
2, 32600, Note_on_c, 1, 72, 127
2, 32680, Note_on_c, 1, 71, 127
2, 32680, Note_off_c, 1, 72, 0
2, 32760, Note_off_c, 1, 59, 0
2, 32760, Note_on_c, 1, 60, 127
2, 32800, Note_off_c, 1, 60, 0
2, 32800, Note_off_c, 1, 62, 0
2, 32840, Note_on_c, 1, 59, 127
2, 33120, Note_off_c, 1, 71, 0
2, 33160, Note_on_c, 1, 71, 127
2, 33240, Note_off_c, 1, 71, 0
2, 33320, Note_on_c, 1, 73, 127
2, 33440, Note_off_c, 1, 73, 0
2, 33480, Note_on_c, 1, 66, 127
2, 33480, Note_on_c, 1, 76, 127
2, 33640, Note_off_c, 1, 66, 0
2, 33640, Note_on_c, 1, 68, 127
2, 33680, Note_on_c, 1, 67, 127
2, 33680, Note_off_c, 1, 68, 0
2, 33760, Note_off_c, 1, 67, 0
2, 33760, Note_off_c, 1, 76, 0
2, 33800, Note_on_c, 1, 62, 127
2, 33800, Note_on_c, 1, 78, 127
2, 33840, Note_off_c, 1, 78, 0
2, 33840, Note_on_c, 1, 80, 127
2, 33960, Note_off_c, 1, 80, 0
2, 34000, Note_on_c, 1, 79, 127
2, 34280, Note_on_c, 1, 77, 127
2, 34280, Note_off_c, 1, 79, 0
2, 34360, Note_off_c, 1, 77, 0
2, 34400, Note_off_c, 1, 59, 0
2, 34400, Note_off_c, 1, 62, 0
2, 34440, Note_on_c, 1, 57, 127
2, 34440, Note_on_c, 1, 72, 127
2, 34440, Note_on_c, 1, 79, 127
2, 34560, Note_on_c, 1, 78, 127
2, 34560, Note_off_c, 1, 79, 0
2, 34640, Note_off_c, 1, 72, 0
2, 34640, Note_off_c, 1, 78, 0
2, 34680, Note_on_c, 1, 64, 127
2, 34680, Note_on_c, 1, 76, 127
2, 34840, Note_off_c, 1, 64, 0
2, 34840, Note_off_c, 1, 76, 0
2, 34880, Note_on_c, 1, 64, 127
2, 34880, Note_on_c, 1, 74, 127
2, 35200, Note_off_c, 1, 57, 0
2, 35200, Note_off_c, 1, 64, 0
2, 35200, Note_off_c, 1, 74, 0
2, 35240, Note_on_c, 1, 59, 127
2, 35240, Note_on_c, 1, 67, 127
2, 35240, Note_on_c, 1, 76, 127
2, 35440, Note_off_c, 1, 67, 0
2, 35440, Note_off_c, 1, 76, 0
2, 35480, Note_on_c, 1, 62, 127
2, 36200, Note_off_c, 1, 59, 0
2, 36240, Note_on_c, 1, 38, 127
2, 36760, Note_off_c, 1, 38, 0
2, 36800, Note_on_c, 1, 45, 127
2, 36960, Note_off_c, 1, 45, 0
2, 36960, Note_off_c, 1, 62, 0
2, 37000, Note_on_c, 1, 55, 127
2, 37000, Note_on_c, 1, 76, 127
2, 37520, Note_off_c, 1, 76, 0
2, 37560, Note_on_c, 1, 71, 127
2, 37920, Note_off_c, 1, 71, 0
2, 37960, Note_on_c, 1, 69, 127
2, 38120, Note_off_c, 1, 69, 0
2, 38160, Note_on_c, 1, 58, 127
2, 39040, Note_off_c, 1, 58, 0
2, 39040, Note_on_c, 1, 60, 127
2, 39360, Note_off_c, 1, 60, 0
2, 39400, Note_on_c, 1, 59, 127
2, 39560, Note_off_c, 1, 59, 0
2, 39600, Note_on_c, 1, 59, 127
2, 39800, Note_off_c, 1, 59, 0
2, 39840, Note_on_c, 1, 58, 127
2, 39960, Note_off_c, 1, 55, 0
2, 39960, Note_off_c, 1, 58, 0
2, 40000, Note_on_c, 1, 57, 127
2, 40000, Note_on_c, 1, 67, 127
2, 40040, Note_off_c, 1, 57, 0
2, 40120, Note_off_c, 1, 67, 0
2, 40160, Note_on_c, 1, 55, 127
2, 40160, Note_on_c, 1, 64, 127
2, 40360, Note_off_c, 1, 64, 0
2, 40800, Note_off_c, 1, 55, 0
2, 40840, Note_on_c, 1, 53, 127
2, 40840, Note_on_c, 1, 55, 127
2, 41040, Note_off_c, 1, 55, 0
2, 41120, Note_on_c, 1, 62, 127
2, 41280, Note_off_c, 1, 62, 0
2, 41320, Note_on_c, 1, 61, 127
2, 41480, Note_off_c, 1, 53, 0
2, 41520, Note_on_c, 1, 53, 127
2, 41720, Note_off_c, 1, 61, 0
2, 41880, Note_off_c, 1, 53, 0
2, 41920, Note_on_c, 1, 55, 127
2, 41960, Note_on_c, 1, 53, 127
2, 42160, Note_off_c, 1, 53, 0
2, 42160, Note_off_c, 1, 55, 0
2, 42200, Note_on_c, 1, 53, 127
2, 42200, Note_on_c, 1, 55, 127
2, 42240, Note_off_c, 1, 55, 0
2, 42240, Note_on_c, 1, 57, 127
2, 42320, Note_off_c, 1, 57, 0
2, 42360, Note_on_c, 1, 62, 127
2, 42480, Note_off_c, 1, 62, 0
2, 42520, Note_on_c, 1, 61, 127
2, 42640, Note_off_c, 1, 61, 0
2, 42680, Note_on_c, 1, 60, 127
2, 42840, Note_off_c, 1, 53, 0
2, 42840, Note_off_c, 1, 60, 0
2, 42880, Note_on_c, 1, 54, 127
2, 42880, Note_on_c, 1, 59, 127
2, 43000, Note_off_c, 1, 54, 0
2, 43000, Note_off_c, 1, 59, 0
2, 43040, Note_on_c, 1, 60, 127
2, 43200, Note_off_c, 1, 60, 0
2, 43280, Note_on_c, 1, 50, 127
2, 43280, Note_on_c, 1, 55, 127
2, 43320, Note_on_c, 1, 48, 127
2, 43320, Note_off_c, 1, 50, 0
2, 43360, Note_off_c, 1, 48, 0
2, 43360, Note_on_c, 1, 50, 127
2, 43400, Note_off_c, 1, 50, 0
2, 43440, Note_on_c, 1, 48, 127
2, 43560, Note_off_c, 1, 48, 0
2, 43560, Note_off_c, 1, 55, 0
2, 43600, Note_on_c, 1, 45, 127
2, 43600, Note_on_c, 1, 53, 127
2, 43760, Note_off_c, 1, 45, 0
2, 43760, Note_off_c, 1, 53, 0
2, 43800, Note_on_c, 1, 45, 127
2, 43800, Note_on_c, 1, 53, 127
2, 43920, Note_off_c, 1, 45, 0
2, 43920, Note_off_c, 1, 53, 0
2, 43960, Note_on_c, 1, 45, 127
2, 43960, Note_on_c, 1, 52, 127
2, 44080, Note_off_c, 1, 45, 0
2, 44080, Note_off_c, 1, 52, 0
2, 44120, Note_on_c, 1, 45, 127
2, 44200, Note_off_c, 1, 45, 0
2, 44240, Note_on_c, 1, 43, 127
2, 44240, Note_on_c, 1, 57, 127
2, 44320, Note_off_c, 1, 43, 0
2, 44320, Note_off_c, 1, 57, 0
2, 44360, Note_on_c, 1, 41, 127
2, 44360, Note_on_c, 1, 57, 127
2, 44480, Note_off_c, 1, 41, 0
2, 44480, Note_on_c, 1, 45, 127
2, 44480, Note_off_c, 1, 57, 0
2, 44520, Note_on_c, 1, 50, 127
2, 44520, Note_on_c, 1, 53, 127
2, 44600, Note_off_c, 1, 45, 0
2, 44600, Note_off_c, 1, 50, 0
2, 44600, Note_off_c, 1, 53, 0
2, 44640, Note_on_c, 1, 45, 127
2, 44640, Note_on_c, 1, 48, 127
2, 44760, Note_off_c, 1, 48, 0
2, 44760, Note_on_c, 1, 50, 127
2, 44800, Note_off_c, 1, 45, 0
2, 44800, Note_off_c, 1, 50, 0
2, 44840, Note_on_c, 1, 41, 127
2, 44880, Note_on_c, 1, 53, 127
2, 44920, Note_off_c, 1, 41, 0
2, 44920, Note_on_c, 1, 60, 127
2, 45000, Note_off_c, 1, 60, 0
2, 45040, Note_on_c, 1, 43, 127
2, 45040, Note_on_c, 1, 62, 127
2, 45120, Note_on_c, 1, 38, 127
2, 45120, Note_off_c, 1, 43, 0
2, 45280, Note_off_c, 1, 38, 0
2, 45280, Note_off_c, 1, 53, 0
2, 45320, Note_on_c, 1, 41, 127
2, 45320, Note_on_c, 1, 55, 127
2, 45400, Note_off_c, 1, 41, 0
2, 45400, Note_off_c, 1, 55, 0
2, 45440, Note_on_c, 1, 38, 127
2, 45440, Note_on_c, 1, 55, 127
2, 45600, Note_off_c, 1, 55, 0
2, 45640, Note_on_c, 1, 55, 127
2, 45760, Note_off_c, 1, 38, 0
2, 45760, Note_on_c, 1, 44, 127
2, 45800, Note_on_c, 1, 38, 127
2, 45800, Note_off_c, 1, 44, 0
2, 45840, Note_off_c, 1, 38, 0
2, 45880, Note_off_c, 1, 55, 0
2, 45920, Note_on_c, 1, 53, 127
2, 45920, Note_on_c, 1, 57, 127
2, 45920, Note_on_c, 1, 60, 127
2, 45920, Note_off_c, 1, 62, 0
2, 46080, Note_off_c, 1, 57, 0
2, 46200, Note_off_c, 1, 53, 0
2, 46200, Note_off_c, 1, 60, 0
2, 46240, Note_on_c, 1, 55, 127
2, 46240, Note_on_c, 1, 59, 127
2, 46440, Note_off_c, 1, 55, 0
2, 46480, Note_on_c, 1, 55, 127
2, 46720, Note_off_c, 1, 55, 0
2, 46760, Note_on_c, 1, 55, 127
2, 46960, Note_off_c, 1, 55, 0
2, 46960, Note_off_c, 1, 59, 0
2, 47040, Note_on_c, 1, 49, 127
2, 47040, Note_on_c, 1, 64, 127
2, 47200, Note_off_c, 1, 49, 0
2, 47200, Note_off_c, 1, 64, 0
2, 47720, Note_on_c, 1, 54, 127
2, 47720, Note_on_c, 1, 65, 127
2, 47840, Note_off_c, 1, 54, 0
2, 47880, Note_on_c, 1, 53, 127
2, 48120, Note_on_c, 1, 50, 127
2, 48120, Note_off_c, 1, 53, 0
2, 48280, Note_off_c, 1, 50, 0
2, 48280, Note_off_c, 1, 65, 0
2, 48320, Note_on_c, 1, 52, 127
2, 48320, Note_on_c, 1, 70, 127
2, 48440, Note_off_c, 1, 70, 0
2, 48480, Note_on_c, 1, 69, 127
2, 48600, Note_off_c, 1, 52, 0
2, 48600, Note_off_c, 1, 69, 0
2, 48640, Note_on_c, 1, 57, 127
2, 48640, Note_on_c, 1, 59, 127
2, 48720, Note_off_c, 1, 57, 0
2, 48760, Note_on_c, 1, 57, 127
2, 49000, Note_off_c, 1, 57, 0
2, 49000, Note_off_c, 1, 59, 0
2, 49040, Note_on_c, 1, 55, 127
2, 49040, Note_on_c, 1, 59, 127
2, 49320, Note_off_c, 1, 55, 0
2, 49360, Note_on_c, 1, 72, 127
2, 49400, Note_off_c, 1, 72, 0
2, 49440, Note_on_c, 1, 75, 127
2, 49520, Note_off_c, 1, 75, 0
2, 49560, Note_on_c, 1, 78, 127
2, 49680, Note_off_c, 1, 78, 0
2, 49720, Note_on_c, 1, 77, 127
2, 49760, Note_off_c, 1, 77, 0
2, 49880, Note_on_c, 1, 76, 127
2, 49960, Note_off_c, 1, 76, 0
2, 50000, Note_on_c, 1, 74, 127
2, 50080, Note_on_c, 1, 62, 127
2, 50080, Note_off_c, 1, 74, 0
2, 50120, Note_on_c, 1, 57, 127
2, 50120, Note_off_c, 1, 62, 0
2, 50160, Note_off_c, 1, 57, 0
2, 50200, Note_on_c, 1, 77, 127
2, 50360, Note_off_c, 1, 77, 0
2, 50400, Note_on_c, 1, 78, 127
2, 50480, Note_off_c, 1, 59, 0
2, 50480, Note_on_c, 1, 61, 127
2, 50560, Note_off_c, 1, 61, 0
2, 50560, Note_off_c, 1, 78, 0
2, 50600, Note_on_c, 1, 57, 127
2, 50600, Note_on_c, 1, 61, 127
2, 50600, Note_on_c, 1, 81, 127
2, 50640, Note_on_c, 1, 80, 127
2, 50640, Note_off_c, 1, 81, 0
2, 50680, Note_off_c, 1, 80, 0
2, 50680, Note_on_c, 1, 81, 127
2, 50800, Note_off_c, 1, 57, 0
2, 50800, Note_off_c, 1, 61, 0
2, 50800, Note_on_c, 1, 76, 127
2, 50800, Note_off_c, 1, 81, 0
2, 50840, Note_on_c, 1, 62, 127
2, 51080, Note_off_c, 1, 76, 0
2, 51120, Note_on_c, 1, 74, 127
2, 51520, Note_off_c, 1, 62, 0
2, 51560, Note_on_c, 1, 60, 127
2, 51720, Note_off_c, 1, 74, 0
2, 51760, Note_on_c, 1, 73, 127
2, 51840, Note_on_c, 1, 72, 127
2, 51840, Note_off_c, 1, 73, 0
2, 51880, Note_off_c, 1, 72, 0
2, 51920, Note_on_c, 1, 67, 127
2, 52040, Note_off_c, 1, 60, 0
2, 52040, Note_off_c, 1, 67, 0
2, 52040, Note_on_c, 1, 69, 127
2, 52080, Note_on_c, 1, 60, 127
2, 52280, Note_off_c, 1, 69, 0
2, 52320, Note_on_c, 1, 63, 127
2, 52320, Note_on_c, 1, 69, 127
2, 52560, Note_off_c, 1, 60, 0
2, 52560, Note_on_c, 1, 62, 127
2, 52560, Note_off_c, 1, 63, 0
2, 52600, Note_on_c, 1, 58, 127
2, 52640, Note_off_c, 1, 58, 0
2, 52760, Note_off_c, 1, 62, 0
2, 52800, Note_on_c, 1, 57, 127
2, 52800, Note_on_c, 1, 62, 127
2, 52960, Note_off_c, 1, 57, 0
2, 52960, Note_off_c, 1, 62, 0
2, 52960, Note_off_c, 1, 69, 0
2, 53000, Note_on_c, 1, 55, 127
2, 53000, Note_on_c, 1, 60, 127
2, 53040, Note_on_c, 1, 69, 127
2, 53080, Note_off_c, 1, 55, 0
2, 53080, Note_on_c, 1, 57, 127
2, 53120, Note_off_c, 1, 57, 0
2, 53160, Note_on_c, 1, 62, 127
2, 53280, Note_off_c, 1, 62, 0
2, 53320, Note_on_c, 1, 62, 127
2, 53360, Note_on_c, 1, 57, 127
2, 53360, Note_off_c, 1, 62, 0
2, 53440, Note_off_c, 1, 57, 0
2, 53440, Note_off_c, 1, 60, 0
2, 53440, Note_off_c, 1, 69, 0
2, 53480, Note_on_c, 1, 52, 127
2, 53480, Note_on_c, 1, 65, 127
2, 53600, Note_off_c, 1, 52, 0
2, 53600, Note_off_c, 1, 65, 0
2, 53640, Note_on_c, 1, 52, 127
2, 53640, Note_on_c, 1, 67, 127
2, 53640, Note_on_c, 1, 72, 127
2, 53760, Note_off_c, 1, 72, 0
2, 53800, Note_on_c, 1, 77, 127
2, 53880, Note_off_c, 1, 52, 0
2, 53880, Note_off_c, 1, 77, 0
2, 53920, Note_on_c, 1, 52, 127
2, 53920, Note_on_c, 1, 81, 127
2, 53960, Note_on_c, 1, 79, 127
2, 53960, Note_off_c, 1, 81, 0
2, 54080, Note_off_c, 1, 52, 0
2, 54080, Note_off_c, 1, 67, 0
2, 54120, Note_on_c, 1, 54, 127
2, 54120, Note_on_c, 1, 69, 127
2, 54280, Note_off_c, 1, 79, 0
2, 54320, Note_on_c, 1, 77, 127
2, 54440, Note_off_c, 1, 54, 0
2, 54440, Note_off_c, 1, 77, 0
2, 54480, Note_on_c, 1, 52, 127
2, 54480, Note_on_c, 1, 72, 127
2, 54680, Note_off_c, 1, 52, 0
2, 54680, Note_off_c, 1, 69, 0
2, 54720, Note_on_c, 1, 52, 127
2, 54720, Note_on_c, 1, 65, 127
2, 54760, Note_off_c, 1, 65, 0
2, 54760, Note_on_c, 1, 69, 127
2, 54760, Note_off_c, 1, 72, 0
2, 54760, Note_on_c, 1, 74, 127
2, 54840, Note_off_c, 1, 52, 0
2, 54840, Note_off_c, 1, 74, 0
2, 54880, Note_on_c, 1, 52, 127
2, 54880, Note_on_c, 1, 77, 127
2, 54920, Note_off_c, 1, 52, 0
2, 54920, Note_on_c, 1, 53, 127
2, 54960, Note_off_c, 1, 53, 0
2, 54960, Note_off_c, 1, 77, 0
2, 55000, Note_on_c, 1, 52, 127
2, 55000, Note_on_c, 1, 79, 127
2, 55080, Note_off_c, 1, 52, 0
2, 55080, Note_off_c, 1, 69, 0
2, 55120, Note_on_c, 1, 52, 127
2, 55120, Note_on_c, 1, 69, 127
2, 55120, Note_on_c, 1, 76, 127
2, 55120, Note_off_c, 1, 79, 0
2, 55400, Note_off_c, 1, 52, 0
2, 55440, Note_on_c, 1, 50, 127
2, 55440, Note_on_c, 1, 74, 127
2, 55440, Note_off_c, 1, 76, 0
2, 55560, Note_off_c, 1, 50, 0
2, 55560, Note_off_c, 1, 69, 0
2, 55560, Note_off_c, 1, 74, 0
2, 55600, Note_on_c, 1, 55, 127
2, 55600, Note_on_c, 1, 74, 127
2, 55760, Note_off_c, 1, 55, 0
2, 55760, Note_off_c, 1, 74, 0
2, 55800, Note_on_c, 1, 52, 127
2, 55800, Note_on_c, 1, 74, 127
2, 55800, Note_on_c, 1, 76, 127
2, 55880, Note_off_c, 1, 74, 0
2, 55920, Note_off_c, 1, 52, 0
2, 55920, Note_off_c, 1, 76, 0
2, 55960, Note_on_c, 1, 54, 127
2, 55960, Note_on_c, 1, 71, 127
2, 55960, Note_on_c, 1, 74, 127
2, 56120, Note_off_c, 1, 54, 0
2, 56120, Note_off_c, 1, 71, 0
2, 56120, Note_off_c, 1, 74, 0
2, 56160, Note_on_c, 1, 57, 127
2, 56160, Note_on_c, 1, 74, 127
2, 56160, Note_on_c, 1, 79, 127
2, 56280, Note_off_c, 1, 79, 0
2, 56280, Note_on_c, 1, 81, 127
2, 56320, Note_on_c, 1, 78, 127
2, 56320, Note_off_c, 1, 81, 0
2, 56360, Note_off_c, 1, 57, 0
2, 56360, Note_on_c, 1, 72, 127
2, 56360, Note_off_c, 1, 74, 0
2, 56360, Note_off_c, 1, 78, 0
2, 56360, Note_on_c, 1, 81, 127
2, 56400, Note_on_c, 1, 57, 127
2, 56400, Note_on_c, 1, 80, 127
2, 56400, Note_off_c, 1, 81, 0
2, 56440, Note_off_c, 1, 80, 0
2, 56440, Note_on_c, 1, 81, 127
2, 56480, Note_off_c, 1, 72, 0
2, 56480, Note_on_c, 1, 73, 127
2, 56720, Note_off_c, 1, 73, 0
2, 56720, Note_off_c, 1, 81, 0
2, 56760, Note_on_c, 1, 76, 127
2, 56760, Note_on_c, 1, 79, 127
2, 56840, Note_on_c, 1, 74, 127
2, 56840, Note_off_c, 1, 76, 0
2, 57040, Note_off_c, 1, 57, 0
2, 57080, Note_on_c, 1, 50, 127
2, 57160, Note_off_c, 1, 79, 0
2, 57160, Note_on_c, 1, 81, 127
2, 57200, Note_on_c, 1, 79, 127
2, 57200, Note_off_c, 1, 81, 0
2, 57240, Note_off_c, 1, 74, 0
2, 57240, Note_on_c, 1, 77, 127
2, 57240, Note_off_c, 1, 79, 0
2, 57240, Note_on_c, 1, 81, 127
2, 57400, Note_off_c, 1, 50, 0
2, 57400, Note_on_c, 1, 53, 127
2, 57400, Note_on_c, 1, 80, 127
2, 57400, Note_off_c, 1, 81, 0
2, 57440, Note_on_c, 1, 50, 127
2, 57440, Note_off_c, 1, 53, 0
2, 57440, Note_off_c, 1, 80, 0
2, 57440, Note_on_c, 1, 81, 127
2, 57480, Note_on_c, 1, 79, 127
2, 57480, Note_off_c, 1, 81, 0
2, 57520, Note_off_c, 1, 79, 0
2, 57520, Note_on_c, 1, 81, 127
2, 57600, Note_on_c, 1, 78, 127
2, 57600, Note_off_c, 1, 81, 0
2, 57640, Note_on_c, 1, 73, 127
2, 57640, Note_off_c, 1, 78, 0
2, 57720, Note_off_c, 1, 50, 0
2, 57720, Note_off_c, 1, 73, 0
2, 57720, Note_on_c, 1, 74, 127
2, 57720, Note_off_c, 1, 77, 0
2, 57760, Note_on_c, 1, 52, 127
2, 57760, Note_on_c, 1, 79, 127
2, 57840, Note_off_c, 1, 74, 0
2, 57840, Note_on_c, 1, 76, 127
2, 57920, Note_on_c, 1, 74, 127
2, 57920, Note_off_c, 1, 76, 0
2, 57960, Note_off_c, 1, 52, 0
2, 57960, Note_off_c, 1, 74, 0
2, 57960, Note_off_c, 1, 79, 0
2, 58040, Note_on_c, 1, 53, 127
2, 58040, Note_on_c, 1, 71, 127
2, 58040, Note_on_c, 1, 79, 127
2, 58080, Note_on_c, 1, 69, 127
2, 58080, Note_off_c, 1, 71, 0
2, 58280, Note_off_c, 1, 79, 0
2, 58280, Note_on_c, 1, 81, 127
2, 58560, Note_off_c, 1, 53, 0
2, 58560, Note_off_c, 1, 69, 0
2, 58600, Note_on_c, 1, 55, 127
2, 58600, Note_on_c, 1, 69, 127
2, 58640, Note_on_c, 1, 79, 127
2, 58640, Note_off_c, 1, 81, 0
2, 59040, Note_off_c, 1, 55, 0
2, 59040, Note_off_c, 1, 69, 0
2, 59040, Note_off_c, 1, 79, 0
2, 59080, Note_on_c, 1, 52, 127
2, 59080, Note_on_c, 1, 69, 127
2, 59080, Note_on_c, 1, 76, 127
2, 59240, Note_off_c, 1, 76, 0
2, 59240, Note_on_c, 1, 79, 127
2, 59280, Note_off_c, 1, 52, 0
2, 59280, Note_off_c, 1, 79, 0
2, 59320, Note_on_c, 1, 52, 127
2, 59320, Note_on_c, 1, 72, 127
2, 59640, Note_off_c, 1, 72, 0
2, 59680, Note_on_c, 1, 74, 127
2, 59800, Note_off_c, 1, 52, 0
2, 59800, Note_off_c, 1, 74, 0
2, 59840, Note_on_c, 1, 54, 127
2, 60040, Note_on_c, 1, 79, 127
2, 60520, Note_off_c, 1, 79, 0
2, 60560, Note_on_c, 1, 79, 127
2, 60640, Note_on_c, 1, 51, 127
2, 60640, Note_off_c, 1, 54, 0
2, 60680, Note_off_c, 1, 51, 0
2, 60680, Note_off_c, 1, 79, 0
2, 60800, Note_on_c, 1, 76, 127
2, 61040, Note_off_c, 1, 76, 0
2, 61080, Note_on_c, 1, 77, 127
2, 61120, Note_on_c, 1, 74, 127
2, 61120, Note_off_c, 1, 77, 0
2, 61240, Note_on_c, 1, 72, 127
2, 61240, Note_off_c, 1, 74, 0
2, 61320, Note_off_c, 1, 72, 0
2, 61320, Note_on_c, 1, 74, 127
2, 61480, End_track
3, 0, Start_track
3, 0, Title_t, "MIDI"
3, 1536, End_track
0, 0, End_of_file
