0, 0, Header, 1, 3, 384
1, 0, Start_track
1, 0, Time_signature, 4, 2, 24, 8
1, 0, Tempo, 500000
1, 59760, End_track
2, 0, Start_track
2, 0, Text_t, "harpsichord: John Sankey"
2, 0, Title_t, "Track 1"
2, 0, Note_on_c, 1, 38, 127
2, 0, Note_on_c, 1, 54, 127
2, 0, Note_on_c, 1, 62, 127
2, 0, Note_on_c, 1, 67, 127
2, 40, Note_on_c, 1, 50, 127
2, 80, Note_off_c, 1, 38, 0
2, 80, Note_off_c, 1, 50, 0
2, 80, Note_off_c, 1, 54, 0
2, 80, Note_off_c, 1, 62, 0
2, 80, Note_off_c, 1, 67, 0
2, 120, Note_on_c, 1, 41, 127
2, 120, Note_on_c, 1, 48, 127
2, 120, Note_on_c, 1, 63, 127
2, 120, Note_on_c, 1, 69, 127
2, 160, Note_on_c, 1, 36, 127
2, 160, Note_off_c, 1, 41, 0
2, 240, Note_off_c, 1, 63, 0
2, 240, Note_off_c, 1, 69, 0
2, 280, Note_on_c, 1, 45, 127
2, 280, Note_off_c, 1, 48, 0
2, 280, Note_on_c, 1, 60, 127
2, 280, Note_on_c, 1, 67, 127
2, 320, Note_off_c, 1, 45, 0
2, 320, Note_off_c, 1, 67, 0
2, 360, Note_on_c, 1, 67, 127
2, 400, Note_off_c, 1, 60, 0
2, 440, Note_on_c, 1, 31, 127
2, 440, Note_off_c, 1, 36, 0
2, 440, Note_on_c, 1, 62, 127
2, 440, Note_on_c, 1, 66, 127
2, 440, Note_off_c, 1, 67, 0
2, 480, Note_off_c, 1, 31, 0
2, 480, Note_on_c, 1, 35, 127
2, 520, Note_off_c, 1, 35, 0
2, 520, Note_off_c, 1, 66, 0
2, 560, Note_on_c, 1, 43, 127
2, 560, Note_on_c, 1, 66, 127
2, 640, Note_off_c, 1, 43, 0
2, 640, Note_off_c, 1, 62, 0
2, 640, Note_off_c, 1, 66, 0
2, 720, Note_on_c, 1, 43, 127
2, 720, Note_on_c, 1, 63, 127
2, 720, Note_on_c, 1, 67, 127
2, 840, Note_off_c, 1, 43, 0
2, 840, Note_off_c, 1, 63, 0
2, 840, Note_off_c, 1, 67, 0
2, 920, Note_on_c, 1, 73, 127
2, 1080, Note_off_c, 1, 73, 0
2, 1080, Note_on_c, 1, 75, 127
2, 1120, Note_on_c, 1, 60, 127
2, 1160, Note_on_c, 1, 63, 127
2, 1280, Note_off_c, 1, 63, 0
2, 1320, Note_on_c, 1, 62, 127
2, 1320, Note_off_c, 1, 75, 0
2, 1320, Note_on_c, 1, 78, 127
2, 1360, Note_off_c, 1, 62, 0
2, 1400, Note_on_c, 1, 63, 127
2, 1440, Note_off_c, 1, 63, 0
2, 1440, Note_off_c, 1, 78, 0
2, 1480, Note_on_c, 1, 59, 127
2, 1480, Note_off_c, 1, 60, 0
2, 1480, Note_on_c, 1, 77, 127
2, 1600, Note_off_c, 1, 59, 0
2, 1600, Note_off_c, 1, 77, 0
2, 1640, Note_on_c, 1, 42, 127
2, 1640, Note_on_c, 1, 76, 127
2, 1680, Note_off_c, 1, 42, 0
2, 1680, Note_on_c, 1, 45, 127
2, 1760, Note_off_c, 1, 76, 0
2, 1800, Note_on_c, 1, 42, 127
2, 1800, Note_off_c, 1, 45, 0
2, 1800, Note_on_c, 1, 78, 127
2, 1840, Note_off_c, 1, 78, 0
2, 1840, Note_on_c, 1, 79, 127
2, 1880, Note_off_c, 1, 79, 0
2, 1920, Note_off_c, 1, 42, 0
2, 1920, Note_on_c, 1, 78, 127
2, 1960, Note_on_c, 1, 47, 127
2, 2080, Note_off_c, 1, 47, 0
2, 2120, Note_on_c, 1, 59, 127
2, 2320, Note_off_c, 1, 59, 0
2, 2320, Note_off_c, 1, 78, 0
2, 2360, Note_on_c, 1, 54, 127
2, 2360, Note_on_c, 1, 76, 127
2, 2360, Note_on_c, 1, 78, 127
2, 2480, Note_off_c, 1, 54, 0
2, 2480, Note_off_c, 1, 76, 0
2, 2520, Note_on_c, 1, 57, 127
2, 2520, Note_on_c, 1, 66, 127
2, 2520, Note_on_c, 1, 75, 127
2, 2520, Note_off_c, 1, 78, 0
2, 2680, Note_off_c, 1, 57, 0
2, 2720, Note_on_c, 1, 54, 127
2, 2840, Note_off_c, 1, 54, 0
2, 2880, Note_on_c, 1, 46, 127
2, 2920, Note_off_c, 1, 46, 0
2, 2920, Note_on_c, 1, 48, 127
2, 3000, Note_off_c, 1, 48, 0
2, 3000, Note_off_c, 1, 75, 0
2, 3040, Note_on_c, 1, 49, 127
2, 3040, Note_on_c, 1, 76, 127
2, 3160, Note_off_c, 1, 49, 0
2, 3160, Note_off_c, 1, 76, 0
2, 3160, Note_on_c, 1, 78, 127
2, 3200, Note_on_c, 1, 45, 127
2, 3320, Note_off_c, 1, 45, 0
2, 3320, Note_off_c, 1, 78, 0
2, 3360, Note_on_c, 1, 54, 127
2, 3360, Note_on_c, 1, 78, 127
2, 3560, Note_off_c, 1, 54, 0
2, 3560, Note_off_c, 1, 66, 0
2, 3560, Note_off_c, 1, 78, 0
2, 3600, Note_on_c, 1, 57, 127
2, 3600, Note_on_c, 1, 66, 127
2, 3600, Note_on_c, 1, 78, 127
2, 3720, Note_off_c, 1, 66, 0
2, 3800, Note_off_c, 1, 57, 0
2, 3840, Note_on_c, 1, 59, 127
2, 3840, Note_on_c, 1, 66, 127
2, 3920, Note_off_c, 1, 59, 0
2, 3920, Note_off_c, 1, 78, 0
2, 3960, Note_on_c, 1, 59, 127
2, 3960, Note_on_c, 1, 78, 127
2, 4120, Note_off_c, 1, 59, 0
2, 4120, Note_off_c, 1, 66, 0
2, 4120, Note_on_c, 1, 76, 127
2, 4120, Note_off_c, 1, 78, 0
2, 4160, Note_on_c, 1, 59, 127
2, 4160, Note_on_c, 1, 68, 127
2, 4160, Note_off_c, 1, 76, 0
2, 4160, Note_on_c, 1, 78, 127
2, 4280, Note_off_c, 1, 59, 0
2, 4280, Note_off_c, 1, 68, 0
2, 4280, Note_off_c, 1, 78, 0
2, 4320, Note_on_c, 1, 58, 127
2, 4320, Note_on_c, 1, 67, 127
2, 4320, Note_on_c, 1, 76, 127
2, 4600, Note_off_c, 1, 58, 0
2, 4600, Note_off_c, 1, 67, 0
2, 4600, Note_off_c, 1, 76, 0
2, 4640, Note_on_c, 1, 60, 127
2, 4640, Note_on_c, 1, 72, 127
2, 4640, Note_on_c, 1, 78, 127
2, 4720, Note_on_c, 1, 75, 127
2, 4720, Note_off_c, 1, 78, 0
2, 4920, Note_off_c, 1, 72, 0
2, 4920, Note_off_c, 1, 75, 0
2, 4960, Note_on_c, 1, 67, 127
2, 4960, Note_on_c, 1, 75, 127
2, 5280, Note_off_c, 1, 67, 0
2, 5320, Note_on_c, 1, 66, 127
2, 5440, Note_off_c, 1, 66, 0
2, 5440, Note_off_c, 1, 75, 0
2, 5920, Note_off_c, 1, 60, 0
2, 5920, Note_on_c, 1, 69, 127
2, 6120, Note_off_c, 1, 69, 0
2, 6160, Note_on_c, 1, 69, 127
2, 6360, Note_on_c, 1, 62, 127
2, 6360, Note_off_c, 1, 69, 0
2, 6640, Note_on_c, 1, 71, 127
2, 6880, Note_on_c, 1, 74, 127
2, 7000, Note_off_c, 1, 62, 0
2, 7000, Note_off_c, 1, 71, 0
2, 7000, Note_off_c, 1, 74, 0
2, 7040, Note_on_c, 1, 63, 127
2, 7120, Note_on_c, 1, 77, 127
2, 7200, Note_off_c, 1, 77, 0
2, 7240, Note_on_c, 1, 71, 127
2, 7280, Note_off_c, 1, 71, 0
2, 7280, Note_on_c, 1, 72, 127
2, 7360, Note_off_c, 1, 63, 0
2, 7400, Note_on_c, 1, 50, 127
2, 7520, Note_off_c, 1, 50, 0
2, 7560, Note_on_c, 1, 50, 127
2, 7720, Note_off_c, 1, 50, 0
2, 7760, Note_on_c, 1, 50, 127
2, 7880, Note_off_c, 1, 72, 0
2, 7960, Note_on_c, 1, 69, 127
2, 8200, Note_off_c, 1, 69, 0
2, 8240, Note_on_c, 1, 71, 127
2, 8320, Note_off_c, 1, 71, 0
2, 8400, Note_on_c, 1, 70, 127
2, 8440, Note_on_c, 1, 78, 127
2, 8520, Note_off_c, 1, 50, 0
2, 8520, Note_off_c, 1, 70, 0
2, 8560, Note_on_c, 1, 49, 127
2, 8560, Note_on_c, 1, 69, 127
2, 8680, Note_off_c, 1, 49, 0
2, 8680, Note_off_c, 1, 69, 0
2, 8680, Note_off_c, 1, 78, 0
2, 8720, Note_on_c, 1, 64, 127
2, 8720, Note_on_c, 1, 78, 127
2, 8720, Note_on_c, 1, 82, 127
2, 8840, Note_off_c, 1, 78, 0
2, 8880, Note_off_c, 1, 64, 0
2, 8880, Note_on_c, 1, 81, 127
2, 8880, Note_off_c, 1, 82, 0
2, 8920, Note_on_c, 1, 76, 127
2, 9000, Note_on_c, 1, 69, 127
2, 9000, Note_off_c, 1, 76, 0
2, 9000, Note_off_c, 1, 81, 0
2, 9000, Note_on_c, 1, 82, 127
2, 9040, Note_off_c, 1, 69, 0
2, 9040, Note_on_c, 1, 76, 127
2, 9040, Note_on_c, 1, 81, 127
2, 9040, Note_off_c, 1, 82, 0
2, 9160, Note_on_c, 1, 78, 127
2, 9160, Note_off_c, 1, 81, 0
2, 9200, Note_off_c, 1, 76, 0
2, 9240, Note_on_c, 1, 69, 127
2, 9240, Note_on_c, 1, 73, 127
2, 9240, Note_off_c, 1, 78, 0
2, 9280, Note_off_c, 1, 73, 0
2, 9280, Note_on_c, 1, 75, 127
2, 9600, Note_off_c, 1, 69, 0
2, 9600, Note_off_c, 1, 75, 0
2, 9640, Note_on_c, 1, 67, 127
2, 9640, Note_on_c, 1, 73, 127
2, 9840, Note_off_c, 1, 67, 0
2, 9880, Note_on_c, 1, 57, 127
2, 9880, Note_on_c, 1, 80, 127
2, 9920, Note_off_c, 1, 73, 0
2, 9920, Note_on_c, 1, 78, 127
2, 9920, Note_off_c, 1, 80, 0
2, 10040, Note_off_c, 1, 57, 0
2, 10040, Note_on_c, 1, 59, 127
2, 10120, Note_off_c, 1, 59, 0
2, 10120, Note_on_c, 1, 81, 127
2, 10160, Note_off_c, 1, 78, 0
2, 10160, Note_off_c, 1, 81, 0
2, 10200, Note_on_c, 1, 54, 127
2, 10200, Note_on_c, 1, 79, 127
2, 10280, Note_on_c, 1, 50, 127
2, 10280, Note_off_c, 1, 54, 0
2, 10280, Note_on_c, 1, 74, 127
2, 10280, Note_off_c, 1, 79, 0
2, 10360, Note_off_c, 1, 74, 0
2, 10400, Note_on_c, 1, 78, 127
2, 10560, Note_on_c, 1, 82, 127
2, 10760, Note_off_c, 1, 82, 0
2, 10840, Note_on_c, 1, 81, 127
2, 10960, Note_off_c, 1, 78, 0
2, 10960, Note_off_c, 1, 81, 0
2, 11000, Note_on_c, 1, 78, 127
2, 11000, Note_on_c, 1, 81, 127
2, 11080, Note_off_c, 1, 78, 0
2, 11160, Note_on_c, 1, 76, 127
2, 11200, Note_off_c, 1, 76, 0
2, 11240, Note_on_c, 1, 78, 127
2, 11240, Note_on_c, 1, 79, 127
2, 11240, Note_off_c, 1, 81, 0
2, 11280, Note_off_c, 1, 78, 0
2, 11280, Note_on_c, 1, 82, 127
2, 11600, Note_off_c, 1, 50, 0
2, 11600, Note_off_c, 1, 82, 0
2, 11640, Note_on_c, 1, 47, 127
2, 11640, Note_on_c, 1, 81, 127
2, 11680, Note_on_c, 1, 78, 127
2, 11680, Note_off_c, 1, 79, 0
2, 11680, Note_off_c, 1, 81, 0
2, 11720, Note_on_c, 1, 81, 127
2, 11760, Note_on_c, 1, 66, 127
2, 11760, Note_off_c, 1, 78, 0
2, 11800, Note_on_c, 1, 43, 127
2, 11800, Note_off_c, 1, 66, 0
2, 11840, Note_off_c, 1, 43, 0
2, 11840, Note_off_c, 1, 47, 0
2, 11840, Note_off_c, 1, 81, 0
2, 11880, Note_on_c, 1, 40, 127
2, 11880, Note_on_c, 1, 76, 127
2, 11880, Note_on_c, 1, 78, 127
2, 11920, Note_on_c, 1, 75, 127
2, 11920, Note_off_c, 1, 76, 0
2, 12000, Note_off_c, 1, 75, 0
2, 12040, Note_off_c, 1, 78, 0
2, 12080, Note_on_c, 1, 76, 127
2, 12080, Note_on_c, 1, 78, 127
2, 12160, Note_on_c, 1, 35, 127
2, 12160, Note_off_c, 1, 40, 0
2, 12200, Note_off_c, 1, 35, 0
2, 12200, Note_on_c, 1, 40, 127
2, 12200, Note_off_c, 1, 76, 0
2, 12440, Note_off_c, 1, 40, 0
2, 12440, Note_off_c, 1, 78, 0
2, 12480, Note_on_c, 1, 48, 127
2, 12480, Note_on_c, 1, 76, 127
2, 12480, Note_on_c, 1, 78, 127
2, 12600, Note_off_c, 1, 76, 0
2, 12600, Note_off_c, 1, 78, 0
2, 12680, Note_on_c, 1, 46, 127
2, 12680, Note_off_c, 1, 48, 0
2, 12680, Note_on_c, 1, 78, 127
2, 12720, Note_off_c, 1, 46, 0
2, 12720, Note_off_c, 1, 78, 0
2, 12760, Note_on_c, 1, 46, 127
2, 12760, Note_on_c, 1, 69, 127
2, 12760, Note_on_c, 1, 75, 127
2, 12800, Note_on_c, 1, 41, 127
2, 12800, Note_off_c, 1, 46, 0
2, 12880, Note_off_c, 1, 69, 0
2, 12880, Note_off_c, 1, 75, 0
2, 12880, Note_on_c, 1, 78, 127
2, 12960, Note_off_c, 1, 41, 0
2, 12960, Note_on_c, 1, 45, 127
2, 13080, Note_off_c, 1, 45, 0
2, 13200, Note_on_c, 1, 64, 127
2, 13320, Note_on_c, 1, 57, 127
2, 13320, Note_off_c, 1, 64, 0
2, 13600, Note_off_c, 1, 57, 0
2, 13600, Note_off_c, 1, 78, 0
2, 13680, Note_on_c, 1, 50, 127
2, 13680, Note_on_c, 1, 66, 127
2, 13680, Note_on_c, 1, 78, 127
2, 13840, Note_off_c, 1, 66, 0
2, 13880, Note_on_c, 1, 66, 127
2, 14000, Note_off_c, 1, 66, 0
2, 14040, Note_on_c, 1, 80, 127
2, 14200, Note_off_c, 1, 80, 0
2, 14240, Note_on_c, 1, 81, 127
2, 14280, Note_off_c, 1, 78, 0
2, 14320, Note_off_c, 1, 50, 0
2, 14320, Note_off_c, 1, 81, 0
2, 14360, Note_on_c, 1, 49, 127
2, 14360, Note_on_c, 1, 81, 127
2, 14600, Note_off_c, 1, 49, 0
2, 14600, Note_off_c, 1, 81, 0
2, 14640, Note_on_c, 1, 46, 127
2, 14640, Note_on_c, 1, 76, 127
2, 14720, Note_off_c, 1, 76, 0
2, 14720, Note_on_c, 1, 78, 127
2, 14760, Note_off_c, 1, 46, 0
2, 14760, Note_off_c, 1, 78, 0
2, 14800, Note_on_c, 1, 49, 127
2, 14800, Note_on_c, 1, 69, 127
2, 14800, Note_on_c, 1, 81, 127
2, 14840, Note_on_c, 1, 78, 127
2, 14840, Note_off_c, 1, 81, 0
2, 15000, Note_off_c, 1, 49, 0
2, 15040, Note_on_c, 1, 48, 127
2, 15080, Note_on_c, 1, 68, 127
2, 15080, Note_off_c, 1, 69, 0
2, 15400, Note_off_c, 1, 48, 0
2, 15400, Note_off_c, 1, 68, 0
2, 15440, Note_on_c, 1, 51, 127
2, 15440, Note_on_c, 1, 71, 127
2, 15640, Note_off_c, 1, 51, 0
2, 15640, Note_off_c, 1, 78, 0
2, 15680, Note_on_c, 1, 50, 127
2, 15680, Note_on_c, 1, 76, 127
2, 15840, Note_off_c, 1, 71, 0
2, 15840, Note_off_c, 1, 76, 0
2, 15880, Note_on_c, 1, 71, 127
2, 15880, Note_on_c, 1, 76, 127
2, 15960, Note_off_c, 1, 71, 0
2, 15960, Note_on_c, 1, 74, 127
2, 15960, Note_off_c, 1, 76, 0
2, 16000, Note_on_c, 1, 79, 127
2, 16120, Note_off_c, 1, 74, 0
2, 16160, Note_off_c, 1, 79, 0
2, 16200, Note_on_c, 1, 75, 127
2, 16200, Note_on_c, 1, 78, 127
2, 16280, Note_off_c, 1, 75, 0
2, 16360, Note_on_c, 1, 82, 127
2, 16600, Note_off_c, 1, 82, 0
2, 16760, Note_off_c, 1, 78, 0
2, 16800, Note_on_c, 1, 80, 127
2, 17040, Note_on_c, 1, 78, 127
2, 17040, Note_off_c, 1, 80, 0
2, 17080, Note_off_c, 1, 78, 0
2, 17120, Note_on_c, 1, 77, 127
2, 17720, Note_off_c, 1, 77, 0
2, 17760, Note_on_c, 1, 77, 127
2, 17920, Note_on_c, 1, 69, 127
2, 18080, Note_off_c, 1, 50, 0
2, 18080, Note_off_c, 1, 69, 0
2, 18080, Note_off_c, 1, 77, 0
2, 18120, Note_on_c, 1, 45, 127
2, 18120, Note_on_c, 1, 72, 127
2, 18120, Note_on_c, 1, 78, 127
2, 18120, Note_on_c, 1, 81, 127
2, 18160, Note_on_c, 1, 41, 127
2, 18160, Note_off_c, 1, 45, 0
2, 18200, Note_off_c, 1, 41, 0
2, 18200, Note_on_c, 1, 45, 127
2, 18240, Note_off_c, 1, 45, 0
2, 18240, Note_off_c, 1, 81, 0
2, 18280, Note_on_c, 1, 47, 127
2, 18280, Note_off_c, 1, 72, 0
2, 18280, Note_off_c, 1, 78, 0
2, 18320, Note_on_c, 1, 74, 127
2, 18320, Note_on_c, 1, 78, 127
2, 18360, Note_off_c, 1, 74, 0
2, 18360, Note_on_c, 1, 75, 127
2, 18400, Note_off_c, 1, 47, 0
2, 18400, Note_off_c, 1, 75, 0
2, 18400, Note_off_c, 1, 78, 0
2, 18440, Note_on_c, 1, 73, 127
2, 18440, Note_on_c, 1, 77, 127
2, 18520, Note_off_c, 1, 73, 0
2, 18520, Note_on_c, 1, 74, 127
2, 18560, Note_on_c, 1, 72, 127
2, 18560, Note_off_c, 1, 74, 0
2, 18600, Note_off_c, 1, 72, 0
2, 18600, Note_on_c, 1, 74, 127
2, 18760, Note_off_c, 1, 74, 0
2, 18760, Note_off_c, 1, 77, 0
2, 18800, Note_on_c, 1, 74, 127
2, 18800, Note_on_c, 1, 77, 127
2, 18840, Note_on_c, 1, 81, 127
2, 18880, Note_off_c, 1, 74, 0
2, 18880, Note_off_c, 1, 77, 0
2, 18920, Note_on_c, 1, 72, 127
2, 18920, Note_on_c, 1, 76, 127
2, 18920, Note_on_c, 1, 79, 127
2, 18920, Note_off_c, 1, 81, 0
2, 18960, Note_off_c, 1, 79, 0
2, 18960, Note_on_c, 1, 82, 127
2, 19040, Note_off_c, 1, 76, 0
2, 19080, Note_off_c, 1, 72, 0
2, 19080, Note_off_c, 1, 82, 0
2, 19120, Note_on_c, 1, 47, 127
2, 19120, Note_on_c, 1, 78, 127
2, 19120, Note_on_c, 1, 79, 127
2, 19160, Note_off_c, 1, 78, 0
2, 19160, Note_on_c, 1, 82, 127
2, 19200, Note_on_c, 1, 80, 127
2, 19200, Note_off_c, 1, 82, 0
2, 19240, Note_off_c, 1, 80, 0
2, 19240, Note_on_c, 1, 81, 127
2, 19280, Note_off_c, 1, 47, 0
2, 19280, Note_off_c, 1, 79, 0
2, 19320, Note_on_c, 1, 50, 127
2, 19320, Note_on_c, 1, 78, 127
2, 19320, Note_on_c, 1, 79, 127
2, 19320, Note_off_c, 1, 81, 0
2, 19360, Note_off_c, 1, 79, 0
2, 19360, Note_on_c, 1, 82, 127
2, 19440, Note_off_c, 1, 50, 0
2, 19440, Note_off_c, 1, 78, 0
2, 19440, Note_off_c, 1, 82, 0
2, 19520, Note_on_c, 1, 74, 127
2, 19520, Note_on_c, 1, 80, 127
2, 19520, Note_on_c, 1, 84, 127
2, 19560, Note_off_c, 1, 74, 0
2, 19560, Note_on_c, 1, 77, 127
2, 19560, Note_off_c, 1, 80, 0
2, 19560, Note_on_c, 1, 81, 127
2, 19560, Note_off_c, 1, 84, 0
2, 19680, Note_off_c, 1, 77, 0
2, 19680, Note_on_c, 1, 79, 127
2, 19720, Note_off_c, 1, 79, 0
2, 19720, Note_off_c, 1, 81, 0
2, 19760, Note_on_c, 1, 69, 127
2, 19760, Note_on_c, 1, 78, 127
2, 19880, Note_off_c, 1, 69, 0
2, 19880, Note_off_c, 1, 78, 0
2, 19920, Note_on_c, 1, 60, 127
2, 19920, Note_on_c, 1, 79, 127
2, 20000, Note_off_c, 1, 79, 0
2, 20040, Note_on_c, 1, 81, 127
2, 20240, Note_on_c, 1, 57, 127
2, 20280, Note_off_c, 1, 57, 0
2, 20280, Note_off_c, 1, 60, 0
2, 20280, Note_off_c, 1, 81, 0
2, 20320, Note_on_c, 1, 52, 127
2, 20320, Note_on_c, 1, 71, 127
2, 20320, Note_on_c, 1, 78, 127
2, 20440, Note_off_c, 1, 78, 0
2, 20480, Note_on_c, 1, 81, 127
2, 20520, Note_on_c, 1, 80, 127
2, 20520, Note_off_c, 1, 81, 0
2, 20600, Note_off_c, 1, 71, 0
2, 20600, Note_on_c, 1, 75, 127
2, 20600, Note_off_c, 1, 80, 0
2, 20640, Note_on_c, 1, 74, 127
2, 20640, Note_off_c, 1, 75, 0
2, 20640, Note_on_c, 1, 78, 127
2, 20680, Note_on_c, 1, 48, 127
2, 20680, Note_off_c, 1, 52, 0
2, 20680, Note_off_c, 1, 74, 0
2, 20680, Note_on_c, 1, 76, 127
2, 20760, Note_off_c, 1, 48, 0
2, 20760, Note_off_c, 1, 76, 0
2, 20760, Note_off_c, 1, 78, 0
2, 20800, Note_on_c, 1, 48, 127
2, 20800, Note_on_c, 1, 73, 127
2, 20800, Note_on_c, 1, 78, 127
2, 21000, Note_off_c, 1, 48, 0
2, 21000, Note_off_c, 1, 73, 0
2, 21000, Note_on_c, 1, 76, 127
2, 21040, Note_on_c, 1, 46, 127
2, 21080, Note_off_c, 1, 76, 0
2, 21120, Note_off_c, 1, 46, 0
2, 21160, Note_on_c, 1, 50, 127
2, 21160, Note_on_c, 1, 82, 127
2, 21240, Note_off_c, 1, 82, 0
2, 21320, Note_off_c, 1, 50, 0
2, 21320, Note_on_c, 1, 82, 127
2, 21360, Note_on_c, 1, 50, 127
2, 21440, Note_off_c, 1, 50, 0
2, 21440, Note_off_c, 1, 78, 0
2, 21480, Note_on_c, 1, 49, 127
2, 21480, Note_on_c, 1, 76, 127
2, 21520, Note_off_c, 1, 76, 0
2, 21520, Note_on_c, 1, 78, 127
2, 21640, Note_off_c, 1, 49, 0
2, 21640, Note_off_c, 1, 82, 0
2, 21680, Note_on_c, 1, 52, 127
2, 21680, Note_on_c, 1, 76, 127
2, 21720, Note_off_c, 1, 76, 0
2, 21720, Note_off_c, 1, 78, 0
2, 21760, Note_on_c, 1, 78, 127
2, 21840, Note_off_c, 1, 52, 0
2, 21840, Note_off_c, 1, 78, 0
2, 21880, Note_on_c, 1, 50, 127
2, 21880, Note_on_c, 1, 78, 127
2, 21920, Note_on_c, 1, 82, 127
2, 22240, Note_off_c, 1, 50, 0
2, 22240, Note_off_c, 1, 82, 0
2, 22280, Note_on_c, 1, 54, 127
2, 22280, Note_off_c, 1, 78, 0
2, 22320, Note_on_c, 1, 78, 127
2, 22480, Note_off_c, 1, 54, 0
2, 22480, Note_off_c, 1, 78, 0
2, 22520, Note_on_c, 1, 59, 127
2, 22520, Note_on_c, 1, 78, 127
2, 22520, Note_on_c, 1, 84, 127
2, 22560, Note_off_c, 1, 84, 0
2, 22680, Note_off_c, 1, 59, 0
2, 22720, Note_on_c, 1, 59, 127
2, 22840, Note_on_c, 1, 76, 127
2, 22920, Note_off_c, 1, 59, 0
2, 22920, Note_off_c, 1, 76, 0
2, 22920, Note_off_c, 1, 78, 0
2, 22960, Note_on_c, 1, 58, 127
2, 22960, Note_on_c, 1, 76, 127
2, 22960, Note_on_c, 1, 78, 127
2, 23000, Note_on_c, 1, 57, 127
2, 23000, Note_off_c, 1, 58, 0
2, 23040, Note_off_c, 1, 78, 0
2, 23080, Note_on_c, 1, 78, 127
2, 23120, Note_off_c, 1, 76, 0
2, 23160, Note_on_c, 1, 82, 127
2, 23280, Note_off_c, 1, 57, 0
2, 23280, Note_off_c, 1, 78, 0
2, 23280, Note_off_c, 1, 82, 0
2, 23320, Note_on_c, 1, 50, 127
2, 23320, Note_on_c, 1, 71, 127
2, 23320, Note_on_c, 1, 80, 127
2, 23560, Note_off_c, 1, 50, 0
2, 23600, Note_on_c, 1, 49, 127
2, 23720, Note_on_c, 1, 47, 127
2, 23720, Note_off_c, 1, 49, 0
2, 23760, Note_off_c, 1, 71, 0
2, 23760, Note_off_c, 1, 80, 0
2, 23800, Note_on_c, 1, 71, 127
2, 23800, Note_on_c, 1, 78, 127
2, 23840, Note_off_c, 1, 78, 0
2, 23840, Note_on_c, 1, 82, 127
2, 23960, Note_on_c, 1, 78, 127
2, 23960, Note_off_c, 1, 82, 0
2, 24040, Note_on_c, 1, 75, 127
2, 24040, Note_off_c, 1, 78, 0
2, 24120, Note_off_c, 1, 47, 0
2, 24120, Note_off_c, 1, 71, 0
2, 24120, Note_off_c, 1, 75, 0
2, 24160, Note_on_c, 1, 50, 127
2, 24160, Note_on_c, 1, 66, 127
2, 24160, Note_on_c, 1, 75, 127
2, 24320, Note_off_c, 1, 50, 0
2, 24400, Note_on_c, 1, 54, 127
2, 24520, Note_off_c, 1, 54, 0
2, 24560, Note_on_c, 1, 50, 127
2, 24720, Note_off_c, 1, 75, 0
2, 24760, Note_on_c, 1, 75, 127
2, 24960, Note_off_c, 1, 75, 0
2, 25000, Note_on_c, 1, 71, 127
2, 25080, Note_off_c, 1, 66, 0
2, 25080, Note_off_c, 1, 71, 0
2, 25160, Note_on_c, 1, 69, 127
2, 25280, Note_off_c, 1, 50, 0
2, 25280, Note_off_c, 1, 69, 0
2, 25320, Note_on_c, 1, 52, 127
2, 25320, Note_on_c, 1, 69, 127
2, 25320, Note_on_c, 1, 70, 127
2, 25360, Note_off_c, 1, 70, 0
2, 25360, Note_on_c, 1, 72, 127
2, 25440, Note_off_c, 1, 52, 0
2, 25440, Note_off_c, 1, 72, 0
2, 25480, Note_on_c, 1, 50, 127
2, 25480, Note_on_c, 1, 74, 127
2, 25680, Note_off_c, 1, 69, 0
2, 25720, Note_on_c, 1, 66, 127
2, 25880, Note_off_c, 1, 66, 0
2, 25920, Note_off_c, 1, 50, 0
2, 25920, Note_off_c, 1, 74, 0
2, 25960, Note_on_c, 1, 54, 127
2, 25960, Note_on_c, 1, 66, 127
2, 25960, Note_on_c, 1, 72, 127
2, 26040, Note_off_c, 1, 54, 0
2, 26040, Note_off_c, 1, 66, 0
2, 26040, Note_off_c, 1, 72, 0
2, 26080, Note_on_c, 1, 52, 127
2, 26080, Note_on_c, 1, 67, 127
2, 26080, Note_on_c, 1, 71, 127
2, 26120, Note_on_c, 1, 50, 127
2, 26120, Note_off_c, 1, 52, 0
2, 26240, Note_off_c, 1, 50, 0
2, 26280, Note_on_c, 1, 48, 127
2, 26400, Note_off_c, 1, 48, 0
2, 26440, Note_on_c, 1, 50, 127
2, 26600, Note_off_c, 1, 50, 0
2, 26600, Note_off_c, 1, 67, 0
2, 26600, Note_off_c, 1, 71, 0
2, 26640, Note_on_c, 1, 64, 127
2, 26640, Note_on_c, 1, 69, 127
2, 26640, Note_on_c, 1, 76, 127
2, 26800, Note_off_c, 1, 64, 0
2, 26800, Note_off_c, 1, 76, 0
2, 26840, Note_on_c, 1, 65, 127
2, 26840, Note_on_c, 1, 68, 127
2, 26840, Note_off_c, 1, 69, 0
2, 26840, Note_on_c, 1, 77, 127
2, 27080, Note_off_c, 1, 68, 0
2, 27080, Note_on_c, 1, 69, 127
2, 27080, Note_off_c, 1, 77, 0
2, 27080, Note_on_c, 1, 80, 127
2, 27200, Note_off_c, 1, 80, 0
2, 27200, Note_on_c, 1, 81, 127
2, 27240, Note_off_c, 1, 69, 0
2, 27240, Note_off_c, 1, 81, 0
2, 27280, Note_on_c, 1, 76, 127
2, 27480, Note_off_c, 1, 65, 0
2, 27480, Note_off_c, 1, 76, 0
2, 27520, Note_on_c, 1, 63, 127
2, 27520, Note_on_c, 1, 79, 127
2, 27560, Note_off_c, 1, 79, 0
2, 27560, Note_on_c, 1, 81, 127
2, 27600, Note_off_c, 1, 63, 0
2, 27640, Note_on_c, 1, 79, 127
2, 27640, Note_off_c, 1, 81, 0
2, 27680, Note_on_c, 1, 64, 127
2, 27920, Note_off_c, 1, 79, 0
2, 27960, Note_on_c, 1, 76, 127
2, 28120, Note_off_c, 1, 64, 0
2, 28160, Note_on_c, 1, 64, 127
2, 28480, Note_off_c, 1, 64, 0
2, 28480, Note_off_c, 1, 76, 0
2, 28520, Note_on_c, 1, 65, 127
2, 28520, Note_on_c, 1, 74, 127
2, 28520, Note_on_c, 1, 77, 127
2, 28560, Note_off_c, 1, 77, 0
2, 28600, Note_on_c, 1, 77, 127
2, 28720, Note_off_c, 1, 65, 0
2, 28720, Note_off_c, 1, 77, 0
2, 28760, Note_on_c, 1, 65, 127
2, 28760, Note_on_c, 1, 77, 127
2, 29440, Note_off_c, 1, 77, 0
2, 29480, Note_on_c, 1, 79, 127
2, 29560, Note_off_c, 1, 65, 0
2, 29560, Note_off_c, 1, 79, 0
2, 29720, Note_off_c, 1, 74, 0
2, 29760, Note_on_c, 1, 76, 127
2, 29800, Note_on_c, 1, 67, 127
2, 29880, Note_off_c, 1, 67, 0
2, 29920, Note_on_c, 1, 62, 127
2, 29920, Note_off_c, 1, 76, 0
2, 29920, Note_on_c, 1, 81, 127
2, 30080, Note_off_c, 1, 62, 0
2, 30120, Note_on_c, 1, 54, 127
2, 30120, Note_on_c, 1, 72, 127
2, 30160, Note_on_c, 1, 71, 127
2, 30160, Note_off_c, 1, 72, 0
2, 30200, Note_off_c, 1, 71, 0
2, 30200, Note_on_c, 1, 72, 127
2, 30280, Note_off_c, 1, 54, 0
2, 30280, Note_off_c, 1, 72, 0
2, 30280, Note_on_c, 1, 80, 127
2, 30280, Note_off_c, 1, 81, 0
2, 30320, Note_on_c, 1, 59, 127
2, 30320, Note_on_c, 1, 71, 127
2, 30440, Note_off_c, 1, 59, 0
2, 30440, Note_on_c, 1, 78, 127
2, 30440, Note_off_c, 1, 80, 0
2, 30480, Note_on_c, 1, 58, 127
2, 30680, Note_off_c, 1, 58, 0
2, 30680, Note_off_c, 1, 71, 0
2, 30680, Note_on_c, 1, 73, 127
2, 30680, Note_off_c, 1, 78, 0
2, 30720, Note_on_c, 1, 59, 127
2, 30720, Note_on_c, 1, 70, 127
2, 30720, Note_off_c, 1, 73, 0
2, 30720, Note_on_c, 1, 75, 127
2, 30800, Note_off_c, 1, 59, 0
2, 30800, Note_off_c, 1, 70, 0
2, 30800, Note_off_c, 1, 75, 0
2, 30840, Note_on_c, 1, 57, 127
2, 30840, Note_on_c, 1, 66, 127
2, 30840, Note_on_c, 1, 75, 127
2, 30920, Note_off_c, 1, 75, 0
2, 30920, Note_on_c, 1, 76, 127
2, 31040, Note_off_c, 1, 57, 0
2, 31040, Note_off_c, 1, 66, 0
2, 31040, Note_off_c, 1, 76, 0
2, 31080, Note_on_c, 1, 54, 127
2, 31080, Note_on_c, 1, 72, 127
2, 31080, Note_on_c, 1, 76, 127
2, 31360, Note_off_c, 1, 54, 0
2, 31360, Note_on_c, 1, 56, 127
2, 31400, Note_off_c, 1, 56, 0
2, 31440, Note_on_c, 1, 57, 127
2, 31600, Note_off_c, 1, 57, 0
2, 31640, Note_on_c, 1, 45, 127
2, 31640, Note_on_c, 1, 75, 127
2, 31640, Note_off_c, 1, 76, 0
2, 31760, Note_off_c, 1, 45, 0
2, 31800, Note_on_c, 1, 71, 127
2, 31800, Note_off_c, 1, 72, 0
2, 31840, Note_on_c, 1, 47, 127
2, 31840, Note_off_c, 1, 71, 0
2, 31840, Note_on_c, 1, 73, 127
2, 31880, Note_off_c, 1, 73, 0
2, 31920, Note_on_c, 1, 78, 127
2, 32000, Note_off_c, 1, 47, 0
2, 32000, Note_off_c, 1, 75, 0
2, 32000, Note_off_c, 1, 78, 0
2, 32040, Note_on_c, 1, 44, 127
2, 32040, Note_on_c, 1, 71, 127
2, 32040, Note_on_c, 1, 76, 127
2, 32280, Note_off_c, 1, 44, 0
2, 32280, Note_off_c, 1, 71, 0
2, 32280, Note_off_c, 1, 76, 0
2, 32320, Note_on_c, 1, 45, 127
2, 32320, Note_on_c, 1, 72, 127
2, 32320, Note_on_c, 1, 76, 127
2, 32640, Note_off_c, 1, 45, 0
2, 32680, Note_off_c, 1, 76, 0
2, 32680, Note_on_c, 1, 78, 127
2, 32720, Note_on_c, 1, 57, 127
2, 32720, Note_on_c, 1, 75, 127
2, 32720, Note_off_c, 1, 78, 0
2, 32720, Note_on_c, 1, 80, 127
2, 32760, Note_on_c, 1, 56, 127
2, 32760, Note_off_c, 1, 57, 0
2, 32800, Note_on_c, 1, 78, 127
2, 32800, Note_off_c, 1, 80, 0
2, 32840, Note_off_c, 1, 56, 0
2, 32840, Note_off_c, 1, 78, 0
2, 32880, Note_off_c, 1, 72, 0
2, 32920, Note_on_c, 1, 47, 127
2, 32920, Note_on_c, 1, 67, 127
2, 32920, Note_on_c, 1, 78, 127
2, 32960, Note_on_c, 1, 66, 127
2, 32960, Note_off_c, 1, 67, 0
2, 32960, Note_off_c, 1, 78, 0
2, 33200, Note_off_c, 1, 47, 0
2, 33200, Note_off_c, 1, 66, 0
2, 33200, Note_off_c, 1, 75, 0
2, 33240, Note_on_c, 1, 42, 127
2, 33240, Note_on_c, 1, 69, 127
2, 33320, Note_off_c, 1, 42, 0
2, 33320, Note_off_c, 1, 69, 0
2, 33400, Note_on_c, 1, 45, 127
2, 33400, Note_on_c, 1, 66, 127
2, 33520, Note_off_c, 1, 45, 0
2, 33520, Note_off_c, 1, 66, 0
2, 33560, Note_on_c, 1, 45, 127
2, 33560, Note_on_c, 1, 57, 127
2, 33560, Note_on_c, 1, 66, 127
2, 33880, Note_off_c, 1, 45, 0
2, 33920, Note_on_c, 1, 45, 127
2, 34040, Note_on_c, 1, 69, 127
2, 34120, Note_off_c, 1, 69, 0
2, 34240, Note_off_c, 1, 45, 0
2, 34240, Note_off_c, 1, 57, 0
2, 34240, Note_off_c, 1, 66, 0
2, 34280, Note_on_c, 1, 38, 127
2, 34280, Note_on_c, 1, 72, 127
2, 34320, Note_on_c, 1, 31, 127
2, 34320, Note_off_c, 1, 38, 0
2, 34360, Note_off_c, 1, 31, 0
2, 34360, Note_on_c, 1, 37, 127
2, 34400, Note_off_c, 1, 37, 0
2, 34400, Note_off_c, 1, 72, 0
2, 34480, Note_on_c, 1, 43, 127
2, 34480, Note_on_c, 1, 69, 127
2, 34600, Note_off_c, 1, 43, 0
2, 34600, Note_off_c, 1, 69, 0
2, 34640, Note_on_c, 1, 34, 127
2, 34640, Note_on_c, 1, 66, 127
2, 34640, Note_on_c, 1, 67, 127
2, 34720, Note_on_c, 1, 64, 127
2, 34720, Note_off_c, 1, 66, 0
2, 34720, Note_off_c, 1, 67, 0
2, 34760, Note_off_c, 1, 64, 0
2, 34760, Note_on_c, 1, 66, 127
2, 34880, Note_off_c, 1, 66, 0
2, 34920, Note_on_c, 1, 65, 127
2, 34920, Note_on_c, 1, 70, 127
2, 34960, Note_on_c, 1, 64, 127
2, 34960, Note_off_c, 1, 65, 0
2, 35000, Note_off_c, 1, 64, 0
2, 35000, Note_on_c, 1, 67, 127
2, 35000, Note_off_c, 1, 70, 0
2, 35040, Note_on_c, 1, 62, 127
2, 35040, Note_off_c, 1, 67, 0
2, 35040, Note_on_c, 1, 68, 127
2, 35120, Note_off_c, 1, 34, 0
2, 35120, Note_off_c, 1, 62, 0
2, 35120, Note_off_c, 1, 68, 0
2, 35160, Note_on_c, 1, 41, 127
2, 35160, Note_on_c, 1, 60, 127
2, 35160, Note_on_c, 1, 69, 127
2, 35480, Note_off_c, 1, 69, 0
2, 35520, Note_on_c, 1, 69, 127
2, 35560, Note_off_c, 1, 41, 0
2, 35560, Note_off_c, 1, 60, 0
2, 35560, Note_off_c, 1, 69, 0
2, 35600, Note_on_c, 1, 50, 127
2, 35600, Note_on_c, 1, 62, 127
2, 35600, Note_on_c, 1, 70, 127
2, 35720, Note_off_c, 1, 70, 0
2, 35760, Note_on_c, 1, 69, 127
2, 36400, Note_off_c, 1, 62, 0
2, 36440, Note_off_c, 1, 50, 0
2, 36440, Note_on_c, 1, 52, 127
2, 36440, Note_on_c, 1, 62, 127
2, 36560, Note_off_c, 1, 62, 0
2, 36600, Note_on_c, 1, 59, 127
2, 36720, Note_off_c, 1, 59, 0
2, 36760, Note_on_c, 1, 60, 127
2, 36960, Note_off_c, 1, 52, 0
2, 36960, Note_off_c, 1, 60, 0
2, 36960, Note_off_c, 1, 69, 0
2, 37000, Note_on_c, 1, 57, 127
2, 37000, Note_on_c, 1, 76, 127
2, 37240, Note_off_c, 1, 57, 0
2, 37240, Note_off_c, 1, 76, 0
2, 37280, Note_on_c, 1, 58, 127
2, 37400, Note_off_c, 1, 58, 0
2, 37440, Note_on_c, 1, 62, 127
2, 37720, Note_off_c, 1, 62, 0
2, 37760, Note_on_c, 1, 62, 127
2, 37920, Note_off_c, 1, 62, 0
2, 37960, Note_on_c, 1, 60, 127
2, 38080, Note_off_c, 1, 60, 0
2, 38120, Note_on_c, 1, 65, 127
2, 38240, Note_off_c, 1, 65, 0
2, 38280, Note_on_c, 1, 64, 127
2, 38360, Note_off_c, 1, 64, 0
2, 38400, Note_on_c, 1, 64, 127
2, 38440, Note_off_c, 1, 64, 0
2, 38480, Note_on_c, 1, 52, 127
2, 38480, Note_on_c, 1, 62, 127
2, 38480, Note_on_c, 1, 69, 127
2, 38800, Note_off_c, 1, 52, 0
2, 38800, Note_off_c, 1, 62, 0
2, 38800, Note_on_c, 1, 64, 127
2, 38840, Note_on_c, 1, 45, 127
2, 38960, Note_off_c, 1, 45, 0
2, 38960, Note_off_c, 1, 64, 0
2, 39000, Note_on_c, 1, 45, 127
2, 39000, Note_on_c, 1, 60, 127
2, 39280, Note_off_c, 1, 45, 0
2, 39280, Note_off_c, 1, 60, 0
2, 39320, Note_on_c, 1, 45, 127
2, 39720, Note_off_c, 1, 45, 0
2, 39760, Note_on_c, 1, 50, 127
2, 39800, Note_off_c, 1, 69, 0
2, 40160, Note_off_c, 1, 50, 0
2, 40200, Note_on_c, 1, 48, 127
2, 40320, Note_off_c, 1, 48, 0
2, 40360, Note_on_c, 1, 45, 127
2, 40440, Note_off_c, 1, 45, 0
2, 40440, Note_on_c, 1, 76, 127
2, 40520, Note_off_c, 1, 76, 0
2, 40560, Note_on_c, 1, 50, 127
2, 40840, Note_off_c, 1, 50, 0
2, 40880, Note_on_c, 1, 53, 127
2, 41840, Note_off_c, 1, 53, 0
2, 41880, Note_on_c, 1, 53, 127
2, 41920, Note_off_c, 1, 53, 0
2, 42000, Note_on_c, 1, 48, 127
2, 42160, Note_off_c, 1, 48, 0
2, 42200, Note_on_c, 1, 45, 127
2, 42320, Note_on_c, 1, 54, 127
2, 42400, Note_off_c, 1, 45, 0
2, 42400, Note_off_c, 1, 54, 0
2, 42440, Note_on_c, 1, 52, 127
2, 42480, Note_off_c, 1, 52, 0
2, 42520, Note_on_c, 1, 50, 127
2, 44120, Note_off_c, 1, 50, 0
2, 44160, Note_on_c, 1, 52, 127
2, 44200, Note_on_c, 1, 48, 127
2, 44200, Note_off_c, 1, 52, 0
2, 44280, Note_off_c, 1, 48, 0
2, 44320, Note_on_c, 1, 46, 127
2, 44360, Note_off_c, 1, 46, 0
2, 44400, Note_on_c, 1, 50, 127
2, 44600, Note_off_c, 1, 50, 0
2, 44640, Note_on_c, 1, 48, 127
2, 44720, Note_off_c, 1, 48, 0
2, 44760, Note_on_c, 1, 46, 127
2, 44840, Note_off_c, 1, 46, 0
2, 44920, Note_on_c, 1, 57, 127
2, 45040, Note_off_c, 1, 57, 0
2, 45080, Note_on_c, 1, 50, 127
2, 45160, Note_off_c, 1, 50, 0
2, 45200, Note_on_c, 1, 45, 127
2, 45440, Note_off_c, 1, 45, 0
2, 45480, Note_on_c, 1, 43, 127
2, 45640, Note_off_c, 1, 43, 0
2, 45680, Note_on_c, 1, 41, 127
2, 45760, Note_off_c, 1, 41, 0
2, 45800, Note_on_c, 1, 41, 127
2, 45920, Note_off_c, 1, 41, 0
2, 45960, Note_on_c, 1, 38, 127
2, 46120, Note_on_c, 1, 47, 127
2, 46160, Note_off_c, 1, 47, 0
2, 46280, Note_off_c, 1, 38, 0
2, 46320, Note_on_c, 1, 41, 127
2, 46320, Note_on_c, 1, 53, 127
2, 46400, Note_off_c, 1, 53, 0
2, 46440, Note_on_c, 1, 52, 127
2, 46480, Note_on_c, 1, 50, 127
2, 46480, Note_off_c, 1, 52, 0
2, 46520, Note_off_c, 1, 41, 0
2, 46520, Note_off_c, 1, 50, 0
2, 46560, Note_on_c, 1, 41, 127
2, 46560, Note_on_c, 1, 45, 127
2, 46600, Note_off_c, 1, 45, 0
2, 46600, Note_on_c, 1, 48, 127
2, 46640, Note_off_c, 1, 41, 0
2, 46640, Note_on_c, 1, 43, 127
2, 46640, Note_off_c, 1, 48, 0
2, 46680, Note_off_c, 1, 43, 0
2, 46680, Note_on_c, 1, 45, 127
2, 46680, Note_on_c, 1, 52, 127
2, 46680, Note_on_c, 1, 60, 127
2, 46760, Note_off_c, 1, 45, 0
2, 46760, Note_off_c, 1, 52, 0
2, 46800, Note_on_c, 1, 54, 127
2, 46800, Note_off_c, 1, 60, 0
2, 46800, Note_on_c, 1, 62, 127
2, 46880, Note_off_c, 1, 54, 0
2, 46920, Note_on_c, 1, 43, 127
2, 46920, Note_on_c, 1, 54, 127
2, 46960, Note_on_c, 1, 47, 127
2, 46960, Note_off_c, 1, 54, 0
2, 47000, Note_off_c, 1, 43, 0
2, 47000, Note_off_c, 1, 47, 0
2, 47000, Note_off_c, 1, 62, 0
2, 47040, Note_on_c, 1, 48, 127
2, 47040, Note_on_c, 1, 52, 127
2, 47040, Note_on_c, 1, 64, 127
2, 47120, Note_off_c, 1, 48, 0
2, 47120, Note_off_c, 1, 52, 0
2, 47120, Note_off_c, 1, 64, 0
2, 47160, Note_on_c, 1, 38, 127
2, 47160, Note_on_c, 1, 50, 127
2, 47240, Note_off_c, 1, 38, 0
2, 47280, Note_on_c, 1, 53, 127
2, 47360, Note_off_c, 1, 53, 0
2, 47400, Note_off_c, 1, 50, 0
2, 47400, Note_on_c, 1, 52, 127
2, 47400, Note_on_c, 1, 57, 127
2, 47480, Note_off_c, 1, 57, 0
2, 47520, Note_on_c, 1, 55, 127
2, 47600, Note_off_c, 1, 52, 0
2, 47600, Note_off_c, 1, 55, 0
2, 47640, Note_on_c, 1, 47, 127
2, 47640, Note_on_c, 1, 52, 127
2, 47720, Note_off_c, 1, 47, 0
2, 47720, Note_off_c, 1, 52, 0
2, 47760, Note_on_c, 1, 49, 127
2, 47760, Note_on_c, 1, 55, 127
2, 47840, Note_off_c, 1, 55, 0
2, 47880, Note_on_c, 1, 54, 127
2, 47960, Note_off_c, 1, 49, 0
2, 48000, Note_on_c, 1, 46, 127
2, 48000, Note_on_c, 1, 52, 127
2, 48000, Note_off_c, 1, 54, 0
2, 48080, Note_on_c, 1, 45, 127
2, 48080, Note_off_c, 1, 46, 0
2, 48080, Note_on_c, 1, 55, 127
2, 48120, Note_off_c, 1, 55, 0
2, 48160, Note_on_c, 1, 57, 127
2, 48280, Note_off_c, 1, 45, 0
2, 48280, Note_off_c, 1, 52, 0
2, 48280, Note_off_c, 1, 57, 0
2, 48320, Note_on_c, 1, 45, 127
2, 48320, Note_on_c, 1, 63, 127
2, 48440, Note_off_c, 1, 45, 0
2, 48440, Note_off_c, 1, 63, 0
2, 48480, Note_on_c, 1, 50, 127
2, 48480, Note_on_c, 1, 53, 127
2, 48680, Note_on_c, 1, 55, 127
2, 48840, Note_off_c, 1, 53, 0
2, 48880, Note_on_c, 1, 52, 127
2, 48920, Note_on_c, 1, 43, 127
2, 48920, Note_off_c, 1, 52, 0
2, 48960, Note_off_c, 1, 43, 0
2, 49080, Note_off_c, 1, 55, 0
2, 49120, Note_off_c, 1, 50, 0
2, 49560, Note_on_c, 1, 43, 127
2, 49560, Note_on_c, 1, 57, 127
2, 49560, Note_on_c, 1, 62, 127
2, 49560, Note_on_c, 1, 64, 127
2, 49640, Note_off_c, 1, 43, 0
2, 49640, Note_on_c, 1, 45, 127
2, 49640, Note_on_c, 1, 55, 127
2, 49640, Note_off_c, 1, 57, 0
2, 49680, Note_on_c, 1, 43, 127
2, 49680, Note_off_c, 1, 45, 0
2, 49840, Note_off_c, 1, 64, 0
2, 49880, Note_on_c, 1, 50, 127
2, 49880, Note_on_c, 1, 67, 127
2, 49960, Note_on_c, 1, 59, 127
2, 50480, Note_off_c, 1, 43, 0
2, 50480, Note_off_c, 1, 50, 0
2, 50480, Note_off_c, 1, 55, 0
2, 50480, Note_off_c, 1, 59, 0
2, 50480, Note_off_c, 1, 62, 0
2, 50480, Note_off_c, 1, 67, 0
2, 50520, Note_on_c, 1, 41, 127
2, 50520, Note_on_c, 1, 48, 127
2, 50520, Note_on_c, 1, 56, 127
2, 50520, Note_on_c, 1, 60, 127
2, 50520, Note_on_c, 1, 64, 127
2, 50520, Note_on_c, 1, 69, 127
2, 50560, Note_off_c, 1, 41, 0
2, 50560, Note_on_c, 1, 44, 127
2, 50600, Note_off_c, 1, 44, 0
2, 50600, Note_off_c, 1, 48, 0
2, 50600, Note_off_c, 1, 56, 0
2, 50600, Note_off_c, 1, 60, 0
2, 50600, Note_off_c, 1, 64, 0
2, 50600, Note_off_c, 1, 69, 0
2, 50640, Note_on_c, 1, 45, 127
2, 50640, Note_on_c, 1, 48, 127
2, 50640, Note_on_c, 1, 53, 127
2, 50640, Note_on_c, 1, 57, 127
2, 50640, Note_on_c, 1, 62, 127
2, 50640, Note_on_c, 1, 65, 127
2, 50640, Note_on_c, 1, 69, 127
2, 50680, Note_on_c, 1, 36, 127
2, 50720, Note_off_c, 1, 36, 0
2, 50720, Note_on_c, 1, 41, 127
2, 50720, Note_off_c, 1, 45, 0
2, 50720, Note_on_c, 1, 52, 127
2, 50720, Note_off_c, 1, 53, 0
2, 50760, Note_off_c, 1, 41, 0
2, 50760, Note_on_c, 1, 45, 127
2, 50800, Note_off_c, 1, 52, 0
2, 50800, Note_on_c, 1, 53, 127
2, 50800, Note_on_c, 1, 74, 127
2, 50840, Note_on_c, 1, 41, 127
2, 50840, Note_off_c, 1, 45, 0
2, 50840, Note_on_c, 1, 60, 127
2, 50880, Note_off_c, 1, 41, 0
2, 50880, Note_on_c, 1, 45, 127
2, 50880, Note_off_c, 1, 60, 0
2, 50880, Note_off_c, 1, 65, 0
2, 50880, Note_off_c, 1, 74, 0
2, 50880, Note_on_c, 1, 77, 127
2, 50920, Note_on_c, 1, 41, 127
2, 50920, Note_off_c, 1, 45, 0
2, 50920, Note_on_c, 1, 59, 127
2, 50920, Note_on_c, 1, 72, 127
2, 50920, Note_off_c, 1, 77, 0
2, 50920, Note_on_c, 1, 79, 127
2, 50960, Note_on_c, 1, 52, 127
2, 50960, Note_off_c, 1, 53, 0
2, 50960, Note_off_c, 1, 57, 0
2, 51000, Note_off_c, 1, 41, 0
2, 51000, Note_on_c, 1, 45, 127
2, 51000, Note_on_c, 1, 57, 127
2, 51000, Note_off_c, 1, 59, 0
2, 51000, Note_on_c, 1, 60, 127
2, 51000, Note_off_c, 1, 62, 0
2, 51000, Note_on_c, 1, 67, 127
2, 51000, Note_off_c, 1, 72, 0
2, 51000, Note_on_c, 1, 77, 127
2, 51000, Note_off_c, 1, 79, 0
2, 51040, Note_on_c, 1, 41, 127
2, 51040, Note_off_c, 1, 45, 0
2, 51040, Note_off_c, 1, 67, 0
2, 51120, Note_off_c, 1, 41, 0
2, 51120, Note_on_c, 1, 45, 127
2, 51120, Note_on_c, 1, 67, 127
2, 51120, Note_off_c, 1, 69, 0
2, 51160, Note_off_c, 1, 67, 0
2, 51160, Note_on_c, 1, 69, 127
2, 51160, Note_off_c, 1, 77, 0
2, 51200, Note_off_c, 1, 45, 0
2, 51200, Note_on_c, 1, 67, 127
2, 51200, Note_off_c, 1, 69, 0
2, 51200, Note_on_c, 1, 72, 127
2, 51240, Note_off_c, 1, 48, 0
2, 51240, Note_off_c, 1, 52, 0
2, 51240, Note_off_c, 1, 57, 0
2, 51240, Note_off_c, 1, 60, 0
2, 51240, Note_off_c, 1, 67, 0
2, 51280, Note_on_c, 1, 48, 127
2, 51280, Note_on_c, 1, 52, 127
2, 51280, Note_on_c, 1, 57, 127
2, 51280, Note_on_c, 1, 60, 127
2, 51440, Note_off_c, 1, 48, 0
2, 51520, Note_on_c, 1, 48, 127
2, 51520, Note_on_c, 1, 55, 127
2, 51520, Note_off_c, 1, 57, 0
2, 51520, Note_on_c, 1, 64, 127
2, 51600, Note_on_c, 1, 45, 127
2, 51600, Note_off_c, 1, 48, 0
2, 51600, Note_off_c, 1, 64, 0
2, 51640, Note_off_c, 1, 45, 0
2, 51640, Note_on_c, 1, 48, 127
2, 51640, Note_on_c, 1, 64, 127
2, 51760, Note_off_c, 1, 55, 0
2, 51800, Note_off_c, 1, 64, 0
2, 52040, Note_off_c, 1, 72, 0
2, 52080, Note_on_c, 1, 68, 127
2, 52120, Note_off_c, 1, 48, 0
2, 52160, Note_on_c, 1, 48, 127
2, 52360, Note_off_c, 1, 48, 0
2, 52360, Note_off_c, 1, 60, 0
2, 52360, Note_on_c, 1, 67, 127
2, 52360, Note_off_c, 1, 68, 0
2, 52400, Note_on_c, 1, 47, 127
2, 52400, Note_on_c, 1, 56, 127
2, 52400, Note_on_c, 1, 69, 127
2, 52480, Note_off_c, 1, 67, 0
2, 52520, Note_on_c, 1, 72, 127
2, 52560, Note_on_c, 1, 40, 127
2, 52560, Note_off_c, 1, 47, 0
2, 52560, Note_on_c, 1, 54, 127
2, 52560, Note_off_c, 1, 56, 0
2, 52600, Note_off_c, 1, 40, 0
2, 52600, Note_on_c, 1, 47, 127
2, 52640, Note_off_c, 1, 47, 0
2, 52640, Note_off_c, 1, 52, 0
2, 52640, Note_off_c, 1, 54, 0
2, 52640, Note_off_c, 1, 69, 0
2, 52640, Note_off_c, 1, 72, 0
2, 52680, Note_on_c, 1, 45, 127
2, 52680, Note_on_c, 1, 52, 127
2, 52680, Note_on_c, 1, 53, 127
2, 52680, Note_on_c, 1, 60, 127
2, 52680, Note_on_c, 1, 70, 127
2, 52720, Note_on_c, 1, 48, 127
2, 52720, Note_off_c, 1, 52, 0
2, 52840, Note_off_c, 1, 45, 0
2, 52840, Note_off_c, 1, 48, 0
2, 52840, Note_off_c, 1, 53, 0
2, 52840, Note_off_c, 1, 60, 0
2, 52840, Note_off_c, 1, 70, 0
2, 52880, Note_on_c, 1, 45, 127
2, 52880, Note_on_c, 1, 52, 127
2, 52920, Note_off_c, 1, 52, 0
2, 52960, Note_on_c, 1, 49, 127
2, 52960, Note_on_c, 1, 64, 127
2, 53080, Note_on_c, 1, 69, 127
2, 53160, Note_off_c, 1, 45, 0
2, 53160, Note_off_c, 1, 49, 0
2, 53160, Note_off_c, 1, 64, 0
2, 53200, Note_on_c, 1, 48, 127
2, 53200, Note_on_c, 1, 52, 127
2, 53200, Note_on_c, 1, 62, 127
2, 53280, Note_off_c, 1, 62, 0
2, 53320, Note_on_c, 1, 60, 127
2, 53400, Note_off_c, 1, 48, 0
2, 53400, Note_off_c, 1, 52, 0
2, 53400, Note_off_c, 1, 60, 0
2, 53440, Note_on_c, 1, 45, 127
2, 53440, Note_on_c, 1, 50, 127
2, 53440, Note_on_c, 1, 53, 127
2, 53440, Note_on_c, 1, 62, 127
2, 53480, Note_on_c, 1, 41, 127
2, 53480, Note_off_c, 1, 45, 0
2, 53480, Note_on_c, 1, 46, 127
2, 53480, Note_off_c, 1, 50, 0
2, 53480, Note_on_c, 1, 52, 127
2, 53520, Note_off_c, 1, 41, 0
2, 53520, Note_on_c, 1, 45, 127
2, 53520, Note_off_c, 1, 46, 0
2, 53560, Note_on_c, 1, 50, 127
2, 53600, Note_on_c, 1, 48, 127
2, 53600, Note_off_c, 1, 50, 0
2, 53600, Note_on_c, 1, 60, 127
2, 53600, Note_off_c, 1, 62, 0
2, 53640, Note_off_c, 1, 53, 0
2, 53680, Note_off_c, 1, 48, 0
2, 53680, Note_on_c, 1, 65, 127
2, 53720, Note_on_c, 1, 48, 127
2, 53760, Note_on_c, 1, 41, 127
2, 53760, Note_off_c, 1, 45, 0
2, 53840, Note_off_c, 1, 41, 0
2, 53840, Note_on_c, 1, 45, 127
2, 53880, Note_off_c, 1, 45, 0
2, 53880, Note_off_c, 1, 52, 0
2, 53880, Note_off_c, 1, 60, 0
2, 53880, Note_off_c, 1, 65, 0
2, 53880, Note_off_c, 1, 69, 0
2, 53920, Note_on_c, 1, 36, 127
2, 53920, Note_on_c, 1, 44, 127
2, 53920, Note_off_c, 1, 48, 0
2, 53960, Note_off_c, 1, 36, 0
2, 53960, Note_off_c, 1, 44, 0
2, 54000, Note_on_c, 1, 41, 127
2, 54040, Note_off_c, 1, 41, 0
2, 54120, Note_on_c, 1, 46, 127
2, 54240, Note_on_c, 1, 50, 127
2, 54240, Note_on_c, 1, 57, 127
2, 54240, Note_on_c, 1, 74, 127
2, 54320, Note_off_c, 1, 46, 0
2, 54320, Note_off_c, 1, 50, 0
2, 54320, Note_off_c, 1, 57, 0
2, 54320, Note_off_c, 1, 74, 0
2, 54360, Note_on_c, 1, 45, 127
2, 54360, Note_on_c, 1, 53, 127
2, 54360, Note_on_c, 1, 76, 127
2, 54480, Note_off_c, 1, 53, 0
2, 54520, Note_off_c, 1, 45, 0
2, 54520, Note_on_c, 1, 49, 127
2, 54520, Note_on_c, 1, 58, 127
2, 54520, Note_on_c, 1, 78, 127
2, 54560, Note_off_c, 1, 78, 0
2, 54560, Note_on_c, 1, 80, 127
2, 54600, Note_off_c, 1, 76, 0
2, 54600, Note_on_c, 1, 78, 127
2, 54600, Note_on_c, 1, 79, 127
2, 54600, Note_off_c, 1, 80, 0
2, 54640, Note_off_c, 1, 78, 0
2, 54640, Note_on_c, 1, 81, 127
2, 54680, Note_on_c, 1, 77, 127
2, 54680, Note_off_c, 1, 79, 0
2, 54720, Note_on_c, 1, 80, 127
2, 54720, Note_off_c, 1, 81, 0
2, 54760, Note_off_c, 1, 49, 0
2, 54760, Note_off_c, 1, 58, 0
2, 54760, Note_off_c, 1, 77, 0
2, 54760, Note_off_c, 1, 80, 0
2, 54800, Note_on_c, 1, 58, 127
2, 54800, Note_on_c, 1, 65, 127
2, 54800, Note_on_c, 1, 79, 127
2, 55000, Note_off_c, 1, 58, 0
2, 55040, Note_on_c, 1, 50, 127
2, 55040, Note_on_c, 1, 77, 127
2, 55040, Note_off_c, 1, 79, 0
2, 55200, Note_off_c, 1, 65, 0
2, 55240, Note_on_c, 1, 65, 127
2, 55320, Note_off_c, 1, 65, 0
2, 55320, Note_off_c, 1, 77, 0
2, 55360, Note_on_c, 1, 69, 127
2, 55360, Note_on_c, 1, 77, 127
2, 55600, Note_off_c, 1, 50, 0
2, 55600, Note_off_c, 1, 69, 0
2, 55640, Note_on_c, 1, 38, 127
2, 55640, Note_on_c, 1, 72, 127
2, 55760, Note_off_c, 1, 38, 0
2, 55800, Note_on_c, 1, 45, 127
2, 55880, Note_off_c, 1, 45, 0
2, 55920, Note_on_c, 1, 50, 127
2, 56040, Note_off_c, 1, 50, 0
2, 56040, Note_off_c, 1, 77, 0
2, 56080, Note_on_c, 1, 50, 127
2, 56080, Note_on_c, 1, 77, 127
2, 56240, Note_off_c, 1, 72, 0
2, 56280, Note_on_c, 1, 70, 127
2, 56360, Note_off_c, 1, 50, 0
2, 56360, Note_on_c, 1, 67, 127
2, 56360, Note_off_c, 1, 70, 0
2, 56360, Note_off_c, 1, 77, 0
2, 56400, Note_on_c, 1, 52, 127
2, 56400, Note_off_c, 1, 67, 0
2, 56400, Note_on_c, 1, 69, 127
2, 56400, Note_on_c, 1, 78, 127
2, 56440, Note_off_c, 1, 78, 0
2, 56440, Note_on_c, 1, 81, 127
2, 56520, Note_off_c, 1, 52, 0
2, 56560, Note_on_c, 1, 50, 127
2, 56600, Note_off_c, 1, 50, 0
2, 56640, Note_on_c, 1, 49, 127
2, 56640, Note_on_c, 1, 79, 127
2, 56640, Note_off_c, 1, 81, 0
2, 56680, Note_on_c, 1, 45, 127
2, 56680, Note_off_c, 1, 49, 0
2, 56720, Note_off_c, 1, 45, 0
2, 56720, Note_off_c, 1, 79, 0
2, 56760, Note_on_c, 1, 45, 127
2, 56760, Note_on_c, 1, 81, 127
2, 56800, Note_off_c, 1, 45, 0
2, 56840, Note_on_c, 1, 45, 127
2, 56880, Note_off_c, 1, 45, 0
2, 56920, Note_on_c, 1, 50, 127
2, 56920, Note_on_c, 1, 79, 127
2, 56920, Note_off_c, 1, 81, 0
2, 56960, Note_off_c, 1, 69, 0
2, 57160, Note_off_c, 1, 50, 0
2, 57160, Note_off_c, 1, 79, 0
2, 57200, Note_on_c, 1, 48, 127
2, 57200, Note_on_c, 1, 76, 127
2, 57320, Note_off_c, 1, 76, 0
2, 57360, Note_on_c, 1, 77, 127
2, 57440, Note_off_c, 1, 77, 0
2, 57440, Note_on_c, 1, 79, 127
2, 57520, Note_off_c, 1, 79, 0
2, 57560, Note_on_c, 1, 74, 127
2, 57560, Note_on_c, 1, 79, 127
2, 57600, Note_on_c, 1, 76, 127
2, 57600, Note_off_c, 1, 79, 0
2, 57640, Note_off_c, 1, 48, 0
2, 57640, Note_off_c, 1, 74, 0
2, 57640, Note_off_c, 1, 76, 0
2, 57720, Note_on_c, 1, 36, 127
2, 57720, Note_on_c, 1, 76, 127
2, 57840, Note_off_c, 1, 36, 0
2, 57840, Note_off_c, 1, 76, 0
2, 57880, Note_on_c, 1, 45, 127
2, 57880, Note_on_c, 1, 69, 127
2, 57880, Note_on_c, 1, 73, 127
2, 57920, Note_off_c, 1, 73, 0
2, 57920, Note_on_c, 1, 75, 127
2, 58080, Note_off_c, 1, 45, 0
2, 58080, Note_off_c, 1, 69, 0
2, 58080, Note_off_c, 1, 75, 0
2, 58120, Note_on_c, 1, 50, 127
2, 58120, Note_on_c, 1, 69, 127
2, 58120, Note_on_c, 1, 74, 127
2, 58240, Note_off_c, 1, 50, 0
2, 58240, Note_off_c, 1, 69, 0
2, 58240, Note_off_c, 1, 74, 0
2, 58280, Note_on_c, 1, 49, 127
2, 58280, Note_on_c, 1, 68, 127
2, 58280, Note_on_c, 1, 76, 127
2, 58400, Note_off_c, 1, 68, 0
2, 58440, Note_on_c, 1, 66, 127
2, 58520, Note_off_c, 1, 49, 0
2, 58560, Note_on_c, 1, 50, 127
2, 58640, Note_off_c, 1, 76, 0
2, 58680, Note_on_c, 1, 77, 127
2, 58840, Note_off_c, 1, 50, 0
2, 58840, Note_off_c, 1, 66, 0
2, 58840, Note_off_c, 1, 77, 0
2, 58880, Note_on_c, 1, 50, 127
2, 58880, Note_on_c, 1, 73, 127
2, 58960, Note_off_c, 1, 73, 0
2, 59000, Note_on_c, 1, 74, 127
2, 59240, Note_off_c, 1, 50, 0
2, 59280, Note_on_c, 1, 50, 127
2, 59440, Note_on_c, 1, 77, 127
2, 59680, Note_off_c, 1, 50, 0
2, 59680, Note_off_c, 1, 74, 0
2, 59720, Note_on_c, 1, 63, 127
2, 59720, Note_on_c, 1, 79, 127
2, 59760, End_track
3, 0, Start_track
3, 0, Title_t, "MIDI"
3, 1536, End_track
0, 0, End_of_file
