0, 0, Header, 1, 3, 384
1, 0, Start_track
1, 0, Time_signature, 4, 2, 24, 8
1, 0, Tempo, 500000
1, 52560, End_track
2, 0, Start_track
2, 0, Text_t, "harpsichord: John Sankey"
2, 0, Title_t, "Track 1"
2, 0, Note_on_c, 1, 38, 127
2, 0, Note_on_c, 1, 55, 127
2, 0, Note_on_c, 1, 62, 127
2, 0, Note_on_c, 1, 69, 127
2, 80, Note_on_c, 1, 50, 127
2, 80, Note_off_c, 1, 55, 0
2, 80, Note_on_c, 1, 57, 127
2, 240, Note_off_c, 1, 57, 0
2, 240, Note_off_c, 1, 69, 0
2, 280, Note_on_c, 1, 59, 127
2, 280, Note_on_c, 1, 65, 127
2, 280, Note_on_c, 1, 67, 127
2, 320, Note_off_c, 1, 67, 0
2, 880, Note_off_c, 1, 62, 0
2, 920, Note_on_c, 1, 67, 127
2, 1040, Note_on_c, 1, 58, 127
2, 1040, Note_off_c, 1, 59, 0
2, 1040, Note_off_c, 1, 65, 0
2, 1080, Note_off_c, 1, 58, 0
2, 1080, Note_on_c, 1, 59, 127
2, 1080, Note_on_c, 1, 65, 127
2, 1240, Note_off_c, 1, 67, 0
2, 1280, Note_on_c, 1, 67, 127
2, 1840, Note_off_c, 1, 38, 0
2, 1840, Note_off_c, 1, 59, 0
2, 1840, Note_off_c, 1, 65, 0
2, 1840, Note_off_c, 1, 67, 0
2, 1880, Note_on_c, 1, 38, 127
2, 1880, Note_on_c, 1, 59, 127
2, 1880, Note_on_c, 1, 62, 127
2, 1880, Note_on_c, 1, 67, 127
2, 2200, Note_off_c, 1, 50, 0
2, 2200, Note_off_c, 1, 62, 0
2, 2240, Note_off_c, 1, 38, 0
2, 2240, Note_on_c, 1, 43, 127
2, 2240, Note_on_c, 1, 52, 127
2, 2240, Note_on_c, 1, 60, 127
2, 2280, Note_off_c, 1, 60, 0
2, 2280, Note_off_c, 1, 67, 0
2, 2320, Note_on_c, 1, 50, 127
2, 2320, Note_off_c, 1, 52, 0
2, 2360, Note_on_c, 1, 62, 127
2, 2560, Note_on_c, 1, 63, 127
2, 2600, Note_off_c, 1, 63, 0
2, 2600, Note_on_c, 1, 65, 127
2, 3320, Note_off_c, 1, 50, 0
2, 3320, Note_off_c, 1, 59, 0
2, 3320, Note_off_c, 1, 62, 0
2, 3320, Note_off_c, 1, 65, 0
2, 3640, Note_off_c, 1, 43, 0
2, 3680, Note_on_c, 1, 50, 127
2, 3760, Note_on_c, 1, 77, 127
2, 3800, Note_off_c, 1, 77, 0
2, 3840, Note_on_c, 1, 76, 127
2, 3920, Note_off_c, 1, 50, 0
2, 3920, Note_off_c, 1, 76, 0
2, 3960, Note_on_c, 1, 52, 127
2, 3960, Note_on_c, 1, 57, 127
2, 3960, Note_on_c, 1, 75, 127
2, 4200, Note_off_c, 1, 57, 0
2, 4240, Note_on_c, 1, 58, 127
2, 4400, Note_off_c, 1, 52, 0
2, 4400, Note_off_c, 1, 58, 0
2, 4400, Note_off_c, 1, 75, 0
2, 4440, Note_on_c, 1, 50, 127
2, 4440, Note_on_c, 1, 74, 127
2, 4600, Note_off_c, 1, 74, 0
2, 4640, Note_on_c, 1, 72, 127
2, 4680, Note_off_c, 1, 50, 0
2, 4720, Note_on_c, 1, 57, 127
2, 4840, Note_off_c, 1, 57, 0
2, 4880, Note_on_c, 1, 57, 127
2, 5200, Note_off_c, 1, 57, 0
2, 5200, Note_off_c, 1, 72, 0
2, 5240, Note_on_c, 1, 52, 127
2, 5240, Note_on_c, 1, 71, 127
2, 5280, Note_off_c, 1, 52, 0
2, 5280, Note_on_c, 1, 54, 127
2, 5440, Note_off_c, 1, 54, 0
2, 5440, Note_off_c, 1, 71, 0
2, 5480, Note_on_c, 1, 53, 127
2, 5480, Note_on_c, 1, 69, 127
2, 5760, Note_off_c, 1, 53, 0
2, 5760, Note_off_c, 1, 69, 0
2, 5800, Note_on_c, 1, 65, 127
2, 5800, Note_on_c, 1, 72, 127
2, 6000, Note_off_c, 1, 65, 0
2, 6000, Note_off_c, 1, 72, 0
2, 6000, Note_on_c, 1, 77, 127
2, 6040, Note_on_c, 1, 50, 127
2, 6040, Note_on_c, 1, 65, 127
2, 6040, Note_on_c, 1, 74, 127
2, 6040, Note_off_c, 1, 77, 0
2, 6080, Note_off_c, 1, 50, 0
2, 6080, Note_on_c, 1, 53, 127
2, 6160, Note_off_c, 1, 53, 0
2, 6200, Note_on_c, 1, 51, 127
2, 6240, Note_off_c, 1, 51, 0
2, 6240, Note_on_c, 1, 53, 127
2, 6360, Note_off_c, 1, 53, 0
2, 6400, Note_off_c, 1, 65, 0
2, 6400, Note_on_c, 1, 69, 127
2, 6440, Note_on_c, 1, 60, 127
2, 6560, Note_off_c, 1, 60, 0
2, 6560, Note_off_c, 1, 74, 0
2, 6600, Note_on_c, 1, 58, 127
2, 6600, Note_on_c, 1, 74, 127
2, 6840, Note_off_c, 1, 69, 0
2, 6840, Note_off_c, 1, 74, 0
2, 6880, Note_on_c, 1, 67, 127
2, 6880, Note_on_c, 1, 73, 127
2, 7040, Note_off_c, 1, 58, 0
2, 7040, Note_off_c, 1, 73, 0
2, 7080, Note_on_c, 1, 57, 127
2, 7080, Note_on_c, 1, 72, 127
2, 7240, Note_off_c, 1, 67, 0
2, 7320, Note_on_c, 1, 67, 127
2, 7440, Note_off_c, 1, 57, 0
2, 7440, Note_off_c, 1, 67, 0
2, 7440, Note_off_c, 1, 72, 0
2, 7480, Note_on_c, 1, 53, 127
2, 7480, Note_on_c, 1, 69, 127
2, 7480, Note_on_c, 1, 73, 127
2, 7520, Note_on_c, 1, 71, 127
2, 7520, Note_off_c, 1, 73, 0
2, 7600, Note_off_c, 1, 69, 0
2, 7600, Note_off_c, 1, 71, 0
2, 7640, Note_on_c, 1, 72, 127
2, 7760, Note_off_c, 1, 53, 0
2, 7760, Note_off_c, 1, 72, 0
2, 7800, Note_on_c, 1, 57, 127
2, 7800, Note_on_c, 1, 77, 127
2, 7920, Note_off_c, 1, 57, 0
2, 7960, Note_on_c, 1, 58, 127
2, 8160, Note_on_c, 1, 68, 127
2, 8320, Note_off_c, 1, 58, 0
2, 8320, Note_off_c, 1, 68, 0
2, 8360, Note_on_c, 1, 58, 127
2, 8440, Note_off_c, 1, 77, 0
2, 8480, Note_on_c, 1, 75, 127
2, 8600, Note_off_c, 1, 75, 0
2, 8640, Note_on_c, 1, 74, 127
2, 8720, Note_off_c, 1, 58, 0
2, 8720, Note_off_c, 1, 74, 0
2, 8760, Note_on_c, 1, 51, 127
2, 8760, Note_on_c, 1, 74, 127
2, 8920, Note_off_c, 1, 51, 0
2, 8920, Note_off_c, 1, 74, 0
2, 8960, Note_on_c, 1, 53, 127
2, 8960, Note_on_c, 1, 74, 127
2, 9160, Note_off_c, 1, 53, 0
2, 9160, Note_off_c, 1, 74, 0
2, 9200, Note_on_c, 1, 51, 127
2, 9200, Note_on_c, 1, 72, 127
2, 9360, Note_off_c, 1, 51, 0
2, 9400, Note_on_c, 1, 58, 127
2, 9480, Note_off_c, 1, 72, 0
2, 9520, Note_on_c, 1, 75, 127
2, 9640, Note_off_c, 1, 58, 0
2, 9640, Note_off_c, 1, 75, 0
2, 9680, Note_on_c, 1, 57, 127
2, 9680, Note_on_c, 1, 74, 127
2, 9800, Note_off_c, 1, 74, 0
2, 9840, Note_on_c, 1, 73, 127
2, 9960, Note_off_c, 1, 57, 0
2, 9960, Note_off_c, 1, 73, 0
2, 10000, Note_on_c, 1, 55, 127
2, 10000, Note_on_c, 1, 72, 127
2, 10160, Note_off_c, 1, 55, 0
2, 10160, Note_off_c, 1, 72, 0
2, 10200, Note_on_c, 1, 57, 127
2, 10200, Note_on_c, 1, 70, 127
2, 10360, Note_off_c, 1, 57, 0
2, 10360, Note_off_c, 1, 70, 0
2, 10400, Note_on_c, 1, 58, 127
2, 10400, Note_on_c, 1, 73, 127
2, 10560, Note_off_c, 1, 73, 0
2, 10640, Note_on_c, 1, 55, 127
2, 10640, Note_off_c, 1, 58, 0
2, 10640, Note_on_c, 1, 75, 127
2, 10760, Note_off_c, 1, 55, 0
2, 10800, Note_on_c, 1, 55, 127
2, 10880, Note_off_c, 1, 55, 0
2, 10880, Note_off_c, 1, 75, 0
2, 10880, Note_on_c, 1, 76, 127
2, 10920, Note_on_c, 1, 55, 127
2, 11080, Note_off_c, 1, 55, 0
2, 11160, Note_off_c, 1, 76, 0
2, 11160, Note_on_c, 1, 77, 127
2, 11200, Note_on_c, 1, 58, 127
2, 11200, Note_on_c, 1, 76, 127
2, 11200, Note_off_c, 1, 77, 0
2, 11520, Note_off_c, 1, 76, 0
2, 11560, Note_on_c, 1, 72, 127
2, 11640, Note_on_c, 1, 71, 127
2, 11640, Note_off_c, 1, 72, 0
2, 11680, Note_off_c, 1, 71, 0
2, 11720, Note_off_c, 1, 58, 0
2, 11760, Note_on_c, 1, 63, 127
2, 11760, Note_on_c, 1, 75, 127
2, 11920, Note_off_c, 1, 63, 0
2, 11920, Note_off_c, 1, 75, 0
2, 11960, Note_on_c, 1, 63, 127
2, 11960, Note_on_c, 1, 73, 127
2, 12120, Note_off_c, 1, 63, 0
2, 12120, Note_off_c, 1, 73, 0
2, 12160, Note_on_c, 1, 73, 127
2, 12320, Note_off_c, 1, 73, 0
2, 12360, Note_on_c, 1, 68, 127
2, 12480, Note_off_c, 1, 68, 0
2, 12560, Note_on_c, 1, 65, 127
2, 12680, Note_off_c, 1, 65, 0
2, 12720, Note_on_c, 1, 67, 127
2, 12840, Note_off_c, 1, 67, 0
2, 12880, Note_on_c, 1, 60, 127
2, 12880, Note_on_c, 1, 67, 127
2, 13040, Note_off_c, 1, 60, 0
2, 13040, Note_off_c, 1, 67, 0
2, 13080, Note_on_c, 1, 62, 127
2, 13080, Note_on_c, 1, 67, 127
2, 13240, Note_off_c, 1, 62, 0
2, 13240, Note_off_c, 1, 67, 0
2, 13280, Note_on_c, 1, 65, 127
2, 13320, Note_off_c, 1, 65, 0
2, 13320, Note_on_c, 1, 66, 127
2, 13400, Note_off_c, 1, 66, 0
2, 13440, Note_on_c, 1, 67, 127
2, 13600, Note_on_c, 1, 54, 127
2, 13720, Note_off_c, 1, 54, 0
2, 13720, Note_off_c, 1, 67, 0
2, 13760, Note_on_c, 1, 55, 127
2, 13760, Note_on_c, 1, 71, 127
2, 13840, Note_off_c, 1, 55, 0
2, 13880, Note_on_c, 1, 57, 127
2, 14040, Note_off_c, 1, 57, 0
2, 14080, Note_on_c, 1, 59, 127
2, 14240, Note_off_c, 1, 59, 0
2, 14240, Note_off_c, 1, 71, 0
2, 14280, Note_on_c, 1, 57, 127
2, 14280, Note_on_c, 1, 72, 127
2, 14440, Note_off_c, 1, 57, 0
2, 14440, Note_off_c, 1, 72, 0
2, 14480, Note_on_c, 1, 58, 127
2, 14480, Note_on_c, 1, 74, 127
2, 14640, Note_off_c, 1, 74, 0
2, 14720, Note_on_c, 1, 67, 127
2, 14840, Note_off_c, 1, 58, 0
2, 14920, Note_on_c, 1, 57, 127
2, 14920, Note_on_c, 1, 75, 127
2, 15080, Note_off_c, 1, 57, 0
2, 15120, Note_on_c, 1, 55, 127
2, 15240, Note_off_c, 1, 67, 0
2, 15280, Note_on_c, 1, 60, 127
2, 15280, Note_off_c, 1, 75, 0
2, 15320, Note_on_c, 1, 79, 127
2, 15560, Note_off_c, 1, 79, 0
2, 15600, Note_on_c, 1, 70, 127
2, 15640, Note_on_c, 1, 69, 127
2, 15640, Note_off_c, 1, 70, 0
2, 15680, Note_off_c, 1, 69, 0
2, 15720, Note_on_c, 1, 76, 127
2, 15880, Note_off_c, 1, 76, 0
2, 15920, Note_on_c, 1, 72, 127
2, 16240, Note_off_c, 1, 55, 0
2, 16240, Note_off_c, 1, 60, 0
2, 16240, Note_off_c, 1, 72, 0
2, 16280, Note_on_c, 1, 55, 127
2, 16280, Note_on_c, 1, 72, 127
2, 16400, Note_off_c, 1, 55, 0
2, 16440, Note_off_c, 1, 72, 0
2, 16520, Note_on_c, 1, 57, 127
2, 16520, Note_on_c, 1, 73, 127
2, 16680, Note_off_c, 1, 57, 0
2, 16680, Note_off_c, 1, 73, 0
2, 16720, Note_on_c, 1, 47, 127
2, 16720, Note_on_c, 1, 72, 127
2, 16880, Note_off_c, 1, 72, 0
2, 16920, Note_on_c, 1, 74, 127
2, 16960, Note_off_c, 1, 47, 0
2, 17000, Note_off_c, 1, 74, 0
2, 17040, Note_on_c, 1, 48, 127
2, 17040, Note_on_c, 1, 55, 127
2, 17040, Note_on_c, 1, 72, 127
2, 17240, Note_off_c, 1, 48, 0
2, 17240, Note_off_c, 1, 55, 0
2, 17280, Note_on_c, 1, 50, 127
2, 17480, Note_off_c, 1, 50, 0
2, 17480, Note_off_c, 1, 72, 0
2, 17520, Note_on_c, 1, 49, 127
2, 17520, Note_on_c, 1, 67, 127
2, 17520, Note_on_c, 1, 70, 127
2, 17640, Note_off_c, 1, 49, 0
2, 17640, Note_off_c, 1, 67, 0
2, 17640, Note_off_c, 1, 70, 0
2, 17640, Note_on_c, 1, 79, 127
2, 17720, Note_on_c, 1, 52, 127
2, 17720, Note_on_c, 1, 67, 127
2, 17840, Note_off_c, 1, 79, 0
2, 17880, Note_on_c, 1, 80, 127
2, 18040, Note_off_c, 1, 52, 0
2, 18040, Note_off_c, 1, 67, 0
2, 18040, Note_on_c, 1, 79, 127
2, 18040, Note_off_c, 1, 80, 0
2, 18080, Note_on_c, 1, 51, 127
2, 18080, Note_on_c, 1, 67, 127
2, 18200, Note_off_c, 1, 79, 0
2, 18240, Note_on_c, 1, 80, 127
2, 18400, Note_off_c, 1, 51, 0
2, 18400, Note_off_c, 1, 67, 0
2, 18400, Note_off_c, 1, 80, 0
2, 18440, Note_on_c, 1, 50, 127
2, 18440, Note_on_c, 1, 67, 127
2, 18600, Note_off_c, 1, 50, 0
2, 18600, Note_off_c, 1, 67, 0
2, 18640, Note_on_c, 1, 50, 127
2, 18640, Note_on_c, 1, 65, 127
2, 18800, Note_off_c, 1, 50, 0
2, 18800, Note_off_c, 1, 65, 0
2, 18840, Note_on_c, 1, 48, 127
2, 18840, Note_on_c, 1, 67, 127
2, 19000, Note_off_c, 1, 48, 0
2, 19000, Note_off_c, 1, 67, 0
2, 19040, Note_on_c, 1, 47, 127
2, 19040, Note_on_c, 1, 67, 127
2, 19160, Note_off_c, 1, 47, 0
2, 19200, Note_on_c, 1, 45, 127
2, 19240, Note_off_c, 1, 67, 0
2, 19280, Note_on_c, 1, 67, 127
2, 19400, Note_off_c, 1, 45, 0
2, 19440, Note_on_c, 1, 62, 127
2, 19480, Note_off_c, 1, 62, 0
2, 19480, Note_off_c, 1, 67, 0
2, 19520, Note_on_c, 1, 55, 127
2, 19520, Note_on_c, 1, 60, 127
2, 19520, Note_on_c, 1, 74, 127
2, 19680, Note_off_c, 1, 55, 0
2, 19680, Note_off_c, 1, 60, 0
2, 19680, Note_off_c, 1, 74, 0
2, 19720, Note_on_c, 1, 53, 127
2, 19720, Note_on_c, 1, 62, 127
2, 19720, Note_on_c, 1, 72, 127
2, 19920, Note_off_c, 1, 53, 0
2, 19960, Note_on_c, 1, 50, 127
2, 20120, Note_off_c, 1, 50, 0
2, 20120, Note_off_c, 1, 72, 0
2, 20160, Note_on_c, 1, 48, 127
2, 20160, Note_on_c, 1, 69, 127
2, 20280, Note_off_c, 1, 62, 0
2, 20320, Note_on_c, 1, 62, 127
2, 20360, Note_off_c, 1, 48, 0
2, 20360, Note_off_c, 1, 62, 0
2, 20360, Note_off_c, 1, 69, 0
2, 20440, Note_on_c, 1, 57, 127
2, 20440, Note_on_c, 1, 60, 127
2, 20440, Note_on_c, 1, 81, 127
2, 20520, Note_off_c, 1, 60, 0
2, 20520, Note_on_c, 1, 62, 127
2, 20640, Note_off_c, 1, 57, 0
2, 20640, Note_off_c, 1, 81, 0
2, 20680, Note_on_c, 1, 57, 127
2, 20680, Note_on_c, 1, 74, 127
2, 20840, Note_off_c, 1, 57, 0
2, 20840, Note_off_c, 1, 62, 0
2, 20840, Note_off_c, 1, 74, 0
2, 20880, Note_on_c, 1, 53, 127
2, 20880, Note_on_c, 1, 81, 127
2, 21000, Note_off_c, 1, 81, 0
2, 21040, Note_on_c, 1, 74, 127
2, 21040, Note_on_c, 1, 81, 127
2, 21240, Note_off_c, 1, 53, 0
2, 21240, Note_off_c, 1, 81, 0
2, 21280, Note_on_c, 1, 55, 127
2, 21320, Note_on_c, 1, 79, 127
2, 21440, Note_off_c, 1, 79, 0
2, 21440, Note_on_c, 1, 81, 127
2, 21480, Note_on_c, 1, 79, 127
2, 21480, Note_off_c, 1, 81, 0
2, 21920, Note_on_c, 1, 71, 127
2, 21920, Note_off_c, 1, 74, 0
2, 22000, Note_off_c, 1, 71, 0
2, 22000, Note_on_c, 1, 74, 127
2, 22040, Note_off_c, 1, 74, 0
2, 22040, Note_on_c, 1, 76, 127
2, 22080, Note_off_c, 1, 55, 0
2, 22080, Note_off_c, 1, 79, 0
2, 22120, Note_on_c, 1, 58, 127
2, 22120, Note_on_c, 1, 79, 127
2, 22400, Note_off_c, 1, 58, 0
2, 22440, Note_on_c, 1, 57, 127
2, 22600, Note_on_c, 1, 74, 127
2, 22600, Note_off_c, 1, 79, 0
2, 22640, Note_off_c, 1, 74, 0
2, 22680, Note_off_c, 1, 57, 0
2, 22680, Note_off_c, 1, 76, 0
2, 22680, Note_on_c, 1, 79, 127
2, 22720, Note_on_c, 1, 57, 127
2, 22720, Note_on_c, 1, 74, 127
2, 22720, Note_off_c, 1, 79, 0
2, 22720, Note_on_c, 1, 81, 127
2, 22880, Note_off_c, 1, 81, 0
2, 22920, Note_on_c, 1, 81, 127
2, 23000, Note_on_c, 1, 77, 127
2, 23000, Note_off_c, 1, 81, 0
2, 23040, Note_off_c, 1, 74, 0
2, 23040, Note_on_c, 1, 76, 127
2, 23080, Note_on_c, 1, 74, 127
2, 23080, Note_off_c, 1, 76, 0
2, 23120, Note_off_c, 1, 57, 0
2, 23120, Note_off_c, 1, 77, 0
2, 23200, Note_on_c, 1, 77, 127
2, 23240, Note_on_c, 1, 62, 127
2, 23760, Note_off_c, 1, 77, 0
2, 23840, Note_on_c, 1, 76, 127
2, 23920, Note_off_c, 1, 74, 0
2, 23920, Note_off_c, 1, 76, 0
2, 24000, Note_on_c, 1, 74, 127
2, 24040, Note_on_c, 1, 71, 127
2, 24040, Note_off_c, 1, 74, 0
2, 24040, Note_on_c, 1, 79, 127
2, 24080, Note_off_c, 1, 79, 0
2, 24120, Note_on_c, 1, 79, 127
2, 24200, Note_off_c, 1, 71, 0
2, 24200, Note_off_c, 1, 79, 0
2, 24240, Note_on_c, 1, 69, 127
2, 24240, Note_on_c, 1, 81, 127
2, 24320, Note_on_c, 1, 79, 127
2, 24320, Note_off_c, 1, 81, 0
2, 24400, Note_off_c, 1, 79, 0
2, 24440, Note_on_c, 1, 81, 127
2, 24480, Note_off_c, 1, 62, 0
2, 24480, Note_off_c, 1, 81, 0
2, 24520, Note_on_c, 1, 81, 127
2, 24560, Note_on_c, 1, 62, 127
2, 24560, Note_on_c, 1, 78, 127
2, 24560, Note_off_c, 1, 81, 0
2, 24680, Note_off_c, 1, 69, 0
2, 24680, Note_on_c, 1, 76, 127
2, 24680, Note_off_c, 1, 78, 0
2, 24680, Note_on_c, 1, 81, 127
2, 24720, Note_off_c, 1, 81, 0
2, 24760, Note_on_c, 1, 65, 127
2, 24760, Note_on_c, 1, 74, 127
2, 24760, Note_off_c, 1, 76, 0
2, 24760, Note_on_c, 1, 81, 127
2, 24800, Note_off_c, 1, 81, 0
2, 25000, Note_off_c, 1, 62, 0
2, 25040, Note_on_c, 1, 62, 127
2, 25080, Note_on_c, 1, 77, 127
2, 25280, Note_on_c, 1, 70, 127
2, 25280, Note_off_c, 1, 74, 0
2, 25320, Note_off_c, 1, 70, 0
2, 25320, Note_on_c, 1, 74, 127
2, 25440, Note_off_c, 1, 62, 0
2, 25440, Note_off_c, 1, 65, 0
2, 25440, Note_off_c, 1, 74, 0
2, 25440, Note_off_c, 1, 77, 0
2, 25480, Note_on_c, 1, 65, 127
2, 25480, Note_on_c, 1, 67, 127
2, 25480, Note_on_c, 1, 73, 127
2, 25760, Note_off_c, 1, 67, 0
2, 25760, Note_off_c, 1, 73, 0
2, 25800, Note_on_c, 1, 69, 127
2, 25920, Note_off_c, 1, 69, 0
2, 25960, Note_on_c, 1, 72, 127
2, 26080, Note_off_c, 1, 72, 0
2, 26120, Note_on_c, 1, 72, 127
2, 26240, Note_off_c, 1, 72, 0
2, 26240, Note_on_c, 1, 74, 127
2, 26280, Note_off_c, 1, 65, 0
2, 26320, Note_on_c, 1, 67, 127
2, 26440, Note_off_c, 1, 67, 0
2, 26440, Note_off_c, 1, 74, 0
2, 26480, Note_on_c, 1, 62, 127
2, 26480, Note_on_c, 1, 68, 127
2, 26480, Note_on_c, 1, 72, 127
2, 26680, Note_off_c, 1, 62, 0
2, 26680, Note_off_c, 1, 68, 0
2, 26680, Note_off_c, 1, 72, 0
2, 26720, Note_on_c, 1, 62, 127
2, 26720, Note_on_c, 1, 69, 127
2, 26720, Note_on_c, 1, 71, 127
2, 26760, Note_off_c, 1, 71, 0
2, 26960, Note_off_c, 1, 62, 0
2, 27000, Note_on_c, 1, 65, 127
2, 27000, Note_on_c, 1, 73, 127
2, 27160, Note_off_c, 1, 65, 0
2, 27160, Note_off_c, 1, 69, 0
2, 27160, Note_off_c, 1, 73, 0
2, 27200, Note_on_c, 1, 64, 127
2, 27200, Note_on_c, 1, 67, 127
2, 27200, Note_on_c, 1, 72, 127
2, 27320, Note_off_c, 1, 64, 0
2, 27320, Note_off_c, 1, 72, 0
2, 27360, Note_on_c, 1, 73, 127
2, 27520, Note_on_c, 1, 74, 127
2, 27640, Note_on_c, 1, 71, 127
2, 27640, Note_off_c, 1, 73, 0
2, 27720, Note_off_c, 1, 71, 0
2, 27720, Note_off_c, 1, 74, 0
2, 27760, Note_on_c, 1, 74, 127
2, 28080, Note_off_c, 1, 67, 0
2, 28080, Note_on_c, 1, 70, 127
2, 28120, Note_on_c, 1, 62, 127
2, 28120, Note_on_c, 1, 67, 127
2, 28240, Note_off_c, 1, 62, 0
2, 28240, Note_off_c, 1, 70, 0
2, 28240, Note_on_c, 1, 72, 127
2, 28240, Note_off_c, 1, 74, 0
2, 28280, Note_off_c, 1, 67, 0
2, 28280, Note_on_c, 1, 69, 127
2, 28280, Note_off_c, 1, 72, 0
2, 28440, Note_off_c, 1, 69, 0
2, 28480, Note_on_c, 1, 69, 127
2, 28480, Note_on_c, 1, 73, 127
2, 28560, Note_on_c, 1, 76, 127
2, 28600, Note_on_c, 1, 67, 127
2, 28600, Note_off_c, 1, 69, 0
2, 28640, Note_on_c, 1, 66, 127
2, 28640, Note_off_c, 1, 67, 0
2, 28640, Note_on_c, 1, 69, 127
2, 28680, Note_off_c, 1, 66, 0
2, 28680, Note_off_c, 1, 69, 0
2, 28680, Note_off_c, 1, 73, 0
2, 28680, Note_off_c, 1, 76, 0
2, 28720, Note_on_c, 1, 67, 127
2, 28720, Note_on_c, 1, 69, 127
2, 28720, Note_on_c, 1, 74, 127
2, 28920, Note_off_c, 1, 67, 0
2, 28920, Note_off_c, 1, 74, 0
2, 28960, Note_on_c, 1, 70, 127
2, 29000, Note_off_c, 1, 70, 0
2, 29000, Note_on_c, 1, 72, 127
2, 29040, Note_off_c, 1, 69, 0
2, 29040, Note_off_c, 1, 72, 0
2, 29080, Note_on_c, 1, 65, 127
2, 29080, Note_on_c, 1, 69, 127
2, 29080, Note_on_c, 1, 72, 127
2, 29240, Note_off_c, 1, 65, 0
2, 29240, Note_off_c, 1, 69, 0
2, 29240, Note_off_c, 1, 72, 0
2, 29280, Note_on_c, 1, 62, 127
2, 29280, Note_on_c, 1, 69, 127
2, 29280, Note_on_c, 1, 74, 127
2, 29440, Note_on_c, 1, 71, 127
2, 29520, Note_off_c, 1, 62, 0
2, 29520, Note_off_c, 1, 71, 0
2, 29520, Note_off_c, 1, 74, 0
2, 29560, Note_on_c, 1, 57, 127
2, 29560, Note_off_c, 1, 69, 0
2, 29560, Note_on_c, 1, 72, 127
2, 29560, Note_on_c, 1, 77, 127
2, 29680, Note_off_c, 1, 72, 0
2, 29680, Note_on_c, 1, 74, 127
2, 29760, Note_off_c, 1, 57, 0
2, 29760, Note_off_c, 1, 74, 0
2, 29760, Note_off_c, 1, 77, 0
2, 29800, Note_on_c, 1, 53, 127
2, 29800, Note_on_c, 1, 64, 127
2, 29800, Note_on_c, 1, 73, 127
2, 29960, Note_off_c, 1, 53, 0
2, 29960, Note_off_c, 1, 64, 0
2, 30000, Note_on_c, 1, 55, 127
2, 30000, Note_on_c, 1, 76, 127
2, 30160, Note_off_c, 1, 55, 0
2, 30160, Note_off_c, 1, 76, 0
2, 30200, Note_on_c, 1, 52, 127
2, 30200, Note_on_c, 1, 61, 127
2, 30200, Note_on_c, 1, 76, 127
2, 30480, Note_off_c, 1, 73, 0
2, 30600, Note_on_c, 1, 59, 127
2, 30600, Note_off_c, 1, 61, 0
2, 30640, Note_off_c, 1, 59, 0
2, 30640, Note_off_c, 1, 76, 0
2, 30680, Note_on_c, 1, 59, 127
2, 30680, Note_on_c, 1, 76, 127
2, 30720, Note_on_c, 1, 50, 127
2, 30760, Note_off_c, 1, 50, 0
2, 31000, Note_off_c, 1, 52, 0
2, 31000, Note_off_c, 1, 59, 0
2, 31000, Note_off_c, 1, 76, 0
2, 31040, Note_on_c, 1, 50, 127
2, 31040, Note_on_c, 1, 73, 127
2, 31040, Note_on_c, 1, 77, 127
2, 31240, Note_off_c, 1, 50, 0
2, 31240, Note_on_c, 1, 52, 127
2, 31400, Note_off_c, 1, 52, 0
2, 31400, Note_off_c, 1, 73, 0
2, 31400, Note_off_c, 1, 77, 0
2, 31440, Note_on_c, 1, 46, 127
2, 31440, Note_on_c, 1, 74, 127
2, 31440, Note_on_c, 1, 78, 127
2, 31600, Note_off_c, 1, 78, 0
2, 31600, Note_on_c, 1, 82, 127
2, 31920, Note_on_c, 1, 79, 127
2, 31920, Note_off_c, 1, 82, 0
2, 31960, Note_off_c, 1, 79, 0
2, 32280, Note_off_c, 1, 46, 0
2, 32280, Note_off_c, 1, 74, 0
2, 32320, Note_on_c, 1, 43, 127
2, 32320, Note_on_c, 1, 74, 127
2, 32520, Note_on_c, 1, 72, 127
2, 32520, Note_off_c, 1, 74, 0
2, 32560, Note_on_c, 1, 60, 127
2, 32640, Note_off_c, 1, 60, 0
2, 32840, Note_on_c, 1, 47, 127
2, 32880, Note_off_c, 1, 43, 0
2, 32880, Note_off_c, 1, 47, 0
2, 32880, Note_off_c, 1, 72, 0
2, 32960, Note_on_c, 1, 76, 127
2, 33000, Note_off_c, 1, 76, 0
2, 33040, Note_on_c, 1, 74, 127
2, 33120, Note_off_c, 1, 74, 0
2, 33160, Note_on_c, 1, 55, 127
2, 33160, Note_on_c, 1, 58, 127
2, 33160, Note_on_c, 1, 64, 127
2, 33160, Note_on_c, 1, 67, 127
2, 33320, Note_on_c, 1, 61, 127
2, 33480, Note_off_c, 1, 55, 0
2, 33480, Note_off_c, 1, 58, 0
2, 33480, Note_off_c, 1, 61, 0
2, 33480, Note_off_c, 1, 64, 0
2, 33480, Note_off_c, 1, 67, 0
2, 33520, Note_on_c, 1, 53, 127
2, 33520, Note_on_c, 1, 57, 127
2, 33520, Note_on_c, 1, 62, 127
2, 33520, Note_on_c, 1, 65, 127
2, 33520, Note_on_c, 1, 69, 127
2, 33640, Note_off_c, 1, 53, 0
2, 33680, Note_on_c, 1, 51, 127
2, 33720, Note_off_c, 1, 51, 0
2, 33720, Note_on_c, 1, 52, 127
2, 33920, Note_on_c, 1, 50, 127
2, 33920, Note_off_c, 1, 52, 0
2, 33960, Note_off_c, 1, 57, 0
2, 34000, Note_on_c, 1, 48, 127
2, 34000, Note_off_c, 1, 50, 0
2, 34000, Note_on_c, 1, 53, 127
2, 34040, Note_on_c, 1, 50, 127
2, 34040, Note_off_c, 1, 53, 0
2, 34200, Note_off_c, 1, 48, 0
2, 34240, Note_on_c, 1, 43, 127
2, 34360, Note_off_c, 1, 69, 0
2, 34360, Note_on_c, 1, 70, 127
2, 34440, Note_off_c, 1, 43, 0
2, 34440, Note_off_c, 1, 50, 0
2, 34440, Note_off_c, 1, 62, 0
2, 34440, Note_off_c, 1, 65, 0
2, 34440, Note_off_c, 1, 70, 0
2, 34480, Note_on_c, 1, 48, 127
2, 34480, Note_on_c, 1, 62, 127
2, 34480, Note_on_c, 1, 67, 127
2, 34840, Note_on_c, 1, 60, 127
2, 34840, Note_off_c, 1, 62, 0
2, 34840, Note_on_c, 1, 65, 127
2, 34880, Note_off_c, 1, 65, 0
2, 34920, Note_off_c, 1, 60, 0
2, 34920, Note_off_c, 1, 67, 0
2, 34920, Note_on_c, 1, 70, 127
2, 34960, Note_off_c, 1, 48, 0
2, 34960, Note_on_c, 1, 67, 127
2, 35000, Note_on_c, 1, 46, 127
2, 35120, Note_on_c, 1, 41, 127
2, 35120, Note_off_c, 1, 46, 0
2, 35120, Note_off_c, 1, 70, 0
2, 35160, Note_on_c, 1, 70, 127
2, 35280, Note_off_c, 1, 41, 0
2, 35280, Note_off_c, 1, 67, 0
2, 35280, Note_off_c, 1, 70, 0
2, 35320, Note_on_c, 1, 48, 127
2, 35320, Note_on_c, 1, 65, 127
2, 35320, Note_on_c, 1, 67, 127
2, 35320, Note_on_c, 1, 69, 127
2, 35400, Note_off_c, 1, 67, 0
2, 35600, Note_off_c, 1, 48, 0
2, 35640, Note_on_c, 1, 45, 127
2, 35640, Note_on_c, 1, 53, 127
2, 36160, Note_off_c, 1, 53, 0
2, 36200, Note_on_c, 1, 53, 127
2, 36480, Note_off_c, 1, 53, 0
2, 36480, Note_off_c, 1, 69, 0
2, 36520, Note_on_c, 1, 52, 127
2, 36520, Note_on_c, 1, 67, 127
2, 36760, Note_off_c, 1, 52, 0
2, 36760, Note_off_c, 1, 65, 0
2, 36760, Note_off_c, 1, 67, 0
2, 36800, Note_on_c, 1, 48, 127
2, 36800, Note_on_c, 1, 61, 127
2, 36880, Note_off_c, 1, 48, 0
2, 36920, Note_off_c, 1, 61, 0
2, 36920, Note_on_c, 1, 64, 127
2, 36960, Note_on_c, 1, 50, 127
2, 36960, Note_off_c, 1, 64, 0
2, 37000, Note_on_c, 1, 65, 127
2, 37120, Note_off_c, 1, 65, 0
2, 37160, Note_on_c, 1, 71, 127
2, 37280, Note_on_c, 1, 49, 127
2, 37280, Note_off_c, 1, 50, 0
2, 37280, Note_on_c, 1, 66, 127
2, 37280, Note_off_c, 1, 71, 0
2, 37360, Note_on_c, 1, 57, 127
2, 37520, Note_off_c, 1, 66, 0
2, 37560, Note_on_c, 1, 64, 127
2, 37760, Note_off_c, 1, 45, 0
2, 37760, Note_off_c, 1, 49, 0
2, 37760, Note_off_c, 1, 64, 0
2, 37800, Note_on_c, 1, 47, 127
2, 37800, Note_on_c, 1, 55, 127
2, 37800, Note_off_c, 1, 57, 0
2, 37800, Note_on_c, 1, 58, 127
2, 37800, Note_on_c, 1, 62, 127
2, 37840, Note_on_c, 1, 53, 127
2, 37840, Note_off_c, 1, 55, 0
2, 38080, Note_on_c, 1, 64, 127
2, 38120, Note_on_c, 1, 45, 127
2, 38120, Note_off_c, 1, 47, 0
2, 38120, Note_off_c, 1, 64, 0
2, 38160, Note_off_c, 1, 45, 0
2, 38160, Note_on_c, 1, 65, 127
2, 38240, Note_off_c, 1, 53, 0
2, 38240, Note_off_c, 1, 58, 0
2, 38240, Note_off_c, 1, 65, 0
2, 38280, Note_on_c, 1, 46, 127
2, 38280, Note_on_c, 1, 57, 127
2, 38280, Note_on_c, 1, 65, 127
2, 38520, Note_off_c, 1, 46, 0
2, 38520, Note_off_c, 1, 57, 0
2, 38520, Note_off_c, 1, 62, 0
2, 38520, Note_off_c, 1, 65, 0
2, 38560, Note_on_c, 1, 48, 127
2, 38560, Note_on_c, 1, 55, 127
2, 38560, Note_on_c, 1, 58, 127
2, 38560, Note_on_c, 1, 62, 127
2, 38560, Note_on_c, 1, 64, 127
2, 38600, Note_off_c, 1, 64, 0
2, 38600, Note_on_c, 1, 65, 127
2, 38720, Note_on_c, 1, 43, 127
2, 38720, Note_on_c, 1, 57, 127
2, 38720, Note_off_c, 1, 58, 0
2, 38760, Note_off_c, 1, 57, 0
2, 38760, Note_on_c, 1, 58, 127
2, 38880, Note_on_c, 1, 36, 127
2, 38880, Note_off_c, 1, 43, 0
2, 38920, Note_off_c, 1, 36, 0
2, 38920, Note_on_c, 1, 43, 127
2, 38960, Note_off_c, 1, 48, 0
2, 38960, Note_on_c, 1, 50, 127
2, 39000, Note_on_c, 1, 46, 127
2, 39040, Note_on_c, 1, 64, 127
2, 39040, Note_off_c, 1, 65, 0
2, 39080, Note_on_c, 1, 38, 127
2, 39080, Note_off_c, 1, 46, 0
2, 39080, Note_off_c, 1, 64, 0
2, 39080, Note_on_c, 1, 65, 127
2, 39120, Note_off_c, 1, 38, 0
2, 39240, Note_off_c, 1, 55, 0
2, 39280, Note_on_c, 1, 41, 127
2, 39280, Note_off_c, 1, 43, 0
2, 39280, Note_on_c, 1, 67, 127
2, 39360, Note_off_c, 1, 41, 0
2, 39360, Note_on_c, 1, 43, 127
2, 39360, Note_off_c, 1, 65, 0
2, 39680, Note_off_c, 1, 62, 0
2, 39680, Note_on_c, 1, 65, 127
2, 39880, Note_off_c, 1, 43, 0
2, 39880, Note_on_c, 1, 46, 127
2, 39920, Note_on_c, 1, 43, 127
2, 39920, Note_off_c, 1, 46, 0
2, 40000, Note_off_c, 1, 50, 0
2, 40000, Note_off_c, 1, 58, 0
2, 40000, Note_off_c, 1, 67, 0
2, 40080, Note_on_c, 1, 53, 127
2, 40080, Note_on_c, 1, 58, 127
2, 40080, Note_on_c, 1, 62, 127
2, 40280, Note_on_c, 1, 41, 127
2, 40280, Note_off_c, 1, 43, 0
2, 40440, Note_off_c, 1, 41, 0
2, 40440, Note_on_c, 1, 50, 127
2, 40480, Note_off_c, 1, 53, 0
2, 40560, Note_on_c, 1, 57, 127
2, 40600, Note_on_c, 1, 53, 127
2, 40600, Note_off_c, 1, 57, 0
2, 40640, Note_off_c, 1, 53, 0
2, 41000, Note_off_c, 1, 50, 0
2, 41040, Note_on_c, 1, 57, 127
2, 41040, Note_off_c, 1, 58, 0
2, 41040, Note_on_c, 1, 67, 127
2, 41440, Note_off_c, 1, 57, 0
2, 41480, Note_on_c, 1, 58, 127
2, 41520, Note_off_c, 1, 65, 0
2, 41760, Note_off_c, 1, 58, 0
2, 41800, Note_on_c, 1, 57, 127
2, 41800, Note_on_c, 1, 60, 127
2, 41800, Note_off_c, 1, 62, 0
2, 41800, Note_on_c, 1, 64, 127
2, 42080, Note_off_c, 1, 64, 0
2, 42080, Note_off_c, 1, 67, 0
2, 42120, Note_on_c, 1, 65, 127
2, 42120, Note_on_c, 1, 69, 127
2, 42360, Note_off_c, 1, 57, 0
2, 42360, Note_off_c, 1, 65, 0
2, 42400, Note_on_c, 1, 55, 127
2, 42400, Note_on_c, 1, 64, 127
2, 42480, Note_off_c, 1, 55, 0
2, 42520, Note_on_c, 1, 56, 127
2, 42520, Note_off_c, 1, 60, 0
2, 42520, Note_on_c, 1, 62, 127
2, 42520, Note_off_c, 1, 64, 0
2, 42560, Note_on_c, 1, 60, 127
2, 42560, Note_off_c, 1, 62, 0
2, 42560, Note_on_c, 1, 65, 127
2, 43040, Note_off_c, 1, 65, 0
2, 43040, Note_off_c, 1, 69, 0
2, 43080, Note_on_c, 1, 64, 127
2, 43160, Note_off_c, 1, 56, 0
2, 43160, Note_off_c, 1, 64, 0
2, 43200, Note_on_c, 1, 53, 127
2, 43200, Note_on_c, 1, 65, 127
2, 43440, Note_off_c, 1, 53, 0
2, 43440, Note_off_c, 1, 60, 0
2, 43480, Note_on_c, 1, 55, 127
2, 43480, Note_on_c, 1, 62, 127
2, 43720, Note_on_c, 1, 43, 127
2, 44160, Note_off_c, 1, 62, 0
2, 44200, Note_on_c, 1, 41, 127
2, 44200, Note_off_c, 1, 43, 0
2, 44240, Note_on_c, 1, 38, 127
2, 44240, Note_off_c, 1, 41, 0
2, 44240, Note_off_c, 1, 55, 0
2, 44280, Note_on_c, 1, 48, 127
2, 44280, Note_on_c, 1, 62, 127
2, 44400, Note_off_c, 1, 38, 0
2, 44400, Note_off_c, 1, 48, 0
2, 44400, Note_off_c, 1, 62, 0
2, 44400, Note_off_c, 1, 65, 0
2, 44440, Note_on_c, 1, 47, 127
2, 44440, Note_on_c, 1, 60, 127
2, 44440, Note_on_c, 1, 65, 127
2, 44640, Note_off_c, 1, 47, 0
2, 44680, Note_off_c, 1, 60, 0
2, 44720, Note_on_c, 1, 48, 127
2, 44720, Note_on_c, 1, 57, 127
2, 44880, Note_off_c, 1, 48, 0
2, 44880, Note_off_c, 1, 65, 0
2, 44920, Note_on_c, 1, 47, 127
2, 44920, Note_on_c, 1, 76, 127
2, 45080, Note_off_c, 1, 47, 0
2, 45080, Note_off_c, 1, 57, 0
2, 45120, Note_on_c, 1, 52, 127
2, 45120, Note_on_c, 1, 60, 127
2, 45240, Note_off_c, 1, 52, 0
2, 45240, Note_off_c, 1, 76, 0
2, 45280, Note_on_c, 1, 53, 127
2, 45280, Note_on_c, 1, 74, 127
2, 45440, Note_off_c, 1, 53, 0
2, 45440, Note_off_c, 1, 60, 0
2, 45440, Note_off_c, 1, 74, 0
2, 45480, Note_on_c, 1, 52, 127
2, 45480, Note_on_c, 1, 67, 127
2, 45600, Note_off_c, 1, 52, 0
2, 45600, Note_on_c, 1, 53, 127
2, 45640, Note_off_c, 1, 53, 0
2, 45640, Note_off_c, 1, 67, 0
2, 45680, Note_on_c, 1, 52, 127
2, 45680, Note_on_c, 1, 67, 127
2, 45840, Note_on_c, 1, 72, 127
2, 45920, Note_off_c, 1, 72, 0
2, 45960, Note_on_c, 1, 74, 127
2, 46000, Note_off_c, 1, 52, 0
2, 46000, Note_on_c, 1, 53, 127
2, 46040, Note_off_c, 1, 53, 0
2, 46040, Note_off_c, 1, 67, 0
2, 46080, Note_on_c, 1, 52, 127
2, 46080, Note_on_c, 1, 67, 127
2, 46160, Note_off_c, 1, 52, 0
2, 46160, Note_off_c, 1, 67, 0
2, 46200, Note_on_c, 1, 50, 127
2, 46200, Note_on_c, 1, 65, 127
2, 46320, Note_off_c, 1, 50, 0
2, 46360, Note_on_c, 1, 55, 127
2, 46440, Note_off_c, 1, 55, 0
2, 46480, Note_on_c, 1, 57, 127
2, 46560, Note_off_c, 1, 57, 0
2, 46560, Note_off_c, 1, 65, 0
2, 46600, Note_on_c, 1, 55, 127
2, 46600, Note_on_c, 1, 64, 127
2, 46720, Note_off_c, 1, 55, 0
2, 46720, Note_off_c, 1, 74, 0
2, 46760, Note_on_c, 1, 57, 127
2, 46760, Note_on_c, 1, 67, 127
2, 46920, Note_off_c, 1, 57, 0
2, 46960, Note_on_c, 1, 41, 127
2, 47080, Note_off_c, 1, 41, 0
2, 47080, Note_off_c, 1, 64, 0
2, 47080, Note_off_c, 1, 67, 0
2, 47120, Note_on_c, 1, 36, 127
2, 47120, Note_on_c, 1, 69, 127
2, 47240, Note_off_c, 1, 36, 0
2, 47240, Note_on_c, 1, 38, 127
2, 47280, Note_off_c, 1, 38, 0
2, 47360, Note_on_c, 1, 40, 127
2, 47360, Note_on_c, 1, 76, 127
2, 47520, Note_off_c, 1, 40, 0
2, 47600, Note_on_c, 1, 52, 127
2, 47640, Note_off_c, 1, 69, 0
2, 47960, Note_off_c, 1, 52, 0
2, 48000, Note_on_c, 1, 67, 127
2, 48160, Note_off_c, 1, 67, 0
2, 48200, Note_on_c, 1, 60, 127
2, 48360, Note_off_c, 1, 60, 0
2, 48360, Note_off_c, 1, 76, 0
2, 48400, Note_on_c, 1, 57, 127
2, 48400, Note_on_c, 1, 77, 127
2, 48560, Note_off_c, 1, 57, 0
2, 48600, Note_on_c, 1, 52, 127
2, 48800, Note_off_c, 1, 77, 0
2, 48880, Note_on_c, 1, 77, 127
2, 49000, Note_off_c, 1, 52, 0
2, 49040, Note_on_c, 1, 45, 127
2, 49080, Note_off_c, 1, 45, 0
2, 49120, Note_off_c, 1, 77, 0
2, 49160, Note_on_c, 1, 48, 127
2, 49160, Note_on_c, 1, 55, 127
2, 49160, Note_on_c, 1, 64, 127
2, 49160, Note_on_c, 1, 76, 127
2, 49320, Note_off_c, 1, 55, 0
2, 49360, Note_on_c, 1, 68, 127
2, 49600, Note_off_c, 1, 48, 0
2, 49640, Note_on_c, 1, 47, 127
2, 49840, Note_on_c, 1, 63, 127
2, 49840, Note_off_c, 1, 64, 0
2, 49840, Note_off_c, 1, 68, 0
2, 49920, Note_on_c, 1, 74, 127
2, 49920, Note_off_c, 1, 76, 0
2, 50000, Note_on_c, 1, 77, 127
2, 50080, Note_off_c, 1, 47, 0
2, 50080, Note_on_c, 1, 54, 127
2, 50120, Note_off_c, 1, 54, 0
2, 50120, Note_off_c, 1, 63, 0
2, 50120, Note_off_c, 1, 74, 0
2, 50120, Note_off_c, 1, 77, 0
2, 50160, Note_on_c, 1, 45, 127
2, 50160, Note_on_c, 1, 54, 127
2, 50160, Note_on_c, 1, 76, 127
2, 50640, Note_on_c, 1, 52, 127
2, 50640, Note_off_c, 1, 54, 0
2, 50760, Note_off_c, 1, 52, 0
2, 51000, Note_off_c, 1, 45, 0
2, 51000, Note_off_c, 1, 76, 0
2, 51040, Note_on_c, 1, 42, 127
2, 51040, Note_on_c, 1, 69, 127
2, 51040, Note_on_c, 1, 75, 127
2, 51200, Note_off_c, 1, 42, 0
2, 51200, Note_off_c, 1, 75, 0
2, 51240, Note_on_c, 1, 45, 127
2, 51240, Note_on_c, 1, 75, 127
2, 51440, Note_on_c, 1, 68, 127
2, 51440, Note_off_c, 1, 69, 0
2, 51440, Note_on_c, 1, 72, 127
2, 51440, Note_off_c, 1, 75, 0
2, 51480, Note_off_c, 1, 68, 0
2, 51480, Note_on_c, 1, 69, 127
2, 51520, Note_off_c, 1, 45, 0
2, 51520, Note_off_c, 1, 72, 0
2, 51560, Note_on_c, 1, 47, 127
2, 51560, Note_on_c, 1, 74, 127
2, 51720, Note_off_c, 1, 47, 0
2, 51720, Note_off_c, 1, 69, 0
2, 51720, Note_off_c, 1, 74, 0
2, 51760, Note_on_c, 1, 51, 127
2, 51760, Note_on_c, 1, 67, 127
2, 51760, Note_on_c, 1, 72, 127
2, 51880, Note_off_c, 1, 51, 0
2, 51880, Note_off_c, 1, 72, 0
2, 51920, Note_on_c, 1, 55, 127
2, 51920, Note_on_c, 1, 71, 127
2, 51960, Note_off_c, 1, 55, 0
2, 51960, Note_off_c, 1, 71, 0
2, 52000, Note_on_c, 1, 65, 127
2, 52040, Note_off_c, 1, 65, 0
2, 52080, Note_off_c, 1, 67, 0
2, 52120, Note_on_c, 1, 58, 127
2, 52120, Note_on_c, 1, 63, 127
2, 52120, Note_on_c, 1, 66, 127
2, 52240, Note_off_c, 1, 66, 0
2, 52280, Note_on_c, 1, 67, 127
2, 52360, Note_on_c, 1, 57, 127
2, 52360, Note_off_c, 1, 58, 0
2, 52400, Note_off_c, 1, 57, 0
2, 52400, Note_on_c, 1, 58, 127
2, 52440, Note_off_c, 1, 58, 0
2, 52440, Note_off_c, 1, 63, 0
2, 52440, Note_off_c, 1, 67, 0
2, 52480, Note_on_c, 1, 56, 127
2, 52480, Note_on_c, 1, 62, 127
2, 52480, Note_on_c, 1, 74, 127
2, 52560, End_track
3, 0, Start_track
3, 0, Title_t, "MIDI"
3, 1536, End_track
0, 0, End_of_file
