0, 0, Header, 1, 3, 384
1, 0, Start_track
1, 0, Time_signature, 4, 2, 24, 8
1, 0, Tempo, 500000
1, 76240, End_track
2, 0, Start_track
2, 0, Text_t, "harpsichord: John Sankey"
2, 0, Title_t, "Track 1"
2, 0, Note_on_c, 1, 60, 127
2, 0, Note_on_c, 1, 66, 127
2, 40, Note_on_c, 1, 48, 127
2, 40, Note_on_c, 1, 59, 127
2, 40, Note_off_c, 1, 60, 0
2, 80, Note_on_c, 1, 47, 127
2, 80, Note_off_c, 1, 48, 0
2, 80, Note_off_c, 1, 59, 0
2, 80, Note_off_c, 1, 66, 0
2, 80, Note_on_c, 1, 67, 127
2, 120, Note_on_c, 1, 59, 127
2, 160, Note_on_c, 1, 64, 127
2, 160, Note_off_c, 1, 67, 0
2, 200, Note_off_c, 1, 47, 0
2, 200, Note_off_c, 1, 59, 0
2, 200, Note_off_c, 1, 64, 0
2, 240, Note_on_c, 1, 44, 127
2, 280, Note_on_c, 1, 48, 127
2, 280, Note_on_c, 1, 56, 127
2, 280, Note_on_c, 1, 59, 127
2, 320, Note_off_c, 1, 48, 0
2, 320, Note_on_c, 1, 52, 127
2, 360, Note_on_c, 1, 42, 127
2, 360, Note_off_c, 1, 44, 0
2, 400, Note_off_c, 1, 42, 0
2, 400, Note_on_c, 1, 44, 127
2, 440, Note_off_c, 1, 44, 0
2, 440, Note_off_c, 1, 52, 0
2, 440, Note_off_c, 1, 59, 0
2, 480, Note_on_c, 1, 40, 127
2, 480, Note_on_c, 1, 51, 127
2, 480, Note_off_c, 1, 56, 0
2, 480, Note_on_c, 1, 59, 127
2, 520, Note_on_c, 1, 38, 127
2, 520, Note_off_c, 1, 40, 0
2, 520, Note_off_c, 1, 51, 0
2, 520, Note_on_c, 1, 54, 127
2, 560, Note_off_c, 1, 38, 0
2, 560, Note_off_c, 1, 54, 0
2, 600, Note_on_c, 1, 40, 127
2, 640, Note_off_c, 1, 40, 0
2, 680, Note_on_c, 1, 45, 127
2, 680, Note_on_c, 1, 62, 127
2, 720, Note_on_c, 1, 40, 127
2, 720, Note_off_c, 1, 45, 0
2, 760, Note_off_c, 1, 40, 0
2, 760, Note_on_c, 1, 47, 127
2, 960, Note_off_c, 1, 47, 0
2, 960, Note_off_c, 1, 59, 0
2, 960, Note_off_c, 1, 62, 0
2, 1000, Note_on_c, 1, 52, 127
2, 1000, Note_on_c, 1, 54, 127
2, 1000, Note_on_c, 1, 58, 127
2, 1040, Note_off_c, 1, 54, 0
2, 1040, Note_on_c, 1, 56, 127
2, 1040, Note_off_c, 1, 58, 0
2, 1120, Note_off_c, 1, 52, 0
2, 1120, Note_on_c, 1, 54, 127
2, 1160, Note_on_c, 1, 52, 127
2, 1160, Note_off_c, 1, 54, 0
2, 1240, Note_on_c, 1, 59, 127
2, 1320, Note_on_c, 1, 55, 127
2, 1320, Note_off_c, 1, 56, 0
2, 1560, Note_off_c, 1, 52, 0
2, 1560, Note_on_c, 1, 54, 127
2, 1640, Note_off_c, 1, 59, 0
2, 1680, Note_off_c, 1, 55, 0
2, 1680, Note_on_c, 1, 57, 127
2, 1720, Note_on_c, 1, 55, 127
2, 1720, Note_off_c, 1, 57, 0
2, 1760, Note_off_c, 1, 54, 0
2, 1760, Note_off_c, 1, 55, 0
2, 1760, Note_on_c, 1, 57, 127
2, 1800, Note_on_c, 1, 54, 127
2, 2000, Note_off_c, 1, 57, 0
2, 2040, Note_on_c, 1, 52, 127
2, 2040, Note_off_c, 1, 54, 0
2, 2040, Note_on_c, 1, 59, 127
2, 2160, Note_off_c, 1, 52, 0
2, 2160, Note_on_c, 1, 54, 127
2, 2160, Note_off_c, 1, 59, 0
2, 2200, Note_on_c, 1, 51, 127
2, 2200, Note_on_c, 1, 53, 127
2, 2200, Note_off_c, 1, 54, 0
2, 2240, Note_on_c, 1, 50, 127
2, 2240, Note_off_c, 1, 51, 0
2, 2240, Note_off_c, 1, 53, 0
2, 2280, Note_off_c, 1, 50, 0
2, 2280, Note_on_c, 1, 52, 127
2, 2320, Note_on_c, 1, 54, 127
2, 2360, Note_off_c, 1, 54, 0
2, 2360, Note_on_c, 1, 56, 127
2, 2400, Note_off_c, 1, 52, 0
2, 2400, Note_on_c, 1, 54, 127
2, 2400, Note_on_c, 1, 55, 127
2, 2400, Note_off_c, 1, 56, 0
2, 2440, Note_off_c, 1, 55, 0
2, 2480, Note_on_c, 1, 52, 127
2, 2480, Note_off_c, 1, 54, 0
2, 2480, Note_on_c, 1, 56, 127
2, 2760, Note_off_c, 1, 56, 0
2, 2800, Note_on_c, 1, 56, 127
2, 2840, Note_off_c, 1, 56, 0
2, 2840, Note_on_c, 1, 59, 127
2, 3080, Note_off_c, 1, 52, 0
2, 3080, Note_on_c, 1, 54, 127
2, 3080, Note_off_c, 1, 59, 0
2, 3120, Note_on_c, 1, 52, 127
2, 3120, Note_off_c, 1, 54, 0
2, 3120, Note_on_c, 1, 59, 127
2, 3320, Note_off_c, 1, 52, 0
2, 3360, Note_on_c, 1, 52, 127
2, 3360, Note_off_c, 1, 59, 0
2, 3360, Note_on_c, 1, 61, 127
2, 3400, Note_off_c, 1, 52, 0
2, 3400, Note_on_c, 1, 59, 127
2, 3400, Note_off_c, 1, 61, 0
2, 3440, Note_on_c, 1, 54, 127
2, 3520, Note_off_c, 1, 54, 0
2, 3520, Note_off_c, 1, 59, 0
2, 3560, Note_on_c, 1, 52, 127
2, 3560, Note_on_c, 1, 59, 127
2, 3720, Note_on_c, 1, 56, 127
2, 3720, Note_off_c, 1, 59, 0
2, 3760, Note_off_c, 1, 56, 0
2, 3760, Note_on_c, 1, 59, 127
2, 4000, Note_off_c, 1, 52, 0
2, 4000, Note_on_c, 1, 54, 127
2, 4120, Note_off_c, 1, 54, 0
2, 4120, Note_off_c, 1, 59, 0
2, 4160, Note_on_c, 1, 45, 127
2, 4160, Note_on_c, 1, 62, 127
2, 4320, Note_off_c, 1, 62, 0
2, 4360, Note_on_c, 1, 42, 127
2, 4360, Note_off_c, 1, 45, 0
2, 4360, Note_on_c, 1, 62, 127
2, 4400, Note_off_c, 1, 42, 0
2, 4400, Note_on_c, 1, 49, 127
2, 4440, Note_off_c, 1, 49, 0
2, 4440, Note_on_c, 1, 54, 127
2, 4480, Note_off_c, 1, 54, 0
2, 4480, Note_on_c, 1, 59, 127
2, 4480, Note_off_c, 1, 62, 0
2, 4520, Note_on_c, 1, 54, 127
2, 4520, Note_off_c, 1, 59, 0
2, 4520, Note_on_c, 1, 62, 127
2, 4560, Note_on_c, 1, 52, 127
2, 4600, Note_off_c, 1, 52, 0
2, 4600, Note_on_c, 1, 59, 127
2, 4600, Note_off_c, 1, 62, 0
2, 4640, Note_off_c, 1, 59, 0
2, 4680, Note_on_c, 1, 52, 127
2, 4680, Note_off_c, 1, 54, 0
2, 4680, Note_on_c, 1, 62, 127
2, 4760, Note_off_c, 1, 62, 0
2, 4800, Note_on_c, 1, 56, 127
2, 4880, Note_off_c, 1, 52, 0
2, 4880, Note_on_c, 1, 54, 127
2, 4880, Note_on_c, 1, 55, 127
2, 4880, Note_off_c, 1, 56, 0
2, 4920, Note_on_c, 1, 52, 127
2, 4920, Note_off_c, 1, 54, 0
2, 4920, Note_off_c, 1, 55, 0
2, 4920, Note_on_c, 1, 56, 127
2, 5000, Note_off_c, 1, 52, 0
2, 5000, Note_on_c, 1, 54, 127
2, 5000, Note_off_c, 1, 56, 0
2, 5040, Note_on_c, 1, 52, 127
2, 5040, Note_off_c, 1, 54, 0
2, 5040, Note_on_c, 1, 59, 127
2, 5320, Note_on_c, 1, 47, 127
2, 5320, Note_off_c, 1, 52, 0
2, 5400, Note_off_c, 1, 47, 0
2, 5440, Note_on_c, 1, 47, 127
2, 5640, Note_off_c, 1, 47, 0
2, 5680, Note_on_c, 1, 44, 127
2, 5760, Note_off_c, 1, 44, 0
2, 5760, Note_on_c, 1, 54, 127
2, 5840, Note_off_c, 1, 54, 0
2, 5880, Note_on_c, 1, 52, 127
2, 6000, Note_on_c, 1, 50, 127
2, 6000, Note_off_c, 1, 52, 0
2, 6040, Note_off_c, 1, 50, 0
2, 6040, Note_on_c, 1, 52, 127
2, 6200, Note_on_c, 1, 50, 127
2, 6200, Note_off_c, 1, 52, 0
2, 6240, Note_off_c, 1, 50, 0
2, 6240, Note_off_c, 1, 59, 0
2, 6280, Note_on_c, 1, 47, 127
2, 6280, Note_on_c, 1, 59, 127
2, 6560, Note_off_c, 1, 47, 0
2, 6600, Note_on_c, 1, 47, 127
2, 6720, Note_off_c, 1, 47, 0
2, 6760, Note_on_c, 1, 40, 127
2, 6760, Note_on_c, 1, 58, 127
2, 6760, Note_off_c, 1, 59, 0
2, 6800, Note_on_c, 1, 38, 127
2, 6800, Note_off_c, 1, 40, 0
2, 6840, Note_off_c, 1, 38, 0
2, 6840, Note_on_c, 1, 44, 127
2, 6840, Note_off_c, 1, 58, 0
2, 6840, Note_on_c, 1, 59, 127
2, 6880, Note_off_c, 1, 44, 0
2, 6920, Note_on_c, 1, 40, 127
2, 6960, Note_on_c, 1, 57, 127
2, 6960, Note_off_c, 1, 59, 0
2, 6960, Note_on_c, 1, 61, 127
2, 7000, Note_off_c, 1, 57, 0
2, 7000, Note_on_c, 1, 59, 127
2, 7000, Note_off_c, 1, 61, 0
2, 7000, Note_on_c, 1, 66, 127
2, 7040, Note_on_c, 1, 31, 127
2, 7040, Note_off_c, 1, 40, 0
2, 7040, Note_off_c, 1, 66, 0
2, 7080, Note_off_c, 1, 31, 0
2, 7120, Note_on_c, 1, 42, 127
2, 7160, Note_off_c, 1, 42, 0
2, 7200, Note_on_c, 1, 40, 127
2, 7200, Note_on_c, 1, 66, 127
2, 7280, Note_off_c, 1, 40, 0
2, 7280, Note_off_c, 1, 66, 0
2, 7320, Note_on_c, 1, 47, 127
2, 7360, Note_off_c, 1, 47, 0
2, 7360, Note_off_c, 1, 59, 0
2, 7360, Note_on_c, 1, 66, 127
2, 7400, Note_on_c, 1, 47, 127
2, 7400, Note_on_c, 1, 59, 127
2, 7560, Note_off_c, 1, 47, 0
2, 7600, Note_on_c, 1, 47, 127
2, 7720, Note_off_c, 1, 47, 0
2, 7720, Note_off_c, 1, 66, 0
2, 7760, Note_on_c, 1, 47, 127
2, 7760, Note_on_c, 1, 54, 127
2, 7760, Note_on_c, 1, 68, 127
2, 7800, Note_off_c, 1, 54, 0
2, 7800, Note_off_c, 1, 59, 0
2, 7800, Note_on_c, 1, 63, 127
2, 7840, Note_off_c, 1, 63, 0
2, 7920, Note_on_c, 1, 66, 127
2, 7920, Note_off_c, 1, 68, 0
2, 7920, Note_on_c, 1, 71, 127
2, 8000, Note_off_c, 1, 47, 0
2, 8040, Note_on_c, 1, 47, 127
2, 8160, Note_off_c, 1, 47, 0
2, 8160, Note_off_c, 1, 71, 0
2, 8200, Note_on_c, 1, 47, 127
2, 8200, Note_on_c, 1, 71, 127
2, 8440, Note_off_c, 1, 47, 0
2, 8440, Note_off_c, 1, 66, 0
2, 8440, Note_off_c, 1, 71, 0
2, 8480, Note_on_c, 1, 59, 127
2, 8480, Note_on_c, 1, 66, 127
2, 8640, Note_off_c, 1, 59, 0
2, 8680, Note_on_c, 1, 58, 127
2, 8760, Note_off_c, 1, 58, 0
2, 8760, Note_off_c, 1, 66, 0
2, 8760, Note_on_c, 1, 74, 127
2, 8800, Note_on_c, 1, 57, 127
2, 8800, Note_on_c, 1, 71, 127
2, 8800, Note_off_c, 1, 74, 0
2, 8920, Note_off_c, 1, 57, 0
2, 8920, Note_off_c, 1, 71, 0
2, 8960, Note_on_c, 1, 57, 127
2, 8960, Note_on_c, 1, 64, 127
2, 8960, Note_on_c, 1, 71, 127
2, 9160, Note_off_c, 1, 57, 0
2, 9160, Note_off_c, 1, 64, 0
2, 9160, Note_off_c, 1, 71, 0
2, 9200, Note_on_c, 1, 56, 127
2, 9200, Note_on_c, 1, 64, 127
2, 9200, Note_on_c, 1, 78, 127
2, 9240, Note_off_c, 1, 56, 0
2, 9240, Note_on_c, 1, 58, 127
2, 9280, Note_off_c, 1, 78, 0
2, 9280, Note_on_c, 1, 79, 127
2, 9320, Note_off_c, 1, 79, 0
2, 9360, Note_on_c, 1, 57, 127
2, 9360, Note_off_c, 1, 58, 0
2, 9360, Note_on_c, 1, 69, 127
2, 9400, Note_on_c, 1, 73, 127
2, 9440, Note_off_c, 1, 57, 0
2, 9440, Note_off_c, 1, 69, 0
2, 9480, Note_on_c, 1, 57, 127
2, 9600, Note_off_c, 1, 64, 0
2, 9640, Note_on_c, 1, 55, 127
2, 9640, Note_off_c, 1, 57, 0
2, 9640, Note_on_c, 1, 64, 127
2, 9720, Note_off_c, 1, 64, 0
2, 9720, Note_off_c, 1, 73, 0
2, 9760, Note_on_c, 1, 76, 127
2, 9840, Note_off_c, 1, 55, 0
2, 9840, Note_off_c, 1, 76, 0
2, 9880, Note_on_c, 1, 57, 127
2, 9880, Note_on_c, 1, 76, 127
2, 10000, Note_off_c, 1, 57, 0
2, 10000, Note_off_c, 1, 76, 0
2, 10040, Note_on_c, 1, 45, 127
2, 10040, Note_on_c, 1, 66, 127
2, 10160, Note_off_c, 1, 45, 0
2, 10200, Note_on_c, 1, 48, 127
2, 10320, Note_off_c, 1, 48, 0
2, 10360, Note_on_c, 1, 47, 127
2, 10480, Note_off_c, 1, 47, 0
2, 10520, Note_off_c, 1, 66, 0
2, 10560, Note_on_c, 1, 54, 127
2, 10560, Note_on_c, 1, 72, 127
2, 10600, Note_on_c, 1, 71, 127
2, 10600, Note_off_c, 1, 72, 0
2, 10640, Note_off_c, 1, 71, 0
2, 10680, Note_on_c, 1, 69, 127
2, 10760, Note_off_c, 1, 54, 0
2, 10760, Note_off_c, 1, 69, 0
2, 10800, Note_on_c, 1, 53, 127
2, 10800, Note_on_c, 1, 69, 127
2, 10880, Note_off_c, 1, 53, 0
2, 10960, Note_on_c, 1, 50, 127
2, 11040, Note_off_c, 1, 50, 0
2, 11040, Note_off_c, 1, 69, 0
2, 11080, Note_on_c, 1, 52, 127
2, 11080, Note_on_c, 1, 73, 127
2, 11160, Note_off_c, 1, 73, 0
2, 11200, Note_on_c, 1, 70, 127
2, 11280, Note_off_c, 1, 70, 0
2, 11320, Note_on_c, 1, 68, 127
2, 11400, Note_off_c, 1, 52, 0
2, 11400, Note_off_c, 1, 68, 0
2, 11440, Note_on_c, 1, 54, 127
2, 11440, Note_on_c, 1, 69, 127
2, 11520, Note_off_c, 1, 54, 0
2, 11560, Note_on_c, 1, 52, 127
2, 11600, Note_off_c, 1, 52, 0
2, 11600, Note_off_c, 1, 69, 0
2, 11640, Note_on_c, 1, 54, 127
2, 11640, Note_on_c, 1, 76, 127
2, 11800, Note_off_c, 1, 54, 0
2, 11800, Note_off_c, 1, 76, 0
2, 11880, Note_on_c, 1, 52, 127
2, 11880, Note_on_c, 1, 59, 127
2, 11960, Note_off_c, 1, 52, 0
2, 11960, Note_off_c, 1, 59, 0
2, 12000, Note_on_c, 1, 66, 127
2, 12080, Note_off_c, 1, 66, 0
2, 12120, Note_on_c, 1, 52, 127
2, 12120, Note_on_c, 1, 67, 127
2, 12240, Note_off_c, 1, 52, 0
2, 12240, Note_on_c, 1, 54, 127
2, 12280, Note_off_c, 1, 54, 0
2, 12280, Note_off_c, 1, 67, 0
2, 12320, Note_on_c, 1, 53, 127
2, 12320, Note_on_c, 1, 71, 127
2, 12360, Note_off_c, 1, 53, 0
2, 12360, Note_on_c, 1, 57, 127
2, 12400, Note_off_c, 1, 57, 0
2, 12400, Note_off_c, 1, 71, 0
2, 12440, Note_on_c, 1, 55, 127
2, 12440, Note_on_c, 1, 69, 127
2, 12520, Note_off_c, 1, 69, 0
2, 12560, Note_on_c, 1, 54, 127
2, 12560, Note_off_c, 1, 55, 0
2, 12560, Note_on_c, 1, 66, 127
2, 12640, Note_off_c, 1, 54, 0
2, 12640, Note_on_c, 1, 56, 127
2, 12640, Note_off_c, 1, 66, 0
2, 12640, Note_on_c, 1, 73, 127
2, 12680, Note_on_c, 1, 54, 127
2, 12680, Note_off_c, 1, 56, 0
2, 12680, Note_off_c, 1, 73, 0
2, 12720, Note_off_c, 1, 54, 0
2, 12720, Note_on_c, 1, 56, 127
2, 12760, Note_on_c, 1, 54, 127
2, 12760, Note_off_c, 1, 56, 0
2, 12760, Note_on_c, 1, 73, 127
2, 12800, Note_off_c, 1, 73, 0
2, 12840, Note_on_c, 1, 72, 127
2, 12880, Note_off_c, 1, 54, 0
2, 12880, Note_off_c, 1, 72, 0
2, 12920, Note_on_c, 1, 60, 127
2, 12920, Note_on_c, 1, 71, 127
2, 12960, Note_off_c, 1, 60, 0
2, 12960, Note_on_c, 1, 62, 127
2, 13000, Note_off_c, 1, 62, 0
2, 13000, Note_off_c, 1, 71, 0
2, 13040, Note_on_c, 1, 54, 127
2, 13040, Note_on_c, 1, 67, 127
2, 13120, Note_off_c, 1, 67, 0
2, 13160, Note_on_c, 1, 71, 127
2, 13240, Note_off_c, 1, 71, 0
2, 13280, Note_on_c, 1, 66, 127
2, 13320, Note_off_c, 1, 54, 0
2, 13400, Note_on_c, 1, 52, 127
2, 13480, Note_off_c, 1, 52, 0
2, 13480, Note_off_c, 1, 66, 0
2, 13520, Note_on_c, 1, 52, 127
2, 13560, Note_off_c, 1, 52, 0
2, 13600, Note_on_c, 1, 52, 127
2, 13600, Note_on_c, 1, 71, 127
2, 13680, Note_off_c, 1, 52, 0
2, 13720, Note_on_c, 1, 54, 127
2, 13800, Note_off_c, 1, 71, 0
2, 13840, Note_on_c, 1, 74, 127
2, 13880, Note_off_c, 1, 54, 0
2, 13880, Note_off_c, 1, 74, 0
2, 13920, Note_on_c, 1, 50, 127
2, 13920, Note_on_c, 1, 69, 127
2, 14040, Note_off_c, 1, 50, 0
2, 14040, Note_off_c, 1, 69, 0
2, 14120, Note_on_c, 1, 55, 127
2, 14120, Note_on_c, 1, 74, 127
2, 14240, Note_off_c, 1, 55, 0
2, 14240, Note_off_c, 1, 74, 0
2, 14280, Note_on_c, 1, 53, 127
2, 14280, Note_on_c, 1, 76, 127
2, 14320, Note_on_c, 1, 52, 127
2, 14320, Note_off_c, 1, 53, 0
2, 14400, Note_off_c, 1, 52, 0
2, 14400, Note_off_c, 1, 76, 0
2, 14440, Note_on_c, 1, 41, 127
2, 14440, Note_on_c, 1, 76, 127
2, 14520, Note_off_c, 1, 41, 0
2, 14520, Note_on_c, 1, 45, 127
2, 14560, Note_off_c, 1, 45, 0
2, 14600, Note_off_c, 1, 76, 0
2, 14640, Note_on_c, 1, 48, 127
2, 14640, Note_on_c, 1, 72, 127
2, 14720, Note_off_c, 1, 72, 0
2, 14760, Note_on_c, 1, 69, 127
2, 14880, Note_off_c, 1, 48, 0
2, 14920, Note_on_c, 1, 52, 127
2, 15040, Note_off_c, 1, 52, 0
2, 15040, Note_off_c, 1, 69, 0
2, 15040, Note_on_c, 1, 70, 127
2, 15080, Note_on_c, 1, 57, 127
2, 15080, Note_on_c, 1, 69, 127
2, 15080, Note_off_c, 1, 70, 0
2, 15200, Note_off_c, 1, 57, 0
2, 15200, Note_off_c, 1, 69, 0
2, 15240, Note_on_c, 1, 50, 127
2, 15240, Note_on_c, 1, 68, 127
2, 15320, Note_off_c, 1, 68, 0
2, 15360, Note_on_c, 1, 67, 127
2, 15400, Note_off_c, 1, 67, 0
2, 15440, Note_off_c, 1, 50, 0
2, 15480, Note_on_c, 1, 60, 127
2, 15480, Note_on_c, 1, 71, 127
2, 15520, Note_off_c, 1, 60, 0
2, 15520, Note_off_c, 1, 71, 0
2, 15560, Note_on_c, 1, 65, 127
2, 15560, Note_on_c, 1, 73, 127
2, 15680, Note_off_c, 1, 65, 0
2, 15680, Note_on_c, 1, 66, 127
2, 15680, Note_off_c, 1, 73, 0
2, 15720, Note_on_c, 1, 54, 127
2, 15720, Note_off_c, 1, 66, 0
2, 15720, Note_on_c, 1, 73, 127
2, 15800, Note_off_c, 1, 54, 0
2, 15800, Note_off_c, 1, 73, 0
2, 15880, Note_on_c, 1, 50, 127
2, 15880, Note_on_c, 1, 75, 127
2, 15960, Note_off_c, 1, 75, 0
2, 16000, Note_on_c, 1, 76, 127
2, 16080, Note_off_c, 1, 50, 0
2, 16080, Note_off_c, 1, 76, 0
2, 16120, Note_on_c, 1, 52, 127
2, 16120, Note_on_c, 1, 73, 127
2, 16240, Note_off_c, 1, 52, 0
2, 16240, Note_off_c, 1, 73, 0
2, 16320, Note_on_c, 1, 49, 127
2, 16320, Note_on_c, 1, 72, 127
2, 16440, Note_off_c, 1, 49, 0
2, 16440, Note_off_c, 1, 72, 0
2, 16480, Note_on_c, 1, 55, 127
2, 16480, Note_on_c, 1, 71, 127
2, 16560, Note_off_c, 1, 55, 0
2, 16560, Note_off_c, 1, 71, 0
2, 16600, Note_on_c, 1, 46, 127
2, 16600, Note_on_c, 1, 50, 127
2, 16640, Note_off_c, 1, 46, 0
2, 16720, Note_off_c, 1, 50, 0
2, 16760, Note_on_c, 1, 53, 127
2, 16760, Note_on_c, 1, 70, 127
2, 16840, Note_off_c, 1, 53, 0
2, 16840, Note_off_c, 1, 70, 0
2, 16880, Note_on_c, 1, 51, 127
2, 16880, Note_on_c, 1, 72, 127
2, 16960, Note_off_c, 1, 72, 0
2, 17040, Note_on_c, 1, 72, 127
2, 17080, Note_off_c, 1, 51, 0
2, 17080, Note_off_c, 1, 72, 0
2, 17120, Note_on_c, 1, 56, 127
2, 17120, Note_on_c, 1, 71, 127
2, 17160, Note_off_c, 1, 56, 0
2, 17160, Note_off_c, 1, 71, 0
2, 17200, Note_on_c, 1, 56, 127
2, 17200, Note_on_c, 1, 71, 127
2, 17280, Note_off_c, 1, 56, 0
2, 17280, Note_off_c, 1, 71, 0
2, 17320, Note_on_c, 1, 54, 127
2, 17320, Note_on_c, 1, 71, 127
2, 17440, Note_off_c, 1, 54, 0
2, 17440, Note_off_c, 1, 71, 0
2, 17480, Note_on_c, 1, 55, 127
2, 17480, Note_on_c, 1, 74, 127
2, 17560, Note_off_c, 1, 74, 0
2, 17600, Note_on_c, 1, 71, 127
2, 17640, Note_off_c, 1, 55, 0
2, 17680, Note_on_c, 1, 55, 127
2, 17680, Note_off_c, 1, 71, 0
2, 17720, Note_on_c, 1, 76, 127
2, 17760, Note_off_c, 1, 55, 0
2, 17760, Note_off_c, 1, 76, 0
2, 17800, Note_on_c, 1, 57, 127
2, 17800, Note_on_c, 1, 79, 127
2, 17880, Note_off_c, 1, 57, 0
2, 17880, Note_off_c, 1, 79, 0
2, 17920, Note_on_c, 1, 55, 127
2, 17920, Note_on_c, 1, 76, 127
2, 18040, Note_off_c, 1, 55, 0
2, 18040, Note_off_c, 1, 76, 0
2, 18080, Note_on_c, 1, 46, 127
2, 18080, Note_on_c, 1, 74, 127
2, 18160, Note_off_c, 1, 46, 0
2, 18160, Note_off_c, 1, 74, 0
2, 18200, Note_on_c, 1, 45, 127
2, 18200, Note_on_c, 1, 72, 127
2, 18240, Note_off_c, 1, 45, 0
2, 18240, Note_on_c, 1, 48, 127
2, 18280, Note_off_c, 1, 48, 0
2, 18280, Note_off_c, 1, 72, 0
2, 18320, Note_on_c, 1, 53, 127
2, 18320, Note_on_c, 1, 71, 127
2, 18360, Note_off_c, 1, 71, 0
2, 18360, Note_on_c, 1, 73, 127
2, 18400, Note_off_c, 1, 53, 0
2, 18400, Note_on_c, 1, 71, 127
2, 18400, Note_off_c, 1, 73, 0
2, 18440, Note_on_c, 1, 53, 127
2, 18480, Note_off_c, 1, 53, 0
2, 18480, Note_on_c, 1, 55, 127
2, 18520, Note_off_c, 1, 55, 0
2, 18520, Note_off_c, 1, 71, 0
2, 18560, Note_on_c, 1, 52, 127
2, 18560, Note_on_c, 1, 69, 127
2, 18640, Note_off_c, 1, 69, 0
2, 18720, Note_on_c, 1, 76, 127
2, 18760, Note_off_c, 1, 76, 0
2, 18800, Note_off_c, 1, 52, 0
2, 18840, Note_on_c, 1, 58, 127
2, 18840, Note_on_c, 1, 73, 127
2, 18920, Note_off_c, 1, 58, 0
2, 18920, Note_off_c, 1, 73, 0
2, 18960, Note_on_c, 1, 50, 127
2, 18960, Note_on_c, 1, 72, 127
2, 19040, Note_off_c, 1, 50, 0
2, 19040, Note_on_c, 1, 52, 127
2, 19040, Note_off_c, 1, 72, 0
2, 19080, Note_on_c, 1, 71, 127
2, 19160, Note_off_c, 1, 52, 0
2, 19160, Note_off_c, 1, 71, 0
2, 19200, Note_on_c, 1, 55, 127
2, 19200, Note_on_c, 1, 74, 127
2, 19240, Note_off_c, 1, 74, 0
2, 19280, Note_off_c, 1, 55, 0
2, 19280, Note_on_c, 1, 57, 127
2, 19280, Note_on_c, 1, 71, 127
2, 19320, Note_off_c, 1, 57, 0
2, 19320, Note_off_c, 1, 71, 0
2, 19360, Note_on_c, 1, 59, 127
2, 19360, Note_on_c, 1, 71, 127
2, 19400, Note_off_c, 1, 59, 0
2, 19400, Note_off_c, 1, 71, 0
2, 19440, Note_on_c, 1, 45, 127
2, 19440, Note_on_c, 1, 76, 127
2, 19520, Note_off_c, 1, 45, 0
2, 19560, Note_on_c, 1, 57, 127
2, 19640, Note_off_c, 1, 57, 0
2, 19640, Note_off_c, 1, 76, 0
2, 19680, Note_on_c, 1, 57, 127
2, 19680, Note_on_c, 1, 72, 127
2, 19760, Note_off_c, 1, 72, 0
2, 19800, Note_on_c, 1, 76, 127
2, 19840, Note_off_c, 1, 57, 0
2, 19840, Note_off_c, 1, 76, 0
2, 19880, Note_on_c, 1, 56, 127
2, 19880, Note_on_c, 1, 76, 127
2, 19920, Note_off_c, 1, 56, 0
2, 19920, Note_on_c, 1, 57, 127
2, 19960, Note_off_c, 1, 57, 0
2, 19960, Note_off_c, 1, 76, 0
2, 20000, Note_on_c, 1, 59, 127
2, 20000, Note_on_c, 1, 77, 127
2, 20040, Note_off_c, 1, 77, 0
2, 20080, Note_on_c, 1, 76, 127
2, 20160, Note_off_c, 1, 76, 0
2, 20200, Note_on_c, 1, 74, 127
2, 20240, Note_on_c, 1, 56, 127
2, 20240, Note_off_c, 1, 59, 0
2, 20280, Note_off_c, 1, 56, 0
2, 20280, Note_off_c, 1, 74, 0
2, 20320, Note_on_c, 1, 58, 127
2, 20320, Note_on_c, 1, 76, 127
2, 20400, Note_off_c, 1, 76, 0
2, 20440, Note_off_c, 1, 58, 0
2, 20440, Note_on_c, 1, 59, 127
2, 20440, Note_on_c, 1, 77, 127
2, 20480, Note_off_c, 1, 77, 0
2, 20520, Note_on_c, 1, 76, 127
2, 20560, Note_off_c, 1, 76, 0
2, 20600, Note_on_c, 1, 77, 127
2, 20640, Note_on_c, 1, 58, 127
2, 20640, Note_off_c, 1, 59, 0
2, 20640, Note_off_c, 1, 77, 0
2, 20640, Note_on_c, 1, 79, 127
2, 20680, Note_off_c, 1, 58, 0
2, 20680, Note_off_c, 1, 79, 0
2, 20720, Note_on_c, 1, 62, 127
2, 20720, Note_on_c, 1, 79, 127
2, 20800, Note_off_c, 1, 62, 0
2, 20800, Note_off_c, 1, 79, 0
2, 20880, Note_on_c, 1, 69, 127
2, 20880, Note_on_c, 1, 73, 127
2, 20920, Note_off_c, 1, 69, 0
2, 20920, Note_off_c, 1, 73, 0
2, 20960, Note_on_c, 1, 67, 127
2, 20960, Note_on_c, 1, 75, 127
2, 21000, Note_on_c, 1, 65, 127
2, 21000, Note_off_c, 1, 67, 0
2, 21000, Note_on_c, 1, 71, 127
2, 21000, Note_off_c, 1, 75, 0
2, 21040, Note_off_c, 1, 65, 0
2, 21040, Note_off_c, 1, 71, 0
2, 21080, Note_on_c, 1, 66, 127
2, 21080, Note_on_c, 1, 76, 127
2, 21160, Note_off_c, 1, 76, 0
2, 21200, Note_on_c, 1, 74, 127
2, 21240, Note_off_c, 1, 74, 0
2, 21280, Note_off_c, 1, 66, 0
2, 21320, Note_on_c, 1, 74, 127
2, 21320, Note_on_c, 1, 81, 127
2, 21360, Note_on_c, 1, 79, 127
2, 21360, Note_off_c, 1, 81, 0
2, 21440, Note_off_c, 1, 74, 0
2, 21440, Note_off_c, 1, 79, 0
2, 21480, Note_on_c, 1, 74, 127
2, 21480, Note_on_c, 1, 76, 127
2, 21520, Note_on_c, 1, 72, 127
2, 21520, Note_off_c, 1, 74, 0
2, 21600, Note_off_c, 1, 72, 0
2, 21600, Note_off_c, 1, 76, 0
2, 21640, Note_on_c, 1, 52, 127
2, 21640, Note_on_c, 1, 72, 127
2, 21720, Note_off_c, 1, 52, 0
2, 21720, Note_off_c, 1, 72, 0
2, 21760, Note_on_c, 1, 60, 127
2, 21760, Note_on_c, 1, 69, 127
2, 21800, Note_off_c, 1, 60, 0
2, 21800, Note_off_c, 1, 69, 0
2, 21840, Note_on_c, 1, 61, 127
2, 21840, Note_on_c, 1, 73, 127
2, 21880, Note_off_c, 1, 61, 0
2, 21880, Note_off_c, 1, 73, 0
2, 21920, Note_on_c, 1, 61, 127
2, 21920, Note_on_c, 1, 71, 127
2, 21960, Note_off_c, 1, 71, 0
2, 22000, Note_on_c, 1, 59, 127
2, 22000, Note_off_c, 1, 61, 0
2, 22000, Note_on_c, 1, 66, 127
2, 22040, Note_off_c, 1, 66, 0
2, 22080, Note_off_c, 1, 59, 0
2, 22120, Note_on_c, 1, 52, 127
2, 22120, Note_on_c, 1, 68, 127
2, 22160, Note_off_c, 1, 52, 0
2, 22160, Note_off_c, 1, 68, 0
2, 22160, Note_on_c, 1, 75, 127
2, 22200, Note_on_c, 1, 68, 127
2, 22200, Note_off_c, 1, 75, 0
2, 22240, Note_off_c, 1, 68, 0
2, 22280, Note_on_c, 1, 59, 127
2, 22280, Note_on_c, 1, 76, 127
2, 22360, Note_off_c, 1, 76, 0
2, 22400, Note_off_c, 1, 59, 0
2, 22440, Note_on_c, 1, 57, 127
2, 22440, Note_on_c, 1, 73, 127
2, 22560, Note_off_c, 1, 57, 0
2, 22560, Note_off_c, 1, 73, 0
2, 22600, Note_on_c, 1, 57, 127
2, 22600, Note_on_c, 1, 82, 127
2, 22640, Note_off_c, 1, 82, 0
2, 22720, Note_on_c, 1, 74, 127
2, 22800, Note_off_c, 1, 57, 0
2, 22800, Note_off_c, 1, 74, 0
2, 22840, Note_on_c, 1, 52, 127
2, 22840, Note_on_c, 1, 57, 127
2, 22840, Note_on_c, 1, 72, 127
2, 22920, Note_off_c, 1, 57, 0
2, 22920, Note_off_c, 1, 72, 0
2, 22960, Note_off_c, 1, 52, 0
2, 23000, Note_on_c, 1, 50, 127
2, 23000, Note_on_c, 1, 70, 127
2, 23040, Note_off_c, 1, 50, 0
2, 23040, Note_on_c, 1, 52, 127
2, 23080, Note_off_c, 1, 70, 0
2, 23120, Note_on_c, 1, 71, 127
2, 23200, Note_off_c, 1, 71, 0
2, 23240, Note_on_c, 1, 71, 127
2, 23320, Note_off_c, 1, 52, 0
2, 23320, Note_off_c, 1, 71, 0
2, 23360, Note_on_c, 1, 57, 127
2, 23360, Note_on_c, 1, 70, 127
2, 23400, Note_on_c, 1, 69, 127
2, 23400, Note_off_c, 1, 70, 0
2, 23480, Note_off_c, 1, 57, 0
2, 23480, Note_off_c, 1, 69, 0
2, 23520, Note_on_c, 1, 69, 127
2, 23520, Note_on_c, 1, 73, 127
2, 23560, Note_off_c, 1, 73, 0
2, 23560, Note_on_c, 1, 76, 127
2, 23680, Note_off_c, 1, 69, 0
2, 23720, Note_on_c, 1, 63, 127
2, 23720, Note_on_c, 1, 71, 127
2, 23720, Note_off_c, 1, 76, 0
2, 23760, Note_off_c, 1, 63, 0
2, 23760, Note_on_c, 1, 66, 127
2, 23840, Note_off_c, 1, 66, 0
2, 23840, Note_off_c, 1, 71, 0
2, 23920, Note_on_c, 1, 65, 127
2, 23920, Note_on_c, 1, 71, 127
2, 24040, Note_off_c, 1, 65, 0
2, 24040, Note_off_c, 1, 71, 0
2, 24080, Note_on_c, 1, 64, 127
2, 24080, Note_on_c, 1, 74, 127
2, 24120, Note_off_c, 1, 74, 0
2, 24160, Note_on_c, 1, 69, 127
2, 24240, Note_off_c, 1, 64, 0
2, 24240, Note_off_c, 1, 69, 0
2, 24280, Note_on_c, 1, 53, 127
2, 24280, Note_on_c, 1, 69, 127
2, 24360, Note_off_c, 1, 53, 0
2, 24520, Note_off_c, 1, 69, 0
2, 24560, Note_on_c, 1, 67, 127
2, 24560, Note_on_c, 1, 77, 127
2, 24600, Note_off_c, 1, 77, 0
2, 24600, Note_on_c, 1, 79, 127
2, 24680, Note_on_c, 1, 77, 127
2, 24680, Note_off_c, 1, 79, 0
2, 24720, Note_off_c, 1, 67, 0
2, 24720, Note_off_c, 1, 77, 0
2, 24760, Note_on_c, 1, 54, 127
2, 24760, Note_on_c, 1, 66, 127
2, 24760, Note_on_c, 1, 81, 127
2, 24880, Note_off_c, 1, 54, 0
2, 24880, Note_off_c, 1, 66, 0
2, 24880, Note_off_c, 1, 81, 0
2, 24960, Note_on_c, 1, 73, 127
2, 25000, Note_off_c, 1, 73, 0
2, 25080, Note_on_c, 1, 74, 127
2, 25160, Note_off_c, 1, 74, 0
2, 25200, Note_on_c, 1, 45, 127
2, 25200, Note_on_c, 1, 76, 127
2, 25320, Note_off_c, 1, 76, 0
2, 25360, Note_on_c, 1, 42, 127
2, 25360, Note_off_c, 1, 45, 0
2, 25360, Note_on_c, 1, 66, 127
2, 25480, Note_off_c, 1, 42, 0
2, 25480, Note_off_c, 1, 66, 0
2, 25520, Note_on_c, 1, 47, 127
2, 25520, Note_on_c, 1, 66, 127
2, 25680, Note_off_c, 1, 47, 0
2, 25680, Note_off_c, 1, 66, 0
2, 25760, Note_on_c, 1, 54, 127
2, 25760, Note_on_c, 1, 63, 127
2, 25800, Note_on_c, 1, 52, 127
2, 25800, Note_off_c, 1, 54, 0
2, 25800, Note_off_c, 1, 63, 0
2, 25800, Note_on_c, 1, 66, 127
2, 25880, Note_off_c, 1, 52, 0
2, 25880, Note_off_c, 1, 66, 0
2, 25920, Note_on_c, 1, 52, 127
2, 25920, Note_on_c, 1, 69, 127
2, 26000, Note_off_c, 1, 52, 0
2, 26000, Note_off_c, 1, 69, 0
2, 26040, Note_on_c, 1, 50, 127
2, 26040, Note_on_c, 1, 71, 127
2, 26160, Note_off_c, 1, 50, 0
2, 26160, Note_off_c, 1, 71, 0
2, 26200, Note_on_c, 1, 47, 127
2, 26200, Note_on_c, 1, 72, 127
2, 26280, Note_off_c, 1, 72, 0
2, 26320, Note_on_c, 1, 71, 127
2, 26400, Note_off_c, 1, 47, 0
2, 26400, Note_off_c, 1, 71, 0
2, 26440, Note_on_c, 1, 47, 127
2, 26440, Note_on_c, 1, 71, 127
2, 26560, Note_off_c, 1, 47, 0
2, 26560, Note_on_c, 1, 52, 127
2, 26600, Note_on_c, 1, 49, 127
2, 26600, Note_off_c, 1, 52, 0
2, 26600, Note_off_c, 1, 71, 0
2, 26640, Note_on_c, 1, 47, 127
2, 26640, Note_off_c, 1, 49, 0
2, 26640, Note_on_c, 1, 71, 127
2, 26680, Note_off_c, 1, 47, 0
2, 26680, Note_off_c, 1, 71, 0
2, 26720, Note_on_c, 1, 73, 127
2, 26760, Note_off_c, 1, 73, 0
2, 26800, Note_on_c, 1, 64, 127
2, 26800, Note_on_c, 1, 73, 127
2, 26920, Note_off_c, 1, 64, 0
2, 26920, Note_off_c, 1, 73, 0
2, 26920, Note_on_c, 1, 76, 127
2, 26960, Note_on_c, 1, 73, 127
2, 26960, Note_off_c, 1, 76, 0
2, 27000, Note_on_c, 1, 57, 127
2, 27000, Note_on_c, 1, 81, 127
2, 27040, Note_on_c, 1, 78, 127
2, 27040, Note_off_c, 1, 81, 0
2, 27160, Note_off_c, 1, 57, 0
2, 27160, Note_off_c, 1, 73, 0
2, 27160, Note_on_c, 1, 76, 127
2, 27160, Note_off_c, 1, 78, 0
2, 27160, Note_on_c, 1, 81, 127
2, 27200, Note_on_c, 1, 60, 127
2, 27240, Note_off_c, 1, 60, 0
2, 27240, Note_off_c, 1, 76, 0
2, 27240, Note_off_c, 1, 81, 0
2, 27280, Note_on_c, 1, 53, 127
2, 27280, Note_on_c, 1, 67, 127
2, 27280, Note_on_c, 1, 80, 127
2, 27320, Note_on_c, 1, 78, 127
2, 27320, Note_off_c, 1, 80, 0
2, 27360, Note_off_c, 1, 78, 0
2, 27360, Note_on_c, 1, 80, 127
2, 27400, Note_off_c, 1, 53, 0
2, 27400, Note_off_c, 1, 67, 0
2, 27400, Note_off_c, 1, 80, 0
2, 27440, Note_on_c, 1, 50, 127
2, 27440, Note_on_c, 1, 64, 127
2, 27440, Note_on_c, 1, 71, 127
2, 27440, Note_on_c, 1, 74, 127
2, 27480, Note_off_c, 1, 50, 0
2, 27480, Note_on_c, 1, 52, 127
2, 27480, Note_off_c, 1, 74, 0
2, 27480, Note_on_c, 1, 76, 127
2, 27560, Note_off_c, 1, 64, 0
2, 27560, Note_off_c, 1, 71, 0
2, 27560, Note_off_c, 1, 76, 0
2, 27600, Note_on_c, 1, 64, 127
2, 27600, Note_on_c, 1, 71, 127
2, 27760, Note_off_c, 1, 52, 0
2, 27760, Note_off_c, 1, 64, 0
2, 27760, Note_off_c, 1, 71, 0
2, 27760, Note_on_c, 1, 73, 127
2, 27800, Note_on_c, 1, 55, 127
2, 27800, Note_on_c, 1, 71, 127
2, 27800, Note_off_c, 1, 73, 0
2, 27800, Note_on_c, 1, 76, 127
2, 27960, Note_off_c, 1, 55, 0
2, 27960, Note_off_c, 1, 71, 0
2, 27960, Note_on_c, 1, 74, 127
2, 27960, Note_off_c, 1, 76, 0
2, 28000, Note_on_c, 1, 54, 127
2, 28000, Note_on_c, 1, 71, 127
2, 28000, Note_off_c, 1, 74, 0
2, 28000, Note_on_c, 1, 76, 127
2, 28160, Note_off_c, 1, 54, 0
2, 28160, Note_off_c, 1, 71, 0
2, 28160, Note_off_c, 1, 76, 0
2, 28200, Note_on_c, 1, 56, 127
2, 28200, Note_on_c, 1, 72, 127
2, 28200, Note_on_c, 1, 75, 127
2, 28280, Note_off_c, 1, 56, 0
2, 28280, Note_off_c, 1, 72, 0
2, 28280, Note_off_c, 1, 75, 0
2, 28320, Note_on_c, 1, 56, 127
2, 28320, Note_on_c, 1, 74, 127
2, 28320, Note_on_c, 1, 78, 127
2, 28400, Note_off_c, 1, 74, 0
2, 28400, Note_on_c, 1, 75, 127
2, 28400, Note_off_c, 1, 78, 0
2, 28440, Note_on_c, 1, 80, 127
2, 28480, Note_off_c, 1, 80, 0
2, 28480, Note_on_c, 1, 82, 127
2, 28520, Note_on_c, 1, 79, 127
2, 28520, Note_off_c, 1, 82, 0
2, 28560, Note_off_c, 1, 79, 0
2, 28560, Note_on_c, 1, 81, 127
2, 28640, Note_off_c, 1, 56, 0
2, 28640, Note_on_c, 1, 59, 127
2, 28640, Note_on_c, 1, 74, 127
2, 28640, Note_off_c, 1, 75, 0
2, 28640, Note_on_c, 1, 80, 127
2, 28640, Note_off_c, 1, 81, 0
2, 28680, Note_off_c, 1, 59, 0
2, 28680, Note_off_c, 1, 74, 0
2, 28680, Note_off_c, 1, 80, 0
2, 28720, Note_on_c, 1, 59, 127
2, 28720, Note_on_c, 1, 73, 127
2, 28720, Note_on_c, 1, 78, 127
2, 28760, Note_off_c, 1, 78, 0
2, 28760, Note_on_c, 1, 82, 127
2, 28800, Note_off_c, 1, 73, 0
2, 28800, Note_on_c, 1, 78, 127
2, 28800, Note_on_c, 1, 80, 127
2, 28800, Note_off_c, 1, 82, 0
2, 28840, Note_off_c, 1, 78, 0
2, 28840, Note_off_c, 1, 80, 0
2, 28880, Note_on_c, 1, 79, 127
2, 28920, Note_on_c, 1, 77, 127
2, 28920, Note_off_c, 1, 79, 0
2, 28960, Note_off_c, 1, 59, 0
2, 28960, Note_off_c, 1, 77, 0
2, 29000, Note_on_c, 1, 59, 127
2, 29000, Note_on_c, 1, 74, 127
2, 29080, Note_off_c, 1, 74, 0
2, 29120, Note_on_c, 1, 74, 127
2, 29160, Note_off_c, 1, 59, 0
2, 29160, Note_off_c, 1, 74, 0
2, 29160, Note_on_c, 1, 76, 127
2, 29200, Note_off_c, 1, 76, 0
2, 29240, Note_on_c, 1, 45, 127
2, 29240, Note_on_c, 1, 62, 127
2, 29400, Note_off_c, 1, 45, 0
2, 29400, Note_off_c, 1, 62, 0
2, 29440, Note_on_c, 1, 55, 127
2, 29440, Note_on_c, 1, 64, 127
2, 29520, Note_off_c, 1, 55, 0
2, 29560, Note_on_c, 1, 54, 127
2, 29560, Note_on_c, 1, 70, 127
2, 29640, Note_off_c, 1, 70, 0
2, 29800, Note_off_c, 1, 64, 0
2, 29840, Note_on_c, 1, 66, 127
2, 29960, Note_off_c, 1, 66, 0
2, 30000, Note_on_c, 1, 52, 127
2, 30000, Note_off_c, 1, 54, 0
2, 30000, Note_on_c, 1, 67, 127
2, 30040, Note_off_c, 1, 67, 0
2, 30080, Note_on_c, 1, 66, 127
2, 30160, Note_off_c, 1, 66, 0
2, 30400, Note_off_c, 1, 52, 0
2, 30400, Note_on_c, 1, 55, 127
2, 30440, Note_off_c, 1, 55, 0
2, 30480, Note_on_c, 1, 75, 127
2, 30520, Note_on_c, 1, 74, 127
2, 30520, Note_off_c, 1, 75, 0
2, 30560, Note_off_c, 1, 74, 0
2, 30600, Note_on_c, 1, 50, 127
2, 30640, Note_off_c, 1, 50, 0
2, 30640, Note_on_c, 1, 52, 127
2, 30680, Note_off_c, 1, 52, 0
2, 30720, Note_on_c, 1, 52, 127
2, 30720, Note_on_c, 1, 61, 127
2, 30840, Note_off_c, 1, 61, 0
2, 30880, Note_on_c, 1, 59, 127
2, 30960, Note_off_c, 1, 52, 0
2, 30960, Note_on_c, 1, 54, 127
2, 31000, Note_off_c, 1, 54, 0
2, 31040, Note_on_c, 1, 52, 127
2, 31080, Note_off_c, 1, 52, 0
2, 31120, Note_on_c, 1, 52, 127
2, 31160, Note_off_c, 1, 52, 0
2, 31200, Note_on_c, 1, 52, 127
2, 31200, Note_on_c, 1, 68, 127
2, 31240, Note_off_c, 1, 59, 0
2, 31240, Note_on_c, 1, 61, 127
2, 31280, Note_off_c, 1, 61, 0
2, 31320, Note_on_c, 1, 61, 127
2, 31320, Note_on_c, 1, 67, 127
2, 31320, Note_off_c, 1, 68, 0
2, 31400, Note_off_c, 1, 52, 0
2, 31400, Note_on_c, 1, 54, 127
2, 31480, Note_off_c, 1, 54, 0
2, 31480, Note_on_c, 1, 56, 127
2, 31520, Note_off_c, 1, 56, 0
2, 31520, Note_on_c, 1, 59, 127
2, 31520, Note_off_c, 1, 61, 0
2, 31560, Note_on_c, 1, 54, 127
2, 31640, Note_off_c, 1, 54, 0
2, 31640, Note_off_c, 1, 67, 0
2, 31680, Note_on_c, 1, 69, 127
2, 31720, Note_on_c, 1, 56, 127
2, 31720, Note_off_c, 1, 59, 0
2, 31760, Note_off_c, 1, 56, 0
2, 31760, Note_on_c, 1, 68, 127
2, 31760, Note_off_c, 1, 69, 0
2, 31800, Note_on_c, 1, 47, 127
2, 31800, Note_on_c, 1, 59, 127
2, 31880, Note_off_c, 1, 68, 0
2, 31920, Note_on_c, 1, 66, 127
2, 31960, Note_off_c, 1, 47, 0
2, 31960, Note_off_c, 1, 66, 0
2, 32000, Note_off_c, 1, 59, 0
2, 32000, Note_on_c, 1, 64, 127
2, 32040, Note_on_c, 1, 54, 127
2, 32040, Note_on_c, 1, 62, 127
2, 32040, Note_off_c, 1, 64, 0
2, 32040, Note_on_c, 1, 66, 127
2, 32080, Note_on_c, 1, 61, 127
2, 32080, Note_off_c, 1, 62, 0
2, 32120, Note_off_c, 1, 54, 0
2, 32120, Note_off_c, 1, 61, 0
2, 32160, Note_on_c, 1, 54, 127
2, 32280, Note_off_c, 1, 54, 0
2, 32320, Note_off_c, 1, 66, 0
2, 32320, Note_on_c, 1, 67, 127
2, 32360, Note_on_c, 1, 50, 127
2, 32360, Note_on_c, 1, 61, 127
2, 32480, Note_off_c, 1, 50, 0
2, 32480, Note_off_c, 1, 61, 0
2, 32480, Note_off_c, 1, 67, 0
2, 32480, Note_on_c, 1, 68, 127
2, 32520, Note_on_c, 1, 51, 127
2, 32520, Note_on_c, 1, 61, 127
2, 32520, Note_on_c, 1, 67, 127
2, 32520, Note_off_c, 1, 68, 0
2, 32640, Note_off_c, 1, 51, 0
2, 32640, Note_on_c, 1, 54, 127
2, 32680, Note_off_c, 1, 61, 0
2, 32720, Note_on_c, 1, 59, 127
2, 32760, Note_on_c, 1, 51, 127
2, 32760, Note_off_c, 1, 54, 0
2, 32800, Note_off_c, 1, 51, 0
2, 32800, Note_on_c, 1, 54, 127
2, 32840, Note_off_c, 1, 54, 0
2, 32880, Note_on_c, 1, 54, 127
2, 32880, Note_off_c, 1, 59, 0
2, 32880, Note_on_c, 1, 62, 127
2, 32960, Note_off_c, 1, 54, 0
2, 32960, Note_off_c, 1, 62, 0
2, 32960, Note_off_c, 1, 67, 0
2, 33000, Note_on_c, 1, 50, 127
2, 33000, Note_on_c, 1, 57, 127
2, 33000, Note_on_c, 1, 64, 127
2, 33040, Note_off_c, 1, 50, 0
2, 33040, Note_on_c, 1, 52, 127
2, 33080, Note_off_c, 1, 52, 0
2, 33080, Note_off_c, 1, 57, 0
2, 33080, Note_off_c, 1, 64, 0
2, 33120, Note_on_c, 1, 57, 127
2, 33120, Note_on_c, 1, 66, 127
2, 33440, Note_off_c, 1, 57, 0
2, 33440, Note_off_c, 1, 66, 0
2, 33520, Note_on_c, 1, 57, 127
2, 33520, Note_on_c, 1, 60, 127
2, 33520, Note_on_c, 1, 69, 127
2, 33680, Note_off_c, 1, 60, 0
2, 33680, Note_off_c, 1, 69, 0
2, 33720, Note_on_c, 1, 40, 127
2, 33720, Note_off_c, 1, 57, 0
2, 33720, Note_on_c, 1, 59, 127
2, 33720, Note_on_c, 1, 66, 127
2, 33800, Note_off_c, 1, 40, 0
2, 33840, Note_on_c, 1, 47, 127
2, 33880, Note_off_c, 1, 47, 0
2, 33880, Note_off_c, 1, 59, 0
2, 33880, Note_off_c, 1, 66, 0
2, 33920, Note_on_c, 1, 59, 127
2, 33920, Note_on_c, 1, 73, 127
2, 33960, Note_on_c, 1, 71, 127
2, 33960, Note_off_c, 1, 73, 0
2, 34000, Note_off_c, 1, 71, 0
2, 34000, Note_on_c, 1, 73, 127
2, 34080, Note_on_c, 1, 54, 127
2, 34080, Note_on_c, 1, 71, 127
2, 34080, Note_off_c, 1, 73, 0
2, 34120, Note_off_c, 1, 54, 0
2, 34160, Note_off_c, 1, 59, 0
2, 34160, Note_off_c, 1, 71, 0
2, 34160, Note_on_c, 1, 76, 127
2, 34200, Note_on_c, 1, 57, 127
2, 34200, Note_on_c, 1, 66, 127
2, 34280, Note_off_c, 1, 66, 0
2, 34320, Note_on_c, 1, 66, 127
2, 34400, Note_off_c, 1, 57, 0
2, 34400, Note_off_c, 1, 66, 0
2, 34400, Note_off_c, 1, 76, 0
2, 34440, Note_on_c, 1, 59, 127
2, 34440, Note_on_c, 1, 77, 127
2, 34480, Note_on_c, 1, 76, 127
2, 34480, Note_off_c, 1, 77, 0
2, 34560, Note_off_c, 1, 59, 0
2, 34560, Note_off_c, 1, 76, 0
2, 34600, Note_on_c, 1, 59, 127
2, 34600, Note_on_c, 1, 76, 127
2, 34720, Note_off_c, 1, 59, 0
2, 34760, Note_on_c, 1, 59, 127
2, 34840, Note_off_c, 1, 59, 0
2, 34880, Note_on_c, 1, 57, 127
2, 34960, Note_off_c, 1, 57, 0
2, 35000, Note_on_c, 1, 54, 127
2, 35080, Note_off_c, 1, 54, 0
2, 35080, Note_on_c, 1, 59, 127
2, 35120, Note_on_c, 1, 54, 127
2, 35120, Note_off_c, 1, 59, 0
2, 35160, Note_on_c, 1, 57, 127
2, 35200, Note_off_c, 1, 54, 0
2, 35240, Note_off_c, 1, 57, 0
2, 35240, Note_on_c, 1, 75, 127
2, 35240, Note_off_c, 1, 76, 0
2, 35280, Note_on_c, 1, 57, 127
2, 35280, Note_on_c, 1, 73, 127
2, 35280, Note_off_c, 1, 75, 0
2, 35360, Note_on_c, 1, 76, 127
2, 35480, Note_off_c, 1, 73, 0
2, 35480, Note_on_c, 1, 74, 127
2, 35560, Note_on_c, 1, 71, 127
2, 35560, Note_off_c, 1, 74, 0
2, 35600, Note_off_c, 1, 71, 0
2, 35600, Note_off_c, 1, 76, 0
2, 35640, Note_on_c, 1, 74, 127
2, 35720, Note_off_c, 1, 57, 0
2, 35720, Note_off_c, 1, 74, 0
2, 35760, Note_on_c, 1, 57, 127
2, 35760, Note_on_c, 1, 77, 127
2, 35840, Note_off_c, 1, 77, 0
2, 35880, Note_on_c, 1, 76, 127
2, 35960, Note_off_c, 1, 57, 0
2, 35960, Note_off_c, 1, 76, 0
2, 36000, Note_on_c, 1, 52, 127
2, 36000, Note_on_c, 1, 72, 127
2, 36120, Note_off_c, 1, 72, 0
2, 36160, Note_on_c, 1, 66, 127
2, 36280, Note_off_c, 1, 52, 0
2, 36280, Note_off_c, 1, 66, 0
2, 36360, Note_on_c, 1, 50, 127
2, 36360, Note_on_c, 1, 71, 127
2, 36440, Note_off_c, 1, 50, 0
2, 36440, Note_off_c, 1, 71, 0
2, 36480, Note_on_c, 1, 50, 127
2, 36480, Note_on_c, 1, 71, 127
2, 36560, Note_off_c, 1, 50, 0
2, 36560, Note_off_c, 1, 71, 0
2, 36640, Note_on_c, 1, 47, 127
2, 36640, Note_on_c, 1, 71, 127
2, 36760, Note_off_c, 1, 47, 0
2, 36800, Note_on_c, 1, 52, 127
2, 36960, Note_off_c, 1, 52, 0
2, 36960, Note_off_c, 1, 71, 0
2, 37000, Note_on_c, 1, 57, 127
2, 37000, Note_on_c, 1, 69, 127
2, 37080, Note_off_c, 1, 69, 0
2, 37120, Note_off_c, 1, 57, 0
2, 37120, Note_on_c, 1, 59, 127
2, 37120, Note_on_c, 1, 69, 127
2, 37160, Note_off_c, 1, 59, 0
2, 37160, Note_off_c, 1, 69, 0
2, 37200, Note_on_c, 1, 55, 127
2, 37200, Note_on_c, 1, 74, 127
2, 37280, Note_off_c, 1, 55, 0
2, 37280, Note_off_c, 1, 74, 0
2, 37320, Note_on_c, 1, 52, 127
2, 37320, Note_on_c, 1, 72, 127
2, 37480, Note_off_c, 1, 72, 0
2, 37520, Note_on_c, 1, 71, 127
2, 37640, Note_off_c, 1, 71, 0
2, 37680, Note_on_c, 1, 71, 127
2, 37720, Note_off_c, 1, 71, 0
2, 37720, Note_on_c, 1, 73, 127
2, 37800, Note_off_c, 1, 73, 0
2, 37800, Note_on_c, 1, 74, 127
2, 37840, Note_off_c, 1, 74, 0
2, 37880, Note_on_c, 1, 73, 127
2, 37920, Note_on_c, 1, 71, 127
2, 37920, Note_off_c, 1, 73, 0
2, 37960, Note_off_c, 1, 71, 0
2, 38000, Note_on_c, 1, 69, 127
2, 38080, Note_off_c, 1, 69, 0
2, 38120, Note_on_c, 1, 71, 127
2, 38240, Note_off_c, 1, 52, 0
2, 38240, Note_off_c, 1, 71, 0
2, 38280, Note_on_c, 1, 57, 127
2, 38280, Note_on_c, 1, 68, 127
2, 38320, Note_off_c, 1, 68, 0
2, 38320, Note_on_c, 1, 69, 127
2, 38360, Note_off_c, 1, 57, 0
2, 38360, Note_off_c, 1, 69, 0
2, 38400, Note_on_c, 1, 57, 127
2, 38400, Note_on_c, 1, 71, 127
2, 38520, Note_off_c, 1, 71, 0
2, 38560, Note_on_c, 1, 71, 127
2, 38640, Note_off_c, 1, 57, 0
2, 38640, Note_off_c, 1, 71, 0
2, 38680, Note_on_c, 1, 57, 127
2, 38680, Note_on_c, 1, 71, 127
2, 38800, Note_off_c, 1, 57, 0
2, 38840, Note_on_c, 1, 59, 127
2, 38880, Note_off_c, 1, 71, 0
2, 39120, Note_on_c, 1, 76, 127
2, 39160, Note_off_c, 1, 59, 0
2, 39160, Note_off_c, 1, 76, 0
2, 39200, Note_on_c, 1, 57, 127
2, 39200, Note_on_c, 1, 68, 127
2, 39240, Note_off_c, 1, 68, 0
2, 39240, Note_on_c, 1, 76, 127
2, 39280, Note_off_c, 1, 57, 0
2, 39280, Note_off_c, 1, 76, 0
2, 39320, Note_on_c, 1, 57, 127
2, 39320, Note_on_c, 1, 73, 127
2, 39440, Note_off_c, 1, 57, 0
2, 39440, Note_off_c, 1, 73, 0
2, 39480, Note_on_c, 1, 53, 127
2, 39480, Note_on_c, 1, 73, 127
2, 39560, Note_off_c, 1, 53, 0
2, 39560, Note_off_c, 1, 73, 0
2, 39600, Note_on_c, 1, 49, 127
2, 39600, Note_on_c, 1, 76, 127
2, 39680, Note_off_c, 1, 49, 0
2, 39680, Note_off_c, 1, 76, 0
2, 39720, Note_on_c, 1, 47, 127
2, 39720, Note_on_c, 1, 80, 127
2, 39760, Note_off_c, 1, 47, 0
2, 39760, Note_on_c, 1, 52, 127
2, 39760, Note_off_c, 1, 80, 0
2, 39800, Note_off_c, 1, 52, 0
2, 39800, Note_on_c, 1, 54, 127
2, 39840, Note_on_c, 1, 52, 127
2, 39840, Note_off_c, 1, 54, 0
2, 39880, Note_off_c, 1, 52, 0
2, 39960, Note_on_c, 1, 47, 127
2, 39960, Note_on_c, 1, 79, 127
2, 40040, Note_off_c, 1, 79, 0
2, 40080, Note_on_c, 1, 75, 127
2, 40160, Note_off_c, 1, 75, 0
2, 40200, Note_on_c, 1, 78, 127
2, 40280, Note_off_c, 1, 47, 0
2, 40280, Note_off_c, 1, 78, 0
2, 40320, Note_on_c, 1, 47, 127
2, 40320, Note_on_c, 1, 79, 127
2, 40440, Note_off_c, 1, 47, 0
2, 40440, Note_on_c, 1, 49, 127
2, 40480, Note_off_c, 1, 49, 0
2, 40480, Note_off_c, 1, 79, 0
2, 40520, Note_on_c, 1, 54, 127
2, 40520, Note_on_c, 1, 70, 127
2, 40600, Note_off_c, 1, 70, 0
2, 40680, Note_off_c, 1, 54, 0
2, 40680, Note_on_c, 1, 56, 127
2, 40720, Note_on_c, 1, 54, 127
2, 40720, Note_off_c, 1, 56, 0
2, 40720, Note_on_c, 1, 66, 127
2, 40760, Note_off_c, 1, 54, 0
2, 40760, Note_off_c, 1, 66, 0
2, 40800, Note_on_c, 1, 52, 127
2, 40800, Note_on_c, 1, 68, 127
2, 40880, Note_off_c, 1, 68, 0
2, 40920, Note_on_c, 1, 67, 127
2, 41000, Note_off_c, 1, 52, 0
2, 41000, Note_on_c, 1, 55, 127
2, 41000, Note_off_c, 1, 67, 0
2, 41040, Note_on_c, 1, 76, 127
2, 41160, Note_off_c, 1, 55, 0
2, 41160, Note_off_c, 1, 76, 0
2, 41200, Note_on_c, 1, 57, 127
2, 41200, Note_on_c, 1, 76, 127
2, 41280, Note_off_c, 1, 76, 0
2, 41320, Note_on_c, 1, 52, 127
2, 41320, Note_on_c, 1, 76, 127
2, 41360, Note_on_c, 1, 55, 127
2, 41360, Note_off_c, 1, 57, 0
2, 41360, Note_off_c, 1, 76, 0
2, 41400, Note_off_c, 1, 55, 0
2, 41400, Note_on_c, 1, 57, 127
2, 41400, Note_on_c, 1, 76, 127
2, 41480, Note_off_c, 1, 57, 0
2, 41520, Note_off_c, 1, 52, 0
2, 41520, Note_off_c, 1, 76, 0
2, 41560, Note_on_c, 1, 57, 127
2, 41560, Note_on_c, 1, 74, 127
2, 41640, Note_off_c, 1, 57, 0
2, 41640, Note_off_c, 1, 74, 0
2, 41720, Note_on_c, 1, 53, 127
2, 41720, Note_on_c, 1, 71, 127
2, 41800, Note_off_c, 1, 53, 0
2, 41840, Note_on_c, 1, 43, 127
2, 41920, Note_off_c, 1, 43, 0
2, 41920, Note_off_c, 1, 71, 0
2, 41960, Note_on_c, 1, 53, 127
2, 41960, Note_on_c, 1, 74, 127
2, 42040, Note_on_c, 1, 52, 127
2, 42040, Note_off_c, 1, 53, 0
2, 42080, Note_on_c, 1, 72, 127
2, 42080, Note_off_c, 1, 74, 0
2, 42120, Note_off_c, 1, 52, 0
2, 42120, Note_off_c, 1, 72, 0
2, 42160, Note_on_c, 1, 42, 127
2, 42160, Note_on_c, 1, 74, 127
2, 42200, Note_off_c, 1, 42, 0
2, 42200, Note_on_c, 1, 47, 127
2, 42280, Note_off_c, 1, 47, 0
2, 42280, Note_off_c, 1, 74, 0
2, 42320, Note_on_c, 1, 50, 127
2, 42320, Note_on_c, 1, 77, 127
2, 42400, Note_off_c, 1, 50, 0
2, 42400, Note_off_c, 1, 77, 0
2, 42440, Note_on_c, 1, 47, 127
2, 42440, Note_on_c, 1, 75, 127
2, 42560, Note_off_c, 1, 75, 0
2, 42600, Note_off_c, 1, 47, 0
2, 42600, Note_on_c, 1, 50, 127
2, 42600, Note_on_c, 1, 54, 127
2, 42600, Note_on_c, 1, 76, 127
2, 42640, Note_on_c, 1, 47, 127
2, 42640, Note_off_c, 1, 50, 0
2, 42640, Note_on_c, 1, 52, 127
2, 42640, Note_off_c, 1, 54, 0
2, 42680, Note_off_c, 1, 47, 0
2, 42680, Note_off_c, 1, 76, 0
2, 42720, Note_on_c, 1, 76, 127
2, 42840, Note_off_c, 1, 52, 0
2, 42840, Note_off_c, 1, 76, 0
2, 42880, Note_on_c, 1, 81, 127
2, 42920, Note_on_c, 1, 55, 127
2, 42920, Note_on_c, 1, 76, 127
2, 42920, Note_off_c, 1, 81, 0
2, 42960, Note_off_c, 1, 55, 0
2, 42960, Note_on_c, 1, 59, 127
2, 43000, Note_off_c, 1, 59, 0
2, 43000, Note_off_c, 1, 76, 0
2, 43040, Note_on_c, 1, 50, 127
2, 43040, Note_on_c, 1, 77, 127
2, 43080, Note_off_c, 1, 77, 0
2, 43120, Note_off_c, 1, 50, 0
2, 43120, Note_on_c, 1, 52, 127
2, 43120, Note_on_c, 1, 79, 127
2, 43160, Note_off_c, 1, 52, 0
2, 43160, Note_on_c, 1, 59, 127
2, 43200, Note_off_c, 1, 59, 0
2, 43200, Note_off_c, 1, 79, 0
2, 43240, Note_on_c, 1, 56, 127
2, 43240, Note_on_c, 1, 76, 127
2, 43280, Note_off_c, 1, 56, 0
2, 43280, Note_on_c, 1, 59, 127
2, 43320, Note_off_c, 1, 59, 0
2, 43320, Note_off_c, 1, 76, 0
2, 43360, Note_on_c, 1, 57, 127
2, 43360, Note_on_c, 1, 76, 127
2, 43440, Note_off_c, 1, 57, 0
2, 43440, Note_off_c, 1, 76, 0
2, 43480, Note_on_c, 1, 57, 127
2, 43480, Note_on_c, 1, 77, 127
2, 43560, Note_off_c, 1, 77, 0
2, 43600, Note_on_c, 1, 75, 127
2, 43760, Note_off_c, 1, 57, 0
2, 43760, Note_off_c, 1, 75, 0
2, 43800, Note_on_c, 1, 57, 127
2, 43800, Note_on_c, 1, 74, 127
2, 43880, Note_off_c, 1, 74, 0
2, 43920, Note_off_c, 1, 57, 0
2, 43920, Note_on_c, 1, 58, 127
2, 43920, Note_on_c, 1, 70, 127
2, 43960, Note_on_c, 1, 57, 127
2, 43960, Note_off_c, 1, 58, 0
2, 44000, Note_on_c, 1, 56, 127
2, 44000, Note_off_c, 1, 57, 0
2, 44000, Note_off_c, 1, 70, 0
2, 44040, Note_on_c, 1, 52, 127
2, 44040, Note_off_c, 1, 56, 0
2, 44040, Note_on_c, 1, 59, 127
2, 44040, Note_on_c, 1, 79, 127
2, 44080, Note_off_c, 1, 79, 0
2, 44080, Note_on_c, 1, 82, 127
2, 44120, Note_off_c, 1, 82, 0
2, 44160, Note_on_c, 1, 70, 127
2, 44200, Note_off_c, 1, 59, 0
2, 44200, Note_on_c, 1, 61, 127
2, 44240, Note_off_c, 1, 70, 0
2, 44280, Note_off_c, 1, 52, 0
2, 44280, Note_on_c, 1, 59, 127
2, 44280, Note_off_c, 1, 61, 0
2, 44320, Note_on_c, 1, 54, 127
2, 44320, Note_off_c, 1, 59, 0
2, 44360, Note_on_c, 1, 52, 127
2, 44360, Note_on_c, 1, 72, 127
2, 44400, Note_off_c, 1, 52, 0
2, 44400, Note_on_c, 1, 71, 127
2, 44400, Note_off_c, 1, 72, 0
2, 44480, Note_off_c, 1, 54, 0
2, 44480, Note_off_c, 1, 71, 0
2, 44560, Note_on_c, 1, 52, 127
2, 44560, Note_on_c, 1, 72, 127
2, 44600, Note_off_c, 1, 52, 0
2, 44600, Note_on_c, 1, 54, 127
2, 44640, Note_off_c, 1, 54, 0
2, 44640, Note_off_c, 1, 72, 0
2, 44680, Note_on_c, 1, 53, 127
2, 44680, Note_on_c, 1, 76, 127
2, 44760, Note_off_c, 1, 53, 0
2, 44760, Note_off_c, 1, 76, 0
2, 44800, Note_on_c, 1, 50, 127
2, 44800, Note_on_c, 1, 69, 127
2, 44880, Note_off_c, 1, 50, 0
2, 44880, Note_off_c, 1, 69, 0
2, 44920, Note_on_c, 1, 50, 127
2, 44920, Note_on_c, 1, 65, 127
2, 45000, Note_off_c, 1, 50, 0
2, 45000, Note_off_c, 1, 65, 0
2, 45080, Note_on_c, 1, 50, 127
2, 45080, Note_on_c, 1, 69, 127
2, 45120, Note_off_c, 1, 50, 0
2, 45120, Note_off_c, 1, 69, 0
2, 45120, Note_on_c, 1, 74, 127
2, 45160, Note_on_c, 1, 52, 127
2, 45160, Note_on_c, 1, 72, 127
2, 45160, Note_off_c, 1, 74, 0
2, 45200, Note_off_c, 1, 52, 0
2, 45200, Note_off_c, 1, 72, 0
2, 45240, Note_on_c, 1, 50, 127
2, 45240, Note_on_c, 1, 73, 127
2, 45320, Note_off_c, 1, 50, 0
2, 45320, Note_off_c, 1, 73, 0
2, 45360, Note_on_c, 1, 73, 127
2, 45400, Note_on_c, 1, 68, 127
2, 45400, Note_off_c, 1, 73, 0
2, 45440, Note_off_c, 1, 68, 0
2, 45480, Note_on_c, 1, 48, 127
2, 45480, Note_on_c, 1, 66, 127
2, 45560, Note_off_c, 1, 48, 0
2, 45560, Note_off_c, 1, 66, 0
2, 45640, Note_on_c, 1, 44, 127
2, 45640, Note_on_c, 1, 69, 127
2, 45680, Note_off_c, 1, 44, 0
2, 45680, Note_on_c, 1, 51, 127
2, 45680, Note_on_c, 1, 68, 127
2, 45680, Note_off_c, 1, 69, 0
2, 45800, Note_off_c, 1, 51, 0
2, 45800, Note_off_c, 1, 68, 0
2, 45840, Note_on_c, 1, 52, 127
2, 45840, Note_on_c, 1, 69, 127
2, 45880, Note_on_c, 1, 47, 127
2, 45880, Note_off_c, 1, 52, 0
2, 45920, Note_off_c, 1, 47, 0
2, 45920, Note_off_c, 1, 69, 0
2, 45960, Note_on_c, 1, 51, 127
2, 45960, Note_on_c, 1, 73, 127
2, 46000, Note_off_c, 1, 51, 0
2, 46000, Note_on_c, 1, 54, 127
2, 46080, Note_off_c, 1, 54, 0
2, 46080, Note_off_c, 1, 73, 0
2, 46120, Note_on_c, 1, 50, 127
2, 46120, Note_on_c, 1, 72, 127
2, 46160, Note_off_c, 1, 50, 0
2, 46160, Note_on_c, 1, 52, 127
2, 46160, Note_off_c, 1, 72, 0
2, 46200, Note_off_c, 1, 52, 0
2, 46240, Note_on_c, 1, 52, 127
2, 46240, Note_on_c, 1, 67, 127
2, 46280, Note_off_c, 1, 52, 0
2, 46280, Note_off_c, 1, 67, 0
2, 46320, Note_on_c, 1, 48, 127
2, 46320, Note_on_c, 1, 64, 127
2, 46360, Note_off_c, 1, 48, 0
2, 46360, Note_off_c, 1, 64, 0
2, 46400, Note_on_c, 1, 43, 127
2, 46400, Note_on_c, 1, 64, 127
2, 46480, Note_off_c, 1, 43, 0
2, 46480, Note_off_c, 1, 64, 0
2, 46520, Note_on_c, 1, 58, 127
2, 46520, Note_on_c, 1, 72, 127
2, 46560, Note_off_c, 1, 72, 0
2, 46600, Note_on_c, 1, 73, 127
2, 46640, Note_off_c, 1, 58, 0
2, 46640, Note_on_c, 1, 59, 127
2, 46680, Note_off_c, 1, 59, 0
2, 46680, Note_off_c, 1, 73, 0
2, 46720, Note_on_c, 1, 57, 127
2, 46720, Note_on_c, 1, 73, 127
2, 46840, Note_off_c, 1, 57, 0
2, 46840, Note_off_c, 1, 73, 0
2, 46880, Note_on_c, 1, 57, 127
2, 46880, Note_on_c, 1, 74, 127
2, 46920, Note_off_c, 1, 74, 0
2, 46960, Note_on_c, 1, 76, 127
2, 47000, Note_off_c, 1, 57, 0
2, 47000, Note_off_c, 1, 76, 0
2, 47040, Note_on_c, 1, 56, 127
2, 47040, Note_on_c, 1, 62, 127
2, 47040, Note_on_c, 1, 76, 127
2, 47080, Note_off_c, 1, 56, 0
2, 47080, Note_on_c, 1, 57, 127
2, 47080, Note_off_c, 1, 62, 0
2, 47080, Note_on_c, 1, 63, 127
2, 47080, Note_off_c, 1, 76, 0
2, 47120, Note_off_c, 1, 63, 0
2, 47120, Note_on_c, 1, 66, 127
2, 47160, Note_off_c, 1, 66, 0
2, 47200, Note_on_c, 1, 66, 127
2, 47360, Note_off_c, 1, 57, 0
2, 47360, Note_on_c, 1, 61, 127
2, 47400, Note_on_c, 1, 59, 127
2, 47400, Note_off_c, 1, 61, 0
2, 47400, Note_off_c, 1, 66, 0
2, 47440, Note_on_c, 1, 69, 127
2, 47480, Note_on_c, 1, 67, 127
2, 47480, Note_off_c, 1, 69, 0
2, 47520, Note_off_c, 1, 67, 0
2, 47640, Note_on_c, 1, 45, 127
2, 47640, Note_on_c, 1, 64, 127
2, 47720, Note_off_c, 1, 45, 0
2, 47720, Note_off_c, 1, 59, 0
2, 47720, Note_off_c, 1, 64, 0
2, 47760, Note_on_c, 1, 54, 127
2, 47760, Note_on_c, 1, 66, 127
2, 47880, Note_off_c, 1, 54, 0
2, 47880, Note_on_c, 1, 56, 127
2, 47920, Note_on_c, 1, 54, 127
2, 47920, Note_off_c, 1, 56, 0
2, 48000, Note_off_c, 1, 54, 0
2, 48000, Note_off_c, 1, 66, 0
2, 48040, Note_on_c, 1, 55, 127
2, 48040, Note_on_c, 1, 73, 127
2, 48160, Note_off_c, 1, 55, 0
2, 48160, Note_on_c, 1, 58, 127
2, 48200, Note_off_c, 1, 58, 0
2, 48200, Note_off_c, 1, 73, 0
2, 48240, Note_on_c, 1, 59, 127
2, 48240, Note_on_c, 1, 74, 127
2, 48320, Note_off_c, 1, 59, 0
2, 48320, Note_off_c, 1, 74, 0
2, 48360, Note_on_c, 1, 50, 127
2, 48360, Note_on_c, 1, 70, 127
2, 48440, Note_off_c, 1, 50, 0
2, 48440, Note_off_c, 1, 70, 0
2, 48480, Note_on_c, 1, 52, 127
2, 48480, Note_on_c, 1, 70, 127
2, 48600, Note_off_c, 1, 52, 0
2, 48600, Note_off_c, 1, 70, 0
2, 48640, Note_on_c, 1, 49, 127
2, 48640, Note_on_c, 1, 64, 127
2, 48760, Note_off_c, 1, 49, 0
2, 48760, Note_on_c, 1, 59, 127
2, 48760, Note_off_c, 1, 64, 0
2, 48800, Note_on_c, 1, 47, 127
2, 48800, Note_on_c, 1, 57, 127
2, 48800, Note_off_c, 1, 59, 0
2, 48880, Note_off_c, 1, 57, 0
2, 48920, Note_off_c, 1, 47, 0
2, 48920, Note_on_c, 1, 52, 127
2, 48920, Note_on_c, 1, 54, 127
2, 48960, Note_off_c, 1, 52, 0
2, 49040, Note_on_c, 1, 68, 127
2, 49120, Note_off_c, 1, 54, 0
2, 49120, Note_off_c, 1, 68, 0
2, 49160, Note_on_c, 1, 52, 127
2, 49160, Note_on_c, 1, 68, 127
2, 49240, Note_off_c, 1, 68, 0
2, 49280, Note_off_c, 1, 52, 0
2, 49320, Note_on_c, 1, 59, 127
2, 49320, Note_on_c, 1, 71, 127
2, 49440, Note_off_c, 1, 59, 0
2, 49440, Note_off_c, 1, 71, 0
2, 49480, Note_on_c, 1, 57, 127
2, 49480, Note_on_c, 1, 71, 127
2, 49560, Note_off_c, 1, 57, 0
2, 49560, Note_off_c, 1, 71, 0
2, 49600, Note_on_c, 1, 57, 127
2, 49600, Note_on_c, 1, 64, 127
2, 49720, Note_off_c, 1, 57, 0
2, 49720, Note_off_c, 1, 64, 0
2, 49760, Note_on_c, 1, 60, 127
2, 49760, Note_on_c, 1, 72, 127
2, 49840, Note_off_c, 1, 60, 0
2, 49880, Note_off_c, 1, 72, 0
2, 49920, Note_on_c, 1, 50, 127
2, 49920, Note_on_c, 1, 73, 127
2, 49960, Note_off_c, 1, 50, 0
2, 49960, Note_on_c, 1, 52, 127
2, 50000, Note_off_c, 1, 52, 0
2, 50000, Note_off_c, 1, 73, 0
2, 50040, Note_on_c, 1, 50, 127
2, 50040, Note_on_c, 1, 71, 127
2, 50080, Note_off_c, 1, 50, 0
2, 50080, Note_on_c, 1, 52, 127
2, 50120, Note_off_c, 1, 52, 0
2, 50120, Note_on_c, 1, 54, 127
2, 50120, Note_off_c, 1, 71, 0
2, 50160, Note_on_c, 1, 67, 127
2, 50240, Note_off_c, 1, 54, 0
2, 50240, Note_off_c, 1, 67, 0
2, 50280, Note_on_c, 1, 50, 127
2, 50280, Note_on_c, 1, 67, 127
2, 50360, Note_off_c, 1, 50, 0
2, 50440, Note_on_c, 1, 57, 127
2, 50520, Note_off_c, 1, 57, 0
2, 50520, Note_off_c, 1, 67, 0
2, 50600, Note_on_c, 1, 61, 127
2, 50600, Note_on_c, 1, 67, 127
2, 50640, Note_off_c, 1, 61, 0
2, 50640, Note_on_c, 1, 66, 127
2, 50640, Note_off_c, 1, 67, 0
2, 50680, Note_off_c, 1, 66, 0
2, 50680, Note_on_c, 1, 67, 127
2, 50720, Note_off_c, 1, 67, 0
2, 50760, Note_on_c, 1, 64, 127
2, 50880, Note_off_c, 1, 64, 0
2, 50920, Note_on_c, 1, 59, 127
2, 50960, Note_off_c, 1, 59, 0
2, 51000, Note_on_c, 1, 59, 127
2, 51080, Note_off_c, 1, 59, 0
2, 51120, Note_on_c, 1, 59, 127
2, 51280, Note_off_c, 1, 59, 0
2, 51320, Note_on_c, 1, 58, 127
2, 51360, Note_on_c, 1, 57, 127
2, 51360, Note_off_c, 1, 58, 0
2, 51400, Note_off_c, 1, 57, 0
2, 51480, Note_on_c, 1, 52, 127
2, 51520, Note_on_c, 1, 51, 127
2, 51520, Note_off_c, 1, 52, 0
2, 51560, Note_off_c, 1, 51, 0
2, 51600, Note_on_c, 1, 52, 127
2, 51800, Note_off_c, 1, 52, 0
2, 51840, Note_on_c, 1, 52, 127
2, 51960, Note_off_c, 1, 52, 0
2, 51960, Note_on_c, 1, 54, 127
2, 52040, Note_off_c, 1, 54, 0
2, 52080, Note_on_c, 1, 54, 127
2, 52240, Note_off_c, 1, 54, 0
2, 52240, Note_on_c, 1, 57, 127
2, 52280, Note_off_c, 1, 57, 0
2, 52320, Note_on_c, 1, 55, 127
2, 52400, Note_off_c, 1, 55, 0
2, 52440, Note_on_c, 1, 59, 127
2, 52480, Note_on_c, 1, 57, 127
2, 52480, Note_off_c, 1, 59, 0
2, 52520, Note_off_c, 1, 57, 0
2, 52560, Note_on_c, 1, 63, 127
2, 52600, Note_off_c, 1, 63, 0
2, 52600, Note_on_c, 1, 64, 127
2, 52640, Note_off_c, 1, 64, 0
2, 52680, Note_on_c, 1, 67, 127
2, 52720, Note_off_c, 1, 67, 0
2, 52760, Note_on_c, 1, 61, 127
2, 52800, Note_off_c, 1, 61, 0
2, 52840, Note_on_c, 1, 58, 127
2, 52880, Note_off_c, 1, 58, 0
2, 52920, Note_on_c, 1, 58, 127
2, 52960, Note_off_c, 1, 58, 0
2, 53000, Note_on_c, 1, 58, 127
2, 53160, Note_off_c, 1, 58, 0
2, 53200, Note_on_c, 1, 58, 127
2, 53360, Note_on_c, 1, 57, 127
2, 53360, Note_off_c, 1, 58, 0
2, 53360, Note_on_c, 1, 61, 127
2, 53400, Note_on_c, 1, 55, 127
2, 53400, Note_off_c, 1, 57, 0
2, 53440, Note_off_c, 1, 55, 0
2, 53440, Note_off_c, 1, 61, 0
2, 53480, Note_on_c, 1, 48, 127
2, 53480, Note_on_c, 1, 70, 127
2, 53520, Note_off_c, 1, 70, 0
2, 53560, Note_off_c, 1, 48, 0
2, 53600, Note_on_c, 1, 50, 127
2, 53600, Note_on_c, 1, 71, 127
2, 53640, Note_on_c, 1, 68, 127
2, 53640, Note_off_c, 1, 71, 0
2, 53680, Note_off_c, 1, 50, 0
2, 53680, Note_off_c, 1, 68, 0
2, 53680, Note_on_c, 1, 71, 127
2, 53720, Note_off_c, 1, 71, 0
2, 53720, Note_on_c, 1, 73, 127
2, 53760, Note_on_c, 1, 52, 127
2, 53760, Note_on_c, 1, 71, 127
2, 53760, Note_off_c, 1, 73, 0
2, 53840, Note_off_c, 1, 52, 0
2, 53960, Note_on_c, 1, 54, 127
2, 54040, Note_off_c, 1, 54, 0
2, 54040, Note_off_c, 1, 71, 0
2, 54080, Note_on_c, 1, 57, 127
2, 54080, Note_on_c, 1, 71, 127
2, 54120, Note_off_c, 1, 71, 0
2, 54120, Note_on_c, 1, 73, 127
2, 54160, Note_off_c, 1, 57, 0
2, 54160, Note_off_c, 1, 73, 0
2, 54200, Note_on_c, 1, 54, 127
2, 54200, Note_on_c, 1, 74, 127
2, 54280, Note_off_c, 1, 74, 0
2, 54320, Note_on_c, 1, 78, 127
2, 54400, Note_off_c, 1, 54, 0
2, 54400, Note_off_c, 1, 78, 0
2, 54480, Note_on_c, 1, 50, 127
2, 54480, Note_on_c, 1, 73, 127
2, 54560, Note_off_c, 1, 50, 0
2, 54600, Note_off_c, 1, 73, 0
2, 54680, Note_on_c, 1, 75, 127
2, 54720, Note_off_c, 1, 75, 0
2, 54720, Note_on_c, 1, 76, 127
2, 54760, Note_on_c, 1, 75, 127
2, 54760, Note_off_c, 1, 76, 0
2, 54800, Note_off_c, 1, 75, 0
2, 54840, Note_on_c, 1, 40, 127
2, 54840, Note_on_c, 1, 79, 127
2, 54920, Note_off_c, 1, 40, 0
2, 54920, Note_off_c, 1, 79, 0
2, 55000, Note_on_c, 1, 56, 127
2, 55000, Note_on_c, 1, 74, 127
2, 55080, Note_off_c, 1, 56, 0
2, 55080, Note_on_c, 1, 59, 127
2, 55120, Note_off_c, 1, 59, 0
2, 55120, Note_off_c, 1, 74, 0
2, 55160, Note_on_c, 1, 76, 127
2, 55240, Note_off_c, 1, 76, 0
2, 55320, Note_on_c, 1, 55, 127
2, 55400, Note_off_c, 1, 55, 0
2, 55440, Note_on_c, 1, 54, 127
2, 55440, Note_on_c, 1, 70, 127
2, 55520, Note_off_c, 1, 54, 0
2, 55520, Note_off_c, 1, 70, 0
2, 55560, Note_on_c, 1, 53, 127
2, 55560, Note_on_c, 1, 70, 127
2, 55640, Note_off_c, 1, 53, 0
2, 55640, Note_off_c, 1, 70, 0
2, 55720, Note_on_c, 1, 55, 127
2, 55720, Note_on_c, 1, 68, 127
2, 55800, Note_off_c, 1, 55, 0
2, 55800, Note_off_c, 1, 68, 0
2, 55840, Note_on_c, 1, 51, 127
2, 55840, Note_on_c, 1, 67, 127
2, 55880, Note_off_c, 1, 51, 0
2, 55880, Note_on_c, 1, 54, 127
2, 55960, Note_on_c, 1, 52, 127
2, 55960, Note_off_c, 1, 54, 0
2, 55960, Note_off_c, 1, 67, 0
2, 56000, Note_off_c, 1, 52, 0
2, 56040, Note_on_c, 1, 52, 127
2, 56040, Note_on_c, 1, 66, 127
2, 56120, Note_off_c, 1, 66, 0
2, 56160, Note_on_c, 1, 66, 127
2, 56280, Note_off_c, 1, 52, 0
2, 56280, Note_off_c, 1, 66, 0
2, 56320, Note_on_c, 1, 54, 127
2, 56320, Note_on_c, 1, 66, 127
2, 56440, Note_off_c, 1, 54, 0
2, 56440, Note_off_c, 1, 66, 0
2, 56480, Note_on_c, 1, 54, 127
2, 56480, Note_on_c, 1, 71, 127
2, 56560, Note_off_c, 1, 54, 0
2, 56600, Note_off_c, 1, 71, 0
2, 56680, Note_on_c, 1, 51, 127
2, 56680, Note_on_c, 1, 67, 127
2, 56720, Note_off_c, 1, 51, 0
2, 56720, Note_on_c, 1, 54, 127
2, 56720, Note_off_c, 1, 67, 0
2, 56720, Note_on_c, 1, 69, 127
2, 56760, Note_off_c, 1, 54, 0
2, 56760, Note_off_c, 1, 69, 0
2, 56800, Note_on_c, 1, 51, 127
2, 56800, Note_on_c, 1, 70, 127
2, 56840, Note_off_c, 1, 51, 0
2, 56840, Note_on_c, 1, 54, 127
2, 56880, Note_off_c, 1, 54, 0
2, 56920, Note_off_c, 1, 70, 0
2, 56960, Note_on_c, 1, 44, 127
2, 56960, Note_on_c, 1, 72, 127
2, 57040, Note_off_c, 1, 72, 0
2, 57080, Note_on_c, 1, 73, 127
2, 57160, Note_off_c, 1, 44, 0
2, 57160, Note_off_c, 1, 73, 0
2, 57200, Note_on_c, 1, 56, 127
2, 57200, Note_on_c, 1, 73, 127
2, 57280, Note_off_c, 1, 56, 0
2, 57280, Note_off_c, 1, 73, 0
2, 57280, Note_on_c, 1, 75, 127
2, 57320, Note_on_c, 1, 57, 127
2, 57320, Note_on_c, 1, 73, 127
2, 57320, Note_off_c, 1, 75, 0
2, 57360, Note_on_c, 1, 56, 127
2, 57360, Note_off_c, 1, 57, 0
2, 57440, Note_off_c, 1, 56, 0
2, 57440, Note_off_c, 1, 73, 0
2, 57480, Note_on_c, 1, 64, 127
2, 57480, Note_on_c, 1, 71, 127
2, 57560, Note_off_c, 1, 71, 0
2, 57600, Note_on_c, 1, 66, 127
2, 57760, Note_off_c, 1, 64, 0
2, 57760, Note_off_c, 1, 66, 0
2, 57760, Note_on_c, 1, 67, 127
2, 57800, Note_on_c, 1, 52, 127
2, 57840, Note_off_c, 1, 52, 0
2, 57840, Note_off_c, 1, 67, 0
2, 57880, Note_on_c, 1, 58, 127
2, 57880, Note_on_c, 1, 73, 127
2, 58000, Note_off_c, 1, 58, 0
2, 58000, Note_off_c, 1, 73, 0
2, 58040, Note_on_c, 1, 65, 127
2, 58040, Note_on_c, 1, 75, 127
2, 58080, Note_off_c, 1, 75, 0
2, 58120, Note_on_c, 1, 76, 127
2, 58160, Note_off_c, 1, 65, 0
2, 58160, Note_off_c, 1, 76, 0
2, 58200, Note_on_c, 1, 57, 127
2, 58200, Note_on_c, 1, 75, 127
2, 58240, Note_off_c, 1, 75, 0
2, 58280, Note_on_c, 1, 75, 127
2, 58320, Note_off_c, 1, 75, 0
2, 58360, Note_on_c, 1, 73, 127
2, 58400, Note_on_c, 1, 55, 127
2, 58400, Note_off_c, 1, 57, 0
2, 58440, Note_off_c, 1, 55, 0
2, 58480, Note_on_c, 1, 55, 127
2, 58560, Note_off_c, 1, 55, 0
2, 58560, Note_off_c, 1, 73, 0
2, 58600, Note_on_c, 1, 57, 127
2, 58680, Note_on_c, 1, 65, 127
2, 58720, Note_off_c, 1, 65, 0
2, 59000, Note_off_c, 1, 57, 0
2, 59000, Note_on_c, 1, 59, 127
2, 59080, Note_off_c, 1, 59, 0
2, 59080, Note_on_c, 1, 63, 127
2, 59120, Note_on_c, 1, 59, 127
2, 59160, Note_off_c, 1, 59, 0
2, 59160, Note_off_c, 1, 63, 0
2, 59200, Note_on_c, 1, 59, 127
2, 59200, Note_on_c, 1, 71, 127
2, 59320, Note_off_c, 1, 59, 0
2, 59320, Note_off_c, 1, 71, 0
2, 59400, Note_on_c, 1, 57, 127
2, 59400, Note_on_c, 1, 78, 127
2, 59520, Note_off_c, 1, 57, 0
2, 59520, Note_off_c, 1, 78, 0
2, 59560, Note_on_c, 1, 56, 127
2, 59560, Note_on_c, 1, 75, 127
2, 59600, Note_off_c, 1, 56, 0
2, 59600, Note_on_c, 1, 59, 127
2, 59640, Note_on_c, 1, 56, 127
2, 59640, Note_off_c, 1, 59, 0
2, 59680, Note_off_c, 1, 56, 0
2, 59680, Note_off_c, 1, 75, 0
2, 59720, Note_on_c, 1, 54, 127
2, 59720, Note_on_c, 1, 76, 127
2, 59760, Note_on_c, 1, 51, 127
2, 59760, Note_off_c, 1, 54, 0
2, 59800, Note_off_c, 1, 51, 0
2, 59800, Note_off_c, 1, 76, 0
2, 59840, Note_on_c, 1, 57, 127
2, 59840, Note_on_c, 1, 71, 127
2, 59880, Note_on_c, 1, 55, 127
2, 59880, Note_off_c, 1, 57, 0
2, 59880, Note_off_c, 1, 71, 0
2, 59880, Note_on_c, 1, 73, 127
2, 59920, Note_off_c, 1, 55, 0
2, 59920, Note_off_c, 1, 73, 0
2, 59960, Note_on_c, 1, 57, 127
2, 59960, Note_on_c, 1, 71, 127
2, 60000, Note_off_c, 1, 71, 0
2, 60000, Note_on_c, 1, 76, 127
2, 60040, Note_off_c, 1, 76, 0
2, 60080, Note_on_c, 1, 76, 127
2, 60200, Note_off_c, 1, 57, 0
2, 60200, Note_off_c, 1, 76, 0
2, 60240, Note_on_c, 1, 61, 127
2, 60240, Note_on_c, 1, 79, 127
2, 60280, Note_on_c, 1, 60, 127
2, 60280, Note_off_c, 1, 61, 0
2, 60280, Note_off_c, 1, 79, 0
2, 60280, Note_on_c, 1, 81, 127
2, 60320, Note_off_c, 1, 60, 0
2, 60320, Note_on_c, 1, 61, 127
2, 60320, Note_off_c, 1, 81, 0
2, 60360, Note_on_c, 1, 78, 127
2, 60400, Note_on_c, 1, 76, 127
2, 60400, Note_off_c, 1, 78, 0
2, 60440, Note_off_c, 1, 61, 0
2, 60440, Note_off_c, 1, 76, 0
2, 60480, Note_on_c, 1, 60, 127
2, 60480, Note_on_c, 1, 74, 127
2, 60560, Note_off_c, 1, 74, 0
2, 60600, Note_on_c, 1, 78, 127
2, 60680, Note_off_c, 1, 60, 0
2, 60680, Note_off_c, 1, 78, 0
2, 60680, Note_on_c, 1, 80, 127
2, 60720, Note_on_c, 1, 58, 127
2, 60720, Note_on_c, 1, 78, 127
2, 60720, Note_off_c, 1, 80, 0
2, 60800, Note_off_c, 1, 58, 0
2, 60800, Note_off_c, 1, 78, 0
2, 60840, Note_on_c, 1, 59, 127
2, 60840, Note_on_c, 1, 75, 127
2, 60920, Note_off_c, 1, 75, 0
2, 60960, Note_off_c, 1, 59, 0
2, 60960, Note_on_c, 1, 61, 127
2, 60960, Note_on_c, 1, 73, 127
2, 61040, Note_off_c, 1, 61, 0
2, 61040, Note_off_c, 1, 73, 0
2, 61080, Note_on_c, 1, 59, 127
2, 61080, Note_on_c, 1, 75, 127
2, 61160, Note_off_c, 1, 75, 0
2, 61240, Note_on_c, 1, 76, 127
2, 61280, Note_off_c, 1, 76, 0
2, 61320, Note_on_c, 1, 71, 127
2, 61400, Note_off_c, 1, 59, 0
2, 61400, Note_off_c, 1, 71, 0
2, 61440, Note_on_c, 1, 59, 127
2, 61560, Note_off_c, 1, 59, 0
2, 61600, Note_on_c, 1, 59, 127
2, 61600, Note_on_c, 1, 72, 127
2, 61640, Note_on_c, 1, 71, 127
2, 61640, Note_off_c, 1, 72, 0
2, 61680, Note_off_c, 1, 71, 0
2, 61720, Note_on_c, 1, 73, 127
2, 61800, Note_off_c, 1, 73, 0
2, 61880, Note_on_c, 1, 76, 127
2, 62000, Note_off_c, 1, 59, 0
2, 62000, Note_off_c, 1, 76, 0
2, 62040, Note_on_c, 1, 57, 127
2, 62040, Note_on_c, 1, 76, 127
2, 62120, Note_off_c, 1, 76, 0
2, 62160, Note_on_c, 1, 74, 127
2, 62240, Note_off_c, 1, 57, 0
2, 62240, Note_off_c, 1, 74, 0
2, 62280, Note_on_c, 1, 46, 127
2, 62280, Note_on_c, 1, 76, 127
2, 62320, Note_off_c, 1, 46, 0
2, 62320, Note_on_c, 1, 48, 127
2, 62360, Note_on_c, 1, 47, 127
2, 62360, Note_off_c, 1, 48, 0
2, 62400, Note_off_c, 1, 47, 0
2, 62400, Note_off_c, 1, 76, 0
2, 62440, Note_on_c, 1, 52, 127
2, 62440, Note_on_c, 1, 74, 127
2, 62520, Note_off_c, 1, 52, 0
2, 62520, Note_on_c, 1, 54, 127
2, 62560, Note_off_c, 1, 54, 0
2, 62560, Note_off_c, 1, 74, 0
2, 62600, Note_on_c, 1, 42, 127
2, 62600, Note_on_c, 1, 76, 127
2, 62640, Note_off_c, 1, 42, 0
2, 62640, Note_on_c, 1, 44, 127
2, 62680, Note_off_c, 1, 44, 0
2, 62680, Note_off_c, 1, 76, 0
2, 62720, Note_on_c, 1, 52, 127
2, 62720, Note_on_c, 1, 77, 127
2, 62760, Note_off_c, 1, 77, 0
2, 62840, Note_off_c, 1, 52, 0
2, 62880, Note_on_c, 1, 53, 127
2, 62880, Note_on_c, 1, 76, 127
2, 62960, Note_off_c, 1, 53, 0
2, 63000, Note_off_c, 1, 76, 0
2, 63040, Note_on_c, 1, 55, 127
2, 63040, Note_on_c, 1, 79, 127
2, 63120, Note_off_c, 1, 55, 0
2, 63120, Note_off_c, 1, 79, 0
2, 63160, Note_on_c, 1, 52, 127
2, 63160, Note_on_c, 1, 79, 127
2, 63240, Note_off_c, 1, 79, 0
2, 63280, Note_on_c, 1, 79, 127
2, 63320, Note_off_c, 1, 79, 0
2, 63360, Note_on_c, 1, 78, 127
2, 63400, Note_off_c, 1, 78, 0
2, 63440, Note_off_c, 1, 52, 0
2, 63480, Note_on_c, 1, 52, 127
2, 63480, Note_on_c, 1, 76, 127
2, 63600, Note_off_c, 1, 76, 0
2, 63640, Note_on_c, 1, 76, 127
2, 63760, Note_off_c, 1, 52, 0
2, 63760, Note_off_c, 1, 76, 0
2, 63800, Note_on_c, 1, 56, 127
2, 63880, Note_on_c, 1, 54, 127
2, 63880, Note_off_c, 1, 56, 0
2, 63960, Note_off_c, 1, 54, 0
2, 64000, Note_on_c, 1, 52, 127
2, 64000, Note_on_c, 1, 64, 127
2, 64080, Note_off_c, 1, 64, 0
2, 64120, Note_on_c, 1, 69, 127
2, 64240, Note_off_c, 1, 52, 0
2, 64240, Note_off_c, 1, 69, 0
2, 64280, Note_on_c, 1, 64, 127
2, 64280, Note_on_c, 1, 76, 127
2, 64320, Note_off_c, 1, 64, 0
2, 64320, Note_off_c, 1, 76, 0
2, 64360, Note_on_c, 1, 47, 127
2, 64360, Note_on_c, 1, 70, 127
2, 64400, Note_off_c, 1, 47, 0
2, 64400, Note_on_c, 1, 49, 127
2, 64440, Note_off_c, 1, 49, 0
2, 64440, Note_off_c, 1, 70, 0
2, 64480, Note_on_c, 1, 50, 127
2, 64480, Note_on_c, 1, 61, 127
2, 64560, Note_off_c, 1, 50, 0
2, 64560, Note_on_c, 1, 52, 127
2, 64560, Note_on_c, 1, 59, 127
2, 64560, Note_off_c, 1, 61, 0
2, 64600, Note_off_c, 1, 52, 0
2, 64600, Note_on_c, 1, 54, 127
2, 64600, Note_off_c, 1, 59, 0
2, 64640, Note_on_c, 1, 52, 127
2, 64640, Note_off_c, 1, 54, 0
2, 64640, Note_on_c, 1, 59, 127
2, 64680, Note_off_c, 1, 52, 0
2, 64680, Note_on_c, 1, 54, 127
2, 64680, Note_off_c, 1, 59, 0
2, 64680, Note_on_c, 1, 61, 127
2, 64800, Note_on_c, 1, 52, 127
2, 64800, Note_off_c, 1, 54, 0
2, 64800, Note_off_c, 1, 61, 0
2, 64960, Note_off_c, 1, 52, 0
2, 65000, Note_on_c, 1, 54, 127
2, 65000, Note_on_c, 1, 71, 127
2, 65080, Note_off_c, 1, 71, 0
2, 65480, Note_off_c, 1, 54, 0
2, 65480, Note_on_c, 1, 56, 127
2, 65520, Note_on_c, 1, 54, 127
2, 65520, Note_off_c, 1, 56, 0
2, 66120, Note_on_c, 1, 63, 127
2, 66200, Note_off_c, 1, 63, 0
2, 66240, Note_on_c, 1, 66, 127
2, 66360, Note_off_c, 1, 54, 0
2, 66400, Note_on_c, 1, 56, 127
2, 66680, Note_off_c, 1, 56, 0
2, 66680, Note_off_c, 1, 66, 0
2, 66720, Note_on_c, 1, 57, 127
2, 66720, Note_on_c, 1, 70, 127
2, 66800, Note_on_c, 1, 55, 127
2, 66800, Note_off_c, 1, 57, 0
2, 66840, Note_off_c, 1, 55, 0
2, 66840, Note_on_c, 1, 57, 127
2, 66880, Note_off_c, 1, 57, 0
2, 66920, Note_on_c, 1, 56, 127
2, 66920, Note_off_c, 1, 70, 0
2, 66920, Note_on_c, 1, 72, 127
2, 66960, Note_off_c, 1, 56, 0
2, 66960, Note_off_c, 1, 72, 0
2, 67000, Note_on_c, 1, 53, 127
2, 67000, Note_on_c, 1, 73, 127
2, 67040, Note_off_c, 1, 53, 0
2, 67080, Note_on_c, 1, 53, 127
2, 67120, Note_off_c, 1, 53, 0
2, 67160, Note_on_c, 1, 56, 127
2, 67320, Note_off_c, 1, 56, 0
2, 67320, Note_off_c, 1, 73, 0
2, 67360, Note_on_c, 1, 54, 127
2, 67360, Note_on_c, 1, 72, 127
2, 67520, Note_on_c, 1, 52, 127
2, 67520, Note_off_c, 1, 54, 0
2, 67560, Note_off_c, 1, 52, 0
2, 67560, Note_on_c, 1, 54, 127
2, 67560, Note_off_c, 1, 72, 0
2, 67600, Note_on_c, 1, 70, 127
2, 67720, Note_off_c, 1, 70, 0
2, 67760, Note_on_c, 1, 73, 127
2, 67840, Note_off_c, 1, 54, 0
2, 67880, Note_on_c, 1, 56, 127
2, 67960, Note_off_c, 1, 56, 0
2, 68000, Note_on_c, 1, 54, 127
2, 68080, Note_off_c, 1, 54, 0
2, 68080, Note_off_c, 1, 73, 0
2, 68160, Note_on_c, 1, 52, 127
2, 68160, Note_on_c, 1, 76, 127
2, 68280, Note_off_c, 1, 52, 0
2, 68280, Note_off_c, 1, 76, 0
2, 68360, Note_on_c, 1, 57, 127
2, 68360, Note_on_c, 1, 76, 127
2, 68440, Note_off_c, 1, 57, 0
2, 68440, Note_off_c, 1, 76, 0
2, 68480, Note_on_c, 1, 57, 127
2, 68480, Note_on_c, 1, 73, 127
2, 68640, Note_off_c, 1, 57, 0
2, 68640, Note_off_c, 1, 73, 0
2, 68680, Note_on_c, 1, 56, 127
2, 68680, Note_on_c, 1, 73, 127
2, 68760, Note_off_c, 1, 56, 0
2, 68840, Note_on_c, 1, 72, 127
2, 68840, Note_off_c, 1, 73, 0
2, 68840, Note_on_c, 1, 76, 127
2, 68920, Note_on_c, 1, 71, 127
2, 68920, Note_off_c, 1, 72, 0
2, 69000, Note_off_c, 1, 71, 0
2, 69000, Note_on_c, 1, 73, 127
2, 69040, Note_on_c, 1, 71, 127
2, 69040, Note_off_c, 1, 73, 0
2, 69200, Note_off_c, 1, 71, 0
2, 69200, Note_on_c, 1, 73, 127
2, 69240, Note_on_c, 1, 71, 127
2, 69240, Note_off_c, 1, 73, 0
2, 69480, Note_off_c, 1, 71, 0
2, 69520, Note_on_c, 1, 69, 127
2, 69760, Note_off_c, 1, 69, 0
2, 69800, Note_on_c, 1, 68, 127
2, 69880, Note_off_c, 1, 68, 0
2, 69880, Note_off_c, 1, 76, 0
2, 69920, Note_on_c, 1, 67, 127
2, 69920, Note_on_c, 1, 72, 127
2, 69960, Note_on_c, 1, 65, 127
2, 69960, Note_off_c, 1, 67, 0
2, 69960, Note_on_c, 1, 71, 127
2, 69960, Note_off_c, 1, 72, 0
2, 70000, Note_off_c, 1, 71, 0
2, 70040, Note_on_c, 1, 70, 127
2, 70080, Note_off_c, 1, 65, 0
2, 70080, Note_on_c, 1, 66, 127
2, 70120, Note_off_c, 1, 66, 0
2, 70120, Note_on_c, 1, 69, 127
2, 70120, Note_off_c, 1, 70, 0
2, 70120, Note_on_c, 1, 71, 127
2, 70240, Note_off_c, 1, 69, 0
2, 70240, Note_off_c, 1, 71, 0
2, 70280, Note_on_c, 1, 67, 127
2, 70280, Note_on_c, 1, 71, 127
2, 70480, Note_off_c, 1, 71, 0
2, 70520, Note_on_c, 1, 72, 127
2, 70600, Note_off_c, 1, 72, 0
2, 70640, Note_on_c, 1, 71, 127
2, 70720, Note_off_c, 1, 67, 0
2, 70720, Note_off_c, 1, 71, 0
2, 70760, Note_on_c, 1, 70, 127
2, 70760, Note_on_c, 1, 73, 127
2, 70800, Note_on_c, 1, 69, 127
2, 70800, Note_off_c, 1, 70, 0
2, 70920, Note_off_c, 1, 69, 0
2, 71000, Note_on_c, 1, 61, 127
2, 71040, Note_off_c, 1, 73, 0
2, 71080, Note_on_c, 1, 73, 127
2, 71120, Note_off_c, 1, 61, 0
2, 71120, Note_off_c, 1, 73, 0
2, 71160, Note_on_c, 1, 61, 127
2, 71160, Note_on_c, 1, 70, 127
2, 71240, Note_off_c, 1, 70, 0
2, 71280, Note_on_c, 1, 72, 127
2, 71320, Note_off_c, 1, 61, 0
2, 71320, Note_off_c, 1, 72, 0
2, 71400, Note_on_c, 1, 70, 127
2, 71480, Note_on_c, 1, 46, 127
2, 71480, Note_on_c, 1, 73, 127
2, 71520, Note_off_c, 1, 46, 0
2, 71520, Note_off_c, 1, 70, 0
2, 71520, Note_on_c, 1, 71, 127
2, 71560, Note_on_c, 1, 49, 127
2, 71560, Note_on_c, 1, 70, 127
2, 71560, Note_off_c, 1, 71, 0
2, 71600, Note_off_c, 1, 49, 0
2, 71600, Note_off_c, 1, 73, 0
2, 71600, Note_on_c, 1, 75, 127
2, 71640, Note_on_c, 1, 53, 127
2, 71720, Note_off_c, 1, 53, 0
2, 71720, Note_on_c, 1, 78, 127
2, 71760, Note_off_c, 1, 70, 0
2, 71760, Note_off_c, 1, 78, 0
2, 71760, Note_on_c, 1, 81, 127
2, 71800, Note_on_c, 1, 71, 127
2, 71800, Note_off_c, 1, 81, 0
2, 71840, Note_off_c, 1, 71, 0
2, 71840, Note_off_c, 1, 75, 0
2, 71880, Note_on_c, 1, 64, 127
2, 71880, Note_on_c, 1, 71, 127
2, 71960, Note_off_c, 1, 64, 0
2, 71960, Note_off_c, 1, 71, 0
2, 72000, Note_on_c, 1, 64, 127
2, 72000, Note_on_c, 1, 72, 127
2, 72080, Note_off_c, 1, 72, 0
2, 72160, Note_on_c, 1, 73, 127
2, 72240, Note_off_c, 1, 64, 0
2, 72240, Note_off_c, 1, 73, 0
2, 72280, Note_on_c, 1, 62, 127
2, 72280, Note_on_c, 1, 76, 127
2, 72360, Note_off_c, 1, 62, 0
2, 72360, Note_off_c, 1, 76, 0
2, 72360, Note_on_c, 1, 78, 127
2, 72400, Note_on_c, 1, 76, 127
2, 72400, Note_off_c, 1, 78, 0
2, 72440, Note_on_c, 1, 64, 127
2, 72480, Note_off_c, 1, 64, 0
2, 72480, Note_on_c, 1, 66, 127
2, 72560, Note_off_c, 1, 66, 0
2, 72560, Note_off_c, 1, 76, 0
2, 72600, Note_on_c, 1, 64, 127
2, 72600, Note_on_c, 1, 76, 127
2, 72720, Note_on_c, 1, 67, 127
2, 72720, Note_on_c, 1, 75, 127
2, 72720, Note_off_c, 1, 76, 0
2, 72760, Note_off_c, 1, 67, 0
2, 72760, Note_on_c, 1, 68, 127
2, 72760, Note_off_c, 1, 75, 0
2, 72800, Note_on_c, 1, 66, 127
2, 72800, Note_off_c, 1, 68, 0
2, 72800, Note_on_c, 1, 76, 127
2, 72840, Note_off_c, 1, 64, 0
2, 72840, Note_on_c, 1, 73, 127
2, 72840, Note_off_c, 1, 76, 0
2, 72880, Note_off_c, 1, 66, 0
2, 72880, Note_off_c, 1, 73, 0
2, 72920, Note_on_c, 1, 73, 127
2, 72920, Note_on_c, 1, 81, 127
2, 72960, Note_on_c, 1, 68, 127
2, 72960, Note_off_c, 1, 73, 0
2, 72960, Note_on_c, 1, 76, 127
2, 72960, Note_off_c, 1, 81, 0
2, 73000, Note_off_c, 1, 68, 0
2, 73000, Note_off_c, 1, 76, 0
2, 73040, Note_on_c, 1, 69, 127
2, 73040, Note_on_c, 1, 76, 127
2, 73240, Note_off_c, 1, 69, 0
2, 73280, Note_on_c, 1, 62, 127
2, 73400, Note_off_c, 1, 62, 0
2, 73400, Note_off_c, 1, 76, 0
2, 73440, Note_on_c, 1, 71, 127
2, 73440, Note_on_c, 1, 76, 127
2, 73520, Note_off_c, 1, 71, 0
2, 73920, Note_on_c, 1, 65, 127
2, 73920, Note_off_c, 1, 76, 0
2, 73960, Note_on_c, 1, 64, 127
2, 73960, Note_off_c, 1, 65, 0
2, 73960, Note_on_c, 1, 67, 127
2, 74120, Note_off_c, 1, 64, 0
2, 74120, Note_off_c, 1, 67, 0
2, 74160, Note_on_c, 1, 65, 127
2, 74160, Note_on_c, 1, 78, 127
2, 74200, Note_on_c, 1, 76, 127
2, 74200, Note_off_c, 1, 78, 0
2, 74240, Note_off_c, 1, 65, 0
2, 74240, Note_on_c, 1, 66, 127
2, 74240, Note_off_c, 1, 76, 0
2, 74280, Note_on_c, 1, 65, 127
2, 74280, Note_off_c, 1, 66, 0
2, 74280, Note_on_c, 1, 71, 127
2, 74320, Note_off_c, 1, 65, 0
2, 74320, Note_on_c, 1, 66, 127
2, 74320, Note_off_c, 1, 71, 0
2, 74320, Note_on_c, 1, 72, 127
2, 74400, Note_on_c, 1, 64, 127
2, 74400, Note_off_c, 1, 66, 0
2, 74400, Note_on_c, 1, 71, 127
2, 74400, Note_off_c, 1, 72, 0
2, 74440, Note_off_c, 1, 64, 0
2, 74480, Note_on_c, 1, 66, 127
2, 74480, Note_off_c, 1, 71, 0
2, 74480, Note_on_c, 1, 74, 127
2, 74600, Note_off_c, 1, 74, 0
2, 74640, Note_on_c, 1, 65, 127
2, 74640, Note_off_c, 1, 66, 0
2, 74640, Note_on_c, 1, 73, 127
2, 74680, Note_off_c, 1, 65, 0
2, 74680, Note_on_c, 1, 66, 127
2, 74680, Note_off_c, 1, 73, 0
2, 74680, Note_on_c, 1, 75, 127
2, 74720, Note_on_c, 1, 73, 127
2, 74720, Note_off_c, 1, 75, 0
2, 74800, Note_off_c, 1, 66, 0
2, 74840, Note_on_c, 1, 65, 127
2, 74920, Note_on_c, 1, 71, 127
2, 74920, Note_off_c, 1, 73, 0
2, 74960, Note_off_c, 1, 65, 0
2, 74960, Note_on_c, 1, 66, 127
2, 74960, Note_off_c, 1, 71, 0
2, 75000, Note_on_c, 1, 72, 127
2, 75120, Note_off_c, 1, 72, 0
2, 75160, Note_off_c, 1, 66, 0
2, 75160, Note_on_c, 1, 67, 127
2, 75160, Note_on_c, 1, 71, 127
2, 75240, Note_off_c, 1, 71, 0
2, 75280, Note_on_c, 1, 74, 127
2, 75320, Note_off_c, 1, 74, 0
2, 75360, Note_on_c, 1, 71, 127
2, 75400, Note_off_c, 1, 67, 0
2, 75400, Note_off_c, 1, 71, 0
2, 75440, Note_on_c, 1, 71, 127
2, 75520, Note_on_c, 1, 57, 127
2, 75600, Note_off_c, 1, 57, 0
2, 75600, Note_off_c, 1, 71, 0
2, 75640, Note_on_c, 1, 55, 127
2, 75640, Note_on_c, 1, 68, 127
2, 75760, Note_off_c, 1, 68, 0
2, 75800, Note_on_c, 1, 71, 127
2, 75880, Note_off_c, 1, 55, 0
2, 75880, Note_off_c, 1, 71, 0
2, 75920, Note_on_c, 1, 57, 127
2, 75920, Note_on_c, 1, 72, 127
2, 76040, Note_on_c, 1, 71, 127
2, 76040, Note_off_c, 1, 72, 0
2, 76080, Note_off_c, 1, 71, 0
2, 76120, Note_on_c, 1, 72, 127
2, 76200, Note_off_c, 1, 57, 0
2, 76200, Note_off_c, 1, 72, 0
2, 76240, End_track
3, 0, Start_track
3, 0, Title_t, "MIDI"
3, 1536, End_track
0, 0, End_of_file
