0, 0, Header, 1, 3, 384
1, 0, Start_track
1, 0, Time_signature, 4, 2, 24, 8
1, 0, Tempo, 500000
1, 48400, End_track
2, 0, Start_track
2, 0, Text_t, "harpsichord: John Sankey"
2, 0, Title_t, "Track 1"
2, 0, Note_on_c, 1, 38, 127
2, 0, Note_on_c, 1, 58, 127
2, 0, Note_on_c, 1, 65, 127
2, 120, Note_on_c, 1, 50, 127
2, 160, Note_off_c, 1, 38, 0
2, 160, Note_off_c, 1, 50, 0
2, 160, Note_off_c, 1, 58, 0
2, 160, Note_off_c, 1, 65, 0
2, 200, Note_on_c, 1, 50, 127
2, 200, Note_on_c, 1, 51, 127
2, 200, Note_on_c, 1, 57, 127
2, 320, Note_on_c, 1, 60, 127
2, 360, Note_off_c, 1, 51, 0
2, 360, Note_on_c, 1, 54, 127
2, 440, Note_off_c, 1, 50, 0
2, 440, Note_off_c, 1, 54, 0
2, 440, Note_off_c, 1, 57, 0
2, 440, Note_off_c, 1, 60, 0
2, 480, Note_on_c, 1, 55, 127
2, 480, Note_on_c, 1, 58, 127
2, 600, Note_on_c, 1, 60, 127
2, 680, Note_off_c, 1, 55, 0
2, 680, Note_off_c, 1, 58, 0
2, 680, Note_off_c, 1, 60, 0
2, 720, Note_on_c, 1, 43, 127
2, 720, Note_on_c, 1, 57, 127
2, 720, Note_on_c, 1, 62, 127
2, 800, Note_off_c, 1, 62, 0
2, 840, Note_on_c, 1, 60, 127
2, 920, Note_off_c, 1, 43, 0
2, 920, Note_off_c, 1, 60, 0
2, 960, Note_on_c, 1, 55, 127
2, 960, Note_on_c, 1, 70, 127
2, 1080, Note_off_c, 1, 70, 0
2, 1120, Note_on_c, 1, 69, 127
2, 1200, Note_off_c, 1, 55, 0
2, 1200, Note_off_c, 1, 69, 0
2, 1240, Note_on_c, 1, 55, 127
2, 1240, Note_on_c, 1, 75, 127
2, 1320, Note_off_c, 1, 75, 0
2, 1360, Note_on_c, 1, 69, 127
2, 1440, Note_off_c, 1, 69, 0
2, 1480, Note_off_c, 1, 55, 0
2, 1480, Note_off_c, 1, 57, 0
2, 1480, Note_on_c, 1, 67, 127
2, 1520, Note_off_c, 1, 67, 0
2, 1560, Note_on_c, 1, 57, 127
2, 1560, Note_on_c, 1, 60, 127
2, 1560, Note_on_c, 1, 77, 127
2, 1640, Note_off_c, 1, 77, 0
2, 1680, Note_on_c, 1, 79, 127
2, 1880, Note_off_c, 1, 60, 0
2, 1920, Note_on_c, 1, 67, 127
2, 2000, Note_off_c, 1, 67, 0
2, 2040, Note_on_c, 1, 69, 127
2, 2240, Note_off_c, 1, 57, 0
2, 2280, Note_on_c, 1, 55, 127
2, 2400, Note_off_c, 1, 55, 0
2, 2440, Note_on_c, 1, 53, 127
2, 2640, Note_off_c, 1, 53, 0
2, 2680, Note_on_c, 1, 45, 127
2, 2760, Note_off_c, 1, 45, 0
2, 2800, Note_on_c, 1, 43, 127
2, 2880, Note_off_c, 1, 43, 0
2, 2880, Note_off_c, 1, 79, 0
2, 2920, Note_on_c, 1, 41, 127
2, 2920, Note_on_c, 1, 72, 127
2, 2960, Note_off_c, 1, 72, 0
2, 2960, Note_on_c, 1, 77, 127
2, 3000, Note_off_c, 1, 77, 0
2, 3040, Note_on_c, 1, 76, 127
2, 3160, Note_off_c, 1, 41, 0
2, 3160, Note_off_c, 1, 76, 0
2, 3200, Note_on_c, 1, 43, 127
2, 3200, Note_on_c, 1, 79, 127
2, 3280, Note_off_c, 1, 43, 0
2, 3320, Note_on_c, 1, 45, 127
2, 3400, Note_off_c, 1, 45, 0
2, 3400, Note_off_c, 1, 79, 0
2, 3440, Note_on_c, 1, 50, 127
2, 3440, Note_on_c, 1, 78, 127
2, 3560, Note_off_c, 1, 50, 0
2, 3600, Note_on_c, 1, 48, 127
2, 3680, Note_off_c, 1, 48, 0
2, 3720, Note_on_c, 1, 49, 127
2, 3840, Note_off_c, 1, 49, 0
2, 3880, Note_on_c, 1, 49, 127
2, 3960, Note_off_c, 1, 49, 0
2, 3960, Note_off_c, 1, 69, 0
2, 3960, Note_off_c, 1, 78, 0
2, 4000, Note_on_c, 1, 51, 127
2, 4000, Note_on_c, 1, 67, 127
2, 4000, Note_on_c, 1, 78, 127
2, 4240, Note_off_c, 1, 51, 0
2, 4240, Note_off_c, 1, 67, 0
2, 4240, Note_off_c, 1, 78, 0
2, 4280, Note_on_c, 1, 50, 127
2, 4280, Note_on_c, 1, 66, 127
2, 4280, Note_on_c, 1, 74, 127
2, 4360, Note_off_c, 1, 74, 0
2, 4400, Note_off_c, 1, 50, 0
2, 4440, Note_on_c, 1, 52, 127
2, 4440, Note_on_c, 1, 73, 127
2, 4520, Note_off_c, 1, 52, 0
2, 4520, Note_off_c, 1, 73, 0
2, 4560, Note_off_c, 1, 66, 0
2, 4600, Note_on_c, 1, 54, 127
2, 4600, Note_on_c, 1, 69, 127
2, 4600, Note_on_c, 1, 72, 127
2, 4720, Note_off_c, 1, 54, 0
2, 4760, Note_on_c, 1, 54, 127
2, 4880, Note_off_c, 1, 72, 0
2, 4920, Note_on_c, 1, 74, 127
2, 5160, Note_off_c, 1, 54, 0
2, 5160, Note_off_c, 1, 74, 0
2, 5200, Note_on_c, 1, 45, 127
2, 5200, Note_on_c, 1, 72, 127
2, 5480, Note_off_c, 1, 45, 0
2, 5480, Note_off_c, 1, 69, 0
2, 5520, Note_on_c, 1, 43, 127
2, 5520, Note_on_c, 1, 66, 127
2, 5560, Note_off_c, 1, 43, 0
2, 5600, Note_on_c, 1, 45, 127
2, 5640, Note_off_c, 1, 66, 0
2, 5640, Note_off_c, 1, 72, 0
2, 5720, Note_on_c, 1, 62, 127
2, 5720, Note_on_c, 1, 69, 127
2, 5840, Note_off_c, 1, 45, 0
2, 5840, Note_off_c, 1, 69, 0
2, 5880, Note_on_c, 1, 47, 127
2, 5880, Note_on_c, 1, 68, 127
2, 5960, Note_off_c, 1, 62, 0
2, 6000, Note_on_c, 1, 63, 127
2, 6120, Note_on_c, 1, 45, 127
2, 6120, Note_off_c, 1, 47, 0
2, 6120, Note_off_c, 1, 68, 0
2, 6160, Note_off_c, 1, 45, 0
2, 6160, Note_off_c, 1, 63, 0
2, 6200, Note_on_c, 1, 43, 127
2, 6200, Note_on_c, 1, 63, 127
2, 6200, Note_on_c, 1, 71, 127
2, 6320, Note_off_c, 1, 71, 0
2, 6360, Note_on_c, 1, 72, 127
2, 6480, Note_off_c, 1, 43, 0
2, 6520, Note_off_c, 1, 63, 0
2, 6560, Note_on_c, 1, 45, 127
2, 6560, Note_on_c, 1, 64, 127
2, 6680, Note_off_c, 1, 64, 0
2, 6720, Note_on_c, 1, 67, 127
2, 6840, Note_off_c, 1, 45, 0
2, 6840, Note_off_c, 1, 67, 0
2, 6880, Note_on_c, 1, 47, 127
2, 6880, Note_on_c, 1, 66, 127
2, 7040, Note_off_c, 1, 66, 0
2, 7040, Note_on_c, 1, 69, 127
2, 7200, Note_off_c, 1, 47, 0
2, 7200, Note_off_c, 1, 69, 0
2, 7200, Note_off_c, 1, 72, 0
2, 7240, Note_on_c, 1, 67, 127
2, 7240, Note_on_c, 1, 71, 127
2, 7400, Note_on_c, 1, 57, 127
2, 7400, Note_on_c, 1, 76, 127
2, 7520, Note_off_c, 1, 57, 0
2, 7560, Note_on_c, 1, 62, 127
2, 7720, Note_off_c, 1, 62, 0
2, 7720, Note_off_c, 1, 67, 0
2, 7720, Note_off_c, 1, 71, 0
2, 7720, Note_on_c, 1, 72, 127
2, 7760, Note_on_c, 1, 64, 127
2, 7760, Note_on_c, 1, 69, 127
2, 8160, Note_off_c, 1, 64, 0
2, 8160, Note_off_c, 1, 69, 0
2, 8160, Note_off_c, 1, 72, 0
2, 8160, Note_off_c, 1, 76, 0
2, 8200, Note_on_c, 1, 60, 127
2, 8200, Note_on_c, 1, 67, 127
2, 8200, Note_on_c, 1, 69, 127
2, 8200, Note_on_c, 1, 76, 127
2, 8400, Note_off_c, 1, 67, 0
2, 8400, Note_off_c, 1, 69, 0
2, 8400, Note_off_c, 1, 76, 0
2, 8440, Note_on_c, 1, 64, 127
2, 8440, Note_on_c, 1, 74, 127
2, 8520, Note_off_c, 1, 74, 0
2, 8520, Note_on_c, 1, 76, 127
2, 8680, Note_off_c, 1, 60, 0
2, 8680, Note_off_c, 1, 64, 0
2, 8680, Note_off_c, 1, 76, 0
2, 8720, Note_on_c, 1, 66, 127
2, 8800, Note_off_c, 1, 66, 0
2, 8840, Note_on_c, 1, 71, 127
2, 8920, Note_off_c, 1, 71, 0
2, 8960, Note_on_c, 1, 64, 127
2, 9080, Note_on_c, 1, 71, 127
2, 9160, Note_off_c, 1, 64, 0
2, 9200, Note_on_c, 1, 65, 127
2, 9360, Note_on_c, 1, 67, 127
2, 9440, Note_off_c, 1, 65, 0
2, 9440, Note_off_c, 1, 67, 0
2, 9480, Note_on_c, 1, 62, 127
2, 9480, Note_on_c, 1, 65, 127
2, 9560, Note_off_c, 1, 62, 0
2, 9560, Note_off_c, 1, 65, 0
2, 9600, Note_on_c, 1, 64, 127
2, 9680, Note_off_c, 1, 71, 0
2, 9720, Note_off_c, 1, 64, 0
2, 9720, Note_on_c, 1, 69, 127
2, 9760, Note_on_c, 1, 65, 127
2, 9760, Note_on_c, 1, 74, 127
2, 9880, Note_on_c, 1, 57, 127
2, 9960, Note_off_c, 1, 57, 0
2, 10160, Note_on_c, 1, 59, 127
2, 10200, Note_off_c, 1, 65, 0
2, 10200, Note_on_c, 1, 67, 127
2, 10200, Note_off_c, 1, 69, 0
2, 10240, Note_on_c, 1, 65, 127
2, 10280, Note_on_c, 1, 56, 127
2, 10280, Note_off_c, 1, 59, 0
2, 10320, Note_off_c, 1, 56, 0
2, 10320, Note_off_c, 1, 65, 0
2, 10320, Note_off_c, 1, 74, 0
2, 10400, Note_on_c, 1, 55, 127
2, 10400, Note_off_c, 1, 67, 0
2, 10440, Note_on_c, 1, 69, 127
2, 10520, Note_off_c, 1, 69, 0
2, 10560, Note_on_c, 1, 67, 127
2, 10640, Note_off_c, 1, 67, 0
2, 10680, Note_on_c, 1, 72, 127
2, 10720, Note_on_c, 1, 71, 127
2, 10720, Note_off_c, 1, 72, 0
2, 10760, Note_off_c, 1, 71, 0
2, 10800, Note_on_c, 1, 72, 127
2, 10880, Note_off_c, 1, 55, 0
2, 10880, Note_off_c, 1, 72, 0
2, 10920, Note_on_c, 1, 52, 127
2, 10920, Note_on_c, 1, 71, 127
2, 11040, Note_off_c, 1, 71, 0
2, 11080, Note_on_c, 1, 69, 127
2, 11160, Note_off_c, 1, 69, 0
2, 11200, Note_on_c, 1, 59, 127
2, 11200, Note_on_c, 1, 74, 127
2, 11320, Note_off_c, 1, 59, 0
2, 11320, Note_off_c, 1, 74, 0
2, 11360, Note_on_c, 1, 72, 127
2, 11440, Note_off_c, 1, 52, 0
2, 11440, Note_off_c, 1, 72, 0
2, 11480, Note_on_c, 1, 43, 127
2, 11480, Note_on_c, 1, 76, 127
2, 11560, Note_off_c, 1, 76, 0
2, 11600, Note_on_c, 1, 77, 127
2, 11680, Note_off_c, 1, 43, 0
2, 11680, Note_off_c, 1, 77, 0
2, 11720, Note_on_c, 1, 57, 127
2, 11720, Note_on_c, 1, 76, 127
2, 11920, Note_off_c, 1, 76, 0
2, 11960, Note_off_c, 1, 57, 0
2, 11960, Note_on_c, 1, 72, 127
2, 11960, Note_on_c, 1, 77, 127
2, 12000, Note_off_c, 1, 72, 0
2, 12080, Note_on_c, 1, 69, 127
2, 12160, Note_on_c, 1, 62, 127
2, 12160, Note_off_c, 1, 69, 0
2, 12280, Note_on_c, 1, 69, 127
2, 12360, Note_on_c, 1, 53, 127
2, 12440, Note_off_c, 1, 62, 0
2, 12600, Note_off_c, 1, 53, 0
2, 12600, Note_off_c, 1, 69, 0
2, 12640, Note_on_c, 1, 71, 127
2, 12760, Note_off_c, 1, 77, 0
2, 12840, Note_off_c, 1, 71, 0
2, 12840, Note_on_c, 1, 79, 127
2, 12880, Note_off_c, 1, 79, 0
2, 12920, Note_on_c, 1, 79, 127
2, 12960, Note_off_c, 1, 79, 0
2, 13000, Note_on_c, 1, 79, 127
2, 13080, Note_off_c, 1, 79, 0
2, 13120, Note_on_c, 1, 77, 127
2, 13200, Note_off_c, 1, 77, 0
2, 13240, Note_on_c, 1, 76, 127
2, 13320, Note_off_c, 1, 76, 0
2, 13360, Note_on_c, 1, 76, 127
2, 13440, Note_off_c, 1, 76, 0
2, 13480, Note_on_c, 1, 77, 127
2, 13520, Note_on_c, 1, 76, 127
2, 13520, Note_off_c, 1, 77, 0
2, 13560, Note_off_c, 1, 76, 0
2, 13600, Note_on_c, 1, 77, 127
2, 13680, Note_off_c, 1, 77, 0
2, 13720, Note_on_c, 1, 73, 127
2, 13800, Note_off_c, 1, 73, 0
2, 13840, Note_on_c, 1, 72, 127
2, 13880, Note_off_c, 1, 72, 0
2, 13920, Note_on_c, 1, 74, 127
2, 13960, Note_off_c, 1, 74, 0
2, 14000, Note_on_c, 1, 72, 127
2, 14040, Note_off_c, 1, 72, 0
2, 14080, Note_on_c, 1, 74, 127
2, 14120, Note_off_c, 1, 74, 0
2, 14160, Note_on_c, 1, 73, 127
2, 14200, Note_off_c, 1, 73, 0
2, 14280, Note_on_c, 1, 76, 127
2, 14400, Note_off_c, 1, 76, 0
2, 14440, Note_on_c, 1, 78, 127
2, 14480, Note_off_c, 1, 78, 0
2, 14520, Note_on_c, 1, 76, 127
2, 14520, Note_on_c, 1, 79, 127
2, 14760, Note_off_c, 1, 76, 0
2, 14760, Note_off_c, 1, 79, 0
2, 14800, Note_on_c, 1, 76, 127
2, 14800, Note_on_c, 1, 79, 127
2, 15040, Note_off_c, 1, 76, 0
2, 15120, Note_off_c, 1, 79, 0
2, 15160, Note_on_c, 1, 82, 127
2, 15200, Note_on_c, 1, 73, 127
2, 15200, Note_on_c, 1, 79, 127
2, 15200, Note_off_c, 1, 82, 0
2, 15240, Note_off_c, 1, 73, 0
2, 15240, Note_off_c, 1, 79, 0
2, 15240, Note_on_c, 1, 82, 127
2, 15320, Note_off_c, 1, 82, 0
2, 15360, Note_on_c, 1, 48, 127
2, 15360, Note_on_c, 1, 81, 127
2, 15400, Note_off_c, 1, 48, 0
2, 15400, Note_off_c, 1, 81, 0
2, 15440, Note_on_c, 1, 81, 127
2, 15480, Note_off_c, 1, 81, 0
2, 15520, Note_on_c, 1, 82, 127
2, 15800, Note_off_c, 1, 82, 0
2, 15840, Note_on_c, 1, 77, 127
2, 16000, Note_off_c, 1, 77, 0
2, 16040, Note_on_c, 1, 76, 127
2, 16160, Note_off_c, 1, 76, 0
2, 16200, Note_on_c, 1, 74, 127
2, 16400, Note_on_c, 1, 52, 127
2, 16440, Note_off_c, 1, 74, 0
2, 16480, Note_on_c, 1, 72, 127
2, 16720, Note_off_c, 1, 52, 0
2, 16720, Note_off_c, 1, 72, 0
2, 16760, Note_on_c, 1, 53, 127
2, 16760, Note_on_c, 1, 76, 127
2, 16840, Note_off_c, 1, 76, 0
2, 16880, Note_on_c, 1, 77, 127
2, 16960, Note_on_c, 1, 65, 127
2, 17000, Note_off_c, 1, 77, 0
2, 17040, Note_on_c, 1, 79, 127
2, 17120, Note_off_c, 1, 65, 0
2, 17120, Note_off_c, 1, 79, 0
2, 17200, Note_on_c, 1, 64, 127
2, 17200, Note_on_c, 1, 72, 127
2, 17400, Note_off_c, 1, 72, 0
2, 17440, Note_on_c, 1, 72, 127
2, 17640, Note_off_c, 1, 53, 0
2, 17640, Note_off_c, 1, 64, 0
2, 17640, Note_off_c, 1, 72, 0
2, 17680, Note_on_c, 1, 64, 127
2, 17880, Note_off_c, 1, 64, 0
2, 17920, Note_on_c, 1, 65, 127
2, 18040, Note_on_c, 1, 69, 127
2, 18120, Note_off_c, 1, 69, 0
2, 18160, Note_on_c, 1, 72, 127
2, 18400, Note_off_c, 1, 72, 0
2, 18440, Note_on_c, 1, 72, 127
2, 18640, Note_off_c, 1, 65, 0
2, 18680, Note_on_c, 1, 64, 127
2, 19000, Note_off_c, 1, 72, 0
2, 19040, Note_on_c, 1, 70, 127
2, 19240, Note_off_c, 1, 70, 0
2, 19320, Note_on_c, 1, 67, 127
2, 19520, Note_off_c, 1, 64, 0
2, 19560, Note_on_c, 1, 60, 127
2, 19560, Note_on_c, 1, 64, 127
2, 19560, Note_on_c, 1, 79, 127
2, 19600, Note_off_c, 1, 60, 0
2, 19680, Note_off_c, 1, 64, 0
2, 19720, Note_on_c, 1, 62, 127
2, 19760, Note_off_c, 1, 62, 0
2, 19760, Note_off_c, 1, 79, 0
2, 19800, Note_on_c, 1, 77, 127
2, 20000, Note_off_c, 1, 67, 0
2, 20040, Note_on_c, 1, 65, 127
2, 20040, Note_on_c, 1, 74, 127
2, 20360, Note_off_c, 1, 74, 0
2, 20360, Note_off_c, 1, 77, 0
2, 20400, Note_on_c, 1, 76, 127
2, 20480, Note_off_c, 1, 76, 0
2, 20520, Note_on_c, 1, 74, 127
2, 20560, Note_off_c, 1, 65, 0
2, 20560, Note_off_c, 1, 74, 0
2, 20600, Note_on_c, 1, 64, 127
2, 20600, Note_on_c, 1, 74, 127
2, 20680, Note_off_c, 1, 74, 0
2, 20720, Note_on_c, 1, 72, 127
2, 20760, Note_off_c, 1, 64, 0
2, 20760, Note_off_c, 1, 72, 0
2, 20800, Note_on_c, 1, 65, 127
2, 20800, Note_on_c, 1, 74, 127
2, 21000, Note_off_c, 1, 65, 0
2, 21000, Note_off_c, 1, 74, 0
2, 21040, Note_on_c, 1, 57, 127
2, 21040, Note_on_c, 1, 69, 127
2, 21120, Note_off_c, 1, 57, 0
2, 21160, Note_on_c, 1, 54, 127
2, 21200, Note_off_c, 1, 54, 0
2, 21240, Note_on_c, 1, 53, 127
2, 21320, Note_off_c, 1, 53, 0
2, 21360, Note_on_c, 1, 57, 127
2, 21400, Note_off_c, 1, 57, 0
2, 21400, Note_off_c, 1, 69, 0
2, 21440, Note_on_c, 1, 56, 127
2, 21440, Note_on_c, 1, 65, 127
2, 21440, Note_on_c, 1, 77, 127
2, 21600, Note_off_c, 1, 56, 0
2, 21600, Note_off_c, 1, 65, 0
2, 21600, Note_off_c, 1, 77, 0
2, 21640, Note_on_c, 1, 53, 127
2, 21640, Note_on_c, 1, 64, 127
2, 21640, Note_on_c, 1, 72, 127
2, 21640, Note_on_c, 1, 79, 127
2, 21920, Note_off_c, 1, 72, 0
2, 21960, Note_on_c, 1, 70, 127
2, 22080, Note_off_c, 1, 53, 0
2, 22080, Note_on_c, 1, 62, 127
2, 22080, Note_off_c, 1, 64, 0
2, 22120, Note_on_c, 1, 55, 127
2, 22160, Note_off_c, 1, 62, 0
2, 22200, Note_on_c, 1, 67, 127
2, 22280, Note_off_c, 1, 55, 0
2, 22320, Note_on_c, 1, 55, 127
2, 22480, Note_off_c, 1, 67, 0
2, 22480, Note_off_c, 1, 70, 0
2, 22600, Note_off_c, 1, 79, 0
2, 22640, Note_on_c, 1, 60, 127
2, 22640, Note_on_c, 1, 81, 127
2, 22840, Note_off_c, 1, 55, 0
2, 22840, Note_off_c, 1, 60, 0
2, 22880, Note_on_c, 1, 57, 127
2, 22880, Note_on_c, 1, 62, 127
2, 22880, Note_off_c, 1, 81, 0
2, 22960, Note_on_c, 1, 72, 127
2, 23040, Note_on_c, 1, 77, 127
2, 23160, Note_off_c, 1, 62, 0
2, 23160, Note_on_c, 1, 65, 127
2, 23160, Note_off_c, 1, 72, 0
2, 23160, Note_off_c, 1, 77, 0
2, 23200, Note_off_c, 1, 57, 0
2, 23200, Note_on_c, 1, 58, 127
2, 23200, Note_on_c, 1, 62, 127
2, 23200, Note_off_c, 1, 65, 0
2, 23200, Note_on_c, 1, 70, 127
2, 23200, Note_on_c, 1, 77, 127
2, 23400, Note_off_c, 1, 77, 0
2, 23440, Note_on_c, 1, 74, 127
2, 23640, Note_off_c, 1, 58, 0
2, 23640, Note_off_c, 1, 62, 0
2, 23640, Note_off_c, 1, 70, 0
2, 23640, Note_off_c, 1, 74, 0
2, 23680, Note_on_c, 1, 53, 127
2, 23680, Note_on_c, 1, 57, 127
2, 23680, Note_on_c, 1, 72, 127
2, 23680, Note_on_c, 1, 74, 127
2, 23920, Note_off_c, 1, 53, 0
2, 23920, Note_off_c, 1, 57, 0
2, 23920, Note_off_c, 1, 72, 0
2, 23920, Note_off_c, 1, 74, 0
2, 23960, Note_on_c, 1, 58, 127
2, 23960, Note_on_c, 1, 72, 127
2, 23960, Note_on_c, 1, 74, 127
2, 24040, Note_off_c, 1, 72, 0
2, 24040, Note_off_c, 1, 74, 0
2, 24080, Note_on_c, 1, 70, 127
2, 24080, Note_on_c, 1, 74, 127
2, 24120, Note_on_c, 1, 69, 127
2, 24120, Note_off_c, 1, 70, 0
2, 24160, Note_off_c, 1, 69, 0
2, 24200, Note_on_c, 1, 79, 127
2, 24400, Note_off_c, 1, 58, 0
2, 24400, Note_off_c, 1, 74, 0
2, 24400, Note_off_c, 1, 79, 0
2, 24440, Note_on_c, 1, 38, 127
2, 24440, Note_on_c, 1, 74, 127
2, 24440, Note_on_c, 1, 81, 127
2, 24520, Note_off_c, 1, 38, 0
2, 24520, Note_off_c, 1, 74, 0
2, 24520, Note_off_c, 1, 81, 0
2, 24560, Note_on_c, 1, 53, 127
2, 24560, Note_on_c, 1, 72, 127
2, 24560, Note_on_c, 1, 79, 127
2, 24800, Note_off_c, 1, 53, 0
2, 24840, Note_on_c, 1, 46, 127
2, 25040, Note_off_c, 1, 46, 0
2, 25040, Note_off_c, 1, 72, 0
2, 25040, Note_off_c, 1, 79, 0
2, 25080, Note_on_c, 1, 46, 127
2, 25080, Note_on_c, 1, 70, 127
2, 25080, Note_on_c, 1, 77, 127
2, 25280, Note_off_c, 1, 46, 0
2, 25280, Note_on_c, 1, 53, 127
2, 25280, Note_off_c, 1, 77, 0
2, 25320, Note_on_c, 1, 46, 127
2, 25320, Note_on_c, 1, 79, 127
2, 25400, Note_off_c, 1, 70, 0
2, 25440, Note_on_c, 1, 67, 127
2, 25480, Note_off_c, 1, 46, 0
2, 25480, Note_on_c, 1, 62, 127
2, 25480, Note_off_c, 1, 67, 0
2, 25520, Note_off_c, 1, 53, 0
2, 25520, Note_off_c, 1, 62, 0
2, 25520, Note_off_c, 1, 79, 0
2, 25560, Note_on_c, 1, 55, 127
2, 25560, Note_on_c, 1, 65, 127
2, 25560, Note_on_c, 1, 76, 127
2, 25760, Note_off_c, 1, 55, 0
2, 25760, Note_off_c, 1, 65, 0
2, 25760, Note_off_c, 1, 76, 0
2, 25800, Note_on_c, 1, 52, 127
2, 25800, Note_on_c, 1, 64, 127
2, 25800, Note_on_c, 1, 72, 127
2, 26040, Note_off_c, 1, 64, 0
2, 26040, Note_on_c, 1, 70, 127
2, 26040, Note_off_c, 1, 72, 0
2, 26080, Note_on_c, 1, 60, 127
2, 26080, Note_on_c, 1, 69, 127
2, 26080, Note_off_c, 1, 70, 0
2, 26080, Note_on_c, 1, 79, 127
2, 26280, Note_off_c, 1, 60, 0
2, 26280, Note_off_c, 1, 79, 0
2, 26320, Note_on_c, 1, 62, 127
2, 26320, Note_on_c, 1, 76, 127
2, 26520, Note_off_c, 1, 52, 0
2, 26520, Note_off_c, 1, 69, 0
2, 26560, Note_on_c, 1, 53, 127
2, 26560, Note_on_c, 1, 69, 127
2, 26760, Note_off_c, 1, 62, 0
2, 26800, Note_on_c, 1, 55, 127
2, 26880, Note_off_c, 1, 76, 0
2, 26920, Note_on_c, 1, 74, 127
2, 27000, Note_off_c, 1, 55, 0
2, 27000, Note_off_c, 1, 74, 0
2, 27040, Note_on_c, 1, 57, 127
2, 27040, Note_on_c, 1, 74, 127
2, 27280, Note_on_c, 1, 62, 127
2, 28600, Note_off_c, 1, 53, 0
2, 28600, Note_off_c, 1, 57, 0
2, 28600, Note_off_c, 1, 62, 0
2, 28600, Note_on_c, 1, 64, 127
2, 28640, Note_on_c, 1, 62, 127
2, 28640, Note_off_c, 1, 64, 0
2, 28680, Note_on_c, 1, 50, 127
2, 28680, Note_off_c, 1, 62, 0
2, 28680, Note_off_c, 1, 74, 0
2, 28800, Note_off_c, 1, 69, 0
2, 28840, Note_on_c, 1, 53, 127
2, 28840, Note_on_c, 1, 62, 127
2, 28840, Note_on_c, 1, 69, 127
2, 28960, Note_on_c, 1, 65, 127
2, 29280, Note_on_c, 1, 71, 127
2, 29520, Note_off_c, 1, 50, 0
2, 29520, Note_off_c, 1, 53, 0
2, 29520, Note_off_c, 1, 62, 0
2, 29520, Note_off_c, 1, 65, 0
2, 29520, Note_off_c, 1, 69, 0
2, 29520, Note_off_c, 1, 71, 0
2, 29560, Note_on_c, 1, 48, 127
2, 29560, Note_on_c, 1, 69, 127
2, 29560, Note_on_c, 1, 72, 127
2, 29600, Note_on_c, 1, 52, 127
2, 29840, Note_on_c, 1, 64, 127
2, 29960, Note_off_c, 1, 52, 0
2, 30040, Note_on_c, 1, 52, 127
2, 30160, Note_on_c, 1, 45, 127
2, 30160, Note_off_c, 1, 48, 0
2, 30280, Note_off_c, 1, 45, 0
2, 30280, Note_on_c, 1, 49, 127
2, 30360, Note_off_c, 1, 49, 0
2, 30360, Note_off_c, 1, 52, 0
2, 30360, Note_off_c, 1, 64, 0
2, 30360, Note_off_c, 1, 69, 0
2, 30360, Note_off_c, 1, 72, 0
2, 30440, Note_on_c, 1, 55, 127
2, 30440, Note_on_c, 1, 59, 127
2, 30440, Note_on_c, 1, 67, 127
2, 30440, Note_on_c, 1, 76, 127
2, 30720, Note_off_c, 1, 55, 0
2, 30720, Note_off_c, 1, 59, 0
2, 30760, Note_on_c, 1, 48, 127
2, 30760, Note_on_c, 1, 60, 127
2, 31200, Note_off_c, 1, 48, 0
2, 31200, Note_off_c, 1, 60, 0
2, 31200, Note_off_c, 1, 67, 0
2, 31200, Note_off_c, 1, 76, 0
2, 31240, Note_on_c, 1, 53, 127
2, 31240, Note_on_c, 1, 69, 127
2, 31720, Note_on_c, 1, 62, 127
2, 31960, Note_off_c, 1, 53, 0
2, 31960, Note_off_c, 1, 62, 0
2, 31960, Note_off_c, 1, 69, 0
2, 32000, Note_on_c, 1, 52, 127
2, 32000, Note_on_c, 1, 55, 127
2, 32000, Note_on_c, 1, 67, 127
2, 32320, Note_on_c, 1, 64, 127
2, 32600, Note_off_c, 1, 52, 0
2, 32600, Note_off_c, 1, 55, 0
2, 32600, Note_off_c, 1, 64, 0
2, 32600, Note_off_c, 1, 67, 0
2, 32640, Note_on_c, 1, 53, 127
2, 32640, Note_on_c, 1, 57, 127
2, 32640, Note_on_c, 1, 65, 127
2, 32960, Note_off_c, 1, 65, 0
2, 33000, Note_on_c, 1, 69, 127
2, 33240, Note_off_c, 1, 69, 0
2, 33320, Note_off_c, 1, 57, 0
2, 33360, Note_on_c, 1, 57, 127
2, 33360, Note_on_c, 1, 65, 127
2, 33840, Note_on_c, 1, 69, 127
2, 34120, Note_off_c, 1, 65, 0
2, 34120, Note_off_c, 1, 69, 0
2, 34160, Note_on_c, 1, 67, 127
2, 34200, Note_off_c, 1, 67, 0
2, 34200, Note_on_c, 1, 69, 127
2, 34400, Note_off_c, 1, 57, 0
2, 34440, Note_on_c, 1, 62, 127
2, 34560, Note_off_c, 1, 69, 0
2, 34600, Note_on_c, 1, 69, 127
2, 34760, Note_off_c, 1, 69, 0
2, 34800, Note_on_c, 1, 68, 127
2, 35080, Note_off_c, 1, 62, 0
2, 35080, Note_off_c, 1, 68, 0
2, 35120, Note_on_c, 1, 62, 127
2, 35120, Note_on_c, 1, 72, 127
2, 35240, Note_off_c, 1, 72, 0
2, 35280, Note_on_c, 1, 71, 127
2, 35480, Note_off_c, 1, 71, 0
2, 35520, Note_on_c, 1, 69, 127
2, 35640, Note_off_c, 1, 69, 0
2, 35680, Note_on_c, 1, 71, 127
2, 35920, Note_off_c, 1, 53, 0
2, 35920, Note_off_c, 1, 71, 0
2, 35960, Note_off_c, 1, 62, 0
2, 35960, Note_on_c, 1, 67, 127
2, 36000, Note_on_c, 1, 52, 127
2, 36000, Note_on_c, 1, 72, 127
2, 36360, Note_off_c, 1, 52, 0
2, 36360, Note_off_c, 1, 67, 0
2, 36360, Note_off_c, 1, 72, 0
2, 36400, Note_on_c, 1, 41, 127
2, 36400, Note_on_c, 1, 65, 127
2, 36400, Note_on_c, 1, 69, 127
2, 36640, Note_off_c, 1, 41, 0
2, 36640, Note_off_c, 1, 65, 0
2, 36640, Note_off_c, 1, 69, 0
2, 36680, Note_on_c, 1, 52, 127
2, 36680, Note_on_c, 1, 69, 127
2, 36680, Note_on_c, 1, 72, 127
2, 36680, Note_on_c, 1, 79, 127
2, 37160, Note_off_c, 1, 52, 0
2, 37160, Note_off_c, 1, 79, 0
2, 37200, Note_on_c, 1, 50, 127
2, 37200, Note_on_c, 1, 77, 127
2, 37440, Note_off_c, 1, 50, 0
2, 37440, Note_off_c, 1, 69, 0
2, 37440, Note_off_c, 1, 72, 0
2, 37440, Note_off_c, 1, 77, 0
2, 37480, Note_on_c, 1, 52, 127
2, 37480, Note_on_c, 1, 67, 127
2, 37480, Note_on_c, 1, 70, 127
2, 37480, Note_on_c, 1, 72, 127
2, 37480, Note_on_c, 1, 77, 127
2, 37560, Note_off_c, 1, 72, 0
2, 37800, Note_off_c, 1, 77, 0
2, 37840, Note_on_c, 1, 76, 127
2, 38400, Note_off_c, 1, 67, 0
2, 38400, Note_off_c, 1, 70, 0
2, 38400, Note_off_c, 1, 76, 0
2, 38600, Note_off_c, 1, 52, 0
2, 38640, Note_on_c, 1, 43, 127
2, 38640, Note_on_c, 1, 64, 127
2, 38640, Note_on_c, 1, 67, 127
2, 38640, Note_on_c, 1, 70, 127
2, 38640, Note_on_c, 1, 76, 127
2, 38840, Note_off_c, 1, 76, 0
2, 38880, Note_on_c, 1, 72, 127
2, 39120, Note_off_c, 1, 43, 0
2, 39120, Note_off_c, 1, 64, 0
2, 39120, Note_off_c, 1, 67, 0
2, 39120, Note_off_c, 1, 70, 0
2, 39120, Note_off_c, 1, 72, 0
2, 39160, Note_on_c, 1, 41, 127
2, 39160, Note_on_c, 1, 53, 127
2, 39160, Note_on_c, 1, 62, 127
2, 39160, Note_on_c, 1, 65, 127
2, 39160, Note_on_c, 1, 69, 127
2, 39160, Note_on_c, 1, 72, 127
2, 39800, Note_on_c, 1, 57, 127
2, 39880, Note_off_c, 1, 65, 0
2, 39880, Note_on_c, 1, 66, 127
2, 40080, Note_on_c, 1, 39, 127
2, 40080, Note_off_c, 1, 41, 0
2, 40160, Note_off_c, 1, 39, 0
2, 40160, Note_off_c, 1, 53, 0
2, 40160, Note_off_c, 1, 57, 0
2, 40160, Note_off_c, 1, 62, 0
2, 40160, Note_off_c, 1, 66, 0
2, 40160, Note_off_c, 1, 69, 0
2, 40160, Note_off_c, 1, 72, 0
2, 40200, Note_on_c, 1, 55, 127
2, 40200, Note_on_c, 1, 62, 127
2, 40200, Note_on_c, 1, 67, 127
2, 40200, Note_on_c, 1, 70, 127
2, 40360, Note_off_c, 1, 55, 0
2, 40360, Note_off_c, 1, 62, 0
2, 40360, Note_off_c, 1, 67, 0
2, 40360, Note_off_c, 1, 70, 0
2, 40400, Note_on_c, 1, 36, 127
2, 40400, Note_on_c, 1, 60, 127
2, 40400, Note_on_c, 1, 65, 127
2, 40400, Note_on_c, 1, 68, 127
2, 41360, Note_off_c, 1, 36, 0
2, 41360, Note_off_c, 1, 60, 0
2, 41560, Note_on_c, 1, 43, 127
2, 41840, Note_off_c, 1, 43, 0
2, 41840, Note_off_c, 1, 65, 0
2, 41840, Note_off_c, 1, 68, 0
2, 41880, Note_on_c, 1, 51, 127
2, 41880, Note_on_c, 1, 63, 127
2, 41880, Note_on_c, 1, 67, 127
2, 42040, Note_off_c, 1, 67, 0
2, 42080, Note_on_c, 1, 66, 127
2, 42200, Note_off_c, 1, 66, 0
2, 42280, Note_on_c, 1, 67, 127
2, 42400, Note_off_c, 1, 63, 0
2, 42480, Note_on_c, 1, 55, 127
2, 42480, Note_on_c, 1, 63, 127
2, 42640, Note_off_c, 1, 51, 0
2, 42640, Note_off_c, 1, 67, 0
2, 42680, Note_on_c, 1, 51, 127
2, 42680, Note_off_c, 1, 55, 0
2, 42680, Note_on_c, 1, 57, 127
2, 42680, Note_on_c, 1, 72, 127
2, 43000, Note_off_c, 1, 51, 0
2, 43000, Note_off_c, 1, 57, 0
2, 43000, Note_on_c, 1, 58, 127
2, 43000, Note_off_c, 1, 72, 0
2, 43040, Note_on_c, 1, 46, 127
2, 43040, Note_on_c, 1, 70, 127
2, 43320, Note_off_c, 1, 46, 0
2, 43320, Note_off_c, 1, 58, 0
2, 43320, Note_off_c, 1, 70, 0
2, 43360, Note_on_c, 1, 54, 127
2, 43360, Note_on_c, 1, 60, 127
2, 43360, Note_on_c, 1, 69, 127
2, 43600, Note_off_c, 1, 54, 0
2, 43640, Note_on_c, 1, 48, 127
2, 43640, Note_on_c, 1, 57, 127
2, 43880, Note_off_c, 1, 57, 0
2, 43960, Note_on_c, 1, 56, 127
2, 43960, Note_on_c, 1, 67, 127
2, 44120, Note_off_c, 1, 60, 0
2, 44160, Note_on_c, 1, 60, 127
2, 44280, Note_off_c, 1, 56, 0
2, 44280, Note_on_c, 1, 57, 127
2, 44400, Note_on_c, 1, 51, 127
2, 44400, Note_off_c, 1, 57, 0
2, 44400, Note_on_c, 1, 72, 127
2, 44440, Note_off_c, 1, 48, 0
2, 44800, Note_off_c, 1, 69, 0
2, 44800, Note_on_c, 1, 70, 127
2, 44840, Note_off_c, 1, 60, 0
2, 44840, Note_off_c, 1, 72, 0
2, 44840, Note_on_c, 1, 74, 127
2, 44880, Note_on_c, 1, 58, 127
2, 45400, Note_off_c, 1, 74, 0
2, 45440, Note_on_c, 1, 75, 127
2, 45720, Note_off_c, 1, 51, 0
2, 45720, Note_off_c, 1, 58, 0
2, 45720, Note_on_c, 1, 60, 127
2, 45720, Note_off_c, 1, 67, 0
2, 45720, Note_off_c, 1, 75, 0
2, 45760, Note_on_c, 1, 51, 127
2, 45760, Note_off_c, 1, 60, 0
2, 45760, Note_on_c, 1, 67, 127
2, 45760, Note_on_c, 1, 72, 127
2, 45800, Note_on_c, 1, 58, 127
2, 45800, Note_off_c, 1, 72, 0
2, 45800, Note_on_c, 1, 75, 127
2, 46360, Note_off_c, 1, 58, 0
2, 46360, Note_off_c, 1, 70, 0
2, 46360, Note_off_c, 1, 75, 0
2, 46400, Note_on_c, 1, 55, 127
2, 46400, Note_on_c, 1, 70, 127
2, 46400, Note_on_c, 1, 75, 127
2, 46680, Note_off_c, 1, 55, 0
2, 46680, Note_off_c, 1, 75, 0
2, 46720, Note_on_c, 1, 55, 127
2, 46720, Note_on_c, 1, 75, 127
2, 46760, Note_off_c, 1, 51, 0
2, 46760, Note_on_c, 1, 58, 127
2, 46840, Note_on_c, 1, 51, 127
2, 46880, Note_off_c, 1, 67, 0
2, 46920, Note_on_c, 1, 67, 127
2, 47840, Note_off_c, 1, 51, 0
2, 47840, Note_off_c, 1, 55, 0
2, 47840, Note_off_c, 1, 58, 0
2, 47840, Note_off_c, 1, 63, 0
2, 47840, Note_off_c, 1, 67, 0
2, 47840, Note_off_c, 1, 70, 0
2, 47840, Note_off_c, 1, 75, 0
2, 47880, Note_on_c, 1, 55, 127
2, 47880, Note_on_c, 1, 63, 127
2, 47880, Note_on_c, 1, 67, 127
2, 47880, Note_on_c, 1, 69, 127
2, 47880, Note_on_c, 1, 73, 127
2, 47960, Note_off_c, 1, 69, 0
2, 47960, Note_off_c, 1, 73, 0
2, 48000, Note_on_c, 1, 74, 127
2, 48080, Note_on_c, 1, 72, 127
2, 48080, Note_off_c, 1, 74, 0
2, 48120, Note_off_c, 1, 63, 0
2, 48160, Note_on_c, 1, 60, 127
2, 48160, Note_on_c, 1, 65, 127
2, 48360, Note_off_c, 1, 65, 0
2, 48360, Note_off_c, 1, 67, 0
2, 48360, Note_off_c, 1, 72, 0
2, 48400, End_track
3, 0, Start_track
3, 0, Title_t, "MIDI"
3, 1536, End_track
0, 0, End_of_file
