0, 0, Header, 1, 3, 384
1, 0, Start_track
1, 0, Time_signature, 4, 2, 24, 8
1, 0, Tempo, 500000
1, 33240, End_track
2, 0, Start_track
2, 0, Text_t, "harpsichord: John Sankey"
2, 0, Title_t, "Track 1"
2, 0, Note_on_c, 1, 48, 127
2, 0, Note_on_c, 1, 67, 127
2, 0, Note_on_c, 1, 74, 127
2, 0, Note_on_c, 1, 76, 127
2, 40, Note_off_c, 1, 48, 0
2, 40, Note_on_c, 1, 58, 127
2, 40, Note_on_c, 1, 60, 127
2, 40, Note_off_c, 1, 67, 0
2, 40, Note_off_c, 1, 74, 0
2, 40, Note_off_c, 1, 76, 0
2, 40, Note_on_c, 1, 82, 127
2, 80, Note_off_c, 1, 58, 0
2, 80, Note_off_c, 1, 60, 0
2, 80, Note_on_c, 1, 67, 127
2, 80, Note_on_c, 1, 74, 127
2, 80, Note_off_c, 1, 82, 0
2, 120, Note_on_c, 1, 61, 127
2, 120, Note_off_c, 1, 67, 0
2, 120, Note_off_c, 1, 74, 0
2, 160, Note_on_c, 1, 41, 127
2, 160, Note_off_c, 1, 61, 0
2, 160, Note_on_c, 1, 65, 127
2, 160, Note_on_c, 1, 67, 127
2, 160, Note_on_c, 1, 69, 127
2, 160, Note_on_c, 1, 75, 127
2, 200, Note_on_c, 1, 36, 127
2, 200, Note_off_c, 1, 41, 0
2, 200, Note_off_c, 1, 65, 0
2, 200, Note_off_c, 1, 67, 0
2, 200, Note_off_c, 1, 69, 0
2, 200, Note_off_c, 1, 75, 0
2, 240, Note_on_c, 1, 35, 127
2, 240, Note_off_c, 1, 36, 0
2, 240, Note_on_c, 1, 41, 127
2, 240, Note_on_c, 1, 50, 127
2, 240, Note_on_c, 1, 53, 127
2, 240, Note_on_c, 1, 63, 127
2, 240, Note_on_c, 1, 69, 127
2, 240, Note_on_c, 1, 70, 127
2, 240, Note_on_c, 1, 72, 127
2, 240, Note_on_c, 1, 76, 127
2, 280, Note_off_c, 1, 35, 0
2, 280, Note_off_c, 1, 41, 0
2, 280, Note_off_c, 1, 50, 0
2, 280, Note_off_c, 1, 53, 0
2, 280, Note_off_c, 1, 63, 0
2, 280, Note_off_c, 1, 69, 0
2, 280, Note_off_c, 1, 70, 0
2, 280, Note_off_c, 1, 72, 0
2, 280, Note_off_c, 1, 76, 0
2, 320, Note_on_c, 1, 57, 127
2, 360, Note_on_c, 1, 46, 127
2, 360, Note_on_c, 1, 50, 127
2, 360, Note_on_c, 1, 52, 127
2, 360, Note_on_c, 1, 53, 127
2, 360, Note_off_c, 1, 57, 0
2, 360, Note_on_c, 1, 65, 127
2, 360, Note_on_c, 1, 70, 127
2, 360, Note_on_c, 1, 74, 127
2, 360, Note_on_c, 1, 82, 127
2, 400, Note_on_c, 1, 32, 127
2, 400, Note_on_c, 1, 37, 127
2, 400, Note_off_c, 1, 46, 0
2, 400, Note_off_c, 1, 50, 0
2, 400, Note_on_c, 1, 60, 127
2, 400, Note_on_c, 1, 67, 127
2, 400, Note_on_c, 1, 72, 127
2, 400, Note_on_c, 1, 75, 127
2, 400, Note_off_c, 1, 82, 0
2, 440, Note_off_c, 1, 32, 0
2, 440, Note_off_c, 1, 37, 0
2, 440, Note_on_c, 1, 45, 127
2, 440, Note_off_c, 1, 52, 0
2, 440, Note_off_c, 1, 53, 0
2, 440, Note_on_c, 1, 55, 127
2, 440, Note_off_c, 1, 60, 0
2, 440, Note_off_c, 1, 65, 0
2, 440, Note_off_c, 1, 67, 0
2, 440, Note_off_c, 1, 70, 0
2, 440, Note_off_c, 1, 72, 0
2, 440, Note_off_c, 1, 74, 0
2, 440, Note_off_c, 1, 75, 0
2, 480, Note_off_c, 1, 45, 0
2, 480, Note_on_c, 1, 46, 127
2, 480, Note_off_c, 1, 55, 0
2, 480, Note_on_c, 1, 65, 127
2, 520, Note_off_c, 1, 46, 0
2, 520, Note_on_c, 1, 53, 127
2, 520, Note_off_c, 1, 65, 0
2, 520, Note_on_c, 1, 72, 127
2, 520, Note_on_c, 1, 73, 127
2, 520, Note_on_c, 1, 77, 127
2, 560, Note_off_c, 1, 53, 0
2, 560, Note_on_c, 1, 62, 127
2, 560, Note_off_c, 1, 73, 0
2, 560, Note_on_c, 1, 74, 127
2, 560, Note_off_c, 1, 77, 0
2, 560, Note_on_c, 1, 84, 127
2, 600, Note_on_c, 1, 31, 127
2, 600, Note_off_c, 1, 62, 0
2, 600, Note_off_c, 1, 72, 0
2, 600, Note_off_c, 1, 84, 0
2, 640, Note_off_c, 1, 31, 0
2, 640, Note_on_c, 1, 46, 127
2, 640, Note_on_c, 1, 50, 127
2, 640, Note_on_c, 1, 72, 127
2, 680, Note_off_c, 1, 46, 0
2, 680, Note_off_c, 1, 72, 0
2, 680, Note_off_c, 1, 74, 0
2, 720, Note_off_c, 1, 50, 0
2, 760, Note_on_c, 1, 50, 127
2, 760, Note_on_c, 1, 52, 127
2, 760, Note_on_c, 1, 55, 127
2, 800, Note_off_c, 1, 50, 0
2, 800, Note_off_c, 1, 52, 0
2, 800, Note_off_c, 1, 55, 0
2, 800, Note_on_c, 1, 76, 127
2, 840, Note_on_c, 1, 48, 127
2, 840, Note_on_c, 1, 55, 127
2, 840, Note_on_c, 1, 70, 127
2, 840, Note_off_c, 1, 76, 0
2, 880, Note_off_c, 1, 48, 0
2, 880, Note_off_c, 1, 55, 0
2, 880, Note_on_c, 1, 60, 127
2, 880, Note_on_c, 1, 66, 127
2, 880, Note_off_c, 1, 70, 0
2, 920, Note_on_c, 1, 58, 127
2, 920, Note_off_c, 1, 60, 0
2, 920, Note_off_c, 1, 66, 0
2, 960, Note_off_c, 1, 58, 0
2, 960, Note_on_c, 1, 75, 127
2, 1000, Note_on_c, 1, 50, 127
2, 1000, Note_on_c, 1, 52, 127
2, 1000, Note_on_c, 1, 53, 127
2, 1000, Note_on_c, 1, 64, 127
2, 1000, Note_off_c, 1, 75, 0
2, 1040, Note_on_c, 1, 41, 127
2, 1040, Note_on_c, 1, 48, 127
2, 1040, Note_off_c, 1, 50, 0
2, 1040, Note_off_c, 1, 52, 0
2, 1040, Note_off_c, 1, 53, 0
2, 1040, Note_on_c, 1, 54, 127
2, 1040, Note_on_c, 1, 62, 127
2, 1040, Note_on_c, 1, 63, 127
2, 1040, Note_off_c, 1, 64, 0
2, 1040, Note_on_c, 1, 65, 127
2, 1040, Note_on_c, 1, 70, 127
2, 1080, Note_off_c, 1, 41, 0
2, 1080, Note_on_c, 1, 46, 127
2, 1080, Note_off_c, 1, 48, 0
2, 1080, Note_on_c, 1, 49, 127
2, 1080, Note_on_c, 1, 50, 127
2, 1080, Note_on_c, 1, 51, 127
2, 1080, Note_on_c, 1, 52, 127
2, 1080, Note_on_c, 1, 53, 127
2, 1080, Note_off_c, 1, 54, 0
2, 1080, Note_off_c, 1, 63, 0
2, 1080, Note_on_c, 1, 74, 127
2, 1080, Note_on_c, 1, 77, 127
2, 1120, Note_off_c, 1, 46, 0
2, 1120, Note_off_c, 1, 50, 0
2, 1120, Note_off_c, 1, 51, 0
2, 1120, Note_off_c, 1, 53, 0
2, 1120, Note_on_c, 1, 57, 127
2, 1120, Note_off_c, 1, 62, 0
2, 1120, Note_off_c, 1, 65, 0
2, 1120, Note_on_c, 1, 66, 127
2, 1120, Note_off_c, 1, 70, 0
2, 1120, Note_on_c, 1, 72, 127
2, 1120, Note_off_c, 1, 77, 0
2, 1160, Note_off_c, 1, 49, 0
2, 1160, Note_off_c, 1, 52, 0
2, 1160, Note_off_c, 1, 57, 0
2, 1160, Note_off_c, 1, 66, 0
2, 1160, Note_off_c, 1, 72, 0
2, 1160, Note_off_c, 1, 74, 0
2, 1200, Note_on_c, 1, 65, 127
2, 1240, Note_on_c, 1, 41, 127
2, 1240, Note_on_c, 1, 44, 127
2, 1240, Note_on_c, 1, 69, 127
2, 1240, Note_on_c, 1, 70, 127
2, 1240, Note_on_c, 1, 72, 127
2, 1240, Note_on_c, 1, 74, 127
2, 1280, Note_off_c, 1, 41, 0
2, 1280, Note_off_c, 1, 44, 0
2, 1280, Note_off_c, 1, 65, 0
2, 1280, Note_off_c, 1, 69, 0
2, 1280, Note_off_c, 1, 70, 0
2, 1280, Note_off_c, 1, 72, 0
2, 1280, Note_off_c, 1, 74, 0
2, 1360, Note_on_c, 1, 72, 127
2, 1400, Note_on_c, 1, 50, 127
2, 1400, Note_on_c, 1, 57, 127
2, 1400, Note_on_c, 1, 62, 127
2, 1400, Note_on_c, 1, 65, 127
2, 1400, Note_off_c, 1, 72, 0
2, 1400, Note_on_c, 1, 74, 127
2, 1440, Note_off_c, 1, 50, 0
2, 1440, Note_on_c, 1, 53, 127
2, 1440, Note_off_c, 1, 57, 0
2, 1440, Note_off_c, 1, 65, 0
2, 1440, Note_on_c, 1, 70, 127
2, 1440, Note_off_c, 1, 74, 0
2, 1440, Note_on_c, 1, 76, 127
2, 1480, Note_on_c, 1, 46, 127
2, 1480, Note_on_c, 1, 49, 127
2, 1480, Note_off_c, 1, 62, 0
2, 1480, Note_on_c, 1, 67, 127
2, 1480, Note_off_c, 1, 70, 0
2, 1480, Note_on_c, 1, 72, 127
2, 1480, Note_off_c, 1, 76, 0
2, 1520, Note_off_c, 1, 46, 0
2, 1520, Note_off_c, 1, 49, 0
2, 1520, Note_off_c, 1, 53, 0
2, 1520, Note_off_c, 1, 67, 0
2, 1520, Note_off_c, 1, 72, 0
2, 1560, Note_on_c, 1, 46, 127
2, 1560, Note_on_c, 1, 62, 127
2, 1560, Note_on_c, 1, 66, 127
2, 1560, Note_on_c, 1, 79, 127
2, 1600, Note_off_c, 1, 46, 0
2, 1600, Note_off_c, 1, 62, 0
2, 1600, Note_off_c, 1, 66, 0
2, 1600, Note_off_c, 1, 79, 0
2, 1640, Note_on_c, 1, 51, 127
2, 1680, Note_on_c, 1, 46, 127
2, 1680, Note_off_c, 1, 51, 0
2, 1680, Note_on_c, 1, 57, 127
2, 1680, Note_on_c, 1, 58, 127
2, 1680, Note_on_c, 1, 72, 127
2, 1720, Note_off_c, 1, 46, 0
2, 1720, Note_on_c, 1, 50, 127
2, 1720, Note_off_c, 1, 57, 0
2, 1720, Note_off_c, 1, 58, 0
2, 1720, Note_on_c, 1, 59, 127
2, 1720, Note_off_c, 1, 72, 0
2, 1760, Note_off_c, 1, 59, 0
2, 1760, Note_on_c, 1, 70, 127
2, 1760, Note_on_c, 1, 72, 127
2, 1760, Note_on_c, 1, 77, 127
2, 1800, Note_off_c, 1, 50, 0
2, 1800, Note_off_c, 1, 70, 0
2, 1800, Note_on_c, 1, 74, 127
2, 1800, Note_off_c, 1, 77, 0
2, 1840, Note_on_c, 1, 48, 127
2, 1840, Note_on_c, 1, 50, 127
2, 1840, Note_on_c, 1, 52, 127
2, 1840, Note_on_c, 1, 53, 127
2, 1840, Note_on_c, 1, 55, 127
2, 1840, Note_on_c, 1, 62, 127
2, 1840, Note_on_c, 1, 65, 127
2, 1840, Note_on_c, 1, 69, 127
2, 1840, Note_off_c, 1, 72, 0
2, 1840, Note_on_c, 1, 76, 127
2, 1840, Note_on_c, 1, 77, 127
2, 1840, Note_on_c, 1, 83, 127
2, 1880, Note_off_c, 1, 48, 0
2, 1880, Note_off_c, 1, 50, 0
2, 1880, Note_off_c, 1, 52, 0
2, 1880, Note_off_c, 1, 53, 0
2, 1880, Note_off_c, 1, 55, 0
2, 1880, Note_on_c, 1, 61, 127
2, 1880, Note_off_c, 1, 62, 0
2, 1880, Note_off_c, 1, 69, 0
2, 1880, Note_off_c, 1, 74, 0
2, 1880, Note_off_c, 1, 76, 0
2, 1880, Note_off_c, 1, 77, 0
2, 1880, Note_off_c, 1, 83, 0
2, 1920, Note_on_c, 1, 36, 127
2, 1920, Note_on_c, 1, 57, 127
2, 1920, Note_off_c, 1, 61, 0
2, 1920, Note_on_c, 1, 62, 127
2, 1920, Note_on_c, 1, 69, 127
2, 1920, Note_on_c, 1, 76, 127
2, 1960, Note_off_c, 1, 36, 0
2, 1960, Note_off_c, 1, 57, 0
2, 1960, Note_off_c, 1, 62, 0
2, 1960, Note_off_c, 1, 65, 0
2, 1960, Note_on_c, 1, 67, 127
2, 1960, Note_off_c, 1, 69, 0
2, 1960, Note_on_c, 1, 74, 127
2, 2000, Note_on_c, 1, 64, 127
2, 2000, Note_off_c, 1, 67, 0
2, 2000, Note_off_c, 1, 74, 0
2, 2040, Note_on_c, 1, 53, 127
2, 2040, Note_on_c, 1, 59, 127
2, 2040, Note_off_c, 1, 64, 0
2, 2040, Note_on_c, 1, 65, 127
2, 2040, Note_on_c, 1, 69, 127
2, 2040, Note_on_c, 1, 70, 127
2, 2040, Note_off_c, 1, 76, 0
2, 2040, Note_on_c, 1, 78, 127
2, 2080, Note_off_c, 1, 53, 0
2, 2080, Note_off_c, 1, 59, 0
2, 2080, Note_off_c, 1, 65, 0
2, 2080, Note_off_c, 1, 69, 0
2, 2080, Note_off_c, 1, 70, 0
2, 2080, Note_off_c, 1, 78, 0
2, 2120, Note_on_c, 1, 34, 127
2, 2120, Note_on_c, 1, 57, 127
2, 2120, Note_on_c, 1, 65, 127
2, 2120, Note_on_c, 1, 67, 127
2, 2160, Note_off_c, 1, 34, 0
2, 2160, Note_on_c, 1, 37, 127
2, 2160, Note_on_c, 1, 41, 127
2, 2160, Note_on_c, 1, 45, 127
2, 2160, Note_on_c, 1, 50, 127
2, 2160, Note_on_c, 1, 52, 127
2, 2160, Note_off_c, 1, 57, 0
2, 2160, Note_on_c, 1, 58, 127
2, 2160, Note_off_c, 1, 65, 0
2, 2160, Note_off_c, 1, 67, 0
2, 2160, Note_on_c, 1, 72, 127
2, 2160, Note_on_c, 1, 74, 127
2, 2160, Note_on_c, 1, 82, 127
2, 2200, Note_off_c, 1, 37, 0
2, 2200, Note_off_c, 1, 41, 0
2, 2200, Note_off_c, 1, 45, 0
2, 2200, Note_off_c, 1, 50, 0
2, 2200, Note_off_c, 1, 52, 0
2, 2200, Note_off_c, 1, 58, 0
2, 2200, Note_on_c, 1, 70, 127
2, 2200, Note_off_c, 1, 72, 0
2, 2200, Note_off_c, 1, 74, 0
2, 2200, Note_off_c, 1, 82, 0
2, 2240, Note_on_c, 1, 46, 127
2, 2240, Note_off_c, 1, 70, 0
2, 2280, Note_off_c, 1, 46, 0
2, 2320, Note_on_c, 1, 31, 127
2, 2320, Note_on_c, 1, 46, 127
2, 2320, Note_on_c, 1, 50, 127
2, 2320, Note_on_c, 1, 60, 127
2, 2320, Note_on_c, 1, 62, 127
2, 2320, Note_on_c, 1, 63, 127
2, 2320, Note_on_c, 1, 64, 127
2, 2320, Note_on_c, 1, 70, 127
2, 2320, Note_on_c, 1, 74, 127
2, 2320, Note_on_c, 1, 76, 127
2, 2360, Note_off_c, 1, 31, 0
2, 2360, Note_off_c, 1, 46, 0
2, 2360, Note_off_c, 1, 60, 0
2, 2360, Note_off_c, 1, 62, 0
2, 2360, Note_off_c, 1, 63, 0
2, 2360, Note_off_c, 1, 64, 0
2, 2360, Note_off_c, 1, 70, 0
2, 2360, Note_on_c, 1, 73, 127
2, 2360, Note_off_c, 1, 74, 0
2, 2360, Note_off_c, 1, 76, 0
2, 2400, Note_off_c, 1, 50, 0
2, 2400, Note_off_c, 1, 73, 0
2, 2440, Note_on_c, 1, 52, 127
2, 2480, Note_on_c, 1, 45, 127
2, 2480, Note_off_c, 1, 52, 0
2, 2480, Note_on_c, 1, 82, 127
2, 2520, Note_off_c, 1, 45, 0
2, 2520, Note_off_c, 1, 82, 0
2, 2560, Note_on_c, 1, 41, 127
2, 2560, Note_on_c, 1, 57, 127
2, 2560, Note_on_c, 1, 63, 127
2, 2560, Note_on_c, 1, 65, 127
2, 2560, Note_on_c, 1, 72, 127
2, 2560, Note_on_c, 1, 76, 127
2, 2600, Note_on_c, 1, 38, 127
2, 2600, Note_off_c, 1, 41, 0
2, 2600, Note_on_c, 1, 46, 127
2, 2600, Note_on_c, 1, 53, 127
2, 2600, Note_on_c, 1, 61, 127
2, 2600, Note_on_c, 1, 62, 127
2, 2600, Note_on_c, 1, 66, 127
2, 2600, Note_on_c, 1, 67, 127
2, 2600, Note_off_c, 1, 72, 0
2, 2640, Note_on_c, 1, 34, 127
2, 2640, Note_off_c, 1, 38, 0
2, 2640, Note_off_c, 1, 46, 0
2, 2640, Note_off_c, 1, 53, 0
2, 2640, Note_off_c, 1, 57, 0
2, 2640, Note_on_c, 1, 60, 127
2, 2640, Note_off_c, 1, 61, 0
2, 2640, Note_off_c, 1, 62, 0
2, 2640, Note_off_c, 1, 63, 0
2, 2640, Note_off_c, 1, 66, 0
2, 2640, Note_off_c, 1, 67, 0
2, 2640, Note_off_c, 1, 76, 0
2, 2680, Note_off_c, 1, 34, 0
2, 2680, Note_on_c, 1, 35, 127
2, 2680, Note_on_c, 1, 45, 127
2, 2680, Note_on_c, 1, 46, 127
2, 2680, Note_on_c, 1, 47, 127
2, 2680, Note_on_c, 1, 49, 127
2, 2680, Note_on_c, 1, 50, 127
2, 2680, Note_on_c, 1, 53, 127
2, 2680, Note_on_c, 1, 56, 127
2, 2680, Note_off_c, 1, 60, 0
2, 2680, Note_on_c, 1, 61, 127
2, 2680, Note_on_c, 1, 72, 127
2, 2680, Note_on_c, 1, 74, 127
2, 2720, Note_off_c, 1, 35, 0
2, 2720, Note_off_c, 1, 45, 0
2, 2720, Note_off_c, 1, 46, 0
2, 2720, Note_off_c, 1, 47, 0
2, 2720, Note_off_c, 1, 49, 0
2, 2720, Note_off_c, 1, 50, 0
2, 2720, Note_off_c, 1, 53, 0
2, 2720, Note_off_c, 1, 56, 0
2, 2720, Note_off_c, 1, 61, 0
2, 2720, Note_off_c, 1, 65, 0
2, 2720, Note_on_c, 1, 70, 127
2, 2720, Note_off_c, 1, 72, 0
2, 2760, Note_on_c, 1, 53, 127
2, 2760, Note_on_c, 1, 66, 127
2, 2760, Note_off_c, 1, 70, 0
2, 2760, Note_off_c, 1, 74, 0
2, 2760, Note_on_c, 1, 77, 127
2, 2760, Note_on_c, 1, 83, 127
2, 2800, Note_off_c, 1, 53, 0
2, 2800, Note_on_c, 1, 61, 127
2, 2800, Note_off_c, 1, 66, 0
2, 2800, Note_on_c, 1, 70, 127
2, 2800, Note_on_c, 1, 72, 127
2, 2800, Note_off_c, 1, 77, 0
2, 2800, Note_off_c, 1, 83, 0
2, 2840, Note_on_c, 1, 42, 127
2, 2840, Note_on_c, 1, 49, 127
2, 2840, Note_on_c, 1, 50, 127
2, 2840, Note_on_c, 1, 55, 127
2, 2840, Note_on_c, 1, 57, 127
2, 2840, Note_on_c, 1, 65, 127
2, 2840, Note_off_c, 1, 70, 0
2, 2880, Note_off_c, 1, 42, 0
2, 2880, Note_off_c, 1, 49, 0
2, 2880, Note_off_c, 1, 55, 0
2, 2880, Note_on_c, 1, 60, 127
2, 2880, Note_off_c, 1, 61, 0
2, 2880, Note_off_c, 1, 65, 0
2, 2880, Note_on_c, 1, 69, 127
2, 2880, Note_on_c, 1, 70, 127
2, 2880, Note_on_c, 1, 74, 127
2, 2920, Note_on_c, 1, 38, 127
2, 2920, Note_on_c, 1, 46, 127
2, 2920, Note_off_c, 1, 50, 0
2, 2920, Note_on_c, 1, 51, 127
2, 2920, Note_off_c, 1, 57, 0
2, 2920, Note_off_c, 1, 60, 0
2, 2920, Note_on_c, 1, 65, 127
2, 2920, Note_off_c, 1, 69, 0
2, 2920, Note_off_c, 1, 70, 0
2, 2920, Note_off_c, 1, 72, 0
2, 2920, Note_off_c, 1, 74, 0
2, 2960, Note_on_c, 1, 37, 127
2, 2960, Note_off_c, 1, 38, 0
2, 2960, Note_off_c, 1, 46, 0
2, 2960, Note_on_c, 1, 47, 127
2, 2960, Note_on_c, 1, 50, 127
2, 2960, Note_off_c, 1, 51, 0
2, 2960, Note_on_c, 1, 55, 127
2, 2960, Note_on_c, 1, 69, 127
2, 2960, Note_on_c, 1, 70, 127
2, 2960, Note_on_c, 1, 73, 127
2, 2960, Note_on_c, 1, 74, 127
2, 2960, Note_on_c, 1, 76, 127
2, 2960, Note_on_c, 1, 82, 127
2, 3000, Note_off_c, 1, 37, 0
2, 3000, Note_on_c, 1, 40, 127
2, 3000, Note_on_c, 1, 44, 127
2, 3000, Note_off_c, 1, 47, 0
2, 3000, Note_on_c, 1, 52, 127
2, 3000, Note_off_c, 1, 55, 0
2, 3000, Note_on_c, 1, 60, 127
2, 3000, Note_on_c, 1, 61, 127
2, 3000, Note_on_c, 1, 62, 127
2, 3000, Note_on_c, 1, 64, 127
2, 3000, Note_on_c, 1, 67, 127
2, 3000, Note_off_c, 1, 70, 0
2, 3000, Note_on_c, 1, 72, 127
2, 3000, Note_off_c, 1, 73, 0
2, 3000, Note_on_c, 1, 77, 127
2, 3000, Note_off_c, 1, 82, 0
2, 3040, Note_off_c, 1, 40, 0
2, 3040, Note_off_c, 1, 44, 0
2, 3040, Note_off_c, 1, 50, 0
2, 3040, Note_off_c, 1, 52, 0
2, 3040, Note_on_c, 1, 57, 127
2, 3040, Note_off_c, 1, 60, 0
2, 3040, Note_off_c, 1, 61, 0
2, 3040, Note_off_c, 1, 62, 0
2, 3040, Note_off_c, 1, 64, 0
2, 3040, Note_off_c, 1, 65, 0
2, 3040, Note_off_c, 1, 67, 0
2, 3040, Note_off_c, 1, 69, 0
2, 3040, Note_off_c, 1, 72, 0
2, 3040, Note_off_c, 1, 74, 0
2, 3040, Note_off_c, 1, 76, 0
2, 3040, Note_off_c, 1, 77, 0
2, 3080, Note_off_c, 1, 57, 0
2, 3080, Note_on_c, 1, 65, 127
2, 3080, Note_on_c, 1, 72, 127
2, 3080, Note_on_c, 1, 76, 127
2, 3120, Note_on_c, 1, 37, 127
2, 3120, Note_off_c, 1, 72, 0
2, 3120, Note_off_c, 1, 76, 0
2, 3160, Note_off_c, 1, 37, 0
2, 3160, Note_on_c, 1, 46, 127
2, 3160, Note_on_c, 1, 50, 127
2, 3160, Note_on_c, 1, 54, 127
2, 3160, Note_on_c, 1, 62, 127
2, 3160, Note_off_c, 1, 65, 0
2, 3160, Note_on_c, 1, 68, 127
2, 3160, Note_on_c, 1, 70, 127
2, 3160, Note_on_c, 1, 72, 127
2, 3200, Note_off_c, 1, 46, 0
2, 3200, Note_off_c, 1, 54, 0
2, 3200, Note_off_c, 1, 68, 0
2, 3200, Note_off_c, 1, 70, 0
2, 3200, Note_off_c, 1, 72, 0
2, 3200, Note_on_c, 1, 74, 127
2, 3200, Note_on_c, 1, 79, 127
2, 3240, Note_on_c, 1, 46, 127
2, 3240, Note_on_c, 1, 48, 127
2, 3240, Note_off_c, 1, 50, 0
2, 3240, Note_on_c, 1, 52, 127
2, 3240, Note_on_c, 1, 57, 127
2, 3240, Note_on_c, 1, 60, 127
2, 3240, Note_off_c, 1, 62, 0
2, 3240, Note_on_c, 1, 65, 127
2, 3240, Note_on_c, 1, 70, 127
2, 3240, Note_off_c, 1, 74, 0
2, 3240, Note_off_c, 1, 79, 0
2, 3240, Note_on_c, 1, 82, 127
2, 3280, Note_off_c, 1, 46, 0
2, 3280, Note_off_c, 1, 48, 0
2, 3280, Note_off_c, 1, 52, 0
2, 3280, Note_off_c, 1, 57, 0
2, 3280, Note_off_c, 1, 60, 0
2, 3280, Note_off_c, 1, 70, 0
2, 3280, Note_off_c, 1, 82, 0
2, 3320, Note_off_c, 1, 65, 0
2, 3320, Note_on_c, 1, 72, 127
2, 3360, Note_on_c, 1, 55, 127
2, 3360, Note_on_c, 1, 69, 127
2, 3360, Note_off_c, 1, 72, 0
2, 3400, Note_off_c, 1, 55, 0
2, 3400, Note_off_c, 1, 69, 0
2, 3400, Note_on_c, 1, 77, 127
2, 3440, Note_on_c, 1, 49, 127
2, 3440, Note_on_c, 1, 52, 127
2, 3440, Note_on_c, 1, 55, 127
2, 3440, Note_on_c, 1, 69, 127
2, 3440, Note_off_c, 1, 77, 0
2, 3480, Note_on_c, 1, 44, 127
2, 3480, Note_on_c, 1, 48, 127
2, 3480, Note_off_c, 1, 49, 0
2, 3480, Note_off_c, 1, 55, 0
2, 3480, Note_on_c, 1, 66, 127
2, 3480, Note_off_c, 1, 69, 0
2, 3480, Note_on_c, 1, 70, 127
2, 3520, Note_off_c, 1, 44, 0
2, 3520, Note_off_c, 1, 48, 0
2, 3520, Note_off_c, 1, 52, 0
2, 3520, Note_off_c, 1, 66, 0
2, 3520, Note_on_c, 1, 69, 127
2, 3520, Note_off_c, 1, 70, 0
2, 3560, Note_off_c, 1, 69, 0
2, 3600, Note_on_c, 1, 46, 127
2, 3600, Note_on_c, 1, 48, 127
2, 3600, Note_on_c, 1, 62, 127
2, 3600, Note_on_c, 1, 63, 127
2, 3600, Note_on_c, 1, 65, 127
2, 3600, Note_on_c, 1, 77, 127
2, 3640, Note_off_c, 1, 46, 0
2, 3640, Note_off_c, 1, 48, 0
2, 3640, Note_off_c, 1, 63, 0
2, 3640, Note_off_c, 1, 65, 0
2, 3640, Note_off_c, 1, 77, 0
2, 3680, Note_off_c, 1, 62, 0
2, 3720, Note_on_c, 1, 55, 127
2, 3720, Note_on_c, 1, 57, 127
2, 3720, Note_on_c, 1, 65, 127
2, 3720, Note_on_c, 1, 67, 127
2, 3720, Note_on_c, 1, 72, 127
2, 3720, Note_on_c, 1, 77, 127
2, 3760, Note_off_c, 1, 55, 0
2, 3760, Note_off_c, 1, 57, 0
2, 3760, Note_off_c, 1, 72, 0
2, 3760, Note_off_c, 1, 77, 0
2, 3800, Note_on_c, 1, 55, 127
2, 3800, Note_off_c, 1, 65, 0
2, 3800, Note_off_c, 1, 67, 0
2, 3840, Note_on_c, 1, 46, 127
2, 3840, Note_off_c, 1, 55, 0
2, 3840, Note_on_c, 1, 72, 127
2, 3840, Note_on_c, 1, 80, 127
2, 3880, Note_off_c, 1, 46, 0
2, 3880, Note_off_c, 1, 72, 0
2, 3880, Note_off_c, 1, 80, 0
2, 3920, Note_on_c, 1, 50, 127
2, 3920, Note_on_c, 1, 53, 127
2, 3960, Note_off_c, 1, 50, 0
2, 3960, Note_off_c, 1, 53, 0
2, 4000, Note_on_c, 1, 53, 127
2, 4040, Note_off_c, 1, 53, 0
2, 4080, Note_on_c, 1, 58, 127
2, 4120, Note_off_c, 1, 58, 0
2, 4120, Note_on_c, 1, 65, 127
2, 4160, Note_off_c, 1, 65, 0
2, 4280, Note_on_c, 1, 58, 127
2, 4280, Note_on_c, 1, 60, 127
2, 4280, Note_on_c, 1, 67, 127
2, 4320, Note_on_c, 1, 54, 127
2, 4320, Note_off_c, 1, 58, 0
2, 4320, Note_off_c, 1, 60, 0
2, 4320, Note_off_c, 1, 67, 0
2, 4360, Note_off_c, 1, 54, 0
2, 4400, Note_on_c, 1, 52, 127
2, 4400, Note_on_c, 1, 53, 127
2, 4400, Note_on_c, 1, 56, 127
2, 4400, Note_on_c, 1, 57, 127
2, 4400, Note_on_c, 1, 58, 127
2, 4400, Note_on_c, 1, 65, 127
2, 4400, Note_on_c, 1, 67, 127
2, 4400, Note_on_c, 1, 69, 127
2, 4400, Note_on_c, 1, 74, 127
2, 4400, Note_on_c, 1, 82, 127
2, 4440, Note_off_c, 1, 52, 0
2, 4440, Note_off_c, 1, 53, 0
2, 4440, Note_off_c, 1, 56, 0
2, 4440, Note_off_c, 1, 57, 0
2, 4440, Note_off_c, 1, 65, 0
2, 4440, Note_off_c, 1, 67, 0
2, 4440, Note_on_c, 1, 72, 127
2, 4440, Note_off_c, 1, 74, 0
2, 4440, Note_on_c, 1, 77, 127
2, 4440, Note_off_c, 1, 82, 0
2, 4480, Note_on_c, 1, 49, 127
2, 4480, Note_on_c, 1, 53, 127
2, 4480, Note_on_c, 1, 56, 127
2, 4480, Note_off_c, 1, 58, 0
2, 4480, Note_on_c, 1, 62, 127
2, 4480, Note_on_c, 1, 65, 127
2, 4480, Note_off_c, 1, 69, 0
2, 4480, Note_on_c, 1, 70, 127
2, 4480, Note_off_c, 1, 72, 0
2, 4480, Note_off_c, 1, 77, 0
2, 4520, Note_off_c, 1, 49, 0
2, 4520, Note_off_c, 1, 53, 0
2, 4520, Note_off_c, 1, 56, 0
2, 4520, Note_off_c, 1, 62, 0
2, 4520, Note_off_c, 1, 65, 0
2, 4520, Note_on_c, 1, 67, 127
2, 4520, Note_off_c, 1, 70, 0
2, 4560, Note_on_c, 1, 53, 127
2, 4560, Note_off_c, 1, 67, 0
2, 4560, Note_on_c, 1, 72, 127
2, 4560, Note_on_c, 1, 74, 127
2, 4600, Note_on_c, 1, 45, 127
2, 4600, Note_on_c, 1, 52, 127
2, 4600, Note_off_c, 1, 53, 0
2, 4600, Note_on_c, 1, 65, 127
2, 4600, Note_off_c, 1, 72, 0
2, 4600, Note_off_c, 1, 74, 0
2, 4640, Note_off_c, 1, 45, 0
2, 4640, Note_off_c, 1, 52, 0
2, 4640, Note_off_c, 1, 65, 0
2, 4680, Note_on_c, 1, 53, 127
2, 4680, Note_on_c, 1, 72, 127
2, 4680, Note_on_c, 1, 78, 127
2, 4720, Note_off_c, 1, 53, 0
2, 4720, Note_off_c, 1, 72, 0
2, 4720, Note_off_c, 1, 78, 0
2, 4800, Note_on_c, 1, 53, 127
2, 4800, Note_on_c, 1, 69, 127
2, 4800, Note_on_c, 1, 70, 127
2, 4800, Note_on_c, 1, 72, 127
2, 4800, Note_on_c, 1, 79, 127
2, 4840, Note_on_c, 1, 32, 127
2, 4840, Note_on_c, 1, 45, 127
2, 4840, Note_on_c, 1, 50, 127
2, 4840, Note_off_c, 1, 53, 0
2, 4840, Note_on_c, 1, 67, 127
2, 4840, Note_on_c, 1, 68, 127
2, 4840, Note_off_c, 1, 72, 0
2, 4840, Note_on_c, 1, 74, 127
2, 4840, Note_off_c, 1, 79, 0
2, 4880, Note_off_c, 1, 32, 0
2, 4880, Note_on_c, 1, 44, 127
2, 4880, Note_off_c, 1, 45, 0
2, 4880, Note_off_c, 1, 50, 0
2, 4880, Note_on_c, 1, 64, 127
2, 4880, Note_off_c, 1, 67, 0
2, 4880, Note_off_c, 1, 68, 0
2, 4880, Note_off_c, 1, 69, 0
2, 4880, Note_off_c, 1, 70, 0
2, 4880, Note_on_c, 1, 72, 127
2, 4880, Note_on_c, 1, 76, 127
2, 4880, Note_on_c, 1, 82, 127
2, 4920, Note_off_c, 1, 44, 0
2, 4920, Note_on_c, 1, 53, 127
2, 4920, Note_off_c, 1, 64, 0
2, 4920, Note_off_c, 1, 74, 0
2, 4920, Note_off_c, 1, 76, 0
2, 4920, Note_off_c, 1, 82, 0
2, 4960, Note_off_c, 1, 53, 0
2, 4960, Note_off_c, 1, 72, 0
2, 4960, Note_on_c, 1, 74, 127
2, 5000, Note_off_c, 1, 74, 0
2, 5040, Note_on_c, 1, 57, 127
2, 5040, Note_on_c, 1, 65, 127
2, 5080, Note_off_c, 1, 57, 0
2, 5080, Note_off_c, 1, 65, 0
2, 5120, Note_on_c, 1, 62, 127
2, 5120, Note_on_c, 1, 65, 127
2, 5120, Note_on_c, 1, 69, 127
2, 5120, Note_on_c, 1, 70, 127
2, 5120, Note_on_c, 1, 77, 127
2, 5160, Note_on_c, 1, 50, 127
2, 5160, Note_off_c, 1, 62, 0
2, 5160, Note_off_c, 1, 69, 0
2, 5160, Note_off_c, 1, 70, 0
2, 5160, Note_off_c, 1, 77, 0
2, 5200, Note_off_c, 1, 50, 0
2, 5200, Note_off_c, 1, 65, 0
2, 5240, Note_on_c, 1, 46, 127
2, 5240, Note_on_c, 1, 48, 127
2, 5240, Note_on_c, 1, 52, 127
2, 5240, Note_on_c, 1, 56, 127
2, 5240, Note_on_c, 1, 57, 127
2, 5240, Note_on_c, 1, 67, 127
2, 5240, Note_on_c, 1, 74, 127
2, 5240, Note_on_c, 1, 75, 127
2, 5240, Note_on_c, 1, 77, 127
2, 5280, Note_off_c, 1, 46, 0
2, 5280, Note_off_c, 1, 48, 0
2, 5280, Note_on_c, 1, 50, 127
2, 5280, Note_off_c, 1, 52, 0
2, 5280, Note_off_c, 1, 56, 0
2, 5280, Note_off_c, 1, 57, 0
2, 5280, Note_off_c, 1, 67, 0
2, 5280, Note_off_c, 1, 74, 0
2, 5280, Note_off_c, 1, 75, 0
2, 5280, Note_off_c, 1, 77, 0
2, 5320, Note_off_c, 1, 50, 0
2, 5320, Note_on_c, 1, 59, 127
2, 5320, Note_on_c, 1, 72, 127
2, 5360, Note_off_c, 1, 59, 0
2, 5360, Note_off_c, 1, 72, 0
2, 5400, Note_on_c, 1, 40, 127
2, 5400, Note_on_c, 1, 50, 127
2, 5400, Note_on_c, 1, 65, 127
2, 5400, Note_on_c, 1, 67, 127
2, 5440, Note_off_c, 1, 40, 0
2, 5440, Note_off_c, 1, 50, 0
2, 5440, Note_off_c, 1, 65, 0
2, 5440, Note_off_c, 1, 67, 0
2, 5440, Note_on_c, 1, 71, 127
2, 5440, Note_on_c, 1, 72, 127
2, 5480, Note_on_c, 1, 46, 127
2, 5480, Note_on_c, 1, 50, 127
2, 5480, Note_on_c, 1, 55, 127
2, 5480, Note_on_c, 1, 61, 127
2, 5480, Note_on_c, 1, 63, 127
2, 5480, Note_on_c, 1, 67, 127
2, 5480, Note_on_c, 1, 70, 127
2, 5480, Note_off_c, 1, 71, 0
2, 5480, Note_off_c, 1, 72, 0
2, 5480, Note_on_c, 1, 73, 127
2, 5480, Note_on_c, 1, 74, 127
2, 5520, Note_on_c, 1, 48, 127
2, 5520, Note_off_c, 1, 55, 0
2, 5520, Note_off_c, 1, 61, 0
2, 5520, Note_off_c, 1, 63, 0
2, 5520, Note_on_c, 1, 65, 127
2, 5520, Note_off_c, 1, 67, 0
2, 5520, Note_on_c, 1, 69, 127
2, 5520, Note_off_c, 1, 70, 0
2, 5520, Note_on_c, 1, 72, 127
2, 5520, Note_off_c, 1, 73, 0
2, 5520, Note_on_c, 1, 76, 127
2, 5560, Note_off_c, 1, 46, 0
2, 5560, Note_off_c, 1, 48, 0
2, 5560, Note_off_c, 1, 50, 0
2, 5560, Note_off_c, 1, 65, 0
2, 5560, Note_off_c, 1, 69, 0
2, 5560, Note_off_c, 1, 72, 0
2, 5560, Note_off_c, 1, 74, 0
2, 5560, Note_off_c, 1, 76, 0
2, 5600, Note_on_c, 1, 46, 127
2, 5600, Note_on_c, 1, 50, 127
2, 5600, Note_on_c, 1, 53, 127
2, 5600, Note_on_c, 1, 55, 127
2, 5600, Note_on_c, 1, 62, 127
2, 5600, Note_on_c, 1, 65, 127
2, 5600, Note_on_c, 1, 72, 127
2, 5600, Note_on_c, 1, 74, 127
2, 5640, Note_off_c, 1, 46, 0
2, 5640, Note_off_c, 1, 53, 0
2, 5640, Note_on_c, 1, 57, 127
2, 5640, Note_off_c, 1, 62, 0
2, 5640, Note_off_c, 1, 65, 0
2, 5640, Note_on_c, 1, 66, 127
2, 5640, Note_on_c, 1, 67, 127
2, 5640, Note_off_c, 1, 74, 0
2, 5640, Note_on_c, 1, 81, 127
2, 5680, Note_off_c, 1, 50, 0
2, 5680, Note_off_c, 1, 57, 0
2, 5680, Note_off_c, 1, 66, 0
2, 5680, Note_off_c, 1, 67, 0
2, 5680, Note_off_c, 1, 72, 0
2, 5680, Note_off_c, 1, 81, 0
2, 5720, Note_on_c, 1, 50, 127
2, 5720, Note_off_c, 1, 55, 0
2, 5720, Note_on_c, 1, 61, 127
2, 5720, Note_on_c, 1, 62, 127
2, 5720, Note_on_c, 1, 70, 127
2, 5720, Note_on_c, 1, 71, 127
2, 5720, Note_on_c, 1, 72, 127
2, 5720, Note_on_c, 1, 74, 127
2, 5760, Note_off_c, 1, 50, 0
2, 5760, Note_off_c, 1, 61, 0
2, 5760, Note_off_c, 1, 62, 0
2, 5760, Note_off_c, 1, 71, 0
2, 5760, Note_off_c, 1, 72, 0
2, 5760, Note_off_c, 1, 74, 0
2, 5800, Note_off_c, 1, 70, 0
2, 5880, Note_on_c, 1, 43, 127
2, 5880, Note_on_c, 1, 53, 127
2, 5880, Note_on_c, 1, 57, 127
2, 5880, Note_on_c, 1, 65, 127
2, 5880, Note_on_c, 1, 66, 127
2, 5880, Note_on_c, 1, 72, 127
2, 5880, Note_on_c, 1, 75, 127
2, 5920, Note_off_c, 1, 43, 0
2, 5920, Note_off_c, 1, 53, 0
2, 5920, Note_off_c, 1, 57, 0
2, 5920, Note_off_c, 1, 65, 0
2, 5920, Note_off_c, 1, 66, 0
2, 5920, Note_off_c, 1, 72, 0
2, 5920, Note_off_c, 1, 75, 0
2, 5960, Note_on_c, 1, 52, 127
2, 5960, Note_on_c, 1, 61, 127
2, 6000, Note_off_c, 1, 52, 0
2, 6000, Note_off_c, 1, 61, 0
2, 6000, Note_on_c, 1, 72, 127
2, 6000, Note_on_c, 1, 74, 127
2, 6040, Note_on_c, 1, 48, 127
2, 6040, Note_on_c, 1, 53, 127
2, 6040, Note_on_c, 1, 69, 127
2, 6040, Note_off_c, 1, 74, 0
2, 6040, Note_on_c, 1, 79, 127
2, 6080, Note_off_c, 1, 48, 0
2, 6080, Note_off_c, 1, 53, 0
2, 6080, Note_on_c, 1, 65, 127
2, 6080, Note_on_c, 1, 67, 127
2, 6080, Note_off_c, 1, 69, 0
2, 6080, Note_off_c, 1, 72, 0
2, 6080, Note_off_c, 1, 79, 0
2, 6120, Note_off_c, 1, 65, 0
2, 6120, Note_off_c, 1, 67, 0
2, 6160, Note_on_c, 1, 39, 127
2, 6160, Note_on_c, 1, 57, 127
2, 6160, Note_on_c, 1, 68, 127
2, 6160, Note_on_c, 1, 70, 127
2, 6160, Note_on_c, 1, 74, 127
2, 6200, Note_off_c, 1, 39, 0
2, 6200, Note_off_c, 1, 57, 0
2, 6200, Note_off_c, 1, 68, 0
2, 6200, Note_off_c, 1, 70, 0
2, 6200, Note_on_c, 1, 72, 127
2, 6200, Note_off_c, 1, 74, 0
2, 6240, Note_on_c, 1, 62, 127
2, 6240, Note_off_c, 1, 72, 0
2, 6280, Note_on_c, 1, 43, 127
2, 6280, Note_on_c, 1, 52, 127
2, 6280, Note_on_c, 1, 57, 127
2, 6280, Note_off_c, 1, 62, 0
2, 6280, Note_on_c, 1, 65, 127
2, 6280, Note_on_c, 1, 69, 127
2, 6280, Note_on_c, 1, 70, 127
2, 6280, Note_on_c, 1, 72, 127
2, 6280, Note_on_c, 1, 78, 127
2, 6320, Note_off_c, 1, 43, 0
2, 6320, Note_off_c, 1, 52, 0
2, 6320, Note_off_c, 1, 57, 0
2, 6320, Note_off_c, 1, 65, 0
2, 6320, Note_on_c, 1, 67, 127
2, 6320, Note_off_c, 1, 69, 0
2, 6320, Note_off_c, 1, 70, 0
2, 6320, Note_off_c, 1, 78, 0
2, 6360, Note_on_c, 1, 54, 127
2, 6360, Note_on_c, 1, 65, 127
2, 6360, Note_off_c, 1, 67, 0
2, 6360, Note_on_c, 1, 68, 127
2, 6360, Note_on_c, 1, 71, 127
2, 6360, Note_on_c, 1, 76, 127
2, 6400, Note_on_c, 1, 46, 127
2, 6400, Note_on_c, 1, 50, 127
2, 6400, Note_on_c, 1, 53, 127
2, 6400, Note_off_c, 1, 54, 0
2, 6400, Note_on_c, 1, 57, 127
2, 6400, Note_on_c, 1, 59, 127
2, 6400, Note_on_c, 1, 60, 127
2, 6400, Note_on_c, 1, 61, 127
2, 6400, Note_on_c, 1, 62, 127
2, 6400, Note_on_c, 1, 66, 127
2, 6400, Note_on_c, 1, 67, 127
2, 6400, Note_off_c, 1, 68, 0
2, 6400, Note_off_c, 1, 71, 0
2, 6400, Note_off_c, 1, 72, 0
2, 6400, Note_on_c, 1, 74, 127
2, 6400, Note_off_c, 1, 76, 0
2, 6400, Note_on_c, 1, 79, 127
2, 6400, Note_on_c, 1, 82, 127
2, 6440, Note_off_c, 1, 46, 0
2, 6440, Note_off_c, 1, 50, 0
2, 6440, Note_off_c, 1, 53, 0
2, 6440, Note_on_c, 1, 55, 127
2, 6440, Note_off_c, 1, 57, 0
2, 6440, Note_off_c, 1, 59, 0
2, 6440, Note_off_c, 1, 60, 0
2, 6440, Note_off_c, 1, 61, 0
2, 6440, Note_off_c, 1, 62, 0
2, 6440, Note_off_c, 1, 65, 0
2, 6440, Note_off_c, 1, 66, 0
2, 6440, Note_off_c, 1, 67, 0
2, 6440, Note_off_c, 1, 74, 0
2, 6440, Note_off_c, 1, 79, 0
2, 6440, Note_off_c, 1, 82, 0
2, 6480, Note_off_c, 1, 55, 0
2, 6560, Note_on_c, 1, 62, 127
2, 6560, Note_on_c, 1, 76, 127
2, 6600, Note_on_c, 1, 60, 127
2, 6600, Note_off_c, 1, 62, 0
2, 6600, Note_off_c, 1, 76, 0
2, 6640, Note_off_c, 1, 60, 0
2, 6640, Note_on_c, 1, 81, 127
2, 6680, Note_on_c, 1, 50, 127
2, 6680, Note_on_c, 1, 69, 127
2, 6680, Note_off_c, 1, 81, 0
2, 6720, Note_on_c, 1, 44, 127
2, 6720, Note_on_c, 1, 53, 127
2, 6720, Note_off_c, 1, 69, 0
2, 6720, Note_on_c, 1, 72, 127
2, 6760, Note_off_c, 1, 44, 0
2, 6760, Note_off_c, 1, 50, 0
2, 6760, Note_on_c, 1, 52, 127
2, 6760, Note_off_c, 1, 53, 0
2, 6760, Note_on_c, 1, 62, 127
2, 6760, Note_on_c, 1, 65, 127
2, 6760, Note_off_c, 1, 72, 0
2, 6800, Note_on_c, 1, 50, 127
2, 6800, Note_off_c, 1, 52, 0
2, 6800, Note_off_c, 1, 62, 0
2, 6800, Note_off_c, 1, 65, 0
2, 6840, Note_off_c, 1, 50, 0
2, 6840, Note_on_c, 1, 67, 127
2, 6880, Note_off_c, 1, 67, 0
2, 6880, Note_on_c, 1, 80, 127
2, 6920, Note_on_c, 1, 36, 127
2, 6920, Note_on_c, 1, 41, 127
2, 6920, Note_on_c, 1, 44, 127
2, 6920, Note_on_c, 1, 50, 127
2, 6920, Note_on_c, 1, 52, 127
2, 6920, Note_on_c, 1, 67, 127
2, 6920, Note_off_c, 1, 80, 0
2, 6960, Note_off_c, 1, 36, 0
2, 6960, Note_off_c, 1, 41, 0
2, 6960, Note_off_c, 1, 44, 0
2, 6960, Note_off_c, 1, 50, 0
2, 6960, Note_off_c, 1, 52, 0
2, 6960, Note_on_c, 1, 57, 127
2, 6960, Note_on_c, 1, 62, 127
2, 6960, Note_on_c, 1, 64, 127
2, 6960, Note_off_c, 1, 67, 0
2, 6960, Note_on_c, 1, 70, 127
2, 6960, Note_on_c, 1, 81, 127
2, 7000, Note_off_c, 1, 57, 0
2, 7000, Note_off_c, 1, 62, 0
2, 7000, Note_off_c, 1, 64, 0
2, 7000, Note_off_c, 1, 70, 0
2, 7000, Note_off_c, 1, 81, 0
2, 7080, Note_on_c, 1, 72, 127
2, 7120, Note_off_c, 1, 72, 0
2, 7160, Note_on_c, 1, 62, 127
2, 7160, Note_on_c, 1, 74, 127
2, 7200, Note_off_c, 1, 62, 0
2, 7200, Note_off_c, 1, 74, 0
2, 7200, Note_on_c, 1, 77, 127
2, 7240, Note_on_c, 1, 49, 127
2, 7240, Note_on_c, 1, 55, 127
2, 7240, Note_on_c, 1, 63, 127
2, 7240, Note_on_c, 1, 65, 127
2, 7240, Note_off_c, 1, 77, 0
2, 7280, Note_on_c, 1, 46, 127
2, 7280, Note_off_c, 1, 49, 0
2, 7280, Note_on_c, 1, 50, 127
2, 7280, Note_on_c, 1, 53, 127
2, 7280, Note_off_c, 1, 55, 0
2, 7280, Note_off_c, 1, 63, 0
2, 7280, Note_off_c, 1, 65, 0
2, 7280, Note_on_c, 1, 67, 127
2, 7280, Note_on_c, 1, 69, 127
2, 7280, Note_on_c, 1, 74, 127
2, 7320, Note_off_c, 1, 46, 0
2, 7320, Note_off_c, 1, 50, 0
2, 7320, Note_on_c, 1, 55, 127
2, 7320, Note_off_c, 1, 67, 0
2, 7320, Note_off_c, 1, 69, 0
2, 7320, Note_off_c, 1, 74, 0
2, 7360, Note_off_c, 1, 53, 0
2, 7360, Note_off_c, 1, 55, 0
2, 7400, Note_on_c, 1, 52, 127
2, 7400, Note_on_c, 1, 63, 127
2, 7400, Note_on_c, 1, 67, 127
2, 7400, Note_on_c, 1, 70, 127
2, 7400, Note_on_c, 1, 74, 127
2, 7400, Note_on_c, 1, 76, 127
2, 7440, Note_on_c, 1, 43, 127
2, 7440, Note_on_c, 1, 48, 127
2, 7440, Note_off_c, 1, 52, 0
2, 7440, Note_off_c, 1, 63, 0
2, 7440, Note_off_c, 1, 70, 0
2, 7440, Note_off_c, 1, 74, 0
2, 7440, Note_off_c, 1, 76, 0
2, 7480, Note_off_c, 1, 43, 0
2, 7480, Note_off_c, 1, 48, 0
2, 7480, Note_on_c, 1, 63, 127
2, 7480, Note_on_c, 1, 65, 127
2, 7480, Note_off_c, 1, 67, 0
2, 7480, Note_on_c, 1, 69, 127
2, 7480, Note_on_c, 1, 72, 127
2, 7520, Note_on_c, 1, 49, 127
2, 7520, Note_on_c, 1, 52, 127
2, 7520, Note_off_c, 1, 63, 0
2, 7520, Note_off_c, 1, 65, 0
2, 7520, Note_off_c, 1, 69, 0
2, 7520, Note_off_c, 1, 72, 0
2, 7520, Note_on_c, 1, 74, 127
2, 7520, Note_on_c, 1, 75, 127
2, 7560, Note_on_c, 1, 46, 127
2, 7560, Note_off_c, 1, 49, 0
2, 7560, Note_off_c, 1, 52, 0
2, 7560, Note_off_c, 1, 74, 0
2, 7560, Note_off_c, 1, 75, 0
2, 7600, Note_off_c, 1, 46, 0
2, 7600, Note_on_c, 1, 53, 127
2, 7600, Note_on_c, 1, 62, 127
2, 7640, Note_off_c, 1, 53, 0
2, 7640, Note_off_c, 1, 62, 0
2, 7640, Note_on_c, 1, 70, 127
2, 7680, Note_on_c, 1, 32, 127
2, 7680, Note_on_c, 1, 42, 127
2, 7680, Note_on_c, 1, 50, 127
2, 7680, Note_on_c, 1, 57, 127
2, 7680, Note_on_c, 1, 60, 127
2, 7680, Note_on_c, 1, 62, 127
2, 7680, Note_on_c, 1, 65, 127
2, 7680, Note_on_c, 1, 72, 127
2, 7680, Note_on_c, 1, 76, 127
2, 7720, Note_off_c, 1, 32, 0
2, 7720, Note_off_c, 1, 42, 0
2, 7720, Note_off_c, 1, 50, 0
2, 7720, Note_off_c, 1, 57, 0
2, 7720, Note_off_c, 1, 60, 0
2, 7720, Note_off_c, 1, 62, 0
2, 7720, Note_off_c, 1, 65, 0
2, 7720, Note_off_c, 1, 70, 0
2, 7720, Note_off_c, 1, 72, 0
2, 7720, Note_off_c, 1, 76, 0
2, 7760, Note_on_c, 1, 42, 127
2, 7760, Note_on_c, 1, 49, 127
2, 7760, Note_on_c, 1, 67, 127
2, 7800, Note_off_c, 1, 42, 0
2, 7800, Note_on_c, 1, 46, 127
2, 7800, Note_off_c, 1, 49, 0
2, 7800, Note_off_c, 1, 67, 0
2, 7840, Note_off_c, 1, 46, 0
2, 7840, Note_on_c, 1, 52, 127
2, 7840, Note_on_c, 1, 71, 127
2, 7840, Note_on_c, 1, 72, 127
2, 7840, Note_on_c, 1, 79, 127
2, 7880, Note_off_c, 1, 52, 0
2, 7880, Note_on_c, 1, 56, 127
2, 7880, Note_on_c, 1, 70, 127
2, 7880, Note_off_c, 1, 71, 0
2, 7880, Note_off_c, 1, 79, 0
2, 7920, Note_off_c, 1, 56, 0
2, 7920, Note_off_c, 1, 70, 0
2, 8000, Note_on_c, 1, 41, 127
2, 8000, Note_on_c, 1, 44, 127
2, 8000, Note_on_c, 1, 49, 127
2, 8000, Note_on_c, 1, 51, 127
2, 8000, Note_on_c, 1, 53, 127
2, 8000, Note_on_c, 1, 55, 127
2, 8000, Note_on_c, 1, 57, 127
2, 8000, Note_on_c, 1, 58, 127
2, 8000, Note_on_c, 1, 62, 127
2, 8000, Note_on_c, 1, 64, 127
2, 8000, Note_on_c, 1, 65, 127
2, 8000, Note_on_c, 1, 67, 127
2, 8000, Note_on_c, 1, 69, 127
2, 8000, Note_on_c, 1, 70, 127
2, 8000, Note_on_c, 1, 76, 127
2, 8000, Note_on_c, 1, 77, 127
2, 8040, Note_off_c, 1, 41, 0
2, 8040, Note_off_c, 1, 44, 0
2, 8040, Note_off_c, 1, 49, 0
2, 8040, Note_off_c, 1, 51, 0
2, 8040, Note_off_c, 1, 53, 0
2, 8040, Note_off_c, 1, 55, 0
2, 8040, Note_off_c, 1, 57, 0
2, 8040, Note_off_c, 1, 58, 0
2, 8040, Note_off_c, 1, 62, 0
2, 8040, Note_off_c, 1, 64, 0
2, 8040, Note_off_c, 1, 65, 0
2, 8040, Note_off_c, 1, 67, 0
2, 8040, Note_off_c, 1, 69, 0
2, 8040, Note_off_c, 1, 70, 0
2, 8040, Note_off_c, 1, 72, 0
2, 8080, Note_on_c, 1, 44, 127
2, 8080, Note_on_c, 1, 60, 127
2, 8080, Note_off_c, 1, 76, 0
2, 8080, Note_off_c, 1, 77, 0
2, 8120, Note_on_c, 1, 35, 127
2, 8120, Note_on_c, 1, 41, 127
2, 8120, Note_off_c, 1, 44, 0
2, 8120, Note_on_c, 1, 46, 127
2, 8120, Note_on_c, 1, 53, 127
2, 8120, Note_on_c, 1, 54, 127
2, 8120, Note_off_c, 1, 60, 0
2, 8120, Note_on_c, 1, 62, 127
2, 8120, Note_on_c, 1, 65, 127
2, 8120, Note_on_c, 1, 67, 127
2, 8120, Note_on_c, 1, 68, 127
2, 8120, Note_on_c, 1, 82, 127
2, 8160, Note_off_c, 1, 35, 0
2, 8160, Note_off_c, 1, 41, 0
2, 8160, Note_off_c, 1, 46, 0
2, 8160, Note_off_c, 1, 53, 0
2, 8160, Note_off_c, 1, 54, 0
2, 8160, Note_off_c, 1, 62, 0
2, 8160, Note_off_c, 1, 65, 0
2, 8160, Note_off_c, 1, 67, 0
2, 8160, Note_off_c, 1, 68, 0
2, 8160, Note_off_c, 1, 82, 0
2, 8200, Note_on_c, 1, 45, 127
2, 8200, Note_on_c, 1, 46, 127
2, 8200, Note_on_c, 1, 48, 127
2, 8200, Note_on_c, 1, 60, 127
2, 8200, Note_on_c, 1, 61, 127
2, 8200, Note_on_c, 1, 66, 127
2, 8200, Note_on_c, 1, 68, 127
2, 8240, Note_off_c, 1, 45, 0
2, 8240, Note_off_c, 1, 48, 0
2, 8240, Note_on_c, 1, 49, 127
2, 8240, Note_on_c, 1, 55, 127
2, 8240, Note_off_c, 1, 60, 0
2, 8240, Note_off_c, 1, 61, 0
2, 8240, Note_off_c, 1, 66, 0
2, 8240, Note_off_c, 1, 68, 0
2, 8240, Note_on_c, 1, 69, 127
2, 8280, Note_off_c, 1, 46, 0
2, 8280, Note_off_c, 1, 49, 0
2, 8280, Note_off_c, 1, 55, 0
2, 8280, Note_off_c, 1, 69, 0
2, 8280, Note_on_c, 1, 76, 127
2, 8320, Note_off_c, 1, 76, 0
2, 8360, Note_on_c, 1, 62, 127
2, 8360, Note_on_c, 1, 65, 127
2, 8400, Note_on_c, 1, 40, 127
2, 8400, Note_on_c, 1, 55, 127
2, 8400, Note_off_c, 1, 62, 0
2, 8400, Note_on_c, 1, 63, 127
2, 8400, Note_off_c, 1, 65, 0
2, 8400, Note_on_c, 1, 72, 127
2, 8440, Note_off_c, 1, 40, 0
2, 8440, Note_on_c, 1, 46, 127
2, 8440, Note_on_c, 1, 57, 127
2, 8440, Note_off_c, 1, 63, 0
2, 8440, Note_on_c, 1, 65, 127
2, 8440, Note_on_c, 1, 69, 127
2, 8480, Note_off_c, 1, 46, 0
2, 8480, Note_on_c, 1, 49, 127
2, 8480, Note_off_c, 1, 57, 0
2, 8480, Note_on_c, 1, 62, 127
2, 8480, Note_on_c, 1, 64, 127
2, 8480, Note_on_c, 1, 70, 127
2, 8480, Note_on_c, 1, 71, 127
2, 8520, Note_off_c, 1, 49, 0
2, 8520, Note_on_c, 1, 50, 127
2, 8520, Note_off_c, 1, 55, 0
2, 8520, Note_off_c, 1, 64, 0
2, 8520, Note_off_c, 1, 65, 0
2, 8520, Note_off_c, 1, 69, 0
2, 8520, Note_off_c, 1, 70, 0
2, 8520, Note_off_c, 1, 71, 0
2, 8520, Note_off_c, 1, 72, 0
2, 8560, Note_off_c, 1, 50, 0
2, 8560, Note_on_c, 1, 52, 127
2, 8560, Note_on_c, 1, 65, 127
2, 8560, Note_on_c, 1, 69, 127
2, 8560, Note_on_c, 1, 76, 127
2, 8560, Note_on_c, 1, 78, 127
2, 8560, Note_on_c, 1, 81, 127
2, 8600, Note_on_c, 1, 45, 127
2, 8600, Note_on_c, 1, 49, 127
2, 8600, Note_off_c, 1, 52, 0
2, 8600, Note_off_c, 1, 62, 0
2, 8600, Note_off_c, 1, 65, 0
2, 8600, Note_off_c, 1, 69, 0
2, 8600, Note_off_c, 1, 76, 0
2, 8600, Note_off_c, 1, 78, 0
2, 8600, Note_off_c, 1, 81, 0
2, 8640, Note_off_c, 1, 45, 0
2, 8640, Note_off_c, 1, 49, 0
2, 8720, Note_on_c, 1, 57, 127
2, 8720, Note_on_c, 1, 60, 127
2, 8720, Note_on_c, 1, 69, 127
2, 8720, Note_on_c, 1, 79, 127
2, 8760, Note_off_c, 1, 57, 0
2, 8760, Note_off_c, 1, 60, 0
2, 8760, Note_on_c, 1, 61, 127
2, 8760, Note_on_c, 1, 74, 127
2, 8760, Note_on_c, 1, 77, 127
2, 8760, Note_off_c, 1, 79, 0
2, 8800, Note_off_c, 1, 61, 0
2, 8800, Note_off_c, 1, 69, 0
2, 8800, Note_off_c, 1, 74, 0
2, 8800, Note_off_c, 1, 77, 0
2, 8840, Note_on_c, 1, 44, 127
2, 8840, Note_on_c, 1, 62, 127
2, 8880, Note_on_c, 1, 32, 127
2, 8880, Note_off_c, 1, 44, 0
2, 8880, Note_off_c, 1, 62, 0
2, 8880, Note_on_c, 1, 72, 127
2, 8920, Note_off_c, 1, 32, 0
2, 8920, Note_on_c, 1, 50, 127
2, 8920, Note_on_c, 1, 57, 127
2, 8920, Note_on_c, 1, 65, 127
2, 8920, Note_on_c, 1, 67, 127
2, 8920, Note_on_c, 1, 70, 127
2, 8920, Note_off_c, 1, 72, 0
2, 8960, Note_off_c, 1, 50, 0
2, 8960, Note_off_c, 1, 57, 0
2, 8960, Note_on_c, 1, 61, 127
2, 8960, Note_off_c, 1, 65, 0
2, 8960, Note_off_c, 1, 67, 0
2, 8960, Note_off_c, 1, 70, 0
2, 9000, Note_off_c, 1, 61, 0
2, 9080, Note_on_c, 1, 56, 127
2, 9080, Note_on_c, 1, 67, 127
2, 9080, Note_on_c, 1, 69, 127
2, 9120, Note_on_c, 1, 49, 127
2, 9120, Note_on_c, 1, 53, 127
2, 9120, Note_off_c, 1, 56, 0
2, 9120, Note_off_c, 1, 69, 0
2, 9160, Note_on_c, 1, 40, 127
2, 9160, Note_off_c, 1, 49, 0
2, 9160, Note_off_c, 1, 53, 0
2, 9160, Note_on_c, 1, 62, 127
2, 9160, Note_on_c, 1, 64, 127
2, 9160, Note_on_c, 1, 65, 127
2, 9160, Note_off_c, 1, 67, 0
2, 9200, Note_off_c, 1, 40, 0
2, 9200, Note_on_c, 1, 50, 127
2, 9200, Note_off_c, 1, 62, 0
2, 9200, Note_off_c, 1, 64, 0
2, 9200, Note_off_c, 1, 65, 0
2, 9240, Note_off_c, 1, 50, 0
2, 9240, Note_on_c, 1, 77, 127
2, 9280, Note_on_c, 1, 44, 127
2, 9280, Note_on_c, 1, 63, 127
2, 9280, Note_on_c, 1, 65, 127
2, 9280, Note_on_c, 1, 72, 127
2, 9280, Note_off_c, 1, 77, 0
2, 9320, Note_off_c, 1, 44, 0
2, 9320, Note_off_c, 1, 63, 0
2, 9320, Note_off_c, 1, 65, 0
2, 9360, Note_on_c, 1, 57, 127
2, 9360, Note_off_c, 1, 72, 0
2, 9360, Note_on_c, 1, 74, 127
2, 9400, Note_off_c, 1, 57, 0
2, 9400, Note_on_c, 1, 65, 127
2, 9400, Note_off_c, 1, 74, 0
2, 9440, Note_on_c, 1, 41, 127
2, 9440, Note_on_c, 1, 53, 127
2, 9440, Note_on_c, 1, 55, 127
2, 9440, Note_on_c, 1, 57, 127
2, 9440, Note_on_c, 1, 59, 127
2, 9440, Note_on_c, 1, 72, 127
2, 9440, Note_on_c, 1, 82, 127
2, 9480, Note_off_c, 1, 41, 0
2, 9480, Note_off_c, 1, 55, 0
2, 9480, Note_off_c, 1, 57, 0
2, 9480, Note_off_c, 1, 59, 0
2, 9480, Note_on_c, 1, 60, 127
2, 9480, Note_off_c, 1, 65, 0
2, 9480, Note_off_c, 1, 72, 0
2, 9480, Note_off_c, 1, 82, 0
2, 9520, Note_on_c, 1, 33, 127
2, 9520, Note_on_c, 1, 46, 127
2, 9520, Note_on_c, 1, 50, 127
2, 9520, Note_off_c, 1, 53, 0
2, 9520, Note_on_c, 1, 57, 127
2, 9520, Note_off_c, 1, 60, 0
2, 9520, Note_on_c, 1, 65, 127
2, 9520, Note_on_c, 1, 69, 127
2, 9520, Note_on_c, 1, 72, 127
2, 9520, Note_on_c, 1, 74, 127
2, 9520, Note_on_c, 1, 76, 127
2, 9520, Note_on_c, 1, 77, 127
2, 9560, Note_off_c, 1, 33, 0
2, 9560, Note_off_c, 1, 50, 0
2, 9560, Note_on_c, 1, 62, 127
2, 9560, Note_on_c, 1, 63, 127
2, 9560, Note_off_c, 1, 69, 0
2, 9560, Note_off_c, 1, 72, 0
2, 9560, Note_off_c, 1, 76, 0
2, 9560, Note_off_c, 1, 77, 0
2, 9600, Note_off_c, 1, 46, 0
2, 9600, Note_on_c, 1, 52, 127
2, 9600, Note_off_c, 1, 57, 0
2, 9600, Note_off_c, 1, 63, 0
2, 9600, Note_off_c, 1, 74, 0
2, 9600, Note_on_c, 1, 77, 127
2, 9640, Note_off_c, 1, 52, 0
2, 9640, Note_off_c, 1, 62, 0
2, 9640, Note_off_c, 1, 65, 0
2, 9640, Note_on_c, 1, 72, 127
2, 9640, Note_on_c, 1, 74, 127
2, 9640, Note_off_c, 1, 77, 0
2, 9680, Note_on_c, 1, 49, 127
2, 9680, Note_on_c, 1, 50, 127
2, 9680, Note_on_c, 1, 57, 127
2, 9680, Note_on_c, 1, 64, 127
2, 9680, Note_on_c, 1, 65, 127
2, 9680, Note_on_c, 1, 70, 127
2, 9680, Note_off_c, 1, 72, 0
2, 9680, Note_off_c, 1, 74, 0
2, 9720, Note_on_c, 1, 45, 127
2, 9720, Note_on_c, 1, 48, 127
2, 9720, Note_off_c, 1, 49, 0
2, 9720, Note_off_c, 1, 50, 0
2, 9720, Note_on_c, 1, 52, 127
2, 9720, Note_off_c, 1, 57, 0
2, 9720, Note_off_c, 1, 64, 0
2, 9720, Note_off_c, 1, 65, 0
2, 9720, Note_on_c, 1, 69, 127
2, 9720, Note_off_c, 1, 70, 0
2, 9720, Note_on_c, 1, 71, 127
2, 9760, Note_off_c, 1, 45, 0
2, 9760, Note_off_c, 1, 48, 0
2, 9760, Note_off_c, 1, 52, 0
2, 9760, Note_on_c, 1, 63, 127
2, 9760, Note_off_c, 1, 69, 0
2, 9760, Note_on_c, 1, 70, 127
2, 9760, Note_off_c, 1, 71, 0
2, 9800, Note_on_c, 1, 51, 127
2, 9800, Note_on_c, 1, 60, 127
2, 9800, Note_off_c, 1, 63, 0
2, 9800, Note_on_c, 1, 65, 127
2, 9800, Note_on_c, 1, 71, 127
2, 9800, Note_on_c, 1, 74, 127
2, 9800, Note_on_c, 1, 80, 127
2, 9840, Note_on_c, 1, 47, 127
2, 9840, Note_off_c, 1, 51, 0
2, 9840, Note_on_c, 1, 54, 127
2, 9840, Note_on_c, 1, 59, 127
2, 9840, Note_off_c, 1, 60, 0
2, 9840, Note_off_c, 1, 65, 0
2, 9840, Note_off_c, 1, 71, 0
2, 9840, Note_off_c, 1, 74, 0
2, 9840, Note_off_c, 1, 80, 0
2, 9880, Note_off_c, 1, 47, 0
2, 9880, Note_on_c, 1, 50, 127
2, 9880, Note_off_c, 1, 54, 0
2, 9880, Note_off_c, 1, 59, 0
2, 9880, Note_off_c, 1, 70, 0
2, 9920, Note_on_c, 1, 40, 127
2, 9920, Note_off_c, 1, 50, 0
2, 9920, Note_on_c, 1, 72, 127
2, 9920, Note_on_c, 1, 73, 127
2, 9960, Note_off_c, 1, 40, 0
2, 9960, Note_on_c, 1, 65, 127
2, 9960, Note_off_c, 1, 72, 0
2, 9960, Note_off_c, 1, 73, 0
2, 9960, Note_on_c, 1, 74, 127
2, 10000, Note_off_c, 1, 65, 0
2, 10000, Note_off_c, 1, 74, 0
2, 10040, Note_on_c, 1, 48, 127
2, 10040, Note_on_c, 1, 50, 127
2, 10040, Note_on_c, 1, 57, 127
2, 10040, Note_on_c, 1, 62, 127
2, 10040, Note_on_c, 1, 72, 127
2, 10080, Note_off_c, 1, 48, 0
2, 10080, Note_on_c, 1, 53, 127
2, 10080, Note_on_c, 1, 54, 127
2, 10080, Note_off_c, 1, 57, 0
2, 10080, Note_on_c, 1, 61, 127
2, 10080, Note_on_c, 1, 63, 127
2, 10080, Note_on_c, 1, 70, 127
2, 10080, Note_off_c, 1, 72, 0
2, 10080, Note_on_c, 1, 73, 127
2, 10120, Note_off_c, 1, 50, 0
2, 10120, Note_off_c, 1, 53, 0
2, 10120, Note_off_c, 1, 54, 0
2, 10120, Note_on_c, 1, 56, 127
2, 10120, Note_on_c, 1, 60, 127
2, 10120, Note_off_c, 1, 61, 0
2, 10120, Note_off_c, 1, 63, 0
2, 10120, Note_on_c, 1, 65, 127
2, 10120, Note_on_c, 1, 69, 127
2, 10120, Note_off_c, 1, 70, 0
2, 10120, Note_off_c, 1, 73, 0
2, 10160, Note_on_c, 1, 41, 127
2, 10160, Note_on_c, 1, 46, 127
2, 10160, Note_on_c, 1, 47, 127
2, 10160, Note_off_c, 1, 56, 0
2, 10160, Note_on_c, 1, 58, 127
2, 10160, Note_on_c, 1, 59, 127
2, 10160, Note_on_c, 1, 64, 127
2, 10160, Note_off_c, 1, 65, 0
2, 10160, Note_off_c, 1, 69, 0
2, 10160, Note_on_c, 1, 71, 127
2, 10200, Note_off_c, 1, 41, 0
2, 10200, Note_off_c, 1, 47, 0
2, 10200, Note_off_c, 1, 58, 0
2, 10200, Note_off_c, 1, 59, 0
2, 10200, Note_off_c, 1, 60, 0
2, 10200, Note_off_c, 1, 62, 0
2, 10200, Note_off_c, 1, 64, 0
2, 10200, Note_on_c, 1, 70, 127
2, 10200, Note_off_c, 1, 71, 0
2, 10240, Note_off_c, 1, 46, 0
2, 10240, Note_off_c, 1, 70, 0
2, 10240, Note_on_c, 1, 77, 127
2, 10280, Note_on_c, 1, 38, 127
2, 10280, Note_on_c, 1, 46, 127
2, 10280, Note_on_c, 1, 48, 127
2, 10280, Note_on_c, 1, 50, 127
2, 10280, Note_on_c, 1, 53, 127
2, 10280, Note_on_c, 1, 57, 127
2, 10280, Note_on_c, 1, 62, 127
2, 10280, Note_on_c, 1, 65, 127
2, 10280, Note_on_c, 1, 67, 127
2, 10280, Note_on_c, 1, 71, 127
2, 10280, Note_on_c, 1, 74, 127
2, 10280, Note_on_c, 1, 76, 127
2, 10280, Note_off_c, 1, 77, 0
2, 10320, Note_off_c, 1, 38, 0
2, 10320, Note_off_c, 1, 46, 0
2, 10320, Note_off_c, 1, 48, 0
2, 10320, Note_off_c, 1, 50, 0
2, 10320, Note_off_c, 1, 53, 0
2, 10320, Note_off_c, 1, 57, 0
2, 10320, Note_off_c, 1, 62, 0
2, 10320, Note_off_c, 1, 65, 0
2, 10320, Note_off_c, 1, 67, 0
2, 10320, Note_off_c, 1, 71, 0
2, 10320, Note_off_c, 1, 74, 0
2, 10320, Note_off_c, 1, 76, 0
2, 10360, Note_on_c, 1, 56, 127
2, 10360, Note_on_c, 1, 72, 127
2, 10400, Note_on_c, 1, 38, 127
2, 10400, Note_on_c, 1, 48, 127
2, 10400, Note_on_c, 1, 50, 127
2, 10400, Note_off_c, 1, 56, 0
2, 10400, Note_on_c, 1, 60, 127
2, 10400, Note_on_c, 1, 70, 127
2, 10440, Note_off_c, 1, 38, 0
2, 10440, Note_off_c, 1, 48, 0
2, 10440, Note_off_c, 1, 50, 0
2, 10440, Note_off_c, 1, 60, 0
2, 10440, Note_off_c, 1, 70, 0
2, 10440, Note_off_c, 1, 72, 0
2, 10480, Note_on_c, 1, 50, 127
2, 10480, Note_on_c, 1, 62, 127
2, 10480, Note_on_c, 1, 70, 127
2, 10480, Note_on_c, 1, 76, 127
2, 10480, Note_on_c, 1, 77, 127
2, 10520, Note_off_c, 1, 50, 0
2, 10520, Note_on_c, 1, 52, 127
2, 10520, Note_on_c, 1, 57, 127
2, 10520, Note_off_c, 1, 62, 0
2, 10520, Note_off_c, 1, 70, 0
2, 10520, Note_off_c, 1, 76, 0
2, 10520, Note_off_c, 1, 77, 0
2, 10560, Note_off_c, 1, 52, 0
2, 10560, Note_off_c, 1, 57, 0
2, 10560, Note_on_c, 1, 58, 127
2, 10560, Note_on_c, 1, 67, 127
2, 10560, Note_on_c, 1, 72, 127
2, 10600, Note_on_c, 1, 43, 127
2, 10600, Note_on_c, 1, 46, 127
2, 10600, Note_on_c, 1, 49, 127
2, 10600, Note_on_c, 1, 53, 127
2, 10600, Note_off_c, 1, 58, 0
2, 10600, Note_on_c, 1, 62, 127
2, 10600, Note_on_c, 1, 65, 127
2, 10600, Note_off_c, 1, 67, 0
2, 10600, Note_on_c, 1, 69, 127
2, 10600, Note_on_c, 1, 71, 127
2, 10600, Note_on_c, 1, 74, 127
2, 10640, Note_off_c, 1, 43, 0
2, 10640, Note_off_c, 1, 46, 0
2, 10640, Note_off_c, 1, 49, 0
2, 10640, Note_on_c, 1, 52, 127
2, 10640, Note_off_c, 1, 53, 0
2, 10640, Note_on_c, 1, 57, 127
2, 10640, Note_off_c, 1, 62, 0
2, 10640, Note_off_c, 1, 65, 0
2, 10640, Note_off_c, 1, 69, 0
2, 10640, Note_off_c, 1, 71, 0
2, 10640, Note_off_c, 1, 72, 0
2, 10640, Note_on_c, 1, 73, 127
2, 10640, Note_off_c, 1, 74, 0
2, 10680, Note_on_c, 1, 46, 127
2, 10680, Note_off_c, 1, 52, 0
2, 10680, Note_on_c, 1, 54, 127
2, 10680, Note_off_c, 1, 57, 0
2, 10680, Note_on_c, 1, 69, 127
2, 10680, Note_off_c, 1, 73, 0
2, 10680, Note_on_c, 1, 76, 127
2, 10720, Note_on_c, 1, 41, 127
2, 10720, Note_on_c, 1, 53, 127
2, 10720, Note_off_c, 1, 54, 0
2, 10720, Note_on_c, 1, 55, 127
2, 10720, Note_on_c, 1, 57, 127
2, 10720, Note_on_c, 1, 62, 127
2, 10720, Note_on_c, 1, 67, 127
2, 10720, Note_off_c, 1, 69, 0
2, 10720, Note_on_c, 1, 72, 127
2, 10720, Note_on_c, 1, 74, 127
2, 10720, Note_off_c, 1, 76, 0
2, 10720, Note_on_c, 1, 77, 127
2, 10720, Note_on_c, 1, 82, 127
2, 10760, Note_off_c, 1, 41, 0
2, 10760, Note_off_c, 1, 46, 0
2, 10760, Note_off_c, 1, 53, 0
2, 10760, Note_off_c, 1, 55, 0
2, 10760, Note_on_c, 1, 61, 127
2, 10760, Note_off_c, 1, 62, 0
2, 10760, Note_off_c, 1, 74, 0
2, 10760, Note_off_c, 1, 77, 0
2, 10760, Note_off_c, 1, 82, 0
2, 10800, Note_off_c, 1, 57, 0
2, 10800, Note_off_c, 1, 61, 0
2, 10800, Note_off_c, 1, 67, 0
2, 10800, Note_off_c, 1, 72, 0
2, 10840, Note_on_c, 1, 72, 127
2, 10880, Note_on_c, 1, 45, 127
2, 10880, Note_on_c, 1, 52, 127
2, 10880, Note_on_c, 1, 53, 127
2, 10880, Note_on_c, 1, 55, 127
2, 10880, Note_on_c, 1, 57, 127
2, 10880, Note_on_c, 1, 63, 127
2, 10880, Note_off_c, 1, 72, 0
2, 10920, Note_on_c, 1, 38, 127
2, 10920, Note_on_c, 1, 44, 127
2, 10920, Note_off_c, 1, 45, 0
2, 10920, Note_off_c, 1, 53, 0
2, 10920, Note_off_c, 1, 55, 0
2, 10920, Note_on_c, 1, 60, 127
2, 10920, Note_off_c, 1, 63, 0
2, 10960, Note_off_c, 1, 38, 0
2, 10960, Note_off_c, 1, 44, 0
2, 10960, Note_off_c, 1, 52, 0
2, 10960, Note_off_c, 1, 57, 0
2, 10960, Note_on_c, 1, 58, 127
2, 10960, Note_off_c, 1, 60, 0
2, 10960, Note_on_c, 1, 63, 127
2, 10960, Note_on_c, 1, 67, 127
2, 10960, Note_on_c, 1, 72, 127
2, 11000, Note_off_c, 1, 58, 0
2, 11000, Note_off_c, 1, 63, 0
2, 11000, Note_off_c, 1, 67, 0
2, 11000, Note_off_c, 1, 72, 0
2, 11040, Note_on_c, 1, 46, 127
2, 11040, Note_on_c, 1, 53, 127
2, 11040, Note_on_c, 1, 54, 127
2, 11040, Note_on_c, 1, 70, 127
2, 11080, Note_off_c, 1, 46, 0
2, 11080, Note_off_c, 1, 53, 0
2, 11080, Note_off_c, 1, 54, 0
2, 11080, Note_off_c, 1, 70, 0
2, 11080, Note_on_c, 1, 74, 127
2, 11120, Note_on_c, 1, 62, 127
2, 11120, Note_off_c, 1, 74, 0
2, 11160, Note_on_c, 1, 52, 127
2, 11160, Note_off_c, 1, 62, 0
2, 11160, Note_on_c, 1, 65, 127
2, 11160, Note_on_c, 1, 70, 127
2, 11160, Note_on_c, 1, 76, 127
2, 11200, Note_off_c, 1, 52, 0
2, 11200, Note_on_c, 1, 69, 127
2, 11200, Note_off_c, 1, 70, 0
2, 11200, Note_off_c, 1, 76, 0
2, 11240, Note_off_c, 1, 65, 0
2, 11240, Note_off_c, 1, 69, 0
2, 11240, Note_on_c, 1, 72, 127
2, 11280, Note_on_c, 1, 46, 127
2, 11280, Note_on_c, 1, 55, 127
2, 11280, Note_on_c, 1, 56, 127
2, 11280, Note_on_c, 1, 58, 127
2, 11280, Note_on_c, 1, 59, 127
2, 11280, Note_on_c, 1, 61, 127
2, 11280, Note_on_c, 1, 62, 127
2, 11280, Note_on_c, 1, 67, 127
2, 11280, Note_on_c, 1, 69, 127
2, 11280, Note_on_c, 1, 73, 127
2, 11280, Note_on_c, 1, 74, 127
2, 11280, Note_on_c, 1, 75, 127
2, 11320, Note_off_c, 1, 46, 0
2, 11320, Note_off_c, 1, 55, 0
2, 11320, Note_off_c, 1, 56, 0
2, 11320, Note_off_c, 1, 58, 0
2, 11320, Note_off_c, 1, 59, 0
2, 11320, Note_off_c, 1, 61, 0
2, 11320, Note_off_c, 1, 62, 0
2, 11320, Note_off_c, 1, 67, 0
2, 11320, Note_off_c, 1, 69, 0
2, 11320, Note_off_c, 1, 72, 0
2, 11320, Note_off_c, 1, 73, 0
2, 11320, Note_off_c, 1, 74, 0
2, 11320, Note_off_c, 1, 75, 0
2, 11400, Note_on_c, 1, 36, 127
2, 11400, Note_on_c, 1, 44, 127
2, 11400, Note_on_c, 1, 46, 127
2, 11400, Note_on_c, 1, 57, 127
2, 11400, Note_on_c, 1, 62, 127
2, 11400, Note_on_c, 1, 65, 127
2, 11400, Note_on_c, 1, 67, 127
2, 11400, Note_on_c, 1, 70, 127
2, 11400, Note_on_c, 1, 72, 127
2, 11400, Note_on_c, 1, 74, 127
2, 11400, Note_on_c, 1, 75, 127
2, 11440, Note_off_c, 1, 36, 0
2, 11440, Note_on_c, 1, 43, 127
2, 11440, Note_off_c, 1, 44, 0
2, 11440, Note_off_c, 1, 57, 0
2, 11440, Note_off_c, 1, 62, 0
2, 11440, Note_off_c, 1, 65, 0
2, 11440, Note_off_c, 1, 67, 0
2, 11440, Note_off_c, 1, 70, 0
2, 11440, Note_off_c, 1, 72, 0
2, 11440, Note_off_c, 1, 74, 0
2, 11440, Note_off_c, 1, 75, 0
2, 11480, Note_off_c, 1, 43, 0
2, 11480, Note_off_c, 1, 46, 0
2, 11560, Note_on_c, 1, 72, 127
2, 11600, Note_on_c, 1, 31, 127
2, 11600, Note_on_c, 1, 46, 127
2, 11600, Note_on_c, 1, 55, 127
2, 11600, Note_on_c, 1, 58, 127
2, 11600, Note_on_c, 1, 70, 127
2, 11640, Note_off_c, 1, 31, 0
2, 11640, Note_off_c, 1, 46, 0
2, 11640, Note_on_c, 1, 52, 127
2, 11640, Note_off_c, 1, 55, 0
2, 11640, Note_off_c, 1, 58, 0
2, 11640, Note_on_c, 1, 59, 127
2, 11640, Note_on_c, 1, 60, 127
2, 11640, Note_on_c, 1, 62, 127
2, 11640, Note_on_c, 1, 67, 127
2, 11640, Note_off_c, 1, 70, 0
2, 11680, Note_off_c, 1, 52, 0
2, 11680, Note_off_c, 1, 59, 0
2, 11680, Note_off_c, 1, 60, 0
2, 11680, Note_off_c, 1, 62, 0
2, 11680, Note_off_c, 1, 67, 0
2, 11680, Note_off_c, 1, 72, 0
2, 11760, Note_on_c, 1, 40, 127
2, 11760, Note_on_c, 1, 57, 127
2, 11760, Note_on_c, 1, 61, 127
2, 11760, Note_on_c, 1, 69, 127
2, 11760, Note_on_c, 1, 74, 127
2, 11800, Note_off_c, 1, 40, 0
2, 11800, Note_off_c, 1, 57, 0
2, 11800, Note_off_c, 1, 61, 0
2, 11800, Note_off_c, 1, 69, 0
2, 11800, Note_off_c, 1, 74, 0
2, 11880, Note_on_c, 1, 72, 127
2, 11920, Note_on_c, 1, 53, 127
2, 11920, Note_on_c, 1, 64, 127
2, 11920, Note_on_c, 1, 67, 127
2, 11960, Note_off_c, 1, 53, 0
2, 11960, Note_off_c, 1, 64, 0
2, 11960, Note_off_c, 1, 67, 0
2, 11960, Note_off_c, 1, 72, 0
2, 11960, Note_on_c, 1, 74, 127
2, 12000, Note_on_c, 1, 65, 127
2, 12000, Note_on_c, 1, 72, 127
2, 12000, Note_off_c, 1, 74, 0
2, 12000, Note_on_c, 1, 84, 127
2, 12040, Note_on_c, 1, 53, 127
2, 12040, Note_on_c, 1, 57, 127
2, 12040, Note_on_c, 1, 60, 127
2, 12040, Note_on_c, 1, 61, 127
2, 12040, Note_off_c, 1, 65, 0
2, 12040, Note_off_c, 1, 72, 0
2, 12040, Note_off_c, 1, 84, 0
2, 12080, Note_off_c, 1, 53, 0
2, 12080, Note_off_c, 1, 57, 0
2, 12080, Note_off_c, 1, 60, 0
2, 12080, Note_off_c, 1, 61, 0
2, 12120, Note_on_c, 1, 50, 127
2, 12120, Note_on_c, 1, 55, 127
2, 12120, Note_on_c, 1, 69, 127
2, 12160, Note_off_c, 1, 50, 0
2, 12160, Note_off_c, 1, 55, 0
2, 12160, Note_on_c, 1, 56, 127
2, 12160, Note_on_c, 1, 58, 127
2, 12160, Note_off_c, 1, 69, 0
2, 12200, Note_on_c, 1, 50, 127
2, 12200, Note_off_c, 1, 56, 0
2, 12200, Note_on_c, 1, 72, 127
2, 12240, Note_on_c, 1, 49, 127
2, 12240, Note_off_c, 1, 50, 0
2, 12240, Note_on_c, 1, 55, 127
2, 12240, Note_off_c, 1, 58, 0
2, 12240, Note_on_c, 1, 65, 127
2, 12240, Note_on_c, 1, 70, 127
2, 12240, Note_off_c, 1, 72, 0
2, 12240, Note_on_c, 1, 76, 127
2, 12240, Note_on_c, 1, 84, 127
2, 12280, Note_off_c, 1, 49, 0
2, 12280, Note_on_c, 1, 52, 127
2, 12280, Note_off_c, 1, 55, 0
2, 12280, Note_on_c, 1, 57, 127
2, 12280, Note_off_c, 1, 70, 0
2, 12280, Note_off_c, 1, 76, 0
2, 12280, Note_off_c, 1, 84, 0
2, 12320, Note_off_c, 1, 52, 0
2, 12320, Note_off_c, 1, 57, 0
2, 12320, Note_off_c, 1, 65, 0
2, 12360, Note_on_c, 1, 74, 127
2, 12400, Note_off_c, 1, 74, 0
2, 12440, Note_on_c, 1, 74, 127
2, 12480, Note_on_c, 1, 50, 127
2, 12480, Note_on_c, 1, 57, 127
2, 12480, Note_on_c, 1, 64, 127
2, 12480, Note_on_c, 1, 65, 127
2, 12480, Note_on_c, 1, 70, 127
2, 12520, Note_off_c, 1, 50, 0
2, 12520, Note_off_c, 1, 57, 0
2, 12520, Note_off_c, 1, 64, 0
2, 12520, Note_off_c, 1, 70, 0
2, 12520, Note_on_c, 1, 72, 127
2, 12520, Note_off_c, 1, 74, 0
2, 12520, Note_on_c, 1, 81, 127
2, 12560, Note_off_c, 1, 65, 0
2, 12560, Note_on_c, 1, 66, 127
2, 12560, Note_off_c, 1, 81, 0
2, 12600, Note_on_c, 1, 59, 127
2, 12600, Note_on_c, 1, 60, 127
2, 12600, Note_off_c, 1, 66, 0
2, 12600, Note_off_c, 1, 72, 0
2, 12640, Note_off_c, 1, 59, 0
2, 12640, Note_off_c, 1, 60, 0
2, 12640, Note_on_c, 1, 72, 127
2, 12640, Note_on_c, 1, 76, 127
2, 12680, Note_off_c, 1, 72, 0
2, 12680, Note_off_c, 1, 76, 0
2, 12720, Note_on_c, 1, 39, 127
2, 12720, Note_on_c, 1, 53, 127
2, 12720, Note_on_c, 1, 57, 127
2, 12720, Note_on_c, 1, 65, 127
2, 12720, Note_on_c, 1, 67, 127
2, 12720, Note_on_c, 1, 72, 127
2, 12720, Note_on_c, 1, 76, 127
2, 12760, Note_off_c, 1, 39, 0
2, 12760, Note_off_c, 1, 53, 0
2, 12760, Note_off_c, 1, 57, 0
2, 12760, Note_off_c, 1, 65, 0
2, 12760, Note_off_c, 1, 67, 0
2, 12760, Note_off_c, 1, 72, 0
2, 12760, Note_off_c, 1, 76, 0
2, 12800, Note_on_c, 1, 46, 127
2, 12800, Note_on_c, 1, 49, 127
2, 12800, Note_on_c, 1, 55, 127
2, 12800, Note_on_c, 1, 65, 127
2, 12840, Note_on_c, 1, 38, 127
2, 12840, Note_on_c, 1, 44, 127
2, 12840, Note_off_c, 1, 46, 0
2, 12840, Note_off_c, 1, 49, 0
2, 12840, Note_on_c, 1, 52, 127
2, 12840, Note_off_c, 1, 55, 0
2, 12840, Note_off_c, 1, 65, 0
2, 12840, Note_on_c, 1, 69, 127
2, 12840, Note_on_c, 1, 70, 127
2, 12840, Note_on_c, 1, 72, 127
2, 12840, Note_on_c, 1, 78, 127
2, 12880, Note_off_c, 1, 38, 0
2, 12880, Note_on_c, 1, 42, 127
2, 12880, Note_on_c, 1, 53, 127
2, 12880, Note_on_c, 1, 57, 127
2, 12880, Note_on_c, 1, 62, 127
2, 12880, Note_on_c, 1, 65, 127
2, 12880, Note_off_c, 1, 72, 0
2, 12880, Note_on_c, 1, 74, 127
2, 12880, Note_on_c, 1, 76, 127
2, 12880, Note_off_c, 1, 78, 0
2, 12920, Note_off_c, 1, 42, 0
2, 12920, Note_off_c, 1, 53, 0
2, 12920, Note_on_c, 1, 58, 127
2, 12920, Note_on_c, 1, 64, 127
2, 12920, Note_off_c, 1, 65, 0
2, 12920, Note_off_c, 1, 69, 0
2, 12920, Note_on_c, 1, 78, 127
2, 12960, Note_off_c, 1, 44, 0
2, 12960, Note_off_c, 1, 52, 0
2, 12960, Note_off_c, 1, 57, 0
2, 12960, Note_off_c, 1, 58, 0
2, 12960, Note_off_c, 1, 62, 0
2, 12960, Note_off_c, 1, 64, 0
2, 12960, Note_off_c, 1, 70, 0
2, 12960, Note_off_c, 1, 74, 0
2, 12960, Note_off_c, 1, 76, 0
2, 12960, Note_off_c, 1, 78, 0
2, 13000, Note_on_c, 1, 29, 127
2, 13000, Note_on_c, 1, 42, 127
2, 13040, Note_off_c, 1, 29, 0
2, 13040, Note_off_c, 1, 42, 0
2, 13040, Note_on_c, 1, 50, 127
2, 13040, Note_on_c, 1, 57, 127
2, 13040, Note_on_c, 1, 65, 127
2, 13040, Note_on_c, 1, 71, 127
2, 13080, Note_off_c, 1, 50, 0
2, 13080, Note_off_c, 1, 57, 0
2, 13080, Note_off_c, 1, 65, 0
2, 13080, Note_on_c, 1, 67, 127
2, 13080, Note_off_c, 1, 71, 0
2, 13120, Note_on_c, 1, 46, 127
2, 13120, Note_on_c, 1, 50, 127
2, 13120, Note_on_c, 1, 52, 127
2, 13120, Note_on_c, 1, 58, 127
2, 13120, Note_on_c, 1, 60, 127
2, 13120, Note_on_c, 1, 64, 127
2, 13120, Note_on_c, 1, 68, 127
2, 13120, Note_on_c, 1, 74, 127
2, 13120, Note_on_c, 1, 76, 127
2, 13160, Note_off_c, 1, 46, 0
2, 13160, Note_off_c, 1, 50, 0
2, 13160, Note_off_c, 1, 52, 0
2, 13160, Note_off_c, 1, 58, 0
2, 13160, Note_off_c, 1, 60, 0
2, 13160, Note_off_c, 1, 64, 0
2, 13160, Note_off_c, 1, 67, 0
2, 13160, Note_off_c, 1, 68, 0
2, 13160, Note_off_c, 1, 74, 0
2, 13160, Note_off_c, 1, 76, 0
2, 13200, Note_on_c, 1, 50, 127
2, 13200, Note_on_c, 1, 51, 127
2, 13200, Note_on_c, 1, 57, 127
2, 13200, Note_on_c, 1, 65, 127
2, 13200, Note_on_c, 1, 69, 127
2, 13200, Note_on_c, 1, 75, 127
2, 13200, Note_on_c, 1, 77, 127
2, 13240, Note_off_c, 1, 50, 0
2, 13240, Note_off_c, 1, 51, 0
2, 13240, Note_off_c, 1, 57, 0
2, 13240, Note_off_c, 1, 65, 0
2, 13240, Note_off_c, 1, 69, 0
2, 13240, Note_off_c, 1, 75, 0
2, 13240, Note_off_c, 1, 77, 0
2, 13280, Note_on_c, 1, 52, 127
2, 13280, Note_on_c, 1, 55, 127
2, 13280, Note_on_c, 1, 58, 127
2, 13280, Note_on_c, 1, 62, 127
2, 13280, Note_on_c, 1, 65, 127
2, 13280, Note_on_c, 1, 70, 127
2, 13280, Note_on_c, 1, 72, 127
2, 13320, Note_off_c, 1, 52, 0
2, 13320, Note_off_c, 1, 55, 0
2, 13320, Note_off_c, 1, 58, 0
2, 13320, Note_off_c, 1, 62, 0
2, 13320, Note_off_c, 1, 65, 0
2, 13320, Note_off_c, 1, 70, 0
2, 13320, Note_off_c, 1, 72, 0
2, 13400, Note_on_c, 1, 38, 127
2, 13400, Note_on_c, 1, 52, 127
2, 13440, Note_off_c, 1, 38, 0
2, 13440, Note_off_c, 1, 52, 0
2, 13480, Note_on_c, 1, 46, 127
2, 13480, Note_on_c, 1, 51, 127
2, 13480, Note_on_c, 1, 52, 127
2, 13480, Note_on_c, 1, 55, 127
2, 13480, Note_on_c, 1, 63, 127
2, 13480, Note_on_c, 1, 77, 127
2, 13520, Note_off_c, 1, 46, 0
2, 13520, Note_off_c, 1, 51, 0
2, 13520, Note_off_c, 1, 52, 0
2, 13520, Note_off_c, 1, 55, 0
2, 13520, Note_off_c, 1, 63, 0
2, 13520, Note_on_c, 1, 65, 127
2, 13520, Note_on_c, 1, 70, 127
2, 13560, Note_off_c, 1, 65, 0
2, 13560, Note_off_c, 1, 70, 0
2, 13560, Note_off_c, 1, 77, 0
2, 13600, Note_on_c, 1, 62, 127
2, 13640, Note_on_c, 1, 44, 127
2, 13640, Note_on_c, 1, 52, 127
2, 13640, Note_on_c, 1, 57, 127
2, 13640, Note_on_c, 1, 60, 127
2, 13640, Note_on_c, 1, 65, 127
2, 13680, Note_off_c, 1, 44, 0
2, 13680, Note_off_c, 1, 52, 0
2, 13680, Note_on_c, 1, 53, 127
2, 13680, Note_off_c, 1, 57, 0
2, 13680, Note_off_c, 1, 60, 0
2, 13680, Note_off_c, 1, 62, 0
2, 13680, Note_on_c, 1, 67, 127
2, 13680, Note_on_c, 1, 70, 127
2, 13680, Note_on_c, 1, 72, 127
2, 13720, Note_on_c, 1, 37, 127
2, 13720, Note_off_c, 1, 53, 0
2, 13720, Note_off_c, 1, 67, 0
2, 13720, Note_off_c, 1, 70, 0
2, 13720, Note_off_c, 1, 72, 0
2, 13760, Note_off_c, 1, 37, 0
2, 13760, Note_on_c, 1, 44, 127
2, 13760, Note_on_c, 1, 50, 127
2, 13760, Note_on_c, 1, 53, 127
2, 13760, Note_on_c, 1, 57, 127
2, 13760, Note_on_c, 1, 63, 127
2, 13760, Note_off_c, 1, 65, 0
2, 13760, Note_on_c, 1, 69, 127
2, 13760, Note_on_c, 1, 70, 127
2, 13760, Note_on_c, 1, 72, 127
2, 13760, Note_on_c, 1, 76, 127
2, 13760, Note_on_c, 1, 82, 127
2, 13800, Note_on_c, 1, 31, 127
2, 13800, Note_off_c, 1, 44, 0
2, 13800, Note_off_c, 1, 50, 0
2, 13800, Note_on_c, 1, 51, 127
2, 13800, Note_off_c, 1, 53, 0
2, 13800, Note_off_c, 1, 57, 0
2, 13800, Note_on_c, 1, 59, 127
2, 13800, Note_off_c, 1, 63, 0
2, 13800, Note_off_c, 1, 69, 0
2, 13800, Note_off_c, 1, 70, 0
2, 13800, Note_off_c, 1, 76, 0
2, 13800, Note_on_c, 1, 77, 127
2, 13800, Note_on_c, 1, 78, 127
2, 13800, Note_off_c, 1, 82, 0
2, 13840, Note_off_c, 1, 31, 0
2, 13840, Note_on_c, 1, 46, 127
2, 13840, Note_off_c, 1, 51, 0
2, 13840, Note_on_c, 1, 57, 127
2, 13840, Note_off_c, 1, 59, 0
2, 13840, Note_on_c, 1, 63, 127
2, 13840, Note_on_c, 1, 65, 127
2, 13840, Note_on_c, 1, 67, 127
2, 13840, Note_off_c, 1, 72, 0
2, 13840, Note_on_c, 1, 76, 127
2, 13840, Note_off_c, 1, 77, 0
2, 13840, Note_off_c, 1, 78, 0
2, 13840, Note_on_c, 1, 79, 127
2, 13840, Note_on_c, 1, 81, 127
2, 13880, Note_off_c, 1, 46, 0
2, 13880, Note_on_c, 1, 55, 127
2, 13880, Note_on_c, 1, 62, 127
2, 13880, Note_off_c, 1, 63, 0
2, 13880, Note_off_c, 1, 65, 0
2, 13880, Note_off_c, 1, 67, 0
2, 13880, Note_on_c, 1, 72, 127
2, 13880, Note_off_c, 1, 76, 0
2, 13880, Note_off_c, 1, 79, 0
2, 13880, Note_off_c, 1, 81, 0
2, 13920, Note_on_c, 1, 39, 127
2, 13920, Note_on_c, 1, 46, 127
2, 13920, Note_on_c, 1, 53, 127
2, 13920, Note_off_c, 1, 57, 0
2, 13920, Note_on_c, 1, 60, 127
2, 13920, Note_off_c, 1, 62, 0
2, 13920, Note_on_c, 1, 65, 127
2, 13920, Note_on_c, 1, 66, 127
2, 13960, Note_off_c, 1, 39, 0
2, 13960, Note_off_c, 1, 46, 0
2, 13960, Note_off_c, 1, 53, 0
2, 13960, Note_off_c, 1, 55, 0
2, 13960, Note_off_c, 1, 60, 0
2, 13960, Note_on_c, 1, 62, 127
2, 13960, Note_off_c, 1, 65, 0
2, 13960, Note_off_c, 1, 66, 0
2, 13960, Note_on_c, 1, 71, 127
2, 13960, Note_off_c, 1, 72, 0
2, 13960, Note_on_c, 1, 74, 127
2, 14000, Note_off_c, 1, 62, 0
2, 14000, Note_off_c, 1, 71, 0
2, 14000, Note_off_c, 1, 74, 0
2, 14040, Note_on_c, 1, 55, 127
2, 14040, Note_on_c, 1, 65, 127
2, 14040, Note_on_c, 1, 72, 127
2, 14080, Note_on_c, 1, 54, 127
2, 14080, Note_off_c, 1, 55, 0
2, 14080, Note_off_c, 1, 65, 0
2, 14080, Note_on_c, 1, 70, 127
2, 14080, Note_off_c, 1, 72, 0
2, 14120, Note_on_c, 1, 52, 127
2, 14120, Note_off_c, 1, 54, 0
2, 14120, Note_on_c, 1, 57, 127
2, 14120, Note_on_c, 1, 61, 127
2, 14120, Note_off_c, 1, 70, 0
2, 14120, Note_on_c, 1, 72, 127
2, 14160, Note_off_c, 1, 52, 0
2, 14160, Note_off_c, 1, 57, 0
2, 14160, Note_off_c, 1, 61, 0
2, 14160, Note_off_c, 1, 72, 0
2, 14160, Note_on_c, 1, 79, 127
2, 14200, Note_on_c, 1, 57, 127
2, 14200, Note_off_c, 1, 79, 0
2, 14240, Note_off_c, 1, 57, 0
2, 14240, Note_on_c, 1, 60, 127
2, 14240, Note_on_c, 1, 69, 127
2, 14240, Note_on_c, 1, 72, 127
2, 14280, Note_on_c, 1, 54, 127
2, 14280, Note_on_c, 1, 58, 127
2, 14280, Note_off_c, 1, 60, 0
2, 14280, Note_off_c, 1, 69, 0
2, 14320, Note_off_c, 1, 54, 0
2, 14320, Note_off_c, 1, 58, 0
2, 14320, Note_off_c, 1, 72, 0
2, 14360, Note_on_c, 1, 72, 127
2, 14400, Note_on_c, 1, 49, 127
2, 14400, Note_off_c, 1, 72, 0
2, 14400, Note_on_c, 1, 76, 127
2, 14440, Note_off_c, 1, 49, 0
2, 14440, Note_off_c, 1, 76, 0
2, 14480, Note_on_c, 1, 46, 127
2, 14480, Note_on_c, 1, 65, 127
2, 14480, Note_on_c, 1, 72, 127
2, 14520, Note_off_c, 1, 46, 0
2, 14520, Note_off_c, 1, 65, 0
2, 14520, Note_off_c, 1, 72, 0
2, 14560, Note_on_c, 1, 52, 127
2, 14560, Note_on_c, 1, 58, 127
2, 14560, Note_on_c, 1, 70, 127
2, 14560, Note_on_c, 1, 72, 127
2, 14560, Note_on_c, 1, 75, 127
2, 14560, Note_on_c, 1, 82, 127
2, 14600, Note_off_c, 1, 52, 0
2, 14600, Note_off_c, 1, 58, 0
2, 14600, Note_off_c, 1, 70, 0
2, 14600, Note_off_c, 1, 72, 0
2, 14600, Note_off_c, 1, 75, 0
2, 14600, Note_off_c, 1, 82, 0
2, 14600, Note_on_c, 1, 83, 127
2, 14640, Note_off_c, 1, 83, 0
2, 14680, Note_on_c, 1, 46, 127
2, 14720, Note_off_c, 1, 46, 0
2, 14720, Note_on_c, 1, 72, 127
2, 14720, Note_on_c, 1, 74, 127
2, 14760, Note_on_c, 1, 50, 127
2, 14760, Note_on_c, 1, 57, 127
2, 14760, Note_on_c, 1, 68, 127
2, 14760, Note_on_c, 1, 70, 127
2, 14760, Note_off_c, 1, 74, 0
2, 14760, Note_on_c, 1, 79, 127
2, 14800, Note_on_c, 1, 36, 127
2, 14800, Note_off_c, 1, 50, 0
2, 14800, Note_off_c, 1, 57, 0
2, 14800, Note_on_c, 1, 60, 127
2, 14800, Note_on_c, 1, 66, 127
2, 14800, Note_off_c, 1, 68, 0
2, 14800, Note_off_c, 1, 70, 0
2, 14800, Note_off_c, 1, 72, 0
2, 14800, Note_on_c, 1, 73, 127
2, 14800, Note_off_c, 1, 79, 0
2, 14840, Note_off_c, 1, 36, 0
2, 14840, Note_on_c, 1, 54, 127
2, 14840, Note_off_c, 1, 60, 0
2, 14840, Note_off_c, 1, 66, 0
2, 14840, Note_on_c, 1, 67, 127
2, 14840, Note_off_c, 1, 73, 0
2, 14880, Note_on_c, 1, 46, 127
2, 14880, Note_off_c, 1, 54, 0
2, 14880, Note_off_c, 1, 67, 0
2, 14880, Note_on_c, 1, 69, 127
2, 14880, Note_on_c, 1, 73, 127
2, 14920, Note_off_c, 1, 46, 0
2, 14920, Note_off_c, 1, 69, 0
2, 14920, Note_off_c, 1, 73, 0
2, 14960, Note_on_c, 1, 50, 127
2, 14960, Note_on_c, 1, 65, 127
2, 14960, Note_on_c, 1, 67, 127
2, 14960, Note_on_c, 1, 69, 127
2, 14960, Note_on_c, 1, 70, 127
2, 14960, Note_on_c, 1, 72, 127
2, 14960, Note_on_c, 1, 76, 127
2, 14960, Note_on_c, 1, 77, 127
2, 15000, Note_on_c, 1, 29, 127
2, 15000, Note_on_c, 1, 46, 127
2, 15000, Note_on_c, 1, 54, 127
2, 15000, Note_on_c, 1, 55, 127
2, 15000, Note_on_c, 1, 57, 127
2, 15000, Note_off_c, 1, 67, 0
2, 15000, Note_off_c, 1, 69, 0
2, 15000, Note_off_c, 1, 70, 0
2, 15000, Note_off_c, 1, 72, 0
2, 15000, Note_on_c, 1, 74, 127
2, 15000, Note_off_c, 1, 77, 0
2, 15040, Note_off_c, 1, 29, 0
2, 15040, Note_off_c, 1, 50, 0
2, 15040, Note_on_c, 1, 52, 127
2, 15040, Note_on_c, 1, 53, 127
2, 15040, Note_off_c, 1, 54, 0
2, 15040, Note_off_c, 1, 55, 0
2, 15040, Note_off_c, 1, 57, 0
2, 15040, Note_on_c, 1, 69, 127
2, 15040, Note_off_c, 1, 74, 0
2, 15040, Note_off_c, 1, 76, 0
2, 15040, Note_on_c, 1, 77, 127
2, 15080, Note_off_c, 1, 46, 0
2, 15080, Note_off_c, 1, 52, 0
2, 15080, Note_off_c, 1, 53, 0
2, 15080, Note_off_c, 1, 69, 0
2, 15080, Note_off_c, 1, 77, 0
2, 15120, Note_off_c, 1, 65, 0
2, 15120, Note_on_c, 1, 70, 127
2, 15120, Note_on_c, 1, 72, 127
2, 15160, Note_on_c, 1, 37, 127
2, 15160, Note_on_c, 1, 55, 127
2, 15160, Note_on_c, 1, 63, 127
2, 15160, Note_off_c, 1, 72, 0
2, 15200, Note_off_c, 1, 37, 0
2, 15200, Note_off_c, 1, 55, 0
2, 15200, Note_on_c, 1, 62, 127
2, 15200, Note_off_c, 1, 63, 0
2, 15200, Note_on_c, 1, 65, 127
2, 15200, Note_off_c, 1, 70, 0
2, 15240, Note_on_c, 1, 35, 127
2, 15240, Note_on_c, 1, 54, 127
2, 15240, Note_off_c, 1, 62, 0
2, 15240, Note_off_c, 1, 65, 0
2, 15240, Note_on_c, 1, 67, 127
2, 15240, Note_on_c, 1, 71, 127
2, 15240, Note_on_c, 1, 74, 127
2, 15280, Note_off_c, 1, 35, 0
2, 15280, Note_on_c, 1, 45, 127
2, 15280, Note_on_c, 1, 48, 127
2, 15280, Note_off_c, 1, 54, 0
2, 15280, Note_on_c, 1, 55, 127
2, 15280, Note_on_c, 1, 65, 127
2, 15280, Note_on_c, 1, 70, 127
2, 15280, Note_off_c, 1, 71, 0
2, 15280, Note_on_c, 1, 72, 127
2, 15320, Note_on_c, 1, 29, 127
2, 15320, Note_off_c, 1, 45, 0
2, 15320, Note_on_c, 1, 50, 127
2, 15320, Note_off_c, 1, 55, 0
2, 15320, Note_on_c, 1, 58, 127
2, 15320, Note_on_c, 1, 59, 127
2, 15320, Note_off_c, 1, 67, 0
2, 15320, Note_on_c, 1, 69, 127
2, 15320, Note_off_c, 1, 72, 0
2, 15320, Note_off_c, 1, 74, 0
2, 15320, Note_on_c, 1, 82, 127
2, 15360, Note_off_c, 1, 29, 0
2, 15360, Note_off_c, 1, 48, 0
2, 15360, Note_off_c, 1, 50, 0
2, 15360, Note_off_c, 1, 58, 0
2, 15360, Note_off_c, 1, 59, 0
2, 15360, Note_off_c, 1, 65, 0
2, 15360, Note_off_c, 1, 69, 0
2, 15360, Note_off_c, 1, 70, 0
2, 15360, Note_off_c, 1, 82, 0
2, 15400, Note_on_c, 1, 52, 127
2, 15400, Note_on_c, 1, 70, 127
2, 15440, Note_off_c, 1, 52, 0
2, 15440, Note_on_c, 1, 53, 127
2, 15440, Note_on_c, 1, 61, 127
2, 15440, Note_on_c, 1, 62, 127
2, 15440, Note_on_c, 1, 65, 127
2, 15440, Note_off_c, 1, 70, 0
2, 15480, Note_off_c, 1, 53, 0
2, 15480, Note_off_c, 1, 61, 0
2, 15480, Note_off_c, 1, 62, 0
2, 15480, Note_on_c, 1, 64, 127
2, 15480, Note_off_c, 1, 65, 0
2, 15480, Note_on_c, 1, 69, 127
2, 15480, Note_on_c, 1, 70, 127
2, 15520, Note_on_c, 1, 46, 127
2, 15520, Note_off_c, 1, 64, 0
2, 15520, Note_on_c, 1, 66, 127
2, 15520, Note_off_c, 1, 69, 0
2, 15520, Note_off_c, 1, 70, 0
2, 15520, Note_on_c, 1, 77, 127
2, 15560, Note_off_c, 1, 46, 0
2, 15560, Note_on_c, 1, 57, 127
2, 15560, Note_on_c, 1, 62, 127
2, 15560, Note_off_c, 1, 66, 0
2, 15560, Note_on_c, 1, 67, 127
2, 15560, Note_off_c, 1, 77, 0
2, 15600, Note_off_c, 1, 57, 0
2, 15600, Note_off_c, 1, 62, 0
2, 15600, Note_off_c, 1, 67, 0
2, 15640, Note_on_c, 1, 62, 127
2, 15640, Note_on_c, 1, 65, 127
2, 15680, Note_on_c, 1, 36, 127
2, 15680, Note_on_c, 1, 48, 127
2, 15680, Note_on_c, 1, 50, 127
2, 15680, Note_on_c, 1, 59, 127
2, 15680, Note_on_c, 1, 67, 127
2, 15680, Note_on_c, 1, 70, 127
2, 15680, Note_on_c, 1, 74, 127
2, 15680, Note_on_c, 1, 76, 127
2, 15720, Note_off_c, 1, 36, 0
2, 15720, Note_off_c, 1, 48, 0
2, 15720, Note_on_c, 1, 53, 127
2, 15720, Note_off_c, 1, 59, 0
2, 15720, Note_off_c, 1, 62, 0
2, 15720, Note_off_c, 1, 65, 0
2, 15720, Note_off_c, 1, 67, 0
2, 15720, Note_off_c, 1, 70, 0
2, 15720, Note_off_c, 1, 74, 0
2, 15720, Note_off_c, 1, 76, 0
2, 15760, Note_off_c, 1, 50, 0
2, 15760, Note_off_c, 1, 53, 0
2, 15800, Note_on_c, 1, 47, 127
2, 15800, Note_on_c, 1, 62, 127
2, 15800, Note_on_c, 1, 64, 127
2, 15800, Note_on_c, 1, 69, 127
2, 15800, Note_on_c, 1, 72, 127
2, 15840, Note_off_c, 1, 47, 0
2, 15840, Note_off_c, 1, 62, 0
2, 15840, Note_off_c, 1, 64, 0
2, 15840, Note_off_c, 1, 69, 0
2, 15840, Note_off_c, 1, 72, 0
2, 15880, Note_on_c, 1, 65, 127
2, 15880, Note_on_c, 1, 67, 127
2, 15880, Note_on_c, 1, 72, 127
2, 15880, Note_on_c, 1, 75, 127
2, 15880, Note_on_c, 1, 76, 127
2, 15880, Note_on_c, 1, 77, 127
2, 15880, Note_on_c, 1, 81, 127
2, 15920, Note_off_c, 1, 65, 0
2, 15920, Note_off_c, 1, 67, 0
2, 15920, Note_off_c, 1, 72, 0
2, 15920, Note_off_c, 1, 75, 0
2, 15920, Note_off_c, 1, 76, 0
2, 15920, Note_off_c, 1, 77, 0
2, 15920, Note_off_c, 1, 81, 0
2, 15960, Note_on_c, 1, 76, 127
2, 16000, Note_on_c, 1, 41, 127
2, 16000, Note_on_c, 1, 58, 127
2, 16000, Note_off_c, 1, 76, 0
2, 16040, Note_off_c, 1, 41, 0
2, 16040, Note_on_c, 1, 52, 127
2, 16040, Note_on_c, 1, 74, 127
2, 16080, Note_off_c, 1, 52, 0
2, 16080, Note_off_c, 1, 58, 0
2, 16080, Note_on_c, 1, 65, 127
2, 16080, Note_off_c, 1, 74, 0
2, 16120, Note_off_c, 1, 65, 0
2, 16240, Note_on_c, 1, 53, 127
2, 16240, Note_on_c, 1, 60, 127
2, 16240, Note_on_c, 1, 65, 127
2, 16240, Note_on_c, 1, 69, 127
2, 16240, Note_on_c, 1, 70, 127
2, 16240, Note_on_c, 1, 76, 127
2, 16280, Note_on_c, 1, 42, 127
2, 16280, Note_off_c, 1, 53, 0
2, 16280, Note_off_c, 1, 60, 0
2, 16280, Note_off_c, 1, 69, 0
2, 16280, Note_off_c, 1, 70, 0
2, 16280, Note_on_c, 1, 74, 127
2, 16280, Note_off_c, 1, 76, 0
2, 16320, Note_on_c, 1, 41, 127
2, 16320, Note_off_c, 1, 42, 0
2, 16320, Note_on_c, 1, 49, 127
2, 16320, Note_on_c, 1, 57, 127
2, 16320, Note_on_c, 1, 62, 127
2, 16320, Note_on_c, 1, 67, 127
2, 16320, Note_on_c, 1, 76, 127
2, 16360, Note_off_c, 1, 41, 0
2, 16360, Note_off_c, 1, 49, 0
2, 16360, Note_on_c, 1, 53, 127
2, 16360, Note_off_c, 1, 57, 0
2, 16360, Note_off_c, 1, 62, 0
2, 16360, Note_off_c, 1, 67, 0
2, 16360, Note_off_c, 1, 74, 0
2, 16360, Note_off_c, 1, 76, 0
2, 16360, Note_on_c, 1, 78, 127
2, 16400, Note_off_c, 1, 53, 0
2, 16400, Note_on_c, 1, 64, 127
2, 16400, Note_off_c, 1, 65, 0
2, 16400, Note_off_c, 1, 78, 0
2, 16400, Note_on_c, 1, 81, 127
2, 16440, Note_off_c, 1, 64, 0
2, 16440, Note_off_c, 1, 81, 0
2, 16560, Note_on_c, 1, 46, 127
2, 16560, Note_on_c, 1, 48, 127
2, 16560, Note_on_c, 1, 49, 127
2, 16560, Note_on_c, 1, 53, 127
2, 16560, Note_on_c, 1, 69, 127
2, 16560, Note_on_c, 1, 72, 127
2, 16560, Note_on_c, 1, 77, 127
2, 16600, Note_off_c, 1, 46, 0
2, 16600, Note_off_c, 1, 48, 0
2, 16600, Note_off_c, 1, 49, 0
2, 16600, Note_on_c, 1, 52, 127
2, 16600, Note_on_c, 1, 55, 127
2, 16600, Note_on_c, 1, 62, 127
2, 16600, Note_on_c, 1, 65, 127
2, 16600, Note_off_c, 1, 69, 0
2, 16600, Note_on_c, 1, 70, 127
2, 16600, Note_off_c, 1, 72, 0
2, 16600, Note_on_c, 1, 74, 127
2, 16600, Note_off_c, 1, 77, 0
2, 16640, Note_off_c, 1, 52, 0
2, 16640, Note_off_c, 1, 53, 0
2, 16640, Note_off_c, 1, 55, 0
2, 16640, Note_off_c, 1, 62, 0
2, 16640, Note_off_c, 1, 65, 0
2, 16640, Note_off_c, 1, 70, 0
2, 16640, Note_on_c, 1, 72, 127
2, 16640, Note_off_c, 1, 74, 0
2, 16680, Note_on_c, 1, 52, 127
2, 16680, Note_on_c, 1, 65, 127
2, 16680, Note_off_c, 1, 72, 0
2, 16680, Note_on_c, 1, 77, 127
2, 16720, Note_on_c, 1, 46, 127
2, 16720, Note_off_c, 1, 52, 0
2, 16720, Note_on_c, 1, 57, 127
2, 16720, Note_on_c, 1, 64, 127
2, 16720, Note_off_c, 1, 65, 0
2, 16720, Note_on_c, 1, 70, 127
2, 16720, Note_on_c, 1, 71, 127
2, 16720, Note_on_c, 1, 72, 127
2, 16720, Note_on_c, 1, 74, 127
2, 16720, Note_off_c, 1, 77, 0
2, 16720, Note_on_c, 1, 80, 127
2, 16760, Note_off_c, 1, 46, 0
2, 16760, Note_off_c, 1, 57, 0
2, 16760, Note_on_c, 1, 62, 127
2, 16760, Note_off_c, 1, 64, 0
2, 16760, Note_off_c, 1, 70, 0
2, 16760, Note_off_c, 1, 71, 0
2, 16760, Note_off_c, 1, 72, 0
2, 16760, Note_off_c, 1, 74, 0
2, 16760, Note_off_c, 1, 80, 0
2, 16800, Note_on_c, 1, 46, 127
2, 16800, Note_off_c, 1, 62, 0
2, 16840, Note_on_c, 1, 52, 127
2, 16840, Note_on_c, 1, 61, 127
2, 16840, Note_on_c, 1, 62, 127
2, 16840, Note_on_c, 1, 65, 127
2, 16840, Note_on_c, 1, 70, 127
2, 16840, Note_on_c, 1, 77, 127
2, 16880, Note_on_c, 1, 39, 127
2, 16880, Note_on_c, 1, 44, 127
2, 16880, Note_off_c, 1, 46, 0
2, 16880, Note_off_c, 1, 52, 0
2, 16880, Note_on_c, 1, 53, 127
2, 16880, Note_off_c, 1, 61, 0
2, 16880, Note_off_c, 1, 62, 0
2, 16880, Note_off_c, 1, 70, 0
2, 16880, Note_on_c, 1, 72, 127
2, 16880, Note_on_c, 1, 74, 127
2, 16880, Note_off_c, 1, 77, 0
2, 16920, Note_off_c, 1, 39, 0
2, 16920, Note_off_c, 1, 44, 0
2, 16920, Note_off_c, 1, 53, 0
2, 16920, Note_on_c, 1, 57, 127
2, 16920, Note_off_c, 1, 65, 0
2, 16920, Note_off_c, 1, 72, 0
2, 16920, Note_off_c, 1, 74, 0
2, 16960, Note_on_c, 1, 38, 127
2, 16960, Note_on_c, 1, 50, 127
2, 16960, Note_off_c, 1, 57, 0
2, 16960, Note_on_c, 1, 58, 127
2, 16960, Note_on_c, 1, 67, 127
2, 16960, Note_on_c, 1, 70, 127
2, 16960, Note_on_c, 1, 72, 127
2, 16960, Note_on_c, 1, 74, 127
2, 17000, Note_off_c, 1, 38, 0
2, 17000, Note_off_c, 1, 50, 0
2, 17000, Note_off_c, 1, 58, 0
2, 17000, Note_off_c, 1, 67, 0
2, 17000, Note_off_c, 1, 70, 0
2, 17000, Note_off_c, 1, 72, 0
2, 17000, Note_off_c, 1, 74, 0
2, 17040, Note_on_c, 1, 44, 127
2, 17040, Note_on_c, 1, 50, 127
2, 17040, Note_on_c, 1, 53, 127
2, 17080, Note_off_c, 1, 44, 0
2, 17080, Note_off_c, 1, 50, 0
2, 17080, Note_off_c, 1, 53, 0
2, 17120, Note_on_c, 1, 49, 127
2, 17120, Note_on_c, 1, 62, 127
2, 17160, Note_on_c, 1, 46, 127
2, 17160, Note_off_c, 1, 49, 0
2, 17160, Note_on_c, 1, 50, 127
2, 17160, Note_on_c, 1, 52, 127
2, 17160, Note_on_c, 1, 55, 127
2, 17160, Note_off_c, 1, 62, 0
2, 17160, Note_on_c, 1, 65, 127
2, 17160, Note_on_c, 1, 70, 127
2, 17160, Note_on_c, 1, 78, 127
2, 17200, Note_off_c, 1, 46, 0
2, 17200, Note_off_c, 1, 50, 0
2, 17200, Note_off_c, 1, 52, 0
2, 17200, Note_off_c, 1, 55, 0
2, 17200, Note_off_c, 1, 65, 0
2, 17200, Note_off_c, 1, 70, 0
2, 17200, Note_on_c, 1, 74, 127
2, 17200, Note_off_c, 1, 78, 0
2, 17240, Note_on_c, 1, 49, 127
2, 17240, Note_on_c, 1, 50, 127
2, 17240, Note_on_c, 1, 52, 127
2, 17240, Note_on_c, 1, 65, 127
2, 17240, Note_off_c, 1, 74, 0
2, 17280, Note_off_c, 1, 49, 0
2, 17280, Note_off_c, 1, 50, 0
2, 17280, Note_off_c, 1, 52, 0
2, 17280, Note_off_c, 1, 65, 0
2, 17320, Note_on_c, 1, 41, 127
2, 17320, Note_on_c, 1, 53, 127
2, 17320, Note_on_c, 1, 55, 127
2, 17320, Note_on_c, 1, 69, 127
2, 17320, Note_on_c, 1, 79, 127
2, 17320, Note_on_c, 1, 84, 127
2, 17360, Note_off_c, 1, 41, 0
2, 17360, Note_off_c, 1, 53, 0
2, 17360, Note_off_c, 1, 55, 0
2, 17360, Note_off_c, 1, 69, 0
2, 17360, Note_off_c, 1, 79, 0
2, 17360, Note_off_c, 1, 84, 0
2, 17400, Note_on_c, 1, 31, 127
2, 17400, Note_on_c, 1, 55, 127
2, 17400, Note_on_c, 1, 70, 127
2, 17400, Note_on_c, 1, 72, 127
2, 17440, Note_off_c, 1, 31, 0
2, 17440, Note_on_c, 1, 44, 127
2, 17440, Note_on_c, 1, 50, 127
2, 17440, Note_off_c, 1, 55, 0
2, 17440, Note_on_c, 1, 62, 127
2, 17440, Note_on_c, 1, 64, 127
2, 17440, Note_on_c, 1, 67, 127
2, 17440, Note_off_c, 1, 70, 0
2, 17440, Note_on_c, 1, 71, 127
2, 17440, Note_on_c, 1, 75, 127
2, 17480, Note_off_c, 1, 44, 0
2, 17480, Note_on_c, 1, 46, 127
2, 17480, Note_off_c, 1, 50, 0
2, 17480, Note_off_c, 1, 62, 0
2, 17480, Note_off_c, 1, 64, 0
2, 17480, Note_on_c, 1, 65, 127
2, 17480, Note_off_c, 1, 67, 0
2, 17480, Note_off_c, 1, 71, 0
2, 17480, Note_off_c, 1, 72, 0
2, 17480, Note_on_c, 1, 73, 127
2, 17480, Note_off_c, 1, 75, 0
2, 17520, Note_off_c, 1, 46, 0
2, 17520, Note_on_c, 1, 52, 127
2, 17520, Note_on_c, 1, 63, 127
2, 17520, Note_on_c, 1, 70, 127
2, 17520, Note_on_c, 1, 72, 127
2, 17520, Note_off_c, 1, 73, 0
2, 17560, Note_on_c, 1, 46, 127
2, 17560, Note_on_c, 1, 48, 127
2, 17560, Note_on_c, 1, 49, 127
2, 17560, Note_off_c, 1, 52, 0
2, 17560, Note_on_c, 1, 55, 127
2, 17560, Note_on_c, 1, 62, 127
2, 17560, Note_off_c, 1, 63, 0
2, 17560, Note_off_c, 1, 65, 0
2, 17560, Note_on_c, 1, 69, 127
2, 17560, Note_off_c, 1, 70, 0
2, 17560, Note_off_c, 1, 72, 0
2, 17560, Note_on_c, 1, 74, 127
2, 17560, Note_on_c, 1, 77, 127
2, 17600, Note_off_c, 1, 46, 0
2, 17600, Note_off_c, 1, 48, 0
2, 17600, Note_off_c, 1, 49, 0
2, 17600, Note_off_c, 1, 55, 0
2, 17600, Note_off_c, 1, 62, 0
2, 17600, Note_off_c, 1, 69, 0
2, 17600, Note_off_c, 1, 74, 0
2, 17600, Note_off_c, 1, 77, 0
2, 17720, Note_on_c, 1, 50, 127
2, 17720, Note_on_c, 1, 74, 127
2, 17760, Note_on_c, 1, 41, 127
2, 17760, Note_off_c, 1, 50, 0
2, 17760, Note_on_c, 1, 53, 127
2, 17760, Note_off_c, 1, 74, 0
2, 17800, Note_off_c, 1, 41, 0
2, 17800, Note_off_c, 1, 53, 0
2, 17880, Note_on_c, 1, 41, 127
2, 17880, Note_on_c, 1, 50, 127
2, 17880, Note_on_c, 1, 52, 127
2, 17880, Note_on_c, 1, 53, 127
2, 17880, Note_on_c, 1, 57, 127
2, 17880, Note_on_c, 1, 60, 127
2, 17880, Note_on_c, 1, 61, 127
2, 17880, Note_on_c, 1, 65, 127
2, 17880, Note_on_c, 1, 70, 127
2, 17880, Note_on_c, 1, 72, 127
2, 17880, Note_on_c, 1, 74, 127
2, 17880, Note_on_c, 1, 77, 127
2, 17880, Note_on_c, 1, 80, 127
2, 17920, Note_off_c, 1, 41, 0
2, 17920, Note_off_c, 1, 50, 0
2, 17920, Note_off_c, 1, 52, 0
2, 17920, Note_off_c, 1, 53, 0
2, 17920, Note_off_c, 1, 57, 0
2, 17920, Note_on_c, 1, 59, 127
2, 17920, Note_off_c, 1, 60, 0
2, 17920, Note_off_c, 1, 61, 0
2, 17920, Note_off_c, 1, 65, 0
2, 17920, Note_off_c, 1, 70, 0
2, 17920, Note_off_c, 1, 72, 0
2, 17920, Note_off_c, 1, 74, 0
2, 17920, Note_off_c, 1, 77, 0
2, 17920, Note_off_c, 1, 80, 0
2, 17960, Note_on_c, 1, 47, 127
2, 17960, Note_on_c, 1, 50, 127
2, 17960, Note_on_c, 1, 57, 127
2, 17960, Note_off_c, 1, 59, 0
2, 17960, Note_on_c, 1, 60, 127
2, 17960, Note_on_c, 1, 62, 127
2, 17960, Note_on_c, 1, 69, 127
2, 17960, Note_on_c, 1, 82, 127
2, 18000, Note_off_c, 1, 47, 0
2, 18000, Note_off_c, 1, 50, 0
2, 18000, Note_off_c, 1, 57, 0
2, 18000, Note_off_c, 1, 60, 0
2, 18000, Note_off_c, 1, 62, 0
2, 18000, Note_on_c, 1, 65, 127
2, 18000, Note_off_c, 1, 69, 0
2, 18000, Note_on_c, 1, 72, 127
2, 18000, Note_off_c, 1, 82, 0
2, 18040, Note_on_c, 1, 57, 127
2, 18040, Note_off_c, 1, 65, 0
2, 18040, Note_off_c, 1, 72, 0
2, 18080, Note_on_c, 1, 55, 127
2, 18080, Note_off_c, 1, 57, 0
2, 18080, Note_on_c, 1, 61, 127
2, 18080, Note_on_c, 1, 65, 127
2, 18080, Note_on_c, 1, 69, 127
2, 18080, Note_on_c, 1, 72, 127
2, 18080, Note_on_c, 1, 76, 127
2, 18080, Note_on_c, 1, 77, 127
2, 18120, Note_off_c, 1, 55, 0
2, 18120, Note_off_c, 1, 61, 0
2, 18120, Note_off_c, 1, 65, 0
2, 18120, Note_off_c, 1, 69, 0
2, 18120, Note_on_c, 1, 71, 127
2, 18120, Note_off_c, 1, 72, 0
2, 18120, Note_off_c, 1, 76, 0
2, 18120, Note_off_c, 1, 77, 0
2, 18160, Note_on_c, 1, 70, 127
2, 18160, Note_off_c, 1, 71, 0
2, 18160, Note_on_c, 1, 72, 127
2, 18200, Note_on_c, 1, 55, 127
2, 18200, Note_on_c, 1, 65, 127
2, 18200, Note_off_c, 1, 70, 0
2, 18200, Note_off_c, 1, 72, 0
2, 18200, Note_on_c, 1, 73, 127
2, 18240, Note_off_c, 1, 55, 0
2, 18240, Note_off_c, 1, 65, 0
2, 18240, Note_off_c, 1, 73, 0
2, 18280, Note_on_c, 1, 46, 127
2, 18280, Note_on_c, 1, 69, 127
2, 18320, Note_on_c, 1, 41, 127
2, 18320, Note_off_c, 1, 46, 0
2, 18320, Note_on_c, 1, 55, 127
2, 18320, Note_on_c, 1, 57, 127
2, 18320, Note_on_c, 1, 64, 127
2, 18320, Note_on_c, 1, 65, 127
2, 18320, Note_on_c, 1, 76, 127
2, 18360, Note_off_c, 1, 41, 0
2, 18360, Note_off_c, 1, 55, 0
2, 18360, Note_off_c, 1, 57, 0
2, 18360, Note_off_c, 1, 64, 0
2, 18360, Note_off_c, 1, 65, 0
2, 18360, Note_off_c, 1, 69, 0
2, 18360, Note_off_c, 1, 76, 0
2, 18400, Note_on_c, 1, 40, 127
2, 18400, Note_on_c, 1, 53, 127
2, 18400, Note_on_c, 1, 57, 127
2, 18400, Note_on_c, 1, 62, 127
2, 18400, Note_on_c, 1, 63, 127
2, 18400, Note_on_c, 1, 76, 127
2, 18440, Note_off_c, 1, 40, 0
2, 18440, Note_off_c, 1, 53, 0
2, 18440, Note_off_c, 1, 57, 0
2, 18440, Note_off_c, 1, 62, 0
2, 18440, Note_off_c, 1, 63, 0
2, 18440, Note_on_c, 1, 65, 127
2, 18440, Note_off_c, 1, 76, 0
2, 18480, Note_on_c, 1, 53, 127
2, 18520, Note_on_c, 1, 44, 127
2, 18520, Note_off_c, 1, 53, 0
2, 18560, Note_off_c, 1, 44, 0
2, 18560, Note_off_c, 1, 65, 0
2, 18600, Note_on_c, 1, 77, 127
2, 18640, Note_on_c, 1, 46, 127
2, 18640, Note_on_c, 1, 50, 127
2, 18640, Note_on_c, 1, 62, 127
2, 18640, Note_on_c, 1, 65, 127
2, 18640, Note_on_c, 1, 70, 127
2, 18640, Note_on_c, 1, 72, 127
2, 18640, Note_on_c, 1, 75, 127
2, 18640, Note_off_c, 1, 77, 0
2, 18640, Note_on_c, 1, 82, 127
2, 18680, Note_off_c, 1, 46, 0
2, 18680, Note_off_c, 1, 50, 0
2, 18680, Note_off_c, 1, 62, 0
2, 18680, Note_off_c, 1, 65, 0
2, 18680, Note_off_c, 1, 70, 0
2, 18680, Note_off_c, 1, 72, 0
2, 18680, Note_off_c, 1, 75, 0
2, 18680, Note_on_c, 1, 78, 127
2, 18680, Note_off_c, 1, 82, 0
2, 18720, Note_on_c, 1, 50, 127
2, 18720, Note_on_c, 1, 53, 127
2, 18720, Note_on_c, 1, 62, 127
2, 18720, Note_on_c, 1, 63, 127
2, 18720, Note_on_c, 1, 69, 127
2, 18720, Note_on_c, 1, 72, 127
2, 18720, Note_on_c, 1, 74, 127
2, 18720, Note_off_c, 1, 78, 0
2, 18760, Note_off_c, 1, 50, 0
2, 18760, Note_off_c, 1, 53, 0
2, 18760, Note_off_c, 1, 62, 0
2, 18760, Note_off_c, 1, 63, 0
2, 18760, Note_off_c, 1, 69, 0
2, 18760, Note_on_c, 1, 70, 127
2, 18760, Note_off_c, 1, 72, 0
2, 18760, Note_off_c, 1, 74, 0
2, 18800, Note_on_c, 1, 67, 127
2, 18800, Note_off_c, 1, 70, 0
2, 18800, Note_on_c, 1, 72, 127
2, 18840, Note_on_c, 1, 65, 127
2, 18840, Note_off_c, 1, 67, 0
2, 18880, Note_on_c, 1, 41, 127
2, 18880, Note_on_c, 1, 48, 127
2, 18880, Note_on_c, 1, 53, 127
2, 18880, Note_on_c, 1, 62, 127
2, 18880, Note_off_c, 1, 65, 0
2, 18880, Note_off_c, 1, 72, 0
2, 18920, Note_off_c, 1, 41, 0
2, 18920, Note_off_c, 1, 48, 0
2, 18920, Note_off_c, 1, 53, 0
2, 18920, Note_off_c, 1, 62, 0
2, 19000, Note_on_c, 1, 50, 127
2, 19000, Note_on_c, 1, 70, 127
2, 19040, Note_off_c, 1, 50, 0
2, 19040, Note_on_c, 1, 58, 127
2, 19040, Note_on_c, 1, 62, 127
2, 19040, Note_off_c, 1, 70, 0
2, 19040, Note_on_c, 1, 72, 127
2, 19040, Note_on_c, 1, 78, 127
2, 19080, Note_off_c, 1, 58, 0
2, 19080, Note_off_c, 1, 62, 0
2, 19080, Note_off_c, 1, 72, 0
2, 19080, Note_on_c, 1, 77, 127
2, 19080, Note_off_c, 1, 78, 0
2, 19120, Note_on_c, 1, 43, 127
2, 19120, Note_on_c, 1, 46, 127
2, 19120, Note_on_c, 1, 52, 127
2, 19120, Note_on_c, 1, 55, 127
2, 19120, Note_on_c, 1, 57, 127
2, 19120, Note_on_c, 1, 65, 127
2, 19120, Note_on_c, 1, 70, 127
2, 19120, Note_on_c, 1, 74, 127
2, 19120, Note_off_c, 1, 77, 0
2, 19160, Note_off_c, 1, 43, 0
2, 19160, Note_off_c, 1, 46, 0
2, 19160, Note_off_c, 1, 55, 0
2, 19160, Note_off_c, 1, 57, 0
2, 19160, Note_off_c, 1, 65, 0
2, 19160, Note_off_c, 1, 70, 0
2, 19160, Note_off_c, 1, 74, 0
2, 19200, Note_off_c, 1, 52, 0
2, 19200, Note_on_c, 1, 59, 127
2, 19200, Note_on_c, 1, 76, 127
2, 19240, Note_on_c, 1, 53, 127
2, 19240, Note_on_c, 1, 55, 127
2, 19240, Note_off_c, 1, 59, 0
2, 19240, Note_on_c, 1, 67, 127
2, 19240, Note_off_c, 1, 76, 0
2, 19280, Note_off_c, 1, 55, 0
2, 19280, Note_on_c, 1, 57, 127
2, 19280, Note_off_c, 1, 67, 0
2, 19280, Note_on_c, 1, 72, 127
2, 19320, Note_on_c, 1, 35, 127
2, 19320, Note_on_c, 1, 46, 127
2, 19320, Note_on_c, 1, 48, 127
2, 19320, Note_off_c, 1, 53, 0
2, 19320, Note_on_c, 1, 56, 127
2, 19320, Note_off_c, 1, 57, 0
2, 19320, Note_on_c, 1, 62, 127
2, 19320, Note_on_c, 1, 65, 127
2, 19320, Note_on_c, 1, 69, 127
2, 19320, Note_on_c, 1, 78, 127
2, 19360, Note_off_c, 1, 35, 0
2, 19360, Note_off_c, 1, 46, 0
2, 19360, Note_off_c, 1, 48, 0
2, 19360, Note_off_c, 1, 56, 0
2, 19360, Note_off_c, 1, 62, 0
2, 19360, Note_on_c, 1, 64, 127
2, 19360, Note_off_c, 1, 65, 0
2, 19360, Note_on_c, 1, 67, 127
2, 19360, Note_off_c, 1, 69, 0
2, 19360, Note_off_c, 1, 72, 0
2, 19360, Note_on_c, 1, 74, 127
2, 19360, Note_on_c, 1, 77, 127
2, 19360, Note_off_c, 1, 78, 0
2, 19400, Note_on_c, 1, 52, 127
2, 19400, Note_on_c, 1, 53, 127
2, 19400, Note_on_c, 1, 55, 127
2, 19400, Note_on_c, 1, 62, 127
2, 19400, Note_off_c, 1, 64, 0
2, 19400, Note_on_c, 1, 65, 127
2, 19400, Note_off_c, 1, 67, 0
2, 19400, Note_off_c, 1, 74, 0
2, 19400, Note_off_c, 1, 77, 0
2, 19440, Note_off_c, 1, 52, 0
2, 19440, Note_off_c, 1, 53, 0
2, 19440, Note_off_c, 1, 55, 0
2, 19440, Note_on_c, 1, 57, 127
2, 19440, Note_off_c, 1, 62, 0
2, 19440, Note_off_c, 1, 65, 0
2, 19480, Note_on_c, 1, 44, 127
2, 19480, Note_on_c, 1, 46, 127
2, 19480, Note_on_c, 1, 50, 127
2, 19480, Note_on_c, 1, 53, 127
2, 19480, Note_off_c, 1, 57, 0
2, 19480, Note_on_c, 1, 58, 127
2, 19480, Note_on_c, 1, 62, 127
2, 19480, Note_on_c, 1, 65, 127
2, 19480, Note_on_c, 1, 69, 127
2, 19480, Note_on_c, 1, 74, 127
2, 19480, Note_on_c, 1, 77, 127
2, 19520, Note_off_c, 1, 44, 0
2, 19520, Note_off_c, 1, 46, 0
2, 19520, Note_off_c, 1, 50, 0
2, 19520, Note_off_c, 1, 53, 0
2, 19520, Note_off_c, 1, 58, 0
2, 19520, Note_off_c, 1, 62, 0
2, 19520, Note_off_c, 1, 65, 0
2, 19520, Note_on_c, 1, 67, 127
2, 19520, Note_off_c, 1, 69, 0
2, 19520, Note_off_c, 1, 74, 0
2, 19520, Note_off_c, 1, 77, 0
2, 19560, Note_off_c, 1, 67, 0
2, 19560, Note_on_c, 1, 72, 127
2, 19600, Note_on_c, 1, 69, 127
2, 19640, Note_on_c, 1, 48, 127
2, 19640, Note_on_c, 1, 53, 127
2, 19640, Note_on_c, 1, 65, 127
2, 19640, Note_off_c, 1, 69, 0
2, 19640, Note_on_c, 1, 70, 127
2, 19640, Note_on_c, 1, 74, 127
2, 19680, Note_off_c, 1, 48, 0
2, 19680, Note_off_c, 1, 53, 0
2, 19680, Note_off_c, 1, 65, 0
2, 19680, Note_off_c, 1, 70, 0
2, 19680, Note_off_c, 1, 72, 0
2, 19680, Note_off_c, 1, 74, 0
2, 19720, Note_on_c, 1, 46, 127
2, 19720, Note_on_c, 1, 61, 127
2, 19720, Note_on_c, 1, 65, 127
2, 19720, Note_on_c, 1, 72, 127
2, 19760, Note_off_c, 1, 46, 0
2, 19760, Note_off_c, 1, 61, 0
2, 19760, Note_off_c, 1, 65, 0
2, 19760, Note_on_c, 1, 67, 127
2, 19760, Note_off_c, 1, 72, 0
2, 19760, Note_on_c, 1, 77, 127
2, 19800, Note_on_c, 1, 50, 127
2, 19800, Note_on_c, 1, 52, 127
2, 19800, Note_on_c, 1, 57, 127
2, 19800, Note_on_c, 1, 62, 127
2, 19800, Note_on_c, 1, 65, 127
2, 19800, Note_off_c, 1, 67, 0
2, 19800, Note_on_c, 1, 69, 127
2, 19800, Note_on_c, 1, 74, 127
2, 19800, Note_on_c, 1, 75, 127
2, 19800, Note_off_c, 1, 77, 0
2, 19840, Note_off_c, 1, 50, 0
2, 19840, Note_off_c, 1, 52, 0
2, 19840, Note_off_c, 1, 57, 0
2, 19840, Note_off_c, 1, 62, 0
2, 19840, Note_off_c, 1, 65, 0
2, 19840, Note_off_c, 1, 69, 0
2, 19840, Note_off_c, 1, 75, 0
2, 19840, Note_on_c, 1, 76, 127
2, 19880, Note_on_c, 1, 37, 127
2, 19880, Note_on_c, 1, 58, 127
2, 19880, Note_on_c, 1, 64, 127
2, 19880, Note_on_c, 1, 65, 127
2, 19880, Note_on_c, 1, 67, 127
2, 19880, Note_on_c, 1, 70, 127
2, 19880, Note_off_c, 1, 74, 0
2, 19880, Note_off_c, 1, 76, 0
2, 19880, Note_on_c, 1, 78, 127
2, 19920, Note_off_c, 1, 37, 0
2, 19920, Note_off_c, 1, 58, 0
2, 19920, Note_off_c, 1, 64, 0
2, 19920, Note_off_c, 1, 65, 0
2, 19920, Note_off_c, 1, 67, 0
2, 19920, Note_off_c, 1, 70, 0
2, 19920, Note_off_c, 1, 78, 0
2, 19960, Note_on_c, 1, 36, 127
2, 19960, Note_on_c, 1, 50, 127
2, 19960, Note_on_c, 1, 53, 127
2, 19960, Note_on_c, 1, 55, 127
2, 19960, Note_on_c, 1, 74, 127
2, 20000, Note_off_c, 1, 36, 0
2, 20000, Note_off_c, 1, 50, 0
2, 20000, Note_off_c, 1, 53, 0
2, 20000, Note_off_c, 1, 55, 0
2, 20000, Note_on_c, 1, 65, 127
2, 20000, Note_on_c, 1, 67, 127
2, 20000, Note_on_c, 1, 69, 127
2, 20000, Note_off_c, 1, 74, 0
2, 20040, Note_on_c, 1, 46, 127
2, 20040, Note_on_c, 1, 53, 127
2, 20040, Note_off_c, 1, 65, 0
2, 20040, Note_off_c, 1, 67, 0
2, 20040, Note_off_c, 1, 69, 0
2, 20080, Note_off_c, 1, 46, 0
2, 20080, Note_off_c, 1, 53, 0
2, 20080, Note_on_c, 1, 67, 127
2, 20120, Note_on_c, 1, 65, 127
2, 20120, Note_off_c, 1, 67, 0
2, 20120, Note_on_c, 1, 79, 127
2, 20160, Note_off_c, 1, 79, 0
2, 20200, Note_on_c, 1, 50, 127
2, 20200, Note_on_c, 1, 57, 127
2, 20200, Note_on_c, 1, 69, 127
2, 20200, Note_on_c, 1, 77, 127
2, 20240, Note_off_c, 1, 50, 0
2, 20240, Note_off_c, 1, 57, 0
2, 20240, Note_off_c, 1, 65, 0
2, 20240, Note_off_c, 1, 69, 0
2, 20240, Note_off_c, 1, 77, 0
2, 20280, Note_on_c, 1, 53, 127
2, 20280, Note_on_c, 1, 69, 127
2, 20280, Note_on_c, 1, 72, 127
2, 20280, Note_on_c, 1, 76, 127
2, 20280, Note_on_c, 1, 77, 127
2, 20320, Note_off_c, 1, 53, 0
2, 20320, Note_off_c, 1, 69, 0
2, 20320, Note_off_c, 1, 72, 0
2, 20320, Note_off_c, 1, 76, 0
2, 20320, Note_off_c, 1, 77, 0
2, 20360, Note_on_c, 1, 72, 127
2, 20400, Note_on_c, 1, 47, 127
2, 20400, Note_on_c, 1, 57, 127
2, 20400, Note_on_c, 1, 65, 127
2, 20400, Note_on_c, 1, 67, 127
2, 20400, Note_on_c, 1, 70, 127
2, 20400, Note_off_c, 1, 72, 0
2, 20440, Note_off_c, 1, 47, 0
2, 20440, Note_off_c, 1, 57, 0
2, 20440, Note_off_c, 1, 65, 0
2, 20440, Note_off_c, 1, 70, 0
2, 20440, Note_on_c, 1, 79, 127
2, 20480, Note_on_c, 1, 59, 127
2, 20480, Note_off_c, 1, 67, 0
2, 20480, Note_off_c, 1, 79, 0
2, 20520, Note_on_c, 1, 46, 127
2, 20520, Note_off_c, 1, 59, 0
2, 20520, Note_on_c, 1, 60, 127
2, 20520, Note_on_c, 1, 67, 127
2, 20560, Note_off_c, 1, 46, 0
2, 20560, Note_off_c, 1, 60, 0
2, 20560, Note_off_c, 1, 67, 0
2, 20600, Note_on_c, 1, 52, 127
2, 20600, Note_on_c, 1, 53, 127
2, 20640, Note_off_c, 1, 52, 0
2, 20640, Note_off_c, 1, 53, 0
2, 20680, Note_on_c, 1, 38, 127
2, 20680, Note_on_c, 1, 52, 127
2, 20680, Note_on_c, 1, 57, 127
2, 20680, Note_on_c, 1, 69, 127
2, 20680, Note_on_c, 1, 70, 127
2, 20720, Note_off_c, 1, 38, 0
2, 20720, Note_off_c, 1, 57, 0
2, 20720, Note_off_c, 1, 69, 0
2, 20720, Note_off_c, 1, 70, 0
2, 20720, Note_on_c, 1, 71, 127
2, 20760, Note_off_c, 1, 52, 0
2, 20760, Note_off_c, 1, 71, 0
2, 20800, Note_on_c, 1, 58, 127
2, 20800, Note_on_c, 1, 72, 127
2, 20800, Note_on_c, 1, 74, 127
2, 20840, Note_on_c, 1, 57, 127
2, 20840, Note_off_c, 1, 58, 0
2, 20840, Note_on_c, 1, 69, 127
2, 20840, Note_off_c, 1, 72, 0
2, 20840, Note_off_c, 1, 74, 0
2, 20840, Note_on_c, 1, 77, 127
2, 20840, Note_on_c, 1, 78, 127
2, 20880, Note_off_c, 1, 57, 0
2, 20880, Note_on_c, 1, 61, 127
2, 20880, Note_on_c, 1, 65, 127
2, 20880, Note_off_c, 1, 69, 0
2, 20880, Note_off_c, 1, 77, 0
2, 20880, Note_off_c, 1, 78, 0
2, 20920, Note_on_c, 1, 49, 127
2, 20920, Note_off_c, 1, 61, 0
2, 20920, Note_off_c, 1, 65, 0
2, 20920, Note_on_c, 1, 72, 127
2, 20920, Note_on_c, 1, 75, 127
2, 20960, Note_off_c, 1, 49, 0
2, 20960, Note_on_c, 1, 50, 127
2, 20960, Note_on_c, 1, 56, 127
2, 20960, Note_on_c, 1, 63, 127
2, 20960, Note_on_c, 1, 65, 127
2, 20960, Note_on_c, 1, 69, 127
2, 20960, Note_off_c, 1, 75, 0
2, 20960, Note_on_c, 1, 78, 127
2, 21000, Note_on_c, 1, 41, 127
2, 21000, Note_off_c, 1, 50, 0
2, 21000, Note_off_c, 1, 56, 0
2, 21000, Note_off_c, 1, 63, 0
2, 21000, Note_on_c, 1, 70, 127
2, 21000, Note_off_c, 1, 72, 0
2, 21000, Note_on_c, 1, 74, 127
2, 21000, Note_on_c, 1, 77, 127
2, 21000, Note_off_c, 1, 78, 0
2, 21040, Note_off_c, 1, 41, 0
2, 21040, Note_off_c, 1, 65, 0
2, 21040, Note_off_c, 1, 69, 0
2, 21040, Note_off_c, 1, 70, 0
2, 21040, Note_off_c, 1, 74, 0
2, 21040, Note_off_c, 1, 77, 0
2, 21120, Note_on_c, 1, 38, 127
2, 21120, Note_on_c, 1, 70, 127
2, 21120, Note_on_c, 1, 72, 127
2, 21120, Note_on_c, 1, 74, 127
2, 21120, Note_on_c, 1, 76, 127
2, 21160, Note_off_c, 1, 38, 0
2, 21160, Note_off_c, 1, 70, 0
2, 21160, Note_off_c, 1, 72, 0
2, 21160, Note_off_c, 1, 74, 0
2, 21160, Note_off_c, 1, 76, 0
2, 21200, Note_on_c, 1, 66, 127
2, 21240, Note_on_c, 1, 65, 127
2, 21240, Note_off_c, 1, 66, 0
2, 21240, Note_on_c, 1, 69, 127
2, 21280, Note_on_c, 1, 53, 127
2, 21280, Note_off_c, 1, 69, 0
2, 21320, Note_off_c, 1, 53, 0
2, 21320, Note_off_c, 1, 65, 0
2, 21320, Note_on_c, 1, 72, 127
2, 21360, Note_on_c, 1, 49, 127
2, 21360, Note_on_c, 1, 53, 127
2, 21360, Note_on_c, 1, 57, 127
2, 21360, Note_on_c, 1, 60, 127
2, 21360, Note_on_c, 1, 65, 127
2, 21360, Note_off_c, 1, 72, 0
2, 21400, Note_on_c, 1, 44, 127
2, 21400, Note_on_c, 1, 55, 127
2, 21400, Note_off_c, 1, 57, 0
2, 21400, Note_off_c, 1, 60, 0
2, 21400, Note_on_c, 1, 62, 127
2, 21400, Note_on_c, 1, 72, 127
2, 21400, Note_on_c, 1, 74, 127
2, 21440, Note_off_c, 1, 44, 0
2, 21440, Note_off_c, 1, 49, 0
2, 21440, Note_off_c, 1, 53, 0
2, 21440, Note_on_c, 1, 61, 127
2, 21440, Note_off_c, 1, 62, 0
2, 21440, Note_off_c, 1, 65, 0
2, 21440, Note_on_c, 1, 70, 127
2, 21440, Note_off_c, 1, 74, 0
2, 21480, Note_off_c, 1, 55, 0
2, 21480, Note_off_c, 1, 61, 0
2, 21480, Note_off_c, 1, 70, 0
2, 21480, Note_off_c, 1, 72, 0
2, 21560, Note_on_c, 1, 70, 127
2, 21560, Note_on_c, 1, 74, 127
2, 21600, Note_on_c, 1, 48, 127
2, 21600, Note_off_c, 1, 70, 0
2, 21600, Note_off_c, 1, 74, 0
2, 21640, Note_on_c, 1, 45, 127
2, 21640, Note_off_c, 1, 48, 0
2, 21640, Note_on_c, 1, 66, 127
2, 21640, Note_on_c, 1, 74, 127
2, 21680, Note_off_c, 1, 45, 0
2, 21680, Note_off_c, 1, 66, 0
2, 21680, Note_off_c, 1, 74, 0
2, 21720, Note_on_c, 1, 29, 127
2, 21720, Note_on_c, 1, 32, 127
2, 21720, Note_on_c, 1, 38, 127
2, 21720, Note_on_c, 1, 49, 127
2, 21720, Note_on_c, 1, 50, 127
2, 21720, Note_on_c, 1, 53, 127
2, 21720, Note_on_c, 1, 55, 127
2, 21720, Note_on_c, 1, 57, 127
2, 21720, Note_on_c, 1, 61, 127
2, 21720, Note_on_c, 1, 62, 127
2, 21720, Note_on_c, 1, 65, 127
2, 21720, Note_on_c, 1, 70, 127
2, 21720, Note_on_c, 1, 77, 127
2, 21720, Note_on_c, 1, 79, 127
2, 21760, Note_off_c, 1, 29, 0
2, 21760, Note_off_c, 1, 32, 0
2, 21760, Note_off_c, 1, 38, 0
2, 21760, Note_off_c, 1, 49, 0
2, 21760, Note_off_c, 1, 50, 0
2, 21760, Note_off_c, 1, 53, 0
2, 21760, Note_off_c, 1, 55, 0
2, 21760, Note_off_c, 1, 57, 0
2, 21760, Note_off_c, 1, 61, 0
2, 21760, Note_off_c, 1, 62, 0
2, 21760, Note_off_c, 1, 65, 0
2, 21760, Note_off_c, 1, 70, 0
2, 21760, Note_off_c, 1, 77, 0
2, 21760, Note_off_c, 1, 79, 0
2, 21840, Note_on_c, 1, 49, 127
2, 21840, Note_on_c, 1, 50, 127
2, 21840, Note_on_c, 1, 60, 127
2, 21840, Note_on_c, 1, 62, 127
2, 21840, Note_on_c, 1, 64, 127
2, 21840, Note_on_c, 1, 65, 127
2, 21840, Note_on_c, 1, 67, 127
2, 21840, Note_on_c, 1, 72, 127
2, 21880, Note_off_c, 1, 49, 0
2, 21880, Note_off_c, 1, 50, 0
2, 21880, Note_on_c, 1, 55, 127
2, 21880, Note_on_c, 1, 56, 127
2, 21880, Note_on_c, 1, 57, 127
2, 21880, Note_on_c, 1, 58, 127
2, 21880, Note_off_c, 1, 60, 0
2, 21880, Note_off_c, 1, 62, 0
2, 21880, Note_off_c, 1, 64, 0
2, 21880, Note_off_c, 1, 65, 0
2, 21880, Note_off_c, 1, 67, 0
2, 21880, Note_on_c, 1, 69, 127
2, 21880, Note_on_c, 1, 70, 127
2, 21880, Note_on_c, 1, 77, 127
2, 21880, Note_on_c, 1, 79, 127
2, 21920, Note_off_c, 1, 55, 0
2, 21920, Note_off_c, 1, 56, 0
2, 21920, Note_off_c, 1, 57, 0
2, 21920, Note_off_c, 1, 58, 0
2, 21920, Note_off_c, 1, 69, 0
2, 21920, Note_off_c, 1, 70, 0
2, 21920, Note_off_c, 1, 72, 0
2, 21920, Note_off_c, 1, 77, 0
2, 21920, Note_off_c, 1, 79, 0
2, 21960, Note_on_c, 1, 53, 127
2, 22000, Note_off_c, 1, 53, 0
2, 22040, Note_on_c, 1, 46, 127
2, 22040, Note_on_c, 1, 67, 127
2, 22040, Note_on_c, 1, 70, 127
2, 22080, Note_off_c, 1, 46, 0
2, 22080, Note_off_c, 1, 67, 0
2, 22080, Note_off_c, 1, 70, 0
2, 22120, Note_on_c, 1, 50, 127
2, 22120, Note_on_c, 1, 57, 127
2, 22160, Note_off_c, 1, 50, 0
2, 22160, Note_off_c, 1, 57, 0
2, 22160, Note_on_c, 1, 67, 127
2, 22200, Note_on_c, 1, 41, 127
2, 22200, Note_off_c, 1, 67, 0
2, 22200, Note_on_c, 1, 69, 127
2, 22200, Note_on_c, 1, 71, 127
2, 22240, Note_on_c, 1, 49, 127
2, 22240, Note_on_c, 1, 55, 127
2, 22240, Note_on_c, 1, 61, 127
2, 22240, Note_off_c, 1, 71, 0
2, 22240, Note_on_c, 1, 72, 127
2, 22240, Note_on_c, 1, 82, 127
2, 22280, Note_off_c, 1, 41, 0
2, 22280, Note_off_c, 1, 49, 0
2, 22280, Note_off_c, 1, 55, 0
2, 22280, Note_off_c, 1, 61, 0
2, 22280, Note_off_c, 1, 69, 0
2, 22280, Note_off_c, 1, 72, 0
2, 22280, Note_off_c, 1, 82, 0
2, 22320, Note_on_c, 1, 56, 127
2, 22320, Note_on_c, 1, 65, 127
2, 22320, Note_on_c, 1, 76, 127
2, 22360, Note_on_c, 1, 55, 127
2, 22360, Note_off_c, 1, 56, 0
2, 22360, Note_on_c, 1, 62, 127
2, 22360, Note_off_c, 1, 65, 0
2, 22360, Note_off_c, 1, 76, 0
2, 22400, Note_on_c, 1, 44, 127
2, 22400, Note_on_c, 1, 52, 127
2, 22400, Note_off_c, 1, 55, 0
2, 22400, Note_on_c, 1, 57, 127
2, 22400, Note_off_c, 1, 62, 0
2, 22400, Note_on_c, 1, 65, 127
2, 22400, Note_on_c, 1, 67, 127
2, 22400, Note_on_c, 1, 72, 127
2, 22400, Note_on_c, 1, 74, 127
2, 22400, Note_on_c, 1, 77, 127
2, 22440, Note_off_c, 1, 44, 0
2, 22440, Note_off_c, 1, 52, 0
2, 22440, Note_off_c, 1, 57, 0
2, 22440, Note_off_c, 1, 67, 0
2, 22440, Note_off_c, 1, 72, 0
2, 22440, Note_off_c, 1, 74, 0
2, 22440, Note_off_c, 1, 77, 0
2, 22480, Note_off_c, 1, 65, 0
2, 22480, Note_on_c, 1, 72, 127
2, 22520, Note_on_c, 1, 50, 127
2, 22520, Note_on_c, 1, 57, 127
2, 22520, Note_on_c, 1, 58, 127
2, 22520, Note_on_c, 1, 62, 127
2, 22520, Note_on_c, 1, 65, 127
2, 22520, Note_on_c, 1, 69, 127
2, 22520, Note_on_c, 1, 70, 127
2, 22520, Note_off_c, 1, 72, 0
2, 22520, Note_on_c, 1, 77, 127
2, 22560, Note_on_c, 1, 36, 127
2, 22560, Note_off_c, 1, 50, 0
2, 22560, Note_on_c, 1, 51, 127
2, 22560, Note_off_c, 1, 58, 0
2, 22560, Note_off_c, 1, 65, 0
2, 22560, Note_off_c, 1, 69, 0
2, 22560, Note_off_c, 1, 70, 0
2, 22560, Note_on_c, 1, 71, 127
2, 22560, Note_off_c, 1, 77, 0
2, 22600, Note_off_c, 1, 36, 0
2, 22600, Note_on_c, 1, 46, 127
2, 22600, Note_on_c, 1, 50, 127
2, 22600, Note_off_c, 1, 51, 0
2, 22600, Note_on_c, 1, 53, 127
2, 22600, Note_off_c, 1, 57, 0
2, 22600, Note_off_c, 1, 62, 0
2, 22600, Note_on_c, 1, 65, 127
2, 22600, Note_off_c, 1, 71, 0
2, 22600, Note_on_c, 1, 74, 127
2, 22640, Note_off_c, 1, 46, 0
2, 22640, Note_off_c, 1, 50, 0
2, 22640, Note_off_c, 1, 53, 0
2, 22640, Note_on_c, 1, 63, 127
2, 22640, Note_off_c, 1, 65, 0
2, 22680, Note_off_c, 1, 63, 0
2, 22680, Note_off_c, 1, 74, 0
2, 22760, Note_on_c, 1, 46, 127
2, 22760, Note_on_c, 1, 52, 127
2, 22760, Note_on_c, 1, 57, 127
2, 22760, Note_on_c, 1, 65, 127
2, 22760, Note_on_c, 1, 69, 127
2, 22800, Note_on_c, 1, 44, 127
2, 22800, Note_on_c, 1, 51, 127
2, 22800, Note_off_c, 1, 52, 0
2, 22800, Note_on_c, 1, 55, 127
2, 22800, Note_off_c, 1, 57, 0
2, 22800, Note_off_c, 1, 69, 0
2, 22800, Note_on_c, 1, 70, 127
2, 22800, Note_on_c, 1, 78, 127
2, 22840, Note_off_c, 1, 44, 0
2, 22840, Note_off_c, 1, 46, 0
2, 22840, Note_off_c, 1, 51, 0
2, 22840, Note_off_c, 1, 55, 0
2, 22840, Note_on_c, 1, 64, 127
2, 22840, Note_off_c, 1, 65, 0
2, 22840, Note_off_c, 1, 70, 0
2, 22840, Note_on_c, 1, 74, 127
2, 22840, Note_off_c, 1, 78, 0
2, 22840, Note_on_c, 1, 79, 127
2, 22880, Note_off_c, 1, 64, 0
2, 22880, Note_off_c, 1, 74, 0
2, 22880, Note_off_c, 1, 79, 0
2, 22920, Note_on_c, 1, 50, 127
2, 22920, Note_on_c, 1, 53, 127
2, 22920, Note_on_c, 1, 62, 127
2, 22920, Note_on_c, 1, 65, 127
2, 22920, Note_on_c, 1, 72, 127
2, 22960, Note_on_c, 1, 36, 127
2, 22960, Note_on_c, 1, 46, 127
2, 22960, Note_on_c, 1, 49, 127
2, 22960, Note_off_c, 1, 50, 0
2, 22960, Note_off_c, 1, 53, 0
2, 22960, Note_on_c, 1, 55, 127
2, 22960, Note_on_c, 1, 58, 127
2, 22960, Note_off_c, 1, 62, 0
2, 22960, Note_off_c, 1, 65, 0
2, 22960, Note_on_c, 1, 69, 127
2, 22960, Note_off_c, 1, 72, 0
2, 22960, Note_on_c, 1, 76, 127
2, 23000, Note_off_c, 1, 36, 0
2, 23000, Note_off_c, 1, 46, 0
2, 23000, Note_off_c, 1, 49, 0
2, 23000, Note_off_c, 1, 55, 0
2, 23000, Note_off_c, 1, 58, 0
2, 23000, Note_on_c, 1, 65, 127
2, 23000, Note_off_c, 1, 69, 0
2, 23000, Note_on_c, 1, 74, 127
2, 23000, Note_off_c, 1, 76, 0
2, 23040, Note_on_c, 1, 33, 127
2, 23040, Note_on_c, 1, 41, 127
2, 23040, Note_on_c, 1, 44, 127
2, 23040, Note_on_c, 1, 50, 127
2, 23040, Note_on_c, 1, 51, 127
2, 23040, Note_on_c, 1, 59, 127
2, 23040, Note_on_c, 1, 64, 127
2, 23040, Note_off_c, 1, 74, 0
2, 23080, Note_off_c, 1, 41, 0
2, 23080, Note_off_c, 1, 44, 0
2, 23080, Note_on_c, 1, 49, 127
2, 23080, Note_off_c, 1, 50, 0
2, 23080, Note_off_c, 1, 51, 0
2, 23080, Note_on_c, 1, 57, 127
2, 23080, Note_on_c, 1, 58, 127
2, 23080, Note_off_c, 1, 59, 0
2, 23080, Note_off_c, 1, 64, 0
2, 23080, Note_off_c, 1, 65, 0
2, 23120, Note_off_c, 1, 33, 0
2, 23120, Note_off_c, 1, 49, 0
2, 23120, Note_off_c, 1, 57, 0
2, 23120, Note_off_c, 1, 58, 0
2, 23200, Note_on_c, 1, 46, 127
2, 23200, Note_on_c, 1, 57, 127
2, 23240, Note_off_c, 1, 46, 0
2, 23240, Note_on_c, 1, 50, 127
2, 23240, Note_off_c, 1, 57, 0
2, 23280, Note_off_c, 1, 50, 0
2, 23320, Note_on_c, 1, 50, 127
2, 23320, Note_on_c, 1, 72, 127
2, 23360, Note_off_c, 1, 50, 0
2, 23360, Note_on_c, 1, 62, 127
2, 23360, Note_off_c, 1, 72, 0
2, 23360, Note_on_c, 1, 74, 127
2, 23400, Note_on_c, 1, 35, 127
2, 23400, Note_on_c, 1, 49, 127
2, 23400, Note_on_c, 1, 50, 127
2, 23400, Note_on_c, 1, 57, 127
2, 23400, Note_off_c, 1, 62, 0
2, 23400, Note_off_c, 1, 74, 0
2, 23400, Note_on_c, 1, 79, 127
2, 23400, Note_on_c, 1, 81, 127
2, 23440, Note_off_c, 1, 35, 0
2, 23440, Note_off_c, 1, 49, 0
2, 23440, Note_off_c, 1, 50, 0
2, 23440, Note_off_c, 1, 57, 0
2, 23440, Note_on_c, 1, 61, 127
2, 23440, Note_off_c, 1, 79, 0
2, 23440, Note_off_c, 1, 81, 0
2, 23480, Note_on_c, 1, 37, 127
2, 23480, Note_on_c, 1, 41, 127
2, 23480, Note_off_c, 1, 61, 0
2, 23480, Note_on_c, 1, 66, 127
2, 23480, Note_on_c, 1, 70, 127
2, 23480, Note_on_c, 1, 74, 127
2, 23520, Note_off_c, 1, 37, 0
2, 23520, Note_off_c, 1, 41, 0
2, 23520, Note_on_c, 1, 64, 127
2, 23520, Note_on_c, 1, 65, 127
2, 23520, Note_off_c, 1, 66, 0
2, 23520, Note_off_c, 1, 70, 0
2, 23520, Note_off_c, 1, 74, 0
2, 23560, Note_on_c, 1, 44, 127
2, 23560, Note_on_c, 1, 46, 127
2, 23560, Note_on_c, 1, 53, 127
2, 23560, Note_on_c, 1, 57, 127
2, 23560, Note_on_c, 1, 58, 127
2, 23560, Note_off_c, 1, 64, 0
2, 23560, Note_on_c, 1, 77, 127
2, 23560, Note_on_c, 1, 79, 127
2, 23600, Note_off_c, 1, 44, 0
2, 23600, Note_off_c, 1, 46, 0
2, 23600, Note_off_c, 1, 53, 0
2, 23600, Note_off_c, 1, 57, 0
2, 23600, Note_off_c, 1, 58, 0
2, 23600, Note_off_c, 1, 65, 0
2, 23600, Note_on_c, 1, 67, 127
2, 23600, Note_off_c, 1, 77, 0
2, 23600, Note_off_c, 1, 79, 0
2, 23640, Note_on_c, 1, 58, 127
2, 23640, Note_off_c, 1, 67, 0
2, 23640, Note_on_c, 1, 74, 127
2, 23680, Note_on_c, 1, 46, 127
2, 23680, Note_off_c, 1, 58, 0
2, 23680, Note_on_c, 1, 72, 127
2, 23680, Note_off_c, 1, 74, 0
2, 23720, Note_off_c, 1, 46, 0
2, 23760, Note_off_c, 1, 72, 0
2, 23800, Note_on_c, 1, 57, 127
2, 23800, Note_on_c, 1, 65, 127
2, 23840, Note_off_c, 1, 57, 0
2, 23840, Note_on_c, 1, 62, 127
2, 23840, Note_off_c, 1, 65, 0
2, 23880, Note_on_c, 1, 46, 127
2, 23880, Note_on_c, 1, 48, 127
2, 23880, Note_on_c, 1, 61, 127
2, 23880, Note_off_c, 1, 62, 0
2, 23920, Note_off_c, 1, 46, 0
2, 23920, Note_off_c, 1, 48, 0
2, 23920, Note_off_c, 1, 61, 0
2, 23920, Note_on_c, 1, 65, 127
2, 23960, Note_off_c, 1, 65, 0
2, 24000, Note_on_c, 1, 65, 127
2, 24040, Note_off_c, 1, 65, 0
2, 24040, Note_on_c, 1, 73, 127
2, 24080, Note_off_c, 1, 73, 0
2, 24120, Note_on_c, 1, 46, 127
2, 24120, Note_on_c, 1, 52, 127
2, 24120, Note_on_c, 1, 63, 127
2, 24120, Note_on_c, 1, 70, 127
2, 24120, Note_on_c, 1, 76, 127
2, 24160, Note_off_c, 1, 46, 0
2, 24160, Note_off_c, 1, 52, 0
2, 24160, Note_on_c, 1, 53, 127
2, 24160, Note_off_c, 1, 63, 0
2, 24160, Note_off_c, 1, 70, 0
2, 24160, Note_off_c, 1, 76, 0
2, 24200, Note_off_c, 1, 53, 0
2, 24280, Note_on_c, 1, 64, 127
2, 24280, Note_on_c, 1, 70, 127
2, 24320, Note_off_c, 1, 64, 0
2, 24320, Note_off_c, 1, 70, 0
2, 24360, Note_on_c, 1, 36, 127
2, 24360, Note_on_c, 1, 53, 127
2, 24360, Note_on_c, 1, 65, 127
2, 24360, Note_on_c, 1, 66, 127
2, 24400, Note_off_c, 1, 36, 0
2, 24400, Note_on_c, 1, 41, 127
2, 24400, Note_on_c, 1, 52, 127
2, 24400, Note_off_c, 1, 53, 0
2, 24400, Note_on_c, 1, 62, 127
2, 24400, Note_off_c, 1, 65, 0
2, 24400, Note_off_c, 1, 66, 0
2, 24400, Note_on_c, 1, 67, 127
2, 24400, Note_on_c, 1, 74, 127
2, 24440, Note_off_c, 1, 41, 0
2, 24440, Note_on_c, 1, 50, 127
2, 24440, Note_off_c, 1, 52, 0
2, 24440, Note_on_c, 1, 61, 127
2, 24440, Note_off_c, 1, 62, 0
2, 24440, Note_off_c, 1, 67, 0
2, 24440, Note_on_c, 1, 72, 127
2, 24440, Note_off_c, 1, 74, 0
2, 24480, Note_on_c, 1, 57, 127
2, 24480, Note_on_c, 1, 58, 127
2, 24480, Note_off_c, 1, 61, 0
2, 24480, Note_off_c, 1, 72, 0
2, 24520, Note_off_c, 1, 50, 0
2, 24520, Note_off_c, 1, 57, 0
2, 24520, Note_off_c, 1, 58, 0
2, 24560, Note_on_c, 1, 65, 127
2, 24560, Note_on_c, 1, 72, 127
2, 24600, Note_on_c, 1, 43, 127
2, 24600, Note_on_c, 1, 46, 127
2, 24600, Note_on_c, 1, 53, 127
2, 24600, Note_on_c, 1, 60, 127
2, 24600, Note_on_c, 1, 62, 127
2, 24600, Note_off_c, 1, 65, 0
2, 24600, Note_off_c, 1, 72, 0
2, 24640, Note_off_c, 1, 43, 0
2, 24640, Note_off_c, 1, 46, 0
2, 24640, Note_off_c, 1, 53, 0
2, 24640, Note_on_c, 1, 55, 127
2, 24640, Note_off_c, 1, 60, 0
2, 24640, Note_off_c, 1, 62, 0
2, 24640, Note_on_c, 1, 69, 127
2, 24640, Note_on_c, 1, 77, 127
2, 24680, Note_on_c, 1, 53, 127
2, 24680, Note_off_c, 1, 55, 0
2, 24680, Note_on_c, 1, 57, 127
2, 24680, Note_on_c, 1, 65, 127
2, 24680, Note_off_c, 1, 69, 0
2, 24680, Note_off_c, 1, 77, 0
2, 24720, Note_off_c, 1, 53, 0
2, 24720, Note_off_c, 1, 57, 0
2, 24720, Note_off_c, 1, 65, 0
2, 24760, Note_on_c, 1, 31, 127
2, 24760, Note_on_c, 1, 57, 127
2, 24760, Note_on_c, 1, 59, 127
2, 24760, Note_on_c, 1, 64, 127
2, 24760, Note_on_c, 1, 68, 127
2, 24760, Note_on_c, 1, 69, 127
2, 24760, Note_on_c, 1, 71, 127
2, 24760, Note_on_c, 1, 76, 127
2, 24800, Note_on_c, 1, 55, 127
2, 24800, Note_off_c, 1, 57, 0
2, 24800, Note_on_c, 1, 58, 127
2, 24800, Note_off_c, 1, 59, 0
2, 24800, Note_off_c, 1, 64, 0
2, 24800, Note_on_c, 1, 65, 127
2, 24800, Note_off_c, 1, 68, 0
2, 24800, Note_off_c, 1, 69, 0
2, 24800, Note_on_c, 1, 70, 127
2, 24800, Note_off_c, 1, 71, 0
2, 24800, Note_off_c, 1, 76, 0
2, 24840, Note_off_c, 1, 31, 0
2, 24840, Note_on_c, 1, 32, 127
2, 24840, Note_off_c, 1, 55, 0
2, 24840, Note_off_c, 1, 58, 0
2, 24840, Note_on_c, 1, 62, 127
2, 24840, Note_off_c, 1, 65, 0
2, 24840, Note_on_c, 1, 69, 127
2, 24840, Note_on_c, 1, 72, 127
2, 24840, Note_on_c, 1, 79, 127
2, 24840, Note_on_c, 1, 80, 127
2, 24880, Note_off_c, 1, 32, 0
2, 24880, Note_on_c, 1, 45, 127
2, 24880, Note_on_c, 1, 48, 127
2, 24880, Note_on_c, 1, 50, 127
2, 24880, Note_on_c, 1, 55, 127
2, 24880, Note_off_c, 1, 62, 0
2, 24880, Note_on_c, 1, 65, 127
2, 24880, Note_on_c, 1, 67, 127
2, 24880, Note_off_c, 1, 69, 0
2, 24880, Note_off_c, 1, 70, 0
2, 24880, Note_on_c, 1, 74, 127
2, 24880, Note_off_c, 1, 79, 0
2, 24880, Note_off_c, 1, 80, 0
2, 24880, Note_on_c, 1, 81, 127
2, 24920, Note_off_c, 1, 45, 0
2, 24920, Note_off_c, 1, 48, 0
2, 24920, Note_off_c, 1, 50, 0
2, 24920, Note_off_c, 1, 55, 0
2, 24920, Note_on_c, 1, 57, 127
2, 24920, Note_on_c, 1, 73, 127
2, 24920, Note_off_c, 1, 74, 0
2, 24920, Note_off_c, 1, 81, 0
2, 24960, Note_off_c, 1, 57, 0
2, 24960, Note_off_c, 1, 65, 0
2, 24960, Note_off_c, 1, 67, 0
2, 24960, Note_off_c, 1, 72, 0
2, 24960, Note_off_c, 1, 73, 0
2, 25080, Note_on_c, 1, 48, 127
2, 25080, Note_on_c, 1, 52, 127
2, 25080, Note_on_c, 1, 69, 127
2, 25120, Note_off_c, 1, 48, 0
2, 25120, Note_on_c, 1, 50, 127
2, 25120, Note_off_c, 1, 52, 0
2, 25120, Note_off_c, 1, 69, 0
2, 25160, Note_off_c, 1, 50, 0
2, 25160, Note_on_c, 1, 59, 127
2, 25160, Note_on_c, 1, 60, 127
2, 25160, Note_on_c, 1, 77, 127
2, 25200, Note_on_c, 1, 40, 127
2, 25200, Note_on_c, 1, 41, 127
2, 25200, Note_on_c, 1, 52, 127
2, 25200, Note_on_c, 1, 53, 127
2, 25200, Note_off_c, 1, 59, 0
2, 25200, Note_off_c, 1, 60, 0
2, 25200, Note_on_c, 1, 62, 127
2, 25200, Note_on_c, 1, 65, 127
2, 25200, Note_on_c, 1, 72, 127
2, 25200, Note_off_c, 1, 77, 0
2, 25240, Note_on_c, 1, 33, 127
2, 25240, Note_off_c, 1, 40, 0
2, 25240, Note_off_c, 1, 41, 0
2, 25240, Note_on_c, 1, 46, 127
2, 25240, Note_on_c, 1, 50, 127
2, 25240, Note_off_c, 1, 53, 0
2, 25240, Note_on_c, 1, 54, 127
2, 25240, Note_on_c, 1, 55, 127
2, 25240, Note_on_c, 1, 56, 127
2, 25240, Note_on_c, 1, 58, 127
2, 25240, Note_on_c, 1, 60, 127
2, 25240, Note_on_c, 1, 61, 127
2, 25240, Note_on_c, 1, 63, 127
2, 25240, Note_on_c, 1, 64, 127
2, 25240, Note_on_c, 1, 69, 127
2, 25240, Note_on_c, 1, 74, 127
2, 25280, Note_off_c, 1, 33, 0
2, 25280, Note_off_c, 1, 46, 0
2, 25280, Note_off_c, 1, 52, 0
2, 25280, Note_off_c, 1, 54, 0
2, 25280, Note_off_c, 1, 55, 0
2, 25280, Note_off_c, 1, 56, 0
2, 25280, Note_off_c, 1, 58, 0
2, 25280, Note_off_c, 1, 60, 0
2, 25280, Note_off_c, 1, 61, 0
2, 25280, Note_off_c, 1, 62, 0
2, 25280, Note_off_c, 1, 63, 0
2, 25280, Note_off_c, 1, 64, 0
2, 25280, Note_off_c, 1, 65, 0
2, 25280, Note_on_c, 1, 70, 127
2, 25280, Note_off_c, 1, 74, 0
2, 25320, Note_off_c, 1, 50, 0
2, 25320, Note_on_c, 1, 67, 127
2, 25320, Note_off_c, 1, 69, 0
2, 25320, Note_off_c, 1, 70, 0
2, 25320, Note_off_c, 1, 72, 0
2, 25360, Note_on_c, 1, 36, 127
2, 25360, Note_on_c, 1, 46, 127
2, 25360, Note_on_c, 1, 57, 127
2, 25360, Note_on_c, 1, 68, 127
2, 25400, Note_off_c, 1, 36, 0
2, 25400, Note_off_c, 1, 46, 0
2, 25400, Note_off_c, 1, 57, 0
2, 25400, Note_off_c, 1, 67, 0
2, 25400, Note_off_c, 1, 68, 0
2, 25440, Note_on_c, 1, 55, 127
2, 25440, Note_on_c, 1, 57, 127
2, 25440, Note_on_c, 1, 60, 127
2, 25440, Note_on_c, 1, 76, 127
2, 25480, Note_off_c, 1, 55, 0
2, 25480, Note_off_c, 1, 57, 0
2, 25480, Note_off_c, 1, 60, 0
2, 25480, Note_off_c, 1, 76, 0
2, 25520, Note_on_c, 1, 74, 127
2, 25520, Note_on_c, 1, 76, 127
2, 25560, Note_on_c, 1, 52, 127
2, 25560, Note_on_c, 1, 53, 127
2, 25560, Note_on_c, 1, 60, 127
2, 25560, Note_on_c, 1, 67, 127
2, 25560, Note_on_c, 1, 70, 127
2, 25560, Note_off_c, 1, 74, 0
2, 25600, Note_off_c, 1, 52, 0
2, 25600, Note_off_c, 1, 53, 0
2, 25600, Note_off_c, 1, 60, 0
2, 25600, Note_off_c, 1, 67, 0
2, 25600, Note_off_c, 1, 70, 0
2, 25600, Note_off_c, 1, 76, 0
2, 25640, Note_on_c, 1, 57, 127
2, 25680, Note_off_c, 1, 57, 0
2, 25720, Note_on_c, 1, 36, 127
2, 25720, Note_on_c, 1, 46, 127
2, 25720, Note_on_c, 1, 52, 127
2, 25720, Note_on_c, 1, 55, 127
2, 25720, Note_on_c, 1, 56, 127
2, 25720, Note_on_c, 1, 57, 127
2, 25720, Note_on_c, 1, 65, 127
2, 25720, Note_on_c, 1, 70, 127
2, 25720, Note_on_c, 1, 82, 127
2, 25760, Note_off_c, 1, 36, 0
2, 25760, Note_on_c, 1, 49, 127
2, 25760, Note_on_c, 1, 50, 127
2, 25760, Note_off_c, 1, 52, 0
2, 25760, Note_off_c, 1, 55, 0
2, 25760, Note_off_c, 1, 56, 0
2, 25760, Note_off_c, 1, 57, 0
2, 25760, Note_off_c, 1, 65, 0
2, 25760, Note_off_c, 1, 70, 0
2, 25760, Note_on_c, 1, 72, 127
2, 25760, Note_on_c, 1, 80, 127
2, 25760, Note_off_c, 1, 82, 0
2, 25800, Note_off_c, 1, 46, 0
2, 25800, Note_off_c, 1, 49, 0
2, 25800, Note_on_c, 1, 57, 127
2, 25800, Note_on_c, 1, 60, 127
2, 25800, Note_on_c, 1, 67, 127
2, 25800, Note_off_c, 1, 72, 0
2, 25800, Note_off_c, 1, 80, 0
2, 25840, Note_on_c, 1, 42, 127
2, 25840, Note_on_c, 1, 46, 127
2, 25840, Note_off_c, 1, 50, 0
2, 25840, Note_off_c, 1, 57, 0
2, 25840, Note_off_c, 1, 60, 0
2, 25840, Note_on_c, 1, 65, 127
2, 25840, Note_off_c, 1, 67, 0
2, 25880, Note_off_c, 1, 42, 0
2, 25880, Note_off_c, 1, 65, 0
2, 25920, Note_off_c, 1, 46, 0
2, 25920, Note_on_c, 1, 50, 127
2, 25960, Note_off_c, 1, 50, 0
2, 26000, Note_on_c, 1, 46, 127
2, 26000, Note_on_c, 1, 49, 127
2, 26000, Note_on_c, 1, 62, 127
2, 26000, Note_on_c, 1, 70, 127
2, 26040, Note_off_c, 1, 46, 0
2, 26040, Note_off_c, 1, 49, 0
2, 26040, Note_on_c, 1, 65, 127
2, 26040, Note_off_c, 1, 70, 0
2, 26080, Note_on_c, 1, 57, 127
2, 26080, Note_off_c, 1, 62, 0
2, 26080, Note_off_c, 1, 65, 0
2, 26080, Note_on_c, 1, 73, 127
2, 26120, Note_off_c, 1, 57, 0
2, 26120, Note_off_c, 1, 73, 0
2, 26280, Note_on_c, 1, 70, 127
2, 26320, Note_on_c, 1, 50, 127
2, 26320, Note_off_c, 1, 70, 0
2, 26320, Note_on_c, 1, 74, 127
2, 26360, Note_off_c, 1, 50, 0
2, 26360, Note_on_c, 1, 65, 127
2, 26360, Note_off_c, 1, 74, 0
2, 26400, Note_on_c, 1, 50, 127
2, 26400, Note_off_c, 1, 65, 0
2, 26400, Note_on_c, 1, 67, 127
2, 26400, Note_on_c, 1, 74, 127
2, 26440, Note_off_c, 1, 50, 0
2, 26440, Note_off_c, 1, 67, 0
2, 26440, Note_off_c, 1, 74, 0
2, 26480, Note_on_c, 1, 50, 127
2, 26480, Note_on_c, 1, 80, 127
2, 26520, Note_on_c, 1, 38, 127
2, 26520, Note_off_c, 1, 50, 0
2, 26520, Note_off_c, 1, 80, 0
2, 26560, Note_off_c, 1, 38, 0
2, 26640, Note_on_c, 1, 46, 127
2, 26640, Note_on_c, 1, 52, 127
2, 26640, Note_on_c, 1, 60, 127
2, 26640, Note_on_c, 1, 79, 127
2, 26680, Note_off_c, 1, 46, 0
2, 26680, Note_off_c, 1, 52, 0
2, 26680, Note_on_c, 1, 53, 127
2, 26680, Note_off_c, 1, 60, 0
2, 26680, Note_on_c, 1, 74, 127
2, 26680, Note_on_c, 1, 76, 127
2, 26680, Note_off_c, 1, 79, 0
2, 26720, Note_off_c, 1, 53, 0
2, 26720, Note_on_c, 1, 60, 127
2, 26720, Note_off_c, 1, 74, 0
2, 26720, Note_off_c, 1, 76, 0
2, 26720, Note_on_c, 1, 82, 127
2, 26760, Note_on_c, 1, 49, 127
2, 26760, Note_on_c, 1, 52, 127
2, 26760, Note_off_c, 1, 60, 0
2, 26760, Note_on_c, 1, 62, 127
2, 26760, Note_on_c, 1, 65, 127
2, 26760, Note_on_c, 1, 70, 127
2, 26760, Note_on_c, 1, 72, 127
2, 26760, Note_off_c, 1, 82, 0
2, 26800, Note_off_c, 1, 49, 0
2, 26800, Note_on_c, 1, 57, 127
2, 26800, Note_off_c, 1, 62, 0
2, 26800, Note_off_c, 1, 65, 0
2, 26800, Note_off_c, 1, 70, 0
2, 26840, Note_off_c, 1, 52, 0
2, 26840, Note_off_c, 1, 57, 0
2, 26840, Note_on_c, 1, 74, 127
2, 26840, Note_on_c, 1, 80, 127
2, 26880, Note_off_c, 1, 72, 0
2, 26880, Note_off_c, 1, 74, 0
2, 26880, Note_off_c, 1, 80, 0
2, 26920, Note_on_c, 1, 38, 127
2, 26920, Note_on_c, 1, 40, 127
2, 26920, Note_on_c, 1, 53, 127
2, 26920, Note_on_c, 1, 57, 127
2, 26920, Note_on_c, 1, 65, 127
2, 26920, Note_on_c, 1, 67, 127
2, 26920, Note_on_c, 1, 75, 127
2, 26920, Note_on_c, 1, 77, 127
2, 26920, Note_on_c, 1, 81, 127
2, 26960, Note_off_c, 1, 38, 0
2, 26960, Note_off_c, 1, 40, 0
2, 26960, Note_on_c, 1, 47, 127
2, 26960, Note_on_c, 1, 55, 127
2, 26960, Note_off_c, 1, 57, 0
2, 26960, Note_on_c, 1, 62, 127
2, 26960, Note_on_c, 1, 63, 127
2, 26960, Note_off_c, 1, 65, 0
2, 26960, Note_off_c, 1, 67, 0
2, 26960, Note_on_c, 1, 70, 127
2, 26960, Note_on_c, 1, 72, 127
2, 26960, Note_off_c, 1, 75, 0
2, 26960, Note_off_c, 1, 81, 0
2, 27000, Note_on_c, 1, 42, 127
2, 27000, Note_off_c, 1, 47, 0
2, 27000, Note_off_c, 1, 53, 0
2, 27000, Note_off_c, 1, 55, 0
2, 27000, Note_off_c, 1, 62, 0
2, 27000, Note_on_c, 1, 67, 127
2, 27000, Note_off_c, 1, 70, 0
2, 27000, Note_off_c, 1, 72, 0
2, 27000, Note_on_c, 1, 74, 127
2, 27000, Note_off_c, 1, 77, 0
2, 27040, Note_on_c, 1, 41, 127
2, 27040, Note_off_c, 1, 42, 0
2, 27040, Note_off_c, 1, 63, 0
2, 27040, Note_on_c, 1, 72, 127
2, 27040, Note_off_c, 1, 74, 0
2, 27080, Note_off_c, 1, 41, 0
2, 27080, Note_off_c, 1, 67, 0
2, 27080, Note_off_c, 1, 72, 0
2, 27080, Note_on_c, 1, 74, 127
2, 27120, Note_on_c, 1, 55, 127
2, 27120, Note_off_c, 1, 74, 0
2, 27160, Note_on_c, 1, 50, 127
2, 27160, Note_off_c, 1, 55, 0
2, 27160, Note_on_c, 1, 63, 127
2, 27200, Note_off_c, 1, 50, 0
2, 27200, Note_off_c, 1, 63, 0
2, 27200, Note_on_c, 1, 64, 127
2, 27200, Note_on_c, 1, 65, 127
2, 27240, Note_on_c, 1, 46, 127
2, 27240, Note_on_c, 1, 48, 127
2, 27240, Note_on_c, 1, 62, 127
2, 27240, Note_off_c, 1, 64, 0
2, 27240, Note_off_c, 1, 65, 0
2, 27240, Note_on_c, 1, 69, 127
2, 27240, Note_on_c, 1, 72, 127
2, 27240, Note_on_c, 1, 74, 127
2, 27240, Note_on_c, 1, 77, 127
2, 27280, Note_on_c, 1, 41, 127
2, 27280, Note_off_c, 1, 48, 0
2, 27280, Note_off_c, 1, 62, 0
2, 27280, Note_off_c, 1, 69, 0
2, 27280, Note_off_c, 1, 74, 0
2, 27280, Note_on_c, 1, 76, 127
2, 27280, Note_off_c, 1, 77, 0
2, 27320, Note_off_c, 1, 41, 0
2, 27320, Note_on_c, 1, 45, 127
2, 27320, Note_off_c, 1, 46, 0
2, 27320, Note_off_c, 1, 76, 0
2, 27360, Note_off_c, 1, 45, 0
2, 27360, Note_on_c, 1, 67, 127
2, 27360, Note_off_c, 1, 72, 0
2, 27400, Note_on_c, 1, 57, 127
2, 27400, Note_off_c, 1, 67, 0
2, 27400, Note_on_c, 1, 74, 127
2, 27440, Note_on_c, 1, 56, 127
2, 27440, Note_off_c, 1, 57, 0
2, 27440, Note_off_c, 1, 74, 0
2, 27480, Note_on_c, 1, 46, 127
2, 27480, Note_on_c, 1, 50, 127
2, 27480, Note_on_c, 1, 52, 127
2, 27480, Note_on_c, 1, 53, 127
2, 27480, Note_off_c, 1, 56, 0
2, 27480, Note_on_c, 1, 57, 127
2, 27480, Note_on_c, 1, 60, 127
2, 27480, Note_on_c, 1, 62, 127
2, 27480, Note_on_c, 1, 65, 127
2, 27480, Note_on_c, 1, 66, 127
2, 27480, Note_on_c, 1, 74, 127
2, 27520, Note_off_c, 1, 46, 0
2, 27520, Note_off_c, 1, 50, 0
2, 27520, Note_off_c, 1, 52, 0
2, 27520, Note_off_c, 1, 53, 0
2, 27520, Note_off_c, 1, 57, 0
2, 27520, Note_off_c, 1, 60, 0
2, 27520, Note_off_c, 1, 66, 0
2, 27520, Note_on_c, 1, 70, 127
2, 27520, Note_off_c, 1, 74, 0
2, 27560, Note_off_c, 1, 62, 0
2, 27560, Note_off_c, 1, 65, 0
2, 27560, Note_off_c, 1, 70, 0
2, 27560, Note_on_c, 1, 74, 127
2, 27600, Note_on_c, 1, 46, 127
2, 27600, Note_on_c, 1, 76, 127
2, 27640, Note_on_c, 1, 33, 127
2, 27640, Note_off_c, 1, 46, 0
2, 27640, Note_on_c, 1, 48, 127
2, 27640, Note_on_c, 1, 72, 127
2, 27640, Note_off_c, 1, 74, 0
2, 27640, Note_off_c, 1, 76, 0
2, 27680, Note_off_c, 1, 33, 0
2, 27680, Note_off_c, 1, 48, 0
2, 27680, Note_off_c, 1, 72, 0
2, 27720, Note_on_c, 1, 49, 127
2, 27720, Note_on_c, 1, 69, 127
2, 27720, Note_on_c, 1, 72, 127
2, 27720, Note_on_c, 1, 76, 127
2, 27760, Note_off_c, 1, 49, 0
2, 27760, Note_off_c, 1, 69, 0
2, 27760, Note_off_c, 1, 72, 0
2, 27760, Note_off_c, 1, 76, 0
2, 27800, Note_on_c, 1, 74, 127
2, 27840, Note_off_c, 1, 74, 0
2, 27880, Note_on_c, 1, 50, 127
2, 27880, Note_on_c, 1, 76, 127
2, 27920, Note_on_c, 1, 52, 127
2, 27920, Note_on_c, 1, 55, 127
2, 27920, Note_on_c, 1, 62, 127
2, 27920, Note_on_c, 1, 67, 127
2, 27920, Note_on_c, 1, 72, 127
2, 27920, Note_on_c, 1, 74, 127
2, 27920, Note_off_c, 1, 76, 0
2, 27920, Note_on_c, 1, 78, 127
2, 27960, Note_off_c, 1, 50, 0
2, 27960, Note_off_c, 1, 52, 0
2, 27960, Note_off_c, 1, 55, 0
2, 27960, Note_off_c, 1, 62, 0
2, 27960, Note_off_c, 1, 67, 0
2, 27960, Note_off_c, 1, 72, 0
2, 27960, Note_off_c, 1, 74, 0
2, 27960, Note_off_c, 1, 78, 0
2, 28000, Note_on_c, 1, 53, 127
2, 28000, Note_on_c, 1, 55, 127
2, 28000, Note_on_c, 1, 56, 127
2, 28000, Note_on_c, 1, 60, 127
2, 28000, Note_on_c, 1, 73, 127
2, 28000, Note_on_c, 1, 80, 127
2, 28040, Note_off_c, 1, 53, 0
2, 28040, Note_off_c, 1, 55, 0
2, 28040, Note_off_c, 1, 56, 0
2, 28040, Note_off_c, 1, 60, 0
2, 28040, Note_on_c, 1, 72, 127
2, 28040, Note_off_c, 1, 73, 0
2, 28040, Note_off_c, 1, 80, 0
2, 28080, Note_on_c, 1, 46, 127
2, 28080, Note_off_c, 1, 72, 0
2, 28120, Note_off_c, 1, 46, 0
2, 28120, Note_on_c, 1, 50, 127
2, 28120, Note_on_c, 1, 55, 127
2, 28120, Note_on_c, 1, 71, 127
2, 28160, Note_off_c, 1, 50, 0
2, 28160, Note_off_c, 1, 55, 0
2, 28160, Note_off_c, 1, 71, 0
2, 28240, Note_on_c, 1, 42, 127
2, 28240, Note_on_c, 1, 58, 127
2, 28240, Note_on_c, 1, 65, 127
2, 28240, Note_on_c, 1, 69, 127
2, 28240, Note_on_c, 1, 72, 127
2, 28240, Note_on_c, 1, 74, 127
2, 28280, Note_off_c, 1, 42, 0
2, 28280, Note_off_c, 1, 58, 0
2, 28280, Note_off_c, 1, 65, 0
2, 28280, Note_off_c, 1, 69, 0
2, 28280, Note_on_c, 1, 70, 127
2, 28280, Note_off_c, 1, 72, 0
2, 28280, Note_off_c, 1, 74, 0
2, 28320, Note_off_c, 1, 70, 0
2, 28360, Note_on_c, 1, 33, 127
2, 28360, Note_on_c, 1, 62, 127
2, 28360, Note_on_c, 1, 65, 127
2, 28360, Note_on_c, 1, 69, 127
2, 28360, Note_on_c, 1, 72, 127
2, 28360, Note_on_c, 1, 77, 127
2, 28400, Note_off_c, 1, 33, 0
2, 28400, Note_off_c, 1, 62, 0
2, 28400, Note_on_c, 1, 70, 127
2, 28400, Note_off_c, 1, 72, 0
2, 28400, Note_off_c, 1, 77, 0
2, 28440, Note_on_c, 1, 62, 127
2, 28440, Note_off_c, 1, 65, 0
2, 28440, Note_off_c, 1, 69, 0
2, 28440, Note_off_c, 1, 70, 0
2, 28440, Note_on_c, 1, 74, 127
2, 28480, Note_off_c, 1, 62, 0
2, 28480, Note_off_c, 1, 74, 0
2, 28520, Note_on_c, 1, 46, 127
2, 28520, Note_on_c, 1, 50, 127
2, 28520, Note_on_c, 1, 53, 127
2, 28520, Note_on_c, 1, 60, 127
2, 28520, Note_on_c, 1, 62, 127
2, 28520, Note_on_c, 1, 65, 127
2, 28520, Note_on_c, 1, 72, 127
2, 28520, Note_on_c, 1, 82, 127
2, 28560, Note_on_c, 1, 43, 127
2, 28560, Note_off_c, 1, 46, 0
2, 28560, Note_on_c, 1, 48, 127
2, 28560, Note_off_c, 1, 50, 0
2, 28560, Note_on_c, 1, 57, 127
2, 28560, Note_off_c, 1, 60, 0
2, 28560, Note_off_c, 1, 62, 0
2, 28560, Note_on_c, 1, 66, 127
2, 28560, Note_off_c, 1, 72, 0
2, 28560, Note_on_c, 1, 75, 127
2, 28560, Note_off_c, 1, 82, 0
2, 28600, Note_off_c, 1, 43, 0
2, 28600, Note_on_c, 1, 45, 127
2, 28600, Note_off_c, 1, 48, 0
2, 28600, Note_off_c, 1, 53, 0
2, 28600, Note_off_c, 1, 57, 0
2, 28600, Note_off_c, 1, 65, 0
2, 28600, Note_off_c, 1, 66, 0
2, 28600, Note_on_c, 1, 74, 127
2, 28600, Note_off_c, 1, 75, 0
2, 28640, Note_off_c, 1, 45, 0
2, 28640, Note_on_c, 1, 55, 127
2, 28640, Note_off_c, 1, 74, 0
2, 28680, Note_on_c, 1, 42, 127
2, 28680, Note_on_c, 1, 52, 127
2, 28680, Note_on_c, 1, 54, 127
2, 28680, Note_off_c, 1, 55, 0
2, 28680, Note_on_c, 1, 57, 127
2, 28680, Note_on_c, 1, 65, 127
2, 28720, Note_off_c, 1, 42, 0
2, 28720, Note_off_c, 1, 52, 0
2, 28720, Note_off_c, 1, 54, 0
2, 28720, Note_off_c, 1, 57, 0
2, 28720, Note_off_c, 1, 65, 0
2, 28760, Note_on_c, 1, 55, 127
2, 28800, Note_on_c, 1, 50, 127
2, 28800, Note_off_c, 1, 55, 0
2, 28800, Note_on_c, 1, 72, 127
2, 28840, Note_on_c, 1, 46, 127
2, 28840, Note_off_c, 1, 50, 0
2, 28840, Note_off_c, 1, 72, 0
2, 28840, Note_on_c, 1, 75, 127
2, 28880, Note_off_c, 1, 46, 0
2, 28880, Note_on_c, 1, 48, 127
2, 28880, Note_on_c, 1, 52, 127
2, 28880, Note_on_c, 1, 70, 127
2, 28880, Note_off_c, 1, 75, 0
2, 28920, Note_on_c, 1, 31, 127
2, 28920, Note_on_c, 1, 47, 127
2, 28920, Note_off_c, 1, 48, 0
2, 28920, Note_off_c, 1, 52, 0
2, 28920, Note_on_c, 1, 62, 127
2, 28920, Note_off_c, 1, 70, 0
2, 28920, Note_on_c, 1, 79, 127
2, 28960, Note_off_c, 1, 31, 0
2, 28960, Note_off_c, 1, 47, 0
2, 28960, Note_off_c, 1, 62, 0
2, 28960, Note_on_c, 1, 77, 127
2, 28960, Note_off_c, 1, 79, 0
2, 29000, Note_on_c, 1, 52, 127
2, 29000, Note_on_c, 1, 57, 127
2, 29000, Note_on_c, 1, 67, 127
2, 29000, Note_on_c, 1, 72, 127
2, 29000, Note_off_c, 1, 77, 0
2, 29000, Note_on_c, 1, 82, 127
2, 29040, Note_off_c, 1, 52, 0
2, 29040, Note_off_c, 1, 57, 0
2, 29040, Note_on_c, 1, 58, 127
2, 29040, Note_off_c, 1, 67, 0
2, 29040, Note_off_c, 1, 82, 0
2, 29080, Note_on_c, 1, 36, 127
2, 29080, Note_off_c, 1, 58, 0
2, 29080, Note_off_c, 1, 72, 0
2, 29120, Note_off_c, 1, 36, 0
2, 29240, Note_on_c, 1, 46, 127
2, 29240, Note_on_c, 1, 51, 127
2, 29240, Note_on_c, 1, 53, 127
2, 29240, Note_on_c, 1, 65, 127
2, 29280, Note_off_c, 1, 46, 0
2, 29280, Note_off_c, 1, 51, 0
2, 29280, Note_off_c, 1, 53, 0
2, 29280, Note_off_c, 1, 65, 0
2, 29320, Note_on_c, 1, 57, 127
2, 29320, Note_on_c, 1, 62, 127
2, 29320, Note_on_c, 1, 65, 127
2, 29320, Note_on_c, 1, 74, 127
2, 29360, Note_on_c, 1, 53, 127
2, 29360, Note_off_c, 1, 62, 0
2, 29360, Note_on_c, 1, 64, 127
2, 29360, Note_on_c, 1, 69, 127
2, 29360, Note_off_c, 1, 74, 0
2, 29400, Note_on_c, 1, 55, 127
2, 29400, Note_off_c, 1, 64, 0
2, 29400, Note_off_c, 1, 65, 0
2, 29400, Note_off_c, 1, 69, 0
2, 29400, Note_on_c, 1, 70, 127
2, 29400, Note_on_c, 1, 72, 127
2, 29440, Note_off_c, 1, 53, 0
2, 29440, Note_off_c, 1, 55, 0
2, 29440, Note_off_c, 1, 57, 0
2, 29440, Note_off_c, 1, 70, 0
2, 29440, Note_off_c, 1, 72, 0
2, 29520, Note_on_c, 1, 50, 127
2, 29520, Note_on_c, 1, 55, 127
2, 29520, Note_on_c, 1, 62, 127
2, 29520, Note_on_c, 1, 65, 127
2, 29520, Note_on_c, 1, 67, 127
2, 29560, Note_off_c, 1, 50, 0
2, 29560, Note_off_c, 1, 55, 0
2, 29560, Note_off_c, 1, 62, 0
2, 29560, Note_off_c, 1, 67, 0
2, 29560, Note_on_c, 1, 69, 127
2, 29560, Note_on_c, 1, 72, 127
2, 29600, Note_on_c, 1, 57, 127
2, 29600, Note_off_c, 1, 69, 0
2, 29600, Note_off_c, 1, 72, 0
2, 29600, Note_on_c, 1, 77, 127
2, 29600, Note_on_c, 1, 82, 127
2, 29640, Note_off_c, 1, 57, 0
2, 29640, Note_off_c, 1, 65, 0
2, 29640, Note_on_c, 1, 74, 127
2, 29640, Note_off_c, 1, 77, 0
2, 29640, Note_off_c, 1, 82, 0
2, 29680, Note_on_c, 1, 66, 127
2, 29680, Note_on_c, 1, 70, 127
2, 29680, Note_off_c, 1, 74, 0
2, 29720, Note_on_c, 1, 34, 127
2, 29720, Note_on_c, 1, 50, 127
2, 29720, Note_on_c, 1, 57, 127
2, 29720, Note_on_c, 1, 60, 127
2, 29720, Note_off_c, 1, 66, 0
2, 29720, Note_on_c, 1, 67, 127
2, 29720, Note_on_c, 1, 74, 127
2, 29760, Note_off_c, 1, 34, 0
2, 29760, Note_on_c, 1, 46, 127
2, 29760, Note_off_c, 1, 50, 0
2, 29760, Note_on_c, 1, 52, 127
2, 29760, Note_off_c, 1, 57, 0
2, 29760, Note_off_c, 1, 60, 0
2, 29760, Note_on_c, 1, 62, 127
2, 29760, Note_off_c, 1, 67, 0
2, 29760, Note_off_c, 1, 70, 0
2, 29760, Note_off_c, 1, 74, 0
2, 29760, Note_on_c, 1, 76, 127
2, 29800, Note_off_c, 1, 46, 0
2, 29800, Note_off_c, 1, 52, 0
2, 29800, Note_off_c, 1, 62, 0
2, 29800, Note_on_c, 1, 64, 127
2, 29800, Note_on_c, 1, 70, 127
2, 29800, Note_on_c, 1, 72, 127
2, 29800, Note_off_c, 1, 76, 0
2, 29800, Note_on_c, 1, 82, 127
2, 29840, Note_off_c, 1, 64, 0
2, 29840, Note_off_c, 1, 70, 0
2, 29840, Note_off_c, 1, 72, 0
2, 29840, Note_off_c, 1, 82, 0
2, 29880, Note_on_c, 1, 34, 127
2, 29880, Note_on_c, 1, 46, 127
2, 29880, Note_on_c, 1, 50, 127
2, 29880, Note_on_c, 1, 61, 127
2, 29880, Note_on_c, 1, 62, 127
2, 29880, Note_on_c, 1, 65, 127
2, 29880, Note_on_c, 1, 67, 127
2, 29920, Note_off_c, 1, 34, 0
2, 29920, Note_off_c, 1, 50, 0
2, 29920, Note_off_c, 1, 61, 0
2, 29920, Note_off_c, 1, 67, 0
2, 29920, Note_on_c, 1, 72, 127
2, 29920, Note_on_c, 1, 76, 127
2, 29960, Note_off_c, 1, 46, 0
2, 29960, Note_on_c, 1, 48, 127
2, 29960, Note_on_c, 1, 49, 127
2, 29960, Note_on_c, 1, 52, 127
2, 29960, Note_on_c, 1, 53, 127
2, 29960, Note_off_c, 1, 62, 0
2, 29960, Note_on_c, 1, 70, 127
2, 29960, Note_off_c, 1, 76, 0
2, 30000, Note_off_c, 1, 48, 0
2, 30000, Note_off_c, 1, 49, 0
2, 30000, Note_off_c, 1, 52, 0
2, 30000, Note_off_c, 1, 53, 0
2, 30000, Note_off_c, 1, 65, 0
2, 30000, Note_off_c, 1, 70, 0
2, 30000, Note_off_c, 1, 72, 0
2, 30040, Note_on_c, 1, 48, 127
2, 30080, Note_on_c, 1, 38, 127
2, 30080, Note_off_c, 1, 48, 0
2, 30120, Note_off_c, 1, 38, 0
2, 30120, Note_on_c, 1, 46, 127
2, 30120, Note_on_c, 1, 47, 127
2, 30120, Note_on_c, 1, 57, 127
2, 30120, Note_on_c, 1, 58, 127
2, 30120, Note_on_c, 1, 70, 127
2, 30120, Note_on_c, 1, 72, 127
2, 30120, Note_on_c, 1, 77, 127
2, 30160, Note_on_c, 1, 42, 127
2, 30160, Note_off_c, 1, 46, 0
2, 30160, Note_off_c, 1, 47, 0
2, 30160, Note_on_c, 1, 53, 127
2, 30160, Note_off_c, 1, 58, 0
2, 30160, Note_on_c, 1, 67, 127
2, 30160, Note_off_c, 1, 70, 0
2, 30160, Note_off_c, 1, 72, 0
2, 30160, Note_on_c, 1, 74, 127
2, 30160, Note_off_c, 1, 77, 0
2, 30160, Note_on_c, 1, 79, 127
2, 30200, Note_off_c, 1, 42, 0
2, 30200, Note_off_c, 1, 53, 0
2, 30200, Note_off_c, 1, 57, 0
2, 30200, Note_off_c, 1, 67, 0
2, 30200, Note_on_c, 1, 70, 127
2, 30200, Note_on_c, 1, 72, 127
2, 30200, Note_off_c, 1, 74, 0
2, 30200, Note_off_c, 1, 79, 0
2, 30240, Note_off_c, 1, 70, 0
2, 30240, Note_off_c, 1, 72, 0
2, 30320, Note_on_c, 1, 61, 127
2, 30320, Note_on_c, 1, 62, 127
2, 30360, Note_on_c, 1, 50, 127
2, 30360, Note_off_c, 1, 61, 0
2, 30360, Note_on_c, 1, 65, 127
2, 30360, Note_on_c, 1, 71, 127
2, 30400, Note_on_c, 1, 46, 127
2, 30400, Note_on_c, 1, 53, 127
2, 30400, Note_on_c, 1, 57, 127
2, 30400, Note_off_c, 1, 62, 0
2, 30400, Note_off_c, 1, 65, 0
2, 30400, Note_on_c, 1, 69, 127
2, 30400, Note_off_c, 1, 71, 0
2, 30400, Note_on_c, 1, 73, 127
2, 30400, Note_on_c, 1, 76, 127
2, 30440, Note_off_c, 1, 46, 0
2, 30440, Note_off_c, 1, 50, 0
2, 30440, Note_off_c, 1, 53, 0
2, 30440, Note_off_c, 1, 57, 0
2, 30440, Note_on_c, 1, 67, 127
2, 30440, Note_off_c, 1, 69, 0
2, 30440, Note_off_c, 1, 73, 0
2, 30440, Note_off_c, 1, 76, 0
2, 30480, Note_off_c, 1, 67, 0
2, 30520, Note_on_c, 1, 48, 127
2, 30520, Note_on_c, 1, 51, 127
2, 30520, Note_on_c, 1, 65, 127
2, 30520, Note_on_c, 1, 70, 127
2, 30560, Note_off_c, 1, 48, 0
2, 30560, Note_off_c, 1, 51, 0
2, 30560, Note_on_c, 1, 61, 127
2, 30560, Note_off_c, 1, 65, 0
2, 30560, Note_off_c, 1, 70, 0
2, 30600, Note_on_c, 1, 50, 127
2, 30600, Note_off_c, 1, 61, 0
2, 30600, Note_on_c, 1, 70, 127
2, 30640, Note_off_c, 1, 50, 0
2, 30640, Note_off_c, 1, 70, 0
2, 30720, Note_on_c, 1, 74, 127
2, 30760, Note_on_c, 1, 65, 127
2, 30760, Note_on_c, 1, 72, 127
2, 30760, Note_off_c, 1, 74, 0
2, 30760, Note_on_c, 1, 84, 127
2, 30800, Note_off_c, 1, 65, 0
2, 30800, Note_off_c, 1, 72, 0
2, 30800, Note_off_c, 1, 84, 0
2, 30880, Note_on_c, 1, 65, 127
2, 30920, Note_on_c, 1, 50, 127
2, 30920, Note_off_c, 1, 65, 0
2, 30920, Note_on_c, 1, 69, 127
2, 30960, Note_off_c, 1, 50, 0
2, 30960, Note_on_c, 1, 52, 127
2, 30960, Note_off_c, 1, 69, 0
2, 30960, Note_on_c, 1, 72, 127
2, 31000, Note_off_c, 1, 52, 0
2, 31000, Note_on_c, 1, 57, 127
2, 31000, Note_on_c, 1, 70, 127
2, 31000, Note_off_c, 1, 72, 0
2, 31040, Note_off_c, 1, 57, 0
2, 31040, Note_off_c, 1, 70, 0
2, 31040, Note_on_c, 1, 81, 127
2, 31080, Note_on_c, 1, 57, 127
2, 31080, Note_off_c, 1, 81, 0
2, 31120, Note_off_c, 1, 57, 0
2, 31160, Note_on_c, 1, 57, 127
2, 31160, Note_on_c, 1, 73, 127
2, 31160, Note_on_c, 1, 74, 127
2, 31160, Note_on_c, 1, 76, 127
2, 31160, Note_on_c, 1, 77, 127
2, 31200, Note_off_c, 1, 57, 0
2, 31200, Note_on_c, 1, 65, 127
2, 31200, Note_off_c, 1, 73, 0
2, 31200, Note_off_c, 1, 76, 0
2, 31200, Note_off_c, 1, 77, 0
2, 31240, Note_on_c, 1, 46, 127
2, 31240, Note_on_c, 1, 56, 127
2, 31240, Note_on_c, 1, 57, 127
2, 31240, Note_off_c, 1, 65, 0
2, 31240, Note_on_c, 1, 69, 127
2, 31240, Note_on_c, 1, 77, 127
2, 31240, Note_on_c, 1, 78, 127
2, 31280, Note_off_c, 1, 46, 0
2, 31280, Note_on_c, 1, 49, 127
2, 31280, Note_on_c, 1, 52, 127
2, 31280, Note_off_c, 1, 56, 0
2, 31280, Note_off_c, 1, 57, 0
2, 31280, Note_on_c, 1, 58, 127
2, 31280, Note_on_c, 1, 64, 127
2, 31280, Note_on_c, 1, 65, 127
2, 31280, Note_on_c, 1, 67, 127
2, 31280, Note_on_c, 1, 72, 127
2, 31280, Note_on_c, 1, 73, 127
2, 31280, Note_off_c, 1, 74, 0
2, 31280, Note_off_c, 1, 77, 0
2, 31280, Note_off_c, 1, 78, 0
2, 31280, Note_on_c, 1, 79, 127
2, 31320, Note_on_c, 1, 38, 127
2, 31320, Note_off_c, 1, 49, 0
2, 31320, Note_on_c, 1, 50, 127
2, 31320, Note_off_c, 1, 52, 0
2, 31320, Note_on_c, 1, 62, 127
2, 31320, Note_off_c, 1, 64, 0
2, 31320, Note_off_c, 1, 67, 0
2, 31320, Note_off_c, 1, 69, 0
2, 31320, Note_on_c, 1, 70, 127
2, 31320, Note_off_c, 1, 73, 0
2, 31320, Note_on_c, 1, 74, 127
2, 31320, Note_on_c, 1, 76, 127
2, 31320, Note_off_c, 1, 79, 0
2, 31360, Note_off_c, 1, 38, 0
2, 31360, Note_off_c, 1, 50, 0
2, 31360, Note_off_c, 1, 58, 0
2, 31360, Note_off_c, 1, 62, 0
2, 31360, Note_off_c, 1, 65, 0
2, 31360, Note_off_c, 1, 70, 0
2, 31360, Note_off_c, 1, 72, 0
2, 31360, Note_off_c, 1, 74, 0
2, 31360, Note_off_c, 1, 76, 0
2, 31400, Note_on_c, 1, 39, 127
2, 31400, Note_on_c, 1, 58, 127
2, 31440, Note_off_c, 1, 39, 0
2, 31440, Note_off_c, 1, 58, 0
2, 31480, Note_on_c, 1, 62, 127
2, 31480, Note_on_c, 1, 65, 127
2, 31480, Note_on_c, 1, 70, 127
2, 31480, Note_on_c, 1, 74, 127
2, 31520, Note_off_c, 1, 62, 0
2, 31520, Note_off_c, 1, 65, 0
2, 31520, Note_off_c, 1, 70, 0
2, 31520, Note_off_c, 1, 74, 0
2, 31560, Note_on_c, 1, 46, 127
2, 31560, Note_on_c, 1, 65, 127
2, 31560, Note_on_c, 1, 69, 127
2, 31560, Note_on_c, 1, 70, 127
2, 31560, Note_on_c, 1, 72, 127
2, 31600, Note_on_c, 1, 44, 127
2, 31600, Note_off_c, 1, 46, 0
2, 31600, Note_on_c, 1, 48, 127
2, 31600, Note_on_c, 1, 62, 127
2, 31600, Note_off_c, 1, 69, 0
2, 31600, Note_off_c, 1, 70, 0
2, 31600, Note_on_c, 1, 74, 127
2, 31600, Note_on_c, 1, 78, 127
2, 31600, Note_on_c, 1, 81, 127
2, 31640, Note_off_c, 1, 44, 0
2, 31640, Note_on_c, 1, 46, 127
2, 31640, Note_off_c, 1, 62, 0
2, 31640, Note_off_c, 1, 65, 0
2, 31640, Note_off_c, 1, 72, 0
2, 31640, Note_on_c, 1, 76, 127
2, 31640, Note_off_c, 1, 78, 0
2, 31640, Note_off_c, 1, 81, 0
2, 31680, Note_off_c, 1, 46, 0
2, 31680, Note_off_c, 1, 48, 0
2, 31680, Note_off_c, 1, 74, 0
2, 31680, Note_off_c, 1, 76, 0
2, 31720, Note_on_c, 1, 55, 127
2, 31720, Note_on_c, 1, 63, 127
2, 31760, Note_on_c, 1, 46, 127
2, 31760, Note_off_c, 1, 55, 0
2, 31760, Note_off_c, 1, 63, 0
2, 31800, Note_off_c, 1, 46, 0
2, 31800, Note_on_c, 1, 48, 127
2, 31800, Note_on_c, 1, 57, 127
2, 31800, Note_on_c, 1, 66, 127
2, 31800, Note_on_c, 1, 67, 127
2, 31800, Note_on_c, 1, 74, 127
2, 31840, Note_off_c, 1, 48, 0
2, 31840, Note_on_c, 1, 50, 127
2, 31840, Note_on_c, 1, 65, 127
2, 31840, Note_off_c, 1, 66, 0
2, 31840, Note_off_c, 1, 67, 0
2, 31840, Note_off_c, 1, 74, 0
2, 31840, Note_on_c, 1, 77, 127
2, 31840, Note_on_c, 1, 81, 127
2, 31880, Note_on_c, 1, 41, 127
2, 31880, Note_on_c, 1, 49, 127
2, 31880, Note_off_c, 1, 50, 0
2, 31880, Note_off_c, 1, 57, 0
2, 31880, Note_off_c, 1, 65, 0
2, 31880, Note_off_c, 1, 77, 0
2, 31880, Note_off_c, 1, 81, 0
2, 31920, Note_off_c, 1, 41, 0
2, 31920, Note_off_c, 1, 49, 0
2, 32040, Note_on_c, 1, 45, 127
2, 32080, Note_off_c, 1, 45, 0
2, 32120, Note_on_c, 1, 49, 127
2, 32120, Note_on_c, 1, 54, 127
2, 32120, Note_on_c, 1, 70, 127
2, 32120, Note_on_c, 1, 72, 127
2, 32160, Note_on_c, 1, 33, 127
2, 32160, Note_off_c, 1, 49, 0
2, 32160, Note_off_c, 1, 54, 0
2, 32160, Note_off_c, 1, 70, 0
2, 32160, Note_off_c, 1, 72, 0
2, 32200, Note_off_c, 1, 33, 0
2, 32200, Note_on_c, 1, 48, 127
2, 32200, Note_on_c, 1, 58, 127
2, 32200, Note_on_c, 1, 62, 127
2, 32200, Note_on_c, 1, 65, 127
2, 32240, Note_on_c, 1, 40, 127
2, 32240, Note_on_c, 1, 41, 127
2, 32240, Note_on_c, 1, 43, 127
2, 32240, Note_off_c, 1, 48, 0
2, 32240, Note_off_c, 1, 58, 0
2, 32240, Note_on_c, 1, 59, 127
2, 32240, Note_off_c, 1, 62, 0
2, 32240, Note_on_c, 1, 72, 127
2, 32280, Note_off_c, 1, 40, 0
2, 32280, Note_off_c, 1, 41, 0
2, 32280, Note_off_c, 1, 43, 0
2, 32280, Note_off_c, 1, 59, 0
2, 32280, Note_off_c, 1, 65, 0
2, 32280, Note_off_c, 1, 72, 0
2, 32320, Note_on_c, 1, 44, 127
2, 32320, Note_on_c, 1, 49, 127
2, 32320, Note_on_c, 1, 62, 127
2, 32320, Note_on_c, 1, 67, 127
2, 32320, Note_on_c, 1, 70, 127
2, 32320, Note_on_c, 1, 74, 127
2, 32360, Note_on_c, 1, 42, 127
2, 32360, Note_off_c, 1, 44, 0
2, 32360, Note_off_c, 1, 49, 0
2, 32360, Note_on_c, 1, 65, 127
2, 32360, Note_off_c, 1, 67, 0
2, 32360, Note_off_c, 1, 70, 0
2, 32360, Note_off_c, 1, 74, 0
2, 32400, Note_off_c, 1, 42, 0
2, 32400, Note_off_c, 1, 62, 0
2, 32400, Note_off_c, 1, 65, 0
2, 32400, Note_on_c, 1, 74, 127
2, 32440, Note_on_c, 1, 48, 127
2, 32440, Note_on_c, 1, 62, 127
2, 32440, Note_on_c, 1, 72, 127
2, 32440, Note_off_c, 1, 74, 0
2, 32480, Note_off_c, 1, 48, 0
2, 32480, Note_off_c, 1, 62, 0
2, 32480, Note_off_c, 1, 72, 0
2, 32520, Note_on_c, 1, 52, 127
2, 32520, Note_on_c, 1, 57, 127
2, 32520, Note_on_c, 1, 72, 127
2, 32560, Note_off_c, 1, 52, 0
2, 32560, Note_off_c, 1, 57, 0
2, 32560, Note_off_c, 1, 72, 0
2, 32600, Note_on_c, 1, 57, 127
2, 32600, Note_on_c, 1, 67, 127
2, 32640, Note_off_c, 1, 57, 0
2, 32640, Note_off_c, 1, 67, 0
2, 32720, Note_on_c, 1, 36, 127
2, 32720, Note_on_c, 1, 40, 127
2, 32720, Note_on_c, 1, 61, 127
2, 32720, Note_on_c, 1, 62, 127
2, 32720, Note_on_c, 1, 65, 127
2, 32720, Note_on_c, 1, 69, 127
2, 32760, Note_off_c, 1, 36, 0
2, 32760, Note_off_c, 1, 40, 0
2, 32760, Note_on_c, 1, 44, 127
2, 32760, Note_on_c, 1, 49, 127
2, 32760, Note_on_c, 1, 52, 127
2, 32760, Note_on_c, 1, 53, 127
2, 32760, Note_on_c, 1, 57, 127
2, 32760, Note_on_c, 1, 59, 127
2, 32760, Note_off_c, 1, 61, 0
2, 32760, Note_off_c, 1, 62, 0
2, 32760, Note_off_c, 1, 65, 0
2, 32760, Note_on_c, 1, 67, 127
2, 32760, Note_off_c, 1, 69, 0
2, 32760, Note_on_c, 1, 72, 127
2, 32760, Note_on_c, 1, 74, 127
2, 32760, Note_on_c, 1, 82, 127
2, 32800, Note_off_c, 1, 44, 0
2, 32800, Note_on_c, 1, 46, 127
2, 32800, Note_off_c, 1, 49, 0
2, 32800, Note_off_c, 1, 52, 0
2, 32800, Note_off_c, 1, 53, 0
2, 32800, Note_off_c, 1, 59, 0
2, 32800, Note_off_c, 1, 67, 0
2, 32800, Note_off_c, 1, 72, 0
2, 32800, Note_off_c, 1, 74, 0
2, 32800, Note_off_c, 1, 82, 0
2, 32840, Note_off_c, 1, 46, 0
2, 32840, Note_on_c, 1, 52, 127
2, 32840, Note_off_c, 1, 57, 0
2, 32840, Note_on_c, 1, 58, 127
2, 32840, Note_on_c, 1, 60, 127
2, 32880, Note_off_c, 1, 52, 0
2, 32880, Note_off_c, 1, 58, 0
2, 32880, Note_off_c, 1, 60, 0
2, 32880, Note_on_c, 1, 78, 127
2, 32920, Note_on_c, 1, 53, 127
2, 32920, Note_on_c, 1, 64, 127
2, 32920, Note_off_c, 1, 78, 0
2, 32960, Note_off_c, 1, 53, 0
2, 32960, Note_on_c, 1, 55, 127
2, 32960, Note_off_c, 1, 64, 0
2, 33000, Note_on_c, 1, 46, 127
2, 33000, Note_on_c, 1, 52, 127
2, 33000, Note_off_c, 1, 55, 0
2, 33000, Note_on_c, 1, 56, 127
2, 33000, Note_on_c, 1, 60, 127
2, 33000, Note_on_c, 1, 62, 127
2, 33000, Note_on_c, 1, 65, 127
2, 33000, Note_on_c, 1, 72, 127
2, 33040, Note_off_c, 1, 52, 0
2, 33040, Note_off_c, 1, 56, 0
2, 33040, Note_off_c, 1, 60, 0
2, 33040, Note_off_c, 1, 62, 0
2, 33040, Note_off_c, 1, 65, 0
2, 33040, Note_off_c, 1, 72, 0
2, 33080, Note_off_c, 1, 46, 0
2, 33080, Note_on_c, 1, 56, 127
2, 33080, Note_on_c, 1, 60, 127
2, 33080, Note_on_c, 1, 62, 127
2, 33080, Note_on_c, 1, 65, 127
2, 33080, Note_on_c, 1, 68, 127
2, 33080, Note_on_c, 1, 70, 127
2, 33080, Note_on_c, 1, 72, 127
2, 33080, Note_on_c, 1, 75, 127
2, 33120, Note_on_c, 1, 53, 127
2, 33120, Note_off_c, 1, 56, 0
2, 33120, Note_off_c, 1, 60, 0
2, 33120, Note_off_c, 1, 62, 0
2, 33120, Note_off_c, 1, 65, 0
2, 33120, Note_off_c, 1, 68, 0
2, 33120, Note_off_c, 1, 70, 0
2, 33120, Note_off_c, 1, 72, 0
2, 33120, Note_off_c, 1, 75, 0
2, 33160, Note_on_c, 1, 46, 127
2, 33160, Note_on_c, 1, 48, 127
2, 33160, Note_off_c, 1, 53, 0
2, 33200, Note_off_c, 1, 46, 0
2, 33200, Note_off_c, 1, 48, 0
2, 33200, Note_on_c, 1, 50, 127
2, 33200, Note_on_c, 1, 67, 127
2, 33240, End_track
3, 0, Start_track
3, 0, Title_t, "MIDI"
3, 1536, End_track
0, 0, End_of_file
