0, 0, Header, 1, 3, 384
1, 0, Start_track
1, 0, Time_signature, 4, 2, 24, 8
1, 0, Tempo, 500000
1, 671232, End_track
2, 0, Start_track
2, 0, Text_t, "harpsichord: John Sankey"
2, 0, Program_c, 0, 6
2, 0, Pitch_bend_c, 0, 8192
2, 0, Program_c, 1, 6
2, 0, Pitch_bend_c, 1, 7792
2, 0, Program_c, 2, 6
2, 0, Pitch_bend_c, 2, 7876
2, 0, Program_c, 3, 6
2, 0, Pitch_bend_c, 3, 7952
2, 0, Program_c, 4, 6
2, 0, Pitch_bend_c, 4, 7792
2, 0, Program_c, 5, 6
2, 0, Pitch_bend_c, 5, 8112
2, 0, Program_c, 6, 6
2, 0, Pitch_bend_c, 6, 7712
2, 0, Program_c, 7, 6
2, 0, Pitch_bend_c, 7, 8037
2, 0, Program_c, 8, 6
2, 0, Pitch_bend_c, 8, 7872
2, 0, Program_c, 10, 6
2, 0, Pitch_bend_c, 10, 7712
2, 0, Program_c, 11, 6
2, 0, Pitch_bend_c, 11, 8032
2, 0, Program_c, 12, 6
2, 0, Pitch_bend_c, 12, 7872
2, 0, Title_t, "Track 1"
2, 32, Note_on_c, 4, 76, 127
2, 302, Note_off_c, 4, 76, 127
2, 320, Note_on_c, 10, 69, 127
2, 590, Note_off_c, 10, 69, 127
2, 608, Note_on_c, 10, 81, 127
2, 893, Note_off_c, 10, 81, 127
2, 896, Note_on_c, 7, 79, 127
2, 1037, Note_off_c, 7, 79, 127
2, 1040, Note_on_c, 4, 76, 127
2, 1181, Note_off_c, 4, 76, 127
2, 1184, Note_on_c, 5, 77, 127
2, 1325, Note_off_c, 5, 77, 127
2, 1328, Note_on_c, 2, 74, 127
2, 1469, Note_off_c, 2, 74, 127
2, 1472, Note_on_c, 4, 76, 127
2, 1613, Note_off_c, 4, 76, 127
2, 1616, Note_on_c, 2, 74, 127
2, 1757, Note_off_c, 2, 74, 127
2, 1760, Note_on_c, 4, 64, 127
2, 1760, Note_on_c, 0, 72, 127
2, 1901, Note_off_c, 0, 72, 127
2, 1904, Note_on_c, 12, 71, 127
2, 2030, Note_off_c, 4, 64, 127
2, 2045, Note_off_c, 12, 71, 127
2, 2048, Note_on_c, 10, 57, 127
2, 2048, Note_on_c, 0, 72, 127
2, 2189, Note_off_c, 0, 72, 127
2, 2192, Note_on_c, 12, 71, 127
2, 2318, Note_off_c, 10, 57, 127
2, 2333, Note_off_c, 12, 71, 127
2, 2336, Note_on_c, 10, 69, 127
2, 2336, Note_on_c, 0, 72, 127
2, 2480, Note_on_c, 5, 77, 127
2, 2576, Note_off_c, 0, 72, 127
2, 2621, Note_off_c, 10, 69, 127
2, 2624, Note_on_c, 7, 67, 127
2, 2624, Note_on_c, 12, 71, 127
2, 2720, Note_off_c, 5, 77, 127
2, 2765, Note_off_c, 7, 67, 127
2, 2768, Note_on_c, 4, 64, 127
2, 2768, Note_on_c, 4, 76, 127
2, 2864, Note_off_c, 12, 71, 127
2, 2909, Note_off_c, 4, 64, 127
2, 2912, Note_on_c, 5, 65, 127
2, 2912, Note_on_c, 10, 69, 127
2, 3008, Note_off_c, 4, 76, 127
2, 3053, Note_off_c, 5, 65, 127
2, 3056, Note_on_c, 2, 62, 127
2, 3056, Note_on_c, 2, 74, 127
2, 3152, Note_off_c, 10, 69, 127
2, 3197, Note_off_c, 2, 62, 127
2, 3200, Note_on_c, 4, 64, 127
2, 3200, Note_on_c, 8, 68, 127
2, 3296, Note_off_c, 2, 74, 127
2, 3344, Note_on_c, 2, 74, 127
2, 3485, Note_off_c, 4, 64, 127
2, 3488, Note_on_c, 4, 52, 127
2, 3488, Note_on_c, 12, 71, 127
2, 3620, Note_off_c, 8, 68, 127
2, 3629, Note_off_c, 12, 71, 127
2, 3632, Note_on_c, 8, 68, 127
2, 3764, Note_off_c, 2, 74, 127
2, 3773, Note_off_c, 4, 52, 127
2, 3774, Note_off_c, 8, 68, 127
2, 3776, Note_on_c, 8, 56, 127
2, 3776, Note_on_c, 2, 74, 127
2, 3920, Note_on_c, 12, 71, 127
2, 4061, Note_off_c, 12, 71, 127
2, 4061, Note_off_c, 8, 56, 127
2, 4064, Note_on_c, 12, 59, 127
2, 4064, Note_on_c, 8, 68, 127
2, 4205, Note_off_c, 8, 68, 127
2, 4208, Note_on_c, 12, 71, 127
2, 4349, Note_off_c, 12, 71, 127
2, 4349, Note_off_c, 12, 59, 127
2, 4352, Note_on_c, 8, 56, 127
2, 4352, Note_on_c, 4, 64, 127
2, 4496, Note_off_c, 2, 74, 127
2, 4496, Note_on_c, 2, 74, 127
2, 4637, Note_off_c, 2, 74, 127
2, 4637, Note_off_c, 8, 56, 127
2, 4640, Note_on_c, 4, 52, 127
2, 4640, Note_on_c, 0, 72, 127
2, 4781, Note_off_c, 0, 72, 127
2, 4784, Note_on_c, 12, 71, 127
2, 4922, Note_off_c, 4, 64, 127
2, 4925, Note_off_c, 12, 71, 127
2, 4925, Note_off_c, 4, 52, 127
2, 4928, Note_on_c, 10, 57, 127
2, 4928, Note_on_c, 0, 72, 127
2, 5069, Note_off_c, 0, 72, 127
2, 5072, Note_on_c, 12, 71, 127
2, 5213, Note_off_c, 12, 71, 127
2, 5216, Note_on_c, 4, 52, 127
2, 5216, Note_on_c, 10, 69, 127
2, 5357, Note_off_c, 10, 69, 127
2, 5360, Note_on_c, 8, 68, 127
2, 5501, Note_off_c, 8, 68, 127
2, 5501, Note_off_c, 4, 52, 127
2, 5504, Note_on_c, 10, 45, 127
2, 5504, Note_on_c, 10, 69, 127
2, 5645, Note_off_c, 10, 69, 127
2, 5648, Note_on_c, 12, 71, 127
2, 5789, Note_off_c, 12, 71, 127
2, 5789, Note_off_c, 10, 45, 127
2, 5790, Note_off_c, 10, 57, 127
2, 5792, Note_on_c, 10, 57, 127
2, 5792, Note_on_c, 0, 72, 127
2, 5936, Note_on_c, 5, 65, 127
2, 6077, Note_off_c, 0, 72, 127
2, 6077, Note_off_c, 10, 57, 127
2, 6080, Note_on_c, 7, 55, 127
2, 6080, Note_on_c, 12, 71, 127
2, 6146, Note_off_c, 5, 65, 127
2, 6221, Note_off_c, 7, 55, 127
2, 6224, Note_on_c, 4, 52, 127
2, 6224, Note_on_c, 4, 64, 127
2, 6290, Note_off_c, 12, 71, 127
2, 6365, Note_off_c, 4, 52, 127
2, 6368, Note_on_c, 5, 53, 127
2, 6368, Note_on_c, 10, 69, 127
2, 6464, Note_off_c, 4, 64, 127
2, 6509, Note_off_c, 10, 69, 127
2, 6509, Note_off_c, 5, 53, 127
2, 6512, Note_on_c, 2, 50, 127
2, 6512, Note_on_c, 12, 71, 127
2, 6653, Note_off_c, 12, 71, 127
2, 6653, Note_off_c, 2, 50, 127
2, 6656, Note_on_c, 4, 52, 127
2, 6656, Note_on_c, 10, 69, 127
2, 6713, Note_on_c, 8, 68, 127
2, 6725, Note_off_c, 10, 69, 127
2, 6770, Note_on_c, 10, 69, 127
2, 6782, Note_off_c, 8, 68, 127
2, 6797, Note_off_c, 4, 52, 127
2, 6800, Note_on_c, 2, 50, 127
2, 6827, Note_on_c, 8, 68, 127
2, 6839, Note_off_c, 10, 69, 127
2, 6941, Note_off_c, 2, 50, 127
2, 6944, Note_on_c, 12, 47, 127
2, 6944, Note_on_c, 4, 64, 127
2, 6950, Note_off_c, 8, 68, 127
2, 7085, Note_off_c, 12, 47, 127
2, 7088, Note_on_c, 8, 44, 127
2, 7229, Note_off_c, 8, 44, 127
2, 7229, Note_off_c, 4, 64, 127
2, 7232, Note_on_c, 2, 50, 127
2, 7232, Note_on_c, 8, 68, 127
2, 7373, Note_off_c, 2, 50, 127
2, 7376, Note_on_c, 12, 47, 127
2, 7472, Note_off_c, 8, 68, 127
2, 7517, Note_off_c, 12, 47, 127
2, 7520, Note_on_c, 8, 44, 127
2, 7520, Note_on_c, 12, 71, 127
2, 7661, Note_off_c, 8, 44, 127
2, 7664, Note_on_c, 12, 47, 127
2, 7760, Note_off_c, 12, 71, 127
2, 7805, Note_off_c, 12, 47, 127
2, 7808, Note_on_c, 4, 40, 127
2, 7808, Note_on_c, 8, 68, 127
2, 7949, Note_off_c, 4, 40, 127
2, 7952, Note_on_c, 2, 50, 127
2, 8048, Note_off_c, 8, 68, 127
2, 8093, Note_off_c, 2, 50, 127
2, 8096, Note_on_c, 0, 48, 127
2, 8096, Note_on_c, 4, 64, 127
2, 8237, Note_off_c, 0, 48, 127
2, 8240, Note_on_c, 12, 47, 127
2, 8336, Note_off_c, 4, 64, 127
2, 8381, Note_off_c, 12, 47, 127
2, 8384, Note_on_c, 1, 49, 127
2, 8384, Note_on_c, 10, 69, 127
2, 8528, Note_on_c, 7, 79, 127
2, 8669, Note_off_c, 7, 79, 127
2, 8669, Note_off_c, 1, 49, 127
2, 8672, Note_on_c, 10, 45, 127
2, 8672, Note_on_c, 4, 76, 127
2, 8813, Note_off_c, 4, 76, 127
2, 8816, Note_on_c, 1, 73, 127
2, 8957, Note_off_c, 1, 73, 127
2, 8957, Note_off_c, 10, 45, 127
2, 8960, Note_on_c, 1, 49, 127
2, 8960, Note_on_c, 7, 79, 127
2, 9101, Note_off_c, 7, 79, 127
2, 9104, Note_on_c, 4, 76, 127
2, 9245, Note_off_c, 4, 76, 127
2, 9245, Note_off_c, 1, 49, 127
2, 9246, Note_off_c, 10, 69, 127
2, 9248, Note_on_c, 4, 52, 127
2, 9248, Note_on_c, 1, 73, 127
2, 9392, Note_on_c, 4, 76, 127
2, 9488, Note_off_c, 1, 73, 127
2, 9533, Note_off_c, 4, 76, 127
2, 9533, Note_off_c, 4, 52, 127
2, 9536, Note_on_c, 1, 49, 127
2, 9536, Note_on_c, 10, 69, 127
2, 9677, Note_off_c, 10, 69, 127
2, 9680, Note_on_c, 7, 67, 127
2, 9821, Note_off_c, 7, 67, 127
2, 9821, Note_off_c, 1, 49, 127
2, 9824, Note_on_c, 10, 45, 127
2, 9824, Note_on_c, 6, 66, 127
2, 9965, Note_off_c, 6, 66, 127
2, 9968, Note_on_c, 4, 64, 127
2, 10109, Note_off_c, 4, 64, 127
2, 10109, Note_off_c, 10, 45, 127
2, 10112, Note_on_c, 2, 50, 127
2, 10112, Note_on_c, 6, 66, 127
2, 10253, Note_off_c, 2, 50, 127
2, 10256, Note_on_c, 0, 60, 127
2, 10397, Note_off_c, 0, 60, 127
2, 10397, Note_off_c, 6, 66, 127
2, 10400, Note_on_c, 10, 57, 127
2, 10400, Note_on_c, 2, 74, 127
2, 10541, Note_off_c, 10, 57, 127
2, 10544, Note_on_c, 6, 54, 127
2, 10640, Note_off_c, 2, 74, 127
2, 10685, Note_off_c, 6, 54, 127
2, 10688, Note_on_c, 0, 60, 127
2, 10688, Note_on_c, 6, 78, 127
2, 10829, Note_off_c, 0, 60, 127
2, 10832, Note_on_c, 10, 57, 127
2, 10928, Note_off_c, 6, 78, 127
2, 10973, Note_off_c, 10, 57, 127
2, 10976, Note_on_c, 6, 54, 127
2, 10976, Note_on_c, 10, 81, 127
2, 11117, Note_off_c, 6, 54, 127
2, 11120, Note_on_c, 10, 57, 127
2, 11216, Note_off_c, 10, 81, 127
2, 11261, Note_off_c, 10, 57, 127
2, 11264, Note_on_c, 2, 50, 127
2, 11264, Note_on_c, 6, 78, 127
2, 11405, Note_off_c, 2, 50, 127
2, 11408, Note_on_c, 0, 60, 127
2, 11504, Note_off_c, 6, 78, 127
2, 11549, Note_off_c, 0, 60, 127
2, 11552, Note_on_c, 12, 59, 127
2, 11552, Note_on_c, 2, 74, 127
2, 11693, Note_off_c, 12, 59, 127
2, 11696, Note_on_c, 10, 57, 127
2, 11792, Note_off_c, 2, 74, 127
2, 11837, Note_off_c, 10, 57, 127
2, 11840, Note_on_c, 12, 59, 127
2, 11840, Note_on_c, 7, 79, 127
2, 11981, Note_off_c, 7, 79, 127
2, 11984, Note_on_c, 5, 77, 127
2, 12125, Note_off_c, 5, 77, 127
2, 12125, Note_off_c, 12, 59, 127
2, 12128, Note_on_c, 7, 55, 127
2, 12128, Note_on_c, 2, 74, 127
2, 12269, Note_off_c, 2, 74, 127
2, 12272, Note_on_c, 12, 71, 127
2, 12413, Note_off_c, 12, 71, 127
2, 12413, Note_off_c, 7, 55, 127
2, 12416, Note_on_c, 12, 59, 127
2, 12416, Note_on_c, 5, 77, 127
2, 12560, Note_on_c, 2, 74, 127
2, 12656, Note_off_c, 5, 77, 127
2, 12701, Note_off_c, 2, 74, 127
2, 12701, Note_off_c, 12, 59, 127
2, 12704, Note_on_c, 2, 62, 127
2, 12704, Note_on_c, 12, 71, 127
2, 12845, Note_off_c, 12, 71, 127
2, 12848, Note_on_c, 2, 74, 127
2, 12989, Note_off_c, 2, 74, 127
2, 12989, Note_off_c, 2, 62, 127
2, 12992, Note_on_c, 12, 59, 127
2, 12992, Note_on_c, 7, 67, 127
2, 13136, Note_on_c, 5, 77, 127
2, 13232, Note_off_c, 7, 67, 127
2, 13277, Note_off_c, 5, 77, 127
2, 13277, Note_off_c, 12, 59, 127
2, 13280, Note_on_c, 7, 55, 127
2, 13280, Note_on_c, 4, 76, 127
2, 13421, Note_off_c, 4, 76, 127
2, 13424, Note_on_c, 2, 74, 127
2, 13565, Note_off_c, 2, 74, 127
2, 13565, Note_off_c, 7, 55, 127
2, 13568, Note_on_c, 0, 60, 127
2, 13568, Note_on_c, 4, 76, 127
2, 13709, Note_off_c, 4, 76, 127
2, 13712, Note_on_c, 2, 74, 127
2, 13853, Note_off_c, 2, 74, 127
2, 13856, Note_on_c, 7, 55, 127
2, 13856, Note_on_c, 0, 72, 127
2, 13997, Note_off_c, 0, 72, 127
2, 14000, Note_on_c, 12, 71, 127
2, 14141, Note_off_c, 12, 71, 127
2, 14141, Note_off_c, 7, 55, 127
2, 14144, Note_on_c, 0, 48, 127
2, 14144, Note_on_c, 10, 69, 127
2, 14285, Note_off_c, 10, 69, 127
2, 14288, Note_on_c, 0, 72, 127
2, 14429, Note_off_c, 0, 72, 127
2, 14429, Note_off_c, 0, 48, 127
2, 14430, Note_off_c, 0, 60, 127
2, 14432, Note_on_c, 0, 60, 127
2, 14432, Note_on_c, 2, 74, 127
2, 14573, Note_off_c, 2, 74, 127
2, 14576, Note_on_c, 6, 78, 127
2, 14717, Note_off_c, 6, 78, 127
2, 14717, Note_off_c, 0, 60, 127
2, 14720, Note_on_c, 12, 59, 127
2, 14720, Note_on_c, 7, 79, 127
2, 14861, Note_off_c, 12, 59, 127
2, 14864, Note_on_c, 7, 55, 127
2, 14864, Note_on_c, 12, 71, 127
2, 14960, Note_off_c, 7, 79, 127
2, 15005, Note_off_c, 12, 71, 127
2, 15005, Note_off_c, 7, 55, 127
2, 15008, Note_on_c, 10, 57, 127
2, 15008, Note_on_c, 0, 72, 127
2, 15149, Note_off_c, 0, 72, 127
2, 15149, Note_off_c, 10, 57, 127
2, 15152, Note_on_c, 6, 54, 127
2, 15152, Note_on_c, 10, 69, 127
2, 15293, Note_off_c, 10, 69, 127
2, 15293, Note_off_c, 6, 54, 127
2, 15296, Note_on_c, 7, 55, 127
2, 15296, Note_on_c, 12, 71, 127
2, 15437, Note_off_c, 12, 71, 127
2, 15440, Note_on_c, 2, 74, 127
2, 15581, Note_off_c, 2, 74, 127
2, 15581, Note_off_c, 7, 55, 127
2, 15584, Note_on_c, 5, 53, 127
2, 15584, Note_on_c, 4, 76, 127
2, 15725, Note_off_c, 4, 76, 127
2, 15728, Note_on_c, 5, 77, 127
2, 15869, Note_off_c, 5, 77, 127
2, 15869, Note_off_c, 5, 53, 127
2, 15872, Note_on_c, 4, 52, 127
2, 15872, Note_on_c, 7, 79, 127
2, 16016, Note_on_c, 10, 69, 127
2, 16157, Note_off_c, 10, 69, 127
2, 16157, Note_off_c, 4, 52, 127
2, 16160, Note_on_c, 2, 50, 127
2, 16160, Note_on_c, 11, 70, 127
2, 16192, Note_off_c, 7, 79, 127
2, 16301, Note_off_c, 11, 70, 127
2, 16304, Note_on_c, 7, 67, 127
2, 16445, Note_off_c, 2, 50, 127
2, 16448, Note_on_c, 4, 52, 127
2, 16448, Note_on_c, 7, 79, 127
2, 16464, Note_off_c, 7, 67, 127
2, 16592, Note_on_c, 10, 69, 127
2, 16728, Note_off_c, 7, 79, 127
2, 16733, Note_off_c, 10, 69, 127
2, 16733, Note_off_c, 4, 52, 127
2, 16736, Note_on_c, 0, 48, 127
2, 16736, Note_on_c, 11, 70, 127
2, 16877, Note_off_c, 11, 70, 127
2, 16880, Note_on_c, 7, 67, 127
2, 17021, Note_off_c, 7, 67, 127
2, 17021, Note_off_c, 0, 48, 127
2, 17024, Note_on_c, 5, 53, 127
2, 17024, Note_on_c, 10, 69, 127
2, 17165, Note_off_c, 10, 69, 127
2, 17168, Note_on_c, 0, 72, 127
2, 17309, Note_off_c, 0, 72, 127
2, 17309, Note_off_c, 5, 53, 127
2, 17312, Note_on_c, 4, 52, 127
2, 17312, Note_on_c, 2, 74, 127
2, 17453, Note_off_c, 2, 74, 127
2, 17456, Note_on_c, 4, 76, 127
2, 17597, Note_off_c, 4, 76, 127
2, 17597, Note_off_c, 4, 52, 127
2, 17600, Note_on_c, 2, 50, 127
2, 17600, Note_on_c, 5, 77, 127
2, 17744, Note_on_c, 7, 67, 127
2, 17885, Note_off_c, 7, 67, 127
2, 17885, Note_off_c, 2, 50, 127
2, 17888, Note_on_c, 0, 48, 127
2, 17888, Note_on_c, 10, 69, 127
2, 17920, Note_off_c, 5, 77, 127
2, 18029, Note_off_c, 10, 69, 127
2, 18032, Note_on_c, 5, 65, 127
2, 18173, Note_off_c, 0, 48, 127
2, 18176, Note_on_c, 2, 50, 127
2, 18176, Note_on_c, 5, 77, 127
2, 18232, Note_off_c, 5, 65, 127
2, 18320, Note_on_c, 7, 67, 127
2, 18456, Note_off_c, 5, 77, 127
2, 18461, Note_off_c, 7, 67, 127
2, 18461, Note_off_c, 2, 50, 127
2, 18464, Note_on_c, 12, 47, 127
2, 18464, Note_on_c, 10, 69, 127
2, 18605, Note_off_c, 10, 69, 127
2, 18608, Note_on_c, 5, 65, 127
2, 18749, Note_off_c, 5, 65, 127
2, 18749, Note_off_c, 12, 47, 127
2, 18752, Note_on_c, 4, 52, 127
2, 18752, Note_on_c, 7, 67, 127
2, 18893, Note_off_c, 7, 67, 127
2, 18896, Note_on_c, 4, 64, 127
2, 19037, Note_off_c, 4, 64, 127
2, 19037, Note_off_c, 4, 52, 127
2, 19040, Note_on_c, 2, 50, 127
2, 19040, Note_on_c, 7, 67, 127
2, 19181, Note_off_c, 7, 67, 127
2, 19184, Note_on_c, 12, 71, 127
2, 19325, Note_off_c, 12, 71, 127
2, 19325, Note_off_c, 2, 50, 127
2, 19328, Note_on_c, 1, 49, 127
2, 19328, Note_on_c, 4, 76, 127
2, 19472, Note_on_c, 5, 65, 127
2, 19608, Note_off_c, 4, 76, 127
2, 19613, Note_off_c, 5, 65, 127
2, 19613, Note_off_c, 1, 49, 127
2, 19616, Note_on_c, 12, 47, 127
2, 19616, Note_on_c, 7, 67, 127
2, 19757, Note_off_c, 7, 67, 127
2, 19760, Note_on_c, 4, 64, 127
2, 19901, Note_off_c, 12, 47, 127
2, 19904, Note_on_c, 1, 49, 127
2, 19904, Note_on_c, 4, 76, 127
2, 20000, Note_off_c, 4, 64, 127
2, 20048, Note_on_c, 5, 65, 127
2, 20144, Note_off_c, 4, 76, 127
2, 20189, Note_off_c, 5, 65, 127
2, 20189, Note_off_c, 1, 49, 127
2, 20192, Note_on_c, 10, 45, 127
2, 20192, Note_on_c, 7, 67, 127
2, 20333, Note_off_c, 7, 67, 127
2, 20336, Note_on_c, 4, 64, 127
2, 20477, Note_off_c, 4, 64, 127
2, 20477, Note_off_c, 10, 45, 127
2, 20480, Note_on_c, 2, 50, 127
2, 20480, Note_on_c, 5, 65, 127
2, 20621, Note_off_c, 5, 65, 127
2, 20624, Note_on_c, 2, 62, 127
2, 20765, Note_off_c, 2, 62, 127
2, 20765, Note_off_c, 2, 50, 127
2, 20768, Note_on_c, 0, 48, 127
2, 20768, Note_on_c, 5, 65, 127
2, 20909, Note_off_c, 5, 65, 127
2, 20912, Note_on_c, 10, 69, 127
2, 21053, Note_off_c, 10, 69, 127
2, 21053, Note_off_c, 0, 48, 127
2, 21056, Note_on_c, 12, 47, 127
2, 21056, Note_on_c, 2, 74, 127
2, 21200, Note_on_c, 4, 64, 127
2, 21296, Note_off_c, 2, 74, 127
2, 21341, Note_off_c, 4, 64, 127
2, 21341, Note_off_c, 12, 47, 127
2, 21344, Note_on_c, 10, 45, 127
2, 21344, Note_on_c, 5, 65, 127
2, 21485, Note_off_c, 5, 65, 127
2, 21488, Note_on_c, 2, 62, 127
2, 21629, Note_off_c, 10, 45, 127
2, 21632, Note_on_c, 12, 47, 127
2, 21632, Note_on_c, 2, 74, 127
2, 21776, Note_on_c, 4, 64, 127
2, 21778, Note_off_c, 2, 62, 127
2, 21832, Note_off_c, 2, 74, 127
2, 21917, Note_off_c, 4, 64, 127
2, 21917, Note_off_c, 12, 47, 127
2, 21920, Note_on_c, 7, 43, 127
2, 21920, Note_on_c, 5, 65, 127
2, 22061, Note_off_c, 5, 65, 127
2, 22064, Note_on_c, 2, 62, 127
2, 22205, Note_off_c, 2, 62, 127
2, 22205, Note_off_c, 7, 43, 127
2, 22208, Note_on_c, 0, 48, 127
2, 22208, Note_on_c, 4, 64, 127
2, 22352, Note_on_c, 2, 62, 127
2, 22493, Note_off_c, 2, 62, 127
2, 22493, Note_off_c, 0, 48, 127
2, 22496, Note_on_c, 7, 43, 127
2, 22496, Note_on_c, 0, 60, 127
2, 22637, Note_off_c, 0, 60, 127
2, 22640, Note_on_c, 12, 59, 127
2, 22778, Note_off_c, 4, 64, 127
2, 22781, Note_off_c, 12, 59, 127
2, 22781, Note_off_c, 7, 43, 127
2, 22784, Note_on_c, 0, 36, 127
2, 22784, Note_on_c, 0, 60, 127
2, 22928, Note_on_c, 8, 56, 127
2, 23069, Note_off_c, 8, 56, 127
2, 23069, Note_off_c, 0, 60, 127
2, 23069, Note_off_c, 0, 36, 127
2, 23072, Note_on_c, 0, 48, 127
2, 23072, Note_on_c, 10, 57, 127
2, 23216, Note_on_c, 4, 64, 127
2, 23282, Note_off_c, 10, 57, 127
2, 23357, Note_off_c, 4, 64, 127
2, 23357, Note_off_c, 0, 48, 127
2, 23360, Note_on_c, 12, 47, 127
2, 23360, Note_on_c, 2, 62, 127
2, 23501, Note_off_c, 2, 62, 127
2, 23501, Note_off_c, 12, 47, 127
2, 23504, Note_on_c, 8, 44, 127
2, 23504, Note_on_c, 12, 59, 127
2, 23645, Note_off_c, 12, 59, 127
2, 23645, Note_off_c, 8, 44, 127
2, 23648, Note_on_c, 10, 45, 127
2, 23648, Note_on_c, 0, 60, 127
2, 23789, Note_off_c, 0, 60, 127
2, 23789, Note_off_c, 10, 45, 127
2, 23792, Note_on_c, 6, 42, 127
2, 23792, Note_on_c, 10, 57, 127
2, 23933, Note_off_c, 10, 57, 127
2, 23933, Note_off_c, 6, 42, 127
2, 23936, Note_on_c, 8, 44, 127
2, 23936, Note_on_c, 12, 59, 127
2, 24080, Note_on_c, 2, 62, 127
2, 24146, Note_off_c, 12, 59, 127
2, 24221, Note_off_c, 2, 62, 127
2, 24221, Note_off_c, 8, 44, 127
2, 24224, Note_on_c, 4, 40, 127
2, 24224, Note_on_c, 12, 59, 127
2, 24365, Note_off_c, 12, 59, 127
2, 24368, Note_on_c, 8, 56, 127
2, 24509, Note_off_c, 8, 56, 127
2, 24509, Note_off_c, 4, 40, 127
2, 24512, Note_on_c, 8, 44, 127
2, 24512, Note_on_c, 2, 62, 127
2, 24654, Note_off_c, 2, 62, 127
2, 24656, Note_on_c, 12, 59, 127
2, 24797, Note_off_c, 12, 59, 127
2, 24797, Note_off_c, 8, 44, 127
2, 24800, Note_on_c, 12, 47, 127
2, 24800, Note_on_c, 8, 56, 127
2, 24941, Note_off_c, 8, 56, 127
2, 24944, Note_on_c, 12, 59, 127
2, 25085, Note_off_c, 12, 59, 127
2, 25085, Note_off_c, 12, 47, 127
2, 25088, Note_on_c, 8, 44, 127
2, 25088, Note_on_c, 4, 52, 127
2, 25232, Note_on_c, 2, 62, 127
2, 25298, Note_off_c, 4, 52, 127
2, 25373, Note_off_c, 2, 62, 127
2, 25373, Note_off_c, 8, 44, 127
2, 25376, Note_on_c, 4, 40, 127
2, 25376, Note_on_c, 0, 60, 127
2, 25517, Note_off_c, 0, 60, 127
2, 25520, Note_on_c, 12, 59, 127
2, 25661, Note_off_c, 12, 59, 127
2, 25661, Note_off_c, 4, 40, 127
2, 25664, Note_on_c, 10, 45, 127
2, 25664, Note_on_c, 0, 60, 127
2, 25808, Note_on_c, 10, 57, 127
2, 25904, Note_off_c, 0, 60, 127
2, 25949, Note_off_c, 10, 57, 127
2, 25949, Note_off_c, 10, 45, 127
2, 25952, Note_on_c, 10, 45, 127
2, 25952, Note_on_c, 1, 61, 127
2, 26093, Note_off_c, 1, 61, 127
2, 26096, Note_on_c, 4, 64, 127
2, 26237, Note_off_c, 4, 64, 127
2, 26237, Note_off_c, 10, 45, 127
2, 26240, Note_on_c, 1, 49, 127
2, 26240, Note_on_c, 7, 67, 127
2, 26382, Note_off_c, 7, 67, 127
2, 26384, Note_on_c, 4, 64, 127
2, 26525, Note_off_c, 4, 64, 127
2, 26525, Note_off_c, 1, 49, 127
2, 26528, Note_on_c, 4, 52, 127
2, 26528, Note_on_c, 1, 61, 127
2, 26669, Note_off_c, 1, 61, 127
2, 26672, Note_on_c, 4, 64, 127
2, 26813, Note_off_c, 4, 64, 127
2, 26813, Note_off_c, 4, 52, 127
2, 26816, Note_on_c, 1, 49, 127
2, 26816, Note_on_c, 10, 57, 127
2, 26960, Note_on_c, 7, 67, 127
2, 27026, Note_off_c, 10, 57, 127
2, 27101, Note_off_c, 7, 67, 127
2, 27101, Note_off_c, 1, 49, 127
2, 27104, Note_on_c, 10, 45, 127
2, 27104, Note_on_c, 5, 65, 127
2, 27245, Note_off_c, 5, 65, 127
2, 27248, Note_on_c, 4, 64, 127
2, 27389, Note_off_c, 4, 64, 127
2, 27389, Note_off_c, 10, 45, 127
2, 27392, Note_on_c, 2, 50, 127
2, 27392, Note_on_c, 5, 65, 127
2, 27536, Note_on_c, 10, 57, 127
2, 27632, Note_off_c, 5, 65, 127
2, 27677, Note_off_c, 10, 57, 127
2, 27677, Note_off_c, 2, 50, 127
2, 27680, Note_on_c, 5, 53, 127
2, 27680, Note_on_c, 2, 62, 127
2, 27821, Note_off_c, 2, 62, 127
2, 27821, Note_off_c, 5, 53, 127
2, 27824, Note_on_c, 4, 52, 127
2, 27824, Note_on_c, 5, 65, 127
2, 27965, Note_off_c, 5, 65, 127
2, 27965, Note_off_c, 4, 52, 127
2, 27968, Note_on_c, 3, 51, 127
2, 27968, Note_on_c, 10, 69, 127
2, 28110, Note_off_c, 10, 69, 127
2, 28112, Note_on_c, 6, 66, 127
2, 28253, Note_off_c, 6, 66, 127
2, 28253, Note_off_c, 3, 51, 127
2, 28256, Note_on_c, 6, 54, 127
2, 28256, Note_on_c, 3, 63, 127
2, 28397, Note_off_c, 3, 63, 127
2, 28400, Note_on_c, 6, 66, 127
2, 28541, Note_off_c, 6, 66, 127
2, 28541, Note_off_c, 6, 54, 127
2, 28544, Note_on_c, 3, 51, 127
2, 28544, Note_on_c, 12, 59, 127
2, 28688, Note_on_c, 10, 69, 127
2, 28754, Note_off_c, 12, 59, 127
2, 28829, Note_off_c, 10, 69, 127
2, 28829, Note_off_c, 3, 51, 127
2, 28832, Note_on_c, 12, 47, 127
2, 28832, Note_on_c, 8, 68, 127
2, 28973, Note_off_c, 8, 68, 127
2, 28976, Note_on_c, 6, 66, 127
2, 29117, Note_off_c, 6, 66, 127
2, 29117, Note_off_c, 12, 47, 127
2, 29120, Note_on_c, 4, 40, 127
2, 29120, Note_on_c, 8, 68, 127
2, 29261, Note_off_c, 8, 68, 127
2, 29264, Note_on_c, 4, 64, 127
2, 29405, Note_off_c, 4, 64, 127
2, 29405, Note_off_c, 4, 40, 127
2, 29408, Note_on_c, 4, 52, 127
2, 29408, Note_on_c, 8, 68, 127
2, 29549, Note_off_c, 8, 68, 127
2, 29552, Note_on_c, 12, 71, 127
2, 29693, Note_off_c, 12, 71, 127
2, 29693, Note_off_c, 4, 52, 127
2, 29696, Note_on_c, 8, 56, 127
2, 29696, Note_on_c, 2, 74, 127
2, 29840, Note_on_c, 12, 71, 127
2, 29906, Note_off_c, 2, 74, 127
2, 29981, Note_off_c, 12, 71, 127
2, 29981, Note_off_c, 8, 56, 127
2, 29984, Note_on_c, 12, 59, 127
2, 29984, Note_on_c, 8, 68, 127
2, 30125, Note_off_c, 8, 68, 127
2, 30128, Note_on_c, 12, 71, 127
2, 30269, Note_off_c, 12, 71, 127
2, 30269, Note_off_c, 12, 59, 127
2, 30272, Note_on_c, 8, 56, 127
2, 30272, Note_on_c, 4, 64, 127
2, 30416, Note_on_c, 2, 74, 127
2, 30482, Note_off_c, 4, 64, 127
2, 30557, Note_off_c, 2, 74, 127
2, 30557, Note_off_c, 8, 56, 127
2, 30560, Note_on_c, 4, 52, 127
2, 30560, Note_on_c, 0, 72, 127
2, 30701, Note_off_c, 0, 72, 127
2, 30704, Note_on_c, 12, 71, 127
2, 30845, Note_off_c, 12, 71, 127
2, 30845, Note_off_c, 4, 52, 127
2, 30848, Note_on_c, 10, 57, 127
2, 30848, Note_on_c, 0, 72, 127
2, 30989, Note_off_c, 10, 57, 127
2, 30992, Note_on_c, 2, 62, 127
2, 31103, Note_off_c, 0, 72, 127
2, 31133, Note_off_c, 2, 62, 127
2, 31136, Note_on_c, 0, 60, 127
2, 31136, Note_on_c, 4, 76, 127
2, 31277, Note_off_c, 0, 60, 127
2, 31280, Note_on_c, 12, 59, 127
2, 31391, Note_off_c, 4, 76, 127
2, 31421, Note_off_c, 12, 59, 127
2, 31424, Note_on_c, 0, 60, 127
2, 31424, Note_on_c, 10, 69, 127
2, 31565, Note_off_c, 0, 60, 127
2, 31568, Note_on_c, 12, 59, 127
2, 31679, Note_off_c, 10, 69, 127
2, 31709, Note_off_c, 12, 59, 127
2, 31712, Note_on_c, 0, 60, 127
2, 31712, Note_on_c, 10, 81, 127
2, 31853, Note_off_c, 0, 60, 127
2, 31856, Note_on_c, 4, 64, 127
2, 31967, Note_off_c, 10, 81, 127
2, 31997, Note_off_c, 4, 64, 127
2, 32000, Note_on_c, 1, 61, 127
2, 32000, Note_on_c, 7, 79, 127
2, 32141, Note_off_c, 7, 79, 127
2, 32141, Note_off_c, 1, 61, 127
2, 32144, Note_on_c, 4, 64, 127
2, 32144, Note_on_c, 4, 76, 127
2, 32285, Note_off_c, 4, 76, 127
2, 32285, Note_off_c, 4, 64, 127
2, 32288, Note_on_c, 2, 62, 127
2, 32288, Note_on_c, 5, 77, 127
2, 32429, Note_off_c, 5, 77, 127
2, 32429, Note_off_c, 2, 62, 127
2, 32432, Note_on_c, 5, 65, 127
2, 32432, Note_on_c, 2, 74, 127
2, 32573, Note_off_c, 2, 74, 127
2, 32573, Note_off_c, 5, 65, 127
2, 32576, Note_on_c, 8, 56, 127
2, 32576, Note_on_c, 12, 83, 127
2, 32717, Note_off_c, 12, 83, 127
2, 32720, Note_on_c, 10, 81, 127
2, 32861, Note_off_c, 10, 81, 127
2, 32861, Note_off_c, 8, 56, 127
2, 32864, Note_on_c, 12, 59, 127
2, 32864, Note_on_c, 8, 80, 127
2, 33005, Note_off_c, 8, 80, 127
2, 33008, Note_on_c, 6, 78, 127
2, 33149, Note_off_c, 6, 78, 127
2, 33149, Note_off_c, 12, 59, 127
2, 33152, Note_on_c, 4, 52, 127
2, 33152, Note_on_c, 8, 80, 127
2, 33293, Note_off_c, 8, 80, 127
2, 33296, Note_on_c, 6, 78, 127
2, 33437, Note_off_c, 6, 78, 127
2, 33437, Note_off_c, 4, 52, 127
2, 33440, Note_on_c, 4, 64, 127
2, 33440, Note_on_c, 8, 80, 127
2, 33581, Note_off_c, 8, 80, 127
2, 33584, Note_on_c, 12, 83, 127
2, 33725, Note_off_c, 12, 83, 127
2, 33725, Note_off_c, 4, 64, 127
2, 33728, Note_on_c, 2, 62, 127
2, 33728, Note_on_c, 4, 76, 127
2, 33869, Note_off_c, 4, 76, 127
2, 33869, Note_off_c, 2, 62, 127
2, 33872, Note_on_c, 12, 59, 127
2, 33872, Note_on_c, 8, 80, 127
2, 34013, Note_off_c, 8, 80, 127
2, 34013, Note_off_c, 12, 59, 127
2, 34016, Note_on_c, 0, 60, 127
2, 34016, Note_on_c, 10, 81, 127
2, 34157, Note_off_c, 10, 81, 127
2, 34157, Note_off_c, 0, 60, 127
2, 34160, Note_on_c, 10, 57, 127
2, 34160, Note_on_c, 0, 72, 127
2, 34301, Note_off_c, 0, 72, 127
2, 34301, Note_off_c, 10, 57, 127
2, 34304, Note_on_c, 12, 59, 127
2, 34304, Note_on_c, 2, 74, 127
2, 34448, Note_on_c, 5, 77, 127
2, 34564, Note_off_c, 2, 74, 127
2, 34589, Note_off_c, 12, 59, 127
2, 34592, Note_on_c, 10, 57, 127
2, 34592, Note_on_c, 0, 72, 127
2, 34598, Note_off_c, 5, 77, 127
2, 34736, Note_on_c, 5, 77, 127
2, 34817, Note_off_c, 0, 72, 127
2, 34877, Note_off_c, 10, 57, 127
2, 34880, Note_on_c, 8, 56, 127
2, 34880, Note_on_c, 12, 71, 127
2, 34901, Note_off_c, 5, 77, 127
2, 35024, Note_on_c, 5, 77, 127
2, 35090, Note_off_c, 12, 71, 127
2, 35165, Note_off_c, 8, 56, 127
2, 35168, Note_on_c, 10, 57, 127
2, 35168, Note_on_c, 0, 72, 127
2, 35204, Note_off_c, 5, 77, 127
2, 35312, Note_on_c, 5, 77, 127
2, 35363, Note_off_c, 0, 72, 127
2, 35453, Note_off_c, 10, 57, 127
2, 35456, Note_on_c, 12, 59, 127
2, 35456, Note_on_c, 12, 71, 127
2, 35507, Note_off_c, 5, 77, 127
2, 35600, Note_on_c, 5, 77, 127
2, 35636, Note_off_c, 12, 71, 127
2, 35741, Note_off_c, 12, 59, 127
2, 35744, Note_on_c, 0, 60, 127
2, 35744, Note_on_c, 10, 69, 127
2, 35810, Note_off_c, 5, 77, 127
2, 35888, Note_on_c, 5, 77, 127
2, 35909, Note_off_c, 10, 69, 127
2, 36029, Note_off_c, 0, 60, 127
2, 36032, Note_on_c, 2, 62, 127
2, 36032, Note_on_c, 8, 68, 127
2, 36113, Note_off_c, 5, 77, 127
2, 36176, Note_on_c, 12, 71, 127
2, 36292, Note_off_c, 8, 68, 127
2, 36317, Note_off_c, 12, 71, 127
2, 36317, Note_off_c, 2, 62, 127
2, 36320, Note_on_c, 2, 50, 127
2, 36320, Note_on_c, 4, 76, 127
2, 36461, Note_off_c, 4, 76, 127
2, 36464, Note_on_c, 4, 64, 127
2, 36605, Note_off_c, 4, 64, 127
2, 36605, Note_off_c, 2, 50, 127
2, 36608, Note_on_c, 0, 48, 127
2, 36608, Note_on_c, 10, 69, 127
2, 36752, Note_on_c, 0, 72, 127
2, 36848, Note_off_c, 10, 69, 127
2, 36893, Note_off_c, 0, 72, 127
2, 36893, Note_off_c, 0, 48, 127
2, 36896, Note_on_c, 0, 60, 127
2, 36896, Note_on_c, 4, 76, 127
2, 37037, Note_off_c, 4, 76, 127
2, 37040, Note_on_c, 4, 64, 127
2, 37181, Note_off_c, 4, 64, 127
2, 37181, Note_off_c, 0, 60, 127
2, 37184, Note_on_c, 12, 59, 127
2, 37184, Note_on_c, 8, 68, 127
2, 37328, Note_on_c, 12, 71, 127
2, 37404, Note_off_c, 8, 68, 127
2, 37469, Note_off_c, 12, 71, 127
2, 37469, Note_off_c, 12, 59, 127
2, 37472, Note_on_c, 4, 52, 127
2, 37472, Note_on_c, 2, 74, 127
2, 37613, Note_off_c, 2, 74, 127
2, 37616, Note_on_c, 4, 64, 127
2, 37757, Note_off_c, 4, 64, 127
2, 37757, Note_off_c, 4, 52, 127
2, 37760, Note_on_c, 10, 45, 127
2, 37760, Note_on_c, 0, 72, 127
2, 37901, Note_off_c, 0, 72, 127
2, 37904, Note_on_c, 12, 71, 127
2, 38045, Note_off_c, 12, 71, 127
2, 38045, Note_off_c, 10, 45, 127
2, 38048, Note_on_c, 10, 57, 127
2, 38048, Note_on_c, 10, 69, 127
2, 38189, Note_off_c, 10, 69, 127
2, 38192, Note_on_c, 7, 67, 127
2, 38333, Note_off_c, 7, 67, 127
2, 38336, Note_on_c, 5, 65, 127
2, 38477, Note_off_c, 5, 65, 127
2, 38477, Note_off_c, 10, 57, 127
2, 38480, Note_on_c, 7, 55, 127
2, 38480, Note_on_c, 4, 64, 127
2, 38621, Note_off_c, 4, 64, 127
2, 38621, Note_off_c, 7, 55, 127
2, 38624, Note_on_c, 5, 53, 127
2, 38624, Note_on_c, 2, 62, 127
2, 38765, Note_off_c, 2, 62, 127
2, 38765, Note_off_c, 5, 53, 127
2, 38768, Note_on_c, 4, 52, 127
2, 38768, Note_on_c, 4, 64, 127
2, 38909, Note_off_c, 4, 64, 127
2, 38909, Note_off_c, 4, 52, 127
2, 38912, Note_on_c, 2, 50, 127
2, 38912, Note_on_c, 5, 65, 127
2, 39053, Note_off_c, 5, 65, 127
2, 39053, Note_off_c, 2, 50, 127
2, 39056, Note_on_c, 0, 48, 127
2, 39056, Note_on_c, 4, 64, 127
2, 39197, Note_off_c, 4, 64, 127
2, 39197, Note_off_c, 0, 48, 127
2, 39200, Note_on_c, 2, 50, 127
2, 39200, Note_on_c, 5, 65, 127
2, 39341, Note_off_c, 5, 65, 127
2, 39341, Note_off_c, 2, 50, 127
2, 39344, Note_on_c, 2, 38, 127
2, 39344, Note_on_c, 0, 72, 127
2, 39485, Note_off_c, 0, 72, 127
2, 39485, Note_off_c, 2, 38, 127
2, 39488, Note_on_c, 7, 43, 127
2, 39488, Note_on_c, 12, 71, 127
2, 39629, Note_off_c, 12, 71, 127
2, 39632, Note_on_c, 10, 69, 127
2, 39773, Note_off_c, 10, 69, 127
2, 39773, Note_off_c, 7, 43, 127
2, 39776, Note_on_c, 7, 55, 127
2, 39776, Note_on_c, 7, 67, 127
2, 39917, Note_off_c, 7, 67, 127
2, 39920, Note_on_c, 5, 65, 127
2, 40061, Note_off_c, 5, 65, 127
2, 40064, Note_on_c, 4, 64, 127
2, 40205, Note_off_c, 4, 64, 127
2, 40205, Note_off_c, 7, 55, 127
2, 40208, Note_on_c, 5, 53, 127
2, 40208, Note_on_c, 2, 62, 127
2, 40349, Note_off_c, 2, 62, 127
2, 40349, Note_off_c, 5, 53, 127
2, 40352, Note_on_c, 4, 52, 127
2, 40352, Note_on_c, 0, 60, 127
2, 40493, Note_off_c, 0, 60, 127
2, 40493, Note_off_c, 4, 52, 127
2, 40496, Note_on_c, 2, 50, 127
2, 40496, Note_on_c, 2, 62, 127
2, 40637, Note_off_c, 2, 62, 127
2, 40637, Note_off_c, 2, 50, 127
2, 40640, Note_on_c, 0, 48, 127
2, 40640, Note_on_c, 4, 64, 127
2, 40781, Note_off_c, 4, 64, 127
2, 40781, Note_off_c, 0, 48, 127
2, 40784, Note_on_c, 11, 46, 127
2, 40784, Note_on_c, 2, 62, 127
2, 40925, Note_off_c, 2, 62, 127
2, 40925, Note_off_c, 11, 46, 127
2, 40928, Note_on_c, 0, 48, 127
2, 40928, Note_on_c, 4, 64, 127
2, 41069, Note_off_c, 4, 64, 127
2, 41069, Note_off_c, 0, 48, 127
2, 41072, Note_on_c, 0, 36, 127
2, 41072, Note_on_c, 11, 70, 127
2, 41213, Note_off_c, 11, 70, 127
2, 41213, Note_off_c, 0, 36, 127
2, 41216, Note_on_c, 5, 41, 127
2, 41216, Note_on_c, 10, 69, 127
2, 41357, Note_off_c, 10, 69, 127
2, 41360, Note_on_c, 7, 67, 127
2, 41501, Note_off_c, 7, 67, 127
2, 41501, Note_off_c, 5, 41, 127
2, 41504, Note_on_c, 10, 45, 127
2, 41504, Note_on_c, 5, 65, 127
2, 41645, Note_off_c, 5, 65, 127
2, 41648, Note_on_c, 4, 64, 127
2, 41789, Note_off_c, 4, 64, 127
2, 41789, Note_off_c, 10, 45, 127
2, 41792, Note_on_c, 2, 38, 127
2, 41792, Note_on_c, 5, 65, 127
2, 41933, Note_off_c, 5, 65, 127
2, 41936, Note_on_c, 4, 64, 127
2, 42077, Note_off_c, 4, 64, 127
2, 42077, Note_off_c, 2, 38, 127
2, 42080, Note_on_c, 2, 50, 127
2, 42080, Note_on_c, 5, 65, 127
2, 42221, Note_off_c, 5, 65, 127
2, 42221, Note_off_c, 2, 50, 127
2, 42224, Note_on_c, 0, 48, 127
2, 42224, Note_on_c, 10, 69, 127
2, 42365, Note_off_c, 10, 69, 127
2, 42365, Note_off_c, 0, 48, 127
2, 42368, Note_on_c, 12, 47, 127
2, 42368, Note_on_c, 8, 68, 127
2, 42509, Note_off_c, 8, 68, 127
2, 42509, Note_off_c, 12, 47, 127
2, 42512, Note_on_c, 8, 44, 127
2, 42512, Note_on_c, 12, 71, 127
2, 42653, Note_off_c, 12, 71, 127
2, 42653, Note_off_c, 8, 44, 127
2, 42656, Note_on_c, 10, 45, 127
2, 42656, Note_on_c, 10, 69, 127
2, 42797, Note_off_c, 10, 69, 127
2, 42797, Note_off_c, 10, 45, 127
2, 42800, Note_on_c, 6, 42, 127
2, 42800, Note_on_c, 0, 72, 127
2, 42941, Note_off_c, 0, 72, 127
2, 42941, Note_off_c, 6, 42, 127
2, 42944, Note_on_c, 8, 44, 127
2, 42944, Note_on_c, 12, 71, 127
2, 43085, Note_off_c, 12, 71, 127
2, 43088, Note_on_c, 0, 72, 127
2, 43229, Note_off_c, 0, 72, 127
2, 43232, Note_on_c, 2, 74, 127
2, 43373, Note_off_c, 2, 74, 127
2, 43376, Note_on_c, 12, 71, 127
2, 43517, Note_off_c, 12, 71, 127
2, 43520, Note_on_c, 8, 68, 127
2, 43661, Note_off_c, 8, 68, 127
2, 43664, Note_off_c, 8, 44, 127
2, 43664, Note_on_c, 4, 64, 127
2, 43805, Note_off_c, 4, 64, 127
2, 43808, Note_on_c, 12, 47, 127
2, 43808, Note_on_c, 5, 65, 127
2, 43949, Note_off_c, 5, 65, 127
2, 43952, Note_on_c, 2, 62, 127
2, 44093, Note_off_c, 2, 62, 127
2, 44093, Note_off_c, 12, 47, 127
2, 44096, Note_on_c, 8, 44, 127
2, 44096, Note_on_c, 4, 64, 127
2, 44237, Note_off_c, 4, 64, 127
2, 44240, Note_on_c, 0, 60, 127
2, 44381, Note_off_c, 0, 60, 127
2, 44381, Note_off_c, 8, 44, 127
2, 44384, Note_on_c, 4, 40, 127
2, 44384, Note_on_c, 2, 62, 127
2, 44525, Note_off_c, 2, 62, 127
2, 44528, Note_on_c, 12, 59, 127
2, 44669, Note_off_c, 12, 59, 127
2, 44669, Note_off_c, 4, 40, 127
2, 44672, Note_on_c, 10, 45, 127
2, 44672, Note_on_c, 0, 60, 127
2, 44813, Note_off_c, 0, 60, 127
2, 44816, Note_on_c, 4, 64, 127
2, 44957, Note_off_c, 4, 64, 127
2, 44960, Note_on_c, 10, 69, 127
2, 45101, Note_off_c, 10, 69, 127
2, 45104, Note_on_c, 8, 68, 127
2, 45245, Note_off_c, 8, 68, 127
2, 45248, Note_on_c, 10, 69, 127
2, 45389, Note_off_c, 10, 69, 127
2, 45392, Note_off_c, 10, 45, 127
2, 45392, Note_on_c, 2, 62, 127
2, 45533, Note_off_c, 2, 62, 127
2, 45536, Note_on_c, 0, 48, 127
2, 45536, Note_on_c, 4, 64, 127
2, 45677, Note_off_c, 4, 64, 127
2, 45680, Note_on_c, 0, 60, 127
2, 45821, Note_off_c, 0, 60, 127
2, 45821, Note_off_c, 0, 48, 127
2, 45824, Note_on_c, 12, 47, 127
2, 45824, Note_on_c, 2, 62, 127
2, 45965, Note_off_c, 2, 62, 127
2, 45968, Note_on_c, 12, 59, 127
2, 46109, Note_off_c, 12, 59, 127
2, 46109, Note_off_c, 12, 47, 127
2, 46112, Note_on_c, 10, 45, 127
2, 46112, Note_on_c, 0, 60, 127
2, 46253, Note_off_c, 0, 60, 127
2, 46256, Note_on_c, 10, 57, 127
2, 46397, Note_off_c, 10, 57, 127
2, 46397, Note_off_c, 10, 45, 127
2, 46400, Note_on_c, 4, 52, 127
2, 46400, Note_on_c, 8, 56, 127
2, 46541, Note_off_c, 8, 56, 127
2, 46544, Note_on_c, 4, 64, 127
2, 46685, Note_off_c, 4, 64, 127
2, 46688, Note_on_c, 12, 71, 127
2, 46829, Note_off_c, 12, 71, 127
2, 46832, Note_on_c, 10, 69, 127
2, 46973, Note_off_c, 10, 69, 127
2, 46976, Note_on_c, 12, 71, 127
2, 47117, Note_off_c, 12, 71, 127
2, 47120, Note_on_c, 4, 64, 127
2, 47240, Note_off_c, 4, 52, 127
2, 47261, Note_off_c, 4, 64, 127
2, 47264, Note_on_c, 4, 52, 127
2, 47264, Note_on_c, 5, 65, 127
2, 47405, Note_off_c, 5, 65, 127
2, 47408, Note_on_c, 2, 62, 127
2, 47549, Note_off_c, 2, 62, 127
2, 47549, Note_off_c, 4, 52, 127
2, 47552, Note_on_c, 6, 54, 127
2, 47552, Note_on_c, 4, 64, 127
2, 47693, Note_off_c, 4, 64, 127
2, 47696, Note_on_c, 0, 60, 127
2, 47837, Note_off_c, 0, 60, 127
2, 47837, Note_off_c, 6, 54, 127
2, 47840, Note_on_c, 8, 56, 127
2, 47840, Note_on_c, 2, 62, 127
2, 47981, Note_off_c, 2, 62, 127
2, 47984, Note_on_c, 12, 59, 127
2, 48125, Note_off_c, 12, 59, 127
2, 48125, Note_off_c, 8, 56, 127
2, 48128, Note_on_c, 10, 57, 127
2, 48128, Note_on_c, 0, 60, 127
2, 48269, Note_off_c, 0, 60, 127
2, 48272, Note_on_c, 2, 62, 127
2, 48413, Note_off_c, 2, 62, 127
2, 48416, Note_on_c, 4, 64, 127
2, 48557, Note_off_c, 4, 64, 127
2, 48557, Note_off_c, 10, 57, 127
2, 48560, Note_on_c, 8, 56, 127
2, 48560, Note_on_c, 12, 59, 127
2, 48701, Note_off_c, 12, 59, 127
2, 48701, Note_off_c, 8, 56, 127
2, 48704, Note_on_c, 10, 57, 127
2, 48704, Note_on_c, 0, 60, 127
2, 48845, Note_off_c, 10, 57, 127
2, 48848, Note_on_c, 4, 52, 127
2, 48989, Note_off_c, 4, 52, 127
2, 48989, Note_off_c, 0, 60, 127
2, 48992, Note_on_c, 5, 53, 127
2, 48992, Note_on_c, 2, 62, 127
2, 49133, Note_off_c, 5, 53, 127
2, 49136, Note_on_c, 2, 50, 127
2, 49277, Note_off_c, 2, 50, 127
2, 49277, Note_off_c, 2, 62, 127
2, 49280, Note_on_c, 4, 52, 127
2, 49280, Note_on_c, 0, 60, 127
2, 49421, Note_off_c, 4, 52, 127
2, 49424, Note_on_c, 0, 48, 127
2, 49565, Note_off_c, 0, 48, 127
2, 49565, Note_off_c, 0, 60, 127
2, 49568, Note_on_c, 2, 50, 127
2, 49568, Note_on_c, 12, 59, 127
2, 49709, Note_off_c, 2, 50, 127
2, 49712, Note_on_c, 12, 47, 127
2, 49853, Note_off_c, 12, 47, 127
2, 49853, Note_off_c, 12, 59, 127
2, 49856, Note_on_c, 0, 48, 127
2, 49856, Note_on_c, 10, 57, 127
2, 49997, Note_off_c, 10, 57, 127
2, 49997, Note_off_c, 0, 48, 127
2, 50000, Note_on_c, 2, 50, 127
2, 50000, Note_on_c, 12, 59, 127
2, 50141, Note_off_c, 12, 59, 127
2, 50141, Note_off_c, 2, 50, 127
2, 50144, Note_on_c, 4, 52, 127
2, 50144, Note_on_c, 0, 60, 127
2, 50285, Note_off_c, 0, 60, 127
2, 50285, Note_off_c, 4, 52, 127
2, 50288, Note_on_c, 12, 47, 127
2, 50288, Note_on_c, 8, 56, 127
2, 50429, Note_off_c, 8, 56, 127
2, 50429, Note_off_c, 12, 47, 127
2, 50432, Note_on_c, 0, 48, 127
2, 50432, Note_on_c, 10, 57, 127
2, 50573, Note_off_c, 10, 57, 127
2, 50576, Note_on_c, 4, 52, 127
2, 50717, Note_off_c, 4, 52, 127
2, 50717, Note_off_c, 0, 48, 127
2, 50720, Note_on_c, 2, 50, 127
2, 50720, Note_on_c, 5, 53, 127
2, 50864, Note_on_c, 12, 59, 127
2, 50930, Note_off_c, 5, 53, 127
2, 51005, Note_off_c, 2, 50, 127
2, 51008, Note_on_c, 0, 48, 127
2, 51008, Note_on_c, 4, 52, 127
2, 51014, Note_off_c, 12, 59, 127
2, 51152, Note_on_c, 10, 57, 127
2, 51218, Note_off_c, 4, 52, 127
2, 51293, Note_off_c, 0, 48, 127
2, 51296, Note_on_c, 12, 47, 127
2, 51296, Note_on_c, 2, 50, 127
2, 51312, Note_off_c, 10, 57, 127
2, 51440, Note_on_c, 8, 56, 127
2, 51506, Note_off_c, 2, 50, 127
2, 51581, Note_off_c, 8, 56, 127
2, 51581, Note_off_c, 12, 47, 127
2, 51584, Note_on_c, 10, 45, 127
2, 51584, Note_on_c, 0, 48, 127
2, 51728, Note_on_c, 4, 52, 127
2, 51869, Note_off_c, 4, 52, 127
2, 51869, Note_off_c, 0, 48, 127
2, 51872, Note_on_c, 10, 57, 127
2, 52013, Note_off_c, 10, 45, 127
2, 52016, Note_on_c, 8, 44, 127
2, 52016, Note_on_c, 12, 47, 127
2, 52157, Note_off_c, 12, 47, 127
2, 52157, Note_off_c, 8, 44, 127
2, 52160, Note_on_c, 10, 45, 127
2, 52160, Note_on_c, 0, 48, 127
2, 52292, Note_off_c, 10, 57, 127
2, 52301, Note_off_c, 10, 45, 127
2, 52304, Note_on_c, 4, 40, 127
2, 52445, Note_off_c, 4, 40, 127
2, 52445, Note_off_c, 0, 48, 127
2, 52448, Note_on_c, 12, 47, 127
2, 52448, Note_on_c, 8, 56, 127
2, 52448, Note_on_c, 2, 50, 127
2, 52589, Note_off_c, 12, 47, 127
2, 52592, Note_on_c, 4, 40, 127
2, 52710, Note_off_c, 2, 50, 127
2, 52710, Note_off_c, 8, 56, 127
2, 52733, Note_off_c, 4, 40, 127
2, 52736, Note_on_c, 0, 48, 127
2, 52736, Note_on_c, 4, 52, 127
2, 52736, Note_on_c, 10, 57, 127
2, 52877, Note_off_c, 10, 57, 127
2, 52877, Note_off_c, 0, 48, 127
2, 52880, Note_on_c, 4, 40, 127
2, 52880, Note_on_c, 0, 60, 127
2, 52946, Note_off_c, 4, 52, 127
2, 53021, Note_off_c, 0, 60, 127
2, 53021, Note_off_c, 4, 40, 127
2, 53024, Note_on_c, 2, 50, 127
2, 53024, Note_on_c, 12, 59, 127
2, 53024, Note_on_c, 5, 53, 127
2, 53165, Note_off_c, 12, 59, 127
2, 53165, Note_off_c, 2, 50, 127
2, 53168, Note_on_c, 4, 40, 127
2, 53168, Note_on_c, 2, 62, 127
2, 53234, Note_off_c, 5, 53, 127
2, 53309, Note_off_c, 2, 62, 127
2, 53309, Note_off_c, 4, 40, 127
2, 53312, Note_on_c, 4, 52, 127
2, 53312, Note_on_c, 8, 56, 127
2, 53453, Note_off_c, 8, 56, 127
2, 53456, Note_on_c, 12, 59, 127
2, 53597, Note_off_c, 12, 59, 127
2, 53600, Note_on_c, 4, 40, 127
2, 53600, Note_on_c, 2, 62, 127
2, 53741, Note_off_c, 2, 62, 127
2, 53744, Note_on_c, 5, 65, 127
2, 53882, Note_off_c, 4, 52, 127
2, 53885, Note_off_c, 5, 65, 127
2, 53888, Note_on_c, 2, 62, 127
2, 54029, Note_off_c, 2, 62, 127
2, 54032, Note_on_c, 12, 59, 127
2, 54170, Note_off_c, 4, 40, 127
2, 54173, Note_off_c, 12, 59, 127
2, 54176, Note_on_c, 8, 56, 127
2, 54317, Note_off_c, 8, 56, 127
2, 54320, Note_on_c, 12, 59, 127
2, 54462, Note_off_c, 12, 59, 127
2, 54464, Note_on_c, 4, 52, 127
2, 54608, Note_on_c, 2, 62, 127
2, 54749, Note_off_c, 2, 62, 127
2, 54749, Note_off_c, 4, 52, 127
2, 54752, Note_on_c, 0, 60, 127
2, 54893, Note_off_c, 0, 60, 127
2, 54896, Note_on_c, 12, 59, 127
2, 55037, Note_off_c, 12, 59, 127
2, 55040, Note_on_c, 10, 57, 127
2, 55040, Note_on_c, 0, 60, 127
2, 55184, Note_on_c, 4, 64, 127
2, 55325, Note_off_c, 4, 64, 127
2, 55325, Note_off_c, 0, 60, 127
2, 55328, Note_on_c, 10, 69, 127
2, 55469, Note_off_c, 10, 57, 127
2, 55472, Note_on_c, 8, 56, 127
2, 55472, Note_on_c, 12, 59, 127
2, 55613, Note_off_c, 12, 59, 127
2, 55613, Note_off_c, 8, 56, 127
2, 55616, Note_on_c, 10, 57, 127
2, 55616, Note_on_c, 0, 60, 127
2, 55748, Note_off_c, 10, 69, 127
2, 55757, Note_off_c, 10, 57, 127
2, 55760, Note_on_c, 4, 52, 127
2, 55901, Note_off_c, 4, 52, 127
2, 55901, Note_off_c, 0, 60, 127
2, 55904, Note_on_c, 12, 59, 127
2, 55904, Note_on_c, 2, 62, 127
2, 55904, Note_on_c, 8, 68, 127
2, 56045, Note_off_c, 12, 59, 127
2, 56048, Note_on_c, 4, 52, 127
2, 56189, Note_off_c, 4, 52, 127
2, 56189, Note_off_c, 8, 68, 127
2, 56189, Note_off_c, 2, 62, 127
2, 56192, Note_on_c, 0, 60, 127
2, 56192, Note_on_c, 4, 64, 127
2, 56192, Note_on_c, 10, 69, 127
2, 56333, Note_off_c, 10, 69, 127
2, 56333, Note_off_c, 0, 60, 127
2, 56336, Note_on_c, 4, 52, 127
2, 56336, Note_on_c, 0, 72, 127
2, 56477, Note_off_c, 0, 72, 127
2, 56477, Note_off_c, 4, 52, 127
2, 56477, Note_off_c, 4, 64, 127
2, 56480, Note_on_c, 2, 62, 127
2, 56480, Note_on_c, 12, 71, 127
2, 56480, Note_on_c, 5, 65, 127
2, 56621, Note_off_c, 12, 71, 127
2, 56621, Note_off_c, 2, 62, 127
2, 56624, Note_on_c, 4, 52, 127
2, 56624, Note_on_c, 2, 74, 127
2, 56765, Note_off_c, 2, 74, 127
2, 56765, Note_off_c, 4, 52, 127
2, 56765, Note_off_c, 5, 65, 127
2, 56768, Note_on_c, 4, 64, 127
2, 56768, Note_on_c, 8, 68, 127
2, 56912, Note_on_c, 12, 71, 127
2, 57056, Note_on_c, 4, 52, 127
2, 57056, Note_on_c, 2, 74, 127
2, 57197, Note_off_c, 2, 74, 127
2, 57200, Note_on_c, 5, 77, 127
2, 57332, Note_off_c, 12, 71, 127
2, 57341, Note_off_c, 5, 77, 127
2, 57344, Note_on_c, 2, 74, 127
2, 57485, Note_off_c, 2, 74, 127
2, 57488, Note_off_c, 8, 68, 127
2, 57488, Note_on_c, 12, 71, 127
2, 57626, Note_off_c, 4, 52, 127
2, 57629, Note_off_c, 12, 71, 127
2, 57632, Note_on_c, 8, 68, 127
2, 57774, Note_off_c, 8, 68, 127
2, 57776, Note_on_c, 12, 71, 127
2, 57917, Note_off_c, 4, 64, 127
2, 57920, Note_on_c, 4, 64, 127
2, 58061, Note_off_c, 12, 71, 127
2, 58064, Note_on_c, 2, 74, 127
2, 58205, Note_off_c, 2, 74, 127
2, 58208, Note_on_c, 0, 72, 127
2, 58349, Note_off_c, 0, 72, 127
2, 58352, Note_on_c, 12, 71, 127
2, 58490, Note_off_c, 4, 64, 127
2, 58493, Note_off_c, 12, 71, 127
2, 58496, Note_on_c, 10, 69, 127
2, 58496, Note_on_c, 0, 72, 127
2, 58640, Note_on_c, 4, 76, 127
2, 58781, Note_off_c, 4, 76, 127
2, 58784, Note_on_c, 10, 81, 127
2, 58916, Note_off_c, 0, 72, 127
2, 58925, Note_off_c, 10, 69, 127
2, 58928, Note_on_c, 8, 68, 127
2, 58928, Note_on_c, 12, 71, 127
2, 59069, Note_off_c, 12, 71, 127
2, 59069, Note_off_c, 8, 68, 127
2, 59072, Note_on_c, 10, 69, 127
2, 59072, Note_on_c, 0, 72, 127
2, 59216, Note_on_c, 4, 64, 127
2, 59342, Note_off_c, 10, 69, 127
2, 59354, Note_off_c, 10, 81, 127
2, 59357, Note_off_c, 0, 72, 127
2, 59360, Note_on_c, 12, 71, 127
2, 59360, Note_on_c, 8, 80, 127
2, 59360, Note_on_c, 2, 74, 127
2, 59501, Note_off_c, 4, 64, 127
2, 59504, Note_on_c, 4, 64, 127
2, 59630, Note_off_c, 12, 71, 127
2, 59645, Note_off_c, 2, 74, 127
2, 59645, Note_off_c, 8, 80, 127
2, 59648, Note_on_c, 0, 72, 127
2, 59648, Note_on_c, 4, 76, 127
2, 59648, Note_on_c, 10, 81, 127
2, 59789, Note_off_c, 10, 81, 127
2, 59789, Note_off_c, 4, 64, 127
2, 59792, Note_on_c, 4, 64, 127
2, 59792, Note_on_c, 0, 84, 127
2, 59918, Note_off_c, 0, 72, 127
2, 59933, Note_off_c, 0, 84, 127
2, 59933, Note_off_c, 4, 76, 127
2, 59936, Note_on_c, 2, 74, 127
2, 59936, Note_on_c, 5, 77, 127
2, 59936, Note_on_c, 12, 83, 127
2, 60077, Note_off_c, 12, 83, 127
2, 60077, Note_off_c, 4, 64, 127
2, 60080, Note_on_c, 4, 64, 127
2, 60080, Note_on_c, 10, 81, 127
2, 60206, Note_off_c, 2, 74, 127
2, 60221, Note_off_c, 10, 81, 127
2, 60221, Note_off_c, 5, 77, 127
2, 60224, Note_on_c, 4, 76, 127
2, 60224, Note_on_c, 8, 80, 127
2, 60365, Note_off_c, 8, 80, 127
2, 60368, Note_on_c, 6, 78, 127
2, 60500, Note_off_c, 4, 64, 127
2, 60509, Note_off_c, 6, 78, 127
2, 60512, Note_on_c, 4, 64, 127
2, 60512, Note_on_c, 8, 80, 127
2, 60653, Note_off_c, 8, 80, 127
2, 60656, Note_on_c, 12, 83, 127
2, 60794, Note_off_c, 4, 76, 127
2, 60797, Note_off_c, 12, 83, 127
2, 60800, Note_on_c, 4, 76, 127
2, 60800, Note_on_c, 10, 81, 127
2, 60941, Note_off_c, 10, 81, 127
2, 60944, Note_on_c, 8, 80, 127
2, 61082, Note_off_c, 4, 64, 127
2, 61085, Note_off_c, 8, 80, 127
2, 61088, Note_on_c, 4, 64, 127
2, 61088, Note_on_c, 10, 81, 127
2, 61229, Note_off_c, 10, 81, 127
2, 61232, Note_on_c, 0, 84, 127
2, 61370, Note_off_c, 4, 76, 127
2, 61373, Note_off_c, 0, 84, 127
2, 61376, Note_on_c, 2, 74, 127
2, 61376, Note_on_c, 8, 80, 127
2, 61517, Note_off_c, 8, 80, 127
2, 61520, Note_on_c, 6, 78, 127
2, 61658, Note_off_c, 4, 64, 127
2, 61661, Note_off_c, 6, 78, 127
2, 61664, Note_on_c, 4, 64, 127
2, 61664, Note_on_c, 8, 80, 127
2, 61805, Note_off_c, 8, 80, 127
2, 61808, Note_on_c, 12, 83, 127
2, 61916, Note_off_c, 2, 74, 127
2, 61949, Note_off_c, 12, 83, 127
2, 61952, Note_on_c, 0, 72, 127
2, 61952, Note_on_c, 6, 78, 127
2, 62093, Note_off_c, 6, 78, 127
2, 62096, Note_on_c, 4, 76, 127
2, 62234, Note_off_c, 4, 64, 127
2, 62237, Note_off_c, 4, 76, 127
2, 62240, Note_on_c, 4, 64, 127
2, 62240, Note_on_c, 6, 78, 127
2, 62381, Note_off_c, 6, 78, 127
2, 62384, Note_on_c, 10, 81, 127
2, 62462, Note_off_c, 0, 72, 127
2, 62525, Note_off_c, 10, 81, 127
2, 62528, Note_on_c, 2, 74, 127
2, 62528, Note_on_c, 5, 77, 127
2, 62669, Note_off_c, 5, 77, 127
2, 62672, Note_on_c, 4, 76, 127
2, 62810, Note_off_c, 4, 64, 127
2, 62813, Note_off_c, 4, 76, 127
2, 62816, Note_on_c, 4, 64, 127
2, 62816, Note_on_c, 5, 77, 127
2, 62957, Note_off_c, 5, 77, 127
2, 62960, Note_on_c, 12, 83, 127
2, 63008, Note_off_c, 2, 74, 127
2, 63101, Note_off_c, 12, 83, 127
2, 63104, Note_on_c, 0, 72, 127
2, 63104, Note_on_c, 4, 76, 127
2, 63245, Note_off_c, 4, 76, 127
2, 63248, Note_on_c, 2, 74, 127
2, 63386, Note_off_c, 4, 64, 127
2, 63389, Note_off_c, 2, 74, 127
2, 63392, Note_on_c, 4, 64, 127
2, 63392, Note_on_c, 4, 76, 127
2, 63533, Note_off_c, 4, 76, 127
2, 63536, Note_on_c, 10, 81, 127
2, 63554, Note_off_c, 0, 72, 127
2, 63677, Note_off_c, 10, 81, 127
2, 63680, Note_on_c, 12, 71, 127
2, 63680, Note_on_c, 2, 74, 127
2, 63821, Note_off_c, 2, 74, 127
2, 63824, Note_on_c, 0, 72, 127
2, 63962, Note_off_c, 4, 64, 127
2, 63965, Note_off_c, 0, 72, 127
2, 63968, Note_on_c, 4, 64, 127
2, 63968, Note_on_c, 2, 74, 127
2, 64100, Note_off_c, 12, 71, 127
2, 64109, Note_off_c, 2, 74, 127
2, 64112, Note_on_c, 8, 80, 127
2, 64253, Note_off_c, 8, 80, 127
2, 64256, Note_on_c, 0, 72, 127
2, 64256, Note_on_c, 4, 76, 127
2, 64397, Note_off_c, 4, 76, 127
2, 64400, Note_on_c, 2, 74, 127
2, 64538, Note_off_c, 4, 64, 127
2, 64541, Note_off_c, 2, 74, 127
2, 64544, Note_on_c, 4, 64, 127
2, 64544, Note_on_c, 4, 76, 127
2, 64646, Note_off_c, 0, 72, 127
2, 64688, Note_on_c, 10, 81, 127
2, 64709, Note_off_c, 4, 76, 127
2, 64829, Note_off_c, 10, 81, 127
2, 64832, Note_on_c, 12, 71, 127
2, 64832, Note_on_c, 2, 74, 127
2, 64973, Note_off_c, 2, 74, 127
2, 64976, Note_on_c, 0, 72, 127
2, 65114, Note_off_c, 4, 64, 127
2, 65117, Note_off_c, 0, 72, 127
2, 65120, Note_on_c, 4, 64, 127
2, 65120, Note_on_c, 2, 74, 127
2, 65192, Note_off_c, 12, 71, 127
2, 65264, Note_on_c, 8, 80, 127
2, 65285, Note_off_c, 2, 74, 127
2, 65405, Note_off_c, 8, 80, 127
2, 65408, Note_on_c, 10, 69, 127
2, 65408, Note_on_c, 0, 72, 127
2, 65549, Note_off_c, 0, 72, 127
2, 65552, Note_on_c, 12, 71, 127
2, 65690, Note_off_c, 4, 64, 127
2, 65693, Note_off_c, 12, 71, 127
2, 65696, Note_on_c, 4, 64, 127
2, 65696, Note_on_c, 0, 72, 127
2, 65738, Note_off_c, 10, 69, 127
2, 65840, Note_on_c, 6, 78, 127
2, 65861, Note_off_c, 0, 72, 127
2, 65981, Note_off_c, 6, 78, 127
2, 65984, Note_on_c, 12, 71, 127
2, 65984, Note_on_c, 2, 74, 127
2, 66125, Note_off_c, 2, 74, 127
2, 66128, Note_on_c, 0, 72, 127
2, 66266, Note_off_c, 4, 64, 127
2, 66269, Note_off_c, 0, 72, 127
2, 66272, Note_on_c, 4, 64, 127
2, 66272, Note_on_c, 2, 74, 127
2, 66284, Note_off_c, 12, 71, 127
2, 66416, Note_on_c, 8, 80, 127
2, 66452, Note_off_c, 2, 74, 127
2, 66557, Note_off_c, 8, 80, 127
2, 66560, Note_on_c, 10, 69, 127
2, 66560, Note_on_c, 0, 72, 127
2, 66701, Note_off_c, 0, 72, 127
2, 66704, Note_on_c, 12, 71, 127
2, 66842, Note_off_c, 4, 64, 127
2, 66845, Note_off_c, 12, 71, 127
2, 66845, Note_off_c, 10, 69, 127
2, 66848, Note_on_c, 4, 64, 127
2, 66848, Note_on_c, 0, 72, 127
2, 66992, Note_on_c, 6, 78, 127
2, 67028, Note_off_c, 0, 72, 127
2, 67133, Note_off_c, 6, 78, 127
2, 67136, Note_on_c, 8, 68, 127
2, 67136, Note_on_c, 12, 71, 127
2, 67193, Note_off_c, 4, 64, 127
2, 67277, Note_off_c, 12, 71, 127
2, 67280, Note_on_c, 10, 69, 127
2, 67421, Note_off_c, 10, 69, 127
2, 67421, Note_off_c, 8, 68, 127
2, 67424, Note_on_c, 4, 64, 127
2, 67424, Note_on_c, 12, 71, 127
2, 67568, Note_on_c, 4, 76, 127
2, 67604, Note_off_c, 12, 71, 127
2, 67709, Note_off_c, 4, 76, 127
2, 67712, Note_on_c, 2, 74, 127
2, 67853, Note_off_c, 2, 74, 127
2, 67856, Note_on_c, 12, 71, 127
2, 67997, Note_off_c, 12, 71, 127
2, 67997, Note_off_c, 4, 64, 127
2, 68000, Note_on_c, 4, 64, 127
2, 68000, Note_on_c, 0, 72, 127
2, 68141, Note_off_c, 0, 72, 127
2, 68141, Note_off_c, 4, 64, 127
2, 68144, Note_on_c, 0, 60, 127
2, 68144, Note_on_c, 10, 69, 127
2, 68285, Note_off_c, 10, 69, 127
2, 68285, Note_off_c, 0, 60, 127
2, 68288, Note_on_c, 2, 62, 127
2, 68288, Note_on_c, 12, 71, 127
2, 68429, Note_off_c, 12, 71, 127
2, 68429, Note_off_c, 2, 62, 127
2, 68432, Note_on_c, 12, 59, 127
2, 68432, Note_on_c, 8, 68, 127
2, 68573, Note_off_c, 8, 68, 127
2, 68573, Note_off_c, 12, 59, 127
2, 68576, Note_on_c, 0, 60, 127
2, 68576, Note_on_c, 10, 69, 127
2, 68717, Note_off_c, 10, 69, 127
2, 68717, Note_off_c, 0, 60, 127
2, 68720, Note_on_c, 10, 57, 127
2, 68720, Note_on_c, 6, 66, 127
2, 68861, Note_off_c, 6, 66, 127
2, 68861, Note_off_c, 10, 57, 127
2, 68864, Note_on_c, 12, 59, 127
2, 68864, Note_on_c, 8, 68, 127
2, 69005, Note_off_c, 8, 68, 127
2, 69005, Note_off_c, 12, 59, 127
2, 69008, Note_on_c, 10, 57, 127
2, 69008, Note_on_c, 6, 66, 127
2, 69149, Note_off_c, 6, 66, 127
2, 69149, Note_off_c, 10, 57, 127
2, 69152, Note_on_c, 12, 59, 127
2, 69152, Note_on_c, 8, 68, 127
2, 69293, Note_off_c, 12, 59, 127
2, 69296, Note_on_c, 2, 62, 127
2, 69296, Note_on_c, 12, 71, 127
2, 69392, Note_off_c, 8, 68, 127
2, 69437, Note_off_c, 12, 71, 127
2, 69437, Note_off_c, 2, 62, 127
2, 69440, Note_on_c, 8, 56, 127
2, 69440, Note_on_c, 4, 64, 127
2, 69581, Note_off_c, 4, 64, 127
2, 69581, Note_off_c, 8, 56, 127
2, 69584, Note_on_c, 6, 54, 127
2, 69584, Note_on_c, 3, 63, 127
2, 69725, Note_off_c, 3, 63, 127
2, 69725, Note_off_c, 6, 54, 127
2, 69728, Note_on_c, 8, 56, 127
2, 69728, Note_on_c, 4, 64, 127
2, 69869, Note_off_c, 8, 56, 127
2, 69872, Note_on_c, 12, 59, 127
2, 69872, Note_on_c, 8, 68, 127
2, 69968, Note_off_c, 4, 64, 127
2, 70013, Note_off_c, 8, 68, 127
2, 70013, Note_off_c, 12, 59, 127
2, 70016, Note_on_c, 5, 53, 127
2, 70016, Note_on_c, 2, 62, 127
2, 70157, Note_off_c, 2, 62, 127
2, 70157, Note_off_c, 5, 53, 127
2, 70160, Note_on_c, 4, 52, 127
2, 70160, Note_on_c, 0, 60, 127
2, 70301, Note_off_c, 0, 60, 127
2, 70301, Note_off_c, 4, 52, 127
2, 70304, Note_on_c, 5, 53, 127
2, 70304, Note_on_c, 2, 62, 127
2, 70445, Note_off_c, 5, 53, 127
2, 70448, Note_on_c, 10, 57, 127
2, 70448, Note_on_c, 5, 65, 127
2, 70544, Note_off_c, 2, 62, 127
2, 70589, Note_off_c, 5, 65, 127
2, 70589, Note_off_c, 10, 57, 127
2, 70592, Note_on_c, 2, 50, 127
2, 70592, Note_on_c, 12, 59, 127
2, 70733, Note_off_c, 12, 59, 127
2, 70733, Note_off_c, 2, 50, 127
2, 70736, Note_on_c, 0, 48, 127
2, 70736, Note_on_c, 10, 57, 127
2, 70877, Note_off_c, 10, 57, 127
2, 70877, Note_off_c, 0, 48, 127
2, 70880, Note_on_c, 2, 50, 127
2, 70880, Note_on_c, 12, 59, 127
2, 71021, Note_off_c, 2, 50, 127
2, 71024, Note_on_c, 5, 53, 127
2, 71024, Note_on_c, 2, 62, 127
2, 71060, Note_off_c, 12, 59, 127
2, 71165, Note_off_c, 2, 62, 127
2, 71165, Note_off_c, 5, 53, 127
2, 71168, Note_on_c, 12, 47, 127
2, 71168, Note_on_c, 8, 56, 127
2, 71309, Note_off_c, 8, 56, 127
2, 71309, Note_off_c, 12, 47, 127
2, 71312, Note_on_c, 10, 45, 127
2, 71312, Note_on_c, 6, 54, 127
2, 71453, Note_off_c, 6, 54, 127
2, 71453, Note_off_c, 10, 45, 127
2, 71456, Note_on_c, 12, 47, 127
2, 71456, Note_on_c, 8, 56, 127
2, 71597, Note_off_c, 12, 47, 127
2, 71600, Note_on_c, 2, 50, 127
2, 71600, Note_on_c, 12, 59, 127
2, 71636, Note_off_c, 8, 56, 127
2, 71741, Note_off_c, 12, 59, 127
2, 71741, Note_off_c, 2, 50, 127
2, 71744, Note_on_c, 8, 44, 127
2, 71744, Note_on_c, 4, 52, 127
2, 71885, Note_off_c, 8, 44, 127
2, 71888, Note_on_c, 6, 42, 127
2, 72029, Note_off_c, 6, 42, 127
2, 72032, Note_on_c, 8, 44, 127
2, 72173, Note_off_c, 8, 44, 127
2, 72176, Note_on_c, 12, 47, 127
2, 72314, Note_off_c, 4, 52, 127
2, 72317, Note_off_c, 12, 47, 127
2, 72320, Note_on_c, 4, 40, 127
2, 72464, Note_on_c, 2, 50, 127
2, 72605, Note_off_c, 2, 50, 127
2, 72608, Note_on_c, 0, 48, 127
2, 72749, Note_off_c, 0, 48, 127
2, 72752, Note_on_c, 12, 47, 127
2, 72893, Note_off_c, 12, 47, 127
2, 72896, Note_on_c, 5, 53, 127
2, 73040, Note_on_c, 2, 50, 127
2, 73181, Note_off_c, 2, 50, 127
2, 73181, Note_off_c, 5, 53, 127
2, 73184, Note_on_c, 0, 48, 127
2, 73325, Note_off_c, 0, 48, 127
2, 73328, Note_on_c, 12, 47, 127
2, 73469, Note_off_c, 12, 47, 127
2, 73472, Note_on_c, 8, 56, 127
2, 73616, Note_on_c, 2, 50, 127
2, 73757, Note_off_c, 2, 50, 127
2, 73757, Note_off_c, 8, 56, 127
2, 73760, Note_on_c, 0, 48, 127
2, 73901, Note_off_c, 0, 48, 127
2, 73904, Note_on_c, 12, 47, 127
2, 74045, Note_off_c, 12, 47, 127
2, 74045, Note_off_c, 4, 40, 127
2, 74048, Note_on_c, 4, 40, 127
2, 74048, Note_on_c, 12, 59, 127
2, 74192, Note_on_c, 5, 53, 127
2, 74333, Note_off_c, 5, 53, 127
2, 74333, Note_off_c, 12, 59, 127
2, 74336, Note_on_c, 4, 52, 127
2, 74477, Note_off_c, 4, 52, 127
2, 74480, Note_on_c, 2, 50, 127
2, 74621, Note_off_c, 2, 50, 127
2, 74624, Note_on_c, 8, 56, 127
2, 74768, Note_on_c, 5, 53, 127
2, 74909, Note_off_c, 5, 53, 127
2, 74912, Note_on_c, 4, 52, 127
2, 75044, Note_off_c, 8, 56, 127
2, 75053, Note_off_c, 4, 52, 127
2, 75056, Note_on_c, 2, 50, 127
2, 75197, Note_off_c, 2, 50, 127
2, 75200, Note_on_c, 12, 59, 127
2, 75344, Note_on_c, 5, 53, 127
2, 75485, Note_off_c, 5, 53, 127
2, 75488, Note_on_c, 4, 52, 127
2, 75620, Note_off_c, 12, 59, 127
2, 75629, Note_off_c, 4, 52, 127
2, 75632, Note_on_c, 2, 50, 127
2, 75773, Note_off_c, 2, 50, 127
2, 75773, Note_off_c, 4, 40, 127
2, 75776, Note_on_c, 4, 40, 127
2, 75776, Note_on_c, 2, 62, 127
2, 75920, Note_on_c, 8, 56, 127
2, 76061, Note_off_c, 8, 56, 127
2, 76064, Note_on_c, 6, 54, 127
2, 76205, Note_off_c, 6, 54, 127
2, 76208, Note_on_c, 4, 52, 127
2, 76226, Note_off_c, 2, 62, 127
2, 76349, Note_off_c, 4, 52, 127
2, 76352, Note_on_c, 12, 59, 127
2, 76496, Note_on_c, 8, 56, 127
2, 76637, Note_off_c, 8, 56, 127
2, 76640, Note_on_c, 6, 54, 127
2, 76781, Note_off_c, 6, 54, 127
2, 76784, Note_on_c, 4, 52, 127
2, 76847, Note_off_c, 12, 59, 127
2, 76925, Note_off_c, 4, 52, 127
2, 76928, Note_on_c, 2, 62, 127
2, 77072, Note_on_c, 12, 59, 127
2, 77213, Note_off_c, 12, 59, 127
2, 77216, Note_on_c, 10, 57, 127
2, 77357, Note_off_c, 10, 57, 127
2, 77360, Note_on_c, 8, 56, 127
2, 77468, Note_off_c, 2, 62, 127
2, 77501, Note_off_c, 8, 56, 127
2, 77504, Note_on_c, 5, 65, 127
2, 77645, Note_off_c, 5, 65, 127
2, 77648, Note_on_c, 4, 64, 127
2, 77789, Note_off_c, 4, 64, 127
2, 77792, Note_on_c, 2, 62, 127
2, 77931, Note_off_c, 4, 40, 127
2, 77933, Note_off_c, 2, 62, 127
2, 77936, Note_on_c, 0, 60, 127
2, 78077, Note_off_c, 0, 60, 127
2, 78080, Note_on_c, 12, 59, 127
2, 78221, Note_off_c, 12, 59, 127
2, 78224, Note_on_c, 10, 57, 127
2, 78365, Note_off_c, 10, 57, 127
2, 78368, Note_on_c, 8, 56, 127
2, 78509, Note_off_c, 8, 56, 127
2, 78512, Note_on_c, 6, 54, 127
2, 78653, Note_off_c, 6, 54, 127
2, 78656, Note_on_c, 4, 52, 127
2, 78797, Note_off_c, 4, 52, 127
2, 78800, Note_on_c, 2, 50, 127
2, 78941, Note_off_c, 2, 50, 127
2, 78944, Note_on_c, 0, 48, 127
2, 79085, Note_off_c, 0, 48, 127
2, 79088, Note_on_c, 12, 47, 127
2, 79229, Note_off_c, 12, 47, 127
2, 79232, Note_on_c, 10, 45, 127
2, 79520, Note_on_c, 4, 76, 127
2, 79805, Note_off_c, 4, 76, 127
2, 79808, Note_on_c, 10, 69, 127
2, 79952, Note_off_c, 10, 45, 127
2, 80093, Note_off_c, 10, 69, 127
2, 80096, Note_on_c, 0, 60, 127
2, 80096, Note_on_c, 10, 57, 127
2, 80096, Note_on_c, 10, 81, 127
2, 80381, Note_off_c, 10, 81, 127
2, 80381, Note_off_c, 10, 57, 127
2, 80381, Note_off_c, 0, 60, 127
2, 80384, Note_on_c, 12, 59, 127
2, 80384, Note_on_c, 2, 62, 127
2, 80384, Note_on_c, 7, 79, 127
2, 80525, Note_off_c, 7, 79, 127
2, 80528, Note_on_c, 4, 76, 127
2, 80669, Note_off_c, 4, 76, 127
2, 80669, Note_off_c, 2, 62, 127
2, 80669, Note_off_c, 12, 59, 127
2, 80672, Note_on_c, 7, 55, 127
2, 80672, Note_on_c, 12, 59, 127
2, 80672, Note_on_c, 5, 77, 127
2, 80813, Note_off_c, 5, 77, 127
2, 80816, Note_on_c, 2, 74, 127
2, 80957, Note_off_c, 2, 74, 127
2, 80957, Note_off_c, 12, 59, 127
2, 80957, Note_off_c, 7, 55, 127
2, 80960, Note_on_c, 0, 60, 127
2, 80960, Note_on_c, 4, 76, 127
2, 81104, Note_on_c, 12, 71, 127
2, 81240, Note_off_c, 4, 76, 127
2, 81245, Note_off_c, 12, 71, 127
2, 81248, Note_on_c, 0, 48, 127
2, 81248, Note_on_c, 0, 72, 127
2, 81389, Note_off_c, 0, 72, 127
2, 81392, Note_on_c, 8, 68, 127
2, 81530, Note_off_c, 0, 60, 127
2, 81533, Note_off_c, 8, 68, 127
2, 81536, Note_on_c, 10, 69, 127
2, 81668, Note_off_c, 0, 48, 127
2, 81677, Note_off_c, 10, 69, 127
2, 81680, Note_on_c, 0, 72, 127
2, 81821, Note_off_c, 0, 72, 127
2, 81824, Note_on_c, 2, 62, 127
2, 81824, Note_on_c, 10, 69, 127
2, 81824, Note_on_c, 5, 77, 127
2, 81965, Note_off_c, 5, 77, 127
2, 81968, Note_on_c, 2, 74, 127
2, 82109, Note_off_c, 2, 74, 127
2, 82109, Note_off_c, 10, 69, 127
2, 82109, Note_off_c, 2, 62, 127
2, 82112, Note_on_c, 0, 60, 127
2, 82112, Note_on_c, 10, 69, 127
2, 82112, Note_on_c, 4, 76, 127
2, 82253, Note_off_c, 4, 76, 127
2, 82256, Note_on_c, 0, 72, 127
2, 82397, Note_off_c, 0, 72, 127
2, 82397, Note_off_c, 10, 69, 127
2, 82397, Note_off_c, 0, 60, 127
2, 82400, Note_on_c, 12, 59, 127
2, 82400, Note_on_c, 8, 68, 127
2, 82400, Note_on_c, 2, 74, 127
2, 82541, Note_off_c, 2, 74, 127
2, 82544, Note_on_c, 12, 71, 127
2, 82685, Note_off_c, 12, 71, 127
2, 82685, Note_off_c, 8, 68, 127
2, 82685, Note_off_c, 12, 59, 127
2, 82688, Note_on_c, 10, 57, 127
2, 82688, Note_on_c, 10, 69, 127
2, 82688, Note_on_c, 0, 72, 127
2, 82829, Note_off_c, 0, 72, 127
2, 82832, Note_on_c, 12, 71, 127
2, 82973, Note_off_c, 12, 71, 127
2, 82976, Note_on_c, 0, 72, 127
2, 83117, Note_off_c, 0, 72, 127
2, 83120, Note_on_c, 8, 68, 127
2, 83258, Note_off_c, 10, 69, 127
2, 83261, Note_off_c, 8, 68, 127
2, 83264, Note_on_c, 10, 69, 127
2, 83405, Note_off_c, 10, 69, 127
2, 83408, Note_off_c, 10, 57, 127
2, 83408, Note_on_c, 0, 72, 127
2, 83549, Note_off_c, 0, 72, 127
2, 83552, Note_on_c, 10, 69, 127
2, 83552, Note_on_c, 0, 60, 127
2, 83552, Note_on_c, 4, 76, 127
2, 83693, Note_off_c, 4, 76, 127
2, 83696, Note_on_c, 0, 72, 127
2, 83837, Note_off_c, 0, 72, 127
2, 83837, Note_off_c, 0, 60, 127
2, 83837, Note_off_c, 10, 69, 127
2, 83840, Note_on_c, 12, 59, 127
2, 83840, Note_on_c, 8, 68, 127
2, 83840, Note_on_c, 2, 74, 127
2, 83981, Note_off_c, 2, 74, 127
2, 83984, Note_on_c, 12, 71, 127
2, 84125, Note_off_c, 12, 71, 127
2, 84125, Note_off_c, 8, 68, 127
2, 84125, Note_off_c, 12, 59, 127
2, 84128, Note_on_c, 10, 57, 127
2, 84128, Note_on_c, 4, 64, 127
2, 84128, Note_on_c, 0, 72, 127
2, 84269, Note_off_c, 0, 72, 127
2, 84272, Note_on_c, 10, 69, 127
2, 84413, Note_off_c, 10, 69, 127
2, 84413, Note_off_c, 4, 64, 127
2, 84413, Note_off_c, 10, 57, 127
2, 84416, Note_on_c, 2, 62, 127
2, 84416, Note_on_c, 8, 56, 127
2, 84416, Note_on_c, 12, 71, 127
2, 84557, Note_off_c, 12, 71, 127
2, 84560, Note_on_c, 10, 69, 127
2, 84701, Note_off_c, 10, 69, 127
2, 84701, Note_off_c, 8, 56, 127
2, 84704, Note_on_c, 4, 52, 127
2, 84704, Note_on_c, 12, 71, 127
2, 84845, Note_off_c, 12, 71, 127
2, 84848, Note_on_c, 8, 68, 127
2, 84986, Note_off_c, 2, 62, 127
2, 84989, Note_off_c, 8, 68, 127
2, 84989, Note_off_c, 4, 52, 127
2, 84992, Note_on_c, 5, 53, 127
2, 84992, Note_on_c, 0, 60, 127
2, 84992, Note_on_c, 10, 69, 127
2, 85133, Note_off_c, 10, 69, 127
2, 85136, Note_on_c, 8, 68, 127
2, 85277, Note_off_c, 8, 68, 127
2, 85277, Note_off_c, 0, 60, 127
2, 85277, Note_off_c, 5, 53, 127
2, 85280, Note_on_c, 2, 50, 127
2, 85280, Note_on_c, 10, 57, 127
2, 85280, Note_on_c, 12, 59, 127
2, 85280, Note_on_c, 10, 69, 127
2, 85421, Note_off_c, 10, 69, 127
2, 85424, Note_on_c, 5, 77, 127
2, 85565, Note_off_c, 5, 77, 127
2, 85565, Note_off_c, 12, 59, 127
2, 85565, Note_off_c, 2, 50, 127
2, 85568, Note_on_c, 4, 52, 127
2, 85568, Note_on_c, 0, 60, 127
2, 85568, Note_on_c, 4, 76, 127
2, 85709, Note_off_c, 4, 76, 127
2, 85712, Note_on_c, 0, 72, 127
2, 85850, Note_off_c, 10, 57, 127
2, 85853, Note_off_c, 0, 72, 127
2, 85853, Note_off_c, 0, 60, 127
2, 85853, Note_off_c, 4, 52, 127
2, 85856, Note_on_c, 8, 56, 127
2, 85856, Note_on_c, 4, 52, 127
2, 85856, Note_on_c, 12, 59, 127
2, 85856, Note_on_c, 2, 74, 127
2, 85997, Note_off_c, 2, 74, 127
2, 86000, Note_on_c, 12, 71, 127
2, 86141, Note_off_c, 12, 71, 127
2, 86141, Note_off_c, 12, 59, 127
2, 86141, Note_off_c, 4, 52, 127
2, 86141, Note_off_c, 8, 56, 127
2, 86144, Note_on_c, 10, 57, 127
2, 86144, Note_on_c, 0, 72, 127
2, 86285, Note_off_c, 0, 72, 127
2, 86288, Note_on_c, 12, 71, 127
2, 86429, Note_off_c, 12, 71, 127
2, 86432, Note_on_c, 4, 52, 127
2, 86432, Note_on_c, 10, 69, 127
2, 86573, Note_off_c, 10, 69, 127
2, 86576, Note_on_c, 8, 68, 127
2, 86717, Note_off_c, 8, 68, 127
2, 86717, Note_off_c, 4, 52, 127
2, 86720, Note_on_c, 10, 45, 127
2, 86720, Note_on_c, 10, 69, 127
2, 86861, Note_off_c, 10, 69, 127
2, 86864, Note_on_c, 12, 71, 127
2, 87005, Note_off_c, 12, 71, 127
2, 87005, Note_off_c, 10, 45, 127
2, 87006, Note_off_c, 10, 57, 127
2, 87008, Note_on_c, 10, 57, 127
2, 87008, Note_on_c, 0, 72, 127
2, 87149, Note_off_c, 0, 72, 127
2, 87152, Note_on_c, 5, 77, 127
2, 87293, Note_off_c, 5, 77, 127
2, 87293, Note_off_c, 10, 57, 127
2, 87296, Note_on_c, 7, 55, 127
2, 87296, Note_on_c, 4, 76, 127
2, 87437, Note_off_c, 4, 76, 127
2, 87437, Note_off_c, 7, 55, 127
2, 87440, Note_on_c, 4, 52, 127
2, 87440, Note_on_c, 0, 72, 127
2, 87581, Note_off_c, 0, 72, 127
2, 87581, Note_off_c, 4, 52, 127
2, 87584, Note_on_c, 5, 53, 127
2, 87584, Note_on_c, 2, 74, 127
2, 87725, Note_off_c, 2, 74, 127
2, 87725, Note_off_c, 5, 53, 127
2, 87728, Note_on_c, 2, 50, 127
2, 87728, Note_on_c, 12, 71, 127
2, 87869, Note_off_c, 12, 71, 127
2, 87869, Note_off_c, 2, 50, 127
2, 87872, Note_on_c, 4, 52, 127
2, 87872, Note_on_c, 0, 72, 127
2, 88013, Note_off_c, 0, 72, 127
2, 88013, Note_off_c, 4, 52, 127
2, 88016, Note_on_c, 2, 50, 127
2, 88016, Note_on_c, 12, 71, 127
2, 88157, Note_off_c, 12, 71, 127
2, 88157, Note_off_c, 2, 50, 127
2, 88160, Note_on_c, 0, 48, 127
2, 88160, Note_on_c, 10, 69, 127
2, 88301, Note_off_c, 10, 69, 127
2, 88301, Note_off_c, 0, 48, 127
2, 88304, Note_on_c, 4, 52, 127
2, 88304, Note_on_c, 8, 68, 127
2, 88445, Note_off_c, 8, 68, 127
2, 88445, Note_off_c, 4, 52, 127
2, 88448, Note_on_c, 10, 45, 127
2, 88448, Note_on_c, 10, 69, 127
2, 88589, Note_off_c, 10, 69, 127
2, 88589, Note_off_c, 10, 45, 127
2, 88592, Note_on_c, 0, 48, 127
2, 88592, Note_on_c, 12, 71, 127
2, 88733, Note_off_c, 12, 71, 127
2, 88733, Note_off_c, 0, 48, 127
2, 88736, Note_on_c, 5, 53, 127
2, 88736, Note_on_c, 0, 72, 127
2, 88877, Note_off_c, 0, 72, 127
2, 88877, Note_off_c, 5, 53, 127
2, 88880, Note_on_c, 2, 50, 127
2, 88880, Note_on_c, 2, 74, 127
2, 89021, Note_off_c, 2, 74, 127
2, 89021, Note_off_c, 2, 50, 127
2, 89024, Note_on_c, 4, 52, 127
2, 89024, Note_on_c, 0, 72, 127
2, 89165, Note_off_c, 4, 52, 127
2, 89168, Note_on_c, 0, 48, 127
2, 89168, Note_on_c, 10, 69, 127
2, 89234, Note_off_c, 0, 72, 127
2, 89309, Note_off_c, 10, 69, 127
2, 89309, Note_off_c, 0, 48, 127
2, 89312, Note_on_c, 2, 50, 127
2, 89312, Note_on_c, 12, 71, 127
2, 89453, Note_off_c, 2, 50, 127
2, 89456, Note_on_c, 12, 47, 127
2, 89456, Note_on_c, 8, 68, 127
2, 89522, Note_off_c, 12, 71, 127
2, 89597, Note_off_c, 8, 68, 127
2, 89597, Note_off_c, 12, 47, 127
2, 89600, Note_on_c, 0, 48, 127
2, 89600, Note_on_c, 10, 69, 127
2, 89741, Note_off_c, 10, 69, 127
2, 89741, Note_off_c, 0, 48, 127
2, 89744, Note_on_c, 12, 47, 127
2, 89744, Note_on_c, 12, 71, 127
2, 89885, Note_off_c, 12, 71, 127
2, 89885, Note_off_c, 12, 47, 127
2, 89888, Note_on_c, 10, 45, 127
2, 89888, Note_on_c, 0, 72, 127
2, 90029, Note_off_c, 10, 45, 127
2, 90032, Note_on_c, 0, 48, 127
2, 90032, Note_on_c, 10, 69, 127
2, 90098, Note_off_c, 0, 72, 127
2, 90173, Note_off_c, 10, 69, 127
2, 90173, Note_off_c, 0, 48, 127
2, 90176, Note_on_c, 4, 40, 127
2, 90176, Note_on_c, 8, 68, 127
2, 90317, Note_off_c, 8, 68, 127
2, 90317, Note_off_c, 4, 40, 127
2, 90320, Note_on_c, 10, 45, 127
2, 90320, Note_on_c, 10, 69, 127
2, 90461, Note_off_c, 10, 45, 127
2, 90464, Note_on_c, 0, 48, 127
2, 90464, Note_on_c, 0, 72, 127
2, 90530, Note_off_c, 10, 69, 127
2, 90605, Note_off_c, 0, 48, 127
2, 90608, Note_on_c, 10, 45, 127
2, 90608, Note_on_c, 10, 69, 127
2, 90674, Note_off_c, 0, 72, 127
2, 90749, Note_off_c, 10, 69, 127
2, 90749, Note_off_c, 10, 45, 127
2, 90752, Note_on_c, 2, 50, 127
2, 90752, Note_on_c, 12, 71, 127
2, 90893, Note_off_c, 2, 50, 127
2, 90896, Note_on_c, 12, 47, 127
2, 90896, Note_on_c, 8, 68, 127
2, 90962, Note_off_c, 12, 71, 127
2, 91037, Note_off_c, 8, 68, 127
2, 91037, Note_off_c, 12, 47, 127
2, 91040, Note_on_c, 0, 48, 127
2, 91040, Note_on_c, 10, 69, 127
2, 91181, Note_off_c, 0, 48, 127
2, 91184, Note_on_c, 10, 45, 127
2, 91184, Note_on_c, 6, 66, 127
2, 91250, Note_off_c, 10, 69, 127
2, 91325, Note_off_c, 6, 66, 127
2, 91325, Note_off_c, 10, 45, 127
2, 91328, Note_on_c, 12, 47, 127
2, 91328, Note_on_c, 8, 68, 127
2, 91469, Note_off_c, 8, 68, 127
2, 91469, Note_off_c, 12, 47, 127
2, 91472, Note_on_c, 10, 45, 127
2, 91472, Note_on_c, 5, 65, 127
2, 91613, Note_off_c, 5, 65, 127
2, 91613, Note_off_c, 10, 45, 127
2, 91616, Note_on_c, 12, 47, 127
2, 91616, Note_on_c, 4, 64, 127
2, 91757, Note_off_c, 4, 64, 127
2, 91757, Note_off_c, 12, 47, 127
2, 91760, Note_on_c, 8, 44, 127
2, 91760, Note_on_c, 2, 62, 127
2, 91901, Note_off_c, 2, 62, 127
2, 91901, Note_off_c, 8, 44, 127
2, 91904, Note_on_c, 10, 45, 127
2, 91904, Note_on_c, 0, 60, 127
2, 92045, Note_off_c, 0, 60, 127
2, 92048, Note_on_c, 12, 59, 127
2, 92189, Note_off_c, 12, 59, 127
2, 92189, Note_off_c, 10, 45, 127
2, 92192, Note_on_c, 2, 50, 127
2, 92192, Note_on_c, 0, 60, 127
2, 92336, Note_on_c, 10, 69, 127
2, 92477, Note_off_c, 0, 60, 127
2, 92477, Note_off_c, 2, 50, 127
2, 92480, Note_on_c, 4, 52, 127
2, 92480, Note_on_c, 12, 59, 127
2, 92621, Note_off_c, 10, 69, 127
2, 92624, Note_on_c, 10, 69, 127
2, 92765, Note_off_c, 12, 59, 127
2, 92768, Note_on_c, 4, 40, 127
2, 92768, Note_on_c, 12, 59, 127
2, 92900, Note_off_c, 4, 52, 127
2, 92909, Note_off_c, 10, 69, 127
2, 92912, Note_on_c, 8, 68, 127
2, 93053, Note_off_c, 8, 68, 127
2, 93053, Note_off_c, 12, 59, 127
2, 93053, Note_off_c, 4, 40, 127
2, 93056, Note_on_c, 10, 45, 127
2, 93056, Note_on_c, 10, 69, 127
2, 93341, Note_off_c, 10, 69, 127
2, 93344, Note_on_c, 0, 60, 127
2, 93344, Note_on_c, 4, 64, 127
2, 93629, Note_off_c, 4, 64, 127
2, 93629, Note_off_c, 0, 60, 127
2, 93632, Note_on_c, 0, 60, 127
2, 93632, Note_on_c, 4, 64, 127
2, 93773, Note_off_c, 4, 64, 127
2, 93773, Note_off_c, 0, 60, 127
2, 93773, Note_off_c, 10, 45, 127
2, 93776, Note_on_c, 10, 45, 127
2, 93776, Note_on_c, 5, 65, 127
2, 93917, Note_off_c, 5, 65, 127
2, 93917, Note_off_c, 10, 45, 127
2, 93920, Note_on_c, 0, 48, 127
2, 93920, Note_on_c, 4, 64, 127
2, 93920, Note_on_c, 0, 60, 127
2, 94061, Note_off_c, 0, 48, 127
2, 94064, Note_on_c, 4, 52, 127
2, 94205, Note_off_c, 4, 52, 127
2, 94205, Note_off_c, 0, 60, 127
2, 94205, Note_off_c, 4, 64, 127
2, 94208, Note_on_c, 10, 57, 127
2, 94208, Note_on_c, 4, 64, 127
2, 94208, Note_on_c, 0, 60, 127
2, 94349, Note_off_c, 10, 57, 127
2, 94352, Note_on_c, 7, 55, 127
2, 94493, Note_off_c, 7, 55, 127
2, 94493, Note_off_c, 0, 60, 127
2, 94493, Note_off_c, 4, 64, 127
2, 94496, Note_on_c, 5, 53, 127
2, 94496, Note_on_c, 0, 60, 127
2, 94496, Note_on_c, 4, 64, 127
2, 94637, Note_off_c, 5, 53, 127
2, 94640, Note_on_c, 4, 52, 127
2, 94781, Note_off_c, 4, 52, 127
2, 94781, Note_off_c, 4, 64, 127
2, 94781, Note_off_c, 0, 60, 127
2, 94784, Note_on_c, 2, 50, 127
2, 94784, Note_on_c, 0, 60, 127
2, 94784, Note_on_c, 4, 64, 127
2, 94925, Note_off_c, 4, 64, 127
2, 94925, Note_off_c, 0, 60, 127
2, 94928, Note_on_c, 5, 65, 127
2, 95069, Note_off_c, 5, 65, 127
2, 95072, Note_on_c, 2, 62, 127
2, 95072, Note_on_c, 12, 59, 127
2, 95354, Note_off_c, 2, 50, 127
2, 95357, Note_off_c, 12, 59, 127
2, 95357, Note_off_c, 2, 62, 127
2, 95360, Note_on_c, 2, 62, 127
2, 95360, Note_on_c, 12, 59, 127
2, 95501, Note_off_c, 12, 59, 127
2, 95501, Note_off_c, 2, 62, 127
2, 95504, Note_on_c, 7, 43, 127
2, 95504, Note_on_c, 4, 64, 127
2, 95645, Note_off_c, 4, 64, 127
2, 95645, Note_off_c, 7, 43, 127
2, 95648, Note_on_c, 12, 47, 127
2, 95648, Note_on_c, 12, 59, 127
2, 95648, Note_on_c, 2, 62, 127
2, 95789, Note_off_c, 12, 47, 127
2, 95792, Note_on_c, 2, 50, 127
2, 95933, Note_off_c, 2, 50, 127
2, 95933, Note_off_c, 2, 62, 127
2, 95933, Note_off_c, 12, 59, 127
2, 95936, Note_on_c, 7, 55, 127
2, 95936, Note_on_c, 12, 59, 127
2, 95936, Note_on_c, 2, 62, 127
2, 96077, Note_off_c, 7, 55, 127
2, 96080, Note_on_c, 5, 53, 127
2, 96221, Note_off_c, 5, 53, 127
2, 96221, Note_off_c, 2, 62, 127
2, 96221, Note_off_c, 12, 59, 127
2, 96224, Note_on_c, 4, 52, 127
2, 96224, Note_on_c, 12, 59, 127
2, 96224, Note_on_c, 2, 62, 127
2, 96365, Note_off_c, 4, 52, 127
2, 96368, Note_on_c, 2, 50, 127
2, 96509, Note_off_c, 2, 50, 127
2, 96509, Note_off_c, 2, 62, 127
2, 96509, Note_off_c, 12, 59, 127
2, 96512, Note_on_c, 0, 48, 127
2, 96512, Note_on_c, 0, 60, 127
2, 96512, Note_on_c, 2, 62, 127
2, 96653, Note_off_c, 2, 62, 127
2, 96653, Note_off_c, 0, 60, 127
2, 96656, Note_on_c, 4, 64, 127
2, 96797, Note_off_c, 4, 64, 127
2, 96800, Note_on_c, 7, 67, 127
2, 96800, Note_on_c, 4, 64, 127
2, 97085, Note_off_c, 4, 64, 127
2, 97085, Note_off_c, 7, 67, 127
2, 97088, Note_on_c, 7, 67, 127
2, 97088, Note_on_c, 4, 64, 127
2, 97229, Note_off_c, 4, 64, 127
2, 97229, Note_off_c, 7, 67, 127
2, 97229, Note_off_c, 0, 48, 127
2, 97232, Note_on_c, 0, 48, 127
2, 97232, Note_on_c, 10, 69, 127
2, 97373, Note_off_c, 10, 69, 127
2, 97373, Note_off_c, 0, 48, 127
2, 97376, Note_on_c, 4, 52, 127
2, 97376, Note_on_c, 4, 64, 127
2, 97376, Note_on_c, 7, 67, 127
2, 97517, Note_off_c, 4, 52, 127
2, 97520, Note_on_c, 7, 55, 127
2, 97661, Note_off_c, 7, 55, 127
2, 97661, Note_off_c, 7, 67, 127
2, 97661, Note_off_c, 4, 64, 127
2, 97664, Note_on_c, 0, 60, 127
2, 97664, Note_on_c, 4, 64, 127
2, 97664, Note_on_c, 7, 67, 127
2, 97805, Note_off_c, 0, 60, 127
2, 97808, Note_on_c, 12, 59, 127
2, 97949, Note_off_c, 12, 59, 127
2, 97949, Note_off_c, 7, 67, 127
2, 97949, Note_off_c, 4, 64, 127
2, 97952, Note_on_c, 10, 57, 127
2, 97952, Note_on_c, 7, 67, 127
2, 97952, Note_on_c, 4, 64, 127
2, 98093, Note_off_c, 10, 57, 127
2, 98096, Note_on_c, 7, 55, 127
2, 98237, Note_off_c, 7, 55, 127
2, 98237, Note_off_c, 4, 64, 127
2, 98237, Note_off_c, 7, 67, 127
2, 98240, Note_on_c, 6, 54, 127
2, 98240, Note_on_c, 7, 67, 127
2, 98240, Note_on_c, 4, 64, 127
2, 98381, Note_off_c, 4, 64, 127
2, 98381, Note_off_c, 7, 67, 127
2, 98384, Note_on_c, 10, 69, 127
2, 98525, Note_off_c, 10, 69, 127
2, 98528, Note_on_c, 6, 66, 127
2, 98528, Note_on_c, 3, 63, 127
2, 98810, Note_off_c, 6, 54, 127
2, 98813, Note_off_c, 3, 63, 127
2, 98813, Note_off_c, 6, 66, 127
2, 98816, Note_on_c, 6, 66, 127
2, 98816, Note_on_c, 3, 63, 127
2, 98957, Note_off_c, 3, 63, 127
2, 98957, Note_off_c, 6, 66, 127
2, 98960, Note_on_c, 12, 47, 127
2, 98960, Note_on_c, 7, 67, 127
2, 99101, Note_off_c, 7, 67, 127
2, 99101, Note_off_c, 12, 47, 127
2, 99104, Note_on_c, 3, 51, 127
2, 99104, Note_on_c, 6, 66, 127
2, 99104, Note_on_c, 3, 63, 127
2, 99245, Note_off_c, 3, 51, 127
2, 99248, Note_on_c, 6, 54, 127
2, 99389, Note_off_c, 6, 54, 127
2, 99389, Note_off_c, 3, 63, 127
2, 99389, Note_off_c, 6, 66, 127
2, 99392, Note_on_c, 12, 59, 127
2, 99392, Note_on_c, 6, 66, 127
2, 99392, Note_on_c, 3, 63, 127
2, 99533, Note_off_c, 12, 59, 127
2, 99536, Note_on_c, 10, 57, 127
2, 99677, Note_off_c, 10, 57, 127
2, 99677, Note_off_c, 3, 63, 127
2, 99677, Note_off_c, 6, 66, 127
2, 99680, Note_on_c, 7, 55, 127
2, 99680, Note_on_c, 6, 66, 127
2, 99680, Note_on_c, 3, 63, 127
2, 99821, Note_off_c, 7, 55, 127
2, 99824, Note_on_c, 6, 54, 127
2, 99965, Note_off_c, 6, 54, 127
2, 99965, Note_off_c, 3, 63, 127
2, 99965, Note_off_c, 6, 66, 127
2, 99968, Note_on_c, 4, 52, 127
2, 99968, Note_on_c, 6, 66, 127
2, 99968, Note_on_c, 4, 64, 127
2, 100109, Note_off_c, 6, 66, 127
2, 100109, Note_off_c, 4, 52, 127
2, 100112, Note_on_c, 3, 51, 127
2, 100112, Note_on_c, 7, 67, 127
2, 100253, Note_off_c, 7, 67, 127
2, 100253, Note_off_c, 3, 51, 127
2, 100256, Note_on_c, 4, 52, 127
2, 100256, Note_on_c, 12, 71, 127
2, 100397, Note_off_c, 4, 52, 127
2, 100400, Note_on_c, 6, 54, 127
2, 100538, Note_off_c, 4, 64, 127
2, 100541, Note_off_c, 6, 54, 127
2, 100541, Note_off_c, 12, 71, 127
2, 100544, Note_on_c, 7, 55, 127
2, 100544, Note_on_c, 4, 64, 127
2, 100685, Note_off_c, 7, 55, 127
2, 100688, Note_on_c, 6, 54, 127
2, 100829, Note_off_c, 6, 54, 127
2, 100832, Note_on_c, 7, 55, 127
2, 100832, Note_on_c, 4, 76, 127
2, 100973, Note_off_c, 7, 55, 127
2, 100976, Note_on_c, 10, 57, 127
2, 101114, Note_off_c, 4, 64, 127
2, 101117, Note_off_c, 10, 57, 127
2, 101117, Note_off_c, 4, 76, 127
2, 101120, Note_on_c, 12, 59, 127
2, 101120, Note_on_c, 2, 74, 127
2, 101261, Note_off_c, 2, 74, 127
2, 101261, Note_off_c, 12, 59, 127
2, 101264, Note_on_c, 7, 55, 127
2, 101264, Note_on_c, 12, 71, 127
2, 101405, Note_off_c, 12, 71, 127
2, 101405, Note_off_c, 7, 55, 127
2, 101408, Note_on_c, 10, 57, 127
2, 101408, Note_on_c, 0, 72, 127
2, 101549, Note_off_c, 0, 72, 127
2, 101549, Note_off_c, 10, 57, 127
2, 101552, Note_on_c, 6, 54, 127
2, 101552, Note_on_c, 10, 69, 127
2, 101693, Note_off_c, 10, 69, 127
2, 101693, Note_off_c, 6, 54, 127
2, 101696, Note_on_c, 7, 55, 127
2, 101696, Note_on_c, 12, 71, 127
2, 101837, Note_off_c, 12, 71, 127
2, 101840, Note_on_c, 10, 69, 127
2, 101981, Note_off_c, 10, 69, 127
2, 101981, Note_off_c, 7, 55, 127
2, 101984, Note_on_c, 12, 59, 127
2, 101984, Note_on_c, 7, 67, 127
2, 102125, Note_off_c, 7, 67, 127
2, 102128, Note_on_c, 6, 66, 127
2, 102269, Note_off_c, 6, 66, 127
2, 102269, Note_off_c, 12, 59, 127
2, 102272, Note_on_c, 4, 52, 127
2, 102272, Note_on_c, 7, 67, 127
2, 102413, Note_off_c, 7, 67, 127
2, 102416, Note_on_c, 6, 66, 127
2, 102557, Note_off_c, 6, 66, 127
2, 102557, Note_off_c, 4, 52, 127
2, 102560, Note_on_c, 4, 64, 127
2, 102560, Note_on_c, 7, 67, 127
2, 102704, Note_on_c, 0, 72, 127
2, 102740, Note_off_c, 7, 67, 127
2, 102845, Note_off_c, 0, 72, 127
2, 102845, Note_off_c, 4, 64, 127
2, 102848, Note_on_c, 2, 62, 127
2, 102848, Note_on_c, 6, 66, 127
2, 102989, Note_off_c, 2, 62, 127
2, 102992, Note_on_c, 12, 59, 127
2, 102992, Note_on_c, 12, 71, 127
2, 103028, Note_off_c, 6, 66, 127
2, 103133, Note_off_c, 12, 71, 127
2, 103133, Note_off_c, 12, 59, 127
2, 103136, Note_on_c, 0, 60, 127
2, 103136, Note_on_c, 4, 64, 127
2, 103277, Note_off_c, 0, 60, 127
2, 103280, Note_on_c, 10, 57, 127
2, 103280, Note_on_c, 10, 69, 127
2, 103296, Note_off_c, 4, 64, 127
2, 103421, Note_off_c, 10, 69, 127
2, 103421, Note_off_c, 10, 57, 127
2, 103424, Note_on_c, 12, 59, 127
2, 103424, Note_on_c, 3, 63, 127
2, 103565, Note_off_c, 3, 63, 127
2, 103568, Note_on_c, 10, 69, 127
2, 103709, Note_off_c, 10, 69, 127
2, 103709, Note_off_c, 12, 59, 127
2, 103712, Note_on_c, 12, 47, 127
2, 103712, Note_on_c, 6, 66, 127
2, 103853, Note_off_c, 6, 66, 127
2, 103856, Note_on_c, 3, 63, 127
2, 103997, Note_off_c, 3, 63, 127
2, 103997, Note_off_c, 12, 47, 127
2, 104000, Note_on_c, 3, 51, 127
2, 104000, Note_on_c, 10, 69, 127
2, 104141, Note_off_c, 10, 69, 127
2, 104144, Note_on_c, 6, 66, 127
2, 104285, Note_off_c, 6, 66, 127
2, 104285, Note_off_c, 3, 51, 127
2, 104288, Note_on_c, 6, 54, 127
2, 104288, Note_on_c, 3, 63, 127
2, 104429, Note_off_c, 3, 63, 127
2, 104432, Note_on_c, 6, 66, 127
2, 104573, Note_off_c, 6, 66, 127
2, 104573, Note_off_c, 6, 54, 127
2, 104576, Note_on_c, 3, 51, 127
2, 104576, Note_on_c, 12, 59, 127
2, 104717, Note_off_c, 12, 59, 127
2, 104720, Note_on_c, 10, 69, 127
2, 104861, Note_off_c, 10, 69, 127
2, 104861, Note_off_c, 3, 51, 127
2, 104864, Note_on_c, 12, 47, 127
2, 104864, Note_on_c, 7, 67, 127
2, 105005, Note_off_c, 7, 67, 127
2, 105008, Note_on_c, 6, 66, 127
2, 105149, Note_off_c, 6, 66, 127
2, 105149, Note_off_c, 12, 47, 127
2, 105152, Note_on_c, 4, 52, 127
2, 105152, Note_on_c, 7, 67, 127
2, 105437, Note_off_c, 7, 67, 127
2, 105437, Note_off_c, 4, 52, 127
2, 105440, Note_on_c, 4, 40, 127
2, 105440, Note_on_c, 12, 59, 127
2, 105440, Note_on_c, 7, 55, 127
2, 105725, Note_off_c, 7, 55, 127
2, 105725, Note_off_c, 12, 59, 127
2, 105728, Note_on_c, 12, 59, 127
2, 105728, Note_on_c, 7, 55, 127
2, 105869, Note_off_c, 7, 55, 127
2, 105869, Note_off_c, 12, 59, 127
2, 105869, Note_off_c, 4, 40, 127
2, 105872, Note_on_c, 4, 40, 127
2, 105872, Note_on_c, 0, 60, 127
2, 106013, Note_off_c, 0, 60, 127
2, 106013, Note_off_c, 4, 40, 127
2, 106016, Note_on_c, 7, 43, 127
2, 106016, Note_on_c, 7, 55, 127
2, 106016, Note_on_c, 12, 59, 127
2, 106157, Note_off_c, 7, 43, 127
2, 106160, Note_on_c, 12, 47, 127
2, 106301, Note_off_c, 12, 47, 127
2, 106301, Note_off_c, 12, 59, 127
2, 106301, Note_off_c, 7, 55, 127
2, 106304, Note_on_c, 4, 52, 127
2, 106304, Note_on_c, 7, 55, 127
2, 106304, Note_on_c, 12, 59, 127
2, 106445, Note_off_c, 4, 52, 127
2, 106448, Note_on_c, 2, 50, 127
2, 106589, Note_off_c, 2, 50, 127
2, 106589, Note_off_c, 12, 59, 127
2, 106589, Note_off_c, 7, 55, 127
2, 106592, Note_on_c, 0, 48, 127
2, 106592, Note_on_c, 7, 55, 127
2, 106592, Note_on_c, 12, 59, 127
2, 106733, Note_off_c, 0, 48, 127
2, 106736, Note_on_c, 12, 47, 127
2, 106877, Note_off_c, 12, 47, 127
2, 106877, Note_off_c, 12, 59, 127
2, 106877, Note_off_c, 7, 55, 127
2, 106880, Note_on_c, 10, 45, 127
2, 106880, Note_on_c, 7, 55, 127
2, 106880, Note_on_c, 12, 59, 127
2, 107021, Note_off_c, 12, 59, 127
2, 107021, Note_off_c, 7, 55, 127
2, 107024, Note_on_c, 0, 60, 127
2, 107165, Note_off_c, 0, 60, 127
2, 107168, Note_on_c, 10, 57, 127
2, 107168, Note_on_c, 6, 54, 127
2, 107450, Note_off_c, 10, 45, 127
2, 107453, Note_off_c, 6, 54, 127
2, 107453, Note_off_c, 10, 57, 127
2, 107456, Note_on_c, 10, 57, 127
2, 107456, Note_on_c, 6, 54, 127
2, 107597, Note_off_c, 6, 54, 127
2, 107597, Note_off_c, 10, 57, 127
2, 107600, Note_on_c, 2, 38, 127
2, 107600, Note_on_c, 12, 59, 127
2, 107741, Note_off_c, 12, 59, 127
2, 107741, Note_off_c, 2, 38, 127
2, 107744, Note_on_c, 6, 42, 127
2, 107744, Note_on_c, 6, 54, 127
2, 107744, Note_on_c, 10, 57, 127
2, 107885, Note_off_c, 6, 42, 127
2, 107888, Note_on_c, 10, 45, 127
2, 108029, Note_off_c, 10, 45, 127
2, 108029, Note_off_c, 10, 57, 127
2, 108029, Note_off_c, 6, 54, 127
2, 108032, Note_on_c, 2, 50, 127
2, 108032, Note_on_c, 10, 57, 127
2, 108032, Note_on_c, 6, 54, 127
2, 108173, Note_off_c, 2, 50, 127
2, 108176, Note_on_c, 0, 48, 127
2, 108317, Note_off_c, 0, 48, 127
2, 108317, Note_off_c, 6, 54, 127
2, 108317, Note_off_c, 10, 57, 127
2, 108320, Note_on_c, 12, 47, 127
2, 108320, Note_on_c, 6, 54, 127
2, 108320, Note_on_c, 10, 57, 127
2, 108461, Note_off_c, 12, 47, 127
2, 108464, Note_on_c, 10, 45, 127
2, 108605, Note_off_c, 10, 45, 127
2, 108605, Note_off_c, 10, 57, 127
2, 108605, Note_off_c, 6, 54, 127
2, 108608, Note_on_c, 7, 43, 127
2, 108608, Note_on_c, 7, 55, 127
2, 108608, Note_on_c, 10, 57, 127
2, 108749, Note_off_c, 10, 57, 127
2, 108749, Note_off_c, 7, 55, 127
2, 108752, Note_on_c, 12, 59, 127
2, 108893, Note_off_c, 12, 59, 127
2, 108896, Note_on_c, 2, 62, 127
2, 108896, Note_on_c, 12, 59, 127
2, 109181, Note_off_c, 12, 59, 127
2, 109181, Note_off_c, 2, 62, 127
2, 109184, Note_on_c, 12, 59, 127
2, 109184, Note_on_c, 2, 62, 127
2, 109325, Note_off_c, 2, 62, 127
2, 109325, Note_off_c, 12, 59, 127
2, 109325, Note_off_c, 7, 43, 127
2, 109328, Note_on_c, 7, 43, 127
2, 109328, Note_on_c, 4, 64, 127
2, 109469, Note_off_c, 4, 64, 127
2, 109469, Note_off_c, 7, 43, 127
2, 109472, Note_on_c, 12, 47, 127
2, 109472, Note_on_c, 2, 62, 127
2, 109472, Note_on_c, 12, 59, 127
2, 109613, Note_off_c, 12, 47, 127
2, 109616, Note_on_c, 2, 50, 127
2, 109757, Note_off_c, 2, 50, 127
2, 109757, Note_off_c, 12, 59, 127
2, 109757, Note_off_c, 2, 62, 127
2, 109760, Note_on_c, 7, 55, 127
2, 109760, Note_on_c, 12, 59, 127
2, 109760, Note_on_c, 2, 62, 127
2, 109901, Note_off_c, 7, 55, 127
2, 109904, Note_on_c, 6, 54, 127
2, 110045, Note_off_c, 6, 54, 127
2, 110045, Note_off_c, 2, 62, 127
2, 110045, Note_off_c, 12, 59, 127
2, 110048, Note_on_c, 4, 52, 127
2, 110048, Note_on_c, 12, 59, 127
2, 110048, Note_on_c, 2, 62, 127
2, 110189, Note_off_c, 4, 52, 127
2, 110192, Note_on_c, 2, 50, 127
2, 110333, Note_off_c, 2, 50, 127
2, 110333, Note_off_c, 2, 62, 127
2, 110333, Note_off_c, 12, 59, 127
2, 110336, Note_on_c, 1, 49, 127
2, 110336, Note_on_c, 2, 62, 127
2, 110336, Note_on_c, 12, 59, 127
2, 110477, Note_off_c, 12, 59, 127
2, 110477, Note_off_c, 2, 62, 127
2, 110480, Note_on_c, 4, 64, 127
2, 110621, Note_off_c, 4, 64, 127
2, 110624, Note_on_c, 1, 61, 127
2, 110624, Note_on_c, 11, 58, 127
2, 110906, Note_off_c, 1, 49, 127
2, 110909, Note_off_c, 11, 58, 127
2, 110909, Note_off_c, 1, 61, 127
2, 110912, Note_on_c, 1, 61, 127
2, 110912, Note_on_c, 11, 58, 127
2, 111053, Note_off_c, 11, 58, 127
2, 111053, Note_off_c, 1, 61, 127
2, 111056, Note_on_c, 6, 42, 127
2, 111056, Note_on_c, 2, 62, 127
2, 111197, Note_off_c, 2, 62, 127
2, 111197, Note_off_c, 6, 42, 127
2, 111200, Note_on_c, 11, 46, 127
2, 111200, Note_on_c, 1, 61, 127
2, 111200, Note_on_c, 11, 58, 127
2, 111341, Note_off_c, 11, 46, 127
2, 111344, Note_on_c, 1, 49, 127
2, 111485, Note_off_c, 1, 49, 127
2, 111485, Note_off_c, 11, 58, 127
2, 111485, Note_off_c, 1, 61, 127
2, 111488, Note_on_c, 6, 54, 127
2, 111488, Note_on_c, 11, 58, 127
2, 111488, Note_on_c, 1, 61, 127
2, 111629, Note_off_c, 6, 54, 127
2, 111632, Note_on_c, 4, 52, 127
2, 111773, Note_off_c, 4, 52, 127
2, 111773, Note_off_c, 1, 61, 127
2, 111773, Note_off_c, 11, 58, 127
2, 111776, Note_on_c, 2, 50, 127
2, 111776, Note_on_c, 11, 58, 127
2, 111776, Note_on_c, 1, 61, 127
2, 111917, Note_off_c, 2, 50, 127
2, 111920, Note_on_c, 1, 49, 127
2, 112061, Note_off_c, 1, 49, 127
2, 112061, Note_off_c, 1, 61, 127
2, 112061, Note_off_c, 11, 58, 127
2, 112064, Note_on_c, 12, 47, 127
2, 112064, Note_on_c, 12, 59, 127
2, 112064, Note_on_c, 2, 62, 127
2, 112205, Note_off_c, 2, 62, 127
2, 112205, Note_off_c, 12, 59, 127
2, 112208, Note_on_c, 12, 59, 127
2, 112349, Note_off_c, 12, 59, 127
2, 112352, Note_on_c, 2, 62, 127
2, 112493, Note_off_c, 2, 62, 127
2, 112496, Note_on_c, 6, 66, 127
2, 112637, Note_off_c, 6, 66, 127
2, 112640, Note_on_c, 12, 71, 127
2, 112724, Note_off_c, 12, 47, 127
2, 112781, Note_off_c, 12, 71, 127
2, 112784, Note_on_c, 12, 47, 127
2, 112784, Note_on_c, 2, 62, 127
2, 112925, Note_off_c, 2, 62, 127
2, 112925, Note_off_c, 12, 47, 127
2, 112928, Note_on_c, 2, 50, 127
2, 112928, Note_on_c, 6, 66, 127
2, 113069, Note_off_c, 6, 66, 127
2, 113069, Note_off_c, 2, 50, 127
2, 113072, Note_on_c, 6, 54, 127
2, 113072, Note_on_c, 12, 71, 127
2, 113213, Note_off_c, 12, 71, 127
2, 113213, Note_off_c, 6, 54, 127
2, 113216, Note_on_c, 12, 59, 127
2, 113216, Note_on_c, 2, 74, 127
2, 113357, Note_off_c, 12, 59, 127
2, 113360, Note_on_c, 10, 57, 127
2, 113501, Note_off_c, 10, 57, 127
2, 113501, Note_off_c, 2, 74, 127
2, 113504, Note_on_c, 8, 56, 127
2, 113504, Note_on_c, 6, 66, 127
2, 113504, Note_on_c, 12, 71, 127
2, 113504, Note_on_c, 2, 74, 127
2, 113645, Note_off_c, 8, 56, 127
2, 113648, Note_on_c, 6, 54, 127
2, 113789, Note_off_c, 6, 54, 127
2, 113789, Note_off_c, 2, 74, 127
2, 113789, Note_off_c, 12, 71, 127
2, 113789, Note_off_c, 6, 66, 127
2, 113792, Note_on_c, 4, 52, 127
2, 113792, Note_on_c, 12, 71, 127
2, 113792, Note_on_c, 8, 68, 127
2, 113792, Note_on_c, 2, 74, 127
2, 113936, Note_on_c, 4, 64, 127
2, 114077, Note_off_c, 4, 64, 127
2, 114077, Note_off_c, 8, 68, 127
2, 114077, Note_off_c, 4, 52, 127
2, 114080, Note_on_c, 4, 40, 127
2, 114080, Note_on_c, 8, 68, 127
2, 114212, Note_off_c, 12, 71, 127
2, 114221, Note_off_c, 8, 68, 127
2, 114224, Note_on_c, 12, 71, 127
2, 114362, Note_off_c, 2, 74, 127
2, 114365, Note_off_c, 12, 71, 127
2, 114365, Note_off_c, 4, 40, 127
2, 114368, Note_on_c, 8, 44, 127
2, 114368, Note_on_c, 2, 74, 127
2, 114509, Note_off_c, 2, 74, 127
2, 114512, Note_on_c, 12, 71, 127
2, 114653, Note_off_c, 12, 71, 127
2, 114653, Note_off_c, 8, 44, 127
2, 114656, Note_on_c, 12, 47, 127
2, 114656, Note_on_c, 8, 68, 127
2, 114797, Note_off_c, 8, 68, 127
2, 114800, Note_on_c, 12, 71, 127
2, 114941, Note_off_c, 12, 71, 127
2, 114941, Note_off_c, 12, 47, 127
2, 114944, Note_on_c, 8, 44, 127
2, 114944, Note_on_c, 4, 64, 127
2, 115088, Note_on_c, 2, 74, 127
2, 115229, Note_off_c, 2, 74, 127
2, 115229, Note_off_c, 4, 64, 127
2, 115229, Note_off_c, 8, 44, 127
2, 115232, Note_on_c, 4, 40, 127
2, 115232, Note_on_c, 0, 72, 127
2, 115373, Note_off_c, 0, 72, 127
2, 115376, Note_on_c, 12, 71, 127
2, 115517, Note_off_c, 12, 71, 127
2, 115517, Note_off_c, 4, 40, 127
2, 115520, Note_on_c, 10, 45, 127
2, 115520, Note_on_c, 0, 72, 127
2, 115647, Note_off_c, 0, 72, 127
2, 115664, Note_on_c, 10, 57, 127
2, 115805, Note_off_c, 10, 57, 127
2, 115808, Note_on_c, 0, 60, 127
2, 115949, Note_off_c, 0, 60, 127
2, 115952, Note_on_c, 4, 64, 127
2, 116093, Note_off_c, 4, 64, 127
2, 116096, Note_on_c, 10, 69, 127
2, 116237, Note_off_c, 10, 69, 127
2, 116237, Note_off_c, 10, 45, 127
2, 116240, Note_on_c, 10, 45, 127
2, 116240, Note_on_c, 0, 60, 127
2, 116381, Note_off_c, 0, 60, 127
2, 116381, Note_off_c, 10, 45, 127
2, 116384, Note_on_c, 0, 48, 127
2, 116384, Note_on_c, 4, 64, 127
2, 116525, Note_off_c, 4, 64, 127
2, 116525, Note_off_c, 0, 48, 127
2, 116528, Note_on_c, 4, 52, 127
2, 116528, Note_on_c, 10, 69, 127
2, 116669, Note_off_c, 10, 69, 127
2, 116669, Note_off_c, 4, 52, 127
2, 116672, Note_on_c, 10, 57, 127
2, 116672, Note_on_c, 0, 72, 127
2, 116813, Note_off_c, 10, 57, 127
2, 116816, Note_on_c, 7, 55, 127
2, 116957, Note_off_c, 7, 55, 127
2, 116957, Note_off_c, 0, 72, 127
2, 116960, Note_on_c, 6, 54, 127
2, 116960, Note_on_c, 4, 64, 127
2, 116960, Note_on_c, 0, 72, 127
2, 116960, Note_on_c, 10, 69, 127
2, 117101, Note_off_c, 6, 54, 127
2, 117104, Note_on_c, 4, 52, 127
2, 117245, Note_off_c, 4, 52, 127
2, 117245, Note_off_c, 10, 69, 127
2, 117245, Note_off_c, 0, 72, 127
2, 117245, Note_off_c, 4, 64, 127
2, 117248, Note_on_c, 2, 50, 127
2, 117248, Note_on_c, 0, 72, 127
2, 117248, Note_on_c, 10, 69, 127
2, 117248, Note_on_c, 6, 66, 127
2, 117392, Note_on_c, 2, 62, 127
2, 117533, Note_off_c, 2, 62, 127
2, 117533, Note_off_c, 6, 66, 127
2, 117533, Note_off_c, 2, 50, 127
2, 117536, Note_on_c, 2, 38, 127
2, 117536, Note_on_c, 6, 66, 127
2, 117668, Note_off_c, 10, 69, 127
2, 117677, Note_off_c, 6, 66, 127
2, 117680, Note_on_c, 10, 69, 127
2, 117818, Note_off_c, 0, 72, 127
2, 117821, Note_off_c, 10, 69, 127
2, 117821, Note_off_c, 2, 38, 127
2, 117824, Note_on_c, 6, 42, 127
2, 117824, Note_on_c, 0, 72, 127
2, 117965, Note_off_c, 0, 72, 127
2, 117968, Note_on_c, 10, 69, 127
2, 118109, Note_off_c, 10, 69, 127
2, 118109, Note_off_c, 6, 42, 127
2, 118112, Note_on_c, 10, 45, 127
2, 118112, Note_on_c, 6, 66, 127
2, 118253, Note_off_c, 6, 66, 127
2, 118256, Note_on_c, 10, 69, 127
2, 118397, Note_off_c, 10, 69, 127
2, 118397, Note_off_c, 10, 45, 127
2, 118400, Note_on_c, 6, 42, 127
2, 118400, Note_on_c, 2, 62, 127
2, 118544, Note_on_c, 0, 72, 127
2, 118685, Note_off_c, 0, 72, 127
2, 118685, Note_off_c, 2, 62, 127
2, 118685, Note_off_c, 6, 42, 127
2, 118688, Note_on_c, 2, 38, 127
2, 118688, Note_on_c, 12, 71, 127
2, 118829, Note_off_c, 12, 71, 127
2, 118832, Note_on_c, 10, 69, 127
2, 118973, Note_off_c, 10, 69, 127
2, 118973, Note_off_c, 2, 38, 127
2, 118976, Note_on_c, 7, 43, 127
2, 118976, Note_on_c, 12, 71, 127
2, 119120, Note_on_c, 6, 66, 127
2, 119261, Note_off_c, 6, 66, 127
2, 119261, Note_off_c, 7, 43, 127
2, 119264, Note_on_c, 7, 55, 127
2, 119264, Note_on_c, 7, 67, 127
2, 119396, Note_off_c, 12, 71, 127
2, 119405, Note_off_c, 7, 67, 127
2, 119408, Note_on_c, 12, 71, 127
2, 119549, Note_off_c, 7, 55, 127
2, 119552, Note_on_c, 7, 55, 127
2, 119552, Note_on_c, 2, 62, 127
2, 119693, Note_off_c, 2, 62, 127
2, 119693, Note_off_c, 7, 55, 127
2, 119696, Note_on_c, 10, 57, 127
2, 119696, Note_on_c, 6, 66, 127
2, 119837, Note_off_c, 6, 66, 127
2, 119837, Note_off_c, 10, 57, 127
2, 119840, Note_on_c, 7, 55, 127
2, 119840, Note_on_c, 7, 67, 127
2, 119978, Note_off_c, 12, 71, 127
2, 119981, Note_off_c, 7, 67, 127
2, 119984, Note_on_c, 12, 71, 127
2, 120125, Note_off_c, 7, 55, 127
2, 120128, Note_on_c, 7, 55, 127
2, 120128, Note_on_c, 2, 62, 127
2, 120269, Note_off_c, 2, 62, 127
2, 120272, Note_on_c, 6, 66, 127
2, 120413, Note_off_c, 6, 66, 127
2, 120413, Note_off_c, 7, 55, 127
2, 120416, Note_on_c, 7, 55, 127
2, 120416, Note_on_c, 7, 67, 127
2, 120554, Note_off_c, 12, 71, 127
2, 120557, Note_off_c, 7, 67, 127
2, 120560, Note_on_c, 12, 71, 127
2, 120701, Note_off_c, 12, 71, 127
2, 120701, Note_off_c, 7, 55, 127
2, 120704, Note_on_c, 10, 45, 127
2, 120704, Note_on_c, 0, 72, 127
2, 120848, Note_on_c, 6, 66, 127
2, 120989, Note_off_c, 6, 66, 127
2, 120989, Note_off_c, 10, 45, 127
2, 120992, Note_on_c, 7, 55, 127
2, 120992, Note_on_c, 7, 67, 127
2, 121124, Note_off_c, 0, 72, 127
2, 121133, Note_off_c, 7, 67, 127
2, 121136, Note_on_c, 0, 72, 127
2, 121277, Note_off_c, 7, 55, 127
2, 121280, Note_on_c, 7, 55, 127
2, 121280, Note_on_c, 2, 62, 127
2, 121421, Note_off_c, 2, 62, 127
2, 121421, Note_off_c, 7, 55, 127
2, 121424, Note_on_c, 10, 57, 127
2, 121424, Note_on_c, 6, 66, 127
2, 121565, Note_off_c, 6, 66, 127
2, 121565, Note_off_c, 10, 57, 127
2, 121568, Note_on_c, 7, 55, 127
2, 121568, Note_on_c, 7, 67, 127
2, 121706, Note_off_c, 0, 72, 127
2, 121709, Note_off_c, 7, 67, 127
2, 121712, Note_on_c, 0, 72, 127
2, 121853, Note_off_c, 7, 55, 127
2, 121856, Note_on_c, 7, 55, 127
2, 121856, Note_on_c, 2, 62, 127
2, 121997, Note_off_c, 2, 62, 127
2, 122000, Note_on_c, 6, 66, 127
2, 122141, Note_off_c, 6, 66, 127
2, 122141, Note_off_c, 7, 55, 127
2, 122144, Note_on_c, 7, 55, 127
2, 122144, Note_on_c, 7, 67, 127
2, 122282, Note_off_c, 0, 72, 127
2, 122285, Note_off_c, 7, 67, 127
2, 122288, Note_on_c, 0, 72, 127
2, 122429, Note_off_c, 0, 72, 127
2, 122429, Note_off_c, 7, 55, 127
2, 122432, Note_on_c, 12, 47, 127
2, 122432, Note_on_c, 2, 74, 127
2, 122576, Note_on_c, 6, 66, 127
2, 122717, Note_off_c, 6, 66, 127
2, 122717, Note_off_c, 12, 47, 127
2, 122720, Note_on_c, 7, 55, 127
2, 122720, Note_on_c, 7, 67, 127
2, 122852, Note_off_c, 2, 74, 127
2, 122861, Note_off_c, 7, 67, 127
2, 122864, Note_on_c, 2, 74, 127
2, 123005, Note_off_c, 7, 55, 127
2, 123008, Note_on_c, 7, 55, 127
2, 123008, Note_on_c, 2, 62, 127
2, 123149, Note_off_c, 2, 62, 127
2, 123149, Note_off_c, 7, 55, 127
2, 123152, Note_on_c, 10, 57, 127
2, 123152, Note_on_c, 6, 66, 127
2, 123293, Note_off_c, 6, 66, 127
2, 123293, Note_off_c, 10, 57, 127
2, 123296, Note_on_c, 7, 55, 127
2, 123296, Note_on_c, 7, 67, 127
2, 123434, Note_off_c, 2, 74, 127
2, 123437, Note_off_c, 7, 67, 127
2, 123440, Note_on_c, 2, 74, 127
2, 123581, Note_off_c, 7, 55, 127
2, 123584, Note_on_c, 7, 55, 127
2, 123584, Note_on_c, 2, 62, 127
2, 123725, Note_off_c, 2, 62, 127
2, 123728, Note_on_c, 6, 66, 127
2, 123869, Note_off_c, 6, 66, 127
2, 123869, Note_off_c, 7, 55, 127
2, 123872, Note_on_c, 7, 55, 127
2, 123872, Note_on_c, 7, 67, 127
2, 124010, Note_off_c, 2, 74, 127
2, 124013, Note_off_c, 7, 67, 127
2, 124016, Note_on_c, 2, 74, 127
2, 124157, Note_off_c, 7, 55, 127
2, 124160, Note_on_c, 0, 48, 127
2, 124160, Note_on_c, 4, 64, 127
2, 124301, Note_off_c, 4, 64, 127
2, 124304, Note_on_c, 2, 62, 127
2, 124436, Note_off_c, 2, 74, 127
2, 124445, Note_off_c, 2, 62, 127
2, 124445, Note_off_c, 0, 48, 127
2, 124448, Note_on_c, 7, 55, 127
2, 124448, Note_on_c, 4, 64, 127
2, 124592, Note_on_c, 2, 74, 127
2, 124733, Note_off_c, 4, 64, 127
2, 124733, Note_off_c, 7, 55, 127
2, 124736, Note_on_c, 7, 55, 127
2, 124736, Note_on_c, 4, 64, 127
2, 124802, Note_off_c, 2, 74, 127
2, 124877, Note_off_c, 4, 64, 127
2, 124877, Note_off_c, 7, 55, 127
2, 124880, Note_on_c, 10, 57, 127
2, 124880, Note_on_c, 2, 62, 127
2, 125021, Note_off_c, 2, 62, 127
2, 125021, Note_off_c, 10, 57, 127
2, 125024, Note_on_c, 7, 55, 127
2, 125024, Note_on_c, 4, 64, 127
2, 125168, Note_on_c, 2, 74, 127
2, 125309, Note_off_c, 4, 64, 127
2, 125309, Note_off_c, 7, 55, 127
2, 125312, Note_on_c, 7, 55, 127
2, 125312, Note_on_c, 4, 64, 127
2, 125378, Note_off_c, 2, 74, 127
2, 125453, Note_off_c, 4, 64, 127
2, 125456, Note_on_c, 2, 62, 127
2, 125597, Note_off_c, 2, 62, 127
2, 125597, Note_off_c, 7, 55, 127
2, 125600, Note_on_c, 7, 55, 127
2, 125600, Note_on_c, 4, 64, 127
2, 125744, Note_on_c, 2, 74, 127
2, 125885, Note_off_c, 4, 64, 127
2, 125885, Note_off_c, 7, 55, 127
2, 125888, Note_on_c, 0, 48, 127
2, 125888, Note_on_c, 4, 64, 127
2, 125954, Note_off_c, 2, 74, 127
2, 126029, Note_off_c, 4, 64, 127
2, 126032, Note_on_c, 2, 62, 127
2, 126173, Note_off_c, 2, 62, 127
2, 126173, Note_off_c, 0, 48, 127
2, 126176, Note_on_c, 10, 57, 127
2, 126176, Note_on_c, 4, 64, 127
2, 126320, Note_on_c, 0, 72, 127
2, 126461, Note_off_c, 4, 64, 127
2, 126461, Note_off_c, 10, 57, 127
2, 126464, Note_on_c, 10, 57, 127
2, 126464, Note_on_c, 4, 64, 127
2, 126560, Note_off_c, 0, 72, 127
2, 126605, Note_off_c, 4, 64, 127
2, 126605, Note_off_c, 10, 57, 127
2, 126608, Note_on_c, 12, 59, 127
2, 126608, Note_on_c, 2, 62, 127
2, 126749, Note_off_c, 2, 62, 127
2, 126749, Note_off_c, 12, 59, 127
2, 126752, Note_on_c, 10, 57, 127
2, 126752, Note_on_c, 4, 64, 127
2, 126896, Note_on_c, 0, 72, 127
2, 127037, Note_off_c, 4, 64, 127
2, 127037, Note_off_c, 10, 57, 127
2, 127040, Note_on_c, 10, 57, 127
2, 127040, Note_on_c, 4, 64, 127
2, 127136, Note_off_c, 0, 72, 127
2, 127181, Note_off_c, 4, 64, 127
2, 127184, Note_on_c, 2, 62, 127
2, 127325, Note_off_c, 2, 62, 127
2, 127325, Note_off_c, 10, 57, 127
2, 127328, Note_on_c, 10, 57, 127
2, 127328, Note_on_c, 4, 64, 127
2, 127472, Note_on_c, 0, 72, 127
2, 127613, Note_off_c, 4, 64, 127
2, 127613, Note_off_c, 10, 57, 127
2, 127616, Note_on_c, 2, 50, 127
2, 127616, Note_on_c, 6, 66, 127
2, 127712, Note_off_c, 0, 72, 127
2, 127757, Note_off_c, 6, 66, 127
2, 127760, Note_on_c, 4, 64, 127
2, 127901, Note_off_c, 4, 64, 127
2, 127901, Note_off_c, 2, 50, 127
2, 127904, Note_on_c, 10, 57, 127
2, 127904, Note_on_c, 6, 66, 127
2, 128048, Note_on_c, 0, 72, 127
2, 128189, Note_off_c, 6, 66, 127
2, 128189, Note_off_c, 10, 57, 127
2, 128192, Note_on_c, 10, 57, 127
2, 128192, Note_on_c, 6, 66, 127
2, 128318, Note_off_c, 0, 72, 127
2, 128333, Note_off_c, 6, 66, 127
2, 128333, Note_off_c, 10, 57, 127
2, 128336, Note_on_c, 12, 59, 127
2, 128336, Note_on_c, 4, 64, 127
2, 128477, Note_off_c, 4, 64, 127
2, 128477, Note_off_c, 12, 59, 127
2, 128480, Note_on_c, 10, 57, 127
2, 128480, Note_on_c, 6, 66, 127
2, 128624, Note_on_c, 0, 72, 127
2, 128765, Note_off_c, 6, 66, 127
2, 128765, Note_off_c, 10, 57, 127
2, 128768, Note_on_c, 10, 57, 127
2, 128768, Note_on_c, 6, 66, 127
2, 128894, Note_off_c, 0, 72, 127
2, 128909, Note_off_c, 6, 66, 127
2, 128912, Note_on_c, 4, 64, 127
2, 129053, Note_off_c, 4, 64, 127
2, 129053, Note_off_c, 10, 57, 127
2, 129056, Note_on_c, 10, 57, 127
2, 129056, Note_on_c, 6, 66, 127
2, 129200, Note_on_c, 0, 72, 127
2, 129341, Note_off_c, 6, 66, 127
2, 129341, Note_off_c, 10, 57, 127
2, 129344, Note_on_c, 2, 50, 127
2, 129344, Note_on_c, 7, 67, 127
2, 129470, Note_off_c, 0, 72, 127
2, 129485, Note_off_c, 7, 67, 127
2, 129488, Note_on_c, 6, 66, 127
2, 129629, Note_off_c, 6, 66, 127
2, 129629, Note_off_c, 2, 50, 127
2, 129632, Note_on_c, 12, 59, 127
2, 129632, Note_on_c, 7, 67, 127
2, 129776, Note_on_c, 12, 71, 127
2, 129917, Note_off_c, 12, 71, 127
2, 129917, Note_off_c, 7, 67, 127
2, 129917, Note_off_c, 12, 59, 127
2, 129920, Note_on_c, 12, 59, 127
2, 129920, Note_on_c, 7, 67, 127
2, 130061, Note_off_c, 7, 67, 127
2, 130061, Note_off_c, 12, 59, 127
2, 130064, Note_on_c, 0, 60, 127
2, 130064, Note_on_c, 6, 66, 127
2, 130205, Note_off_c, 6, 66, 127
2, 130205, Note_off_c, 0, 60, 127
2, 130208, Note_on_c, 12, 59, 127
2, 130208, Note_on_c, 7, 67, 127
2, 130352, Note_on_c, 12, 71, 127
2, 130493, Note_off_c, 12, 71, 127
2, 130493, Note_off_c, 7, 67, 127
2, 130493, Note_off_c, 12, 59, 127
2, 130496, Note_on_c, 12, 59, 127
2, 130496, Note_on_c, 7, 67, 127
2, 130637, Note_off_c, 7, 67, 127
2, 130640, Note_on_c, 6, 66, 127
2, 130781, Note_off_c, 6, 66, 127
2, 130781, Note_off_c, 12, 59, 127
2, 130784, Note_on_c, 12, 59, 127
2, 130784, Note_on_c, 7, 67, 127
2, 130928, Note_on_c, 12, 71, 127
2, 131069, Note_off_c, 12, 71, 127
2, 131069, Note_off_c, 7, 67, 127
2, 131069, Note_off_c, 12, 59, 127
2, 131072, Note_on_c, 2, 50, 127
2, 131072, Note_on_c, 7, 67, 127
2, 131213, Note_off_c, 7, 67, 127
2, 131216, Note_on_c, 6, 66, 127
2, 131357, Note_off_c, 6, 66, 127
2, 131357, Note_off_c, 2, 50, 127
2, 131360, Note_on_c, 1, 61, 127
2, 131360, Note_on_c, 7, 67, 127
2, 131504, Note_on_c, 4, 76, 127
2, 131645, Note_off_c, 7, 67, 127
2, 131645, Note_off_c, 1, 61, 127
2, 131648, Note_on_c, 1, 61, 127
2, 131648, Note_on_c, 7, 67, 127
2, 131759, Note_off_c, 4, 76, 127
2, 131789, Note_off_c, 7, 67, 127
2, 131789, Note_off_c, 1, 61, 127
2, 131792, Note_on_c, 2, 62, 127
2, 131792, Note_on_c, 6, 66, 127
2, 131933, Note_off_c, 6, 66, 127
2, 131933, Note_off_c, 2, 62, 127
2, 131936, Note_on_c, 1, 61, 127
2, 131936, Note_on_c, 7, 67, 127
2, 132080, Note_on_c, 4, 76, 127
2, 132221, Note_off_c, 7, 67, 127
2, 132221, Note_off_c, 1, 61, 127
2, 132224, Note_on_c, 1, 61, 127
2, 132224, Note_on_c, 7, 67, 127
2, 132335, Note_off_c, 4, 76, 127
2, 132365, Note_off_c, 7, 67, 127
2, 132368, Note_on_c, 6, 66, 127
2, 132509, Note_off_c, 6, 66, 127
2, 132509, Note_off_c, 1, 61, 127
2, 132512, Note_on_c, 1, 61, 127
2, 132512, Note_on_c, 7, 67, 127
2, 132656, Note_on_c, 4, 76, 127
2, 132776, Note_off_c, 4, 76, 127
2, 132782, Note_off_c, 7, 67, 127
2, 132797, Note_off_c, 1, 61, 127
2, 132800, Note_on_c, 2, 50, 127
2, 132800, Note_on_c, 6, 66, 127
2, 132941, Note_off_c, 6, 66, 127
2, 132944, Note_on_c, 2, 62, 127
2, 133085, Note_off_c, 2, 62, 127
2, 133085, Note_off_c, 2, 50, 127
2, 133088, Note_on_c, 2, 62, 127
2, 133088, Note_on_c, 6, 66, 127
2, 133229, Note_off_c, 6, 66, 127
2, 133229, Note_off_c, 2, 62, 127
2, 133232, Note_on_c, 0, 60, 127
2, 133232, Note_on_c, 10, 69, 127
2, 133373, Note_off_c, 10, 69, 127
2, 133373, Note_off_c, 0, 60, 127
2, 133376, Note_on_c, 12, 59, 127
2, 133376, Note_on_c, 2, 74, 127
2, 133520, Note_on_c, 4, 64, 127
2, 133661, Note_off_c, 4, 64, 127
2, 133661, Note_off_c, 12, 59, 127
2, 133664, Note_on_c, 10, 57, 127
2, 133664, Note_on_c, 5, 65, 127
2, 133805, Note_off_c, 5, 65, 127
2, 133808, Note_on_c, 2, 62, 127
2, 133946, Note_off_c, 2, 74, 127
2, 133949, Note_off_c, 2, 62, 127
2, 133949, Note_off_c, 10, 57, 127
2, 133952, Note_on_c, 12, 59, 127
2, 133952, Note_on_c, 2, 74, 127
2, 134096, Note_on_c, 4, 64, 127
2, 134237, Note_off_c, 4, 64, 127
2, 134237, Note_off_c, 12, 59, 127
2, 134240, Note_on_c, 7, 55, 127
2, 134240, Note_on_c, 5, 65, 127
2, 134372, Note_off_c, 2, 74, 127
2, 134381, Note_off_c, 5, 65, 127
2, 134384, Note_on_c, 2, 62, 127
2, 134525, Note_off_c, 2, 62, 127
2, 134525, Note_off_c, 7, 55, 127
2, 134528, Note_on_c, 0, 48, 127
2, 134528, Note_on_c, 4, 64, 127
2, 134669, Note_off_c, 4, 64, 127
2, 134672, Note_on_c, 0, 60, 127
2, 134813, Note_off_c, 0, 60, 127
2, 134813, Note_off_c, 0, 48, 127
2, 134816, Note_on_c, 0, 60, 127
2, 134816, Note_on_c, 4, 64, 127
2, 134957, Note_off_c, 4, 64, 127
2, 134957, Note_off_c, 0, 60, 127
2, 134960, Note_on_c, 12, 59, 127
2, 134960, Note_on_c, 7, 67, 127
2, 135101, Note_off_c, 7, 67, 127
2, 135101, Note_off_c, 12, 59, 127
2, 135104, Note_on_c, 10, 57, 127
2, 135104, Note_on_c, 0, 72, 127
2, 135248, Note_on_c, 2, 62, 127
2, 135389, Note_off_c, 2, 62, 127
2, 135389, Note_off_c, 10, 57, 127
2, 135392, Note_on_c, 7, 55, 127
2, 135392, Note_on_c, 4, 64, 127
2, 135533, Note_off_c, 4, 64, 127
2, 135536, Note_on_c, 0, 60, 127
2, 135674, Note_off_c, 0, 72, 127
2, 135677, Note_off_c, 0, 60, 127
2, 135677, Note_off_c, 7, 55, 127
2, 135680, Note_on_c, 10, 57, 127
2, 135680, Note_on_c, 0, 72, 127
2, 135824, Note_on_c, 2, 62, 127
2, 135965, Note_off_c, 2, 62, 127
2, 135965, Note_off_c, 10, 57, 127
2, 135968, Note_on_c, 6, 54, 127
2, 135968, Note_on_c, 4, 64, 127
2, 136100, Note_off_c, 0, 72, 127
2, 136109, Note_off_c, 4, 64, 127
2, 136112, Note_on_c, 0, 60, 127
2, 136253, Note_off_c, 0, 60, 127
2, 136253, Note_off_c, 6, 54, 127
2, 136256, Note_on_c, 12, 59, 127
2, 136256, Note_on_c, 2, 62, 127
2, 136397, Note_off_c, 12, 59, 127
2, 136400, Note_on_c, 12, 47, 127
2, 136541, Note_off_c, 12, 47, 127
2, 136541, Note_off_c, 2, 62, 127
2, 136544, Note_on_c, 2, 50, 127
2, 136544, Note_on_c, 2, 74, 127
2, 136544, Note_on_c, 12, 71, 127
2, 136685, Note_off_c, 2, 50, 127
2, 136688, Note_on_c, 6, 54, 127
2, 136829, Note_off_c, 6, 54, 127
2, 136829, Note_off_c, 12, 71, 127
2, 136829, Note_off_c, 2, 74, 127
2, 136832, Note_on_c, 12, 59, 127
2, 136832, Note_on_c, 12, 71, 127
2, 136832, Note_on_c, 2, 74, 127
2, 136973, Note_off_c, 2, 74, 127
2, 136973, Note_off_c, 12, 71, 127
2, 136973, Note_off_c, 12, 59, 127
2, 136976, Note_on_c, 6, 54, 127
2, 136976, Note_on_c, 4, 76, 127
2, 137117, Note_off_c, 4, 76, 127
2, 137117, Note_off_c, 6, 54, 127
2, 137120, Note_on_c, 8, 56, 127
2, 137120, Note_on_c, 12, 71, 127
2, 137120, Note_on_c, 2, 74, 127
2, 137261, Note_off_c, 8, 56, 127
2, 137264, Note_on_c, 4, 52, 127
2, 137405, Note_off_c, 4, 52, 127
2, 137405, Note_off_c, 2, 74, 127
2, 137405, Note_off_c, 12, 71, 127
2, 137408, Note_on_c, 12, 59, 127
2, 137408, Note_on_c, 2, 74, 127
2, 137408, Note_on_c, 12, 71, 127
2, 137549, Note_off_c, 12, 59, 127
2, 137552, Note_on_c, 6, 54, 127
2, 137693, Note_off_c, 6, 54, 127
2, 137693, Note_off_c, 12, 71, 127
2, 137693, Note_off_c, 2, 74, 127
2, 137696, Note_on_c, 8, 56, 127
2, 137696, Note_on_c, 2, 74, 127
2, 137696, Note_on_c, 12, 71, 127
2, 137837, Note_off_c, 8, 56, 127
2, 137840, Note_on_c, 4, 52, 127
2, 137981, Note_off_c, 4, 52, 127
2, 137981, Note_off_c, 12, 71, 127
2, 137981, Note_off_c, 2, 74, 127
2, 137984, Note_on_c, 10, 57, 127
2, 137984, Note_on_c, 2, 74, 127
2, 137984, Note_on_c, 12, 71, 127
2, 138125, Note_off_c, 10, 57, 127
2, 138128, Note_on_c, 10, 45, 127
2, 138269, Note_off_c, 10, 45, 127
2, 138269, Note_off_c, 12, 71, 127
2, 138269, Note_off_c, 2, 74, 127
2, 138272, Note_on_c, 0, 48, 127
2, 138272, Note_on_c, 0, 72, 127
2, 138272, Note_on_c, 10, 69, 127
2, 138413, Note_off_c, 0, 48, 127
2, 138416, Note_on_c, 4, 52, 127
2, 138557, Note_off_c, 4, 52, 127
2, 138557, Note_off_c, 10, 69, 127
2, 138557, Note_off_c, 0, 72, 127
2, 138560, Note_on_c, 10, 57, 127
2, 138560, Note_on_c, 0, 72, 127
2, 138560, Note_on_c, 10, 69, 127
2, 138701, Note_off_c, 10, 69, 127
2, 138701, Note_off_c, 0, 72, 127
2, 138701, Note_off_c, 10, 57, 127
2, 138704, Note_on_c, 4, 52, 127
2, 138704, Note_on_c, 2, 74, 127
2, 138845, Note_off_c, 2, 74, 127
2, 138845, Note_off_c, 4, 52, 127
2, 138848, Note_on_c, 6, 54, 127
2, 138848, Note_on_c, 0, 72, 127
2, 138848, Note_on_c, 10, 69, 127
2, 138989, Note_off_c, 6, 54, 127
2, 138992, Note_on_c, 2, 50, 127
2, 139133, Note_off_c, 2, 50, 127
2, 139133, Note_off_c, 10, 69, 127
2, 139133, Note_off_c, 0, 72, 127
2, 139136, Note_on_c, 10, 57, 127
2, 139136, Note_on_c, 0, 72, 127
2, 139136, Note_on_c, 10, 69, 127
2, 139277, Note_off_c, 10, 57, 127
2, 139280, Note_on_c, 4, 52, 127
2, 139421, Note_off_c, 4, 52, 127
2, 139421, Note_off_c, 10, 69, 127
2, 139421, Note_off_c, 0, 72, 127
2, 139424, Note_on_c, 6, 54, 127
2, 139424, Note_on_c, 0, 72, 127
2, 139424, Note_on_c, 10, 69, 127
2, 139565, Note_off_c, 6, 54, 127
2, 139568, Note_on_c, 2, 50, 127
2, 139709, Note_off_c, 2, 50, 127
2, 139709, Note_off_c, 10, 69, 127
2, 139709, Note_off_c, 0, 72, 127
2, 139712, Note_on_c, 7, 55, 127
2, 139712, Note_on_c, 12, 71, 127
2, 139853, Note_off_c, 12, 71, 127
2, 139856, Note_on_c, 10, 69, 127
2, 139997, Note_off_c, 10, 69, 127
2, 139997, Note_off_c, 7, 55, 127
2, 140000, Note_on_c, 12, 59, 127
2, 140000, Note_on_c, 7, 67, 127
2, 140141, Note_off_c, 7, 67, 127
2, 140144, Note_on_c, 6, 66, 127
2, 140285, Note_off_c, 6, 66, 127
2, 140285, Note_off_c, 12, 59, 127
2, 140288, Note_on_c, 4, 52, 127
2, 140288, Note_on_c, 7, 67, 127
2, 140429, Note_off_c, 7, 67, 127
2, 140432, Note_on_c, 6, 66, 127
2, 140573, Note_off_c, 6, 66, 127
2, 140573, Note_off_c, 4, 52, 127
2, 140576, Note_on_c, 4, 64, 127
2, 140576, Note_on_c, 7, 67, 127
2, 140717, Note_off_c, 7, 67, 127
2, 140720, Note_on_c, 0, 72, 127
2, 140861, Note_off_c, 0, 72, 127
2, 140861, Note_off_c, 4, 64, 127
2, 140864, Note_on_c, 2, 62, 127
2, 140864, Note_on_c, 6, 66, 127
2, 141005, Note_off_c, 6, 66, 127
2, 141005, Note_off_c, 2, 62, 127
2, 141008, Note_on_c, 12, 59, 127
2, 141008, Note_on_c, 12, 71, 127
2, 141149, Note_off_c, 12, 71, 127
2, 141149, Note_off_c, 12, 59, 127
2, 141152, Note_on_c, 0, 60, 127
2, 141152, Note_on_c, 4, 64, 127
2, 141293, Note_off_c, 4, 64, 127
2, 141293, Note_off_c, 0, 60, 127
2, 141296, Note_on_c, 10, 57, 127
2, 141296, Note_on_c, 10, 69, 127
2, 141437, Note_off_c, 10, 69, 127
2, 141437, Note_off_c, 10, 57, 127
2, 141440, Note_on_c, 12, 59, 127
2, 141440, Note_on_c, 3, 63, 127
2, 141581, Note_off_c, 3, 63, 127
2, 141584, Note_on_c, 0, 72, 127
2, 141725, Note_off_c, 0, 72, 127
2, 141728, Note_on_c, 12, 71, 127
2, 141869, Note_off_c, 12, 71, 127
2, 141872, Note_on_c, 10, 69, 127
2, 142013, Note_off_c, 10, 69, 127
2, 142016, Note_on_c, 6, 66, 127
2, 142157, Note_off_c, 6, 66, 127
2, 142160, Note_on_c, 0, 72, 127
2, 142301, Note_off_c, 0, 72, 127
2, 142304, Note_on_c, 12, 71, 127
2, 142445, Note_off_c, 12, 71, 127
2, 142448, Note_on_c, 10, 69, 127
2, 142589, Note_off_c, 10, 69, 127
2, 142592, Note_on_c, 10, 69, 127
2, 142733, Note_off_c, 10, 69, 127
2, 142736, Note_on_c, 0, 72, 127
2, 142877, Note_off_c, 0, 72, 127
2, 142880, Note_on_c, 12, 71, 127
2, 143021, Note_off_c, 12, 71, 127
2, 143024, Note_on_c, 10, 69, 127
2, 143165, Note_off_c, 10, 69, 127
2, 143165, Note_off_c, 12, 59, 127
2, 143168, Note_on_c, 12, 47, 127
2, 143168, Note_on_c, 12, 59, 127
2, 143312, Note_on_c, 10, 69, 127
2, 143453, Note_off_c, 10, 69, 127
2, 143456, Note_on_c, 7, 67, 127
2, 143597, Note_off_c, 7, 67, 127
2, 143600, Note_on_c, 6, 66, 127
2, 143741, Note_off_c, 6, 66, 127
2, 143744, Note_on_c, 3, 63, 127
2, 143885, Note_off_c, 3, 63, 127
2, 143888, Note_on_c, 10, 69, 127
2, 144029, Note_off_c, 10, 69, 127
2, 144032, Note_on_c, 7, 67, 127
2, 144173, Note_off_c, 7, 67, 127
2, 144176, Note_on_c, 6, 66, 127
2, 144317, Note_off_c, 6, 66, 127
2, 144320, Note_on_c, 6, 66, 127
2, 144461, Note_off_c, 6, 66, 127
2, 144464, Note_on_c, 10, 69, 127
2, 144605, Note_off_c, 10, 69, 127
2, 144608, Note_on_c, 7, 67, 127
2, 144749, Note_off_c, 7, 67, 127
2, 144752, Note_on_c, 6, 66, 127
2, 144893, Note_off_c, 6, 66, 127
2, 144893, Note_off_c, 12, 59, 127
2, 144893, Note_off_c, 12, 47, 127
2, 144896, Note_on_c, 12, 47, 127
2, 144896, Note_on_c, 10, 57, 127
2, 145040, Note_on_c, 6, 66, 127
2, 145181, Note_off_c, 6, 66, 127
2, 145184, Note_on_c, 4, 64, 127
2, 145325, Note_off_c, 4, 64, 127
2, 145328, Note_on_c, 3, 63, 127
2, 145469, Note_off_c, 3, 63, 127
2, 145472, Note_on_c, 0, 60, 127
2, 145613, Note_off_c, 0, 60, 127
2, 145616, Note_on_c, 6, 66, 127
2, 145757, Note_off_c, 6, 66, 127
2, 145760, Note_on_c, 4, 64, 127
2, 145901, Note_off_c, 4, 64, 127
2, 145904, Note_on_c, 3, 63, 127
2, 146045, Note_off_c, 3, 63, 127
2, 146048, Note_on_c, 3, 63, 127
2, 146189, Note_off_c, 3, 63, 127
2, 146192, Note_on_c, 6, 66, 127
2, 146333, Note_off_c, 6, 66, 127
2, 146336, Note_on_c, 4, 64, 127
2, 146477, Note_off_c, 4, 64, 127
2, 146480, Note_on_c, 3, 63, 127
2, 146621, Note_off_c, 10, 57, 127
2, 146765, Note_off_c, 3, 63, 127
2, 146768, Note_on_c, 6, 66, 127
2, 146909, Note_off_c, 6, 66, 127
2, 146909, Note_off_c, 12, 47, 127
2, 146912, Note_on_c, 12, 47, 127
2, 146912, Note_on_c, 4, 64, 127
2, 147053, Note_off_c, 4, 64, 127
2, 147056, Note_on_c, 3, 63, 127
2, 147197, Note_off_c, 3, 63, 127
2, 147197, Note_off_c, 12, 47, 127
2, 147200, Note_on_c, 3, 51, 127
2, 147200, Note_on_c, 0, 72, 127
2, 147341, Note_off_c, 0, 72, 127
2, 147344, Note_on_c, 6, 66, 127
2, 147485, Note_off_c, 6, 66, 127
2, 147485, Note_off_c, 3, 51, 127
2, 147488, Note_on_c, 6, 54, 127
2, 147488, Note_on_c, 4, 64, 127
2, 147629, Note_off_c, 4, 64, 127
2, 147632, Note_on_c, 3, 63, 127
2, 147773, Note_off_c, 3, 63, 127
2, 147773, Note_off_c, 6, 54, 127
2, 147776, Note_on_c, 3, 51, 127
2, 147776, Note_on_c, 12, 71, 127
2, 147917, Note_off_c, 12, 71, 127
2, 147920, Note_on_c, 10, 69, 127
2, 148061, Note_off_c, 10, 69, 127
2, 148061, Note_off_c, 3, 51, 127
2, 148064, Note_on_c, 12, 47, 127
2, 148064, Note_on_c, 7, 67, 127
2, 148205, Note_off_c, 7, 67, 127
2, 148208, Note_on_c, 6, 66, 127
2, 148349, Note_off_c, 6, 66, 127
2, 148349, Note_off_c, 12, 47, 127
2, 148352, Note_on_c, 4, 40, 127
2, 148352, Note_on_c, 7, 67, 127
2, 148637, Note_off_c, 7, 67, 127
2, 148640, Note_on_c, 12, 71, 127
2, 148925, Note_off_c, 12, 71, 127
2, 148928, Note_on_c, 4, 64, 127
2, 149072, Note_off_c, 4, 40, 127
2, 149213, Note_off_c, 4, 64, 127
2, 149216, Note_on_c, 7, 55, 127
2, 149216, Note_on_c, 4, 52, 127
2, 149216, Note_on_c, 4, 76, 127
2, 149501, Note_off_c, 4, 76, 127
2, 149501, Note_off_c, 4, 52, 127
2, 149501, Note_off_c, 7, 55, 127
2, 149504, Note_on_c, 6, 54, 127
2, 149504, Note_on_c, 10, 57, 127
2, 149504, Note_on_c, 2, 74, 127
2, 149645, Note_off_c, 2, 74, 127
2, 149648, Note_on_c, 12, 71, 127
2, 149789, Note_off_c, 12, 71, 127
2, 149789, Note_off_c, 10, 57, 127
2, 149789, Note_off_c, 6, 54, 127
2, 149792, Note_on_c, 6, 54, 127
2, 149792, Note_on_c, 2, 50, 127
2, 149792, Note_on_c, 0, 72, 127
2, 149933, Note_off_c, 0, 72, 127
2, 149936, Note_on_c, 10, 69, 127
2, 150077, Note_off_c, 10, 69, 127
2, 150077, Note_off_c, 2, 50, 127
2, 150077, Note_off_c, 6, 54, 127
2, 150080, Note_on_c, 7, 55, 127
2, 150080, Note_on_c, 12, 71, 127
2, 150221, Note_off_c, 12, 71, 127
2, 150224, Note_on_c, 6, 66, 127
2, 150365, Note_off_c, 6, 66, 127
2, 150368, Note_on_c, 7, 43, 127
2, 150368, Note_on_c, 7, 67, 127
2, 150509, Note_off_c, 7, 67, 127
2, 150512, Note_on_c, 3, 63, 127
2, 150650, Note_off_c, 7, 55, 127
2, 150653, Note_off_c, 3, 63, 127
2, 150656, Note_on_c, 4, 64, 127
2, 150797, Note_off_c, 4, 64, 127
2, 150800, Note_on_c, 7, 67, 127
2, 150941, Note_off_c, 7, 67, 127
2, 150941, Note_off_c, 7, 43, 127
2, 150944, Note_on_c, 4, 64, 127
2, 150944, Note_on_c, 10, 57, 127
2, 150944, Note_on_c, 0, 72, 127
2, 151085, Note_off_c, 0, 72, 127
2, 151088, Note_on_c, 10, 69, 127
2, 151229, Note_off_c, 10, 69, 127
2, 151229, Note_off_c, 10, 57, 127
2, 151229, Note_off_c, 4, 64, 127
2, 151232, Note_on_c, 7, 55, 127
2, 151232, Note_on_c, 4, 64, 127
2, 151232, Note_on_c, 12, 71, 127
2, 151373, Note_off_c, 12, 71, 127
2, 151376, Note_on_c, 7, 67, 127
2, 151517, Note_off_c, 7, 67, 127
2, 151517, Note_off_c, 4, 64, 127
2, 151517, Note_off_c, 7, 55, 127
2, 151520, Note_on_c, 3, 63, 127
2, 151520, Note_on_c, 6, 54, 127
2, 151520, Note_on_c, 10, 69, 127
2, 151661, Note_off_c, 10, 69, 127
2, 151664, Note_on_c, 6, 66, 127
2, 151805, Note_off_c, 6, 66, 127
2, 151805, Note_off_c, 6, 54, 127
2, 151805, Note_off_c, 3, 63, 127
2, 151808, Note_on_c, 4, 52, 127
2, 151808, Note_on_c, 4, 64, 127
2, 151808, Note_on_c, 7, 67, 127
2, 151949, Note_off_c, 7, 67, 127
2, 151952, Note_on_c, 6, 66, 127
2, 152093, Note_off_c, 6, 66, 127
2, 152096, Note_on_c, 7, 67, 127
2, 152237, Note_off_c, 7, 67, 127
2, 152240, Note_on_c, 3, 63, 127
2, 152378, Note_off_c, 4, 64, 127
2, 152381, Note_off_c, 3, 63, 127
2, 152384, Note_on_c, 4, 64, 127
2, 152525, Note_off_c, 4, 64, 127
2, 152528, Note_off_c, 4, 52, 127
2, 152528, Note_on_c, 7, 67, 127
2, 152669, Note_off_c, 7, 67, 127
2, 152672, Note_on_c, 7, 55, 127
2, 152672, Note_on_c, 4, 64, 127
2, 152672, Note_on_c, 12, 71, 127
2, 152813, Note_off_c, 12, 71, 127
2, 152816, Note_on_c, 7, 67, 127
2, 152957, Note_off_c, 7, 67, 127
2, 152957, Note_off_c, 4, 64, 127
2, 152957, Note_off_c, 7, 55, 127
2, 152960, Note_on_c, 6, 54, 127
2, 152960, Note_on_c, 3, 63, 127
2, 152960, Note_on_c, 10, 69, 127
2, 153101, Note_off_c, 10, 69, 127
2, 153104, Note_on_c, 6, 66, 127
2, 153245, Note_off_c, 6, 66, 127
2, 153245, Note_off_c, 3, 63, 127
2, 153245, Note_off_c, 6, 54, 127
2, 153248, Note_on_c, 12, 59, 127
2, 153248, Note_on_c, 4, 52, 127
2, 153248, Note_on_c, 7, 67, 127
2, 153389, Note_off_c, 7, 67, 127
2, 153392, Note_on_c, 4, 64, 127
2, 153533, Note_off_c, 4, 64, 127
2, 153533, Note_off_c, 4, 52, 127
2, 153533, Note_off_c, 12, 59, 127
2, 153536, Note_on_c, 3, 51, 127
2, 153536, Note_on_c, 10, 57, 127
2, 153536, Note_on_c, 6, 66, 127
2, 153677, Note_off_c, 6, 66, 127
2, 153680, Note_on_c, 4, 64, 127
2, 153821, Note_off_c, 4, 64, 127
2, 153821, Note_off_c, 3, 51, 127
2, 153824, Note_on_c, 12, 47, 127
2, 153824, Note_on_c, 6, 66, 127
2, 153836, Note_off_c, 10, 57, 127
2, 153968, Note_on_c, 3, 63, 127
2, 154109, Note_off_c, 3, 63, 127
2, 154109, Note_off_c, 6, 66, 127
2, 154109, Note_off_c, 12, 47, 127
2, 154112, Note_on_c, 0, 48, 127
2, 154112, Note_on_c, 7, 55, 127
2, 154112, Note_on_c, 4, 64, 127
2, 154253, Note_off_c, 4, 64, 127
2, 154256, Note_on_c, 3, 63, 127
2, 154397, Note_off_c, 3, 63, 127
2, 154397, Note_off_c, 7, 55, 127
2, 154397, Note_off_c, 0, 48, 127
2, 154400, Note_on_c, 10, 45, 127
2, 154400, Note_on_c, 6, 54, 127
2, 154400, Note_on_c, 4, 52, 127
2, 154400, Note_on_c, 4, 64, 127
2, 154541, Note_off_c, 4, 64, 127
2, 154544, Note_on_c, 0, 72, 127
2, 154685, Note_off_c, 0, 72, 127
2, 154685, Note_off_c, 6, 54, 127
2, 154685, Note_off_c, 10, 45, 127
2, 154688, Note_on_c, 7, 55, 127
2, 154688, Note_on_c, 12, 47, 127
2, 154688, Note_on_c, 12, 71, 127
2, 154829, Note_off_c, 12, 71, 127
2, 154832, Note_on_c, 7, 67, 127
2, 154970, Note_off_c, 4, 52, 127
2, 154973, Note_off_c, 7, 67, 127
2, 154973, Note_off_c, 7, 55, 127
2, 154976, Note_on_c, 6, 54, 127
2, 154976, Note_on_c, 3, 51, 127
2, 154976, Note_on_c, 10, 69, 127
2, 155117, Note_off_c, 10, 69, 127
2, 155120, Note_on_c, 6, 66, 127
2, 155258, Note_off_c, 12, 47, 127
2, 155261, Note_off_c, 6, 66, 127
2, 155261, Note_off_c, 3, 51, 127
2, 155261, Note_off_c, 6, 54, 127
2, 155264, Note_on_c, 4, 40, 127
2, 155264, Note_on_c, 4, 52, 127
2, 155264, Note_on_c, 7, 67, 127
2, 155405, Note_off_c, 7, 67, 127
2, 155408, Note_on_c, 6, 66, 127
2, 155534, Note_off_c, 4, 52, 127
2, 155534, Note_off_c, 4, 40, 127
2, 155549, Note_off_c, 6, 66, 127
2, 155552, Note_on_c, 12, 59, 127
2, 155552, Note_on_c, 4, 64, 127
2, 155693, Note_off_c, 4, 64, 127
2, 155696, Note_on_c, 3, 63, 127
2, 155837, Note_off_c, 3, 63, 127
2, 155837, Note_off_c, 12, 59, 127
2, 155840, Note_on_c, 4, 52, 127
2, 155840, Note_on_c, 4, 64, 127
2, 155981, Note_off_c, 4, 64, 127
2, 155984, Note_on_c, 6, 66, 127
2, 156125, Note_off_c, 6, 66, 127
2, 156125, Note_off_c, 4, 52, 127
2, 156128, Note_on_c, 4, 64, 127
2, 156128, Note_on_c, 7, 67, 127
2, 156269, Note_off_c, 7, 67, 127
2, 156272, Note_on_c, 0, 72, 127
2, 156413, Note_off_c, 0, 72, 127
2, 156413, Note_off_c, 4, 64, 127
2, 156416, Note_on_c, 2, 62, 127
2, 156416, Note_on_c, 12, 71, 127
2, 156557, Note_off_c, 12, 71, 127
2, 156557, Note_off_c, 2, 62, 127
2, 156560, Note_on_c, 12, 59, 127
2, 156560, Note_on_c, 7, 67, 127
2, 156701, Note_off_c, 7, 67, 127
2, 156701, Note_off_c, 12, 59, 127
2, 156704, Note_on_c, 0, 60, 127
2, 156704, Note_on_c, 10, 69, 127
2, 156845, Note_off_c, 10, 69, 127
2, 156845, Note_off_c, 0, 60, 127
2, 156848, Note_on_c, 10, 57, 127
2, 156848, Note_on_c, 6, 66, 127
2, 156989, Note_off_c, 6, 66, 127
2, 156989, Note_off_c, 10, 57, 127
2, 156992, Note_on_c, 12, 59, 127
2, 156992, Note_on_c, 7, 67, 127
2, 157133, Note_off_c, 7, 67, 127
2, 157133, Note_off_c, 12, 59, 127
2, 157136, Note_on_c, 10, 57, 127
2, 157136, Note_on_c, 6, 66, 127
2, 157277, Note_off_c, 6, 66, 127
2, 157277, Note_off_c, 10, 57, 127
2, 157280, Note_on_c, 7, 55, 127
2, 157280, Note_on_c, 4, 64, 127
2, 157421, Note_off_c, 4, 64, 127
2, 157421, Note_off_c, 7, 55, 127
2, 157424, Note_on_c, 12, 59, 127
2, 157424, Note_on_c, 3, 63, 127
2, 157565, Note_off_c, 3, 63, 127
2, 157565, Note_off_c, 12, 59, 127
2, 157568, Note_on_c, 4, 52, 127
2, 157568, Note_on_c, 4, 64, 127
2, 157709, Note_off_c, 4, 64, 127
2, 157709, Note_off_c, 4, 52, 127
2, 157712, Note_on_c, 7, 55, 127
2, 157712, Note_on_c, 6, 66, 127
2, 157853, Note_off_c, 6, 66, 127
2, 157853, Note_off_c, 7, 55, 127
2, 157856, Note_on_c, 0, 60, 127
2, 157856, Note_on_c, 7, 67, 127
2, 157997, Note_off_c, 7, 67, 127
2, 157997, Note_off_c, 0, 60, 127
2, 158000, Note_on_c, 10, 57, 127
2, 158000, Note_on_c, 10, 69, 127
2, 158141, Note_off_c, 10, 69, 127
2, 158141, Note_off_c, 10, 57, 127
2, 158144, Note_on_c, 12, 59, 127
2, 158144, Note_on_c, 7, 67, 127
2, 158285, Note_off_c, 7, 67, 127
2, 158285, Note_off_c, 12, 59, 127
2, 158288, Note_on_c, 7, 55, 127
2, 158288, Note_on_c, 4, 64, 127
2, 158429, Note_off_c, 4, 64, 127
2, 158429, Note_off_c, 7, 55, 127
2, 158432, Note_on_c, 10, 57, 127
2, 158432, Note_on_c, 6, 66, 127
2, 158573, Note_off_c, 6, 66, 127
2, 158573, Note_off_c, 10, 57, 127
2, 158576, Note_on_c, 6, 54, 127
2, 158576, Note_on_c, 3, 63, 127
2, 158717, Note_off_c, 3, 63, 127
2, 158717, Note_off_c, 6, 54, 127
2, 158720, Note_on_c, 7, 55, 127
2, 158720, Note_on_c, 4, 64, 127
2, 158861, Note_off_c, 4, 64, 127
2, 158861, Note_off_c, 7, 55, 127
2, 158864, Note_on_c, 6, 54, 127
2, 158864, Note_on_c, 6, 66, 127
2, 159005, Note_off_c, 6, 66, 127
2, 159005, Note_off_c, 6, 54, 127
2, 159008, Note_on_c, 4, 52, 127
2, 159008, Note_on_c, 7, 67, 127
2, 159149, Note_off_c, 7, 67, 127
2, 159149, Note_off_c, 4, 52, 127
2, 159152, Note_on_c, 7, 55, 127
2, 159152, Note_on_c, 4, 64, 127
2, 159293, Note_off_c, 4, 64, 127
2, 159293, Note_off_c, 7, 55, 127
2, 159296, Note_on_c, 12, 47, 127
2, 159296, Note_on_c, 3, 63, 127
2, 159437, Note_off_c, 3, 63, 127
2, 159437, Note_off_c, 12, 47, 127
2, 159440, Note_on_c, 4, 52, 127
2, 159440, Note_on_c, 4, 64, 127
2, 159581, Note_off_c, 4, 64, 127
2, 159581, Note_off_c, 4, 52, 127
2, 159584, Note_on_c, 12, 59, 127
2, 159584, Note_on_c, 7, 67, 127
2, 159725, Note_off_c, 7, 67, 127
2, 159725, Note_off_c, 12, 59, 127
2, 159728, Note_on_c, 7, 55, 127
2, 159728, Note_on_c, 4, 64, 127
2, 159869, Note_off_c, 4, 64, 127
2, 159869, Note_off_c, 7, 55, 127
2, 159872, Note_on_c, 10, 57, 127
2, 159872, Note_on_c, 6, 66, 127
2, 160013, Note_off_c, 6, 66, 127
2, 160013, Note_off_c, 10, 57, 127
2, 160016, Note_on_c, 6, 54, 127
2, 160016, Note_on_c, 3, 63, 127
2, 160157, Note_off_c, 3, 63, 127
2, 160157, Note_off_c, 6, 54, 127
2, 160160, Note_on_c, 7, 55, 127
2, 160160, Note_on_c, 4, 64, 127
2, 160301, Note_off_c, 4, 64, 127
2, 160301, Note_off_c, 7, 55, 127
2, 160304, Note_on_c, 4, 52, 127
2, 160304, Note_on_c, 1, 61, 127
2, 160445, Note_off_c, 1, 61, 127
2, 160445, Note_off_c, 4, 52, 127
2, 160448, Note_on_c, 6, 54, 127
2, 160448, Note_on_c, 3, 63, 127
2, 160589, Note_off_c, 3, 63, 127
2, 160589, Note_off_c, 6, 54, 127
2, 160592, Note_on_c, 3, 51, 127
2, 160592, Note_on_c, 0, 72, 127
2, 160733, Note_off_c, 0, 72, 127
2, 160733, Note_off_c, 3, 51, 127
2, 160736, Note_on_c, 4, 52, 127
2, 160736, Note_on_c, 12, 71, 127
2, 160877, Note_off_c, 12, 71, 127
2, 160877, Note_off_c, 4, 52, 127
2, 160880, Note_on_c, 3, 51, 127
2, 160880, Note_on_c, 10, 69, 127
2, 161021, Note_off_c, 10, 69, 127
2, 161021, Note_off_c, 3, 51, 127
2, 161024, Note_on_c, 4, 52, 127
2, 161024, Note_on_c, 7, 67, 127
2, 161165, Note_off_c, 7, 67, 127
2, 161168, Note_on_c, 10, 69, 127
2, 161309, Note_off_c, 10, 69, 127
2, 161309, Note_off_c, 4, 52, 127
2, 161312, Note_on_c, 10, 57, 127
2, 161312, Note_on_c, 12, 71, 127
2, 161453, Note_off_c, 12, 71, 127
2, 161456, Note_on_c, 0, 72, 127
2, 161597, Note_off_c, 0, 72, 127
2, 161597, Note_off_c, 10, 57, 127
2, 161600, Note_on_c, 12, 59, 127
2, 161600, Note_on_c, 3, 63, 127
2, 161600, Note_on_c, 7, 67, 127
2, 161669, Note_off_c, 7, 67, 127
2, 161672, Note_on_c, 6, 66, 127
2, 161741, Note_off_c, 6, 66, 127
2, 161744, Note_on_c, 7, 67, 127
2, 161813, Note_off_c, 7, 67, 127
2, 161816, Note_on_c, 6, 66, 127
2, 161885, Note_off_c, 6, 66, 127
2, 161888, Note_on_c, 12, 47, 127
2, 161888, Note_on_c, 7, 67, 127
2, 161957, Note_off_c, 7, 67, 127
2, 161960, Note_on_c, 6, 66, 127
2, 162020, Note_off_c, 3, 63, 127
2, 162029, Note_off_c, 6, 66, 127
2, 162032, Note_on_c, 4, 64, 127
2, 162170, Note_off_c, 12, 59, 127
2, 162173, Note_off_c, 4, 64, 127
2, 162173, Note_off_c, 12, 47, 127
2, 162176, Note_on_c, 4, 52, 127
2, 162176, Note_on_c, 4, 64, 127
2, 162461, Note_off_c, 4, 64, 127
2, 162464, Note_on_c, 7, 67, 127
2, 162464, Note_on_c, 4, 64, 127
2, 162749, Note_off_c, 4, 64, 127
2, 162749, Note_off_c, 7, 67, 127
2, 162752, Note_on_c, 7, 67, 127
2, 162752, Note_on_c, 4, 64, 127
2, 162893, Note_off_c, 4, 64, 127
2, 162893, Note_off_c, 7, 67, 127
2, 162893, Note_off_c, 4, 52, 127
2, 162896, Note_on_c, 4, 40, 127
2, 162896, Note_on_c, 10, 69, 127
2, 163037, Note_off_c, 10, 69, 127
2, 163037, Note_off_c, 4, 40, 127
2, 163040, Note_on_c, 7, 43, 127
2, 163040, Note_on_c, 7, 67, 127
2, 163040, Note_on_c, 4, 64, 127
2, 163181, Note_off_c, 7, 43, 127
2, 163184, Note_on_c, 12, 47, 127
2, 163325, Note_off_c, 12, 47, 127
2, 163325, Note_off_c, 4, 64, 127
2, 163325, Note_off_c, 7, 67, 127
2, 163328, Note_on_c, 4, 52, 127
2, 163328, Note_on_c, 4, 64, 127
2, 163328, Note_on_c, 7, 67, 127
2, 163469, Note_off_c, 4, 52, 127
2, 163472, Note_on_c, 2, 50, 127
2, 163613, Note_off_c, 2, 50, 127
2, 163613, Note_off_c, 7, 67, 127
2, 163613, Note_off_c, 4, 64, 127
2, 163616, Note_on_c, 1, 49, 127
2, 163616, Note_on_c, 4, 64, 127
2, 163616, Note_on_c, 7, 67, 127
2, 163757, Note_off_c, 1, 49, 127
2, 163760, Note_on_c, 12, 47, 127
2, 163901, Note_off_c, 12, 47, 127
2, 163901, Note_off_c, 7, 67, 127
2, 163901, Note_off_c, 4, 64, 127
2, 163904, Note_on_c, 10, 45, 127
2, 163904, Note_on_c, 7, 67, 127
2, 163904, Note_on_c, 1, 61, 127
2, 163904, Note_on_c, 11, 70, 127
2, 164189, Note_off_c, 7, 67, 127
2, 164192, Note_on_c, 4, 64, 127
2, 164192, Note_on_c, 7, 67, 127
2, 164244, Note_off_c, 11, 70, 127
2, 164474, Note_off_c, 1, 61, 127
2, 164477, Note_off_c, 7, 67, 127
2, 164477, Note_off_c, 4, 64, 127
2, 164480, Note_on_c, 4, 64, 127
2, 164480, Note_on_c, 7, 67, 127
2, 164621, Note_off_c, 7, 67, 127
2, 164621, Note_off_c, 4, 64, 127
2, 164621, Note_off_c, 10, 45, 127
2, 164624, Note_on_c, 10, 45, 127
2, 164624, Note_on_c, 10, 69, 127
2, 164765, Note_off_c, 10, 69, 127
2, 164765, Note_off_c, 10, 45, 127
2, 164768, Note_on_c, 1, 49, 127
2, 164768, Note_on_c, 4, 64, 127
2, 164768, Note_on_c, 7, 67, 127
2, 164909, Note_off_c, 1, 49, 127
2, 164912, Note_on_c, 4, 52, 127
2, 165053, Note_off_c, 4, 52, 127
2, 165053, Note_off_c, 7, 67, 127
2, 165053, Note_off_c, 4, 64, 127
2, 165056, Note_on_c, 10, 57, 127
2, 165056, Note_on_c, 7, 67, 127
2, 165056, Note_on_c, 4, 64, 127
2, 165197, Note_off_c, 7, 67, 127
2, 165197, Note_off_c, 10, 57, 127
2, 165200, Note_on_c, 7, 55, 127
2, 165200, Note_on_c, 11, 70, 127
2, 165341, Note_off_c, 7, 55, 127
2, 165344, Note_on_c, 5, 53, 127
2, 165344, Note_on_c, 10, 69, 127
2, 165362, Note_off_c, 11, 70, 127
2, 165476, Note_off_c, 4, 64, 127
2, 165485, Note_off_c, 10, 69, 127
2, 165485, Note_off_c, 5, 53, 127
2, 165488, Note_on_c, 4, 52, 127
2, 165488, Note_on_c, 7, 67, 127
2, 165629, Note_off_c, 7, 67, 127
2, 165629, Note_off_c, 4, 52, 127
2, 165632, Note_on_c, 2, 50, 127
2, 165632, Note_on_c, 5, 65, 127
2, 165917, Note_off_c, 5, 65, 127
2, 165920, Note_on_c, 5, 65, 127
2, 165920, Note_on_c, 2, 62, 127
2, 166205, Note_off_c, 2, 62, 127
2, 166205, Note_off_c, 5, 65, 127
2, 166208, Note_on_c, 5, 65, 127
2, 166208, Note_on_c, 2, 62, 127
2, 166349, Note_off_c, 2, 62, 127
2, 166349, Note_off_c, 5, 65, 127
2, 166349, Note_off_c, 2, 50, 127
2, 166352, Note_on_c, 2, 38, 127
2, 166352, Note_on_c, 7, 67, 127
2, 166493, Note_off_c, 7, 67, 127
2, 166493, Note_off_c, 2, 38, 127
2, 166496, Note_on_c, 5, 41, 127
2, 166496, Note_on_c, 5, 65, 127
2, 166496, Note_on_c, 2, 62, 127
2, 166637, Note_off_c, 5, 41, 127
2, 166640, Note_on_c, 10, 45, 127
2, 166781, Note_off_c, 10, 45, 127
2, 166781, Note_off_c, 2, 62, 127
2, 166781, Note_off_c, 5, 65, 127
2, 166784, Note_on_c, 2, 50, 127
2, 166784, Note_on_c, 5, 65, 127
2, 166784, Note_on_c, 2, 62, 127
2, 166925, Note_off_c, 2, 50, 127
2, 166928, Note_on_c, 0, 48, 127
2, 167069, Note_off_c, 0, 48, 127
2, 167069, Note_off_c, 2, 62, 127
2, 167069, Note_off_c, 5, 65, 127
2, 167072, Note_on_c, 12, 47, 127
2, 167072, Note_on_c, 5, 65, 127
2, 167072, Note_on_c, 2, 62, 127
2, 167213, Note_off_c, 12, 47, 127
2, 167216, Note_on_c, 10, 45, 127
2, 167357, Note_off_c, 10, 45, 127
2, 167357, Note_off_c, 2, 62, 127
2, 167357, Note_off_c, 5, 65, 127
2, 167360, Note_on_c, 7, 43, 127
2, 167360, Note_on_c, 5, 65, 127
2, 167360, Note_on_c, 2, 74, 127
2, 167360, Note_on_c, 12, 71, 127
2, 167645, Note_off_c, 12, 71, 127
2, 167645, Note_off_c, 5, 65, 127
2, 167648, Note_on_c, 5, 65, 127
2, 167648, Note_on_c, 2, 62, 127
2, 167930, Note_off_c, 2, 74, 127
2, 167933, Note_off_c, 2, 62, 127
2, 167933, Note_off_c, 5, 65, 127
2, 167936, Note_on_c, 5, 65, 127
2, 167936, Note_on_c, 2, 62, 127
2, 168077, Note_off_c, 2, 62, 127
2, 168077, Note_off_c, 5, 65, 127
2, 168077, Note_off_c, 7, 43, 127
2, 168080, Note_on_c, 7, 43, 127
2, 168080, Note_on_c, 7, 67, 127
2, 168221, Note_off_c, 7, 67, 127
2, 168221, Note_off_c, 7, 43, 127
2, 168224, Note_on_c, 12, 47, 127
2, 168224, Note_on_c, 5, 65, 127
2, 168224, Note_on_c, 2, 62, 127
2, 168365, Note_off_c, 12, 47, 127
2, 168368, Note_on_c, 2, 50, 127
2, 168509, Note_off_c, 2, 50, 127
2, 168509, Note_off_c, 2, 62, 127
2, 168509, Note_off_c, 5, 65, 127
2, 168512, Note_on_c, 7, 55, 127
2, 168512, Note_on_c, 5, 65, 127
2, 168512, Note_on_c, 2, 62, 127
2, 168653, Note_off_c, 5, 65, 127
2, 168653, Note_off_c, 7, 55, 127
2, 168656, Note_on_c, 5, 53, 127
2, 168656, Note_on_c, 10, 69, 127
2, 168797, Note_off_c, 10, 69, 127
2, 168797, Note_off_c, 5, 53, 127
2, 168800, Note_on_c, 4, 52, 127
2, 168800, Note_on_c, 7, 67, 127
2, 168932, Note_off_c, 2, 62, 127
2, 168941, Note_off_c, 7, 67, 127
2, 168941, Note_off_c, 4, 52, 127
2, 168944, Note_on_c, 2, 50, 127
2, 168944, Note_on_c, 5, 65, 127
2, 169085, Note_off_c, 5, 65, 127
2, 169085, Note_off_c, 2, 50, 127
2, 169088, Note_on_c, 0, 48, 127
2, 169088, Note_on_c, 4, 64, 127
2, 169232, Note_on_c, 12, 59, 127
2, 169373, Note_off_c, 12, 59, 127
2, 169373, Note_off_c, 0, 48, 127
2, 169376, Note_on_c, 0, 48, 127
2, 169376, Note_on_c, 0, 60, 127
2, 169508, Note_off_c, 4, 64, 127
2, 169517, Note_off_c, 0, 60, 127
2, 169520, Note_on_c, 4, 64, 127
2, 169661, Note_off_c, 0, 48, 127
2, 169664, Note_on_c, 0, 48, 127
2, 169664, Note_on_c, 7, 55, 127
2, 169805, Note_off_c, 7, 55, 127
2, 169805, Note_off_c, 0, 48, 127
2, 169808, Note_on_c, 2, 50, 127
2, 169808, Note_on_c, 12, 59, 127
2, 169949, Note_off_c, 12, 59, 127
2, 169949, Note_off_c, 2, 50, 127
2, 169952, Note_on_c, 0, 48, 127
2, 169952, Note_on_c, 0, 60, 127
2, 170090, Note_off_c, 4, 64, 127
2, 170093, Note_off_c, 0, 60, 127
2, 170096, Note_on_c, 4, 64, 127
2, 170237, Note_off_c, 0, 48, 127
2, 170240, Note_on_c, 0, 48, 127
2, 170240, Note_on_c, 7, 55, 127
2, 170381, Note_off_c, 7, 55, 127
2, 170384, Note_on_c, 12, 59, 127
2, 170525, Note_off_c, 12, 59, 127
2, 170525, Note_off_c, 0, 48, 127
2, 170528, Note_on_c, 0, 48, 127
2, 170528, Note_on_c, 0, 60, 127
2, 170666, Note_off_c, 4, 64, 127
2, 170669, Note_off_c, 0, 60, 127
2, 170672, Note_on_c, 4, 64, 127
2, 170813, Note_off_c, 4, 64, 127
2, 170813, Note_off_c, 0, 48, 127
2, 170816, Note_on_c, 2, 38, 127
2, 170816, Note_on_c, 5, 65, 127
2, 170960, Note_on_c, 12, 59, 127
2, 171101, Note_off_c, 12, 59, 127
2, 171101, Note_off_c, 2, 38, 127
2, 171104, Note_on_c, 0, 48, 127
2, 171104, Note_on_c, 0, 60, 127
2, 171236, Note_off_c, 5, 65, 127
2, 171245, Note_off_c, 0, 60, 127
2, 171248, Note_on_c, 5, 65, 127
2, 171389, Note_off_c, 0, 48, 127
2, 171392, Note_on_c, 0, 48, 127
2, 171392, Note_on_c, 7, 55, 127
2, 171533, Note_off_c, 7, 55, 127
2, 171533, Note_off_c, 0, 48, 127
2, 171536, Note_on_c, 2, 50, 127
2, 171536, Note_on_c, 12, 59, 127
2, 171677, Note_off_c, 12, 59, 127
2, 171677, Note_off_c, 2, 50, 127
2, 171680, Note_on_c, 0, 48, 127
2, 171680, Note_on_c, 0, 60, 127
2, 171818, Note_off_c, 5, 65, 127
2, 171821, Note_off_c, 0, 60, 127
2, 171824, Note_on_c, 5, 65, 127
2, 171965, Note_off_c, 0, 48, 127
2, 171968, Note_on_c, 0, 48, 127
2, 171968, Note_on_c, 7, 55, 127
2, 172109, Note_off_c, 7, 55, 127
2, 172112, Note_on_c, 12, 59, 127
2, 172253, Note_off_c, 12, 59, 127
2, 172253, Note_off_c, 0, 48, 127
2, 172256, Note_on_c, 0, 48, 127
2, 172256, Note_on_c, 0, 60, 127
2, 172394, Note_off_c, 5, 65, 127
2, 172397, Note_off_c, 0, 60, 127
2, 172400, Note_on_c, 5, 65, 127
2, 172541, Note_off_c, 5, 65, 127
2, 172541, Note_off_c, 0, 48, 127
2, 172544, Note_on_c, 4, 40, 127
2, 172544, Note_on_c, 7, 67, 127
2, 172688, Note_on_c, 12, 59, 127
2, 172829, Note_off_c, 12, 59, 127
2, 172829, Note_off_c, 4, 40, 127
2, 172832, Note_on_c, 0, 48, 127
2, 172832, Note_on_c, 0, 60, 127
2, 172964, Note_off_c, 7, 67, 127
2, 172973, Note_off_c, 0, 60, 127
2, 172976, Note_on_c, 7, 67, 127
2, 173117, Note_off_c, 0, 48, 127
2, 173120, Note_on_c, 0, 48, 127
2, 173120, Note_on_c, 7, 55, 127
2, 173261, Note_off_c, 7, 55, 127
2, 173261, Note_off_c, 0, 48, 127
2, 173264, Note_on_c, 2, 50, 127
2, 173264, Note_on_c, 12, 59, 127
2, 173405, Note_off_c, 12, 59, 127
2, 173405, Note_off_c, 2, 50, 127
2, 173408, Note_on_c, 0, 48, 127
2, 173408, Note_on_c, 0, 60, 127
2, 173546, Note_off_c, 7, 67, 127
2, 173549, Note_off_c, 0, 60, 127
2, 173552, Note_on_c, 7, 67, 127
2, 173693, Note_off_c, 0, 48, 127
2, 173696, Note_on_c, 0, 48, 127
2, 173696, Note_on_c, 7, 55, 127
2, 173837, Note_off_c, 7, 55, 127
2, 173840, Note_on_c, 12, 59, 127
2, 173981, Note_off_c, 12, 59, 127
2, 173981, Note_off_c, 0, 48, 127
2, 173984, Note_on_c, 0, 48, 127
2, 173984, Note_on_c, 0, 60, 127
2, 174122, Note_off_c, 7, 67, 127
2, 174125, Note_off_c, 0, 60, 127
2, 174128, Note_on_c, 7, 67, 127
2, 174272, Note_on_c, 5, 41, 127
2, 174272, Note_on_c, 10, 57, 127
2, 174284, Note_off_c, 0, 48, 127
2, 174413, Note_off_c, 10, 57, 127
2, 174416, Note_on_c, 7, 55, 127
2, 174557, Note_off_c, 7, 55, 127
2, 174557, Note_off_c, 5, 41, 127
2, 174560, Note_on_c, 0, 48, 127
2, 174560, Note_on_c, 10, 57, 127
2, 174698, Note_off_c, 7, 67, 127
2, 174704, Note_on_c, 7, 67, 127
2, 174845, Note_off_c, 10, 57, 127
2, 174845, Note_off_c, 0, 48, 127
2, 174848, Note_on_c, 0, 48, 127
2, 174848, Note_on_c, 10, 57, 127
2, 174989, Note_off_c, 10, 57, 127
2, 174989, Note_off_c, 0, 48, 127
2, 174992, Note_on_c, 2, 50, 127
2, 174992, Note_on_c, 7, 55, 127
2, 175133, Note_off_c, 7, 55, 127
2, 175133, Note_off_c, 2, 50, 127
2, 175136, Note_on_c, 0, 48, 127
2, 175136, Note_on_c, 10, 57, 127
2, 175274, Note_off_c, 7, 67, 127
2, 175280, Note_on_c, 7, 67, 127
2, 175421, Note_off_c, 10, 57, 127
2, 175421, Note_off_c, 0, 48, 127
2, 175424, Note_on_c, 0, 48, 127
2, 175424, Note_on_c, 10, 57, 127
2, 175565, Note_off_c, 10, 57, 127
2, 175568, Note_on_c, 7, 55, 127
2, 175709, Note_off_c, 7, 55, 127
2, 175709, Note_off_c, 0, 48, 127
2, 175712, Note_on_c, 0, 48, 127
2, 175712, Note_on_c, 10, 57, 127
2, 175850, Note_off_c, 7, 67, 127
2, 175856, Note_on_c, 7, 67, 127
2, 175997, Note_off_c, 7, 67, 127
2, 175997, Note_off_c, 10, 57, 127
2, 176000, Note_on_c, 5, 41, 127
2, 176000, Note_on_c, 10, 57, 127
2, 176012, Note_off_c, 0, 48, 127
2, 176141, Note_off_c, 10, 57, 127
2, 176144, Note_on_c, 7, 55, 127
2, 176285, Note_off_c, 7, 55, 127
2, 176285, Note_off_c, 5, 41, 127
2, 176288, Note_on_c, 2, 50, 127
2, 176288, Note_on_c, 10, 57, 127
2, 176432, Note_on_c, 5, 65, 127
2, 176573, Note_off_c, 10, 57, 127
2, 176573, Note_off_c, 2, 50, 127
2, 176576, Note_on_c, 2, 50, 127
2, 176576, Note_on_c, 10, 57, 127
2, 176717, Note_off_c, 10, 57, 127
2, 176717, Note_off_c, 2, 50, 127
2, 176720, Note_on_c, 4, 52, 127
2, 176720, Note_on_c, 7, 55, 127
2, 176861, Note_off_c, 7, 55, 127
2, 176861, Note_off_c, 4, 52, 127
2, 176864, Note_on_c, 2, 50, 127
2, 176864, Note_on_c, 10, 57, 127
2, 177002, Note_off_c, 5, 65, 127
2, 177008, Note_on_c, 5, 65, 127
2, 177149, Note_off_c, 10, 57, 127
2, 177149, Note_off_c, 2, 50, 127
2, 177152, Note_on_c, 2, 50, 127
2, 177152, Note_on_c, 10, 57, 127
2, 177293, Note_off_c, 10, 57, 127
2, 177296, Note_on_c, 7, 55, 127
2, 177437, Note_off_c, 7, 55, 127
2, 177437, Note_off_c, 2, 50, 127
2, 177440, Note_on_c, 2, 50, 127
2, 177440, Note_on_c, 10, 57, 127
2, 177578, Note_off_c, 5, 65, 127
2, 177584, Note_on_c, 5, 65, 127
2, 177725, Note_off_c, 10, 57, 127
2, 177728, Note_on_c, 7, 43, 127
2, 177728, Note_on_c, 12, 59, 127
2, 177740, Note_off_c, 2, 50, 127
2, 177869, Note_off_c, 12, 59, 127
2, 177872, Note_on_c, 10, 57, 127
2, 178013, Note_off_c, 10, 57, 127
2, 178013, Note_off_c, 7, 43, 127
2, 178016, Note_on_c, 2, 50, 127
2, 178016, Note_on_c, 12, 59, 127
2, 178154, Note_off_c, 5, 65, 127
2, 178160, Note_on_c, 5, 65, 127
2, 178301, Note_off_c, 12, 59, 127
2, 178301, Note_off_c, 2, 50, 127
2, 178304, Note_on_c, 2, 50, 127
2, 178304, Note_on_c, 12, 59, 127
2, 178445, Note_off_c, 12, 59, 127
2, 178445, Note_off_c, 2, 50, 127
2, 178448, Note_on_c, 4, 52, 127
2, 178448, Note_on_c, 10, 57, 127
2, 178589, Note_off_c, 10, 57, 127
2, 178589, Note_off_c, 4, 52, 127
2, 178592, Note_on_c, 2, 50, 127
2, 178592, Note_on_c, 12, 59, 127
2, 178730, Note_off_c, 5, 65, 127
2, 178736, Note_on_c, 5, 65, 127
2, 178877, Note_off_c, 12, 59, 127
2, 178877, Note_off_c, 2, 50, 127
2, 178880, Note_on_c, 2, 50, 127
2, 178880, Note_on_c, 12, 59, 127
2, 179021, Note_off_c, 12, 59, 127
2, 179024, Note_on_c, 10, 57, 127
2, 179165, Note_off_c, 10, 57, 127
2, 179165, Note_off_c, 2, 50, 127
2, 179168, Note_on_c, 2, 50, 127
2, 179168, Note_on_c, 12, 59, 127
2, 179306, Note_off_c, 5, 65, 127
2, 179312, Note_on_c, 5, 65, 127
2, 179453, Note_off_c, 5, 65, 127
2, 179453, Note_off_c, 12, 59, 127
2, 179456, Note_on_c, 7, 43, 127
2, 179456, Note_on_c, 0, 60, 127
2, 179468, Note_off_c, 2, 50, 127
2, 179597, Note_off_c, 0, 60, 127
2, 179600, Note_on_c, 12, 59, 127
2, 179741, Note_off_c, 12, 59, 127
2, 179741, Note_off_c, 7, 43, 127
2, 179744, Note_on_c, 4, 52, 127
2, 179744, Note_on_c, 0, 60, 127
2, 179888, Note_on_c, 4, 64, 127
2, 180029, Note_off_c, 0, 60, 127
2, 180029, Note_off_c, 4, 52, 127
2, 180032, Note_on_c, 4, 52, 127
2, 180032, Note_on_c, 0, 60, 127
2, 180068, Note_off_c, 4, 64, 127
2, 180173, Note_off_c, 0, 60, 127
2, 180173, Note_off_c, 4, 52, 127
2, 180176, Note_on_c, 5, 53, 127
2, 180176, Note_on_c, 12, 59, 127
2, 180317, Note_off_c, 12, 59, 127
2, 180317, Note_off_c, 5, 53, 127
2, 180320, Note_on_c, 4, 52, 127
2, 180320, Note_on_c, 0, 60, 127
2, 180464, Note_on_c, 4, 64, 127
2, 180605, Note_off_c, 0, 60, 127
2, 180605, Note_off_c, 4, 52, 127
2, 180608, Note_on_c, 4, 52, 127
2, 180608, Note_on_c, 0, 60, 127
2, 180644, Note_off_c, 4, 64, 127
2, 180749, Note_off_c, 0, 60, 127
2, 180752, Note_on_c, 12, 59, 127
2, 180893, Note_off_c, 12, 59, 127
2, 180893, Note_off_c, 4, 52, 127
2, 180896, Note_on_c, 4, 52, 127
2, 180896, Note_on_c, 0, 60, 127
2, 181040, Note_on_c, 4, 64, 127
2, 181181, Note_off_c, 0, 60, 127
2, 181181, Note_off_c, 4, 52, 127
2, 181184, Note_on_c, 7, 43, 127
2, 181184, Note_on_c, 0, 60, 127
2, 181220, Note_off_c, 4, 64, 127
2, 181325, Note_off_c, 0, 60, 127
2, 181328, Note_on_c, 12, 59, 127
2, 181469, Note_off_c, 12, 59, 127
2, 181469, Note_off_c, 7, 43, 127
2, 181472, Note_on_c, 6, 54, 127
2, 181472, Note_on_c, 0, 60, 127
2, 181613, Note_off_c, 0, 60, 127
2, 181616, Note_on_c, 3, 63, 127
2, 181757, Note_off_c, 3, 63, 127
2, 181757, Note_off_c, 6, 54, 127
2, 181760, Note_on_c, 6, 54, 127
2, 181760, Note_on_c, 0, 60, 127
2, 181901, Note_off_c, 0, 60, 127
2, 181901, Note_off_c, 6, 54, 127
2, 181904, Note_on_c, 7, 55, 127
2, 181904, Note_on_c, 12, 59, 127
2, 182045, Note_off_c, 12, 59, 127
2, 182045, Note_off_c, 7, 55, 127
2, 182048, Note_on_c, 6, 54, 127
2, 182048, Note_on_c, 0, 60, 127
2, 182189, Note_off_c, 0, 60, 127
2, 182192, Note_on_c, 3, 63, 127
2, 182333, Note_off_c, 3, 63, 127
2, 182333, Note_off_c, 6, 54, 127
2, 182336, Note_on_c, 6, 54, 127
2, 182336, Note_on_c, 0, 60, 127
2, 182477, Note_off_c, 0, 60, 127
2, 182480, Note_on_c, 12, 59, 127
2, 182621, Note_off_c, 12, 59, 127
2, 182621, Note_off_c, 6, 54, 127
2, 182624, Note_on_c, 6, 54, 127
2, 182624, Note_on_c, 0, 60, 127
2, 182765, Note_off_c, 0, 60, 127
2, 182768, Note_on_c, 10, 69, 127
2, 182909, Note_off_c, 10, 69, 127
2, 182909, Note_off_c, 6, 54, 127
2, 182928, Note_on_c, 12, 59, 127
2, 182928, Note_on_c, 7, 43, 127
2, 183008, Note_on_c, 10, 57, 127
2, 183023, Note_off_c, 12, 59, 127
2, 183088, Note_on_c, 12, 59, 127
2, 183103, Note_off_c, 10, 57, 127
2, 183334, Note_on_c, 2, 62, 127
2, 183475, Note_off_c, 2, 62, 127
2, 183483, Note_on_c, 5, 65, 127
2, 183488, Note_off_c, 12, 59, 127
2, 183624, Note_off_c, 5, 65, 127
2, 183630, Note_on_c, 8, 68, 127
2, 183771, Note_off_c, 8, 68, 127
2, 183777, Note_on_c, 5, 65, 127
2, 183878, Note_off_c, 7, 43, 127
2, 183918, Note_off_c, 5, 65, 127
2, 183924, Note_on_c, 2, 62, 127
2, 184065, Note_off_c, 2, 62, 127
2, 184071, Note_on_c, 12, 59, 127
2, 184212, Note_off_c, 12, 59, 127
2, 184218, Note_on_c, 7, 55, 127
2, 184353, Note_off_c, 7, 55, 127
2, 184372, Note_on_c, 5, 53, 127
2, 184512, Note_off_c, 5, 53, 127
2, 184528, Note_on_c, 2, 50, 127
2, 184673, Note_off_c, 2, 50, 127
2, 184696, Note_on_c, 12, 47, 127
2, 184846, Note_off_c, 12, 47, 127
2, 184888, Note_on_c, 7, 43, 127
2, 185128, Note_off_c, 7, 43, 127
2, 185250, Note_on_c, 0, 72, 127
2, 185316, Note_on_c, 12, 71, 127
2, 185319, Note_off_c, 0, 72, 127
2, 185384, Note_on_c, 0, 72, 127
2, 185385, Note_off_c, 12, 71, 127
2, 186064, Note_on_c, 6, 42, 127
2, 186064, Note_on_c, 3, 63, 127
2, 186064, Note_on_c, 0, 60, 127
2, 186064, Note_on_c, 10, 57, 127
2, 186992, Note_off_c, 0, 72, 127
2, 187264, Note_off_c, 10, 57, 127
2, 187264, Note_off_c, 0, 60, 127
2, 187264, Note_off_c, 3, 63, 127
2, 187264, Note_off_c, 6, 42, 127
2, 187344, Note_on_c, 5, 41, 127
2, 187344, Note_on_c, 7, 67, 127
2, 187344, Note_on_c, 12, 71, 127
2, 187344, Note_on_c, 2, 62, 127
2, 187644, Note_off_c, 2, 62, 127
2, 187644, Note_off_c, 12, 71, 127
2, 187644, Note_off_c, 7, 67, 127
2, 187644, Note_off_c, 5, 41, 127
2, 187664, Note_on_c, 4, 40, 127
2, 187664, Note_on_c, 0, 72, 127
2, 187664, Note_on_c, 7, 67, 127
2, 187733, Note_off_c, 0, 72, 127
2, 187736, Note_on_c, 12, 71, 127
2, 187805, Note_off_c, 12, 71, 127
2, 187808, Note_on_c, 0, 72, 127
2, 187949, Note_off_c, 4, 40, 127
2, 187952, Note_on_c, 5, 41, 127
2, 188093, Note_off_c, 0, 72, 127
2, 188096, Note_on_c, 2, 74, 127
2, 188234, Note_off_c, 7, 67, 127
2, 188237, Note_off_c, 2, 74, 127
2, 188237, Note_off_c, 5, 41, 127
2, 188240, Note_on_c, 7, 43, 127
2, 188240, Note_on_c, 4, 76, 127
2, 188240, Note_on_c, 12, 71, 127
2, 188366, Note_on_c, 2, 74, 127
2, 188369, Note_off_c, 4, 76, 127
2, 188429, Note_on_c, 4, 76, 127
2, 188435, Note_off_c, 2, 74, 127
2, 188492, Note_on_c, 2, 74, 127
2, 188498, Note_off_c, 4, 76, 127
2, 188525, Note_off_c, 7, 43, 127
2, 188528, Note_on_c, 5, 41, 127
2, 188555, Note_on_c, 4, 76, 127
2, 188561, Note_off_c, 2, 74, 127
2, 188618, Note_on_c, 2, 74, 127
2, 188624, Note_off_c, 4, 76, 127
2, 188681, Note_on_c, 4, 76, 127
2, 188687, Note_off_c, 2, 74, 127
2, 188744, Note_on_c, 2, 74, 127
2, 188750, Note_off_c, 4, 76, 127
2, 188813, Note_off_c, 5, 41, 127
2, 188816, Note_on_c, 7, 43, 127
2, 189101, Note_off_c, 2, 74, 127
2, 189102, Note_off_c, 12, 71, 127
2, 189104, Note_on_c, 0, 72, 127
2, 189389, Note_off_c, 0, 72, 127
2, 189389, Note_off_c, 7, 43, 127
2, 189408, Note_on_c, 0, 72, 127
2, 189408, Note_on_c, 0, 36, 127
2, 189693, Note_off_c, 0, 36, 127
2, 189693, Note_off_c, 0, 72, 127
2, 189696, Note_on_c, 4, 76, 127
2, 189981, Note_off_c, 4, 76, 127
2, 189984, Note_on_c, 10, 69, 127
2, 190269, Note_off_c, 10, 69, 127
2, 190272, Note_on_c, 10, 81, 127
2, 190557, Note_off_c, 10, 81, 127
2, 190560, Note_on_c, 7, 79, 127
2, 190701, Note_off_c, 7, 79, 127
2, 190704, Note_on_c, 4, 76, 127
2, 190845, Note_off_c, 4, 76, 127
2, 190848, Note_on_c, 5, 77, 127
2, 190989, Note_off_c, 5, 77, 127
2, 190992, Note_on_c, 2, 74, 127
2, 191133, Note_off_c, 2, 74, 127
2, 191136, Note_on_c, 4, 76, 127
2, 191277, Note_off_c, 4, 76, 127
2, 191280, Note_on_c, 2, 74, 127
2, 191421, Note_off_c, 2, 74, 127
2, 191424, Note_on_c, 0, 72, 127
2, 191424, Note_on_c, 4, 64, 127
2, 191565, Note_off_c, 0, 72, 127
2, 191568, Note_on_c, 12, 71, 127
2, 191709, Note_off_c, 12, 71, 127
2, 191709, Note_off_c, 4, 64, 127
2, 191712, Note_on_c, 0, 72, 127
2, 191712, Note_on_c, 10, 57, 127
2, 191853, Note_off_c, 0, 72, 127
2, 191856, Note_on_c, 12, 71, 127
2, 191997, Note_off_c, 12, 71, 127
2, 191997, Note_off_c, 10, 57, 127
2, 192000, Note_on_c, 0, 72, 127
2, 192000, Note_on_c, 10, 69, 127
2, 192144, Note_on_c, 5, 77, 127
2, 192270, Note_off_c, 0, 72, 127
2, 192285, Note_off_c, 10, 69, 127
2, 192288, Note_on_c, 12, 71, 127
2, 192288, Note_on_c, 7, 67, 127
2, 192309, Note_off_c, 5, 77, 127
2, 192429, Note_off_c, 7, 67, 127
2, 192432, Note_on_c, 4, 76, 127
2, 192432, Note_on_c, 4, 64, 127
2, 192558, Note_off_c, 12, 71, 127
2, 192573, Note_off_c, 4, 64, 127
2, 192576, Note_on_c, 10, 69, 127
2, 192576, Note_on_c, 5, 65, 127
2, 192597, Note_off_c, 4, 76, 127
2, 192717, Note_off_c, 5, 65, 127
2, 192720, Note_on_c, 2, 74, 127
2, 192720, Note_on_c, 2, 62, 127
2, 192756, Note_off_c, 10, 69, 127
2, 192861, Note_off_c, 2, 62, 127
2, 192864, Note_on_c, 8, 68, 127
2, 192864, Note_on_c, 4, 64, 127
2, 192990, Note_off_c, 2, 74, 127
2, 193008, Note_on_c, 2, 74, 127
2, 193149, Note_off_c, 2, 74, 127
2, 193149, Note_off_c, 4, 64, 127
2, 193152, Note_on_c, 12, 71, 127
2, 193152, Note_on_c, 4, 52, 127
2, 193284, Note_off_c, 8, 68, 127
2, 193293, Note_off_c, 12, 71, 127
2, 193296, Note_on_c, 8, 68, 127
2, 193437, Note_off_c, 4, 52, 127
2, 193440, Note_on_c, 2, 74, 127
2, 193440, Note_on_c, 8, 56, 127
2, 193581, Note_off_c, 2, 74, 127
2, 193584, Note_on_c, 12, 71, 127
2, 193716, Note_off_c, 8, 68, 127
2, 193725, Note_off_c, 12, 71, 127
2, 193725, Note_off_c, 8, 56, 127
2, 193728, Note_on_c, 8, 68, 127
2, 193728, Note_on_c, 12, 59, 127
2, 193872, Note_on_c, 12, 71, 127
2, 194013, Note_off_c, 12, 71, 127
2, 194013, Note_off_c, 12, 59, 127
2, 194013, Note_off_c, 8, 68, 127
2, 194016, Note_on_c, 4, 64, 127
2, 194016, Note_on_c, 8, 56, 127
2, 194160, Note_on_c, 2, 74, 127
2, 194301, Note_off_c, 2, 74, 127
2, 194301, Note_off_c, 8, 56, 127
2, 194301, Note_off_c, 4, 64, 127
2, 194304, Note_on_c, 0, 72, 127
2, 194304, Note_on_c, 4, 52, 127
2, 194445, Note_off_c, 0, 72, 127
2, 194448, Note_on_c, 12, 71, 127
2, 194589, Note_off_c, 12, 71, 127
2, 194589, Note_off_c, 4, 52, 127
2, 194592, Note_on_c, 0, 72, 127
2, 194592, Note_on_c, 10, 57, 127
2, 194733, Note_off_c, 0, 72, 127
2, 194736, Note_on_c, 12, 71, 127
2, 194877, Note_off_c, 12, 71, 127
2, 194877, Note_off_c, 10, 57, 127
2, 194880, Note_on_c, 10, 69, 127
2, 194880, Note_on_c, 4, 52, 127
2, 195021, Note_off_c, 10, 69, 127
2, 195024, Note_on_c, 8, 68, 127
2, 195165, Note_off_c, 8, 68, 127
2, 195165, Note_off_c, 4, 52, 127
2, 195168, Note_on_c, 10, 69, 127
2, 195168, Note_on_c, 10, 45, 127
2, 195309, Note_off_c, 10, 69, 127
2, 195312, Note_on_c, 12, 71, 127
2, 195453, Note_off_c, 12, 71, 127
2, 195453, Note_off_c, 10, 45, 127
2, 195456, Note_on_c, 0, 72, 127
2, 195456, Note_on_c, 10, 57, 127
2, 195600, Note_on_c, 5, 65, 127
2, 195741, Note_off_c, 5, 65, 127
2, 195741, Note_off_c, 10, 57, 127
2, 195741, Note_off_c, 0, 72, 127
2, 195744, Note_on_c, 12, 71, 127
2, 195744, Note_on_c, 7, 55, 127
2, 195885, Note_off_c, 7, 55, 127
2, 195888, Note_on_c, 4, 64, 127
2, 195888, Note_on_c, 4, 52, 127
2, 196029, Note_off_c, 4, 52, 127
2, 196029, Note_off_c, 4, 64, 127
2, 196029, Note_off_c, 12, 71, 127
2, 196032, Note_on_c, 10, 69, 127
2, 196032, Note_on_c, 5, 53, 127
2, 196173, Note_off_c, 5, 53, 127
2, 196173, Note_off_c, 10, 69, 127
2, 196176, Note_on_c, 12, 71, 127
2, 196176, Note_on_c, 2, 50, 127
2, 196317, Note_off_c, 2, 50, 127
2, 196317, Note_off_c, 12, 71, 127
2, 196320, Note_on_c, 8, 68, 127
2, 196320, Note_on_c, 4, 52, 127
2, 196461, Note_off_c, 4, 52, 127
2, 196464, Note_on_c, 2, 50, 127
2, 196545, Note_off_c, 8, 68, 127
2, 196605, Note_off_c, 2, 50, 127
2, 196608, Note_on_c, 4, 64, 127
2, 196608, Note_on_c, 12, 47, 127
2, 196749, Note_off_c, 12, 47, 127
2, 196752, Note_on_c, 8, 44, 127
2, 196833, Note_off_c, 4, 64, 127
2, 196893, Note_off_c, 8, 44, 127
2, 196896, Note_on_c, 8, 68, 127
2, 196896, Note_on_c, 2, 50, 127
2, 197037, Note_off_c, 2, 50, 127
2, 197040, Note_on_c, 12, 47, 127
2, 197121, Note_off_c, 8, 68, 127
2, 197181, Note_off_c, 12, 47, 127
2, 197184, Note_on_c, 12, 71, 127
2, 197184, Note_on_c, 8, 44, 127
2, 197325, Note_off_c, 8, 44, 127
2, 197328, Note_on_c, 12, 47, 127
2, 197409, Note_off_c, 12, 71, 127
2, 197469, Note_off_c, 12, 47, 127
2, 197472, Note_on_c, 8, 68, 127
2, 197472, Note_on_c, 4, 40, 127
2, 197613, Note_off_c, 4, 40, 127
2, 197616, Note_on_c, 2, 50, 127
2, 197697, Note_off_c, 8, 68, 127
2, 197757, Note_off_c, 2, 50, 127
2, 197760, Note_on_c, 4, 64, 127
2, 197760, Note_on_c, 0, 48, 127
2, 197901, Note_off_c, 0, 48, 127
2, 197904, Note_on_c, 12, 47, 127
2, 197985, Note_off_c, 4, 64, 127
2, 198045, Note_off_c, 12, 47, 127
2, 198048, Note_on_c, 10, 69, 127
2, 198048, Note_on_c, 1, 49, 127
2, 198192, Note_on_c, 7, 79, 127
2, 198310, Note_off_c, 1, 49, 127
2, 198333, Note_off_c, 7, 79, 127
2, 198336, Note_on_c, 4, 76, 127
2, 198336, Note_on_c, 10, 45, 127
2, 198477, Note_off_c, 4, 76, 127
2, 198480, Note_on_c, 1, 73, 127
2, 198598, Note_off_c, 10, 45, 127
2, 198621, Note_off_c, 1, 73, 127
2, 198624, Note_on_c, 7, 79, 127
2, 198624, Note_on_c, 1, 49, 127
2, 198765, Note_off_c, 7, 79, 127
2, 198768, Note_on_c, 4, 76, 127
2, 198886, Note_off_c, 1, 49, 127
2, 198909, Note_off_c, 4, 76, 127
2, 198912, Note_on_c, 1, 73, 127
2, 198912, Note_on_c, 4, 52, 127
2, 199053, Note_off_c, 1, 73, 127
2, 199056, Note_on_c, 4, 76, 127
2, 199148, Note_off_c, 10, 69, 127
2, 199174, Note_off_c, 4, 52, 127
2, 199197, Note_off_c, 4, 76, 127
2, 199200, Note_on_c, 10, 69, 127
2, 199200, Note_on_c, 1, 49, 127
2, 199341, Note_off_c, 10, 69, 127
2, 199344, Note_on_c, 7, 67, 127
2, 199462, Note_off_c, 1, 49, 127
2, 199485, Note_off_c, 7, 67, 127
2, 199488, Note_on_c, 6, 66, 127
2, 199488, Note_on_c, 10, 45, 127
2, 199629, Note_off_c, 6, 66, 127
2, 199632, Note_on_c, 4, 64, 127
2, 199750, Note_off_c, 10, 45, 127
2, 199773, Note_off_c, 4, 64, 127
2, 199776, Note_on_c, 6, 66, 127
2, 199776, Note_on_c, 2, 50, 127
2, 199917, Note_off_c, 2, 50, 127
2, 199920, Note_on_c, 0, 60, 127
2, 200001, Note_off_c, 6, 66, 127
2, 200061, Note_off_c, 0, 60, 127
2, 200064, Note_on_c, 2, 74, 127
2, 200064, Note_on_c, 10, 57, 127
2, 200205, Note_off_c, 10, 57, 127
2, 200208, Note_on_c, 6, 54, 127
2, 200289, Note_off_c, 2, 74, 127
2, 200349, Note_off_c, 6, 54, 127
2, 200352, Note_on_c, 6, 78, 127
2, 200352, Note_on_c, 0, 60, 127
2, 200493, Note_off_c, 0, 60, 127
2, 200496, Note_on_c, 10, 57, 127
2, 200577, Note_off_c, 6, 78, 127
2, 200637, Note_off_c, 10, 57, 127
2, 200640, Note_on_c, 10, 81, 127
2, 200640, Note_on_c, 6, 54, 127
2, 200781, Note_off_c, 6, 54, 127
2, 200784, Note_on_c, 10, 57, 127
2, 200865, Note_off_c, 10, 81, 127
2, 200925, Note_off_c, 10, 57, 127
2, 200928, Note_on_c, 6, 78, 127
2, 200928, Note_on_c, 2, 50, 127
2, 201069, Note_off_c, 2, 50, 127
2, 201072, Note_on_c, 0, 60, 127
2, 201153, Note_off_c, 6, 78, 127
2, 201213, Note_off_c, 0, 60, 127
2, 201216, Note_on_c, 2, 74, 127
2, 201216, Note_on_c, 12, 59, 127
2, 201357, Note_off_c, 12, 59, 127
2, 201360, Note_on_c, 10, 57, 127
2, 201441, Note_off_c, 2, 74, 127
2, 201501, Note_off_c, 10, 57, 127
2, 201504, Note_on_c, 7, 79, 127
2, 201504, Note_on_c, 12, 59, 127
2, 201648, Note_on_c, 5, 77, 127
2, 201684, Note_off_c, 7, 79, 127
2, 201766, Note_off_c, 12, 59, 127
2, 201789, Note_off_c, 5, 77, 127
2, 201792, Note_on_c, 2, 74, 127
2, 201792, Note_on_c, 7, 55, 127
2, 201933, Note_off_c, 2, 74, 127
2, 201936, Note_on_c, 12, 71, 127
2, 202054, Note_off_c, 7, 55, 127
2, 202080, Note_on_c, 5, 77, 127
2, 202080, Note_on_c, 12, 59, 127
2, 202216, Note_off_c, 12, 71, 127
2, 202221, Note_off_c, 5, 77, 127
2, 202224, Note_on_c, 2, 74, 127
2, 202342, Note_off_c, 12, 59, 127
2, 202365, Note_off_c, 2, 74, 127
2, 202368, Note_on_c, 12, 71, 127
2, 202368, Note_on_c, 2, 62, 127
2, 202509, Note_off_c, 12, 71, 127
2, 202512, Note_on_c, 2, 74, 127
2, 202630, Note_off_c, 2, 62, 127
2, 202653, Note_off_c, 2, 74, 127
2, 202656, Note_on_c, 7, 67, 127
2, 202656, Note_on_c, 12, 59, 127
2, 202800, Note_on_c, 5, 77, 127
2, 202918, Note_off_c, 12, 59, 127
2, 202936, Note_off_c, 7, 67, 127
2, 202941, Note_off_c, 5, 77, 127
2, 202944, Note_on_c, 4, 76, 127
2, 202944, Note_on_c, 7, 55, 127
2, 203085, Note_off_c, 4, 76, 127
2, 203088, Note_on_c, 2, 74, 127
2, 203206, Note_off_c, 7, 55, 127
2, 203229, Note_off_c, 2, 74, 127
2, 203232, Note_on_c, 4, 76, 127
2, 203232, Note_on_c, 0, 60, 127
2, 203373, Note_off_c, 4, 76, 127
2, 203376, Note_on_c, 2, 74, 127
2, 203517, Note_off_c, 2, 74, 127
2, 203517, Note_off_c, 0, 60, 127
2, 203520, Note_on_c, 0, 72, 127
2, 203520, Note_on_c, 7, 55, 127
2, 203661, Note_off_c, 0, 72, 127
2, 203664, Note_on_c, 12, 71, 127
2, 203805, Note_off_c, 12, 71, 127
2, 203805, Note_off_c, 7, 55, 127
2, 203808, Note_on_c, 10, 69, 127
2, 203808, Note_on_c, 0, 48, 127
2, 203949, Note_off_c, 10, 69, 127
2, 203952, Note_on_c, 0, 72, 127
2, 204093, Note_off_c, 0, 72, 127
2, 204093, Note_off_c, 0, 48, 127
2, 204096, Note_on_c, 2, 74, 127
2, 204096, Note_on_c, 0, 60, 127
2, 204237, Note_off_c, 2, 74, 127
2, 204240, Note_on_c, 6, 78, 127
2, 204381, Note_off_c, 6, 78, 127
2, 204381, Note_off_c, 0, 60, 127
2, 204384, Note_on_c, 7, 79, 127
2, 204384, Note_on_c, 12, 59, 127
2, 204525, Note_off_c, 12, 59, 127
2, 204525, Note_off_c, 7, 79, 127
2, 204528, Note_on_c, 12, 71, 127
2, 204528, Note_on_c, 7, 55, 127
2, 204669, Note_off_c, 7, 55, 127
2, 204669, Note_off_c, 12, 71, 127
2, 204672, Note_on_c, 0, 72, 127
2, 204672, Note_on_c, 10, 57, 127
2, 204813, Note_off_c, 10, 57, 127
2, 204813, Note_off_c, 0, 72, 127
2, 204816, Note_on_c, 10, 69, 127
2, 204816, Note_on_c, 6, 54, 127
2, 204957, Note_off_c, 6, 54, 127
2, 204957, Note_off_c, 10, 69, 127
2, 204960, Note_on_c, 12, 71, 127
2, 204960, Note_on_c, 7, 55, 127
2, 205104, Note_on_c, 2, 74, 127
2, 205245, Note_off_c, 2, 74, 127
2, 205245, Note_off_c, 7, 55, 127
2, 205248, Note_on_c, 4, 76, 127
2, 205248, Note_on_c, 5, 53, 127
2, 205380, Note_off_c, 12, 71, 127
2, 205389, Note_off_c, 4, 76, 127
2, 205392, Note_on_c, 5, 77, 127
2, 205533, Note_off_c, 5, 77, 127
2, 205533, Note_off_c, 5, 53, 127
2, 205536, Note_on_c, 7, 79, 127
2, 205536, Note_on_c, 4, 52, 127
2, 205680, Note_on_c, 10, 69, 127
2, 205821, Note_off_c, 10, 69, 127
2, 205821, Note_off_c, 4, 52, 127
2, 205824, Note_on_c, 11, 70, 127
2, 205824, Note_on_c, 2, 50, 127
2, 205956, Note_off_c, 7, 79, 127
2, 205965, Note_off_c, 11, 70, 127
2, 205968, Note_on_c, 7, 67, 127
2, 206109, Note_off_c, 7, 67, 127
2, 206109, Note_off_c, 2, 50, 127
2, 206112, Note_on_c, 7, 79, 127
2, 206112, Note_on_c, 4, 52, 127
2, 206256, Note_on_c, 10, 69, 127
2, 206397, Note_off_c, 10, 69, 127
2, 206397, Note_off_c, 4, 52, 127
2, 206400, Note_on_c, 11, 70, 127
2, 206400, Note_on_c, 0, 48, 127
2, 206532, Note_off_c, 7, 79, 127
2, 206541, Note_off_c, 11, 70, 127
2, 206544, Note_on_c, 7, 67, 127
2, 206685, Note_off_c, 7, 67, 127
2, 206685, Note_off_c, 0, 48, 127
2, 206688, Note_on_c, 10, 69, 127
2, 206688, Note_on_c, 5, 53, 127
2, 206832, Note_on_c, 0, 72, 127
2, 206973, Note_off_c, 0, 72, 127
2, 206973, Note_off_c, 5, 53, 127
2, 206973, Note_off_c, 10, 69, 127
2, 206976, Note_on_c, 2, 74, 127
2, 206976, Note_on_c, 4, 52, 127
2, 207117, Note_off_c, 2, 74, 127
2, 207120, Note_on_c, 4, 76, 127
2, 207261, Note_off_c, 4, 76, 127
2, 207261, Note_off_c, 4, 52, 127
2, 207264, Note_on_c, 5, 77, 127
2, 207264, Note_on_c, 2, 50, 127
2, 207408, Note_on_c, 7, 67, 127
2, 207549, Note_off_c, 7, 67, 127
2, 207549, Note_off_c, 2, 50, 127
2, 207552, Note_on_c, 10, 69, 127
2, 207552, Note_on_c, 0, 48, 127
2, 207684, Note_off_c, 5, 77, 127
2, 207693, Note_off_c, 10, 69, 127
2, 207696, Note_on_c, 5, 65, 127
2, 207837, Note_off_c, 5, 65, 127
2, 207837, Note_off_c, 0, 48, 127
2, 207840, Note_on_c, 5, 77, 127
2, 207840, Note_on_c, 2, 50, 127
2, 207984, Note_on_c, 7, 67, 127
2, 208125, Note_off_c, 7, 67, 127
2, 208125, Note_off_c, 2, 50, 127
2, 208128, Note_on_c, 10, 69, 127
2, 208128, Note_on_c, 12, 47, 127
2, 208260, Note_off_c, 5, 77, 127
2, 208269, Note_off_c, 10, 69, 127
2, 208272, Note_on_c, 5, 65, 127
2, 208413, Note_off_c, 5, 65, 127
2, 208413, Note_off_c, 12, 47, 127
2, 208416, Note_on_c, 7, 67, 127
2, 208416, Note_on_c, 4, 52, 127
2, 208560, Note_on_c, 4, 64, 127
2, 208701, Note_off_c, 4, 64, 127
2, 208701, Note_off_c, 4, 52, 127
2, 208701, Note_off_c, 7, 67, 127
2, 208704, Note_on_c, 7, 67, 127
2, 208704, Note_on_c, 2, 50, 127
2, 208845, Note_off_c, 7, 67, 127
2, 208848, Note_on_c, 12, 71, 127
2, 208989, Note_off_c, 12, 71, 127
2, 208989, Note_off_c, 2, 50, 127
2, 208992, Note_on_c, 4, 76, 127
2, 208992, Note_on_c, 1, 49, 127
2, 209136, Note_on_c, 5, 65, 127
2, 209277, Note_off_c, 5, 65, 127
2, 209277, Note_off_c, 1, 49, 127
2, 209280, Note_on_c, 7, 67, 127
2, 209280, Note_on_c, 12, 47, 127
2, 209412, Note_off_c, 4, 76, 127
2, 209421, Note_off_c, 7, 67, 127
2, 209424, Note_on_c, 4, 64, 127
2, 209565, Note_off_c, 4, 64, 127
2, 209565, Note_off_c, 12, 47, 127
2, 209568, Note_on_c, 4, 76, 127
2, 209568, Note_on_c, 1, 49, 127
2, 209712, Note_on_c, 5, 65, 127
2, 209853, Note_off_c, 5, 65, 127
2, 209853, Note_off_c, 1, 49, 127
2, 209856, Note_on_c, 7, 67, 127
2, 209856, Note_on_c, 10, 45, 127
2, 209988, Note_off_c, 4, 76, 127
2, 209997, Note_off_c, 7, 67, 127
2, 210000, Note_on_c, 4, 64, 127
2, 210141, Note_off_c, 4, 64, 127
2, 210141, Note_off_c, 10, 45, 127
2, 210144, Note_on_c, 5, 65, 127
2, 210144, Note_on_c, 2, 50, 127
2, 210288, Note_on_c, 2, 62, 127
2, 210429, Note_off_c, 2, 62, 127
2, 210429, Note_off_c, 2, 50, 127
2, 210429, Note_off_c, 5, 65, 127
2, 210432, Note_on_c, 5, 65, 127
2, 210432, Note_on_c, 0, 48, 127
2, 210573, Note_off_c, 5, 65, 127
2, 210576, Note_on_c, 10, 69, 127
2, 210717, Note_off_c, 10, 69, 127
2, 210717, Note_off_c, 0, 48, 127
2, 210720, Note_on_c, 2, 74, 127
2, 210720, Note_on_c, 12, 47, 127
2, 210864, Note_on_c, 4, 64, 127
2, 211005, Note_off_c, 4, 64, 127
2, 211005, Note_off_c, 12, 47, 127
2, 211008, Note_on_c, 5, 65, 127
2, 211008, Note_on_c, 10, 45, 127
2, 211140, Note_off_c, 2, 74, 127
2, 211149, Note_off_c, 5, 65, 127
2, 211152, Note_on_c, 2, 62, 127
2, 211293, Note_off_c, 2, 62, 127
2, 211293, Note_off_c, 10, 45, 127
2, 211296, Note_on_c, 2, 74, 127
2, 211296, Note_on_c, 12, 47, 127
2, 211437, Note_off_c, 2, 74, 127
2, 211440, Note_on_c, 4, 64, 127
2, 211581, Note_off_c, 4, 64, 127
2, 211581, Note_off_c, 12, 47, 127
2, 211584, Note_on_c, 5, 65, 127
2, 211584, Note_on_c, 7, 43, 127
2, 211725, Note_off_c, 5, 65, 127
2, 211728, Note_on_c, 2, 62, 127
2, 211869, Note_off_c, 2, 62, 127
2, 211869, Note_off_c, 7, 43, 127
2, 211872, Note_on_c, 4, 64, 127
2, 211872, Note_on_c, 0, 48, 127
2, 212013, Note_off_c, 4, 64, 127
2, 212016, Note_on_c, 2, 62, 127
2, 212157, Note_off_c, 2, 62, 127
2, 212157, Note_off_c, 0, 48, 127
2, 212160, Note_on_c, 0, 60, 127
2, 212160, Note_on_c, 7, 43, 127
2, 212301, Note_off_c, 0, 60, 127
2, 212304, Note_on_c, 12, 59, 127
2, 212445, Note_off_c, 12, 59, 127
2, 212445, Note_off_c, 7, 43, 127
2, 212448, Note_on_c, 0, 60, 127
2, 212448, Note_on_c, 0, 36, 127
2, 212592, Note_on_c, 8, 56, 127
2, 212733, Note_off_c, 8, 56, 127
2, 212733, Note_off_c, 0, 36, 127
2, 212733, Note_off_c, 0, 60, 127
2, 212736, Note_on_c, 10, 57, 127
2, 212736, Note_on_c, 0, 48, 127
2, 212880, Note_on_c, 4, 64, 127
2, 212946, Note_off_c, 10, 57, 127
2, 213021, Note_off_c, 4, 64, 127
2, 213021, Note_off_c, 0, 48, 127
2, 213024, Note_on_c, 2, 62, 127
2, 213024, Note_on_c, 12, 47, 127
2, 213165, Note_off_c, 12, 47, 127
2, 213165, Note_off_c, 2, 62, 127
2, 213168, Note_on_c, 12, 59, 127
2, 213168, Note_on_c, 8, 44, 127
2, 213309, Note_off_c, 8, 44, 127
2, 213309, Note_off_c, 12, 59, 127
2, 213312, Note_on_c, 0, 60, 127
2, 213312, Note_on_c, 10, 45, 127
2, 213453, Note_off_c, 10, 45, 127
2, 213453, Note_off_c, 0, 60, 127
2, 213456, Note_on_c, 10, 57, 127
2, 213456, Note_on_c, 6, 42, 127
2, 213597, Note_off_c, 6, 42, 127
2, 213597, Note_off_c, 10, 57, 127
2, 213600, Note_on_c, 12, 59, 127
2, 213600, Note_on_c, 8, 44, 127
2, 213744, Note_on_c, 2, 62, 127
2, 213795, Note_off_c, 12, 59, 127
2, 213885, Note_off_c, 2, 62, 127
2, 213885, Note_off_c, 8, 44, 127
2, 213888, Note_on_c, 12, 59, 127
2, 213888, Note_on_c, 4, 40, 127
2, 214029, Note_off_c, 12, 59, 127
2, 214032, Note_on_c, 8, 56, 127
2, 214173, Note_off_c, 8, 56, 127
2, 214173, Note_off_c, 4, 40, 127
2, 214176, Note_on_c, 2, 62, 127
2, 214176, Note_on_c, 8, 44, 127
2, 214317, Note_off_c, 2, 62, 127
2, 214320, Note_on_c, 12, 59, 127
2, 214461, Note_off_c, 12, 59, 127
2, 214461, Note_off_c, 8, 44, 127
2, 214464, Note_on_c, 8, 56, 127
2, 214464, Note_on_c, 12, 47, 127
2, 214605, Note_off_c, 8, 56, 127
2, 214608, Note_on_c, 12, 59, 127
2, 214749, Note_off_c, 12, 59, 127
2, 214749, Note_off_c, 12, 47, 127
2, 214752, Note_on_c, 4, 52, 127
2, 214752, Note_on_c, 8, 44, 127
2, 214893, Note_off_c, 4, 52, 127
2, 214896, Note_on_c, 2, 62, 127
2, 215037, Note_off_c, 2, 62, 127
2, 215037, Note_off_c, 8, 44, 127
2, 215040, Note_on_c, 0, 60, 127
2, 215040, Note_on_c, 4, 40, 127
2, 215181, Note_off_c, 0, 60, 127
2, 215184, Note_on_c, 12, 59, 127
2, 215325, Note_off_c, 12, 59, 127
2, 215325, Note_off_c, 4, 40, 127
2, 215328, Note_on_c, 0, 60, 127
2, 215328, Note_on_c, 10, 45, 127
2, 215472, Note_on_c, 10, 57, 127
2, 215523, Note_off_c, 0, 60, 127
2, 215583, Note_off_c, 10, 45, 127
2, 215613, Note_off_c, 10, 57, 127
2, 215616, Note_on_c, 1, 61, 127
2, 215616, Note_on_c, 10, 45, 127
2, 215757, Note_off_c, 1, 61, 127
2, 215760, Note_on_c, 4, 64, 127
2, 215901, Note_off_c, 4, 64, 127
2, 215901, Note_off_c, 10, 45, 127
2, 215904, Note_on_c, 7, 67, 127
2, 215904, Note_on_c, 1, 49, 127
2, 216045, Note_off_c, 7, 67, 127
2, 216048, Note_on_c, 4, 64, 127
2, 216189, Note_off_c, 4, 64, 127
2, 216189, Note_off_c, 1, 49, 127
2, 216192, Note_on_c, 1, 61, 127
2, 216192, Note_on_c, 4, 52, 127
2, 216333, Note_off_c, 1, 61, 127
2, 216336, Note_on_c, 4, 64, 127
2, 216477, Note_off_c, 4, 64, 127
2, 216477, Note_off_c, 4, 52, 127
2, 216480, Note_on_c, 10, 57, 127
2, 216480, Note_on_c, 1, 49, 127
2, 216621, Note_off_c, 10, 57, 127
2, 216624, Note_on_c, 7, 67, 127
2, 216765, Note_off_c, 7, 67, 127
2, 216765, Note_off_c, 1, 49, 127
2, 216768, Note_on_c, 5, 65, 127
2, 216768, Note_on_c, 10, 45, 127
2, 216909, Note_off_c, 5, 65, 127
2, 216912, Note_on_c, 4, 64, 127
2, 217053, Note_off_c, 4, 64, 127
2, 217053, Note_off_c, 10, 45, 127
2, 217056, Note_on_c, 5, 65, 127
2, 217056, Note_on_c, 2, 50, 127
2, 217197, Note_off_c, 5, 65, 127
2, 217200, Note_on_c, 10, 57, 127
2, 217318, Note_off_c, 2, 50, 127
2, 217341, Note_off_c, 10, 57, 127
2, 217344, Note_on_c, 2, 62, 127
2, 217344, Note_on_c, 5, 53, 127
2, 217485, Note_off_c, 5, 53, 127
2, 217485, Note_off_c, 2, 62, 127
2, 217488, Note_on_c, 5, 65, 127
2, 217488, Note_on_c, 4, 52, 127
2, 217629, Note_off_c, 4, 52, 127
2, 217629, Note_off_c, 5, 65, 127
2, 217632, Note_on_c, 10, 69, 127
2, 217632, Note_on_c, 3, 51, 127
2, 217773, Note_off_c, 10, 69, 127
2, 217776, Note_on_c, 6, 66, 127
2, 217917, Note_off_c, 6, 66, 127
2, 217917, Note_off_c, 3, 51, 127
2, 217920, Note_on_c, 3, 63, 127
2, 217920, Note_on_c, 6, 54, 127
2, 218061, Note_off_c, 3, 63, 127
2, 218064, Note_on_c, 6, 66, 127
2, 218205, Note_off_c, 6, 66, 127
2, 218205, Note_off_c, 6, 54, 127
2, 218208, Note_on_c, 12, 59, 127
2, 218208, Note_on_c, 3, 51, 127
2, 218349, Note_off_c, 12, 59, 127
2, 218352, Note_on_c, 10, 69, 127
2, 218493, Note_off_c, 10, 69, 127
2, 218493, Note_off_c, 3, 51, 127
2, 218496, Note_on_c, 8, 68, 127
2, 218496, Note_on_c, 12, 47, 127
2, 218637, Note_off_c, 8, 68, 127
2, 218640, Note_on_c, 6, 66, 127
2, 218781, Note_off_c, 6, 66, 127
2, 218781, Note_off_c, 12, 47, 127
2, 218784, Note_on_c, 8, 68, 127
2, 218784, Note_on_c, 4, 40, 127
2, 218928, Note_on_c, 4, 64, 127
2, 218994, Note_off_c, 8, 68, 127
2, 219069, Note_off_c, 4, 64, 127
2, 219072, Note_on_c, 8, 68, 127
2, 219072, Note_on_c, 4, 52, 127
2, 219204, Note_off_c, 4, 40, 127
2, 219213, Note_off_c, 8, 68, 127
2, 219216, Note_on_c, 12, 71, 127
2, 219357, Note_off_c, 12, 71, 127
2, 219357, Note_off_c, 4, 52, 127
2, 219360, Note_on_c, 2, 74, 127
2, 219360, Note_on_c, 8, 56, 127
2, 219501, Note_off_c, 2, 74, 127
2, 219504, Note_on_c, 12, 71, 127
2, 219645, Note_off_c, 12, 71, 127
2, 219645, Note_off_c, 8, 56, 127
2, 219648, Note_on_c, 8, 68, 127
2, 219648, Note_on_c, 12, 59, 127
2, 219789, Note_off_c, 8, 68, 127
2, 219792, Note_on_c, 12, 71, 127
2, 219933, Note_off_c, 12, 71, 127
2, 219933, Note_off_c, 12, 59, 127
2, 219936, Note_on_c, 4, 64, 127
2, 219936, Note_on_c, 8, 56, 127
2, 220077, Note_off_c, 4, 64, 127
2, 220080, Note_on_c, 2, 74, 127
2, 220221, Note_off_c, 2, 74, 127
2, 220221, Note_off_c, 8, 56, 127
2, 220224, Note_on_c, 0, 72, 127
2, 220224, Note_on_c, 4, 52, 127
2, 220365, Note_off_c, 0, 72, 127
2, 220368, Note_on_c, 12, 71, 127
2, 220509, Note_off_c, 12, 71, 127
2, 220509, Note_off_c, 4, 52, 127
2, 220512, Note_on_c, 0, 72, 127
2, 220512, Note_on_c, 10, 57, 127
2, 220653, Note_off_c, 10, 57, 127
2, 220656, Note_on_c, 2, 62, 127
2, 220722, Note_off_c, 0, 72, 127
2, 220797, Note_off_c, 2, 62, 127
2, 220800, Note_on_c, 4, 76, 127
2, 220800, Note_on_c, 0, 60, 127
2, 220941, Note_off_c, 0, 60, 127
2, 220944, Note_on_c, 12, 59, 127
2, 221010, Note_off_c, 4, 76, 127
2, 221085, Note_off_c, 12, 59, 127
2, 221088, Note_on_c, 10, 69, 127
2, 221088, Note_on_c, 0, 60, 127
2, 221229, Note_off_c, 0, 60, 127
2, 221232, Note_on_c, 12, 59, 127
2, 221298, Note_off_c, 10, 69, 127
2, 221373, Note_off_c, 12, 59, 127
2, 221376, Note_on_c, 10, 81, 127
2, 221376, Note_on_c, 0, 60, 127
2, 221517, Note_off_c, 0, 60, 127
2, 221520, Note_on_c, 4, 64, 127
2, 221586, Note_off_c, 10, 81, 127
2, 221661, Note_off_c, 4, 64, 127
2, 221664, Note_on_c, 7, 79, 127
2, 221664, Note_on_c, 1, 61, 127
2, 221805, Note_off_c, 1, 61, 127
2, 221805, Note_off_c, 7, 79, 127
2, 221808, Note_on_c, 4, 76, 127
2, 221808, Note_on_c, 4, 64, 127
2, 221949, Note_off_c, 4, 64, 127
2, 221949, Note_off_c, 4, 76, 127
2, 221952, Note_on_c, 5, 77, 127
2, 221952, Note_on_c, 2, 62, 127
2, 222093, Note_off_c, 2, 62, 127
2, 222093, Note_off_c, 5, 77, 127
2, 222096, Note_on_c, 2, 74, 127
2, 222096, Note_on_c, 5, 65, 127
2, 222237, Note_off_c, 5, 65, 127
2, 222237, Note_off_c, 2, 74, 127
2, 222240, Note_on_c, 12, 83, 127
2, 222240, Note_on_c, 8, 56, 127
2, 222381, Note_off_c, 12, 83, 127
2, 222384, Note_on_c, 10, 81, 127
2, 222502, Note_off_c, 8, 56, 127
2, 222525, Note_off_c, 10, 81, 127
2, 222528, Note_on_c, 8, 80, 127
2, 222528, Note_on_c, 12, 59, 127
2, 222669, Note_off_c, 8, 80, 127
2, 222672, Note_on_c, 6, 78, 127
2, 222790, Note_off_c, 12, 59, 127
2, 222813, Note_off_c, 6, 78, 127
2, 222816, Note_on_c, 8, 80, 127
2, 222816, Note_on_c, 4, 52, 127
2, 222957, Note_off_c, 8, 80, 127
2, 222960, Note_on_c, 6, 78, 127
2, 223078, Note_off_c, 4, 52, 127
2, 223101, Note_off_c, 6, 78, 127
2, 223104, Note_on_c, 8, 80, 127
2, 223104, Note_on_c, 4, 64, 127
2, 223245, Note_off_c, 8, 80, 127
2, 223248, Note_on_c, 12, 83, 127
2, 223366, Note_off_c, 4, 64, 127
2, 223389, Note_off_c, 12, 83, 127
2, 223392, Note_on_c, 4, 76, 127
2, 223392, Note_on_c, 2, 62, 127
2, 223533, Note_off_c, 2, 62, 127
2, 223533, Note_off_c, 4, 76, 127
2, 223536, Note_on_c, 8, 80, 127
2, 223536, Note_on_c, 12, 59, 127
2, 223677, Note_off_c, 12, 59, 127
2, 223677, Note_off_c, 8, 80, 127
2, 223680, Note_on_c, 10, 81, 127
2, 223680, Note_on_c, 0, 60, 127
2, 223821, Note_off_c, 0, 60, 127
2, 223821, Note_off_c, 10, 81, 127
2, 223824, Note_on_c, 0, 72, 127
2, 223824, Note_on_c, 10, 57, 127
2, 223965, Note_off_c, 10, 57, 127
2, 223965, Note_off_c, 0, 72, 127
2, 223968, Note_on_c, 2, 74, 127
2, 223968, Note_on_c, 12, 59, 127
2, 224112, Note_on_c, 5, 77, 127
2, 224238, Note_off_c, 2, 74, 127
2, 224253, Note_off_c, 5, 77, 127
2, 224253, Note_off_c, 12, 59, 127
2, 224256, Note_on_c, 0, 72, 127
2, 224256, Note_on_c, 10, 57, 127
2, 224400, Note_on_c, 5, 77, 127
2, 224526, Note_off_c, 0, 72, 127
2, 224541, Note_off_c, 5, 77, 127
2, 224541, Note_off_c, 10, 57, 127
2, 224544, Note_on_c, 12, 71, 127
2, 224544, Note_on_c, 8, 56, 127
2, 224688, Note_on_c, 5, 77, 127
2, 224814, Note_off_c, 12, 71, 127
2, 224829, Note_off_c, 5, 77, 127
2, 224829, Note_off_c, 8, 56, 127
2, 224832, Note_on_c, 0, 72, 127
2, 224832, Note_on_c, 10, 57, 127
2, 224976, Note_on_c, 5, 77, 127
2, 225072, Note_off_c, 0, 72, 127
2, 225117, Note_off_c, 5, 77, 127
2, 225117, Note_off_c, 10, 57, 127
2, 225120, Note_on_c, 12, 71, 127
2, 225120, Note_on_c, 12, 59, 127
2, 225264, Note_on_c, 5, 77, 127
2, 225330, Note_off_c, 12, 71, 127
2, 225405, Note_off_c, 5, 77, 127
2, 225405, Note_off_c, 12, 59, 127
2, 225408, Note_on_c, 10, 69, 127
2, 225408, Note_on_c, 0, 60, 127
2, 225552, Note_on_c, 5, 77, 127
2, 225573, Note_off_c, 10, 69, 127
2, 225693, Note_off_c, 5, 77, 127
2, 225693, Note_off_c, 0, 60, 127
2, 225696, Note_on_c, 8, 68, 127
2, 225696, Note_on_c, 2, 62, 127
2, 225840, Note_on_c, 12, 71, 127
2, 225981, Note_off_c, 12, 71, 127
2, 225981, Note_off_c, 2, 62, 127
2, 225984, Note_on_c, 4, 76, 127
2, 225984, Note_on_c, 2, 50, 127
2, 226116, Note_off_c, 8, 68, 127
2, 226128, Note_on_c, 4, 64, 127
2, 226269, Note_off_c, 4, 64, 127
2, 226269, Note_off_c, 2, 50, 127
2, 226272, Note_on_c, 10, 69, 127
2, 226272, Note_on_c, 0, 48, 127
2, 226416, Note_on_c, 0, 72, 127
2, 226554, Note_off_c, 4, 76, 127
2, 226557, Note_off_c, 0, 72, 127
2, 226557, Note_off_c, 0, 48, 127
2, 226560, Note_on_c, 4, 76, 127
2, 226560, Note_on_c, 0, 60, 127
2, 226692, Note_off_c, 10, 69, 127
2, 226704, Note_on_c, 4, 64, 127
2, 226845, Note_off_c, 4, 64, 127
2, 226845, Note_off_c, 0, 60, 127
2, 226845, Note_off_c, 4, 76, 127
2, 226848, Note_on_c, 8, 68, 127
2, 226848, Note_on_c, 12, 59, 127
2, 226992, Note_on_c, 12, 71, 127
2, 227133, Note_off_c, 12, 71, 127
2, 227133, Note_off_c, 12, 59, 127
2, 227133, Note_off_c, 8, 68, 127
2, 227136, Note_on_c, 2, 74, 127
2, 227136, Note_on_c, 4, 52, 127
2, 227277, Note_off_c, 2, 74, 127
2, 227280, Note_on_c, 4, 64, 127
2, 227421, Note_off_c, 4, 64, 127
2, 227421, Note_off_c, 4, 52, 127
2, 227424, Note_on_c, 0, 72, 127
2, 227424, Note_on_c, 10, 45, 127
2, 227565, Note_off_c, 0, 72, 127
2, 227568, Note_on_c, 12, 71, 127
2, 227709, Note_off_c, 12, 71, 127
2, 227709, Note_off_c, 10, 45, 127
2, 227712, Note_on_c, 10, 69, 127
2, 227712, Note_on_c, 10, 57, 127
2, 227853, Note_off_c, 10, 69, 127
2, 227856, Note_on_c, 7, 67, 127
2, 227997, Note_off_c, 7, 67, 127
2, 228000, Note_on_c, 5, 65, 127
2, 228141, Note_off_c, 5, 65, 127
2, 228141, Note_off_c, 10, 57, 127
2, 228144, Note_on_c, 4, 64, 127
2, 228144, Note_on_c, 7, 55, 127
2, 228285, Note_off_c, 7, 55, 127
2, 228285, Note_off_c, 4, 64, 127
2, 228288, Note_on_c, 2, 62, 127
2, 228288, Note_on_c, 5, 53, 127
2, 228429, Note_off_c, 5, 53, 127
2, 228429, Note_off_c, 2, 62, 127
2, 228432, Note_on_c, 4, 64, 127
2, 228432, Note_on_c, 4, 52, 127
2, 228573, Note_off_c, 4, 52, 127
2, 228573, Note_off_c, 4, 64, 127
2, 228576, Note_on_c, 5, 65, 127
2, 228576, Note_on_c, 2, 50, 127
2, 228717, Note_off_c, 2, 50, 127
2, 228717, Note_off_c, 5, 65, 127
2, 228720, Note_on_c, 4, 64, 127
2, 228720, Note_on_c, 0, 48, 127
2, 228861, Note_off_c, 0, 48, 127
2, 228861, Note_off_c, 4, 64, 127
2, 228864, Note_on_c, 5, 65, 127
2, 228864, Note_on_c, 2, 50, 127
2, 229005, Note_off_c, 5, 65, 127
2, 229008, Note_on_c, 0, 72, 127
2, 229008, Note_on_c, 2, 38, 127
2, 229149, Note_off_c, 2, 38, 127
2, 229149, Note_off_c, 0, 72, 127
2, 229149, Note_off_c, 2, 50, 127
2, 229152, Note_on_c, 12, 71, 127
2, 229152, Note_on_c, 7, 43, 127
2, 229293, Note_off_c, 12, 71, 127
2, 229296, Note_on_c, 10, 69, 127
2, 229437, Note_off_c, 10, 69, 127
2, 229437, Note_off_c, 7, 43, 127
2, 229440, Note_on_c, 7, 67, 127
2, 229440, Note_on_c, 7, 55, 127
2, 229581, Note_off_c, 7, 67, 127
2, 229584, Note_on_c, 5, 65, 127
2, 229725, Note_off_c, 5, 65, 127
2, 229728, Note_on_c, 4, 64, 127
2, 229869, Note_off_c, 4, 64, 127
2, 229869, Note_off_c, 7, 55, 127
2, 229872, Note_on_c, 2, 62, 127
2, 229872, Note_on_c, 5, 53, 127
2, 230013, Note_off_c, 5, 53, 127
2, 230013, Note_off_c, 2, 62, 127
2, 230016, Note_on_c, 0, 60, 127
2, 230016, Note_on_c, 4, 52, 127
2, 230157, Note_off_c, 4, 52, 127
2, 230157, Note_off_c, 0, 60, 127
2, 230160, Note_on_c, 2, 62, 127
2, 230160, Note_on_c, 2, 50, 127
2, 230301, Note_off_c, 2, 50, 127
2, 230301, Note_off_c, 2, 62, 127
2, 230304, Note_on_c, 4, 64, 127
2, 230304, Note_on_c, 0, 48, 127
2, 230445, Note_off_c, 0, 48, 127
2, 230445, Note_off_c, 4, 64, 127
2, 230448, Note_on_c, 2, 62, 127
2, 230448, Note_on_c, 11, 46, 127
2, 230589, Note_off_c, 11, 46, 127
2, 230589, Note_off_c, 2, 62, 127
2, 230592, Note_on_c, 4, 64, 127
2, 230592, Note_on_c, 0, 48, 127
2, 230733, Note_off_c, 4, 64, 127
2, 230736, Note_on_c, 11, 70, 127
2, 230736, Note_on_c, 0, 36, 127
2, 230877, Note_off_c, 0, 36, 127
2, 230877, Note_off_c, 11, 70, 127
2, 230877, Note_off_c, 0, 48, 127
2, 230880, Note_on_c, 10, 69, 127
2, 230880, Note_on_c, 5, 41, 127
2, 231021, Note_off_c, 10, 69, 127
2, 231024, Note_on_c, 7, 67, 127
2, 231165, Note_off_c, 7, 67, 127
2, 231165, Note_off_c, 5, 41, 127
2, 231168, Note_on_c, 5, 65, 127
2, 231168, Note_on_c, 10, 45, 127
2, 231309, Note_off_c, 5, 65, 127
2, 231312, Note_on_c, 4, 64, 127
2, 231453, Note_off_c, 4, 64, 127
2, 231453, Note_off_c, 10, 45, 127
2, 231456, Note_on_c, 5, 65, 127
2, 231456, Note_on_c, 2, 38, 127
2, 231597, Note_off_c, 5, 65, 127
2, 231600, Note_on_c, 4, 64, 127
2, 231741, Note_off_c, 4, 64, 127
2, 231741, Note_off_c, 2, 38, 127
2, 231744, Note_on_c, 5, 65, 127
2, 231744, Note_on_c, 2, 50, 127
2, 231885, Note_off_c, 2, 50, 127
2, 231885, Note_off_c, 5, 65, 127
2, 231888, Note_on_c, 10, 69, 127
2, 231888, Note_on_c, 0, 48, 127
2, 232029, Note_off_c, 0, 48, 127
2, 232029, Note_off_c, 10, 69, 127
2, 232032, Note_on_c, 8, 68, 127
2, 232032, Note_on_c, 12, 47, 127
2, 232173, Note_off_c, 12, 47, 127
2, 232173, Note_off_c, 8, 68, 127
2, 232176, Note_on_c, 12, 71, 127
2, 232176, Note_on_c, 8, 44, 127
2, 232317, Note_off_c, 8, 44, 127
2, 232317, Note_off_c, 12, 71, 127
2, 232320, Note_on_c, 10, 69, 127
2, 232320, Note_on_c, 10, 45, 127
2, 232461, Note_off_c, 10, 45, 127
2, 232461, Note_off_c, 10, 69, 127
2, 232464, Note_on_c, 0, 72, 127
2, 232464, Note_on_c, 6, 42, 127
2, 232605, Note_off_c, 6, 42, 127
2, 232605, Note_off_c, 0, 72, 127
2, 232608, Note_on_c, 12, 71, 127
2, 232608, Note_on_c, 8, 44, 127
2, 232749, Note_off_c, 12, 71, 127
2, 232752, Note_on_c, 0, 72, 127
2, 232893, Note_off_c, 0, 72, 127
2, 232896, Note_on_c, 2, 74, 127
2, 233037, Note_off_c, 2, 74, 127
2, 233040, Note_on_c, 12, 71, 127
2, 233181, Note_off_c, 12, 71, 127
2, 233184, Note_on_c, 8, 68, 127
2, 233325, Note_off_c, 8, 68, 127
2, 233328, Note_off_c, 8, 44, 127
2, 233328, Note_on_c, 4, 64, 127
2, 233469, Note_off_c, 4, 64, 127
2, 233472, Note_on_c, 5, 65, 127
2, 233472, Note_on_c, 12, 47, 127
2, 233613, Note_off_c, 5, 65, 127
2, 233616, Note_on_c, 2, 62, 127
2, 233757, Note_off_c, 2, 62, 127
2, 233757, Note_off_c, 12, 47, 127
2, 233760, Note_on_c, 4, 64, 127
2, 233760, Note_on_c, 8, 44, 127
2, 233901, Note_off_c, 4, 64, 127
2, 233904, Note_on_c, 0, 60, 127
2, 234045, Note_off_c, 0, 60, 127
2, 234045, Note_off_c, 8, 44, 127
2, 234048, Note_on_c, 2, 62, 127
2, 234048, Note_on_c, 4, 40, 127
2, 234189, Note_off_c, 2, 62, 127
2, 234192, Note_on_c, 12, 59, 127
2, 234333, Note_off_c, 12, 59, 127
2, 234333, Note_off_c, 4, 40, 127
2, 234336, Note_on_c, 0, 60, 127
2, 234336, Note_on_c, 10, 45, 127
2, 234477, Note_off_c, 0, 60, 127
2, 234480, Note_on_c, 4, 64, 127
2, 234621, Note_off_c, 4, 64, 127
2, 234624, Note_on_c, 10, 69, 127
2, 234765, Note_off_c, 10, 69, 127
2, 234768, Note_on_c, 8, 68, 127
2, 234906, Note_off_c, 10, 45, 127
2, 234909, Note_off_c, 8, 68, 127
2, 234912, Note_on_c, 10, 69, 127
2, 235053, Note_off_c, 10, 69, 127
2, 235056, Note_on_c, 2, 62, 127
2, 235197, Note_off_c, 2, 62, 127
2, 235200, Note_on_c, 4, 64, 127
2, 235200, Note_on_c, 0, 48, 127
2, 235341, Note_off_c, 4, 64, 127
2, 235344, Note_on_c, 0, 60, 127
2, 235485, Note_off_c, 0, 60, 127
2, 235485, Note_off_c, 0, 48, 127
2, 235488, Note_on_c, 2, 62, 127
2, 235488, Note_on_c, 12, 47, 127
2, 235629, Note_off_c, 2, 62, 127
2, 235632, Note_on_c, 12, 59, 127
2, 235773, Note_off_c, 12, 59, 127
2, 235773, Note_off_c, 12, 47, 127
2, 235776, Note_on_c, 0, 60, 127
2, 235776, Note_on_c, 10, 45, 127
2, 235917, Note_off_c, 0, 60, 127
2, 235920, Note_on_c, 10, 57, 127
2, 236061, Note_off_c, 10, 57, 127
2, 236061, Note_off_c, 10, 45, 127
2, 236064, Note_on_c, 8, 56, 127
2, 236064, Note_on_c, 4, 52, 127
2, 236205, Note_off_c, 8, 56, 127
2, 236208, Note_on_c, 4, 64, 127
2, 236349, Note_off_c, 4, 64, 127
2, 236352, Note_on_c, 12, 71, 127
2, 236493, Note_off_c, 12, 71, 127
2, 236496, Note_on_c, 10, 69, 127
2, 236637, Note_off_c, 10, 69, 127
2, 236640, Note_on_c, 12, 71, 127
2, 236781, Note_off_c, 12, 71, 127
2, 236784, Note_on_c, 4, 64, 127
2, 236874, Note_off_c, 4, 52, 127
2, 236925, Note_off_c, 4, 64, 127
2, 236928, Note_on_c, 5, 65, 127
2, 236928, Note_on_c, 4, 52, 127
2, 237069, Note_off_c, 5, 65, 127
2, 237072, Note_on_c, 2, 62, 127
2, 237213, Note_off_c, 2, 62, 127
2, 237213, Note_off_c, 4, 52, 127
2, 237216, Note_on_c, 4, 64, 127
2, 237216, Note_on_c, 6, 54, 127
2, 237357, Note_off_c, 4, 64, 127
2, 237360, Note_on_c, 0, 60, 127
2, 237501, Note_off_c, 0, 60, 127
2, 237501, Note_off_c, 6, 54, 127
2, 237504, Note_on_c, 2, 62, 127
2, 237504, Note_on_c, 8, 56, 127
2, 237645, Note_off_c, 2, 62, 127
2, 237648, Note_on_c, 12, 59, 127
2, 237789, Note_off_c, 12, 59, 127
2, 237789, Note_off_c, 8, 56, 127
2, 237792, Note_on_c, 0, 60, 127
2, 237792, Note_on_c, 10, 57, 127
2, 237933, Note_off_c, 0, 60, 127
2, 237936, Note_on_c, 2, 62, 127
2, 238077, Note_off_c, 2, 62, 127
2, 238080, Note_on_c, 4, 64, 127
2, 238221, Note_off_c, 4, 64, 127
2, 238221, Note_off_c, 10, 57, 127
2, 238224, Note_on_c, 12, 59, 127
2, 238224, Note_on_c, 8, 56, 127
2, 238365, Note_off_c, 8, 56, 127
2, 238365, Note_off_c, 12, 59, 127
2, 238368, Note_on_c, 0, 60, 127
2, 238368, Note_on_c, 10, 57, 127
2, 238509, Note_off_c, 10, 57, 127
2, 238512, Note_on_c, 4, 52, 127
2, 238653, Note_off_c, 4, 52, 127
2, 238653, Note_off_c, 0, 60, 127
2, 238656, Note_on_c, 2, 62, 127
2, 238656, Note_on_c, 5, 53, 127
2, 238797, Note_off_c, 5, 53, 127
2, 238800, Note_on_c, 2, 50, 127
2, 238941, Note_off_c, 2, 50, 127
2, 238941, Note_off_c, 2, 62, 127
2, 238944, Note_on_c, 0, 60, 127
2, 238944, Note_on_c, 4, 52, 127
2, 239085, Note_off_c, 4, 52, 127
2, 239088, Note_on_c, 0, 48, 127
2, 239229, Note_off_c, 0, 48, 127
2, 239229, Note_off_c, 0, 60, 127
2, 239232, Note_on_c, 12, 59, 127
2, 239232, Note_on_c, 2, 50, 127
2, 239373, Note_off_c, 2, 50, 127
2, 239376, Note_on_c, 12, 47, 127
2, 239517, Note_off_c, 12, 47, 127
2, 239517, Note_off_c, 12, 59, 127
2, 239520, Note_on_c, 10, 57, 127
2, 239520, Note_on_c, 0, 48, 127
2, 239661, Note_off_c, 0, 48, 127
2, 239661, Note_off_c, 10, 57, 127
2, 239664, Note_on_c, 12, 59, 127
2, 239664, Note_on_c, 2, 50, 127
2, 239805, Note_off_c, 2, 50, 127
2, 239805, Note_off_c, 12, 59, 127
2, 239808, Note_on_c, 0, 60, 127
2, 239808, Note_on_c, 4, 52, 127
2, 239949, Note_off_c, 4, 52, 127
2, 239949, Note_off_c, 0, 60, 127
2, 239952, Note_on_c, 8, 56, 127
2, 239952, Note_on_c, 12, 47, 127
2, 240093, Note_off_c, 12, 47, 127
2, 240093, Note_off_c, 8, 56, 127
2, 240096, Note_on_c, 10, 57, 127
2, 240096, Note_on_c, 0, 48, 127
2, 240240, Note_on_c, 4, 52, 127
2, 240381, Note_off_c, 4, 52, 127
2, 240381, Note_off_c, 0, 48, 127
2, 240381, Note_off_c, 10, 57, 127
2, 240384, Note_on_c, 5, 53, 127
2, 240384, Note_on_c, 2, 50, 127
2, 240525, Note_off_c, 5, 53, 127
2, 240528, Note_on_c, 12, 59, 127
2, 240669, Note_off_c, 2, 50, 127
2, 240672, Note_on_c, 4, 52, 127
2, 240672, Note_on_c, 0, 48, 127
2, 240813, Note_off_c, 4, 52, 127
2, 240813, Note_off_c, 12, 59, 127
2, 240816, Note_on_c, 10, 57, 127
2, 240957, Note_off_c, 0, 48, 127
2, 240960, Note_on_c, 2, 50, 127
2, 240960, Note_on_c, 12, 47, 127
2, 241101, Note_off_c, 2, 50, 127
2, 241101, Note_off_c, 10, 57, 127
2, 241104, Note_on_c, 8, 56, 127
2, 241245, Note_off_c, 8, 56, 127
2, 241245, Note_off_c, 12, 47, 127
2, 241248, Note_on_c, 0, 48, 127
2, 241248, Note_on_c, 10, 45, 127
2, 241392, Note_on_c, 4, 52, 127
2, 241533, Note_off_c, 4, 52, 127
2, 241536, Note_on_c, 10, 57, 127
2, 241668, Note_off_c, 0, 48, 127
2, 241677, Note_off_c, 10, 45, 127
2, 241680, Note_on_c, 12, 47, 127
2, 241680, Note_on_c, 8, 44, 127
2, 241821, Note_off_c, 8, 44, 127
2, 241821, Note_off_c, 12, 47, 127
2, 241824, Note_on_c, 0, 48, 127
2, 241824, Note_on_c, 10, 45, 127
2, 241965, Note_off_c, 10, 45, 127
2, 241968, Note_on_c, 4, 40, 127
2, 242106, Note_off_c, 10, 57, 127
2, 242109, Note_off_c, 4, 40, 127
2, 242109, Note_off_c, 0, 48, 127
2, 242112, Note_on_c, 2, 50, 127
2, 242112, Note_on_c, 8, 56, 127
2, 242112, Note_on_c, 12, 47, 127
2, 242253, Note_off_c, 12, 47, 127
2, 242256, Note_on_c, 4, 40, 127
2, 242397, Note_off_c, 4, 40, 127
2, 242397, Note_off_c, 8, 56, 127
2, 242397, Note_off_c, 2, 50, 127
2, 242400, Note_on_c, 4, 52, 127
2, 242400, Note_on_c, 10, 57, 127
2, 242400, Note_on_c, 0, 48, 127
2, 242541, Note_off_c, 0, 48, 127
2, 242541, Note_off_c, 10, 57, 127
2, 242544, Note_on_c, 0, 60, 127
2, 242544, Note_on_c, 4, 40, 127
2, 242685, Note_off_c, 4, 40, 127
2, 242685, Note_off_c, 0, 60, 127
2, 242685, Note_off_c, 4, 52, 127
2, 242688, Note_on_c, 5, 53, 127
2, 242688, Note_on_c, 12, 59, 127
2, 242688, Note_on_c, 2, 50, 127
2, 242829, Note_off_c, 2, 50, 127
2, 242829, Note_off_c, 12, 59, 127
2, 242832, Note_on_c, 2, 62, 127
2, 242832, Note_on_c, 4, 40, 127
2, 242973, Note_off_c, 4, 40, 127
2, 242973, Note_off_c, 2, 62, 127
2, 242973, Note_off_c, 5, 53, 127
2, 242976, Note_on_c, 8, 56, 127
2, 242976, Note_on_c, 4, 52, 127
2, 243117, Note_off_c, 8, 56, 127
2, 243120, Note_on_c, 12, 59, 127
2, 243261, Note_off_c, 12, 59, 127
2, 243264, Note_on_c, 2, 62, 127
2, 243264, Note_on_c, 4, 40, 127
2, 243405, Note_off_c, 2, 62, 127
2, 243408, Note_on_c, 5, 65, 127
2, 243549, Note_off_c, 5, 65, 127
2, 243552, Note_on_c, 2, 62, 127
2, 243693, Note_off_c, 2, 62, 127
2, 243696, Note_on_c, 12, 59, 127
2, 243834, Note_off_c, 4, 40, 127
2, 243837, Note_off_c, 12, 59, 127
2, 243840, Note_on_c, 8, 56, 127
2, 243966, Note_off_c, 4, 52, 127
2, 243981, Note_off_c, 8, 56, 127
2, 243984, Note_on_c, 12, 59, 127
2, 244125, Note_off_c, 12, 59, 127
2, 244128, Note_on_c, 4, 52, 127
2, 244272, Note_on_c, 2, 62, 127
2, 244338, Note_off_c, 4, 52, 127
2, 244413, Note_off_c, 2, 62, 127
2, 244416, Note_on_c, 0, 60, 127
2, 244557, Note_off_c, 0, 60, 127
2, 244560, Note_on_c, 12, 59, 127
2, 244701, Note_off_c, 12, 59, 127
2, 244704, Note_on_c, 0, 60, 127
2, 244704, Note_on_c, 10, 57, 127
2, 244845, Note_off_c, 0, 60, 127
2, 244848, Note_on_c, 4, 64, 127
2, 244989, Note_off_c, 4, 64, 127
2, 244992, Note_on_c, 10, 69, 127
2, 245133, Note_off_c, 10, 57, 127
2, 245136, Note_on_c, 12, 59, 127
2, 245136, Note_on_c, 8, 56, 127
2, 245277, Note_off_c, 8, 56, 127
2, 245277, Note_off_c, 12, 59, 127
2, 245280, Note_on_c, 0, 60, 127
2, 245280, Note_on_c, 10, 57, 127
2, 245421, Note_off_c, 10, 57, 127
2, 245424, Note_on_c, 4, 52, 127
2, 245562, Note_off_c, 10, 69, 127
2, 245565, Note_off_c, 4, 52, 127
2, 245565, Note_off_c, 0, 60, 127
2, 245568, Note_on_c, 8, 68, 127
2, 245568, Note_on_c, 2, 62, 127
2, 245568, Note_on_c, 12, 59, 127
2, 245709, Note_off_c, 12, 59, 127
2, 245712, Note_on_c, 4, 52, 127
2, 245853, Note_off_c, 4, 52, 127
2, 245853, Note_off_c, 2, 62, 127
2, 245853, Note_off_c, 8, 68, 127
2, 245856, Note_on_c, 10, 69, 127
2, 245856, Note_on_c, 4, 64, 127
2, 245856, Note_on_c, 0, 60, 127
2, 245997, Note_off_c, 0, 60, 127
2, 246000, Note_on_c, 0, 72, 127
2, 246000, Note_on_c, 4, 52, 127
2, 246141, Note_off_c, 4, 52, 127
2, 246141, Note_off_c, 0, 72, 127
2, 246141, Note_off_c, 4, 64, 127
2, 246141, Note_off_c, 10, 69, 127
2, 246144, Note_on_c, 12, 71, 127
2, 246144, Note_on_c, 5, 65, 127
2, 246144, Note_on_c, 2, 62, 127
2, 246285, Note_off_c, 2, 62, 127
2, 246288, Note_on_c, 2, 74, 127
2, 246288, Note_on_c, 4, 52, 127
2, 246429, Note_off_c, 4, 52, 127
2, 246429, Note_off_c, 2, 74, 127
2, 246429, Note_off_c, 5, 65, 127
2, 246429, Note_off_c, 12, 71, 127
2, 246432, Note_on_c, 8, 68, 127
2, 246432, Note_on_c, 4, 64, 127
2, 246576, Note_on_c, 12, 71, 127
2, 246720, Note_on_c, 2, 74, 127
2, 246720, Note_on_c, 4, 52, 127
2, 246864, Note_on_c, 5, 77, 127
2, 247005, Note_off_c, 5, 77, 127
2, 247005, Note_off_c, 2, 74, 127
2, 247008, Note_on_c, 2, 74, 127
2, 247146, Note_off_c, 12, 71, 127
2, 247149, Note_off_c, 2, 74, 127
2, 247152, Note_on_c, 12, 71, 127
2, 247293, Note_off_c, 12, 71, 127
2, 247294, Note_off_c, 8, 68, 127
2, 247296, Note_on_c, 8, 68, 127
2, 247440, Note_on_c, 12, 71, 127
2, 247582, Note_off_c, 4, 64, 127
2, 247584, Note_on_c, 4, 64, 127
2, 247725, Note_off_c, 12, 71, 127
2, 247728, Note_on_c, 2, 74, 127
2, 247869, Note_off_c, 2, 74, 127
2, 247872, Note_on_c, 0, 72, 127
2, 248010, Note_off_c, 4, 52, 127
2, 248013, Note_off_c, 0, 72, 127
2, 248016, Note_on_c, 12, 71, 127
2, 248154, Note_off_c, 4, 64, 127
2, 248157, Note_off_c, 12, 71, 127
2, 248158, Note_off_c, 8, 68, 127
2, 248160, Note_on_c, 0, 72, 127
2, 248160, Note_on_c, 10, 69, 127
2, 248304, Note_on_c, 4, 76, 127
2, 248448, Note_on_c, 10, 81, 127
2, 248589, Note_off_c, 10, 69, 127
2, 248592, Note_on_c, 12, 71, 127
2, 248592, Note_on_c, 8, 68, 127
2, 248730, Note_off_c, 0, 72, 127
2, 248733, Note_off_c, 8, 68, 127
2, 248733, Note_off_c, 12, 71, 127
2, 248736, Note_on_c, 0, 72, 127
2, 248736, Note_on_c, 10, 69, 127
2, 248880, Note_on_c, 4, 64, 127
2, 249018, Note_off_c, 10, 81, 127
2, 249021, Note_off_c, 4, 64, 127
2, 249021, Note_off_c, 10, 69, 127
2, 249021, Note_off_c, 0, 72, 127
2, 249024, Note_off_c, 4, 76, 127
2, 249024, Note_on_c, 8, 80, 127
2, 249024, Note_on_c, 2, 74, 127
2, 249024, Note_on_c, 12, 71, 127
2, 249168, Note_on_c, 4, 64, 127
2, 249309, Note_off_c, 4, 64, 127
2, 249309, Note_off_c, 12, 71, 127
2, 249309, Note_off_c, 2, 74, 127
2, 249309, Note_off_c, 8, 80, 127
2, 249312, Note_on_c, 10, 81, 127
2, 249312, Note_on_c, 4, 76, 127
2, 249312, Note_on_c, 0, 72, 127
2, 249453, Note_off_c, 10, 81, 127
2, 249456, Note_on_c, 0, 84, 127
2, 249456, Note_on_c, 4, 64, 127
2, 249597, Note_off_c, 4, 64, 127
2, 249597, Note_off_c, 0, 84, 127
2, 249597, Note_off_c, 0, 72, 127
2, 249597, Note_off_c, 4, 76, 127
2, 249600, Note_on_c, 12, 83, 127
2, 249600, Note_on_c, 5, 77, 127
2, 249600, Note_on_c, 2, 74, 127
2, 249741, Note_off_c, 12, 83, 127
2, 249744, Note_on_c, 10, 81, 127
2, 249744, Note_on_c, 4, 64, 127
2, 249885, Note_off_c, 4, 64, 127
2, 249885, Note_off_c, 10, 81, 127
2, 249885, Note_off_c, 2, 74, 127
2, 249885, Note_off_c, 5, 77, 127
2, 249888, Note_on_c, 8, 80, 127
2, 249888, Note_on_c, 4, 76, 127
2, 250029, Note_off_c, 8, 80, 127
2, 250032, Note_on_c, 6, 78, 127
2, 250173, Note_off_c, 6, 78, 127
2, 250176, Note_on_c, 8, 80, 127
2, 250176, Note_on_c, 4, 64, 127
2, 250320, Note_on_c, 12, 83, 127
2, 250458, Note_off_c, 4, 76, 127
2, 250461, Note_off_c, 12, 83, 127
2, 250461, Note_off_c, 8, 80, 127
2, 250464, Note_on_c, 10, 81, 127
2, 250464, Note_on_c, 4, 76, 127
2, 250605, Note_off_c, 10, 81, 127
2, 250608, Note_on_c, 8, 80, 127
2, 250746, Note_off_c, 4, 64, 127
2, 250749, Note_off_c, 8, 80, 127
2, 250752, Note_on_c, 10, 81, 127
2, 250752, Note_on_c, 4, 64, 127
2, 250896, Note_on_c, 0, 84, 127
2, 251034, Note_off_c, 4, 76, 127
2, 251037, Note_off_c, 0, 84, 127
2, 251037, Note_off_c, 10, 81, 127
2, 251040, Note_on_c, 8, 80, 127
2, 251040, Note_on_c, 2, 74, 127
2, 251181, Note_off_c, 8, 80, 127
2, 251184, Note_on_c, 6, 78, 127
2, 251322, Note_off_c, 4, 64, 127
2, 251325, Note_off_c, 6, 78, 127
2, 251328, Note_on_c, 8, 80, 127
2, 251328, Note_on_c, 4, 64, 127
2, 251472, Note_on_c, 12, 83, 127
2, 251610, Note_off_c, 2, 74, 127
2, 251613, Note_off_c, 12, 83, 127
2, 251613, Note_off_c, 8, 80, 127
2, 251616, Note_on_c, 6, 78, 127
2, 251616, Note_on_c, 0, 72, 127
2, 251757, Note_off_c, 6, 78, 127
2, 251760, Note_on_c, 4, 76, 127
2, 251898, Note_off_c, 4, 64, 127
2, 251901, Note_off_c, 4, 76, 127
2, 251904, Note_on_c, 6, 78, 127
2, 251904, Note_on_c, 4, 64, 127
2, 252048, Note_on_c, 10, 81, 127
2, 252186, Note_off_c, 0, 72, 127
2, 252189, Note_off_c, 10, 81, 127
2, 252189, Note_off_c, 6, 78, 127
2, 252192, Note_on_c, 5, 77, 127
2, 252192, Note_on_c, 2, 74, 127
2, 252333, Note_off_c, 5, 77, 127
2, 252336, Note_on_c, 4, 76, 127
2, 252474, Note_off_c, 4, 64, 127
2, 252477, Note_off_c, 4, 76, 127
2, 252480, Note_on_c, 5, 77, 127
2, 252480, Note_on_c, 4, 64, 127
2, 252624, Note_on_c, 12, 83, 127
2, 252762, Note_off_c, 2, 74, 127
2, 252765, Note_off_c, 12, 83, 127
2, 252765, Note_off_c, 5, 77, 127
2, 252768, Note_on_c, 4, 76, 127
2, 252768, Note_on_c, 0, 72, 127
2, 252909, Note_off_c, 4, 76, 127
2, 252912, Note_on_c, 2, 74, 127
2, 253050, Note_off_c, 4, 64, 127
2, 253053, Note_off_c, 2, 74, 127
2, 253056, Note_on_c, 4, 76, 127
2, 253056, Note_on_c, 4, 64, 127
2, 253200, Note_on_c, 10, 81, 127
2, 253338, Note_off_c, 0, 72, 127
2, 253341, Note_off_c, 10, 81, 127
2, 253341, Note_off_c, 4, 76, 127
2, 253344, Note_on_c, 2, 74, 127
2, 253344, Note_on_c, 12, 71, 127
2, 253485, Note_off_c, 2, 74, 127
2, 253488, Note_on_c, 0, 72, 127
2, 253626, Note_off_c, 4, 64, 127
2, 253629, Note_off_c, 0, 72, 127
2, 253632, Note_on_c, 2, 74, 127
2, 253632, Note_on_c, 4, 64, 127
2, 253776, Note_on_c, 8, 80, 127
2, 253914, Note_off_c, 12, 71, 127
2, 253917, Note_off_c, 8, 80, 127
2, 253917, Note_off_c, 2, 74, 127
2, 253920, Note_on_c, 4, 76, 127
2, 253920, Note_on_c, 0, 72, 127
2, 254061, Note_off_c, 4, 76, 127
2, 254064, Note_on_c, 2, 74, 127
2, 254202, Note_off_c, 4, 64, 127
2, 254205, Note_off_c, 2, 74, 127
2, 254208, Note_on_c, 4, 76, 127
2, 254208, Note_on_c, 4, 64, 127
2, 254352, Note_on_c, 10, 81, 127
2, 254490, Note_off_c, 0, 72, 127
2, 254493, Note_off_c, 10, 81, 127
2, 254493, Note_off_c, 4, 76, 127
2, 254496, Note_on_c, 2, 74, 127
2, 254496, Note_on_c, 12, 71, 127
2, 254637, Note_off_c, 2, 74, 127
2, 254640, Note_on_c, 0, 72, 127
2, 254778, Note_off_c, 4, 64, 127
2, 254781, Note_off_c, 0, 72, 127
2, 254784, Note_on_c, 2, 74, 127
2, 254784, Note_on_c, 4, 64, 127
2, 254928, Note_on_c, 8, 80, 127
2, 255066, Note_off_c, 12, 71, 127
2, 255069, Note_off_c, 8, 80, 127
2, 255069, Note_off_c, 2, 74, 127
2, 255072, Note_on_c, 0, 72, 127
2, 255072, Note_on_c, 10, 69, 127
2, 255213, Note_off_c, 0, 72, 127
2, 255216, Note_on_c, 12, 71, 127
2, 255354, Note_off_c, 4, 64, 127
2, 255357, Note_off_c, 12, 71, 127
2, 255360, Note_on_c, 0, 72, 127
2, 255360, Note_on_c, 4, 64, 127
2, 255504, Note_on_c, 6, 78, 127
2, 255642, Note_off_c, 10, 69, 127
2, 255645, Note_off_c, 6, 78, 127
2, 255645, Note_off_c, 0, 72, 127
2, 255648, Note_on_c, 2, 74, 127
2, 255648, Note_on_c, 12, 71, 127
2, 255789, Note_off_c, 2, 74, 127
2, 255792, Note_on_c, 0, 72, 127
2, 255930, Note_off_c, 4, 64, 127
2, 255933, Note_off_c, 0, 72, 127
2, 255936, Note_on_c, 2, 74, 127
2, 255936, Note_on_c, 4, 64, 127
2, 256077, Note_off_c, 2, 74, 127
2, 256080, Note_on_c, 8, 80, 127
2, 256218, Note_off_c, 12, 71, 127
2, 256221, Note_off_c, 8, 80, 127
2, 256224, Note_on_c, 0, 72, 127
2, 256224, Note_on_c, 10, 69, 127
2, 256365, Note_off_c, 0, 72, 127
2, 256368, Note_on_c, 12, 71, 127
2, 256506, Note_off_c, 4, 64, 127
2, 256509, Note_off_c, 12, 71, 127
2, 256512, Note_on_c, 0, 72, 127
2, 256512, Note_on_c, 4, 64, 127
2, 256653, Note_off_c, 0, 72, 127
2, 256656, Note_on_c, 6, 78, 127
2, 256794, Note_off_c, 10, 69, 127
2, 256797, Note_off_c, 6, 78, 127
2, 256797, Note_off_c, 4, 64, 127
2, 256800, Note_on_c, 12, 71, 127
2, 256800, Note_on_c, 8, 68, 127
2, 256941, Note_off_c, 12, 71, 127
2, 256944, Note_on_c, 10, 69, 127
2, 257085, Note_off_c, 10, 69, 127
2, 257085, Note_off_c, 8, 68, 127
2, 257088, Note_on_c, 12, 71, 127
2, 257088, Note_on_c, 4, 64, 127
2, 257229, Note_off_c, 12, 71, 127
2, 257232, Note_on_c, 4, 76, 127
2, 257373, Note_off_c, 4, 76, 127
2, 257376, Note_on_c, 2, 74, 127
2, 257517, Note_off_c, 2, 74, 127
2, 257520, Note_on_c, 12, 71, 127
2, 257661, Note_off_c, 12, 71, 127
2, 257661, Note_off_c, 4, 64, 127
2, 257664, Note_on_c, 0, 72, 127
2, 257664, Note_on_c, 4, 64, 127
2, 257805, Note_off_c, 4, 64, 127
2, 257805, Note_off_c, 0, 72, 127
2, 257808, Note_on_c, 10, 69, 127
2, 257808, Note_on_c, 0, 60, 127
2, 257949, Note_off_c, 0, 60, 127
2, 257949, Note_off_c, 10, 69, 127
2, 257952, Note_on_c, 12, 71, 127
2, 257952, Note_on_c, 2, 62, 127
2, 258093, Note_off_c, 2, 62, 127
2, 258093, Note_off_c, 12, 71, 127
2, 258096, Note_on_c, 8, 68, 127
2, 258096, Note_on_c, 12, 59, 127
2, 258237, Note_off_c, 12, 59, 127
2, 258237, Note_off_c, 8, 68, 127
2, 258240, Note_on_c, 10, 69, 127
2, 258240, Note_on_c, 0, 60, 127
2, 258381, Note_off_c, 0, 60, 127
2, 258381, Note_off_c, 10, 69, 127
2, 258384, Note_on_c, 6, 66, 127
2, 258384, Note_on_c, 10, 57, 127
2, 258525, Note_off_c, 10, 57, 127
2, 258525, Note_off_c, 6, 66, 127
2, 258528, Note_on_c, 8, 68, 127
2, 258528, Note_on_c, 12, 59, 127
2, 258669, Note_off_c, 12, 59, 127
2, 258672, Note_on_c, 6, 66, 127
2, 258672, Note_on_c, 10, 57, 127
2, 258688, Note_off_c, 8, 68, 127
2, 258813, Note_off_c, 10, 57, 127
2, 258813, Note_off_c, 6, 66, 127
2, 258816, Note_on_c, 8, 68, 127
2, 258816, Note_on_c, 12, 59, 127
2, 258957, Note_off_c, 12, 59, 127
2, 258957, Note_off_c, 8, 68, 127
2, 258960, Note_on_c, 12, 71, 127
2, 258960, Note_on_c, 2, 62, 127
2, 259101, Note_off_c, 2, 62, 127
2, 259101, Note_off_c, 12, 71, 127
2, 259104, Note_on_c, 4, 64, 127
2, 259104, Note_on_c, 8, 56, 127
2, 259245, Note_off_c, 8, 56, 127
2, 259248, Note_on_c, 3, 63, 127
2, 259248, Note_on_c, 6, 54, 127
2, 259264, Note_off_c, 4, 64, 127
2, 259389, Note_off_c, 6, 54, 127
2, 259389, Note_off_c, 3, 63, 127
2, 259392, Note_on_c, 4, 64, 127
2, 259392, Note_on_c, 8, 56, 127
2, 259533, Note_off_c, 8, 56, 127
2, 259533, Note_off_c, 4, 64, 127
2, 259536, Note_on_c, 8, 68, 127
2, 259536, Note_on_c, 12, 59, 127
2, 259677, Note_off_c, 12, 59, 127
2, 259677, Note_off_c, 8, 68, 127
2, 259680, Note_on_c, 2, 62, 127
2, 259680, Note_on_c, 5, 53, 127
2, 259821, Note_off_c, 5, 53, 127
2, 259824, Note_on_c, 0, 60, 127
2, 259824, Note_on_c, 4, 52, 127
2, 259840, Note_off_c, 2, 62, 127
2, 259965, Note_off_c, 4, 52, 127
2, 259965, Note_off_c, 0, 60, 127
2, 259968, Note_on_c, 2, 62, 127
2, 259968, Note_on_c, 5, 53, 127
2, 260109, Note_off_c, 5, 53, 127
2, 260109, Note_off_c, 2, 62, 127
2, 260112, Note_on_c, 5, 65, 127
2, 260112, Note_on_c, 10, 57, 127
2, 260253, Note_off_c, 10, 57, 127
2, 260253, Note_off_c, 5, 65, 127
2, 260256, Note_on_c, 12, 59, 127
2, 260256, Note_on_c, 2, 50, 127
2, 260397, Note_off_c, 2, 50, 127
2, 260400, Note_on_c, 10, 57, 127
2, 260400, Note_on_c, 0, 48, 127
2, 260416, Note_off_c, 12, 59, 127
2, 260541, Note_off_c, 0, 48, 127
2, 260541, Note_off_c, 10, 57, 127
2, 260544, Note_on_c, 12, 59, 127
2, 260544, Note_on_c, 2, 50, 127
2, 260685, Note_off_c, 2, 50, 127
2, 260685, Note_off_c, 12, 59, 127
2, 260688, Note_on_c, 2, 62, 127
2, 260688, Note_on_c, 5, 53, 127
2, 260829, Note_off_c, 5, 53, 127
2, 260829, Note_off_c, 2, 62, 127
2, 260832, Note_on_c, 8, 56, 127
2, 260832, Note_on_c, 12, 47, 127
2, 260973, Note_off_c, 12, 47, 127
2, 260976, Note_on_c, 6, 54, 127
2, 260976, Note_on_c, 10, 45, 127
2, 261012, Note_off_c, 8, 56, 127
2, 261117, Note_off_c, 10, 45, 127
2, 261117, Note_off_c, 6, 54, 127
2, 261120, Note_on_c, 8, 56, 127
2, 261120, Note_on_c, 12, 47, 127
2, 261261, Note_off_c, 12, 47, 127
2, 261261, Note_off_c, 8, 56, 127
2, 261264, Note_on_c, 12, 59, 127
2, 261264, Note_on_c, 2, 50, 127
2, 261405, Note_off_c, 2, 50, 127
2, 261405, Note_off_c, 12, 59, 127
2, 261408, Note_on_c, 4, 52, 127
2, 261408, Note_on_c, 8, 44, 127
2, 261549, Note_off_c, 8, 44, 127
2, 261552, Note_on_c, 6, 42, 127
2, 261693, Note_off_c, 6, 42, 127
2, 261696, Note_on_c, 8, 44, 127
2, 261837, Note_off_c, 8, 44, 127
2, 261840, Note_on_c, 12, 47, 127
2, 261981, Note_off_c, 12, 47, 127
2, 261984, Note_on_c, 4, 40, 127
2, 262128, Note_off_c, 4, 52, 127
2, 262128, Note_on_c, 2, 50, 127
2, 262269, Note_off_c, 2, 50, 127
2, 262272, Note_on_c, 0, 48, 127
2, 262413, Note_off_c, 0, 48, 127
2, 262416, Note_on_c, 12, 47, 127
2, 262557, Note_off_c, 12, 47, 127
2, 262560, Note_on_c, 5, 53, 127
2, 262701, Note_off_c, 5, 53, 127
2, 262704, Note_on_c, 2, 50, 127
2, 262845, Note_off_c, 2, 50, 127
2, 262848, Note_on_c, 0, 48, 127
2, 262989, Note_off_c, 0, 48, 127
2, 262992, Note_on_c, 12, 47, 127
2, 263133, Note_off_c, 12, 47, 127
2, 263136, Note_on_c, 8, 56, 127
2, 263277, Note_off_c, 8, 56, 127
2, 263280, Note_on_c, 2, 50, 127
2, 263421, Note_off_c, 2, 50, 127
2, 263424, Note_on_c, 0, 48, 127
2, 263565, Note_off_c, 0, 48, 127
2, 263568, Note_on_c, 12, 47, 127
2, 263709, Note_off_c, 12, 47, 127
2, 263709, Note_off_c, 4, 40, 127
2, 263712, Note_on_c, 12, 59, 127
2, 263712, Note_on_c, 4, 40, 127
2, 263856, Note_on_c, 5, 53, 127
2, 263997, Note_off_c, 5, 53, 127
2, 264000, Note_on_c, 4, 52, 127
2, 264141, Note_off_c, 4, 52, 127
2, 264144, Note_on_c, 2, 50, 127
2, 264282, Note_off_c, 12, 59, 127
2, 264285, Note_off_c, 2, 50, 127
2, 264288, Note_on_c, 8, 56, 127
2, 264429, Note_off_c, 8, 56, 127
2, 264432, Note_on_c, 5, 53, 127
2, 264573, Note_off_c, 5, 53, 127
2, 264576, Note_on_c, 4, 52, 127
2, 264717, Note_off_c, 4, 52, 127
2, 264720, Note_on_c, 2, 50, 127
2, 264861, Note_off_c, 2, 50, 127
2, 264864, Note_on_c, 12, 59, 127
2, 265005, Note_off_c, 12, 59, 127
2, 265008, Note_on_c, 5, 53, 127
2, 265149, Note_off_c, 5, 53, 127
2, 265152, Note_on_c, 4, 52, 127
2, 265293, Note_off_c, 4, 52, 127
2, 265296, Note_on_c, 2, 50, 127
2, 265437, Note_off_c, 2, 50, 127
2, 265437, Note_off_c, 4, 40, 127
2, 265440, Note_on_c, 2, 62, 127
2, 265440, Note_on_c, 4, 40, 127
2, 265584, Note_on_c, 8, 56, 127
2, 265725, Note_off_c, 8, 56, 127
2, 265728, Note_on_c, 6, 54, 127
2, 265869, Note_off_c, 6, 54, 127
2, 265872, Note_on_c, 4, 52, 127
2, 266010, Note_off_c, 2, 62, 127
2, 266013, Note_off_c, 4, 52, 127
2, 266016, Note_on_c, 12, 59, 127
2, 266157, Note_off_c, 12, 59, 127
2, 266160, Note_on_c, 8, 56, 127
2, 266301, Note_off_c, 8, 56, 127
2, 266304, Note_on_c, 6, 54, 127
2, 266445, Note_off_c, 6, 54, 127
2, 266448, Note_on_c, 4, 52, 127
2, 266589, Note_off_c, 4, 52, 127
2, 266592, Note_on_c, 2, 62, 127
2, 266733, Note_off_c, 2, 62, 127
2, 266736, Note_on_c, 12, 59, 127
2, 266877, Note_off_c, 12, 59, 127
2, 266880, Note_on_c, 10, 57, 127
2, 267021, Note_off_c, 10, 57, 127
2, 267024, Note_on_c, 8, 56, 127
2, 267163, Note_off_c, 4, 40, 127
2, 267165, Note_off_c, 8, 56, 127
2, 267168, Note_on_c, 5, 65, 127
2, 267309, Note_off_c, 5, 65, 127
2, 267312, Note_on_c, 4, 64, 127
2, 267453, Note_off_c, 4, 64, 127
2, 267456, Note_on_c, 2, 62, 127
2, 267597, Note_off_c, 2, 62, 127
2, 267600, Note_on_c, 0, 60, 127
2, 267741, Note_off_c, 0, 60, 127
2, 267744, Note_on_c, 12, 59, 127
2, 267885, Note_off_c, 12, 59, 127
2, 267888, Note_on_c, 10, 57, 127
2, 268029, Note_off_c, 10, 57, 127
2, 268032, Note_on_c, 8, 56, 127
2, 268173, Note_off_c, 8, 56, 127
2, 268176, Note_on_c, 6, 54, 127
2, 268317, Note_off_c, 6, 54, 127
2, 268320, Note_on_c, 4, 52, 127
2, 268461, Note_off_c, 4, 52, 127
2, 268464, Note_on_c, 2, 50, 127
2, 268605, Note_off_c, 2, 50, 127
2, 268608, Note_on_c, 0, 48, 127
2, 268749, Note_off_c, 0, 48, 127
2, 268752, Note_on_c, 12, 47, 127
2, 268893, Note_off_c, 12, 47, 127
2, 268896, Note_on_c, 10, 45, 127
2, 269184, Note_on_c, 4, 76, 127
2, 269469, Note_off_c, 4, 76, 127
2, 269472, Note_on_c, 10, 69, 127
2, 269616, Note_off_c, 10, 45, 127
2, 269757, Note_off_c, 10, 69, 127
2, 269760, Note_on_c, 10, 81, 127
2, 269760, Note_on_c, 10, 57, 127
2, 269760, Note_on_c, 0, 60, 127
2, 270045, Note_off_c, 0, 60, 127
2, 270045, Note_off_c, 10, 57, 127
2, 270045, Note_off_c, 10, 81, 127
2, 270048, Note_on_c, 7, 79, 127
2, 270048, Note_on_c, 2, 62, 127
2, 270048, Note_on_c, 12, 59, 127
2, 270189, Note_off_c, 7, 79, 127
2, 270192, Note_on_c, 4, 76, 127
2, 270333, Note_off_c, 4, 76, 127
2, 270333, Note_off_c, 12, 59, 127
2, 270333, Note_off_c, 2, 62, 127
2, 270336, Note_on_c, 5, 77, 127
2, 270336, Note_on_c, 7, 55, 127
2, 270336, Note_on_c, 12, 59, 127
2, 270477, Note_off_c, 5, 77, 127
2, 270480, Note_on_c, 2, 74, 127
2, 270621, Note_off_c, 2, 74, 127
2, 270621, Note_off_c, 12, 59, 127
2, 270621, Note_off_c, 7, 55, 127
2, 270624, Note_on_c, 4, 76, 127
2, 270624, Note_on_c, 0, 60, 127
2, 270765, Note_off_c, 4, 76, 127
2, 270768, Note_on_c, 12, 71, 127
2, 270909, Note_off_c, 12, 71, 127
2, 270912, Note_on_c, 0, 72, 127
2, 270912, Note_on_c, 0, 48, 127
2, 271053, Note_off_c, 0, 72, 127
2, 271056, Note_on_c, 8, 68, 127
2, 271194, Note_off_c, 0, 60, 127
2, 271197, Note_off_c, 8, 68, 127
2, 271200, Note_on_c, 10, 69, 127
2, 271332, Note_off_c, 0, 48, 127
2, 271341, Note_off_c, 10, 69, 127
2, 271344, Note_on_c, 0, 72, 127
2, 271485, Note_off_c, 0, 72, 127
2, 271488, Note_on_c, 5, 77, 127
2, 271488, Note_on_c, 10, 69, 127
2, 271488, Note_on_c, 2, 62, 127
2, 271629, Note_off_c, 5, 77, 127
2, 271632, Note_on_c, 2, 74, 127
2, 271773, Note_off_c, 2, 74, 127
2, 271773, Note_off_c, 2, 62, 127
2, 271773, Note_off_c, 10, 69, 127
2, 271776, Note_on_c, 4, 76, 127
2, 271776, Note_on_c, 0, 60, 127
2, 271776, Note_on_c, 10, 69, 127
2, 271917, Note_off_c, 4, 76, 127
2, 271920, Note_on_c, 0, 72, 127
2, 272061, Note_off_c, 0, 72, 127
2, 272061, Note_off_c, 10, 69, 127
2, 272061, Note_off_c, 0, 60, 127
2, 272064, Note_on_c, 2, 74, 127
2, 272064, Note_on_c, 12, 59, 127
2, 272064, Note_on_c, 8, 68, 127
2, 272205, Note_off_c, 2, 74, 127
2, 272208, Note_on_c, 12, 71, 127
2, 272349, Note_off_c, 12, 71, 127
2, 272349, Note_off_c, 8, 68, 127
2, 272349, Note_off_c, 12, 59, 127
2, 272352, Note_on_c, 0, 72, 127
2, 272352, Note_on_c, 10, 69, 127
2, 272352, Note_on_c, 10, 57, 127
2, 272493, Note_off_c, 0, 72, 127
2, 272496, Note_on_c, 12, 71, 127
2, 272637, Note_off_c, 12, 71, 127
2, 272640, Note_on_c, 0, 72, 127
2, 272781, Note_off_c, 0, 72, 127
2, 272784, Note_on_c, 8, 68, 127
2, 272922, Note_off_c, 10, 69, 127
2, 272925, Note_off_c, 8, 68, 127
2, 272928, Note_on_c, 10, 69, 127
2, 273069, Note_off_c, 10, 69, 127
2, 273072, Note_off_c, 10, 57, 127
2, 273072, Note_on_c, 0, 72, 127
2, 273213, Note_off_c, 0, 72, 127
2, 273216, Note_on_c, 4, 76, 127
2, 273216, Note_on_c, 0, 60, 127
2, 273216, Note_on_c, 10, 69, 127
2, 273357, Note_off_c, 4, 76, 127
2, 273360, Note_on_c, 0, 72, 127
2, 273501, Note_off_c, 0, 72, 127
2, 273501, Note_off_c, 10, 69, 127
2, 273501, Note_off_c, 0, 60, 127
2, 273504, Note_on_c, 2, 74, 127
2, 273504, Note_on_c, 12, 59, 127
2, 273504, Note_on_c, 8, 68, 127
2, 273645, Note_off_c, 2, 74, 127
2, 273648, Note_on_c, 12, 71, 127
2, 273789, Note_off_c, 12, 71, 127
2, 273789, Note_off_c, 8, 68, 127
2, 273789, Note_off_c, 12, 59, 127
2, 273792, Note_on_c, 0, 72, 127
2, 273792, Note_on_c, 4, 64, 127
2, 273792, Note_on_c, 10, 57, 127
2, 273933, Note_off_c, 0, 72, 127
2, 273936, Note_on_c, 10, 69, 127
2, 274077, Note_off_c, 10, 69, 127
2, 274077, Note_off_c, 10, 57, 127
2, 274077, Note_off_c, 4, 64, 127
2, 274080, Note_on_c, 12, 71, 127
2, 274080, Note_on_c, 2, 62, 127
2, 274080, Note_on_c, 8, 56, 127
2, 274221, Note_off_c, 12, 71, 127
2, 274224, Note_on_c, 10, 69, 127
2, 274365, Note_off_c, 10, 69, 127
2, 274365, Note_off_c, 8, 56, 127
2, 274368, Note_on_c, 12, 71, 127
2, 274368, Note_on_c, 4, 52, 127
2, 274509, Note_off_c, 12, 71, 127
2, 274512, Note_on_c, 8, 68, 127
2, 274650, Note_off_c, 2, 62, 127
2, 274653, Note_off_c, 8, 68, 127
2, 274653, Note_off_c, 4, 52, 127
2, 274656, Note_on_c, 10, 69, 127
2, 274656, Note_on_c, 0, 60, 127
2, 274656, Note_on_c, 5, 53, 127
2, 274797, Note_off_c, 10, 69, 127
2, 274800, Note_on_c, 8, 68, 127
2, 274941, Note_off_c, 8, 68, 127
2, 274941, Note_off_c, 5, 53, 127
2, 274941, Note_off_c, 0, 60, 127
2, 274944, Note_on_c, 10, 69, 127
2, 274944, Note_on_c, 12, 59, 127
2, 274944, Note_on_c, 10, 57, 127
2, 274944, Note_on_c, 2, 50, 127
2, 275085, Note_off_c, 10, 69, 127
2, 275088, Note_on_c, 5, 77, 127
2, 275229, Note_off_c, 5, 77, 127
2, 275229, Note_off_c, 2, 50, 127
2, 275229, Note_off_c, 12, 59, 127
2, 275232, Note_on_c, 4, 76, 127
2, 275232, Note_on_c, 0, 60, 127
2, 275232, Note_on_c, 4, 52, 127
2, 275373, Note_off_c, 4, 76, 127
2, 275376, Note_on_c, 0, 72, 127
2, 275514, Note_off_c, 10, 57, 127
2, 275517, Note_off_c, 0, 72, 127
2, 275517, Note_off_c, 0, 60, 127
2, 275520, Note_on_c, 2, 74, 127
2, 275520, Note_on_c, 12, 59, 127
2, 275520, Note_on_c, 8, 56, 127
2, 275661, Note_off_c, 2, 74, 127
2, 275664, Note_on_c, 12, 71, 127
2, 275802, Note_off_c, 4, 52, 127
2, 275805, Note_off_c, 12, 71, 127
2, 275805, Note_off_c, 8, 56, 127
2, 275805, Note_off_c, 12, 59, 127
2, 275808, Note_on_c, 0, 72, 127
2, 275808, Note_on_c, 10, 57, 127
2, 275949, Note_off_c, 0, 72, 127
2, 275952, Note_on_c, 12, 71, 127
2, 276093, Note_off_c, 12, 71, 127
2, 276093, Note_off_c, 10, 57, 127
2, 276096, Note_on_c, 10, 69, 127
2, 276096, Note_on_c, 4, 52, 127
2, 276237, Note_off_c, 10, 69, 127
2, 276240, Note_on_c, 8, 68, 127
2, 276381, Note_off_c, 8, 68, 127
2, 276381, Note_off_c, 4, 52, 127
2, 276384, Note_on_c, 10, 69, 127
2, 276384, Note_on_c, 10, 45, 127
2, 276525, Note_off_c, 10, 69, 127
2, 276528, Note_on_c, 12, 71, 127
2, 276669, Note_off_c, 12, 71, 127
2, 276672, Note_on_c, 0, 72, 127
2, 276672, Note_on_c, 10, 57, 127
2, 276744, Note_off_c, 10, 45, 127
2, 276813, Note_off_c, 0, 72, 127
2, 276816, Note_on_c, 5, 77, 127
2, 276957, Note_off_c, 5, 77, 127
2, 276957, Note_off_c, 10, 57, 127
2, 276960, Note_on_c, 4, 76, 127
2, 276960, Note_on_c, 7, 55, 127
2, 277101, Note_off_c, 7, 55, 127
2, 277101, Note_off_c, 4, 76, 127
2, 277104, Note_on_c, 0, 72, 127
2, 277104, Note_on_c, 4, 52, 127
2, 277245, Note_off_c, 4, 52, 127
2, 277245, Note_off_c, 0, 72, 127
2, 277248, Note_on_c, 2, 74, 127
2, 277248, Note_on_c, 5, 53, 127
2, 277389, Note_off_c, 5, 53, 127
2, 277389, Note_off_c, 2, 74, 127
2, 277392, Note_on_c, 12, 71, 127
2, 277392, Note_on_c, 2, 50, 127
2, 277533, Note_off_c, 2, 50, 127
2, 277533, Note_off_c, 12, 71, 127
2, 277536, Note_on_c, 0, 72, 127
2, 277536, Note_on_c, 4, 52, 127
2, 277677, Note_off_c, 4, 52, 127
2, 277677, Note_off_c, 0, 72, 127
2, 277680, Note_on_c, 12, 71, 127
2, 277680, Note_on_c, 2, 50, 127
2, 277821, Note_off_c, 2, 50, 127
2, 277821, Note_off_c, 12, 71, 127
2, 277824, Note_on_c, 10, 69, 127
2, 277824, Note_on_c, 0, 48, 127
2, 277965, Note_off_c, 0, 48, 127
2, 277965, Note_off_c, 10, 69, 127
2, 277968, Note_on_c, 8, 68, 127
2, 277968, Note_on_c, 4, 52, 127
2, 278109, Note_off_c, 4, 52, 127
2, 278109, Note_off_c, 8, 68, 127
2, 278112, Note_on_c, 10, 69, 127
2, 278112, Note_on_c, 10, 45, 127
2, 278253, Note_off_c, 10, 45, 127
2, 278253, Note_off_c, 10, 69, 127
2, 278256, Note_on_c, 12, 71, 127
2, 278256, Note_on_c, 0, 48, 127
2, 278397, Note_off_c, 0, 48, 127
2, 278397, Note_off_c, 12, 71, 127
2, 278400, Note_on_c, 0, 72, 127
2, 278400, Note_on_c, 5, 53, 127
2, 278541, Note_off_c, 5, 53, 127
2, 278541, Note_off_c, 0, 72, 127
2, 278544, Note_on_c, 2, 74, 127
2, 278544, Note_on_c, 2, 50, 127
2, 278685, Note_off_c, 2, 50, 127
2, 278685, Note_off_c, 2, 74, 127
2, 278688, Note_on_c, 0, 72, 127
2, 278688, Note_on_c, 4, 52, 127
2, 278829, Note_off_c, 4, 52, 127
2, 278829, Note_off_c, 0, 72, 127
2, 278832, Note_on_c, 10, 69, 127
2, 278832, Note_on_c, 0, 48, 127
2, 278973, Note_off_c, 0, 48, 127
2, 278973, Note_off_c, 10, 69, 127
2, 278976, Note_on_c, 12, 71, 127
2, 278976, Note_on_c, 2, 50, 127
2, 279117, Note_off_c, 2, 50, 127
2, 279117, Note_off_c, 12, 71, 127
2, 279120, Note_on_c, 8, 68, 127
2, 279120, Note_on_c, 12, 47, 127
2, 279261, Note_off_c, 12, 47, 127
2, 279261, Note_off_c, 8, 68, 127
2, 279264, Note_on_c, 10, 69, 127
2, 279264, Note_on_c, 0, 48, 127
2, 279408, Note_off_c, 0, 48, 127
2, 279408, Note_off_c, 10, 69, 127
2, 279411, Note_on_c, 12, 71, 127
2, 279411, Note_on_c, 12, 47, 127
2, 279555, Note_off_c, 12, 47, 127
2, 279555, Note_off_c, 12, 71, 127
2, 279558, Note_on_c, 0, 72, 127
2, 279558, Note_on_c, 10, 45, 127
2, 279702, Note_off_c, 10, 45, 127
2, 279702, Note_off_c, 0, 72, 127
2, 279705, Note_on_c, 10, 69, 127
2, 279705, Note_on_c, 0, 48, 127
2, 279849, Note_off_c, 0, 48, 127
2, 279849, Note_off_c, 10, 69, 127
2, 279852, Note_on_c, 8, 68, 127
2, 279852, Note_on_c, 4, 40, 127
2, 279996, Note_off_c, 4, 40, 127
2, 279996, Note_off_c, 8, 68, 127
2, 279999, Note_on_c, 10, 69, 127
2, 279999, Note_on_c, 12, 47, 127
2, 280143, Note_off_c, 12, 47, 127
2, 280143, Note_off_c, 10, 69, 127
2, 280146, Note_on_c, 0, 72, 127
2, 280146, Note_on_c, 4, 52, 127
2, 280290, Note_off_c, 4, 52, 127
2, 280290, Note_off_c, 0, 72, 127
2, 280293, Note_on_c, 10, 69, 127
2, 280293, Note_on_c, 0, 48, 127
2, 280437, Note_off_c, 0, 48, 127
2, 280437, Note_off_c, 10, 69, 127
2, 280440, Note_on_c, 12, 71, 127
2, 280440, Note_on_c, 2, 50, 127
2, 280584, Note_off_c, 2, 50, 127
2, 280584, Note_off_c, 12, 71, 127
2, 280587, Note_on_c, 8, 68, 127
2, 280587, Note_on_c, 12, 47, 127
2, 280731, Note_off_c, 12, 47, 127
2, 280731, Note_off_c, 8, 68, 127
2, 280734, Note_on_c, 10, 69, 127
2, 280734, Note_on_c, 0, 48, 127
2, 280878, Note_off_c, 0, 48, 127
2, 280878, Note_off_c, 10, 69, 127
2, 280881, Note_on_c, 6, 66, 127
2, 280881, Note_on_c, 10, 45, 127
2, 281025, Note_off_c, 10, 45, 127
2, 281025, Note_off_c, 6, 66, 127
2, 281028, Note_on_c, 8, 68, 127
2, 281028, Note_on_c, 12, 47, 127
2, 281178, Note_off_c, 12, 47, 127
2, 281178, Note_off_c, 8, 68, 127
2, 281181, Note_on_c, 5, 65, 127
2, 281181, Note_on_c, 10, 45, 127
2, 281331, Note_off_c, 10, 45, 127
2, 281331, Note_off_c, 5, 65, 127
2, 281334, Note_on_c, 4, 64, 127
2, 281334, Note_on_c, 12, 47, 127
2, 281484, Note_off_c, 12, 47, 127
2, 281484, Note_off_c, 4, 64, 127
2, 281487, Note_on_c, 2, 62, 127
2, 281487, Note_on_c, 8, 44, 127
2, 281637, Note_off_c, 8, 44, 127
2, 281637, Note_off_c, 2, 62, 127
2, 281640, Note_on_c, 0, 60, 127
2, 281640, Note_on_c, 10, 45, 127
2, 281802, Note_off_c, 0, 60, 127
2, 281805, Note_on_c, 12, 59, 127
2, 281967, Note_off_c, 12, 59, 127
2, 281967, Note_off_c, 10, 45, 127
2, 281970, Note_on_c, 0, 60, 127
2, 281970, Note_on_c, 2, 50, 127
2, 282135, Note_on_c, 10, 69, 127
2, 282297, Note_off_c, 10, 69, 127
2, 282297, Note_off_c, 2, 50, 127
2, 282297, Note_off_c, 0, 60, 127
2, 282300, Note_on_c, 12, 59, 127
2, 282300, Note_on_c, 4, 52, 127
2, 282487, Note_on_c, 10, 69, 127
2, 282669, Note_off_c, 12, 59, 127
2, 282670, Note_off_c, 10, 69, 127
2, 282675, Note_on_c, 12, 59, 127
2, 282675, Note_on_c, 4, 40, 127
2, 282862, Note_on_c, 8, 68, 127
2, 282981, Note_off_c, 12, 59, 127
2, 283083, Note_off_c, 8, 68, 127
2, 283100, Note_off_c, 4, 40, 127
2, 283115, Note_on_c, 10, 69, 127
2, 283115, Note_on_c, 10, 45, 127
2, 283116, Note_off_c, 4, 52, 127
2, 285356, Note_off_c, 10, 45, 127
2, 285356, Note_off_c, 10, 69, 127
2, 286250, Note_on_c, 4, 76, 127
2, 286669, Note_off_c, 4, 76, 127
2, 286693, Note_on_c, 4, 76, 127
2, 286693, Note_on_c, 0, 72, 127
2, 286693, Note_on_c, 10, 57, 127
2, 286892, Note_on_c, 4, 64, 127
2, 287070, Note_off_c, 4, 64, 127
2, 287071, Note_on_c, 10, 69, 127
2, 287249, Note_off_c, 10, 69, 127
2, 287249, Note_off_c, 4, 76, 127
2, 287252, Note_on_c, 4, 76, 127
2, 287252, Note_on_c, 7, 67, 127
2, 287430, Note_off_c, 7, 67, 127
2, 287430, Note_off_c, 4, 76, 127
2, 287431, Note_on_c, 10, 81, 127
2, 287431, Note_on_c, 5, 65, 127
2, 287609, Note_off_c, 10, 81, 127
2, 287611, Note_on_c, 8, 80, 127
2, 287788, Note_off_c, 5, 65, 127
2, 287789, Note_off_c, 8, 80, 127
2, 287790, Note_on_c, 10, 81, 127
2, 287790, Note_on_c, 4, 64, 127
2, 287968, Note_off_c, 10, 81, 127
2, 287970, Note_on_c, 12, 83, 127
2, 288147, Note_off_c, 4, 64, 127
2, 288147, Note_off_c, 0, 72, 127
2, 288148, Note_off_c, 12, 83, 127
2, 288149, Note_on_c, 2, 74, 127
2, 288149, Note_on_c, 12, 71, 127
2, 288149, Note_on_c, 5, 65, 127
2, 288327, Note_off_c, 2, 74, 127
2, 288330, Note_on_c, 5, 77, 127
2, 288506, Note_off_c, 5, 65, 127
2, 288508, Note_off_c, 5, 77, 127
2, 288509, Note_on_c, 4, 76, 127
2, 288509, Note_on_c, 2, 62, 127
2, 288687, Note_off_c, 4, 76, 127
2, 288689, Note_on_c, 5, 77, 127
2, 288861, Note_off_c, 12, 71, 127
2, 288864, Note_off_c, 10, 57, 127
2, 288866, Note_off_c, 2, 62, 127
2, 288868, Note_on_c, 8, 68, 127
2, 288868, Note_on_c, 12, 59, 127
2, 289045, Note_off_c, 5, 77, 127
2, 289048, Note_on_c, 5, 77, 127
2, 289224, Note_off_c, 8, 68, 127
2, 289225, Note_off_c, 12, 59, 127
2, 289226, Note_off_c, 5, 77, 127
2, 289227, Note_on_c, 4, 76, 127
2, 289227, Note_on_c, 8, 68, 127
2, 289405, Note_off_c, 4, 76, 127
2, 289408, Note_on_c, 2, 74, 127
2, 289584, Note_off_c, 8, 68, 127
2, 289586, Note_off_c, 2, 74, 127
2, 289587, Note_on_c, 0, 72, 127
2, 289587, Note_on_c, 10, 69, 127
2, 289765, Note_off_c, 0, 72, 127
2, 289767, Note_on_c, 12, 71, 127
2, 289925, Note_off_c, 10, 69, 127
2, 289945, Note_off_c, 12, 71, 127
2, 289946, Note_on_c, 10, 69, 127
2, 290124, Note_off_c, 10, 69, 127
2, 290126, Note_on_c, 12, 71, 127
2, 290126, Note_on_c, 4, 64, 127
2, 290304, Note_off_c, 4, 64, 127
2, 290304, Note_off_c, 12, 71, 127
2, 290305, Note_on_c, 0, 72, 127
2, 290305, Note_on_c, 10, 69, 127
2, 290483, Note_off_c, 10, 69, 127
2, 290486, Note_on_c, 8, 68, 127
2, 290664, Note_off_c, 8, 68, 127
2, 290665, Note_on_c, 10, 81, 127
2, 290665, Note_on_c, 10, 69, 127
2, 290843, Note_off_c, 10, 69, 127
2, 290845, Note_on_c, 12, 71, 127
2, 290855, Note_off_c, 0, 72, 127
2, 291024, Note_off_c, 12, 71, 127
2, 291026, Note_on_c, 12, 71, 127
2, 291026, Note_on_c, 2, 62, 127
2, 291190, Note_off_c, 10, 81, 127
2, 291204, Note_off_c, 2, 62, 127
2, 291205, Note_on_c, 10, 81, 127
2, 291205, Note_on_c, 5, 65, 127
2, 291383, Note_off_c, 5, 65, 127
2, 291383, Note_off_c, 10, 81, 127
2, 291386, Note_on_c, 8, 80, 127
2, 291386, Note_on_c, 4, 64, 127
2, 291564, Note_off_c, 4, 64, 127
2, 291564, Note_off_c, 8, 80, 127
2, 291565, Note_on_c, 10, 81, 127
2, 291565, Note_on_c, 5, 65, 127
2, 291743, Note_off_c, 10, 81, 127
2, 291745, Note_on_c, 12, 83, 127
2, 291745, Note_on_c, 8, 56, 127
2, 291921, Note_off_c, 5, 65, 127
2, 291924, Note_on_c, 5, 65, 127
2, 292102, Note_off_c, 5, 65, 127
2, 292104, Note_on_c, 4, 64, 127
2, 292282, Note_off_c, 4, 64, 127
2, 292283, Note_on_c, 2, 62, 127
2, 292457, Note_off_c, 8, 56, 127
2, 292462, Note_off_c, 2, 62, 127
2, 292463, Note_off_c, 12, 71, 127
2, 292465, Note_on_c, 0, 60, 127
2, 292465, Note_on_c, 4, 64, 127
2, 292643, Note_off_c, 0, 60, 127
2, 292645, Note_on_c, 12, 59, 127
2, 292821, Note_off_c, 4, 64, 127
2, 292823, Note_off_c, 12, 59, 127
2, 292823, Note_off_c, 12, 83, 127
2, 292824, Note_on_c, 4, 76, 127
2, 292824, Note_on_c, 10, 57, 127
2, 293002, Note_off_c, 10, 57, 127
2, 293004, Note_on_c, 12, 59, 127
2, 293181, Note_off_c, 4, 76, 127
2, 293182, Note_off_c, 12, 59, 127
2, 293183, Note_on_c, 10, 81, 127
2, 293183, Note_on_c, 1, 61, 127
2, 293361, Note_off_c, 1, 61, 127
2, 293364, Note_on_c, 2, 62, 127
2, 293542, Note_off_c, 2, 62, 127
2, 293543, Note_on_c, 4, 64, 127
2, 293720, Note_off_c, 10, 81, 127
2, 293721, Note_off_c, 4, 64, 127
2, 293723, Note_on_c, 7, 79, 127
2, 293723, Note_on_c, 1, 61, 127
2, 293901, Note_off_c, 1, 61, 127
2, 293901, Note_off_c, 7, 79, 127
2, 293902, Note_on_c, 5, 77, 127
2, 293902, Note_on_c, 2, 62, 127
2, 294080, Note_off_c, 5, 77, 127
2, 294082, Note_on_c, 4, 76, 127
2, 294259, Note_off_c, 2, 62, 127
2, 294260, Note_off_c, 4, 76, 127
2, 294261, Note_on_c, 2, 74, 127
2, 294261, Note_on_c, 10, 57, 127
2, 294439, Note_off_c, 2, 74, 127
2, 294442, Note_on_c, 4, 76, 127
2, 294618, Note_off_c, 10, 57, 127
2, 294620, Note_off_c, 4, 76, 127
2, 294621, Note_on_c, 6, 78, 127
2, 294621, Note_on_c, 2, 62, 127
2, 294799, Note_off_c, 6, 78, 127
2, 294801, Note_on_c, 7, 79, 127
2, 294979, Note_off_c, 7, 79, 127
2, 294980, Note_on_c, 10, 81, 127
2, 295158, Note_off_c, 10, 81, 127
2, 295158, Note_off_c, 2, 62, 127
2, 295160, Note_on_c, 6, 78, 127
2, 295160, Note_on_c, 0, 60, 127
2, 295338, Note_off_c, 0, 60, 127
2, 295338, Note_off_c, 6, 78, 127
2, 295339, Note_on_c, 7, 79, 127
2, 295339, Note_on_c, 12, 59, 127
2, 295517, Note_off_c, 12, 59, 127
2, 295520, Note_on_c, 10, 57, 127
2, 295696, Note_off_c, 7, 79, 127
2, 295698, Note_off_c, 10, 57, 127
2, 295699, Note_on_c, 2, 74, 127
2, 295699, Note_on_c, 7, 55, 127
2, 295877, Note_off_c, 7, 55, 127
2, 295879, Note_on_c, 10, 57, 127
2, 296056, Note_off_c, 2, 74, 127
2, 296057, Note_off_c, 10, 57, 127
2, 296058, Note_on_c, 7, 79, 127
2, 296058, Note_on_c, 12, 59, 127
2, 296236, Note_off_c, 12, 59, 127
2, 296238, Note_on_c, 0, 60, 127
2, 296416, Note_off_c, 0, 60, 127
2, 296417, Note_on_c, 2, 62, 127
2, 296595, Note_off_c, 2, 62, 127
2, 296595, Note_off_c, 7, 79, 127
2, 296598, Note_on_c, 5, 77, 127
2, 296598, Note_on_c, 12, 59, 127
2, 296776, Note_off_c, 12, 59, 127
2, 296776, Note_off_c, 5, 77, 127
2, 296777, Note_on_c, 4, 76, 127
2, 296777, Note_on_c, 0, 60, 127
2, 296957, Note_on_c, 2, 74, 127
2, 297135, Note_off_c, 2, 74, 127
2, 297136, Note_on_c, 0, 72, 127
2, 297314, Note_off_c, 0, 72, 127
2, 297316, Note_on_c, 12, 71, 127
2, 297494, Note_off_c, 12, 71, 127
2, 297495, Note_on_c, 10, 69, 127
2, 297673, Note_off_c, 10, 69, 127
2, 297676, Note_on_c, 0, 72, 127
2, 297854, Note_off_c, 0, 72, 127
2, 297855, Note_on_c, 12, 71, 127
2, 298033, Note_off_c, 12, 71, 127
2, 298035, Note_on_c, 0, 72, 127
2, 298212, Note_off_c, 4, 76, 127
2, 298213, Note_off_c, 0, 72, 127
2, 298214, Note_on_c, 6, 66, 127
2, 298214, Note_on_c, 2, 74, 127
2, 298392, Note_off_c, 0, 60, 127
2, 298394, Note_on_c, 4, 64, 127
2, 298572, Note_off_c, 4, 64, 127
2, 298573, Note_on_c, 2, 62, 127
2, 298751, Note_off_c, 2, 62, 127
2, 298751, Note_off_c, 6, 66, 127
2, 298754, Note_on_c, 10, 69, 127
2, 298754, Note_on_c, 0, 60, 127
2, 298932, Note_off_c, 0, 60, 127
2, 298932, Note_off_c, 10, 69, 127
2, 298933, Note_on_c, 8, 68, 127
2, 298933, Note_on_c, 12, 59, 127
2, 299111, Note_off_c, 12, 59, 127
2, 299111, Note_off_c, 8, 68, 127
2, 299113, Note_on_c, 10, 69, 127
2, 299113, Note_on_c, 2, 62, 127
2, 299291, Note_off_c, 2, 62, 127
2, 299291, Note_off_c, 10, 69, 127
2, 299292, Note_on_c, 12, 71, 127
2, 299292, Note_on_c, 0, 60, 127
2, 299381, Note_off_c, 12, 71, 127
2, 299383, Note_on_c, 10, 69, 127
2, 299471, Note_off_c, 0, 60, 127
2, 299472, Note_off_c, 10, 69, 127
2, 299473, Note_on_c, 8, 68, 127
2, 299473, Note_on_c, 2, 62, 127
2, 299562, Note_off_c, 8, 68, 127
2, 299565, Note_on_c, 10, 69, 127
2, 299652, Note_off_c, 2, 62, 127
2, 299654, Note_off_c, 10, 69, 127
2, 299655, Note_on_c, 12, 71, 127
2, 299655, Note_on_c, 8, 56, 127
2, 299833, Note_off_c, 8, 56, 127
2, 299835, Note_on_c, 10, 57, 127
2, 300013, Note_off_c, 10, 57, 127
2, 300014, Note_on_c, 12, 59, 127
2, 300192, Note_off_c, 12, 59, 127
2, 300194, Note_on_c, 8, 56, 127
2, 300372, Note_off_c, 8, 56, 127
2, 300373, Note_on_c, 2, 50, 127
2, 300551, Note_off_c, 2, 50, 127
2, 300554, Note_on_c, 5, 53, 127
2, 300732, Note_off_c, 5, 53, 127
2, 300733, Note_on_c, 4, 52, 127
2, 300911, Note_off_c, 4, 52, 127
2, 300913, Note_on_c, 2, 50, 127
2, 301091, Note_off_c, 2, 50, 127
2, 301092, Note_on_c, 0, 48, 127
2, 301258, Note_off_c, 2, 74, 127
2, 301270, Note_off_c, 12, 71, 127
2, 301272, Note_on_c, 5, 77, 127
2, 301450, Note_off_c, 5, 77, 127
2, 301451, Note_on_c, 4, 76, 127
2, 301629, Note_off_c, 4, 76, 127
2, 301632, Note_on_c, 2, 74, 127
2, 301810, Note_off_c, 2, 74, 127
2, 301811, Note_on_c, 2, 74, 127
2, 301811, Note_on_c, 10, 69, 127
2, 301891, Note_on_c, 0, 72, 127
2, 301900, Note_off_c, 2, 74, 127
2, 301971, Note_on_c, 2, 74, 127
2, 301980, Note_off_c, 0, 72, 127
2, 301989, Note_off_c, 0, 48, 127
2, 301992, Note_on_c, 0, 48, 127
2, 302051, Note_on_c, 0, 72, 127
2, 302060, Note_off_c, 2, 74, 127
2, 302128, Note_on_c, 2, 74, 127
2, 302140, Note_off_c, 0, 72, 127
2, 302171, Note_off_c, 0, 48, 127
2, 302173, Note_on_c, 12, 47, 127
2, 302210, Note_on_c, 0, 72, 127
2, 302217, Note_off_c, 2, 74, 127
2, 302352, Note_off_c, 12, 47, 127
2, 302354, Note_on_c, 10, 45, 127
2, 302361, Note_off_c, 0, 72, 127
2, 302376, Note_on_c, 12, 71, 127
2, 302526, Note_off_c, 12, 71, 127
2, 302527, Note_off_c, 10, 69, 127
2, 302533, Note_off_c, 10, 45, 127
2, 302536, Note_on_c, 12, 71, 127
2, 302536, Note_on_c, 4, 52, 127
2, 302714, Note_off_c, 12, 71, 127
2, 302716, Note_on_c, 7, 67, 127
2, 302895, Note_on_c, 12, 71, 127
2, 303073, Note_off_c, 4, 52, 127
2, 303075, Note_on_c, 4, 76, 127
2, 303075, Note_on_c, 12, 59, 127
2, 303253, Note_off_c, 12, 59, 127
2, 303254, Note_on_c, 7, 79, 127
2, 303254, Note_on_c, 4, 64, 127
2, 303432, Note_off_c, 4, 64, 127
2, 303435, Note_on_c, 3, 63, 127
2, 303613, Note_off_c, 3, 63, 127
2, 303614, Note_on_c, 4, 64, 127
2, 303785, Note_off_c, 12, 71, 127
2, 303787, Note_off_c, 4, 76, 127
2, 303792, Note_off_c, 7, 79, 127
2, 303793, Note_off_c, 4, 64, 127
2, 303794, Note_off_c, 7, 67, 127
2, 303795, Note_on_c, 7, 79, 127
2, 303795, Note_on_c, 12, 71, 127
2, 303795, Note_on_c, 4, 76, 127
2, 303795, Note_on_c, 6, 66, 127
2, 303973, Note_off_c, 6, 66, 127
2, 303973, Note_off_c, 4, 76, 127
2, 303973, Note_off_c, 12, 71, 127
2, 303973, Note_off_c, 7, 79, 127
2, 303975, Note_on_c, 12, 71, 127
2, 303975, Note_on_c, 0, 72, 127
2, 303975, Note_on_c, 7, 79, 127
2, 303975, Note_on_c, 10, 57, 127
2, 304153, Note_off_c, 10, 57, 127
2, 304154, Note_on_c, 0, 60, 127
2, 304332, Note_off_c, 0, 60, 127
2, 304335, Note_on_c, 12, 59, 127
2, 304512, Note_off_c, 7, 79, 127
2, 304513, Note_off_c, 12, 59, 127
2, 304514, Note_on_c, 10, 81, 127
2, 304514, Note_on_c, 0, 60, 127
2, 304687, Note_off_c, 0, 72, 127
2, 304687, Note_off_c, 12, 71, 127
2, 304693, Note_off_c, 0, 60, 127
2, 304693, Note_off_c, 10, 81, 127
2, 304695, Note_on_c, 10, 69, 127
2, 304695, Note_on_c, 0, 72, 127
2, 304695, Note_on_c, 6, 78, 127
2, 304695, Note_on_c, 3, 51, 127
2, 304873, Note_off_c, 3, 51, 127
2, 304875, Note_on_c, 0, 60, 127
2, 305053, Note_off_c, 0, 60, 127
2, 305054, Note_on_c, 12, 59, 127
2, 305232, Note_off_c, 12, 59, 127
2, 305232, Note_off_c, 6, 78, 127
2, 305234, Note_on_c, 6, 78, 127
2, 305234, Note_on_c, 10, 57, 127
2, 305407, Note_off_c, 0, 72, 127
2, 305407, Note_off_c, 10, 69, 127
2, 305413, Note_off_c, 10, 57, 127
2, 305413, Note_off_c, 6, 78, 127
2, 305416, Note_on_c, 12, 71, 127
2, 305416, Note_on_c, 6, 78, 127
2, 305416, Note_on_c, 10, 69, 127
2, 305416, Note_on_c, 7, 55, 127
2, 305594, Note_off_c, 6, 78, 127
2, 305595, Note_on_c, 10, 81, 127
2, 305773, Note_off_c, 10, 81, 127
2, 305775, Note_on_c, 7, 79, 127
2, 305953, Note_off_c, 7, 79, 127
2, 305954, Note_on_c, 6, 78, 127
2, 306128, Note_off_c, 10, 69, 127
2, 306133, Note_off_c, 6, 78, 127
2, 306135, Note_on_c, 7, 67, 127
2, 306135, Note_on_c, 4, 76, 127
2, 306313, Note_off_c, 4, 76, 127
2, 306313, Note_off_c, 7, 67, 127
2, 306313, Note_off_c, 7, 55, 127
2, 306315, Note_off_c, 12, 71, 127
2, 306316, Note_on_c, 3, 75, 127
2, 306316, Note_on_c, 7, 55, 127
2, 306494, Note_off_c, 7, 55, 127
2, 306494, Note_off_c, 3, 75, 127
2, 306495, Note_on_c, 4, 76, 127
2, 306495, Note_on_c, 6, 54, 127
2, 306673, Note_off_c, 6, 54, 127
2, 306673, Note_off_c, 4, 76, 127
2, 306675, Note_on_c, 6, 78, 127
2, 306675, Note_on_c, 4, 52, 127
2, 306853, Note_off_c, 4, 52, 127
2, 306853, Note_off_c, 6, 78, 127
2, 306854, Note_on_c, 10, 69, 127
2, 306854, Note_on_c, 6, 54, 127
2, 307032, Note_off_c, 6, 54, 127
2, 307032, Note_off_c, 10, 69, 127
2, 307034, Note_on_c, 0, 72, 127
2, 307034, Note_on_c, 6, 54, 127
2, 307212, Note_off_c, 6, 54, 127
2, 307212, Note_off_c, 0, 72, 127
2, 307214, Note_on_c, 12, 71, 127
2, 307214, Note_on_c, 7, 55, 127
2, 307392, Note_off_c, 7, 55, 127
2, 307392, Note_off_c, 12, 71, 127
2, 307394, Note_on_c, 0, 72, 127
2, 307394, Note_on_c, 10, 57, 127
2, 307572, Note_off_c, 10, 57, 127
2, 307572, Note_off_c, 0, 72, 127
2, 307573, Note_on_c, 3, 63, 127
2, 307573, Note_on_c, 12, 59, 127
2, 307753, Note_on_c, 0, 72, 127
2, 307930, Note_off_c, 12, 59, 127
2, 307931, Note_off_c, 0, 72, 127
2, 307932, Note_on_c, 12, 71, 127
2, 307932, Note_on_c, 12, 47, 127
2, 308110, Note_off_c, 12, 71, 127
2, 308112, Note_on_c, 10, 69, 127
2, 308285, Note_off_c, 3, 63, 127
2, 308291, Note_off_c, 10, 69, 127
2, 308291, Note_off_c, 12, 47, 127
2, 308294, Note_on_c, 7, 67, 127
2, 308294, Note_on_c, 4, 52, 127
2, 308383, Note_off_c, 4, 52, 127
2, 308384, Note_on_c, 3, 51, 127
2, 308473, Note_off_c, 3, 51, 127
2, 308473, Note_off_c, 7, 67, 127
2, 308475, Note_on_c, 6, 66, 127
2, 308475, Note_on_c, 4, 52, 127
2, 308653, Note_off_c, 6, 66, 127
2, 308654, Note_on_c, 4, 64, 127
2, 308832, Note_off_c, 4, 64, 127
2, 308834, Note_on_c, 6, 66, 127
2, 309012, Note_off_c, 6, 66, 127
2, 309013, Note_on_c, 7, 67, 127
2, 309191, Note_off_c, 7, 67, 127
2, 309191, Note_off_c, 4, 52, 127
2, 309194, Note_on_c, 10, 69, 127
2, 309194, Note_on_c, 2, 50, 127
2, 309372, Note_off_c, 2, 50, 127
2, 309372, Note_off_c, 10, 69, 127
2, 309373, Note_on_c, 12, 71, 127
2, 309373, Note_on_c, 0, 48, 127
2, 309551, Note_off_c, 0, 48, 127
2, 309551, Note_off_c, 12, 71, 127
2, 309553, Note_on_c, 7, 67, 127
2, 309553, Note_on_c, 12, 47, 127
2, 309731, Note_off_c, 12, 47, 127
2, 309731, Note_off_c, 7, 67, 127
2, 309732, Note_on_c, 0, 72, 127
2, 309732, Note_on_c, 10, 45, 127
2, 309821, Note_off_c, 0, 72, 127
2, 309823, Note_on_c, 12, 71, 127
2, 309911, Note_off_c, 10, 45, 127
2, 309912, Note_off_c, 12, 71, 127
2, 309913, Note_on_c, 0, 72, 127
2, 309913, Note_on_c, 7, 43, 127
2, 310091, Note_off_c, 7, 43, 127
2, 310094, Note_on_c, 10, 45, 127
2, 310270, Note_off_c, 0, 72, 127
2, 310272, Note_off_c, 10, 45, 127
2, 310273, Note_on_c, 12, 71, 127
2, 310273, Note_on_c, 12, 47, 127
2, 310451, Note_off_c, 12, 47, 127
2, 310451, Note_off_c, 12, 71, 127
2, 310453, Note_on_c, 10, 69, 127
2, 310453, Note_on_c, 0, 48, 127
2, 310631, Note_off_c, 0, 48, 127
2, 310632, Note_on_c, 7, 67, 127
2, 310632, Note_on_c, 12, 47, 127
2, 310810, Note_off_c, 12, 47, 127
2, 310810, Note_off_c, 7, 67, 127
2, 310812, Note_on_c, 6, 66, 127
2, 310812, Note_on_c, 0, 48, 127
2, 310990, Note_off_c, 0, 48, 127
2, 310990, Note_off_c, 6, 66, 127
2, 310991, Note_on_c, 4, 64, 127
2, 310991, Note_on_c, 10, 45, 127
2, 311169, Note_off_c, 10, 45, 127
2, 311169, Note_off_c, 4, 64, 127
2, 311172, Note_on_c, 3, 63, 127
2, 311172, Note_on_c, 12, 47, 127
2, 311350, Note_off_c, 10, 69, 127
2, 311351, Note_on_c, 10, 69, 127
2, 311529, Note_off_c, 10, 69, 127
2, 311531, Note_on_c, 7, 67, 127
2, 311531, Note_on_c, 6, 54, 127
2, 311707, Note_off_c, 3, 63, 127
2, 311709, Note_off_c, 7, 67, 127
2, 311710, Note_on_c, 6, 66, 127
2, 311888, Note_off_c, 6, 66, 127
2, 311888, Note_off_c, 6, 54, 127
2, 311890, Note_on_c, 7, 67, 127
2, 311890, Note_on_c, 12, 59, 127
2, 312069, Note_on_c, 4, 64, 127
2, 312239, Note_off_c, 7, 67, 127
2, 312247, Note_off_c, 4, 64, 127
2, 312247, Note_off_c, 12, 59, 127
2, 312250, Note_on_c, 6, 66, 127
2, 312250, Note_on_c, 7, 55, 127
2, 312428, Note_off_c, 6, 66, 127
2, 312429, Note_on_c, 7, 67, 127
2, 312607, Note_off_c, 7, 67, 127
2, 312607, Note_off_c, 7, 55, 127
2, 312609, Note_on_c, 1, 61, 127
2, 312609, Note_on_c, 4, 52, 127
2, 312788, Note_on_c, 4, 64, 127
2, 312958, Note_off_c, 1, 61, 127
2, 312966, Note_off_c, 4, 64, 127
2, 312966, Note_off_c, 4, 52, 127
2, 312968, Note_on_c, 2, 62, 127
2, 312968, Note_on_c, 7, 55, 127
2, 313146, Note_off_c, 2, 62, 127
2, 313147, Note_on_c, 4, 64, 127
2, 313325, Note_off_c, 4, 64, 127
2, 313325, Note_off_c, 7, 55, 127
2, 313328, Note_on_c, 11, 58, 127
2, 313328, Note_on_c, 1, 49, 127
2, 313507, Note_on_c, 7, 67, 127
2, 313677, Note_off_c, 11, 58, 127
2, 313685, Note_off_c, 7, 67, 127
2, 313685, Note_off_c, 1, 49, 127
2, 313687, Note_on_c, 6, 66, 127
2, 313687, Note_on_c, 11, 58, 127
2, 313865, Note_off_c, 6, 66, 127
2, 313866, Note_on_c, 4, 64, 127
2, 314035, Note_off_c, 12, 47, 127
2, 314044, Note_off_c, 4, 64, 127
2, 314044, Note_off_c, 11, 58, 127
2, 314046, Note_on_c, 3, 63, 127
2, 314046, Note_on_c, 12, 59, 127
2, 314224, Note_off_c, 3, 63, 127
2, 314225, Note_on_c, 1, 61, 127
2, 314392, Note_off_c, 12, 59, 127
2, 314403, Note_off_c, 1, 61, 127
2, 314406, Note_on_c, 12, 59, 127
2, 314585, Note_on_c, 10, 57, 127
2, 314763, Note_off_c, 10, 57, 127
2, 314763, Note_off_c, 12, 59, 127
2, 314765, Note_on_c, 12, 71, 127
2, 314765, Note_on_c, 7, 55, 127
2, 314854, Note_off_c, 12, 71, 127
2, 314855, Note_on_c, 10, 69, 127
2, 314944, Note_off_c, 10, 69, 127
2, 314944, Note_off_c, 7, 55, 127
2, 314946, Note_on_c, 12, 71, 127
2, 314946, Note_on_c, 4, 52, 127
2, 315124, Note_off_c, 4, 52, 127
2, 315125, Note_on_c, 6, 54, 127
2, 315303, Note_off_c, 6, 54, 127
2, 315303, Note_off_c, 12, 71, 127
2, 315306, Note_on_c, 12, 71, 127
2, 315306, Note_on_c, 7, 55, 127
2, 315484, Note_off_c, 7, 55, 127
2, 315484, Note_off_c, 12, 71, 127
2, 315485, Note_on_c, 4, 76, 127
2, 315485, Note_on_c, 0, 48, 127
2, 315663, Note_off_c, 4, 76, 127
2, 315665, Note_on_c, 0, 72, 127
2, 315843, Note_off_c, 0, 72, 127
2, 315844, Note_on_c, 12, 71, 127
2, 316022, Note_off_c, 12, 71, 127
2, 316022, Note_off_c, 0, 48, 127
2, 316024, Note_on_c, 10, 69, 127
2, 316024, Note_on_c, 12, 47, 127
2, 316202, Note_off_c, 12, 47, 127
2, 316202, Note_off_c, 10, 69, 127
2, 316203, Note_on_c, 6, 78, 127
2, 316203, Note_on_c, 0, 48, 127
2, 316292, Note_off_c, 6, 78, 127
2, 316295, Note_on_c, 4, 76, 127
2, 316382, Note_off_c, 0, 48, 127
2, 316384, Note_off_c, 4, 76, 127
2, 316385, Note_on_c, 6, 78, 127
2, 316385, Note_on_c, 10, 45, 127
2, 316563, Note_off_c, 10, 45, 127
2, 316565, Note_on_c, 12, 47, 127
2, 316742, Note_off_c, 6, 78, 127
2, 316743, Note_off_c, 12, 47, 127
2, 316744, Note_on_c, 6, 78, 127
2, 316744, Note_on_c, 0, 48, 127
2, 316922, Note_off_c, 0, 48, 127
2, 316922, Note_off_c, 6, 78, 127
2, 316924, Note_on_c, 6, 78, 127
2, 316924, Note_on_c, 3, 39, 127
2, 317102, Note_off_c, 6, 78, 127
2, 317103, Note_on_c, 7, 79, 127
2, 317192, Note_off_c, 7, 79, 127
2, 317194, Note_on_c, 10, 81, 127
2, 317283, Note_off_c, 10, 81, 127
2, 317283, Note_off_c, 3, 39, 127
2, 317285, Note_on_c, 7, 79, 127
2, 317285, Note_on_c, 4, 40, 127
2, 317463, Note_off_c, 7, 79, 127
2, 317465, Note_on_c, 6, 78, 127
2, 317642, Note_off_c, 4, 40, 127
2, 317643, Note_off_c, 6, 78, 127
2, 317644, Note_on_c, 7, 79, 127
2, 317644, Note_on_c, 3, 75, 127
2, 317644, Note_on_c, 12, 47, 127
2, 317733, Note_off_c, 7, 79, 127
2, 317735, Note_on_c, 6, 78, 127
2, 317824, Note_off_c, 6, 78, 127
2, 317825, Note_on_c, 7, 79, 127
2, 317914, Note_off_c, 7, 79, 127
2, 317916, Note_on_c, 6, 78, 127
2, 318005, Note_off_c, 6, 78, 127
2, 318006, Note_on_c, 7, 79, 127
2, 318095, Note_off_c, 7, 79, 127
2, 318098, Note_on_c, 6, 78, 127
2, 318171, Note_off_c, 3, 75, 127
2, 318184, Note_off_c, 6, 78, 127
2, 318187, Note_on_c, 4, 76, 127
2, 318363, Note_off_c, 12, 47, 127
2, 318365, Note_off_c, 4, 76, 127
2, 318366, Note_on_c, 4, 76, 127
2, 318366, Note_on_c, 4, 52, 127
2, 318546, Note_on_c, 2, 74, 127
2, 318724, Note_off_c, 2, 74, 127
2, 318725, Note_on_c, 0, 72, 127
2, 318903, Note_off_c, 0, 72, 127
2, 318905, Note_on_c, 12, 71, 127
2, 318905, Note_on_c, 8, 56, 127
2, 319083, Note_off_c, 8, 56, 127
2, 319083, Note_off_c, 12, 71, 127
2, 319084, Note_on_c, 0, 72, 127
2, 319084, Note_on_c, 10, 57, 127
2, 319262, Note_off_c, 10, 57, 127
2, 319262, Note_off_c, 0, 72, 127
2, 319265, Note_on_c, 8, 68, 127
2, 319265, Note_on_c, 12, 59, 127
2, 319443, Note_off_c, 12, 59, 127
2, 319443, Note_off_c, 8, 68, 127
2, 319444, Note_on_c, 10, 69, 127
2, 319444, Note_on_c, 0, 60, 127
2, 319622, Note_off_c, 0, 60, 127
2, 319624, Note_on_c, 0, 72, 127
2, 319624, Note_on_c, 3, 63, 127
2, 319800, Note_off_c, 10, 69, 127
2, 319801, Note_off_c, 4, 52, 127
2, 319801, Note_off_c, 4, 76, 127
2, 319802, Note_off_c, 3, 63, 127
2, 319802, Note_off_c, 0, 72, 127
2, 319803, Note_on_c, 4, 64, 127
2, 319983, Note_on_c, 8, 68, 127
2, 319983, Note_on_c, 4, 40, 127
2, 320073, Note_on_c, 12, 71, 127
2, 320165, Note_on_c, 4, 76, 127
2, 320165, Note_on_c, 8, 44, 127
2, 320343, Note_off_c, 8, 44, 127
2, 320344, Note_on_c, 12, 47, 127
2, 320522, Note_off_c, 12, 47, 127
2, 320524, Note_on_c, 4, 52, 127
2, 320970, Note_off_c, 12, 71, 127
2, 321062, Note_off_c, 4, 76, 127
2, 321062, Note_off_c, 4, 40, 127
2, 321062, Note_off_c, 8, 68, 127
2, 321065, Note_on_c, 12, 71, 127
2, 321069, Note_off_c, 4, 64, 127
2, 321243, Note_off_c, 4, 52, 127
2, 321244, Note_off_c, 12, 71, 127
2, 321246, Note_on_c, 8, 68, 127
2, 321246, Note_on_c, 12, 71, 127
2, 321246, Note_on_c, 4, 64, 127
2, 321246, Note_on_c, 4, 40, 127
2, 321424, Note_off_c, 4, 40, 127
2, 321425, Note_on_c, 8, 44, 127
2, 321603, Note_off_c, 8, 44, 127
2, 321605, Note_on_c, 4, 52, 127
2, 321783, Note_off_c, 4, 52, 127
2, 321783, Note_off_c, 4, 64, 127
2, 321783, Note_off_c, 12, 71, 127
2, 321783, Note_off_c, 8, 68, 127
2, 321784, Note_on_c, 12, 71, 127
2, 321784, Note_on_c, 6, 54, 127
2, 321962, Note_off_c, 6, 54, 127
2, 321962, Note_off_c, 12, 71, 127
2, 321964, Note_on_c, 2, 62, 127
2, 321964, Note_on_c, 8, 56, 127
2, 322142, Note_off_c, 2, 62, 127
2, 322144, Note_on_c, 5, 65, 127
2, 322321, Note_off_c, 8, 56, 127
2, 322322, Note_off_c, 5, 65, 127
2, 322324, Note_on_c, 4, 64, 127
2, 322324, Note_on_c, 10, 57, 127
2, 322502, Note_off_c, 4, 64, 127
2, 322503, Note_on_c, 2, 62, 127
2, 322681, Note_off_c, 2, 62, 127
2, 322681, Note_off_c, 10, 57, 127
2, 322683, Note_on_c, 8, 68, 127
2, 322683, Note_on_c, 12, 59, 127
2, 322861, Note_off_c, 8, 68, 127
2, 322862, Note_on_c, 4, 64, 127
2, 323040, Note_off_c, 4, 64, 127
2, 323040, Note_off_c, 12, 59, 127
2, 323042, Note_on_c, 5, 65, 127
2, 323042, Note_on_c, 10, 57, 127
2, 323220, Note_off_c, 5, 65, 127
2, 323222, Note_on_c, 4, 64, 127
2, 323399, Note_off_c, 10, 57, 127
2, 323400, Note_off_c, 4, 64, 127
2, 323402, Note_on_c, 12, 71, 127
2, 323402, Note_on_c, 8, 56, 127
2, 323580, Note_off_c, 12, 71, 127
2, 323581, Note_on_c, 2, 62, 127
2, 323759, Note_off_c, 2, 62, 127
2, 323759, Note_off_c, 8, 56, 127
2, 323761, Note_on_c, 4, 64, 127
2, 323761, Note_on_c, 4, 52, 127
2, 323939, Note_off_c, 4, 64, 127
2, 323940, Note_on_c, 5, 65, 127
2, 324118, Note_off_c, 5, 65, 127
2, 324118, Note_off_c, 4, 52, 127
2, 324121, Note_on_c, 1, 61, 127
2, 324121, Note_on_c, 10, 57, 127
2, 324299, Note_off_c, 1, 61, 127
2, 324300, Note_on_c, 12, 59, 127
2, 324465, Note_off_c, 10, 57, 127
2, 324478, Note_off_c, 12, 59, 127
2, 324480, Note_on_c, 10, 57, 127
2, 324658, Note_off_c, 10, 57, 127
2, 324659, Note_on_c, 12, 59, 127
2, 324659, Note_on_c, 10, 45, 127
2, 324837, Note_off_c, 10, 45, 127
2, 324837, Note_off_c, 12, 59, 127
2, 324839, Note_on_c, 1, 61, 127
2, 324839, Note_on_c, 7, 43, 127
2, 325017, Note_off_c, 7, 43, 127
2, 325017, Note_off_c, 1, 61, 127
2, 325018, Note_on_c, 2, 62, 127
2, 325018, Note_on_c, 11, 46, 127
2, 325196, Note_off_c, 11, 46, 127
2, 325196, Note_off_c, 2, 62, 127
2, 325199, Note_on_c, 4, 64, 127
2, 325199, Note_on_c, 10, 45, 127
2, 325377, Note_off_c, 10, 45, 127
2, 325377, Note_off_c, 4, 64, 127
2, 325378, Note_on_c, 5, 65, 127
2, 325378, Note_on_c, 7, 43, 127
2, 325556, Note_off_c, 7, 43, 127
2, 325556, Note_off_c, 5, 65, 127
2, 325558, Note_on_c, 7, 67, 127
2, 325558, Note_on_c, 1, 49, 127
2, 325736, Note_off_c, 1, 49, 127
2, 325736, Note_off_c, 7, 67, 127
2, 325737, Note_on_c, 5, 65, 127
2, 325737, Note_on_c, 10, 45, 127
2, 325915, Note_off_c, 10, 45, 127
2, 325915, Note_off_c, 5, 65, 127
2, 325917, Note_on_c, 4, 64, 127
2, 325917, Note_on_c, 11, 46, 127
2, 326095, Note_off_c, 11, 46, 127
2, 326095, Note_off_c, 4, 64, 127
2, 326096, Note_on_c, 5, 65, 127
2, 326096, Note_on_c, 10, 45, 127
2, 326274, Note_off_c, 10, 45, 127
2, 326274, Note_off_c, 5, 65, 127
2, 326277, Note_on_c, 7, 67, 127
2, 326277, Note_on_c, 4, 52, 127
2, 326455, Note_off_c, 4, 52, 127
2, 326455, Note_off_c, 7, 67, 127
2, 326456, Note_on_c, 11, 70, 127
2, 326456, Note_on_c, 7, 43, 127
2, 326634, Note_off_c, 7, 43, 127
2, 326634, Note_off_c, 11, 70, 127
2, 326636, Note_on_c, 10, 69, 127
2, 326636, Note_on_c, 10, 45, 127
2, 326814, Note_off_c, 10, 45, 127
2, 326814, Note_off_c, 10, 69, 127
2, 326815, Note_on_c, 7, 67, 127
2, 326815, Note_on_c, 11, 46, 127
2, 326993, Note_off_c, 11, 46, 127
2, 326993, Note_off_c, 7, 67, 127
2, 326995, Note_on_c, 0, 72, 127
2, 326995, Note_on_c, 6, 42, 127
2, 327174, Note_on_c, 10, 69, 127
2, 327174, Note_on_c, 2, 50, 127
2, 327344, Note_off_c, 6, 42, 127
2, 327352, Note_off_c, 2, 50, 127
2, 327352, Note_off_c, 10, 69, 127
2, 327355, Note_on_c, 2, 62, 127
2, 327355, Note_on_c, 4, 52, 127
2, 327519, Note_off_c, 0, 72, 127
2, 327533, Note_off_c, 4, 52, 127
2, 327534, Note_on_c, 0, 72, 127
2, 327534, Note_on_c, 6, 54, 127
2, 327711, Note_off_c, 2, 62, 127
2, 327712, Note_off_c, 6, 54, 127
2, 327712, Note_off_c, 0, 72, 127
2, 327714, Note_on_c, 12, 71, 127
2, 327714, Note_on_c, 7, 55, 127
2, 327892, Note_off_c, 7, 55, 127
2, 327892, Note_off_c, 12, 71, 127
2, 327893, Note_on_c, 0, 72, 127
2, 327893, Note_on_c, 10, 57, 127
2, 328071, Note_off_c, 10, 57, 127
2, 328071, Note_off_c, 0, 72, 127
2, 328073, Note_on_c, 2, 74, 127
2, 328073, Note_on_c, 12, 59, 127
2, 328162, Note_off_c, 12, 59, 127
2, 328162, Note_off_c, 2, 74, 127
2, 328163, Note_on_c, 0, 72, 127
2, 328163, Note_on_c, 10, 57, 127
2, 328252, Note_off_c, 10, 57, 127
2, 328252, Note_off_c, 0, 72, 127
2, 328255, Note_on_c, 12, 71, 127
2, 328255, Note_on_c, 7, 55, 127
2, 328344, Note_off_c, 7, 55, 127
2, 328344, Note_off_c, 12, 71, 127
2, 328345, Note_on_c, 0, 72, 127
2, 328345, Note_on_c, 10, 57, 127
2, 328434, Note_off_c, 10, 57, 127
2, 328434, Note_off_c, 0, 72, 127
2, 328436, Note_on_c, 7, 67, 127
2, 328436, Note_on_c, 2, 74, 127
2, 328436, Note_on_c, 12, 59, 127
2, 328614, Note_off_c, 12, 59, 127
2, 328615, Note_on_c, 0, 60, 127
2, 328793, Note_off_c, 0, 60, 127
2, 328795, Note_on_c, 2, 62, 127
2, 328884, Note_off_c, 2, 62, 127
2, 328885, Note_on_c, 0, 60, 127
2, 328974, Note_off_c, 0, 60, 127
2, 328974, Note_off_c, 2, 74, 127
2, 328976, Note_on_c, 4, 76, 127
2, 328976, Note_on_c, 12, 59, 127
2, 329065, Note_off_c, 12, 59, 127
2, 329066, Note_on_c, 0, 60, 127
2, 329155, Note_off_c, 0, 60, 127
2, 329155, Note_off_c, 4, 76, 127
2, 329158, Note_on_c, 10, 69, 127
2, 329158, Note_on_c, 2, 62, 127
2, 329336, Note_off_c, 10, 69, 127
2, 329337, Note_on_c, 12, 71, 127
2, 329515, Note_off_c, 12, 71, 127
2, 329515, Note_off_c, 2, 62, 127
2, 329515, Note_off_c, 7, 67, 127
2, 329517, Note_on_c, 0, 72, 127
2, 329517, Note_on_c, 6, 66, 127
2, 329517, Note_on_c, 2, 50, 127
2, 329695, Note_off_c, 0, 72, 127
2, 329696, Note_on_c, 2, 74, 127
2, 329873, Note_off_c, 6, 66, 127
2, 329874, Note_off_c, 2, 74, 127
2, 329874, Note_off_c, 2, 50, 127
2, 329876, Note_on_c, 0, 72, 127
2, 329876, Note_on_c, 7, 67, 127
2, 329876, Note_on_c, 7, 43, 127
2, 329945, Note_on_c, 12, 71, 127
2, 329965, Note_off_c, 0, 72, 127
2, 330015, Note_on_c, 0, 72, 127
2, 330034, Note_off_c, 12, 71, 127
2, 330055, Note_off_c, 7, 43, 127
2, 330058, Note_on_c, 2, 50, 127
2, 330084, Note_on_c, 12, 71, 127
2, 330104, Note_off_c, 0, 72, 127
2, 330237, Note_off_c, 2, 50, 127
2, 330239, Note_on_c, 7, 55, 127
2, 330417, Note_off_c, 7, 55, 127
2, 330418, Note_off_c, 12, 71, 127
2, 330418, Note_on_c, 2, 74, 127
2, 330418, Note_on_c, 10, 57, 127
2, 330596, Note_off_c, 10, 57, 127
2, 330596, Note_off_c, 2, 74, 127
2, 330598, Note_on_c, 5, 65, 127
2, 330598, Note_on_c, 12, 59, 127
2, 330776, Note_off_c, 5, 65, 127
2, 330777, Note_on_c, 10, 69, 127
2, 330955, Note_off_c, 10, 69, 127
2, 330955, Note_off_c, 12, 59, 127
2, 330955, Note_off_c, 7, 67, 127
2, 330958, Note_on_c, 7, 67, 127
2, 330958, Note_on_c, 0, 60, 127
2, 331136, Note_off_c, 7, 67, 127
2, 331137, Note_on_c, 5, 65, 127
2, 331315, Note_off_c, 5, 65, 127
2, 331315, Note_off_c, 0, 60, 127
2, 331317, Note_on_c, 12, 71, 127
2, 331317, Note_on_c, 2, 62, 127
2, 331495, Note_off_c, 12, 71, 127
2, 331496, Note_on_c, 7, 67, 127
2, 331674, Note_off_c, 7, 67, 127
2, 331674, Note_off_c, 2, 62, 127
2, 331676, Note_on_c, 10, 69, 127
2, 331676, Note_on_c, 0, 60, 127
2, 331854, Note_off_c, 10, 69, 127
2, 331855, Note_on_c, 7, 67, 127
2, 332033, Note_off_c, 7, 67, 127
2, 332033, Note_off_c, 0, 60, 127
2, 332036, Note_on_c, 2, 74, 127
2, 332036, Note_on_c, 12, 59, 127
2, 332214, Note_off_c, 2, 74, 127
2, 332215, Note_on_c, 5, 65, 127
2, 332393, Note_off_c, 5, 65, 127
2, 332395, Note_on_c, 7, 67, 127
2, 332395, Note_on_c, 10, 57, 127
2, 332573, Note_off_c, 7, 67, 127
2, 332574, Note_on_c, 10, 69, 127
2, 332752, Note_off_c, 10, 69, 127
2, 332752, Note_off_c, 10, 57, 127
2, 332754, Note_on_c, 5, 65, 127
2, 332754, Note_on_c, 8, 56, 127
2, 332932, Note_off_c, 5, 65, 127
2, 332933, Note_on_c, 4, 64, 127
2, 333111, Note_off_c, 8, 56, 127
2, 333111, Note_off_c, 12, 59, 127
2, 333114, Note_on_c, 10, 57, 127
2, 333229, Note_off_c, 4, 64, 127
2, 333293, Note_on_c, 12, 83, 127
2, 333471, Note_off_c, 12, 83, 127
2, 333471, Note_off_c, 10, 57, 127
2, 333473, Note_on_c, 2, 74, 127
2, 333473, Note_on_c, 8, 56, 127
2, 333651, Note_off_c, 2, 74, 127
2, 333652, Note_on_c, 5, 77, 127
2, 333830, Note_off_c, 5, 77, 127
2, 333830, Note_off_c, 8, 56, 127
2, 333832, Note_on_c, 4, 76, 127
2, 333832, Note_on_c, 6, 54, 127
2, 334010, Note_off_c, 4, 76, 127
2, 334011, Note_on_c, 2, 74, 127
2, 334189, Note_off_c, 2, 74, 127
2, 334189, Note_off_c, 6, 54, 127
2, 334192, Note_on_c, 8, 80, 127
2, 334192, Note_on_c, 4, 52, 127
2, 334370, Note_off_c, 8, 80, 127
2, 334371, Note_on_c, 4, 76, 127
2, 334549, Note_off_c, 4, 76, 127
2, 334549, Note_off_c, 4, 52, 127
2, 334551, Note_on_c, 5, 77, 127
2, 334551, Note_on_c, 12, 59, 127
2, 334551, Note_on_c, 2, 50, 127
2, 334729, Note_off_c, 5, 77, 127
2, 334730, Note_on_c, 4, 76, 127
2, 334908, Note_off_c, 4, 76, 127
2, 334908, Note_off_c, 2, 50, 127
2, 334908, Note_off_c, 12, 59, 127
2, 334910, Note_on_c, 12, 83, 127
2, 334910, Note_on_c, 0, 48, 127
2, 334910, Note_on_c, 4, 52, 127
2, 335088, Note_off_c, 12, 83, 127
2, 335089, Note_on_c, 2, 74, 127
2, 335267, Note_off_c, 2, 74, 127
2, 335267, Note_off_c, 4, 52, 127
2, 335267, Note_off_c, 0, 48, 127
2, 335270, Note_on_c, 4, 76, 127
2, 335270, Note_on_c, 8, 56, 127
2, 335270, Note_on_c, 12, 47, 127
2, 335448, Note_off_c, 4, 76, 127
2, 335449, Note_on_c, 5, 77, 127
2, 335627, Note_off_c, 5, 77, 127
2, 335627, Note_off_c, 12, 47, 127
2, 335627, Note_off_c, 8, 56, 127
2, 335629, Note_on_c, 1, 73, 127
2, 335629, Note_on_c, 10, 57, 127
2, 335629, Note_on_c, 10, 45, 127
2, 335807, Note_off_c, 1, 73, 127
2, 335808, Note_on_c, 12, 71, 127
2, 335986, Note_off_c, 12, 71, 127
2, 335988, Note_on_c, 1, 73, 127
2, 336166, Note_off_c, 1, 73, 127
2, 336166, Note_off_c, 10, 45, 127
2, 336166, Note_off_c, 10, 57, 127
2, 336167, Note_on_c, 10, 69, 127
2, 336167, Note_on_c, 10, 57, 127
2, 336345, Note_off_c, 10, 57, 127
2, 336345, Note_off_c, 10, 69, 127
2, 336348, Note_on_c, 7, 79, 127
2, 336348, Note_on_c, 11, 58, 127
2, 336526, Note_off_c, 11, 58, 127
2, 336527, Note_on_c, 10, 57, 127
2, 336705, Note_off_c, 10, 57, 127
2, 336707, Note_on_c, 11, 58, 127
2, 336885, Note_off_c, 11, 58, 127
2, 336885, Note_off_c, 7, 79, 127
2, 336886, Note_on_c, 7, 79, 127
2, 336886, Note_on_c, 4, 76, 127
2, 336886, Note_on_c, 7, 55, 127
2, 337064, Note_off_c, 7, 55, 127
2, 337064, Note_off_c, 4, 76, 127
2, 337064, Note_off_c, 7, 79, 127
2, 337066, Note_on_c, 4, 76, 127
2, 337066, Note_on_c, 7, 79, 127
2, 337066, Note_on_c, 1, 61, 127
2, 337244, Note_off_c, 1, 61, 127
2, 337244, Note_off_c, 7, 79, 127
2, 337245, Note_on_c, 10, 81, 127
2, 337245, Note_on_c, 10, 57, 127
2, 337422, Note_off_c, 4, 76, 127
2, 337423, Note_off_c, 10, 57, 127
2, 337423, Note_off_c, 10, 81, 127
2, 337426, Note_on_c, 2, 74, 127
2, 337426, Note_on_c, 5, 77, 127
2, 337426, Note_on_c, 2, 62, 127
2, 337604, Note_off_c, 2, 62, 127
2, 337604, Note_off_c, 5, 77, 127
2, 337605, Note_on_c, 7, 79, 127
2, 337605, Note_on_c, 7, 55, 127
2, 337782, Note_off_c, 2, 74, 127
2, 337783, Note_off_c, 7, 55, 127
2, 337783, Note_off_c, 7, 79, 127
2, 337785, Note_on_c, 1, 73, 127
2, 337785, Note_on_c, 5, 77, 127
2, 337785, Note_on_c, 10, 57, 127
2, 337843, Note_on_c, 4, 76, 127
2, 337874, Note_off_c, 5, 77, 127
2, 337903, Note_on_c, 5, 77, 127
2, 337932, Note_off_c, 4, 76, 127
2, 337962, Note_on_c, 4, 76, 127
2, 337992, Note_off_c, 5, 77, 127
2, 338020, Note_on_c, 5, 77, 127
2, 338051, Note_off_c, 4, 76, 127
2, 338100, Note_on_c, 4, 76, 127
2, 338109, Note_off_c, 5, 77, 127
2, 338147, Note_on_c, 10, 45, 127
2, 338322, Note_off_c, 4, 76, 127
2, 338329, Note_on_c, 10, 81, 127
2, 338501, Note_off_c, 1, 73, 127
2, 338507, Note_off_c, 10, 45, 127
2, 338508, Note_off_c, 10, 81, 127
2, 338510, Note_on_c, 7, 79, 127
2, 338510, Note_on_c, 2, 50, 127
2, 338688, Note_off_c, 7, 79, 127
2, 338689, Note_on_c, 5, 77, 127
2, 338867, Note_off_c, 5, 77, 127
2, 338867, Note_off_c, 10, 57, 127
2, 338869, Note_on_c, 4, 76, 127
2, 339047, Note_off_c, 4, 76, 127
2, 339048, Note_on_c, 2, 74, 127
2, 339226, Note_off_c, 2, 74, 127
2, 339229, Note_on_c, 5, 77, 127
2, 339318, Note_off_c, 5, 77, 127
2, 339319, Note_on_c, 4, 76, 127
2, 339407, Note_off_c, 2, 50, 127
2, 339408, Note_off_c, 4, 76, 127
2, 339410, Note_on_c, 5, 77, 127
2, 339410, Note_on_c, 2, 50, 127
2, 339588, Note_off_c, 2, 50, 127
2, 339589, Note_on_c, 4, 52, 127
2, 339767, Note_off_c, 4, 52, 127
2, 339767, Note_off_c, 5, 77, 127
2, 339769, Note_on_c, 5, 77, 127
2, 339769, Note_on_c, 5, 53, 127
2, 339947, Note_off_c, 5, 53, 127
2, 339947, Note_off_c, 5, 77, 127
2, 339948, Note_on_c, 5, 77, 127
2, 339948, Note_on_c, 7, 55, 127
2, 340126, Note_off_c, 7, 55, 127
2, 340126, Note_off_c, 5, 77, 127
2, 340129, Note_on_c, 12, 71, 127
2, 340129, Note_on_c, 7, 55, 127
2, 340307, Note_off_c, 7, 55, 127
2, 340307, Note_off_c, 12, 71, 127
2, 340308, Note_on_c, 0, 72, 127
2, 340308, Note_on_c, 10, 57, 127
2, 340486, Note_off_c, 10, 57, 127
2, 340486, Note_off_c, 0, 72, 127
2, 340488, Note_on_c, 2, 74, 127
2, 340488, Note_on_c, 12, 59, 127
2, 340666, Note_off_c, 12, 59, 127
2, 340666, Note_off_c, 2, 74, 127
2, 340667, Note_on_c, 4, 76, 127
2, 340667, Note_on_c, 0, 60, 127
2, 340845, Note_off_c, 0, 60, 127
2, 340847, Note_on_c, 0, 60, 127
2, 341025, Note_off_c, 0, 60, 127
2, 341026, Note_on_c, 2, 62, 127
2, 341204, Note_off_c, 2, 62, 127
2, 341204, Note_off_c, 4, 76, 127
2, 341207, Note_on_c, 4, 76, 127
2, 341207, Note_on_c, 4, 64, 127
2, 341385, Note_off_c, 4, 64, 127
2, 341385, Note_off_c, 4, 76, 127
2, 341386, Note_on_c, 4, 76, 127
2, 341386, Note_on_c, 5, 65, 127
2, 341564, Note_off_c, 4, 76, 127
2, 341566, Note_on_c, 0, 72, 127
2, 341744, Note_off_c, 0, 72, 127
2, 341745, Note_on_c, 12, 71, 127
2, 341923, Note_off_c, 12, 71, 127
2, 341925, Note_on_c, 10, 69, 127
2, 342103, Note_off_c, 10, 69, 127
2, 342104, Note_on_c, 2, 74, 127
2, 342193, Note_off_c, 2, 74, 127
2, 342196, Note_on_c, 0, 72, 127
2, 342283, Note_off_c, 5, 65, 127
2, 342285, Note_off_c, 0, 72, 127
2, 342286, Note_on_c, 2, 74, 127
2, 342286, Note_on_c, 12, 47, 127
2, 342464, Note_off_c, 12, 47, 127
2, 342466, Note_on_c, 0, 48, 127
2, 342643, Note_off_c, 2, 74, 127
2, 342644, Note_off_c, 0, 48, 127
2, 342645, Note_on_c, 2, 74, 127
2, 342645, Note_on_c, 2, 50, 127
2, 342823, Note_off_c, 2, 50, 127
2, 342823, Note_off_c, 2, 74, 127
2, 342825, Note_on_c, 2, 74, 127
2, 342825, Note_on_c, 4, 52, 127
2, 343003, Note_off_c, 4, 52, 127
2, 343003, Note_off_c, 2, 74, 127
2, 343004, Note_on_c, 8, 68, 127
2, 343004, Note_on_c, 4, 52, 127
2, 343182, Note_off_c, 4, 52, 127
2, 343182, Note_off_c, 8, 68, 127
2, 343185, Note_on_c, 10, 69, 127
2, 343185, Note_on_c, 6, 54, 127
2, 343363, Note_off_c, 6, 54, 127
2, 343363, Note_off_c, 10, 69, 127
2, 343364, Note_on_c, 12, 71, 127
2, 343364, Note_on_c, 8, 56, 127
2, 343542, Note_off_c, 8, 56, 127
2, 343542, Note_off_c, 12, 71, 127
2, 343544, Note_on_c, 0, 72, 127
2, 343544, Note_on_c, 10, 57, 127
2, 343722, Note_off_c, 10, 57, 127
2, 343723, Note_on_c, 10, 57, 127
2, 343901, Note_off_c, 10, 57, 127
2, 343903, Note_on_c, 12, 59, 127
2, 344081, Note_off_c, 12, 59, 127
2, 344081, Note_off_c, 0, 72, 127
2, 344082, Note_on_c, 0, 72, 127
2, 344082, Note_on_c, 0, 60, 127
2, 344260, Note_off_c, 0, 60, 127
2, 344260, Note_off_c, 0, 72, 127
2, 344263, Note_on_c, 0, 72, 127
2, 344263, Note_on_c, 2, 62, 127
2, 344441, Note_off_c, 0, 72, 127
2, 344442, Note_on_c, 10, 69, 127
2, 344620, Note_off_c, 10, 69, 127
2, 344622, Note_on_c, 7, 67, 127
2, 344800, Note_off_c, 7, 67, 127
2, 344801, Note_on_c, 5, 65, 127
2, 344979, Note_off_c, 5, 65, 127
2, 344981, Note_on_c, 11, 70, 127
2, 345159, Note_off_c, 2, 62, 127
2, 345160, Note_on_c, 10, 69, 127
2, 345160, Note_on_c, 5, 53, 127
2, 345193, Note_off_c, 11, 70, 127
2, 345338, Note_off_c, 5, 53, 127
2, 345338, Note_off_c, 10, 69, 127
2, 345341, Note_on_c, 8, 68, 127
2, 345341, Note_on_c, 4, 52, 127
2, 345519, Note_off_c, 4, 52, 127
2, 345519, Note_off_c, 8, 68, 127
2, 345520, Note_on_c, 10, 69, 127
2, 345520, Note_on_c, 2, 50, 127
2, 345698, Note_off_c, 2, 50, 127
2, 345700, Note_on_c, 2, 62, 127
2, 345700, Note_on_c, 8, 56, 127
2, 345732, Note_off_c, 10, 69, 127
2, 345878, Note_off_c, 8, 56, 127
2, 345879, Note_on_c, 8, 68, 127
2, 345879, Note_on_c, 4, 52, 127
2, 345912, Note_off_c, 2, 62, 127
2, 346057, Note_off_c, 4, 52, 127
2, 346057, Note_off_c, 8, 68, 127
2, 346059, Note_on_c, 10, 69, 127
2, 346059, Note_on_c, 5, 53, 127
2, 346237, Note_off_c, 5, 53, 127
2, 346237, Note_off_c, 10, 69, 127
2, 346238, Note_on_c, 12, 71, 127
2, 346238, Note_on_c, 4, 52, 127
2, 346416, Note_off_c, 4, 52, 127
2, 346416, Note_off_c, 12, 71, 127
2, 346419, Note_on_c, 0, 72, 127
2, 346419, Note_on_c, 10, 57, 127
2, 346597, Note_off_c, 10, 57, 127
2, 346597, Note_off_c, 0, 72, 127
2, 346598, Note_on_c, 12, 71, 127
2, 346598, Note_on_c, 2, 50, 127
2, 346776, Note_off_c, 2, 50, 127
2, 346776, Note_off_c, 12, 71, 127
2, 346778, Note_on_c, 0, 72, 127
2, 346778, Note_on_c, 4, 52, 127
2, 346956, Note_off_c, 4, 52, 127
2, 346956, Note_off_c, 0, 72, 127
2, 346957, Note_on_c, 10, 69, 127
2, 346957, Note_on_c, 5, 53, 127
2, 347135, Note_off_c, 5, 53, 127
2, 347135, Note_off_c, 10, 69, 127
2, 347137, Note_on_c, 12, 71, 127
2, 347137, Note_on_c, 8, 44, 127
2, 347315, Note_off_c, 8, 44, 127
2, 347316, Note_on_c, 8, 44, 127
2, 347494, Note_off_c, 8, 44, 127
2, 347497, Note_on_c, 4, 64, 127
2, 347497, Note_on_c, 10, 45, 127
2, 347561, Note_off_c, 12, 71, 127
2, 347675, Note_off_c, 10, 45, 127
2, 347676, Note_on_c, 12, 47, 127
2, 347793, Note_off_c, 4, 64, 127
2, 347854, Note_off_c, 12, 47, 127
2, 347856, Note_on_c, 4, 76, 127
2, 347856, Note_on_c, 0, 48, 127
2, 347945, Note_off_c, 4, 76, 127
2, 347946, Note_on_c, 2, 74, 127
2, 348035, Note_off_c, 2, 74, 127
2, 348035, Note_off_c, 0, 48, 127
2, 348037, Note_on_c, 4, 76, 127
2, 348037, Note_on_c, 0, 48, 127
2, 348215, Note_off_c, 0, 48, 127
2, 348216, Note_on_c, 2, 50, 127
2, 348394, Note_off_c, 2, 50, 127
2, 348394, Note_off_c, 4, 76, 127
2, 348397, Note_on_c, 4, 76, 127
2, 348397, Note_on_c, 4, 52, 127
2, 348575, Note_off_c, 4, 52, 127
2, 348575, Note_off_c, 4, 76, 127
2, 348576, Note_on_c, 4, 76, 127
2, 348576, Note_on_c, 5, 53, 127
2, 348754, Note_off_c, 4, 76, 127
2, 348756, Note_on_c, 0, 72, 127
2, 348934, Note_off_c, 0, 72, 127
2, 348935, Note_on_c, 12, 71, 127
2, 349113, Note_off_c, 12, 71, 127
2, 349115, Note_on_c, 10, 69, 127
2, 349293, Note_off_c, 10, 69, 127
2, 349294, Note_on_c, 10, 81, 127
2, 349383, Note_off_c, 10, 81, 127
2, 349386, Note_on_c, 7, 79, 127
2, 349473, Note_off_c, 5, 53, 127
2, 349475, Note_off_c, 7, 79, 127
2, 349476, Note_on_c, 10, 81, 127
2, 349476, Note_on_c, 2, 50, 127
2, 349654, Note_off_c, 2, 50, 127
2, 349656, Note_on_c, 4, 52, 127
2, 349833, Note_off_c, 10, 81, 127
2, 349834, Note_off_c, 4, 52, 127
2, 349835, Note_on_c, 10, 81, 127
2, 349835, Note_on_c, 5, 53, 127
2, 350013, Note_off_c, 5, 53, 127
2, 350013, Note_off_c, 10, 81, 127
2, 350015, Note_on_c, 10, 81, 127
2, 350015, Note_on_c, 12, 47, 127
2, 350193, Note_off_c, 12, 47, 127
2, 350193, Note_off_c, 10, 81, 127
2, 350194, Note_on_c, 5, 77, 127
2, 350194, Note_on_c, 12, 47, 127
2, 350372, Note_off_c, 12, 47, 127
2, 350372, Note_off_c, 5, 77, 127
2, 350375, Note_on_c, 4, 76, 127
2, 350375, Note_on_c, 0, 48, 127
2, 350553, Note_off_c, 0, 48, 127
2, 350553, Note_off_c, 4, 76, 127
2, 350554, Note_on_c, 2, 74, 127
2, 350554, Note_on_c, 2, 50, 127
2, 350732, Note_off_c, 2, 50, 127
2, 350734, Note_on_c, 12, 83, 127
2, 350734, Note_on_c, 8, 44, 127
2, 350921, Note_off_c, 8, 44, 127
2, 350923, Note_on_c, 8, 44, 127
2, 351110, Note_off_c, 8, 44, 127
2, 351112, Note_on_c, 10, 45, 127
2, 351292, Note_off_c, 2, 74, 127
2, 351299, Note_off_c, 10, 45, 127
2, 351300, Note_off_c, 12, 83, 127
2, 351301, Note_on_c, 2, 74, 127
2, 351301, Note_on_c, 12, 83, 127
2, 351301, Note_on_c, 12, 47, 127
2, 351488, Note_off_c, 12, 47, 127
2, 351488, Note_off_c, 12, 83, 127
2, 351488, Note_off_c, 2, 74, 127
2, 351491, Note_on_c, 2, 74, 127
2, 351491, Note_on_c, 12, 83, 127
2, 351491, Note_on_c, 4, 40, 127
2, 351700, Note_off_c, 12, 83, 127
2, 351702, Note_on_c, 10, 81, 127
2, 351804, Note_off_c, 10, 81, 127
2, 351807, Note_on_c, 8, 80, 127
2, 351908, Note_off_c, 2, 74, 127
2, 351909, Note_off_c, 8, 80, 127
2, 351910, Note_off_c, 4, 40, 127
2, 351912, Note_on_c, 10, 81, 127
2, 351912, Note_on_c, 0, 72, 127
2, 351912, Note_on_c, 0, 48, 127
2, 352121, Note_off_c, 0, 48, 127
2, 352121, Note_off_c, 0, 72, 127
2, 352121, Note_off_c, 10, 81, 127
2, 352124, Note_on_c, 12, 71, 127
2, 352124, Note_on_c, 2, 74, 127
2, 352124, Note_on_c, 2, 50, 127
2, 352333, Note_off_c, 2, 50, 127
2, 352333, Note_off_c, 2, 74, 127
2, 352333, Note_off_c, 12, 71, 127
2, 352335, Note_on_c, 10, 69, 127
2, 352335, Note_on_c, 2, 74, 127
2, 352335, Note_on_c, 4, 52, 127
2, 352437, Note_off_c, 2, 74, 127
2, 352439, Note_on_c, 0, 72, 127
2, 352541, Note_off_c, 0, 72, 127
2, 352544, Note_on_c, 2, 74, 127
2, 352646, Note_off_c, 2, 74, 127
2, 352649, Note_on_c, 0, 72, 127
2, 352751, Note_off_c, 0, 72, 127
2, 352751, Note_off_c, 10, 69, 127
2, 352752, Note_off_c, 4, 52, 127
2, 352754, Note_on_c, 12, 71, 127
2, 352754, Note_on_c, 8, 68, 127
2, 352754, Note_on_c, 4, 40, 127
2, 352963, Note_off_c, 8, 68, 127
2, 352963, Note_off_c, 12, 71, 127
2, 352966, Note_on_c, 10, 69, 127
2, 353174, Note_off_c, 4, 40, 127
2, 353175, Note_off_c, 10, 69, 127
2, 353177, Note_on_c, 10, 69, 127
2, 353177, Note_on_c, 10, 45, 127
2, 353383, Note_on_c, 7, 67, 127
2, 353586, Note_off_c, 7, 67, 127
2, 353587, Note_on_c, 5, 65, 127
2, 353790, Note_off_c, 5, 65, 127
2, 353793, Note_on_c, 4, 64, 127
2, 353793, Note_on_c, 1, 49, 127
2, 353996, Note_off_c, 1, 49, 127
2, 353996, Note_off_c, 4, 64, 127
2, 353998, Note_on_c, 5, 65, 127
2, 353998, Note_on_c, 2, 50, 127
2, 354201, Note_off_c, 2, 50, 127
2, 354201, Note_off_c, 5, 65, 127
2, 354203, Note_on_c, 1, 61, 127
2, 354203, Note_on_c, 4, 52, 127
2, 354406, Note_off_c, 4, 52, 127
2, 354406, Note_off_c, 1, 61, 127
2, 354408, Note_on_c, 2, 62, 127
2, 354408, Note_on_c, 5, 53, 127
2, 354611, Note_off_c, 5, 53, 127
2, 354614, Note_on_c, 5, 65, 127
2, 354614, Note_on_c, 8, 56, 127
2, 354812, Note_off_c, 2, 62, 127
2, 354814, Note_off_c, 10, 45, 127
2, 354815, Note_off_c, 8, 56, 127
2, 354815, Note_off_c, 5, 65, 127
2, 354817, Note_on_c, 1, 61, 127
2, 354817, Note_on_c, 10, 57, 127
2, 354941, Note_on_c, 4, 64, 127
2, 355058, Note_off_c, 10, 69, 127
2, 355065, Note_on_c, 10, 69, 127
2, 355065, Note_on_c, 10, 45, 127
2, 355313, Note_on_c, 1, 49, 127
2, 355557, Note_off_c, 1, 49, 127
2, 355571, Note_on_c, 4, 52, 127
2, 355837, Note_off_c, 10, 57, 127
2, 355889, Note_on_c, 10, 57, 127
2, 355893, Note_off_c, 4, 52, 127
2, 357849, Note_off_c, 10, 45, 127
2, 357850, Note_off_c, 10, 57, 127
2, 357861, Note_off_c, 1, 61, 127
2, 357862, Note_off_c, 4, 64, 127
2, 357888, Note_off_c, 10, 69, 127
2, 358589, Note_on_c, 10, 69, 127
2, 358938, Note_off_c, 10, 69, 127
2, 358954, Note_on_c, 10, 69, 127
2, 358954, Note_on_c, 4, 64, 127
2, 358954, Note_on_c, 0, 60, 127
2, 358954, Note_on_c, 10, 57, 127
2, 359320, Note_off_c, 10, 57, 127
2, 359321, Note_on_c, 4, 52, 127
2, 359503, Note_off_c, 0, 60, 127
2, 359503, Note_off_c, 4, 64, 127
2, 359503, Note_off_c, 10, 69, 127
2, 359504, Note_on_c, 12, 71, 127
2, 359685, Note_off_c, 12, 71, 127
2, 359685, Note_off_c, 4, 52, 127
2, 359687, Note_on_c, 0, 72, 127
2, 359687, Note_on_c, 10, 45, 127
2, 359868, Note_off_c, 0, 72, 127
2, 359870, Note_on_c, 2, 74, 127
2, 360051, Note_off_c, 2, 74, 127
2, 360051, Note_off_c, 10, 45, 127
2, 360053, Note_on_c, 4, 76, 127
2, 360053, Note_on_c, 10, 57, 127
2, 360234, Note_off_c, 4, 76, 127
2, 360236, Note_on_c, 5, 77, 127
2, 360417, Note_off_c, 5, 77, 127
2, 360417, Note_off_c, 10, 57, 127
2, 360419, Note_on_c, 4, 76, 127
2, 360419, Note_on_c, 8, 56, 127
2, 360600, Note_off_c, 4, 76, 127
2, 360602, Note_on_c, 2, 74, 127
2, 360783, Note_off_c, 2, 74, 127
2, 360783, Note_off_c, 8, 56, 127
2, 360785, Note_on_c, 0, 72, 127
2, 360785, Note_on_c, 4, 52, 127
2, 360966, Note_off_c, 0, 72, 127
2, 360968, Note_on_c, 12, 71, 127
2, 361149, Note_off_c, 12, 71, 127
2, 361149, Note_off_c, 4, 52, 127
2, 361151, Note_on_c, 0, 72, 127
2, 361151, Note_on_c, 10, 57, 127
2, 361241, Note_off_c, 0, 72, 127
2, 361243, Note_on_c, 12, 71, 127
2, 361332, Note_off_c, 10, 57, 127
2, 361333, Note_off_c, 12, 71, 127
2, 361334, Note_on_c, 0, 72, 127
2, 361334, Note_on_c, 10, 45, 127
2, 361515, Note_off_c, 10, 45, 127
2, 361517, Note_on_c, 10, 57, 127
2, 361698, Note_off_c, 10, 57, 127
2, 361698, Note_off_c, 0, 72, 127
2, 361700, Note_on_c, 12, 71, 127
2, 361700, Note_on_c, 12, 59, 127
2, 361881, Note_off_c, 12, 59, 127
2, 361881, Note_off_c, 12, 71, 127
2, 361883, Note_on_c, 10, 69, 127
2, 361883, Note_on_c, 0, 60, 127
2, 362064, Note_off_c, 0, 60, 127
2, 362066, Note_on_c, 2, 62, 127
2, 362247, Note_off_c, 2, 62, 127
2, 362247, Note_off_c, 10, 69, 127
2, 362249, Note_on_c, 10, 81, 127
2, 362249, Note_on_c, 4, 64, 127
2, 362430, Note_off_c, 4, 64, 127
2, 362432, Note_on_c, 5, 65, 127
2, 362613, Note_off_c, 5, 65, 127
2, 362613, Note_off_c, 10, 81, 127
2, 362615, Note_on_c, 8, 80, 127
2, 362615, Note_on_c, 4, 64, 127
2, 362796, Note_off_c, 4, 64, 127
2, 362798, Note_on_c, 2, 62, 127
2, 362979, Note_off_c, 2, 62, 127
2, 362979, Note_off_c, 8, 80, 127
2, 362981, Note_on_c, 10, 81, 127
2, 362981, Note_on_c, 0, 60, 127
2, 363071, Note_off_c, 10, 81, 127
2, 363073, Note_on_c, 8, 80, 127
2, 363162, Note_off_c, 0, 60, 127
2, 363163, Note_off_c, 8, 80, 127
2, 363164, Note_on_c, 10, 81, 127
2, 363164, Note_on_c, 12, 59, 127
2, 363254, Note_off_c, 10, 81, 127
2, 363256, Note_on_c, 12, 83, 127
2, 363345, Note_off_c, 12, 59, 127
2, 363346, Note_off_c, 12, 83, 127
2, 363347, Note_on_c, 4, 76, 127
2, 363347, Note_on_c, 0, 60, 127
2, 363532, Note_on_c, 4, 64, 127
2, 363713, Note_off_c, 4, 64, 127
2, 363715, Note_on_c, 10, 69, 127
2, 363896, Note_off_c, 0, 60, 127
2, 363897, Note_off_c, 4, 76, 127
2, 363899, Note_on_c, 7, 79, 127
2, 363899, Note_on_c, 1, 61, 127
2, 364080, Note_off_c, 1, 61, 127
2, 364080, Note_off_c, 7, 79, 127
2, 364082, Note_on_c, 5, 77, 127
2, 364082, Note_on_c, 2, 62, 127
2, 364263, Note_off_c, 5, 77, 127
2, 364265, Note_on_c, 4, 76, 127
2, 364446, Note_off_c, 4, 76, 127
2, 364446, Note_off_c, 2, 62, 127
2, 364448, Note_off_c, 10, 69, 127
2, 364450, Note_on_c, 2, 74, 127
2, 364450, Note_on_c, 8, 68, 127
2, 364450, Note_on_c, 12, 59, 127
2, 364631, Note_off_c, 2, 74, 127
2, 364633, Note_on_c, 5, 77, 127
2, 364813, Note_off_c, 8, 68, 127
2, 364814, Note_off_c, 5, 77, 127
2, 364814, Note_off_c, 12, 59, 127
2, 364816, Note_on_c, 10, 69, 127
2, 364816, Note_on_c, 4, 76, 127
2, 364816, Note_on_c, 0, 60, 127
2, 364997, Note_off_c, 4, 76, 127
2, 364999, Note_on_c, 2, 74, 127
2, 365180, Note_off_c, 2, 74, 127
2, 365180, Note_off_c, 0, 60, 127
2, 365182, Note_on_c, 4, 76, 127
2, 365182, Note_on_c, 2, 62, 127
2, 365363, Note_off_c, 4, 76, 127
2, 365365, Note_on_c, 5, 77, 127
2, 365546, Note_off_c, 5, 77, 127
2, 365546, Note_off_c, 2, 62, 127
2, 365548, Note_off_c, 10, 69, 127
2, 365549, Note_on_c, 0, 72, 127
2, 365549, Note_on_c, 4, 64, 127
2, 365639, Note_off_c, 0, 72, 127
2, 365641, Note_on_c, 12, 71, 127
2, 365732, Note_on_c, 10, 69, 127
2, 365913, Note_off_c, 10, 69, 127
2, 365915, Note_on_c, 8, 68, 127
2, 366096, Note_off_c, 4, 64, 127
2, 366098, Note_on_c, 4, 64, 127
2, 366278, Note_off_c, 8, 68, 127
2, 366279, Note_off_c, 4, 64, 127
2, 366281, Note_on_c, 2, 62, 127
2, 366373, Note_off_c, 12, 71, 127
2, 366464, Note_off_c, 2, 62, 127
2, 366466, Note_on_c, 0, 60, 127
2, 366647, Note_off_c, 0, 60, 127
2, 366649, Note_on_c, 8, 68, 127
2, 366649, Note_on_c, 12, 59, 127
2, 366830, Note_off_c, 12, 59, 127
2, 366830, Note_off_c, 8, 68, 127
2, 366832, Note_on_c, 10, 69, 127
2, 366832, Note_on_c, 2, 62, 127
2, 367013, Note_off_c, 2, 62, 127
2, 367013, Note_off_c, 10, 69, 127
2, 367015, Note_on_c, 12, 71, 127
2, 367015, Note_on_c, 0, 60, 127
2, 367117, Note_on_c, 10, 69, 127
2, 367125, Note_off_c, 12, 71, 127
2, 367187, Note_off_c, 10, 69, 127
2, 367187, Note_on_c, 12, 71, 127
2, 367196, Note_off_c, 0, 60, 127
2, 367198, Note_on_c, 12, 59, 127
2, 367257, Note_off_c, 12, 71, 127
2, 367257, Note_on_c, 10, 69, 127
2, 367327, Note_off_c, 10, 69, 127
2, 367332, Note_on_c, 12, 71, 127
2, 367379, Note_off_c, 12, 59, 127
2, 367381, Note_on_c, 0, 60, 127
2, 367397, Note_on_c, 10, 69, 127
2, 367402, Note_off_c, 12, 71, 127
2, 367467, Note_off_c, 10, 69, 127
2, 367467, Note_on_c, 12, 71, 127
2, 367537, Note_off_c, 12, 71, 127
2, 367537, Note_on_c, 10, 69, 127
2, 367562, Note_off_c, 0, 60, 127
2, 367564, Note_on_c, 2, 62, 127
2, 367607, Note_off_c, 10, 69, 127
2, 367607, Note_on_c, 8, 68, 127
2, 367677, Note_off_c, 8, 68, 127
2, 367677, Note_on_c, 10, 69, 127
2, 367745, Note_off_c, 2, 62, 127
2, 367747, Note_off_c, 10, 69, 127
2, 367747, Note_on_c, 12, 71, 127
2, 367747, Note_on_c, 8, 56, 127
2, 367928, Note_off_c, 8, 56, 127
2, 367930, Note_on_c, 12, 59, 127
2, 368111, Note_off_c, 12, 59, 127
2, 368113, Note_on_c, 10, 57, 127
2, 368247, Note_off_c, 12, 71, 127
2, 368294, Note_off_c, 10, 57, 127
2, 368296, Note_on_c, 0, 72, 127
2, 368296, Note_on_c, 8, 56, 127
2, 368477, Note_off_c, 8, 56, 127
2, 368477, Note_off_c, 0, 72, 127
2, 368479, Note_on_c, 2, 74, 127
2, 368479, Note_on_c, 6, 54, 127
2, 368660, Note_off_c, 6, 54, 127
2, 368660, Note_off_c, 2, 74, 127
2, 368662, Note_on_c, 12, 71, 127
2, 368662, Note_on_c, 4, 52, 127
2, 368843, Note_off_c, 4, 52, 127
2, 368843, Note_off_c, 12, 71, 127
2, 368845, Note_on_c, 0, 72, 127
2, 368845, Note_on_c, 10, 57, 127
2, 369026, Note_off_c, 10, 57, 127
2, 369026, Note_off_c, 0, 72, 127
2, 369028, Note_on_c, 2, 74, 127
2, 369028, Note_on_c, 7, 55, 127
2, 369209, Note_off_c, 7, 55, 127
2, 369209, Note_off_c, 2, 74, 127
2, 369211, Note_on_c, 5, 53, 127
2, 369211, Note_on_c, 4, 76, 127
2, 369321, Note_off_c, 4, 76, 127
2, 369322, Note_on_c, 2, 74, 127
2, 369392, Note_off_c, 2, 74, 127
2, 369392, Note_off_c, 5, 53, 127
2, 369392, Note_on_c, 4, 76, 127
2, 369394, Note_on_c, 4, 52, 127
2, 369462, Note_off_c, 4, 76, 127
2, 369462, Note_on_c, 2, 74, 127
2, 369532, Note_off_c, 2, 74, 127
2, 369537, Note_on_c, 4, 76, 127
2, 369575, Note_off_c, 4, 52, 127
2, 369577, Note_on_c, 5, 53, 127
2, 369602, Note_on_c, 2, 74, 127
2, 369607, Note_off_c, 4, 76, 127
2, 369672, Note_off_c, 2, 74, 127
2, 369672, Note_on_c, 4, 76, 127
2, 369742, Note_off_c, 4, 76, 127
2, 369742, Note_on_c, 2, 74, 127
2, 369758, Note_off_c, 5, 53, 127
2, 369760, Note_on_c, 7, 55, 127
2, 369812, Note_off_c, 2, 74, 127
2, 369812, Note_on_c, 0, 72, 127
2, 369882, Note_off_c, 0, 72, 127
2, 369882, Note_on_c, 2, 74, 127
2, 369941, Note_off_c, 7, 55, 127
2, 369943, Note_on_c, 4, 76, 127
2, 369943, Note_on_c, 0, 48, 127
2, 369952, Note_off_c, 2, 74, 127
2, 370124, Note_off_c, 0, 48, 127
2, 370126, Note_on_c, 5, 53, 127
2, 370307, Note_off_c, 5, 53, 127
2, 370309, Note_on_c, 4, 52, 127
2, 370443, Note_off_c, 4, 76, 127
2, 370490, Note_off_c, 4, 52, 127
2, 370492, Note_on_c, 5, 77, 127
2, 370492, Note_on_c, 2, 50, 127
2, 370673, Note_off_c, 2, 50, 127
2, 370673, Note_off_c, 5, 77, 127
2, 370675, Note_on_c, 7, 79, 127
2, 370675, Note_on_c, 0, 48, 127
2, 370856, Note_off_c, 0, 48, 127
2, 370856, Note_off_c, 7, 79, 127
2, 370858, Note_on_c, 4, 76, 127
2, 370858, Note_on_c, 11, 46, 127
2, 371039, Note_off_c, 11, 46, 127
2, 371039, Note_off_c, 4, 76, 127
2, 371041, Note_on_c, 5, 77, 127
2, 371041, Note_on_c, 10, 45, 127
2, 371222, Note_off_c, 10, 45, 127
2, 371222, Note_off_c, 5, 77, 127
2, 371224, Note_on_c, 7, 79, 127
2, 371224, Note_on_c, 0, 48, 127
2, 371405, Note_off_c, 0, 48, 127
2, 371405, Note_off_c, 7, 79, 127
2, 371407, Note_on_c, 10, 81, 127
2, 371407, Note_on_c, 11, 46, 127
2, 371517, Note_off_c, 10, 81, 127
2, 371518, Note_on_c, 7, 79, 127
2, 371588, Note_off_c, 7, 79, 127
2, 371588, Note_off_c, 11, 46, 127
2, 371588, Note_on_c, 10, 81, 127
2, 371590, Note_on_c, 10, 45, 127
2, 371658, Note_off_c, 10, 81, 127
2, 371658, Note_on_c, 7, 79, 127
2, 371728, Note_off_c, 7, 79, 127
2, 371733, Note_on_c, 10, 81, 127
2, 371771, Note_off_c, 10, 45, 127
2, 371773, Note_on_c, 11, 46, 127
2, 371798, Note_on_c, 7, 79, 127
2, 371803, Note_off_c, 10, 81, 127
2, 371868, Note_off_c, 7, 79, 127
2, 371868, Note_on_c, 10, 81, 127
2, 371938, Note_off_c, 10, 81, 127
2, 371938, Note_on_c, 7, 79, 127
2, 371954, Note_off_c, 11, 46, 127
2, 371956, Note_on_c, 0, 48, 127
2, 372008, Note_off_c, 7, 79, 127
2, 372008, Note_on_c, 5, 77, 127
2, 372078, Note_off_c, 5, 77, 127
2, 372078, Note_on_c, 7, 79, 127
2, 372137, Note_off_c, 0, 48, 127
2, 372139, Note_on_c, 10, 81, 127
2, 372139, Note_on_c, 5, 41, 127
2, 372148, Note_off_c, 7, 79, 127
2, 372320, Note_off_c, 10, 81, 127
2, 372322, Note_on_c, 11, 82, 127
2, 372503, Note_off_c, 11, 82, 127
2, 372503, Note_off_c, 5, 41, 127
2, 372505, Note_on_c, 10, 81, 127
2, 372505, Note_on_c, 5, 53, 127
2, 372686, Note_off_c, 5, 53, 127
2, 372686, Note_off_c, 10, 81, 127
2, 372688, Note_on_c, 7, 79, 127
2, 372688, Note_on_c, 7, 55, 127
2, 372869, Note_off_c, 7, 55, 127
2, 372869, Note_off_c, 7, 79, 127
2, 372871, Note_on_c, 5, 77, 127
2, 372871, Note_on_c, 10, 57, 127
2, 373052, Note_off_c, 10, 57, 127
2, 373052, Note_off_c, 5, 77, 127
2, 373054, Note_on_c, 4, 76, 127
2, 373054, Note_on_c, 7, 55, 127
2, 373235, Note_off_c, 7, 55, 127
2, 373235, Note_off_c, 4, 76, 127
2, 373237, Note_on_c, 2, 74, 127
2, 373237, Note_on_c, 5, 53, 127
2, 373418, Note_off_c, 5, 53, 127
2, 373418, Note_off_c, 2, 74, 127
2, 373420, Note_on_c, 0, 72, 127
2, 373420, Note_on_c, 4, 52, 127
2, 373590, Note_off_c, 0, 72, 127
2, 373601, Note_off_c, 4, 52, 127
2, 373603, Note_on_c, 5, 77, 127
2, 373603, Note_on_c, 2, 50, 127
2, 373693, Note_off_c, 5, 77, 127
2, 373694, Note_on_c, 4, 76, 127
2, 373784, Note_off_c, 4, 76, 127
2, 373784, Note_off_c, 2, 50, 127
2, 373786, Note_on_c, 5, 77, 127
2, 373786, Note_on_c, 0, 48, 127
2, 373967, Note_off_c, 0, 48, 127
2, 373969, Note_on_c, 12, 47, 127
2, 374150, Note_off_c, 12, 47, 127
2, 374150, Note_off_c, 5, 77, 127
2, 374152, Note_on_c, 5, 77, 127
2, 374152, Note_on_c, 10, 45, 127
2, 374333, Note_off_c, 10, 45, 127
2, 374333, Note_off_c, 5, 77, 127
2, 374335, Note_on_c, 7, 67, 127
2, 374335, Note_on_c, 12, 47, 127
2, 374426, Note_on_c, 2, 74, 127
2, 374516, Note_off_c, 12, 47, 127
2, 374518, Note_on_c, 5, 77, 127
2, 374518, Note_on_c, 7, 43, 127
2, 374699, Note_off_c, 7, 43, 127
2, 374701, Note_on_c, 10, 45, 127
2, 374882, Note_off_c, 10, 45, 127
2, 374882, Note_off_c, 5, 77, 127
2, 374884, Note_off_c, 7, 67, 127
2, 374885, Note_off_c, 2, 74, 127
2, 374885, Note_on_c, 2, 74, 127
2, 374885, Note_on_c, 12, 47, 127
2, 375066, Note_off_c, 12, 47, 127
2, 375066, Note_off_c, 2, 74, 127
2, 375068, Note_on_c, 4, 76, 127
2, 375068, Note_on_c, 0, 48, 127
2, 375249, Note_off_c, 0, 48, 127
2, 375249, Note_off_c, 4, 76, 127
2, 375251, Note_on_c, 5, 77, 127
2, 375251, Note_on_c, 2, 50, 127
2, 375432, Note_off_c, 2, 50, 127
2, 375432, Note_off_c, 5, 77, 127
2, 375434, Note_on_c, 7, 79, 127
2, 375434, Note_on_c, 4, 52, 127
2, 375615, Note_off_c, 4, 52, 127
2, 375615, Note_off_c, 7, 79, 127
2, 375617, Note_on_c, 10, 81, 127
2, 375617, Note_on_c, 5, 53, 127
2, 375798, Note_off_c, 5, 53, 127
2, 375798, Note_off_c, 10, 81, 127
2, 375800, Note_on_c, 7, 79, 127
2, 375800, Note_on_c, 7, 55, 127
2, 375981, Note_off_c, 7, 79, 127
2, 375983, Note_on_c, 5, 77, 127
2, 376164, Note_off_c, 5, 77, 127
2, 376164, Note_off_c, 7, 55, 127
2, 376166, Note_on_c, 4, 76, 127
2, 376166, Note_on_c, 7, 43, 127
2, 376347, Note_off_c, 4, 76, 127
2, 376349, Note_on_c, 2, 74, 127
2, 376530, Note_off_c, 2, 74, 127
2, 376530, Note_off_c, 7, 43, 127
2, 376532, Note_on_c, 4, 76, 127
2, 376532, Note_on_c, 0, 48, 127
2, 376622, Note_off_c, 4, 76, 127
2, 376624, Note_on_c, 2, 74, 127
2, 376714, Note_off_c, 2, 74, 127
2, 376715, Note_on_c, 4, 76, 127
2, 376715, Note_on_c, 7, 55, 127
2, 376896, Note_off_c, 7, 55, 127
2, 376898, Note_on_c, 0, 60, 127
2, 377079, Note_off_c, 4, 76, 127
2, 377081, Note_off_c, 0, 48, 127
2, 377083, Note_on_c, 2, 74, 127
2, 377083, Note_on_c, 2, 50, 127
2, 377262, Note_off_c, 0, 60, 127
2, 377264, Note_off_c, 2, 50, 127
2, 377264, Note_off_c, 2, 74, 127
2, 377266, Note_on_c, 0, 72, 127
2, 377266, Note_on_c, 4, 52, 127
2, 377447, Note_off_c, 0, 72, 127
2, 377449, Note_on_c, 4, 76, 127
2, 377630, Note_off_c, 4, 76, 127
2, 377630, Note_off_c, 4, 52, 127
2, 377632, Note_on_c, 2, 74, 127
2, 377632, Note_on_c, 5, 53, 127
2, 377813, Note_off_c, 2, 74, 127
2, 377815, Note_on_c, 0, 72, 127
2, 377996, Note_off_c, 0, 72, 127
2, 377996, Note_off_c, 5, 53, 127
2, 377998, Note_on_c, 12, 71, 127
2, 377998, Note_on_c, 7, 55, 127
2, 378179, Note_off_c, 12, 71, 127
2, 378181, Note_on_c, 10, 69, 127
2, 378362, Note_off_c, 10, 69, 127
2, 378362, Note_off_c, 7, 55, 127
2, 378364, Note_on_c, 12, 71, 127
2, 378364, Note_on_c, 10, 57, 127
2, 378545, Note_off_c, 12, 71, 127
2, 378547, Note_on_c, 0, 72, 127
2, 378728, Note_off_c, 0, 72, 127
2, 378728, Note_off_c, 10, 57, 127
2, 378730, Note_on_c, 7, 67, 127
2, 378730, Note_on_c, 12, 59, 127
2, 378911, Note_off_c, 12, 59, 127
2, 378913, Note_on_c, 0, 60, 127
2, 379094, Note_off_c, 0, 60, 127
2, 379096, Note_on_c, 5, 65, 127
2, 379096, Note_on_c, 2, 62, 127
2, 379107, Note_off_c, 7, 67, 127
2, 379155, Note_on_c, 7, 67, 127
2, 379176, Note_off_c, 5, 65, 127
2, 379218, Note_on_c, 5, 65, 127
2, 379235, Note_off_c, 7, 67, 127
2, 379277, Note_off_c, 2, 62, 127
2, 379279, Note_on_c, 4, 64, 127
2, 379279, Note_on_c, 0, 60, 127
2, 379298, Note_off_c, 5, 65, 127
2, 379460, Note_off_c, 0, 60, 127
2, 379460, Note_off_c, 4, 64, 127
2, 379462, Note_on_c, 5, 65, 127
2, 379462, Note_on_c, 12, 59, 127
2, 379643, Note_off_c, 12, 59, 127
2, 379643, Note_off_c, 5, 65, 127
2, 379645, Note_on_c, 2, 62, 127
2, 379645, Note_on_c, 10, 57, 127
2, 379826, Note_off_c, 10, 57, 127
2, 379826, Note_off_c, 2, 62, 127
2, 379828, Note_on_c, 4, 64, 127
2, 379828, Note_on_c, 7, 55, 127
2, 380009, Note_off_c, 7, 55, 127
2, 380009, Note_off_c, 4, 64, 127
2, 380011, Note_on_c, 5, 65, 127
2, 380011, Note_on_c, 5, 53, 127
2, 380192, Note_off_c, 5, 53, 127
2, 380192, Note_off_c, 5, 65, 127
2, 380194, Note_on_c, 7, 67, 127
2, 380194, Note_on_c, 4, 52, 127
2, 380375, Note_off_c, 4, 52, 127
2, 380375, Note_off_c, 7, 67, 127
2, 380377, Note_on_c, 10, 69, 127
2, 380377, Note_on_c, 0, 48, 127
2, 380558, Note_off_c, 0, 48, 127
2, 380558, Note_off_c, 10, 69, 127
2, 380560, Note_on_c, 11, 70, 127
2, 380560, Note_on_c, 2, 50, 127
2, 380741, Note_off_c, 2, 50, 127
2, 380741, Note_off_c, 11, 70, 127
2, 380743, Note_on_c, 7, 67, 127
2, 380743, Note_on_c, 4, 52, 127
2, 380924, Note_off_c, 4, 52, 127
2, 380924, Note_off_c, 7, 67, 127
2, 380926, Note_on_c, 10, 69, 127
2, 380926, Note_on_c, 5, 53, 127
2, 381107, Note_off_c, 5, 53, 127
2, 381109, Note_on_c, 4, 52, 127
2, 381290, Note_off_c, 4, 52, 127
2, 381292, Note_on_c, 5, 53, 127
2, 381473, Note_off_c, 5, 53, 127
2, 381473, Note_off_c, 10, 69, 127
2, 381475, Note_on_c, 7, 67, 127
2, 381475, Note_on_c, 7, 55, 127
2, 381656, Note_off_c, 7, 55, 127
2, 381656, Note_off_c, 7, 67, 127
2, 381658, Note_on_c, 5, 65, 127
2, 381658, Note_on_c, 10, 57, 127
2, 381839, Note_off_c, 5, 65, 127
2, 381841, Note_on_c, 4, 64, 127
2, 382022, Note_off_c, 4, 64, 127
2, 382022, Note_off_c, 10, 57, 127
2, 382024, Note_on_c, 2, 62, 127
2, 382024, Note_on_c, 5, 53, 127
2, 382205, Note_off_c, 2, 62, 127
2, 382207, Note_on_c, 2, 74, 127
2, 382388, Note_off_c, 2, 74, 127
2, 382388, Note_off_c, 5, 53, 127
2, 382390, Note_on_c, 0, 72, 127
2, 382390, Note_on_c, 7, 55, 127
2, 382551, Note_on_c, 12, 71, 127
2, 382556, Note_off_c, 0, 72, 127
2, 382623, Note_on_c, 0, 72, 127
2, 382641, Note_off_c, 12, 71, 127
2, 382694, Note_on_c, 12, 71, 127
2, 382713, Note_off_c, 0, 72, 127
2, 382754, Note_off_c, 7, 55, 127
2, 382756, Note_on_c, 7, 43, 127
2, 382766, Note_on_c, 0, 72, 127
2, 382784, Note_off_c, 12, 71, 127
2, 382837, Note_on_c, 12, 71, 127
2, 382856, Note_off_c, 0, 72, 127
2, 382938, Note_off_c, 12, 71, 127
2, 382939, Note_on_c, 0, 72, 127
2, 383120, Note_off_c, 0, 72, 127
2, 383120, Note_off_c, 7, 43, 127
2, 383122, Note_on_c, 0, 72, 127
2, 383122, Note_on_c, 0, 48, 127
2, 383491, Note_on_c, 0, 36, 127
2, 383858, Note_off_c, 0, 48, 127
2, 383860, Note_on_c, 7, 43, 127
2, 384226, Note_off_c, 7, 43, 127
2, 384227, Note_on_c, 4, 64, 127
2, 384227, Note_on_c, 7, 67, 127
2, 384227, Note_on_c, 0, 48, 127
2, 384958, Note_off_c, 0, 36, 127
2, 384962, Note_off_c, 7, 67, 127
2, 384962, Note_off_c, 4, 64, 127
2, 384964, Note_off_c, 0, 72, 127
2, 385148, Note_on_c, 4, 76, 127
2, 385329, Note_off_c, 4, 76, 127
2, 385329, Note_off_c, 0, 48, 127
2, 385331, Note_on_c, 4, 76, 127
2, 385331, Note_on_c, 0, 72, 127
2, 385331, Note_on_c, 7, 67, 127
2, 385331, Note_on_c, 0, 48, 127
2, 385697, Note_off_c, 0, 48, 127
2, 385699, Note_on_c, 2, 50, 127
2, 385880, Note_off_c, 7, 67, 127
2, 385880, Note_off_c, 0, 72, 127
2, 385880, Note_off_c, 4, 76, 127
2, 385882, Note_on_c, 2, 74, 127
2, 386063, Note_off_c, 2, 74, 127
2, 386063, Note_off_c, 2, 50, 127
2, 386065, Note_on_c, 0, 72, 127
2, 386065, Note_on_c, 4, 52, 127
2, 386246, Note_off_c, 0, 72, 127
2, 386248, Note_on_c, 12, 71, 127
2, 386429, Note_off_c, 12, 71, 127
2, 386429, Note_off_c, 4, 52, 127
2, 386431, Note_on_c, 10, 69, 127
2, 386431, Note_on_c, 0, 48, 127
2, 386612, Note_off_c, 10, 69, 127
2, 386614, Note_on_c, 7, 67, 127
2, 386795, Note_off_c, 7, 67, 127
2, 386795, Note_off_c, 0, 48, 127
2, 386797, Note_on_c, 6, 66, 127
2, 386797, Note_on_c, 2, 50, 127
2, 386978, Note_off_c, 6, 66, 127
2, 386980, Note_on_c, 8, 68, 127
2, 387161, Note_off_c, 8, 68, 127
2, 387161, Note_off_c, 2, 50, 127
2, 387163, Note_on_c, 10, 69, 127
2, 387163, Note_on_c, 12, 47, 127
2, 387344, Note_off_c, 10, 69, 127
2, 387346, Note_on_c, 12, 71, 127
2, 387527, Note_off_c, 12, 71, 127
2, 387527, Note_off_c, 12, 47, 127
2, 387529, Note_on_c, 10, 69, 127
2, 387529, Note_on_c, 4, 52, 127
2, 387710, Note_off_c, 4, 52, 127
2, 387712, Note_on_c, 2, 50, 127
2, 387720, Note_on_c, 8, 68, 127
2, 387741, Note_off_c, 10, 69, 127
2, 387782, Note_on_c, 10, 69, 127
2, 387800, Note_off_c, 8, 68, 127
2, 387843, Note_on_c, 8, 68, 127
2, 387862, Note_off_c, 10, 69, 127
2, 387893, Note_off_c, 2, 50, 127
2, 387895, Note_on_c, 5, 53, 127
2, 387905, Note_on_c, 10, 69, 127
2, 387923, Note_off_c, 8, 68, 127
2, 387966, Note_on_c, 8, 68, 127
2, 387985, Note_off_c, 10, 69, 127
2, 388076, Note_off_c, 5, 53, 127
2, 388078, Note_on_c, 10, 69, 127
2, 388078, Note_on_c, 4, 52, 127
2, 388088, Note_off_c, 8, 68, 127
2, 388259, Note_off_c, 4, 52, 127
2, 388259, Note_off_c, 10, 69, 127
2, 388261, Note_on_c, 12, 71, 127
2, 388261, Note_on_c, 2, 50, 127
2, 388442, Note_off_c, 2, 50, 127
2, 388444, Note_on_c, 0, 48, 127
2, 388625, Note_off_c, 0, 48, 127
2, 388625, Note_off_c, 12, 71, 127
2, 388627, Note_on_c, 4, 64, 127
2, 388627, Note_on_c, 12, 47, 127
2, 388808, Note_off_c, 12, 47, 127
2, 388810, Note_on_c, 10, 45, 127
2, 388991, Note_off_c, 10, 45, 127
2, 388991, Note_off_c, 4, 64, 127
2, 388993, Note_on_c, 12, 71, 127
2, 388993, Note_on_c, 8, 44, 127
2, 389083, Note_off_c, 12, 71, 127
2, 389084, Note_on_c, 0, 72, 127
2, 389174, Note_off_c, 0, 72, 127
2, 389174, Note_off_c, 8, 44, 127
2, 389176, Note_on_c, 2, 74, 127
2, 389176, Note_on_c, 6, 42, 127
2, 389357, Note_off_c, 6, 42, 127
2, 389357, Note_off_c, 2, 74, 127
2, 389359, Note_on_c, 0, 72, 127
2, 389359, Note_on_c, 8, 44, 127
2, 389540, Note_off_c, 8, 44, 127
2, 389540, Note_off_c, 0, 72, 127
2, 389542, Note_on_c, 12, 71, 127
2, 389542, Note_on_c, 4, 40, 127
2, 389723, Note_off_c, 4, 40, 127
2, 389723, Note_off_c, 12, 71, 127
2, 389725, Note_on_c, 0, 72, 127
2, 389725, Note_on_c, 10, 45, 127
2, 389815, Note_off_c, 0, 72, 127
2, 389816, Note_on_c, 12, 71, 127
2, 389906, Note_off_c, 12, 71, 127
2, 389906, Note_off_c, 10, 45, 127
2, 389908, Note_on_c, 0, 72, 127
2, 389908, Note_on_c, 8, 44, 127
2, 390089, Note_off_c, 8, 44, 127
2, 390091, Note_on_c, 10, 45, 127
2, 390272, Note_off_c, 10, 45, 127
2, 390272, Note_off_c, 0, 72, 127
2, 390274, Note_on_c, 12, 71, 127
2, 390274, Note_on_c, 12, 47, 127
2, 390455, Note_off_c, 12, 47, 127
2, 390455, Note_off_c, 12, 71, 127
2, 390457, Note_on_c, 10, 69, 127
2, 390457, Note_on_c, 0, 48, 127
2, 390638, Note_off_c, 0, 48, 127
2, 390638, Note_off_c, 10, 69, 127
2, 390640, Note_on_c, 12, 71, 127
2, 390640, Note_on_c, 2, 50, 127
2, 390821, Note_off_c, 2, 50, 127
2, 390821, Note_off_c, 12, 71, 127
2, 390823, Note_on_c, 0, 72, 127
2, 390823, Note_on_c, 4, 52, 127
2, 391004, Note_off_c, 4, 52, 127
2, 391004, Note_off_c, 0, 72, 127
2, 391006, Note_on_c, 2, 74, 127
2, 391006, Note_on_c, 5, 53, 127
2, 391187, Note_off_c, 5, 53, 127
2, 391187, Note_off_c, 2, 74, 127
2, 391189, Note_on_c, 4, 76, 127
2, 391189, Note_on_c, 7, 55, 127
2, 391370, Note_off_c, 7, 55, 127
2, 391370, Note_off_c, 4, 76, 127
2, 391372, Note_on_c, 5, 77, 127
2, 391372, Note_on_c, 10, 57, 127
2, 391553, Note_off_c, 10, 57, 127
2, 391553, Note_off_c, 5, 77, 127
2, 391555, Note_on_c, 7, 79, 127
2, 391555, Note_on_c, 11, 58, 127
2, 391736, Note_off_c, 11, 58, 127
2, 391736, Note_off_c, 7, 79, 127
2, 391738, Note_on_c, 4, 76, 127
2, 391738, Note_on_c, 7, 55, 127
2, 391919, Note_off_c, 7, 55, 127
2, 391919, Note_off_c, 4, 76, 127
2, 391921, Note_on_c, 2, 74, 127
2, 391921, Note_on_c, 10, 57, 127
2, 392102, Note_off_c, 10, 57, 127
2, 392104, Note_on_c, 7, 55, 127
2, 392125, Note_on_c, 1, 73, 127
2, 392141, Note_off_c, 2, 74, 127
2, 392194, Note_on_c, 2, 74, 127
2, 392205, Note_off_c, 1, 73, 127
2, 392255, Note_on_c, 1, 73, 127
2, 392274, Note_off_c, 2, 74, 127
2, 392285, Note_off_c, 7, 55, 127
2, 392287, Note_on_c, 11, 58, 127
2, 392317, Note_on_c, 2, 74, 127
2, 392335, Note_off_c, 1, 73, 127
2, 392378, Note_on_c, 1, 73, 127
2, 392397, Note_off_c, 2, 74, 127
2, 392458, Note_off_c, 1, 73, 127
2, 392468, Note_off_c, 11, 58, 127
2, 392470, Note_on_c, 2, 74, 127
2, 392470, Note_on_c, 10, 57, 127
2, 392651, Note_off_c, 10, 57, 127
2, 392653, Note_on_c, 4, 76, 127
2, 392653, Note_on_c, 7, 55, 127
2, 392662, Note_off_c, 2, 74, 127
2, 392834, Note_off_c, 7, 55, 127
2, 392836, Note_on_c, 5, 53, 127
2, 393017, Note_off_c, 5, 53, 127
2, 393017, Note_off_c, 4, 76, 127
2, 393019, Note_on_c, 10, 81, 127
2, 393019, Note_on_c, 4, 52, 127
2, 393200, Note_off_c, 4, 52, 127
2, 393202, Note_on_c, 2, 50, 127
2, 393383, Note_off_c, 2, 50, 127
2, 393385, Note_on_c, 1, 49, 127
2, 393566, Note_off_c, 1, 49, 127
2, 393566, Note_off_c, 10, 81, 127
2, 393568, Note_on_c, 7, 79, 127
2, 393568, Note_on_c, 12, 47, 127
2, 393749, Note_off_c, 12, 47, 127
2, 393749, Note_off_c, 7, 79, 127
2, 393751, Note_on_c, 5, 77, 127
2, 393751, Note_on_c, 1, 49, 127
2, 393932, Note_off_c, 1, 49, 127
2, 393932, Note_off_c, 5, 77, 127
2, 393934, Note_on_c, 4, 76, 127
2, 393934, Note_on_c, 10, 45, 127
2, 394115, Note_off_c, 10, 45, 127
2, 394115, Note_off_c, 4, 76, 127
2, 394117, Note_on_c, 7, 79, 127
2, 394117, Note_on_c, 2, 50, 127
2, 394207, Note_off_c, 7, 79, 127
2, 394208, Note_on_c, 5, 77, 127
2, 394298, Note_off_c, 5, 77, 127
2, 394300, Note_on_c, 4, 76, 127
2, 394481, Note_off_c, 4, 76, 127
2, 394481, Note_off_c, 2, 50, 127
2, 394483, Note_on_c, 5, 77, 127
2, 394483, Note_on_c, 11, 58, 127
2, 394664, Note_off_c, 5, 77, 127
2, 394666, Note_on_c, 7, 79, 127
2, 394847, Note_off_c, 7, 79, 127
2, 394847, Note_off_c, 11, 58, 127
2, 394849, Note_on_c, 10, 81, 127
2, 394849, Note_on_c, 5, 53, 127
2, 395215, Note_off_c, 5, 53, 127
2, 395215, Note_off_c, 10, 81, 127
2, 395216, Note_on_c, 2, 74, 127
2, 395216, Note_on_c, 7, 55, 127
2, 395397, Note_off_c, 2, 74, 127
2, 395399, Note_on_c, 4, 76, 127
2, 395580, Note_off_c, 4, 76, 127
2, 395580, Note_off_c, 7, 55, 127
2, 395582, Note_on_c, 7, 79, 127
2, 395582, Note_on_c, 10, 57, 127
2, 395763, Note_off_c, 7, 79, 127
2, 395765, Note_on_c, 5, 77, 127
2, 395946, Note_off_c, 5, 77, 127
2, 395946, Note_off_c, 10, 57, 127
2, 395948, Note_on_c, 4, 76, 127
2, 395948, Note_on_c, 10, 45, 127
2, 396129, Note_off_c, 4, 76, 127
2, 396131, Note_on_c, 2, 74, 127
2, 396312, Note_off_c, 2, 74, 127
2, 396312, Note_off_c, 10, 45, 127
2, 396314, Note_on_c, 2, 74, 127
2, 396314, Note_on_c, 2, 38, 127
2, 396404, Note_off_c, 2, 74, 127
2, 396406, Note_on_c, 1, 73, 127
2, 396496, Note_off_c, 1, 73, 127
2, 396497, Note_on_c, 2, 74, 127
2, 396678, Note_off_c, 2, 38, 127
2, 396680, Note_on_c, 10, 57, 127
2, 396861, Note_off_c, 10, 57, 127
2, 396863, Note_on_c, 7, 55, 127
2, 397044, Note_off_c, 7, 55, 127
2, 397046, Note_on_c, 5, 53, 127
2, 397227, Note_off_c, 5, 53, 127
2, 397229, Note_on_c, 4, 52, 127
2, 397410, Note_off_c, 4, 52, 127
2, 397410, Note_off_c, 2, 74, 127
2, 397412, Note_on_c, 5, 77, 127
2, 397412, Note_on_c, 2, 50, 127
2, 397593, Note_off_c, 2, 50, 127
2, 397593, Note_off_c, 5, 77, 127
2, 397595, Note_on_c, 4, 76, 127
2, 397595, Note_on_c, 0, 48, 127
2, 397776, Note_off_c, 0, 48, 127
2, 397776, Note_off_c, 4, 76, 127
2, 397778, Note_on_c, 2, 74, 127
2, 397778, Note_on_c, 12, 47, 127
2, 397959, Note_off_c, 12, 47, 127
2, 397959, Note_off_c, 2, 74, 127
2, 397961, Note_on_c, 0, 72, 127
2, 397961, Note_on_c, 10, 45, 127
2, 398142, Note_off_c, 10, 45, 127
2, 398142, Note_off_c, 0, 72, 127
2, 398144, Note_on_c, 2, 74, 127
2, 398144, Note_on_c, 7, 43, 127
2, 398325, Note_off_c, 7, 43, 127
2, 398325, Note_off_c, 2, 74, 127
2, 398327, Note_on_c, 12, 71, 127
2, 398327, Note_on_c, 5, 41, 127
2, 398508, Note_off_c, 5, 41, 127
2, 398508, Note_off_c, 12, 71, 127
2, 398510, Note_on_c, 7, 79, 127
2, 398510, Note_on_c, 4, 40, 127
2, 398590, Note_off_c, 7, 79, 127
2, 398596, Note_on_c, 5, 77, 127
2, 398676, Note_off_c, 5, 77, 127
2, 398677, Note_on_c, 7, 79, 127
2, 398691, Note_off_c, 4, 40, 127
2, 398693, Note_on_c, 7, 43, 127
2, 398874, Note_off_c, 7, 43, 127
2, 398876, Note_on_c, 10, 45, 127
2, 399057, Note_off_c, 10, 45, 127
2, 399057, Note_off_c, 7, 79, 127
2, 399059, Note_on_c, 5, 77, 127
2, 399059, Note_on_c, 12, 47, 127
2, 399240, Note_off_c, 12, 47, 127
2, 399240, Note_off_c, 5, 77, 127
2, 399242, Note_on_c, 4, 76, 127
2, 399242, Note_on_c, 0, 48, 127
2, 399423, Note_off_c, 0, 48, 127
2, 399423, Note_off_c, 4, 76, 127
2, 399425, Note_on_c, 2, 74, 127
2, 399425, Note_on_c, 2, 50, 127
2, 399606, Note_off_c, 2, 50, 127
2, 399606, Note_off_c, 2, 74, 127
2, 399608, Note_on_c, 0, 72, 127
2, 399608, Note_on_c, 4, 52, 127
2, 399789, Note_off_c, 4, 52, 127
2, 399789, Note_off_c, 0, 72, 127
2, 399791, Note_on_c, 12, 71, 127
2, 399791, Note_on_c, 6, 54, 127
2, 399972, Note_off_c, 6, 54, 127
2, 399972, Note_off_c, 12, 71, 127
2, 399974, Note_on_c, 0, 72, 127
2, 399974, Note_on_c, 7, 55, 127
2, 400155, Note_off_c, 7, 55, 127
2, 400155, Note_off_c, 0, 72, 127
2, 400157, Note_on_c, 10, 69, 127
2, 400157, Note_on_c, 6, 54, 127
2, 400338, Note_off_c, 6, 54, 127
2, 400338, Note_off_c, 10, 69, 127
2, 400340, Note_on_c, 2, 74, 127
2, 400340, Note_on_c, 4, 52, 127
2, 400521, Note_off_c, 4, 52, 127
2, 400523, Note_on_c, 2, 50, 127
2, 400704, Note_off_c, 2, 50, 127
2, 400704, Note_off_c, 2, 74, 127
2, 400706, Note_on_c, 0, 72, 127
2, 400706, Note_on_c, 7, 55, 127
2, 400887, Note_off_c, 0, 72, 127
2, 400889, Note_on_c, 12, 71, 127
2, 401070, Note_off_c, 12, 71, 127
2, 401070, Note_off_c, 7, 55, 127
2, 401072, Note_on_c, 10, 69, 127
2, 401072, Note_on_c, 5, 53, 127
2, 401253, Note_off_c, 10, 69, 127
2, 401255, Note_on_c, 7, 67, 127
2, 401436, Note_off_c, 7, 67, 127
2, 401436, Note_off_c, 5, 53, 127
2, 401438, Note_on_c, 10, 69, 127
2, 401438, Note_on_c, 4, 52, 127
2, 401619, Note_off_c, 10, 69, 127
2, 401621, Note_on_c, 12, 71, 127
2, 401802, Note_off_c, 12, 71, 127
2, 401802, Note_off_c, 4, 52, 127
2, 401804, Note_on_c, 0, 72, 127
2, 401804, Note_on_c, 2, 50, 127
2, 401985, Note_off_c, 0, 72, 127
2, 401987, Note_on_c, 2, 74, 127
2, 402168, Note_off_c, 2, 74, 127
2, 402168, Note_off_c, 2, 50, 127
2, 402170, Note_on_c, 4, 76, 127
2, 402170, Note_on_c, 0, 48, 127
2, 402351, Note_off_c, 4, 76, 127
2, 402353, Note_on_c, 12, 71, 127
2, 402534, Note_off_c, 12, 71, 127
2, 402534, Note_off_c, 0, 48, 127
2, 402536, Note_on_c, 0, 72, 127
2, 402536, Note_on_c, 10, 45, 127
2, 402717, Note_off_c, 0, 72, 127
2, 402719, Note_on_c, 10, 69, 127
2, 402900, Note_off_c, 10, 69, 127
2, 402900, Note_off_c, 10, 45, 127
2, 402902, Note_on_c, 6, 66, 127
2, 402902, Note_on_c, 2, 50, 127
2, 403083, Note_off_c, 6, 66, 127
2, 403085, Note_on_c, 4, 64, 127
2, 403266, Note_off_c, 4, 64, 127
2, 403266, Note_off_c, 2, 50, 127
2, 403268, Note_on_c, 6, 66, 127
2, 403268, Note_on_c, 4, 52, 127
2, 403449, Note_off_c, 6, 66, 127
2, 403451, Note_on_c, 10, 69, 127
2, 403632, Note_off_c, 10, 69, 127
2, 403632, Note_off_c, 4, 52, 127
2, 403634, Note_on_c, 12, 71, 127
2, 403634, Note_on_c, 2, 50, 127
2, 403815, Note_off_c, 12, 71, 127
2, 403817, Note_on_c, 0, 72, 127
2, 403998, Note_off_c, 0, 72, 127
2, 403998, Note_off_c, 2, 50, 127
2, 404000, Note_on_c, 2, 74, 127
2, 404000, Note_on_c, 0, 48, 127
2, 404181, Note_off_c, 2, 74, 127
2, 404183, Note_on_c, 4, 76, 127
2, 404364, Note_off_c, 4, 76, 127
2, 404364, Note_off_c, 0, 48, 127
2, 404366, Note_on_c, 5, 77, 127
2, 404366, Note_on_c, 12, 47, 127
2, 404547, Note_off_c, 5, 77, 127
2, 404549, Note_on_c, 4, 76, 127
2, 404730, Note_off_c, 4, 76, 127
2, 404730, Note_off_c, 12, 47, 127
2, 404732, Note_on_c, 10, 81, 127
2, 404732, Note_on_c, 0, 48, 127
2, 404913, Note_off_c, 0, 48, 127
2, 404915, Note_on_c, 2, 50, 127
2, 405096, Note_off_c, 2, 50, 127
2, 405096, Note_off_c, 10, 81, 127
2, 405098, Note_on_c, 10, 81, 127
2, 405098, Note_on_c, 4, 52, 127
2, 405250, Note_on_c, 8, 80, 127
2, 405258, Note_off_c, 10, 81, 127
2, 405279, Note_off_c, 4, 52, 127
2, 405281, Note_on_c, 2, 50, 127
2, 405321, Note_on_c, 10, 81, 127
2, 405340, Note_off_c, 8, 80, 127
2, 405393, Note_on_c, 8, 80, 127
2, 405411, Note_off_c, 10, 81, 127
2, 405462, Note_off_c, 2, 50, 127
2, 405464, Note_on_c, 10, 81, 127
2, 405464, Note_on_c, 5, 53, 127
2, 405483, Note_off_c, 8, 80, 127
2, 405536, Note_on_c, 8, 80, 127
2, 405554, Note_off_c, 10, 81, 127
2, 405626, Note_off_c, 8, 80, 127
2, 405645, Note_off_c, 5, 53, 127
2, 405647, Note_on_c, 10, 81, 127
2, 405647, Note_on_c, 4, 52, 127
2, 405828, Note_off_c, 4, 52, 127
2, 405828, Note_off_c, 10, 81, 127
2, 405830, Note_on_c, 12, 83, 127
2, 405830, Note_on_c, 2, 50, 127
2, 406011, Note_off_c, 2, 50, 127
2, 406011, Note_off_c, 12, 83, 127
2, 406013, Note_on_c, 4, 76, 127
2, 406013, Note_on_c, 0, 48, 127
2, 406194, Note_off_c, 0, 48, 127
2, 406194, Note_off_c, 4, 76, 127
2, 406196, Note_on_c, 0, 84, 127
2, 406196, Note_on_c, 12, 47, 127
2, 406377, Note_off_c, 12, 47, 127
2, 406379, Note_on_c, 10, 45, 127
2, 406560, Note_off_c, 10, 45, 127
2, 406560, Note_off_c, 0, 84, 127
2, 406562, Note_on_c, 0, 84, 127
2, 406562, Note_on_c, 2, 50, 127
2, 406743, Note_off_c, 0, 84, 127
2, 406745, Note_on_c, 12, 83, 127
2, 406926, Note_off_c, 12, 83, 127
2, 406926, Note_off_c, 2, 50, 127
2, 406928, Note_on_c, 10, 81, 127
2, 406928, Note_on_c, 4, 52, 127
2, 407109, Note_off_c, 10, 81, 127
2, 407111, Note_on_c, 8, 80, 127
2, 407292, Note_off_c, 8, 80, 127
2, 407292, Note_off_c, 4, 52, 127
2, 407294, Note_on_c, 10, 81, 127
2, 407294, Note_on_c, 5, 53, 127
2, 407475, Note_off_c, 5, 53, 127
2, 407475, Note_off_c, 10, 81, 127
2, 407477, Note_on_c, 4, 76, 127
2, 407477, Note_on_c, 1, 49, 127
2, 407658, Note_off_c, 1, 49, 127
2, 407658, Note_off_c, 4, 76, 127
2, 407660, Note_on_c, 5, 77, 127
2, 407660, Note_on_c, 2, 50, 127
2, 407841, Note_off_c, 2, 50, 127
2, 407841, Note_off_c, 5, 77, 127
2, 407843, Note_on_c, 2, 74, 127
2, 407843, Note_on_c, 10, 57, 127
2, 408024, Note_off_c, 10, 57, 127
2, 408024, Note_off_c, 2, 74, 127
2, 408026, Note_on_c, 4, 76, 127
2, 408026, Note_on_c, 8, 56, 127
2, 408116, Note_off_c, 4, 76, 127
2, 408118, Note_on_c, 2, 74, 127
2, 408207, Note_off_c, 8, 56, 127
2, 408208, Note_off_c, 2, 74, 127
2, 408209, Note_on_c, 4, 76, 127
2, 408209, Note_on_c, 4, 52, 127
2, 408390, Note_off_c, 4, 52, 127
2, 408392, Note_on_c, 10, 57, 127
2, 408573, Note_off_c, 10, 57, 127
2, 408573, Note_off_c, 4, 76, 127
2, 408575, Note_on_c, 5, 77, 127
2, 408575, Note_on_c, 2, 50, 127
2, 408756, Note_off_c, 2, 50, 127
2, 408756, Note_off_c, 5, 77, 127
2, 408758, Note_on_c, 8, 68, 127
2, 408758, Note_on_c, 0, 72, 127
2, 408758, Note_on_c, 4, 52, 127
2, 408854, Note_off_c, 0, 72, 127
2, 408856, Note_on_c, 12, 71, 127
2, 408952, Note_off_c, 12, 71, 127
2, 408953, Note_on_c, 0, 72, 127
2, 409049, Note_off_c, 0, 72, 127
2, 409051, Note_on_c, 12, 71, 127
2, 409146, Note_off_c, 4, 52, 127
2, 409147, Note_off_c, 12, 71, 127
2, 409148, Note_on_c, 0, 72, 127
2, 409148, Note_on_c, 4, 40, 127
2, 409244, Note_off_c, 0, 72, 127
2, 409246, Note_on_c, 12, 71, 127
2, 409342, Note_off_c, 12, 71, 127
2, 409343, Note_off_c, 8, 68, 127
2, 409345, Note_on_c, 10, 69, 127
2, 409539, Note_off_c, 4, 40, 127
2, 409540, Note_off_c, 10, 69, 127
2, 409541, Note_on_c, 10, 69, 127
2, 409541, Note_on_c, 10, 45, 127
2, 409936, Note_on_c, 0, 48, 127
2, 410339, Note_on_c, 4, 52, 127
2, 410346, Note_off_c, 0, 48, 127
2, 410761, Note_off_c, 4, 52, 127
2, 410798, Note_on_c, 0, 60, 127
2, 410798, Note_on_c, 10, 57, 127
2, 410798, Note_on_c, 4, 64, 127
2, 413541, Note_off_c, 10, 45, 127
2, 413541, Note_off_c, 10, 69, 127
2, 413554, Note_off_c, 4, 64, 127
2, 413554, Note_off_c, 10, 57, 127
2, 413554, Note_off_c, 0, 60, 127
2, 414284, Note_on_c, 10, 57, 127
2, 414284, Note_on_c, 4, 64, 127
2, 414284, Note_on_c, 10, 69, 127
2, 414284, Note_on_c, 0, 72, 127
2, 415005, Note_off_c, 0, 72, 127
2, 415005, Note_off_c, 10, 69, 127
2, 415005, Note_off_c, 4, 64, 127
2, 415005, Note_off_c, 10, 57, 127
2, 415010, Note_on_c, 2, 50, 127
2, 415010, Note_on_c, 4, 64, 127
2, 415010, Note_on_c, 0, 72, 127
2, 415010, Note_on_c, 5, 65, 127
2, 415368, Note_off_c, 0, 72, 127
2, 415368, Note_off_c, 4, 64, 127
2, 415373, Note_on_c, 12, 71, 127
2, 415373, Note_on_c, 2, 62, 127
2, 415728, Note_off_c, 5, 65, 127
2, 415733, Note_off_c, 2, 62, 127
2, 415733, Note_off_c, 12, 71, 127
2, 415733, Note_off_c, 2, 50, 127
2, 415737, Note_on_c, 4, 52, 127
2, 415737, Note_on_c, 0, 60, 127
2, 415737, Note_on_c, 4, 64, 127
2, 415737, Note_on_c, 10, 69, 127
2, 416095, Note_off_c, 10, 69, 127
2, 416095, Note_off_c, 4, 64, 127
2, 416095, Note_off_c, 0, 60, 127
2, 416100, Note_on_c, 12, 59, 127
2, 416100, Note_on_c, 8, 68, 127
2, 416100, Note_on_c, 2, 62, 127
2, 416458, Note_off_c, 2, 62, 127
2, 416458, Note_off_c, 8, 68, 127
2, 416458, Note_off_c, 12, 59, 127
2, 416458, Note_off_c, 4, 52, 127
2, 416463, Note_on_c, 5, 53, 127
2, 416463, Note_on_c, 10, 57, 127
2, 416463, Note_on_c, 0, 60, 127
2, 416463, Note_on_c, 10, 69, 127
2, 417184, Note_off_c, 10, 69, 127
2, 417184, Note_off_c, 0, 60, 127
2, 417184, Note_off_c, 10, 57, 127
2, 417184, Note_off_c, 5, 53, 127
2, 417189, Note_on_c, 4, 52, 127
2, 417189, Note_on_c, 10, 57, 127
2, 417189, Note_on_c, 10, 69, 127
2, 417189, Note_on_c, 0, 60, 127
2, 417547, Note_off_c, 4, 52, 127
2, 417552, Note_on_c, 2, 50, 127
2, 417910, Note_off_c, 2, 50, 127
2, 417915, Note_on_c, 0, 48, 127
2, 418273, Note_off_c, 0, 48, 127
2, 418278, Note_on_c, 12, 47, 127
2, 418636, Note_off_c, 12, 47, 127
2, 418636, Note_off_c, 0, 60, 127
2, 418638, Note_off_c, 10, 57, 127
2, 418640, Note_on_c, 0, 48, 127
2, 418640, Note_on_c, 4, 52, 127
2, 418640, Note_on_c, 10, 57, 127
2, 418640, Note_on_c, 4, 64, 127
2, 418689, Note_off_c, 10, 69, 127
2, 418700, Note_on_c, 10, 69, 127
2, 418760, Note_on_c, 0, 72, 127
2, 418830, Note_on_c, 4, 76, 127
2, 419357, Note_off_c, 0, 72, 127
2, 419361, Note_off_c, 10, 69, 127
2, 419361, Note_off_c, 4, 64, 127
2, 419361, Note_off_c, 10, 57, 127
2, 419361, Note_off_c, 4, 52, 127
2, 419361, Note_off_c, 0, 48, 127
2, 419365, Note_off_c, 4, 76, 127
2, 419366, Note_on_c, 2, 50, 127
2, 419366, Note_on_c, 10, 57, 127
2, 419366, Note_on_c, 0, 72, 127
2, 419366, Note_on_c, 5, 65, 127
2, 419366, Note_on_c, 4, 76, 127
2, 419724, Note_off_c, 4, 76, 127
2, 419724, Note_off_c, 0, 72, 127
2, 419729, Note_on_c, 2, 74, 127
2, 419729, Note_on_c, 12, 71, 127
2, 420084, Note_off_c, 5, 65, 127
2, 420089, Note_off_c, 12, 71, 127
2, 420089, Note_off_c, 2, 74, 127
2, 420089, Note_off_c, 10, 57, 127
2, 420089, Note_off_c, 2, 50, 127
2, 420093, Note_on_c, 4, 52, 127
2, 420093, Note_on_c, 4, 64, 127
2, 420093, Note_on_c, 0, 72, 127
2, 420093, Note_on_c, 10, 69, 127
2, 420451, Note_off_c, 10, 69, 127
2, 420451, Note_off_c, 0, 72, 127
2, 420456, Note_on_c, 8, 68, 127
2, 420456, Note_on_c, 12, 71, 127
2, 420811, Note_off_c, 4, 64, 127
2, 420816, Note_off_c, 12, 71, 127
2, 420816, Note_off_c, 8, 68, 127
2, 420816, Note_off_c, 4, 52, 127
2, 420821, Note_on_c, 10, 45, 127
2, 420821, Note_on_c, 8, 68, 127
2, 420821, Note_on_c, 12, 71, 127
2, 420821, Note_on_c, 4, 64, 127
2, 421341, Note_off_c, 12, 71, 127
2, 421341, Note_off_c, 8, 68, 127
2, 421346, Note_on_c, 0, 72, 127
2, 421346, Note_on_c, 10, 69, 127
2, 421542, Note_off_c, 4, 64, 127
2, 421542, Note_off_c, 10, 45, 127
2, 421547, Note_on_c, 0, 48, 127
2, 421907, Note_off_c, 10, 69, 127
2, 421910, Note_on_c, 2, 62, 127
2, 422091, Note_on_c, 12, 71, 127
2, 422095, Note_off_c, 0, 72, 127
2, 422268, Note_off_c, 12, 71, 127
2, 422268, Note_off_c, 2, 62, 127
2, 422268, Note_off_c, 0, 48, 127
2, 422273, Note_on_c, 4, 52, 127
2, 422273, Note_on_c, 0, 60, 127
2, 422273, Note_on_c, 4, 64, 127
2, 422273, Note_on_c, 10, 69, 127
2, 422631, Note_off_c, 0, 60, 127
2, 422636, Note_on_c, 12, 59, 127
2, 422996, Note_off_c, 10, 69, 127
2, 423016, Note_off_c, 12, 59, 127
2, 423016, Note_on_c, 0, 72, 127
2, 423016, Note_on_c, 10, 57, 127
2, 423023, Note_off_c, 4, 52, 127
2, 423025, Note_off_c, 4, 64, 127
2, 423374, Note_off_c, 0, 72, 127
2, 423379, Note_on_c, 10, 69, 127
2, 423737, Note_off_c, 10, 69, 127
2, 423742, Note_on_c, 5, 65, 127
2, 423742, Note_on_c, 10, 45, 127
2, 423757, Note_off_c, 10, 57, 127
2, 424100, Note_off_c, 5, 65, 127
2, 424105, Note_on_c, 4, 64, 127
2, 424463, Note_off_c, 4, 64, 127
2, 424468, Note_on_c, 5, 65, 127
2, 424826, Note_off_c, 5, 65, 127
2, 424828, Note_off_c, 10, 45, 127
2, 424830, Note_on_c, 10, 69, 127
2, 425188, Note_off_c, 10, 69, 127
2, 425193, Note_on_c, 2, 74, 127
2, 425193, Note_on_c, 12, 59, 127
2, 425551, Note_off_c, 2, 74, 127
2, 425556, Note_on_c, 7, 67, 127
2, 425914, Note_off_c, 7, 67, 127
2, 425914, Note_off_c, 12, 59, 127
2, 425919, Note_on_c, 5, 65, 127
2, 425919, Note_on_c, 12, 47, 127
2, 426277, Note_off_c, 5, 65, 127
2, 426282, Note_on_c, 4, 64, 127
2, 426640, Note_off_c, 4, 64, 127
2, 426645, Note_on_c, 5, 65, 127
2, 427003, Note_off_c, 5, 65, 127
2, 427005, Note_off_c, 12, 47, 127
2, 427006, Note_on_c, 2, 74, 127
2, 427371, Note_off_c, 2, 74, 127
2, 427385, Note_on_c, 0, 60, 127
2, 427385, Note_on_c, 7, 67, 127
2, 427385, Note_on_c, 4, 76, 127
2, 427385, Note_on_c, 0, 72, 127
2, 427743, Note_off_c, 0, 72, 127
2, 427743, Note_off_c, 4, 76, 127
2, 427743, Note_off_c, 0, 60, 127
2, 427748, Note_on_c, 12, 59, 127
2, 427748, Note_on_c, 2, 74, 127
2, 428103, Note_off_c, 7, 67, 127
2, 428108, Note_off_c, 2, 74, 127
2, 428108, Note_off_c, 12, 59, 127
2, 428113, Note_on_c, 10, 57, 127
2, 428113, Note_on_c, 0, 60, 127
2, 428113, Note_on_c, 0, 72, 127
2, 428113, Note_on_c, 5, 77, 127
2, 428471, Note_off_c, 5, 77, 127
2, 428471, Note_off_c, 10, 57, 127
2, 428476, Note_on_c, 7, 55, 127
2, 428476, Note_on_c, 4, 76, 127
2, 428831, Note_off_c, 0, 72, 127
2, 428831, Note_off_c, 0, 60, 127
2, 428836, Note_off_c, 4, 76, 127
2, 428836, Note_off_c, 7, 55, 127
2, 428840, Note_on_c, 5, 53, 127
2, 428840, Note_on_c, 5, 65, 127
2, 428840, Note_on_c, 2, 74, 127
2, 428840, Note_on_c, 10, 69, 127
2, 429198, Note_off_c, 2, 74, 127
2, 429198, Note_off_c, 5, 65, 127
2, 429203, Note_on_c, 4, 64, 127
2, 429203, Note_on_c, 0, 72, 127
2, 429549, Note_off_c, 10, 69, 127
2, 429558, Note_off_c, 0, 72, 127
2, 429558, Note_off_c, 4, 64, 127
2, 429558, Note_off_c, 5, 53, 127
2, 429568, Note_on_c, 5, 53, 127
2, 429568, Note_on_c, 2, 62, 127
2, 429568, Note_on_c, 7, 79, 127
2, 429568, Note_on_c, 12, 71, 127
2, 429926, Note_off_c, 5, 53, 127
2, 429931, Note_on_c, 4, 52, 127
2, 430295, Note_off_c, 12, 71, 127
2, 430295, Note_off_c, 7, 79, 127
2, 430295, Note_off_c, 2, 62, 127
2, 430311, Note_off_c, 4, 52, 127
2, 430311, Note_on_c, 7, 79, 127
2, 430311, Note_on_c, 12, 71, 127
2, 430311, Note_on_c, 7, 55, 127
2, 430311, Note_on_c, 2, 62, 127
2, 430669, Note_off_c, 7, 55, 127
2, 430674, Note_on_c, 5, 53, 127
2, 431032, Note_off_c, 5, 53, 127
2, 431037, Note_on_c, 4, 52, 127
2, 431395, Note_off_c, 4, 52, 127
2, 431400, Note_on_c, 2, 50, 127
2, 431711, Note_off_c, 12, 71, 127
2, 431711, Note_off_c, 7, 79, 127
2, 431779, Note_off_c, 2, 50, 127
2, 431791, Note_off_c, 2, 62, 127
2, 431794, Note_on_c, 11, 70, 127
2, 431794, Note_on_c, 4, 52, 127
2, 432152, Note_off_c, 11, 70, 127
2, 432157, Note_on_c, 10, 69, 127
2, 432515, Note_off_c, 10, 69, 127
2, 432520, Note_on_c, 11, 70, 127
2, 432878, Note_off_c, 11, 70, 127
2, 432883, Note_on_c, 7, 79, 127
2, 433241, Note_off_c, 7, 79, 127
2, 433243, Note_off_c, 4, 52, 127
2, 433244, Note_on_c, 4, 76, 127
2, 433602, Note_off_c, 4, 76, 127
2, 433607, Note_on_c, 11, 70, 127
2, 433965, Note_off_c, 11, 70, 127
2, 433970, Note_on_c, 10, 69, 127
2, 433970, Note_on_c, 5, 53, 127
2, 434328, Note_off_c, 10, 69, 127
2, 434333, Note_on_c, 7, 67, 127
2, 434691, Note_off_c, 7, 67, 127
2, 434696, Note_on_c, 10, 69, 127
2, 435054, Note_off_c, 10, 69, 127
2, 435059, Note_on_c, 10, 81, 127
2, 435417, Note_off_c, 10, 81, 127
2, 435417, Note_off_c, 5, 53, 127
2, 435422, Note_on_c, 3, 75, 127
2, 435422, Note_on_c, 6, 54, 127
2, 435780, Note_off_c, 3, 75, 127
2, 435785, Note_on_c, 2, 74, 127
2, 436102, Note_off_c, 6, 54, 127
2, 436145, Note_off_c, 2, 74, 127
2, 436166, Note_on_c, 12, 83, 127
2, 436524, Note_off_c, 12, 83, 127
2, 436529, Note_on_c, 0, 84, 127
2, 436887, Note_off_c, 0, 84, 127
2, 436892, Note_on_c, 7, 55, 127
2, 436892, Note_on_c, 5, 77, 127
2, 436892, Note_on_c, 0, 72, 127
2, 436892, Note_on_c, 7, 67, 127
2, 437250, Note_off_c, 5, 77, 127
2, 437255, Note_on_c, 4, 76, 127
2, 437610, Note_off_c, 7, 67, 127
2, 437610, Note_off_c, 0, 72, 127
2, 437615, Note_off_c, 4, 76, 127
2, 437615, Note_off_c, 7, 55, 127
2, 437619, Note_on_c, 7, 43, 127
2, 437619, Note_on_c, 2, 74, 127
2, 437619, Note_on_c, 5, 65, 127
2, 437619, Note_on_c, 12, 71, 127
2, 437977, Note_off_c, 12, 71, 127
2, 437977, Note_off_c, 2, 74, 127
2, 437982, Note_on_c, 0, 72, 127
2, 438337, Note_off_c, 5, 65, 127
2, 438342, Note_off_c, 0, 72, 127
2, 438342, Note_off_c, 7, 43, 127
2, 438347, Note_on_c, 0, 48, 127
2, 438347, Note_on_c, 7, 67, 127
2, 438347, Note_on_c, 5, 65, 127
2, 438347, Note_on_c, 0, 72, 127
2, 438705, Note_off_c, 5, 65, 127
2, 438710, Note_on_c, 2, 62, 127
2, 439065, Note_off_c, 0, 72, 127
2, 439065, Note_off_c, 7, 67, 127
2, 439070, Note_off_c, 2, 62, 127
2, 439070, Note_off_c, 0, 48, 127
2, 439074, Note_on_c, 0, 36, 127
2, 439074, Note_on_c, 7, 67, 127
2, 439074, Note_on_c, 4, 64, 127
2, 439074, Note_on_c, 0, 72, 127
2, 440520, Note_off_c, 0, 72, 127
2, 440520, Note_off_c, 4, 64, 127
2, 440520, Note_off_c, 7, 67, 127
2, 440520, Note_off_c, 0, 36, 127
2, 440525, Note_on_c, 0, 48, 127
2, 440525, Note_on_c, 7, 67, 127
2, 440525, Note_on_c, 0, 60, 127
2, 440525, Note_on_c, 4, 64, 127
2, 440883, Note_off_c, 0, 48, 127
2, 440888, Note_on_c, 4, 52, 127
2, 441246, Note_off_c, 4, 52, 127
2, 441246, Note_off_c, 4, 64, 127
2, 441246, Note_off_c, 0, 60, 127
2, 441246, Note_off_c, 7, 67, 127
2, 441251, Note_on_c, 7, 55, 127
2, 441251, Note_on_c, 0, 60, 127
2, 441251, Note_on_c, 7, 67, 127
2, 441251, Note_on_c, 4, 64, 127
2, 441609, Note_off_c, 4, 64, 127
2, 441609, Note_off_c, 7, 67, 127
2, 441609, Note_off_c, 0, 60, 127
2, 441614, Note_on_c, 2, 62, 127
2, 441614, Note_on_c, 5, 65, 127
2, 441972, Note_off_c, 5, 65, 127
2, 441972, Note_off_c, 2, 62, 127
2, 441972, Note_off_c, 7, 55, 127
2, 441977, Note_on_c, 7, 43, 127
2, 441977, Note_on_c, 7, 55, 127
2, 441977, Note_on_c, 4, 64, 127
2, 441977, Note_on_c, 0, 60, 127
2, 442335, Note_off_c, 0, 60, 127
2, 442335, Note_off_c, 4, 64, 127
2, 442340, Note_on_c, 2, 62, 127
2, 442340, Note_on_c, 12, 59, 127
2, 442698, Note_off_c, 12, 59, 127
2, 442698, Note_off_c, 2, 62, 127
2, 442698, Note_off_c, 7, 55, 127
2, 442698, Note_off_c, 7, 43, 127
2, 442703, Note_on_c, 0, 48, 127
2, 442703, Note_on_c, 7, 55, 127
2, 442703, Note_on_c, 4, 64, 127
2, 442703, Note_on_c, 0, 60, 127
2, 443424, Note_off_c, 0, 60, 127
2, 443424, Note_off_c, 4, 64, 127
2, 443424, Note_off_c, 7, 55, 127
2, 443424, Note_off_c, 0, 48, 127
2, 443429, Note_on_c, 0, 48, 127
2, 443429, Note_on_c, 7, 55, 127
2, 443429, Note_on_c, 0, 60, 127
2, 443429, Note_on_c, 4, 64, 127
2, 443787, Note_off_c, 7, 55, 127
2, 443787, Note_off_c, 0, 48, 127
2, 443792, Note_on_c, 12, 47, 127
2, 444150, Note_off_c, 12, 47, 127
2, 444155, Note_on_c, 10, 45, 127
2, 444513, Note_off_c, 10, 45, 127
2, 444518, Note_on_c, 7, 43, 127
2, 444876, Note_off_c, 7, 43, 127
2, 444876, Note_off_c, 4, 64, 127
2, 444876, Note_off_c, 0, 60, 127
2, 444881, Note_on_c, 6, 42, 127
2, 444881, Note_on_c, 10, 57, 127
2, 444881, Note_on_c, 3, 63, 127
2, 445244, Note_on_c, 10, 69, 127
2, 445599, Note_off_c, 3, 63, 127
2, 445604, Note_off_c, 10, 69, 127
2, 445604, Note_off_c, 10, 57, 127
2, 445604, Note_off_c, 6, 42, 127
2, 445608, Note_on_c, 12, 59, 127
2, 445608, Note_on_c, 4, 40, 127
2, 445608, Note_on_c, 7, 67, 127
2, 445608, Note_on_c, 4, 64, 127
2, 445966, Note_off_c, 7, 67, 127
2, 445971, Note_on_c, 6, 66, 127
2, 446326, Note_off_c, 4, 64, 127
2, 446331, Note_off_c, 6, 66, 127
2, 446331, Note_off_c, 4, 40, 127
2, 446331, Note_off_c, 12, 59, 127
2, 446336, Note_on_c, 4, 52, 127
2, 446336, Note_on_c, 12, 59, 127
2, 446336, Note_on_c, 4, 64, 127
2, 446336, Note_on_c, 7, 67, 127
2, 446517, Note_on_c, 12, 71, 127
2, 446636, Note_off_c, 7, 67, 127
2, 446699, Note_on_c, 4, 76, 127
2, 446817, Note_off_c, 12, 71, 127
2, 447054, Note_off_c, 4, 64, 127
2, 447059, Note_off_c, 4, 76, 127
2, 447059, Note_off_c, 12, 59, 127
2, 447059, Note_off_c, 4, 52, 127
2, 447063, Note_on_c, 12, 47, 127
2, 447063, Note_on_c, 12, 59, 127
2, 447063, Note_on_c, 6, 66, 127
2, 447063, Note_on_c, 3, 75, 127
2, 447421, Note_off_c, 3, 75, 127
2, 447421, Note_off_c, 12, 59, 127
2, 447421, Note_off_c, 12, 47, 127
2, 447426, Note_on_c, 1, 61, 127
2, 447426, Note_on_c, 6, 78, 127
2, 447603, Note_off_c, 6, 78, 127
2, 447608, Note_on_c, 4, 76, 127
2, 447781, Note_off_c, 6, 66, 127
2, 447786, Note_off_c, 4, 76, 127
2, 447786, Note_off_c, 1, 61, 127
2, 447791, Note_on_c, 3, 63, 127
2, 447791, Note_on_c, 12, 59, 127
2, 447791, Note_on_c, 12, 71, 127
2, 447791, Note_on_c, 4, 76, 127
2, 448149, Note_off_c, 4, 76, 127
2, 448149, Note_off_c, 12, 59, 127
2, 448154, Note_on_c, 10, 57, 127
2, 448154, Note_on_c, 6, 78, 127
2, 448509, Note_off_c, 12, 71, 127
2, 448509, Note_off_c, 3, 63, 127
2, 448514, Note_off_c, 10, 57, 127
2, 448534, Note_on_c, 12, 71, 127
2, 448534, Note_on_c, 7, 55, 127
2, 448892, Note_off_c, 7, 55, 127
2, 448897, Note_on_c, 6, 54, 127
2, 448954, Note_off_c, 6, 78, 127
2, 449281, Note_off_c, 6, 54, 127
2, 449292, Note_on_c, 7, 79, 127
2, 449292, Note_on_c, 4, 52, 127
2, 449320, Note_off_c, 12, 71, 127
2, 449650, Note_off_c, 7, 79, 127
2, 449655, Note_on_c, 4, 76, 127
2, 450013, Note_off_c, 4, 76, 127
2, 450013, Note_off_c, 4, 52, 127
2, 450018, Note_on_c, 0, 72, 127
2, 450018, Note_on_c, 4, 64, 127
2, 450376, Note_off_c, 0, 72, 127
2, 450381, Note_on_c, 12, 71, 127
2, 450739, Note_off_c, 12, 71, 127
2, 450744, Note_on_c, 11, 70, 127
2, 450925, Note_off_c, 4, 64, 127
2, 451102, Note_off_c, 11, 70, 127
2, 451107, Note_on_c, 7, 79, 127
2, 451107, Note_on_c, 4, 52, 127
2, 451465, Note_off_c, 4, 52, 127
2, 451465, Note_off_c, 7, 79, 127
2, 451470, Note_on_c, 6, 78, 127
2, 451470, Note_on_c, 3, 51, 127
2, 451828, Note_off_c, 6, 78, 127
2, 451833, Note_on_c, 0, 72, 127
2, 452191, Note_off_c, 0, 72, 127
2, 452191, Note_off_c, 3, 51, 127
2, 452196, Note_on_c, 12, 71, 127
2, 452196, Note_on_c, 3, 63, 127
2, 452554, Note_off_c, 12, 71, 127
2, 452559, Note_on_c, 10, 69, 127
2, 452911, Note_off_c, 3, 63, 127
2, 452922, Note_on_c, 8, 68, 127
2, 452927, Note_off_c, 10, 69, 127
2, 453285, Note_on_c, 5, 77, 127
2, 453285, Note_on_c, 2, 50, 127
2, 453344, Note_off_c, 8, 68, 127
2, 453643, Note_off_c, 2, 50, 127
2, 453643, Note_off_c, 5, 77, 127
2, 453648, Note_on_c, 4, 76, 127
2, 453648, Note_on_c, 0, 48, 127
2, 454006, Note_off_c, 4, 76, 127
2, 454011, Note_on_c, 10, 81, 127
2, 454011, Note_on_c, 0, 84, 127
2, 454369, Note_off_c, 0, 84, 127
2, 454369, Note_off_c, 10, 81, 127
2, 454369, Note_off_c, 0, 48, 127
2, 454374, Note_on_c, 7, 79, 127
2, 454374, Note_on_c, 12, 83, 127
2, 454374, Note_on_c, 4, 76, 127
2, 454374, Note_on_c, 7, 43, 127
2, 454732, Note_off_c, 12, 83, 127
2, 454732, Note_off_c, 7, 79, 127
2, 454737, Note_on_c, 10, 81, 127
2, 454737, Note_on_c, 6, 78, 127
2, 455092, Note_off_c, 4, 76, 127
2, 455097, Note_off_c, 6, 78, 127
2, 455097, Note_off_c, 10, 81, 127
2, 455097, Note_off_c, 7, 43, 127
2, 455102, Note_on_c, 7, 79, 127
2, 455102, Note_on_c, 4, 76, 127
2, 455102, Note_on_c, 12, 71, 127
2, 455102, Note_on_c, 12, 47, 127
2, 455460, Note_off_c, 4, 76, 127
2, 455460, Note_off_c, 7, 79, 127
2, 455465, Note_on_c, 6, 78, 127
2, 455465, Note_on_c, 3, 75, 127
2, 455820, Note_off_c, 12, 71, 127
2, 455823, Note_off_c, 3, 75, 127
2, 455823, Note_off_c, 6, 78, 127
2, 455825, Note_off_c, 12, 47, 127
2, 455829, Note_on_c, 3, 75, 127
2, 455829, Note_on_c, 6, 78, 127
2, 455829, Note_on_c, 12, 71, 127
2, 455829, Note_on_c, 4, 40, 127
2, 456330, Note_on_c, 4, 76, 127
2, 456330, Note_on_c, 7, 79, 127
2, 456339, Note_off_c, 6, 78, 127
2, 456339, Note_off_c, 3, 75, 127
2, 456547, Note_off_c, 12, 71, 127
2, 456552, Note_off_c, 4, 40, 127
2, 456557, Note_on_c, 7, 43, 127
2, 456559, Note_on_c, 12, 71, 127
2, 456559, Note_on_c, 7, 67, 127
2, 456710, Note_off_c, 4, 76, 127
2, 456910, Note_off_c, 7, 79, 127
2, 456913, Note_on_c, 6, 78, 127
2, 457273, Note_off_c, 6, 78, 127
2, 457278, Note_off_c, 7, 43, 127
2, 457283, Note_on_c, 4, 76, 127
2, 457283, Note_on_c, 12, 47, 127
2, 458004, Note_off_c, 4, 76, 127
2, 458008, Note_off_c, 7, 67, 127
2, 458008, Note_off_c, 12, 71, 127
2, 458030, Note_off_c, 12, 47, 127
2, 458039, Note_on_c, 7, 79, 127
2, 458039, Note_on_c, 4, 52, 127
2, 458397, Note_off_c, 7, 79, 127
2, 458402, Note_on_c, 10, 81, 127
2, 458760, Note_off_c, 10, 81, 127
2, 458760, Note_off_c, 4, 52, 127
2, 458765, Note_on_c, 7, 79, 127
2, 458765, Note_on_c, 5, 53, 127
2, 459128, Note_on_c, 5, 77, 127
2, 459486, Note_off_c, 5, 77, 127
2, 459486, Note_off_c, 5, 53, 127
2, 459491, Note_on_c, 4, 76, 127
2, 459491, Note_on_c, 7, 55, 127
2, 459849, Note_off_c, 4, 76, 127
2, 459854, Note_on_c, 2, 74, 127
2, 460212, Note_off_c, 2, 74, 127
2, 460212, Note_off_c, 7, 55, 127
2, 460214, Note_off_c, 7, 79, 127
2, 460216, Note_on_c, 1, 73, 127
2, 460216, Note_on_c, 7, 79, 127
2, 460216, Note_on_c, 10, 57, 127
2, 460574, Note_off_c, 7, 79, 127
2, 460579, Note_on_c, 5, 77, 127
2, 460579, Note_on_c, 11, 70, 127
2, 460934, Note_off_c, 10, 57, 127
2, 460934, Note_off_c, 1, 73, 127
2, 460939, Note_off_c, 11, 70, 127
2, 460939, Note_off_c, 5, 77, 127
2, 460943, Note_on_c, 7, 79, 127
2, 460943, Note_on_c, 1, 73, 127
2, 460943, Note_on_c, 10, 69, 127
2, 461301, Note_off_c, 10, 69, 127
2, 461306, Note_on_c, 7, 67, 127
2, 461664, Note_off_c, 7, 67, 127
2, 461685, Note_on_c, 5, 65, 127
2, 462043, Note_off_c, 5, 65, 127
2, 462048, Note_on_c, 4, 64, 127
2, 462410, Note_off_c, 7, 79, 127
2, 462412, Note_off_c, 1, 73, 127
2, 462426, Note_on_c, 5, 77, 127
2, 462426, Note_on_c, 2, 50, 127
2, 462426, Note_on_c, 2, 62, 127
2, 462442, Note_off_c, 4, 64, 127
2, 462784, Note_off_c, 5, 77, 127
2, 462789, Note_on_c, 7, 79, 127
2, 463147, Note_off_c, 7, 79, 127
2, 463147, Note_off_c, 2, 62, 127
2, 463147, Note_off_c, 2, 50, 127
2, 463152, Note_on_c, 5, 77, 127
2, 463152, Note_on_c, 4, 52, 127
2, 463515, Note_on_c, 4, 76, 127
2, 463873, Note_off_c, 4, 76, 127
2, 463873, Note_off_c, 4, 52, 127
2, 463878, Note_on_c, 2, 74, 127
2, 463878, Note_on_c, 5, 53, 127
2, 464236, Note_off_c, 2, 74, 127
2, 464241, Note_on_c, 0, 72, 127
2, 464599, Note_off_c, 0, 72, 127
2, 464599, Note_off_c, 5, 53, 127
2, 464601, Note_off_c, 5, 77, 127
2, 464602, Note_on_c, 5, 77, 127
2, 464602, Note_on_c, 12, 71, 127
2, 464602, Note_on_c, 7, 55, 127
2, 464960, Note_off_c, 5, 77, 127
2, 464965, Note_on_c, 10, 69, 127
2, 464965, Note_on_c, 4, 76, 127
2, 465320, Note_off_c, 7, 55, 127
2, 465320, Note_off_c, 12, 71, 127
2, 465325, Note_off_c, 4, 76, 127
2, 465325, Note_off_c, 10, 69, 127
2, 465330, Note_on_c, 5, 77, 127
2, 465330, Note_on_c, 12, 71, 127
2, 465330, Note_on_c, 7, 67, 127
2, 465688, Note_off_c, 7, 67, 127
2, 465693, Note_on_c, 5, 65, 127
2, 466051, Note_off_c, 5, 65, 127
2, 466072, Note_on_c, 4, 64, 127
2, 466430, Note_off_c, 4, 64, 127
2, 466435, Note_on_c, 2, 62, 127
2, 466793, Note_off_c, 2, 62, 127
2, 466810, Note_off_c, 12, 71, 127
2, 466810, Note_off_c, 5, 77, 127
2, 466812, Note_on_c, 0, 72, 127
2, 466812, Note_on_c, 4, 76, 127
2, 466812, Note_on_c, 0, 60, 127
2, 467170, Note_off_c, 0, 60, 127
2, 467170, Note_off_c, 4, 76, 127
2, 467175, Note_on_c, 2, 74, 127
2, 467175, Note_on_c, 12, 59, 127
2, 467533, Note_off_c, 12, 59, 127
2, 467533, Note_off_c, 2, 74, 127
2, 467538, Note_on_c, 5, 77, 127
2, 467538, Note_on_c, 10, 57, 127
2, 467896, Note_off_c, 10, 57, 127
2, 467896, Note_off_c, 5, 77, 127
2, 467901, Note_on_c, 4, 76, 127
2, 467901, Note_on_c, 7, 55, 127
2, 468259, Note_off_c, 7, 55, 127
2, 468259, Note_off_c, 4, 76, 127
2, 468261, Note_off_c, 0, 72, 127
2, 468263, Note_on_c, 0, 72, 127
2, 468263, Note_on_c, 10, 81, 127
2, 468263, Note_on_c, 5, 53, 127
2, 468621, Note_off_c, 5, 53, 127
2, 468621, Note_off_c, 10, 81, 127
2, 468621, Note_off_c, 0, 72, 127
2, 468626, Note_on_c, 7, 79, 127
2, 468626, Note_on_c, 4, 52, 127
2, 468984, Note_off_c, 4, 52, 127
2, 468984, Note_off_c, 7, 79, 127
2, 468989, Note_on_c, 5, 77, 127
2, 468989, Note_on_c, 11, 82, 127
2, 468989, Note_on_c, 2, 50, 127
2, 469347, Note_off_c, 2, 50, 127
2, 469347, Note_off_c, 11, 82, 127
2, 469347, Note_off_c, 5, 77, 127
2, 469352, Note_on_c, 4, 76, 127
2, 469352, Note_on_c, 10, 81, 127
2, 469352, Note_on_c, 0, 48, 127
2, 469710, Note_off_c, 0, 48, 127
2, 469710, Note_off_c, 10, 81, 127
2, 469710, Note_off_c, 4, 76, 127
2, 469715, Note_on_c, 2, 74, 127
2, 469715, Note_on_c, 8, 80, 127
2, 469715, Note_on_c, 12, 47, 127
2, 470073, Note_off_c, 12, 47, 127
2, 470073, Note_off_c, 8, 80, 127
2, 470073, Note_off_c, 2, 74, 127
2, 470078, Note_on_c, 0, 72, 127
2, 470078, Note_on_c, 10, 81, 127
2, 470078, Note_on_c, 10, 45, 127
2, 470436, Note_off_c, 10, 45, 127
2, 470436, Note_off_c, 10, 81, 127
2, 470436, Note_off_c, 0, 72, 127
2, 470441, Note_on_c, 12, 71, 127
2, 470441, Note_on_c, 5, 77, 127
2, 470441, Note_on_c, 8, 44, 127
2, 470799, Note_off_c, 8, 44, 127
2, 470799, Note_off_c, 5, 77, 127
2, 470799, Note_off_c, 12, 71, 127
2, 470804, Note_on_c, 0, 72, 127
2, 470804, Note_on_c, 4, 76, 127
2, 470804, Note_on_c, 10, 45, 127
2, 471162, Note_off_c, 10, 45, 127
2, 471183, Note_on_c, 6, 42, 127
2, 471183, Note_on_c, 10, 69, 127
2, 471183, Note_on_c, 3, 75, 127
2, 471185, Note_off_c, 4, 76, 127
2, 471185, Note_off_c, 0, 72, 127
2, 471541, Note_off_c, 3, 75, 127
2, 471546, Note_on_c, 4, 76, 127
2, 471901, Note_off_c, 10, 69, 127
2, 471906, Note_off_c, 4, 76, 127
2, 471906, Note_off_c, 6, 42, 127
2, 471910, Note_on_c, 4, 40, 127
2, 471910, Note_on_c, 4, 64, 127
2, 471910, Note_on_c, 10, 69, 127
2, 471910, Note_on_c, 2, 74, 127
2, 472268, Note_off_c, 2, 74, 127
2, 472273, Note_on_c, 0, 72, 127
2, 472633, Note_off_c, 0, 72, 127
2, 472654, Note_on_c, 2, 62, 127
2, 472654, Note_on_c, 8, 68, 127
2, 472654, Note_on_c, 12, 71, 127
2, 472654, Note_on_c, 4, 52, 127
2, 472666, Note_off_c, 10, 69, 127
2, 472666, Note_off_c, 4, 64, 127
2, 472690, Note_off_c, 4, 40, 127
2, 473012, Note_off_c, 12, 71, 127
2, 473017, Note_on_c, 10, 69, 127
2, 473372, Note_off_c, 8, 68, 127
2, 473377, Note_off_c, 10, 69, 127
2, 473389, Note_off_c, 2, 62, 127
2, 473395, Note_off_c, 4, 52, 127
2, 473397, Note_on_c, 10, 45, 127
2, 473397, Note_on_c, 4, 64, 127
2, 473397, Note_on_c, 0, 60, 127
2, 473397, Note_on_c, 10, 69, 127
2, 473808, Note_off_c, 10, 45, 127
2, 473829, Note_on_c, 0, 48, 127
2, 474033, Note_off_c, 0, 48, 127
2, 474045, Note_on_c, 4, 52, 127
2, 474225, Note_off_c, 10, 69, 127
2, 474225, Note_off_c, 0, 60, 127
2, 474225, Note_off_c, 4, 64, 127
2, 474249, Note_off_c, 4, 52, 127
2, 474262, Note_on_c, 10, 57, 127
2, 474262, Note_on_c, 4, 64, 127
2, 474262, Note_on_c, 0, 60, 127
2, 474262, Note_on_c, 10, 69, 127
2, 475962, Note_off_c, 10, 69, 127
2, 475962, Note_off_c, 0, 60, 127
2, 475962, Note_off_c, 4, 64, 127
2, 475962, Note_off_c, 10, 57, 127
2, 476088, Note_on_c, 10, 57, 127
2, 476088, Note_on_c, 10, 81, 127
2, 476259, Note_off_c, 10, 57, 127
2, 476270, Note_on_c, 12, 59, 127
2, 476431, Note_off_c, 10, 81, 127
2, 476441, Note_off_c, 12, 59, 127
2, 476450, Note_on_c, 5, 77, 127
2, 476450, Note_on_c, 0, 60, 127
2, 476534, Note_off_c, 5, 77, 127
2, 476536, Note_on_c, 4, 76, 127
2, 476619, Note_off_c, 0, 60, 127
2, 476620, Note_off_c, 4, 76, 127
2, 476621, Note_on_c, 5, 77, 127
2, 476621, Note_on_c, 10, 57, 127
2, 476705, Note_off_c, 5, 77, 127
2, 476707, Note_on_c, 4, 76, 127
2, 476790, Note_off_c, 10, 57, 127
2, 476791, Note_off_c, 4, 76, 127
2, 476792, Note_on_c, 2, 74, 127
2, 476792, Note_on_c, 0, 60, 127
2, 476963, Note_off_c, 0, 60, 127
2, 476963, Note_off_c, 2, 74, 127
2, 476965, Note_on_c, 4, 76, 127
2, 476965, Note_on_c, 10, 57, 127
2, 477136, Note_off_c, 10, 57, 127
2, 477136, Note_off_c, 4, 76, 127
2, 477137, Note_on_c, 5, 77, 127
2, 477137, Note_on_c, 2, 62, 127
2, 477308, Note_off_c, 2, 62, 127
2, 477310, Note_on_c, 10, 57, 127
2, 477480, Note_off_c, 5, 77, 127
2, 477481, Note_off_c, 10, 57, 127
2, 477482, Note_on_c, 4, 76, 127
2, 477482, Note_on_c, 2, 62, 127
2, 477653, Note_off_c, 2, 62, 127
2, 477653, Note_off_c, 4, 76, 127
2, 477655, Note_on_c, 2, 74, 127
2, 477655, Note_on_c, 10, 57, 127
2, 477826, Note_off_c, 10, 57, 127
2, 477826, Note_off_c, 2, 74, 127
2, 477827, Note_on_c, 4, 76, 127
2, 477827, Note_on_c, 0, 60, 127
2, 477998, Note_off_c, 0, 60, 127
2, 478000, Note_on_c, 10, 57, 127
2, 478170, Note_off_c, 4, 76, 127
2, 478171, Note_off_c, 10, 57, 127
2, 478172, Note_on_c, 10, 69, 127
2, 478172, Note_on_c, 2, 62, 127
2, 478343, Note_off_c, 2, 62, 127
2, 478345, Note_on_c, 10, 57, 127
2, 478515, Note_off_c, 10, 69, 127
2, 478516, Note_off_c, 10, 57, 127
2, 478517, Note_on_c, 10, 69, 127
2, 478517, Note_on_c, 0, 60, 127
2, 478688, Note_off_c, 0, 60, 127
2, 478690, Note_on_c, 10, 57, 127
2, 478860, Note_off_c, 10, 69, 127
2, 478861, Note_off_c, 10, 57, 127
2, 478862, Note_on_c, 10, 81, 127
2, 478862, Note_on_c, 12, 59, 127
2, 479033, Note_off_c, 12, 59, 127
2, 479035, Note_on_c, 10, 57, 127
2, 479205, Note_off_c, 10, 81, 127
2, 479206, Note_off_c, 10, 57, 127
2, 479207, Note_on_c, 5, 77, 127
2, 479207, Note_on_c, 0, 60, 127
2, 479291, Note_off_c, 5, 77, 127
2, 479293, Note_on_c, 4, 76, 127
2, 479376, Note_off_c, 0, 60, 127
2, 479377, Note_off_c, 4, 76, 127
2, 479378, Note_on_c, 5, 77, 127
2, 479378, Note_on_c, 10, 57, 127
2, 479462, Note_off_c, 5, 77, 127
2, 479464, Note_on_c, 4, 76, 127
2, 479547, Note_off_c, 10, 57, 127
2, 479548, Note_off_c, 4, 76, 127
2, 479549, Note_on_c, 2, 74, 127
2, 479549, Note_on_c, 0, 60, 127
2, 479720, Note_off_c, 0, 60, 127
2, 479720, Note_off_c, 2, 74, 127
2, 479722, Note_on_c, 4, 76, 127
2, 479722, Note_on_c, 10, 57, 127
2, 479893, Note_off_c, 10, 57, 127
2, 479893, Note_off_c, 4, 76, 127
2, 479894, Note_on_c, 5, 77, 127
2, 479894, Note_on_c, 2, 62, 127
2, 480065, Note_off_c, 2, 62, 127
2, 480067, Note_on_c, 10, 57, 127
2, 480237, Note_off_c, 5, 77, 127
2, 480238, Note_off_c, 10, 57, 127
2, 480239, Note_on_c, 4, 76, 127
2, 480239, Note_on_c, 2, 62, 127
2, 480410, Note_off_c, 2, 62, 127
2, 480410, Note_off_c, 4, 76, 127
2, 480412, Note_on_c, 2, 74, 127
2, 480412, Note_on_c, 10, 57, 127
2, 480583, Note_off_c, 10, 57, 127
2, 480583, Note_off_c, 2, 74, 127
2, 480584, Note_on_c, 4, 76, 127
2, 480584, Note_on_c, 0, 60, 127
2, 480755, Note_off_c, 0, 60, 127
2, 480757, Note_on_c, 10, 57, 127
2, 480927, Note_off_c, 4, 76, 127
2, 480928, Note_off_c, 10, 57, 127
2, 480929, Note_on_c, 2, 74, 127
2, 480929, Note_on_c, 0, 60, 127
2, 481100, Note_off_c, 0, 60, 127
2, 481100, Note_off_c, 2, 74, 127
2, 481102, Note_on_c, 0, 72, 127
2, 481102, Note_on_c, 10, 57, 127
2, 481273, Note_off_c, 10, 57, 127
2, 481273, Note_off_c, 0, 72, 127
2, 481274, Note_on_c, 2, 74, 127
2, 481274, Note_on_c, 12, 59, 127
2, 481445, Note_off_c, 12, 59, 127
2, 481447, Note_on_c, 10, 57, 127
2, 481617, Note_off_c, 2, 74, 127
2, 481618, Note_off_c, 10, 57, 127
2, 481619, Note_on_c, 0, 72, 127
2, 481619, Note_on_c, 12, 59, 127
2, 481790, Note_off_c, 12, 59, 127
2, 481790, Note_off_c, 0, 72, 127
2, 481792, Note_on_c, 2, 74, 127
2, 481792, Note_on_c, 10, 57, 127
2, 481963, Note_off_c, 10, 57, 127
2, 481963, Note_off_c, 2, 74, 127
2, 481964, Note_on_c, 4, 76, 127
2, 481964, Note_on_c, 8, 56, 127
2, 482135, Note_off_c, 8, 56, 127
2, 482137, Note_on_c, 12, 59, 127
2, 482307, Note_off_c, 4, 76, 127
2, 482308, Note_off_c, 12, 59, 127
2, 482309, Note_on_c, 2, 74, 127
2, 482309, Note_on_c, 6, 54, 127
2, 482480, Note_off_c, 6, 54, 127
2, 482480, Note_off_c, 2, 74, 127
2, 482482, Note_on_c, 0, 72, 127
2, 482482, Note_on_c, 12, 59, 127
2, 482653, Note_off_c, 12, 59, 127
2, 482653, Note_off_c, 0, 72, 127
2, 482654, Note_on_c, 2, 74, 127
2, 482654, Note_on_c, 8, 56, 127
2, 482825, Note_off_c, 8, 56, 127
2, 482827, Note_on_c, 12, 59, 127
2, 482997, Note_off_c, 2, 74, 127
2, 482998, Note_off_c, 12, 59, 127
2, 482999, Note_on_c, 0, 72, 127
2, 482999, Note_on_c, 4, 52, 127
2, 483170, Note_off_c, 4, 52, 127
2, 483170, Note_off_c, 0, 72, 127
2, 483172, Note_on_c, 12, 71, 127
2, 483172, Note_on_c, 8, 56, 127
2, 483343, Note_off_c, 8, 56, 127
2, 483343, Note_off_c, 12, 71, 127
2, 483344, Note_on_c, 0, 72, 127
2, 483344, Note_on_c, 10, 57, 127
2, 483515, Note_off_c, 10, 57, 127
2, 483517, Note_on_c, 4, 52, 127
2, 483687, Note_off_c, 0, 72, 127
2, 483688, Note_off_c, 4, 52, 127
2, 483689, Note_on_c, 12, 71, 127
2, 483689, Note_on_c, 10, 57, 127
2, 483860, Note_off_c, 10, 57, 127
2, 483860, Note_off_c, 12, 71, 127
2, 483862, Note_on_c, 0, 72, 127
2, 483862, Note_on_c, 4, 52, 127
2, 484033, Note_off_c, 4, 52, 127
2, 484033, Note_off_c, 0, 72, 127
2, 484034, Note_on_c, 2, 74, 127
2, 484034, Note_on_c, 12, 59, 127
2, 484205, Note_off_c, 12, 59, 127
2, 484207, Note_on_c, 4, 52, 127
2, 484377, Note_off_c, 2, 74, 127
2, 484378, Note_off_c, 4, 52, 127
2, 484379, Note_on_c, 0, 72, 127
2, 484379, Note_on_c, 12, 59, 127
2, 484550, Note_off_c, 12, 59, 127
2, 484550, Note_off_c, 0, 72, 127
2, 484552, Note_on_c, 2, 74, 127
2, 484552, Note_on_c, 4, 52, 127
2, 484723, Note_off_c, 4, 52, 127
2, 484723, Note_off_c, 2, 74, 127
2, 484724, Note_on_c, 4, 76, 127
2, 484724, Note_on_c, 0, 60, 127
2, 484895, Note_off_c, 0, 60, 127
2, 484895, Note_off_c, 4, 76, 127
2, 484897, Note_on_c, 2, 74, 127
2, 484897, Note_on_c, 4, 52, 127
2, 485068, Note_off_c, 4, 52, 127
2, 485068, Note_off_c, 2, 74, 127
2, 485069, Note_on_c, 0, 72, 127
2, 485069, Note_on_c, 10, 57, 127
2, 485240, Note_off_c, 10, 57, 127
2, 485240, Note_off_c, 0, 72, 127
2, 485242, Note_on_c, 4, 76, 127
2, 485242, Note_on_c, 4, 52, 127
2, 485413, Note_off_c, 4, 52, 127
2, 485413, Note_off_c, 4, 76, 127
2, 485414, Note_on_c, 2, 74, 127
2, 485414, Note_on_c, 12, 59, 127
2, 485585, Note_off_c, 12, 59, 127
2, 485585, Note_off_c, 2, 74, 127
2, 485587, Note_on_c, 0, 72, 127
2, 485587, Note_on_c, 4, 52, 127
2, 485758, Note_off_c, 4, 52, 127
2, 485758, Note_off_c, 0, 72, 127
2, 485759, Note_on_c, 12, 71, 127
2, 485759, Note_on_c, 8, 56, 127
2, 485930, Note_off_c, 8, 56, 127
2, 485930, Note_off_c, 12, 71, 127
2, 485932, Note_on_c, 0, 72, 127
2, 485932, Note_on_c, 4, 52, 127
2, 486103, Note_off_c, 4, 52, 127
2, 486103, Note_off_c, 0, 72, 127
2, 486104, Note_on_c, 2, 74, 127
2, 486104, Note_on_c, 10, 57, 127
2, 486275, Note_off_c, 2, 74, 127
2, 486277, Note_on_c, 0, 72, 127
2, 486447, Note_off_c, 10, 57, 127
2, 486448, Note_off_c, 0, 72, 127
2, 486449, Note_on_c, 12, 71, 127
2, 486449, Note_on_c, 4, 52, 127
2, 486620, Note_off_c, 12, 71, 127
2, 486622, Note_on_c, 0, 72, 127
2, 486792, Note_off_c, 4, 52, 127
2, 486793, Note_off_c, 0, 72, 127
2, 486794, Note_on_c, 10, 69, 127
2, 486794, Note_on_c, 0, 48, 127
2, 486965, Note_off_c, 10, 69, 127
2, 486967, Note_on_c, 0, 72, 127
2, 487137, Note_off_c, 0, 48, 127
2, 487138, Note_off_c, 0, 72, 127
2, 487139, Note_on_c, 12, 71, 127
2, 487139, Note_on_c, 4, 52, 127
2, 487310, Note_off_c, 12, 71, 127
2, 487312, Note_on_c, 2, 74, 127
2, 487482, Note_off_c, 4, 52, 127
2, 487483, Note_off_c, 2, 74, 127
2, 487484, Note_on_c, 0, 72, 127
2, 487484, Note_on_c, 10, 45, 127
2, 487655, Note_off_c, 0, 72, 127
2, 487657, Note_on_c, 12, 71, 127
2, 487827, Note_off_c, 10, 45, 127
2, 487828, Note_off_c, 12, 71, 127
2, 487829, Note_on_c, 10, 69, 127
2, 487829, Note_on_c, 0, 48, 127
2, 488000, Note_off_c, 10, 69, 127
2, 488002, Note_on_c, 4, 76, 127
2, 488172, Note_off_c, 0, 48, 127
2, 488173, Note_off_c, 4, 76, 127
2, 488174, Note_on_c, 0, 72, 127
2, 488174, Note_on_c, 4, 52, 127
2, 488345, Note_off_c, 0, 72, 127
2, 488347, Note_on_c, 12, 71, 127
2, 488517, Note_off_c, 4, 52, 127
2, 488518, Note_off_c, 12, 71, 127
2, 488519, Note_on_c, 10, 69, 127
2, 488519, Note_on_c, 7, 55, 127
2, 488690, Note_off_c, 10, 69, 127
2, 488692, Note_on_c, 4, 76, 127
2, 488862, Note_off_c, 7, 55, 127
2, 488863, Note_off_c, 4, 76, 127
2, 488864, Note_on_c, 0, 72, 127
2, 488864, Note_on_c, 6, 54, 127
2, 489035, Note_off_c, 0, 72, 127
2, 489037, Note_on_c, 12, 71, 127
2, 489207, Note_off_c, 6, 54, 127
2, 489208, Note_off_c, 12, 71, 127
2, 489209, Note_on_c, 10, 69, 127
2, 489209, Note_on_c, 10, 57, 127
2, 489380, Note_off_c, 10, 69, 127
2, 489382, Note_on_c, 2, 74, 127
2, 489552, Note_off_c, 10, 57, 127
2, 489553, Note_off_c, 2, 74, 127
2, 489554, Note_on_c, 0, 72, 127
2, 489554, Note_on_c, 2, 50, 127
2, 489725, Note_off_c, 0, 72, 127
2, 489727, Note_on_c, 12, 71, 127
2, 489897, Note_off_c, 2, 50, 127
2, 489898, Note_off_c, 12, 71, 127
2, 489899, Note_on_c, 10, 69, 127
2, 489899, Note_on_c, 6, 54, 127
2, 490070, Note_off_c, 10, 69, 127
2, 490072, Note_on_c, 2, 74, 127
2, 490242, Note_off_c, 6, 54, 127
2, 490243, Note_off_c, 2, 74, 127
2, 490244, Note_on_c, 12, 71, 127
2, 490244, Note_on_c, 7, 43, 127
2, 490415, Note_off_c, 12, 71, 127
2, 490417, Note_on_c, 10, 69, 127
2, 490587, Note_off_c, 7, 43, 127
2, 490588, Note_off_c, 10, 69, 127
2, 490589, Note_on_c, 7, 67, 127
2, 490589, Note_on_c, 12, 47, 127
2, 490760, Note_off_c, 7, 67, 127
2, 490762, Note_on_c, 2, 74, 127
2, 490932, Note_off_c, 12, 47, 127
2, 490933, Note_off_c, 2, 74, 127
2, 490934, Note_on_c, 12, 71, 127
2, 490934, Note_on_c, 2, 50, 127
2, 491105, Note_off_c, 12, 71, 127
2, 491107, Note_on_c, 10, 69, 127
2, 491277, Note_off_c, 2, 50, 127
2, 491278, Note_off_c, 10, 69, 127
2, 491279, Note_on_c, 7, 67, 127
2, 491279, Note_on_c, 6, 54, 127
2, 491450, Note_off_c, 7, 67, 127
2, 491452, Note_on_c, 2, 74, 127
2, 491622, Note_off_c, 6, 54, 127
2, 491623, Note_off_c, 2, 74, 127
2, 491624, Note_on_c, 12, 71, 127
2, 491624, Note_on_c, 4, 52, 127
2, 491795, Note_off_c, 12, 71, 127
2, 491797, Note_on_c, 10, 69, 127
2, 491967, Note_off_c, 4, 52, 127
2, 491968, Note_off_c, 10, 69, 127
2, 491969, Note_on_c, 7, 67, 127
2, 491969, Note_on_c, 7, 55, 127
2, 492140, Note_off_c, 7, 67, 127
2, 492142, Note_on_c, 0, 72, 127
2, 492312, Note_off_c, 7, 55, 127
2, 492313, Note_off_c, 0, 72, 127
2, 492314, Note_on_c, 12, 71, 127
2, 492314, Note_on_c, 0, 48, 127
2, 492485, Note_off_c, 12, 71, 127
2, 492487, Note_on_c, 10, 69, 127
2, 492657, Note_off_c, 0, 48, 127
2, 492658, Note_off_c, 10, 69, 127
2, 492659, Note_on_c, 7, 67, 127
2, 492659, Note_on_c, 4, 52, 127
2, 492830, Note_off_c, 7, 67, 127
2, 492832, Note_on_c, 0, 72, 127
2, 493002, Note_off_c, 4, 52, 127
2, 493003, Note_off_c, 0, 72, 127
2, 493004, Note_on_c, 10, 69, 127
2, 493004, Note_on_c, 6, 42, 127
2, 493175, Note_off_c, 10, 69, 127
2, 493177, Note_on_c, 7, 67, 127
2, 493347, Note_off_c, 6, 42, 127
2, 493348, Note_off_c, 7, 67, 127
2, 493349, Note_on_c, 6, 66, 127
2, 493349, Note_on_c, 10, 45, 127
2, 493520, Note_off_c, 6, 66, 127
2, 493522, Note_on_c, 0, 72, 127
2, 493692, Note_off_c, 10, 45, 127
2, 493693, Note_off_c, 0, 72, 127
2, 493694, Note_on_c, 10, 69, 127
2, 493694, Note_on_c, 0, 48, 127
2, 493865, Note_off_c, 10, 69, 127
2, 493867, Note_on_c, 7, 67, 127
2, 494037, Note_off_c, 0, 48, 127
2, 494038, Note_off_c, 7, 67, 127
2, 494039, Note_on_c, 6, 66, 127
2, 494039, Note_on_c, 4, 52, 127
2, 494210, Note_off_c, 6, 66, 127
2, 494212, Note_on_c, 0, 72, 127
2, 494382, Note_off_c, 4, 52, 127
2, 494383, Note_off_c, 0, 72, 127
2, 494384, Note_on_c, 10, 69, 127
2, 494384, Note_on_c, 3, 51, 127
2, 494555, Note_off_c, 10, 69, 127
2, 494557, Note_on_c, 7, 67, 127
2, 494727, Note_off_c, 3, 51, 127
2, 494728, Note_off_c, 7, 67, 127
2, 494729, Note_on_c, 6, 66, 127
2, 494729, Note_on_c, 6, 54, 127
2, 494900, Note_off_c, 6, 66, 127
2, 494902, Note_on_c, 12, 71, 127
2, 495072, Note_off_c, 6, 54, 127
2, 495073, Note_off_c, 12, 71, 127
2, 495074, Note_on_c, 10, 69, 127
2, 495074, Note_on_c, 12, 47, 127
2, 495245, Note_off_c, 10, 69, 127
2, 495247, Note_on_c, 7, 67, 127
2, 495417, Note_off_c, 12, 47, 127
2, 495418, Note_off_c, 7, 67, 127
2, 495419, Note_on_c, 6, 66, 127
2, 495419, Note_on_c, 3, 51, 127
2, 495590, Note_off_c, 6, 66, 127
2, 495592, Note_on_c, 12, 71, 127
2, 495762, Note_off_c, 3, 51, 127
2, 495763, Note_off_c, 12, 71, 127
2, 495764, Note_on_c, 10, 69, 127
2, 495764, Note_on_c, 4, 52, 127
2, 495848, Note_off_c, 10, 69, 127
2, 495850, Note_on_c, 7, 67, 127
2, 495933, Note_off_c, 4, 52, 127
2, 495934, Note_off_c, 7, 67, 127
2, 495935, Note_on_c, 10, 69, 127
2, 495935, Note_on_c, 12, 47, 127
2, 496019, Note_off_c, 10, 69, 127
2, 496021, Note_on_c, 7, 67, 127
2, 496104, Note_off_c, 12, 47, 127
2, 496105, Note_off_c, 7, 67, 127
2, 496106, Note_on_c, 6, 66, 127
2, 496106, Note_on_c, 4, 52, 127
2, 496277, Note_off_c, 4, 52, 127
2, 496277, Note_off_c, 6, 66, 127
2, 496279, Note_on_c, 7, 67, 127
2, 496279, Note_on_c, 12, 47, 127
2, 496450, Note_off_c, 12, 47, 127
2, 496450, Note_off_c, 7, 67, 127
2, 496451, Note_on_c, 10, 69, 127
2, 496451, Note_on_c, 3, 51, 127
2, 496622, Note_off_c, 3, 51, 127
2, 496624, Note_on_c, 12, 47, 127
2, 496794, Note_off_c, 10, 69, 127
2, 496795, Note_off_c, 12, 47, 127
2, 496796, Note_on_c, 7, 67, 127
2, 496796, Note_on_c, 3, 51, 127
2, 496967, Note_off_c, 3, 51, 127
2, 496967, Note_off_c, 7, 67, 127
2, 496969, Note_on_c, 6, 66, 127
2, 496969, Note_on_c, 12, 47, 127
2, 497140, Note_off_c, 12, 47, 127
2, 497140, Note_off_c, 6, 66, 127
2, 497141, Note_on_c, 7, 67, 127
2, 497141, Note_on_c, 4, 52, 127
2, 497312, Note_off_c, 7, 67, 127
2, 497314, Note_on_c, 6, 66, 127
2, 497484, Note_off_c, 4, 52, 127
2, 497485, Note_off_c, 6, 66, 127
2, 497486, Note_on_c, 4, 64, 127
2, 497486, Note_on_c, 12, 47, 127
2, 497657, Note_off_c, 4, 64, 127
2, 497659, Note_on_c, 6, 66, 127
2, 497829, Note_off_c, 12, 47, 127
2, 497830, Note_off_c, 6, 66, 127
2, 497831, Note_on_c, 7, 67, 127
2, 497831, Note_on_c, 4, 40, 127
2, 498002, Note_off_c, 7, 67, 127
2, 498004, Note_on_c, 10, 69, 127
2, 498174, Note_off_c, 4, 40, 127
2, 498175, Note_off_c, 10, 69, 127
2, 498176, Note_on_c, 12, 71, 127
2, 498176, Note_on_c, 3, 51, 127
2, 498347, Note_off_c, 12, 71, 127
2, 498349, Note_on_c, 6, 66, 127
2, 498519, Note_off_c, 3, 51, 127
2, 498520, Note_off_c, 6, 66, 127
2, 498521, Note_on_c, 7, 67, 127
2, 498521, Note_on_c, 4, 52, 127
2, 498692, Note_off_c, 4, 52, 127
2, 498692, Note_off_c, 7, 67, 127
2, 498694, Note_on_c, 10, 69, 127
2, 498694, Note_on_c, 12, 47, 127
2, 498865, Note_off_c, 12, 47, 127
2, 498865, Note_off_c, 10, 69, 127
2, 498866, Note_on_c, 6, 66, 127
2, 498866, Note_on_c, 4, 52, 127
2, 499037, Note_off_c, 4, 52, 127
2, 499037, Note_off_c, 6, 66, 127
2, 499039, Note_on_c, 7, 67, 127
2, 499039, Note_on_c, 12, 47, 127
2, 499210, Note_off_c, 12, 47, 127
2, 499210, Note_off_c, 7, 67, 127
2, 499211, Note_on_c, 10, 69, 127
2, 499211, Note_on_c, 3, 51, 127
2, 499382, Note_off_c, 3, 51, 127
2, 499382, Note_off_c, 10, 69, 127
2, 499384, Note_on_c, 6, 66, 127
2, 499384, Note_on_c, 12, 47, 127
2, 499555, Note_off_c, 12, 47, 127
2, 499555, Note_off_c, 6, 66, 127
2, 499556, Note_on_c, 7, 67, 127
2, 499556, Note_on_c, 3, 51, 127
2, 499727, Note_off_c, 3, 51, 127
2, 499727, Note_off_c, 7, 67, 127
2, 499729, Note_on_c, 10, 69, 127
2, 499729, Note_on_c, 12, 47, 127
2, 499900, Note_off_c, 12, 47, 127
2, 499900, Note_off_c, 10, 69, 127
2, 499901, Note_on_c, 7, 67, 127
2, 499901, Note_on_c, 4, 52, 127
2, 500072, Note_off_c, 7, 67, 127
2, 500074, Note_on_c, 4, 64, 127
2, 500244, Note_off_c, 4, 52, 127
2, 500245, Note_off_c, 4, 64, 127
2, 500246, Note_on_c, 7, 67, 127
2, 500246, Note_on_c, 12, 47, 127
2, 500417, Note_off_c, 7, 67, 127
2, 500419, Note_on_c, 12, 71, 127
2, 500589, Note_off_c, 12, 47, 127
2, 500590, Note_off_c, 12, 71, 127
2, 500591, Note_on_c, 7, 67, 127
2, 500591, Note_on_c, 4, 52, 127
2, 500762, Note_off_c, 7, 67, 127
2, 500764, Note_on_c, 12, 71, 127
2, 500934, Note_off_c, 4, 52, 127
2, 500935, Note_off_c, 12, 71, 127
2, 500936, Note_on_c, 4, 76, 127
2, 500936, Note_on_c, 7, 55, 127
2, 501107, Note_off_c, 4, 76, 127
2, 501109, Note_on_c, 12, 71, 127
2, 501279, Note_off_c, 7, 55, 127
2, 501280, Note_off_c, 12, 71, 127
2, 501281, Note_on_c, 4, 76, 127
2, 501281, Note_on_c, 4, 52, 127
2, 501452, Note_off_c, 4, 76, 127
2, 501454, Note_on_c, 7, 79, 127
2, 501624, Note_off_c, 4, 52, 127
2, 501625, Note_off_c, 7, 79, 127
2, 501626, Note_on_c, 4, 76, 127
2, 501626, Note_on_c, 7, 55, 127
2, 501797, Note_off_c, 4, 76, 127
2, 501799, Note_on_c, 7, 79, 127
2, 501969, Note_off_c, 7, 55, 127
2, 501970, Note_off_c, 7, 79, 127
2, 501971, Note_on_c, 10, 81, 127
2, 501971, Note_on_c, 12, 59, 127
2, 502142, Note_off_c, 10, 81, 127
2, 502144, Note_on_c, 7, 79, 127
2, 502314, Note_off_c, 12, 59, 127
2, 502315, Note_off_c, 7, 79, 127
2, 502316, Note_on_c, 6, 78, 127
2, 502316, Note_on_c, 4, 64, 127
2, 502487, Note_off_c, 6, 78, 127
2, 502489, Note_on_c, 4, 76, 127
2, 502659, Note_off_c, 4, 64, 127
2, 502660, Note_off_c, 4, 76, 127
2, 502661, Note_on_c, 6, 78, 127
2, 502661, Note_on_c, 3, 63, 127
2, 502832, Note_off_c, 6, 78, 127
2, 502834, Note_on_c, 4, 76, 127
2, 503004, Note_off_c, 3, 63, 127
2, 503005, Note_off_c, 4, 76, 127
2, 503006, Note_on_c, 3, 75, 127
2, 503006, Note_on_c, 12, 59, 127
2, 503179, Note_on_c, 12, 83, 127
2, 503196, Note_off_c, 3, 75, 127
2, 503349, Note_off_c, 12, 59, 127
2, 503350, Note_off_c, 12, 83, 127
2, 503351, Note_on_c, 6, 78, 127
2, 503351, Note_on_c, 3, 63, 127
2, 503522, Note_off_c, 6, 78, 127
2, 503524, Note_on_c, 4, 76, 127
2, 503694, Note_off_c, 3, 63, 127
2, 503695, Note_off_c, 4, 76, 127
2, 503696, Note_on_c, 3, 75, 127
2, 503696, Note_on_c, 12, 59, 127
2, 503869, Note_on_c, 12, 83, 127
2, 503886, Note_off_c, 3, 75, 127
2, 504039, Note_off_c, 12, 59, 127
2, 504040, Note_off_c, 12, 83, 127
2, 504041, Note_on_c, 7, 79, 127
2, 504041, Note_on_c, 4, 64, 127
2, 504212, Note_off_c, 7, 79, 127
2, 504214, Note_on_c, 6, 78, 127
2, 504384, Note_off_c, 4, 64, 127
2, 504385, Note_off_c, 6, 78, 127
2, 504386, Note_on_c, 4, 76, 127
2, 504386, Note_on_c, 12, 59, 127
2, 504559, Note_on_c, 12, 83, 127
2, 504576, Note_off_c, 4, 76, 127
2, 504729, Note_off_c, 12, 59, 127
2, 504730, Note_off_c, 12, 83, 127
2, 504731, Note_on_c, 7, 79, 127
2, 504731, Note_on_c, 4, 52, 127
2, 504902, Note_off_c, 7, 79, 127
2, 504904, Note_on_c, 6, 78, 127
2, 505074, Note_off_c, 4, 52, 127
2, 505075, Note_off_c, 6, 78, 127
2, 505076, Note_on_c, 4, 76, 127
2, 505076, Note_on_c, 7, 55, 127
2, 505249, Note_on_c, 12, 83, 127
2, 505256, Note_off_c, 4, 76, 127
2, 505419, Note_off_c, 7, 55, 127
2, 505420, Note_off_c, 12, 83, 127
2, 505421, Note_on_c, 3, 75, 127
2, 505421, Note_on_c, 10, 57, 127
2, 505592, Note_off_c, 3, 75, 127
2, 505594, Note_on_c, 1, 73, 127
2, 505764, Note_off_c, 10, 57, 127
2, 505765, Note_off_c, 1, 73, 127
2, 505766, Note_on_c, 12, 71, 127
2, 505766, Note_on_c, 7, 55, 127
2, 505937, Note_off_c, 12, 71, 127
2, 505939, Note_on_c, 12, 83, 127
2, 506109, Note_off_c, 7, 55, 127
2, 506110, Note_off_c, 12, 83, 127
2, 506111, Note_on_c, 3, 75, 127
2, 506111, Note_on_c, 10, 57, 127
2, 506282, Note_off_c, 3, 75, 127
2, 506284, Note_on_c, 1, 73, 127
2, 506454, Note_off_c, 10, 57, 127
2, 506455, Note_off_c, 1, 73, 127
2, 506456, Note_on_c, 12, 71, 127
2, 506456, Note_on_c, 6, 54, 127
2, 506627, Note_off_c, 12, 71, 127
2, 506629, Note_on_c, 3, 75, 127
2, 506799, Note_off_c, 6, 54, 127
2, 506800, Note_off_c, 3, 75, 127
2, 506801, Note_on_c, 4, 76, 127
2, 506801, Note_on_c, 7, 55, 127
2, 507144, Note_off_c, 7, 55, 127
2, 507144, Note_off_c, 4, 76, 127
2, 507146, Note_on_c, 6, 78, 127
2, 507146, Note_on_c, 10, 57, 127
2, 507489, Note_off_c, 10, 57, 127
2, 507489, Note_off_c, 6, 78, 127
2, 507491, Note_on_c, 12, 71, 127
2, 507491, Note_on_c, 12, 59, 127
2, 507834, Note_off_c, 12, 59, 127
2, 507834, Note_off_c, 12, 71, 127
2, 507836, Note_on_c, 3, 75, 127
2, 507836, Note_on_c, 12, 47, 127
2, 508179, Note_off_c, 12, 47, 127
2, 508179, Note_off_c, 3, 75, 127
2, 508181, Note_on_c, 4, 76, 127
2, 508181, Note_on_c, 4, 52, 127
2, 508524, Note_off_c, 4, 52, 127
2, 508526, Note_on_c, 12, 47, 127
2, 508869, Note_off_c, 12, 47, 127
2, 508871, Note_on_c, 4, 40, 127
2, 509214, Note_off_c, 4, 40, 127
2, 509214, Note_off_c, 4, 76, 127
2, 509216, Note_on_c, 12, 71, 127
2, 509216, Note_on_c, 4, 52, 127
2, 509387, Note_off_c, 4, 52, 127
2, 509389, Note_on_c, 6, 54, 127
2, 509559, Note_off_c, 12, 71, 127
2, 509560, Note_off_c, 6, 54, 127
2, 509561, Note_on_c, 0, 72, 127
2, 509561, Note_on_c, 8, 56, 127
2, 509645, Note_off_c, 0, 72, 127
2, 509647, Note_on_c, 12, 71, 127
2, 509730, Note_off_c, 8, 56, 127
2, 509731, Note_off_c, 12, 71, 127
2, 509732, Note_on_c, 0, 72, 127
2, 509732, Note_on_c, 4, 52, 127
2, 509816, Note_off_c, 0, 72, 127
2, 509818, Note_on_c, 12, 71, 127
2, 509901, Note_off_c, 4, 52, 127
2, 509902, Note_off_c, 12, 71, 127
2, 509903, Note_on_c, 10, 69, 127
2, 509903, Note_on_c, 8, 56, 127
2, 510074, Note_off_c, 8, 56, 127
2, 510074, Note_off_c, 10, 69, 127
2, 510076, Note_on_c, 12, 71, 127
2, 510076, Note_on_c, 4, 52, 127
2, 510247, Note_off_c, 4, 52, 127
2, 510247, Note_off_c, 12, 71, 127
2, 510248, Note_on_c, 0, 72, 127
2, 510248, Note_on_c, 10, 57, 127
2, 510419, Note_off_c, 10, 57, 127
2, 510421, Note_on_c, 4, 52, 127
2, 510591, Note_off_c, 0, 72, 127
2, 510592, Note_off_c, 4, 52, 127
2, 510593, Note_on_c, 12, 71, 127
2, 510593, Note_on_c, 10, 57, 127
2, 510764, Note_off_c, 10, 57, 127
2, 510764, Note_off_c, 12, 71, 127
2, 510766, Note_on_c, 0, 72, 127
2, 510766, Note_on_c, 4, 52, 127
2, 510937, Note_off_c, 4, 52, 127
2, 510937, Note_off_c, 0, 72, 127
2, 510938, Note_on_c, 2, 74, 127
2, 510938, Note_on_c, 12, 59, 127
2, 511109, Note_off_c, 12, 59, 127
2, 511111, Note_on_c, 4, 52, 127
2, 511281, Note_off_c, 2, 74, 127
2, 511282, Note_off_c, 4, 52, 127
2, 511283, Note_on_c, 0, 72, 127
2, 511283, Note_on_c, 12, 59, 127
2, 511454, Note_off_c, 12, 59, 127
2, 511454, Note_off_c, 0, 72, 127
2, 511456, Note_on_c, 12, 71, 127
2, 511456, Note_on_c, 4, 52, 127
2, 511627, Note_off_c, 4, 52, 127
2, 511627, Note_off_c, 12, 71, 127
2, 511628, Note_on_c, 10, 69, 127
2, 511628, Note_on_c, 0, 60, 127
2, 511799, Note_off_c, 0, 60, 127
2, 511799, Note_off_c, 10, 69, 127
2, 511801, Note_on_c, 8, 68, 127
2, 511801, Note_on_c, 4, 52, 127
2, 511972, Note_off_c, 4, 52, 127
2, 511972, Note_off_c, 8, 68, 127
2, 511973, Note_on_c, 5, 77, 127
2, 511973, Note_on_c, 2, 62, 127
2, 512144, Note_off_c, 2, 62, 127
2, 512146, Note_on_c, 4, 52, 127
2, 512316, Note_off_c, 5, 77, 127
2, 512317, Note_off_c, 4, 52, 127
2, 512318, Note_on_c, 4, 76, 127
2, 512318, Note_on_c, 0, 60, 127
2, 512489, Note_off_c, 0, 60, 127
2, 512491, Note_on_c, 4, 52, 127
2, 512661, Note_off_c, 4, 76, 127
2, 512662, Note_off_c, 4, 52, 127
2, 512663, Note_on_c, 2, 74, 127
2, 512663, Note_on_c, 10, 57, 127
2, 512834, Note_off_c, 10, 57, 127
2, 512834, Note_off_c, 2, 74, 127
2, 512836, Note_on_c, 0, 72, 127
2, 512836, Note_on_c, 4, 52, 127
2, 513007, Note_off_c, 4, 52, 127
2, 513007, Note_off_c, 0, 72, 127
2, 513008, Note_on_c, 2, 74, 127
2, 513008, Note_on_c, 12, 59, 127
2, 513179, Note_off_c, 12, 59, 127
2, 513181, Note_on_c, 4, 52, 127
2, 513351, Note_off_c, 2, 74, 127
2, 513352, Note_off_c, 4, 52, 127
2, 513353, Note_on_c, 0, 72, 127
2, 513353, Note_on_c, 8, 56, 127
2, 513524, Note_off_c, 8, 56, 127
2, 513524, Note_off_c, 0, 72, 127
2, 513526, Note_on_c, 12, 71, 127
2, 513526, Note_on_c, 4, 52, 127
2, 513697, Note_off_c, 4, 52, 127
2, 513697, Note_off_c, 12, 71, 127
2, 513698, Note_on_c, 2, 74, 127
2, 513698, Note_on_c, 10, 57, 127
2, 513869, Note_off_c, 2, 74, 127
2, 513871, Note_on_c, 0, 72, 127
2, 514041, Note_off_c, 10, 57, 127
2, 514042, Note_off_c, 0, 72, 127
2, 514043, Note_on_c, 12, 71, 127
2, 514043, Note_on_c, 4, 52, 127
2, 514214, Note_off_c, 12, 71, 127
2, 514216, Note_on_c, 0, 72, 127
2, 514386, Note_off_c, 4, 52, 127
2, 514387, Note_off_c, 0, 72, 127
2, 514388, Note_on_c, 10, 69, 127
2, 514388, Note_on_c, 10, 45, 127
2, 514559, Note_off_c, 10, 45, 127
2, 514559, Note_off_c, 10, 69, 127
2, 514561, Note_on_c, 12, 71, 127
2, 514561, Note_on_c, 4, 52, 127
2, 514732, Note_off_c, 4, 52, 127
2, 514732, Note_off_c, 12, 71, 127
2, 514733, Note_on_c, 0, 72, 127
2, 514733, Note_on_c, 10, 57, 127
2, 514904, Note_off_c, 10, 57, 127
2, 514904, Note_off_c, 0, 72, 127
2, 514906, Note_on_c, 2, 74, 127
2, 514906, Note_on_c, 12, 59, 127
2, 515077, Note_off_c, 12, 59, 127
2, 515077, Note_off_c, 2, 74, 127
2, 515078, Note_on_c, 4, 76, 127
2, 515078, Note_on_c, 1, 61, 127
2, 515249, Note_off_c, 1, 61, 127
2, 515249, Note_off_c, 4, 76, 127
2, 515251, Note_on_c, 5, 77, 127
2, 515251, Note_on_c, 10, 57, 127
2, 515422, Note_off_c, 10, 57, 127
2, 515422, Note_off_c, 5, 77, 127
2, 515423, Note_on_c, 2, 74, 127
2, 515423, Note_on_c, 1, 61, 127
2, 515594, Note_off_c, 1, 61, 127
2, 515594, Note_off_c, 2, 74, 127
2, 515596, Note_on_c, 4, 76, 127
2, 515596, Note_on_c, 10, 57, 127
2, 515767, Note_off_c, 10, 57, 127
2, 515767, Note_off_c, 4, 76, 127
2, 515768, Note_on_c, 5, 77, 127
2, 515768, Note_on_c, 2, 62, 127
2, 515939, Note_off_c, 2, 62, 127
2, 515939, Note_off_c, 5, 77, 127
2, 515941, Note_on_c, 7, 79, 127
2, 515941, Note_on_c, 10, 57, 127
2, 516112, Note_off_c, 10, 57, 127
2, 516112, Note_off_c, 7, 79, 127
2, 516113, Note_on_c, 4, 76, 127
2, 516113, Note_on_c, 2, 62, 127
2, 516284, Note_off_c, 2, 62, 127
2, 516284, Note_off_c, 4, 76, 127
2, 516286, Note_on_c, 5, 77, 127
2, 516286, Note_on_c, 10, 57, 127
2, 516457, Note_off_c, 10, 57, 127
2, 516457, Note_off_c, 5, 77, 127
2, 516458, Note_on_c, 7, 79, 127
2, 516458, Note_on_c, 4, 64, 127
2, 516629, Note_off_c, 4, 64, 127
2, 516629, Note_off_c, 7, 79, 127
2, 516631, Note_on_c, 10, 81, 127
2, 516631, Note_on_c, 10, 57, 127
2, 516802, Note_off_c, 10, 57, 127
2, 516802, Note_off_c, 10, 81, 127
2, 516803, Note_on_c, 7, 79, 127
2, 516803, Note_on_c, 4, 64, 127
2, 516974, Note_off_c, 4, 64, 127
2, 516974, Note_off_c, 7, 79, 127
2, 516976, Note_on_c, 5, 77, 127
2, 516976, Note_on_c, 10, 57, 127
2, 517147, Note_off_c, 10, 57, 127
2, 517147, Note_off_c, 5, 77, 127
2, 517148, Note_on_c, 4, 76, 127
2, 517148, Note_on_c, 5, 65, 127
2, 517319, Note_off_c, 5, 65, 127
2, 517319, Note_off_c, 4, 76, 127
2, 517321, Note_on_c, 2, 74, 127
2, 517321, Note_on_c, 10, 57, 127
2, 517492, Note_off_c, 10, 57, 127
2, 517492, Note_off_c, 2, 74, 127
2, 517493, Note_on_c, 1, 73, 127
2, 517493, Note_on_c, 7, 67, 127
2, 517664, Note_off_c, 7, 67, 127
2, 517664, Note_off_c, 1, 73, 127
2, 517666, Note_on_c, 11, 82, 127
2, 517666, Note_on_c, 10, 57, 127
2, 517837, Note_off_c, 10, 57, 127
2, 517837, Note_off_c, 11, 82, 127
2, 517838, Note_on_c, 10, 81, 127
2, 517838, Note_on_c, 5, 65, 127
2, 518009, Note_off_c, 5, 65, 127
2, 518009, Note_off_c, 10, 81, 127
2, 518011, Note_on_c, 7, 79, 127
2, 518011, Note_on_c, 10, 57, 127
2, 518182, Note_off_c, 10, 57, 127
2, 518182, Note_off_c, 7, 79, 127
2, 518183, Note_on_c, 5, 77, 127
2, 518183, Note_on_c, 2, 62, 127
2, 518354, Note_off_c, 2, 62, 127
2, 518354, Note_off_c, 5, 77, 127
2, 518356, Note_on_c, 10, 81, 127
2, 518356, Note_on_c, 10, 57, 127
2, 518527, Note_off_c, 10, 57, 127
2, 518527, Note_off_c, 10, 81, 127
2, 518528, Note_on_c, 7, 79, 127
2, 518528, Note_on_c, 4, 64, 127
2, 518699, Note_off_c, 4, 64, 127
2, 518699, Note_off_c, 7, 79, 127
2, 518701, Note_on_c, 5, 77, 127
2, 518701, Note_on_c, 10, 57, 127
2, 518872, Note_off_c, 10, 57, 127
2, 518872, Note_off_c, 5, 77, 127
2, 518873, Note_on_c, 4, 76, 127
2, 518873, Note_on_c, 1, 61, 127
2, 519044, Note_off_c, 1, 61, 127
2, 519044, Note_off_c, 4, 76, 127
2, 519046, Note_on_c, 5, 77, 127
2, 519046, Note_on_c, 10, 57, 127
2, 519217, Note_off_c, 10, 57, 127
2, 519217, Note_off_c, 5, 77, 127
2, 519218, Note_on_c, 7, 79, 127
2, 519218, Note_on_c, 2, 62, 127
2, 519389, Note_off_c, 7, 79, 127
2, 519391, Note_on_c, 5, 77, 127
2, 519561, Note_off_c, 2, 62, 127
2, 519562, Note_off_c, 5, 77, 127
2, 519563, Note_on_c, 4, 76, 127
2, 519563, Note_on_c, 10, 57, 127
2, 519734, Note_off_c, 4, 76, 127
2, 519736, Note_on_c, 5, 77, 127
2, 519906, Note_off_c, 10, 57, 127
2, 519907, Note_off_c, 5, 77, 127
2, 519908, Note_on_c, 2, 74, 127
2, 519908, Note_on_c, 5, 53, 127
2, 520079, Note_off_c, 2, 74, 127
2, 520081, Note_on_c, 5, 77, 127
2, 520251, Note_off_c, 5, 53, 127
2, 520252, Note_off_c, 5, 77, 127
2, 520253, Note_on_c, 4, 76, 127
2, 520253, Note_on_c, 10, 57, 127
2, 520424, Note_off_c, 4, 76, 127
2, 520426, Note_on_c, 7, 79, 127
2, 520596, Note_off_c, 10, 57, 127
2, 520597, Note_off_c, 7, 79, 127
2, 520598, Note_on_c, 5, 77, 127
2, 520598, Note_on_c, 2, 50, 127
2, 520769, Note_off_c, 5, 77, 127
2, 520771, Note_on_c, 4, 76, 127
2, 520941, Note_off_c, 2, 50, 127
2, 520942, Note_off_c, 4, 76, 127
2, 520943, Note_on_c, 2, 74, 127
2, 520943, Note_on_c, 2, 38, 127
2, 521114, Note_off_c, 2, 74, 127
2, 521116, Note_on_c, 10, 81, 127
2, 521286, Note_off_c, 2, 38, 127
2, 521287, Note_off_c, 10, 81, 127
2, 521288, Note_on_c, 5, 77, 127
2, 521288, Note_on_c, 4, 40, 127
2, 521459, Note_off_c, 5, 77, 127
2, 521461, Note_on_c, 4, 76, 127
2, 521631, Note_off_c, 4, 40, 127
2, 521632, Note_off_c, 4, 76, 127
2, 521633, Note_on_c, 2, 74, 127
2, 521633, Note_on_c, 5, 41, 127
2, 521804, Note_off_c, 2, 74, 127
2, 521806, Note_on_c, 0, 72, 127
2, 521976, Note_off_c, 5, 41, 127
2, 521977, Note_off_c, 0, 72, 127
2, 521978, Note_on_c, 11, 70, 127
2, 521978, Note_on_c, 7, 43, 127
2, 522149, Note_off_c, 11, 70, 127
2, 522151, Note_on_c, 10, 69, 127
2, 522321, Note_off_c, 7, 43, 127
2, 522322, Note_off_c, 10, 69, 127
2, 522323, Note_on_c, 7, 67, 127
2, 522323, Note_on_c, 7, 55, 127
2, 522494, Note_off_c, 7, 67, 127
2, 522496, Note_on_c, 2, 74, 127
2, 522666, Note_off_c, 7, 55, 127
2, 522667, Note_off_c, 2, 74, 127
2, 522668, Note_on_c, 11, 70, 127
2, 522668, Note_on_c, 10, 57, 127
2, 522839, Note_off_c, 11, 70, 127
2, 522841, Note_on_c, 10, 69, 127
2, 523011, Note_off_c, 10, 57, 127
2, 523012, Note_off_c, 10, 69, 127
2, 523013, Note_on_c, 7, 67, 127
2, 523013, Note_on_c, 11, 58, 127
2, 523184, Note_off_c, 7, 67, 127
2, 523186, Note_on_c, 5, 77, 127
2, 523356, Note_off_c, 11, 58, 127
2, 523357, Note_off_c, 5, 77, 127
2, 523358, Note_on_c, 4, 76, 127
2, 523358, Note_on_c, 0, 60, 127
2, 523529, Note_off_c, 4, 76, 127
2, 523531, Note_on_c, 2, 74, 127
2, 523701, Note_off_c, 0, 60, 127
2, 523702, Note_off_c, 2, 74, 127
2, 523703, Note_on_c, 0, 72, 127
2, 523703, Note_on_c, 0, 36, 127
2, 523874, Note_off_c, 0, 72, 127
2, 523876, Note_on_c, 7, 79, 127
2, 524046, Note_off_c, 0, 36, 127
2, 524047, Note_off_c, 7, 79, 127
2, 524048, Note_on_c, 4, 76, 127
2, 524048, Note_on_c, 2, 38, 127
2, 524219, Note_off_c, 4, 76, 127
2, 524221, Note_on_c, 2, 74, 127
2, 524391, Note_off_c, 2, 38, 127
2, 524392, Note_off_c, 2, 74, 127
2, 524393, Note_on_c, 0, 72, 127
2, 524393, Note_on_c, 4, 40, 127
2, 524564, Note_off_c, 0, 72, 127
2, 524566, Note_on_c, 11, 70, 127
2, 524736, Note_off_c, 4, 40, 127
2, 524737, Note_off_c, 11, 70, 127
2, 524738, Note_on_c, 10, 69, 127
2, 524738, Note_on_c, 5, 41, 127
2, 524909, Note_off_c, 10, 69, 127
2, 524911, Note_on_c, 7, 67, 127
2, 525081, Note_off_c, 5, 41, 127
2, 525082, Note_off_c, 7, 67, 127
2, 525083, Note_on_c, 5, 65, 127
2, 525083, Note_on_c, 0, 48, 127
2, 525254, Note_off_c, 5, 65, 127
2, 525256, Note_on_c, 0, 72, 127
2, 525426, Note_off_c, 0, 48, 127
2, 525427, Note_off_c, 0, 72, 127
2, 525428, Note_on_c, 10, 69, 127
2, 525428, Note_on_c, 5, 53, 127
2, 525599, Note_off_c, 10, 69, 127
2, 525601, Note_on_c, 7, 67, 127
2, 525771, Note_off_c, 5, 53, 127
2, 525772, Note_off_c, 7, 67, 127
2, 525773, Note_on_c, 5, 65, 127
2, 525773, Note_on_c, 2, 50, 127
2, 525944, Note_off_c, 5, 65, 127
2, 525946, Note_on_c, 10, 69, 127
2, 526116, Note_off_c, 2, 50, 127
2, 526117, Note_off_c, 10, 69, 127
2, 526118, Note_on_c, 11, 70, 127
2, 526118, Note_on_c, 7, 55, 127
2, 526289, Note_off_c, 11, 70, 127
2, 526291, Note_on_c, 0, 72, 127
2, 526461, Note_off_c, 7, 55, 127
2, 526462, Note_off_c, 0, 72, 127
2, 526463, Note_on_c, 2, 74, 127
2, 526463, Note_on_c, 5, 53, 127
2, 526634, Note_off_c, 2, 74, 127
2, 526636, Note_on_c, 5, 77, 127
2, 526806, Note_off_c, 5, 53, 127
2, 526807, Note_off_c, 5, 77, 127
2, 526808, Note_on_c, 4, 76, 127
2, 526808, Note_on_c, 7, 55, 127
2, 526979, Note_off_c, 4, 76, 127
2, 526981, Note_on_c, 5, 77, 127
2, 527151, Note_off_c, 7, 55, 127
2, 527152, Note_off_c, 5, 77, 127
2, 527153, Note_on_c, 7, 79, 127
2, 527153, Note_on_c, 4, 52, 127
2, 527324, Note_off_c, 7, 79, 127
2, 527326, Note_on_c, 12, 71, 127
2, 527496, Note_off_c, 4, 52, 127
2, 527497, Note_off_c, 12, 71, 127
2, 527498, Note_on_c, 1, 73, 127
2, 527498, Note_on_c, 10, 57, 127
2, 527669, Note_off_c, 1, 73, 127
2, 527671, Note_on_c, 2, 74, 127
2, 527841, Note_off_c, 10, 57, 127
2, 527842, Note_off_c, 2, 74, 127
2, 527843, Note_on_c, 4, 76, 127
2, 527843, Note_on_c, 7, 55, 127
2, 528014, Note_off_c, 4, 76, 127
2, 528016, Note_on_c, 7, 79, 127
2, 528186, Note_off_c, 7, 55, 127
2, 528187, Note_off_c, 7, 79, 127
2, 528188, Note_on_c, 5, 77, 127
2, 528188, Note_on_c, 10, 57, 127
2, 528359, Note_off_c, 5, 77, 127
2, 528361, Note_on_c, 7, 79, 127
2, 528531, Note_off_c, 10, 57, 127
2, 528532, Note_off_c, 7, 79, 127
2, 528533, Note_on_c, 10, 81, 127
2, 528533, Note_on_c, 5, 53, 127
2, 528704, Note_off_c, 10, 81, 127
2, 528706, Note_on_c, 1, 73, 127
2, 528876, Note_off_c, 5, 53, 127
2, 528877, Note_off_c, 1, 73, 127
2, 528878, Note_on_c, 4, 76, 127
2, 528878, Note_on_c, 11, 58, 127
2, 529049, Note_off_c, 4, 76, 127
2, 529051, Note_on_c, 2, 74, 127
2, 529135, Note_off_c, 2, 74, 127
2, 529136, Note_on_c, 1, 73, 127
2, 529220, Note_off_c, 1, 73, 127
2, 529220, Note_off_c, 11, 58, 127
2, 529222, Note_on_c, 2, 74, 127
2, 529222, Note_on_c, 7, 55, 127
2, 529393, Note_off_c, 2, 74, 127
2, 529394, Note_on_c, 4, 76, 127
2, 529565, Note_off_c, 4, 76, 127
2, 529565, Note_off_c, 7, 55, 127
2, 529567, Note_on_c, 5, 77, 127
2, 529567, Note_on_c, 10, 57, 127
2, 529651, Note_off_c, 5, 77, 127
2, 529652, Note_on_c, 4, 76, 127
2, 529736, Note_off_c, 4, 76, 127
2, 529738, Note_on_c, 5, 77, 127
2, 529822, Note_off_c, 5, 77, 127
2, 529823, Note_on_c, 4, 76, 127
2, 529907, Note_off_c, 4, 76, 127
2, 529907, Note_off_c, 10, 57, 127
2, 529909, Note_on_c, 5, 77, 127
2, 529909, Note_on_c, 10, 45, 127
2, 529993, Note_off_c, 5, 77, 127
2, 529994, Note_on_c, 4, 76, 127
2, 530078, Note_off_c, 4, 76, 127
2, 530080, Note_on_c, 2, 74, 127
2, 530251, Note_off_c, 2, 74, 127
2, 530251, Note_off_c, 10, 45, 127
2, 530252, Note_on_c, 2, 74, 127
2, 530252, Note_on_c, 2, 50, 127
2, 530423, Note_off_c, 2, 50, 127
2, 530425, Note_on_c, 4, 52, 127
2, 530596, Note_off_c, 4, 52, 127
2, 530597, Note_on_c, 5, 53, 127
2, 530768, Note_off_c, 5, 53, 127
2, 530770, Note_on_c, 4, 52, 127
2, 530941, Note_off_c, 4, 52, 127
2, 530942, Note_on_c, 2, 50, 127
2, 531113, Note_off_c, 2, 50, 127
2, 531115, Note_on_c, 0, 48, 127
2, 531285, Note_off_c, 2, 74, 127
2, 531286, Note_off_c, 0, 48, 127
2, 531287, Note_on_c, 2, 74, 127
2, 531287, Note_on_c, 12, 47, 127
2, 531458, Note_off_c, 12, 47, 127
2, 531458, Note_off_c, 2, 74, 127
2, 531460, Note_on_c, 4, 76, 127
2, 531460, Note_on_c, 10, 45, 127
2, 531631, Note_off_c, 10, 45, 127
2, 531631, Note_off_c, 4, 76, 127
2, 531632, Note_on_c, 5, 77, 127
2, 531632, Note_on_c, 7, 43, 127
2, 531803, Note_off_c, 7, 43, 127
2, 531805, Note_on_c, 10, 45, 127
2, 531975, Note_off_c, 5, 77, 127
2, 531976, Note_off_c, 10, 45, 127
2, 531977, Note_on_c, 2, 74, 127
2, 531977, Note_on_c, 12, 47, 127
2, 532148, Note_off_c, 12, 47, 127
2, 532148, Note_off_c, 2, 74, 127
2, 532150, Note_on_c, 4, 76, 127
2, 532150, Note_on_c, 0, 48, 127
2, 532321, Note_off_c, 0, 48, 127
2, 532321, Note_off_c, 4, 76, 127
2, 532322, Note_on_c, 5, 77, 127
2, 532322, Note_on_c, 2, 50, 127
2, 532493, Note_off_c, 2, 50, 127
2, 532495, Note_on_c, 4, 52, 127
2, 532665, Note_off_c, 5, 77, 127
2, 532666, Note_off_c, 4, 52, 127
2, 532667, Note_on_c, 4, 76, 127
2, 532667, Note_on_c, 5, 53, 127
2, 532838, Note_off_c, 5, 53, 127
2, 532838, Note_off_c, 4, 76, 127
2, 532840, Note_on_c, 2, 74, 127
2, 532840, Note_on_c, 7, 55, 127
2, 533011, Note_off_c, 7, 55, 127
2, 533011, Note_off_c, 2, 74, 127
2, 533012, Note_on_c, 4, 76, 127
2, 533012, Note_on_c, 0, 48, 127
2, 533183, Note_off_c, 0, 48, 127
2, 533185, Note_on_c, 0, 60, 127
2, 533355, Note_off_c, 4, 76, 127
2, 533356, Note_off_c, 0, 60, 127
2, 533357, Note_on_c, 2, 74, 127
2, 533357, Note_on_c, 12, 59, 127
2, 533528, Note_off_c, 12, 59, 127
2, 533528, Note_off_c, 2, 74, 127
2, 533530, Note_on_c, 0, 72, 127
2, 533530, Note_on_c, 10, 57, 127
2, 533701, Note_off_c, 10, 57, 127
2, 533701, Note_off_c, 0, 72, 127
2, 533702, Note_on_c, 2, 74, 127
2, 533702, Note_on_c, 7, 55, 127
2, 533873, Note_off_c, 7, 55, 127
2, 533875, Note_on_c, 5, 53, 127
2, 534045, Note_off_c, 2, 74, 127
2, 534046, Note_off_c, 5, 53, 127
2, 534047, Note_on_c, 0, 72, 127
2, 534047, Note_on_c, 4, 52, 127
2, 534218, Note_off_c, 4, 52, 127
2, 534218, Note_off_c, 0, 72, 127
2, 534220, Note_on_c, 2, 74, 127
2, 534220, Note_on_c, 2, 50, 127
2, 534391, Note_off_c, 2, 50, 127
2, 534391, Note_off_c, 2, 74, 127
2, 534392, Note_on_c, 4, 76, 127
2, 534392, Note_on_c, 0, 48, 127
2, 534563, Note_off_c, 0, 48, 127
2, 534565, Note_on_c, 0, 60, 127
2, 534735, Note_off_c, 4, 76, 127
2, 534736, Note_off_c, 0, 60, 127
2, 534737, Note_on_c, 2, 74, 127
2, 534737, Note_on_c, 12, 59, 127
2, 534908, Note_off_c, 12, 59, 127
2, 534908, Note_off_c, 2, 74, 127
2, 534910, Note_on_c, 0, 72, 127
2, 534910, Note_on_c, 10, 57, 127
2, 535081, Note_off_c, 10, 57, 127
2, 535081, Note_off_c, 0, 72, 127
2, 535082, Note_on_c, 2, 74, 127
2, 535082, Note_on_c, 8, 56, 127
2, 535253, Note_off_c, 8, 56, 127
2, 535255, Note_on_c, 12, 59, 127
2, 535425, Note_off_c, 2, 74, 127
2, 535426, Note_off_c, 12, 59, 127
2, 535427, Note_on_c, 0, 72, 127
2, 535427, Note_on_c, 10, 57, 127
2, 535598, Note_off_c, 10, 57, 127
2, 535598, Note_off_c, 0, 72, 127
2, 535600, Note_on_c, 12, 71, 127
2, 535600, Note_on_c, 8, 56, 127
2, 535771, Note_off_c, 8, 56, 127
2, 535771, Note_off_c, 12, 71, 127
2, 535772, Note_on_c, 0, 72, 127
2, 535772, Note_on_c, 10, 57, 127
2, 535943, Note_off_c, 10, 57, 127
2, 535945, Note_on_c, 4, 52, 127
2, 536115, Note_off_c, 0, 72, 127
2, 536116, Note_off_c, 4, 52, 127
2, 536117, Note_on_c, 12, 71, 127
2, 536117, Note_on_c, 8, 56, 127
2, 536288, Note_off_c, 8, 56, 127
2, 536288, Note_off_c, 12, 71, 127
2, 536290, Note_on_c, 0, 72, 127
2, 536290, Note_on_c, 10, 57, 127
2, 536461, Note_off_c, 10, 57, 127
2, 536461, Note_off_c, 0, 72, 127
2, 536462, Note_on_c, 2, 74, 127
2, 536462, Note_on_c, 12, 59, 127
2, 536633, Note_off_c, 12, 59, 127
2, 536635, Note_on_c, 4, 52, 127
2, 536805, Note_off_c, 2, 74, 127
2, 536806, Note_off_c, 4, 52, 127
2, 536807, Note_on_c, 0, 72, 127
2, 536807, Note_on_c, 6, 54, 127
2, 536978, Note_off_c, 6, 54, 127
2, 536978, Note_off_c, 0, 72, 127
2, 536980, Note_on_c, 12, 71, 127
2, 536980, Note_on_c, 8, 56, 127
2, 537151, Note_off_c, 8, 56, 127
2, 537151, Note_off_c, 12, 71, 127
2, 537152, Note_on_c, 0, 72, 127
2, 537152, Note_on_c, 10, 57, 127
2, 537323, Note_off_c, 10, 57, 127
2, 537325, Note_on_c, 10, 69, 127
2, 537495, Note_off_c, 0, 72, 127
2, 537496, Note_off_c, 10, 69, 127
2, 537497, Note_on_c, 12, 71, 127
2, 537497, Note_on_c, 8, 68, 127
2, 537668, Note_off_c, 8, 68, 127
2, 537668, Note_off_c, 12, 71, 127
2, 537670, Note_on_c, 10, 69, 127
2, 537670, Note_on_c, 6, 66, 127
2, 537841, Note_off_c, 6, 66, 127
2, 537841, Note_off_c, 10, 69, 127
2, 537842, Note_on_c, 12, 71, 127
2, 537842, Note_on_c, 4, 64, 127
2, 538013, Note_off_c, 4, 64, 127
2, 538015, Note_on_c, 2, 62, 127
2, 538185, Note_off_c, 12, 71, 127
2, 538186, Note_off_c, 2, 62, 127
2, 538187, Note_on_c, 10, 69, 127
2, 538187, Note_on_c, 0, 60, 127
2, 538358, Note_off_c, 0, 60, 127
2, 538358, Note_off_c, 10, 69, 127
2, 538360, Note_on_c, 12, 71, 127
2, 538360, Note_on_c, 12, 59, 127
2, 538531, Note_off_c, 12, 59, 127
2, 538531, Note_off_c, 12, 71, 127
2, 538532, Note_on_c, 0, 72, 127
2, 538532, Note_on_c, 10, 57, 127
2, 538703, Note_off_c, 10, 57, 127
2, 538705, Note_on_c, 7, 55, 127
2, 538875, Note_off_c, 0, 72, 127
2, 538876, Note_off_c, 7, 55, 127
2, 538877, Note_on_c, 12, 71, 127
2, 538877, Note_on_c, 5, 53, 127
2, 539048, Note_off_c, 5, 53, 127
2, 539048, Note_off_c, 12, 71, 127
2, 539050, Note_on_c, 10, 69, 127
2, 539050, Note_on_c, 4, 52, 127
2, 539221, Note_off_c, 4, 52, 127
2, 539221, Note_off_c, 10, 69, 127
2, 539222, Note_on_c, 12, 71, 127
2, 539222, Note_on_c, 2, 50, 127
2, 539393, Note_off_c, 2, 50, 127
2, 539395, Note_on_c, 0, 48, 127
2, 539565, Note_off_c, 12, 71, 127
2, 539566, Note_off_c, 0, 48, 127
2, 539567, Note_on_c, 10, 69, 127
2, 539567, Note_on_c, 2, 50, 127
2, 539738, Note_off_c, 2, 50, 127
2, 539738, Note_off_c, 10, 69, 127
2, 539740, Note_on_c, 8, 68, 127
2, 539740, Note_on_c, 4, 52, 127
2, 539911, Note_off_c, 4, 52, 127
2, 539911, Note_off_c, 8, 68, 127
2, 539912, Note_on_c, 10, 69, 127
2, 539912, Note_on_c, 5, 53, 127
2, 540255, Note_off_c, 5, 53, 127
2, 540255, Note_off_c, 10, 69, 127
2, 540257, Note_on_c, 5, 77, 127
2, 540257, Note_on_c, 4, 52, 127
2, 540428, Note_off_c, 5, 77, 127
2, 540430, Note_on_c, 4, 76, 127
2, 540600, Note_off_c, 4, 52, 127
2, 540601, Note_off_c, 4, 76, 127
2, 540602, Note_on_c, 2, 74, 127
2, 540602, Note_on_c, 5, 53, 127
2, 540773, Note_off_c, 2, 74, 127
2, 540775, Note_on_c, 0, 72, 127
2, 540945, Note_off_c, 5, 53, 127
2, 540946, Note_off_c, 0, 72, 127
2, 540947, Note_on_c, 12, 71, 127
2, 540947, Note_on_c, 2, 50, 127
2, 541118, Note_off_c, 12, 71, 127
2, 541120, Note_on_c, 10, 69, 127
2, 541290, Note_off_c, 2, 50, 127
2, 541291, Note_off_c, 10, 69, 127
2, 541292, Note_on_c, 8, 68, 127
2, 541292, Note_on_c, 4, 52, 127
2, 541463, Note_off_c, 8, 68, 127
2, 541465, Note_on_c, 10, 69, 127
2, 541636, Note_off_c, 10, 69, 127
2, 541637, Note_on_c, 12, 71, 127
2, 541808, Note_off_c, 12, 71, 127
2, 541810, Note_on_c, 8, 68, 127
2, 541981, Note_off_c, 8, 68, 127
2, 541982, Note_on_c, 4, 64, 127
2, 542153, Note_off_c, 4, 52, 127
2, 542155, Note_on_c, 2, 50, 127
2, 542325, Note_off_c, 4, 64, 127
2, 542326, Note_off_c, 2, 50, 127
2, 542327, Note_on_c, 12, 71, 127
2, 542327, Note_on_c, 0, 48, 127
2, 542498, Note_off_c, 0, 48, 127
2, 542500, Note_on_c, 12, 47, 127
2, 542670, Note_off_c, 12, 71, 127
2, 542671, Note_off_c, 12, 47, 127
2, 542672, Note_on_c, 0, 72, 127
2, 542672, Note_on_c, 10, 45, 127
2, 542843, Note_off_c, 0, 72, 127
2, 542845, Note_on_c, 2, 74, 127
2, 543015, Note_off_c, 10, 45, 127
2, 543016, Note_off_c, 2, 74, 127
2, 543017, Note_on_c, 4, 76, 127
2, 543017, Note_on_c, 10, 57, 127
2, 543188, Note_off_c, 4, 76, 127
2, 543190, Note_on_c, 10, 69, 127
2, 543361, Note_off_c, 10, 69, 127
2, 543362, Note_on_c, 1, 73, 127
2, 543533, Note_off_c, 1, 73, 127
2, 543535, Note_on_c, 2, 74, 127
2, 543705, Note_off_c, 10, 57, 127
2, 543706, Note_off_c, 2, 74, 127
2, 543707, Note_on_c, 4, 76, 127
2, 543707, Note_on_c, 7, 55, 127
2, 543878, Note_off_c, 4, 76, 127
2, 543880, Note_on_c, 10, 69, 127
2, 544050, Note_off_c, 7, 55, 127
2, 544051, Note_off_c, 10, 69, 127
2, 544052, Note_on_c, 2, 74, 127
2, 544052, Note_on_c, 5, 53, 127
2, 544223, Note_off_c, 2, 74, 127
2, 544225, Note_on_c, 4, 76, 127
2, 544395, Note_off_c, 5, 53, 127
2, 544396, Note_off_c, 4, 76, 127
2, 544397, Note_on_c, 5, 77, 127
2, 544397, Note_on_c, 2, 50, 127
2, 544568, Note_off_c, 5, 77, 127
2, 544570, Note_on_c, 10, 69, 127
2, 544740, Note_off_c, 2, 50, 127
2, 544741, Note_off_c, 10, 69, 127
2, 544742, Note_on_c, 3, 75, 127
2, 544742, Note_on_c, 12, 59, 127
2, 544913, Note_off_c, 3, 75, 127
2, 544915, Note_on_c, 4, 76, 127
2, 545085, Note_off_c, 12, 59, 127
2, 545086, Note_off_c, 4, 76, 127
2, 545087, Note_on_c, 6, 78, 127
2, 545087, Note_on_c, 10, 57, 127
2, 545258, Note_off_c, 6, 78, 127
2, 545260, Note_on_c, 10, 69, 127
2, 545430, Note_off_c, 10, 57, 127
2, 545431, Note_off_c, 10, 69, 127
2, 545432, Note_on_c, 4, 76, 127
2, 545432, Note_on_c, 7, 55, 127
2, 545603, Note_off_c, 4, 76, 127
2, 545605, Note_on_c, 6, 78, 127
2, 545775, Note_off_c, 7, 55, 127
2, 545776, Note_off_c, 6, 78, 127
2, 545777, Note_on_c, 7, 79, 127
2, 545777, Note_on_c, 4, 52, 127
2, 545948, Note_off_c, 7, 79, 127
2, 545950, Note_on_c, 12, 71, 127
2, 546120, Note_off_c, 4, 52, 127
2, 546121, Note_off_c, 12, 71, 127
2, 546122, Note_on_c, 4, 76, 127
2, 546122, Note_on_c, 4, 64, 127
2, 546293, Note_off_c, 4, 76, 127
2, 546295, Note_on_c, 6, 78, 127
2, 546466, Note_off_c, 6, 78, 127
2, 546467, Note_on_c, 8, 80, 127
2, 546638, Note_off_c, 8, 80, 127
2, 546640, Note_on_c, 12, 71, 127
2, 546811, Note_off_c, 12, 71, 127
2, 546812, Note_on_c, 5, 77, 127
2, 546983, Note_off_c, 5, 77, 127
2, 546985, Note_on_c, 7, 79, 127
2, 547155, Note_off_c, 4, 64, 127
2, 547156, Note_off_c, 7, 79, 127
2, 547157, Note_on_c, 10, 81, 127
2, 547157, Note_on_c, 2, 62, 127
2, 547328, Note_off_c, 2, 62, 127
2, 547328, Note_off_c, 10, 81, 127
2, 547330, Note_on_c, 0, 72, 127
2, 547330, Note_on_c, 0, 60, 127
2, 547501, Note_off_c, 0, 60, 127
2, 547501, Note_off_c, 0, 72, 127
2, 547502, Note_on_c, 6, 78, 127
2, 547502, Note_on_c, 2, 62, 127
2, 547673, Note_off_c, 2, 62, 127
2, 547673, Note_off_c, 6, 78, 127
2, 547675, Note_on_c, 7, 79, 127
2, 547675, Note_on_c, 12, 59, 127
2, 547846, Note_off_c, 12, 59, 127
2, 547846, Note_off_c, 7, 79, 127
2, 547847, Note_on_c, 10, 81, 127
2, 547847, Note_on_c, 0, 60, 127
2, 548018, Note_off_c, 0, 60, 127
2, 548018, Note_off_c, 10, 81, 127
2, 548020, Note_on_c, 0, 72, 127
2, 548020, Note_on_c, 10, 57, 127
2, 548191, Note_off_c, 10, 57, 127
2, 548191, Note_off_c, 0, 72, 127
2, 548192, Note_on_c, 7, 79, 127
2, 548192, Note_on_c, 12, 59, 127
2, 548363, Note_off_c, 7, 79, 127
2, 548365, Note_on_c, 10, 81, 127
2, 548535, Note_off_c, 12, 59, 127
2, 548536, Note_off_c, 10, 81, 127
2, 548537, Note_on_c, 12, 83, 127
2, 548537, Note_on_c, 5, 65, 127
2, 548708, Note_off_c, 12, 83, 127
2, 548710, Note_on_c, 2, 74, 127
2, 548880, Note_off_c, 5, 65, 127
2, 548881, Note_off_c, 2, 74, 127
2, 548882, Note_on_c, 8, 80, 127
2, 548882, Note_on_c, 4, 64, 127
2, 549053, Note_off_c, 8, 80, 127
2, 549055, Note_on_c, 10, 81, 127
2, 549225, Note_off_c, 4, 64, 127
2, 549226, Note_off_c, 10, 81, 127
2, 549227, Note_on_c, 12, 83, 127
2, 549227, Note_on_c, 2, 62, 127
2, 549398, Note_off_c, 12, 83, 127
2, 549400, Note_on_c, 4, 76, 127
2, 549570, Note_off_c, 2, 62, 127
2, 549571, Note_off_c, 4, 76, 127
2, 549572, Note_on_c, 10, 81, 127
2, 549572, Note_on_c, 0, 60, 127
2, 549743, Note_off_c, 0, 60, 127
2, 549743, Note_off_c, 10, 81, 127
2, 549745, Note_on_c, 12, 83, 127
2, 549745, Note_on_c, 12, 59, 127
2, 549916, Note_off_c, 12, 59, 127
2, 549916, Note_off_c, 12, 83, 127
2, 549917, Note_on_c, 0, 84, 127
2, 549917, Note_on_c, 10, 57, 127
2, 550088, Note_off_c, 10, 57, 127
2, 550088, Note_off_c, 0, 84, 127
2, 550090, Note_on_c, 8, 80, 127
2, 550090, Note_on_c, 12, 59, 127
2, 550261, Note_off_c, 12, 59, 127
2, 550261, Note_off_c, 8, 80, 127
2, 550262, Note_on_c, 10, 81, 127
2, 550262, Note_on_c, 0, 60, 127
2, 550433, Note_off_c, 0, 60, 127
2, 550433, Note_off_c, 10, 81, 127
2, 550435, Note_on_c, 4, 76, 127
2, 550435, Note_on_c, 10, 57, 127
2, 550606, Note_off_c, 10, 57, 127
2, 550606, Note_off_c, 4, 76, 127
2, 550607, Note_on_c, 5, 77, 127
2, 550607, Note_on_c, 2, 62, 127
2, 550778, Note_off_c, 2, 62, 127
2, 550778, Note_off_c, 5, 77, 127
2, 550780, Note_on_c, 2, 74, 127
2, 550780, Note_on_c, 12, 59, 127
2, 550951, Note_off_c, 12, 59, 127
2, 550951, Note_off_c, 2, 74, 127
2, 550952, Note_on_c, 4, 76, 127
2, 550952, Note_on_c, 0, 60, 127
2, 551036, Note_off_c, 4, 76, 127
2, 551038, Note_on_c, 2, 74, 127
2, 551121, Note_off_c, 0, 60, 127
2, 551122, Note_off_c, 2, 74, 127
2, 551123, Note_on_c, 4, 76, 127
2, 551123, Note_on_c, 8, 56, 127
2, 551294, Note_off_c, 8, 56, 127
2, 551296, Note_on_c, 10, 57, 127
2, 551466, Note_off_c, 4, 76, 127
2, 551467, Note_off_c, 10, 57, 127
2, 551468, Note_on_c, 5, 77, 127
2, 551468, Note_on_c, 2, 50, 127
2, 551639, Note_off_c, 2, 50, 127
2, 551639, Note_off_c, 5, 77, 127
2, 551641, Note_on_c, 0, 72, 127
2, 551641, Note_on_c, 4, 52, 127
2, 551725, Note_off_c, 0, 72, 127
2, 551726, Note_on_c, 12, 71, 127
2, 551810, Note_off_c, 12, 71, 127
2, 551812, Note_on_c, 0, 72, 127
2, 551896, Note_off_c, 0, 72, 127
2, 551897, Note_on_c, 12, 71, 127
2, 551981, Note_off_c, 4, 52, 127
2, 551983, Note_on_c, 4, 40, 127
2, 552153, Note_off_c, 12, 71, 127
2, 552155, Note_on_c, 10, 69, 127
2, 552326, Note_off_c, 10, 69, 127
2, 552326, Note_off_c, 4, 40, 127
2, 552328, Note_on_c, 10, 69, 127
2, 552328, Note_on_c, 10, 45, 127
2, 552673, Note_on_c, 4, 52, 127
2, 553016, Note_off_c, 4, 52, 127
2, 553018, Note_on_c, 10, 57, 127
2, 553358, Note_off_c, 10, 57, 127
2, 553366, Note_on_c, 1, 61, 127
2, 553366, Note_on_c, 10, 57, 127
2, 553366, Note_on_c, 4, 64, 127
2, 553703, Note_off_c, 10, 45, 127
2, 553706, Note_off_c, 10, 69, 127
2, 553712, Note_off_c, 4, 64, 127
2, 553712, Note_off_c, 10, 57, 127
2, 553712, Note_off_c, 1, 61, 127
2, 553714, Note_on_c, 1, 61, 127
2, 553714, Note_on_c, 10, 57, 127
2, 553714, Note_on_c, 4, 64, 127
2, 554060, Note_off_c, 4, 64, 127
2, 554060, Note_off_c, 1, 61, 127
2, 554062, Note_on_c, 2, 62, 127
2, 554062, Note_on_c, 6, 66, 127
2, 554408, Note_off_c, 6, 66, 127
2, 554408, Note_off_c, 2, 62, 127
2, 554411, Note_on_c, 4, 64, 127
2, 554411, Note_on_c, 7, 67, 127
2, 554583, Note_off_c, 7, 67, 127
2, 554583, Note_off_c, 4, 64, 127
2, 554585, Note_on_c, 2, 62, 127
2, 554585, Note_on_c, 6, 66, 127
2, 554757, Note_off_c, 6, 66, 127
2, 554757, Note_off_c, 2, 62, 127
2, 554759, Note_on_c, 1, 61, 127
2, 554759, Note_on_c, 4, 64, 127
2, 554931, Note_off_c, 4, 64, 127
2, 554931, Note_off_c, 1, 61, 127
2, 554933, Note_on_c, 12, 59, 127
2, 554933, Note_on_c, 2, 62, 127
2, 555105, Note_off_c, 2, 62, 127
2, 555105, Note_off_c, 12, 59, 127
2, 555108, Note_on_c, 1, 61, 127
2, 555108, Note_on_c, 4, 64, 127
2, 555454, Note_off_c, 4, 64, 127
2, 555454, Note_off_c, 1, 61, 127
2, 555456, Note_on_c, 1, 61, 127
2, 555456, Note_on_c, 10, 69, 127
2, 555628, Note_off_c, 10, 69, 127
2, 555628, Note_off_c, 1, 61, 127
2, 555630, Note_on_c, 12, 59, 127
2, 555630, Note_on_c, 8, 68, 127
2, 555802, Note_off_c, 8, 68, 127
2, 555802, Note_off_c, 12, 59, 127
2, 555805, Note_on_c, 1, 61, 127
2, 555805, Note_on_c, 10, 69, 127
2, 556151, Note_off_c, 10, 69, 127
2, 556151, Note_off_c, 1, 61, 127
2, 556153, Note_on_c, 1, 61, 127
2, 556153, Note_on_c, 4, 64, 127
2, 556494, Note_on_c, 12, 59, 127
2, 556494, Note_on_c, 6, 66, 127
2, 556495, Note_off_c, 10, 57, 127
2, 556499, Note_off_c, 4, 64, 127
2, 556499, Note_off_c, 1, 61, 127
2, 556666, Note_off_c, 6, 66, 127
2, 556675, Note_on_c, 2, 62, 127
2, 556847, Note_off_c, 2, 62, 127
2, 556850, Note_on_c, 10, 57, 127
2, 556850, Note_on_c, 1, 61, 127
2, 557022, Note_off_c, 1, 61, 127
2, 557024, Note_on_c, 2, 62, 127
2, 557196, Note_off_c, 2, 62, 127
2, 557196, Note_off_c, 10, 57, 127
2, 557199, Note_on_c, 8, 56, 127
2, 557199, Note_on_c, 4, 64, 127
2, 557371, Note_off_c, 4, 64, 127
2, 557372, Note_on_c, 2, 62, 127
2, 557544, Note_off_c, 2, 62, 127
2, 557545, Note_off_c, 8, 56, 127
2, 557547, Note_on_c, 4, 52, 127
2, 557547, Note_on_c, 1, 61, 127
2, 557699, Note_off_c, 12, 59, 127
2, 557719, Note_off_c, 1, 61, 127
2, 557721, Note_on_c, 12, 59, 127
2, 557893, Note_off_c, 12, 59, 127
2, 557893, Note_off_c, 4, 52, 127
2, 557895, Note_on_c, 10, 57, 127
2, 557895, Note_on_c, 2, 62, 127
2, 558067, Note_off_c, 2, 62, 127
2, 558069, Note_on_c, 1, 61, 127
2, 558241, Note_off_c, 1, 61, 127
2, 558244, Note_on_c, 4, 52, 127
2, 558244, Note_on_c, 12, 59, 127
2, 558416, Note_off_c, 12, 59, 127
2, 558418, Note_on_c, 1, 61, 127
2, 558557, Note_off_c, 10, 57, 127
2, 558590, Note_off_c, 1, 61, 127
2, 558590, Note_off_c, 4, 52, 127
2, 558592, Note_on_c, 1, 49, 127
2, 558592, Note_on_c, 10, 57, 127
2, 558938, Note_off_c, 10, 57, 127
2, 558938, Note_off_c, 1, 49, 127
2, 558941, Note_on_c, 4, 52, 127
2, 558941, Note_on_c, 10, 57, 127
2, 558941, Note_on_c, 1, 61, 127
2, 558941, Note_on_c, 4, 64, 127
2, 559241, Note_off_c, 4, 64, 127
2, 559241, Note_off_c, 1, 61, 127
2, 559287, Note_off_c, 10, 57, 127
2, 559287, Note_off_c, 4, 52, 127
2, 559289, Note_on_c, 1, 61, 127
2, 559289, Note_on_c, 10, 57, 127
2, 559289, Note_on_c, 4, 64, 127
2, 559635, Note_off_c, 4, 64, 127
2, 559635, Note_off_c, 1, 61, 127
2, 559638, Note_on_c, 2, 62, 127
2, 559638, Note_on_c, 6, 66, 127
2, 559984, Note_off_c, 6, 66, 127
2, 559984, Note_off_c, 2, 62, 127
2, 559986, Note_on_c, 4, 64, 127
2, 559986, Note_on_c, 7, 67, 127
2, 560158, Note_off_c, 7, 67, 127
2, 560158, Note_off_c, 4, 64, 127
2, 560160, Note_on_c, 2, 62, 127
2, 560160, Note_on_c, 6, 66, 127
2, 560332, Note_off_c, 6, 66, 127
2, 560332, Note_off_c, 2, 62, 127
2, 560335, Note_on_c, 1, 61, 127
2, 560335, Note_on_c, 4, 64, 127
2, 560507, Note_off_c, 4, 64, 127
2, 560507, Note_off_c, 1, 61, 127
2, 560508, Note_on_c, 12, 59, 127
2, 560508, Note_on_c, 2, 62, 127
2, 560680, Note_off_c, 2, 62, 127
2, 560680, Note_off_c, 12, 59, 127
2, 560683, Note_on_c, 1, 61, 127
2, 560683, Note_on_c, 4, 64, 127
2, 561029, Note_off_c, 4, 64, 127
2, 561031, Note_off_c, 10, 57, 127
2, 561031, Note_on_c, 8, 56, 127
2, 561031, Note_on_c, 10, 69, 127
2, 561203, Note_off_c, 10, 69, 127
2, 561205, Note_on_c, 8, 68, 127
2, 561377, Note_off_c, 8, 68, 127
2, 561377, Note_off_c, 8, 56, 127
2, 561380, Note_on_c, 6, 54, 127
2, 561380, Note_on_c, 10, 69, 127
2, 561552, Note_off_c, 10, 69, 127
2, 561554, Note_on_c, 1, 73, 127
2, 561726, Note_off_c, 1, 73, 127
2, 561726, Note_off_c, 6, 54, 127
2, 561726, Note_off_c, 1, 61, 127
2, 561728, Note_on_c, 10, 57, 127
2, 561728, Note_on_c, 12, 71, 127
2, 561728, Note_on_c, 3, 63, 127
2, 562074, Note_off_c, 3, 63, 127
2, 562074, Note_off_c, 12, 71, 127
2, 562074, Note_off_c, 10, 57, 127
2, 562077, Note_on_c, 10, 57, 127
2, 562077, Note_on_c, 4, 64, 127
2, 562077, Note_on_c, 12, 71, 127
2, 562249, Note_off_c, 10, 57, 127
2, 562251, Note_on_c, 8, 56, 127
2, 562423, Note_off_c, 8, 56, 127
2, 562425, Note_on_c, 6, 54, 127
2, 562597, Note_off_c, 6, 54, 127
2, 562599, Note_on_c, 4, 52, 127
2, 562771, Note_off_c, 4, 52, 127
2, 562771, Note_off_c, 12, 71, 127
2, 562774, Note_on_c, 12, 59, 127
2, 562774, Note_on_c, 10, 69, 127
2, 562946, Note_off_c, 10, 69, 127
2, 562947, Note_on_c, 8, 68, 127
2, 563119, Note_off_c, 8, 68, 127
2, 563120, Note_off_c, 12, 59, 127
2, 563120, Note_off_c, 4, 64, 127
2, 563122, Note_on_c, 12, 47, 127
2, 563122, Note_on_c, 6, 66, 127
2, 563122, Note_on_c, 3, 63, 127
2, 563294, Note_off_c, 3, 63, 127
2, 563294, Note_off_c, 6, 66, 127
2, 563296, Note_on_c, 4, 64, 127
2, 563468, Note_off_c, 4, 64, 127
2, 563468, Note_off_c, 12, 47, 127
2, 563471, Note_on_c, 4, 52, 127
2, 563471, Note_on_c, 4, 64, 127
2, 563817, Note_off_c, 4, 52, 127
2, 563819, Note_on_c, 12, 47, 127
2, 564165, Note_off_c, 12, 47, 127
2, 564168, Note_on_c, 4, 40, 127
2, 564514, Note_off_c, 4, 40, 127
2, 564514, Note_off_c, 4, 64, 127
2, 564516, Note_on_c, 4, 52, 127
2, 564516, Note_on_c, 12, 59, 127
2, 564516, Note_on_c, 8, 68, 127
2, 564862, Note_off_c, 8, 68, 127
2, 564862, Note_off_c, 12, 59, 127
2, 564862, Note_off_c, 4, 52, 127
2, 564864, Note_on_c, 12, 59, 127
2, 564864, Note_on_c, 4, 52, 127
2, 564864, Note_on_c, 8, 68, 127
2, 565210, Note_off_c, 8, 68, 127
2, 565210, Note_off_c, 12, 59, 127
2, 565213, Note_on_c, 1, 61, 127
2, 565213, Note_on_c, 10, 69, 127
2, 565559, Note_off_c, 10, 69, 127
2, 565559, Note_off_c, 1, 61, 127
2, 565561, Note_on_c, 2, 62, 127
2, 565561, Note_on_c, 12, 71, 127
2, 565733, Note_off_c, 12, 71, 127
2, 565733, Note_off_c, 2, 62, 127
2, 565735, Note_on_c, 1, 61, 127
2, 565735, Note_on_c, 10, 69, 127
2, 565907, Note_off_c, 10, 69, 127
2, 565907, Note_off_c, 1, 61, 127
2, 565910, Note_on_c, 12, 59, 127
2, 565910, Note_on_c, 8, 68, 127
2, 566082, Note_off_c, 8, 68, 127
2, 566082, Note_off_c, 12, 59, 127
2, 566083, Note_on_c, 10, 57, 127
2, 566083, Note_on_c, 6, 66, 127
2, 566255, Note_off_c, 6, 66, 127
2, 566255, Note_off_c, 10, 57, 127
2, 566258, Note_on_c, 1, 61, 127
2, 566258, Note_on_c, 10, 69, 127
2, 566430, Note_off_c, 10, 69, 127
2, 566430, Note_off_c, 1, 61, 127
2, 566432, Note_on_c, 12, 59, 127
2, 566432, Note_on_c, 8, 68, 127
2, 566604, Note_off_c, 8, 68, 127
2, 566604, Note_off_c, 12, 59, 127
2, 566607, Note_on_c, 10, 57, 127
2, 566607, Note_on_c, 6, 66, 127
2, 566779, Note_off_c, 6, 66, 127
2, 566779, Note_off_c, 10, 57, 127
2, 566780, Note_on_c, 12, 59, 127
2, 566780, Note_on_c, 8, 68, 127
2, 566952, Note_off_c, 8, 68, 127
2, 566952, Note_off_c, 12, 59, 127
2, 566955, Note_on_c, 8, 56, 127
2, 566955, Note_on_c, 4, 64, 127
2, 567297, Note_off_c, 4, 52, 127
2, 567303, Note_off_c, 4, 64, 127
2, 567303, Note_off_c, 8, 56, 127
2, 567305, Note_on_c, 1, 49, 127
2, 567305, Note_on_c, 4, 64, 127
2, 567305, Note_on_c, 10, 69, 127
2, 567651, Note_off_c, 10, 69, 127
2, 567651, Note_off_c, 4, 64, 127
2, 567651, Note_off_c, 1, 49, 127
2, 567653, Note_on_c, 2, 50, 127
2, 567653, Note_on_c, 10, 57, 127
2, 567653, Note_on_c, 6, 66, 127
2, 567825, Note_off_c, 6, 66, 127
2, 567828, Note_on_c, 5, 65, 127
2, 567999, Note_off_c, 2, 50, 127
2, 568000, Note_off_c, 5, 65, 127
2, 568001, Note_on_c, 1, 49, 127
2, 568001, Note_on_c, 6, 66, 127
2, 568173, Note_off_c, 6, 66, 127
2, 568176, Note_on_c, 10, 69, 127
2, 568347, Note_off_c, 1, 49, 127
2, 568348, Note_off_c, 10, 69, 127
2, 568349, Note_off_c, 10, 57, 127
2, 568352, Note_on_c, 12, 47, 127
2, 568352, Note_on_c, 12, 59, 127
2, 568352, Note_on_c, 8, 68, 127
2, 568524, Note_off_c, 8, 68, 127
2, 568526, Note_on_c, 10, 69, 127
2, 568698, Note_off_c, 10, 69, 127
2, 568698, Note_off_c, 12, 59, 127
2, 568698, Note_off_c, 12, 47, 127
2, 568700, Note_on_c, 6, 54, 127
2, 568700, Note_on_c, 2, 50, 127
2, 568700, Note_on_c, 12, 71, 127
2, 568872, Note_off_c, 12, 71, 127
2, 568874, Note_on_c, 6, 66, 127
2, 569046, Note_off_c, 6, 66, 127
2, 569046, Note_off_c, 2, 50, 127
2, 569046, Note_off_c, 6, 54, 127
2, 569049, Note_on_c, 5, 53, 127
2, 569049, Note_on_c, 1, 49, 127
2, 569049, Note_on_c, 8, 68, 127
2, 569221, Note_off_c, 8, 68, 127
2, 569223, Note_on_c, 5, 65, 127
2, 569395, Note_off_c, 5, 65, 127
2, 569395, Note_off_c, 5, 53, 127
2, 569397, Note_on_c, 10, 57, 127
2, 569397, Note_on_c, 6, 66, 127
2, 569569, Note_off_c, 6, 66, 127
2, 569571, Note_on_c, 3, 63, 127
2, 569743, Note_off_c, 3, 63, 127
2, 569743, Note_off_c, 10, 57, 127
2, 569746, Note_on_c, 8, 56, 127
2, 569746, Note_on_c, 5, 65, 127
2, 569918, Note_off_c, 5, 65, 127
2, 569919, Note_on_c, 1, 61, 127
2, 570091, Note_off_c, 1, 61, 127
2, 570092, Note_off_c, 8, 56, 127
2, 570092, Note_off_c, 1, 49, 127
2, 570094, Note_on_c, 1, 49, 127
2, 570094, Note_on_c, 5, 53, 127
2, 570094, Note_on_c, 8, 56, 127
2, 570094, Note_on_c, 12, 59, 127
2, 570094, Note_on_c, 1, 73, 127
2, 570440, Note_off_c, 1, 73, 127
2, 570440, Note_off_c, 12, 59, 127
2, 570440, Note_off_c, 8, 56, 127
2, 570440, Note_off_c, 5, 53, 127
2, 570440, Note_off_c, 1, 49, 127
2, 570443, Note_on_c, 11, 58, 127
2, 570443, Note_on_c, 6, 54, 127
2, 570443, Note_on_c, 1, 73, 127
2, 570615, Note_off_c, 1, 73, 127
2, 570616, Note_on_c, 2, 74, 127
2, 570788, Note_off_c, 2, 74, 127
2, 570789, Note_off_c, 11, 58, 127
2, 570791, Note_on_c, 1, 61, 127
2, 570791, Note_on_c, 4, 76, 127
2, 570963, Note_off_c, 4, 76, 127
2, 570965, Note_on_c, 1, 73, 127
2, 571137, Note_off_c, 1, 73, 127
2, 571137, Note_off_c, 1, 61, 127
2, 571140, Note_on_c, 12, 59, 127
2, 571140, Note_on_c, 2, 74, 127
2, 571312, Note_off_c, 2, 74, 127
2, 571313, Note_on_c, 12, 71, 127
2, 571485, Note_off_c, 12, 71, 127
2, 571486, Note_off_c, 12, 59, 127
2, 571488, Note_on_c, 4, 64, 127
2, 571488, Note_on_c, 1, 73, 127
2, 571660, Note_off_c, 1, 73, 127
2, 571662, Note_on_c, 11, 70, 127
2, 571834, Note_off_c, 11, 70, 127
2, 571834, Note_off_c, 4, 64, 127
2, 571836, Note_on_c, 2, 62, 127
2, 571836, Note_on_c, 12, 71, 127
2, 572008, Note_off_c, 12, 71, 127
2, 572010, Note_on_c, 1, 73, 127
2, 572182, Note_off_c, 1, 73, 127
2, 572182, Note_off_c, 2, 62, 127
2, 572185, Note_on_c, 12, 59, 127
2, 572185, Note_on_c, 2, 74, 127
2, 572357, Note_off_c, 2, 74, 127
2, 572359, Note_on_c, 12, 71, 127
2, 572531, Note_off_c, 12, 71, 127
2, 572531, Note_off_c, 12, 59, 127
2, 572533, Note_on_c, 10, 57, 127
2, 572533, Note_on_c, 1, 73, 127
2, 572705, Note_off_c, 1, 73, 127
2, 572707, Note_on_c, 10, 69, 127
2, 572879, Note_off_c, 10, 69, 127
2, 572879, Note_off_c, 10, 57, 127
2, 572882, Note_on_c, 8, 56, 127
2, 572882, Note_on_c, 12, 71, 127
2, 573054, Note_off_c, 12, 71, 127
2, 573056, Note_on_c, 8, 68, 127
2, 573228, Note_off_c, 8, 68, 127
2, 573228, Note_off_c, 8, 56, 127
2, 573230, Note_on_c, 10, 57, 127
2, 573230, Note_on_c, 1, 73, 127
2, 573402, Note_off_c, 1, 73, 127
2, 573404, Note_on_c, 12, 71, 127
2, 573576, Note_off_c, 12, 71, 127
2, 573576, Note_off_c, 10, 57, 127
2, 573579, Note_on_c, 12, 47, 127
2, 573579, Note_on_c, 8, 56, 127
2, 573579, Note_on_c, 2, 74, 127
2, 573582, Note_off_c, 6, 54, 127
2, 573751, Note_off_c, 2, 74, 127
2, 573752, Note_on_c, 1, 73, 127
2, 573924, Note_off_c, 1, 73, 127
2, 573925, Note_off_c, 8, 56, 127
2, 573925, Note_off_c, 12, 47, 127
2, 573927, Note_on_c, 1, 49, 127
2, 573927, Note_on_c, 6, 54, 127
2, 573927, Note_on_c, 12, 71, 127
2, 574099, Note_off_c, 12, 71, 127
2, 574101, Note_on_c, 10, 69, 127
2, 574273, Note_off_c, 10, 69, 127
2, 574273, Note_off_c, 6, 54, 127
2, 574276, Note_on_c, 5, 53, 127
2, 574276, Note_on_c, 8, 68, 127
2, 574448, Note_off_c, 8, 68, 127
2, 574449, Note_on_c, 10, 69, 127
2, 574621, Note_off_c, 10, 69, 127
2, 574622, Note_off_c, 5, 53, 127
2, 574623, Note_off_c, 1, 49, 127
2, 574625, Note_on_c, 6, 54, 127
2, 574625, Note_on_c, 8, 68, 127
2, 574797, Note_off_c, 6, 54, 127
2, 574800, Note_on_c, 2, 50, 127
2, 574971, Note_off_c, 8, 68, 127
2, 574972, Note_off_c, 2, 50, 127
2, 574974, Note_on_c, 1, 49, 127
2, 574974, Note_on_c, 6, 66, 127
2, 575146, Note_off_c, 1, 49, 127
2, 575148, Note_on_c, 12, 47, 127
2, 575320, Note_off_c, 12, 47, 127
2, 575322, Note_on_c, 10, 45, 127
2, 575494, Note_off_c, 10, 45, 127
2, 575497, Note_on_c, 8, 44, 127
2, 575668, Note_off_c, 6, 66, 127
2, 575669, Note_off_c, 8, 44, 127
2, 575670, Note_on_c, 10, 45, 127
2, 575670, Note_on_c, 6, 54, 127
2, 575670, Note_on_c, 10, 69, 127
2, 575670, Note_on_c, 1, 61, 127
2, 575842, Note_off_c, 6, 54, 127
2, 575842, Note_off_c, 10, 45, 127
2, 575845, Note_on_c, 6, 42, 127
2, 576016, Note_off_c, 1, 61, 127
2, 576016, Note_off_c, 10, 69, 127
2, 576017, Note_off_c, 6, 42, 127
2, 576019, Note_on_c, 12, 47, 127
2, 576019, Note_on_c, 3, 51, 127
2, 576019, Note_on_c, 10, 69, 127
2, 576019, Note_on_c, 12, 59, 127
2, 576365, Note_off_c, 12, 59, 127
2, 576365, Note_off_c, 3, 51, 127
2, 576367, Note_on_c, 6, 54, 127
2, 576367, Note_on_c, 3, 63, 127
2, 576539, Note_off_c, 3, 63, 127
2, 576539, Note_off_c, 6, 54, 127
2, 576542, Note_on_c, 4, 52, 127
2, 576542, Note_on_c, 1, 61, 127
2, 576714, Note_off_c, 1, 61, 127
2, 576714, Note_off_c, 4, 52, 127
2, 576716, Note_on_c, 6, 54, 127
2, 576716, Note_on_c, 3, 63, 127
2, 577062, Note_off_c, 3, 63, 127
2, 577062, Note_off_c, 6, 54, 127
2, 577062, Note_off_c, 10, 69, 127
2, 577062, Note_off_c, 12, 47, 127
2, 577064, Note_on_c, 6, 54, 127
2, 577064, Note_on_c, 12, 47, 127
2, 577064, Note_on_c, 3, 63, 127
2, 577064, Note_on_c, 10, 69, 127
2, 577410, Note_off_c, 10, 69, 127
2, 577410, Note_off_c, 3, 63, 127
2, 577410, Note_off_c, 12, 47, 127
2, 577410, Note_off_c, 6, 54, 127
2, 577413, Note_on_c, 4, 40, 127
2, 577413, Note_on_c, 4, 52, 127
2, 577413, Note_on_c, 4, 64, 127
2, 577413, Note_on_c, 10, 69, 127
2, 577585, Note_off_c, 10, 69, 127
2, 577587, Note_on_c, 8, 68, 127
2, 577759, Note_off_c, 8, 68, 127
2, 577761, Note_on_c, 10, 69, 127
2, 577933, Note_off_c, 10, 69, 127
2, 577936, Note_on_c, 6, 66, 127
2, 578108, Note_off_c, 6, 66, 127
2, 578110, Note_on_c, 8, 68, 127
2, 578271, Note_off_c, 4, 64, 127
2, 578282, Note_off_c, 8, 68, 127
2, 578284, Note_on_c, 4, 64, 127
2, 578456, Note_off_c, 4, 64, 127
2, 578456, Note_off_c, 4, 52, 127
2, 578456, Note_off_c, 4, 40, 127
2, 578458, Note_on_c, 4, 40, 127
2, 578458, Note_on_c, 4, 52, 127
2, 578458, Note_on_c, 12, 59, 127
2, 578458, Note_on_c, 7, 67, 127
2, 578804, Note_off_c, 7, 67, 127
2, 578804, Note_off_c, 12, 59, 127
2, 578804, Note_off_c, 4, 52, 127
2, 578804, Note_off_c, 4, 40, 127
2, 578806, Note_on_c, 1, 49, 127
2, 578806, Note_on_c, 10, 45, 127
2, 578806, Note_on_c, 7, 67, 127
2, 578806, Note_on_c, 10, 57, 127
2, 579152, Note_off_c, 10, 57, 127
2, 579152, Note_off_c, 1, 49, 127
2, 579155, Note_on_c, 4, 52, 127
2, 579155, Note_on_c, 1, 61, 127
2, 579327, Note_off_c, 1, 61, 127
2, 579327, Note_off_c, 4, 52, 127
2, 579330, Note_on_c, 2, 50, 127
2, 579330, Note_on_c, 12, 59, 127
2, 579502, Note_off_c, 12, 59, 127
2, 579502, Note_off_c, 2, 50, 127
2, 579503, Note_on_c, 4, 52, 127
2, 579503, Note_on_c, 1, 61, 127
2, 579849, Note_off_c, 1, 61, 127
2, 579849, Note_off_c, 4, 52, 127
2, 579849, Note_off_c, 7, 67, 127
2, 579849, Note_off_c, 10, 45, 127
2, 579852, Note_on_c, 10, 45, 127
2, 579852, Note_on_c, 4, 52, 127
2, 579852, Note_on_c, 1, 61, 127
2, 579852, Note_on_c, 7, 67, 127
2, 580198, Note_off_c, 7, 67, 127
2, 580198, Note_off_c, 1, 61, 127
2, 580198, Note_off_c, 4, 52, 127
2, 580198, Note_off_c, 10, 45, 127
2, 580200, Note_on_c, 2, 38, 127
2, 580200, Note_on_c, 2, 50, 127
2, 580200, Note_on_c, 7, 67, 127
2, 580200, Note_on_c, 2, 62, 127
2, 580372, Note_off_c, 7, 67, 127
2, 580375, Note_on_c, 6, 66, 127
2, 580547, Note_off_c, 6, 66, 127
2, 580549, Note_on_c, 7, 67, 127
2, 580721, Note_off_c, 7, 67, 127
2, 580723, Note_on_c, 4, 64, 127
2, 580895, Note_off_c, 4, 64, 127
2, 580897, Note_on_c, 6, 66, 127
2, 581054, Note_off_c, 2, 62, 127
2, 581069, Note_off_c, 6, 66, 127
2, 581072, Note_on_c, 2, 62, 127
2, 581243, Note_off_c, 2, 50, 127
2, 581243, Note_off_c, 2, 38, 127
2, 581244, Note_off_c, 2, 62, 127
2, 581246, Note_on_c, 2, 50, 127
2, 581246, Note_on_c, 6, 54, 127
2, 581246, Note_on_c, 2, 62, 127
2, 581246, Note_on_c, 12, 71, 127
2, 581592, Note_off_c, 12, 71, 127
2, 581592, Note_off_c, 2, 62, 127
2, 581592, Note_off_c, 6, 54, 127
2, 581592, Note_off_c, 2, 50, 127
2, 581594, Note_on_c, 8, 44, 127
2, 581594, Note_on_c, 4, 52, 127
2, 581594, Note_on_c, 2, 62, 127
2, 581594, Note_on_c, 12, 71, 127
2, 581940, Note_off_c, 12, 71, 127
2, 581940, Note_off_c, 2, 62, 127
2, 581943, Note_on_c, 4, 64, 127
2, 581943, Note_on_c, 1, 73, 127
2, 582288, Note_off_c, 4, 52, 127
2, 582288, Note_off_c, 8, 44, 127
2, 582289, Note_off_c, 1, 73, 127
2, 582289, Note_off_c, 4, 64, 127
2, 582291, Note_on_c, 10, 45, 127
2, 582291, Note_on_c, 4, 52, 127
2, 582291, Note_on_c, 4, 64, 127
2, 582291, Note_on_c, 2, 74, 127
2, 582463, Note_off_c, 2, 74, 127
2, 582466, Note_on_c, 1, 73, 127
2, 582637, Note_off_c, 4, 52, 127
2, 582638, Note_off_c, 1, 73, 127
2, 582639, Note_on_c, 6, 54, 127
2, 582639, Note_on_c, 12, 71, 127
2, 582811, Note_off_c, 12, 71, 127
2, 582814, Note_on_c, 10, 69, 127
2, 582985, Note_off_c, 6, 54, 127
2, 582986, Note_off_c, 10, 69, 127
2, 582987, Note_off_c, 4, 64, 127
2, 582987, Note_off_c, 10, 45, 127
2, 582990, Note_on_c, 2, 50, 127
2, 582990, Note_on_c, 8, 56, 127
2, 582990, Note_on_c, 12, 71, 127
2, 582990, Note_on_c, 4, 64, 127
2, 583336, Note_off_c, 12, 71, 127
2, 583338, Note_on_c, 4, 76, 127
2, 583510, Note_off_c, 4, 76, 127
2, 583522, Note_on_c, 2, 74, 127
2, 583694, Note_off_c, 2, 74, 127
2, 583703, Note_on_c, 4, 76, 127
2, 584051, Note_off_c, 2, 50, 127
2, 584054, Note_off_c, 4, 64, 127
2, 584054, Note_off_c, 8, 56, 127
2, 584067, Note_off_c, 4, 76, 127
2, 584076, Note_on_c, 4, 64, 127
2, 584076, Note_on_c, 8, 68, 127
2, 584076, Note_on_c, 2, 50, 127
2, 584076, Note_on_c, 12, 59, 127
2, 584422, Note_off_c, 12, 59, 127
2, 584422, Note_off_c, 2, 50, 127
2, 584422, Note_off_c, 8, 68, 127
2, 584422, Note_off_c, 4, 64, 127
2, 584424, Note_on_c, 4, 64, 127
2, 584424, Note_on_c, 10, 69, 127
2, 584424, Note_on_c, 10, 57, 127
2, 584424, Note_on_c, 1, 49, 127
2, 584790, Note_off_c, 1, 49, 127
2, 584792, Note_on_c, 2, 50, 127
2, 584973, Note_off_c, 10, 69, 127
2, 584973, Note_off_c, 4, 64, 127
2, 584976, Note_on_c, 12, 71, 127
2, 585156, Note_off_c, 2, 50, 127
2, 585157, Note_off_c, 12, 71, 127
2, 585158, Note_off_c, 10, 57, 127
2, 585160, Note_on_c, 8, 68, 127
2, 585160, Note_on_c, 1, 73, 127
2, 585160, Note_on_c, 4, 52, 127
2, 585250, Note_off_c, 1, 73, 127
2, 585252, Note_on_c, 12, 71, 127
2, 585342, Note_off_c, 12, 71, 127
2, 585345, Note_on_c, 1, 73, 127
2, 585435, Note_off_c, 1, 73, 127
2, 585437, Note_on_c, 12, 71, 127
2, 585527, Note_off_c, 12, 71, 127
2, 585530, Note_on_c, 1, 73, 127
2, 585530, Note_on_c, 4, 40, 127
2, 585620, Note_off_c, 1, 73, 127
2, 585622, Note_on_c, 12, 71, 127
2, 585712, Note_off_c, 12, 71, 127
2, 585714, Note_off_c, 8, 68, 127
2, 585716, Note_on_c, 10, 69, 127
2, 585897, Note_off_c, 10, 69, 127
2, 585897, Note_off_c, 4, 40, 127
2, 585899, Note_off_c, 4, 52, 127
2, 585901, Note_on_c, 10, 69, 127
2, 585901, Note_on_c, 10, 45, 127
2, 586119, Note_on_c, 4, 64, 127
2, 586334, Note_off_c, 4, 64, 127
2, 586336, Note_on_c, 1, 61, 127
2, 586604, Note_on_c, 4, 52, 127
2, 586934, Note_off_c, 4, 52, 127
2, 586937, Note_on_c, 10, 57, 127
2, 588729, Note_off_c, 10, 45, 127
2, 588729, Note_off_c, 10, 69, 127
2, 588746, Note_off_c, 1, 61, 127
2, 589015, Note_on_c, 4, 64, 127
2, 589415, Note_off_c, 10, 57, 127
2, 589485, Note_off_c, 4, 64, 127
2, 589509, Note_on_c, 10, 45, 127
2, 589509, Note_on_c, 10, 69, 127
2, 589842, Note_off_c, 10, 69, 127
2, 589846, Note_on_c, 10, 69, 127
2, 590010, Note_off_c, 10, 45, 127
2, 590011, Note_off_c, 10, 69, 127
2, 590013, Note_on_c, 10, 57, 127
2, 590013, Note_on_c, 10, 69, 127
2, 590178, Note_off_c, 10, 69, 127
2, 590182, Note_on_c, 12, 71, 127
2, 590347, Note_off_c, 12, 71, 127
2, 590351, Note_on_c, 0, 72, 127
2, 590516, Note_off_c, 0, 72, 127
2, 590518, Note_on_c, 12, 71, 127
2, 590683, Note_off_c, 12, 71, 127
2, 590687, Note_on_c, 2, 62, 127
2, 590852, Note_off_c, 2, 62, 127
2, 590856, Note_on_c, 12, 71, 127
2, 591020, Note_off_c, 10, 57, 127
2, 591021, Note_off_c, 12, 71, 127
2, 591023, Note_on_c, 8, 56, 127
2, 591023, Note_on_c, 4, 64, 127
2, 591188, Note_off_c, 4, 64, 127
2, 591192, Note_on_c, 5, 65, 127
2, 591357, Note_off_c, 5, 65, 127
2, 591361, Note_on_c, 2, 62, 127
2, 591525, Note_off_c, 8, 56, 127
2, 591526, Note_off_c, 2, 62, 127
2, 591528, Note_on_c, 10, 57, 127
2, 591528, Note_on_c, 0, 60, 127
2, 591693, Note_off_c, 0, 60, 127
2, 591697, Note_on_c, 4, 64, 127
2, 591862, Note_off_c, 4, 64, 127
2, 591866, Note_on_c, 10, 69, 127
2, 592030, Note_off_c, 10, 57, 127
2, 592031, Note_off_c, 10, 69, 127
2, 592033, Note_on_c, 5, 53, 127
2, 592033, Note_on_c, 2, 62, 127
2, 592198, Note_off_c, 2, 62, 127
2, 592202, Note_on_c, 12, 71, 127
2, 592367, Note_off_c, 12, 71, 127
2, 592371, Note_on_c, 10, 69, 127
2, 592535, Note_off_c, 5, 53, 127
2, 592536, Note_off_c, 10, 69, 127
2, 592538, Note_on_c, 4, 52, 127
2, 592538, Note_on_c, 8, 68, 127
2, 592703, Note_off_c, 8, 68, 127
2, 592707, Note_on_c, 10, 69, 127
2, 592872, Note_off_c, 10, 69, 127
2, 592876, Note_on_c, 12, 71, 127
2, 593041, Note_off_c, 12, 71, 127
2, 593043, Note_on_c, 4, 64, 127
2, 593208, Note_off_c, 4, 64, 127
2, 593208, Note_off_c, 4, 52, 127
2, 593212, Note_on_c, 6, 54, 127
2, 593212, Note_on_c, 4, 76, 127
2, 593377, Note_off_c, 4, 76, 127
2, 593377, Note_off_c, 6, 54, 127
2, 593381, Note_on_c, 8, 56, 127
2, 593381, Note_on_c, 2, 74, 127
2, 593546, Note_off_c, 2, 74, 127
2, 593546, Note_off_c, 8, 56, 127
2, 593548, Note_on_c, 10, 57, 127
2, 593548, Note_on_c, 0, 72, 127
2, 593713, Note_off_c, 0, 72, 127
2, 593713, Note_off_c, 10, 57, 127
2, 593717, Note_on_c, 12, 59, 127
2, 593717, Note_on_c, 2, 74, 127
2, 593882, Note_off_c, 2, 74, 127
2, 593882, Note_off_c, 12, 59, 127
2, 593886, Note_on_c, 0, 60, 127
2, 593886, Note_on_c, 4, 76, 127
2, 594051, Note_off_c, 4, 76, 127
2, 594051, Note_off_c, 0, 60, 127
2, 594053, Note_on_c, 5, 53, 127
2, 594053, Note_on_c, 10, 69, 127
2, 594218, Note_off_c, 10, 69, 127
2, 594218, Note_off_c, 5, 53, 127
2, 594222, Note_on_c, 7, 55, 127
2, 594222, Note_on_c, 5, 77, 127
2, 594387, Note_off_c, 5, 77, 127
2, 594387, Note_off_c, 7, 55, 127
2, 594391, Note_on_c, 10, 57, 127
2, 594391, Note_on_c, 4, 76, 127
2, 594556, Note_off_c, 4, 76, 127
2, 594556, Note_off_c, 10, 57, 127
2, 594558, Note_on_c, 12, 59, 127
2, 594558, Note_on_c, 2, 74, 127
2, 594723, Note_off_c, 2, 74, 127
2, 594723, Note_off_c, 12, 59, 127
2, 594727, Note_on_c, 0, 60, 127
2, 594727, Note_on_c, 4, 76, 127
2, 594892, Note_off_c, 4, 76, 127
2, 594892, Note_off_c, 0, 60, 127
2, 594896, Note_on_c, 2, 62, 127
2, 594896, Note_on_c, 5, 77, 127
2, 595061, Note_off_c, 5, 77, 127
2, 595061, Note_off_c, 2, 62, 127
2, 595063, Note_on_c, 7, 55, 127
2, 595063, Note_on_c, 12, 71, 127
2, 595228, Note_off_c, 12, 71, 127
2, 595228, Note_off_c, 7, 55, 127
2, 595232, Note_on_c, 10, 57, 127
2, 595232, Note_on_c, 7, 79, 127
2, 595397, Note_off_c, 7, 79, 127
2, 595397, Note_off_c, 10, 57, 127
2, 595401, Note_on_c, 12, 59, 127
2, 595401, Note_on_c, 5, 77, 127
2, 595566, Note_off_c, 5, 77, 127
2, 595566, Note_off_c, 12, 59, 127
2, 595568, Note_on_c, 0, 60, 127
2, 595568, Note_on_c, 4, 76, 127
2, 595733, Note_off_c, 4, 76, 127
2, 595733, Note_off_c, 0, 60, 127
2, 595737, Note_on_c, 2, 62, 127
2, 595737, Note_on_c, 5, 77, 127
2, 595902, Note_off_c, 5, 77, 127
2, 595902, Note_off_c, 2, 62, 127
2, 595906, Note_on_c, 4, 64, 127
2, 595906, Note_on_c, 7, 79, 127
2, 596071, Note_off_c, 7, 79, 127
2, 596071, Note_off_c, 4, 64, 127
2, 596073, Note_on_c, 5, 65, 127
2, 596073, Note_on_c, 10, 81, 127
2, 596154, Note_off_c, 10, 81, 127
2, 596154, Note_off_c, 5, 65, 127
2, 596158, Note_on_c, 4, 64, 127
2, 596158, Note_on_c, 7, 79, 127
2, 596239, Note_off_c, 7, 79, 127
2, 596239, Note_off_c, 4, 64, 127
2, 596242, Note_on_c, 2, 62, 127
2, 596242, Note_on_c, 5, 77, 127
2, 596407, Note_off_c, 5, 77, 127
2, 596407, Note_off_c, 2, 62, 127
2, 596411, Note_on_c, 4, 64, 127
2, 596411, Note_on_c, 7, 79, 127
2, 596576, Note_off_c, 7, 79, 127
2, 596576, Note_off_c, 4, 64, 127
2, 596578, Note_on_c, 5, 65, 127
2, 596578, Note_on_c, 10, 81, 127
2, 596743, Note_off_c, 10, 81, 127
2, 596743, Note_off_c, 5, 65, 127
2, 596747, Note_on_c, 5, 53, 127
2, 596747, Note_on_c, 10, 69, 127
2, 596912, Note_off_c, 10, 69, 127
2, 596912, Note_off_c, 5, 53, 127
2, 596916, Note_on_c, 7, 55, 127
2, 596916, Note_on_c, 12, 71, 127
2, 597081, Note_off_c, 12, 71, 127
2, 597081, Note_off_c, 7, 55, 127
2, 597083, Note_on_c, 10, 57, 127
2, 597083, Note_on_c, 0, 72, 127
2, 597248, Note_off_c, 0, 72, 127
2, 597248, Note_off_c, 10, 57, 127
2, 597252, Note_on_c, 12, 59, 127
2, 597252, Note_on_c, 2, 74, 127
2, 597417, Note_off_c, 2, 74, 127
2, 597417, Note_off_c, 12, 59, 127
2, 597421, Note_on_c, 0, 60, 127
2, 597421, Note_on_c, 4, 76, 127
2, 597586, Note_off_c, 4, 76, 127
2, 597586, Note_off_c, 0, 60, 127
2, 597588, Note_on_c, 2, 62, 127
2, 597588, Note_on_c, 5, 77, 127
2, 597753, Note_off_c, 5, 77, 127
2, 597753, Note_off_c, 2, 62, 127
2, 597757, Note_on_c, 4, 64, 127
2, 597757, Note_on_c, 7, 79, 127
2, 597922, Note_off_c, 7, 79, 127
2, 597922, Note_off_c, 4, 64, 127
2, 597926, Note_on_c, 5, 65, 127
2, 597926, Note_on_c, 10, 81, 127
2, 598091, Note_off_c, 10, 81, 127
2, 598091, Note_off_c, 5, 65, 127
2, 598093, Note_on_c, 7, 67, 127
2, 598093, Note_on_c, 12, 83, 127
2, 598174, Note_off_c, 12, 83, 127
2, 598174, Note_off_c, 7, 67, 127
2, 598178, Note_on_c, 5, 65, 127
2, 598178, Note_on_c, 10, 81, 127
2, 598259, Note_off_c, 10, 81, 127
2, 598259, Note_off_c, 5, 65, 127
2, 598262, Note_on_c, 4, 64, 127
2, 598262, Note_on_c, 7, 79, 127
2, 598427, Note_off_c, 7, 79, 127
2, 598427, Note_off_c, 4, 64, 127
2, 598431, Note_on_c, 5, 65, 127
2, 598431, Note_on_c, 10, 81, 127
2, 598596, Note_off_c, 10, 81, 127
2, 598596, Note_off_c, 5, 65, 127
2, 598598, Note_on_c, 7, 67, 127
2, 598598, Note_on_c, 12, 83, 127
2, 598763, Note_off_c, 12, 83, 127
2, 598763, Note_off_c, 7, 67, 127
2, 598767, Note_on_c, 7, 55, 127
2, 598767, Note_on_c, 12, 71, 127
2, 598932, Note_off_c, 12, 71, 127
2, 598932, Note_off_c, 7, 55, 127
2, 598936, Note_on_c, 10, 57, 127
2, 598936, Note_on_c, 0, 72, 127
2, 599101, Note_off_c, 0, 72, 127
2, 599101, Note_off_c, 10, 57, 127
2, 599103, Note_on_c, 12, 59, 127
2, 599103, Note_on_c, 2, 74, 127
2, 599268, Note_off_c, 2, 74, 127
2, 599268, Note_off_c, 12, 59, 127
2, 599272, Note_on_c, 0, 60, 127
2, 599272, Note_on_c, 4, 76, 127
2, 599437, Note_off_c, 4, 76, 127
2, 599437, Note_off_c, 0, 60, 127
2, 599441, Note_on_c, 2, 62, 127
2, 599441, Note_on_c, 5, 77, 127
2, 599606, Note_off_c, 5, 77, 127
2, 599606, Note_off_c, 2, 62, 127
2, 599608, Note_on_c, 4, 64, 127
2, 599608, Note_on_c, 7, 79, 127
2, 599773, Note_off_c, 7, 79, 127
2, 599773, Note_off_c, 4, 64, 127
2, 599777, Note_on_c, 5, 65, 127
2, 599777, Note_on_c, 10, 81, 127
2, 599942, Note_off_c, 10, 81, 127
2, 599942, Note_off_c, 5, 65, 127
2, 599946, Note_on_c, 7, 67, 127
2, 599946, Note_on_c, 12, 83, 127
2, 600111, Note_off_c, 12, 83, 127
2, 600111, Note_off_c, 7, 67, 127
2, 600113, Note_on_c, 10, 69, 127
2, 600113, Note_on_c, 0, 84, 127
2, 600194, Note_off_c, 0, 84, 127
2, 600194, Note_off_c, 10, 69, 127
2, 600198, Note_on_c, 7, 67, 127
2, 600198, Note_on_c, 12, 83, 127
2, 600279, Note_off_c, 12, 83, 127
2, 600279, Note_off_c, 7, 67, 127
2, 600282, Note_on_c, 5, 65, 127
2, 600282, Note_on_c, 10, 81, 127
2, 600447, Note_off_c, 10, 81, 127
2, 600447, Note_off_c, 5, 65, 127
2, 600451, Note_on_c, 7, 67, 127
2, 600451, Note_on_c, 12, 83, 127
2, 600616, Note_off_c, 12, 83, 127
2, 600616, Note_off_c, 7, 67, 127
2, 600618, Note_on_c, 10, 69, 127
2, 600618, Note_on_c, 0, 84, 127
2, 600783, Note_off_c, 0, 84, 127
2, 600783, Note_off_c, 10, 69, 127
2, 600787, Note_on_c, 10, 57, 127
2, 600787, Note_on_c, 0, 72, 127
2, 600952, Note_off_c, 0, 72, 127
2, 600952, Note_off_c, 10, 57, 127
2, 600956, Note_on_c, 12, 59, 127
2, 600956, Note_on_c, 2, 74, 127
2, 601121, Note_off_c, 2, 74, 127
2, 601121, Note_off_c, 12, 59, 127
2, 601123, Note_on_c, 0, 60, 127
2, 601123, Note_on_c, 4, 76, 127
2, 601288, Note_off_c, 4, 76, 127
2, 601288, Note_off_c, 0, 60, 127
2, 601292, Note_on_c, 2, 62, 127
2, 601292, Note_on_c, 5, 77, 127
2, 601457, Note_off_c, 5, 77, 127
2, 601457, Note_off_c, 2, 62, 127
2, 601461, Note_on_c, 4, 64, 127
2, 601461, Note_on_c, 7, 79, 127
2, 601626, Note_off_c, 7, 79, 127
2, 601626, Note_off_c, 4, 64, 127
2, 601628, Note_on_c, 5, 65, 127
2, 601628, Note_on_c, 10, 81, 127
2, 601793, Note_off_c, 10, 81, 127
2, 601793, Note_off_c, 5, 65, 127
2, 601797, Note_on_c, 7, 55, 127
2, 601797, Note_on_c, 12, 71, 127
2, 601962, Note_off_c, 12, 71, 127
2, 601962, Note_off_c, 7, 55, 127
2, 601966, Note_on_c, 10, 57, 127
2, 601966, Note_on_c, 0, 72, 127
2, 602131, Note_off_c, 0, 72, 127
2, 602131, Note_off_c, 10, 57, 127
2, 602133, Note_on_c, 12, 59, 127
2, 602133, Note_on_c, 2, 74, 127
2, 602298, Note_off_c, 2, 74, 127
2, 602298, Note_off_c, 12, 59, 127
2, 602302, Note_on_c, 0, 60, 127
2, 602302, Note_on_c, 4, 76, 127
2, 602467, Note_off_c, 4, 76, 127
2, 602467, Note_off_c, 0, 60, 127
2, 602471, Note_on_c, 2, 62, 127
2, 602471, Note_on_c, 5, 77, 127
2, 602636, Note_off_c, 5, 77, 127
2, 602636, Note_off_c, 2, 62, 127
2, 602638, Note_on_c, 4, 64, 127
2, 602638, Note_on_c, 7, 79, 127
2, 602803, Note_off_c, 7, 79, 127
2, 602803, Note_off_c, 4, 64, 127
2, 602807, Note_on_c, 5, 53, 127
2, 602807, Note_on_c, 10, 69, 127
2, 602972, Note_off_c, 10, 69, 127
2, 602972, Note_off_c, 5, 53, 127
2, 602976, Note_on_c, 7, 55, 127
2, 602976, Note_on_c, 12, 71, 127
2, 603141, Note_off_c, 12, 71, 127
2, 603141, Note_off_c, 7, 55, 127
2, 603143, Note_on_c, 10, 57, 127
2, 603143, Note_on_c, 0, 72, 127
2, 603308, Note_off_c, 0, 72, 127
2, 603308, Note_off_c, 10, 57, 127
2, 603312, Note_on_c, 12, 59, 127
2, 603312, Note_on_c, 2, 74, 127
2, 603477, Note_off_c, 2, 74, 127
2, 603477, Note_off_c, 12, 59, 127
2, 603481, Note_on_c, 0, 60, 127
2, 603481, Note_on_c, 4, 76, 127
2, 603646, Note_off_c, 4, 76, 127
2, 603646, Note_off_c, 0, 60, 127
2, 603648, Note_on_c, 2, 62, 127
2, 603648, Note_on_c, 5, 77, 127
2, 603813, Note_off_c, 5, 77, 127
2, 603813, Note_off_c, 2, 62, 127
2, 603817, Note_on_c, 4, 64, 127
2, 603817, Note_on_c, 7, 79, 127
2, 603982, Note_off_c, 7, 79, 127
2, 603982, Note_off_c, 4, 64, 127
2, 603986, Note_on_c, 5, 65, 127
2, 603986, Note_on_c, 10, 81, 127
2, 604151, Note_off_c, 10, 81, 127
2, 604151, Note_off_c, 5, 65, 127
2, 604153, Note_on_c, 12, 59, 127
2, 604153, Note_on_c, 2, 74, 127
2, 604318, Note_off_c, 2, 74, 127
2, 604318, Note_off_c, 12, 59, 127
2, 604322, Note_on_c, 0, 60, 127
2, 604322, Note_on_c, 4, 76, 127
2, 604487, Note_off_c, 4, 76, 127
2, 604487, Note_off_c, 0, 60, 127
2, 604491, Note_on_c, 2, 62, 127
2, 604491, Note_on_c, 5, 77, 127
2, 604656, Note_off_c, 5, 77, 127
2, 604656, Note_off_c, 2, 62, 127
2, 604658, Note_on_c, 7, 55, 127
2, 604658, Note_on_c, 12, 71, 127
2, 604823, Note_off_c, 12, 71, 127
2, 604827, Note_on_c, 0, 72, 127
2, 604992, Note_off_c, 0, 72, 127
2, 604996, Note_on_c, 2, 74, 127
2, 605161, Note_off_c, 2, 74, 127
2, 605163, Note_on_c, 7, 67, 127
2, 605328, Note_off_c, 7, 67, 127
2, 605330, Note_off_c, 7, 55, 127
2, 605333, Note_on_c, 10, 69, 127
2, 605498, Note_off_c, 10, 69, 127
2, 605502, Note_on_c, 5, 65, 127
2, 605502, Note_on_c, 12, 71, 127
2, 605667, Note_off_c, 12, 71, 127
2, 605667, Note_off_c, 5, 65, 127
2, 605669, Note_on_c, 4, 64, 127
2, 605669, Note_on_c, 0, 72, 127
2, 605834, Note_off_c, 4, 64, 127
2, 605838, Note_on_c, 5, 65, 127
2, 606003, Note_off_c, 5, 65, 127
2, 606003, Note_off_c, 0, 72, 127
2, 606007, Note_on_c, 7, 67, 127
2, 606007, Note_on_c, 0, 72, 127
2, 606172, Note_off_c, 0, 72, 127
2, 606172, Note_off_c, 7, 67, 127
2, 606174, Note_on_c, 0, 60, 127
2, 606174, Note_on_c, 0, 72, 127
2, 606339, Note_off_c, 0, 72, 127
2, 606339, Note_off_c, 0, 60, 127
2, 606343, Note_on_c, 2, 62, 127
2, 606343, Note_on_c, 12, 71, 127
2, 606508, Note_off_c, 12, 71, 127
2, 606508, Note_off_c, 2, 62, 127
2, 606512, Note_on_c, 4, 64, 127
2, 606512, Note_on_c, 0, 72, 127
2, 606677, Note_off_c, 0, 72, 127
2, 606677, Note_off_c, 4, 64, 127
2, 606679, Note_on_c, 12, 59, 127
2, 606679, Note_on_c, 2, 74, 127
2, 606844, Note_off_c, 2, 74, 127
2, 606844, Note_off_c, 12, 59, 127
2, 606848, Note_on_c, 0, 60, 127
2, 606848, Note_on_c, 5, 65, 127
2, 607013, Note_off_c, 5, 65, 127
2, 607013, Note_off_c, 0, 60, 127
2, 607017, Note_on_c, 2, 62, 127
2, 607017, Note_on_c, 2, 74, 127
2, 607182, Note_off_c, 2, 74, 127
2, 607182, Note_off_c, 2, 62, 127
2, 607184, Note_on_c, 7, 55, 127
2, 607184, Note_on_c, 4, 64, 127
2, 607349, Note_off_c, 4, 64, 127
2, 607349, Note_off_c, 7, 55, 127
2, 607353, Note_on_c, 10, 57, 127
2, 607353, Note_on_c, 5, 65, 127
2, 607518, Note_off_c, 5, 65, 127
2, 607518, Note_off_c, 10, 57, 127
2, 607522, Note_on_c, 12, 59, 127
2, 607522, Note_on_c, 2, 62, 127
2, 607687, Note_off_c, 2, 62, 127
2, 607687, Note_off_c, 12, 59, 127
2, 607689, Note_on_c, 4, 52, 127
2, 607689, Note_on_c, 0, 60, 127
2, 607854, Note_off_c, 0, 60, 127
2, 607854, Note_off_c, 4, 52, 127
2, 607858, Note_on_c, 5, 53, 127
2, 607858, Note_on_c, 4, 64, 127
2, 608023, Note_off_c, 4, 64, 127
2, 608023, Note_off_c, 5, 53, 127
2, 608027, Note_on_c, 7, 55, 127
2, 608027, Note_on_c, 7, 67, 127
2, 608192, Note_off_c, 7, 67, 127
2, 608192, Note_off_c, 7, 55, 127
2, 608194, Note_on_c, 0, 48, 127
2, 608194, Note_on_c, 4, 64, 127
2, 608359, Note_off_c, 4, 64, 127
2, 608359, Note_off_c, 0, 48, 127
2, 608363, Note_on_c, 2, 50, 127
2, 608363, Note_on_c, 7, 67, 127
2, 608528, Note_off_c, 7, 67, 127
2, 608528, Note_off_c, 2, 50, 127
2, 608532, Note_on_c, 4, 52, 127
2, 608532, Note_on_c, 0, 72, 127
2, 608697, Note_off_c, 0, 72, 127
2, 608697, Note_off_c, 4, 52, 127
2, 608699, Note_on_c, 12, 47, 127
2, 608699, Note_on_c, 7, 67, 127
2, 608864, Note_off_c, 7, 67, 127
2, 608864, Note_off_c, 12, 47, 127
2, 608868, Note_on_c, 0, 48, 127
2, 608868, Note_on_c, 12, 71, 127
2, 609033, Note_off_c, 12, 71, 127
2, 609033, Note_off_c, 0, 48, 127
2, 609037, Note_on_c, 2, 50, 127
2, 609037, Note_on_c, 2, 74, 127
2, 609202, Note_off_c, 2, 74, 127
2, 609202, Note_off_c, 2, 50, 127
2, 609204, Note_on_c, 7, 43, 127
2, 609204, Note_on_c, 12, 71, 127
2, 609369, Note_off_c, 12, 71, 127
2, 609369, Note_off_c, 7, 43, 127
2, 609373, Note_on_c, 10, 45, 127
2, 609373, Note_on_c, 2, 74, 127
2, 609538, Note_off_c, 2, 74, 127
2, 609538, Note_off_c, 10, 45, 127
2, 609542, Note_on_c, 12, 47, 127
2, 609542, Note_on_c, 7, 79, 127
2, 609707, Note_off_c, 7, 79, 127
2, 609707, Note_off_c, 12, 47, 127
2, 609709, Note_on_c, 4, 40, 127
2, 609709, Note_on_c, 7, 79, 127
2, 609874, Note_off_c, 7, 79, 127
2, 609878, Note_on_c, 4, 76, 127
2, 610043, Note_off_c, 4, 76, 127
2, 610047, Note_on_c, 0, 72, 127
2, 610212, Note_off_c, 0, 72, 127
2, 610214, Note_off_c, 4, 40, 127
2, 610216, Note_on_c, 11, 70, 127
2, 610381, Note_off_c, 11, 70, 127
2, 610385, Note_on_c, 10, 69, 127
2, 610550, Note_off_c, 10, 69, 127
2, 610553, Note_on_c, 4, 52, 127
2, 610553, Note_on_c, 7, 67, 127
2, 610718, Note_off_c, 7, 67, 127
2, 610718, Note_off_c, 4, 52, 127
2, 610721, Note_on_c, 5, 53, 127
2, 610721, Note_on_c, 10, 69, 127
2, 610801, Note_off_c, 10, 69, 127
2, 610801, Note_on_c, 7, 67, 127
2, 610881, Note_off_c, 7, 67, 127
2, 610881, Note_on_c, 10, 69, 127
2, 610886, Note_off_c, 5, 53, 127
2, 610890, Note_on_c, 7, 55, 127
2, 611055, Note_off_c, 7, 55, 127
2, 611058, Note_on_c, 10, 57, 127
2, 611223, Note_off_c, 10, 57, 127
2, 611227, Note_on_c, 10, 57, 127
2, 611261, Note_off_c, 10, 69, 127
2, 611392, Note_off_c, 10, 57, 127
2, 611396, Note_on_c, 12, 59, 127
2, 611561, Note_off_c, 12, 59, 127
2, 611564, Note_on_c, 0, 60, 127
2, 611564, Note_on_c, 10, 69, 127
2, 611729, Note_off_c, 10, 69, 127
2, 611729, Note_off_c, 0, 60, 127
2, 611732, Note_on_c, 2, 38, 127
2, 611732, Note_on_c, 5, 77, 127
2, 611897, Note_off_c, 5, 77, 127
2, 611901, Note_on_c, 2, 74, 127
2, 612066, Note_off_c, 2, 74, 127
2, 612069, Note_on_c, 12, 71, 127
2, 612234, Note_off_c, 12, 71, 127
2, 612237, Note_off_c, 2, 38, 127
2, 612239, Note_on_c, 10, 69, 127
2, 612404, Note_off_c, 10, 69, 127
2, 612408, Note_on_c, 7, 67, 127
2, 612573, Note_off_c, 7, 67, 127
2, 612576, Note_on_c, 2, 50, 127
2, 612576, Note_on_c, 5, 65, 127
2, 612741, Note_off_c, 5, 65, 127
2, 612741, Note_off_c, 2, 50, 127
2, 612744, Note_on_c, 4, 52, 127
2, 612744, Note_on_c, 7, 67, 127
2, 612824, Note_off_c, 7, 67, 127
2, 612824, Note_on_c, 5, 65, 127
2, 612904, Note_off_c, 5, 65, 127
2, 612905, Note_on_c, 7, 67, 127
2, 612909, Note_off_c, 4, 52, 127
2, 612913, Note_on_c, 5, 53, 127
2, 613078, Note_off_c, 5, 53, 127
2, 613081, Note_on_c, 7, 55, 127
2, 613246, Note_off_c, 7, 55, 127
2, 613250, Note_on_c, 7, 55, 127
2, 613285, Note_off_c, 7, 67, 127
2, 613415, Note_off_c, 7, 55, 127
2, 613418, Note_on_c, 10, 57, 127
2, 613583, Note_off_c, 10, 57, 127
2, 613587, Note_on_c, 12, 59, 127
2, 613587, Note_on_c, 7, 67, 127
2, 613752, Note_off_c, 7, 67, 127
2, 613752, Note_off_c, 12, 59, 127
2, 613755, Note_on_c, 0, 36, 127
2, 613755, Note_on_c, 4, 76, 127
2, 613920, Note_off_c, 4, 76, 127
2, 613923, Note_on_c, 0, 72, 127
2, 614088, Note_off_c, 0, 72, 127
2, 614092, Note_on_c, 10, 69, 127
2, 614257, Note_off_c, 10, 69, 127
2, 614257, Note_off_c, 0, 36, 127
2, 614260, Note_on_c, 0, 48, 127
2, 614260, Note_on_c, 7, 67, 127
2, 614425, Note_off_c, 7, 67, 127
2, 614428, Note_on_c, 5, 65, 127
2, 614593, Note_off_c, 5, 65, 127
2, 614597, Note_on_c, 4, 64, 127
2, 614762, Note_off_c, 4, 64, 127
2, 614765, Note_on_c, 2, 74, 127
2, 614930, Note_off_c, 2, 74, 127
2, 614933, Note_on_c, 12, 71, 127
2, 615098, Note_off_c, 12, 71, 127
2, 615102, Note_on_c, 7, 67, 127
2, 615267, Note_off_c, 7, 67, 127
2, 615267, Note_off_c, 0, 48, 127
2, 615270, Note_on_c, 12, 47, 127
2, 615270, Note_on_c, 5, 65, 127
2, 615435, Note_off_c, 5, 65, 127
2, 615438, Note_on_c, 4, 64, 127
2, 615603, Note_off_c, 4, 64, 127
2, 615607, Note_on_c, 2, 62, 127
2, 615772, Note_off_c, 2, 62, 127
2, 615772, Note_off_c, 12, 47, 127
2, 615775, Note_on_c, 0, 48, 127
2, 615775, Note_on_c, 4, 64, 127
2, 615940, Note_off_c, 4, 64, 127
2, 615943, Note_on_c, 7, 67, 127
2, 616108, Note_off_c, 7, 67, 127
2, 616112, Note_on_c, 0, 72, 127
2, 616277, Note_off_c, 0, 48, 127
2, 616280, Note_on_c, 10, 45, 127
2, 616280, Note_on_c, 6, 66, 127
2, 616302, Note_off_c, 0, 72, 127
2, 616445, Note_off_c, 6, 66, 127
2, 616448, Note_on_c, 2, 74, 127
2, 616613, Note_off_c, 2, 74, 127
2, 616617, Note_on_c, 0, 72, 127
2, 616782, Note_off_c, 0, 72, 127
2, 616782, Note_off_c, 10, 45, 127
2, 616785, Note_on_c, 7, 43, 127
2, 616785, Note_on_c, 12, 71, 127
2, 616950, Note_off_c, 12, 71, 127
2, 616953, Note_on_c, 0, 72, 127
2, 617118, Note_off_c, 0, 72, 127
2, 617122, Note_on_c, 2, 74, 127
2, 617287, Note_off_c, 2, 74, 127
2, 617290, Note_on_c, 7, 67, 127
2, 617455, Note_off_c, 7, 43, 127
2, 617458, Note_on_c, 10, 45, 127
2, 617623, Note_off_c, 10, 45, 127
2, 617624, Note_off_c, 7, 67, 127
2, 617627, Note_on_c, 12, 47, 127
2, 617627, Note_on_c, 2, 74, 127
2, 617792, Note_off_c, 2, 74, 127
2, 617792, Note_off_c, 12, 47, 127
2, 617795, Note_on_c, 0, 48, 127
2, 617795, Note_on_c, 4, 76, 127
2, 617960, Note_off_c, 4, 76, 127
2, 617960, Note_off_c, 0, 48, 127
2, 617963, Note_on_c, 2, 50, 127
2, 617963, Note_on_c, 5, 77, 127
2, 618128, Note_off_c, 5, 77, 127
2, 618128, Note_off_c, 2, 50, 127
2, 618132, Note_on_c, 4, 52, 127
2, 618132, Note_on_c, 7, 79, 127
2, 618297, Note_off_c, 7, 79, 127
2, 618297, Note_off_c, 4, 52, 127
2, 618300, Note_on_c, 12, 47, 127
2, 618300, Note_on_c, 7, 67, 127
2, 618465, Note_off_c, 7, 67, 127
2, 618465, Note_off_c, 12, 47, 127
2, 618468, Note_on_c, 0, 48, 127
2, 618468, Note_on_c, 10, 69, 127
2, 618633, Note_off_c, 10, 69, 127
2, 618633, Note_off_c, 0, 48, 127
2, 618637, Note_on_c, 2, 50, 127
2, 618637, Note_on_c, 12, 71, 127
2, 618802, Note_off_c, 12, 71, 127
2, 618802, Note_off_c, 2, 50, 127
2, 618805, Note_on_c, 4, 52, 127
2, 618805, Note_on_c, 0, 72, 127
2, 618970, Note_off_c, 0, 72, 127
2, 618970, Note_off_c, 4, 52, 127
2, 618973, Note_on_c, 5, 53, 127
2, 618973, Note_on_c, 2, 74, 127
2, 619138, Note_off_c, 2, 74, 127
2, 619138, Note_off_c, 5, 53, 127
2, 619142, Note_on_c, 7, 55, 127
2, 619142, Note_on_c, 4, 76, 127
2, 619307, Note_off_c, 4, 76, 127
2, 619307, Note_off_c, 7, 55, 127
2, 619310, Note_on_c, 7, 55, 127
2, 619310, Note_on_c, 12, 71, 127
2, 619475, Note_off_c, 12, 71, 127
2, 619475, Note_off_c, 7, 55, 127
2, 619478, Note_on_c, 10, 57, 127
2, 619478, Note_on_c, 0, 72, 127
2, 619643, Note_off_c, 0, 72, 127
2, 619643, Note_off_c, 10, 57, 127
2, 619647, Note_on_c, 12, 59, 127
2, 619647, Note_on_c, 2, 74, 127
2, 619812, Note_off_c, 2, 74, 127
2, 619812, Note_off_c, 12, 59, 127
2, 619815, Note_on_c, 0, 60, 127
2, 619815, Note_on_c, 4, 76, 127
2, 619980, Note_off_c, 4, 76, 127
2, 619980, Note_off_c, 0, 60, 127
2, 619983, Note_on_c, 2, 62, 127
2, 619983, Note_on_c, 5, 77, 127
2, 620148, Note_off_c, 5, 77, 127
2, 620148, Note_off_c, 2, 62, 127
2, 620152, Note_on_c, 4, 64, 127
2, 620152, Note_on_c, 7, 79, 127
2, 620317, Note_off_c, 7, 79, 127
2, 620317, Note_off_c, 4, 64, 127
2, 620320, Note_on_c, 12, 59, 127
2, 620320, Note_on_c, 7, 67, 127
2, 620485, Note_off_c, 7, 67, 127
2, 620485, Note_off_c, 12, 59, 127
2, 620488, Note_on_c, 0, 60, 127
2, 620488, Note_on_c, 10, 69, 127
2, 620653, Note_off_c, 10, 69, 127
2, 620653, Note_off_c, 0, 60, 127
2, 620657, Note_on_c, 2, 62, 127
2, 620657, Note_on_c, 12, 71, 127
2, 620822, Note_off_c, 12, 71, 127
2, 620822, Note_off_c, 2, 62, 127
2, 620825, Note_on_c, 4, 64, 127
2, 620825, Note_on_c, 0, 72, 127
2, 620990, Note_off_c, 0, 72, 127
2, 620990, Note_off_c, 4, 64, 127
2, 620993, Note_on_c, 5, 65, 127
2, 620993, Note_on_c, 2, 74, 127
2, 621158, Note_off_c, 2, 74, 127
2, 621158, Note_off_c, 5, 65, 127
2, 621162, Note_on_c, 7, 67, 127
2, 621162, Note_on_c, 4, 76, 127
2, 621327, Note_off_c, 4, 76, 127
2, 621327, Note_off_c, 7, 67, 127
2, 621330, Note_on_c, 7, 67, 127
2, 621330, Note_on_c, 12, 71, 127
2, 621495, Note_off_c, 12, 71, 127
2, 621495, Note_off_c, 7, 67, 127
2, 621498, Note_on_c, 10, 69, 127
2, 621498, Note_on_c, 0, 72, 127
2, 621663, Note_off_c, 0, 72, 127
2, 621663, Note_off_c, 10, 69, 127
2, 621667, Note_on_c, 12, 71, 127
2, 621667, Note_on_c, 2, 74, 127
2, 621832, Note_off_c, 2, 74, 127
2, 621832, Note_off_c, 12, 71, 127
2, 621835, Note_on_c, 0, 72, 127
2, 621835, Note_on_c, 4, 76, 127
2, 622000, Note_off_c, 4, 76, 127
2, 622003, Note_on_c, 5, 77, 127
2, 622168, Note_off_c, 5, 77, 127
2, 622169, Note_off_c, 0, 72, 127
2, 622172, Note_on_c, 5, 65, 127
2, 622172, Note_on_c, 7, 79, 127
2, 622337, Note_off_c, 7, 79, 127
2, 622337, Note_off_c, 5, 65, 127
2, 622340, Note_on_c, 7, 67, 127
2, 622340, Note_on_c, 5, 77, 127
2, 622421, Note_off_c, 5, 77, 127
2, 622424, Note_on_c, 4, 76, 127
2, 622505, Note_off_c, 4, 76, 127
2, 622508, Note_on_c, 2, 74, 127
2, 622673, Note_off_c, 2, 74, 127
2, 622674, Note_off_c, 7, 67, 127
2, 622677, Note_on_c, 7, 55, 127
2, 622677, Note_on_c, 0, 72, 127
2, 622842, Note_off_c, 0, 72, 127
2, 622842, Note_off_c, 7, 55, 127
2, 622845, Note_on_c, 0, 48, 127
2, 622845, Note_on_c, 0, 72, 127
2, 623010, Note_off_c, 0, 72, 127
2, 623013, Note_on_c, 7, 67, 127
2, 623178, Note_off_c, 7, 67, 127
2, 623182, Note_on_c, 4, 64, 127
2, 623347, Note_off_c, 4, 64, 127
2, 623350, Note_on_c, 0, 60, 127
2, 623515, Note_off_c, 0, 48, 127
2, 623518, Note_on_c, 7, 43, 127
2, 623683, Note_off_c, 7, 43, 127
2, 623684, Note_off_c, 0, 60, 127
2, 623687, Note_on_c, 4, 40, 127
2, 623687, Note_on_c, 7, 67, 127
2, 623852, Note_off_c, 7, 67, 127
2, 623852, Note_off_c, 4, 40, 127
2, 623855, Note_on_c, 0, 36, 127
2, 623855, Note_on_c, 0, 72, 127
2, 624188, Note_off_c, 0, 72, 127
2, 624191, Note_on_c, 0, 72, 127
2, 624356, Note_off_c, 0, 72, 127
2, 624356, Note_off_c, 0, 36, 127
2, 624359, Note_on_c, 0, 48, 127
2, 624359, Note_on_c, 0, 72, 127
2, 624524, Note_off_c, 0, 72, 127
2, 624528, Note_on_c, 2, 74, 127
2, 624693, Note_off_c, 2, 74, 127
2, 624696, Note_on_c, 4, 76, 127
2, 624861, Note_off_c, 4, 76, 127
2, 624864, Note_on_c, 2, 74, 127
2, 625029, Note_off_c, 2, 74, 127
2, 625033, Note_on_c, 5, 65, 127
2, 625198, Note_off_c, 5, 65, 127
2, 625201, Note_on_c, 2, 74, 127
2, 625366, Note_off_c, 2, 74, 127
2, 625366, Note_off_c, 0, 48, 127
2, 625369, Note_on_c, 12, 47, 127
2, 625369, Note_on_c, 7, 67, 127
2, 625534, Note_off_c, 7, 67, 127
2, 625538, Note_on_c, 10, 69, 127
2, 625703, Note_off_c, 10, 69, 127
2, 625706, Note_on_c, 5, 65, 127
2, 625871, Note_off_c, 5, 65, 127
2, 625871, Note_off_c, 12, 47, 127
2, 625874, Note_on_c, 0, 48, 127
2, 625874, Note_on_c, 4, 64, 127
2, 626039, Note_off_c, 4, 64, 127
2, 626043, Note_on_c, 0, 72, 127
2, 626208, Note_off_c, 0, 72, 127
2, 626211, Note_on_c, 4, 64, 127
2, 626376, Note_off_c, 4, 64, 127
2, 626376, Note_off_c, 0, 48, 127
2, 626379, Note_on_c, 5, 41, 127
2, 626379, Note_on_c, 2, 62, 127
2, 626544, Note_off_c, 2, 62, 127
2, 626548, Note_on_c, 4, 64, 127
2, 626713, Note_off_c, 4, 64, 127
2, 626716, Note_on_c, 0, 60, 127
2, 626881, Note_off_c, 0, 60, 127
2, 626881, Note_off_c, 5, 41, 127
2, 626884, Note_on_c, 7, 43, 127
2, 626884, Note_on_c, 12, 59, 127
2, 627049, Note_off_c, 12, 59, 127
2, 627053, Note_on_c, 0, 60, 127
2, 627218, Note_off_c, 0, 60, 127
2, 627221, Note_on_c, 2, 62, 127
2, 627386, Note_off_c, 2, 62, 127
2, 627389, Note_on_c, 7, 55, 127
2, 627554, Note_off_c, 7, 43, 127
2, 627558, Note_on_c, 10, 45, 127
2, 627723, Note_off_c, 10, 45, 127
2, 627723, Note_off_c, 7, 55, 127
2, 627726, Note_on_c, 12, 47, 127
2, 627726, Note_on_c, 2, 62, 127
2, 627891, Note_off_c, 2, 62, 127
2, 627891, Note_off_c, 12, 47, 127
2, 627894, Note_on_c, 0, 48, 127
2, 627894, Note_on_c, 4, 64, 127
2, 628059, Note_off_c, 4, 64, 127
2, 628059, Note_off_c, 0, 48, 127
2, 628063, Note_on_c, 2, 50, 127
2, 628063, Note_on_c, 6, 66, 127
2, 628228, Note_off_c, 6, 66, 127
2, 628228, Note_off_c, 2, 50, 127
2, 628231, Note_on_c, 4, 52, 127
2, 628231, Note_on_c, 7, 67, 127
2, 628396, Note_off_c, 7, 67, 127
2, 628396, Note_off_c, 4, 52, 127
2, 628399, Note_on_c, 6, 54, 127
2, 628399, Note_on_c, 10, 69, 127
2, 628564, Note_off_c, 10, 69, 127
2, 628564, Note_off_c, 6, 54, 127
2, 628568, Note_on_c, 7, 55, 127
2, 628568, Note_on_c, 12, 71, 127
2, 628733, Note_off_c, 12, 71, 127
2, 628733, Note_off_c, 7, 55, 127
2, 628736, Note_on_c, 10, 57, 127
2, 628736, Note_on_c, 0, 72, 127
2, 628901, Note_off_c, 0, 72, 127
2, 628901, Note_off_c, 10, 57, 127
2, 628904, Note_on_c, 12, 47, 127
2, 628904, Note_on_c, 3, 63, 127
2, 629069, Note_off_c, 12, 47, 127
2, 629073, Note_on_c, 12, 59, 127
2, 629238, Note_off_c, 12, 59, 127
2, 629238, Note_off_c, 3, 63, 127
2, 629241, Note_on_c, 10, 57, 127
2, 629241, Note_on_c, 0, 72, 127
2, 629406, Note_off_c, 0, 72, 127
2, 629406, Note_off_c, 10, 57, 127
2, 629409, Note_on_c, 8, 56, 127
2, 629409, Note_on_c, 12, 71, 127
2, 629574, Note_off_c, 8, 56, 127
2, 629578, Note_on_c, 10, 57, 127
2, 629743, Note_off_c, 10, 57, 127
2, 629746, Note_on_c, 6, 54, 127
2, 629859, Note_off_c, 12, 71, 127
2, 629911, Note_off_c, 6, 54, 127
2, 629914, Note_on_c, 8, 56, 127
2, 629914, Note_on_c, 2, 62, 127
2, 630079, Note_off_c, 2, 62, 127
2, 630079, Note_off_c, 8, 56, 127
2, 630083, Note_on_c, 6, 54, 127
2, 630083, Note_on_c, 4, 64, 127
2, 630248, Note_off_c, 4, 64, 127
2, 630248, Note_off_c, 6, 54, 127
2, 630251, Note_on_c, 4, 52, 127
2, 630251, Note_on_c, 6, 66, 127
2, 630416, Note_off_c, 6, 66, 127
2, 630416, Note_off_c, 4, 52, 127
2, 630419, Note_on_c, 2, 50, 127
2, 630419, Note_on_c, 8, 68, 127
2, 630584, Note_off_c, 8, 68, 127
2, 630584, Note_off_c, 2, 50, 127
2, 630588, Note_on_c, 0, 48, 127
2, 630588, Note_on_c, 10, 69, 127
2, 630753, Note_off_c, 10, 69, 127
2, 630753, Note_off_c, 0, 48, 127
2, 630756, Note_on_c, 12, 47, 127
2, 630756, Note_on_c, 12, 71, 127
2, 630921, Note_off_c, 12, 71, 127
2, 630921, Note_off_c, 12, 47, 127
2, 630924, Note_on_c, 10, 45, 127
2, 630924, Note_on_c, 1, 61, 127
2, 631089, Note_off_c, 10, 45, 127
2, 631093, Note_on_c, 10, 57, 127
2, 631258, Note_off_c, 10, 57, 127
2, 631258, Note_off_c, 1, 61, 127
2, 631261, Note_on_c, 7, 55, 127
2, 631261, Note_on_c, 12, 71, 127
2, 631426, Note_off_c, 12, 71, 127
2, 631426, Note_off_c, 7, 55, 127
2, 631429, Note_on_c, 6, 54, 127
2, 631429, Note_on_c, 10, 69, 127
2, 631594, Note_off_c, 6, 54, 127
2, 631598, Note_on_c, 7, 55, 127
2, 631763, Note_off_c, 7, 55, 127
2, 631766, Note_on_c, 4, 52, 127
2, 631879, Note_off_c, 10, 69, 127
2, 631931, Note_off_c, 4, 52, 127
2, 631934, Note_on_c, 6, 54, 127
2, 631934, Note_on_c, 0, 60, 127
2, 632099, Note_off_c, 0, 60, 127
2, 632099, Note_off_c, 6, 54, 127
2, 632103, Note_on_c, 4, 52, 127
2, 632103, Note_on_c, 2, 62, 127
2, 632268, Note_off_c, 2, 62, 127
2, 632268, Note_off_c, 4, 52, 127
2, 632271, Note_on_c, 2, 50, 127
2, 632271, Note_on_c, 4, 64, 127
2, 632436, Note_off_c, 4, 64, 127
2, 632436, Note_off_c, 2, 50, 127
2, 632439, Note_on_c, 0, 48, 127
2, 632439, Note_on_c, 6, 66, 127
2, 632604, Note_off_c, 6, 66, 127
2, 632604, Note_off_c, 0, 48, 127
2, 632608, Note_on_c, 12, 47, 127
2, 632608, Note_on_c, 7, 67, 127
2, 632773, Note_off_c, 7, 67, 127
2, 632773, Note_off_c, 12, 47, 127
2, 632776, Note_on_c, 10, 45, 127
2, 632776, Note_on_c, 10, 69, 127
2, 632941, Note_off_c, 10, 69, 127
2, 632941, Note_off_c, 10, 45, 127
2, 632944, Note_on_c, 7, 43, 127
2, 632944, Note_on_c, 12, 59, 127
2, 633109, Note_off_c, 7, 43, 127
2, 633113, Note_on_c, 7, 55, 127
2, 633278, Note_off_c, 7, 55, 127
2, 633278, Note_off_c, 12, 59, 127
2, 633281, Note_on_c, 6, 54, 127
2, 633281, Note_on_c, 10, 69, 127
2, 633446, Note_off_c, 10, 69, 127
2, 633446, Note_off_c, 6, 54, 127
2, 633449, Note_on_c, 4, 52, 127
2, 633449, Note_on_c, 7, 67, 127
2, 633614, Note_off_c, 4, 52, 127
2, 633618, Note_on_c, 3, 51, 127
2, 633783, Note_off_c, 3, 51, 127
2, 633786, Note_on_c, 4, 52, 127
2, 633951, Note_off_c, 4, 52, 127
2, 633951, Note_off_c, 7, 67, 127
2, 633954, Note_on_c, 6, 42, 127
2, 633954, Note_on_c, 10, 57, 127
2, 634119, Note_off_c, 6, 42, 127
2, 634123, Note_on_c, 6, 54, 127
2, 634288, Note_off_c, 6, 54, 127
2, 634288, Note_off_c, 10, 57, 127
2, 634291, Note_on_c, 4, 52, 127
2, 634291, Note_on_c, 7, 67, 127
2, 634456, Note_off_c, 7, 67, 127
2, 634456, Note_off_c, 4, 52, 127
2, 634459, Note_on_c, 3, 51, 127
2, 634459, Note_on_c, 6, 66, 127
2, 634624, Note_off_c, 3, 51, 127
2, 634628, Note_on_c, 1, 49, 127
2, 634793, Note_off_c, 1, 49, 127
2, 634796, Note_on_c, 3, 51, 127
2, 634961, Note_off_c, 3, 51, 127
2, 634961, Note_off_c, 6, 66, 127
2, 634964, Note_on_c, 4, 40, 127
2, 634964, Note_on_c, 7, 55, 127
2, 635129, Note_off_c, 4, 40, 127
2, 635133, Note_on_c, 4, 52, 127
2, 635298, Note_off_c, 4, 52, 127
2, 635298, Note_off_c, 7, 55, 127
2, 635301, Note_on_c, 2, 50, 127
2, 635301, Note_on_c, 6, 66, 127
2, 635466, Note_off_c, 6, 66, 127
2, 635466, Note_off_c, 2, 50, 127
2, 635469, Note_on_c, 0, 48, 127
2, 635469, Note_on_c, 4, 64, 127
2, 635634, Note_off_c, 4, 64, 127
2, 635634, Note_off_c, 0, 48, 127
2, 635638, Note_on_c, 12, 47, 127
2, 635638, Note_on_c, 3, 63, 127
2, 635803, Note_off_c, 3, 63, 127
2, 635803, Note_off_c, 12, 47, 127
2, 635806, Note_on_c, 10, 45, 127
2, 635806, Note_on_c, 4, 64, 127
2, 635971, Note_off_c, 4, 64, 127
2, 635971, Note_off_c, 10, 45, 127
2, 635974, Note_on_c, 12, 47, 127
2, 635974, Note_on_c, 3, 63, 127
2, 636139, Note_off_c, 3, 63, 127
2, 636143, Note_on_c, 4, 64, 127
2, 636308, Note_off_c, 4, 64, 127
2, 636311, Note_on_c, 6, 66, 127
2, 636476, Note_off_c, 6, 66, 127
2, 636479, Note_on_c, 12, 59, 127
2, 636644, Note_off_c, 12, 59, 127
2, 636644, Note_off_c, 12, 47, 127
2, 636648, Note_on_c, 1, 49, 127
2, 636648, Note_on_c, 12, 71, 127
2, 636813, Note_off_c, 12, 71, 127
2, 636813, Note_off_c, 1, 49, 127
2, 636816, Note_on_c, 3, 51, 127
2, 636816, Note_on_c, 10, 69, 127
2, 636981, Note_off_c, 10, 69, 127
2, 636981, Note_off_c, 3, 51, 127
2, 636984, Note_on_c, 4, 52, 127
2, 636984, Note_on_c, 7, 67, 127
2, 637149, Note_off_c, 7, 67, 127
2, 637149, Note_off_c, 4, 52, 127
2, 637153, Note_on_c, 6, 54, 127
2, 637153, Note_on_c, 10, 69, 127
2, 637318, Note_off_c, 10, 69, 127
2, 637318, Note_off_c, 6, 54, 127
2, 637321, Note_on_c, 7, 55, 127
2, 637321, Note_on_c, 12, 71, 127
2, 637486, Note_off_c, 12, 71, 127
2, 637486, Note_off_c, 7, 55, 127
2, 637489, Note_on_c, 0, 48, 127
2, 637489, Note_on_c, 4, 64, 127
2, 637654, Note_off_c, 4, 64, 127
2, 637654, Note_off_c, 0, 48, 127
2, 637658, Note_on_c, 2, 50, 127
2, 637658, Note_on_c, 0, 72, 127
2, 637823, Note_off_c, 0, 72, 127
2, 637823, Note_off_c, 2, 50, 127
2, 637826, Note_on_c, 4, 52, 127
2, 637826, Note_on_c, 12, 71, 127
2, 637991, Note_off_c, 12, 71, 127
2, 637991, Note_off_c, 4, 52, 127
2, 637994, Note_on_c, 6, 54, 127
2, 637994, Note_on_c, 10, 69, 127
2, 638159, Note_off_c, 10, 69, 127
2, 638159, Note_off_c, 6, 54, 127
2, 638163, Note_on_c, 7, 55, 127
2, 638163, Note_on_c, 12, 71, 127
2, 638328, Note_off_c, 12, 71, 127
2, 638328, Note_off_c, 7, 55, 127
2, 638331, Note_on_c, 10, 57, 127
2, 638331, Note_on_c, 0, 72, 127
2, 638496, Note_off_c, 0, 72, 127
2, 638496, Note_off_c, 10, 57, 127
2, 638499, Note_on_c, 2, 50, 127
2, 638499, Note_on_c, 6, 66, 127
2, 638664, Note_off_c, 6, 66, 127
2, 638664, Note_off_c, 2, 50, 127
2, 638668, Note_on_c, 4, 52, 127
2, 638668, Note_on_c, 2, 74, 127
2, 638833, Note_off_c, 2, 74, 127
2, 638833, Note_off_c, 4, 52, 127
2, 638836, Note_on_c, 6, 54, 127
2, 638836, Note_on_c, 0, 72, 127
2, 639001, Note_off_c, 0, 72, 127
2, 639001, Note_off_c, 6, 54, 127
2, 639004, Note_on_c, 7, 55, 127
2, 639004, Note_on_c, 12, 71, 127
2, 639169, Note_off_c, 12, 71, 127
2, 639169, Note_off_c, 7, 55, 127
2, 639173, Note_on_c, 10, 57, 127
2, 639173, Note_on_c, 0, 72, 127
2, 639338, Note_off_c, 0, 72, 127
2, 639338, Note_off_c, 10, 57, 127
2, 639341, Note_on_c, 12, 59, 127
2, 639341, Note_on_c, 2, 74, 127
2, 639506, Note_off_c, 2, 74, 127
2, 639506, Note_off_c, 12, 59, 127
2, 639509, Note_on_c, 4, 52, 127
2, 639509, Note_on_c, 7, 67, 127
2, 639674, Note_off_c, 7, 67, 127
2, 639674, Note_off_c, 4, 52, 127
2, 639678, Note_on_c, 6, 54, 127
2, 639678, Note_on_c, 4, 76, 127
2, 639843, Note_off_c, 4, 76, 127
2, 639843, Note_off_c, 6, 54, 127
2, 639846, Note_on_c, 7, 55, 127
2, 639846, Note_on_c, 2, 74, 127
2, 640011, Note_off_c, 2, 74, 127
2, 640011, Note_off_c, 7, 55, 127
2, 640014, Note_on_c, 10, 57, 127
2, 640014, Note_on_c, 1, 73, 127
2, 640179, Note_off_c, 1, 73, 127
2, 640179, Note_off_c, 10, 57, 127
2, 640183, Note_on_c, 12, 59, 127
2, 640183, Note_on_c, 3, 75, 127
2, 640348, Note_off_c, 3, 75, 127
2, 640348, Note_off_c, 12, 59, 127
2, 640351, Note_on_c, 0, 60, 127
2, 640351, Note_on_c, 4, 76, 127
2, 640516, Note_off_c, 4, 76, 127
2, 640516, Note_off_c, 0, 60, 127
2, 640519, Note_on_c, 6, 54, 127
2, 640519, Note_on_c, 10, 69, 127
2, 640684, Note_off_c, 10, 69, 127
2, 640684, Note_off_c, 6, 54, 127
2, 640688, Note_on_c, 7, 55, 127
2, 640688, Note_on_c, 6, 78, 127
2, 640853, Note_off_c, 6, 78, 127
2, 640853, Note_off_c, 7, 55, 127
2, 640856, Note_on_c, 10, 57, 127
2, 640856, Note_on_c, 4, 76, 127
2, 641021, Note_off_c, 4, 76, 127
2, 641021, Note_off_c, 10, 57, 127
2, 641024, Note_on_c, 12, 59, 127
2, 641024, Note_on_c, 3, 75, 127
2, 641189, Note_off_c, 3, 75, 127
2, 641189, Note_off_c, 12, 59, 127
2, 641193, Note_on_c, 1, 61, 127
2, 641193, Note_on_c, 4, 76, 127
2, 641358, Note_off_c, 4, 76, 127
2, 641358, Note_off_c, 1, 61, 127
2, 641361, Note_on_c, 3, 63, 127
2, 641361, Note_on_c, 6, 78, 127
2, 641526, Note_off_c, 6, 78, 127
2, 641526, Note_off_c, 3, 63, 127
2, 641529, Note_on_c, 4, 64, 127
2, 641529, Note_on_c, 7, 79, 127
2, 641610, Note_off_c, 7, 79, 127
2, 641610, Note_off_c, 4, 64, 127
2, 641613, Note_on_c, 3, 63, 127
2, 641613, Note_on_c, 6, 78, 127
2, 641694, Note_off_c, 6, 78, 127
2, 641694, Note_off_c, 3, 63, 127
2, 641698, Note_on_c, 1, 61, 127
2, 641698, Note_on_c, 4, 76, 127
2, 641863, Note_off_c, 4, 76, 127
2, 641863, Note_off_c, 1, 61, 127
2, 641866, Note_on_c, 3, 63, 127
2, 641866, Note_on_c, 6, 78, 127
2, 642031, Note_off_c, 6, 78, 127
2, 642031, Note_off_c, 3, 63, 127
2, 642034, Note_on_c, 4, 64, 127
2, 642034, Note_on_c, 7, 79, 127
2, 642199, Note_off_c, 7, 79, 127
2, 642199, Note_off_c, 4, 64, 127
2, 642203, Note_on_c, 4, 52, 127
2, 642203, Note_on_c, 7, 67, 127
2, 642368, Note_off_c, 7, 67, 127
2, 642368, Note_off_c, 4, 52, 127
2, 642371, Note_on_c, 6, 54, 127
2, 642371, Note_on_c, 10, 69, 127
2, 642536, Note_off_c, 10, 69, 127
2, 642536, Note_off_c, 6, 54, 127
2, 642539, Note_on_c, 7, 55, 127
2, 642539, Note_on_c, 12, 71, 127
2, 642704, Note_off_c, 12, 71, 127
2, 642704, Note_off_c, 7, 55, 127
2, 642708, Note_on_c, 10, 57, 127
2, 642708, Note_on_c, 1, 73, 127
2, 642873, Note_off_c, 1, 73, 127
2, 642873, Note_off_c, 10, 57, 127
2, 642876, Note_on_c, 12, 59, 127
2, 642876, Note_on_c, 3, 75, 127
2, 643041, Note_off_c, 3, 75, 127
2, 643041, Note_off_c, 12, 59, 127
2, 643044, Note_on_c, 1, 61, 127
2, 643044, Note_on_c, 4, 76, 127
2, 643209, Note_off_c, 4, 76, 127
2, 643209, Note_off_c, 1, 61, 127
2, 643213, Note_on_c, 3, 63, 127
2, 643213, Note_on_c, 6, 78, 127
2, 643378, Note_off_c, 6, 78, 127
2, 643378, Note_off_c, 3, 63, 127
2, 643381, Note_on_c, 4, 64, 127
2, 643381, Note_on_c, 7, 79, 127
2, 643546, Note_off_c, 7, 79, 127
2, 643546, Note_off_c, 4, 64, 127
2, 643549, Note_on_c, 6, 66, 127
2, 643549, Note_on_c, 10, 81, 127
2, 643630, Note_off_c, 10, 81, 127
2, 643630, Note_off_c, 6, 66, 127
2, 643633, Note_on_c, 4, 64, 127
2, 643633, Note_on_c, 7, 79, 127
2, 643714, Note_off_c, 7, 79, 127
2, 643714, Note_off_c, 4, 64, 127
2, 643718, Note_on_c, 3, 63, 127
2, 643718, Note_on_c, 6, 78, 127
2, 643883, Note_off_c, 6, 78, 127
2, 643883, Note_off_c, 3, 63, 127
2, 643886, Note_on_c, 4, 64, 127
2, 643886, Note_on_c, 7, 79, 127
2, 644051, Note_off_c, 7, 79, 127
2, 644051, Note_off_c, 4, 64, 127
2, 644054, Note_on_c, 6, 66, 127
2, 644054, Note_on_c, 10, 81, 127
2, 644219, Note_off_c, 10, 81, 127
2, 644219, Note_off_c, 6, 66, 127
2, 644223, Note_on_c, 6, 54, 127
2, 644223, Note_on_c, 10, 69, 127
2, 644388, Note_off_c, 10, 69, 127
2, 644388, Note_off_c, 6, 54, 127
2, 644391, Note_on_c, 7, 55, 127
2, 644391, Note_on_c, 12, 71, 127
2, 644556, Note_off_c, 12, 71, 127
2, 644556, Note_off_c, 7, 55, 127
2, 644559, Note_on_c, 10, 57, 127
2, 644559, Note_on_c, 1, 73, 127
2, 644724, Note_off_c, 1, 73, 127
2, 644724, Note_off_c, 10, 57, 127
2, 644728, Note_on_c, 12, 59, 127
2, 644728, Note_on_c, 3, 75, 127
2, 644893, Note_off_c, 3, 75, 127
2, 644893, Note_off_c, 12, 59, 127
2, 644896, Note_on_c, 1, 61, 127
2, 644896, Note_on_c, 4, 76, 127
2, 645061, Note_off_c, 4, 76, 127
2, 645061, Note_off_c, 1, 61, 127
2, 645064, Note_on_c, 3, 63, 127
2, 645064, Note_on_c, 6, 78, 127
2, 645229, Note_off_c, 6, 78, 127
2, 645229, Note_off_c, 3, 63, 127
2, 645233, Note_on_c, 4, 64, 127
2, 645233, Note_on_c, 7, 79, 127
2, 645398, Note_off_c, 7, 79, 127
2, 645398, Note_off_c, 4, 64, 127
2, 645401, Note_on_c, 6, 66, 127
2, 645401, Note_on_c, 10, 81, 127
2, 645566, Note_off_c, 10, 81, 127
2, 645566, Note_off_c, 6, 66, 127
2, 645569, Note_on_c, 7, 67, 127
2, 645569, Note_on_c, 12, 83, 127
2, 645650, Note_off_c, 12, 83, 127
2, 645650, Note_off_c, 7, 67, 127
2, 645653, Note_on_c, 6, 66, 127
2, 645653, Note_on_c, 10, 81, 127
2, 645734, Note_off_c, 10, 81, 127
2, 645734, Note_off_c, 6, 66, 127
2, 645738, Note_on_c, 4, 64, 127
2, 645738, Note_on_c, 7, 79, 127
2, 645903, Note_off_c, 7, 79, 127
2, 645903, Note_off_c, 4, 64, 127
2, 645906, Note_on_c, 6, 66, 127
2, 645906, Note_on_c, 10, 81, 127
2, 646071, Note_off_c, 10, 81, 127
2, 646071, Note_off_c, 6, 66, 127
2, 646074, Note_on_c, 7, 67, 127
2, 646074, Note_on_c, 12, 83, 127
2, 646239, Note_off_c, 12, 83, 127
2, 646239, Note_off_c, 7, 67, 127
2, 646243, Note_on_c, 10, 57, 127
2, 646243, Note_on_c, 1, 73, 127
2, 646408, Note_off_c, 1, 73, 127
2, 646408, Note_off_c, 10, 57, 127
2, 646411, Note_on_c, 12, 59, 127
2, 646411, Note_on_c, 3, 75, 127
2, 646576, Note_off_c, 3, 75, 127
2, 646576, Note_off_c, 12, 59, 127
2, 646579, Note_on_c, 1, 61, 127
2, 646579, Note_on_c, 4, 76, 127
2, 646744, Note_off_c, 4, 76, 127
2, 646744, Note_off_c, 1, 61, 127
2, 646748, Note_on_c, 3, 63, 127
2, 646748, Note_on_c, 6, 78, 127
2, 646913, Note_off_c, 6, 78, 127
2, 646913, Note_off_c, 3, 63, 127
2, 646916, Note_on_c, 4, 64, 127
2, 646916, Note_on_c, 7, 79, 127
2, 647081, Note_off_c, 7, 79, 127
2, 647081, Note_off_c, 4, 64, 127
2, 647084, Note_on_c, 6, 66, 127
2, 647084, Note_on_c, 10, 81, 127
2, 647249, Note_off_c, 10, 81, 127
2, 647249, Note_off_c, 6, 66, 127
2, 647253, Note_on_c, 7, 55, 127
2, 647253, Note_on_c, 12, 71, 127
2, 647418, Note_off_c, 12, 71, 127
2, 647418, Note_off_c, 7, 55, 127
2, 647421, Note_on_c, 10, 57, 127
2, 647421, Note_on_c, 1, 73, 127
2, 647586, Note_off_c, 1, 73, 127
2, 647586, Note_off_c, 10, 57, 127
2, 647589, Note_on_c, 12, 59, 127
2, 647589, Note_on_c, 3, 75, 127
2, 647754, Note_off_c, 3, 75, 127
2, 647754, Note_off_c, 12, 59, 127
2, 647758, Note_on_c, 1, 61, 127
2, 647758, Note_on_c, 4, 76, 127
2, 647923, Note_off_c, 4, 76, 127
2, 647923, Note_off_c, 1, 61, 127
2, 647926, Note_on_c, 3, 63, 127
2, 647926, Note_on_c, 6, 78, 127
2, 648091, Note_off_c, 6, 78, 127
2, 648091, Note_off_c, 3, 63, 127
2, 648094, Note_on_c, 4, 64, 127
2, 648094, Note_on_c, 7, 79, 127
2, 648259, Note_off_c, 7, 79, 127
2, 648263, Note_on_c, 10, 81, 127
2, 648428, Note_off_c, 10, 81, 127
2, 648428, Note_off_c, 4, 64, 127
2, 648431, Note_on_c, 10, 57, 127
2, 648431, Note_on_c, 12, 83, 127
2, 648596, Note_off_c, 12, 83, 127
2, 648596, Note_off_c, 10, 57, 127
2, 648599, Note_on_c, 12, 59, 127
2, 648599, Note_on_c, 12, 71, 127
2, 648764, Note_off_c, 12, 71, 127
2, 648768, Note_on_c, 4, 76, 127
2, 648933, Note_off_c, 4, 76, 127
2, 648933, Note_off_c, 12, 59, 127
2, 648936, Note_on_c, 12, 47, 127
2, 648936, Note_on_c, 3, 75, 127
2, 649101, Note_off_c, 3, 75, 127
2, 649101, Note_off_c, 12, 47, 127
2, 649104, Note_on_c, 4, 52, 127
2, 649104, Note_on_c, 4, 76, 127
2, 649184, Note_off_c, 4, 76, 127
2, 649184, Note_on_c, 3, 75, 127
2, 649264, Note_off_c, 3, 75, 127
2, 649264, Note_on_c, 4, 76, 127
2, 649269, Note_off_c, 4, 52, 127
2, 649273, Note_on_c, 6, 54, 127
2, 649438, Note_off_c, 6, 54, 127
2, 649441, Note_on_c, 7, 55, 127
2, 649606, Note_off_c, 7, 55, 127
2, 649609, Note_on_c, 7, 55, 127
2, 649644, Note_off_c, 4, 76, 127
2, 649774, Note_off_c, 7, 55, 127
2, 649778, Note_on_c, 10, 57, 127
2, 649943, Note_off_c, 10, 57, 127
2, 649947, Note_on_c, 11, 58, 127
2, 649947, Note_on_c, 4, 76, 127
2, 650112, Note_off_c, 4, 76, 127
2, 650112, Note_off_c, 11, 58, 127
2, 650115, Note_on_c, 1, 49, 127
2, 650115, Note_on_c, 4, 76, 127
2, 650280, Note_off_c, 4, 76, 127
2, 650283, Note_on_c, 1, 73, 127
2, 650448, Note_off_c, 1, 73, 127
2, 650452, Note_on_c, 10, 69, 127
2, 650617, Note_off_c, 10, 69, 127
2, 650620, Note_off_c, 1, 49, 127
2, 650623, Note_on_c, 7, 67, 127
2, 650788, Note_off_c, 7, 67, 127
2, 650790, Note_on_c, 5, 65, 127
2, 650955, Note_off_c, 5, 65, 127
2, 650959, Note_on_c, 10, 45, 127
2, 650959, Note_on_c, 4, 64, 127
2, 651124, Note_off_c, 4, 64, 127
2, 651124, Note_off_c, 10, 45, 127
2, 651128, Note_on_c, 2, 50, 127
2, 651128, Note_on_c, 5, 65, 127
2, 651293, Note_off_c, 5, 65, 127
2, 651293, Note_off_c, 2, 50, 127
2, 651295, Note_on_c, 5, 53, 127
2, 651295, Note_on_c, 2, 62, 127
2, 651460, Note_off_c, 2, 62, 127
2, 651460, Note_off_c, 5, 53, 127
2, 651464, Note_on_c, 10, 57, 127
2, 651464, Note_on_c, 5, 65, 127
2, 651629, Note_off_c, 5, 65, 127
2, 651629, Note_off_c, 10, 57, 127
2, 651633, Note_on_c, 2, 62, 127
2, 651633, Note_on_c, 10, 69, 127
2, 651798, Note_off_c, 10, 69, 127
2, 651800, Note_on_c, 5, 65, 127
2, 651965, Note_off_c, 5, 65, 127
2, 651967, Note_off_c, 2, 62, 127
2, 651969, Note_on_c, 0, 48, 127
2, 651969, Note_on_c, 10, 69, 127
2, 652134, Note_off_c, 10, 69, 127
2, 652134, Note_off_c, 0, 48, 127
2, 652138, Note_on_c, 12, 47, 127
2, 652138, Note_on_c, 2, 74, 127
2, 652303, Note_off_c, 2, 74, 127
2, 652305, Note_on_c, 12, 71, 127
2, 652470, Note_off_c, 12, 71, 127
2, 652474, Note_on_c, 7, 67, 127
2, 652639, Note_off_c, 7, 67, 127
2, 652643, Note_off_c, 12, 47, 127
2, 652644, Note_on_c, 5, 65, 127
2, 652809, Note_off_c, 5, 65, 127
2, 652811, Note_on_c, 4, 64, 127
2, 652976, Note_off_c, 4, 64, 127
2, 652980, Note_on_c, 7, 43, 127
2, 652980, Note_on_c, 2, 62, 127
2, 653145, Note_off_c, 2, 62, 127
2, 653145, Note_off_c, 7, 43, 127
2, 653149, Note_on_c, 0, 48, 127
2, 653149, Note_on_c, 4, 64, 127
2, 653314, Note_off_c, 4, 64, 127
2, 653314, Note_off_c, 0, 48, 127
2, 653316, Note_on_c, 4, 52, 127
2, 653316, Note_on_c, 0, 60, 127
2, 653481, Note_off_c, 0, 60, 127
2, 653481, Note_off_c, 4, 52, 127
2, 653485, Note_on_c, 7, 55, 127
2, 653485, Note_on_c, 4, 64, 127
2, 653650, Note_off_c, 4, 64, 127
2, 653650, Note_off_c, 7, 55, 127
2, 653654, Note_on_c, 0, 60, 127
2, 653654, Note_on_c, 7, 67, 127
2, 653819, Note_off_c, 7, 67, 127
2, 653821, Note_on_c, 4, 64, 127
2, 653986, Note_off_c, 4, 64, 127
2, 653988, Note_off_c, 0, 60, 127
2, 653990, Note_on_c, 12, 47, 127
2, 653990, Note_on_c, 7, 67, 127
2, 654155, Note_off_c, 7, 67, 127
2, 654155, Note_off_c, 12, 47, 127
2, 654159, Note_on_c, 10, 45, 127
2, 654159, Note_on_c, 0, 72, 127
2, 654324, Note_off_c, 0, 72, 127
2, 654326, Note_on_c, 10, 69, 127
2, 654491, Note_off_c, 10, 69, 127
2, 654495, Note_on_c, 5, 65, 127
2, 654660, Note_off_c, 5, 65, 127
2, 654661, Note_off_c, 10, 45, 127
2, 654664, Note_on_c, 10, 57, 127
2, 654664, Note_on_c, 4, 64, 127
2, 654829, Note_off_c, 4, 64, 127
2, 654831, Note_on_c, 2, 62, 127
2, 654996, Note_off_c, 2, 62, 127
2, 655000, Note_on_c, 0, 60, 127
2, 655165, Note_off_c, 0, 60, 127
2, 655169, Note_on_c, 12, 71, 127
2, 655334, Note_off_c, 12, 71, 127
2, 655336, Note_on_c, 8, 68, 127
2, 655501, Note_off_c, 8, 68, 127
2, 655505, Note_on_c, 4, 64, 127
2, 655670, Note_off_c, 4, 64, 127
2, 655671, Note_off_c, 10, 57, 127
2, 655674, Note_on_c, 8, 56, 127
2, 655674, Note_on_c, 2, 62, 127
2, 655839, Note_off_c, 2, 62, 127
2, 655841, Note_on_c, 0, 60, 127
2, 656006, Note_off_c, 0, 60, 127
2, 656010, Note_on_c, 12, 59, 127
2, 656175, Note_off_c, 12, 59, 127
2, 656176, Note_off_c, 8, 56, 127
2, 656179, Note_on_c, 10, 57, 127
2, 656179, Note_on_c, 0, 60, 127
2, 656344, Note_off_c, 0, 60, 127
2, 656346, Note_on_c, 4, 64, 127
2, 656511, Note_off_c, 4, 64, 127
2, 656515, Note_on_c, 10, 69, 127
2, 656681, Note_off_c, 10, 57, 127
2, 656684, Note_on_c, 5, 53, 127
2, 656684, Note_on_c, 2, 62, 127
2, 656705, Note_off_c, 10, 69, 127
2, 656849, Note_off_c, 2, 62, 127
2, 656851, Note_on_c, 12, 71, 127
2, 657016, Note_off_c, 12, 71, 127
2, 657020, Note_on_c, 10, 69, 127
2, 657185, Note_off_c, 10, 69, 127
2, 657186, Note_off_c, 5, 53, 127
2, 657189, Note_on_c, 4, 52, 127
2, 657189, Note_on_c, 8, 68, 127
2, 657354, Note_off_c, 8, 68, 127
2, 657356, Note_on_c, 10, 69, 127
2, 657521, Note_off_c, 10, 69, 127
2, 657525, Note_on_c, 12, 71, 127
2, 657690, Note_off_c, 12, 71, 127
2, 657691, Note_off_c, 4, 52, 127
2, 657694, Note_on_c, 4, 40, 127
2, 657694, Note_on_c, 4, 64, 127
2, 657859, Note_off_c, 4, 40, 127
2, 657861, Note_on_c, 6, 42, 127
2, 658026, Note_off_c, 6, 42, 127
2, 658028, Note_off_c, 4, 64, 127
2, 658030, Note_on_c, 8, 44, 127
2, 658030, Note_on_c, 12, 71, 127
2, 658195, Note_off_c, 12, 71, 127
2, 658195, Note_off_c, 8, 44, 127
2, 658199, Note_on_c, 10, 45, 127
2, 658199, Note_on_c, 0, 72, 127
2, 658364, Note_off_c, 0, 72, 127
2, 658364, Note_off_c, 10, 45, 127
2, 658366, Note_on_c, 12, 47, 127
2, 658366, Note_on_c, 2, 74, 127
2, 658531, Note_off_c, 2, 74, 127
2, 658531, Note_off_c, 12, 47, 127
2, 658535, Note_on_c, 0, 48, 127
2, 658535, Note_on_c, 4, 76, 127
2, 658700, Note_off_c, 4, 76, 127
2, 658700, Note_off_c, 0, 48, 127
2, 658704, Note_on_c, 8, 44, 127
2, 658704, Note_on_c, 4, 64, 127
2, 658869, Note_off_c, 4, 64, 127
2, 658869, Note_off_c, 8, 44, 127
2, 658871, Note_on_c, 10, 45, 127
2, 658871, Note_on_c, 6, 66, 127
2, 659036, Note_off_c, 6, 66, 127
2, 659036, Note_off_c, 10, 45, 127
2, 659040, Note_on_c, 12, 47, 127
2, 659040, Note_on_c, 8, 68, 127
2, 659205, Note_off_c, 8, 68, 127
2, 659205, Note_off_c, 12, 47, 127
2, 659209, Note_on_c, 0, 48, 127
2, 659209, Note_on_c, 10, 69, 127
2, 659374, Note_off_c, 10, 69, 127
2, 659374, Note_off_c, 0, 48, 127
2, 659376, Note_on_c, 2, 50, 127
2, 659376, Note_on_c, 12, 71, 127
2, 659541, Note_off_c, 12, 71, 127
2, 659541, Note_off_c, 2, 50, 127
2, 659545, Note_on_c, 4, 52, 127
2, 659545, Note_on_c, 0, 72, 127
2, 659710, Note_off_c, 0, 72, 127
2, 659710, Note_off_c, 4, 52, 127
2, 659714, Note_on_c, 4, 52, 127
2, 659714, Note_on_c, 8, 68, 127
2, 659879, Note_off_c, 8, 68, 127
2, 659879, Note_off_c, 4, 52, 127
2, 659881, Note_on_c, 6, 54, 127
2, 659881, Note_on_c, 10, 69, 127
2, 660046, Note_off_c, 10, 69, 127
2, 660046, Note_off_c, 6, 54, 127
2, 660050, Note_on_c, 8, 56, 127
2, 660050, Note_on_c, 12, 71, 127
2, 660215, Note_off_c, 12, 71, 127
2, 660215, Note_off_c, 8, 56, 127
2, 660219, Note_on_c, 10, 57, 127
2, 660219, Note_on_c, 0, 72, 127
2, 660384, Note_off_c, 0, 72, 127
2, 660384, Note_off_c, 10, 57, 127
2, 660386, Note_on_c, 12, 59, 127
2, 660386, Note_on_c, 2, 74, 127
2, 660551, Note_off_c, 2, 74, 127
2, 660551, Note_off_c, 12, 59, 127
2, 660555, Note_on_c, 0, 60, 127
2, 660555, Note_on_c, 4, 76, 127
2, 660720, Note_off_c, 4, 76, 127
2, 660720, Note_off_c, 0, 60, 127
2, 660724, Note_on_c, 8, 56, 127
2, 660724, Note_on_c, 4, 64, 127
2, 660889, Note_off_c, 4, 64, 127
2, 660889, Note_off_c, 8, 56, 127
2, 660891, Note_on_c, 10, 57, 127
2, 660891, Note_on_c, 6, 66, 127
2, 661056, Note_off_c, 6, 66, 127
2, 661056, Note_off_c, 10, 57, 127
2, 661060, Note_on_c, 12, 59, 127
2, 661060, Note_on_c, 8, 68, 127
2, 661225, Note_off_c, 8, 68, 127
2, 661225, Note_off_c, 12, 59, 127
2, 661229, Note_on_c, 0, 60, 127
2, 661229, Note_on_c, 10, 69, 127
2, 661394, Note_off_c, 10, 69, 127
2, 661394, Note_off_c, 0, 60, 127
2, 661396, Note_on_c, 2, 62, 127
2, 661396, Note_on_c, 12, 71, 127
2, 661561, Note_off_c, 12, 71, 127
2, 661561, Note_off_c, 2, 62, 127
2, 661565, Note_on_c, 4, 64, 127
2, 661565, Note_on_c, 0, 72, 127
2, 661730, Note_off_c, 0, 72, 127
2, 661730, Note_off_c, 4, 64, 127
2, 661734, Note_on_c, 4, 64, 127
2, 661734, Note_on_c, 8, 68, 127
2, 661899, Note_off_c, 8, 68, 127
2, 661899, Note_off_c, 4, 64, 127
2, 661901, Note_on_c, 6, 66, 127
2, 661901, Note_on_c, 10, 69, 127
2, 662066, Note_off_c, 10, 69, 127
2, 662066, Note_off_c, 6, 66, 127
2, 662070, Note_on_c, 8, 68, 127
2, 662070, Note_on_c, 12, 71, 127
2, 662235, Note_off_c, 12, 71, 127
2, 662235, Note_off_c, 8, 68, 127
2, 662239, Note_on_c, 10, 69, 127
2, 662239, Note_on_c, 0, 72, 127
2, 662404, Note_off_c, 0, 72, 127
2, 662406, Note_on_c, 2, 74, 127
2, 662571, Note_off_c, 2, 74, 127
2, 662573, Note_off_c, 10, 69, 127
2, 662575, Note_on_c, 2, 62, 127
2, 662575, Note_on_c, 4, 76, 127
2, 662740, Note_off_c, 4, 76, 127
2, 662740, Note_off_c, 2, 62, 127
2, 662757, Note_on_c, 4, 64, 127
2, 662757, Note_on_c, 2, 74, 127
2, 662838, Note_off_c, 2, 74, 127
2, 662852, Note_on_c, 0, 72, 127
2, 662933, Note_off_c, 0, 72, 127
2, 662941, Note_on_c, 12, 71, 127
2, 663091, Note_off_c, 4, 64, 127
2, 663106, Note_off_c, 12, 71, 127
2, 663113, Note_on_c, 10, 69, 127
2, 663113, Note_on_c, 4, 52, 127
2, 663278, Note_off_c, 4, 52, 127
2, 663278, Note_off_c, 10, 69, 127
2, 663308, Note_on_c, 10, 45, 127
2, 663308, Note_on_c, 10, 69, 127
2, 663504, Note_off_c, 10, 69, 127
2, 663507, Note_on_c, 4, 64, 127
2, 663725, Note_off_c, 4, 64, 127
2, 663729, Note_on_c, 0, 60, 127
2, 664025, Note_off_c, 0, 60, 127
2, 664029, Note_on_c, 10, 57, 127
2, 665861, Note_off_c, 10, 57, 127
2, 665861, Note_off_c, 10, 45, 127
2, 671232, End_track
3, 0, Start_track
3, 0, Title_t, "MIDI"
3, 1536, End_track
0, 0, End_of_file
