0, 0, Header, 1, 3, 384
1, 0, Start_track
1, 0, Time_signature, 4, 2, 24, 8
1, 0, Tempo, 500000
1, 588288, End_track
2, 0, Start_track
2, 0, Text_t, "harpsichord: John Sankey"
2, 0, Program_c, 0, 6
2, 0, Pitch_bend_c, 0, 8192
2, 0, Program_c, 1, 6
2, 0, Pitch_bend_c, 1, 7792
2, 0, Program_c, 2, 6
2, 0, Pitch_bend_c, 2, 7876
2, 0, Program_c, 3, 6
2, 0, Pitch_bend_c, 3, 7952
2, 0, Program_c, 4, 6
2, 0, Pitch_bend_c, 4, 7792
2, 0, Program_c, 5, 6
2, 0, Pitch_bend_c, 5, 8112
2, 0, Program_c, 6, 6
2, 0, Pitch_bend_c, 6, 7712
2, 0, Program_c, 7, 6
2, 0, Pitch_bend_c, 7, 8037
2, 0, Program_c, 8, 6
2, 0, Pitch_bend_c, 8, 7872
2, 0, Program_c, 10, 6
2, 0, Pitch_bend_c, 10, 7712
2, 0, Program_c, 11, 6
2, 0, Pitch_bend_c, 11, 8032
2, 0, Program_c, 12, 6
2, 0, Pitch_bend_c, 12, 7872
2, 0, Title_t, "Track 1"
2, 311, Note_on_c, 2, 74, 127
2, 618, Note_off_c, 2, 74, 127
2, 622, Note_on_c, 2, 74, 127
2, 929, Note_off_c, 2, 74, 127
2, 933, Note_on_c, 11, 70, 127
2, 1240, Note_off_c, 11, 70, 127
2, 1244, Note_on_c, 11, 70, 127
2, 1244, Note_on_c, 7, 67, 127
2, 1551, Note_off_c, 7, 67, 127
2, 1551, Note_off_c, 11, 70, 127
2, 1555, Note_on_c, 11, 70, 127
2, 1555, Note_on_c, 7, 67, 127
2, 1862, Note_off_c, 7, 67, 127
2, 1862, Note_off_c, 11, 70, 127
2, 1866, Note_on_c, 6, 66, 127
2, 1866, Note_on_c, 10, 69, 127
2, 2018, Note_off_c, 10, 69, 127
2, 2021, Note_on_c, 7, 67, 127
2, 2173, Note_off_c, 7, 67, 127
2, 2173, Note_off_c, 6, 66, 127
2, 2177, Note_on_c, 6, 66, 127
2, 2177, Note_on_c, 2, 62, 127
2, 2177, Note_on_c, 10, 69, 127
2, 2329, Note_off_c, 10, 69, 127
2, 2332, Note_on_c, 11, 70, 127
2, 2484, Note_off_c, 11, 70, 127
2, 2484, Note_off_c, 2, 62, 127
2, 2484, Note_off_c, 6, 66, 127
2, 2488, Note_on_c, 6, 66, 127
2, 2488, Note_on_c, 2, 62, 127
2, 2488, Note_on_c, 10, 69, 127
2, 2640, Note_off_c, 10, 69, 127
2, 2643, Note_on_c, 11, 70, 127
2, 2795, Note_off_c, 11, 70, 127
2, 2795, Note_off_c, 2, 62, 127
2, 2795, Note_off_c, 6, 66, 127
2, 2799, Note_on_c, 11, 58, 127
2, 2799, Note_on_c, 2, 62, 127
2, 2799, Note_on_c, 7, 67, 127
2, 2951, Note_off_c, 7, 67, 127
2, 2954, Note_on_c, 6, 66, 127
2, 3106, Note_off_c, 6, 66, 127
2, 3106, Note_off_c, 2, 62, 127
2, 3106, Note_off_c, 11, 58, 127
2, 3110, Note_on_c, 2, 62, 127
2, 3110, Note_on_c, 11, 58, 127
2, 3110, Note_on_c, 7, 55, 127
2, 3110, Note_on_c, 7, 67, 127
2, 3262, Note_off_c, 7, 67, 127
2, 3265, Note_on_c, 10, 69, 127
2, 3417, Note_off_c, 10, 69, 127
2, 3417, Note_off_c, 7, 55, 127
2, 3417, Note_off_c, 11, 58, 127
2, 3417, Note_off_c, 2, 62, 127
2, 3421, Note_on_c, 11, 58, 127
2, 3421, Note_on_c, 2, 62, 127
2, 3421, Note_on_c, 7, 55, 127
2, 3421, Note_on_c, 11, 70, 127
2, 3573, Note_off_c, 11, 70, 127
2, 3576, Note_on_c, 0, 72, 127
2, 3728, Note_off_c, 0, 72, 127
2, 3728, Note_off_c, 7, 55, 127
2, 3728, Note_off_c, 2, 62, 127
2, 3728, Note_off_c, 11, 58, 127
2, 3732, Note_on_c, 2, 62, 127
2, 3732, Note_on_c, 10, 57, 127
2, 3732, Note_on_c, 6, 54, 127
2, 3732, Note_on_c, 2, 74, 127
2, 3884, Note_off_c, 2, 74, 127
2, 3888, Note_on_c, 0, 72, 127
2, 4039, Note_off_c, 6, 54, 127
2, 4039, Note_off_c, 10, 57, 127
2, 4039, Note_off_c, 2, 62, 127
2, 4040, Note_off_c, 0, 72, 127
2, 4043, Note_on_c, 2, 50, 127
2, 4043, Note_on_c, 10, 57, 127
2, 4043, Note_on_c, 6, 54, 127
2, 4043, Note_on_c, 2, 74, 127
2, 4195, Note_off_c, 2, 74, 127
2, 4199, Note_on_c, 4, 76, 127
2, 4350, Note_off_c, 6, 54, 127
2, 4350, Note_off_c, 10, 57, 127
2, 4350, Note_off_c, 2, 50, 127
2, 4351, Note_off_c, 4, 76, 127
2, 4354, Note_on_c, 2, 50, 127
2, 4354, Note_on_c, 6, 54, 127
2, 4354, Note_on_c, 10, 57, 127
2, 4354, Note_on_c, 6, 78, 127
2, 4506, Note_off_c, 6, 78, 127
2, 4510, Note_on_c, 2, 74, 127
2, 4661, Note_off_c, 10, 57, 127
2, 4661, Note_off_c, 6, 54, 127
2, 4661, Note_off_c, 2, 50, 127
2, 4662, Note_off_c, 2, 74, 127
2, 4665, Note_on_c, 11, 46, 127
2, 4665, Note_on_c, 7, 55, 127
2, 4665, Note_on_c, 2, 50, 127
2, 4665, Note_on_c, 7, 79, 127
2, 4817, Note_off_c, 7, 79, 127
2, 4821, Note_on_c, 6, 78, 127
2, 4972, Note_off_c, 2, 50, 127
2, 4972, Note_off_c, 7, 55, 127
2, 4972, Note_off_c, 11, 46, 127
2, 4973, Note_off_c, 6, 78, 127
2, 4976, Note_on_c, 7, 43, 127
2, 4976, Note_on_c, 11, 46, 127
2, 4976, Note_on_c, 7, 55, 127
2, 4976, Note_on_c, 2, 50, 127
2, 4976, Note_on_c, 7, 79, 127
2, 5128, Note_off_c, 7, 79, 127
2, 5132, Note_on_c, 10, 81, 127
2, 5283, Note_off_c, 2, 50, 127
2, 5283, Note_off_c, 7, 55, 127
2, 5283, Note_off_c, 11, 46, 127
2, 5283, Note_off_c, 7, 43, 127
2, 5284, Note_off_c, 10, 81, 127
2, 5287, Note_on_c, 11, 46, 127
2, 5287, Note_on_c, 7, 43, 127
2, 5287, Note_on_c, 2, 50, 127
2, 5287, Note_on_c, 11, 82, 127
2, 5439, Note_off_c, 11, 82, 127
2, 5443, Note_on_c, 7, 79, 127
2, 5594, Note_off_c, 2, 50, 127
2, 5594, Note_off_c, 7, 43, 127
2, 5594, Note_off_c, 11, 46, 127
2, 5595, Note_off_c, 7, 79, 127
2, 5598, Note_on_c, 10, 45, 127
2, 5598, Note_on_c, 6, 42, 127
2, 5598, Note_on_c, 2, 38, 127
2, 5598, Note_on_c, 2, 50, 127
2, 5598, Note_on_c, 10, 81, 127
2, 5750, Note_off_c, 10, 81, 127
2, 5754, Note_on_c, 7, 79, 127
2, 5906, Note_off_c, 7, 79, 127
2, 5909, Note_on_c, 6, 78, 127
2, 6061, Note_off_c, 6, 78, 127
2, 6065, Note_on_c, 4, 76, 127
2, 6217, Note_off_c, 4, 76, 127
2, 6220, Note_on_c, 2, 74, 127
2, 6310, Note_off_c, 2, 50, 127
2, 6310, Note_off_c, 2, 38, 127
2, 6310, Note_off_c, 6, 42, 127
2, 6310, Note_off_c, 10, 45, 127
2, 6372, Note_off_c, 2, 74, 127
2, 6376, Note_on_c, 0, 72, 127
2, 6528, Note_off_c, 0, 72, 127
2, 6531, Note_on_c, 11, 70, 127
2, 6687, Note_on_c, 10, 69, 127
2, 6838, Note_off_c, 11, 70, 127
2, 6839, Note_off_c, 10, 69, 127
2, 6842, Note_on_c, 7, 67, 127
2, 6842, Note_on_c, 2, 74, 127
2, 6842, Note_on_c, 11, 70, 127
2, 6842, Note_on_c, 7, 79, 127
2, 6994, Note_off_c, 7, 67, 127
2, 6998, Note_on_c, 5, 65, 127
2, 7149, Note_off_c, 7, 79, 127
2, 7149, Note_off_c, 11, 70, 127
2, 7149, Note_off_c, 2, 74, 127
2, 7150, Note_off_c, 5, 65, 127
2, 7153, Note_on_c, 3, 63, 127
2, 7153, Note_on_c, 2, 74, 127
2, 7153, Note_on_c, 11, 70, 127
2, 7153, Note_on_c, 7, 79, 127
2, 7305, Note_off_c, 3, 63, 127
2, 7309, Note_on_c, 2, 62, 127
2, 7460, Note_off_c, 7, 79, 127
2, 7460, Note_off_c, 11, 70, 127
2, 7460, Note_off_c, 2, 74, 127
2, 7461, Note_off_c, 2, 62, 127
2, 7464, Note_on_c, 0, 60, 127
2, 7464, Note_on_c, 3, 75, 127
2, 7464, Note_on_c, 0, 72, 127
2, 7616, Note_off_c, 3, 75, 127
2, 7616, Note_off_c, 0, 60, 127
2, 7620, Note_on_c, 2, 62, 127
2, 7620, Note_on_c, 5, 77, 127
2, 7772, Note_off_c, 5, 77, 127
2, 7772, Note_off_c, 2, 62, 127
2, 7776, Note_on_c, 0, 60, 127
2, 7776, Note_on_c, 3, 75, 127
2, 7923, Note_off_c, 0, 72, 127
2, 7928, Note_off_c, 3, 75, 127
2, 7928, Note_off_c, 0, 60, 127
2, 7931, Note_on_c, 11, 58, 127
2, 7931, Note_on_c, 2, 74, 127
2, 8083, Note_off_c, 2, 74, 127
2, 8083, Note_off_c, 11, 58, 127
2, 8087, Note_on_c, 10, 57, 127
2, 8087, Note_on_c, 0, 72, 127
2, 8239, Note_off_c, 0, 72, 127
2, 8239, Note_off_c, 10, 57, 127
2, 8242, Note_on_c, 7, 55, 127
2, 8242, Note_on_c, 11, 70, 127
2, 8394, Note_off_c, 11, 70, 127
2, 8394, Note_off_c, 7, 55, 127
2, 8398, Note_on_c, 5, 53, 127
2, 8398, Note_on_c, 10, 69, 127
2, 8550, Note_off_c, 5, 53, 127
2, 8553, Note_on_c, 7, 67, 127
2, 8705, Note_off_c, 7, 67, 127
2, 8705, Note_off_c, 10, 69, 127
2, 8709, Note_on_c, 5, 65, 127
2, 8709, Note_on_c, 5, 77, 127
2, 8709, Note_on_c, 0, 72, 127
2, 8709, Note_on_c, 10, 69, 127
2, 8861, Note_off_c, 5, 65, 127
2, 8864, Note_on_c, 3, 63, 127
2, 9016, Note_off_c, 3, 63, 127
2, 9016, Note_off_c, 10, 69, 127
2, 9016, Note_off_c, 0, 72, 127
2, 9016, Note_off_c, 5, 77, 127
2, 9020, Note_on_c, 2, 62, 127
2, 9020, Note_on_c, 10, 69, 127
2, 9020, Note_on_c, 5, 77, 127
2, 9020, Note_on_c, 0, 72, 127
2, 9172, Note_off_c, 2, 62, 127
2, 9175, Note_on_c, 0, 60, 127
2, 9327, Note_off_c, 0, 60, 127
2, 9327, Note_off_c, 0, 72, 127
2, 9327, Note_off_c, 5, 77, 127
2, 9327, Note_off_c, 10, 69, 127
2, 9331, Note_on_c, 11, 58, 127
2, 9331, Note_on_c, 2, 74, 127
2, 9331, Note_on_c, 11, 70, 127
2, 9483, Note_off_c, 2, 74, 127
2, 9483, Note_off_c, 11, 58, 127
2, 9486, Note_on_c, 0, 60, 127
2, 9486, Note_on_c, 3, 75, 127
2, 9638, Note_off_c, 3, 75, 127
2, 9638, Note_off_c, 0, 60, 127
2, 9642, Note_on_c, 11, 58, 127
2, 9642, Note_on_c, 2, 74, 127
2, 9784, Note_off_c, 11, 70, 127
2, 9794, Note_off_c, 2, 74, 127
2, 9794, Note_off_c, 11, 58, 127
2, 9797, Note_on_c, 10, 57, 127
2, 9797, Note_on_c, 0, 72, 127
2, 9949, Note_off_c, 0, 72, 127
2, 9949, Note_off_c, 10, 57, 127
2, 9953, Note_on_c, 7, 55, 127
2, 9953, Note_on_c, 11, 70, 127
2, 10105, Note_off_c, 11, 70, 127
2, 10105, Note_off_c, 7, 55, 127
2, 10108, Note_on_c, 5, 53, 127
2, 10108, Note_on_c, 10, 69, 127
2, 10260, Note_off_c, 10, 69, 127
2, 10260, Note_off_c, 5, 53, 127
2, 10264, Note_on_c, 3, 51, 127
2, 10264, Note_on_c, 7, 67, 127
2, 10416, Note_off_c, 3, 51, 127
2, 10419, Note_on_c, 5, 65, 127
2, 10571, Note_off_c, 5, 65, 127
2, 10571, Note_off_c, 7, 67, 127
2, 10575, Note_on_c, 3, 63, 127
2, 10575, Note_on_c, 3, 75, 127
2, 10575, Note_on_c, 11, 70, 127
2, 10575, Note_on_c, 7, 67, 127
2, 10727, Note_off_c, 3, 63, 127
2, 10730, Note_on_c, 2, 62, 127
2, 10882, Note_off_c, 2, 62, 127
2, 10882, Note_off_c, 7, 67, 127
2, 10882, Note_off_c, 11, 70, 127
2, 10882, Note_off_c, 3, 75, 127
2, 10886, Note_on_c, 0, 60, 127
2, 10886, Note_on_c, 3, 75, 127
2, 10886, Note_on_c, 11, 70, 127
2, 10886, Note_on_c, 7, 67, 127
2, 11038, Note_off_c, 0, 60, 127
2, 11041, Note_on_c, 11, 58, 127
2, 11193, Note_off_c, 11, 58, 127
2, 11193, Note_off_c, 7, 67, 127
2, 11193, Note_off_c, 11, 70, 127
2, 11193, Note_off_c, 3, 75, 127
2, 11197, Note_on_c, 10, 57, 127
2, 11197, Note_on_c, 0, 72, 127
2, 11197, Note_on_c, 7, 67, 127
2, 11349, Note_off_c, 0, 72, 127
2, 11349, Note_off_c, 10, 57, 127
2, 11352, Note_on_c, 11, 58, 127
2, 11352, Note_on_c, 2, 74, 127
2, 11504, Note_off_c, 2, 74, 127
2, 11504, Note_off_c, 11, 58, 127
2, 11508, Note_on_c, 10, 57, 127
2, 11508, Note_on_c, 0, 72, 127
2, 11660, Note_off_c, 0, 72, 127
2, 11660, Note_off_c, 10, 57, 127
2, 11664, Note_on_c, 7, 55, 127
2, 11664, Note_on_c, 11, 70, 127
2, 11815, Note_off_c, 7, 67, 127
2, 11816, Note_off_c, 11, 70, 127
2, 11816, Note_off_c, 7, 55, 127
2, 11819, Note_on_c, 6, 54, 127
2, 11819, Note_on_c, 10, 69, 127
2, 11971, Note_off_c, 10, 69, 127
2, 11971, Note_off_c, 6, 54, 127
2, 11975, Note_on_c, 4, 52, 127
2, 11975, Note_on_c, 7, 67, 127
2, 12127, Note_off_c, 7, 67, 127
2, 12127, Note_off_c, 4, 52, 127
2, 12130, Note_on_c, 2, 50, 127
2, 12130, Note_on_c, 6, 66, 127
2, 12282, Note_off_c, 2, 50, 127
2, 12286, Note_on_c, 3, 51, 127
2, 12437, Note_off_c, 6, 66, 127
2, 12438, Note_off_c, 3, 51, 127
2, 12441, Note_on_c, 2, 50, 127
2, 12441, Note_on_c, 10, 69, 127
2, 12441, Note_on_c, 6, 66, 127
2, 12441, Note_on_c, 2, 74, 127
2, 12593, Note_off_c, 2, 50, 127
2, 12597, Note_on_c, 0, 48, 127
2, 12748, Note_off_c, 2, 74, 127
2, 12748, Note_off_c, 6, 66, 127
2, 12748, Note_off_c, 10, 69, 127
2, 12749, Note_off_c, 0, 48, 127
2, 12752, Note_on_c, 11, 46, 127
2, 12752, Note_on_c, 10, 69, 127
2, 12752, Note_on_c, 6, 66, 127
2, 12752, Note_on_c, 2, 74, 127
2, 12904, Note_off_c, 11, 46, 127
2, 12908, Note_on_c, 10, 45, 127
2, 13059, Note_off_c, 2, 74, 127
2, 13059, Note_off_c, 6, 66, 127
2, 13059, Note_off_c, 10, 69, 127
2, 13060, Note_off_c, 10, 45, 127
2, 13063, Note_on_c, 7, 43, 127
2, 13063, Note_on_c, 2, 62, 127
2, 13063, Note_on_c, 11, 70, 127
2, 13063, Note_on_c, 7, 67, 127
2, 13215, Note_off_c, 7, 43, 127
2, 13219, Note_on_c, 10, 45, 127
2, 13370, Note_off_c, 7, 67, 127
2, 13370, Note_off_c, 11, 70, 127
2, 13371, Note_off_c, 10, 45, 127
2, 13374, Note_on_c, 7, 43, 127
2, 13374, Note_on_c, 11, 70, 127
2, 13374, Note_on_c, 7, 67, 127
2, 13526, Note_off_c, 7, 43, 127
2, 13530, Note_on_c, 5, 41, 127
2, 13681, Note_off_c, 7, 67, 127
2, 13681, Note_off_c, 11, 70, 127
2, 13682, Note_off_c, 5, 41, 127
2, 13685, Note_on_c, 3, 39, 127
2, 13685, Note_on_c, 11, 70, 127
2, 13685, Note_on_c, 7, 67, 127
2, 13837, Note_off_c, 3, 39, 127
2, 13841, Note_on_c, 2, 38, 127
2, 13992, Note_off_c, 7, 67, 127
2, 13992, Note_off_c, 11, 70, 127
2, 13993, Note_off_c, 2, 38, 127
2, 13994, Note_off_c, 2, 62, 127
2, 13996, Note_on_c, 0, 36, 127
2, 13996, Note_on_c, 3, 63, 127
2, 13996, Note_on_c, 11, 70, 127
2, 14148, Note_off_c, 3, 63, 127
2, 14152, Note_on_c, 2, 62, 127
2, 14303, Note_off_c, 0, 36, 127
2, 14304, Note_off_c, 2, 62, 127
2, 14307, Note_on_c, 0, 48, 127
2, 14307, Note_on_c, 3, 63, 127
2, 14459, Note_off_c, 3, 63, 127
2, 14463, Note_on_c, 5, 65, 127
2, 14614, Note_off_c, 0, 48, 127
2, 14615, Note_off_c, 5, 65, 127
2, 14618, Note_on_c, 0, 48, 127
2, 14618, Note_on_c, 7, 67, 127
2, 14770, Note_off_c, 7, 67, 127
2, 14774, Note_on_c, 3, 63, 127
2, 14925, Note_off_c, 0, 48, 127
2, 14926, Note_off_c, 3, 63, 127
2, 14927, Note_off_c, 11, 70, 127
2, 14929, Note_on_c, 5, 41, 127
2, 14929, Note_on_c, 10, 69, 127
2, 14929, Note_on_c, 0, 60, 127
2, 15081, Note_off_c, 0, 60, 127
2, 15085, Note_on_c, 7, 67, 127
2, 15236, Note_off_c, 5, 41, 127
2, 15237, Note_off_c, 7, 67, 127
2, 15240, Note_on_c, 5, 53, 127
2, 15240, Note_on_c, 5, 65, 127
2, 15392, Note_off_c, 5, 65, 127
2, 15396, Note_on_c, 3, 63, 127
2, 15547, Note_off_c, 5, 53, 127
2, 15548, Note_off_c, 3, 63, 127
2, 15552, Note_on_c, 5, 53, 127
2, 15552, Note_on_c, 2, 62, 127
2, 15704, Note_off_c, 2, 62, 127
2, 15707, Note_on_c, 0, 60, 127
2, 15859, Note_off_c, 0, 60, 127
2, 15859, Note_off_c, 5, 53, 127
2, 15863, Note_on_c, 11, 58, 127
2, 15863, Note_on_c, 2, 62, 127
2, 16015, Note_off_c, 2, 62, 127
2, 16018, Note_on_c, 0, 60, 127
2, 16170, Note_off_c, 0, 60, 127
2, 16170, Note_off_c, 11, 58, 127
2, 16174, Note_on_c, 11, 46, 127
2, 16174, Note_on_c, 2, 62, 127
2, 16326, Note_off_c, 2, 62, 127
2, 16329, Note_on_c, 3, 63, 127
2, 16481, Note_off_c, 3, 63, 127
2, 16481, Note_off_c, 11, 46, 127
2, 16485, Note_on_c, 11, 46, 127
2, 16485, Note_on_c, 5, 65, 127
2, 16637, Note_off_c, 5, 65, 127
2, 16640, Note_on_c, 2, 62, 127
2, 16792, Note_off_c, 2, 62, 127
2, 16792, Note_off_c, 11, 46, 127
2, 16792, Note_off_c, 10, 69, 127
2, 16796, Note_on_c, 3, 39, 127
2, 16796, Note_on_c, 11, 58, 127
2, 16796, Note_on_c, 7, 67, 127
2, 16948, Note_off_c, 11, 58, 127
2, 16951, Note_on_c, 5, 65, 127
2, 17103, Note_off_c, 5, 65, 127
2, 17103, Note_off_c, 3, 39, 127
2, 17107, Note_on_c, 3, 51, 127
2, 17107, Note_on_c, 3, 63, 127
2, 17259, Note_off_c, 3, 63, 127
2, 17262, Note_on_c, 2, 62, 127
2, 17414, Note_off_c, 2, 62, 127
2, 17414, Note_off_c, 3, 51, 127
2, 17418, Note_on_c, 3, 51, 127
2, 17418, Note_on_c, 0, 60, 127
2, 17570, Note_off_c, 0, 60, 127
2, 17573, Note_on_c, 11, 58, 127
2, 17725, Note_off_c, 11, 58, 127
2, 17725, Note_off_c, 3, 51, 127
2, 17729, Note_on_c, 10, 57, 127
2, 17729, Note_on_c, 0, 60, 127
2, 17881, Note_off_c, 0, 60, 127
2, 17884, Note_on_c, 11, 58, 127
2, 18036, Note_off_c, 11, 58, 127
2, 18036, Note_off_c, 10, 57, 127
2, 18040, Note_on_c, 10, 45, 127
2, 18040, Note_on_c, 0, 60, 127
2, 18192, Note_off_c, 0, 60, 127
2, 18195, Note_on_c, 2, 62, 127
2, 18347, Note_off_c, 2, 62, 127
2, 18347, Note_off_c, 10, 45, 127
2, 18351, Note_on_c, 10, 45, 127
2, 18351, Note_on_c, 3, 63, 127
2, 18503, Note_off_c, 3, 63, 127
2, 18506, Note_on_c, 0, 60, 127
2, 18658, Note_off_c, 0, 60, 127
2, 18658, Note_off_c, 10, 45, 127
2, 18659, Note_off_c, 7, 67, 127
2, 18662, Note_on_c, 2, 38, 127
2, 18662, Note_on_c, 6, 66, 127
2, 18662, Note_on_c, 10, 57, 127
2, 18814, Note_off_c, 10, 57, 127
2, 18817, Note_on_c, 3, 63, 127
2, 18969, Note_off_c, 3, 63, 127
2, 18973, Note_on_c, 2, 62, 127
2, 19115, Note_off_c, 2, 38, 127
2, 19125, Note_off_c, 2, 62, 127
2, 19128, Note_on_c, 0, 60, 127
2, 19280, Note_off_c, 0, 60, 127
2, 19284, Note_on_c, 11, 58, 127
2, 19436, Note_off_c, 11, 58, 127
2, 19440, Note_on_c, 10, 57, 127
2, 19592, Note_off_c, 10, 57, 127
2, 19593, Note_off_c, 6, 66, 127
2, 19595, Note_on_c, 11, 58, 127
2, 19595, Note_on_c, 10, 69, 127
2, 19669, Note_off_c, 10, 69, 127
2, 19673, Note_on_c, 7, 67, 127
2, 19747, Note_off_c, 7, 67, 127
2, 19747, Note_off_c, 11, 58, 127
2, 19751, Note_on_c, 2, 62, 127
2, 19751, Note_on_c, 6, 66, 127
2, 19825, Note_off_c, 6, 66, 127
2, 19828, Note_on_c, 7, 67, 127
2, 19902, Note_off_c, 7, 67, 127
2, 19903, Note_off_c, 2, 62, 127
2, 19906, Note_on_c, 0, 60, 127
2, 19906, Note_on_c, 10, 69, 127
2, 19980, Note_off_c, 10, 69, 127
2, 19984, Note_on_c, 7, 67, 127
2, 20058, Note_off_c, 7, 67, 127
2, 20058, Note_off_c, 0, 60, 127
2, 20062, Note_on_c, 11, 58, 127
2, 20062, Note_on_c, 10, 69, 127
2, 20136, Note_off_c, 10, 69, 127
2, 20139, Note_on_c, 7, 67, 127
2, 20213, Note_off_c, 7, 67, 127
2, 20214, Note_off_c, 11, 58, 127
2, 20217, Note_on_c, 10, 57, 127
2, 20217, Note_on_c, 10, 69, 127
2, 20291, Note_off_c, 10, 69, 127
2, 20295, Note_on_c, 7, 67, 127
2, 20369, Note_off_c, 7, 67, 127
2, 20369, Note_off_c, 10, 57, 127
2, 20373, Note_on_c, 7, 55, 127
2, 20373, Note_on_c, 6, 66, 127
2, 20447, Note_off_c, 6, 66, 127
2, 20450, Note_on_c, 7, 67, 127
2, 20524, Note_off_c, 7, 67, 127
2, 20525, Note_off_c, 7, 55, 127
2, 20528, Note_on_c, 6, 54, 127
2, 20528, Note_on_c, 10, 69, 127
2, 20680, Note_off_c, 6, 54, 127
2, 20684, Note_on_c, 7, 55, 127
2, 20835, Note_off_c, 10, 69, 127
2, 20836, Note_off_c, 7, 55, 127
2, 20839, Note_on_c, 6, 54, 127
2, 20839, Note_on_c, 2, 74, 127
2, 20839, Note_on_c, 10, 69, 127
2, 20839, Note_on_c, 6, 66, 127
2, 20991, Note_off_c, 6, 54, 127
2, 20995, Note_on_c, 4, 52, 127
2, 21146, Note_off_c, 6, 66, 127
2, 21146, Note_off_c, 10, 69, 127
2, 21146, Note_off_c, 2, 74, 127
2, 21147, Note_off_c, 4, 52, 127
2, 21150, Note_on_c, 2, 50, 127
2, 21150, Note_on_c, 6, 66, 127
2, 21150, Note_on_c, 2, 74, 127
2, 21150, Note_on_c, 10, 69, 127
2, 21302, Note_off_c, 2, 50, 127
2, 21306, Note_on_c, 0, 48, 127
2, 21457, Note_off_c, 10, 69, 127
2, 21457, Note_off_c, 2, 74, 127
2, 21457, Note_off_c, 6, 66, 127
2, 21458, Note_off_c, 0, 48, 127
2, 21461, Note_on_c, 12, 47, 127
2, 21461, Note_on_c, 5, 77, 127
2, 21461, Note_on_c, 12, 71, 127
2, 21461, Note_on_c, 7, 67, 127
2, 21461, Note_on_c, 2, 74, 127
2, 21613, Note_off_c, 12, 47, 127
2, 21617, Note_on_c, 10, 45, 127
2, 21768, Note_off_c, 2, 74, 127
2, 21768, Note_off_c, 7, 67, 127
2, 21768, Note_off_c, 12, 71, 127
2, 21768, Note_off_c, 5, 77, 127
2, 21769, Note_off_c, 10, 45, 127
2, 21772, Note_on_c, 7, 43, 127
2, 21772, Note_on_c, 7, 67, 127
2, 21772, Note_on_c, 5, 77, 127
2, 21772, Note_on_c, 2, 74, 127
2, 21772, Note_on_c, 12, 71, 127
2, 21924, Note_off_c, 7, 43, 127
2, 21928, Note_on_c, 5, 41, 127
2, 22079, Note_off_c, 12, 71, 127
2, 22079, Note_off_c, 2, 74, 127
2, 22079, Note_off_c, 5, 77, 127
2, 22079, Note_off_c, 7, 67, 127
2, 22080, Note_off_c, 5, 41, 127
2, 22083, Note_on_c, 4, 40, 127
2, 22083, Note_on_c, 5, 77, 127
2, 22083, Note_on_c, 12, 71, 127
2, 22083, Note_on_c, 7, 67, 127
2, 22083, Note_on_c, 2, 74, 127
2, 22235, Note_off_c, 4, 40, 127
2, 22239, Note_on_c, 2, 38, 127
2, 22390, Note_off_c, 2, 74, 127
2, 22390, Note_off_c, 7, 67, 127
2, 22390, Note_off_c, 12, 71, 127
2, 22390, Note_off_c, 5, 77, 127
2, 22391, Note_off_c, 2, 38, 127
2, 22394, Note_on_c, 0, 36, 127
2, 22394, Note_on_c, 7, 67, 127
2, 22394, Note_on_c, 2, 74, 127
2, 22394, Note_on_c, 12, 71, 127
2, 22394, Note_on_c, 5, 77, 127
2, 22701, Note_off_c, 5, 77, 127
2, 22701, Note_off_c, 12, 71, 127
2, 22701, Note_off_c, 2, 74, 127
2, 22701, Note_off_c, 0, 36, 127
2, 22705, Note_on_c, 7, 55, 127
2, 22705, Note_on_c, 0, 72, 127
2, 22705, Note_on_c, 4, 76, 127
2, 22857, Note_off_c, 7, 55, 127
2, 22861, Note_on_c, 5, 53, 127
2, 22987, Note_off_c, 7, 67, 127
2, 22995, Note_off_c, 4, 76, 127
2, 22995, Note_off_c, 0, 72, 127
2, 23013, Note_off_c, 5, 53, 127
2, 23016, Note_on_c, 4, 52, 127
2, 23016, Note_on_c, 7, 67, 127
2, 23016, Note_on_c, 4, 76, 127
2, 23016, Note_on_c, 0, 72, 127
2, 23168, Note_off_c, 4, 52, 127
2, 23172, Note_on_c, 2, 50, 127
2, 23323, Note_off_c, 0, 72, 127
2, 23323, Note_off_c, 4, 76, 127
2, 23323, Note_off_c, 7, 67, 127
2, 23324, Note_off_c, 2, 50, 127
2, 23328, Note_on_c, 1, 49, 127
2, 23328, Note_on_c, 1, 73, 127
2, 23328, Note_on_c, 10, 69, 127
2, 23328, Note_on_c, 7, 79, 127
2, 23328, Note_on_c, 4, 76, 127
2, 23480, Note_off_c, 1, 49, 127
2, 23483, Note_on_c, 12, 47, 127
2, 23635, Note_off_c, 12, 47, 127
2, 23635, Note_off_c, 4, 76, 127
2, 23635, Note_off_c, 7, 79, 127
2, 23635, Note_off_c, 10, 69, 127
2, 23635, Note_off_c, 1, 73, 127
2, 23639, Note_on_c, 10, 45, 127
2, 23639, Note_on_c, 10, 69, 127
2, 23639, Note_on_c, 7, 79, 127
2, 23639, Note_on_c, 4, 76, 127
2, 23639, Note_on_c, 1, 73, 127
2, 23791, Note_off_c, 10, 45, 127
2, 23794, Note_on_c, 7, 43, 127
2, 23946, Note_off_c, 7, 43, 127
2, 23946, Note_off_c, 1, 73, 127
2, 23946, Note_off_c, 4, 76, 127
2, 23946, Note_off_c, 7, 79, 127
2, 23946, Note_off_c, 10, 69, 127
2, 23950, Note_on_c, 6, 42, 127
2, 23950, Note_on_c, 1, 73, 127
2, 23950, Note_on_c, 10, 69, 127
2, 23950, Note_on_c, 7, 79, 127
2, 23950, Note_on_c, 4, 76, 127
2, 24102, Note_off_c, 6, 42, 127
2, 24105, Note_on_c, 4, 40, 127
2, 24257, Note_off_c, 4, 40, 127
2, 24257, Note_off_c, 4, 76, 127
2, 24257, Note_off_c, 7, 79, 127
2, 24257, Note_off_c, 10, 69, 127
2, 24257, Note_off_c, 1, 73, 127
2, 24261, Note_on_c, 2, 38, 127
2, 24261, Note_on_c, 1, 73, 127
2, 24261, Note_on_c, 7, 79, 127
2, 24261, Note_on_c, 4, 76, 127
2, 24261, Note_on_c, 10, 69, 127
2, 24568, Note_off_c, 4, 76, 127
2, 24568, Note_off_c, 7, 79, 127
2, 24568, Note_off_c, 1, 73, 127
2, 24568, Note_off_c, 2, 38, 127
2, 24572, Note_on_c, 0, 60, 127
2, 24572, Note_on_c, 6, 78, 127
2, 24572, Note_on_c, 2, 74, 127
2, 24724, Note_off_c, 0, 60, 127
2, 24727, Note_on_c, 11, 58, 127
2, 24851, Note_off_c, 10, 69, 127
2, 24862, Note_off_c, 2, 74, 127
2, 24862, Note_off_c, 6, 78, 127
2, 24879, Note_off_c, 11, 58, 127
2, 24883, Note_on_c, 10, 57, 127
2, 24883, Note_on_c, 6, 78, 127
2, 24883, Note_on_c, 2, 74, 127
2, 24883, Note_on_c, 10, 69, 127
2, 25035, Note_off_c, 10, 57, 127
2, 25038, Note_on_c, 7, 55, 127
2, 25163, Note_off_c, 10, 69, 127
2, 25163, Note_off_c, 2, 74, 127
2, 25163, Note_off_c, 6, 78, 127
2, 25190, Note_off_c, 7, 55, 127
2, 25194, Note_on_c, 6, 54, 127
2, 25194, Note_on_c, 2, 74, 127
2, 25194, Note_on_c, 0, 72, 127
2, 25194, Note_on_c, 10, 81, 127
2, 25346, Note_off_c, 6, 54, 127
2, 25349, Note_on_c, 4, 52, 127
2, 25501, Note_off_c, 4, 52, 127
2, 25501, Note_off_c, 10, 81, 127
2, 25501, Note_off_c, 0, 72, 127
2, 25501, Note_off_c, 2, 74, 127
2, 25505, Note_on_c, 2, 50, 127
2, 25505, Note_on_c, 2, 74, 127
2, 25505, Note_on_c, 0, 72, 127
2, 25505, Note_on_c, 10, 81, 127
2, 25657, Note_off_c, 2, 50, 127
2, 25660, Note_on_c, 0, 48, 127
2, 25812, Note_off_c, 0, 48, 127
2, 25812, Note_off_c, 10, 81, 127
2, 25812, Note_off_c, 0, 72, 127
2, 25812, Note_off_c, 2, 74, 127
2, 25816, Note_on_c, 11, 46, 127
2, 25816, Note_on_c, 10, 81, 127
2, 25816, Note_on_c, 0, 72, 127
2, 25816, Note_on_c, 2, 74, 127
2, 25968, Note_off_c, 11, 46, 127
2, 25971, Note_on_c, 10, 45, 127
2, 26123, Note_off_c, 10, 45, 127
2, 26123, Note_off_c, 2, 74, 127
2, 26123, Note_off_c, 0, 72, 127
2, 26123, Note_off_c, 10, 81, 127
2, 26127, Note_on_c, 7, 43, 127
2, 26127, Note_on_c, 10, 81, 127
2, 26127, Note_on_c, 0, 72, 127
2, 26127, Note_on_c, 2, 74, 127
2, 26279, Note_off_c, 7, 43, 127
2, 26282, Note_on_c, 6, 42, 127
2, 26434, Note_off_c, 6, 42, 127
2, 26434, Note_off_c, 0, 72, 127
2, 26434, Note_off_c, 10, 81, 127
2, 26438, Note_on_c, 7, 43, 127
2, 26438, Note_on_c, 11, 70, 127
2, 26438, Note_on_c, 7, 79, 127
2, 26590, Note_off_c, 7, 43, 127
2, 26593, Note_on_c, 10, 45, 127
2, 26742, Note_off_c, 2, 74, 127
2, 26745, Note_off_c, 10, 45, 127
2, 26745, Note_off_c, 7, 79, 127
2, 26745, Note_off_c, 11, 70, 127
2, 26749, Note_on_c, 11, 46, 127
2, 26749, Note_on_c, 5, 77, 127
2, 26749, Note_on_c, 2, 74, 127
2, 26749, Note_on_c, 7, 67, 127
2, 26901, Note_off_c, 11, 46, 127
2, 26904, Note_on_c, 7, 43, 127
2, 27056, Note_off_c, 7, 43, 127
2, 27056, Note_off_c, 7, 67, 127
2, 27056, Note_off_c, 2, 74, 127
2, 27056, Note_off_c, 5, 77, 127
2, 27060, Note_on_c, 0, 48, 127
2, 27060, Note_on_c, 3, 75, 127
2, 27060, Note_on_c, 0, 72, 127
2, 27060, Note_on_c, 7, 67, 127
2, 27212, Note_off_c, 0, 48, 127
2, 27216, Note_on_c, 11, 46, 127
2, 27367, Note_off_c, 0, 72, 127
2, 27367, Note_off_c, 3, 75, 127
2, 27368, Note_off_c, 11, 46, 127
2, 27371, Note_on_c, 0, 48, 127
2, 27371, Note_on_c, 2, 74, 127
2, 27371, Note_on_c, 11, 70, 127
2, 27523, Note_off_c, 0, 48, 127
2, 27527, Note_on_c, 2, 50, 127
2, 27678, Note_off_c, 11, 70, 127
2, 27678, Note_off_c, 2, 74, 127
2, 27679, Note_off_c, 2, 50, 127
2, 27682, Note_on_c, 3, 51, 127
2, 27682, Note_on_c, 10, 69, 127
2, 27682, Note_on_c, 0, 72, 127
2, 27834, Note_off_c, 3, 51, 127
2, 27838, Note_on_c, 0, 48, 127
2, 27990, Note_off_c, 0, 48, 127
2, 27991, Note_off_c, 7, 67, 127
2, 27993, Note_on_c, 2, 50, 127
2, 27993, Note_on_c, 6, 66, 127
2, 28054, Note_off_c, 10, 69, 127
2, 28071, Note_on_c, 10, 69, 127
2, 28135, Note_off_c, 0, 72, 127
2, 28145, Note_off_c, 2, 50, 127
2, 28149, Note_on_c, 4, 52, 127
2, 28149, Note_on_c, 0, 72, 127
2, 28301, Note_off_c, 4, 52, 127
2, 28304, Note_on_c, 6, 54, 127
2, 28456, Note_off_c, 6, 54, 127
2, 28456, Note_off_c, 0, 72, 127
2, 28460, Note_on_c, 2, 50, 127
2, 28460, Note_on_c, 2, 74, 127
2, 28605, Note_off_c, 10, 69, 127
2, 28608, Note_off_c, 6, 66, 127
2, 28612, Note_off_c, 2, 74, 127
2, 28612, Note_off_c, 2, 50, 127
2, 28615, Note_on_c, 7, 55, 127
2, 28615, Note_on_c, 7, 67, 127
2, 28615, Note_on_c, 2, 62, 127
2, 28615, Note_on_c, 0, 72, 127
2, 28767, Note_off_c, 0, 72, 127
2, 28771, Note_on_c, 11, 70, 127
2, 28922, Note_off_c, 2, 62, 127
2, 28922, Note_off_c, 7, 55, 127
2, 28926, Note_on_c, 0, 48, 127
2, 29078, Note_off_c, 11, 70, 127
2, 29082, Note_on_c, 10, 69, 127
2, 29230, Note_off_c, 7, 67, 127
2, 29233, Note_off_c, 0, 48, 127
2, 29234, Note_off_c, 10, 69, 127
2, 29237, Note_on_c, 2, 50, 127
2, 29237, Note_on_c, 6, 66, 127
2, 29237, Note_on_c, 11, 70, 127
2, 29311, Note_off_c, 11, 70, 127
2, 29315, Note_on_c, 10, 69, 127
2, 29389, Note_off_c, 10, 69, 127
2, 29393, Note_on_c, 11, 70, 127
2, 29467, Note_off_c, 11, 70, 127
2, 29471, Note_on_c, 10, 69, 127
2, 29544, Note_off_c, 2, 50, 127
2, 29545, Note_off_c, 10, 69, 127
2, 29548, Note_on_c, 2, 38, 127
2, 29548, Note_on_c, 11, 70, 127
2, 29622, Note_off_c, 11, 70, 127
2, 29626, Note_on_c, 10, 69, 127
2, 29700, Note_off_c, 10, 69, 127
2, 29704, Note_on_c, 7, 67, 127
2, 29852, Note_off_c, 6, 66, 127
2, 29855, Note_off_c, 2, 38, 127
2, 29856, Note_off_c, 7, 67, 127
2, 29859, Note_on_c, 7, 43, 127
2, 29859, Note_on_c, 7, 67, 127
2, 30011, Note_off_c, 7, 67, 127
2, 30031, Note_on_c, 10, 69, 127
2, 30183, Note_off_c, 10, 69, 127
2, 30186, Note_on_c, 11, 70, 127
2, 30338, Note_off_c, 11, 70, 127
2, 30342, Note_on_c, 7, 67, 127
2, 30439, Note_off_c, 7, 43, 127
2, 30494, Note_off_c, 7, 67, 127
2, 30497, Note_on_c, 6, 66, 127
2, 30649, Note_off_c, 6, 66, 127
2, 30653, Note_on_c, 7, 67, 127
2, 30805, Note_off_c, 7, 67, 127
2, 30808, Note_on_c, 2, 62, 127
2, 30964, Note_on_c, 7, 67, 127
2, 31115, Note_off_c, 2, 62, 127
2, 31116, Note_off_c, 7, 67, 127
2, 31120, Note_on_c, 11, 70, 127
2, 31272, Note_off_c, 11, 70, 127
2, 31275, Note_on_c, 7, 67, 127
2, 31427, Note_off_c, 7, 67, 127
2, 31431, Note_on_c, 1, 73, 127
2, 31583, Note_off_c, 1, 73, 127
2, 31586, Note_on_c, 7, 67, 127
2, 31738, Note_off_c, 7, 67, 127
2, 31742, Note_on_c, 2, 74, 127
2, 31897, Note_on_c, 2, 62, 127
2, 31971, Note_off_c, 2, 62, 127
2, 31975, Note_on_c, 4, 64, 127
2, 32049, Note_off_c, 4, 64, 127
2, 32049, Note_off_c, 2, 74, 127
2, 32053, Note_on_c, 10, 81, 127
2, 32053, Note_on_c, 5, 65, 127
2, 32205, Note_off_c, 5, 65, 127
2, 32208, Note_on_c, 2, 62, 127
2, 32360, Note_off_c, 2, 62, 127
2, 32360, Note_off_c, 10, 81, 127
2, 32364, Note_on_c, 10, 81, 127
2, 32364, Note_on_c, 1, 61, 127
2, 32516, Note_off_c, 1, 61, 127
2, 32519, Note_on_c, 2, 62, 127
2, 32671, Note_off_c, 2, 62, 127
2, 32671, Note_off_c, 10, 81, 127
2, 32675, Note_on_c, 5, 77, 127
2, 32675, Note_on_c, 10, 57, 127
2, 32827, Note_off_c, 10, 57, 127
2, 32830, Note_on_c, 2, 62, 127
2, 32982, Note_off_c, 2, 62, 127
2, 32982, Note_off_c, 5, 77, 127
2, 32986, Note_on_c, 2, 74, 127
2, 32986, Note_on_c, 5, 65, 127
2, 33138, Note_off_c, 5, 65, 127
2, 33141, Note_on_c, 2, 62, 127
2, 33293, Note_off_c, 2, 62, 127
2, 33293, Note_off_c, 2, 74, 127
2, 33297, Note_on_c, 2, 74, 127
2, 33297, Note_on_c, 8, 68, 127
2, 33449, Note_off_c, 8, 68, 127
2, 33452, Note_on_c, 2, 62, 127
2, 33604, Note_off_c, 2, 62, 127
2, 33604, Note_off_c, 2, 74, 127
2, 33608, Note_on_c, 2, 74, 127
2, 33608, Note_on_c, 10, 69, 127
2, 33760, Note_off_c, 2, 74, 127
2, 33763, Note_on_c, 12, 71, 127
2, 33915, Note_off_c, 12, 71, 127
2, 33915, Note_off_c, 10, 69, 127
2, 33919, Note_on_c, 0, 72, 127
2, 33919, Note_on_c, 10, 69, 127
2, 34071, Note_off_c, 0, 72, 127
2, 34074, Note_on_c, 4, 76, 127
2, 34226, Note_off_c, 4, 76, 127
2, 34226, Note_off_c, 10, 69, 127
2, 34230, Note_on_c, 5, 77, 127
2, 34230, Note_on_c, 10, 69, 127
2, 34382, Note_off_c, 5, 77, 127
2, 34385, Note_on_c, 0, 72, 127
2, 34537, Note_off_c, 0, 72, 127
2, 34537, Note_off_c, 10, 69, 127
2, 34541, Note_on_c, 11, 70, 127
2, 34541, Note_on_c, 10, 69, 127
2, 34693, Note_off_c, 11, 70, 127
2, 34696, Note_on_c, 0, 72, 127
2, 34848, Note_off_c, 0, 72, 127
2, 34848, Note_off_c, 10, 69, 127
2, 34852, Note_on_c, 2, 74, 127
2, 34852, Note_on_c, 7, 67, 127
2, 35004, Note_off_c, 2, 74, 127
2, 35008, Note_on_c, 11, 70, 127
2, 35159, Note_off_c, 7, 67, 127
2, 35160, Note_off_c, 11, 70, 127
2, 35163, Note_on_c, 3, 75, 127
2, 35163, Note_on_c, 7, 67, 127
2, 35315, Note_off_c, 3, 75, 127
2, 35319, Note_on_c, 11, 70, 127
2, 35470, Note_off_c, 7, 67, 127
2, 35471, Note_off_c, 11, 70, 127
2, 35474, Note_on_c, 10, 69, 127
2, 35474, Note_on_c, 7, 67, 127
2, 35626, Note_off_c, 10, 69, 127
2, 35630, Note_on_c, 0, 72, 127
2, 35781, Note_off_c, 7, 67, 127
2, 35782, Note_off_c, 0, 72, 127
2, 35785, Note_on_c, 2, 74, 127
2, 35785, Note_on_c, 5, 65, 127
2, 35937, Note_off_c, 2, 74, 127
2, 35941, Note_on_c, 3, 75, 127
2, 36092, Note_off_c, 5, 65, 127
2, 36093, Note_off_c, 3, 75, 127
2, 36096, Note_on_c, 5, 77, 127
2, 36096, Note_on_c, 5, 65, 127
2, 36248, Note_off_c, 5, 77, 127
2, 36252, Note_on_c, 2, 74, 127
2, 36404, Note_off_c, 2, 74, 127
2, 36407, Note_on_c, 0, 72, 127
2, 36484, Note_off_c, 5, 65, 127
2, 36559, Note_off_c, 0, 72, 127
2, 36563, Note_on_c, 12, 71, 127
2, 36563, Note_on_c, 5, 65, 127
2, 36715, Note_off_c, 5, 65, 127
2, 36715, Note_off_c, 12, 71, 127
2, 36718, Note_on_c, 0, 72, 127
2, 36718, Note_on_c, 3, 63, 127
2, 36870, Note_off_c, 3, 63, 127
2, 36874, Note_on_c, 2, 62, 127
2, 37025, Note_off_c, 0, 72, 127
2, 37026, Note_off_c, 2, 62, 127
2, 37029, Note_on_c, 0, 72, 127
2, 37029, Note_on_c, 0, 60, 127
2, 37181, Note_off_c, 0, 60, 127
2, 37185, Note_on_c, 3, 63, 127
2, 37336, Note_off_c, 0, 72, 127
2, 37337, Note_off_c, 3, 63, 127
2, 37340, Note_on_c, 0, 72, 127
2, 37340, Note_on_c, 8, 56, 127
2, 37492, Note_off_c, 0, 72, 127
2, 37496, Note_on_c, 2, 74, 127
2, 37647, Note_off_c, 8, 56, 127
2, 37648, Note_off_c, 2, 74, 127
2, 37651, Note_on_c, 3, 75, 127
2, 37651, Note_on_c, 0, 60, 127
2, 37803, Note_off_c, 3, 75, 127
2, 37807, Note_on_c, 0, 72, 127
2, 37958, Note_off_c, 0, 60, 127
2, 37959, Note_off_c, 0, 72, 127
2, 37962, Note_on_c, 6, 78, 127
2, 37962, Note_on_c, 3, 63, 127
2, 38114, Note_off_c, 6, 78, 127
2, 38118, Note_on_c, 0, 72, 127
2, 38269, Note_off_c, 3, 63, 127
2, 38270, Note_off_c, 0, 72, 127
2, 38273, Note_on_c, 10, 81, 127
2, 38273, Note_on_c, 6, 54, 127
2, 38425, Note_off_c, 10, 81, 127
2, 38429, Note_on_c, 3, 75, 127
2, 38580, Note_off_c, 6, 54, 127
2, 38581, Note_off_c, 3, 75, 127
2, 38584, Note_on_c, 2, 74, 127
2, 38584, Note_on_c, 10, 57, 127
2, 38736, Note_off_c, 2, 74, 127
2, 38740, Note_on_c, 0, 72, 127
2, 38891, Note_off_c, 10, 57, 127
2, 38892, Note_off_c, 0, 72, 127
2, 38896, Note_on_c, 11, 70, 127
2, 38896, Note_on_c, 2, 62, 127
2, 39048, Note_off_c, 11, 70, 127
2, 39051, Note_on_c, 10, 69, 127
2, 39203, Note_off_c, 10, 69, 127
2, 39203, Note_off_c, 2, 62, 127
2, 39207, Note_on_c, 11, 70, 127
2, 39207, Note_on_c, 7, 67, 127
2, 39362, Note_on_c, 7, 55, 127
2, 39436, Note_off_c, 7, 55, 127
2, 39440, Note_on_c, 10, 57, 127
2, 39514, Note_off_c, 10, 57, 127
2, 39514, Note_off_c, 7, 67, 127
2, 39514, Note_off_c, 11, 70, 127
2, 39518, Note_on_c, 2, 74, 127
2, 39518, Note_on_c, 7, 67, 127
2, 39518, Note_on_c, 11, 58, 127
2, 39670, Note_off_c, 11, 58, 127
2, 39673, Note_on_c, 7, 55, 127
2, 39825, Note_off_c, 7, 55, 127
2, 39825, Note_off_c, 7, 67, 127
2, 39825, Note_off_c, 2, 74, 127
2, 39829, Note_on_c, 1, 73, 127
2, 39829, Note_on_c, 2, 74, 127
2, 39829, Note_on_c, 10, 69, 127
2, 39829, Note_on_c, 6, 54, 127
2, 39981, Note_off_c, 6, 54, 127
2, 39984, Note_on_c, 7, 55, 127
2, 40136, Note_off_c, 7, 55, 127
2, 40136, Note_off_c, 10, 69, 127
2, 40136, Note_off_c, 2, 74, 127
2, 40136, Note_off_c, 1, 73, 127
2, 40140, Note_on_c, 10, 69, 127
2, 40140, Note_on_c, 11, 70, 127
2, 40140, Note_on_c, 2, 50, 127
2, 40292, Note_off_c, 2, 50, 127
2, 40295, Note_on_c, 7, 55, 127
2, 40447, Note_off_c, 7, 55, 127
2, 40447, Note_off_c, 11, 70, 127
2, 40447, Note_off_c, 10, 69, 127
2, 40451, Note_on_c, 11, 70, 127
2, 40451, Note_on_c, 7, 67, 127
2, 40451, Note_on_c, 11, 58, 127
2, 40603, Note_off_c, 11, 58, 127
2, 40606, Note_on_c, 7, 55, 127
2, 40758, Note_off_c, 7, 55, 127
2, 40758, Note_off_c, 7, 67, 127
2, 40758, Note_off_c, 11, 70, 127
2, 40762, Note_on_c, 11, 70, 127
2, 40762, Note_on_c, 7, 67, 127
2, 40762, Note_on_c, 1, 61, 127
2, 40914, Note_off_c, 1, 61, 127
2, 40917, Note_on_c, 7, 55, 127
2, 41069, Note_off_c, 7, 55, 127
2, 41069, Note_off_c, 7, 67, 127
2, 41069, Note_off_c, 11, 70, 127
2, 41073, Note_on_c, 10, 69, 127
2, 41073, Note_on_c, 7, 67, 127
2, 41073, Note_on_c, 2, 62, 127
2, 41225, Note_off_c, 10, 69, 127
2, 41228, Note_on_c, 10, 81, 127
2, 41380, Note_off_c, 10, 81, 127
2, 41380, Note_off_c, 7, 67, 127
2, 41384, Note_on_c, 2, 74, 127
2, 41384, Note_on_c, 5, 65, 127
2, 41536, Note_off_c, 2, 74, 127
2, 41539, Note_on_c, 10, 81, 127
2, 41688, Note_off_c, 2, 62, 127
2, 41691, Note_off_c, 10, 81, 127
2, 41691, Note_off_c, 5, 65, 127
2, 41695, Note_on_c, 1, 73, 127
2, 41695, Note_on_c, 4, 64, 127
2, 41847, Note_off_c, 1, 73, 127
2, 41850, Note_on_c, 7, 79, 127
2, 42002, Note_off_c, 7, 79, 127
2, 42002, Note_off_c, 4, 64, 127
2, 42006, Note_on_c, 5, 77, 127
2, 42006, Note_on_c, 2, 62, 127
2, 42006, Note_on_c, 2, 50, 127
2, 42158, Note_off_c, 5, 77, 127
2, 42161, Note_on_c, 10, 81, 127
2, 42313, Note_off_c, 10, 81, 127
2, 42313, Note_off_c, 2, 50, 127
2, 42313, Note_off_c, 2, 62, 127
2, 42317, Note_on_c, 2, 74, 127
2, 42317, Note_on_c, 5, 65, 127
2, 42469, Note_off_c, 2, 74, 127
2, 42472, Note_on_c, 10, 81, 127
2, 42624, Note_off_c, 10, 81, 127
2, 42624, Note_off_c, 5, 65, 127
2, 42628, Note_on_c, 1, 73, 127
2, 42628, Note_on_c, 4, 64, 127
2, 42780, Note_off_c, 1, 73, 127
2, 42784, Note_on_c, 7, 79, 127
2, 42935, Note_off_c, 4, 64, 127
2, 42936, Note_off_c, 7, 79, 127
2, 42939, Note_on_c, 5, 77, 127
2, 42939, Note_on_c, 2, 62, 127
2, 43091, Note_off_c, 5, 77, 127
2, 43095, Note_on_c, 2, 74, 127
2, 43247, Note_off_c, 2, 74, 127
2, 43250, Note_on_c, 12, 71, 127
2, 43250, Note_on_c, 7, 55, 127
2, 43402, Note_off_c, 12, 71, 127
2, 43406, Note_on_c, 5, 77, 127
2, 43557, Note_off_c, 7, 55, 127
2, 43558, Note_off_c, 5, 77, 127
2, 43561, Note_on_c, 10, 69, 127
2, 43561, Note_on_c, 10, 57, 127
2, 43713, Note_off_c, 10, 69, 127
2, 43717, Note_on_c, 5, 77, 127
2, 43868, Note_off_c, 10, 57, 127
2, 43869, Note_off_c, 5, 77, 127
2, 43872, Note_on_c, 7, 67, 127
2, 43872, Note_on_c, 12, 59, 127
2, 44024, Note_off_c, 7, 67, 127
2, 44028, Note_on_c, 5, 77, 127
2, 44179, Note_off_c, 12, 59, 127
2, 44180, Note_off_c, 5, 77, 127
2, 44183, Note_on_c, 10, 69, 127
2, 44183, Note_on_c, 10, 57, 127
2, 44335, Note_off_c, 10, 69, 127
2, 44339, Note_on_c, 5, 77, 127
2, 44490, Note_off_c, 10, 57, 127
2, 44491, Note_off_c, 5, 77, 127
2, 44494, Note_on_c, 12, 71, 127
2, 44494, Note_on_c, 7, 55, 127
2, 44646, Note_off_c, 12, 71, 127
2, 44650, Note_on_c, 5, 77, 127
2, 44801, Note_off_c, 7, 55, 127
2, 44802, Note_off_c, 5, 77, 127
2, 44802, Note_off_c, 2, 62, 127
2, 44805, Note_on_c, 3, 75, 127
2, 44805, Note_on_c, 0, 60, 127
2, 44957, Note_off_c, 3, 75, 127
2, 44961, Note_on_c, 7, 79, 127
2, 45113, Note_off_c, 7, 79, 127
2, 45116, Note_on_c, 0, 72, 127
2, 45116, Note_on_c, 3, 63, 127
2, 45268, Note_off_c, 0, 72, 127
2, 45272, Note_on_c, 7, 79, 127
2, 45420, Note_off_c, 0, 60, 127
2, 45423, Note_off_c, 3, 63, 127
2, 45424, Note_off_c, 7, 79, 127
2, 45427, Note_on_c, 12, 71, 127
2, 45427, Note_on_c, 2, 62, 127
2, 45579, Note_off_c, 12, 71, 127
2, 45583, Note_on_c, 5, 77, 127
2, 45734, Note_off_c, 2, 62, 127
2, 45735, Note_off_c, 5, 77, 127
2, 45738, Note_on_c, 3, 75, 127
2, 45738, Note_on_c, 0, 48, 127
2, 45738, Note_on_c, 0, 60, 127
2, 45890, Note_off_c, 3, 75, 127
2, 45894, Note_on_c, 7, 79, 127
2, 46045, Note_off_c, 0, 60, 127
2, 46045, Note_off_c, 0, 48, 127
2, 46046, Note_off_c, 7, 79, 127
2, 46049, Note_on_c, 0, 72, 127
2, 46049, Note_on_c, 3, 63, 127
2, 46201, Note_off_c, 0, 72, 127
2, 46205, Note_on_c, 7, 79, 127
2, 46356, Note_off_c, 3, 63, 127
2, 46357, Note_off_c, 7, 79, 127
2, 46360, Note_on_c, 12, 71, 127
2, 46360, Note_on_c, 2, 62, 127
2, 46512, Note_off_c, 12, 71, 127
2, 46516, Note_on_c, 5, 77, 127
2, 46667, Note_off_c, 2, 62, 127
2, 46668, Note_off_c, 5, 77, 127
2, 46672, Note_on_c, 3, 75, 127
2, 46672, Note_on_c, 0, 60, 127
2, 46824, Note_off_c, 3, 75, 127
2, 46827, Note_on_c, 0, 72, 127
2, 46979, Note_off_c, 0, 72, 127
2, 46983, Note_on_c, 10, 69, 127
2, 46983, Note_on_c, 5, 53, 127
2, 47135, Note_off_c, 10, 69, 127
2, 47138, Note_on_c, 3, 75, 127
2, 47290, Note_off_c, 3, 75, 127
2, 47290, Note_off_c, 5, 53, 127
2, 47294, Note_on_c, 7, 67, 127
2, 47294, Note_on_c, 7, 55, 127
2, 47446, Note_off_c, 7, 67, 127
2, 47449, Note_on_c, 3, 75, 127
2, 47601, Note_off_c, 3, 75, 127
2, 47601, Note_off_c, 7, 55, 127
2, 47605, Note_on_c, 5, 65, 127
2, 47605, Note_on_c, 10, 57, 127
2, 47757, Note_off_c, 5, 65, 127
2, 47760, Note_on_c, 3, 75, 127
2, 47912, Note_off_c, 3, 75, 127
2, 47912, Note_off_c, 10, 57, 127
2, 47916, Note_on_c, 7, 67, 127
2, 47916, Note_on_c, 7, 55, 127
2, 48068, Note_off_c, 7, 67, 127
2, 48071, Note_on_c, 3, 75, 127
2, 48223, Note_off_c, 3, 75, 127
2, 48223, Note_off_c, 7, 55, 127
2, 48227, Note_on_c, 10, 69, 127
2, 48227, Note_on_c, 5, 53, 127
2, 48379, Note_off_c, 10, 69, 127
2, 48382, Note_on_c, 3, 75, 127
2, 48534, Note_off_c, 3, 75, 127
2, 48534, Note_off_c, 5, 53, 127
2, 48535, Note_off_c, 0, 60, 127
2, 48538, Note_on_c, 2, 74, 127
2, 48538, Note_on_c, 11, 58, 127
2, 48690, Note_off_c, 11, 58, 127
2, 48693, Note_on_c, 0, 60, 127
2, 48845, Note_off_c, 0, 60, 127
2, 48845, Note_off_c, 2, 74, 127
2, 48849, Note_on_c, 5, 77, 127
2, 48849, Note_on_c, 2, 62, 127
2, 49001, Note_off_c, 2, 62, 127
2, 49004, Note_on_c, 11, 58, 127
2, 49156, Note_off_c, 11, 58, 127
2, 49156, Note_off_c, 5, 77, 127
2, 49160, Note_on_c, 5, 77, 127
2, 49160, Note_on_c, 10, 57, 127
2, 49312, Note_off_c, 10, 57, 127
2, 49315, Note_on_c, 11, 58, 127
2, 49467, Note_off_c, 11, 58, 127
2, 49467, Note_off_c, 5, 77, 127
2, 49471, Note_on_c, 2, 74, 127
2, 49471, Note_on_c, 5, 53, 127
2, 49623, Note_off_c, 5, 53, 127
2, 49626, Note_on_c, 11, 58, 127
2, 49778, Note_off_c, 11, 58, 127
2, 49778, Note_off_c, 2, 74, 127
2, 49782, Note_on_c, 11, 70, 127
2, 49782, Note_on_c, 2, 74, 127
2, 49782, Note_on_c, 2, 62, 127
2, 49934, Note_off_c, 2, 62, 127
2, 49937, Note_on_c, 11, 58, 127
2, 50089, Note_off_c, 11, 58, 127
2, 50089, Note_off_c, 2, 74, 127
2, 50089, Note_off_c, 11, 70, 127
2, 50093, Note_on_c, 11, 70, 127
2, 50093, Note_on_c, 2, 74, 127
2, 50093, Note_on_c, 4, 64, 127
2, 50245, Note_off_c, 4, 64, 127
2, 50248, Note_on_c, 11, 58, 127
2, 50400, Note_off_c, 11, 58, 127
2, 50400, Note_off_c, 2, 74, 127
2, 50400, Note_off_c, 11, 70, 127
2, 50404, Note_on_c, 0, 72, 127
2, 50404, Note_on_c, 11, 70, 127
2, 50404, Note_on_c, 5, 65, 127
2, 50556, Note_off_c, 0, 72, 127
2, 50560, Note_on_c, 0, 84, 127
2, 50711, Note_off_c, 11, 70, 127
2, 50712, Note_off_c, 0, 84, 127
2, 50715, Note_on_c, 5, 77, 127
2, 50715, Note_on_c, 10, 69, 127
2, 50867, Note_off_c, 5, 77, 127
2, 50871, Note_on_c, 0, 84, 127
2, 51019, Note_off_c, 5, 65, 127
2, 51022, Note_off_c, 10, 69, 127
2, 51023, Note_off_c, 0, 84, 127
2, 51026, Note_on_c, 4, 76, 127
2, 51026, Note_on_c, 7, 67, 127
2, 51178, Note_off_c, 4, 76, 127
2, 51182, Note_on_c, 11, 82, 127
2, 51333, Note_off_c, 7, 67, 127
2, 51334, Note_off_c, 11, 82, 127
2, 51337, Note_on_c, 10, 81, 127
2, 51337, Note_on_c, 5, 65, 127
2, 51337, Note_on_c, 5, 53, 127
2, 51489, Note_off_c, 10, 81, 127
2, 51493, Note_on_c, 0, 84, 127
2, 51644, Note_off_c, 5, 53, 127
2, 51644, Note_off_c, 5, 65, 127
2, 51645, Note_off_c, 0, 84, 127
2, 51648, Note_on_c, 5, 77, 127
2, 51648, Note_on_c, 10, 69, 127
2, 51800, Note_off_c, 5, 77, 127
2, 51804, Note_on_c, 0, 84, 127
2, 51955, Note_off_c, 10, 69, 127
2, 51956, Note_off_c, 0, 84, 127
2, 51959, Note_on_c, 4, 76, 127
2, 51959, Note_on_c, 7, 67, 127
2, 52111, Note_off_c, 4, 76, 127
2, 52115, Note_on_c, 11, 82, 127
2, 52266, Note_off_c, 7, 67, 127
2, 52267, Note_off_c, 11, 82, 127
2, 52270, Note_on_c, 10, 81, 127
2, 52270, Note_on_c, 5, 65, 127
2, 52422, Note_off_c, 10, 81, 127
2, 52426, Note_on_c, 5, 77, 127
2, 52578, Note_off_c, 5, 77, 127
2, 52581, Note_on_c, 2, 74, 127
2, 52581, Note_on_c, 11, 58, 127
2, 52733, Note_off_c, 2, 74, 127
2, 52737, Note_on_c, 8, 80, 127
2, 52888, Note_off_c, 11, 58, 127
2, 52889, Note_off_c, 8, 80, 127
2, 52892, Note_on_c, 0, 72, 127
2, 52892, Note_on_c, 0, 60, 127
2, 53044, Note_off_c, 0, 72, 127
2, 53048, Note_on_c, 8, 80, 127
2, 53199, Note_off_c, 0, 60, 127
2, 53200, Note_off_c, 8, 80, 127
2, 53203, Note_on_c, 11, 70, 127
2, 53203, Note_on_c, 2, 62, 127
2, 53355, Note_off_c, 11, 70, 127
2, 53359, Note_on_c, 8, 80, 127
2, 53510, Note_off_c, 2, 62, 127
2, 53511, Note_off_c, 8, 80, 127
2, 53514, Note_on_c, 0, 72, 127
2, 53514, Note_on_c, 0, 60, 127
2, 53666, Note_off_c, 0, 72, 127
2, 53670, Note_on_c, 8, 80, 127
2, 53821, Note_off_c, 0, 60, 127
2, 53822, Note_off_c, 8, 80, 127
2, 53825, Note_on_c, 2, 74, 127
2, 53825, Note_on_c, 11, 58, 127
2, 53977, Note_off_c, 2, 74, 127
2, 53981, Note_on_c, 8, 80, 127
2, 54132, Note_off_c, 11, 58, 127
2, 54133, Note_off_c, 8, 80, 127
2, 54133, Note_off_c, 5, 65, 127
2, 54136, Note_on_c, 7, 79, 127
2, 54136, Note_on_c, 3, 63, 127
2, 54288, Note_off_c, 7, 79, 127
2, 54292, Note_on_c, 11, 82, 127
2, 54444, Note_off_c, 11, 82, 127
2, 54448, Note_on_c, 3, 75, 127
2, 54448, Note_on_c, 7, 67, 127
2, 54600, Note_off_c, 3, 75, 127
2, 54603, Note_on_c, 11, 82, 127
2, 54751, Note_off_c, 3, 63, 127
2, 54755, Note_off_c, 11, 82, 127
2, 54755, Note_off_c, 7, 67, 127
2, 54759, Note_on_c, 2, 74, 127
2, 54759, Note_on_c, 5, 65, 127
2, 54911, Note_off_c, 2, 74, 127
2, 54914, Note_on_c, 8, 80, 127
2, 55066, Note_off_c, 8, 80, 127
2, 55066, Note_off_c, 5, 65, 127
2, 55070, Note_on_c, 7, 79, 127
2, 55070, Note_on_c, 3, 63, 127
2, 55070, Note_on_c, 3, 51, 127
2, 55222, Note_off_c, 7, 79, 127
2, 55225, Note_on_c, 11, 82, 127
2, 55377, Note_off_c, 11, 82, 127
2, 55377, Note_off_c, 3, 51, 127
2, 55377, Note_off_c, 3, 63, 127
2, 55381, Note_on_c, 3, 75, 127
2, 55381, Note_on_c, 7, 67, 127
2, 55533, Note_off_c, 3, 75, 127
2, 55536, Note_on_c, 11, 82, 127
2, 55688, Note_off_c, 11, 82, 127
2, 55688, Note_off_c, 7, 67, 127
2, 55692, Note_on_c, 2, 74, 127
2, 55692, Note_on_c, 5, 65, 127
2, 55844, Note_off_c, 2, 74, 127
2, 55847, Note_on_c, 8, 80, 127
2, 55999, Note_off_c, 8, 80, 127
2, 55999, Note_off_c, 5, 65, 127
2, 56003, Note_on_c, 7, 79, 127
2, 56003, Note_on_c, 3, 63, 127
2, 56155, Note_off_c, 7, 79, 127
2, 56158, Note_on_c, 3, 75, 127
2, 56310, Note_off_c, 3, 75, 127
2, 56314, Note_on_c, 0, 72, 127
2, 56314, Note_on_c, 10, 57, 127
2, 56466, Note_off_c, 0, 72, 127
2, 56469, Note_on_c, 7, 79, 127
2, 56621, Note_off_c, 7, 79, 127
2, 56621, Note_off_c, 10, 57, 127
2, 56625, Note_on_c, 11, 70, 127
2, 56625, Note_on_c, 11, 58, 127
2, 56777, Note_off_c, 11, 70, 127
2, 56780, Note_on_c, 7, 79, 127
2, 56932, Note_off_c, 7, 79, 127
2, 56932, Note_off_c, 11, 58, 127
2, 56936, Note_on_c, 10, 69, 127
2, 56936, Note_on_c, 0, 60, 127
2, 57088, Note_off_c, 10, 69, 127
2, 57091, Note_on_c, 7, 79, 127
2, 57243, Note_off_c, 7, 79, 127
2, 57243, Note_off_c, 0, 60, 127
2, 57247, Note_on_c, 11, 70, 127
2, 57247, Note_on_c, 11, 58, 127
2, 57399, Note_off_c, 11, 70, 127
2, 57402, Note_on_c, 7, 79, 127
2, 57554, Note_off_c, 7, 79, 127
2, 57554, Note_off_c, 11, 58, 127
2, 57558, Note_on_c, 0, 72, 127
2, 57558, Note_on_c, 10, 57, 127
2, 57710, Note_off_c, 0, 72, 127
2, 57713, Note_on_c, 7, 79, 127
2, 57865, Note_off_c, 7, 79, 127
2, 57865, Note_off_c, 10, 57, 127
2, 57866, Note_off_c, 3, 63, 127
2, 57869, Note_on_c, 6, 78, 127
2, 57869, Note_on_c, 2, 62, 127
2, 58021, Note_off_c, 2, 62, 127
2, 58024, Note_on_c, 0, 60, 127
2, 58176, Note_off_c, 0, 60, 127
2, 58176, Note_off_c, 6, 78, 127
2, 58180, Note_on_c, 2, 74, 127
2, 58180, Note_on_c, 7, 79, 127
2, 58180, Note_on_c, 11, 58, 127
2, 58332, Note_off_c, 11, 58, 127
2, 58336, Note_on_c, 0, 60, 127
2, 58487, Note_off_c, 7, 79, 127
2, 58487, Note_off_c, 2, 74, 127
2, 58488, Note_off_c, 0, 60, 127
2, 58491, Note_on_c, 0, 72, 127
2, 58491, Note_on_c, 5, 77, 127
2, 58491, Note_on_c, 10, 57, 127
2, 58643, Note_off_c, 10, 57, 127
2, 58647, Note_on_c, 11, 58, 127
2, 58798, Note_off_c, 5, 77, 127
2, 58798, Note_off_c, 0, 72, 127
2, 58799, Note_off_c, 11, 58, 127
2, 58802, Note_on_c, 11, 70, 127
2, 58802, Note_on_c, 3, 75, 127
2, 58802, Note_on_c, 7, 55, 127
2, 58954, Note_off_c, 7, 55, 127
2, 58958, Note_on_c, 11, 58, 127
2, 59109, Note_off_c, 3, 75, 127
2, 59109, Note_off_c, 11, 70, 127
2, 59110, Note_off_c, 11, 58, 127
2, 59113, Note_on_c, 10, 69, 127
2, 59113, Note_on_c, 2, 74, 127
2, 59113, Note_on_c, 5, 53, 127
2, 59265, Note_off_c, 5, 53, 127
2, 59269, Note_on_c, 11, 58, 127
2, 59420, Note_off_c, 2, 74, 127
2, 59420, Note_off_c, 10, 69, 127
2, 59421, Note_off_c, 11, 58, 127
2, 59424, Note_on_c, 7, 67, 127
2, 59424, Note_on_c, 0, 72, 127
2, 59424, Note_on_c, 3, 51, 127
2, 59576, Note_off_c, 3, 51, 127
2, 59580, Note_on_c, 11, 58, 127
2, 59731, Note_off_c, 0, 72, 127
2, 59731, Note_off_c, 7, 67, 127
2, 59732, Note_off_c, 11, 58, 127
2, 59735, Note_on_c, 5, 77, 127
2, 59735, Note_on_c, 11, 70, 127
2, 59735, Note_on_c, 5, 65, 127
2, 59735, Note_on_c, 2, 50, 127
2, 59887, Note_off_c, 2, 50, 127
2, 59891, Note_on_c, 11, 58, 127
2, 60042, Note_off_c, 11, 70, 127
2, 60042, Note_off_c, 5, 77, 127
2, 60043, Note_off_c, 11, 58, 127
2, 60046, Note_on_c, 10, 69, 127
2, 60046, Note_on_c, 3, 75, 127
2, 60046, Note_on_c, 0, 48, 127
2, 60198, Note_off_c, 0, 48, 127
2, 60202, Note_on_c, 11, 58, 127
2, 60350, Note_off_c, 5, 65, 127
2, 60354, Note_off_c, 11, 58, 127
2, 60357, Note_on_c, 5, 65, 127
2, 60357, Note_on_c, 11, 46, 127
2, 60386, Note_off_c, 10, 69, 127
2, 60434, Note_off_c, 3, 75, 127
2, 60435, Note_on_c, 11, 70, 127
2, 60509, Note_off_c, 11, 46, 127
2, 60513, Note_on_c, 2, 74, 127
2, 60513, Note_on_c, 11, 58, 127
2, 60665, Note_off_c, 11, 58, 127
2, 60668, Note_on_c, 3, 51, 127
2, 60820, Note_off_c, 2, 74, 127
2, 60820, Note_off_c, 5, 65, 127
2, 60824, Note_on_c, 7, 79, 127
2, 60969, Note_off_c, 11, 70, 127
2, 60975, Note_off_c, 3, 51, 127
2, 60976, Note_off_c, 7, 79, 127
2, 60979, Note_on_c, 10, 69, 127
2, 60979, Note_on_c, 2, 74, 127
2, 60979, Note_on_c, 5, 53, 127
2, 61053, Note_off_c, 2, 74, 127
2, 61057, Note_on_c, 0, 72, 127
2, 61131, Note_off_c, 0, 72, 127
2, 61135, Note_on_c, 2, 74, 127
2, 61209, Note_off_c, 2, 74, 127
2, 61213, Note_on_c, 0, 72, 127
2, 61286, Note_off_c, 5, 53, 127
2, 61287, Note_off_c, 0, 72, 127
2, 61290, Note_on_c, 2, 74, 127
2, 61290, Note_on_c, 5, 41, 127
2, 61364, Note_off_c, 2, 74, 127
2, 61368, Note_on_c, 0, 72, 127
2, 61432, Note_off_c, 10, 69, 127
2, 61442, Note_off_c, 0, 72, 127
2, 61446, Note_on_c, 11, 70, 127
2, 61597, Note_off_c, 5, 41, 127
2, 61598, Note_off_c, 11, 70, 127
2, 61601, Note_on_c, 11, 70, 127
2, 61601, Note_on_c, 11, 46, 127
2, 61908, Note_off_c, 11, 70, 127
2, 61912, Note_on_c, 5, 77, 127
2, 62219, Note_off_c, 5, 77, 127
2, 62224, Note_on_c, 5, 77, 127
2, 62531, Note_off_c, 5, 77, 127
2, 62532, Note_off_c, 11, 46, 127
2, 62535, Note_on_c, 2, 74, 127
2, 62842, Note_off_c, 2, 74, 127
2, 62846, Note_on_c, 11, 70, 127
2, 62846, Note_on_c, 2, 74, 127
2, 63153, Note_off_c, 2, 74, 127
2, 63153, Note_off_c, 11, 70, 127
2, 63157, Note_on_c, 11, 70, 127
2, 63157, Note_on_c, 2, 74, 127
2, 63464, Note_off_c, 2, 74, 127
2, 63464, Note_off_c, 11, 70, 127
2, 63468, Note_on_c, 0, 72, 127
2, 63468, Note_on_c, 10, 69, 127
2, 63620, Note_off_c, 0, 72, 127
2, 63623, Note_on_c, 11, 70, 127
2, 63775, Note_off_c, 11, 70, 127
2, 63775, Note_off_c, 10, 69, 127
2, 63779, Note_on_c, 0, 72, 127
2, 63779, Note_on_c, 10, 69, 127
2, 63779, Note_on_c, 5, 65, 127
2, 63931, Note_off_c, 0, 72, 127
2, 63934, Note_on_c, 2, 74, 127
2, 64086, Note_off_c, 2, 74, 127
2, 64086, Note_off_c, 5, 65, 127
2, 64086, Note_off_c, 10, 69, 127
2, 64090, Note_on_c, 0, 72, 127
2, 64090, Note_on_c, 10, 69, 127
2, 64090, Note_on_c, 5, 65, 127
2, 64242, Note_off_c, 0, 72, 127
2, 64245, Note_on_c, 2, 74, 127
2, 64397, Note_off_c, 2, 74, 127
2, 64397, Note_off_c, 5, 65, 127
2, 64397, Note_off_c, 10, 69, 127
2, 64401, Note_on_c, 11, 70, 127
2, 64401, Note_on_c, 2, 62, 127
2, 64401, Note_on_c, 5, 65, 127
2, 64553, Note_off_c, 11, 70, 127
2, 64556, Note_on_c, 10, 69, 127
2, 64708, Note_off_c, 10, 69, 127
2, 64708, Note_off_c, 5, 65, 127
2, 64708, Note_off_c, 2, 62, 127
2, 64712, Note_on_c, 11, 70, 127
2, 64712, Note_on_c, 5, 65, 127
2, 64712, Note_on_c, 11, 58, 127
2, 64712, Note_on_c, 2, 62, 127
2, 64864, Note_off_c, 11, 70, 127
2, 64867, Note_on_c, 0, 72, 127
2, 65019, Note_off_c, 0, 72, 127
2, 65019, Note_off_c, 2, 62, 127
2, 65019, Note_off_c, 11, 58, 127
2, 65019, Note_off_c, 5, 65, 127
2, 65023, Note_on_c, 2, 74, 127
2, 65023, Note_on_c, 2, 62, 127
2, 65023, Note_on_c, 5, 65, 127
2, 65023, Note_on_c, 11, 58, 127
2, 65175, Note_off_c, 2, 74, 127
2, 65178, Note_on_c, 3, 75, 127
2, 65330, Note_off_c, 3, 75, 127
2, 65330, Note_off_c, 11, 58, 127
2, 65330, Note_off_c, 5, 65, 127
2, 65330, Note_off_c, 2, 62, 127
2, 65334, Note_on_c, 5, 77, 127
2, 65334, Note_on_c, 10, 57, 127
2, 65334, Note_on_c, 0, 60, 127
2, 65334, Note_on_c, 5, 65, 127
2, 65486, Note_off_c, 5, 77, 127
2, 65489, Note_on_c, 4, 76, 127
2, 65641, Note_off_c, 4, 76, 127
2, 65641, Note_off_c, 5, 65, 127
2, 65641, Note_off_c, 0, 60, 127
2, 65641, Note_off_c, 10, 57, 127
2, 65645, Note_on_c, 5, 77, 127
2, 65645, Note_on_c, 10, 57, 127
2, 65645, Note_on_c, 0, 60, 127
2, 65645, Note_on_c, 5, 53, 127
2, 65797, Note_off_c, 5, 77, 127
2, 65800, Note_on_c, 7, 79, 127
2, 65952, Note_off_c, 7, 79, 127
2, 65952, Note_off_c, 5, 53, 127
2, 65952, Note_off_c, 0, 60, 127
2, 65952, Note_off_c, 10, 57, 127
2, 65956, Note_on_c, 10, 81, 127
2, 65956, Note_on_c, 0, 60, 127
2, 65956, Note_on_c, 10, 57, 127
2, 65956, Note_on_c, 5, 53, 127
2, 66108, Note_off_c, 10, 81, 127
2, 66112, Note_on_c, 5, 77, 127
2, 66263, Note_off_c, 5, 53, 127
2, 66263, Note_off_c, 10, 57, 127
2, 66263, Note_off_c, 0, 60, 127
2, 66264, Note_off_c, 5, 77, 127
2, 66267, Note_on_c, 11, 82, 127
2, 66267, Note_on_c, 11, 58, 127
2, 66267, Note_on_c, 2, 50, 127
2, 66267, Note_on_c, 5, 53, 127
2, 66419, Note_off_c, 11, 82, 127
2, 66423, Note_on_c, 10, 81, 127
2, 66574, Note_off_c, 5, 53, 127
2, 66574, Note_off_c, 2, 50, 127
2, 66574, Note_off_c, 11, 58, 127
2, 66575, Note_off_c, 10, 81, 127
2, 66578, Note_on_c, 11, 82, 127
2, 66578, Note_on_c, 11, 46, 127
2, 66578, Note_on_c, 2, 50, 127
2, 66578, Note_on_c, 5, 53, 127
2, 66730, Note_off_c, 11, 82, 127
2, 66734, Note_on_c, 0, 84, 127
2, 66885, Note_off_c, 5, 53, 127
2, 66885, Note_off_c, 2, 50, 127
2, 66885, Note_off_c, 11, 46, 127
2, 66886, Note_off_c, 0, 84, 127
2, 66889, Note_on_c, 10, 81, 127
2, 66889, Note_on_c, 5, 53, 127
2, 66889, Note_on_c, 2, 50, 127
2, 66889, Note_on_c, 11, 46, 127
2, 67041, Note_off_c, 10, 81, 127
2, 67045, Note_on_c, 11, 82, 127
2, 67196, Note_off_c, 11, 46, 127
2, 67196, Note_off_c, 2, 50, 127
2, 67196, Note_off_c, 5, 53, 127
2, 67197, Note_off_c, 11, 82, 127
2, 67200, Note_on_c, 0, 84, 127
2, 67200, Note_on_c, 0, 48, 127
2, 67200, Note_on_c, 5, 53, 127
2, 67200, Note_on_c, 5, 41, 127
2, 67200, Note_on_c, 10, 45, 127
2, 67352, Note_off_c, 0, 84, 127
2, 67356, Note_on_c, 11, 82, 127
2, 67508, Note_off_c, 11, 82, 127
2, 67511, Note_on_c, 10, 81, 127
2, 67663, Note_off_c, 10, 81, 127
2, 67667, Note_on_c, 7, 79, 127
2, 67819, Note_off_c, 7, 79, 127
2, 67822, Note_on_c, 5, 77, 127
2, 67912, Note_off_c, 10, 45, 127
2, 67912, Note_off_c, 5, 41, 127
2, 67912, Note_off_c, 5, 53, 127
2, 67912, Note_off_c, 0, 48, 127
2, 67974, Note_off_c, 5, 77, 127
2, 67978, Note_on_c, 3, 75, 127
2, 68130, Note_off_c, 3, 75, 127
2, 68133, Note_on_c, 2, 74, 127
2, 68289, Note_on_c, 0, 72, 127
2, 68440, Note_off_c, 2, 74, 127
2, 68441, Note_off_c, 0, 72, 127
2, 68444, Note_on_c, 2, 74, 127
2, 68444, Note_on_c, 5, 77, 127
2, 68444, Note_on_c, 11, 82, 127
2, 68444, Note_on_c, 11, 70, 127
2, 68596, Note_off_c, 11, 70, 127
2, 68600, Note_on_c, 10, 69, 127
2, 68751, Note_off_c, 11, 82, 127
2, 68751, Note_off_c, 5, 77, 127
2, 68751, Note_off_c, 2, 74, 127
2, 68752, Note_off_c, 10, 69, 127
2, 68755, Note_on_c, 11, 82, 127
2, 68755, Note_on_c, 2, 74, 127
2, 68755, Note_on_c, 5, 77, 127
2, 68755, Note_on_c, 7, 67, 127
2, 68907, Note_off_c, 7, 67, 127
2, 68911, Note_on_c, 5, 65, 127
2, 69062, Note_off_c, 5, 77, 127
2, 69062, Note_off_c, 2, 74, 127
2, 69062, Note_off_c, 11, 82, 127
2, 69063, Note_off_c, 5, 65, 127
2, 69066, Note_on_c, 2, 74, 127
2, 69066, Note_on_c, 7, 79, 127
2, 69066, Note_on_c, 3, 63, 127
2, 69218, Note_off_c, 3, 63, 127
2, 69218, Note_off_c, 7, 79, 127
2, 69222, Note_on_c, 10, 81, 127
2, 69222, Note_on_c, 5, 65, 127
2, 69374, Note_off_c, 5, 65, 127
2, 69374, Note_off_c, 10, 81, 127
2, 69377, Note_on_c, 7, 79, 127
2, 69377, Note_on_c, 3, 63, 127
2, 69519, Note_off_c, 2, 74, 127
2, 69529, Note_off_c, 3, 63, 127
2, 69529, Note_off_c, 7, 79, 127
2, 69533, Note_on_c, 5, 77, 127
2, 69533, Note_on_c, 2, 62, 127
2, 69685, Note_off_c, 2, 62, 127
2, 69685, Note_off_c, 5, 77, 127
2, 69688, Note_on_c, 3, 75, 127
2, 69688, Note_on_c, 0, 60, 127
2, 69840, Note_off_c, 0, 60, 127
2, 69840, Note_off_c, 3, 75, 127
2, 69844, Note_on_c, 2, 74, 127
2, 69844, Note_on_c, 11, 58, 127
2, 69996, Note_off_c, 11, 58, 127
2, 69996, Note_off_c, 2, 74, 127
2, 70000, Note_on_c, 0, 72, 127
2, 70000, Note_on_c, 10, 57, 127
2, 70152, Note_off_c, 10, 57, 127
2, 70155, Note_on_c, 11, 70, 127
2, 70307, Note_off_c, 11, 70, 127
2, 70307, Note_off_c, 0, 72, 127
2, 70311, Note_on_c, 0, 72, 127
2, 70311, Note_on_c, 3, 75, 127
2, 70311, Note_on_c, 10, 81, 127
2, 70311, Note_on_c, 10, 69, 127
2, 70463, Note_off_c, 10, 69, 127
2, 70466, Note_on_c, 7, 67, 127
2, 70618, Note_off_c, 7, 67, 127
2, 70618, Note_off_c, 10, 81, 127
2, 70618, Note_off_c, 3, 75, 127
2, 70618, Note_off_c, 0, 72, 127
2, 70622, Note_on_c, 0, 72, 127
2, 70622, Note_on_c, 3, 75, 127
2, 70622, Note_on_c, 10, 81, 127
2, 70622, Note_on_c, 5, 65, 127
2, 70774, Note_off_c, 5, 65, 127
2, 70777, Note_on_c, 3, 63, 127
2, 70929, Note_off_c, 3, 63, 127
2, 70929, Note_off_c, 10, 81, 127
2, 70929, Note_off_c, 3, 75, 127
2, 70929, Note_off_c, 0, 72, 127
2, 70933, Note_on_c, 5, 77, 127
2, 70933, Note_on_c, 0, 72, 127
2, 70933, Note_on_c, 2, 62, 127
2, 71085, Note_off_c, 2, 62, 127
2, 71085, Note_off_c, 5, 77, 127
2, 71088, Note_on_c, 7, 79, 127
2, 71088, Note_on_c, 3, 63, 127
2, 71240, Note_off_c, 3, 63, 127
2, 71240, Note_off_c, 7, 79, 127
2, 71244, Note_on_c, 5, 77, 127
2, 71244, Note_on_c, 2, 62, 127
2, 71386, Note_off_c, 0, 72, 127
2, 71396, Note_off_c, 2, 62, 127
2, 71396, Note_off_c, 5, 77, 127
2, 71399, Note_on_c, 3, 75, 127
2, 71399, Note_on_c, 0, 60, 127
2, 71551, Note_off_c, 0, 60, 127
2, 71551, Note_off_c, 3, 75, 127
2, 71555, Note_on_c, 2, 74, 127
2, 71555, Note_on_c, 11, 58, 127
2, 71707, Note_off_c, 11, 58, 127
2, 71707, Note_off_c, 2, 74, 127
2, 71710, Note_on_c, 0, 72, 127
2, 71710, Note_on_c, 10, 57, 127
2, 71862, Note_off_c, 10, 57, 127
2, 71862, Note_off_c, 0, 72, 127
2, 71866, Note_on_c, 11, 70, 127
2, 71866, Note_on_c, 7, 55, 127
2, 72018, Note_off_c, 7, 55, 127
2, 72021, Note_on_c, 10, 69, 127
2, 72173, Note_off_c, 10, 69, 127
2, 72173, Note_off_c, 11, 70, 127
2, 72177, Note_on_c, 7, 79, 127
2, 72177, Note_on_c, 11, 70, 127
2, 72177, Note_on_c, 2, 74, 127
2, 72177, Note_on_c, 7, 67, 127
2, 72329, Note_off_c, 7, 67, 127
2, 72332, Note_on_c, 5, 65, 127
2, 72484, Note_off_c, 5, 65, 127
2, 72484, Note_off_c, 2, 74, 127
2, 72484, Note_off_c, 11, 70, 127
2, 72484, Note_off_c, 7, 79, 127
2, 72488, Note_on_c, 7, 79, 127
2, 72488, Note_on_c, 11, 70, 127
2, 72488, Note_on_c, 2, 74, 127
2, 72488, Note_on_c, 3, 63, 127
2, 72640, Note_off_c, 3, 63, 127
2, 72643, Note_on_c, 2, 62, 127
2, 72795, Note_off_c, 2, 62, 127
2, 72795, Note_off_c, 2, 74, 127
2, 72795, Note_off_c, 11, 70, 127
2, 72795, Note_off_c, 7, 79, 127
2, 72799, Note_on_c, 3, 75, 127
2, 72799, Note_on_c, 11, 70, 127
2, 72799, Note_on_c, 0, 60, 127
2, 72951, Note_off_c, 0, 60, 127
2, 72951, Note_off_c, 3, 75, 127
2, 72954, Note_on_c, 5, 77, 127
2, 72954, Note_on_c, 2, 62, 127
2, 73106, Note_off_c, 2, 62, 127
2, 73106, Note_off_c, 5, 77, 127
2, 73110, Note_on_c, 3, 75, 127
2, 73110, Note_on_c, 0, 60, 127
2, 73252, Note_off_c, 11, 70, 127
2, 73262, Note_off_c, 0, 60, 127
2, 73262, Note_off_c, 3, 75, 127
2, 73265, Note_on_c, 2, 74, 127
2, 73265, Note_on_c, 11, 58, 127
2, 73417, Note_off_c, 11, 58, 127
2, 73417, Note_off_c, 2, 74, 127
2, 73421, Note_on_c, 0, 72, 127
2, 73421, Note_on_c, 10, 57, 127
2, 73573, Note_off_c, 10, 57, 127
2, 73573, Note_off_c, 0, 72, 127
2, 73576, Note_on_c, 11, 70, 127
2, 73576, Note_on_c, 7, 55, 127
2, 73728, Note_off_c, 7, 55, 127
2, 73728, Note_off_c, 11, 70, 127
2, 73732, Note_on_c, 10, 69, 127
2, 73732, Note_on_c, 5, 53, 127
2, 73884, Note_off_c, 5, 53, 127
2, 73888, Note_on_c, 7, 55, 127
2, 74039, Note_off_c, 10, 69, 127
2, 74040, Note_off_c, 7, 55, 127
2, 74043, Note_on_c, 0, 72, 127
2, 74043, Note_on_c, 5, 77, 127
2, 74043, Note_on_c, 10, 69, 127
2, 74043, Note_on_c, 5, 53, 127
2, 74195, Note_off_c, 5, 53, 127
2, 74199, Note_on_c, 3, 51, 127
2, 74350, Note_off_c, 10, 69, 127
2, 74350, Note_off_c, 5, 77, 127
2, 74350, Note_off_c, 0, 72, 127
2, 74351, Note_off_c, 3, 51, 127
2, 74354, Note_on_c, 5, 77, 127
2, 74354, Note_on_c, 10, 69, 127
2, 74354, Note_on_c, 0, 72, 127
2, 74354, Note_on_c, 2, 50, 127
2, 74506, Note_off_c, 2, 50, 127
2, 74510, Note_on_c, 0, 48, 127
2, 74661, Note_off_c, 0, 72, 127
2, 74661, Note_off_c, 10, 69, 127
2, 74661, Note_off_c, 5, 77, 127
2, 74662, Note_off_c, 0, 48, 127
2, 74665, Note_on_c, 2, 74, 127
2, 74665, Note_on_c, 5, 65, 127
2, 74665, Note_on_c, 11, 70, 127
2, 74665, Note_on_c, 11, 46, 127
2, 74817, Note_off_c, 11, 46, 127
2, 74821, Note_on_c, 0, 48, 127
2, 74972, Note_off_c, 11, 70, 127
2, 74972, Note_off_c, 2, 74, 127
2, 74973, Note_off_c, 0, 48, 127
2, 74976, Note_on_c, 11, 70, 127
2, 74976, Note_on_c, 2, 74, 127
2, 74976, Note_on_c, 11, 46, 127
2, 75128, Note_off_c, 11, 46, 127
2, 75132, Note_on_c, 10, 45, 127
2, 75283, Note_off_c, 2, 74, 127
2, 75283, Note_off_c, 11, 70, 127
2, 75284, Note_off_c, 10, 45, 127
2, 75287, Note_on_c, 2, 74, 127
2, 75287, Note_on_c, 11, 70, 127
2, 75287, Note_on_c, 7, 43, 127
2, 75439, Note_off_c, 7, 43, 127
2, 75443, Note_on_c, 5, 41, 127
2, 75594, Note_off_c, 11, 70, 127
2, 75594, Note_off_c, 2, 74, 127
2, 75595, Note_off_c, 5, 41, 127
2, 75596, Note_off_c, 5, 65, 127
2, 75598, Note_on_c, 2, 74, 127
2, 75598, Note_on_c, 7, 67, 127
2, 75598, Note_on_c, 3, 39, 127
2, 75750, Note_off_c, 7, 67, 127
2, 75754, Note_on_c, 5, 65, 127
2, 75905, Note_off_c, 3, 39, 127
2, 75906, Note_off_c, 5, 65, 127
2, 75909, Note_on_c, 7, 67, 127
2, 75909, Note_on_c, 3, 51, 127
2, 76061, Note_off_c, 7, 67, 127
2, 76065, Note_on_c, 10, 69, 127
2, 76216, Note_off_c, 3, 51, 127
2, 76217, Note_off_c, 10, 69, 127
2, 76220, Note_on_c, 11, 70, 127
2, 76220, Note_on_c, 3, 51, 127
2, 76372, Note_off_c, 11, 70, 127
2, 76376, Note_on_c, 7, 67, 127
2, 76527, Note_off_c, 3, 51, 127
2, 76528, Note_off_c, 7, 67, 127
2, 76529, Note_off_c, 2, 74, 127
2, 76531, Note_on_c, 0, 72, 127
2, 76531, Note_on_c, 10, 57, 127
2, 76687, Note_on_c, 11, 70, 127
2, 76838, Note_off_c, 10, 57, 127
2, 76839, Note_off_c, 11, 70, 127
2, 76842, Note_on_c, 10, 69, 127
2, 76842, Note_on_c, 10, 45, 127
2, 76994, Note_off_c, 10, 69, 127
2, 76998, Note_on_c, 7, 67, 127
2, 77149, Note_off_c, 10, 45, 127
2, 77150, Note_off_c, 7, 67, 127
2, 77153, Note_on_c, 5, 65, 127
2, 77153, Note_on_c, 10, 45, 127
2, 77305, Note_off_c, 5, 65, 127
2, 77309, Note_on_c, 3, 63, 127
2, 77460, Note_off_c, 10, 45, 127
2, 77461, Note_off_c, 3, 63, 127
2, 77464, Note_on_c, 5, 65, 127
2, 77464, Note_on_c, 2, 38, 127
2, 77616, Note_off_c, 5, 65, 127
2, 77620, Note_on_c, 3, 63, 127
2, 77771, Note_off_c, 2, 38, 127
2, 77772, Note_off_c, 3, 63, 127
2, 77776, Note_on_c, 5, 65, 127
2, 77776, Note_on_c, 2, 50, 127
2, 77928, Note_off_c, 5, 65, 127
2, 77931, Note_on_c, 7, 67, 127
2, 78083, Note_off_c, 7, 67, 127
2, 78083, Note_off_c, 2, 50, 127
2, 78087, Note_on_c, 10, 69, 127
2, 78087, Note_on_c, 2, 50, 127
2, 78239, Note_off_c, 10, 69, 127
2, 78242, Note_on_c, 5, 65, 127
2, 78394, Note_off_c, 5, 65, 127
2, 78394, Note_off_c, 2, 50, 127
2, 78394, Note_off_c, 0, 72, 127
2, 78398, Note_on_c, 2, 62, 127
2, 78398, Note_on_c, 11, 70, 127
2, 78398, Note_on_c, 7, 55, 127
2, 78550, Note_off_c, 2, 62, 127
2, 78553, Note_on_c, 10, 69, 127
2, 78705, Note_off_c, 10, 69, 127
2, 78705, Note_off_c, 7, 55, 127
2, 78709, Note_on_c, 7, 67, 127
2, 78709, Note_on_c, 7, 43, 127
2, 78861, Note_off_c, 7, 67, 127
2, 78864, Note_on_c, 5, 65, 127
2, 79016, Note_off_c, 5, 65, 127
2, 79016, Note_off_c, 7, 43, 127
2, 79020, Note_on_c, 3, 63, 127
2, 79020, Note_on_c, 7, 43, 127
2, 79172, Note_off_c, 3, 63, 127
2, 79175, Note_on_c, 2, 62, 127
2, 79327, Note_off_c, 2, 62, 127
2, 79327, Note_off_c, 7, 43, 127
2, 79331, Note_on_c, 3, 63, 127
2, 79331, Note_on_c, 0, 36, 127
2, 79483, Note_off_c, 3, 63, 127
2, 79486, Note_on_c, 2, 62, 127
2, 79638, Note_off_c, 2, 62, 127
2, 79638, Note_off_c, 0, 36, 127
2, 79642, Note_on_c, 3, 63, 127
2, 79642, Note_on_c, 0, 48, 127
2, 79794, Note_off_c, 3, 63, 127
2, 79797, Note_on_c, 5, 65, 127
2, 79949, Note_off_c, 5, 65, 127
2, 79949, Note_off_c, 0, 48, 127
2, 79953, Note_on_c, 7, 67, 127
2, 79953, Note_on_c, 0, 48, 127
2, 80105, Note_off_c, 7, 67, 127
2, 80108, Note_on_c, 3, 63, 127
2, 80260, Note_off_c, 3, 63, 127
2, 80260, Note_off_c, 0, 48, 127
2, 80261, Note_off_c, 11, 70, 127
2, 80264, Note_on_c, 0, 60, 127
2, 80264, Note_on_c, 10, 69, 127
2, 80264, Note_on_c, 5, 53, 127
2, 80416, Note_off_c, 0, 60, 127
2, 80419, Note_on_c, 7, 67, 127
2, 80571, Note_off_c, 7, 67, 127
2, 80575, Note_on_c, 5, 65, 127
2, 80727, Note_off_c, 5, 65, 127
2, 80730, Note_on_c, 3, 63, 127
2, 80882, Note_off_c, 3, 63, 127
2, 80886, Note_on_c, 2, 62, 127
2, 81038, Note_off_c, 2, 62, 127
2, 81041, Note_on_c, 0, 60, 127
2, 81193, Note_off_c, 0, 60, 127
2, 81193, Note_off_c, 5, 53, 127
2, 81195, Note_off_c, 10, 69, 127
2, 81197, Note_on_c, 10, 69, 127
2, 81197, Note_on_c, 2, 62, 127
2, 81271, Note_off_c, 10, 69, 127
2, 81275, Note_on_c, 11, 70, 127
2, 81349, Note_off_c, 11, 70, 127
2, 81349, Note_off_c, 2, 62, 127
2, 81352, Note_on_c, 0, 72, 127
2, 81352, Note_on_c, 5, 65, 127
2, 81426, Note_off_c, 0, 72, 127
2, 81430, Note_on_c, 11, 70, 127
2, 81504, Note_off_c, 11, 70, 127
2, 81504, Note_off_c, 5, 65, 127
2, 81508, Note_on_c, 0, 72, 127
2, 81508, Note_on_c, 3, 63, 127
2, 81582, Note_off_c, 0, 72, 127
2, 81586, Note_on_c, 11, 70, 127
2, 81660, Note_off_c, 11, 70, 127
2, 81660, Note_off_c, 3, 63, 127
2, 81664, Note_on_c, 0, 72, 127
2, 81664, Note_on_c, 2, 62, 127
2, 81738, Note_off_c, 0, 72, 127
2, 81741, Note_on_c, 11, 70, 127
2, 81815, Note_off_c, 11, 70, 127
2, 81816, Note_off_c, 2, 62, 127
2, 81819, Note_on_c, 0, 72, 127
2, 81819, Note_on_c, 0, 60, 127
2, 81893, Note_off_c, 0, 72, 127
2, 81897, Note_on_c, 11, 70, 127
2, 81971, Note_off_c, 11, 70, 127
2, 81971, Note_off_c, 0, 60, 127
2, 81975, Note_on_c, 10, 69, 127
2, 81975, Note_on_c, 11, 58, 127
2, 82049, Note_off_c, 10, 69, 127
2, 82052, Note_on_c, 11, 70, 127
2, 82126, Note_off_c, 11, 70, 127
2, 82127, Note_off_c, 11, 58, 127
2, 82130, Note_on_c, 0, 72, 127
2, 82130, Note_on_c, 10, 57, 127
2, 82282, Note_off_c, 10, 57, 127
2, 82286, Note_on_c, 11, 58, 127
2, 82437, Note_off_c, 0, 72, 127
2, 82438, Note_off_c, 11, 58, 127
2, 82441, Note_on_c, 0, 72, 127
2, 82441, Note_on_c, 5, 65, 127
2, 82441, Note_on_c, 10, 69, 127
2, 82441, Note_on_c, 10, 57, 127
2, 82593, Note_off_c, 10, 57, 127
2, 82597, Note_on_c, 7, 55, 127
2, 82748, Note_off_c, 10, 69, 127
2, 82748, Note_off_c, 5, 65, 127
2, 82748, Note_off_c, 0, 72, 127
2, 82749, Note_off_c, 7, 55, 127
2, 82752, Note_on_c, 10, 69, 127
2, 82752, Note_on_c, 0, 72, 127
2, 82752, Note_on_c, 5, 65, 127
2, 82752, Note_on_c, 5, 53, 127
2, 82904, Note_off_c, 5, 53, 127
2, 82908, Note_on_c, 3, 51, 127
2, 83059, Note_off_c, 5, 65, 127
2, 83059, Note_off_c, 0, 72, 127
2, 83059, Note_off_c, 10, 69, 127
2, 83060, Note_off_c, 3, 51, 127
2, 83063, Note_on_c, 5, 77, 127
2, 83063, Note_on_c, 8, 68, 127
2, 83063, Note_on_c, 11, 70, 127
2, 83063, Note_on_c, 2, 50, 127
2, 83215, Note_off_c, 2, 50, 127
2, 83219, Note_on_c, 0, 48, 127
2, 83370, Note_off_c, 8, 68, 127
2, 83370, Note_off_c, 5, 77, 127
2, 83371, Note_off_c, 0, 48, 127
2, 83374, Note_on_c, 5, 77, 127
2, 83374, Note_on_c, 8, 68, 127
2, 83374, Note_on_c, 11, 46, 127
2, 83526, Note_off_c, 11, 46, 127
2, 83530, Note_on_c, 8, 44, 127
2, 83681, Note_off_c, 8, 68, 127
2, 83681, Note_off_c, 5, 77, 127
2, 83682, Note_off_c, 8, 44, 127
2, 83685, Note_on_c, 5, 77, 127
2, 83685, Note_on_c, 8, 68, 127
2, 83685, Note_on_c, 7, 43, 127
2, 83837, Note_off_c, 7, 43, 127
2, 83841, Note_on_c, 5, 41, 127
2, 83992, Note_off_c, 8, 68, 127
2, 83992, Note_off_c, 5, 77, 127
2, 83993, Note_off_c, 5, 41, 127
2, 83996, Note_on_c, 5, 77, 127
2, 83996, Note_on_c, 8, 68, 127
2, 83996, Note_on_c, 3, 39, 127
2, 84303, Note_off_c, 3, 39, 127
2, 84303, Note_off_c, 8, 68, 127
2, 84303, Note_off_c, 5, 77, 127
2, 84307, Note_on_c, 3, 75, 127
2, 84307, Note_on_c, 7, 67, 127
2, 84307, Note_on_c, 11, 58, 127
2, 84459, Note_off_c, 11, 58, 127
2, 84463, Note_on_c, 8, 56, 127
2, 84597, Note_off_c, 7, 67, 127
2, 84597, Note_off_c, 3, 75, 127
2, 84598, Note_off_c, 11, 70, 127
2, 84615, Note_off_c, 8, 56, 127
2, 84618, Note_on_c, 3, 75, 127
2, 84618, Note_on_c, 7, 67, 127
2, 84618, Note_on_c, 11, 70, 127
2, 84618, Note_on_c, 7, 55, 127
2, 84770, Note_off_c, 7, 55, 127
2, 84774, Note_on_c, 5, 53, 127
2, 84925, Note_off_c, 11, 70, 127
2, 84925, Note_off_c, 7, 67, 127
2, 84925, Note_off_c, 3, 75, 127
2, 84926, Note_off_c, 5, 53, 127
2, 84929, Note_on_c, 7, 79, 127
2, 84929, Note_on_c, 11, 70, 127
2, 84929, Note_on_c, 0, 72, 127
2, 84929, Note_on_c, 4, 52, 127
2, 85081, Note_off_c, 4, 52, 127
2, 85085, Note_on_c, 2, 50, 127
2, 85236, Note_off_c, 11, 70, 127
2, 85236, Note_off_c, 7, 79, 127
2, 85237, Note_off_c, 2, 50, 127
2, 85240, Note_on_c, 7, 79, 127
2, 85240, Note_on_c, 11, 70, 127
2, 85240, Note_on_c, 0, 48, 127
2, 85392, Note_off_c, 0, 48, 127
2, 85396, Note_on_c, 11, 46, 127
2, 85547, Note_off_c, 11, 70, 127
2, 85547, Note_off_c, 7, 79, 127
2, 85548, Note_off_c, 11, 46, 127
2, 85552, Note_on_c, 7, 79, 127
2, 85552, Note_on_c, 11, 70, 127
2, 85552, Note_on_c, 10, 45, 127
2, 85704, Note_off_c, 10, 45, 127
2, 85707, Note_on_c, 7, 43, 127
2, 85859, Note_off_c, 7, 43, 127
2, 85859, Note_off_c, 11, 70, 127
2, 85859, Note_off_c, 7, 79, 127
2, 85863, Note_on_c, 11, 70, 127
2, 85863, Note_on_c, 7, 79, 127
2, 85863, Note_on_c, 5, 41, 127
2, 86170, Note_off_c, 5, 41, 127
2, 86170, Note_off_c, 7, 79, 127
2, 86170, Note_off_c, 11, 70, 127
2, 86174, Note_on_c, 10, 69, 127
2, 86174, Note_on_c, 5, 77, 127
2, 86174, Note_on_c, 3, 63, 127
2, 86326, Note_off_c, 3, 63, 127
2, 86329, Note_on_c, 2, 62, 127
2, 86429, Note_off_c, 0, 72, 127
2, 86464, Note_off_c, 5, 77, 127
2, 86464, Note_off_c, 10, 69, 127
2, 86481, Note_off_c, 2, 62, 127
2, 86485, Note_on_c, 5, 77, 127
2, 86485, Note_on_c, 10, 69, 127
2, 86485, Note_on_c, 0, 72, 127
2, 86485, Note_on_c, 0, 60, 127
2, 86637, Note_off_c, 0, 60, 127
2, 86640, Note_on_c, 11, 58, 127
2, 86792, Note_off_c, 11, 58, 127
2, 86792, Note_off_c, 0, 72, 127
2, 86792, Note_off_c, 10, 69, 127
2, 86792, Note_off_c, 5, 77, 127
2, 86796, Note_on_c, 3, 75, 127
2, 86796, Note_on_c, 5, 77, 127
2, 86796, Note_on_c, 0, 72, 127
2, 86796, Note_on_c, 10, 57, 127
2, 86948, Note_off_c, 10, 57, 127
2, 86951, Note_on_c, 7, 55, 127
2, 87103, Note_off_c, 7, 55, 127
2, 87103, Note_off_c, 0, 72, 127
2, 87103, Note_off_c, 3, 75, 127
2, 87107, Note_on_c, 3, 75, 127
2, 87107, Note_on_c, 0, 72, 127
2, 87107, Note_on_c, 5, 53, 127
2, 87259, Note_off_c, 5, 53, 127
2, 87262, Note_on_c, 3, 51, 127
2, 87414, Note_off_c, 3, 51, 127
2, 87414, Note_off_c, 0, 72, 127
2, 87414, Note_off_c, 3, 75, 127
2, 87418, Note_on_c, 3, 75, 127
2, 87418, Note_on_c, 0, 72, 127
2, 87418, Note_on_c, 2, 50, 127
2, 87570, Note_off_c, 2, 50, 127
2, 87573, Note_on_c, 0, 48, 127
2, 87725, Note_off_c, 0, 48, 127
2, 87725, Note_off_c, 0, 72, 127
2, 87725, Note_off_c, 3, 75, 127
2, 87729, Note_on_c, 3, 75, 127
2, 87729, Note_on_c, 0, 72, 127
2, 87729, Note_on_c, 11, 46, 127
2, 87881, Note_off_c, 11, 46, 127
2, 87884, Note_on_c, 10, 45, 127
2, 88036, Note_off_c, 10, 45, 127
2, 88036, Note_off_c, 0, 72, 127
2, 88036, Note_off_c, 3, 75, 127
2, 88040, Note_on_c, 2, 74, 127
2, 88040, Note_on_c, 11, 70, 127
2, 88040, Note_on_c, 11, 46, 127
2, 88192, Note_off_c, 11, 46, 127
2, 88195, Note_on_c, 0, 48, 127
2, 88347, Note_off_c, 0, 48, 127
2, 88347, Note_off_c, 11, 70, 127
2, 88347, Note_off_c, 2, 74, 127
2, 88351, Note_on_c, 11, 70, 127
2, 88351, Note_on_c, 8, 68, 127
2, 88351, Note_on_c, 2, 50, 127
2, 88503, Note_off_c, 2, 50, 127
2, 88506, Note_on_c, 11, 46, 127
2, 88658, Note_off_c, 11, 46, 127
2, 88658, Note_off_c, 8, 68, 127
2, 88658, Note_off_c, 11, 70, 127
2, 88659, Note_off_c, 5, 77, 127
2, 88662, Note_on_c, 11, 70, 127
2, 88662, Note_on_c, 3, 75, 127
2, 88662, Note_on_c, 7, 67, 127
2, 88662, Note_on_c, 3, 51, 127
2, 88814, Note_off_c, 3, 51, 127
2, 88817, Note_on_c, 2, 50, 127
2, 88969, Note_off_c, 2, 50, 127
2, 88969, Note_off_c, 7, 67, 127
2, 88969, Note_off_c, 3, 75, 127
2, 88973, Note_on_c, 2, 74, 127
2, 88973, Note_on_c, 5, 65, 127
2, 88973, Note_on_c, 3, 51, 127
2, 89125, Note_off_c, 3, 51, 127
2, 89128, Note_on_c, 5, 53, 127
2, 89280, Note_off_c, 5, 53, 127
2, 89280, Note_off_c, 5, 65, 127
2, 89280, Note_off_c, 2, 74, 127
2, 89284, Note_on_c, 3, 63, 127
2, 89284, Note_on_c, 0, 72, 127
2, 89284, Note_on_c, 7, 55, 127
2, 89436, Note_off_c, 7, 55, 127
2, 89440, Note_on_c, 3, 51, 127
2, 89591, Note_off_c, 0, 72, 127
2, 89591, Note_off_c, 3, 63, 127
2, 89592, Note_off_c, 3, 51, 127
2, 89593, Note_off_c, 11, 70, 127
2, 89595, Note_on_c, 3, 63, 127
2, 89595, Note_on_c, 10, 69, 127
2, 89595, Note_on_c, 0, 72, 127
2, 89595, Note_on_c, 5, 53, 127
2, 89747, Note_off_c, 5, 53, 127
2, 89751, Note_on_c, 7, 55, 127
2, 89903, Note_off_c, 7, 55, 127
2, 89906, Note_on_c, 10, 57, 127
2, 90058, Note_off_c, 10, 57, 127
2, 90058, Note_off_c, 0, 72, 127
2, 90058, Note_off_c, 3, 63, 127
2, 90062, Note_on_c, 5, 65, 127
2, 90062, Note_on_c, 2, 74, 127
2, 90062, Note_on_c, 5, 53, 127
2, 90210, Note_off_c, 10, 69, 127
2, 90214, Note_off_c, 5, 53, 127
2, 90214, Note_off_c, 2, 74, 127
2, 90214, Note_off_c, 5, 65, 127
2, 90217, Note_on_c, 2, 62, 127
2, 90217, Note_on_c, 11, 58, 127
2, 90295, Note_on_c, 5, 65, 127
2, 90373, Note_on_c, 11, 70, 127
2, 90524, Note_off_c, 11, 58, 127
2, 90526, Note_off_c, 5, 65, 127
2, 90528, Note_on_c, 7, 67, 127
2, 90528, Note_on_c, 3, 51, 127
2, 90670, Note_off_c, 2, 62, 127
2, 90680, Note_off_c, 11, 70, 127
2, 90684, Note_on_c, 3, 63, 127
2, 90684, Note_on_c, 0, 72, 127
2, 90835, Note_off_c, 3, 51, 127
2, 90835, Note_off_c, 7, 67, 127
2, 90836, Note_off_c, 0, 72, 127
2, 90836, Note_off_c, 3, 63, 127
2, 90839, Note_on_c, 0, 60, 127
2, 90839, Note_on_c, 11, 70, 127
2, 90839, Note_on_c, 5, 53, 127
2, 90913, Note_off_c, 11, 70, 127
2, 90917, Note_on_c, 10, 69, 127
2, 90991, Note_off_c, 10, 69, 127
2, 90995, Note_on_c, 11, 70, 127
2, 91069, Note_off_c, 11, 70, 127
2, 91072, Note_on_c, 10, 69, 127
2, 91146, Note_off_c, 10, 69, 127
2, 91146, Note_off_c, 5, 53, 127
2, 91150, Note_on_c, 11, 70, 127
2, 91150, Note_on_c, 5, 41, 127
2, 91224, Note_off_c, 11, 70, 127
2, 91228, Note_on_c, 10, 69, 127
2, 91302, Note_off_c, 10, 69, 127
2, 91306, Note_on_c, 11, 70, 127
2, 91454, Note_off_c, 0, 60, 127
2, 91457, Note_off_c, 5, 41, 127
2, 91458, Note_off_c, 11, 70, 127
2, 91461, Note_on_c, 2, 62, 127
2, 91461, Note_on_c, 5, 65, 127
2, 91461, Note_on_c, 11, 70, 127
2, 91461, Note_on_c, 11, 46, 127
2, 91613, Note_off_c, 11, 70, 127
2, 91633, Note_on_c, 0, 72, 127
2, 91768, Note_off_c, 11, 46, 127
2, 91768, Note_off_c, 5, 65, 127
2, 91768, Note_off_c, 2, 62, 127
2, 91785, Note_off_c, 0, 72, 127
2, 91788, Note_on_c, 5, 65, 127
2, 91788, Note_on_c, 2, 74, 127
2, 91940, Note_off_c, 2, 74, 127
2, 91944, Note_on_c, 11, 70, 127
2, 92095, Note_off_c, 5, 65, 127
2, 92096, Note_off_c, 11, 70, 127
2, 92099, Note_on_c, 5, 65, 127
2, 92099, Note_on_c, 10, 69, 127
2, 92251, Note_off_c, 10, 69, 127
2, 92255, Note_on_c, 11, 70, 127
2, 92406, Note_off_c, 5, 65, 127
2, 92407, Note_off_c, 11, 70, 127
2, 92410, Note_on_c, 2, 62, 127
2, 92410, Note_on_c, 5, 65, 127
2, 92562, Note_off_c, 5, 65, 127
2, 92566, Note_on_c, 11, 70, 127
2, 92717, Note_off_c, 2, 62, 127
2, 92718, Note_off_c, 11, 70, 127
2, 92721, Note_on_c, 11, 58, 127
2, 92721, Note_on_c, 2, 74, 127
2, 92873, Note_off_c, 2, 74, 127
2, 92877, Note_on_c, 11, 70, 127
2, 93028, Note_off_c, 11, 58, 127
2, 93029, Note_off_c, 11, 70, 127
2, 93032, Note_on_c, 11, 58, 127
2, 93032, Note_on_c, 4, 76, 127
2, 93184, Note_off_c, 4, 76, 127
2, 93188, Note_on_c, 11, 70, 127
2, 93339, Note_off_c, 11, 58, 127
2, 93340, Note_off_c, 11, 70, 127
2, 93344, Note_on_c, 10, 57, 127
2, 93344, Note_on_c, 5, 77, 127
2, 93496, Note_off_c, 10, 57, 127
2, 93499, Note_on_c, 7, 55, 127
2, 93651, Note_off_c, 7, 55, 127
2, 93651, Note_off_c, 5, 77, 127
2, 93655, Note_on_c, 10, 57, 127
2, 93655, Note_on_c, 0, 84, 127
2, 93807, Note_off_c, 10, 57, 127
2, 93810, Note_on_c, 5, 53, 127
2, 93962, Note_off_c, 5, 53, 127
2, 93962, Note_off_c, 0, 84, 127
2, 93966, Note_on_c, 4, 52, 127
2, 93966, Note_on_c, 0, 84, 127
2, 94118, Note_off_c, 4, 52, 127
2, 94121, Note_on_c, 5, 53, 127
2, 94273, Note_off_c, 5, 53, 127
2, 94273, Note_off_c, 0, 84, 127
2, 94277, Note_on_c, 0, 48, 127
2, 94277, Note_on_c, 10, 81, 127
2, 94429, Note_off_c, 0, 48, 127
2, 94432, Note_on_c, 5, 53, 127
2, 94584, Note_off_c, 5, 53, 127
2, 94584, Note_off_c, 10, 81, 127
2, 94588, Note_on_c, 10, 57, 127
2, 94588, Note_on_c, 5, 77, 127
2, 94740, Note_off_c, 10, 57, 127
2, 94743, Note_on_c, 5, 53, 127
2, 94895, Note_off_c, 5, 53, 127
2, 94895, Note_off_c, 5, 77, 127
2, 94899, Note_on_c, 12, 59, 127
2, 94899, Note_on_c, 5, 77, 127
2, 95051, Note_off_c, 12, 59, 127
2, 95054, Note_on_c, 5, 53, 127
2, 95206, Note_off_c, 5, 53, 127
2, 95206, Note_off_c, 5, 77, 127
2, 95210, Note_on_c, 0, 60, 127
2, 95210, Note_on_c, 3, 75, 127
2, 95362, Note_off_c, 3, 75, 127
2, 95365, Note_on_c, 2, 74, 127
2, 95517, Note_off_c, 2, 74, 127
2, 95517, Note_off_c, 0, 60, 127
2, 95521, Note_on_c, 7, 55, 127
2, 95521, Note_on_c, 3, 75, 127
2, 95673, Note_off_c, 3, 75, 127
2, 95676, Note_on_c, 0, 72, 127
2, 95828, Note_off_c, 0, 72, 127
2, 95828, Note_off_c, 7, 55, 127
2, 95832, Note_on_c, 7, 55, 127
2, 95832, Note_on_c, 12, 71, 127
2, 95984, Note_off_c, 12, 71, 127
2, 95987, Note_on_c, 0, 72, 127
2, 96139, Note_off_c, 0, 72, 127
2, 96139, Note_off_c, 7, 55, 127
2, 96143, Note_on_c, 3, 51, 127
2, 96143, Note_on_c, 7, 67, 127
2, 96295, Note_off_c, 7, 67, 127
2, 96298, Note_on_c, 0, 72, 127
2, 96450, Note_off_c, 0, 72, 127
2, 96450, Note_off_c, 3, 51, 127
2, 96454, Note_on_c, 0, 48, 127
2, 96454, Note_on_c, 3, 75, 127
2, 96606, Note_off_c, 3, 75, 127
2, 96609, Note_on_c, 0, 72, 127
2, 96761, Note_off_c, 0, 72, 127
2, 96761, Note_off_c, 0, 48, 127
2, 96765, Note_on_c, 0, 48, 127
2, 96765, Note_on_c, 6, 78, 127
2, 96917, Note_off_c, 6, 78, 127
2, 96920, Note_on_c, 0, 72, 127
2, 97072, Note_off_c, 0, 72, 127
2, 97072, Note_off_c, 0, 48, 127
2, 97076, Note_on_c, 11, 46, 127
2, 97076, Note_on_c, 7, 79, 127
2, 97228, Note_off_c, 11, 46, 127
2, 97232, Note_on_c, 10, 45, 127
2, 97383, Note_off_c, 7, 79, 127
2, 97384, Note_off_c, 10, 45, 127
2, 97387, Note_on_c, 11, 46, 127
2, 97387, Note_on_c, 2, 74, 127
2, 97539, Note_off_c, 11, 46, 127
2, 97543, Note_on_c, 7, 43, 127
2, 97694, Note_off_c, 2, 74, 127
2, 97695, Note_off_c, 7, 43, 127
2, 97698, Note_on_c, 6, 42, 127
2, 97698, Note_on_c, 2, 74, 127
2, 97850, Note_off_c, 6, 42, 127
2, 97854, Note_on_c, 7, 43, 127
2, 98005, Note_off_c, 2, 74, 127
2, 98006, Note_off_c, 7, 43, 127
2, 98009, Note_on_c, 2, 38, 127
2, 98009, Note_on_c, 11, 70, 127
2, 98161, Note_off_c, 2, 38, 127
2, 98165, Note_on_c, 7, 43, 127
2, 98316, Note_off_c, 11, 70, 127
2, 98317, Note_off_c, 7, 43, 127
2, 98320, Note_on_c, 11, 46, 127
2, 98320, Note_on_c, 7, 67, 127
2, 98472, Note_off_c, 11, 46, 127
2, 98476, Note_on_c, 7, 43, 127
2, 98627, Note_off_c, 7, 67, 127
2, 98628, Note_off_c, 7, 43, 127
2, 98631, Note_on_c, 1, 49, 127
2, 98631, Note_on_c, 7, 67, 127
2, 98783, Note_off_c, 1, 49, 127
2, 98787, Note_on_c, 7, 43, 127
2, 98938, Note_off_c, 7, 67, 127
2, 98939, Note_off_c, 7, 43, 127
2, 98942, Note_on_c, 2, 50, 127
2, 98942, Note_on_c, 5, 65, 127
2, 99094, Note_off_c, 2, 50, 127
2, 99098, Note_on_c, 4, 52, 127
2, 99249, Note_off_c, 5, 65, 127
2, 99250, Note_off_c, 4, 52, 127
2, 99253, Note_on_c, 5, 53, 127
2, 99253, Note_on_c, 10, 81, 127
2, 99405, Note_off_c, 5, 53, 127
2, 99409, Note_on_c, 2, 50, 127
2, 99560, Note_off_c, 10, 81, 127
2, 99561, Note_off_c, 2, 50, 127
2, 99564, Note_on_c, 1, 49, 127
2, 99564, Note_on_c, 10, 81, 127
2, 99716, Note_off_c, 1, 49, 127
2, 99720, Note_on_c, 2, 50, 127
2, 99871, Note_off_c, 10, 81, 127
2, 99872, Note_off_c, 2, 50, 127
2, 99875, Note_on_c, 10, 45, 127
2, 99875, Note_on_c, 5, 77, 127
2, 100027, Note_off_c, 10, 45, 127
2, 100031, Note_on_c, 2, 50, 127
2, 100182, Note_off_c, 5, 77, 127
2, 100183, Note_off_c, 2, 50, 127
2, 100186, Note_on_c, 5, 53, 127
2, 100186, Note_on_c, 2, 74, 127
2, 100338, Note_off_c, 5, 53, 127
2, 100342, Note_on_c, 2, 50, 127
2, 100493, Note_off_c, 2, 74, 127
2, 100494, Note_off_c, 2, 50, 127
2, 100497, Note_on_c, 8, 56, 127
2, 100497, Note_on_c, 2, 74, 127
2, 100649, Note_off_c, 8, 56, 127
2, 100653, Note_on_c, 2, 50, 127
2, 100804, Note_off_c, 2, 74, 127
2, 100805, Note_off_c, 2, 50, 127
2, 100808, Note_on_c, 10, 57, 127
2, 100808, Note_on_c, 1, 73, 127
2, 100960, Note_off_c, 1, 73, 127
2, 100964, Note_on_c, 12, 71, 127
2, 101115, Note_off_c, 10, 57, 127
2, 101116, Note_off_c, 12, 71, 127
2, 101120, Note_on_c, 10, 69, 127
2, 101120, Note_on_c, 1, 73, 127
2, 101272, Note_off_c, 1, 73, 127
2, 101275, Note_on_c, 2, 74, 127
2, 101427, Note_off_c, 2, 74, 127
2, 101427, Note_off_c, 10, 69, 127
2, 101431, Note_on_c, 10, 69, 127
2, 101431, Note_on_c, 12, 71, 127
2, 101583, Note_off_c, 12, 71, 127
2, 101586, Note_on_c, 1, 73, 127
2, 101738, Note_off_c, 1, 73, 127
2, 101738, Note_off_c, 10, 69, 127
2, 101742, Note_on_c, 5, 65, 127
2, 101742, Note_on_c, 2, 74, 127
2, 101894, Note_off_c, 2, 74, 127
2, 101897, Note_on_c, 1, 73, 127
2, 102049, Note_off_c, 1, 73, 127
2, 102049, Note_off_c, 5, 65, 127
2, 102053, Note_on_c, 2, 62, 127
2, 102053, Note_on_c, 5, 65, 127
2, 102053, Note_on_c, 2, 74, 127
2, 102205, Note_off_c, 2, 74, 127
2, 102208, Note_on_c, 4, 76, 127
2, 102360, Note_off_c, 4, 76, 127
2, 102360, Note_off_c, 5, 65, 127
2, 102360, Note_off_c, 2, 62, 127
2, 102364, Note_on_c, 2, 62, 127
2, 102364, Note_on_c, 5, 65, 127
2, 102364, Note_on_c, 1, 73, 127
2, 102516, Note_off_c, 1, 73, 127
2, 102519, Note_on_c, 2, 74, 127
2, 102671, Note_off_c, 2, 74, 127
2, 102671, Note_off_c, 5, 65, 127
2, 102671, Note_off_c, 2, 62, 127
2, 102675, Note_on_c, 1, 61, 127
2, 102675, Note_on_c, 4, 64, 127
2, 102675, Note_on_c, 4, 76, 127
2, 102827, Note_off_c, 1, 61, 127
2, 102830, Note_on_c, 12, 59, 127
2, 102982, Note_off_c, 12, 59, 127
2, 102982, Note_off_c, 4, 76, 127
2, 102982, Note_off_c, 4, 64, 127
2, 102986, Note_on_c, 10, 57, 127
2, 102986, Note_on_c, 1, 61, 127
2, 102986, Note_on_c, 10, 69, 127
2, 103138, Note_off_c, 1, 61, 127
2, 103141, Note_on_c, 2, 62, 127
2, 103293, Note_off_c, 2, 62, 127
2, 103293, Note_off_c, 10, 69, 127
2, 103293, Note_off_c, 10, 57, 127
2, 103297, Note_on_c, 10, 57, 127
2, 103297, Note_on_c, 12, 59, 127
2, 103449, Note_off_c, 12, 59, 127
2, 103452, Note_on_c, 1, 61, 127
2, 103604, Note_off_c, 1, 61, 127
2, 103604, Note_off_c, 10, 57, 127
2, 103608, Note_on_c, 5, 53, 127
2, 103608, Note_on_c, 10, 57, 127
2, 103608, Note_on_c, 2, 62, 127
2, 103760, Note_off_c, 2, 62, 127
2, 103763, Note_on_c, 1, 61, 127
2, 103915, Note_off_c, 1, 61, 127
2, 103915, Note_off_c, 10, 57, 127
2, 103915, Note_off_c, 5, 53, 127
2, 103919, Note_on_c, 2, 50, 127
2, 103919, Note_on_c, 5, 53, 127
2, 103919, Note_on_c, 10, 57, 127
2, 103919, Note_on_c, 2, 62, 127
2, 104071, Note_off_c, 2, 62, 127
2, 104074, Note_on_c, 4, 64, 127
2, 104226, Note_off_c, 4, 64, 127
2, 104226, Note_off_c, 10, 57, 127
2, 104226, Note_off_c, 5, 53, 127
2, 104226, Note_off_c, 2, 50, 127
2, 104230, Note_on_c, 5, 53, 127
2, 104230, Note_on_c, 2, 50, 127
2, 104230, Note_on_c, 10, 57, 127
2, 104230, Note_on_c, 5, 65, 127
2, 104382, Note_off_c, 5, 65, 127
2, 104385, Note_on_c, 7, 67, 127
2, 104537, Note_off_c, 7, 67, 127
2, 104537, Note_off_c, 10, 57, 127
2, 104537, Note_off_c, 2, 50, 127
2, 104537, Note_off_c, 5, 53, 127
2, 104541, Note_on_c, 1, 49, 127
2, 104541, Note_on_c, 4, 52, 127
2, 104541, Note_on_c, 10, 57, 127
2, 104541, Note_on_c, 10, 69, 127
2, 104693, Note_off_c, 10, 69, 127
2, 104696, Note_on_c, 7, 67, 127
2, 104848, Note_off_c, 7, 67, 127
2, 104848, Note_off_c, 10, 57, 127
2, 104848, Note_off_c, 4, 52, 127
2, 104848, Note_off_c, 1, 49, 127
2, 104852, Note_on_c, 10, 45, 127
2, 104852, Note_on_c, 1, 49, 127
2, 104852, Note_on_c, 4, 52, 127
2, 104852, Note_on_c, 10, 69, 127
2, 105004, Note_off_c, 10, 69, 127
2, 105008, Note_on_c, 12, 71, 127
2, 105159, Note_off_c, 4, 52, 127
2, 105159, Note_off_c, 1, 49, 127
2, 105159, Note_off_c, 10, 45, 127
2, 105160, Note_off_c, 12, 71, 127
2, 105163, Note_on_c, 1, 49, 127
2, 105163, Note_on_c, 10, 45, 127
2, 105163, Note_on_c, 4, 52, 127
2, 105163, Note_on_c, 1, 73, 127
2, 105315, Note_off_c, 1, 73, 127
2, 105319, Note_on_c, 10, 69, 127
2, 105470, Note_off_c, 4, 52, 127
2, 105470, Note_off_c, 10, 45, 127
2, 105470, Note_off_c, 1, 49, 127
2, 105471, Note_off_c, 10, 69, 127
2, 105474, Note_on_c, 5, 41, 127
2, 105474, Note_on_c, 10, 45, 127
2, 105474, Note_on_c, 2, 50, 127
2, 105474, Note_on_c, 2, 74, 127
2, 105626, Note_off_c, 2, 74, 127
2, 105630, Note_on_c, 1, 73, 127
2, 105781, Note_off_c, 2, 50, 127
2, 105781, Note_off_c, 10, 45, 127
2, 105781, Note_off_c, 5, 41, 127
2, 105782, Note_off_c, 1, 73, 127
2, 105785, Note_on_c, 5, 41, 127
2, 105785, Note_on_c, 2, 38, 127
2, 105785, Note_on_c, 2, 50, 127
2, 105785, Note_on_c, 10, 45, 127
2, 105785, Note_on_c, 2, 74, 127
2, 105937, Note_off_c, 2, 74, 127
2, 105941, Note_on_c, 4, 76, 127
2, 106092, Note_off_c, 10, 45, 127
2, 106092, Note_off_c, 2, 50, 127
2, 106092, Note_off_c, 2, 38, 127
2, 106092, Note_off_c, 5, 41, 127
2, 106093, Note_off_c, 4, 76, 127
2, 106096, Note_on_c, 5, 41, 127
2, 106096, Note_on_c, 10, 45, 127
2, 106096, Note_on_c, 2, 38, 127
2, 106096, Note_on_c, 5, 77, 127
2, 106248, Note_off_c, 5, 77, 127
2, 106252, Note_on_c, 7, 79, 127
2, 106403, Note_off_c, 2, 38, 127
2, 106403, Note_off_c, 10, 45, 127
2, 106403, Note_off_c, 5, 41, 127
2, 106404, Note_off_c, 7, 79, 127
2, 106407, Note_on_c, 10, 45, 127
2, 106407, Note_on_c, 1, 37, 127
2, 106407, Note_on_c, 4, 40, 127
2, 106407, Note_on_c, 10, 81, 127
2, 106559, Note_off_c, 10, 81, 127
2, 106563, Note_on_c, 11, 82, 127
2, 106715, Note_off_c, 11, 82, 127
2, 106718, Note_on_c, 10, 69, 127
2, 106718, Note_on_c, 10, 81, 127
2, 106870, Note_off_c, 10, 81, 127
2, 106874, Note_on_c, 7, 79, 127
2, 107022, Note_off_c, 4, 40, 127
2, 107022, Note_off_c, 1, 37, 127
2, 107022, Note_off_c, 10, 45, 127
2, 107025, Note_off_c, 10, 69, 127
2, 107026, Note_off_c, 7, 79, 127
2, 107029, Note_on_c, 10, 69, 127
2, 107029, Note_on_c, 5, 77, 127
2, 107181, Note_off_c, 5, 77, 127
2, 107185, Note_on_c, 4, 76, 127
2, 107336, Note_off_c, 10, 69, 127
2, 107337, Note_off_c, 4, 76, 127
2, 107340, Note_on_c, 2, 74, 127
2, 107340, Note_on_c, 5, 77, 127
2, 107492, Note_off_c, 2, 74, 127
2, 107496, Note_on_c, 4, 76, 127
2, 107647, Note_off_c, 5, 77, 127
2, 107648, Note_off_c, 4, 76, 127
2, 107651, Note_on_c, 2, 74, 127
2, 107651, Note_on_c, 10, 81, 127
2, 107651, Note_on_c, 5, 77, 127
2, 107803, Note_off_c, 2, 74, 127
2, 107807, Note_on_c, 0, 72, 127
2, 107958, Note_off_c, 5, 77, 127
2, 107958, Note_off_c, 10, 81, 127
2, 107959, Note_off_c, 0, 72, 127
2, 107962, Note_on_c, 11, 70, 127
2, 107962, Note_on_c, 5, 77, 127
2, 107962, Note_on_c, 10, 81, 127
2, 108114, Note_off_c, 11, 70, 127
2, 108118, Note_on_c, 10, 69, 127
2, 108269, Note_off_c, 10, 81, 127
2, 108269, Note_off_c, 5, 77, 127
2, 108270, Note_off_c, 10, 69, 127
2, 108273, Note_on_c, 7, 67, 127
2, 108273, Note_on_c, 5, 77, 127
2, 108273, Note_on_c, 11, 82, 127
2, 108425, Note_off_c, 11, 82, 127
2, 108425, Note_off_c, 7, 67, 127
2, 108429, Note_on_c, 10, 69, 127
2, 108429, Note_on_c, 0, 84, 127
2, 108581, Note_off_c, 0, 84, 127
2, 108581, Note_off_c, 10, 69, 127
2, 108584, Note_on_c, 7, 67, 127
2, 108584, Note_on_c, 11, 82, 127
2, 108726, Note_off_c, 5, 77, 127
2, 108736, Note_off_c, 11, 82, 127
2, 108736, Note_off_c, 7, 67, 127
2, 108740, Note_on_c, 5, 65, 127
2, 108740, Note_on_c, 10, 81, 127
2, 108892, Note_off_c, 10, 81, 127
2, 108892, Note_off_c, 5, 65, 127
2, 108896, Note_on_c, 4, 64, 127
2, 108896, Note_on_c, 7, 79, 127
2, 109048, Note_off_c, 7, 79, 127
2, 109048, Note_off_c, 4, 64, 127
2, 109051, Note_on_c, 2, 62, 127
2, 109051, Note_on_c, 5, 77, 127
2, 109203, Note_off_c, 5, 77, 127
2, 109203, Note_off_c, 2, 62, 127
2, 109207, Note_on_c, 0, 60, 127
2, 109207, Note_on_c, 4, 76, 127
2, 109359, Note_off_c, 0, 60, 127
2, 109362, Note_on_c, 2, 62, 127
2, 109514, Note_off_c, 2, 62, 127
2, 109514, Note_off_c, 4, 76, 127
2, 109518, Note_on_c, 0, 60, 127
2, 109518, Note_on_c, 7, 79, 127
2, 109518, Note_on_c, 4, 76, 127
2, 109670, Note_off_c, 0, 60, 127
2, 109673, Note_on_c, 11, 58, 127
2, 109825, Note_off_c, 11, 58, 127
2, 109825, Note_off_c, 4, 76, 127
2, 109825, Note_off_c, 7, 79, 127
2, 109829, Note_on_c, 10, 57, 127
2, 109829, Note_on_c, 7, 79, 127
2, 109829, Note_on_c, 4, 76, 127
2, 109981, Note_off_c, 10, 57, 127
2, 109984, Note_on_c, 7, 55, 127
2, 110136, Note_off_c, 7, 55, 127
2, 110136, Note_off_c, 4, 76, 127
2, 110136, Note_off_c, 7, 79, 127
2, 110140, Note_on_c, 5, 53, 127
2, 110140, Note_on_c, 4, 76, 127
2, 110140, Note_on_c, 10, 81, 127
2, 110292, Note_off_c, 10, 81, 127
2, 110292, Note_off_c, 5, 53, 127
2, 110295, Note_on_c, 7, 55, 127
2, 110295, Note_on_c, 11, 82, 127
2, 110447, Note_off_c, 11, 82, 127
2, 110447, Note_off_c, 7, 55, 127
2, 110451, Note_on_c, 5, 53, 127
2, 110451, Note_on_c, 10, 81, 127
2, 110593, Note_off_c, 4, 76, 127
2, 110603, Note_off_c, 10, 81, 127
2, 110603, Note_off_c, 5, 53, 127
2, 110606, Note_on_c, 4, 52, 127
2, 110606, Note_on_c, 7, 79, 127
2, 110758, Note_off_c, 7, 79, 127
2, 110758, Note_off_c, 4, 52, 127
2, 110762, Note_on_c, 2, 50, 127
2, 110762, Note_on_c, 5, 77, 127
2, 110914, Note_off_c, 5, 77, 127
2, 110914, Note_off_c, 2, 50, 127
2, 110917, Note_on_c, 0, 48, 127
2, 110917, Note_on_c, 4, 76, 127
2, 111069, Note_off_c, 4, 76, 127
2, 111069, Note_off_c, 0, 48, 127
2, 111073, Note_on_c, 11, 46, 127
2, 111073, Note_on_c, 2, 74, 127
2, 111225, Note_off_c, 2, 74, 127
2, 111225, Note_off_c, 11, 46, 127
2, 111228, Note_on_c, 0, 48, 127
2, 111228, Note_on_c, 1, 73, 127
2, 111380, Note_off_c, 1, 73, 127
2, 111380, Note_off_c, 0, 48, 127
2, 111384, Note_on_c, 11, 46, 127
2, 111384, Note_on_c, 2, 74, 127
2, 111536, Note_off_c, 2, 74, 127
2, 111536, Note_off_c, 11, 46, 127
2, 111539, Note_on_c, 10, 45, 127
2, 111539, Note_on_c, 4, 76, 127
2, 111691, Note_off_c, 4, 76, 127
2, 111691, Note_off_c, 10, 45, 127
2, 111695, Note_on_c, 7, 43, 127
2, 111695, Note_on_c, 5, 77, 127
2, 111847, Note_off_c, 5, 77, 127
2, 111847, Note_off_c, 7, 43, 127
2, 111850, Note_on_c, 5, 41, 127
2, 111850, Note_on_c, 2, 74, 127
2, 112002, Note_off_c, 2, 74, 127
2, 112002, Note_off_c, 5, 41, 127
2, 112006, Note_on_c, 4, 40, 127
2, 112006, Note_on_c, 7, 79, 127
2, 112158, Note_off_c, 4, 40, 127
2, 112161, Note_on_c, 2, 38, 127
2, 112313, Note_off_c, 2, 38, 127
2, 112313, Note_off_c, 7, 79, 127
2, 112317, Note_on_c, 4, 40, 127
2, 112317, Note_on_c, 7, 79, 127
2, 112317, Note_on_c, 2, 74, 127
2, 112317, Note_on_c, 11, 70, 127
2, 112469, Note_off_c, 4, 40, 127
2, 112472, Note_on_c, 5, 41, 127
2, 112624, Note_off_c, 5, 41, 127
2, 112624, Note_off_c, 11, 70, 127
2, 112624, Note_off_c, 2, 74, 127
2, 112624, Note_off_c, 7, 79, 127
2, 112628, Note_on_c, 7, 43, 127
2, 112628, Note_on_c, 2, 74, 127
2, 112628, Note_on_c, 7, 79, 127
2, 112628, Note_on_c, 11, 70, 127
2, 112780, Note_off_c, 7, 43, 127
2, 112784, Note_on_c, 4, 40, 127
2, 112935, Note_off_c, 11, 70, 127
2, 112935, Note_off_c, 2, 74, 127
2, 112936, Note_off_c, 4, 40, 127
2, 112939, Note_on_c, 10, 45, 127
2, 112939, Note_on_c, 1, 73, 127
2, 112939, Note_on_c, 11, 70, 127
2, 113091, Note_off_c, 10, 45, 127
2, 113095, Note_on_c, 7, 43, 127
2, 113243, Note_off_c, 7, 79, 127
2, 113246, Note_off_c, 11, 70, 127
2, 113246, Note_off_c, 1, 73, 127
2, 113247, Note_off_c, 7, 43, 127
2, 113250, Note_on_c, 10, 45, 127
2, 113250, Note_on_c, 4, 76, 127
2, 113250, Note_on_c, 1, 73, 127
2, 113250, Note_on_c, 10, 69, 127
2, 113402, Note_off_c, 10, 45, 127
2, 113406, Note_on_c, 12, 47, 127
2, 113557, Note_off_c, 10, 69, 127
2, 113557, Note_off_c, 1, 73, 127
2, 113557, Note_off_c, 4, 76, 127
2, 113558, Note_off_c, 12, 47, 127
2, 113561, Note_on_c, 1, 49, 127
2, 113561, Note_on_c, 10, 69, 127
2, 113561, Note_on_c, 4, 76, 127
2, 113561, Note_on_c, 1, 73, 127
2, 113713, Note_off_c, 1, 49, 127
2, 113717, Note_on_c, 10, 45, 127
2, 113868, Note_off_c, 1, 73, 127
2, 113868, Note_off_c, 4, 76, 127
2, 113868, Note_off_c, 10, 69, 127
2, 113869, Note_off_c, 10, 45, 127
2, 113872, Note_on_c, 11, 58, 127
2, 113872, Note_on_c, 7, 67, 127
2, 113872, Note_on_c, 4, 64, 127
2, 113935, Note_off_c, 4, 64, 127
2, 113950, Note_on_c, 2, 62, 127
2, 114024, Note_off_c, 2, 62, 127
2, 114028, Note_on_c, 4, 64, 127
2, 114179, Note_off_c, 11, 58, 127
2, 114183, Note_on_c, 1, 49, 127
2, 114325, Note_off_c, 7, 67, 127
2, 114339, Note_on_c, 10, 69, 127
2, 114481, Note_off_c, 4, 64, 127
2, 114490, Note_off_c, 1, 49, 127
2, 114491, Note_off_c, 10, 69, 127
2, 114494, Note_on_c, 2, 50, 127
2, 114494, Note_on_c, 5, 65, 127
2, 114494, Note_on_c, 2, 62, 127
2, 114801, Note_off_c, 2, 50, 127
2, 114805, Note_on_c, 7, 55, 127
2, 114957, Note_off_c, 5, 65, 127
2, 114961, Note_on_c, 4, 64, 127
2, 115109, Note_off_c, 2, 62, 127
2, 115112, Note_off_c, 7, 55, 127
2, 115113, Note_off_c, 4, 64, 127
2, 115116, Note_on_c, 10, 57, 127
2, 115116, Note_on_c, 5, 65, 127
2, 115116, Note_on_c, 1, 61, 127
2, 115190, Note_off_c, 5, 65, 127
2, 115194, Note_on_c, 4, 64, 127
2, 115268, Note_off_c, 4, 64, 127
2, 115272, Note_on_c, 5, 65, 127
2, 115346, Note_off_c, 5, 65, 127
2, 115350, Note_on_c, 4, 64, 127
2, 115423, Note_off_c, 10, 57, 127
2, 115424, Note_off_c, 4, 64, 127
2, 115427, Note_on_c, 10, 45, 127
2, 115427, Note_on_c, 5, 65, 127
2, 115501, Note_off_c, 5, 65, 127
2, 115505, Note_on_c, 4, 64, 127
2, 115579, Note_off_c, 4, 64, 127
2, 115583, Note_on_c, 2, 62, 127
2, 115731, Note_off_c, 1, 61, 127
2, 115734, Note_off_c, 10, 45, 127
2, 115735, Note_off_c, 2, 62, 127
2, 115738, Note_on_c, 2, 38, 127
2, 115738, Note_on_c, 2, 62, 127
2, 115890, Note_off_c, 2, 62, 127
2, 115894, Note_on_c, 4, 64, 127
2, 116046, Note_off_c, 4, 64, 127
2, 116049, Note_on_c, 5, 65, 127
2, 116201, Note_off_c, 5, 65, 127
2, 116205, Note_on_c, 2, 62, 127
2, 116357, Note_off_c, 2, 62, 127
2, 116360, Note_on_c, 1, 61, 127
2, 116512, Note_off_c, 1, 61, 127
2, 116515, Note_off_c, 2, 38, 127
2, 116516, Note_on_c, 2, 62, 127
2, 116668, Note_off_c, 2, 62, 127
2, 116672, Note_on_c, 10, 57, 127
2, 116824, Note_off_c, 10, 57, 127
2, 116827, Note_on_c, 2, 62, 127
2, 116979, Note_off_c, 2, 62, 127
2, 116983, Note_on_c, 5, 65, 127
2, 117135, Note_off_c, 5, 65, 127
2, 117138, Note_on_c, 2, 62, 127
2, 117290, Note_off_c, 2, 62, 127
2, 117294, Note_on_c, 8, 68, 127
2, 117446, Note_off_c, 8, 68, 127
2, 117449, Note_on_c, 2, 62, 127
2, 117601, Note_off_c, 2, 62, 127
2, 117605, Note_on_c, 10, 69, 127
2, 117760, Note_on_c, 10, 57, 127
2, 117834, Note_off_c, 10, 57, 127
2, 117838, Note_on_c, 12, 59, 127
2, 117912, Note_off_c, 12, 59, 127
2, 117912, Note_off_c, 10, 69, 127
2, 117916, Note_on_c, 0, 60, 127
2, 117916, Note_on_c, 4, 76, 127
2, 118068, Note_off_c, 0, 60, 127
2, 118071, Note_on_c, 10, 57, 127
2, 118223, Note_off_c, 10, 57, 127
2, 118223, Note_off_c, 4, 76, 127
2, 118227, Note_on_c, 8, 56, 127
2, 118227, Note_on_c, 4, 76, 127
2, 118379, Note_off_c, 8, 56, 127
2, 118382, Note_on_c, 10, 57, 127
2, 118534, Note_off_c, 10, 57, 127
2, 118534, Note_off_c, 4, 76, 127
2, 118538, Note_on_c, 4, 52, 127
2, 118538, Note_on_c, 0, 72, 127
2, 118690, Note_off_c, 4, 52, 127
2, 118693, Note_on_c, 10, 57, 127
2, 118845, Note_off_c, 10, 57, 127
2, 118845, Note_off_c, 0, 72, 127
2, 118849, Note_on_c, 0, 60, 127
2, 118849, Note_on_c, 10, 69, 127
2, 119001, Note_off_c, 0, 60, 127
2, 119004, Note_on_c, 10, 57, 127
2, 119156, Note_off_c, 10, 57, 127
2, 119156, Note_off_c, 10, 69, 127
2, 119160, Note_on_c, 3, 63, 127
2, 119160, Note_on_c, 10, 69, 127
2, 119312, Note_off_c, 3, 63, 127
2, 119315, Note_on_c, 10, 57, 127
2, 119467, Note_off_c, 10, 57, 127
2, 119467, Note_off_c, 10, 69, 127
2, 119471, Note_on_c, 4, 64, 127
2, 119471, Note_on_c, 10, 69, 127
2, 119623, Note_off_c, 10, 69, 127
2, 119626, Note_on_c, 6, 66, 127
2, 119778, Note_off_c, 6, 66, 127
2, 119778, Note_off_c, 4, 64, 127
2, 119782, Note_on_c, 4, 64, 127
2, 119782, Note_on_c, 7, 67, 127
2, 119934, Note_off_c, 7, 67, 127
2, 119937, Note_on_c, 12, 71, 127
2, 120089, Note_off_c, 12, 71, 127
2, 120089, Note_off_c, 4, 64, 127
2, 120093, Note_on_c, 4, 64, 127
2, 120093, Note_on_c, 0, 72, 127
2, 120245, Note_off_c, 0, 72, 127
2, 120248, Note_on_c, 7, 67, 127
2, 120400, Note_off_c, 7, 67, 127
2, 120400, Note_off_c, 4, 64, 127
2, 120404, Note_on_c, 4, 64, 127
2, 120404, Note_on_c, 5, 65, 127
2, 120556, Note_off_c, 5, 65, 127
2, 120560, Note_on_c, 7, 67, 127
2, 120711, Note_off_c, 4, 64, 127
2, 120712, Note_off_c, 7, 67, 127
2, 120715, Note_on_c, 2, 62, 127
2, 120715, Note_on_c, 10, 69, 127
2, 120867, Note_off_c, 10, 69, 127
2, 120871, Note_on_c, 5, 65, 127
2, 121022, Note_off_c, 2, 62, 127
2, 121023, Note_off_c, 5, 65, 127
2, 121026, Note_on_c, 2, 62, 127
2, 121026, Note_on_c, 11, 70, 127
2, 121178, Note_off_c, 11, 70, 127
2, 121182, Note_on_c, 5, 65, 127
2, 121333, Note_off_c, 2, 62, 127
2, 121334, Note_off_c, 5, 65, 127
2, 121337, Note_on_c, 2, 62, 127
2, 121337, Note_on_c, 4, 64, 127
2, 121489, Note_off_c, 4, 64, 127
2, 121493, Note_on_c, 7, 67, 127
2, 121644, Note_off_c, 2, 62, 127
2, 121645, Note_off_c, 7, 67, 127
2, 121648, Note_on_c, 0, 60, 127
2, 121648, Note_on_c, 10, 69, 127
2, 121800, Note_off_c, 10, 69, 127
2, 121804, Note_on_c, 11, 70, 127
2, 121955, Note_off_c, 0, 60, 127
2, 121956, Note_off_c, 11, 70, 127
2, 121959, Note_on_c, 0, 60, 127
2, 121959, Note_on_c, 0, 72, 127
2, 122111, Note_off_c, 0, 72, 127
2, 122115, Note_on_c, 10, 69, 127
2, 122267, Note_off_c, 10, 69, 127
2, 122270, Note_on_c, 7, 67, 127
2, 122347, Note_off_c, 0, 60, 127
2, 122422, Note_off_c, 7, 67, 127
2, 122426, Note_on_c, 0, 60, 127
2, 122426, Note_on_c, 6, 66, 127
2, 122578, Note_off_c, 6, 66, 127
2, 122578, Note_off_c, 0, 60, 127
2, 122581, Note_on_c, 11, 58, 127
2, 122581, Note_on_c, 7, 67, 127
2, 122733, Note_off_c, 11, 58, 127
2, 122737, Note_on_c, 10, 57, 127
2, 122888, Note_off_c, 7, 67, 127
2, 122889, Note_off_c, 10, 57, 127
2, 122892, Note_on_c, 7, 55, 127
2, 122892, Note_on_c, 7, 67, 127
2, 123044, Note_off_c, 7, 55, 127
2, 123048, Note_on_c, 11, 58, 127
2, 123199, Note_off_c, 7, 67, 127
2, 123200, Note_off_c, 11, 58, 127
2, 123203, Note_on_c, 1, 49, 127
2, 123203, Note_on_c, 7, 67, 127
2, 123355, Note_off_c, 7, 67, 127
2, 123359, Note_on_c, 10, 69, 127
2, 123510, Note_off_c, 1, 49, 127
2, 123511, Note_off_c, 10, 69, 127
2, 123514, Note_on_c, 7, 55, 127
2, 123514, Note_on_c, 11, 70, 127
2, 123666, Note_off_c, 11, 70, 127
2, 123670, Note_on_c, 7, 67, 127
2, 123821, Note_off_c, 7, 55, 127
2, 123822, Note_off_c, 7, 67, 127
2, 123825, Note_on_c, 11, 58, 127
2, 123825, Note_on_c, 1, 73, 127
2, 123977, Note_off_c, 1, 73, 127
2, 123981, Note_on_c, 7, 67, 127
2, 124132, Note_off_c, 11, 58, 127
2, 124133, Note_off_c, 7, 67, 127
2, 124136, Note_on_c, 1, 49, 127
2, 124136, Note_on_c, 4, 76, 127
2, 124288, Note_off_c, 4, 76, 127
2, 124292, Note_on_c, 11, 70, 127
2, 124443, Note_off_c, 1, 49, 127
2, 124444, Note_off_c, 11, 70, 127
2, 124448, Note_on_c, 4, 52, 127
2, 124448, Note_on_c, 10, 69, 127
2, 124600, Note_off_c, 10, 69, 127
2, 124603, Note_on_c, 7, 67, 127
2, 124755, Note_off_c, 7, 67, 127
2, 124755, Note_off_c, 4, 52, 127
2, 124759, Note_on_c, 10, 57, 127
2, 124759, Note_on_c, 5, 65, 127
2, 124911, Note_off_c, 5, 65, 127
2, 124914, Note_on_c, 4, 64, 127
2, 125066, Note_off_c, 4, 64, 127
2, 125066, Note_off_c, 10, 57, 127
2, 125070, Note_on_c, 2, 50, 127
2, 125070, Note_on_c, 5, 65, 127
2, 125222, Note_off_c, 5, 65, 127
2, 125225, Note_on_c, 7, 67, 127
2, 125377, Note_off_c, 7, 67, 127
2, 125377, Note_off_c, 2, 50, 127
2, 125381, Note_on_c, 5, 53, 127
2, 125381, Note_on_c, 8, 68, 127
2, 125533, Note_off_c, 8, 68, 127
2, 125536, Note_on_c, 5, 65, 127
2, 125688, Note_off_c, 5, 65, 127
2, 125688, Note_off_c, 5, 53, 127
2, 125692, Note_on_c, 8, 56, 127
2, 125692, Note_on_c, 12, 71, 127
2, 125844, Note_off_c, 12, 71, 127
2, 125847, Note_on_c, 5, 65, 127
2, 125999, Note_off_c, 5, 65, 127
2, 125999, Note_off_c, 8, 56, 127
2, 126003, Note_on_c, 12, 59, 127
2, 126003, Note_on_c, 2, 74, 127
2, 126155, Note_off_c, 2, 74, 127
2, 126158, Note_on_c, 8, 68, 127
2, 126310, Note_off_c, 8, 68, 127
2, 126310, Note_off_c, 12, 59, 127
2, 126314, Note_on_c, 2, 62, 127
2, 126314, Note_on_c, 7, 67, 127
2, 126466, Note_off_c, 7, 67, 127
2, 126469, Note_on_c, 5, 65, 127
2, 126621, Note_off_c, 5, 65, 127
2, 126621, Note_off_c, 2, 62, 127
2, 126625, Note_on_c, 7, 55, 127
2, 126625, Note_on_c, 3, 63, 127
2, 126777, Note_off_c, 3, 63, 127
2, 126780, Note_on_c, 2, 62, 127
2, 126932, Note_off_c, 2, 62, 127
2, 126932, Note_off_c, 7, 55, 127
2, 126936, Note_on_c, 0, 60, 127
2, 126936, Note_on_c, 3, 63, 127
2, 127089, Note_on_c, 0, 48, 127
2, 127163, Note_off_c, 0, 48, 127
2, 127176, Note_on_c, 2, 50, 127
2, 127243, Note_off_c, 3, 63, 127
2, 127243, Note_off_c, 0, 60, 127
2, 127250, Note_off_c, 2, 50, 127
2, 127263, Note_on_c, 0, 72, 127
2, 127263, Note_on_c, 7, 79, 127
2, 127263, Note_on_c, 7, 67, 127
2, 127263, Note_on_c, 3, 51, 127
2, 127415, Note_off_c, 3, 51, 127
2, 127418, Note_on_c, 0, 48, 127
2, 127570, Note_off_c, 0, 48, 127
2, 127570, Note_off_c, 7, 67, 127
2, 127570, Note_off_c, 7, 79, 127
2, 127570, Note_off_c, 0, 72, 127
2, 127574, Note_on_c, 7, 79, 127
2, 127574, Note_on_c, 7, 67, 127
2, 127574, Note_on_c, 0, 72, 127
2, 127574, Note_on_c, 12, 47, 127
2, 127726, Note_off_c, 12, 47, 127
2, 127729, Note_on_c, 0, 48, 127
2, 127881, Note_off_c, 0, 48, 127
2, 127881, Note_off_c, 0, 72, 127
2, 127881, Note_off_c, 7, 67, 127
2, 127881, Note_off_c, 7, 79, 127
2, 127885, Note_on_c, 3, 75, 127
2, 127885, Note_on_c, 7, 67, 127
2, 127885, Note_on_c, 2, 74, 127
2, 127885, Note_on_c, 7, 43, 127
2, 128037, Note_off_c, 7, 43, 127
2, 128040, Note_on_c, 0, 48, 127
2, 128192, Note_off_c, 0, 48, 127
2, 128192, Note_off_c, 2, 74, 127
2, 128192, Note_off_c, 7, 67, 127
2, 128192, Note_off_c, 3, 75, 127
2, 128196, Note_on_c, 7, 67, 127
2, 128196, Note_on_c, 0, 72, 127
2, 128196, Note_on_c, 3, 75, 127
2, 128196, Note_on_c, 3, 51, 127
2, 128348, Note_off_c, 3, 51, 127
2, 128352, Note_on_c, 0, 48, 127
2, 128503, Note_off_c, 3, 75, 127
2, 128503, Note_off_c, 0, 72, 127
2, 128503, Note_off_c, 7, 67, 127
2, 128504, Note_off_c, 0, 48, 127
2, 128507, Note_on_c, 3, 75, 127
2, 128507, Note_on_c, 10, 69, 127
2, 128507, Note_on_c, 0, 72, 127
2, 128507, Note_on_c, 6, 54, 127
2, 128659, Note_off_c, 6, 54, 127
2, 128663, Note_on_c, 0, 48, 127
2, 128814, Note_off_c, 0, 72, 127
2, 128814, Note_off_c, 10, 69, 127
2, 128814, Note_off_c, 3, 75, 127
2, 128815, Note_off_c, 0, 48, 127
2, 128818, Note_on_c, 2, 74, 127
2, 128818, Note_on_c, 11, 70, 127
2, 128818, Note_on_c, 7, 55, 127
2, 128970, Note_off_c, 2, 74, 127
2, 128974, Note_on_c, 2, 74, 127
2, 129125, Note_off_c, 11, 70, 127
2, 129126, Note_off_c, 2, 74, 127
2, 129129, Note_on_c, 7, 67, 127
2, 129129, Note_on_c, 11, 58, 127
2, 129281, Note_off_c, 7, 67, 127
2, 129285, Note_on_c, 2, 74, 127
2, 129433, Note_off_c, 7, 55, 127
2, 129436, Note_off_c, 11, 58, 127
2, 129437, Note_off_c, 2, 74, 127
2, 129440, Note_on_c, 6, 66, 127
2, 129440, Note_on_c, 10, 57, 127
2, 129592, Note_off_c, 6, 66, 127
2, 129596, Note_on_c, 0, 72, 127
2, 129747, Note_off_c, 10, 57, 127
2, 129748, Note_off_c, 0, 72, 127
2, 129751, Note_on_c, 11, 70, 127
2, 129751, Note_on_c, 7, 55, 127
2, 129751, Note_on_c, 7, 43, 127
2, 129903, Note_off_c, 11, 70, 127
2, 129907, Note_on_c, 2, 74, 127
2, 130058, Note_off_c, 7, 43, 127
2, 130058, Note_off_c, 7, 55, 127
2, 130059, Note_off_c, 2, 74, 127
2, 130062, Note_on_c, 7, 67, 127
2, 130062, Note_on_c, 11, 58, 127
2, 130214, Note_off_c, 7, 67, 127
2, 130218, Note_on_c, 2, 74, 127
2, 130369, Note_off_c, 11, 58, 127
2, 130370, Note_off_c, 2, 74, 127
2, 130373, Note_on_c, 6, 66, 127
2, 130373, Note_on_c, 10, 57, 127
2, 130525, Note_off_c, 6, 66, 127
2, 130529, Note_on_c, 0, 72, 127
2, 130680, Note_off_c, 10, 57, 127
2, 130681, Note_off_c, 0, 72, 127
2, 130684, Note_on_c, 11, 70, 127
2, 130684, Note_on_c, 7, 55, 127
2, 130836, Note_off_c, 11, 70, 127
2, 130840, Note_on_c, 7, 67, 127
2, 130992, Note_off_c, 7, 67, 127
2, 130995, Note_on_c, 4, 64, 127
2, 130995, Note_on_c, 0, 48, 127
2, 131147, Note_off_c, 4, 64, 127
2, 131151, Note_on_c, 11, 70, 127
2, 131302, Note_off_c, 0, 48, 127
2, 131303, Note_off_c, 11, 70, 127
2, 131306, Note_on_c, 2, 62, 127
2, 131306, Note_on_c, 2, 50, 127
2, 131458, Note_off_c, 2, 62, 127
2, 131462, Note_on_c, 11, 70, 127
2, 131613, Note_off_c, 2, 50, 127
2, 131614, Note_off_c, 11, 70, 127
2, 131617, Note_on_c, 0, 60, 127
2, 131617, Note_on_c, 4, 52, 127
2, 131769, Note_off_c, 0, 60, 127
2, 131773, Note_on_c, 11, 70, 127
2, 131924, Note_off_c, 4, 52, 127
2, 131925, Note_off_c, 11, 70, 127
2, 131928, Note_on_c, 2, 62, 127
2, 131928, Note_on_c, 2, 50, 127
2, 132080, Note_off_c, 2, 62, 127
2, 132084, Note_on_c, 11, 70, 127
2, 132235, Note_off_c, 2, 50, 127
2, 132236, Note_off_c, 11, 70, 127
2, 132240, Note_on_c, 4, 64, 127
2, 132240, Note_on_c, 0, 48, 127
2, 132392, Note_off_c, 4, 64, 127
2, 132395, Note_on_c, 11, 70, 127
2, 132547, Note_off_c, 11, 70, 127
2, 132547, Note_off_c, 0, 48, 127
2, 132547, Note_off_c, 7, 55, 127
2, 132551, Note_on_c, 8, 68, 127
2, 132551, Note_on_c, 5, 53, 127
2, 132703, Note_off_c, 8, 68, 127
2, 132706, Note_on_c, 0, 72, 127
2, 132858, Note_off_c, 0, 72, 127
2, 132862, Note_on_c, 5, 65, 127
2, 132862, Note_on_c, 8, 56, 127
2, 133014, Note_off_c, 5, 65, 127
2, 133017, Note_on_c, 0, 72, 127
2, 133166, Note_off_c, 5, 53, 127
2, 133169, Note_off_c, 0, 72, 127
2, 133169, Note_off_c, 8, 56, 127
2, 133173, Note_on_c, 4, 64, 127
2, 133173, Note_on_c, 7, 55, 127
2, 133325, Note_off_c, 4, 64, 127
2, 133328, Note_on_c, 11, 70, 127
2, 133480, Note_off_c, 11, 70, 127
2, 133480, Note_off_c, 7, 55, 127
2, 133484, Note_on_c, 8, 68, 127
2, 133484, Note_on_c, 5, 53, 127
2, 133484, Note_on_c, 5, 41, 127
2, 133636, Note_off_c, 8, 68, 127
2, 133639, Note_on_c, 0, 72, 127
2, 133791, Note_off_c, 0, 72, 127
2, 133791, Note_off_c, 5, 41, 127
2, 133791, Note_off_c, 5, 53, 127
2, 133795, Note_on_c, 5, 65, 127
2, 133795, Note_on_c, 8, 56, 127
2, 133947, Note_off_c, 5, 65, 127
2, 133950, Note_on_c, 0, 72, 127
2, 134102, Note_off_c, 0, 72, 127
2, 134102, Note_off_c, 8, 56, 127
2, 134106, Note_on_c, 4, 64, 127
2, 134106, Note_on_c, 7, 55, 127
2, 134258, Note_off_c, 4, 64, 127
2, 134261, Note_on_c, 11, 70, 127
2, 134413, Note_off_c, 11, 70, 127
2, 134413, Note_off_c, 7, 55, 127
2, 134417, Note_on_c, 8, 68, 127
2, 134417, Note_on_c, 5, 53, 127
2, 134569, Note_off_c, 8, 68, 127
2, 134572, Note_on_c, 5, 65, 127
2, 134724, Note_off_c, 5, 65, 127
2, 134728, Note_on_c, 2, 62, 127
2, 134728, Note_on_c, 11, 46, 127
2, 134880, Note_off_c, 2, 62, 127
2, 134883, Note_on_c, 8, 68, 127
2, 135035, Note_off_c, 8, 68, 127
2, 135035, Note_off_c, 11, 46, 127
2, 135039, Note_on_c, 0, 60, 127
2, 135039, Note_on_c, 0, 48, 127
2, 135191, Note_off_c, 0, 60, 127
2, 135194, Note_on_c, 8, 68, 127
2, 135346, Note_off_c, 8, 68, 127
2, 135346, Note_off_c, 0, 48, 127
2, 135350, Note_on_c, 11, 58, 127
2, 135350, Note_on_c, 2, 50, 127
2, 135502, Note_off_c, 11, 58, 127
2, 135505, Note_on_c, 8, 68, 127
2, 135657, Note_off_c, 8, 68, 127
2, 135657, Note_off_c, 2, 50, 127
2, 135661, Note_on_c, 0, 60, 127
2, 135661, Note_on_c, 0, 48, 127
2, 135813, Note_off_c, 0, 60, 127
2, 135816, Note_on_c, 8, 68, 127
2, 135968, Note_off_c, 8, 68, 127
2, 135968, Note_off_c, 0, 48, 127
2, 135972, Note_on_c, 2, 62, 127
2, 135972, Note_on_c, 11, 46, 127
2, 136124, Note_off_c, 2, 62, 127
2, 136128, Note_on_c, 8, 68, 127
2, 136279, Note_off_c, 11, 46, 127
2, 136280, Note_off_c, 8, 68, 127
2, 136280, Note_off_c, 5, 53, 127
2, 136283, Note_on_c, 7, 67, 127
2, 136283, Note_on_c, 3, 51, 127
2, 136435, Note_off_c, 3, 51, 127
2, 136439, Note_on_c, 5, 53, 127
2, 136590, Note_off_c, 7, 67, 127
2, 136591, Note_off_c, 5, 53, 127
2, 136594, Note_on_c, 11, 82, 127
2, 136594, Note_on_c, 7, 55, 127
2, 136746, Note_off_c, 7, 55, 127
2, 136750, Note_on_c, 3, 51, 127
2, 136901, Note_off_c, 11, 82, 127
2, 136902, Note_off_c, 3, 51, 127
2, 136905, Note_on_c, 11, 82, 127
2, 136905, Note_on_c, 2, 50, 127
2, 137057, Note_off_c, 2, 50, 127
2, 137061, Note_on_c, 3, 51, 127
2, 137212, Note_off_c, 11, 82, 127
2, 137213, Note_off_c, 3, 51, 127
2, 137216, Note_on_c, 7, 79, 127
2, 137216, Note_on_c, 11, 46, 127
2, 137368, Note_off_c, 11, 46, 127
2, 137372, Note_on_c, 3, 51, 127
2, 137523, Note_off_c, 7, 79, 127
2, 137524, Note_off_c, 3, 51, 127
2, 137527, Note_on_c, 3, 75, 127
2, 137527, Note_on_c, 7, 79, 127
2, 137527, Note_on_c, 7, 55, 127
2, 137679, Note_off_c, 7, 55, 127
2, 137683, Note_on_c, 3, 51, 127
2, 137834, Note_off_c, 7, 79, 127
2, 137834, Note_off_c, 3, 75, 127
2, 137835, Note_off_c, 3, 51, 127
2, 137838, Note_on_c, 7, 79, 127
2, 137838, Note_on_c, 3, 75, 127
2, 137838, Note_on_c, 10, 57, 127
2, 137990, Note_off_c, 10, 57, 127
2, 137994, Note_on_c, 3, 51, 127
2, 138145, Note_off_c, 3, 75, 127
2, 138145, Note_off_c, 7, 79, 127
2, 138146, Note_off_c, 3, 51, 127
2, 138149, Note_on_c, 2, 74, 127
2, 138149, Note_on_c, 5, 77, 127
2, 138149, Note_on_c, 11, 58, 127
2, 138301, Note_off_c, 5, 77, 127
2, 138305, Note_on_c, 5, 77, 127
2, 138456, Note_off_c, 2, 74, 127
2, 138457, Note_off_c, 5, 77, 127
2, 138460, Note_on_c, 11, 70, 127
2, 138460, Note_on_c, 2, 62, 127
2, 138612, Note_off_c, 11, 70, 127
2, 138616, Note_on_c, 5, 77, 127
2, 138764, Note_off_c, 11, 58, 127
2, 138767, Note_off_c, 2, 62, 127
2, 138768, Note_off_c, 5, 77, 127
2, 138771, Note_on_c, 10, 69, 127
2, 138771, Note_on_c, 0, 60, 127
2, 138923, Note_off_c, 10, 69, 127
2, 138927, Note_on_c, 3, 75, 127
2, 139078, Note_off_c, 0, 60, 127
2, 139079, Note_off_c, 3, 75, 127
2, 139082, Note_on_c, 2, 74, 127
2, 139082, Note_on_c, 11, 58, 127
2, 139082, Note_on_c, 11, 46, 127
2, 139234, Note_off_c, 2, 74, 127
2, 139238, Note_on_c, 5, 77, 127
2, 139389, Note_off_c, 11, 46, 127
2, 139389, Note_off_c, 11, 58, 127
2, 139390, Note_off_c, 5, 77, 127
2, 139393, Note_on_c, 11, 70, 127
2, 139393, Note_on_c, 2, 62, 127
2, 139545, Note_off_c, 11, 70, 127
2, 139549, Note_on_c, 5, 77, 127
2, 139700, Note_off_c, 2, 62, 127
2, 139701, Note_off_c, 5, 77, 127
2, 139704, Note_on_c, 10, 69, 127
2, 139704, Note_on_c, 0, 60, 127
2, 139856, Note_off_c, 10, 69, 127
2, 139860, Note_on_c, 3, 75, 127
2, 140011, Note_off_c, 0, 60, 127
2, 140012, Note_off_c, 3, 75, 127
2, 140016, Note_on_c, 2, 74, 127
2, 140016, Note_on_c, 11, 58, 127
2, 140168, Note_off_c, 2, 74, 127
2, 140171, Note_on_c, 11, 70, 127
2, 140323, Note_off_c, 11, 70, 127
2, 140327, Note_on_c, 7, 67, 127
2, 140327, Note_on_c, 3, 51, 127
2, 140479, Note_off_c, 7, 67, 127
2, 140482, Note_on_c, 1, 73, 127
2, 140634, Note_off_c, 1, 73, 127
2, 140634, Note_off_c, 3, 51, 127
2, 140638, Note_on_c, 5, 65, 127
2, 140638, Note_on_c, 5, 53, 127
2, 140790, Note_off_c, 5, 65, 127
2, 140793, Note_on_c, 1, 73, 127
2, 140945, Note_off_c, 1, 73, 127
2, 140945, Note_off_c, 5, 53, 127
2, 140949, Note_on_c, 3, 63, 127
2, 140949, Note_on_c, 7, 55, 127
2, 141101, Note_off_c, 3, 63, 127
2, 141104, Note_on_c, 1, 73, 127
2, 141256, Note_off_c, 1, 73, 127
2, 141256, Note_off_c, 7, 55, 127
2, 141260, Note_on_c, 5, 65, 127
2, 141260, Note_on_c, 5, 53, 127
2, 141412, Note_off_c, 5, 65, 127
2, 141415, Note_on_c, 1, 73, 127
2, 141567, Note_off_c, 1, 73, 127
2, 141567, Note_off_c, 5, 53, 127
2, 141571, Note_on_c, 7, 67, 127
2, 141571, Note_on_c, 3, 51, 127
2, 141723, Note_off_c, 7, 67, 127
2, 141726, Note_on_c, 1, 73, 127
2, 141878, Note_off_c, 1, 73, 127
2, 141878, Note_off_c, 3, 51, 127
2, 141879, Note_off_c, 11, 58, 127
2, 141882, Note_on_c, 0, 72, 127
2, 141882, Note_on_c, 8, 56, 127
2, 142034, Note_off_c, 0, 72, 127
2, 142037, Note_on_c, 3, 75, 127
2, 142189, Note_off_c, 3, 75, 127
2, 142193, Note_on_c, 8, 68, 127
2, 142193, Note_on_c, 0, 60, 127
2, 142345, Note_off_c, 8, 68, 127
2, 142348, Note_on_c, 3, 75, 127
2, 142497, Note_off_c, 8, 56, 127
2, 142500, Note_off_c, 3, 75, 127
2, 142500, Note_off_c, 0, 60, 127
2, 142504, Note_on_c, 7, 67, 127
2, 142504, Note_on_c, 11, 58, 127
2, 142656, Note_off_c, 7, 67, 127
2, 142659, Note_on_c, 1, 73, 127
2, 142811, Note_off_c, 1, 73, 127
2, 142811, Note_off_c, 11, 58, 127
2, 142815, Note_on_c, 0, 72, 127
2, 142815, Note_on_c, 8, 56, 127
2, 142815, Note_on_c, 8, 44, 127
2, 142967, Note_off_c, 0, 72, 127
2, 142970, Note_on_c, 3, 75, 127
2, 143122, Note_off_c, 3, 75, 127
2, 143122, Note_off_c, 8, 44, 127
2, 143122, Note_off_c, 8, 56, 127
2, 143126, Note_on_c, 8, 68, 127
2, 143126, Note_on_c, 0, 60, 127
2, 143278, Note_off_c, 8, 68, 127
2, 143281, Note_on_c, 3, 75, 127
2, 143433, Note_off_c, 3, 75, 127
2, 143433, Note_off_c, 0, 60, 127
2, 143437, Note_on_c, 7, 67, 127
2, 143437, Note_on_c, 11, 58, 127
2, 143589, Note_off_c, 7, 67, 127
2, 143592, Note_on_c, 1, 73, 127
2, 143744, Note_off_c, 1, 73, 127
2, 143744, Note_off_c, 11, 58, 127
2, 143748, Note_on_c, 0, 72, 127
2, 143748, Note_on_c, 8, 56, 127
2, 143900, Note_off_c, 0, 72, 127
2, 143904, Note_on_c, 8, 68, 127
2, 144056, Note_off_c, 8, 68, 127
2, 144059, Note_on_c, 5, 65, 127
2, 144059, Note_on_c, 2, 50, 127
2, 144211, Note_off_c, 5, 65, 127
2, 144215, Note_on_c, 0, 72, 127
2, 144366, Note_off_c, 2, 50, 127
2, 144367, Note_off_c, 0, 72, 127
2, 144370, Note_on_c, 3, 63, 127
2, 144370, Note_on_c, 3, 51, 127
2, 144522, Note_off_c, 3, 63, 127
2, 144526, Note_on_c, 0, 72, 127
2, 144677, Note_off_c, 3, 51, 127
2, 144678, Note_off_c, 0, 72, 127
2, 144681, Note_on_c, 2, 62, 127
2, 144681, Note_on_c, 5, 53, 127
2, 144833, Note_off_c, 2, 62, 127
2, 144837, Note_on_c, 0, 72, 127
2, 144988, Note_off_c, 5, 53, 127
2, 144989, Note_off_c, 0, 72, 127
2, 144992, Note_on_c, 3, 63, 127
2, 144992, Note_on_c, 3, 51, 127
2, 145144, Note_off_c, 3, 63, 127
2, 145148, Note_on_c, 0, 72, 127
2, 145299, Note_off_c, 3, 51, 127
2, 145300, Note_off_c, 0, 72, 127
2, 145303, Note_on_c, 5, 65, 127
2, 145303, Note_on_c, 2, 50, 127
2, 145455, Note_off_c, 5, 65, 127
2, 145459, Note_on_c, 0, 72, 127
2, 145610, Note_off_c, 2, 50, 127
2, 145611, Note_off_c, 0, 72, 127
2, 145611, Note_off_c, 8, 56, 127
2, 145614, Note_on_c, 12, 71, 127
2, 145614, Note_on_c, 7, 55, 127
2, 145770, Note_on_c, 5, 53, 127
2, 145921, Note_off_c, 7, 55, 127
2, 145921, Note_off_c, 12, 71, 127
2, 145922, Note_off_c, 5, 53, 127
2, 145925, Note_on_c, 7, 67, 127
2, 145925, Note_on_c, 0, 72, 127
2, 145925, Note_on_c, 3, 51, 127
2, 146077, Note_off_c, 3, 51, 127
2, 146081, Note_on_c, 5, 53, 127
2, 146232, Note_off_c, 0, 72, 127
2, 146232, Note_off_c, 7, 67, 127
2, 146233, Note_off_c, 5, 53, 127
2, 146236, Note_on_c, 5, 65, 127
2, 146236, Note_on_c, 11, 70, 127
2, 146236, Note_on_c, 2, 50, 127
2, 146388, Note_off_c, 2, 50, 127
2, 146392, Note_on_c, 3, 51, 127
2, 146543, Note_off_c, 11, 70, 127
2, 146543, Note_off_c, 5, 65, 127
2, 146544, Note_off_c, 3, 51, 127
2, 146547, Note_on_c, 3, 63, 127
2, 146547, Note_on_c, 8, 68, 127
2, 146547, Note_on_c, 0, 48, 127
2, 146699, Note_off_c, 0, 48, 127
2, 146703, Note_on_c, 3, 51, 127
2, 146854, Note_off_c, 8, 68, 127
2, 146854, Note_off_c, 3, 63, 127
2, 146855, Note_off_c, 3, 51, 127
2, 146858, Note_on_c, 7, 67, 127
2, 146858, Note_on_c, 2, 62, 127
2, 146858, Note_on_c, 11, 46, 127
2, 147010, Note_off_c, 11, 46, 127
2, 147014, Note_on_c, 3, 51, 127
2, 147165, Note_off_c, 2, 62, 127
2, 147165, Note_off_c, 7, 67, 127
2, 147166, Note_off_c, 3, 51, 127
2, 147169, Note_on_c, 0, 60, 127
2, 147169, Note_on_c, 5, 65, 127
2, 147169, Note_on_c, 8, 44, 127
2, 147321, Note_off_c, 8, 44, 127
2, 147325, Note_on_c, 3, 51, 127
2, 147476, Note_off_c, 5, 65, 127
2, 147476, Note_off_c, 0, 60, 127
2, 147477, Note_off_c, 3, 51, 127
2, 147480, Note_on_c, 11, 58, 127
2, 147480, Note_on_c, 3, 63, 127
2, 147480, Note_on_c, 11, 70, 127
2, 147480, Note_on_c, 7, 43, 127
2, 147632, Note_off_c, 7, 43, 127
2, 147636, Note_on_c, 3, 51, 127
2, 147787, Note_off_c, 11, 70, 127
2, 147787, Note_off_c, 3, 63, 127
2, 147787, Note_off_c, 11, 58, 127
2, 147788, Note_off_c, 3, 51, 127
2, 147792, Note_on_c, 2, 62, 127
2, 147792, Note_on_c, 8, 68, 127
2, 147792, Note_on_c, 5, 41, 127
2, 147944, Note_off_c, 5, 41, 127
2, 147947, Note_on_c, 3, 51, 127
2, 148099, Note_off_c, 3, 51, 127
2, 148099, Note_off_c, 8, 68, 127
2, 148099, Note_off_c, 2, 62, 127
2, 148103, Note_on_c, 3, 63, 127
2, 148103, Note_on_c, 7, 67, 127
2, 148103, Note_on_c, 3, 39, 127
2, 148255, Note_off_c, 3, 39, 127
2, 148258, Note_on_c, 3, 51, 127
2, 148410, Note_off_c, 3, 51, 127
2, 148414, Note_on_c, 8, 44, 127
2, 148566, Note_off_c, 7, 67, 127
2, 148569, Note_on_c, 0, 72, 127
2, 148718, Note_off_c, 3, 63, 127
2, 148721, Note_off_c, 0, 72, 127
2, 148721, Note_off_c, 8, 44, 127
2, 148725, Note_on_c, 7, 67, 127
2, 148725, Note_on_c, 2, 62, 127
2, 148725, Note_on_c, 11, 46, 127
2, 148799, Note_off_c, 7, 67, 127
2, 148802, Note_on_c, 5, 65, 127
2, 148876, Note_off_c, 5, 65, 127
2, 148880, Note_on_c, 7, 67, 127
2, 148954, Note_off_c, 7, 67, 127
2, 148958, Note_on_c, 5, 65, 127
2, 149032, Note_off_c, 5, 65, 127
2, 149032, Note_off_c, 11, 46, 127
2, 149036, Note_on_c, 7, 67, 127
2, 149036, Note_on_c, 11, 46, 127
2, 149110, Note_off_c, 7, 67, 127
2, 149113, Note_on_c, 5, 65, 127
2, 149187, Note_off_c, 5, 65, 127
2, 149191, Note_on_c, 3, 63, 127
2, 149340, Note_off_c, 2, 62, 127
2, 149343, Note_off_c, 3, 63, 127
2, 149343, Note_off_c, 11, 46, 127
2, 149347, Note_on_c, 3, 63, 127
2, 149347, Note_on_c, 3, 39, 127
2, 149654, Note_off_c, 3, 63, 127
2, 149658, Note_on_c, 11, 70, 127
2, 149810, Note_off_c, 3, 39, 127
2, 149813, Note_on_c, 8, 68, 127
2, 149965, Note_off_c, 8, 68, 127
2, 149965, Note_off_c, 11, 70, 127
2, 149969, Note_on_c, 11, 70, 127
2, 149969, Note_on_c, 7, 67, 127
2, 150121, Note_off_c, 7, 67, 127
2, 150124, Note_on_c, 5, 65, 127
2, 150276, Note_off_c, 5, 65, 127
2, 150276, Note_off_c, 11, 70, 127
2, 150280, Note_on_c, 0, 72, 127
2, 150280, Note_on_c, 4, 64, 127
2, 150413, Note_on_c, 11, 70, 127
2, 150420, Note_off_c, 0, 72, 127
2, 150432, Note_off_c, 4, 64, 127
2, 150435, Note_on_c, 5, 65, 127
2, 150478, Note_on_c, 10, 69, 127
2, 150487, Note_off_c, 11, 70, 127
2, 150544, Note_on_c, 11, 70, 127
2, 150552, Note_off_c, 10, 69, 127
2, 150587, Note_off_c, 5, 65, 127
2, 150591, Note_on_c, 7, 67, 127
2, 150610, Note_on_c, 0, 72, 127
2, 150618, Note_off_c, 11, 70, 127
2, 150676, Note_on_c, 11, 70, 127
2, 150684, Note_off_c, 0, 72, 127
2, 150742, Note_on_c, 0, 72, 127
2, 150743, Note_off_c, 7, 67, 127
2, 150746, Note_on_c, 4, 64, 127
2, 150750, Note_off_c, 11, 70, 127
2, 150808, Note_on_c, 11, 70, 127
2, 150816, Note_off_c, 0, 72, 127
2, 150874, Note_on_c, 0, 72, 127
2, 150882, Note_off_c, 11, 70, 127
2, 150898, Note_off_c, 4, 64, 127
2, 150902, Note_on_c, 1, 61, 127
2, 150940, Note_on_c, 11, 70, 127
2, 150948, Note_off_c, 0, 72, 127
2, 151005, Note_on_c, 0, 72, 127
2, 151014, Note_off_c, 11, 70, 127
2, 151054, Note_off_c, 1, 61, 127
2, 151057, Note_on_c, 4, 64, 127
2, 151071, Note_on_c, 11, 70, 127
2, 151079, Note_off_c, 0, 72, 127
2, 151137, Note_on_c, 0, 72, 127
2, 151145, Note_off_c, 11, 70, 127
2, 151204, Note_on_c, 11, 70, 127
2, 151209, Note_off_c, 4, 64, 127
2, 151211, Note_off_c, 0, 72, 127
2, 151213, Note_on_c, 11, 58, 127
2, 151269, Note_on_c, 0, 72, 127
2, 151278, Note_off_c, 11, 70, 127
2, 151335, Note_on_c, 11, 70, 127
2, 151343, Note_off_c, 0, 72, 127
2, 151365, Note_off_c, 11, 58, 127
2, 151368, Note_on_c, 0, 60, 127
2, 151401, Note_on_c, 0, 72, 127
2, 151409, Note_off_c, 11, 70, 127
2, 151467, Note_on_c, 11, 70, 127
2, 151475, Note_off_c, 0, 72, 127
2, 151520, Note_off_c, 0, 60, 127
2, 151524, Note_on_c, 1, 61, 127
2, 151533, Note_on_c, 0, 72, 127
2, 151541, Note_off_c, 11, 70, 127
2, 151598, Note_on_c, 11, 70, 127
2, 151607, Note_off_c, 0, 72, 127
2, 151665, Note_on_c, 0, 72, 127
2, 151672, Note_off_c, 11, 70, 127
2, 151676, Note_off_c, 1, 61, 127
2, 151680, Note_on_c, 11, 58, 127
2, 151731, Note_on_c, 11, 70, 127
2, 151739, Note_off_c, 0, 72, 127
2, 151797, Note_on_c, 0, 72, 127
2, 151805, Note_off_c, 11, 70, 127
2, 151832, Note_off_c, 11, 58, 127
2, 151835, Note_on_c, 7, 55, 127
2, 151863, Note_on_c, 11, 70, 127
2, 151871, Note_off_c, 0, 72, 127
2, 151929, Note_on_c, 0, 72, 127
2, 151937, Note_off_c, 11, 70, 127
2, 151987, Note_off_c, 7, 55, 127
2, 151991, Note_on_c, 11, 58, 127
2, 151995, Note_on_c, 11, 70, 127
2, 152003, Note_off_c, 0, 72, 127
2, 152143, Note_off_c, 11, 58, 127
2, 152146, Note_on_c, 4, 52, 127
2, 152298, Note_off_c, 4, 52, 127
2, 152302, Note_on_c, 8, 68, 127
2, 152302, Note_on_c, 5, 53, 127
2, 152307, Note_off_c, 11, 70, 127
2, 152454, Note_off_c, 5, 53, 127
2, 152454, Note_off_c, 8, 68, 127
2, 152457, Note_on_c, 11, 70, 127
2, 152457, Note_on_c, 7, 55, 127
2, 152609, Note_off_c, 7, 55, 127
2, 152609, Note_off_c, 11, 70, 127
2, 152613, Note_on_c, 1, 73, 127
2, 152613, Note_on_c, 4, 52, 127
2, 152765, Note_off_c, 4, 52, 127
2, 152765, Note_off_c, 1, 73, 127
2, 152768, Note_on_c, 0, 72, 127
2, 152768, Note_on_c, 0, 48, 127
2, 152920, Note_off_c, 0, 48, 127
2, 152920, Note_off_c, 0, 72, 127
2, 152924, Note_on_c, 11, 70, 127
2, 152924, Note_on_c, 4, 52, 127
2, 153076, Note_off_c, 4, 52, 127
2, 153076, Note_off_c, 11, 70, 127
2, 153079, Note_on_c, 8, 68, 127
2, 153079, Note_on_c, 5, 41, 127
2, 153231, Note_off_c, 8, 68, 127
2, 153235, Note_on_c, 11, 70, 127
2, 153387, Note_off_c, 11, 70, 127
2, 153390, Note_on_c, 8, 68, 127
2, 153542, Note_off_c, 5, 41, 127
2, 153546, Note_on_c, 7, 67, 127
2, 153697, Note_off_c, 8, 68, 127
2, 153698, Note_off_c, 7, 67, 127
2, 153701, Note_on_c, 8, 68, 127
2, 153701, Note_on_c, 5, 65, 127
2, 153853, Note_off_c, 5, 65, 127
2, 153857, Note_on_c, 3, 63, 127
2, 154008, Note_off_c, 8, 68, 127
2, 154009, Note_off_c, 3, 63, 127
2, 154012, Note_on_c, 11, 70, 127
2, 154012, Note_on_c, 2, 62, 127
2, 154164, Note_off_c, 2, 62, 127
2, 154168, Note_on_c, 3, 63, 127
2, 154212, Note_off_c, 11, 70, 127
2, 154215, Note_on_c, 8, 68, 127
2, 154281, Note_on_c, 7, 67, 127
2, 154289, Note_off_c, 8, 68, 127
2, 154320, Note_off_c, 3, 63, 127
2, 154323, Note_on_c, 5, 65, 127
2, 154346, Note_on_c, 8, 68, 127
2, 154355, Note_off_c, 7, 67, 127
2, 154410, Note_on_c, 11, 70, 127
2, 154420, Note_off_c, 8, 68, 127
2, 154475, Note_off_c, 5, 65, 127
2, 154476, Note_on_c, 8, 68, 127
2, 154479, Note_on_c, 2, 62, 127
2, 154484, Note_off_c, 11, 70, 127
2, 154541, Note_on_c, 11, 70, 127
2, 154550, Note_off_c, 8, 68, 127
2, 154607, Note_on_c, 8, 68, 127
2, 154615, Note_off_c, 11, 70, 127
2, 154631, Note_off_c, 2, 62, 127
2, 154634, Note_on_c, 11, 58, 127
2, 154672, Note_on_c, 11, 70, 127
2, 154681, Note_off_c, 8, 68, 127
2, 154737, Note_on_c, 8, 68, 127
2, 154746, Note_off_c, 11, 70, 127
2, 154786, Note_off_c, 11, 58, 127
2, 154790, Note_on_c, 2, 62, 127
2, 154802, Note_on_c, 11, 70, 127
2, 154811, Note_off_c, 8, 68, 127
2, 154868, Note_on_c, 8, 68, 127
2, 154876, Note_off_c, 11, 70, 127
2, 154932, Note_on_c, 11, 70, 127
2, 154942, Note_off_c, 8, 68, 127
2, 154942, Note_off_c, 2, 62, 127
2, 154945, Note_on_c, 8, 56, 127
2, 154998, Note_on_c, 8, 68, 127
2, 155006, Note_off_c, 11, 70, 127
2, 155064, Note_on_c, 11, 70, 127
2, 155072, Note_off_c, 8, 68, 127
2, 155097, Note_off_c, 8, 56, 127
2, 155101, Note_on_c, 11, 58, 127
2, 155129, Note_on_c, 8, 68, 127
2, 155138, Note_off_c, 11, 70, 127
2, 155193, Note_on_c, 11, 70, 127
2, 155203, Note_off_c, 8, 68, 127
2, 155253, Note_off_c, 11, 58, 127
2, 155256, Note_on_c, 0, 60, 127
2, 155259, Note_on_c, 8, 68, 127
2, 155267, Note_off_c, 11, 70, 127
2, 155324, Note_on_c, 11, 70, 127
2, 155333, Note_off_c, 8, 68, 127
2, 155390, Note_on_c, 8, 68, 127
2, 155398, Note_off_c, 11, 70, 127
2, 155408, Note_off_c, 0, 60, 127
2, 155412, Note_on_c, 8, 56, 127
2, 155455, Note_on_c, 11, 70, 127
2, 155464, Note_off_c, 8, 68, 127
2, 155520, Note_on_c, 8, 68, 127
2, 155529, Note_off_c, 11, 70, 127
2, 155564, Note_off_c, 8, 56, 127
2, 155568, Note_on_c, 5, 53, 127
2, 155586, Note_on_c, 11, 70, 127
2, 155594, Note_off_c, 8, 68, 127
2, 155653, Note_on_c, 8, 68, 127
2, 155660, Note_off_c, 11, 70, 127
2, 155720, Note_off_c, 5, 53, 127
2, 155723, Note_on_c, 8, 56, 127
2, 155875, Note_off_c, 8, 56, 127
2, 155879, Note_on_c, 2, 50, 127
2, 156029, Note_off_c, 8, 68, 127
2, 156031, Note_off_c, 2, 50, 127
2, 156034, Note_on_c, 7, 67, 127
2, 156034, Note_on_c, 3, 51, 127
2, 156186, Note_off_c, 3, 51, 127
2, 156186, Note_off_c, 7, 67, 127
2, 156190, Note_on_c, 8, 68, 127
2, 156190, Note_on_c, 5, 53, 127
2, 156342, Note_off_c, 5, 53, 127
2, 156342, Note_off_c, 8, 68, 127
2, 156345, Note_on_c, 0, 72, 127
2, 156345, Note_on_c, 2, 50, 127
2, 156497, Note_off_c, 2, 50, 127
2, 156497, Note_off_c, 0, 72, 127
2, 156501, Note_on_c, 11, 70, 127
2, 156501, Note_on_c, 11, 46, 127
2, 156653, Note_off_c, 11, 46, 127
2, 156653, Note_off_c, 11, 70, 127
2, 156656, Note_on_c, 8, 68, 127
2, 156656, Note_on_c, 2, 50, 127
2, 156808, Note_off_c, 2, 50, 127
2, 156808, Note_off_c, 8, 68, 127
2, 156812, Note_on_c, 7, 67, 127
2, 156812, Note_on_c, 3, 39, 127
2, 156964, Note_off_c, 7, 67, 127
2, 156983, Note_on_c, 10, 69, 127
2, 157057, Note_off_c, 10, 69, 127
2, 157061, Note_on_c, 12, 71, 127
2, 157135, Note_off_c, 12, 71, 127
2, 157139, Note_on_c, 0, 72, 127
2, 157275, Note_off_c, 3, 39, 127
2, 157294, Note_on_c, 11, 70, 127
2, 157446, Note_off_c, 11, 70, 127
2, 157446, Note_off_c, 0, 72, 127
2, 157450, Note_on_c, 10, 69, 127
2, 157450, Note_on_c, 0, 72, 127
2, 157602, Note_off_c, 10, 69, 127
2, 157605, Note_on_c, 7, 67, 127
2, 157757, Note_off_c, 7, 67, 127
2, 157757, Note_off_c, 0, 72, 127
2, 157761, Note_on_c, 6, 66, 127
2, 157761, Note_on_c, 2, 74, 127
2, 157891, Note_on_c, 0, 72, 127
2, 157904, Note_off_c, 2, 74, 127
2, 157913, Note_off_c, 6, 66, 127
2, 157916, Note_on_c, 7, 67, 127
2, 157955, Note_on_c, 12, 71, 127
2, 157965, Note_off_c, 0, 72, 127
2, 158019, Note_on_c, 0, 72, 127
2, 158029, Note_off_c, 12, 71, 127
2, 158068, Note_off_c, 7, 67, 127
2, 158072, Note_on_c, 10, 69, 127
2, 158084, Note_on_c, 2, 74, 127
2, 158093, Note_off_c, 0, 72, 127
2, 158149, Note_on_c, 0, 72, 127
2, 158158, Note_off_c, 2, 74, 127
2, 158213, Note_on_c, 2, 74, 127
2, 158223, Note_off_c, 0, 72, 127
2, 158224, Note_off_c, 10, 69, 127
2, 158227, Note_on_c, 6, 66, 127
2, 158278, Note_on_c, 0, 72, 127
2, 158287, Note_off_c, 2, 74, 127
2, 158343, Note_on_c, 2, 74, 127
2, 158352, Note_off_c, 0, 72, 127
2, 158379, Note_off_c, 6, 66, 127
2, 158383, Note_on_c, 3, 63, 127
2, 158408, Note_on_c, 0, 72, 127
2, 158417, Note_off_c, 2, 74, 127
2, 158471, Note_on_c, 2, 74, 127
2, 158482, Note_off_c, 0, 72, 127
2, 158535, Note_off_c, 3, 63, 127
2, 158536, Note_on_c, 0, 72, 127
2, 158538, Note_on_c, 6, 66, 127
2, 158545, Note_off_c, 2, 74, 127
2, 158601, Note_on_c, 2, 74, 127
2, 158610, Note_off_c, 0, 72, 127
2, 158666, Note_on_c, 0, 72, 127
2, 158675, Note_off_c, 2, 74, 127
2, 158690, Note_off_c, 6, 66, 127
2, 158694, Note_on_c, 0, 60, 127
2, 158730, Note_on_c, 2, 74, 127
2, 158740, Note_off_c, 0, 72, 127
2, 158795, Note_on_c, 0, 72, 127
2, 158804, Note_off_c, 2, 74, 127
2, 158846, Note_off_c, 0, 60, 127
2, 158849, Note_on_c, 2, 62, 127
2, 158860, Note_on_c, 2, 74, 127
2, 158869, Note_off_c, 0, 72, 127
2, 158924, Note_on_c, 0, 72, 127
2, 158934, Note_off_c, 2, 74, 127
2, 158988, Note_on_c, 2, 74, 127
2, 158998, Note_off_c, 0, 72, 127
2, 159001, Note_off_c, 2, 62, 127
2, 159005, Note_on_c, 3, 63, 127
2, 159053, Note_on_c, 0, 72, 127
2, 159062, Note_off_c, 2, 74, 127
2, 159118, Note_on_c, 2, 74, 127
2, 159127, Note_off_c, 0, 72, 127
2, 159157, Note_off_c, 3, 63, 127
2, 159160, Note_on_c, 0, 60, 127
2, 159182, Note_on_c, 0, 72, 127
2, 159192, Note_off_c, 2, 74, 127
2, 159248, Note_on_c, 2, 74, 127
2, 159256, Note_off_c, 0, 72, 127
2, 159312, Note_off_c, 0, 60, 127
2, 159314, Note_on_c, 0, 72, 127
2, 159316, Note_on_c, 10, 57, 127
2, 159322, Note_off_c, 2, 74, 127
2, 159380, Note_on_c, 2, 74, 127
2, 159388, Note_off_c, 0, 72, 127
2, 159447, Note_on_c, 0, 72, 127
2, 159454, Note_off_c, 2, 74, 127
2, 159468, Note_off_c, 10, 57, 127
2, 159472, Note_on_c, 0, 60, 127
2, 159624, Note_off_c, 0, 60, 127
2, 159627, Note_on_c, 6, 54, 127
2, 159777, Note_off_c, 0, 72, 127
2, 159779, Note_off_c, 6, 54, 127
2, 159783, Note_on_c, 7, 55, 127
2, 159783, Note_on_c, 11, 70, 127
2, 159935, Note_off_c, 11, 70, 127
2, 159935, Note_off_c, 7, 55, 127
2, 159938, Note_on_c, 10, 57, 127
2, 159938, Note_on_c, 0, 72, 127
2, 160090, Note_off_c, 0, 72, 127
2, 160090, Note_off_c, 10, 57, 127
2, 160094, Note_on_c, 6, 54, 127
2, 160094, Note_on_c, 3, 75, 127
2, 160246, Note_off_c, 3, 75, 127
2, 160246, Note_off_c, 6, 54, 127
2, 160249, Note_on_c, 2, 50, 127
2, 160249, Note_on_c, 2, 74, 127
2, 160401, Note_off_c, 2, 74, 127
2, 160401, Note_off_c, 2, 50, 127
2, 160405, Note_on_c, 6, 54, 127
2, 160405, Note_on_c, 0, 72, 127
2, 160557, Note_off_c, 0, 72, 127
2, 160557, Note_off_c, 6, 54, 127
2, 160560, Note_on_c, 7, 43, 127
2, 160560, Note_on_c, 11, 70, 127
2, 160712, Note_off_c, 11, 70, 127
2, 160716, Note_on_c, 10, 69, 127
2, 160867, Note_off_c, 7, 43, 127
2, 160868, Note_off_c, 10, 69, 127
2, 160871, Note_on_c, 11, 46, 127
2, 160871, Note_on_c, 7, 67, 127
2, 161023, Note_off_c, 7, 67, 127
2, 161027, Note_on_c, 3, 75, 127
2, 161178, Note_off_c, 11, 46, 127
2, 161179, Note_off_c, 3, 75, 127
2, 161182, Note_on_c, 3, 51, 127
2, 161182, Note_on_c, 6, 66, 127
2, 161334, Note_off_c, 6, 66, 127
2, 161338, Note_on_c, 7, 67, 127
2, 161462, Note_off_c, 3, 51, 127
2, 161490, Note_off_c, 7, 67, 127
2, 161493, Note_on_c, 5, 41, 127
2, 161493, Note_on_c, 10, 69, 127
2, 161645, Note_off_c, 10, 69, 127
2, 161649, Note_on_c, 7, 67, 127
2, 161800, Note_off_c, 5, 41, 127
2, 161801, Note_off_c, 7, 67, 127
2, 161804, Note_on_c, 10, 45, 127
2, 161804, Note_on_c, 5, 65, 127
2, 161956, Note_off_c, 5, 65, 127
2, 161960, Note_on_c, 2, 74, 127
2, 162111, Note_off_c, 10, 45, 127
2, 162112, Note_off_c, 2, 74, 127
2, 162115, Note_on_c, 2, 50, 127
2, 162115, Note_on_c, 4, 64, 127
2, 162267, Note_off_c, 4, 64, 127
2, 162271, Note_on_c, 5, 65, 127
2, 162395, Note_off_c, 2, 50, 127
2, 162423, Note_off_c, 5, 65, 127
2, 162426, Note_on_c, 3, 39, 127
2, 162426, Note_on_c, 7, 67, 127
2, 162578, Note_off_c, 7, 67, 127
2, 162582, Note_on_c, 5, 65, 127
2, 162733, Note_off_c, 3, 39, 127
2, 162734, Note_off_c, 5, 65, 127
2, 162737, Note_on_c, 7, 43, 127
2, 162737, Note_on_c, 3, 63, 127
2, 162889, Note_off_c, 3, 63, 127
2, 162893, Note_on_c, 0, 72, 127
2, 163044, Note_off_c, 7, 43, 127
2, 163045, Note_off_c, 0, 72, 127
2, 163048, Note_on_c, 0, 48, 127
2, 163048, Note_on_c, 2, 62, 127
2, 163200, Note_off_c, 2, 62, 127
2, 163204, Note_on_c, 4, 64, 127
2, 163328, Note_off_c, 0, 48, 127
2, 163356, Note_off_c, 4, 64, 127
2, 163360, Note_on_c, 2, 38, 127
2, 163360, Note_on_c, 6, 66, 127
2, 163512, Note_off_c, 6, 66, 127
2, 163515, Note_on_c, 4, 64, 127
2, 163667, Note_off_c, 4, 64, 127
2, 163671, Note_on_c, 2, 50, 127
2, 163671, Note_on_c, 2, 62, 127
2, 163823, Note_off_c, 2, 62, 127
2, 163826, Note_on_c, 0, 72, 127
2, 163978, Note_off_c, 0, 72, 127
2, 163982, Note_on_c, 4, 64, 127
2, 164134, Note_off_c, 4, 64, 127
2, 164137, Note_on_c, 6, 66, 127
2, 164289, Note_off_c, 6, 66, 127
2, 164291, Note_off_c, 2, 38, 127
2, 164293, Note_on_c, 2, 38, 127
2, 164293, Note_on_c, 7, 67, 127
2, 164445, Note_off_c, 7, 67, 127
2, 164448, Note_on_c, 6, 66, 127
2, 164600, Note_off_c, 6, 66, 127
2, 164602, Note_off_c, 2, 50, 127
2, 164604, Note_on_c, 2, 50, 127
2, 164604, Note_on_c, 4, 64, 127
2, 164756, Note_off_c, 4, 64, 127
2, 164759, Note_on_c, 11, 70, 127
2, 164911, Note_off_c, 11, 70, 127
2, 164915, Note_on_c, 1, 61, 127
2, 165067, Note_off_c, 1, 61, 127
2, 165070, Note_on_c, 2, 62, 127
2, 165222, Note_off_c, 2, 62, 127
2, 165224, Note_off_c, 2, 38, 127
2, 165226, Note_on_c, 2, 38, 127
2, 165226, Note_on_c, 4, 64, 127
2, 165378, Note_off_c, 4, 64, 127
2, 165381, Note_on_c, 2, 62, 127
2, 165533, Note_off_c, 2, 62, 127
2, 165535, Note_off_c, 2, 50, 127
2, 165537, Note_on_c, 2, 50, 127
2, 165537, Note_on_c, 1, 61, 127
2, 165689, Note_off_c, 1, 61, 127
2, 165692, Note_on_c, 10, 69, 127
2, 165844, Note_off_c, 10, 69, 127
2, 165848, Note_on_c, 4, 64, 127
2, 166000, Note_off_c, 4, 64, 127
2, 166003, Note_on_c, 6, 66, 127
2, 166155, Note_off_c, 6, 66, 127
2, 166157, Note_off_c, 2, 38, 127
2, 166159, Note_on_c, 2, 38, 127
2, 166159, Note_on_c, 7, 67, 127
2, 166311, Note_off_c, 7, 67, 127
2, 166314, Note_on_c, 6, 66, 127
2, 166466, Note_off_c, 6, 66, 127
2, 166466, Note_off_c, 2, 38, 127
2, 166468, Note_off_c, 2, 50, 127
2, 166470, Note_on_c, 2, 50, 127
2, 166470, Note_on_c, 4, 64, 127
2, 166622, Note_off_c, 4, 64, 127
2, 166625, Note_on_c, 2, 62, 127
2, 166777, Note_off_c, 2, 62, 127
2, 166777, Note_off_c, 2, 50, 127
2, 166781, Note_on_c, 2, 50, 127
2, 166781, Note_on_c, 4, 64, 127
2, 166933, Note_off_c, 4, 64, 127
2, 166936, Note_on_c, 6, 66, 127
2, 167088, Note_off_c, 6, 66, 127
2, 167088, Note_off_c, 2, 50, 127
2, 167092, Note_on_c, 11, 46, 127
2, 167092, Note_on_c, 7, 67, 127
2, 167244, Note_off_c, 11, 46, 127
2, 167248, Note_on_c, 10, 45, 127
2, 167399, Note_off_c, 7, 67, 127
2, 167400, Note_off_c, 10, 45, 127
2, 167403, Note_on_c, 7, 43, 127
2, 167403, Note_on_c, 7, 55, 127
2, 167555, Note_off_c, 7, 43, 127
2, 167559, Note_on_c, 10, 45, 127
2, 167710, Note_off_c, 7, 55, 127
2, 167711, Note_off_c, 10, 45, 127
2, 167714, Note_on_c, 11, 46, 127
2, 167714, Note_on_c, 7, 55, 127
2, 167866, Note_off_c, 11, 46, 127
2, 167870, Note_on_c, 0, 48, 127
2, 168021, Note_off_c, 7, 55, 127
2, 168022, Note_off_c, 0, 48, 127
2, 168025, Note_on_c, 2, 50, 127
2, 168025, Note_on_c, 6, 54, 127
2, 168177, Note_off_c, 2, 50, 127
2, 168181, Note_on_c, 0, 48, 127
2, 168332, Note_off_c, 6, 54, 127
2, 168333, Note_off_c, 0, 48, 127
2, 168336, Note_on_c, 2, 50, 127
2, 168336, Note_on_c, 2, 62, 127
2, 168488, Note_off_c, 2, 50, 127
2, 168492, Note_on_c, 4, 52, 127
2, 168643, Note_off_c, 2, 62, 127
2, 168644, Note_off_c, 4, 52, 127
2, 168647, Note_on_c, 6, 54, 127
2, 168647, Note_on_c, 2, 62, 127
2, 168799, Note_off_c, 6, 54, 127
2, 168803, Note_on_c, 2, 50, 127
2, 168954, Note_off_c, 2, 62, 127
2, 168955, Note_off_c, 2, 50, 127
2, 168958, Note_on_c, 7, 55, 127
2, 168958, Note_on_c, 11, 58, 127
2, 169110, Note_off_c, 7, 55, 127
2, 169114, Note_on_c, 6, 54, 127
2, 169265, Note_off_c, 11, 58, 127
2, 169266, Note_off_c, 6, 54, 127
2, 169269, Note_on_c, 7, 55, 127
2, 169269, Note_on_c, 7, 67, 127
2, 169421, Note_off_c, 7, 55, 127
2, 169425, Note_on_c, 10, 57, 127
2, 169576, Note_off_c, 7, 67, 127
2, 169577, Note_off_c, 10, 57, 127
2, 169580, Note_on_c, 11, 58, 127
2, 169580, Note_on_c, 7, 67, 127
2, 169732, Note_off_c, 11, 58, 127
2, 169736, Note_on_c, 0, 60, 127
2, 169887, Note_off_c, 7, 67, 127
2, 169888, Note_off_c, 0, 60, 127
2, 169891, Note_on_c, 2, 62, 127
2, 169891, Note_on_c, 6, 66, 127
2, 170043, Note_off_c, 2, 62, 127
2, 170047, Note_on_c, 0, 60, 127
2, 170198, Note_off_c, 6, 66, 127
2, 170199, Note_off_c, 0, 60, 127
2, 170202, Note_on_c, 2, 62, 127
2, 170202, Note_on_c, 2, 74, 127
2, 170354, Note_off_c, 2, 62, 127
2, 170358, Note_on_c, 4, 64, 127
2, 170509, Note_off_c, 2, 74, 127
2, 170510, Note_off_c, 4, 64, 127
2, 170513, Note_on_c, 6, 66, 127
2, 170513, Note_on_c, 2, 74, 127
2, 170665, Note_off_c, 6, 66, 127
2, 170669, Note_on_c, 2, 62, 127
2, 170820, Note_off_c, 2, 74, 127
2, 170821, Note_off_c, 2, 62, 127
2, 170824, Note_on_c, 7, 67, 127
2, 170824, Note_on_c, 11, 70, 127
2, 170976, Note_off_c, 11, 70, 127
2, 170980, Note_on_c, 10, 69, 127
2, 171131, Note_off_c, 7, 67, 127
2, 171132, Note_off_c, 10, 69, 127
2, 171136, Note_on_c, 11, 58, 127
2, 171136, Note_on_c, 7, 55, 127
2, 171136, Note_on_c, 2, 62, 127
2, 171136, Note_on_c, 7, 67, 127
2, 171288, Note_off_c, 7, 67, 127
2, 171291, Note_on_c, 10, 69, 127
2, 171443, Note_off_c, 10, 69, 127
2, 171443, Note_off_c, 2, 62, 127
2, 171443, Note_off_c, 7, 55, 127
2, 171443, Note_off_c, 11, 58, 127
2, 171447, Note_on_c, 11, 58, 127
2, 171447, Note_on_c, 7, 55, 127
2, 171447, Note_on_c, 2, 62, 127
2, 171447, Note_on_c, 11, 70, 127
2, 171599, Note_off_c, 11, 70, 127
2, 171602, Note_on_c, 0, 72, 127
2, 171754, Note_off_c, 0, 72, 127
2, 171754, Note_off_c, 2, 62, 127
2, 171754, Note_off_c, 7, 55, 127
2, 171754, Note_off_c, 11, 58, 127
2, 171758, Note_on_c, 6, 54, 127
2, 171758, Note_on_c, 10, 57, 127
2, 171758, Note_on_c, 2, 62, 127
2, 171758, Note_on_c, 2, 74, 127
2, 171910, Note_off_c, 2, 74, 127
2, 171913, Note_on_c, 0, 72, 127
2, 172065, Note_off_c, 0, 72, 127
2, 172065, Note_off_c, 2, 62, 127
2, 172065, Note_off_c, 10, 57, 127
2, 172065, Note_off_c, 6, 54, 127
2, 172069, Note_on_c, 10, 57, 127
2, 172069, Note_on_c, 6, 54, 127
2, 172069, Note_on_c, 2, 50, 127
2, 172069, Note_on_c, 2, 74, 127
2, 172221, Note_off_c, 2, 74, 127
2, 172224, Note_on_c, 4, 76, 127
2, 172376, Note_off_c, 4, 76, 127
2, 172376, Note_off_c, 2, 50, 127
2, 172376, Note_off_c, 6, 54, 127
2, 172376, Note_off_c, 10, 57, 127
2, 172380, Note_on_c, 6, 54, 127
2, 172380, Note_on_c, 2, 50, 127
2, 172380, Note_on_c, 10, 57, 127
2, 172380, Note_on_c, 6, 78, 127
2, 172532, Note_off_c, 6, 78, 127
2, 172535, Note_on_c, 2, 74, 127
2, 172687, Note_off_c, 2, 74, 127
2, 172687, Note_off_c, 10, 57, 127
2, 172687, Note_off_c, 2, 50, 127
2, 172687, Note_off_c, 6, 54, 127
2, 172691, Note_on_c, 2, 50, 127
2, 172691, Note_on_c, 11, 46, 127
2, 172691, Note_on_c, 7, 55, 127
2, 172691, Note_on_c, 7, 79, 127
2, 172843, Note_off_c, 7, 79, 127
2, 172846, Note_on_c, 6, 78, 127
2, 172998, Note_off_c, 6, 78, 127
2, 172998, Note_off_c, 7, 55, 127
2, 172998, Note_off_c, 11, 46, 127
2, 172998, Note_off_c, 2, 50, 127
2, 173002, Note_on_c, 2, 50, 127
2, 173002, Note_on_c, 11, 46, 127
2, 173002, Note_on_c, 7, 43, 127
2, 173002, Note_on_c, 7, 79, 127
2, 173154, Note_off_c, 7, 79, 127
2, 173157, Note_on_c, 10, 81, 127
2, 173309, Note_off_c, 10, 81, 127
2, 173309, Note_off_c, 7, 43, 127
2, 173309, Note_off_c, 11, 46, 127
2, 173309, Note_off_c, 2, 50, 127
2, 173313, Note_on_c, 7, 43, 127
2, 173313, Note_on_c, 11, 46, 127
2, 173313, Note_on_c, 2, 50, 127
2, 173313, Note_on_c, 11, 82, 127
2, 173465, Note_off_c, 11, 82, 127
2, 173468, Note_on_c, 7, 79, 127
2, 173620, Note_off_c, 7, 79, 127
2, 173620, Note_off_c, 2, 50, 127
2, 173620, Note_off_c, 11, 46, 127
2, 173620, Note_off_c, 7, 43, 127
2, 173624, Note_on_c, 2, 38, 127
2, 173624, Note_on_c, 10, 45, 127
2, 173624, Note_on_c, 6, 42, 127
2, 173624, Note_on_c, 2, 50, 127
2, 173624, Note_on_c, 10, 81, 127
2, 173776, Note_off_c, 10, 81, 127
2, 173779, Note_on_c, 7, 79, 127
2, 173931, Note_off_c, 7, 79, 127
2, 173935, Note_on_c, 6, 78, 127
2, 174087, Note_off_c, 6, 78, 127
2, 174090, Note_on_c, 4, 76, 127
2, 174242, Note_off_c, 4, 76, 127
2, 174246, Note_on_c, 2, 74, 127
2, 174336, Note_off_c, 2, 50, 127
2, 174336, Note_off_c, 6, 42, 127
2, 174336, Note_off_c, 10, 45, 127
2, 174336, Note_off_c, 2, 38, 127
2, 174398, Note_off_c, 2, 74, 127
2, 174401, Note_on_c, 0, 72, 127
2, 174553, Note_off_c, 0, 72, 127
2, 174557, Note_on_c, 11, 70, 127
2, 174712, Note_on_c, 10, 69, 127
2, 174864, Note_off_c, 10, 69, 127
2, 174864, Note_off_c, 11, 70, 127
2, 174868, Note_on_c, 7, 67, 127
2, 174868, Note_on_c, 2, 74, 127
2, 174868, Note_on_c, 11, 70, 127
2, 174868, Note_on_c, 7, 79, 127
2, 175020, Note_off_c, 7, 67, 127
2, 175024, Note_on_c, 5, 65, 127
2, 175175, Note_off_c, 7, 79, 127
2, 175175, Note_off_c, 11, 70, 127
2, 175175, Note_off_c, 2, 74, 127
2, 175176, Note_off_c, 5, 65, 127
2, 175179, Note_on_c, 3, 63, 127
2, 175179, Note_on_c, 2, 74, 127
2, 175179, Note_on_c, 7, 79, 127
2, 175179, Note_on_c, 11, 70, 127
2, 175331, Note_off_c, 3, 63, 127
2, 175335, Note_on_c, 2, 62, 127
2, 175486, Note_off_c, 11, 70, 127
2, 175486, Note_off_c, 7, 79, 127
2, 175486, Note_off_c, 2, 74, 127
2, 175487, Note_off_c, 2, 62, 127
2, 175490, Note_on_c, 0, 60, 127
2, 175490, Note_on_c, 3, 75, 127
2, 175490, Note_on_c, 0, 72, 127
2, 175642, Note_off_c, 3, 75, 127
2, 175642, Note_off_c, 0, 60, 127
2, 175646, Note_on_c, 2, 62, 127
2, 175646, Note_on_c, 5, 77, 127
2, 175798, Note_off_c, 5, 77, 127
2, 175798, Note_off_c, 2, 62, 127
2, 175801, Note_on_c, 0, 60, 127
2, 175801, Note_on_c, 3, 75, 127
2, 175943, Note_off_c, 0, 72, 127
2, 175953, Note_off_c, 3, 75, 127
2, 175953, Note_off_c, 0, 60, 127
2, 175957, Note_on_c, 11, 58, 127
2, 175957, Note_on_c, 2, 74, 127
2, 176109, Note_off_c, 2, 74, 127
2, 176109, Note_off_c, 11, 58, 127
2, 176112, Note_on_c, 10, 57, 127
2, 176112, Note_on_c, 0, 72, 127
2, 176264, Note_off_c, 0, 72, 127
2, 176264, Note_off_c, 10, 57, 127
2, 176268, Note_on_c, 7, 55, 127
2, 176268, Note_on_c, 11, 70, 127
2, 176420, Note_off_c, 11, 70, 127
2, 176420, Note_off_c, 7, 55, 127
2, 176423, Note_on_c, 5, 53, 127
2, 176423, Note_on_c, 10, 69, 127
2, 176575, Note_off_c, 5, 53, 127
2, 176579, Note_on_c, 7, 67, 127
2, 176730, Note_off_c, 10, 69, 127
2, 176731, Note_off_c, 7, 67, 127
2, 176734, Note_on_c, 5, 65, 127
2, 176734, Note_on_c, 10, 69, 127
2, 176734, Note_on_c, 5, 77, 127
2, 176734, Note_on_c, 0, 72, 127
2, 176886, Note_off_c, 5, 65, 127
2, 176890, Note_on_c, 3, 63, 127
2, 177041, Note_off_c, 0, 72, 127
2, 177041, Note_off_c, 5, 77, 127
2, 177041, Note_off_c, 10, 69, 127
2, 177042, Note_off_c, 3, 63, 127
2, 177045, Note_on_c, 2, 62, 127
2, 177045, Note_on_c, 5, 77, 127
2, 177045, Note_on_c, 0, 72, 127
2, 177045, Note_on_c, 10, 69, 127
2, 177197, Note_off_c, 2, 62, 127
2, 177201, Note_on_c, 0, 60, 127
2, 177352, Note_off_c, 10, 69, 127
2, 177352, Note_off_c, 0, 72, 127
2, 177352, Note_off_c, 5, 77, 127
2, 177353, Note_off_c, 0, 60, 127
2, 177356, Note_on_c, 11, 58, 127
2, 177356, Note_on_c, 2, 74, 127
2, 177356, Note_on_c, 11, 70, 127
2, 177508, Note_off_c, 2, 74, 127
2, 177508, Note_off_c, 11, 58, 127
2, 177512, Note_on_c, 0, 60, 127
2, 177512, Note_on_c, 3, 75, 127
2, 177664, Note_off_c, 3, 75, 127
2, 177664, Note_off_c, 0, 60, 127
2, 177667, Note_on_c, 11, 58, 127
2, 177667, Note_on_c, 2, 74, 127
2, 177809, Note_off_c, 11, 70, 127
2, 177819, Note_off_c, 2, 74, 127
2, 177819, Note_off_c, 11, 58, 127
2, 177823, Note_on_c, 10, 57, 127
2, 177823, Note_on_c, 0, 72, 127
2, 177975, Note_off_c, 0, 72, 127
2, 177975, Note_off_c, 10, 57, 127
2, 177978, Note_on_c, 7, 55, 127
2, 177978, Note_on_c, 11, 70, 127
2, 178130, Note_off_c, 11, 70, 127
2, 178130, Note_off_c, 7, 55, 127
2, 178134, Note_on_c, 5, 53, 127
2, 178134, Note_on_c, 10, 69, 127
2, 178286, Note_off_c, 10, 69, 127
2, 178286, Note_off_c, 5, 53, 127
2, 178289, Note_on_c, 3, 51, 127
2, 178289, Note_on_c, 7, 67, 127
2, 178441, Note_off_c, 3, 51, 127
2, 178445, Note_on_c, 5, 65, 127
2, 178596, Note_off_c, 7, 67, 127
2, 178597, Note_off_c, 5, 65, 127
2, 178600, Note_on_c, 3, 63, 127
2, 178600, Note_on_c, 7, 67, 127
2, 178600, Note_on_c, 3, 75, 127
2, 178600, Note_on_c, 11, 70, 127
2, 178752, Note_off_c, 3, 63, 127
2, 178756, Note_on_c, 2, 62, 127
2, 178907, Note_off_c, 11, 70, 127
2, 178907, Note_off_c, 3, 75, 127
2, 178907, Note_off_c, 7, 67, 127
2, 178908, Note_off_c, 2, 62, 127
2, 178912, Note_on_c, 0, 60, 127
2, 178912, Note_on_c, 7, 67, 127
2, 178912, Note_on_c, 3, 75, 127
2, 178912, Note_on_c, 11, 70, 127
2, 179064, Note_off_c, 0, 60, 127
2, 179067, Note_on_c, 11, 58, 127
2, 179219, Note_off_c, 11, 58, 127
2, 179219, Note_off_c, 11, 70, 127
2, 179219, Note_off_c, 3, 75, 127
2, 179219, Note_off_c, 7, 67, 127
2, 179223, Note_on_c, 10, 57, 127
2, 179223, Note_on_c, 0, 72, 127
2, 179223, Note_on_c, 7, 67, 127
2, 179375, Note_off_c, 0, 72, 127
2, 179375, Note_off_c, 10, 57, 127
2, 179378, Note_on_c, 11, 58, 127
2, 179378, Note_on_c, 2, 74, 127
2, 179530, Note_off_c, 2, 74, 127
2, 179530, Note_off_c, 11, 58, 127
2, 179534, Note_on_c, 10, 57, 127
2, 179534, Note_on_c, 0, 72, 127
2, 179676, Note_off_c, 7, 67, 127
2, 179686, Note_off_c, 0, 72, 127
2, 179686, Note_off_c, 10, 57, 127
2, 179689, Note_on_c, 7, 55, 127
2, 179689, Note_on_c, 11, 70, 127
2, 179841, Note_off_c, 11, 70, 127
2, 179841, Note_off_c, 7, 55, 127
2, 179845, Note_on_c, 6, 54, 127
2, 179845, Note_on_c, 10, 69, 127
2, 179997, Note_off_c, 10, 69, 127
2, 179997, Note_off_c, 6, 54, 127
2, 180000, Note_on_c, 4, 52, 127
2, 180000, Note_on_c, 7, 67, 127
2, 180152, Note_off_c, 7, 67, 127
2, 180152, Note_off_c, 4, 52, 127
2, 180156, Note_on_c, 2, 50, 127
2, 180156, Note_on_c, 6, 66, 127
2, 180308, Note_off_c, 2, 50, 127
2, 180311, Note_on_c, 3, 51, 127
2, 180463, Note_off_c, 3, 51, 127
2, 180463, Note_off_c, 6, 66, 127
2, 180467, Note_on_c, 2, 50, 127
2, 180467, Note_on_c, 10, 69, 127
2, 180467, Note_on_c, 6, 66, 127
2, 180467, Note_on_c, 2, 74, 127
2, 180619, Note_off_c, 2, 50, 127
2, 180622, Note_on_c, 0, 48, 127
2, 180774, Note_off_c, 0, 48, 127
2, 180774, Note_off_c, 2, 74, 127
2, 180774, Note_off_c, 6, 66, 127
2, 180774, Note_off_c, 10, 69, 127
2, 180778, Note_on_c, 11, 46, 127
2, 180778, Note_on_c, 10, 69, 127
2, 180778, Note_on_c, 6, 66, 127
2, 180778, Note_on_c, 2, 74, 127
2, 180930, Note_off_c, 11, 46, 127
2, 180933, Note_on_c, 10, 45, 127
2, 181085, Note_off_c, 10, 45, 127
2, 181085, Note_off_c, 2, 74, 127
2, 181085, Note_off_c, 6, 66, 127
2, 181085, Note_off_c, 10, 69, 127
2, 181089, Note_on_c, 7, 43, 127
2, 181089, Note_on_c, 2, 62, 127
2, 181089, Note_on_c, 11, 70, 127
2, 181089, Note_on_c, 7, 67, 127
2, 181241, Note_off_c, 7, 43, 127
2, 181244, Note_on_c, 10, 45, 127
2, 181396, Note_off_c, 10, 45, 127
2, 181396, Note_off_c, 7, 67, 127
2, 181396, Note_off_c, 11, 70, 127
2, 181396, Note_off_c, 2, 62, 127
2, 181400, Note_on_c, 7, 43, 127
2, 181400, Note_on_c, 11, 70, 127
2, 181400, Note_on_c, 2, 62, 127
2, 181400, Note_on_c, 7, 67, 127
2, 181552, Note_off_c, 7, 43, 127
2, 181555, Note_on_c, 5, 41, 127
2, 181707, Note_off_c, 5, 41, 127
2, 181707, Note_off_c, 7, 67, 127
2, 181707, Note_off_c, 2, 62, 127
2, 181707, Note_off_c, 11, 70, 127
2, 181711, Note_on_c, 3, 39, 127
2, 181711, Note_on_c, 11, 70, 127
2, 181711, Note_on_c, 2, 62, 127
2, 181711, Note_on_c, 7, 67, 127
2, 181863, Note_off_c, 3, 39, 127
2, 181866, Note_on_c, 2, 38, 127
2, 182018, Note_off_c, 2, 38, 127
2, 182018, Note_off_c, 7, 67, 127
2, 182018, Note_off_c, 2, 62, 127
2, 182018, Note_off_c, 11, 70, 127
2, 182022, Note_on_c, 0, 36, 127
2, 182022, Note_on_c, 3, 63, 127
2, 182022, Note_on_c, 11, 70, 127
2, 182174, Note_off_c, 3, 63, 127
2, 182177, Note_on_c, 2, 62, 127
2, 182329, Note_off_c, 2, 62, 127
2, 182329, Note_off_c, 0, 36, 127
2, 182333, Note_on_c, 0, 48, 127
2, 182333, Note_on_c, 3, 63, 127
2, 182485, Note_off_c, 3, 63, 127
2, 182488, Note_on_c, 5, 65, 127
2, 182640, Note_off_c, 5, 65, 127
2, 182640, Note_off_c, 0, 48, 127
2, 182644, Note_on_c, 0, 48, 127
2, 182644, Note_on_c, 7, 67, 127
2, 182796, Note_off_c, 7, 67, 127
2, 182800, Note_on_c, 3, 63, 127
2, 182951, Note_off_c, 0, 48, 127
2, 182952, Note_off_c, 3, 63, 127
2, 182953, Note_off_c, 11, 70, 127
2, 182955, Note_on_c, 5, 41, 127
2, 182955, Note_on_c, 10, 69, 127
2, 182955, Note_on_c, 0, 60, 127
2, 183107, Note_off_c, 0, 60, 127
2, 183111, Note_on_c, 7, 67, 127
2, 183262, Note_off_c, 5, 41, 127
2, 183263, Note_off_c, 7, 67, 127
2, 183266, Note_on_c, 5, 53, 127
2, 183266, Note_on_c, 5, 65, 127
2, 183418, Note_off_c, 5, 65, 127
2, 183422, Note_on_c, 3, 63, 127
2, 183573, Note_off_c, 5, 53, 127
2, 183574, Note_off_c, 3, 63, 127
2, 183577, Note_on_c, 5, 53, 127
2, 183577, Note_on_c, 2, 62, 127
2, 183729, Note_off_c, 2, 62, 127
2, 183733, Note_on_c, 0, 60, 127
2, 183884, Note_off_c, 5, 53, 127
2, 183885, Note_off_c, 0, 60, 127
2, 183888, Note_on_c, 11, 58, 127
2, 183888, Note_on_c, 2, 62, 127
2, 184040, Note_off_c, 2, 62, 127
2, 184044, Note_on_c, 0, 60, 127
2, 184195, Note_off_c, 11, 58, 127
2, 184196, Note_off_c, 0, 60, 127
2, 184199, Note_on_c, 11, 46, 127
2, 184199, Note_on_c, 2, 62, 127
2, 184351, Note_off_c, 2, 62, 127
2, 184355, Note_on_c, 3, 63, 127
2, 184506, Note_off_c, 11, 46, 127
2, 184507, Note_off_c, 3, 63, 127
2, 184510, Note_on_c, 11, 46, 127
2, 184510, Note_on_c, 5, 65, 127
2, 184662, Note_off_c, 5, 65, 127
2, 184666, Note_on_c, 2, 62, 127
2, 184817, Note_off_c, 11, 46, 127
2, 184818, Note_off_c, 2, 62, 127
2, 184818, Note_off_c, 10, 69, 127
2, 184821, Note_on_c, 3, 39, 127
2, 184821, Note_on_c, 11, 58, 127
2, 184821, Note_on_c, 7, 67, 127
2, 184973, Note_off_c, 11, 58, 127
2, 184977, Note_on_c, 5, 65, 127
2, 185128, Note_off_c, 3, 39, 127
2, 185129, Note_off_c, 5, 65, 127
2, 185132, Note_on_c, 3, 51, 127
2, 185132, Note_on_c, 3, 63, 127
2, 185284, Note_off_c, 3, 63, 127
2, 185288, Note_on_c, 2, 62, 127
2, 185439, Note_off_c, 3, 51, 127
2, 185440, Note_off_c, 2, 62, 127
2, 185443, Note_on_c, 3, 51, 127
2, 185443, Note_on_c, 0, 60, 127
2, 185595, Note_off_c, 0, 60, 127
2, 185599, Note_on_c, 11, 58, 127
2, 185750, Note_off_c, 3, 51, 127
2, 185751, Note_off_c, 11, 58, 127
2, 185754, Note_on_c, 10, 57, 127
2, 185754, Note_on_c, 0, 60, 127
2, 185906, Note_off_c, 0, 60, 127
2, 185910, Note_on_c, 11, 58, 127
2, 186061, Note_off_c, 10, 57, 127
2, 186062, Note_off_c, 11, 58, 127
2, 186065, Note_on_c, 10, 45, 127
2, 186065, Note_on_c, 0, 60, 127
2, 186217, Note_off_c, 0, 60, 127
2, 186221, Note_on_c, 2, 62, 127
2, 186372, Note_off_c, 10, 45, 127
2, 186373, Note_off_c, 2, 62, 127
2, 186376, Note_on_c, 10, 45, 127
2, 186376, Note_on_c, 3, 63, 127
2, 186528, Note_off_c, 3, 63, 127
2, 186532, Note_on_c, 0, 60, 127
2, 186683, Note_off_c, 10, 45, 127
2, 186684, Note_off_c, 0, 60, 127
2, 186684, Note_off_c, 7, 67, 127
2, 186688, Note_on_c, 2, 38, 127
2, 186688, Note_on_c, 10, 57, 127
2, 186688, Note_on_c, 6, 66, 127
2, 186840, Note_off_c, 10, 57, 127
2, 186843, Note_on_c, 3, 63, 127
2, 186995, Note_off_c, 3, 63, 127
2, 186999, Note_on_c, 2, 62, 127
2, 187151, Note_off_c, 2, 62, 127
2, 187154, Note_on_c, 0, 60, 127
2, 187306, Note_off_c, 0, 60, 127
2, 187310, Note_on_c, 11, 58, 127
2, 187462, Note_off_c, 11, 58, 127
2, 187465, Note_off_c, 2, 38, 127
2, 187465, Note_on_c, 10, 57, 127
2, 187617, Note_off_c, 10, 57, 127
2, 187619, Note_off_c, 6, 66, 127
2, 187621, Note_on_c, 11, 58, 127
2, 187621, Note_on_c, 10, 69, 127
2, 187768, Note_on_c, 7, 67, 127
2, 187773, Note_off_c, 11, 58, 127
2, 187776, Note_on_c, 2, 62, 127
2, 187781, Note_off_c, 10, 69, 127
2, 187862, Note_off_c, 7, 67, 127
2, 187866, Note_on_c, 10, 69, 127
2, 187928, Note_off_c, 2, 62, 127
2, 187932, Note_on_c, 0, 60, 127
2, 187934, Note_on_c, 7, 67, 127
2, 187940, Note_off_c, 10, 69, 127
2, 188002, Note_on_c, 10, 69, 127
2, 188008, Note_off_c, 7, 67, 127
2, 188076, Note_off_c, 10, 69, 127
2, 188079, Note_on_c, 7, 67, 127
2, 188084, Note_off_c, 0, 60, 127
2, 188087, Note_on_c, 11, 58, 127
2, 188147, Note_on_c, 10, 69, 127
2, 188153, Note_off_c, 7, 67, 127
2, 188215, Note_on_c, 7, 67, 127
2, 188221, Note_off_c, 10, 69, 127
2, 188239, Note_off_c, 11, 58, 127
2, 188243, Note_on_c, 10, 57, 127
2, 188283, Note_on_c, 10, 69, 127
2, 188289, Note_off_c, 7, 67, 127
2, 188350, Note_on_c, 7, 67, 127
2, 188357, Note_off_c, 10, 69, 127
2, 188395, Note_off_c, 10, 57, 127
2, 188398, Note_on_c, 7, 55, 127
2, 188418, Note_on_c, 6, 66, 127
2, 188424, Note_off_c, 7, 67, 127
2, 188486, Note_on_c, 7, 67, 127
2, 188492, Note_off_c, 6, 66, 127
2, 188550, Note_off_c, 7, 55, 127
2, 188554, Note_on_c, 6, 54, 127
2, 188554, Note_on_c, 10, 69, 127
2, 188560, Note_off_c, 7, 67, 127
2, 188706, Note_off_c, 6, 54, 127
2, 188709, Note_on_c, 7, 55, 127
2, 188861, Note_off_c, 7, 55, 127
2, 188861, Note_off_c, 10, 69, 127
2, 188865, Note_on_c, 6, 54, 127
2, 188865, Note_on_c, 2, 74, 127
2, 188865, Note_on_c, 10, 69, 127
2, 188865, Note_on_c, 6, 66, 127
2, 189017, Note_off_c, 6, 54, 127
2, 189020, Note_on_c, 4, 52, 127
2, 189172, Note_off_c, 4, 52, 127
2, 189172, Note_off_c, 6, 66, 127
2, 189172, Note_off_c, 10, 69, 127
2, 189172, Note_off_c, 2, 74, 127
2, 189176, Note_on_c, 2, 50, 127
2, 189176, Note_on_c, 10, 69, 127
2, 189176, Note_on_c, 6, 66, 127
2, 189176, Note_on_c, 2, 74, 127
2, 189328, Note_off_c, 2, 50, 127
2, 189331, Note_on_c, 0, 48, 127
2, 189483, Note_off_c, 0, 48, 127
2, 189483, Note_off_c, 2, 74, 127
2, 189483, Note_off_c, 6, 66, 127
2, 189483, Note_off_c, 10, 69, 127
2, 189487, Note_on_c, 12, 47, 127
2, 189487, Note_on_c, 5, 77, 127
2, 189487, Note_on_c, 2, 74, 127
2, 189487, Note_on_c, 12, 71, 127
2, 189487, Note_on_c, 7, 67, 127
2, 189639, Note_off_c, 12, 47, 127
2, 189642, Note_on_c, 10, 45, 127
2, 189794, Note_off_c, 10, 45, 127
2, 189794, Note_off_c, 7, 67, 127
2, 189794, Note_off_c, 12, 71, 127
2, 189794, Note_off_c, 2, 74, 127
2, 189794, Note_off_c, 5, 77, 127
2, 189798, Note_on_c, 7, 43, 127
2, 189798, Note_on_c, 5, 77, 127
2, 189798, Note_on_c, 2, 74, 127
2, 189798, Note_on_c, 12, 71, 127
2, 189798, Note_on_c, 7, 67, 127
2, 189950, Note_off_c, 7, 43, 127
2, 189953, Note_on_c, 5, 41, 127
2, 190105, Note_off_c, 5, 41, 127
2, 190105, Note_off_c, 7, 67, 127
2, 190105, Note_off_c, 12, 71, 127
2, 190105, Note_off_c, 2, 74, 127
2, 190105, Note_off_c, 5, 77, 127
2, 190109, Note_on_c, 4, 40, 127
2, 190109, Note_on_c, 7, 67, 127
2, 190109, Note_on_c, 2, 74, 127
2, 190109, Note_on_c, 12, 71, 127
2, 190109, Note_on_c, 5, 77, 127
2, 190261, Note_off_c, 4, 40, 127
2, 190264, Note_on_c, 2, 38, 127
2, 190416, Note_off_c, 2, 38, 127
2, 190416, Note_off_c, 5, 77, 127
2, 190416, Note_off_c, 12, 71, 127
2, 190416, Note_off_c, 2, 74, 127
2, 190416, Note_off_c, 7, 67, 127
2, 190420, Note_on_c, 0, 36, 127
2, 190420, Note_on_c, 12, 71, 127
2, 190420, Note_on_c, 7, 67, 127
2, 190420, Note_on_c, 5, 77, 127
2, 190420, Note_on_c, 2, 74, 127
2, 190727, Note_off_c, 2, 74, 127
2, 190727, Note_off_c, 5, 77, 127
2, 190727, Note_off_c, 7, 67, 127
2, 190727, Note_off_c, 12, 71, 127
2, 190727, Note_off_c, 0, 36, 127
2, 190731, Note_on_c, 7, 55, 127
2, 190731, Note_on_c, 0, 72, 127
2, 190731, Note_on_c, 7, 67, 127
2, 190731, Note_on_c, 4, 76, 127
2, 190883, Note_off_c, 7, 55, 127
2, 190887, Note_on_c, 5, 53, 127
2, 191038, Note_off_c, 4, 76, 127
2, 191038, Note_off_c, 7, 67, 127
2, 191038, Note_off_c, 0, 72, 127
2, 191039, Note_off_c, 5, 53, 127
2, 191042, Note_on_c, 4, 52, 127
2, 191042, Note_on_c, 4, 76, 127
2, 191042, Note_on_c, 0, 72, 127
2, 191042, Note_on_c, 7, 67, 127
2, 191194, Note_off_c, 4, 52, 127
2, 191198, Note_on_c, 2, 50, 127
2, 191349, Note_off_c, 7, 67, 127
2, 191349, Note_off_c, 0, 72, 127
2, 191349, Note_off_c, 4, 76, 127
2, 191350, Note_off_c, 2, 50, 127
2, 191353, Note_on_c, 1, 49, 127
2, 191353, Note_on_c, 7, 79, 127
2, 191353, Note_on_c, 4, 76, 127
2, 191353, Note_on_c, 1, 73, 127
2, 191353, Note_on_c, 10, 69, 127
2, 191505, Note_off_c, 1, 49, 127
2, 191509, Note_on_c, 12, 47, 127
2, 191660, Note_off_c, 10, 69, 127
2, 191660, Note_off_c, 1, 73, 127
2, 191660, Note_off_c, 4, 76, 127
2, 191660, Note_off_c, 7, 79, 127
2, 191661, Note_off_c, 12, 47, 127
2, 191664, Note_on_c, 10, 45, 127
2, 191664, Note_on_c, 1, 73, 127
2, 191664, Note_on_c, 10, 69, 127
2, 191664, Note_on_c, 7, 79, 127
2, 191664, Note_on_c, 4, 76, 127
2, 191816, Note_off_c, 10, 45, 127
2, 191820, Note_on_c, 7, 43, 127
2, 191971, Note_off_c, 4, 76, 127
2, 191971, Note_off_c, 7, 79, 127
2, 191971, Note_off_c, 10, 69, 127
2, 191971, Note_off_c, 1, 73, 127
2, 191972, Note_off_c, 7, 43, 127
2, 191975, Note_on_c, 6, 42, 127
2, 191975, Note_on_c, 7, 79, 127
2, 191975, Note_on_c, 4, 76, 127
2, 191975, Note_on_c, 1, 73, 127
2, 191975, Note_on_c, 10, 69, 127
2, 192127, Note_off_c, 6, 42, 127
2, 192131, Note_on_c, 4, 40, 127
2, 192282, Note_off_c, 10, 69, 127
2, 192282, Note_off_c, 1, 73, 127
2, 192282, Note_off_c, 4, 76, 127
2, 192282, Note_off_c, 7, 79, 127
2, 192283, Note_off_c, 4, 40, 127
2, 192286, Note_on_c, 2, 38, 127
2, 192286, Note_on_c, 1, 73, 127
2, 192286, Note_on_c, 10, 69, 127
2, 192286, Note_on_c, 7, 79, 127
2, 192286, Note_on_c, 4, 76, 127
2, 192593, Note_off_c, 4, 76, 127
2, 192593, Note_off_c, 7, 79, 127
2, 192593, Note_off_c, 10, 69, 127
2, 192593, Note_off_c, 1, 73, 127
2, 192593, Note_off_c, 2, 38, 127
2, 192597, Note_on_c, 0, 60, 127
2, 192597, Note_on_c, 10, 69, 127
2, 192597, Note_on_c, 6, 78, 127
2, 192597, Note_on_c, 2, 74, 127
2, 192749, Note_off_c, 0, 60, 127
2, 192753, Note_on_c, 11, 58, 127
2, 192904, Note_off_c, 2, 74, 127
2, 192904, Note_off_c, 6, 78, 127
2, 192904, Note_off_c, 10, 69, 127
2, 192905, Note_off_c, 11, 58, 127
2, 192908, Note_on_c, 10, 57, 127
2, 192908, Note_on_c, 6, 78, 127
2, 192908, Note_on_c, 2, 74, 127
2, 192908, Note_on_c, 10, 69, 127
2, 193060, Note_off_c, 10, 57, 127
2, 193064, Note_on_c, 7, 55, 127
2, 193215, Note_off_c, 10, 69, 127
2, 193215, Note_off_c, 2, 74, 127
2, 193215, Note_off_c, 6, 78, 127
2, 193216, Note_off_c, 7, 55, 127
2, 193219, Note_on_c, 6, 54, 127
2, 193219, Note_on_c, 2, 74, 127
2, 193219, Note_on_c, 0, 72, 127
2, 193219, Note_on_c, 10, 81, 127
2, 193371, Note_off_c, 6, 54, 127
2, 193375, Note_on_c, 4, 52, 127
2, 193526, Note_off_c, 10, 81, 127
2, 193526, Note_off_c, 0, 72, 127
2, 193526, Note_off_c, 2, 74, 127
2, 193527, Note_off_c, 4, 52, 127
2, 193530, Note_on_c, 2, 50, 127
2, 193530, Note_on_c, 0, 72, 127
2, 193530, Note_on_c, 10, 81, 127
2, 193530, Note_on_c, 2, 74, 127
2, 193682, Note_off_c, 2, 50, 127
2, 193686, Note_on_c, 0, 48, 127
2, 193837, Note_off_c, 2, 74, 127
2, 193837, Note_off_c, 10, 81, 127
2, 193837, Note_off_c, 0, 72, 127
2, 193838, Note_off_c, 0, 48, 127
2, 193841, Note_on_c, 11, 46, 127
2, 193841, Note_on_c, 10, 81, 127
2, 193841, Note_on_c, 0, 72, 127
2, 193841, Note_on_c, 2, 74, 127
2, 193993, Note_off_c, 11, 46, 127
2, 193997, Note_on_c, 10, 45, 127
2, 194148, Note_off_c, 2, 74, 127
2, 194148, Note_off_c, 0, 72, 127
2, 194148, Note_off_c, 10, 81, 127
2, 194149, Note_off_c, 10, 45, 127
2, 194152, Note_on_c, 7, 43, 127
2, 194152, Note_on_c, 10, 81, 127
2, 194152, Note_on_c, 2, 74, 127
2, 194152, Note_on_c, 0, 72, 127
2, 194309, Note_off_c, 7, 43, 127
2, 194313, Note_on_c, 6, 42, 127
2, 194469, Note_off_c, 0, 72, 127
2, 194469, Note_off_c, 10, 81, 127
2, 194470, Note_off_c, 6, 42, 127
2, 194473, Note_on_c, 7, 43, 127
2, 194473, Note_on_c, 7, 79, 127
2, 194473, Note_on_c, 11, 70, 127
2, 194630, Note_off_c, 7, 43, 127
2, 194634, Note_on_c, 10, 45, 127
2, 194787, Note_off_c, 2, 74, 127
2, 194790, Note_off_c, 11, 70, 127
2, 194790, Note_off_c, 7, 79, 127
2, 194791, Note_off_c, 10, 45, 127
2, 194794, Note_on_c, 11, 46, 127
2, 194794, Note_on_c, 5, 77, 127
2, 194794, Note_on_c, 10, 69, 127
2, 194794, Note_on_c, 2, 74, 127
2, 194951, Note_off_c, 11, 46, 127
2, 194954, Note_on_c, 7, 43, 127
2, 195111, Note_off_c, 7, 43, 127
2, 195111, Note_off_c, 2, 74, 127
2, 195111, Note_off_c, 10, 69, 127
2, 195111, Note_off_c, 5, 77, 127
2, 195115, Note_on_c, 0, 48, 127
2, 195115, Note_on_c, 0, 72, 127
2, 195115, Note_on_c, 7, 67, 127
2, 195115, Note_on_c, 3, 75, 127
2, 195273, Note_off_c, 0, 48, 127
2, 195277, Note_on_c, 11, 46, 127
2, 195435, Note_off_c, 11, 46, 127
2, 195435, Note_off_c, 3, 75, 127
2, 195435, Note_off_c, 0, 72, 127
2, 195439, Note_on_c, 0, 48, 127
2, 195439, Note_on_c, 11, 70, 127
2, 195439, Note_on_c, 2, 74, 127
2, 195597, Note_off_c, 0, 48, 127
2, 195601, Note_on_c, 2, 50, 127
2, 195759, Note_off_c, 2, 50, 127
2, 195759, Note_off_c, 2, 74, 127
2, 195759, Note_off_c, 11, 70, 127
2, 195763, Note_on_c, 3, 51, 127
2, 195763, Note_on_c, 10, 69, 127
2, 195763, Note_on_c, 0, 72, 127
2, 195921, Note_off_c, 3, 51, 127
2, 195925, Note_on_c, 0, 48, 127
2, 196083, Note_off_c, 0, 48, 127
2, 196083, Note_off_c, 0, 72, 127
2, 196083, Note_off_c, 10, 69, 127
2, 196085, Note_off_c, 7, 67, 127
2, 196087, Note_on_c, 2, 50, 127
2, 196087, Note_on_c, 6, 66, 127
2, 196171, Note_on_c, 10, 69, 127
2, 196252, Note_off_c, 2, 50, 127
2, 196255, Note_on_c, 4, 52, 127
2, 196255, Note_on_c, 0, 72, 127
2, 196420, Note_off_c, 4, 52, 127
2, 196424, Note_on_c, 6, 54, 127
2, 196588, Note_off_c, 0, 72, 127
2, 196589, Note_off_c, 6, 54, 127
2, 196589, Note_off_c, 6, 66, 127
2, 196592, Note_on_c, 2, 50, 127
2, 196592, Note_on_c, 2, 74, 127
2, 196750, Note_off_c, 10, 69, 127
2, 196757, Note_off_c, 2, 74, 127
2, 196757, Note_off_c, 2, 50, 127
2, 196761, Note_on_c, 7, 55, 127
2, 196761, Note_on_c, 2, 62, 127
2, 196761, Note_on_c, 11, 70, 127
2, 196761, Note_on_c, 7, 67, 127
2, 197122, Note_off_c, 7, 55, 127
2, 197125, Note_on_c, 0, 48, 127
2, 197303, Note_off_c, 7, 67, 127
2, 197303, Note_off_c, 11, 70, 127
2, 197303, Note_off_c, 2, 62, 127
2, 197307, Note_on_c, 10, 69, 127
2, 197484, Note_off_c, 0, 48, 127
2, 197485, Note_off_c, 10, 69, 127
2, 197488, Note_on_c, 2, 50, 127
2, 197488, Note_on_c, 6, 66, 127
2, 197488, Note_on_c, 11, 70, 127
2, 197593, Note_off_c, 11, 70, 127
2, 197598, Note_on_c, 10, 69, 127
2, 197703, Note_off_c, 10, 69, 127
2, 197708, Note_on_c, 11, 70, 127
2, 197813, Note_off_c, 11, 70, 127
2, 197819, Note_on_c, 10, 69, 127
2, 197923, Note_off_c, 2, 50, 127
2, 197924, Note_off_c, 10, 69, 127
2, 197929, Note_on_c, 2, 38, 127
2, 197929, Note_on_c, 11, 70, 127
2, 198034, Note_off_c, 11, 70, 127
2, 198039, Note_on_c, 10, 69, 127
2, 198131, Note_off_c, 6, 66, 127
2, 198145, Note_off_c, 10, 69, 127
2, 198151, Note_on_c, 7, 67, 127
2, 198368, Note_off_c, 7, 67, 127
2, 198368, Note_off_c, 2, 38, 127
2, 198389, Note_on_c, 7, 67, 127
2, 198389, Note_on_c, 7, 43, 127
2, 200889, Note_off_c, 7, 43, 127
2, 200889, Note_off_c, 7, 67, 127
2, 202820, Note_on_c, 11, 70, 127
2, 203120, Note_off_c, 11, 70, 127
2, 203150, Note_on_c, 11, 70, 127
2, 203150, Note_on_c, 7, 67, 127
2, 203362, Note_on_c, 7, 43, 127
2, 203543, Note_off_c, 7, 43, 127
2, 203546, Note_on_c, 11, 46, 127
2, 203727, Note_off_c, 11, 46, 127
2, 203731, Note_on_c, 2, 50, 127
2, 203912, Note_off_c, 2, 50, 127
2, 203916, Note_on_c, 7, 55, 127
2, 203919, Note_off_c, 7, 67, 127
2, 204097, Note_off_c, 7, 55, 127
2, 204100, Note_on_c, 11, 58, 127
2, 204100, Note_on_c, 7, 79, 127
2, 204107, Note_off_c, 11, 70, 127
2, 204281, Note_off_c, 7, 79, 127
2, 204281, Note_off_c, 11, 58, 127
2, 204285, Note_on_c, 10, 57, 127
2, 204285, Note_on_c, 6, 78, 127
2, 204466, Note_off_c, 6, 78, 127
2, 204466, Note_off_c, 10, 57, 127
2, 204470, Note_on_c, 7, 55, 127
2, 204470, Note_on_c, 7, 79, 127
2, 204651, Note_off_c, 7, 79, 127
2, 204651, Note_off_c, 7, 55, 127
2, 204654, Note_on_c, 6, 54, 127
2, 204654, Note_on_c, 0, 72, 127
2, 204654, Note_on_c, 10, 69, 127
2, 204835, Note_off_c, 6, 54, 127
2, 204839, Note_on_c, 7, 55, 127
2, 205020, Note_off_c, 7, 55, 127
2, 205024, Note_on_c, 10, 57, 127
2, 205205, Note_off_c, 10, 57, 127
2, 205208, Note_on_c, 3, 51, 127
2, 205386, Note_off_c, 10, 69, 127
2, 205389, Note_off_c, 3, 51, 127
2, 205393, Note_on_c, 2, 50, 127
2, 205574, Note_off_c, 2, 50, 127
2, 205574, Note_off_c, 0, 72, 127
2, 205578, Note_on_c, 0, 48, 127
2, 205578, Note_on_c, 10, 81, 127
2, 205759, Note_off_c, 10, 81, 127
2, 205759, Note_off_c, 0, 48, 127
2, 205762, Note_on_c, 11, 46, 127
2, 205762, Note_on_c, 7, 79, 127
2, 205943, Note_off_c, 7, 79, 127
2, 205943, Note_off_c, 11, 46, 127
2, 205947, Note_on_c, 10, 45, 127
2, 205947, Note_on_c, 10, 81, 127
2, 206128, Note_off_c, 10, 81, 127
2, 206128, Note_off_c, 10, 45, 127
2, 206132, Note_on_c, 11, 46, 127
2, 206132, Note_on_c, 2, 74, 127
2, 206313, Note_off_c, 2, 74, 127
2, 206317, Note_on_c, 7, 67, 127
2, 206498, Note_off_c, 7, 67, 127
2, 206501, Note_on_c, 11, 70, 127
2, 206682, Note_off_c, 11, 70, 127
2, 206686, Note_on_c, 2, 74, 127
2, 206867, Note_off_c, 2, 74, 127
2, 206871, Note_on_c, 7, 79, 127
2, 207052, Note_off_c, 7, 79, 127
2, 207052, Note_off_c, 11, 46, 127
2, 207055, Note_on_c, 2, 50, 127
2, 207055, Note_on_c, 11, 82, 127
2, 207236, Note_off_c, 11, 82, 127
2, 207236, Note_off_c, 2, 50, 127
2, 207240, Note_on_c, 0, 48, 127
2, 207240, Note_on_c, 10, 81, 127
2, 207421, Note_off_c, 10, 81, 127
2, 207421, Note_off_c, 0, 48, 127
2, 207425, Note_on_c, 3, 51, 127
2, 207425, Note_on_c, 7, 79, 127
2, 207606, Note_off_c, 7, 79, 127
2, 207606, Note_off_c, 3, 51, 127
2, 207609, Note_on_c, 2, 50, 127
2, 207609, Note_on_c, 6, 78, 127
2, 207790, Note_off_c, 6, 78, 127
2, 207794, Note_on_c, 7, 79, 127
2, 207975, Note_off_c, 7, 79, 127
2, 207979, Note_on_c, 10, 81, 127
2, 208160, Note_off_c, 10, 81, 127
2, 208163, Note_on_c, 3, 75, 127
2, 208344, Note_off_c, 3, 75, 127
2, 208348, Note_on_c, 2, 74, 127
2, 208529, Note_off_c, 2, 74, 127
2, 208529, Note_off_c, 2, 50, 127
2, 208533, Note_on_c, 4, 52, 127
2, 208533, Note_on_c, 0, 72, 127
2, 208714, Note_off_c, 0, 72, 127
2, 208714, Note_off_c, 4, 52, 127
2, 208717, Note_on_c, 6, 54, 127
2, 208717, Note_on_c, 11, 70, 127
2, 208898, Note_off_c, 11, 70, 127
2, 208898, Note_off_c, 6, 54, 127
2, 208902, Note_on_c, 2, 50, 127
2, 208902, Note_on_c, 10, 69, 127
2, 209083, Note_off_c, 10, 69, 127
2, 209083, Note_off_c, 2, 50, 127
2, 209087, Note_on_c, 7, 55, 127
2, 209087, Note_on_c, 11, 70, 127
2, 209273, Note_on_c, 7, 67, 127
2, 209454, Note_off_c, 7, 67, 127
2, 209458, Note_on_c, 5, 65, 127
2, 209639, Note_off_c, 5, 65, 127
2, 209642, Note_on_c, 2, 62, 127
2, 209823, Note_off_c, 2, 62, 127
2, 209827, Note_on_c, 3, 63, 127
2, 210013, Note_off_c, 11, 70, 127
2, 210013, Note_on_c, 11, 70, 127
2, 210194, Note_off_c, 11, 70, 127
2, 210195, Note_off_c, 7, 55, 127
2, 210198, Note_on_c, 3, 51, 127
2, 210198, Note_on_c, 0, 72, 127
2, 210379, Note_off_c, 0, 72, 127
2, 210383, Note_on_c, 3, 75, 127
2, 210564, Note_off_c, 3, 75, 127
2, 210564, Note_off_c, 3, 51, 127
2, 210567, Note_on_c, 5, 53, 127
2, 210567, Note_on_c, 10, 69, 127
2, 210753, Note_off_c, 3, 63, 127
2, 210754, Note_on_c, 5, 65, 127
2, 210935, Note_off_c, 5, 65, 127
2, 210938, Note_on_c, 3, 63, 127
2, 211119, Note_off_c, 3, 63, 127
2, 211123, Note_on_c, 0, 60, 127
2, 211304, Note_off_c, 0, 60, 127
2, 211308, Note_on_c, 2, 62, 127
2, 211493, Note_off_c, 10, 69, 127
2, 211494, Note_on_c, 10, 69, 127
2, 211675, Note_off_c, 10, 69, 127
2, 211675, Note_off_c, 5, 53, 127
2, 211679, Note_on_c, 2, 50, 127
2, 211679, Note_on_c, 11, 70, 127
2, 211860, Note_off_c, 11, 70, 127
2, 211863, Note_on_c, 2, 74, 127
2, 212044, Note_off_c, 2, 74, 127
2, 212045, Note_off_c, 2, 50, 127
2, 212048, Note_on_c, 3, 51, 127
2, 212048, Note_on_c, 7, 67, 127
2, 212234, Note_off_c, 2, 62, 127
2, 212234, Note_on_c, 3, 63, 127
2, 212415, Note_off_c, 3, 63, 127
2, 212419, Note_on_c, 2, 62, 127
2, 212600, Note_off_c, 2, 62, 127
2, 212604, Note_on_c, 11, 58, 127
2, 212785, Note_off_c, 11, 58, 127
2, 212788, Note_on_c, 0, 60, 127
2, 212974, Note_off_c, 7, 67, 127
2, 212975, Note_on_c, 7, 67, 127
2, 213156, Note_off_c, 7, 67, 127
2, 213156, Note_off_c, 3, 51, 127
2, 213159, Note_on_c, 0, 48, 127
2, 213159, Note_on_c, 10, 69, 127
2, 213340, Note_off_c, 10, 69, 127
2, 213344, Note_on_c, 0, 72, 127
2, 213525, Note_off_c, 0, 72, 127
2, 213525, Note_off_c, 0, 48, 127
2, 213529, Note_on_c, 2, 50, 127
2, 213529, Note_on_c, 6, 66, 127
2, 213710, Note_off_c, 6, 66, 127
2, 213713, Note_on_c, 10, 69, 127
2, 213894, Note_off_c, 10, 69, 127
2, 213896, Note_off_c, 0, 60, 127
2, 213898, Note_on_c, 10, 57, 127
2, 213898, Note_on_c, 0, 72, 127
2, 214079, Note_off_c, 0, 72, 127
2, 214083, Note_on_c, 2, 74, 127
2, 214264, Note_off_c, 2, 74, 127
2, 214264, Note_off_c, 10, 57, 127
2, 214267, Note_on_c, 11, 58, 127
2, 214267, Note_on_c, 7, 67, 127
2, 214448, Note_off_c, 7, 67, 127
2, 214452, Note_on_c, 11, 70, 127
2, 214633, Note_off_c, 11, 70, 127
2, 214633, Note_off_c, 11, 58, 127
2, 214637, Note_on_c, 7, 55, 127
2, 214637, Note_on_c, 2, 74, 127
2, 214818, Note_off_c, 2, 74, 127
2, 214822, Note_on_c, 3, 75, 127
2, 215003, Note_off_c, 3, 75, 127
2, 215003, Note_off_c, 7, 55, 127
2, 215006, Note_on_c, 6, 54, 127
2, 215006, Note_on_c, 10, 69, 127
2, 215187, Note_off_c, 10, 69, 127
2, 215191, Note_on_c, 0, 72, 127
2, 215372, Note_off_c, 0, 72, 127
2, 215372, Note_off_c, 6, 54, 127
2, 215375, Note_off_c, 2, 50, 127
2, 215376, Note_on_c, 0, 48, 127
2, 215376, Note_on_c, 10, 57, 127
2, 215376, Note_on_c, 2, 74, 127
2, 215557, Note_off_c, 2, 74, 127
2, 215560, Note_on_c, 6, 78, 127
2, 215741, Note_off_c, 6, 78, 127
2, 215742, Note_off_c, 10, 57, 127
2, 215742, Note_off_c, 0, 48, 127
2, 215745, Note_on_c, 11, 46, 127
2, 215745, Note_on_c, 2, 50, 127
2, 215745, Note_on_c, 11, 70, 127
2, 215926, Note_off_c, 11, 70, 127
2, 215930, Note_on_c, 2, 74, 127
2, 216111, Note_off_c, 2, 74, 127
2, 216111, Note_off_c, 11, 46, 127
2, 216114, Note_on_c, 7, 43, 127
2, 216114, Note_on_c, 6, 78, 127
2, 216295, Note_off_c, 6, 78, 127
2, 216299, Note_on_c, 7, 79, 127
2, 216480, Note_off_c, 7, 79, 127
2, 216480, Note_off_c, 7, 43, 127
2, 216484, Note_on_c, 2, 38, 127
2, 216484, Note_on_c, 10, 81, 127
2, 216665, Note_off_c, 10, 81, 127
2, 216668, Note_on_c, 7, 79, 127
2, 216849, Note_off_c, 7, 79, 127
2, 216850, Note_off_c, 2, 38, 127
2, 216851, Note_off_c, 2, 50, 127
2, 216853, Note_on_c, 2, 62, 127
2, 216853, Note_on_c, 6, 78, 127
2, 217034, Note_off_c, 6, 78, 127
2, 217038, Note_on_c, 4, 76, 127
2, 217219, Note_off_c, 4, 76, 127
2, 217222, Note_on_c, 2, 74, 127
2, 217403, Note_off_c, 2, 74, 127
2, 217403, Note_off_c, 2, 62, 127
2, 217407, Note_on_c, 0, 60, 127
2, 217407, Note_on_c, 3, 75, 127
2, 217588, Note_off_c, 3, 75, 127
2, 217588, Note_off_c, 0, 60, 127
2, 217592, Note_on_c, 12, 59, 127
2, 217592, Note_on_c, 5, 77, 127
2, 217681, Note_off_c, 5, 77, 127
2, 217684, Note_on_c, 3, 75, 127
2, 217773, Note_off_c, 3, 75, 127
2, 217773, Note_off_c, 12, 59, 127
2, 217776, Note_on_c, 10, 57, 127
2, 217776, Note_on_c, 2, 74, 127
2, 217865, Note_off_c, 2, 74, 127
2, 217869, Note_on_c, 3, 75, 127
2, 217957, Note_off_c, 10, 57, 127
2, 217958, Note_off_c, 3, 75, 127
2, 217961, Note_on_c, 7, 55, 127
2, 217961, Note_on_c, 12, 71, 127
2, 218053, Note_on_c, 2, 74, 127
2, 218142, Note_off_c, 7, 55, 127
2, 218146, Note_on_c, 2, 50, 127
2, 218146, Note_on_c, 5, 77, 127
2, 218327, Note_off_c, 2, 50, 127
2, 218330, Note_on_c, 7, 55, 127
2, 218511, Note_off_c, 7, 55, 127
2, 218515, Note_on_c, 12, 59, 127
2, 218696, Note_off_c, 12, 59, 127
2, 218700, Note_on_c, 2, 62, 127
2, 218871, Note_off_c, 2, 74, 127
2, 218881, Note_off_c, 2, 62, 127
2, 218884, Note_off_c, 12, 71, 127
2, 218884, Note_on_c, 3, 63, 127
2, 218884, Note_on_c, 0, 72, 127
2, 219065, Note_off_c, 0, 72, 127
2, 219065, Note_off_c, 3, 63, 127
2, 219069, Note_on_c, 2, 62, 127
2, 219069, Note_on_c, 2, 74, 127
2, 219158, Note_off_c, 2, 74, 127
2, 219161, Note_on_c, 0, 72, 127
2, 219250, Note_off_c, 0, 72, 127
2, 219250, Note_off_c, 2, 62, 127
2, 219252, Note_off_c, 5, 77, 127
2, 219254, Note_on_c, 0, 60, 127
2, 219254, Note_on_c, 12, 71, 127
2, 219343, Note_off_c, 12, 71, 127
2, 219346, Note_on_c, 0, 72, 127
2, 219435, Note_off_c, 0, 72, 127
2, 219435, Note_off_c, 0, 60, 127
2, 219439, Note_on_c, 12, 59, 127
2, 219439, Note_on_c, 2, 74, 127
2, 219620, Note_off_c, 2, 74, 127
2, 219620, Note_off_c, 12, 59, 127
2, 219623, Note_on_c, 0, 60, 127
2, 219623, Note_on_c, 3, 75, 127
2, 219804, Note_off_c, 3, 75, 127
2, 219804, Note_off_c, 0, 60, 127
2, 219808, Note_on_c, 2, 62, 127
2, 219808, Note_on_c, 5, 77, 127
2, 219897, Note_off_c, 5, 77, 127
2, 219900, Note_on_c, 3, 75, 127
2, 219989, Note_off_c, 3, 75, 127
2, 219989, Note_off_c, 2, 62, 127
2, 219993, Note_on_c, 8, 56, 127
2, 219993, Note_on_c, 2, 74, 127
2, 220082, Note_off_c, 2, 74, 127
2, 220085, Note_on_c, 3, 75, 127
2, 220174, Note_off_c, 3, 75, 127
2, 220174, Note_off_c, 8, 56, 127
2, 220177, Note_on_c, 7, 55, 127
2, 220177, Note_on_c, 5, 77, 127
2, 220358, Note_off_c, 5, 77, 127
2, 220358, Note_off_c, 7, 55, 127
2, 220362, Note_on_c, 5, 53, 127
2, 220362, Note_on_c, 8, 80, 127
2, 220543, Note_off_c, 8, 80, 127
2, 220543, Note_off_c, 5, 53, 127
2, 220547, Note_on_c, 3, 51, 127
2, 220547, Note_on_c, 7, 79, 127
2, 220728, Note_off_c, 7, 79, 127
2, 220728, Note_off_c, 3, 51, 127
2, 220731, Note_on_c, 2, 50, 127
2, 220731, Note_on_c, 5, 77, 127
2, 220912, Note_off_c, 5, 77, 127
2, 220912, Note_off_c, 2, 50, 127
2, 220916, Note_on_c, 0, 48, 127
2, 220916, Note_on_c, 3, 75, 127
2, 221097, Note_off_c, 3, 75, 127
2, 221101, Note_on_c, 0, 72, 127
2, 221282, Note_off_c, 0, 72, 127
2, 221285, Note_on_c, 3, 75, 127
2, 221466, Note_off_c, 3, 75, 127
2, 221470, Note_on_c, 7, 79, 127
2, 221651, Note_off_c, 7, 79, 127
2, 221655, Note_on_c, 0, 84, 127
2, 221836, Note_off_c, 0, 84, 127
2, 221836, Note_off_c, 0, 48, 127
2, 221839, Note_on_c, 0, 48, 127
2, 221839, Note_on_c, 11, 82, 127
2, 222020, Note_off_c, 11, 82, 127
2, 222020, Note_off_c, 0, 48, 127
2, 222024, Note_on_c, 3, 51, 127
2, 222024, Note_on_c, 10, 81, 127
2, 222205, Note_off_c, 10, 81, 127
2, 222205, Note_off_c, 3, 51, 127
2, 222209, Note_on_c, 7, 55, 127
2, 222209, Note_on_c, 7, 79, 127
2, 222390, Note_off_c, 7, 79, 127
2, 222390, Note_off_c, 7, 55, 127
2, 222393, Note_on_c, 0, 60, 127
2, 222393, Note_on_c, 6, 78, 127
2, 222574, Note_off_c, 6, 78, 127
2, 222578, Note_on_c, 7, 79, 127
2, 222759, Note_off_c, 7, 79, 127
2, 222759, Note_off_c, 0, 60, 127
2, 222763, Note_on_c, 2, 50, 127
2, 222763, Note_on_c, 0, 48, 127
2, 222763, Note_on_c, 10, 81, 127
2, 222944, Note_off_c, 10, 81, 127
2, 222947, Note_on_c, 3, 75, 127
2, 223128, Note_off_c, 3, 75, 127
2, 223129, Note_off_c, 0, 48, 127
2, 223129, Note_off_c, 2, 50, 127
2, 223132, Note_on_c, 11, 46, 127
2, 223132, Note_on_c, 4, 52, 127
2, 223132, Note_on_c, 2, 74, 127
2, 223313, Note_off_c, 2, 74, 127
2, 223317, Note_on_c, 0, 72, 127
2, 223498, Note_off_c, 0, 72, 127
2, 223498, Note_off_c, 4, 52, 127
2, 223498, Note_off_c, 11, 46, 127
2, 223501, Note_on_c, 10, 45, 127
2, 223501, Note_on_c, 6, 54, 127
2, 223501, Note_on_c, 11, 70, 127
2, 223682, Note_off_c, 11, 70, 127
2, 223686, Note_on_c, 10, 69, 127
2, 223867, Note_off_c, 10, 69, 127
2, 223867, Note_off_c, 6, 54, 127
2, 223867, Note_off_c, 10, 45, 127
2, 223871, Note_on_c, 7, 43, 127
2, 223871, Note_on_c, 11, 70, 127
2, 224057, Note_on_c, 7, 55, 127
2, 224238, Note_off_c, 7, 55, 127
2, 224242, Note_on_c, 11, 58, 127
2, 224423, Note_off_c, 11, 58, 127
2, 224426, Note_on_c, 2, 62, 127
2, 224607, Note_off_c, 2, 62, 127
2, 224611, Note_on_c, 7, 67, 127
2, 224792, Note_off_c, 7, 67, 127
2, 224796, Note_on_c, 5, 65, 127
2, 224977, Note_off_c, 5, 65, 127
2, 224981, Note_on_c, 3, 63, 127
2, 225162, Note_off_c, 3, 63, 127
2, 225165, Note_on_c, 2, 62, 127
2, 225346, Note_off_c, 2, 62, 127
2, 225346, Note_off_c, 11, 70, 127
2, 225350, Note_on_c, 1, 61, 127
2, 225350, Note_on_c, 10, 69, 127
2, 225371, Note_off_c, 7, 43, 127
2, 225531, Note_off_c, 1, 61, 127
2, 225535, Note_on_c, 2, 62, 127
2, 225716, Note_off_c, 2, 62, 127
2, 225719, Note_on_c, 4, 64, 127
2, 225900, Note_off_c, 4, 64, 127
2, 225904, Note_on_c, 11, 58, 127
2, 226085, Note_off_c, 11, 58, 127
2, 226089, Note_on_c, 10, 57, 127
2, 226270, Note_off_c, 10, 57, 127
2, 226273, Note_on_c, 7, 55, 127
2, 226454, Note_off_c, 7, 55, 127
2, 226458, Note_on_c, 5, 53, 127
2, 226639, Note_off_c, 5, 53, 127
2, 226643, Note_on_c, 4, 52, 127
2, 226824, Note_off_c, 4, 52, 127
2, 226827, Note_on_c, 5, 41, 127
2, 226827, Note_on_c, 2, 50, 127
2, 227008, Note_off_c, 10, 69, 127
2, 227012, Note_on_c, 2, 62, 127
2, 227193, Note_off_c, 2, 62, 127
2, 227197, Note_on_c, 5, 65, 127
2, 227378, Note_off_c, 5, 65, 127
2, 227381, Note_on_c, 10, 69, 127
2, 227562, Note_off_c, 10, 69, 127
2, 227566, Note_on_c, 2, 74, 127
2, 227747, Note_off_c, 2, 74, 127
2, 227750, Note_off_c, 2, 50, 127
2, 227750, Note_off_c, 5, 41, 127
2, 227751, Note_on_c, 5, 77, 127
2, 227932, Note_off_c, 5, 77, 127
2, 227935, Note_on_c, 10, 57, 127
2, 227935, Note_on_c, 5, 53, 127
2, 227935, Note_on_c, 4, 76, 127
2, 228116, Note_off_c, 4, 76, 127
2, 228120, Note_on_c, 2, 74, 127
2, 228301, Note_off_c, 2, 74, 127
2, 228301, Note_off_c, 5, 53, 127
2, 228301, Note_off_c, 10, 57, 127
2, 228305, Note_on_c, 7, 55, 127
2, 228305, Note_on_c, 4, 52, 127
2, 228305, Note_on_c, 1, 73, 127
2, 228486, Note_off_c, 1, 73, 127
2, 228489, Note_on_c, 2, 74, 127
2, 228670, Note_off_c, 2, 74, 127
2, 228671, Note_off_c, 4, 52, 127
2, 228674, Note_on_c, 2, 50, 127
2, 228674, Note_on_c, 4, 76, 127
2, 228855, Note_off_c, 4, 76, 127
2, 228859, Note_on_c, 11, 70, 127
2, 229037, Note_off_c, 7, 55, 127
2, 229040, Note_off_c, 11, 70, 127
2, 229040, Note_off_c, 2, 50, 127
2, 229043, Note_on_c, 1, 49, 127
2, 229043, Note_on_c, 4, 52, 127
2, 229043, Note_on_c, 10, 69, 127
2, 229224, Note_off_c, 10, 69, 127
2, 229228, Note_on_c, 7, 67, 127
2, 229409, Note_off_c, 7, 67, 127
2, 229409, Note_off_c, 1, 49, 127
2, 229413, Note_on_c, 10, 45, 127
2, 229413, Note_on_c, 5, 65, 127
2, 229594, Note_off_c, 5, 65, 127
2, 229598, Note_on_c, 4, 64, 127
2, 229775, Note_off_c, 4, 52, 127
2, 229779, Note_off_c, 4, 64, 127
2, 229779, Note_off_c, 10, 45, 127
2, 229782, Note_on_c, 2, 50, 127
2, 229782, Note_on_c, 6, 66, 127
2, 229963, Note_off_c, 6, 66, 127
2, 229967, Note_on_c, 7, 67, 127
2, 230148, Note_off_c, 7, 67, 127
2, 230148, Note_off_c, 2, 50, 127
2, 230152, Note_on_c, 0, 48, 127
2, 230152, Note_on_c, 10, 69, 127
2, 230333, Note_off_c, 10, 69, 127
2, 230336, Note_on_c, 3, 63, 127
2, 230517, Note_off_c, 3, 63, 127
2, 230518, Note_off_c, 0, 48, 127
2, 230521, Note_on_c, 11, 46, 127
2, 230521, Note_on_c, 2, 62, 127
2, 230702, Note_off_c, 2, 62, 127
2, 230706, Note_on_c, 0, 60, 127
2, 230887, Note_off_c, 0, 60, 127
2, 230887, Note_off_c, 11, 46, 127
2, 230890, Note_on_c, 10, 45, 127
2, 230890, Note_on_c, 11, 58, 127
2, 231071, Note_off_c, 11, 58, 127
2, 231075, Note_on_c, 10, 57, 127
2, 231256, Note_off_c, 10, 57, 127
2, 231256, Note_off_c, 10, 45, 127
2, 231260, Note_on_c, 7, 43, 127
2, 231260, Note_on_c, 11, 58, 127
2, 231441, Note_off_c, 11, 58, 127
2, 231444, Note_on_c, 0, 60, 127
2, 231625, Note_off_c, 0, 60, 127
2, 231626, Note_off_c, 7, 43, 127
2, 231629, Note_on_c, 2, 62, 127
2, 231629, Note_on_c, 5, 41, 127
2, 231810, Note_off_c, 2, 62, 127
2, 231814, Note_on_c, 8, 56, 127
2, 231995, Note_off_c, 8, 56, 127
2, 231995, Note_off_c, 5, 41, 127
2, 231998, Note_on_c, 7, 55, 127
2, 231998, Note_on_c, 3, 39, 127
2, 232179, Note_off_c, 7, 55, 127
2, 232183, Note_on_c, 5, 53, 127
2, 232364, Note_off_c, 5, 53, 127
2, 232364, Note_off_c, 3, 39, 127
2, 232368, Note_on_c, 3, 51, 127
2, 232368, Note_on_c, 2, 38, 127
2, 232549, Note_off_c, 3, 51, 127
2, 232552, Note_on_c, 2, 50, 127
2, 232733, Note_off_c, 2, 50, 127
2, 232734, Note_off_c, 2, 38, 127
2, 232737, Note_on_c, 4, 40, 127
2, 232737, Note_on_c, 1, 49, 127
2, 232918, Note_off_c, 1, 49, 127
2, 232922, Note_on_c, 2, 50, 127
2, 233103, Note_off_c, 2, 50, 127
2, 233106, Note_on_c, 4, 52, 127
2, 233276, Note_off_c, 4, 40, 127
2, 233287, Note_off_c, 4, 52, 127
2, 233291, Note_on_c, 11, 46, 127
2, 233472, Note_off_c, 11, 46, 127
2, 233476, Note_on_c, 10, 45, 127
2, 233657, Note_off_c, 10, 45, 127
2, 233660, Note_on_c, 7, 43, 127
2, 233841, Note_off_c, 7, 43, 127
2, 233845, Note_on_c, 5, 41, 127
2, 233845, Note_on_c, 2, 74, 127
2, 233934, Note_off_c, 2, 74, 127
2, 233938, Note_on_c, 1, 73, 127
2, 234026, Note_off_c, 5, 41, 127
2, 234027, Note_off_c, 1, 73, 127
2, 234030, Note_on_c, 4, 40, 127
2, 234030, Note_on_c, 12, 71, 127
2, 234119, Note_off_c, 12, 71, 127
2, 234122, Note_on_c, 1, 73, 127
2, 234211, Note_off_c, 1, 73, 127
2, 234211, Note_off_c, 4, 40, 127
2, 234215, Note_on_c, 5, 41, 127
2, 234215, Note_on_c, 2, 74, 127
2, 234401, Note_on_c, 4, 76, 127
2, 234582, Note_off_c, 4, 76, 127
2, 234582, Note_off_c, 5, 41, 127
2, 234586, Note_on_c, 7, 43, 127
2, 234586, Note_on_c, 5, 77, 127
2, 234767, Note_off_c, 5, 77, 127
2, 234770, Note_on_c, 11, 82, 127
2, 234948, Note_off_c, 2, 74, 127
2, 234951, Note_off_c, 11, 82, 127
2, 234952, Note_off_c, 7, 43, 127
2, 234955, Note_on_c, 10, 45, 127
2, 234955, Note_on_c, 1, 73, 127
2, 234955, Note_on_c, 5, 77, 127
2, 235115, Note_off_c, 5, 77, 127
2, 235127, Note_on_c, 4, 76, 127
2, 235200, Note_on_c, 5, 77, 127
2, 235216, Note_off_c, 4, 76, 127
2, 235272, Note_on_c, 4, 76, 127
2, 235289, Note_off_c, 5, 77, 127
2, 235321, Note_off_c, 10, 45, 127
2, 235324, Note_on_c, 10, 45, 127
2, 235344, Note_on_c, 5, 77, 127
2, 235361, Note_off_c, 4, 76, 127
2, 235417, Note_on_c, 4, 76, 127
2, 235433, Note_off_c, 5, 77, 127
2, 235506, Note_off_c, 4, 76, 127
2, 235509, Note_on_c, 2, 74, 127
2, 235687, Note_off_c, 1, 73, 127
2, 235690, Note_off_c, 2, 74, 127
2, 235690, Note_off_c, 10, 45, 127
2, 235694, Note_on_c, 2, 38, 127
2, 235694, Note_on_c, 2, 74, 127
2, 235875, Note_off_c, 2, 74, 127
2, 235878, Note_on_c, 0, 72, 127
2, 236059, Note_off_c, 0, 72, 127
2, 236063, Note_on_c, 11, 70, 127
2, 236244, Note_off_c, 11, 70, 127
2, 236248, Note_on_c, 10, 69, 127
2, 236426, Note_off_c, 2, 38, 127
2, 236429, Note_off_c, 10, 69, 127
2, 236432, Note_on_c, 7, 67, 127
2, 236619, Note_on_c, 10, 69, 127
2, 236800, Note_off_c, 10, 69, 127
2, 236803, Note_on_c, 11, 70, 127
2, 236990, Note_on_c, 1, 61, 127
2, 237167, Note_off_c, 7, 67, 127
2, 237170, Note_off_c, 11, 70, 127
2, 237171, Note_off_c, 1, 61, 127
2, 237174, Note_on_c, 2, 62, 127
2, 237174, Note_on_c, 6, 66, 127
2, 237267, Note_on_c, 10, 69, 127
2, 237359, Note_on_c, 6, 54, 127
2, 237359, Note_on_c, 2, 74, 127
2, 237540, Note_off_c, 6, 54, 127
2, 237544, Note_on_c, 7, 55, 127
2, 237725, Note_off_c, 7, 55, 127
2, 237728, Note_on_c, 10, 57, 127
2, 237909, Note_off_c, 10, 57, 127
2, 237913, Note_on_c, 2, 50, 127
2, 238282, Note_off_c, 6, 66, 127
2, 238282, Note_off_c, 2, 62, 127
2, 238375, Note_off_c, 10, 69, 127
2, 238465, Note_off_c, 2, 74, 127
2, 238469, Note_on_c, 10, 69, 127
2, 238650, Note_off_c, 10, 69, 127
2, 238650, Note_off_c, 2, 50, 127
2, 238653, Note_on_c, 2, 50, 127
2, 238653, Note_on_c, 10, 69, 127
2, 238834, Note_off_c, 10, 69, 127
2, 238838, Note_on_c, 10, 81, 127
2, 239019, Note_off_c, 10, 81, 127
2, 239023, Note_on_c, 6, 78, 127
2, 239204, Note_off_c, 6, 78, 127
2, 239207, Note_on_c, 2, 74, 127
2, 239388, Note_off_c, 2, 74, 127
2, 239392, Note_on_c, 10, 69, 127
2, 239573, Note_off_c, 10, 69, 127
2, 239573, Note_off_c, 2, 50, 127
2, 239577, Note_on_c, 10, 57, 127
2, 239577, Note_on_c, 6, 66, 127
2, 239758, Note_off_c, 6, 66, 127
2, 239758, Note_off_c, 10, 57, 127
2, 239761, Note_on_c, 11, 58, 127
2, 239761, Note_on_c, 7, 67, 127
2, 239942, Note_off_c, 7, 67, 127
2, 239942, Note_off_c, 11, 58, 127
2, 239946, Note_on_c, 0, 60, 127
2, 239946, Note_on_c, 10, 69, 127
2, 240127, Note_off_c, 10, 69, 127
2, 240127, Note_off_c, 0, 60, 127
2, 240131, Note_on_c, 5, 53, 127
2, 240131, Note_on_c, 12, 71, 127
2, 240312, Note_off_c, 12, 71, 127
2, 240315, Note_on_c, 10, 69, 127
2, 240496, Note_off_c, 10, 69, 127
2, 240497, Note_off_c, 5, 53, 127
2, 240500, Note_on_c, 3, 51, 127
2, 240500, Note_on_c, 0, 60, 127
2, 240500, Note_on_c, 7, 67, 127
2, 240681, Note_off_c, 7, 67, 127
2, 240685, Note_on_c, 0, 72, 127
2, 240866, Note_off_c, 0, 72, 127
2, 240866, Note_off_c, 3, 51, 127
2, 240869, Note_on_c, 5, 53, 127
2, 240869, Note_on_c, 2, 74, 127
2, 241050, Note_off_c, 2, 74, 127
2, 241054, Note_on_c, 3, 75, 127
2, 241232, Note_off_c, 0, 60, 127
2, 241235, Note_off_c, 3, 75, 127
2, 241235, Note_off_c, 5, 53, 127
2, 241239, Note_on_c, 7, 55, 127
2, 241239, Note_on_c, 12, 59, 127
2, 241239, Note_on_c, 5, 77, 127
2, 241420, Note_off_c, 5, 77, 127
2, 241424, Note_on_c, 7, 79, 127
2, 241605, Note_off_c, 7, 79, 127
2, 241605, Note_off_c, 12, 59, 127
2, 241605, Note_off_c, 7, 55, 127
2, 241608, Note_on_c, 0, 48, 127
2, 241608, Note_on_c, 5, 77, 127
2, 241676, Note_on_c, 3, 75, 127
2, 241683, Note_off_c, 5, 77, 127
2, 241743, Note_on_c, 5, 77, 127
2, 241751, Note_off_c, 3, 75, 127
2, 241793, Note_on_c, 0, 60, 127
2, 241810, Note_on_c, 3, 75, 127
2, 241818, Note_off_c, 5, 77, 127
2, 241974, Note_off_c, 0, 60, 127
2, 241974, Note_off_c, 0, 48, 127
2, 241978, Note_on_c, 7, 55, 127
2, 241978, Note_on_c, 2, 74, 127
2, 241993, Note_off_c, 3, 75, 127
2, 242159, Note_off_c, 2, 74, 127
2, 242159, Note_off_c, 7, 55, 127
2, 242162, Note_on_c, 3, 51, 127
2, 242162, Note_on_c, 0, 72, 127
2, 242343, Note_off_c, 0, 72, 127
2, 242343, Note_off_c, 3, 51, 127
2, 242347, Note_on_c, 0, 48, 127
2, 242347, Note_on_c, 7, 79, 127
2, 242436, Note_off_c, 7, 79, 127
2, 242439, Note_on_c, 5, 77, 127
2, 242528, Note_off_c, 5, 77, 127
2, 242528, Note_off_c, 0, 48, 127
2, 242532, Note_on_c, 12, 47, 127
2, 242532, Note_on_c, 7, 79, 127
2, 242713, Note_off_c, 12, 47, 127
2, 242716, Note_on_c, 0, 48, 127
2, 242897, Note_off_c, 0, 48, 127
2, 242898, Note_off_c, 7, 79, 127
2, 242901, Note_on_c, 2, 50, 127
2, 242901, Note_on_c, 7, 79, 127
2, 243082, Note_off_c, 7, 79, 127
2, 243082, Note_off_c, 2, 50, 127
2, 243086, Note_on_c, 4, 52, 127
2, 243086, Note_on_c, 7, 79, 127
2, 243267, Note_off_c, 7, 79, 127
2, 243267, Note_off_c, 4, 52, 127
2, 243270, Note_on_c, 2, 50, 127
2, 243270, Note_on_c, 11, 70, 127
2, 243451, Note_off_c, 11, 70, 127
2, 243451, Note_off_c, 2, 50, 127
2, 243455, Note_on_c, 0, 48, 127
2, 243455, Note_on_c, 10, 69, 127
2, 243636, Note_off_c, 10, 69, 127
2, 243636, Note_off_c, 0, 48, 127
2, 243640, Note_on_c, 5, 53, 127
2, 243640, Note_on_c, 0, 72, 127
2, 243821, Note_off_c, 0, 72, 127
2, 243821, Note_off_c, 5, 53, 127
2, 243824, Note_on_c, 7, 55, 127
2, 243824, Note_on_c, 11, 70, 127
2, 244005, Note_off_c, 11, 70, 127
2, 244005, Note_off_c, 7, 55, 127
2, 244009, Note_on_c, 10, 57, 127
2, 244009, Note_on_c, 10, 69, 127
2, 244190, Note_off_c, 10, 69, 127
2, 244190, Note_off_c, 10, 57, 127
2, 244194, Note_on_c, 11, 58, 127
2, 244194, Note_on_c, 7, 67, 127
2, 244375, Note_off_c, 7, 67, 127
2, 244375, Note_off_c, 11, 58, 127
2, 244378, Note_on_c, 0, 60, 127
2, 244378, Note_on_c, 4, 76, 127
2, 244559, Note_off_c, 4, 76, 127
2, 244559, Note_off_c, 0, 60, 127
2, 244563, Note_on_c, 10, 57, 127
2, 244563, Note_on_c, 4, 76, 127
2, 244738, Note_on_c, 5, 77, 127
2, 244744, Note_off_c, 4, 76, 127
2, 244744, Note_off_c, 10, 57, 127
2, 244748, Note_on_c, 7, 55, 127
2, 244805, Note_on_c, 4, 76, 127
2, 244827, Note_off_c, 5, 77, 127
2, 244872, Note_on_c, 5, 77, 127
2, 244894, Note_off_c, 4, 76, 127
2, 244929, Note_off_c, 7, 55, 127
2, 244932, Note_on_c, 5, 53, 127
2, 245112, Note_off_c, 5, 77, 127
2, 245117, Note_on_c, 3, 75, 127
2, 245298, Note_off_c, 3, 75, 127
2, 245298, Note_off_c, 5, 53, 127
2, 245302, Note_on_c, 11, 58, 127
2, 245302, Note_on_c, 2, 74, 127
2, 245483, Note_off_c, 2, 74, 127
2, 245486, Note_on_c, 0, 72, 127
2, 245667, Note_off_c, 0, 72, 127
2, 245668, Note_off_c, 11, 58, 127
2, 245671, Note_on_c, 2, 50, 127
2, 245671, Note_on_c, 11, 70, 127
2, 245852, Note_off_c, 11, 70, 127
2, 245856, Note_on_c, 10, 69, 127
2, 246037, Note_off_c, 10, 69, 127
2, 246037, Note_off_c, 2, 50, 127
2, 246041, Note_on_c, 3, 51, 127
2, 246041, Note_on_c, 7, 67, 127
2, 246222, Note_off_c, 7, 67, 127
2, 246225, Note_on_c, 5, 65, 127
2, 246406, Note_off_c, 5, 65, 127
2, 246407, Note_off_c, 3, 51, 127
2, 246410, Note_on_c, 3, 39, 127
2, 246410, Note_on_c, 7, 67, 127
2, 246591, Note_off_c, 7, 67, 127
2, 246595, Note_on_c, 11, 70, 127
2, 246776, Note_off_c, 11, 70, 127
2, 246776, Note_off_c, 3, 39, 127
2, 246779, Note_on_c, 3, 51, 127
2, 246779, Note_on_c, 0, 72, 127
2, 246960, Note_off_c, 0, 72, 127
2, 246964, Note_on_c, 2, 74, 127
2, 247145, Note_off_c, 2, 74, 127
2, 247145, Note_off_c, 3, 51, 127
2, 247149, Note_on_c, 0, 48, 127
2, 247149, Note_on_c, 3, 75, 127
2, 247330, Note_off_c, 3, 75, 127
2, 247333, Note_on_c, 0, 72, 127
2, 247514, Note_off_c, 0, 72, 127
2, 247515, Note_off_c, 0, 48, 127
2, 247518, Note_on_c, 5, 53, 127
2, 247518, Note_on_c, 11, 70, 127
2, 247699, Note_off_c, 11, 70, 127
2, 247699, Note_off_c, 5, 53, 127
2, 247703, Note_on_c, 5, 41, 127
2, 247703, Note_on_c, 10, 69, 127
2, 247884, Note_off_c, 10, 69, 127
2, 247884, Note_off_c, 5, 41, 127
2, 247887, Note_on_c, 10, 45, 127
2, 247887, Note_on_c, 7, 67, 127
2, 248068, Note_off_c, 7, 67, 127
2, 248068, Note_off_c, 10, 45, 127
2, 248072, Note_on_c, 0, 48, 127
2, 248072, Note_on_c, 5, 65, 127
2, 248253, Note_off_c, 5, 65, 127
2, 248253, Note_off_c, 0, 48, 127
2, 248257, Note_on_c, 3, 51, 127
2, 248257, Note_on_c, 5, 77, 127
2, 248438, Note_off_c, 3, 51, 127
2, 248441, Note_on_c, 7, 55, 127
2, 248622, Note_off_c, 7, 55, 127
2, 248626, Note_on_c, 5, 53, 127
2, 248807, Note_off_c, 5, 53, 127
2, 248807, Note_off_c, 5, 77, 127
2, 248811, Note_on_c, 3, 51, 127
2, 248811, Note_on_c, 10, 69, 127
2, 248992, Note_off_c, 10, 69, 127
2, 248992, Note_off_c, 3, 51, 127
2, 248995, Note_on_c, 2, 50, 127
2, 248995, Note_on_c, 11, 70, 127
2, 249176, Note_off_c, 11, 70, 127
2, 249176, Note_off_c, 2, 50, 127
2, 249180, Note_on_c, 0, 48, 127
2, 249180, Note_on_c, 3, 75, 127
2, 249361, Note_off_c, 3, 75, 127
2, 249361, Note_off_c, 0, 48, 127
2, 249365, Note_on_c, 11, 46, 127
2, 249365, Note_on_c, 2, 74, 127
2, 249546, Note_off_c, 2, 74, 127
2, 249546, Note_off_c, 11, 46, 127
2, 249549, Note_on_c, 3, 51, 127
2, 249549, Note_on_c, 0, 72, 127
2, 249730, Note_off_c, 0, 72, 127
2, 249730, Note_off_c, 3, 51, 127
2, 249734, Note_on_c, 5, 53, 127
2, 249734, Note_on_c, 2, 74, 127
2, 249734, Note_on_c, 10, 69, 127
2, 249905, Note_off_c, 2, 74, 127
2, 249906, Note_on_c, 0, 72, 127
2, 249979, Note_on_c, 2, 74, 127
2, 249981, Note_off_c, 0, 72, 127
2, 250051, Note_on_c, 0, 72, 127
2, 250054, Note_off_c, 2, 74, 127
2, 250100, Note_off_c, 5, 53, 127
2, 250103, Note_on_c, 5, 41, 127
2, 250123, Note_on_c, 2, 74, 127
2, 250126, Note_off_c, 0, 72, 127
2, 250196, Note_on_c, 0, 72, 127
2, 250198, Note_off_c, 2, 74, 127
2, 250285, Note_off_c, 0, 72, 127
2, 250288, Note_on_c, 11, 70, 127
2, 250466, Note_off_c, 10, 69, 127
2, 250469, Note_off_c, 11, 70, 127
2, 250469, Note_off_c, 5, 41, 127
2, 250473, Note_on_c, 11, 46, 127
2, 250473, Note_on_c, 11, 70, 127
2, 250654, Note_off_c, 11, 46, 127
2, 250658, Note_on_c, 11, 58, 127
2, 250839, Note_off_c, 11, 58, 127
2, 250842, Note_on_c, 5, 53, 127
2, 251023, Note_off_c, 5, 53, 127
2, 251027, Note_on_c, 2, 50, 127
2, 251208, Note_off_c, 2, 50, 127
2, 251212, Note_on_c, 11, 46, 127
2, 251393, Note_off_c, 11, 46, 127
2, 251393, Note_off_c, 11, 70, 127
2, 251396, Note_on_c, 7, 43, 127
2, 251396, Note_on_c, 2, 74, 127
2, 251577, Note_off_c, 2, 74, 127
2, 251577, Note_off_c, 7, 43, 127
2, 251581, Note_on_c, 10, 45, 127
2, 251581, Note_on_c, 0, 72, 127
2, 251762, Note_off_c, 0, 72, 127
2, 251762, Note_off_c, 10, 45, 127
2, 251766, Note_on_c, 11, 46, 127
2, 251766, Note_on_c, 2, 74, 127
2, 251947, Note_off_c, 2, 74, 127
2, 251947, Note_off_c, 11, 46, 127
2, 251950, Note_on_c, 0, 48, 127
2, 251950, Note_on_c, 3, 63, 127
2, 252131, Note_off_c, 3, 63, 127
2, 252131, Note_off_c, 0, 48, 127
2, 252135, Note_on_c, 11, 46, 127
2, 252135, Note_on_c, 2, 62, 127
2, 252316, Note_off_c, 2, 62, 127
2, 252316, Note_off_c, 11, 46, 127
2, 252320, Note_on_c, 10, 45, 127
2, 252320, Note_on_c, 0, 60, 127
2, 252501, Note_off_c, 10, 45, 127
2, 252504, Note_on_c, 2, 50, 127
2, 252685, Note_off_c, 2, 50, 127
2, 252689, Note_on_c, 4, 52, 127
2, 252820, Note_off_c, 0, 60, 127
2, 252870, Note_off_c, 4, 52, 127
2, 252874, Note_on_c, 6, 54, 127
2, 252874, Note_on_c, 10, 69, 127
2, 253055, Note_off_c, 10, 69, 127
2, 253055, Note_off_c, 6, 54, 127
2, 253058, Note_on_c, 7, 55, 127
2, 253058, Note_on_c, 11, 70, 127
2, 253239, Note_off_c, 11, 70, 127
2, 253239, Note_off_c, 7, 55, 127
2, 253243, Note_on_c, 10, 57, 127
2, 253243, Note_on_c, 0, 72, 127
2, 253424, Note_off_c, 0, 72, 127
2, 253424, Note_off_c, 10, 57, 127
2, 253428, Note_on_c, 2, 50, 127
2, 253428, Note_on_c, 6, 66, 127
2, 253609, Note_off_c, 6, 66, 127
2, 253612, Note_on_c, 2, 74, 127
2, 253793, Note_off_c, 2, 74, 127
2, 253797, Note_on_c, 10, 69, 127
2, 253978, Note_off_c, 10, 69, 127
2, 253982, Note_on_c, 6, 66, 127
2, 254163, Note_off_c, 6, 66, 127
2, 254166, Note_on_c, 2, 62, 127
2, 254347, Note_off_c, 2, 62, 127
2, 254348, Note_off_c, 2, 50, 127
2, 254351, Note_on_c, 7, 55, 127
2, 254351, Note_on_c, 1, 61, 127
2, 254532, Note_off_c, 1, 61, 127
2, 254532, Note_off_c, 7, 55, 127
2, 254536, Note_on_c, 6, 54, 127
2, 254536, Note_on_c, 2, 62, 127
2, 254717, Note_off_c, 2, 62, 127
2, 254717, Note_off_c, 6, 54, 127
2, 254720, Note_on_c, 7, 55, 127
2, 254720, Note_on_c, 4, 64, 127
2, 254901, Note_off_c, 4, 64, 127
2, 254901, Note_off_c, 7, 55, 127
2, 254905, Note_on_c, 0, 48, 127
2, 254905, Note_on_c, 6, 66, 127
2, 255086, Note_off_c, 6, 66, 127
2, 255090, Note_on_c, 4, 64, 127
2, 255271, Note_off_c, 4, 64, 127
2, 255271, Note_off_c, 0, 48, 127
2, 255275, Note_on_c, 11, 46, 127
2, 255275, Note_on_c, 7, 55, 127
2, 255275, Note_on_c, 2, 62, 127
2, 255456, Note_off_c, 2, 62, 127
2, 255459, Note_on_c, 7, 67, 127
2, 255640, Note_off_c, 7, 67, 127
2, 255641, Note_off_c, 11, 46, 127
2, 255644, Note_on_c, 0, 48, 127
2, 255644, Note_on_c, 10, 69, 127
2, 255825, Note_off_c, 10, 69, 127
2, 255829, Note_on_c, 11, 70, 127
2, 256007, Note_off_c, 7, 55, 127
2, 256010, Note_off_c, 11, 70, 127
2, 256010, Note_off_c, 0, 48, 127
2, 256013, Note_on_c, 6, 54, 127
2, 256013, Note_on_c, 2, 50, 127
2, 256013, Note_on_c, 0, 72, 127
2, 256194, Note_off_c, 0, 72, 127
2, 256198, Note_on_c, 2, 74, 127
2, 256379, Note_off_c, 2, 74, 127
2, 256379, Note_off_c, 2, 50, 127
2, 256379, Note_off_c, 6, 54, 127
2, 256383, Note_on_c, 7, 55, 127
2, 256383, Note_on_c, 11, 70, 127
2, 256564, Note_off_c, 11, 70, 127
2, 256567, Note_on_c, 7, 43, 127
2, 256567, Note_on_c, 10, 69, 127
2, 256748, Note_off_c, 10, 69, 127
2, 256748, Note_off_c, 7, 43, 127
2, 256749, Note_off_c, 7, 55, 127
2, 256752, Note_on_c, 11, 46, 127
2, 256752, Note_on_c, 7, 67, 127
2, 256933, Note_off_c, 7, 67, 127
2, 256933, Note_off_c, 11, 46, 127
2, 256937, Note_on_c, 2, 50, 127
2, 256937, Note_on_c, 10, 69, 127
2, 257118, Note_off_c, 10, 69, 127
2, 257118, Note_off_c, 2, 50, 127
2, 257121, Note_on_c, 7, 55, 127
2, 257121, Note_on_c, 11, 70, 127
2, 257302, Note_off_c, 11, 70, 127
2, 257302, Note_off_c, 7, 55, 127
2, 257306, Note_on_c, 7, 55, 127
2, 257306, Note_on_c, 0, 72, 127
2, 257487, Note_off_c, 0, 72, 127
2, 257487, Note_off_c, 7, 55, 127
2, 257491, Note_on_c, 5, 53, 127
2, 257491, Note_on_c, 2, 74, 127
2, 257672, Note_off_c, 2, 74, 127
2, 257672, Note_off_c, 5, 53, 127
2, 257675, Note_on_c, 3, 51, 127
2, 257675, Note_on_c, 3, 75, 127
2, 257856, Note_off_c, 3, 75, 127
2, 257856, Note_off_c, 3, 51, 127
2, 257860, Note_on_c, 2, 50, 127
2, 257860, Note_on_c, 5, 77, 127
2, 258041, Note_off_c, 2, 50, 127
2, 258045, Note_on_c, 3, 51, 127
2, 258226, Note_off_c, 3, 51, 127
2, 258226, Note_off_c, 5, 77, 127
2, 258229, Note_on_c, 5, 53, 127
2, 258229, Note_on_c, 11, 70, 127
2, 258410, Note_off_c, 5, 53, 127
2, 258414, Note_on_c, 0, 48, 127
2, 258595, Note_off_c, 0, 48, 127
2, 258595, Note_off_c, 11, 70, 127
2, 258599, Note_on_c, 11, 46, 127
2, 258599, Note_on_c, 8, 80, 127
2, 258688, Note_off_c, 8, 80, 127
2, 258691, Note_on_c, 7, 79, 127
2, 258780, Note_off_c, 7, 79, 127
2, 258780, Note_off_c, 11, 46, 127
2, 258783, Note_on_c, 8, 44, 127
2, 258783, Note_on_c, 8, 80, 127
2, 258964, Note_off_c, 8, 44, 127
2, 258968, Note_on_c, 7, 43, 127
2, 259149, Note_off_c, 7, 43, 127
2, 259149, Note_off_c, 8, 80, 127
2, 259153, Note_on_c, 5, 41, 127
2, 259153, Note_on_c, 11, 82, 127
2, 259334, Note_off_c, 11, 82, 127
2, 259334, Note_off_c, 5, 41, 127
2, 259337, Note_on_c, 3, 39, 127
2, 259337, Note_on_c, 7, 79, 127
2, 259524, Note_on_c, 5, 77, 127
2, 259705, Note_off_c, 5, 77, 127
2, 259708, Note_on_c, 3, 75, 127
2, 259889, Note_off_c, 3, 75, 127
2, 259893, Note_on_c, 2, 74, 127
2, 260074, Note_off_c, 2, 74, 127
2, 260074, Note_off_c, 3, 39, 127
2, 260078, Note_on_c, 3, 51, 127
2, 260078, Note_on_c, 0, 72, 127
2, 260259, Note_off_c, 0, 72, 127
2, 260263, Note_on_c, 2, 74, 127
2, 260444, Note_off_c, 2, 74, 127
2, 260447, Note_on_c, 3, 75, 127
2, 260628, Note_off_c, 3, 75, 127
2, 260632, Note_on_c, 11, 70, 127
2, 260813, Note_off_c, 11, 70, 127
2, 260814, Note_off_c, 7, 79, 127
2, 260817, Note_on_c, 5, 77, 127
2, 260817, Note_on_c, 10, 69, 127
2, 260998, Note_off_c, 3, 51, 127
2, 261001, Note_on_c, 7, 67, 127
2, 261182, Note_off_c, 7, 67, 127
2, 261186, Note_on_c, 5, 65, 127
2, 261367, Note_off_c, 5, 65, 127
2, 261371, Note_on_c, 3, 63, 127
2, 261552, Note_off_c, 3, 63, 127
2, 261552, Note_off_c, 10, 69, 127
2, 261555, Note_on_c, 2, 62, 127
2, 261555, Note_on_c, 8, 68, 127
2, 261736, Note_off_c, 2, 62, 127
2, 261740, Note_off_c, 5, 77, 127
2, 261740, Note_on_c, 3, 63, 127
2, 261740, Note_on_c, 3, 75, 127
2, 261921, Note_off_c, 3, 75, 127
2, 261921, Note_off_c, 3, 63, 127
2, 261925, Note_on_c, 5, 65, 127
2, 261925, Note_on_c, 2, 74, 127
2, 262106, Note_off_c, 2, 74, 127
2, 262106, Note_off_c, 5, 65, 127
2, 262109, Note_on_c, 8, 56, 127
2, 262109, Note_on_c, 0, 72, 127
2, 262290, Note_off_c, 0, 72, 127
2, 262290, Note_off_c, 8, 56, 127
2, 262294, Note_on_c, 7, 55, 127
2, 262294, Note_on_c, 12, 71, 127
2, 262475, Note_off_c, 12, 71, 127
2, 262475, Note_off_c, 7, 55, 127
2, 262478, Note_off_c, 8, 68, 127
2, 262479, Note_on_c, 5, 53, 127
2, 262479, Note_on_c, 10, 69, 127
2, 262660, Note_off_c, 10, 69, 127
2, 262660, Note_off_c, 5, 53, 127
2, 262663, Note_on_c, 3, 51, 127
2, 262663, Note_on_c, 7, 67, 127
2, 262844, Note_off_c, 3, 51, 127
2, 262848, Note_on_c, 2, 50, 127
2, 263029, Note_off_c, 2, 50, 127
2, 263033, Note_on_c, 0, 48, 127
2, 263033, Note_on_c, 3, 75, 127
2, 263122, Note_off_c, 3, 75, 127
2, 263125, Note_on_c, 2, 74, 127
2, 263214, Note_off_c, 2, 74, 127
2, 263214, Note_off_c, 0, 48, 127
2, 263217, Note_on_c, 2, 50, 127
2, 263217, Note_on_c, 3, 75, 127
2, 263398, Note_off_c, 2, 50, 127
2, 263402, Note_on_c, 3, 51, 127
2, 263583, Note_off_c, 3, 51, 127
2, 263583, Note_off_c, 3, 75, 127
2, 263587, Note_on_c, 7, 43, 127
2, 263587, Note_on_c, 3, 75, 127
2, 263768, Note_off_c, 3, 75, 127
2, 263768, Note_off_c, 7, 43, 127
2, 263769, Note_off_c, 7, 67, 127
2, 263771, Note_on_c, 6, 42, 127
2, 263771, Note_on_c, 3, 75, 127
2, 263771, Note_on_c, 10, 69, 127
2, 263952, Note_off_c, 3, 75, 127
2, 263956, Note_on_c, 2, 74, 127
2, 264137, Note_off_c, 2, 74, 127
2, 264137, Note_off_c, 10, 69, 127
2, 264137, Note_off_c, 6, 42, 127
2, 264141, Note_on_c, 7, 43, 127
2, 264141, Note_on_c, 0, 72, 127
2, 264322, Note_off_c, 0, 72, 127
2, 264325, Note_on_c, 11, 70, 127
2, 264506, Note_off_c, 11, 70, 127
2, 264507, Note_off_c, 7, 43, 127
2, 264510, Note_on_c, 0, 48, 127
2, 264510, Note_on_c, 10, 69, 127
2, 264691, Note_off_c, 10, 69, 127
2, 264695, Note_on_c, 11, 70, 127
2, 264876, Note_off_c, 11, 70, 127
2, 264876, Note_off_c, 0, 48, 127
2, 264880, Note_on_c, 10, 45, 127
2, 264880, Note_on_c, 0, 72, 127
2, 265061, Note_off_c, 0, 72, 127
2, 265064, Note_on_c, 7, 67, 127
2, 265245, Note_off_c, 7, 67, 127
2, 265246, Note_off_c, 10, 45, 127
2, 265249, Note_on_c, 2, 50, 127
2, 265249, Note_on_c, 6, 66, 127
2, 265430, Note_off_c, 6, 66, 127
2, 265434, Note_on_c, 7, 67, 127
2, 265615, Note_off_c, 7, 67, 127
2, 265618, Note_on_c, 10, 69, 127
2, 265799, Note_off_c, 2, 50, 127
2, 265803, Note_on_c, 3, 63, 127
2, 265984, Note_off_c, 3, 63, 127
2, 265984, Note_off_c, 10, 69, 127
2, 265988, Note_on_c, 2, 62, 127
2, 265988, Note_on_c, 10, 69, 127
2, 266077, Note_off_c, 10, 69, 127
2, 266080, Note_on_c, 7, 67, 127
2, 266169, Note_off_c, 7, 67, 127
2, 266169, Note_off_c, 2, 62, 127
2, 266172, Note_on_c, 0, 60, 127
2, 266172, Note_on_c, 10, 69, 127
2, 266353, Note_off_c, 0, 60, 127
2, 266357, Note_on_c, 11, 58, 127
2, 266538, Note_off_c, 11, 58, 127
2, 266538, Note_off_c, 10, 69, 127
2, 266542, Note_on_c, 10, 57, 127
2, 266542, Note_on_c, 10, 69, 127
2, 266723, Note_off_c, 10, 69, 127
2, 266723, Note_off_c, 10, 57, 127
2, 266726, Note_on_c, 11, 58, 127
2, 266726, Note_on_c, 10, 69, 127
2, 266907, Note_off_c, 10, 69, 127
2, 266907, Note_off_c, 11, 58, 127
2, 266911, Note_on_c, 0, 60, 127
2, 266911, Note_on_c, 7, 67, 127
2, 267092, Note_off_c, 7, 67, 127
2, 267092, Note_off_c, 0, 60, 127
2, 267096, Note_on_c, 2, 62, 127
2, 267096, Note_on_c, 6, 66, 127
2, 267277, Note_off_c, 6, 66, 127
2, 267277, Note_off_c, 2, 62, 127
2, 267280, Note_on_c, 11, 58, 127
2, 267280, Note_on_c, 7, 67, 127
2, 267461, Note_off_c, 7, 67, 127
2, 267461, Note_off_c, 11, 58, 127
2, 267465, Note_on_c, 10, 57, 127
2, 267465, Note_on_c, 0, 72, 127
2, 267646, Note_off_c, 10, 57, 127
2, 267650, Note_on_c, 7, 55, 127
2, 267650, Note_on_c, 11, 70, 127
2, 267831, Note_off_c, 11, 70, 127
2, 267831, Note_off_c, 7, 55, 127
2, 267834, Note_on_c, 6, 54, 127
2, 267834, Note_on_c, 10, 69, 127
2, 268004, Note_off_c, 0, 72, 127
2, 268015, Note_off_c, 10, 69, 127
2, 268015, Note_off_c, 6, 54, 127
2, 268019, Note_on_c, 4, 52, 127
2, 268019, Note_on_c, 0, 72, 127
2, 268019, Note_on_c, 7, 67, 127
2, 268200, Note_off_c, 7, 67, 127
2, 268200, Note_off_c, 0, 72, 127
2, 268200, Note_off_c, 4, 52, 127
2, 268204, Note_on_c, 6, 54, 127
2, 268204, Note_on_c, 0, 72, 127
2, 268204, Note_on_c, 10, 69, 127
2, 268385, Note_off_c, 6, 54, 127
2, 268388, Note_on_c, 7, 55, 127
2, 268569, Note_off_c, 7, 55, 127
2, 268573, Note_on_c, 10, 57, 127
2, 268754, Note_off_c, 10, 57, 127
2, 268758, Note_on_c, 3, 51, 127
2, 268939, Note_off_c, 3, 51, 127
2, 268942, Note_on_c, 2, 50, 127
2, 269123, Note_off_c, 2, 50, 127
2, 269127, Note_on_c, 0, 48, 127
2, 269308, Note_off_c, 0, 48, 127
2, 269308, Note_off_c, 10, 69, 127
2, 269308, Note_off_c, 0, 72, 127
2, 269312, Note_on_c, 11, 46, 127
2, 269312, Note_on_c, 7, 67, 127
2, 269401, Note_off_c, 7, 67, 127
2, 269404, Note_on_c, 6, 66, 127
2, 269493, Note_off_c, 6, 66, 127
2, 269493, Note_off_c, 11, 46, 127
2, 269497, Note_on_c, 10, 45, 127
2, 269497, Note_on_c, 4, 64, 127
2, 269586, Note_off_c, 4, 64, 127
2, 269589, Note_on_c, 6, 66, 127
2, 269678, Note_off_c, 6, 66, 127
2, 269678, Note_off_c, 10, 45, 127
2, 269681, Note_on_c, 11, 46, 127
2, 269681, Note_on_c, 7, 67, 127
2, 269869, Note_on_c, 10, 69, 127
2, 270053, Note_off_c, 10, 69, 127
2, 270053, Note_off_c, 11, 46, 127
2, 270057, Note_on_c, 0, 48, 127
2, 270057, Note_on_c, 11, 70, 127
2, 270241, Note_off_c, 11, 70, 127
2, 270245, Note_on_c, 3, 75, 127
2, 270426, Note_off_c, 7, 67, 127
2, 270429, Note_off_c, 3, 75, 127
2, 270429, Note_off_c, 0, 48, 127
2, 270433, Note_on_c, 2, 50, 127
2, 270433, Note_on_c, 6, 66, 127
2, 270433, Note_on_c, 11, 70, 127
2, 270523, Note_off_c, 11, 70, 127
2, 270527, Note_on_c, 10, 69, 127
2, 270617, Note_off_c, 10, 69, 127
2, 270621, Note_on_c, 11, 70, 127
2, 270711, Note_off_c, 11, 70, 127
2, 270715, Note_on_c, 10, 69, 127
2, 270805, Note_off_c, 10, 69, 127
2, 270805, Note_off_c, 2, 50, 127
2, 270809, Note_on_c, 2, 38, 127
2, 270809, Note_on_c, 11, 70, 127
2, 270899, Note_off_c, 11, 70, 127
2, 270903, Note_on_c, 10, 69, 127
2, 270982, Note_off_c, 6, 66, 127
2, 270993, Note_off_c, 10, 69, 127
2, 270997, Note_on_c, 7, 67, 127
2, 271181, Note_off_c, 7, 67, 127
2, 271181, Note_off_c, 2, 38, 127
2, 271185, Note_on_c, 7, 43, 127
2, 271185, Note_on_c, 7, 67, 127
2, 271387, Note_on_c, 5, 65, 127
2, 271584, Note_off_c, 5, 65, 127
2, 271590, Note_on_c, 3, 63, 127
2, 271787, Note_off_c, 3, 63, 127
2, 271792, Note_on_c, 2, 62, 127
2, 271989, Note_off_c, 2, 62, 127
2, 271995, Note_on_c, 0, 60, 127
2, 272192, Note_off_c, 0, 60, 127
2, 272197, Note_off_c, 7, 43, 127
2, 272197, Note_on_c, 2, 62, 127
2, 272394, Note_off_c, 2, 62, 127
2, 272400, Note_on_c, 3, 63, 127
2, 272602, Note_on_c, 6, 54, 127
2, 272799, Note_off_c, 6, 54, 127
2, 272800, Note_off_c, 3, 63, 127
2, 272805, Note_on_c, 7, 55, 127
2, 272805, Note_on_c, 11, 58, 127
2, 272920, Note_on_c, 2, 62, 127
2, 273001, Note_off_c, 7, 67, 127
2, 273035, Note_on_c, 11, 46, 127
2, 273035, Note_on_c, 7, 67, 127
2, 273260, Note_off_c, 11, 46, 127
2, 273265, Note_on_c, 0, 48, 127
2, 273490, Note_off_c, 0, 48, 127
2, 273495, Note_on_c, 2, 50, 127
2, 273769, Note_off_c, 2, 50, 127
2, 273773, Note_on_c, 7, 43, 127
2, 276477, Note_off_c, 11, 58, 127
2, 276477, Note_off_c, 7, 55, 127
2, 276483, Note_off_c, 7, 67, 127
2, 276488, Note_off_c, 2, 62, 127
2, 276530, Note_off_c, 7, 43, 127
2, 278098, Note_on_c, 2, 62, 127
2, 278284, Note_off_c, 2, 62, 127
2, 278286, Note_on_c, 7, 55, 127
2, 278286, Note_on_c, 2, 62, 127
2, 278474, Note_on_c, 0, 60, 127
2, 278660, Note_off_c, 0, 60, 127
2, 278662, Note_on_c, 11, 58, 127
2, 278848, Note_off_c, 11, 58, 127
2, 278850, Note_on_c, 10, 57, 127
2, 279036, Note_off_c, 10, 57, 127
2, 279038, Note_on_c, 11, 58, 127
2, 279223, Note_off_c, 7, 55, 127
2, 279226, Note_on_c, 6, 54, 127
2, 279412, Note_off_c, 6, 54, 127
2, 279413, Note_on_c, 7, 55, 127
2, 279596, Note_off_c, 2, 62, 127
2, 279599, Note_off_c, 7, 55, 127
2, 279601, Note_on_c, 2, 50, 127
2, 279601, Note_on_c, 2, 62, 127
2, 279787, Note_off_c, 2, 62, 127
2, 279787, Note_off_c, 2, 50, 127
2, 279789, Note_off_c, 11, 58, 127
2, 279791, Note_on_c, 3, 51, 127
2, 279791, Note_on_c, 7, 67, 127
2, 279977, Note_off_c, 7, 67, 127
2, 279977, Note_off_c, 3, 51, 127
2, 279979, Note_on_c, 0, 48, 127
2, 279979, Note_on_c, 10, 69, 127
2, 280165, Note_off_c, 10, 69, 127
2, 280165, Note_off_c, 0, 48, 127
2, 280167, Note_on_c, 2, 50, 127
2, 280167, Note_on_c, 6, 66, 127
2, 280353, Note_off_c, 6, 66, 127
2, 280353, Note_off_c, 2, 50, 127
2, 280355, Note_on_c, 3, 51, 127
2, 280355, Note_on_c, 7, 67, 127
2, 280541, Note_off_c, 7, 67, 127
2, 280541, Note_off_c, 3, 51, 127
2, 280543, Note_on_c, 6, 42, 127
2, 280543, Note_on_c, 10, 69, 127
2, 280731, Note_on_c, 3, 63, 127
2, 280917, Note_off_c, 3, 63, 127
2, 280918, Note_on_c, 2, 62, 127
2, 281104, Note_off_c, 2, 62, 127
2, 281106, Note_on_c, 0, 60, 127
2, 281292, Note_off_c, 0, 60, 127
2, 281294, Note_off_c, 6, 42, 127
2, 281296, Note_on_c, 2, 62, 127
2, 281388, Note_off_c, 2, 62, 127
2, 281390, Note_on_c, 0, 60, 127
2, 281482, Note_off_c, 0, 60, 127
2, 281484, Note_on_c, 10, 57, 127
2, 281484, Note_on_c, 2, 62, 127
2, 281670, Note_off_c, 10, 57, 127
2, 281672, Note_on_c, 11, 58, 127
2, 281856, Note_off_c, 10, 69, 127
2, 281858, Note_off_c, 11, 58, 127
2, 281858, Note_off_c, 2, 62, 127
2, 281860, Note_on_c, 0, 60, 127
2, 281860, Note_on_c, 2, 62, 127
2, 282046, Note_off_c, 2, 62, 127
2, 282046, Note_off_c, 0, 60, 127
2, 282048, Note_on_c, 6, 54, 127
2, 282048, Note_on_c, 10, 69, 127
2, 282234, Note_off_c, 10, 69, 127
2, 282234, Note_off_c, 6, 54, 127
2, 282236, Note_on_c, 7, 55, 127
2, 282236, Note_on_c, 11, 70, 127
2, 282422, Note_off_c, 11, 70, 127
2, 282422, Note_off_c, 7, 55, 127
2, 282423, Note_on_c, 10, 57, 127
2, 282423, Note_on_c, 7, 67, 127
2, 282609, Note_off_c, 7, 67, 127
2, 282609, Note_off_c, 10, 57, 127
2, 282611, Note_on_c, 2, 50, 127
2, 282611, Note_on_c, 10, 69, 127
2, 282797, Note_off_c, 10, 69, 127
2, 282797, Note_off_c, 2, 50, 127
2, 282799, Note_on_c, 7, 55, 127
2, 282799, Note_on_c, 11, 70, 127
2, 282987, Note_on_c, 10, 69, 127
2, 283173, Note_off_c, 10, 69, 127
2, 283173, Note_off_c, 7, 55, 127
2, 283175, Note_on_c, 2, 50, 127
2, 283175, Note_on_c, 7, 67, 127
2, 283361, Note_off_c, 7, 67, 127
2, 283363, Note_on_c, 6, 66, 127
2, 283549, Note_off_c, 6, 66, 127
2, 283549, Note_off_c, 2, 50, 127
2, 283551, Note_on_c, 3, 51, 127
2, 283551, Note_on_c, 7, 67, 127
2, 283737, Note_off_c, 7, 67, 127
2, 283739, Note_on_c, 2, 62, 127
2, 283925, Note_off_c, 2, 62, 127
2, 283925, Note_off_c, 3, 51, 127
2, 283927, Note_on_c, 7, 55, 127
2, 283927, Note_on_c, 3, 63, 127
2, 284111, Note_off_c, 11, 70, 127
2, 284113, Note_off_c, 3, 63, 127
2, 284115, Note_on_c, 11, 70, 127
2, 284301, Note_off_c, 11, 70, 127
2, 284301, Note_off_c, 7, 55, 127
2, 284303, Note_on_c, 0, 48, 127
2, 284303, Note_on_c, 10, 69, 127
2, 284489, Note_off_c, 10, 69, 127
2, 284491, Note_on_c, 0, 72, 127
2, 284677, Note_off_c, 0, 72, 127
2, 284677, Note_off_c, 0, 48, 127
2, 284678, Note_on_c, 3, 51, 127
2, 284678, Note_on_c, 6, 66, 127
2, 284864, Note_off_c, 6, 66, 127
2, 284866, Note_on_c, 7, 67, 127
2, 285052, Note_off_c, 7, 67, 127
2, 285052, Note_off_c, 3, 51, 127
2, 285054, Note_on_c, 2, 50, 127
2, 285054, Note_on_c, 7, 67, 127
2, 285128, Note_on_c, 6, 66, 127
2, 285146, Note_off_c, 7, 67, 127
2, 285202, Note_on_c, 7, 67, 127
2, 285220, Note_off_c, 6, 66, 127
2, 285276, Note_on_c, 6, 66, 127
2, 285294, Note_off_c, 7, 67, 127
2, 285426, Note_off_c, 6, 66, 127
2, 285430, Note_on_c, 4, 64, 127
2, 285616, Note_off_c, 4, 64, 127
2, 285616, Note_off_c, 2, 50, 127
2, 285618, Note_on_c, 0, 48, 127
2, 285618, Note_on_c, 2, 62, 127
2, 285804, Note_off_c, 2, 62, 127
2, 285804, Note_off_c, 0, 48, 127
2, 285806, Note_on_c, 11, 46, 127
2, 285806, Note_on_c, 2, 74, 127
2, 285992, Note_off_c, 11, 46, 127
2, 285994, Note_on_c, 10, 45, 127
2, 286180, Note_off_c, 10, 45, 127
2, 286182, Note_on_c, 11, 46, 127
2, 286368, Note_off_c, 11, 46, 127
2, 286368, Note_off_c, 2, 74, 127
2, 286370, Note_on_c, 7, 43, 127
2, 286370, Note_on_c, 3, 75, 127
2, 286556, Note_off_c, 3, 75, 127
2, 286556, Note_off_c, 7, 43, 127
2, 286558, Note_on_c, 2, 50, 127
2, 286558, Note_on_c, 2, 74, 127
2, 286744, Note_off_c, 2, 74, 127
2, 286746, Note_on_c, 0, 72, 127
2, 286932, Note_off_c, 0, 72, 127
2, 286932, Note_off_c, 2, 50, 127
2, 286934, Note_on_c, 2, 38, 127
2, 286934, Note_on_c, 11, 70, 127
2, 287120, Note_off_c, 11, 70, 127
2, 287121, Note_on_c, 10, 69, 127
2, 287307, Note_off_c, 10, 69, 127
2, 287308, Note_off_c, 2, 38, 127
2, 287309, Note_on_c, 7, 43, 127
2, 287309, Note_on_c, 11, 70, 127
2, 287495, Note_off_c, 11, 70, 127
2, 287497, Note_on_c, 10, 69, 127
2, 287683, Note_off_c, 10, 69, 127
2, 287685, Note_on_c, 11, 46, 127
2, 287685, Note_on_c, 7, 67, 127
2, 287871, Note_off_c, 7, 67, 127
2, 287873, Note_on_c, 10, 69, 127
2, 288059, Note_off_c, 10, 69, 127
2, 288059, Note_off_c, 11, 46, 127
2, 288061, Note_on_c, 2, 50, 127
2, 288061, Note_on_c, 11, 70, 127
2, 288247, Note_off_c, 11, 70, 127
2, 288249, Note_on_c, 0, 72, 127
2, 288434, Note_off_c, 7, 43, 127
2, 288435, Note_off_c, 0, 72, 127
2, 288435, Note_off_c, 2, 50, 127
2, 288437, Note_on_c, 7, 55, 127
2, 288437, Note_on_c, 2, 74, 127
2, 288623, Note_off_c, 2, 74, 127
2, 288625, Note_on_c, 3, 75, 127
2, 288811, Note_off_c, 3, 75, 127
2, 288811, Note_off_c, 7, 55, 127
2, 288813, Note_on_c, 5, 53, 127
2, 288813, Note_on_c, 5, 77, 127
2, 288973, Note_off_c, 5, 77, 127
2, 288978, Note_on_c, 3, 75, 127
2, 289061, Note_on_c, 5, 77, 127
2, 289063, Note_off_c, 3, 75, 127
2, 289145, Note_on_c, 3, 75, 127
2, 289146, Note_off_c, 5, 77, 127
2, 289187, Note_off_c, 5, 53, 127
2, 289189, Note_on_c, 3, 51, 127
2, 289229, Note_on_c, 5, 77, 127
2, 289230, Note_off_c, 3, 75, 127
2, 289313, Note_on_c, 3, 75, 127
2, 289314, Note_off_c, 5, 77, 127
2, 289396, Note_on_c, 2, 74, 127
2, 289398, Note_off_c, 3, 75, 127
2, 289480, Note_on_c, 3, 75, 127
2, 289481, Note_off_c, 2, 74, 127
2, 289563, Note_off_c, 3, 51, 127
2, 289564, Note_on_c, 2, 50, 127
2, 289564, Note_on_c, 5, 77, 127
2, 289565, Note_off_c, 3, 75, 127
2, 289750, Note_off_c, 2, 50, 127
2, 289752, Note_on_c, 5, 53, 127
2, 289938, Note_off_c, 5, 53, 127
2, 289940, Note_on_c, 7, 55, 127
2, 290126, Note_off_c, 7, 55, 127
2, 290126, Note_off_c, 5, 77, 127
2, 290128, Note_on_c, 10, 57, 127
2, 290128, Note_on_c, 3, 75, 127
2, 290314, Note_off_c, 3, 75, 127
2, 290314, Note_off_c, 10, 57, 127
2, 290316, Note_on_c, 11, 58, 127
2, 290316, Note_on_c, 2, 74, 127
2, 290502, Note_off_c, 2, 74, 127
2, 290502, Note_off_c, 11, 58, 127
2, 290504, Note_on_c, 10, 57, 127
2, 290504, Note_on_c, 0, 72, 127
2, 290690, Note_off_c, 0, 72, 127
2, 290690, Note_off_c, 10, 57, 127
2, 290692, Note_on_c, 11, 58, 127
2, 290692, Note_on_c, 11, 70, 127
2, 290878, Note_off_c, 11, 70, 127
2, 290878, Note_off_c, 11, 58, 127
2, 290880, Note_on_c, 0, 60, 127
2, 290880, Note_on_c, 10, 69, 127
2, 291066, Note_off_c, 10, 69, 127
2, 291066, Note_off_c, 0, 60, 127
2, 291068, Note_on_c, 2, 62, 127
2, 291068, Note_on_c, 11, 70, 127
2, 291254, Note_off_c, 11, 70, 127
2, 291256, Note_on_c, 0, 72, 127
2, 291442, Note_off_c, 0, 72, 127
2, 291442, Note_off_c, 2, 62, 127
2, 291444, Note_on_c, 11, 58, 127
2, 291444, Note_on_c, 5, 65, 127
2, 291630, Note_off_c, 5, 65, 127
2, 291632, Note_on_c, 8, 68, 127
2, 291818, Note_off_c, 8, 68, 127
2, 291818, Note_off_c, 11, 58, 127
2, 291819, Note_on_c, 3, 63, 127
2, 291819, Note_on_c, 7, 67, 127
2, 292005, Note_off_c, 3, 63, 127
2, 292007, Note_on_c, 5, 65, 127
2, 292193, Note_off_c, 5, 65, 127
2, 292193, Note_off_c, 7, 67, 127
2, 292195, Note_on_c, 3, 63, 127
2, 292195, Note_on_c, 7, 79, 127
2, 292381, Note_off_c, 3, 63, 127
2, 292383, Note_on_c, 2, 62, 127
2, 292569, Note_off_c, 2, 62, 127
2, 292571, Note_on_c, 0, 60, 127
2, 292757, Note_off_c, 7, 79, 127
2, 292759, Note_on_c, 5, 77, 127
2, 292945, Note_off_c, 5, 77, 127
2, 292945, Note_off_c, 0, 60, 127
2, 292947, Note_on_c, 2, 62, 127
2, 292947, Note_on_c, 3, 75, 127
2, 293133, Note_off_c, 3, 75, 127
2, 293135, Note_on_c, 2, 74, 127
2, 293321, Note_off_c, 2, 74, 127
2, 293321, Note_off_c, 2, 62, 127
2, 293323, Note_on_c, 3, 63, 127
2, 293323, Note_on_c, 0, 72, 127
2, 293509, Note_off_c, 0, 72, 127
2, 293511, Note_on_c, 2, 74, 127
2, 293697, Note_off_c, 2, 74, 127
2, 293697, Note_off_c, 3, 63, 127
2, 293699, Note_on_c, 0, 60, 127
2, 293699, Note_on_c, 3, 75, 127
2, 293885, Note_off_c, 3, 75, 127
2, 293887, Note_on_c, 11, 70, 127
2, 294073, Note_off_c, 11, 70, 127
2, 294073, Note_off_c, 0, 60, 127
2, 294074, Note_on_c, 5, 65, 127
2, 294074, Note_on_c, 10, 69, 127
2, 294260, Note_off_c, 10, 69, 127
2, 294262, Note_on_c, 0, 72, 127
2, 294448, Note_off_c, 0, 72, 127
2, 294448, Note_off_c, 5, 65, 127
2, 294450, Note_on_c, 3, 63, 127
2, 294450, Note_on_c, 2, 74, 127
2, 294636, Note_off_c, 2, 74, 127
2, 294638, Note_on_c, 3, 75, 127
2, 294824, Note_off_c, 3, 75, 127
2, 294824, Note_off_c, 3, 63, 127
2, 294826, Note_on_c, 2, 62, 127
2, 294826, Note_on_c, 5, 77, 127
2, 295012, Note_off_c, 5, 77, 127
2, 295014, Note_on_c, 3, 75, 127
2, 295200, Note_off_c, 3, 75, 127
2, 295200, Note_off_c, 2, 62, 127
2, 295202, Note_on_c, 0, 60, 127
2, 295202, Note_on_c, 5, 77, 127
2, 295388, Note_off_c, 5, 77, 127
2, 295388, Note_off_c, 0, 60, 127
2, 295390, Note_on_c, 11, 58, 127
2, 295390, Note_on_c, 7, 79, 127
2, 295576, Note_off_c, 7, 79, 127
2, 295576, Note_off_c, 11, 58, 127
2, 295578, Note_on_c, 5, 65, 127
2, 295578, Note_on_c, 5, 77, 127
2, 295764, Note_off_c, 5, 77, 127
2, 295766, Note_on_c, 3, 75, 127
2, 295952, Note_off_c, 3, 75, 127
2, 295952, Note_off_c, 5, 65, 127
2, 295954, Note_on_c, 5, 53, 127
2, 295954, Note_on_c, 2, 74, 127
2, 296140, Note_off_c, 2, 74, 127
2, 296142, Note_on_c, 0, 72, 127
2, 296328, Note_off_c, 0, 72, 127
2, 296328, Note_off_c, 5, 53, 127
2, 296330, Note_on_c, 11, 58, 127
2, 296330, Note_on_c, 0, 72, 127
2, 296516, Note_off_c, 0, 72, 127
2, 296517, Note_on_c, 2, 74, 127
2, 296703, Note_off_c, 2, 74, 127
2, 296704, Note_off_c, 11, 58, 127
2, 296705, Note_on_c, 11, 46, 127
2, 296705, Note_on_c, 0, 72, 127
2, 296891, Note_off_c, 0, 72, 127
2, 296891, Note_off_c, 11, 46, 127
2, 296893, Note_on_c, 10, 45, 127
2, 296893, Note_on_c, 11, 70, 127
2, 297079, Note_off_c, 11, 70, 127
2, 297079, Note_off_c, 10, 45, 127
2, 297081, Note_on_c, 7, 43, 127
2, 297081, Note_on_c, 2, 74, 127
2, 297175, Note_on_c, 7, 79, 127
2, 297267, Note_off_c, 7, 43, 127
2, 297269, Note_on_c, 6, 42, 127
2, 297269, Note_on_c, 11, 82, 127
2, 297455, Note_off_c, 6, 42, 127
2, 297457, Note_on_c, 7, 43, 127
2, 297643, Note_off_c, 7, 43, 127
2, 297643, Note_off_c, 11, 82, 127
2, 297644, Note_off_c, 2, 74, 127
2, 297646, Note_off_c, 7, 79, 127
2, 297647, Note_on_c, 10, 45, 127
2, 297647, Note_on_c, 10, 81, 127
2, 297833, Note_off_c, 10, 81, 127
2, 297833, Note_off_c, 10, 45, 127
2, 297834, Note_on_c, 11, 46, 127
2, 297834, Note_on_c, 7, 79, 127
2, 298020, Note_off_c, 7, 79, 127
2, 298022, Note_on_c, 10, 81, 127
2, 298208, Note_off_c, 10, 81, 127
2, 298208, Note_off_c, 11, 46, 127
2, 298210, Note_on_c, 7, 43, 127
2, 298210, Note_on_c, 11, 82, 127
2, 298396, Note_off_c, 11, 82, 127
2, 298398, Note_on_c, 5, 77, 127
2, 298584, Note_off_c, 5, 77, 127
2, 298584, Note_off_c, 7, 43, 127
2, 298586, Note_on_c, 0, 48, 127
2, 298586, Note_on_c, 5, 77, 127
2, 298755, Note_on_c, 3, 75, 127
2, 298756, Note_off_c, 5, 77, 127
2, 298772, Note_off_c, 0, 48, 127
2, 298774, Note_on_c, 12, 47, 127
2, 298829, Note_on_c, 5, 77, 127
2, 298847, Note_off_c, 3, 75, 127
2, 298903, Note_on_c, 3, 75, 127
2, 298921, Note_off_c, 5, 77, 127
2, 298960, Note_off_c, 12, 47, 127
2, 298962, Note_on_c, 0, 48, 127
2, 298977, Note_on_c, 5, 77, 127
2, 298995, Note_off_c, 3, 75, 127
2, 299051, Note_on_c, 3, 75, 127
2, 299069, Note_off_c, 5, 77, 127
2, 299143, Note_off_c, 3, 75, 127
2, 299148, Note_off_c, 0, 48, 127
2, 299150, Note_on_c, 2, 50, 127
2, 299150, Note_on_c, 2, 74, 127
2, 299336, Note_off_c, 2, 74, 127
2, 299336, Note_off_c, 2, 50, 127
2, 299338, Note_on_c, 3, 51, 127
2, 299338, Note_on_c, 0, 72, 127
2, 299524, Note_off_c, 0, 72, 127
2, 299526, Note_on_c, 2, 74, 127
2, 299712, Note_off_c, 2, 74, 127
2, 299712, Note_off_c, 3, 51, 127
2, 299714, Note_on_c, 2, 50, 127
2, 299714, Note_on_c, 3, 75, 127
2, 299900, Note_off_c, 3, 75, 127
2, 299902, Note_on_c, 11, 70, 127
2, 300088, Note_off_c, 11, 70, 127
2, 300088, Note_off_c, 2, 50, 127
2, 300090, Note_on_c, 0, 48, 127
2, 300090, Note_on_c, 10, 69, 127
2, 300276, Note_off_c, 10, 69, 127
2, 300277, Note_on_c, 11, 70, 127
2, 300463, Note_off_c, 11, 70, 127
2, 300464, Note_off_c, 0, 48, 127
2, 300465, Note_on_c, 10, 45, 127
2, 300465, Note_on_c, 0, 72, 127
2, 300651, Note_off_c, 0, 72, 127
2, 300653, Note_on_c, 7, 67, 127
2, 300839, Note_off_c, 7, 67, 127
2, 300839, Note_off_c, 10, 45, 127
2, 300841, Note_on_c, 2, 50, 127
2, 300841, Note_on_c, 6, 66, 127
2, 301027, Note_off_c, 6, 66, 127
2, 301029, Note_on_c, 7, 67, 127
2, 301215, Note_off_c, 7, 67, 127
2, 301217, Note_on_c, 10, 69, 127
2, 301403, Note_off_c, 10, 69, 127
2, 301405, Note_on_c, 3, 63, 127
2, 301591, Note_off_c, 3, 63, 127
2, 301592, Note_off_c, 2, 50, 127
2, 301595, Note_on_c, 2, 62, 127
2, 301781, Note_off_c, 2, 62, 127
2, 301782, Note_on_c, 4, 64, 127
2, 301968, Note_off_c, 4, 64, 127
2, 301970, Note_on_c, 6, 66, 127
2, 302158, Note_on_c, 0, 60, 127
2, 302344, Note_off_c, 0, 60, 127
2, 302344, Note_off_c, 6, 66, 127
2, 302346, Note_on_c, 11, 58, 127
2, 302346, Note_on_c, 7, 67, 127
2, 302532, Note_off_c, 11, 58, 127
2, 302534, Note_on_c, 0, 60, 127
2, 302720, Note_off_c, 0, 60, 127
2, 302720, Note_off_c, 7, 67, 127
2, 302722, Note_on_c, 2, 62, 127
2, 302722, Note_on_c, 11, 70, 127
2, 302908, Note_off_c, 11, 70, 127
2, 302908, Note_off_c, 2, 62, 127
2, 302910, Note_on_c, 6, 54, 127
2, 302910, Note_on_c, 10, 69, 127
2, 303096, Note_off_c, 10, 69, 127
2, 303096, Note_off_c, 6, 54, 127
2, 303098, Note_on_c, 7, 55, 127
2, 303098, Note_on_c, 11, 70, 127
2, 303284, Note_off_c, 7, 55, 127
2, 303286, Note_on_c, 10, 57, 127
2, 303472, Note_off_c, 10, 57, 127
2, 303472, Note_off_c, 11, 70, 127
2, 303474, Note_on_c, 11, 58, 127
2, 303474, Note_on_c, 7, 67, 127
2, 303660, Note_off_c, 11, 58, 127
2, 303662, Note_on_c, 2, 50, 127
2, 303848, Note_off_c, 2, 50, 127
2, 303848, Note_off_c, 7, 67, 127
2, 303850, Note_on_c, 3, 51, 127
2, 303850, Note_on_c, 7, 79, 127
2, 303942, Note_off_c, 7, 79, 127
2, 303944, Note_on_c, 5, 77, 127
2, 304036, Note_off_c, 5, 77, 127
2, 304036, Note_off_c, 3, 51, 127
2, 304037, Note_on_c, 5, 53, 127
2, 304037, Note_on_c, 7, 79, 127
2, 304223, Note_off_c, 5, 53, 127
2, 304225, Note_on_c, 7, 55, 127
2, 304411, Note_off_c, 7, 55, 127
2, 304411, Note_off_c, 7, 79, 127
2, 304413, Note_on_c, 0, 48, 127
2, 304413, Note_on_c, 8, 80, 127
2, 304599, Note_off_c, 8, 80, 127
2, 304599, Note_off_c, 0, 48, 127
2, 304601, Note_on_c, 12, 47, 127
2, 304601, Note_on_c, 7, 79, 127
2, 304787, Note_off_c, 7, 79, 127
2, 304787, Note_off_c, 12, 47, 127
2, 304789, Note_on_c, 0, 48, 127
2, 304789, Note_on_c, 5, 77, 127
2, 304975, Note_off_c, 5, 77, 127
2, 304975, Note_off_c, 0, 48, 127
2, 304977, Note_on_c, 2, 50, 127
2, 304977, Note_on_c, 3, 75, 127
2, 305163, Note_off_c, 3, 75, 127
2, 305163, Note_off_c, 2, 50, 127
2, 305165, Note_on_c, 7, 43, 127
2, 305165, Note_on_c, 2, 74, 127
2, 305351, Note_off_c, 2, 74, 127
2, 305351, Note_off_c, 7, 43, 127
2, 305353, Note_on_c, 0, 48, 127
2, 305353, Note_on_c, 3, 75, 127
2, 305541, Note_on_c, 2, 74, 127
2, 305727, Note_off_c, 2, 74, 127
2, 305729, Note_on_c, 0, 72, 127
2, 305915, Note_off_c, 0, 72, 127
2, 305917, Note_on_c, 11, 70, 127
2, 306103, Note_off_c, 11, 70, 127
2, 306104, Note_off_c, 0, 48, 127
2, 306106, Note_on_c, 0, 72, 127
2, 306294, Note_on_c, 10, 69, 127
2, 306480, Note_off_c, 10, 69, 127
2, 306480, Note_off_c, 0, 72, 127
2, 306480, Note_off_c, 3, 75, 127
2, 306482, Note_on_c, 11, 70, 127
2, 306552, Note_on_c, 3, 75, 127
2, 306622, Note_on_c, 7, 79, 127
2, 306668, Note_off_c, 11, 70, 127
2, 306670, Note_on_c, 0, 72, 127
2, 306856, Note_off_c, 0, 72, 127
2, 306858, Note_off_c, 3, 75, 127
2, 306858, Note_on_c, 6, 66, 127
2, 306858, Note_on_c, 10, 81, 127
2, 306858, Note_on_c, 2, 74, 127
2, 306862, Note_off_c, 7, 79, 127
2, 307044, Note_off_c, 2, 74, 127
2, 307044, Note_off_c, 6, 66, 127
2, 307046, Note_on_c, 7, 67, 127
2, 307046, Note_on_c, 0, 72, 127
2, 307232, Note_off_c, 0, 72, 127
2, 307232, Note_off_c, 7, 67, 127
2, 307234, Note_on_c, 10, 69, 127
2, 307234, Note_on_c, 11, 70, 127
2, 307420, Note_off_c, 11, 70, 127
2, 307420, Note_off_c, 10, 69, 127
2, 307422, Note_on_c, 2, 62, 127
2, 307422, Note_on_c, 10, 69, 127
2, 307608, Note_off_c, 10, 69, 127
2, 307608, Note_off_c, 2, 62, 127
2, 307610, Note_on_c, 7, 67, 127
2, 307610, Note_on_c, 11, 70, 127
2, 307796, Note_off_c, 7, 67, 127
2, 307797, Note_on_c, 5, 65, 127
2, 307983, Note_off_c, 5, 65, 127
2, 307983, Note_off_c, 10, 81, 127
2, 307985, Note_on_c, 4, 64, 127
2, 307985, Note_on_c, 7, 79, 127
2, 308171, Note_off_c, 7, 79, 127
2, 308171, Note_off_c, 4, 64, 127
2, 308173, Note_on_c, 2, 62, 127
2, 308173, Note_on_c, 5, 77, 127
2, 308359, Note_off_c, 5, 77, 127
2, 308359, Note_off_c, 2, 62, 127
2, 308361, Note_on_c, 4, 64, 127
2, 308361, Note_on_c, 7, 79, 127
2, 308547, Note_off_c, 4, 64, 127
2, 308549, Note_on_c, 1, 61, 127
2, 308735, Note_off_c, 1, 61, 127
2, 308735, Note_off_c, 11, 70, 127
2, 308737, Note_on_c, 2, 62, 127
2, 308737, Note_on_c, 10, 69, 127
2, 308923, Note_off_c, 10, 69, 127
2, 308923, Note_off_c, 2, 62, 127
2, 308925, Note_on_c, 4, 64, 127
2, 308925, Note_on_c, 7, 67, 127
2, 309111, Note_off_c, 7, 67, 127
2, 309111, Note_off_c, 4, 64, 127
2, 309113, Note_on_c, 10, 57, 127
2, 309113, Note_on_c, 1, 73, 127
2, 309299, Note_off_c, 1, 73, 127
2, 309299, Note_off_c, 10, 57, 127
2, 309301, Note_on_c, 12, 59, 127
2, 309301, Note_on_c, 2, 74, 127
2, 309487, Note_off_c, 2, 74, 127
2, 309487, Note_off_c, 12, 59, 127
2, 309489, Note_on_c, 1, 61, 127
2, 309489, Note_on_c, 4, 76, 127
2, 309675, Note_off_c, 4, 76, 127
2, 309675, Note_off_c, 1, 61, 127
2, 309677, Note_on_c, 7, 55, 127
2, 309677, Note_on_c, 11, 70, 127
2, 309863, Note_off_c, 11, 70, 127
2, 309863, Note_off_c, 7, 55, 127
2, 309865, Note_on_c, 5, 53, 127
2, 309865, Note_on_c, 10, 69, 127
2, 310053, Note_on_c, 10, 57, 127
2, 310239, Note_off_c, 10, 57, 127
2, 310240, Note_on_c, 12, 59, 127
2, 310329, Note_off_c, 7, 79, 127
2, 310426, Note_off_c, 12, 59, 127
2, 310428, Note_on_c, 1, 61, 127
2, 310428, Note_on_c, 10, 81, 127
2, 310614, Note_off_c, 10, 81, 127
2, 310614, Note_off_c, 1, 61, 127
2, 310616, Note_on_c, 2, 62, 127
2, 310616, Note_on_c, 7, 79, 127
2, 310786, Note_off_c, 7, 79, 127
2, 310790, Note_on_c, 5, 77, 127
2, 310864, Note_on_c, 7, 79, 127
2, 310882, Note_off_c, 5, 77, 127
2, 310938, Note_on_c, 5, 77, 127
2, 310956, Note_off_c, 7, 79, 127
2, 310990, Note_off_c, 10, 69, 127
2, 310990, Note_off_c, 5, 53, 127
2, 310992, Note_on_c, 7, 55, 127
2, 311012, Note_on_c, 7, 79, 127
2, 311030, Note_off_c, 5, 77, 127
2, 311086, Note_on_c, 5, 77, 127
2, 311104, Note_off_c, 7, 79, 127
2, 311178, Note_off_c, 5, 77, 127
2, 311180, Note_on_c, 4, 76, 127
2, 311366, Note_off_c, 4, 76, 127
2, 311366, Note_off_c, 7, 55, 127
2, 311367, Note_off_c, 2, 62, 127
2, 311370, Note_on_c, 10, 57, 127
2, 311370, Note_on_c, 5, 77, 127
2, 311370, Note_on_c, 1, 73, 127
2, 311520, Note_off_c, 5, 77, 127
2, 311524, Note_on_c, 4, 76, 127
2, 311603, Note_on_c, 5, 77, 127
2, 311616, Note_off_c, 4, 76, 127
2, 311681, Note_on_c, 4, 76, 127
2, 311695, Note_off_c, 5, 77, 127
2, 311745, Note_on_c, 10, 45, 127
2, 311760, Note_on_c, 5, 77, 127
2, 311773, Note_off_c, 4, 76, 127
2, 311839, Note_on_c, 4, 76, 127
2, 311852, Note_off_c, 5, 77, 127
2, 311931, Note_off_c, 4, 76, 127
2, 311933, Note_off_c, 1, 73, 127
2, 311935, Note_on_c, 2, 74, 127
2, 312120, Note_off_c, 10, 45, 127
2, 312121, Note_off_c, 2, 74, 127
2, 312123, Note_off_c, 10, 57, 127
2, 312125, Note_on_c, 2, 50, 127
2, 312125, Note_on_c, 2, 74, 127
2, 312502, Note_on_c, 2, 38, 127
2, 312879, Note_on_c, 10, 45, 127
2, 313254, Note_off_c, 10, 45, 127
2, 313255, Note_off_c, 2, 74, 127
2, 313255, Note_off_c, 2, 50, 127
2, 313257, Note_on_c, 2, 50, 127
2, 313257, Note_on_c, 10, 69, 127
2, 313257, Note_on_c, 6, 66, 127
2, 314198, Note_off_c, 6, 66, 127
2, 314198, Note_off_c, 10, 69, 127
2, 314200, Note_on_c, 10, 81, 127
2, 314386, Note_off_c, 10, 81, 127
2, 314386, Note_off_c, 2, 50, 127
2, 314387, Note_off_c, 2, 38, 127
2, 314388, Note_on_c, 2, 50, 127
2, 314388, Note_on_c, 10, 81, 127
2, 314576, Note_on_c, 7, 79, 127
2, 314762, Note_off_c, 7, 79, 127
2, 314763, Note_on_c, 6, 78, 127
2, 314949, Note_off_c, 6, 78, 127
2, 314951, Note_on_c, 4, 76, 127
2, 315137, Note_off_c, 4, 76, 127
2, 315139, Note_off_c, 10, 81, 127
2, 315139, Note_off_c, 2, 50, 127
2, 315141, Note_on_c, 6, 78, 127
2, 315329, Note_on_c, 3, 75, 127
2, 315515, Note_off_c, 3, 75, 127
2, 315515, Note_off_c, 6, 78, 127
2, 315517, Note_on_c, 2, 74, 127
2, 315517, Note_on_c, 6, 78, 127
2, 315703, Note_off_c, 2, 74, 127
2, 315705, Note_on_c, 0, 72, 127
2, 315891, Note_off_c, 0, 72, 127
2, 315891, Note_off_c, 6, 78, 127
2, 315893, Note_on_c, 11, 70, 127
2, 315963, Note_on_c, 2, 74, 127
2, 316034, Note_on_c, 7, 79, 127
2, 316079, Note_off_c, 11, 70, 127
2, 316081, Note_on_c, 10, 69, 127
2, 316267, Note_off_c, 10, 69, 127
2, 316268, Note_on_c, 7, 67, 127
2, 316454, Note_off_c, 7, 67, 127
2, 316456, Note_on_c, 6, 66, 127
2, 316456, Note_on_c, 10, 81, 127
2, 316463, Note_off_c, 7, 79, 127
2, 316642, Note_off_c, 10, 81, 127
2, 316642, Note_off_c, 6, 66, 127
2, 316644, Note_on_c, 7, 67, 127
2, 316644, Note_on_c, 10, 81, 127
2, 316830, Note_off_c, 10, 81, 127
2, 316832, Note_on_c, 11, 82, 127
2, 317018, Note_off_c, 7, 67, 127
2, 317020, Note_on_c, 7, 55, 127
2, 317206, Note_off_c, 7, 55, 127
2, 317206, Note_off_c, 11, 82, 127
2, 317208, Note_on_c, 10, 57, 127
2, 317208, Note_on_c, 10, 81, 127
2, 317383, Note_off_c, 2, 74, 127
2, 317394, Note_off_c, 10, 81, 127
2, 317394, Note_off_c, 10, 57, 127
2, 317396, Note_on_c, 11, 58, 127
2, 317396, Note_on_c, 7, 79, 127
2, 317582, Note_off_c, 7, 79, 127
2, 317584, Note_on_c, 10, 81, 127
2, 317770, Note_off_c, 10, 81, 127
2, 317770, Note_off_c, 11, 58, 127
2, 317772, Note_on_c, 7, 55, 127
2, 317772, Note_on_c, 11, 82, 127
2, 317958, Note_off_c, 11, 82, 127
2, 317960, Note_on_c, 5, 77, 127
2, 318146, Note_off_c, 5, 77, 127
2, 318146, Note_off_c, 7, 55, 127
2, 318148, Note_on_c, 0, 60, 127
2, 318148, Note_on_c, 5, 77, 127
2, 318334, Note_off_c, 5, 77, 127
2, 318336, Note_on_c, 4, 76, 127
2, 318522, Note_off_c, 4, 76, 127
2, 318522, Note_off_c, 0, 60, 127
2, 318524, Note_on_c, 11, 58, 127
2, 318524, Note_on_c, 2, 74, 127
2, 318710, Note_off_c, 2, 74, 127
2, 318711, Note_on_c, 0, 72, 127
2, 318897, Note_off_c, 0, 72, 127
2, 318898, Note_off_c, 11, 58, 127
2, 318899, Note_on_c, 10, 57, 127
2, 318899, Note_on_c, 0, 84, 127
2, 319085, Note_off_c, 10, 57, 127
2, 319087, Note_on_c, 0, 60, 127
2, 319273, Note_off_c, 0, 60, 127
2, 319275, Note_on_c, 2, 62, 127
2, 319461, Note_off_c, 2, 62, 127
2, 319461, Note_off_c, 0, 84, 127
2, 319463, Note_on_c, 4, 64, 127
2, 319463, Note_on_c, 7, 79, 127
2, 319649, Note_off_c, 7, 79, 127
2, 319649, Note_off_c, 4, 64, 127
2, 319651, Note_on_c, 5, 65, 127
2, 319651, Note_on_c, 10, 81, 127
2, 319837, Note_off_c, 10, 81, 127
2, 319839, Note_on_c, 4, 76, 127
2, 320025, Note_off_c, 4, 76, 127
2, 320025, Note_off_c, 5, 65, 127
2, 320027, Note_on_c, 11, 58, 127
2, 320027, Note_on_c, 5, 77, 127
2, 320213, Note_off_c, 5, 77, 127
2, 320215, Note_on_c, 11, 82, 127
2, 320401, Note_off_c, 11, 82, 127
2, 320401, Note_off_c, 11, 58, 127
2, 320403, Note_on_c, 0, 60, 127
2, 320403, Note_on_c, 10, 81, 127
2, 320403, Note_on_c, 4, 76, 127
2, 320573, Note_off_c, 10, 81, 127
2, 320577, Note_on_c, 7, 79, 127
2, 320652, Note_on_c, 10, 81, 127
2, 320669, Note_off_c, 7, 79, 127
2, 320725, Note_on_c, 7, 79, 127
2, 320744, Note_off_c, 10, 81, 127
2, 320779, Note_on_c, 0, 48, 127
2, 320799, Note_on_c, 10, 81, 127
2, 320817, Note_off_c, 7, 79, 127
2, 320873, Note_on_c, 7, 79, 127
2, 320891, Note_off_c, 10, 81, 127
2, 320965, Note_off_c, 7, 79, 127
2, 320966, Note_on_c, 5, 77, 127
2, 321058, Note_off_c, 5, 77, 127
2, 321060, Note_on_c, 7, 79, 127
2, 321152, Note_off_c, 7, 79, 127
2, 321153, Note_off_c, 0, 48, 127
2, 321154, Note_off_c, 4, 76, 127
2, 321154, Note_off_c, 0, 60, 127
2, 321156, Note_on_c, 5, 53, 127
2, 321156, Note_on_c, 5, 77, 127
2, 321342, Note_off_c, 5, 53, 127
2, 321344, Note_on_c, 7, 55, 127
2, 321530, Note_off_c, 7, 55, 127
2, 321532, Note_on_c, 8, 56, 127
2, 321718, Note_off_c, 8, 56, 127
2, 321720, Note_on_c, 7, 55, 127
2, 321906, Note_off_c, 7, 55, 127
2, 321908, Note_on_c, 5, 53, 127
2, 322093, Note_off_c, 5, 77, 127
2, 322094, Note_off_c, 5, 53, 127
2, 322096, Note_on_c, 3, 51, 127
2, 322096, Note_on_c, 7, 79, 127
2, 322282, Note_off_c, 7, 79, 127
2, 322282, Note_off_c, 3, 51, 127
2, 322284, Note_on_c, 2, 50, 127
2, 322284, Note_on_c, 8, 80, 127
2, 322470, Note_off_c, 8, 80, 127
2, 322470, Note_off_c, 2, 50, 127
2, 322471, Note_on_c, 3, 51, 127
2, 322471, Note_on_c, 7, 79, 127
2, 322657, Note_off_c, 7, 79, 127
2, 322657, Note_off_c, 3, 51, 127
2, 322659, Note_on_c, 12, 47, 127
2, 322659, Note_on_c, 5, 77, 127
2, 322845, Note_off_c, 5, 77, 127
2, 322847, Note_on_c, 3, 75, 127
2, 323033, Note_off_c, 3, 75, 127
2, 323033, Note_off_c, 12, 47, 127
2, 323035, Note_on_c, 0, 48, 127
2, 323035, Note_on_c, 2, 74, 127
2, 323221, Note_off_c, 2, 74, 127
2, 323223, Note_on_c, 3, 75, 127
2, 323409, Note_off_c, 3, 75, 127
2, 323409, Note_off_c, 0, 48, 127
2, 323411, Note_on_c, 7, 43, 127
2, 323411, Note_on_c, 0, 72, 127
2, 323597, Note_off_c, 0, 72, 127
2, 323599, Note_on_c, 12, 71, 127
2, 323785, Note_off_c, 12, 71, 127
2, 323785, Note_off_c, 7, 43, 127
2, 323787, Note_on_c, 7, 55, 127
2, 323787, Note_on_c, 10, 69, 127
2, 323973, Note_off_c, 10, 69, 127
2, 323973, Note_off_c, 7, 55, 127
2, 323975, Note_on_c, 5, 53, 127
2, 323975, Note_on_c, 7, 67, 127
2, 324161, Note_off_c, 7, 67, 127
2, 324161, Note_off_c, 5, 53, 127
2, 324163, Note_on_c, 3, 51, 127
2, 324163, Note_on_c, 0, 72, 127
2, 324349, Note_off_c, 0, 72, 127
2, 324351, Note_on_c, 12, 71, 127
2, 324537, Note_off_c, 12, 71, 127
2, 324537, Note_off_c, 3, 51, 127
2, 324539, Note_on_c, 8, 56, 127
2, 324539, Note_on_c, 0, 72, 127
2, 324725, Note_off_c, 0, 72, 127
2, 324726, Note_on_c, 3, 75, 127
2, 324912, Note_off_c, 3, 75, 127
2, 324913, Note_off_c, 8, 56, 127
2, 324914, Note_on_c, 5, 53, 127
2, 324914, Note_on_c, 2, 74, 127
2, 325100, Note_off_c, 2, 74, 127
2, 325102, Note_on_c, 3, 75, 127
2, 325288, Note_off_c, 3, 75, 127
2, 325288, Note_off_c, 5, 53, 127
2, 325290, Note_on_c, 7, 55, 127
2, 325290, Note_on_c, 5, 77, 127
2, 325476, Note_off_c, 5, 77, 127
2, 325478, Note_on_c, 2, 74, 127
2, 325664, Note_off_c, 2, 74, 127
2, 325664, Note_off_c, 7, 55, 127
2, 325666, Note_on_c, 0, 48, 127
2, 325666, Note_on_c, 5, 77, 127
2, 325852, Note_off_c, 5, 77, 127
2, 325854, Note_on_c, 3, 75, 127
2, 326040, Note_off_c, 3, 75, 127
2, 326040, Note_off_c, 0, 48, 127
2, 326042, Note_on_c, 0, 60, 127
2, 326042, Note_on_c, 2, 74, 127
2, 326228, Note_off_c, 2, 74, 127
2, 326228, Note_off_c, 0, 60, 127
2, 326230, Note_on_c, 11, 58, 127
2, 326230, Note_on_c, 0, 72, 127
2, 326416, Note_off_c, 0, 72, 127
2, 326416, Note_off_c, 11, 58, 127
2, 326418, Note_on_c, 8, 56, 127
2, 326418, Note_on_c, 2, 74, 127
2, 326604, Note_off_c, 2, 74, 127
2, 326606, Note_on_c, 4, 76, 127
2, 326792, Note_off_c, 4, 76, 127
2, 326792, Note_off_c, 8, 56, 127
2, 326794, Note_on_c, 1, 61, 127
2, 326794, Note_on_c, 5, 77, 127
2, 326980, Note_off_c, 5, 77, 127
2, 326982, Note_on_c, 7, 79, 127
2, 327168, Note_off_c, 7, 79, 127
2, 327168, Note_off_c, 1, 61, 127
2, 327169, Note_on_c, 11, 58, 127
2, 327169, Note_on_c, 8, 80, 127
2, 327329, Note_off_c, 8, 80, 127
2, 327333, Note_on_c, 7, 79, 127
2, 327417, Note_on_c, 8, 80, 127
2, 327425, Note_off_c, 7, 79, 127
2, 327501, Note_on_c, 7, 79, 127
2, 327509, Note_off_c, 8, 80, 127
2, 327543, Note_off_c, 11, 58, 127
2, 327545, Note_on_c, 0, 60, 127
2, 327586, Note_on_c, 8, 80, 127
2, 327593, Note_off_c, 7, 79, 127
2, 327669, Note_on_c, 7, 79, 127
2, 327678, Note_off_c, 8, 80, 127
2, 327753, Note_on_c, 5, 77, 127
2, 327761, Note_off_c, 7, 79, 127
2, 327837, Note_on_c, 7, 79, 127
2, 327845, Note_off_c, 5, 77, 127
2, 327919, Note_off_c, 0, 60, 127
2, 327921, Note_on_c, 5, 53, 127
2, 327921, Note_on_c, 8, 80, 127
2, 327929, Note_off_c, 7, 79, 127
2, 328107, Note_off_c, 5, 53, 127
2, 328109, Note_on_c, 3, 51, 127
2, 328295, Note_off_c, 3, 51, 127
2, 328297, Note_on_c, 5, 53, 127
2, 328483, Note_off_c, 5, 53, 127
2, 328483, Note_off_c, 8, 80, 127
2, 328485, Note_on_c, 2, 50, 127
2, 328485, Note_on_c, 12, 71, 127
2, 328671, Note_off_c, 12, 71, 127
2, 328671, Note_off_c, 2, 50, 127
2, 328673, Note_on_c, 3, 51, 127
2, 328673, Note_on_c, 0, 72, 127
2, 328765, Note_off_c, 0, 72, 127
2, 328767, Note_on_c, 12, 71, 127
2, 328859, Note_off_c, 12, 71, 127
2, 328859, Note_off_c, 3, 51, 127
2, 328861, Note_on_c, 8, 56, 127
2, 328861, Note_on_c, 0, 72, 127
2, 329047, Note_off_c, 8, 56, 127
2, 329049, Note_on_c, 7, 55, 127
2, 329235, Note_off_c, 7, 55, 127
2, 329235, Note_off_c, 0, 72, 127
2, 329237, Note_on_c, 5, 53, 127
2, 329237, Note_on_c, 2, 74, 127
2, 329423, Note_off_c, 2, 74, 127
2, 329423, Note_off_c, 5, 53, 127
2, 329424, Note_on_c, 7, 55, 127
2, 329424, Note_on_c, 3, 75, 127
2, 329424, Note_on_c, 12, 71, 127
2, 329564, Note_off_c, 3, 75, 127
2, 329568, Note_on_c, 2, 74, 127
2, 329652, Note_on_c, 3, 75, 127
2, 329660, Note_off_c, 2, 74, 127
2, 329736, Note_on_c, 2, 74, 127
2, 329744, Note_off_c, 3, 75, 127
2, 329798, Note_off_c, 7, 55, 127
2, 329800, Note_on_c, 7, 43, 127
2, 329820, Note_on_c, 3, 75, 127
2, 329828, Note_off_c, 2, 74, 127
2, 329904, Note_on_c, 2, 74, 127
2, 329912, Note_off_c, 3, 75, 127
2, 329987, Note_off_c, 12, 71, 127
2, 329990, Note_on_c, 0, 72, 127
2, 329996, Note_off_c, 2, 74, 127
2, 330175, Note_off_c, 7, 43, 127
2, 330176, Note_off_c, 0, 72, 127
2, 330178, Note_on_c, 0, 36, 127
2, 330178, Note_on_c, 0, 72, 127
2, 330553, Note_off_c, 0, 36, 127
2, 330555, Note_on_c, 0, 60, 127
2, 330741, Note_off_c, 0, 60, 127
2, 330743, Note_on_c, 11, 58, 127
2, 330929, Note_off_c, 11, 58, 127
2, 330931, Note_on_c, 0, 60, 127
2, 331117, Note_off_c, 0, 60, 127
2, 331117, Note_off_c, 0, 72, 127
2, 331119, Note_on_c, 11, 58, 127
2, 331119, Note_on_c, 2, 74, 127
2, 331305, Note_off_c, 2, 74, 127
2, 331305, Note_off_c, 11, 58, 127
2, 331307, Note_on_c, 10, 57, 127
2, 331307, Note_on_c, 3, 75, 127
2, 331493, Note_off_c, 3, 75, 127
2, 331493, Note_off_c, 10, 57, 127
2, 331495, Note_on_c, 11, 58, 127
2, 331495, Note_on_c, 2, 74, 127
2, 331681, Note_off_c, 2, 74, 127
2, 331681, Note_off_c, 11, 58, 127
2, 331683, Note_on_c, 3, 51, 127
2, 331683, Note_on_c, 0, 72, 127
2, 331869, Note_off_c, 0, 72, 127
2, 331871, Note_on_c, 11, 70, 127
2, 332057, Note_off_c, 11, 70, 127
2, 332057, Note_off_c, 3, 51, 127
2, 332059, Note_on_c, 7, 55, 127
2, 332059, Note_on_c, 10, 69, 127
2, 332245, Note_off_c, 10, 69, 127
2, 332247, Note_on_c, 11, 70, 127
2, 332433, Note_off_c, 11, 70, 127
2, 332433, Note_off_c, 7, 55, 127
2, 332434, Note_on_c, 5, 53, 127
2, 332434, Note_on_c, 11, 70, 127
2, 332620, Note_off_c, 11, 70, 127
2, 332622, Note_on_c, 10, 69, 127
2, 332808, Note_off_c, 10, 69, 127
2, 332808, Note_off_c, 5, 53, 127
2, 332810, Note_on_c, 3, 51, 127
2, 332810, Note_on_c, 7, 67, 127
2, 332996, Note_off_c, 7, 67, 127
2, 332998, Note_on_c, 5, 65, 127
2, 333184, Note_off_c, 5, 65, 127
2, 333184, Note_off_c, 3, 51, 127
2, 333186, Note_on_c, 2, 50, 127
2, 333186, Note_on_c, 7, 67, 127
2, 333372, Note_off_c, 7, 67, 127
2, 333374, Note_on_c, 10, 69, 127
2, 333560, Note_off_c, 10, 69, 127
2, 333560, Note_off_c, 2, 50, 127
2, 333562, Note_on_c, 7, 55, 127
2, 333562, Note_on_c, 11, 70, 127
2, 333748, Note_off_c, 11, 70, 127
2, 333750, Note_on_c, 0, 72, 127
2, 333936, Note_off_c, 0, 72, 127
2, 333936, Note_off_c, 7, 55, 127
2, 333938, Note_on_c, 3, 51, 127
2, 333938, Note_on_c, 2, 74, 127
2, 334098, Note_off_c, 2, 74, 127
2, 334102, Note_on_c, 0, 72, 127
2, 334186, Note_on_c, 2, 74, 127
2, 334194, Note_off_c, 0, 72, 127
2, 334270, Note_on_c, 0, 72, 127
2, 334278, Note_off_c, 2, 74, 127
2, 334312, Note_off_c, 3, 51, 127
2, 334314, Note_on_c, 5, 53, 127
2, 334354, Note_on_c, 2, 74, 127
2, 334362, Note_off_c, 0, 72, 127
2, 334438, Note_on_c, 0, 72, 127
2, 334446, Note_off_c, 2, 74, 127
2, 334522, Note_on_c, 11, 70, 127
2, 334530, Note_off_c, 0, 72, 127
2, 334606, Note_on_c, 0, 72, 127
2, 334614, Note_off_c, 11, 70, 127
2, 334688, Note_off_c, 5, 53, 127
2, 334689, Note_on_c, 11, 46, 127
2, 334689, Note_on_c, 2, 74, 127
2, 334698, Note_off_c, 0, 72, 127
2, 334877, Note_on_c, 0, 72, 127
2, 335063, Note_off_c, 0, 72, 127
2, 335063, Note_off_c, 11, 46, 127
2, 335065, Note_on_c, 5, 53, 127
2, 335065, Note_on_c, 11, 70, 127
2, 335251, Note_off_c, 11, 70, 127
2, 335253, Note_on_c, 10, 69, 127
2, 335439, Note_off_c, 10, 69, 127
2, 335439, Note_off_c, 5, 53, 127
2, 335441, Note_on_c, 11, 58, 127
2, 335441, Note_on_c, 11, 70, 127
2, 335627, Note_off_c, 11, 70, 127
2, 335629, Note_on_c, 7, 67, 127
2, 335815, Note_off_c, 7, 67, 127
2, 335817, Note_on_c, 10, 69, 127
2, 336003, Note_off_c, 10, 69, 127
2, 336005, Note_on_c, 11, 70, 127
2, 336187, Note_off_c, 2, 74, 127
2, 336191, Note_off_c, 11, 70, 127
2, 336193, Note_on_c, 4, 64, 127
2, 336378, Note_off_c, 11, 58, 127
2, 336381, Note_on_c, 2, 62, 127
2, 336381, Note_on_c, 7, 67, 127
2, 336567, Note_off_c, 7, 67, 127
2, 336567, Note_off_c, 2, 62, 127
2, 336569, Note_on_c, 0, 60, 127
2, 336569, Note_on_c, 10, 69, 127
2, 336755, Note_off_c, 10, 69, 127
2, 336755, Note_off_c, 0, 60, 127
2, 336757, Note_on_c, 11, 58, 127
2, 336757, Note_on_c, 11, 70, 127
2, 336943, Note_off_c, 11, 70, 127
2, 336943, Note_off_c, 11, 58, 127
2, 336944, Note_off_c, 4, 64, 127
2, 336946, Note_on_c, 10, 57, 127
2, 336946, Note_on_c, 0, 72, 127
2, 337134, Note_on_c, 11, 70, 127
2, 337320, Note_off_c, 11, 70, 127
2, 337320, Note_off_c, 10, 57, 127
2, 337322, Note_on_c, 7, 55, 127
2, 337322, Note_on_c, 10, 69, 127
2, 337508, Note_off_c, 10, 69, 127
2, 337510, Note_on_c, 7, 67, 127
2, 337696, Note_off_c, 7, 67, 127
2, 337696, Note_off_c, 7, 55, 127
2, 337698, Note_on_c, 6, 54, 127
2, 337698, Note_on_c, 10, 69, 127
2, 337884, Note_off_c, 10, 69, 127
2, 337886, Note_on_c, 6, 66, 127
2, 338072, Note_off_c, 6, 66, 127
2, 338074, Note_on_c, 7, 67, 127
2, 338260, Note_off_c, 7, 67, 127
2, 338262, Note_on_c, 10, 69, 127
2, 338448, Note_off_c, 10, 69, 127
2, 338450, Note_on_c, 2, 62, 127
2, 338630, Note_off_c, 0, 72, 127
2, 338637, Note_off_c, 6, 54, 127
2, 338639, Note_on_c, 2, 50, 127
2, 338639, Note_on_c, 0, 72, 127
2, 338825, Note_off_c, 0, 72, 127
2, 338825, Note_off_c, 2, 50, 127
2, 338827, Note_on_c, 4, 52, 127
2, 338827, Note_on_c, 11, 70, 127
2, 339013, Note_off_c, 11, 70, 127
2, 339013, Note_off_c, 4, 52, 127
2, 339015, Note_on_c, 6, 54, 127
2, 339015, Note_on_c, 10, 69, 127
2, 339201, Note_off_c, 10, 69, 127
2, 339201, Note_off_c, 6, 54, 127
2, 339203, Note_off_c, 2, 62, 127
2, 339204, Note_on_c, 7, 55, 127
2, 339204, Note_on_c, 11, 70, 127
2, 339392, Note_on_c, 10, 69, 127
2, 339578, Note_off_c, 10, 69, 127
2, 339578, Note_off_c, 7, 55, 127
2, 339580, Note_on_c, 2, 50, 127
2, 339580, Note_on_c, 7, 67, 127
2, 339766, Note_off_c, 7, 67, 127
2, 339768, Note_on_c, 6, 66, 127
2, 339954, Note_off_c, 6, 66, 127
2, 339954, Note_off_c, 2, 50, 127
2, 339956, Note_on_c, 7, 43, 127
2, 339956, Note_on_c, 7, 67, 127
2, 340142, Note_off_c, 7, 67, 127
2, 340144, Note_on_c, 3, 63, 127
2, 340330, Note_off_c, 3, 63, 127
2, 340332, Note_on_c, 5, 65, 127
2, 340514, Note_off_c, 11, 70, 127
2, 340518, Note_off_c, 5, 65, 127
2, 340520, Note_on_c, 7, 67, 127
2, 340520, Note_on_c, 11, 70, 127
2, 340706, Note_off_c, 11, 70, 127
2, 340706, Note_off_c, 7, 67, 127
2, 340707, Note_off_c, 7, 43, 127
2, 340709, Note_on_c, 2, 62, 127
2, 340709, Note_on_c, 11, 70, 127
2, 340873, Note_on_c, 1, 61, 127
2, 340879, Note_off_c, 2, 62, 127
2, 340895, Note_off_c, 11, 70, 127
2, 340897, Note_on_c, 10, 69, 127
2, 340957, Note_on_c, 2, 62, 127
2, 340965, Note_off_c, 1, 61, 127
2, 341041, Note_on_c, 1, 61, 127
2, 341049, Note_off_c, 2, 62, 127
2, 341083, Note_off_c, 10, 69, 127
2, 341085, Note_on_c, 11, 70, 127
2, 341125, Note_on_c, 2, 62, 127
2, 341133, Note_off_c, 1, 61, 127
2, 341209, Note_on_c, 1, 61, 127
2, 341217, Note_off_c, 2, 62, 127
2, 341271, Note_off_c, 11, 70, 127
2, 341273, Note_on_c, 7, 67, 127
2, 341293, Note_on_c, 12, 59, 127
2, 341301, Note_off_c, 1, 61, 127
2, 341377, Note_on_c, 1, 61, 127
2, 341385, Note_off_c, 12, 59, 127
2, 341454, Note_off_c, 7, 67, 127
2, 341461, Note_on_c, 2, 62, 127
2, 341461, Note_on_c, 7, 67, 127
2, 341469, Note_off_c, 1, 61, 127
2, 341649, Note_on_c, 11, 58, 127
2, 341695, Note_on_c, 6, 66, 127
2, 341712, Note_off_c, 7, 67, 127
2, 341770, Note_on_c, 7, 67, 127
2, 341787, Note_off_c, 6, 66, 127
2, 341835, Note_off_c, 11, 58, 127
2, 341837, Note_on_c, 10, 57, 127
2, 341862, Note_off_c, 7, 67, 127
2, 341863, Note_on_c, 6, 66, 127
2, 341937, Note_on_c, 7, 67, 127
2, 341955, Note_off_c, 6, 66, 127
2, 342011, Note_on_c, 6, 66, 127
2, 342023, Note_off_c, 10, 57, 127
2, 342025, Note_on_c, 7, 55, 127
2, 342029, Note_off_c, 7, 67, 127
2, 342085, Note_on_c, 7, 67, 127
2, 342103, Note_off_c, 6, 66, 127
2, 342159, Note_on_c, 6, 66, 127
2, 342177, Note_off_c, 7, 67, 127
2, 342211, Note_off_c, 7, 55, 127
2, 342213, Note_on_c, 10, 57, 127
2, 342233, Note_on_c, 7, 67, 127
2, 342251, Note_off_c, 6, 66, 127
2, 342307, Note_on_c, 6, 66, 127
2, 342325, Note_off_c, 7, 67, 127
2, 342381, Note_on_c, 7, 67, 127
2, 342399, Note_off_c, 6, 66, 127
2, 342399, Note_off_c, 10, 57, 127
2, 342401, Note_on_c, 2, 50, 127
2, 342455, Note_on_c, 6, 66, 127
2, 342473, Note_off_c, 7, 67, 127
2, 342585, Note_off_c, 6, 66, 127
2, 342587, Note_off_c, 2, 50, 127
2, 342589, Note_on_c, 3, 51, 127
2, 342589, Note_on_c, 7, 67, 127
2, 342775, Note_off_c, 7, 67, 127
2, 342775, Note_off_c, 3, 51, 127
2, 342777, Note_on_c, 0, 48, 127
2, 342777, Note_on_c, 10, 69, 127
2, 342963, Note_off_c, 10, 69, 127
2, 342963, Note_off_c, 0, 48, 127
2, 342964, Note_on_c, 12, 47, 127
2, 342964, Note_on_c, 7, 67, 127
2, 343145, Note_off_c, 2, 62, 127
2, 343151, Note_off_c, 7, 67, 127
2, 343151, Note_off_c, 12, 47, 127
2, 343154, Note_on_c, 0, 48, 127
2, 343154, Note_on_c, 5, 65, 127
2, 343340, Note_off_c, 5, 65, 127
2, 343340, Note_off_c, 0, 48, 127
2, 343342, Note_on_c, 2, 50, 127
2, 343342, Note_on_c, 3, 63, 127
2, 343528, Note_off_c, 3, 63, 127
2, 343528, Note_off_c, 2, 50, 127
2, 343530, Note_on_c, 7, 43, 127
2, 343530, Note_on_c, 2, 62, 127
2, 343716, Note_off_c, 2, 62, 127
2, 343716, Note_off_c, 7, 43, 127
2, 343718, Note_on_c, 0, 48, 127
2, 343718, Note_on_c, 3, 63, 127
2, 343904, Note_off_c, 0, 48, 127
2, 343906, Note_on_c, 2, 50, 127
2, 343906, Note_on_c, 11, 58, 127
2, 344092, Note_off_c, 11, 58, 127
2, 344092, Note_off_c, 2, 50, 127
2, 344094, Note_on_c, 0, 48, 127
2, 344094, Note_on_c, 10, 57, 127
2, 344280, Note_off_c, 10, 57, 127
2, 344280, Note_off_c, 0, 48, 127
2, 344282, Note_on_c, 11, 46, 127
2, 344282, Note_on_c, 7, 55, 127
2, 344468, Note_off_c, 7, 55, 127
2, 344468, Note_off_c, 11, 46, 127
2, 344469, Note_off_c, 3, 63, 127
2, 344471, Note_on_c, 10, 45, 127
2, 344471, Note_on_c, 0, 60, 127
2, 344657, Note_off_c, 0, 60, 127
2, 344659, Note_on_c, 3, 63, 127
2, 344845, Note_off_c, 3, 63, 127
2, 344845, Note_off_c, 10, 45, 127
2, 344847, Note_on_c, 11, 46, 127
2, 344847, Note_on_c, 7, 67, 127
2, 345033, Note_off_c, 7, 67, 127
2, 345035, Note_on_c, 11, 70, 127
2, 345221, Note_off_c, 11, 70, 127
2, 345221, Note_off_c, 11, 46, 127
2, 345223, Note_on_c, 0, 48, 127
2, 345223, Note_on_c, 10, 69, 127
2, 345409, Note_off_c, 10, 69, 127
2, 345409, Note_off_c, 0, 48, 127
2, 345411, Note_on_c, 3, 51, 127
2, 345411, Note_on_c, 6, 66, 127
2, 345597, Note_off_c, 6, 66, 127
2, 345597, Note_off_c, 3, 51, 127
2, 345599, Note_on_c, 2, 50, 127
2, 345599, Note_on_c, 7, 67, 127
2, 345785, Note_off_c, 7, 67, 127
2, 345785, Note_off_c, 2, 50, 127
2, 345786, Note_on_c, 0, 48, 127
2, 345786, Note_on_c, 10, 69, 127
2, 345972, Note_off_c, 10, 69, 127
2, 345972, Note_off_c, 0, 48, 127
2, 345974, Note_on_c, 6, 54, 127
2, 345974, Note_on_c, 2, 62, 127
2, 346162, Note_on_c, 6, 66, 127
2, 346348, Note_off_c, 6, 66, 127
2, 346348, Note_off_c, 6, 54, 127
2, 346350, Note_on_c, 2, 50, 127
2, 346350, Note_on_c, 10, 69, 127
2, 346536, Note_off_c, 10, 69, 127
2, 346538, Note_on_c, 0, 72, 127
2, 346724, Note_off_c, 0, 72, 127
2, 346724, Note_off_c, 2, 50, 127
2, 346725, Note_off_c, 2, 62, 127
2, 346728, Note_on_c, 7, 55, 127
2, 346728, Note_on_c, 0, 72, 127
2, 346728, Note_on_c, 7, 67, 127
2, 346885, Note_off_c, 0, 72, 127
2, 346902, Note_on_c, 11, 70, 127
2, 346976, Note_on_c, 0, 72, 127
2, 346994, Note_off_c, 11, 70, 127
2, 347050, Note_on_c, 11, 70, 127
2, 347068, Note_off_c, 0, 72, 127
2, 347102, Note_off_c, 7, 55, 127
2, 347104, Note_on_c, 0, 48, 127
2, 347124, Note_on_c, 0, 72, 127
2, 347142, Note_off_c, 11, 70, 127
2, 347198, Note_on_c, 11, 70, 127
2, 347216, Note_off_c, 0, 72, 127
2, 347290, Note_off_c, 11, 70, 127
2, 347291, Note_off_c, 7, 67, 127
2, 347293, Note_on_c, 10, 69, 127
2, 347480, Note_off_c, 10, 69, 127
2, 347481, Note_off_c, 0, 48, 127
2, 347483, Note_on_c, 2, 50, 127
2, 347483, Note_on_c, 11, 70, 127
2, 347483, Note_on_c, 6, 66, 127
2, 347578, Note_off_c, 11, 70, 127
2, 347580, Note_on_c, 10, 69, 127
2, 347675, Note_off_c, 10, 69, 127
2, 347677, Note_on_c, 11, 70, 127
2, 347772, Note_off_c, 11, 70, 127
2, 347774, Note_on_c, 10, 69, 127
2, 347869, Note_off_c, 10, 69, 127
2, 347871, Note_on_c, 2, 38, 127
2, 347871, Note_on_c, 11, 70, 127
2, 347966, Note_off_c, 11, 70, 127
2, 347969, Note_on_c, 10, 69, 127
2, 348064, Note_off_c, 10, 69, 127
2, 348066, Note_off_c, 6, 66, 127
2, 348067, Note_on_c, 7, 67, 127
2, 348259, Note_off_c, 7, 67, 127
2, 348259, Note_off_c, 2, 38, 127
2, 348262, Note_off_c, 2, 50, 127
2, 348263, Note_on_c, 7, 43, 127
2, 348263, Note_on_c, 7, 67, 127
2, 348675, Note_on_c, 11, 46, 127
2, 349083, Note_off_c, 11, 46, 127
2, 349085, Note_on_c, 2, 50, 127
2, 349493, Note_off_c, 2, 50, 127
2, 349495, Note_on_c, 7, 55, 127
2, 349495, Note_on_c, 2, 62, 127
2, 349495, Note_on_c, 11, 58, 127
2, 351695, Note_off_c, 11, 58, 127
2, 351695, Note_off_c, 2, 62, 127
2, 351695, Note_off_c, 7, 55, 127
2, 351713, Note_off_c, 7, 67, 127
2, 351713, Note_off_c, 7, 43, 127
2, 353577, Note_on_c, 11, 70, 127
2, 353577, Note_on_c, 7, 67, 127
2, 353577, Note_on_c, 2, 62, 127
2, 353577, Note_on_c, 7, 55, 127
2, 353577, Note_on_c, 2, 50, 127
2, 353577, Note_on_c, 7, 43, 127
2, 353983, Note_off_c, 2, 62, 127
2, 353983, Note_off_c, 7, 67, 127
2, 353983, Note_off_c, 11, 70, 127
2, 353989, Note_on_c, 0, 60, 127
2, 353989, Note_on_c, 10, 69, 127
2, 354395, Note_off_c, 10, 69, 127
2, 354395, Note_off_c, 0, 60, 127
2, 354395, Note_off_c, 2, 50, 127
2, 354395, Note_off_c, 7, 55, 127
2, 354400, Note_on_c, 10, 69, 127
2, 354400, Note_on_c, 0, 60, 127
2, 354400, Note_on_c, 3, 51, 127
2, 355627, Note_off_c, 10, 69, 127
2, 355633, Note_on_c, 0, 72, 127
2, 355833, Note_off_c, 0, 72, 127
2, 355839, Note_on_c, 11, 70, 127
2, 356039, Note_off_c, 11, 70, 127
2, 356044, Note_on_c, 0, 72, 127
2, 356450, Note_off_c, 0, 72, 127
2, 356456, Note_on_c, 10, 69, 127
2, 356862, Note_off_c, 10, 69, 127
2, 356862, Note_off_c, 0, 60, 127
2, 356867, Note_on_c, 0, 60, 127
2, 356867, Note_on_c, 6, 66, 127
2, 356867, Note_on_c, 10, 57, 127
2, 358094, Note_off_c, 6, 66, 127
2, 358100, Note_on_c, 10, 69, 127
2, 358300, Note_off_c, 10, 69, 127
2, 358306, Note_on_c, 7, 67, 127
2, 358506, Note_off_c, 7, 67, 127
2, 358512, Note_on_c, 10, 69, 127
2, 358918, Note_off_c, 10, 69, 127
2, 358923, Note_on_c, 3, 63, 127
2, 359324, Note_off_c, 3, 51, 127
2, 359329, Note_off_c, 3, 63, 127
2, 359329, Note_off_c, 10, 57, 127
2, 359329, Note_off_c, 0, 60, 127
2, 359335, Note_on_c, 10, 57, 127
2, 359335, Note_on_c, 3, 63, 127
2, 359335, Note_on_c, 0, 48, 127
2, 359335, Note_on_c, 6, 54, 127
2, 360153, Note_off_c, 3, 63, 127
2, 360158, Note_on_c, 3, 63, 127
2, 360290, Note_off_c, 3, 63, 127
2, 360295, Note_on_c, 2, 62, 127
2, 360427, Note_off_c, 2, 62, 127
2, 360433, Note_on_c, 3, 63, 127
2, 360565, Note_off_c, 3, 63, 127
2, 360571, Note_on_c, 2, 62, 127
2, 360771, Note_off_c, 2, 62, 127
2, 360776, Note_on_c, 0, 60, 127
2, 360976, Note_off_c, 0, 60, 127
2, 360977, Note_off_c, 6, 54, 127
2, 360977, Note_off_c, 0, 48, 127
2, 360979, Note_off_c, 10, 57, 127
2, 360981, Note_on_c, 11, 58, 127
2, 360981, Note_on_c, 7, 55, 127
2, 360981, Note_on_c, 2, 50, 127
2, 361761, Note_off_c, 7, 43, 127
2, 361789, Note_on_c, 7, 43, 127
2, 362208, Note_off_c, 11, 58, 127
2, 362213, Note_on_c, 10, 57, 127
2, 362619, Note_off_c, 10, 57, 127
2, 362622, Note_off_c, 7, 55, 127
2, 362623, Note_on_c, 7, 55, 127
2, 363441, Note_off_c, 7, 55, 127
2, 363446, Note_on_c, 11, 58, 127
2, 363446, Note_on_c, 2, 62, 127
2, 363852, Note_off_c, 2, 62, 127
2, 363858, Note_on_c, 5, 65, 127
2, 364058, Note_off_c, 5, 65, 127
2, 364063, Note_on_c, 4, 64, 127
2, 364260, Note_off_c, 11, 58, 127
2, 364265, Note_off_c, 4, 64, 127
2, 364266, Note_off_c, 2, 50, 127
2, 364271, Note_on_c, 12, 59, 127
2, 364271, Note_on_c, 5, 65, 127
2, 364271, Note_on_c, 7, 55, 127
2, 364271, Note_on_c, 2, 50, 127
2, 365498, Note_off_c, 5, 65, 127
2, 365504, Note_on_c, 2, 62, 127
2, 365910, Note_off_c, 2, 62, 127
2, 365910, Note_off_c, 2, 50, 127
2, 365912, Note_off_c, 12, 59, 127
2, 365913, Note_on_c, 4, 64, 127
2, 365913, Note_on_c, 0, 60, 127
2, 365913, Note_on_c, 0, 48, 127
2, 366319, Note_off_c, 0, 48, 127
2, 366319, Note_off_c, 4, 64, 127
2, 366325, Note_on_c, 7, 67, 127
2, 366325, Note_on_c, 2, 50, 127
2, 366525, Note_off_c, 7, 67, 127
2, 366531, Note_on_c, 6, 66, 127
2, 366727, Note_off_c, 0, 60, 127
2, 366733, Note_off_c, 6, 66, 127
2, 366733, Note_off_c, 2, 50, 127
2, 366733, Note_off_c, 7, 55, 127
2, 366738, Note_on_c, 7, 67, 127
2, 366738, Note_on_c, 0, 60, 127
2, 366738, Note_on_c, 10, 57, 127
2, 366738, Note_on_c, 3, 51, 127
2, 367965, Note_off_c, 7, 67, 127
2, 367971, Note_on_c, 10, 69, 127
2, 368377, Note_off_c, 10, 69, 127
2, 368382, Note_on_c, 6, 66, 127
2, 368582, Note_off_c, 6, 66, 127
2, 368588, Note_on_c, 7, 67, 127
2, 368788, Note_off_c, 7, 67, 127
2, 368794, Note_on_c, 6, 66, 127
2, 368994, Note_off_c, 6, 66, 127
2, 369000, Note_on_c, 7, 67, 127
2, 369200, Note_off_c, 7, 67, 127
2, 369200, Note_off_c, 3, 51, 127
2, 369200, Note_off_c, 10, 57, 127
2, 369200, Note_off_c, 0, 60, 127
2, 369205, Note_on_c, 1, 61, 127
2, 369205, Note_on_c, 10, 69, 127
2, 369205, Note_on_c, 11, 58, 127
2, 369205, Note_on_c, 4, 52, 127
2, 369405, Note_off_c, 10, 69, 127
2, 369411, Note_on_c, 7, 67, 127
2, 369611, Note_off_c, 7, 67, 127
2, 369617, Note_on_c, 10, 69, 127
2, 369817, Note_off_c, 10, 69, 127
2, 369822, Note_on_c, 7, 67, 127
2, 370022, Note_off_c, 7, 67, 127
2, 370028, Note_on_c, 10, 69, 127
2, 370228, Note_off_c, 10, 69, 127
2, 370234, Note_on_c, 7, 67, 127
2, 370434, Note_off_c, 7, 67, 127
2, 370440, Note_on_c, 6, 66, 127
2, 370640, Note_off_c, 6, 66, 127
2, 370645, Note_on_c, 7, 67, 127
2, 370842, Note_off_c, 7, 43, 127
2, 370845, Note_off_c, 7, 67, 127
2, 370846, Note_off_c, 4, 52, 127
2, 370846, Note_off_c, 11, 58, 127
2, 370847, Note_off_c, 1, 61, 127
2, 370850, Note_on_c, 10, 69, 127
2, 370850, Note_on_c, 2, 50, 127
2, 371261, Note_on_c, 1, 61, 127
2, 371261, Note_on_c, 4, 52, 127
2, 371663, Note_off_c, 2, 50, 127
2, 371663, Note_off_c, 10, 69, 127
2, 371667, Note_off_c, 4, 52, 127
2, 371667, Note_off_c, 1, 61, 127
2, 371673, Note_on_c, 2, 62, 127
2, 371673, Note_on_c, 10, 69, 127
2, 371673, Note_on_c, 10, 57, 127
2, 371673, Note_on_c, 2, 50, 127
2, 371673, Note_on_c, 6, 54, 127
2, 373312, Note_off_c, 6, 54, 127
2, 373312, Note_off_c, 2, 50, 127
2, 373312, Note_off_c, 10, 57, 127
2, 373312, Note_off_c, 10, 69, 127
2, 373312, Note_off_c, 2, 62, 127
2, 373333, Note_on_c, 5, 53, 127
2, 373333, Note_on_c, 2, 50, 127
2, 373333, Note_on_c, 11, 58, 127
2, 373333, Note_on_c, 5, 65, 127
2, 373333, Note_on_c, 11, 70, 127
2, 373739, Note_off_c, 11, 70, 127
2, 373744, Note_on_c, 2, 74, 127
2, 374146, Note_off_c, 5, 65, 127
2, 374150, Note_off_c, 2, 74, 127
2, 374156, Note_on_c, 5, 65, 127
2, 374156, Note_on_c, 2, 74, 127
2, 374156, Note_on_c, 11, 70, 127
2, 374156, Note_on_c, 5, 77, 127
2, 375383, Note_off_c, 5, 77, 127
2, 375383, Note_off_c, 11, 70, 127
2, 375383, Note_off_c, 2, 74, 127
2, 375389, Note_on_c, 11, 70, 127
2, 375795, Note_off_c, 11, 70, 127
2, 375800, Note_on_c, 8, 68, 127
2, 375997, Note_off_c, 5, 65, 127
2, 376002, Note_off_c, 8, 68, 127
2, 376007, Note_on_c, 5, 65, 127
2, 376213, Note_on_c, 7, 67, 127
2, 376413, Note_off_c, 5, 65, 127
2, 376619, Note_off_c, 7, 67, 127
2, 376619, Note_off_c, 11, 58, 127
2, 376619, Note_off_c, 2, 50, 127
2, 376619, Note_off_c, 5, 53, 127
2, 376625, Note_on_c, 7, 55, 127
2, 376625, Note_on_c, 12, 47, 127
2, 376625, Note_on_c, 2, 62, 127
2, 376625, Note_on_c, 7, 67, 127
2, 376625, Note_on_c, 5, 65, 127
2, 378264, Note_off_c, 5, 65, 127
2, 378264, Note_off_c, 7, 67, 127
2, 378264, Note_off_c, 2, 62, 127
2, 378269, Note_on_c, 2, 74, 127
2, 378680, Note_on_c, 5, 77, 127
2, 379086, Note_off_c, 5, 77, 127
2, 379087, Note_off_c, 7, 55, 127
2, 379092, Note_on_c, 5, 53, 127
2, 379092, Note_on_c, 8, 80, 127
2, 379910, Note_off_c, 8, 80, 127
2, 379910, Note_off_c, 5, 53, 127
2, 379915, Note_on_c, 3, 51, 127
2, 379915, Note_on_c, 8, 80, 127
2, 380115, Note_off_c, 8, 80, 127
2, 380121, Note_on_c, 7, 79, 127
2, 380321, Note_off_c, 7, 79, 127
2, 380321, Note_off_c, 3, 51, 127
2, 380326, Note_on_c, 2, 50, 127
2, 380326, Note_on_c, 5, 77, 127
2, 380526, Note_off_c, 5, 77, 127
2, 380532, Note_on_c, 8, 80, 127
2, 380630, Note_off_c, 8, 80, 127
2, 380636, Note_on_c, 7, 79, 127
2, 380734, Note_off_c, 7, 79, 127
2, 380734, Note_off_c, 2, 50, 127
2, 380734, Note_off_c, 2, 74, 127
2, 380739, Note_off_c, 12, 47, 127
2, 380739, Note_on_c, 0, 48, 127
2, 380739, Note_on_c, 7, 67, 127
2, 380739, Note_on_c, 3, 75, 127
2, 381561, Note_on_c, 7, 55, 127
2, 381966, Note_off_c, 3, 75, 127
2, 381966, Note_off_c, 7, 67, 127
2, 381972, Note_on_c, 2, 74, 127
2, 381972, Note_on_c, 5, 65, 127
2, 382378, Note_off_c, 5, 65, 127
2, 382378, Note_off_c, 2, 74, 127
2, 382379, Note_off_c, 7, 55, 127
2, 382384, Note_on_c, 0, 60, 127
2, 382384, Note_on_c, 0, 72, 127
2, 382384, Note_on_c, 3, 63, 127
2, 383201, Note_off_c, 0, 48, 127
2, 383202, Note_off_c, 3, 63, 127
2, 383202, Note_off_c, 0, 72, 127
2, 383202, Note_off_c, 0, 60, 127
2, 383207, Note_on_c, 6, 42, 127
2, 383207, Note_on_c, 10, 69, 127
2, 383207, Note_on_c, 3, 75, 127
2, 383207, Note_on_c, 0, 72, 127
2, 383613, Note_off_c, 6, 42, 127
2, 383618, Note_on_c, 10, 45, 127
2, 384024, Note_off_c, 10, 45, 127
2, 384025, Note_off_c, 0, 72, 127
2, 384025, Note_off_c, 10, 69, 127
2, 384030, Note_on_c, 0, 48, 127
2, 384030, Note_on_c, 10, 69, 127
2, 384030, Note_on_c, 6, 66, 127
2, 384436, Note_off_c, 0, 48, 127
2, 384441, Note_on_c, 10, 45, 127
2, 384847, Note_off_c, 10, 45, 127
2, 384853, Note_on_c, 10, 45, 127
2, 385053, Note_off_c, 10, 45, 127
2, 385058, Note_on_c, 7, 43, 127
2, 385258, Note_off_c, 7, 43, 127
2, 385264, Note_on_c, 6, 42, 127
2, 385670, Note_off_c, 6, 42, 127
2, 385671, Note_off_c, 6, 66, 127
2, 385671, Note_off_c, 10, 69, 127
2, 385676, Note_on_c, 7, 43, 127
2, 385676, Note_on_c, 2, 74, 127
2, 385676, Note_on_c, 11, 70, 127
2, 386082, Note_off_c, 7, 43, 127
2, 386087, Note_on_c, 11, 46, 127
2, 386493, Note_off_c, 11, 46, 127
2, 386494, Note_off_c, 11, 70, 127
2, 386494, Note_off_c, 2, 74, 127
2, 386499, Note_on_c, 1, 49, 127
2, 386499, Note_on_c, 7, 67, 127
2, 386499, Note_on_c, 11, 70, 127
2, 386905, Note_off_c, 1, 49, 127
2, 386910, Note_on_c, 11, 46, 127
2, 387316, Note_off_c, 11, 46, 127
2, 387322, Note_on_c, 11, 46, 127
2, 387522, Note_off_c, 11, 46, 127
2, 387527, Note_on_c, 8, 44, 127
2, 387727, Note_off_c, 8, 44, 127
2, 387733, Note_on_c, 7, 43, 127
2, 388139, Note_off_c, 7, 43, 127
2, 388140, Note_off_c, 11, 70, 127
2, 388140, Note_off_c, 7, 67, 127
2, 388144, Note_on_c, 8, 44, 127
2, 388144, Note_on_c, 5, 65, 127
2, 388144, Note_on_c, 12, 71, 127
2, 388550, Note_off_c, 8, 44, 127
2, 388556, Note_on_c, 12, 47, 127
2, 388962, Note_off_c, 12, 47, 127
2, 388962, Note_off_c, 12, 71, 127
2, 388962, Note_off_c, 5, 65, 127
2, 388967, Note_on_c, 2, 50, 127
2, 388967, Note_on_c, 5, 65, 127
2, 388967, Note_on_c, 8, 68, 127
2, 389373, Note_off_c, 2, 50, 127
2, 389379, Note_on_c, 12, 47, 127
2, 389785, Note_off_c, 12, 47, 127
2, 389785, Note_off_c, 8, 68, 127
2, 389790, Note_on_c, 12, 47, 127
2, 389790, Note_on_c, 12, 71, 127
2, 389990, Note_off_c, 12, 47, 127
2, 389996, Note_on_c, 11, 46, 127
2, 390196, Note_off_c, 11, 46, 127
2, 390202, Note_on_c, 8, 44, 127
2, 390608, Note_off_c, 8, 44, 127
2, 390608, Note_off_c, 12, 71, 127
2, 390613, Note_on_c, 3, 51, 127
2, 390613, Note_on_c, 12, 71, 127
2, 391019, Note_off_c, 12, 71, 127
2, 391025, Note_on_c, 8, 68, 127
2, 391418, Note_off_c, 3, 75, 127
2, 391431, Note_off_c, 8, 68, 127
2, 391431, Note_off_c, 3, 51, 127
2, 391431, Note_off_c, 5, 65, 127
2, 391436, Note_on_c, 3, 39, 127
2, 391436, Note_on_c, 7, 67, 127
2, 391436, Note_on_c, 11, 70, 127
2, 391436, Note_on_c, 3, 75, 127
2, 393113, Note_on_c, 4, 40, 127
2, 393113, Note_on_c, 1, 73, 127
2, 393116, Note_off_c, 3, 75, 127
2, 393116, Note_off_c, 11, 70, 127
2, 393116, Note_off_c, 7, 67, 127
2, 393116, Note_off_c, 3, 39, 127
2, 393519, Note_off_c, 1, 73, 127
2, 393524, Note_on_c, 11, 70, 127
2, 393930, Note_off_c, 11, 70, 127
2, 393936, Note_on_c, 4, 52, 127
2, 393936, Note_on_c, 7, 67, 127
2, 393936, Note_on_c, 1, 61, 127
2, 393936, Note_on_c, 11, 70, 127
2, 395163, Note_off_c, 11, 70, 127
2, 395163, Note_off_c, 7, 67, 127
2, 395168, Note_on_c, 11, 70, 127
2, 395368, Note_off_c, 11, 70, 127
2, 395374, Note_on_c, 8, 68, 127
2, 395574, Note_off_c, 8, 68, 127
2, 395577, Note_off_c, 1, 61, 127
2, 395577, Note_off_c, 4, 52, 127
2, 395578, Note_on_c, 11, 70, 127
2, 395984, Note_off_c, 11, 70, 127
2, 395990, Note_on_c, 7, 67, 127
2, 396396, Note_off_c, 7, 67, 127
2, 396401, Note_on_c, 4, 52, 127
2, 396401, Note_on_c, 1, 61, 127
2, 396401, Note_on_c, 7, 67, 127
2, 396401, Note_on_c, 4, 64, 127
2, 397628, Note_off_c, 4, 64, 127
2, 397628, Note_off_c, 7, 67, 127
2, 397634, Note_on_c, 7, 67, 127
2, 397834, Note_off_c, 7, 67, 127
2, 397840, Note_on_c, 5, 65, 127
2, 398040, Note_off_c, 5, 65, 127
2, 398042, Note_off_c, 1, 61, 127
2, 398042, Note_off_c, 4, 52, 127
2, 398044, Note_on_c, 7, 67, 127
2, 398450, Note_off_c, 7, 67, 127
2, 398455, Note_on_c, 4, 64, 127
2, 398861, Note_off_c, 4, 64, 127
2, 398867, Note_on_c, 4, 52, 127
2, 398867, Note_on_c, 1, 61, 127
2, 398867, Note_on_c, 7, 55, 127
2, 398867, Note_on_c, 4, 64, 127
2, 400094, Note_off_c, 4, 64, 127
2, 400094, Note_off_c, 1, 61, 127
2, 400100, Note_on_c, 11, 70, 127
2, 400300, Note_off_c, 11, 70, 127
2, 400305, Note_on_c, 10, 69, 127
2, 400498, Note_off_c, 4, 40, 127
2, 400505, Note_off_c, 10, 69, 127
2, 400506, Note_off_c, 4, 52, 127
2, 400508, Note_off_c, 7, 55, 127
2, 400510, Note_on_c, 6, 42, 127
2, 400510, Note_on_c, 10, 69, 127
2, 400710, Note_off_c, 10, 69, 127
2, 400715, Note_on_c, 0, 72, 127
2, 400813, Note_off_c, 0, 72, 127
2, 400819, Note_on_c, 11, 70, 127
2, 400917, Note_off_c, 11, 70, 127
2, 400923, Note_on_c, 10, 69, 127
2, 401021, Note_off_c, 10, 69, 127
2, 401026, Note_on_c, 11, 70, 127
2, 401124, Note_off_c, 11, 70, 127
2, 401130, Note_on_c, 0, 72, 127
2, 401331, Note_off_c, 6, 42, 127
2, 401336, Note_on_c, 10, 57, 127
2, 401336, Note_on_c, 2, 62, 127
2, 401943, Note_off_c, 0, 72, 127
2, 401953, Note_on_c, 4, 64, 127
2, 402051, Note_off_c, 4, 64, 127
2, 402057, Note_on_c, 6, 66, 127
2, 402155, Note_off_c, 6, 66, 127
2, 402160, Note_on_c, 7, 67, 127
2, 402258, Note_off_c, 7, 67, 127
2, 402264, Note_on_c, 6, 66, 127
2, 402362, Note_off_c, 6, 66, 127
2, 402368, Note_on_c, 7, 67, 127
2, 402466, Note_off_c, 7, 67, 127
2, 402471, Note_on_c, 6, 66, 127
2, 402569, Note_off_c, 6, 66, 127
2, 402575, Note_on_c, 7, 67, 127
2, 402673, Note_off_c, 7, 67, 127
2, 402679, Note_on_c, 6, 66, 127
2, 402777, Note_off_c, 6, 66, 127
2, 402782, Note_on_c, 4, 64, 127
2, 402836, Note_off_c, 2, 62, 127
2, 402884, Note_on_c, 6, 66, 127
2, 402897, Note_off_c, 4, 64, 127
2, 402983, Note_off_c, 10, 57, 127
2, 402988, Note_on_c, 5, 41, 127
2, 402988, Note_on_c, 7, 67, 127
2, 402988, Note_on_c, 2, 62, 127
2, 402988, Note_on_c, 12, 59, 127
2, 403000, Note_off_c, 6, 66, 127
2, 403394, Note_off_c, 5, 41, 127
2, 403400, Note_on_c, 12, 47, 127
2, 403806, Note_off_c, 12, 47, 127
2, 403806, Note_off_c, 12, 59, 127
2, 403806, Note_off_c, 2, 62, 127
2, 403811, Note_on_c, 2, 50, 127
2, 403811, Note_on_c, 5, 65, 127
2, 403811, Note_on_c, 12, 59, 127
2, 404217, Note_off_c, 2, 50, 127
2, 404223, Note_on_c, 5, 53, 127
2, 404629, Note_off_c, 5, 53, 127
2, 404634, Note_on_c, 8, 56, 127
2, 405040, Note_off_c, 8, 56, 127
2, 405046, Note_on_c, 2, 50, 127
2, 405452, Note_off_c, 2, 50, 127
2, 405452, Note_off_c, 12, 59, 127
2, 405452, Note_off_c, 5, 65, 127
2, 405457, Note_on_c, 3, 51, 127
2, 405457, Note_on_c, 3, 63, 127
2, 405457, Note_on_c, 0, 60, 127
2, 405863, Note_off_c, 3, 51, 127
2, 405869, Note_on_c, 12, 47, 127
2, 406275, Note_off_c, 12, 47, 127
2, 406275, Note_off_c, 0, 60, 127
2, 406275, Note_off_c, 3, 63, 127
2, 406280, Note_on_c, 0, 48, 127
2, 406280, Note_on_c, 0, 60, 127
2, 406280, Note_on_c, 3, 63, 127
2, 406686, Note_off_c, 0, 48, 127
2, 406691, Note_on_c, 8, 44, 127
2, 407097, Note_off_c, 8, 44, 127
2, 407103, Note_on_c, 6, 42, 127
2, 407509, Note_off_c, 6, 42, 127
2, 407514, Note_on_c, 7, 43, 127
2, 407920, Note_off_c, 7, 43, 127
2, 407921, Note_off_c, 3, 63, 127
2, 407921, Note_off_c, 0, 60, 127
2, 407942, Note_on_c, 11, 58, 127
2, 407942, Note_on_c, 4, 64, 127
2, 407942, Note_on_c, 1, 37, 127
2, 408158, Note_off_c, 7, 67, 127
2, 408188, Note_on_c, 10, 69, 127
2, 408217, Note_off_c, 4, 64, 127
2, 408364, Note_off_c, 11, 58, 127
2, 408396, Note_off_c, 10, 69, 127
2, 408402, Note_on_c, 11, 70, 127
2, 408610, Note_off_c, 11, 70, 127
2, 408615, Note_on_c, 7, 67, 127
2, 408792, Note_off_c, 1, 37, 127
2, 408823, Note_off_c, 7, 67, 127
2, 408829, Note_on_c, 6, 66, 127
2, 408829, Note_on_c, 2, 38, 127
2, 409028, Note_off_c, 6, 66, 127
2, 409041, Note_on_c, 7, 67, 127
2, 409255, Note_on_c, 1, 61, 127
2, 409282, Note_off_c, 7, 67, 127
2, 409469, Note_on_c, 11, 70, 127
2, 409677, Note_off_c, 1, 61, 127
2, 409683, Note_on_c, 10, 69, 127
2, 409683, Note_on_c, 2, 62, 127
2, 409683, Note_on_c, 0, 60, 127
2, 409689, Note_off_c, 11, 70, 127
2, 409897, Note_on_c, 7, 67, 127
2, 409904, Note_off_c, 10, 69, 127
2, 410105, Note_off_c, 7, 67, 127
2, 410111, Note_on_c, 10, 69, 127
2, 410319, Note_off_c, 10, 69, 127
2, 410325, Note_on_c, 6, 66, 127
2, 410528, Note_off_c, 0, 60, 127
2, 410528, Note_off_c, 2, 62, 127
2, 410533, Note_off_c, 6, 66, 127
2, 410533, Note_off_c, 2, 38, 127
2, 410538, Note_on_c, 7, 67, 127
2, 410538, Note_on_c, 2, 62, 127
2, 410538, Note_on_c, 0, 60, 127
2, 410538, Note_on_c, 7, 43, 127
2, 411012, Note_off_c, 0, 60, 127
2, 411018, Note_on_c, 10, 57, 127
2, 411487, Note_off_c, 2, 62, 127
2, 411487, Note_off_c, 7, 67, 127
2, 411492, Note_off_c, 10, 57, 127
2, 411497, Note_on_c, 2, 62, 127
2, 411497, Note_on_c, 7, 67, 127
2, 411497, Note_on_c, 11, 58, 127
2, 411497, Note_on_c, 7, 55, 127
2, 414359, Note_off_c, 7, 43, 127
2, 414369, Note_off_c, 7, 55, 127
2, 414369, Note_off_c, 11, 58, 127
2, 414369, Note_off_c, 7, 67, 127
2, 414369, Note_off_c, 2, 62, 127
2, 416194, Note_on_c, 7, 43, 127
2, 416194, Note_on_c, 7, 79, 127
2, 416552, Note_off_c, 7, 79, 127
2, 416552, Note_off_c, 7, 43, 127
2, 416553, Note_on_c, 2, 50, 127
2, 416553, Note_on_c, 11, 82, 127
2, 416731, Note_off_c, 11, 82, 127
2, 416733, Note_on_c, 10, 81, 127
2, 416911, Note_off_c, 10, 81, 127
2, 416911, Note_off_c, 2, 50, 127
2, 416913, Note_on_c, 7, 55, 127
2, 416913, Note_on_c, 11, 82, 127
2, 417271, Note_off_c, 11, 82, 127
2, 417271, Note_off_c, 7, 55, 127
2, 417273, Note_on_c, 11, 58, 127
2, 417273, Note_on_c, 7, 79, 127
2, 417451, Note_off_c, 7, 79, 127
2, 417453, Note_on_c, 2, 74, 127
2, 417631, Note_off_c, 2, 74, 127
2, 417631, Note_off_c, 11, 58, 127
2, 417632, Note_on_c, 0, 60, 127
2, 417632, Note_on_c, 10, 81, 127
2, 417990, Note_off_c, 10, 81, 127
2, 417990, Note_off_c, 0, 60, 127
2, 417992, Note_on_c, 2, 62, 127
2, 417992, Note_on_c, 6, 78, 127
2, 418170, Note_off_c, 6, 78, 127
2, 418172, Note_on_c, 2, 74, 127
2, 418350, Note_off_c, 2, 74, 127
2, 418350, Note_off_c, 2, 62, 127
2, 418352, Note_on_c, 3, 63, 127
2, 418352, Note_on_c, 7, 79, 127
2, 418530, Note_off_c, 3, 63, 127
2, 418532, Note_on_c, 5, 65, 127
2, 418710, Note_off_c, 5, 65, 127
2, 418711, Note_on_c, 3, 63, 127
2, 418889, Note_off_c, 3, 63, 127
2, 418891, Note_on_c, 2, 62, 127
2, 419069, Note_off_c, 2, 62, 127
2, 419069, Note_off_c, 7, 79, 127
2, 419071, Note_on_c, 0, 60, 127
2, 419071, Note_on_c, 3, 75, 127
2, 419249, Note_off_c, 0, 60, 127
2, 419251, Note_on_c, 11, 58, 127
2, 419429, Note_off_c, 11, 58, 127
2, 419429, Note_off_c, 3, 75, 127
2, 419431, Note_on_c, 10, 57, 127
2, 419431, Note_on_c, 0, 72, 127
2, 419609, Note_off_c, 0, 72, 127
2, 419609, Note_off_c, 10, 57, 127
2, 419610, Note_on_c, 0, 60, 127
2, 419610, Note_on_c, 10, 69, 127
2, 419788, Note_off_c, 10, 69, 127
2, 419788, Note_off_c, 0, 60, 127
2, 419790, Note_on_c, 11, 58, 127
2, 419790, Note_on_c, 2, 74, 127
2, 419968, Note_off_c, 11, 58, 127
2, 419970, Note_on_c, 10, 57, 127
2, 420148, Note_off_c, 10, 57, 127
2, 420148, Note_off_c, 2, 74, 127
2, 420150, Note_on_c, 7, 55, 127
2, 420150, Note_on_c, 11, 70, 127
2, 420328, Note_off_c, 11, 70, 127
2, 420328, Note_off_c, 7, 55, 127
2, 420330, Note_on_c, 11, 58, 127
2, 420330, Note_on_c, 7, 67, 127
2, 420508, Note_off_c, 7, 67, 127
2, 420508, Note_off_c, 11, 58, 127
2, 420510, Note_on_c, 10, 57, 127
2, 420510, Note_on_c, 0, 72, 127
2, 420688, Note_off_c, 0, 72, 127
2, 420688, Note_off_c, 10, 57, 127
2, 420689, Note_on_c, 7, 55, 127
2, 420689, Note_on_c, 10, 69, 127
2, 420867, Note_off_c, 10, 69, 127
2, 420867, Note_off_c, 7, 55, 127
2, 420869, Note_on_c, 6, 54, 127
2, 420869, Note_on_c, 2, 74, 127
2, 421047, Note_off_c, 6, 54, 127
2, 421049, Note_on_c, 2, 50, 127
2, 421227, Note_off_c, 2, 50, 127
2, 421227, Note_off_c, 2, 74, 127
2, 421229, Note_on_c, 7, 55, 127
2, 421229, Note_on_c, 11, 70, 127
2, 421587, Note_off_c, 11, 70, 127
2, 421587, Note_off_c, 7, 55, 127
2, 421588, Note_on_c, 2, 50, 127
2, 421588, Note_on_c, 10, 69, 127
2, 421766, Note_off_c, 10, 69, 127
2, 421768, Note_on_c, 7, 67, 127
2, 421946, Note_off_c, 7, 67, 127
2, 421946, Note_off_c, 2, 50, 127
2, 421948, Note_on_c, 11, 46, 127
2, 421948, Note_on_c, 7, 79, 127
2, 422306, Note_off_c, 7, 79, 127
2, 422306, Note_off_c, 11, 46, 127
2, 422308, Note_on_c, 2, 50, 127
2, 422308, Note_on_c, 11, 82, 127
2, 422486, Note_off_c, 11, 82, 127
2, 422488, Note_on_c, 10, 81, 127
2, 422666, Note_off_c, 10, 81, 127
2, 422666, Note_off_c, 2, 50, 127
2, 422667, Note_on_c, 7, 55, 127
2, 422667, Note_on_c, 11, 82, 127
2, 423025, Note_off_c, 11, 82, 127
2, 423025, Note_off_c, 7, 55, 127
2, 423027, Note_on_c, 11, 58, 127
2, 423027, Note_on_c, 7, 79, 127
2, 423205, Note_off_c, 7, 79, 127
2, 423207, Note_on_c, 2, 74, 127
2, 423385, Note_off_c, 2, 74, 127
2, 423385, Note_off_c, 11, 58, 127
2, 423387, Note_on_c, 0, 60, 127
2, 423387, Note_on_c, 10, 81, 127
2, 423745, Note_off_c, 10, 81, 127
2, 423745, Note_off_c, 0, 60, 127
2, 423746, Note_on_c, 2, 62, 127
2, 423746, Note_on_c, 6, 78, 127
2, 423924, Note_off_c, 6, 78, 127
2, 423926, Note_on_c, 2, 74, 127
2, 424104, Note_off_c, 2, 74, 127
2, 424104, Note_off_c, 2, 62, 127
2, 424106, Note_on_c, 3, 63, 127
2, 424106, Note_on_c, 7, 79, 127
2, 424284, Note_off_c, 3, 63, 127
2, 424286, Note_on_c, 5, 65, 127
2, 424464, Note_off_c, 5, 65, 127
2, 424466, Note_on_c, 3, 63, 127
2, 424643, Note_off_c, 7, 79, 127
2, 424644, Note_off_c, 3, 63, 127
2, 424645, Note_on_c, 2, 62, 127
2, 424645, Note_on_c, 5, 77, 127
2, 424823, Note_off_c, 5, 77, 127
2, 424823, Note_off_c, 2, 62, 127
2, 424825, Note_on_c, 0, 60, 127
2, 424825, Note_on_c, 3, 75, 127
2, 425003, Note_off_c, 3, 75, 127
2, 425003, Note_off_c, 0, 60, 127
2, 425005, Note_on_c, 11, 58, 127
2, 425005, Note_on_c, 2, 74, 127
2, 425183, Note_off_c, 2, 74, 127
2, 425183, Note_off_c, 11, 58, 127
2, 425185, Note_on_c, 10, 57, 127
2, 425185, Note_on_c, 0, 72, 127
2, 425363, Note_off_c, 0, 72, 127
2, 425363, Note_off_c, 10, 57, 127
2, 425365, Note_on_c, 7, 55, 127
2, 425365, Note_on_c, 11, 70, 127
2, 425543, Note_off_c, 11, 70, 127
2, 425543, Note_off_c, 7, 55, 127
2, 425544, Note_on_c, 5, 53, 127
2, 425544, Note_on_c, 10, 81, 127
2, 425722, Note_off_c, 10, 81, 127
2, 425724, Note_on_c, 11, 82, 127
2, 425902, Note_off_c, 11, 82, 127
2, 425902, Note_off_c, 5, 53, 127
2, 425904, Note_on_c, 7, 55, 127
2, 425904, Note_on_c, 2, 74, 127
2, 426082, Note_off_c, 2, 74, 127
2, 426084, Note_on_c, 3, 75, 127
2, 426262, Note_off_c, 3, 75, 127
2, 426262, Note_off_c, 7, 55, 127
2, 426264, Note_on_c, 3, 51, 127
2, 426264, Note_on_c, 5, 77, 127
2, 426442, Note_off_c, 5, 77, 127
2, 426444, Note_on_c, 0, 72, 127
2, 426622, Note_off_c, 0, 72, 127
2, 426622, Note_off_c, 3, 51, 127
2, 426623, Note_on_c, 5, 53, 127
2, 426623, Note_on_c, 2, 74, 127
2, 426981, Note_off_c, 2, 74, 127
2, 426981, Note_off_c, 5, 53, 127
2, 426983, Note_on_c, 11, 46, 127
2, 426983, Note_on_c, 0, 72, 127
2, 427161, Note_off_c, 11, 46, 127
2, 427163, Note_on_c, 5, 53, 127
2, 427341, Note_off_c, 5, 53, 127
2, 427341, Note_off_c, 0, 72, 127
2, 427343, Note_on_c, 7, 55, 127
2, 427343, Note_on_c, 11, 70, 127
2, 427521, Note_off_c, 7, 55, 127
2, 427523, Note_on_c, 10, 57, 127
2, 427701, Note_off_c, 10, 57, 127
2, 427701, Note_off_c, 11, 70, 127
2, 427702, Note_on_c, 11, 58, 127
2, 427702, Note_on_c, 2, 74, 127
2, 428060, Note_off_c, 2, 74, 127
2, 428060, Note_off_c, 11, 58, 127
2, 428062, Note_on_c, 0, 60, 127
2, 428062, Note_on_c, 5, 77, 127
2, 428240, Note_off_c, 5, 77, 127
2, 428242, Note_on_c, 3, 75, 127
2, 428420, Note_off_c, 3, 75, 127
2, 428420, Note_off_c, 0, 60, 127
2, 428422, Note_on_c, 2, 62, 127
2, 428422, Note_on_c, 5, 77, 127
2, 428780, Note_off_c, 5, 77, 127
2, 428780, Note_off_c, 2, 62, 127
2, 428781, Note_on_c, 11, 58, 127
2, 428781, Note_on_c, 2, 74, 127
2, 428959, Note_off_c, 2, 74, 127
2, 428961, Note_on_c, 11, 70, 127
2, 429139, Note_off_c, 11, 70, 127
2, 429139, Note_off_c, 11, 58, 127
2, 429141, Note_on_c, 3, 63, 127
2, 429141, Note_on_c, 7, 79, 127
2, 429499, Note_off_c, 7, 79, 127
2, 429499, Note_off_c, 3, 63, 127
2, 429501, Note_on_c, 0, 60, 127
2, 429501, Note_on_c, 3, 75, 127
2, 429679, Note_off_c, 3, 75, 127
2, 429680, Note_on_c, 11, 70, 127
2, 429858, Note_off_c, 11, 70, 127
2, 429859, Note_off_c, 0, 60, 127
2, 429860, Note_on_c, 2, 62, 127
2, 429860, Note_on_c, 5, 77, 127
2, 430038, Note_off_c, 2, 62, 127
2, 430040, Note_on_c, 0, 60, 127
2, 430218, Note_off_c, 0, 60, 127
2, 430220, Note_on_c, 11, 58, 127
2, 430398, Note_off_c, 11, 58, 127
2, 430400, Note_on_c, 10, 57, 127
2, 430577, Note_off_c, 5, 77, 127
2, 430578, Note_off_c, 10, 57, 127
2, 430579, Note_on_c, 7, 55, 127
2, 430579, Note_on_c, 11, 82, 127
2, 430757, Note_off_c, 11, 82, 127
2, 430759, Note_on_c, 10, 81, 127
2, 430937, Note_off_c, 10, 81, 127
2, 430937, Note_off_c, 7, 55, 127
2, 430939, Note_on_c, 5, 53, 127
2, 430939, Note_on_c, 7, 79, 127
2, 431117, Note_off_c, 7, 79, 127
2, 431119, Note_on_c, 10, 81, 127
2, 431297, Note_off_c, 10, 81, 127
2, 431297, Note_off_c, 5, 53, 127
2, 431299, Note_on_c, 4, 52, 127
2, 431299, Note_on_c, 11, 82, 127
2, 431477, Note_off_c, 11, 82, 127
2, 431479, Note_on_c, 7, 79, 127
2, 431657, Note_off_c, 7, 79, 127
2, 431657, Note_off_c, 4, 52, 127
2, 431658, Note_on_c, 0, 48, 127
2, 431658, Note_on_c, 4, 76, 127
2, 431836, Note_off_c, 4, 76, 127
2, 431838, Note_on_c, 0, 72, 127
2, 432016, Note_off_c, 0, 72, 127
2, 432016, Note_off_c, 0, 48, 127
2, 432018, Note_on_c, 2, 50, 127
2, 432018, Note_on_c, 11, 82, 127
2, 432196, Note_off_c, 11, 82, 127
2, 432198, Note_on_c, 10, 81, 127
2, 432376, Note_off_c, 10, 81, 127
2, 432376, Note_off_c, 2, 50, 127
2, 432378, Note_on_c, 4, 52, 127
2, 432378, Note_on_c, 7, 79, 127
2, 432556, Note_off_c, 7, 79, 127
2, 432557, Note_on_c, 10, 81, 127
2, 432735, Note_off_c, 10, 81, 127
2, 432736, Note_off_c, 4, 52, 127
2, 432737, Note_on_c, 5, 53, 127
2, 432737, Note_on_c, 11, 82, 127
2, 432915, Note_off_c, 11, 82, 127
2, 432917, Note_on_c, 10, 81, 127
2, 433095, Note_off_c, 10, 81, 127
2, 433095, Note_off_c, 5, 53, 127
2, 433097, Note_on_c, 7, 55, 127
2, 433097, Note_on_c, 7, 79, 127
2, 433275, Note_off_c, 7, 79, 127
2, 433275, Note_off_c, 7, 55, 127
2, 433277, Note_on_c, 10, 57, 127
2, 433277, Note_on_c, 5, 77, 127
2, 433455, Note_off_c, 5, 77, 127
2, 433455, Note_off_c, 10, 57, 127
2, 433457, Note_on_c, 11, 58, 127
2, 433457, Note_on_c, 7, 79, 127
2, 433635, Note_off_c, 7, 79, 127
2, 433636, Note_on_c, 5, 77, 127
2, 433814, Note_off_c, 5, 77, 127
2, 433815, Note_off_c, 11, 58, 127
2, 433816, Note_on_c, 7, 55, 127
2, 433816, Note_on_c, 4, 76, 127
2, 433994, Note_off_c, 4, 76, 127
2, 433996, Note_on_c, 5, 77, 127
2, 434174, Note_off_c, 5, 77, 127
2, 434174, Note_off_c, 7, 55, 127
2, 434176, Note_on_c, 4, 52, 127
2, 434176, Note_on_c, 7, 79, 127
2, 434354, Note_off_c, 7, 79, 127
2, 434356, Note_on_c, 4, 76, 127
2, 434534, Note_off_c, 4, 76, 127
2, 434534, Note_off_c, 4, 52, 127
2, 434535, Note_on_c, 10, 45, 127
2, 434535, Note_on_c, 1, 73, 127
2, 434713, Note_off_c, 1, 73, 127
2, 434715, Note_on_c, 10, 69, 127
2, 434893, Note_off_c, 10, 69, 127
2, 434893, Note_off_c, 10, 45, 127
2, 434895, Note_on_c, 12, 47, 127
2, 434895, Note_on_c, 7, 79, 127
2, 435073, Note_off_c, 7, 79, 127
2, 435075, Note_on_c, 5, 77, 127
2, 435253, Note_off_c, 5, 77, 127
2, 435253, Note_off_c, 12, 47, 127
2, 435255, Note_on_c, 1, 49, 127
2, 435255, Note_on_c, 4, 76, 127
2, 435433, Note_off_c, 4, 76, 127
2, 435435, Note_on_c, 5, 77, 127
2, 435613, Note_off_c, 5, 77, 127
2, 435613, Note_off_c, 1, 49, 127
2, 435614, Note_on_c, 2, 50, 127
2, 435614, Note_on_c, 7, 79, 127
2, 435792, Note_off_c, 7, 79, 127
2, 435794, Note_on_c, 5, 77, 127
2, 435972, Note_off_c, 5, 77, 127
2, 435972, Note_off_c, 2, 50, 127
2, 435974, Note_on_c, 2, 38, 127
2, 435974, Note_on_c, 4, 76, 127
2, 436152, Note_off_c, 4, 76, 127
2, 436154, Note_on_c, 2, 74, 127
2, 436332, Note_off_c, 2, 74, 127
2, 436332, Note_off_c, 2, 38, 127
2, 436334, Note_on_c, 2, 62, 127
2, 436334, Note_on_c, 10, 81, 127
2, 436692, Note_off_c, 10, 81, 127
2, 436692, Note_off_c, 2, 62, 127
2, 436693, Note_on_c, 5, 65, 127
2, 436693, Note_on_c, 10, 81, 127
2, 436871, Note_off_c, 5, 65, 127
2, 436873, Note_on_c, 4, 64, 127
2, 437051, Note_off_c, 4, 64, 127
2, 437051, Note_off_c, 10, 81, 127
2, 437053, Note_on_c, 5, 65, 127
2, 437053, Note_on_c, 11, 82, 127
2, 437139, Note_on_c, 10, 81, 127
2, 437140, Note_off_c, 11, 82, 127
2, 437211, Note_on_c, 11, 82, 127
2, 437226, Note_off_c, 10, 81, 127
2, 437283, Note_on_c, 10, 81, 127
2, 437298, Note_off_c, 11, 82, 127
2, 437355, Note_on_c, 11, 82, 127
2, 437370, Note_off_c, 10, 81, 127
2, 437407, Note_off_c, 5, 65, 127
2, 437409, Note_on_c, 2, 62, 127
2, 437429, Note_on_c, 10, 81, 127
2, 437442, Note_off_c, 11, 82, 127
2, 437502, Note_on_c, 11, 82, 127
2, 437516, Note_off_c, 10, 81, 127
2, 437576, Note_on_c, 10, 81, 127
2, 437585, Note_off_c, 2, 62, 127
2, 437588, Note_on_c, 10, 57, 127
2, 437589, Note_off_c, 11, 82, 127
2, 437650, Note_on_c, 11, 82, 127
2, 437663, Note_off_c, 10, 81, 127
2, 437722, Note_on_c, 10, 81, 127
2, 437737, Note_off_c, 11, 82, 127
2, 437764, Note_off_c, 10, 57, 127
2, 437766, Note_on_c, 4, 64, 127
2, 437796, Note_on_c, 11, 82, 127
2, 437809, Note_off_c, 10, 81, 127
2, 437869, Note_on_c, 10, 81, 127
2, 437883, Note_off_c, 11, 82, 127
2, 437943, Note_on_c, 11, 82, 127
2, 437956, Note_off_c, 10, 81, 127
2, 438016, Note_on_c, 10, 81, 127
2, 438030, Note_off_c, 11, 82, 127
2, 438088, Note_on_c, 11, 82, 127
2, 438103, Note_off_c, 10, 81, 127
2, 438120, Note_off_c, 4, 64, 127
2, 438122, Note_on_c, 1, 61, 127
2, 438162, Note_on_c, 10, 81, 127
2, 438175, Note_off_c, 11, 82, 127
2, 438235, Note_on_c, 11, 82, 127
2, 438249, Note_off_c, 10, 81, 127
2, 438298, Note_off_c, 1, 61, 127
2, 438300, Note_on_c, 10, 57, 127
2, 438310, Note_on_c, 10, 81, 127
2, 438322, Note_off_c, 11, 82, 127
2, 438476, Note_off_c, 10, 57, 127
2, 438479, Note_on_c, 2, 62, 127
2, 438577, Note_off_c, 10, 81, 127
2, 438658, Note_on_c, 5, 77, 127
2, 438836, Note_off_c, 5, 77, 127
2, 438838, Note_on_c, 7, 79, 127
2, 439016, Note_off_c, 7, 79, 127
2, 439018, Note_on_c, 10, 81, 127
2, 439196, Note_off_c, 10, 81, 127
2, 439196, Note_off_c, 2, 62, 127
2, 439198, Note_on_c, 7, 55, 127
2, 439198, Note_on_c, 11, 82, 127
2, 439376, Note_off_c, 11, 82, 127
2, 439378, Note_on_c, 10, 81, 127
2, 439556, Note_off_c, 10, 81, 127
2, 439556, Note_off_c, 7, 55, 127
2, 439557, Note_on_c, 10, 57, 127
2, 439557, Note_on_c, 7, 79, 127
2, 439735, Note_off_c, 7, 79, 127
2, 439737, Note_on_c, 5, 77, 127
2, 439915, Note_off_c, 5, 77, 127
2, 439915, Note_off_c, 10, 57, 127
2, 439917, Note_on_c, 11, 58, 127
2, 439917, Note_on_c, 4, 76, 127
2, 440095, Note_off_c, 4, 76, 127
2, 440097, Note_on_c, 2, 74, 127
2, 440275, Note_off_c, 2, 74, 127
2, 440275, Note_off_c, 11, 58, 127
2, 440277, Note_on_c, 7, 55, 127
2, 440277, Note_on_c, 1, 73, 127
2, 440455, Note_off_c, 1, 73, 127
2, 440457, Note_on_c, 2, 74, 127
2, 440635, Note_off_c, 2, 74, 127
2, 440635, Note_off_c, 7, 55, 127
2, 440636, Note_on_c, 10, 57, 127
2, 440636, Note_on_c, 7, 79, 127
2, 440814, Note_off_c, 7, 79, 127
2, 440816, Note_on_c, 5, 77, 127
2, 440994, Note_off_c, 5, 77, 127
2, 440994, Note_off_c, 10, 57, 127
2, 440996, Note_on_c, 10, 45, 127
2, 440996, Note_on_c, 4, 76, 127
2, 441174, Note_off_c, 4, 76, 127
2, 441176, Note_on_c, 5, 77, 127
2, 441354, Note_off_c, 5, 77, 127
2, 441354, Note_off_c, 10, 45, 127
2, 441356, Note_on_c, 2, 38, 127
2, 441356, Note_on_c, 2, 74, 127
2, 441534, Note_off_c, 2, 38, 127
2, 441536, Note_on_c, 2, 50, 127
2, 441714, Note_off_c, 2, 50, 127
2, 441715, Note_on_c, 3, 51, 127
2, 441893, Note_off_c, 3, 51, 127
2, 441895, Note_on_c, 5, 53, 127
2, 442073, Note_off_c, 5, 53, 127
2, 442073, Note_off_c, 2, 74, 127
2, 442075, Note_on_c, 7, 55, 127
2, 442075, Note_on_c, 2, 74, 127
2, 442162, Note_off_c, 7, 55, 127
2, 442164, Note_on_c, 6, 54, 127
2, 442251, Note_off_c, 6, 54, 127
2, 442253, Note_on_c, 7, 55, 127
2, 442431, Note_off_c, 7, 55, 127
2, 442431, Note_off_c, 2, 74, 127
2, 442433, Note_on_c, 7, 55, 127
2, 442433, Note_on_c, 5, 77, 127
2, 442520, Note_off_c, 7, 55, 127
2, 442522, Note_on_c, 6, 54, 127
2, 442609, Note_off_c, 6, 54, 127
2, 442609, Note_off_c, 5, 77, 127
2, 442611, Note_on_c, 7, 55, 127
2, 442611, Note_on_c, 3, 75, 127
2, 442789, Note_off_c, 3, 75, 127
2, 442789, Note_off_c, 7, 55, 127
2, 442791, Note_on_c, 7, 55, 127
2, 442791, Note_on_c, 5, 77, 127
2, 442878, Note_off_c, 7, 55, 127
2, 442880, Note_on_c, 6, 54, 127
2, 442967, Note_off_c, 6, 54, 127
2, 442969, Note_on_c, 7, 55, 127
2, 443147, Note_off_c, 5, 77, 127
2, 443149, Note_on_c, 2, 74, 127
2, 443327, Note_off_c, 2, 74, 127
2, 443329, Note_on_c, 12, 71, 127
2, 443507, Note_off_c, 12, 71, 127
2, 443509, Note_on_c, 8, 80, 127
2, 443867, Note_off_c, 8, 80, 127
2, 443868, Note_on_c, 5, 77, 127
2, 444046, Note_off_c, 5, 77, 127
2, 444048, Note_on_c, 2, 74, 127
2, 444226, Note_off_c, 2, 74, 127
2, 444228, Note_on_c, 3, 75, 127
2, 444586, Note_off_c, 3, 75, 127
2, 444588, Note_on_c, 0, 72, 127
2, 444766, Note_off_c, 0, 72, 127
2, 444767, Note_on_c, 7, 67, 127
2, 444945, Note_off_c, 7, 67, 127
2, 444945, Note_off_c, 7, 55, 127
2, 444947, Note_on_c, 7, 55, 127
2, 444947, Note_on_c, 7, 79, 127
2, 445034, Note_off_c, 7, 55, 127
2, 445036, Note_on_c, 6, 54, 127
2, 445123, Note_off_c, 6, 54, 127
2, 445125, Note_on_c, 7, 55, 127
2, 445303, Note_off_c, 7, 55, 127
2, 445303, Note_off_c, 7, 79, 127
2, 445305, Note_on_c, 7, 55, 127
2, 445305, Note_on_c, 3, 75, 127
2, 445392, Note_off_c, 7, 55, 127
2, 445394, Note_on_c, 6, 54, 127
2, 445481, Note_off_c, 6, 54, 127
2, 445481, Note_off_c, 3, 75, 127
2, 445483, Note_on_c, 7, 55, 127
2, 445483, Note_on_c, 0, 72, 127
2, 445661, Note_off_c, 0, 72, 127
2, 445661, Note_off_c, 7, 55, 127
2, 445663, Note_on_c, 7, 55, 127
2, 445663, Note_on_c, 2, 74, 127
2, 446021, Note_off_c, 2, 74, 127
2, 446023, Note_on_c, 11, 70, 127
2, 446201, Note_off_c, 11, 70, 127
2, 446203, Note_on_c, 7, 67, 127
2, 446380, Note_off_c, 7, 55, 127
2, 446381, Note_off_c, 7, 67, 127
2, 446383, Note_on_c, 7, 55, 127
2, 446383, Note_on_c, 7, 79, 127
2, 446470, Note_off_c, 7, 55, 127
2, 446472, Note_on_c, 6, 54, 127
2, 446559, Note_off_c, 6, 54, 127
2, 446561, Note_on_c, 7, 55, 127
2, 446739, Note_off_c, 7, 55, 127
2, 446739, Note_off_c, 7, 79, 127
2, 446741, Note_on_c, 7, 55, 127
2, 446741, Note_on_c, 2, 74, 127
2, 446919, Note_off_c, 2, 74, 127
2, 446920, Note_on_c, 11, 70, 127
2, 447098, Note_off_c, 11, 70, 127
2, 447099, Note_off_c, 7, 55, 127
2, 447100, Note_on_c, 7, 55, 127
2, 447100, Note_on_c, 0, 72, 127
2, 447458, Note_off_c, 0, 72, 127
2, 447460, Note_on_c, 10, 69, 127
2, 447638, Note_off_c, 10, 69, 127
2, 447640, Note_on_c, 6, 66, 127
2, 447817, Note_off_c, 7, 55, 127
2, 447818, Note_off_c, 6, 66, 127
2, 447819, Note_on_c, 7, 55, 127
2, 447819, Note_on_c, 3, 75, 127
2, 447997, Note_off_c, 7, 55, 127
2, 447999, Note_on_c, 7, 55, 127
2, 448177, Note_off_c, 7, 55, 127
2, 448177, Note_off_c, 3, 75, 127
2, 448179, Note_on_c, 7, 55, 127
2, 448179, Note_on_c, 0, 72, 127
2, 448357, Note_off_c, 0, 72, 127
2, 448357, Note_off_c, 7, 55, 127
2, 448359, Note_on_c, 7, 55, 127
2, 448359, Note_on_c, 10, 69, 127
2, 448537, Note_off_c, 10, 69, 127
2, 448537, Note_off_c, 7, 55, 127
2, 448539, Note_on_c, 7, 55, 127
2, 448539, Note_on_c, 2, 74, 127
2, 448717, Note_off_c, 7, 55, 127
2, 448719, Note_on_c, 7, 55, 127
2, 448897, Note_off_c, 7, 55, 127
2, 448897, Note_off_c, 2, 74, 127
2, 448898, Note_on_c, 7, 55, 127
2, 448898, Note_on_c, 11, 70, 127
2, 449076, Note_off_c, 11, 70, 127
2, 449076, Note_off_c, 7, 55, 127
2, 449078, Note_on_c, 7, 55, 127
2, 449078, Note_on_c, 7, 67, 127
2, 449256, Note_off_c, 7, 67, 127
2, 449256, Note_off_c, 7, 55, 127
2, 449258, Note_on_c, 7, 55, 127
2, 449258, Note_on_c, 0, 72, 127
2, 449436, Note_off_c, 0, 72, 127
2, 449436, Note_off_c, 7, 55, 127
2, 449438, Note_on_c, 6, 54, 127
2, 449438, Note_on_c, 10, 69, 127
2, 449616, Note_off_c, 10, 69, 127
2, 449616, Note_off_c, 6, 54, 127
2, 449618, Note_on_c, 7, 55, 127
2, 449618, Note_on_c, 11, 70, 127
2, 449796, Note_off_c, 11, 70, 127
2, 449798, Note_on_c, 7, 67, 127
2, 449976, Note_off_c, 7, 67, 127
2, 449976, Note_off_c, 7, 55, 127
2, 449977, Note_on_c, 2, 50, 127
2, 449977, Note_on_c, 10, 69, 127
2, 450155, Note_off_c, 10, 69, 127
2, 450157, Note_on_c, 2, 62, 127
2, 450335, Note_off_c, 2, 62, 127
2, 450335, Note_off_c, 2, 50, 127
2, 450337, Note_on_c, 0, 48, 127
2, 450337, Note_on_c, 4, 64, 127
2, 450515, Note_off_c, 4, 64, 127
2, 450517, Note_on_c, 6, 66, 127
2, 450695, Note_off_c, 6, 66, 127
2, 450695, Note_off_c, 0, 48, 127
2, 450697, Note_on_c, 11, 46, 127
2, 450697, Note_on_c, 7, 67, 127
2, 450875, Note_off_c, 7, 67, 127
2, 450876, Note_on_c, 10, 69, 127
2, 451054, Note_off_c, 10, 69, 127
2, 451055, Note_off_c, 11, 46, 127
2, 451056, Note_on_c, 2, 50, 127
2, 451056, Note_on_c, 11, 70, 127
2, 451234, Note_off_c, 11, 70, 127
2, 451236, Note_on_c, 7, 67, 127
2, 451414, Note_off_c, 7, 67, 127
2, 451414, Note_off_c, 2, 50, 127
2, 451416, Note_on_c, 6, 42, 127
2, 451416, Note_on_c, 3, 75, 127
2, 451594, Note_off_c, 3, 75, 127
2, 451596, Note_on_c, 0, 72, 127
2, 451774, Note_off_c, 0, 72, 127
2, 451774, Note_off_c, 6, 42, 127
2, 451776, Note_on_c, 2, 50, 127
2, 451776, Note_on_c, 2, 74, 127
2, 451954, Note_off_c, 2, 74, 127
2, 451955, Note_on_c, 11, 70, 127
2, 452133, Note_off_c, 11, 70, 127
2, 452134, Note_off_c, 2, 50, 127
2, 452135, Note_on_c, 7, 43, 127
2, 452135, Note_on_c, 0, 72, 127
2, 452313, Note_off_c, 0, 72, 127
2, 452315, Note_on_c, 10, 69, 127
2, 452493, Note_off_c, 10, 69, 127
2, 452493, Note_off_c, 7, 43, 127
2, 452495, Note_on_c, 2, 50, 127
2, 452495, Note_on_c, 11, 70, 127
2, 452673, Note_off_c, 11, 70, 127
2, 452675, Note_on_c, 7, 67, 127
2, 452853, Note_off_c, 7, 67, 127
2, 452853, Note_off_c, 2, 50, 127
2, 452854, Note_on_c, 2, 38, 127
2, 452854, Note_on_c, 10, 69, 127
2, 453212, Note_off_c, 2, 38, 127
2, 453214, Note_on_c, 2, 50, 127
2, 453214, Note_on_c, 2, 62, 127
2, 453254, Note_off_c, 10, 69, 127
2, 453392, Note_off_c, 2, 50, 127
2, 453394, Note_on_c, 0, 48, 127
2, 453494, Note_off_c, 2, 62, 127
2, 453572, Note_off_c, 0, 48, 127
2, 453574, Note_on_c, 11, 46, 127
2, 453574, Note_on_c, 7, 67, 127
2, 453932, Note_off_c, 7, 67, 127
2, 453932, Note_off_c, 11, 46, 127
2, 453933, Note_on_c, 10, 45, 127
2, 453933, Note_on_c, 11, 70, 127
2, 454111, Note_off_c, 11, 70, 127
2, 454113, Note_on_c, 10, 69, 127
2, 454291, Note_off_c, 10, 69, 127
2, 454291, Note_off_c, 10, 45, 127
2, 454293, Note_on_c, 7, 43, 127
2, 454293, Note_on_c, 11, 70, 127
2, 454473, Note_on_c, 6, 66, 127
2, 454513, Note_off_c, 11, 70, 127
2, 454651, Note_off_c, 6, 66, 127
2, 454653, Note_on_c, 7, 67, 127
2, 454743, Note_off_c, 7, 43, 127
2, 454831, Note_off_c, 7, 67, 127
2, 454832, Note_on_c, 2, 62, 127
2, 455010, Note_off_c, 2, 62, 127
2, 455012, Note_on_c, 5, 41, 127
2, 455012, Note_on_c, 12, 71, 127
2, 455192, Note_on_c, 5, 65, 127
2, 455232, Note_off_c, 12, 71, 127
2, 455370, Note_off_c, 5, 65, 127
2, 455372, Note_on_c, 7, 67, 127
2, 455462, Note_off_c, 5, 41, 127
2, 455550, Note_off_c, 7, 67, 127
2, 455552, Note_on_c, 2, 62, 127
2, 455730, Note_off_c, 2, 62, 127
2, 455732, Note_on_c, 3, 39, 127
2, 455732, Note_on_c, 0, 72, 127
2, 455911, Note_on_c, 2, 62, 127
2, 455952, Note_off_c, 0, 72, 127
2, 456089, Note_off_c, 2, 62, 127
2, 456090, Note_off_c, 3, 39, 127
2, 456091, Note_on_c, 7, 55, 127
2, 456091, Note_on_c, 3, 63, 127
2, 456269, Note_off_c, 3, 63, 127
2, 456269, Note_off_c, 7, 55, 127
2, 456271, Note_on_c, 5, 53, 127
2, 456271, Note_on_c, 7, 67, 127
2, 456449, Note_off_c, 7, 67, 127
2, 456449, Note_off_c, 5, 53, 127
2, 456451, Note_on_c, 3, 51, 127
2, 456451, Note_on_c, 0, 72, 127
2, 456629, Note_off_c, 0, 72, 127
2, 456631, Note_on_c, 7, 67, 127
2, 456809, Note_off_c, 7, 67, 127
2, 456809, Note_off_c, 3, 51, 127
2, 456810, Note_on_c, 2, 50, 127
2, 456810, Note_on_c, 2, 74, 127
2, 456988, Note_off_c, 2, 74, 127
2, 456990, Note_on_c, 7, 67, 127
2, 457168, Note_off_c, 7, 67, 127
2, 457168, Note_off_c, 2, 50, 127
2, 457170, Note_on_c, 0, 48, 127
2, 457170, Note_on_c, 3, 75, 127
2, 457350, Note_on_c, 12, 71, 127
2, 457390, Note_off_c, 3, 75, 127
2, 457528, Note_off_c, 12, 71, 127
2, 457530, Note_on_c, 0, 72, 127
2, 457620, Note_off_c, 0, 48, 127
2, 457708, Note_off_c, 0, 72, 127
2, 457710, Note_on_c, 7, 67, 127
2, 457888, Note_off_c, 7, 67, 127
2, 457889, Note_on_c, 11, 46, 127
2, 457889, Note_on_c, 4, 76, 127
2, 458069, Note_on_c, 11, 70, 127
2, 458109, Note_off_c, 4, 76, 127
2, 458247, Note_off_c, 11, 70, 127
2, 458249, Note_on_c, 0, 72, 127
2, 458339, Note_off_c, 11, 46, 127
2, 458427, Note_off_c, 0, 72, 127
2, 458429, Note_on_c, 7, 67, 127
2, 458607, Note_off_c, 7, 67, 127
2, 458609, Note_on_c, 10, 45, 127
2, 458609, Note_on_c, 5, 77, 127
2, 458789, Note_on_c, 7, 67, 127
2, 458829, Note_off_c, 5, 77, 127
2, 458967, Note_off_c, 7, 67, 127
2, 458967, Note_off_c, 10, 45, 127
2, 458968, Note_on_c, 0, 60, 127
2, 458968, Note_on_c, 10, 69, 127
2, 459146, Note_off_c, 10, 69, 127
2, 459146, Note_off_c, 0, 60, 127
2, 459148, Note_on_c, 11, 58, 127
2, 459148, Note_on_c, 0, 72, 127
2, 459326, Note_off_c, 0, 72, 127
2, 459326, Note_off_c, 11, 58, 127
2, 459328, Note_on_c, 10, 57, 127
2, 459328, Note_on_c, 6, 78, 127
2, 459508, Note_on_c, 0, 72, 127
2, 459548, Note_off_c, 6, 78, 127
2, 459686, Note_off_c, 0, 72, 127
2, 459686, Note_off_c, 10, 57, 127
2, 459688, Note_on_c, 7, 55, 127
2, 459688, Note_on_c, 7, 79, 127
2, 459867, Note_on_c, 0, 72, 127
2, 459908, Note_off_c, 7, 79, 127
2, 460045, Note_off_c, 0, 72, 127
2, 460046, Note_off_c, 7, 55, 127
2, 460047, Note_on_c, 6, 54, 127
2, 460047, Note_on_c, 10, 81, 127
2, 460227, Note_on_c, 4, 76, 127
2, 460267, Note_off_c, 10, 81, 127
2, 460405, Note_off_c, 4, 76, 127
2, 460407, Note_on_c, 6, 78, 127
2, 460497, Note_off_c, 6, 54, 127
2, 460587, Note_on_c, 2, 74, 127
2, 460627, Note_off_c, 6, 78, 127
2, 460765, Note_off_c, 2, 74, 127
2, 460767, Note_on_c, 4, 52, 127
2, 460767, Note_on_c, 11, 82, 127
2, 460945, Note_off_c, 11, 82, 127
2, 460946, Note_on_c, 6, 78, 127
2, 461124, Note_off_c, 6, 78, 127
2, 461126, Note_on_c, 7, 79, 127
2, 461217, Note_off_c, 4, 52, 127
2, 461304, Note_off_c, 7, 79, 127
2, 461306, Note_on_c, 2, 74, 127
2, 461484, Note_off_c, 2, 74, 127
2, 461486, Note_on_c, 2, 50, 127
2, 461486, Note_on_c, 0, 84, 127
2, 461664, Note_off_c, 0, 84, 127
2, 461666, Note_on_c, 10, 81, 127
2, 461844, Note_off_c, 10, 81, 127
2, 461844, Note_off_c, 2, 50, 127
2, 461845, Note_on_c, 6, 54, 127
2, 461845, Note_on_c, 2, 74, 127
2, 462023, Note_off_c, 2, 74, 127
2, 462025, Note_on_c, 0, 84, 127
2, 462203, Note_off_c, 0, 84, 127
2, 462203, Note_off_c, 6, 54, 127
2, 462205, Note_on_c, 7, 55, 127
2, 462205, Note_on_c, 11, 82, 127
2, 462383, Note_off_c, 11, 82, 127
2, 462385, Note_on_c, 10, 81, 127
2, 462563, Note_off_c, 10, 81, 127
2, 462563, Note_off_c, 7, 55, 127
2, 462565, Note_on_c, 10, 57, 127
2, 462565, Note_on_c, 7, 79, 127
2, 462743, Note_off_c, 7, 79, 127
2, 462745, Note_on_c, 6, 78, 127
2, 462923, Note_off_c, 6, 78, 127
2, 462923, Note_off_c, 10, 57, 127
2, 462924, Note_on_c, 11, 58, 127
2, 462924, Note_on_c, 7, 79, 127
2, 463102, Note_off_c, 7, 79, 127
2, 463104, Note_on_c, 2, 74, 127
2, 463282, Note_off_c, 2, 74, 127
2, 463282, Note_off_c, 11, 58, 127
2, 463284, Note_on_c, 0, 60, 127
2, 463284, Note_on_c, 3, 75, 127
2, 463462, Note_off_c, 3, 75, 127
2, 463464, Note_on_c, 0, 72, 127
2, 463642, Note_off_c, 0, 72, 127
2, 463642, Note_off_c, 0, 60, 127
2, 463644, Note_on_c, 2, 62, 127
2, 463644, Note_on_c, 0, 72, 127
2, 463731, Note_off_c, 0, 72, 127
2, 463733, Note_on_c, 11, 70, 127
2, 463820, Note_off_c, 11, 70, 127
2, 463822, Note_on_c, 0, 72, 127
2, 463909, Note_off_c, 0, 72, 127
2, 463911, Note_on_c, 11, 70, 127
2, 463998, Note_off_c, 11, 70, 127
2, 463998, Note_off_c, 2, 62, 127
2, 464000, Note_on_c, 2, 50, 127
2, 464000, Note_on_c, 10, 69, 127
2, 464178, Note_off_c, 10, 69, 127
2, 464180, Note_on_c, 7, 67, 127
2, 464358, Note_off_c, 7, 67, 127
2, 464358, Note_off_c, 2, 50, 127
2, 464360, Note_on_c, 7, 43, 127
2, 464360, Note_on_c, 7, 67, 127
2, 465077, Note_off_c, 7, 67, 127
2, 465077, Note_off_c, 7, 43, 127
2, 465079, Note_on_c, 7, 55, 127
2, 465079, Note_on_c, 12, 59, 127
2, 465079, Note_on_c, 2, 62, 127
2, 465437, Note_off_c, 2, 62, 127
2, 465437, Note_off_c, 12, 59, 127
2, 465439, Note_on_c, 10, 57, 127
2, 465439, Note_on_c, 4, 64, 127
2, 465617, Note_off_c, 4, 64, 127
2, 465618, Note_on_c, 0, 60, 127
2, 465796, Note_off_c, 0, 60, 127
2, 465797, Note_off_c, 10, 57, 127
2, 465798, Note_on_c, 12, 59, 127
2, 465798, Note_on_c, 2, 62, 127
2, 466156, Note_off_c, 2, 62, 127
2, 466156, Note_off_c, 12, 59, 127
2, 466158, Note_on_c, 0, 60, 127
2, 466158, Note_on_c, 7, 67, 127
2, 466336, Note_off_c, 7, 67, 127
2, 466338, Note_on_c, 10, 69, 127
2, 466516, Note_off_c, 10, 69, 127
2, 466516, Note_off_c, 0, 60, 127
2, 466518, Note_on_c, 2, 62, 127
2, 466518, Note_on_c, 12, 71, 127
2, 466876, Note_off_c, 12, 71, 127
2, 466876, Note_off_c, 2, 62, 127
2, 466877, Note_on_c, 0, 60, 127
2, 466877, Note_on_c, 10, 69, 127
2, 467055, Note_off_c, 10, 69, 127
2, 467057, Note_on_c, 6, 66, 127
2, 467235, Note_off_c, 6, 66, 127
2, 467235, Note_off_c, 0, 60, 127
2, 467237, Note_on_c, 12, 59, 127
2, 467237, Note_on_c, 7, 67, 127
2, 467595, Note_off_c, 7, 67, 127
2, 467595, Note_off_c, 12, 59, 127
2, 467596, Note_on_c, 0, 60, 127
2, 467596, Note_on_c, 2, 62, 127
2, 467948, Note_off_c, 7, 55, 127
2, 467952, Note_off_c, 2, 62, 127
2, 467952, Note_off_c, 0, 60, 127
2, 467954, Note_on_c, 12, 59, 127
2, 467954, Note_on_c, 7, 55, 127
2, 467954, Note_on_c, 7, 67, 127
2, 468312, Note_off_c, 7, 67, 127
2, 468312, Note_off_c, 12, 59, 127
2, 468314, Note_on_c, 10, 57, 127
2, 468314, Note_on_c, 10, 69, 127
2, 468492, Note_off_c, 10, 69, 127
2, 468494, Note_on_c, 6, 66, 127
2, 468672, Note_off_c, 6, 66, 127
2, 468672, Note_off_c, 10, 57, 127
2, 468674, Note_on_c, 12, 59, 127
2, 468674, Note_on_c, 7, 67, 127
2, 468852, Note_off_c, 7, 67, 127
2, 468854, Note_on_c, 10, 69, 127
2, 469032, Note_off_c, 10, 69, 127
2, 469032, Note_off_c, 12, 59, 127
2, 469033, Note_on_c, 0, 60, 127
2, 469033, Note_on_c, 12, 71, 127
2, 469211, Note_off_c, 12, 71, 127
2, 469213, Note_on_c, 0, 72, 127
2, 469391, Note_off_c, 0, 72, 127
2, 469391, Note_off_c, 0, 60, 127
2, 469393, Note_on_c, 12, 59, 127
2, 469393, Note_on_c, 2, 74, 127
2, 469571, Note_off_c, 2, 74, 127
2, 469573, Note_on_c, 12, 71, 127
2, 469751, Note_off_c, 12, 71, 127
2, 469751, Note_off_c, 12, 59, 127
2, 469753, Note_on_c, 10, 57, 127
2, 469753, Note_on_c, 0, 72, 127
2, 469931, Note_off_c, 0, 72, 127
2, 469932, Note_on_c, 10, 69, 127
2, 470108, Note_off_c, 7, 55, 127
2, 470110, Note_off_c, 10, 69, 127
2, 470111, Note_off_c, 10, 57, 127
2, 470112, Note_on_c, 7, 55, 127
2, 470112, Note_on_c, 12, 71, 127
2, 470829, Note_off_c, 12, 71, 127
2, 470829, Note_off_c, 7, 55, 127
2, 470832, Note_on_c, 7, 55, 127
2, 470832, Note_on_c, 12, 59, 127
2, 470832, Note_on_c, 2, 74, 127
2, 471190, Note_off_c, 2, 74, 127
2, 471190, Note_off_c, 12, 59, 127
2, 471191, Note_on_c, 10, 57, 127
2, 471191, Note_on_c, 4, 76, 127
2, 471369, Note_off_c, 4, 76, 127
2, 471371, Note_on_c, 0, 72, 127
2, 471549, Note_off_c, 0, 72, 127
2, 471549, Note_off_c, 10, 57, 127
2, 471551, Note_on_c, 12, 59, 127
2, 471551, Note_on_c, 2, 74, 127
2, 471909, Note_off_c, 2, 74, 127
2, 471909, Note_off_c, 12, 59, 127
2, 471911, Note_on_c, 4, 64, 127
2, 471911, Note_on_c, 0, 72, 127
2, 472089, Note_off_c, 0, 72, 127
2, 472090, Note_on_c, 10, 69, 127
2, 472268, Note_off_c, 10, 69, 127
2, 472269, Note_off_c, 4, 64, 127
2, 472270, Note_on_c, 2, 62, 127
2, 472270, Note_on_c, 12, 71, 127
2, 472448, Note_off_c, 12, 71, 127
2, 472450, Note_on_c, 7, 67, 127
2, 472628, Note_off_c, 7, 67, 127
2, 472628, Note_off_c, 2, 62, 127
2, 472630, Note_on_c, 0, 60, 127
2, 472630, Note_on_c, 10, 69, 127
2, 472808, Note_off_c, 10, 69, 127
2, 472810, Note_on_c, 6, 66, 127
2, 472988, Note_off_c, 6, 66, 127
2, 472988, Note_off_c, 0, 60, 127
2, 472989, Note_on_c, 0, 60, 127
2, 472989, Note_on_c, 7, 67, 127
2, 473167, Note_off_c, 0, 60, 127
2, 473169, Note_on_c, 12, 59, 127
2, 473347, Note_off_c, 12, 59, 127
2, 473347, Note_off_c, 7, 67, 127
2, 473349, Note_on_c, 10, 57, 127
2, 473349, Note_on_c, 2, 62, 127
2, 473527, Note_off_c, 10, 57, 127
2, 473529, Note_on_c, 12, 59, 127
2, 473701, Note_off_c, 7, 55, 127
2, 473705, Note_off_c, 12, 59, 127
2, 473705, Note_off_c, 2, 62, 127
2, 473707, Note_on_c, 0, 60, 127
2, 473707, Note_on_c, 7, 55, 127
2, 473707, Note_on_c, 4, 64, 127
2, 473885, Note_off_c, 4, 64, 127
2, 473887, Note_on_c, 2, 62, 127
2, 474065, Note_off_c, 2, 62, 127
2, 474065, Note_off_c, 0, 60, 127
2, 474067, Note_on_c, 12, 59, 127
2, 474067, Note_on_c, 7, 67, 127
2, 474245, Note_off_c, 7, 67, 127
2, 474247, Note_on_c, 2, 62, 127
2, 474425, Note_off_c, 2, 62, 127
2, 474425, Note_off_c, 12, 59, 127
2, 474426, Note_on_c, 0, 60, 127
2, 474426, Note_on_c, 4, 64, 127
2, 474604, Note_off_c, 4, 64, 127
2, 474606, Note_on_c, 2, 62, 127
2, 474784, Note_off_c, 2, 62, 127
2, 474784, Note_off_c, 0, 60, 127
2, 474786, Note_on_c, 12, 59, 127
2, 474786, Note_on_c, 7, 67, 127
2, 474964, Note_off_c, 7, 67, 127
2, 474966, Note_on_c, 2, 62, 127
2, 475144, Note_off_c, 2, 62, 127
2, 475144, Note_off_c, 12, 59, 127
2, 475146, Note_on_c, 0, 60, 127
2, 475146, Note_on_c, 4, 64, 127
2, 475324, Note_off_c, 4, 64, 127
2, 475325, Note_on_c, 2, 62, 127
2, 475503, Note_off_c, 2, 62, 127
2, 475504, Note_off_c, 0, 60, 127
2, 475505, Note_on_c, 0, 60, 127
2, 475505, Note_on_c, 10, 69, 127
2, 475683, Note_off_c, 0, 60, 127
2, 475685, Note_on_c, 10, 57, 127
2, 475863, Note_off_c, 10, 57, 127
2, 475863, Note_off_c, 10, 69, 127
2, 475865, Note_on_c, 0, 60, 127
2, 475865, Note_on_c, 10, 69, 127
2, 475865, Note_on_c, 6, 66, 127
2, 476576, Note_off_c, 7, 55, 127
2, 476581, Note_off_c, 6, 66, 127
2, 476581, Note_off_c, 10, 69, 127
2, 476581, Note_off_c, 0, 60, 127
2, 476583, Note_on_c, 0, 60, 127
2, 476583, Note_on_c, 7, 55, 127
2, 476583, Note_on_c, 10, 69, 127
2, 476941, Note_off_c, 10, 69, 127
2, 476941, Note_off_c, 0, 60, 127
2, 476942, Note_on_c, 2, 62, 127
2, 476942, Note_on_c, 12, 71, 127
2, 477120, Note_off_c, 12, 71, 127
2, 477122, Note_on_c, 7, 67, 127
2, 477300, Note_off_c, 7, 67, 127
2, 477300, Note_off_c, 2, 62, 127
2, 477302, Note_on_c, 4, 64, 127
2, 477302, Note_on_c, 0, 72, 127
2, 477660, Note_off_c, 0, 72, 127
2, 477660, Note_off_c, 4, 64, 127
2, 477662, Note_on_c, 2, 62, 127
2, 477662, Note_on_c, 12, 71, 127
2, 477840, Note_off_c, 12, 71, 127
2, 477841, Note_on_c, 7, 67, 127
2, 478019, Note_off_c, 7, 67, 127
2, 478020, Note_off_c, 2, 62, 127
2, 478021, Note_on_c, 0, 60, 127
2, 478021, Note_on_c, 4, 76, 127
2, 478199, Note_off_c, 4, 76, 127
2, 478201, Note_on_c, 0, 72, 127
2, 478379, Note_off_c, 0, 72, 127
2, 478379, Note_off_c, 0, 60, 127
2, 478381, Note_on_c, 12, 59, 127
2, 478381, Note_on_c, 2, 74, 127
2, 478559, Note_off_c, 2, 74, 127
2, 478561, Note_on_c, 12, 71, 127
2, 478739, Note_off_c, 12, 71, 127
2, 478739, Note_off_c, 12, 59, 127
2, 478740, Note_on_c, 10, 57, 127
2, 478740, Note_on_c, 0, 72, 127
2, 478918, Note_off_c, 0, 72, 127
2, 478920, Note_on_c, 12, 71, 127
2, 479098, Note_off_c, 12, 71, 127
2, 479098, Note_off_c, 10, 57, 127
2, 479100, Note_on_c, 12, 59, 127
2, 479100, Note_on_c, 10, 69, 127
2, 479278, Note_off_c, 10, 69, 127
2, 479280, Note_on_c, 7, 67, 127
2, 479452, Note_off_c, 7, 55, 127
2, 479456, Note_off_c, 7, 67, 127
2, 479456, Note_off_c, 12, 59, 127
2, 479458, Note_on_c, 0, 60, 127
2, 479458, Note_on_c, 7, 55, 127
2, 479458, Note_on_c, 10, 69, 127
2, 479636, Note_off_c, 10, 69, 127
2, 479638, Note_on_c, 12, 71, 127
2, 479816, Note_off_c, 12, 71, 127
2, 479816, Note_off_c, 0, 60, 127
2, 479818, Note_on_c, 2, 62, 127
2, 479818, Note_on_c, 0, 72, 127
2, 479996, Note_off_c, 0, 72, 127
2, 479998, Note_on_c, 12, 71, 127
2, 480176, Note_off_c, 12, 71, 127
2, 480176, Note_off_c, 2, 62, 127
2, 480177, Note_on_c, 0, 60, 127
2, 480177, Note_on_c, 10, 69, 127
2, 480355, Note_off_c, 10, 69, 127
2, 480357, Note_on_c, 7, 67, 127
2, 480535, Note_off_c, 7, 67, 127
2, 480535, Note_off_c, 0, 60, 127
2, 480537, Note_on_c, 4, 64, 127
2, 480537, Note_on_c, 6, 66, 127
2, 480715, Note_off_c, 6, 66, 127
2, 480717, Note_on_c, 7, 67, 127
2, 480895, Note_off_c, 7, 67, 127
2, 480895, Note_off_c, 4, 64, 127
2, 480897, Note_on_c, 2, 62, 127
2, 480897, Note_on_c, 10, 69, 127
2, 481075, Note_off_c, 10, 69, 127
2, 481076, Note_on_c, 7, 67, 127
2, 481254, Note_off_c, 7, 67, 127
2, 481255, Note_off_c, 2, 62, 127
2, 481256, Note_on_c, 0, 60, 127
2, 481256, Note_on_c, 6, 66, 127
2, 481434, Note_off_c, 6, 66, 127
2, 481436, Note_on_c, 4, 64, 127
2, 481614, Note_off_c, 4, 64, 127
2, 481614, Note_off_c, 0, 60, 127
2, 481616, Note_on_c, 12, 59, 127
2, 481616, Note_on_c, 2, 62, 127
2, 481974, Note_off_c, 12, 59, 127
2, 481976, Note_on_c, 0, 60, 127
2, 482327, Note_off_c, 7, 55, 127
2, 482332, Note_off_c, 0, 60, 127
2, 482334, Note_on_c, 12, 59, 127
2, 482334, Note_on_c, 7, 55, 127
2, 482691, Note_off_c, 2, 62, 127
2, 482692, Note_off_c, 12, 59, 127
2, 482693, Note_on_c, 10, 57, 127
2, 482693, Note_on_c, 4, 64, 127
2, 482871, Note_off_c, 4, 64, 127
2, 482873, Note_on_c, 0, 60, 127
2, 483051, Note_off_c, 0, 60, 127
2, 483051, Note_off_c, 10, 57, 127
2, 483053, Note_on_c, 12, 59, 127
2, 483053, Note_on_c, 2, 62, 127
2, 483411, Note_off_c, 2, 62, 127
2, 483411, Note_off_c, 12, 59, 127
2, 483413, Note_on_c, 0, 60, 127
2, 483413, Note_on_c, 7, 67, 127
2, 483591, Note_off_c, 7, 67, 127
2, 483592, Note_on_c, 10, 69, 127
2, 483770, Note_off_c, 10, 69, 127
2, 483771, Note_off_c, 0, 60, 127
2, 483772, Note_on_c, 2, 62, 127
2, 483772, Note_on_c, 12, 71, 127
2, 484130, Note_off_c, 12, 71, 127
2, 484130, Note_off_c, 2, 62, 127
2, 484132, Note_on_c, 0, 60, 127
2, 484132, Note_on_c, 10, 69, 127
2, 484310, Note_off_c, 10, 69, 127
2, 484312, Note_on_c, 6, 66, 127
2, 484490, Note_off_c, 6, 66, 127
2, 484490, Note_off_c, 0, 60, 127
2, 484491, Note_on_c, 12, 59, 127
2, 484491, Note_on_c, 7, 67, 127
2, 484849, Note_off_c, 7, 67, 127
2, 484851, Note_on_c, 2, 62, 127
2, 485203, Note_off_c, 7, 55, 127
2, 485207, Note_off_c, 12, 59, 127
2, 485218, Note_off_c, 2, 62, 127
2, 485225, Note_on_c, 12, 71, 127
2, 485225, Note_on_c, 7, 55, 127
2, 485225, Note_on_c, 2, 62, 127
2, 485403, Note_off_c, 12, 71, 127
2, 485405, Note_on_c, 6, 66, 127
2, 485583, Note_off_c, 6, 66, 127
2, 485585, Note_on_c, 7, 67, 127
2, 485764, Note_off_c, 2, 62, 127
2, 485766, Note_on_c, 2, 62, 127
2, 485805, Note_off_c, 7, 67, 127
2, 485954, Note_off_c, 2, 62, 127
2, 485962, Note_on_c, 12, 59, 127
2, 485962, Note_on_c, 2, 74, 127
2, 486140, Note_off_c, 2, 74, 127
2, 486142, Note_on_c, 6, 66, 127
2, 486320, Note_off_c, 6, 66, 127
2, 486322, Note_on_c, 7, 67, 127
2, 486501, Note_on_c, 2, 62, 127
2, 486542, Note_off_c, 7, 67, 127
2, 486679, Note_off_c, 12, 59, 127
2, 486689, Note_off_c, 2, 62, 127
2, 486697, Note_on_c, 12, 71, 127
2, 486697, Note_on_c, 2, 62, 127
2, 486875, Note_off_c, 12, 71, 127
2, 486877, Note_on_c, 6, 66, 127
2, 487055, Note_off_c, 6, 66, 127
2, 487057, Note_on_c, 7, 67, 127
2, 487232, Note_off_c, 2, 62, 127
2, 487254, Note_on_c, 2, 62, 127
2, 487317, Note_off_c, 7, 67, 127
2, 487442, Note_off_c, 2, 62, 127
2, 487466, Note_on_c, 12, 59, 127
2, 487466, Note_on_c, 2, 62, 127
2, 487466, Note_on_c, 7, 67, 127
2, 489730, Note_off_c, 7, 55, 127
2, 489815, Note_off_c, 7, 67, 127
2, 489815, Note_off_c, 2, 62, 127
2, 489815, Note_off_c, 12, 59, 127
2, 491387, Note_on_c, 2, 74, 127
2, 491540, Note_off_c, 2, 74, 127
2, 491558, Note_on_c, 3, 75, 127
2, 491726, Note_off_c, 3, 75, 127
2, 491730, Note_on_c, 2, 74, 127
2, 491890, Note_off_c, 2, 74, 127
2, 491900, Note_on_c, 0, 72, 127
2, 492053, Note_off_c, 0, 72, 127
2, 492072, Note_on_c, 11, 70, 127
2, 492240, Note_off_c, 11, 70, 127
2, 492244, Note_on_c, 10, 69, 127
2, 492404, Note_off_c, 10, 69, 127
2, 492414, Note_on_c, 7, 67, 127
2, 492567, Note_off_c, 7, 67, 127
2, 492585, Note_on_c, 6, 66, 127
2, 492753, Note_off_c, 6, 66, 127
2, 492757, Note_on_c, 10, 69, 127
2, 492917, Note_off_c, 10, 69, 127
2, 492927, Note_on_c, 2, 62, 127
2, 493080, Note_off_c, 2, 62, 127
2, 493099, Note_on_c, 0, 60, 127
2, 493267, Note_off_c, 0, 60, 127
2, 493271, Note_on_c, 11, 58, 127
2, 493431, Note_off_c, 11, 58, 127
2, 493441, Note_on_c, 10, 57, 127
2, 493594, Note_off_c, 10, 57, 127
2, 493612, Note_on_c, 11, 58, 127
2, 493780, Note_off_c, 11, 58, 127
2, 493784, Note_on_c, 2, 62, 127
2, 493944, Note_off_c, 2, 62, 127
2, 493954, Note_on_c, 7, 67, 127
2, 494107, Note_off_c, 7, 67, 127
2, 494126, Note_on_c, 10, 57, 127
2, 494294, Note_off_c, 10, 57, 127
2, 494298, Note_on_c, 7, 67, 127
2, 494458, Note_off_c, 7, 67, 127
2, 494468, Note_on_c, 6, 66, 127
2, 494621, Note_off_c, 6, 66, 127
2, 494640, Note_on_c, 7, 67, 127
2, 494808, Note_off_c, 7, 67, 127
2, 494811, Note_on_c, 11, 70, 127
2, 494971, Note_off_c, 11, 70, 127
2, 494981, Note_on_c, 10, 69, 127
2, 495134, Note_off_c, 10, 69, 127
2, 495153, Note_on_c, 11, 70, 127
2, 495321, Note_off_c, 11, 70, 127
2, 495325, Note_on_c, 2, 74, 127
2, 495485, Note_off_c, 2, 74, 127
2, 495495, Note_on_c, 7, 67, 127
2, 495495, Note_on_c, 0, 72, 127
2, 495648, Note_off_c, 0, 72, 127
2, 495648, Note_off_c, 7, 67, 127
2, 495667, Note_on_c, 11, 70, 127
2, 495667, Note_on_c, 2, 74, 127
2, 495835, Note_off_c, 11, 70, 127
2, 495838, Note_on_c, 10, 69, 127
2, 495998, Note_off_c, 10, 69, 127
2, 496008, Note_on_c, 7, 67, 127
2, 496161, Note_off_c, 7, 67, 127
2, 496180, Note_on_c, 5, 65, 127
2, 496348, Note_off_c, 5, 65, 127
2, 496349, Note_off_c, 2, 74, 127
2, 496352, Note_on_c, 4, 64, 127
2, 496352, Note_on_c, 4, 76, 127
2, 496512, Note_off_c, 4, 76, 127
2, 496512, Note_off_c, 4, 64, 127
2, 496522, Note_on_c, 2, 62, 127
2, 496522, Note_on_c, 5, 77, 127
2, 496675, Note_off_c, 5, 77, 127
2, 496675, Note_off_c, 2, 62, 127
2, 496694, Note_on_c, 1, 61, 127
2, 496694, Note_on_c, 4, 76, 127
2, 496862, Note_off_c, 1, 61, 127
2, 496865, Note_on_c, 4, 64, 127
2, 497025, Note_off_c, 4, 64, 127
2, 497036, Note_on_c, 10, 57, 127
2, 497189, Note_off_c, 10, 57, 127
2, 497207, Note_on_c, 7, 55, 127
2, 497375, Note_off_c, 7, 55, 127
2, 497376, Note_off_c, 4, 76, 127
2, 497379, Note_on_c, 5, 53, 127
2, 497379, Note_on_c, 5, 77, 127
2, 497539, Note_off_c, 5, 77, 127
2, 497539, Note_off_c, 5, 53, 127
2, 497549, Note_on_c, 4, 52, 127
2, 497549, Note_on_c, 7, 79, 127
2, 497702, Note_off_c, 7, 79, 127
2, 497702, Note_off_c, 4, 52, 127
2, 497721, Note_on_c, 5, 53, 127
2, 497721, Note_on_c, 10, 81, 127
2, 497889, Note_off_c, 10, 81, 127
2, 497889, Note_off_c, 5, 53, 127
2, 497892, Note_on_c, 10, 57, 127
2, 497892, Note_on_c, 7, 79, 127
2, 498052, Note_off_c, 7, 79, 127
2, 498052, Note_off_c, 10, 57, 127
2, 498063, Note_on_c, 2, 62, 127
2, 498063, Note_on_c, 5, 77, 127
2, 498216, Note_off_c, 5, 77, 127
2, 498216, Note_off_c, 2, 62, 127
2, 498234, Note_on_c, 4, 52, 127
2, 498234, Note_on_c, 7, 79, 127
2, 498402, Note_off_c, 7, 79, 127
2, 498402, Note_off_c, 4, 52, 127
2, 498406, Note_on_c, 2, 62, 127
2, 498406, Note_on_c, 5, 77, 127
2, 498566, Note_off_c, 5, 77, 127
2, 498566, Note_off_c, 2, 62, 127
2, 498576, Note_on_c, 1, 61, 127
2, 498576, Note_on_c, 4, 76, 127
2, 498729, Note_off_c, 4, 76, 127
2, 498729, Note_off_c, 1, 61, 127
2, 498748, Note_on_c, 2, 62, 127
2, 498748, Note_on_c, 5, 77, 127
2, 498916, Note_off_c, 5, 77, 127
2, 498920, Note_on_c, 7, 79, 127
2, 499080, Note_off_c, 7, 79, 127
2, 499090, Note_on_c, 10, 81, 127
2, 499243, Note_off_c, 10, 81, 127
2, 499261, Note_on_c, 2, 74, 127
2, 499430, Note_off_c, 2, 62, 127
2, 499433, Note_on_c, 4, 64, 127
2, 499593, Note_off_c, 4, 64, 127
2, 499603, Note_on_c, 5, 65, 127
2, 499756, Note_off_c, 5, 65, 127
2, 499775, Note_on_c, 4, 64, 127
2, 499943, Note_off_c, 2, 74, 127
2, 499947, Note_on_c, 0, 72, 127
2, 500107, Note_off_c, 0, 72, 127
2, 500117, Note_on_c, 11, 70, 127
2, 500270, Note_off_c, 11, 70, 127
2, 500288, Note_on_c, 0, 72, 127
2, 500457, Note_off_c, 4, 64, 127
2, 500460, Note_on_c, 6, 66, 127
2, 500620, Note_off_c, 6, 66, 127
2, 500630, Note_on_c, 7, 67, 127
2, 500783, Note_off_c, 7, 67, 127
2, 500802, Note_on_c, 10, 69, 127
2, 500970, Note_off_c, 10, 69, 127
2, 500974, Note_on_c, 7, 67, 127
2, 501134, Note_off_c, 7, 67, 127
2, 501140, Note_off_c, 0, 72, 127
2, 501144, Note_on_c, 6, 66, 127
2, 501144, Note_on_c, 2, 74, 127
2, 501297, Note_off_c, 2, 74, 127
2, 501297, Note_off_c, 6, 66, 127
2, 501316, Note_on_c, 7, 67, 127
2, 501316, Note_on_c, 11, 70, 127
2, 501484, Note_off_c, 7, 67, 127
2, 501487, Note_on_c, 6, 66, 127
2, 501647, Note_off_c, 6, 66, 127
2, 501654, Note_off_c, 11, 70, 127
2, 501657, Note_on_c, 4, 64, 127
2, 501657, Note_on_c, 0, 72, 127
2, 501810, Note_off_c, 0, 72, 127
2, 501810, Note_off_c, 4, 64, 127
2, 501829, Note_on_c, 6, 66, 127
2, 501829, Note_on_c, 10, 69, 127
2, 501997, Note_off_c, 6, 66, 127
2, 502001, Note_on_c, 4, 64, 127
2, 502161, Note_off_c, 4, 64, 127
2, 502167, Note_off_c, 10, 69, 127
2, 502171, Note_on_c, 2, 62, 127
2, 502171, Note_on_c, 11, 70, 127
2, 502324, Note_off_c, 11, 70, 127
2, 502324, Note_off_c, 2, 62, 127
2, 502343, Note_on_c, 4, 64, 127
2, 502343, Note_on_c, 0, 72, 127
2, 502511, Note_off_c, 4, 64, 127
2, 502514, Note_on_c, 7, 67, 127
2, 502674, Note_off_c, 7, 67, 127
2, 502681, Note_off_c, 0, 72, 127
2, 502684, Note_on_c, 6, 66, 127
2, 502684, Note_on_c, 2, 62, 127
2, 502684, Note_on_c, 2, 74, 127
2, 502837, Note_off_c, 2, 74, 127
2, 502837, Note_off_c, 2, 62, 127
2, 502837, Note_off_c, 6, 66, 127
2, 502856, Note_on_c, 7, 67, 127
2, 502856, Note_on_c, 3, 63, 127
2, 502856, Note_on_c, 11, 70, 127
2, 503024, Note_off_c, 3, 63, 127
2, 503028, Note_on_c, 2, 62, 127
2, 503188, Note_off_c, 2, 62, 127
2, 503194, Note_off_c, 11, 70, 127
2, 503198, Note_on_c, 0, 60, 127
2, 503198, Note_on_c, 0, 72, 127
2, 503351, Note_off_c, 0, 72, 127
2, 503351, Note_off_c, 0, 60, 127
2, 503370, Note_on_c, 11, 58, 127
2, 503370, Note_on_c, 2, 74, 127
2, 503538, Note_off_c, 11, 58, 127
2, 503538, Note_off_c, 7, 67, 127
2, 503541, Note_on_c, 10, 57, 127
2, 503541, Note_on_c, 10, 69, 127
2, 503701, Note_off_c, 10, 69, 127
2, 503701, Note_off_c, 10, 57, 127
2, 503712, Note_on_c, 11, 70, 127
2, 503712, Note_on_c, 7, 55, 127
2, 503865, Note_off_c, 7, 55, 127
2, 503865, Note_off_c, 11, 70, 127
2, 503883, Note_on_c, 10, 69, 127
2, 503883, Note_on_c, 6, 54, 127
2, 504051, Note_off_c, 6, 54, 127
2, 504055, Note_on_c, 10, 57, 127
2, 504215, Note_off_c, 10, 57, 127
2, 504222, Note_off_c, 2, 74, 127
2, 504225, Note_on_c, 2, 50, 127
2, 504225, Note_on_c, 4, 76, 127
2, 504378, Note_off_c, 4, 76, 127
2, 504378, Note_off_c, 2, 50, 127
2, 504397, Note_on_c, 0, 48, 127
2, 504397, Note_on_c, 6, 78, 127
2, 504565, Note_off_c, 0, 48, 127
2, 504565, Note_off_c, 10, 69, 127
2, 504569, Note_on_c, 11, 70, 127
2, 504569, Note_on_c, 11, 46, 127
2, 504729, Note_off_c, 11, 46, 127
2, 504729, Note_off_c, 11, 70, 127
2, 504739, Note_on_c, 10, 45, 127
2, 504739, Note_on_c, 0, 72, 127
2, 504892, Note_off_c, 0, 72, 127
2, 504892, Note_off_c, 10, 45, 127
2, 504907, Note_off_c, 6, 78, 127
2, 504910, Note_on_c, 2, 74, 127
2, 504910, Note_on_c, 11, 46, 127
2, 504910, Note_on_c, 7, 79, 127
2, 505078, Note_off_c, 11, 46, 127
2, 505078, Note_off_c, 2, 74, 127
2, 505082, Note_on_c, 0, 72, 127
2, 505082, Note_on_c, 2, 50, 127
2, 505242, Note_off_c, 2, 50, 127
2, 505242, Note_off_c, 0, 72, 127
2, 505252, Note_on_c, 11, 70, 127
2, 505252, Note_on_c, 7, 55, 127
2, 505405, Note_off_c, 7, 55, 127
2, 505405, Note_off_c, 11, 70, 127
2, 505420, Note_off_c, 7, 79, 127
2, 505424, Note_on_c, 0, 72, 127
2, 505424, Note_on_c, 10, 45, 127
2, 505424, Note_on_c, 10, 81, 127
2, 505592, Note_off_c, 10, 45, 127
2, 505592, Note_off_c, 0, 72, 127
2, 505596, Note_on_c, 11, 70, 127
2, 505596, Note_on_c, 7, 55, 127
2, 505756, Note_off_c, 7, 55, 127
2, 505756, Note_off_c, 11, 70, 127
2, 505766, Note_on_c, 6, 54, 127
2, 505766, Note_on_c, 10, 69, 127
2, 505919, Note_off_c, 10, 69, 127
2, 505919, Note_off_c, 6, 54, 127
2, 505937, Note_on_c, 11, 70, 127
2, 505937, Note_on_c, 7, 55, 127
2, 506105, Note_off_c, 7, 55, 127
2, 506109, Note_on_c, 11, 58, 127
2, 506269, Note_off_c, 11, 58, 127
2, 506279, Note_on_c, 10, 57, 127
2, 506432, Note_off_c, 10, 57, 127
2, 506447, Note_off_c, 10, 81, 127
2, 506451, Note_on_c, 11, 58, 127
2, 506451, Note_on_c, 7, 79, 127
2, 506619, Note_off_c, 11, 58, 127
2, 506623, Note_on_c, 2, 62, 127
2, 506783, Note_off_c, 2, 62, 127
2, 506793, Note_on_c, 0, 60, 127
2, 506946, Note_off_c, 0, 60, 127
2, 506962, Note_off_c, 11, 70, 127
2, 506964, Note_on_c, 10, 69, 127
2, 506964, Note_on_c, 2, 62, 127
2, 507133, Note_off_c, 7, 79, 127
2, 507136, Note_on_c, 5, 77, 127
2, 507296, Note_off_c, 5, 77, 127
2, 507306, Note_on_c, 4, 76, 127
2, 507459, Note_off_c, 4, 76, 127
2, 507478, Note_on_c, 5, 77, 127
2, 507646, Note_off_c, 2, 62, 127
2, 507650, Note_on_c, 10, 57, 127
2, 507810, Note_off_c, 10, 57, 127
2, 507820, Note_on_c, 2, 50, 127
2, 507973, Note_off_c, 2, 50, 127
2, 507989, Note_off_c, 10, 69, 127
2, 507992, Note_on_c, 7, 67, 127
2, 507992, Note_on_c, 3, 51, 127
2, 508160, Note_off_c, 3, 51, 127
2, 508163, Note_on_c, 7, 55, 127
2, 508323, Note_off_c, 7, 55, 127
2, 508333, Note_on_c, 5, 53, 127
2, 508486, Note_off_c, 5, 53, 127
2, 508501, Note_off_c, 5, 77, 127
2, 508505, Note_on_c, 7, 55, 127
2, 508505, Note_on_c, 3, 75, 127
2, 508673, Note_off_c, 7, 55, 127
2, 508677, Note_on_c, 11, 58, 127
2, 508837, Note_off_c, 11, 58, 127
2, 508847, Note_on_c, 10, 57, 127
2, 509000, Note_off_c, 10, 57, 127
2, 509017, Note_off_c, 7, 67, 127
2, 509019, Note_on_c, 5, 65, 127
2, 509019, Note_on_c, 11, 58, 127
2, 509187, Note_off_c, 3, 75, 127
2, 509190, Note_on_c, 2, 74, 127
2, 509350, Note_off_c, 2, 74, 127
2, 509360, Note_on_c, 0, 72, 127
2, 509513, Note_off_c, 0, 72, 127
2, 509532, Note_on_c, 2, 74, 127
2, 509701, Note_off_c, 11, 58, 127
2, 509704, Note_on_c, 5, 53, 127
2, 509864, Note_off_c, 5, 53, 127
2, 509874, Note_on_c, 11, 46, 127
2, 510027, Note_off_c, 11, 46, 127
2, 510044, Note_off_c, 5, 65, 127
2, 510046, Note_on_c, 3, 63, 127
2, 510046, Note_on_c, 0, 48, 127
2, 510214, Note_off_c, 0, 48, 127
2, 510217, Note_on_c, 3, 51, 127
2, 510377, Note_off_c, 3, 51, 127
2, 510388, Note_on_c, 2, 50, 127
2, 510541, Note_off_c, 2, 50, 127
2, 510555, Note_off_c, 2, 74, 127
2, 510559, Note_on_c, 3, 51, 127
2, 510559, Note_on_c, 0, 72, 127
2, 510727, Note_off_c, 3, 51, 127
2, 510731, Note_on_c, 7, 55, 127
2, 510891, Note_off_c, 7, 55, 127
2, 510901, Note_on_c, 5, 53, 127
2, 511054, Note_off_c, 5, 53, 127
2, 511071, Note_off_c, 3, 63, 127
2, 511073, Note_on_c, 7, 55, 127
2, 511073, Note_on_c, 2, 62, 127
2, 511241, Note_off_c, 0, 72, 127
2, 511245, Note_on_c, 11, 70, 127
2, 511405, Note_off_c, 11, 70, 127
2, 511415, Note_on_c, 10, 69, 127
2, 511568, Note_off_c, 10, 69, 127
2, 511586, Note_on_c, 11, 70, 127
2, 511755, Note_off_c, 2, 62, 127
2, 511758, Note_on_c, 5, 65, 127
2, 511918, Note_off_c, 5, 65, 127
2, 511918, Note_off_c, 7, 55, 127
2, 511928, Note_on_c, 4, 64, 127
2, 511928, Note_on_c, 1, 49, 127
2, 512081, Note_off_c, 1, 49, 127
2, 512081, Note_off_c, 4, 64, 127
2, 512100, Note_on_c, 5, 65, 127
2, 512100, Note_on_c, 2, 50, 127
2, 512268, Note_off_c, 11, 70, 127
2, 512272, Note_on_c, 10, 69, 127
2, 512440, Note_off_c, 2, 50, 127
2, 512440, Note_off_c, 5, 65, 127
2, 512443, Note_on_c, 0, 48, 127
2, 512443, Note_on_c, 4, 64, 127
2, 512596, Note_off_c, 4, 64, 127
2, 512596, Note_off_c, 0, 48, 127
2, 512615, Note_on_c, 0, 48, 127
2, 512615, Note_on_c, 2, 62, 127
2, 512697, Note_off_c, 0, 48, 127
2, 512701, Note_on_c, 11, 46, 127
2, 512783, Note_off_c, 11, 46, 127
2, 512783, Note_off_c, 10, 69, 127
2, 512787, Note_on_c, 0, 48, 127
2, 512787, Note_on_c, 10, 69, 127
2, 512869, Note_off_c, 0, 48, 127
2, 512873, Note_on_c, 11, 46, 127
2, 512949, Note_off_c, 10, 69, 127
2, 512955, Note_off_c, 11, 46, 127
2, 512958, Note_on_c, 0, 48, 127
2, 512958, Note_on_c, 7, 67, 127
2, 513040, Note_off_c, 0, 48, 127
2, 513044, Note_on_c, 11, 46, 127
2, 513111, Note_off_c, 7, 67, 127
2, 513126, Note_off_c, 11, 46, 127
2, 513130, Note_on_c, 10, 45, 127
2, 513130, Note_on_c, 10, 69, 127
2, 513298, Note_off_c, 2, 62, 127
2, 513302, Note_on_c, 1, 61, 127
2, 513462, Note_off_c, 1, 61, 127
2, 513472, Note_on_c, 12, 59, 127
2, 513625, Note_off_c, 12, 59, 127
2, 513637, Note_off_c, 10, 69, 127
2, 513637, Note_off_c, 10, 45, 127
2, 513642, Note_on_c, 1, 61, 127
2, 513812, Note_on_c, 4, 64, 127
2, 513972, Note_off_c, 4, 64, 127
2, 513982, Note_on_c, 10, 57, 127
2, 513982, Note_on_c, 7, 67, 127
2, 514135, Note_off_c, 7, 67, 127
2, 514135, Note_off_c, 10, 57, 127
2, 514147, Note_off_c, 1, 61, 127
2, 514152, Note_on_c, 2, 62, 127
2, 514152, Note_on_c, 11, 58, 127
2, 514152, Note_on_c, 5, 65, 127
2, 514320, Note_off_c, 11, 58, 127
2, 514324, Note_on_c, 10, 57, 127
2, 514484, Note_off_c, 10, 57, 127
2, 514494, Note_on_c, 7, 55, 127
2, 514647, Note_off_c, 7, 55, 127
2, 514666, Note_on_c, 5, 53, 127
2, 514834, Note_off_c, 5, 53, 127
2, 514834, Note_off_c, 5, 65, 127
2, 514834, Note_off_c, 2, 62, 127
2, 514838, Note_on_c, 4, 64, 127
2, 514838, Note_on_c, 4, 52, 127
2, 514838, Note_on_c, 7, 67, 127
2, 514998, Note_off_c, 7, 67, 127
2, 514998, Note_off_c, 4, 52, 127
2, 514998, Note_off_c, 4, 64, 127
2, 515008, Note_on_c, 2, 50, 127
2, 515008, Note_on_c, 5, 65, 127
2, 515008, Note_on_c, 10, 69, 127
2, 515161, Note_off_c, 10, 69, 127
2, 515161, Note_off_c, 5, 65, 127
2, 515161, Note_off_c, 2, 50, 127
2, 515180, Note_on_c, 1, 49, 127
2, 515180, Note_on_c, 4, 64, 127
2, 515180, Note_on_c, 7, 67, 127
2, 515348, Note_off_c, 1, 49, 127
2, 515351, Note_on_c, 4, 52, 127
2, 515511, Note_off_c, 4, 52, 127
2, 515521, Note_on_c, 10, 45, 127
2, 515674, Note_off_c, 10, 45, 127
2, 515693, Note_on_c, 7, 43, 127
2, 515861, Note_off_c, 7, 43, 127
2, 515862, Note_off_c, 7, 67, 127
2, 515862, Note_off_c, 4, 64, 127
2, 515865, Note_on_c, 5, 41, 127
2, 515865, Note_on_c, 5, 65, 127
2, 515865, Note_on_c, 10, 69, 127
2, 516025, Note_off_c, 10, 69, 127
2, 516025, Note_off_c, 5, 65, 127
2, 516025, Note_off_c, 5, 41, 127
2, 516035, Note_on_c, 7, 67, 127
2, 516035, Note_on_c, 4, 40, 127
2, 516035, Note_on_c, 11, 70, 127
2, 516188, Note_off_c, 11, 70, 127
2, 516188, Note_off_c, 4, 40, 127
2, 516188, Note_off_c, 7, 67, 127
2, 516207, Note_on_c, 5, 41, 127
2, 516207, Note_on_c, 10, 69, 127
2, 516375, Note_off_c, 5, 41, 127
2, 516378, Note_on_c, 10, 45, 127
2, 516378, Note_on_c, 2, 74, 127
2, 516538, Note_off_c, 2, 74, 127
2, 516538, Note_off_c, 10, 45, 127
2, 516548, Note_on_c, 2, 50, 127
2, 516548, Note_on_c, 5, 77, 127
2, 516701, Note_off_c, 2, 50, 127
2, 516714, Note_off_c, 10, 69, 127
2, 516719, Note_on_c, 4, 40, 127
2, 516719, Note_on_c, 7, 67, 127
2, 516886, Note_off_c, 5, 77, 127
2, 516887, Note_off_c, 4, 40, 127
2, 516890, Note_on_c, 2, 50, 127
2, 516890, Note_on_c, 7, 79, 127
2, 517050, Note_off_c, 7, 79, 127
2, 517050, Note_off_c, 2, 50, 127
2, 517060, Note_on_c, 1, 49, 127
2, 517060, Note_on_c, 4, 76, 127
2, 517213, Note_off_c, 4, 76, 127
2, 517213, Note_off_c, 1, 49, 127
2, 517226, Note_off_c, 7, 67, 127
2, 517230, Note_on_c, 2, 50, 127
2, 517230, Note_on_c, 5, 77, 127
2, 517398, Note_off_c, 5, 77, 127
2, 517402, Note_on_c, 10, 81, 127
2, 517562, Note_off_c, 10, 81, 127
2, 517572, Note_on_c, 7, 79, 127
2, 517725, Note_off_c, 7, 79, 127
2, 517744, Note_on_c, 10, 81, 127
2, 517912, Note_off_c, 2, 50, 127
2, 517916, Note_on_c, 5, 53, 127
2, 518076, Note_off_c, 5, 53, 127
2, 518086, Note_on_c, 4, 52, 127
2, 518239, Note_off_c, 4, 52, 127
2, 518254, Note_off_c, 10, 81, 127
2, 518258, Note_on_c, 5, 53, 127
2, 518258, Note_on_c, 10, 69, 127
2, 518426, Note_off_c, 10, 69, 127
2, 518426, Note_off_c, 5, 53, 127
2, 518429, Note_on_c, 10, 57, 127
2, 518429, Note_on_c, 1, 73, 127
2, 518589, Note_off_c, 1, 73, 127
2, 518589, Note_off_c, 10, 57, 127
2, 518599, Note_on_c, 7, 55, 127
2, 518599, Note_on_c, 12, 71, 127
2, 518752, Note_off_c, 12, 71, 127
2, 518752, Note_off_c, 7, 55, 127
2, 518771, Note_on_c, 10, 57, 127
2, 518771, Note_on_c, 1, 73, 127
2, 518939, Note_off_c, 1, 73, 127
2, 518943, Note_on_c, 4, 76, 127
2, 519103, Note_off_c, 4, 76, 127
2, 519113, Note_on_c, 2, 74, 127
2, 519266, Note_off_c, 2, 74, 127
2, 519281, Note_off_c, 10, 57, 127
2, 519285, Note_on_c, 10, 45, 127
2, 519285, Note_on_c, 4, 76, 127
2, 519453, Note_off_c, 10, 45, 127
2, 519456, Note_on_c, 1, 49, 127
2, 519616, Note_off_c, 1, 49, 127
2, 519626, Note_on_c, 12, 47, 127
2, 519779, Note_off_c, 12, 47, 127
2, 519795, Note_off_c, 4, 76, 127
2, 519798, Note_on_c, 1, 49, 127
2, 519798, Note_on_c, 4, 64, 127
2, 519966, Note_off_c, 4, 64, 127
2, 519966, Note_off_c, 1, 49, 127
2, 519970, Note_on_c, 4, 52, 127
2, 519970, Note_on_c, 7, 67, 127
2, 520130, Note_off_c, 7, 67, 127
2, 520130, Note_off_c, 4, 52, 127
2, 520140, Note_on_c, 2, 50, 127
2, 520140, Note_on_c, 5, 65, 127
2, 520293, Note_off_c, 5, 65, 127
2, 520293, Note_off_c, 2, 50, 127
2, 520312, Note_on_c, 4, 52, 127
2, 520312, Note_on_c, 7, 67, 127
2, 520480, Note_off_c, 7, 67, 127
2, 520483, Note_on_c, 11, 70, 127
2, 520643, Note_off_c, 11, 70, 127
2, 520653, Note_on_c, 10, 69, 127
2, 520806, Note_off_c, 10, 69, 127
2, 520825, Note_on_c, 11, 70, 127
2, 520994, Note_off_c, 4, 52, 127
2, 520997, Note_on_c, 7, 55, 127
2, 521157, Note_off_c, 7, 55, 127
2, 521167, Note_on_c, 5, 53, 127
2, 521320, Note_off_c, 5, 53, 127
2, 521335, Note_off_c, 11, 70, 127
2, 521339, Note_on_c, 7, 55, 127
2, 521339, Note_on_c, 1, 61, 127
2, 521507, Note_off_c, 1, 61, 127
2, 521510, Note_on_c, 4, 64, 127
2, 521670, Note_off_c, 4, 64, 127
2, 521681, Note_on_c, 2, 62, 127
2, 521834, Note_off_c, 2, 62, 127
2, 521852, Note_on_c, 4, 64, 127
2, 522020, Note_off_c, 4, 64, 127
2, 522021, Note_off_c, 7, 55, 127
2, 522024, Note_on_c, 11, 58, 127
2, 522024, Note_on_c, 7, 67, 127
2, 522184, Note_off_c, 7, 67, 127
2, 522184, Note_off_c, 11, 58, 127
2, 522194, Note_on_c, 10, 57, 127
2, 522194, Note_on_c, 5, 65, 127
2, 522347, Note_off_c, 5, 65, 127
2, 522347, Note_off_c, 10, 57, 127
2, 522366, Note_on_c, 11, 58, 127
2, 522366, Note_on_c, 7, 67, 127
2, 522534, Note_off_c, 7, 67, 127
2, 522534, Note_off_c, 11, 58, 127
2, 522538, Note_on_c, 7, 55, 127
2, 522538, Note_on_c, 11, 70, 127
2, 522698, Note_off_c, 11, 70, 127
2, 522698, Note_off_c, 7, 55, 127
2, 522708, Note_on_c, 5, 53, 127
2, 522708, Note_on_c, 10, 69, 127
2, 522861, Note_off_c, 10, 69, 127
2, 522861, Note_off_c, 5, 53, 127
2, 522879, Note_on_c, 4, 52, 127
2, 522879, Note_on_c, 11, 70, 127
2, 523047, Note_off_c, 11, 70, 127
2, 523047, Note_off_c, 4, 52, 127
2, 523051, Note_on_c, 5, 53, 127
2, 523051, Note_on_c, 10, 69, 127
2, 523211, Note_off_c, 10, 69, 127
2, 523211, Note_off_c, 5, 53, 127
2, 523221, Note_on_c, 7, 55, 127
2, 523221, Note_on_c, 7, 67, 127
2, 523374, Note_off_c, 7, 67, 127
2, 523374, Note_off_c, 7, 55, 127
2, 523393, Note_on_c, 10, 45, 127
2, 523393, Note_on_c, 1, 73, 127
2, 523561, Note_off_c, 1, 73, 127
2, 523565, Note_on_c, 11, 70, 127
2, 523725, Note_off_c, 11, 70, 127
2, 523735, Note_on_c, 10, 69, 127
2, 523767, Note_off_c, 10, 45, 127
2, 523888, Note_off_c, 10, 69, 127
2, 523906, Note_on_c, 12, 47, 127
2, 523906, Note_on_c, 2, 74, 127
2, 524074, Note_off_c, 2, 74, 127
2, 524078, Note_on_c, 10, 69, 127
2, 524238, Note_off_c, 10, 69, 127
2, 524248, Note_on_c, 7, 67, 127
2, 524280, Note_off_c, 12, 47, 127
2, 524401, Note_off_c, 7, 67, 127
2, 524420, Note_on_c, 1, 49, 127
2, 524420, Note_on_c, 4, 76, 127
2, 524588, Note_off_c, 4, 76, 127
2, 524592, Note_on_c, 10, 69, 127
2, 524752, Note_off_c, 10, 69, 127
2, 524758, Note_off_c, 1, 49, 127
2, 524762, Note_on_c, 10, 45, 127
2, 524762, Note_on_c, 7, 67, 127
2, 524915, Note_off_c, 7, 67, 127
2, 524915, Note_off_c, 10, 45, 127
2, 524934, Note_on_c, 12, 47, 127
2, 524934, Note_on_c, 5, 65, 127
2, 525102, Note_off_c, 5, 65, 127
2, 525105, Note_on_c, 7, 67, 127
2, 525265, Note_off_c, 7, 67, 127
2, 525272, Note_off_c, 12, 47, 127
2, 525275, Note_on_c, 1, 49, 127
2, 525275, Note_on_c, 4, 64, 127
2, 525428, Note_off_c, 4, 64, 127
2, 525428, Note_off_c, 1, 49, 127
2, 525447, Note_on_c, 2, 50, 127
2, 525447, Note_on_c, 5, 65, 127
2, 525615, Note_off_c, 5, 65, 127
2, 525619, Note_on_c, 4, 64, 127
2, 525779, Note_off_c, 4, 64, 127
2, 525789, Note_on_c, 2, 62, 127
2, 525821, Note_off_c, 2, 50, 127
2, 525942, Note_off_c, 2, 62, 127
2, 525961, Note_on_c, 4, 52, 127
2, 525961, Note_on_c, 7, 67, 127
2, 526129, Note_off_c, 7, 67, 127
2, 526132, Note_on_c, 4, 64, 127
2, 526292, Note_off_c, 4, 64, 127
2, 526302, Note_on_c, 2, 62, 127
2, 526335, Note_off_c, 4, 52, 127
2, 526455, Note_off_c, 2, 62, 127
2, 526474, Note_on_c, 5, 53, 127
2, 526474, Note_on_c, 10, 69, 127
2, 526642, Note_off_c, 10, 69, 127
2, 526646, Note_on_c, 4, 64, 127
2, 526806, Note_off_c, 4, 64, 127
2, 526816, Note_on_c, 2, 62, 127
2, 526848, Note_off_c, 5, 53, 127
2, 526969, Note_off_c, 2, 62, 127
2, 526988, Note_on_c, 7, 55, 127
2, 526988, Note_on_c, 11, 70, 127
2, 527156, Note_off_c, 11, 70, 127
2, 527159, Note_on_c, 4, 64, 127
2, 527319, Note_off_c, 4, 64, 127
2, 527330, Note_on_c, 2, 62, 127
2, 527483, Note_off_c, 2, 62, 127
2, 527501, Note_on_c, 1, 61, 127
2, 527621, Note_off_c, 7, 55, 127
2, 527669, Note_off_c, 1, 61, 127
2, 527673, Note_on_c, 5, 53, 127
2, 527673, Note_on_c, 2, 62, 127
2, 527833, Note_off_c, 2, 62, 127
2, 527833, Note_off_c, 5, 53, 127
2, 527843, Note_on_c, 4, 52, 127
2, 527843, Note_on_c, 4, 64, 127
2, 527996, Note_off_c, 4, 64, 127
2, 527996, Note_off_c, 4, 52, 127
2, 528015, Note_on_c, 5, 53, 127
2, 528015, Note_on_c, 10, 57, 127
2, 528183, Note_off_c, 5, 53, 127
2, 528186, Note_on_c, 1, 61, 127
2, 528346, Note_off_c, 1, 61, 127
2, 528353, Note_off_c, 10, 57, 127
2, 528357, Note_on_c, 2, 62, 127
2, 528357, Note_on_c, 10, 81, 127
2, 528510, Note_off_c, 10, 81, 127
2, 528510, Note_off_c, 2, 62, 127
2, 528528, Note_on_c, 7, 55, 127
2, 528528, Note_on_c, 11, 82, 127
2, 528696, Note_off_c, 11, 82, 127
2, 528696, Note_off_c, 7, 55, 127
2, 528700, Note_on_c, 1, 61, 127
2, 528700, Note_on_c, 10, 81, 127
2, 528860, Note_off_c, 10, 81, 127
2, 528860, Note_off_c, 1, 61, 127
2, 528870, Note_on_c, 2, 62, 127
2, 528870, Note_on_c, 7, 79, 127
2, 529023, Note_off_c, 7, 79, 127
2, 529023, Note_off_c, 2, 62, 127
2, 529042, Note_on_c, 8, 56, 127
2, 529042, Note_on_c, 5, 77, 127
2, 529210, Note_off_c, 5, 77, 127
2, 529210, Note_off_c, 8, 56, 127
2, 529214, Note_on_c, 1, 61, 127
2, 529214, Note_on_c, 4, 76, 127
2, 529374, Note_off_c, 4, 76, 127
2, 529374, Note_off_c, 1, 61, 127
2, 529384, Note_on_c, 2, 62, 127
2, 529384, Note_on_c, 2, 74, 127
2, 529537, Note_off_c, 2, 74, 127
2, 529537, Note_off_c, 2, 62, 127
2, 529555, Note_on_c, 10, 57, 127
2, 529555, Note_on_c, 1, 73, 127
2, 529723, Note_off_c, 1, 73, 127
2, 529723, Note_off_c, 10, 57, 127
2, 529727, Note_on_c, 1, 61, 127
2, 529727, Note_on_c, 4, 76, 127
2, 529887, Note_off_c, 4, 76, 127
2, 529887, Note_off_c, 1, 61, 127
2, 529897, Note_on_c, 2, 62, 127
2, 529897, Note_on_c, 10, 69, 127
2, 530050, Note_off_c, 10, 69, 127
2, 530050, Note_off_c, 2, 62, 127
2, 530069, Note_on_c, 4, 64, 127
2, 530069, Note_on_c, 7, 67, 127
2, 530237, Note_off_c, 7, 67, 127
2, 530237, Note_off_c, 4, 64, 127
2, 530241, Note_on_c, 2, 62, 127
2, 530241, Note_on_c, 5, 65, 127
2, 530401, Note_off_c, 5, 65, 127
2, 530401, Note_off_c, 2, 62, 127
2, 530411, Note_on_c, 1, 61, 127
2, 530411, Note_on_c, 4, 64, 127
2, 530564, Note_off_c, 4, 64, 127
2, 530564, Note_off_c, 1, 61, 127
2, 530582, Note_on_c, 2, 62, 127
2, 530582, Note_on_c, 5, 65, 127
2, 530750, Note_off_c, 5, 65, 127
2, 530750, Note_off_c, 2, 62, 127
2, 530754, Note_on_c, 5, 53, 127
2, 530754, Note_on_c, 10, 69, 127
2, 530914, Note_off_c, 10, 69, 127
2, 530914, Note_off_c, 5, 53, 127
2, 530924, Note_on_c, 7, 55, 127
2, 530924, Note_on_c, 2, 74, 127
2, 531077, Note_off_c, 2, 74, 127
2, 531077, Note_off_c, 7, 55, 127
2, 531096, Note_on_c, 10, 57, 127
2, 531096, Note_on_c, 4, 64, 127
2, 531264, Note_off_c, 4, 64, 127
2, 531264, Note_off_c, 10, 57, 127
2, 531268, Note_on_c, 7, 55, 127
2, 531268, Note_on_c, 2, 74, 127
2, 531428, Note_off_c, 2, 74, 127
2, 531428, Note_off_c, 7, 55, 127
2, 531438, Note_on_c, 10, 57, 127
2, 531438, Note_on_c, 1, 73, 127
2, 531591, Note_off_c, 1, 73, 127
2, 531591, Note_off_c, 10, 57, 127
2, 531610, Note_on_c, 2, 50, 127
2, 531610, Note_on_c, 2, 74, 127
2, 531778, Note_off_c, 2, 74, 127
2, 531778, Note_off_c, 2, 50, 127
2, 531781, Note_on_c, 6, 54, 127
2, 531781, Note_on_c, 10, 69, 127
2, 531941, Note_off_c, 10, 69, 127
2, 531941, Note_off_c, 6, 54, 127
2, 531951, Note_on_c, 10, 57, 127
2, 531951, Note_on_c, 6, 66, 127
2, 532104, Note_off_c, 6, 66, 127
2, 532104, Note_off_c, 10, 57, 127
2, 532123, Note_on_c, 2, 62, 127
2, 532461, Note_off_c, 2, 62, 127
2, 532465, Note_on_c, 10, 57, 127
2, 532618, Note_off_c, 10, 57, 127
2, 532637, Note_on_c, 6, 54, 127
2, 532805, Note_off_c, 6, 54, 127
2, 532808, Note_on_c, 7, 55, 127
2, 532968, Note_off_c, 7, 55, 127
2, 532978, Note_on_c, 10, 57, 127
2, 533131, Note_off_c, 10, 57, 127
2, 533150, Note_on_c, 11, 58, 127
2, 533318, Note_off_c, 11, 58, 127
2, 533322, Note_on_c, 0, 60, 127
2, 533482, Note_off_c, 0, 60, 127
2, 533492, Note_on_c, 2, 62, 127
2, 533645, Note_off_c, 2, 62, 127
2, 533664, Note_on_c, 3, 63, 127
2, 533832, Note_off_c, 3, 63, 127
2, 533835, Note_on_c, 0, 60, 127
2, 533995, Note_off_c, 0, 60, 127
2, 534006, Note_on_c, 7, 67, 127
2, 534159, Note_off_c, 7, 67, 127
2, 534177, Note_on_c, 10, 69, 127
2, 534345, Note_off_c, 10, 69, 127
2, 534349, Note_on_c, 11, 70, 127
2, 534509, Note_off_c, 11, 70, 127
2, 534519, Note_on_c, 0, 72, 127
2, 534672, Note_off_c, 0, 72, 127
2, 534691, Note_on_c, 11, 70, 127
2, 534859, Note_off_c, 11, 70, 127
2, 534863, Note_on_c, 7, 67, 127
2, 535023, Note_off_c, 7, 67, 127
2, 535033, Note_on_c, 2, 62, 127
2, 535186, Note_off_c, 2, 62, 127
2, 535204, Note_on_c, 0, 72, 127
2, 535372, Note_off_c, 0, 72, 127
2, 535376, Note_on_c, 4, 64, 127
2, 535536, Note_off_c, 4, 64, 127
2, 535546, Note_on_c, 6, 66, 127
2, 535699, Note_off_c, 6, 66, 127
2, 535718, Note_on_c, 7, 67, 127
2, 535886, Note_off_c, 7, 67, 127
2, 535890, Note_on_c, 4, 64, 127
2, 536050, Note_off_c, 4, 64, 127
2, 536060, Note_on_c, 5, 65, 127
2, 536213, Note_off_c, 5, 65, 127
2, 536231, Note_on_c, 4, 64, 127
2, 536399, Note_off_c, 4, 64, 127
2, 536403, Note_on_c, 1, 61, 127
2, 536563, Note_off_c, 1, 61, 127
2, 536573, Note_on_c, 2, 38, 127
2, 536573, Note_on_c, 2, 62, 127
2, 536726, Note_off_c, 2, 62, 127
2, 536726, Note_off_c, 2, 38, 127
2, 536745, Note_on_c, 1, 37, 127
2, 536745, Note_on_c, 10, 69, 127
2, 536913, Note_off_c, 1, 37, 127
2, 536917, Note_on_c, 2, 38, 127
2, 537077, Note_off_c, 2, 38, 127
2, 537087, Note_on_c, 4, 40, 127
2, 537240, Note_off_c, 4, 40, 127
2, 537258, Note_on_c, 5, 41, 127
2, 537426, Note_off_c, 5, 41, 127
2, 537427, Note_off_c, 10, 69, 127
2, 537430, Note_on_c, 7, 43, 127
2, 537430, Note_on_c, 7, 67, 127
2, 537590, Note_off_c, 7, 67, 127
2, 537590, Note_off_c, 7, 43, 127
2, 537600, Note_on_c, 10, 45, 127
2, 537600, Note_on_c, 5, 65, 127
2, 537753, Note_off_c, 5, 65, 127
2, 537753, Note_off_c, 10, 45, 127
2, 537772, Note_on_c, 11, 46, 127
2, 537772, Note_on_c, 7, 67, 127
2, 537940, Note_off_c, 11, 46, 127
2, 537944, Note_on_c, 7, 43, 127
2, 538104, Note_off_c, 7, 43, 127
2, 538114, Note_on_c, 2, 50, 127
2, 538267, Note_off_c, 2, 50, 127
2, 538286, Note_on_c, 4, 52, 127
2, 538454, Note_off_c, 4, 52, 127
2, 538454, Note_off_c, 7, 67, 127
2, 538457, Note_on_c, 5, 53, 127
2, 538457, Note_on_c, 5, 65, 127
2, 538617, Note_off_c, 5, 65, 127
2, 538617, Note_off_c, 5, 53, 127
2, 538627, Note_on_c, 7, 55, 127
2, 538627, Note_on_c, 4, 64, 127
2, 538780, Note_off_c, 4, 64, 127
2, 538780, Note_off_c, 7, 55, 127
2, 538799, Note_on_c, 5, 53, 127
2, 538799, Note_on_c, 2, 62, 127
2, 538967, Note_off_c, 2, 62, 127
2, 538967, Note_off_c, 5, 53, 127
2, 538971, Note_on_c, 2, 50, 127
2, 538971, Note_on_c, 4, 64, 127
2, 539131, Note_off_c, 4, 64, 127
2, 539131, Note_off_c, 2, 50, 127
2, 539141, Note_on_c, 10, 45, 127
2, 539141, Note_on_c, 5, 65, 127
2, 539294, Note_off_c, 5, 65, 127
2, 539294, Note_off_c, 10, 45, 127
2, 539313, Note_on_c, 7, 55, 127
2, 539313, Note_on_c, 4, 64, 127
2, 539481, Note_off_c, 4, 64, 127
2, 539481, Note_off_c, 7, 55, 127
2, 539484, Note_on_c, 12, 47, 127
2, 539484, Note_on_c, 10, 69, 127
2, 539644, Note_off_c, 10, 69, 127
2, 539644, Note_off_c, 12, 47, 127
2, 539654, Note_on_c, 1, 49, 127
2, 539654, Note_on_c, 7, 67, 127
2, 539807, Note_off_c, 7, 67, 127
2, 539807, Note_off_c, 1, 49, 127
2, 539826, Note_on_c, 2, 50, 127
2, 539826, Note_on_c, 5, 65, 127
2, 539994, Note_off_c, 5, 65, 127
2, 539998, Note_on_c, 4, 64, 127
2, 540158, Note_off_c, 4, 64, 127
2, 540168, Note_on_c, 2, 62, 127
2, 540321, Note_off_c, 2, 62, 127
2, 540340, Note_on_c, 11, 70, 127
2, 540508, Note_off_c, 2, 50, 127
2, 540511, Note_on_c, 0, 48, 127
2, 540671, Note_off_c, 0, 48, 127
2, 540682, Note_on_c, 11, 46, 127
2, 540835, Note_off_c, 11, 46, 127
2, 540853, Note_on_c, 0, 48, 127
2, 541022, Note_off_c, 11, 70, 127
2, 541025, Note_on_c, 10, 69, 127
2, 541185, Note_off_c, 10, 69, 127
2, 541195, Note_on_c, 7, 67, 127
2, 541348, Note_off_c, 7, 67, 127
2, 541367, Note_on_c, 10, 69, 127
2, 541535, Note_off_c, 10, 69, 127
2, 541539, Note_on_c, 7, 67, 127
2, 541699, Note_off_c, 7, 67, 127
2, 541705, Note_off_c, 0, 48, 127
2, 541709, Note_on_c, 2, 50, 127
2, 541709, Note_on_c, 6, 66, 127
2, 541862, Note_off_c, 6, 66, 127
2, 541862, Note_off_c, 2, 50, 127
2, 541880, Note_on_c, 3, 51, 127
2, 541880, Note_on_c, 7, 67, 127
2, 542048, Note_off_c, 3, 51, 127
2, 542052, Note_on_c, 2, 50, 127
2, 542212, Note_off_c, 2, 50, 127
2, 542218, Note_off_c, 7, 67, 127
2, 542222, Note_on_c, 0, 48, 127
2, 542222, Note_on_c, 3, 75, 127
2, 542375, Note_off_c, 3, 75, 127
2, 542375, Note_off_c, 0, 48, 127
2, 542394, Note_on_c, 2, 50, 127
2, 542394, Note_on_c, 5, 65, 127
2, 542562, Note_off_c, 2, 50, 127
2, 542566, Note_on_c, 0, 48, 127
2, 542726, Note_off_c, 0, 48, 127
2, 542732, Note_off_c, 5, 65, 127
2, 542736, Note_on_c, 12, 47, 127
2, 542736, Note_on_c, 2, 74, 127
2, 542889, Note_off_c, 2, 74, 127
2, 542889, Note_off_c, 12, 47, 127
2, 542907, Note_on_c, 0, 48, 127
2, 542907, Note_on_c, 3, 63, 127
2, 543075, Note_off_c, 3, 63, 127
2, 543079, Note_on_c, 2, 62, 127
2, 543239, Note_off_c, 2, 62, 127
2, 543245, Note_off_c, 0, 48, 127
2, 543249, Note_on_c, 10, 57, 127
2, 543249, Note_on_c, 0, 60, 127
2, 543402, Note_off_c, 0, 60, 127
2, 543402, Note_off_c, 10, 57, 127
2, 543421, Note_on_c, 11, 46, 127
2, 543421, Note_on_c, 2, 62, 127
2, 543589, Note_off_c, 2, 62, 127
2, 543593, Note_on_c, 0, 60, 127
2, 543753, Note_off_c, 0, 60, 127
2, 543759, Note_off_c, 11, 46, 127
2, 543763, Note_on_c, 7, 55, 127
2, 543763, Note_on_c, 11, 58, 127
2, 543916, Note_off_c, 11, 58, 127
2, 543916, Note_off_c, 7, 55, 127
2, 543935, Note_on_c, 10, 57, 127
2, 543935, Note_on_c, 0, 60, 127
2, 544103, Note_off_c, 10, 57, 127
2, 544106, Note_on_c, 7, 55, 127
2, 544266, Note_off_c, 7, 55, 127
2, 544273, Note_off_c, 0, 60, 127
2, 544276, Note_on_c, 6, 54, 127
2, 544276, Note_on_c, 10, 69, 127
2, 544429, Note_off_c, 10, 69, 127
2, 544429, Note_off_c, 6, 54, 127
2, 544448, Note_on_c, 7, 55, 127
2, 544448, Note_on_c, 11, 58, 127
2, 544616, Note_off_c, 7, 55, 127
2, 544620, Note_on_c, 5, 53, 127
2, 544780, Note_off_c, 5, 53, 127
2, 544786, Note_off_c, 11, 58, 127
2, 544790, Note_on_c, 3, 51, 127
2, 544790, Note_on_c, 0, 60, 127
2, 544790, Note_on_c, 7, 67, 127
2, 544943, Note_off_c, 7, 67, 127
2, 544943, Note_off_c, 0, 60, 127
2, 544943, Note_off_c, 3, 51, 127
2, 544962, Note_on_c, 2, 50, 127
2, 544962, Note_on_c, 2, 62, 127
2, 544962, Note_on_c, 6, 66, 127
2, 545130, Note_off_c, 6, 66, 127
2, 545130, Note_off_c, 2, 50, 127
2, 545133, Note_on_c, 4, 52, 127
2, 545133, Note_on_c, 7, 67, 127
2, 545293, Note_off_c, 7, 67, 127
2, 545293, Note_off_c, 4, 52, 127
2, 545303, Note_on_c, 6, 54, 127
2, 545303, Note_on_c, 10, 69, 127
2, 545456, Note_off_c, 10, 69, 127
2, 545456, Note_off_c, 6, 54, 127
2, 545475, Note_on_c, 7, 55, 127
2, 545475, Note_on_c, 11, 70, 127
2, 545643, Note_off_c, 11, 70, 127
2, 545644, Note_off_c, 2, 62, 127
2, 545647, Note_on_c, 0, 60, 127
2, 545647, Note_on_c, 0, 72, 127
2, 545807, Note_off_c, 0, 72, 127
2, 545807, Note_off_c, 0, 60, 127
2, 545817, Note_on_c, 11, 58, 127
2, 545817, Note_on_c, 2, 74, 127
2, 545970, Note_off_c, 2, 74, 127
2, 545970, Note_off_c, 11, 58, 127
2, 545989, Note_on_c, 0, 60, 127
2, 545989, Note_on_c, 3, 75, 127
2, 546157, Note_off_c, 3, 75, 127
2, 546157, Note_off_c, 7, 55, 127
2, 546160, Note_on_c, 10, 57, 127
2, 546160, Note_on_c, 0, 72, 127
2, 546320, Note_off_c, 0, 72, 127
2, 546320, Note_off_c, 10, 57, 127
2, 546330, Note_on_c, 11, 58, 127
2, 546330, Note_on_c, 7, 79, 127
2, 546483, Note_off_c, 7, 79, 127
2, 546483, Note_off_c, 11, 58, 127
2, 546502, Note_on_c, 6, 54, 127
2, 546502, Note_on_c, 10, 81, 127
2, 546670, Note_off_c, 10, 81, 127
2, 546671, Note_off_c, 0, 60, 127
2, 546674, Note_on_c, 11, 58, 127
2, 546674, Note_on_c, 11, 82, 127
2, 546834, Note_off_c, 11, 82, 127
2, 546834, Note_off_c, 11, 58, 127
2, 546844, Note_on_c, 10, 57, 127
2, 546844, Note_on_c, 0, 84, 127
2, 546997, Note_off_c, 0, 84, 127
2, 546997, Note_off_c, 10, 57, 127
2, 547009, Note_off_c, 6, 54, 127
2, 547014, Note_on_c, 7, 55, 127
2, 547014, Note_on_c, 11, 82, 127
2, 547182, Note_off_c, 11, 82, 127
2, 547186, Note_on_c, 7, 79, 127
2, 547346, Note_off_c, 7, 79, 127
2, 547356, Note_on_c, 3, 51, 127
2, 547356, Note_on_c, 2, 74, 127
2, 547509, Note_off_c, 2, 74, 127
2, 547509, Note_off_c, 3, 51, 127
2, 547521, Note_off_c, 7, 55, 127
2, 547526, Note_on_c, 0, 48, 127
2, 547526, Note_on_c, 10, 57, 127
2, 547526, Note_on_c, 0, 84, 127
2, 547694, Note_off_c, 0, 84, 127
2, 547694, Note_off_c, 10, 57, 127
2, 547698, Note_on_c, 11, 58, 127
2, 547698, Note_on_c, 4, 76, 127
2, 547858, Note_off_c, 4, 76, 127
2, 547858, Note_off_c, 11, 58, 127
2, 547866, Note_off_c, 0, 48, 127
2, 547868, Note_on_c, 2, 50, 127
2, 547868, Note_on_c, 0, 60, 127
2, 547868, Note_on_c, 6, 78, 127
2, 548021, Note_off_c, 6, 78, 127
2, 548021, Note_off_c, 0, 60, 127
2, 548021, Note_off_c, 2, 50, 127
2, 548040, Note_on_c, 7, 55, 127
2, 548040, Note_on_c, 11, 58, 127
2, 548040, Note_on_c, 7, 79, 127
2, 548208, Note_off_c, 7, 79, 127
2, 548211, Note_on_c, 2, 74, 127
2, 548371, Note_off_c, 2, 74, 127
2, 548381, Note_on_c, 3, 75, 127
2, 548534, Note_off_c, 3, 75, 127
2, 548550, Note_off_c, 11, 58, 127
2, 548553, Note_on_c, 0, 60, 127
2, 548553, Note_on_c, 5, 77, 127
2, 548635, Note_off_c, 0, 60, 127
2, 548639, Note_on_c, 12, 59, 127
2, 548721, Note_off_c, 12, 59, 127
2, 548721, Note_off_c, 5, 77, 127
2, 548725, Note_on_c, 0, 60, 127
2, 548725, Note_on_c, 0, 72, 127
2, 548807, Note_off_c, 0, 60, 127
2, 548811, Note_on_c, 12, 59, 127
2, 548887, Note_off_c, 0, 72, 127
2, 548893, Note_off_c, 12, 59, 127
2, 548897, Note_on_c, 10, 57, 127
2, 548897, Note_on_c, 2, 74, 127
2, 548979, Note_off_c, 10, 57, 127
2, 548982, Note_on_c, 12, 59, 127
2, 549050, Note_off_c, 2, 74, 127
2, 549064, Note_off_c, 12, 59, 127
2, 549067, Note_off_c, 7, 55, 127
2, 549068, Note_on_c, 0, 60, 127
2, 549068, Note_on_c, 3, 75, 127
2, 549236, Note_off_c, 0, 60, 127
2, 549240, Note_on_c, 7, 55, 127
2, 549400, Note_off_c, 7, 55, 127
2, 549410, Note_on_c, 10, 57, 127
2, 549563, Note_off_c, 10, 57, 127
2, 549578, Note_off_c, 3, 75, 127
2, 549582, Note_on_c, 11, 58, 127
2, 549582, Note_on_c, 5, 77, 127
2, 549664, Note_off_c, 5, 77, 127
2, 549668, Note_on_c, 4, 76, 127
2, 549750, Note_off_c, 4, 76, 127
2, 549750, Note_off_c, 11, 58, 127
2, 549754, Note_on_c, 5, 53, 127
2, 549754, Note_on_c, 5, 77, 127
2, 549836, Note_off_c, 5, 77, 127
2, 549839, Note_on_c, 4, 76, 127
2, 549916, Note_off_c, 5, 53, 127
2, 549921, Note_off_c, 4, 76, 127
2, 549925, Note_on_c, 7, 55, 127
2, 549925, Note_on_c, 2, 74, 127
2, 550007, Note_off_c, 2, 74, 127
2, 550011, Note_on_c, 4, 76, 127
2, 550078, Note_off_c, 7, 55, 127
2, 550093, Note_off_c, 4, 76, 127
2, 550097, Note_on_c, 10, 57, 127
2, 550097, Note_on_c, 5, 77, 127
2, 550265, Note_off_c, 5, 77, 127
2, 550269, Note_on_c, 0, 72, 127
2, 550429, Note_off_c, 0, 72, 127
2, 550435, Note_off_c, 10, 57, 127
2, 550439, Note_on_c, 5, 53, 127
2, 550439, Note_on_c, 2, 74, 127
2, 550592, Note_off_c, 2, 74, 127
2, 550592, Note_off_c, 5, 53, 127
2, 550611, Note_on_c, 7, 55, 127
2, 550611, Note_on_c, 3, 75, 127
2, 550779, Note_off_c, 3, 75, 127
2, 550782, Note_on_c, 11, 70, 127
2, 550942, Note_off_c, 11, 70, 127
2, 550949, Note_off_c, 7, 55, 127
2, 550952, Note_on_c, 10, 57, 127
2, 550952, Note_on_c, 0, 72, 127
2, 551105, Note_off_c, 0, 72, 127
2, 551105, Note_off_c, 10, 57, 127
2, 551124, Note_on_c, 11, 58, 127
2, 551124, Note_on_c, 2, 74, 127
2, 551292, Note_off_c, 2, 74, 127
2, 551292, Note_off_c, 11, 58, 127
2, 551296, Note_on_c, 6, 54, 127
2, 551296, Note_on_c, 10, 69, 127
2, 551456, Note_off_c, 10, 69, 127
2, 551456, Note_off_c, 6, 54, 127
2, 551466, Note_on_c, 7, 55, 127
2, 551466, Note_on_c, 11, 70, 127
2, 551619, Note_off_c, 11, 70, 127
2, 551619, Note_off_c, 7, 55, 127
2, 551638, Note_on_c, 10, 57, 127
2, 551638, Note_on_c, 0, 72, 127
2, 551806, Note_off_c, 0, 72, 127
2, 551806, Note_off_c, 10, 57, 127
2, 551809, Note_on_c, 4, 52, 127
2, 551809, Note_on_c, 7, 67, 127
2, 551969, Note_off_c, 7, 67, 127
2, 551969, Note_off_c, 4, 52, 127
2, 551979, Note_on_c, 6, 54, 127
2, 551979, Note_on_c, 10, 69, 127
2, 552132, Note_off_c, 10, 69, 127
2, 552132, Note_off_c, 6, 54, 127
2, 552151, Note_on_c, 7, 55, 127
2, 552151, Note_on_c, 11, 70, 127
2, 552319, Note_off_c, 7, 55, 127
2, 552323, Note_on_c, 2, 50, 127
2, 552483, Note_off_c, 2, 50, 127
2, 552489, Note_off_c, 11, 70, 127
2, 552493, Note_on_c, 3, 51, 127
2, 552493, Note_on_c, 7, 79, 127
2, 552646, Note_off_c, 7, 79, 127
2, 552646, Note_off_c, 3, 51, 127
2, 552665, Note_on_c, 5, 53, 127
2, 552665, Note_on_c, 8, 68, 127
2, 552833, Note_off_c, 5, 53, 127
2, 552836, Note_on_c, 0, 48, 127
2, 552996, Note_off_c, 0, 48, 127
2, 553003, Note_off_c, 8, 68, 127
2, 553007, Note_on_c, 2, 50, 127
2, 553007, Note_on_c, 5, 77, 127
2, 553160, Note_off_c, 5, 77, 127
2, 553160, Note_off_c, 2, 50, 127
2, 553178, Note_on_c, 3, 51, 127
2, 553178, Note_on_c, 7, 67, 127
2, 553346, Note_off_c, 3, 51, 127
2, 553350, Note_on_c, 12, 47, 127
2, 553510, Note_off_c, 12, 47, 127
2, 553516, Note_off_c, 7, 67, 127
2, 553520, Note_on_c, 0, 48, 127
2, 553520, Note_on_c, 3, 75, 127
2, 553673, Note_off_c, 3, 75, 127
2, 553673, Note_off_c, 0, 48, 127
2, 553692, Note_on_c, 2, 50, 127
2, 553692, Note_on_c, 5, 65, 127
2, 553860, Note_off_c, 2, 50, 127
2, 553863, Note_on_c, 10, 45, 127
2, 554023, Note_off_c, 10, 45, 127
2, 554030, Note_off_c, 5, 65, 127
2, 554034, Note_on_c, 12, 47, 127
2, 554034, Note_on_c, 2, 74, 127
2, 554187, Note_off_c, 2, 74, 127
2, 554187, Note_off_c, 12, 47, 127
2, 554205, Note_on_c, 0, 48, 127
2, 554205, Note_on_c, 3, 63, 127
2, 554373, Note_off_c, 3, 63, 127
2, 554373, Note_off_c, 0, 48, 127
2, 554377, Note_on_c, 2, 50, 127
2, 554377, Note_on_c, 5, 65, 127
2, 554537, Note_off_c, 5, 65, 127
2, 554537, Note_off_c, 2, 50, 127
2, 554547, Note_on_c, 3, 51, 127
2, 554547, Note_on_c, 7, 67, 127
2, 554700, Note_off_c, 7, 67, 127
2, 554700, Note_off_c, 3, 51, 127
2, 554719, Note_on_c, 5, 53, 127
2, 554719, Note_on_c, 2, 62, 127
2, 554887, Note_off_c, 2, 62, 127
2, 554887, Note_off_c, 5, 53, 127
2, 554891, Note_on_c, 7, 55, 127
2, 554891, Note_on_c, 3, 63, 127
2, 555051, Note_off_c, 3, 63, 127
2, 555051, Note_off_c, 7, 55, 127
2, 555061, Note_on_c, 8, 56, 127
2, 555061, Note_on_c, 0, 60, 127
2, 555214, Note_off_c, 0, 60, 127
2, 555214, Note_off_c, 8, 56, 127
2, 555232, Note_on_c, 7, 55, 127
2, 555232, Note_on_c, 12, 59, 127
2, 555400, Note_off_c, 12, 59, 127
2, 555400, Note_off_c, 7, 55, 127
2, 555404, Note_on_c, 10, 57, 127
2, 555404, Note_on_c, 0, 60, 127
2, 555564, Note_off_c, 0, 60, 127
2, 555564, Note_off_c, 10, 57, 127
2, 555574, Note_on_c, 12, 59, 127
2, 555574, Note_on_c, 2, 62, 127
2, 555727, Note_off_c, 2, 62, 127
2, 555727, Note_off_c, 12, 59, 127
2, 555746, Note_on_c, 0, 48, 127
2, 555746, Note_on_c, 3, 63, 127
2, 555914, Note_off_c, 3, 63, 127
2, 555914, Note_off_c, 0, 48, 127
2, 555918, Note_on_c, 2, 50, 127
2, 555918, Note_on_c, 5, 65, 127
2, 556078, Note_off_c, 5, 65, 127
2, 556078, Note_off_c, 2, 50, 127
2, 556088, Note_on_c, 3, 51, 127
2, 556088, Note_on_c, 7, 67, 127
2, 556241, Note_off_c, 7, 67, 127
2, 556241, Note_off_c, 3, 51, 127
2, 556259, Note_on_c, 5, 53, 127
2, 556259, Note_on_c, 8, 68, 127
2, 556427, Note_off_c, 8, 68, 127
2, 556427, Note_off_c, 5, 53, 127
2, 556431, Note_on_c, 7, 55, 127
2, 556431, Note_on_c, 5, 65, 127
2, 556591, Note_off_c, 5, 65, 127
2, 556591, Note_off_c, 7, 55, 127
2, 556601, Note_on_c, 8, 56, 127
2, 556601, Note_on_c, 0, 72, 127
2, 556754, Note_off_c, 0, 72, 127
2, 556754, Note_off_c, 8, 56, 127
2, 556773, Note_on_c, 12, 47, 127
2, 556773, Note_on_c, 2, 74, 127
2, 556941, Note_off_c, 2, 74, 127
2, 556941, Note_off_c, 12, 47, 127
2, 556945, Note_on_c, 0, 48, 127
2, 556945, Note_on_c, 3, 75, 127
2, 557105, Note_off_c, 3, 75, 127
2, 557105, Note_off_c, 0, 48, 127
2, 557115, Note_on_c, 2, 50, 127
2, 557115, Note_on_c, 5, 77, 127
2, 557268, Note_off_c, 5, 77, 127
2, 557268, Note_off_c, 2, 50, 127
2, 557287, Note_on_c, 3, 51, 127
2, 557287, Note_on_c, 7, 79, 127
2, 557455, Note_off_c, 7, 79, 127
2, 557458, Note_on_c, 3, 75, 127
2, 557618, Note_off_c, 3, 75, 127
2, 557625, Note_off_c, 3, 51, 127
2, 557628, Note_on_c, 8, 56, 127
2, 557628, Note_on_c, 0, 72, 127
2, 557781, Note_off_c, 0, 72, 127
2, 557781, Note_off_c, 8, 56, 127
2, 557800, Note_on_c, 2, 50, 127
2, 557800, Note_on_c, 5, 77, 127
2, 557968, Note_off_c, 5, 77, 127
2, 557972, Note_on_c, 10, 69, 127
2, 558132, Note_off_c, 10, 69, 127
2, 558138, Note_off_c, 2, 50, 127
2, 558142, Note_on_c, 7, 55, 127
2, 558142, Note_on_c, 12, 71, 127
2, 558295, Note_off_c, 12, 71, 127
2, 558295, Note_off_c, 7, 55, 127
2, 558314, Note_on_c, 0, 48, 127
2, 558314, Note_on_c, 3, 75, 127
2, 558482, Note_off_c, 3, 75, 127
2, 558485, Note_on_c, 0, 72, 127
2, 558645, Note_off_c, 0, 72, 127
2, 558655, Note_on_c, 10, 69, 127
2, 558808, Note_off_c, 10, 69, 127
2, 558827, Note_on_c, 2, 74, 127
2, 558955, Note_off_c, 0, 48, 127
2, 558995, Note_off_c, 2, 74, 127
2, 558999, Note_on_c, 6, 66, 127
2, 559159, Note_off_c, 6, 66, 127
2, 559169, Note_on_c, 11, 58, 127
2, 559169, Note_on_c, 7, 67, 127
2, 559322, Note_off_c, 7, 67, 127
2, 559322, Note_off_c, 11, 58, 127
2, 559341, Note_on_c, 10, 57, 127
2, 559341, Note_on_c, 0, 72, 127
2, 559509, Note_off_c, 0, 72, 127
2, 559512, Note_on_c, 10, 69, 127
2, 559672, Note_off_c, 10, 69, 127
2, 559683, Note_on_c, 6, 66, 127
2, 559836, Note_off_c, 6, 66, 127
2, 559854, Note_on_c, 11, 70, 127
2, 560022, Note_off_c, 11, 70, 127
2, 560026, Note_on_c, 2, 62, 127
2, 560110, Note_off_c, 10, 57, 127
2, 560188, Note_off_c, 2, 62, 127
2, 560198, Note_on_c, 7, 55, 127
2, 560198, Note_on_c, 3, 63, 127
2, 560351, Note_off_c, 3, 63, 127
2, 560351, Note_off_c, 7, 55, 127
2, 560369, Note_on_c, 5, 53, 127
2, 560369, Note_on_c, 10, 69, 127
2, 560537, Note_off_c, 10, 69, 127
2, 560541, Note_on_c, 5, 65, 127
2, 560701, Note_off_c, 5, 65, 127
2, 560711, Note_on_c, 2, 62, 127
2, 560864, Note_off_c, 2, 62, 127
2, 560883, Note_on_c, 7, 67, 127
2, 561051, Note_off_c, 7, 67, 127
2, 561055, Note_on_c, 11, 58, 127
2, 561138, Note_off_c, 5, 53, 127
2, 561217, Note_off_c, 11, 58, 127
2, 561226, Note_on_c, 3, 51, 127
2, 561226, Note_on_c, 0, 60, 127
2, 561379, Note_off_c, 0, 60, 127
2, 561379, Note_off_c, 3, 51, 127
2, 561398, Note_on_c, 6, 42, 127
2, 561398, Note_on_c, 2, 62, 127
2, 561566, Note_off_c, 6, 42, 127
2, 561570, Note_on_c, 7, 43, 127
2, 561730, Note_off_c, 7, 43, 127
2, 561740, Note_on_c, 10, 45, 127
2, 561893, Note_off_c, 10, 45, 127
2, 561912, Note_on_c, 11, 46, 127
2, 562080, Note_off_c, 11, 46, 127
2, 562080, Note_off_c, 2, 62, 127
2, 562083, Note_on_c, 0, 48, 127
2, 562083, Note_on_c, 4, 64, 127
2, 562243, Note_off_c, 4, 64, 127
2, 562243, Note_off_c, 0, 48, 127
2, 562253, Note_on_c, 2, 50, 127
2, 562253, Note_on_c, 6, 66, 127
2, 562406, Note_off_c, 6, 66, 127
2, 562406, Note_off_c, 2, 50, 127
2, 562425, Note_on_c, 3, 51, 127
2, 562425, Note_on_c, 7, 67, 127
2, 562593, Note_off_c, 7, 67, 127
2, 562593, Note_off_c, 3, 51, 127
2, 562597, Note_on_c, 0, 48, 127
2, 562597, Note_on_c, 10, 69, 127
2, 562757, Note_off_c, 10, 69, 127
2, 562757, Note_off_c, 0, 48, 127
2, 562767, Note_on_c, 7, 55, 127
2, 562767, Note_on_c, 11, 70, 127
2, 562920, Note_off_c, 11, 70, 127
2, 562920, Note_off_c, 7, 55, 127
2, 562939, Note_on_c, 10, 57, 127
2, 562939, Note_on_c, 0, 72, 127
2, 563107, Note_off_c, 0, 72, 127
2, 563107, Note_off_c, 10, 57, 127
2, 563110, Note_on_c, 11, 58, 127
2, 563110, Note_on_c, 2, 74, 127
2, 563270, Note_off_c, 2, 74, 127
2, 563270, Note_off_c, 11, 58, 127
2, 563281, Note_on_c, 0, 60, 127
2, 563281, Note_on_c, 3, 75, 127
2, 563434, Note_off_c, 3, 75, 127
2, 563434, Note_off_c, 0, 60, 127
2, 563452, Note_on_c, 11, 58, 127
2, 563452, Note_on_c, 2, 74, 127
2, 563620, Note_off_c, 11, 58, 127
2, 563624, Note_on_c, 7, 55, 127
2, 563784, Note_off_c, 7, 55, 127
2, 563790, Note_off_c, 2, 74, 127
2, 563794, Note_on_c, 2, 50, 127
2, 563794, Note_on_c, 11, 82, 127
2, 563947, Note_off_c, 11, 82, 127
2, 563947, Note_off_c, 2, 50, 127
2, 563966, Note_on_c, 0, 60, 127
2, 563966, Note_on_c, 3, 75, 127
2, 564134, Note_off_c, 3, 75, 127
2, 564134, Note_off_c, 0, 60, 127
2, 564138, Note_on_c, 4, 52, 127
2, 564138, Note_on_c, 2, 74, 127
2, 564298, Note_off_c, 2, 74, 127
2, 564298, Note_off_c, 4, 52, 127
2, 564308, Note_on_c, 6, 54, 127
2, 564308, Note_on_c, 0, 72, 127
2, 564461, Note_off_c, 0, 72, 127
2, 564461, Note_off_c, 6, 54, 127
2, 564479, Note_on_c, 7, 55, 127
2, 564479, Note_on_c, 11, 70, 127
2, 564647, Note_off_c, 7, 55, 127
2, 564651, Note_on_c, 2, 50, 127
2, 564811, Note_off_c, 2, 50, 127
2, 564817, Note_off_c, 11, 70, 127
2, 564821, Note_on_c, 11, 46, 127
2, 564821, Note_on_c, 7, 79, 127
2, 564974, Note_off_c, 7, 79, 127
2, 564974, Note_off_c, 11, 46, 127
2, 564993, Note_on_c, 8, 56, 127
2, 564993, Note_on_c, 0, 72, 127
2, 565161, Note_off_c, 0, 72, 127
2, 565161, Note_off_c, 8, 56, 127
2, 565165, Note_on_c, 0, 48, 127
2, 565165, Note_on_c, 11, 70, 127
2, 565325, Note_off_c, 11, 70, 127
2, 565325, Note_off_c, 0, 48, 127
2, 565335, Note_on_c, 2, 50, 127
2, 565335, Note_on_c, 8, 68, 127
2, 565488, Note_off_c, 8, 68, 127
2, 565488, Note_off_c, 2, 50, 127
2, 565506, Note_on_c, 3, 51, 127
2, 565506, Note_on_c, 7, 67, 127
2, 565674, Note_off_c, 3, 51, 127
2, 565678, Note_on_c, 11, 46, 127
2, 565838, Note_off_c, 11, 46, 127
2, 565844, Note_off_c, 7, 67, 127
2, 565848, Note_on_c, 7, 43, 127
2, 565848, Note_on_c, 3, 75, 127
2, 566001, Note_off_c, 3, 75, 127
2, 566001, Note_off_c, 7, 43, 127
2, 566020, Note_on_c, 5, 53, 127
2, 566020, Note_on_c, 8, 68, 127
2, 566188, Note_off_c, 8, 68, 127
2, 566188, Note_off_c, 5, 53, 127
2, 566192, Note_on_c, 10, 45, 127
2, 566192, Note_on_c, 7, 67, 127
2, 566352, Note_off_c, 7, 67, 127
2, 566352, Note_off_c, 10, 45, 127
2, 566362, Note_on_c, 12, 47, 127
2, 566362, Note_on_c, 5, 65, 127
2, 566515, Note_off_c, 5, 65, 127
2, 566515, Note_off_c, 12, 47, 127
2, 566534, Note_on_c, 0, 48, 127
2, 566534, Note_on_c, 3, 63, 127
2, 566702, Note_off_c, 3, 63, 127
2, 566705, Note_on_c, 0, 72, 127
2, 566865, Note_off_c, 0, 72, 127
2, 566875, Note_on_c, 3, 63, 127
2, 566908, Note_off_c, 0, 48, 127
2, 567028, Note_off_c, 3, 63, 127
2, 567047, Note_on_c, 7, 43, 127
2, 567047, Note_on_c, 2, 62, 127
2, 567215, Note_off_c, 2, 62, 127
2, 567219, Note_on_c, 0, 72, 127
2, 567379, Note_off_c, 0, 72, 127
2, 567389, Note_on_c, 11, 70, 127
2, 567421, Note_off_c, 7, 43, 127
2, 567542, Note_off_c, 11, 70, 127
2, 567561, Note_on_c, 4, 40, 127
2, 567561, Note_on_c, 0, 60, 127
2, 567729, Note_off_c, 0, 60, 127
2, 567732, Note_on_c, 11, 70, 127
2, 567892, Note_off_c, 11, 70, 127
2, 567902, Note_on_c, 10, 69, 127
2, 567935, Note_off_c, 4, 40, 127
2, 568055, Note_off_c, 10, 69, 127
2, 568074, Note_on_c, 6, 42, 127
2, 568074, Note_on_c, 2, 62, 127
2, 568242, Note_off_c, 2, 62, 127
2, 568246, Note_on_c, 0, 72, 127
2, 568406, Note_off_c, 0, 72, 127
2, 568416, Note_on_c, 11, 70, 127
2, 568448, Note_off_c, 6, 42, 127
2, 568569, Note_off_c, 11, 70, 127
2, 568588, Note_on_c, 7, 43, 127
2, 568588, Note_on_c, 4, 64, 127
2, 568756, Note_off_c, 4, 64, 127
2, 568759, Note_on_c, 2, 74, 127
2, 568919, Note_off_c, 2, 74, 127
2, 568929, Note_on_c, 0, 72, 127
2, 568962, Note_off_c, 7, 43, 127
2, 569082, Note_off_c, 0, 72, 127
2, 569101, Note_on_c, 10, 45, 127
2, 569101, Note_on_c, 6, 66, 127
2, 569269, Note_off_c, 6, 66, 127
2, 569273, Note_on_c, 3, 75, 127
2, 569433, Note_off_c, 3, 75, 127
2, 569443, Note_on_c, 2, 74, 127
2, 569475, Note_off_c, 10, 45, 127
2, 569596, Note_off_c, 2, 74, 127
2, 569615, Note_on_c, 11, 46, 127
2, 569615, Note_on_c, 7, 67, 127
2, 569783, Note_off_c, 7, 67, 127
2, 569786, Note_on_c, 0, 72, 127
2, 569946, Note_off_c, 0, 72, 127
2, 569957, Note_on_c, 11, 70, 127
2, 569989, Note_off_c, 11, 46, 127
2, 570110, Note_off_c, 11, 70, 127
2, 570128, Note_on_c, 0, 48, 127
2, 570128, Note_on_c, 10, 69, 127
2, 570296, Note_off_c, 10, 69, 127
2, 570300, Note_on_c, 11, 70, 127
2, 570460, Note_off_c, 11, 70, 127
2, 570470, Note_on_c, 7, 67, 127
2, 570502, Note_off_c, 0, 48, 127
2, 570623, Note_off_c, 7, 67, 127
2, 570642, Note_on_c, 2, 50, 127
2, 570642, Note_on_c, 6, 66, 127
2, 570812, Note_on_c, 3, 63, 127
2, 570972, Note_off_c, 3, 63, 127
2, 570980, Note_off_c, 6, 66, 127
2, 570982, Note_on_c, 2, 62, 127
2, 571014, Note_off_c, 2, 50, 127
2, 571135, Note_off_c, 2, 62, 127
2, 571154, Note_on_c, 4, 52, 127
2, 571154, Note_on_c, 7, 67, 127
2, 571324, Note_on_c, 2, 62, 127
2, 571484, Note_off_c, 2, 62, 127
2, 571492, Note_off_c, 7, 67, 127
2, 571494, Note_on_c, 0, 60, 127
2, 571526, Note_off_c, 4, 52, 127
2, 571647, Note_off_c, 0, 60, 127
2, 571666, Note_on_c, 6, 54, 127
2, 571666, Note_on_c, 10, 69, 127
2, 571836, Note_on_c, 2, 62, 127
2, 571985, Note_off_c, 10, 69, 127
2, 571996, Note_off_c, 2, 62, 127
2, 572002, Note_off_c, 6, 54, 127
2, 572006, Note_on_c, 2, 38, 127
2, 572006, Note_on_c, 0, 60, 127
2, 572159, Note_off_c, 0, 60, 127
2, 572159, Note_off_c, 2, 38, 127
2, 572178, Note_on_c, 4, 40, 127
2, 572178, Note_on_c, 11, 58, 127
2, 572346, Note_off_c, 11, 58, 127
2, 572349, Note_on_c, 0, 60, 127
2, 572509, Note_off_c, 0, 60, 127
2, 572516, Note_off_c, 4, 40, 127
2, 572519, Note_on_c, 6, 42, 127
2, 572519, Note_on_c, 10, 57, 127
2, 572672, Note_off_c, 10, 57, 127
2, 572672, Note_off_c, 6, 42, 127
2, 572691, Note_on_c, 7, 43, 127
2, 572691, Note_on_c, 11, 58, 127
2, 572861, Note_on_c, 10, 57, 127
2, 572930, Note_off_c, 11, 58, 127
2, 573023, Note_off_c, 10, 57, 127
2, 573033, Note_on_c, 7, 55, 127
2, 573065, Note_off_c, 7, 43, 127
2, 573186, Note_off_c, 7, 55, 127
2, 573205, Note_on_c, 10, 45, 127
2, 573205, Note_on_c, 0, 60, 127
2, 573375, Note_on_c, 10, 57, 127
2, 573444, Note_off_c, 0, 60, 127
2, 573537, Note_off_c, 10, 57, 127
2, 573546, Note_on_c, 7, 55, 127
2, 573579, Note_off_c, 10, 45, 127
2, 573699, Note_off_c, 7, 55, 127
2, 573718, Note_on_c, 11, 46, 127
2, 573718, Note_on_c, 2, 62, 127
2, 573888, Note_on_c, 10, 57, 127
2, 573957, Note_off_c, 2, 62, 127
2, 574050, Note_off_c, 10, 57, 127
2, 574060, Note_on_c, 7, 55, 127
2, 574092, Note_off_c, 11, 46, 127
2, 574213, Note_off_c, 7, 55, 127
2, 574232, Note_on_c, 0, 48, 127
2, 574232, Note_on_c, 3, 63, 127
2, 574402, Note_on_c, 10, 57, 127
2, 574432, Note_off_c, 3, 63, 127
2, 574564, Note_off_c, 10, 57, 127
2, 574574, Note_on_c, 7, 55, 127
2, 574606, Note_off_c, 0, 48, 127
2, 574727, Note_off_c, 7, 55, 127
2, 574745, Note_on_c, 2, 50, 127
2, 574745, Note_on_c, 6, 54, 127
2, 574913, Note_off_c, 6, 54, 127
2, 574913, Note_off_c, 2, 50, 127
2, 574917, Note_on_c, 4, 52, 127
2, 574917, Note_on_c, 7, 55, 127
2, 575077, Note_off_c, 7, 55, 127
2, 575077, Note_off_c, 4, 52, 127
2, 575087, Note_on_c, 6, 54, 127
2, 575087, Note_on_c, 10, 57, 127
2, 575240, Note_off_c, 10, 57, 127
2, 575240, Note_off_c, 6, 54, 127
2, 575259, Note_on_c, 7, 43, 127
2, 575259, Note_on_c, 11, 58, 127
2, 575427, Note_off_c, 11, 58, 127
2, 575427, Note_off_c, 7, 43, 127
2, 575431, Note_on_c, 10, 45, 127
2, 575431, Note_on_c, 0, 60, 127
2, 575591, Note_off_c, 0, 60, 127
2, 575591, Note_off_c, 10, 45, 127
2, 575601, Note_on_c, 11, 46, 127
2, 575601, Note_on_c, 2, 62, 127
2, 575754, Note_off_c, 2, 62, 127
2, 575754, Note_off_c, 11, 46, 127
2, 575772, Note_on_c, 0, 48, 127
2, 575772, Note_on_c, 3, 63, 127
2, 575940, Note_off_c, 0, 48, 127
2, 575944, Note_on_c, 2, 50, 127
2, 575944, Note_on_c, 0, 60, 127
2, 575992, Note_off_c, 3, 63, 127
2, 576104, Note_off_c, 0, 60, 127
2, 576104, Note_off_c, 2, 50, 127
2, 576114, Note_on_c, 3, 51, 127
2, 576114, Note_on_c, 7, 67, 127
2, 576267, Note_off_c, 7, 67, 127
2, 576267, Note_off_c, 3, 51, 127
2, 576286, Note_on_c, 6, 42, 127
2, 576286, Note_on_c, 10, 69, 127
2, 576454, Note_off_c, 10, 69, 127
2, 576454, Note_off_c, 6, 42, 127
2, 576458, Note_on_c, 7, 43, 127
2, 576458, Note_on_c, 11, 70, 127
2, 576618, Note_off_c, 11, 70, 127
2, 576618, Note_off_c, 7, 43, 127
2, 576628, Note_on_c, 10, 45, 127
2, 576628, Note_on_c, 0, 72, 127
2, 576781, Note_off_c, 0, 72, 127
2, 576781, Note_off_c, 10, 45, 127
2, 576799, Note_on_c, 11, 46, 127
2, 576799, Note_on_c, 2, 74, 127
2, 576971, Note_on_c, 11, 70, 127
2, 577009, Note_off_c, 2, 74, 127
2, 577131, Note_off_c, 11, 70, 127
2, 577137, Note_off_c, 11, 46, 127
2, 577141, Note_on_c, 3, 51, 127
2, 577141, Note_on_c, 7, 67, 127
2, 577294, Note_off_c, 7, 67, 127
2, 577294, Note_off_c, 3, 51, 127
2, 577313, Note_on_c, 10, 45, 127
2, 577313, Note_on_c, 0, 72, 127
2, 577481, Note_off_c, 0, 72, 127
2, 577485, Note_on_c, 4, 64, 127
2, 577645, Note_off_c, 4, 64, 127
2, 577651, Note_off_c, 10, 45, 127
2, 577655, Note_on_c, 2, 62, 127
2, 577655, Note_on_c, 6, 66, 127
2, 577808, Note_off_c, 6, 66, 127
2, 577808, Note_off_c, 2, 62, 127
2, 577827, Note_on_c, 3, 63, 127
2, 577827, Note_on_c, 7, 67, 127
2, 577995, Note_off_c, 3, 63, 127
2, 577998, Note_on_c, 2, 62, 127
2, 578158, Note_off_c, 2, 62, 127
2, 578168, Note_on_c, 0, 60, 127
2, 578168, Note_on_c, 2, 74, 127
2, 578321, Note_off_c, 2, 74, 127
2, 578321, Note_off_c, 0, 60, 127
2, 578340, Note_on_c, 11, 58, 127
2, 578340, Note_on_c, 7, 79, 127
2, 578427, Note_off_c, 7, 67, 127
2, 578508, Note_off_c, 7, 79, 127
2, 578508, Note_off_c, 11, 58, 127
2, 578512, Note_on_c, 10, 57, 127
2, 578512, Note_on_c, 5, 77, 127
2, 578672, Note_off_c, 5, 77, 127
2, 578672, Note_off_c, 10, 57, 127
2, 578682, Note_on_c, 7, 55, 127
2, 578682, Note_on_c, 3, 75, 127
2, 578835, Note_off_c, 3, 75, 127
2, 578835, Note_off_c, 7, 55, 127
2, 578854, Note_on_c, 6, 54, 127
2, 578854, Note_on_c, 2, 74, 127
2, 579022, Note_off_c, 2, 74, 127
2, 579022, Note_off_c, 6, 54, 127
2, 579025, Note_on_c, 10, 57, 127
2, 579025, Note_on_c, 0, 72, 127
2, 579185, Note_off_c, 0, 72, 127
2, 579185, Note_off_c, 10, 57, 127
2, 579195, Note_on_c, 2, 50, 127
2, 579195, Note_on_c, 11, 70, 127
2, 579348, Note_off_c, 11, 70, 127
2, 579348, Note_off_c, 2, 50, 127
2, 579367, Note_on_c, 0, 48, 127
2, 579367, Note_on_c, 10, 69, 127
2, 579535, Note_off_c, 10, 69, 127
2, 579535, Note_off_c, 0, 48, 127
2, 579539, Note_on_c, 11, 46, 127
2, 579539, Note_on_c, 7, 67, 127
2, 579699, Note_off_c, 7, 67, 127
2, 579699, Note_off_c, 11, 46, 127
2, 579709, Note_on_c, 10, 45, 127
2, 579709, Note_on_c, 6, 66, 127
2, 579862, Note_off_c, 6, 66, 127
2, 579862, Note_off_c, 10, 45, 127
2, 579881, Note_on_c, 11, 46, 127
2, 579881, Note_on_c, 7, 67, 127
2, 580049, Note_off_c, 7, 67, 127
2, 580049, Note_off_c, 11, 46, 127
2, 580052, Note_on_c, 7, 55, 127
2, 580052, Note_on_c, 3, 75, 127
2, 580212, Note_off_c, 3, 75, 127
2, 580212, Note_off_c, 7, 55, 127
2, 580223, Note_on_c, 0, 48, 127
2, 580223, Note_on_c, 2, 74, 127
2, 580376, Note_off_c, 2, 74, 127
2, 580376, Note_off_c, 0, 48, 127
2, 580394, Note_on_c, 2, 50, 127
2, 580394, Note_on_c, 0, 72, 127
2, 580476, Note_off_c, 0, 72, 127
2, 580480, Note_on_c, 11, 70, 127
2, 580562, Note_off_c, 11, 70, 127
2, 580562, Note_off_c, 2, 50, 127
2, 580566, Note_on_c, 0, 48, 127
2, 580566, Note_on_c, 10, 69, 127
2, 580726, Note_off_c, 10, 69, 127
2, 580726, Note_off_c, 0, 48, 127
2, 580736, Note_on_c, 2, 50, 127
2, 580736, Note_on_c, 7, 67, 127
2, 580889, Note_off_c, 7, 67, 127
2, 580889, Note_off_c, 2, 50, 127
2, 580908, Note_on_c, 7, 43, 127
2, 580908, Note_on_c, 7, 67, 127
2, 581108, Note_off_c, 7, 67, 127
2, 581108, Note_off_c, 7, 43, 127
2, 581112, Note_on_c, 11, 46, 127
2, 581112, Note_on_c, 2, 62, 127
2, 581304, Note_off_c, 2, 62, 127
2, 581304, Note_off_c, 11, 46, 127
2, 581332, Note_on_c, 11, 58, 127
2, 581332, Note_on_c, 2, 50, 127
2, 581536, Note_off_c, 2, 50, 127
2, 581536, Note_off_c, 11, 58, 127
2, 581584, Note_on_c, 7, 55, 127
2, 583684, Note_off_c, 7, 55, 127
2, 588288, End_track
3, 0, Start_track
3, 0, Title_t, "MIDI"
3, 1536, End_track
0, 0, End_of_file
